<svg height="119" viewBox="0 0 79 119" width="79" xmlns="http://www.w3.org/2000/svg"><g fill="#fff" transform="translate(-17 -1)"><path d="m36.4618398 30.6695642c17.5333333 2.5333334 32.8533333 14.7733334 43.1333333 29.6666667 1.5466667 1.5866667 1.8933334 4.5866667 4.9733334 3.56 3.6-5.0133333-16-21.4666667-18.2533334-24-15.5466666-12.8933333-44.44-21.1733333-57.98666664-3.2933333-3.01333334-29.14666669-9.56-3.9466667-1.33333334 6.4 7.87999998 2.4 13.78666668-1.56 22.34666668-2.6666667 10.5733333-7.8-13.8133333-.6533333-18.2666667-.64 5.08-8.48 16.1866667-10.2533333 25.3866667-9.0266667z" transform="matrix(.7193398 .69465837 -.69465837 .7193398 42.604578 -18.344434)"/><path d="m80.936 95.928c4.312 0 7.168 2.856 7.168 6.72 0 3.976-3.472 7.448-8.232 7.448-1.7623201 0-3.2989602-.32816-4.8456799-1.02144.2671202 4.10032 2.5653598 6.17344 6.2456799 6.17344 5.712 0 8.7919983-6.776 10.2474403-10.472561.4205597-1.050559 1.1407197-1.478399 1.8289594-1.478399.9279204 0 1.79816.77728 1.79816 1.8536 0 .25256-.04816.52192-.1545597.80136-3.472 9.128-8.064 13.384-14.168 13.384-4.6111901 0-8.1357946-2.39688-9.5839681-6.538791-2.2203575 4.031912-4.5495625 6.25935-7.2154731 6.25935-3.08 0-5.264-2.184-5.264-6.552 0-4.032.84-7.224.84-9.632 0-1.736-.672-2.408-2.072-2.408-2.5386483 0-6.4909053 2.555705-6.6590879 12.275358l-.0049121.492642c0 1.288.224 3.584.224 3.92 0 1.176-.672 2.072-1.904 2.072l-.2547208-.006531c-1.7782866-.095237-2.5452792-1.266536-2.5452792-5.761469 0-4.592 1.512-8.064 1.512-9.968 0-1.12-.504-1.624-1.68-1.624-2.7059204 0-7.0072802 4.25432-7.6479204 11.326l-.0182 1.827489c-.0042001.63203-.0064401 1.28723-.0064401 1.96651 0 1.568-.84 2.52-2.184 2.52-1.568 0-2.296-.952-2.296-2.52l.0037499-1.478052c.0350768-6.842055.3173168-12.884081.8922501-17.169948.168-1.232.952-2.24 2.352-2.24 1.3953333 0 2.0192083.8228889 2.0687755 2.2222286l.0032245.1857714c0 .5174403-.1988002 1.75112-.4031998 4.416721 2.1632802-3.3807202 4.9739204-5.1452799 8.2432006-5.1452799 1.7976004 0 3.4199205 1.00184 4.2974404 2.5194399 1.9969602-2.6011994 4.4228806-3.919439 7.0705605-3.919439 3.304 0 5.544 2.24 5.544 5.544 0 2.8-.896 6.72-.896 11.256 0 1.176.56 1.736 1.288 1.736 1.85472 0 4.5152128-5.687808 5.9764498-9.256984l.3526696-.877897c.017677-.044741.0362051-.088323.0555407-.130755 1.2501837-5.4380332 5.3280248-8.718364 10.0233399-8.718364zm.1108798 4.087439c-2.52 0-4.8949602 1.95216-5.7310398 5.420801 1.3865597.6048 3.0536799.907199 4.4436003.907199 2.408 0 3.976-1.568 3.976-3.528 0-1.736-1.064-2.8-2.6885605-2.8z"/></g></svg>