<svg height="176" viewBox="0 0 143 176" width="143" xmlns="http://www.w3.org/2000/svg"><g fill="#fff"><path d="m54.04 40.08c1.1045695 0 2-.8954305 2-2s-.8954305-2-2-2-2 .8954305-2 2 .8954305 2 2 2z"/><path d="m139.626667 21.5733333c-5.253334 3.4-10.573334 7.48-13.506667 14.08-.2-1.68-4.746667-17.7333333-7.2-9.1333333 1.64 4.72 3.64 9.4666667 3.826667 15.6666667-2.946667.9066666-8.733334 3.0933333-10.973334-1.7733334 13.053334-22.7866666-9.72-20.68-4.52-.3466666-.386666 1.52-4 2.9733333-3.386666 5.8266666-7.5200003 5.5333334-10.666667-9.7466666-11.1333337-16.1066666 3.68.8133333 7.3199997-5.1333334.2133334-4 .5260619-7.9402864.6106366-15.90366523.2533333-23.85333337-.1733333-2.54666666-4.08-2.6-4 0 0 7.37333334-.96 15.99999997-.6 24.69333337-10.96 1.3333333-14.6666667 9.68-.4266667 4.2-1.6802499 6.9531378-4.3378058 13.6329403-7.8933333 19.84-2.88-4-9.0266667-9-15.3733333-7.64-1.3333334 4.6666666-1.4533334 10.88-5.3333334 15.7333333-10.8-1.4533333-.3866666-26.5733333-16.8266666.5333333-1.9648746-3.0276731-4.313261-5.7883717-6.9866667-8.2133333-1.8933333-1.7333333-4.6666667 1-2.8266667 2.8266667 4.4 5.68-2.2666666 12.2-5.1733333 16.5733333 5.1866667 4.8533333 9.5733333-5.4533333 10.2533333-11.08.8732526 1.1569329 1.5780455 2.4318449 2.0933334 3.7866667-6.92 11.84 8.36 14.0133333 4.4133333.5333333 1.5333333-2.6666667 3.92-4.9733333 6.2666667-9.3333333.8533333 8.28 11.64 12.28 13.9733333 2.9466666 1.8266667-3.3733333 3.44-6.6666666 3.48-10.56 2.9866667 1 8.2666667 3.24 9.6666667 8.2-4.76 7.0133334 4 8.9466667 4.08.8266667 3.2606201-5.5559443 5.9968731-11.4034018 8.1733333-17.4666667 1.8933333 11.8933334 14.053333 18.6666667 19.426667 5.8533334 3.106666 4.3066666 11.053333 3.64 15.84 1.1333333 3.653333-3.0133333 3.8-10.36 8.413333-14.1866667 2.533333-2.88 13.8-8.92 5.786667-9.56zm-97.426667 47.76s0 0 0-.1066666c.4666667 0-.3066667.36 0 .1066666zm69.026667-38.8533333c.194876-.7022098.453738-1.3850692.773333-2.04.015349.2264068.015349.4535932 0 .68-.362004 1.6391225-.861551 3.2448085-1.493333 4.8.083659-1.1790672.312041-2.343366.68-3.4666667z"/><path d="m42.28 157.613333c-.6075133-.93152-1.8551464-1.194179-2.7866666-.586666s-1.1941799 1.855146-.5866667 2.786666c1.2556019 3.688345 1.7101564 7.602059 1.3333333 11.48h-3.12c-45.2-26.24-34-59.733333-24-95.9199997-8.88 3.1333334-8.73333333 17.2533334-10.97333333 25.5866667-6.89333334 32.133333 2.89333333 55.346667 28.00000003 70.333333-1.8666667.626667-11.36-2.12-9.7866667 3.213334 4.4133333 2.4 12 0 17.5733333.786666 10.1333334 2.306667 6.3466667-11.56 4.3466667-17.68z"/></g></svg>