<svg height="164" viewBox="0 0 155 164" width="155" xmlns="http://www.w3.org/2000/svg"><g fill="#fff"><path d="m100.478 150.306c-4.667-3.25-10.777 1.3-14.456 5.408l-.598.559c-7.8-2.249-13.208-7.579-22.451-8.632-7.371-1.3-15.067 7.306-7.644 13.182 6.162 6.695 16.991-2.808 8.281-7.683-2.496.117-2.496 5.356 1.3 3.991.1734499 1.203204-.2037016 2.420592-1.027 3.315-14.131 4.771-17.342-24.167 19.994-2.925-1.5991895 1.159656-3.3839745 2.038861-5.278 2.6-3.406-7.501-9.165 7.618 4.732-.26.299-.195 2.08-1.742 2.6-1.638 5.031 2.782 20.969 1.144 14.547-7.917zm-.546 4.953c-2.015 2.522-5.096 3.107-9.698 2.301-.546-.117-1.534-.325-3.003-.702 1.898-3.12 14.17-10.946 12.701-1.599z"/><path d="m113.075 60.736c3.38 3.367 15.86-7.527 17.849-10.712l.104-.182c.060581-.1174735.112713-.2391149.156-.364 2.366-6.344-3.64-10.595-10.582-7.423-11.297-5.187-16.445 10.738-7.527 18.681zm-.559-11.83c1.3-3.315 3.679-5.304 7.8-2.158 1.3-.494 8.229-4.082 7.228 1.001-2.6 3.731-7.085 6.565-12.038 9.373-1.547-2.015-3.666-5.122-2.99-8.216z"/><path d="m134.577 7.8c1.95 0 15.496-2.938 5.772-4.693-4.563-1.3-5.512-3.354-6.422.572v.221h-4.16c.533-2.99-3.484-4.641-5.421-1.131-.832-2.509-5.993-2.86-5.421 1.131h-61.672c-.728-.169-4.875-4.784-4.173-1.053l1.456 1.053h-1.404c-2.236-3.315-6.981-5.2-2.275 0h-2.028c-4.407-6.5-6.084-3.9-1.417.806-5.967 5.941-1.755 5.733 1.417.793h2.028c-5.395 4.862.403 3.107 2.275 0h1.404c-4.628 3.198 1.066 2.262 2.717 0h62.647c.686103.74011072 1.415376 1.43899746 2.184 2.093.715.585 1.456 1.144 2.21 1.677.767-.533 1.495-1.092 2.21-1.677.76983-.65721727 1.503252-1.35592103 2.197-2.093h5.2v.273z"/><path d="m42.238 30.628c0-.416-1.755-.689-1.846-.273-4.55 13.195-30.186 8.229-23.777-8.71.8138626-.0870066 1.5810753-.4229459 2.197-.962 0 0 .481-.871-.533-.663-.3881825.3062681-.8286234.5397018-1.3.689 2.483-4.121 6.279-18.785-.689-10.725-2.028 2.951-4.108 6.968-6.5 10.4-17.745 7.397-6.617 15.418.442.91.936.091 1.872.325 2.925.364-5.603 18.642 24.492 22.542 29.081 8.97zm-40.638-1.807c-1.534-.546 3.614-7.267 7.592-7.54-.923 1.417-5.356 8.32-7.592 7.54zm12.779-10.101c-.182.455-.507 1.209-.845 2.08-.9299412.0046573-1.8578729-.0868289-2.769-.273 2.106-3.133 4.004-6.721 5.785-9.425.563203-1.0227296 1.3076392-1.93455381 2.197-2.691-.559 1.755-3.783 8.957-4.329 10.309z"/><path d="m23.804 29.146c2.6 0 4.823-2.6 6.5-5.2 1.027 10.283 9.971 2.808 11.999-2.717.0692744-.2012605-.0194943-.422881-.2085507-.5206687-.1890563-.0977878-.4212245-.0421692-.5454493.1306687-.845 1.534-3.731 6.5-6.5 6.903-2.418.169-1.846-4.979-1.573-6.5.1059065-.0199486.2020456-.0748853.273-.156 14.885-19.24-1.976-18.525-3.432 1.144-1.3 2.093-3.523 5.2-5.707 5.525-2.418.169-1.846-4.979-1.573-6.5.1059065-.0199486.2020456-.0748853.273-.156 1.69-2.249 11.31-15.899 2.639-13.741-4.42 2.496-10.153 21.736-2.145 21.788zm15.496-20.878c.299 2.379-2.834 7.254-5.486 11.024 1.586-6.5 5.005-12.051 5.486-11.024zm-10.4 0c.299 2.379-2.834 7.254-5.486 11.024 1.586-6.5 4.966-12.051 5.486-11.024z"/><path d="m49.024 37.986c5.512.546 7.319-8.957 8.437-11.999 2.366-2.223 5.863-1.95 7.865-3.562.5683239 1.3762439 1.9175428 2.2675903 3.4064163 2.250411 1.4888734-.0171793 2.8171663-.9394201 3.3535837-2.328411 1.5737699 1.1012646 3.6440721 1.1875271 5.304.221-.676 2.717-.663 5.278 1.781 5.2 1.3 0 2.769-1.3 3.9-2.86-.208 9.763 8.931-.117 9.789-3.796.0359977-.1120701.0243653-.2340083-.0321723-.3372509s-.1530132-.178719-.2668277-.2087491c-.2251002-.0627024-.4611018.0552984-.546.273-7.8 13.468-6.89 4.693-3.757-2.288-1.04-.611-3.588-.728-3.744 1.625-.754 2.834-3.224 6.032-4.706 6.266-1.742.338 2.6-8.229 3.237-9.555.208-.325-3.081-.546-3.38-.299-.6463939 1.3292234-1.2107834 2.6967828-1.69 4.095-.884 1.872-3.458 2.314-5.551.819 2.743-8.593-6.812-6.396-5.694-3.588-1.0422588.8400685-1.6098266 2.1352874-1.521 3.471-1.508 1.872-5.031 1.443-7.319 3.042.195-1.976 4.914-9.802-.845-7.631-3.9 10.296-6.162 8.151-2.47 0-4.108-3.172-6.162 5.993-2.743 8.021 1.898.637 2.86-.936 3.705-2.535-.364 1.092-.754 2.171-1.144 3.263-3.237 1.287-11.349 11.869-5.369 12.441zm-.247-.91c-3.224-1.014 2.86-9.1 4.966-9.854-.143.819-3.068 10.478-4.966 9.854zm20.319-13.169c-1.599-.208-.78-3.25-.364-4.368.7622077.8925541 1.6360422 1.6833743 2.6 2.353-.364.897-1.092 2.106-2.236 2.015zm2.535-2.86c-.8980665-.6530326-1.683986-1.4477333-2.327-2.353.156-.182.455-.689.611-.845.0845512-.0764071.1328001-.1850397.1328001-.299s-.0482489-.2225929-.1328001-.299c-.7852692-.2293059-1.6197308-.2293059-2.405 0 .26-.845 6.019-2.782 4.121 3.796z"/><path d="m153.557 20.93c-3.809 7.956-10.53 10.985-7.683.091 15.054-15.158 2.886-19.721-2.171-3.653-3.458-2.08-6.682 1.014-7.566 3.9-1.632159 2.0561445-4.072766 3.3072522-6.695 3.432-1.3 0-1.898-1.573-1.443-3.133 1.526867-.7546404 2.860887-1.8485372 3.9-3.198 0-4.433-7.8-.325-6.799 3.614-1.66147 1.6078975-3.841501 2.5711672-6.149 2.717-1.3 0-1.898-1.573-1.456-3.133 1.528128-.7526843 2.862559-1.8469175 3.9-3.198-.169-4.459-8.151-.273-6.76 3.9-7.8 12.272-6.032 2.366-4.459-4.654-1.872-3.328-6.279 3.965-6.695 5.265-.182-.585 1.963-5.395.936-5.85-.94437-.0492201-1.890797.0427937-2.808.273-.208.845-1.924 7.449-1.716 7.904.9494.2735941 1.944178.3531763 2.925.234.455-.364 2.47-4.368 4.004-6.409-3.692 10.673 1.872 15.067 8.203 4.407 1.807 3.354 7.267 2.197 10.27-.481 1.469 3.9 7.54 2.821 10.621-.13.351 3.367 5.057 2.444 6.617-.702-.975 12.896 9.477 5.538 11.843-.936.107524-.2160562.027657-.4784771-.182-.598-.267115-.0635214-.539853.0811968-.637.338zm-.962-12.272c.91 1.664-5.057 8.684-6.058 10.101.78-2.418 3.653-10.673 6.058-10.101zm-21.32 9.1c0 .806-1.833 2.288-2.821 2.6.442-.858 1.846-3.055 2.821-2.652zm-10.491 0c0 .806-1.833 2.288-2.834 2.6.455-.858 1.872-3.055 2.834-2.652zm18.343 6.565c-1.69-.065 2.171-7.085 4.342-6.175-.546 1.599-2.535 6.214-4.342 6.123z"/><path d="m83.617 91.26c0-.923-3.822-1.521-4.017-.598-5.473 22.49-41.756 19.331-51.246 1.3-3.404873-6.5491658-4.5432164-14.0421166-3.237-21.307.2338672-.0269063.4482077-.1433957.598-.325 3.432-4.719 12.142-16.731 13.975-25.727-4.056-16.211-18.083 6.383-19.89 18.304-3.9 12.701.104 26.871 4.108 31.85 13.546 19.058 54.392 19.123 59.709-3.497zm-45.708-48.945c.663 5.2-6.188 15.899-11.999 24.141 3.497-14.248 11.011-26.377 11.999-24.141z"/><path d="m94.589 70.681c-.0727647.7565878-.0727647 1.5184122 0 2.275-3.367 4.641-9.178 7.8-12.597 2.405 8.723-29.9-11.882-17.927-2.119.273-1.573 4.966-3.822 10.166-6.526 10.608-3.692.208.325-13.715 1.586-16.614 1.183-2.184-6.604-1.3-6.734-.988-.1900538.4248249-.3592552.8586746-.507 1.3-2.132 3.705-7.475 4.524-11.895 1.365 6.006-18.798-14.911-13.988-12.467-7.8-10.53 9.737 5.07 22.399 11.804 9.62 3.4304689 2.4102382 7.9456791 2.6180088 11.583.533-3.614 16.107 9.412 20.332 14.547 4.017 4.485 4.498 10.231 1.95 14.04-2.47 4.667 10.595 23.296 2.795 25.896-4.849-1.976-1.586-1.976.468-3.627 2.158-5.551 5.486-18.564 10.101-16.588-1.014 2.977-1.651 7.319-4.615 8.515-6.994 0-9.776-16.211-.897-14.911 6.175zm-45.981 5.876c-3.497-.468-1.716-7.137-.793-9.568 1.6608818 1.9669612 3.5655425 3.7143563 5.668 5.2-.793 1.911-2.366 4.511-4.875 4.368zm5.538-6.266c-1.9657984-1.4454298-3.6826723-3.2018225-5.083-5.2.338-.403.988-1.521 1.3-1.846.1961088-.1507482.3212638-.3757865.3458764-.6219124.0246126-.2461258-.0535021-.4914911-.2158764-.6780876-.26-.325-4.615-.728-5.278-.065.494-1.755 13.091-5.98 8.931 8.411zm26.65 2.301c-.728-2.769-1.118-11.934 1.3-13.325 1.014 1.976-.702 10.933-1.3 13.325zm27.404-9.633c0 1.781-4.017 5.018-6.201 5.746 1.001-1.781 4.069-6.604 6.201-5.746z"/><path d="m59.801 33.501c-1.677-.455-3.822 3.406-1.3 4.186s3.289-3.679 1.3-4.186z"/><path d="m61.829 51.675c1.17 9.724 10.53.273 9.529-5.811 2.0376302-.4631462 4.0990328-.8146696 6.175-1.053.2675414-.0525897.4804298-.2553406.546-.52 0-.234-.13-.39-.364-.364-2.1208618.2548597-4.2258139.628109-6.305 1.118 0-1.989-.299-3.64-.299-5.785 4.979-7.124-3.458-6.721-3.133 0-1.5957833 1.8908111-2.9899933 3.9429139-4.16 6.123s-.078 0-.091.078c-.598 1.924-6.773 9.867-7.436 5.759-.572-4.42 5.98-12.064-.611-9.828-6.591 14.3 2.912 16.25 8.853 4.394s.078 0 .104-.078c.9136089-1.8076578 2.044291-3.4971327 3.367-5.031.091 1.69.273 3.224.221 4.849-2.8939499 1.0716438-5.2112723 3.299476-6.396 6.149zm10.309-16.432v.156c-.1985135.6953281-.4823383 1.3634081-.845 1.989.0911201-.7761213.3822961-1.5152602.845-2.145zm-3.9 11.128c-.3066446 2.5575149-1.1720924 5.0162744-2.535 7.202-6.019 3.185-2.145-6.396 2.483-7.202z"/><path d="m54.497 126.698c1.781-2.145 1.521-2.041 3.9-4.615.689-.689 1.3-1.3 2.015-1.872.104 0 .221-.299.546 0 .0069962.121232.0069962.242768 0 .364-.3916033 1.289086-.8738041 2.548889-1.443 3.77.104.533-3.263 5.2.754 5.694.4146297.004396.8285723-.03482 1.235-.117.5130064-.098562 1.0082325-.273863 1.469-.52.4609895-.236642.8965861-.51978 1.3-.845.4065904-.279293.7853387-.597093 1.131-.949-.117.546-.442 3.081 2.353 2.6 1.3575869-.348771 2.5910812-1.06906 3.562-2.08.247-.247.494-.533.741-.78 0 .247-.091.494-.117.741.091 1.209.741 2.314 3.146 1.846.7923904-.123044 1.5629531-.359466 2.288-.702 1.2401024-.46135 2.3953592-1.124634 3.419-1.963-.1845729.663401-.1845729 1.364599 0 2.028.1437325.334626.4382033.580823.793.663.3527304.085341.7250766.019356 1.027-.182.3914698-.205582.7616106-.449439 1.105-.728.3608777-.300277.7038019-.621497 1.027-.962.624-.689 1.014-1.027 2.262-2.6l1.482-1.898-2.6 4.485-2.743 4.433c-.8123026.328183-1.5914898.733012-2.327 1.209-2.795 1.963-6.305 3.9-8.619 8.437-.2262983.501849-.3879255 1.030413-.481 1.573-.0616548.506244-.0173847 1.019777.13 1.508.351.195-.208 1.118 1.859 1.3 2.366-.676 3.9-2.301 6.76-6.058l2.106-3.133c.858-1.378 2.223-3.549 3.198-5.2 2.015-1.3 6.136-3.042 7.8-6.175-.0856335-.053805-.1772531-.097433-.273-.13-2.0900732 1.91067-4.3580618 3.617102-6.773 5.096 1.105-1.833 3.198-5.343 4.368-7.384l1.56-2.834c.429-.806.728-1.417.884-1.807.0476825-.116649.0476825-.247351 0-.364-.6779914-.30477-1.4540086-.30477-2.132 0l-.702 1.027-1.469 2.08c-1.4312834 2.056641-3.0037366 4.011348-4.706 5.85l-.663.624c-.533.286-1.014.923-.598-.845.1503475-.679729.3591233-1.345202.624-1.989.8329768-2.220185 1.9053003-4.343037 3.198-6.331.377-.715-1.3-.845-2.08-.416-.3390585.476383-.6515348.971137-.936 1.482-.481.91-1.053 1.911-1.924 3.9-.299.689-.546 1.3-.754 1.95-.546.26-.273 1.3-5.46 3.133-.3691819.118308-.7607574.149456-1.144.091-.1459086-.061296-.2559611-.185704-.299-.338-.247-1.404.273-2.249 1.599-5.512.39-.91.936-1.989 1.56-3.289 3.484-6.227 6.045-13 12.454-18.356.2155465-.153501.4464517-.284202.689-.39.312 0 1.144-.923 1.781.572.0230592.094894.0910063.172548.182.208.085689.043968.187311.043968.273 0 .095661-.033707.1777824-.09758.234-.182.0256439-.089193.0256439-.183807 0-.273-.1000131-.448093-.3704136-.839708-.754-1.092-.468 0-.377-.611-2.6-.234-.4472731.119794-.8824706.280817-1.3.481-6.851 5.083-11.141 15.002-15.314 23.582-.247.507-.455 1.092-.663 1.651-.507.572-1.053 1.079-1.599 1.599-.4973201.475462-1.0320408.910194-1.599 1.3-.2049239.148557-.4276599.270844-.663.364-.273 0-1.144.767-1.079-.962.4306135-1.64902 1.1100846-3.222762 2.015-4.667.8648961-1.455022 1.5834099-2.992206 2.145-4.589-2.496-2.6-3.705 4.251-5.668 6.955-.9233219 1.132178-2.0361762 2.095479-3.289 2.847-.299-.091-2.301 1.56-2.041-1.183.3007129-1.248329.7366214-2.460155 1.3-3.614.273-.572.507-1.17.754-1.807.474931-1.045829.6112818-2.213901.39-3.341-.1892096-.25581-.5044463-.385908-.819-.338-.7573802.105171-1.4671352.430664-2.041.936-2.1627241 1.879415-4.123349 3.979462-5.85 6.266.91-1.924.858-1.612 2.054-4.433.409472-.836694.3400447-1.828513-.182-2.6-.4668973-.326692-1.0640617-.404372-1.599-.208-.7111326.184816-1.3527606.573407-1.846 1.118-.533.572-1.014 1.118-1.469 1.651.208-.39.221-.416 1.053-2.249.0650223-.112622.0650223-.251378 0-.364-.6999494-.300857-1.4986832-.267377-2.171.091-.585 1.417-2.509 5.2-3.523 7.28-.4682461.734432-1.0470622 1.392177-1.716 1.95-.6730791.590673-1.4484996 1.053281-2.288 1.365-.221-.091-.533.416-1.092-.429-.0432401-.227631-.0432401-.461369 0-.689.031212-.286114.0877674-.568891.169-.845.156-.507.338-1.053.585-1.664.091-.338 1.3-3.029 2.379-5.083-.065-.13.871-1.3.806-2.054-.6824697-.283116-1.4495303-.283116-2.132 0l-.962 1.573-1.378 2.093-1.573 2.262c-.572.78-1.105 1.508-1.651 2.171-.7973747 1.057631-1.8013558 1.942195-2.951 2.6-.832.078-1.586-.351-1.118-2.444.0228262-.309689.0839591-.615354.182-.91.0146459-.234162.0583134-.4656.13-.689.8423732-2.445701 2.5294497-4.510756 4.758-5.824.7273265-.325461 1.5447353-.389752 2.314-.182 0 0 .429 0 .455-.533-.0539509-.081249-.1382506-.137449-.234-.156-2.3208738-.428029-4.7066833.277089-6.422 1.898-1.5954229 1.508744-2.7503298 3.423103-3.341 5.538-.624.26-.13 1.612-5.512 3.9-.0039111-.877279-.399655-1.706911-1.079-2.262-.1482962-.045219-.3067038-.045219-.455 0l.481-1.3c.507-.416 3.367-3.549 4.433-4.732l2.431-2.886c2.2378225-2.580134 4.2269864-5.365834 5.941-8.32.279498-.457742.4815455-.958469.598-1.482.0868776-.316163-.0140276-.654195-.26-.871-.286-.091-.234-.403-1.807-.338-.364 0-.702.156-1.027.247-.2935625.091607-.576763.213601-.845.364-6.019 4.121-9.4249988 12.584-12.844 20.696-.195 2.509-4.069 7.8-.728 10.92 3.211 1.3 5.759-4.888 5.2-9.412.5732978-.114646 1.1256859-.316312 1.638-.598.5969888-.298737 1.1706134-.642042 1.716-1.027.7192194-.454037 1.3862412-.98591 1.989-1.586-.1435035.7179.0320293 1.462728.481 2.041.1605414.213512.3829614.372384.637.455.4978758.235258 1.0545896.316729 1.599.234.2541522-.017941.5063621-.057077.754-.117 1.7846465-1.037386 3.3165478-2.45828 4.485-4.16.52-.689 1.027-1.3 1.508-2.041-.5662931 1.179079-1.0274155 2.405839-1.378 3.666-.2966884.773429-.1946434 1.643241.273 2.327.1660988.187384.3827805.32281.624.39 1.8721905.331854 3.7842146-.315293 5.07-1.716l-.533 1.118c-.0760501.094987-.0760501.230013 0 .325.6723075.330216 1.4596925.330216 2.132 0 .52-1.053 1.391-2.847 2.093-4.225l.988-1.534c.325-.481.637-.936.936-1.3l.416-.572c.2433126-.337431.508199-.658769.793-.962.2696298-.338821.5605512-.660137.871-.962.214478-.252468.4692522-.467708.754-.637.559.182.975-.208-.91 4.485l-.793 1.703-.754 1.469c-.1869715.438233-.2499301.919416-.182 1.391.091 0 .325 1.092 1.417.273zm26.91 8.645-1.3 2.08c-.9380935 1.499056-1.953463 2.948344-3.042 4.342-.4924416.637041-1.0266152 1.2407-1.599 1.807-.727573.752873-1.6165845 1.330731-2.6 1.69-1.3-1.599.832-5.018 3.9-7.631 1.732263-1.573898 3.6589301-2.919507 5.733-4.004zm-53.625-14.768c1.1870035-2.43414 2.5468155-4.780141 4.069-7.02.6198745-.959611 1.3154204-1.868168 2.08-2.717.5605565-.654644 1.1977971-1.239508 1.898-1.742.4748383-.368949 1.0628829-.561901 1.664-.546.208 0 .299.091.325.208s.117.156-.299.936c-.091.182-.182.299-.234.39-1.378 2.743-5.785 8.086-8.385 11.089l-2.925 3.224c.546-1.287 1.17-2.561 1.807-3.822zm-3.198 8.021c.273-.312.39-.442.728.507.065.338.091.637.117.845-.143-.156-.39.221-.871-.663-.0487382-.228258-.0398021-.465065.026-.689zm.884 4.16c-.247 1.495-.26 4.095-2.171 6.149-.1996964.250946-.498567.402754-.819.416-.117-.195-.442 0-.572-1.3-.0144711-.281481-.0144711-.563519 0-.845.1071652-1.321675.3511374-2.628669.728-3.9.416-1.3.819-2.6 1.235-3.796.0675356.347852.2741389.653061.572.845.31915.157729.6710226.237903 1.027.234.052.741.026 1.404 0 2.197z"/><path d="m70.812 115.245c-.1878147-.016369-.3570465.113376-.39.299-.1012023.449379-.253877.885593-.455 1.3 0 0-.182.208.221.507.2663051.053825.5353824.092884.806.117.2625896.042938.5304104.042938.793 0 .1092342-.035117.2017614-.109139.26-.208.1341701-.244932.2556637-.496597.364-.754.0944249-.243728.1641086-.496332.208-.754.0533353-.106355.0533353-.231645 0-.338-.351-.299-.819-.13-1.807-.169z"/><path d="m136.384 72.943c-.342135-.1740776-.72114-.2632554-1.105-.260086-.44205.0177665-.87953.0965128-1.3.234086-.376998.1190728-.735726.2896875-1.066.507-.611848.3859193-1.174915.8442292-1.677 1.365-2.647796 2.8611357-4.923484 6.0453514-6.773 9.477l-1.963 3.991c-.273-.234-.533-.429-.767-.598-1.137184-.6146532-2.499721-.6484751-3.666-.091-1.43 1.027-2.171.728-3.523 4.017-.201264.5170074-.289903 1.0710059-.26 1.625-.702422.8075856-1.5378 1.4890783-2.47 2.015-.117 0-.338.195-.598.312s-.338.403-1.482.195c-.234-.078-.234-.312-.234-.702.10022-.5020549.280163-.9848296.533-1.43 0-.143.936-1.794 1.534-2.938.229398-.4996017.403758-1.0226796.52-1.56-.078-.182.598-1.677-1.17-1.651-.571724.1484107-1.109971.4042986-1.586.754-.224879.1381615-.43794.2946956-.637.468-1.049.9108526-2.047171 1.8786441-2.99 2.899l1.053-2.132c.312-.663.598-1.3.832-1.846s-.884-.637-1.716-.234c-.221.598-2.106 4.459-2.808 5.811-.356908.5792004-.794655 1.1044969-1.3 1.56-.532636.4719871-1.150314.8381816-1.82 1.079-.169-.078-.429.325-.858-.338-.0386509-.1799479-.0386509-.3660521 0-.546.0162625-.2308499.0643854-.4583399.143-.676.117-.403.26-.832.442-1.3.078-.273 1.04-2.418 1.898-4.043 0-.104.689-1.014.65-1.625-.545161-.2260602-1.157839-.2260602-1.703 0l-.767 1.3-1.105 1.651-1.3 1.794c-.455.624-.897 1.196-1.3 1.729-.754.676-.559 1.04-2.34 2.028-.663 0-1.3-.273-.884-1.937.0187016-.2432221.066716-.4832944.143-.715.0355339-.1721893.0833222-.3416205.143-.507.6742752-1.9380184 2.0149594-3.5735611 3.783-4.615.377-.403 1.183.156 2.197-.364.0261057-.066876.0261057-.141124 0-.208-.0421139-.0683822-.1148445-.1120205-.195-.117-1.844365-.3910238-3.7614293.1762707-5.096 1.508-1.2400931 1.2088889-2.1372766 2.7251291-2.6 4.394.13.416-.702.663.221 2.6.1238338.1658583.2966312.2886354.494.351.401428.2020403.8569604.2703701 1.3.195l.598-.091c1.4225803-.8160235 2.6406979-1.9452274 3.562-3.302.403-.559.819-1.079 1.196-1.638-.4527964.9395058-.8183322 1.9186195-1.092 2.925-.2885963.6258151-.2396335 1.3553614.13 1.937.1368434.1489475.3123663.2569616.507.312.6450819.1146083 1.3078982.0790209 1.937-.104.78398-.2837916 1.500939-.7263592 2.106-1.3l-.429.884c-.034678.0635442-.04397.1378748-.026.208.540131.2888908 1.188869.2888908 1.729 0l1.3-2.6c.117-.091 1.196-1.3 1.924-2.106 1.010123-1.1948104 2.188024-2.2369687 3.497-3.094.403.494.39.13-.429 2.327-.312.585-.806 1.508-1.3 2.6-.218655.4153732-.397133.8506836-.533 1.3 0 .728-.156 2.158 2.249 1.742.378427-.0642023.748878-.1688003 1.105-.312.886528-.3486676 1.704954-.850283 2.418-1.482.312-.26.546-.481.754-.689.073322.2609207.182711.5103278.325.741.988.676.286 1.066 2.899.975 1.310798-.3285992 2.454195-1.12944 3.211-2.249.221.455-.52.715 1.092 2.444.676 0-.234.767 3.237.26 1.003936-.3946564 1.896414-1.0283152 2.6-1.846.207786-.225743.38283-.4795564.52-.754.104-.078 0-.715-.494-.273-.796256 1.3635311-2.16893 2.2914012-3.731 2.522-.328754-.0092126-.637215-.1610704-.845-.416-.949-1.859-.338-3.679 1.3-7.345 1.874186-3.8883172 4.176433-7.5553429 6.864-10.933.948481-1.1938457 2.060015-2.24849 3.302-3.133.171123-.1219747.354036-.2264967.546-.312.195 0 .234-.351 1.105-.078.168645.1352786.287543.322773.338.533.01475.0732061.060266.1365355.12495.1738534s.142292.045021.21305.0211466c.073739-.0281513.137202-.0780145.182-.143.025816-.071405.025816-.149595 0-.221-.104142-.4209435-.411314-.7622463-.819-.91zm-14.885 17.498c-.216921.5489877-.390779 1.1140277-.52 1.69-.21264.1524305-.38634.3528538-.507.585-.196347.3278817-.422648.6368686-.676.923-.264221.344454-.574833.6506913-.923.91-.378173.2902012-.826952.4742008-1.3.533-.300677.0314804-.603914-.0273567-.871-.169-.279968-.1385878-.494601-.381216-.598-.676-.18561-.5123507-.22168-1.0669231-.104-1.599.259603-1.2689704.862102-2.4424954 1.742-3.393.304778-.3773821.669262-.7023431 1.079-.962.398135-.2379542.840373-.3927372 1.3-.455.457137-.0175689.909312.0999966 1.3.338.293612.1728152.557071.3923643.78.65-.273.52-.481 1.079-.702 1.625z"/></g></svg>