<svg height="61" viewBox="0 0 180 61" width="180" xmlns="http://www.w3.org/2000/svg"><g fill="#fff" transform="translate(0 -1)"><path d="m58 32.93c.31-5.25.83-11.11 1.16-15.37-4.69-5.07-5.24 6.14-5.46 8.67-.09 2.76-1.46 6.13-3.41 5.39-2.8-4.5.85-10.07 0-14.21-4.68-1.3-6.37 5.09-5.71 10.68-7.8 13.63-3.7-12.77-5.71-16.95-4.91-14.61-14.07-.62-13.62 7.3l-.38.1c-1.71-21.54-11.87-7.34-13.82 3.85 0-16.87-9.75-13.81-11-2.75-.11 1.57 1.36 1.76 1.5.86 1.23-3 4.81-6.54 5-3.36 3 5.37-1.95 33.81 6.37 22.53 1.62-33.59 10.22-37.55 9.4-2.67.83 4.25 4.76 1.58 4.66-.12-2-27.71 9.5-40.68 8.07-5.91 1.77 7.5 7.54 5.67 10.82 2 1.55 3.1 4.26 4.3 7.89.19l-.2 2.27c-1.3510946 1.4347963-2.6007757 2.9618131-3.74 4.57-11.16 16.61 9.9 16.29 8.08 2 0-.25 0-.6 0-1.06-.5436993-2.5912624.675371-5.2325814 3-6.5 1.7016024-1.4129476 3.1520464-3.1034418 4.29-5l-1.27-4c-2.08 3.65-3.79 5.99-5.92 7.49zm-7.67 16c-.63-3.41 2.2-7.37 3.75-9.09.07 3.81-.98 10.72-3.79 9.09z"/><path d="m92 16.51c.34-4 1.08-8.37 1.48-10.93 6-.67 11.77.23 16.6.58 3-.67 1.61-3.91.11-4-37.91-6.54-33.77 16.84-26.51 9.34.5-3.72 4.14-4.73 6.43-5.52-.84 4.49-1.26 7.34-2 10.79-2.45.37-3.62.64-5.17.91-2.53 2.78 3.2 2.44 4.27 2.46-2.63 11.98-4.21 13.26-11.45 10.65-7 5.06 5.49 6.4 7.34 5 6.64-2.5 7.26-10.49 8.41-15.58 17.59.79 15.03-4.95.49-3.7z"/><path d="m153.16 20.41c5-6-5.25-6.72-5.47-2.92-.61 3.72 3.87 3.97 5.47 2.92z"/><path d="m171.26 45.44c2.12-4.82 4.64-10.13 6.43-14-4.55-8.08-7.73 11.12-12.59 10.49-3.5-3.91 5.39-11.48 4.09-14.21-4.82-1.69-8.59 4.84-9.25 10.42-3 1.09-5.31 1-4.26-2.27 29-32.48 7.9-32.55-1.28-12-1.811134 3.6596545-2.962123 7.6102534-3.4 11.67-16.29 9.08 8.43-19.07-5.42-11.38-.186667.42-.656667 1.31-1.41 2.67-.85 1.68-1.4 2.76-1.67 3.24-.572735 1.0984532-1.070537 2.2343776-1.49 3.4-8.42 5.79-1.39-7.81-1.52-10.75-1.87-6.59-8.37 4.45-9.31 5.25l-.17-.25c.42-1.28.86-2 .95-2.36 4.25-12.46-6.84-1.54-8 1.55l-.17-.25c.34-1 .65-1.93 1-2.74.18-.55.53-1.81.54-1.87.64-2.38.57-3-.27-3.34-1.88-.51-2.26-.22-2.85.42-1.428933 3.0120593-2.609523 6.1357725-3.53 9.34-2.33 2.45-4.58 3.77-5.37 2.54-.45-4.65 3.81-9.9 1.53-12.15-16-8.45-21.4 25.5-5.06 13.59 1.42 4.93 5.34 3.43 8 1.38.07 4.66 3.79 3.42 9.93-7.11h.28c-.92 2.92-1.75 5.49-2.08 7.19-.77 4.69 2.54 4 3.92 2.66l5.17-8.84h.28c-3.51 11.87.49 12.62 6.11 9.84.53 4.24 6.31 3.3 10.82 1 .221743 1.7035553 1.198702 3.2167396 2.66 4.12 2.102806.2615958 4.23746.0532535 6.25-.61.71 2.83 2.91 4.3 7.15 2l-1 2.06c-1.778592.8718503-3.489967 1.8746091-5.12 3-16.23 11.86 3.62 18.86 6.85 4.86.08-.24.21-.57.4-1 .391419-2.6172088 2.451265-4.6689286 5.07-5.05l1.58-.68c1.52101-.6072845 2.932856-1.4584456 4.18-2.52l.21-4.22c-3.21 2.66-5.63 4.26-8.18 4.91zm-11.53-23.53c.6-1.81 7-11.34 6.33-6.69-2 5.39-6 9.76-8.94 13.21.732208-2.2259899 1.603935-4.4036368 2.61-6.52zm-51.53 4.63c-.7 4.8-5.34 6.69-4.87 2.33.75-4.31 3.56-8.14 6.76-8.22zm50.3 31.24c.6-3.42 4.63-6.15 6.68-7.23-1.18 3.62-4.61 9.73-6.68 7.23z"/></g></svg>