<svg height="93" viewBox="0 0 242 93" width="242" xmlns="http://www.w3.org/2000/svg"><g fill="#fff" transform="translate(0 -17)"><path d="m7.89543945 95.0554395c2.74848015 0 5.96680015-2.0955199 8.13848015-5.2903201 1.078 3.4014403 2.8375199 5.0663201 5.6375199 5.0663201 4.088 0 6.552-4.368 9.8-12.88.1063996-.2794404.1545596-.5488002.1545596-.8013599 0-1.0763201-.8702396-1.8536004-1.79816-1.8536004-.6882396 0-1.4083996.42784-1.8289593 1.4783997l.0011202.0011211c-1.456 3.64-4.144 9.968-6.16 9.968-1.0119204 0-2.2142405-.9839204-2.7468002-7.182 2.8806402-4.7112803 8.4028002-14.6535199 8.4028002-21.882 0-4.2-2.184-6.384-5.096-6.384-4.2526401 0-7.8344005 3.57784-7.8405605 16.82184-.76384-.3539204-1.6262397-.5264005-2.576-.5264005-5.88000005 0-11.48000005 5.6-11.48000005 13.552 0 6.664 3.248 9.912 7.392 9.912zm10.92056055-18.8434404-.0004897-.2926702-.00007-.29645c0-14.4621474 1.6448177-16.2591982 3.0356987-16.2954284l.042861-.0004505.0976888.0028401c.7328854.0457471 1.247191.6293721 1.247191 2.2930388 0 2.7423201-1.7948002 9.1940805-4.4228798 14.5891202zm-10.58455969 14.7548798c-1.68 0-3.248-1.568-3.248-5.768 0-5.656 3.864-9.52 7.05599999-9.52 2.016 0 3.192 1.176 3.192 4.536 0 6.496-4.256 10.752-6.99999999 10.752zm39.81712019 4.2576816c4.032 0 6.944-4.816 10.136-13.272.1063997-.2794403.1545597-.5493607.1545597-.8030406 0-1.0830398-.8724801-1.876-1.8015199-1.876-.6871202 0-1.4050406.4334403-1.8244809 1.5030406l-.0011194-.0005605-.2378056.5995924c-1.9226296 4.805886-4.3138744 9.7604076-6.0341944 9.7604076-1.12 0-2.24-1.12-2.24-5.88 0-3.192.896-9.856.896-11.2 0-1.624-.952-2.408-2.016-2.408-1.1155199 0-1.8435199.6328002-2.2450398 1.7253599-1.428-.8343997-2.93384-1.2207994-4.4189602-1.2207994-5.712 0-11.368 5.936-11.368 14 0 5.992 3.192 9.072 7.616 9.072 3.2586401 0 5.7276799-1.72032 7.9475199-5.0002404.91616 3.3997603 3.1276003 5.0002404 5.4370406 5.0002404zm-12.7685605-4.1435605c-2.1828806-.0004395-3.7508806-1.5684395-3.7508806-5.0964395 0-5.544 3.696-9.744 7.448-9.744 1.6996003 0 2.9696799.8052803 3.4423201 2.0479205-.0604801 2.1145596-.21 3.47032-.3931203 4.6871998-1.374684 6.2129993-4.6452675 8.0363734-6.6330841 8.1029681zm24.9614395 3.9201194c3.2412802 0 6.0228001-1.7214403 8.25216-5.1945606.924 3.864 2.8767197 5.194 5.08984 5.194 4.48 0 7.504-6.384 9.912-13.048.1036003-.2850398.1500804-.5566401.1500804-.8097603 0-1.0987198-.8808798-1.8502397-1.8054395-1.8502397-.7033598 0-1.4319195.4351203-1.8171998 1.484l.0011194-.0005588c-1.568 4.312-4.2 10.136-6.048 10.136-.896 0-1.736-.84-1.736-6.048 0-3.752.672-8.288.896-10.416.168-1.568-.952-2.408-2.072-2.408-1.064 0-2.128.616-2.296 1.96-.2346401 1.8423997-.4894403 3.8651194-.6563201 5.9124792-1.0477603 8.5343997-4.7471202 10.9995199-7.2402404 10.9995199-1.512 0-2.408-.896-2.408-3.36 0-3.192 1.344-8.232 1.344-12.096 0-2.408-1.904-4.256-3.976-4.256-1.232 0-2.184.952-2.184 2.072 0 1.512 1.624 1.68 1.624 3.304 0 2.016-1.288 6.888-1.288 12.264 0 3.65568 2.4651202 6.1611203 6.258 6.1611203zm37.7552006-3.0827993c.4244801-5.43368.9553599-12.46.9553599-13.7183201 0-3.92-4.368-6.104-8.456-6.104h-.056c-5.992 0-11.368 5.376-11.368 13.552 0 5.32 3.472 8.792 7.728 8.792 2.1817604 0 4.5404801-1.0169602 6.79784-3.5095199-.04984 1.5019204-.11984 2.8470407-.2071999 4.0516003-4.5583996 2.8901601-9.3911998 4.6457604-9.3911998 9.3710406 0 2.632 1.904 4.872 5.152 4.872 4.312 0 7.728-4.256 8.344-10.9759999l.0884801-1.1088002c5.1771996-3.6355199 8.4599196-9.8571202 10.6635196-15.1871998.103601-.2525597.150081-.5011998.150081-.7391998 0-1.0690398-.94136-1.9208002-1.89896-1.9208002-.631575 0-1.270041.3701252-1.650539 1.2926387l-.072022.1902402c-1.2572 3.5851202-3.75312 8.25384-6.7793599 11.1423201zm-10.5251998-1.5646385c-2.352 0-3.92-1.568-3.92-4.928 0-5.544 3.64-9.184 7.448-9.184 1.84184 0 3.1068798.9430398 3.4411998 2.42368.0319204 1.4817603-.1220796 2.6779204-.3611998 4.07232-1.736 6.328-4.536 7.616-6.608 7.616zm2.1285606 14.7840004h-.0005606c-.84 0-1.4-.448-1.4-1.176 0-1.68168 2.2668798-3.157281 4.7146401-4.603201-.7951998 5.03328-2.0876799 5.779201-3.3140795 5.779201zm17.6943191-9.9125626c1.43472 0 2.25232-.94584 2.25232-2.6762396 0-1.5254403-.16632-3.0077604-.22456-4.4408002.270481-8.1368002 5.70136-12.6531998 8.38992-12.6531998 1.176 0 1.904.728 1.904 2.184 0 2.744-2.632 8.456-2.632 12.096 0 3.192 2.296 5.488 5.264 5.488 4.648 0 7.672-5.152 10.752-13.272.1064-.2794403.15456-.5493608.15456-.8030407 0-1.0830398-.87248-1.876-1.80152-1.876-.68712 0-1.405041.4334403-1.824481 1.5030407l-.000559.0011202c-1.456 3.752-4.312 10.36-6.664 10.36-.896 0-1.512-.616-1.512-1.512 0-2.52 2.632-8.344 2.632-12.6 0-3.472-2.184-5.656-5.376-5.656-3.60696 0-6.9776 2.3200796-9.327361 6.4276799.10696-2.8851202.316401-5.3446401.608161-7.4362404h.2072c8.736 0 13.16-4.312 13.16-9.016 0-3.528-2.52-6.272-6.72-6.272-4.158 0-8.26112 2.7479204-10.346 11.0538408-.49616-.1086402-.87136-.1904005-1.133439-.1904005-1.176 0-1.904.896-1.904 1.792 0 .84.56 1.736 1.792 2.072.164079.0425597.330399.0817595.498399.1181591-.42896 2.8588002-.66696 6.2126402-.66696 10.12984 0 4.088.056 8.288.28 12.376.1092 1.7992803.85512 2.8022405 2.23832 2.8022405zm3.362239-28.5622396h-.08512c1.424079-5.936 3.749759-7.504 5.965119-7.504 1.512001 0 2.408001 1.008 2.408001 2.352 0 3.248-3.976 5.152-8.288 5.152zm26.321681 28.5611211c5.04 0 7.952-4.48 11.256-13.272.105281-.2755199.152881-.5403997.152881-.7890398 0-1.0740796-.8848-1.8407198-1.81608-1.8407198-.69104 0-1.40784.4222397-1.80768 1.4543192l-.003361-.0005605c-1.512 3.864-3.976 10.36-7.56 10.36-2.128 0-3.36-1.232-3.36-5.152 0-2.184.392-5.992 1.064-9.912.14112-.8467197.38248-2.4707197.6468-4.3691194 2.74848.2811203 4.3988.6731203 5.01032.6731203 1.064 0 1.736-.896 1.736-1.904 0-.84-.448-1.624-1.512-1.848-1.626239-.3348798-3.191439-.5779196-4.72136-.7459196.403761-3.1432803.745921-6.1762405.745921-7.2620804 0-1.512-1.12-2.296-2.184-2.296-1.176 0-2.296.784-2.352 2.24-.09968 2.296-.35504 4.704-.66248 7.0196003-.5264-.0134403-1.05168-.0196003-1.576961-.0196003-1.568 0-2.296.952-2.296 1.904 0 1.008.728 1.96 2.184 1.96.386961 0 .763281.0039204 1.128961.0106401-.22232 1.43584-.441281 2.77816-.624961 3.9653599-.616 3.92-1.12 7.784-1.12 10.304 0 6.552 2.968 9.52 7.672 9.52zm17.74976.1119991c6.104 0 10.696-4.256 14.168-13.384.1064-.2794403.15456-.5488002.15456-.8013599 0-1.07632-.87024-1.8536003-1.79816-1.8536003-.68824 0-1.4084.42784-1.82896 1.4783997-1.45544 3.6965605-4.53544 10.4725605-10.24744 10.4725605-3.68032 0-5.97856-2.0731202-6.24568-6.1734403 1.54672.6932803 3.08336 1.0214403 4.84568 1.0214403 4.76 0 8.232-3.472 8.232-7.448 0-3.864-2.856-6.72-7.168-6.72-5.656 0-10.416 4.76-10.416 12.32 0 6.888 4.2 11.088 10.304 11.088zm-1.06456-12.9925605c-1.38992 0-3.05704-.3023997-4.4436-.9071999.83608-3.4686401 3.21104-5.4208001 5.73104-5.4208001h.00056c1.624 0 2.688 1.064 2.688 2.8 0 1.96-1.568 3.528-3.976 3.528zm24.864 12.8245605c5.488 0 8.68-4.928 11.816-13.216.1064-.2794403.15456-.5493607.15456-.8030406 0-1.0830398-.87248-1.876-1.80152-1.876-.68712 0-1.405041.4334403-1.824481 1.5030406h.000001c-1.512 3.864-4.424 10.304-7.84 10.304-1.904 0-3.136-1.232-3.136-3.304 0-3.304 2.296-7.84 3.528-10.808.392-.952.616-1.736.616-2.296 0-1.232-.84-2.072-1.96-2.072-.728 0-1.344.448-2.576.448-2.744 0-3.92-1.456-4.648-2.464-.448-.616-.896-1.064-1.904-1.064-1.344 0-2.072 1.232-2.072 2.408 0 .728.224 1.512.84 1.96-.56 2.184-1.344 4.48-2.296 6.888-.11424.2895199-.16576.5633599-.16576.8170398 0 1.0516799.882 1.7539196 1.80824 1.7539196.70952 0 1.4448-.4121601 1.82952-1.3949603.89264-2.3211998 1.57192-4.2151202 2.23608-6.1644801 1.068481.4771203 2.24616.8624006 3.532481 1.0164006-1.579761 3.59016-3.249121 7.6714403-3.249121 11.1960804 0 4.2 2.968 7.168 7.112 7.168z"/><path d="m227.474199 9.16577315c-.69437 22.49966395-5.237967 48.04709115-31.15609 47.71841075 3.668086-4.8555051-2.566151-11.0406717-4.015272-1.9870221-1.75102 3.6005438-7.124842 4.691165-2.415201 8.8594294 13.494935 10.0247507 22.053803 3.6453639 4.528502-2.3455825 43.12643 4.1682645 40.952749-67.63345193 33.058061-52.24523555z" transform="matrix(-.78801075 -.61566148 .61566148 -.78801075 352.087122 197.233318)"/></g></svg>