<svg height="93" viewBox="0 0 186 93" width="186" xmlns="http://www.w3.org/2000/svg"><g fill="#fff"><path d="m110.56 7.08c-10.6666667-4-17.7866667-14.66666667-22.3733333 2-3.3066667-2.82666667-11.08-11.69333333-13.3333334-1.85333333-6.64-13.8-10.8533333-1.81333334-17.6533333 3.60000003-.7125392-.6745376-1.5269853-1.23250072-2.4133333-1.65333337-5-5.2-9.2533334 7.67999997-6.5733334 11.79999997-7.92-9.6266666-16.2133333-21.3333333-18.88-.1333333-5.92-8.36-13.52-12.56-16 2.1333333-9.26666663-29.10666663-18.4533333 21.9066667-9.9733333 11.6933334 1.56-4.7333334 1.46666667-10.8533334 3.65333333-16.28 7.78666667 17.8933333 6.66666667 14.88 12.86666667-1.5333334 11.8133333 10.36 10.5066667 14.0133334 15.6133333-4 3.5066667.6133334 11.8533334 18.2133334 15.0933334 11.7466667 5.88 4.6666667 12.6533333-4.3866667 9.0133333-10.6666667 3.2666667-1.8933333 5.24-6.1333333 8.9866667-9.15999997 4.5866666 6.45333337 8.4533333 18.14666667 10.6666666 1.77333334 5.6933334 5.12000003 11.64 12.00000003 14.8533334-2.08.56-3.96 22.6400003 14.05333333 16.4533333 2.61333333zm-57.8266667 5.6933333s0 0 0-.08h-.0933333.0933333v.08h.08-.08c.0533334.0666667.0666667.1066667 0 0zm3.4 3.08c2.0266667 7.1733334-4.88 8.5333334-4.7866666-.12 1.5324644.3713961 3.1345407.3438533 4.6533333-.08.0498907.0628706.0944877.129766.1333333.2zm32.1066667-6.7333333h.1733333c.0666667 0-.08.08-.1733333 0z"/><path d="m182.76 85.12c-5.101658.8270435-10.136964 2.0212577-15.066667 3.5733333l-.08-.1466666c-.106981-.269388-.196063-.5455438-.266666-.8266667 52.24-74.3866667-46.013334-98.4933333-42.946667-82.28 49.333333-1.78666667 68 38.3866667 41.933333 77.7333333-5.333333-12.5466666-6.853333 6.3066667.826667 9.4533334 5.8-1.1466667 11.88-1.9733334 17.986667-4.8.413333-1.3866667-.493334-2.64-2.386667-2.7066667z"/></g></svg>