<svg height="101" viewBox="0 0 166 101" width="166" xmlns="http://www.w3.org/2000/svg"><g fill="#fff"><path d="m20.54 79.118c-.156 1.976-.078 2.34 1.885 2.873 3.289-6.357 3.757-26.936 5.369-34.489.598-3.094 1.729-2.717 4.368-3.627 1.612-1.105 16.536-4.173 10.504-7.254-3.783-.182-9.477 2.847-13.741 3.406 0-4.524 2.6-21.736 3.77-26.338 9.1-3.653 45.721-6.396 38.493-8.606-11.102.221-27.846 3.549-37.973 5.889 2.34-6.5-.832-12.285-2.938-4.537-.5027325 1.84489271-.7820661 3.7434886-.832 5.655-3.471.234-13.13 4.017-16.601 5.447-4.082-.156-18.876 12.857-10.127 7.696 4.693-3.627 21.528-10.114 26.208-10.491-1.833 7.033-2.73 18.447-4.303 26.338-.845 1.664.598.611-3.783 2.73l-7.995 4.901c-2.678.923-2.704 6.5.754 5.317 2.6-2.184 6.981-5.772 10.491-6.5-.689 5.85-2.951 25.571-3.549 31.59z"/><path d="m87.815 68.9c.273 13.585 18.785-20.163 19.825-20.358-.182 3.9-2.21 12.246 1.794 15.405 1.183-3.484.234-13.871 2.262-19.162.676-2.431-1.3-4.784-2.847-.559-5.304 4.589-22.516 37.206-18.33 19.474 1.586-9.204 3.016-18.343 4.16-27.625 0-1.3.715-7.8-2.6-6.188-1.209.598-3.614 4.238-4.368 5.434-1.898 2.873-4.16 7.397-6.123 10.491-.481.546-1.3 2.782-1.664 0-.0050601-.47997-.0529163-.9585324-.143-1.43-.624-2.353-2.99-1.677-4.914.832-2.496 3.159-4.524 8.528-6.266 9.737 0-2.184 4.459-19.773 5.889-21.216.338-.429.533-2.34-1.3-1.508-1.547.91-3.289 6.604-4.693 12.311-1.768 2.08-4.472 7.943-6.604 11.765-7.332 13 5.46-25.87-6.214-9.555-20.241 32.578-3.354-14.859 3.12-10.4.806.364 1.794-.117 1.053-1.716-.5234842-.4475669-1.1639588-.7362315-1.846-.832-9.425-.52-17.888 27.027-12.675 28.314 3.081.559 8.255-9.36 11.622-13.962 3.9-6.058-.507 8.047.741 11.31 1.027 8.307 6.968-5.33 9.815-10.504-.637 3.536-3.9 14.651.897 10.296.4794834-.7310139.9136335-1.4907765 1.3-2.275.962-.845 7.579-15.795 8.918-11.167.0802191.687948.2061645 1.36979.377 2.041 1.066 2.288 2.756.52 4.225-2.795 19.383-37.18 2.86 15.392 4.589 23.842z"/><path d="m112.606 33.904c1.963.117 1.43-4.03-.988-1.573-.117.507-.208.988.988 1.573z"/><path d="m127.686 4.108c.351-.325 2.08 1.053 2.6-1.066-7.475-18.551-11.986 53.768-12.103 52.767-.234 1.95-.156 3.9-.455 5.733-.728 5.577-.403 14.131-.598 20.605.208 1.144 1.469 2.496 2.041-.533.598-4.667 1.196-16.068 1.3-18.265 1.183-16.484 4.108-43.94 7.215-59.241z"/><path d="m155.233 45.604c2.184-5.772-5.46 2.6-6.11 4.394l-8.84 11.622c-.351-1.066 5.122-17.069-2.262-12.077-1.729.689-10.855 15.145-8.983 6.643.804838-5.1260624 2.736182-10.0099208 5.655-14.3.234.156.728-1.82 1.3 0 .169.819.936 1.794 1.742 0-1.911-14.404-18.863 26-6.929 19.032 3.705-2.808 5.564-6.5 8.502-8.996-.26 13.91-7.904 24.375-12.519 38.532-4.654 21.008 5.33 5.343 7.176-3.9 5.252-19.994 7.735-23.738 21.268-40.95zm-26.117 48.698c-4.849 11.323 1.105-10.4 3.237-13.286l.676-1.43c.299-.611.234-.377.377-.546-.972194 5.2050434-2.407912 10.3127191-4.29 15.262z"/><path d="m165.685 26.585c-.182-5.2-5.837-8.463-11.31-5.941-8.84-14.3-20.033 1.378-10.894 12.545.585 1.144 2.054 3.731 3.432 5.902 1.963-.481 3.51-.871 6.5-1.833 4.732-1.716 12.337-3.588 12.272-10.673zm-12.285 8.606c-1.846.624-3.705 1.17-5.59 1.638-1.031333-1.6553333-1.989-3.3453333-2.873-5.07-8.957-12.662 4.823-21.671 8.112-7.8 13.351-7.852 14.339 9.464.351 11.232z"/></g></svg>