<svg height="135" viewBox="0 0 169 135" width="169" xmlns="http://www.w3.org/2000/svg"><g fill="#fff"><path d="m11.688 15.093c3.211-5.889 20.15-8.723 26.182-9.516-.0697684.26656287-.2036561.51202374-.39.715-3.471 5.044-7.891 15.808-9.23 24.908-1.0832977.1338991-2.1531838.3600539-3.198.676-.845.559-.273 1.755.286 2.47.949 1.3 2.366 1.807 1.716 4.29-.533 2.847-1.56 31.538 4.576 21.801 1.209-8.814.429-19.019 1.807-28.236.143-.858 22.308-3.211 16.419-5.564-4.849.91-11.414 2.431-15.938 3.484 1.5647612-8.3644491 3.7992891-16.5895986 6.682-24.596.429-1.04 19.903-3.38 22.373-3.705 1.209-.195 1.404-1.82-.273-1.82-4.147-.182-59.007 4.654-51.012 15.093z"/><path d="m63.077 27.43c-13.65-10.647-15.132 30.381-2.184 10.751-.78 12.298 7.163 14.677 10.777 2.015-.273 1.924 1.43 12.883 5.33 6.942.286-.767 2.002-6.331 2.288-7.8 2.873 5.343 5.2-1.885 6.279-5.577.325-.741 3.588-8.216 4.264-6.942-.13 4.797-1.625 8.268-2.171 13.156-3.588 30.576 4.108 21.71 11.7.884-.572 4.043 2.821 9.932 6.955 5.2 1.727219-2.3815056 3.228713-4.9188123 4.485-7.579 0 5.408.572 18.98 7.8 12.415 1.94598-3.2487291 3.682837-6.6182313 5.2-10.088.312 2.145 2.119 5.993 5.2 4.368 2.483-1.131 4.095-5.421 5.005-7.514-1.092 3.237.481 10.257-2.067 13.156-6.89 5.915-22.62 30.706-9.646 32.968 15.6-2.6 14.755-26.52 16.107-36.4 1.651-2.236 10.205-10.998 11.453-12.896-.182-4.589-10.4 9.88-11.622 10.283-.507-3.211 3.692-20.371-2.522-16.458-.611 1.469-.702 2.99-1.3 4.277-9.295 20.189-6.058 5.369-5.499-4.953-3.029-1.885-4.966 5.317-5.2 9.399-1.989 4.108-7.293 16.731-7.8 10.881 0-2.093-.325-15.99.585-16.991 22.503-36.647-6.617-32.825-5.499 3.588-1.729 2.977-6.058 12.649-7.163 9.867-.468-5.031 3.627-23.634-3.367-10.699-.117.429-.234.936-.338 1.482-2.6 4.953-7.618 17.251-8.905 20.124-.806 1.703-1.443 3.445-1.3.663 2.041-13.559 7.163-49.933-6.734-20.982 0-1.3 0-3.9-.819-4.758-3.9-5.2-6.136 18.096-6.422 8.853.78-5.2-.299-17.719-3.809-4.628-1.17 3.042-2.964 7.41-4.251 9.919-4.966 6.084-2.21-14.664-1.716-17.199-.182-.806-1.937-1.625-3.094.273zm-1.3 3.9c-8.099 23.569-7.8-6.5.338-1.625-.0771864.5347805-.2033844 1.0613306-.377 1.573zm68.224 41.262c-3.9 11.297-11.531 12.896-10.972 2.899 2.171-11.089 10.088-18.772 13.871-23.075 0 6.474-.559 13.754-2.899 20.176zm-12.311-56.407c8.086-23.972 6.019 5.642-1.43 11.908.070354-4.0076429.549503-7.997645 1.43-11.908z"/><path d="m103.949 25.896c3.9-.689-.39-6.266-1.469-1.755-.034984.8758845.600635 1.6352519 1.469 1.755z"/><path d="m49.063 56.836c-.377 0-1.3.936-1.911 2.496l-.208-.832c-.117-.234 0-1.768-1.469-1.664-.2006502.0321882-.3817362.1389826-.507.299-.4316767.6779255-.776698 1.4072745-1.027 2.171-.546.949.377-2.899-1.3-2.015-.1058366.1425592-.1607692.3165126-.156.494-.0456158 1.6179999.0064789 3.237278.156 4.849.1072605.6413898.1810272 1.287933.221 1.937.091.741.377 1.001 1.092.754.416-.169.364-.273.39-1.976.078-2.795.377-4.433 1.079-5.564l.208-.403v.468c.286-.065.156 5.447.962 5.655.338 0 .442-.312.533-.949.1007792-1.774289.6852239-3.4871614 1.69-4.953.091-.091.247-.221.247-.13-.0334288.2153773-.0334288.4346227 0 .65.0249541 2.5689396-.0791772 5.1375108-.312 7.696.091.182.494.182.624 0 .157317-.250924.2674592-.5284823.325-.819.195-1.404.923-5.499.559-6.981-.104-.923-.494-1.274-1.196-1.183z"/><path d="m57.383 60.281c0-.507-.156-1.651-.26-2.522-.195-2.197 0-3.575-1.638-2.704-.13.13 0 .208-.234 1.027-.1987059-.0448298-.3909114-.1147226-.572-.208-.7963526-.327461-1.7018514-.2499852-2.431.208-.6568132.4288746-1.1225632 1.0948972-1.3 1.859-.2959125.832857-.4111328 1.7191671-.338 2.6-.104 2.6.208 3.77 1.118 4.524.338.325.429.286.845.416 1.3 0 1.807-.845 2.717-4.537l.091-.624.143.845c.104 1.677.416 3.25.52 4.004.117.52.247.715.585.845s.78.247.884-.078.221-.676.117-2.457c-.13-1.196-.247-2.548-.247-3.198zm-2.925-.481c-.1904033 1.4677664-.6300557 2.89224-1.3 4.212-1.118 1.3-2.028-7.566.78-7.592.117 0 .312.325.546.533l.442.507z"/><path d="m59.684 54.821c-.1437729-.045807-.2982271-.045807-.442 0-.1319971.0051827-.2610149.0407739-.377.104-.104.117 0 .273-.091.455 0 1.716 0 2.34.182 5.278-.0009683 1.7401954.1250329 3.4781424.377 5.2 0 .117.338.26.858.091.0240086-1.3090449.1588235-2.6137058.403-3.9.377-.845.468-1.04.767-1.222.585-.819 2.002 1.768 3.315 3.562.832-.156.871-1.014-.065-2.496-.468-1.3-1.3-2.509-2.964-2.327l.273-.702c1.04-2.327 1.3-2.847 1.3-3.029s-.221-.546-.598-.221c-.5843479.7278312-1.0574973 1.5383186-1.404 2.405-.286.598-.663 1.391-.845 1.716l-.312.689-.065-2.34v-2.951c-.0491962-.1472483-.1647517-.2628038-.312-.312z"/><path d="m71.306 59.904c.3334119-.7782478.4717516-1.6261361.403-2.47-.533-1.651-.663-1.027-1.092-1.833-.7127227-.5691537-1.711956-.6112267-2.47-.104-1.43.429-2.6 2.73-2.6 5.122.1027355 1.2151812.360494 2.4122292.767 3.562 1.456 3.341 5.668 1.131 5.681-2.6h-.325c-.6136294.4772705-1.0671309 1.1303127-1.3 1.872-.377.78-1.118 1.963-1.3 1.963s-.338-.091-.845-.962c-.4118935-.868733-.675533-1.8002595-.78-2.756l-.143-.598 1.3.156c1.69-.156 1.82-.156 2.704-1.352zm-3.757-1.3c-.1095257-.5343616.0052108-1.0902546.3173575-1.537583.3121467-.4473283.7943077-.7468317 1.3336425-.828417.247 0 .455.247.637.468.2344992.323402.4024157.6901671.494 1.079.1336249.423032.1336249.876968 0 1.3-.494.715-.819 1.001-1.404.962-.6892701-.1917844-1.2181659-.7456281-1.378-1.443z"/><path d="m75.505 66.027c-.702 0-1.3-4.212-2.6-5.2-1.3.143 0 4.81 1.729 5.746.7641224.5149587 1.7768302.4619374 2.483-.13.65-.377.624-.377.624-1.3s0-1.222-1.092-4.537c-1.066-2.483-1.833-9.438 1.404-1.547 1.118 0 .936-2.912-.468-3.9-.884-.416-.572-.624-2.483-.364-1.417.715-1.417 3.471 0 6.786.403 1.989 1.898 3.419.403 4.446z"/><path d="m32.8 73.879c-2.73-.195-1.3.923.832.676 1.573-.624-.195 8.931 2.691 7.592.312-.13.312-1.3.156-3.627-.156-.923-.156-2.145-.312-2.834v-1.378h1.183c.4375605.0300737.8770593-.0138762 1.3-.13.624-.13.689-.871.078-.741-.5321906-.0358825-1.066756.0079343-1.586.13-.169 0-.91.208-.975.091s.065-1.989-.767-3.458c-1.82-.559-1.105 1.612-1.3 3.523-.286.273-.871.117-1.3.156z"/><path d="m41.432 76.479c0-.767-.468-4.225-.754-6.5 0-.494-.676-1.3-1.3-.533-.0969009 1.8691306.0077018 3.7432619.312 5.59.3829353 2.2186525.9039478 4.4112466 1.56 6.565.221.78.26.845.546.845s.195 0 .338-.078 0-1.118.169-2.21c.0274947-1.814665.3751644-3.6102245 1.027-5.304.299-.663 1.105-1.82 1.3-1.716s.325 7.93.559 8.983c0 .078.429.546.884-.091.2066217-.852192.3242517-1.7235251.351-2.6.143-1.3.208-2.6.208-3.081.0600088-1.1919408-.0716655-2.3857882-.39-3.536-.1285148-.5242098-.6366852-.8629901-1.17-.78-1.82-.273-2.86 3.068-3.341 5.46-.104.572-.169-.234-.299-1.014z"/><path d="m47.841 78.247c.494 1.079 0 4.147 2.002 3.38.1945943-.4559485.2312004-.9638591.104-1.443 0-.741-.104-2.21-.104-3.484.0121001-1.7475651-.1666254-3.4912285-.533-5.2-.117-.403-.962-.247-1.222.156-.3050032 2.1829947-.3877602 4.3913002-.247 6.591z"/><path d="m48.595 69.901c.845.091 1.222-2.028-.65-1.3-.156.299-.234.65.65 1.3z"/><path d="m57.669 71.175c-.871-.416-.559-.637-2.483-.364-1.404.715-1.404 3.471 0 6.786.455 2.08 1.95 3.497.468 4.55-.702 0-1.3-4.212-2.6-5.2-1.3.13 0 4.81 1.716 5.746.7653346.5105647 1.7751658.457694 2.483-.13.65-.377.624-.377.624-1.3s0-1.235-1.079-4.55c-1.079-2.483-1.833-9.425 1.391-1.534 1.066-.039.897-2.977-.52-4.004z"/><path d="m64.221 69.069c-.442 0-.377 0-.507.338-.0837954 1.8690818.0207313 3.741852.312 5.59.3829353 2.2186525.9039478 4.4112466 1.56 6.565.221.78.273.845.559.845s.195 0 .338-.078 0-1.118.169-2.21c.0211129-1.8153203.3689991-3.6119987 1.027-5.304.286-.663 1.092-1.82 1.222-1.716s.325 7.93.559 8.983c0 .078.429.546.897-.091.2066217-.852192.3242517-1.7235251.351-2.6.13-1.3.195-2.6.195-3.081.0525537-1.1839646-.0834778-2.3687552-.403-3.51-.1288034-.5299761-.6451439-.8704204-1.183-.78-1.82-.273-2.847 3.068-3.328 5.46 0 .572-.078-.234-.208-1.014s-.468-4.225-.754-6.5c-.13-.871-.247-.897-.806-.897z"/><path d="m72.749 79.872c.286 1.3.689 1.781 1.456 2.067.6152025.1816646 1.2697975.1816646 1.885 0 2.366-1.3 2.977-8.19-.273-10.4-.5548943-.2763708-1.1783798-.3848031-1.794-.312-1.053.286-1.56.949-1.95 2.522-.2360085 2.0658701-.0049894 4.1583696.676 6.123zm1.157-7.072c.1285006-.2812166.2946938-.5436269.494-.78 0-.338 1.3.195 1.794 1.443.3008871 1.3535951.4620647 2.7344957.481 4.121-.0270435 1.1692987-.4279693 2.2991806-1.144 3.224l-.286.312-.273-.416c-1.1539702-2.4640402-1.5259711-5.2222901-1.066-7.904z"/><path d="m85.268 77.87c-.117-1.872-.533-5.85-.533-6.188-.104-.091-.195-.351-.312-.442s-.871-.208-.975 0c-.2660669.5580007-.4415973 1.1548039-.52 1.768-.4991607 2.6939636-1.176651 5.3518099-2.028 7.956-.312.754-.481-.091-1.3-6.5-.403-2.431-.637-2.964-1.144-2.964s-.611.897-.338 3.302c.117 1.729.52 5.07.624 5.512.2489556.7084885.7011091 1.3279387 1.3 1.781.5034161.3372061 1.1605839.3372061 1.664 0 1.3-.143 1.638-9.022 2.145-1.781 0 2.704 1.989 4.407 1.664.442-.156-.975-.247-2.353-.247-2.886z"/><path d="m89.194 82.147c-.702 0-1.3-4.212-2.6-5.2-1.3.13 0 4.81 1.716 5.746.770564.5084194 1.7824224.4557184 2.496-.13.65-.377.624-.377.624-1.3s0-1.235-1.092-4.55c-1.079-2.483-1.82-9.425 1.404-1.534 1.105 0 .936-2.925-.468-3.9-.884-.416-.572-.637-2.496-.364-1.404.715-1.404 3.471 0 6.786.416 1.976 1.898 3.393.416 4.446z"/><path d="m95.733 71.617c-1.417.416-2.6 2.73-2.6 5.109.1040548 1.2161917.3662656 2.4136213.78 3.562 1.443 3.341 5.655 1.144 5.668-2.6h-.377c-.6100636.480638-1.06273 1.1324775-1.3 1.872-.2992741.7338545-.7411329 1.4010614-1.3 1.963-.195.104-.338-.091-.845-.962-.4038528-.8717325-.6671131-1.8019187-.78-2.756l-.117-.546 1.3.156c1.742-.234 1.872-.156 2.756-1.391.335517-.7822124.4738991-1.6348248.403-2.483-.533-1.638-.663-1.014-1.079-1.82-.7235085-.5798585-1.7399847-.6219922-2.509-.104zm1.664 1.196c.238154.3245069.4023349.697242.481 1.092.117.377.273 1.053 0 1.3-.481.702-.819.988-1.404.949-.6084888-.2396631-1.07332-.7453389-1.2610087-1.3718132-.1876886-.6264743-.0774685-1.3044327.2990087-1.8391868.3176621-.3295156.7240812-.5598198 1.17-.663.2996558.0677336.5582352.2557913.715.52z"/><path d="m12.897 117.884c-.572 1.3-.494 3.991-3.796 3.809v.832h7.228v-.832c-.507-.273-1.638.793-2.21-1.469-.0805656-.785345-.0144424-1.578823.195-2.34l.845-3.77c3.0015374-.18423 6.0031258.359891 8.749 1.586h-.208c.3348626 1.474949.4833555 2.986082.442 4.498-.247.455-.286 1.729-2.353 1.469v.832h11.7v-.832c-1.417.195-3.172-.481-3.614-3.809l-5.2-30.693h-8.593v.78c.611.26 3.328-.442 2.925 2.6zm6.903-25.22 3.705 21.736c-1.2859887-.570973-2.6278739-1.00665-4.004-1.3-1.3826498-.267405-2.7924106-.36779-4.199-.299z"/><path d="m70.695 87.919h-.533v.143z"/><path d="m44.019 87.919c5.434-2.756 2.73 29.653 2.834 32.214-.1750246.42859-.4463646.811134-.793 1.118-.351.156-.312.351-1.911.351v.819h11.791v-.819c-.286-.143-.39.338-1.859-.351-.3774772-.275181-.6520475-.668732-.78-1.118-.52-.494-.299-7.709-.338-8.71 1.6608593.147541 3.3002216.478901 4.888.988.7572943.27622 1.4882339.619935 2.184 1.027.6520958.408784 1.2466838.902817 1.768 1.469.1097552 1.739051.0093637 3.484991-.299 5.2-.1660864.430089-.4336875.81365-.78 1.118-.338.156-.338.338-1.95.351v.819h11.726v-.819c-.286-.143-.403.338-1.859-.351-.3694022-.282997-.6419249-.673612-.78-1.118.455-3.406-3.159-32.5 2.249-32.214v-.676h-11.726v.819c5.356-2.6 2.457 23.4 3.12 25.129-.5258863-.472116-1.1169362-.86615-1.755-1.17-.7196609-.372776-1.4726056-.677436-2.249-.91-.7990193-.255384-1.6159439-.450925-2.444-.585-.7870315-.176343-1.5869219-.289371-2.392-.338 1.3-3.679-3.276-22.503 3.12-22.191v-.871h-11.7z"/><path d="m78.586 87.386c-3.185 1.3-5.681 3.289-6.305 8.502-.9870528 6.77198-.8376699 13.66117.442 20.384.4111198 1.42323 1.1810755 2.716934 2.236 3.757 1.0034841.988604 2.203845 1.754886 3.523 2.249 4.836 1.963 12.051.156 13.884-6.695l-.247.195c.8612603-5.082484 1.123051-10.248487.78-15.392-.0887447-2.2575819-.3802511-4.5026163-.871-6.708-.4039351-1.4241572-1.1440259-2.7304622-2.158-3.809-.9706238-.9683244-2.1122136-1.7484842-3.367-2.301-2.5338636-.9978568-5.3399589-1.0623647-7.917-.182zm6.838 3.172c1.716 5.759 1.495 12.74 1.3 20.475-.0354918 1.561639-.1613691 3.119913-.377 4.667-.52 2.002-.143 4.121-2.73 6.11-.788085.479898-1.764039.533576-2.6.143-5.07-3.016-4.316-22.802-1.859-31.759.362425-1.0297607 1.1693954-1.8415061 2.197-2.21.720096-.2677061 1.5182265-.230147 2.21.104h-.208c1.0271898.4682332 1.7871498 1.3763616 2.067 2.47z"/><path d="m88.518 122.915c-5.434-1.04-16.445 4.641-6.5 10.803 3.0581949 1.139635 6.4589875.907547 9.334-.637 1.4138261-.818085 2.6867702-1.858388 3.77-3.081 1.0726336-1.230445 1.8980248-2.656121 2.431-4.199.442.091.442.156 2.496.676 41.756 13.91 47.489-10.725 32.162-13.247h-.78c-1.232951.10175-2.400136.598716-3.328 1.417-.873662.758869-1.528888 1.737221-1.898 2.834-.585 1.3-.806 8.216 3.315 6.357 0-.312 1.105-.442.104-2.236-.325 0-.299-.962-2.158-.546-.096897-.300055-.16225-.609393-.195-.923-.153692-1.300189.216425-2.608086 1.028638-3.634937.812213-1.026852 1.999725-1.68821 3.300362-1.838063 1.137297-.120806 2.283717.120306 3.276.689 12.714 18.824-24.479 13.845-35.009 9.711l-1.235-.26c-.442-.091-.832-.195-1.17-.286.4594198-1.940205.7207586-3.922024.78-5.915.195-3.77 0-20.644.104-24.7l7.527 26h1.859l6.058-26c-.182 3.12.39 24.128-.299 26.351-.167831.432887-.435008.820293-.78 1.131-.351.143-.312.338-1.911.338v.832h11.778v-.832c-.273-.13-.403.351-1.846-.338-.377074-.283858-.654657-.679755-.793-1.131.572-3.276-3.51-33.8 2.795-32.214v-.819h-11.778v.819c.507961-.0393484 1.018851.0135023 1.508.156.274249.0868288.503159.2783659.637.533 1.3.637-4.16 19.5-4.199 20.67l-5.2-17.537c-.143-1.3-1.17-4.108 2.34-3.822v-.819h-11.856v.819c5.811-1.95 2.288 25.766 3.185 30.368-.0407873 1.926756-.306931 3.842117-.793 5.707-2.6477648-.627158-5.3442095-1.027276-8.06-1.196zm7.8 2.691c-1.651 4.602-7.449 9.412-13.741 6.994l.195-.195c-1.4087308-.539085-2.5139696-1.663298-3.029-3.081-.546-2.171 1.846-4.355 5.2-4.745 1.2912627-.18453 2.5967705-.249806 3.9-.195 1.3470376.090965 2.6880591.25588 4.017.494 1.287.286 2.405.481 3.432.728z"/><path d="m139.738 92.3v-5.07h-16.471v.819c4.992-1.794 2.964 18.083 2.834 20.982-.163899.416554-.432569.783737-.78 1.066-.277247.220009-.621067.3392-.975.338-.307243.022833-.615757.022833-.923 0v.832h16.458v-4.979h-.819c.975 3.393-4.94 6.123-6.786 1.469-.325-1.053 0-7.514-.117-8.203.687539-.012787 1.374866.0350649 2.054.143.65.468 1.716.156 1.521 2.834h.832v-6.89h-.832c.029892.4545091.029892.9104909 0 1.365-.273.286.338.754-1.417 1.469-.673011.1556659-1.363719.2212394-2.054.195-1.079-4.992 1.391-16.094 6.942-7.423l-.247 1.066z"/><path d="m155.793 61.62c-.413853-.2646764-.848631-.4951091-1.3-.689-.39-.468-3.9-2.847-5.369-1.612.208.65 2.977 2.015 5.2 2.223l.416.208c-.377.195-4.55 1.3-3.757 2.379.169488.1109234.369665.1655171.572.156 1.605778-.1047548 3.13613-.7196283 4.368-1.755 3.12 3.497 3.523 7.124.832 11.271-.416.455-2.145 1.027-1.3 1.3-2.141884 1.8296958-4.488925 3.4045694-6.994 4.693.495509-.5272169.943577-1.0970894 1.339-1.703l.169-.117c.676-.364 7.358-5.135 5.694-6.669-1.3.65-2.34 2.6-4.914 5.005.282894-.7193659.453878-1.4778357.507-2.249.481-.507 3.237-4.94 1.482-6.045-.063588-.0191572-.131412-.0191572-.195 0-.338.13-.494.637-.962 2.002.117.078-1.495 3.497-1.3 4.368-.026328.2506439-.074171.498558-.143.741-1.768-1.469-10.894.221-.377 1.144-.559 2.509-6.292 6.045-9.217 6.994l2.301.871c4.251-1.898 9.607-4.966 14.3-6.357-.221 1.131-.832 3.25.078 4.55.169 0 .156.299.962 0 1.283287-1.3257905 1.532599-3.3414999.611-4.94.648477-.1411431 1.303636-.2496132 1.963-.325.098637.0422169.20471.0643155.312.065.845.247 8.073-2.6 7.618-4.511-.092817-.073143-.20686-.1141983-.325-.117-2.652851.9459692-5.16019 2.2587121-7.449 3.9-.39 0-.806.091-1.3.169 1.677-.871 5.616-2.522 6.175-5.2-.06539-.0545483-.148959-.0824049-.234-.078-.416-.195-7.059 4.992-8.255 5.798-2.358763.666902-4.655343 1.5368185-6.864 2.6 2.077591-1.1164898 4.007821-2.4877396 5.746-4.082.518367-.4239402.99306-.8986332 1.417-1.417 2.495004-2.6541202 4.205042-5.9481947 4.94-9.516.676033-2.7952461.990602-5.6656843.936-8.541 3.055 1.183 6.747-7.709-.078-2.002-.069333-1.1613333-.186333-2.3443333-.351-3.549 0 0 0-.104 0-.286s-.091-.676-.143-1.027v-.156h-.273c-1.30696-3.545347-3.895163-6.4721495-7.254-8.203h-.195c-.085403-.0072447-.170025.0209627-.234.078 1.3 1.937 5.291 5.863 7.124 8.827 0 .234 0 .468.104.702-.806-1.963-8.866-7.579-10.712-7.709l-.208-.104-.117.13c2.6 2.08 8.346 5.746 11.154 8.606.334258 2.673394.399584 5.3735695.195 8.06-.327598-1.4385603-.797928-2.8408407-1.404-4.186h-.117c-.442-1.521-4.81-7.124-6.5-6.383 1.144 1.69 4.056 4.186 6.136 7.41 1.132237 2.5944511 1.510691 5.4553868 1.092 8.255-.345539 1.3276361-.779849 2.6305678-1.3 3.9v.13c-.325438.6876553-.690037 1.3560855-1.092 2.002.478944-2.2585074.10868-4.6143078-1.04-6.617.819-1.612-.377-6.734-2.353-7.67-.072013-.0220768-.148987-.0220768-.221 0-.156 1.3 1.144 3.289 1.586 6.396-.303363-.3067843-.634065-.5852704-.988-.832-.092948-.1852699-.287049-.2976444-.494-.286z"/><path d="m4.083 75.972c1.20436971.657259 2.53272308 1.055765 3.9 1.17.10711254-.0022935.21288277-.024329.312-.065.65936373.0753868 1.31452307.1838569 1.963.325-.702.741-.923 3.991.611 4.94.156 0 .234.299.962 0 .468-.39.611-2.6.078-4.55 3.666.988 10.01 4.407 14.3 6.357l2.301-.871c-3.497-1.69-7.293-2.886-9.217-6.994 1.755 1.001 10.4-3.263-.377-1.144-.0688289-.242442-.116672-.4903561-.143-.741 0-1.157-.338-1.17-1.3-4.368-.468-1.3-.637-1.872-.962-2.002-.0636953-.018418-.1313047-.018418-.195 0-1.391.611.078 4.329 1.469 6.045.0574841.7718201.2328509 1.5302817.52 2.249-1.17-.949-3.042-3.679-4.914-5.005-.975 1.612 2.691 4.706 5.694 6.669l.169.117c.4300956.6210179.9128797 1.2038384 1.443 1.742-2.392-1.157-7.254-4.589-6.981-4.693.806-.312-.923-.884-1.3-1.3-2.002-2.353-3.016-7.956.689-11.323 1.2524948 1.0005127 2.7714484 1.6108065 4.368 1.755.2023354.0095171.402512-.0450766.572-.156.715-.702-1.963-1.82-3.757-2.379l.416-.208c.429.221 4.81-1.3 5.2-2.223-.806-.936-4.082.312-5.369 1.612-.4498135.197124-.8843451.4274257-1.3.689-.1533187.0207876-.288042.112207-.364.247-.3539351.2467296-.6846373.5252157-.988.832 0-1.001 1.456-4.459 1.586-6.396-.0720127-.0220768-.1489873-.0220768-.221 0-1.456.494-3.146 4.94-2.353 7.67-1.14500732 2.0038676-1.51942598 4.356696-1.053 6.617-.39-.65-.754-1.3-1.079-2.002v-.13c-.52015054-1.2694322-.9544611-2.5723639-1.3-3.9-.42512711-2.7995551-.04643613-5.6622785 1.092-8.255 1.183-1.976 4.355-5.2 6.136-7.41-1.3-.481-5.317 3.445-6.5 6.383h-.182c-.60971416 1.3437292-1.08016989 2.7463842-1.404 4.186-.20720542-2.6993633-.14187541-5.4127365.195-8.099 2.847-2.808 7.215-5.603 11.154-8.606l-.117-.13-.208.104c-4.1967428 1.5637396-7.89633609 4.2261896-10.712 7.709 0-.234 0-.468.104-.702 1.43-2.379 5.2-6.279 7.124-8.827-.0653896-.0545483-.1489593-.0824049-.234-.078h-.195c-3.3732852 1.7122243-5.96729344 4.645592-7.254 8.203h-.273v.156l-.156 1.027v.286c-.169 1.209-.299 2.392-.351 3.549-2.145-3.991-7.397.546-.182 2.067-.0440038 2.8755754.27484559 5.7452199.949 8.541.7649797 3.5570785 2.47104493 6.8434989 4.94 9.516.4135921.5111741.8798259.9774079 1.391 1.391 1.7357588 1.5972509 3.6663823 2.9687797 5.746 4.082-2.2145801-1.049321-4.5099832-1.9187919-6.864-2.6-.689-.416-7.592-5.837-8.268-5.798-.08438438 0-.16649249.0273694-.234.078.598 2.392 2.665 3.458 6.188 5.2-.468-.078-.884-.13-1.3-.169-2.29301619-1.6420667-4.80475592-2.9548227-7.462-3.9-.11814021.0028017-.23218266.043857-.325.117-.169 1.04.923 1.625 3.822 3.393z"/><path d="m99.945 65c.663 1.3 1.378 2.691 2.158 3.991 1.469-.338 2.925-.728 4.368-1.183 10.647-1.209 10.4-14.625-.091-8.788-2.717-11.154-13.169-3.003-6.435 5.98z"/></g></svg>