<svg height="41" viewBox="0 0 244 41" width="244" xmlns="http://www.w3.org/2000/svg"><g fill="#fff" fill-rule="evenodd"><path d="m26.1216375 15.4680728c1.969-3.977-4.688-1.88-5.636-1.988.082-4.21299996.014-7.37199996 2.73-8.96999996 8.191-.73 2.5-6.128-1.053-3.198-.468.26-.923.546-1.365.858-17.33400003-7.687-22.47500003 7.487-10.578 7.88699996-5.45900003-8.83299996 4.106-7.73199996 8.94-6.01499996-.365.312-.702.754-1.014 1.325-1.719 3.338-1.597 5.25799996-2.223 8.50199996-2.927.34-2.616-2.104-1.95-2.926-7.42000003.607-3.514 7.148 1.521 4.994-3.278 17.607-16.51000003 8.069-8.42400003 2.184 1.559-.969.193-1.468-.274-1.522-20.28399997 5.335 11.07000003 24.728 13.49500003-.974 1.793.183 1.865.784 1.989 1.598 1.515 1.404 3.146-1.337 3.842-1.755"/><path d="m80.3106375 5.87477284c-.59-3.988-4.709-1.441-4.993.351-1.25 6.37299996 5.743 2.983 4.993-.351"/><path d="m94.3501375 38.9465728c-2.377-2.415 3.14-5.086 4.173-5.889-1.211 3.238-2.011 5.44-4.173 5.889m-64.886-13.962c-1.277-4.386 5.294-13.167 6.309-7.956.062 3.052-4.682 11.418-6.309 7.956m63.17-20.63099996c-1.199 5.38-4.423 10.23899996-7.137 13.06499996.734-3.227 4.995-15.19399996 7.137-13.06499996m10.9979995 25.73999996c1.044-5.515 6.809-19.477-.507-16.263-1.149 4.098-2.088 7.43-3.2759995 9.672-6.947 8.111-3.576-3.245-2.599-5.099 2.624-4.489-2.66-6.256-3.329-4.573-1.698 3.189-2.563 6.367-2.678 8.97-.383.632-.803 1.18-1.261 1.638-4.044 4.525-6.129-1.141-5.226-3.393.052-.337.104-.663.156-.975 4.204-3.985 7.449-9.092 9.225-13.59199996-1.411-15.694-14.722 5.53999996-14.15 16.47299996-.357.565-.74 1.068-1.158 1.487-1.534 2.213-4.278 1.814-4.135.195.849-4.911 4.159-13.494-1.949-10.803-1.996 3.63-2.827 6.862-2.809 9.392-.305.45-.625.867-.974 1.216-7.098 5.64-2.901-5.159-2.086-6.708 1.506-7.662-6.735-3.797-8.405-1.755-1.625-5.219-6.68-2.003-8.62-.39-3.054-5.442-6.297 2.124-6.725 7.836-.266.371-.542.719-.84 1.017-9.757 6.722 2.729-11.173-4.485-9.516-.234-.312-.546-.61-.936-.897-14.029-5.87799996-16.556 24.806-2.847 11.388 1.369 5.238 6.383 3.317 9.148.708.244 1.805.994 2.945 2.427 2.54 3.473.717 1.329-4.94 2.387-5.724.479-4.739 6.621-9.9 5.031-4.115-1.973 5.588-3.695 10.503 2.359 9.77.888-10.309 9.464-19.40499996 4.466-4.154.882 6.357 7.496 4.451 10.463 1.291 1.22 3.93 5.391 4.564 10.039-.585.684 2.319 2.368 3.768 5.471 3.584 2.651-.217 4.367-1.757 5.612-3.306.774 3.769 3.878 4.997 8.8569995.381-.9249995 4.111-1.0889995 4.58-1.1699995 4.992-19.698 8.453 2.2889995 17.14 4.0949995.936.182-.026.376-.065.585-.117 7.834.078 3.59-3.16-.156-1.521"/><path d="m142.679237 1.59987284c-7.607-3.989-27.362.232-23.506 10.18399996 1.967 2.355 5.553 3.841 6.337 2.163-3.861-3.436-1.388-8.08399996 1.806-9.85499996 14.148-7.511 22.594 8.74699996 8.005 13.21599996-3.633.23-.122 2.141 1.226 1.71 10.25-.23 16.625-12.89699996 6.132-17.41799996"/><path d="m131.477037 5.99147284c-2.17 2.699-2.218 4.61699996-2.994 7.16299996-3.519 21.677-15.66 10.624-7.808 4.966 2.342-1.918-1.872-1.519-2.303-1.092-14.17 6.429 7.698 17.971 11.296 7.415 2.893-5.306 3.094-11.907 5.163-16.26799996 5.361-7.455-1.982-3.028-3.354-2.184"/><path d="m232.562037 5.87477284c-.589-3.987-4.71-1.441-4.992.351-1.252 6.37199996 5.743 2.983 4.992-.351"/><path d="m208.392137 24.9841728c-1.277-4.386 5.294-13.167 6.309-7.956.062 3.053-4.682 11.418-6.309 7.956m-53.865-1.365c-2.092-.215-2.979 2.199-1.716 2.769-2.667 1.588-2.903-1.207-3.081-2.183.948-12.515 9.163-11.262 4.797-.586m85.6-11.894c3.216-4.98199996-1.978-7.05299996-2.807-5.22599996-1.339 2.51-1.589 3.52699996-2.262 5.22599996-2.655.282-2.368 2.27-.585 1.716-1.062 2.987-2.241 6.605-2.276 9.572-.346.538-.714 1.022-1.117 1.426-1.533 2.212-4.278 1.814-4.133.194.848-4.911 4.159-13.494-1.951-10.802-1.996 3.63-2.827 6.862-2.808 9.392-.306.45-.625.866-.974 1.216-9.758 6.722 2.729-11.173-4.485-9.517-.234-.312-.546-.61-.936-.896-7.136-2.991-11.294 3.478-11.854 8.792-.381.624-.796 1.167-1.249 1.621-1.483 2.124-4.263 1.911-4.173.312.688-5.025 6.251-11.426-.839-9.672-4.016.587-2.249-1.51-2.241-3.004-3.179-5.70799996-5.816 1.958-4.057 3.042.181.287.403.521.662.702-.901 2.961-2.161 5.103-3.194 6.646-.083.076-.15.172-.194.29-.001.002-.003.004-.004.006v.002c-.391.65-.819 1.208-1.286 1.676-1.178 1.261-2.103 1.618-2.887 1.676-5.156-1.4.836-11.291.663-12.674 3.316.48 5.847-2.415.663-1.716 3.216-4.98199996-1.978-7.05299996-2.807-5.22599996-1.339 2.51-1.589 3.52699996-2.262 5.22599996-2.655.282-2.368 2.27-.585 1.716-1.719 3.906-2.358 7.096-2.252 9.537-.353.553-.729 1.048-1.141 1.461-1.482 2.124-4.262 1.911-4.173.312.689-5.025 6.251-11.426-.838-9.672-4.017.587-2.249-1.51-2.242-3.004-3.178-5.70799996-5.815 1.958-4.056 3.042.18.287.402.521.662.702-.902 2.961-2.16 5.103-3.195 6.646-.083.075-.15.171-.194.29-.001.002-.003.004-.004.006v.001c-1.734 2.022-3.463 2.851-5.225 2.574 5.951-7.646-.295-15.56599996-7.471-11.072-10.264 6.833-2.361 18.878 5.638 12.905 2.74.522 5.41-.621 6.63-1.56.407-.37 1.149-.749 1.907-2.129 1.448-1.993 3.421-6.139 3.552-6.919.713-.136 3.304.852 1.951 2.125-6.357 10.788 4.109 12.402 8.626 6.747 1.62 4.836 7.405 4.541 11.575-1.502.108-.163.178-.311.229-.452 1.45-1.993 3.421-6.138 3.553-6.918.713-.136 3.304.852 1.95 2.125-6.249 10.605 3.762 12.348 8.393 7.032.669 3.437 3.547 4.956 8.922-.304 1.446 5.53 6.954 3.079 9.588.263 1.188 3.938 5.307 4.624 9.921-.387.547 1.983 2.024 3.341 5.06 3.439 1.7-.126 2.462-.928 3.08-1.366.469-.39.923-.844 1.365-1.364 1.001-1.12-.145-1.679-.428-1.716-8.956 7-2.579-9.363-2.068-10.842 3.317.48 5.847-2.415.663-1.716"/></g></svg>