<svg height="87" viewBox="0 0 200 87" width="200" xmlns="http://www.w3.org/2000/svg"><g fill="none"><path d="m21.8787879 8.89004329c-15.66060608 5.92034631-23.53766236 16.51774891-20.66666669 32.42597401 1.66233766 8.2753247 5.74891775 17.421645 13.85281389 20.6597403 14.1575757 5.1290043 44.6424242 1.9341991 54.834632 4.987013 11.7662338 2.6666666 14.6666667 19.2536796 17.6398268 18.5090909 2.1056277-.3636364 3.2779221-5.1549784 4.2112555-6.1835498 2.3948051-4.2995671 5.7800865-8.5402598 10.2701296-10.6112554 5.541126-2.6441559 12.380953-2.7584416 18.559308-3.217316 25.615584-2.1090909 61.175757 6.3567099 75.561904-21.2606061 4.848485-9.6969697 4.136797-20.9645022-2.199134-29.5515152-6.557576-9.02337658-15.695238-10.63376619-25.388744-11.48051943-9.404329-.8952381-18.503897-1.14805195-27.878788-1.31082251-28.200866-.2978355-59.4735934-2.50389611-86.1038964.56796536-9.8683983.94891775-22.2510823 2.46926407-32.6926407 6.46580087z" fill="#fff"/><path d="m87.4181818 86.1298701c-2.4242424-.1645021-3.1982684-3.8683982-4.4138528-5.6380952-1.4441558-2.6493507-3.0770563-5.3004329-5.1948052-7.6900433-2.851948-3.369697-5.3679654-4.8294372-9.7333333-5.5670996-5.6900433-1.038961-11.0233766-1.0701298-16.5627706-1.1774891-14.3255411-.4813853-27.0978355-.4138529-35.0632034-2.8536797-12.58181823-3.6363636-18.47445892-22.2770563-15.82857148-34.1125541 2.42424243-10.6701299 10.52813848-16.7064935 21.02510818-20.80865802l.2320347.60606061-.2337663-.60432901c28.0917749-10.24935065 75.9151516-8.13852814 98.7601734-7.48051948 20.455411.75497836 41.309091-.17835498 58.469264 3.24675325 8.181818 1.83030303 14.678788 7.19480515 18.292641 14.69956705 5.620779 11.4112555 2.424242 25.0545455-6.406927 34.2008659-5.918615 5.8874458-12.330736 8.8813852-21.175757 10.9974025-17.109957 3.5203464-31.70736.8034633-47.206927 2.0675325-7.177489.535065-14.169697.3948052-20.4 3.404329-10.0744587 5.1896104-11.1757574 17.208658-14.5593072 16.7099567zm.7047619-84.69783547c-22.8415584.2025974-63.038961 1.52900433-78.25281383 14.99220777-12.57142857 10.2285715-9.94285714 29.1896104-1.12034632 40.221645 3.32813855 4.0190477 8.63896105 6.0034632 14.32554115 6.6562771 48.5887446 4.3030303 50.0190476-4.5887446 63.5203463 21.0233766 1.4614719 1.8251083 2.6320346-1.7316017 3.1930736-2.7203463.7916755-1.6038024 1.6679449-3.1644406 2.6251082-4.6753247 6.9939394-11.3800866 16.6718612-11.2813853 27.5324672-12.0865801 16.969697-1.2727272 30.628572.6926407 44.623377-1.2883116 16.14026-2.3844156 29.187879-10.161039 33.302164-26.0398269 2.838096-11.1082251-2.010389-23.1619047-11.572294-29.10129869-6.516017-3.93593073-14.297835-4.25800865-21.51342-4.92121212-12.365368-.97489177-24.450216-.94372294-36.673593-1.19480519-13.456277-.2978355-26.477922-.86406927-39.9896103-.86580087z" fill="#2c2c2c"/><path d="m174.32381 23.2277056c-3.267533 0-5.875325 3.0770563-6.233767 6.3809524-7.619047-8.4640693-17.132467 2.9766234-9.206926 10.2943723 1.201731 1.1393939 2.180086 1.9878788 3.509957 3.1168831 3.864935 3.0649351 7.40606 6.4831169 10.152381 7.1134199.051004.0080471.10249.0126751.154112.0138528.587013-.0155844.71342-.6458874 1.018182-1.2398268 2.330736-4.6649351 5.776623-8.6753247 6.926407-13.7818182 1.165368-4.7255411-1.000866-11.7281385-6.325541-11.9047619z" fill="#e1544c"/><path d="m172.70303 50.8034632h-.027705l-.159308-.0121212c-3.511688-.9212121-6.019047-3.8008658-9.236363-6.1748918-2.299567-1.9480519-3.6-2.9800866-5.518615-4.9298701-7.425108-9.0562771 3.090909-17.8943723 9.949784-11.4787879 3.93593-10.4675325 14.209523-4.8900433 13.894372 4.2095238 0 4.4813853-2.35671 8.3670996-4.685714 12.221645-1.489178 1.9411256-3.032035 6.5108225-4.216451 6.1645022zm-.140259-1.3160173.084848.0103896h.058875.020779c2.758441-6.1177489 8.401731-11.7108225 7.47013-18.7012987-.476191-3.208658-2.325542-6.8190476-5.873593-6.9160173-4.001732.1731602-5.615585 3.982684-5.802598 7.4354978-6.978355-10.4952381-18.838095 1.8770563-6.725541 10.3445888 3.636364 2.9350649 7.219048 6.4502164 10.696104 7.8354978z" fill="#2c2c2c"/><path d="m1.57575758.51948052c-4.38787879 5.86147186 2.29610389 8.20779221 1.26580086 3.8995671-.01818448-.23399067-.01818448-.46903964 0-.7030303.04197944-.20901739.09986799-.41452173.17316017-.61471862.08940393-.18002549.19123762-.35360564.30476191-.51948052 1.38528138-1.17922078-.24069264-3.34372294-1.73160173-2.06233766z" fill="#f7ede1" opacity=".5" transform="translate(157.575758 29.264069)"/><path d="m.15238095 1.38528139c.11774892 1.82857142 2.61125541 1.66926406 2.67012987 0-.11774892-1.83030304-2.60952381-1.66926407-2.67012987 0z" fill="#f7ede1" opacity=".5" transform="translate(160.17316 36.709957)"/><path d="m40.5471861 34.6528139c-1.0510822-1.3852814-3.3004329-.748052-4.88658-.6458875-7.0216451.4813853-8.808658.9558442-7.7922078-6.2025974.1489177-.4917749.6683982-.5974026 1.1844156-.5471861 4.5731601.0727272 9.7212121.8883116 11.464935-.5194806.8034632-.6424242.9264069-1.8545454.5679654-2.9437229-1.1064935-2.6354978-5.4251082-1.8753247-7.5705628-2.0277056-3.4822511.1437229-6.7030303-.7064935-10.04329.1852814-2.6770563 1.1341991-1.5012987 4.7255411-1.5203463 7.0683982-.0900433 7.7627706-.2632035 15.2519481.017316 23.1186147.1731601 1.1168832 2.834632.5904762 3.5220779.5852814 2.6874459-.3463203 2.2112554-2.4917749 2.204329-4.5714285.4415584-3.3748918-.3982684-8.0606061.6926407-8.3705628 10.2995671-.3012987 14.9021645 1.6225108 12.1593073-5.1290043z" fill="#404e5a"/><path d="m24.2251082 53.4632035c-1.7922078-.0588745-3.073593.0709956-2.9558441-2.1852814-.1246754-5.8268398-.0987013-11.012987-.0831169-16.7809524.8502164-10.1038961-3.4874459-14.4709957 8.6268398-13.4753247 5.2051948.3948052 8.3116883-.6787879 11.1082251 1.3852814.7757576.6701299 1.1411256 1.8874459.9471862 3.1168831-.7134199 4.2874459-8.1298702 2.1385282-10.7082251 2.5021645-.7722944.2060606-2.9090909-.656277-2.7878788.4658009-.1298702 1.7194805-.4813853 4.8761905 1.3558441 5.030303 3.7800866.374026 9.7333334-1.1688311 10.9835498.3463204 1.3852814 1.2121212 1.8077922 5.2952381.025974 6.1385281-3.6588744.7861472-7.5688311.434632-11.6571428.3359307-1.0649351-.2493506-.4640693 1.5238096-.5887446 2.178355.0242424 1.7662338 0 3.4632035-.1367965 5.2502165.1887445 3.9861472-.1298702 5.6034632-4.1298702 5.6917749zm-1.6103896-1.4060606c2.4138528.2320346 4.75671.3688311 4.4623377-2.5004329.2753247-4.6129871-.4034632-9.6761905.7601731-10.2164503 1.4718615-.7515151 3.3939394.0363637 5.0718615-.1627705 6.1212121-.2822511 9.1774892 1.0510822 7.1151515-4.1419914-1.3454545-1.3281385-4.2147186-.1298701-6.1264069-.2354978-2.0155844-.1367965-3.7246753.4692641-5.5757576-.4329004-1.8701298-1.2727273-1.5792208-6.0311689-.8-7.2484849.4242424-.5073593 1.0528139-.5489177 1.6225108-.5056277 3.1636364.0311688 9.8129871.8450217 11.0199135-.4398268 2.273593-3.9619048-3.5948052-3.8320347-6.9402598-3.7731602-3.2987013.1316017-6.3670995-.6718615-9.5463203.1541126-2.1714286.7705627-.9575758 4.8744588-1.0649351 7.1809523-.1627705 7.4077922-.247619 14.8034632.0017316 22.322078z" fill="#2c2c2c"/><path d="m65.2588745 46.7844156c-1.4008658-7.2727273-2.3549784-22.987013-9.2173161-24.9835498-2.3082251-.7238095-4.1367965.0536797-5.5948052 1.5168831-4.1558441 4.0831169-7.4995671 24.6372295-6.2337662 27.2883117.8900433 2.1887446 3.939394 1.6865801 4.7515152-.2666667 1.3021645-2.7099567.6666666-6.1038961 2.4138528-8.5627705 1.038961-1.1809524 2.4571428-1.2484849 3.9151515-1.2658009 4.0311688-.2233766 4.1108225 4.5333333 4.1818182 7.4077922-.5194805 3.2242424 2.869264 4.961039 5.3229437 2.8796537 1.0025974-.9748918.7255411-2.3619048.4606061-4.0138528zm-8.6995671-10.7151515c-4.9298702-.2337663-5.6415585 1.0666666-4.7549784-2.9731602 1.8008658-7.965368 4.212987-5.5030303 5.5047619.2805195.4207792 1.4770563.5471862 2.6545454-.7497835 2.6926407z" fill="#404e5a"/><path d="m46.4848485 52.6961039c-4.0935065-.1090909-3.2900433-4.7376623-2.9264069-8.0813853.9194805-7.5134199 2.2181818-13.6450216 4.9264069-19.7281385 2.5298701-4.7341991 7.6311688-5.2883117 10.9852814-1.5324675 3.7575757 4.7826839 4.2060606 10.7549783 5.4406926 17.0995671.6268398 5.9203463 3.343723 11.2051948-2.2424242 11.9134199-5.8666667-.2112554-2.8969697-6.543723-4.6008658-9.5497836-.5541126-1.6034632-2.1662338-1.8354978-4.3116883-1.5670995-3.5636364.5575757-2.7705628 5.021645-3.6277057 7.6744588-.3567099 1.8112554-1.5186147 3.7489178-3.64329 3.7714286zm7.8874459-30.5073593c-3.9116883 0-5.4580087 4.6545454-6.2857143 7.2727273-1.7766234 5.4528138-3.8909091 15.064935-3.3974026 20.5316017.1454545.9264069 1.2363636 1.8493506 2.7012987 1.1619048 2.2978355-1.6761905 1.6917749-6.3792208 2.7047619-8.4086581.8051948-2.5506493 3.4372294-2.9939393 5.4632035-2.8796536 2.3359307-.0363637 3.5982684 1.7004329 3.9463203 3.0718614.9333333 2.0415585.1731602 5.8978355 1.038961 7.2259741 1.2744589 1.5411255 3.8233767.84329 4.2095239-.4831169.2181818-3.3766234-.995671-7.0493507-1.352381-10.4588745-1.1203463-5.8528138-2.5541126-16.9194805-9.0285714-17.0337662zm2.1904762 14.5298701c-4.4519481-.1558441-6.4450217.9004329-5.5064935-3.1688312 1.7021645-8.9437229 5.4493506-7.3800865 6.860606-.4225108.5125541 1.8649351.7012987 3.378355-1.3575757 3.591342zm-4.4415585-1.3385281c1.1376624-.0969697 5.2536797.4640692 4.8398269-.4346321-1.8060606-9.4164502-3.7645022-7.1359307-4.8398269.4346321z" fill="#2c2c2c"/><path d="m74.978355 50.8571429c3.1255411-1.3402598 2.0277056-14.6337663 4.5298701-12.5333334 1.4943723 1.8147186 2.2649351 4.1558442 4.187013 4.6857143.9281385.2441559 1.5930736-.3584415 2.3047619-1.3038961 6.6320346-11.0562771 3.2155844 7.8580087 6.7099567 9.4649351 6.0917749 1.9047619 3.7645022-4.535065 3.4008658-7.2935065-.8138528-4.8190476-1.6155844-9.55671-2.4242424-14.3722944-.4744589-2.5194805-.9489178-10.2060606-4.8848485-7.5688312-2.1748918 1.2865801-4.2787879 15.2796537-5.778355 11.6329005-1.7316017-3.7177489-2.1506493-7.1722944-3.3835498-11.0822511-.9419913-2.0415585-3.2588744-1.2969697-4.0952381.238961-1.021645 1.608658-1.4458874 4.1558442-1.7558441 5.9965368-.3186147 1.9134199-.9004329 4.3861472-1.2727273 6.6735931-1.7800866 12.7636364-4.1731602 17.1012987 2.4623377 15.4614719z" fill="#404e5a"/><path d="m94.161039 52.1922078c-3.5722944-.0363636-3.5082251-3.9359307-3.7298702-5.4181818-.4502164-3.012987-.6060606-6.7238095-1.0857143-7.6536797-2.2874458-1.2380952-3.4770562 11.2155844-10.2926406-.3359307-1.3506494 3.3593073-.8658009 11.3766234-3.7835498 12.6545454-5.1272728 1.4389611-6.0225109-1.3142857-5.0389611-5.2796536.4346321-3.1428572.8658009-6.169697 1.3852814-9.3662338 1.021645-4.7463204 1.7142857-12.7255411 3.8961039-15.1064935 1.1896104-1.4822511 3.7541126-1.574026 4.6493507.3930736 1.3471861 3.7731602 1.5688311 7.1809524 3.4406926 11.1948052 2.1125541-3.5636364 2.6320346-13.2017316 6.9489178-12.5125541 3.5324675 1.0857142 3.0164502 5.7922078 3.3714285 6.2458874l1.7316018 10.2025974c1.3852813 9.9012987 3.9774891 14.6372294-1.4926407 14.9818182zm-5.0995671-14.5350649c2.5402597.0415584 1.9047619 4.9246753 2.6354978 8.7601731.2649351 1.3454546-.0242424 2.3324675.9575758 3.8632035 1.8580086 1.6484848 4.3134199-.0640693 3.4943722-2.3030303-.034632-.204329-3.2311688-19.1220779-3.6831168-21.7852814-.0467533 0-.6060606-5.5705628-3.2311689-3.7766234-2.6597402 2.135065-4.3497835 19.5670996-7.6744588 9.1896104-1.2277057-2.9800866-1.352381-5.1948052-2.5021645-8.8311688-1.174026-2.2060606-3.2606061-.1073593-3.8441559 2.3636363-1.1012987 4.6943723-1.6883117 8.3948052-2.4450216 12.6649351-1.3212122 10.5142857-3.4632035 13.795671 1.9255411 12.4675325 2.7619048-2.0623377 1.5861472-12.0675325 3.982684-12.7896104 1.9047619-.3324676 2.3532467 2.569697 3.7541125 3.8666666 3.0735931 3.735065 3.6865801-3.7212121 6.6303031-3.6900432z" fill="#2c2c2c"/><path d="m114.49697 38.7636364c.420779 3.1826839-.850217 13.2761904 2.632034 12.230303 5.007793-.1731602 9.710823-.6181818 14.651083-.3341991 2.263203-.3463204 3.116883-1.8614719 2.651082-3.9965368-.898701-2.943723-4.554113-2.1939394-7.02684-2.1575758-2.027706.0900433-4.403463.0103896-5.9671-.3809524-.055411-.0571428-.100432-.2753247-.145454-.6372294-.751515-7.3056277.148918-13.7264069-1.1671-19.4424243-.51948-1.5116883-1.466666-2.647619-3.224242-2.8207792-4.116017-.6372294-2.219914 15.4718615-2.403463 17.539394z" fill="#404e5a"/><path d="m116.774026 51.6450216c-3.927273.9108226-2.507359-11.2311688-2.926407-12.84329-.136796-5.804329-.58355-10.161039.28052-15.5705628 1.212121-4.7376623 6.116017-2.3965368 6.753246 1.1134199 1.090909 5.5722944.422511 14.2701299 1.064935 19.2311689 3.196537.6805195 6.709957-.0155844 9.724676.247619 4.848485.6354979 4.57316 7.0753247.17316 7.4857143-4.952381-.2943723-10.034632.1922078-15.07013.3359307zm.029437-29.7731601c-2.993939-.1385282-1.558441 14.9887446-1.658874 16.8536796.254545 3.7471862-.273593 8.0380953.952381 11.6017316 5.141125 0 10.412121-.6632034 15.613853-.3134199 1.929004-.3012987 2.4658-1.5186147 2.064069-3.2813853-.749784-2.1714285-3.74026-1.6450216-5.840693-1.5930736-2.251082.0917749-4.380952.1125542-6.61645-.3653679-1.445888-.4138528-.808658-10.3636364-1.064935-10.8207792-.358442-4.569697.720346-11.7281386-3.449351-12.0813853z" fill="#2c2c2c"/><path d="m133.108225 20.791342c-4.699567 5.6017316 4.737662 9.9844156 6.25974 14.5298701 1.352381 4.135065.645888 8.3705628.52987 12.4069264-.200865 2.0398269-.242424 3.0961039 1.974026 3.4424243 2.135065.3463203 3.681386-.35671 3.572295-2.3445888.072727-4.7861472-.564502-9.2294372.275325-13.3333333 1.264069-3.0683983 4.607792-6.3636364 5.754112-9.4649351 1.77316-3.9012987-.157576-6.3272727-3.594805-5.7679653-1.111688.5194805-1.435498 1.9619047-2.067533 2.88658-1.130736 1.9376624-3.00606 4.765368-3.823376 5.395671-4.642424-4.7774891-5.077056-9.3974026-8.879654-7.7506493z" fill="#404e5a"/><path d="m142.777489 51.8891775c-4.351515-.1575758-3.625974-2.4069264-3.463203-5.2225108.105627-3.6121212.595671-7.2103896-.455412-10.8640693-1.70909-4.8484848-11.638095-9.7298701-6.060606-15.5844156 3.101299-1.4424242 4.877922 1.1844156 6.034632 3.3489178.976624 1.4683982 2.325542 3.047619 3.182684 4.034632 3.236364-3.761039 4.252814-8.2995671 6.429438-8.1264069 10.112554 1.1116883-.072728 11.8857143-2.12987 16.2770563-1.530736 9.269264 2.221645 16.3307359-3.537663 16.1367965zm-9.366234-30.5246753c-3.982684 5.0493506 5.887446 9.7142857 6.824243 14.4415584 2.187013 11.3021645-2.618182 15.3419913 3.328138 14.7186147 1.638096-.1835498 1.168832-1.7766234 1.158442-3.421645.287446-5.3437229-.850217-9.4632035.902164-12.9229437 1.761039-3.395671 10.124676-12.4 3.187879-13.4181818-.54026-.0502165-.865801.1246753-1.212121.5194805-1.272727 2.178355-3.754113 6.8588744-5.695238 8.1385281-5.194805-5.4199134-5.43723-9.4285714-8.484849-8.0640692z" fill="#2c2c2c"/><path d="m102.763636 30.6025974c.948918 11.7316017-.439826 23.9965368 5.161905 20.4952381 1.336797-1.2848485.749784-3.1965368.874459-4.8952381-.008658-2.7480519-.013853-5.3679654-.022511-8.1194805-.212987-4.8484849.481385-12.0883117-.543723-15.2103896-1.104762-3.369697-4.538528-1.930736-5.381818.6926407-.711688 2.1246753-.193939 4.9558441-.088312 7.0372294z" fill="#404e5a"/><path d="m106.419048 52.3480519c-4.271862-.3463203-3.303896-6.6857142-3.759308-11.2796536-.382684-9.0164502-.675324-10.0121212-.808658-15.5116883-.072727-2.526407 1.785282-5.7471862 4.815585-5.2432901 2.29264.4848485 2.793073 4.4380953 2.737662 5.6294372-.218182 22.4329005 1.380087 26.0484849-2.985281 26.4051948zm-3.007793-21.7800865s.798269 15.2865801.845022 16.1437229c-.133333 2.7411256 1.837229 6.2857143 3.721212 3.15671.406927-1.7991342.112554-23.1030303.029437-25.2017316-.507359-4.4242425-3.504761-3.6502165-4.580086-.7948052-.609524 1.9861472-.119481 4.595671-.015585 6.6961039z" fill="#2c2c2c"/><g fill="#f7ede1"><path d="m1.27445887.06060606c-1.29870129.3030303-1.55844155 3.54632035-.53333333 2.97662338.34632035-.46233767-.11255411-1.16190476.18181818-1.67272728.16450217-.5056277 1.62077922-1.19826839.34632035-1.3038961z" opacity=".5" transform="translate(23.203463 23.203463)"/><path d="m2.06406926.18701299c-.67878787.74805195-2.73939394 4.04502164-1.52207792 3.96883117.61991342-.47792208.62683983-1.6952381 1.1982684-2.35151516.34632035-.51948052 1.54805195-1.96017316.32380952-1.62251082z" opacity=".5" transform="translate(50.04329 23.722944)"/><path d="m.89177489.36017316c.15757576.88311688-1.01298701.99047619-.84329004 1.57922078 1.28484848 1.12727273 2.14891775-3.11688312.84329004-1.57922078z" opacity=".5" transform="translate(58.181818 35.324675)"/><path d="m.83636364.2025974c-.31688312.40692641-1.13593074 1.40779221-.4935065 1.90476191.55930736.07965368.42424243-.72554113.74632035-1.11515152.44848485-.34632034.37748918-1.10822511-.25281385-.78614718z" opacity=".5" transform="translate(76.363636 22.857143)"/><path d="m.83636364.14891775c-.50562771.41212121-1.46666667 2.71341991-.23722944 2.13506493 0-.58008658 1.50995671-2.59740259.23722944-2.13506493z" opacity=".5" transform="translate(89.177489 23.030303)"/><path d="m.87965368.1038961c-.51948052.43809524-1.38528139 2.6995671-.25281385 2.37402598.32380952-.34632035.07619047-.93852814.4069264-1.4025974.41212122-.42251083.63376624-1.30389611-.15411255-.97142858z" opacity=".5" transform="translate(104.242424 22.510823)"/><path d="m.8017316.17316017c-.62683982.40692641-1.21212121 2.81731602-.13852814 2.32207793.30476191-.37748918-.04155844-.85021645.26666667-1.33506494.3965368-.44155844.73073593-1.27619048-.12813853-.98701299z" opacity=".5" transform="translate(115.844156 22.683983)"/><path d="m1.38528139.17316017c-.70822511-.18874459-2.00173161 1.46839827-.7982684 1.50303031.31688311-.17316018.14025974-.65281386.63203463-.79134199.50735931.03982684.72034632-.57662338.17316017-.71168832z" opacity=".5" transform="translate(133.333333 21.471861)"/><path d="m1.89264069.21298701c-.69264069-.34632034-2.55238095.72554113-1.55844156 1.31601732.43463204.02251082.45714286-.64935065 1.00952381-.67532468.54718615.13160174 1.13073593-.23376623.54372295-.64069264z" opacity=".5" transform="translate(147.705628 21.471861)"/><path d="m.43809524.45194805c.36709957.59220779-1.08744589 1.61904762.01904762 1.68658009 1.25367965-.40692641.55238095-3.20519481-.01904762-1.68658009z" opacity=".5" transform="translate(94.718615 47.965368)"/><path d="m.90735931.44502165c.51948052 1.09264069-1.84935065 2.27012987-.38441559 2.28398268 1.83203463-.90562771.96103896-3.82510823.38441559-2.28398268z" opacity=".5" transform="translate(131.601732 46.753247)"/><path d="m.81558442.51948052c.25281385.65108225-1.16363637.55930736-.62683983 1.21212121 1.96363636.49004329 1.28311688-2.84329004.62683983-1.21212121z" opacity=".5" transform="translate(142.683983 47.965368)"/><path d="m.57835498.49177489c.09350649.36190476-.41038961.43636364-.56450217.76883117-.03116883.43116883.34632035.53506494.74285715.25800866 1.06666666-.59047619.17316017-2.27878788-.17316018-1.02683983z" opacity=".5" transform="translate(106.320346 48.658009)"/><path d="m1.01991342.37575758c-.01904762.6077922-1.07012987.7082251-.90909091 1.33679653.9021645.8952381 2.42424243-2.41212121.90909091-1.33679653z" opacity=".5" transform="translate(73.593074 47.792208)"/><path d="m.51948052.50909091c.20606061.57489177-.14545455.92294372-.47445887 1.43376623-.01038962.37575758.32554112.57489178.65108225.21991342 1.18441558-.9021645.23030303-2.99393939-.17316018-1.65367965z" opacity=".5" transform="translate(63.203463 47.965368)"/><path d="m.95584416.42943723c0 .52987013-.54372295.49350649-.85714286.81904762-.18181818.45021645.41558441.5974026.83636364.33246753 1.16536796-.48831169.62857142-2.22337662.02077922-1.15151515z" opacity=".5" transform="translate(46.406926 48.831169)"/><path d="m.90735931.37402597c.05887446.5974026-.3930736.58528139-.78268398.90909091-.17316018.33419914.13160173.61645022.56796536.46406927 1.31082251-.27878788.98528139-2.57142857.21471862-1.37316018z" opacity=".5" transform="translate(38.441558 36.536797)"/><path d="m.77402597.47792208c.20779221.54372294-1.39740259 1.3038961-.24935064 1.44935065 1.36103896-.36190476 1.0060606-2.65108225.24935064-1.44935065z" opacity=".5" transform="translate(24.935065 49.52381)"/></g><path d="m78.4034632 7.94805195c.569697.45714286.161039 2.97489175.3220779 3.41471865.0646465.3220779.129293.6383838.1939394.9489177.0600742.3179236.1856832.6198571.3688312.8865801.9142857.6545455 1.4770563-4.15584416 3.0805195-2.1471861.4363636.5679653.9264069 1.9532467 1.4805194 2.2510822 1.4632035-.6545455.4311689-3.38181818 1.1619048-4.57489177.250897-.16811423.5723426-.18986937.8436035-.05709431s.4512689.39997856.4724138.70125015c.75671 3.80952383-2.2510822 7.72640693-4.7515151 3.73679653-.0738817-.0103896-.2510823.2152958-.5316018.6770563-4.3099567 5.5948052-5.5290043-8.3878788-2.6406926-5.83722945z" fill="#2c2c2c"/><path d="m86.7619048 10.5090909c.0969697-3.84935064 5.0857142-2.96450216 5.1047619.2095238.0155844.4883117-2.5974026 1.8735931-2.6735931 2.0121212-.9748918.9593074 1.4164502 1.148052 2.238961.4190476 1.7281386 2.0450217-4.9142857 3.1861472-4.6701298-2.6406926zm1.7558441.8207792c.9546898-.0427128 1.5318903-.3809524 1.7316017-1.0147186.3376624-.75324674-.9108225-1.26580085-1.625974-.88484847-.5246753.13160173-.6493506 1.80259737-.1056277 1.89956707z" fill="#2c2c2c"/><path d="m99.0077922 15.395671c-.1210562-.0965117-.2172442-.220606-.2805195-.3619048-.0865801-.1506493-.1731601-.2251082-.2424242-.2251082l-1.7316017-.2909091c-.6337663-.1616161-1.0845599-.4727273-1.352381-.9333333-1.1705628-2.3290043 1.7800866-3.97056279 3.761039-3.5099567.7324675-1.76450219-1.5792208-.90909093-2.5125542-.50043293-.4658008.17316018-.8277056-.69264069-.6441558-1.22424242 4.7740262-2.32034632 4.9645022 1.1012987 4.0415582 4.50216455-.1090907 1.0580086-.0709954 2.9956709-1.0389608 2.5437229zm-.2978355-1.95671c.0329004-.1489177.1021645-.4190476.2095238-.8051948.1454546-.5056277.2285714-.8103896 0-1.4164502-.5471861.1154401-1.0891775.2308802-1.625974.3463204-.6337662.1835497-.9558442.5593073-.9662338 1.1272727-.0103896.2481962.2256855.45772.7082251.6285714.3705628.1108225 1.2242425.3965368 1.6744589.1194805z" fill="#2c2c2c"/><path d="m101.270996 10.0571429c-1.4718618-3.06320351 1.463203-3.46320351 1.464935-1.06320351.661472-.03636363 1.461472-1.57056277 2.339394-1.21212121.467532.24761905.87619.36017316.559307.80519481-.327273.53160173-1.883983 1.63809521-2.27013 2.27012991-.098701.6458874-.588744 1.4632034-.081385 2.1748917.304762.3601732.273593 1.2225109-.161039 1.6103896-.151337.2213796-.396714.3601383-.664424.3757265s-.527534-.0937538-.703541-.2960728c-.559308-1.174026-.065801-2.7012987-.483117-4.664935z" fill="#2c2c2c"/><path d="m106.102165 10.5090909c.096969-3.84935064 5.085714-2.96450216 5.104761.2095238.015585.4883117-2.60606 1.8735931-2.673593 2.0121212-.974891.9593074 1.416451 1.148052 2.238961.4190476 1.722944 2.0450217-4.914285 3.1861472-4.670129-2.6406926zm1.755844.8207792c.953535-.0427128 1.530736-.3809524 1.731601-1.0147186.346321-.75324674-.910822-1.26580085-1.625974-.88484847-.524675.13160173-.64935 1.80259737-.105627 1.89956707z" fill="#2c2c2c"/></g></svg>