<svg height="121" viewBox="0 0 198 121" width="198" xmlns="http://www.w3.org/2000/svg"><g fill="#fff" transform="translate(-1 -1)"><path d="m27.416 77.219c1.3-4.875 3.016-11.336 4.927-16.692 9.1-5.603 21.463-6.864 30.693-12.246-8.268-2.314-20.293 3.744-28.938 6.5 2.6153743-8.5312002 4.7079267-17.2139902 6.266-26 11.7285032-3.8035646 23.7962942-6.4678821 36.036-7.956-6.643-8.84-28.223 2.6-37.284 1.3-.962.273-1.105 1.118-1.742 1.534-3.016 1.417-23.803 5.941-14.846 10.972 4.0702946-1.719917 8.286034-3.0729561 12.597-4.043-2.431 9.1-4.823 18.005-7.228 26.988-1.69.364-14.404 8.086-4.433 8.84 0-.312 0-.624-.091-.975.9123912-.7992927 1.9429023-1.4526806 3.055-1.937.689 3.172-6.968 18.642.572 17.914-.2108337-1.4125285-.0678967-2.8552992.416-4.199z"/><path d="m64.791 68.483c1.001-.754 2.301-3.705 4.407-5.018.585 2.756.715 10.023 6.006 9.971-4.81-4.108 2.964-19.877-6.045-19.604-1.924 3.666-3.9 7.917-7.683 11.908.078-2.756 5.2-12.181 8.216-15.353.481.221.611 1.066 1.469.754-2.769-15.041-27.56 32.968-6.37 17.342z"/><path d="m100.762 68.262c.078 1.157-1.3 6.123 2.327 6.5 2.327-9.1 13.351-39.689-7.553-18.655.819-13.637-10.4-.533-14.04 5.564-.702-3.601 6.266-9.906 1.3-13.091-1.183 0-1.716-.169-2.6 1.924-7.462 16.575-7.15 32.071 9.62 8.411-.468 2.158.624 6.006 4.485 5.811 2.951-2.418 4.771-6.682 8.801-9.841-.416 3.705-1.794 8.515-2.34 13.377z"/><path d="m132.794 52.922c2.379-3.146 17.888-36.322 4.043-27.222-6.695 13-13.845 26.351-15.951 41.6-1.898.39-3.471 2.6-7.046 3.237-4.108-4.745 8.138-20.137 3.198-22.191-9.347 3.562-12.233 34.398 3.77 20.917-.975 12.701 13.273 16.133 18.603 3.744-22.191 18.109-12.519-12.142-7.982-23.4-.286 2.912-.143 3.224 1.365 3.315z"/><path d="m48.476 101.75c.754-.351 1.521-.663 2.288-.988-.468-1.209-.715-1.3-3.237-1.664.273-5.2 10.803-22.282 4.849-23.062-3.354 7.605-8.177 16.211-10.764 25.285-2.5903129 1.334457-5.3079066 2.405816-8.112 3.198 2.496-6.5 14.443-21.476 8.619-25.779-3.51 9.568-10.075 19.5-15.054 29.328.546.377.949 1.066 1.677 1.3 3.471.364 7.306-2.782 11.7-3.315.338 3.991-5.2 12.467.546 15.34l1.3-.338c-.897-5.317 2.405-12.285 4.147-18.278.611-.299 1.365-.689 2.041-1.027z"/><path d="m63.751 108.081c3.9-1.859 7.644-12.155-.663-9.009-2.6 2.288-10.647 15.99-2.795 17.836 5.2-.091 8.931-5.46 13.663-9.295-1.131 2.405-.169 13 5.629 7.501 3.588-6.916 10.985-14.014 14.651-21.112-6.305 1.742-11.648 10.491-16.536 16.198.273-3.601.546-7.059.819-10.4-.611-1.3-.949-1.508-2.522-1.43-1.183 1.391-.897 2.821-1.547 6.071-4.134 3.328-7.8 6.851-13.585 9.88.0094939-1.626707.2952242-3.239984.845-4.771.728-.559 1.391-1.001 2.041-1.469zm1.3-7.163c-.5016195 2.05673-1.4865338 3.964166-2.873 5.564.5005571-2.062417 1.4955195-3.972031 2.899-5.564z"/><path d="m94.6 108.081c6.838-3.367 4.81-15.977-2.925-6.279-9.724 17.316.611 19.786 12.87 6.058 0 1.157-2.769 5.512.416 6.942h1.56c2.275-2.522 3.991-8.281 7.943-11.076.598-.182.338 1.404 3.9 1.3-2.106-2.418-6.383-5.499-9.386-.676l-.078-.091c.325-1.3.65-2.522 1.014-3.9-1.898-2.6-3.471-.832-4.316 3.744-4.355 3.562-7.956 7.033-13.897 10.166.0094939-1.626707.2952242-3.239984.845-4.771.754-.507 1.365-.949 2.054-1.417zm1.3-7.163c-.5016195 2.05673-1.4865338 3.964166-2.873 5.564.4929618-2.059957 1.4788894-3.969355 2.873-5.564z"/><path d="m115.309 46.123c3.146 2.366 11.544-4.992 14.066-8.424 2.223-4.836-2.795-8.723-8.138-6.188-8.567-4.043-12.935 8.32-5.928 14.612zm-.195-9.1c1.209-3.9 3.458-2.262 6.656-1.807.78-.455 5.031-2.6 4.654.819-1.742 2.6-5.044 4.823-9.1 7.085-1.417-1.898-2.834-3.952-2.21-6.162z"/><path d="m14.286 86.02c-1.5376278-.5413158-3.2430073-.2935257-4.563.663-3.523-2.184-10.855.377-8.138 6.188 15.145 20.215 23.79-1.781 12.701-6.851zm-.598 12.22c-2.743-1.638-6.227-3.25-9.1-7.085-.481-3.588 3.718-.52 6.37-.832 4.433-3.952 6.773 4.342 2.73 7.917z"/><path d="m36.646 14.559c12.896 13.585 18.317-16.445 2.821-11.362-3.51-2.197-10.842.403-8.125 6.188 1.144 2.158 3.38 3.744 5.304 5.174zm-1.443-8.749c1.885-.546 4.628 2.743 6.734-.104 4.55 0 4.667 5.655 1.495 9.1-2.73-1.638-6.214-3.25-9.1-7.085-.2538606-.35215533-.2994269-.8133834-.1193828-1.20840574.1800442-.39502235.5580566-.66319071.9903828-.70259426z"/><path d="m198.6 83.628c-3.029-.182-13.585-7.449-13.442-.793v.377h-5.72c.728-4.342-4.849-6.331-7.488-1.56-1.3-3.64-8.346-3.796-7.501 1.56h-10.218c.65-6.955 4.615-31.33-2.223-30.173-.936 4.264-3.042 10.712-8.541 13-2.288-3.159 7.995-13.936 2.34-15.6-9.191 6.656-8.32 27.859 5.538 14.963.116468 1.4790162-.006445 2.9671362-.364 4.407-6.045 1.625-11.544 7.605-15.6 13.377h-56.017c-2.236-2.769-9.906-5.46-3.744 0h-1.937c-3.9-5.473-9.646-6.37-3.12 0h-2.808c-6.5-9.1-8.58-5.382-1.963 1.105-8.307 8.541-2.6 8.073 1.963 1.105h2.808c-7.8 7.423.676 3.9 3.12 0h1.937c-6.903 5.291 2.002 2.509 3.744 0h54.665c-11.388 20.982 16.055 18.486 19.591 0h12.233c.964238 1.0136079 1.984149 1.9727581 3.055 2.873.975.806 2.002 1.586 3.055 2.327 1.04-.741 2.067-1.521 3.042-2.327 1.067805-.9036613 2.087535-1.8626421 3.055-2.873h7.111v.364c.897 3.9 1.131 3.432 5.395 1.976 4.823-2.236 9.568-1.833 8.034-4.108zm-54.08 8.255c-2.002 1.885-4.602 5.863-8.801 5.577-1.222-3.211 1.3-7.995 3.601-12.038h9.1c-.988812 2.3268039-2.301822 4.5020226-3.9 6.461zm6.201-15.483c-.223306 2.3304405-.707332 4.6284763-1.443 6.851h-8.554c2.867017-4.1299526 6.378343-7.7729536 10.4-10.79-.169 1.469-.273 2.639-.403 3.939z"/><path d="m106.079 5.732c-8.229-6.149-17.628 1.43-25.012 6.89-2.6-23.92-33.436-4.693-16.562 2.6.923-.689.962-1.716 0-2.977-5.291-5.746 6.214-10.426 10.725-6.045 3.458 2.171.728 10.764 5.85 10.322 5.941-3.822 22.763-17.706 24.219-3.575-6.422 16.77-28.184 21.333-40.3 29.549 10.439 5.304 55.263-25.805 41.08-36.764z"/><path d="m120.769 99.332c.886516-.0773813 1.566783-.8196137 1.566783-1.7095s-.680267-1.6321187-1.566783-1.7095c-.886516.0773813-1.566783.8196137-1.566783 1.7095s.680267 1.6321187 1.566783 1.7095z"/><path d="m166.347 62.1c.886516-.0773813 1.566783-.8196137 1.566783-1.7095s-.680267-1.6321187-1.566783-1.7095c-.886516.0773813-1.566783.8196137-1.566783 1.7095s.680267 1.6321187 1.566783 1.7095z"/><path d="m48.047 40.468c.9405409 0 1.703-.7624591 1.703-1.703s-.7624591-1.703-1.703-1.703-1.703.7624591-1.703 1.703.7624591 1.703 1.703 1.703z"/><path d="m14.286 29.925c.9405409 0 1.703-.7624591 1.703-1.703s-.7624591-1.703-1.703-1.703-1.7029999.7624591-1.7029999 1.703.762459 1.703 1.7029999 1.703z"/><path d="m40 68.262c.9405409 0 1.703-.7624591 1.703-1.703s-.7624591-1.703-1.703-1.703-1.703.7624591-1.703 1.703.7624591 1.703 1.703 1.703z"/><path d="m117.675 22.177c.886516-.0773813 1.566783-.8196137 1.566783-1.7095s-.680267-1.6321187-1.566783-1.7095c-.886516.0773813-1.566783.8196137-1.566783 1.7095s.680267 1.6321187 1.566783 1.7095z"/><path d="m152.567 37.686c.886516-.0773813 1.566783-.8196137 1.566783-1.7095s-.680267-1.6321187-1.566783-1.7095c-.886516.0773813-1.566783.8196137-1.566783 1.7095s.680267 1.6321187 1.566783 1.7095z"/></g></svg>