<svg height="125" viewBox="0 0 171 125" width="171" xmlns="http://www.w3.org/2000/svg"><g fill="#fff"><path d="m26.325 42.471h-.962l.962-.715c35.425-26.676-1.04-46.8-22.386-25.22-7.839 8.762-3.445 24.934 8.97 27.456 2.275-.351-4.914 9.464-3.9 11.141 1.04.715 2.6.221 3.744-1.768 6.123-6.929 21.411-55.51 8.528-26.884-2.821 6.019-5.239 12.519-7.41 16.64-19.292-6.89-11.206-32.188 7.137-33.891 2.899-.299 8.801-.468 12.116 2.132 9.217 10.608-3.146 23.205-13 31.72-.0779507.1116742-.1474763.2289987-.208.351-.247.351-.247.559 0 .702.403.117.13.364 2.34.156 1.0838642-.1118334 2.1745876-.142252 3.263-.091 2.6 0 3.393.312 4.16 1.378 3.172 5.473-7.137 18.811-14.04 13.312-.7105287-.8976357-1.9245787-1.2249013-2.99-.806-.1129754.1331219-.155472.3122458-.1143364.48193.0411355.1696843.1609416.3094621.3223364.37607.2068854.1838645.394214.388619.559.611 1.4390108 1.4411274 3.3845965 2.2622859 5.421 2.288 6.357.767 14.573-4.589 16.055-11.557.1562066-1.0079841.1562066-2.0340159 0-3.042-.754-2.951-3.497-4.472-8.567-4.771z"/><path d="m108.953 32.383c-.882072 1.0809434-1.584389 2.2968299-2.08 3.601-.025415.3181357.193319.6041731.507.663.858 0 1.118-.312 1.625-1.014s2.041-2.925 2.73-4.108c.104-.299-.247-.507-.91-.507s-.91.104-1.872 1.365z"/><path d="m170.391 42.9c-.268875.0135531-.52922.0988385-.754.247-2.925 1.066-15.392 11.011-16.107 3.601-.065891-.8691947-.017816-1.7432742.143-2.6.156-.598.416-1.768.455-1.768 5.46-4.355 14.3-14.898 15.262-21.736.000516-.532745-.324063-1.0118845-.819-1.209-.650714-.1447517-1.325286-.1447517-1.976 0-6.695 3.575-13.195 15.873-15.444 23.79-.045368.13577-.080138.2748535-.104.416-2.223 1.651-6.747 4.771-10.231 5.408-.65.078-1.014.13-1.625-.962-.182-1.456-.208-2.223.91-4.914.767-2.392-2.6-.143-3.237 1.625-.403 1.014-3.445 3.289-4.407 3.744-.182 0-.182.286-.767 0-.299-.26-.351-.559-.351-1.3.055878-.7108717.208971-1.4107237.455-2.08.526804-1.2516485 1.134764-2.4675678 1.82-3.64.819-1.3.962-1.677.715-1.872-1.43-.377-2.782.975-4.342 3.614-3.077302 1.328197-6.323305 2.2250037-9.646 2.665-.117 0-.091.169-.546 0-.260656-.1306857-.535456-.2310094-.819-.299 0 0-.195.299.611-1.677l.507-1.118c4.29-3.549 16.146-16.029 16.367-21.58-6.006-6.5-18.2 18.551-19.5 22.36-.481.208-1.04.468-1.612.741-1.703.676-6.344 3.081-8.06 2.535s-.858-4.355 0-6.682c-.624-.416-.416-.598-1.924.247-.912594.894833-1.541127 2.0388536-1.807 3.289-2.608351 2.9822476-5.7578308 5.443606-9.282 7.254-.7669269.3817109-1.5623137.7033427-2.379.962-.546.078-.884.117-1.378-.871-.533-2.054 0-5.317 1.3-9.1 3.2133061-2.9161138 6.1828612-6.090016 8.879-9.49.702-.065 1.924-.143 3.133-.351.634007-.0707932 1.252729-.241929 1.833-.507.091-.26-.208-.364-1.066-.403-.372025.0309292-.745975.0309292-1.118 0-.372349-.0217616-.745651-.0217616-1.118 0h-.702c11.024-15.808-4.68-8.84-8.008-.195l-.403.702c-3.497.429-9.971 0-11.349 1.833.637 0 1.482 0 5.369-.312 2.886-.143 5.265-.299 5.265-.299-1.5986602 3.5228106-2.9580741 7.149362-4.069 10.855-2.093 1.56-6.5 4.537-9.854 5.2-.65.078-1.014.13-1.625-.962-.182-1.456-.208-2.223.91-4.914.767-2.392-2.6-.143-3.237 1.625-.403 1.014-3.445 3.289-4.407 3.744-.182 0-.182.286-.767 0-.299-.26-.351-.559-.351-1.3.0558784-.7108717.2089711-1.4107237.455-2.08.5268039-1.2516485 1.1347635-2.4675678 1.82-3.64.819-1.3.962-1.677.715-1.872-1.469-.377-2.873 1.066-4.446 3.809-1.3.429-5.824 3.9-7.8 3.133-.4273377-.7527028-.5703396-1.6337789-.403-2.483.1239193-1.2891027.4303126-2.5540695.91-3.757.104-.195.104-.195 0-.299s-.247-.221-1.066-.156c-.208 0-.507.351-.91.91s-1.3 1.3-2.483 2.483c-.819.767-1.3 1.222-1.729 1.573s-1.3 1.118-1.3 1.118c.0407408-.4504067.1595107-.8902954.351-1.3.5849167-1.3844039 1.3881201-2.6660182 2.379-3.796.442-.117.676-1.755 1.573-1.014l.312.26c.256003.0245316.514197-.0110813.754-.104.156-.208 0-.663-.26-.91-.0790417-.1287351-.2048188-.2219033-.351-.26-2.171-.676-4.836 1.716-6.643 4.732-1.235.65-3.627 1.82-3.991 1.963-1.3.182-4.381 2.665-5.98.299-.3272137-1.0424131-.233905-2.171448.26-3.146 1.625.169 8.112-1.3 5.967-4.602-9.503-3.146-14.456 15.041.663 8.71.325-.143 1.3-.637 2.288-1.209-.0043484.0822759-.0043484.1647241 0 .247-.494 2.522 3.692 2.483 5.928-.208l.611-.598c-.016998 1.4399543 1.0533072 2.6615592 2.483 2.834.7240739.1069249 1.4599261.1069249 2.184 0 1.9416399-.6152846 3.7913402-1.4898475 5.499-2.6-.4380342 1.0747893-.4657938 2.2730796-.078 3.367.7255763.8063514 1.8217281 1.1717353 2.886.962.6424032-.0291681 1.2676259-.2167349 1.82-.546.8602381-.553423 1.6579039-1.1985298 2.379-1.924l.156-.156c-.078 1.404.598 2.886 3.237 3.237.7374265-.0107978 1.4708058-.1112009 2.184-.299 2.6-.689 4.732-1.859 8.593-4.576-.3854705 1.4244028-.5864471 2.8924061-.598 4.368.104 1.872.767 3.198 2.847 3.341 4.745 0 9.555-3.9 13.169-7.345.338 1.43 1.43 2.223 3.341 2.431 3.371699-.2160864 6.637018-1.2658128 9.503-3.055-2.6 6.669-5.2 16.198-5.2 19.682 0 1.417.156 4.303 1.82 4.706.473502.0862175.96116.050426 1.417-.104 5.044-4.147 10.79-15.6 6.591-22.49 0-.182 0-.117.715-.208 2.592431-.2853215 5.133651-.923907 7.553-1.898-.573599 1.2211575-.666423 2.6135077-.26 3.9.725576.8063514 1.821728 1.1717353 2.886.962.642403-.0291681 1.267626-.2167349 1.82-.546.860238-.553423 1.657904-1.1985298 2.379-1.924l.156-.156c-.078 1.404.598 2.886 3.237 3.237.737426-.0107978 1.470806-.1112009 2.184-.299 2.522-.611 5.46-2.314 9.1-4.953-.077315.5337299-.112091 1.0727601-.104 1.612 1.3 8.71 13.572 1.833 18.044-1.417.752416-.4787696 1.461458-1.0225135 2.119-1.625.338-.416.078-.637-.429-.637zm-14.638-5.018c2.740152-5.9492452 6.268851-11.5024645 10.491-16.51.247 0 .988-1.391 1.3-.819-.624 6.136-7.41 13.962-12.714 19.656.266942-.7997045.575019-1.5850845.923-2.353zm-32.006-2.782c2.977-5.369 6.929-10.894 9.464-13.13.403 0 1.534-2.145 1.417-.299-.923 5.278-9.217 13.754-13.117 17.94.656079-1.546282 1.402706-3.0525594 2.236-4.511zm-27.209-4.29c1.4847272-2.6506414 3.3457324-5.0721374 5.525-7.189.413616-.4605816.936765-.8093476 1.521-1.014.247.104.299.858.104 1.625-.896707 2.5781552-2.214569 4.9898415-3.9 7.137-1.0073955.1516392-2.0234828.2384843-3.042.26h-.663zm-3.9 8.671c.7447953-2.111781 1.6129562-4.178004 2.6-6.188l.143-.351h.364c.91 0 2.158-.091 2.938-.104-1.93229 2.4435135-3.9981047 4.7784049-6.188 6.994zm-50.661 2.119c.7977227-1.1810044 1.8339713-2.1818257 3.042-2.938l.403-.208.104.156c.26.299.156.806-.195 1.3-.910028 1.0148366-2.1478522 1.6774636-3.497 1.872zm72.54 25.584c-2.392-1.807 2.314-15.795 3.9-20.371 5.33 3.757-.117 15.678-3.9 20.384z"/><path d="m53.872 86.268c-.117-.351-4.81-.507-7.098-.455l.104-.351c1.222-3.289 2.535-6.383 3.757-9.1.676-1.443.832-.728 3.393-1.3 6.006-.767 21.489-12.87 12.87-18.2-1.1309314-.1413876-2.2750686-.1413876-3.406 0-7.709 1.3-12.038 13.429-15.951 17.433-5.616-.923-7.735-7.02-7.189-12.623 0-.507 0-.507-.156-.598-.481 0-.897-.234-1.469.754-.962 2.028-.663 5.928.611 8.515s4.771 4.784 8.359 5.109c-.26.507-.078.143-.663 1.378-1.014 2.275-2.08 4.862-3.237 7.943l-.507 1.43h-.455c-1.645224.0962618-3.2775691.3487311-4.875.754-.91.299-1.209.611-.858.91.442.065.143.442 2.431.104 7.371-3.237-2.756 13.793-1.469 16.9.1866108.303058.4516082.550089.767.715.391908.133717.817092.133717 1.209 0 .4301626-.202787.7982255-.516987 1.066-.91.2197383-.576998.3851228-1.173252.494-1.781.871-3.081 3.471-12.584 4.706-15.6-.52-.156 8.489 0 7.657-.455.169-.208.169-.364-.091-.572zm-1.872-12.818c4.069-7.163 8.229-15.6 14.3-15.145 3.315 5.746-7.137 14.3-13.273 15.704-.351.104-.858.208-1.066.26h-.351z"/><path d="m105.3 84.344c.481-.676 2.041-2.912 2.743-4.095.091-.312-.26-.507-.923-.507-1.404-.065-3.276 3.367-3.9 4.953-.039241.3175752.178469.6097647.494.663.819 0 1.066-.299 1.586-1.014z"/><path d="m149.812 91.585c-.325 0-.286-.195-.962 0-.554457.30998-1.092509.6484322-1.612 1.014-1.014.663-5.421 4.108-7.657 5.928-.24004.2172208-.491747.4211903-.754.611.06954-.2255575.15201-.4469238.247-.663.546-2.067 8.333-15.704 1.625-9.009-.782506.9086975-1.611269 1.7765125-2.483 2.6-1.230351 1.3112822-2.644811 2.4367198-4.199 3.341-.312.104-.312.143-.364 0-.220516-.5306215-.270492-1.1167033-.143-1.677.208152-1.3401454.579234-2.6498454 1.105-3.9.173718-.4252975.325583-.8591969.455-1.3.104-.403.104-.455 0-.546-1.547-1.053-3.146 1.482-3.991 4.121-2.6 1.144-14.872 10.4-15.353 3.224-.067582-.8697188-.015089-1.7446014.156-2.6.119772-.5842583.271669-1.1614679.455-1.729 5.447-4.368 14.3-14.911 15.249-21.736-.011379-.5321803-.331084-1.0092009-.819-1.222-.651529-.1371304-1.324471-.1371304-1.976 0-6.591 3.679-13.091 15.99-15.444 23.907-.007465.0821641-.007465.1648359 0 .247-.494.208-1.066.468-1.664.767-1.703.663-6.344 3.081-8.047 2.535s-.858-4.355 0-6.695c-.624-.416-.429-.585-1.924.26-.824373.7765026-1.425857 1.7595251-1.742 2.847-.6672501.3212476-1.3102764.6905532-1.924 1.105-1.859.728-7.41 5.863-8.359 1.157-.312-.481.286-4.004-.247-4.966-.195-.065-.468-.676-2.288-.247-1.6316179 1.0507089-3.1711401 2.2379675-4.602 3.549-3.991 4.017-.845-1.053-1.066-3.497-1.04-3.406-7.02 2.6-8.515 4.095l-.403.455.247-.507c.3631756-.7396474.6843522-1.4991865.962-2.275.1174571-.2517608.171038-.528595.156-.806-.364-1.092-1.703-.689-2.782 1.118-.169.26-.377.676-.624 1.157-1.3.416-5.681 3.9-7.54 2.99-.4240534-.7538559-.5668591-1.6337237-.403-2.483.1301601-1.2838335.4363654-2.5436499.91-3.744.104-.208.104-.208 0-.312s-.247-.221-1.066-.143c-.195 0-.494.351-.91.91s-1.222 1.3-2.483 2.483c-.806.754-1.3 1.209-1.716 1.573-.41389.3906144-.847809.7594456-1.3 1.105.0313492-.4520354.1505757-.8936148.351-1.3.576821-1.388601 1.3808133-2.6714741 2.379-3.796.442-.117.676-1.755 1.573-1.014l.299.247c.2602695.0251361.5228216-.0104642.767-.104.143-.195 0-.65-.26-.91-.0832814-.1220698-.2079806-.209821-.351-.247-2.834-.962-6.89 3.9-7.501 6.981-.494 2.522 3.692 2.496 5.928-.195l.611-.611c-.0325985 1.4909151 1.1008382 2.7496564 2.587 2.873.7183132.124485 1.4526868.124485 2.171 0 1.7866508-.5507772 3.4917278-1.3377358 5.07-2.34-.325 1.118-1.196 1.482-1.222 3.562.26 0 .546.806 2.6 0 1.9036127-2.6216686 4.0827235-5.0317652 6.5-7.189.5117452-.4694659 1.0546502-.9037899 1.625-1.3-.468 1.521-1.482 5.382-1.222 6.136.793.507.494 1.222 3.198.351.559-.26.91-.611 2.223-1.976 1.0833658-1.1526476 2.2523672-2.2216972 3.497-3.198.312-.247.351-.299.351-.195-.403 2.106-.546 6.5 3.094 6.942 1.2815689.0569916 2.5599342-.1693856 3.744-.663 2.0288878-.8885543 3.9663743-1.972676 5.785-3.237v.13c.091 1.937 1.209 2.938 3.445 3.198 3.504895-.2601627 6.888514-1.3954852 9.841-3.302-.090418.5672536-.12525 1.1419786-.104 1.716 1.222 8.606 13.234 2.002 17.784-1.3-.221 3.471 4.615 3.354 6.877.481.741-.546 1.079-1.3.364.299-.208.403-.559 1.3-.871 2.028-.702 1.573-.91 2.08-1.976 4.251-.455 1.014-.962 1.976-1.014 2.184-3.51 3.9-11.479 11.869-13 17.173-.51713.981112-.682311 2.109848-.468 3.198.299.806 1.209.858 1.924.858 7.8-2.392 9.763-12.545 14.079-20.722l.559-1.3c2.678-2.34 6.5-5.434 10.036-8.216.819-.624 1.027-.78 2.379-1.924.403-.403.455-.455.143-.611zm-31.863-5.005c2.740103-5.9532678 6.268759-11.5107907 10.491-16.523.247 0 .988-1.391 1.3-.806-.611 6.149-7.397 13.949-12.74 19.656.271702-.7931283.588553-1.5700642.949-2.327zm13 23.803c-2.938 6.396-5.72 11.31-8.203 13l-.208.104-.104-.26c-.186388-.627791-.186388-1.296209 0-1.924.13-2.327 6.825-11.531 9.776-13.988-.078.234-.91 2.262-1.287 3.068z"/><path d="m105.833 105.677c-2.819836-.270666-5.664399-.112878-8.437.468-6.292-8.944-13.429-2.964-.832.143l-4.537.832c-4.771-8.554-13-3.9-1.157.208-1.014.156-2.015.299-3.029.416-5.681-7.267-14.469-3.627-1.781.169-.637 0-1.378.143-3.289.234-4.615-6.76-14.677-4.511-2.223 0-.767 0-1.547 0-2.327 0-3.25-4.095-16.783-4.797-4.186 0-.0055118.038805-.0055118.078195 0 .117-14.547 2.47-10.4 8.567.403.403.923 0 1.833.078 2.756.091-13.949 4.81-4.888 7.085 2.288 0h2.093c-12.675 5.772-4.42 8.905 1.469 0 1.04 0 2.093-.117 3.133-.221-12.493 6.123-3.445 8.073 1.976-.208.377 0 .338 0 2.054-.26-10.803 6.734-1.807 8.125 2.093-.377l3.653-.715c-12.077 6.5-2.99 8.528 1.833-.325 3.523-1.404 10.14.299 13 1.066-1.41611-1.149674-3.13804-1.859235-4.953-2.041z"/><path d="m148.291 70.629c-1.3.221-1.053-.494-4.095 1.118-5.317-4.212-9.672 5.2-3.64 10.244 1.833-1.118 15.665-7.891 7.735-11.362z"/><path d="m27.664 91.819c-8.19-14.3-33.033 6.5-13 12.545 3.757 1.183 5.954-8.099.078-6.344-.611.702 0 1.651.91 3.107-.221.234-.156.39-.949.533-12.272-1.3.169-18.889 9.1-12.051 2.847 1.95 4.316 4.199 6.422 7.8 2.73.741-.936-3.718-2.561-5.59z"/><path d="m33.163 89.7c-.089908-4.4844641-1.3058448-8.8743538-3.536-12.766-4.433-9.62-19.981 6.266-7.527 9.334 2.457-.585 5.2-2.119 5.512-5.811-1.729-3.133-3.107.988-5.486 2.873-.26.117-1.586.325-2.015-1.3-.767-3.146 4.563-9.451 8.06-4.056 2.119 3.627 4.524 8.697 3.679 14.417-.013 1.534 2.054 1.001 1.313-2.691z"/><path d="m26.624 96.33c-.8766342-.8654815-2.0056342-1.4299816-3.224-1.612-1.209-.585-3.406 1.833-.416 2.704.8473781.1199329 1.6741673.3561584 2.457.702.754.962 3.796.676 1.183-1.794z"/><path d="m25.545 99.84c-.598-.169-1.196-.299-1.794-.442l-1.3-.286c-.624-.325-1.391 1.3-.156 1.56h1.365c-.26-.234 2.548.559 1.885-.832z"/><path d="m111.072 15.808c-8.957 9.295 2.743 13.247 7.085 4.251 3.51 7.8 12.09 2.067 6.5-4.901 8.424-.377 8.268-12.389-2.821-8.801 2.054-8.177-9.23-8.866-9.1.299-8.255-2.483-13.338 4.693-1.664 9.152zm.468 7.436c-2.743-.312-2.028-3.133 1.885-6.851.971501.8136078 2.191116 1.2721096 3.458 1.3-1.183 3.64-3.484 5.421-5.343 5.551zm12.896-2.704c-1.209 2.418-3.9 1.183-5.2-3.38.943056-.4767512 1.718481-1.2295034 2.223-2.158 2.808 2.08 3.341 4.251 2.977 5.538zm-3.77-11.518c9.672-4.966 11.089 5.291 1.391 3.744-.004532-1.3403565-.553522-2.6213346-1.521-3.549zm-4.069-6.669c2.6-1.079 4.654.871 2.6 5.096-.351.208-.286 0-.767.65-1.106379-.40709807-2.344439-.2154936-3.276.507-.754-3.406.156-5.486 1.443-6.253zm-2.132 9.698c.674191-.9780002 1.631315-1.7264619 2.743-2.145.450285.07186423.888023.2075631 1.3.403.117.104 0 0 .325.169 4.953 4.108-6.331 8.307-4.368 1.573zm-4.81-3.9c1.333392-.06368843 2.637657.40379012 3.627 1.3 0 .169.104.364.156.546-1.015735 1.0412825-1.572775 2.4455849-1.547 3.9-6.045-2.99-8.45-4.966-2.236-5.759z"/><path d="m46.371 27.911c1.729 1.131.65-16.9 1.027-16.9-3.393-3.874-1.573 16.029-1.898 16.549 0 .234.442.351.871.351z"/><path d="m49.764 13.195c2.21 0 .403-4.316-1.183-1.157.052.364.104.715 1.183 1.157z"/><path d="m48.776 15.808c.832 1.157-1.846 14.365 1.872 11.7l.117-11.908c.156-.221-1.456-.663-1.989.208z"/><path d="m54.21 28.223c.637 0 1.3-.26 1.3-.741-.273-2.158-.702-5.2-.897-7.917 1.2227298-.1329535 2.4562702-.1329535 3.679 0 .637-1.3-1.495-1.001-3.731-.936-.793-2.145 1.729-10.075 3.094-4.888 0 .091.286.728 1.092 0-4.81-11.323-9.828 12.584-4.537 14.482z"/><path d="m63.934 26.559c1.5446924.0591039 3.0373144-.5636142 4.082-1.703.0943633-.1988721.0793634-.4323699-.0396702-.6175334-.1190337-.1851635-.3252303-.2957491-.5453298-.2924666-1.183 1.625-4.628 1.859-5.369-1.82 0-.117 0-.234 0-.364 1.781.208 5.603-.195 5.577-3.146-4.537-8.762-12.532 6.461-3.705 7.943zm1.066-9.256c3.718.559.806 4.914-2.99 3.705.026-2.041.793-3.705 2.99-3.705z"/><path d="m74.191 15.808c.845 1.157-1.846 14.365 1.872 11.7l.117-11.908c.169-.221-1.456-.663-1.989.208z"/><path d="m75.192 13.195c2.21 0 .39-4.316-1.196-1.157.104.364.104.715 1.196 1.157z"/><path d="m80.6 28.171c.9816169.1053619 1.9646892-.1854056 2.7310611-.8077777s1.2526556-1.5248714 1.3509389-2.5072223c.611-4.03-4.745-5.278-4.758-7.579-.065-1.742 3.9-1.586 3.822.806.208.182.585.728 1.001-.117-.104-4.186-8.671-3.978-6.5 1.638 4.875 3.419 6.123 11.05.169 5.863-.39-.234-.325-.429-.897.403.4998451 1.2950701 1.6973119 2.1893808 3.081 2.301z"/><path d="m74.906 79.3c.364 0 .702-.117.767-.325.6984928-1.5127842 1.2218858-3.1004097 1.56-4.732l1.703 4.55c.338.39 1.157.572 1.651-.507l2.6-9.854c0 .182-.312-.585-.858-.234l-2.314 8.788-2.249-4.81s-.338-.507-.91 0c-.975 3.081-.949 3.029-1.651 5.291-1.04-3.029-1.3-5.967-2.444-9.1-.429-.312-.611-.936-1.755 0 .7676415 3.513782 1.7179309 6.9851588 2.847 10.4.104.351.611.533 1.053.533z"/><path d="m85.254 64.311c-1.924 0-.338 3.757 1.04 1.014-.052-.325-.091-.624-1.04-1.014z"/><path d="m84.396 68.614c.728 1.066-1.612 12.558 1.625 10.179l.104-10.4c.143-.156-1.261-.533-1.729.221z"/><path d="m89.973 63.7c-.429 0-.884.169-.936.351-.117.806-.364 2.197-.572 3.809 0 .13-1.768-.429-.897.975.2758683.0375012.5536547.0592033.832.065-.52 2.782-1.027 13.663 4.784 10.478.26-.143.338-1.066-.689-.676-3.471 1.209-2.847-5.785-2.34-9.828h1.807c.572-.806-.169-1.157-1.677-.936-.403-1.469 1.625-3.445-.312-4.238z"/><path d="m101.218 79.079c.416 0 .806-.091.897-.286 2.6-4.589-1.625-17.55-6.084-6.5l-.104-7.982s-.507-.65-1.508 0c.845.962-2.106 17.68 1.69 14.482.832-15.6 7.41-10.517 4.186 0-.026.156.468.286.923.286z"/></g></svg>