<svg height="149" viewBox="0 0 200 149" width="200" xmlns="http://www.w3.org/2000/svg"><g fill="#fff"><path d="m196.6 97.4933333c-9.066667 4.8799997-17.2 11.8799997-26.666667 17.7733337-.373333-2-1.333333-4.88-2.2-8.386667 1.053334-3.8-5.96-7.16-4 .253333-3.146666 6.586667-5.76 2.546667-6.186666-2.426666 1.226666-2.4-3.52-4.6-3.826667-.68-.012647 2.019661.302561 4.02799.933333 5.946666-11.12 3.76-12.08-11.093333-12.8-19.5066663.8-34.3066667-8-25.0666667-3.92.7466666-.133333 2.12-.346666 4.2266667-.626666 6.3066667-7.026667-2.6666667-11.773334 8.32-8.946667 14.666667-9.48.893333-9.586667-12.4533337-10.48-20.0000003.8-34.2933334-8-25.04-3.92.76-.133333 2.12-.346667 4.2266666-.626667 6.3066666-7.066666-2.6666666-11.826666 8.4133337-8.906666 14.8266667-4.28.12-5.9333337-5.906667-6.906667-10.44 1.08-2.533333-3.4-11.4933333-4.5866667-3.573333-8.3333333-6.1600003-14.56 9.053333-8.9333333 15.266666-4.56 5.893334-13.84 1.413334-16.1066667-5.333333.7013503-1.613695.5616682-3.469471-.3733333-4.96 18.2-51.68.1066667-59.4533333-4.6266667-4.986667-31.6133333-11.253333-29.9066666 50.666667.4266667 11.306667.2137725.531119.6462854.944193 1.1866667 1.133333 3.2133333 8 16.32 14.053334 22.6666666 5.12 3.1466667 1.12 7.52-1.333333 8.6666667-5.68 1.1333333 3.733334 7.8 8.986667 12 4.573334 2.96.133333 6.04-3.24 7.373333-7.066667.75035-.243625 1.257088-.944433 1.253334-1.733333 1.506666 7.026666 10.76 11.48 17.466666 6.666666 1.973334-.8 4.12-3.56 5.253334-6.666666.750349-.243625 1.257088-.944433 1.253333-1.733334 1.533333 6.92 9.426667 10.666667 16.413333 7.44 1.933334 1.56 5.333334 1.76 8.146667-1 .28 1.066667.893333 3.146667 1.333333 5.586667-31.08 32.426667 9.906667 46.666667 4.226667 1.68 3.28-3.573333 38.56-22.5066667 26.04-22.1866667zm-126.0133333-19.12c-.6190131 5.4689378-1.7392789 10.8694221-3.3466667 16.1333334.7397695-5.4489321 1.8580291-10.839745 3.3466667-16.1333334zm-18.5866667 39.4666667c-19.0133333 11.813333-1.8533333-27.4 10.8-12.706667-3.025947 4.69177-6.6572335 8.964135-10.8 12.706667zm36.08-4.16c-1.620617-1.446067-2.4925477-3.552777-2.367897-5.721181.1246507-2.168403 1.2322487-4.16132 3.007897-5.412152.1287965.006901.2578702.006901.3866667 0 2.8266666.666666 2.2533333 4.32 3.4133333 7.066666-.6266667 2.106667-2.0666667 5.48-4.4266667 4.066667zm22.173333-3.013333c-5.213333 7.84-2.013333-13.4800003 2.2-6.413334-.438213 2.227893-1.178373 4.385573-2.2 6.413334zm24-1.746667c-5.213333 7.84-2.013333-13.4933333 2.2-6.413333-.44784 2.224634-1.196964 4.377805-2.226666 6.4zm32.546667 18.813333c-1.706667 31.24-16.613333 12.226667 0-4.666666.08 1.546666.066667 3.106666 0 4.666666z"/><path d="m33.4666667 7.66666667c17.5333333 2.53333333 32.8533333 14.77333333 43.1333333 29.66666663 1.5466667 1.5866667 1.8933333 4.5866667 4.9733333 3.56 3.6-5.0133333-16-21.4666666-18.2533333-24-15.5466667-12.8933333-44.44-21.1733333-57.98666667-3.2933333-3.01333333-29.1466667-9.56-3.94666667-1.33333333 6.4 7.88 2.4 13.7866667-1.56 22.3466667-2.6666667 10.5733333-7.79999997-13.8133334-.6533333-18.2666667-.64 5.08-8.47999997 16.1866667-10.2533333 25.3866667-9.02666663z"/></g></svg>