<svg height="84" viewBox="0 0 201 84" width="201" xmlns="http://www.w3.org/2000/svg"><g fill="#fff"><path d="m186.42 14.64c-.33-.05-.67 0-1-.43-.33.08-.66-.19-1-.39s-.67 0-1-.38c-.655722-.2432842-1.323226-.453548-2-.63-.359952.0096435-.712517-.1031776-1-.32-.7-.16-2.12-.58-4.07-.91-2.030637-.3749347-4.086265-.5988812-6.15-.67-1.372297-.0754585-2.747703-.0754585-4.12 0-2.766622.114346-5.522645.4116623-8.25.89-5.565036 1.0216519-11.015039 2.5926728-16.27 4.69-2.1.81-4.53 1.8-7.88 3.37-9.83 4.57-18.7 10-29.14 15.83-.853782.416914-1.681921.8844118-2.48 1.4-.316983.1286928-.621577.2860103-.91.47-.3 0-.6.3-.91.51s-.38.12-1.82 1.06c-.31.26-.61.22-.92.4-.2001596-.0506506-.387507-.1426211-.55-.27-.5199007-.4171001-1.0605934-.8076003-1.62-1.17 1.1473526-.4438898 2.26909-.9513424 3.36-1.52.29-.13.32-.21 1.63-.86.47-.43.77-.29 3.13-1.94 2.39-.09 9.92-11.79-.77-8.48 7.07-11.65-5.22-15.06-10-5.2-.41-36.16-32.68-17.03-11.42 6.91-1.27-1-2.78-2.28-5-3.83-1.0953703-.858698-2.2370908-1.656567-3.42-2.39-.84-.44-1.76-1.21-3.52-2.24-.86-.38-1.81-1.22-3.61-2.05-1.36-.71-2.94-1.55-5.62-2.73-1.43-.52-3.06-1.3-5.86-2.22-5.8960698-2.02889632-12.1202263-2.93453652-18.35-2.67-2.063079.09033039-4.1142659.36136814-6.13.81-1.9967278.4685816-3.9608719 1.0665098-5.88 1.79-17.48 6-27.29 33.93-4.74 44.81.6553172.1936596 1.2836045.4691653 1.87.82 2.5023401.9802519 5.0900457 1.7267698 7.73 2.23 1.649597.3341754 3.3201922.554694 5 .66.52 0 1 .25 1.55.11.5016449.1381694 1.0278888.1620895 1.54.07-.5976991.3134325-1.1607934.6888287-1.68 1.12-2.28 2-6.05 5-5 9.49.2844642.4842233.6196879.9367752 1 1.35.44.27 1 .34 1.65.69.77-.23-.3.64 3.13-.55.5259071-.1945771 1.0158919-.4750512 1.45-.83-1 3.66-1.37 12.65 6 11.69 3-.85 5.31-7 5.83-11.7.55 0-.28 1.11 3.23 2.06 6.38.29 5.73-11.09-.67-14.29.66.19 1.32-.51 2-.33 3.12-.79 3.35-.45 9.23-2.13.37-.26 1.23-.21 4.92-1.47 1.15-.45 4.42-1.4 7-2.47 6.9843102-2.6803892 13.820687-5.7313894 20.48-9.14.34.25 1-1.47 2.37-.64.2018815.1106337.3898714.2449123.56.4.21 0 .17.16 1.13.69.19-.11.37.17.56.3.754465.5278918 1.542833 1.0055895 2.36 1.43.33.13.32.21 1.78 1 .54964.4057482 1.14755.7416531 1.78 1 .3.15.6.33.9.49 3.11 1.53 1.32 1.29 10.53 4.67 3.53 1.66 6.57-1.8-2.25-3.82-.57-.19-.78-.19-5.34-2.49-.32-.16-.34-.21-1.74-1-.55-.25-.91-.63-2.57-1.44-.23998-.2364375-.535798-.4084242-.86-.5-.27539-.1883339-.562655-.3586883-.86-.51-.203496-.2853779-.513607-.4764924-.86-.53-.28-.15-.57-.59-.86-.48-.15-.28-.31-.1-.47-.36-.33663-.111519-.651314-.2807038-.93-.5-.16-.12-.31 0-.46-.27.29-.28.28-.21 1.6-.85.27 0 .54-.36.81-.43.27-.25.53-.14.8-.43.68-.36 1.5-.83 3.19-1.75.36-.2.71-.41 1.07-.58.35-.33.7-.3 1-.59 6.75-3.71 14.18-8.37 22.33-12.46 1.42-.74 3.07-1.57 5.49-2.62 6.770212-3.0699617 13.894367-5.290172 21.21-6.61 2.096026-.4001269 4.212599-.6838945 6.34-.85 1-.13 2.14-.11 4.26-.23.707151.0899507 1.422849.0899507 2.13 0 2.104147.0340586 4.203025.2212197 6.28.56.37.08.33.08 2 .38.36 0 .39.09 2 .5.36.22.29 0 1.95.61.340205-.0255358.678027.0740328.95.28.31.05.63.36.94.46.31.3.61.21.92.41.320149.1132795.62564.2643469.91.45.3-.05.59.16.89.48.64783.3219143 1.258185.7142856 1.82 1.17 10.71 6.9 11.87 20.94 2.1 33.16-.76.87-.76 1.1-2.61 3.16-.12 0-.28.27-.43.34-.263938.3961716-.603828.7360621-1 1-.197489.1434816-.372711.3153345-.52.51-.17 0-.35.27-.53.47s-.35.49-.53.45c-.19.3-.37.22-.55.49s-.37.38-.55.37c-.170507.1537156-.362529.2817307-.57.38-.19 0-.38.43-.57.4-.27.23-.45.59-.55.65-.17-.2-.56-.33 0-1.44 3.39-2.65 3.82-13.74-3.13-11.59-.23 1.61-9.7 19.16-13.9 10.93.068674-.4325296.165547-.8601077.29-1.28.09-.14.14 0 .37-.81.05 0 .1-.06.13-.06.04808-.0334783.11192-.0334783.16 0 13.3.88 5.94-19.42-2.52.11-.4 2.28-9 7.93-6.67 1.66 1.36-2 2.72-6.72 5.23-9.27 2.32.6 4.66.58 6.1-1.4l-.09-.82c-.48-.35-.66-.44-1.17-.22.25.06-6.24 3-3.32-1.15 1.39-5.08-2.64.07-3.07 1.34-.72-.24-7.55 2.34-3.71 3.27 4.48-2.84 1.18 1.37-1 5.85-.72.54-3 4-4.8 4.32 2.59-2.41 2.76-18.59-4.47-10.23-1.81 1.53-2.41 2.83-4.92 6.57-1.09 1.06-1.57 2.7-4 4.16-3.61 1.2-1.14-4.13 1.55-8 1.9-3.07-1.89-7.63-5.54-1.61-.362138.372558-.65054.8102511-.85 1.29-.29 1.29-4.32 4-2.21 5.57.19.1.32 0 .51-.06 1.13-.47 1.24-1.53 2.67-3.46 1.28-1.26 1.23-3.29 3.84-4.19-2.52 4-8.42 18.73 3.59 10 .65 4.63 9.91 3.69 13.15.4 1.71 3.66 5.94 3 9.08-.8.51 2.24 3.86 3.84 6.88 2.24.019411.0068629.040589.0068629.06 0 1.47-.78 1.76-.29 4.47-3 .15-.38.24-.16 1.33-1.58.66-.7.75-1.38 2.16-3.14.907451-1.5157989 1.664391-3.1167613 2.26-4.78 2.46 2.4 2.91 3.45 1.32 6.33-1.46 3.37-3.85 3.69-1.59 6.44.45.17-.2.26 2 .61.32.11.65-.21 1-.12s.58.18.89-.22c.26-.1.51-.43.76-.54.200432-.2424825.463189-.4257215.76-.53.26.1.51-.23.76-.51.27-.56.24 0 1.48-1.39.25-.27.49-.16.73-.6.66-.56 1.34-1.38 2.8-2.94 8.71-9.66 14.89-28.24-1.45-38.73-.31 0-.24-.25-1.65-1.05-.28-.29-.57-.25-.85-.45-.32 0-.25-.13-1.74-.86zm-106.96-12.35c12.5-3.2 10.15 15 12.2 22.12 6.94-12.22 16.42-11.35 7.73 3-.49 2.68 2.38.17 4.69-.94 7.13-.76-2.14 7.29-7.14 9-1.23.77-.61.23-3.18 1.35 3-2.48 13.65-14.05-.22-2.57 9.31-25.45.66-11.8-1.71-.19-3.7002722-7.6460022-5.9290354-15.9199039-6.57-24.39-4.88-10.61 2.18 23.6 4.74 24.54-8.15-7.16-19.93-23.14-10.54-31.92zm-30.56 57.37c3.34.59 10.75 9.86 3.62 11.83-1-.13-2.41-1.35-3.31-3.62 0-.06 0 0 0 0s-.06 0-.1 0c-.2 0-.42 0-.61-.09-.2.14-.37.35-.46.39-.0697331.1505802-.1072019.3140805-.11.48-.78 3.63-.88 9.12-4.68 12.34-.1752464.2461705-.4448206.4085449-.7443639.4483576-.2995432.0398127-.602172-.0465094-.8356361-.2383576-.553768-.1258408-1.0519287-.4275438-1.42-.86-3.42-3-.73-7.93-.22-12.08-.15-.08-.36-.36-.58-.32-.2532341-.0680005-.5228631.0179682-.69.22-.72 1.27-8.5 6.47-6.57-.52.5713044-1.2002602 1.3499066-2.2903033 2.3-3.22 1.714041-1.754329 3.7515344-3.1601994 6-4.14.35-.35.25.08 1.89-.06-.4855122.3085837-.9320652.6745558-1.33 1.09-.57.89-1.34.81-2.59 2.24-.64.65-6.19 4.76-2.51 4.79.7557445-.8207284 1.5534791-1.601774 2.39-2.34.62-.41.08-.36 5-4.38 0 2.72-3.29 10.16-.46 13.54 1.82-3 .49-9.15 2.44-14.44 2.89 6.32 13 13.59 1.5-.82.2698622-.2610877.6837811-.3024796 1-.1.3237401-.0982233.6622123-.1388399 1-.12.05.09.06.1.08-.02zm-15.14-2.52c-2.835333-.2124757-5.6369588-.7493142-8.35-1.6-2.6570158-.793663-5.188668-1.9584924-7.52-3.46-.56-.2-1.11-.9-1.64-1.16-.5472996-.371913-1.0534812-.800994-1.51-1.28-7.54-6.37-7.81-19.47-.42-27.92 2.611799-3.0052562 5.8559369-5.3956736 9.5-7 3.1084268-1.3437967 6.3850875-2.2588395 9.74-2.72 4.758968-.6087195 9.5875362-.385394 14.27.66 2.0050231.4082822 3.9822851.9426774 5.92 1.6 7.16 2.26 14.47 6.47 21.63 11.74 5.3 3.86 10 8.64 16.31 13 .19.21 1.47 1 2.91 2-.56.41-1 .51-2.72 1.39-9.3028756 4.845459-19.0641501 8.7546585-29.14 11.67-.92.18-1.93.44-3.88 1-.35-.07-.69.27-1 .24s-.33.07-2.06.4c-.3242833.1117394-.6594844.1888356-1 .23-1 .19-2.08.18-4.15.68-.69-.07-1.39.26-2.08.26-.6836987.1664382-1.3866309.2404311-2.09.22-.6740466.2366262-1.3991644.2884203-2.1.15-.7.05-1.4.49-2.1.1-2.28-.02-4.87.07-8.52-.2zm133.45-3.06c1.1-5.29 9.94-4.25.38.31.04-.07-.31.13-.38-.31zm-19.1 6c-1.26.53-3.31-1.51-5.13-1.51h-.11c.13-.18.1-.15.69-.94 1.84-1.84 4.95-8.07 7-8.36 1.19.94 1.61 8.11-2.45 10.79zm34.55-4.82-.11.2z"/><path d="m128.34 46.27c-5.92-3 2.22 7.84 4.85-1.71-3.76-10-14.93.91-8.81 10 4.56 6.2-1.75 16.56-8.21 12.53-4.92-4.4.84-11.81 5.94-9.22 0-.32 1.29-.31-.06-2-.47572-.3706206-1.035648-.6179507-1.63-.72-16.49 1.8-4.37 25.19 6.61 9.52 4.38-6.87-5.13-12.86-1.3-20.35 4.39-4.63 7.61 2.25 2.61 1.95z"/><path d="m141.88 45.74c3.06-2.06 0-4.46-1.73-.91.06.44.4 1.63 1.73.91z"/><path d="m192.48 27.37c-.73-2.78-7.36-10.93-9.86-7.76 3.76 1.18 9.38 10.65 9.86 7.76z"/><path d="m189.29 29.58c-.95-1.61-3.6-8.5-6.73-6.83.8.85 6.07 9.88 6.73 6.83z"/><path d="m9.77 52.23c-3.18-2.29-4.72-7.43-6.26-11.23-4.45.46 6.43000606 17.09 6.26 11.23z"/><path d="m7.94 56.09c-3.31226122-2.1193844-5.61372398-5.5011256-6.37-9.36-5.91-2.33 6.83 16.09 6.37 9.36z"/></g></svg>