<svg height="200" viewBox="0 0 167 200" width="167" xmlns="http://www.w3.org/2000/svg"><g fill="none"><path d="m165.779412 60.3823529c2.058823 7.2647059-7.352941 10.1544118-12.669118 10.8308824-2.220588-5.7352941 10.639706-15.4926471 12.669118-10.8308824z" fill="#93a01d"/><path d="m153.727941 173.279412c-6.125-3.860294 2.764706-7.455883 2.514706-1.308824.463235-2.161764 2.352941-4.05147 4.080882-2.698529 1.897059 1.227941.955883 3.014706-1.529411 4.022059 6.514706-1.066177 4.073529 5.058823.147058 2.705882 3.169118 4.845588-3.830882 6.617647-3.42647.794118-3.154412 4.463235-7.492647-.654412-1.786765-3.514706z" fill="#f6ffa4"/><path d="m3.27205882 192.102941c-6.13235294-3.860294 2.75735294-7.463235 2.51470589-1.308823.45588235-2.161765 2.34558823-4.051471 4.08088235-2.69853 1.89705884 1.227941.94852944 3.007353-1.52941177 4.022059 6.51470591-1.066176 4.07352941 5.051471.14705883 2.698529 3.16911768 4.852942-3.83088236 6.617648-3.43382353.801471-3.14705883 4.463235-7.49264706-.654412-1.77941177-3.514706z" fill="#f6ffa4"/><path d="m154.213235 57.9338235c-4.735294-3.0147059 2.110294-5.7647059 1.955883-1.0220588.360294-1.6838235 1.830882-3.1617647 3.183823-2.1029412 1.470588.9558824.735294 2.3455883-1.191176 3.132353 4.852941-.8382353 3.316176 3.875.110294 2.1102941 2.441176 3.75-2.941177 5.1470588-2.669118.617647-2.264706 3.3676471-5.889706-.375-1.389706-2.7352941z" fill="#f6ffa4"/><path d="m1.42647059 116.176471c-3.00735294-1.779412 1.25735294-3.941177 1.30147059-.676471.24264706-1.125 1.22794117-2.110294 2.125-1.404412.89705882.705883.5 1.566177-.79411765 2.088236 2.94117647-.588236 2.41911765 2.5.07352941 1.404411 1.55147059 2.205883-1.86029412 3.566177-1.77941176.419118-1.39705883 2.125-3.97794118-.051471-.92647059-1.830882z" fill="#f6ffa4"/><path d="m18.8308824 25.8161765c-3.007353-1.7794118 1.2573529-3.9411765 1.3014705-.6764706.2426471-1.125 1.2279412-2.1102941 2.125-1.4044118.8970589.7058824.5 1.5661765-.7941176 2.0882353 2.9411765-.5882353 2.4191176 2.5.0735294 1.4044118 1.5514706 2.2058823-1.8602941 3.5661764-1.7794118.4191176-1.375 2.1029412-3.9779411-.0735294-.9264705-1.8308823z" fill="#f6ffa4"/><g fill="#fff"><path d="m27.2720588 43.9852941c-.3382353-12.2279412-.4411764-21.7279412-.125-35.22794116-2.1470588.48529412-3.8529412 1.02941177-3.8529412 1.02941177l-.6911764-7.00735295c-.0882353-.41911764 11.4191176-2.43382352 12.0220588-2.11764705l.6029412 6.69117647s-1.7352941.18382353-3.9191177.54411764c-.3014706 12.04411768-.1691176 24.81617648-.0588235 36.76470588z"/><path d="m50.3455882.73529412c-.4264706 12.92647058-.3235294 31.46323528.0588236 43.31617648l-4.0367647-.6691177c-.2205883-3.9264705-.3161765-10.0294117-.3455883-16.6764705l-4.6397059.5441176c.0588236 5.8823529.1544118 11.5955882.2794118 17.4558824l-4.2867647-.7352942c-.3676471-13.7867647-.5220588-27.9411764-.0955882-41.91176467l4.1617647.73529412c-.2132353 5.56617647-.1985294 11.76470585-.1544118 17.76470585l4.7352941-.5441176c0-6.7720588.0588236-13.65441178.1544118-20.00000002z"/><path d="m59.2794118 2.05147059c-.382353 13.00000001-.4117647 30.27205881.125 43.32352941l-4.257353-.7352941c-.5220588-15.8161765-.5294117-27.5367647-.1323529-43.31617649z"/><path d="m70.5882353 17.4632353c1.6911765-20.91911765-9.7573529-2.5294118 1.25 6.3308823 1.1575406 1.5075851 2.034264 3.2112181 2.5882353 5.0294118 3.1323529 19.9926471-10.1102941 23.1029412-12.9044118 4.1029412l3.0588236-2.8382353c1.7058823 11.5588235 8.0882352 10.8897059 5.4411764 1.1764706-3.492647-6.75-8.8235294-9.5588235-7.1985294-21.55882355 4.9191177-20.37499995 15.8088235-1.6617647 11.6691177 10.23529415z"/><path d="m91.0294118 2.05147059c-.382353 13.00000001-.4117647 30.27205881.125 43.32352941l-4.257353-.7352941c-.5220588-15.8161765-.5220588-27.5367647-.125-43.31617649z"/><path d="m102.330882 17.4632353c1.69853-20.91911765-9.7426467-2.5294118 1.264706 6.3308823 1.151425 1.5114545 2.027561 3.2139459 2.588236 5.0294118 3.125 19.9926471-10.1102946 23.1029412-12.9117652 4.1029412l3.0514706-2.8382353c1.6985294 11.5588235 8.0882356 10.8897059 5.4338236 1.1764706-3.4926471-6.75-8.8235295-9.5588235-7.1985295-21.55882355 4.9191177-20.37499995 15.8088235-1.6617647 11.6691175 10.23529415z"/><path d="m130.926471 12.3235294c-1.132353 8.6397059-2.014706 17.1029412-3.816177 28.3970588l-2.845588-.4852941c-1.389706-10.5073529-1.985294-17.9411765-3.279412-28.5735294l-.257353-.0588235c.161765 11.0294117.316177 21.1470588.669118 33.3455882l-4.169118-.7352941c-.213235-14.7058824-.558823-26.1102941.286765-40.72058824l5.904412.91911765c.941176 6.52205879 1.610294 13.23529409 2.330882 21.32352939 1.294118-8.0294117 2.272059-15.76470586 3.125-23.92647057l5.963235 1.02941176c.213236 13.23529411.485294 28.94852941 0 42.59558821l-4.323529-.7867647c.536765-10.2058823.566176-21.6911764.698529-32.2647059z"/><path d="m141.316176 44.2867647c-.264705-4.6102941-.308823-11.4044118-.286764-16.6176471-2.272059-9.1838235-4.257353-18.78676466-4.57353-24.10294113l3.941177.73529412c.602337 5.45146936 1.572689 10.85595901 2.904412 16.17647061 1.735294-7.3088236 3.093137-13.88970591 4.073529-19.74264708l3.676471.6617647c-1.514706 8.27941177-3.316177 16.67647058-5.617647 25.91911768-.066177 5.5073529-.125 11.7647059.058823 17.8235294z"/><path d="m50 62.1029412c-.6691176 16.8529412-.5073529 40.3676468.1029412 55.5147058l-6.375-.852941c-.3529412-5.029412-.5-12.852941-.5514706-21.3676472l-7.3529412.6985294c.1029412 7.5073528.25 14.8676468.4485294 22.3749998l-6.7720588-.92647c-.5808824-17.7500004-.8161765-35.8750004-.1470588-53.7352945l6.617647.8970589c-.3529411 7.25-.3088235 15.1691176-.25 22.7941176l7.4705883-.7352941c0-8.6691177.1029411-17.5.25-25.625z"/><path d="m68.9485294 105.882353-7.4264706.463235-1.8897059 14.522059-6.9779411-.926471 8.9191176-56.1323525 9.2132353 1.2352941 6.5294118 52.5000004-7.2205883-.933824zm-6.3823529-7.8235295 5.5808823-.3088235-2.4411764-23.7720588z"/><path d="m81.6176471 118.705882c-.4044118-18.529411-.1470589-35.0514702.3014705-53.8161761 23.9558824-12.4558824 26.2279414 30.7279412 6.3235295 37.0147061 0 5.573529.0514705 11.691176.1544117 17.808823zm6.617647-25.6323526c9.2720588-3.8308823 8.5882353-24.1911765.3014706-21.1397059-.1102941 7.2058824-.2132353 14.0955883-.2647059 21.1397059z"/><path d="m104.808824 118.705882c-.397059-18.529411-.147059-35.0514702.30147-53.8161761 23.955882-12.4558824 26.227941 30.7279412 6.330882 37.0147061 0 5.573529.044118 11.691176.147059 17.808823zm6.617647-25.6323526c9.264705-3.8308823 8.588235-24.1911765.294117-21.1397059-.132353 7.2058824-.235294 14.0955883-.279412 21.1397059z"/><path d="m133.007353 117.926471c-.419118-6.044118-.485294-14.558824-.448529-21.3235298-3.588236-11.7647059-6.727942-24.0735294-7.220589-30.882353l6.227941.9264706c.845589 6.6617647 2.205883 12.5 4.580883 20.75 2.735294-9.367647 4.877451-17.8063725 6.42647-25.3161764l5.779412.8529411c-2.397059 10.6102941-5.235294 21.3676471-8.867647 33.2132353-.110294 7.3014702-.183823 15.1250002.095588 22.8455882z"/><path d="m44.7573529 149.051471c-3.2396327-.006133-6.4772192.163233-9.6985294.507353-.1397059 3.602941-.1911764 10.294117-.2794117 13.897058 2.7237349-.652328 5.5088456-1.014639 8.3088235-1.080882l.9264706 7.926471c-3.1125839.131859-6.2127443.473318-9.2794118 1.022058 0 6.264706.0441177 13.397059.1838235 19.808824l-6.242647-1.095588c-.2058824-15.183824-.0735294-33.044118.6470588-47.970589 5.0552461-1.230979 10.2382342-1.860342 15.4411765-1.875z"/><path d="m58.375 179.014706-6.875.433823-1.7573529 13.544118-6.4632353-.867647 8.2647058-52.205882 8.5441177 1.154411 6.0441176 48.838236-6.6911764-.867647zm-5.8823529-7.272059 5.1470588-.286765-2.2647059-22.117647z"/><path d="m89.6397059 152.147059c-1.6617647 10.294117-2.9411765 20.389706-5.5882353 33.860294l-4.1985294-.580882c-2.0367647-12.5-2.9411765-21.389706-4.8014706-34.066177l-.375-.073529c.2352941 13.183823.4632353 25.205882.9705882 39.757353l-6.0955882-.860294c-.3161765-17.588236-.8161765-31.132353.4191176-48.529412l8.6764706 1.080882c1.3897059 7.779412 2.3602941 15.772059 3.4191177 25.426471 1.8970588-9.558824 3.3235294-18.801471 4.5735294-28.522059l8.7279412 1.220588c.3014705 15.75.7352941 34.558824-.0441177 50.786765l-6.3529412-.963235c.7867647-12.169118.8308824-25.852942 1.0147059-38.463236z"/><path d="m107.742647 139.904412c-.558823 15.580882-.602941 36.095588.183824 51.647059l-6.235295-.867647c-.735294-18.911765-.735294-32.838236-.183823-51.639706z"/><path d="m114.257353 189.316176c-.661765-16.397058-.897059-33.132352-.095588-49.625l6.139706.860295c-.735295 13.536764-.911765 26.691176-.455883 40.338235 2.580883-.57353 5.536765-1.007353 8.169118-1.470588l.92647 8.360294c-2.860294.5-5.683823 1.147059-9.794117 2.154412z"/><path d="m133.375 190.257353c-.389706-5.588235-.448529-13.566177-.419118-19.808824-3.323529-10.948529-6.235294-22.404411-6.691176-28.742647l5.772059.867647c.779411 6.191177 2.029411 11.595589 4.242647 19.301471 2.544117-8.715686 4.531863-16.558824 5.963235-23.529412l5.352941.786765c-2.205882 9.867647-4.845588 19.852941-8.220588 30.882353-.102941 6.757353-.169118 14.05147.095588 21.25z"/></g></g></svg>