<svg height="77" viewBox="0 0 161 77" width="161" xmlns="http://www.w3.org/2000/svg"><g fill="none"><g fill="#ffcf4f"><path d="m34.06 19.9-6.37.38.06 17.43-7.75.79v-17.91l-6.19.41-.52-6.91 20.18-1z"/><path d="m46.06 30.22c-.05-1.8-.83-3-2-3-2.12 0-3.29 1.84-3.32 5.12v5.43h-6l-.26-24.83 5.52-.09.34 10.87c.59-1.81 2.93-3.28 5.21-3.3 3.47 0 6 3.35 6.07 8l.09 9.23-5.34.05z"/><path d="m68.88 31.82c-.67 3.29-4.22 5.86-8.08 5.9-4.8576131-.0395964-8.8236123-3.8954289-9-8.75-.05-4.76 4.09-8.66 9.23-8.71 4.86-.05 7.89 3.42 7.94 9.08l-11.4.76c.4359083 1.5301095 1.8390505 2.5814435 3.43 2.57 1.2979926.002785 2.5003659-.6821112 3.16-1.8zm-6-5.41c-.2875067-1.2125343-1.4180977-2.0328504-2.66-1.93-1.57 0-2.69.93-2.61 2.15z"/><path d="m92.91 29.87.09 7.36-15.12.16-.25-24.6 7.17-.08.2 17.29z"/><path d="m111.41 37-5.62.06-.12-2.15c-1.112626 1.5107875-2.89442 2.3811396-4.77 2.33-4.31 0-7.82-3.81-7.87-8.66-.1061048-2.2674985.7155328-4.4804709 2.2757047-6.1293104 1.5601718-1.6488394 3.7243974-2.5914225 5.9942953-2.6106896 2 0 3.41.64 4.07 1.92v-1.77l5.09-.05zm-9.51-5.24c1.68 0 3.14-1.83 3.12-3.86-.004938-.7885979-.328639-1.5416688-.897459-2.087887-.568821-.5462183-1.334391-.8391358-2.122541-.812113-1.885745.0301215-3.4207749 1.5256791-3.5 3.41.0979668 1.8222459 1.575938 3.2654416 3.4 3.32z"/><path d="m111.68 19.93 5.7-.06v2.51c.652418-1.6912607 2.277265-2.8075983 4.09-2.81 1.661196.0426481 3.219384.8144269 4.26 2.11l-2.16 5c-.633704-.8162708-1.616891-1.2837484-2.65-1.26-2.32 0-3.45 2.28-3.41 6.85v4.86h-5.69z"/><path d="m142.46 19.54c.24 5 .68 10 .73 15.21.08 7.33-2.62 11-8.05 11-5.79.06-10.69-4-10.74-8.9-.014757-.2464459-.014757-.4935541 0-.74l5.6 1.28c.09 1.9 1.71 3.14 4 3.11 2.41 0 3.59-1.45 3.56-4.25-.023407-.9492404-.140644-1.8938384-.35-2.82-1.201623 1.4530911-3.016429 2.2567907-4.9 2.17-2.074527.0987952-4.09853-.6590793-5.597972-2.0961231-1.499441-1.4370439-2.34261-3.4270262-2.332126-5.5038769 0-4.47 3.770098-8.53 8.080098-8.58 1.91546.029965 3.758136.7386865 5.2 2v-1.83zm-6.46 7.79c-.005258-.820372-.337587-1.604747-.923294-2.1791904s-1.376387-.8914808-2.196706-.8808096c-.834399.0158159-1.624501.3784848-2.180475 1.0008718-.555973.622387-.827566 1.4482359-.749525 2.2791282-.051835.8059182.223443 1.5986983.763584 2.199064.540141.6003656 1.299521.957606 2.106416.990936.874524-.0286556 1.701608-.4044962 2.298364-1.044414.596756-.6399177.91402-1.4911926.881636-2.365586z"/><path d="m160.13 30.87c-.67 3.29-4.21 5.87-8.07 5.91-4.855521-.0446863-8.818583-3.8976637-9-8.75-.05-4.76 4.09-8.67 9.24-8.72 4.85 0 7.88 3.42 7.94 9.08l-11.41.77c.441556 1.5134176 1.823529 2.5580267 3.4 2.57 1.300398-.0077832 2.502334-.6940619 3.17-1.81zm-6-5.4c-.278992-1.2150253-1.407466-2.0411534-2.65-1.94-1.58 0-2.7.93-2.62 2.15z"/><path d="m42.17 68.85-.24-23.44 16.13-.78.07 6.3-10.23.07.22 2.54 7-.07 1.06 5.84-7.46.08.1 9.35z"/><path d="m75.16 68.48-5.63.06-.11-2.16c-1.1149431 1.5091878-2.8941046 2.381984-4.77 2.34-4.31 0-7.83-3.81-7.88-8.67-.1033015-2.2684618.7206416-4.4813471 2.2823809-6.1298497 1.5617392-1.6485026 3.7268891-2.5907709 5.9976191-2.6101503 2 0 3.41.64 4.07 1.92v-1.77l5.08-.05zm-9.51-5.24c1.67 0 3.13-1.84 3.11-3.86.0058163-.7910937-.3107051-1.550459-.8766719-2.1032199s-1.3325922-.851269-2.1233281-.8267801c-1.8857451.0301215-3.4207749 1.5256791-3.5 3.41.0720296 1.8399072 1.549888 3.3134062 3.39 3.38z"/><path d="m94.43 50.94c1.456513-.0163457 2.8578581.556414 3.8859485 1.5882703s1.5957225 2.4352862 1.5740515 3.8917297l.16 11.83h-5.6l-.22-9.17c0-1.67-1-3.07-2.19-3.06s-1.66 1.27-1.63 3.59c0 1.31.24 5 .34 8.58l-6 .13-.13-9.17c0-1.86-.64-2.85-1.8-2.84s-2.21.76-2.2 1.57l.11 10.54-5.37.06-.18-17 4.82-.16v2.12c1.3607933-1.4628718 3.2527671-2.3169628 5.25-2.37 1.8385125-.0712999 3.5572413.9102765 4.43 2.53.9863161-1.6798813 2.8023185-2.6968427 4.75-2.66z"/><path d="m100.62 51.94 6.07-.06.17 16.17-5.59.06zm3.13-8.11c.893249-.0964125 1.782689.2125889 2.423764.8420433.641075.6294543.966294 1.5130932.886236 2.4079567.079797.9525419-.229009 1.8968699-.85619 2.6182216-.62718.7213518-1.519422 1.1584103-2.47381 1.2117784-.930957-.0075311-1.819354-.390989-2.463387-1.0632684-.644032-.6722793-.989026-1.5763088-.956613-2.5067316-.067151-.9375485.27115-1.8588533.929068-2.5301587.657917-.6713053 1.572221-1.0280942 2.510932-.9798413z"/><path d="m118.34 67.42c-1.256863.5743048-2.618386.8840514-4 .91-3.92 0-6.59-2.31-6.62-5.79l-.1-17.54 5.57-1.86.42 18.11c-.007653.463057.18203.907509.521673 1.2223468s.797178.4703349 1.258327.4276532c.540984-.0177564 1.065328-.1913801 1.51-.5z"/><path d="m128.09 68.15c-1.46 5.55-4.45 8.7-8.27 8.74-1.852263-.0530815-3.669508-.5176404-5.32-1.36l1.16-5.53c1.051066.6101049 2.235586.9534441 3.45 1 .580708.0053196 1.135053-.2420316 1.51896-.6777664s.559463-1.0168212.48104-1.5922336c.020736-.2128295.020736-.4271705 0-.64l-6.51-16.84 6.56-.3 3.1 11 2-11 6.46-.45z"/></g><path d="m9.57 12.24-7.35-6.8-2.22 6.9z" fill="#fff"/><path d="m12.65 9.4-5.61-8.06 5.75-1.34z" fill="#fff"/><path d="m8.89 17.08-5.75 3.46 5.58 2.11z" fill="#fff"/><path d="m134.44 62.79 5.83-5.15 1.41 6.08z" fill="#fff"/><path d="m101.83 15.06-5.23-7.72 4.66-1.08z" fill="#fff"/><path d="m92.85 14.6-3.51 3.37 6.6 1.02z" fill="#fff"/><path d="m133.11 68.14 6.65 7.47 3.45-5.31z" fill="#fff"/></g></svg>