<svg height="53" viewBox="0 0 235 53" width="235" xmlns="http://www.w3.org/2000/svg"><g fill="#fff"><path d="m55.25 33.63c3.06-1.63 4.58-3.14 5.69-5.63 2.39-4.55-1.65-8-5-7.25-5 1.54-6.68 6.87-5.86 11.39-6.9 11.67-5.94-1-4.52-5.64-.91-11.43-8.24 3.35-8.94 5.53l-.42-.16c1.62-6 6.73-26.1-1.51-24.39-2.58 0-4.12 2.47-4.92 6.12-.3579198-.1980301-.7287572-.3717557-1.11-.52-7.11 1.12-31.84 6.68-28.32 16.01 3.08 4.67 6.28-1.31 5.29-3.22 1.54-3.08 5.25-3.92 7.26-5 .79 4.79-2.61 37.66 5.1 28.74.88-10.17-.89-20.51-1.62-29.9 2.5-.48 9.7-1.67 13-3.26-1.2 11.17 2.5 28.67 5.33 27.7 3.06-4.1 2.67-10.72 5.84-14.15h.39c-3.6 14.43 6.27 13.37 10.94 6.4 1.4027971 2.1203697 3.9688595 3.1547514 6.45 2.6 5.15-1.24 7.75-4.8 10.11-8.11l-2.8-1.95c-2.92 3.9-8.08 7.81-10.38 4.69zm-19.81-13.33c-.64 4.24-1.33 8.09-1.74 10.55-.19-1.4-.33-2.84-.42-4.33-.3930546-2.8420324-.5402668-5.712669-.44-8.58 2.16-12.87 3.83-3.83 2.6 2.36zm21.56 3.88c3.9 1.74-1.24 6.49-2.71 6.55-.53-2.99.46-6.28 2.71-6.55z"/><path d="m132.86 15.76c11-18-5.42-16.92-7.67-.95-10.72-.93-4.22 2.77-.7 3-.562352 3.1068502-.796971 6.2641555-.7 9.42-2.3 1.43-4.05 1.85-5.6 2.87.59-3.63-.54-6.2-.72-8.41 6.24-6.24-1.37-6.41-2.92-3.64-2.5 3.07-4.31 5.76-6.42 7.88l-.12-.11c-3.47 3.46-9.15 6.57-11 3.16 3.27-1.16 5-2.44 6.45-4.74 3-4.16-.45-8.2-3.89-7.91-4.88.76-7.33 5.3-7.46 9.67-1.4163788 1.494965-3.0156676 2.8053067-4.76 3.9 4.2-7.56-2.66-17.24-7.33-9l-.31-.18c16-22.41-5.32-30.95-5.31-3.41 0 1.5-.07 2.86-.07 4.09-.2758468 4.1944417-.3159099 8.4010654-.12 12.6.69.42 1.42.83 2.16 1.22.9325274.33458 1.897936.5692279 2.88.7.27 0 2.59-.16 3.6-.26 1.1556742-.4854005 2.2053472-1.1919765 3.09-2.08 2.4934034-.7217639 4.8046145-1.966 6.78-3.65 1 2.84 3.18 4.94 6.59 4.74 2.833069-.265965 5.516734-1.3931742 7.69-3.23 2.35 6.9 13.8 1.73 17.4-.48 1.48 4.79 5.63 5.8 13.72.76l.3-4.74c-12.27 9.52-11.17 1-10.1-5.62 1.09-1.19 1.79-2 2.28-2.6.21 0 7.16.46 7.12.44 4.76-3.48-3.79-3.35-4.86-3.44zm-50.76-10.76c0 6.21-3 10.46-4.58 14.46.24-4.71 2.48-20.46 4.58-14.46zm-4 27.26c.07-3.36.09-3.69.11-5.13-.44-2.06 2.3-5.35 3.67-5.11 6.53 1.24 1.05 13.05-3.81 10.27zm22.08-12.44c3.6 2.29-2.17 6.24-3.64 6.08-.1-3 1.35-6.11 3.61-6.05zm8.46 10.18c.64-.61 1.25-1.24 1.85-1.86l-.06-.06 3.38-3.46c1.58 7.89-2.46 8.32-5.17 5.38zm21.18-14.67-1.13-.17c.57-3.05 4.25-12.31 5-7.25-.69 3.09-2.84 5.72-3.87 7.41z"/><path d="m174.13 19.37c4.91-6.08-5.4-6.6-5.54-2.79-.52 3.73 3.96 3.88 5.54 2.79z"/><path d="m230.11 41c1.72-7-7-.87-7.68.76l-.2-.07c2.31-4.13 1.94-7.78-1.36-5.32-1.868731 2.5112542-3.502291 5.1892225-4.88 8-4.31 1.84-9.82 2.55-10.39-1 8.8.88 14.61-9.95 5.29-11.39-5 .15-8.5 4.31-9.47 8.59-11.15 4.93-8.67-2.61-6.5-8.54 1.29-1 2.13-1.65 2.72-2.13.21 0 7 1.79 6.91 1.77 5.33-2.53-3.09-4-4.13-4.3 14.18-15.64-2.14-17.63-7.35-2.36-10.36-2.93-4.66 1.92-1.24 2.78-1.140164 2.9761446-1.967943 6.0627236-2.47 9.21-2.52.94-4.31 1-6 1.71 1.29-3.45.68-6.18.94-8.39 7.33-4.9-.1-6.56-2.16-4.14-3.88 3.22-6.54 6.06-9.93 7.71-.972849.2968944-1.775308.9904221-2.21 1.91-11.06 5 9.6-20-3.29-12.51-.186667.42-.636667 1.32-1.35 2.7-.81 1.69-1.35 2.79-1.6 3.28-.482105.9727666-.902925 1.9747207-1.26 3-1.78.66-3.2.93-4.53 1.59 1-3.53.22-6.22.31-8.44 7-5.42-.58-6.53-2.45-4-3.63 3.5-6.08 6.53-9.33 8.42-3.56 1.84-2 4.11.13 3.69 1 6.39 10 4.62 15.1 2.85.27 4.59 5.88 3.76 10.42 1.5 1 7.2 13.22 4.36 17.17 2.9.54 4.71 4.11 6.46 12 3.71.398416 2.4316982 2.20118 4.3954932 4.59 5 2.78213.6636265 5.701154.4541272 8.36-.6-1 10.53 8.2-3.93 10-5.75l.28.1c-2.43 8.31 4.21 8.57 8.19 7.25l1.68-4c-8.8 2.99-6.67-2.31-4.31-5.49zm-18.65-5.2c2.67 3.33-4.07 5.22-5.4 4.6.94-2.95 3.27-5.4 5.4-4.65zm-8.77-15.94c-1.21 2.89-3.84 5.1-5.17 6.56l-1.07-.42c1.12-2.89 6.47-11.29 6.24-6.19zm-54.27 12.69 5.82-4.65c.54 8.46-3.57 7.74-5.82 4.65zm25.58 4.17 6.15-4.22c-.15 8.5-4.15 7.5-6.15 4.22z"/></g></svg>