<svg height="148" viewBox="0 0 114 148" width="114" xmlns="http://www.w3.org/2000/svg"><g fill="#fff"><path d="m14.0266667 38.3333333c-1.0672528.2443082-2.1013177.6158553-3.08 1.1066667 4.04-8.7733333 16.2133333-39.28 10.64-39.44-2.8266667.49333333-1.72 1.73333333-3 5.17333333-3.5233559 13.81243057-8.3494307 27.25936597-14.41333337 40.15999997-.98666666 2.2133334-5.2 6.4266667-3.93333333 10.0666667 10.64 16.4266667 37.84-18.0666667 13.7866667-17.0666667zm5.12 9.4266667c-1.8133334 4.0933333-10.8266667 10.9066667-14.80000003 6.56 1.10759825-1.8720273 2.00206152-3.862208 2.66666666-5.9333333 1.54666667-4.6533334 15.15999997-10.4666667 12.13333337-.6266667z"/><path d="m37.52 51.1333333c.1812822.098376.373789.1744833.5733333.2266667-8.9733333 18.9066667 21.4666667 12.68 9.2266667-1.12-.5866667-1.7066667-1.76-3.36-5.4133333-2-.5736069.0305817-1.0961972.3391588-1.4.8266667-1.7466667-3.7466667-8.84-3.0933334-12.3066667-.64.64-1.8933334.4666667-8.7733334-3.4533333-5.3333334-1.12 3.1466667-.1466667 7.04-1.68 10.9066667-3.0666667 3.1866667.9333333 10.5466667 3.6 1.84 2.1333333-3.84 6.6666666-7.1333333 10.8533333-4.7066667zm5.3333333 8.3733334c-3.4-.1866667-3.2133333-5.3333334 0-7.2266667h.1466667c.3535244.835745 1.1864912 1.3662971 2.0933333 1.3333333.9656094.963154 1.2739069 2.4043971.7868276 3.6782968-.4870793 1.2738998-1.6782858 2.1418032-3.0401609 2.2150366z"/><path d="m90.1733333 72.36c-2.04-1.7333333-5.4266666-3.5866667-4.08-8 21.8533337-3.68-.4266666-17.08-4 0-1.4666666-4.3866667-4.5866666-10.0666667-9.9466666-7.1466667.68-3.44 1.4933333-6.84 2.3466666-10.2266666 22.84-1.6533334 2.0533334-32.9066667-3.4666666-3.6266667-1.46644-.1394109-2.9226519-.3709798-4.36-.6933333 5.24-17.48-2.1066667-17.1333334-3.88-.9866667-15.7866667-6.8666667-14.7866667 1.2266667-.8133334 3.6533333-9.3333333 31.2533334.8533334 21.3333334 3.9066667.84 1.44.2666667 2.8933333.48 4.3333333.6266667-.88 5.8666667-3.5466666 13.2-3.6533333 20.2-.006238.0263019-.006238.0536981 0 .08 5.0533333 9.2 5.72-21.0133333 13.48 3.16.4266667.7866667 1.4266667 1.3333333 2.9333333.4133333.8933334 3.0666667 10.1466667 8.9466667 7.2 1.7066667zm-10.6666666-30.6666667c-1.220828.8617634-2.6365035 1.4069588-4.12 1.5866667.4266666-8.9733333 7.9066666-10.1866667 4.0666666-1.5733333z"/><path d="m112.133333 64.88c-3.847885-.9563733-7.909101-.5365729-11.48 1.1866667-1.6266663-5.12-4.8799997-.7066667-5.1999997 3.92-6.28 7.1866666 1.6933334 13.88 3.4533334 2.12 2.0400003-5.12 19.5200003-1.56 13.2266663-7.2266667z"/><path d="m64.44 94.5733333c-.6133333 20.0799997-4.6266667 42.8799997-27.52 42.5866667 3.24-4.333333-2.2666667-9.853333-3.5466667-1.773333-1.5466666 3.213333-6.2933333 4.186666-2.1333333 7.906666 11.92 8.946667 19.48 3.253334 4-2.093333 38.0933333 3.72 36.1733333-60.36 29.2-46.6266667z"/></g></svg>