<svg height="200" viewBox="0 0 185 200" width="185" xmlns="http://www.w3.org/2000/svg"><g fill="none" fill-rule="evenodd"><path d="m59.5391705 19.6866359c30.4147466-40.5529953 87.7511525-9.0414746 73.9723505 34.2672812 0 0 29.907834-26.921659 48.40553 4.8940092s-70.700461 97.3548387-70.700461 97.3548387c-29.1889402-29.225806-79.6958527-95.9447005-51.6682029-136.5161291z" fill="#ffd000"/><g fill="#000" fill-rule="nonzero"><path d="m32.5898618 61.3548387c-2.2211982-2.7004608-4.6728111-1.3732719-4.9124424.6267281-1.843318 8.4884793-1.7235023 15.6682028-2.921659 23.7050691-5.0506913 1.2442397-11.1981567 3.9539171-15.13364058 5.7419355.21198156-10.3041474 3.52995388-22.1198156 2.60829488-31.640553-.9216589-2.3317972-3.03225802-2.3225806-3.97235018-.921659-2.94930876 10.5437788-2.04608295 24.0829494-2.39631337 34.3410139-2.00637183.8633973-3.84659685 2.0704601-5.43778802 3.5668202-.79262672.7557604-.24884792 1.3732719-.15668202 1.4562212 2.15668202.1290323 4.30414746-2.6820276 5.58525345-2.6082949 0 4.1843318.05529954 9.9447002.31336406 13.4746542 4.01843318 15.843318 2.67281106-11.0599076 3.23502304-14.7465436 24.50691244-12.1198157 11.25345624-6.9585253 15.55760364 14.8202766 1.1981567 4.193548 3.2350231.37788 2.764977-1.253456-.2857143-6.912443.921659-13.9447008 1.3640553-19.9447008.1382489-1.1059908.202765-1.6682027.202765-1.6682027 1.391705-.5529954 2.1290322-1.2534563 2.1935484-2.0921659l-1.9907834.4331797c.0737327-6.9400922 3.751152-17.0138249 3.0967742-23.2903226z"/><path d="m138.368664 89.4470046c-1.843318 3.2073733-4.857143 5.5299539-7.723503 7.5207373-.073732-5.640553.525346-12.110599 0-16.8294931-.571428-3.9907834-4.359447-1.3640553-5.013825.1013825-3.207373 18.3041475-11.502304 33.9447007-8.35023 4.3963134-.101382-10.5069124-6.35023.1843318-6.064516 4.6082949-1.24424 1.9723503-3.539171 2.8294931-5.705069 3.6221198.663594-8.4884792-1.529954-18.3778801-8.073733-15.4562212-3.8709677 3.3087558-5.1889401 9.2165899-6.0552995 12.9032259l-.921659 5.1152073c-.0737327-4.2304147.921659-11.4009216-.6359447-14.6175115-1.6589862-.156682-1.4101383.3133641-1.843318.6267281-.6683905 2.4035041-1.1794578 4.8480067-1.5299539 7.3179724-1.1520737 2.3502304-3.6866359 3.281106-6 4.1382488.6543779-8.4884792-1.5299539-18.3778802-8.0737327-15.4746544-3.8709678 3.3087558-5.1889401 9.2165899-6.0552996 12.9032258l-.9216589 5.1152074c-.0737328-4.2304147.9216589-11.4009216-.6359447-14.6175115-1.6589862-.156682-1.4101383.3133641-1.843318.6267281-.6712796 2.4770865-1.1792835 4.9955543-1.5207373 7.5391705-.1258698.0957721-.213976.2328262-.248848.3870968-1.1705069 3.4746544-2.4700461 8.7465438-3.8709677 11.2811061-3.0506913 6.294931-4.1935484.506912-4.1751152-2.1935485 0-6.3502304 1.843318-12.7926267 1.6682027-18.2764977-.3317972-2.7096774-3.6866359-.8110599-4.3778801-.3133641-12.9032258-11.0599078-22.1198157 25.8064513-7.1059908 25.0599083 3.5207373-.801844 4.8940092-5.8248852 5.640553-7.8341018 2.9493087 15.3548388 8.6543779 7.9907838 11.797235-.1658986-.256778 8.1653714.5518775 16.3293834 2.40553 24.2857144 3.6221198 7.705069 2.7649769-26.1658988 5.4009216-33.0230416 5.4562212-20.7926267 9.3364055-2.0921659 7.2350231 6.9124424-.2193839.1251824-.4289009.2669145-.6267282.4239631l-2.0921659 1.2534562c-7.0967741 4.1751149-.6543778 12.7465439 4.248848 6.1566819 1.4654378-1.391705 2.5069124-4.6082948 2.9953917-8.2949307 2.0829493-.921659 4.2580645-1.5115207 5.8156682-2.764977-.8608777 9.7968587-.157775 19.6682957 2.0829493 29.2442397 3.6221198 7.705069 2.7649769-26.1658987 5.4009216-33.0230415 5.4562212-20.7926267 9.336406-2.0921659 7.235023 6.9124424-.219384.1251824-.428901.2669145-.626728.4239631l-2.0921659 1.2534562c-7.0967742 4.1751148-.6451613 12.7465438 4.2488479 6.1566818 1.465438-1.391705 2.506912-4.6082947 2.995392-8.2949306 2.055299-.921659 4.211981-1.5023042 5.769585-2.6820277.037521 1.7029833.225659 3.3993066.562212 5.0691245 1.290323 7.3732718 7.889401 8.6728108 10.654378 1.7788018 1.339635-2.4091257 2.3914-4.9673905 3.13364-7.6221198-.248848 2.6082949.442397 7.0599078.313364 9.4009218-8.884792 6.847926-19.493087 12.092166-22.248847 24.082949-1.391706 12.184332 12.967741 11.456221 19.152073 2.525346 6.258065-8.046083 7.262673-18.801844 7.917051-27.2995394 3.18894-1.281106 14.138249-14.718894 7.760369-10.359447zm-89.5852539-.8294931c-.6267281 4.608295-1.7327189 9.9723503-4.0737327 12.9032255-5.5299539 4.396314-3.640553-16.8571425-1.3548387-18.4331794 1.4930876-2.1658986 3.4654378-2.2580645 4.8018433-1.2534562 2.7834102 2.0368663.4976959 4.4976958.6267281 6.7834101zm23.4930876 14.5069125c-2.1474654-2.442396 1.1705069-4.359447 3.1336405-5.640553-.4147465 2.562212-1.548387 5.861751-3.1336405 5.640553zm25.0599078 0c-2.1474654-2.442396 1.1705069-4.359447 3.1336405-5.640553-.414746 2.562212-1.548387 5.861751-3.1336405 5.640553zm24.6359445 18.37788c-8.580645 21.944701-31.9170505 5.990784.423963-16.396313 1.686636-1.21659 2.562212-1.695853 3.133641-2.08295-.138249 6.304148-1.898618 13.21659-3.557604 18.479263z"/><path d="m175.585253 154.976959c-1.898617 3.207373-4.866359 5.48387-7.732718 7.520737-.064517-5.631337.525345-12.110599 0-16.829493-.571429-3.990784-4.359447-1.364056-5.004609.110599-3.21659 18.276498-11.51152 33.9447-8.35023 4.387097-.110599-10.635945-6.516129.460829-6.064516 4.801843 0 .267281-.046083.516129-.073733.764977-1.667683 3.87174-3.104908 7.838728-4.304147 11.880184-1.566821 2.350231-3.410139 2.341014-4.608295.728111-2.0553-5.714286-2.829493-15.788019-1.668203-21.198157 17.62212-17.16129.43318-46.599078-5.225807-8.894009-.506487 5.653712-.608128 11.3364-.304147 17.004608l-2.718894 7.658986c-4.414747 11.474655-5.069125 2.138249-4.175115-3.336405.608295-4.884793 1.585253-10.414747 1.041474-14.202765-.921659-2.368664-3.963133-1.907834-4.488479-.525346-.785358 3.240724-1.178345 6.564099-1.170507 9.898618-.055843.067147-.085329.152329-.082949.239631-1.321635 3.753814-2.965232 7.386378-4.912443 10.857143-11.548387 10.691244 6.451613-26.949309-4.497695-23.917051-4.506913 1.447005-5.843318 6.78341-7.520738 9.705069.801844-4.267281 1.695853-8.967742-.921659-11.797235-4.285714-3.18894-6.958525 3.539171-7.8248845 5.852535-2.2591988 7.283476-3.8994326 14.74469-4.9032258 22.304147-1.1428571-6.119815 3.4193549-19.769585-.6267281-24.958525-2.562212-.193548-3.6221198 5.529954-3.6313364 11.843318-.0024488.03375-.0024488.067633 0 .101383-1.1612903 3.474654-2.4700461 8.746543-3.8617511 11.281106-3.0506913 6.29493-4.1935484.506912-4.1751153-2.193549 0-6.35023 1.843318-12.792627 1.6682028-18.276498-.3317972-2.709677-3.6866359-.811059-4.3870968-.313364-12.9032258-11.10599-22.1198156 25.806452-7.0967742 25.059908 3.5115208-.801843 4.8940093-5.815668 5.640553-7.834101 3.1889401 16.589862 9.5944701 6.645161 12.5069125-2.156682.6912442 7.373272 2.7649769 13.13364 5.2534562 7.373272 1.9723502-8.479263 2.764977-20.921659 8.2949309-27.152074 1.0322578.175115.3686638 1.437788.5161288 2.193548-.6359445 5.290323-1.456221 10.995392-1.3548385 15.456222 2.9861755 13.898617 6.0737325-15.069125 12.4239635-15.142858 1.649769 6.506913-6.331798 17.815669-2.092166 24.958526 4.331797 5.990783 9.032258-2.43318 11.631336-8.654378.165899 3.290322.414747 6.976958 1.511521 8.958525 1.317972 2.43318 4.239631 2.857143 5.751152 1.253456 2.37788-2.958525 3.686636-6.995391 4.801843-10.617511.774194 4.37788 2.294931 8.359447 5.115208 11.336405 4.70046 4.147466 8.691244-2.847926 10.75576-9.069124.064516.423963.138249.829493.202765 1.225806 1.290323 7.373272 7.889401 8.672812 10.654378 1.778802 1.343452-2.407285 2.395408-4.966013 3.13364-7.62212-.248848 2.608295.442397 7.059908.313364 9.400922-8.884792 6.847926-19.493087 12.092166-22.239631 24.082949-1.391705 12.184332 12.967742 11.456222 19.142857 2.525346 6.258065-8.046083 7.262673-18.792627 7.917051-27.290322 3.16129-1.483871 14.110599-14.921659 7.741935-10.562212zm-33.935483-32.995392c4.608295 3.990783.599078 18.820276-3.861752 22.764977.46083-7.207373-.534562-17.62212 3.861752-22.764977zm-68.2027654 32.165898c-.6175115 4.608295-1.7235023 9.972351-4.0737327 12.903226-5.5299539 4.396314-3.686636-16.857143-1.3548387-18.433179 1.4838709-2.165899 3.4654378-2.258065 4.8018433-1.253457 2.7557604 2.0553.5069124 4.497696.6359447 6.78341zm85.7142854 32.884793c-8.589861 21.944701-31.926267 5.990783.423963-16.387097 1.67742-1.225806 2.552996-1.705069 3.124424-2.092166-.110599 6.304148-1.870967 13.21659-3.520737 18.479263z"/><path d="m126.820276 138.792627c-.304147-3.843318-4.451612-2.857143-4.811059-.728111-.626729 4.147466 4.986175 3.502304 4.811059.728111z"/><path d="m57.8986175 143.179724c-19.1889401 4.119815-11.6589862 1.649769-12.1105991-15.870968 3.0506913-.230415 6.4516129-.691244 7.9354839-.829493l15.7695853-1.778802c2.313364-1.483871 1.9907834-2.903226 1.1428571-3.133641-5.7788018-.81106-12.2211982.921659-17.2258065 1.253456-2.6082949.285715-6.2211981.921659-8.0460829 1.041475-1.9078341-5.16129-6.9585253-3.834101-5.4285714.525346-3.5023042.72811-6.9124424.331797-9.9170507 1.62212-1.5299539 3.253456 3.6866359 3.078341 5.2258064 2.663594 2.3870968-.175115 2.9400922-.43318 4.6912443-.414746 0 6.027649.313364 12.285714.4239631 17.649769-2.4516129.350231-5.7142857.617512-7.2073733.829493-5.0599078 5.695853 5.9815669 1.97235 7.3087558 2.193549.6635945 8.801843.4884793 21.308755 3.0322581 29.235023 1.3640553 2.645161 2.5345622 2.064516 2.3963133-.414747-.8571428-10.470046-1.0414746-19.870968-1.0414746-29.548387 3.8525345-.737327 9.6866359-1.142857 12.8387096-2.193548 1.7050692-.645162 1.2350231-2.884793.2119816-2.829493z"/></g></g></svg>