<svg height="101" viewBox="0 0 200 101" width="200" xmlns="http://www.w3.org/2000/svg"><g fill="none"><path d="m198.700474 52.521327c-3.417062-5.0492891-12.856872-9.4104265-17.286256-4.9289099-1.499526 1.3962085-3.061611 6.2805687-4.000948 8.0473933-3.548815-7.699526-5.74218-10.507109-14.218009-8.5744076.816113-4.1943128.784834-11.3469194 1.286256-15.4919431 2.72417-4.4635071 9.12891-9.3905213 10.000947-13.7440758.947868-8.63886257-14.95545-14.61611376-17.691943-6.6701422-.081516.1781991-1.299526 3.0047393-1.366824 3.1279621-3.771564-10.13459716-13.85782-5.75639811-17.129858-3.0454976-7.969668-7.60568724-27.028436-5.5374408-28.709953-1.85781994-8.577251-5.25971564-24.7620851-3.44454977-26.2872035.06161137-1.3601896 1.68530807-.1251185 8.19241707-.2445498 10.12796207-2.3412322-6.4454976-2.4549763-9.2521327-5.8909953-10.93364927-3.392417-1.49383887-6.9582938-1.05687204-9.9696682-.11563981-6.1402844 2.24170618-5.3393365 6.35071088-6.9924171 11.10236968.0625593-17.63033177-15.1734597-10.40379148-17.0445497-8.6388626-5.2947868-4.44644547-16.1545024-5.74218007-17.6132702 2.6540285-.5611374 10.2369668.3838863 23.1184834 1.5251185 33.3260663-16.1800948-1.6938389-27.24454975-2.0748815-26.76398103 14.5706161-.31943128 7.4246446-.41895735 15.4417062-.13649289 22.8710901.27677725 3.1819905-.16599399 8.8654028 1.71563981 11.4255924 4.13270142 6.2843599 15.72796211 2.8881516 18.30521331-.6739337 1.9023696-2.1981042 1.3725118-12.5687203 1.5696682-12.6521327 12.6407583 1.6341233 9.5279621-13.656872 8.6170616-15.5004739 2.3507109-.1127962 3.7829384-1.0236967 4.6445498-1.971564-6.2559242 28.0568721-6.842654 25.5924171-5.5109005 28.7327014 4.6028436 6.7488148 17.8255924 7.9279618 20.3791469.8208531 3.3763033 7.6037917 12.3440759 4.6445498 16.9270142 1.6473934 3.6635072 7.8360193 19.6710901 2.1402844 21.0976304-1.8255924.8758294-1.3658768.4113744-8.2028436.5810426-9.6739337.4739337.0398105.7582939.1099526 1.5706161.0170616.0748816 1.2767773.0947868 8.1090048.2919432 9.2293839 1.9601895 10.1052129 18.0473936 4.8170616 20.8142176.2597157 3.823697 2.9061611 9.753555 2.4701421 13.661612 0 4.91564 7.5042652 15.031279 5.578199 23.072986 5.127962 21.327014-.7800947 11.260663-19.4597156 9.091943-20.4246445-2.947868-2.464455-9.099526.1469194-12.61801.0161137-1.090995-26.7298578 6.152607-30.1317535-13.877725-32.5668246l-1.18199-8.9412322c6.95545-.1099526 11.649289-3.3327015 13.294786-9.3611375 1.028436 1.2322275 2.612323 2.4454977 2.369669 3.9317536.803791 13.014218-1.678673 20.5127962 9.927962 20.3127962-5.771564 8.4957346 7.719431 15.4388626 10.502369 21.3488152.983887 19.9109004-.504265 22.0255924 5.557346 24.7981042 4.956398 1.8957351 12.606635.3184834 14.557346-3.9317535 1.800948-5.5033176 1.137441-15.1241706 2.012322-20.2464455 4.266351-7.6369669 16.235072-14.6009479 11.161138-21.7867299zm-162.0028437 5.8436019c-.0758294-2.0113744.0492891-3.7914692-.4274881-5.7459716.694854.0398861 1.3916422.0313346 2.085308-.0255924-.5715639 1.8436019-1.1222748 3.7772512-1.6578199 5.771564zm27.9194313-2.2085308c-.0417061 3.0331754-.0094787 6.6995261.0947867 10.9611374-1.6218009-5.2739336-3.5620853-11.1933649-5.3971564-15.9943128 1.8853081.8132702 4.3109005 1.4815166 6.4985782 1.3810427-1.0559241 1.421801-1.2236966 2.8227488-1.1962085 3.6521327zm23.507109-1.7943128c-.0955537-.6868385-.2869928-1.3568754-.5687204-1.9905213.2642625.149348.5389014.2795402.821801.3895734-.0872038.5592417-.1721959 1.092891-.2549763 1.6009479zm23.3450234-4.3450237c-1.059715-2.6995261-3.962085-4.2872038-7.341232-4.5895734l-1.05308-7.9734598c2.663507-.0786729 4.842654-.4625592 7.109004-1.5611374.246446 1.9554502.291943 13.1308057 1.297631 14.1175355-.00397.0024585-.008085.0046742-.012323.0066351z" fill="#233486"/><path d="m198.700474 46.4454976c-3.417062-5.0492891-12.855924-9.4123222-17.286256-4.9289099-1.498578 1.3971564-3.061611 6.2796208-4.000948 8.0464455-3.547867-7.6966825-5.745024-10.5080569-14.218009-8.5725119.816113-4.1933649.784834-11.349763 1.286256-15.4919431 2.72417-4.464455 9.12891-9.3924171 10.000947-13.749763.942181-8.63981046-14.95545-14.61611378-17.691943-6.67014221-.081516.17819905-1.299526 3.00473933-1.366824 3.12796208-3.776304-10.12606635-13.861612-5.75165877-17.134597-3.03317535-7.963982-7.61706162-27.022749-5.55260664-28.705214-1.87393365-8.654028-5.28246446-24.5175353-3.36018958-26.1668244-.12132702-1.5658768 1.7450237-.2322275 8.24644545-.3649289 10.31184835-2.3412322-6.44549764-2.4540284-9.25118484-5.8909953-10.9336493-3.392417-1.49004739-6.9582938-1.05308056-9.9696682-.11090047-6.1402844 2.24075829-5.3393365 6.3507109-6.9924171 11.10142177.0654029-17.58862556-15.1109004-10.44075826-17.0445497-8.6398104-5.2947868-4.44549763-16.1535545-5.74218009-17.6132702 2.65402844-.5611374 10.23696686.3838863 23.11753556 1.5251185 33.32606636-16.1810426-1.6909953-27.24360189-2.0767773-26.76398103 14.5706161-.31943128 7.4255924-.41895735 15.442654-.13649289 22.8720379.27677725 3.1810427-.16599399 8.8663507 1.71563981 11.4255924 4.13364929 6.2853081 15.72890991 2.8881517 18.30521331-.6748815 1.9023696-2.1990521 1.3725118-12.5649289 1.5696682-12.6511848 12.6398104 1.6369668 9.5279621-13.6568721 8.6170616-15.5023697 2.3507109-.1109005 3.7829384-1.0227488 4.6445498-1.9696682-6.2559242 28.0635071-6.842654 25.592417-5.5109005 28.7327014 4.6028436 6.7478673 17.8255924 7.9279621 20.3791469.8208531 3.3838863 7.6028436 12.3478673 4.6379147 16.9383886 1.6483412 3.664455 7.8341232 19.6710901 2.1393365 21.0976304-1.8274881.8758294-1.364929.4113744-8.2018958.5810426-9.6682465.4739337.0388626.7582939.1099526 1.5706161.0161138.0748816 1.2767772.0947868 8.1109004.2919432 9.2303317 1.9563981 10.0995261 18.0417062 4.8123223 20.8094782.2559242 3.825593 2.9042654 9.752607 2.4691943 13.661612 0 4.917535 7.5033175 15.031279 5.5791469 23.072986 5.1279621 21.327014-.7800948 11.261611-19.4587678 9.091943-20.4255925-2.94692-2.4644549-9.099526.1478673-12.61801.0170617-1.090995-26.7298579 6.152607-30.1327015-13.877725-32.5668247l-1.18199-8.9440758c6.945971-.0947867 11.645497-3.335545 13.288151-9.3582939 1.029384 1.2322275 2.612323 2.4454977 2.369669 3.9317536.803791 13.0208531-1.679621 20.5099526 9.927962 20.3146919-5.772512 8.4957346 7.721327 15.4369669 10.502369 21.3488152.984834 19.9052133-.505213 22.0236967 5.557346 24.7962085 4.956398 1.8957346 12.606635.3184835 14.557346-3.9308056 1.800948-5.5061612 1.137441-15.1232228 2.012322-20.2464455 4.266351-7.6407583 16.235072-14.6018958 11.161138-21.7848342zm-162.0028437 5.8407583c-.0758294-2.0123223.0492891-3.7914692-.4274881-5.7478673.6948417.0397755 1.3916004.0315411 2.085308-.0246445-.5715639 1.8436019-1.1222748 3.7772512-1.6578199 5.7725118zm27.9194313-2.2094786c-.0417061 3.0331753-.0094787 6.699526.0947867 10.9620853-1.6218009-5.2758294-3.5620853-11.1895735-5.3971564-15.9962086 1.8853081.8151659 4.3099526 1.4805687 6.4985782 1.3829384-1.0559241 1.4208531-1.2236966 2.821801-1.1962085 3.6511849zm23.507109-1.7952607c-.0954678-.6868566-.2869103-1.3569054-.5687204-1.9905213.2646557.1485887.5392403.2787552.821801.3895734-.0872038.5598736-.1721959 1.0935229-.2549763 1.6009479zm23.3450234-4.343128c-1.058767-2.7004739-3.963033-4.2890995-7.341232-4.5905213l-1.052133-7.9734597c2.663507-.0739337 4.843602-.4616114 7.109005-1.5582939.246446 1.9545024.291943 13.1298579 1.29763 14.1165877z" fill="#233486"/><path d="m34.464455 56.5876777c.6834123-4.8056872 1.8331753-11.4236967-3.8606635-13.0805687-32.41706164-6.478673-27.9080569 6.5184834-28.68625595 15.7563981-.3421801 11.2255924-.11658768 26.9042654.9535545 28.6616114 2.75545023 6.4691943 14.73459715 2.8104265 16.21706165-.3791469 1.056872-3.6824645.7488151-8.9251185.9109004-12.8909953 9.143128.8123223 9.7630332-2.3459716 9.4322275-10.0540284.1450237-5.7582939-6.0303317-5.943128-10.2322275-5.6672986.0274882-.0739337-.0644549-.0454976.1450237-.4473934 4.2758294-.7440758 13.3791469 3.0170616 15.1203792-1.8985782z" fill="#fff"/><path d="m157.676777 76.4701422c-2.166824-5.6255924-10.460663-1.0995261-14.898578-1.821801-1.092891-16.6350711 1.691943-27.8672985-.95545-29.1810426-3.55545-2.7620853-10.094787-3.6530806-13.105213-3.2976304.499526-.1194312-1.428436-12.0672985-1.401896-12.5838862 8.730805.5014218 13.504265-3.3175356 14.148815-11.2654029 1.724171 1.9450237 4.347867 3.9327015 5.230332 6.3734598.363981 6.3175355.236019 16.0436019 1.171564 17.0037914 1.706161 3.0047394 5.747867 3.1772512 8.815166 2.52891 5.272985-1.1109005 5.023696-4.2492891 5.272985-7.6056872.516588-5.8549763.379147-11.0663507 1.181043-12.3545024 3.810427-5.664455 11.317536-11.0227488 9.364929-15.10616113-1.677725-3.56587677-5.364929-5.13933649-7.843602-5.88341232-6.588626-1.81042654-6.721327 4.86445498-9.089099 8.85308055-.98673-1.4218009-3.000948-6.09763031-3.766825-6.73933647-3.639811-3.85402844-11.394313-.60758294-13.517536 2.28151658-6.462559-8.41327014-29.49763-7.014218-27.612322-1.37535545-6.729858-5.85687203-19.2218009-5.10900473-24.7573459-2.99336492-2.6454977 1.52322274-1.1042654 4.01611374-1.2436019 7.52511846.3507109 6.4454976.9165877 16.836019.9165877 16.842654-7.2985782-23.98104261-6.7620854-23.44644545-12.2085308-24.27109-3.7696683-.33554502-8.5308057 1.08625592-9.5990522 4.04549763-1.6777251 5.11090047-3.163981 11.72606637-4.4701422 17.52322277-1.3061611-18.09099528-.5886256-21.42843604-8.5981042-21.12985784-3.6966825.51184834-6.9848341 1.70616114-7.5943128 4.45971564-.5364929-2.41611375-2.4530806-3.02464455-3.8398104-3.76398104-9.0047394-3.57156398-12.8559242-.29099526-12.1327015 8.16018954-.0113744 5.1184834.2199052 10.9488152.5990522 16.4748815.578199 5.9260664.6 12.0729858 1.8729857 13.3516588 3.0568721 3.3099526 14.0208531 3.4682465 14.5023697-2.042654.2604722.7647945.6904616 1.4608137 1.2578199 2.0360189-2.6540284.7023697-4.856872 2.3848342-5.3810426 4.6388626-1.7895735 5.7886256-3.2606635 12.0331754-4.6398105 18.0805687-3.87109 18.1175356-5.4502369 19.8445498-4.2331753 21.735545 3.1706161 4.6113745 13.1393365 6.236019 16.07109 2.5592418 2.0521327-1.8957346 2.100474-7.9620854 2.6331754-10.3516588.2663507 1.0805687 1.0900474 7.3203791 1.7545024 8.8151659 2.9677725 6.6729857 12.4407582 2.6170616 16.2758293-.8151659.5981043 9.7061611 18.4170616 3.3241706 18.6663507-.107109.2483413.0796208.1838863-10.6037915.2511849-10.8293839 1.5165877.8701422 3.3620853.9924171 4.9952606.0255924.1450237 1.2691943-.0473933 11.5061611.6473934 12.4436019 2.4473934 6.7402844 18.6521324 1.6113744 18.0018954-3.9507109 3.090996 5.0530806 11.157346 4.5184834 14.997157.6976303 3.547867 8.5971564 14.028436 6.5175356 21.905213 6.12891 10.527962-.6066351 14.953555-4.2123223 10.35545-15.1156398zm-84.3535543-32.4018958c-8.1127962 2.464455-6.8540284 5.0872038-6.9658767 9.4966825.0075829 5.6710901.2843602 14.8530806.6113744 21.0303318-9.0900474-30.2161138-9.5194313-30.4417062-11.5639811-31.6587678.7187776-.2906654 1.412697-.6393686 2.0748816-1.042654 6.1488151 4.3535545 14.3649289 4.2909952 14.5810426-4.6303318.4255924 3.335545 1.1649289 5.5374408 2.7810427 6.4549763-.5118484.1042654-1.0170617.214218-1.5184835.349763zm15.7554503 8.4018958c-.2572358 1.088416-.6177974 2.1497873-1.0767773 3.1696682-2.614218-5.1895734.1298579-9.9165877-5.9270142-11.7838862 1.3364929-.4872038 3.1165877-1.4578199 4.2654029-2.3696683.1478673 2.2123223 1.9526066 3.678673 4.1706161 3.9563981-.7109005 2.1687204-.9232228 5.4758294-1.4322275 7.0274882zm21.652133-6.1725119c-.164929.100474-.313744.2123223-.466351.3222749-.032228-3.9137441-3.68436-5.5848341-7.688152-5.6199052l-1.509004-11.414218c3.818009.2246445 7.985782-.3791469 10.7109-2.9876777.906161 14.0947867.124171 16.7819905 2.912796 18.1725118-1.40072.2682196-2.742003.7854066-3.960189 1.5270142zm10.62654-1.042654c1.013263-.1609397 2.017464-.3744986 3.008531-.6398104-.366655.6247901-.585811 1.3250505-.640759 2.0473933-.703516-.599648-1.504288-1.0747256-2.367772-1.4047393z" fill="#fff"/><path d="m197.236967 47.4151659c-2.053081-2.9725119-6.01801-5.3478673-9.845498-5.9601896-6.514692-1.4379147-7.014218 7.943128-9.845497 11.6720379-1.611375-1.9137441-3.861612-7.7023697-5.168721-9.0540284-5.519431-5.5924171-20.790521 1.9791469-16.398104 9.3222749 5.917535 9.3336493 12.086256 10.3469194 11.295735 17.2890995.379146 6.5146919.254976 16.8834123 1.386729 17.7507109 2.626541 4.2654028 10.356398 3.2379147 13.264455 1.4218009 2.945024-1.642654 2.603792-5.0236966 2.86256-7.7459715.28436-3.9203792.55071-9.2710901.859715-12.6824645-.006635-6.6312796 16.548815-15.5478673 11.588626-22.0132701z" fill="#fff"/><path d="m31.6331754 6.03886256c2.7649289-.88530806 7.3109004.78578199 8.7459715 2.33554502.2682465-.01800948.2398104 4.44644552.4445498 7.77725122-.3838863 5.5706161 5.9232227 7.6511848 5.0445497 1.1914692-.0293838-9.61042658-1.2966824-9.13270146 3.2995261-10.54976307 6.5677725-1.44170616 5.9109005 1.50331753 6.3374408 4.31090047.5146919 4.2654028.8748815 8.5649289 1.1374407 13.4597156.6056872 16.4767773 1.8957346 14.3545024-4.1706161 16.5876778-10.8530806 2.8635071-2.9080569-10.2483413-8.2464455-10.8796209-4.5971564 1.1914692-2.578199 5.0236967-2.7203791 9.3526066.6180094 3.886256-10.3725119 2.7298579-10.107109.5526067-.6947868-7.8170616-3.6587678-34.68815167.2350711-34.13838864z" fill="#e7318b"/><path d="m72.4464455 6.00189573c1.6492891.03127963 3.6483412.30710901 4.0398104 2.04454977 1.2720379 3.3649289 2.4758294 6.9753554 3.650237 10.735545 6.4037915 21.4255924 6.214218 18.7819905 5.2454976 20.0483413-15.4274881 11.2796208-8.2464455-9.6426541-13.763981-9.4966825-3.5203792 2.9554502-.1459716 12.9478673-5.8824645 12.7014218-2.7677725.0890995-6.0815166-1.3109005-7.0322275-2.6938389 8.1014218-35.35450234 6.4094787-32.53080566 13.743128-33.33933647zm-.3137441 10.62938387c-1.8881516.2549763-1.6625592 4.3364929-1.6900474 5.5611375l3.3791469-.1308057c-.0303317-1.8341232-.0606635-5.2009479-1.6890995-5.4303318z" fill="#e7318b"/><path d="m96.2796209 4.33744076c9.2549761.40189573 17.3952611 3.91658768 16.2483411 14.43033174-.874881 8.007583-6.945024 8.9099526-14.5080568 7.8672986l1.9478673 14.7345971c-4.7876777 1.4530806-11.4113744 2.8559242-11.0331753-.6720379-.1895735-3.4729858-1.9061612-35.00094784-1.907109-35.00947864 2.5061611-1.00189574 6.3819905-1.2464455 9.2521327-1.3507109zm1.0900473 8.49857824c-.7848341-.072038-.7526066.5563981-.7127962.6862559.1895735 1.3772512.2056872 4.7772512.5763034 5.1033175 4.0635066-.1061611 5.0881516-5.4796208.1364928-5.7895734z" fill="#e7318b"/><path d="m122.527014 4.33744076c9.254977.40189573 17.396209 3.91563981 16.249289 14.43033174-.875829 8.0085308-6.944076 8.9099526-14.508057 7.8672986l1.94692 14.7345971c-4.787678 1.4530806-11.410427 2.8559242-11.036019-.6720379-.189574-3.4729858-1.90237-35.00094784-1.903318-35.00947864 2.506162-1.0028436 6.378199-1.2464455 9.251185-1.3507109zm1.090995 8.49857824c-.785782-.072038-.758293.5554502-.715639.6862559.189573 1.3772512.206635 4.7763033.579147 5.1033175 4.062559-.1061611 5.088151-5.4796208.136492-5.7895734z" fill="#e7318b"/><path d="m140.473934 9.14597156c2.566824-2.79241706 9.017061-4.36018957 10.096682-.79905213 5.984834 13.13270147 6.824645 5.49763037 10.408531-1.85876777 1.706161-2.65402844 7.677725 1.40947867 8.512796 2.72511848 3.336493 2.82085306-9.317535 12.23412326-9.22654 15.07677726-.465403 2.4862559-.523223 6.6255924-.817062 10.4265403-.401896 3.1279621.299526 5.5469194-1.848341 6.478673-4.240758 1.5090047-8.341232 1.0104265-7.746919-3.6758294-.393365-4.9791469-.100474-10.3317536-.8-14.1232228-1.37346-3.07109-4.007583-4.9478673-6.161138-7.4189573-1.700474-2.0549763-4.584834-4.5421801-2.418009-6.83127964z" fill="#e7318b"/><path d="m56.3033175 19.2701422c-8.9156398 1.7203791-17.6483412 4.4663507-26.0398104 8.0075829.4881517 4.6445498.3611374 10.0246446 1.4720379 13.6492891 3.0265403 1.9905213 10.6208531 1.8189574 9.7630332-1.6199052-.1478673-5.3336493-1.2995261-7.9004739 2.7364929-9.0322275 3.4398104-.2966824 1.3270142 8.692891 2.7232227 10.0578199 1.9099526 2.7488152 8.5554503.1611375 10.0018958-1.3611374.5981042-5.1829384-.3962086-13.2843602-.6568721-19.7014218z" fill="#e7318b" opacity=".5"/><path d="m82.9203791 27.9620853c-1.0527646-3.585466-2.1345971-7.1336493-3.2454976-10.6445498-2.2009479-.0631911-4.3987362-.0578199-6.5933649.0161138.6995261 1.371564.7109005 2.9990521.7431279 4.7279621l-3.3791469.1308057c0-1.6265403-.0521327-3.2123223.650237-4.7668247-2.5080569.1393365-5.0075829.3497631-7.4947867.6635071-1.4161138 6.9345972-3.8530806 15.1298578-4.8284361 21.3744076 2.1630332 2.3696683 7.1800948 3.185782 9.0047394 2.0445498 2.7270142-1.678673 1.2047393-11.2568721 4.0151659-12.2388626 2.5364929-.5687204 2.7630331 9.5734597 3.5715639 11.0758294 1.5497631 4.1393365 9.8066351-.3260664 10.5810427-2.3402844-.6663507-2.9061611-2.0654028-6.5545023-3.0246446-10.042654z" fill="#e7318b" opacity=".5"/><path d="m110.436019 22.9099526c-7.503318-1.8009479-14.985782-4.2236967-22.7488152-5.0189573 0 0 1.1971564 21.9696682 1.2578199 23.0748815-.042654 3.7962085 8.7004739 1.042654 11.0189573.4056872l-1.9440758-14.7364929c6.0492888.8113744 10.7867298.4454976 13.1962088-3.557346-.259716-.0559242-.521327-.1090047-.780095-.1677725z" fill="#e7318b" opacity=".5"/><path d="m132.694787 26.5402844c-6.190453-.6174671-12.344923-1.5539411-18.438863-2.8056872 0 0 .91564 16.8407583.940285 17.2691943.019905 3.8473933 9.204739.8530805 11.018957.371564l-1.949763-14.7402844c3.48752.4979463 6.297314.4663507 8.429384-.0947867z" fill="#e7318b" opacity=".5"/><path d="m149.418957 27.3725118c.784834 13.1971564-1.067298 14.9630332 6.047394 14.4 3.923222-.563981 3.601895-2.0909952 3.791469-4.535545.25308-3.1734597.45308-7.4255924.693839-10.3118483-3.50079.2919431-7.011691.4410742-10.532702.4473933z" fill="#e7318b" opacity=".5"/><g fill="#ffc500"><path d="m4.94218009 50.8331754c.73554503-6.2056872 6.49289101-6.4682465 12.50047391-6.2312797 5.6995261.1526067 11.0104266.4511849 13.5232228 1.9744076.7033175.4492891 1.0540284.9592417 1.1725118 1.5829384 1.6113744 13.3810427-3.7412322 6.7886256-12.7905213 7.642654-3.042654.2464455-3.456872 3.7194313-1.7905213 5.9450237 9.7431279-1.2587677 10.6161137 1.3270142 8.5971564 9.4341233-.8957346 1.7772511-7.6398105.4909952-8.7895735.8037914-.0075829 3.7744076-.0094787 14.8018958-.9943128 14.7867299-3.2227488 2.2189573-8.43601894 2.8436019-10.42085307 1.056872-3.06255924-4.192417-.88530805-36.7099526-1.00758294-36.9952606z"/><path d="m50.3601896 44.4454976c4.2597156.1090048 4.5990521 1.250237 5.4303317 3.7099526 1.3601896 3.6758294 2.692891 7.6739337 3.9582939 11.7270143 8.1327014 27.0777251 7.6654028 23.5469194 6.7298578 24.9677725-2.9753555 3.0407583-10.571564 6.1146919-12.3886256 2.2862559-1.2919431-2.7393365-1.5383886-15.1819905-4.6881517-13.9004739-4.5109004 3.5867298-.078673 16.2028436-7.5630331 15.7194312-3.2767773.0350711-7.3364929-1.7061611-8.4199053-3.2767772 9.9601896-44.0834123 8.0028436-40.1810427 16.9412323-41.2331754zm-.3791469 13.1298579c-2.3478673.2549763-2.0587678 5.592417-2.0853081 6.8672985l4.1706161-.1601895c-.0189573-2.3033176-.1507109-6.5118484-2.0900474-6.707109z"/><path d="m70.3905213 48.1194313c2.7175356-1.6113744 6.6947868-2.5374408 10.1952607-1.9440758 4.8872038.521327 2.814218 7.428436 4.7886256 10.0341232 4.3876777 9.478673 7.0549763-6.3886256 7.5061611-9.5981043 1.5251185-2.67109 8.3848343-3.0985782 10.1156403-2.9611374 4.415165.3364929 4.656872 1.6331753 4.756398 4.6578199.654028 11.9165876-.195261 25.9232227-.040759 37.0454976-1.56872 3.2180095-11.5563978 5.4815166-12.7715636 2.5545024-.5914692-1.6540285-.1696683-1.2559242-.3478673-3.7478673-.1184835-4.9696683-.3516588-14.8312796-.3526067-14.8388626-3.9327014 6.9554503-6.0199052 6.0559242-10.0151659.6417062-.0047393 0-.2104265 15.4796208-.2255924 16.3033175-.5507109 1.4417062-5.335545 2.9175356-8.0976303 3.3118484-4.8009479.4872037-5.4199052-.6805688-5.5630332-4.1905214-.2672986-3.0502369-.4872038-6.2322275-.6805687-9.7753554-1.2218009-28.9772512-.8218009-26.2085308.7327014-27.492891z"/><path d="m112.117536 48.5374408c2.20853-1.4094787 5.794312-1.907109 8.372511-.7981043 4.351659 1.4909953 2.559242 7.4454976 3.050237 12.4113744-.233175 14.9260664.809479 15.3914692.620853 22.4881517-1.774407 3.5905213-8.232227 3.9554502-10.552606 1.8549763-2.559242-2.2654029-2.076777-6.8303318-2.704266-9.9848342-2.587677-25.620853-.563033-24.5563981 1.213271-25.9715639z"/><path d="m126.595261 73.2047393c-.448342-9.456872-.924171-28.056872.498578-27.7649289 2.743128-1.656872 7.366825-.1943128 9.705213.4398105 5.618957 1.3838862 3.019905 4.0928909 3.395261 8.9099526-.274882 9.1251184-.707109 20.5687203.473933 21.8218009 2.629384 1.5772512 6.729858.1981043 10.041707-.07109 4.765876-1.1109005 4.549763.6530805 5.78199 4.3440758 1.171564 6.0663507-1.256872 6.8246445-4.856872 7.4341232-3.054976.5791469-6.729858.9109005-11.156398 1.0255924-14.246446.7981043-13.092891-5.107109-13.883412-16.1393365z"/><path d="m158.869194 48.3298578c2.872986-3.2739336 10.834124-5.2729858 12.235071-1.4445497 7.47583 16.1990521 8.311849 8.3127962 13.034124-1.7345972 1.869194-3.4236967 9.383886 1.4872038 10.469194 3.1402844 4.419905 3.4881516-11.106161 14.8483412-11.273934 18.6672985-.635071 3.2407583-.696682 8.9943128-1.090047 13.7981043-.416114 3.0872038.402843 6.2473934-2.478673 7.2691943-5.781991 1.7203792-9.952607.9725119-9.327014-4.9478673-.473934-6.07109-.14218-12.5118483-.947868-17.0862559-1.690995-3.8862559-5.139336-6.3146919-7.827488-9.4379147-2.041706-2.4853081-5.431279-5.4635071-2.793365-8.2236967z"/><path d="m14.9488152 69.4341232c-3.5383887 1.1677725-7.06255928 2.414218-10.51563984 3.828436.2578199 6.8976304.07772511 13.0805688 1.25876777 14.286256 2.22938388 2.620853 8.47014217.8530805 10.67867297-.7772512 1.4587678-1.8085308.8094787-14.8909953.9943128-14.7867299 8.1620853-.1279621 9.7383886 1.7952607 9.4729858-6.1127962-4.0028436 1.0417062-7.9535545 2.264455-11.8890995 3.5620853z"/><path d="m63.2957346 71.563981c-.9630332-3.2821485-1.9491311-6.5364928-2.9582938-9.7630331-2.6748816 0-5.571564.0881516-8.3497631.2502369.0483413.6407583.0739337 1.3800948.0739337 2.2312797l-4.1706161.1601895c-.0189574-.7962085-.0085308-1.4881516.0236966-2.1090047-3.1595576.2672986-6.3093207.6442338-9.4492891 1.1308057-4.8502369 22.3061611-5.707109 21.5450237-4.7393364 22.6227488 3.1535545 2.7819905 9.5431279 3.8862559 11.5165876 1.6805687 2.307109-2.6919431 1.1611375-14.1545024 4.5440759-14.6236967 3.1156398.3374408 3.1023696 12.4805687 4.4056872 14.1876778 1.9317535 3.127962 6.8199052 1.0549763 9.3990521-.3516588 1.5905213-.9554503 3.4824644-2.149763 3.4331753-3.3099526-1.1819905-3.7374408-2.4540284-7.8758294-3.7289099-12.1061612z"/><path d="m107.850237 69.0047393c-12.6066351-3.5658767-25.6445498-6.2559241-38.7222749-6.9563981.5383886 14.3298579.864455 25.8559242 2.0199052 26.7298579 2.52891 2.5270142 11.5090047-.7023697 12.7127962-2.1981043.1706161-.2492891.1327014-.2919431.1393365-.3279621.0132701-1.0132701.2236967-16.2796209.2246445-16.2862559 4.6796209 6.5819905 6.65782 5.0483412 10.0151659-.6417062.4199052 8.478673-.2094786 19.1184834 1.2872038 19.2909953 3.0274882 1.9838862 9.8104268-.72891 11.5345968-2.3459716 1.385782-1.2388625.441707-3.2075829.663507-5.0909952-.02654-3.8189574.012323-7.8246446.125119-12.1734598z"/><path d="m123.753555 73.135545c-4.468247-1.042654-8.909953-2.2369668-13.347868-3.4379147.737441 6.3232228.939337 12.3838863 2.645498 14.2350711 2.28436 2.6739337 7.255924 2.3526067 10.221801-.0587678 2.129858-1.3345971.218957-8.9857819.480569-10.7383886z"/><path d="m154.346919 76.3895735c-.831279-.5137441-2.125118.0720379-3.236019.1014218 1.076778-.0189574 2.155451-.0527647 3.236019-.1014218z"/><path d="m155.35545 77.7156398c-.320379-.5943128-.620853-.9981043-.913744-1.2521327-4.864455-.1895735-13.481516 2.2047393-14.051185-.3886256-4.633175-.4919431-9.21327-1.2966824-13.761137-2.2881516.479621 14.1431279 2.017061 16.285308 16.403791 15.4644549 10.467299-.7829384 16.919432-.5706161 12.322275-11.535545z"/><path d="m170.65782 74.8151659-.587678.0758294c.473934 7.0369668.109005 11.4312796.977251 12.3791469 2.172512 2.5535545 7.930806 1.4009478 9.57346.2938388 2.363981-.9146919 1.62654-13.6796208 2.131754-14.8815165-3.990522.9023696-8.032228 1.5962085-12.094787 2.1327014z"/></g></g></svg>