<svg height="113" viewBox="0 0 193 113" width="193" xmlns="http://www.w3.org/2000/svg"><g fill="#fff" transform="translate(0 -15)"><path d="m19.2046401 51.9183201c.4244801-5.43368.9553599-12.46.9553599-13.7183201 0-3.92-4.368-6.104-8.456-6.104h-.056c-5.992 0-11.368 5.376-11.368 13.552 0 5.32 3.472 8.792 7.728 8.792 2.1817604 0 4.5404801-1.0169602 6.79784-3.5095199-.04984 1.5019204-.11984 2.8470407-.2071999 4.0516003-4.5583996 2.8901601-9.39119979 4.6457604-9.39119979 9.3710407 0 2.632 1.904 4.872 5.15199999 4.872 4.312 0 7.728-4.256 8.344-10.976l.0884801-1.1088002c5.1771998-3.6355199 8.4599196-9.8571202 10.6635199-15.1871998.1036003-.2525597.1500805-.5011998.1500805-.7391998 0-1.0690398-.9413599-1.9208002-1.8989603-1.9208002-.6315749 0-1.2700404.3701252-1.6505386 1.2926387l-.0720219.1902402c-1.2571998 3.5851202-3.7531202 8.25384-6.7793599 11.1423201zm-10.52519979-1.5646385c-2.352 0-3.92-1.568-3.92-4.928 0-5.544 3.64-9.184 7.44799999-9.184 1.84184 0 3.1068798.9430398 3.4411998 2.42368.0319204 1.4817603-.1220796 2.6779204-.3611998 4.07232-1.736 6.328-4.536 7.616-6.60799999 7.616zm2.12856059 14.784h-.0005606c-.83999999 0-1.39999999-.448-1.39999999-1.176 0-1.6816799 2.26687979-3.1572802 4.71464009-4.6032006-.7951998 5.0332802-2.0876799 5.7792006-3.3140795 5.7792006zm28.2794394-9.9696816c5.488 0 8.68-4.928 11.816-13.216.1063997-.2794403.1545597-.5493607.1545597-.8030406 0-1.0830398-.8724801-1.876-1.8015199-1.876-.6871202 0-1.4050406.4334403-1.824481 1.5030406h.0000009c-1.512 3.864-4.424 10.304-7.84 10.304-1.904 0-3.136-1.232-3.136-3.304 0-3.304 2.296-7.84 3.528-10.808.392-.952.616-1.736.616-2.296 0-1.232-.84-2.072-1.96-2.072-.728 0-1.344.448-2.576.448-2.744 0-3.92-1.456-4.648-2.464-.448-.616-.896-1.064-1.904-1.064-1.344 0-2.072 1.232-2.072 2.408 0 .728.224 1.512.84 1.96-.56 2.184-1.344 4.48-2.296 6.888-.1142396.2895199-.1657595.5633599-.1657595.8170398 0 1.0516799.882 1.7539196 1.8082396 1.7539196.7095199 0 1.4448002-.4121601 1.8295199-1.3949603.8926401-2.3211998 1.5719204-4.2151202 2.2360804-6.1644801 1.0684801.4771203 2.2461601.8624006 3.5324801 1.0164006-1.5797603 3.59016-3.2491202 7.6714403-3.2491202 11.1960804 0 4.2 2.968 7.168 7.112 7.168zm28.3931202.0565605c4.032 0 6.944-4.816 10.136-13.272.1063997-.2794403.1545597-.5493607.1545597-.8030406 0-1.0830398-.8724801-1.876-1.8015199-1.876-.6871202 0-1.4050406.4334403-1.8244809 1.5030406l-.0011194-.0005605-.2378056.5995924c-1.9226296 4.805886-4.3138744 9.7604076-6.0341944 9.7604076-1.12 0-2.24-1.12-2.24-5.88 0-3.192.896-9.856.896-11.2 0-1.624-.952-2.408-2.016-2.408-1.1155199 0-1.8435199.6328002-2.2450398 1.7253599-1.428-.8343997-2.93384-1.2207994-4.4189602-1.2207994-5.712 0-11.368 5.936-11.368 14 0 5.992 3.192 9.072 7.616 9.072 3.2586401 0 5.7276799-1.72032 7.9475199-5.0002404.91616 3.3997603 3.1276003 5.0002404 5.4370406 5.0002404zm-12.7685605-4.1435605c-2.1828806-.0004395-3.7508806-1.5684395-3.7508806-5.0964395 0-5.544 3.696-9.744 7.448-9.744 1.6996003 0 2.9696799.8052803 3.4423201 2.0479205-.0604801 2.1145596-.21 3.47032-.3931203 4.6871998-1.374684 6.2129993-4.6452675 8.0363734-6.6330841 8.1029681zm21.6171194 4.2549991c1.344 0 2.128-.784 2.128-2.352l.0007315-2.4527867c.0005486-.5815102.0015087-1.1403331.0031889-1.6788932.1629602-8.6189602 4.6194403-12.3888806 7.1640804-12.3888806 1.512 0 2.128.616 2.128 2.352 0 2.296-.896 5.656-.896 9.688 0 4.368 2.184 6.552 5.432 6.552 4.368 0 6.888-4.704 10.1359998-13.104.103601-.2525597.150081-.5011998.150081-.7391998 0-1.0690398-.94136-1.9208002-1.898961-1.9208002-.673679 0-1.3551994.4211202-1.7231198 1.4845605l-.0011202.0000009c-1.344 3.416-4.088 10.192-6.16 10.192-.784 0-1.456-.672-1.456-2.8 0-3.416.896-7.224.896-10.528 0-3.024-2.24-5.264-5.768-5.264-2.8033599 0-5.4202396 1.61-7.5056799 4.7835199.0940796-.8097604.2060796-1.6307206.3387993-2.4880804.028-.1814404.042-.3572803.042-.5264006 0-1.1905597-.69216-2.0490398-2.114-2.0490398-1.456 0-2.24.728-2.408 1.96-.616 4.592-.84 11.48-.84 18.928 0 1.568.784 2.352 2.352 2.352zm29.2863196-.2805596c2.748481 0 5.966801-2.0955199 8.138481-5.2903201 1.078 3.4014403 2.837519 5.0663201 5.637519 5.0663201 4.088 0 6.552-4.368 9.8-12.88.1064-.2794404.15456-.5488002.15456-.8013599 0-1.0763201-.870239-1.8536004-1.79816-1.8536004-.68824 0-1.4084.42784-1.828959 1.4783997l.00112.0011211c-1.456 3.64-4.144 9.968-6.16 9.968-1.01192 0-2.21424-.9839204-2.7468-7.182 2.88064-4.7112803 8.4028-14.6535199 8.4028-21.882 0-4.2-2.184-6.384-5.096-6.384-4.25264 0-7.834401 3.57784-7.840561 16.82184-.76384-.3539204-1.626239-.5264005-2.576-.5264005-5.88 0-11.4799995 5.6-11.4799995 13.552 0 6.664 3.2479995 9.912 7.3919995 9.912zm10.920561-18.8434404-.00049-.2926702-.00007-.29645c0-14.4621474 1.644818-16.2591982 3.035699-16.2954284l.042861-.0004505.097689.0028401c.732885.0457471 1.247191.6293721 1.247191 2.2930388 0 2.7423201-1.7948 9.1940805-4.42288 14.5891202zm-10.58456 14.7548798c-1.68 0-3.248-1.568-3.248-5.768 0-5.656 3.864-9.52 7.056-9.52 2.016 0 3.192 1.176 3.192 4.536 0 6.496-4.256 10.752-7 10.752zm21.896558 4.5376791c1.344 0 2.184-.952 2.184-2.52 0-1.3585597.00896-2.6207993.02464-3.7939992.640641-7.0716799 4.942-11.326 7.647921-11.326 1.176 0 1.68.504 1.68 1.624 0 1.904-1.512 5.376-1.512 9.968 0 4.704.84 5.768 2.8 5.768 1.232 0 1.904-.896 1.904-2.072 0-.336-.224-2.632-.224-3.92v-.0655199c.058239-10.07216 4.08856-12.7024801 6.664-12.7024801 1.4 0 2.072.672 2.072 2.408 0 2.408-.84 5.6-.84 9.632 0 4.368 2.184 6.552 5.264 6.552 3.92 0 7.112-4.816 10.304-13.104.10248-.30016.1484-.5784801.1484-.8327197 0-1.0863996-.8428-1.7270398-1.74048-1.7270398-.73192 0-1.5008.4261601-1.87936 1.3843201l-.001119-.0011194c-1.344 3.416-4.312 10.136-6.328 10.136-.728 0-1.288-.56-1.288-1.736 0-4.536.896-8.456.896-11.256 0-3.304-2.24-5.544-5.544-5.544-2.64768 0-5.0736 1.3182396-7.070561 3.9194395-.877519-1.5176004-2.49984-2.5194404-4.29744-2.5194404-3.26928 0-6.07992 1.7645597-8.243201 5.1452795.2044-2.6656004.4032-3.8992803.4032-4.4167206 0-1.512-.616-2.408-2.072-2.408-1.4 0-2.184 1.008-2.352 2.24-.616 4.592-.896 11.2-.896 18.648 0 1.568.728 2.52 2.296 2.52zm54.544563-.2799975c4.032 0 6.944-4.816 10.136-13.272.106399-.2794403.154559-.5493607.154559-.8030406 0-1.0830398-.87248-1.876-1.80152-1.876-.68712 0-1.40504.4334403-1.824481 1.5030406l-.001119-.0005605c-1.96 4.984-4.48 10.36-6.272 10.36-1.12 0-2.24-1.12-2.24-5.88 0-3.192.896-9.856.896-11.2 0-1.624-.952-2.408-2.016-2.408-1.11552 0-1.84352.6328002-2.24504 1.7253599-1.428-.8343997-2.93384-1.2207994-4.41896-1.2207994-5.712 0-11.368 5.936-11.368 14 0 5.992 3.192 9.072 7.616 9.072 3.25864 0 5.72768-1.72032 7.94752-5.0002404.91616 3.3997603 3.1276 5.0002404 5.437041 5.0002404zm-12.768561-4.1435605c-2.182881-.0004395-3.750881-1.5684395-3.750881-5.0964395 0-5.544 3.696-9.744 7.448-9.744 1.699601 0 2.96968.8052803 3.44232 2.0479205-.06048 2.1145596-.21 3.47032-.39312 4.6871998-1.374684 6.2129993-4.645267 8.0363734-6.633084 8.1029681z"/><path d="m79.8673386 73.9328611c-.6133334 20.08-4.6266667 42.8799999-27.52 42.5866669 3.24-4.333334-2.2666667-9.853334-3.5466667-1.773334-1.5466667 3.213334-6.2933333 4.186667-2.1333333 7.906667 11.92 8.946667 19.48 3.253333 4-2.093333 38.0933333 3.72 36.1733333-60.3600003 29.2-46.6266669z" transform="matrix(-1 0 0 1 128.864954 0)"/></g></svg>