<svg height="132" viewBox="0 0 138 132" width="138" xmlns="http://www.w3.org/2000/svg"><g fill="#fff"><path d="m19.032 28.821c1.547 1.027 3.107-1.872 3.965-3.796 1.027 13.481 6.773 4.108 7.371-1.937.91.091 1.105.078 2.6-1.157-.481 1.222 1.3 6.565 2.275 2.197-.104-1.001 3.042-7.8 3.497-6.591-1.638 9.685.923 18.33 5.746 4.238.26 2.925 1.482 6.825 5.005 3.575 1.5647177-1.7743168 2.99849-3.6599447 4.29-5.642 7.241-2.6-2.106 10.4.897 14.547.247.221.559 1.183 1.781.845.5915985-.3820308 1.0467608-.9418804 1.3-1.599 1.222-2.418 4.238-7.865 6.331-11.323.364 2.886 1.573 6.318 4.966 3.172 1.1743684-1.29936 2.260145-2.6761247 3.25-4.121-.78 8.047 4.043 15.288 7.371 2.522.962.104 1.755-.494 3.367-2.236.156 3.042 1.456 7.202 4.992 3.835 1.5517528-1.778452 2.9765964-3.6637634 4.264-5.642 7.241-2.6-2.119 10.4.884 14.547.26.221.559 1.183 1.794.845.5915985-.3820308 1.0467608-.9418804 1.3-1.599.39-1.794 10.764-17.264 6.422-13.325-2.6 3.9-5.291 8.775-7.566 13-.598.897-.481-.104.117-2.6.858-4.706 5.2-12.324-1.053-13.091 2.171-7.8-7.332-2.041-2.717 1.989-1.196.962-4.992 8.866-5.616 3.549 0-.858.078-1.729.078-2.132 8.255-5.2-.416-11.96-2.756-1.001-.637.624-1.95 2.847-3.237 2.782 2.899-11.895-5.616-8.827-1.3.481-6.292 20.449-.65-20.358-6.123-3.653-1.209 1.001-4.966 8.814-5.577 3.51 0-.858.078-1.729.078-2.132 8.567-5.798-1.001-11.505-2.808-.754-2.366 3.458-5.421 8.97-7.592 13-.598.897-.481-.104.117-2.6.871-4.706 5.2-12.324-1.04-13.091 2.158-7.8-7.345-2.041-2.73 1.989-1.196.962-4.992 8.879-5.603 3.549 0-.858.078-1.729.078-2.132 8.047-4.823-.13-11.986-2.704-1.3-1.391 1.157-3.172 8.242-4.199 8.229-.247-4.368 2.431-18.993-4.368-8.801 0 .091-.078.104-.117.13l.338-3.224c2.262-1.898 9.568-12.337 5.837-15.444-6.409-3.419-9.49 14.56-9.178 20.176-.481.416-.988 1.742-2.496 1.508 1.716-7.8-5.421-6.825-1.014.624-3.9 15.392-4.472 2.821-3.64-2.86 0-.351-.429-1.482-1.742-.728-.65 1.3-3.029 9.594-4.082 7.605-.52-2.106 1.027-10.53 1.17-11.427 0-2.86-2.886.273-2.964 2.483-.715 2.535-1.599 9.243.741 11.011zm73.788-12.844c.221-1.781 1.066-1.001.377 1.651-.325-.117-.455-.897-.377-1.651zm-5.083-.832c.793.338 1.066 1.833 0 3.445-.4197784.5934294-1.0087496 1.0464842-1.69 1.3.052-.832.637-4.745 1.69-4.745zm-8.866 3.172c.182-4.433 1.196-1.04.338 3.094-.3499225-.9914305-.4656085-2.0504023-.338-3.094zm-10.088-3.172c.78.338 1.053 1.833 0 3.445-.4249771.5938029-1.0181615 1.0466155-1.703 1.3.052-.832.65-4.745 1.703-4.745zm-14.508.832c.234-1.781 1.053-1.001.377 1.651-.325-.117-.455-.897-.377-1.651zm-5.07-.832c.78.338 1.053 1.833 0 3.445-.4167724.5963093-1.0067371 1.0501284-1.69 1.3.039-.832.585-4.745 1.69-4.745zm-12.233-5.057c3.679-18.096 9.282-4.394-.481 3.9zm-7.579 7.293c.143 0 .247.429.364 1.534.047162.8660251.047162 1.7339749 0 2.6-.845-1.261-.65-4.134-.364-4.134z"/><path d="m29.653 50.323v-7.891h1.352v-.559h-3.328v.559h1.339v7.891z"/><path d="m38.038 50.323v-8.45h-.637v3.848h-2.184v-3.848h-.624v8.45h.624v-4.056h2.184v4.056z"/><path d="m44.863 42.432v-.559h-2.717v8.45h2.847v-.546h-2.21v-3.549h1.82v-.52h-1.82v-3.276z"/><path d="m52 44.304c0-1.573-1.17-2.782-3.289-2.431v8.45h.689v-3.64h.923l1.157 3.64h.65l-1.066-3.289-.468-.403c1.118-.143 1.404-1.131 1.404-2.327zm-1.872 1.924h-.728v-3.822c1.82-.806 3.068 3.263.767 3.822z"/><path d="m58.63 42.432v-.559h-2.717v8.45h2.847v-.546h-2.21v-3.549h1.807v-.52h-1.807v-3.276z"/><path d="m68.276 41.873-1.651 8.45h.598l.377-1.885h1.976l.364 1.885h.637l-1.612-8.45zm-.572 6.058.676-3.51.247-2.288.273 2.288.65 3.51z"/><path d="m77.493 44.304c0-1.573-1.17-2.782-3.276-2.431v8.45h.637v-3.64h.91l1.17 3.64h.65l-1.066-3.289-.468-.403c1.118-.143 1.443-1.131 1.443-2.327zm-1.859 1.924h-.78v-3.822c1.846-.806 3.068 3.263.78 3.822z"/><path d="m84.214 49.777h-2.21v-3.549h1.82v-.52h-1.82v-3.276h2.08v-.559h-2.717v8.45h2.847z"/><path d="m8.411 105.833c7.8-1.716 7.241-19.019-.819-23.738 3.0619219-2.0049722 5.8163493-4.4441075 8.177-7.241.416 9.1 7.8 9.438 11.531.715-.806 16.042 9.1 17.576 13.338 2.431-.299 2.821 1.872 16.042 6.5 8.593.351-.949 2.47-7.8 2.821-9.672 3.692 6.877 6.5-2.821 7.8-6.89 12.025-27.482-1.534 20.553 1.391 25.025 3.016 21.203 11.414-8.424 15.6-16.25-.702 5.356 3.497 12.168 8.619 6.37 2.1418555-2.9195913 4.008822-6.0312022 5.577-9.295-.156 7.111 1.066 23.478 9.594 15.353 2.382628-4.0179965 4.510162-8.1818841 6.37-12.467.097504.672002.240839 1.3365515.429 1.989 1.105 2.977 3.133 4.524 6.019 3.406 3.068-1.404 5.07-6.708 6.188-9.295-1.3 4.394.481 12.415-2.392 16.12-8.502 7.293-28.301 38.077-12.103 40.95 19.63-3.146 18.044-33.423 20.046-45.227 2.314-3.003 12.61-13.546 14.066-15.795 0-5.876-13.091 12.389-14.378 12.727-.494-4.29 4.355-25.61-3.12-20.384-.767 1.82-.884 3.705-1.586 5.304-1.17 2.678-7.02 16.51-8.138 11.024-1.69-5.603 5.343-20.696-1.3-16.77-2.6 2.405-3.211 6.37-3.835 11.258-2.6 5.512-9.1 20.54-9.581 13.455 0-2.6-.403-19.786.715-21.034 6.253-6.5 16.484-32.019 5.85-32.058-9.399 2.743-11.882 24.063-12.649 36.556-2.041 3.692-6.825 13.91-8.541 12.753-1.846-4.433 4.862-30.667-4.511-13.78-.143.52-.273 1.157-.416 1.833-3.211 6.123-9.373 21.346-10.998 24.908-1.989 4.498-1.729 2.067-1.3-3.107 3.406-17.199 7.358-55.991-8.645-22.1 0-1.599 0-4.784-1.001-5.902-5.2-6.305-7.306 22.399-7.943 10.959.988-7.488-.507-21.619-4.719-5.733-10.907 30.602-9.438 2.899-7.397-8.996.091-1.092-2.808-1.781-3.705.351-5.265-6.071-12.883 1.521-13.871 9.074-2.1996114 3.2796017-5.0545576 6.0681539-8.385 8.19.351-3.9.702-8.593 1.053-12.428.117-.936-.117-.702.416-1.3 12.714-9.815 19.994-39.949 3.536-28.431-13.533 13.611-18.213 65.52-4.303 68.549zm104.416 12.311c-5.096 14.482-14.3 15.6-13.585 3.705 2.6-13.806 12.415-23.283 17.121-28.6 0 7.93-.663 16.952-3.536 24.895zm-15.236-69.797c10.14-30.017 7.319 7.28-1.768 14.729.0907487-4.9567517.6831025-9.8915813 1.768-14.729zm-76.531 25.272c.559-2.782 2.86-12.545 7.709-8.606-.0810091.6780265-.2201888 1.3478285-.416 2.002-.65 2.6-.169 2.834-1.586 5.2-1.924 3.328-6.591 10.985-5.707 1.404zm-9.23-25.805c2.756-10.101 7.982-14.066 8.424-6.5-.845 9.581-7.709 17.966-10.907 20.904.50419585-4.8515164 1.33373-9.6636832 2.483-14.404zm-4.654 37.284c3.809 2.6 5.265 7.722 4.004 13.884-4.446 11.518-4.68-9.971-4.004-13.884z"/><path d="m78.767 58.188c-.299 1.976 3.822 3.302 3.9 0-.13-2.665-3.367-3.055-3.9 0z"/><path d="m22.1 106.834c.1721218-.411076.5981391-.656036 1.04-.598v-.351h-4.94v.351c2.418-.455 1.04 11.843 1.183 13.351-.0761673.179361-.1916819.339304-.338.468-.143.065-.13.143-.78.143v.338h4.875v-.338c-.117 0-.156.143-.767-.143-.1302733-.124347-.224587-.281537-.273-.455-.2475303-4.251734-.2475303-8.514266 0-12.766z"/><path d="m23.582 105.885v2.327h.338v-.663c3.692-5.837 3.081 10.257 2.756 12.025-.071291.174979-.182601.330813-.325.455-.143 0-.143.143-.793.143v.351h4.888v-.351c-.117 0-.169.143-.767-.143-.1575797-.109632-.2724011-.270382-.325-.455 0-.806-1.638-19.578 2.73-11.375h.325v-.936-1.378z"/><path d="m35.1 119.795c-.0545391 1.500944.4296277 2.971889 1.365 4.147.5911655.732161 1.3198489 1.341605 2.145 1.794 6.279 3.822 15.457-5.72 7.8-13.286-2.08 0-4.095-9.841 1.391-4.758.1866355.409236.292571.850634.312 1.3h.377l.065-3.159h-.325c-.078.078.117.325-.221.871-.078 0-.182 0-.325-.13-.8023618-.795911-1.950512-1.136191-3.0569806-.906003-1.1064687.230187-2.0236498 1.000133-2.4420194 2.050003.182.637-1.794 2.184 1.729 5.85 1.742 1.378 4.381 4.927 2.392 8.541-.9283784 1.994071-2.8417675 3.34877-5.031 3.562-1.6465678-.016843-3.1943481-.788338-4.199-2.093-.663-1.82-1.82-.923-.871-5.473 1.04-2.847 7.176-4.394 7.54 1.3-.0560429.41736-.1835749.821945-.377 1.196-.2321135.38625-.552988.711581-.936.949-.0474056.056546-.1108768.097349-.182.117l-.182.091c-.13-.104 0-.377-.754-.507h-.195c-.273-.078-1.365.923 0 1.3.195 0 .364 0 1.43-.507 5.551-2.73-4.771-13.039-7.449-2.249z"/><path d="m40.3 106.834c.1897626-.453402.6773718-.705425 1.157-.598v-.351h-5.057v.351c2.041-.39 1.3 5.538 1.183 7.215-.0748803.176754-.1855347.336097-.325.468-.143 0-.13.13-.793.13v.351h4.888v-.351c-.117 0-.169.143-.767-.13-.1549777-.117822-.2687329-.281629-.325-.468-.2283728-2.200488-.215295-4.419357.039-6.617z"/><path d="m64.727 106.171h-.221z"/><path d="m57.395 106.782c.1755806-.460478.6636509-.721152 1.144-.611v-.351h-4.875v.351c2.418-.455 1.04 11.843 1.17 13.351-.0681124.180398-.1797562.341165-.325.468-.143 0-.13.143-.793.143v.351h4.888v-.351c-.117 0-.156.143-.767-.143-.1608554-.112073-.2761722-.27813-.325-.468-.1640947-1.192877-.211986-2.398867-.143-3.601.6908884.043743 1.3728789.179267 2.028.403.313961.119275.6182054.262705.91.429.2699292.16878.5149628.374434.728.611.0421808.721445.0029332 1.445345-.117 2.158-.0681124.180398-.1797562.341165-.325.468-.143 0-.143.143-.819.143v.351h4.888v-.351c-.117 0-.156.143-.767-.143-.1608554-.112073-.2761722-.27813-.325-.468.273-1.391-1.417-13.117.936-13.351v-.286h-4.888v.351c2.262-1.105 1.001 9.685 1.3 10.4-.2229466-.188351-.4672955-.349796-.728-.481-.2987948-.159666-.6122338-.290266-.936-.39-.3299583-.115453-.6691978-.202438-1.014-.26-.3234265-.082086-.6545722-.130015-.988-.143.091-1.768-.221-7.02.143-8.58z"/><path d="m73.788 109.733c-.0504462-.39403-.1242427-.784718-.221-1.17-.1695762-.592077-.4769648-1.135576-.897-1.586-1.04-1.443-6.903-2.47-7.293 2.496-.4664482 2.803397-.4047213 5.669287.182 8.45.1665809.594476.4898535 1.133264.936 1.56.4145813.410332.9105829.72919 1.456.936.858.546 5.122.494 5.759-2.782l-.104.091c.4030571-2.102391.5124334-4.250543.325-6.383-.039-.598-.078-1.118-.143-1.612zm-2.392 6.032c-.0282478.648303-.0889908 1.294782-.182 1.937-.39.546.624.312-1.131 2.535-.3348541.20328-.7486224.227619-1.105.065-1.482-1.183-2.275-6.422-.767-13.182.1552781-.422059.4879406-.754722.91-.91.2906003-.124296.6193997-.124296.91 0h-.078c1.872 1.82 1.43 5.811 1.443 9.555z"/><path d="m75.764 118.794c-.0279157.804503-.1500835 1.602956-.364 2.379-1.027.104-7.072-2.301-7.644 2.21.169 1.3 3.016 3.016 5.46 1.521 1.1946523-.661874 2.1159066-1.725923 2.6-3.003.182 0 .182 0 1.04.286 3.458.143 14.495 5.486 16.419-2.379.0250184-.828093-.2902426-1.630294-.8723641-2.219784-.5821216-.58949-1.3802936-.914817-2.2086359-.900216h-.325c-.5103177.041631-.9935871.246793-1.378.585-.3657794.315959-.6397067.724605-.793 1.183-.949 0 1.3 5.044 1.417 1.703-.13 0-.13-.39-.897-.221-.0386346-.127151-.0647586-.257771-.078-.39-.0848777-.786584.2838308-1.553217.9512941-1.977966.6674633-.42475 1.5181011-.434065 2.1947059-.024034 4.823 6.578-8.06 6.63-14.508 4.03l-1.001-.247c.1889998-.806296.2978621-1.629294.325-2.457.078-.936 0-8.996 0-10.231l3.12 10.79h.767l2.522-10.764c-.091 1.69.182 9.516-.13 10.933-.0622715.176417-.1698752.333339-.312.455-.156 0-.143.143-.793.143v.351h4.888v-.351c-.13 0-.169.143-.78-.143-.1575797-.109632-.2724011-.270382-.325-.455.351-1.3-1.599-13.624 1.157-13.364v-.338h-4.823v.338c.2104434-.040065.4265566-.040065.637 0 .1107629.039416.2032545.118034.26.221.572.078-1.742 8.216-1.742 8.58l-2.132-7.28c0-.234-.507-1.781.975-1.586v-.338h-4.94v.338c2.769.65.715 9.893 1.313 12.623zm-1.3 4.524c-1.573.793-.442 2.002-4.797 1.378l.078-.078c-.221-.234-.611 0-1.3-1.3.208-.715-.377-1.378 2.132-1.976.5428952-.071345 1.0907819-.097435 1.638-.078.5583569.035679 1.1140407.105139 1.664.208.546.117 1.014.195 1.443.299-.1940392.569782-.4988924 1.095543-.897 1.547z"/><path d="m93.34 107.991v-2.106h-6.838v.351c2.197-.338 1.17 7.02 1.183 8.697-.0673748.173462-.1795144.325972-.325.442-.1138431.092679-.2562023.143193-.403.143h-.39v.351h6.825v-2.08h-.338c-.325 3.562-3.9.468-2.86-2.795.2873697-.004079.5745246.017675.858.065.104.13.377-.104.598.611.0145902.186048.0145902.372952 0 .559h.338v-2.86h-.338c-.13.208.325.858-.611 1.183-.2774756.060078-.5612154.086269-.845.078-.195-1.508-.13-6.76 2.873-3.081l-.104.442z"/><path d="m116.428 51.571.247.468c.676 1.3 1.989 3.588 3.367 5.772 1.885-.468 3.341-.819 6.188-1.703h.065c12.506-1.404 17.797-19.188 1.092-16.445-.750918-1.6072787-1.952171-2.9620759-3.458-3.9-10.218-4.407-13.247 8.242-7.501 15.808zm.572-12.051c1.196-1.118 2.6-2.782 5.46-1.3 1.999114 1.5039304 3.10803 3.9122811 2.951 6.409 10.062-8.723 16.328 6.851-4.043 9.828-1.625-3.887-6.968-9.36-4.368-14.937z"/></g></svg>