<svg height="77" viewBox="0 0 203 77" width="203" xmlns="http://www.w3.org/2000/svg"><g fill="#fff"><path d="m194.57 37c-1.02-12-13.57-21.22-26.57-22.3-1.56-.06-3.36-.33-6.35-.28-25.68.8-48.14 16.46-71.22 28.72-11-10.45-34.88-23.86-2.51 1.34-1.86.94-4.32 2.26-7.21 3.66-14.39 7.27-58.85 24.77-74.9 2.51-11.68-19.99 8.34-40.74 36.43-34.65 7.3.27-3-4.28-8.19-3.49-43.85-2.44-51.23 61.68 13.09 49.67 1.51-.32 3.31-.56 6.19-1.31 11.73-2.82 23.94-7.95 36.12-14.23.26-.18.51-.22.77-.4 4.8296422 3.6204024 9.897793 6.9111924 15.17 9.85 1.31.58 2.83 1.62 5.39 2.75 14.2 5.21-.43-3.91-6.32-6.25-.58-.11-1.15-.81-1.72-1-2.91-1.81-6.12-3.85-10-6.67 24.74-13 52-34.48 82.65-25.86 1.327966.401303 2.624766.899301 3.88 1.49 15.19 7.47 18.32 22.6 2.24 38.3-.37.3.19-.15-1.49 1.59-.87 1-3.1 3-5.2 5.47-.754082.6067473-1.576293 1.1235652-2.45 1.54l.05.12c-.06052-.0343131-.104005-.0922929-.12-.16-.26-2.83 7.59-9.16 3-12.57-3.52-.24-5.82 4.93-8.05 8.39-.82 1.12-.38 1.39-2.72 3.7h-.09c7.42-12 4.25-19.06-7.32.1 0 .06-.12.09-.19.16s-.06 0-.06 0-.09-.07-.09-.13c5.11-6.82 7.75-21.38-4.33-4.32-6.59 6.23 3.94-15.88-10.49-4.48-1.89 1.51-3.65 5.23-3.39 8.74 1.21 4.53 7.7 2.86 9.4-1.14 1.2-.23 3.87.62 5.68-1.38-.29 1.33 6.56-10.7 5.14-5.5-.21 1.14-9.27 13.42-.59 10.11 2.86-2.17 4.51-8.68 8.34-11-.17 2-2.24 3.83-3.59 6.87-.92 1-1.41 5.33 2.18 4.24 3.81-2.34 4.75-7.9 9-11.84h.07c.062144-.0251356.132161-.0219087.19173.0088363.059568.030745.102759.0859482.11827.1511637-1 4-10.09 18.9 3.62 8.77.2-.48.31-.19 1.63-2 .81-.86 1.79-1.85 3.42-3.6 2.058793-2.1496013 3.979308-4.4274986 5.75-6.82 1.374673-1.8466583 2.560611-3.8265726 3.54-5.91 1.725688-3.3800933 2.454044-7.1814178 2.1-10.96zm-46 21.81c-.71 2.47-6.82 13.92-7.87 6.31.62-3.73 6.1-11.82 7.91-6.31z"/><path d="m191.93 20.28c-3.54.47 3.11 4 4.15 6.37 1.49 1.06 1 4.77 3.43 3.94.49-3.7-4.61-7.83-7.58-10.31z"/><path d="m202.85 28c-1.48-2.39-4.17-11.63-7.42-10.54.57 1.43 6.94 14.75 7.42 10.54z"/><path d="m9.56 47.73c-5.27-1.24 7 10.93 8 6.69-2.06-2.19-6.38-2.92-8-6.69z"/><path d="m19.33 51.42c-1.22.33-8.18-6.44-5.19-1.17.86 1.29 6.64 4.53 5.19 1.17z"/><path d="m140.15 48.2c-4.91 2.94-18.41 25-11.18.79-3.35-5.19-10.66 14.26-13 18.21-.72 3.34-9.23 6.62-4.31 7.13 8.4-3.75 9-15.89 13.6-20.68-.7.59 1.09 7.19-.7 9.62-5.29 6.18-1 7 .75 2.54-2.12 7 3 2.91 2.41-2.59 1.71-1.33 4.78-4.53 6.12-4.52-4 5.27-1.62 23.61 2.18 16.8-8.02-7.09 4.62-21.5 4.13-27.3z"/><path d="m83.1.51c-4.23-2.7-16.2 6.1-17.49 10.09-2.85-4.43-11.32-2.21-11.61 3.76-4.78-2-9.24 4.19-4.35 7.75-.8375137 1.2053231-1.3317876 2.615559-1.43 4.08-5.32 3.33-8.87 12.2-5.68 18.29 5.48.59 11.92-6 12-11.86 1.3814057-.1568274 2.6545123-.8236928 3.57-1.87 2.26 3 9.23 2.08 9.05-3.08 2.39.1 5.1-2.64 3.88-5 1.46-1.3 3.35-2.19 2.28-5.81 5.93-2.42 10.36-10.1 9.78-16.35zm-39.35 42.09c-1.2273496-5.2525391.6009879-10.749148 4.73-14.22.1960443.6509017.496634 1.2655908.89 1.82-4.9 5.62-3.85 11.21 1.41 1.41.5379667.3894071 1.140588.6805612 1.78.86-.09 4.91-4.17 8.9-8.81 10.13zm25.42-21.1c-.3003419.1650311-.4792509.4878452-.46.83 2.23 5.87-4.73.4-3.8 4 .74 6.57-3.69 3.43-7.27 2.49-9.68 5.49-6-3.59-6.39-8-3.69-2.41-1.11-5.82 3.38-4.33 2.16-5.47 9.91-10.69 9.78-.58.13 2.7 2.19-.29 4.46-.18 3.36.4 3.67 4.27.3 5.77zm3-6.31c-.5623526-.564068-1.2465484-.9916904-2-1.25 14.35-12.4 3.89-8.19-2.52-.2-.3002655.0471471-.595065.124197-.88.23.0099237-.1965415.0099237-.3934585 0-.59 1.78-6.66 8.33-9.38 14.36-11.5-.2 5.29-4.04 11.59-8.95 13.31z"/><path d="m59.27 18.91c-.1376693.0783843-.2681727.1687328-.39.27-7.55 11.33 13.74 1.57.39-.27z"/></g></svg>