<svg height="153" viewBox="0 0 177 153" width="177" xmlns="http://www.w3.org/2000/svg"><g fill="#fff"><path d="m55.25 6.812c-10.582-15.132-9.334.832.793 3.497.0134551.0978921.0648057.1865885.143.247-16.12 4.342-4.524 8.879 4.784.689 1.04.169 2.067.403 3.107.624-17.134 4.082-9.1 12.792 1.911.442 1.3.338 2.6.715 3.9 1.17-17.225 3.419-10.088 12.922 1.612.585 1.1395861.3937876 2.2551586.853907 3.341 1.378-16.588 4.68-9.75 15.015 1.04.507 1.586.806 3.159 1.677 4.758 2.496-16.9 2.756-11.804 14.989.715.351 2.86 2.6 16.38 3.666 15.457-.741-3.653 3.549-10.4 2.314-14.859 0-.598-17.043-11.895-14.417-1.677-.871-1.3-.676-2.6-1.3-3.9-2.002.325-16.484-10.777-14.807-1.898-.884-.790879-.3715488-1.6025649-.6970913-2.431-.975-1.846-16.731-12.805-13.403-1.846-.702-1.222-.416-2.47-.78-3.718-1.105-2.067-18.109-12.584-12.246-1.378-.325-.845-.195-1.69-.377-2.6-.533-5.2-15.366-15.444-10.764-2.145-.377-1.196-.182-2.379-.351-3.588-.468-.455-1.001-.962-2.015-1.521-3.003z"/><path d="m28.171 37.388c.3309186.2549407.8028662.2094517 1.079-.104 2.873-3.081 10.127-13.156 5.135-14.742-11.336-1.768-17.888 33.527-15.821 40.3 6.877 12.766 13.988-10.972 13-18.98 2.9917998-.4437462 5.8153584-1.6628064 8.19-3.536.338 2.6 3.692 5.85 7.332 3.185.7091964-.5408456 1.3507998-1.1649905 1.911-1.859-4.68 15.6 8.788 9.646 13.975.793-.1173559.5867604-.1826099 1.182747-.195 1.781.208.715 3.9.767 4.42.104 1.638-2.47 3.445-6.786 5.291-9.919-5.356 23.907 4.329 15.756 10.075 1.586-4.472 14.872 2.834 23.595 13 8.359.117 11.817 12.233 5.733 16.263-1.976 1.118 15.392 14.508 7.644 18.772-1.599.339764 1.4092095 1.350806 2.5612144 2.704 3.081 3.237 1.079 4.888-1.586 6.318-4.316-.611 1.846-1.3 3.705-1.95 5.551-29.328 24.128.429 31.772 5.291.715 5.096-4.771 13.312-2.717 15.522-8.931-.559-.104-1.027 0-1.586-.104-1.911 4.667-8.892 3.393-13.26 6.422.819-4.199 8.021-17.134-1.443-13-.884 2.431-7.631 18.07-7.566 9.919.364-3.718 3.432-8.918 3.302-10.218-6.5-2.6-6.617 2.444-7.592 8.489-1.989 3.406-6.266 10.01-10.4 10.504s-3.12-8.528-2.665-11.193c.18422-.0214426.35247-.1149146.468-.26 25.259-32.24-2.951-32.721-5.941 2.145-4.563 8.32-14.443 15.223-10.4 1.3 2.6-9.1 6.656-12.883-2.028-10.673-1.3342786 3.3634568-2.4587684 6.8063929-3.367 10.309-13.741 22.672-9.438-1.963-7.137-9.594.104-.507-4.108-.975-4.68-.767-.871.26-5.694 10.478-8.476 15.418.26-1.703 2.782-14.443 1.898-15.158-.156-.416-3.9-.52-4.108-.156-.572 0-4.368 7.865-5.2 9.347 1.3-5.395 4.914-11.7-3.133-9.1-.26.936-1.04 4.784-1.664 8.177-2.405 4.212-7.995 11.57-11.375 11.349-2.6 0 4.472-13 4.771-15.21 0-.104 0-.156-.156-.26-2.236-9.867-16.289-4.537-17.004 3.822-2.3148316 2.1245967-5.187459 3.5451268-8.281 4.095-.156-2.119-.871-3.9-2.717-3.757-.5719278.0470252-1.1223459.2394478-1.599.559l.871-2.21c0 .104.104.208.156.312zm6.37-12.844c1.3 1.495-3.445 8.684-6.162 11.609 2.821-6.682 5.499-11.609 6.162-11.609zm93.6 40.3c-5.499-1.742 4.875-15.6 8.476-16.796-.117 1.352-5.2 17.81-8.437 16.731zm-.897-49.244c.52 4.056-4.823 12.389-9.347 18.811 2.717-11.011 8.58-20.501 9.347-18.811zm-73.723 16.393c.819 0 1.69 1.131 2.106 2.262-1.0961218-.2458871-2.2267351-.2986784-3.341-.156-.78.468-2.47 3.549-2.834 4.212-1.495 2.6-3.341 5.044-5.083 4.472-2.574-.767 4.004-10.998 9.152-10.79zm-24.167 8.528c.4376901.6177221.6861271 1.349482.715 2.106-4.771.936-2.21-3.627-.715-2.106zm.715 3.601c0 3.237-2.054 20.8-6.162 19.11-2.314-2.6.559-16.744 2.002-20.657.364 1.131 1.638 1.963 4.16 1.547z"/><path d="m106.522 16.679c-2.873-.767-6.5 5.811-2.262 7.15 3.913 1.183 5.655-6.279 2.262-7.15z"/><path d="m75.166 57.33h.208l.988-.403-.455-1.092c-.117.065-2.275.455-.741 1.495z"/><path d="m86.58 63.999c.858-1.17-.793-1.3-3.432.299.182-.572-3.51-2.6-1.404-4.797 1.391-1.573 2.21-.416 2.782-2.041-.221-1.196-5.811 1.222-4.394 4.654-1.612 2.158-4.199 4.706-5.356 4.056-1.092 1.56 2.6-10.114-.312-5.694-3.575 9.594 2.717 7.735 6.37 2.678.572.754.169.208 1.3 1.69-13.663 7.566 3.224 10.127 1.651.507.715-.351 1.17-.585 2.795-1.352zm-3.9 4.03c-5.59 5.564-6.253.637 0-2.132.3858.6622805.3707635 1.4842725-.039 2.132z"/><path d="m99.125 60.372s0-1.3-1.079-.481c-3.9-4.264-10.127 12.142-1.651 5.434-.416 4.875 9.75-1.625 5.72-2.015-1.95 2.483-6.227 5.057-3.783-1.157.39-.793.663-1.456.793-1.781zm-1.885 1.3c-5.07 9.204-5.2.325-.416-1.3.195 0 .091.234.533 1.053z"/><path d="m129.064 80.301c2.886.871 4.173-4.641 1.664-5.291-2.119-.572-4.823 4.29-1.664 5.291z"/><path d="m175.565 90.142c-1.001 2.6-6.006 4.979-8.749 4.862-1.56 0-2.392-1.976-1.82-3.9 1.703-.949 4.212-2.665 4.901-4.03-.234-5.668-10.127-.286-8.567 4.719-2.444 3.653-10.153 11.934-10.621 5.278-.247-5.798 7.67-15.106 5.499-6.838-.058753.1285033-.059667.2760142-.002511.4052357.057155.1292216.166909.2277832.301511.2707643 1.3-.416 1.768-3.666.234-5.044-3.9-1.768-7.254 1.664-8.801 5.733-2.09808 2.0553327-4.868133 3.2833898-7.8 3.458-1.56 0-2.405-1.976-1.833-3.9 1.716-.949 4.225-2.665 4.914-4.03-.286-5.668-10.244-.273-8.554 4.888-2.6 4.927-9.997 11.245-8.073 2.6 1.3-6.617 5.915-11.557-1.092-9.542-.351.975-.819 2.184-1.3 3.497-1.988381.2573852-3.95933.635078-5.902 1.131 1.183-4.823-1.82-6.773-4.628-6.422-3.081.533-4.147 3.991-5.395 6.916.182-.65 1.781-6.162 1.781-6.383-1.220474-.2159399-2.475413-.1266204-3.653.26-.247.91-1.3 4.407-2.6 8.567-11.505 15.873-7.436-1.963-5.005-6.981-.338-.494-6.5-.273-7.41-.377 8.463-18.98-8.19-8.268-1.43.52-1.599 4.563-5.317 9.464-10.751 9.23-1.56 0-2.392-1.976-1.833-3.9 1.716-.949 4.225-2.665 4.914-4.03-.299-5.681-10.4-.26-8.528 5.018-15.821 22.906-12.142-1.3-6.266-11.635.897.273 9.347-.273 8.892-2.6-2.5670454 1.2554335-5.4527487 1.7084481-8.281 1.3.377-.793.793-1.56 1.17-2.275-.377-1.443-1.976-1.833-3.38-1.976-.8020145 1.1211179-1.5148668 2.3034096-2.132 3.536-3.627-.689-6.916-1.027-10.179 2.379 4.511-8.19-5.759-5.551-4.797 1.495-2.0016726 2.3780936-3.744805 4.9622874-5.2 7.709v.078c0 .078-.065 0-.078.078-1.222 2.6-6.24 9.685-9.1 9.503-1.911-.026 3.289-9.646 3.497-11.31 0-.078 0-.104-.117-.182-1.807-7.618-12.779-2.925-12.649 3.588-11.089 18.655-7.176-1.027-5.72-6.292.078-.377-3.042-.715-3.458-.572-.65.195-4.212 7.8-6.266 11.401.182-1.3 2.054-10.673 1.404-11.206-.9827852-.324491-2.03719418-.3650452-3.042-.117-.416 0-3.224 5.811-3.9 6.916.767-2.977 3.536-8.957-2.314-6.682-.325 1.274-1.95 9.646-1.846 10.166s2.899.572 3.276.078c1.209-1.82 2.6-5.018 3.9-7.332-3.9 16.978 2.99 12.22 7.449 1.17-3.9 14.092 4.459 16.068 10.829 4.238.871 1.209 2.093 3.107 5.2 1.3.5204289-.3730299.9920983-.8097607 1.404-1.3-3.705 14.859 10.764 3.042 12.467-3.055h.078c1.1650513-2.2760861 2.596418-4.4056805 4.264-6.344.117 2.132.338 4.069.26 6.123-20.605 11.7 3.991 21.086 3.9.416 2.1445143-.4979615 4.3143349-.87985 6.5-1.144-4.875 18.967 7.891 16.263 14.69 3.9 4.953 7.163 15.106-.754 16.692-7.111.0512288.0126651.1047712.0126651.156 0 1.1875688.1221655 2.3813038.1742557 3.575.156-1.755 3.9-5.395 14.404 2.275 13.91 2.106-.234 4.134-2.015 5.811-4.147-2.093 6.929-4.251 14.3-4.082 14.56s3.536.312 3.9-.156c3.315-8.736 4.55-20.566 10.803-25.909 1.963.455 1.781 2.964.793 5.395-13.702 6.11 1.391 9.802 3.757.871 1.949309-.6077387 3.944919-1.0555552 5.967-1.339-4.758 13.221 5.486 13.767 11.336 3.653 2.119 4.147 8.268 3.146 12.194.247-.884 4.069.234 8.034 4.693 7.527 3.081-.234 7.306-4.68 9.672-7.969 2.496 5.928 13.273 1.781 14.924-2.756-.208-.221-1.014-.572-1.118-.26zm-6.5-3.991c0 1.027-2.314 2.886-3.562 3.302.637-1.053 2.418-3.796 3.627-3.302zm-26.65 0c0 1.027-2.314 2.886-3.575 3.302.637-1.053 2.418-3.796 3.64-3.302zm-60.957 0c0 1.027-2.314 2.886-3.575 3.302.637-1.053 2.431-3.796 3.64-3.302zm-49.062 4.849c-1.105 1.898-2.47 3.731-3.757 3.302-1.898-.559 2.964-8.125 6.76-7.982.611 0 1.3.845 1.56 1.677-.8108708-.17781-1.6459524-.2173665-2.47-.117-.8308881.9441634-1.5345388 1.9930836-2.093 3.12zm13.468 9.308c-7.696 4.121-2.496-8.242 3.185-9.1-.104 1.482-1.17 6.799-3.185 9.113zm8.164-23.088v.195c-.2437088.8794828-.6021204 1.7230613-1.066 2.509.1171598-.9779386.4842919-1.9092006 1.066-2.704zm-.91 12.35c0-2.509-.377-4.602-.377-7.293.26-.442.533-.884.793-1.3-.0939954.1525167-.0630351.3507531.0729895.4673456.1360245.1165925.3366639.1168701.4730105.0006544 2.964-2.6 5.811-2.288 9.1-1.677-1.3594594 2.7806613-2.4898731 5.6675639-3.38 8.632-2.2466712.2701071-4.4772162.6606694-6.682 1.17zm37.336-4.979c-.5377696-3.1403551.2898487-6.3609726 2.275-8.853.507 1.443-.793 5.278-2.275 8.853zm19.097 10.153c-.273-1.17 2.483-2.6 3.9-3.198-1.274 2.353-3.068 4.225-3.9 3.198z"/><path d="m67.08 129.051c-1.456 1.443-6.396 1.391-7.8.559-.455-.819-2.379.078-.975 1.3 5.629 24.063-8.671 27.963-.481-2.158 19.721-25.779 5.915-33.007-.286-5.382-1.5938441.890488-3.5042909 1.014667-5.2.338-2.197-1.794-5.876 2.015-6.058 4.888-.923 9.802 8.06 4.927 6.877-2.99 1.2910793.327088 2.6510351.254557 3.9-.208-.234.91-.455 1.82-.65 2.691-.0115715.077571-.0115715.156429 0 .234-1.3 5.72-2.119 10.309-2.145 10.4-2.132 28.08 11.44 6.058 6.24-7.072 1.404.949 11.115-1.261 6.578-2.6zm-1.222-21.619c3.263.845-3.393 11.037-6.916 16.796 2.002-7.67 4.628-15.574 6.916-16.796zm-14.404 21.268c-3.185 9.464-5.98-1.677-.676-3.978l.585.273c.2953673 1.214225.326401 2.477739.091 3.705z"/><path d="m107.081 134.069c-4.381 6.084-5.07-1.443-4.199-7.176 1.716-3.055 3.107-5.668 4.212-7.917 3.9 1.755 18.512-2.288 11.999-3.081 0 .936-6.292 2.444-11.245 1.547 9.36-19.643-2.171-13-4.212-.273-8.736-.754-15.093 1.131-10.881 2.431.377-.377 2.301-1.157 10.4-.806-1.014 3.913-1.755 7.306-1.755 7.644-.119604.632084-.206387 1.269938-.26 1.911-2.821 3.198-8.801 7.28-5.46-1.3.26-3.588.65-3.406-.39-3.042.442 1.963 2.197 1.443 0 0-2.6-3.51-9.659 4.42-7.878 8.463-.351.338-1.118.819-1.417.611-1.3-7.579-1.768-10.621-8.645-1.755 7.644-27.677-12.753 19.812 5.85-3.926.598 2.496.468 10.569 5.278 6.097 1.196.468 2.769-.169 4.511-2.158-.091 4.082 5.876 2.431 7.93-.598-1.053 13.845 11.492 3.029 6.162 3.328zm2.756-27.56c.078 0 .143-.078.13-.104.52.923-1.3 5.486-3.9 10.907h-.858c1.456-4.953 3.211-9.867 4.628-10.803zm-5.018 12.311h.52c-.364.741-.741 1.482-1.131 2.236.195-.702.39-1.456.611-2.236zm-10.634 7.566c-7.241 12.831-6.734 0-.559-1.807.2903797.277972.4820886.643132.546 1.04.0293534.132125.0870119.256313.169.364z"/><path d="m130 123.11c-2.938-.338-5.434 2.301-7.28 5.902 2.6-7.384 1.989-16.198-1.222-1.95-1.703 2.054-4.745 4.758-5.954 4.186-1.716.962 3.822-9.763.169-8.632-1.768 3.9-5.59 9.412-6.747 9.1-1.066-.767 3.237-12.116-.325-6.916-4.03 8.476.286 11.531 5.265 4.199-1.001 4.836 3.692 4.576 6.942 1.014-1.729 11.7 1.638 3.51 4.329-2.171 1.17-3.965 6.253-1.599 4.823-4.732z"/><path d="m141.804 127.946c-2.444 2.314-9.737 8.723-9.568 2.132 15.34-9.477-2.249-11.518-1.534 1.495-.156 8.138 16.432-2.99 11.102-3.627zm-8.476-1.3c.715-1.183 1.963-2.99 3.354-2.964.247 0 .351.169.364.13 0 .611-1.859 2.327-4.238 3.9.155562-.351046.329126-.693834.52-1.027z"/><path d="m45.877 61.763c-.962-.481-3.991-1.443-5.2.845-15.041-5.291-6.097 9.321 4.537 12.792 2.769-2.795 6.487-10.244.663-13.637z"/><path d="m145.977 104c-1.837945-.091364-3.657804.399998-5.2 1.404-6.864-5.382-12.025 6.5-4.563 12.831 2.6-1.17 19.682-10.543 9.763-14.235z"/></g></svg>