<svg height="35" viewBox="0 0 99 35" width="99" xmlns="http://www.w3.org/2000/svg"><g fill="#fff"><path d="m30.86 0c-7.42 0-32.17.25-30.81 10.46 1.09 4 6.17 1.32 5.56-.85.35-4.06 6.16-4 8.3-4.86-.12 4.85-9.56 36.53-.33 29.19 2.76-9.83 2.93-20.32 4-29.68 4.11-.02 20.79.45 13.28-4.26z"/><path d="m27.59 16.55c-.0056777.0263645-.0056777.0536355 0 .08.01-1.07-.01-1.63 0-.08z"/><path d="m62.15 9.55c3.85-6.77-6.39-5.65-5.91-1.87.08 3.77 4.53 3.2 5.91 1.87z"/><path d="m92.15 28.87c.91-3.56 0-6.22 0-8.44 6.78-5.65-.79-6.51-2.58-3.89-3.52 3.61-5.86 6.73-9 8.72-.6979384.3524218-1.3014093.8667436-1.76 1.5-.12.07-.39.24-.82.54-.2387378.1657401-.5068428.2845208-.79.35-4.09.42.23-10.21-.18-10.42-.57-10.22-8 2.4-8.45 4.18h-.37c.71-4.66 2.61-8.8-1.5-8.19-2.9 2.72-3 7.39-3.36 11.18-15.34 13.07 4.43-19.98-7.94-9.78-.12.44-.42 1.4-.91 2.87-.53 1.81-.88 3-1.05 3.5s-.34 1.14-.47 1.66c-.21.14-.41.28-.61.4-2.6 2.17-5.16.71-5.76-1.3.15-.33.32-.68.51-1.06 3.09-5.47 3.37-10.68-2.35-7.36-.57.56-4 10.35-4.5 11.34h-.28l1.28-10.84c-5.65-5.1-7.52 8.97-8.9 11.17h-.24l1.05-10.85c-.6-1.53-1.2-.86-1.87-1.1h-.48c-2.89.39-3 3.88-3.19 3.56 0 1.19.07 2.95.11 3.05-.58 15.37 6.1 15.11 9.11 2.55l.54.07c0 14.16 4.13 8.88 7 2.05.4 4.95 5.13 4.42 8.05 3.12.5 5.38 6.18 3.93 10.59.77 1.63 10.1 7.67-5.48 9.37-7.5h.3c-2.16 10.54-.31 13.28 8.3 8.89 2.11 6.79 14.36 2.27 17.63.53l.37-4.14c-2.95 1.67-5 1.88-6.85 2.87zm-9.08-.45.49-.34.07-1.08 4.64-4c.78 8-2.81 7.94-5.2 5.42z"/></g></svg>