<svg height="65" viewBox="0 0 307 65" width="307" xmlns="http://www.w3.org/2000/svg"><g fill="#fff"><path d="m22.21 42.18c28.19-21.73-32.21-18.24-20.74 3.44 2.31 1.74 2.23-3.5 2.53-5.08 9.42-15.54 34.52-10.28 11.94 2.73.2596336 1.1755983 1.3061097 2.0094439 2.51 2 16.63-3.81 10.47 13.09 0 12.81-3.91-6.2-6.56-14-5.74-20.5-2.34-1.42-3.57 0-4.49 1.39-1.32 4.41 3 22.46 7.3 23.32 25.81-2.35 18.32-25.12 6.69-20.11z"/><path d="m125.28 16.81c-1.27-7.09-6.77 2.05-6.71 3.81h-.21c.43-4.71-1.4-7.9-3.41-4.31-.673723 3.0615993-1.071979 6.1773711-1.19 9.31-3.14 3.47-7.86 6.4-9.86 3.42 3.13-1.48 4.71-2.93 5.94-5.37 2.58-4.44-1.29-8.11-4.68-7.47-5 1.32-7 6.54-6.36 11.09-7.44 11.43-5.93-1.17-4.3-5.8-.42-11.45-8.38 3-9.17 5.14l-.42-.18c1.88-5.89 7.87-25.75-.44-24.45-5-.21-6.49 8.93-6.23 18.14-1.11-1-5.63.8-6.27.8 4.83-20.52-10.41-14.35-7.58 1.52-10.48 2.45-3.15 3.94.26 3 .2 1.3.43 2.53.68 3.7-9.11-5.79-18.18 0-16.38 8.69-3 2.69-4.2-1.48-4.4-4.7-3.12-6.49-6 3.79-5.44 5.47l-.19.07c-.85-4.65-3.47-7.23-4.44-3.24.24187 4.516235 1.0894526 8.9794973 2.52 13.27 6.68 10.31 4.19-7.5 4.52-10.11l.28-.11c2.5 5.83 6 5.22 8.58 3.09.27.49.56 1 .9 1.5 10 9.58 14.63-8.72 8.41-13.18l.08-.24c2.22719.6548558 4.3765074 1.5501253 6.41 2.67 2.6 8.77 7.2 11.59 14.51 3.66.68 1.87 1.43 2.93 2.19 2.71 3.23-4 3.13-10.6 6.44-13.89h.4c-4.23 14.28 5.7 13.64 10.66 6.86 1.320395 2.2047665 3.874175 3.3539673 6.4 2.88 2.793084-.5494072 5.349041-1.9461051 7.32-4 3.36 10 5.89-6.93 6.8-9.33h.3c1.16 8.57 7.34 6.12 10.43 3.29l-.09-4.35c-6.89 6.25-7.1.55-6.26-3.36zm-67.9 25.07c-4.5.49-3.93-4.71-4.26-6.76 2.55-11.91 8.88 4.81 4.26 6.76zm10.45-20.19c-.42-3.07.2-13 2.47-8.43.33 3.11-.89 6.32-1.35 8.24zm1.58 6c.66-1.48 1.06-2.48 1.35-3.19.2-.06 6.95-1.79 6.9-1.79.2492218-.3657512.4634983-.7541274.64-1.16.1476835 3.3913552.5454303 6.7671888 1.19 10.1-7.59 10.27-9.09 2.35-10.08-3.93zm13-2.38c-.13-1.4-.21-2.85-.23-4.34-.2764717-2.8556733-.2998963-5.7302003-.07-8.59 2.74-12.76 4-3.66 2.5 2.47-.78 4.24-1.61 8.05-2.15 10.49zm23.6-5.64c3.81 1.91-1.53 6.43-3 6.4200166-.33-2.9800166.8-6.2200166 3.05-6.3900166z"/><path d="m198.75 6.11c-1.3-16.68-14.29 5.48-13.7 10.91-5.71871.3510393-10.28283 4.9023029-10.65 10.62-.36.19-.66.34-.89.44-.310795.1594201-.608402.3433346-.89.55-.242748.1629376-.51422.2783132-.8.34-4.09.38.35-10.2 0-10.41-.46-10.23-8.08 2.3-8.5 4.07h-.37c1.1-5 2.34-9.61-2.12-7.81-1.464298 2.7626495-2.352246 5.7939184-2.61 8.91-2.33 3.12-4.83 5.06-5.81 3.77-.79-4.61 3-10.16.61-12.23-16.65-7.21-19.41 27-4 13.93 1.94 5.2 6.22 2.68 8.7.22 1.5 10.12 7.73-5.38 9.45-7.38h.3c-2.2 10.18-.53 13.07 7.49 9.28 1.24 3.09 4.68 4.3 10.13 0 2.22 7.1 8.37 2.64 11.21 1l-.09-3.91c-18.41 11.22 4.57-17.71 2.54-22.3zm-50.83 17.21c-.34 4.84-4.81 7.07-4.68 2.7.43-4.36 2.93-8.39 6.12-8.72zm36.26 3.77c-9.56 9.86-4.34-7.1.6-7.22-.18 2.98-.62 5.36-.6 7.22zm10.82-18.73c-1.48 5.28-3.79 9.15-5.86 13-.2-6.96 7.21-24.64 5.86-13z"/><path d="m225.23 23.63c-2.85-2.19-5.29-4.74-4.79-7.29 2.36-5.57 11.69-2.11 13.06.9 1.2 3.68-5.44 6.77-2.08 8.2 16.54-6-1.72-20.68-11.43-15-11.5 7.1 2.3 15.24 6.81 20 7.23 9.78-10.68 11.22-13.72 5.4-2.19-3.75 3.13-8.82-1.7-8.17-9.45 5.16.28 15.42 7.42 15.65 16.68 1.9 18.63-12.32 6.43-19.69z"/><path d="m249.44 26.74c5.54-5.5-4.65-7.15-5.2-3.38-.93 3.64 3.51 4.29 5.2 3.38z"/><path d="m302.72 54.49c2.54-6.74-6.86-1.7-7.71-.16l-.19-.09c2.78-3.83 2.84-7.5-.72-5.44-2.148375 2.2841438-4.086235 4.7575081-5.79 7.39-4.48 1.35-10.06 1.44-10.24-2.14 8.65 1.85 15.64-8.25 6.53-10.73-4.93-.44-8.9 3.32-10.35 7.47-11.64 3.69-8.34-3.53-5.54-9.19 1.4-.82 2.3-1.41 2.94-1.83.21.07 6.72 2.55 6.68 2.52 5.57-1.93-2.64-4.32-3.63-4.72 15.8-14-.2-17.76-7.05-3.16-10-4-4.85 1.4-1.54 2.63-1.46222 2.8301702-2.621964 5.8066232-3.46 8.88-2.62.67-4.41.54-6.18 1 1.65-3.29 1.35-6.07 1.84-8.24 7.82-4.07.62-6.53-1.69-4.35-4.21 2.77-7.17 5.31-10.71 6.58-1.015182.1742877-1.905115.7797336-2.44 1.66-11.51 3.75 11.74-18.88-1.89-12.79-.23.39-.78 1.24-1.64 2.52-.94 1.7-1.64 2.7-1.94 3.15-7.19 11.42.94 11.86 7.39 9.49.2 7.26 12.68 5.77 16.76 4.74 0 4.75 3.37 6.88 11.56 5 .108811 2.4699171 1.683767 4.6354808 4 5.5 2.690937.9616413 5.611706 1.076797 8.37.33-2.23 10.33 8.61-2.93 10.62-4.53l.27.13c-3.65 8.08 3.81 9 7.28 8.17l2.14-3.79c-9.12 1.94-6.39-3.07-3.67-6zm-18-7.36c2.28 3.6-4.63 4.73-5.88 4 1.25-2.81 3.89-5.02 5.91-4zm-7-16.83c-1.52 2.74-4.37 4.65-5.85 6l-1-.49c1.46-2.81 7.7-10.56 6.91-5.51zm-30.36 13.7 6.57-3.52c-1.01 8.38-4.93 6.93-6.57 3.52z"/></g></svg>