<svg height="144" viewBox="0 0 73 144" width="73" xmlns="http://www.w3.org/2000/svg"><g fill="#fff" transform="translate(-1 -29)"><path d="m8.28687891 55.3371194c1.86760029 0 3.80856059-.5896799 5.25616089-1.8519196 5.0456003-1.9157603 8.9555207-6.1359204 10.9838408-11.5320804.1052803-.2822396.1528806-.5515995.1528806-.8024793 0-1.0768797-.8713598-1.81832-1.7948001-1.81832-.6977604 0-1.4257604.4233598-1.8300805 1.4448001l.0011194-.0011202c-1.0544801 2.6516003-2.7283201 5.4488002-5.2091202 7.3628798.0005597-.0459204.0005597-.0924006.0005597-.1388807 0-6.552-6.55200005-11.256-6.55200005-13.328 0-.728 1.23200005-1.624 1.23200005-2.744 0-1.624-1.40000005-2.52-2.91200005-2.52-1.792 0-3.696 1.176-3.696 3.92 0 .0666402.00223963.1332803.00616004.2004801-.96823963 2.8375199-1.83119983 5.0428002-2.69416004 7.2480805-.11423962.2895199-.16575952.5633599-.16575952.8170398 0 1.0516799.882 1.7539195 1.80823963 1.7539195.70951989 0 1.44480017-.41216 1.82951989-1.3949602.5135199-1.2829602.96880017-2.5659204 1.42519983-3.9082404 2.21367993 2.9674403 5.29535982 6.1868806 5.29535982 9.452801 0 1.4795199-.5398399 2.4707197-1.3232802 2.9562396-.42335989.0448002-.85959952.0677604-1.30927945.0677604-.952 0-1.96-.224-2.968-.56-.46367993-.1584801-.88480017-.2296004-1.26-.2296004-1.34680017 0-2.10056054.9144801-2.10056054 1.9656004 0 .784.392 1.624 1.288 2.296 1.176.896 2.856 1.344 4.536 1.344zm20.83256059.1108806c4.2884801 0 7.3152802-2.3060796 9.1319204-5.4773599 4.0639204-.3673598 8.2196807-2.9517595 10.132641-8.0180796.1142396-.2962396.1657595-.5762396.1657595-.8349593 0-1.0679204-.8741601-1.7757604-1.7959204-1.7757604-.7134403 0-1.4554403.4244801-1.8424005 1.4347197l.0005605-.0005605c-1.0550398 2.7591202-2.9920796 4.45984-5.0870398 5.18784.3303997-1.3568798.4944793-2.7568798.4944793-4.12384 0-4.3808798-2.0608002-8.4845597-5.18168-9.6773599-1.0712803-.4524801-2.3576003-.7386401-3.83432-.7386401-6.944 0-11.088 7.28-11.088 13.832 0 5.32 2.744 10.192 8.904 10.192zm6.1644801-9.4824792c-2.4163997-.9828002-3.9804793-3.598-3.9804793-6.4215199 0-1.96.728-3.584 1.96-3.584 1.6799992.0005596 2.6319992 2.5765596 2.6319992 5.7125596 0 1.6301601-.2228798 3.0631999-.6115199 4.2929603zm-6.1099196 5.3954792c-2.5745597-.0009991-4.5345597-1.9609991-4.5345597-6.1049991 0-3.2451999 1.2863201-6.85384 3.5229602-8.6917604-.3611998 1.1317604-.5555199 2.3816808-.5555199 3.6512007 0 3.6377603 2.2568002 7.4390406 5.8951203 9.0294403-1.1535066 1.3195776-2.6027207 2.0332547-4.068363 2.1084794zm17.9231194 3.9749991c1.344 0 2.128-.784 2.128-2.352l.0007315-2.4527867c.0005486-.5815102.0015087-1.1403331.0031889-1.6788932.1629602-8.6189602 4.6194403-12.3888806 7.1640804-12.3888806 1.512 0 2.128.616 2.128 2.352 0 2.296-.896 5.656-.896 9.688 0 4.368 2.184 6.552 5.432 6.552 4.368 0 6.888-4.704 10.136-13.104.1036004-.2525597.1500805-.5011998.1500805-.7391998 0-1.0690398-.9413599-1.9208002-1.8989602-1.9208002-.67368 0-1.3551999.4211202-1.7231203 1.4845605l-.0011202.0000009c-1.344 3.416-4.088 10.192-6.16 10.192-.784 0-1.456-.672-1.456-2.8 0-3.416.896-7.224.896-10.528 0-3.024-2.24-5.264-5.768-5.264-2.8033599 0-5.4202396 1.61-7.5056799 4.7835199.0940796-.8097604.2060796-1.6307206.3387993-2.4880804.028-.1814404.042-.3572803.042-.5264006 0-1.1905597-.69216-2.0490398-2.114-2.0490398-1.456 0-2.24.728-2.408 1.96-.616 4.592-.84 11.48-.84 18.928 0 1.568.784 2.352 2.352 2.352z"/><path d="m54.2820894 154.24c-.6075133-.93152-1.8551464-1.19418-2.7866666-.586667-.9315203.607514-1.1941799 1.855147-.5866668 2.786667 1.255602 3.688345 1.7101565 7.602059 1.3333334 11.48h-3.12c-45.20000002-26.24-34-59.733333-24-95.92-8.88 3.1333333-8.7333334 17.2533333-10.9733334 25.5866667-6.89333329 32.1333333 2.8933334 55.3466663 28 70.3333333-1.8666666.626667-11.36-2.12-9.7866666 3.213333 4.4133333 2.4 12 0 17.5733333.786667 10.1333333 2.306667 6.3466667-11.56 4.3466667-17.68z"/></g></svg>