<svg height="59" viewBox="0 0 195 59" width="195" xmlns="http://www.w3.org/2000/svg"><g fill="#fff" transform="translate(-1)"><path d="m193.7 27.76c-.319156-4.3365393-1.647856-8.5383829-3.88-12.27-.191091-.2561308-.361623-.5269755-.51-.81-.195947-.2624916-.376259-.5362993-.54-.82-.31-.17-.63-1.2-1.8-2.24-2.739948-2.77276689-6.093548-4.8623441-9.79-6.1-1.35-.2-3-1.2-5.66-1.53-.63-.08-1.27-.3-1.89-.33-.61469-.11477798-1.235866-.19159005-1.86-.23-.71.15.29-.16-2.93-.23-.488993.07998438-.989152.05956974-1.47-.06-.58.19.08-.08-2.46 0-1.09.09-2.74 0-4.93.28-1.55 0-3.35.51-5.9.81-9.291244 1.76636285-18.27119 4.89333853-26.65 9.28-1.94.85-4.21 2.28-7.33 3.91-3.83 2.21-5.49 3.08-11.89 6.73-.54.44-1.09.44-1.63.9-.54.2-1.08.74-1.63.91-.515826.3415862-1.0574623.6424953-1.62.9-2.46 1.18-4.8 2.77-8.51 4.69-.4536997-.3794884-.9545082-.6987959-1.49-.95-.34-.33-1.06-.58-4.36-3-2.23-1.41-4.49-3.78-7.58-6.18l-1.92 1.49c3.87 3.25 7.53 6.7 12.81 10.09-.5607481.1613218-1.0772241.4486329-1.51.84-7.18 4-16.55 9.35-25.84 13-.92.52-2 .7-4 1.48-.95.28-2 .65-4 1.3-8.116705 2.5521496-16.6463521 3.5296818-25.13 2.88-.3.09-.59-.17-.89-.08-.5911991-.1144636-1.1890678-.1912847-1.79-.23-.2664737-.1625417-.5864933-.2128819-.89-.14-7.59-.88-17.68-6.05-19.61-15.64-.06.15-.13.3-.18.44-2-7.85-2-15.62 1.73-23 .65-1 5.34-6.94 7-7.67.2536273-.23007816.5319965-.43130894.83-.6.32 0 .25-.22 1.72-1 .3281183-.05038525.6398189-.17712066.91-.37.9125286-.36298025 1.8438658-.67676411 2.79-.94.6595781-.01034314 1.3111649-.1460904 1.92-.4 1.3248375-.21162462 2.6601001-.35182719 4-.42 3.6149519-.09711819 7.2309988.1472998 10.8.73.59-.75 1.19-1.49 1.81-2.22-.1164615-.00978592-.2335385-.00978592-.35 0-5.5046587-1.10925712-11.1626754-1.23115335-16.71-.36-.36-.07-.29.04-1.89.4-.3.19-.3 0-1.69.54-.6152786.18985726-1.2086165.44462383-1.77.76-.2020019.29339884-.5448265.45719281-.9.43l-.43.27c-16 7.84-17.66 35.58-4 46.3 1.1007016.7317022 2.2425883 1.3994722 3.42 2 1.8213315.829298 3.6954031 1.5375033 5.61 2.12 4.1 1 5.83 1.58 13.54 1.74.25-.09 1.53.09 3.83-.14 1.8-.19 4.17-.28 7.6-.9 1.39-.12 1.79-.41 5.62-1.12.6773583-.1116162 1.3457656-.2720339 2-.48.6920977-.0673063 1.3680779-.249821 2-.54 3.8985052-1.1582052 7.7280165-2.5370963 11.47-4.13.89-.48 1.9-.71 3.75-1.66 6.74-3.1 12.89-6.56 20.44-10.86.4814563-.179869.9306043-.436525 1.33-.76.49.12 1 .82 1.45.87.54.48 0-.07 2.19 1.3.5214382.2413299 1.0144604.5398264 1.47.89.26.06.25.16 1.46.74.25.19.49.25.74.45.48.28.94.53 2.54 1.34.310173.0609989.601469.1946526.85.39 3.16 1.06 3.78 2.14 11.48 2.81 0-.82 0-1.63 0-2.44-1.11-.08-.52 0-2.63-.28-3.623373-.6725099-7.121224-1.9002996-10.37-3.64-.31-.13-.28-.15-1.67-.91-.3-.09-.27-.21-1.67-1-.0989525-.2230727-.3161518-.3704578-.56-.38-.18-.25-.37-.33-.55-.29s-.37-.2-.56-.28-.36-.21-.55-.39c-.3814506-.1924226-.7460655-.4165437-1.09-.67.26-.28.52-.32.78-.52s.52-.3.78-.37c.26-.28.52-.23.78-.45s1.14-.59 2.33-1.32c.52-.23 1-.71 1.56-.88.553905-.2179973 1.075402-.5107083 1.55-.87.62-.3 1.24-.77 1.86-1 3.14-1.84 6.7-3.77 11.11-6.24 2-1.18 4.39-2.4 7.46-4 2.57-1.3 5.52-2.77 9.48-4.55.87-.24 1.75-.84 3.87-1.61 6.497799-2.65440647 13.321764-4.42682108 20.29-5.27 3.455165-.39510748 6.937447-.49880657 10.41-.31.636727.16057679 1.295091.21797262 1.95.17 3.230139.34205082 6.402849 1.0982582 9.44 2.25.560477.34067338 1.166541.59993407 1.8.77.566764.32817793 1.150961.6252835 1.75.89.650938.20713273 1.239091.5751581 1.71 1.07.773235.5578081 1.514411 1.1587614 2.22 1.8.24.17.23.21 1.27 1.5.2 0 .39.49.58.68.19.56.14 0 1 1.56.16.31.24.43.92 1.67 4.94 8.86 2.89 22-5.72 29.61-1.036879 1.0060431-2.199923 1.873284-3.46 2.58l.39 2.53c.090046-.0559083.183569-.1060103.28-.15 1.391353-.7211332 2.679537-1.6258893 3.83-2.69 5.5-5.19 10.63-12.93 10.13-22.17z"/><path d="m23.92 45.7c-4.1 1.7-7.09-3.37-10.15-3.26-1.5 4.08 14.49 7.14 10.15 3.26z"/><path d="m25.82 42.65c-2 .51-4.65-1.12-7.2-2.09-3.4 2.44 10.7 5.83 7.2 2.09z"/><path d="m193.2 12.14c-1.43-2.11-8.1-9.69-10.32-6.77 2.35.89 10.42 9.99 10.32 6.77z"/><path d="m195.53 9.19c-.72-1.62-8.88-9.86-8.17-5.34 2.49.15 7.47 8.89 8.17 5.34z"/><path d="m127.56 56.76c-3 .49-3-1-.43-2.59-.83857-2.2606315-.133142-4.8042014 1.75-6.31 4-3.25 5-2.46 6.83-8.63 4-11.76 11.32-10.7 13.4-2.77 2.22 14.48-11.92 27.54-21.55 20.3zm2.37-4.6c.31-.53 2.72-4 1.81-4.11-2.64 1.05-4.31 7.36-1.81 4.11zm16.31-7c3.53-19.9-8.42-12.89-10.81.84 1.07.37 4.48 3.7 1.53 4-3.74-3.49-2.47-.79-5.5 3.48-4.18 7.52 12.6 2.16 14.78-8.28z"/><path d="m157.71 51.34c-18.32 6-1.94-20.94 3.81-10.26 10.4-8.52-4.85 7.41-1 9.84 2.8.64 3.58-5.45 6.92-4.65.41 1-.45 1.75-1.82 3.55-.86.47-.09.65-2 1.71-.739517.8874551-1.84678 1.3845468-3.001372 1.347428-1.154593-.0371189-2.227641-.6043053-2.908628-1.537428zm.89-6.48c4.38-10.17-10.32.91-6.26 5.44 2.66.37 6.38-5.25 6.26-5.44z"/><path d="m179.67 50c5.59-17.11 5.42-17.05 5.72-17.33-15.16 24.63-1.71.16 0 0 .52-1.11-1.2-1.88-2.23-.81-2.38 2.79-3.74 5.63-5.85 9.64-.14.13-.17.16-.29-.07-4.62-11.14-20.1 14.82-6.16 11.28.89-.33 2.06-1.73 3.1-2.35.51 3.59 3.51 4.76 7.28 1.18-.53-.54-1.01-1.09-1.57-1.54zm-5.3-4.43c.43 1.53-9.14 10.71-6.81 1.8.85-3.74 8.85-11.13 6.81-1.84z"/><path d="m82 12.26c-8.34-5.88-17.7-14.32-27.55-7.18-7.7-5.84-21.45 2.67-26.09 7.8 4.6 8.34 19.18 10 25.12 1.94 7.68 4.64 21.35 7.09 27.76-.7.94.32 1.7-1.19.76-1.86zm-2.4.74c-.084627.1078929-.174746.2113629-.27.31-6.59-.2-13.63-4.89-19.07-8.8 6.91-1.51 13.56 4.21 19.34 8.49zm-28.93-7.65c-5.7565203 3.37634502-12.0852585 5.6644534-18.67 6.75 5.74-3.29 12.33-8.85 18.67-6.75zm-14.48 11.59c-1.6316387-.6445274-3.125087-1.5949036-4.4-2.8 7.3786207-1.1206157 14.457939-3.7082052 20.82-7.61-3.34 5.35-10.26 8.47-16.42 10.41zm17.72-4.2c-.1942474-.1390015-.4371006-.1920255-.6716072-.1466371s-.4400375.1851964-.5683928.3866371c-2.67 3.31-7.84 6.08-13.15 4.92 5.93-2.13 11.51-5 15-10.59h.15c2.46 4.51 7.81 8.5 13 9.91-4.8772158-.3801191-9.593887-1.9157795-13.76-4.48zm19.55 3.26c-6.71.1-13.5-3.83-17.24-9.73.5549239-.37518136 1.1364657-.70940081 1.74-1 4.85 3.6 12.48 8.78 19.31 9.81-.9287202.6062641-1.9387948 1.0776323-3 1.4-.1581013-.2997344-.471165-.4852537-.81-.48z"/></g></svg>