<svg height="40" viewBox="0 0 119 40" width="119" xmlns="http://www.w3.org/2000/svg"><g fill="#fff" transform="translate(0 -1)"><path d="m7 14.2c.08-6 10-6.39 12.44-4.11 2.44 2.79-1.62 6.33.23 8.2 14.8-8.1-6.42-20.14-15.32-9.37-8.68 12.55 10.88 12.67 16 17.5 5.74 8.42-15.54 16.46-15.29 1.35-6.3-.16-4.33 8.44-.88 10.36 9.39 6.44 27.19-2.58 20.71-13.39-4.31-6.26-15.67-4.23-17.89-10.54z"/><path d="m38.06 13.06c3.15-7.15-6.93-5-6.07-1.25.47 3.74 4.83 2.71 6.07 1.25z"/><path d="m111.48 33.28c1-3.54.21-6.22.3-8.44 6.94-5.43-.59-6.53-2.46-4-2.44 2.36-4.34 4.49-6.31 6.22l.38-2.51c-7.82 5-7-.63-5.54-4.34 0-7.2-7 .84-7.27 2.59h-.2c1.23-4.56 0-8-2.61-4.83-1.1995406 2.91824-2.1268171 5.9410944-2.77 9.03-3.72 2.82-8.88 4.83-10.29 1.55 3.35-.89 5.16-2 6.81-4.2 3.35-3.9.21-8.21-3.23-8.2-5.54.41-8.41 5.83-8.3 10.66-9.63 7.56-9.07-.37-8.43-6.65 1-1.26 1.66-2.13 2.12-2.74.21 0 7.18 0 7.13 0 4.55-3.76-4-3.13-5-3.16 9.91-18.64-6.4-16.56-7.71-.49-4.64-.47-7.45.7-4.46 2.33 2 .23 3 .52 3.94.67-.3839784 3.1525779-.4342568 6.336871-.15 9.5-2.2 1.54-3.92 2.06-5.39 3.16.37-3.66-.9-6.15-1.21-8.35 5.86-6.59-1.74-6.32-3.13-3.47-2.95 4.09-4.81 7.52-7.67 10-1.21.94-1.68 1.8-1.68 2.47-9.35 7.56 3.98-21.92-6.48-11.28-.07.45-.27 1.44-.6 2.95-.34 1.85-.57 3.05-.69 3.59-2.58 12.92 5.08 10.85 10.31 6.19 2.79 6.64 13.83.87 17.3-1.54 1.69 4.42 5.57 5.32 12.62.67.9470966 2.2872216 3.1844816 3.7735409 5.66 3.76 2.8523962-.0309535 5.6255512-.9425321 7.94-2.61 1.58 10.44 7-5.8 8.32-8h.3c-.22 5.64 2.47 7 5.36 6.68-1.27 1.49 0 2.83 1.75 2.49 1.26 7.78 14.32 3.44 17.75 1.75l.54-4.17c-3.01 1.64-5.07 1.78-6.95 2.72zm-45.41-26.9c-.46 3.1-2.47 5.89-3.4 7.63l-1.13-.1c.38-3.07 3.51-12.53 4.53-7.53zm-23.69 23.5 4.89-5.63c2.06 7.96-2.18 8.41-4.89 5.63zm36.13-10.17c3.4 2.58-2.68 6.05-4.12 5.77.17-3.03 1.87-6.01 4.12-5.77zm23.49 12.29 5.82-4.67c.53 8.46-3.59 7.75-5.82 4.67z"/></g></svg>