<svg height="129" viewBox="0 0 200 129" width="200" xmlns="http://www.w3.org/2000/svg"><g fill="none"><g fill="#fff"><path d="m6.3054755 104.576369c-.62365028.040666-1.24056567.152832-1.83861671.334294-.27504261.079575-.55398774.144983-.83573487.195965 0-1.40634-.12680115-3.569644-.38040346-6.4899133-.2536023-2.920269-.376561-5.1373679-.36887608-6.6512968 0-.3631124.45533141-.5475505 1.36599424-.5475505l1.19308357.0461095c.90489914 0 1.36023055-.3400576 1.36023055-1.0259366.07176132-.5111755-.12153429-1.0237346-.5129683-1.3602305-.42656681-.2383989-.91292646-.3484803-1.40057637-.3170029-.57636888 0-1.07204611 0-1.42363112 0-2.30547551.1075889-3.45821326 1.0067243-3.45821326 2.6974064.33045149.5072046.65898175 5.079731.98559078 13.7175797.32660903 8.637848.48991354 14.50144.48991354 17.590778 0 2.086455.46878002 3.129683 1.40634006 3.129683.43289296.018454.85811358-.118516 1.19884726-.386168.27299654-.198244.4406447-.510197.45533141-.847262.0053323-.251379-.02770854-.5021-.09798271-.743516l.12103747-.305475c0-1.786744-.1556196-4.447647-.46685879-7.982709-.31123919-3.535063-.46685879-6.186359-.46685879-7.953891 2.70893372 0 4.06340058-.530259 4.06340058-1.602305-.00092968-.382876-.14245558-.752074-.39769453-1.037464-.24111958-.299049-.60729647-.469364-.99135447-.461095z"/><path d="m21.0720461 118.933718-.5302594-3.008646c-.1211531-3.536213-.4521873-7.062111-.9913544-10.559078-.5553724-3.663212-.8864405-7.3569314-.9913545-11.0605185.0181296-.3784325-.1749518-.7357439-.5014409-.9279539-.3473984-.2099285-.7468897-.3177912-1.1527378-.3115209h-1.665706c-.4438041.6515786-.7492796 2.1731924-.9048992 4.5593595-.0634005 1.0835735-.1152737 1.7291067-.1440922 1.9596542-1.1270453 8.3533076-2.7631352 16.6299986-4.89913542 24.7838616l-.11527574.432277c-.00069216.376141.18217343.728964.48991551.945245.30262853.23751.67582055.367316 1.06051875.368876.778098 0 1.314121-.605188 1.6023055-1.815562.1976217-.931237.347672-1.871938.4495677-2.818444.1430044-1.203099.3761283-2.393765.6974063-3.56196l4.8242075.720461c.4072785 1.993868.6482604 4.018116.7204611 6.051874-.0642028.504243.1581038 1.00221.5763689 1.291066.4936408.249555 1.0442503.364846 1.5965418.334294.5535841-.22305.8873386-.791143.8126801-1.383285v-.051874c-.0779598-1.021007-.2340362-2.03454-.4668588-3.0317-.2219905-.960349-.3779748-1.93477-.4668588-2.916426zm-7.40634-2.818444c.4265129-3.362152 1.3871277-9.143132 2.8818443-17.3429397.0979827 1.054755.2708934 2.7435157.5244957 5.0778097s.4495677 4.380404.5763689 6.138329c.1268011 1.757925.2017291 3.233429.2017291 4.420749-.0243581.834496.023854 1.66953.1440922 2.495677-2.3342939-.161383-3.7752161-.420749-4.3285302-.789625z"/><path d="m45.5331412 124.432277c-.1921229-1.959655-.2881844-3.12392-.2881844-3.492796l.1210374-5.158501c0-2.117195-.1037464-5.517772-.3112392-10.201729-.2074928-4.683958-.3112391-8.2036506-.3112391-10.5590781.0035603-.4064981-.218346-.7815198-.5763689-.9740634-.3613812-.2368589-.7840522-.3630592-1.2161384-.3631124-.9567723 0-2.10951 2.4534102-3.4582132 7.3602309-.6071086 2.132565-1.1642651 4.245917-1.6714698 6.340057-.5072046 2.094141-.9913544 4.101825-1.4524495 6.023055-.4534102 1.92123-.7512008 3.127762-.8933718 3.619597-.4764649-2.520654-1.7502401-7.056677-3.8213256-13.60807-2.0710855-6.5513925-3.4582133-9.8271392-4.1613833-9.8271392-.4447398-.0025551-.8842511.0959901-1.2853026.2882347-.3489285.1359535-.5780671.4727873-.5763689.8472623-.0037173.3588447.0963598.7111162.2881845 1.0144092 0 3.3237272-.2516811 8.307397-.7550433 14.951009-.5033621 6.643612-.7608069 11.629202-.7723343 14.956772.0070261.331465.1746874.638844.4495678.824207.3363151.237768.7410795.359198 1.1527377.345822.4118655.047198.8207942-.109917 1.0951009-.420749.2435627-.352595.3613194-.776925.3342939-1.204611l-.0749279-1.458214c0-4.042267.3112392-11.81364.9337175-23.314121.8414986 2.566763 1.8731989 6.257445 3.0951009 11.072046 1.221902 4.814602 1.8232469 7.996158 1.8040346 9.544669-.0283771.559696.1641038 1.108163.5360231 1.527377.3912463.398334.9353765.608423 1.4927953.576369 1.0643612 0 2.8395774-5.271854 5.3256485-15.815562.9567723-4.076849 1.506244-6.330451 1.6484149-6.760807 0 .668588 0 1.677234-.092219 3.020173-.092219 1.34294-.0979827 2.507205-.0979827 3.458214 0 .951008.1210375 2.881844.3573487 5.659942.2363113 2.778098.3573487 4.927954.3573487 6.37464v6.259366c0 2.040346.5110471 3.06052 1.5331412 3.06052.4871637.000782.9394367-.252666 1.1930836-.668589.2725043-.364686.4309394-.801887.45535-1.256485.0013523-.381641-.0730949-.759755-.2190388-1.112391z"/><path d="m56.3054755 122.766571-1.4121037.051873h-.6455332v-1.360231-1.458213l-.2363112-10.37464.2651297-9.342939c0-1.6887611-.0691643-3.1988475-.1959655-4.5360233h2.5129683c.3639648.001262.7145903-.1369257.9798271-.3861672.2584508-.2020568.4145327-.507893.426513-.8357348 0-.6801153-.6628242-1.0259366-1.9827089-1.0259366h-5.8040346c-1.6099904 0-2.4149856.3842459-2.4149856 1.1527377-.051091.3931851.1034713.7850331.4092219 1.037464.3368598.2014914.7262051.2978242 1.1181556.2766571l1.1527378-.0461095h.9337175c.1613833 1.6368876.2363113 3.3890489.2363113 5.2507206l-.259366 10.893372.3342939 10.374639-.0979827.645533h-1.3832853c-.2449061.05546-.4545544.212696-.5763688.432277-.1820289.249482-.2808453.549964-.2824208.85879 0 .731988.5763689 1.100864 1.7291066 1.100864.1930005-.00553.3854824-.022853.5763689-.051873.9445157.086932 1.8932382.119647 2.8414986.097983h2.1498559c.4272439.007063.8405367-.152055 1.1527377-.443804.3112442-.264314.4904248-.652187.4899147-1.060519-.0115285-.853026-.6858801-1.25072-2.0172922-1.25072z"/><path d="m67.0028818 123.919308-2.0288184.074928c-1.0951009 0-1.648415-1.123919-1.648415-3.365994l.1902017-7.792507v-.974064c-.0167991-.572705.0811864-1.142981.2881845-1.677233l-.1440922-11.7521613.3342939-3.723343c.0038166-.3255066-.1301735-.6374523-.3688761-.8587896-.2287053-.234281-.5429203-.3653773-.870317-.3631413-1.129683 0-1.6945245 1.5370126-1.6945245 4.6109799 0 1.0220941.0941403 2.5590783.2824208 4.6109513v.357348c0 2.42075-.1037464 6.071086-.3112392 10.951009s-.3112392 8.530259-.3112392 10.951009c.0051263.401474.149808.78865.4092219 1.095101.2817215.342171.7103473.528623 1.1527377.50144.5359386-.014497 1.0586659-.169527 1.5158502-.449567 1.4771256-.031111 2.9503563.163247 4.3688761.576369.3688737-.061309.7138056-.222809.9971181-.466859.2836512-.198705.4516829-.523998.4495678-.870317.0115273-.956772-.8587897-1.435159-2.6109511-1.435159z"/><path d="m79.1527378 93.6138329c-.2345313-.1859772-.5248884-.2875006-.8242075-.2881845-1.0682037 0-2.0883766 2.6436119-3.0605188 7.9308356-.3842459 2.074928-.6378482 3.292988-.7608069 3.654179 0 0-.3054755-1.118156-.9106628-3.319885-1.3832853-5.029779-2.5763689-7.5523534-3.5792507-7.5677232l-1.1008646.8069164v.2708934c0 1.0489913 1.0835735 4.3054755 3.2507205 9.7694524.9567723 2.436119 1.4658981 3.727185 1.5273775 3.873199v1.262248c.0345821.685879.1325648 1.832853.3112392 3.458213.1786743 1.62536.259366 2.881844.259366 3.729107 0 4.806916-.1825168 7.569644-.5475504 8.288184.1801053.609703.7253205 1.039407 1.3602305 1.072046 1.0682036 0 1.6023055-1.091258 1.6023055-3.273775v-14.760807c.0345821-1.62536.5168107-3.986551 1.4466859-7.083573.9298751-3.0970226 1.4005763-5.4562925 1.4121402-7.0778103.0026397-.2965747-.1420431-.5751432-.3862036-.7435158z"/><path d="m95.1008646 122.766571-1.4121038.051873h-.6455331v-1.360231-1.458213l-.2363113-10.37464.2651297-9.342939c0-1.6887611-.0691643-3.1988475-.1959654-4.5360233h2.5129683c.3639647.001262.7145902-.1369257.9798271-.3861672.2714796-.1951318.4407972-.50202.4610951-.8357348 0-.6801153-.6628242-1.0259366-1.982709-1.0259366h-5.8155619c-1.6061479 0-2.4111431.3842459-2.4149856 1.1527377-.051091.3931851.1034713.7850331.4092219 1.037464.3368598.2014914.7262051.2978242 1.1181556.2766571l1.1239193-.0461095h.9337176c.1613833 1.6368876.2363112 3.3890489.2363112 5.2507206l-.2593659 10.893372.3342939 10.374639-.0979827.645533h-1.3832853c-.2455443.054074-.4557059.211695-.5763689.432277-.1820288.249482-.2808452.549964-.2824207.85879 0 .731988.5763688 1.100864 1.7291066 1.100864.1930005-.00553.3854824-.022853.5763689-.051873.9445156.086932 1.8932382.119647 2.8414985.097983h2.1498559c.427244.007063.8405368-.152055 1.1527378-.443804.3112442-.264314.4904247-.652187.4899135-1.060519.0172911-.853026-.6512968-1.25072-2.0115273-1.25072z"/><path d="m104.449568 108.195965c-.503362-.918347-.972142-1.754082-1.40634-2.507204-.467174-.817068-.832985-1.688048-1.089338-2.59366-.257749-.790357-.403262-1.612987-.432276-2.443804-.005598-.578668.034876-1.1568625.121037-1.7291068.368876-2.259366 1.066283-3.4178674 2.103747-3.4582133.31063.1847385.664545.2841528 1.025936.2881845.795389 0 1.193084-.3842459 1.193084-1.1527378-.043503-.5012197-.332852-.9481982-.772334-1.1930835-.470085-.3619855-1.043711-.5639666-1.636888-.5763689-1.533141 0-2.755043 1.0489913-3.6829972 3.1527377-.5108111 1.2323068-.7619605 2.5567277-.7377521 3.8904899.0510617 2.5728272.7572619 5.0901542 2.0518733 7.3141212.576369 1.048991 1.152738 2.07877 1.729107 3.089337.595845 1.044568 1.088101 2.144906 1.46974 3.285303.386035 1.151681.580737 2.358837.576369 3.573487-.023781 1.419155-.23898 2.828609-.639769 4.190201-.186479.744291-.537008 1.437472-1.025937 2.028819-.38861.50567-.987658.805194-1.62536.81268l-2.0288187-.357349-.5475504.835735c.1268011 1.068204.8587896 1.696446 2.1959651 1.884726v-.115273c1.002438-.003196 1.980631-.308505 2.806917-.876081.809611-.554373 1.464289-1.306261 1.902017-2.184438.910403-1.746664 1.377517-3.690331 1.360231-5.659943.061418-2.36696-.454919-4.71323-1.504323-6.835734-.438041-.856869-.906821-1.744477-1.40634-2.662825z"/><path d="m121.371758 104.576369c-.62365.040666-1.240566.152832-1.838617.334294-.274879.080199-.553857.145615-.835735.195965 0-1.40634-.144092-3.567723-.380403-6.4899133-.236311-2.9221902-.357349-5.1354467-.357349-6.6512968 0-.3631124.455332-.5475505 1.360231-.5475505l1.193083.0461095c.910663 0 1.365995-.3400576 1.365995-1.0259366.072601-.5124561-.123337-1.026248-.518732-1.3602305-.426174-.24613-.914997-.3623255-1.406341-.3342939-.576368 0-1.072046 0-1.423631 0-2.305475.1075888-3.458213 1.0067243-3.458213 2.6974063.334294.5148895.664746 5.0854947.991355 13.7118158.326609 8.626321.489913 14.495677.489913 17.608069 0 2.086455.470701 3.129683 1.412104 3.129683.431147.018605.854608-.118457 1.193083-.386167.274997-.196492.443211-.509498.455332-.847262.006516-.255231-.026536-.509931-.097983-.755044l.121038-.305475c0-1.786744-.15562-4.447647-.466859-7.982709-.311239-3.535063-.466859-6.186359-.466859-7.953891 2.708934 0 4.063401-.530259 4.063401-1.602305-.001449-.381735-.140618-.750123-.391931-1.037464-.248155-.294424-.618095-.458133-1.002882-.443804z"/><path d="m137.429395 106.801153c.073345-2.75964-.348301-5.5101-1.244957-8.1210377-1.43708-3.8194044-4.048031-5.740634-7.832853-5.7636888-.519729.0315683-1.007122.2628734-1.360231.6455332-.46878.4341978-.947166 1.5638808-1.435158 3.3890489-.587896 2.167147-.883766 5.8174834-.887608 10.9510084v.881845c.051873 0 .074928.080691.074928.236311l-.04611 1.867435c.025775 2.420781.193208 4.837978.501441 7.239193.239119 1.958983.804062 3.864207 1.67147 5.636888.956772 1.986551 2.334294 2.981748 4.132565 2.985591 4.345821 0 6.518732-4.689722 6.518732-14.069165l-.092219-5.544668zm-2.772334 9.936599c-.087746.945906-.224335 1.886643-.409222 2.818444-.182153.860854-.416985 1.709713-.70317 2.541787-.231292.721709-.625738 1.380434-1.152738 1.925072-.411062.447913-.988652.706473-1.596542.714697-.737752-.361191-1.506244-1.571566-2.305475-3.631124-.820891-4.070546-1.207302-8.216741-1.152738-12.368876l.236311-4.518732-.046109-2.881844c-.029187-1.313561.124052-2.6248182.455331-3.8962538.363112-1.2564842 1.106628-1.8847262 2.21902-1.8847262 1.128652-.0238455 2.20032.4948419 2.881844 1.3948126.731509.9049427 1.137507 2.0295574 1.152738 3.1930834v.85879c0 1.239193.10951 3.129683.322767 5.659942.213256 2.53026.322766 4.409222.322766 5.636888s-.0634 2.70317-.224783 4.43804z"/><path d="m146.622478 112.9683c-.441882-2.305476-.7512-3.865514-.927954-4.680116.04611-.097982.299712-.576368.760807-1.423631.461096-.847262.870317-1.659942 1.221902-2.43804.355855-.807724.534693-1.682262.524496-2.564842v-3.4582128c.083511-1.479949-.562277-2.9071412-1.729107-3.8213256-1.241088-.9185323-2.756589-1.3898408-4.299711-1.3371758-1.083574 0-1.619597.7723343-1.619597 2.3054755 0 2.9471662.138329 7.4063397.414986 13.3775217.276657 5.971181.416907 9.869356.420749 11.694524 0 1.821326-.017291 3.465899-.051873 4.933718l.645533.714697h1.36023l.576369-1.314121c-.622478-2.486071-.933717-5.886647-.933717-10.201729l.046109-5.302593h.576369c.253602.587896.962536 3.804034 2.126801 9.648415.343406 1.783598.850846 3.531659 1.51585 5.221902.630164 1.567723 1.287224 2.351585 1.971182 2.351585.310611.011915.608256-.125131.801153-.368876.20177-.257776.307714-.577645.299712-.9049-.053031-.530722-.22438-1.042801-.501441-1.498559-1.175793-2.209414-2.242075-5.853986-3.198848-10.933717zm-3.412103-5.896254c0-1.152738-.034582-2.985591-.097983-5.510086-.063401-2.524496-.092219-4.4553318-.092219-5.7636891l.167147-.6916427c1.030408-.0412294 1.947872.6474705 2.195965 1.648415.143907.4550568.248045.9217458.311239 1.3948127.04611.426513.069165 1.0835735.069165 1.9711811-.072769 1.311471-.308986 2.608727-.70317 3.861672-.472623 1.652257-1.089337 2.680115-1.850144 3.083573z"/><path d="m159.18732 123.919308-3.608069.121038c-.113653-.911765-.144518-1.831948-.092219-2.74928l.213256-8.858789c0-1.225745-.048031-2.461095-.144092-3.706052h1.244957c.470157.061793.943679.094516 1.417867.097982.399818.013124.789528-.12709 1.089337-.39193.27207-.229351.43004-.566355.432277-.922191 0-.895293-.789625-1.341018-2.368876-1.337175l-1.729107.069164c-.097982-.478386-.144092-.731989-.144092-.760807l.213257-7.0259366c0-.6974063 0-1.4005764-.069165-2.0979827 1.261351.1848347 2.500984.4957084 3.700288.9279539.956773-.351585 1.435159-.8587896 1.435159-1.5273775s-.755043-1.1527378-2.270893-1.5677234c-1.166872-.3383026-2.370907-.5318773-3.585015-.5763688-1.367915 0-2.051873 1.1527377-2.051873 3.4582132l.26513 4.1325649-.334294 14.282421.305475 8.265129v1.291067c.024549.421715.235857.810522.576369 1.060518.316498.284817.726956.442843 1.152738.443804h4.132565c.506045.009017 1.00663-.105741 1.458213-.334294.407298-.199284.659932-.618836.645533-1.072046-.017291-.841498-.639769-1.221902-1.884726-1.221902z"/><path d="m175.717579 92.5129633h-1.07781c-.192123 1.1027908-.808837 5.0528388-1.850144 11.8501487-1.041306 6.797311-1.921229 11.996158-2.639769 15.596542-.053795-.284342-.169068-1.154659-.345821-2.610951-.176754-1.456292-.368876-2.910663-.576369-4.363112-.207493-1.444765-.518732-3.535063-.933718-6.270894-.462668-2.964908-1.084118-5.90285-1.861671-8.8011523-.829972-3.1200769-1.698367-4.6801153-2.605188-4.6801153-.307437.0016262-.602499.1213019-.824207.3342939-.261668.2560791-.396702.6147625-.368876.9798271.170522 1.1258822.458352 2.2308383.858789 3.29683.253603.7684918.743516 2.5437076 1.469741 5.3256486.726225 2.78194 1.454371 6.240154 2.184438 10.37464.750686 4.00096 1.136516 8.061821 1.152738 12.132564l.910663.743516c.795389 0 1.487031-.576369 2.0634-1.671469.665306-1.383222 1.121762-2.857478 1.354467-4.37464.318924-1.798271.572526-3.565802.760807-5.302594.18828-1.736791.355427-3.504323.501441-5.302594.146013-1.79827.286263-3.100864.420749-3.907781.132565-.801152.576369-2.593659 1.371758-5.371757.686844-2.2447248 1.074437-4.5702788 1.152738-6.916427.004996-.2943474-.121848-.5755178-.345821-.7665706-.21227-.1900659-.487409-.2947831-.772335-.2939531z"/><path d="m185.965418 123.919308-3.602306.121038c-.118107-.911384-.150911-1.8318-.097982-2.74928l.213256-8.899135c0-1.225745-.048031-2.461095-.144092-3.706052h1.244957c.472065.06203.947519.094754 1.423631.097983.398035.012815.785836-.127453 1.083573-.391931.27207-.229351.43004-.566355.432277-.92219 0-.895293-.789625-1.341019-2.368876-1.337176l-1.729107.069164c-.097982-.478386-.144092-.731988-.144092-.760807l.213257-7.0259364c0-.6974063 0-1.4005764-.069165-2.0979827 1.261351.1848347 2.500983.4957083 3.700288.9279539.956773-.351585 1.435159-.8587897 1.435159-1.5273775 0-.6685879-.755043-1.1527378-2.270893-1.5677234-1.165022-.3377804-2.367086-.5313494-3.579251-.5763689-1.371758 0-2.057637 1.1527378-2.057637 3.4582133l.26513 4.1325647-.334294 14.282421.305475 8.26513v1.291066c.024549.421715.235857.810522.576369 1.060519.316498.284816.726956.442842 1.152738.443804h4.132565c.506045.009017 1.00663-.105742 1.458213-.334294.407298-.199284.659932-.618837.645533-1.072046-.017291-.801153-.639769-1.181557-1.884726-1.181557z"/><path d="m199.487032 123.919308c-1.152738-2.224784-2.211336-5.87512-3.175793-10.951008-.445725-2.305476-.756964-3.865514-.933717-4.680116l.76657-1.423631c.461095-.853026.870317-1.659942 1.216139-2.43804.358628-.806838.537591-1.681988.524495-2.564842v-3.4582128c.08451-1.480135-.561478-2.9077686-1.729106-3.8213256-1.241504-.9177121-2.756712-1.3889295-4.299712-1.3371758-1.083574 0-1.62536.7684918-1.62536 2.3054755 0 2.9471662.140249 7.4063397.420749 13.3775217.280499 5.971181.418828 9.869356.414985 11.694524 0 1.821326-.015369 3.465899-.046109 4.933718l.645533.714697h1.360231l.54755-1.314121c-.614793-2.486071-.924111-5.886647-.927954-10.201729l.04611-5.302593h.576369c.253602.587896.960614 3.804034 2.121037 9.648415.345243 1.783795.854614 3.531863 1.521614 5.221902.626321 1.567723 1.283381 2.351585 1.971181 2.351585.309182.012903.605514-.124526.795389-.368876.203961-.256597.310176-.577284.299712-.9049-.052021-.523853-.219326-1.029703-.489913-1.481268zm-6.59366-16.858789c0-1.152738-.028819-2.985591-.092219-5.510087-.063401-2.5244954-.097983-4.4553311-.097983-5.7636885l.167147-.6916426c1.030408-.0412294 1.947872.6474704 2.195965 1.648415.149353.4535739.253604.9207731.31124 1.3948126.06069.6552165.085703 1.3132486.074928 1.9711815-.072333 1.311991-.310539 2.609539-.708934 3.861672-.464938 1.659942-1.081652 2.691642-1.850144 3.0951z"/><path d="m153.360231 71.8847262c-3.18732-5.221902-7.256485-6.4553314-10.478387-6.4149856 2.327098-.8323666 4.598757-1.8122602 6.801153-2.9337175 5.29683 8.5475504 16.051873.6167147 16.051873.6167147-3.51585-3.6541787-7.0317-4.4956773-9.919308-4.259366 2.773807-1.8869202 5.380844-4.0080298 7.792507-6.3400577 5.913545 8.4438041 16.190202-.4149856 16.190202-.4149856-5.337176-4.7608069-10.247839-3.9596541-13.34294-2.536023 2.119006-2.3594957 4.046352-4.8843195 5.763689-7.5504323 7.302594 6.7608069 15.596542-3.6023055 15.596542-3.6023055-5.942363-3.5965418-10.530259-2.0979827-13.331412-.2132565.512968-.9394812 1.008645-1.8904899 1.46974-2.8818443.870317-1.8328531 1.648415-3.7060519 2.368877-5.6080692 7.342939 7.0605187 15.757925-3.4582133 15.757925-3.4582133-7.193084-4.3458213-12.391931-1.2507204-14.85879.9855908.190202-.5763689.380403-1.0893372.576369-1.6311239.772334-2.351585 1.602305-4.778098 2.178674-7.2334294 10.887608-4.5590778 3.239193-17.86743516 3.239193-17.86743516-8.449567 6.47262248-5.827089 14.19020176-4.449567 17.00288186-.576369 1.9596542-1.083574 3.9654179-1.677234 5.9135447-1.089337-6-9.487032-8.7031701-9.487032-8.7031701-1.786743 9.8270894 5.239194 13.2853026 7.631124 14.167147-.489913 1.3083574-1.002881 2.6051873-1.561959 3.8847262-.768492 1.748319-1.611912 3.4582133-2.53026 5.129683 1.677234-6.9164265-7.412103-11.9769452-7.412103-11.9769452-3.988473 10.1383285 3.792507 14.8818444 5.227665 15.6541787-1.265838 1.9728894-2.655766 3.8633461-4.161383 5.6599423-.778098.9279539-1.590778 1.8270894-2.426513 2.6974064 3.740634-6.5244957-4.409222-13.740634-4.409222-13.740634-6.069164 8.9971181.426513 15.3025936 1.694525 16.4034582-2.638543 2.4243008-5.496106 4.5988271-8.536023 6.4956772 3.982709-5.925072-2.801153-13.832853-2.801153-13.832853-6.541787 7.3314121-2.587896 13.832853-.956772 15.9654178-3.11679 1.6439053-6.379621 2.9945746-9.746398 4.0345822 6.714697-5.2680116-.132565-15.1527378-.132565-15.1527378-7.492795 6.7665706-3.861671 13.8674352-2.530259 15.9481268-2.652389.691016-5.348169 1.2032144-8.069165 1.5331412-3.387304.3139731-6.788584.4524867-10.190201.4149856-.247839 0-.328531.4149856-.063401.4553314 5.878963.8818444 12.253602.1844381 18.005764-1.1527377.322766-.074928.639769-.167147.962536-.2478386 2.951008 10.4553314 15.763689 4.7896253 15.763689 4.7896253z"/><path d="m81.129683 68.0461095c-3.4035378.0376176-6.8067424-.1008961-10.1959654-.4149856-2.7209952-.3299268-5.416776-.8421252-8.0691643-1.5331412 1.3314121-2.0806916 4.945245-9.1815562-2.5302594-15.9481268 0 0-6.8242074 9.8789625-.10951 15.1930836-3.366777-1.0400076-6.629608-2.3906769-9.7463977-4.0345822 1.6311239-2.10951 5.5850144-8.6455331-.9567724-15.9654178 0 0-6.7838616 7.8847262-2.8011527 13.832853-3.0443937-1.8999146-5.9058526-4.0783281-8.5475504-6.5072046 1.2737752-1.1008646 7.7636887-7.4063401 1.6945245-16.4034582 0 0-8.1440923 7.2161383-4.4092219 13.740634-.8357349-.870317-1.648415-1.7694525-2.426513-2.6974064-1.5056166-1.7965962-2.895545-3.6870529-4.1613833-5.6599423 1.4351585-.7723343 9.221902-5.5158502 5.2276657-15.6541787 0 0-9.0893372 5.0432277-7.4121037 11.9769453-.9145053-1.6714698-1.7579251-3.3813641-2.5302594-5.129683-.5763689-1.2795389-1.0720461-2.5763689-1.556196-3.8847263 2.3861672-.8818443 9.4178675-4.3400576 7.6253603-14.1671469 0 0-8.3976946 2.70317-9.4870317 8.70317-.5763689-1.9481268-1.0778098-3.9538905-1.6772335-5.9135447 1.3775216-2.8126801 3.9942363-10.53025935-4.4495677-17.00288182 0 0-7.64841498 13.29106632 3.2449568 17.86743512.5763689 2.4553314 1.4005763 4.8818444 2.1729106 7.2334294.1786744.5417868.3688761 1.0835735.5763689 1.6311239-2.4841498-2.2536023-7.6829971-5.3487031-14.84149854-1.0028818 0 0 8.40922194 10.5244957 15.75216134 3.4582133.7204611 1.9020173 1.5043228 3.7752161 2.3746398 5.6080691.4553314.9740634.9510087 1.9250721 1.463977 2.8818444-2.8011528-1.8847262-7.3832853-3.3832853-13.3314121.2132565 0 0 8.2939481 10.3746398 15.5965417 3.6023055 1.717337 2.6661128 3.6446834 5.1909365 5.7636888 7.5504322-3.1066282-1.4351585-8.0230548-2.2363112-13.3602305 2.5244957 0 0 10.276657 8.8587896 16.1902017.4149856 2.4116634 2.3320278 5.0187 4.4531375 7.7925072 6.3400576-2.8818444-.2363112-6.3976945.5763689-9.9193084 4.259366 0 0 10.7550433 7.9308358 16.0518732-.6167147 2.2023964 1.1214574 4.4740554 2.101351 6.8011528 2.9337176-3.221902-.0403458-7.2910663 1.1930836-10.4783862 6.4149856 0 0 12.8184438 5.6657061 15.7579251-4.8069164.3227665.0806916.6397694.1729106.962536.2478386 5.7636888 1.3602306 12.1037464 2.0576369 18.0057637 1.1527378.2651297-.0230548.1902017-.4322767-.0576369-.4380404z"/></g><path d="m90.4899135 80.9913545c.9394813-.4899136 1.2161384-1.7752162.8991355-2.7896254-.398323-.9857022-1.0197862-1.8656151-1.815562-2.5706052.9326464.1815826 1.8915612.1815826 2.8242075 0 .9517414-.1951072 1.7070727-.9190597 1.9423631-1.8616715.2074928-1.2276657-.8414985-2.3054755-1.9365994-2.9221902-1.0951009-.6167146-2.3573487-.979827-3.1988472-1.9077809 1.3083573-.4956773 2.7665706-.5129683 4.0864553-.9913545s2.5648415-1.7291066 2.3054755-3.1008646c-.2173266-.8505357-.8341408-1.5425712-1.6541787-1.8559077-.8098155-.2983139-1.6620051-.4656388-2.5244957-.4956773 1.3195031-.5708884 2.1340988-1.9133495 2.0311581-3.3473667-.1029408-1.4340171-1.1009329-2.6463618-2.4884488-3.0229273-1.3875159-.3765654-2.8614842.1649005-3.6752741 1.3501211.761735-1.6362503.8076797-3.5158056.1268011-5.1873199-.7550432-1.6138328-2.610951-2.7550432-4.3400576-2.3054755-1.7291066.4495678-2.8357349 2.685879-1.8443804 4.167147-1.4755043-1.5850144-3.4582133-3.3198847-5.5158501-2.7204611-1.6368876.4668588-2.5763689 2.3054755-2.501441 4.0345821.074928 1.7291067.9510087 3.2622479 1.9135447 4.6743516-2.3110358-1.8011635-5.1399787-2.8115003-8.0691643-2.8818444-1.1527377 0-2.4783861.1786744-3.1815562 1.112392-1.1527377 1.5158501 0 3.4121037 1.3371758 4.2939481 1.1470224.7756658 2.3886214 1.4013077 3.6945245 1.8616715-1.2910662.5763689-2.7204611.7550432-4.0345821 1.2853026-2.0172911.8184438-2.9394813 4.1729106-.7550432 5.3429395.8095201.33567 1.7017777.4180632 2.5590778.2363112 2.6475856-.3133749 5.26655-.833699 7.832853-1.556196-2.835847 1.2889793-4.9885564 3.7246641-5.9193083 6.6974064-.5763689 1.9193083-.3515851 4.4610951 1.4697406 5.3025936 1.3314121.6051873 2.962536 0 3.9423631-1.1008645.9798271-1.1008646 1.4697406-2.5129683 1.925072-3.9020173-.3445129 1.0355729-.5234665 2.1190203-.5302593 3.2103746.0016558 1.1068528.5330319 2.1460359 1.4293948 2.7953891 4.167147 2.6570605 5.7118156-4.9337176 6.4726225-7.389049 1.6599423 1.4927954 4.3861671 6.9740634 7.1930835 5.5446686z" fill="#c44e43"/><path d="m75.9884726 64.518732c.5417868-.3746398 1.2680115 0 1.8040346.3976945-.6661087-.5917379-1.0337673-1.4496079-1.0028818-2.3400576-.0058952-.3216491.1000373-.6353721.2997118-.8876081.3969245-.3731887.9910323-.4433589 1.4639769-.1729107.4552785.2781378.8244103.6771992 1.0662824 1.1527378-.0392543-.6292877.1673928-1.2492291.5763689-1.7291066.4430569-.4779875 1.1510269-.6007023 1.7291066-.2997118.2657197.1698406.4403497.4507661.4750526.7642122.034703.3134461-.0742461.6257678-.2963782.8496206.2625791-.5923009.8200418-1.0005217 1.4639769-1.0720461.6505539-.0510614 1.2634464.3106834 1.5331413.9048991.246641.6070671.02335 1.3036379-.5302594 1.6541787.2807824-.245002.6527148-.358649 1.0224829-.312428.369768.046221.7022817.2479237.9141165.5545029.399657.6588965.3150372 1.5027434-.2074928 2.0691643-.5190701.5486881-1.2447945.8540361-2 .8414986.734298.0668951 1.384935.5006531 1.7291066 1.1527377.3290408.6736395.2247384 1.4785821-.2651296 2.0461095-.5132307.5529906-1.3348302.6903185-2 .334294.3047777.0620382.5675886.2533829.7202309.5243783s.1800674.5949247.0751581.8877254c-.2651461.5852876-.8958214.9137148-1.5273775.7953891-.6215489-.1466365-1.1405639-.5720586-1.4063401-1.1527378.1383486.7392983.1048237 1.5005106-.0979827 2.2247839-.2301416.7323052-.9155235 1.2252168-1.6829971 1.2103746-.6348948-.1327476-1.1240622-.6402016-1.2334294-1.2795389-.0931504-.6284968.0158412-1.2703361.3112392-1.832853-.3667915.4284434-.8155502.7792198-1.3198847 1.0317003-.501737.29712-1.1398119.2245923-1.5620659-.1775543-.4222539-.4021466-.5258024-1.0359269-.2534961-1.5515524.2252563-.5060289.5484738-.9624512.9510087-1.3429394-.4490865.1667499-.9501244.1157019-1.3563538-.1381914-.4062294-.2538934-.6716711-.6818952-.7185742-1.1586386-.0403458-1.2910663 1.481268-1.3371758 2.4034582-1.6195966-.2132565.0634006-1.1008645-.9106628-1.2334294-1.0951008-.2939481-.4380404-.3285302-.8760807.1556196-1.2334294z" fill="#3ea089"/><path d="m77.8616715 66.2824207c-.1957574-.2723384-.1479678-.6496246.1095101-.8645533.1088149-.1145422.2598781-.1793954.4178674-.1793954s.3090525.0648532.4178674.1793954c-.0429731-.3183197.1802394-.6112055.4985591-.6541786.3183197-.0429732.6112055.1802393.6541787.498559.0778695-.3406471.284378-.6380193.5763689-.8299711.2935172-.1894604.6745926-.1732936.9510086.0403458.1342338.1094587.2121261.273481.2121261.4466859 0 .1732048-.0778923.3372271-.2121261.4466858.3066104-.1011018.6422718-.0609913.9164265.1095101.2714852.1780133.4153169.49714.3688761.8184438-.0489932.3337423-.3370513.5799458-.6743516.5763689.4092219.0979827.8818444.2536023 1.0144092.6512968.0830115.3925912-.139409.7855341-.518732.9164265-.3747267.1083918-.777216.0627486-1.1181556-.1268011.2701497.2774789.2701497.7196392 0 .9971181-.2888794.2503846-.6990778.3047756-1.0432276.1383286-.3362788-.1764841-.5860545-.4824593-.6916427-.8472623-.0155541.2008335-.0703854.3966597-.1613833.5763689-.0920439.1851042-.2832715.2998408-.4899135.2939481-.2677768-.0766302-.4424461-.3337822-.4149856-.610951.0465021-.2709237.1660731-.5240156.3458213-.7319884-.1337466.1362536-.3217744.2049788-.5118616.1870883-.1900871-.0178906-.3619901-.1204917-.4679655-.2793074-.2132565-.368876.1325649-.6512968.3631124-.8991354.0335244-.0269665.0543888-.0666088.0576369-.1095101-.006121-.0317021-.0199803-.0614007-.0403458-.0864553-.2012763-.2058766-.3880808-.42542-.5590778-.6570606z" fill="#c44e43"/><path d="m115.959654 81.8443804c1.002882.351585 2.126801-.3227666 2.651297-1.2449568.447539-.9649855.66647-2.0201943.639769-3.0835735.50327.8066312 1.156802 1.5090798 1.925073 2.0691643.793793.5570969 1.835039.6151922 2.685878.1498559 1.043228-.6916426 1.152738-2.2017291.818444-3.4121037-.334294-1.2103747-.893371-2.3976946-.789625-3.6426513 1.256484.6167147 2.259366 1.6714697 3.51585 2.3054755 1.256484.6340057 3.008646.6974063 3.838617-.4322767.475187-.7373933.56122-1.6600908.230547-2.4726225-.33341-.7976365-.794811-1.535488-1.365994-2.184438 1.317131.5725575 2.852215.2511486 3.829025-.8017036s1.182453-2.6076833.512945-3.878279c-.669508-1.2705958-2.068252-1.9800357-3.488944-1.7695851 1.716759-.5622976 3.120764-1.8158735 3.873199-3.4582133.668588-1.6541787.230547-3.7925072-1.256484-4.7608069-1.487032-.9682997-3.902018-.2363112-4.305476 1.4927954.149856-2.1613833.080692-4.7723343-1.775216-5.8904899-1.463977-.8760807-3.458213-.2997118-4.651297.9221902-1.193083 1.221902-1.729106 2.9221902-2.10951 4.610951-.2649-2.9136541-1.454413-5.6662959-3.394813-7.8559078-.778098-.870317-1.821325-1.6945245-2.98559-1.5677233-1.884727.2074928-2.495678 2.3054755-2.230548 3.9077809.21489 1.3671207.602223 2.7014849 1.152738 3.9711816-1.29683-.5763689-2.409222-1.4755043-3.694525-2.0691643-1.971181-.9106628-5.048991.6974064-4.414985 3.0951009.305307.8209216.854352 1.5288483 1.573487 2.0288184 2.034118 1.723132 4.200219 3.2841121 6.478386 4.6685879-2.886831-1.2037398-6.150608-1.115643-8.9683.242075-1.798271.887608-3.498559 2.795389-2.881844 4.6974063.461095 1.3832853 2.034582 2.1440922 3.498559 2.1268012 1.463977-.0172911 2.835735-.6397695 4.161383-1.2507205-.992732.4517859-1.907166 1.0588142-2.708933 1.7982709-.809024.7554187-1.207558 1.852458-1.072047 2.9510086.910663 4.8645534 7.492796.8126802 9.798271-.3054755.097983 2.2363113-2.051873 7.9769453.910663 9.0432277z" fill="#c44e43"/><path d="m118.103746 60.0115274c.645534.1383285.853026.9337176.939482 1.5850144-.016355-.8825107.35938-1.7268601 1.025936-2.3054755.231618-.2227745.532802-.359121.853026-.3861672.545938.0329625 1.004229.4230975 1.12392.9567724.10835.5207819.070447 1.0613912-.109511 1.5619596.441285-.4653683 1.047819-.7386192 1.688761-.7608069.653592-.0001815 1.226804.4362143 1.400577 1.0662824.055573.3105016-.03153.6295276-.23718.8687082-.205651.2391806-.508015.3731215-.823339.3647212.613605-.2134232 1.294436-.0838457 1.786743.3400577.47779.4388199.631865 1.1287081.386168 1.7291066-.259366.5763689-1.60807.9798271-2.213257.7896253.74928 0 1.948127.8011528 1.786744 1.5331413-.218033.7358397-.886884 1.2462174-1.654179 1.2622478-.756983-.0063805-1.476445-.330557-1.982709-.8933718.460751.5881714.587004 1.3718101.334294 2.074928-.271027.6983826-.928866 1.1708515-1.677234 1.2046109-.753378-.0035871-1.412594-.5074164-1.613832-1.2334294.165033.2622975.20708.5836572.115088.8795849-.091993.2959277-.308821.5368128-.593475.65932-.609891.208177-1.282872-.0304686-1.62536-.5763688-.321204-.5459401-.372257-1.2096282-.138328-1.7982709-.447409.6026755-1.024552 1.0970878-1.688761 1.4466859-.695265.3339248-1.527622.1669831-2.040346-.4092219-.335815-.5534734-.296888-1.2564406.097983-1.7694525.394725-.4979747.937771-.8573143 1.550432-1.0259366-.563201.0252403-1.125731-.0629612-1.654179-.259366-.540472-.2019514-.911047-.7035832-.945245-1.2795389.060484-.5642472.439202-1.0438075.974064-1.2334294.523884-.1801133 1.078283-.2545557 1.631124-.2190202-.429694-.2134821-.735786-.614519-.828363-1.0853064s.038874-.9578641.35574-1.3181518c.92219-.9048991 1.994237.1729107 2.829971.6512969-.190201-.1095101-.086455-1.4236312-.046109-1.648415.103746-.5648415.380403-.9106629.991354-.7723343z" fill="#3ea089"/><path d="m118.074928 62.5994236c.066686-.3295048.375101-.5526668.708934-.5129683.162289-.0006587.317336.0671332.42705.1867211s.163926.2798887.149319.441521c.111536-.2013305.332158-.317003.561191-.2942328.229032.0227701.422561.1796171.492274.3989672s.002243.4591464-.171621.609963c.297539-.1732159.649157-.2287345.985591-.1556196.339202.0876706.587717.3776048.622478.7262248.011909.1726916-.054428.3415918-.180677.4600204s-.299041.173844-.47062.1509306c.284815.1531476.485815.4260853.547551.7435159.054825.3215638-.082456.645638-.351585.8299711-.279148.1710264-.639968.1229171-.864554-.1152737.266845.3320578.349122.775918.219021 1.1815562-.226351.331765-.666839.4387763-1.020173.2478386-.33972-.1987197-.58337-.5277515-.674352-.9106628-.018676.389394-.348251.6906464-.737752.6743515-.381377-.0375212-.70236-.3015928-.81268-.6685879-.098033-.3647414-.04396-.7536462.149856-1.0778098-.158591.1268053-.340791.2208441-.536023.2766571-.235833.0742642-.489732-.0411011-.588912-.2675859-.099179-.2264848-.011769-.4913123.202744-.6142585.232038-.1472511.497942-.2325784.772335-.2478386-.191333-.0036824-.370766-.0935896-.488254-.2446465-.117489-.1510568-.160462-.3470995-.116934-.5334515.126802-.4034582.576369-.3458213.9049-.3458213.038929.0151209.082108.0151209.121037 0 .020855-.0263853.032946-.0586269.034582-.092219.018977-.2847273.057492-.5678145.115274-.8472623z" fill="#efbb55"/><path d="m91.1757925 87.3775216c.9106628.5360231 2.1440922.0979827 2.8414986-.70317.62423-.8540861 1.0442222-1.8399832 1.2276657-2.8818444.3398536.887671.8443815 1.703129 1.4870317 2.4034582.6704081.7004655 1.6803175.9596458 2.6051873.6685879 1.1527382-.4726225 1.5331412-1.9365994 1.4697402-3.1873199-.0634-1.2507204-.409221-2.518732-.069164-3.7233429 1.118156.8530259 1.896254 2.0864553 2.997118 2.9510086 1.100865.8645533 2.818444 1.2795389 3.855908.3285303.604644-.6335876.866479-1.5199628.70317-2.3804035-.171348-.8451956-.478911-1.6569284-.910663-2.4034582 1.180415.8083276 2.741283.7883457 3.900618-.049935 1.159335-.8382806 1.667399-2.314282 1.269654-3.688535-.397744-1.3742529-1.615617-2.3507233-3.043471-2.4402043 1.790472-.2148055 3.410843-1.1648938 4.472623-2.6224784.974063-1.4870317.962536-3.6714698-.311239-4.9106628-1.273775-1.2391931-3.775216-.9971182-4.507205.6224783.576369-2.0864553 1.008646-4.6685878-.576369-6.1210374-1.262248-1.1527378-3.331412-.9682997-4.737752 0s-2.276657 2.5244957-2.9683 4.0806916c.31113-2.909446-.317008-5.8421032-1.7925068-8.3688761-.5763689-1.0028818-1.4582133-2.017291-2.6224784-2.1210374-1.8847262-.167147-2.8818444 1.7925072-2.9510087 3.3948127-.05085 1.3856333.0730847 2.7721525.3688761 4.1268011-1.1527377-.8011527-2.0806916-1.9193083-3.221902-2.7492795-1.7291066-1.2853026-5.0893372-.3054755-4.9337176 2.1671469.1390784.8684081.5414584 1.673168 1.1527378 2.3054756 1.6622249 2.0855894 3.4832136 4.0395391 5.4466859 5.8443804-2.5970191-1.7462287-5.8170534-2.2979349-8.8472623-1.5158502-1.9365994.518732-3.9769452 2.0576369-3.7291066 4.0345821.1786743 1.4466859 1.5792507 2.501441 3.0144092 2.7723343 1.4351585.2708934 2.8818444-.0749279 4.3285303-.4149856-1.0627429.2464946-2.0787038.6629996-3.0086456 1.2334294-.9557931.5743779-1.5759748 1.5743941-1.665706 2.685879-.0634006 4.945245 7.1988472 2.2651297 9.6887608 1.6138329-.4034582 2.2074928-3.6368876 7.4178674-.9337176 9.0489913z" fill="#fff"/><path d="m97.5446686 66.3746398c.5763689.2651297.6512968 1.0893371.5763689 1.7291066.152516-.8774977.689554-1.6407683 1.4639769-2.0806916.2722994-.173643.5950386-.2507756.9164266-.2190202.523285.1446239.893512.6103187.916426 1.1527377-.00193.5338507-.147244 1.0573793-.420749 1.5158502.522353-.3724596 1.17144-.5217703 1.804035-.4149856.636415.1283302 1.108415.666411 1.152737 1.314121-.004.3159043-.150941.612978-.399596.8078691-.248654.1948912-.572231.2666023-.879942.1950128.641603-.0853335 1.280816.1729783 1.682997.6801152.383851.5270507.399936 1.2370875.040346 1.7809799-.387804.5291407-1.098032.7060919-1.688761.4207492.355809.1088815.648426.3641126.804635.7018316s.16123.7259747.013809 1.0676209c-.349214.689992-1.114121 1.0642084-1.873199.9164265-.739719-.1526246-1.381562-.6083958-1.7694528-1.2564841.3369118.6658032.3086218 1.4579102-.0749279 2.0979827-.4022267.631235-1.1390006.9657213-1.8789626.8530259-.7404783-.1486921-1.2902407-.7739584-1.3429394-1.5273775.1092476.2901601.0867902.6135021-.0615204.8857738-.1483106.2722718-.4077854.4665067-.7108139.5320936-.638498.0850598-1.2517047-.280001-1.4812681-.8818444-.2124283-.5968407-.1312749-1.2588817.2190202-1.7867435-.5575029.504273-1.221365.8765874-1.9423631 1.0893372-.7468228.1905636-1.5296007-.1361816-1.9193083-.8011527-.2263312-.6114572-.0521134-1.299159.4380403-1.7291067.4862899-.412504 1.0927011-.6570898 1.7291066-.6974063-.556445-.0900492-1.0905341-.2856863-1.573487-.5763689-.5213508-.2706523-.7984101-.8555947-.6775313-1.4304405.1208788-.5748457.6100604-.9986628 1.1962633-1.0364183.5511227-.0688699 1.1102758-.0336785 1.648415.1037464-.3803386-.2911948-.6033924-.7428906-.6033924-1.221902 0-.4790113.2230538-.9307072.6033924-1.221902 1.0778098-.7146974 1.9193083.5763689 2.6455331 1.1873199-.167147-.1440922.1959654-1.4121038.2766571-1.6253603.2536023-.4899135.5936599-.7723342 1.1700288-.5244956z" fill="#efbb55"/><path d="m97.0086455 68.9106628c.1281583-.3117643.4746149-.4724399.7953891-.3688761.1547025.0362465.2875795.1347497.3672331.2722341.0796537.1374844.0990176.3017531.0535162.4539907.1501079-.171743.3873767-.2388063.605178-.1710516.2178012.0677548.3751559.2575795.4013491.4841673.0261932.2265877-.0837034.4473063-.2803024.562965.3253942-.1139455.6819937-.0995166.9971182.0403458.3146382.1509886.5012112.4826753.4668592.8299712-.022081.171065-.119614.32325-.265817.4147668-.146204.0915167-.3257092.1127449-.4892266.0578557.2452568.2083128.3864826.5139507.3861676.8357349-.008761.3241277-.2042134.6139358-.5014414.7435158-.3085691.1180366-.6574388-.000676-.8299712-.2824207.2029059.3759037.2029059.8287072 0 1.2046109-.2877055.28017-.7406161.2975896-1.0489913.0403458-.2918462-.2612339-.4663286-.6288933-.4841499-1.0201729-.0964303.3757681-.4750235.6059937-.8530259.518732-.3665701-.1095188-.6292411-.4315763-.6628242-.8126801-.0282609-.3774381.0987233-.7500638.351585-1.0317003-.1796738.0920425-.3753286.1487824-.5763689.167147-.2449214.0256501-.470076-.1366379-.5231851-.3771039-.053109-.2404659.0827503-.4824871.3156923-.5623774.2544404-.1000749.5306292-.1318664.8011527-.092219-.1866022-.0412892-.3442632-.1652734-.4283841-.3368801-.084121-.1716067-.0855535-.3721735-.0038925-.5449643.2017291-.3688761.6167147-.2305475.9510086-.1613833.0390282.0145822.0820093.0145822.1210375 0 .0256653-.0204869.0438906-.0488372.0518732-.0806916.0773287-.2670423.1716616-.5288642.2824207-.7838617z" fill="#3ea089"/></g></svg>