<svg height="44" viewBox="0 0 147 44" width="147" xmlns="http://www.w3.org/2000/svg"><g fill="#fff"><path d="m.33 19.56c1.75 2.3 3.1-2.77 3.81-4.21 13.29-12.38 36-.5 10.76 5.88-.0883349 1.2076184.6847544 2.3108377 1.85 2.64 17 .85 6.53 15.43-3.47 12.33-2.07-7-2.49-15.3.05-21.29-1.87-2-3.43-1-4.69.11-2.48 3.89-3.19 22.45.68 24.44 25.3 4.78 24.56-19.2 11.9-17.57 33.06-13.44-26.13-26.2-20.89-2.33z"/><path d="m139.73 39.21c1.31-3.44.72-6.18 1-8.39 7.36-4.85-.06-6.55-2.13-4.15-2.63 2.16-4.7 4.13-6.81 5.7l.59-2.48c-8.2 4.37-7-1.2-5.17-4.78.57-7.17-7.07.28-7.45 2h-.2c1.6-4.45.64-8-2.21-5-1.437295 2.7952659-2.612324 5.717774-3.51 8.73-3.95 2.52-9.26 4.12-10.41.72 3.41-.61 5.32-1.6 7.14-3.63 3.65-3.61.88-8.16-2.56-8.43-5.23-.05-8.46 4.53-9 9.09-10.18 8.86-5.34-2.81-2.53-6.77 2.7-11.14-8.88.62-10.22 2.47l-.35-.29c20.28-28.47.71-32-5-8.08-1.39-.83-5.12-.68-5.8-.72 10.41-18.37-6-16.73-7.69-.7-10.76-.59-4.14 2.9-.61 3-.18 1.3333333-.31 2.6133333-.39 3.84-7.31-8.34-17.62-5.02-18.31 3.66-3.62 1.74-3.62-2.58-2.92-5.73-1.25-7.09-6.78 2-6.73 3.78h-.21c.45-4.71-1.36-7.9-3.39-4.32-.9976246 4.3930349-1.4078721 8.8990318-1.22 13.4 3.45 11.71 6.16-6 7.1-8.5h.3c.82 6.26 4.34 6.66 7.38 5.32.13.55.27 1.11.46 1.68 7 12 16.46-4.36 11.71-10.36l.14-.21c1.9916429 1.2608707 3.8363878 2.7400207 5.5 4.41 0 9.11 3.6 13.18 13.2 7.32 0 1 .08 1.94.15 2.95 2.34 1.4 2.6-1.18 3.24-1.85 1.9734094-3.5585309 4.5676209-6.7352546 7.66-9.38l.39.08c-7.94 12.62 1.82 14.68 8.43 9.47.6982352 2.4651684 2.855986 4.2360396 5.41 4.44 2.85801.1908794 5.705022-.5077739 8.15-2 .73 10.55 7.45-5.21 8.94-7.3l.29.05c-.68 5.62 1.92 7.2 4.83 7.08-1.4 1.39-.22 2.83 1.53 2.64.63 7.86 14 4.58 17.56 3.17l.87-4.11c-3.13 1.43-5.19 1.4-7.15 2.18zm-84.6-8c-4.46-.75-2.49-5.6-2.24-7.66 5.72-10.81 7.17 7 2.24 7.61zm20.46-23.96c-.54 3.09-2.63 5.82-3.6 7.54l-1.13-.13c.46-3.07 3.85-12.43 4.73-7.41zm-4.91 13.63c1-1.23 1.72-2.08 2.19-2.68.22 0 7.18.24 7.13.22l.36-.29c-.5797754 3.0584227-.9141735 6.1582926-1 9.27-10.28 7.9-9.51-.15-8.68-6.52zm14-2.94c.5315692-2.8253589 1.3078266-5.5991407 2.32-8.29 6.09-11.54 4.84-2.44 1.74 3.06-1.94 3.83-3.8 7.26-5 9.48.26-1.39.61-2.81.99-4.25zm23.26 5.06c3.19 2.84-3.15 5.81-4.57 5.41.41-2.98 2.36-5.82 4.57-5.41zm22.42 14.15 6.17-4.15c-.12 8.46-4.17 7.42-6.17 4.17z"/></g></svg>