<svg height="129" viewBox="0 0 128 129" width="128" xmlns="http://www.w3.org/2000/svg"><g fill="#fff"><path d="m7.371 24.271c.351-3.12 17.03 12.61 13.234 14.3l.338.351c1.8415373-1.8808755 3.8232337-3.6192056 5.928-5.2l-.286-.377c-.208 0-.078.299-1.105.624-1.638-1.17-15.6-13.91-10.673-16.107l-.208.156-.299-.442c-2.765541 2.1210169-5.37247581 4.4411889-7.8 6.942l.338.338z"/><path d="m37.596 5.382c2.691-1.3 7.306 14.716 7.098 17.927-.195.156-.143.247-1.105.598v.533c3.2618526-1.2483172 6.641774-2.1629867 10.088-2.73-.221-1.17-.325-1.755-.533-2.912l-.507.091c1.157 2.509-4.329 5.005-4.888-.585.13-4.979-6.656-12.415-1.404-15.457 0-.195 0-.286-.117-.468-3.2416316.70375533-6.4266795 1.64666854-9.529 2.821l.169.442z"/><path d="m60.255 13.104c.1243794 1.375808.4079414 2.732543.845 4.043.3353219.825128.8769605 1.550297 1.573 2.106 2.808 2.119 8.853 3.146 11.57-1.963l-.182.091c.845-3.77 3.9-10.283.221-15.054-6.071-4.524-17.082-3.224-14.027 10.777zm4.004-4.875c.0305903-1.30802883.1609689-2.61181525.39-3.9.351-1.456 1.404-4.433 4.537-3.445h-.156c3.9 2.6 2.106 9.997 1.3 16.042-3.146 9.269-7.371-1.326-6.071-8.697z"/><path d="m86.255 3.731c.169.455.728 0 .897 2.327.1595699 6.1249754-.1533575 12.2531375-.936 18.33 1.222.442 1.833.676 3.029 1.183 3.3574306-5.0551494 7.0489917-9.8802368 11.05-14.443.440791-.59863 1.108598-.989378 1.846415-1.0803754.737817-.09099745 1.480554.1257835 2.053585.5993754l.234-.429c-2.249-1.118-3.367-1.742-5.629-2.756l-.195.442c.195.312 1.495.052 1.495 1.638-.087994.45247019-.3152641.8661025-.65 1.183l-.325-.156c-3.2240047 3.8185047-6.235873 7.8111832-9.022 11.96.8057696-4.982113 1.2964108-10.0101 1.469-15.054 0-.533.338-2.6 2.431-1.456l.169-.455c-3.0516205-1.18741856-6.1838629-2.15619811-9.373-2.899 0 .182-.078.273-.117.468.5625812.07870335 1.1002152.28309315 1.573.598z"/><path d="m113.23 16.601c-1.417 5.018-6.5 11.427-11.154 15.457-.234-.065-.299 0-1.144-.572l-.273.39c3.052676 2.069229 5.876565 4.4573327 8.424 7.124l2.041-2.041-.39-.39c-.384585.5231864-.99517.8321573-1.6445.8321573s-1.259915-.3089709-1.6445-.8321573c-1.95-1.859 0-3.809 2.236-6.266 0 .351 1.755.819 1.3 2.418-.151921.2172545-.321495.4216134-.507.611l.26.286 2.704-2.925-.468-.429c-.169566.2023784-.356622.389434-.559.559-.975.117-.325.702-2.6-1.001 3.133-2.015 5.473-10.985 10.335-7.514.533.572 2.444 2.301.637 3.77l.494.481 2.223-2.132c-3.395235-3.5008757-7.146552-6.637866-11.193-9.36-.098398.1291702-.189539.2637112-.273.403.477896.2832579.886506.6696609 1.196 1.131z"/><path d="m46.189 42.471c.559 1.807 3.9-.416 6.045-.741-.494 11.05-3.185 19.812 1.742 29.224.585 0 1.235-.585.221-1.3-.0173887-.3689693-.0740418-.7350355-.169-1.092l-.364-3.562c-.5083769-8.0016524-.1947359-16.0343477.936-23.972l4.147-.728c-1.079 3.549-1.3 9.828-1.599 13.949.208 1.677-.845 12.545.403 14.183.741-.182.741-.663.91-1.365l1.534-5.382c.403-1.183.754-2.223 1.144-3.458.3110056-1.1186974.8461747-2.1624983 1.573-3.068 1.729 6.5 3.094 9.802 7.709 3.471.169-.208.351-.377.52-.559-.741 6.955 3.172 8.502 6.5 2.392.65-.832 1.183-1.534 1.794-2.366.312-.403.702-.845 1.027-1.3.52 2.054 1.625 5.2 1.482 5.733s-.65.793-.962 1.196c-1.3 1.742-2.795 5.018-1.3 7.124 4.914 3.627 3.9-6.058 5.122-9.191l3.198-2.834c.39-.312.741-.624 1.092-.884l.26-.195c-2.691 13.377-1.755 20.514-1.82 33.254l-.897 1.209-5.278 6.5c-8.671 12.389-1.508-25.259-7.007-7.15-2.7072806 3.5531309-5.6566255 6.9151234-8.827 10.062-.676.598-1.014 1.3-2.158 1.3-1.495-2.821-.767-16.627-.962-20.085-.793-7.436-6.149 2.223-7.228 4.94-.4987995 1.253039-1.0852511 2.469383-1.755 3.64-.403.676-.676 1.222-1.417 1.495-2.6-21.112-7.02 6.669-10.27 10.4-.143-3.432.13-6.5.195-11.024 0-1.014.273-2.6.403-3.51-.117-.559-.117-2.132-1.69-.676-.3200426.7415285-.5681802 1.5120608-.741 2.301-.416.377-.78.793-.858.871-.598.416-4.017 3.315-4.862 4.056-.7798517.8050033-1.8033413 1.3304555-2.912 1.495-.806-1.118-.078-9.256-3.783-5.278-.403.533-.819 1.014-1.3 1.547-.1635031.2775443-.3696956.5276076-.611.741-.611.676-1.3 1.898-2.223 2.171-.208-3.12 3.9-12.649 8.099-8.32 2.743 1.911 1.859-4.147-1.755-4.043-8.697-2.015-13.637 21.853-3.705 13.117l2.366-3.042c.949 9.659 7.566 2.6 11.193-1.222-.4146683 3.4542664-.4146683 6.9457336 0 10.4 3.406 11.024 7.657-11.531 9.529-14.807 1.079 5.408 2.6 11.7 7.371.884l2.704-5.278c.403-.611.546-1.209 1.3-1.3-.273 2.223 0 4.745-.338 8.866-.377 20.631 5.369 14.3 14.053 2.6-.819 12.467 5.486 11.388 10.153 3.276 1.014-1.3 1.833-2.366 2.782-3.653l.546-.676c.364 5.733 2.262 11.245 6.5 6.019 1.5906441-1.6107003 3.0349925-3.3595799 4.316-5.226-1.092 8.918 5.2 6.37 7.137-.273l3.302-7.527.741 13.52c0 .325-2.496 3.653-2.834 4.186-11.622 13.676-3.679 36.257 3.718 17.303 1.173047-4.135115 1.810917-8.403602 1.898-12.701.728-2.717-.585-8.229.741-10.816.858-1.3 3.497-4.563 5.005-6.357.468-.468.403-.546.273-1.144-1.3 0-2.028 1.144-3.185 2.496l-2.6 3.237-.338-3.705c0-3.705-2.34-14.664-5.278-6.097l-3.679 7.878c-.564369 1.3144524-1.341817 2.5267441-2.301 3.588-.091-.858.377-11.7-2.067-6.578-.26.468-.533 1.014-.897 1.573-8.957 12.688-8.008 5.421-7.8-2.847l.299-7.436c.325-5.629.546-19.37 2.028-24.401.273-.741 1.144-2.704-.403-3.25-.572-.065-.338-.234-1.3.416-.4401202.4459948-.7850905.9767183-1.014 1.56-.299 0-5.707 4.238-6.071 4.485l-1.3-5.031c0-1.534.663-1.794 2.015-1.963 1.911-2.08-4.888-2.717-4.173 2.21-.4202483.425583-.8030006.8866254-1.144 1.378l-3.406 4.199c-5.889 7.241-.507-11.115-4.121-7.137-.1660023.7160805-.2918651 1.4408767-.377 2.171-1.378 1.417-4.082 4.29-4.914 4.485-1.053-1.625-1.183-3.809-2.015-5.824-.124224-.2866193-.2675461-.5645773-.429-.832-2.457-2.301-4.394 5.837-5.122 7.8.0646173.0430782.0820782.1303827.039.195s-.1303827.0820782-.195.039l.312-6.214c.26-1.885.182-4.147.351-6.162.13-2.21.611-6.864.897-9.802 1.292085-.1756034 2.5971765-.2365077 3.9-.182.52 0 .78.39 1.82.26.624-1.742-2.314-1.651-3.575-1.794-.752273-.0721715-1.509727-.0721715-2.262 0-.078 0-.195-.351-.65 0-1.625.13-3.328.377-4.537.572.13-1.625.663-4.212-.65-4.342-1.053-.091-1.534 3.458-1.664 4.771-1.274-.013-5.993 1.521-6.253 2.964zm58.253 84.032c-4.719-4.134-1.3-12.298.962-17.576l2.834-4.797c.160444-.34216.365932-.661324.611-.949l.598-.871c0 3.367-.676 24.193-5.005 24.193zm-22.282-61.893c0 .728.26 5.46-1.222 5.863-1.638-.546-.182-4.641 1.222-5.863zm-23.66-2.054v.169s-.078-.143 0-.299.104.13 0 .13z"/><path d="m71.994 50.96c1.573 0 1.612-2.756.481-2.756s-1.664 2.756-.481 2.756z"/><path d="m.884 67.6c.338-1.157 4.134-3.991 5.278-4.94 1.24390152-.9479991 2.54650022-1.8163983 3.9-2.6.117 5.655.169 17.264.143 24.453-.52-.286-9.841 12.22-2.314 5.616.68824648-.8423562 1.46392105-1.6093153 2.314-2.288l-1.001 19.812c-.1482239 4.788299-.58233028 9.563469-1.3 14.3l-.728 4.459c.754.091 1.157.325 1.612-1.482.949-4.108 2.912-18.772 3.12-22.49.962-4.186-.104-14.3 1.404-17.81 8.242-6.149 4.628-6.279-.468-1.937 0-8.242.078-16.419-.533-24.128 8.021-5.031 20.449-10.842 29.289-12.909-4.888-4.108-24.05 7.8-29.549 9.997-.208-1.781.208-4.485-.936-6.5-1.495-.182-.819 7.501-1.157 8.307-1.638.429-13.195 9.828-9.074 10.14z"/><path d="m75.621 82.355c2.431 0 2.496-4.251.728-4.251s-2.561 4.251-.728 4.251z"/><path d="m102.531 68.458h-.624c0 4.238-2.236 6.5-6.5 6.5v.637c4.238 0 6.5 2.236 6.5 6.5h.624c0-4.238 2.249-6.5 6.5-6.5v-.637c-4.251-.026-6.5-2.262-6.5-6.5z"/><path d="m115.791 52.416v-.702c-4.719 0-7.215-2.496-7.215-7.215h-.676c0 4.719-2.496 7.215-7.215 7.215v.702c4.719 0 7.215 2.496 7.215 7.215h.702c-.026-4.719 2.47-7.215 7.189-7.215z"/><path d="m118.859 65.793v.624c1.2097-.0502269 2.380614.4323804 3.203601 1.3204062.822988.8880258 1.215314 2.0921969 1.073399 3.2945938l.611-.351c-.068637-1.1482583.356684-2.2711201 1.168832-3.0857514.812148-.8146314 1.933705-1.2433796 3.082168-1.1782486v-.624c-1.16718.1507602-2.338275-.2483702-3.170453-1.0805474-.832177-.8321772-1.231307-2.0032726-1.080547-3.1704526h-.624c.146219 1.1685234-.256286 2.3389727-1.090271 3.1704149s-2.005657 1.2303711-3.173729 1.0805851z"/><path d="m72.046 35.1c.8112705 1.666701 1.7319487 3.277888 2.756 4.823.806 1.209 1.664 2.392 2.6 3.523 1.3-.507 2.704-1.066 4.017-1.677 9.763-2.327 8.255-15.288-1.209-8.359-1.144-6.851-10.504-5.122-8.164 1.69z"/></g></svg>