<svg height="100" viewBox="0 0 159 100" width="159" xmlns="http://www.w3.org/2000/svg"><g fill="#fff"><path d="m35.1 14.3c.091.637-.572 1.183.975 2.327 2.093.143 5.473.221 9.386.221-2.522 7.267-8.489 19.201-9.958 26.949.169.819.325 2.6 2.327 3.016 1.937-8.658 7.995-20.605 10.764-30.004 4.069-.364 12.454.221 14.781-2.964-9.4265097-.3391067-18.864282-.1872345-28.275.455z"/><path d="m68.64 16.627c.091-.91.091-2.054-2.197-2.873-.481.715-10.556 24.7-10.959 25.74.078 1.105-.247 2.782 2.028 3.9 1.573-2.964 7.683-8.71 11.7-10.725-.442 2.171-.416 7.488 2.912 9.23 4.459.728 11.557-2.353 15.366-6.331-2.392 7.605 4.576 8.723 11.7 4.29.299 1.456 1.898 4.979 5.135 5.2 1.118 0 2.34-.715 3.432-3.445 4.537-.585 16.432-2.717 15.392-9.321-2.99 3.081-9.698 6.071-14.95 6.786l.182-1.469c.094788-1.404101.356636-2.7918944.78-4.134.637-.949.806-1.3 3.003-2.106-.364-.884.312-1.469-1.664-2.392-1.655463.5146894-3.012733 1.7111674-3.731 3.289-3.432 3.471-12.012 9.308-17.628 7.449-.429-2.431 1.3-5.291 3.198-8.71.143-.663 0-1.56-1.742-2.145-.8023967 1.0526552-1.4705409 2.2011644-1.989 3.419-3.484 2.6-10.283 7.644-15.886 6.942-.728-1.053-.897-4.511-.663-7.579v-.234c-.247-.715-.559-2.236-2.847-1.599-2.418 1.586-6.24 4.81-9.542 7.553-.572.078 8.06-18.291 8.97-20.735zm35.178 20.254c.850399-.6366593 1.607422-1.3893058 2.249-2.236-.26 1.157-.416 2.236-.936 4.615-1.337022-.0440371-2.665838-.2270216-3.965-.546.921469-.5549296 1.807209-1.1671324 2.652-1.833zm.663 4.641c-.702 1.3-2.028 1.547-3.354-.715 1.088465.3603596 2.213203.6001293 3.354.715z"/><path d="m98.15 20.8c0-.156.299-.13 0-.871-.3429767-.5467179-.8223611-.9947407-1.391-1.3-1.417 1.95-5.863 5.967-3.562 9.516 1.3061582-2.6640007 2.9728001-5.13553 4.953-7.345z"/><path d="m51.753 48.529c.299-.442.91-1.3 1.456-2.197 0-.156-.13-.273-.481-.273-.767.117-1.482 1.3-2.106 2.6-.0233473.1682731.0922266.3242978.26.351.468.052.598-.104.871-.481z"/><path d="m60.437 53.3c-.758162-.0423967-1.5181113.041066-2.249.247-.3400565.1197712-.5938229.407118-.6706306.7593738-.0768076.3522558.0343021.7191621.2936306.9696262.286.286.377.273 1.872.377.2300222-.0261382.4517161-.1015141.65-.221.5618373-.3417285 1.0132051-.838233 1.3-1.43l.091-.13h.351c1.6391284-.0918859 3.2494788-.4702743 4.758-1.118l.182-.104c.169-.195 0-.299-.403-.299-.91 0-3.276 1.482-4.615.754.0855684-.5644421.0855684-1.1385579 0-1.703-.073249-.373442-.073249-.757558 0-1.131.0303475-.1805794.1400847-.3380284.299-.429.364-.104.806-1.092-1.378-.117-.2159587.2193981-.4779261.3881228-.767.494-1.3668582.6627323-2.6720088 1.4458227-3.9 2.34-.325.13-.754.312-1.3.546s-3.25 1.638-4.303 1.3c-.858-.546-.572-1.911 0-3.562-.325-.221-.221-.312-1.027.13-.6523882.6305494-1.022687 1.4977049-1.027 2.405 0 1.027.65 1.573 1.846 1.703 2.3636517-.2559933 4.6118431-1.1552698 6.5-2.6.091 0 .091-.091.065-.13l1.69-.871c1.3-.702 1.651-.793 1.625-.728.0878874.7340453.0878874 1.4759547 0 2.21zm-.273.65c-.2461697.4390337-.5883563.8167721-1.001 1.105-.091 0 0 .117-.325 0-.273-.481-.481-.286.169-1.183.3059069-.0757344.6212337-.1063911.936-.091h.299z"/><path d="m90.844 55.146c-.377.845-.494 1.118-1.053 2.275-.247.546-.52 1.053-.546 1.17-1.716 1.859-6.045 6.305-6.981 9.1-.2453562.5232384-.3093947 1.113308-.182 1.677.156.429.65.455 1.027.455 4.095-1.3 5.057-6.227 7.514-11.063l.299-.702c1.3-1.144 3.055-2.6 5.356-4.381.39-.299.143-.091 1.3-1.027.156-.143.221-.533-.442-.299-.29579.1661386-.5822222.3484136-.858.546-.546.351-2.899 2.184-4.082 3.159-.1319671.1166458-.2708889.2251785-.416.325 0 0 0-.13.143-.351-.273-.091 4.771-8.71.858-4.81-.4062292.4596154-.8403846.8937708-1.3 1.3-.6550545.6989225-1.4082699 1.2988673-2.236 1.781-.169 0-.169.078-.195 0-.1173543-.279371-.1446212-.5883959-.078-.884.1161614-.7103887.3169223-1.4043229.598-2.067.104-.234.182-.533.234-.676s0-.234 0-.286c-.806-.442-1.404.364-2.093 2.08l-.91.533c-.715.091-3.796 3.276-4.459.624-.169-.247.156-1.872-.13-2.6-.104 0-.247-.364-1.222-.13-.8718609.5611111-1.6938856 1.1961143-2.457 1.898-1.768 1.69-.741.13-.572-1.872-.715-1.547-3.185.871-4.537 2.197l-.221.234.13-.273c.1980389-.3919193.3717023-.7956867.52-1.209.0584923-.1351451.0851777-.2819149.078-.429-.325-.442-.728-.52-1.482.585-.182.572-1.43 2.171-1.495 3.549.13 0 .286.429 1.378 0 1.0107879-1.4153075 2.1652649-2.7222625 3.445-3.9.2714194-.2432477.5579948-.4690343.858-.676-.3485643 1.0616399-.5668307 2.1617024-.65 3.276.117 0 .273.663 1.703.195.459168-.2756445.8644192-.6324417 1.196-1.053.5700801-.6195292 1.1920044-1.1892641 1.859-1.703.169-.143.195-.169.195-.117-.143.975-.455 3.081 1.651 3.705.6427295.0724107 1.2934937.0104332 1.911-.182 1.0286097-.4525038 2.0122911-1.000928 2.938-1.638-.065 1.612 1.703 2.405 3.64.429.286-.208.572-.663.182.156-.065.221-.26.702-.416 1.079zm-3.302 7.254c-1.3 2.899-3.055 6.058-4.381 6.955h-.104v-.143c-.0893-.3365097-.0893-.6904903 0-1.027 0-1.014 3.315-5.785 5.2-7.462-.065.182-.533 1.274-.715 1.677z"/><path d="m111.982 77.272c.607733 1.16812 1.68673 2.0199596 2.964 2.34 3.692.611 10.101-2.6 13.455-5.72-.4189 1.0090046-.665003 2.0813128-.728 3.172.182.988 0 3.029 2.275 3.9 3.094 0 6.305-3.341 9.399-6.773-1.304299 4.0221264-2.925721 7.9344064-4.849 11.7-1.78574 1.2305283-3.313723 2.798257-4.498 4.615-.858 1.157-1.56 5.616 2.132 2.717 1.797246-1.8074991 3.317351-3.8708123 4.511-6.123 5.954-4.55 22.1-10.998 20.15-17.901-3.601 4.394-11.284 9.581-17.03 13.143l-.949.637c2.216849-4.6429794 4.022103-9.4714891 5.395-14.43-.156-.819.507-1.43-2.223-2.444-2.171 3.978-6.669 11.05-11.7 12.441-.195-2.444 2.002-5.876 3.692-9.295.091-.78.104-1.612-1.872-2.353-.533.728-1.001 1.508-1.469 2.301-3.432 2.496-11.843 9.997-16.9 7.319-1.196-6.422 5.733-18.707 8.671-24.414.22716-.3975023.256001-.8781881.078-1.3-.377-.312.234-.494-1.924-1.755-2.122413 3.7907765-4.032037 7.6968261-5.72 11.7-3.809 6.5-12.883 16.666-20.67 15.925-.468-2.431 1.3-5.304 3.198-8.71 0-.195.247-.143 0-.936-.3681286-.6253166-.9808251-1.0683432-1.69-1.222-.8263057 1.0392224-1.5246517 2.1740346-2.08 3.38-3.146 2.808-9.633 9.802-15.522 8.255-1.235-1.027-1.079-3.562-.403-6.188 0-.468.117-.156-.195-1.092-1.976-3.9-7.917 2.769-10.517 6.136v-.208c.3402215-2.52307.9908146-4.9944506 1.937-7.358-1.105-6.071-9.1 3.705-12.428 6.305.143-1.547 5.2-7.319.247-8.359-2.847 4.368-10.4 10.231-16.432 9.438-.767-1.209-.468-4.212.104-6.76v-.143c-.4200809-1.1937004-1.5070009-2.0254749-2.769-2.119-.871-.78-.429-1.521-3.536-1.612-2.2491031.6833938-4.2708283 1.9638197-5.85 3.705-4.082 2.691-11.7 4.667-17.069 2.08.598-1.17 1.053-2.041 1.378-2.6.3722099-.7325714.3304667-1.6071386-.1098235-2.3009293-.4402903-.6937907-1.2138467-1.103938-2.0351765-1.0790707-3.133 6.214-9.1 17.394-8.918 25.532 3.991 14.664 15.34-11.31 10.4-16.9 2.678 2.158 9.191 1.105 13-.468-.4595328.8156658-.8050828 1.690476-1.027 2.6-.182 1.521.273 4.693 3.601 4.394 2.691-.546 7.514-5.07 9.477-8.307 0 1.898.754 5.109 3.523 6.5 3.692.949 9.672-1.742 13.416-5.2-.923 3.562-3.276 4.745.429 7.267 2.379-2.808 7.8-9.1 11.518-11.7-.286 1.885-4.238 10.907 1.456 10.062l1.183-1.443c1.3-1.625 3.692-5.005 6.5-6.747-.442 2.184-.715 6.968 2.73 8.71 4.407 1.3 11.193-2.353 14.612-6.5-2.158 13.351 15.6 1.794 19.422-3.9-.585 2.548-1.222 5.018.26 8.086zm-101.14 1.742c-.65 3.731-2.327 11.037-5.98 13.897h-.13c-.949-5.031 3.484-14.014 5.499-19.682.7340482 1.8348932.9455326 3.8372454.611 5.785zm24.843-7.865c-1.742 1.859-5.772 5.902-9.373 6.201 1.079-3.029 5.824-8.853 10.543-9.464.078 1.014.091 1.209-1.17 3.263z"/><path d="m102.141 55.471c-1.3 1.976-5.785 5.655-3.588 9.529 1.3237804-2.6409435 2.993833-5.0935603 4.966-7.293.286-.507.026-1.352-1.378-2.236z"/><path d="m2.158 31.954c-2.847 1.69 3.315 6.5 6.253 6.396.104 1.69.182 3.406.286 5.109-6.747-12.337-10.712-1.794.091 1.3.18997869 3.4247783.88654809 6.8024827 2.067 10.023.221 0-.429 1.56.819 1.625 3.9 4.199 2.106 1.586-.273-2.119.195-2.093 2.041-5.746 4.069-8.463 7.475-.754 12.051-9.321 1.157-1.56l1.872-2.6c5.2.455 13.221-8.775 1.157-1.612.416-.611 0 0 .988-1.521 7.722-1.495 11.7-10.01 1.001-1.599.481-.793.949-1.599 1.391-2.418 9.1-1.989 10.686-9.802.598-1.131.299-.559.585-1.131.871-1.703 8.203-3.497 10.712-11.7.871-1.807.351-.754.702-1.495 1.027-2.249 12.038-7.462 6.422-10.309-.195-.442 0 0-.065 0-.091 0 1.508-9.438-3.9-3.068-1.651 3.406-.312.624-.637 1.3-.962 1.872 1.742-9.451-5.083-6.175-.923 1.742-.481.871-.975 1.742-1.482 2.6 2.236-9.958-4.862-6.838-.858 1.3-.39.546.156-.117-1.534 2.314 1.573-9.568-6.24-6.5-.65.897-.793 1.079-1.612 2.158-2.418 3.237 2.366-9.828-5.642-7.67-.572.793-1.8149517 2.3855029-3.1805409 5.0814403-4.03 7.956-.8402891-2.7414175-1.34661745-5.5742371-1.508-8.437 7.098-7.8 3.9-18.642-.156-2.496-.078-1.3-.182-2.678-.273-4.017 7.202-6.981 4.394-17.732-.195-2.535-.078-.767-.195-1.521-.286-2.288 6.786-8.97 2.86-18.824-.325-2.366-.182-1.17-.39-2.34-.624-3.51 7.566-10.27 2.184-18.031-.338-1.651-.169-.793-.351-1.586-.533-2.366 5.2-10.712.728-20.033-.637-2.496-.273-1.014-.546-2.028-.845-3.029 5.668-17.238-2.197-15.379-.546-.26-.03975887.0184093-.07519463.0449861-.104.078-7.02-11.284-5.707.975 1.17 4.667.221.858.403 1.729.598 2.6-7.332-11.7-8.697-.546.533 2.457.247 1.3.481 2.509.676 3.77-6.864-12.337-9.373-1.677.26 2.015.143 1.3.169.585.403 3.497-1.534-3.133-3.861-5.031-6.149-4.979z"/><path d="m130.182 26.312c.663.442 1.3.871 2.015 1.3.329333.754.667333 1.495 1.014 2.223-9.542-9.919-7.943-2.158.884 1.846.273.546.546 1.105.845 1.664-9.815-8.684-9.321-1.3.637 1.17.455.819.923 1.625 1.404 2.431-9.867-8.32-8.32-.858.975 1.56.208.299.117.273 1.027 1.56-9.1-6.669-8.489.221 1.131 1.586.676.923 1.3 1.833 2.054 2.743-10.036-7.917-8.528-.364 1.014 1.417 1.3 2.158 3.276 4.368 3.978 8.45 0 .65-5.993 8.125-.234 2.08.13.481.923 0 .819-1.638 1.195655-3.1914277 1.875827-6.5527934 2.015-9.958 10.725-2.743 6.864-13.481 0-1.105.117-1.768.247-3.536.364-5.291 10.4-1.664 7.371-12.428.091-1.391.078-.871.117-1.3.403-3.523 9.1-3.003 7.592-14.3.286-2.054.13-.741.221-1.443.65-3.731 8.463-2.223 8.489-14.105.559-2.509.195-.845.377-1.703.598-2.6 5.2-1.885 9.451-16.315 1.157-4.654-.028805-.0330139-.064241-.0595907-.104-.078 1.3-17.979-5.967-14.742-.546.26-.299.988-.572 2.002-.832 3.003-1.404-18.2-5.863-8.216-.637 2.522-.195.767-.377 1.547-.546 2.327-2.743-17.199-7.8-8.476-.325 1.651-.234 1.17-.455 2.353-.637 3.536-3.146-16.991-7.202-7.02-.325 2.314 0 .442-.117.416-.273 2.392-4.368-15.535-7.683-5.2-.208 2.431-.091 1.3-.182 2.717-.26 4.069-3.783-16.328-7.553-6.071-.169 2.444-.15906 2.8598155-.66991 5.6891343-1.521 8.424-.843116-2.831941-2.214957-5.4785796-4.043-7.8 4.719-5.473-2.223-12.688-.481-.676l-2.483-3.393c4.953-4.589-1.222-12.246-.637-.884-.416-.585-.624-.871-1.534-2.327 3.627-4.524-2.223-13.546-.871-1.3-.507-.845-1.014-1.703-1.495-2.6 3.523-3.588-1.443-13.936-.923-1.781-.312-.624-.637-1.222-.936-1.846 2.145-3.25-2.444-14.755-1.664-3.406 0 0 0 0-.091 0-4.745-7.995-12.636-8.879-2.145-.858z"/><path d="m108.94 96.317c.403 6.058 8.099 3.653 11.7-.429 1.001-.897 1.963-1.833 2.873-2.782-.91-.962-1.872-1.898-2.873-2.795-2.47-4.55-16.458-6.136-10.075 1.833h-64.727c1.365-3.185-1.651-3.783-1.963 0h-2.002c1.3-3.185-1.664-3.783-1.976 0h-3.757c-1.69-.78-2.483-5.98-5.785-4.719-3.315 1.066-9.191-.442-11.492 1.469.676 1.3 2.6 2.73 3.653 4.394-1.4445347 1.4269901-2.7991372 2.9422345-4.056 4.537-.1050055.1522185-.1554061.3354933-.143.52.936 1.404 2.99 0 5.733.286 5.369.351 8.047 0 12.038-4.576h3.38c-1.3 2.925 1.404 4.082 1.963 0h2.002c-1.3 2.925 1.404 4.082 1.976 0h65.208c-.82119.5188454-1.419203 1.3254667-1.677 2.262zm-79.677-7.306 3.562 3.471h-2.6l-3.523-3.276c.923-.026 1.768-.104 2.561-.195zm-2.6.247 2.899 3.276h-2.119l-3.315-3.094zm-5.33.299 2.704-.117 2.678 3.146h-2.873c-.7743784-1.0704148-1.6259818-2.0827801-2.548-3.029zm-.65 7.8c.637-.754 1.599-1.69 3.081-3.302h1.157l-1.781 3.172c-.8493333.0346667-1.6813333.0866667-2.496.156zm2.6-.156 2.301-3.172h2.6l-1.651 3.159c-1.092-.013-2.184 0-3.263.039zm4.173-.078h-.806l2.184-3.172h2.73l-1.794 3.172zm3.744-.26-.182.208c-.3722174.0258774-.7457826.0258774-1.118 0l2.327-3.185h1.755c-1.0150516.9065713-1.9461658 1.9029505-2.782 2.977zm2.509-4.394-4.342-3.471c.52 0 1.027-.117 2.431-.338.7248961 1.3527862 1.5968381 2.6214618 2.6 3.783z"/><path d="m96.707 5.733h-64.714c5.551-6.604-5.772-7.878-10.088-1.833-1.001.897-1.963 1.833-2.873 2.795.91.962 1.872 1.885 2.873 2.782 2.47 4.602 16.588 6.071 10.036-1.82h65.208c-.286 2.6 3.016 4.251 1.976 0h2.002c-.299 2.6 3.003 4.251 1.963 0h3.38c4.316 4.771 5.538 4.797 13.715 4.641 1.118-.26 3.107 1.027 4.056-.338.013326-.1886636-.037027-.3763437-.143-.533-1.243194-1.6061915-2.598585-3.12231785-4.056-4.537 1.034296-1.38872746 2.177579-2.69285256 3.419-3.9.210307-.19818957.280637-.50348946.178236-.77371557-.102402-.27022612-.3574-.45224402-.646236-.46128443-6.994.559-12.506-3.9-16.575 3.991h-3.718c.143-2.86-3.029-4.225-1.976 0h-2.041c.117-2.873-3.016-4.238-1.976-.013zm15.171 4.966c-.099425.0098201-.199575.0098201-.299 0-.917323-1.1253098-1.912074-2.18521878-2.977-3.172h1.755l2.327 3.185zm3.224 0h-2.301l-1.794-3.159h2.73l2.184 3.172zm.923 0-1.625-3.107h2.6l2.301 3.172c-1.092.013-2.184 0-3.276-.013zm4.186-1.599c.585.611 1.157 1.196 1.703 1.833-.819 0-1.651-.117-2.496-.143l-1.742-3.133h1.144c.481.546.949 1.027 1.391 1.443zm1.053-5.993c-.907516.96692169-1.745916 1.99646071-2.509 3.081h-2.873l2.678-3.159zm-2.834-.078-3.276 3.133-2.054-.039 2.899-3.276zm-2.6-.182-3.549 3.263h-2.6l3.614-3.51zm-5.083-.481v-.117c.494.091.793.143 2.418.338l-4.29 3.471h-.741c1.009015-1.1210825 1.877743-2.36087581 2.587-3.692z"/></g></svg>