<svg height="48" viewBox="0 0 200 48" width="200" xmlns="http://www.w3.org/2000/svg"><g fill="none" fill-rule="evenodd" transform="translate(-.000263 -.000327)"><g fill-rule="nonzero"><path d="m168.207455 14.910859c11.166937 2.5931929 22.094004 5.9222042 31.701783 10.713128l-9.724473 7.0470017 2.15235 14.5575364c-9.640194-4.706645-22.090762-8.4635332-33.93517-10.8654781l3.56564-14.6871961z" fill="#81cff2"/><path d="m158.414911 36.376013 3.562399-14.6871961.437601-.4602918 5.792544.923825 13.659644 12.7098865z" fill="#0065ad"/><path d="m0 26.73906c11.1831442-5.9124798 24.0875203-9.7244733 37.3938412-12.5834684l5.8930308 22.2982172c-11.5721232 2.363047-23.5559158 5.9643436-33.0632091 10.5575364l1.3322528-14.2236629z" fill="#81cff2"/><path d="m39.2641815 21.2285251 4.0226905 15.2252837-23.0664506-1.5915722 8.9983792-12.5056726z" fill="#0065ad"/><path d="m20.2204214 10.5672609c46.6223663-14.42463529 117.5072936-13.75040515 161.6466776 0v24.2949757c-43.160454-15.9513776-119.8995139-15.5267423-161.6466776 0z" fill="#45baef"/><path d="m43.2058347 12.9951378c-.0777958 2.7358184-.0226905 5.3873581-.3047002 9.0048622l-1.6823339.2204214c-1.4975688-2.9756888-2.3338735-5.1312804-3.7860615-8.1555916h-.1491086c.8265802 3.2965965 1.5883306 6.3047002 2.5931928 9.9222042l-2.4408427.3241491c-1.0891411-4.3338735-2.0551054-7.7504051-2.5445706-12.2560778l3.4683955-.4829821c.9724473 1.8379254 1.8022691 3.7666126 2.7585089 6.1004862.1973725-2.5199783.2655332-5.0484126.204214-7.5753647l3.4943274-.45056723c.9724473 3.88978933 2.1977309 8.60291733 2.8136142 12.78444083l-2.534846.3241491c-.3727715-3.1312804-1.1183144-6.5802269-1.7471637-9.7698541z" fill="#fefefe"/><path d="m51.9027553 21.5364668c-.363047-1.280389-.7617504-3.445705-1.0113453-5.0048623-1.78282-2.5640194-3.426256-5.2836304-3.8897893-6.86223659l2.3241492-.16531605c.6588815 1.63638994 1.5109516 3.18818054 2.5380875 4.62236634.5784456-2.0989924 1.033038-4.23016487 1.3614262-6.382496l2.1588331-.15235008c-.4959126 2.83268468-1.1451652 5.63637388-1.9448947 8.39870338.2366289 1.643436.5121556 3.5008104.9400325 5.3970827z" fill="#fefefe"/><path d="m69.4846029 5.83468395c.2466832 4.43341835.7314449 8.85037635 1.452188 13.23176665l-2.3857374.0486223c-.2560778-1.1863857-.5121556-3.0437601-.745543-5.0729335l-2.6969205.4570502c.2269043 1.7860616.4700162 3.5332253.7358184 5.3160454l-2.534846.0486224c-.7050801-4.2402399-1.1801133-8.5155382-1.4230146-12.80713131l2.4602917-.03889789c.0518639 1.65964344.2593193 3.5656402.4862237 5.4359806l2.7520259-.4602918c-.2204214-2.06807129-.4084278-4.17828199-.5607779-6.11993515z" fill="#fefefe"/><path d="m78.2690438 15.7536467-2.7552675.2495948-.528363 3.5235008-2.5931929-.0907617 2.6353323-13.61426261 3.445705.11993517 3.0664506 12.45056724-2.7001621-.0875202zm-2.4667748-1.7536467 2.0713128-.178282-1.1961102-5.64667748z" fill="#fefefe"/><path d="m83.5623987 18.5218801c-.3435981-4.3047002-.4376013-8.4019449-.4732577-12.89789307 7.7795786-3.36790923 10.9270665 6.26904377 2.7585089 8.75202597.0583469 1.3354943.1458671 2.7974068.2495948 4.2625607zm2.1880065-6.2528363c3.2090762-.9043761 3.1085899-5.89627233-.1166937-5.0696921.0226904 1.72771475.0583468 3.3808752.1166937 5.0696921z" fill="#fefefe"/><path d="m92.5510535 18.1523501c-.2366289-4.3111832-.2333874-8.41166939-.1588331-12.90437603 7.8670986-3.17666127 10.7714746 6.53160453 2.5445705 8.82333873.025932 1.3387358.0777958 2.8038898.1458671 4.2690438zm2.3403565-6.197731c3.2414911-.8265802 3.2414911-5.83468393 0-5.06969203-.0129659 1.71799027-.0162074 3.37115073 0 5.05996763z" fill="#fefefe"/><path d="m103.432739 17.8508914c-.126418-1.3257698-.132901-3.5267423-.094003-5.1085899-1.296597-2.83954623-2.427877-5.80875207-2.593193-7.45542954l2.317666.25283631c.342709 1.73109246.892304 3.41470279 1.636953 5.01458673.942673-1.96373378 1.7717-3.98002454 2.482982-6.03889792l2.149109.23338736c-.992086 2.70058013-2.132669 5.34426586-3.416532 7.91896276-.058347 1.6564019-.119935 3.5332252-.038898 5.4781199z" fill="#fefefe"/><path d="m121.880065 7.75040519c-1.222042-.05834684-2.593193-.08752026-3.889789-.05510535-.100487.92382496-.200973 2.64829826-.28201 3.56564016 1.113058-.1182819 2.232964-.159439 3.351702-.1231766l.275526 2.0583468c-1.225283-.0194489-2.489465 0-3.74068.0842788-.074555 1.6207455-.142626 3.452188-.165316 5.1053484l-2.489466-.3987034c.094004-3.7763371.372772-8.53484599.839547-12.33711504 2.065578-.22205923 4.145102-.28599458 6.220421-.19124797z" fill="#fefefe"/><path d="m128.038898 15.9805511-2.764992-.1166937-.97893 3.4230146-2.570503-.4343598 4.414911-13.1442464 3.400324.57698542 1.3906 12.74554298-2.664506-.4408428zm-2.213939-2.0648299 2.077796.0972448-.440843-5.75364671z" fill="#fefefe"/><path d="m141.902755 10.5024311c-.972447 2.5575365-1.802269 5.0761751-3.264181 8.3987034l-1.662885-.3468395c-.427877-3.3063209-.508914-5.6175041-.875203-8.94975691l-.145867-.0356564c-.324149 3.38411671-.58671 6.48298221-.82658 10.22366291l-2.408428-.5121556c.405186-4.4505673.622366-7.993517 1.646677-12.4084279l3.435981.6904376c.307625 2.21238197.503444 4.4388745.58671 6.6709887 1.019574-2.3131831 1.919732-4.67717975 2.696921-7.08265806l3.445705.72933549c-.353323 3.97730957-.771475 8.85575367-1.581848 12.99513777l-2.495948-.541329c.683954-3.0794165 1.121556-6.5802269 1.578606-9.7957861z" fill="#fefefe"/><path d="m150.363047 8.37277147c-.935524 4.34212233-1.606666 8.73701903-2.009724 13.16045383l-2.440843-.6126418c.401266-4.4236529 1.072425-8.8186582 2.009724-13.16045384z" fill="#fefefe"/><path d="m151.273906 21.4910859c.335765-4.2519009.962845-8.4757567 1.876823-12.64181524l2.408428.58995138c-.813695 3.37370156-1.394214 6.79940926-1.737439 10.25283626 1.050243 0 2.23987.0777958 3.303079.1264182l.045381 2.184765c-1.157212-.0453809-2.301458-.0486224-3.974068-.0388979z" fill="#fefefe"/><path d="m160.071313 23.2285251c.182315-1.6937903.450624-3.3772164.80389-5.0437601-.7812-3.0243112-1.371151-6.1588331-1.244733-7.7795786l2.236629.6482982c.037051 1.7605241.28407 3.510336.735818 5.2123177 1.272796-1.7674128 2.441707-3.6073653 3.500811-5.5105349l2.077796.6061589c-1.452345 2.4841436-3.038696 4.8874754-4.752026 7.1993517-.350081 1.6207455-.73906 3.4554295-.99838 5.3841167z" fill="#fefefe"/></g><path d="m28.9854133 16.9756888c3.0016207.0777958 3.1150729 4.2690438.356564 4.73906-3.458671.4278768-3.5688817-4.6936791-.356564-4.73906z" fill="#fefefe"/><path d="m171.821718 16.3598055c3.008104.1037277 3.118314 4.3241491.324149 4.745543-3.43598.3824959-3.529984-4.6709887-.324149-4.745543z" fill="#fefefe"/></g></svg>