<svg height="198" viewBox="0 0 119 198" width="119" xmlns="http://www.w3.org/2000/svg"><g fill="#fff" fill-rule="evenodd" transform="translate(0 -1)"><path d="m90.3484848 31.8181818c.939394 4.5454546 6.2121213 8.4848485 8.969697-.1060606.0909091-.1515151.3030303-.469697.6060606-1.0151515-.8636363 7.5757576 1.5151516 21.5-7.3333333 26.1212121 12.1212119 4.9242424 12.7878789-12.4242424 13.6363639-23.469697 0-1.2575757.409091-12.9393939-5.89394-8.3030303-1.2727269 2.8030303-1.2727269 6.5-5.1515148 9.2424243-.4545455-3.3939394 1.1969697-7.4242424-.5454546-12.1212121-4.6818181-4.2575758-5.4090909 3.1363636-4.2878788 9.6515151z"/><path d="m72.7272727 16.8484848c3.0303031.6060607 1.7575758-5.5757575-1.5151515-1.7878787.1666667.3030303-.6969697 1.1212121 1.5151515 1.7878787z"/><path d="m12.7121212 43.9393939c3.030303 26.8484849 21.5757576 7.6515152 6.0606061-10.7575757 2.0474915-.5201144 4.0185892-1.3044789 5.8636363-2.3333334-.2272727 5.3787879 7.9090909 5.6060607 10.5151516-.7727272 0 .1363636 0 .1363636.2272727.6363636.4090909 5.7575758 8.1666666 9.4242424 9.7727273-2.030303-.3305341 1.351424.4970608 2.7149204 1.8484848 3.0454544 1.351424.3305341 2.7149205-.4970607 3.0454545-1.8484847.1150518-3.8534901 1.4581099-7.5694612 3.8333334-10.6060606 0 1.6969697-1.1515152 14.5 4.6818182 8.6969697.1161345-2.993993 1.3931661-5.8251994 3.560606-7.8939394-.8939394 4.4545454.1363637 22.7272727 7.8484849 8.2272727.1515151 3.3484849 6.8787878 10.8030303 11.3484848.6060606 7.4848485 20.9545455 5.0454546-1.5151515 5.1212121-13.2878788-.6060606 0 3.0303031-19.30303028-3.8939394-12.77272725-2.2424242 6.93939394-2.2424242 15.04545455-1.530303 24.13636365-1.3939394 1.2424242-1.9090909 4.9090909-5.469697 5.969697-2.5757575-3.5303031 4.0909091-13.0151516-3.030303-14.7424243-1.1212121.4090909-3.030303 1.3333333-2.8333333 7.2121212-.8636364 1.1515152-.8181818 3.0303031-3.7575758 6.2121212 0-.0757575 0 0-.1060606-.3484848.4242424-3.3787879 2-20.2272727-6.6212121-9.6515152l-.3636364.3787879c.5757576-6.4090909-6.1666666-8.5454545-8.8484848 1.1666667-.038972.0152131-.0822401.0152131-.1212121 0 2.4696969-7.2424243-5.3787879-9.4848485-5.0303031 3.030303-.8420119 2.6070224-1.8960372 5.1407371-3.1515151 7.5757576l-.1969697-.1060606c-2.2424243-1.1515152 2.5757576-22.6060606-5.5151515-12.2575758-2.6033335-.9541092-5.5090349-.5711045-7.7762217 1.024995-2.2671869 1.5960995-3.6076779 4.2024143-3.5874147 6.975005-2.1045301 1.1031912-4.3391513 1.9379927-6.6515151 2.4848485 7.6515151-48.5757576-9.1515152-15.6363636-5.2424243 12.030303zm17.2575758-16.2424242c.5757575-1.3787879.9393939-7.0757576 5.4848485-4.6363636-.2156868 3.7490792-1.9970888 7.2349091-4.909091 9.6060606-.8939393-1.1666667-.8333333-2.0454546-.5757575-4.969697zm-12.1212122 7.6969697c4.2121213 4 6.6363637 13 3.3636364 19.8484848-3.6818182-5.1363636-2.7424242-11.560606-3.3939394-19.590909z"/><path d="m35.2424242 72.8333333c.3181819.3484849-.3333333 2.5909091 1 3.969697.6784353.3333508 1.4730799.3333508 2.1515152 0 .1515151-.1969697.2727273 0 .3939394-.969697-.0870908-.6078721-.0457989-1.2272498.1212121-1.8181818.0868632-.2912834.1427284-.5909242.1666667-.8939394.2954465-1.6505715.7783716-3.2620161 1.4393939-4.8030303.1212121-.2575757.1060606-.1969697.6666667-1.3181818 0-.1363636.1515151-.1969697.2575757-.1666667v.3030303c-.0958514 2.5754864.0156192 5.15451.3333334 7.7121212.2121212.2121213-.1515152.8333334 1.5151515 1.3181819.2272727 0 .2878788.1515151 1.1515151-.5151515.0909091-.1212122.1818182 0 .2878788-.7575758 0-.1212121 0-.0909091 0-.6363636-.0357241-.8341829.1089835-1.6662517.4242425-2.439394 0-.1515151 0-.1666666.2878787-.8939394.2872802-.9203129.6680545-1.8087861 1.1363637-2.6515151.1515151-.1060606 0-.2121212.5909091-.6818182.1120015.3417568.1582712.7016323.1363636 1.0606061 0 .590909 0 .5-.2121212 3.1666666.2424242.7121212-1.1060606 5.3787879 1.3484848 7.5757576 1.7272728.6818182 3.4545455-1.8181818 4.3181819-5.6212121.183004.3463891.4238424.6589666.7121212.9242424.3379686.3417591.7027718.6558951 1.0909091.9393939 1.4812953 1.0948336 3.5610531.8348639 4.7272727-.5909091.5574913-.6491297 1.01226-1.3798256 1.3484848-2.1666666.0757576-.1060606 0-.0909091.3030303-.5454546.2216588-.0223803.445008-.0223803.6666667 0 .6967335-.0620918 1.3806934-.2254255 2.030303-.4848485.479695 1.2969246 1.0518726 2.5577407 1.7121212 3.7727273.3167405.5166714.5662315 1.0716618.7424243 1.6515152-.1666667.2878788-.2121212.2272727-.969697 1.5151515-.4848485 1.4090909-4.3484848 6.060606-.9696969 7.6818182l.4545454.0909091c1.0667895.0721493 2.1137962-.31359 2.8787879-1.0606061 1.4090909-1.6969697 3.1212121-3.2272727 3.030303-7.0151515-.0866967-.8463361-.2696989-1.6800131-.5454545-2.4848485 0-.2272727 0-.1666667-.3787879-1.2272727l.6363636-.6212121 1.8484849-1.5151516c.0954675 2.340239.4254013 4.6650037.9848485 6.939394.2246418.7913558.5613894 1.5464868 1 2.2424242.1966711.3061128.4252193.5905283.6818181.8484849.4161003.3605451.974131.5112134 1.5151516.4090909.1402059-.0461186.2729209-.1124761.3939394-.1969697 0-.1212121 0-.0757576 0-.5151515-.3967448-1.7878423-.6250162-3.6089405-.6818182-5.439394-.1666667-4.1666666-.3939394-9.560606-.4545455-16.5454545-.0264052-.5047054-.0264052-1.0104462 0-1.5151515.2398778-.0455552.483156-.0708967.7272727-.0757576l4.0606061-.1515152c.5787603-.0180757 1.155734-.0737486 1.7272727-.1666666 0-.1060606 1.3484849 0 1.0606061-1.0454546-.1499166-.1050431-.3202838-.17732-.5-.2121212-.4036241-.0838822-.8150377-.1245156-1.2272727-.1212121l-5.1515152.1666667c-.200503.0006681-.3998787-.0300051-.5909091-.0909091-.2121212 0 .5606061-.7727273-.6818182-1.6060606-.5351339-.1500593-1.1012297-.1500593-1.6363636 0-.592879.1566758-1.0082492.6898376-1.0151515 1.3030303 0 .1666666.1666667.1363636-.1666667.7727272l-.8484848.1666667c-1.780523.1274884-3.5245092.5686143-5.1515152 1.3030303 0 .9848485 1.0606061.4545455 3.0303031.2121212l2.9242424-.2272727v.6363636c0 3.3030303-.3030303 5.1818182-.1060606 11.3030303-.2350574.1375052-.4580733.29463-.6666667.469697-.3939394.3939394-.3030303.3030303-2.1969697 2.030303l-.1666667-.3333333c-.9872897-1.7744163-1.5378292-3.7584358-1.6060606-5.7878788-.2727272-.5909091.7121212-1.0606061-.6666666-2.2424242-.9096085-.2985578-1.909839-.051442-2.5757576.6363636-.1818182.8181818-1.8333333.8333333-.7121212 5.3181818-.6664808.4284627-1.4513442.6352848-2.2424243.5909091.1060606-.530303.1969697-1.030303.2575758-1.5151515s.2121212-7.0606061-3.8484849-5.2727273l-.8787878.3333334c-.5395194.1183031-1.0529595.3339479-1.5151515.6363636-1.2974582.9998924-2.2078096 2.4189696-2.5757576 4.0151515-.1588303.6548765-.2401958 1.3261415-.2424243 2-.5568313 1.7374625-1.2352757 3.4335735-2.030303 5.0757576-.0949225.2885876-.2744061.5419763-.5151515.7272727 0 0 0 0 0-.3030303-.0302219-.6006302-.0302219-1.2024001 0-1.8030303.3079505-2.7159533.3789254-5.4535565.2121212-8.1818182-.3333333-.2575757.1515152-.8181818-1.8181818-1.3484848-.7580367-.1416563-1.5214822.2186899-1.8939394.8939394-.2455021.285588-.4356178.6144369-.5606061.9696969-.1942862.3764625-.3613798.7663474-.5 1.1666667l-.2575757.3484849v-.4242425c0-.2121212 0-.1969697-.0757576-1.1818182-.0434484-.8330847-.2439356-1.6504556-.5909091-2.4090909-.1678412-.3002773-.4008185-.559141-.6818182-.7575757-.4090909.0757576-.7878788-.939394-2.6969697.4242424-.5841077.6272583-1.0191533 1.3782298-1.2727272 2.1969697-.1666667.3787879-.0757576.3181818-.6666667 2.1060606l-.1666667.5c-.0287669.0136454-.0621422.0136454-.0909091 0 .0984302-.6573146.1541027-1.3203237.1666667-1.9848485.1169392-.9256141.1169392-1.8622646 0-2.7878788-.065108-.343147-.3372949-.6092853-.6818182-.6666666-.8574848-.0893535-1.6757261.3808299-2.030303 1.1666666-.4899247.9377259-.7642768 1.9730169-.8030303 3.0303031-.1307607 1.2845597-.1307607 2.5790766 0 3.8636363-25.83333335-4.8181818-26.59090911 4.7424243-.1515152.0757576.0151515.1212121 0 .1212121.0151515.2272727zm31.2727273 5.8181819c-.1060606 1.1212121.7878788-.5 0 4.3484848-.2842102.7774963-.6660557 1.5157309-1.1363636 2.1969697-.5909091.6363636-.1515152.6515151-1.3484849.2121212-.1917051-.3624396-.250662-.7804978-.1666666-1.1818182 0-.2272727 0-.1666666.3030303-1.1363636.5096415-1.4280949 1.1860363-2.7910559 2.0151515-4.0606061.0891585-.1440061.2018317-.2720437.3333333-.3787878zm-8.6969697-11.3939394c0-.439394 1.1060606-.6818182 1.6818182-1.6515152.1212121.1212121.2121212 0 .5151515.6363636.121216.4027523.2173599.8126286.2878788 1.2272728.1991434 1.2125544.1003436 2.455352-.2878788 3.6212121l-.0909091.1515151-.0909091.1515152c-.3282617-.0950304-.6293893-.2663616-.8787878-.5-.8417339-.721659-1.3328721-1.7701564-1.3484849-2.8787879-.0070972-.2681122.0668286-.5321327.2121212-.7575757zm-1.5151515 4.030303c.0882566-.4527825.2097986-.8984366.3636364-1.3333333.7424242.5151515-.6363637.2121212 2.8636363 2.1515151-.560606.5151515.7424243.3181818-2.4545454 2.8333333-.9464558-.9620923-1.258522-2.3811107-.8030303-3.6515151z"/><path d="m4.83333333 150.30303c12.12121217-6.651515 11.25757577-27.136363 12.69696967-41.484848 1.1269466-1.438296 2.4128908-2.744572 3.8333334-3.89394.6818181 1.166667-1.2272728 20.681819 6.3787878 13.909091.5-5.530303-3.6060606-21.9242421 7.3030303-24.4393936-.4545454-3.8636364-6.3181818-1.5151515-8.0757575 5.0909091h-.1818182c.9545454-12.1212121-5.7575758-12.6666667-5.5151515 3.2727275-.8181818.530303.1666666 0-3.7424243 3.227272.1969697-1.80303-.4242424-20.9999995-5.7575757-11.8484844-.4090909 5.5606061 0 10.9242424-5.42424245 15.8181814-1.8030303-4.575757-.57575758-11.4696965 1.74242424-17.2121208 1.8030303 5.2121213 5.10606061-4.4090909-2.21212121-4.030303-10.86363636 2.8181818-5.37878788 39.3939398 5.89393942 16.8484848 3.1666666 8.939394-18.45454548 39.484849-6.93939397 44.742424zm-1.03030303-10.181818c1.42262076-7.778828 4.01245975-15.298045 7.6818182-22.30303.0558161-.160601.1555519-.302331.2878788-.409091 2.3787879 4.469697-8.19696972 48.318182-7.969697 22.712121z"/><path d="m118.454545 82.8484848c-2.212121-1.5151515-6.060606.1969697-10.242424 0 .803031-3.6212121-4.666666-4.7272727-4.772727 1.5151516 0 .7727272-7.8030304 1.1969697-7.9545455 4.5454545 1.9545454.1515152 1.8636363-.6060606 8.0151515-1.8030303.257576 6.5909091.151515 13.6363634.378788 22.1363634-1.364159 1.283657-2.658925 2.639115-3.878788 4.060606-2.3030303-3.651515-1.4242424-10.030303-3.4848485-14.8787876-4.4393939-.7878788-5.9242424 4.3030306-4.3484848 9.8636366-1.3030303 1.060606-4.7878788 5.257576-8.0151515 3.757576-.850002-1.634563-1.1375637-3.503714-.8181819-5.318182 9.0909091-1.515152 7.6818182-18.757576-3.5454545-6.363637-6.3787879 7.575758 3.6060606 20.469697 12.7575757 9.333334.8636364 2.742424 1.939394 4.80303 3.2272728 9.090909-14.4545455 19.287879 11.8787877 22.121212 4.8030307-3.333334l.878787-.984848c.848485-.80303 1.712122-1.621212 2.560607-2.454545 1.10606 4.651515-.984849 19.439393 6.287878 20.848484-1.515151-14.787878-1.409091-30.409091-2.075757-46.6666663 1.939394-1.4848485 10.060606 1.0757576 10.227272-3.3484849zm-34.454545 20.7272732c.520425-2.033965 1.4482432-3.9411471 2.7272727-5.606061 1.3484849 1.1515151.2727273 5.257576-2.7272727 6.969697 0 0-.0757576 0-.2272727 0-.0030444-.464219.0738355-.925498.2272727-1.363636zm12.3636364 25.212121c-2.9242425 7.969697-6.1515152.227273 0-7.439394.6182507 2.441263.6182507 4.998131 0 7.439394z"/><path d="m81.3030303 89.2424242c6.4090909-2.6666666-1.4242424-2.1212121-7.5757576-.8333333.6060606-2.7121212-4.5454545-2.4545454-4.7878788 1.1363636-1.4242424.7878788-5.5454545.3333334-8.2575757 2.3333334 1.9393939.8484848 2.0454545 0 8.2878788-.6363637.1818182 3.7272728-.0909091 9.0909088.2121212 14.7121208-.7860795 2.240094-1.8015755 4.392946-3.030303 6.424243-.0457375.069867-.1082454.127166-.1818182.166667-2.5606061-.560607 2.6212121-21.0000005-5.469697-12.5909095-3.3333333-2.0454546-11.3636364-1.6363637-10.8939394 5.3333335-1.5151515.878788-4.5454545 4.545454-7.5757576 4.075757-.8636363-1.272727-.9848485-2.575757-.8030303-5.045454 2.7695613-.78393 5.0123767-2.819285 6.0606061-5.5000002-7.5757576-19.2272727-22.7272727 26.5454542 2.5 7.8181822.1515151 3.651515 7.5 5.60606 9.9545454.651515.0909091.136363 0 .136363.2424243.60606 0 4.166667 7.6969697 11.909091 9.3787879.69697.560606 3.030303.5151515 11.681818 6.060606 12.121212-1.5151515-9.318182-1.3939394-19.454545-1.7878788-30.212121 2.2272728-.5 4.1212122-.4848485 7.6666667-1.2575758zm-39.3939394 11.9696968c.4795843-1.8273434 1.4426248-3.4917287 2.7878788-4.8181816 1.3484848 1.1969697 0 4.5454546-2.7878788 6.1363636 0 0-.0757576 0-.2272727 0-.0176518-.44668.0439039-.892959.1818182-1.318182zm18.1818182 0c-.0983269 3.118285-1.9029717 5.930038-4.6969697 7.318182-1.4090909-1.651515-.8333333-11.0757575 4.6969697-7.318182z"/><path d="m16.4848485 193.787879c-.479129-2.187276-.7580588-4.413643-.8333333-6.651515-.2575758-6.060606-.4848485-12.39394-.5757576-20.19697 0-.333333 0-.257576.1060606-1.848485.2882517-.066917.5828926-.102477.8787879-.106061 1.1818181 0 2.4545454 0 4.8939394-.151515.4242424 0 .2878787 0 2.1212121-.212121 0-.136364 1.6363636 0 1.2878788-1.287879-.1897383-.122818-.4002354-.210097-.6212122-.257575-.4985065-.102408-1.0062377-.153181-1.5151515-.151516l-6.2878788.212122c-.2401936-.012754-.4786356-.048267-.7121212-.106061-.2272727-.863636.6212121-.712121-.8333333-1.969697-.658534-.188206-1.3566176-.188206-2.0151515 0-.698181.179573-1.1965959.7949-1.2272727 1.515152-.0909091.196969.2121212.166666-.2121213.939394l-1.03030299.196969c-.63636364.242424-4.09090909.212121-6.28787879 1.606061 0 1.030303.66666667.712121 3.75757576.257576.6969697-.09091.48484848 0 3.56060602-.318182v.772727c0 3.151515-.3939394 8.606061-.1060606 14.333333.0992463 3.322604.5306881 6.62694 1.2878788 9.863637.2643497 1.019819.6779047 1.994992 1.2272727 2.893939.2385796.37337.5180877.718943.8333334 1.030303.5068049.441952 1.1861501.631278 1.8484848.515152.1664862-.066378.3242241-.15288.469697-.257576.030303-.136364.0151515-.090909-.0151515-.621212z"/><path d="m114.439394 179.515152c-.372055.257611-.71723.552025-1.030303.878787-1.370702 1.487183-2.991107 2.722998-4.787879 3.651516-.440618.257252-.908042.465561-1.393939.621212-.130656.095295-.299334.121514-.452752.070375-.153417-.051139-.272628-.173321-.319976-.327951-.141507-.172892-.263461-.360904-.363636-.560606-.477339-1.229195-.603247-2.566964-.363636-3.863637 1.025827-.302595 1.975957-.81897 2.787879-1.515151 1.184447-1.131612 2.082888-2.528609 2.621212-4.075758.175767-.485585.263007-.998762.257575-1.515151.082719-.658737-.300674-1.28725-.924242-1.515152-.247103-.159992-.526477-.263464-.818182-.30303-1.426838-.350017-2.934542-.109658-4.181818.666667-.647252.423139-1.233507.932926-1.742424 1.515151-2.045455 2.181818-4.9545457 8.272728-.772728 11.787879 2.09091 2.030303 6.757576 1 10.303031-2.924242.618903-.667429 1.171971-1.393013 1.651515-2.166667-.075758-.227273-.030303-.530303-.469697-.424242zm-8.090909-2.242425.409091-1.166666c.479385-1.322197 1.198479-2.544657 2.121212-3.606061.273936.172448.461329.453537.515151.772727.064274.514921-.008912 1.037679-.212121 1.515152-.549201 1.465878-1.53901 2.725635-2.833333 3.60606 0 0 0 0-.212121 0 .011261-.382571.082849-.760966.212121-1.121212z"/><path d="m30.7424242 171.727273c-.307796-.126624-.636891-.193472-.9696969-.19697-.8893684-.094743-1.7806644.160689-2.4848485.712121-.7539955.659106-1.4255351 1.406956-2 2.227273l-.939394 1.393939c-.1515151.257576-.1060606.227273-.7575757 1.515152h-.1666667c-.0274453-.226444-.0274453-.455374 0-.681818 0-.590909 0-.530303-.2121212-3.287879.0078506-.296542-.027884-.592629-.1060606-.878788-.080622-.329094-.3375722-.586045-.6666667-.666667-.3787878.121212-.7878787-.757575-2.3636363.772728-1.2467105 2.411466-1.7727141 5.130905-1.5151515 7.833333.6515151 3.030303-.6818182 6.848485 2.5757575 10.363636.439394-.166666 3.1818182.939394 3.1969697-1.30303-.0909091-.575758 0-.5-.3636363-3.181818-.1448046-.923652-.1448046-1.864227 0-2.787879.2727272-1.727273.2272727-5.469697 2.6818182-8.19697.9022362-1.228895 2.1863726-2.124061 3.6515151-2.545454l.5151515-.257576c.2424243 0 .3333334-.212121.3030303-.409091-.0479513-.195556-.1898921-.354529-.3787879-.424242z"/><path d="m100.318182 171.727273c-.312844-.127443-.6470533-.194285-.9848487-.19697-.8847565-.095589-1.7716616.160145-2.4696969.712121-.7581818.659358-1.4347115 1.407101-2.0151516 2.227273l-.9242424 1.378788-.7727272 1.515151h-.1515152c-.0294029-.221249-.0294029-.445417 0-.666666-.0757576-.606061 0-.530303-.2121212-3.287879.0078506-.296542-.0278841-.592629-.1060606-.878788-.0806221-.329094-.3375722-.586045-.6666667-.666667-.3787879.121212-.7878788-.757575-2.3636363.772728-1.1711316 2.258132-1.6954792 4.795974-1.5151516 7.333333-.2878788.424242-.0909091.151515-.6515151.954545-.2424243.409091-.1515152.409091-1.2878788 2.318182-.1969697.151515 0 .303031-.8787879.878788-.0431877-.08242-.0786913-.168642-.1060606-.257576 0-1.227272.1818182-1.787878.2121212-7.939394-.0177947-.451987-.1424093-.89333-.3636363-1.287878-.2027991-.414993-.6145175-.687539-1.0757576-.712122-.5454546 0-2.0757576-.393939-2.8333333 2.106061-.1225797.579887-.2086078 1.166901-.2575758 1.757576.0072105.581132-.1009376 1.157922-.3181818 1.696969-.1060606.303031 0 .242425-.5606061 1.606061-.5247449 1.421631-1.2003187 2.782937-2.0151515 4.060606-.1818182.19697 0 .212121-.8787879.984849-.0447183-.154303-.0801355-.311151-.1060606-.469697 0-.409091 0-.272728-.0909091-2.060606 0-1.515152.0909091-3.030303.1969697-6.69697.1135319-1.168967.1135319-2.346185 0-3.515152-.0075307-.289624-.1332146-.563561-.3478504-.758164s-.4995381-.292931-.7885132-.272139c-.5471464-.085998-1.1043688-.085998-1.6515152 0-.7209525.107528-1.3405841.567988-1.6515151 1.227273-.3111351.526006-.5169782 1.107513-.6060606 1.712121-.3547332 1.53453-.5175948 3.107162-.4848485 4.681818-.2864719.164249-.5555282.357157-.8030303.575758-.5757576.545455 0 0-2.6818182 2.469697l-.2121212-.409091c-.5454546-1.515151-1.969697-3.242424-1.9545455-7.060606-.3636363-1.348485.8636364-1.090909-.8333333-2.727273-1.1070427-.367534-2.3267678-.067022-3.1363636.772728-1.3030303 1.515151-1.8181818 3.484848-.8484849 6.60606-.1060606.333334 0 .090909-.2272727.757576-.647248 2.272528-1.4574273 4.495458-2.4242424 6.651515l-.1060606.19697c-.0363927.079793-.0878378.151817-.1515152.212121 0-.090909-.1212121 0-.2121212-.30303-.0909091-.303031-.1515152-.378788-.4545455-2.272728-.1060606-1.515151-.1666666-3.030303-.1666666-4.545454 0-1.515152.1363636-3.030303 0-6.69697-.0313114-.3989-.0972157-.794325-.1969697-1.181818-.1065331-.456607-.5160066-.777886-.9848485-.772727-.593877-.132781-1.2114699.084847-1.5909091.560606-.2575758.333333-.1515151.242424-1.2424242 1.712121-.8754682-.563711-1.8628309-.930741-2.8939394-1.075758-1.4880452-.191646-2.9942846.175466-4.2272728 1.030303-.7354724.601195-1.3302357 1.356286-1.7424242 2.212122-.3554441.806769-.6000878 1.657926-.7272727 2.530303-.0723754.445813-.1078492.896838-.1060606 1.348485-1.3033186 1.402397-2.8415883 2.566354-4.5454546 3.439394-.4406183.257252-.9080419.465561-1.3939394.621212-.1306559.095295-.2993337.121514-.4527514.070375-.1534176-.051139-.2726284-.173321-.3199758-.327951-.1344951-.17791-.2560207-.365262-.3636364-.560606-.4781252-1.229009-.6040537-2.567-.3636364-3.863637l.8181818-.318181c.7208723-.286541 1.383279-.702471 1.9545455-1.227273 1.1872669-1.132201 2.090542-2.528644 2.6363636-4.075758.1676684-.487686.2546691-.999455.2575758-1.515151.0807489-.662813-.3098093-1.292746-.9393939-1.515152-.2464852-.164025-.5256409-.272585-.8181819-.318182-1.4272458-.339701-2.9309469-.099981-4.1818181.666667-.643661.427871-1.2293206.93714-1.7424243 1.515152-2.0454545 2.181818-4.9545454 8.287878-.7727273 11.80303 2.0909091 2.030303 6.7575758.984848 10.3030303-2.939394l.0909091-.106061c.1172581.657314.3263767 1.294871.6212122 1.89394.8887071 1.308045 2.3933821 2.060187 3.9730272 1.985996s3.0072008-.96405 3.769397-2.349633c.0909091-.166666 0-.10606.4545455-.863636.0898254.21568.1607978.438736.2121212.666667 0 .378788 0 .318182.4090909 2.015151.4242424.818182-.4545455-.257575 1.5151515 3.348485 1.3484848 1.681818 4.9545454 2.39394 5.5151515-1.757576.5-1.742424.1666667-1.121212 1.3484849-5.212121.4696969 1.090909 0 0 1.8484848 3.878788.3711672.613436.6662676 1.26978.8787879 1.954545-.2121212.348485-.2575758.272728-1.1818182 1.803031s-5.5757576 8.242424-.6212121 9.484848c3.9393939-.378788 7.0454545-3.909091 7.2121212-9.848485-.1187751-1.030113-.3421498-2.045452-.6666667-3.030303-.0757576-.287878-.0909091-.212121-.4696969-1.515151l.7727272-.772727 2.2272728-1.787879c.1575093 1.293691.5260323 2.552811 1.090909 3.727273.1528548.330761.3462588.641226.5757576.924242.6179145.822734 1.5730389 1.323996 2.6011528 1.365121 1.0281138.041124 2.0202236-.382249 2.7018775-1.153.3172026-.448893.6105383-.914184.8787879-1.393939.2575758-.5.2272727-.363637 1.2424242-2.575758.147792-.204199.2651762-.42876.3484849-.666666 0 .272727.1363636.530303.2121212.772727s.3181818 2.333333 2.1212121 3.030303c1.4974813.409943 3.0695332-.337425 3.6969697-1.757576.2575758-.469697.1212121-.181818 1.1212121-1.984848.6060606 1.863636-.4696969 5.969697 2.5 8.681818.439394-.151515 3.1818182.954545 3.1818182-1.287879-.0757576-.575758 0-.5-.3484848-3.19697-.1464702-.918439-.1464702-1.854288 0-2.772727.2727272-1.727273.2272727-5.484848 2.6818182-8.19697.9148065-1.206772 2.2045552-2.075487 3.6666666-2.469697l.5151516-.257575c.227273 0 .333333-.212122.30303-.409091-.055775-.216694-.214323-.39223-.424242-.469697zm-63.5454547 5.545454.4090909-1.166666c.4793849-1.322197 1.1984793-2.544657 2.1212121-3.606061.2674952.178969.452832.456974.5151515.772727.065005.514926-.0082078 1.037875-.2121212 1.515152-.5492012 1.465878-1.5390103 2.725635-2.8333333 3.60606 0 0 0 0-.1969697 0 .0073765-.381665.0738206-.759885.1969697-1.121212zm15.9545454 0c0 .434344-.060606.858586-.1818182 1.272728.0004669.191899-.0355246.38214-.1060606.560606-.2878787.469697-.1363636.454545-1.3939394 2.575757-.4240591.83759-1.0616997 1.548403-1.8484848 2.060606-.1650587.050155-.3229348.121453-.469697.212121-.3417293-.433431-.5379192-.963674-.560606-1.515151-.2375265-2.174989.1349569-4.373165 1.0757575-6.348485.2878788-.136364.1515152-.924242 1.2878788-1.181818.8689952.056633 1.6995112.379318 2.3787879.924242-.0707071.565657-.1313131 1.045455-.1818182 1.439394zm12.1212121 17.242425c-.3490129.949446-.8174212 1.850623-1.3939393 2.681818-.4242425.515151-.7424243 1.181818-1.6363637.257575-.2345038-.441005-.3094381-.949488-.2121212-1.439393 0-.272728 0-.212122.3636364-1.39394.6500143-1.732332 1.4776601-3.392701 2.4696969-4.954545.088254-.175174.2121085-.329992.3636364-.454546.5923335 1.728129.6294177 3.598232.1060606 5.348485z"/><path d="m80.3030303 140.30303c0-.681818-1.6060606-4.984848-1.6363636-5.393939-.4800448-1.41313-1.1695492-2.746172-2.0454546-3.954546-1.3466747-.687834-2.6473779-1.462183-3.8939394-2.318181 0-.227273-.1666666-.515152-.4393939-.469697-.2727273.045454-.5757576-.424243 0-.454546s.5909091-1.848485.6060606-2.787879c-.1522257-1.159288-.9905174-2.111347-2.1212121-2.40909-.8787879 0-3.6060606.515151-3.7424243 1.287878-.0599827.570937.1602257 1.135574.5909091 1.515152 0 0-.2878788 1.151515 0 1.515151.2878788.363637-.3333333 1.348485-.2121212 1.515152s.5606061 0 .530303.166667c-.030303.166666-2.2121212.681818-2.6969697 1.515151-.7603153 1.349472-1.6482128 2.622971-2.6515151 3.80303-.8181818.69697-1.2424243 1.757576-2.030303 2.363637-.7234468.571658-1.1472644 1.4416-1.1515152 2.363636.0909091.621212.1666667.863636-.3484848 1.166667-.5151516.30303-2.0606061 1.636363-2.5757576 1.363636s-1.0151515-.560606-1.3030303-.439394-.8333334.545455-.7121212 0c.2575757-1.015151.7727272-1 .7272727-1.742424.0819712-.808375-.1514405-1.617174-.6515152-2.257576-.9072097-.77597-2.2443054-.77597-3.1515151 0-.4848485.530303-1.1212121 1.136364-.4090909 2.89394.1969697.454545.3030303 1.181818.4393939 1.515151.1363637.333333.5454546.393939.5151515.530303-.030303.136364-.6515151.121212-1.2727272.272727-.6212122.151516-.6515152.348485-.9545455.818182-.6121591.795696-1.3869654 1.451699-2.2727273 1.924243-.6111742.26669-1.2605495.435426-1.9242424.5-.4545454 0-1.0454545-1.060606-1.0909091-1.287879-.5757666-1.211829-1.0031018-2.488748-1.2727272-3.80303-.0165288-1.165847-.3690023-2.30218-1.0151516-3.272728-.560606-.727272-.6515151-5.075757-.5454545-5.60606s-.5-1.075758-1.5151515-1.515152-2.5606061-1.19697-2.3484849-1.515151c.2121212-.318182 1 .227272 1.1060606-.121213.1060606-.348484 0-1.212121.5-1.515151s.3787879-.30303.3030303-.863636c-.0524624-.409922.032816-.825655.2424243-1.181819.1683612-.407538.1683612-.865188 0-1.272727s-1.2878788-2.242424-3.1212121-1.742424c-1.8333334.5-2.5606061 2.30303-3.2575758 2.863636-.786307.465592-1.3081439 1.273598-1.4090909 2.181818 0 .984849.6363636 1.363637-.3484849 2.030303-.9848484.666667-1.4393939 2.333334-1.9545454 4.848485-.5151515 2.515152-.939394 4.212122-.3787879 4.969697.5606061.757576 1.5151515 2.454546.9848485 3.030303-.530303.575758-1.969697 6.060606-2.8030303 7.060606-.9419611 1.820843-1.4256329 3.843943-1.4095014 5.89394.2125317.80303 1.7579862 1.287879 2.8034408 1.181818 1.0454545-.106061 1.9848485-.090909 2.3030303.378788.2540619.298593.6232249.474909 1.0151515.484848.0439142 1.161425.1501275 2.319656.3181818 3.469697.163426 1.129686.0859722 2.281166-.2272727 3.378788-.2121212.348485.5454545.89394.8787879.772727.3333333-.121212 1.0151515.181819.9545454-1.10606.0815056-.911721.106806-1.827595.0757576-2.742424-.0078671-1.130876.0731907-2.26062.2424242-3.378788 0-.409091-.2424242-.5.5-.484849.7424243.015152 1.1666667-.136363 1.1515152.409091.2269723 1.345934.3082496 2.712408.2424242 4.075758-.2413839.994563-.3935027 2.008689-.4545454 3.030303 0 .257576 1 .318182 1 .166666 0-.151515-.1666667-.363636.4242424 0 .7017809.217169 1.4470306.253649 2.1666667.106061 0 0 .2424242-.333333-.1969697-.515151-.439394-.181819-1.5151515-1-1.5151515-1.666667s1.1363636-3.984849 1.1969697-4.545455c.060606-.560606.4848484.121212.8939394 0 .4090909-.121212.5757575-2.5.2727272-3.030303-.4848705-1.371901-.5741273-2.852513-.2575757-4.272727.4481879-1.792235.6420064-3.638612.5757575-5.484848-.1363636-.469697.5757576-2.621213 0-3.666667-.5757575-1.045455-.3939393-3.030303-.6969697-3.439394-.2022161-.672148-.264103-1.37869-.1818181-2.075758.2741652.556437.4191837 1.167586.4242424 1.787879-.1212121.621212 2.6212121 5.545455 2.7272727 6.060606.1060606.515152.0757576 3.030303.8181818 3.39394.7424243.363636 1.3636364.393939 1.3333334.212121-.0303031-.181818 0-.257576.2121212-.242424.2121212.015151.1515151-.287879.6060606-.212122.4545454.075758 2.1212121 0 2.3484848-.287878.2272728-.287879 2.2121212-2.409091 2.0757576-1.19697s.3030303 2.166667.2575758 3.984848c-.1331075 1.743337-.0772269 3.495957.1666666 5.227273.1145439 1.361231.1145439 2.729678 0 4.090909.2667797 1.412941.3330884 2.85643.1969697 4.287879-.3333333.848485-.6212121 1.878788-.1212121 1.984848.5.106061 1.4090909 0 1.3939394-.439394-.016449-.507995.0242098-1.016231.1212121-1.515151.0399845-.615513.0399845-1.232972 0-1.848485 0-.712121.5-1.833333.5-2.575757 0-.742425.969697-1.924243.9545455-3.030303-.0151515-1.106061.1969697.772727.3636363 1.515151.1666667.742424.4242425 1.090909.5151516 1.060606s.2878787-.257576.2272727.121212c-.0606061.378788.3181818 2.287879.2575757 3.272727-.1067509.728433-.1067509 1.468537 0 2.19697.1515152.121212.469697 0 .5454546.333334.1047909.330984.4104162.557147.7575757.560606.3181819 0 1.0303031-.121213 1.1060607-.5.0757575-.378788-.3181819-.257576-.3939394-.363637-.0757576-.10606-.8636364-.621212-.8787879-1.242424.2238435-1.57086.3352379-3.155697.3333333-4.742424-.1590864-1.627435-.1590864-3.266505 0-4.89394.1212121-.651515.3333333-2.212121 0-2.621212-.3273883-1.440255-.424552-2.92328-.2878788-4.393939.0909091-.333334-.1818182-1.348485.3030303-1.818182s.5757576-.393939.7272728-.848485c.1515151-.454545 2.6212121-1.69697 3.1818181-2.69697.5606061-1 .8787879-.651515 1.0454546-1.10606.1666667-.454546-.1969697-.818182.4242424-.939394 1.3292801-.819966 2.5552361-1.796661 3.6515152-2.909091.4545454-.454545 1.060606-.80303.6666666.878788s-.4242424 4.242424-1.1818182 5.575757c-.5404401.869257-.9489274 1.813884-1.2121212 2.803031-.2575757.833333.7272728 1.318182.9545455 1.651515s-.2272727 3.030303.1212121 4.712121c.1966503 2.439449.2320808 4.889218.1060606 7.333333 0 .742425.6363637 2.318182.6363637 3.030303 0 .712122 1.5151515 1.954546 2.4242424 2.060607.9090909.10606.9090909.151515.9090909.151515.2361362.533092.1847514 1.149709-.1363637 1.636363-.560606.636364-.8787878.469697-.9696969.772728-.0909091.30303.5909091.469697 1.3787879.287878.515385-.114136.988066-.371485 1.3636363-.742424.2335039-.337265.2335039-.783947 0-1.121212-.1844193-.339813-.2832307-.719457-.2878788-1.106061 0-.212121.3333334 0 .3333334-.378787-.1033185-.549484-.1540528-1.107561-.1515152-1.666667.1363637-.272727.3787879.515151.8333333.954545.4545455.439394.3181819.909091.2575758 1.515152-.0606061.60606-.1060606 2.363636.6515152 2.151515.7575757-.212121 2.0151515-.30303 1.8181818-1.515152-.0851943-.711123-.2901071-1.402704-.6060606-2.045454-.1556049-.437194-.0754773-.923683.2121212-1.287879.4281371-.668834.7024151-1.424392.8030303-2.212121-.1020959-.544975-.2438878-1.081758-.4242424-1.606061.0416548-.891431-.0711169-1.783353-.3333334-2.636363-.3787879-.636364-.2272727-.727273.2727273-.939394s0-3.878788.1969697-4.227273c.1977235-1.152733.3242259-2.316555.3787879-3.484848 0 0 .560606.181818.4242424-.484849-.2689485-1.59036-.4560635-3.193481-.5606061-4.80303.1170334-1.191808.3042269-2.37568.5606061-3.545455.1212121-.787879.2575758-.924242.2575758-.924242.4371312 1.08673.9432115 2.144438 1.5151515 3.166666.636354 1.070292 1.0775495 2.245104 1.3030303 3.469697 0 .757576.5909091.681819.6060606.833334.0075724.71203-.1103931 1.419823-.3484849 2.090909-.2272727.181818-.7424242-.121212-.7878788-.69697-.0454545-.575757-.3787878-.787879-.4848484-.590909s-.1363637-.151515-.4242425 0-.1818181.212121-.2878788.363636c-.1060606.151516-.4090909 0-.3484848.272728.0606061.272727.2727273.272727.1818182.333333s-.4848485-.151515-.3636364.166667 2 2.378788 2.3333334 2.181818c.3333333-.19697.5-.560606.5151515-.30303.0151515.257575.3939394.378787 0 .666666s0 .409091.2727272.333334c.2727273-.075758.4848485-.166667.4545455-.363637-.030303-.196969.3484848.181818.4393939-.090909s-.1212121-.242424.2727273-.363636.1666667-.303031.3939394-.439394c.2272727-.136364.4545455 1.772727.5151515 2.727273.0606061.954545-.1363636 2.424242.1060606 2.454545.2424243.030303.5606061.075758.5606061.424242 0 .348485-.3030303.515152-.3636364 1.19697-.060606.681818.1212121.863636 0 2.060606s0 2.681818-.1363636 3.030303c-.1363637.348485 1.3939394.151515 1.5151515.272727.2551129.395111.3673892.865602.3181818 1.333334-.1830581 1.026209-.4361754 2.038679-.7575757 3.030303-.3636364.621212-.7878788.621212-.8939394 1.515151-.1060606.89394-.6515152 1.378788-.6666667 1.757576s1.0454545.606061 1.4242424.333333c.3787879-.272727.3787879-1.151515.5151515-1.515151.1363637-.363636.5606061-.787879.6060606-1.227273.0454546-.439394.5454546-1.257576.6212122-.80303.0757575.454545.3939394 1.984848.1515151 2.348485-.2424242.363636-1.5151515 1.075757-1.0909091 1.348485.4242424.272727 1.5151515-.469697 2.1666667-.363637.6515151.106061.6818182-.227272.469697-1.015151-.3113497-1.555697-.4485582-3.141217-.4090909-4.727273.1666666-.666667.5757575-2.227273.560606-2.363636-.0151515-.136364.6969697.166666 1.0909091 0 .3939394-.166667.2727273-1.242425.3939394-1.515152s.7121212-2.651515 1.1818182-2.80303c.4696969-.151515 0-2.121212.5-2.89394.5-.772727-.1212121-1.681818-.1212121-2.40909-.0534574-.775148-.1906191-1.542238-.409091-2.287879-.1060606-.378788-.4393939-1.712121-.1666666-1.606061.2727273.106061.1515151.30303.3484848.272727s.3939394 0 .469697.39394c.0757576.393939 1.6666667 2.772727 1.7424242 3.166666.0757576.39394 0 1.136364 0 1.515152s.4242425.454545.2424243.742424-.439394.181818-.4848485.409091.5606061.666667.8181818.560606c.2575758-.10606 0 .318182.1666667.484849.1666667.166666.8484848-.378788.8030303-1.121212.0264415-.537672-.1224393-1.069389-.4242424-1.515152-.4940671-.944874-.8123666-1.971647-.939394-3.030303-.2121212-1.348485-1.0151515-2.439394-.8181818-2.606061.1969697-.166666.5151515 0 .3484849-.575757-.4244653-1.030967-1.1406175-1.915626-2.0606061-2.545455-1.1337842-.47755-2.2069346-1.087873-3.1969697-1.818182 0-.242424 0-.318181.2424242-.393939.3779664-.309008.599847-.76941.6060606-1.257576 0-.424242-.1818181-.227272-.1060606-1.090909.0757576-.863636-.1818181-1.515151-1.4242424-1.893939-1.2424242-.378788-2.8030303-.106061-3.030303.424242-.4013855.800946-.5189121 1.714448-.3333333 2.590909.3333333.818182 1.3181818 1.803031.6818181 2.257576-.6363636.454546-1.4242424.893939-1.530303.212121z"/><path d="m67.530303 46.5909091c0-.1060606 0-.2272727.1818182-.9090909-.0458579-.0306401-.1056572-.0306401-.1515151 0-.0457746.0481931-.0817902.1047891-.1060606.1666666 0 0 0 .1060607-.2121213.5909091.0335309.2420512.1051219.4772786.2121213.6969697z"/><path d="m50.9545455 49.6969697c-.0587438.0588866-.1096669.1250866-.1515152.1969697-.4226252.6443347-.7684104 1.335905-1.030303 2.0606061 0 .1060606 0 .0757575-.1363637.5757575-.0406608.1999324-.0140239.4077002.0757576.5909091 0 .1969697.3333333.1969697.6969697-.1060606.2332276-.3456688.4263878-.7167398.5757576-1.1060606.2458875-.7168751.2458875-1.4952461 0-2.2121212z"/><path d="m70.2121212 44.5c.1942897-.2547596.3523573-.5352019.469697-.8333333.0791181-.2021871.1051974-.421253.0757576-.6363637-.0137338-.1346148-.0931436-.2537296-.2121213-.3181818-.1969697.2575758-.2878787.1363636-.8787878 1.5151515-.1490248.3084318-.236514.6429495-.2575758.9848485h.0909091c.2795227-.1911084.5210128-.4325985.7121212-.7121212z"/><path d="m49.7575758 46.030303c0-.1363636 0-.2424242 0-.3181818.0216104-.042886.0216104-.0934776 0-.1363636 0 0-.0909091 0-.2424243.1363636l-.1212121.2272727c0 .1818182.1212121.3636364.1969697.5454546.0825221-.1402199.1389875-.2942165.1666667-.4545455z"/><path d="m61.1666667 39.530303c.1818181 0 .1212121 0 .8787878-.0909091 0 0 .6969697 0 .5454546-.530303-.0758833-.0559033-.1643303-.0923227-.2575758-.1060606-.2039012-.0466241-.4120818-.072012-.6212121-.0757576h-1c0 .2727273-.1060606.5303031-.1515151.7878788z"/><path d="m79.7121252 45.1363636c-.969701-13.8939394-38.6363676-13.3030303-40.9090949-1.0151515-1.8484848 15.2272727 40.9242424 14.6060606 40.9090949 1.0151515zm-33.7727313-3.6060606c.0595255-.2671224.2464145-.4879913.5-.5909091.1804557-.0650523.3818179-.0305331.5303031.0909091.1060606.1060606.1666666.1969697.1515151.3030303-.0194832.1734518-.049846.345508-.0909091.5151515-.1212121.0909091.0909091.2878788-.560606.3787879-.0909091-.1060606-.5151515.1969697-.5303031-.6969697zm8.6818182 4.3030303c-.0369322.0620146-.0828904.1181857-.1363636.1666667-.0909091.0909091-.0909091 0-.469697.3939394l-1.1666667.969697-.3181818.3181818c0 .1212121 0 .1060606.1969697.6212121.1290045.4151759.2202837.8411454.2727273 1.2727273.0601849.5508944-.0179284 1.1081021-.2272727 1.6212121-.6515152.5757576-.1515152 1.9393939-2.7727273 2.469697-1.3181818-.3181819-1.030303-1.9545455.2575758-3.939394.1390848-.2662564.3013265-.5197591.4848484-.7575757-.0883056-.2861946-.2103771-.5608556-.3636363-.8181818-.0909091-.2424243-.2727273-.5-.7878788-1.6666667-.2272727.5-1.7272727 4.8484848-3.7424243 2.0909091-.0877795-.1677441-.1539625-.3459293-.1969696-.5303031-.3471919-1.4030834-.3471919-2.8696438 0-4.2727272.0708374-.1934113.1569684-.3808728.2575757-.5606061.1666667-.0757576.1060606-.5 1.1060606-.3333333.3290882.294957.5026121.725968.469697 1.1666666.0600469.8089453.0295549 1.6220664-.0909091 2.4242425-.0584897.6856235-.0584897 1.3749825 0 2.060606 0 0-.0909091.1060606.1363636.3939394.1564526-.029775.2935836-.123024.3787879-.2575757.522924-.6403826.9374963-1.3620453 1.2272727-2.1363637l.3030303-.5909091c0-.4242424-.7727272-1.3333333.3484849-2.7575757.3307387-.3586127.8442327-.4840008 1.3030303-.3181818.2575757.2575757.4090909.1666666.3484848 1.1363636.0233581 1.0346358.2824576 2.0503061.7575758 2.969697l.0909091.1666666c.2121212-.1969697.2121212-.1666666 1.1212121-1.030303.2409621-.2387717.5463821-.4020134.8787879-.469697.1666667 0 .1212121-.1060606.4545454 0-.0294011.0718229-.070345.1383567-.1212121.1969697zm3.7424243 5.9090909c-.128244-.1364623-.2448143-.2834423-.3484849-.4393939-.2316964-.3704143-.4054193-.7740645-.5151515-1.1969697-.3015127-1.3343031-.4790356-2.6936217-.530303-4.0606061-.0757576-1.6818181 0-1.3787878 0-5.9545454v-.3333333c-.3030303 0-.2424243 0-1.5151515.1363636 0-.1363636-1.3787879.5757576-1.5151516-.1060606.8636364-.469697.8939394-.3939394 2.6212122-.6666667l.4242424-.0909091c0-.0757575 0 0 .0909091-.3787878-.0098671-.3118443.1978667-.5888227.5-.6666667.1212121.0909091 1.2424242-.5454546 1.1818182.7878788h.1515151.1818182 1.6212121c.1075159-.9507839.4342735-1.8636307.9545455-2.6666667.1060606 0 .6363636-.7121212 1.1818181 0 .0082259.1362396.0082259.2728513 0 .4090909 0 2.3787879-.2878787 2.5757576-.6212121 7.439394v1.6515151c.0116306-.0498355.0116306-.1016797 0-.1515151.2342521-.8916482.5644635-1.755278.9848485-2.5757576.1440698-.3243623.4388562-.55679.7878788-.6212121.3301513-.1055605.6850002-.1055605 1.0151515 0 .2809914.108951.5053573.3278445.6212121.6060606.152294.291012.2401434.6114037.2575758.9393939.0604212.7007201.0604212 1.4053405 0 2.1060606 0 .4242424 0 .3636364-.2272727 2.2878788-.0499439.4227725-.0499439.8499548 0 1.2727273h.1515151l.1363637-.2121212.1212121-.1969697c.388608-.7680652.7080513-1.5692086.9545454-2.3939394l.1212122-.3484849c.1363636-1-.3787879-1.0909091 1.2121212-3.3636363.2198801-.2293457.4695906-.4280949.7424242-.5909091.5135768-.3244401 1.136233-.4282161 1.7272727-.2878788.1249974.0184478.2441632.0650779.3484849.1363636.2683402.0866656.4305425.3591654.3787879.6363636-.0009599.2065525-.0368183.4114576-.1060606.6060607-.2245506.6438558-.598388 1.2253807-1.0909091 1.6969697-.2408297.217812-.5176745.3921217-.8181819.5151515l-.3333333.1212121c-.107967.5386342-.0552796 1.0971209.1515152 1.6060606l.0757575.1363636c-.0069405.0350129-.0069405.0710477 0 .1060606.0217123.0619095.0708497.1102883.1330894.1310349.0622398.0207466.1305769.011526.1850925-.0249743.1998691-.066853.3927091-.1531235.5757575-.2575757.7535552-.3787487 1.4313974-.8922655 2-1.5151515.121708-.1467369.2647086-.274416.4242425-.3787879h.1515151c.0152131.038972.0152131.0822401 0 .1212121-.1952257.3297489-.4292127.6349493-.6969697.9090909-.5151515.3181818-2.2727273 2.6515152-4.2878788 1.2272727-.2826855-.2394394-.5145225-.5330996-.6818182-.8636363-.1162122.7747671-.3090778 1.5360786-.5757575 2.2727273-.0990257.2065857-.2156159.4042822-.3484849.590909-.2525181.3001071-.6419446.4487824-1.0302139.3933153-.3882692-.055467-.7204895-.3072347-.878877-.6660425-.3546496-.7634889-.5308187-1.5977015-.5151515-2.439394 0-.2272727 0-.1969697 0-1.1515151 0-.3484849 0-.2878788.0909091-1.8636364 0-.1212121 0-.1363636 0-.7272727 0 0-.0909091 0-.1060606 0s0 0 0 .0757576c-.7877227 1.3568379-1.3024368 2.8546558-1.5151515 4.4090909-.0304303.2465393-.0304303.4958849 0 .7424242v.9090909c.037353.1798538-.0778387.3560292-.2575758.3939394-.3602942.1673939-.7760694.1673939-1.1363636 0-.1655281-.0483582-.2853142-.1921015-.3030303-.3636363-.1071958-.3931883-.1881818-.7930567-.2424243-1.1969697 0-.3333334 0-.2727273-.1515151-1.8181819 0-.5151515 0-.4545454 0-2.7575757.0011614-.5521688.036583-1.1037336.1060606-1.6515152 0-.2121212 0-.1818181.1060606-1.1818181 0-.4545455.1060606-.9242425.1818182-1.3939394h-1.4242425c-.1210095-.0099114-.2426268-.0099114-.3636363 0v.7727272 3.939394c0 1.1060606 0-.5.1818182 4.4696969.0346048.9318418.1460947 1.859235.3333333 2.7727273.0058451.0857591.0058451.1718167 0 .2575758l-.1969697.1060606c-.2841621.0819763-.5901212.0319103-.8333333-.1363637z"/><path d="m19.3333333 63.6363636c-3.3030303 2.2727273 15.8484849 5.6212122 15.8484849 5.6212122s-12.5454546-7.9545455-15.8484849-5.6212122z"/><path d="m19.3333333 82.6969697c3.3030303 2.2575758 15.8484849-5.6212121 15.8484849-5.6212121s-19.1515152 3.3484848-15.8484849 5.6212121z"/><path d="m99.1212121 63.6363636c-3.3181818-2.3333333-15.7878788 5.5454546-15.7878788 5.5454546s19.0909087-3.3484849 15.7878788-5.5454546z"/><path d="m102.742424 72.3636364c-3.212121-3.2727273-19.9393937.1969697-19.9393937.1969697s23.1666667 3.0757575 19.9393937-.1969697z"/><path d="m99.1212121 82.6969697c3.3030299-2.2727273-15.7878788-5.6212121-15.7878788-5.6212121s12.469697 7.8787879 15.7878788 5.6212121z"/><path d="m17.8939394 149.166667c0 2.060606 4.0909091.378788 1.1060606-1.106061-.3636364.060606-.6969697.106061-1.1060606 1.106061z"/><path d="m22.1212121 139.909091c5.7575758-.772727-.0909091-9.393939-2.6212121-2.606061.1814606 1.362689 1.2574944 2.432503 2.6212121 2.606061z"/><path d="m101.681818 158.742424c6.060606-.833333-.090909-9.954545-2.7727271-2.772727.0606061.939394.6666667 2.257576 2.7727271 2.772727z"/><path d="m97.7121212 140.212121c-2.9393939-.075757-.6666667 5.984849 1.6060606 1.621212-.0757576-.515151-.1515151-.924242-1.6060606-1.621212z"/><path d="m109.575758 146.651515c2.060606 0 .378787-4.10606-1.106061-1.10606.060606.348484.106061.681818 1.106061 1.10606z"/><path d="m52.5151515 126.681818c0-2.151515-4.3030303-.393939-1.1666667 1.151515.3787879-.045454.7272728-.10606 1.1666667-1.151515z"/><path d="m47.5757576 116.863636c.1060606-3.681818-7.469697-.818181-2.0151515 2.015152.6515151-.090909 1.2424242-.181818 2.0151515-2.015152z"/><path d="m83.8636364 122.80303c-.9545455-.424242-.9545455-.954545 0 0-.5303031-1.909091 0-1.909091-.9545455-.954545.9242424 1.015151 3 .121212.9545455.954545z"/><path d="m51.8636364 86.969697c-1.7742898.1190154-3.1526544 1.5929352-3.1526544 3.3712121s1.3783646 3.2521967 3.1526544 3.3712121c1.7742897-.1190154 3.1526543-1.5929352 3.1526543-3.3712121s-1.3783646-3.2521967-3.1526543-3.3712121z"/><path d="m37.8787879 83.3333333c-2.3181818 0-.4242424 4.6363637 1.2575757 1.2575758-.0757575-.4848485-.1363636-.8636364-1.2575757-1.2575758z"/><path d="m87.1363636 89.8787879c0 2.6212121 5.2272728.4848485 1.4090909-1.4090909-.4545454.0757575-.8636363.1363636-1.4090909 1.4090909z"/><path d="m87.3333333 52.4393939c-.3636363.8030303-.8030303.8030303 0 0-1.6060606.439394-1.6060606 0-.8030303.8030303.8636364-.7727272.1060606-2.5151515.8030303-.8030303z"/><path d="m39.530303 58.9393939c-.0909091 3.0303031 6.1666667.6666667 1.6666667-1.6666666-.530303.0757575-1.030303.1515151-1.6666667 1.6666666z"/><path d="m31.6818182 48.9242424c.0757576-3.1363636-6.3484849-.6969697-1.7121212 1.7121212.5454545-.0909091 1.060606-.1666666 1.7121212-1.7121212z"/><path d="m92.8787879 41.969697c0-2.0454546-4.1060606-.3787879-1.1060606 1.1060606.3484848-.0454546.6515151-.0909091 1.1060606-1.1060606z"/></g></svg>