<svg height="57" viewBox="0 0 262 57" width="262" xmlns="http://www.w3.org/2000/svg"><g fill="#fff"><path d="m55.49 35.55c3-1.77 4.41-3.36 5.41-5.9 2.17-4.66-2-7.95-5.34-7-4.91 1.78-6.34 7.18-5.31 11.66-6.35 12-6-.68-4.78-5.43-1.47-11.37-8.07 3.74-8.67 5.95l-.43-.15c7-27-4-30.11-7.11-17.88-.4047132-.21101-.826142-.3882777-1.26-.53-7 1.45-31.5 8.16-27.54 17.31 2 3.69 6.3-.14 5.21-2.12-.54-4.3 5-5.19 6.94-6.65 1 4.75-.83 37.75 6.45 28.47.4-10.19-1.86-20.44-3-29.79 2.46-.59 9.52-2.1 12.72-3.83-.9 6.44.22 15.81 5.6 27.34 2.68.47 2-2 2.37-2.88.5669355-4.0329114 1.8612515-7.9294125 3.82-11.5h.38c-2.95 14.55 6.9 13.03 11.24 5.84 1.5136703 2.0681766 4.1557046 2.9741309 6.62 2.27 5.08-1.48 7.5-5.16 9.71-8.58l-2.89-1.82c-2.73 4.07-7.71 8.22-10.14 5.22zm-20.42-12.38c-.44 4.27-1 8.14-1.24 10.62-.26-1.39-.47-2.83-.63-4.31-.5273597-2.8202557-.8084189-5.6810362-.84-8.55 1.57-12.93 3.64-4.01 2.71 2.24zm21.7 2.83c4 1.56-.93 6.55-2.39 6.67-.66-2.93.16-6.27 2.39-6.67z"/><path d="m130 17.05c.21 0 7.18.1 7.13.09 4.59-3.72-4-3.16-5-3.2 10.08-18.55-6.25-16.62-7.7-.56-10.76-.4-4.08 3-.56 3-.401311 3.1370691-.478385 6.3071349-.23 9.46-2.21 1.52-3.94 2-5.42 3.1.42-3.66-.83-6.17-1.11-8.37 6-6.51-1.66-6.34-3.08-3.51-2.36 3.2-4 6-6.08 8.2l-.12-.11c-3.3 3.63-8.82 7-10.79 3.69 3.2-1.31 4.85-2.68 6.21-5.05 2.81-4.29-.86-8.16-4.28-7.7-4.85 1-7.08 5.68-7 10.07-1.3348375 1.5427162-2.856539 2.9132554-4.53 4.08 3.83-7.75-3.49-17.09-7.75-8.63l-.32-.15c14.83-23.16-6.83-30.67-5.48-3.15 0 1.5.04 2.86.12 4.08-.080413 4.2086095.0731572 8.4184355.46 12.61.7133333.38 1.4533333.75 2.22 1.11.9476369.2883638 1.9230225.4760668 2.91.56.27 0 2.58-.29 3.58-.44 1.1331022-.5407838 2.1516054-1.2944761 3-2.22 2.4487782-.8525505 4.6882953-2.2160312 6.57-4 1.12 2.78 3.42 4.75 6.8 4.39 2.821839-.4059146 5.450622-1.6696857 7.53-3.62 2.68 6.74 13.84 1.1 17.34-1.28 1.72 4.69 5.92 5.5 13.74.06l.06-4.75c-11.78 10.12-11.11 1.58-10.36-5.1 1.02-1.19 1.67-2.05 2.14-2.66zm2.53-11c-.5 3.1-2.53 5.87-3.47 7.6l-1.14-.11c.4-3.07 3.62-12.54 4.6-7.49zm-51.59-.36c.26 6.21-2.54 10.6-3.87 14.67.01-4.75 1.49-20.61 3.87-14.67zm-2.7 27.42c-.09-3.16-.09-3.54-.13-5.13-.55-2 2-5.45 3.41-5.28 6.61.89 1.71 12.96-3.28 10.41zm21.41-13.51c3.71 2.11-1.86 6.35-3.33 6.26-.23-3.02 1.07-6.2 3.33-6.26zm9 9.7c.6-.64 1.18-1.29 1.74-1.93l-.06-.06 3.23-3.63c1.94 7.82-2.07 8.43-4.91 5.62z"/><path d="m257.43 45.21c2-6.92-7-1.16-7.71.44l-.19-.07c2.47-4 2.24-7.7-1.15-5.37-1.971028 2.4533297-3.714876 5.0808157-5.21 7.85-4.37 1.66-9.88 2.14-10.32-1.41 8.76 1.22 15-9.36 5.74-11.17-4.61-.07-8.12 3.41-9.5 7.31-13.72 7.17-2.63-4.93-.53-8.21 2.85-9.07-9.94.65-11.11 1.45l-.29-.35c25.66-23.76 7.23-31.18-3.24-8.93-1.15-1.12-4.9-1.74-5.58-1.92 13.92-15.83-2.44-17.59-7.34-2.24-10.41-2.76-4.64 2-1.2 2.8-.43 1.24-.8 2.43-1.13 3.57-5.35-9.64-16-8.24-18.55-.08-3.86.83-2.88-3.35-1.5-6.25.4-7.19-7.06.44-7.41 2.16h-.2c1.5-4.48.46-8-2.32-5-1.300612 2.675286-2.364669 5.4592337-3.18 8.32l-.35-1c-1.804921 1.394327-3.806712 2.5131727-5.94 3.32 5.55-6.62.65-17.43-5.49-10.22l-.27-.22c20-19.08.5-31.28-4.57-4.36-.33 1.46-.62 2.79-.85 4-1.087285 4.0732505-1.951899 8.2027004-2.59 12.37.61.55 1.24 1.08 1.9 1.61.839515.4931157 1.727521.8985822 2.65 1.21.26.09 2.58.33 3.59.43 1.223184-.2625126 2.384343-.7582117 3.42-1.46 2.687167-.2412307 5.286822-1.0781761 7.61-2.45-.09.41-.17.82-.25 1.21.71 12.19 7.37-4.48 8.85-6.66h.29c-.61 6.29 2.73 7.46 6 6.85.008111.7366574.068261 1.4718212.18 2.2 4.71 12.48 16.81-1.38 13.58-8l.19-.17c1.648366 1.6271071 3.107621 3.4352412 4.35 5.39-1.85 9.08.86 13.67 11.45 9.88-.16 1-.32 1.95-.46 3 2 1.85 2.78-.62 3.54-1.14 2.657584-3.0870892 5.848289-5.671492 9.42-7.63l.36.16c-10.35 10.74-1.2 14.75 6.34 11 .197649 2.5553782 1.952091 4.7235662 4.41 5.45 2.747817.774385 5.667877.6800769 8.36-.27-1.41 10.46 8.36-3.6 10.24-5.35l.28.11c-2.76 8.2 3.87 8.73 7.89 7.57l1.84-3.94c-8.88 2.55-6.54-2.66-4.05-5.79zm-18.43-5.94c2.54 3.43-4.27 5-5.58 4.38 1.02-2.86 3.5-5.25 5.58-4.38zm-80.31-34.27c-1.22 6.09-5 9.7-7.24 13.33 1.14-4.59 6.34-19.64 7.24-13.33zm-9.12 26c.66-3.09.75-3.47 1.09-5 0-2.11 3.26-4.82 4.56-4.33 6.22 2.44-1.41 13.01-5.65 9.33zm36.06 5.35c-4.27-1.74-1-7.16.13-8.93 7.89-6.7 3.93 9.76-.13 8.96zm24.86-19.15c-1.17 2.91-3.76 5.16-5.06 6.65l-1.08-.36c1.07-2.88 6.28-11.37 6.14-6.26zm-.31 20.48c-11.76 5.68-9.36-2.06-7.26-8.13 1.27-1 2.1-1.69 2.68-2.18.21 0 7 1.68 6.94 1.66l.48-.26c-1.184482 2.8991616-2.134202 5.8887731-2.84 8.94zm7.13-8.12c1.067139-2.6635503 2.368929-5.2269712 3.89-7.66 8.31-10.06 5.24-1.4 1.08 3.35-2.68 3.35-5.19 6.34-6.77 8.27.533333-1.2866667 1.133333-2.5966667 1.8-3.93z"/></g></svg>