<svg height="115" viewBox="0 0 134 115" width="134" xmlns="http://www.w3.org/2000/svg"><g fill="#fff"><path d="m8.4005614 11.6651185c-.29007959 0-.56503979-.0028001-.826-.0084005 1.61896021-4.77960032 4.1753599-7.55160032 7.0414395-7.55160032 1.4005605 0 2.2965605.89600085 2.2965605 2.24000085 0 2.464-2.856 5.31999997-8.512 5.31999997zm7.644 19.74784c-3.4910398-.6613599-5.4045597-2.9808798-5.4045597-5.57984 0-2.5760008 1.3999992-4.3680008 3.2479992-4.3680008 2.016 0 3.136 2.184 3.136 4.816 0 1.6497604-.3443997 3.4876808-.9794395 5.1318408zm4.8064784-.2323988c.4289602-1.5019204.6529602-3.0592803.6529602-4.564 0-4.872-2.296-9.184-7.448-9.184-4.256 0-7.336 3.192-7.336 8.344 0 4.20616 2.98816003 7.6064801 7.3522396 8.9269602-.9049602.9576003-1.99416 1.54616-3.23232 1.54616-2.65664018 0-5.07192045-2.7798399-5.07192045-11.8725597 0-3.35216.29680017-6.3862396.82824047-9.0255199.38696021.0072803.76608045.0095199 1.13176038.0095199 9.408 0 13.384-4.424 13.384-9.07199996 0-3.528-2.408-6.272-6.552-6.272-5.07303979 0-9.13807959 4.15016003-11.37527942 11.13055966-.49728027-.1187197-.84728027-.2105597-1.22528027-.2105597-1.176 0-1.904.896-1.904 1.792 0 .84.56 1.736 1.792 2.072.1215199.0330398.24471972.0643997.36903979.0935199-.60423962 2.9803201-.92847925 6.3330398-.92847925 9.9864801 0 11.424 3.92 15.456 9.57600005 15.456 3.5509602 0 6.3582404-2.1184801 8.1956003-5.0691202 4.5533599-.3091202 8.3770398-3.0962405 10.1163997-8.3148806.1052802-.3152803.1528806-.6070407.1528806-.8730407 0-1.09816-.8069602-1.7522396-1.6911999-1.7522396-.6825 0-1.4112657.3903043-1.8494562 1.2673515l-.0842254.1818094-.1237097.2857897c-1.0423629 2.3725483-2.3804815 4.3020011-4.7292505 5.11777zm24.9015207 9.0440008c4.032 0 6.944-4.816 10.136-13.272.1063997-.2794403.1545597-.5493607.1545597-.8030406 0-1.0830398-.8724801-1.876-1.8015199-1.876-.6871202 0-1.4050406.4334403-1.8244809 1.5030406l-.0011194-.0005605-.2378056.5995924c-1.9226296 4.805886-4.3138744 9.7604076-6.0341944 9.7604076-1.12 0-2.24-1.12-2.24-5.88 0-3.192.896-9.856.896-11.2 0-1.624-.952-2.408-2.016-2.408-1.1155199 0-1.8435199.6328002-2.2450398 1.7253599-1.428-.8343997-2.93384-1.2207994-4.4189602-1.2207994-5.712 0-11.368 5.936-11.368 14 0 5.992 3.192 9.072 7.616 9.072 3.2586401 0 5.7276799-1.72032 7.9475199-5.0002404.91616 3.3997603 3.1276003 5.0002404 5.4370406 5.0002404zm-12.7685605-4.1435605c-2.1828806-.0004395-3.7508806-1.5684395-3.7508806-5.0964395 0-5.544 3.696-9.744 7.448-9.744 1.6996003 0 2.9696799.8052803 3.4423201 2.0479205-.0604801 2.1145596-.21 3.47032-.3931203 4.6871998-1.374684 6.2129993-4.6452675 8.0363734-6.6330841 8.1029681zm26.6005614-24.4158815c-.2900796 0-.5650398-.0028001-.826-.0084005 1.6189602-4.77960032 4.1753599-7.55160032 7.0414395-7.55160032 1.4005605 0 2.2965605.89600085 2.2965605 2.24000085 0 2.464-2.856 5.31999997-8.512 5.31999997zm7.644 19.74784c-3.4910398-.6613599-5.4045597-2.9808798-5.4045597-5.57984 0-2.5760008 1.3999992-4.3680008 3.2479992-4.3680008 2.016 0 3.136 2.184 3.136 4.816 0 1.6497604-.3443997 3.4876808-.9794395 5.1318408zm4.8064784-.2323988c.4289602-1.5019204.6529602-3.0592803.6529602-4.564 0-4.872-2.296-9.184-7.448-9.184-4.256 0-7.336 3.192-7.336 8.344 0 4.20616 2.98816 7.6064801 7.3522396 8.9269602-.9049602.9576003-1.99416 1.54616-3.23232 1.54616-2.6566402 0-5.0719205-2.7798399-5.0719205-11.8725597 0-3.35216.2968002-6.3862396.8282405-9.0255199.3869602.0072803.7660805.0095199 1.1317604.0095199 9.408 0 13.384-4.424 13.384-9.07199996 0-3.528-2.408-6.272-6.552-6.272-5.0730398 0-9.1380796 4.15016003-11.3752794 11.13055966-.4972803-.1187197-.8472803-.2105597-1.2252803-.2105597-1.176 0-1.904.896-1.904 1.792 0 .84.56 1.736 1.792 2.072.1215199.0330398.2447197.0643997.3690398.0935199-.6042396 2.9803201-.9284792 6.3330398-.9284792 9.9864801 0 11.424 3.92 15.456 9.576 15.456 3.5509602 0 6.3582404-2.1184801 8.1956003-5.0691202 4.5533599-.3091202 8.3770398-3.0962405 10.1163997-8.3148806.1052802-.3152803.1528806-.6070407.1528806-.8730407 0-1.09816-.8069602-1.7522396-1.6911999-1.7522396-.6825 0-1.4112657.3903043-1.8494562 1.2673515l-.0842254.1818094-.1237097.2857897c-1.0423629 2.3725483-2.3804815 4.3020011-4.7292505 5.11777zm13.4209611 22.9874386c6.44 0 7.896-7.224 8.288-11.032.0285596-.28784.0571193-.6025597.0862396-.9413599 5.3334403-3.6187197 8.3955195-9.07032 10.8331995-15.2426401.09856-.2497604.14336-.4967206.14336-.7341609 0-1.0533599-.8792-1.91184-1.82336-1.91184-.656879 0-1.34568.4155199-1.792 1.47l.00056.0000026c-1.3568798 3.2468798-3.5106401 7.7520796-6.9691998 11.1563192.02632-.3690398.0537603-.7470398.0817603-1.1328797.336-4.872.84-10.864 1.232-16.296.112-1.624-1.064-2.464-2.24-2.464-1.064 0-2.128.728-2.24 2.072-.1428001 1.8020795-.2973598 3.7872794-.4547197 5.8323996-1.2628002 8.7147197-5.1156003 10.96816-7.5532803 10.96816-1.624 0-2.464-.84-2.464-3.36 0-3.192 1.4-8.232 1.4-12.096 0-2.408-1.904-4.256-3.976-4.256-1.232 0-2.184.952-2.184 2.072 0 1.512 1.624 1.624 1.624 3.248 0 2.296-1.344 7.056-1.344 12.32 0 3.696 2.464 6.16 5.824 6.16 3.0206402 0 5.6711203-1.4229602 7.8439205-4.1182404-.1181601 1.582-.2268002 3.0475199-.3203201 4.3203996-5.85984 3.1214403-9.54016 5.7036004-9.54016 9.20584 0 2.576 2.184 4.76 5.544 4.76zm.2794403-4.0880017c-.9520009 0-1.4560009-.5039992-1.4560009-1.2319992 0-1.3048001 1.77184-2.6824005 4.8216003-4.4228806-.504 3.9788002-1.6262396 5.6548798-3.3655994 5.6548798z"/><path d="m89.4618398 71.6695642c17.5333332 2.5333334 32.8533332 14.7733334 43.1333332 29.6666668 1.546667 1.586667 1.893333 4.586667 4.973333 3.56 3.6-5.0133334-16-21.4666668-18.253333-24.0000001-15.546667-12.8933333-44.4399999-21.1733333-57.9866665-3.2933333-3.0133334-29.1466667-9.56-3.9466667-1.3333334 6.4 7.88 2.4 13.7866667-1.56 22.3466667-2.6666667 10.5733333-7.8-13.8133333-.6533333-18.2666667-.64 5.08-8.48 16.1866667-10.2533333 25.3866667-9.0266667z" transform="matrix(-.96592583 -.25881905 .25881905 -.96592583 168.819429 191.331097)"/></g></svg>