<svg height="60" viewBox="0 0 200 60" width="200" xmlns="http://www.w3.org/2000/svg"><g fill="none"><path d="m194.029851 34.8358209c-1.548508.3731343-3.093284.7462687-4.630597 1.119403 3.526119-1.9664179-1.063433-2.6492538-2.783582-1.5970149-6.608209-.9179105-14.100747 3.8992537-20.779851 5.8283582.021061-.0500222.034882-.1027922.041045-.1567165 2.787313-.9440298 28.559701-11.033582 15.548507-8.402985 4.813433-4.1044776-7.936567-.3731344-9.354477.1604477 12.888059-5.5970149 1.201492-4.3731343-4.63806-1.8022388 6.317164-2.5 6.160448-4.2014925-1.02612-1.3358209 8.723881-5.2462686-4.746268.6529851-5.272388 2.5223881-1.472636.0895522-2.941542.2139303-4.406716.3731343 1.070895.0783582 8.063433-1.5335821 3.791045-2.7052239 4.324627-3.4067164-13.80597.1231344-14.925373.1791045 7.649253-1.9477612 16.481343-2.3022388 19.261194-4.2052239.61194-3.3320895-24.626866 3.5-25.018657 3.0410448 3.033582-1.0485075 33.208955-6.5559701 20.421642-6.7985075 5.970149-2.1902985-2.070896-2.3694029-4.216418-1.6119402 4.850746-.8283583 12.455224-3.7313433 2.115671-3.2089553 6.671642-3.2126865-5.597015-1.7462686-7.645522-1.2164179 1.634328-.3731343 3.458955-.6567164 4.884328-1.4253731 1.764926.0746268 4.940299-.7761194.570896-.6343284-1.626866-1.4365671-6.985075.6417911-9.358209.3731344 10.052239-1.4925374 11.328358-4.75000005.548507-3.54104482.861941-2.23880597-3.5-1.4477612-5.160447-1.31343284 7.891791-3.17910448-5.339553-2.30223881-7.328359-1.56716418 5.597015-1.79104477 2.585821-3.5522388-1.604477-2.42164179 7.869403-4.47761194-30.175373.76865672-29.645523 1.1380597-.458955.06343284-.921641.11940299-1.376865.18656717 19.104477-3.69402985 13.406716-4.77985075-.294776-2.71641791 2.585821-.8097015 5.865671-.52238806 8.794776-1.36567165.347015-1.86567164-2.902985-.83955223-4.537314-.86940298-12.0261191 1.00373134-22.9216414 2.94776119-34.884328 4.3619403 8.1156716-6.37313433-21.9552239 4.9291045-22.5746269 5.1567164 9.7761194-5.57835819-1.9402985-1.4925373-4.5186567.3731343-.1716418-3.96641787-9.9626866 3.5-7.9589552 4.7089553-4.477612 1.3880597-2.9850746 2.8955224.8246268 1.2201492 2.6902986-.8022388 25.4626866-8.63059699 19.3395523-7.88059699 4.6679104-1.68656717 9.6455224-3.73134329 14.9253731-4.66044777-4.8246268 1.45522389-49.8619403 20.37313436-27.7052239 12.93283586 8.3768657-3.8955224 16.0447762-7.67164183 25.0559702-10.18283586.4793985.200663 1.0028792.27268983 1.5186567.20895523-2.4440298.95149254-45.7276119 17.65298503-30.7723881 14.46641793 9.0356874-4.6549618 18.4485184-8.5381759 28.1380597-11.60820898.0671642.05223878.0746269.19776118.5858209.25746268-3.9850746 1.4253731-44.0261194 18.119403-26.1865671 12.8395522 9.3059701-4.2947761 17.9104477-8.7276119 27.8731343-11.641791-3.5149254 2.1641791-38.2798507 15.4141791-29.2126866 14.7686567-2.391791 1.4738806-5.0559701 3.0410448-7.6156716 4.9141791 13.5597015-12.7089552-9.9850746 4.2014926-11.7910448 6.1828358 4.5186567-4.641791 14.6753732-10.1753731 13.2835821-11.3059701-3.0895522.1529851-5.8097015 3.358209-8.6082089 5.0559701 8.6082089-7.2985074-1.608209-1.9253731-4.1007463.2723881 6.891791-6.619403-7.6977612 2.2798508-9.0335821 3.6940299 8.2089552-5.9701493 7.488806-6.2201493-.7164179-1.9067165.25-.4179104 4.6567164-2.9291044 2.6940298-2.6119403-3.2574627 1.9850747-12.37686564 7.2723881-2.5447761 3.619403-7.02985073 7.1641791 5.7201493-.8656716 7.3059702-2.3134328-1.3843284 1.4925373-6.619403 3.8582089-6.1865672 5.6455224 3.8731343-.7462687 7.8731343-5.0261194 11.6940299-7.0149254-1.5597015 1.8171642-12.0783583 9.261194-8.2462687 9.2723881-5.5223881 8.0522388 12.7089552-7.5522388 13.7313433-7.9701493-3.4291045 3.5858209-17.7201493 14.6492537-14.7611941 15.0335821 7.5261195-4.8507463 13.2089553-12.608209 21.4962687-17.0373134.0673535.2439216.2640783.4305947.511194.4850746-5.2649253 4.9067164-11.1940298 9.8395522-16.7238806 14.7723881 1.4067165-1.988806 1.5298508-4.3768657-.4067164-.5895523-1.7201492 2.8880597-4.4067164 4.0522388-6.1380597 6.9552239-8.4589552 8.011194-5.4067164 10.0037313.2238806 2.7238806.4252281.0628765.858619.0426009 1.2761194-.0597015.169236.0161112.33804-.034798.4701493-.141791 1.5335821-.5820896 2.9402985-2.0186568 4.5186567-2.9104478-12.39925374 9.9179104-3.0335821 5.1044776 3.6119403 1.6977612.9067164 1.5447761 2.9850746-1.0373134 4.2201492-1.8880597.3731344-.4626866 2.4067165-.619403 2.1567165-1.8171642 5.0895522-3.7910448 10.6007462-7.8731343 16.1082089-11.4738806-19.6791045 14.4029851-23.5858209 19.5-.8992537 4.0708955-13.8656717 8.6679105-12.7350746 12.0335821-1.0634329 3.2313433-.891791 1.119403-8.0970149 4.8208955-4.3320895 4.8768657 3.9029851-2.3059702 7.6716418-5.4179105 11.7985075-7.8358209-.2462687.3134328-.7462687 1-1.2910448 1.6529851-.6865672-.0820896-4.3395523 5.119403-1.6828358 4.5447761 5.3731343-4.8992537 8.9104477-13.4328358 3.8395522-7.261194-.0419985-.2957626-.2563258-.5379817-.5447761-.6156717.0970149-1.6567164-1.369403-.6940298-2.5634329.0335821.5783583-.6156716 1.8656717-1.2537313 2.2014926-2.4477612 8.3843283-2.9850746 16.5746268-7.5410448 25.3432836-10.5522388-2.6492538.8880597-10.0746269 4.3544776-2.8731344 3.0895522 9.5895523-3.3320895 18.3059702-6.9104477 28.2164182-9.2014925-2.634329.7126866-35.5783585 11.4365672-21.7761197 9.4216418 7.9029851-2.4850746 14.8059702-5.3768657 22.8992537-7.1455224-6.6156716 2.5671642-21.2910447 5.8955224-20.1492537 7.9738806 4.1604478.4850746 8.5485075-2.6567164 12.9067165-3.5373134-17.8320896 7.1604477 20.1492532-3.2014926 21.3582092-3.3992538-5.671642 1.7835821-11.861941 3.2089553-17.690299 5.488806-3.936567 2.8843284 4.227612 1.1156717 5.425373.4291045-8.134328 5.2537313 20.429105-3.0485075 21.324627-2.7574627-4.813433.9589552-9.350746 4.1044776-1.384328 2.3507463 10.309701-3.3283582 20.227612-5.5 30.94403-7.1902985-3.679105.8955224-42.492538 8.9291044-33.007463 10.0074627 5.115672-.8097015 9.570896-2.6567165 14.947761-3.358209-.787313.2723881-10.074627 1.8283582-5.369403 3.1641791 6.070896-.619403 11.503732-2.3470149 17.764926-2.9850746-4.179105 1.1753731-9.216418 2.011194-13.559702 3.3582089-1.332089 2.3544776 3.518657.6492538 4.850746.5634329-3.768656 3.3320895 9.164179 0 10.559702.0932835-2.77612-.0746268-9.395523 2.727612-2.197761 2.4477612-.746269.2611941-2.440299 1.3358209-1.179105 2.216418-1.533582.2089552-3.119403 2.2388059-.037313 2.1865671-1.839552.7910448-3.843284 1.5522388-5.343284 2.7910448-2.022388 3.3582089 14.395523-5 15.298508-4.6268657-2.070896 1.4925373-22.656717 10.0746269-11.294776 7.6492538-1.16418 3.7313432 10.261194-2.1455224 12.216417-2.0708956.298508.1268657.100747.0858209.746269.1604478-1.029851.3992537-11.19403 3.1455224-6.063433 3.880597 4.477612-.7835821 8.093284-2.6119403 12.686567-3.3320895-.065091.2670955.027561.5479478.238806.7238805-1.537313.4589553-15.91791 3.9104478-7.30597 3.847015 6.746269 1.511194 14.690299-3.8619403 22.272388-3.477612-2.238806 1.3171642-23.104477 3.8955224-16.664179 5.2910448-2.962686 3.6156717 11.059702-.9141791 12.384329-.3992537-7.179105.5708955-10.100747 3.8208955-1.723881 2.511194-1.757463 1.8320896 1.61194 1.8134328 3.078358 1.630597.496269 1.6716418 3.604478.2798508 5.298508.5783582-1.25 2.7649254 5.406716 1.5783582 3.186567-.7462686 1.817164-1.0447761-.421642-2-2.063433-1.6716418 2.447761-.9514926 2.059701-2.6604478-1.067164-2.1268657 1.772388-1.5970149-.746269-1.9925373-2.44403-1.8955224 1.119403.1604478 4.63806-1.7462686 1.671642-2.3544776 2.447761-1.5895522.582089-2.5261194-1.787314-2.3171642 1.682836-3.152985-4.261194-.6940298-5.794776-.5335821.257463-.1940298 1.518657-.511194 1.216418-1.4552238 2.962687-1.4925373 10.761194-2.6119403 11.022388-4.3917911.973881-.2761194 7.988806-2.0186567 4.604478-3.2089552zm-151.3805973-23.4738806c-.7462686.3507463-1.9664179.880597-3.0559701 1.4925373.5597015-.3432836 2.3992537-2.7276119 3.0559701-1.4925373zm92.0522393-3.22014926c2.399253-.16044776 4.477611-.54477611 7.30597-.79850746-12.686567 3.42537312-32.977612 6.51492542-33.544776 8.47388062-.677633-.1381034-1.378336-.1138089-2.044777.0708955.746269-.2947761 2.003732-.8283582 2.641791-1.7350746 8.13806-2.5223881 16.97015-4.79850749 25.641792-6.01119406zm-87.7574631 21.76865676c7.1325399-3.343825 14.4649253-6.2436314 21.9552238-8.6828359-7.119403 2.6940299-14.6343283 6.1567165-21.7835821 9.4029851.1164933-.2508296.0454671-.548831-.1716417-.7201492zm60.0932831-18.8171642c.119728-.0693661.199882-.1909798.216418-.3283582.94403-.1977612 1.895523-.3731344 2.828359-.5858209-1.22015.8022388-3.108209 1.2238806-4.369403 1.6716418.447761-.2425373.891791-.4925373 1.324626-.7574627zm-9.5298503 3.4589552-.6417911.2761194c-7.5932835 1.6753731-15.1492537 5.4850746-22.5485074 8.7126866-1.8283582.5298507-3.7313433 1.119403-5.9514926 1.7873134 14.3283583-5.0186567 9.7201493-5.8470149-.3022388-2.391791 1.0708956-.4141791 2.4962687-.9141791 3.9626866-1.4738806 10.2537313-3.3134329 20.6940299-7.2462687 31.4999996-9.7947762.346784-.0687923.689377-.1572435 1.02612-.2649253-2.283582 1.1604477-4.7350748 2.1156716-7.0447763 3.1492537zm-4.2238806-2.2947761c-5.4104478 1.9850746-11.0447761 4.2761194-16.7910448 6.0261194-5.3955224.3283582-10.8992537 2.6977612-16.1268657 4.5447761 3.25-1.3955224 6.7350747-2.9440298 10.1828359-4.4477612 8.011194-1.5783582 16.1119403-4.9813433 24.380597-6.641791-.5597015.1679104-1.108209.3358209-1.6455224.5186567zm-25.8507463 14.7313433c-.0090494.0714142-.0026876.1439385.0186567.2126865-3.7313432 1.3022388-7.9701492 2.9664179-11.9402985 4.5111941 3.738806-1.488806 7.880597-3.2350747 11.9216418-4.7238806zm20.9514926-6.6044776c5.1156716-2.5485075 11.1007462-4.3171642 16.9626866-5.619403.438648.0634518.88465.0558924 1.320895-.0223881-8.2089548 2.5373134-16.0970145 5.7761194-24.4552234 8.9328358 1.9994647-1.2020379 4.0593965-2.3005022 6.1716418-3.2910447zm47.4813436-15.12313437c-10.19403 3.49626866-21.171642 4.54850746-31.100747 8.58208957-1.186567.238806-2.365671.5447761-3.537313.869403 3.294776-1.6529851 9.108209-2.0261194 10.738806-4.9626866 7.875725-1.9442356 15.854805-3.44288245 23.899254-4.48880597zm-17.537314-.72014925c4.477612-.4477612 8.75-.92537314 13.552239-.8358209-1.88806.06716418-3.910448.74626866-6.123134 1.23134328-2.503732-.20522388-5.343284-.2761194-8.208956-.31716417zm-5.022388.87313432c3.283582-.14552238 6.985075-.22761194 10.649254-.10447761-3.048508.57835821-6.317164 1.24253732-9.593284 2.00746269-3.257462-.08955224-6.772388.90298507-10.335821 1.4141791 2.902985-.98134328 8.779851-1.09701492 9.27612-3.31716418zm-10.69403 1.44402986c2.820896-.32089553 5.197761-.71641792 8.47015-1.01492538-11.593284 3.32462687-23.5858213 5.44776122-35.2761199 9.05970152-1.4701492-.9552239-4 .6380597-5.9701492.9179104 1.4509835-.6075804 2.811894-1.41107 4.0447761-2.3880597 9.3575857-3.0595015 18.9744442-5.26013852 28.731343-6.57462684zm-14.6268654-3.01492538c3.8059702-.6641791 7.6865672-.95895522 11.5335821-1.32462686-3.6940298.60820895-7.630597 1.27985074-11.7201492 1.35820895zm-15.4925373 2.76119403c5.2574627-.99253731 10.9514926-2.04104477 16.6231343-2.32462686-4.6268656 1.15671641-9.880597 1.8022388-14.6753731 3.06716418-.7462686-.20895523-1.7201492.05597014-2.9850746.22388059.4160892-.23726705.7712326-.56813802 1.0373134-.96641791zm-3.6604477 6.55223879c2.0410447-1.4141791 6.2798507-1.5895522 7.4067164-4.0186567 9.6119403-2.81343283 20.1492537-4.12686567 30.283582-5.43656716-11.7985074 3.03731343-24.4589552 4.92910447-35.9999999 9.38059706-1.3507463.3532338-2.6915423.7263681-4.0223881 1.1194029zm-22.7611941 10.5149254c7.3246269-3.4141791 15.238806-6.8843284 23.25-8.9552239-8.3843283 3.2686567-17.011194 6.8619403-25.3544776 10.8208955.0084141-.185349-.067719-.3645061-.206992-.4870953-.1392729-.1225892-.3266433-.1753701-.5094259-.1435017zm-7.5970149 7.380597c.5447761-.5074627 1.0858209-1.0074627 1.6380597-1.4925373 9.5149254-4.4402985 19-9.1641791 29.2425373-12.2686567-.0515461.0800921-.0787643.1734118-.0783582.2686567-8.5149254 3.9365672-17.5783582 7.2201492-26.119403 11.5335821-1.6679104 0-3.2052239 1.2014925-4.9365671 2.2164179zm6.5746269.3395522c-.1380597.1641791-.2835821.3208956-.4291045.477612-.3097015.130597-.5485075.3358209-1.4925373.7462686.4589552-.2798507 1.2052239-.8395522 1.9216418-1.2238806zm-24.4925374 16.5597015c.4738806-.8656716 3.1417911-1.9067164 2.847015-3.4365671 5.2751099-4.6547817 10.8181725-8.9967851 16.6007462-13.0037314.019322.0977543.0559684.1912657.108209.2761194-6.1865672 5.3768657-13.1156716 10.6716418-19.5559702 16.1641791zm2.347015.1305971c6.2014925-4.9141792 11.8843283-10.8208956 18.9925373-14.7537314-.2313433.2164179-.3395523.3731343-.0634328.9589552-4.358209 3.5746269-9.1305971 7.3358209-13.6716418 11.0298508-1.6679105-.5410448-3.4701493 1.9888059-5.2574627 2.7649254zm20.380597-10.6417911c-5.0485075 4.1492537-10.8470149 8.1716418-16.011194 12.5335821-.9626866.3731343-1.9216418.7126866-2.8768657 1.0783582 6.418626-5.4245065 13.1611683-10.453688 20.1902985-15.0597015.1569765.0471999.3243668.0471999.4813433 0-.619403.4626866-1.2201493.9477612-1.7835821 1.4477612zm-1.3619403-1.2276119c-.6156717.3731343-1.2238806.7761194-1.8320896 1.1716418 1.3656717-1.1641791 3.358209-2.6828359 4.988806-4.1529851 6.4823225-3.0349239 13.1352961-5.6911298 19.9253731-7.9552239-7.5410447 3.4067164-15.880597 6.4104478-23.1007462 10.9365672zm9.6082089-2.7723881c-.3203539.2010774-.6170053.4376474-.8843283.7052239-.6044776-.0335821-1.1529851.3544776-2.0708955.7985075.0932835-.0932836.1828358-.1940299.272388-.2910448.8843284-.3917911 1.7798508-.8097015 2.6641791-1.2126866zm15.3395523-3.3880597c-4.738806 2.4552239-11.2313433 3.7313433-15.358209 6.9701493-1.5485074.7462686-3.6044776 1.9141791-5.4141791 2.8582089 1.3992538-1.2126866 3.6902985-2.5447761 4.8507463-4.4216418 5.75-1.0447761 11.4925373-4.1753731 17.380597-6.0373134zm10.4925373-5.5970149c.9365672-.4104478 2.641791-1.119403 3.9925373-1.6716418-1.2313433.7014925-2.4365672 1.4738806-3.6604477 2.2089552l-2.9365672.9141791c.89468-.4286775 1.7586771-.9186499 2.5858209-1.4664179zm3.4589552 1.3768657c.3293754-.1900851.6448446-.4033074.9440299-.6380597 6.4253731-2.4850747 13.1567164-5.4179105 20.2499996-7.0335821-6.8358205 2.4589552-14.3992534 4.4552238-21.2126862 7.6567164zm23.0373135-3.6902986c25.563433-8.5820895-14.2985075.3731344-17.8395523 2.7985075 7.1791045-3.261194 16.3134333-4.5 22.9179103-8.6044776 12.018657-2.0895522 23.996269-6.59328359 36.679105-6.75746269-9.757463 1.78358209-34.843284 6.03358209-32.97015 8.33208959 13.059702-1.3805971 26.380597-7.227612 40.134329-7.2201493-12.772388 3.2014925-26.597015 4.5895522-39.279851 8.9552239-3.149254.8470149-6.268657 1.8656716-9.660448 2.4813433zm7.048507.4813433c1.753732-.4589552 4.384329-.5858209 5.768657-2.1455224 6.671642-1.3694029 13.619403-3.0858209 20.619403-4.2276119-5.742537 1.6641791-12.578358 2.108209-17.955224 4.8507463-4.104477.641791-8.410448 1.9589552-12.776119 2.8097015 1.41791-.4850747 2.865671-.9216418 4.324627-1.3022388zm-.888059 2.488806-2.955224.7985075c4.339552-1.7126866 10.298507-2.2686568 14.145522-4.3022388 1.538714-.1916354 3.06585-.4669186 4.574627-.8246269 10.167911-1.4402985 21.440299-4.7425373 32.402985-5.6679105-9.735074 2.8059702-20.309701 4.1417911-30.384328 6.3880597-5.731343.8395523-11.955224 1.9328359-17.802239 3.5932836zm12.988806 1.8992537-1.932836.4514926c.671642-.227612 1.339552-.4589553 2.011194-.6940299-.049368.0674256-.082562.1453047-.097015.227612zm6.130597-3.5037313c-2.503732.5708955-5.399254.891791-8.130597 1.5746269 13.093283-3.7761195 26.395522-7.0074627 40.298507-8.0335821-10.231343 2.5149253-20.962686 4.25-31.343283 7.0335821-.023528-.1902938-.126832-.3616176-.284148-.4712401-.157315-.1096226-.353812-.1472098-.540479-.1033868zm23.220149-1.7201493c-7.518657 1.3955224-14.981343 3.2126866-22.600746 5.0783582.106839-.2281016.091404-.4947071-.041045-.7089552 9.835821-2.380597 19.966418-5.1492537 30.283582-6.0335821-2.884328.3992538-4.776119.9552239-7.641791 1.6455224zm6.097015 19.0298508c.332089-.1716418.66791-.3731343.992537-.5522388.030784.0607478.071095.1161756.119403.1641791-.373134.1156716-.746268.2425373-1.11194.380597zm-.347015-3.1119403c.013125-.0283808.021929-.0585658.026119-.0895523.295733-.0920374.583906-.2068074.861941-.3432835.04504.0361979.093825.0674706.145522.0932835-.347015.0858209-.690298.2052239-1.033582.3208956zm.977612-1.7052239c-.230015-.125655-.484715-.1995179-.746269-.2164179.52612-.1119403.268657-.0895522 1.38806-.3059702-.240007.1363396-.456672.3101754-.641791.5149254zm4.947761-3.6641791c3.552239-.8768657 6.906717-2.5858209 10.820896-3.1231343-3.320896 1.5932835-7.380597 3.3582089-11.011194 4.7537313.21927-.2260457.286798-.5590983.172888-.852698-.11391-.2935998-.388391-.4939605-.702739-.5129736zm-2.182836 5.7537313-.503731.1828359c.122871-.3338705.036459-.7088117-.220149-.9552239 5.421641-2.1119403 11.108209-4.5335821 17.078358-5.8283582-5.33209 2.1641791-10.83209 4.4291044-16.354478 6.5932836zm4.279851 4.5783582c-.373134.1156717-.899254.3395523-1.865672.6716418.697762-.2873134.257463-.2985074 2.048508-.7462686zm20.977612-6.9925373c-5.145522 2.4141791-11.19403 3.6343284-16.791045 5.6567165-.057687-.1200428-.149946-.2200981-.264925-.2873135 5.910448-1.8656716 12.037313-3.9067164 18.246268-5.8843283-.455223.1977612-.921641.3694029-1.190298.5074626z" fill="#ffb03b"/><g fill="#fff"><path d="m68.5671642 26.9813433c-.6940299.2798507-1.119403.3731343-1.2947761.2574627-1.6305971-1.6604478-3.4365672-8.6455224-4.9850747-10.4477612-1.0074627 2.5-.6231343 13.4962686-5.1716418 5.4253731-.4477612-.5485075-.8432835-.8880597-1.2798507-.4962686.1119403 1.3059701 2.8246269 8.7238806-2.238806 5.761194-1.2761194-2.8246269-.2089552-5.8432836-1.119403-8.2425373-2.4701492-10.61567167 3.6231344-4.9813433 5.8059702.0597015 2.119403.7947761.2835821-8.2313433 5.1044776-7.608209 1.2835821 2.7873134 7.9029851 15.511194 5.1791045 15.2910448z"/><path d="m72.0149254 27.6119403c-.977612-2.3320896 1.4141791-7.8768657-.6567164-9.7574627-1.8320896-3.1119403-7.1417911-8.58208954-1.8656717-7.7761194 1.2313433.8059702 2.5746269 4.9440299 3.5932836 5.5970149.8358209-1.1977612.4738806-6.34701489 3.0335821-6.63805967.8992537-.05970149 1.5634328.32462687 1.0932836 1.26865667-.9402985 3.9365672-2.8656717 5.9104478-1.4701493 10.1753732-2.8544776.2276119.2910448 9.0522388-3.7276119 7.130597z"/><path d="m84.8470149 13.8059701c-.4365671-2.0074626-1.8656716-4.10447756-.6231343-5.48880592 1.8320895-1.54850746 13.2014925-.39179105 6.858209 1.86567162-6.8097015-2.15298505-3.608209 1.5447761-2.5485075 5.9962687 3.1156716-1.0223881 7.9216418.7462686 1.2201492 1.9253731-1.4216417.3731343.6865672 3.4813433 1.0820896 4.5485075-1.0335821 4.9589552-3.7723881-2.130597-4.641791-3.7761194-5.2611941-.1007463 1.3656716-.9664179-1.347015-5.0708956z"/><path d="m96.641791 12.3134328c2.5410448-12.17910444 5.44403-.261194 6.406716 4.6268657.022389.4813433 1.313433.3731343.835821 1.4365672-1.175373 1.119403 2.541045 6.2761194-1.208955 5.4813433-1.037313-.3731344-.679104-2.8731344-1.641791-4.0335821-1.9477611-1.2947762-4.4962686-.5111941-4.8507462 2.9850746-.5522388 1.1791045-.7014925 1.4552239-2.0858209.9701492-.1343283-3.5186567 1.6604478-8.0708955 2.5447761-11.4664179zm1.6044777 2.347015c-2.8283583 4.7910447 5.3731343 4.4776119.8656716-2.3731344-.4303483.4800995-.7251244 1.2748757-.8843284 2.3843284z"/><path d="m119.279851 25.0932836c-.746269.0522388-1.179105 0-1.30597-.1492537-1.037314-2.0820896-.611941-9.2835821-1.529851-11.4738806-1.712687 2.0597014-4.712687 12.6604477-6.548508 3.5820895-.253731-.6604478-.526119-1.119403-1.05597-.8656716-.641791 1.7537313.313433 4.1380597-1.100746 5.7350746-.746269.3731343-2.753731.3097015-2.869403-1.3731343.723881-4.6231344 1.656716-6.8246269 2.298507-12.47388063 3.089553-3.27985075 4.216418 4.18656713 4.712687 6.55223883 1.761194 1.4179104 2.772388-7.74626869 7.149254-5.67164182.373134 3.04104482 2.772388 17.16417912.25 16.13805972z"/><path d="m121.847015 20.8283582c.537313-1.9067164.332089-14.08208954 5.044776-9.3955224-1.608209 3.4925373-1.925373 9.2649254-2.679104 13.1940299-2.156717.5634328-2.876866-1.6417911-2.365672-3.7985075z"/><path d="m126.041045 21.1940299c.623134-2.8358209 2.238806-15.17164184 5.727612-10.3955224-1.716418 11.9141791-7.910448 13.9738806 4.272388 13.1902985 3.097015 4.8022388-8.085821 1.119403-9.839552 2.0783582-1.305971-1.0671642-.574627-3.1492538-.160448-4.8731343z"/><path d="m137.873134 29.7014925c1.686567-6.0708955 4.962687-5.4179104 2.458956-13.3470149-1.055971-3.3171642-.070896-6.0895522 2.36194-3.3955224.641791 1.5522388.276119 5.2798508.929104 6.2238806 1.25-.7910448 2.985075-5.6641791 5.455224-4.8955224.854478.3059702 1.317164.9179105.503732 1.6007463-2.436568 3.238806-5 4.261194-5.41418 8.738806-2.731343-.9291045-3.347014 8.4253731-6.294776 5.0746268z"/><path d="m145.126866 37.7686567c-28.992538-8.869403-74.9328361-5.5970149-90.485075 0 2.2052239 10.1231343 4.3507463 8.0186567-4.8320895 10.1604478-44.35447762 10.8731343-48.02985075 22.0970149-34.1380597-5.8208955-4.2723881-3.3022389-14.29850747-4.5298508-15.6716418-6.8320896 3.35820896-3.7313433 10.8992537-3.4514925 15.7313433-5.6865672 13.0186567-5.2910447 18.5149254-4.1604477 18.2686567-6.4552238-1.0858209-15.40298512 7.4440299-14.21641795 18.2835821-17.07089556 15.2985075-3.35820896 30.8955224-7.14552239 46.9738806-5.72014926 19.5186563-1.69402985 38.0597013 3.49253732 57.0485073 7.76492538 10.932836 3.11567164 8.720149 8.10447764 9.52612 15.97014924 11.600746 3.5708955 36.164179 9.75 33.679104 11.6156717-2.768657 2.4477611-17.850746 4.8134328-15.067164 7.533582 2.985074 5.3283582 8.835821 15.847015 5.884328 16.6641791-9.485074-2.0634328-18.716418-5.8059701-28.257462-8.8022388-21.723881-6.7126865-20.458956-.8246268-16.94403-13.3208955zm-103.1753735-9.0373134.2014926.2164179c-.6791045 1.8656716-3.4328358 3.0895522-4.3134329 4.9925373.8768657 1.1492537 0 4.9813433 2.4104478 4.6641791 8.5597015-.2985075 15.8208955-3.6977612 24.3022388-5.4664179 11.4067164-2.2873134 22.3470149-2.6119403 33.9738806-2.4179104 12.4888056 1.022388 24.6268656-.4701493 36.8544776 2.4589552 26.246269 6.7164179 25.152985 7.8880597 26.414179.3731343-1.36194-1.4925373-3.253731-2.5522388-4.287313-4.6343284l.182836-.1865671 4.399253 2.9850746c1.272388-2.6865672-2.380597-3.8843283-3.130597-6.4291045l.201493-.130597c1.324627.6156717 2.347015 1.6753732 3.537313 2.5522388 1.783582-3.1492537-3.104477-4.3059701-3.481343-7.2350746 1.492537.5895522 2.779851 1.9626866 4.350746 3.3955224.61194-2.7574627-2.257463-3.9067164-3.865671-6.108209l.208955-.2276119 3.731343 2.8059701c.597015-2.4216418-2.61194-3.7313432-3.358209-6.1641791l.261194-.1455224 3.067164 3.4104478.268657-.119403c-.033582-8.49253729-10.201493-7.83582087-16.511194-9.43656714-14.843284-3.07835821-29.085821-5.82835821-44.328358-6.0858209-17.5932838-.34328358-34.0111943 2.49253732-50.9626868 6.13059702-6.5932836 1.62313433-16.6828358.96641791-16.1567164 9.64552242l3.2164179-3.5559702.238806.1455224c-.3731344 2.119403-3.9291045 3.5037313-3.3134329 6.1455224l3.7014926-2.7723881.1380597.1679105c-1.097015 1.8395522-4.4552239 3.2350746-3.7611941 6.1044776 1.2686568-.8320896 2.5410448-2.6716418 4.3283583-3.3208955-.1305971 2.641791-5.2238806 3.7985074-3.5447762 7.25 1.1151067-.9703502 2.3012535-1.8559066 3.5485075-2.6492538l.2350746.2126866c-.5037313 2.3358209-4.4141791 3.261194-3.1492537 6.4067164zm123.6156715-3.6343284c-1.220149 4.8283582-.746268 10.9104478-3.514925 15.3955224-5.597015 2.3283582-11.477612 3.2798508-17.410448 5.1902985 14.38806 1.9552239 28.212687 6.7537314 42.141791 11.3880597 2.156717.9813433 1.492537-1.3544776.847015-2.9850746-8.697761-17.7014925-6.716418-12.3843284 8.88806-18.5970149l.037313-.2350747c-10.563433-2.5373134-20.634328-6.5559701-30.988806-10.1753731zm-110.5261192 20.608209c-21.988806-6.5261194-17.4664179-1.8134329-20.977612-20.6380597-10.1243781 3.7985074-20.4402985 7.2587064-30.94776116 10.380597 3.35820896 1.5186567 16.22761196 4.0298507 14.22761196 7.5-.9813433 2.238806-9.90298509 17.4029851-3.9365672 13.8059701 13.6417911-4.1156716 27.1492537-9.3656716 41.6343284-11.0485074zm101.4925372-5.1380597c-11.38806-1.6417911-9.526119-5.4029851-11.074627 3.0186567zm-102.3619402 3.0149254c-.3731343-1.3955224-.4402985-3.6641792-1.119403-5.3358209-3.1604478.5597014-6.3134328 1.8097014-9.8955224 2.3320895z"/></g></g></svg>