<svg height="71" viewBox="0 0 196 71" width="196" xmlns="http://www.w3.org/2000/svg"><g fill="#fff"><path d="m113.67 56.88c7.66-2.92 5.08-17.78-3.42-9.26-4.42 5.78-3.36 9.81-8.89 10.86-2.23 1.43-3.33 5.76-3.09 8.28-.86 0-2.35.64-.92 1.56 10.91 6.32 19.37.08 16.32-11.44zm-13.56 8.48c-.35-1.27 1-5.66 3.51-5.58-.92 2.22-3.18 6.31-3.51 5.58zm11-7.72c5.9 5.5-7.06 17.24-9.24 9.11 6.8-9.25 3.1-7.62 10.75-18.91 2.68-3 5.83.21 2.09 6-1.02 1.52-5.35 1.16-3.62 3.8z"/><path d="m193.7 39.75c-.320615-4.3362586-1.649212-8.5377733-3.88-12.27-.1933-.2546079-.363951-.5256416-.51-.81-.195947-.2624916-.376259-.5362993-.54-.82-.31-.17-.63-1.2-1.8-2.24-2.739948-2.7727669-6.093548-4.8623441-9.79-6.1-1.35-.2-3-1.2-5.66-1.53-.63-.08-1.27-.3-1.89-.33-.615441-.1098729-1.236333-.1866499-1.86-.23-.71.15.29-.16-2.93-.23-.488993.0799844-.989152.0595697-1.47-.06-.58.19.08-.08-2.46 0-1.09.09-2.74 0-4.93.28-1.55 0-3.35.51-5.9.81-9.291244 1.7663628-18.27119 4.8933385-26.65 9.28-1.94.85-4.21 2.28-7.33 3.91-3.83 2.21-5.49 3.08-11.89 6.73-.54.44-1.09.44-1.63.9-.54.2-1.08.74-1.63.91-.515826.3415862-1.0574623.6424953-1.62.9-2.46 1.18-4.8 2.77-8.51 4.69-.4536997-.3794884-.9545082-.6987959-1.49-.95-.34-.33-1.06-.58-4.36-3-4.1-3-8.7-7.38-14.1-11.35-.3.67-.62 1.34-1 2 .1411637.104768.2880583.2015849.44.29 5.77 4.56 10.56 9.66 17.97 14.47-.5607481.1613218-1.0772241.4486329-1.51.84-7.18 4-16.55 9.36-25.84 13-.92.52-2 .7-4 1.48-.95.28-2 .65-4 1.3-8.1173575 2.5487743-16.6469905 3.5229106-25.13 2.87-.3.09-.59-.17-.89-.08-.5911991-.1144636-1.1890678-.1912847-1.79-.23-.2664737-.1625417-.5864933-.2128819-.89-.14-7.59-.88-17.68-6.04-19.61-15.64-.06.15-.13.3-.18.44-2-7.85-2-15.62 1.73-23 .65-1 5.34-6.94 7-7.67.241582-.2242256.5064166-.4220136.79-.59.32 0 .25-.22 1.72-1 .3293762-.0457625.6421437-.1729317.91-.37.9125286-.3629802 1.8438658-.6767641 2.79-.94.6595781-.0103431 1.3111649-.1460904 1.92-.4 1.3248375-.2116246 2.6601001-.3518272 4-.42.219255-.05286.4445538-.0763987.67-.07 0-.81 0-1.61-.06-2.42-1.1.16-2.86.15-5.05.6-.36-.07-.29 0-1.93.41-.3.19-.3 0-1.69.54-.6152786.1898573-1.2086165.4446238-1.77.76-.2020019.2933988-.5448265.4571928-.9.43l-.39.22c-16 7.83-17.66 35.57-4 46.29 1.1007016.7317022 2.2425883 1.3994722 3.42 2 1.8213315.829298 3.6954031 1.5375033 5.61 2.12 4.1 1 5.83 1.58 13.54 1.74.25-.09 1.53.09 3.83-.14 1.8-.19 4.17-.28 7.6-.9 1.42-.03 1.82-.33 5.65-1.03.6773583-.1116162 1.3457656-.2720339 2-.48.6920977-.0673063 1.3680779-.249821 2-.54 3.8987149-1.1614746 7.7282296-2.5437058 11.47-4.14.89-.48 1.9-.71 3.75-1.66 6.74-3.1 12.89-6.56 20.44-10.86.4814563-.179869.9306043-.436525 1.33-.76.49.12 1 .82 1.45.87.54.48 0-.07 2.19 1.3.5214382.2413299 1.0144604.5398264 1.47.89.26.06.25.16 1.46.74.25.19.49.25.74.45.48.28.94.53 2.54 1.34.310173.0609989.601469.1946526.85.39 3.55 1.69 6-.93-1.53-3.53-.31-.13-.28-.15-1.67-.91-.3-.09-.27-.21-1.67-1-.1025791-.2200135-.3176548-.3659577-.56-.38-.18-.24-.37-.33-.55-.29s-.37-.2-.56-.28-.36-.21-.55-.39c-.3814506-.1924226-.7460655-.4165437-1.09-.67.26-.28.52-.32.78-.52s.52-.3.78-.37c.26-.28.52-.23.78-.45s1.14-.59 2.33-1.32c.52-.23 1-.71 1.56-.88.551733-.2183248 1.072761-.5074113 1.55-.86.62-.31 1.24-.78 1.86-1 3.14-1.83 6.7-3.77 11.11-6.24 2-1.18 4.39-2.4 7.46-4 2.57-1.31 5.52-2.78 9.48-4.56.87-.24 1.75-.84 3.87-1.61 6.500497-2.6586937 13.327896-4.4344901 20.3-5.28 3.455517-.390189 6.937388-.4938759 10.41-.31.636727.1605768 1.295091.2179726 1.95.17 3.229693.3388301 6.402391 1.0916736 9.44 2.24.560477.3406734 1.166541.5999341 1.8.77.566764.3281779 1.150961.6252835 1.75.89.650938.2071327 1.239091.5751581 1.71 1.07.773235.5578081 1.514411 1.1587614 2.22 1.8.24.17.23.21 1.27 1.5.2.05.39.49.58.68.19.56.14 0 1 1.56.16.31.24.43.92 1.67 4.94 8.86 2.89 22-5.72 29.61-.311033.3269689-.645233.6310904-1 .91 3.33-3.2 1.58-11.3-3.56-9.46-.2 1.47-8.95 17.69-12.82 10.08.037496-.4953318.114406-.9868877.23-1.47.138385-.1592816.252913-.3378101.34-.53h.07c.04641-.0267949.10359-.0267949.15 0 11.69 1.12 6.19-17.68-2.16-.52-.92 2.78-9.68 9.05-3.39-.43-.038744-.3746892.102201-.7455975.38-1 3.78-14.75-9.19 2.69-10.57 5.72.49-3.18 6.16-14.26 8.68-16.87 0 0 .09-.06.12-.12.47-.56-.65-2.49-2.33-.4-1.248341 1.6714263-2.308109 3.4757149-3.16 5.38l-.09-.74c-.43-.32-.61-.4-1.07-.2.13.12-5.83 2.72-3.07-1.06 1.28-4.69-2.43.06-2.83 1.23-.66-.22-7 2.17-3.42 3 4.12-2.61 1.11 1.23-.9 5.37-6.25 5.89 3.42-14.45-9.79-4-1.1.93-1.65 1.75-2.56 4.08-.24.16-.94 1.5-1.47 1.84-.072275.1475485-.163002.2853179-.27.41-6.95 6.28-.65-2.68-.48-5.49-.23-1.75-3.81-7.49-6.17-3.34.77 2-5.21 5.88-3.19 8.31.163986.0805033.356014.0805033.52 0 1-.54 1-1.45 2.47-3.2.856115-1.3889981 1.556989-2.8678754 2.09-4.41 2.22 2.2 2.73 3.1 1.2 5.87-4.92 5.56.26 9 4.72 3.89 1.16 4.09 7 2.76 8.63-1 .49-.14 1.85.14 3 0-.75 3.42 4 5.18 7.11 2 .32 2.36 4 1.58 5.14-1.07.9-.53 5.65-11.43 7-8.27-3.85 6.21-6.85 15.72 3.47 8.13.38 1.95 3.47 3.47 6.34 2h.06c1.35-.72 1.62-.28 4.12-2.76.14-.35.21-.16 1.22-1.46.62-.65.7-1.28 2-2.9.856115-1.3889981 1.556989-2.8678754 2.09-4.41 2.23 2.2 2.73 3.1 1.2 5.87-1.31 2.95-3.63 3.58-1.26 6l.15-.19v.3c.087555-.0628632.18139-.1164829.28-.16 1.391353-.7211332 2.679537-1.6258893 3.83-2.69 5.49-5.16 10.62-12.89 10.12-22.14zm-26.7 16.61c1.81-4.41 7.93-2.2-.08 1.19-.48-.29-.5-.17.08-1.19zm-28.5-1.28c-.6 2.42-6.6 13-7.17 5.5.8-3.51 5.5-10.43 7.17-5.5zm10.8 4.07-.05.11c-.37 2.09-8.29 7.35-6.16 1.54 1.25-1.88 2.51-6.2 4.82-8.55 2.25.54 3.84.58 5.59-1.23-.76 1.28-1.28 2.52-2.4 4.7-.21.2-.74 1.54-1.8 3.43z"/><path d="m124.71 58.33c-.027149.0411678-.050575.0846732-.07.13.05-.11.11-.21.07-.13z"/><path d="m180.78 58.33c-.027149.0411678-.050575.0846732-.07.13z"/><path d="m23.92 57.69c-4.1 1.7-7.09-3.37-10.15-3.26-1.5 4.08 14.5 7.14 10.15 3.26z"/><path d="m25.82 54.64c-2 .51-4.65-1.12-7.2-2.09-3.4 2.45 10.7 5.83 7.2 2.09z"/><path d="m183.41 18c3.42.93 6.28 4.65 9.1 7.28 4.16-1.34-11.71-12.7-9.1-7.28z"/><path d="m195.53 21.18c-.72-1.62-8.88-9.85-8.17-5.34 2.49.1 7.47 8.89 8.17 5.34z"/><path d="m69.19 12.27c-5.82-8.53-16-7.65-23.49-1.44-2.34-7.54-12.89-16.18-17.59-6.6-2.78 17.25 11.78 33.44 24.31 42.83-5.6 16.76 23-7.65 5.34-2.9-1.46-3-2.06-6.32-3.25-9.42 10.41.38 21.34-12.11 14.68-22.47zm-1 11.62c-2.8049607-.3348843-5.2199935-2.1366359-6.34-4.73 2.1399342-1.7450975 3.9428916-3.8666225 5.32-6.26 2.3156458 3.2063764 2.6953436 7.4214052.99 10.99zm-7.58-15.55c1.9364596.52285886 3.7040777 1.53932545 5.13 2.95-1.1810823 2.2195078-2.760752 4.2025695-4.66 5.85-.7921273-2.864679-.9524916-5.8672447-.47-8.8zm6.56 17.4c-1.142595 1.7699716-2.6452166 3.2794078-4.41 4.43-2.67-1.31-3.77-4.63-5.89-7.59 1.1732502-.6733554 2.3083206-1.4111511 3.4-2.21 1.2554672 2.8326493 3.8457843 4.8485917 6.9 5.37zm-8.52-17.74c-.5872276 3.504533-.305664 7.0996189.82 10.47-1.1592134.8822269-2.3751684 1.687296-3.64 2.41-2.0548507-3.4446473-3.9047299-7.0075012-5.54-10.67 2.4607867-1.65155198 5.4045291-2.42974226 8.36-2.21zm-10.09 3.21c1.6414332 3.6480051 3.4877099 7.200335 5.53 10.64-.8133333.4266667-1.6333333.8366667-2.46 1.23-1.795075-2.8971881-4.5697281-5.0544632-7.82-6.08.9251215-2.3873045 2.5895397-4.4161427 4.75-5.79zm2.16 14.47c.6864207 2.1010773.8139372 4.3446781.37 6.51-2.3473507-.747874-4.3756965-2.2620905-5.76-4.3 1.75-.68 3.57-1.41 5.39-2.21zm-6.42.48c-1.098278-2.2337916-1.4488789-4.7616236-1-7.21 2.6836105.8723861 4.9879135 2.6367835 6.53 5-1.89.78-3.75 1.52-5.53 2.21zm-.82 10.41c-26.65-30.28-7.83-45.68.73-24.21-1.0932859 1.299977-1.9282425 2.7967894-2.46 4.41-.4322445.3068339-.58722.8764735-.37 1.36-1.38 5.25 2.22 13.69 8.34 15.7-1.9577718 1.1696425-4.054006 2.0901043-6.24 2.74zm4.19 4.13c-.91-.81-1.8-1.64-2.66-2.51 2.5910813-.8898036 5.0655659-2.0884346 7.37-3.57.24.87.54 1.31 1.27 3.66-1.08.99-3.56 1.88-5.98 2.42zm8.39 4.52c-.86 3.3 5.81-1.31 5.29.69-3.48 3.32-9.08 8.69-7.12.6-.61-1.59-2.49-2.16-4.72-4.2 1.7003994-.3346757 3.313813-1.015441 4.74-2 .4638683 1.6847556 1.0693584 3.3272728 1.81 4.91zm-3.06-12.6c.6341362-2.5730302.4773039-5.2775172-.45-7.76.89-.41 1.76-.86 2.62-1.31 1.19 1.68 2.94 5.83 5.52 7.81-2.391268 1.1430208-5.0589966 1.5801259-7.69 1.26z"/></g></svg>