<svg height="52" viewBox="0 0 200 52" width="200" xmlns="http://www.w3.org/2000/svg"><g fill="none" transform="translate(-.000263 -.000327)"><path d="m42.4660194 1.30582524c-10.5 13.01941746-42.4660194 6.76699029-42.4660194 6.76699029l15.5776699 13.77184467-11.7961165 12.5873786c15.5825243 6.0291262 48.2378641-1.6553398 48.2378641-1.6553398z" fill="#edd7a9"/><path d="m42.4660194 1.30582524-11.776699 14.43689316 16.9514563 2.1504855z" fill="#e0c996"/><path d="m157.199029 0c10.5 13.0242718 42.46602 6.76699029 42.46602 6.76699029l-15.57767 13.78640781 11.796116 12.5728155c-15.582524 6.0291262-48.237864-1.6553398-48.237864-1.6553398z" fill="#edd7a9"/><path d="m157.199029 0 11.776699 14.4417476-16.951456 2.145631z" fill="#e0c996"/><path d="m168.932039 14.4563107s-86.7427186 10.0631068-138.2427186 1.2864077c0 0 9.276699 23.1990292 4.0970874 35.3495146 0 0 89.1067962-18.315534 127.9708742 0 0 0-3.65534-22.7184466 6.174757-36.6359223z" fill="#ffecba"/><g fill="#605543"><path d="m50.8786408 32.1893204.1601942 1.1699029-2.3834952.3300971.8592233 5.9271845c-.7815534.1067961-1.5582524.2233009-2.3398058.3398058l-1.5873787-10.5194175c-1.9708737.0631068-1.3058252 3.8495146-.2475728 4.4660194-2.9126213.5728156-3.1165048-3.2330097-1.6893204-4.5679611 2.1067962-2.1407767 5.3398059-1.0436894 7.6990292-2.0242719.2233009 2.6213592-1.3495146 2.0873787-3.3058253 2.092233l.446602 3.1213592z"/><path d="m58.4126214 30.4514563c.1601941 1.6747573.6116504 9.8932039 2.5679611 4.8543689l.684466-.0728155c-.1019417 3.5873786-3.4951456 4.184466-4.5097087 2-5.2912621 7.3446602-7.868932-9.6650485-1.0194175-5.7475728l-.092233-.7572816c.7912622-.0970873 1.5776699-.1893203 2.3689321-.276699zm-2.1844661 1.7912621c-3.3398058-2.7524271-1.8786407 8.7378641.4223301 4.0631068.092233-1.4174757-.3398058-2.5291262-.4223301-4.0631068z"/><path d="m67.815534 30.8980583c-.6262136.0582524-.8398058.7621359-.8398058 1.5436893.1553398 1.6990291.3058252 3.3980582.461165 5.092233l-2.3203883.2135922c-.038835-1.3737864-.6601942-10.0048544-2.1747573-4.9174757.1747573 1.6941747.3446602 3.3980582.5194174 5.0825243l-2.3203883.2427184c-.2815534-2.6343042-.566343-5.2718447-.8543689-7.9126214.7912621-.0873786 1.5776699-.1699029 2.368932-.2475728l.0825243.8252427c.8980582-1.3786407 2.7912621-1.6165048 3.8203883.0970874 1.092233-2.4029126 4.2281554-2.1213592 4.4563107 1.2038835-.3203883 1.7766991.9174757 5.8252427 2.0291262 2.0970874l.684466-.0485437c-.1650485 3.5436893-2.9126213 3.8834952-4.2718446 2.1262136-1.1067961-1.4223301.0873786-5.0631068-1.6407767-5.3980582z"/><path d="m73.5582524 25.6601942c.6731854-.0103127 1.2368726.5076797 1.2833719 1.1793364s-.4404303 1.262384-1.1086146 1.3449354c-.6731854.0103127-1.2368726-.5076797-1.2833719-1.1793364s.4404304-1.262384 1.1086146-1.3449354zm1.4902913 3.2961165c.0728155 1.684466.1650485 9.9174757 2.3398058 4.9708738l.6796117-.038835c-.3446602 3.3640777-2.9126214 3.7864078-4.4805826 2.4271845-1.0776699-2.0485437-.4854369-4.684466-.9126213-7.1796117z"/><path d="m79.2815534 25.5145631c.2572816 1.8543689-.1601942 13.9174757 2.4271845 8.1796117l.684466-.0339806c-.4417476 3.2087378-2.4611651 3.5970874-4.2572816 2.6310679-1.7038835-2.7233009-.6407767-6.9320388-1.2524272-10.3252427z"/><path d="m87.9417476 28.3349515c-.0776699 3.4417475.5631068 6.4174757.0728155 10.7087378-1.9417476 3.7864078-6.9660194-1.0388349-2.1601942-2.6116505l-.0291262-.8737864c-4.7524272 3.9611651-4.1796116-4.1262136-4.3398058-6.9708738l2.3737864-.1067961c.0291262 1.4563107 0 9.8737864 1.8883495 5.0436893-.0631068-1.7038835-.1213592-3.3980582-.184466-5.1067961zm-2.631068 10.7961165c.3834952-.0436894.684466-.815534.5728155-1.9029127-.776699.2281554-1.9757281 1.5097088-.5728155 1.9029127z"/><path d="m94.0776699 24.815534c.6690135.0330181 1.1967386.5810765 1.204452 1.25086.0077135.6697834-.5072501 1.2298498-1.1753258 1.2782662-.6690135-.0330181-1.1967386-.5810766-1.204452-1.25086s.5072501-1.2298498 1.1753258-1.2782662zm1.2961165 3.3980582c0 1.6796117-.4174757 9.9029127 2.0485437 5.0970874h.684466c-.5339806 3.315534-3.1165048 3.5825243-4.6067961 2.1262136-.9708738-2.1067961-.2378641-4.7038835-.4854369-7.2184466z"/><path d="m101.276699 27.6941748c5.097087 13.2330097-6.9757281 8.0582524-3.6262136 5.0242718.614451-1.5114741 1.0321113-3.0956465 1.2427185-4.7135922zm-2.9126213 6.3737864c-.1841553.0080272-.3622412-.0667689-.4854369-.2038835 2.1893202 3.2961165 3.0291262-.9368932 1.5097087-4.0436894-.2446963.9975197-.5478079 1.9797958-.907767 2.9417476.2961165.1359224.8592233.9417476-.1116505 1.3058253z"/><path d="m114.927184 29.3495146c0 .3932038-.03398.7864077-.053398 1.1796116-.796116-.0388349-1.597087-.0728155-2.393203-.1019417-.084143 1.9902912-.163431 3.9838187-.237865 5.9805825l-2.359223-.0873787.349515-10.6262135c-1.941748-.2961165-1.970874 3.553398-1.048544 4.368932-3.038835 0-2.427184-3.9223301-.684466-4.8980583 2.524272-1.5776699 5.276699.0242719 7.76699-.4854368-.325242 2.6067961-1.524272 1.8349514-3.616505 1.4563106-.043689 1.0485437-.082524 2.0970874-.126213 3.1456311z"/><path d="m121.606796 31.3640777c.868224-.0210959 1.711557-.2943356 2.427185-.7864078.072815.1456311.145631.2961165.213592.4417476-.485437.6359223-1.616505 1.0048543-2.626214 1.1310679.402913 4.854369-5.18932 6.5728156-6.242718 2.0048544-1.111651-5.0631068 5.373786-7.9708738 6.228155-2.7912621zm-1.393204 1v-.2378641c-.320861-.1089368-.547021-.3972022-.576466-.7347706s.143389-.660637.440544-.8234818c-1.058253-2.4611651-2.699029.6650485-2.315534 3.592233.524272 2.4466019 2.393204.9563107 2.451456-1.7961165z"/><path d="m125.441748 29.1941748-.072816.9708737c4.009709-3.461165 3.631068 4.1407767 1.199029.4563107-.349514-.2524272-.485437-.1310679-1.26699.4854369-.15534 2.0097088-.307443 4.0194175-.456311 6.0291262l-2.325243-.1699029c.197411-2.6375404.380259-5.2847896.548544-7.9417476z"/><path d="m135.058252 35.1941748.553398.0582524c-4.121359 6.4951456-10.029126-.3980583-5.30097-4.9805825 5.640776-2.6844661 5.03398 4.6262136.660194 4.1504854-.432039 2.8058252 2.941747 2.5485437 4.087378.7718447zm-2.388349-4.6116505c-.742719-.0679612-1.38835 1.3737864-1.626214 3.0776699 1.203884.2524272 3.116505-2.2330097 1.626214-3.0776699z"/><path d="m141.15534 33.4320388c-.097088 3.6553398-3.791262 7.0582525-5.980583 3.4854369-.485437-2.2427184.364078-4.4708738.417476-6.7961165l2.368932.2524272c-2.063107 9.7087379 2.169903 7.3786408 2.257282 1.4563107-3.504855-.4271845 1.640776-3.9368932.936893 1.6019417z"/><path d="m147.980583 36.7864078.548543.0776699c-4.368932 6.3106796-10.019417-.7669903-5.116505-5.1699029 5.737864-2.4757282 4.854369 4.8106796.485437 4.1699029-.514563 2.7864077 2.873787 2.6601941 4.082525.9223301zm-2.218447-4.6941748c-.737864-.0970874-1.456311 1.3203884-1.742719 3.0145631 1.19903.2961165 3.203884-2.0970874 1.742719-3.0145631z"/><path d="m151.063107 32.0728155-.145631.9708738c4.252427-3.1650485 3.330097 4.3689321 1.165048.538835-.334951-.2718447-.45631-.1601942-1.300971.3737864-.30097 1.9967637-.598705 3.9902912-.893203 5.9805825l-2.315534-.3300971 1.121359-7.8786408z"/></g></g></svg>