<svg width="95" height="138" viewBox="0 0 95 138" fill="none" xmlns="http://www.w3.org/2000/svg">
<path fill-rule="evenodd" clip-rule="evenodd" d="M85.8806 31.0413C87.4456 34.5913 78.6456 40.4043 78.6456 40.4043L78.5986 40.4143C77.8056 35.7753 76.2696 31.1743 74.0646 26.9463C75.6396 27.0513 84.4676 27.8063 85.8806 31.0413Z" fill="#349299"/>
<path fill-rule="evenodd" clip-rule="evenodd" d="M74.1506 67.9876C75.2196 65.3536 76.2976 62.5086 77.3666 59.4266C77.7676 58.2616 78.1116 57.0686 78.3686 55.8476L78.5026 55.8756C78.5026 55.8756 88.2186 58.7486 87.5886 63.8266C87.0166 68.3606 74.3886 68.0836 74.3886 68.0836L74.1506 67.9876Z" fill="#349299"/>
<path fill-rule="evenodd" clip-rule="evenodd" d="M74.3889 68.0833C74.3889 68.0833 84.6109 75.8803 82.9029 79.2883C81.4329 82.2373 67.5839 82.4093 67.5839 82.4093L67.4599 82.3423C69.5399 78.4383 71.8219 73.7243 74.1509 67.9873L74.3889 68.0833Z" fill="#349299"/>
<path fill-rule="evenodd" clip-rule="evenodd" d="M78.6457 40.4041C78.6457 40.4041 89.2877 43.2481 88.5817 48.2121C87.8747 53.1841 78.5027 55.8761 78.5027 55.8761L78.3687 55.8471C79.4577 50.9701 79.5047 45.6631 78.5987 40.4141L78.6457 40.4041Z" fill="#349299"/>
<path fill-rule="evenodd" clip-rule="evenodd" d="M78.6457 18.1278C80.9747 21.4968 75.0477 26.0398 73.9887 26.8138C71.9647 22.9578 69.3777 19.4168 66.2757 16.4578L66.3047 16.4288C66.3047 16.4288 76.0977 14.4438 78.6457 18.1278Z" fill="#349299"/>
<path fill-rule="evenodd" clip-rule="evenodd" d="M65.0261 6.06331C67.8991 7.72431 66.3051 16.4293 66.3051 16.4293L66.2761 16.4573C63.0891 13.3943 59.3661 10.9503 55.1571 9.39431L55.2331 9.19431C55.2331 9.19431 61.3321 3.93531 65.0261 6.06331Z" fill="#349299"/>
<path fill-rule="evenodd" clip-rule="evenodd" d="M41.7565 7.4857C41.7565 7.4857 47.1495 0.1077 51.1195 1.1007C55.0895 2.0927 55.2335 9.1937 55.2335 9.1937L55.1565 9.3947C51.9495 8.2017 48.4755 7.5237 44.7345 7.4857C43.7225 7.4757 42.7305 7.4857 41.7565 7.5237V7.4857Z" fill="#349299"/>
<path fill-rule="evenodd" clip-rule="evenodd" d="M41.7565 7.4857V7.52369C36.9365 7.66669 32.5935 8.3067 28.6995 9.3277C28.6995 9.3277 32.8135 0.250691 36.2205 0.813691C39.6285 1.3867 41.7565 7.4857 41.7565 7.4857Z" fill="#349299"/>
<path fill-rule="evenodd" clip-rule="evenodd" d="M21.1789 3.37192C23.7269 2.94192 28.6999 9.32792 28.6999 9.32792C24.0039 10.5499 19.9479 12.3149 16.5019 14.4249C16.5969 13.9179 18.6879 3.79192 21.1789 3.37192Z" fill="#349299"/>
<path fill-rule="evenodd" clip-rule="evenodd" d="M16.5022 14.4246C19.9472 12.3156 24.0042 10.5496 28.7002 9.32761C32.5942 8.30661 36.9362 7.66661 41.7562 7.52361C42.7302 7.48561 43.7232 7.47561 44.7342 7.48561C48.4762 7.52361 51.9502 8.20161 55.1572 9.39461C59.3662 10.9496 63.0882 13.3936 66.2762 16.4576C69.3782 19.4166 71.9642 22.9576 73.9882 26.8136C73.8832 26.8896 73.8262 26.9276 73.8262 26.9276C73.8262 26.9276 73.9122 26.9276 74.0642 26.9466C76.2692 31.1746 77.8062 35.7756 78.5982 40.4136C79.5042 45.6636 79.4572 50.9696 78.3692 55.8476C78.1112 57.0686 77.7682 58.2616 77.3672 59.4266C76.2982 62.5086 75.2192 65.3536 74.1502 67.9876C71.8212 73.7236 69.5402 78.4386 67.4602 82.3426C61.7522 93.0796 57.6292 97.6046 58.6412 100.01C60.1872 103.685 75.3242 96.8596 86.7392 101.146C95.8162 104.553 97.1522 117.209 90.7102 124.129C82.6352 132.804 33.4532 142.53 19.4322 134.895C5.41121 127.259 9.26721 111.32 15.7862 101.709C22.2952 92.1066 35.6672 81.5886 45.5452 66.9766C52.9612 56.0196 51.4062 44.3646 40.1912 43.5346C32.5272 42.9626 24.1762 51.3896 17.4852 54.3206C12.6362 56.4396 0.019207 50.2826 0.171207 38.9916C0.276207 31.9666 5.14421 21.3536 16.5022 14.4246Z" fill="#F97A5D"/>
<path fill-rule="evenodd" clip-rule="evenodd" d="M18.3083 28.4159C18.7283 31.6419 16.4553 34.5969 13.2303 35.0179C10.0053 35.4379 7.05031 33.1649 6.62931 29.9399C6.20831 26.7149 8.48131 23.7589 11.7063 23.3379C14.9323 22.9179 17.8873 25.1909 18.3083 28.4159Z" fill="white"/>
<path fill-rule="evenodd" clip-rule="evenodd" d="M14.7048 29.1439C14.9128 30.7369 14.1998 32.1439 13.1118 32.2859C12.0228 32.4269 10.9728 31.2509 10.7658 29.6579C10.5578 28.0649 11.2698 26.6589 12.3588 26.5169C13.4468 26.3749 14.4968 27.5509 14.7048 29.1439Z" fill="#1E120D"/>
<path fill-rule="evenodd" clip-rule="evenodd" d="M57.1545 22.9881C57.5745 26.2131 55.3015 29.1691 52.0755 29.5901C48.8515 30.0101 45.8965 27.7381 45.4745 24.5121C45.0545 21.2871 47.3275 18.3311 50.5525 17.9101C53.7775 17.4891 56.7335 19.7631 57.1545 22.9881Z" fill="white"/>
<path fill-rule="evenodd" clip-rule="evenodd" d="M53.4797 23.5736C53.6877 25.1676 52.9747 26.5736 51.8867 26.7156C50.7977 26.8576 49.7477 25.6806 49.5397 24.0876C49.3327 22.4946 50.0447 21.0886 51.1347 20.9466C52.2217 20.8046 53.2717 21.9816 53.4797 23.5736Z" fill="#1E120D"/>
<path fill-rule="evenodd" clip-rule="evenodd" d="M19.1902 30.7767C17.0612 33.9697 20.5272 40.4087 31.3222 40.4087C41.8872 40.4087 48.0932 33.7217 45.4312 29.5767C41.9662 24.1787 38.5122 29.6917 31.5892 29.9257C24.6662 30.1607 22.0562 26.4787 19.1902 30.7767Z" fill="#E34335"/>
<path fill-rule="evenodd" clip-rule="evenodd" d="M25.3288 34.6961C26.1458 35.1211 26.2828 38.6041 26.2828 38.6041L26.2738 38.6211C24.6568 38.1701 23.4128 37.4971 22.4938 36.7311L22.5618 36.6461C22.5618 36.6461 24.5118 34.2701 25.3288 34.6961Z" fill="white"/>
<path fill-rule="evenodd" clip-rule="evenodd" d="M29.049 35.5814C29.943 35.7944 30.506 39.2004 30.506 39.2004V39.2254C28.879 39.1744 27.474 38.9604 26.274 38.6214L26.282 38.6034C26.282 38.6034 28.164 35.3684 29.049 35.5814Z" fill="white"/>
<path fill-rule="evenodd" clip-rule="evenodd" d="M35.0178 38.8768C33.8348 39.1058 32.5658 39.2338 31.2128 39.2338C30.9738 39.2338 30.7358 39.2338 30.5058 39.2258V39.1998C30.5058 39.1998 31.7828 35.8708 32.6678 35.7258C33.5618 35.5818 35.0098 38.8508 35.0098 38.8508L35.0178 38.8768Z" fill="white"/>
<path fill-rule="evenodd" clip-rule="evenodd" d="M36.1164 35.1556C36.8564 35.0196 39.0194 37.6086 39.0194 37.6086C37.8454 38.1526 36.4994 38.5956 35.0174 38.8766L35.0094 38.8506C35.0094 38.8506 35.3674 35.3006 36.1164 35.1556Z" fill="white"/>
<path fill-rule="evenodd" clip-rule="evenodd" d="M42.8171 34.9085L42.8681 34.9595C41.9231 35.9305 40.6201 36.8665 39.0201 37.6085C39.0201 37.6085 39.2331 34.0915 40.1521 33.7005C41.0801 33.3165 42.8171 34.9085 42.8171 34.9085Z" fill="white"/>
<path fill-rule="evenodd" clip-rule="evenodd" d="M43.3107 29.0765L43.2937 29.1275C43.2937 29.1275 42.9787 31.8945 41.7527 31.8435C40.6117 31.7925 39.2407 29.5275 39.0617 29.2125C40.7307 28.5655 42.1017 28.2165 43.3107 29.0765Z" fill="white"/>
<path fill-rule="evenodd" clip-rule="evenodd" d="M39.0368 29.221C39.0368 29.656 39.0018 33.265 37.7598 33.461C36.6188 33.649 35.1028 30.72 35.1028 30.72L35.0948 30.685C36.5848 30.252 37.8788 29.664 39.0368 29.221Z" fill="white"/>
<path fill-rule="evenodd" clip-rule="evenodd" d="M35.1032 30.7201C35.1032 30.7201 34.4132 33.9211 33.2902 34.0741C32.1822 34.2361 30.8972 31.3071 30.8972 31.3071V31.2641C31.1352 31.2641 31.3822 31.2641 31.6372 31.2561C32.8982 31.2141 34.0472 30.9841 35.0942 30.6851L35.1032 30.7201Z" fill="white"/>
<path fill-rule="evenodd" clip-rule="evenodd" d="M30.8977 31.3075C30.8977 31.3075 30.0967 34.1845 28.7177 34.2865C27.3297 34.3975 26.3767 30.7795 26.3767 30.7795L26.4017 30.6945C27.6617 30.9835 29.1347 31.2565 30.8977 31.2645V31.3075Z" fill="white"/>
<path fill-rule="evenodd" clip-rule="evenodd" d="M26.3762 30.7791C26.3762 30.7791 25.6782 33.5971 24.6222 33.5971C23.5922 33.5971 22.5202 30.2601 22.4422 29.9961C23.4552 29.8941 24.7322 30.3111 26.4012 30.6941L26.3762 30.7791Z" fill="white"/>
<path fill-rule="evenodd" clip-rule="evenodd" d="M44.2048 29.9788C45.1328 31.2308 44.5878 33.1718 42.8688 34.9588L42.8168 34.9088C42.8168 34.9088 41.0798 33.3168 40.1518 33.6998C39.2328 34.0918 39.0198 37.6078 39.0198 37.6078C39.0198 37.6078 36.8568 35.0198 36.1168 35.1558C35.3678 35.3008 35.0098 38.8508 35.0098 38.8508C35.0098 38.8508 33.5618 35.5818 32.6678 35.7258C31.7828 35.8708 30.5058 39.1998 30.5058 39.1998C30.5058 39.1998 29.9428 35.7938 29.0488 35.5818C28.1638 35.3688 26.2828 38.6038 26.2828 38.6038C26.2828 38.6038 26.1458 35.1218 25.3288 34.6958C24.5118 34.2708 22.5618 36.6458 22.5618 36.6458L22.4938 36.7308C20.2538 34.8748 19.9048 32.4648 20.6288 31.2558C21.1228 30.4298 21.7198 30.0728 22.4418 29.9968C22.5198 30.2598 23.5918 33.5978 24.6218 33.5978C25.6778 33.5978 26.3758 30.7788 26.3758 30.7788C26.3758 30.7788 27.3298 34.3978 28.7178 34.2868C30.0968 34.1848 30.8978 31.3078 30.8978 31.3078C30.8978 31.3078 32.1828 34.2358 33.2898 34.0748C34.4138 33.9208 35.1028 30.7198 35.1028 30.7198C35.1028 30.7198 36.6188 33.6488 37.7598 33.4608C39.0018 33.2648 39.0368 29.6558 39.0368 29.2208C39.0448 29.2128 39.0538 29.2128 39.0618 29.2128C39.2408 29.5278 40.6118 31.7918 41.7528 31.8438C42.9788 31.8948 43.2938 29.1278 43.2938 29.1278L43.3108 29.0768C43.6178 29.2898 43.9148 29.5868 44.2048 29.9788Z" fill="#1E120D"/>
<path fill-rule="evenodd" clip-rule="evenodd" d="M63.0795 52.9416C65.1585 52.9456 63.5365 50.7506 65.1365 49.5666C66.5935 49.2876 66.2395 52.6556 68.4555 52.6586C70.6515 52.7936 69.2895 45.9166 72.5935 50.9726C72.7015 51.0166 73.0785 51.2706 73.5405 50.8776C74.5 51.5 73 53.5 71.4663 51.9688C70.4465 54.0342 67.8133 56.1819 65.6331 53.1631C65 54 60.6949 55.7719 60.0105 50.7176C60 50 60.5 48.5 61 49.5C61.25 50.105 61.0815 52.6306 63.0795 52.9416Z" fill="#E54E35"/>
<path fill-rule="evenodd" clip-rule="evenodd" d="M66.3013 57.7136C66.2603 57.7166 66.3933 57.7096 66.2103 57.7186C68.1843 57.7766 66.7943 53.3216 69.3693 54.3306C70.0483 55.0026 69.6813 56.7476 71.3493 57.2896C71.1453 57.3166 71.2943 57.2966 71.2483 57.3016C72.9413 57.2386 72.0943 55.0016 73.7913 53.7296C75.4185 55.2324 71.9292 61.9991 68.9871 57.7481C69 58 67.5162 59.5382 66.1213 59.4116C64.7043 60.0216 61.4033 54.7816 63.9543 55.1966C64.2303 55.6306 64.8033 57.6306 66.3013 57.7136Z" fill="#E54E35"/>
<path fill-rule="evenodd" clip-rule="evenodd" d="M41.2605 82.4642C41.5615 83.6812 41.0425 87.1602 43.0735 88.4352C42.8485 88.4042 43.0135 88.4262 42.9655 88.4202C43.9515 88.5632 44.7225 87.9972 45.9195 86.4052C50.7935 77.9472 45.5135 97.9012 40.1505 87.3492C40.0805 86.8782 39.1915 80.9482 41.2605 82.4642Z" fill="#E54E35"/>
<path fill-rule="evenodd" clip-rule="evenodd" d="M26.7159 108.793C26.6229 108.782 27.3249 108.895 27.2459 108.807C28.6779 109.162 29.7739 100.587 31.2829 105.804C31.4759 106.297 31.4579 108.881 33.0279 109.224C32.9909 109.229 33.1129 109.213 32.9459 109.235C34.5609 109.136 35.3089 107.688 35.4219 105.381C35.3309 102.117 38.2569 106.243 35.4439 109.796C33.8443 111.428 31.3095 111.196 30.0578 108.746C28.5 110.5 22.6372 111.601 24.6619 103.564C24.6159 103.553 25.3689 102.747 25.6369 103.818C25.6569 104.83 24.8119 107.977 26.7159 108.793Z" fill="#E54E35"/>
<path fill-rule="evenodd" clip-rule="evenodd" d="M24.1095 115.741C25.4375 115.297 25.0865 110.637 27.4465 111.971C28.0075 113.054 27.1905 115.638 29.7735 116.091C29.5935 116.084 29.7245 116.089 29.6855 116.087C32.3245 116.578 31.1305 112.922 33.1425 111.743C33.6985 110.569 37.6595 122.709 38.1325 110.562C38.1025 110.582 38.4535 109.508 39.1285 110.44C40.4075 114.702 37.3049 120.588 33.6012 115.332C33 117.5 28.1297 119.365 26.5101 115.872C24 118.5 19.4051 118.212 21.1135 110.389C21.0685 110.383 21.8145 109.519 22.0915 110.63C21.7645 111.81 21.8175 116.839 24.1095 115.741Z" fill="#E54E35"/>
<path fill-rule="evenodd" clip-rule="evenodd" d="M69.9513 114.918C69.9053 114.923 70.0583 114.907 69.8483 114.929C70.8363 114.696 71.3913 114.043 71.6283 112.229C71.8263 101.199 76.6423 120.488 79.1723 110.244C79.3303 109.362 79.4953 108.305 79.5643 106.405C82.3124 104.789 80.5299 121.261 73.8099 113.004C73 114.5 71 117 68.9553 116.445C66.9106 115.889 62.7673 110.215 65.9343 110.654C66.5163 111.758 67.6273 114.955 69.9513 114.918Z" fill="#E54E35"/>
<path fill-rule="evenodd" clip-rule="evenodd" d="M71.4528 116.71C72.3348 117.689 73.2708 120.268 75.7818 120.22C75.6178 120.258 75.7388 120.229 75.7028 120.238C77.8818 120.224 77.3348 116.998 78.7238 115.74C79.7278 116.796 79.5548 119.633 77.8118 121.293C75.6298 124.705 68.1548 117.966 71.4528 116.71Z" fill="#E54E35"/>
</svg>
