<svg width="102" height="136" viewBox="0 0 102 136" fill="none" xmlns="http://www.w3.org/2000/svg">
<mask id="mask0_1_453" style="mask-type:alpha" maskUnits="userSpaceOnUse" x="0" y="0" width="3" height="12">
<path fill-rule="evenodd" clip-rule="evenodd" d="M0.309631 0.477997H2.37772V11.9152H0.309631V0.477997Z" fill="white"/>
</mask>
<g mask="url(#mask0_1_453)">
</g>
<mask id="mask1_1_453" style="mask-type:alpha" maskUnits="userSpaceOnUse" x="0" y="0" width="95" height="122">
<path fill-rule="evenodd" clip-rule="evenodd" d="M8.89999 3.998C4.31099 8.462 -5.23901 64.384 4.37199 70.257C13.983 76.131 38.26 77.035 38.26 77.035C38.26 77.035 35.28 114.157 37.956 116.967C44.007 123.32 66.748 121.372 68.812 117.571C70.877 113.769 76.962 76.188 76.962 76.188C76.962 76.188 89.203 73.442 92.408 69.473C95.612 65.501 95.089 46.309 91.804 44.667C89.383 43.456 82.728 44.364 82.728 44.364C82.728 44.364 89.21 11.623 83.938 5.945C80.005 1.711 62.562 0.247003 57.317 4.736C54.354 7.275 51.952 41.945 49.755 42.852C47.555 43.76 37.578 44.401 36.746 40.734C35.913 37.067 41.464 7.032 39.469 5.038C36.595 2.164 29.515 0.789001 22.797 0.789001C16.788 0.789001 11.067 1.889 8.89999 3.998Z" fill="white"/>
</mask>
<g mask="url(#mask1_1_453)">
</g>
<mask id="mask2_1_453" style="mask-type:alpha" maskUnits="userSpaceOnUse" x="0" y="0" width="95" height="122">
<path fill-rule="evenodd" clip-rule="evenodd" d="M8.89999 3.998C4.31099 8.462 -5.23901 64.384 4.37199 70.257C13.983 76.131 38.26 77.035 38.26 77.035C38.26 77.035 35.28 114.157 37.956 116.967C44.007 123.32 66.748 121.372 68.812 117.571C70.877 113.769 76.962 76.188 76.962 76.188C76.962 76.188 89.203 73.442 92.408 69.473C95.612 65.501 95.089 46.309 91.804 44.667C89.383 43.456 82.728 44.364 82.728 44.364C82.728 44.364 89.21 11.623 83.938 5.945C80.005 1.711 62.562 0.247003 57.317 4.736C54.354 7.275 51.952 41.945 49.755 42.852C47.555 43.76 37.578 44.401 36.746 40.734C35.913 37.067 41.464 7.032 39.469 5.038C36.595 2.164 29.515 0.789001 22.797 0.789001C16.788 0.789001 11.067 1.889 8.89999 3.998Z" fill="white"/>
</mask>
<g mask="url(#mask2_1_453)">
</g>
<mask id="mask3_1_453" style="mask-type:alpha" maskUnits="userSpaceOnUse" x="0" y="0" width="95" height="122">
<path fill-rule="evenodd" clip-rule="evenodd" d="M8.89999 3.998C4.31099 8.462 -5.23901 64.384 4.37199 70.257C13.983 76.131 38.26 77.035 38.26 77.035C38.26 77.035 35.28 114.157 37.956 116.967C44.007 123.32 66.748 121.372 68.812 117.571C70.877 113.769 76.962 76.188 76.962 76.188C76.962 76.188 89.203 73.442 92.408 69.473C95.612 65.501 95.089 46.309 91.804 44.667C89.383 43.456 82.728 44.364 82.728 44.364C82.728 44.364 89.21 11.623 83.938 5.945C80.005 1.711 62.562 0.247003 57.317 4.736C54.354 7.275 51.952 41.945 49.755 42.852C47.555 43.76 37.578 44.401 36.746 40.734C35.913 37.067 41.464 7.032 39.469 5.038C36.595 2.164 29.515 0.789001 22.797 0.789001C16.788 0.789001 11.067 1.889 8.89999 3.998Z" fill="white"/>
</mask>
<g mask="url(#mask3_1_453)">
</g>
<mask id="mask4_1_453" style="mask-type:alpha" maskUnits="userSpaceOnUse" x="0" y="0" width="95" height="122">
<path fill-rule="evenodd" clip-rule="evenodd" d="M8.89999 3.998C4.31099 8.462 -5.23901 64.384 4.37199 70.257C13.983 76.131 38.26 77.035 38.26 77.035C38.26 77.035 35.28 114.157 37.956 116.967C44.007 123.32 66.748 121.372 68.812 117.571C70.877 113.769 76.962 76.188 76.962 76.188C76.962 76.188 89.203 73.442 92.408 69.473C95.612 65.501 95.089 46.309 91.804 44.667C89.383 43.456 82.728 44.364 82.728 44.364C82.728 44.364 89.21 11.623 83.938 5.945C80.005 1.711 62.562 0.247003 57.317 4.736C54.354 7.275 51.952 41.945 49.755 42.852C47.555 43.76 37.578 44.401 36.746 40.734C35.913 37.067 41.464 7.032 39.469 5.038C36.595 2.164 29.515 0.789001 22.797 0.789001C16.788 0.789001 11.067 1.889 8.89999 3.998Z" fill="white"/>
</mask>
<g mask="url(#mask4_1_453)">
</g>
<mask id="mask5_1_453" style="mask-type:alpha" maskUnits="userSpaceOnUse" x="0" y="0" width="95" height="122">
<path fill-rule="evenodd" clip-rule="evenodd" d="M8.89999 3.998C4.31099 8.462 -5.23901 64.384 4.37199 70.257C13.983 76.131 38.26 77.035 38.26 77.035C38.26 77.035 35.28 114.157 37.956 116.967C44.007 123.32 66.748 121.372 68.812 117.571C70.877 113.769 76.962 76.188 76.962 76.188C76.962 76.188 89.203 73.442 92.408 69.473C95.612 65.501 95.089 46.309 91.804 44.667C89.383 43.456 82.728 44.364 82.728 44.364C82.728 44.364 89.21 11.623 83.938 5.945C80.005 1.711 62.562 0.247003 57.317 4.736C54.354 7.275 51.952 41.945 49.755 42.852C47.555 43.76 37.578 44.401 36.746 40.734C35.913 37.067 41.464 7.032 39.469 5.038C36.595 2.164 29.515 0.789001 22.797 0.789001C16.788 0.789001 11.067 1.889 8.89999 3.998Z" fill="white"/>
</mask>
<g mask="url(#mask5_1_453)">
</g>
<mask id="mask6_1_453" style="mask-type:alpha" maskUnits="userSpaceOnUse" x="0" y="0" width="95" height="122">
<path fill-rule="evenodd" clip-rule="evenodd" d="M8.89999 3.998C4.31099 8.462 -5.23901 64.384 4.37199 70.257C13.983 76.131 38.26 77.035 38.26 77.035C38.26 77.035 35.28 114.157 37.956 116.967C44.007 123.32 66.748 121.372 68.812 117.571C70.877 113.769 76.962 76.188 76.962 76.188C76.962 76.188 89.203 73.442 92.408 69.473C95.612 65.501 95.089 46.309 91.804 44.667C89.383 43.456 82.728 44.364 82.728 44.364C82.728 44.364 89.21 11.623 83.938 5.945C80.005 1.711 62.562 0.247003 57.317 4.736C54.354 7.275 51.952 41.945 49.755 42.852C47.555 43.76 37.578 44.401 36.746 40.734C35.913 37.067 41.464 7.032 39.469 5.038C36.595 2.164 29.515 0.789001 22.797 0.789001C16.788 0.789001 11.067 1.889 8.89999 3.998Z" fill="white"/>
</mask>
<g mask="url(#mask6_1_453)">
</g>
<mask id="mask7_1_453" style="mask-type:alpha" maskUnits="userSpaceOnUse" x="0" y="0" width="95" height="122">
<path fill-rule="evenodd" clip-rule="evenodd" d="M8.89999 3.998C4.31099 8.462 -5.23901 64.384 4.37199 70.257C13.983 76.131 38.26 77.035 38.26 77.035C38.26 77.035 35.28 114.157 37.956 116.967C44.007 123.32 66.748 121.372 68.812 117.571C70.877 113.769 76.962 76.188 76.962 76.188C76.962 76.188 89.203 73.442 92.408 69.473C95.612 65.501 95.089 46.309 91.804 44.667C89.383 43.456 82.728 44.364 82.728 44.364C82.728 44.364 89.21 11.623 83.938 5.945C80.005 1.711 62.562 0.247003 57.317 4.736C54.354 7.275 51.952 41.945 49.755 42.852C47.555 43.76 37.578 44.401 36.746 40.734C35.913 37.067 41.464 7.032 39.469 5.038C36.595 2.164 29.515 0.789001 22.797 0.789001C16.788 0.789001 11.067 1.889 8.89999 3.998Z" fill="white"/>
</mask>
<g mask="url(#mask7_1_453)">
</g>
<mask id="mask8_1_453" style="mask-type:alpha" maskUnits="userSpaceOnUse" x="0" y="0" width="95" height="122">
<path fill-rule="evenodd" clip-rule="evenodd" d="M8.89999 3.998C4.31099 8.462 -5.23901 64.384 4.37199 70.257C13.983 76.131 38.26 77.035 38.26 77.035C38.26 77.035 35.28 114.157 37.956 116.967C44.007 123.32 66.748 121.372 68.812 117.571C70.877 113.769 76.962 76.188 76.962 76.188C76.962 76.188 89.203 73.442 92.408 69.473C95.612 65.501 95.089 46.309 91.804 44.667C89.383 43.456 82.728 44.364 82.728 44.364C82.728 44.364 89.21 11.623 83.938 5.945C80.005 1.711 62.562 0.247003 57.317 4.736C54.354 7.275 51.952 41.945 49.755 42.852C47.555 43.76 37.578 44.401 36.746 40.734C35.913 37.067 41.464 7.032 39.469 5.038C36.595 2.164 29.515 0.789001 22.797 0.789001C16.788 0.789001 11.067 1.889 8.89999 3.998Z" fill="white"/>
</mask>
<g mask="url(#mask8_1_453)">
</g>
<mask id="mask9_1_453" style="mask-type:alpha" maskUnits="userSpaceOnUse" x="0" y="0" width="95" height="122">
<path fill-rule="evenodd" clip-rule="evenodd" d="M8.89999 3.998C4.31099 8.462 -5.23901 64.384 4.37199 70.257C13.983 76.131 38.26 77.035 38.26 77.035C38.26 77.035 35.28 114.157 37.956 116.967C44.007 123.32 66.748 121.372 68.812 117.571C70.877 113.769 76.962 76.188 76.962 76.188C76.962 76.188 89.203 73.442 92.408 69.473C95.612 65.501 95.089 46.309 91.804 44.667C89.383 43.456 82.728 44.364 82.728 44.364C82.728 44.364 89.21 11.623 83.938 5.945C80.005 1.711 62.562 0.247003 57.317 4.736C54.354 7.275 51.952 41.945 49.755 42.852C47.555 43.76 37.578 44.401 36.746 40.734C35.913 37.067 41.464 7.032 39.469 5.038C36.595 2.164 29.515 0.789001 22.797 0.789001C16.788 0.789001 11.067 1.889 8.89999 3.998Z" fill="white"/>
</mask>
<g mask="url(#mask9_1_453)">
</g>
<mask id="mask10_1_453" style="mask-type:alpha" maskUnits="userSpaceOnUse" x="0" y="0" width="95" height="122">
<path fill-rule="evenodd" clip-rule="evenodd" d="M8.89999 3.998C4.31099 8.462 -5.23901 64.384 4.37199 70.257C13.983 76.131 38.26 77.035 38.26 77.035C38.26 77.035 35.28 114.157 37.956 116.967C44.007 123.32 66.748 121.372 68.812 117.571C70.877 113.769 76.962 76.188 76.962 76.188C76.962 76.188 89.203 73.442 92.408 69.473C95.612 65.501 95.089 46.309 91.804 44.667C89.383 43.456 82.728 44.364 82.728 44.364C82.728 44.364 89.21 11.623 83.938 5.945C80.005 1.711 62.562 0.247003 57.317 4.736C54.354 7.275 51.952 41.945 49.755 42.852C47.555 43.76 37.578 44.401 36.746 40.734C35.913 37.067 41.464 7.032 39.469 5.038C36.595 2.164 29.515 0.789001 22.797 0.789001C16.788 0.789001 11.067 1.889 8.89999 3.998Z" fill="white"/>
</mask>
<g mask="url(#mask10_1_453)">
</g>
<mask id="mask11_1_453" style="mask-type:alpha" maskUnits="userSpaceOnUse" x="0" y="0" width="95" height="122">
<path fill-rule="evenodd" clip-rule="evenodd" d="M8.89999 3.998C4.31099 8.462 -5.23901 64.384 4.37199 70.257C13.983 76.131 38.26 77.035 38.26 77.035C38.26 77.035 35.28 114.157 37.956 116.967C44.007 123.32 66.748 121.372 68.812 117.571C70.877 113.769 76.962 76.188 76.962 76.188C76.962 76.188 89.203 73.442 92.408 69.473C95.612 65.501 95.089 46.309 91.804 44.667C89.383 43.456 82.728 44.364 82.728 44.364C82.728 44.364 89.21 11.623 83.938 5.945C80.005 1.711 62.562 0.247003 57.317 4.736C54.354 7.275 51.952 41.945 49.755 42.852C47.555 43.76 37.578 44.401 36.746 40.734C35.913 37.067 41.464 7.032 39.469 5.038C36.595 2.164 29.515 0.789001 22.797 0.789001C16.788 0.789001 11.067 1.889 8.89999 3.998Z" fill="white"/>
</mask>
<g mask="url(#mask11_1_453)">
</g>
<mask id="mask12_1_453" style="mask-type:alpha" maskUnits="userSpaceOnUse" x="0" y="0" width="95" height="122">
<path fill-rule="evenodd" clip-rule="evenodd" d="M8.89999 3.998C4.31099 8.462 -5.23901 64.384 4.37199 70.257C13.983 76.131 38.26 77.035 38.26 77.035C38.26 77.035 35.28 114.157 37.956 116.967C44.007 123.32 66.748 121.372 68.812 117.571C70.877 113.769 76.962 76.188 76.962 76.188C76.962 76.188 89.203 73.442 92.408 69.473C95.612 65.501 95.089 46.309 91.804 44.667C89.383 43.456 82.728 44.364 82.728 44.364C82.728 44.364 89.21 11.623 83.938 5.945C80.005 1.711 62.562 0.247003 57.317 4.736C54.354 7.275 51.952 41.945 49.755 42.852C47.555 43.76 37.578 44.401 36.746 40.734C35.913 37.067 41.464 7.032 39.469 5.038C36.595 2.164 29.515 0.789001 22.797 0.789001C16.788 0.789001 11.067 1.889 8.89999 3.998Z" fill="white"/>
</mask>
<g mask="url(#mask12_1_453)">
</g>
<mask id="mask13_1_453" style="mask-type:alpha" maskUnits="userSpaceOnUse" x="0" y="0" width="95" height="122">
<path fill-rule="evenodd" clip-rule="evenodd" d="M8.89999 3.998C4.31099 8.462 -5.23901 64.384 4.37199 70.257C13.983 76.131 38.26 77.035 38.26 77.035C38.26 77.035 35.28 114.157 37.956 116.967C44.007 123.32 66.748 121.372 68.812 117.571C70.877 113.769 76.962 76.188 76.962 76.188C76.962 76.188 89.203 73.442 92.408 69.473C95.612 65.501 95.089 46.309 91.804 44.667C89.383 43.456 82.728 44.364 82.728 44.364C82.728 44.364 89.21 11.623 83.938 5.945C80.005 1.711 62.562 0.247003 57.317 4.736C54.354 7.275 51.952 41.945 49.755 42.852C47.555 43.76 37.578 44.401 36.746 40.734C35.913 37.067 41.464 7.032 39.469 5.038C36.595 2.164 29.515 0.789001 22.797 0.789001C16.788 0.789001 11.067 1.889 8.89999 3.998Z" fill="white"/>
</mask>
<g mask="url(#mask13_1_453)">
</g>
<mask id="mask14_1_453" style="mask-type:alpha" maskUnits="userSpaceOnUse" x="0" y="0" width="95" height="122">
<path fill-rule="evenodd" clip-rule="evenodd" d="M8.89999 3.998C4.31099 8.462 -5.23901 64.384 4.37199 70.257C13.983 76.131 38.26 77.035 38.26 77.035C38.26 77.035 35.28 114.157 37.956 116.967C44.007 123.32 66.748 121.372 68.812 117.571C70.877 113.769 76.962 76.188 76.962 76.188C76.962 76.188 89.203 73.442 92.408 69.473C95.612 65.501 95.089 46.309 91.804 44.667C89.383 43.456 82.728 44.364 82.728 44.364C82.728 44.364 89.21 11.623 83.938 5.945C80.005 1.711 62.562 0.247003 57.317 4.736C54.354 7.275 51.952 41.945 49.755 42.852C47.555 43.76 37.578 44.401 36.746 40.734C35.913 37.067 41.464 7.032 39.469 5.038C36.595 2.164 29.515 0.789001 22.797 0.789001C16.788 0.789001 11.067 1.889 8.89999 3.998Z" fill="white"/>
</mask>
<g mask="url(#mask14_1_453)">
</g>
<mask id="mask15_1_453" style="mask-type:alpha" maskUnits="userSpaceOnUse" x="0" y="0" width="95" height="122">
<path fill-rule="evenodd" clip-rule="evenodd" d="M8.89999 3.998C4.31099 8.462 -5.23901 64.384 4.37199 70.257C13.983 76.131 38.26 77.035 38.26 77.035C38.26 77.035 35.28 114.157 37.956 116.967C44.007 123.32 66.748 121.372 68.812 117.571C70.877 113.769 76.962 76.188 76.962 76.188C76.962 76.188 89.203 73.442 92.408 69.473C95.612 65.501 95.089 46.309 91.804 44.667C89.383 43.456 82.728 44.364 82.728 44.364C82.728 44.364 89.21 11.623 83.938 5.945C80.005 1.711 62.562 0.247003 57.317 4.736C54.354 7.275 51.952 41.945 49.755 42.852C47.555 43.76 37.578 44.401 36.746 40.734C35.913 37.067 41.464 7.032 39.469 5.038C36.595 2.164 29.515 0.789001 22.797 0.789001C16.788 0.789001 11.067 1.889 8.89999 3.998Z" fill="white"/>
</mask>
<g mask="url(#mask15_1_453)">
</g>
<mask id="mask16_1_453" style="mask-type:alpha" maskUnits="userSpaceOnUse" x="0" y="0" width="95" height="122">
<path fill-rule="evenodd" clip-rule="evenodd" d="M8.89999 3.998C4.31099 8.462 -5.23901 64.384 4.37199 70.257C13.983 76.131 38.26 77.035 38.26 77.035C38.26 77.035 35.28 114.157 37.956 116.967C44.007 123.32 66.748 121.372 68.812 117.571C70.877 113.769 76.962 76.188 76.962 76.188C76.962 76.188 89.203 73.442 92.408 69.473C95.612 65.501 95.089 46.309 91.804 44.667C89.383 43.456 82.728 44.364 82.728 44.364C82.728 44.364 89.21 11.623 83.938 5.945C80.005 1.711 62.562 0.247003 57.317 4.736C54.354 7.275 51.952 41.945 49.755 42.852C47.555 43.76 37.578 44.401 36.746 40.734C35.913 37.067 41.464 7.032 39.469 5.038C36.595 2.164 29.515 0.789001 22.797 0.789001C16.788 0.789001 11.067 1.889 8.89999 3.998Z" fill="white"/>
</mask>
<g mask="url(#mask16_1_453)">
</g>
<mask id="mask17_1_453" style="mask-type:alpha" maskUnits="userSpaceOnUse" x="0" y="0" width="95" height="122">
<path fill-rule="evenodd" clip-rule="evenodd" d="M8.89999 3.998C4.31099 8.462 -5.23901 64.384 4.37199 70.257C13.983 76.131 38.26 77.035 38.26 77.035C38.26 77.035 35.28 114.157 37.956 116.967C44.007 123.32 66.748 121.372 68.812 117.571C70.877 113.769 76.962 76.188 76.962 76.188C76.962 76.188 89.203 73.442 92.408 69.473C95.612 65.501 95.089 46.309 91.804 44.667C89.383 43.456 82.728 44.364 82.728 44.364C82.728 44.364 89.21 11.623 83.938 5.945C80.005 1.711 62.562 0.247003 57.317 4.736C54.354 7.275 51.952 41.945 49.755 42.852C47.555 43.76 37.578 44.401 36.746 40.734C35.913 37.067 41.464 7.032 39.469 5.038C36.595 2.164 29.515 0.789001 22.797 0.789001C16.788 0.789001 11.067 1.889 8.89999 3.998Z" fill="white"/>
</mask>
<g mask="url(#mask17_1_453)">
<path fill-rule="evenodd" clip-rule="evenodd" d="M19.6482 11.0619C17.9932 3.6499 23.0652 -9.3961 20.7712 10.6549C20.7142 10.6749 20.7462 12.0929 19.6482 11.0619Z" fill="#5677B2"/>
<path fill-rule="evenodd" clip-rule="evenodd" d="M14.6286 13.1307C14.4296 12.7937 6.54562 1.8597 9.62362 1.88665C9.81362 2.2597 17.7146 13.1127 14.6286 13.1307Z" fill="#5677B2"/>
<path fill-rule="evenodd" clip-rule="evenodd" d="M10.6931 17.9373C0.703116 13.7503 -5.92189 4.0913 10.5701 16.4693C11.0311 16.8953 12.0851 17.5003 10.6931 17.9373Z" fill="#5677B2"/>
<path fill-rule="evenodd" clip-rule="evenodd" d="M46.4685 19.5599C41.0245 14.1149 20.4895 14.0529 15.9005 18.5189C11.3115 22.9839 1.7615 78.9059 11.3715 84.7789C20.9835 90.6529 45.2595 91.5579 45.2595 91.5579C45.2595 91.5579 42.2805 128.679 44.9555 131.489C51.0075 137.841 73.7485 135.894 75.8125 132.094C77.8765 128.291 83.9615 90.7089 83.9615 90.7089C83.9615 90.7089 96.2035 87.9639 99.4075 83.9949C102.613 80.0229 102.088 60.8309 98.8045 59.1889C96.3835 57.9779 89.7285 58.8869 89.7285 58.8869C89.7285 58.8869 96.2095 26.1449 90.9385 20.4669C87.0055 16.2319 69.5615 14.7689 64.3175 19.2579C61.3535 21.7959 58.9515 56.4679 56.7545 57.3739C54.5555 58.2819 44.5775 58.9239 43.7455 55.2559C42.9135 51.5889 48.4635 21.5539 46.4685 19.5599Z" fill="#4ECDEA"/>
<path fill-rule="evenodd" clip-rule="evenodd" d="M36.0261 36.8529C35.5191 41.7379 31.1491 45.2859 26.2631 44.7779C21.3821 44.2699 17.8341 39.9019 18.3401 35.0179C18.8461 30.1339 23.2171 26.5859 28.1021 27.0929C32.9831 27.5989 36.5331 31.9699 36.0261 36.8529Z" fill="white"/>
<path fill-rule="evenodd" clip-rule="evenodd" d="M29.988 36.1615C29.763 38.3315 28.246 39.9515 26.597 39.7815C24.948 39.6105 23.798 37.7125 24.022 35.5425C24.247 33.3725 25.764 31.7515 27.416 31.9225C29.06 32.0945 30.215 33.9915 29.988 36.1615Z" fill="#1E120D"/>
<path fill-rule="evenodd" clip-rule="evenodd" d="M34.4372 56.6673C33.9302 61.5513 29.5612 65.1003 24.6752 64.5923C19.7932 64.0843 16.2462 59.7163 16.7522 54.8313C17.2582 49.9483 21.6282 46.3993 26.5142 46.9063C31.3952 47.4123 34.9452 51.7833 34.4372 56.6673Z" fill="white"/>
<path fill-rule="evenodd" clip-rule="evenodd" d="M28.4001 55.9754C28.1751 58.1454 26.6581 59.7654 25.0091 59.5954C23.3601 59.4244 22.2091 57.5274 22.4341 55.3564C22.6581 53.1864 24.1761 51.5654 25.8271 51.7364C27.4721 51.9084 28.6261 53.8054 28.4001 55.9754Z" fill="#1E120D"/>
<path fill-rule="evenodd" clip-rule="evenodd" d="M83.2165 37.7606C82.7095 42.6446 78.3415 46.1936 73.4545 45.6856C68.5725 45.1776 65.0245 40.8096 65.5315 35.9256C66.0385 31.0416 70.4085 27.4926 75.2945 27.9996C80.1755 28.5066 83.7245 32.8766 83.2165 37.7606Z" fill="white"/>
<path fill-rule="evenodd" clip-rule="evenodd" d="M77.1784 37.0687C76.9544 39.2387 75.4384 40.8587 73.7884 40.6887C72.1404 40.5177 70.9884 38.6207 71.2144 36.4497C71.4374 34.2797 72.9554 32.6587 74.6074 32.8297C76.2524 33.0017 77.4064 34.8987 77.1784 37.0687Z" fill="#1E120D"/>
<path fill-rule="evenodd" clip-rule="evenodd" d="M80.7214 57.953C80.2144 62.837 75.8454 66.387 70.9584 65.878C66.0774 65.37 62.5294 61.002 63.0354 56.118C63.5424 51.235 67.9124 47.686 72.7984 48.192C77.6794 48.699 81.2284 53.069 80.7214 57.953Z" fill="white"/>
<path fill-rule="evenodd" clip-rule="evenodd" d="M74.6823 57.2611C74.4583 59.4311 72.9423 61.0521 71.2933 60.8811C69.6443 60.7101 68.4933 58.8131 68.7183 56.6421C68.9423 54.4721 70.4603 52.8521 72.1113 53.0221C73.7563 53.1941 74.9103 55.0921 74.6823 57.2611Z" fill="#1E120D"/>
<path fill-rule="evenodd" clip-rule="evenodd" d="M31.0007 65.0555C28.2627 68.5545 30.0487 79.2555 43.2947 81.6505C57.0697 84.1415 63.3057 79.0115 66.2947 74.5745C67.4337 72.8855 68.1137 69.9265 67.2137 67.8025C66.3757 65.8225 65.0017 64.8995 63.7227 64.8925C60.3547 64.8735 55.8967 66.7285 48.5337 66.5615C39.7817 66.3625 34.4887 60.6025 31.0007 65.0555Z" fill="#6F5CA1"/>
<path fill-rule="evenodd" clip-rule="evenodd" d="M56.2234 79.5247L56.2564 79.6217C52.6604 80.7457 48.3634 80.8917 43.8554 80.0237C42.0284 79.6717 40.4454 79.1787 39.0874 78.5807L39.1194 78.5057C39.1194 78.5057 49.0364 72.9437 56.2234 79.5247Z" fill="#E56C98"/>
<path fill-rule="evenodd" clip-rule="evenodd" d="M63.8288 67.3211C65.9458 68.2211 65.7258 70.4861 64.8418 72.4801C63.2748 76.0001 60.1918 78.3991 56.2568 79.6221L56.2238 79.5251C49.0358 72.9441 39.1198 78.5061 39.1198 78.5061L39.0878 78.5811C31.8028 75.3681 30.9868 69.2251 33.0108 66.7861C36.0668 63.1061 40.9138 68.4321 48.6178 68.7591C58.0678 69.1571 60.7168 66.0111 63.8288 67.3211Z" fill="#1E120D"/>
<path fill-rule="evenodd" clip-rule="evenodd" d="M44.4323 99.3182C58.3993 81.3312 59.4043 112.897 53.1563 104.563C53.5403 96.1182 58.5913 92.7392 67.3273 97.8122C71.1713 99.4122 80.0523 97.5852 75.9303 91.3742C70.5573 93.3392 76.3683 102.091 82.6643 100.399C84.4333 101.018 75.1393 101.891 73.6183 96.9582C72.0773 95.4672 74.2743 87.1612 77.2553 92.2512C78.6193 110.523 52.6203 83.7312 54.5273 105.346C57.0953 104.183 56.8033 99.1252 55.1693 96.2352C52.7073 90.6362 45.9483 98.5212 44.4323 99.3182Z" fill="#FFEF00"/>
<path fill-rule="evenodd" clip-rule="evenodd" d="M26.2312 73.9178C26.2312 78.0948 22.8452 81.4808 18.6692 81.4808C14.4922 81.4808 11.1062 78.0948 11.1062 73.9178C11.1062 69.7408 14.4922 66.3548 18.6692 66.3548C22.8452 66.3548 26.2312 69.7408 26.2312 73.9178Z" fill="#F7B0C3"/>
<path fill-rule="evenodd" clip-rule="evenodd" d="M87.6111 74.6165C87.6111 78.7935 84.2241 82.1795 80.0481 82.1795C75.8721 82.1795 72.4851 78.7935 72.4851 74.6165C72.4851 70.4395 75.8721 67.0535 80.0481 67.0535C84.2241 67.0535 87.6111 70.4395 87.6111 74.6165Z" fill="#F7B0C3"/>
<path fill-rule="evenodd" clip-rule="evenodd" d="M43.9216 107.069C46.4776 108.255 51.6206 109.854 52.1656 114.29C52.1506 116.53 49.7026 120.222 46.8866 117.65C39.6776 105.982 71.4836 107.437 57.7416 127.822C53.6906 132.218 49.7526 125.899 57.6536 123.061C63.8196 120.551 71.3766 128.584 69.0816 135.215C70.5906 128.916 59.7326 116.98 53.5696 127.295C53.4266 128.618 55.4876 129.184 57.3806 127.02C70.9696 107.504 38.1616 108.058 48.2696 117.979C57.2526 116.191 46.4606 108.225 43.9216 107.069Z" fill="#FFEF00"/>
<path fill-rule="evenodd" clip-rule="evenodd" d="M76.7292 128.793C65.6722 130.777 67.5872 114.03 74.7612 120.365C74.1022 123.737 65.5672 119.183 67.6492 114.868C67.8742 111.373 75.3892 110.76 74.4012 106.756C74.0212 106.495 73.1942 105.378 71.8792 106.306C71.2722 112.574 81.3722 106.91 82.7262 103.698C82.1862 106.88 74.5722 113.278 71.2232 107.831C71.0172 107.104 70.8792 105.244 73.0002 105.254C84.1282 108.001 56.1692 116.028 73.8652 120.378C71.0002 116.023 64.0022 127.508 76.7292 128.793Z" fill="#FFEF00"/>
</g>
</svg>
