<svg width="94" height="132" viewBox="0 0 94 132" fill="none" xmlns="http://www.w3.org/2000/svg">
<path fill-rule="evenodd" clip-rule="evenodd" d="M27.071 76.0462H27.061C27.061 76.0462 23.358 75.1202 21.965 78.8232C20.571 82.5362 24.742 89.0172 21.268 91.3362C17.794 93.6462 11.771 87.6232 9.461 92.4902C7.19 97.2532 14.673 109.089 9.815 113.078C6.617 108.975 4.422 104.822 3.2 101.367C-6.373 74.1942 13.184 65.8052 20.19 66.4732C23.682 66.8072 24.914 71.2452 27.071 76.0462Z" fill="#EF3C5A"/>
<path fill-rule="evenodd" clip-rule="evenodd" d="M27.071 76.0462C28.484 79.1672 30.278 82.4412 33.332 84.8272L33.313 84.8462C33.313 84.8462 27.758 90.1722 28.455 94.3432C29.142 98.5142 36.558 104.307 31.69 110.559C26.918 116.695 20.58 109.003 15.751 119.453C13.489 117.421 11.513 115.255 9.81498 113.078C14.673 109.089 7.18998 97.2532 9.46098 92.4902C11.771 87.6232 17.794 93.6462 21.268 91.3362C24.742 89.0172 20.571 82.5362 21.965 78.8232C23.358 75.1202 27.061 76.0462 27.061 76.0462H27.071Z" fill="#83489B"/>
<path fill-rule="evenodd" clip-rule="evenodd" d="M41.6545 102.455C45.1295 110.559 50.6835 110.329 49.3005 117.975C48.1825 124.093 47.6775 128.14 55.5045 130.459C50.7695 131.308 45.8735 131.508 41.0245 130.945C30.4215 129.724 22.0125 125.085 15.7515 119.453C20.5805 109.003 26.9185 116.695 31.6905 110.559C36.5585 104.307 29.1425 98.5144 28.4545 94.3434C27.7585 90.1724 33.3135 84.8464 33.3135 84.8464L33.3325 84.8274C35.0115 86.1354 37.0635 87.1844 39.6505 87.7854C41.2825 88.1684 42.9335 88.3104 44.5475 88.2154C43.6875 89.1024 38.4575 94.9914 41.6545 102.455Z" fill="#4ECDEA"/>
<path fill-rule="evenodd" clip-rule="evenodd" d="M67.8254 112.64C72.3214 116.466 83.3734 107.409 88.0404 108.144C87.1534 109.757 86.1604 111.361 85.0434 112.946C78.7924 121.83 67.7014 128.292 55.5044 130.459C47.6774 128.14 48.1824 124.093 49.3004 117.975C50.6834 110.329 45.1294 110.559 41.6544 102.455C38.4574 94.992 43.6874 89.103 44.5474 88.215C48.4024 88.025 52.0194 86.564 54.5684 84.112L54.6164 84.168C54.4444 84.512 50.5314 92.328 53.9294 95.269C57.4034 98.285 63.6554 95.737 67.1284 98.982C70.6034 102.217 63.1964 108.707 67.8254 112.64Z" fill="#00997E"/>
<path fill-rule="evenodd" clip-rule="evenodd" d="M54.6159 84.1683L54.5689 84.1113C56.3909 82.3743 57.6709 80.1213 58.0909 77.4783C59.0539 76.2083 61.4019 73.6503 63.8939 74.8913C67.1289 76.5143 72.0539 86.4393 80.7969 82.0683C86.8189 79.0633 84.2709 71.8753 87.7449 70.2523C89.6059 69.3843 92.0209 72.9533 92.8039 74.2233C95.0749 84.6843 94.3879 96.6233 88.0409 108.144C83.3729 107.408 72.3209 116.466 67.8249 112.64C63.1969 108.707 70.6029 102.217 67.1289 98.9813C63.6549 95.7363 57.4029 98.2843 53.9289 95.2693C50.5319 92.3283 54.4439 84.5123 54.6159 84.1683Z" fill="#F19800"/>
<path fill-rule="evenodd" clip-rule="evenodd" d="M92.8034 74.223C92.0204 72.953 89.6064 69.384 87.7444 70.252C84.2704 71.875 86.8194 79.063 80.7964 82.069C72.0534 86.44 67.1284 76.514 63.8934 74.891C61.4024 73.651 59.0544 76.208 58.0904 77.478C58.5864 74.433 57.9474 70.864 55.7044 66.931C53.6614 63.352 51.1604 60.785 48.3654 58.914L48.3744 58.905C48.3744 58.905 51.3804 48.72 58.0994 53.12C64.8194 57.52 59.9514 67.704 71.3004 69.098C82.4194 70.462 80.4244 58.484 87.0864 59.086C89.5684 63.524 91.6104 68.659 92.8034 74.223Z" fill="#FFE444"/>
<path fill-rule="evenodd" clip-rule="evenodd" d="M87.0866 59.0858C80.4246 58.4838 82.4196 70.4618 71.2996 69.0978C59.9516 67.7038 64.8186 57.5208 58.0996 53.1208C51.3806 48.7198 48.3746 58.9048 48.3746 58.9048L48.3646 58.9138C39.0296 52.6908 26.4406 54.3138 16.6866 52.2618C4.02059 49.5988 5.51959 21.4228 10.6836 12.5848C15.8566 3.7558 48.6036 -1.4642 64.3516 1.0078C77.7706 3.1078 80.0996 17.9868 73.6196 24.7828C70.6796 27.8658 52.0776 30.6528 45.2056 32.1988C41.9316 32.9338 43.1346 36.1028 43.9746 37.6008C45.5676 40.4738 57.7846 35.2628 74.2876 44.7688C78.6106 47.2598 83.3446 52.3568 87.0866 59.0858Z" fill="#E25289"/>
<path fill-rule="evenodd" clip-rule="evenodd" d="M39.0002 14.5624C39.3322 19.0504 35.9632 22.9584 31.4742 23.2894C26.9882 23.6204 23.0822 20.2524 22.7492 15.7634C22.4172 11.2774 25.7872 7.3694 30.2752 7.0374C34.7602 6.7054 38.6682 10.0754 39.0002 14.5624Z" fill="white"/>
<path fill-rule="evenodd" clip-rule="evenodd" d="M31.362 14.7748C31.51 16.7688 30.404 18.4758 28.889 18.5878C27.373 18.6998 26.029 17.1758 25.881 15.1798C25.732 13.1868 26.84 11.4798 28.357 11.3668C29.869 11.2558 31.216 12.7808 31.362 14.7748Z" fill="#1E120D"/>
<path fill-rule="evenodd" clip-rule="evenodd" d="M64.0652 10.4022C64.3972 14.8902 61.0292 18.7972 56.5392 19.1292C52.0542 19.4592 48.1472 16.0922 47.8142 11.6032C47.4832 7.11719 50.8522 3.20919 55.3402 2.87619C59.8262 2.54519 63.7332 5.91419 64.0652 10.4022Z" fill="white"/>
<path fill-rule="evenodd" clip-rule="evenodd" d="M60.7233 10.6146C60.8723 12.6086 59.7653 14.3156 58.2503 14.4286C56.7353 14.5396 55.3903 13.0146 55.2433 11.0196C55.0953 9.02659 56.2023 7.31959 57.7193 7.20659C59.2303 7.09559 60.5783 8.62159 60.7233 10.6146Z" fill="#1E120D"/>
<path fill-rule="evenodd" clip-rule="evenodd" d="M26.0022 26.3851C26.0022 29.4551 23.5132 31.9441 20.4432 31.9441C17.3722 31.9441 14.8832 29.4551 14.8832 26.3851C14.8832 23.3151 17.3722 20.8261 20.4432 20.8261C23.5132 20.8261 26.0022 23.3151 26.0022 26.3851Z" fill="#F1B4D3"/>
<path fill-rule="evenodd" clip-rule="evenodd" d="M75.7517 13.9754C75.7517 17.0454 73.2627 19.5344 70.1927 19.5344C67.1227 19.5344 64.6327 17.0454 64.6327 13.9754C64.6327 10.9054 67.1227 8.4164 70.1927 8.4164C73.2627 8.4164 75.7517 10.9054 75.7517 13.9754Z" fill="#F1B4D3"/>
<path fill-rule="evenodd" clip-rule="evenodd" d="M54.0837 22.6229C54.0837 22.6229 57.7127 33.4319 57.0947 40.5349C56.4767 47.6389 50.2997 49.3369 45.8227 47.0199C41.3447 44.7049 41.6537 31.8879 38.8737 25.8659C38.8737 25.8659 51.6127 23.7039 54.0837 22.6229Z" fill="#F1B4D3"/>
<path fill-rule="evenodd" clip-rule="evenodd" d="M47.2316 24.1805C46.4856 24.1005 52.7666 34.6645 49.6566 42.3185C50.6666 42.2985 46.7636 38.7245 47.2316 24.1805Z" fill="#DD8CB9"/>
<path fill-rule="evenodd" clip-rule="evenodd" d="M21.9772 23.2123C23.8042 23.6283 22.3012 30.7393 20.2222 27.6933C21.1842 26.6933 20.9822 25.5053 21.0422 23.5863C20.9912 23.5323 21.2392 22.9503 21.9772 23.2123Z" fill="#1E120D"/>
<path fill-rule="evenodd" clip-rule="evenodd" d="M21.675 25.5257C36.868 26.4047 57.319 22.6567 69.292 14.7937C66.886 22.4637 28.322 31.4097 21.675 25.5257Z" fill="#1E120D"/>
<path fill-rule="evenodd" clip-rule="evenodd" d="M68.5603 12.4549C69.0093 13.1809 69.2573 14.4189 70.4563 15.4319C72.1393 16.9969 66.1263 16.8789 67.5563 12.4089C67.5163 12.3129 68.0823 11.9689 68.5603 12.4549Z" fill="#1E120D"/>
<path fill-rule="evenodd" clip-rule="evenodd" d="M74.2033 47.85C73.7253 46.547 73.0363 45.446 71.8243 44.718C70.8343 44.124 69.6403 43.97 68.5163 44.112C67.5663 44.232 66.7503 44.671 66.4773 45.664C66.3093 46.273 66.4733 47.039 66.8803 47.585C66.9873 48.198 67.3683 48.73 67.9133 49.113C68.2343 49.339 68.6233 49.455 68.9873 49.597C69.1203 49.648 69.2513 49.702 69.3833 49.755C69.4253 49.772 69.5243 49.813 69.6163 49.851C70.0373 50.031 70.4573 50.215 70.8703 50.412C71.6193 50.769 72.4163 50.848 73.1613 50.412C73.9833 49.93 74.5493 48.795 74.2033 47.85Z" fill="white" fill-opacity="0.53"/>
<path fill-rule="evenodd" clip-rule="evenodd" d="M80.8752 56.9364C80.5672 54.8774 79.3692 52.8054 77.4462 51.8734C76.3912 51.3624 74.8772 51.7264 74.6042 53.0294C74.3782 54.1094 74.3862 55.2064 75.0172 56.1564C75.6002 57.0344 76.4822 57.8274 77.5302 57.9144C77.7462 58.1154 77.9672 58.3104 78.2022 58.4924C79.5052 59.5074 81.1212 58.5764 80.8752 56.9364Z" fill="white" fill-opacity="0.53"/>
<path opacity="0.530924" fill-rule="evenodd" clip-rule="evenodd" d="M84.2229 65.1971C82.7279 63.4821 80.2349 64.9771 80.0989 66.9051C79.7729 71.5201 80.9299 75.8911 82.0379 80.3341C82.3459 81.5681 82.5189 82.8311 82.6359 84.1101C82.6339 84.1481 82.6329 84.1881 82.6309 84.2251C82.3899 89.3441 81.4939 94.4611 83.6119 99.3021C84.2019 100.651 86.4879 100.922 87.4029 99.7901C94.5129 90.9991 91.2219 73.2301 84.2229 65.1971Z" fill="white"/>
</svg>
