<svg width="92" height="150" viewBox="0 0 92 150" fill="none" xmlns="http://www.w3.org/2000/svg">
<path fill-rule="evenodd" clip-rule="evenodd" d="M15.5109 11.158C9.85091 12.685 6.50091 18.517 8.02791 24.177C9.34491 29.064 13.8789 32.232 18.7369 32.022L18.7459 32.223C18.7459 32.223 18.8999 36.976 19.6629 39.601C22.2059 39.409 22.8749 38.102 24.3539 37.024C23.5909 35.802 22.8219 31.516 22.7649 31.039C27.3559 28.892 29.8849 23.709 28.5199 18.651C26.9929 12.991 21.1709 9.63999 15.5109 11.158Z" fill="#753F8E"/>
<path fill-rule="evenodd" clip-rule="evenodd" d="M63.882 8.45688C62.355 2.79688 56.533 -0.553114 50.873 0.974886C45.213 2.49188 41.863 8.32388 43.39 13.9829C44.287 17.3429 46.712 19.8909 49.718 21.0839C49.604 21.6669 49.089 24.3769 49.432 26.4869C51.078 27.1809 53.047 26.8829 54.185 26.1909C53.727 24.7209 53.784 21.8949 53.784 21.8949V21.8379C54.643 21.8189 55.521 21.6949 56.39 21.4659C62.059 19.9389 65.409 14.1169 63.882 8.45688Z" fill="#753F8E"/>
<path fill-rule="evenodd" clip-rule="evenodd" d="M54.6237 115.241C62.4597 114.973 68.6257 109.094 68.3867 102.108C68.1577 95.1206 61.6107 89.6716 53.7647 89.9386C45.9287 90.2056 39.7637 96.0756 40.0017 103.062C40.2407 110.057 46.7787 115.509 54.6237 115.241ZM54.1847 26.1906C58.6897 26.0856 62.3267 26.5526 64.4547 27.1066C77.3967 30.4476 80.4037 45.6806 74.6387 51.0536C68.7977 56.5046 60.5507 55.5586 49.6227 60.3216C37.5777 65.5716 34.7147 73.0446 36.6517 75.7646C38.5987 78.4756 41.1567 72.3576 52.7917 70.2096C65.0657 67.9386 79.0957 71.6136 86.6447 84.8126C96.1717 101.478 94.2427 135.828 59.3957 146.89C24.5587 157.962 -7.75828 125.072 1.95772 74.3896C5.11772 57.9266 11.7697 46.8926 19.6627 39.6006C21.0657 38.2936 22.5167 37.0996 23.9957 36.0216C32.4137 29.8846 41.7007 27.3066 49.4317 26.4866C51.1027 26.3146 52.6867 26.2196 54.1847 26.1906Z" fill="#83489B"/>
<path fill-rule="evenodd" clip-rule="evenodd" d="M62.4714 11.7977C62.2174 16.8037 57.9524 20.6567 52.9444 20.3997C47.9404 20.1447 44.0884 15.8807 44.3434 10.8737C44.5984 5.8687 48.8644 2.0167 53.8714 2.2717C58.8744 2.5257 62.7264 6.7917 62.4714 11.7977Z" fill="white"/>
<path fill-rule="evenodd" clip-rule="evenodd" d="M56.279 11.4159C56.167 13.6399 54.706 15.3739 53.017 15.2879C51.326 15.2019 50.051 13.3299 50.165 11.1039C50.277 8.88091 51.737 7.14592 53.43 7.23192C55.116 7.31892 56.394 9.19192 56.279 11.4159Z" fill="#1E120D"/>
<path fill-rule="evenodd" clip-rule="evenodd" d="M27.0358 19.0492C28.3408 23.8892 25.4758 28.8712 20.6328 30.1742C15.7948 31.4772 10.8138 28.6122 9.50984 23.7722C8.20484 18.9322 11.0718 13.9512 15.9118 12.6462C20.7498 11.3422 25.7318 14.2092 27.0358 19.0492Z" fill="white"/>
<path fill-rule="evenodd" clip-rule="evenodd" d="M21.028 20.599C21.609 22.749 20.755 24.849 19.122 25.29C17.488 25.731 15.696 24.344 15.117 22.192C14.536 20.043 15.39 17.942 17.026 17.501C18.656 17.062 20.45 18.449 21.028 20.599Z" fill="#1E120D"/>
<path fill-rule="evenodd" clip-rule="evenodd" d="M42.0632 36.7523C34.2212 39.0493 25.3052 35.1833 24.1802 41.5863C22.8512 49.1493 35.3602 56.0943 46.6062 52.9373C62.7912 48.3943 63.1512 32.8213 58.5212 30.6853C52.8902 28.0873 48.6992 34.8083 42.0632 36.7523Z" fill="#CC66CC"/>
<path fill-rule="evenodd" clip-rule="evenodd" d="M53.4455 46.4222L53.5465 46.5572C51.6275 48.0482 49.1645 49.3302 46.0705 50.2012C44.0845 50.7642 42.0335 51.0232 40.0665 51.0312L40.0635 50.8682C40.0635 50.8682 44.6225 42.8372 53.4455 46.4222Z" fill="#E18479"/>
<path fill-rule="evenodd" clip-rule="evenodd" d="M39.7111 39.6546C39.7111 39.6546 39.4411 44.5196 36.6311 44.6916C33.8111 44.8706 33.3541 40.2766 33.3541 40.2766L33.3571 39.9596C35.1891 39.9666 37.3451 39.9866 39.7131 39.6346L39.7111 39.6546Z" fill="white"/>
<path fill-rule="evenodd" clip-rule="evenodd" d="M33.3537 40.2762C33.3537 40.2762 33.8107 44.8712 36.6307 44.6912C39.4407 44.5202 39.7107 39.6542 39.7107 39.6542L39.7127 39.6352C40.7457 39.4912 41.8147 39.2662 42.9227 38.9392C50.2457 36.7762 52.4517 30.5362 57.1877 32.7222C60.1917 34.1062 60.0447 41.4982 53.5467 46.5572L53.4457 46.4222C44.6227 42.8372 40.0637 50.8682 40.0637 50.8682L40.0657 51.0312C32.6817 51.0872 26.2887 47.5702 27.1887 42.5582C27.6467 39.9662 29.9427 39.9432 33.3567 39.9602L33.3537 40.2762Z" fill="#1E120D"/>
<path fill-rule="evenodd" clip-rule="evenodd" d="M13.826 59.2508C13.916 58.6998 12.121 55.9038 10.55 58.3888C7.60898 60.9728 13.292 66.3628 13.826 59.2508Z" fill="#63377C"/>
<path fill-rule="evenodd" clip-rule="evenodd" d="M16.3401 60.0008C15.8701 59.3718 14.8791 59.5578 14.8391 60.4068C14.8081 61.0688 14.4651 61.9518 14.0921 62.3548C13.3331 63.1768 13.4461 64.5098 14.4451 65.0958C15.4871 65.7058 16.6181 65.0918 17.0081 64.0528C17.5471 62.6248 17.2281 61.1898 16.3401 60.0008Z" fill="#63377C"/>
<path fill-rule="evenodd" clip-rule="evenodd" d="M16.9744 55.6532C16.9264 55.5372 16.8434 55.4422 16.7634 55.3452C16.7604 55.3382 16.7594 55.3372 16.7554 55.3282C16.2974 54.2392 14.9924 54.2392 14.5334 55.3282C14.5304 55.3372 14.5294 55.3382 14.5264 55.3452C14.4454 55.4422 14.3634 55.5372 14.3154 55.6532C14.0954 56.1092 14.0694 56.5002 14.1994 56.9872C14.5814 58.4202 16.7084 58.4202 17.0894 56.9872C17.2204 56.5002 17.1934 56.1092 16.9744 55.6532Z" fill="#63377C"/>
<path fill-rule="evenodd" clip-rule="evenodd" d="M79.1141 82.4691C78.8831 80.9121 76.9551 80.3561 75.6531 80.7631C74.9471 80.9851 74.438 81.6041 74.438 82.3601C74.438 83.1261 74.927 83.6461 75.59 83.9241C75.593 83.9261 75.5951 83.9291 75.5971 83.9311C75.4401 83.8611 75.4261 83.8601 75.5711 83.9351C75.5981 83.9491 75.6281 83.9721 75.6571 83.9921C75.7581 84.0971 75.8521 84.2091 75.9601 84.3051C76.5951 84.8741 77.484 85.0471 78.246 84.6011C79.043 84.1331 79.2401 83.3211 79.1141 82.4691Z" fill="#63377C"/>
<path fill-rule="evenodd" clip-rule="evenodd" d="M75.6252 85.7523C72.5082 83.2453 70.6322 91.7563 76.5912 88.7733C76.8362 88.0853 77.0722 87.4443 75.6252 85.7523Z" fill="#63377C"/>
<path fill-rule="evenodd" clip-rule="evenodd" d="M72.3801 81.1947C72.0251 81.0847 70.6011 80.1697 69.5861 81.6427C67.8301 83.1777 74.3901 86.8167 72.3801 81.1947Z" fill="#63377C"/>
<path fill-rule="evenodd" clip-rule="evenodd" d="M69.8762 83.6195C69.8682 83.6115 69.8632 83.5995 69.8552 83.5925C69.7802 83.4955 69.7892 83.5065 69.8762 83.6195Z" fill="#63377C"/>
<path fill-rule="evenodd" clip-rule="evenodd" d="M69.9563 83.724C69.9183 83.676 69.9003 83.652 69.8763 83.62C69.8853 83.63 69.8913 83.642 69.9003 83.653C69.9183 83.677 69.9373 83.701 69.9563 83.724Z" fill="#63377C"/>
<path fill-rule="evenodd" clip-rule="evenodd" d="M26.0755 95.4779C23.8925 93.7389 19.1065 102.958 24.8635 102.644C25.9015 100.993 28.1785 99.3939 26.0755 95.4779Z" fill="#63377C"/>
<path fill-rule="evenodd" clip-rule="evenodd" d="M30.1273 101.429C29.5103 100.602 28.5033 100.603 27.8863 101.429C27.7703 101.585 27.6623 101.737 27.5693 101.908C27.4613 102.083 27.4893 102.066 27.6553 101.856C27.5193 102.006 27.3993 102.167 27.2963 102.341C26.8183 103.107 26.8083 104.105 27.2413 104.884C27.7473 105.792 28.8933 106.006 29.7683 105.546C31.3943 104.692 31.0403 102.654 30.1273 101.429Z" fill="#63377C"/>
<path fill-rule="evenodd" clip-rule="evenodd" d="M25.7927 106.582C25.2557 105.401 23.2137 105.401 22.6767 106.582C22.3277 107.35 22.3007 107.919 22.6787 108.684C23.2597 109.86 25.2097 109.86 25.7907 108.684C26.1687 107.919 26.1417 107.35 25.7927 106.582Z" fill="#63377C"/>
<path fill-rule="evenodd" clip-rule="evenodd" d="M79.0554 117.322C78.5704 116.584 77.7244 116.18 76.8444 116.423C76.0194 116.65 75.3885 117.442 75.4085 118.31C75.4115 118.502 75.4094 118.689 75.3974 118.881C75.4404 118.605 75.4435 118.589 75.4085 118.832C75.3845 119.003 75.3654 119.138 75.3514 119.238C75.3264 119.373 75.2914 119.507 75.2504 119.637C75.1554 119.822 75.0814 120.013 75.0464 120.217C74.8214 121.281 75.1804 122.363 76.1514 122.932C77.3764 123.65 78.6614 123.119 79.4414 122.069C80.4444 120.72 79.8884 118.591 79.0554 117.322Z" fill="#63377C"/>
<path fill-rule="evenodd" clip-rule="evenodd" d="M74.9943 125.885C74.8923 125.899 72.8213 123.006 71.1183 126.509C68.9453 128.459 75.5013 133.845 74.9943 125.885Z" fill="#63377C"/>
<path fill-rule="evenodd" clip-rule="evenodd" d="M72.6208 116.949C70.9728 114.345 64.6878 126.307 73.0718 122.126C72.7118 121.545 74.9928 121.093 72.6208 116.949Z" fill="#63377C"/>
<path fill-rule="evenodd" clip-rule="evenodd" d="M11.2907 81.1551C11.8837 76.7221 3.49873 78.7701 9.28073 84.0421C10.1037 83.8811 10.8477 83.6621 11.2907 81.1551Z" fill="#63377C"/>
<path fill-rule="evenodd" clip-rule="evenodd" d="M9.04805 89.3509C8.89505 84.7599 2.17805 87.9559 6.83905 92.8209C7.22405 93.1059 9.97005 92.1789 9.04805 89.3509Z" fill="#63377C"/>
</svg>
