<svg width="84" height="128" viewBox="0 0 84 128" fill="none" xmlns="http://www.w3.org/2000/svg">
<path fill-rule="evenodd" clip-rule="evenodd" d="M80.2536 10.804C71.2976 2.77399 16.0176 -2.16701 9.53162 3.08299C3.04562 8.33299 -5.29338 33.965 7.36862 39.834C20.0306 45.702 41.0306 42.304 42.5746 46.32C44.1196 50.335 27.1346 113.641 31.4576 120.744C36.2086 128.55 62.4956 130.162 66.6646 120.435C70.8336 110.706 91.1276 20.554 80.2536 10.804Z" fill="#F19800"/>
<path fill-rule="evenodd" clip-rule="evenodd" d="M27.6286 15.0545C27.4556 20.0645 23.2566 23.9865 18.2436 23.8135C13.2356 23.6395 9.31563 19.4405 9.48763 14.4295C9.65963 9.42049 13.8606 5.49849 18.8726 5.67049C23.8796 5.84349 27.8016 10.0455 27.6286 15.0545Z" fill="white"/>
<path fill-rule="evenodd" clip-rule="evenodd" d="M21.4304 14.7748C21.3544 17.0018 19.9244 18.7578 18.2324 18.7008C16.5404 18.6418 15.2354 16.7908 15.3124 14.5648C15.3874 12.3388 16.8184 10.5808 18.5124 10.6388C20.2004 10.6988 21.5084 12.5498 21.4304 14.7748Z" fill="#1E120D"/>
<path fill-rule="evenodd" clip-rule="evenodd" d="M52.1618 16.9466C51.7978 21.9466 47.4488 25.7026 42.4478 25.3386C37.4498 24.9726 33.6938 20.6256 34.0578 15.6256C34.4228 10.6266 38.7718 6.8696 43.7728 7.2336C48.7698 7.5986 52.5258 11.9476 52.1618 16.9466Z" fill="white"/>
<path fill-rule="evenodd" clip-rule="evenodd" d="M45.9782 16.4295C45.8172 18.6505 44.3202 20.3515 42.6332 20.2285C40.9442 20.1055 39.7092 18.2055 39.8742 15.9835C40.0352 13.7625 41.5322 12.0615 43.2212 12.1845C44.9072 12.3085 46.1432 14.2085 45.9782 16.4295Z" fill="#1E120D"/>
<path fill-rule="evenodd" clip-rule="evenodd" d="M77.9089 21.0741C77.3109 26.0521 72.7929 29.6011 67.8129 29.0041C62.8389 28.4061 59.2889 23.8891 59.8859 18.9101C60.4829 13.9341 65.0019 10.3841 69.9799 10.9811C74.9549 11.5771 78.5049 16.0971 77.9089 21.0741Z" fill="white"/>
<path fill-rule="evenodd" clip-rule="evenodd" d="M71.7556 20.2684C71.4906 22.4804 69.9166 24.1094 68.2366 23.9084C66.5556 23.7064 65.4106 21.7504 65.6786 19.5394C65.9416 17.3284 67.5176 15.6984 69.1996 15.8994C70.8756 16.1024 72.0236 18.0584 71.7556 20.2684Z" fill="#1E120D"/>
<path fill-rule="evenodd" clip-rule="evenodd" d="M22.5407 26.516C21.5157 28.077 22.4247 36.591 41.6487 38.097C60.8397 39.6 62.9707 33.031 61.8007 30.106C60.1797 26.053 51.1457 29.99 41.3027 28.716C30.6597 27.339 25.2037 22.462 22.5407 26.516Z" fill="#D73D76"/>
<path fill-rule="evenodd" clip-rule="evenodd" d="M27.0564 28.9969C35.4064 34.2019 49.6704 32.9279 58.6544 31.9209C54.1954 34.7699 32.0874 36.5909 27.0564 28.9969Z" fill="#1E120D"/>
<path fill-rule="evenodd" clip-rule="evenodd" d="M46.0711 53.8465C44.6131 54.4085 42.6021 59.9585 45.9841 56.1725C45.9101 55.8665 47.7791 53.8005 46.0711 53.8465Z" fill="#F9B24B"/>
<path fill-rule="evenodd" clip-rule="evenodd" d="M51.9743 55.8109C50.2573 57.3519 50.7213 65.8319 52.7813 59.3639C52.4953 58.8809 54.0283 55.1399 51.9743 55.8109Z" fill="#F9B24B"/>
<path fill-rule="evenodd" clip-rule="evenodd" d="M60.1736 55.4515C58.4206 52.6055 57.7176 60.7265 59.8996 61.1285C61.2666 59.8805 60.1086 57.9145 60.1736 55.4515Z" fill="#F9B24B"/>
<path fill-rule="evenodd" clip-rule="evenodd" d="M70.3366 56.1805C70.4266 54.7145 67.3776 49.6855 68.3746 54.9795C68.7746 59.2945 73.0556 61.6385 70.3366 56.1805Z" fill="#F9B24B"/>
<path fill-rule="evenodd" clip-rule="evenodd" d="M75.9255 52.1127C74.6105 51.2467 75.2535 47.7987 73.5295 46.8477C71.4315 47.4847 74.4365 54.9187 75.9255 52.1127Z" fill="#F9B24B"/>
<path fill-rule="evenodd" clip-rule="evenodd" d="M62.8249 50.0433C61.5799 48.3373 61.1389 53.4813 62.6709 54.3213C63.8889 53.5003 63.0839 52.1803 62.8249 50.0433Z" fill="#F9B24B"/>
<path fill-rule="evenodd" clip-rule="evenodd" d="M67.4011 48.4706C66.9731 45.4896 63.5501 43.9936 65.8971 49.3506C66.3291 49.9286 67.5471 49.7816 67.4011 48.4706Z" fill="#F9B24B"/>
<path fill-rule="evenodd" clip-rule="evenodd" d="M52.196 49.3915C51.938 49.8555 51.707 50.2465 50.954 51.8035C51.268 54.3275 55.332 48.4665 52.196 49.3915Z" fill="#F9B24B"/>
<path fill-rule="evenodd" clip-rule="evenodd" d="M9.87375 29.8734C10.0507 29.7544 9.56175 29.9764 9.56475 29.9744C5.87375 31.1944 7.22975 37.1164 10.6217 30.4954C10.6497 30.1894 10.6117 29.9704 9.87375 29.8734Z" fill="#F9B24B"/>
<path fill-rule="evenodd" clip-rule="evenodd" d="M12.4979 34.2718C12.3819 34.5048 9.64288 37.5468 11.4059 37.5038C11.2499 36.9928 13.5809 34.8538 12.4979 34.2718Z" fill="#F9B24B"/>
<path fill-rule="evenodd" clip-rule="evenodd" d="M76.826 41.3104C76.31 40.6834 76.054 34.4794 74.069 36.3614C74.107 37.3064 75.005 43.4414 76.826 41.3104Z" fill="#F9B24B"/>
<path fill-rule="evenodd" clip-rule="evenodd" d="M45.9773 65.702C45.2113 66.143 42.2063 74.577 45.6163 70.401C45.7583 69.291 48.1053 65.571 45.9773 65.702Z" fill="#F9B24B"/>
<path fill-rule="evenodd" clip-rule="evenodd" d="M52.1482 68.7709C51.0002 70.0559 49.5762 77.3349 52.7212 71.6129C53.0212 70.6219 54.3832 67.8989 52.1482 68.7709Z" fill="#F9B24B"/>
<path fill-rule="evenodd" clip-rule="evenodd" d="M62.0516 67.1195C61.0756 66.3325 60.7666 71.5775 61.5956 73.4975C63.4876 72.8925 62.3566 69.1165 62.0516 67.1195Z" fill="#F9B24B"/>
<path fill-rule="evenodd" clip-rule="evenodd" d="M70.8445 69.8749C71.4345 67.3289 68.7745 63.2079 68.9685 69.8939C68.9765 73.4309 72.4625 74.6459 70.8445 69.8749Z" fill="#F9B24B"/>
<path fill-rule="evenodd" clip-rule="evenodd" d="M40.9831 77.9798C40.9191 79.2068 36.4441 81.8438 38.2641 83.5428C39.8581 84.2508 44.3381 76.6058 40.9831 77.9798Z" fill="#F9B24B"/>
<path fill-rule="evenodd" clip-rule="evenodd" d="M48.0632 81.6136C47.3012 82.3466 46.3872 90.1216 49.0532 86.0026C49.0052 85.1976 51.0922 79.5576 48.0632 81.6136Z" fill="#F9B24B"/>
<path fill-rule="evenodd" clip-rule="evenodd" d="M58.9021 80.5853C56.2111 76.8763 57.4871 91.2863 59.7781 87.9023C59.7281 86.1693 59.1551 83.3883 58.9021 80.5853Z" fill="#F9B24B"/>
<path fill-rule="evenodd" clip-rule="evenodd" d="M65.5788 84.8119C65.5658 78.7619 62.8098 80.4479 63.8638 86.0629C64.7638 89.8119 67.1998 88.2909 65.5788 84.8119Z" fill="#F9B24B"/>
<path fill-rule="evenodd" clip-rule="evenodd" d="M74.2165 81.5472C73.4635 77.4522 70.3575 76.6412 72.1635 82.2002C72.6885 84.5402 76.9475 85.0612 74.2165 81.5472Z" fill="#F9B24B"/>
<path fill-rule="evenodd" clip-rule="evenodd" d="M39.4607 71.3382C39.1307 72.9792 32.2047 78.0672 35.2747 79.2362C36.3617 78.7802 43.1497 70.4762 39.4607 71.3382Z" fill="#F9B24B"/>
<path fill-rule="evenodd" clip-rule="evenodd" d="M41.4636 62.8016C40.4206 62.3996 35.9376 66.4796 39.2736 66.4576C39.4046 65.8426 43.5976 63.7456 41.4636 62.8016Z" fill="#F9B24B"/>
<path fill-rule="evenodd" clip-rule="evenodd" d="M34.949 93.5941C33.078 93.1521 28.56 100.215 32.483 99.1381C32.428 97.9641 36.658 94.9851 34.949 93.5941Z" fill="#F9B24B"/>
<path fill-rule="evenodd" clip-rule="evenodd" d="M40.0827 93.6732C39.2497 94.3602 36.6277 99.6372 39.5607 99.1942C39.5517 98.5392 43.0217 93.0332 40.0827 93.6732Z" fill="#F9B24B"/>
<path fill-rule="evenodd" clip-rule="evenodd" d="M41.8435 86.224C41.2735 86.368 39.0915 89.112 41.1725 89.503C41.9045 89.334 44.3305 86.162 41.8435 86.224Z" fill="#F9B24B"/>
<path fill-rule="evenodd" clip-rule="evenodd" d="M48.4246 97.5336C48.4836 98.4816 46.9026 104.839 49.4966 103.964C49.6326 102.926 51.3286 95.3756 48.4246 97.5336Z" fill="#F9B24B"/>
<path fill-rule="evenodd" clip-rule="evenodd" d="M59.738 93.6927C56.159 90.0227 58.596 103.74 60.207 96.7207C60.2 95.6867 60.063 95.0347 59.738 93.6927Z" fill="#F9B24B"/>
<path fill-rule="evenodd" clip-rule="evenodd" d="M67.1589 98.7455C67.6159 97.0295 64.5589 92.0495 64.8719 98.2015C64.8609 100.491 67.5539 102.573 67.1589 98.7455Z" fill="#F9B24B"/>
<path fill-rule="evenodd" clip-rule="evenodd" d="M74.3103 93.9564C73.2033 89.8354 69.5033 91.2604 73.4413 95.8574C74.5553 96.3524 75.3213 95.3394 74.3103 93.9564Z" fill="#F9B24B"/>
<path fill-rule="evenodd" clip-rule="evenodd" d="M78.1717 71.5082C77.3557 68.1272 73.8057 66.7772 76.4257 72.7742C77.3717 75.0302 80.6067 74.2182 78.1717 71.5082Z" fill="#F9B24B"/>
<path fill-rule="evenodd" clip-rule="evenodd" d="M79.3074 59.5907C76.8384 55.3607 75.1904 58.9877 79.3184 62.1227C80.2364 62.0947 80.5454 60.9987 79.3074 59.5907Z" fill="#F9B24B"/>
<path fill-rule="evenodd" clip-rule="evenodd" d="M35.7684 104.498C31.1484 109.256 32.8484 115.375 36.7304 104.904C36.8134 104.554 36.4894 104.134 35.7684 104.498Z" fill="#F9B24B"/>
<path fill-rule="evenodd" clip-rule="evenodd" d="M43.4129 108.264C40.8239 104.501 40.3839 118.243 43.2659 111.383C43.4399 110.364 43.4429 109.685 43.4129 108.264Z" fill="#F9B24B"/>
<path fill-rule="evenodd" clip-rule="evenodd" d="M52.8845 107.42C50.3515 104.432 51.1885 116.307 53.3895 111.521C53.5555 110.324 53.3375 109.061 52.8845 107.42Z" fill="#F9B24B"/>
<path fill-rule="evenodd" clip-rule="evenodd" d="M62.1277 110.228C62.1327 106.221 58.3067 104.9 60.8157 112.398C61.5857 113.024 62.5357 112.199 62.1277 110.228Z" fill="#F9B24B"/>
<path fill-rule="evenodd" clip-rule="evenodd" d="M32.7419 116.206C32.3879 117.333 29.3879 119.224 29.7549 121.428C31.5729 122.078 33.5099 118.434 32.7419 116.206Z" fill="#F9B24B"/>
<path fill-rule="evenodd" clip-rule="evenodd" d="M38.4608 119.545C38.3528 120.34 34.5648 126.811 38.2088 124.403C39.0908 123.394 40.9188 118.257 38.4608 119.545Z" fill="#F9B24B"/>
<path fill-rule="evenodd" clip-rule="evenodd" d="M46.4402 120.419C45.9642 121.072 45.8432 126.565 47.8702 123.911C48.2002 123.061 48.7502 118.142 46.4402 120.419Z" fill="#F9B24B"/>
<path fill-rule="evenodd" clip-rule="evenodd" d="M57.1453 123.162C57.3103 120.171 53.4683 116.438 55.4303 124.624C55.7023 126.553 58.1913 126.619 57.1453 123.162Z" fill="#F9B24B"/>
<path fill-rule="evenodd" clip-rule="evenodd" d="M67.1042 121.445C66.7962 120.511 65.0642 113.798 62.8262 116.711C62.8812 117.774 65.7012 124.093 67.1042 121.445Z" fill="#F9B24B"/>
<path fill-rule="evenodd" clip-rule="evenodd" d="M70.1189 110.709C69.6559 110.293 69.8659 108.533 68.6309 107.658C65.3539 107.019 69.0459 114.467 70.1189 110.709Z" fill="#F9B24B"/>
<path fill-rule="evenodd" clip-rule="evenodd" d="M42.7478 46.5848C42.6558 47.7278 39.6568 49.6918 40.3548 51.8448C42.1238 51.9688 42.4688 50.0798 43.4128 47.9888C43.7258 47.4208 44.0868 45.9058 42.7478 46.5848Z" fill="#F9B24B"/>
<path fill-rule="evenodd" clip-rule="evenodd" d="M80.032 47.3138C74.827 44.8548 82.97 58.7738 81.469 50.2098C81.051 49.2288 80.723 48.6088 80.032 47.3138Z" fill="#F9B24B"/>
<path fill-rule="evenodd" clip-rule="evenodd" d="M82.4149 35.4764C82.3789 33.4874 80.1519 31.9054 80.9949 35.9034C81.3249 37.6704 83.7999 37.6624 82.4149 35.4764Z" fill="#F9B24B"/>
<path fill-rule="evenodd" clip-rule="evenodd" d="M15.8211 35.3314C15.2961 35.7304 13.8921 40.6784 16.1031 39.3814C15.9001 38.6434 18.7101 34.2474 15.8211 35.3314Z" fill="#F9B24B"/>
</svg>
