<svg width="81" height="131" viewBox="0 0 81 131" fill="none" xmlns="http://www.w3.org/2000/svg">
<path fill-rule="evenodd" clip-rule="evenodd" d="M75.9816 25.3656C86.8246 48.9586 76.8026 91.4316 70.9176 106.545C63.1336 126.529 47.7496 135.639 37.2426 127.622C27.2246 119.976 43.7026 78.2846 38.6566 71.9636C34.8426 67.1866 17.5966 69.7936 5.6106 53.5926C-6.3764 37.3816 1.8696 6.6006 30.4576 0.9746C55.6036 -3.9744 70.0796 12.5226 75.9816 25.3656Z" fill="#EF5493"/>
<path fill-rule="evenodd" clip-rule="evenodd" d="M16.8396 37.6732C17.7456 33.3512 14.9756 29.1102 10.6526 28.2062C6.3296 27.3002 2.0906 30.0712 1.1846 34.3932C0.2776 38.7162 3.0486 42.9552 7.3716 43.8612C11.6946 44.7682 15.9336 41.9962 16.8396 37.6732Z" fill="#EE9DBB"/>
<path fill-rule="evenodd" clip-rule="evenodd" d="M69.7634 41.6917C70.6694 37.3667 67.8994 33.1287 63.5764 32.2207C59.2524 31.3167 55.0144 34.0867 54.1084 38.4087C53.2014 42.7337 55.9724 46.9717 60.2954 47.8777C64.6184 48.7837 68.8584 46.0127 69.7634 41.6917Z" fill="#EE9DBB"/>
<path fill-rule="evenodd" clip-rule="evenodd" d="M30.9289 15.8568C29.5389 24.0238 39.2289 29.9908 41.5209 16.9898C41.4469 16.7938 42.0109 15.4968 42.8239 16.7718C44.6339 28.3888 26.9879 32.1598 29.6109 15.9168C29.4959 15.7068 30.3449 14.4758 30.9289 15.8568Z" fill="#290334"/>
<path fill-rule="evenodd" clip-rule="evenodd" d="M34.2155 44.721C40.4195 45.236 43.3305 49.13 43.6645 49.617C41.0685 50.743 37.8045 51.23 33.7865 50.724C30.4745 50.305 27.8015 49.454 25.6925 48.31L25.7015 48.29C25.7015 48.29 28.7085 44.253 34.2155 44.721Z" fill="#EE9DBB"/>
<path fill-rule="evenodd" clip-rule="evenodd" d="M39.6941 31.0345L39.6371 30.4905C43.0251 30.1655 44.8581 29.0585 47.4061 29.8985L47.3581 30.0225C47.3581 30.0225 47.7691 36.8465 43.3021 36.5595C39.4751 36.3115 39.5801 32.1885 39.6941 31.0345Z" fill="white"/>
<path fill-rule="evenodd" clip-rule="evenodd" d="M24.5471 28.3812C26.9901 27.9802 28.4031 29.0592 32.1441 29.8792L32.1251 29.9752C32.1251 29.9752 31.7631 35.2432 27.7731 34.8802C23.7931 34.4982 24.5751 28.5712 24.5751 28.5712L24.5471 28.3812Z" fill="white"/>
<path fill-rule="evenodd" clip-rule="evenodd" d="M49.3532 30.8529C53.6482 33.6019 52.9512 45.6089 43.6642 49.6179C43.3312 49.1299 40.4192 45.2359 34.2152 44.7209C28.7082 44.2529 25.7022 48.2899 25.7022 48.2899L25.6922 48.3099C15.4892 42.8399 18.0382 30.8059 22.3042 29.0689C23.1722 28.7149 23.8882 28.4959 24.5472 28.3809L24.5752 28.5719C24.5752 28.5719 23.7932 34.4989 27.7732 34.8799C31.7632 35.2439 32.1252 29.9749 32.1252 29.9749L32.1442 29.8789C33.0802 30.0899 34.1682 30.2799 35.4472 30.4329C37.0982 30.6239 38.4632 30.6049 39.6372 30.4909L39.6942 31.0349C39.5802 32.1889 39.4752 36.3119 43.3022 36.5599C47.7692 36.8459 47.3582 30.0229 47.3582 30.0229L47.4062 29.8989C47.9982 30.0899 48.6462 30.4039 49.3532 30.8529Z" fill="#290334"/>
<path fill-rule="evenodd" clip-rule="evenodd" d="M45.5168 85.8109C44.6798 85.5709 43.9598 85.3069 43.5968 87.3049C43.5948 87.2649 43.2378 88.2059 43.3818 87.8559C42.3488 92.9859 49.4598 89.8979 45.5168 85.8109Z" fill="#C4497B"/>
<path fill-rule="evenodd" clip-rule="evenodd" d="M51.6046 89.223C51.4616 88.486 49.5676 86.576 48.8456 88.727C48.8686 88.519 48.8136 88.603 48.6256 89.739C47.1446 91.803 53.2036 94.504 51.6046 89.223Z" fill="#C4497B"/>
<path fill-rule="evenodd" clip-rule="evenodd" d="M48.8508 82.7943C48.6128 79.3883 43.7288 81.6713 46.5148 85.2803C47.7698 86.0633 49.7298 84.8913 48.8508 82.7943Z" fill="#C4497B"/>
<path fill-rule="evenodd" clip-rule="evenodd" d="M65.1413 14.5833C64.7723 12.8103 58.9653 13.1123 61.7183 15.9733C61.9603 16.0143 61.9813 16.9453 63.4053 17.3213C63.6643 17.3643 64.6913 17.5073 65.2733 16.2323C64.9693 16.9313 65.7193 15.7193 65.1413 14.5833Z" fill="#C4497B"/>
<path fill-rule="evenodd" clip-rule="evenodd" d="M68.819 20.3744C68.581 19.2484 65.039 17.4534 65.67 20.6894C64.838 22.6004 69.925 24.9324 68.819 20.3744Z" fill="#C4497B"/>
<path fill-rule="evenodd" clip-rule="evenodd" d="M62.7365 20.0677C62.5135 19.9637 62.6355 19.8257 61.6525 19.5397C60.8265 18.8487 58.2035 19.9527 59.9665 21.5457C60.3305 23.3887 64.4885 22.7907 62.7365 20.0677Z" fill="#C4497B"/>
<path fill-rule="evenodd" clip-rule="evenodd" d="M65.3718 108.157C64.7308 102.234 59.3708 107.661 62.0618 111.553C64.0188 112.697 65.6068 110.412 65.3718 108.157Z" fill="#C4497B"/>
<path fill-rule="evenodd" clip-rule="evenodd" d="M59.3811 114.505C56.9461 113.364 54.8831 118.882 59.2631 117.852C59.9761 117.225 61.0801 116.115 59.3811 114.505Z" fill="#C4497B"/>
<path fill-rule="evenodd" clip-rule="evenodd" d="M57.5851 109.724C57.3371 108.475 55.9151 108.71 55.3931 110.024C55.4411 109.988 55.4721 109.965 55.4931 109.95C52.6481 112.159 58.2921 114.807 57.5851 109.724Z" fill="#C4497B"/>
</svg>
