<svg width="183" height="188" viewBox="0 0 183 188" fill="none" xmlns="http://www.w3.org/2000/svg">
<path fill-rule="evenodd" clip-rule="evenodd" d="M109.961 173.595C107.847 168.009 108.547 145.949 117.974 155.099C121.361 162.014 116.401 172.563 112.425 178.28C111.335 176.861 110.499 175.236 109.961 173.595V173.595ZM57.6095 170.897C47.8508 157.379 65.2394 155.85 62.223 173.306C60.5396 172.949 58.986 172.223 57.6095 170.897ZM130.957 178.225C130.488 178.213 129.005 177.746 128.825 178.969C126.669 182.147 121.071 183.681 117.068 182.022C115.569 180.967 112.607 180.534 114.677 178.432C117.466 173.866 118.857 170.362 120.351 165.404C124.55 152.827 113.946 144.463 108.684 154.535C104.821 163.827 107.684 173.2 110.562 180.372C106.043 185.254 97.2642 184.643 94.3939 177.989C92.1505 172.263 95.6205 167.514 96.105 161.661C97.2251 155.923 91.133 153.18 86.3538 154.806C81.0637 157.352 78.6137 163.939 76.8975 169.682C76.9908 166.897 79.9751 152.695 75.9872 154.883C73.5441 164.476 77.6044 173.504 64.5048 173.576C66.5025 142.144 37.3953 165.494 61.9892 175.326C61.7385 177.063 61.0852 179.575 60.0249 181.33C47.5099 196.88 33.1957 162.751 49.713 158.209C51.535 158.085 51.3177 155.376 49.2355 156.251C26.9461 164.449 50.3065 202.87 62.6759 180.55C64.0311 179.152 62.8914 175.755 65.0139 175.784C69.1303 175.884 72.4044 175.208 74.9798 171.89C75.7699 177.294 74.3505 187.226 76.7048 187.757C79.0717 186.764 76.5655 178.821 77.7619 176.383C78.5929 169.092 84.3215 152.657 91.763 157.475C97.3725 162.764 89.725 170.152 92.095 176.841C94.518 185.962 105.747 188.963 112.448 181.329C119.77 189.493 135.402 179.58 130.957 178.225" fill="#F5F5F7"/>
<path fill-rule="evenodd" clip-rule="evenodd" d="M46.2218 120.935C47.4081 117.151 47.2632 122.916 45.7802 124.39C45.8507 123.205 45.9106 121.999 46.2218 120.935ZM57.5297 134.071C53.6003 143.58 43.303 138.835 45.0827 130.514C44.8415 125.968 54.1352 122.565 49.4008 117.685C40.2437 113.202 44.9593 127.185 40.468 128.82C32.4128 131.248 37.7514 132.384 41.9334 130.275C43.9128 157.033 68.5704 129.774 57.5297 134.071" fill="#F5F5F7"/>
<path fill-rule="evenodd" clip-rule="evenodd" d="M125.729 104.245C130.747 93.4974 130.852 104.154 129.11 108.928C127.696 113.516 124.736 117.384 120.928 120.122C121.892 114.669 123.61 109.356 125.729 104.245ZM129.866 128.738C129.041 129.026 128.89 130.037 129.648 130.878C138.912 137.115 118.354 144.604 120.015 128.124C119.559 123.219 121.394 122.217 125.112 119.744C130.501 114.934 135.366 106.119 132.528 98.899C123.84 89.1787 118.565 117.156 117.635 121.223C117.16 123.461 113.913 123.017 111.602 124.005C109.876 126.424 115.658 124.861 117.223 124.209C114.972 136.714 124.554 145.014 134.671 137.989C138.708 134.038 134.586 127.086 129.866 128.738" fill="#F5F5F7"/>
<path fill-rule="evenodd" clip-rule="evenodd" d="M89.9371 109.557C88.6532 113.743 83.014 111.066 80.065 111.114C78.8699 116.686 82.7992 146.056 72.3122 142.476C67.2634 141.7 72.5919 137.953 72.0312 111.114C68.7156 110.602 66.8942 112.194 63.3108 111.699C59.7822 111.186 59.791 107.05 64.4164 106.762C68.9046 107.595 92.0155 104.726 89.9371 109.557" fill="#F5F5F7"/>
<path fill-rule="evenodd" clip-rule="evenodd" d="M111.448 116.195C111.048 120.092 104.089 116.099 104.68 120.192C103.905 126.776 104.586 134.784 102.783 141.566C90.3968 147.561 97.2449 131.02 96.7567 118.344C88.9919 119.025 88.3544 113.572 96.8266 114.077C101.434 114.596 110.29 112.432 111.448 116.195Z" fill="#F5F5F7"/>
<path fill-rule="evenodd" clip-rule="evenodd" d="M159.566 135.73C154.83 141.627 148.578 134.309 148.752 128.731C155.614 127.454 166.479 130.933 165.372 122.099C164.767 107.577 140.741 110.691 140.779 124.892C139.008 140.191 152.291 145.701 163.826 140.459C172.406 135.188 163.171 132.139 159.566 135.73" fill="#F5F5F7"/>
<path fill-rule="evenodd" clip-rule="evenodd" d="M47.6527 107.1C43.9936 105.808 38.9618 109.239 42.6076 113.052C47.9393 116.566 53.7649 110.053 47.6527 107.1Z" fill="#4395A1"/>
<path fill-rule="evenodd" clip-rule="evenodd" d="M160.616 120.989C155.137 123.092 156.756 124.23 156.058 127.369C152.364 122.809 151.783 124.701 148.58 125.006C151.777 120.084 149.797 120.115 148.517 117.165C154.186 118.684 153.545 116.811 155.956 114.682C156.263 120.543 157.846 119.354 160.616 120.989Z" fill="#F4B955"/>
<path fill-rule="evenodd" clip-rule="evenodd" d="M179.416 75.9714C179.316 75.9475 179.215 75.9229 179.114 75.8984C179.227 75.9292 178.835 76.2631 179.409 76.3249C179.411 76.2071 179.414 76.0892 179.416 75.9714V75.9714ZM150.907 100.778C150.996 100.811 150.698 101.013 151.059 101.191C150.969 101.158 151.269 100.954 150.907 100.778ZM150.085 102.071C149.912 102.031 149.944 101.921 149.665 102.224C149.838 102.261 149.809 102.37 150.085 102.071ZM176.391 63.774C176.335 63.752 176.278 63.7305 176.222 63.7085C176.312 63.7387 176.023 63.9548 176.394 64.118C176.393 64.004 176.392 63.8899 176.391 63.774ZM156.174 74.8752C156.071 74.8482 155.968 74.8204 155.866 74.7933C155.866 74.9735 155.766 74.9571 156.063 75.2198C156.099 75.1052 156.137 74.9905 156.174 74.8752V74.8752ZM149.01 101.237C148.737 101.195 148.66 101.116 149.01 101.237C149.442 101.125 148.722 100.194 149.01 101.237ZM162.11 66.7671C162.04 67.1458 161.911 67.2686 162.11 66.7671C161.955 66.1478 160.657 66.9983 162.11 66.7671ZM168.629 96.0621C167.061 96.2795 168.502 98.7434 169.39 96.8925C169.405 96.6461 169.571 95.6066 168.629 96.0621ZM171.912 95.0264C174.308 98.1852 167.801 102.292 165.604 97.9685C163.699 97.0241 161.724 99.7709 160.004 101.272C159.192 101.638 158.747 101.813 157.715 101.438C156.644 100.007 154.156 100.126 152.912 101.438C152.038 103.804 150.853 104.964 147.916 103.642C143.965 101.503 149.651 98.4511 141.739 98.4347C140.76 98.7844 140.169 99.6531 138.81 98.8171C137.451 97.2106 138.614 95.189 136.53 93.5705C136.083 92.754 133.402 90.7575 135.207 90.1578C136.224 91.2357 136.762 92.6236 138.246 93.8351C145.303 93.1673 140.316 97.3933 146.391 98.1185C152.181 93.3386 152.409 103.597 158.175 97.1508C161.294 96.4584 164.426 98.7888 167.026 93.7481C169.159 92.662 170.599 93.3443 172.392 90.738C175.828 88.545 171.895 84.5697 177.521 84.3095C177.947 84.0462 178.146 83.7576 178.538 83.1062C181.495 76.7533 177.797 80.8527 176.923 74.9357C177.868 70.871 181.078 74.8444 178.444 67.6706C178.294 65.4353 175.893 67.0349 174.66 65.6237C172.997 63.8307 174.923 62.2519 174.402 60.2435C171.218 55.6577 171.284 58.0448 167.225 57.2459C165.174 56.5076 165.978 53.6178 163.863 53.0634C158.507 51.7177 159.138 54.9855 156.166 56.2965C151.792 54.5237 149.214 57.256 148.717 61.913C147.812 63.9095 145.399 62.1851 144.226 63.7929C141.463 68.0183 145.776 68.6439 144.478 71.8619C142.159 73.7866 142.781 76.5636 144.666 79.0376C145.595 79.6349 146.905 78.6319 148.167 79.8655C149.827 81.1248 148.256 83.5579 150.188 84.6843C151.986 85.9588 153.126 85.778 155.21 84.7832C157.102 86.117 160.888 85.9292 161.951 83.2108C163.062 80.5251 166.462 82.7206 166.852 78.3321C167.335 77.0595 164.666 75.8719 165.159 74.5961C166.707 72.1379 164.468 70.2781 162.315 69.2361C158.18 67.8337 154.958 71.6509 157.884 74.8116C157.857 75.8486 156.343 77.6642 158.852 77.3417C160.858 76.391 159.777 71.4852 163.458 75.3055C165.88 80.0828 147.244 80.0532 155.099 72.2028C155.785 69.233 159.06 68.8877 159.847 66.1668C160.528 63.8194 164.315 64.2705 164.595 67.0966C164.291 68.1733 164.012 68.9967 165.476 69.9291C171.389 75.6086 169.617 73.3078 167.197 81.104C165.674 82.451 167.01 83.8968 165.692 85.7887C164.244 87.1697 162.538 85.4069 160.52 86.2537C158.027 86.5964 157.734 88.1726 155.885 89.4553C153.726 90.0223 153.938 87.5237 152.142 86.8767C149.716 84.8639 144.461 85.7182 144.075 81.2477C142.316 78.1764 142.518 75.6325 140.903 72.3893C138.753 70.1225 140.509 68.8669 142.112 66.8238C142.878 64.2125 143.859 61.5652 144.405 58.4757C145.423 57.1105 146.47 57.9314 148.212 57.5887C150.133 55.7119 152.878 55.2961 153.716 52.0768C155.371 49.1744 156.864 52.1486 159.164 52.1411C160.722 51.5419 163.087 51.8286 165.255 52.1379C166.532 51.2717 167.884 50.8672 169.544 52.034C171.339 52.8391 170.977 54.4632 171.862 56.1686C173.593 57.6599 174.752 59.5549 176.908 61.0392C179.349 61.8853 179.704 63.1963 178.871 65.7995C179.697 68.1248 179.873 70.5534 180.681 73.0697C183.179 74.8192 183.082 75.9696 180.99 78.494C180.182 81.632 178.579 83.7879 179.303 87.4444C178.975 89.5983 177.126 89.6721 175.03 89.7886C173.765 90.9799 170.525 92.5808 171.912 95.0264" fill="#FFDA76"/>
<path fill-rule="evenodd" clip-rule="evenodd" d="M42.2017 68.8458C43.5348 68.3405 44.689 68.7166 45.7625 70.0611C48.4904 69.8021 47.0036 73.8757 44.4603 74.5637C43.1864 74.1907 40.7823 74.0849 39.7599 73.0359C39.5992 71.8232 40.2746 68.442 42.2017 68.8458" fill="#F4B955"/>
<path fill-rule="evenodd" clip-rule="evenodd" d="M22.7849 65.7943C20.0526 71.068 25.0138 71.6627 16.3047 68.8453C15.4939 65.5007 20.7015 60.4733 22.7849 65.7943Z" fill="#F4B955"/>
<path fill-rule="evenodd" clip-rule="evenodd" d="M20.9485 93.262C21.2925 88.6359 28.0788 86.6193 26.6002 92.872C25.7768 95.7549 21.0902 96.2974 20.9485 93.262Z" fill="#F4B955"/>
<path fill-rule="evenodd" clip-rule="evenodd" d="M35.8764 59.1953C32.9091 62.017 32.9771 54.2573 35.402 54.4438C36.5379 53.5719 39.3886 54.4772 39.6589 56.2437C39.2299 57.4394 37.9302 62.5456 35.8764 59.1953" fill="#F4B955"/>
<path fill-rule="evenodd" clip-rule="evenodd" d="M31.3977 75.6392C36.0068 77.9387 33.5447 81.6608 29.1536 81.1826C26.3873 79.6517 28.6125 76.016 31.3977 75.6392Z" fill="#F4B955"/>
<path fill-rule="evenodd" clip-rule="evenodd" d="M16.4407 79.6899C16.5093 80.5209 16.3594 81.2303 15.4957 81.333C5.65127 82.2767 15.679 71.7551 16.4407 79.6899Z" fill="#F4B955"/>
<path fill-rule="evenodd" clip-rule="evenodd" d="M44.245 86.682C44.3143 87.5124 44.1643 88.2224 43.3006 88.3251C33.4562 89.2682 43.4839 78.7465 44.245 86.682Z" fill="#F4B955"/>
<path fill-rule="evenodd" clip-rule="evenodd" d="M9.12495 19.576C9.10983 17.0251 9.07833 13.969 9.10479 10.698C15.5384 16.593 18.0917 29.0764 9.43617 35.0412C9.30828 30.177 9.18417 25.0734 9.12495 19.576V19.576ZM32.4035 20.5701C32.5345 -0.360973 4.85481 -1.62475 1.272 2.69075C0.0775241 15.3229 2.0532 28.7954 1.1838 42.0683C4.27206 46.0644 17.4561 43.5582 20.4127 42.0513C29.3234 39.0178 32.9163 29.8362 32.4035 20.5701" fill="#F5F5F7"/>
<path fill-rule="evenodd" clip-rule="evenodd" d="M79.6535 36.3768C80.5871 39.38 73.7082 40.364 70.8965 33.2337C70.0831 31.1749 69.6207 28.9655 69.4002 26.756C79.3498 25.7625 90.7282 29.5778 88.1786 16.2577C84.0049 -1.8951 61.7552 8.7267 61.4754 22.8141C59.1199 39.4883 73.5412 50.1007 86.535 41.8994C92.7644 32.8406 78.9523 31.5018 79.6535 36.3768" fill="#F5F5F7"/>
<path fill-rule="evenodd" clip-rule="evenodd" d="M145.633 39.3294C145.006 34.8267 145.913 29.2178 147.501 24.3964C148.861 27.3946 147.662 39.3684 145.633 39.3294ZM133.693 38.3352C133.538 35.0151 135.038 31.1595 136.053 27.6504C136.669 29.5952 134.401 44.3378 133.693 38.3352ZM168.389 32.7219C168.169 31.511 160.31 33.3727 164.112 34.811C165.915 34.6138 168.33 34.1728 168.309 37.7329C168.253 42.3098 161.578 41.8405 160.767 38.6067C159.22 33.8899 162.222 28.8278 162.043 23.6228C162.31 15.5582 153 11.3504 147.41 17.9994C144.798 15.2545 139.648 14.9597 137.328 19.003C132.118 9.29344 115.801 24.1999 127.96 25.9576C129.01 25.8057 129.675 24.9672 128.39 24.4468C121.957 21.1192 132.906 14.9918 135.365 20.8344C135.8 23.5907 133.552 25.7938 132.815 28.5292C129.93 33.9926 128.732 46.5819 136.93 40.3499C140.015 34.9036 139.07 28.608 138.731 23.7513C137.918 21.9155 139.356 20.6656 141.313 19.3048C152.266 15.0623 135.236 39.8667 145.346 42.2324C153.14 40.0935 151.317 25.148 149.498 20.1679C152.039 18.5305 157.148 16.5088 158.54 20.4344C159.603 23.6196 158.92 26.6216 158.195 30.1112C151.417 51.4543 179.706 43.2681 168.389 32.7219" fill="#F5F5F7"/>
<path fill-rule="evenodd" clip-rule="evenodd" d="M58.89 21.0846C53.7492 12.9343 45.7652 23.8219 56.1986 22.8946C51.4515 30.2933 44.7194 13.6896 40.2319 27.2976C39.9742 24.8936 41.6028 15.4335 37.2072 19.2746C38.0269 24.7631 34.8183 47.9453 40.1676 42.0793C41.3249 35.1934 42.2353 18.4959 49.6661 26.3948C53.8758 28.5129 60.4612 25.9961 58.89 21.0846" fill="#F5F5F7"/>
<path fill-rule="evenodd" clip-rule="evenodd" d="M85.3045 16.5337C77.9152 19.6049 80.2998 20.1707 79.2389 25.0254C74.0345 18.9466 74.2329 21.3891 69.288 21.8805C73.4612 15.0519 71.1988 15.9956 69.2036 11.4458C76.9873 13.3043 75.3908 11.4445 79.1022 8.14081C79.7404 16.1179 81.0155 14.025 85.3045 16.5337" fill="#F4B955"/>
<path fill-rule="evenodd" clip-rule="evenodd" d="M106.758 41.77C100.335 43.6127 101.571 29.4535 106.046 29.2166C112.852 27.1023 112.166 40.624 106.758 41.77ZM119.151 34.9408C116.878 35.4246 117.902 35.5941 119.465 37.1483C120.146 38.6641 119.978 39.7849 119.315 40.5837C110.452 44.8412 115.762 26.0943 114.541 21.8362C113.94 12.56 96.0508 14.9106 98.9551 22.6363C103.661 28.695 109.399 20.5503 102.915 22.0793C102.573 21.753 102.54 21.3857 102.782 20.9258C109.664 15.877 112.714 21.2358 111.448 28.7347C110.497 28.0946 109.202 27.4337 107.431 26.987C83.7551 23.854 97.222 53.1364 112.363 40.5648C119.635 50.3512 130.73 36.483 119.151 34.9408Z" fill="#4395A1"/>
<path fill-rule="evenodd" clip-rule="evenodd" d="M102.37 37.5722C102.268 37.7253 101.509 38.9185 102.651 39.0382C102.531 38.5663 102.43 38.0743 102.37 37.5722Z" fill="#F5F5F7"/>
<path fill-rule="evenodd" clip-rule="evenodd" d="M102.035 29.0432C104.546 29.5655 97.8822 33.9862 99.9222 29.9838C100.316 29.6619 100.924 29.2171 102.035 29.0432Z" fill="#F5F5F7"/>
<path fill-rule="evenodd" clip-rule="evenodd" d="M99.6185 36.7589C99.5492 36.7866 99.5203 37.0928 99.0358 37.111C99.1108 36.8269 99.0175 37.0682 99.4774 36.6385C99.4472 36.6492 99.6507 36.6001 99.6185 36.7589V36.7589ZM100.542 35.3628C99.897 35.228 95.9778 38.1694 98.8247 38.165C99.2071 37.9212 102.297 36.1881 100.542 35.3628Z" fill="#F5F5F7"/>
<path fill-rule="evenodd" clip-rule="evenodd" d="M107.421 26.9871C107.12 27.2302 106.199 27.4747 105.674 26.6758C106.267 26.7458 106.849 26.8466 107.421 26.9871Z" fill="#F5F5F7"/>
<path fill-rule="evenodd" clip-rule="evenodd" d="M111.619 32.2293C111.36 32.5349 110.718 32.2602 111.619 32.2199V32.2293ZM112.422 31.1149C111.291 31.5332 110.23 31.3133 110.735 33.575C111.299 33.5681 114.118 31.8652 112.422 31.1149Z" fill="#F5F5F7"/>
<path fill-rule="evenodd" clip-rule="evenodd" d="M96.0631 34.4892C95.9283 34.3828 95.8672 34.2511 95.0104 34.4413C94.5196 34.7488 94.4566 34.435 94.6576 35.5533C94.7999 35.3196 94.6601 35.5407 95.079 35.0613C95.0469 35.1923 95.0815 35.5703 94.6777 35.6541C94.7136 35.7858 94.6828 35.8248 94.8478 36.4271C95.1143 35.9351 96.3208 36.1008 96.0631 34.4892" fill="#F5F5F7"/>
<path fill-rule="evenodd" clip-rule="evenodd" d="M111.729 28.4532C111.431 28.3682 111.916 27.7715 112.382 27.7703C112.365 27.9965 112.252 28.1288 111.729 28.4532ZM112.684 26.9771C112.024 27.1138 111.33 27.0578 111.448 28.7342C110.971 27.7508 109.565 29.4713 111.508 29.3579C111.923 29.2829 114.365 27.5466 112.684 26.9771Z" fill="#F5F5F7"/>
<path fill-rule="evenodd" clip-rule="evenodd" d="M97.4084 28.5135C97.9295 28.3365 98.5053 28.3257 99.3873 27.4393C98.664 27.7203 98.0013 28.0813 97.4084 28.5135Z" fill="#F5F5F7"/>
<path fill-rule="evenodd" clip-rule="evenodd" d="M112.633 36.5078C112.515 37.0093 111.663 38.0595 110.525 38.0438C110.248 37.3728 111.769 34.4389 112.633 36.5078Z" fill="#F5F5F7"/>
<path fill-rule="evenodd" clip-rule="evenodd" d="M112.252 23.3019C112.142 23.3485 112.043 22.99 112.412 23.1311C112.363 23.191 112.312 23.2515 112.252 23.3019ZM113.407 21.4534C112.591 21.0439 109.86 24.3187 112.603 23.5633C113.052 23.4297 114.862 21.9971 113.407 21.4534Z" fill="#F5F5F7"/>
<path fill-rule="evenodd" clip-rule="evenodd" d="M105.162 43.1155C105.152 43.1155 105.122 43.0852 105.101 43.0758C105.102 42.9674 105.437 42.9315 105.162 43.1155ZM106.477 41.8498C105.683 41.9594 103.827 41.8259 103.937 43.6277C104.655 43.8368 106.618 43.472 106.477 41.8498Z" fill="#F5F5F7"/>
<path fill-rule="evenodd" clip-rule="evenodd" d="M104.398 22.7494L104.379 22.6687L104.428 22.6795L104.398 22.7494ZM105.473 22.0967C104.919 21.2695 102.022 22.8458 103.153 23.9344C103.895 24.0031 105.315 23.2931 105.473 22.0967Z" fill="#F5F5F7"/>
<path fill-rule="evenodd" clip-rule="evenodd" d="M17.3898 1.89111C11.9403 3.52659 6.74976 7.46661 1.05015 9.41268C0.440938 6.61863 6.24891 5.55267 8.28129 4.04256C11.4848 2.53434 13.3742 0.368399 17.3898 1.89111" fill="#4395A1"/>
<path fill-rule="evenodd" clip-rule="evenodd" d="M22.6121 3.82914C19.0469 7.29414 14.8587 10.1058 11.9266 14.1429C10.6647 12.0223 15.3627 9.89478 16.7556 8.04195C18.7842 6.90291 20.1721 3.08511 22.6121 3.82914" fill="#4395A1"/>
<path fill-rule="evenodd" clip-rule="evenodd" d="M28.4266 8.61932C23.5328 10.3984 18.1979 14.0077 13.1819 16.2921C14.7739 12.742 21.9716 9.79175 26.158 7.34861C27.2303 6.55733 27.4797 7.60628 28.4266 8.61932" fill="#4395A1"/>
<path fill-rule="evenodd" clip-rule="evenodd" d="M30.596 12.3353C26.0184 16.0271 20.1625 18.5181 14.8693 21.745C14.1347 20.0308 17.1007 19.1469 18.7268 18.1628C22.7732 16.2331 26.329 13.8013 30.1134 11.2908C30.2942 11.6322 30.4548 11.9838 30.596 12.3353Z" fill="#4395A1"/>
<path fill-rule="evenodd" clip-rule="evenodd" d="M32.4035 20.5703C26.8325 21.7855 20.8764 23.3397 14.9796 24.6375C14.6747 23.4204 15.8018 23.2301 17.3806 22.7034C22.5749 21.267 26.7902 19.8999 32.253 18.662C32.3229 19.2951 32.3733 19.927 32.4035 20.5703Z" fill="#4395A1"/>
<path fill-rule="evenodd" clip-rule="evenodd" d="M32.2024 25.6816C28.7859 28.693 19.3473 27.5502 14.1265 28.9457C14.7319 24.2912 29.7902 25.8303 32.2024 25.6816" fill="#4395A1"/>
<path fill-rule="evenodd" clip-rule="evenodd" d="M29.5008 34.6899C27.4621 38.5423 26.5511 37.986 23.1163 35.9725C19.8996 34.1562 16.2096 33.673 12.7402 31.7673C14.4154 28.4289 27.5862 34.1594 29.5008 34.6899" fill="#4395A1"/>
<path fill-rule="evenodd" clip-rule="evenodd" d="M21.6479 41.5189C19.3509 42.7915 11.3442 36.4021 10.7924 34.4894C9.43533 36.0241 10.8692 44.9543 7.90947 44.0597C8.2125 42.1307 8.70201 39.697 8.85321 37.2608C7.24482 38.4836 4.28067 44.7641 1.91439 42.8646C4.2687 39.8488 8.06382 36.7221 9.06426 32.5408C6.72822 33.9766 4.21641 35.6013 1.46205 37.291C0.650615 34.2613 7.40988 32.4129 9.31563 30.3717C9.35532 31.9278 9.39564 33.4845 9.43596 35.0413C10.3898 34.439 11.2233 33.6956 11.9264 32.8621C13.1769 37.2639 18.3234 38.4086 21.6479 41.5189Z" fill="#4395A1"/>
<path fill-rule="evenodd" clip-rule="evenodd" d="M9.27569 28.1419C7.06628 29.6432 4.31885 30.5094 1.30177 31.4059C-0.0980851 27.1112 6.10174 28.3643 9.23536 26.6356C9.24544 27.1377 9.25553 27.6398 9.27569 28.1419" fill="#4395A1"/>
<path fill-rule="evenodd" clip-rule="evenodd" d="M9.18515 23.8642C6.84281 24.3726 4.04309 24.767 1.16084 25.2301C0.632897 22.5078 7.17041 23.628 9.16499 22.5387C9.16499 22.9803 9.17444 23.4226 9.18515 23.8642Z" fill="#4395A1"/>
<path fill-rule="evenodd" clip-rule="evenodd" d="M9.12489 18.7725C9.24963 20.3103 -0.801394 21.353 1.04073 17.6278C3.7617 17.8685 6.5337 18.0997 9.12489 18.7725Z" fill="#4395A1"/>
<path fill-rule="evenodd" clip-rule="evenodd" d="M9.1045 16.0206C7.19623 15.795 4.71403 14.6453 2.30932 14.3555C0.971829 14.2717 0.900639 14.4103 1.03042 12.3848C3.51703 13.1037 9.43777 12.6664 9.1045 16.0206" fill="#4395A1"/>
<path fill-rule="evenodd" clip-rule="evenodd" d="M132.668 17.2658C132.698 17.6917 132.395 18.7652 131.122 18.4911C131.442 18.3185 131.927 16.712 132.668 17.2658Z" fill="#4395A1"/>
<path fill-rule="evenodd" clip-rule="evenodd" d="M131.072 15.8803C131.155 16.1701 129.4 18.7166 129.833 16.601C130.197 16.138 129.969 15.8898 131.072 15.8803Z" fill="#4395A1"/>
<path fill-rule="evenodd" clip-rule="evenodd" d="M126.706 18.2982C126.3 18.6642 124.786 20.449 125.844 21.0513C126.073 20.6613 127.248 19.1562 126.706 18.2982Z" fill="#4395A1"/>
<path fill-rule="evenodd" clip-rule="evenodd" d="M125.899 23.0004C125.797 23.5296 125.911 23.878 125.467 25.3503C124.585 25.5462 125.012 22.4567 125.899 23.0004Z" fill="#4395A1"/>
<path fill-rule="evenodd" clip-rule="evenodd" d="M128.39 24.4462C128.57 24.9741 127.136 25.9493 127.757 24.2055C127.852 24.242 127.887 24.3296 128.39 24.4462Z" fill="#4395A1"/>
<path fill-rule="evenodd" clip-rule="evenodd" d="M135.34 19.8067C135.279 19.9775 135.229 20.1589 135.149 20.3189C133.896 19.7261 136.246 16.3928 135.34 19.8067Z" fill="#4395A1"/>
<path fill-rule="evenodd" clip-rule="evenodd" d="M138.629 18.6851C138.142 18.9655 137.575 21.7967 138.865 19.8594C138.877 19.5111 139.361 18.4602 138.629 18.6851Z" fill="#4395A1"/>
<path fill-rule="evenodd" clip-rule="evenodd" d="M136.838 22.7888C135.717 23.8825 136.678 25.4304 137.231 22.9141C137.235 22.7699 137.192 22.6729 136.838 22.7888Z" fill="#4395A1"/>
<path fill-rule="evenodd" clip-rule="evenodd" d="M134.307 27.4658C134.154 28.9709 134.011 29.0773 134.348 28.6748C134.353 27.6542 133.357 28.5947 134.011 29.0773C134.399 28.4139 135.197 27.2144 134.307 27.4658Z" fill="#4395A1"/>
<path fill-rule="evenodd" clip-rule="evenodd" d="M137.263 25.892C137.23 26.0628 135.873 27.5143 136.713 27.8463C136.911 27.7449 137.859 26.1888 137.263 25.892Z" fill="#4395A1"/>
<path fill-rule="evenodd" clip-rule="evenodd" d="M138.584 27.5433C138.57 27.709 136.784 30.2996 138.272 29.6009C138.537 29.2185 139.36 27.617 138.584 27.5433Z" fill="#4395A1"/>
<path fill-rule="evenodd" clip-rule="evenodd" d="M136.917 33.0797C135.901 33.8181 135.46 37.6964 137.301 33.2599C137.315 33.1012 137.284 32.9802 136.917 33.0797Z" fill="#4395A1"/>
<path fill-rule="evenodd" clip-rule="evenodd" d="M137.268 37.0659C136.521 37.694 136.294 39.9695 137.619 37.733C137.757 37.3154 138.002 36.8529 137.268 37.0659Z" fill="#4395A1"/>
<path fill-rule="evenodd" clip-rule="evenodd" d="M135.41 41.1677C135.34 41.1796 135.221 42.0471 134.094 42.0005C134.121 41.9268 135.049 40.0576 135.41 41.1677Z" fill="#4395A1"/>
<path fill-rule="evenodd" clip-rule="evenodd" d="M132.929 40.3235C132.729 40.7853 132.447 41.1873 132.146 41.5791C131.915 41.4588 131.714 41.3076 131.544 41.1268C131.574 41.0972 131.604 41.0669 131.624 41.0367C131.935 40.6952 132.247 40.3538 132.608 40.0526C132.789 39.9122 133.01 40.1327 132.929 40.3235Z" fill="#4395A1"/>
<path fill-rule="evenodd" clip-rule="evenodd" d="M133.843 35.7948C133.799 36.2137 133.555 38.3375 132.254 37.8555C132.194 37.0063 132.583 37.1285 133.843 35.7948Z" fill="#4395A1"/>
<path fill-rule="evenodd" clip-rule="evenodd" d="M131.975 35.4029C131.664 35.9151 131.142 36.678 130.54 36.8796C130.37 36.4795 131.133 34.5851 131.975 35.4029Z" fill="#4395A1"/>
<path fill-rule="evenodd" clip-rule="evenodd" d="M133.341 31.3781C132.731 31.2615 131.063 33.91 132.961 32.6028C132.917 32.388 134.005 31.8569 133.341 31.3781Z" fill="#4395A1"/>
<path fill-rule="evenodd" clip-rule="evenodd" d="M142.761 15.8403C142.389 15.8202 142.209 15.8403 142.761 15.8403C141.887 16.2719 141.777 16.5333 142.209 15.8403C142.815 16.0331 141.954 17.8488 142.761 15.8403Z" fill="#4395A1"/>
<path fill-rule="evenodd" clip-rule="evenodd" d="M144.448 17.8589C144.003 17.9685 144.715 19.272 143.163 18.8524C143.252 18.7466 144.088 16.9819 144.448 17.8589Z" fill="#4395A1"/>
<path fill-rule="evenodd" clip-rule="evenodd" d="M147.724 18.3782C147.533 18.5873 147.142 18.9773 146.753 19.6791C146.212 21.6202 148.955 18.6377 147.724 18.3782Z" fill="#4395A1"/>
<path fill-rule="evenodd" clip-rule="evenodd" d="M146.118 23.431C146.202 23.8998 144.559 25.4558 145.432 26.1047C145.921 25.883 146.81 23.8204 146.118 23.431Z" fill="#4395A1"/>
<path fill-rule="evenodd" clip-rule="evenodd" d="M144.42 29.2617C144.329 28.9599 142.642 31.1851 143.687 31.4056C144.201 31.2172 144.589 30.1657 144.42 29.2617Z" fill="#4395A1"/>
<path fill-rule="evenodd" clip-rule="evenodd" d="M149.991 22.016C149.942 22.7689 148.302 22.8098 149.65 21.1826C149.781 21.4535 149.901 21.7351 149.991 22.016Z" fill="#4395A1"/>
<path fill-rule="evenodd" clip-rule="evenodd" d="M147.861 21.5244C147.03 21.6681 146.931 24.8137 147.894 22.3907C147.861 22.3321 148.657 21.411 147.861 21.5244Z" fill="#4395A1"/>
<path fill-rule="evenodd" clip-rule="evenodd" d="M149.353 25.091C148.518 25.5188 148.271 29.8708 149.555 25.9409C149.485 25.9654 150.096 24.7577 149.353 25.091Z" fill="#4395A1"/>
<path fill-rule="evenodd" clip-rule="evenodd" d="M150.111 28.946C150.077 29.6756 148.246 31.6847 149.368 32.4205C149.846 32.0242 150.903 29.3423 150.111 28.946Z" fill="#4395A1"/>
<path fill-rule="evenodd" clip-rule="evenodd" d="M148.303 35.7825C147.79 36.245 146.603 39.4643 148.482 36.8693C148.582 36.4069 149.182 35.5274 148.303 35.7825Z" fill="#4395A1"/>
<path fill-rule="evenodd" clip-rule="evenodd" d="M147.29 41.4082C147.095 41.773 146.851 41.894 145.925 42.2115C146.243 42.1069 146.832 40.239 147.29 41.4082Z" fill="#4395A1"/>
<path fill-rule="evenodd" clip-rule="evenodd" d="M144.829 40.9062C144.433 40.852 144.628 42.3123 143.564 41.3384C143.713 41.3907 144.727 39.9738 144.829 40.9062Z" fill="#4395A1"/>
<path fill-rule="evenodd" clip-rule="evenodd" d="M145.463 37.371C144.823 38.58 143.661 37.7831 145.432 36.2062C145.432 36.5974 145.443 36.9798 145.463 37.371Z" fill="#4395A1"/>
<path fill-rule="evenodd" clip-rule="evenodd" d="M143.665 35.8046C143.357 36.0913 142.871 36.8492 142.138 37.5623C142.024 36.7736 142.032 36.3924 143.334 35.4436C143.487 35.3706 143.612 35.3788 143.665 35.8046Z" fill="#4395A1"/>
<path fill-rule="evenodd" clip-rule="evenodd" d="M145.824 31.4863C145.692 31.7541 144.736 33.9943 144.147 32.8521C144.234 32.563 145.282 31.068 145.824 31.4863" fill="#4395A1"/>
<path fill-rule="evenodd" clip-rule="evenodd" d="M151.719 15.0565C151.689 15.1762 150.657 18.6613 150.203 16.634C150.625 16.2434 150.159 15.5523 151.719 15.0565Z" fill="#4395A1"/>
<path fill-rule="evenodd" clip-rule="evenodd" d="M153.336 16.8443C153.096 17.2419 153.435 18.6297 151.909 18.8931C152.103 18.7129 152.555 16.4197 153.336 16.8443Z" fill="#4395A1"/>
<path fill-rule="evenodd" clip-rule="evenodd" d="M156.579 15.0866C156.382 15.9031 154.513 18.7564 155.736 15.2876C155.932 15.0053 155.745 14.7225 156.579 15.0866Z" fill="#4395A1"/>
<path fill-rule="evenodd" clip-rule="evenodd" d="M158.447 17.7278C158.407 18.1695 157.956 18.6117 157.664 19.003C157.086 19.0156 157.849 16.9718 158.447 17.7278Z" fill="#4395A1"/>
<path fill-rule="evenodd" clip-rule="evenodd" d="M160.537 18.1899C160.333 19.1702 158.567 20.0894 160.145 17.6374C160.29 17.8415 160.264 17.7854 160.537 18.1899Z" fill="#4395A1"/>
<path fill-rule="evenodd" clip-rule="evenodd" d="M160.455 21.7398C160.084 21.8853 158.434 24.9194 160.297 23.3582C160.509 22.7591 161.472 21.7202 160.455 21.7398Z" fill="#4395A1"/>
<path fill-rule="evenodd" clip-rule="evenodd" d="M160.841 25.7259C160.072 25.5029 158.636 29.7749 160.584 26.9342C160.687 26.71 160.804 26.5128 160.841 25.7259Z" fill="#4395A1"/>
<path fill-rule="evenodd" clip-rule="evenodd" d="M158.884 31.303C158.71 31.4825 156.637 35.0798 158.65 33.1766C158.738 32.8238 159.987 31.0919 158.884 31.303Z" fill="#4395A1"/>
<path fill-rule="evenodd" clip-rule="evenodd" d="M159.794 35.3623C159.662 35.3465 158.576 36.9915 159.403 36.885C159.425 36.7332 160.367 35.6546 159.794 35.3623" fill="#4395A1"/>
<path fill-rule="evenodd" clip-rule="evenodd" d="M159.241 41.73C158.706 41.6279 158.894 40.3843 159.713 40.6048C159.738 40.8335 159.748 41.0408 159.241 41.73Z" fill="#4395A1"/>
<path fill-rule="evenodd" clip-rule="evenodd" d="M162.113 41.8499C162.042 41.9268 162.182 43.4079 161.078 42.8944C161.209 42.7086 161.534 41.5664 162.113 41.8499Z" fill="#4395A1"/>
<path fill-rule="evenodd" clip-rule="evenodd" d="M164.995 33.796C164.622 33.9793 165.476 34.9936 164.112 34.8103C164.238 34.78 164.417 33.0034 164.995 33.796Z" fill="#4395A1"/>
<path fill-rule="evenodd" clip-rule="evenodd" d="M168.39 32.7217C167.908 32.471 167.647 32.3998 168.39 32.7217C168.522 33.0808 167.252 33.9641 168.39 32.7217Z" fill="#4395A1"/>
<path fill-rule="evenodd" clip-rule="evenodd" d="M169.374 35.2626C169.17 35.6948 169.082 36.9939 168.31 37.7329C168.542 37.1306 167.713 37.6635 168.531 35.8636C168.591 35.8914 168.911 34.4272 169.374 35.2626Z" fill="#4395A1"/>
<path fill-rule="evenodd" clip-rule="evenodd" d="M169.928 38.3739C169.085 39.1513 168.382 43.3937 170.388 38.5213C170.388 38.3544 170.33 38.246 169.928 38.3739Z" fill="#4395A1"/>
<path fill-rule="evenodd" clip-rule="evenodd" d="M167.877 42.1016C167.849 42.2893 167.511 42.949 166.522 43.1058C166.791 43.0472 167.426 41.0961 167.877 42.1016Z" fill="#4395A1"/>
<path fill-rule="evenodd" clip-rule="evenodd" d="M166.05 40.8859C166.217 41.4013 163.946 44.189 164.574 42.0464C165.08 41.8423 164.509 41.1839 166.05 40.8859Z" fill="#4395A1"/>
<path fill-rule="evenodd" clip-rule="evenodd" d="M160.767 38.5966C160.62 39.5177 158.676 40.3266 160.567 37.9742C160.617 38.1852 160.677 38.3856 160.767 38.5966Z" fill="#4395A1"/>
<path fill-rule="evenodd" clip-rule="evenodd" d="M158.297 35.2724C158.213 35.8117 158.296 35.8369 157.192 36.7889C157.083 36.6093 157.345 34.9291 158.297 35.2724Z" fill="#4395A1"/>
<path fill-rule="evenodd" clip-rule="evenodd" d="M161.671 27.6904C161.541 28.2278 161.531 29.644 160.248 29.9867C159.923 29.3025 160.885 28.4646 161.671 27.6904Z" fill="#4395A1"/>
<path fill-rule="evenodd" clip-rule="evenodd" d="M162.043 23.6132C161.135 24.7207 159.833 24.7396 161.952 22.2171C162.012 22.6795 162.033 23.1407 162.043 23.6132Z" fill="#4395A1"/>
<path fill-rule="evenodd" clip-rule="evenodd" d="M135.239 25.1796C134.883 25.647 134.439 26.5139 133.331 27.2586C133.507 26.8314 134.406 24.4028 135.239 25.1796Z" fill="#4395A1"/>
<path fill-rule="evenodd" clip-rule="evenodd" d="M116.219 100.629C116.336 101.784 115.051 102.049 113.166 102.337C113.372 100.904 114.32 101.283 116.219 100.629Z" fill="#F5F5F7"/>
<path fill-rule="evenodd" clip-rule="evenodd" d="M101.677 69.5273C104.632 57.5296 118.069 61.4337 116.089 73.4441C112.946 83.0629 98.6741 82.1979 101.677 69.5273ZM77.9067 70.2304C81.0889 72.4461 81.9677 78.0456 75.7572 75.3725C70.0765 73.1549 70.7354 66.6067 77.9067 70.2304ZM64.5797 68.3524C64.7605 66.7005 65.1077 64.527 65.5846 62.518C68.6987 44.8641 76.5044 61.6133 64.5797 68.3524ZM112.222 60.8812C105.048 57.6997 99.5277 63.7124 99.2934 71.5496C99.1989 74.5245 100.822 77.609 98.4126 80.524C88.463 86.0686 88.6716 74.0117 89.8175 66.4952C87.0512 59.8342 89.415 73.3703 82.4056 75.4021C82.8686 69.6855 76.0829 64.8559 70.4614 67.9309C64.9848 72.8897 75.141 78.748 80.2062 77.9832C76.5863 90.672 63.4697 83.7446 64.3907 72.104C63.9655 70.0628 65.9714 70.3356 67.5092 68.8337C71.7617 65.1526 76.7129 56.6243 70.496 52.2622C61.6004 49.4064 64.6093 70.4295 60.9339 69.545C59.1264 69.7371 57.5502 69.419 55.4214 68.4532C50.0374 69.8121 60.6996 72.6024 62.3804 71.3953C61.1368 85.3889 76.7085 94.3619 82.0849 78.6964C82.3161 76.7673 86.1226 76.3622 87.1955 74.2473C85.8573 84.0709 95.7074 88.5754 101.055 80.0017C104.494 84.2624 112.341 82.3485 115.887 77.9227C115.125 86.1064 116.142 95.2143 112.558 103.598C108.262 112.12 92.6393 103.716 101.946 96.5682C105.186 93.7616 110.595 92.7806 114.25 90.1951C115.765 87.0773 112.056 89.0126 109.876 90.3066C81.0152 100.184 108.483 118.008 115.376 103.851C118.486 93.0257 117.567 82.5053 118.127 71.1345C118.297 67.1283 116.339 62.8399 112.222 60.8812V60.8812Z" fill="#4395A1"/>
<path fill-rule="evenodd" clip-rule="evenodd" d="M90.8712 59.0229C89.9337 60.6131 86.1273 58.999 85.7178 56.845C85.4336 55.0332 88.2037 54.4145 87.8383 56.7934C88.3241 57.751 90.9556 57.1922 90.8712 59.0229" fill="#4395A1"/>
<path fill-rule="evenodd" clip-rule="evenodd" d="M73.2564 56.2913C70.6942 56.4621 67.8025 56.7279 64.58 57.065C63.7629 55.9473 73.3868 54.1909 73.2564 56.2913Z" fill="#F5F5F7"/>
<path fill-rule="evenodd" clip-rule="evenodd" d="M87.7076 55.6287C87.145 55.6287 86.5729 55.6388 86.011 55.6684C86.2957 55.1833 87.0889 54.988 87.7076 55.6287Z" fill="#F5F5F7"/>
<path fill-rule="evenodd" clip-rule="evenodd" d="M86.4826 58.2601C86.2016 57.9987 85.9805 57.6969 85.8501 57.3762C86.9721 57.2521 87.2947 56.2832 89.0133 57.4965C88.1899 57.7983 87.3161 58.0383 86.4826 58.2601Z" fill="#F5F5F7"/>
<path fill-rule="evenodd" clip-rule="evenodd" d="M65.3733 63.4619C64.5398 63.6622 63.7157 63.8638 62.8923 64.0843C62.9169 62.2693 69.8872 61.798 72.8747 60.7604C72.4129 62.9283 67.7333 62.4866 65.3733 63.4619" fill="#F5F5F7"/>
<path fill-rule="evenodd" clip-rule="evenodd" d="M66.1762 80.1827C65.5286 80.0315 63.895 81.2625 63.6455 79.5502C64.3769 79.5835 65.7151 78.5119 66.1762 80.1827Z" fill="#F5F5F7"/>
<path fill-rule="evenodd" clip-rule="evenodd" d="M82.275 77.6719C82.6133 78.8022 80.7561 78.891 79.995 78.8872C80.0492 78.639 80.0278 78.8576 80.2061 77.9832C79.8042 78.0033 79.3726 78.0033 78.9209 77.9832C80.0347 77.883 81.1599 77.7721 82.275 77.6719" fill="#F5F5F7"/>
<path fill-rule="evenodd" clip-rule="evenodd" d="M60.3117 69.8893C62.0794 70.0096 63.8466 70.0896 65.6245 70.14C65.5029 70.4739 64.4457 70.2087 64.3985 71.1644C56.6759 71.286 47.8307 68.5858 60.3117 69.8893" fill="#F5F5F7"/>
<path fill-rule="evenodd" clip-rule="evenodd" d="M71.9808 70.2405C71.7805 70.5719 71.7402 70.9537 71.8202 71.3651C69.2611 71.9415 66.7657 69.9211 71.9808 70.2405Z" fill="#F5F5F7"/>
<path fill-rule="evenodd" clip-rule="evenodd" d="M80.849 70.1907C81.0796 70.5316 81.2906 70.8837 81.4613 71.2548C80.1925 71.1918 79.4705 71.7998 77.9062 70.2304C78.8909 70.2203 79.8649 70.2103 80.849 70.1907" fill="#F5F5F7"/>
<path fill-rule="evenodd" clip-rule="evenodd" d="M89.4253 70.9838C88.5616 71.014 87.7073 71.0442 86.8442 71.0745C87.0087 69.9033 87.9493 70.006 89.5356 70.0098C89.5054 70.3311 89.465 70.6625 89.4253 70.9838" fill="#F5F5F7"/>
<path fill-rule="evenodd" clip-rule="evenodd" d="M89.4752 77.0192C89.5558 77.3405 89.6459 77.6625 89.7562 77.9932C87.4472 78.7215 85.4035 77.1062 89.4752 77.0192Z" fill="#F5F5F7"/>
<path fill-rule="evenodd" clip-rule="evenodd" d="M101.828 75.8945C101.948 76.236 102.089 76.5573 102.249 76.8584C101.496 76.929 100.743 76.9888 99.99 77.0594C100.101 76.5989 100.112 76.9221 99.8489 76.0753C100.512 76.0149 101.164 75.955 101.828 75.8945Z" fill="#F5F5F7"/>
<path fill-rule="evenodd" clip-rule="evenodd" d="M118.047 74.418C118.251 76.0245 116.899 75.3554 115.134 75.6836C115.627 74.5963 115.863 74.4973 118.047 74.418Z" fill="#F5F5F7"/>
<path fill-rule="evenodd" clip-rule="evenodd" d="M99.4775 69.6278C100.211 69.5881 100.944 69.5578 101.677 69.5276C101.73 70.7006 100.855 70.5847 99.3572 70.5917C99.3868 70.271 99.4271 69.9497 99.4775 69.6278" fill="#F5F5F7"/>
<path fill-rule="evenodd" clip-rule="evenodd" d="M118.127 71.1345C117.745 70.8749 116.029 71.4772 116.208 69.8386C116.576 70.0817 118.405 69.4782 118.127 71.1345Z" fill="#F5F5F7"/>
<path fill-rule="evenodd" clip-rule="evenodd" d="M73.2262 86.1782C73.9696 86.2985 74.7123 86.3993 75.4658 86.4799C74.0137 86.8478 72.5558 87.0576 70.4649 86.7307C70.5449 86.6601 70.6148 86.6103 70.6955 86.5499C69.5111 86.2279 68.4564 85.6761 67.5322 84.9629C69.0997 85.3485 70.8649 85.7844 73.2262 86.1782" fill="#F5F5F7"/>
<path fill-rule="evenodd" clip-rule="evenodd" d="M111.569 108.041C110.362 109.095 108.238 107.826 106.578 106.997C108.196 106.852 109.625 107.153 111.569 108.041Z" fill="#F5F5F7"/>
<path fill-rule="evenodd" clip-rule="evenodd" d="M114.642 89.0304C113.718 89.1306 112.774 89.2213 111.83 89.3316C112.323 89.1722 113.927 87.441 114.642 89.0304Z" fill="#F5F5F7"/>
<path fill-rule="evenodd" clip-rule="evenodd" d="M102.36 96.2108H102.379C101.615 97.0487 101.269 97.0096 99.1564 96.3815C99.1179 96.2102 99.1268 96.3771 99.5331 95.8706C99.9521 95.0781 100.52 95.8171 102.36 96.2108Z" fill="#F5F5F7"/>
<path fill-rule="evenodd" clip-rule="evenodd" d="M116.63 98.2996C116.758 99.6289 115.71 99.1879 114.18 99.0027C114.123 97.6904 115.101 98.1213 116.63 98.2996Z" fill="#F5F5F7"/>
<path fill-rule="evenodd" clip-rule="evenodd" d="M117.655 87.6646C117.811 88.8886 117.455 88.7299 115.295 88.9598C115.114 87.7181 116.12 87.8435 117.655 87.6646Z" fill="#F5F5F7"/>
<path fill-rule="evenodd" clip-rule="evenodd" d="M117.785 84.3601C117.063 84.2801 116.329 84.2197 115.606 84.1693C115.626 83.8883 115.646 83.6073 115.656 83.3257C116.38 83.366 117.092 83.4265 117.805 83.4863C117.805 83.778 117.796 84.0691 117.785 84.3601" fill="#F5F5F7"/>
<path fill-rule="evenodd" clip-rule="evenodd" d="M112.212 60.8809C109.241 61.1808 105.623 61.5519 102.531 62.6683C104.461 60.5004 109.113 59.4238 112.212 60.8809" fill="#F5F5F7"/>
<path fill-rule="evenodd" clip-rule="evenodd" d="M100.914 65.0388L103.745 65.0085C103.292 66.1438 102.214 66.1419 100.442 66.0732C100.583 65.7217 100.743 65.3695 100.914 65.0388Z" fill="#F5F5F7"/>
<path fill-rule="evenodd" clip-rule="evenodd" d="M116.419 64.5663C115.669 64.6167 114.45 65.6499 113.668 64.2053C114.343 64.3073 115.817 63.0158 116.419 64.5663Z" fill="#F5F5F7"/>
<path fill-rule="evenodd" clip-rule="evenodd" d="M89.8167 66.495C89.164 66.786 88.4811 67.0065 87.7679 67.1376C87.5487 66.0786 88.3947 65.957 89.7259 65.4599C89.8135 65.8902 89.787 65.6457 89.8167 66.495Z" fill="#F5F5F7"/>
<path fill-rule="evenodd" clip-rule="evenodd" d="M62.6613 75.774C62.6405 75.5818 62.6165 75.4287 62.551 74.7899C63.1243 75.0356 64.8782 74.2223 64.71 75.8647C64.0271 75.8439 63.3442 75.8137 62.6613 75.774Z" fill="#F5F5F7"/>
<path fill-rule="evenodd" clip-rule="evenodd" d="M74.8935 74.9809C75.1745 75.1214 75.4561 75.2518 75.7465 75.3721C74.4708 75.2379 72.2941 76.5666 70.8867 74.7799C72.0012 75.0325 73.3992 73.9282 74.8935 74.9809" fill="#F5F5F7"/>
<path fill-rule="evenodd" clip-rule="evenodd" d="M82.1742 73.4139C83.0178 74.25 80.6313 75.4217 80.2162 74.2084C80.0246 73.4039 81.0849 73.6344 82.1742 73.4139Z" fill="#F5F5F7"/>
<path fill-rule="evenodd" clip-rule="evenodd" d="M85.7093 72.9623C86.8943 72.8313 88.0693 72.7211 89.2543 72.6511C89.4937 74.2261 86.3658 73.6333 84.615 74.0774C85.0163 73.7454 85.3779 73.3637 85.7093 72.9623Z" fill="#F5F5F7"/>
<path fill-rule="evenodd" clip-rule="evenodd" d="M101.285 72.5003C101.285 72.8311 101.305 73.1631 101.325 73.4844C100.812 73.2582 98.9365 74.1585 99.2969 72.5003H101.285Z" fill="#F5F5F7"/>
<path fill-rule="evenodd" clip-rule="evenodd" d="M118.127 72.5305C118.389 73.7395 117.516 73.4906 116.089 73.444C116.173 72.4039 116.326 72.3957 118.127 72.5305Z" fill="#F5F5F7"/>
<path fill-rule="evenodd" clip-rule="evenodd" d="M79.7742 83.4668C78.9439 85.0777 75.8537 84.9555 73.9618 85.852C72.6521 86.1594 72.4996 87.2833 70.4653 86.7308C72.8675 84.8339 76.216 83.8832 79.7742 83.4668Z" fill="#F5F5F7"/>
<path fill-rule="evenodd" clip-rule="evenodd" d="M117.926 78.4656C118.514 80.4697 106.379 79.6456 104.684 80.5339C100.362 80.3424 91.0886 84.358 88.9832 82.1713C90.802 81.6055 93.7176 81.7593 96.2641 81.7914C98.7343 80.8968 98.5799 80.1496 101.946 79.9587C104.283 79.2411 106.276 80.052 109 79.9335C111.86 78.8228 114.272 78.4436 117.926 78.4656" fill="#F5F5F7"/>
<path fill-rule="evenodd" clip-rule="evenodd" d="M105.453 94.1621C105.825 94.0613 106.206 93.9611 106.588 93.8704C104.036 95.0434 101.473 96.7999 98.0718 97.8677C98.7352 95.8026 103.078 95.0018 105.453 94.1621Z" fill="#F5F5F7"/>
<path fill-rule="evenodd" clip-rule="evenodd" d="M117.414 91.6009C117.657 92.8672 116.498 92.7374 114.943 93.0373C114.742 91.7855 115.857 91.8901 117.414 91.6009Z" fill="#F5F5F7"/>
<path fill-rule="evenodd" clip-rule="evenodd" d="M99.2167 102.989C99.337 103.311 99.5077 103.633 99.7389 103.953C99.1259 103.779 97.3682 104.857 97.2681 103.14C97.9207 103.09 98.5734 103.039 99.2167 102.989Z" fill="#F5F5F7"/>
<path fill-rule="evenodd" clip-rule="evenodd" d="M116.168 100.88C116.309 101.969 114.918 102.21 113.206 102.216C113.431 100.892 114.193 100.998 116.168 100.88Z" fill="#F5F5F7"/>
<path fill-rule="evenodd" clip-rule="evenodd" d="M32.8452 141.382C28.3823 145.495 20.6938 145.032 14.4417 144.821C11.5248 144.157 6.99128 145.626 5.32808 142.277C5.2109 135.316 5.12081 127.354 5.13782 120.222C5.43329 115.905 4.56578 109.431 4.89527 105.97C7.42598 103.21 19.808 104.378 15.0855 108.19C11.0838 109.081 13.6579 114.267 13.1728 116.731C13.1974 123.833 13.1634 130.902 13.3039 138.537C12.7722 142.035 16.2139 139.978 19.1673 140.398C20.6314 139.955 25.7502 141.27 25.3287 138.801C25.1107 136.65 21.9966 136.096 22.2795 134.502C25.902 129.41 35.8919 135.888 32.8452 141.382" fill="#F5F5F7"/>
<path fill-rule="evenodd" clip-rule="evenodd" d="M7.75901 110.762C7.95494 112.487 4.39229 114.403 4.91708 110.889C4.11761 108.329 7.21091 108.44 7.75901 110.762" fill="#4395A1"/>
<path fill-rule="evenodd" clip-rule="evenodd" d="M9.83186 116.061C8.21717 117.246 10.116 120.806 12.3594 118.943C14.1493 117.473 11.8132 114.736 9.83186 116.061" fill="#4395A1"/>
<path fill-rule="evenodd" clip-rule="evenodd" d="M7.92028 127.293C4.79989 126.302 4.73059 131.067 7.53409 130.502C8.8237 130.414 9.61057 128.226 7.92028 127.293" fill="#4395A1"/>
<path fill-rule="evenodd" clip-rule="evenodd" d="M11.0568 135.272C9.10123 135.401 8.8423 138.696 11.3314 138.775C13.2857 138.646 13.5446 135.352 11.0568 135.272Z" fill="#4395A1"/>
<path fill-rule="evenodd" clip-rule="evenodd" d="M26.3416 134.54C24.2897 134.675 24.0181 138.132 26.6295 138.215C28.6808 138.081 28.9529 134.624 26.3416 134.54Z" fill="#4395A1"/>
<path fill-rule="evenodd" clip-rule="evenodd" d="M32.8453 141.382C31.71 142.873 28.8202 144.463 28.9368 140.603C29.5624 138.699 32.7533 138.935 32.8453 141.382Z" fill="#4395A1"/>
<path fill-rule="evenodd" clip-rule="evenodd" d="M21.4371 143.24C19.9679 143.484 18.8389 140.31 21.2103 140.336C23.0329 139.934 23.5432 142.876 21.4371 143.24Z" fill="#4395A1"/>
<path fill-rule="evenodd" clip-rule="evenodd" d="M15.4014 144.877C14.5452 144.83 13.1485 144.739 11.6353 144.616C11.3511 141.987 15.8405 141.652 15.4014 144.877Z" fill="#4395A1"/>
<path fill-rule="evenodd" clip-rule="evenodd" d="M7.14631 144.074C5.89387 143.597 5.08495 142.775 5.3086 140.91C6.9277 140.859 7.84498 142.85 7.14631 144.074" fill="#4395A1"/>
<path fill-rule="evenodd" clip-rule="evenodd" d="M15.6925 105.591C15.5539 107.023 13.6418 108.206 12.2174 106.76C9.8253 103.771 14.7784 104.465 15.6925 105.591Z" fill="#4395A1"/>
<path fill-rule="evenodd" clip-rule="evenodd" d="M8.51198 105.479C7.01762 105.859 7.71251 108.818 9.7556 107.568C10.6678 106.698 10.0227 105.29 8.51198 105.479Z" fill="#4395A1"/>
<path fill-rule="evenodd" clip-rule="evenodd" d="M11.181 111.103C8.49221 111.671 11.5748 115.526 12.5097 112.24C12.4467 111.808 12.1254 111.268 11.181 111.103Z" fill="#4395A1"/>
<path fill-rule="evenodd" clip-rule="evenodd" d="M6.08553 118.928C4.6548 118.928 4.83876 121.142 6.25815 121.142C7.69014 121.142 7.50618 118.928 6.08553 118.928Z" fill="#4395A1"/>
<path fill-rule="evenodd" clip-rule="evenodd" d="M10.6783 122.652C9.08563 122.652 9.29038 125.117 10.8717 125.117C12.4643 125.117 12.2596 122.652 10.6783 122.652Z" fill="#4395A1"/>
<path fill-rule="evenodd" clip-rule="evenodd" d="M6.18407 134.254C5.27309 134.728 5.86529 136.993 7.47431 136.119C8.60894 135.332 7.6463 133.583 6.18407 134.254Z" fill="#4395A1"/>
<path fill-rule="evenodd" clip-rule="evenodd" d="M13.2321 132.956C11.8197 133.498 10.8091 131.135 12.6903 130.616C13.6284 130.526 13.0771 131.736 13.2321 132.956Z" fill="#4395A1"/>
<path fill-rule="evenodd" clip-rule="evenodd" d="M27.4423 144.114C27.1449 143.92 25.3299 145.179 25.0684 144.12C24.9286 142.61 27.2092 142.517 27.4423 144.114Z" fill="#4395A1"/>
<path fill-rule="evenodd" clip-rule="evenodd" d="M32.7148 136.803C31.8328 137.526 30.0972 136.034 31.1688 134.905C31.548 135.279 32.0955 135.87 32.7148 136.803Z" fill="#4395A1"/>
<path fill-rule="evenodd" clip-rule="evenodd" d="M16.4659 141.794C15.9997 141.967 14.3674 140.186 16.0211 140.465C17.2578 140.078 18.1852 141.157 16.4659 141.794Z" fill="#4395A1"/>
<path fill-rule="evenodd" clip-rule="evenodd" d="M79.955 114.87C79.989 117.186 73.8591 116.857 71.8708 117.34C72.7598 115.586 77.602 115.647 79.955 114.87Z" fill="#4395A1"/>
<path fill-rule="evenodd" clip-rule="evenodd" d="M79.8946 117.581C80.1875 120.446 74.0923 120.893 71.7701 122.642C70.9813 119.743 77.476 118.872 79.8946 117.581Z" fill="#4395A1"/>
<path fill-rule="evenodd" clip-rule="evenodd" d="M89.8067 108.261C87.1236 109.599 83.2919 110.851 80.0651 111.113C78.5323 112.49 74.3812 113.204 71.9311 114.297C71.3175 111.931 89.9075 107.465 89.8067 108.261Z" fill="#4395A1"/>
<path fill-rule="evenodd" clip-rule="evenodd" d="M78.3479 106.866C74.0305 109.343 70.3595 111.317 65.2527 111.857C69.4365 110.368 73.6128 107.142 78.3479 106.866Z" fill="#4395A1"/>
<path fill-rule="evenodd" clip-rule="evenodd" d="M69.8922 106.856C67.4913 107.797 63.9979 112.612 61.4968 110.903C63.8707 109.434 66.5154 106.233 69.8922 106.856" fill="#4395A1"/>
<path fill-rule="evenodd" clip-rule="evenodd" d="M65.1019 106.725C63.6554 107.508 62.1894 108.242 60.7537 109.025C60.9742 107.6 63.251 106.697 65.1019 106.725Z" fill="#4395A1"/>
<path fill-rule="evenodd" clip-rule="evenodd" d="M79.8344 121.467C80.356 124.553 74.0308 125.344 71.6393 126.449C70.9186 123.723 77.7629 123.189 79.8344 121.467Z" fill="#4395A1"/>
<path fill-rule="evenodd" clip-rule="evenodd" d="M77.7456 128.357C75.9381 130.375 73.5977 131.63 71.1879 132.786C70.7992 131.01 73.3356 130.493 74.903 129.351C73.718 129.723 72.543 130.134 71.3883 130.576C70.9095 129.7 78.0996 126.387 77.7456 128.357" fill="#4395A1"/>
<path fill-rule="evenodd" clip-rule="evenodd" d="M79.4123 130.767C79.6233 133.76 73.145 134.08 70.8669 135.467C71.4932 132.996 77.0983 131.944 79.4123 130.767Z" fill="#4395A1"/>
<path fill-rule="evenodd" clip-rule="evenodd" d="M78.9812 134.854C77.5152 137.338 72.6679 139.13 69.9123 140.97C69.6446 138.479 77.0842 136.337 78.9812 134.854Z" fill="#4395A1"/>
<path fill-rule="evenodd" clip-rule="evenodd" d="M78.1776 139.504C78.0705 141.483 74.7844 142.844 72.3123 142.477C73.9427 141.666 76.1691 140.568 78.1776 139.504Z" fill="#4395A1"/>
<path fill-rule="evenodd" clip-rule="evenodd" d="M111.448 116.195C110.651 117.328 106.781 114.554 104.951 114.056C106.609 114.138 110.411 114.009 111.448 116.195Z" fill="#4395A1"/>
<path fill-rule="evenodd" clip-rule="evenodd" d="M109.751 117.953C105.162 118.801 98.3635 116.126 94.2654 114.127C94.976 114.091 95.6098 114.098 96.8263 114.077C100.874 115.412 105.324 116.49 109.751 117.953Z" fill="#4395A1"/>
<path fill-rule="evenodd" clip-rule="evenodd" d="M103.545 121.227C103.223 121.176 102.902 121.107 102.59 121.056C103.392 121.856 104.988 121.765 104.458 123.988C103.483 123.05 98.3246 120.792 98.1841 119.145C99.2009 118.77 105.403 119.343 104.609 121.437C104.238 121.377 103.876 121.287 103.545 121.227" fill="#4395A1"/>
<path fill-rule="evenodd" clip-rule="evenodd" d="M104.348 125.826C104.328 126.157 104.309 126.479 104.278 126.8C102.15 125.557 95.9895 126.758 96.4443 123.667C98.7501 124.176 101.707 124.804 104.348 125.826Z" fill="#4395A1"/>
<path fill-rule="evenodd" clip-rule="evenodd" d="M104.037 130.586C104.017 130.938 103.997 131.289 103.967 131.63C101.836 129.76 95.7476 131.133 96.1742 127.945C98.3716 128.717 101.56 129.155 104.037 130.586Z" fill="#4395A1"/>
<path fill-rule="evenodd" clip-rule="evenodd" d="M103.575 137.265C103.535 137.727 103.505 138.188 103.464 138.65C101.228 136.786 94.888 136.984 95.8021 133.528C98.5136 134.523 101.165 135.769 103.575 137.265" fill="#4395A1"/>
<path fill-rule="evenodd" clip-rule="evenodd" d="M103.846 133.458C103.816 133.911 103.786 134.352 103.756 134.794C99.0848 133.547 95.2815 130.439 103.846 133.458Z" fill="#4395A1"/>
<path fill-rule="evenodd" clip-rule="evenodd" d="M98.6544 141.312C98.1845 140.471 95.4704 140.338 95.4207 138.841C96.0381 138.802 101.798 141.336 98.6544 141.312Z" fill="#4395A1"/>
<path fill-rule="evenodd" clip-rule="evenodd" d="M103.394 139.675C103.308 139.981 103.533 139.648 103.194 140.991C91.5495 135.265 96.9959 136.878 103.394 139.675Z" fill="#4395A1"/>
<path fill-rule="evenodd" clip-rule="evenodd" d="M97.0573 122.131C96.8331 122.058 96.3877 121.703 96.6157 120.784C96.8299 121.017 98.5234 122.281 97.0573 122.131Z" fill="#4395A1"/>
<path fill-rule="evenodd" clip-rule="evenodd" d="M94.1046 118.154C93.4734 117.577 90.2509 117.325 90.857 115.554C91.0309 115.65 91.1109 114.508 91.7447 115.472C91.8587 116.085 95.2405 117.357 94.1046 118.154" fill="#4395A1"/>
</svg>
