<svg width="112" height="220" viewBox="0 0 112 220" fill="none" xmlns="http://www.w3.org/2000/svg">
<path fill-rule="evenodd" clip-rule="evenodd" d="M79.0615 155.156C77.7857 151.149 77.3416 148.672 78.0352 144.997C78.7458 142.008 82.8169 141.494 83.1609 146.583C83.096 150.276 80.8003 152.282 79.0615 155.156ZM64.007 153.515C63.7972 152.48 63.6391 150.744 63.8237 149.124C67.2691 139.695 70.2459 149.349 64.007 153.515ZM50.685 127.712C54.1884 128.05 51.177 137.694 49.6871 139.655C50.2963 136.166 48.5657 130.427 50.685 127.712V127.712ZM105.872 136.851C101.597 133.415 96.0948 135.637 94.4202 140.737C93.5804 136.331 94.9507 118.173 90.8683 121.292C90.6245 131.076 94.2331 160.093 82.3016 159.591C80.3561 158.544 79.905 157.911 81.9034 155.845C92.8181 141.253 77.591 133.782 75.386 145.259C74.0498 150.16 76.9535 153.904 76.5131 157.883C73.496 161.6 64.1235 160.148 65.473 155.642C66.8023 154.499 68.0579 153.21 69.2253 151.546C74.5286 144.298 66.5364 138.44 62.1453 145.205C58.5606 152.555 65.2777 154.842 58.2299 157.326C46.6417 163.397 49.2776 149.063 50.1287 143.344C54.6805 137.944 57.1507 127.813 51.5809 123.533C44.0083 120.952 48.0781 139.881 47.0883 143.147C45.8472 144.56 43.767 146.463 41.9267 147.93C41.1852 141.003 34.174 138.558 29.4912 134.651C20.1369 122.435 40.8501 120.204 34.3157 130.893C34.1393 131.664 34.6326 132.398 35.5064 132.624C37.9603 132.023 38.2967 127.56 37.8595 125.74C34.4782 116.218 22.8793 122.695 24.821 131.136C25.8271 138.024 34.4121 139.95 37.9294 144.632C42.2027 149.977 37.7133 158.973 31.3736 159.708C19.7772 161.994 14.6792 146.313 23.9623 147.251C25.8151 148.275 25.7653 150.483 24.7252 152.269C24.9193 153.65 26.3153 153.613 27.69 152.811C30.2774 151.327 29.8049 148.522 28.1278 146.34C22.4024 139.637 14.0826 148.132 17.0102 153.935C22.834 167.294 41.3856 163.776 42.0754 150.316C42.4585 150.429 45.7351 148.044 46.8968 146.919C44.8197 164.562 54.7945 163.995 62.7023 157.76C65.422 163.767 73.7329 163.917 78.3937 159.658C85.0584 167.218 91.4617 157.552 92.529 150.975C92.9725 159.706 91.7074 168.985 92.4162 177.894C92.6291 180.285 96.772 183.741 96.5477 179.225C96.4583 167.299 94.1437 156.378 96.0803 144.822C100.141 124.374 117.257 153.574 104.596 153.196C99.8546 151.552 105.561 147.367 102.609 146.643C99.5692 146.992 98.2135 150.253 98.6475 152.285C104.229 165.453 120.129 149.798 105.872 136.851" fill="#F5F5F7"/>
<path fill-rule="evenodd" clip-rule="evenodd" d="M46.495 193.998C45.3157 197.02 40.3948 200.567 38.1488 195.755C39.4731 196.445 41.8986 194.551 40.0098 193.392C37.3273 193.19 35.911 192.118 36.2796 189.838C40.2051 175.305 49.4497 185.11 46.495 193.998V193.998ZM49.5071 193.868C49.8177 169.414 29.279 182.459 35.1286 194.039C35.0272 194.156 34.9541 194.984 34.3757 195.834C31.8513 199.821 25.9741 199.196 24.6082 193.823C23.8138 190.42 25.7586 186.03 26.02 182.255C22.4013 176.262 22.7705 192.442 19.9846 194.107C12.894 201.888 8.6667 194.74 9.02895 187.417C9.42144 183.53 7.47222 177.517 10.6373 177.458C15.1362 177.359 13.0817 173.736 9.36474 175.096C9.11085 172.433 12.4076 164.127 8.80341 165.371C5.82792 167.935 9.1581 175.675 5.12799 176.14C-3.49104 178.907 0.842728 181.642 6.61794 178.332C6.55179 183.828 5.85438 190.565 7.98945 196.009C10.946 201.965 19.2501 200.269 22.3308 195.196C23.9587 201.369 31.8475 202.828 35.6061 198.432C37.99 201.434 43.6153 201.382 46.5738 198.252C45.4354 229.217 28.0738 212.317 42.5815 206.529C43.0464 205.281 41.6598 203.961 40.2524 204.978C21.9931 215.018 49.6495 236.184 49.5071 193.868" fill="#F5F5F7"/>
<path fill-rule="evenodd" clip-rule="evenodd" d="M75.1536 194.295C75.1624 193.16 73.6466 192.621 72.8994 193.339C68.3439 199.922 66.3695 193.808 68.0339 189.342C69.2542 184.415 63.944 178.287 59.3777 182.252C60.0506 178.998 67.3031 163.645 59.8282 166.029C56.3625 169.701 58.565 175.756 56.7563 180.375C55.5108 183.725 53.1955 186.724 52.386 190.405C54.1601 192.756 55.3243 189.373 56.251 187.531C56.3726 191.016 53.3782 201.425 56.8029 200.263C60.237 196.351 57.8701 183.999 62.7615 183.725C68.6192 185.121 63.2384 193.778 65.1246 197.258C67.5621 203.811 75.1063 199.662 75.1536 194.295" fill="#F5F5F7"/>
<path fill-rule="evenodd" clip-rule="evenodd" d="M92.2485 192.542C77.8442 207.175 81.5045 183.095 82.0016 175.402C83.443 174.411 87.0201 175.559 88.4502 173.803C88.9939 170.76 84.1807 172.536 82.178 172.722C82.3613 171.111 83.1236 165.145 80.0271 167.886C79.0582 169.456 80.8291 172.756 78.885 173.892C75.2417 174.813 75.3771 179.209 79.3997 176.463C73.3876 218.337 101.326 190.1 92.2485 192.542" fill="#F5F5F7"/>
<path fill-rule="evenodd" clip-rule="evenodd" d="M33.3171 173.304C28.1391 175.241 29.6221 176.519 28.9871 179.365C25.5448 175.04 24.7875 176.844 21.8845 177.121C24.9343 172.509 22.9844 172.347 21.824 169.672C27.1519 171.148 26.7033 169.243 28.8901 167.313C29.1326 172.836 30.8065 171.821 33.3171 173.304" fill="#F4B955"/>
<path fill-rule="evenodd" clip-rule="evenodd" d="M40.9497 60.3614C40.4236 61.2364 36.4836 60.0766 36.832 60.3481C33.9737 66.1864 33.2378 61.8299 33.5062 59.5071C26.9164 58.7612 31.0473 56.8057 33.1818 55.9917C32.1429 49.5953 34.7353 52.996 36.3677 54.7185C42.347 50.9101 39.3009 55.8518 38.7006 57.3664C39.1189 57.704 41.242 59.4743 40.9497 60.3614" fill="#F4B955"/>
<path fill-rule="evenodd" clip-rule="evenodd" d="M56.6055 76.8325C56.7409 77.104 56.6729 77.2395 56.6055 76.8325C56.5141 76.7103 56.0145 77.6666 56.6055 76.8325ZM56.6055 76.8325C56.7409 77.104 56.6729 77.2395 56.6055 76.8325C56.5141 76.7103 56.0145 77.6666 56.6055 76.8325ZM49.8494 78.9411C49.6849 78.9965 49.8405 78.9323 49.6629 79.2964C49.7731 79.2032 49.8664 79.0765 49.9256 78.9411H49.8494ZM56.6055 76.8325C56.7409 77.104 56.6729 77.2395 56.6055 76.8325C56.5141 76.7103 56.0145 77.6666 56.6055 76.8325ZM49.8494 78.9411C49.6849 78.9965 49.8405 78.9323 49.6629 79.2964C49.7731 79.2032 49.8664 79.0765 49.9256 78.9411H49.8494ZM56.6055 76.8325C56.7409 77.104 56.6729 77.2395 56.6055 76.8325C56.5141 76.7103 56.0145 77.6666 56.6055 76.8325ZM49.8494 78.9411C49.6849 78.9965 49.8405 78.9323 49.6629 79.2964C49.7731 79.2032 49.8664 79.0765 49.9256 78.9411H49.8494ZM56.6055 76.8325C56.7409 77.104 56.6729 77.2395 56.6055 76.8325C56.5141 76.7103 56.0145 77.6666 56.6055 76.8325ZM49.8494 78.9411C49.6849 78.9965 49.8405 78.9323 49.6629 79.2964C49.7731 79.2032 49.8664 79.0765 49.9256 78.9411H49.8494ZM56.6055 76.8325C56.7409 77.104 56.6729 77.2395 56.6055 76.8325C56.5141 76.7103 56.0145 77.6666 56.6055 76.8325ZM49.8494 78.9411C49.6849 78.9965 49.8405 78.9323 49.6629 79.2964C49.7731 79.2032 49.8664 79.0765 49.9256 78.9411H49.8494ZM56.6055 76.8325C56.7409 77.104 56.6729 77.2395 56.6055 76.8325C56.5141 76.7103 56.0145 77.6666 56.6055 76.8325ZM49.8494 78.9411C49.6849 78.9965 49.8405 78.9323 49.6629 79.2964C49.7731 79.2032 49.8664 79.0765 49.9256 78.9411H49.8494ZM56.6055 76.8325C56.7409 77.104 56.6729 77.2395 56.6055 76.8325C56.5141 76.7103 56.0145 77.6666 56.6055 76.8325ZM49.8494 78.9411C49.6849 78.9965 49.8405 78.9323 49.6629 79.2964C49.7731 79.2032 49.8664 79.0765 49.9256 78.9411H49.8494ZM56.6055 76.8325C56.7409 77.104 56.6729 77.2395 56.6055 76.8325C56.5141 76.7103 56.0145 77.6666 56.6055 76.8325ZM49.8494 78.9411C49.6849 78.9965 49.8405 78.9323 49.6629 79.2964C49.7731 79.2032 49.8664 79.0765 49.9256 78.9411H49.8494ZM56.6055 76.8325C56.7409 77.104 56.6729 77.2395 56.6055 76.8325C56.5141 76.7103 56.0145 77.6666 56.6055 76.8325ZM49.8494 78.9411C49.6849 78.9965 49.8405 78.9323 49.6629 79.2964C49.7731 79.2032 49.8664 79.0765 49.9256 78.9411H49.8494ZM56.6055 76.8325C56.7409 77.104 56.6729 77.2395 56.6055 76.8325C56.5141 76.7103 56.0145 77.6666 56.6055 76.8325ZM49.8494 78.9411C49.6849 78.9965 49.8405 78.9323 49.6629 79.2964C49.7731 79.2032 49.8664 79.0765 49.9256 78.9411H49.8494ZM56.6055 76.8325C56.7409 77.104 56.6729 77.2395 56.6055 76.8325C56.5141 76.7103 56.0145 77.6666 56.6055 76.8325ZM49.8494 78.9411C49.6849 78.9965 49.8405 78.9323 49.6629 79.2964C49.7731 79.2032 49.8664 79.0765 49.9256 78.9411H49.8494ZM56.6055 76.8325C56.7409 77.104 56.6729 77.2395 56.6055 76.8325C56.5141 76.7103 56.0145 77.6666 56.6055 76.8325ZM49.8494 78.9411C49.6849 78.9965 49.8405 78.9323 49.6629 79.2964C49.7731 79.2032 49.8664 79.0765 49.9256 78.9411H49.8494ZM56.6055 76.8325C56.7409 77.104 56.6729 77.2395 56.6055 76.8325C56.5141 76.7103 56.0145 77.6666 56.6055 76.8325ZM49.8494 78.9411C49.6849 78.9965 49.8405 78.9323 49.6629 79.2964C49.7731 79.2032 49.8664 79.0765 49.9256 78.9411H49.8494ZM52.9483 82.8943C49.6295 84.5197 48.258 81.6419 47.6311 78.8819C48.1666 79.4627 50.5127 80.1469 49.8884 77.8934C47.3842 76.5061 46.7598 72.4855 48.6139 69.8244C54.2915 64.744 60.2091 79.5988 52.9483 82.8943V82.8943ZM59.8223 89.1005C59.5677 84.5601 59.9564 78.5606 58.3247 73.6831C56.4316 70.598 51.8446 63.0235 46.7252 67.2067C44.6789 69.469 45.7783 72.5434 46.0649 75.6978C44.1775 76.6095 42.5332 84.0435 39.0474 81.589C36.1072 79.9466 40.0711 68.0874 37.6015 65.2046C33.6294 66.4665 36.7945 82.5315 31.1239 83.2541C23.8556 83.6705 29.1841 74.063 28.0318 69.6454C27.3634 65.1573 20.1921 61.9437 16.8991 66.5295C13.8575 57.4946 12.898 92.1969 16.3063 83.1148C16.7221 79.0198 15.4217 70.5174 19.6711 66.7632C29.7259 64.2791 24.4654 76.4305 25.3373 82.1736C27.0062 87.3982 34.7306 86.0739 35.9988 80.6931C36.688 87.2407 43.4082 85.2619 45.7096 79.7028C47.0742 87.0675 53.8631 87.2489 57.4604 81.0825C57.7067 87.1796 58.4035 93.5558 57.4012 100.34C53.3074 111.276 39.2471 93.5785 54.735 92.1654C55.8936 91.8063 55.7814 90.7788 53.5739 90.9186C30.8927 93.581 62.7146 124.849 59.8223 89.1005V89.1005ZM49.6629 79.2794V79.2964C49.7731 79.2032 49.8664 79.0765 49.9256 78.9411C49.6969 78.9732 49.8374 78.9039 49.6629 79.2794ZM56.6055 76.8325C56.7409 77.104 56.6729 77.2395 56.6055 76.8325C56.5141 76.7103 56.0145 77.6666 56.6055 76.8325ZM49.8494 78.9411C49.6849 78.9965 49.8405 78.9323 49.6629 79.2964C49.7731 79.2032 49.8664 79.0765 49.9256 78.9411H49.8494ZM56.6055 76.8325C56.7409 77.104 56.6729 77.2395 56.6055 76.8325C56.5141 76.7103 56.0145 77.6666 56.6055 76.8325ZM49.8494 78.9411C49.6849 78.9965 49.8405 78.9323 49.6629 79.2964C49.7731 79.2032 49.8664 79.0765 49.9256 78.9411H49.8494ZM56.6055 76.8325C56.7409 77.104 56.6729 77.2395 56.6055 76.8325C56.5141 76.7103 56.0145 77.6666 56.6055 76.8325ZM49.8494 78.9411C49.6849 78.9965 49.8405 78.9323 49.6629 79.2964C49.7731 79.2032 49.8664 79.0765 49.9256 78.9411H49.8494ZM56.6055 76.8325C56.7409 77.104 56.6729 77.2395 56.6055 76.8325C56.5141 76.7103 56.0145 77.6666 56.6055 76.8325ZM49.8494 78.9411C49.6849 78.9965 49.8405 78.9323 49.6629 79.2964C49.7731 79.2032 49.8664 79.0765 49.9256 78.9411H49.8494ZM56.6055 76.8325C56.7409 77.104 56.6729 77.2395 56.6055 76.8325C56.5141 76.7103 56.0145 77.6666 56.6055 76.8325ZM49.8494 78.9411C49.6849 78.9965 49.8405 78.9323 49.6629 79.2964C49.7731 79.2032 49.8664 79.0765 49.9256 78.9411H49.8494ZM56.6055 76.8325C56.7409 77.104 56.6729 77.2395 56.6055 76.8325C56.5141 76.7103 56.0145 77.6666 56.6055 76.8325ZM49.8494 78.9411C49.6849 78.9965 49.8405 78.9323 49.6629 79.2964C49.7731 79.2032 49.8664 79.0765 49.9256 78.9411H49.8494ZM56.6055 76.8325C56.7409 77.104 56.6729 77.2395 56.6055 76.8325C56.5141 76.7103 56.0145 77.6666 56.6055 76.8325ZM49.8494 78.9411C49.6849 78.9965 49.8405 78.9323 49.6629 79.2964C49.7731 79.2032 49.8664 79.0765 49.9256 78.9411H49.8494ZM56.6055 76.8325C56.7409 77.104 56.6729 77.2395 56.6055 76.8325C56.5141 76.7103 56.0145 77.6666 56.6055 76.8325ZM49.8494 78.9411C49.6849 78.9965 49.8405 78.9323 49.6629 79.2964C49.7731 79.2032 49.8664 79.0765 49.9256 78.9411H49.8494ZM56.6055 76.8325C56.7409 77.104 56.6729 77.2395 56.6055 76.8325C56.5141 76.7103 56.0145 77.6666 56.6055 76.8325ZM49.8494 78.9411C49.6849 78.9965 49.8405 78.9323 49.6629 79.2964C49.7731 79.2032 49.8664 79.0765 49.9256 78.9411H49.8494ZM56.6055 76.8325C56.7409 77.104 56.6729 77.2395 56.6055 76.8325C56.5141 76.7103 56.0145 77.6666 56.6055 76.8325ZM49.8494 78.9411C49.6849 78.9965 49.8405 78.9323 49.6629 79.2964C49.7731 79.2032 49.8664 79.0765 49.9256 78.9411H49.8494ZM56.6055 76.8325C56.7409 77.104 56.6729 77.2395 56.6055 76.8325C56.5141 76.7103 56.0145 77.6666 56.6055 76.8325ZM49.8494 78.9411C49.6849 78.9965 49.8405 78.9323 49.6629 79.2964C49.7731 79.2032 49.8664 79.0765 49.9256 78.9411H49.8494ZM56.6055 76.8325C56.7409 77.104 56.6729 77.2395 56.6055 76.8325C56.5141 76.7103 56.0145 77.6666 56.6055 76.8325ZM49.8494 78.9411C49.6849 78.9965 49.8405 78.9323 49.6629 79.2964C49.7731 79.2032 49.8664 79.0765 49.9256 78.9411H49.8494ZM56.6055 76.8325C56.7409 77.104 56.6729 77.2395 56.6055 76.8325C56.5141 76.7103 56.0145 77.6666 56.6055 76.8325ZM56.6055 76.8325C56.7409 77.104 56.6729 77.2395 56.6055 76.8325C56.5141 76.7103 56.0145 77.6666 56.6055 76.8325Z" fill="#F5F5F7"/>
<path fill-rule="evenodd" clip-rule="evenodd" d="M66.1557 57.8851C67.2223 57.8177 66.3334 60.1796 65.7916 61.4667C65.9018 59.9087 66.0625 57.894 66.1557 57.8851ZM96.1179 80.7951C91.4445 85.0583 86.4423 84.2487 86.373 77.2557C86.5413 73.9319 87.2324 70.3484 87.49 66.4361C87.5379 65.8937 87.6116 65.064 87.7105 63.8374C88.1673 63.763 87.7446 63.8286 88.7551 63.6755C96.8525 64.0062 95.1471 60.3837 87.8718 61.7294C87.8743 60.0303 89.3989 50.9217 86.2458 54.6343C85.1767 56.8696 86.0064 61.1114 83.6401 62.8382C79.6982 63.5526 78.8464 67.6621 83.8921 64.9462C82.2466 69.3637 80.7831 84.2015 76.9653 83.814C73.717 81.0836 76.9382 75.905 75.5018 72.2044C74.4125 68.042 69.0342 65.4426 65.2328 68.7054C66.3964 65.2946 68.9233 61.3911 69.0342 57.6564C69.2452 54.7773 65.7928 53.0077 64.4264 56.3208C62.8866 60.2294 64.2846 63.8349 62.8797 68.0634C62.2579 69.5414 61.3123 70.7422 60.5796 72.687C60.8454 74.2954 62.365 74.0868 62.9301 72.4306C62.5383 72.9749 60.8877 89.3385 64.4289 84.5285C65.0009 80.2968 63.6805 75.0545 66.3321 70.7592C68.5371 67.7005 73.2439 69.7827 73.7497 73.9237C73.6735 78.752 71.2883 90.1059 79.8689 85.2347C83.5475 80.0347 83.2779 73.8248 85.2976 67.8417C79.3114 97.9374 104.131 79.9666 96.1179 80.7951" fill="#F5F5F7"/>
<path fill-rule="evenodd" clip-rule="evenodd" d="M24.9756 67.3332C25.2635 67.2576 25.2635 67.0963 24.9756 67.3332C24.3607 67.4195 24.704 66.2421 24.9756 67.3332ZM25.9999 66.1142C25.1299 65.2076 23.565 64.148 22.7573 66.4613C23.9424 66.8595 24.9075 67.8164 25.5174 68.9504C26.034 68.3053 27.7728 67.429 25.9999 66.1142" fill="#4395A1"/>
<path fill-rule="evenodd" clip-rule="evenodd" d="M37.5309 67.1813C37.4616 67.0534 37.3974 67.1025 37.5479 66.8083C37.4944 66.8707 37.8535 66.9224 37.5309 67.1813ZM37.1756 65.1829C35.4097 65.6523 37.7684 70.422 38.3191 67.7552C38.309 66.9324 38.7053 65.1325 37.1756 65.1829Z" fill="#4395A1"/>
<path fill-rule="evenodd" clip-rule="evenodd" d="M16.4921 76.6971C13.3358 81.4965 13.1563 70.1974 16.5602 75.1391C16.8645 75.6217 16.8311 76.0873 16.4921 76.6971Z" fill="#4395A1"/>
<path fill-rule="evenodd" clip-rule="evenodd" d="M38.3862 80.8118C36.718 83.6166 33.968 79.3616 36.7104 77.8061C38.5664 77.1144 37.6693 78.8771 38.3862 80.8118Z" fill="#4395A1"/>
<path fill-rule="evenodd" clip-rule="evenodd" d="M18.4228 68.0106C17.8129 68.9254 17.4576 70.0764 17.2031 71.194C15.3005 70.5508 15.8511 67.0228 18.4228 68.0106Z" fill="#4395A1"/>
<path fill-rule="evenodd" clip-rule="evenodd" d="M16.3906 79.4233C15.365 79.8479 14.2398 82.2602 16.3062 83.1144C16.3289 82.2772 16.2867 81.215 16.3906 79.4233Z" fill="#4395A1"/>
<path fill-rule="evenodd" clip-rule="evenodd" d="M36.5488 82.8943C36.7775 83.3309 36.9791 83.6869 37.6494 84.2829C37.6494 83.6655 37.1757 83.106 36.5488 82.8943Z" fill="#4395A1"/>
<path fill-rule="evenodd" clip-rule="evenodd" d="M38.2506 70.5337C38.1781 71.2872 38.306 72.7765 38.1069 74.1228C36.1879 74.6829 35.4559 70.2093 38.2506 70.5337Z" fill="#4395A1"/>
<path fill-rule="evenodd" clip-rule="evenodd" d="M31.3932 83.8431C29.3866 85.5321 29.1157 85.4849 29.9328 85.5567C30.646 83.3851 29.4225 83.964 29.1157 85.4849C30.9213 85.5605 33.4589 85.185 31.3932 83.8431ZM30.8085 84.9267C30.8003 84.9349 30.7915 84.9349 30.7915 84.9431C30.7915 84.9349 30.8003 84.9267 30.8003 84.9179C30.7411 84.9267 30.7159 84.909 30.7071 84.8838C30.6573 84.9512 30.6895 84.9015 30.7833 85.0193C30.7607 84.9922 30.7701 85.018 30.8085 84.9267" fill="#4395A1"/>
<path fill-rule="evenodd" clip-rule="evenodd" d="M28.0317 69.6447C27.2379 69.6756 25.501 72.515 27.5743 72.6334C28.6548 72.6857 28.147 70.94 28.0317 69.6447Z" fill="#4395A1"/>
<path fill-rule="evenodd" clip-rule="evenodd" d="M26.7111 75.1308C26.4824 74.9449 26.2115 74.8176 25.9236 74.7584C25.8474 75.1396 25.7629 75.5201 25.6867 75.9019C26.1598 76.4052 25.555 75.7362 25.407 77.2053C26.0912 77.2967 28.6994 76.077 26.7111 75.1308Z" fill="#4395A1"/>
<path fill-rule="evenodd" clip-rule="evenodd" d="M25.3989 80.4648C25.3649 80.2361 25.2295 79.9904 25.0436 79.7787C25.0178 80.3798 25.0518 80.9644 25.162 81.5232C25.3567 81.1925 25.45 80.8119 25.3989 80.4648Z" fill="#4395A1"/>
<path fill-rule="evenodd" clip-rule="evenodd" d="M27.6339 83.8345C27.5936 84.9798 27.1211 84.9401 25.9663 83.4111C26.2649 82.9909 27.3063 82.4585 27.6339 83.8345Z" fill="#4395A1"/>
<path fill-rule="evenodd" clip-rule="evenodd" d="M46.9709 75.8506C46.4291 76.8328 45.6674 77.1969 44.9221 76.9342C45.6643 75.9438 46.3718 75.2219 45.7348 73.0906C46.4253 73.4591 47.7174 74.5893 46.9709 75.8506Z" fill="#4395A1"/>
<path fill-rule="evenodd" clip-rule="evenodd" d="M51.8558 66.5292C51.2352 67.9379 48.6862 68.5843 48.1558 66.2829C49.0069 65.9546 50.4509 65.9055 51.8558 66.5292Z" fill="#4395A1"/>
<path fill-rule="evenodd" clip-rule="evenodd" d="M65.2408 58.5372C63.6374 57.0933 63.7464 59.4344 63.6072 61.2462C64.4268 61.165 66.5083 59.9024 65.2408 58.5372Z" fill="#4395A1"/>
<path fill-rule="evenodd" clip-rule="evenodd" d="M49.4007 77.5271C49.2401 77.4672 49.0876 77.3828 48.9433 77.2732C48.9471 77.4414 47.8534 79.6313 49.23 79.5103C49.9217 79.2955 50.5202 78.336 49.4007 77.5271Z" fill="#4395A1"/>
<path fill-rule="evenodd" clip-rule="evenodd" d="M68.5429 55.701C68.008 56.268 67.1877 58.3042 68.9662 58.4523C69.0903 57.7769 69.0406 56.8124 68.5429 55.701Z" fill="#4395A1"/>
<path fill-rule="evenodd" clip-rule="evenodd" d="M62.7737 70.7042C62.8127 67.219 65.2433 66.4031 65.5608 70.793C65.1563 72.0164 62.8953 72.7819 62.7737 70.7042Z" fill="#4395A1"/>
<path fill-rule="evenodd" clip-rule="evenodd" d="M71.7346 68.5779C71.569 70.5567 70.6838 69.2135 68.5349 69.3994C68.5172 68.8922 68.4952 69.2715 68.6867 68.2736C68.6048 67.3405 71.2036 66.4258 71.7346 68.5779Z" fill="#4395A1"/>
<path fill-rule="evenodd" clip-rule="evenodd" d="M63.5649 80.4562C62.2211 79.7449 62.0667 81.1694 62.3087 82.8893C62.337 83.4783 62.1719 83.9451 63.4798 83.4953C63.3393 82.8067 64.8998 81.7275 63.4798 83.4953C64.445 83.489 65.2161 81.4018 63.5649 80.4562ZM62.9802 81.5398C62.972 81.548 62.9639 81.548 62.9639 81.5568C62.9639 81.548 62.972 81.5398 62.972 81.5316C62.9128 81.5398 62.8876 81.5228 62.8788 81.4976C62.829 81.565 62.8612 81.5152 62.955 81.6331C62.9317 81.606 62.9424 81.6318 62.9802 81.5398" fill="#4395A1"/>
<path fill-rule="evenodd" clip-rule="evenodd" d="M64.4454 76.1047C64.2929 77.0188 63.2434 77.8744 62.2354 78.0344C62.2568 77.446 62.3103 76.5255 62.464 75.1994C62.9479 74.8901 64.6539 74.7395 64.4454 76.1047Z" fill="#4395A1"/>
<path fill-rule="evenodd" clip-rule="evenodd" d="M54.5058 83.8344C54.4718 83.8344 54.4384 83.7242 54.4044 83.665C54.468 83.7639 54.6243 83.3645 54.938 83.8004C54.7686 83.8174 54.6413 83.8433 54.5058 83.8344ZM55.42 81.4379C55.592 81.3006 55.8969 82.3747 55.2933 81.5059C55.3356 81.4807 55.3778 81.4556 55.42 81.4379ZM56.0298 80.8457C54.9903 80.2081 51.7124 84.3214 55.03 84.3C56.0097 83.9113 57.9948 82.0263 56.0298 80.8457Z" fill="#4395A1"/>
<path fill-rule="evenodd" clip-rule="evenodd" d="M57.8838 73.5139C58.086 73.1051 56.5715 72.8077 57.5367 72.5406C56.8985 69.5846 52.9982 74.6649 58.3242 73.6834C58.1969 73.5902 58.0451 73.5309 57.8838 73.5139Z" fill="#4395A1"/>
<path fill-rule="evenodd" clip-rule="evenodd" d="M59.8059 87.6102C59.1412 87.2284 58.5188 85.7662 59.7208 84.7235C59.7637 85.6805 59.7889 86.645 59.8059 87.6102Z" fill="#4395A1"/>
<path fill-rule="evenodd" clip-rule="evenodd" d="M63.6873 65.0403C63.6539 63.7142 66.1928 61.7259 67.0326 64.0468C66.5614 64.7845 64.7451 66.9372 63.6873 65.0403" fill="#4395A1"/>
<path fill-rule="evenodd" clip-rule="evenodd" d="M57.5708 77.0779C57.4946 76.5368 56.8847 75.9521 56.3095 75.7745C56.3599 76.1808 56.3769 76.5954 56.3688 77.0105C56.5893 76.5135 56.9383 77.4572 56.3599 77.3066C56.3259 77.8825 56.2327 78.4576 56.072 79.0083C56.7965 78.9787 57.5361 78.2182 57.5708 77.0779" fill="#4395A1"/>
<path fill-rule="evenodd" clip-rule="evenodd" d="M59.5266 81.3452C58.3352 82.6423 56.6878 79.98 59.1284 79.5421C59.5845 79.7399 59.3766 80.1614 59.5266 81.3452Z" fill="#4395A1"/>
<path fill-rule="evenodd" clip-rule="evenodd" d="M80.8956 64.0738C80.2775 64.4039 80.2347 65.09 80.5144 65.5637C81.0902 64.802 81.2931 64.3113 81.2251 63.9043C81.1154 63.956 81.0058 64.0145 80.8956 64.0738" fill="#4395A1"/>
<path fill-rule="evenodd" clip-rule="evenodd" d="M93.1548 61.5427C92.0554 60.546 89.0585 63.96 91.7322 63.422C92.8064 64.2838 95.4177 62.4461 93.1548 61.5427Z" fill="#4395A1"/>
<path fill-rule="evenodd" clip-rule="evenodd" d="M64.4792 71.1521C64.3941 71.2875 64.3607 71.3638 64.4792 71.1521C64.6165 71.1893 64.551 71.5673 64.4792 71.1521ZM65.5287 69.4076C63.3099 68.3763 61.2693 73.4069 65.3177 72.7435C65.3259 71.6687 68.0172 69.9311 65.5287 69.4076Z" fill="#4395A1"/>
<path fill-rule="evenodd" clip-rule="evenodd" d="M72.8015 68.4598C72.0644 69.0665 70.7842 68.7294 70.2109 67.3503C70.9348 67.5349 71.3859 67.5715 72.8015 68.4598Z" fill="#4395A1"/>
<path fill-rule="evenodd" clip-rule="evenodd" d="M85.5176 60.3153C85.5724 60.3197 85.1856 60.1125 85.6102 59.9342C85.7129 60.0803 85.9504 60.1408 85.5176 60.3153ZM87.2533 59.3835C86.886 59.0963 86.273 58.8304 85.374 58.7239C85.2291 58.9545 85.3696 58.722 85.1667 59.4806C85.11 60.5982 83.7013 62.4264 86.1023 61.9911C86.76 61.7026 88.4062 60.5906 87.2533 59.3835" fill="#4395A1"/>
<path fill-rule="evenodd" clip-rule="evenodd" d="M73.4788 78.314C73.3773 78.9912 73.2759 79.6943 73.2161 80.3974C73.5292 79.8297 73.6653 79.0252 73.4788 78.314Z" fill="#4395A1"/>
<path fill-rule="evenodd" clip-rule="evenodd" d="M73.8935 72.8279C73.9174 72.8355 73.8059 72.6773 74.0207 72.6584C74.0314 72.7788 74.1121 72.8909 73.8935 72.8279ZM74.4019 70.8132C71.7578 70.3325 73.6263 72.4467 73.8342 74.6146C74.9462 74.2196 75.8427 71.9799 74.4019 70.8132Z" fill="#4395A1"/>
<path fill-rule="evenodd" clip-rule="evenodd" d="M90.2168 83.7157L90.1746 83.6054L90.276 83.6143L90.2168 83.7157ZM88.8113 83.0466C88.7678 84.2027 90.7082 84.9795 91.4951 83.3774C90.5551 83.5802 89.6322 83.521 88.8113 83.0466Z" fill="#4395A1"/>
<path fill-rule="evenodd" clip-rule="evenodd" d="M87.1857 69.6361C87.3344 70.6334 86.6729 74.7895 84.8396 71.8972C84.9776 71.1071 85.1124 66.5157 87.1857 69.6361Z" fill="#4395A1"/>
<path fill-rule="evenodd" clip-rule="evenodd" d="M85.5774 81.3028C85.3569 81.1674 85.1452 81.1082 84.9165 81.1252C85.2536 81.9139 85.561 82.801 86.4827 83.826C86.8386 83.1292 86.5703 82.0406 85.5774 81.3028Z" fill="#4395A1"/>
<path fill-rule="evenodd" clip-rule="evenodd" d="M83.6721 67.1388C82.981 67.038 83.1183 68.8631 82.6477 70.0091C83.7219 70.0123 84.9825 68.2728 83.6721 67.1388Z" fill="#4395A1"/>
<path fill-rule="evenodd" clip-rule="evenodd" d="M82.7492 78.1023C82.7328 77.9757 82.758 77.8655 82.8254 77.764C82.8002 77.8743 82.775 77.9845 82.7492 78.1023Z" fill="#4395A1"/>
<path fill-rule="evenodd" clip-rule="evenodd" d="M86.4578 76.9512C86.4408 77.0526 86.4156 77.1541 86.3728 77.2555C86.1769 77.7608 85.4864 78.5035 84.4091 78.8475C84.6088 78.2963 83.4597 75.6912 85.458 75.8166C85.8215 76.0434 86.4673 75.5098 86.4578 76.9512Z" fill="#4395A1"/>
<path fill-rule="evenodd" clip-rule="evenodd" d="M76.518 84.6811C76.484 84.6811 76.4506 84.5708 76.4166 84.5116C76.4802 84.6111 76.6371 84.2111 76.9502 84.647C76.7807 84.664 76.6534 84.6899 76.518 84.6811ZM78.8887 82.7841C77.2463 84.5708 76.3825 83.8513 75.9428 82.4628C74.3817 84.7485 77.8013 86.8684 78.8887 82.7841Z" fill="#4395A1"/>
<path fill-rule="evenodd" clip-rule="evenodd" d="M87.8205 63.8203C87.1684 64.0805 88.4026 66.6969 86.6632 66.6339C84.8803 66.6408 86.0288 63.6168 87.8205 63.8203" fill="#4395A1"/>
<path fill-rule="evenodd" clip-rule="evenodd" d="M79.8814 81.771C79.6005 79.9622 83.1474 79.9717 81.2296 82.4583C80.846 82.6794 80.1082 82.5786 79.8814 81.771Z" fill="#4395A1"/>
<path fill-rule="evenodd" clip-rule="evenodd" d="M46.9878 97.812C47.2757 97.7357 47.2757 97.5751 46.9878 97.812C46.3735 97.8983 46.7162 96.7208 46.9878 97.812ZM47.9781 95.5351C45.7271 93.3623 44.6794 98.3695 46.1662 99.7423C48.7977 100.123 47.0545 97.2374 47.9781 95.5351Z" fill="#4395A1"/>
<path fill-rule="evenodd" clip-rule="evenodd" d="M59.5431 97.66C59.4738 97.5321 59.4095 97.5813 59.5601 97.287C59.5065 97.3494 59.8663 97.4011 59.5431 97.66ZM58.4595 97.0168C58.4343 97.9643 58.8998 98.7096 59.6281 98.9301C59.7296 97.7192 59.7384 96.4743 59.7636 95.2811C59.0945 95.5854 58.4847 96.3219 58.4595 97.0168Z" fill="#4395A1"/>
<path fill-rule="evenodd" clip-rule="evenodd" d="M53.2022 91.7421C52.6762 91.7232 51.929 92.0394 51.5762 92.8931C52.3019 92.6512 53.5909 92.4055 54.7344 92.1654C54.2348 91.8775 53.6848 91.8177 53.2022 91.7421Z" fill="#4395A1"/>
<path fill-rule="evenodd" clip-rule="evenodd" d="M59.7468 90.5479C59.7632 90.5568 59.7972 90.5649 59.8313 90.5738C60.7397 86.7597 55.0218 91.7355 59.0942 92.3434C59.7727 92.4108 59.9472 92.1475 59.8224 90.9549C59.7053 90.8919 59.3814 90.8497 59.7468 90.5479Z" fill="#4395A1"/>
<path fill-rule="evenodd" clip-rule="evenodd" d="M54.0232 105.838C53.2583 105.847 52.2743 105.864 52.7953 103.662C53.693 103.806 54.5902 103.688 55.3613 103.256C55.8092 104.357 55.2422 105.516 54.0232 105.838Z" fill="#4395A1"/>
<path fill-rule="evenodd" clip-rule="evenodd" d="M59.2725 101.08C59.086 101.876 58.7981 102.621 58.3747 103.281C58.3609 102.906 58.335 101.92 59.2725 101.08Z" fill="#4395A1"/>
<path fill-rule="evenodd" clip-rule="evenodd" d="M48.8589 101.173C48.2485 102.369 48.7959 103.642 50.8315 102.951C50.0862 102.519 49.4007 101.918 48.8589 101.173Z" fill="#4395A1"/>
<path fill-rule="evenodd" clip-rule="evenodd" d="M22.6746 3.31936C22.284 4.17238 19.4647 3.56758 21.3642 2.50288C21.4851 2.3668 22.8485 2.12488 22.6746 3.31936ZM17.3574 3.38425C17.3202 3.40252 17.3567 3.37417 17.2522 3.41575C13.6215 4.88428 17.4053 1.04758 17.3574 3.38425ZM13.2158 5.93764C12.6198 6.99163 9.68586 7.57879 12.6834 5.27929C12.9537 5.11297 13.4111 5.27362 13.2158 5.93764ZM12.7968 8.75185C12.5517 10.027 10.4645 11.0104 12.1145 8.25037C12.3388 8.02483 12.8264 8.06641 12.7968 8.75185ZM11.368 38.68C12.0162 37.3627 13.4564 41.1635 11.6464 40.4238C11.567 40.0817 11.2861 39.7491 11.368 38.68ZM14.5406 43.8599C16.3941 44.7778 16.2127 46.3477 14.0392 44.5422C13.8237 44.3078 13.8722 43.8101 14.5406 43.8599ZM15.7477 42.312C16.5503 41.5667 17.0008 43.662 15.09 42.8443C14.9086 42.5873 15.0579 42.1406 15.7477 42.312ZM11.2275 31.3033C11.2079 33.3237 9.31857 32.8563 10.4538 30.7974C10.7991 30.8271 10.9572 30.5832 11.2275 31.3033ZM8.95758 14.7671C8.98971 13.6665 11.0473 12.4682 9.74634 15.0764C9.60081 15.3568 9.12894 15.445 8.95758 14.7671ZM8.98278 20.754C7.88028 21.3663 8.09889 17.9039 9.52584 19.121C9.65688 19.5267 9.63231 20.0994 8.98278 20.754ZM9.2751 36.5267C7.9836 37.6361 7.35234 33.0636 9.03003 35.7247C9.32298 35.7574 9.8736 35.9849 9.2751 36.5267V36.5267ZM8.23434 24.2662C9.37527 23.3559 9.62097 27.2077 7.97793 26.3843C7.78641 25.9395 7.71648 25.2251 8.23434 24.2662ZM7.48464 30.621C7.20933 32.9621 5.31681 29.4051 7.33848 29.7038C7.3473 29.9123 7.60371 29.8594 7.48464 30.621ZM6.2889 25.0241C5.4573 25.9609 4.55388 23.3571 5.3817 22.6289C6.72171 21.5654 7.19673 24.122 6.2889 25.0241V25.0241ZM5.8353 16.6464C6.53838 15.1539 8.11968 16.0838 6.27315 17.8094C5.7282 17.5416 5.88381 17.6008 5.8353 16.6464ZM7.9521 11.355C8.26458 10.2368 10.869 8.629 8.99223 11.3657C8.72952 11.9541 7.9647 12.397 7.9521 11.355ZM21.0246 7.33876C11.4864 12.5867 25.7868 19.247 29.2411 11.1585C33.0702 -3.96344 11.9847 -1.01819 7.71522 8.70334C-5.21238 34.3632 13.6303 52.2433 23.7979 43.9285C27.3107 49.9482 27.5867 39.4675 27.4342 36.819C26.7356 34.7425 30.1476 33.9437 27.4802 31.8319C25.1341 30.9316 18.5997 34.7753 23.9402 36.0491C23.6687 40.0162 20.6145 44.013 15.9014 41.9799C10.4885 39.4392 9.30156 14.7639 15.2532 8.00341C26.0797 -3.0323 30.7323 14.2877 21.923 10.5984C24.0536 10.1687 23.1515 6.90973 21.0246 7.33876" fill="#F5F5F7"/>
<path fill-rule="evenodd" clip-rule="evenodd" d="M38.1567 33.9512C38.9613 34.442 40.0108 34.1541 40.5356 33.519C39.7399 33.6715 38.9524 33.8151 38.1567 33.9512ZM38.1567 33.9512C38.9613 34.442 40.0108 34.1541 40.5356 33.519C39.7399 33.6715 38.9524 33.8151 38.1567 33.9512ZM38.1567 33.9512C38.9613 34.442 40.0108 34.1541 40.5356 33.519C39.7399 33.6715 38.9524 33.8151 38.1567 33.9512ZM40.5356 31.7664C40.2849 31.2409 39.1238 30.3016 38.9354 29.0404C37.8014 29.3113 36.6668 29.6074 35.5152 29.8619C36.2888 31.0526 36.777 33.4976 38.793 34.1799C39.917 34.1711 41.5373 33.5297 40.5356 31.7664V31.7664ZM40.5356 31.7664C40.2849 31.2409 39.1238 30.3016 38.9354 29.0404C37.8014 29.3113 36.6668 29.6074 35.5152 29.8619C36.2888 31.0526 36.777 33.4976 38.793 34.1799C39.917 34.1711 41.5373 33.5297 40.5356 31.7664V31.7664ZM40.5356 31.7664C40.2849 31.2409 39.1238 30.3016 38.9354 29.0404C37.8014 29.3113 36.6668 29.6074 35.5152 29.8619C36.2888 31.0526 36.777 33.4976 38.793 34.1799C39.917 34.1711 41.5373 33.5297 40.5356 31.7664V31.7664ZM40.5356 31.7664C40.2849 31.2409 39.1238 30.3016 38.9354 29.0404C37.8014 29.3113 36.6668 29.6074 35.5152 29.8619C36.2888 31.0526 36.777 33.4976 38.793 34.1799C39.917 34.1711 41.5373 33.5297 40.5356 31.7664V31.7664ZM47.8764 36.0252C43.1577 49.8795 31.5537 39.5028 35.2865 29.2268C35.6229 30.9133 39.275 37.2165 40.8494 32.5457C39.7973 30.8907 37.6408 27.5687 39.9018 25.1797C46.3064 22.0114 50.3013 29.7031 47.8764 36.0252ZM51.72 30.2934C49.3815 14.2788 28.7231 21.3644 31.48 35.8664C35.0886 53.0717 53.4405 46.1688 51.72 30.2934ZM40.5356 31.7664C40.2849 31.2409 39.1238 30.3016 38.9354 29.0404C37.8014 29.3113 36.6668 29.6074 35.5152 29.8619C36.2888 31.0526 36.777 33.4976 38.793 34.1799C39.917 34.1711 41.5373 33.5297 40.5356 31.7664V31.7664ZM40.5356 31.7664C40.2849 31.2409 39.1238 30.3016 38.9354 29.0404C37.8014 29.3113 36.6668 29.6074 35.5152 29.8619C36.2888 31.0526 36.777 33.4976 38.793 34.1799C39.917 34.1711 41.5373 33.5297 40.5356 31.7664V31.7664ZM40.5356 31.7664C40.2849 31.2409 39.1238 30.3016 38.9354 29.0404C37.8014 29.3113 36.6668 29.6074 35.5152 29.8619C36.2888 31.0526 36.777 33.4976 38.793 34.1799C39.917 34.1711 41.5373 33.5297 40.5356 31.7664V31.7664ZM40.5356 31.7664C40.2849 31.2409 39.1238 30.3016 38.9354 29.0404C37.8014 29.3113 36.6668 29.6074 35.5152 29.8619C36.2888 31.0526 36.777 33.4976 38.793 34.1799C39.917 34.1711 41.5373 33.5297 40.5356 31.7664V31.7664ZM40.5356 31.7664C40.2849 31.2409 39.1238 30.3016 38.9354 29.0404C37.8014 29.3113 36.6668 29.6074 35.5152 29.8619C36.2888 31.0526 36.777 33.4976 38.793 34.1799C39.917 34.1711 41.5373 33.5297 40.5356 31.7664V31.7664ZM38.1567 33.9512C38.9613 34.442 40.0108 34.1541 40.5356 33.519C39.7399 33.6715 38.9524 33.8151 38.1567 33.9512ZM38.1567 33.9512C38.9613 34.442 40.0108 34.1541 40.5356 33.519C39.7399 33.6715 38.9524 33.8151 38.1567 33.9512ZM38.1567 33.9512C38.9613 34.442 40.0108 34.1541 40.5356 33.519C39.7399 33.6715 38.9524 33.8151 38.1567 33.9512Z" fill="#F5F5F7"/>
<path fill-rule="evenodd" clip-rule="evenodd" d="M65.2827 32.1135C64.4315 29.9828 63.0059 29.5009 60.3126 30.4118C60.8027 32.3157 64.6703 36.945 65.2827 32.1135ZM65.2827 32.1135C64.4315 29.9828 63.0059 29.5009 60.3126 30.4118C60.8027 32.3157 64.6703 36.945 65.2827 32.1135ZM65.2827 32.1135C64.4315 29.9828 63.0059 29.5009 60.3126 30.4118C60.8027 32.3157 64.6703 36.945 65.2827 32.1135ZM65.2827 32.1135C64.4315 29.9828 63.0059 29.5009 60.3126 30.4118C60.8027 32.3157 64.6703 36.945 65.2827 32.1135ZM65.2827 32.1135C64.4315 29.9828 63.0059 29.5009 60.3126 30.4118C60.8027 32.3157 64.6703 36.945 65.2827 32.1135ZM65.2827 32.1135C64.4315 29.9828 63.0059 29.5009 60.3126 30.4118C60.8027 32.3157 64.6703 36.945 65.2827 32.1135ZM65.2827 32.1135C64.4315 29.9828 63.0059 29.5009 60.3126 30.4118C60.8027 32.3157 64.6703 36.945 65.2827 32.1135ZM72.3941 36.1354C67.6118 49.8492 56.1143 39.4095 59.8388 29.2268C60.082 31.0374 64.4215 37.6461 65.2833 32.1135C63.1035 30.2298 62.2202 24.0917 67.0353 24.4602C72.6247 24.6165 74.2192 30.9083 72.3941 36.1354ZM76.2207 29.853C73.2131 13.9285 52.672 22.0165 56.1678 36.5789C60.5791 53.4213 78.3602 45.2105 76.2207 29.853ZM65.2827 32.1135C64.4315 29.9828 63.0059 29.5009 60.3126 30.4118C60.8027 32.3157 64.6703 36.945 65.2827 32.1135ZM65.2827 32.1135C64.4315 29.9828 63.0059 29.5009 60.3126 30.4118C60.8027 32.3157 64.6703 36.945 65.2827 32.1135ZM65.2827 32.1135C64.4315 29.9828 63.0059 29.5009 60.3126 30.4118C60.8027 32.3157 64.6703 36.945 65.2827 32.1135ZM65.2827 32.1135C64.4315 29.9828 63.0059 29.5009 60.3126 30.4118C60.8027 32.3157 64.6703 36.945 65.2827 32.1135ZM65.2827 32.1135C64.4315 29.9828 63.0059 29.5009 60.3126 30.4118C60.8027 32.3157 64.6703 36.945 65.2827 32.1135ZM65.2827 32.1135C64.4315 29.9828 63.0059 29.5009 60.3126 30.4118C60.8027 32.3157 64.6703 36.945 65.2827 32.1135ZM65.2827 32.1135C64.4315 29.9828 63.0059 29.5009 60.3126 30.4118C60.8027 32.3157 64.6703 36.945 65.2827 32.1135ZM65.2827 32.1135C64.4315 29.9828 63.0059 29.5009 60.3126 30.4118C60.8027 32.3157 64.6703 36.945 65.2827 32.1135Z" fill="#F5F5F7"/>
<path fill-rule="evenodd" clip-rule="evenodd" d="M98.3682 25.7385C103.175 34.927 97.0547 30.9196 94.0691 28.9275C87.01 35.1935 87.628 29.8228 89.7933 25.8141C81.5844 21.3354 86.6546 20.301 91.3967 20.706C91.466 20.1164 92.8148 14.9157 94.1479 15.4122C95.2214 15.9798 96.7208 21.1433 96.7372 20.7016C106.461 18.879 101.48 23.4428 98.3682 25.7385V25.7385ZM108.541 23.6103C108.036 -3.70961 82.021 2.56078 82.021 2.56078V44.6605C82.021 44.6605 109.047 50.9309 108.541 23.6103" fill="#F5F5F7"/>
<path fill-rule="evenodd" clip-rule="evenodd" d="M49.0953 23.9777C44.1044 24.3343 39.1325 25.3221 33.7964 25.7984C35.801 24.0388 40.1487 24.4943 43.036 23.7981C45.0822 24.0155 47.3389 21.8483 49.0953 23.9777" fill="#4395A1"/>
<path fill-rule="evenodd" clip-rule="evenodd" d="M73.2667 23.5883C71.0043 24.3153 68.8976 24.7405 65.7344 24.5043C63.3196 26.0837 60.5703 26.7943 57.2483 27.2882C58.6954 24.6498 63.3643 25.1777 66.4028 24.1364C68.7376 24.0897 71.2727 21.8318 73.2667 23.5883Z" fill="#4395A1"/>
<path fill-rule="evenodd" clip-rule="evenodd" d="M63.6997 29.7603C62.7975 29.5725 60.0998 31.5583 59.839 29.2267C59.6897 30.8017 57.8829 30.8728 55.9866 31.0127C56.1983 28.6382 61.2584 29.0036 63.4792 28.1179C63.5718 28.4045 63.2461 28.9337 63.6997 29.7603Z" fill="#4395A1"/>
<path fill-rule="evenodd" clip-rule="evenodd" d="M75.3492 26.6448C74.476 26.5723 72.2748 28.5404 71.5818 26.6026C72.3132 26.905 74.6952 25.1195 75.3492 26.6448Z" fill="#4395A1"/>
<path fill-rule="evenodd" clip-rule="evenodd" d="M38.9358 29.0404C38.2743 28.7695 35.8236 30.7439 35.2868 29.2269C34.9491 30.4296 33.2078 30.2412 31.5276 30.4711C32.2817 28.583 36.6255 28.2573 38.9698 27.4824C38.9099 27.9486 38.9017 28.4646 38.9358 29.0404Z" fill="#4395A1"/>
<path fill-rule="evenodd" clip-rule="evenodd" d="M50.7801 26.6023C49.7545 26.5532 47.5539 28.1546 46.699 26.2382C47.5312 26.5897 50.106 24.8534 50.7801 26.6023Z" fill="#4395A1"/>
<path fill-rule="evenodd" clip-rule="evenodd" d="M34.6261 34.5438C33.5425 34.7214 32.4501 34.8821 31.3665 35.0345C31.3394 34.0889 33.2055 34.3655 34.5417 33.8747C34.5587 34.0946 34.5921 34.3151 34.6261 34.5438Z" fill="#4395A1"/>
<path fill-rule="evenodd" clip-rule="evenodd" d="M40.8491 32.5454C41.0344 33.5396 38.4451 34.7315 37.4629 33.2479C38.5887 33.011 39.7233 32.7741 40.8491 32.5454" fill="#4395A1"/>
<path fill-rule="evenodd" clip-rule="evenodd" d="M51.7959 31.2417C50.7123 31.4704 49.6287 31.6991 48.5451 31.9278C48.1967 30.5834 50.1144 30.7062 51.7197 30.2936C51.7537 30.6067 51.7789 30.9198 51.7959 31.2417" fill="#4395A1"/>
<path fill-rule="evenodd" clip-rule="evenodd" d="M51.6436 34.3487C51.6821 35.7643 49.6062 35.5224 47.8762 36.0251C47.8239 34.3966 49.8777 34.6914 51.6436 34.3487Z" fill="#4395A1"/>
<path fill-rule="evenodd" clip-rule="evenodd" d="M38.1824 41.5451C37.1757 41.3095 34.5744 42.8693 33.5513 41.4273C34.6853 41.4959 36.9892 39.6166 38.1824 41.5451Z" fill="#4395A1"/>
<path fill-rule="evenodd" clip-rule="evenodd" d="M50.687 38.2351C50.515 40.1541 47.5943 39.7704 45.6243 40.3179C46.2612 38.6181 48.6161 38.5526 50.687 38.2351Z" fill="#4395A1"/>
<path fill-rule="evenodd" clip-rule="evenodd" d="M48.0199 42.7134C45.6933 45.2466 40.0239 46.6345 36.8191 44.6525C40.3477 43.8121 44.0723 43.4102 48.0199 42.7134Z" fill="#4395A1"/>
<path fill-rule="evenodd" clip-rule="evenodd" d="M59.3224 35.3226C58.2388 35.6017 57.1552 35.8562 56.0716 36.0761C55.7648 34.9326 57.7424 34.9251 59.1278 34.222C59.1782 34.5861 59.2462 34.9585 59.3224 35.3226" fill="#4395A1"/>
<path fill-rule="evenodd" clip-rule="evenodd" d="M64.8762 33.731C64.1958 33.8853 62.9799 34.7673 61.9895 33.2144C62.7367 33.0115 66.7769 31.0572 64.8762 33.731Z" fill="#4395A1"/>
<path fill-rule="evenodd" clip-rule="evenodd" d="M76.2209 29.8531C75.1802 30.2173 74.13 30.5896 73.0716 30.9626C72.3937 29.3561 74.3284 29.2887 76.0093 28.6851C76.0943 29.0656 76.1705 29.455 76.2209 29.8531" fill="#4395A1"/>
<path fill-rule="evenodd" clip-rule="evenodd" d="M76.2634 33.8663C76.5009 35.435 73.9204 35.6152 72.3939 36.1356C72.3146 34.422 74.2625 34.1895 76.2634 33.8663Z" fill="#4395A1"/>
<path fill-rule="evenodd" clip-rule="evenodd" d="M62.3789 41.2147C61.323 41.0969 58.6852 43.4909 57.9172 41.1391C59.1955 40.9916 61.163 38.8736 62.3789 41.2147Z" fill="#4395A1"/>
<path fill-rule="evenodd" clip-rule="evenodd" d="M75.5523 37.3036C75.3942 39.0343 72.7387 38.7753 70.896 39.3612C71.2822 37.6558 73.3404 37.4032 75.5523 37.3036Z" fill="#4395A1"/>
<path fill-rule="evenodd" clip-rule="evenodd" d="M73.1989 41.977C71.4418 43.8727 62.2753 46.1709 60.677 44.2034C64.8085 43.3057 69.0081 42.6032 73.1989 41.977Z" fill="#4395A1"/>
<path fill-rule="evenodd" clip-rule="evenodd" d="M60.0759 37.6845C59.1996 37.4268 56.3136 39.5083 56.2827 37.0746C57.0519 37.3506 59.7326 35.7743 60.0759 37.6845Z" fill="#4395A1"/>
<path fill-rule="evenodd" clip-rule="evenodd" d="M35.3713 37.3123C34.4093 37.2096 31.6096 39.3308 31.6379 36.6854C32.4449 37.1623 34.9372 35.5256 35.3713 37.3123Z" fill="#4395A1"/>
</svg>
