<svg width="160" height="124" viewBox="0 0 160 124" fill="none" xmlns="http://www.w3.org/2000/svg">
<path fill-rule="evenodd" clip-rule="evenodd" d="M144.535 97.9658C151.78 94.6948 148.233 104.866 144.5 104.86C142.964 103.362 142.141 100.592 144.535 97.9658ZM118.888 114.737C118.919 112.855 119.266 110.659 119.861 108.274C121.076 110.745 120.127 116.438 118.888 114.737ZM108.632 111.202C108.595 117.812 106.341 115.882 108.688 110.66C108.67 110.84 108.654 111.021 108.632 111.202ZM85.0332 115.361C82.1591 119.462 75.9404 120.093 74.7869 114.496C75.9247 115.883 78.1492 113.824 76.5276 112.303C74.2948 110.712 75.4711 106.983 77.9142 104.699C85.8667 97.7969 88.9423 110.486 85.0332 115.361ZM58.7502 104.845C66.3001 98.9045 61.9147 113.526 58.7005 115.015C58.5574 114.346 57.5123 109.797 58.7502 104.845ZM15.788 113.422C12.6916 126.236 2.6651 118.048 6.03308 109.389C9.37649 101.917 19.1516 105.836 15.788 113.422ZM45.6632 103.086C46.0034 102.237 46.9535 99.0702 46.8445 102.291C46.784 104.054 46.3789 104.479 44.9501 105.397C45.158 104.527 45.4018 103.738 45.6632 103.086ZM147.798 106.712C147.77 106.699 147.743 106.685 147.715 106.672C163.666 89.1533 128.414 92.9926 142.677 107.091C142.134 107.464 141.944 107.69 139.503 109.926C135.554 114.093 131.358 114.893 131.541 113.129C131.837 110.95 132.744 108.652 132.58 105.815C132.587 98.3274 123.742 94.2059 119.598 101.019C117.047 98.0552 113.052 97.1083 110.236 100.837C98.9619 90.3327 97.5481 116.444 94.2797 115.766C90.2238 115.898 91.4264 101.894 91.6923 98.2222C88.7099 95.1012 88.6242 100.66 88.1404 103.729C81.7477 92.9207 70.4178 104.53 72.9107 112.126C69.791 114.862 64.962 122.327 60.0216 117.781C62.8452 114.833 66.2542 109.229 66.3449 104.813C65.3722 95.4029 56.1811 95.6354 55.7817 107.057C55.364 111.811 55.33 114.852 56.1924 117.386C50.8752 121.197 44.9406 119.469 44.4316 112.966C44.6294 111.464 43.4482 109.454 45.037 108.689C56.9509 102.916 48.8101 88.5756 42.9454 102.074C41.9418 103.573 42.6285 105.874 41.3112 107.159C39.5749 107.704 36.1628 108.678 37.2275 106.668C40.3857 100.426 32.701 96.4349 31.2734 102.819C30.9137 104.77 31.2835 106.766 31.8864 108.151C32.3652 109.328 33.658 109.291 32.6487 111.3C28.5808 126.189 18.1574 117.97 19.9057 106.81C20.2478 99.983 21.7988 93.3706 20.3473 86.8595C13.8615 79.5641 16.9333 102.284 16.7897 104.602C9.78537 98.9631 1.81712 106.11 2.51579 113.97C3.63278 125.517 14.683 125.883 17.8809 115.749C20.8299 124.883 29.7853 123.992 33.6069 116.565C36.5257 108.757 35.1649 111.906 41.6029 110.071C40.7864 121.603 48.6022 125.058 57.6496 119.804C62.0653 124.487 69.2485 121.09 72.5038 116.565C75.6752 124.68 85.2694 121.885 88.3079 115.302C89.4558 121.948 95.8276 121.255 98.1592 116.074C101.069 110.526 99.7991 104.527 105.177 102.533C107.14 102.316 109.001 103.565 107.338 105.615C104.8 111.179 103.913 117.658 106.786 119.337C110.997 121.766 112.455 107.643 111.351 103.754C111.832 103.335 113.94 102.125 116.156 102.716C119.794 103.574 116.553 106.475 116.592 108.718C115.556 112.773 115.356 120.738 121.024 118.025C126.61 113.044 121.237 107.757 122.136 102.673C135.089 95.1163 126.166 115.478 130.251 117.062C132.249 118.971 135.434 116.664 138.624 114.402C141.634 112.123 144.336 109.502 145.381 108.668C147.41 109.673 151.039 111.197 151.877 113.51C153.858 118.375 144.764 124.11 142.464 119.045C146.247 113.937 136.321 116.894 139.735 121.538C150.723 130.597 162.432 111.739 147.798 106.712" fill="#F5F5F7"/>
<path fill-rule="evenodd" clip-rule="evenodd" d="M66.0938 25.972C68.552 26.82 69.2765 15.8359 71.0846 20.5868C71.2642 21.6943 71.7631 24.8872 72.276 25.0736C74.6851 25.9046 80.7954 24.6396 82.831 25.4447C83.5851 27.2314 73.6059 29.5321 74.8753 31.7995C76.9247 34.0656 77.4023 35.8321 77.0835 36.2996C76.5001 37.777 73.609 35.0264 71.062 33.4457C68.673 31.6962 62.8619 40.4897 62.7151 35.5335C68.191 28.1821 62.0744 30.3493 58.363 26.5384C59.2942 25.4271 63.6626 26.5113 66.0938 25.972" fill="#F4B955"/>
<path fill-rule="evenodd" clip-rule="evenodd" d="M99.5214 0.88765C104.026 1.0861 77.3171 19.6749 76.8515 20.9191C68.5166 23.4001 96.8049 -1.98578 99.5214 0.88765" fill="#F4B955"/>
<path fill-rule="evenodd" clip-rule="evenodd" d="M84.2995 22.1797C90.3008 18.6025 99.9468 12.1986 104.875 6.7497C118.888 2.03037 83.8251 28.1842 84.2995 22.1797Z" fill="#F4B955"/>
<path fill-rule="evenodd" clip-rule="evenodd" d="M82.4893 30.7298C87.8184 28.9186 94.4328 27.3543 99.8558 23.8654C102.723 22.5323 104.198 20.0589 107.265 19.1372C109.921 19.4869 109.68 20.9327 106.883 22.7962C100.814 26.982 83.7209 34.1249 82.4893 30.7298" fill="#F4B955"/>
<path fill-rule="evenodd" clip-rule="evenodd" d="M35.597 61.4221C35.4483 63.3253 35.0426 65.3142 34.0699 67.5413C30.0498 77.2407 15.2373 79.2889 5.5674 75.9814C-5.18922 70.2566 3.33468 57.4222 13.959 60.0814C18.352 60.5602 21.553 64.6741 17.4152 67.1551C13.7045 67.8676 9.45387 67.5394 12.1169 63.7846C11.8617 63.0116 9.87345 63.8041 9.22014 65.0679C3.70134 81.5304 33.4033 75.0263 27.3622 56.0242C26.3183 51.9985 22.7362 48.9978 18.1157 47.9961C-17.1422 39.941 18.9977 11.5576 32.3815 33.3455C34.1272 36.3556 33.1047 37.2742 30.5683 37.5236C27.7843 38.875 16.8482 36.6341 25.4269 34.9627C20.3239 21.9034 5.02812 31.9815 13.2515 41.6766C23.9161 49.2706 35.6852 44.4681 35.597 61.4221" fill="#F5F5F7"/>
<path fill-rule="evenodd" clip-rule="evenodd" d="M73.1279 58.4905C72.9912 72.8097 69.7076 78.6316 56.8065 74.672C41.0685 86.7983 36.5734 60.2753 39.5149 51.328C35.6347 47.4837 49.0575 48.4294 49.4109 50.7975C49.4727 51.735 46.494 51.5945 46.1708 52.2799C45.331 54.2821 46.552 61.0817 47.3899 65.2359C48.4514 70.2192 49.5564 76.8455 52.3826 70.5638C55.3436 64.7224 46.6534 60.1524 58.1856 61.6783C58.8893 61.8314 63.2489 61.9284 62.5685 63.6395C61.3841 66.9835 61.7331 76.4001 65.2806 69.7536C67.027 63.0233 66.6931 57.1095 65.1786 50.996C63.9318 50.7421 63.2337 49.9987 63.7566 49.4078C71.3481 45.1483 74.5441 52.0216 73.1279 58.4905" fill="#F5F5F7"/>
<path fill-rule="evenodd" clip-rule="evenodd" d="M88.5351 61.4128C88.4122 61.4645 88.382 61.4323 88.4967 61.707C88.5559 61.6232 88.6416 61.6459 88.5351 61.4128ZM88.5351 61.4128C88.4122 61.4645 88.382 61.4323 88.4967 61.707C88.5559 61.6232 88.6416 61.6459 88.5351 61.4128ZM88.5351 61.4128C88.4122 61.4645 88.382 61.4323 88.4967 61.707C88.5559 61.6232 88.6416 61.6459 88.5351 61.4128ZM88.5351 61.4128C88.4122 61.4645 88.382 61.4323 88.4967 61.707C88.5559 61.6232 88.6416 61.6459 88.5351 61.4128ZM88.5351 61.4128C88.4122 61.4645 88.382 61.4323 88.4967 61.707C88.5559 61.6232 88.6416 61.6459 88.5351 61.4128ZM85.0531 57.561C87.8005 40.0697 101.263 65.172 84.5881 61.2326C84.6833 59.9802 84.854 58.7473 85.0531 57.561ZM97.3104 72.2469C88.6208 77.9465 85.0638 71.5237 84.5031 64.0594C96.5197 66.6979 105.306 62.9223 97.3816 50.9233C91.6983 45.3226 80.8258 46.6872 78.1955 53.861C67.5196 94.3259 121.153 70.0892 97.3104 72.2469ZM88.5351 61.4128C88.4122 61.4645 88.382 61.4323 88.4967 61.707C88.5559 61.6232 88.6416 61.6459 88.5351 61.4128ZM88.5351 61.4128C88.4122 61.4645 88.382 61.4323 88.4967 61.707C88.5559 61.6232 88.6416 61.6459 88.5351 61.4128ZM88.5351 61.4128C88.4122 61.4645 88.382 61.4323 88.4967 61.707C88.5559 61.6232 88.6416 61.6459 88.5351 61.4128ZM88.5351 61.4128C88.4122 61.4645 88.382 61.4323 88.4967 61.707C88.5559 61.6232 88.6416 61.6459 88.5351 61.4128ZM88.5351 61.4128C88.4122 61.4645 88.382 61.4323 88.4967 61.707C88.5559 61.6232 88.6416 61.6459 88.5351 61.4128ZM88.5351 61.4128C88.4122 61.4645 88.382 61.4323 88.4967 61.707C88.5559 61.6232 88.6416 61.6459 88.5351 61.4128Z" fill="#F5F5F7"/>
<path fill-rule="evenodd" clip-rule="evenodd" d="M113.515 55.6635C116.355 38.1734 129.628 63.3325 113.05 59.3351C113.145 58.0827 113.316 56.8498 113.515 55.6635V55.6635ZM125.772 70.3501C117.092 76.0068 113.541 69.715 112.964 62.162C126.466 65.3435 134.251 59.0334 124.853 48.1678C110.85 39.8656 102.653 52.3169 105.754 65.3113C109.983 86.5493 145.698 68.2963 125.772 70.3501Z" fill="#F5F5F7"/>
<path fill-rule="evenodd" clip-rule="evenodd" d="M159.537 31.4143C156.863 34.7842 150.482 32.7505 148.304 35.1231C147.664 42.7096 149.29 76.8215 142.284 76.3421C138.452 76.3207 136.383 76.3182 137.867 73.1045C141.311 60.5568 140.123 48.6681 140.695 35.6649C121.649 39.2383 129.188 32.2075 141.863 30.371C146.259 30.1826 162.297 23.2854 159.537 31.4143" fill="#F5F5F7"/>
<path fill-rule="evenodd" clip-rule="evenodd" d="M148.086 44.146C148.076 44.9146 148.067 45.6926 148.067 46.4701C147.443 46.0921 147.339 45.2913 148.086 44.146Z" fill="#4395A1"/>
<path fill-rule="evenodd" clip-rule="evenodd" d="M142.872 70.2777C147.572 70.8006 142.714 76.79 139.976 73.4661C139.807 72.2087 140.977 70.0496 142.872 70.2777Z" fill="#4395A1"/>
<path fill-rule="evenodd" clip-rule="evenodd" d="M146.368 34.1942C146.42 34.1546 146.172 34.0645 146.387 33.8622C146.332 33.9133 146.589 33.9838 146.368 34.1942ZM149.29 33.8244C149.042 31.6056 145.06 30.8231 145.203 34.404C146.091 36.6147 148.747 35.2514 149.29 33.8244" fill="#4395A1"/>
<path fill-rule="evenodd" clip-rule="evenodd" d="M141.853 40.9963C142.042 40.7972 141.995 40.6359 141.853 40.9963C141.673 41.1739 141.354 40.3448 141.853 40.9963ZM141.691 39.3362C139.956 38.4145 140.7 40.9308 140.525 42.5902C141.665 42.5549 144.08 40.491 141.691 39.3362Z" fill="#4395A1"/>
<path fill-rule="evenodd" clip-rule="evenodd" d="M143.01 48.2352C143.374 48.9471 140.849 52.9992 140.451 49.8858C139.833 47.5132 141.718 45.3416 143.01 48.2352Z" fill="#4395A1"/>
<path fill-rule="evenodd" clip-rule="evenodd" d="M142.09 31.0825C142.372 33.7889 138.493 35.7457 138.832 31.7603C138.855 30.9073 141.997 29.5849 142.09 31.0825Z" fill="#4395A1"/>
<path fill-rule="evenodd" clip-rule="evenodd" d="M135.923 36.3193C134.956 36.4522 133.988 36.5757 133.011 36.6891C133.11 35.6395 135.693 34.3247 135.923 36.3193Z" fill="#4395A1"/>
<path fill-rule="evenodd" clip-rule="evenodd" d="M148.18 38.6246C148.152 39.4688 148.133 40.3136 148.124 41.1578C147.409 40.9316 146.62 39.1947 148.18 38.6246Z" fill="#4395A1"/>
<path fill-rule="evenodd" clip-rule="evenodd" d="M154.639 30.3912C154.592 32.1659 151.22 32.3328 152.238 29.8311C152.863 29.152 154.334 29.0915 154.639 30.3912Z" fill="#4395A1"/>
<path fill-rule="evenodd" clip-rule="evenodd" d="M159.537 31.4143C159.457 31.6506 157.078 33.7989 157.43 31.6707C157.67 31.0344 159.215 30.0271 159.537 31.4143Z" fill="#4395A1"/>
<path fill-rule="evenodd" clip-rule="evenodd" d="M148.038 48.6621C148.029 49.3639 148.019 50.0664 148.01 50.7588C147.848 50.7682 147.678 50.7115 147.498 50.6069C147.014 50.3222 146.805 49.9713 146.909 49.6298C147.07 49.1264 147.545 48.7188 148.038 48.6621Z" fill="#4395A1"/>
<path fill-rule="evenodd" clip-rule="evenodd" d="M155.647 28.4544C154.439 28.5521 153.345 27.3116 156.121 27.3349C156.169 27.6266 156.168 27.8194 155.647 28.4544" fill="#4395A1"/>
<path fill-rule="evenodd" clip-rule="evenodd" d="M126.891 58.9175C126.874 59.2552 125.593 58.9496 126.445 58.4336C126.616 58.4828 126.787 58.5294 126.891 58.9175ZM127.631 56.7641C124.547 52.8556 122.474 60.5945 127.366 59.8379C128.145 59.3925 127.993 57.9529 127.631 56.7641Z" fill="#4395A1"/>
<path fill-rule="evenodd" clip-rule="evenodd" d="M112.443 61.8681C112.632 61.669 112.585 61.5077 112.443 61.8681C112.263 62.0451 111.944 61.2167 112.443 61.8681ZM110.185 62.7406C110.137 62.7406 110.109 62.7028 110.071 62.6745C110.105 62.6997 110.143 62.5384 110.299 62.7028C110.261 62.7123 110.223 62.7501 110.185 62.7406ZM112.281 60.2074C110.33 58.863 107.513 62.74 110.697 63.5004C112.036 63.6334 114.791 61.5922 112.281 60.2074Z" fill="#4395A1"/>
<path fill-rule="evenodd" clip-rule="evenodd" d="M112.257 67.7289C114.177 67.8486 113.998 71.6601 111.599 71.7458C109.383 71.4591 109.949 68.1182 112.257 67.7289Z" fill="#4395A1"/>
<path fill-rule="evenodd" clip-rule="evenodd" d="M112.684 51.9574C112.954 53.9753 109.833 56.867 109.303 53.1103C109.18 51.8238 112.227 50.1165 112.684 51.9574Z" fill="#4395A1"/>
<path fill-rule="evenodd" clip-rule="evenodd" d="M106.428 57.9497C106.296 58.438 106.086 59.1455 105.166 59.2116C104.802 57.8886 106.104 53.9706 106.428 57.9497Z" fill="#4395A1"/>
<path fill-rule="evenodd" clip-rule="evenodd" d="M106.039 64.2872C106.058 64.6286 105.953 64.989 105.754 65.3021C105.621 64.7521 105.517 64.1927 105.432 63.6137C105.726 63.6232 106.011 63.9552 106.039 64.2872" fill="#4395A1"/>
<path fill-rule="evenodd" clip-rule="evenodd" d="M120.658 60.6727C120.366 63.2135 116.07 61.6839 118.609 59.5627C119.233 59.2735 120.536 59.5438 120.658 60.6727Z" fill="#4395A1"/>
<path fill-rule="evenodd" clip-rule="evenodd" d="M125.229 51.2627C125.182 53.0374 121.81 53.2044 122.828 50.7026C123.453 50.0235 124.924 49.963 125.229 51.2627Z" fill="#4395A1"/>
<path fill-rule="evenodd" clip-rule="evenodd" d="M128.362 53.6714C128.327 53.5044 127.825 53.4616 128.039 52.4952C128.163 52.8555 128.267 53.2537 128.362 53.6714Z" fill="#4395A1"/>
<path fill-rule="evenodd" clip-rule="evenodd" d="M119.947 47.3627C121.439 47.9543 118.921 50.3981 118.045 48.4426C118.193 47.8214 118.723 47.5996 119.947 47.3627Z" fill="#4395A1"/>
<path fill-rule="evenodd" clip-rule="evenodd" d="M126.161 49.3542C125.787 49.2805 124.77 49.3782 124.852 48.1686C125.326 48.5289 125.763 48.9183 126.161 49.3542Z" fill="#4395A1"/>
<path fill-rule="evenodd" clip-rule="evenodd" d="M145.676 72.228C145.275 73.0029 145.474 74.8041 144.139 75.7951C143.258 74.9843 144.231 72.9298 145.676 72.228Z" fill="#4395A1"/>
<path fill-rule="evenodd" clip-rule="evenodd" d="M142.574 63.6043C142.625 63.5647 142.377 63.4752 142.593 63.2723C142.537 63.3234 142.794 63.3939 142.574 63.6043ZM145.496 63.2339C145.247 61.015 141.266 60.2332 141.409 63.8141C141.963 65.5655 145.187 65.3639 145.496 63.2339" fill="#4395A1"/>
<path fill-rule="evenodd" clip-rule="evenodd" d="M138.75 69.4294C138.627 70.0462 138.485 70.6724 138.343 71.2886C138.531 70.9169 139.171 70.7814 138.75 69.4294Z" fill="#4395A1"/>
<path fill-rule="evenodd" clip-rule="evenodd" d="M131.417 72.3418C130.581 72.7841 129.573 73.237 128.077 73.8311C128.352 73.1079 130.007 71.8485 131.417 72.3418Z" fill="#4395A1"/>
<path fill-rule="evenodd" clip-rule="evenodd" d="M144.898 67.9675C146.893 68.0198 146.436 71.19 144.176 70.514C143.114 69.8216 143.09 68.2454 144.898 67.9675Z" fill="#4395A1"/>
<path fill-rule="evenodd" clip-rule="evenodd" d="M145.563 55.9009C147.054 56.4925 144.536 58.9369 143.66 56.9808C143.809 56.3602 144.338 56.1378 145.563 55.9009Z" fill="#4395A1"/>
<path fill-rule="evenodd" clip-rule="evenodd" d="M97.5669 62.2761C96.6837 62.2124 95.6958 63.0755 95.9636 64.3822C96.7183 64.1333 97.8246 63.887 98.7809 62.9212C98.3922 62.6648 97.9846 62.4657 97.5669 62.2761" fill="#4395A1"/>
<path fill-rule="evenodd" clip-rule="evenodd" d="M91.419 61.3366C91.0108 60.8672 89.9662 61.7908 88.5349 61.4128C88.4813 61.4531 88.717 61.5268 88.4971 61.707C88.5317 61.6654 88.3585 61.6157 88.4782 61.4128C88.0888 61.3655 87.6812 61.2988 87.2635 61.2421C87.1073 63.4849 91.0555 63.7992 91.419 61.3366" fill="#4395A1"/>
<path fill-rule="evenodd" clip-rule="evenodd" d="M83.9812 68.5089C84.1708 68.3098 84.1235 68.1485 83.9812 68.5089C83.8016 68.6859 83.4828 67.8575 83.9812 68.5089ZM81.7232 69.3821C81.676 69.3821 81.647 69.3437 81.6092 69.3153C81.6439 69.3405 81.6817 69.1799 81.8373 69.3437C81.7995 69.3531 81.761 69.3909 81.7232 69.3821V69.3821ZM83.8199 66.8489C82.1687 65.7306 79.3374 68.5152 81.6451 70.0127C83.3045 70.8985 86.4388 68.2046 83.8199 66.8489Z" fill="#4395A1"/>
<path fill-rule="evenodd" clip-rule="evenodd" d="M85.1387 75.7479C85.0908 76.0793 85.0152 76.4024 84.9296 76.725C83.9909 76.3735 83.0893 75.8991 82.2451 75.2924C82.6748 74.3921 85.0045 73.9177 85.1387 75.7479Z" fill="#4395A1"/>
<path fill-rule="evenodd" clip-rule="evenodd" d="M84.2226 58.5982C84.4923 60.6161 81.3719 63.5078 80.842 59.7511C80.7185 58.4653 83.7659 56.758 84.2226 58.5982Z" fill="#4395A1"/>
<path fill-rule="evenodd" clip-rule="evenodd" d="M77.9664 64.5905C77.8296 65.0051 77.7805 65.5122 77.0176 65.8146C77.2677 65.3762 75.8937 62.9444 77.2614 62.7969C77.933 62.9702 78.1623 63.5391 77.9664 64.5905Z" fill="#4395A1"/>
<path fill-rule="evenodd" clip-rule="evenodd" d="M96.7673 57.9036C96.7207 59.6789 93.3489 59.8452 94.367 57.3435C94.9913 56.6644 96.4624 56.6039 96.7673 57.9036Z" fill="#4395A1"/>
<path fill-rule="evenodd" clip-rule="evenodd" d="M100.223 58.4339C100.223 59.1074 100.157 59.7808 100.024 60.4165C99.5697 60.0335 99.0417 59.2749 100.223 58.4339Z" fill="#4395A1"/>
<path fill-rule="evenodd" clip-rule="evenodd" d="M91.0586 77.6169C90.3738 77.6711 87.7417 77.9048 89.7936 76.2813C90.3851 75.9096 91.6155 76.4205 91.0586 77.6169Z" fill="#4395A1"/>
<path fill-rule="evenodd" clip-rule="evenodd" d="M97.0991 53.9372C98.2936 53.7097 98.9249 56.6802 96.8138 55.7969C96.1756 55.4202 96.1315 54.3044 97.0991 53.9372Z" fill="#4395A1"/>
<path fill-rule="evenodd" clip-rule="evenodd" d="M63.1002 73.765C57.9468 77.0428 59.1306 68.6638 62.1023 70.8518C62.4444 71.8082 63.0511 72.4237 64.1819 71.64C64.3527 72.5604 64.0018 73.2528 63.1002 73.765" fill="#4395A1"/>
<path fill-rule="evenodd" clip-rule="evenodd" d="M68.0713 65.5583C68.0536 65.896 66.7735 65.5904 67.6252 65.0745C67.796 65.1242 67.9673 65.1702 68.0713 65.5583ZM68.8115 63.405C68.7542 63.1719 66.129 60.8572 66.3079 63.3426C66.5328 64.3525 65.339 65.7744 66.9278 66.4479C69.1606 67.3721 69.4441 65.3025 68.8115 63.405Z" fill="#4395A1"/>
<path fill-rule="evenodd" clip-rule="evenodd" d="M58.8401 61.8017C58.6222 61.7632 58.4042 61.7254 58.1856 61.6782C58.1648 61.6832 58.1812 61.6769 58.1383 61.7072C58.0022 61.5509 57.8366 61.6057 56.9048 61.4697C57.4006 63.4315 59.0984 63.5096 61.0225 62.0675C60.1115 61.8489 59.0966 61.7916 58.8401 61.8017" fill="#4395A1"/>
<path fill-rule="evenodd" clip-rule="evenodd" d="M53.6224 68.5089C53.812 68.3098 53.7648 68.1486 53.6224 68.5089C53.4428 68.6859 53.1247 67.8575 53.6224 68.5089ZM53.4611 66.8489C53.3093 66.7915 53.1574 66.7537 52.9962 66.7355C53.0314 67.4461 53.0579 68.7231 52.5791 70.0266C53.7175 69.8716 55.6825 67.911 53.4611 66.8489" fill="#4395A1"/>
<path fill-rule="evenodd" clip-rule="evenodd" d="M54.7798 75.7479C54.5354 76.7565 52.8961 76.9386 51.403 77.3985C50.5796 75.7409 54.1102 72.7188 54.7798 75.7479Z" fill="#4395A1"/>
<path fill-rule="evenodd" clip-rule="evenodd" d="M47.3896 65.2267C46.6216 66.5529 43.4388 65.6407 45.1745 63.4634C46.747 61.9438 47.1596 63.0948 47.3896 65.2267Z" fill="#4395A1"/>
<path fill-rule="evenodd" clip-rule="evenodd" d="M45.0396 72.9768C40.4778 72.5358 48.6987 67.7415 46.8509 72.0816C46.379 72.6171 45.967 72.9094 45.0396 72.9768Z" fill="#4395A1"/>
<path fill-rule="evenodd" clip-rule="evenodd" d="M60.463 66.0702C62.4575 66.1225 62.0014 69.2926 59.741 68.6167C58.6788 67.9243 58.6549 66.348 60.463 66.0702Z" fill="#4395A1"/>
<path fill-rule="evenodd" clip-rule="evenodd" d="M66.4111 57.9024C66.4017 58.0258 66.3733 58.1588 66.3065 58.3011C66.2971 57.9969 66.2876 57.7033 66.2593 57.4185C66.3639 57.5703 66.4206 57.7316 66.4111 57.9024Z" fill="#4395A1"/>
<path fill-rule="evenodd" clip-rule="evenodd" d="M71.3293 59.1082C71.5869 60.8489 69.0953 61.3359 69.2036 59.1844C69.3945 58.3793 71.2971 57.685 71.3293 59.1082Z" fill="#4395A1"/>
<path fill-rule="evenodd" clip-rule="evenodd" d="M66.7405 53.9372C67.935 53.7097 68.5662 56.6802 66.4551 55.7969C65.8169 55.4202 65.7728 54.3044 66.7405 53.9372Z" fill="#4395A1"/>
<path fill-rule="evenodd" clip-rule="evenodd" d="M68.0715 70.6888C68.0325 69.6802 70.4296 68.2406 70.0938 70.5527C69.8072 71.327 68.6026 71.9141 68.0715 70.6888Z" fill="#4395A1"/>
<path fill-rule="evenodd" clip-rule="evenodd" d="M29.1743 34.2512C29.1567 34.5889 27.8765 34.2827 28.7283 33.7674C28.899 33.8165 29.0704 33.8631 29.1743 34.2512ZM29.9139 32.0979C26.8301 28.1887 24.7567 35.9283 29.6487 35.1716C30.428 34.7262 30.2762 33.2861 29.9139 32.0979" fill="#4395A1"/>
<path fill-rule="evenodd" clip-rule="evenodd" d="M22.1631 30.0294C21.7492 28.9723 20.5352 26.9046 18.7769 28.7392C20.0381 28.9099 21.2049 29.4889 22.2204 30.3331C22.2204 30.2285 22.2015 30.1239 22.1631 30.0294Z" fill="#4395A1"/>
<path fill-rule="evenodd" clip-rule="evenodd" d="M15.8826 44.4401C16.0962 45.7089 14.0739 48.7984 12.4094 45.6831C12.1284 44.0312 15.2595 41.6309 15.8826 44.4401Z" fill="#4395A1"/>
<path fill-rule="evenodd" clip-rule="evenodd" d="M14.9667 27.2907C15.2364 29.3086 12.116 32.2003 11.5861 28.4436C11.4633 27.1578 14.5106 25.4505 14.9667 27.2907Z" fill="#4395A1"/>
<path fill-rule="evenodd" clip-rule="evenodd" d="M7.20681 34.5348C4.53309 34.6401 6.15471 30.6666 8.4057 31.6715C9.03633 32.3437 8.98719 34.5796 7.20681 34.5348" fill="#4395A1"/>
<path fill-rule="evenodd" clip-rule="evenodd" d="M6.14265 41.6694C1.58082 41.2278 9.80169 36.4347 7.9539 40.7748C7.4814 41.3097 7.06938 41.602 6.14265 41.6694Z" fill="#4395A1"/>
<path fill-rule="evenodd" clip-rule="evenodd" d="M22.9411 36.0061C22.9411 36.3192 22.7987 36.6229 22.5808 36.8699C22.1064 36.4137 22.078 35.9015 22.8271 35.5223C22.9033 35.6741 22.9411 35.8354 22.9411 36.0061Z" fill="#4395A1"/>
<path fill-rule="evenodd" clip-rule="evenodd" d="M26.9638 27.6764C26.4397 28.302 25.0688 28.1313 24.8672 26.6804C25.598 26.9652 26.2998 27.2966 26.9638 27.6764Z" fill="#4395A1"/>
<path fill-rule="evenodd" clip-rule="evenodd" d="M21.6982 46.4325C20.258 48.2979 18.1109 44.1091 21.9546 45.6356C21.9697 45.8013 21.9962 45.9462 21.6982 46.4325Z" fill="#4395A1"/>
<path fill-rule="evenodd" clip-rule="evenodd" d="M30.0661 72.9301C29.1053 73.3446 27.2777 75.8174 25.6075 74.8856C23.5947 72.7971 29.334 68.8968 30.0661 72.9301" fill="#4395A1"/>
<path fill-rule="evenodd" clip-rule="evenodd" d="M33.9176 66.507C33.9 66.8447 32.6198 66.5391 33.4716 66.0232C33.6423 66.0729 33.8137 66.1189 33.9176 66.507V66.507ZM34.6579 64.3537C31.9728 60.6883 29.2745 67.4054 34.0695 67.5415C34.2226 66.851 35.2463 65.6527 34.6579 64.3537" fill="#4395A1"/>
<path fill-rule="evenodd" clip-rule="evenodd" d="M20.6261 76.6965C20.0206 77.014 18.6668 77.0405 17.2297 77.2566C17.3627 75.8523 20.2115 74.242 20.6261 76.6965Z" fill="#4395A1"/>
<path fill-rule="evenodd" clip-rule="evenodd" d="M18.5299 62.2477C17.8621 63.0642 16.1794 62.1167 16.3287 60.8057C17.2113 61.1849 17.9893 61.6593 18.5299 62.2477Z" fill="#4395A1"/>
<path fill-rule="evenodd" clip-rule="evenodd" d="M13.4542 65.5392C13.6721 66.6745 10.7767 67.5212 11.1295 65.6816C11.8968 63.791 13.5266 62.57 13.4542 65.5392Z" fill="#4395A1"/>
<path fill-rule="evenodd" clip-rule="evenodd" d="M11.7749 73.7557C11.058 74.1286 8.74333 73.8609 9.75385 72.3608C10.2856 72.9776 10.9779 73.4325 11.7749 73.7557Z" fill="#4395A1"/>
<path fill-rule="evenodd" clip-rule="evenodd" d="M27.6848 68.2623C25.5314 69.1764 25.3607 69.4102 25.8471 68.6831C27.4844 68.9162 26.7561 70.2846 25.3613 69.4102C26.2389 67.7602 27.0302 66.2123 27.6848 68.2623Z" fill="#4395A1"/>
<path fill-rule="evenodd" clip-rule="evenodd" d="M32.255 58.8522C32.2084 60.6276 28.836 60.7939 29.8547 58.2922C30.4791 57.613 31.9501 57.5525 32.255 58.8522Z" fill="#4395A1"/>
<path fill-rule="evenodd" clip-rule="evenodd" d="M35.597 61.4221C35.1548 61.0983 34.4901 60.3303 35.6065 59.4584C35.6443 60.1129 35.6348 60.7675 35.597 61.4221Z" fill="#4395A1"/>
<path fill-rule="evenodd" clip-rule="evenodd" d="M27.4664 55.4168C27.4759 55.6354 27.4381 55.8439 27.3618 56.0147C27.2673 55.6543 27.1438 55.2939 27.0015 54.9518C27.2768 54.9613 27.4475 55.1415 27.4664 55.4168Z" fill="#4395A1"/>
<path fill-rule="evenodd" clip-rule="evenodd" d="M32.5869 54.8865C33.7814 54.6584 34.4127 57.6289 32.3016 56.7456C31.6634 56.3689 31.6193 55.2532 32.5869 54.8865Z" fill="#4395A1"/>
</svg>
