<svg width="150" height="195" viewBox="0 0 150 195" fill="none" xmlns="http://www.w3.org/2000/svg">
<path fill-rule="evenodd" clip-rule="evenodd" d="M83.6698 132.886C81.9886 142.96 83.6662 153.31 88.4291 162.355C107.125 198.119 71.8061 200.886 59.8973 186.925C51.0546 177.131 56.3585 156.953 71.2151 160.812C84.0032 164.56 81.5494 181.783 71.7534 176.985C70.7414 176.346 69.7664 174.431 71.1066 173.714C71.5846 173.513 72.1327 173.658 72.7957 173.843C77.5059 174.888 77.2983 168.665 74.4562 166.752C67.0761 160.809 59.264 166.606 59.8079 174.757C60.0303 192.42 86.745 194.943 88.7204 181.83C89.8866 172.592 83.6763 164.687 80.741 156.493C77.8492 148.42 77.2685 139.026 82.9096 132.099L83.6698 132.886Z" fill="#8CA6BC"/>
<path fill-rule="evenodd" clip-rule="evenodd" d="M138.233 135.517C133.312 130.995 127.846 127.069 123.506 121.779C110.663 105.876 121.454 95.3325 115.238 88.9935C111.961 85.2466 105.856 84.2337 100.857 84.0539C85.1574 83.2603 71.232 93.2894 69.2805 108.913C67.4307 122.482 73.4618 134.206 82.3969 143.144C91.5367 152.547 100.93 162.247 112.867 167.925C124.488 173.663 130.215 165.76 119.888 157.58C117.415 155.364 114.175 153.282 112.751 149.93C110.439 142.521 117.345 138.832 123.208 142.317C127.357 144.579 130.884 148.199 134.683 150.309C150.898 159.94 146.16 141.433 138.233 135.517" fill="#8CA6BC"/>
<path fill-rule="evenodd" clip-rule="evenodd" d="M24.6646 126.687C60.5981 160.309 124.931 145.902 143.977 110.365C154.333 90.082 147.848 65.4876 139.218 46.0328C134.586 66.7696 121.821 88.1313 103.801 99.4785C88.9923 108.864 72.236 109.106 57.2791 100.222C25.3578 80.7149 29.6353 28.7867 39.2394 0C-5.15099 40.0247 -14.456 89.0989 24.6646 126.687" fill="#F4C1B5"/>
<path fill-rule="evenodd" clip-rule="evenodd" d="M138.091 104.961C137.532 105.099 135.225 104.862 134.896 105.457C134.155 106.619 132.96 109.496 132.14 107.217C131.487 105.725 131.431 104.811 130.724 104.72C128.998 104.333 126.858 104.09 128.07 102.876C128.923 102.04 130.239 101.446 130.268 100.676C130.176 99.1458 129.403 96.1056 131.711 97.789C133.02 98.5017 133.099 98.9947 133.963 98.8687C135.087 98.432 137.737 96.8358 137.285 98.838C137.055 100.143 136.402 101.145 136.823 101.824C137.178 102.458 139.916 104.497 138.091 104.961" fill="#FDECEE"/>
<path fill-rule="evenodd" clip-rule="evenodd" d="M25.4547 35.7036C24.9646 35.9847 22.9698 36.5746 22.6824 37.0216C22.2174 38.0867 22.2847 41.4837 20.7954 40.0446C19.8964 39.1133 19.0989 37.7258 18.4889 37.9038C17.0229 38.0381 14.5835 38.6822 15.2733 37.1059C15.7152 36.184 16.9027 34.9418 16.6548 34.2452C15.9905 32.664 14.2378 30.1203 17.3825 31.1187C18.7635 31.3424 18.7492 31.7076 19.5442 31.3184C20.4595 30.5441 22.4376 28.1351 22.6698 30.1914C22.8642 31.5327 22.6532 32.8324 23.2332 33.1691C24.0244 33.7811 26.9501 34.6398 25.4547 35.7036Z" fill="#FDECEE"/>
<path fill-rule="evenodd" clip-rule="evenodd" d="M28.3519 58.9899C28.875 59.1834 28.8463 59.5118 29.1669 60.2454C31.0104 65.6242 31.3411 59.0229 33.4054 59.341C33.0693 57.1242 32.812 54.8803 32.6261 52.6207C30.3297 54.4651 28.1766 49.8239 27.541 52.2745C27.4874 52.8397 28.0681 55.0975 27.5278 55.5078C23.9515 58.2333 24.8169 58.2167 28.3519 58.9899" fill="#FDECEE"/>
<path fill-rule="evenodd" clip-rule="evenodd" d="M29.98 8.94446C29.2368 9.7363 28.5044 10.538 27.7798 11.3467C30.0925 11.1843 32.5642 11.4996 29.98 8.94446Z" fill="#FDECEE"/>
<path fill-rule="evenodd" clip-rule="evenodd" d="M3.50372 61.507C3.78553 61.09 4.70449 59.3922 5.01185 59.062C5.78195 58.4453 8.79462 59.3786 8.70158 57.9534C8.69306 57.5238 7.25555 56.2273 6.83385 55.6388C5.95704 55.0994 8.40924 51.7059 6.60293 51.5474C5.70864 51.5577 3.94941 53.1745 3.13919 52.486C2.34533 55.7312 0.978889 58.5616 1.74383 60.0603C2.24019 61.4055 2.5332 62.3724 3.50372 61.507" fill="#FDECEE"/>
<path fill-rule="evenodd" clip-rule="evenodd" d="M22.6245 76.5279C22.0653 76.6662 19.7586 76.4292 19.4295 77.0242C18.6879 78.1858 17.4936 81.0624 16.6731 78.7835C16.02 77.2921 15.9644 76.3774 15.2575 76.2869C13.5308 75.9001 11.3916 75.6567 12.6036 74.4431C13.4569 73.6065 14.7722 73.013 14.8013 72.2425C14.7094 70.7128 13.9368 67.6723 16.244 69.356C17.5535 70.0685 17.6324 70.5617 18.4958 70.4355C19.6199 69.999 22.2705 68.4025 21.8183 70.4048C21.5887 71.7102 20.9352 72.7117 21.356 73.3906C21.7111 74.025 24.4489 76.064 22.6245 76.5279" fill="#FDECEE"/>
<path fill-rule="evenodd" clip-rule="evenodd" d="M28.2011 101.822C27.642 101.96 25.3353 101.723 25.0062 102.318C24.2646 103.48 23.0703 106.357 22.2497 104.078C21.5967 102.586 21.5411 101.672 20.8342 101.581C19.1075 101.194 16.9683 100.951 18.1802 99.7373C19.0335 98.9006 20.3488 98.3072 20.378 97.5367C20.2861 96.007 19.5133 92.9665 21.8206 94.65C23.1299 95.3627 23.2091 95.8557 24.0724 95.7297C25.1965 95.2932 27.8471 93.6967 27.3949 95.699C27.1654 97.0044 26.5121 98.0059 26.9326 98.6847C27.2878 99.3192 30.0256 101.358 28.2011 101.822" fill="#FDECEE"/>
<path fill-rule="evenodd" clip-rule="evenodd" d="M24.6646 126.687C24.7832 126.347 27.2865 126.374 27.7641 126.3C29.7986 125.729 26.4907 123.76 26.3436 122.763C26.2947 122.096 27.2067 120.172 26.9946 119.532C26.1555 118.111 23.558 121.078 22.8348 120.04C19.1186 117.406 19.6921 118.847 19.9495 121.951C21.0166 123.312 23.1379 125.25 24.6646 126.687" fill="#FDECEE"/>
<path fill-rule="evenodd" clip-rule="evenodd" d="M47.1196 115.512C43.4301 115.485 44.1351 116.182 42.558 118.284C41.2061 119.693 40.7994 116.179 40.2436 115.525C39.9802 115.154 38.0701 114.947 37.3413 114.715C35.1801 113.775 39.4765 112.273 39.2951 111.212C39.346 110.394 38.7077 108.323 39.3904 107.935C39.9939 107.408 41.8692 109.226 42.3553 109.367C42.8328 109.73 44.3587 108.759 45.3207 108.429C47.52 107.825 45.4635 111.108 45.735 112.186C46.0576 113.03 48.9947 114.952 47.1196 115.512" fill="#FDECEE"/>
<path fill-rule="evenodd" clip-rule="evenodd" d="M86.8647 123.308C86.3055 123.446 83.9989 123.209 83.6697 123.804C82.9281 124.966 81.7339 127.842 80.9133 125.563C80.2603 124.072 80.2047 123.157 79.498 123.067C77.7711 122.68 75.6318 122.437 76.8438 121.223C77.6971 120.386 79.0124 119.793 79.0416 119.022C78.9496 117.492 78.1771 114.452 80.4842 116.136C81.7937 116.848 81.8726 117.341 82.736 117.215C83.8601 116.779 86.5107 115.182 86.0585 117.185C85.8289 118.49 85.1756 119.492 85.5962 120.17C85.9513 120.805 88.6891 122.844 86.8647 123.308" fill="#FDECEE"/>
<path fill-rule="evenodd" clip-rule="evenodd" d="M70.4243 145.535C73.9792 145.745 77.5712 145.742 81.1634 145.527C80.8648 145.024 79.0917 143.564 79.2787 142.908C80.3319 139.181 80.3906 138.795 76.6191 140.55C76.1671 141.01 74.1788 139.252 73.5042 139.012C71.5741 138.806 73.5367 142.429 72.6137 142.977C71.9918 143.668 69.9393 144.636 70.4243 145.535" fill="#FDECEE"/>
<path fill-rule="evenodd" clip-rule="evenodd" d="M131.978 122.091C132.493 122.081 132.975 123.949 133.161 124.278C134.73 122.738 136.671 120.921 137.957 119.167C137.557 116.497 140.527 113.626 135.209 116.166C134.459 116.882 132.301 113.954 131.352 114.843C130.831 115.408 131.55 117.583 131.384 118.24C131.226 118.749 130.458 119.11 129.562 119.924C127.308 121.595 130.884 121.738 131.978 122.091" fill="#FDECEE"/>
<path fill-rule="evenodd" clip-rule="evenodd" d="M131.036 74.7642C131.386 74.3162 132.244 72.4272 132.731 72.2046C133.753 71.8894 137.123 72.4608 136.035 70.8133C135.147 69.6809 133.795 68.7099 134.263 67.9203C135.082 65.2013 135.233 64.0981 132.662 65.3903C131.524 67.2946 130.286 70.1994 128.911 72.3871C129.299 72.9987 129.807 76.1284 131.036 74.7642" fill="#FDECEE"/>
<path fill-rule="evenodd" clip-rule="evenodd" d="M111.856 125.34C111.297 125.478 108.99 125.241 108.661 125.836C107.919 126.998 106.725 129.874 105.905 127.595C105.252 126.104 105.196 125.189 104.489 125.099C102.762 124.712 100.623 124.468 101.835 123.255C102.688 122.418 104.004 121.825 104.033 121.054C103.941 119.525 103.168 116.484 105.476 118.168C106.785 118.88 106.864 119.373 107.727 119.247C108.851 118.811 111.502 117.214 111.05 119.217C110.82 120.522 110.167 121.523 110.588 122.203C110.943 122.837 113.681 124.876 111.856 125.34" fill="#FDECEE"/>
<path fill-rule="evenodd" clip-rule="evenodd" d="M146.69 84.6319C147.143 84.7861 147.181 85.0946 147.389 85.5955C150.339 93.1619 149.022 80.7478 148.905 79.4898C149.056 78.2261 148.031 78.0319 146.989 77.3123C144.785 76.4021 146.739 80.5518 145.856 81.1572C142.027 84.0362 143.508 83.8728 146.69 84.6319Z" fill="#FDECEE"/>
<path fill-rule="evenodd" clip-rule="evenodd" d="M63.1182 107.707C64.24 108.21 64.4833 112.709 65.9665 110.418C67.5988 107.296 67.5926 108.221 70.3066 107.925C71.8089 107.625 70.5299 106.402 69.6755 105.45C67.7109 104.8 64.6514 103.949 62.4761 102.912C63.0877 105.688 56.0595 106.407 63.1182 107.707" fill="#FDECEE"/>
<path fill-rule="evenodd" clip-rule="evenodd" d="M39.5995 88.7914C40.1216 88.9872 40.0945 89.312 40.414 90.0462C42.2902 95.5405 42.5759 88.4695 44.9886 89.1223C43.2751 86.9255 41.6255 84.1422 40.3118 81.7366C38.3059 80.3995 38.8568 82.6715 38.9937 84.3991C39.0653 84.8073 39.0092 85.1335 38.6796 85.3882C34.6169 88.3749 36.9592 88.0852 39.5995 88.7914" fill="#FDECEE"/>
<path fill-rule="evenodd" clip-rule="evenodd" d="M63.1393 133.774C63.1106 133.714 60.3066 134.072 60.4485 133.872C60.5891 133.907 60.4304 133.983 60.3281 134.159C56.5546 139.785 57.9311 135.309 55.893 133.56C55.1 133.289 51.7979 133.097 53.0343 131.759C53.5899 131.178 55.3563 130.19 55.3161 129.488C55.2332 128.113 54.5086 125.083 56.512 126.445C57.8076 127.146 58.1815 127.836 59.0106 127.681C60.1349 127.245 62.7853 125.648 62.3331 127.651C62.0732 128.981 61.4444 130.138 61.8804 130.647C62.4248 131.487 64.9021 133.264 63.1393 133.774" fill="#FDECEE"/>
<path fill-rule="evenodd" clip-rule="evenodd" d="M96.6392 143.252C99.4252 142.543 103.122 141.661 105.472 140.617C106.391 137.74 105.64 137.815 103.187 138.976C101.623 140.206 100.344 137.347 98.9053 137.78C98.5459 137.983 98.5822 138.44 98.5907 138.549C99.1478 142.292 98.5188 141.516 96.6392 143.252" fill="#FDECEE"/>
<path fill-rule="evenodd" clip-rule="evenodd" d="M3.70806 94.9007C4.41673 94.8803 5.27201 92.5501 5.75761 92.1257C8.8149 91.3464 11.2655 92.6332 7.62355 88.7529C7.05388 88.5068 7.76793 86.7828 8.02687 85.5883C8.32482 83.473 5.50114 85.5822 4.46739 85.7571C3.56996 85.7865 2.05174 83.8465 1.1431 84.1866C0.99513 87.48 2.79897 91.5244 3.70806 94.9007" fill="#FDECEE"/>
<path fill-rule="evenodd" clip-rule="evenodd" d="M132.11 92.1909C128.139 81.6024 114.425 67.818 103.183 74.8549C102.095 75.5051 101.074 76.4594 100.81 77.71C100.102 81.6396 105.024 83.562 107.688 85.6627C110.553 87.5784 113.103 89.7122 115.524 92.177C118.335 94.8211 120.066 98.1579 122.545 101.03C129.836 107.929 135.39 99.3574 132.11 92.1909Z" fill="#C4C5D1"/>
<path fill-rule="evenodd" clip-rule="evenodd" d="M128.505 82.1693C126.319 93.7075 113.669 98.1729 103.699 101.166C95.6672 103.258 84.6373 106.009 79.7981 100.706C74.0918 95.3782 74.3164 84.4227 73.4472 78.4056C73.2069 73.3898 71.8528 68.7264 70.9504 63.9702C71.5699 63.3315 71.9593 64.1307 72.5864 64.6755C75.7416 67.4736 77.9793 71.0161 80.468 71.1358C85.4979 69.5579 89.8934 66.1836 95.2706 64.828C114.642 58.793 106.766 67.0237 110.318 50.569C111.42 50.3479 111.519 52.4255 112.092 53.0979C116.126 63.7063 130.158 69.596 128.505 82.1693" fill="#8CA6BC"/>
<path fill-rule="evenodd" clip-rule="evenodd" d="M74.8282 75.7783C75.0638 75.8686 75.4492 75.7375 75.8319 75.4247C80.0987 72.006 78.2733 72.9436 75.605 69.8491C71.8119 65.704 73.4868 69.3844 74.0379 71.7332C74.5838 73.1452 74.009 74.7752 74.8282 75.7783" fill="#C4C5D1"/>
<path fill-rule="evenodd" clip-rule="evenodd" d="M115.195 61.6865C115.059 61.9329 114.616 62.0705 114.089 62.0584C108.334 62.3824 111.007 60.8117 110.859 56.9404C111.091 52.1718 112.353 56.388 113.133 57.9212C113.629 59.4105 115.145 60.3478 115.195 61.6865" fill="#C4C5D1"/>
<path fill-rule="evenodd" clip-rule="evenodd" d="M96.5538 92.341C93.7368 93.3917 95.101 96.9949 97.8866 95.9672C99.9877 95.0108 98.8183 91.6513 96.5538 92.341Z" fill="#FDECEE"/>
<path fill-rule="evenodd" clip-rule="evenodd" d="M123.701 78.8937C120.885 79.9445 122.249 83.5479 125.035 82.52C127.135 81.5636 125.966 78.2041 123.701 78.8937Z" fill="#FDECEE"/>
<path fill-rule="evenodd" clip-rule="evenodd" d="M114.579 85.937C115.874 92.7955 103.808 88.5533 113.251 85.6025C113.905 85.4185 114.287 85.5059 114.579 85.937Z" fill="#1A1A1A"/>
<path fill-rule="evenodd" clip-rule="evenodd" d="M113.412 85.8584C104.54 88.5962 115.559 91.9907 114.321 86.0651C114.223 85.8738 113.927 85.7355 113.412 85.8584ZM112.829 89.9003C111.621 90.2794 108.719 89.2026 109.322 87.6483C111.46 85.0598 116.52 83.7268 114.639 88.3384C114.197 89.1737 113.734 89.6373 112.829 89.9003Z" fill="black"/>
<path fill-rule="evenodd" clip-rule="evenodd" d="M111.4 88.096C110.464 88.602 109.935 87.7751 111.299 87.2431C111.992 87.0237 112.247 87.5844 111.4 88.096Z" fill="#6F7777"/>
<path fill-rule="evenodd" clip-rule="evenodd" d="M112.194 92.4325C110.768 92.7717 108.1 92.1067 109.56 91.607C111.536 92.1679 113.594 92.1709 112.919 89.366C114.113 88.2446 113.892 92.595 112.194 92.4325" fill="black"/>
<path fill-rule="evenodd" clip-rule="evenodd" d="M115.38 90.7312C113.284 91.2011 111.82 87.8277 114.091 89.8104C114.605 90.1341 114.877 90.2278 115.404 90.0588C115.886 89.8483 116.271 89.3111 116.586 88.6975C118.06 84.8699 117.948 89.9624 115.38 90.7312Z" fill="black"/>
<path fill-rule="evenodd" clip-rule="evenodd" d="M99.1383 85.5376C99.2069 84.4074 99.5179 82.8865 100.685 82.3785C101.816 81.8857 103.038 82.711 103.827 83.4595C104.075 83.6938 104.449 83.3201 104.202 83.0854C103.417 82.3406 102.368 81.6277 101.232 81.7129C100.238 81.7878 99.4869 82.4798 99.0905 83.3625C98.7825 84.048 98.6543 84.7912 98.609 85.5376C98.5884 85.8779 99.1177 85.8765 99.1383 85.5376" fill="black"/>
<path fill-rule="evenodd" clip-rule="evenodd" d="M111.183 79.508C111.252 78.3779 111.563 76.8568 112.729 76.349C113.861 75.8562 115.083 76.6814 115.872 77.4298C116.119 77.6643 116.494 77.2906 116.247 77.0556C115.461 76.3111 114.412 75.5981 113.276 75.6833C112.283 75.7582 111.532 76.4503 111.135 77.3329C110.828 78.0185 110.699 78.7617 110.654 79.508C110.633 79.8483 111.163 79.847 111.183 79.508" fill="black"/>
<path fill-rule="evenodd" clip-rule="evenodd" d="M90.8675 76.9058C88.8491 77.3076 90.0373 79.115 89.0078 78.7072C88.5595 78.3164 88.5411 77.8786 88.0313 77.8003C87.2959 77.8584 86.5725 78.1299 86.7357 77.4694C88.2523 75.9519 85.3394 74.4422 88.1866 75.1829C88.294 75.2728 88.4918 75.1031 88.8655 74.7614C90.3893 73.3105 89.1146 76.0822 90.6949 76.2918C90.9924 76.4234 91.1632 76.5859 90.8675 76.9058" fill="#F4C1B5"/>
<path fill-rule="evenodd" clip-rule="evenodd" d="M88.0217 82.446C87.6374 82.506 86.7404 82.3592 86.6615 82.7208C85.452 84.9596 85.7269 82.5968 85.051 82.3025C84.5524 82.1117 83.9908 82.2052 83.8287 81.8393C83.8089 81.2537 84.7848 81.2304 84.8736 80.6522C84.6844 79.1654 84.7992 78.9551 86.1037 79.9012C86.182 80.0431 86.5086 79.8953 87.0344 79.681C88.6736 79.0111 86.6862 81.0571 88.1502 81.9025C88.3105 82.0254 88.3719 82.302 88.0217 82.446" fill="#C4C5D1"/>
<path fill-rule="evenodd" clip-rule="evenodd" d="M85.7806 76.7421C85.4723 76.9463 84.376 77.1499 84.2561 77.5572C84.103 78.224 83.9879 79.887 83.2071 78.968C82.5403 78.2766 82.4691 77.8653 81.9967 77.9251C80.9446 78.059 80.0245 78.2596 80.3682 77.4404C80.7354 76.7248 81.2219 76.3257 81.0658 75.9406C79.9758 73.865 80.511 74.0334 82.2673 74.478C82.4697 74.569 82.6702 74.3585 83.0849 73.9746C84.5578 72.3477 84.2671 74.315 84.4025 75.096C84.3861 75.3684 85.1268 75.6675 85.6528 75.991C85.9279 76.0753 86.1747 76.419 85.7806 76.7421" fill="#FDECEE"/>
<path fill-rule="evenodd" clip-rule="evenodd" d="M25.2253 14.2784C25.8569 14.482 26.5216 12.8026 26.7992 12.4567C26.3588 12.9564 25.7616 13.6399 25.2253 14.2784Z" fill="#FDECEE"/>
<path fill-rule="evenodd" clip-rule="evenodd" d="M98.2246 106.403C98.8169 106.609 98.8032 107.204 99.2904 108.295C100.399 111.751 101.457 108.063 102.417 106.944C103.074 106.431 105.402 106.989 105.968 106.356C106.58 105.502 105.077 104.731 104.342 103.638C103.212 103.161 106.017 99.1888 103.801 99.4785C101.253 101.475 89.8212 105.414 98.2246 106.403" fill="#1A1A1A"/>
<path fill-rule="evenodd" clip-rule="evenodd" d="M94.8276 95.3356C82.2675 92.8316 74.2955 103.671 79.2376 107.165C82.7034 109.198 87.0235 108.555 90.7987 109.407C102.439 111.37 104.923 115.395 110.023 116.073C116.528 116.599 117.85 109.881 114.502 105.779C109.86 99.8308 102.029 96.7321 94.8276 95.3356" fill="#C4C5D1"/>
</svg>
