<svg width="207" height="201" viewBox="0 0 207 201" fill="none" xmlns="http://www.w3.org/2000/svg">
<path fill-rule="evenodd" clip-rule="evenodd" d="M69.5019 194.957C64.3806 196.69 68.0359 186.169 67.0065 182.947C80.9925 181.228 79.6714 193.895 69.5019 194.957ZM68.3988 167.514C73.246 168.805 70.331 175.447 66.6127 177.222C67.1382 174.098 63.0041 166.364 68.3988 167.514ZM82.7023 179.253C81.6849 178.459 79.9965 177.451 77.581 176.915C86.4817 166.777 73.2996 158.599 62.776 162.783C61.1072 163.398 56.1428 162.021 55.8196 165.396C57.0015 175.212 58.9683 185.843 56.883 196.066C54.8412 202.96 74.1778 200.709 77.5206 198.729C84.0228 195.415 89.7804 184.802 82.7023 179.253" fill="#F5F5F7"/>
<path fill-rule="evenodd" clip-rule="evenodd" d="M100.157 168.311C105.454 164.932 107.764 172.528 106.87 176.916C104.084 177.053 100.133 176.714 97.0147 176.425C97.2289 174.302 97.7065 170.125 100.157 168.311ZM115.511 190.79C111.667 189.834 109.525 191.795 106.266 193.983C99.2575 195.296 97.5729 187.199 96.9618 181.126C102.23 181.358 109.905 183.445 114.699 180.162C121.972 169.784 106.195 157.694 96.2014 163.173C86.0458 168.075 86.6449 179.96 89.284 189.509C93.5025 210.823 126.532 196.852 115.511 190.79" fill="#4395A1"/>
<path fill-rule="evenodd" clip-rule="evenodd" d="M135.469 184.855C135.243 187.181 134.236 190.524 132.344 192.777C132.397 186.965 132.379 181.153 132.308 175.34C134.324 177.661 135.922 181.061 135.469 184.855ZM150.376 182.675C151.057 160.191 120.829 157.227 122.921 167.828C123.536 178.543 122.327 191.171 123.377 200.4C132.818 202.738 151.581 195.494 150.376 182.675Z" fill="#F5F5F7"/>
<path fill-rule="evenodd" clip-rule="evenodd" d="M92.9148 18.5853C92.717 14.9943 93.8712 17.9402 93.5832 20.1918C93.3168 19.7533 93.0232 19.0748 92.9148 18.5853ZM99.218 22.1001C98.6711 22.1083 98.123 22.1209 97.5875 22.1039C100.239 6.44775 79.5437 16.231 92.7233 23.8735C88.1589 39.049 85.14 19.0654 85.288 14.3574C84.9138 13.3664 82.6131 13.1862 81.4331 13.8773C77.9202 25.4448 90.003 42.5071 96.7314 25.6968C96.7414 23.2606 99.6319 25.3112 101.048 23.6959C101.545 22.9651 100.868 22.228 99.218 22.1001" fill="#F5F5F7"/>
<path fill-rule="evenodd" clip-rule="evenodd" d="M110.986 114.943C109.184 115.385 104.651 116.893 105.839 113.17C106.478 113.689 110.674 113.831 109.579 111.53C108.026 110.998 106.325 109.139 106.856 107.377C111.271 100.337 116.41 111.685 110.986 114.943V114.943ZM114.561 104.931C109.764 99.5187 99.5327 106.64 104.6 112.318C104.394 112.366 104.022 112.47 103.744 113.138C100.655 119.916 94.4794 114.809 95.769 108.729C95.5952 105.716 95.5252 106.15 98.8901 105.189C99.9566 103.13 97.7 103.285 95.8944 103.655C96.0021 102.119 97.196 94.5291 94.1354 98.3834C93.4645 99.6378 94.7384 103.406 92.9479 104.3C88.8012 104.9 89.3733 108.433 93.5584 106.41C92.5554 114.761 96.5496 122.304 104.251 116.578C112.518 121.383 119.26 111.371 114.561 104.931Z" fill="#4395A1"/>
<path fill-rule="evenodd" clip-rule="evenodd" d="M161.073 130.311C157.075 129.42 155.836 130.699 156.828 134.645C158.128 134.67 160.179 134.719 162.063 134.775C160.67 133.244 160.443 131.563 161.073 130.311ZM161.073 130.311C157.075 129.42 155.836 130.699 156.828 134.645C158.128 134.67 160.179 134.719 162.063 134.775C160.67 133.244 160.443 131.563 161.073 130.311ZM161.073 130.311C157.075 129.42 155.836 130.699 156.828 134.645C158.128 134.67 160.179 134.719 162.063 134.775C160.67 133.244 160.443 131.563 161.073 130.311ZM161.073 130.311C157.075 129.42 155.836 130.699 156.828 134.645C158.128 134.67 160.179 134.719 162.063 134.775C160.67 133.244 160.443 131.563 161.073 130.311ZM161.073 130.311C157.075 129.42 155.836 130.699 156.828 134.645C158.128 134.67 160.179 134.719 162.063 134.775C160.67 133.244 160.443 131.563 161.073 130.311ZM161.073 130.311C157.075 129.42 155.836 130.699 156.828 134.645C158.128 134.67 160.179 134.719 162.063 134.775C160.67 133.244 160.443 131.563 161.073 130.311ZM168.146 136.71C167.702 140.444 158.109 143.221 159.629 137.813C160.637 138.559 165.917 138.427 163.859 135.604C162.131 135.412 160.706 133.512 160.75 131.475C162.365 124.823 171.014 129.63 168.146 136.71ZM171.63 131.475C169.628 120.343 150.971 127.402 158.15 136.798C157.902 136.859 157.47 136.984 157.125 137.778C156.457 140.923 152.036 142.914 149.401 140.338C146.515 137.202 147.906 133.792 147.636 129.716C147.533 128.276 150.428 129.613 151.479 128.07C152.169 125.696 149.931 126.098 147.768 126.468C147.893 124.577 149.318 115.506 145.666 120.175C144.86 121.783 146.356 126.263 144.278 127.224C139.456 127.826 139.724 132.167 144.975 129.751C143.822 139.371 148.312 148.876 157.739 141.884C165.202 146.447 173.413 139.805 171.63 131.475V131.475ZM161.073 130.311C157.075 129.42 155.836 130.699 156.828 134.645C158.128 134.67 160.179 134.719 162.063 134.775C160.67 133.244 160.443 131.563 161.073 130.311ZM161.073 130.311C157.075 129.42 155.836 130.699 156.828 134.645C158.128 134.67 160.179 134.719 162.063 134.775C160.67 133.244 160.443 131.563 161.073 130.311ZM161.073 130.311C157.075 129.42 155.836 130.699 156.828 134.645C158.128 134.67 160.179 134.719 162.063 134.775C160.67 133.244 160.443 131.563 161.073 130.311ZM161.073 130.311C157.075 129.42 155.836 130.699 156.828 134.645C158.128 134.67 160.179 134.719 162.063 134.775C160.67 133.244 160.443 131.563 161.073 130.311ZM161.073 130.311C157.075 129.42 155.836 130.699 156.828 134.645C158.128 134.67 160.179 134.719 162.063 134.775C160.67 133.244 160.443 131.563 161.073 130.311ZM161.073 130.311C157.075 129.42 155.836 130.699 156.828 134.645C158.128 134.67 160.179 134.719 162.063 134.775C160.67 133.244 160.443 131.563 161.073 130.311Z" fill="#F5F5F7"/>
<path fill-rule="evenodd" clip-rule="evenodd" d="M60.1006 139.993C48.3542 149.07 53.4541 115.718 61.9396 133.603C62.2319 135.534 61.9207 137.843 60.1006 139.993ZM83.2184 136.307C82.8316 133.137 71.1949 128.497 78.9149 126.002C79.2551 126.305 80.1062 126.152 79.7957 127.165C80.8169 132.188 84.2466 127.271 82.2451 125.079C78.3026 120.874 70.7955 126.349 74.3669 131.327C75.8506 133.647 78.6226 133.447 80.076 136.517C82.0788 140.007 75.6062 142.014 73.7036 139.45C75.7851 138.539 73.9341 135.44 71.4897 137.709C70.1535 138.412 71.4179 139.537 69.7843 140.51C68.094 141.069 66.9997 140.821 66.3924 139.602C64.2624 135.839 66.7263 129.202 65.2401 125.099C62.6691 124.072 63.1441 127.14 62.8839 129.252C59.0617 123.785 51.5672 125.415 50.5284 131.217C49.5078 133.474 52.5324 144.594 46.812 141.77C45.5293 137.453 46.2475 123.588 37.052 129.725C36.5462 125.069 38.794 113.17 35.569 114.143C33.0144 117.504 35.2099 124.897 34.4319 129.2C34.9661 132.194 32.9136 144.019 35.6465 144.254C39.1279 143.961 35.1375 130.998 41.1181 131.214C44.6228 133.04 42.5582 137.034 43.7508 140.942C44.7204 145.65 49.7969 145.708 51.8111 142.137C54.8338 146.482 61.5338 144.091 63.5146 139.608C65.6238 145.095 69.131 144.18 72.6067 143.2C77.951 145.886 85.0322 142.719 83.2184 136.307" fill="#F5F5F7"/>
<path fill-rule="evenodd" clip-rule="evenodd" d="M103.755 141.043C97.8175 138.689 101.521 127.827 106.769 126.834C114.331 127.407 112.088 143.434 103.755 141.043ZM113.856 136.614C115.447 127.509 108.419 119.885 100.874 127.467C94.6379 135.819 100.37 149.72 111.029 141.341C110.557 144.931 111.303 151.965 109.146 156.215C108.676 157.133 107.601 157.54 105.544 157.13C101.926 155.391 106.459 151.642 108.981 150.419C110.489 148.669 108.378 146.992 106.803 148.75C89.3138 159.557 115.976 168.776 113.463 146.69C113.375 143.298 113.69 141.916 113.856 136.614Z" fill="#F5F5F7"/>
<path fill-rule="evenodd" clip-rule="evenodd" d="M132.388 134.583C131.818 142.654 120.656 147.083 117.647 139.599C111.356 142.545 117.302 133.702 120.431 136.457C119.191 145.556 131.034 139.474 129.95 132.326C129.828 123.641 118.339 123.248 120.394 130.106C121.455 132.541 123.932 132.418 126.657 132.991C127.437 134.18 127.105 135.462 124.951 135.348C118.485 136.088 114.498 129.128 119.808 124.313C126.516 119.523 133.823 127.194 132.388 134.583" fill="#F5F5F7"/>
<path fill-rule="evenodd" clip-rule="evenodd" d="M95.9165 53.2737C94.5702 49.0344 103.199 47.1167 103.018 51.9022C104.515 55.9777 96.4022 57.8847 95.9165 53.2737ZM110.485 52.742C101.965 58.3339 107.371 44.2527 104.241 40.5887C101.242 35.8309 91.6797 38.3194 94.5828 44.4506C98.3647 49.2461 103.205 39.0263 97.2357 43.2422C97.0095 43.217 96.8936 43.0236 96.7557 42.6299C96.2334 40.2119 99.8943 39.8087 101.52 41.0838C103.583 42.4843 103.088 45.2532 103.051 47.6604C86.9988 42.8743 94.0845 66.6499 104.797 55.4088C109.844 59.6688 115.796 50.663 110.485 52.742" fill="#F4B955"/>
<path fill-rule="evenodd" clip-rule="evenodd" d="M21.2695 71.9071C20.0108 74.2696 12.8017 74.9185 13.0436 70.7353C13.3346 69.9024 14.0831 69.4847 15.299 69.1502C15.1251 67.9582 14.7238 66.966 13.1198 67.1191C3.15385 74.3112 24.1574 79.9446 19.9654 88.5303C17.0579 94.7849 6.12178 95.6159 1.33756 89.7386C-1.90379 86.0613 1.78234 80.8531 7.19656 83.489C10.0725 85.2473 3.60808 86.4702 9.63592 89.2919C11.473 90.1034 13.7189 88.4232 13.5961 85.7381C13.225 83.4922 12.7154 83.2742 10.671 81.2109C-12.2207 64.3339 27.2072 53.9294 21.2695 71.9071Z" fill="#F5F5F7"/>
<path fill-rule="evenodd" clip-rule="evenodd" d="M42.6715 75.1022C42.4554 80.1252 42.0352 86.0687 40.5969 90.2808C38.9312 94.9876 32.3357 94.4086 29.9228 91.2139C26.1246 87.03 24.2213 67.7048 26.6386 65.7108C45.4725 62.4607 42.6255 65.8847 42.6715 75.1022" fill="#F5F5F7"/>
<path fill-rule="evenodd" clip-rule="evenodd" d="M55.3381 78.8749C55.2826 76.3839 55.1409 72.8439 54.9834 70.0183C54.5556 68.517 56.0601 68.7678 56.9402 70.1916C58.2966 72.452 58.0987 77.4561 55.3381 78.8749V78.8749ZM64.6961 72.5812C64.1108 64.6161 52.8156 63.4978 47.8877 67.063C49.2025 89.9496 45.8515 96.123 54.0018 93.0077C56.7524 90.9035 55.0684 87.2759 55.408 83.5677C55.3545 82.9875 55.2411 82.4237 56.6806 82.4967C61.6362 81.6576 65.3324 78.0798 64.6961 72.5812Z" fill="#F5F5F7"/>
<path fill-rule="evenodd" clip-rule="evenodd" d="M194.915 87.3048C190.619 87.9663 191.419 76.6629 191.78 73.7787C195.715 56.8135 204.493 83.5607 194.915 87.3048ZM205.139 71.0143C203.021 63.8594 192.99 63.1777 188.175 66.8544C183.269 71.776 183.442 86.3724 188.118 90.085C199.963 97.6047 209.533 81.626 205.139 71.0143Z" fill="#4395A1"/>
<path fill-rule="evenodd" clip-rule="evenodd" d="M95.8235 71.9421C95.6049 73.6576 94.537 74.9358 93.0402 75.3649C93.0754 72.8083 93.1101 70.2442 93.1454 67.6877C94.5037 68.1759 96.1347 69.8555 95.8235 71.9421ZM106.608 85.6062C104.217 84.3947 99.5191 87.2977 103.187 88.5382C104.745 88.3693 104.263 88.3719 104.844 87.0539C106.31 86.9871 106.787 89.6004 105.95 90.5359C99.1594 97.2605 100.44 80.5132 96.0428 78.7171C108.452 74.9428 102.198 62.6704 91.5981 63.7943C89.4769 64.4482 85.7851 64.1496 86.1467 67.3078C86.5726 80.0067 84.4003 91.2925 86.9695 92.7856C95.5942 95.5413 92.1979 87.0564 92.9753 80.0747C93.151 79.3446 92.6288 79.2633 93.25 79.2079C97.8055 80.5 96.5304 89.5355 99.8385 92.1991C106.527 97.3185 111.533 88.9294 106.608 85.6062" fill="#F5F5F7"/>
<path fill-rule="evenodd" clip-rule="evenodd" d="M170.676 71.9421C170.457 73.6576 169.39 74.9359 167.893 75.3649C167.927 72.8084 167.962 70.2443 167.997 67.6877C169.358 68.1816 170.98 69.8518 170.676 71.9421ZM181.46 85.6062C179.068 84.3934 174.356 87.3015 178.034 88.5382C179.592 88.3719 179.109 88.3712 179.696 87.0539C181.162 86.9871 181.634 89.601 180.798 90.5359C173.996 97.2618 175.291 80.5114 170.886 78.7171C183.289 74.9466 177.051 62.671 166.447 63.7943C164.327 64.4483 160.638 64.1496 160.999 67.3078C161.42 80.0048 159.25 91.2888 161.821 92.7857C170.97 96.2003 166.855 83.6847 167.831 79.2507C169.045 78.8986 170.902 81.3455 171.369 83.33C173.805 101.658 188.791 91.5578 181.46 85.6062Z" fill="#F5F5F7"/>
<path fill-rule="evenodd" clip-rule="evenodd" d="M139.198 65.1231C136.649 73.8908 133.834 84.2071 133.197 93.3843C127.522 95.8287 132.562 84.9694 132.308 80.836C129.072 81.4137 125.943 81.2083 122.076 80.7131C122.417 84.8554 125.924 94.1195 122.674 93.7094C120.195 93.0485 121.715 89.7933 120.721 87.3842C119.814 82.1558 118.588 77.1196 117.914 71.4924C117.96 69.9918 116.015 62.4425 120.168 65.6303C120.275 69.014 120.732 74.8037 122.036 78.8678C137.593 81.8093 130.982 76.8291 134.925 65.6536C134.567 64.2726 139.142 64.1844 139.198 65.1231" fill="#F5F5F7"/>
<path fill-rule="evenodd" clip-rule="evenodd" d="M28.7009 68.3356C27.7124 68.5548 27.4573 68.4798 25.6901 68.4578C24.5631 66.5369 30.1291 66.2446 28.7009 68.3356Z" fill="#4395A1"/>
<path fill-rule="evenodd" clip-rule="evenodd" d="M33.6229 69.4824C33.5051 68.2898 27.7399 68.8328 27.7336 70.1955C27.9485 70.823 33.2411 71.0485 33.6229 69.4824Z" fill="#4395A1"/>
<path fill-rule="evenodd" clip-rule="evenodd" d="M37.7707 66.6658C37.2988 66.6079 31.8304 66.2796 33.5214 67.9636C34.3215 68.1419 39.7691 68.7599 37.7707 66.6658Z" fill="#4395A1"/>
<path fill-rule="evenodd" clip-rule="evenodd" d="M42.2323 69.1452C41.882 68.5297 36.2958 69.1238 38.1612 70.5615C38.916 70.3473 43.0305 71.2709 42.2323 69.1452Z" fill="#4395A1"/>
<path fill-rule="evenodd" clip-rule="evenodd" d="M37.9546 72.321C37.0934 72.6461 31.2685 72.3557 32.972 73.9647C34.198 74.2703 41.5904 74.2671 37.9546 72.321Z" fill="#4395A1"/>
<path fill-rule="evenodd" clip-rule="evenodd" d="M29.8127 75.8374C26.1058 74.9359 25.8122 74.9712 26.6879 74.8704C28.9175 76.1127 25.5986 77.2619 25.8122 74.9712C27.4489 74.8773 30.5882 73.8977 29.8127 75.8374Z" fill="#4395A1"/>
<path fill-rule="evenodd" clip-rule="evenodd" d="M42.6717 75.1022C42.9501 76.4914 42.1752 76.95 40.0773 76.887C32.7429 77.3576 40.2544 74.5359 42.6717 75.1022Z" fill="#4395A1"/>
<path fill-rule="evenodd" clip-rule="evenodd" d="M35.5866 79.0564C34.7292 78.9656 30.5151 78.33 30.5252 80.15C30.7331 80.6792 37.3727 81.0226 35.5866 79.0564Z" fill="#4395A1"/>
<path fill-rule="evenodd" clip-rule="evenodd" d="M41.3557 81.792C40.4945 81.5734 34.9971 81.4921 36.901 83.1112C37.5833 83.1181 43.7667 84.0713 41.3557 81.792Z" fill="#4395A1"/>
<path fill-rule="evenodd" clip-rule="evenodd" d="M31.6744 84.1526C30.6532 83.1087 24.6373 84.9861 30.0553 85.3685C30.5442 85.4038 32.4411 85.5626 31.6744 84.1526Z" fill="#4395A1"/>
<path fill-rule="evenodd" clip-rule="evenodd" d="M38.3096 85.041C37.6027 85.5475 33.1933 84.7462 33.9128 86.6173C34.8969 87.4205 41.481 86.5637 38.3096 85.041Z" fill="#4395A1"/>
<path fill-rule="evenodd" clip-rule="evenodd" d="M40.5971 90.281C36.0013 91.1768 34.0685 88.6613 40.9745 88.8799C41.1345 88.8792 40.6538 89.9427 40.5971 90.281Z" fill="#4395A1"/>
<path fill-rule="evenodd" clip-rule="evenodd" d="M33.0782 88.9915C32.5748 88.1618 26.1205 89.1792 29.8885 90.0807C30.7831 89.99 33.7498 90.9369 33.0782 88.9915Z" fill="#4395A1"/>
<path fill-rule="evenodd" clip-rule="evenodd" d="M38.9778 92.6881C36.2556 94.0363 33.9712 93.9575 32.1499 93.0207C33.7312 92.8513 37.5074 91.1629 38.9778 92.6881Z" fill="#4395A1"/>
<path fill-rule="evenodd" clip-rule="evenodd" d="M34.3998 133.156C35.634 133.252 36.8593 133.34 38.0935 133.419C37.495 133.605 38.6133 135.296 36.8537 135.077C35.3593 134.763 33.9632 135.761 34.3998 133.156Z" fill="#4395A1"/>
<path fill-rule="evenodd" clip-rule="evenodd" d="M45.7969 133.743C45.8845 134.32 45.9109 134.907 45.9279 135.476C45.0522 135.458 44.186 135.432 43.3109 135.397C43.3128 134.905 43.2536 134.679 43.0129 133.655C43.9409 133.69 44.8689 133.725 45.7969 133.743" fill="#4395A1"/>
<path fill-rule="evenodd" clip-rule="evenodd" d="M53.3163 135.528C49.6333 136.334 48.585 133.216 53.3075 133.804C53.281 134.399 53.2898 134.986 53.3163 135.528Z" fill="#4395A1"/>
<path fill-rule="evenodd" clip-rule="evenodd" d="M65.5448 133.454C66.1547 135.552 64.2118 135.271 62.0433 135.318C62.0698 134.74 62.0351 134.163 61.9387 133.603C63.1382 133.568 64.3371 133.515 65.5448 133.454Z" fill="#4395A1"/>
<path fill-rule="evenodd" clip-rule="evenodd" d="M80.2163 132.578C80.7588 133.025 81.3195 133.515 81.8184 134.066C80.0217 134.34 77.794 134.586 75.9531 132.815C76.9265 132.828 78.7043 132.457 80.2163 132.578" fill="#4395A1"/>
<path fill-rule="evenodd" clip-rule="evenodd" d="M99.1414 130.802C100.192 130.696 101.242 130.6 102.293 130.504C101.757 132.19 101.082 132.536 98.6689 132.544C98.7912 131.948 98.9487 131.362 99.1414 130.802Z" fill="#4395A1"/>
<path fill-rule="evenodd" clip-rule="evenodd" d="M113.48 129.506C113.585 130.022 113.663 130.591 113.716 131.187C112.548 131.005 110.764 132.468 110.521 129.76C111.501 129.672 112.491 129.585 113.48 129.506" fill="#4395A1"/>
<path fill-rule="evenodd" clip-rule="evenodd" d="M120.719 130.644C119.537 130.394 116.984 132.054 117.358 129.191C118.602 129.154 120.204 128.367 120.719 130.644Z" fill="#4395A1"/>
<path fill-rule="evenodd" clip-rule="evenodd" d="M131.652 128.289C131.889 128.832 132.073 129.401 132.195 129.979C130.804 129.869 129.66 130.906 128.781 128.438C129.735 128.377 130.69 128.333 131.652 128.289Z" fill="#4395A1"/>
<path fill-rule="evenodd" clip-rule="evenodd" d="M151.479 128.07C149.051 129.742 144.575 129.766 140.923 129.725C140.679 126.292 149.352 128.599 151.479 128.07" fill="#4395A1"/>
<path fill-rule="evenodd" clip-rule="evenodd" d="M158.36 128.385C159.857 128.482 161.354 128.586 162.85 128.718C161.212 130.262 159.978 130.488 157.161 130.058C157.246 129.888 157.638 129.124 158.36 128.385" fill="#4395A1"/>
<path fill-rule="evenodd" clip-rule="evenodd" d="M171.63 131.476C169.646 131.234 167.95 131.436 166.535 129.086C167.983 129.603 171.607 128.476 171.63 131.476Z" fill="#4395A1"/>
<path fill-rule="evenodd" clip-rule="evenodd" d="M34.3732 136.973C35.3976 137.087 36.4214 137.174 37.4458 137.253C37.2171 138.14 37.9321 139.433 35.3277 138.819C34.4155 138.845 34.1653 138.689 34.3732 136.973Z" fill="#4395A1"/>
<path fill-rule="evenodd" clip-rule="evenodd" d="M45.9896 137.691C46.0067 138.242 46.0508 138.846 46.1207 139.415C45.0541 139.135 42.9247 140.303 43.3109 137.603C44.2036 137.638 45.0969 137.673 45.9896 137.691" fill="#4395A1"/>
<path fill-rule="evenodd" clip-rule="evenodd" d="M53.57 138.198C53.6399 138.671 53.7451 139.082 53.8856 139.45C52.7648 139.476 51.6441 139.476 50.5239 139.476C50.7249 138.722 50.7847 139.102 50.5504 137.76C50.9397 138.068 53.1624 137.122 53.57 138.198Z" fill="#4395A1"/>
<path fill-rule="evenodd" clip-rule="evenodd" d="M65.6936 137.384C65.7818 137.962 65.9475 138.513 66.2102 139.047C64.3284 139.143 62.4548 139.222 60.573 139.293C61.1476 137.312 63.3765 137.395 65.6936 137.384Z" fill="#4395A1"/>
<path fill-rule="evenodd" clip-rule="evenodd" d="M74.6054 138.549C73.3095 138.636 72.0054 138.715 70.7095 138.794C70.9867 137.461 74.6652 135.613 74.6054 138.549Z" fill="#4395A1"/>
<path fill-rule="evenodd" clip-rule="evenodd" d="M83.2186 136.308C84.2191 138.199 82.4488 138.118 80.4088 138.172C80.4523 137.638 80.3212 137.069 80.0762 136.517C81.1264 136.447 82.1772 136.378 83.2186 136.308Z" fill="#4395A1"/>
<path fill-rule="evenodd" clip-rule="evenodd" d="M100.787 137.008C98.2415 137.902 96.6281 134.976 100.761 135.283C100.709 135.87 100.709 136.456 100.787 137.008Z" fill="#4395A1"/>
<path fill-rule="evenodd" clip-rule="evenodd" d="M111.361 134.977C112.193 134.95 113.033 134.933 113.874 134.916C114.22 136.54 113.443 136.854 111.108 136.693C111.212 136.524 111.453 135.847 111.361 134.977Z" fill="#4395A1"/>
<path fill-rule="evenodd" clip-rule="evenodd" d="M120.431 136.456C119.485 136.473 118.557 136.5 117.611 136.526C118.187 136.07 119.584 135.23 120.431 136.456Z" fill="#4395A1"/>
<path fill-rule="evenodd" clip-rule="evenodd" d="M121.008 134.758C122.961 134.715 124.912 134.679 126.864 134.653C125.943 135.922 122.714 135.253 121.008 134.758Z" fill="#4395A1"/>
<path fill-rule="evenodd" clip-rule="evenodd" d="M129.709 134.609C130.602 134.592 131.495 134.583 132.388 134.583C132.495 136.16 131.492 136.502 129.219 136.308C129.42 135.773 129.587 135.205 129.709 134.609" fill="#4395A1"/>
<path fill-rule="evenodd" clip-rule="evenodd" d="M147.593 134.522C147.593 135.091 147.602 135.66 147.645 136.22C146.606 136.001 144.555 137.065 145.019 134.513C145.877 134.522 146.735 134.522 147.593 134.522" fill="#4395A1"/>
<path fill-rule="evenodd" clip-rule="evenodd" d="M164.339 136.561C162.234 135.92 157.642 137.907 156.828 134.644C158.96 134.957 163.082 133.872 164.339 136.561Z" fill="#4395A1"/>
<path fill-rule="evenodd" clip-rule="evenodd" d="M171.753 135.143C171.988 137.048 170.224 136.943 168.146 136.71C168.143 134.917 169.611 134.825 171.753 135.143Z" fill="#4395A1"/>
<path fill-rule="evenodd" clip-rule="evenodd" d="M110.485 18.9237C113.01 15.5532 117.535 18.4084 116.003 22.051C113.504 23.289 107.085 23.9001 110.485 18.9237ZM117.1 28.5003C113.687 32.1405 110.669 28.8109 109.77 24.8797C133.821 26.6834 112.677 5.34216 105.409 20.0766C103.985 43.8843 131.184 25.7995 117.1 28.5003Z" fill="#F5F5F7"/>
<path fill-rule="evenodd" clip-rule="evenodd" d="M114.037 19.2098C113.049 17.9094 110.339 20.156 112.19 21.6705C113.713 22.8134 115.57 20.6607 114.037 19.2098Z" fill="#4395A1"/>
<path fill-rule="evenodd" clip-rule="evenodd" d="M119.022 13.3675C118.671 14.0831 117.396 15.4345 117.086 16.9307C117.839 18.0754 118.542 17.4045 119.284 15.8956C119.558 15.2008 120.551 12.9523 119.022 13.3675" fill="#F5F5F7"/>
<path fill-rule="evenodd" clip-rule="evenodd" d="M112.535 12.6646C112.204 12.921 111.377 14.6925 112.02 15.7138C113.818 16.3834 113.212 13.8742 112.535 12.6646" fill="#F5F5F7"/>
<path fill-rule="evenodd" clip-rule="evenodd" d="M108.324 16.4797C107.647 16.4589 106.499 14.3799 105.391 15.0092C105.582 15.9246 106.61 18.1731 108.4 17.6792C108.589 17.4599 108.738 17.0189 108.324 16.4797" fill="#F5F5F7"/>
<path fill-rule="evenodd" clip-rule="evenodd" d="M121.027 24.8985C120.711 23.7116 115.801 22.1316 118.733 25.1316C119.325 25.5292 120.738 26.1188 121.027 24.8985Z" fill="#F5F5F7"/>
<path fill-rule="evenodd" clip-rule="evenodd" d="M115.996 24.4429C114.482 22.8251 114.956 27.935 116.15 26.0273C116.226 25.5813 116.2 25.1479 115.996 24.4429Z" fill="#F5F5F7"/>
<path fill-rule="evenodd" clip-rule="evenodd" d="M112.872 24.4805C111.897 23.0447 110.814 26.499 112.44 26.5733C112.737 26.2035 113.047 25.5483 112.872 24.4805Z" fill="#F5F5F7"/>
<path fill-rule="evenodd" clip-rule="evenodd" d="M71.0929 79.3237C73.6179 75.9532 78.1439 78.8083 76.6117 82.451C74.1125 83.6889 67.6934 84.3 71.0929 79.3237ZM77.7079 88.9003C74.2952 92.5404 71.2775 89.2109 70.3791 85.2797C94.4294 87.0834 73.2859 65.7421 66.0176 80.4766C64.5938 104.284 91.7922 86.1995 77.7079 88.9003" fill="#F5F5F7"/>
<path fill-rule="evenodd" clip-rule="evenodd" d="M74.6455 79.6097C73.657 78.3094 70.948 80.556 72.7989 82.0705C74.3216 83.2133 76.1782 81.0606 74.6455 79.6097Z" fill="#4395A1"/>
<path fill-rule="evenodd" clip-rule="evenodd" d="M79.6306 73.7675C79.2803 74.4832 78.0045 75.8346 77.6946 77.3308C78.4474 78.4749 79.1499 77.8046 79.892 76.2957C80.1667 75.6008 81.1589 73.3524 79.6306 73.7675" fill="#F5F5F7"/>
<path fill-rule="evenodd" clip-rule="evenodd" d="M73.1435 73.0646C72.8133 73.321 71.9849 75.0926 72.6281 76.1138C74.4274 76.7835 73.8207 74.2742 73.1435 73.0646Z" fill="#F5F5F7"/>
<path fill-rule="evenodd" clip-rule="evenodd" d="M68.9328 76.8796C68.2549 76.8588 67.1083 74.7798 65.9995 75.4092C66.1904 76.3246 67.2179 78.5731 69.009 78.0791C69.1974 77.8599 69.3461 77.4189 68.9328 76.8796" fill="#F5F5F7"/>
<path fill-rule="evenodd" clip-rule="evenodd" d="M81.6357 85.2986C81.3195 84.1116 76.4092 82.5316 79.3413 85.5317C79.9341 85.9292 81.3466 86.5189 81.6357 85.2986Z" fill="#F5F5F7"/>
<path fill-rule="evenodd" clip-rule="evenodd" d="M76.605 84.8426C75.0911 83.2254 75.5648 88.3354 76.7593 86.4271C76.8349 85.981 76.8091 85.5476 76.605 84.8426Z" fill="#F5F5F7"/>
<path fill-rule="evenodd" clip-rule="evenodd" d="M73.4802 84.8804C72.5056 83.4447 71.4226 86.899 73.0487 86.9733C73.346 86.6035 73.6553 85.9483 73.4802 84.8804Z" fill="#F5F5F7"/>
<path fill-rule="evenodd" clip-rule="evenodd" d="M145.499 79.3237C148.024 75.9532 152.55 78.8083 151.018 82.451C148.519 83.6889 142.099 84.3 145.499 79.3237ZM152.114 88.9003C148.701 92.5404 145.684 89.2109 144.785 85.2797C168.835 87.0834 147.691 65.7421 140.424 80.4766C139 104.284 166.198 86.1995 152.114 88.9003" fill="#F5F5F7"/>
<path fill-rule="evenodd" clip-rule="evenodd" d="M149.051 79.6097C148.063 78.3094 145.354 80.556 147.205 82.0705C148.727 83.2133 150.584 81.0606 149.051 79.6097Z" fill="#4395A1"/>
<path fill-rule="evenodd" clip-rule="evenodd" d="M154.037 73.7675C153.686 74.4832 152.411 75.8346 152.101 77.3308C152.853 78.4749 153.556 77.8046 154.298 76.2957C154.573 75.6008 155.565 73.3524 154.037 73.7675" fill="#F5F5F7"/>
<path fill-rule="evenodd" clip-rule="evenodd" d="M147.549 73.0646C147.219 73.321 146.391 75.0926 147.034 76.1138C148.833 76.7835 148.227 74.2742 147.549 73.0646Z" fill="#F5F5F7"/>
<path fill-rule="evenodd" clip-rule="evenodd" d="M143.339 76.8796C142.661 76.8588 141.514 74.7798 140.405 75.4092C140.596 76.3246 141.624 78.5731 143.415 78.0791C143.603 77.8599 143.752 77.4189 143.339 76.8796" fill="#F5F5F7"/>
<path fill-rule="evenodd" clip-rule="evenodd" d="M156.041 85.2986C155.725 84.1116 150.815 82.5316 153.747 85.5317C154.34 85.9292 155.752 86.5189 156.041 85.2986Z" fill="#F5F5F7"/>
<path fill-rule="evenodd" clip-rule="evenodd" d="M151.011 84.8426C149.497 83.2254 149.971 88.3354 151.165 86.4271C151.241 85.981 151.215 85.5476 151.011 84.8426Z" fill="#F5F5F7"/>
<path fill-rule="evenodd" clip-rule="evenodd" d="M147.886 84.8804C146.911 83.4447 145.828 86.899 147.454 86.9733C147.752 86.6035 148.061 85.9483 147.886 84.8804Z" fill="#F5F5F7"/>
<path fill-rule="evenodd" clip-rule="evenodd" d="M78.4216 28.0513C78.4109 34.6209 70.655 32.2093 65.6956 32.4569C62.0088 31.854 55.2899 33.8019 54.1672 29.2426C53.0811 23.2261 54.8546 17.7546 54.9528 11.8483C54.6706 -5.03755 61.5149 1.3412 73.032 0.920357C76.3987 0.449117 79.526 3.73016 77.064 6.45302C75.0209 8.03117 69.715 7.49567 69.6854 5.04686C61.6227 3.61424 63.9612 6.13235 63.0414 12.4613C72.6395 11.8666 70.4849 18.0614 62.6565 16.768C62.7699 18.8798 60.5668 28.1074 62.9589 28.4388C69.1908 29.5583 74.5131 22.3492 78.4216 28.0513" fill="#4395A1"/>
<path fill-rule="evenodd" clip-rule="evenodd" d="M57.5271 9.44135C55.9553 12.9643 54.2725 12.2341 55.3309 7.80335C55.983 7.4852 57.5718 7.8443 57.5271 9.44135Z" fill="#F5F5F7"/>
<path fill-rule="evenodd" clip-rule="evenodd" d="M67.8736 3.69017C68.2737 6.51698 63.4031 2.95433 63.6457 5.90462C60.9953 3.61898 66.8505 -0.125109 67.8736 3.69017" fill="#F5F5F7"/>
<path fill-rule="evenodd" clip-rule="evenodd" d="M76.5311 2.97222C76.0529 5.76627 71.7802 5.70012 72.8216 2.28111C72.9917 0.164942 77.1642 0.667052 76.5311 2.97222Z" fill="#F5F5F7"/>
<path fill-rule="evenodd" clip-rule="evenodd" d="M61.5533 1.57158C61.1463 4.00779 54.8948 3.63294 57.268 1.01592C58.3163 0.713525 62.8088 -1.20483 61.5533 1.57158Z" fill="#F5F5F7"/>
<path fill-rule="evenodd" clip-rule="evenodd" d="M63.0943 16.7682C61.4469 18.5732 57.2422 16.2478 60.2763 13.5842C62.5437 11.8202 65.5601 14.6016 63.0943 16.7682Z" fill="#F5F5F7"/>
<path fill-rule="evenodd" clip-rule="evenodd" d="M56.9751 22.2216C56.7477 22.2827 56.4932 22.4547 55.8109 22.4226C55.8304 22.2808 56.0238 22.1196 55.5834 21.6704C56.1057 21.0618 58.9596 21.2187 56.9751 22.2216ZM57.4829 19.8402C55.6893 19.4112 52.0605 22.6229 54.8369 24.1935C57.9415 25.3338 61.5464 20.9383 57.4829 19.8402Z" fill="#F5F5F7"/>
<path fill-rule="evenodd" clip-rule="evenodd" d="M60.5817 28.8219C60.4639 28.9844 60.2994 29.1766 59.6713 29.312C59.4955 28.7368 60.5439 28.1289 60.5817 28.8219ZM60.4072 27.0012C58.5052 27.3206 55.6179 31.1018 60.0014 31.1214C62.328 30.892 63.1647 27.3111 60.4072 27.0012Z" fill="#F5F5F7"/>
<path fill-rule="evenodd" clip-rule="evenodd" d="M68.6789 30.9927C67.3364 30.5511 68.9681 28.7172 69.5678 30.6563C69.4532 30.8686 69.3417 30.9511 68.6789 30.9927ZM70.0618 28.7606C68.3469 27.66 64.6431 29.8883 66.8355 32.1406C69.0008 34.0917 73.1664 31.2762 70.0618 28.7606" fill="#F5F5F7"/>
<path fill-rule="evenodd" clip-rule="evenodd" d="M76.3716 26.9928C74.5673 27.0287 72.5897 30.4427 75.7473 30.958C78.1066 31.0607 79.47 26.9802 76.3716 26.9928Z" fill="#F5F5F7"/>
<path fill-rule="evenodd" clip-rule="evenodd" d="M56.6638 14.0446C54.3939 14.4717 57.1042 17.7194 58.0139 14.9833C57.9717 14.5643 57.629 14.0087 56.6638 14.0446Z" fill="#F5F5F7"/>
<path fill-rule="evenodd" clip-rule="evenodd" d="M61.4147 8.94918C61.278 8.8068 61.0801 8.73246 60.8949 8.74254C60.8962 8.73939 60.8968 8.73624 60.8981 8.73309C58.5261 8.78349 61.5684 11.8037 61.4147 8.94918" fill="#F5F5F7"/>
<path fill-rule="evenodd" clip-rule="evenodd" d="M58.9297 4.62012C57.4833 4.27488 57.613 7.51749 59.0097 5.94501C59.3304 5.86059 59.7802 4.97922 58.9297 4.62012Z" fill="#F5F5F7"/>
<path fill-rule="evenodd" clip-rule="evenodd" d="M67.1266 14.41C66.7549 13.9652 65.5276 15.5472 67.0787 15.5283C67.3748 15.3676 67.623 14.9241 67.1266 14.41Z" fill="#F5F5F7"/>
<path fill-rule="evenodd" clip-rule="evenodd" d="M71.1065 2.88025C69.8194 2.96467 71.1418 5.5294 71.889 3.4945C71.8278 3.27274 71.7762 3.06547 71.1065 2.88025Z" fill="#F5F5F7"/>
<path fill-rule="evenodd" clip-rule="evenodd" d="M74.7124 5.97455C73.6005 6.04637 74.7433 8.26145 75.3878 6.50438C75.3361 6.31223 75.292 6.13394 74.7124 5.97455Z" fill="#F5F5F7"/>
<path fill-rule="evenodd" clip-rule="evenodd" d="M62.3326 19.6567C62.911 20.8764 60.0545 21.9808 61.0046 19.6177C61.3271 19.5578 61.6371 18.9795 62.3326 19.6567Z" fill="#F5F5F7"/>
<path fill-rule="evenodd" clip-rule="evenodd" d="M55.7097 27.2312C54.4195 26.4065 53.7605 29.6781 55.8754 28.4881C56.1432 28.2499 56.2773 27.7667 55.7097 27.2312Z" fill="#F5F5F7"/>
<path fill-rule="evenodd" clip-rule="evenodd" d="M60.5682 23.9563C59.465 24.0275 60.5984 26.2249 61.2379 24.4817C61.1868 24.2908 61.1427 24.1144 60.5682 23.9563Z" fill="#F5F5F7"/>
<path fill-rule="evenodd" clip-rule="evenodd" d="M64.1709 32.0694C64.2371 32.935 61.9609 32.053 63.7765 31.2378C64.009 31.3128 64.2371 31.3871 64.1709 32.0694Z" fill="#F5F5F7"/>
<path fill-rule="evenodd" clip-rule="evenodd" d="M74.2109 32.4896C73.918 32.9111 72.4154 31.6208 74.1322 31.8155C74.3527 32.0776 74.2449 31.8363 74.2109 32.4896Z" fill="#F5F5F7"/>
<path fill-rule="evenodd" clip-rule="evenodd" d="M73.8087 26.292C73.6683 25.9247 73.5196 25.8365 73.8087 26.292C72.9419 25.9071 72.6621 25.9682 73.5196 25.8365C74.0085 26.9365 72.1166 27.467 73.8087 26.292Z" fill="#F5F5F7"/>
<path fill-rule="evenodd" clip-rule="evenodd" d="M152.39 3.90887C151.854 9.73007 151.49 15.3163 151.681 22.2129C151.862 24.9257 152.483 35.8026 144.563 31.0864C142.464 24.0651 139.019 17.4501 135.233 10.7456C134.838 17.188 135.304 24.6982 133.38 31.518C131.883 33.2543 127.05 32.8189 126.75 31.019C128.303 22.1984 127.828 12.8158 128.614 3.27887C129.704 1.59047 135.881 1.02851 135.42 4.59557C137.163 11.6925 142.557 17.1962 144.836 24.261C144.94 18.0278 143.804 9.20087 146.052 2.78369C147.88 1.35296 152.456 1.9124 152.39 3.90887" fill="#F5F5F7"/>
<path fill-rule="evenodd" clip-rule="evenodd" d="M152.39 3.90887C152.817 6.16994 149.19 4.81859 147.406 4.84001C142.768 4.24592 150.386 3.97439 152.39 3.90887Z" fill="#4395A1"/>
<path fill-rule="evenodd" clip-rule="evenodd" d="M152.109 7.17395C152.315 9.27374 148.693 8.29661 146.57 8.70926C145.394 8.64437 144.711 9.13514 145.089 7.32263C147.166 7.23569 149.484 7.40012 152.109 7.17395" fill="#4395A1"/>
<path fill-rule="evenodd" clip-rule="evenodd" d="M151.935 9.5201C152.51 11.7453 146.894 10.6346 144.853 10.8513C144.491 8.1108 149.533 9.79352 151.935 9.5201Z" fill="#4395A1"/>
<path fill-rule="evenodd" clip-rule="evenodd" d="M151.821 11.6648C152.512 14.3411 148.704 13.5101 146.441 13.6141C140.846 13.3035 150.044 11.4399 151.821 11.6648Z" fill="#4395A1"/>
<path fill-rule="evenodd" clip-rule="evenodd" d="M151.689 14.7723C152.517 17.8241 147.104 16.1426 144.643 16.1558C144.771 14.3798 149.581 15.253 151.689 14.7723Z" fill="#4395A1"/>
<path fill-rule="evenodd" clip-rule="evenodd" d="M151.628 19.0966C149.695 19.2169 147.107 19.6037 144.678 19.2106C144.216 17.6167 146.441 18.0432 148.123 18.0048C149.37 18.0356 149.914 17.9808 151.619 17.9934C151.62 18.4546 151.617 18.1138 151.628 19.0966" fill="#4395A1"/>
<path fill-rule="evenodd" clip-rule="evenodd" d="M151.681 22.2127C151.093 22.1365 141.797 23.3933 145.604 21.3691C147.437 21.6299 151.887 19.7645 151.681 22.2127Z" fill="#4395A1"/>
<path fill-rule="evenodd" clip-rule="evenodd" d="M151.19 29.7758C151.887 31.4466 145.655 32.3702 144.293 30.695C146.455 30.2313 148.871 29.8281 151.19 29.7758Z" fill="#4395A1"/>
<path fill-rule="evenodd" clip-rule="evenodd" d="M151.628 26.7297C151.574 28.0319 149.02 27.6886 147.366 27.9935C139.526 27.8782 149.53 26.2087 151.628 26.7297Z" fill="#4395A1"/>
<path fill-rule="evenodd" clip-rule="evenodd" d="M151.716 24.0424C151.913 25.6596 148.43 25.0845 146.324 25.4568C141.002 24.8362 149.516 23.483 151.716 24.0424Z" fill="#4395A1"/>
<path fill-rule="evenodd" clip-rule="evenodd" d="M135.399 5.12581C135.408 5.14345 135.408 5.15227 135.416 5.16928C133.088 4.93303 130.751 4.81081 128.405 4.88074C128.061 3.89038 136.645 3.10036 135.399 5.12581Z" fill="#4395A1"/>
<path fill-rule="evenodd" clip-rule="evenodd" d="M135.005 2.87589C133.152 3.16254 130.94 3.37611 128.615 3.27846C129.58 1.76709 133.357 1.52076 135.005 2.87589Z" fill="#4395A1"/>
<path fill-rule="evenodd" clip-rule="evenodd" d="M134.804 7.16527C132.896 8.25454 130.903 7.83622 128.308 7.97041C128.317 7.53256 128.326 7.09534 128.344 6.66631C129.916 7.14322 133.377 5.98717 134.804 7.16527" fill="#4395A1"/>
<path fill-rule="evenodd" clip-rule="evenodd" d="M134.524 9.58133C132.813 10.1823 130.542 9.92279 128.247 10.0538C127.153 8.47379 134.4 8.35661 134.524 9.58133Z" fill="#4395A1"/>
<path fill-rule="evenodd" clip-rule="evenodd" d="M135.198 12.1198C135.18 12.6012 135.171 13.0825 135.154 13.5638C133.412 12.0934 130.593 12.295 128.177 12.3914C127.623 9.90097 133.483 11.3078 135.198 12.1198" fill="#4395A1"/>
<path fill-rule="evenodd" clip-rule="evenodd" d="M135.119 14.597C136.348 16.4725 128.495 15.7159 128.107 14.6336C130.061 14.5485 132.534 14.4483 135.119 14.597Z" fill="#4395A1"/>
<path fill-rule="evenodd" clip-rule="evenodd" d="M135.014 17.4247C134.72 19.0759 130.649 18.4963 128.596 18.6784C125.169 16.5124 133.397 17.1777 135.014 17.4247Z" fill="#4395A1"/>
<path fill-rule="evenodd" clip-rule="evenodd" d="M134.9 19.7179C134.883 20.2169 134.847 20.707 134.822 21.206C123.919 20.8488 127.856 19.3695 134.9 19.7179Z" fill="#4395A1"/>
<path fill-rule="evenodd" clip-rule="evenodd" d="M134.673 23.1407C134.43 24.8405 129.777 24.2042 127.539 24.6553C127.376 22.4194 132.425 23.6309 134.673 23.1407Z" fill="#4395A1"/>
<path fill-rule="evenodd" clip-rule="evenodd" d="M134.323 26.7995C134.332 28.973 129.192 27.2544 127.188 27.8151C126.797 25.5345 132.289 27.1599 134.323 26.7995Z" fill="#4395A1"/>
<path fill-rule="evenodd" clip-rule="evenodd" d="M133.919 29.7411C134.129 31.6002 131.728 30.6627 129.887 30.8851C128.891 30.6665 127.447 31.4257 126.759 30.7308C127.231 30.4334 126.015 29.2875 127.846 29.3656C129.809 29.3278 131.775 29.4897 133.919 29.7411" fill="#4395A1"/>
<path fill-rule="evenodd" clip-rule="evenodd" d="M21.2695 71.9071C20.9979 72.2573 20.6653 72.5635 20.2974 72.8174C20.2539 70.104 20.2363 67.3553 20.3673 64.6419C21.9625 66.0128 21.0326 69.571 21.2695 71.9071" fill="#4395A1"/>
<path fill-rule="evenodd" clip-rule="evenodd" d="M18.7569 67.2851C18.1685 68.821 19.8676 72.8612 17.943 73.7715C17.7792 70.6952 17.9972 66.8781 18.0652 63.2058C19.6528 63.4143 18.6612 65.9249 18.7569 67.2851" fill="#4395A1"/>
<path fill-rule="evenodd" clip-rule="evenodd" d="M16.4634 73.8155C14.3812 72.2096 15.9518 65.5001 15.5707 62.5757C17.3681 64.249 15.9644 70.5685 16.4634 73.8155Z" fill="#4395A1"/>
<path fill-rule="evenodd" clip-rule="evenodd" d="M13.864 67.1451C13.6183 67.0928 13.3738 67.084 13.1193 67.1187C12.6928 60.8533 14.2565 61.4323 13.864 67.1451Z" fill="#4395A1"/>
<path fill-rule="evenodd" clip-rule="evenodd" d="M5.17979 66.6812C5.05505 69.222 5.04749 72.5875 4.96118 75.6625C3.90656 73.4884 3.58967 69.5364 5.17979 66.6812Z" fill="#4395A1"/>
<path fill-rule="evenodd" clip-rule="evenodd" d="M7.44707 78.5162C5.71772 76.5506 5.37626 65.8583 6.81707 64.8956C7.05332 69.4297 7.14089 73.9733 7.44707 78.5162Z" fill="#4395A1"/>
<path fill-rule="evenodd" clip-rule="evenodd" d="M2.29122 90.7535C1.00476 89.6006 0.713695 85.4615 1.8099 83.4707C1.98567 85.568 2.106 88.1233 2.29122 90.7535Z" fill="#4395A1"/>
<path fill-rule="evenodd" clip-rule="evenodd" d="M4.92633 92.5131C3.3318 91.9789 4.04937 89.4192 3.67767 87.4277C3.95928 85.9548 2.68857 83.4789 3.98889 82.7695C4.3965 85.5957 4.73796 89.3908 4.92633 92.5131Z" fill="#4395A1"/>
<path fill-rule="evenodd" clip-rule="evenodd" d="M10.3184 93.7125C9.09113 94.2089 9.42629 91.0955 9.09302 89.0643C10.2031 89.5784 9.86099 91.9504 10.3184 93.7125Z" fill="#4395A1"/>
<path fill-rule="evenodd" clip-rule="evenodd" d="M13.111 93.4498C12.8224 93.5109 12.5333 93.555 12.2353 93.5896C12.5755 92.5797 10.9803 90.2607 12.0866 89.1078C12.5244 90.5089 12.9182 91.9963 13.111 93.4498Z" fill="#4395A1"/>
<path fill-rule="evenodd" clip-rule="evenodd" d="M9.95954 78.3322C9.99482 79.1292 10.0383 79.9167 10.0906 80.713C7.85093 78.0122 9.59099 64.9926 10.5372 62.952C10.0799 67.774 9.66722 73.0736 9.95954 78.3322Z" fill="#4395A1"/>
<path fill-rule="evenodd" clip-rule="evenodd" d="M19.9652 88.5303C19.8405 88.8309 19.7271 89.0766 19.116 89.9831C18.8092 86.9194 18.5471 83.8469 18.188 80.7921C19.7031 82.3891 19.4612 85.9996 19.9652 88.5303" fill="#4395A1"/>
<path fill-rule="evenodd" clip-rule="evenodd" d="M16.726 92.0667C16.4463 92.2419 16.1483 92.3994 15.8503 92.5481C15.6493 87.9787 15.6235 83.2959 15.9555 78.7876C17.3352 82.2343 16.4601 87.9421 16.726 92.0667Z" fill="#4395A1"/>
<path fill-rule="evenodd" clip-rule="evenodd" d="M13.5311 76.8004C13.5834 79.0942 13.4001 81.589 12.9969 83.8645C11.7923 82.2543 13.0718 78.7735 12.9969 76.2838C13.1632 76.4589 13.3471 76.634 13.5311 76.8004Z" fill="#4395A1"/>
<path fill-rule="evenodd" clip-rule="evenodd" d="M134.261 69.5175C134.165 69.5698 134.068 69.5962 133.972 69.6227C134.241 64.1077 137.485 67.2035 134.261 69.5175Z" fill="#4395A1"/>
<path fill-rule="evenodd" clip-rule="evenodd" d="M135.408 74.6295C134.91 74.06 136.381 73.4419 136.265 74.5829C136.092 74.6484 135.974 74.7202 135.408 74.6295ZM136.633 72.7911C134.268 71.9583 132.847 75.9859 136.239 75.9078C136.069 75.3395 137.555 73.447 136.633 72.7911Z" fill="#4395A1"/>
<path fill-rule="evenodd" clip-rule="evenodd" d="M134.086 81.2122C133.626 80.8461 132.047 80.4171 132.169 81.9209C132.162 82.0009 132.975 82.7607 132.773 81.8775C132.803 81.8781 132.805 81.8951 132.948 81.8775C133.049 81.9625 132.628 82.2189 133.062 82.6215C132.858 82.6769 132.648 82.7727 132.064 82.6738C131.301 84.3981 135.56 83.3202 134.086 81.2122" fill="#4395A1"/>
<path fill-rule="evenodd" clip-rule="evenodd" d="M133.298 88.4341C132.983 88.6092 132.633 88.4952 132.396 88.2501C132.46 88.1663 132.463 88.1871 132.484 87.6812C132.631 87.7783 132.916 87.8387 132.957 87.2169C133.423 87.1684 134.036 87.8041 133.298 88.4341V88.4341ZM133.596 86.6222C131.638 85.8599 129.876 88.9671 133.133 89.357C133.966 89.444 134.146 87.3706 133.596 86.6222Z" fill="#4395A1"/>
<path fill-rule="evenodd" clip-rule="evenodd" d="M131.399 93.012C130.035 92.7531 131.044 92.314 130.751 91.2348C131.453 90.8915 132.759 92.2705 131.399 93.012ZM131.784 90.6836C130.755 89.9118 130.416 91.9492 130.354 92.7764C130.462 95.1219 134.646 92.7311 131.784 90.6836Z" fill="#4395A1"/>
<path fill-rule="evenodd" clip-rule="evenodd" d="M138.988 65.8934C138.686 66.3105 138.675 69.5846 137.316 67.4256C137.151 67.0331 137.471 65.191 138.988 65.8934Z" fill="#4395A1"/>
<path fill-rule="evenodd" clip-rule="evenodd" d="M125.63 80.0567C125.734 79.7215 125.695 79.8759 125.63 80.0567C125.193 80.5909 125.528 78.9567 125.63 80.0567ZM127.495 79.3826C126.667 79.554 123.25 78.2707 124.372 80.6747C125.103 81.5297 128.149 81.6771 127.495 79.3826Z" fill="#4395A1"/>
<path fill-rule="evenodd" clip-rule="evenodd" d="M118.986 67.4253C117.787 66.0337 116.664 69.2725 118.321 69.4634C118.787 68.9846 118.381 68.4888 117.866 67.8279C118.7 67.5646 119.494 69.8464 117.716 69.631C117.578 71.8618 121.091 68.9115 118.986 67.4253Z" fill="#4395A1"/>
<path fill-rule="evenodd" clip-rule="evenodd" d="M121.043 74.5507C120.605 74.5929 119.662 73.6347 120.859 73.3688C120.919 70.4778 117.054 75.1971 121.087 75.3735C121.266 75.1813 121.135 75.388 121.043 74.5507Z" fill="#4395A1"/>
<path fill-rule="evenodd" clip-rule="evenodd" d="M119.957 81.2909C119.464 81.2462 118.297 78.5246 120.112 78.5334C121.912 78.4691 121.904 81.1952 119.957 81.2909Z" fill="#4395A1"/>
<path fill-rule="evenodd" clip-rule="evenodd" d="M122.242 86.9984C122.181 87.2523 121.988 87.4445 121.76 87.5232C121.991 87.173 122.218 86.0106 120.912 86.0969C121.284 85.5917 122.302 85.7989 122.242 86.9984V86.9984ZM122.067 85.2389C120.419 84.4274 119.805 87.4332 121.372 88.3731C123.079 88.6617 123.656 86.0912 122.067 85.2389Z" fill="#4395A1"/>
<path fill-rule="evenodd" clip-rule="evenodd" d="M123.958 93.1258C124.045 92.6861 123.587 91.6951 122.609 92.1979C122.966 91.6756 124.473 91.7235 123.958 93.1258ZM124.116 92.6968C124.436 90.9397 122.424 90.7785 121.884 92.6181C120.175 92.8392 124.443 94.876 124.116 92.6968Z" fill="#4395A1"/>
<path fill-rule="evenodd" clip-rule="evenodd" d="M137.981 69.5085C137.788 70.2003 137.596 70.9002 137.403 71.6008C136.57 71.4597 136.26 69.981 137.981 69.5085Z" fill="#4395A1"/>
<path fill-rule="evenodd" clip-rule="evenodd" d="M120.168 65.6308C120.168 65.5785 120.159 65.5256 120.141 65.4821C119.546 65.4657 120.188 64.9252 118.793 64.9132C118.649 65.2944 120.288 67.0577 120.168 65.6308Z" fill="#4395A1"/>
<path fill-rule="evenodd" clip-rule="evenodd" d="M133.841 77.6232C133.429 77.3397 133.538 75.3798 134.428 76.9844C134.46 77.2269 134.373 77.7416 133.841 77.6232ZM133.254 76.1439C132.013 76.653 133.608 79.5491 134.868 77.8639C135.321 76.9182 134.429 75.5032 133.254 76.1439Z" fill="#4395A1"/>
<path fill-rule="evenodd" clip-rule="evenodd" d="M58.7434 165.221C58.5771 166.805 57.5527 167.882 56.2662 168.6C56.0678 167.368 59.3564 165.339 57.571 163.312C58.4051 162.829 58.8051 163.867 58.7434 165.221Z" fill="#4395A1"/>
<path fill-rule="evenodd" clip-rule="evenodd" d="M60.7477 166.954C59.8638 168.783 58.3323 170.079 56.5815 171.024C56.974 168.918 61.8231 166.531 60.3716 162.884C61.8471 162.686 61.4187 165.409 60.7477 166.954" fill="#4395A1"/>
<path fill-rule="evenodd" clip-rule="evenodd" d="M78.0888 165.072C76.1484 165.313 71.6376 165.197 71.8385 161.868C72.8673 161.766 72.6934 163.353 73.9056 163.738C75.3394 164.703 76.5301 163.586 78.0888 165.072Z" fill="#4395A1"/>
<path fill-rule="evenodd" clip-rule="evenodd" d="M79.5856 167.094C75.3029 170.001 66.4709 165.384 69.4401 161.666C70.5482 169.351 75.9297 166.14 79.5856 167.094Z" fill="#4395A1"/>
<path fill-rule="evenodd" clip-rule="evenodd" d="M67.4882 166.446C67.7333 166.814 68.0401 167.172 68.3986 167.514C66.399 167.676 65.7576 164.182 65.0986 162.148C66.266 161.584 66.9634 166.169 67.4882 166.446" fill="#4395A1"/>
<path fill-rule="evenodd" clip-rule="evenodd" d="M80.4348 169.492C77.5299 170.664 71.6438 172.096 70.552 169.055C72.8925 170.392 77.2401 170.191 80.2773 168.775C80.3472 169.02 80.4002 169.256 80.4348 169.492" fill="#4395A1"/>
<path fill-rule="evenodd" clip-rule="evenodd" d="M85.9847 186.763C85.9702 187.095 85.9683 187.272 85.836 188.076C83.3393 186.165 80.9101 182.569 82.1152 178.815C83.1623 181.134 82.526 184.944 85.9847 186.763Z" fill="#4395A1"/>
<path fill-rule="evenodd" clip-rule="evenodd" d="M84.6103 191.403C84.4358 191.727 84.2519 192.05 84.0503 192.374C80.5853 188.868 78.5913 183.005 80.2161 177.782C80.7579 181.712 80.463 188.042 84.6103 191.403Z" fill="#4395A1"/>
<path fill-rule="evenodd" clip-rule="evenodd" d="M81.7921 195.316C79.9367 197.467 76.233 190.084 77.2051 187.085C75.7888 184.632 76.4869 178.285 79.5424 177.502C76.0093 182.842 76.5417 190.877 81.7921 195.316Z" fill="#4395A1"/>
<path fill-rule="evenodd" clip-rule="evenodd" d="M62.0264 200.472C60.0992 200.213 59.4459 196.414 57.1067 195.596C57.2239 195.339 57.1388 195.566 57.2295 194.965C59.4698 196.113 61.2212 198.047 62.0264 200.472" fill="#4395A1"/>
<path fill-rule="evenodd" clip-rule="evenodd" d="M64.9584 200.69C63.0879 201.134 62.7093 197.918 61.3283 196.555C60.3109 194.466 57.8444 193.988 57.5527 191.753C60.6347 194.169 63.5755 197.145 64.9584 200.69Z" fill="#4395A1"/>
<path fill-rule="evenodd" clip-rule="evenodd" d="M68.8099 200.585C66.86 201.188 66.4127 197.488 64.9246 196.175C63.1147 193.063 59.363 191.779 57.6929 188.943C62.341 191.893 66.8052 195.569 68.8099 200.585Z" fill="#4395A1"/>
<path fill-rule="evenodd" clip-rule="evenodd" d="M66.8757 191.963C66.8404 192.365 66.8057 192.777 66.7616 193.188C64.7935 190.111 59.7302 187.588 57.7192 184.855C60.9751 186.372 64.1849 189.154 66.8757 191.963Z" fill="#4395A1"/>
<path fill-rule="evenodd" clip-rule="evenodd" d="M72.1628 200.209C70.3509 200.61 69.9326 196.361 68.2146 194.957C70.4549 194.657 71.1258 197.814 72.1628 200.209Z" fill="#4395A1"/>
<path fill-rule="evenodd" clip-rule="evenodd" d="M94.7125 170.69C95.8414 168.533 91.1631 167.471 91.5039 170.555C91.8101 171.73 94.1719 173.1 94.7125 170.69Z" fill="#F5F5F7"/>
<path fill-rule="evenodd" clip-rule="evenodd" d="M102.293 167.505C101.516 167.987 101.733 166.263 102.442 167.181C102.437 167.348 102.469 167.223 102.293 167.505ZM103.711 166.472C103.046 164.086 98.4555 165.03 100.157 168.311C100.75 167.873 102.244 167.315 103.676 167.611C103.749 167.411 103.829 167.242 103.711 166.472Z" fill="#F5F5F7"/>
<path fill-rule="evenodd" clip-rule="evenodd" d="M111.651 167.331C112.088 167.033 112.202 166.832 111.651 167.331C110.781 167.053 110.95 165.207 111.651 167.331ZM111.116 164.862C109.152 164.925 108.818 168.297 111.095 169.096C114.556 169.352 113.628 166.263 111.116 164.862Z" fill="#F5F5F7"/>
<path fill-rule="evenodd" clip-rule="evenodd" d="M112.386 174.89C106.742 173.327 108.851 181.704 112.951 177.684C113.975 177.264 114.269 175.026 112.386 174.89Z" fill="#F5F5F7"/>
<path fill-rule="evenodd" clip-rule="evenodd" d="M104.044 180.251C104.121 182.036 102.879 181.8 100.903 181.524C96.0592 180.098 103.917 175.094 104.044 180.251Z" fill="#F5F5F7"/>
<path fill-rule="evenodd" clip-rule="evenodd" d="M89.4725 176.571C86.388 178.194 90.8673 181.532 92.814 179.627C95.2786 178.007 91.4715 174.925 89.4725 176.571Z" fill="#F5F5F7"/>
<path fill-rule="evenodd" clip-rule="evenodd" d="M93.3117 191.543C91.7965 193.008 87.6203 190.133 89.7969 188.236C91.8476 187.199 95.5324 189.021 93.3117 191.543Z" fill="#F5F5F7"/>
<path fill-rule="evenodd" clip-rule="evenodd" d="M99.7617 194.105C95.5791 192.249 96.257 199.199 100.239 196.699C100.855 196.083 101.292 194.592 99.7617 194.105Z" fill="#F5F5F7"/>
<path fill-rule="evenodd" clip-rule="evenodd" d="M110.547 194.029C110.417 194.808 108.768 194.004 110.565 193.907C110.556 193.95 110.556 193.985 110.547 194.029ZM111.686 193.294C110.67 191.205 106.042 192.822 108.827 195.425C110.319 197.276 113.508 195.339 111.686 193.294Z" fill="#F5F5F7"/>
<path fill-rule="evenodd" clip-rule="evenodd" d="M108.421 198.957C108.739 200.795 106.558 200.939 104.525 200.813C103.428 198.825 107.389 195.982 108.421 198.957Z" fill="#F5F5F7"/>
<path fill-rule="evenodd" clip-rule="evenodd" d="M117.708 193.565C116.969 193.623 115.562 192.441 115.511 190.79C117.069 191.149 118.137 192.042 117.708 193.565Z" fill="#F5F5F7"/>
<path fill-rule="evenodd" clip-rule="evenodd" d="M97.6712 185.836C95.7579 186.878 93.2952 182.936 96.5391 182.474C97.8426 182.476 97.0633 184.495 97.6712 185.836Z" fill="#F5F5F7"/>
<path fill-rule="evenodd" clip-rule="evenodd" d="M97.0208 164.84C96.7146 164.279 95.0489 165.15 96.2623 165.936C96.7165 166.065 97.2299 165.635 97.0208 164.84Z" fill="#F5F5F7"/>
<path fill-rule="evenodd" clip-rule="evenodd" d="M94.7956 173.015C94.4964 173.757 95.7394 174.103 95.849 173.304C95.9322 172.695 95.0325 172.427 94.7956 173.015Z" fill="#F5F5F7"/>
<path fill-rule="evenodd" clip-rule="evenodd" d="M109.11 171.563C108.423 170.948 107.409 172.604 109.045 172.535C109.227 172.38 109.383 172.217 109.11 171.563Z" fill="#F5F5F7"/>
<path fill-rule="evenodd" clip-rule="evenodd" d="M106.892 164.266C106.197 164.266 106.333 165.339 107.021 165.339C107.716 165.339 107.579 164.266 106.892 164.266Z" fill="#F5F5F7"/>
<path fill-rule="evenodd" clip-rule="evenodd" d="M113.724 171.728C113.404 172.096 114.349 172.962 114.687 171.964C114.652 171.551 114.202 171.3 113.724 171.728Z" fill="#F5F5F7"/>
<path fill-rule="evenodd" clip-rule="evenodd" d="M108.04 179.623C108.34 179.717 108.204 179.66 108.04 179.623C107.42 179.958 108.791 180.571 108.04 179.623Z" fill="#F5F5F7"/>
<path fill-rule="evenodd" clip-rule="evenodd" d="M96.3945 178.317C95.8049 177.679 95.3412 179.131 96.3259 178.743C96.4758 178.604 96.3504 178.745 96.3945 178.317Z" fill="#F5F5F7"/>
<path fill-rule="evenodd" clip-rule="evenodd" d="M90.9959 182.739C90.3388 182.739 90.4686 183.754 91.1181 183.754C91.7758 183.754 91.6461 182.739 90.9959 182.739Z" fill="#F5F5F7"/>
<path fill-rule="evenodd" clip-rule="evenodd" d="M90.385 173.477C89.8571 173.477 89.961 174.292 90.4826 174.292C91.0106 174.292 90.9066 173.477 90.385 173.477Z" fill="#F5F5F7"/>
<path fill-rule="evenodd" clip-rule="evenodd" d="M96.4635 189.244C95.9966 189.207 95.9815 190.505 96.8572 189.816C96.9032 189.607 96.9101 189.469 96.4635 189.244Z" fill="#F5F5F7"/>
<path fill-rule="evenodd" clip-rule="evenodd" d="M94.0388 194.697C93.4983 194.587 93.8045 196.505 94.7532 195.126C94.6808 194.946 94.6159 194.784 94.0388 194.697Z" fill="#F5F5F7"/>
<path fill-rule="evenodd" clip-rule="evenodd" d="M102.861 198.606C102.355 198.606 102.454 199.387 102.955 199.387C103.46 199.387 103.361 198.606 102.861 198.606Z" fill="#F5F5F7"/>
<path fill-rule="evenodd" clip-rule="evenodd" d="M105.256 195.521C104.574 195.365 104.885 196.64 105.428 196.167C105.735 195.899 105.646 195.61 105.256 195.521Z" fill="#F5F5F7"/>
<path fill-rule="evenodd" clip-rule="evenodd" d="M112.219 197.536C111.744 197.536 111.838 198.269 112.308 198.269C112.783 198.269 112.688 197.536 112.219 197.536Z" fill="#F5F5F7"/>
<path fill-rule="evenodd" clip-rule="evenodd" d="M114.888 194.719C114.471 194.762 114.465 195.395 114.88 195.454C115.408 195.528 115.434 194.663 114.888 194.719Z" fill="#F5F5F7"/>
<path fill-rule="evenodd" clip-rule="evenodd" d="M113.029 192.164C112.613 192.301 113.525 193.055 113.486 192.248C113.397 192.063 113.318 192.198 113.029 192.164Z" fill="#F5F5F7"/>
<path fill-rule="evenodd" clip-rule="evenodd" d="M126.006 182.194C125.482 188.058 124.901 194.502 125.087 200.795C123.372 195.286 124.942 186.983 124.427 180.376C124.342 173.82 121.931 163.425 125.901 162.647C124.898 168.825 125.622 175.656 126.006 182.194" fill="#4395A1"/>
<path fill-rule="evenodd" clip-rule="evenodd" d="M128.764 200.725C128.124 200.787 127.52 200.822 126.961 200.839C126.733 192.887 127.28 184.863 127.215 176.7C127.578 171.759 125.63 165.848 127.617 162.262C128.492 175.069 129.149 187.875 128.764 200.725Z" fill="#4395A1"/>
<path fill-rule="evenodd" clip-rule="evenodd" d="M131.206 179.393C130.018 185.802 132.855 195.586 130.462 200.515C129.481 191.528 128.724 159.338 132.209 162.285C133.173 162.281 132.828 162.655 132.645 164.196C131.87 169.34 131.555 174.057 131.206 179.393" fill="#4395A1"/>
<path fill-rule="evenodd" clip-rule="evenodd" d="M134.708 179.2C131.859 174.707 133.395 167.771 133.832 162.498C135.884 166.161 133.886 174.173 134.708 179.2Z" fill="#4395A1"/>
<path fill-rule="evenodd" clip-rule="evenodd" d="M135.163 199.474C134.778 199.579 134.392 199.684 134.016 199.789C134.515 195.539 133.701 191.088 135.189 186.571C135.443 190.877 135.504 195.176 135.163 199.474" fill="#4395A1"/>
<path fill-rule="evenodd" clip-rule="evenodd" d="M139.207 198.012C138.48 198.327 137.745 198.616 137.01 198.878C136.57 186.423 135.534 176.411 135.741 162.875C138.47 173.178 138.448 186.371 139.207 198.012Z" fill="#4395A1"/>
<path fill-rule="evenodd" clip-rule="evenodd" d="M141.316 196.979C141.176 197.058 141.027 197.136 140.879 197.206C139.793 186.59 139.152 175.017 139.329 164.022C140.172 164.378 140.745 164.301 140.341 166.326C140.582 176.726 140.53 186.605 141.316 196.979" fill="#4395A1"/>
<path fill-rule="evenodd" clip-rule="evenodd" d="M144.66 194.782C144.319 195.053 143.969 195.316 143.61 195.569C142.84 185.783 142.542 175.708 142.708 165.886C144.956 174.269 144.164 185.412 144.66 194.782Z" fill="#4395A1"/>
<path fill-rule="evenodd" clip-rule="evenodd" d="M148.048 191.21C147.75 191.648 147.427 192.068 147.085 192.471C146.422 184.874 145.383 176.906 145.956 168.967C147.393 175.613 146.51 183.965 148.048 191.21Z" fill="#4395A1"/>
<path fill-rule="evenodd" clip-rule="evenodd" d="M149.956 187.044C149.834 187.516 149.693 187.972 149.519 188.418C148.267 183.805 147.409 178.019 148.503 173.432C150.22 177.214 149.143 182.555 149.956 187.044" fill="#4395A1"/>
</svg>
