<svg width="199" height="219" viewBox="0 0 199 219" fill="none" xmlns="http://www.w3.org/2000/svg">
<path fill-rule="evenodd" clip-rule="evenodd" d="M169.842 160.879C169.626 161.669 170.953 164.202 169.749 165.023C168.733 164.317 169.017 160.453 167.15 164.582C164.509 166.774 166.233 162.818 166.854 160.703C163.377 161.896 159.413 163.612 165.945 159.217C165.602 158.602 163.841 158.842 163.549 157.788C164.044 156.201 167.743 160.048 166.209 155.301C166.156 154.984 166.565 154.309 167.266 154.906C168.146 157.064 168.387 159.083 170.23 154.317C172.203 153.705 171.805 154.405 171.3 156.7C171.734 156.583 176.329 155.966 172.681 158.241C169.593 159.627 176.287 160.186 177.148 161.762C175.552 163.189 172.223 161.095 169.842 160.879Z" fill="#FFDA76"/>
<path fill-rule="evenodd" clip-rule="evenodd" d="M179.94 154.688C170.966 159.847 185.001 148.702 189.297 148.022C192.735 145.892 201.238 147.87 196.09 151.744C195.299 151.906 193.43 152.785 192.774 151.667C197.739 150.994 197.583 147.696 191.49 148.194C187.194 149.53 183.866 152.034 179.94 154.688" fill="#FFDA76"/>
<path fill-rule="evenodd" clip-rule="evenodd" d="M178.873 147.661C184.258 142.86 187.612 150.067 182.266 149.15C182.213 148.473 184.127 148.658 183.644 147.312C183.243 147.074 183.098 146.765 182.128 147.57C178.312 148.043 177.344 152.782 174.643 154.435C174.048 152.13 176.976 149.569 178.873 147.661" fill="#FFDA76"/>
<path fill-rule="evenodd" clip-rule="evenodd" d="M190.327 172.589C186.832 175.78 181.615 169.815 187.606 170.055C189.074 171.873 186.085 170.015 186.119 171.626C186.643 172.63 187.906 172.596 189.12 172.168C190.717 171.426 190.9 170.164 190.951 168.304C192.988 167.369 191.573 171.928 190.327 172.589" fill="#FFDA76"/>
<path fill-rule="evenodd" clip-rule="evenodd" d="M177.309 158.75C179.785 157.828 186.351 154.812 188.051 156.989C185.492 156.266 174.822 160.99 177.309 158.75Z" fill="#FFDA76"/>
<path fill-rule="evenodd" clip-rule="evenodd" d="M187.875 165.333C185.391 162.49 189.745 162.65 190.262 165.949C190.057 167.065 188.211 166.361 187.875 165.333Z" fill="#FFDA76"/>
<path fill-rule="evenodd" clip-rule="evenodd" d="M179.132 161.114C180.124 160.308 186.159 160.898 185.541 162.606C183.985 161.586 180.438 162.193 179.132 161.114Z" fill="#FFDA76"/>
<path fill-rule="evenodd" clip-rule="evenodd" d="M194.932 157.17C194.99 158.294 192.456 156.883 191.151 157.06C190.51 155.69 194.015 156.297 194.932 157.17Z" fill="#FFDA76"/>
<path fill-rule="evenodd" clip-rule="evenodd" d="M194.781 163.383C195.619 165.078 191.216 163.74 193.323 162.521C193.705 162.549 194.228 162.704 194.781 163.383Z" fill="#FFDA76"/>
<path fill-rule="evenodd" clip-rule="evenodd" d="M191.965 160.441C192.69 161.345 190.284 162.887 190.108 161.03C190.269 160.228 191.009 159.777 191.965 160.441Z" fill="#FFDA76"/>
<path fill-rule="evenodd" clip-rule="evenodd" d="M195.093 167.457C196.535 166.667 196.853 170.27 194.646 168.805C194.506 168.586 194.481 168.138 195.093 167.457Z" fill="#FFDA76"/>
<path fill-rule="evenodd" clip-rule="evenodd" d="M196.796 157.752C197.029 157.425 200.156 158.076 198.5 159.073C198.256 159.157 196.521 158.725 196.796 157.752Z" fill="#FFDA76"/>
<path fill-rule="evenodd" clip-rule="evenodd" d="M29.4628 162.07C29.6789 162.86 28.3521 165.394 29.5567 166.214C30.5723 165.508 30.2881 161.643 32.1554 165.773C34.7958 167.965 33.0721 164.009 32.4509 161.894C35.9285 163.088 39.8912 164.803 33.3606 160.408C33.7034 159.793 35.4642 160.034 35.7559 158.979C35.262 157.392 31.562 161.239 33.096 156.492C33.149 156.175 32.7413 155.499 32.0389 156.097C31.1588 158.255 30.9181 160.274 29.0754 155.508C27.1028 154.897 27.4997 155.596 28.005 157.892C27.5709 157.774 22.9763 157.157 26.6247 159.432C29.7123 160.818 23.0186 161.376 22.1573 162.954C23.7531 164.381 27.0827 162.286 29.4628 162.07" fill="#FFDA76"/>
<path fill-rule="evenodd" clip-rule="evenodd" d="M19.3653 155.879C28.9596 161.255 12.6092 148.754 8.50284 148.713C4.37382 146.873 -1.872 150.744 3.93534 153.175C5.54688 153.898 8.42724 152.721 4.82427 152.388C1.0134 151.748 3.70791 148.753 7.14771 149.287C11.6963 150.273 15.2741 153.186 19.3653 155.879" fill="#FFDA76"/>
<path fill-rule="evenodd" clip-rule="evenodd" d="M20.4321 148.852C15.0475 144.051 11.6928 151.257 17.039 150.341C17.0931 149.664 15.1779 149.849 15.6618 148.503C16.0618 148.265 16.2074 147.956 17.1769 148.761C20.9929 149.234 21.9618 153.973 24.662 155.626C25.2573 153.321 22.3297 150.759 20.4321 148.852" fill="#FFDA76"/>
<path fill-rule="evenodd" clip-rule="evenodd" d="M8.97836 173.78C12.473 176.971 17.69 171.006 11.6993 171.246C10.2314 173.064 13.2201 171.206 13.1868 172.817C12.662 173.821 11.3994 173.787 10.1848 173.359C8.58839 172.617 8.40506 171.355 8.35403 169.495C6.31724 168.56 7.73222 173.12 8.97836 173.78Z" fill="#FFDA76"/>
<path fill-rule="evenodd" clip-rule="evenodd" d="M21.9963 159.941C19.5198 159.019 12.9539 156.003 11.2542 158.18C13.8132 157.457 24.4835 162.181 21.9963 159.941Z" fill="#FFDA76"/>
<path fill-rule="evenodd" clip-rule="evenodd" d="M11.4304 166.525C13.9145 163.681 9.56056 163.841 9.04333 167.14C9.24808 168.255 11.0946 167.552 11.4304 166.525Z" fill="#FFDA76"/>
<path fill-rule="evenodd" clip-rule="evenodd" d="M20.1728 162.305C19.1812 161.499 13.1458 162.09 13.7645 163.796C15.32 162.778 18.8669 163.384 20.1728 162.305Z" fill="#FFDA76"/>
<path fill-rule="evenodd" clip-rule="evenodd" d="M4.37327 158.361C4.31594 159.485 6.84917 158.074 8.15453 158.251C8.79524 156.881 5.28992 157.488 4.37327 158.361" fill="#FFDA76"/>
<path fill-rule="evenodd" clip-rule="evenodd" d="M4.52459 164.575C3.68669 166.269 8.08913 164.931 5.98178 163.712C5.60063 163.739 5.07773 163.895 4.52459 164.575Z" fill="#FFDA76"/>
<path fill-rule="evenodd" clip-rule="evenodd" d="M7.3403 161.632C6.61517 162.535 9.02114 164.078 9.19691 162.22C9.03626 161.419 8.29664 160.968 7.3403 161.632Z" fill="#FFDA76"/>
<path fill-rule="evenodd" clip-rule="evenodd" d="M4.21212 168.648C2.77068 167.858 2.45253 171.461 4.65879 169.996C4.79928 169.777 4.82385 169.329 4.21212 168.648Z" fill="#FFDA76"/>
<path fill-rule="evenodd" clip-rule="evenodd" d="M2.50942 158.943C2.27632 158.616 -0.85037 159.267 0.8059 160.264C1.04971 160.348 2.78473 159.916 2.50942 158.943Z" fill="#FFDA76"/>
<path fill-rule="evenodd" clip-rule="evenodd" d="M139.611 8.05586C134.235 10.1197 135.824 11.2367 135.138 14.3174C131.514 9.84191 130.943 11.6985 127.801 11.999C130.938 7.16882 128.995 7.19906 127.738 4.30358C133.301 5.79479 132.673 3.95645 135.038 1.86737C135.339 7.61801 136.894 6.45251 139.611 8.05586" fill="#F4B955"/>
<path fill-rule="evenodd" clip-rule="evenodd" d="M154.001 19.909C152.459 23.4698 154.028 23.8578 155.219 25.4007C151.356 25.0347 151.472 26.6468 150.372 28.2559C149.526 24.4689 148.029 25.0775 146.159 24.5288C149.499 22.5544 148.458 21.3183 148.402 19.371C151.312 21.937 152.166 20.5648 154.001 19.909" fill="#F4B955"/>
<path fill-rule="evenodd" clip-rule="evenodd" d="M128.67 31.2425C128.236 32.122 124.369 31.332 124.721 31.5645C122.454 37.3932 121.395 33.2768 121.464 31.0277C115.002 30.8299 119.002 28.5984 120.868 27.6837C119.329 21.5947 122.184 24.751 123.819 26.2038C129.266 22.037 126.689 27.1293 126.271 28.5537C126.699 28.8435 128.878 30.3687 128.67 31.2425" fill="#FFDA76"/>
<path fill-rule="evenodd" clip-rule="evenodd" d="M162.797 10.6427C161.915 11.0723 159.344 8.07605 159.48 8.4761C154.08 11.7225 155.852 7.71443 157.237 6.05501C152.239 1.88504 156.809 2.64986 158.816 3.04739C161.334 -2.7064 161.654 1.53854 162.055 3.6881C168.913 3.73661 163.755 6.17912 162.55 7.04789C162.711 7.53992 163.497 10.0801 162.797 10.6427" fill="#FFDA76"/>
<path fill-rule="evenodd" clip-rule="evenodd" d="M108.905 20.5113C108.643 21.1747 105.906 20.8086 106.175 21.0569C105.038 25.2457 103.95 22.2362 103.89 20.8679C99.2347 21.1482 102.321 19.2796 103.226 18.545C101.739 14.4897 104.071 16.5366 105.186 17.3556C109.143 13.8093 106.841 18.3686 107.094 18.8361C107.503 19.0598 108.889 19.863 108.905 20.5113" fill="#FFDA76"/>
<path fill-rule="evenodd" clip-rule="evenodd" d="M124.673 22.6077C123.245 22.5762 124.345 25.5272 125.465 23.399C125.42 23.1514 125.383 22.9158 124.673 22.6077Z" fill="#F4B955"/>
<path fill-rule="evenodd" clip-rule="evenodd" d="M126.162 18.976C124.712 18.9748 124.124 21.4708 126.162 21.7675C127.613 21.7682 128.2 19.2721 126.162 18.976Z" fill="#F4B955"/>
<path fill-rule="evenodd" clip-rule="evenodd" d="M127.999 16.9848C126.973 16.9691 127.801 19.0481 128.557 17.543C128.53 17.3672 128.503 17.2009 127.999 16.9848Z" fill="#F4B955"/>
<path fill-rule="evenodd" clip-rule="evenodd" d="M130.144 14.2436C128.396 13.2804 127.696 17.2462 130.371 15.9976C130.697 15.6731 130.84 14.8277 130.144 14.2436" fill="#F4B955"/>
<path fill-rule="evenodd" clip-rule="evenodd" d="M131.819 12.5028C130.68 12.4877 131.598 14.803 132.443 13.1265C132.408 12.9319 132.379 12.746 131.819 12.5028Z" fill="#F4B955"/>
<path fill-rule="evenodd" clip-rule="evenodd" d="M137.839 11.473C137.616 11.444 137.484 11.4415 137.238 11.8856C137.224 12.5383 138.678 12.2636 137.839 11.473Z" fill="#F4B955"/>
<path fill-rule="evenodd" clip-rule="evenodd" d="M139.66 12.317C139.347 12.3391 138.878 12.5545 138.702 13.2752C139.008 15.3668 142.125 13.2563 139.66 12.317Z" fill="#F4B955"/>
<path fill-rule="evenodd" clip-rule="evenodd" d="M141.794 14.4694C140.366 14.4379 141.466 17.3888 142.585 15.2601C142.54 15.0131 142.504 14.7775 141.794 14.4694Z" fill="#F4B955"/>
<path fill-rule="evenodd" clip-rule="evenodd" d="M144.027 16.2216C142.654 16.221 142.098 18.5841 144.027 18.8638C145.4 18.8651 145.956 16.502 144.027 16.2216Z" fill="#F4B955"/>
<path fill-rule="evenodd" clip-rule="evenodd" d="M146.211 19.1557C145.001 19.1292 145.932 21.6284 146.88 19.826C146.842 19.6162 146.812 19.4165 146.211 19.1557Z" fill="#F4B955"/>
<path fill-rule="evenodd" clip-rule="evenodd" d="M147.203 21.0413C146.533 21.0413 146.531 22.0833 147.203 22.0833C147.873 22.0833 147.875 21.0413 147.203 21.0413Z" fill="#F4B955"/>
<path fill-rule="evenodd" clip-rule="evenodd" d="M152.294 18.9585C152.124 17.6002 149.587 19.1922 151.734 19.7567C151.942 19.6842 152.137 19.6162 152.294 18.9585Z" fill="#F4B955"/>
<path fill-rule="evenodd" clip-rule="evenodd" d="M153.523 15.4692C151.531 15.5152 152.391 19.3512 154.594 17.3201C155.024 16.4753 154.707 15.8396 153.523 15.4692" fill="#F4B955"/>
<path fill-rule="evenodd" clip-rule="evenodd" d="M155.788 13.5914C154.478 13.5624 155.486 16.2702 156.514 14.3172C156.473 14.0904 156.439 13.8743 155.788 13.5914Z" fill="#F4B955"/>
<path fill-rule="evenodd" clip-rule="evenodd" d="M157.575 11.8455C156.497 11.8291 157.367 14.0121 158.161 12.432C158.133 12.2468 158.105 12.0723 157.575 11.8455Z" fill="#F4B955"/>
<path fill-rule="evenodd" clip-rule="evenodd" d="M159.163 9.80469C158.145 9.80469 158.143 11.3866 159.163 11.3866C160.181 11.3866 160.182 9.80469 159.163 9.80469Z" fill="#F4B955"/>
<path fill-rule="evenodd" clip-rule="evenodd" d="M118.719 26.3225C117.578 26.3074 118.498 28.6252 119.343 26.9469C119.308 26.7516 119.279 26.5657 118.719 26.3225Z" fill="#F4B955"/>
<path fill-rule="evenodd" clip-rule="evenodd" d="M116.337 24.8906C114.585 24.8918 115.388 28.3411 117.282 26.5229C117.661 25.7776 117.381 25.2169 116.337 24.8906Z" fill="#F4B955"/>
<path fill-rule="evenodd" clip-rule="evenodd" d="M113.753 24.0295C112.904 23.7347 112.193 25.4344 113.707 25.4596C114.207 25.3418 114.513 24.5379 113.753 24.0295Z" fill="#F4B955"/>
<path fill-rule="evenodd" clip-rule="evenodd" d="M110.58 23.1473C109.32 23.1196 110.29 25.7234 111.278 23.8454C111.239 23.6274 111.207 23.4195 110.58 23.1473Z" fill="#F4B955"/>
<path fill-rule="evenodd" clip-rule="evenodd" d="M108.099 21.4323C106.59 21.4323 106.588 23.7772 108.099 23.7772C109.608 23.7772 109.61 21.4323 108.099 21.4323Z" fill="#F4B955"/>
<path fill-rule="evenodd" clip-rule="evenodd" d="M35.5844 82.4999C35.4924 81.3911 30.2653 81.3609 30.0152 82.4999C30.1053 84.8372 31.1624 94.4724 27.1487 91.575C25.3922 89.8533 25.5308 84.4378 25.2946 82.8521C21.3753 81.456 19.0481 82.2674 19.9686 86.2894C20.4946 91.9449 23.7719 95.0199 30.0643 94.17C30.2029 98.7325 24.2355 108.81 22.8256 99.6989C21.6229 98.9908 16.9294 98.6518 17.4353 100.571C18.071 107.481 29.1439 106.419 32.5396 102.409C37.0661 97.4889 35.912 88.432 35.5844 82.4999" fill="#4395A1"/>
<path fill-rule="evenodd" clip-rule="evenodd" d="M47.847 100.297C46.4055 100.603 45.4675 98.7539 45.0731 96.736C43.6612 91.4509 43.7009 80.4656 49.1863 86.6944C50.8842 90.5708 50.602 98.7388 47.847 100.297V100.297ZM55.4996 89.382C52.5096 78.0704 35.2381 81.6141 38.8115 94.1423C41.7019 109.837 59.0377 102.869 55.4996 89.382Z" fill="#4395A1"/>
<path fill-rule="evenodd" clip-rule="evenodd" d="M125.936 98.0656C124.494 98.3718 123.555 96.5228 123.162 94.5049C121.75 89.2198 121.79 78.2345 127.274 84.4633C128.973 88.3397 128.69 96.5076 125.936 98.0656ZM133.588 87.1509C130.598 75.8392 113.326 79.383 116.9 91.9112C119.791 107.606 137.126 100.638 133.588 87.1509Z" fill="#4395A1"/>
<path fill-rule="evenodd" clip-rule="evenodd" d="M78.7502 98.1124C73.3026 87.9852 75.7149 80.5493 68.1668 83.8442C67.6817 87.6828 69.4741 98.8413 64.877 96.3906C62.7533 92.6925 64.3257 86.6225 64.6155 83.6602C56.1086 79.9671 58.0339 92.1734 59.2511 96.4221C61.509 100.823 69.5724 98.8571 71.9015 95.2944C72.6846 99.6698 77.1286 100.104 78.7502 98.1124" fill="#4395A1"/>
<path fill-rule="evenodd" clip-rule="evenodd" d="M109.508 84.0911C107.765 83.8221 105.24 84.2241 104.092 85.9635C102.35 83.6363 97.244 83.7944 94.7542 86.1601C94.8468 85.3411 94.9395 84.5227 95.0327 83.7037C95.1411 82.7486 89.609 82.4235 89.4635 83.7037C88.8543 89.0757 88.2451 94.4471 87.6365 99.8185C87.525 100.797 92.839 101.04 93.2051 99.8185C94.1469 96.6748 95.1694 86.1966 99.5101 86.8921C102.8 87.4194 99.9794 96.3144 99.5769 98.5881C99.4169 99.4902 104.71 99.8235 105.146 98.5881C105.923 96.385 106.531 87.2399 108.92 87.507C112.97 87.96 108.739 97.6853 108.587 100.812C108.536 101.865 114.098 102.018 114.156 100.812C114.417 95.4305 117.796 85.2176 109.508 84.0911" fill="#4395A1"/>
<path fill-rule="evenodd" clip-rule="evenodd" d="M154.986 81.2069C153.017 79.2174 148.517 80.306 148.26 82.6465C146.227 83.7603 144.601 82.7492 142.537 83.9159C142.61 83.0295 139.986 82.7404 138.071 82.9854C134.63 83.0636 137.126 88.6869 136.561 91.3978C137.218 96.4233 134.527 101.102 141.584 99.6987C146.986 96.2117 141.221 83.393 152.326 84.287C154.011 84.0268 155.147 83.3282 154.986 81.2069" fill="#4395A1"/>
<path fill-rule="evenodd" clip-rule="evenodd" d="M163.032 85.1069C164.459 88.0818 161.755 91.1877 158.597 92.3015C159.279 89.5931 160.627 86.7726 163.032 85.1069ZM171.631 95.5933C167.517 94.3307 161.199 101.085 158.751 95.2468C178.808 90.7397 167.372 77.3396 156.244 84.744C139.245 106.658 183.064 98.376 171.631 95.5933" fill="#4395A1"/>
<path fill-rule="evenodd" clip-rule="evenodd" d="M87.2509 175.57C85.0213 171.621 77.22 176.2 73.9982 176.108C59.0968 178.173 52.5511 184.763 69.9775 181.508C70.6189 220.489 62.6513 217.799 71.3144 218.302C75.5996 218.085 74.8153 210.622 75.7628 208.011C78.2444 197.317 73.7411 178.654 79.6846 180.023C81.9129 179.713 88.4523 179.284 87.2509 175.57" fill="#F5F5F7"/>
<path fill-rule="evenodd" clip-rule="evenodd" d="M111.16 172.578C92.68 173.05 91.3318 195.866 90.9374 210.808C91.4603 214.656 89.2666 219.017 95.6359 218.32C97.6154 218.218 99.2559 217.737 99.3176 217.007C98.8143 211.582 99.1545 205.403 100.05 199.823C107.934 199.013 115.686 199.075 123.8 199.747C124.169 215.951 118.417 219.761 130.147 217.14C134.003 202.199 134.518 170.89 111.16 172.578Z" fill="#F5F5F7"/>
<path fill-rule="evenodd" clip-rule="evenodd" d="M88.0175 162.619C84.9028 163.548 79.7261 164.204 80.0594 159.745C80.6409 155.882 80.358 155.907 81.2079 155.842C80.072 158.237 80.1854 157.786 80.358 155.907C85.529 156.254 85.2159 152.276 80.6661 153.271C80.9294 151.616 82.1768 145.292 78.7427 148.193C77.6685 149.552 79.3928 153.259 77.2471 153.708C71.1235 154.268 72.1403 158.399 77.7479 156.265C73.7877 172.207 95.3489 164.429 88.0175 162.619" fill="#F4B955"/>
<path fill-rule="evenodd" clip-rule="evenodd" d="M101.113 154.285C98.8491 151.9 96.0777 152.434 93.874 154.243C94.1172 152.417 93.7543 144.822 91.1707 149.269C91.8712 153.165 89.7072 168.43 93.7612 165.137C94.9796 161.832 92.5157 157.734 94.8738 156.395C102.934 151.847 98.8466 163.066 100.318 164.473C104.222 165.896 103.071 155.341 101.113 154.285" fill="#F4B955"/>
<path fill-rule="evenodd" clip-rule="evenodd" d="M109.018 154.738C109.896 153.392 111.618 153.993 112.458 155.181C114.629 158.252 110.266 159.103 108.074 159.356C107.904 159.375 107.884 156.476 109.018 154.738V154.738ZM116.218 161.965C113.997 163.313 110.761 163.925 108.265 161.931C123.118 160.628 112.035 146.125 106.639 153.502C98.9224 173.591 125.576 163.273 116.218 161.965Z" fill="#F4B955"/>
<path fill-rule="evenodd" clip-rule="evenodd" d="M63.3293 137.817C54.9976 142.969 53.2499 129.667 57.3292 125.228C63.7136 121.234 68.4329 133.706 63.3293 137.817ZM101.182 135.429C94.7745 145.621 95.5683 132.017 94.3033 127.872C92.6533 121.528 85.7378 118.818 82.4045 125.008C82.3906 124.637 82.3616 124.304 82.3118 123.12C82.31 123.12 82.3087 123.12 82.3074 123.121C75.821 114.273 82.0044 141.39 73.1195 138.446C68.1809 137.774 71.4229 124.561 69.9179 121.738C67.452 119.905 66.7004 122.509 66.8435 125.164C60.0968 115.383 50.2732 122.312 52.2287 133.641C52.7333 137.782 54.6788 139.936 49.8593 139.297C46.027 136.715 48.5312 132.511 47.5585 129.254C47.0646 124.886 41.8243 121.173 37.9806 124.362C37.7879 120.849 40.9687 108.104 35.6761 112.86C33.4295 121.127 35.5457 130.922 29.916 138.181C15.6509 145.131 21.7922 114.588 20.2631 109.875C14.1666 104.774 17.241 137.621 18.5426 138.38C21.7726 146.607 32.2602 143.706 34.8287 136.945C34.7135 138.839 34.9881 144.423 38.1425 141.911C38.7782 137.995 37.2599 122.808 43.4478 129.766C45.0058 132.847 44.2189 136.211 45.0555 138.893C46.2683 143.549 52.2577 144.328 54.033 140.273C57.9592 144.752 65.8323 142.406 67.9082 136.966C69.1404 142.455 75.659 144.872 79.1763 140.547C78.7479 142.174 80.9794 143.594 82.1758 142.157C83.0628 140.224 82.4523 137.82 83.2619 134.138C84.045 127.037 88.2288 122.526 91.2093 128.035C92.8366 132.352 90.6165 137.628 94.0355 141.314C99.2948 147.2 108.813 132 101.182 135.429" fill="#F5F5F7"/>
<path fill-rule="evenodd" clip-rule="evenodd" d="M169.521 122.094C169.842 117.623 170.186 111.857 169.849 111.881C172.421 111.707 170.995 117.572 169.521 122.094ZM155.938 111.529C156.286 113.017 156.078 115.218 155.274 117.172C155.406 115.635 155.609 113.613 155.938 111.529ZM127.322 134.217C124.073 129.613 130.201 121.963 134.473 125.831C139.054 130.417 133.454 141.154 127.322 134.217ZM177.802 136.553C173.254 142.068 168.079 140.466 168.694 132.874C172.168 127.29 180.78 102.967 167.749 108.662C163.429 115.675 170.858 137.45 158.023 136.587C152.714 137.093 154.148 126.928 155.832 124.238C159.381 119.243 162.858 105.327 154.833 107.708C150.033 113.749 153.23 120.917 150.503 127.26C144.642 142.366 139.238 136.273 139.561 124.09C140.161 122.171 137.181 120.184 136.197 122.986C128.751 117.697 121.852 125.726 123.298 133.01C124.312 140.731 133.991 144.375 138.03 137.205C141.981 144.599 148.921 140.398 151.387 134.11C152.226 143.146 160.538 142.743 165.319 137.43C168.367 154.889 188.168 133.019 177.802 136.553Z" fill="#F5F5F7"/>
<path fill-rule="evenodd" clip-rule="evenodd" d="M25.7991 124.428C22.2163 124.323 6.55197 126.254 11.3532 130.218C14.7577 130.489 18.3928 127.815 22.0613 127.943C25.2151 128.352 29.8809 126.41 25.7991 124.428" fill="#F5F5F7"/>
<path fill-rule="evenodd" clip-rule="evenodd" d="M121.15 184.614C114.395 190.362 117.038 189.744 117.544 195.503C109.991 190.855 111.395 193.177 106.074 195.438C108.16 186.819 106.386 188.872 102.591 184.51C111.433 183.831 108.933 182.777 111.908 177.821C115.287 186.02 115.516 183.317 121.15 184.614" fill="#F4B955"/>
<path fill-rule="evenodd" clip-rule="evenodd" d="M46.1726 214.011C42.4121 217.364 36.446 218.212 30.7615 218.338C13.1234 218.919 17.4351 198.528 32.8922 203.102C43.9191 208.132 25.2578 212.755 29.6275 205.979C29.6023 205.583 29.2237 205.661 28.6976 205.794C24.0306 207.763 26.5103 215.974 31.6366 215.517C42.9287 216.31 47.7205 202.166 40.8907 194.688C34.3349 189.397 17.4754 190.491 22.7996 177.367C32.7448 162.426 54.3519 178.823 47.3614 182.06C45.0732 183.542 33.3502 181.669 41.6656 179.953C36.8902 167.669 22.4613 178.082 31.3039 186.611C35.5842 190.136 41.2548 189.053 46.0674 192.538C52.906 197.621 52.0952 208.492 46.1726 214.011" fill="#F5F5F7"/>
<path fill-rule="evenodd" clip-rule="evenodd" d="M37.5827 216.722C37.5002 217.779 36.6276 217.995 35.0948 218.082C35.5541 217.875 36.5779 215.343 37.5827 216.722Z" fill="#4395A1"/>
<path fill-rule="evenodd" clip-rule="evenodd" d="M27.4313 216.565C27.1862 217.532 26.2557 218.263 24.6089 217.391C25.1349 217.22 26.6558 215.221 27.4313 216.565Z" fill="#4395A1"/>
<path fill-rule="evenodd" clip-rule="evenodd" d="M39.8363 175.234C39.6353 175.535 39.4343 175.848 39.2113 176.16C38.8434 175.803 38.4415 175.491 38.0288 175.223C38.2172 174.588 39.3625 174.202 39.8363 175.234" fill="#4395A1"/>
<path fill-rule="evenodd" clip-rule="evenodd" d="M43.919 173.884C43.4068 174.345 43.289 176.27 41.9339 176.384C41.011 176.108 40.8371 175.638 41.9597 174.156C42.4461 173.359 42.5387 172.701 43.919 173.884Z" fill="#4395A1"/>
<path fill-rule="evenodd" clip-rule="evenodd" d="M44.4232 176.916C44.4969 176.906 44.565 176.905 44.6387 176.9C44.9644 176.877 44.4824 176.902 44.4232 176.916Z" fill="#4395A1"/>
<path fill-rule="evenodd" clip-rule="evenodd" d="M44.4232 176.916C44.0357 177.028 42.8034 177.678 42.5854 178.599C43.9034 179.804 44.0231 178.948 45.1023 177.744C45.5534 177.327 45.3197 176.921 44.4232 176.916Z" fill="#4395A1"/>
<path fill-rule="evenodd" clip-rule="evenodd" d="M46.3732 180.176C46.3442 181.668 45.5006 182.682 43.3391 182.608C43.9912 182.213 44.9129 179.237 46.3732 180.176Z" fill="#4395A1"/>
<path fill-rule="evenodd" clip-rule="evenodd" d="M37.8057 171.598C37.9544 172.563 35.6593 173.862 36.0209 171.899C36.1979 171.196 36.5482 171.431 37.8057 171.598Z" fill="#4395A1"/>
<path fill-rule="evenodd" clip-rule="evenodd" d="M33.5332 173.382C33.7373 174.764 31.9236 174.758 30.7222 175.926C31.2999 175.486 32.0426 172.42 33.5332 173.382Z" fill="#4395A1"/>
<path fill-rule="evenodd" clip-rule="evenodd" d="M30.1311 171.977C29.8482 172.689 29.4797 174.693 28.5863 175.614C25.9088 175.616 28.134 172.06 30.1311 171.977Z" fill="#4395A1"/>
<path fill-rule="evenodd" clip-rule="evenodd" d="M25.0999 176.071C23.6798 181.029 21.105 177.466 25.3342 174.386C25.4678 174.922 25.2561 175.502 25.0999 176.071Z" fill="#4395A1"/>
<path fill-rule="evenodd" clip-rule="evenodd" d="M27.3381 177.93C26.596 177.158 24.5258 179.964 25.0726 181.034C27.0628 182.025 26.7617 179.963 27.3381 177.93Z" fill="#4395A1"/>
<path fill-rule="evenodd" clip-rule="evenodd" d="M24.2853 183.143C24.3156 183.805 24.0969 185.082 23.6049 186.267C22.4772 185.758 22.4041 182.52 24.2853 183.143Z" fill="#4395A1"/>
<path fill-rule="evenodd" clip-rule="evenodd" d="M27.4824 183.008C26.6281 182.424 25.6434 184.465 25.8003 185.491C27.7237 186.911 27.6531 184.943 27.4824 183.008Z" fill="#4395A1"/>
<path fill-rule="evenodd" clip-rule="evenodd" d="M29.0152 189.982C28.1647 189.639 27.2607 189.659 28.5024 187.862C29.0807 187.918 28.9094 188.922 29.0152 189.982Z" fill="#4395A1"/>
<path fill-rule="evenodd" clip-rule="evenodd" d="M33.6339 188.029C34.0094 189.168 31.3129 189.596 32.4287 187.405C32.8199 187.639 33.2212 187.851 33.6339 188.029Z" fill="#4395A1"/>
<path fill-rule="evenodd" clip-rule="evenodd" d="M36.032 192.023C35.6194 191.89 35.2067 191.778 34.7827 191.655C35.0076 190.942 35.9488 189.764 36.032 192.023Z" fill="#4395A1"/>
<path fill-rule="evenodd" clip-rule="evenodd" d="M40.3048 190.049C40.9064 191.931 37.5561 192.289 39.1664 189.759C39.3982 189.807 39.5841 189.858 40.3048 190.049Z" fill="#4395A1"/>
<path fill-rule="evenodd" clip-rule="evenodd" d="M42.5134 195.917C42.48 196.128 42.4467 196.363 42.4019 196.597C40.3966 195.588 42.686 191.624 42.5134 195.917Z" fill="#4395A1"/>
<path fill-rule="evenodd" clip-rule="evenodd" d="M46.527 195.47C45.6412 195.181 44.9426 196.874 44.397 198.016C45.519 200.105 47.0764 197.302 46.527 195.47Z" fill="#4395A1"/>
<path fill-rule="evenodd" clip-rule="evenodd" d="M45.5589 192.179C45.7385 194.203 42.1771 194.719 44.2983 191.455C44.6051 191.637 44.1956 191.315 45.5589 192.179Z" fill="#4395A1"/>
<path fill-rule="evenodd" clip-rule="evenodd" d="M48.3785 199.463C47.6628 200.242 45.4307 203.462 48.2689 202.723C48.1208 202.181 49.8609 199.69 48.3785 199.463Z" fill="#4395A1"/>
<path fill-rule="evenodd" clip-rule="evenodd" d="M45.7219 205.752C45.107 205.26 43.3462 206.841 43.7733 207.855C45.0755 209.073 46.1352 207.624 45.7219 205.752Z" fill="#4395A1"/>
<path fill-rule="evenodd" clip-rule="evenodd" d="M49.1963 205.297C48.5971 206.099 45.8484 209.678 48.8422 209.014C48.8567 208.414 50.4216 205.619 49.1963 205.297Z" fill="#4395A1"/>
<path fill-rule="evenodd" clip-rule="evenodd" d="M46.4292 212.416C46.8721 213.11 44.5411 216.563 43.5955 215.138C44.1763 214.662 45.132 212.13 46.4292 212.416Z" fill="#4395A1"/>
<path fill-rule="evenodd" clip-rule="evenodd" d="M42.9386 211.231C42.0238 211.087 38.4498 213.747 41.6068 214.056C41.9709 214.131 43.8571 211.803 42.9386 211.231Z" fill="#4395A1"/>
<path fill-rule="evenodd" clip-rule="evenodd" d="M33.6784 215.45C33.1819 215.738 32.8575 217.848 31.3625 217.174C29.6445 216.09 32.1481 215.342 33.6784 215.45Z" fill="#4395A1"/>
<path fill-rule="evenodd" clip-rule="evenodd" d="M24.2071 213.743C23.5614 214.583 22.5502 217.42 20.9941 215.093C21.65 214.873 23.0303 212.839 24.2071 213.743Z" fill="#4395A1"/>
<path fill-rule="evenodd" clip-rule="evenodd" d="M26.5165 208.333C26.4037 209.136 25.758 211.138 24.2472 211.254C21.7669 210.47 25.3611 209.022 26.5165 208.333Z" fill="#4395A1"/>
<path fill-rule="evenodd" clip-rule="evenodd" d="M19.4105 209.459C20.2075 208.475 23.6932 207.516 20.9962 210.174C20.53 211.144 18.9947 210.821 19.4105 209.459Z" fill="#4395A1"/>
<path fill-rule="evenodd" clip-rule="evenodd" d="M25.2807 204.254C24.0793 204.469 21.1599 207.172 24.378 206.723C24.4126 206.344 26.8992 204.51 25.2807 204.254Z" fill="#4395A1"/>
<path fill-rule="evenodd" clip-rule="evenodd" d="M30.5438 202.52C30.2269 203.166 28.7918 205.407 27.7769 203.77C28.301 202.937 28.7496 202.165 30.5438 202.52Z" fill="#4395A1"/>
<path fill-rule="evenodd" clip-rule="evenodd" d="M34.7157 204.015C34.2187 204.58 33.8306 205.525 32.6651 206.193C31.8347 206.091 30.4702 205.718 31.5242 204.885C32.5744 204.309 33.1647 202.753 34.7157 204.015" fill="#4395A1"/>
<path fill-rule="evenodd" clip-rule="evenodd" d="M36.0544 207.128C35.815 208.132 34.7793 209.388 32.7079 209.314C33.4223 208.777 34.6111 207.216 36.0544 207.128Z" fill="#4395A1"/>
<path fill-rule="evenodd" clip-rule="evenodd" d="M154.57 191.097C153.469 191.279 151.725 191.377 150.198 191.421C150.175 185.497 149.997 179.563 149.651 173.639C173.872 169.435 170.842 189.291 154.57 191.097V191.097ZM173.869 176.227C169.299 167.574 156.179 167.815 148.156 171.676C146.064 171.678 140.681 170.859 141.88 175.08C143.038 189.595 141.852 204.785 141.732 217.7C143.139 218.558 149.047 218.309 149.282 216.665C149.801 209.626 150.147 202.103 150.198 194.778C155.736 197.381 157.912 202.732 158.582 208.409C159.06 211.428 158.805 214.395 159.133 217.681C159.735 218.534 165.175 218.703 166.741 217.162C167.48 209.631 166.96 196.845 158.073 193.418C157.882 193.35 157.739 193.273 157.114 193.027C166.648 191.741 179.784 187.234 173.869 176.227" fill="#F5F5F7"/>
<path fill-rule="evenodd" clip-rule="evenodd" d="M170.01 184.415C169.857 186.36 167.041 187.872 165.392 185.854C166.063 184.993 166.86 183.44 167.042 181.683C168.374 181.325 170.036 182.669 170.01 184.415Z" fill="#4395A1"/>
<path fill-rule="evenodd" clip-rule="evenodd" d="M170.379 173.334C167.344 173.263 166.796 177.732 170.025 178.238C173.06 178.309 173.608 173.841 170.379 173.334Z" fill="#4395A1"/>
<path fill-rule="evenodd" clip-rule="evenodd" d="M160.237 172.255C160.271 173.56 159.059 173.371 157.463 173.244C153.588 172.746 159.703 167.368 160.237 172.255Z" fill="#4395A1"/>
<path fill-rule="evenodd" clip-rule="evenodd" d="M143.509 176.247C142.304 176.575 143.19 179.028 144.664 178.135C145.698 177.441 144.798 175.954 143.509 176.247Z" fill="#4395A1"/>
<path fill-rule="evenodd" clip-rule="evenodd" d="M147.141 181.986C143.469 181.902 142.552 186.92 146.055 188.193C150.477 189.348 151.534 182.438 147.141 181.986Z" fill="#4395A1"/>
<path fill-rule="evenodd" clip-rule="evenodd" d="M144.149 194.449C142.817 194.373 142.122 196.61 143.965 197.005C145.296 197.08 145.99 194.843 144.149 194.449Z" fill="#4395A1"/>
<path fill-rule="evenodd" clip-rule="evenodd" d="M149.841 207.518C148.229 210.189 143.692 208.167 145.511 204.896C147.714 202.198 150.641 204.683 149.841 207.518Z" fill="#4395A1"/>
<path fill-rule="evenodd" clip-rule="evenodd" d="M144.226 211.716C141.319 211.648 140.795 215.926 143.887 216.411C146.793 216.479 147.318 212.201 144.226 211.716Z" fill="#4395A1"/>
<path fill-rule="evenodd" clip-rule="evenodd" d="M160.851 201.07C160.824 202.36 159.222 203.845 157.549 203.491C157.246 202.519 156.62 201.012 155.786 199.665C156.948 197.392 160.91 198.043 160.851 201.07Z" fill="#4395A1"/>
<path fill-rule="evenodd" clip-rule="evenodd" d="M164.739 207.798C162.565 207.672 161.759 211.204 164.459 211.681C166.632 211.807 167.438 208.274 164.739 207.798Z" fill="#4395A1"/>
<path fill-rule="evenodd" clip-rule="evenodd" d="M163.774 217.502C163.831 217.873 163.543 218.527 161.972 218.337C154.421 218.606 163.255 211.481 163.774 217.502Z" fill="#4395A1"/>
<path fill-rule="evenodd" clip-rule="evenodd" d="M158.62 192.793C158.118 192.871 157.616 192.961 157.114 193.027C157.437 193.15 157.75 193.284 158.062 193.418C156.771 194.643 153.93 193.367 154.57 191.097C156.148 191.057 159.833 188.905 158.62 192.793" fill="#4395A1"/>
<path fill-rule="evenodd" clip-rule="evenodd" d="M175.297 182.34C174.28 180.674 170.925 182.92 173.332 184.667C174.596 185.794 175.065 183.166 175.297 182.34Z" fill="#4395A1"/>
<path fill-rule="evenodd" clip-rule="evenodd" d="M165.129 188.531C163.592 188.531 163.402 190.931 164.956 190.931C166.494 190.931 166.683 188.531 165.129 188.531Z" fill="#4395A1"/>
<path fill-rule="evenodd" clip-rule="evenodd" d="M164.174 171.462C163.271 172.129 164.916 173.787 165.54 172.158C165.55 171.715 164.973 171.058 164.174 171.462Z" fill="#4395A1"/>
<path fill-rule="evenodd" clip-rule="evenodd" d="M152.202 171.156C151.182 171.156 151.057 172.748 152.087 172.748C153.106 172.748 153.232 171.156 152.202 171.156Z" fill="#4395A1"/>
<path fill-rule="evenodd" clip-rule="evenodd" d="M148.46 175.501C146.653 175.409 147.232 178.961 149.304 177.257C149.76 176.52 149.518 175.916 148.46 175.501Z" fill="#4395A1"/>
<path fill-rule="evenodd" clip-rule="evenodd" d="M144.564 171.72C144.656 172.306 143.357 173.618 142.668 172.211C142.991 172.081 143.553 171.9 144.564 171.72Z" fill="#4395A1"/>
<path fill-rule="evenodd" clip-rule="evenodd" d="M145.492 190.777C144.813 190.183 143.839 191.726 145.141 192.007C145.581 191.964 145.95 191.418 145.492 190.777Z" fill="#4395A1"/>
<path fill-rule="evenodd" clip-rule="evenodd" d="M148.01 196.733C145.904 196.733 145.645 200.02 147.773 200.02C149.878 200.02 150.137 196.733 148.01 196.733Z" fill="#4395A1"/>
<path fill-rule="evenodd" clip-rule="evenodd" d="M144.234 201.606C143.549 201.606 143.465 202.676 144.157 202.676C144.842 202.676 144.927 201.606 144.234 201.606Z" fill="#4395A1"/>
<path fill-rule="evenodd" clip-rule="evenodd" d="M148.314 211.151C146.654 211.066 147.186 214.329 149.089 212.764C149.508 212.086 149.286 211.531 148.314 211.151Z" fill="#4395A1"/>
<path fill-rule="evenodd" clip-rule="evenodd" d="M160.84 210.222C159.938 210.222 159.827 211.631 160.739 211.631C161.641 211.631 161.753 210.222 160.84 210.222Z" fill="#4395A1"/>
<path fill-rule="evenodd" clip-rule="evenodd" d="M163.004 204.187C162.052 204.187 161.935 205.674 162.897 205.674C163.85 205.674 163.967 204.187 163.004 204.187Z" fill="#4395A1"/>
<path fill-rule="evenodd" clip-rule="evenodd" d="M161.68 196.587C160.727 196.587 160.61 198.074 161.573 198.074C162.525 198.074 162.642 196.587 161.68 196.587Z" fill="#4395A1"/>
<path fill-rule="evenodd" clip-rule="evenodd" d="M155.311 194.832C153.54 194.832 153.322 197.597 155.112 197.597C156.883 197.597 157.101 194.832 155.311 194.832Z" fill="#4395A1"/>
<path fill-rule="evenodd" clip-rule="evenodd" d="M44.2355 32.777C44.1939 30.6457 40.8625 30.4044 40.9047 32.5552C41.0767 41.3235 41.2487 50.0919 41.42 58.8602C41.4622 60.9921 44.7931 61.2328 44.7508 59.082C44.5789 50.3136 44.4069 41.5453 44.2355 32.777Z" fill="#F5F5F7"/>
<path fill-rule="evenodd" clip-rule="evenodd" d="M55.9733 58.5722C53.3368 57.3273 52.943 59.0976 53.263 61.4494C52.5688 63.5719 51.4783 64.835 49.8232 65.3447C44.3662 66.1479 39.5895 61.663 33.6707 61.8816C24.9685 62.0819 21.0178 68.7782 28.1368 73.9417C29.4301 74.8407 31.0165 73.391 30.6271 71.9735C23.212 65.7964 34.7763 64.675 39.1844 66.3079C52.6715 73.0256 60.4123 63.7445 55.9733 58.5722Z" fill="#F5F5F7"/>
<path fill-rule="evenodd" clip-rule="evenodd" d="M52.312 30.6439C51.2354 29.2327 49.0959 30.6427 49.547 32.3632C51.1396 34.9884 49.8544 35.7129 46.8632 36.0506C43.2778 36.2597 43.1373 36.1022 40.9556 35.9069C25.4992 32.745 20.7144 55.0911 34.9606 49.4488C36.5047 48.9656 36.5047 46.6648 35.1956 46.1583C26.9879 47.3912 30.4195 41.3231 34.9921 39.4822C38.767 38.0559 42.8948 39.9459 46.8928 39.6479C51.6486 39.457 55.4186 34.9449 52.312 30.6439Z" fill="#F5F5F7"/>
<path fill-rule="evenodd" clip-rule="evenodd" d="M82.0931 43.8115C81.9948 43.991 82.0597 43.9942 81.9482 44.8264C83.607 44.4333 85.8422 45.1131 85.6293 42.3392C84.3913 42.7518 83.2088 43.2313 82.0931 43.8115V43.8115ZM149.996 48.5636C155.819 41.3652 163.338 51.9725 148.502 52.5351C148.743 51.5032 149.255 49.8828 149.996 48.5636ZM85.1833 52.479C83.7613 20.2426 102.265 33.0341 85.3061 53.9299C85.274 53.5702 85.2532 53.3831 85.1833 52.479ZM106.847 51.5536C104.784 50.1556 108.775 47.9834 109.257 51.9328C108.442 51.8881 107.65 51.7652 106.847 51.5536ZM121.182 47.1807C120.192 41.386 125.691 46.3309 121.327 48.3853C121.308 48.0104 121.298 47.9714 121.182 47.1807ZM166.373 63.3113C163.929 61.8144 160.794 66.3932 157.437 65.9654C152.473 67.2689 144.966 60.623 148.693 56.1236C153.784 55.6542 158.094 54.4673 160.846 50.5708C166.386 38.0747 149.008 35.9384 145.267 52.4683C144.609 52.4249 144.45 52.4608 143.08 52.2226C147.471 45.3581 138.792 34.8434 135.345 46.5501C134.344 49.6856 136.445 51.6203 137.624 54.2928C135.955 57.1725 131.524 61.6959 127.819 61.1371C124.13 60.5304 122.719 55.6448 121.796 52.2453C124 50.3225 128.074 47.3767 125.563 43.3781C121.217 37.8674 116.576 44.0339 117.9 49.7562C118.062 51.2701 114.316 51.1636 113.139 51.6203C109.062 33.9482 90.8211 53.3478 109.413 55.3796C108.654 62.7146 99.3072 66.7378 98.9292 57.3578C99.7911 55.5818 99.7356 52.1735 96.9076 53.5393C95.2507 56.1545 94.9577 59.845 90.8318 60.5708C80.7657 60.0768 90.3316 54.7766 92.3974 49.724C94.9489 44.8441 98.8498 31.4238 91.809 28.0237C82.4106 26.5287 81.7945 43.9671 81.7586 51.2852C82.3961 57.1933 83.4079 56.69 75.8788 59.9867C72.3035 65.4791 81.5022 61.7022 83.4432 59.719C85.6098 66.111 91.6836 65.8457 95.8479 61.2808C98.3452 69.0562 108.502 66.6937 111.298 60.2154C113.357 53.8701 113.276 55.2693 118.627 53.4833C122.15 67.1498 129.995 68.7324 139.349 57.9909C141.301 55.7443 140.405 55.0929 144.497 56.0379C143.569 62.1653 148.171 68.1774 154.749 69.0115C157.984 69.993 168.889 67.1001 166.373 63.3113V63.3113ZM82.0931 43.8115C81.9948 43.991 82.0597 43.9942 81.9482 44.8264C83.607 44.4333 85.8422 45.1131 85.6293 42.3392C84.3913 42.7518 83.2088 43.2313 82.0931 43.8115V43.8115ZM82.0931 43.8115C81.9948 43.991 82.0597 43.9942 81.9482 44.8264C83.607 44.4333 85.8422 45.1131 85.6293 42.3392C84.3913 42.7518 83.2088 43.2313 82.0931 43.8115" fill="#F5F5F7"/>
<path fill-rule="evenodd" clip-rule="evenodd" d="M94.6876 30.6815C91.3857 31.3505 88.0726 32.0423 84.748 32.6112C85.0322 31.1464 94.8293 28.9509 94.6876 30.6815Z" fill="#4395A1"/>
<path fill-rule="evenodd" clip-rule="evenodd" d="M86.89 37.0959C86.9738 38.9071 84.525 39.328 82.6066 39.8956C82.3042 37.9256 84.9679 37.7498 86.89 37.0959Z" fill="#4395A1"/>
<path fill-rule="evenodd" clip-rule="evenodd" d="M95.6359 34.9093C94.5762 35.3333 93.5165 35.7793 92.4676 36.2147C91.7544 34.7235 94.0306 34.6126 95.5357 33.7936C95.5804 34.1615 95.6138 34.53 95.6359 34.9093Z" fill="#4395A1"/>
<path fill-rule="evenodd" clip-rule="evenodd" d="M81.9481 44.8266C82.9076 44.7264 84.3132 44.4587 85.3501 44.2911C85.456 45.6298 83.508 45.1907 81.8927 45.3734C81.9148 45.1832 81.9255 45.0049 81.9481 44.8266Z" fill="#4395A1"/>
<path fill-rule="evenodd" clip-rule="evenodd" d="M85.7967 41.4687C85.769 42.8578 83.479 42.8969 82.0596 43.8337C81.8258 42.1894 83.9855 42.1144 85.7967 41.4687Z" fill="#4395A1"/>
<path fill-rule="evenodd" clip-rule="evenodd" d="M91.2853 43.5325C92.4791 43.3876 93.661 43.2427 94.8555 43.1312C94.7988 44.4687 92.6303 43.93 90.9728 44.4472C91.0736 44.1461 91.1851 43.845 91.2853 43.5325Z" fill="#4395A1"/>
<path fill-rule="evenodd" clip-rule="evenodd" d="M95.4796 39.1932C95.472 40.37 93.6072 40.072 92.0996 40.5987C92.1387 39.3765 93.9562 39.626 95.4796 39.1932Z" fill="#4395A1"/>
<path fill-rule="evenodd" clip-rule="evenodd" d="M85.0717 49.3446C84.0227 49.6457 82.8629 49.9802 81.7251 50.3374C81.7881 49.2942 83.6472 49.3118 85.0603 48.5634C85.0603 48.8204 85.0603 49.0881 85.0717 49.3446" fill="#4395A1"/>
<path fill-rule="evenodd" clip-rule="evenodd" d="M85.2947 53.8069C84.2237 54.052 83.142 54.2756 82.071 54.4986C81.2961 52.7825 83.4097 52.9066 85.1832 52.4795C85.2166 52.9029 85.25 53.3495 85.2947 53.8069" fill="#4395A1"/>
<path fill-rule="evenodd" clip-rule="evenodd" d="M86.9346 52.1224C88.4737 51.7986 90.0134 51.4867 91.5531 51.1963C90.954 53.1644 87.6137 53.1461 85.4509 53.7736C85.9751 53.2488 86.4659 52.6913 86.9346 52.1224" fill="#4395A1"/>
<path fill-rule="evenodd" clip-rule="evenodd" d="M94.4423 44.6703C94.3169 46.4539 91.3162 46.8476 89.6121 47.7605C89.8307 46.0771 92.4156 45.8125 94.4423 44.6703Z" fill="#4395A1"/>
<path fill-rule="evenodd" clip-rule="evenodd" d="M144.263 46.6339C144.738 48.5201 141.076 48.1667 139.421 48.8534C140.633 48.7236 142.447 48.5598 144.229 48.2625C144.397 49.7461 143.023 49.5565 141.173 49.7801C128.2 51.2802 139.473 47.2677 144.263 46.6339" fill="#4395A1"/>
<path fill-rule="evenodd" clip-rule="evenodd" d="M147.096 47.7939C148.435 47.5822 149.774 47.3592 151.101 47.1582C150.315 48.6664 148.666 48.9058 146.483 49.0992C146.672 48.6526 146.873 48.2179 147.096 47.7939Z" fill="#4395A1"/>
<path fill-rule="evenodd" clip-rule="evenodd" d="M159.055 46.8234C158.124 46.9153 157.145 47.7621 155.92 46.5109C156.211 46.5764 160.932 45.6409 159.055 46.8234Z" fill="#4395A1"/>
<path fill-rule="evenodd" clip-rule="evenodd" d="M161.186 43.3766C156.679 44.6926 152.128 45.8531 147.554 46.9348C148.569 44.5043 153.236 44.726 155.853 43.6884C157.779 43.7073 159.91 41.479 161.186 43.3766Z" fill="#4395A1"/>
<path fill-rule="evenodd" clip-rule="evenodd" d="M143.214 43.5103C140.726 44.0906 138.239 44.6261 135.751 45.0942C135.89 43.5248 142.306 40.8694 143.214 43.5103Z" fill="#4395A1"/>
<path fill-rule="evenodd" clip-rule="evenodd" d="M135.673 56.8969C137.502 56.5063 139.321 56.083 141.15 55.6363C140.282 57.5395 136.716 57.4123 134.535 58.0794C134.937 57.7002 135.316 57.2982 135.673 56.8969" fill="#4395A1"/>
<path fill-rule="evenodd" clip-rule="evenodd" d="M160.427 51.163C158.861 53.0007 154.744 52.784 152.147 53.7794C148.255 54.3634 145.541 56.4852 141.641 55.5137C147.888 53.9854 154.146 52.2453 160.427 51.163Z" fill="#4395A1"/>
<path fill-rule="evenodd" clip-rule="evenodd" d="M148.424 61.3924C147.751 61.1398 145.206 63.2264 144.966 61.2028C145.706 61.5159 148.066 59.5132 148.424 61.3924Z" fill="#4395A1"/>
<path fill-rule="evenodd" clip-rule="evenodd" d="M150.22 63.7798C149.42 63.6986 147.334 65.8765 146.493 64.1925C147.431 64.3399 149.08 62.2804 150.22 63.7798Z" fill="#4395A1"/>
<path fill-rule="evenodd" clip-rule="evenodd" d="M152.161 65.0961C151 64.9544 148.619 66.8702 147.397 65.2858C148.562 65.3192 150.594 63.7977 152.161 65.0961Z" fill="#4395A1"/>
<path fill-rule="evenodd" clip-rule="evenodd" d="M166.373 63.3114C162.947 64.8404 158.625 67.0781 154.749 69.0116C154.325 68.9499 153.717 68.8289 152.808 68.5656C154.597 66.6334 158.388 65.9252 161.402 64.9084C163.251 64.4277 164.304 61.8384 166.373 63.3114" fill="#4395A1"/>
<path fill-rule="evenodd" clip-rule="evenodd" d="M138.317 59.1392C135.721 60.9876 124.156 64.5389 123.179 62.8536C128.198 61.5262 133.252 60.2883 138.317 59.1392Z" fill="#4395A1"/>
<path fill-rule="evenodd" clip-rule="evenodd" d="M123.982 58.0794C123.129 57.9125 120.471 60.0488 120.089 57.8451C120.905 58.0737 123.438 56.2083 123.982 58.0794Z" fill="#4395A1"/>
<path fill-rule="evenodd" clip-rule="evenodd" d="M106.501 51.4752C106.613 51.5086 106.724 51.5313 106.836 51.5533C105.752 51.2912 102.637 53.4175 101.805 51.4865C103.288 51.174 104.761 50.8616 106.233 50.5604C106.233 50.8282 106.312 51.1407 106.501 51.4752Z" fill="#4395A1"/>
<path fill-rule="evenodd" clip-rule="evenodd" d="M112.637 49.2219C113.861 50.5108 108.933 52.0657 108.42 50.1032C109.403 49.9174 111.086 49.4846 112.637 49.2219Z" fill="#4395A1"/>
<path fill-rule="evenodd" clip-rule="evenodd" d="M121.182 47.1805C121.775 48.7518 119.478 48.518 117.835 49.1436C117.278 47.5239 119.5 47.7444 121.182 47.1805Z" fill="#4395A1"/>
<path fill-rule="evenodd" clip-rule="evenodd" d="M126.291 45.7861C126.371 47.2086 123.804 47.1916 122.175 47.9054C122.76 46.5673 124.354 46.2781 126.291 45.7861Z" fill="#4395A1"/>
<path fill-rule="evenodd" clip-rule="evenodd" d="M107.829 44.5255C108.298 44.6483 108.755 44.8379 109.179 45.083C106.869 45.507 104.56 45.9196 102.251 46.3436C103.101 44.8108 105.795 44.8745 107.829 44.5255" fill="#4395A1"/>
<path fill-rule="evenodd" clip-rule="evenodd" d="M124.227 42.0267C122.409 42.4614 120.58 42.8633 118.75 43.2313C119.631 42.2667 122.432 41.3734 124.227 42.0267Z" fill="#4395A1"/>
<path fill-rule="evenodd" clip-rule="evenodd" d="M121.74 52.0218C121.751 52.0999 121.773 52.1667 121.796 52.2448C117.579 53.1822 113.496 54.4536 109.357 55.6254C109.38 55.5472 109.39 55.4578 109.413 55.3797C108.733 55.3683 108.052 55.3242 107.405 55.2121C112.28 53.2711 117.601 52.1893 122.777 51.3748C122.443 51.6091 122.097 51.8214 121.74 52.0218Z" fill="#4395A1"/>
<path fill-rule="evenodd" clip-rule="evenodd" d="M112.514 57.1199C112.354 58.7693 109.776 58.7056 108.007 59.3514C108.196 57.6699 110.638 57.8419 112.514 57.1199Z" fill="#4395A1"/>
<path fill-rule="evenodd" clip-rule="evenodd" d="M110.16 62.0618C108.699 63.9222 98.7818 66.1127 97.4985 64.2038C101.671 63.3338 105.932 62.5305 110.16 62.0618" fill="#4395A1"/>
<path fill-rule="evenodd" clip-rule="evenodd" d="M99.1277 59.5631C94.3938 60.2296 85.2714 63.5283 84.0675 61.1135C88.8158 60.7563 93.8249 59.7143 98.9494 58.7485C98.9941 59.0276 99.0495 59.2953 99.1277 59.5631" fill="#4395A1"/>
<path fill-rule="evenodd" clip-rule="evenodd" d="M87.6486 56.194C85.7283 58.0702 81.3631 57.907 78.501 58.8155C80.682 57.151 84.4942 56.7276 87.6486 56.194Z" fill="#4395A1"/>
<path fill-rule="evenodd" clip-rule="evenodd" d="M145.077 52.4571C142.992 52.3758 139.565 54.3887 137.291 53.3498C139.231 52.9031 141.173 52.5018 143.125 52.1112C143.113 52.1446 143.091 52.1893 143.081 52.2227C143.465 52.2977 143.898 52.3777 145.077 52.4571" fill="#4395A1"/>
<path fill-rule="evenodd" clip-rule="evenodd" d="M148.937 51.0067C148.23 51.5623 145.635 50.674 145.278 52.4235C145.735 52.3341 146.204 52.2559 146.661 52.1778C131.813 57.4024 149.299 54.4181 148.937 51.0067" fill="#4395A1"/>
</svg>
