<svg width="159" height="183" viewBox="0 0 159 183" fill="none" xmlns="http://www.w3.org/2000/svg">
<path fill-rule="evenodd" clip-rule="evenodd" d="M7.56485 104.314C-0.133755 104.421 4.481 88.6382 11.2138 89.7287C18.3624 90.9056 14.5553 104.314 7.56485 104.314ZM30.9756 101.86C28.5086 97.5962 23.8226 110.86 18.954 101.382C16.2903 97.1791 20.11 92.0213 17.7085 87.5949C13.1895 85.5335 7.68581 85.9884 4.0526 90.2573C-4.97467 100.337 5.55703 115.367 15.5551 102.167C16.5083 110.49 29.5833 108.25 30.9756 101.86" fill="#4395A1"/>
<path fill-rule="evenodd" clip-rule="evenodd" d="M71.5762 100.45C71.3431 95.5066 65.5736 102.212 63.3843 103.245C63.402 102.816 63.5506 100.722 63.6647 98.312C59.3674 98.5967 61.7318 98.46 59.4065 103C61.8345 103.395 65.4488 105.766 68.2032 103.368C68.1541 104.741 71.0665 103.363 72.7682 103.035C72.3297 102.343 71.9271 101.475 71.5762 100.45V100.45ZM71.5762 100.45C71.3431 95.5066 65.5736 102.212 63.3843 103.245C63.402 102.816 63.5506 100.722 63.6647 98.312C59.3674 98.5967 61.7318 98.46 59.4065 103C61.8345 103.395 65.4488 105.766 68.2032 103.368C68.1541 104.741 71.0665 103.363 72.7682 103.035C72.3297 102.343 71.9271 101.475 71.5762 100.45V100.45ZM71.5762 100.45C71.3431 95.5066 65.5736 102.212 63.3843 103.245C63.402 102.816 63.5506 100.722 63.6647 98.312C59.3674 98.5967 61.7318 98.46 59.4065 103C61.8345 103.395 65.4488 105.766 68.2032 103.368C68.1541 104.741 71.0665 103.363 72.7682 103.035C72.3297 102.343 71.9271 101.475 71.5762 100.45V100.45ZM71.5762 100.45C71.3431 95.5066 65.5736 102.212 63.3843 103.245C63.402 102.816 63.5506 100.722 63.6647 98.312C59.3674 98.5967 61.7318 98.46 59.4065 103C61.8345 103.395 65.4488 105.766 68.2032 103.368C68.1541 104.741 71.0665 103.363 72.7682 103.035C72.3297 102.343 71.9271 101.475 71.5762 100.45V100.45ZM71.5762 100.45C71.3431 95.5066 65.5736 102.212 63.3843 103.245C63.402 102.816 63.5506 100.722 63.6647 98.312C59.3674 98.5967 61.7318 98.46 59.4065 103C61.8345 103.395 65.4488 105.766 68.2032 103.368C68.1541 104.741 71.0665 103.363 72.7682 103.035C72.3297 102.343 71.9271 101.475 71.5762 100.45V100.45ZM71.5762 100.45C71.3431 95.5066 65.5736 102.212 63.3843 103.245C63.402 102.816 63.5506 100.722 63.6647 98.312C59.3674 98.5967 61.7318 98.46 59.4065 103C61.8345 103.395 65.4488 105.766 68.2032 103.368C68.1541 104.741 71.0665 103.363 72.7682 103.035C72.3297 102.343 71.9271 101.475 71.5762 100.45V100.45ZM126.432 95.4291C125.904 93.5114 125.281 91.9603 127.221 89.6911C126.856 91.2938 126.462 93.3066 126.432 95.4291ZM119.738 90.0943C121.051 90.2631 121.614 91.6245 121.43 92.7132C120.009 98.1872 109.942 90.4288 119.738 90.0943ZM74.5555 92.7484C76.5053 81.3574 93.836 100.924 78.6864 96.6582C76.7265 95.9999 75.0009 95.2174 74.5555 92.7484ZM102.163 97.1206C99.0864 97.2945 94.7615 93.5656 97.8699 90.7923C100.701 89.2664 104.177 94.7317 102.163 97.1206ZM49.3309 104.629C42.5521 96.5007 51.8786 84.9049 60.6602 89.1474C60.3805 93.1397 61.3614 97.2555 60.0466 101.86C58.4451 105.573 52.7625 109.025 49.3309 104.629ZM59.7574 112.733C57.5373 142.855 36.6087 125.115 59.9584 109.816C59.9206 110.397 59.8626 111.202 59.7574 112.733ZM145.97 95.9816C144.399 94.1546 143.542 95.9829 141.73 97.9787C130.564 111.345 127.45 98.2345 130.62 87.4917C130.813 85.9608 135.429 73.2594 132.008 71.9755C130.165 71.9339 130.473 72.746 129.96 74.6309C128.598 80.2795 126.88 84.537 124.04 90.0155C121.24 85.6345 112.018 85.4499 110.842 91.3807C109.359 98.5186 120.093 101.311 123.62 95.3686C126.146 104.01 110.678 108.668 109.137 100.249C112.197 95.1141 110.993 94.5502 105.413 96.8749C106.768 90.8906 100.558 83.8125 95.1168 88.1255C91.2316 92.5027 95.8558 99.6129 101.55 99.6526C100.425 102.573 95.6208 104.165 92.5747 102.642C87.2166 101.275 96.058 92.0857 87.7061 96.1221C88.2492 89.5222 79.3019 83.9984 73.5248 87.8143C66.6685 94.2031 76.7435 101.737 84.1756 99.8101C81.7545 105.26 72.4576 108.642 71.4017 99.1285C68.8124 97.2511 65.9969 102.192 63.3843 103.245C63.3585 99.7591 64.2733 92.7982 63.9129 88.5842C59.8544 82.007 50.1247 86.2229 46.2212 91.0462C41.2751 97.3607 45.939 111.497 55.3147 109.413C30.8814 130.691 61.5806 148.057 62.9194 109.832C62.6 106.139 65.5509 105.859 68.2032 103.368C69.5048 108.457 78.5428 109.107 82.5848 105.967C85.5685 104.473 85.7701 101.121 87.9694 98.9955C87.5486 106.3 97.2367 108.841 101.961 103.761C103.75 102.607 103.691 99.2009 106.666 99.337C105.985 112.482 126.643 108.808 126.502 97.1206C127.847 107.049 135.003 110.059 142.325 101.405C143.319 99.727 146.556 98.4726 145.97 95.9816V95.9816ZM71.5762 100.45C71.3431 95.5066 65.5736 102.212 63.3843 103.245C63.402 102.816 63.5506 100.722 63.6647 98.312C59.3674 98.5967 61.7318 98.46 59.4065 103C61.8345 103.395 65.4488 105.766 68.2032 103.368C68.1541 104.741 71.0665 103.363 72.7682 103.035C72.3297 102.343 71.9271 101.475 71.5762 100.45V100.45ZM71.5762 100.45C71.3431 95.5066 65.5736 102.212 63.3843 103.245C63.402 102.816 63.5506 100.722 63.6647 98.312C59.3674 98.5967 61.7318 98.46 59.4065 103C61.8345 103.395 65.4488 105.766 68.2032 103.368C68.1541 104.741 71.0665 103.363 72.7682 103.035C72.3297 102.343 71.9271 101.475 71.5762 100.45V100.45ZM71.5762 100.45C71.3431 95.5066 65.5736 102.212 63.3843 103.245C63.402 102.816 63.5506 100.722 63.6647 98.312C59.3674 98.5967 61.7318 98.46 59.4065 103C61.8345 103.395 65.4488 105.766 68.2032 103.368C68.1541 104.741 71.0665 103.363 72.7682 103.035C72.3297 102.343 71.9271 101.475 71.5762 100.45V100.45ZM71.5762 100.45C71.3431 95.5066 65.5736 102.212 63.3843 103.245C63.402 102.816 63.5506 100.722 63.6647 98.312C59.3674 98.5967 61.7318 98.46 59.4065 103C61.8345 103.395 65.4488 105.766 68.2032 103.368C68.1541 104.741 71.0665 103.363 72.7682 103.035C72.3297 102.343 71.9271 101.475 71.5762 100.45V100.45ZM71.5762 100.45C71.3431 95.5066 65.5736 102.212 63.3843 103.245C63.402 102.816 63.5506 100.722 63.6647 98.312C59.3674 98.5967 61.7318 98.46 59.4065 103C61.8345 103.395 65.4488 105.766 68.2032 103.368C68.1541 104.741 71.0665 103.363 72.7682 103.035C72.3297 102.343 71.9271 101.475 71.5762 100.45V100.45ZM71.5762 100.45C71.3431 95.5066 65.5736 102.212 63.3843 103.245C63.402 102.816 63.5506 100.722 63.6647 98.312C59.3674 98.5967 61.7318 98.46 59.4065 103C61.8345 103.395 65.4488 105.766 68.2032 103.368C68.1541 104.741 71.0665 103.363 72.7682 103.035C72.3297 102.343 71.9271 101.475 71.5762 100.45V100.45ZM71.5762 100.45C71.3431 95.5066 65.5736 102.212 63.3843 103.245C63.402 102.816 63.5506 100.722 63.6647 98.312C59.3674 98.5967 61.7318 98.46 59.4065 103C61.8345 103.395 65.4488 105.766 68.2032 103.368C68.1541 104.741 71.0665 103.363 72.7682 103.035C72.3297 102.343 71.9271 101.475 71.5762 100.45" fill="#4395A1"/>
<path fill-rule="evenodd" clip-rule="evenodd" d="M37.874 134.206C37.2944 135.242 32.6059 134.063 32.9782 134.295C29.9309 141.075 28.6968 136.643 28.9765 133.422C21.3314 132.791 25.5946 130.359 28.4857 129.269C27.072 121.778 30.0582 125.419 32.2361 127.625C39.0703 122.969 35.9682 128.655 35.078 130.69C35.5266 131.029 38.2551 133.171 37.874 134.206Z" fill="#F4B955"/>
<path fill-rule="evenodd" clip-rule="evenodd" d="M77.755 131.281C75.4473 121.578 81.9426 127.406 77.8357 132.279C77.8073 131.947 77.7941 131.613 77.755 131.281ZM55.5318 153.285C47.7903 152.117 49.4302 141.322 56.037 141.128C66.3879 141.486 66.2739 155.489 55.5318 153.285ZM55.5645 178.332C53.2386 172.553 57.7979 166.149 61.6012 161.838C60.837 166.759 62.8977 180.512 55.5645 178.332ZM116.273 147.736C113.536 155.945 104.752 154.112 104.96 146.645C104.967 136.534 102.769 130.828 112.214 132.501C113.026 132.662 113.937 132.848 114.371 132.003C115.503 128.116 107.11 129.435 105.345 130.054C105.331 127.488 105.501 115.656 101.622 119.574C101.08 123.241 101.451 127.595 100.949 131.57C101.078 133.709 98.1475 133.392 96.8377 135.123C96.2518 137.556 98.8336 137.495 100.52 136.144C99.7042 143.104 97.6756 162.27 89.4548 157.569C86.0628 153.354 89.3162 149.17 88.3006 145.171C86.9014 139.792 80.9447 138.794 77.3588 143.098C77.6845 137.813 81.7612 132.809 82.1134 126.975C82.8511 122.213 77.7279 118.172 74.5773 122.249C73.4162 123.745 73.7696 125.678 74.1747 127.666C77.2907 138.709 72.3572 148.175 64.7172 155.152C73.2776 135.781 42.9438 131.462 48.3788 151.245C47.5144 152.424 45.8033 153.736 44.1313 154.229C33.8295 156.294 33.444 146.699 34.8312 140.081C33.5265 137.58 31.491 139.993 31.2894 142.363C31.9358 153.892 25.661 160.392 21.9969 152.427C21.52 150.898 21.9477 148.676 22.6029 147.164C26.6866 132.682 12.2823 142.058 9.54934 149.092C9.68227 147.154 11.3266 139.078 7.33174 142.584C6.88318 148.775 4.84702 157.593 6.60661 159.458C9.50524 160.412 8.94832 155.751 10.3079 153.88C12.0832 150.113 13.335 147.811 17.1408 144.038C23.2644 140.126 18.7051 149.327 19.0825 152.379C20.442 161.385 30.7419 159.653 33.032 152.695C36.1019 157.879 44.394 158.941 48.9533 154.871C51.1174 158.036 59.6362 157.869 61.8211 155.701C62.2035 157.499 61.0443 158.741 59.3452 160.2C39.8542 180.962 63.7111 190.881 63.8654 172.536C64.1571 151.583 66.4869 160.961 73.5662 148.874C72.8555 151.602 70.488 168.116 75.0668 160.792C75.5973 156.913 76.1964 149.827 78.6232 146.246C90.1591 139.327 83.1378 152.689 86.1725 157.789C93.5781 167.753 101.505 154.433 101.735 146.703C106.515 172.302 125.442 143.663 116.273 147.736" fill="#F5F5F7"/>
<path fill-rule="evenodd" clip-rule="evenodd" d="M149.599 40.7503C151.369 47.2897 138.787 57.0049 135.354 54.0011C133.581 48.2668 146.758 34.1152 149.599 40.7503ZM122.053 44.8025C121.649 42.6359 121.347 39.1432 122.615 37.0415C127.653 34.2456 124.014 42.8218 122.053 44.8025ZM99.7473 36.0102C102.325 34.8768 99.4058 44.0143 98.4419 45.2239C98.8092 43.2067 98.6536 37.7931 99.7473 36.0102ZM70.8549 56.9665C66.7265 67.1813 52.9818 76.8594 56.1765 58.8137C57.7099 52.0676 58.5258 39.518 66.7372 40.0113C74.6481 41.4666 71.1907 51.1592 70.8549 56.9665ZM80.0743 36.0493C80.0844 36.019 80.0938 35.9888 80.1033 35.9598L80.0743 36.0493ZM32.4583 22.6126C34.2695 17.8605 35.7645 12.7903 37.841 7.35716C39.1753 4.52846 40.744 5.79539 41.1831 7.35716C42.9553 14.1492 34.3168 34.0591 28.1138 38.3916C29.1659 33.0379 30.7031 27.7622 32.4583 22.6126V22.6126ZM158.051 70.5027C151.718 61.2682 140.722 72.2194 136.905 59.8614C143.364 60.0737 149.576 55.6271 152.941 49.7826C158.747 41.0886 152.81 31.7067 143.246 34.2815C134.655 36.6982 130.583 51.5372 131.076 54.318C128.901 53.4265 122.359 50.7094 125.16 48.1528C129.846 42.4753 132.69 28.1302 121.852 31.3646C112.284 38.5894 120.928 47.7055 117.905 50.4756C113.53 55.2876 102.96 78.9611 99.2017 62.7398C96.62 51.3847 100.042 51.9045 102.99 46.0222C105.155 41.3791 107.781 29.0689 99.6591 30.2936C89.0908 30.1877 90.72 45.7223 91.9756 53.8064C88.6007 59.1854 76.7466 74.185 75.571 65.1748C74.7961 58.3349 78.1282 43.7535 81.9057 37.9915C82.6239 36.6093 84.9045 37.2488 84.7048 35.0482C84.2814 33.751 82.7398 34.107 81.0483 33.4927C74.9694 31.6027 75.7298 36.3876 74.1876 40.1814C64.8705 25.5553 55.1773 37.8435 51.5895 48.4514C48.7305 54.7514 49.5634 60.5556 48.1597 62.9358C47.2935 64.7376 45.6561 67.0566 42.5905 69.2584C26.7479 80.555 27.044 59.4267 26.6667 51.946C27.1329 49.8418 25.8911 47.2343 27.6419 45.8174C31.6285 43.7913 34.9801 40.7932 38.0149 37.1675C45.1994 28.098 57.6223 6.68873 43.4133 0.512213C32.7121 -3.65524 28.3588 24.0055 25.796 29.249C23.6509 33.9488 24.8138 40.8851 21.6418 41.5794C17.1826 42.3448 10.7655 41.9473 12.1987 35.7991C12.1042 24.9657 14.8731 11.7432 11.0527 2.8703C-1.53718 2.20124 6.72653 12.1464 6.48524 17.4132C8.88302 33.3566 6.10409 49.0588 4.43648 65.0059C3.76994 70.6804 0.963291 82.2661 9.16652 73.9179C10.7774 64.546 11.3589 55.0267 12.0022 45.5484C15.7229 46.8689 19.244 46.8701 22.4438 45.881C19.9811 68.2051 28.1724 88.6139 49.6825 69.1658C54.3199 78.4344 66.8752 71.5592 71.2417 65.2088C74.6197 81.367 88.7122 66.4411 93.0498 59.6106C100.797 92.0424 115.584 59.9628 121.538 53.0845C123.996 56.1752 128.083 58.0785 132.141 59.3536C133.526 64.1914 136.525 69.879 142.277 70.7093C145.719 71.5189 149.296 69.7165 152.63 71.1302C154.882 73.9116 158.938 75.1483 158.051 70.5027" fill="#F5F5F7"/>
<path fill-rule="evenodd" clip-rule="evenodd" d="M18.5081 90.1549C15.8773 90.376 12.6976 90.2317 9.83367 89.6748C7.75593 90.5593 6.23574 90.8882 3.56958 90.8561C5.39784 88.4721 10.3301 89.809 13.4158 89.162C15.2208 89.562 19.0317 87.3652 18.5081 90.1549" fill="#F5F5F7"/>
<path fill-rule="evenodd" clip-rule="evenodd" d="M0.713307 98.61C1.7295 98.4431 2.7375 98.2686 3.72723 98.067C4.09704 99.635 2.52204 99.8253 0.739767 100.196C0.686847 99.6703 0.678027 99.1449 0.713307 98.61" fill="#F5F5F7"/>
<path fill-rule="evenodd" clip-rule="evenodd" d="M18.105 94.9826C18.4383 96.5652 16.3562 96.3768 14.6791 96.9104C14.4334 95.3026 16.4009 95.4173 18.105 94.9826Z" fill="#F5F5F7"/>
<path fill-rule="evenodd" clip-rule="evenodd" d="M8.90537 104.077C10.9378 103.709 12.9708 103.341 15.0031 102.964C13.6423 105.636 4.38197 107.163 2.70239 105.19C4.43048 104.885 6.6065 104.483 8.90537 104.077" fill="#F5F5F7"/>
<path fill-rule="evenodd" clip-rule="evenodd" d="M20.637 103.797C19.2226 103.548 15.9806 105.973 15.7129 102.841C17.3074 102.681 19.4438 101.376 20.637 103.797Z" fill="#F5F5F7"/>
<path fill-rule="evenodd" clip-rule="evenodd" d="M30.9757 101.86C29.7579 102.114 28.5313 102.36 27.3047 102.597C28.0393 101.783 29.9885 99.6774 30.9757 101.86Z" fill="#F5F5F7"/>
<path fill-rule="evenodd" clip-rule="evenodd" d="M46.5623 90.5935C48.2621 90.3478 49.9795 90.155 51.7057 90.0057C50.28 91.2985 48.4309 91.5518 45.9141 91.5133C46.1068 91.1977 46.3261 90.8915 46.5623 90.5935Z" fill="#F5F5F7"/>
<path fill-rule="evenodd" clip-rule="evenodd" d="M64.2606 89.2787C64.7533 90.8096 62.2692 90.0726 60.6595 90.4354C60.2292 88.7855 62.5691 89.5282 64.2606 89.2787Z" fill="#F5F5F7"/>
<path fill-rule="evenodd" clip-rule="evenodd" d="M85.0954 89.5507C80.9696 89.4959 76.5268 89.4745 71.8831 89.7699C72.4942 88.1672 75.2769 89.1198 77.2828 88.7985C80.201 89.2168 82.8211 87.609 85.0954 89.5507Z" fill="#F5F5F7"/>
<path fill-rule="evenodd" clip-rule="evenodd" d="M103.582 89.2615C100.691 89.3881 97.6206 89.4581 94.1985 89.4889C94.2583 88.1911 102.89 87.7029 103.582 89.2615Z" fill="#F5F5F7"/>
<path fill-rule="evenodd" clip-rule="evenodd" d="M120.781 87.3955C121.254 87.5354 121.675 87.7634 122.06 88.0432C118.766 88.2889 115.471 88.5428 112.177 88.762C114.056 87.0238 117.862 87.1914 120.781 87.3955" fill="#F5F5F7"/>
<path fill-rule="evenodd" clip-rule="evenodd" d="M130.979 86.1687C130.971 88.4367 127.23 87.3859 125.162 87.8243C125.565 85.8146 128.941 86.6129 130.979 86.1687Z" fill="#F5F5F7"/>
<path fill-rule="evenodd" clip-rule="evenodd" d="M132.171 81.7876C132.33 84.1343 128.83 83.9283 126.677 84.4601C126.962 81.8884 129.596 82.1202 132.171 81.7876Z" fill="#F5F5F7"/>
<path fill-rule="evenodd" clip-rule="evenodd" d="M133.126 76.2942C133.298 77.839 131.052 77.2121 129.218 77.4509C129.228 75.755 131.301 76.4492 133.126 76.2942Z" fill="#F5F5F7"/>
<path fill-rule="evenodd" clip-rule="evenodd" d="M47.1231 98.4875C46.374 98.1032 43.5749 98.9512 44.2667 96.6038C45.1997 97.0354 47.595 95.9877 47.1231 98.4875Z" fill="#F5F5F7"/>
<path fill-rule="evenodd" clip-rule="evenodd" d="M60.6509 96.9538C61.6671 96.8845 62.6833 96.8051 63.726 96.7087C64.1846 98.4501 62.6808 98.5975 60.5986 98.68C60.6245 98.1017 60.6333 97.5322 60.6509 96.9538Z" fill="#F5F5F7"/>
<path fill-rule="evenodd" clip-rule="evenodd" d="M91.5 97.2079C84.3615 95.997 77.0365 100.835 72.978 96.6737C76.5167 96.8526 80.7755 97.3011 84.8063 97.0076C84.0396 95.8339 87.1518 95.2045 87.7062 96.1218C87.88 95.8654 92.7581 94.9979 91.5 97.2079" fill="#F5F5F7"/>
<path fill-rule="evenodd" clip-rule="evenodd" d="M110.556 95.8236C106.037 96.9727 99.5879 101.2 95.5742 96.8663C98.5201 97.6065 102.15 97.495 105.492 96.1827C105.466 96.4108 105.439 96.6476 105.413 96.8751C106.834 96.9129 108.891 94.5365 110.556 95.8236Z" fill="#F5F5F7"/>
<path fill-rule="evenodd" clip-rule="evenodd" d="M126.143 93.9754C126.239 94.3522 126.327 94.7283 126.379 95.1056C123.152 95.4307 118.914 94.6627 115.275 94.8492C113.63 94.4511 111.807 96.7071 111.038 94.3081C113.409 93.4544 116.023 93.467 118.441 94.521C121.528 93.9962 123.001 94.0794 126.143 93.9754Z" fill="#F5F5F7"/>
<path fill-rule="evenodd" clip-rule="evenodd" d="M129.481 93.5024C129.869 95.0289 128.064 94.9092 126.441 95.0963C126.042 93.5377 127.92 93.8634 129.481 93.5024Z" fill="#F5F5F7"/>
<path fill-rule="evenodd" clip-rule="evenodd" d="M48.7968 103.893C48.9631 104.156 49.147 104.401 49.331 104.629C48.066 104.618 46.1608 106.468 45.5989 103.841C48.5164 103.429 48.3936 103.184 48.7968 103.893C46.1816 103.693 47.0693 103.47 48.7968 103.893" fill="#F5F5F7"/>
<path fill-rule="evenodd" clip-rule="evenodd" d="M66.9589 104.305H66.9942C65.0733 106.972 61.4571 104.791 58.5308 104.138C59.9042 101.702 63.0195 105.093 66.9589 104.305Z" fill="#F5F5F7"/>
<path fill-rule="evenodd" clip-rule="evenodd" d="M73.8895 104.375C72.4746 104.199 69.2622 106.958 68.4136 104.095C70.0264 104.141 72.6251 101.94 73.8895 104.375Z" fill="#F5F5F7"/>
<path fill-rule="evenodd" clip-rule="evenodd" d="M82.4231 102.386C83.4834 102.5 84.5437 102.667 85.6033 102.868C85.0508 104.549 83.0267 103.615 81.0566 103.525C81.538 103.192 82.0029 102.807 82.4231 102.386Z" fill="#F5F5F7"/>
<path fill-rule="evenodd" clip-rule="evenodd" d="M103.1 101.825C103.293 101.755 103.486 101.685 103.679 101.632C101.702 105.389 91.9398 107.309 89.467 103.682C93.7851 104.891 98.7148 103.837 103.1 101.825Z" fill="#F5F5F7"/>
<path fill-rule="evenodd" clip-rule="evenodd" d="M109.365 101.676C106.868 102.866 104.64 100.712 109.137 100.248C109.067 100.757 109.154 101.23 109.365 101.676" fill="#F5F5F7"/>
<path fill-rule="evenodd" clip-rule="evenodd" d="M123.436 99.4338C124.373 99.3639 125.302 99.2587 126.222 99.127C126.316 100.705 124.572 100.865 122.753 100.862C123.042 100.406 123.269 99.924 123.436 99.4338Z" fill="#F5F5F7"/>
<path fill-rule="evenodd" clip-rule="evenodd" d="M129.954 99.7753C129.179 99.7154 126.851 101.435 126.818 99.0306C127.773 98.8643 128.719 98.6539 129.648 98.3912C129.727 98.8643 129.823 99.3286 129.954 99.7753" fill="#F5F5F7"/>
<path fill-rule="evenodd" clip-rule="evenodd" d="M58.0749 111.34C55.8554 113.48 51.8436 112.706 49.3481 115.704C51.3081 112.487 53.9125 110.501 58.0749 111.34Z" fill="#F5F5F7"/>
<path fill-rule="evenodd" clip-rule="evenodd" d="M62.7536 111.507C62.9747 113.131 61.7764 112.858 59.7573 112.733C59.3862 111.016 61.0866 111.538 62.7536 111.507Z" fill="#F5F5F7"/>
<path fill-rule="evenodd" clip-rule="evenodd" d="M49.8828 120.365C49.6409 122.105 48.3696 123.43 46.0367 124.184C45.704 122.091 47.8549 121.242 49.8828 120.365Z" fill="#F5F5F7"/>
<path fill-rule="evenodd" clip-rule="evenodd" d="M61.7111 118.814C61.8352 120.251 60.5954 120.535 58.7406 120.304C58.6587 118.792 59.8992 119.074 61.7111 118.814Z" fill="#F5F5F7"/>
<path fill-rule="evenodd" clip-rule="evenodd" d="M53.4311 128.907C51.5443 129.035 47.7177 132.128 46.7109 129.24C48.9266 128.049 50.5609 129.002 53.4311 128.907Z" fill="#F5F5F7"/>
<path fill-rule="evenodd" clip-rule="evenodd" d="M60.3704 124.009C59.7152 126.629 56.3258 127.106 53.7031 128.794C55.9163 127.301 56.7145 123.958 60.3704 124.009Z" fill="#F5F5F7"/>
<path fill-rule="evenodd" clip-rule="evenodd" d="M114.56 107.704C117.329 106.512 120.106 105.426 122.989 104.612C120.978 106.485 117.816 107.718 114.56 107.704Z" fill="#F5F5F7"/>
<path fill-rule="evenodd" clip-rule="evenodd" d="M142.325 101.405C140.814 103.693 136.924 103.147 134.086 103.749C132.078 103.489 130.197 105.421 128.702 103.403C130.549 102.682 132.527 103.668 134.602 103.62C137.224 102.332 139.291 101.689 142.325 101.405" fill="#F5F5F7"/>
<path fill-rule="evenodd" clip-rule="evenodd" d="M146.014 97.3045C145.017 97.4822 143.347 97.7121 141.73 97.9792C141.883 97.2119 146.844 94.3819 146.014 97.3045Z" fill="#F5F5F7"/>
<path fill-rule="evenodd" clip-rule="evenodd" d="M44.7663 93.9662C45.7736 93.8705 46.7898 93.7735 47.8066 93.6771C47.3436 95.523 47.2283 96.3968 44.3196 96.078C44.3694 95.625 44.4897 94.9339 44.7663 93.9662" fill="#F5F5F7"/>
<path fill-rule="evenodd" clip-rule="evenodd" d="M63.7876 94.6411C62.7625 94.7986 61.7199 94.9391 60.6772 95.0525C60.6772 94.3432 60.6861 93.6331 60.6861 92.9238C61.7287 92.9149 62.7625 92.9149 63.7876 92.9326C63.8052 93.4675 63.7964 94.0363 63.7876 94.6411Z" fill="#F5F5F7"/>
<path fill-rule="evenodd" clip-rule="evenodd" d="M74.9233 93.9404C74.2631 93.5668 71.3959 94.8054 71.4803 92.8889C72.431 93.1611 74.7652 91.7682 74.9233 93.9404Z" fill="#F5F5F7"/>
<path fill-rule="evenodd" clip-rule="evenodd" d="M87.3823 93.6334C86.116 93.4437 84.049 94.7441 83.4133 92.3715C84.5184 92.6405 87.2267 91.0277 87.3823 93.6334Z" fill="#F5F5F7"/>
<path fill-rule="evenodd" clip-rule="evenodd" d="M2.82477 91.9248C4.0602 91.8896 5.28681 91.8549 6.51342 91.8026C5.71521 93.4507 4.17675 93.6372 1.92261 93.6164C2.18532 93.0292 2.48331 92.4679 2.82477 91.9248" fill="#F5F5F7"/>
<path fill-rule="evenodd" clip-rule="evenodd" d="M18.4204 91.4167C18.7234 93.5272 14.9472 93.9121 14.0305 91.4431C15.5028 91.3902 16.9657 91.3732 18.4204 91.4167Z" fill="#F5F5F7"/>
<path fill-rule="evenodd" clip-rule="evenodd" d="M3.82369 101.379C3.9289 101.852 4.0864 102.298 4.30564 102.684C1.64767 103.427 -0.985099 102.227 3.82369 101.379Z" fill="#F5F5F7"/>
<path fill-rule="evenodd" clip-rule="evenodd" d="M18.6129 100.546C16.6851 100.923 14.7409 101.265 12.7866 101.571C13.4374 99.4323 15.4459 98.7361 18.1227 98.6271C18.2015 99.2231 18.3678 99.889 18.6129 100.546Z" fill="#F5F5F7"/>
</svg>
