<svg width="210" height="222" viewBox="0 0 210 222" fill="none" xmlns="http://www.w3.org/2000/svg">
<path fill-rule="evenodd" clip-rule="evenodd" d="M67.8139 36.2713C67.8139 36.2713 83.4585 -15.1103 143.17 5.22854C202.881 25.5681 217.423 77.6593 206.62 127.571C195.731 177.873 161.472 216.618 115.414 221.579C85.005 224.525 46.8897 202.346 41.2585 181.594C66.174 198.02 99.6698 193.045 122.798 156.397C122.804 156.405 119.461 152.601 119.454 150.013C119.817 146.331 124.463 147.923 124.414 148.401C117.536 143.043 131.942 142.673 131.196 141.665C131.864 140.548 137.119 131.54 139.883 120.487C139.883 120.487 130.973 124.185 123.414 119.855C188.164 69.1457 105.513 -6.61427 67.8139 36.2713" fill="#FBEF66"/>
<path fill-rule="evenodd" clip-rule="evenodd" d="M143.17 5.22866C83.4585 -15.1105 67.814 36.2714 67.814 36.2714C80.9641 20.305 110.961 15.6359 136.028 45.3152C140.177 27.4298 146.494 18.8808 163.25 14.1556C157.213 10.7362 150.533 7.73662 143.17 5.22866" fill="#DBEEE9"/>
<path fill-rule="evenodd" clip-rule="evenodd" d="M156.614 68.1016C166.561 73.7791 177.063 70.9178 182.706 60.9561C182.984 74.5534 163.515 80.1878 156.614 68.1016Z" fill="#282E47"/>
<path fill-rule="evenodd" clip-rule="evenodd" d="M56.0293 39.739C62.411 27.8949 78.988 36.4818 73.8871 48.1884C67.5054 60.0325 50.928 51.4456 56.0293 39.739" fill="#C54554"/>
<path fill-rule="evenodd" clip-rule="evenodd" d="M135.694 21.9419C139.253 16.1154 144.255 11.2549 150.127 7.83282C147.004 6.90219 143.197 4.49547 139.943 4.56037C134.787 8.67195 130.782 13.3764 127.532 19.1026C125.173 23.3115 123.567 27.585 122.471 32.2534C123.868 34.5738 127.998 36.3251 129.955 38.7159C130.632 32.8031 132.575 27.048 135.694 21.9419" fill="#C54554"/>
<path fill-rule="evenodd" clip-rule="evenodd" d="M117.542 16.7642C120.295 10.681 124.822 5.44381 130.414 1.80663C126.323 1.29621 121.789 -0.030295 118.358 0.799744C114.517 4.75103 111.626 9.05795 109.444 14.1079C104.232 28.9584 105.872 23.5671 114.569 28.2488C114.905 24.2907 115.902 20.3897 117.542 16.7642" fill="#C54554"/>
<path fill-rule="evenodd" clip-rule="evenodd" d="M105.805 1.58557C100.998 2.57948 96.7427 4.17887 92.9922 6.16441C90.8594 11.7836 89.9258 17.8842 90.2467 23.9002C93.0578 23.494 96.1115 23.397 99.3999 23.7494C98.8307 15.9312 101.183 7.89945 105.805 1.58557" fill="#C54554"/>
<path fill-rule="evenodd" clip-rule="evenodd" d="M77.1994 28.4963C78.9912 27.4489 81.0274 26.4553 83.2995 25.6359C82.3309 21.6126 82.168 17.3917 82.8734 13.334C74.6181 21.3926 75.391 20.7242 77.1994 28.4963" fill="#C54554"/>
<path fill-rule="evenodd" clip-rule="evenodd" d="M125.548 204.142C129.577 196.733 139.79 202.233 136.632 209.386C132.604 216.795 122.392 211.295 125.548 204.142" fill="#FAD470"/>
<path fill-rule="evenodd" clip-rule="evenodd" d="M85.7703 203.031C89.7988 195.623 100.011 201.123 96.8541 208.276C92.8259 215.684 82.613 210.184 85.7703 203.031Z" fill="#FAD470"/>
<path fill-rule="evenodd" clip-rule="evenodd" d="M181.993 37.4143C176.04 30.152 165.752 38.685 171.296 45.6573C177.32 52.574 186.737 44.321 181.993 37.4143Z" fill="#FAD470"/>
<path fill-rule="evenodd" clip-rule="evenodd" d="M160.738 49.77C160.902 48.9588 160.784 47.3964 160.186 46.4706C157.586 41.2331 149.269 43.2806 150.117 49.8154C150.941 55.7938 159.754 55.0449 160.738 49.77Z" fill="#FAD470"/>
<path fill-rule="evenodd" clip-rule="evenodd" d="M158.935 120.836C162.484 112.191 151.17 107.52 147.236 115.3C143.688 123.944 155.001 128.616 158.935 120.836Z" fill="#FAD470"/>
<path fill-rule="evenodd" clip-rule="evenodd" d="M180.545 112.596C186.249 101.937 199.915 109.14 195.324 119.588C189.619 130.247 175.954 123.045 180.545 112.596Z" fill="#FAD470"/>
<path fill-rule="evenodd" clip-rule="evenodd" d="M159.498 146.725C164.192 138.068 175.503 144.202 171.814 152.552C167.119 161.21 155.808 155.076 159.498 146.725Z" fill="#FAD470"/>
<path fill-rule="evenodd" clip-rule="evenodd" d="M162.298 177.442C167.201 168.408 179.707 175.06 175.845 183.852C170.942 192.886 158.436 186.234 162.298 177.442Z" fill="#FAD470"/>
<path fill-rule="evenodd" clip-rule="evenodd" d="M117.809 177.494C122.239 169.247 132.358 174.751 128.833 182.71C124.403 190.956 114.284 185.453 117.809 177.494" fill="#FAD470"/>
<path fill-rule="evenodd" clip-rule="evenodd" d="M165.037 102.432C168.334 96.3217 175.787 100.487 173.198 106.293C169.9 112.403 162.448 108.238 165.037 102.432Z" fill="#FAD470"/>
<path fill-rule="evenodd" clip-rule="evenodd" d="M157.93 83.3337C158.479 79.9922 166.204 80.8709 166.41 83.9016C166.42 87.6205 157.637 86.6364 157.93 83.3337Z" fill="#FAD470"/>
<path fill-rule="evenodd" clip-rule="evenodd" d="M168.453 83.7909C169.002 80.449 176.727 81.3281 176.933 84.3585C176.943 88.0774 168.16 87.0936 168.453 83.7909Z" fill="#FAD470"/>
<path fill-rule="evenodd" clip-rule="evenodd" d="M178.764 84.6351C178.461 81.2646 186.146 80.2013 187.114 83.06C188.099 86.6696 179.292 87.9053 178.764 84.6351Z" fill="#FAD470"/>
<path fill-rule="evenodd" clip-rule="evenodd" d="M180.983 71.0482C180.498 70.1065 179.179 69.5049 178.618 68.5169C178.959 65.7457 184.234 71.3668 180.983 71.0482Z" fill="#282E47"/>
<path fill-rule="evenodd" clip-rule="evenodd" d="M183.037 67.5C182.728 66.5379 180.515 66.2965 181.057 65.0002C182.258 63.5212 185.842 67.7502 183.037 67.5Z" fill="#282E47"/>
<path fill-rule="evenodd" clip-rule="evenodd" d="M156.02 72.0465C154.557 70.8622 157.54 70.2258 158.329 69.3734C160.875 69.7252 157.23 72.5508 156.02 72.0465Z" fill="#282E47"/>
<path fill-rule="evenodd" clip-rule="evenodd" d="M159.502 74.4481C159.073 74.1765 158.895 73.5775 159.469 72.9976C162.08 66.9447 162.533 74.3274 159.502 74.4481Z" fill="#282E47"/>
<path fill-rule="evenodd" clip-rule="evenodd" d="M163.913 76.2531C163.279 75.9961 163.447 71.0587 164.972 72.3048C165.67 73.0634 165.296 76.8593 163.913 76.2531Z" fill="#282E47"/>
<path fill-rule="evenodd" clip-rule="evenodd" d="M168.661 76.4999C167.778 76.0414 168.256 71.1141 169.843 73.2171C169.862 74.1302 170.142 77.0119 168.661 76.4999Z" fill="#282E47"/>
<path fill-rule="evenodd" clip-rule="evenodd" d="M173.345 75.821C172.77 75.5367 173.053 74.8082 172.729 74.0519C172.457 73.4756 171.802 73.1939 172.307 72.4268C173.796 71.1617 175.639 76.3629 173.345 75.821Z" fill="#282E47"/>
<path fill-rule="evenodd" clip-rule="evenodd" d="M177.311 74.2134C176.699 73.8548 176.915 72.8495 176.319 72.1068C176.013 71.5824 175.43 71.5159 175.535 70.7232C176.567 68.2577 180.103 74.8721 177.311 74.2134" fill="#282E47"/>
<path fill-rule="evenodd" clip-rule="evenodd" d="M60.4897 101.357C57.7118 69.9198 90.0044 69.033 98.3587 83.3701C97.993 82.7809 96.7177 82.3976 95.4451 82.2506C82.1573 80.7032 76.8873 91.8347 83.0322 102.061L60.4897 101.357Z" fill="#DBEEE9"/>
<path fill-rule="evenodd" clip-rule="evenodd" d="M95.7378 82.6218C94.9649 76.963 102.772 75.9188 103.89 81.0503C104.663 86.709 96.8556 87.7529 95.7378 82.6218" fill="#C54554"/>
<path fill-rule="evenodd" clip-rule="evenodd" d="M60.9717 91.3797C60.667 92.9801 60.4976 94.5143 60.4155 95.8791C66.9335 93.6972 74.24 93.7725 80.7252 96.0647C80.4572 94.5908 80.4065 93.1034 80.6142 91.662C74.2767 89.7446 67.3592 89.645 60.9717 91.3797" fill="#C54554"/>
<path fill-rule="evenodd" clip-rule="evenodd" d="M64.8171 81.9679C63.7699 83.397 62.9581 84.9539 62.3367 86.5481C68.7479 85.2203 75.529 85.9825 81.4944 88.6358C82.0626 87.395 82.8754 86.2356 83.9907 85.2174C78.0568 82.4002 71.3402 81.2719 64.8171 81.9679" fill="#C54554"/>
<path fill-rule="evenodd" clip-rule="evenodd" d="M91.8486 82.1598C83.3152 73.8549 79.4613 73.116 70.5762 77.0887C76.5367 76.991 82.5799 79.2942 87.0637 83.2611C88.5661 82.615 90.1973 82.274 91.8486 82.1598" fill="#C54554"/>
<path fill-rule="evenodd" clip-rule="evenodd" d="M64.9461 189.245C62.8959 189.336 63.9856 183.185 63.5362 180.376C63.1714 178.543 65.6294 178.213 65.7041 179.996C65.5019 182.407 66.9118 189.448 64.9461 189.245Z" fill="#9E5273"/>
<path fill-rule="evenodd" clip-rule="evenodd" d="M61.3375 191.083C59.1735 190.305 63.2721 186.304 64.7796 186.703C65.4484 186.967 65.4001 187.923 64.3925 188.068C62.6286 188.438 62.5514 190.281 61.3375 191.083Z" fill="#9E5273"/>
<path fill-rule="evenodd" clip-rule="evenodd" d="M64.3544 192.016C62.5716 191.741 63.9179 186.543 65.6338 187.699C66.1459 188.348 65.0725 188.913 64.8852 189.784C64.5075 190.616 65.5634 191.615 64.3544 192.016" fill="#9E5273"/>
<path fill-rule="evenodd" clip-rule="evenodd" d="M67.259 191.291C66.2096 191.091 63.9334 188.217 65.1914 187.189C65.6577 186.99 65.9877 187.165 66.1373 187.814C65.6856 188.894 69.1213 190.512 67.259 191.291Z" fill="#9E5273"/>
<path fill-rule="evenodd" clip-rule="evenodd" d="M82.3716 188.619C80.3215 188.709 81.4111 182.559 80.9617 179.75C80.597 177.917 83.055 177.586 83.1296 179.37C82.9274 181.78 84.3373 188.822 82.3716 188.619Z" fill="#9E5273"/>
<path fill-rule="evenodd" clip-rule="evenodd" d="M78.763 190.457C76.599 189.679 80.6976 185.677 82.2052 186.077C82.8739 186.34 82.8253 187.297 81.8181 187.441C80.0541 187.811 79.9769 189.655 78.763 190.457Z" fill="#9E5273"/>
<path fill-rule="evenodd" clip-rule="evenodd" d="M81.78 191.389C79.9976 191.115 81.3436 185.916 83.0595 187.072C83.5715 187.721 82.4981 188.286 82.3109 189.157C81.9332 189.99 82.9891 190.988 81.78 191.389Z" fill="#9E5273"/>
<path fill-rule="evenodd" clip-rule="evenodd" d="M84.6844 190.665C82.7612 190.748 81.1449 184.486 83.5633 187.187C83.111 188.267 86.547 189.886 84.6844 190.665Z" fill="#9E5273"/>
<path fill-rule="evenodd" clip-rule="evenodd" d="M103.516 132.739C103.317 130.597 99.7498 92.6719 96.3177 86.0705C96.1415 85.3736 95.2874 86.3688 94.6871 87.0051C76.8789 107.882 89.8604 98.9715 70.2795 98.3105C67.4883 97.9104 63.4052 99.4884 59.1986 100.177C53.2637 93.8858 46.7415 85.441 46.6085 88.3098C45.5906 91.0083 44.5 96.6352 43.4428 103.114C41.1188 119.505 37.5709 138.395 39.546 149.643C48.6589 200.05 113.525 189.141 103.516 132.739" fill="#BF618D"/>
<path fill-rule="evenodd" clip-rule="evenodd" d="M58.6562 131.675C46.8669 131.437 47.0015 115.197 58.0374 114.467C69.8266 114.705 69.692 130.945 58.6562 131.675ZM57.9082 110.873C41.4135 112.322 42.9328 135.302 58.7853 135.269C75.28 133.82 73.7607 110.839 57.9082 110.873Z" fill="#7EB1BF"/>
<path fill-rule="evenodd" clip-rule="evenodd" d="M58.0374 114.467C46.2955 115.55 47.5963 131.739 58.6562 131.674C70.3977 130.591 69.0969 114.402 58.0374 114.467Z" fill="#FAD067"/>
<path fill-rule="evenodd" clip-rule="evenodd" d="M49.457 131.107C48.4725 130.815 51.4892 128.9 51.5003 128.655C52.4854 128.947 49.4683 130.862 49.457 131.107Z" fill="#598E9C"/>
<path fill-rule="evenodd" clip-rule="evenodd" d="M53.752 134.182L53.3821 133.952C53.6433 133.844 55.0016 130.539 55.4481 131.459L53.752 134.182Z" fill="#598E9C"/>
<path fill-rule="evenodd" clip-rule="evenodd" d="M59.4481 135.017L58.9568 131.908C59.743 131.248 59.6797 134.803 59.879 134.949L59.4481 135.017Z" fill="#598E9C"/>
<path fill-rule="evenodd" clip-rule="evenodd" d="M65.2562 132.867L63.4229 130.29C63.8317 129.348 65.3688 132.573 65.6112 132.614L65.2562 132.867Z" fill="#598E9C"/>
<path fill-rule="evenodd" clip-rule="evenodd" d="M68.7492 128.982C68.6548 128.715 65.4531 127.183 66.3941 126.79C66.4885 127.057 69.6903 128.588 68.7492 128.982Z" fill="#598E9C"/>
<path fill-rule="evenodd" clip-rule="evenodd" d="M49.7734 125.366L46.5674 125.481C46.1316 124.631 48.5601 125.138 49.5433 124.938C49.8496 124.923 49.7309 124.828 49.7734 125.366" fill="#598E9C"/>
<path fill-rule="evenodd" clip-rule="evenodd" d="M49.8418 120.568C49.7094 120.318 46.3169 119.272 47.1904 118.744C47.3228 118.994 50.7153 120.04 49.8418 120.568Z" fill="#598E9C"/>
<path fill-rule="evenodd" clip-rule="evenodd" d="M52.0863 116.805L50.2214 114.224C50.6228 113.277 52.1976 116.512 52.4396 116.55L52.0863 116.805Z" fill="#598E9C"/>
<path fill-rule="evenodd" clip-rule="evenodd" d="M55.7921 114.397L54.7751 111.638C55.4189 110.858 55.9767 114.132 56.2013 114.247L55.7921 114.397Z" fill="#598E9C"/>
<path fill-rule="evenodd" clip-rule="evenodd" d="M60.3479 114.478L59.9241 114.375C60.1376 114.188 60.3787 110.674 61.0913 111.402L60.3479 114.478Z" fill="#598E9C"/>
<path fill-rule="evenodd" clip-rule="evenodd" d="M64.1497 116.394C63.1246 116.324 65.6553 113.794 65.6124 113.553C66.6375 113.623 64.1071 116.152 64.1497 116.394Z" fill="#598E9C"/>
<path fill-rule="evenodd" clip-rule="evenodd" d="M66.6498 119.964C65.741 119.482 69.1052 118.192 69.1637 117.954C70.0725 118.436 66.7083 119.726 66.6498 119.964Z" fill="#598E9C"/>
<path fill-rule="evenodd" clip-rule="evenodd" d="M70.3087 123.774C70.0858 123.598 66.6157 123.982 67.2034 123.153C67.4263 123.329 70.8964 122.945 70.3087 123.774Z" fill="#598E9C"/>
<path fill-rule="evenodd" clip-rule="evenodd" d="M52.8145 121.727C54.288 122.764 56.329 123.526 58.4975 123.554C58.3791 123.558 58.4677 123.555 58.4427 123.556C60.4078 123.55 62.37 122.711 64.2828 121.556C62.7655 126.256 53.9566 126.42 52.8145 121.727" fill="#231F20"/>
<path fill-rule="evenodd" clip-rule="evenodd" d="M52.1651 124.007C50.5043 123.66 54.5053 120.999 53.5328 123.061C52.9146 123.466 52.6499 123.882 52.1651 124.007Z" fill="#231F20"/>
<path fill-rule="evenodd" clip-rule="evenodd" d="M54.4257 126.247C53.4707 126.321 54.8472 123.364 55.6522 123.717C56.0173 123.931 55.757 124.471 55.2953 125.174C54.733 125.958 55.0513 125.992 54.4257 126.247" fill="#231F20"/>
<path fill-rule="evenodd" clip-rule="evenodd" d="M57.8413 127.197C57.1044 127.171 57.4999 125.916 57.4798 124.882C58.0353 122.349 59.0227 126.85 57.8413 127.197Z" fill="#231F20"/>
<path fill-rule="evenodd" clip-rule="evenodd" d="M64.743 124.045C64.1337 123.939 62.0913 121.908 63.9318 122.321C64.4614 122.966 65.8729 123.471 64.743 124.045Z" fill="#231F20"/>
<path fill-rule="evenodd" clip-rule="evenodd" d="M62.0948 126.207C61.5442 126.204 60.0467 123.137 61.735 124.113C61.8443 124.688 63.1322 125.856 62.0948 126.207Z" fill="#231F20"/>
<path fill-rule="evenodd" clip-rule="evenodd" d="M86.1012 130.688C74.3119 130.45 74.4466 114.21 85.4824 113.48C97.2717 113.718 97.137 129.958 86.1012 130.688ZM85.3533 109.886C68.8586 111.335 70.3779 134.315 86.2304 134.282C102.725 132.833 101.206 109.853 85.3533 109.886Z" fill="#7EB1BF"/>
<path fill-rule="evenodd" clip-rule="evenodd" d="M85.4827 113.48C73.7408 114.564 75.0417 130.753 86.1015 130.688C97.8431 129.604 96.5422 113.415 85.4827 113.48Z" fill="#FAD067"/>
<path fill-rule="evenodd" clip-rule="evenodd" d="M76.9021 130.121C75.9173 129.828 78.9341 127.913 78.9454 127.668C79.9303 127.96 76.9135 129.875 76.9021 130.121Z" fill="#598E9C"/>
<path fill-rule="evenodd" clip-rule="evenodd" d="M81.1973 133.196L80.8274 132.965C81.0886 132.857 82.4469 129.552 82.8934 130.472L81.1973 133.196Z" fill="#598E9C"/>
<path fill-rule="evenodd" clip-rule="evenodd" d="M86.8931 134.031L86.4019 130.921C87.1881 130.261 87.1251 133.817 87.3241 133.963L86.8931 134.031Z" fill="#598E9C"/>
<path fill-rule="evenodd" clip-rule="evenodd" d="M92.7015 131.88L90.8682 129.303C91.277 128.361 92.8141 131.586 93.0565 131.627L92.7015 131.88Z" fill="#598E9C"/>
<path fill-rule="evenodd" clip-rule="evenodd" d="M96.1943 127.995C96.0999 127.728 92.8982 126.197 93.8392 125.803C93.9336 126.07 97.1353 127.601 96.1943 127.995Z" fill="#598E9C"/>
<path fill-rule="evenodd" clip-rule="evenodd" d="M77.2187 124.379C76.9828 124.223 73.4838 124.943 73.9968 124.059L77.2031 123.943L77.2187 124.379Z" fill="#598E9C"/>
<path fill-rule="evenodd" clip-rule="evenodd" d="M77.2869 119.581C77.1545 119.331 73.762 118.285 74.6355 117.757C74.7679 118.007 78.1604 119.054 77.2869 119.581Z" fill="#598E9C"/>
<path fill-rule="evenodd" clip-rule="evenodd" d="M79.5313 115.818L77.6665 113.238C78.0679 112.29 79.6426 115.526 79.8847 115.563L79.5313 115.818Z" fill="#598E9C"/>
<path fill-rule="evenodd" clip-rule="evenodd" d="M83.2374 113.411L82.2205 110.652C82.8642 109.872 83.422 113.145 83.6466 113.26L83.2374 113.411Z" fill="#598E9C"/>
<path fill-rule="evenodd" clip-rule="evenodd" d="M87.7929 113.491L87.3691 113.389C87.5827 113.201 87.8237 109.687 88.5363 110.415L87.7929 113.491Z" fill="#598E9C"/>
<path fill-rule="evenodd" clip-rule="evenodd" d="M91.5949 115.408C90.5701 115.337 93.1005 112.808 93.0576 112.566C94.0827 112.636 91.5523 115.166 91.5949 115.408Z" fill="#598E9C"/>
<path fill-rule="evenodd" clip-rule="evenodd" d="M94.0952 118.977C93.1863 118.495 96.5506 117.205 96.609 116.967C97.5179 117.449 94.1536 118.739 94.0952 118.977Z" fill="#598E9C"/>
<path fill-rule="evenodd" clip-rule="evenodd" d="M97.754 122.788C97.5311 122.611 94.0611 122.995 94.6487 122.167C94.8716 122.343 98.3417 121.959 97.754 122.788Z" fill="#598E9C"/>
<path fill-rule="evenodd" clip-rule="evenodd" d="M80.2595 120.74C81.733 121.777 83.774 122.539 85.9426 122.567C85.8242 122.571 85.9127 122.568 85.8878 122.569C87.8529 122.563 89.815 121.724 91.7279 120.569C90.2106 125.269 81.4017 125.433 80.2595 120.74Z" fill="#231F20"/>
<path fill-rule="evenodd" clip-rule="evenodd" d="M79.6101 123.02C77.9494 122.673 81.9503 120.012 80.9778 122.075C80.3597 122.479 80.0949 122.895 79.6101 123.02Z" fill="#231F20"/>
<path fill-rule="evenodd" clip-rule="evenodd" d="M81.8709 125.26C80.877 125.203 82.2444 123.028 82.7672 122.683C84.0297 122.42 82.4089 125.176 81.8709 125.26Z" fill="#231F20"/>
<path fill-rule="evenodd" clip-rule="evenodd" d="M85.2864 126.21C84.5494 126.184 84.945 124.929 84.9249 123.895C85.4811 121.362 86.4675 125.863 85.2864 126.21Z" fill="#231F20"/>
<path fill-rule="evenodd" clip-rule="evenodd" d="M92.1882 123.058C91.5788 122.952 89.5368 120.921 91.377 121.334C91.9066 121.979 93.3181 122.484 92.1882 123.058Z" fill="#231F20"/>
<path fill-rule="evenodd" clip-rule="evenodd" d="M89.5399 125.221C88.9893 125.217 87.4917 122.15 89.1801 123.126C89.2894 123.702 90.5773 124.869 89.5399 125.221Z" fill="#231F20"/>
<path fill-rule="evenodd" clip-rule="evenodd" d="M67.9788 133.085C70.111 127.931 76.3077 129.234 77.1111 132.865C76.8447 134.488 73.0278 145.965 73.0216 145.989C73.0216 145.989 68.0203 134.174 67.9788 133.085Z" fill="#FAD067"/>
<path fill-rule="evenodd" clip-rule="evenodd" d="M52.4496 150.189C50.5341 143.685 43.4142 134.953 37.7224 142.757C35.2342 145.653 32.4596 166.216 39.5623 162.864C40.7142 161.796 39.866 160.973 39.9688 157.912C40.0123 155.443 39.3724 152.231 40.2271 153.27C40.2375 153.278 40.5724 162.488 40.6045 163.142C40.2745 169.302 45.5864 169.588 45.4981 166.51C45.7405 165.418 44.9299 155.466 45.8352 156.118C46.3531 159.27 45.1778 167.918 46.6332 170.712C54.0565 179.337 54.2352 153.041 52.4496 150.189Z" fill="#7EB1BF"/>
<path fill-rule="evenodd" clip-rule="evenodd" d="M52.3563 167.962C51.9416 172.636 47.6824 174.194 46.1927 169.582C45.5547 167.105 46.1593 158.578 45.8357 156.117C45.1151 155.288 45.5998 160.806 45.4889 163.758C45.288 166.351 46.3939 167.819 43.7314 168.408C38.8956 168.881 40.9003 155.685 40.227 153.27C40.2896 153.212 39.8872 152.891 39.7918 153.286C39.8035 153.293 40.0913 161.342 40.1244 161.995C39.7789 163.662 37.0707 163.667 36.009 161.802C33.4825 156.32 35.9765 142.936 39.211 141.126C43.3628 137.51 47.0191 141.171 49.2231 143.895C54.5226 150.422 53.9262 160.191 52.3563 167.962V167.962ZM53.3668 152.031C52.2057 145.444 44.8071 134.289 38.0192 141.669C34.3959 144.439 31.8292 168.239 40.1585 162.886C39.9145 166.08 41.8877 170.788 45.531 168.026C45.5246 170.035 46.7725 172.942 49.3837 172.792C54.775 172.085 54.0751 154.564 53.3668 152.031" fill="#598E9C"/>
<path fill-rule="evenodd" clip-rule="evenodd" d="M39.6486 144.762C38.4821 145.311 36.9083 141.636 38.2721 142.211C38.6187 146.671 42.1199 143.275 41.5813 140.197C42.1971 137.413 42.4506 145.078 39.6486 144.762Z" fill="#598E9C"/>
<path fill-rule="evenodd" clip-rule="evenodd" d="M43.6798 145.271C41.9412 145.9 41.0119 138.486 42.191 139.765C42.2206 141.192 41.9353 144.925 43.9449 144.76C45.5751 143.774 45.4288 141.515 45.9454 140.09C46.7245 141.312 45.2789 145.048 43.6798 145.271" fill="#598E9C"/>
<path fill-rule="evenodd" clip-rule="evenodd" d="M47.3589 146.218C45.6238 146.875 45.0939 139.845 46.2056 140.932C46.0551 142.471 45.8776 147.682 48.6133 145.05C50.4175 140.816 49.5096 146.477 47.3589 146.218Z" fill="#598E9C"/>
<path fill-rule="evenodd" clip-rule="evenodd" d="M41.1525 149.156C37.8164 149.278 39.8662 142.4 39.8373 145.152C39.6144 146.289 39.3165 147.845 40.556 148.583C42.7671 149.418 42.3995 145.855 43.2288 144.771C43.6825 145.722 42.7223 149.053 41.1525 149.156Z" fill="#598E9C"/>
<path fill-rule="evenodd" clip-rule="evenodd" d="M44.4927 150.077C41.1589 149.802 43.9703 141.093 43.2561 147.163C43.3119 148.151 43.2642 148.759 44.0381 149.519C46.0668 150.226 46.9828 146.935 47.5802 145.761C48.1769 147.197 46.2076 149.864 44.4927 150.077Z" fill="#598E9C"/>
<path fill-rule="evenodd" clip-rule="evenodd" d="M37.1405 148.877C34.7253 148.964 36.3244 142.904 36.2089 147.241C36.2991 147.666 36.3809 148.174 37.0172 148.436C37.7794 148.467 38.7957 147.147 39.1364 146.348C40.4191 144.645 38.6221 149.12 37.1405 148.877Z" fill="#598E9C"/>
<path fill-rule="evenodd" clip-rule="evenodd" d="M49.2065 150.611C45.8854 151.001 47.6418 142.956 47.6782 147.505C47.6782 147.76 47.6318 147.853 47.6636 148.505C47.7645 149.117 47.8563 149.704 48.5455 150.061C50.9776 150.756 50.9253 148.098 51.3053 146.442C52.1474 147.64 51.1064 150.612 49.2065 150.611" fill="#598E9C"/>
<path fill-rule="evenodd" clip-rule="evenodd" d="M48.7065 170.309C48.4028 171.576 49.1125 172.823 49.1423 170.293C49.1426 170.114 48.8581 170.006 48.7065 170.309Z" fill="#598E9C"/>
<path fill-rule="evenodd" clip-rule="evenodd" d="M50.6078 169.088C50.2168 170.252 50.798 171.739 51.0323 169.189C51.032 169.025 50.8418 168.845 50.6078 169.088Z" fill="#598E9C"/>
<path fill-rule="evenodd" clip-rule="evenodd" d="M36.2447 150.53C36.2623 150.927 35.843 151.715 36.0208 152.379C36.2873 152.39 36.3593 152.474 36.444 151.86C36.4304 151.54 37.0345 150.093 36.2447 150.53Z" fill="#598E9C"/>
<path fill-rule="evenodd" clip-rule="evenodd" d="M37.3473 151.467C36.9514 152.517 37.529 153.728 37.7718 151.567C37.7763 151.403 37.5897 151.224 37.3473 151.467Z" fill="#598E9C"/>
<path fill-rule="evenodd" clip-rule="evenodd" d="M38.6226 153.601C38.1248 154.719 38.6073 156.054 39.047 153.702C39.0626 153.539 38.8847 153.363 38.6226 153.601Z" fill="#598E9C"/>
<path fill-rule="evenodd" clip-rule="evenodd" d="M37.006 153.662C36.86 153.912 36.7847 156.672 37.3042 154.994C37.2672 154.67 37.7458 153.222 37.006 153.662Z" fill="#598E9C"/>
<path fill-rule="evenodd" clip-rule="evenodd" d="M35.759 156.053C35.4069 157.439 36.0864 158.445 36.1951 156.037C36.1721 155.858 35.8722 155.748 35.759 156.053Z" fill="#598E9C"/>
<path fill-rule="evenodd" clip-rule="evenodd" d="M36.5925 157.986C36.7129 158.24 36.3608 160.253 37.0283 159.873C37.2243 159.693 37.1399 157.015 36.5925 157.986Z" fill="#598E9C"/>
<path fill-rule="evenodd" clip-rule="evenodd" d="M38.3972 156.337C38.4578 156.506 37.8835 158.238 38.6613 157.754C38.6405 157.498 39.1328 155.725 38.3972 156.337Z" fill="#598E9C"/>
<path fill-rule="evenodd" clip-rule="evenodd" d="M38.079 159.895C38.2847 160.082 37.4803 161.829 38.3415 161.361C38.4431 161.17 38.7925 159.174 38.079 159.895Z" fill="#598E9C"/>
<path fill-rule="evenodd" clip-rule="evenodd" d="M39.9538 160.482C39.2137 159.484 39.4411 163.223 39.9516 161.325C39.9665 161.13 39.9733 160.934 39.9538 160.482Z" fill="#598E9C"/>
<path fill-rule="evenodd" clip-rule="evenodd" d="M39.792 149.801C39.4931 151.145 40.2044 152.755 40.2277 149.786C40.2255 149.605 39.9396 149.497 39.792 149.801Z" fill="#598E9C"/>
<path fill-rule="evenodd" clip-rule="evenodd" d="M41.5521 150.066C41.3805 150.324 41.6021 152.334 41.9399 150.779C41.9921 150.527 42.0729 149.441 41.5521 150.066Z" fill="#598E9C"/>
<path fill-rule="evenodd" clip-rule="evenodd" d="M41.3337 153.018C41.0906 153.582 41.5654 155.629 41.7471 153.403C41.8467 153.099 41.6857 152.504 41.3337 153.018Z" fill="#598E9C"/>
<path fill-rule="evenodd" clip-rule="evenodd" d="M43.2039 153.822C42.4641 152.825 42.6906 156.563 43.2016 154.665C43.2169 154.47 43.2237 154.274 43.2039 153.822Z" fill="#598E9C"/>
<path fill-rule="evenodd" clip-rule="evenodd" d="M42.8882 151.107C42.8927 151.354 42.8359 152.808 43.359 152.072C43.3545 151.825 43.4113 150.371 42.8882 151.107Z" fill="#598E9C"/>
<path fill-rule="evenodd" clip-rule="evenodd" d="M44.565 151.921C44.6646 152.032 44.235 152.909 44.6909 153.105C45.1445 153.208 45.1539 151.211 44.565 151.921Z" fill="#598E9C"/>
<path fill-rule="evenodd" clip-rule="evenodd" d="M44.2585 155.856C44.2631 156.103 44.2063 157.557 44.7294 156.821C44.7248 156.574 44.7816 155.12 44.2585 155.856Z" fill="#598E9C"/>
<path fill-rule="evenodd" clip-rule="evenodd" d="M42.3708 157.286C42.4451 157.454 41.8224 159.283 42.6226 158.81C42.5486 158.643 43.1713 156.813 42.3708 157.286Z" fill="#598E9C"/>
<path fill-rule="evenodd" clip-rule="evenodd" d="M40.8902 156.195C40.8801 156.459 40.8678 157.751 41.3571 157.051C41.3672 156.788 41.3798 155.496 40.8902 156.195Z" fill="#598E9C"/>
<path fill-rule="evenodd" clip-rule="evenodd" d="M44.2696 158.852C43.9165 160.443 44.6807 161.782 44.694 158.953C44.6973 158.789 44.51 158.61 44.2696 158.852Z" fill="#598E9C"/>
<path fill-rule="evenodd" clip-rule="evenodd" d="M43.0116 160.59C42.7682 161.164 43.2196 163.417 43.4231 161.011C43.5185 160.726 43.3822 160.052 43.0116 160.59Z" fill="#598E9C"/>
<path fill-rule="evenodd" clip-rule="evenodd" d="M41.5778 160.206C41.1679 159.421 40.7899 161.538 41.3655 161.732C41.812 161.454 41.5326 160.95 41.5778 160.206Z" fill="#598E9C"/>
<path fill-rule="evenodd" clip-rule="evenodd" d="M41.5738 164.062C41.2594 164.3 41.8811 166.401 41.9473 164.857C41.9136 164.594 42.1923 163.611 41.5738 164.062Z" fill="#598E9C"/>
<path fill-rule="evenodd" clip-rule="evenodd" d="M42.4631 163.554C42.4631 163.551 42.4975 164.507 42.5024 164.643C43.1381 165.594 43.0712 162.545 42.4631 163.554Z" fill="#598E9C"/>
<path fill-rule="evenodd" clip-rule="evenodd" d="M43.3118 165.923C43.3118 165.921 43.3406 166.726 43.353 167.069C43.9007 168.401 43.9981 164.832 43.3118 165.923Z" fill="#598E9C"/>
<path fill-rule="evenodd" clip-rule="evenodd" d="M44.3884 162.504C44.393 162.751 44.3362 164.204 44.8593 163.468C44.8547 163.221 44.9115 161.767 44.3884 162.504Z" fill="#598E9C"/>
<path fill-rule="evenodd" clip-rule="evenodd" d="M45.9924 152.522C46.1086 152.78 45.764 154.669 46.4243 154.3C46.6271 154.105 46.5278 151.576 45.9924 152.522Z" fill="#598E9C"/>
<path fill-rule="evenodd" clip-rule="evenodd" d="M46.7817 150.204C46.756 150.467 46.7904 151.613 47.2447 150.95C47.27 150.687 47.2356 149.542 46.7817 150.204Z" fill="#598E9C"/>
<path fill-rule="evenodd" clip-rule="evenodd" d="M47.8398 152.347C47.9456 152.612 47.6221 154.248 48.264 153.907C48.482 153.679 48.3467 151.457 47.8398 152.347Z" fill="#598E9C"/>
<path fill-rule="evenodd" clip-rule="evenodd" d="M49.563 151.74C49.563 151.741 49.5851 152.355 49.6026 152.842C50.0585 154.65 50.3405 150.62 49.563 151.74Z" fill="#598E9C"/>
<path fill-rule="evenodd" clip-rule="evenodd" d="M51.0486 150.596C51.0531 150.843 50.9963 152.296 51.5197 151.56C51.5149 151.313 51.5717 149.86 51.0486 150.596Z" fill="#598E9C"/>
<path fill-rule="evenodd" clip-rule="evenodd" d="M52.0178 153.287C52.134 153.545 51.7897 155.434 52.4497 155.065C52.6525 154.87 52.5532 152.341 52.0178 153.287Z" fill="#598E9C"/>
<path fill-rule="evenodd" clip-rule="evenodd" d="M50.2131 154.66C50.2177 154.908 50.1609 156.361 50.6843 155.625C50.6794 155.378 50.7362 153.925 50.2131 154.66Z" fill="#598E9C"/>
<path fill-rule="evenodd" clip-rule="evenodd" d="M47.7441 155.287C47.3645 155.628 48.0011 157.13 48.0576 155.791C48.1455 155.542 48.213 155.034 47.7441 155.287Z" fill="#598E9C"/>
<path fill-rule="evenodd" clip-rule="evenodd" d="M47.0621 158.154C47.1309 158.365 46.5478 160.472 47.3463 159.781C47.2779 159.569 47.861 157.462 47.0621 158.154Z" fill="#598E9C"/>
<path fill-rule="evenodd" clip-rule="evenodd" d="M49.4324 156.98C48.3778 155.886 49.4353 160.485 49.4863 158.165C49.4402 157.839 49.4194 157.529 49.4324 156.98Z" fill="#598E9C"/>
<path fill-rule="evenodd" clip-rule="evenodd" d="M51.4934 156.905C51.5992 157.169 51.276 158.806 51.9175 158.465C52.1356 158.236 52.0003 156.015 51.4934 156.905Z" fill="#598E9C"/>
<path fill-rule="evenodd" clip-rule="evenodd" d="M52.3363 160.576C52.0812 161.137 52.5417 162.981 52.7438 160.928C52.8529 160.616 52.6809 160.083 52.3363 160.576Z" fill="#598E9C"/>
<path fill-rule="evenodd" clip-rule="evenodd" d="M50.0667 159.682C50.0667 159.683 50.0887 160.298 50.1062 160.785C50.5621 162.592 50.8441 158.563 50.0667 159.682Z" fill="#598E9C"/>
<path fill-rule="evenodd" clip-rule="evenodd" d="M48.908 160.814C48.908 160.812 48.9368 161.617 48.9492 161.961C49.4969 163.292 49.5942 159.723 48.908 160.814Z" fill="#598E9C"/>
<path fill-rule="evenodd" clip-rule="evenodd" d="M47.2075 161.907C46.8623 162.646 47.5385 164.209 47.6316 162.008C47.656 161.847 47.485 161.672 47.2075 161.907Z" fill="#598E9C"/>
<path fill-rule="evenodd" clip-rule="evenodd" d="M47.7378 164.673C47.8436 164.938 47.5201 166.574 48.1619 166.234C48.38 166.005 48.2446 163.783 47.7378 164.673Z" fill="#598E9C"/>
<path fill-rule="evenodd" clip-rule="evenodd" d="M49.7979 164.105C49.4115 165.269 49.9968 166.758 50.2224 164.206C50.2217 164.042 50.0309 163.862 49.7979 164.105Z" fill="#598E9C"/>
<path fill-rule="evenodd" clip-rule="evenodd" d="M51.2812 163.128C51.2812 163.126 51.3153 164.081 51.3205 164.217C51.9559 165.168 51.8893 162.119 51.2812 163.128Z" fill="#598E9C"/>
<path fill-rule="evenodd" clip-rule="evenodd" d="M51.1015 167.061C50.7978 168.328 51.5075 169.575 51.5373 167.045C51.5377 166.865 51.2531 166.757 51.1015 167.061Z" fill="#598E9C"/>
<path fill-rule="evenodd" clip-rule="evenodd" d="M49.4764 166.954C49.0656 168.119 49.6263 169.598 49.9008 167.055C49.9031 166.891 49.7152 166.712 49.4764 166.954Z" fill="#598E9C"/>
<path fill-rule="evenodd" clip-rule="evenodd" d="M48.0653 167.824C47.3232 166.833 47.5676 170.561 48.0786 168.668C48.0926 168.473 48.0971 168.277 48.0653 167.824Z" fill="#598E9C"/>
<path fill-rule="evenodd" clip-rule="evenodd" d="M46.3809 166.358C46.3854 166.605 46.3286 168.058 46.852 167.322C46.8471 167.075 46.9039 165.622 46.3809 166.358Z" fill="#598E9C"/>
<path fill-rule="evenodd" clip-rule="evenodd" d="M94.424 148.68C95.7943 142.349 102.057 133.006 108.349 139.93C111.364 142.339 115.572 164.116 107.931 160.18C107.117 159.536 107.629 156.179 107.338 152.835C107.325 149.068 106.584 150.573 106.949 154.218C107.12 159.805 108.338 168.657 102.757 165.52C102.2 164.595 102.461 161.097 102.022 157.064C101.969 152.993 101.139 153.165 101.587 157.094C102.047 163.383 103.613 173.347 97.3256 169.718C93.7948 163.703 93.3512 153.982 94.424 148.68Z" fill="#7EB1BF"/>
<path fill-rule="evenodd" clip-rule="evenodd" d="M94.0738 150.64C94.7117 144.372 100.949 132.946 107.841 139.399C111.35 141.651 115.592 163.375 108.188 160.397C106.616 160.366 108.054 149.124 106.837 150.908C106.689 154.893 108.353 164.702 105.573 165.917C102.13 167.178 102.527 164.442 102.341 161.714C102.131 158.655 101.83 154.277 101.828 154.247C101.669 153.828 101.265 154.297 101.42 154.652C101.578 160.186 104.383 173.92 97.3255 169.718C94.0553 164.295 93.6286 155.694 94.0738 150.64V150.64ZM95.3717 166.511C96.6762 173.18 102.82 171.858 102.606 165.974C106.338 168.534 108.105 163.569 107.595 160.462C116.906 165.188 111.403 139.849 107.659 138.664C102.439 134.408 98.4826 139.2 96.1671 142.982C91.925 150.152 93.3745 159.023 95.3717 166.511" fill="#598E9C"/>
<path fill-rule="evenodd" clip-rule="evenodd" d="M106.802 142.348C104.633 142.908 103.321 136.456 104.517 137.488C104.686 138.714 104.615 140.376 105.795 141.551C107.719 142.775 107.949 140.847 108.156 139.444C108.961 139.895 108.277 142.415 106.802 142.348Z" fill="#598E9C"/>
<path fill-rule="evenodd" clip-rule="evenodd" d="M102.818 143.144C101.421 143.396 99.0066 138.36 100.341 138.2C100.643 139.685 100.99 142.1 102.796 142.709C104.689 142.051 103.627 138.693 104.085 137.294C104.855 138.386 104.698 142.909 102.818 143.144Z" fill="#598E9C"/>
<path fill-rule="evenodd" clip-rule="evenodd" d="M99.2168 144.354C98.3173 144.823 95.7714 141.668 97.2355 141.936C97.265 142.927 99.1136 144.938 99.9641 143.311C100.596 141.834 99.8006 140.152 100.158 138.743C100.885 139.619 101.102 144.374 99.2168 144.354Z" fill="#598E9C"/>
<path fill-rule="evenodd" clip-rule="evenodd" d="M105.618 146.838C104.495 147.427 102.086 142.157 103.48 142.796C103.745 143.995 104.531 147.431 106.438 146.021C107.331 145.151 106.951 143.654 106.489 142.348C107.526 141.404 107.993 147.161 105.618 146.838Z" fill="#598E9C"/>
<path fill-rule="evenodd" clip-rule="evenodd" d="M102.352 147.996C101.041 148.489 97.548 143.854 99.212 144.094C99.48 145.487 100.917 147.963 102.765 147.408C103.535 146.654 103.417 145.825 103.327 144.593C102.316 139.236 105.551 147.918 102.352 147.996" fill="#598E9C"/>
<path fill-rule="evenodd" clip-rule="evenodd" d="M109.599 146.272C108.912 146.602 105.819 143.353 107.303 143.601C107.622 144.225 108.648 146.147 109.916 145.719C110.469 145.078 110.339 145.123 110.416 144.127C109.847 140.675 112.107 146.059 109.599 146.272" fill="#598E9C"/>
<path fill-rule="evenodd" clip-rule="evenodd" d="M97.6888 148.867C96.1874 149.259 94.0733 145.656 95.4485 144.928C95.5507 146.533 96.0897 149.037 98.3089 148.271C99.8404 147.342 98.6116 145.733 98.9851 144.175C99.8512 144.337 99.905 149.15 97.6888 148.867" fill="#598E9C"/>
<path fill-rule="evenodd" clip-rule="evenodd" d="M99.6025 168.479C99.9964 169.722 99.3783 171.016 99.1667 168.495C99.1534 168.316 99.4292 168.188 99.6025 168.479Z" fill="#598E9C"/>
<path fill-rule="evenodd" clip-rule="evenodd" d="M97.6185 167.398C98.0919 168.531 97.6188 170.055 97.2022 167.529C97.1908 167.365 97.3677 167.173 97.6185 167.398Z" fill="#598E9C"/>
<path fill-rule="evenodd" clip-rule="evenodd" d="M110.612 147.856C110.623 148.253 111.098 149.009 110.968 149.684C110.703 149.714 110.637 149.804 110.509 149.197C110.499 148.877 109.793 147.477 110.612 147.856Z" fill="#598E9C"/>
<path fill-rule="evenodd" clip-rule="evenodd" d="M109.579 148.869C110.049 149.889 109.56 151.138 109.163 149C109.147 148.837 109.32 148.645 109.579 148.869Z" fill="#598E9C"/>
<path fill-rule="evenodd" clip-rule="evenodd" d="M108.46 151.091C109.037 152.169 108.652 153.536 108.044 151.221C108.017 151.06 108.182 150.871 108.46 151.091Z" fill="#598E9C"/>
<path fill-rule="evenodd" clip-rule="evenodd" d="M110.077 151.035C110.241 151.273 110.514 154.021 109.876 152.384C109.889 152.06 109.308 150.649 110.077 151.035Z" fill="#598E9C"/>
<path fill-rule="evenodd" clip-rule="evenodd" d="M111.493 153.33C111.944 154.687 111.338 155.739 111.057 153.346C111.067 153.165 111.358 153.034 111.493 153.33Z" fill="#598E9C"/>
<path fill-rule="evenodd" clip-rule="evenodd" d="M110.8 155.317C110.698 155.58 111.194 157.563 110.501 157.231C110.293 157.066 110.185 154.388 110.8 155.317Z" fill="#598E9C"/>
<path fill-rule="evenodd" clip-rule="evenodd" d="M108.882 153.802C108.833 153.975 109.531 155.662 108.72 155.234C108.723 154.978 108.104 153.245 108.882 153.802Z" fill="#598E9C"/>
<path fill-rule="evenodd" clip-rule="evenodd" d="M109.455 157.329C109.263 157.53 110.191 159.215 109.298 158.81C109.183 158.627 108.691 156.661 109.455 157.329Z" fill="#598E9C"/>
<path fill-rule="evenodd" clip-rule="evenodd" d="M107.627 158.049C108.293 157 108.335 160.746 107.69 158.889C107.661 158.696 107.64 158.501 107.627 158.049Z" fill="#598E9C"/>
<path fill-rule="evenodd" clip-rule="evenodd" d="M107.021 147.384C107.416 148.703 106.822 150.359 106.586 147.4C106.575 147.22 106.852 147.091 107.021 147.384Z" fill="#598E9C"/>
<path fill-rule="evenodd" clip-rule="evenodd" d="M105.285 147.774C105.474 148.02 105.398 150.04 104.949 148.513C104.879 148.266 104.721 147.189 105.285 147.774Z" fill="#598E9C"/>
<path fill-rule="evenodd" clip-rule="evenodd" d="M105.715 150.703C105.997 151.249 105.671 153.324 105.33 151.117C105.208 150.821 105.327 150.216 105.715 150.703Z" fill="#598E9C"/>
<path fill-rule="evenodd" clip-rule="evenodd" d="M103.907 151.64C104.573 150.592 104.616 154.337 103.97 152.48C103.941 152.287 103.92 152.092 103.907 151.64Z" fill="#598E9C"/>
<path fill-rule="evenodd" clip-rule="evenodd" d="M104.027 148.909C104.04 149.156 104.201 150.602 103.626 149.905C103.613 149.658 103.452 148.213 104.027 148.909Z" fill="#598E9C"/>
<path fill-rule="evenodd" clip-rule="evenodd" d="M102.413 149.841C102.321 149.959 102.813 150.803 102.372 151.032C101.927 151.167 101.774 149.176 102.413 149.841Z" fill="#598E9C"/>
<path fill-rule="evenodd" clip-rule="evenodd" d="M103.001 153.744C103.014 153.991 103.175 155.437 102.601 154.74C102.587 154.493 102.426 153.048 103.001 153.744Z" fill="#598E9C"/>
<path fill-rule="evenodd" clip-rule="evenodd" d="M104.987 155.035C104.925 155.207 105.677 156.987 104.845 156.573C104.907 156.4 104.154 154.621 104.987 155.035Z" fill="#598E9C"/>
<path fill-rule="evenodd" clip-rule="evenodd" d="M106.385 153.84C106.414 154.103 106.519 155.39 105.981 154.727C105.952 154.466 105.847 153.178 106.385 153.84Z" fill="#598E9C"/>
<path fill-rule="evenodd" clip-rule="evenodd" d="M103.205 156.733C103.672 158.295 103.006 159.685 102.789 156.864C102.774 156.7 102.948 156.509 103.205 156.733Z" fill="#598E9C"/>
<path fill-rule="evenodd" clip-rule="evenodd" d="M104.585 158.376C104.869 158.931 104.58 161.21 104.205 158.826C104.089 158.548 104.176 157.866 104.585 158.376Z" fill="#598E9C"/>
<path fill-rule="evenodd" clip-rule="evenodd" d="M105.987 157.89C106.34 157.078 106.869 159.162 106.309 159.397C105.844 159.152 106.086 158.628 105.987 157.89Z" fill="#598E9C"/>
<path fill-rule="evenodd" clip-rule="evenodd" d="M106.268 161.737C106.599 161.95 106.129 164.091 105.953 162.556C105.967 162.291 105.619 161.331 106.268 161.737Z" fill="#598E9C"/>
<path fill-rule="evenodd" clip-rule="evenodd" d="M105.344 161.294C105.344 161.291 105.378 162.247 105.384 162.382C104.818 163.376 104.666 160.331 105.344 161.294Z" fill="#598E9C"/>
<path fill-rule="evenodd" clip-rule="evenodd" d="M104.668 163.717C104.668 163.715 104.697 164.52 104.709 164.863C104.259 166.231 103.905 162.678 104.668 163.717Z" fill="#598E9C"/>
<path fill-rule="evenodd" clip-rule="evenodd" d="M103.349 160.384C103.362 160.63 103.523 162.076 102.949 161.379C102.936 161.133 102.774 159.687 103.349 160.384Z" fill="#598E9C"/>
<path fill-rule="evenodd" clip-rule="evenodd" d="M101.032 150.543C100.935 150.809 101.414 152.668 100.729 152.348C100.513 152.167 100.43 149.638 101.032 150.543Z" fill="#598E9C"/>
<path fill-rule="evenodd" clip-rule="evenodd" d="M100.079 148.288C100.123 148.548 100.171 149.694 99.6706 149.065C99.6261 148.805 99.5784 147.659 100.079 148.288Z" fill="#598E9C"/>
<path fill-rule="evenodd" clip-rule="evenodd" d="M99.1768 150.501C99.0905 150.773 99.5301 152.381 98.8659 152.088C98.632 151.876 98.6073 149.65 99.1768 150.501Z" fill="#598E9C"/>
<path fill-rule="evenodd" clip-rule="evenodd" d="M97.4147 150.019C97.4147 150.02 97.4368 150.635 97.4543 151.122C97.1298 152.957 96.5587 148.958 97.4147 150.019Z" fill="#598E9C"/>
<path fill-rule="evenodd" clip-rule="evenodd" d="M95.8508 148.985C95.8641 149.231 96.0247 150.677 95.4504 149.981C95.4371 149.734 95.2761 148.289 95.8508 148.985Z" fill="#598E9C"/>
<path fill-rule="evenodd" clip-rule="evenodd" d="M95.0774 151.739C95.0644 151.787 95.1306 152.926 95.1345 153.327C94.6637 154.789 94.3003 150.631 95.0774 151.739Z" fill="#598E9C"/>
<path fill-rule="evenodd" clip-rule="evenodd" d="M96.9759 152.979C96.9892 153.226 97.1501 154.672 96.5755 153.975C96.5625 153.729 96.4012 152.283 96.9759 152.979Z" fill="#598E9C"/>
<path fill-rule="evenodd" clip-rule="evenodd" d="M99.4837 153.427C99.8871 153.74 99.3595 155.283 99.2069 153.952C99.1018 153.71 98.9977 153.208 99.4837 153.427Z" fill="#598E9C"/>
<path fill-rule="evenodd" clip-rule="evenodd" d="M100.37 156.237C100.316 156.452 101.049 158.512 100.203 157.88C100.256 157.664 99.5234 155.605 100.37 156.237Z" fill="#598E9C"/>
<path fill-rule="evenodd" clip-rule="evenodd" d="M97.9211 155.236C98.8946 154.07 98.1704 158.733 97.9526 156.423C97.9753 156.094 97.9737 155.784 97.9211 155.236Z" fill="#598E9C"/>
<path fill-rule="evenodd" clip-rule="evenodd" d="M95.8601 155.309C95.7738 155.581 96.2138 157.19 95.5493 156.896C95.3153 156.684 95.2906 154.458 95.8601 155.309Z" fill="#598E9C"/>
<path fill-rule="evenodd" clip-rule="evenodd" d="M95.2832 159.032C95.4701 159.27 95.4354 161.324 94.9568 159.778C94.885 159.533 94.7082 158.446 95.2832 159.032Z" fill="#598E9C"/>
<path fill-rule="evenodd" clip-rule="evenodd" d="M97.4825 157.977C97.4825 157.979 97.5046 158.593 97.5224 159.08C97.1973 160.916 96.6268 156.916 97.4825 157.977Z" fill="#598E9C"/>
<path fill-rule="evenodd" clip-rule="evenodd" d="M98.7198 159.023C98.7198 159.021 98.7487 159.826 98.761 160.17C98.3103 161.537 97.9566 157.984 98.7198 159.023Z" fill="#598E9C"/>
<path fill-rule="evenodd" clip-rule="evenodd" d="M100.494 159.991C100.891 160.703 100.329 162.311 100.078 160.122C100.042 159.964 100.2 159.777 100.494 159.991Z" fill="#598E9C"/>
<path fill-rule="evenodd" clip-rule="evenodd" d="M100.164 162.788C100.078 163.06 100.518 164.669 99.853 164.375C99.619 164.163 99.5944 161.937 100.164 162.788Z" fill="#598E9C"/>
<path fill-rule="evenodd" clip-rule="evenodd" d="M98.0683 162.37C98.5375 163.503 98.0605 165.029 97.6523 162.5C97.6413 162.336 97.8185 162.144 98.0683 162.37Z" fill="#598E9C"/>
<path fill-rule="evenodd" clip-rule="evenodd" d="M96.519 161.502C96.519 161.499 96.553 162.455 96.5582 162.59C95.9923 163.585 95.8401 160.539 96.519 161.502Z" fill="#598E9C"/>
<path fill-rule="evenodd" clip-rule="evenodd" d="M96.9804 165.411C97.3744 166.654 96.7559 167.949 96.5447 165.427C96.5313 165.248 96.8075 165.12 96.9804 165.411Z" fill="#598E9C"/>
<path fill-rule="evenodd" clip-rule="evenodd" d="M98.5936 165.188C99.0871 166.32 98.6341 167.835 98.1776 165.319C98.1633 165.155 98.3382 164.963 98.5936 165.188Z" fill="#598E9C"/>
<path fill-rule="evenodd" clip-rule="evenodd" d="M100.063 165.955C100.733 164.913 100.757 168.649 100.111 166.797C100.083 166.604 100.064 166.409 100.063 165.955Z" fill="#598E9C"/>
<path fill-rule="evenodd" clip-rule="evenodd" d="M101.638 164.371C101.652 164.618 101.813 166.064 101.238 165.367C101.225 165.12 101.064 163.675 101.638 164.371Z" fill="#598E9C"/>
<path fill-rule="evenodd" clip-rule="evenodd" d="M42.683 137.77C40.7024 138.292 40.1932 130.906 41.8235 133.274C41.5363 134.021 41.8695 138.01 43.1659 136.507C47.772 130.79 45.6764 136.6 42.683 137.77" fill="#7EB1BF"/>
<path fill-rule="evenodd" clip-rule="evenodd" d="M49.1942 140.828C45.9117 140.382 47.5579 130.385 48.5881 139.443C49.7222 141.306 50.4425 137.874 51.7772 137.629C53.0047 137.684 50.1933 140.983 49.1942 140.828Z" fill="#7EB1BF"/>
<path fill-rule="evenodd" clip-rule="evenodd" d="M55.4132 143.783C53.7561 143.729 54.1763 140.956 53.7749 139.174C54.2714 136.812 55.0258 140.763 55.0505 142.215C55.2367 144.365 57.829 140.707 58.7613 140.044C60.6719 140.149 56.1287 144.055 55.4132 143.783Z" fill="#7EB1BF"/>
<path fill-rule="evenodd" clip-rule="evenodd" d="M63.6773 144.846C61.8067 145.426 60.8618 138.736 62.5582 141.217C62.895 142.09 62.4433 143.081 63.407 143.913C63.9863 144.203 64.2296 143.586 65.036 142.801C65.7599 142.333 65.8443 141.097 66.8989 141.279C67.3651 142.079 64.6398 144.77 63.6773 144.846" fill="#7EB1BF"/>
<path fill-rule="evenodd" clip-rule="evenodd" d="M79.9814 145.274C79.0991 145.565 76.3248 140.531 78.0767 140.838C78.6091 141.203 79.7767 145.643 80.0583 143.951C80.2582 142.439 80.4672 139.653 81.2881 141.522C80.803 143.205 81.463 144.8 79.9814 145.274Z" fill="#7EB1BF"/>
<path fill-rule="evenodd" clip-rule="evenodd" d="M87.0934 143.787C84.4982 142.655 84.1214 136.85 86.8763 142.653C87.1411 143.369 87.5542 142.097 87.7797 141.313C88.894 134.167 89.6455 143.572 87.0934 143.787Z" fill="#7EB1BF"/>
<path fill-rule="evenodd" clip-rule="evenodd" d="M93.2887 141.395C92.103 141.952 89.5246 137.776 91.6698 138.74C91.9025 139.397 92.6423 141.239 93.865 140.185C94.5354 139.24 94.208 138.827 94.6386 137.609C96.2373 134.881 95.3031 141.887 93.2887 141.395Z" fill="#7EB1BF"/>
<path fill-rule="evenodd" clip-rule="evenodd" d="M98.9481 138.229C96.6413 138.287 96.2756 133.239 98.583 137.274C99.256 137.426 99.2155 137.327 99.6078 136.272C101.554 129.964 101.505 137.855 98.9481 138.229Z" fill="#7EB1BF"/>
<path fill-rule="evenodd" clip-rule="evenodd" d="M70.4943 174.586C66.7465 174.443 68.5772 167.346 69.1279 172.295C69.2268 172.853 69.479 173.363 70.1815 173.685C70.7961 173.735 71.4558 173.472 71.8685 172.708C73.8881 167.522 73.5104 174.801 70.4943 174.586" fill="#DEA850"/>
<path fill-rule="evenodd" clip-rule="evenodd" d="M79.5711 174.264C78.2624 174.37 76.2993 171.469 77.447 170.474C77.8269 170.603 77.8883 170.489 78.0025 171.266C78.192 171.995 78.4561 172.988 79.4007 173.377C79.9712 173.458 80.1564 173.044 80.5792 172.274C82.5833 167.119 82.251 174.122 79.5711 174.264" fill="#DEA850"/>
<path fill-rule="evenodd" clip-rule="evenodd" d="M60.7226 153.428C57.2123 153.457 58.5164 146.116 59.4808 151.575C59.7176 151.993 59.9789 152.57 60.7102 152.556C61.5636 152.369 61.8219 152.101 62.2882 151.184C64.032 146.591 63.751 153.642 60.7226 153.428Z" fill="#DEA850"/>
<path fill-rule="evenodd" clip-rule="evenodd" d="M70.6138 153.645C66.866 153.501 68.6964 146.406 69.2474 151.353C69.3463 151.912 69.5985 152.421 70.301 152.744C70.9159 152.793 71.5753 152.531 71.988 151.766C74.0073 146.58 73.6299 153.859 70.6138 153.645" fill="#DEA850"/>
<path fill-rule="evenodd" clip-rule="evenodd" d="M79.6907 153.322C78.382 153.427 76.4189 150.527 77.5666 149.532C77.9469 149.662 78.0076 149.547 78.1221 150.324C78.3116 151.053 78.5758 152.046 79.5203 152.436C80.0908 152.517 80.2761 152.102 80.6989 151.332C82.7029 146.177 82.3706 153.18 79.6907 153.322" fill="#DEA850"/>
<path fill-rule="evenodd" clip-rule="evenodd" d="M87.6999 152.526C85.188 152.372 85.5836 145.895 87.4069 151.587C87.5918 151.622 87.5662 151.746 88.0987 151.533C88.4835 151.324 88.7568 150.948 89.016 150.358C90.4473 146.462 90.4775 152.67 87.6999 152.526Z" fill="#DEA850"/>
<path fill-rule="evenodd" clip-rule="evenodd" d="M65.1446 167.228C61.6336 167.256 62.9387 159.915 63.9028 165.375C64.1396 165.792 64.4008 166.369 65.1319 166.356C65.985 166.169 66.2439 165.901 66.7099 164.984C68.454 160.391 68.173 167.441 65.1446 167.228" fill="#DEA850"/>
<path fill-rule="evenodd" clip-rule="evenodd" d="M75.0357 167.444C71.2862 167.299 73.1222 160.206 73.6692 165.153C73.7682 165.711 74.0203 166.22 74.7229 166.543C75.3381 166.592 75.9971 166.33 76.4099 165.565C78.4295 160.379 78.0518 167.659 75.0357 167.444" fill="#DEA850"/>
<path fill-rule="evenodd" clip-rule="evenodd" d="M84.1126 167.122C82.8039 167.227 80.8408 164.327 81.9885 163.332C82.3694 163.463 82.4298 163.346 82.544 164.124C82.7335 164.852 82.9976 165.845 83.9422 166.235C84.5127 166.316 84.6979 165.901 85.1207 165.131C87.1248 159.976 86.7925 166.98 84.1126 167.122" fill="#DEA850"/>
<path fill-rule="evenodd" clip-rule="evenodd" d="M60.9732 160.399C57.4632 160.427 58.7663 153.086 59.7314 158.545C59.9682 158.962 60.2295 159.54 60.9609 159.526C61.8143 159.339 62.0725 159.071 62.5385 158.154C64.2823 153.561 64.0016 160.612 60.9732 160.399Z" fill="#DEA850"/>
<path fill-rule="evenodd" clip-rule="evenodd" d="M70.8642 160.615C67.1171 160.471 68.9449 153.374 69.4978 158.323C69.5968 158.882 69.8489 159.391 70.5514 159.714C71.166 159.763 71.8257 159.501 72.2384 158.736C74.2577 153.55 73.8807 160.829 70.8642 160.615" fill="#DEA850"/>
<path fill-rule="evenodd" clip-rule="evenodd" d="M79.941 160.293C78.6324 160.398 76.6692 157.498 77.8172 156.502C78.1972 156.633 78.2582 156.517 78.3728 157.294C78.5619 158.023 78.8261 159.016 79.7707 159.405C80.3411 159.487 80.5264 159.072 80.9492 158.302C82.9532 153.147 82.621 160.151 79.941 160.293" fill="#DEA850"/>
<path fill-rule="evenodd" clip-rule="evenodd" d="M87.9505 159.497C85.4389 159.342 85.8342 152.866 87.6578 158.557C87.8424 158.592 87.8168 158.716 88.3496 158.503C88.7341 158.294 89.0073 157.918 89.2666 157.329C90.6979 153.432 90.7281 159.641 87.9505 159.497Z" fill="#DEA850"/>
<path fill-rule="evenodd" clip-rule="evenodd" d="M74.6283 109.308C74.3035 109.922 73.7311 112.311 74.9814 111.095C75.3922 110.16 75.8273 108.297 74.6283 109.308Z" fill="#E7C46D"/>
<path fill-rule="evenodd" clip-rule="evenodd" d="M73.4965 113.021C73.4183 113.549 72.0609 115.424 73.1415 115.6C73.8255 115.585 74.9349 111.926 73.4965 113.021Z" fill="#E7C46D"/>
<path fill-rule="evenodd" clip-rule="evenodd" d="M64.6474 100.564C65.8487 101.528 65.4541 98.1507 63.9199 99.0242C64.1623 99.5376 64.405 100.051 64.6474 100.564Z" fill="#E7C46D"/>
<path fill-rule="evenodd" clip-rule="evenodd" d="M67.4593 104.496C67.1792 103.962 65.9488 100.507 65.501 102.336C65.781 102.87 67.0118 106.326 67.4593 104.496Z" fill="#E7C46D"/>
<path fill-rule="evenodd" clip-rule="evenodd" d="M69.025 108.697C68.6756 108.319 67.9455 105.522 67.1901 106.903C67.1732 107.529 68.9283 110.666 69.025 108.697Z" fill="#E7C46D"/>
<path fill-rule="evenodd" clip-rule="evenodd" d="M70.7984 113.133C70.3668 112.736 70.2292 109.834 69.1921 110.959C68.9511 111.655 70.5689 115.239 70.7984 113.133Z" fill="#E7C46D"/>
<path fill-rule="evenodd" clip-rule="evenodd" d="M72.3431 116.141C72.2324 115.763 70.8663 113.687 70.8254 115.332C70.9364 115.71 72.3022 117.786 72.3431 116.141Z" fill="#E7C46D"/>
<path fill-rule="evenodd" clip-rule="evenodd" d="M70.5542 98.3139C70.527 98.3136 70.4978 98.3136 70.4702 98.3133C70.3923 103.341 72.7176 97.8492 70.5542 98.3139Z" fill="#E7C46D"/>
<path fill-rule="evenodd" clip-rule="evenodd" d="M70.8936 102.009C70.999 102.431 70.7823 104.728 71.1723 104.96C72.5299 105.808 71.8031 99.9052 70.8936 102.009Z" fill="#E7C46D"/>
<path fill-rule="evenodd" clip-rule="evenodd" d="M72.0873 106.91C70.5788 104.828 71.2836 111.395 72.2924 108.967C72.1876 108.487 72.0821 107.701 72.0873 106.91Z" fill="#E7C46D"/>
<path fill-rule="evenodd" clip-rule="evenodd" d="M71.679 111.723C71.6761 111.704 71.7563 113.827 71.7572 113.901C73.1013 115.952 72.8183 109.559 71.679 111.723Z" fill="#E7C46D"/>
<path fill-rule="evenodd" clip-rule="evenodd" d="M77.8168 99.1965C76.539 102.116 78.0148 102.5 78.6689 99.4075C78.3834 99.3328 78.0991 99.2624 77.8168 99.1965Z" fill="#E7C46D"/>
<path fill-rule="evenodd" clip-rule="evenodd" d="M76.3217 103.293C76.3064 103.974 74.7807 107.043 76.3139 106.506C76.7043 106.035 77.8348 101.863 76.3217 103.293Z" fill="#E7C46D"/>
<path fill-rule="evenodd" clip-rule="evenodd" d="M7.58853 129.31C5.9781 130.072 4.32354 130.693 2.62322 131.203C3.87412 128.064 7.46392 123.96 6.56737 122.624C-0.33448 124.691 -2.41639 128.323 5.59293 123.88C4.37026 126.917 0.796033 131.057 1.70784 132.3C2.81791 132.395 10.4586 129.596 7.58853 129.31" fill="#E7C46D"/>
<path fill-rule="evenodd" clip-rule="evenodd" d="M9.60112 124.167C8.93495 124.472 6.35528 125.947 8.24671 125.967C9.05696 125.543 11.3855 124.307 9.60112 124.167Z" fill="#E7C46D"/>
<path fill-rule="evenodd" clip-rule="evenodd" d="M19.0731 121.446C17.4023 122.28 15.7319 123.114 14.0611 123.948C14.4492 120.356 16.1907 116.14 15.8818 112.78C9.3716 114.216 7.78388 117.576 15.1371 113.837C12.6931 127.821 10.8795 126.259 19.5401 122.182C19.9106 121.996 19.6864 121.297 19.0731 121.446" fill="#E7C46D"/>
<path fill-rule="evenodd" clip-rule="evenodd" d="M21.1664 114.432C20.8452 114.826 17.1369 116.142 18.2029 116.883C18.8275 117.197 23.4287 114.351 21.1664 114.432Z" fill="#E7C46D"/>
<path fill-rule="evenodd" clip-rule="evenodd" d="M32.6281 114.856C30.1204 115.851 27.6884 116.986 25.3109 118.252C26.3632 114.19 28.3172 109.909 29.4494 105.832C28.24 105.156 26.0234 106.923 24.733 107.284C24.1232 107.741 22.4713 107.937 23.1475 108.851C24.7755 108.719 26.5462 107.101 28.3254 106.74C22.116 124.557 22.5092 119.573 32.8899 115.688C33.2731 115.535 33.2326 114.768 32.6281 114.856" fill="#E7C46D"/>
</svg>
