<svg width="189" height="250" viewBox="0 0 189 250" fill="none" xmlns="http://www.w3.org/2000/svg">
<path fill-rule="evenodd" clip-rule="evenodd" d="M188.671 154.666C178.879 132.742 141.531 123.282 125.053 120.909C124.533 116.911 115.76 93.9909 113.086 89.4984C116.224 91.5978 128.187 93.1752 130.606 87.7027C101.779 81.1725 95.4616 15.203 61.7765 118.247C61.0622 120.108 61.407 120.977 60.3677 120.953C41.2759 123.811 7.76132 134.959 0 154.91C0.507789 155.447 20.3428 176.268 43.2905 181.185C31.5952 196.598 17.4633 227.69 29.8445 249.472C60.3142 248.516 85.4787 229.358 94.312 199.222C104.308 232.783 131.842 248.579 158.565 249.472C172.326 227.321 154.892 193.477 145.333 181.185C168.521 175.998 188.626 155.332 188.671 154.666" fill="#FBEF66"/>
<path fill-rule="evenodd" clip-rule="evenodd" d="M97.1979 108.795C104.887 108.795 112.636 107.744 120.106 105.635C117.411 98.853 114.311 92.1153 113.086 89.4986C116.223 91.598 128.186 93.1749 130.605 87.7024C112.298 84.03 104.529 56.2337 90.4555 61.7474C84.2232 64.5492 77.9336 76.0129 72.6724 88.1742C70.5906 93.0053 68.7115 97.8909 67.065 102.433C66.7173 103.181 67.1123 102.96 68.1194 103.431C77.3766 107.064 87.0279 108.752 97.1979 108.795Z" fill="#DBEEE9"/>
<path fill-rule="evenodd" clip-rule="evenodd" d="M70.3066 93.8903C69.6661 95.4975 69.0489 97.0938 68.4583 98.6603C84.2452 104.335 101.738 104.838 117.84 100.14C117.123 98.4552 116.422 96.8527 115.776 95.3994C100.84 99.5693 84.9453 99.0278 70.3066 93.8903" fill="#C54554"/>
<path fill-rule="evenodd" clip-rule="evenodd" d="M123.686 84.8771C117.432 80.0934 119.198 81.1568 113.676 82.8052C108.072 84.2613 101.94 84.3428 95.6953 84.3338C73.5998 83.9477 76.4959 78.7396 73.3047 86.724C90.3891 91 112.941 91.6465 123.686 84.8771" fill="#C54554"/>
<path fill-rule="evenodd" clip-rule="evenodd" d="M82.2278 69.9012C81.2738 71.301 80.3298 72.8258 79.4009 74.4462C90.0905 77.511 101.46 77.7729 112.27 75.2477C110.419 74.0976 109.567 70.2565 106.961 71.0589C98.5751 72.407 90.4818 71.9784 82.2278 69.9012Z" fill="#C54554"/>
<path fill-rule="evenodd" clip-rule="evenodd" d="M127.55 88.6078C127.96 81.7948 137.251 82.4395 137.399 88.6078C136.988 95.4208 127.698 94.7761 127.55 88.6078" fill="#C54554"/>
<path fill-rule="evenodd" clip-rule="evenodd" d="M101.971 137.97C107.412 143.801 116.31 145.36 123.581 139.259C120.437 149.14 104.328 148.989 101.971 137.97Z" fill="#282D3B"/>
<path fill-rule="evenodd" clip-rule="evenodd" d="M106.485 155.01C106.95 150.575 116.61 151.151 117.109 155.192C117.463 160.161 106.289 159.498 106.485 155.01Z" fill="#FAC85F"/>
<path fill-rule="evenodd" clip-rule="evenodd" d="M64.1867 153.257C65.288 148.408 75.6948 150.249 75.7379 154.677C75.4215 160.156 63.4738 158.071 64.1867 153.257Z" fill="#FAC85F"/>
<path fill-rule="evenodd" clip-rule="evenodd" d="M122.623 144.494C121.776 144.7 119.294 142.182 121.391 142.137C121.488 142.989 124.21 143.628 122.623 144.494Z" fill="#282D3B"/>
<path fill-rule="evenodd" clip-rule="evenodd" d="M124.131 142.133C123.541 141.915 122.558 141.984 122.025 141.454C121.17 139.764 126.292 141.099 124.131 142.133Z" fill="#282D3B"/>
<path fill-rule="evenodd" clip-rule="evenodd" d="M101.425 141.126C99.8486 140.978 102.556 138.392 103.172 139.9C103.044 140.626 102.393 140.852 101.425 141.126Z" fill="#282D3B"/>
<path fill-rule="evenodd" clip-rule="evenodd" d="M102.727 143.402C101.452 143.654 103.433 140.067 104.408 141.184C104.61 142.052 103.767 142.965 102.727 143.402Z" fill="#282D3B"/>
<path fill-rule="evenodd" clip-rule="evenodd" d="M104.887 146.1C103.866 146.151 105.088 143.343 106.119 143.169C106.939 143.644 106.041 145.618 104.887 146.1Z" fill="#282D3B"/>
<path fill-rule="evenodd" clip-rule="evenodd" d="M108.347 147.723C107.632 147.787 107.782 145.462 108.602 144.883C109.519 144.879 109.508 147.334 108.347 147.723Z" fill="#282D3B"/>
<path fill-rule="evenodd" clip-rule="evenodd" d="M112.025 148.372C111.342 148.449 110.85 144.846 112.419 145.691C112.606 146.297 113.031 148.123 112.025 148.372Z" fill="#282D3B"/>
<path fill-rule="evenodd" clip-rule="evenodd" d="M115.919 148.263C114.83 148.346 114.317 144.251 115.933 146.038C115.757 146.563 117.163 147.884 115.919 148.263Z" fill="#282D3B"/>
<path fill-rule="evenodd" clip-rule="evenodd" d="M119.682 146.903C118.978 146.95 116.836 144.462 118.804 144.508C118.973 145.176 121.129 146.264 119.682 146.903Z" fill="#282D3B"/>
<path fill-rule="evenodd" clip-rule="evenodd" d="M83.3181 138.045C76.6936 142.485 67.6737 141.978 61.9824 134.383C62.7953 144.72 78.5154 148.239 83.3181 138.045Z" fill="#282D3B"/>
<path fill-rule="evenodd" clip-rule="evenodd" d="M61.7234 139.698C62.5017 140.091 65.4921 138.203 63.459 137.683C63.1715 138.491 60.3753 138.494 61.7234 139.698Z" fill="#282D3B"/>
<path fill-rule="evenodd" clip-rule="evenodd" d="M60.7927 137.056C61.4165 136.977 62.3582 137.269 62.9982 136.874C64.2151 135.422 58.9235 135.557 60.7927 137.056Z" fill="#282D3B"/>
<path fill-rule="evenodd" clip-rule="evenodd" d="M83.132 141.242C84.7009 141.458 82.6531 138.324 81.71 139.651C81.6693 140.387 82.2519 140.756 83.132 141.242Z" fill="#282D3B"/>
<path fill-rule="evenodd" clip-rule="evenodd" d="M81.3458 143.163C82.5305 143.698 81.4178 139.755 80.2141 140.62C79.82 141.419 80.433 142.501 81.3458 143.163Z" fill="#282D3B"/>
<path fill-rule="evenodd" clip-rule="evenodd" d="M78.6288 145.298C79.5923 145.585 79.1163 142.677 78.0969 142.164C77.1888 142.44 77.6147 144.566 78.6288 145.298" fill="#282D3B"/>
<path fill-rule="evenodd" clip-rule="evenodd" d="M74.8901 146.091C75.5713 146.316 75.9554 144.017 75.2885 143.267C74.396 143.055 73.8475 145.447 74.8901 146.091Z" fill="#282D3B"/>
<path fill-rule="evenodd" clip-rule="evenodd" d="M71.1609 145.886C71.8089 146.117 73.1077 142.72 71.3877 143.186C71.068 143.733 70.2376 145.415 71.1609 145.886Z" fill="#282D3B"/>
<path fill-rule="evenodd" clip-rule="evenodd" d="M67.3935 144.894C68.3309 145.239 69.9371 141.346 67.8861 142.724C67.9387 143.275 66.2685 144.242 67.3935 144.894Z" fill="#282D3B"/>
<path fill-rule="evenodd" clip-rule="evenodd" d="M64.0389 142.714C64.7144 142.919 67.3661 140.984 65.4391 140.581C65.1227 141.193 62.7756 141.762 64.0389 142.714Z" fill="#282D3B"/>
<path fill-rule="evenodd" clip-rule="evenodd" d="M87.6922 164.915C86.8457 160.987 80.6817 161.725 80.6519 165.655C81.253 169.905 89.218 169.78 87.6922 164.915Z" fill="#E0929A"/>
<path fill-rule="evenodd" clip-rule="evenodd" d="M151.098 133.983C143.826 130.481 138.751 141.332 146.138 144.463C153.411 147.216 157.045 137.33 151.098 133.983Z" fill="#FBDD66"/>
<path fill-rule="evenodd" clip-rule="evenodd" d="M152.915 165.501C152.475 157.433 141.959 158.112 141.786 165.501C142.226 173.569 152.741 172.89 152.915 165.501Z" fill="#FBDD66"/>
<path fill-rule="evenodd" clip-rule="evenodd" d="M81.3023 116.143C80.8623 108.075 70.3469 108.754 70.1731 116.143C70.6131 124.211 81.1285 123.532 81.3023 116.143Z" fill="#FBDD66"/>
<path fill-rule="evenodd" clip-rule="evenodd" d="M115.031 116.143C114.623 109.137 105.563 109.8 105.414 116.143C105.822 123.149 114.882 122.486 115.031 116.143Z" fill="#FBDD66"/>
<path fill-rule="evenodd" clip-rule="evenodd" d="M94.4993 125.212C94.1914 118.902 85.8588 119.36 85.7144 125.212C86.0223 131.522 94.3544 131.065 94.4993 125.212Z" fill="#FBDD66"/>
<path fill-rule="evenodd" clip-rule="evenodd" d="M108.666 185.931C108.358 179.621 100.026 180.078 99.8809 185.931C100.189 192.241 108.521 191.783 108.666 185.931Z" fill="#FBDD66"/>
<path fill-rule="evenodd" clip-rule="evenodd" d="M70.771 182.208C70.4631 175.898 62.1306 176.355 61.9861 182.208C62.294 188.518 70.6261 188.06 70.771 182.208Z" fill="#FBDD66"/>
<path fill-rule="evenodd" clip-rule="evenodd" d="M120.192 203.702C119.752 195.634 109.237 196.313 109.063 203.702C109.503 211.769 120.019 211.091 120.192 203.702Z" fill="#FBDD66"/>
<path fill-rule="evenodd" clip-rule="evenodd" d="M163.604 152.547C164.158 142.073 177.43 142.874 177.662 152.547C177.109 163.021 163.836 162.22 163.604 152.547Z" fill="#FBDD66"/>
<path fill-rule="evenodd" clip-rule="evenodd" d="M41.4487 133.983C48.7202 130.481 53.7948 141.332 46.4081 144.463C39.1347 147.216 35.5011 137.33 41.4487 133.983Z" fill="#FBDD66"/>
<path fill-rule="evenodd" clip-rule="evenodd" d="M39.6313 165.501C40.0714 157.433 50.5867 158.112 50.7606 165.501C50.3205 173.569 39.8052 172.89 39.6313 165.501Z" fill="#FBDD66"/>
<path fill-rule="evenodd" clip-rule="evenodd" d="M28.9418 152.547C28.3885 142.073 15.1159 142.874 14.8838 152.547C15.4371 163.021 28.7102 162.22 28.9418 152.547Z" fill="#FBDD66"/>
<path fill-rule="evenodd" clip-rule="evenodd" d="M136.306 225.731C136.981 213.012 153.098 213.93 153.394 225.731C152.719 238.451 136.603 237.533 136.306 225.731Z" fill="#FBDD66"/>
<path fill-rule="evenodd" clip-rule="evenodd" d="M130.489 200.271C130.937 191.818 142.02 192.491 142.204 200.271C141.756 208.724 130.673 208.052 130.489 200.271Z" fill="#FBDD66"/>
<path fill-rule="evenodd" clip-rule="evenodd" d="M70.6038 203.702C71.0438 195.634 81.5591 196.313 81.733 203.702C81.2929 211.769 70.7776 211.091 70.6038 203.702Z" fill="#FBDD66"/>
<path fill-rule="evenodd" clip-rule="evenodd" d="M54.4893 225.731C53.8148 213.012 37.6982 213.93 37.4021 225.731C38.0766 238.451 54.1933 237.533 54.4893 225.731Z" fill="#FBDD66"/>
<path fill-rule="evenodd" clip-rule="evenodd" d="M60.3067 200.271C59.8586 191.818 48.7758 192.491 48.592 200.271C49.0401 208.724 60.1229 208.052 60.3067 200.271Z" fill="#FBDD66"/>
<path fill-rule="evenodd" clip-rule="evenodd" d="M100.656 16.1707C102.595 -5.09013 124.796 -3.00829 129.269 8.77319C120.72 3.09229 112.628 11.0942 116.166 19.666L100.656 16.1707Z" fill="#DBEEE9"/>
<path fill-rule="evenodd" clip-rule="evenodd" d="M127.319 9.42364C127.492 5.51148 133.037 5.69811 133.171 9.42364C132.997 13.3363 127.452 13.1492 127.319 9.42364" fill="#C54554"/>
<path fill-rule="evenodd" clip-rule="evenodd" d="M90.8909 60.8624C92.4474 56.9791 91.2637 54.9413 90.007 60.5024C90.052 61.4407 88.5258 60.7392 88.5419 61.9964C88.6366 62.283 89.2145 62.3033 89.6759 62.0044C89.4897 62.4795 90.6232 63.1375 90.6294 61.9078C91.9832 63.4861 92.3512 61.6894 90.8909 60.8624Z" fill="#7FB6C4"/>
<path fill-rule="evenodd" clip-rule="evenodd" d="M101.393 62.7021C99.6603 62.0987 101.817 59.1609 100.469 58.087C100.177 58.2263 99.945 58.1159 99.9322 59.069C99.7001 60.1016 100.12 61.4156 99.441 62.2848C98.2842 62.966 98.5613 64.5448 99.7304 63.37C99.72 63.7547 100.654 64.5694 100.768 63.4454C101.037 63.7916 102.237 63.4378 101.393 62.7021" fill="#7FB6C4"/>
<path fill-rule="evenodd" clip-rule="evenodd" d="M127.153 32.5915C125.476 27.9309 121.549 35.0471 121.96 37.2748C124.23 36.9986 127.095 35.427 127.153 32.5915Z" fill="#F2AA3C"/>
<path fill-rule="evenodd" clip-rule="evenodd" d="M126.094 39.7552C125.525 38.5302 121.013 34.5053 122.143 38.3536C122.162 41.6419 127.291 44.6157 126.094 39.7552Z" fill="#F2AA3C"/>
<path fill-rule="evenodd" clip-rule="evenodd" d="M121.184 24.8673C114.091 11.3455 100.15 10.9282 92.2851 20.0641C84.1808 28.8936 81.649 47.1949 69.4114 41.4969C72.4989 48.8376 83.134 54.1552 88.7424 56.2522C113.026 66.1417 129.635 43.034 121.184 24.8673" fill="#97D9EA"/>
<path fill-rule="evenodd" clip-rule="evenodd" d="M70.3301 42.8946C65.8106 41.0202 63.3271 33.7691 68.0242 31.2495C70.4703 30.1032 73.9632 34.149 71.2177 36.1152C70.3305 37.0654 67.8854 34.6065 70.0027 35.1015C72.0443 36.1228 71.2968 32.0965 69.1458 32.0581C65.7339 31.998 65.9717 37.3288 67.7409 39.4836C68.2539 41.1538 71.8781 41.8155 70.3301 42.8946" fill="#97D9EA"/>
<path fill-rule="evenodd" clip-rule="evenodd" d="M69.1144 42.9304C51.9533 41.7382 63.8877 30.0173 63.8418 37.8232C62.9693 39.1646 62.2275 38.771 63.0166 36.8298C62.4999 35.4159 60.2044 36.6802 60.8074 38.3044C61.1821 42.6268 75.223 41.7292 69.1144 42.9304Z" fill="#97D9EA"/>
<path fill-rule="evenodd" clip-rule="evenodd" d="M102.103 36.1488C95.5773 31.3807 89.2991 37.9047 89.2796 44.3819C88.7041 48.7364 93.6366 55.0696 96.4716 49.8378C97.4777 52.9418 101.603 51.7045 101.803 49.1078C112.292 53.5306 106.826 38.8426 102.103 36.1488" fill="#BF618D"/>
<path fill-rule="evenodd" clip-rule="evenodd" d="M107.49 28.5251C110.532 30.2938 115.172 29.8637 117.551 26.1254C118.013 30.7495 110.217 33.9899 107.49 28.5251Z" fill="#282D3B"/>
<path fill-rule="evenodd" clip-rule="evenodd" d="M116.458 30.8098C115.89 30.8643 114.585 27.8938 116.517 29.3442C116.718 29.6933 117.354 30.5228 116.458 30.8098Z" fill="#1C3338"/>
<path fill-rule="evenodd" clip-rule="evenodd" d="M117.799 28.7983C117.108 28.7117 115.821 26.3513 117.921 27.5445C118.209 27.9334 118.593 28.5165 117.799 28.7983Z" fill="#1C3338"/>
<path fill-rule="evenodd" clip-rule="evenodd" d="M107.626 30.6276C106.207 30.5419 108.913 27.8935 108.906 29.6831C108.77 29.9673 108.336 30.4746 107.626 30.6276Z" fill="#1C3338"/>
<path fill-rule="evenodd" clip-rule="evenodd" d="M109.411 31.8555C108.568 31.8801 109.312 29.5856 110.277 29.8854C110.684 30.2246 110.186 31.5921 109.411 31.8555Z" fill="#1C3338"/>
<path fill-rule="evenodd" clip-rule="evenodd" d="M111.891 32.5759C111.271 32.7483 111.354 29.9901 112.51 30.4609C112.809 30.9398 112.829 32.1439 111.891 32.5759Z" fill="#1C3338"/>
<path fill-rule="evenodd" clip-rule="evenodd" d="M114.514 32.1504C113.959 32.2565 113.186 29.2486 114.635 30.2405C114.692 30.5882 115.504 31.8274 114.514 32.1504Z" fill="#1C3338"/>
<path fill-rule="evenodd" clip-rule="evenodd" d="M102.32 9.32845C101.896 10.3952 101.574 11.4349 101.335 12.3686C106.138 11.7281 111.185 12.7556 115.369 15.2073C115.38 14.1515 115.543 13.1151 115.88 12.145C111.748 9.97218 106.973 8.98029 102.32 9.32845Z" fill="#C54554"/>
<path fill-rule="evenodd" clip-rule="evenodd" d="M106.239 3.32666C105.322 4.17598 104.553 5.14561 103.91 6.16592C116.2 6.35445 114.998 12.5337 119.077 8.13455C115.346 5.3924 110.847 3.71508 106.239 3.32666" fill="#C54554"/>
<path fill-rule="evenodd" clip-rule="evenodd" d="M124.924 7.06688C120.726 0.838403 117.576 -1.06581 110.876 0.717614C120.538 2.72035 118.916 7.9593 124.924 7.06688Z" fill="#C54554"/>
<path fill-rule="evenodd" clip-rule="evenodd" d="M103.195 37.0521C102.15 38.3813 100.578 36.5789 99.6711 36.6561C98.9956 38.8516 96.5732 38.7072 95.37 36.9176C94.6008 38.1795 92.9884 39.7867 91.0605 38.4357C90.573 40.0273 94.8651 39.5224 95.4155 37.7096C96.3605 39.1401 99.1481 39.2581 99.9984 37.2203C100.867 37.9843 102.323 38.4817 103.545 37.3946C103.43 37.2785 103.314 37.163 103.195 37.0521" fill="#D47FA6"/>
<path fill-rule="evenodd" clip-rule="evenodd" d="M106.473 41.6111C106.394 41.4434 106.315 41.2753 106.228 41.11C104.524 43.4936 102.958 41.8982 101.371 41.0503C100.288 42.6357 97.7963 43.278 95.9944 41.9399C95.5752 41.803 95.4355 40.9276 94.8756 41.2535C93.7729 42.8924 91.5186 43.6731 89.4443 42.558C89.5864 44.4641 94.1608 43.4756 95.0978 41.7845C96.6524 43.5651 99.8782 43.6603 101.556 41.614C102.611 43.063 105.173 43.3775 106.473 41.6111" fill="#D47FA6"/>
<path fill-rule="evenodd" clip-rule="evenodd" d="M107.864 46.6521C107.848 46.4195 107.822 46.1855 107.792 45.9506C103.181 50.9986 101.463 43.9668 100.242 46.878C98.2716 49.1527 96.4048 46.9046 94.9331 46.1893C94.1728 48.2233 91.1105 48.9585 89.5378 46.9898C89.8666 49.4194 94.1259 49.012 95.1832 46.7975C96.4233 48.7249 99.6917 48.8457 101.04 46.6421C102.684 48.5705 106.001 48.8675 107.864 46.6521Z" fill="#D47FA6"/>
<path fill-rule="evenodd" clip-rule="evenodd" d="M87.0459 44.9683C86.3041 45.3581 87.3178 43.6874 86.4206 44.0569C85.4008 46.3268 88.4712 45.1923 87.0459 44.9683Z" fill="#6B9AA6"/>
<path fill-rule="evenodd" clip-rule="evenodd" d="M87.1457 41.786C86.6053 42.199 87.3551 41.3412 86.7872 41.1825C86.529 41.3151 86.2372 41.6874 86.5461 42.2928C87.0259 42.9209 88.2248 41.3753 87.1457 41.786Z" fill="#6B9AA6"/>
<path fill-rule="evenodd" clip-rule="evenodd" d="M75.8788 45.8953C75.479 46.5456 74.8604 46.5849 74.1664 46.0336C73.2101 47.6086 77.3463 46.7133 75.8788 45.8953Z" fill="#6B9AA6"/>
<path fill-rule="evenodd" clip-rule="evenodd" d="M78.6621 48.1613C78.3494 49.381 76.9672 47.4744 77.2775 48.8273C77.5949 49.9437 79.9836 48.2513 78.6621 48.1613Z" fill="#6B9AA6"/>
<path fill-rule="evenodd" clip-rule="evenodd" d="M81.8788 50.5553C81.2331 51.5127 80.9826 50.3374 80.3791 50.57C79.8808 52.02 83.1989 51.2171 81.8788 50.5553Z" fill="#6B9AA6"/>
<path fill-rule="evenodd" clip-rule="evenodd" d="M84.9812 52.925C84.3607 53.9662 83.9528 51.1407 83.6705 52.8805C83.589 54.3816 86.3009 53.1363 84.9812 52.925Z" fill="#6B9AA6"/>
<path fill-rule="evenodd" clip-rule="evenodd" d="M87.6743 54.7535C87.3849 55.2457 85.5186 53.71 86.7876 55.2916C87.338 55.8563 88.7885 54.6228 87.6743 54.7535Z" fill="#6B9AA6"/>
<path fill-rule="evenodd" clip-rule="evenodd" d="M90.9363 55.7135C90.5351 56.3965 89.1126 54.5008 89.8387 56.3378C89.9974 56.6338 92.1631 56.0086 90.9363 55.7135Z" fill="#6B9AA6"/>
<path fill-rule="evenodd" clip-rule="evenodd" d="M74.7041 43.746C74.4384 44.8473 73.0955 43.1581 73.3825 44.4058C73.6876 45.3939 75.8755 44.0122 74.7041 43.746Z" fill="#6B9AA6"/>
<path fill-rule="evenodd" clip-rule="evenodd" d="M78.3933 44.1416C78.0892 44.7688 77.3171 42.83 77.3834 44.3131C77.5776 45.4016 79.6486 44.117 78.3933 44.1416Z" fill="#6B9AA6"/>
<path fill-rule="evenodd" clip-rule="evenodd" d="M80.7906 46.3656C80.3662 46.9572 80.4974 46.098 79.9844 45.9061C79.4733 46.1259 79.7712 46.7171 80.3316 47.079C80.7697 47.5072 81.8024 45.6887 80.7906 46.3656Z" fill="#6B9AA6"/>
<path fill-rule="evenodd" clip-rule="evenodd" d="M83.5614 48.7985C83.1635 49.6133 81.6709 47.2254 82.47 49.2315C82.9053 50.1144 84.7655 48.7237 83.5614 48.7985Z" fill="#6B9AA6"/>
<path fill-rule="evenodd" clip-rule="evenodd" d="M86.1426 50.9254C85.6812 50.6047 84.56 50.1765 85.7712 51.4782C86.2326 51.6293 86.999 50.997 86.1426 50.9254Z" fill="#6B9AA6"/>
<path fill-rule="evenodd" clip-rule="evenodd" d="M81.9968 44.5774C80.9505 45.0207 82.5046 42.893 81.1385 43.9246C80.1073 45.2585 83.262 45.2628 81.9968 44.5774Z" fill="#6B9AA6"/>
<path fill-rule="evenodd" clip-rule="evenodd" d="M84.5494 46.1657C83.9658 46.816 84.0757 44.5206 83.4969 45.9288C83.1231 47.2073 85.7976 46.6446 84.5494 46.1657Z" fill="#6B9AA6"/>
<path fill-rule="evenodd" clip-rule="evenodd" d="M86.353 47.8166C85.6444 48.1918 86.5382 47.1492 85.6941 47.18C85.5103 47.3695 85.3578 47.7636 85.7012 48.2723C85.9385 48.8114 87.4917 47.6703 86.353 47.8166Z" fill="#6B9AA6"/>
<path fill-rule="evenodd" clip-rule="evenodd" d="M85.032 43.4575C83.7886 44.2865 85.465 41.4652 83.9691 43.0449C83.1827 44.5437 86.3578 44.0027 85.032 43.4575Z" fill="#6B9AA6"/>
<path fill-rule="evenodd" clip-rule="evenodd" d="M108.452 56.0758C107.698 56.3633 106.695 58.1288 108.797 56.4211C108.886 56.2553 108.891 56.1203 108.452 56.0758Z" fill="#6B9AA6"/>
<path fill-rule="evenodd" clip-rule="evenodd" d="M106.29 56.0892C105.678 56.0997 103.752 57.9489 106.537 56.5108C106.686 56.408 106.696 56.1366 106.29 56.0892Z" fill="#6B9AA6"/>
<path fill-rule="evenodd" clip-rule="evenodd" d="M120.121 43.2684C120.101 43.5734 119.624 43.8931 119.548 44.7415C119.944 45.4189 121.178 42.6966 120.121 43.2684Z" fill="#6B9AA6"/>
<path fill-rule="evenodd" clip-rule="evenodd" d="M118.011 44.9093C117.978 45.0206 116.995 46.3536 117.936 46.0452C117.969 45.9344 118.951 44.601 118.011 44.9093Z" fill="#6B9AA6"/>
<path fill-rule="evenodd" clip-rule="evenodd" d="M118.812 47.2604C118.32 47.5929 117.751 50.1954 119.234 47.5067C119.302 47.3367 119.169 47.0889 118.812 47.2604Z" fill="#6B9AA6"/>
<path fill-rule="evenodd" clip-rule="evenodd" d="M116.633 48.3263C116.428 49.3741 116.27 49.5062 116.703 49.0737C116.712 48.5442 115.235 49.3906 116.27 49.5062C116.806 49.0292 117.435 48.0042 116.633 48.3263Z" fill="#6B9AA6"/>
<path fill-rule="evenodd" clip-rule="evenodd" d="M116.49 50.6224C115.81 51.0705 115.413 52.9231 116.836 50.9673C116.906 50.793 116.907 50.6466 116.49 50.6224Z" fill="#6B9AA6"/>
<path fill-rule="evenodd" clip-rule="evenodd" d="M114.308 50.7964C113.542 51.1786 112.627 53.233 114.654 51.1412C114.745 50.9764 114.749 50.8419 114.308 50.7964Z" fill="#6B9AA6"/>
<path fill-rule="evenodd" clip-rule="evenodd" d="M114.002 53.2524C113.238 53.6603 112.65 55.4527 114.347 53.5973C114.435 53.4305 114.439 53.2941 114.002 53.2524Z" fill="#6B9AA6"/>
<path fill-rule="evenodd" clip-rule="evenodd" d="M111.669 53.272C111.005 53.4397 110.285 54.9521 111.916 53.6931C112.06 53.5813 112.066 53.3013 111.669 53.272Z" fill="#6B9AA6"/>
<path fill-rule="evenodd" clip-rule="evenodd" d="M111.198 54.8378C111.212 55.0893 109.856 55.2532 110.201 55.8713C111.562 54.9245 111.416 54.8899 111.198 54.8378C111.517 55.5781 110.512 56.0078 111.198 54.8378Z" fill="#6B9AA6"/>
<path fill-rule="evenodd" clip-rule="evenodd" d="M109.07 54.2512C107.629 54.6894 106.573 56.2843 109.316 54.6723C109.468 54.5781 109.481 54.3128 109.07 54.2512Z" fill="#6B9AA6"/>
<path fill-rule="evenodd" clip-rule="evenodd" d="M110.818 35.4816C110.866 36.2447 107.896 36.5782 107.627 35.4816C107.578 34.718 110.549 34.385 110.818 35.4816Z" fill="#F2C6B9"/>
<path fill-rule="evenodd" clip-rule="evenodd" d="M115.195 34.7984C115.336 35.5501 112.429 36.2445 112.028 35.1887C111.887 34.4374 114.794 33.743 115.195 34.7984Z" fill="#F2C6B9"/>
<path fill-rule="evenodd" clip-rule="evenodd" d="M119.577 33.7673C119.745 34.5134 116.863 35.3101 116.426 34.2694C116.258 33.5229 119.139 32.7266 119.577 33.7673Z" fill="#F2C6B9"/>
<path fill-rule="evenodd" clip-rule="evenodd" d="M134.426 32.5237C133.173 31.473 135.144 27.595 135.806 26.137C125.378 31.528 133.638 24.382 137.191 25.1399C136.813 26.8674 135.075 29.2278 134.97 31.5209C145.055 28.4727 139.226 32.2613 134.426 32.5237Z" fill="#FBF183"/>
<path fill-rule="evenodd" clip-rule="evenodd" d="M140 26.4805C137.716 25.726 146.262 22.7129 143.676 25.0462C142.763 25.3844 140.246 26.4744 140 26.4805Z" fill="#FBF183"/>
<path fill-rule="evenodd" clip-rule="evenodd" d="M145.884 26.6587C144.781 27.3469 146.671 16.1628 146.488 16.1533C144.807 16.2291 142.747 18.4606 141.08 18.2399C140.989 16.9609 147.679 13.9199 147.495 15.6384C147.401 16.518 146.463 25.2295 146.458 25.2769C146.481 25.2684 147.087 24.8866 148.043 24.3044C150.37 22.9345 152.686 21.028 151.94 23.025C151.301 23.3405 146.235 26.6757 145.884 26.6587" fill="#FBF183"/>
<path fill-rule="evenodd" clip-rule="evenodd" d="M150.487 16.2381C148.47 15.546 155.683 11.9469 153.06 14.6882C151.841 15.3996 150.998 16.1343 150.487 16.2381Z" fill="#FBF183"/>
<path fill-rule="evenodd" clip-rule="evenodd" d="M157.797 17.4307C157.077 15.1665 159.721 10.4946 159.063 7.31522C148.353 11.8957 155.388 6.35411 159.818 6.37395C160.431 9.20664 159.528 13.1538 158.616 16.0973C159.155 16.122 166.554 11.9673 164.798 14.5181C164.135 14.7563 158.097 17.4227 157.797 17.4307" fill="#FBF183"/>
</svg>
