<svg width="210" height="236" viewBox="0 0 210 236" fill="none" xmlns="http://www.w3.org/2000/svg">
<mask id="mask0_1_2572" style="mask-type:alpha" maskUnits="userSpaceOnUse" x="0" y="0" width="210" height="222">
<path fill-rule="evenodd" clip-rule="evenodd" d="M0 0.134521H209.509V221.143H0V0.134521Z" fill="white"/>
</mask>
<g mask="url(#mask0_1_2572)">
<path fill-rule="evenodd" clip-rule="evenodd" d="M95.4433 14.9227C49.9157 18.0832 -18.6704 51.5911 4.73805 107.784C11.1252 123.114 11.5348 134.647 5.70674 150.394C-1.02084 168.57 -3.03039 186.219 9.43527 202.318C37.6437 238.742 105.739 240.038 146.908 230.427C203.149 217.296 217.459 156.972 205.692 107.007C199.956 82.6426 188.871 47.6998 169.069 30.8395C153.091 17.2366 129.479 14.6498 109.31 14.5067C104.591 14.4737 99.9693 14.6083 95.4433 14.9227" fill="#ADE1F9"/>
<path fill-rule="evenodd" clip-rule="evenodd" d="M154.174 173.855C171.599 172.996 184.85 150.96 186.158 136.298C187.426 125.74 185.701 114.807 184.998 104.025C183.746 90.8335 186.379 77.4649 191.179 65.1653C159.889 73.9642 135.283 113.804 135.058 144.616C133.97 159.891 141.208 170.608 155.791 173.552" fill="#E19478"/>
<path fill-rule="evenodd" clip-rule="evenodd" d="M185.929 115.265C181.791 113.524 184.022 105.183 178.822 113.529C178.427 113.919 178.169 113.766 177.906 113.374C177.383 112.482 177.232 110.36 177.207 109.717C177.709 100.361 170.368 113.045 169.291 107.766C169.339 105.569 170.407 102.682 168.077 101.644C166.608 101.033 165.35 102.382 164.172 102.884C158.727 105.527 162.457 99.8992 162.643 97.6933C163.39 94.4474 160.245 96.1542 158.478 96.5986C143.923 99.3756 167.898 77.8293 170.524 76.1192C176.678 71.3883 183.368 66.8128 191.179 65.1654C183.151 86.2275 184.283 97.8441 185.929 115.265Z" fill="#F7F6F4"/>
<path fill-rule="evenodd" clip-rule="evenodd" d="M135.827 155.717C132.19 137.536 141.529 109.09 148.48 101.494C147.906 101.61 150.274 103.604 148.232 109.156C146.736 113.564 144.258 115.113 146.374 118.443C147.993 121.614 155.176 114.89 149.959 126.988C149.18 128.666 148.478 130.4 148.849 131.804C149.077 132.635 149.755 133.25 151.029 133.655C162.436 133.539 152.166 141.005 155.647 146.372C156.319 147.244 156.919 147.847 158.081 148.194C165.351 148.693 157.915 154.356 162.007 156.162C165.583 157.069 167.549 156.961 167.243 160.575C166.762 165.06 170.687 166.394 173.489 163.466C168.396 169.138 161.962 173.418 154.174 173.855L155.791 173.552C146.926 172.338 137.535 164.589 135.827 155.717" fill="#DF8272"/>
<path fill-rule="evenodd" clip-rule="evenodd" d="M175.655 156.26C175.359 156.95 173.17 160.432 172.63 158.913C173.093 158.117 174.002 157.953 174.481 156.859C174.706 156.255 175.54 155.012 175.655 156.26Z" fill="#DF8272"/>
<path fill-rule="evenodd" clip-rule="evenodd" d="M172.478 162.119C171.921 162.479 170.378 165.308 169.996 163.945C170.158 163.372 172.837 160.255 172.478 162.119Z" fill="#DF8272"/>
<path fill-rule="evenodd" clip-rule="evenodd" d="M169.936 160.437C169.718 160.908 168.119 163.481 168.071 161.857C168.483 161.525 169.763 158.747 169.936 160.437Z" fill="#DF8272"/>
<path fill-rule="evenodd" clip-rule="evenodd" d="M179.191 152.728C179.083 153.48 178.433 157.022 177.505 155.695C177.917 155.119 178.559 151.159 179.191 152.728Z" fill="#DF8272"/>
<path fill-rule="evenodd" clip-rule="evenodd" d="M178.975 148.055C178.755 148.651 177.393 152.894 177.013 150.871C177.509 150.339 178.438 146.226 178.975 148.055Z" fill="#DF8272"/>
<path fill-rule="evenodd" clip-rule="evenodd" d="M182.352 146.32C182.119 147.197 181.173 151.486 180.263 150.083C180.739 149.358 181.849 144.352 182.352 146.32Z" fill="#DF8272"/>
<path fill-rule="evenodd" clip-rule="evenodd" d="M184.845 139.347C184.47 139.856 184.726 142.49 183.638 142.084C183.271 141.671 184.341 137.498 184.845 139.347Z" fill="#DF8272"/>
<path fill-rule="evenodd" clip-rule="evenodd" d="M181.788 141.722C181.579 142.108 181.524 144.795 180.585 143.78C180.506 143.305 181.263 140.043 181.788 141.722Z" fill="#DF8272"/>
<path fill-rule="evenodd" clip-rule="evenodd" d="M185.848 134.365C185.814 134.842 185.366 137.94 184.722 136.289C184.885 135.846 185.097 132.968 185.848 134.365Z" fill="#DF8272"/>
<path fill-rule="evenodd" clip-rule="evenodd" d="M183.544 135.088C183.382 135.597 183.285 136.51 182.913 137.26C181.529 138.003 183.126 133.134 183.544 135.088Z" fill="#DF8272"/>
<path fill-rule="evenodd" clip-rule="evenodd" d="M186.414 130.456C186.367 130.697 186.295 131.063 186.227 131.609C185.346 134.477 185.202 128.63 186.414 130.456Z" fill="#DF8272"/>
<path fill-rule="evenodd" clip-rule="evenodd" d="M184.618 130.684C184.371 131.057 184.447 133.642 183.504 132.628C183.338 132.113 184.118 129.033 184.618 130.684Z" fill="#DF8272"/>
<path fill-rule="evenodd" clip-rule="evenodd" d="M186.121 124.108C185.947 124.78 186.535 128.055 185.385 127.16C185.188 126.634 185.166 122.487 186.121 124.108Z" fill="#DF8272"/>
<path fill-rule="evenodd" clip-rule="evenodd" d="M184.219 125.166C184.294 125.503 184.076 127.521 183.411 126.318C183.336 125.98 183.557 123.964 184.219 125.166Z" fill="#DF8272"/>
<path fill-rule="evenodd" clip-rule="evenodd" d="M185.763 118.47C185.663 118.819 186.224 121.109 185.123 120.405C184.858 120.025 184.906 117.056 185.763 118.47Z" fill="#DF8272"/>
<path fill-rule="evenodd" clip-rule="evenodd" d="M182.922 115.003C182.895 115.582 184.001 118.256 182.743 117.74C182.444 117.327 181.733 113.723 182.922 115.003Z" fill="#DF8272"/>
<path fill-rule="evenodd" clip-rule="evenodd" d="M183.573 120.458C183.105 120.548 182.968 119.822 183.436 119.734C183.904 119.646 184.04 120.372 183.573 120.458Z" fill="#DF8272"/>
<path fill-rule="evenodd" clip-rule="evenodd" d="M174.898 148.721C174.572 149.533 172.685 153.175 172.163 151.606C172.817 151.069 174.74 146.979 174.898 148.721Z" fill="#DF8272"/>
<path fill-rule="evenodd" clip-rule="evenodd" d="M171.752 155.193C171.335 155.453 170.397 157.555 169.748 156.538C169.758 156.066 171.918 153.658 171.752 155.193Z" fill="#DF8272"/>
<path fill-rule="evenodd" clip-rule="evenodd" d="M167.566 155.088C167.098 155.176 166.961 154.45 167.429 154.363C167.897 154.276 168.032 155.001 167.566 155.088Z" fill="#DF8272"/>
<path fill-rule="evenodd" clip-rule="evenodd" d="M177.705 144.266C177.252 144.69 176.188 147.52 175.571 146.369C175.559 145.83 177.73 142.483 177.705 144.266Z" fill="#DF8272"/>
<path fill-rule="evenodd" clip-rule="evenodd" d="M179.732 138.893C179.265 138.98 179.128 138.256 179.595 138.168C180.063 138.08 180.199 138.805 179.732 138.893Z" fill="#DF8272"/>
<path fill-rule="evenodd" clip-rule="evenodd" d="M180.855 134.092C180.555 134.499 180.792 136.83 179.784 136.409C179.364 136.012 180.37 132.342 180.855 134.092Z" fill="#DF8272"/>
<path fill-rule="evenodd" clip-rule="evenodd" d="M178.948 141.642C178.48 141.73 178.344 141.004 178.812 140.916C179.279 140.829 179.415 141.554 178.948 141.642Z" fill="#DF8272"/>
<path fill-rule="evenodd" clip-rule="evenodd" d="M181.792 129.825C181.849 130.178 181.196 132.193 180.793 130.825C180.815 130.491 181.312 128.676 181.792 129.825Z" fill="#DF8272"/>
<path fill-rule="evenodd" clip-rule="evenodd" d="M182.316 124.622C182.255 125.157 182.207 128.161 181.235 127.043C181.309 126.527 181.532 123.125 182.316 124.622Z" fill="#DF8272"/>
<path fill-rule="evenodd" clip-rule="evenodd" d="M182.332 119.317C182.329 119.776 182.813 122.92 181.735 121.73C181.739 121.273 181.256 118.125 182.332 119.317Z" fill="#DF8272"/>
<path fill-rule="evenodd" clip-rule="evenodd" d="M174.787 143.114C174.369 143.374 173.433 145.475 172.782 144.461C172.79 143.989 174.952 141.583 174.787 143.114Z" fill="#DF8272"/>
<path fill-rule="evenodd" clip-rule="evenodd" d="M171.64 146.417C171.172 146.505 171.036 145.78 171.504 145.693C171.971 145.605 172.107 146.329 171.64 146.417Z" fill="#DF8272"/>
<path fill-rule="evenodd" clip-rule="evenodd" d="M165.017 150.05C164.595 150.042 163.487 151.262 163.017 150.429C162.843 149.794 165.915 148.806 165.017 150.05Z" fill="#DF8272"/>
<path fill-rule="evenodd" clip-rule="evenodd" d="M164.326 153.296C163.859 153.383 163.722 152.658 164.19 152.57C164.657 152.482 164.794 153.208 164.326 153.296Z" fill="#DF8272"/>
<path fill-rule="evenodd" clip-rule="evenodd" d="M169.048 150.255C168.589 150.577 166.556 152.563 166.527 151.179C166.901 150.819 169.562 148.717 169.048 150.255Z" fill="#DF8272"/>
<path fill-rule="evenodd" clip-rule="evenodd" d="M170.723 150.781C170.355 150.978 169.436 153.015 168.798 152.014C168.742 151.593 170.915 149.282 170.723 150.781Z" fill="#DF8272"/>
<path fill-rule="evenodd" clip-rule="evenodd" d="M164.672 155.132C164.204 155.219 164.068 154.495 164.536 154.407C165.003 154.32 165.139 155.044 164.672 155.132Z" fill="#DF8272"/>
<path fill-rule="evenodd" clip-rule="evenodd" d="M168.569 148.181C168.287 148.461 166.099 149.603 166.789 148.293C167.154 148.178 169.159 146.753 168.569 148.181Z" fill="#DF8272"/>
<path fill-rule="evenodd" clip-rule="evenodd" d="M173.077 147.196C172.45 147.438 171.436 149.455 170.654 148.834C170.306 148.209 173.644 145.484 173.077 147.196Z" fill="#DF8272"/>
<path fill-rule="evenodd" clip-rule="evenodd" d="M149.412 185.015C103.893 185.015 66.9936 141.226 66.9936 87.2103C66.9936 49.8072 84.6884 17.3129 110.685 0.86087C25.8302 -4.55606 -22.98 105.782 23.1425 184.87C65.3343 256.248 157.124 251.433 192.414 170.658C179.895 179.763 165.171 185.015 149.412 185.015Z" fill="#FDCD92"/>
<path fill-rule="evenodd" clip-rule="evenodd" d="M107.908 1.83214C66.8274 16.7466 54.2785 75.2877 61.7839 113.062C65.8447 133.395 78.202 151.205 96.0745 161.766C51.8343 116.834 59.163 33.8633 110.686 0.860703C109.966 0.805646 109.241 0.771083 108.516 0.732544C108.589 1.16045 108.425 1.64311 107.908 1.83214" fill="#FFE1AC"/>
<path fill-rule="evenodd" clip-rule="evenodd" d="M112.598 215.311C38.9475 214.321 -3.52481 127.954 20.533 55.485C-9.81194 112.781 6.64837 190.191 59.4816 222.398C108.893 251.957 167.932 227.997 192.414 170.66C191.041 171.658 189.638 172.601 188.213 173.505C170.092 199.062 142.948 215.311 112.598 215.311" fill="#FABC8C"/>
<path fill-rule="evenodd" clip-rule="evenodd" d="M46.3689 40.7196C46.0881 45.8405 39.0268 45.4324 38.9133 40.7196C39.1935 35.5985 46.2554 36.0034 46.3689 40.7196Z" fill="#FFE7B4"/>
<path fill-rule="evenodd" clip-rule="evenodd" d="M37.3156 48.8845C37.0355 54.0063 29.9736 53.601 29.8601 48.8845C30.1409 43.7637 37.2022 44.1717 37.3156 48.8845Z" fill="#FFE7B4"/>
<path fill-rule="evenodd" clip-rule="evenodd" d="M46.9016 50.1274C46.7022 53.7731 41.6676 53.4761 41.5762 50.1274C41.7753 46.483 46.8105 46.7779 46.9016 50.1274Z" fill="#FFE7B4"/>
<path fill-rule="evenodd" clip-rule="evenodd" d="M31.55 58.7485C31.2695 63.8715 24.2077 63.4635 24.0945 58.7485C24.374 53.6289 31.4372 54.0338 31.55 58.7485Z" fill="#FFE7B4"/>
<path fill-rule="evenodd" clip-rule="evenodd" d="M37.3156 48.8845C37.0355 54.0063 29.9736 53.601 29.8601 48.8845C30.1409 43.7637 37.2022 44.1717 37.3156 48.8845Z" fill="#FFE7B4"/>
<path fill-rule="evenodd" clip-rule="evenodd" d="M39.736 57.2941C39.5363 60.9391 34.5011 60.6428 34.4099 57.2938C34.609 53.6488 39.6442 53.9449 39.736 57.2941" fill="#FFE7B4"/>
<path fill-rule="evenodd" clip-rule="evenodd" d="M122.542 203.19C125.595 199.055 131.26 203.28 128.779 207.274C125.725 211.408 120.06 207.185 122.542 203.19" fill="#FFE7B4"/>
<path fill-rule="evenodd" clip-rule="evenodd" d="M134.589 201.318C137.642 197.183 143.308 201.408 140.827 205.403C137.773 209.538 132.109 205.312 134.589 201.318Z" fill="#FFE7B4"/>
<path fill-rule="evenodd" clip-rule="evenodd" d="M127.251 195.026C129.415 192.087 133.464 195.093 131.706 197.944C129.543 200.885 125.492 197.878 127.251 195.026Z" fill="#FFE7B4"/>
<path fill-rule="evenodd" clip-rule="evenodd" d="M144.816 196.224C147.869 192.089 153.535 196.316 151.053 200.309C148 204.445 142.334 200.218 144.816 196.224Z" fill="#FFE7B4"/>
<path fill-rule="evenodd" clip-rule="evenodd" d="M134.589 201.318C137.642 197.183 143.308 201.408 140.827 205.403C137.773 209.538 132.109 205.312 134.589 201.318Z" fill="#FFE7B4"/>
<path fill-rule="evenodd" clip-rule="evenodd" d="M137.171 192.958C139.335 190.017 143.385 193.023 141.627 195.876C139.462 198.815 135.415 195.81 137.171 192.958Z" fill="#FFE7B4"/>
<path fill-rule="evenodd" clip-rule="evenodd" d="M126.24 141.651C130.316 146.963 136.286 150 142.284 151.944C146.489 153.485 150.869 154.43 154.731 156.883C162.502 162.32 167.839 171.344 166.576 181.018C164.803 194.06 156.598 199.629 144.706 199.444C127.845 199.961 114.61 191.973 102.238 180.025C77.2441 155.916 91.7775 129.686 109.835 128.708C117.207 129.275 121.559 136.178 126.24 141.651" fill="#E19478"/>
<path fill-rule="evenodd" clip-rule="evenodd" d="M137.696 189.141C129.79 186.306 134.265 182.583 130.957 180.734C117.334 179.76 123.321 173.528 117.386 169.57C115.896 169.411 114.482 170.192 112.771 169.683C110.889 169.379 109.271 167.82 108.498 166.616C106.472 163.974 103.636 159.423 102.694 165.201C101.208 167.442 98.3571 166.575 96.6757 164.437C95.1764 163.095 93.562 162.808 92.5997 163.943C90.2204 166.69 97.0131 173.753 97.5322 174.811C107.033 186.232 121.295 196.633 134.986 198.765C136.202 198.705 137.672 199.729 138.536 198.719C141.118 195.431 142.619 191.285 137.696 189.141" fill="#F7F6F4"/>
<path fill-rule="evenodd" clip-rule="evenodd" d="M133.993 166.79C132.091 162.438 133.341 157.38 132.595 152.828C130.902 149.5 129.541 147.836 126.357 146.046C124.582 147.049 123.132 148.297 122.22 149.531C119.958 152.291 119.323 157.822 117.983 161.529C115.211 167.825 109.677 177.857 103.897 181.61C107.901 185.288 118.684 194.313 119.759 192.209C122.075 188.563 123.152 190.137 124.588 188.047C125.808 186.257 127.075 184.483 129.403 184.119C131.775 182.586 131.546 179.191 131.91 176.651C131.939 174.635 133.061 173.466 133.925 171.902C134.45 170.273 134.295 168.406 133.993 166.79" fill="#ECDEE5"/>
<path fill-rule="evenodd" clip-rule="evenodd" d="M164.81 168.924C161.536 160.608 154.093 159.893 147.824 164.037C144.862 166.579 144.048 170.396 143.363 174.137C140.451 188.089 148.993 191.5 145.978 199.403C163.069 199.901 170.621 182.894 164.81 168.924Z" fill="#DF8272"/>
<path fill-rule="evenodd" clip-rule="evenodd" d="M129.826 178.136C131.824 166.504 131.629 174.905 132.993 169.94C133.244 167.293 132.279 164.971 132.282 162.138C132.124 158.777 132.875 155.183 132.572 151.769C131.348 144.501 125.992 140.67 121.4 146.815C119.515 150.971 120.716 155.123 120.22 159.483C119.867 163.877 117.58 167.047 115.25 170.619C111.15 177.977 105.204 183.222 100.49 189.651C99.3722 191.363 97.7814 192.862 98.4842 194.497C99.6095 210.181 120.19 188.731 122.986 184.821C125.948 186.642 126.022 179.397 128.811 179.175C129.222 179.007 129.454 178.828 129.826 178.136" fill="#E19478"/>
<path fill-rule="evenodd" clip-rule="evenodd" d="M110.165 178.141C105.379 184.207 99.2172 189.216 97.9705 194.587C100.153 208.13 114.939 193.229 119.443 188.921C122.549 187.326 111.267 179.003 110.165 178.141" fill="#433A31"/>
<path fill-rule="evenodd" clip-rule="evenodd" d="M130.771 159.045C130.311 158.408 130.827 152.405 131.267 156.593C131.04 157.387 131.705 158.782 130.771 159.045Z" fill="#D7AF8E"/>
<path fill-rule="evenodd" clip-rule="evenodd" d="M130.093 165.398C129.526 165.236 130.722 162.609 130.701 164.446C130.534 164.674 130.72 165.486 130.093 165.398Z" fill="#D7AF8E"/>
<path fill-rule="evenodd" clip-rule="evenodd" d="M130.934 170.792C130.595 170.886 131.246 166.761 131.856 168.216C131.541 168.756 131.838 170.56 130.934 170.792Z" fill="#D7AF8E"/>
<path fill-rule="evenodd" clip-rule="evenodd" d="M128.352 173.096C128.044 172.888 128.786 170.154 129.461 170.88L129.183 170.794C129.682 170.643 128.994 173.279 128.352 173.096" fill="#D7AF8E"/>
<path fill-rule="evenodd" clip-rule="evenodd" d="M128.112 177.345C127.771 176.665 128.79 175.615 128.931 174.449C129.99 173.319 129.016 177.415 128.112 177.345Z" fill="#D7AF8E"/>
<path fill-rule="evenodd" clip-rule="evenodd" d="M124.32 181.133C123.889 180.622 125.067 179.732 125.313 179C126.726 177.03 125.361 181.241 124.32 181.133Z" fill="#D7AF8E"/>
<path fill-rule="evenodd" clip-rule="evenodd" d="M123.349 183.982C122.855 183.523 124.042 182.985 124.362 182.389C125.459 181.833 124.302 184.002 123.349 183.982Z" fill="#D7AF8E"/>
<path fill-rule="evenodd" clip-rule="evenodd" d="M120.251 186.016C119.823 185.523 120.779 185.041 121.205 184.254C122.393 183.622 120.91 186.201 120.251 186.016Z" fill="#D7AF8E"/>
<path fill-rule="evenodd" clip-rule="evenodd" d="M128.303 168.842C128.01 168.958 128.367 166.549 128.354 166.475C128.605 165.914 129.106 166.389 128.873 167.139C128.625 168.221 129.072 168.824 128.303 168.842Z" fill="#D7AF8E"/>
<path fill-rule="evenodd" clip-rule="evenodd" d="M128.403 162.479C128.088 161.754 128.596 160.635 128.237 159.346C128.952 157.748 129.418 162.972 128.403 162.479Z" fill="#D7AF8E"/>
<path fill-rule="evenodd" clip-rule="evenodd" d="M128.303 155.939C128.305 155.967 127.312 152.547 128.405 153.552C128.382 153.977 129.315 155.841 128.303 155.939Z" fill="#D7AF8E"/>
<path fill-rule="evenodd" clip-rule="evenodd" d="M131.309 163.478C131.087 163.467 131.066 160.245 131.848 161.462C131.69 161.769 132.181 163.421 131.309 163.478Z" fill="#D7AF8E"/>
<path fill-rule="evenodd" clip-rule="evenodd" d="M125.62 177.509C125.411 177.041 126.127 175.111 126.826 174.854C127.179 175.131 126.28 177.545 125.62 177.509Z" fill="#D7AF8E"/>
<path fill-rule="evenodd" clip-rule="evenodd" d="M129.674 112.724C135.909 126.446 132.031 141.627 106.073 153.422C77.9912 166.183 66.1284 158.154 59.8939 144.432C53.6591 130.71 64.2247 112.489 83.4947 103.733C102.764 94.9773 123.439 99.0026 129.674 112.724" fill="#DE7B6F"/>
<path fill-rule="evenodd" clip-rule="evenodd" d="M118.672 103.521C127.208 109.715 127.765 101.943 129.347 105.915C128.136 112.945 131.699 107.491 132.601 109.943C132.931 112.727 129.94 115.127 133.68 115.505C135.383 117.964 131.453 124.925 129.86 125.895" fill="#E19478"/>
<path fill-rule="evenodd" clip-rule="evenodd" d="M60.161 128.974C59.2061 139.43 53.1793 134.77 54.8713 138.5C61.0597 142.422 54.6178 141.3 55.837 143.69C57.715 145.762 61.4885 145.104 59.319 148.16C60.0096 151.056 67.9647 152.687 69.6567 152.117" fill="#E19478"/>
<path fill-rule="evenodd" clip-rule="evenodd" d="M72.6235 111.516C72.6716 108.686 75.655 98.4375 78.558 100.681C79.0352 101.189 78.138 102.724 79.0832 102.632C81.4934 101.802 81.9247 98.9144 84.8922 97.5643C86.9856 96.899 83.9838 102.904 88.6746 98.7743C89.1465 98.4929 89.29 98.343 90.0898 98.4467C91.7856 99.665 88.8691 102.753 93.5988 101.472" fill="#DE7B6F"/>
<path fill-rule="evenodd" clip-rule="evenodd" d="M127.726 113.608C143.493 148.514 83.5961 174.625 65.4587 149.942C59.4848 144.142 58.3641 136.2 60.2868 128.777C66.7764 101.799 114.248 85.8425 127.726 113.608" fill="#E19478"/>
<path fill-rule="evenodd" clip-rule="evenodd" d="M125.534 115.776C119.437 116.584 124.28 113.428 122.431 111.132C120.883 110.3 119.22 112.989 117.555 111.943C117.212 111.619 117.49 111.133 117.68 110.536C118.001 108.025 116.028 110.085 114.882 110.05C112.012 110.595 109.268 109.971 105.864 110.972C97.2836 114.135 92.2273 121.354 94.5424 129.573C80.5471 114.026 71.3558 130.906 64.8995 133.186C64.4392 133.364 64.3202 133.512 64.6732 134.099C68.9761 136.751 63.7494 136.419 62.5945 138.41C62.9591 141.933 68.9067 139.613 63.7889 144.201C62.2021 147.159 69.5998 144.426 67.9126 146.668C67.3608 147.39 65.8752 147.474 65.896 148.179C66.0532 148.497 66.7858 148.677 67.363 148.838C71.8467 149.55 66.4022 150.635 68.2809 152.14C68.7755 152.52 69.4937 152.607 70.2262 152.784C73.4675 153.199 68.7721 156.766 72.1208 156.586C73.4641 156.669 78.8685 154.339 77.6634 156.706C75.4737 157.75 76.7804 158.145 78.2993 158.323C78.8095 158.389 79.4937 157.976 79.5616 158.401C80.2498 159.236 83.4315 159.801 84.3203 159.889C99.7483 161.325 121.204 149.651 125.819 140.055C125.586 139.05 123.104 140.092 123.5 138.178C125.369 137.452 128.156 135.678 127.583 133.956C124.827 135.27 124.963 133.375 127.018 132.174C134.318 127.404 127.208 129.276 127.761 126.985C128.018 126.095 129.142 124.847 128.801 123.87C128.587 123.485 128.423 123.29 127.855 123.381C123.976 124.31 128.522 120.482 127.248 119.813C126.545 119.866 126.095 120.313 125.38 120.439C121.526 120.801 129.666 115.975 125.534 115.776" fill="#F7F6F4"/>
<path fill-rule="evenodd" clip-rule="evenodd" d="M78.5421 109.766C77.7771 109.913 78.2897 108.525 78.4656 107.777C79.6762 104.001 79.4178 108.243 78.5421 109.766Z" fill="#DE7F60"/>
<path fill-rule="evenodd" clip-rule="evenodd" d="M83.9859 107.747C82.0647 107.791 86.576 100.868 85.5522 104.024C84.5215 105.132 84.482 106.477 83.9859 107.747Z" fill="#DE7F60"/>
<path fill-rule="evenodd" clip-rule="evenodd" d="M93.3826 111.852C92.3647 112.166 93.1043 109.757 93.1288 108.952C93.9433 106.48 93.7084 111.129 93.3826 111.852Z" fill="#DE7F60"/>
<path fill-rule="evenodd" clip-rule="evenodd" d="M88.7277 105.756C87.6654 105.672 89.2462 103.707 89.5667 102.969C91.2374 100.971 89.3009 105.208 88.7277 105.756Z" fill="#DE7F60"/>
<path fill-rule="evenodd" clip-rule="evenodd" d="M87.631 114.268C86.6666 114.667 85.757 108.719 87.0685 110.371C86.6737 111.809 87.9008 113.178 87.631 114.268Z" fill="#DE7F60"/>
<path fill-rule="evenodd" clip-rule="evenodd" d="M82.8042 113.395C82.0457 113.413 82.0108 111.728 81.8153 111.009C81.6079 108.417 83.2991 112.622 82.8042 113.395Z" fill="#DE7F60"/>
<path fill-rule="evenodd" clip-rule="evenodd" d="M85.9701 117.863C85.7474 118.109 83.5528 115.322 84.69 115.336C85.1161 115.902 86.3705 117.121 85.9701 117.863Z" fill="#DE7F60"/>
<path fill-rule="evenodd" clip-rule="evenodd" d="M90.2321 121.493C90.0464 121.829 88.1148 119.007 89.2628 119.079C89.5769 119.624 90.615 120.679 90.2321 121.493Z" fill="#DE7F60"/>
<path fill-rule="evenodd" clip-rule="evenodd" d="M92.6283 123.016C92.2423 123.161 91.3914 121.671 92.0245 121.256C92.3527 121.317 93.0018 122.455 92.6283 123.016Z" fill="#DE7F60"/>
<path fill-rule="evenodd" clip-rule="evenodd" d="M84.5581 119.88C84.3247 120.026 81.7637 117.039 82.8902 117.056C83.3738 117.534 85.0221 119.151 84.5581 119.88Z" fill="#DE7F60"/>
<path fill-rule="evenodd" clip-rule="evenodd" d="M80.9464 117.307C80.2753 117.214 79.9242 115.55 79.7046 114.536C80.0276 113.623 81.4052 116.7 80.9464 117.307Z" fill="#DE7F60"/>
<path fill-rule="evenodd" clip-rule="evenodd" d="M90.4646 114.003C89.7385 114.001 89.8205 112.537 89.343 111.787C89.4427 110.272 91.0657 113.461 90.4646 114.003Z" fill="#DE7F60"/>
<path fill-rule="evenodd" clip-rule="evenodd" d="M91.7306 118.541C91.3171 118.94 90.2863 116.18 91.4654 116.956C91.4685 117.294 92.1643 118.02 91.7306 118.541Z" fill="#DE7F60"/>
<path fill-rule="evenodd" clip-rule="evenodd" d="M90.6702 109.708C90.1655 110.32 89.5666 106.44 90.6374 107.69C90.527 108.08 91.1262 109.036 90.6702 109.708Z" fill="#DE7F60"/>
<path fill-rule="evenodd" clip-rule="evenodd" d="M93.6739 117.316C92.9774 117.307 92.8679 115.578 92.7083 114.644C93.1768 113.738 94.0932 116.745 93.6739 117.316Z" fill="#DE7F60"/>
<path fill-rule="evenodd" clip-rule="evenodd" d="M77.6427 115.286C76.8789 115.246 76.7514 113.585 76.3742 112.809C76.1029 110.701 78.222 114.703 77.6427 115.286" fill="#DE7F60"/>
<path fill-rule="evenodd" clip-rule="evenodd" d="M97.158 141.56C98.8916 147.33 105.445 142.097 101.341 139.375C100.404 139.913 102.383 141.157 101.68 142.143C99.0699 146.182 97.6715 139.364 97.158 141.56" fill="#656358"/>
<path fill-rule="evenodd" clip-rule="evenodd" d="M120.653 122.104C121.84 125.44 111.533 129.871 109.799 127.26C107.899 123.953 119.292 119.034 120.653 122.104Z" fill="#ECB091"/>
<path fill-rule="evenodd" clip-rule="evenodd" d="M84.178 138.421C85.3645 141.758 75.0576 146.188 73.3227 143.58C71.4227 140.272 82.8157 135.351 84.178 138.421Z" fill="#ECB091"/>
<path fill-rule="evenodd" clip-rule="evenodd" d="M100.947 132.298C102.06 135.731 98.6831 140.187 94.6425 138.061C91.4698 136.841 90.8641 132.523 95.8743 132.555C96.3517 132.413 96.6772 131.239 98.3851 130.774C99.5383 130.467 100.572 131.254 100.947 132.298" fill="#433A31"/>
<path fill-rule="evenodd" clip-rule="evenodd" d="M100.161 131.649C100.286 132.443 98.0793 132.922 97.8071 131.966C97.682 131.173 99.8873 130.695 100.161 131.649Z" fill="#EBEFEA"/>
<path fill-rule="evenodd" clip-rule="evenodd" d="M83.2311 130.091C85.5508 135.93 79.2499 138.474 76.5154 133.544C73.6225 127.446 80.6034 124.58 83.2311 130.091Z" fill="#5E5549"/>
<path fill-rule="evenodd" clip-rule="evenodd" d="M83.2503 129.857C84.0645 131.771 81.2625 133.1 80.2877 131.203C79.4728 129.29 82.2776 127.962 83.2503 129.857Z" fill="#FEFEFE"/>
<path fill-rule="evenodd" clip-rule="evenodd" d="M79.3518 129.331C79.6962 130.063 78.5471 130.944 77.9414 129.972C77.5976 129.24 78.7443 128.36 79.3518 129.331Z" fill="#FEFEFE"/>
<path fill-rule="evenodd" clip-rule="evenodd" d="M109.751 118.042C112.071 123.878 105.77 126.425 103.035 121.493C100.142 115.394 107.124 112.529 109.751 118.042Z" fill="#5E5549"/>
<path fill-rule="evenodd" clip-rule="evenodd" d="M109.77 117.806C110.586 119.721 107.782 121.049 106.808 119.153C105.994 117.24 108.796 115.911 109.77 117.806Z" fill="#FEFEFE"/>
<path fill-rule="evenodd" clip-rule="evenodd" d="M105.873 117.281C106.216 118.012 105.069 118.894 104.462 117.922C104.118 117.19 105.266 116.308 105.873 117.281Z" fill="#FEFEFE"/>
<path fill-rule="evenodd" clip-rule="evenodd" d="M58.6007 133.655C58.6007 133.655 48.415 125.348 48.0244 108.505C48.0244 108.505 48.3798 103.607 51.6278 105.762C54.8768 107.917 69.2021 114.286 69.2021 114.286" fill="#DE7B6F"/>
<path fill-rule="evenodd" clip-rule="evenodd" d="M59.7826 133.117C59.7826 133.117 49.7378 125.084 49.3746 109.482C49.3746 109.482 49.3069 105.467 52.3163 107.464C55.326 109.461 69.6046 115.171 69.6046 115.171" fill="#E19478"/>
<path fill-rule="evenodd" clip-rule="evenodd" d="M60.4865 129.847C60.4865 129.847 53.4802 124.245 53.2269 113.361C53.2269 113.361 53.179 110.561 55.2791 111.954C57.3779 113.346 67.3379 117.329 67.3379 117.329" fill="#ECB093"/>
<path fill-rule="evenodd" clip-rule="evenodd" d="M56.1151 112.437C52.9445 110.162 52.9919 112.901 53.4865 116.431C54.8173 125.409 60.4749 129.792 60.4866 129.847L61.681 127.665C56.4696 122.596 54.401 118.544 56.1151 112.437" fill="#EFA18D"/>
<path fill-rule="evenodd" clip-rule="evenodd" d="M58.2026 133.154C50.7443 130.987 54.9475 130.303 53.4714 128.388C49.207 124.962 51.9913 125.024 50.9042 122.708C49.0121 120.446 48.8926 120.864 49.5832 118.18" fill="#DE7B6F"/>
<path fill-rule="evenodd" clip-rule="evenodd" d="M60.97 130.536C54.9306 119.103 63.7029 129.34 60.3081 121.76C60.0628 121.188 60.1931 120.187 60.7342 120.098C61.5074 119.989 62.1164 120.736 63.2658 121.009C65.1163 120.748 61.2719 115.389 68.1475 118.655" fill="#E19478"/>
<path fill-rule="evenodd" clip-rule="evenodd" d="M120.251 105.413C120.251 105.413 120.693 92.2784 108.264 80.9065C108.264 80.9065 104.34 77.9515 103.828 81.8168C103.313 85.6796 98.689 100.659 98.689 100.659" fill="#DE7B6F"/>
<path fill-rule="evenodd" clip-rule="evenodd" d="M119.069 105.95C119.069 105.95 119.625 93.101 108.109 82.565C108.109 82.565 105.132 79.8737 104.656 83.4533C104.181 87.0344 99.0916 101.546 99.0916 101.546" fill="#E19478"/>
<path fill-rule="evenodd" clip-rule="evenodd" d="M116.143 104.33C116.143 104.33 116.532 95.3678 108.499 88.0181C108.499 88.0181 106.422 86.1416 106.09 88.6378C105.758 91.1352 102.208 101.259 102.208 101.259" fill="#ECB093"/>
<path fill-rule="evenodd" clip-rule="evenodd" d="M105.903 89.5856C106.334 83.8099 111.35 90.8492 113.252 93.9626C116.371 99.4875 116.132 104.302 116.143 104.33L113.714 103.795C113.323 96.5346 111.631 92.3112 105.903 89.5856" fill="#EFA18D"/>
<path fill-rule="evenodd" clip-rule="evenodd" d="M120.136 104.784C123.432 97.6934 120.074 100.451 119.658 98.0858C119.859 92.6095 118.174 94.8106 117.068 92.4165C116.63 89.6172 116.991 89.6374 114.526 88.4424" fill="#DE7B6F"/>
<path fill-rule="evenodd" clip-rule="evenodd" d="M116.342 105.147C111.744 93.1468 113.588 106.257 110.267 99.0427C109.982 98.4451 109.283 97.8238 108.722 98.0435C108.023 98.4653 108.241 99.6355 107.609 100.671C105.942 101.438 104.745 95.6158 102.674 102.74" fill="#E19478"/>
<path fill-rule="evenodd" clip-rule="evenodd" d="M148.294 167.74C144.756 177.954 144.38 191.435 150.725 199.64C138.254 201.299 141.588 217.413 159.209 208.588C162.176 206.991 164.416 204.793 164.662 202.4C164.557 196.981 165.78 190.357 166.5 184.277C167.033 181.311 167.973 179.32 167.556 176.137C165.612 165.277 154.306 151.057 148.294 167.74" fill="#E19478"/>
<path fill-rule="evenodd" clip-rule="evenodd" d="M165 196.463C160.282 198.217 155.182 198.925 150.118 198.865C150.315 199.129 150.511 199.397 150.725 199.64C150.725 199.64 142.098 200.431 143.532 207.535C145.162 215.611 166.856 208.686 164.503 200.785C164.675 199.345 164.838 197.905 165 196.463" fill="#433A31"/>
<path fill-rule="evenodd" clip-rule="evenodd" d="M163.158 171.518C162.57 171.557 162.794 168.682 163.403 170.414C163.324 170.686 163.779 171.384 163.158 171.518Z" fill="#D7AF8E"/>
<path fill-rule="evenodd" clip-rule="evenodd" d="M165.8 176.296C165.514 176.496 164.709 172.404 165.781 173.558C165.672 174.174 166.569 175.765 165.8 176.296Z" fill="#D7AF8E"/>
<path fill-rule="evenodd" clip-rule="evenodd" d="M164.165 179.345C163.805 179.256 163.563 176.432 164.447 176.883L164.156 176.898L164.448 176.883C164.289 177.434 164.979 178.976 164.165 179.345Z" fill="#D7AF8E"/>
<path fill-rule="evenodd" clip-rule="evenodd" d="M165.397 183.419C164.845 182.899 165.442 181.563 165.174 180.418C165.78 178.991 166.271 183.174 165.397 183.419Z" fill="#D7AF8E"/>
<path fill-rule="evenodd" clip-rule="evenodd" d="M163.137 188.279C162.554 187.947 163.358 186.706 163.337 185.934C163.988 183.599 164.151 188.019 163.137 188.279Z" fill="#D7AF8E"/>
<path fill-rule="evenodd" clip-rule="evenodd" d="M163.202 191.287C162.582 191.026 163.51 190.113 163.607 189.444C164.509 188.499 164.01 191.083 163.202 191.287Z" fill="#D7AF8E"/>
<path fill-rule="evenodd" clip-rule="evenodd" d="M160.991 194.262C160.42 193.942 161.152 193.164 161.283 192.277C162.181 191.28 161.673 194.209 160.991 194.262Z" fill="#D7AF8E"/>
<path fill-rule="evenodd" clip-rule="evenodd" d="M162.658 175.366C162.205 175.2 161.406 171.647 162.488 173.094C162.579 174.034 163.425 175.218 162.658 175.366Z" fill="#D7AF8E"/>
<path fill-rule="evenodd" clip-rule="evenodd" d="M160.569 169.356C160.024 168.783 160.118 167.558 159.339 166.469C159.46 164.723 161.691 169.471 160.569 169.356Z" fill="#D7AF8E"/>
<path fill-rule="evenodd" clip-rule="evenodd" d="M158.231 163.247C158.183 163.229 156.165 160.402 157.507 160.97C157.631 161.377 159.149 162.807 158.231 163.247Z" fill="#D7AF8E"/>
<path fill-rule="evenodd" clip-rule="evenodd" d="M163.642 169.298C163.429 169.361 162.304 166.342 163.457 167.219C163.432 167.616 164.449 168.967 163.642 169.298Z" fill="#D7AF8E"/>
<path fill-rule="evenodd" clip-rule="evenodd" d="M163.114 184.426C162.574 183.982 163.129 182.769 163.032 181.799C163.721 180.521 163.871 184.334 163.114 184.426Z" fill="#D7AF8E"/>
</g>
</svg>
