<svg width="120" height="112" viewBox="0 0 120 112" fill="none" xmlns="http://www.w3.org/2000/svg">
<mask id="mask0_1_3073" style="mask-type:alpha" maskUnits="userSpaceOnUse" x="0" y="0" width="120" height="78">
<path fill-rule="evenodd" clip-rule="evenodd" d="M0 0.270142H119.558V77.6842H0V0.270142Z" fill="white"/>
</mask>
<g mask="url(#mask0_1_3073)">
<path fill-rule="evenodd" clip-rule="evenodd" d="M77.8602 47.0049C75.0773 30.2999 71.0477 15.6295 63.5635 9.36877C46.0049 17.8605 43.6304 44.8785 43.6304 44.8785L45.7169 57.0797L70.7597 55.6401L77.8602 47.0049Z" fill="#DBEEE9"/>
<path fill-rule="evenodd" clip-rule="evenodd" d="M49.1716 25.0916C48.4042 26.6983 47.7411 28.3112 47.166 29.8862C55.662 32.8325 65.5232 32.734 74.0798 29.3818C73.6824 27.9872 73.0728 25.976 72.5242 24.4156C65.1305 27.3918 56.7188 27.6135 49.1716 25.0916Z" fill="#C54554"/>
<path fill-rule="evenodd" clip-rule="evenodd" d="M52.6877 19.0017C58.4766 20.8552 64.8013 21.3303 70.9563 20.3517C68.5258 12.9916 66.6614 16.413 61.6863 15.5419C55.1201 14.2549 55.8581 14.7793 52.6877 19.0017" fill="#C54554"/>
<path fill-rule="evenodd" clip-rule="evenodd" d="M45.4543 35.3261C45.5197 36.8665 43.2734 40.1842 44.9602 40.6034C49.3825 41.9572 53.8593 42.671 58.5607 42.8136C81.1459 41.9628 76.0765 39.3159 75.5086 34.9736C65.8843 38.4135 55.1643 38.5528 45.4543 35.3261" fill="#C54554"/>
<path fill-rule="evenodd" clip-rule="evenodd" d="M58.3823 5.5549C58.8181 -2.17279 69.4391 -1.52337 69.6082 5.5549C69.1724 13.2826 58.5514 12.6332 58.3823 5.5549Z" fill="#C54554"/>
<path fill-rule="evenodd" clip-rule="evenodd" d="M114.28 74.5123C111.639 72.1841 108.789 70.6925 107.996 70.2984C123.019 45.6275 92.3051 35.5717 82.3582 48.1674C78.2111 28.0363 51.1452 31.2067 49.7588 47.5412C43.662 37.24 30.4102 35.6029 19.5927 44.0298C13.3675 49.9058 13.6839 59.2421 13.7592 60.9924C2.17767 59.1512 -2.96275 71.0544 1.72672 80.4798C4.63609 86.3042 14.4461 87.9607 16.2707 87.8839C10.4226 99.4996 15.5881 112.676 32.1775 109.667C40.2865 107.378 45.2067 98.9714 46.5065 96.5708C47.7205 108.007 56.63 114.546 69.5138 110.248C76.449 107.352 79.6203 100.667 80.5407 98.5243C84.9185 116.968 108.424 109.539 107.578 96.0128C117.426 94.5496 125.129 84.4971 114.28 74.5123" fill="#7888B0"/>
<path fill-rule="evenodd" clip-rule="evenodd" d="M34.2639 60.0709C36.1089 62.0931 38.9188 64.0617 42.192 64.317C42.174 64.3161 42.2403 64.3208 42.1536 64.3147C45.0554 64.5401 48.1533 63.5184 50.7344 61.4678C48.4081 68.6413 35.9796 68.9222 34.2639 60.0709" fill="#282D3B"/>
<path fill-rule="evenodd" clip-rule="evenodd" d="M74.3938 65.485C78.3372 69.8306 85.4003 71.0612 90.7023 66.4579C88.6214 73.5267 76.3354 74.1705 74.3938 65.485Z" fill="#282D3B"/>
<path fill-rule="evenodd" clip-rule="evenodd" d="M76.6753 79.5261C76.798 75.8011 85.0832 75.721 85.7819 79.1581C86.4275 83.4511 76.699 83.381 76.6753 79.5261Z" fill="#FAD470"/>
<path fill-rule="evenodd" clip-rule="evenodd" d="M29.748 74.9017C30.4476 71.2582 38.5803 72.4324 38.8005 75.9149C38.9374 80.2241 29.1743 78.7751 29.748 74.9017Z" fill="#FAD470"/>
<path fill-rule="evenodd" clip-rule="evenodd" d="M89.9791 70.4082C89.4476 70.619 87.4756 68.6807 89.0497 68.63C89.1226 69.2733 91.1765 69.755 89.9791 70.4082Z" fill="#282D3B"/>
<path fill-rule="evenodd" clip-rule="evenodd" d="M91.1168 68.6268C91.0065 68.6263 90.4177 68.4586 89.8767 68.3284C87.8167 67.2095 92.9107 67.3928 91.1168 68.6268Z" fill="#282D3B"/>
<path fill-rule="evenodd" clip-rule="evenodd" d="M33.9064 61.9878C32.1168 61.9888 34.2233 60.0907 35.1375 61.2394C35.0181 61.7533 34.6278 61.8675 33.9064 61.9878Z" fill="#282D3B"/>
<path fill-rule="evenodd" clip-rule="evenodd" d="M34.5588 63.791C33.5418 63.8777 35.0869 61.576 35.8344 62.3823C35.9547 63.0142 35.3782 63.4661 34.5588 63.791Z" fill="#282D3B"/>
<path fill-rule="evenodd" clip-rule="evenodd" d="M35.9572 65.5942C35.2443 65.5463 35.8421 63.9439 36.6697 63.6033C37.2883 63.8695 36.853 65.2209 35.9572 65.5942Z" fill="#282D3B"/>
<path fill-rule="evenodd" clip-rule="evenodd" d="M37.7397 67.2945C37.1429 67.2628 37.3395 65.5992 38.0581 65.0668C38.6705 65.1928 38.6748 66.8308 37.7397 67.2945Z" fill="#282D3B"/>
<path fill-rule="evenodd" clip-rule="evenodd" d="M40.1233 68.112C39.6131 68.1253 39.4142 66.0832 40.2275 65.9667C40.7069 65.9809 40.8883 67.9836 40.1233 68.112Z" fill="#282D3B"/>
<path fill-rule="evenodd" clip-rule="evenodd" d="M42.9773 68.3548C42.4965 68.4064 41.957 65.6675 43.181 66.2298C43.3435 66.6836 43.7702 68.1695 42.9773 68.3548Z" fill="#282D3B"/>
<path fill-rule="evenodd" clip-rule="evenodd" d="M45.9842 67.8663C45.2623 68.0605 44.304 64.9205 45.7473 66.1592C45.5673 66.4879 47.0575 67.5139 45.9842 67.8663Z" fill="#282D3B"/>
<path fill-rule="evenodd" clip-rule="evenodd" d="M48.2741 66.8838C47.8189 66.8805 46.1619 64.55 47.8061 65.1402C47.9444 65.558 49.3806 66.5144 48.2741 66.8838Z" fill="#282D3B"/>
<path fill-rule="evenodd" clip-rule="evenodd" d="M50.052 65.2726C49.7583 65.1291 48.8014 64.664 48.5925 64.1618C48.3642 62.9137 51.5616 64.7691 50.052 65.2726Z" fill="#282D3B"/>
<path fill-rule="evenodd" clip-rule="evenodd" d="M73.9811 67.8663C72.517 67.6342 75.6248 65.5528 75.1867 67.2429C75.0038 67.4329 74.5737 67.7578 73.9811 67.8663Z" fill="#282D3B"/>
<path fill-rule="evenodd" clip-rule="evenodd" d="M74.9641 69.5844C74.1096 69.7052 75.3639 67.1473 76.2322 67.9104C76.3852 68.5655 75.7486 69.2552 74.9641 69.5844Z" fill="#282D3B"/>
<path fill-rule="evenodd" clip-rule="evenodd" d="M76.5938 71.6207C75.8364 71.6661 76.6857 69.6103 77.5232 69.4081C78.13 69.7851 77.5203 71.1541 76.5938 71.6207Z" fill="#282D3B"/>
<path fill-rule="evenodd" clip-rule="evenodd" d="M79.2054 72.8451C78.6876 73.0081 78.6583 70.4379 79.708 70.7879C80.0253 71.2379 80.0519 72.4013 79.2054 72.8451Z" fill="#282D3B"/>
<path fill-rule="evenodd" clip-rule="evenodd" d="M81.9813 73.335C81.4721 73.4013 81.0884 70.6772 82.2783 71.3119C82.4156 71.7657 82.7444 73.1465 81.9813 73.335Z" fill="#282D3B"/>
<path fill-rule="evenodd" clip-rule="evenodd" d="M84.92 73.253C83.8286 73.3222 84.101 69.3996 85.0412 72.1119C85.1203 72.3436 85.6883 73.0934 84.92 73.253Z" fill="#282D3B"/>
<path fill-rule="evenodd" clip-rule="evenodd" d="M87.7596 72.2267C86.971 72.411 85.7422 69.6702 87.2983 70.6697C87.1429 71.0719 88.9742 71.672 87.7596 72.2267Z" fill="#282D3B"/>
</g>
</svg>
