<svg width="210" height="235" viewBox="0 0 210 235" fill="none" xmlns="http://www.w3.org/2000/svg">
<mask id="mask0_1_2350" style="mask-type:alpha" maskUnits="userSpaceOnUse" x="0" y="0" width="188" height="235">
<path fill-rule="evenodd" clip-rule="evenodd" d="M0.235596 0.254517H187.27V234.632H0.235596V0.254517Z" fill="white"/>
</mask>
<g mask="url(#mask0_1_2350)">
<path fill-rule="evenodd" clip-rule="evenodd" d="M95.6588 5.75904C50.1309 8.91988 -18.4549 42.429 4.95352 98.6222C11.3391 113.951 11.7505 125.484 5.92129 141.232C-0.806287 159.407 -2.81584 177.057 9.65074 193.155C37.8592 229.579 105.955 230.875 147.123 221.265C203.364 208.134 217.674 147.81 205.907 97.8429C200.17 73.4792 189.087 38.5365 169.285 21.6777C153.307 8.07324 129.694 5.48773 109.525 5.34489C104.806 5.31033 100.184 5.44461 95.6588 5.75904" fill="#ADE1F9"/>
<path fill-rule="evenodd" clip-rule="evenodd" d="M170.451 155.987C169.93 165.144 157.346 164.504 157.114 155.987C157.635 146.829 170.219 147.471 170.451 155.987Z" fill="#B89B82"/>
<path fill-rule="evenodd" clip-rule="evenodd" d="M149.642 184.653C104.123 184.653 67.2225 140.864 67.2225 86.848C67.2225 49.4449 84.9189 16.9506 110.916 0.498586C26.0591 -4.91865 -22.7486 105.419 23.3726 184.509C65.5647 255.888 157.352 251.072 192.644 170.297C180.125 179.401 165.401 184.653 149.642 184.653Z" fill="#FDCD92"/>
<path fill-rule="evenodd" clip-rule="evenodd" d="M108.137 1.47014C67.1664 16.3519 54.6117 74.5629 61.9315 112.295C65.9007 132.76 78.3113 150.784 96.304 161.404C52.0623 116.469 59.3921 33.504 110.916 0.498398C110.195 0.443342 109.47 0.409085 108.746 0.370239C108.818 0.798149 108.654 1.28234 108.137 1.47014" fill="#FFE1AC"/>
<path fill-rule="evenodd" clip-rule="evenodd" d="M112.828 214.949C39.1777 213.96 -3.29401 127.592 20.7625 55.1241C-9.58174 112.418 6.87857 189.831 59.7109 222.038C109.125 251.597 168.161 227.635 192.644 170.298C191.272 171.296 189.867 172.239 188.442 173.144C170.322 198.701 143.178 214.949 112.828 214.949" fill="#FABC8C"/>
<path fill-rule="evenodd" clip-rule="evenodd" d="M46.5986 40.3576C46.3184 45.4775 39.2568 45.0716 39.1437 40.3576C39.4235 35.2349 46.4857 35.642 46.5986 40.3576Z" fill="#FFE7B4"/>
<path fill-rule="evenodd" clip-rule="evenodd" d="M37.5453 48.5226C37.2651 53.6446 30.2032 53.2381 30.0897 48.5226C30.3705 43.4023 37.4318 43.8088 37.5453 48.5226Z" fill="#FFE7B4"/>
<path fill-rule="evenodd" clip-rule="evenodd" d="M47.1312 49.7654C46.9321 53.4101 41.8975 53.115 41.806 49.7654C42.0055 46.1197 47.0401 46.4164 47.1312 49.7654Z" fill="#FFE7B4"/>
<path fill-rule="evenodd" clip-rule="evenodd" d="M31.7804 58.3863C31.5006 63.5081 24.4368 63.1022 24.324 58.3863C24.6042 53.2658 31.6673 53.6729 31.7804 58.3863Z" fill="#FFE7B4"/>
<path fill-rule="evenodd" clip-rule="evenodd" d="M37.5453 48.5226C37.2651 53.6446 30.2032 53.2381 30.0897 48.5226C30.3705 43.4023 37.4318 43.8088 37.5453 48.5226Z" fill="#FFE7B4"/>
<path fill-rule="evenodd" clip-rule="evenodd" d="M39.9648 56.9318C39.7656 60.5774 34.7307 60.2801 34.6387 56.9318C34.8387 53.287 39.8733 53.5819 39.9648 56.9318Z" fill="#FFE7B4"/>
<path fill-rule="evenodd" clip-rule="evenodd" d="M122.771 202.828C125.824 198.692 131.49 202.918 129.009 206.912C125.955 211.048 120.291 206.822 122.771 202.828Z" fill="#FFE7B4"/>
<path fill-rule="evenodd" clip-rule="evenodd" d="M134.819 200.956C137.873 196.821 143.537 201.047 141.056 205.041C138.003 209.175 132.337 204.95 134.819 200.956Z" fill="#FFE7B4"/>
<path fill-rule="evenodd" clip-rule="evenodd" d="M127.48 194.666C129.642 191.725 133.693 194.73 131.935 197.582C129.772 200.522 125.722 197.517 127.48 194.666" fill="#FFE7B4"/>
<path fill-rule="evenodd" clip-rule="evenodd" d="M145.045 195.862C148.101 191.729 153.764 195.952 151.283 199.947C148.23 204.082 142.564 199.857 145.045 195.862Z" fill="#FFE7B4"/>
<path fill-rule="evenodd" clip-rule="evenodd" d="M134.819 200.956C137.873 196.821 143.537 201.047 141.056 205.041C138.003 209.175 132.337 204.95 134.819 200.956Z" fill="#FFE7B4"/>
<path fill-rule="evenodd" clip-rule="evenodd" d="M137.402 192.596C139.566 189.656 143.614 192.661 141.856 195.514C139.692 198.453 135.642 195.447 137.402 192.596Z" fill="#FFE7B4"/>
<path fill-rule="evenodd" clip-rule="evenodd" d="M118.821 123.385C127.049 126.559 136.785 133.236 145.467 139.271C153.464 144.736 161.732 150.849 165.871 159.236C169.555 166.478 169.69 177.268 164.547 183.9C158.847 197.291 148.368 197.899 135.496 197.24C125.771 196.564 118 193.761 110.581 187.925C95.494 176.968 67.0642 135.921 87.7323 122.64C98.063 117.143 108.277 118.869 118.821 123.385" fill="#B89B82"/>
<path fill-rule="evenodd" clip-rule="evenodd" d="M101.582 148.977C111.159 143.602 113.886 133.631 115.868 123.385C106.306 116.65 98.1156 117.854 89.2375 121.867C76.0983 127.804 78.9689 140.738 84.4895 153.27C90.101 152.981 96.775 151.674 101.582 148.977" fill="#AD917A"/>
<path fill-rule="evenodd" clip-rule="evenodd" d="M129.373 160.157C128.558 157.206 127.717 153.967 127.905 150.7C127.824 148.481 128.739 146.316 127.776 144.22C125.834 140.402 124.298 138.532 120.658 136.478C118.035 137.979 116.175 138.653 115.034 139.457C112.901 140.434 112.337 145.54 110.912 148.483C103.912 160.709 103.125 170.244 96.8513 173.77C101.443 178.935 105.247 187.287 112.268 189.654C113.689 189.437 114.275 186.911 115.716 186.271C118.572 185.87 119.205 182.944 121.325 181.155C123.055 179.846 125.39 180.127 125.974 177.398C127.044 174.673 126.646 171.982 127.43 169.205C129.35 166.289 130.279 163.551 129.373 160.157" fill="#AD917A"/>
<path fill-rule="evenodd" clip-rule="evenodd" d="M164.547 162.593C160.782 152.854 151.589 152.223 144.731 157.399C141.167 160.883 140.474 166 139.727 170.788C138.445 178.626 140.8 183.246 143.076 189.485C143.902 192.253 144.216 194.842 143.053 197.382C162.53 197.952 171.195 178.567 164.547 162.593" fill="#AD917A"/>
<path fill-rule="evenodd" clip-rule="evenodd" d="M124.617 173.108C125.355 171.132 125.128 169.335 126.038 166.301C126.425 164.41 127.732 167.479 128.279 163.407C126.576 150.793 128.509 146.376 126.765 139.527C124.66 133.788 117.995 132.013 114.278 136.842C107.673 145.418 109.446 156.486 104.307 165.695C99.9081 177.267 95.6817 179.929 90.9321 186.364C87.8242 190.587 86.5744 193.027 90.9902 197.188C96.6506 202.983 114.504 184.039 116.81 180.738C120.096 182.903 120.383 174.352 123.591 174.236C123.997 174.056 124.238 173.819 124.617 173.108Z" fill="#B89B82"/>
<path fill-rule="evenodd" clip-rule="evenodd" d="M125.696 151.317C125.364 151.185 125.396 144.601 126.225 147.604C126.037 148.717 126.811 150.882 125.696 151.317Z" fill="#A98A70"/>
<path fill-rule="evenodd" clip-rule="evenodd" d="M124.921 158.569C124.274 158.379 125.641 155.387 125.616 157.481C125.424 157.743 125.639 158.666 124.921 158.569Z" fill="#A98A70"/>
<path fill-rule="evenodd" clip-rule="evenodd" d="M125.882 164.725C125.497 164.717 126.254 160.143 126.934 161.784C126.555 162.482 126.922 164.444 125.882 164.725Z" fill="#A98A70"/>
<path fill-rule="evenodd" clip-rule="evenodd" d="M122.934 167.354C122.51 166.779 123.447 165.528 123.566 164.63C123.572 164.632 124.063 164.783 124.201 164.825L123.884 164.727C124.475 164.535 123.64 167.599 122.934 167.354Z" fill="#A98A70"/>
<path fill-rule="evenodd" clip-rule="evenodd" d="M122.66 172.205C122.377 171.408 123.367 169.932 123.751 168.699C124.825 168.046 123.499 172.428 122.66 172.205Z" fill="#A98A70"/>
<path fill-rule="evenodd" clip-rule="evenodd" d="M118.333 176.528C117.843 175.927 119.249 174.845 119.498 174.038C121.097 171.935 119.446 176.708 118.333 176.528Z" fill="#A98A70"/>
<path fill-rule="evenodd" clip-rule="evenodd" d="M117.225 179.78C116.675 179.35 117.795 178.77 118.176 178.231C119.721 176.691 118.4 179.937 117.225 179.78Z" fill="#A98A70"/>
<path fill-rule="evenodd" clip-rule="evenodd" d="M113.689 182.103C113.16 181.59 114.378 180.884 114.778 180.09C116.134 179.373 114.439 182.312 113.689 182.103Z" fill="#A98A70"/>
<path fill-rule="evenodd" clip-rule="evenodd" d="M122.878 162.499C122.46 162.144 122.983 158.063 123.586 159.978C123.319 160.988 123.756 162.646 122.878 162.499Z" fill="#A98A70"/>
<path fill-rule="evenodd" clip-rule="evenodd" d="M122.992 155.236C122.636 154.415 123.213 153.081 122.804 151.661C123.627 149.839 124.147 155.809 122.992 155.236Z" fill="#A98A70"/>
<path fill-rule="evenodd" clip-rule="evenodd" d="M122.878 147.771C122.815 147.629 121.785 143.923 122.995 145.047C122.968 145.531 124.036 147.661 122.878 147.771Z" fill="#A98A70"/>
<path fill-rule="evenodd" clip-rule="evenodd" d="M126.31 156.379C126.05 156.274 126.046 152.687 126.926 154.077C126.743 154.493 127.306 156.328 126.31 156.379Z" fill="#A98A70"/>
<path fill-rule="evenodd" clip-rule="evenodd" d="M119.817 172.391C119.382 171.758 120.548 170.481 120.759 169.542C122 168.44 120.665 172.586 119.817 172.391Z" fill="#A98A70"/>
<path fill-rule="evenodd" clip-rule="evenodd" d="M145.697 161.243C141.601 172.91 141.328 188.563 148.471 197.652C141.554 198.024 136.784 205.372 142.508 209.73C146.731 212.162 155.575 210.105 160.647 206.279C162.877 204.594 164.351 202.57 164.4 200.422C164.7 183.117 168.708 175.653 167.527 169.927C164.762 157.673 152.484 142.614 145.697 161.243Z" fill="#B89B82"/>
<path fill-rule="evenodd" clip-rule="evenodd" d="M162.663 165.553C161.989 165.6 162.248 162.316 162.942 164.294C162.852 164.604 163.37 165.403 162.663 165.553Z" fill="#A98A70"/>
<path fill-rule="evenodd" clip-rule="evenodd" d="M165.678 171.007C165.35 171.238 164.436 166.563 165.656 167.883C165.532 168.586 166.556 170.402 165.678 171.007Z" fill="#A98A70"/>
<path fill-rule="evenodd" clip-rule="evenodd" d="M163.811 174.488C163.215 174.092 163.666 172.597 163.47 171.712C163.476 171.711 163.988 171.685 164.133 171.677L163.803 171.694C164.291 171.312 164.558 174.472 163.811 174.488Z" fill="#A98A70"/>
<path fill-rule="evenodd" clip-rule="evenodd" d="M165.219 179.138C164.68 178.486 165.103 176.761 165.04 175.471C165.825 174.489 166.082 179.056 165.219 179.138Z" fill="#A98A70"/>
<path fill-rule="evenodd" clip-rule="evenodd" d="M162.638 184.684C161.97 184.287 162.92 182.789 162.877 181.944C163.658 179.422 163.742 184.469 162.638 184.684Z" fill="#A98A70"/>
<path fill-rule="evenodd" clip-rule="evenodd" d="M162.714 188.118C162.003 187.822 163.066 186.776 163.175 186.015C164.241 184.941 163.579 187.965 162.714 188.118Z" fill="#A98A70"/>
<path fill-rule="evenodd" clip-rule="evenodd" d="M160.188 191.512C159.517 191.214 160.418 190.132 160.522 189.249C161.547 188.106 160.969 191.454 160.188 191.512Z" fill="#A98A70"/>
<path fill-rule="evenodd" clip-rule="evenodd" d="M162.093 169.946C161.577 169.758 160.668 165.744 161.893 167.335C161.989 168.376 162.969 169.782 162.093 169.946Z" fill="#A98A70"/>
<path fill-rule="evenodd" clip-rule="evenodd" d="M159.707 163.085C159.089 162.439 159.176 160.985 158.303 159.791C158.451 157.801 160.988 163.227 159.707 163.085Z" fill="#A98A70"/>
<path fill-rule="evenodd" clip-rule="evenodd" d="M157.038 156.114C156.921 155.808 154.954 153.548 156.001 153.374C156.314 153.531 158.126 155.9 157.038 156.114Z" fill="#A98A70"/>
<path fill-rule="evenodd" clip-rule="evenodd" d="M163.215 163.019C162.936 163.011 161.7 159.644 163.003 160.646C162.975 161.101 164.136 162.64 163.215 163.019Z" fill="#A98A70"/>
<path fill-rule="evenodd" clip-rule="evenodd" d="M162.612 180.288C161.986 179.843 162.643 178.241 162.519 177.288C163.307 175.828 163.474 180.182 162.612 180.288Z" fill="#A98A70"/>
<path fill-rule="evenodd" clip-rule="evenodd" d="M59.1982 98.7593C59.2193 89.5927 64.5668 83.7586 64.5717 88.7525C64.6604 89.2379 64.6522 89.4386 65.307 89.1523C67.4625 87.9135 67.7733 85.1714 70.5897 83.624C71.0665 83.4218 71.3531 83.616 71.4575 84.0874C71.5654 89.0703 73.772 83.9485 75.8613 84.1232C77.7287 85.0301 74.9294 88.6387 79.6896 86.9209" fill="#B89B82"/>
<path fill-rule="evenodd" clip-rule="evenodd" d="M115.475 94.53C117.51 95.3871 127.739 102.866 121.261 102.538C120.776 102.58 119.718 102.298 120.094 102.94C122.179 105.15 129.184 109.936 122.124 109.753C123.051 111.694 125.158 113.427 124.923 115.796C124.603 119.008 122.344 114.673 120.589 115.878" fill="#9E8670"/>
<path fill-rule="evenodd" clip-rule="evenodd" d="M48.1432 131.33C48.4509 135.05 47.4275 140.173 49.9821 143.065C51.7751 144.743 52.6471 137.737 53.1977 142.772C53.3234 144.705 53.5577 146.518 54.7178 148.215C56.6589 150.278 57.0648 144.705 57.9548 147.239C58.8847 149.28 60.0054 152.691 62.4554 152.205C63.0904 151.585 62.0617 149.085 63.5223 148.421" fill="#9E8670"/>
<path fill-rule="evenodd" clip-rule="evenodd" d="M118.006 97.8773C126.375 113.06 124.416 130.186 99.006 144.195C71.5158 159.349 58.0665 150.715 49.6973 135.532C41.3284 120.35 49.8343 99.6134 68.6978 89.2145C87.5611 78.8171 109.636 82.6949 118.006 97.8773" fill="#9E8670"/>
<path fill-rule="evenodd" clip-rule="evenodd" d="M116.1 98.9278C124.143 113.597 123.368 131.873 97.6724 145.277C78.8869 155.064 66.9488 151.952 58.654 144.001C56.5985 142.003 54.8049 139.698 53.2092 137.195C52.3087 136.142 51.7649 133.468 49.9279 133.622C49.2253 133.363 49.1491 132.251 48.9004 131.59C38.8958 91.4282 96.5532 65.0813 116.1 98.9278" fill="#B89B82"/>
<path fill-rule="evenodd" clip-rule="evenodd" d="M39.7918 100.09C34.1574 103.395 34.0336 107.816 34.0427 112.571C32.9887 112.415 32.6819 113.517 33.3493 114.344C34.3728 115.925 37.3269 116.624 35.0864 117.975C35.7318 119.572 38.1811 119.183 39.6071 119.563C38.5311 122.326 41.3383 121.765 42.8619 121.569C42.5263 122.764 43.6703 123.219 44.5909 122.709C45.9835 122.192 46.3861 120.9 47.8282 120.738C64.3534 115.537 54.4384 92.8389 39.7918 100.09" fill="#B89B82"/>
<path fill-rule="evenodd" clip-rule="evenodd" d="M46.8318 116.313C47.7763 112.669 49.2081 108.717 50.8628 105.202C39.7669 95.7507 32.9276 116.94 46.8318 116.313" fill="#E6B6B7"/>
<path fill-rule="evenodd" clip-rule="evenodd" d="M41.4386 109.714C40.5761 107.423 41.0826 105.38 42.3755 103.737C38.4546 105.891 37.6997 111.688 41.2927 114.753C42.0739 116.02 48.1698 117.406 46.6815 115.517C44.3878 114.125 42.4067 112.21 41.4386 109.714Z" fill="#E5AAB0"/>
<path fill-rule="evenodd" clip-rule="evenodd" d="M49.9544 108.426C47.803 106.749 48.8582 109.164 48.2049 109.994C45.7212 110.623 47.7537 111.692 46.9832 112.953C43.9955 113.087 45.723 115.633 47.1282 116.682" fill="#B89B82"/>
<path fill-rule="evenodd" clip-rule="evenodd" d="M92.3678 71.1068C98.086 68.1123 102.017 70.3651 105.991 72.9087C106.293 72.3043 107.046 71.9853 107.577 72.7683C108.614 73.7198 107.852 77.1085 109.074 77.0027C109.52 76.7397 109.879 76.4806 110.175 76.8727C110.686 78.555 109.464 79.817 108.932 81.346C111.926 81.9844 109.8 83.9933 108.891 85.17C110.08 85.5251 109.856 86.7348 108.932 87.2414C107.805 88.1186 106.47 87.8035 105.597 88.8686C92.4223 100.175 78.3652 79.6742 92.3678 71.1068" fill="#B89B82"/>
<path fill-rule="evenodd" clip-rule="evenodd" d="M102.328 85.7215C98.7417 84.5729 94.6363 83.6758 90.7799 83.1972C88.7122 68.7623 110.277 74.3114 102.328 85.7215Z" fill="#E6B6B7"/>
<path fill-rule="evenodd" clip-rule="evenodd" d="M92.4011 83.4175C93.1657 78.9267 97.3433 76.1828 101.713 76.1032C96.2211 71.5825 88.9145 76.9609 90.7797 83.1969C91.1987 83.1575 91.7113 83.3297 92.4011 83.4175" fill="#E5AAB0"/>
<path fill-rule="evenodd" clip-rule="evenodd" d="M93.9914 84.1509C93.7198 81.4341 95.2014 83.618 96.2512 83.5079C97.8496 82.048 97.9028 83.4128 99.1967 84.1392C101.213 81.7776 102.216 84.0704 102.481 86.1684" fill="#B89B82"/>
<path fill-rule="evenodd" clip-rule="evenodd" d="M112.537 94.2933C115.048 96.042 121.375 98.7544 120.655 101.612C119.76 102.432 116.614 100.931 119.118 103.023C126.693 109.332 118.436 106.467 120.159 108.146C121.104 109.722 122.82 111.365 121.754 113.299C121.105 113.78 119.768 111.719 118.617 112.463" fill="#B89B82"/>
<path fill-rule="evenodd" clip-rule="evenodd" d="M49.8816 128.244C49.9006 130.987 49.2543 134.734 49.8177 137.461C51.0286 141.588 51.7673 140.542 53.3348 138.17C54.2222 140.336 54.2176 148.271 57.4558 142.928C58.43 144.474 58.7178 146.772 60.5255 147.676C62.9767 148.902 60.8873 145.315 62.5476 144.601" fill="#B89B82"/>
<path fill-rule="evenodd" clip-rule="evenodd" d="M62.5691 94.3677C61.6478 94.6088 62.2289 92.6916 62.3461 91.8994C62.4614 91.2194 62.7865 89.6176 63.3518 90.8297C63.0374 91.3733 63.0306 93.2507 62.5691 94.3677" fill="#A98A70"/>
<path fill-rule="evenodd" clip-rule="evenodd" d="M68.6306 91.569C67.1725 91.8823 69.1576 85.7505 70.2905 86.2745C70.5471 86.5672 70.3569 86.7819 69.8871 87.49C68.9156 88.8034 69.0982 90.1887 68.6306 91.569" fill="#A98A70"/>
<path fill-rule="evenodd" clip-rule="evenodd" d="M73.4844 90.5228C72.1836 90.5938 74.0751 87.5336 74.2904 86.7649C75.7922 85.7311 73.7689 89.9334 73.4844 90.5228Z" fill="#A98A70"/>
<path fill-rule="evenodd" clip-rule="evenodd" d="M73.3874 98.7221C71.9232 99.258 71.1041 91.645 72.4074 94.7156C72.1728 96.3596 73.6239 97.4084 73.3874 98.7221Z" fill="#A98A70"/>
<path fill-rule="evenodd" clip-rule="evenodd" d="M67.7766 98.1499C66.9003 98.2297 66.71 96.2703 66.4311 95.502C66.0631 95.116 66.6106 93.72 67.052 95.037C67.0373 96.0348 68.1418 97.183 67.7766 98.1499" fill="#A98A70"/>
<path fill-rule="evenodd" clip-rule="evenodd" d="M71.8034 102.99C71.5409 103.27 68.8086 100.279 70.111 100.207C70.6499 100.819 72.1976 102.103 71.8034 102.99Z" fill="#A98A70"/>
<path fill-rule="evenodd" clip-rule="evenodd" d="M77.011 106.772C76.828 107.174 74.3609 104.106 75.685 104.092C76.0958 104.688 77.374 105.805 77.011 106.772Z" fill="#A98A70"/>
<path fill-rule="evenodd" clip-rule="evenodd" d="M79.8931 108.306C79.4643 108.506 78.3549 106.873 79.044 106.342C79.4239 106.362 80.2904 107.707 79.8931 108.306Z" fill="#A98A70"/>
<path fill-rule="evenodd" clip-rule="evenodd" d="M78.8819 113.615C78.4494 113.858 77.0048 111.543 77.6618 111.035C78.1411 111.115 79.2273 112.881 78.8819 113.615Z" fill="#A98A70"/>
<path fill-rule="evenodd" clip-rule="evenodd" d="M75.3941 110.243C75.0154 110.431 72.5871 107.215 73.119 106.609C73.4989 106.421 75.9257 109.636 75.3941 110.243Z" fill="#A98A70"/>
<path fill-rule="evenodd" clip-rule="evenodd" d="M70.8647 107.444C70.5794 107.736 67.0297 103.829 68.9466 104.476C69.3895 105.312 71.33 106.407 70.8647 107.444Z" fill="#A98A70"/>
<path fill-rule="evenodd" clip-rule="evenodd" d="M65.9961 102.796C65.2553 102.815 64.5799 100.694 64.3254 99.7316C64.6558 98.6354 66.521 102.281 65.9961 102.796Z" fill="#A98A70"/>
<path fill-rule="evenodd" clip-rule="evenodd" d="M76.6122 98.1663C75.8766 98.3333 75.7895 96.7673 75.3181 96.0849C74.4329 93.5706 77.4307 97.2802 76.6122 98.1663Z" fill="#A98A70"/>
<path fill-rule="evenodd" clip-rule="evenodd" d="M78.4663 103.254C78.0268 103.751 76.6014 100.674 78.0222 101.463C78.0558 101.85 78.9178 102.619 78.4663 103.254Z" fill="#A98A70"/>
<path fill-rule="evenodd" clip-rule="evenodd" d="M82.4912 112.033C81.6923 112.181 81.7161 110.593 81.509 109.708C81.9342 108.252 82.9549 111.529 82.4912 112.033Z" fill="#A98A70"/>
<path fill-rule="evenodd" clip-rule="evenodd" d="M76.4664 93.2232C75.8519 93.459 75.5286 91.6 75.6148 90.7383C76.1339 89.9247 76.9316 92.6155 76.4664 93.2232Z" fill="#A98A70"/>
<path fill-rule="evenodd" clip-rule="evenodd" d="M80.5853 101.679C79.8307 101.787 79.4924 99.7586 79.241 98.7009C79.6603 97.6068 81.0272 100.969 80.5853 101.679Z" fill="#A98A70"/>
<path fill-rule="evenodd" clip-rule="evenodd" d="M82.7118 108.246C81.8043 108.235 81.9101 106.641 81.5642 105.645C81.8942 104.039 83.181 107.628 82.7118 108.246Z" fill="#A98A70"/>
<path fill-rule="evenodd" clip-rule="evenodd" d="M62.0289 100.776C61.1049 100.767 60.7403 98.6056 60.2429 97.7776C60.3166 96.0066 62.544 100.235 62.0289 100.776Z" fill="#A98A70"/>
<path fill-rule="evenodd" clip-rule="evenodd" d="M52.2189 137.41C51.201 137.472 51.5335 135.012 51.476 134.129C51.6574 133.557 51.2056 132.88 51.9712 132.596C52.1743 132.745 52.345 132.657 52.2498 133.364C51.9067 134.613 52.5621 136.136 52.2189 137.41Z" fill="#A98A70"/>
<path fill-rule="evenodd" clip-rule="evenodd" d="M56.7045 143.083C55.6248 143.003 55.4648 140.218 55.1461 139.276C54.7121 138.561 55.3966 137.218 55.7683 138.729C55.7765 140.259 56.9514 141.705 56.7045 143.083Z" fill="#A98A70"/>
<path fill-rule="evenodd" clip-rule="evenodd" d="M61.015 145.731C60.1182 145.738 59.972 143.782 59.3933 142.878C58.6411 139.984 61.7949 145.144 61.015 145.731Z" fill="#A98A70"/>
<path fill-rule="evenodd" clip-rule="evenodd" d="M57.5645 137.994C56.8041 138.181 56.8842 136.549 56.4719 135.85C56.1945 133.71 58.2992 137.144 57.5645 137.994Z" fill="#A98A70"/>
<path fill-rule="evenodd" clip-rule="evenodd" d="M54.2525 133.71C53.7762 134.027 52.9764 131.893 53.612 131.631C54.0512 131.501 54.6957 133.377 54.2525 133.71Z" fill="#A98A70"/>
<path fill-rule="evenodd" clip-rule="evenodd" d="M51.0089 129.795C50.1286 129.904 50.2246 127.955 49.9233 127.107C49.6994 126.584 49.7062 125.343 50.4693 126.148C50.4476 127.181 51.4047 128.764 51.0089 129.795Z" fill="#A98A70"/>
<path fill-rule="evenodd" clip-rule="evenodd" d="M64.7548 146.113C64.0323 146.334 61.1152 141.191 62.5859 141.615C63.1107 142.778 64.8918 144.987 64.7548 146.113Z" fill="#A98A70"/>
<path fill-rule="evenodd" clip-rule="evenodd" d="M69.6976 149.905C69.4725 150.049 66.7231 148.768 68.3108 148.524C68.5791 148.78 70.2987 149.092 69.6976 149.905Z" fill="#A98A70"/>
<path fill-rule="evenodd" clip-rule="evenodd" d="M117.917 99.6997C116.815 99.362 115.4 97.766 114.142 97.3992C112.9 95.553 119.022 98.8604 117.917 99.6997Z" fill="#A98A70"/>
<path fill-rule="evenodd" clip-rule="evenodd" d="M120.319 106.522C119.591 106.58 119.055 105.062 118.298 104.523C117.825 103.753 116.672 103.596 116.824 102.631C117.474 102.279 121.073 105.965 120.319 106.522Z" fill="#A98A70"/>
<path fill-rule="evenodd" clip-rule="evenodd" d="M120.256 111.58C119.951 111.866 116.87 108.127 118.23 108.173C118.859 108.903 120.716 110.843 120.256 111.58Z" fill="#A98A70"/>
<path fill-rule="evenodd" clip-rule="evenodd" d="M115.556 104.531C115.149 104.871 112.368 101.721 114.157 102.248C114.333 102.901 116.054 103.671 115.556 104.531Z" fill="#A98A70"/>
<path fill-rule="evenodd" clip-rule="evenodd" d="M113.702 99.4435C113.407 99.616 111.395 97.9445 112.542 97.6976C112.899 97.9084 114.301 98.9376 113.702 99.4435Z" fill="#A98A70"/>
<path fill-rule="evenodd" clip-rule="evenodd" d="M112.124 94.6121C111.822 94.8014 107.832 91.239 109.811 91.684C110.318 92.4707 112.627 93.5862 112.124 94.6121Z" fill="#A98A70"/>
<path fill-rule="evenodd" clip-rule="evenodd" d="M118.583 114.946C117.725 114.947 117.349 112.618 116.602 111.913C114.261 107.829 119.539 113.657 118.583 114.946Z" fill="#A98A70"/>
<path fill-rule="evenodd" clip-rule="evenodd" d="M119.151 121.15C118.394 121.357 118.507 119.704 118.862 119.006C119.59 118.452 119.53 120.621 119.151 121.15Z" fill="#A98A70"/>
<path fill-rule="evenodd" clip-rule="evenodd" d="M78.5824 105.422C67.2497 109.454 69.4189 124.821 75.8489 134.175C84.7072 149.013 101.536 135.789 102.477 129.612C103.427 124.19 100.267 119.101 97.0649 114.445C91.7219 106.895 85.7847 103.43 78.5824 105.422" fill="#D9C3A8"/>
<path fill-rule="evenodd" clip-rule="evenodd" d="M81.4915 121.843C84.4874 129.697 93.3414 122.235 87.414 118.199C85.7198 118.74 88.5588 120.259 88.1505 121.454C88.3383 123.682 85.1729 125.03 83.7035 123.3C82.9881 122.637 82.0243 119.804 81.4915 121.843Z" fill="#5E5549"/>
<path fill-rule="evenodd" clip-rule="evenodd" d="M103.595 100.937C105.056 104.232 94.9478 109.545 92.9804 107.016C90.8341 103.804 101.956 97.9309 103.595 100.937Z" fill="#E6B6B7"/>
<path fill-rule="evenodd" clip-rule="evenodd" d="M68.9926 120.22C70.4528 123.514 60.3448 128.829 58.3777 126.3C56.2311 123.086 67.3531 117.215 68.9926 120.22Z" fill="#E6B6B7"/>
<path fill-rule="evenodd" clip-rule="evenodd" d="M84.9575 108.498C86.7572 113.254 82.5833 118.965 77.1364 116.456C72.9797 115.005 72.2716 109.708 78.5132 109.298C79.0548 108.984 79.3818 107.684 81.1528 106.916C83.0054 106.1 84.2818 107.159 84.9575 108.498" fill="#433A31"/>
<path fill-rule="evenodd" clip-rule="evenodd" d="M83.8777 107.738C84.1368 108.815 81.2167 109.567 80.8729 108.383C80.6144 107.308 83.5333 106.556 83.8777 107.738Z" fill="#E6EBE5"/>
<path fill-rule="evenodd" clip-rule="evenodd" d="M68.0287 112.864C70.8433 118.608 64.6428 121.695 61.4779 116.881C58.0944 110.927 64.9242 107.48 68.0287 112.864Z" fill="#5E5549"/>
<path fill-rule="evenodd" clip-rule="evenodd" d="M68.0314 112.626C69.0197 114.517 66.2448 116.072 65.1309 114.223C64.1417 112.332 66.9162 110.777 68.0314 112.626Z" fill="#FEFEFE"/>
<path fill-rule="evenodd" clip-rule="evenodd" d="M64.035 112.398C64.4405 113.114 63.3461 114.098 62.6533 113.159C62.2472 112.444 63.3415 111.46 64.035 112.398Z" fill="#FEFEFE"/>
<path fill-rule="evenodd" clip-rule="evenodd" d="M93.4371 98.8577C96.2514 104.601 90.0521 107.688 86.8863 102.876C83.5031 96.9212 90.3316 93.4726 93.4371 98.8577Z" fill="#5E5549"/>
<path fill-rule="evenodd" clip-rule="evenodd" d="M93.4391 98.6192C94.4283 100.511 91.6543 102.065 90.5391 100.218C89.55 98.3249 92.323 96.7711 93.4391 98.6192Z" fill="#FEFEFE"/>
<path fill-rule="evenodd" clip-rule="evenodd" d="M89.4432 98.3913C89.8487 99.1073 88.7543 100.091 88.0615 99.1526C87.6554 98.4371 88.7498 97.4532 89.4432 98.3913Z" fill="#FEFEFE"/>
</g>
</svg>
