<svg width="210" height="236" viewBox="0 0 210 236" fill="none" xmlns="http://www.w3.org/2000/svg">
<path fill-rule="evenodd" clip-rule="evenodd" d="M95.641 11.8706C50.1131 15.0315 -18.4726 48.5391 4.93547 104.733C11.3226 120.062 11.7325 131.595 5.90415 147.342C-0.823424 165.518 -2.83298 183.167 9.63269 199.266C37.8411 235.69 105.937 236.986 147.106 227.374C203.347 214.244 217.657 153.92 205.89 103.954C200.153 79.5905 189.069 44.6481 169.267 27.7874C153.289 14.1848 129.676 11.5978 109.508 11.455C104.788 11.4219 100.167 11.5562 95.641 11.8706" fill="#ADE1F9"/>
<path fill-rule="evenodd" clip-rule="evenodd" d="M167.038 158.279C169.598 154.724 167.78 149.315 163.37 149.215C164.507 142.632 151.258 143.435 154.683 148.371C149.395 144.057 144.714 151.772 149.663 154.477C146.356 154.427 147.956 162.124 152.343 160.894C153.593 164.98 158.439 165.969 160.969 162.652C166.014 169.39 171.927 158.216 167.038 158.279" fill="#FEFAFC"/>
<path fill-rule="evenodd" clip-rule="evenodd" d="M150.642 185.015C105.124 185.015 68.2226 141.226 68.2226 87.2103C68.2226 49.8072 85.9189 17.313 111.916 0.860912C27.0595 -4.55663 -21.7489 105.781 24.3727 184.87C66.5639 256.248 158.353 251.434 193.644 170.658C181.125 179.763 166.401 185.015 150.642 185.015" fill="#FDCD92"/>
<path fill-rule="evenodd" clip-rule="evenodd" d="M109.137 1.83214C68.0579 16.7475 55.5088 75.2877 63.0132 113.062C67.0746 133.395 79.432 151.205 97.3042 161.766C53.0634 116.832 60.3913 33.8654 111.916 0.860703C111.195 0.805647 110.47 0.771083 109.746 0.732544C109.818 1.16045 109.654 1.64311 109.137 1.83214" fill="#FFE1AC"/>
<path fill-rule="evenodd" clip-rule="evenodd" d="M113.828 215.311C40.1764 214.322 -2.29407 127.954 21.7625 55.485C-8.5815 112.781 7.87819 190.191 60.7108 222.398C110.124 251.957 169.161 227.997 193.644 170.66C192.272 171.658 190.867 172.601 189.443 173.505C171.322 199.062 144.178 215.311 113.828 215.311" fill="#FABC8C"/>
<path fill-rule="evenodd" clip-rule="evenodd" d="M47.5985 40.7196C47.3183 45.8396 40.2567 45.4337 40.1436 40.7196C40.4234 35.5972 47.4856 36.0044 47.5985 40.7196Z" fill="#FFE7B4"/>
<path fill-rule="evenodd" clip-rule="evenodd" d="M38.5451 48.8845C38.265 54.0069 31.2031 53.6004 31.0896 48.8845C31.3704 43.7646 38.4317 44.1711 38.5451 48.8845Z" fill="#FFE7B4"/>
<path fill-rule="evenodd" clip-rule="evenodd" d="M48.1311 50.1275C47.932 53.7722 42.8974 53.477 42.8059 50.1275C43.005 46.4821 48.0399 46.7788 48.1311 50.1275Z" fill="#FFE7B4"/>
<path fill-rule="evenodd" clip-rule="evenodd" d="M32.7804 58.7485C32.5006 63.8703 25.4378 63.4647 25.324 58.7485C25.6045 53.628 32.6682 54.0351 32.7804 58.7485Z" fill="#FFE7B4"/>
<path fill-rule="evenodd" clip-rule="evenodd" d="M38.5451 48.8845C38.265 54.0069 31.2031 53.6004 31.0896 48.8845C31.3704 43.7646 38.4317 44.1711 38.5451 48.8845Z" fill="#FFE7B4"/>
<path fill-rule="evenodd" clip-rule="evenodd" d="M40.9647 57.2941C40.7656 60.9391 35.7316 60.6431 35.6401 57.2938C35.8396 53.6488 40.8732 53.9449 40.9647 57.2941Z" fill="#FFE7B4"/>
<path fill-rule="evenodd" clip-rule="evenodd" d="M123.771 203.19C126.824 199.055 132.49 203.28 130.009 207.274C126.954 211.408 121.291 207.185 123.771 203.19" fill="#FFE7B4"/>
<path fill-rule="evenodd" clip-rule="evenodd" d="M135.819 201.318C138.873 197.183 144.537 201.408 142.056 205.403C139.003 209.538 133.337 205.313 135.819 201.318Z" fill="#FFE7B4"/>
<path fill-rule="evenodd" clip-rule="evenodd" d="M128.48 195.026C130.645 192.088 134.693 195.093 132.935 197.944C130.772 200.885 126.723 197.879 128.48 195.026Z" fill="#FFE7B4"/>
<path fill-rule="evenodd" clip-rule="evenodd" d="M146.045 196.224C149.099 192.09 154.764 196.315 152.283 200.309C149.229 204.444 143.564 200.218 146.045 196.224Z" fill="#FFE7B4"/>
<path fill-rule="evenodd" clip-rule="evenodd" d="M135.819 201.318C138.873 197.183 144.537 201.408 142.056 205.403C139.003 209.538 133.337 205.313 135.819 201.318Z" fill="#FFE7B4"/>
<path fill-rule="evenodd" clip-rule="evenodd" d="M138.401 192.958C140.564 190.018 144.614 193.023 142.856 195.876C140.692 198.815 136.642 195.808 138.401 192.958Z" fill="#FFE7B4"/>
<path fill-rule="evenodd" clip-rule="evenodd" d="M124.705 140.035C130.3 144.144 134.681 149.075 140.618 150.836C145.319 152.621 150.24 152.951 155.054 154.932C162.906 158.343 168.696 165.801 169.444 174.355C169.943 179.715 168.445 184.469 165.361 188.795C160.181 202.125 142.159 200.385 130.871 197.579C119.679 194.23 108.837 184.895 101.511 175.164C80.8588 147.674 94.4302 117.193 124.705 140.035" fill="#FBE8F0"/>
<path fill-rule="evenodd" clip-rule="evenodd" d="M110.874 156.994C119.266 152.285 122.65 148.789 124.387 139.813C116.011 133.912 107.837 129.728 100.06 133.243C88.5476 138.446 89.0774 149.473 93.9147 160.452C98.83 160.2 106.663 159.358 110.874 156.994Z" fill="#FADAE8"/>
<path fill-rule="evenodd" clip-rule="evenodd" d="M143.431 191.405C136.909 179.251 124.598 170.099 111.255 166.721C108.787 165.734 94.9823 165.913 97.8241 169.751C102.82 177.924 109.988 185.671 118.45 191.489C126.172 196.755 133.577 199.141 143.361 199.422C144.69 197.221 145.119 194.566 143.431 191.405Z" fill="#FEFAFC"/>
<path fill-rule="evenodd" clip-rule="evenodd" d="M135.221 166.79C133.323 162.438 134.569 157.38 133.825 152.828C132.133 149.5 130.771 147.836 127.586 146.046C125.811 147.05 124.361 148.297 123.45 149.531C121.188 152.291 120.552 157.822 119.212 161.529C116.442 167.825 110.908 177.857 105.126 181.61C109.132 185.288 119.913 194.314 120.989 192.21C123.303 188.563 124.383 190.137 125.817 188.048C127.038 186.256 128.305 184.483 130.633 184.119C133.006 182.586 132.776 179.191 133.139 176.652C133.169 174.635 134.291 173.467 135.155 171.902C135.681 170.273 135.524 168.407 135.221 166.79" fill="#ECDEE5"/>
<path fill-rule="evenodd" clip-rule="evenodd" d="M166.04 168.924C162.766 160.608 155.322 159.893 149.053 164.037C146.092 166.579 145.279 170.396 144.593 174.137C141.68 188.089 150.225 191.5 147.208 199.403C164.299 199.902 171.85 182.895 166.04 168.924Z" fill="#F8CADE"/>
<path fill-rule="evenodd" clip-rule="evenodd" d="M131.055 178.136C133.05 166.511 132.862 174.9 134.222 169.94C134.151 165.457 133.097 161.415 133.606 156.754C134.448 149.55 131.03 139.717 123.344 145.812C121.762 147.508 121.631 150.135 121.579 152.5C121.522 156.427 121.919 161.064 119.972 164.799C115.553 173.615 108.806 181.052 102.684 188.34C99.7312 192.183 98.8435 193.166 100.259 197.583C104.572 206.868 121.912 187.907 124.215 184.821C127.178 186.642 127.252 179.397 130.04 179.175C130.451 179.007 130.683 178.828 131.055 178.136" fill="#FBE8F0"/>
<path fill-rule="evenodd" clip-rule="evenodd" d="M132.001 159.045C131.538 158.407 132.058 152.406 132.496 156.593C132.269 157.387 132.935 158.782 132.001 159.045Z" fill="#F7C3D9"/>
<path fill-rule="evenodd" clip-rule="evenodd" d="M131.322 165.398C130.754 165.235 131.954 162.61 131.931 164.446C131.763 164.674 131.95 165.486 131.322 165.398Z" fill="#F7C3D9"/>
<path fill-rule="evenodd" clip-rule="evenodd" d="M132.163 170.792C131.825 170.886 132.477 166.761 133.085 168.216C132.771 168.757 133.068 170.56 132.163 170.792Z" fill="#F7C3D9"/>
<path fill-rule="evenodd" clip-rule="evenodd" d="M129.581 173.096C129.275 172.888 130.016 170.154 130.691 170.88L130.413 170.794C130.911 170.643 130.225 173.281 129.581 173.096Z" fill="#F7C3D9"/>
<path fill-rule="evenodd" clip-rule="evenodd" d="M129.341 177.345C129.001 176.666 130.019 175.615 130.16 174.449C131.221 173.319 130.245 177.415 129.341 177.345Z" fill="#F7C3D9"/>
<path fill-rule="evenodd" clip-rule="evenodd" d="M125.55 181.133C125.116 180.624 126.297 179.732 126.543 179C127.955 177.031 126.59 181.24 125.55 181.133Z" fill="#F7C3D9"/>
<path fill-rule="evenodd" clip-rule="evenodd" d="M124.58 183.982C124.082 183.525 125.272 182.985 125.592 182.389C126.689 181.833 125.531 184.001 124.58 183.982Z" fill="#F7C3D9"/>
<path fill-rule="evenodd" clip-rule="evenodd" d="M121.481 186.016C121.054 185.522 122.009 185.042 122.435 184.254C123.623 183.622 122.139 186.201 121.481 186.016Z" fill="#F7C3D9"/>
<path fill-rule="evenodd" clip-rule="evenodd" d="M129.533 168.842C129.239 168.958 129.597 166.549 129.584 166.475C129.834 165.913 130.335 166.39 130.102 167.14C129.856 168.221 130.302 168.823 129.533 168.842" fill="#F7C3D9"/>
<path fill-rule="evenodd" clip-rule="evenodd" d="M129.632 162.479C129.318 161.753 129.827 160.635 129.467 159.346C130.18 157.747 130.648 162.973 129.632 162.479Z" fill="#F7C3D9"/>
<path fill-rule="evenodd" clip-rule="evenodd" d="M129.533 155.939C129.534 155.973 128.542 152.543 129.634 153.552C129.611 153.977 130.546 155.84 129.533 155.939Z" fill="#F7C3D9"/>
<path fill-rule="evenodd" clip-rule="evenodd" d="M132.539 163.478C132.316 163.465 132.294 160.247 133.078 161.462C132.92 161.769 133.412 163.421 132.539 163.478Z" fill="#F7C3D9"/>
<path fill-rule="evenodd" clip-rule="evenodd" d="M126.851 177.509C126.568 176.902 127.418 175.644 127.833 174.855C128.739 174.444 127.458 177.725 126.851 177.509Z" fill="#F7C3D9"/>
<path fill-rule="evenodd" clip-rule="evenodd" d="M100.728 95.2365L99.7353 95.0056C99.2471 99.8949 97.3042 99.1663 97.3042 99.1663C95.3757 99.1113 95.4993 94.578 95.4993 94.578L94.0672 94.6392C95.2029 100.772 92.0194 99.9652 92.0194 99.9652C89.8686 99.3734 87.8761 93.4334 87.4238 91.9983L86.3318 92.3038C86.6891 93.7656 88.0682 99.8772 86.5358 101.499C86.5358 101.499 84.2339 103.84 82.0224 98.0086L80.7662 98.6983C83.323 102.049 82.0717 107.083 77.3671 101.263L76.6392 101.975C76.6392 101.975 79.5174 105.625 80.992 111.878L91.2661 109.083L91.267 109.088C91.4157 109.045 91.6503 108.978 91.9124 108.908L91.9109 108.904L102.144 105.961C100.161 99.8505 100.728 95.2365 100.728 95.2365" fill="#FABA8B"/>
<path fill-rule="evenodd" clip-rule="evenodd" d="M101.751 104.641C93.5805 110.206 82.4074 110.006 76.733 101.883C76.4678 101.98 79.5329 105.509 80.9919 111.878L91.2663 109.083L91.2672 109.088C91.4156 109.045 91.6505 108.978 91.9123 108.908L91.9108 108.904L102.144 105.96C101.999 105.512 101.871 105.074 101.751 104.641" fill="#F8AA7D"/>
<path fill-rule="evenodd" clip-rule="evenodd" d="M78.5301 101.15C79.0073 103.024 76.2416 103.844 75.617 101.965C75.1399 100.091 77.9064 99.2696 78.5301 101.15Z" fill="#FCC790"/>
<path fill-rule="evenodd" clip-rule="evenodd" d="M77.7121 100.652C77.9238 101.324 76.2183 101.214 77.1949 100.399C77.3295 100.38 77.4576 100.358 77.7121 100.652Z" fill="#FDE9E4"/>
<path fill-rule="evenodd" clip-rule="evenodd" d="M82.6446 97.8817C83.1212 99.7558 80.358 100.577 79.7322 98.6965C79.2568 96.8237 82.0201 96.0006 82.6446 97.8817Z" fill="#FCC790"/>
<path fill-rule="evenodd" clip-rule="evenodd" d="M81.8264 97.3841C82.0396 98.0564 80.3316 97.9457 81.3101 97.1306C81.4447 97.1116 81.5731 97.0902 81.8264 97.3841Z" fill="#FDE9E4"/>
<path fill-rule="evenodd" clip-rule="evenodd" d="M96.365 94.1292C96.8406 96.0023 94.0753 96.823 93.4519 94.9428C92.9751 93.0703 95.7419 92.2493 96.365 94.1292Z" fill="#FCC790"/>
<path fill-rule="evenodd" clip-rule="evenodd" d="M95.547 93.6315C95.7581 94.3026 94.0531 94.1946 95.0301 93.3767C95.1647 93.3583 95.2928 93.3375 95.547 93.6315Z" fill="#FDE9E4"/>
<path fill-rule="evenodd" clip-rule="evenodd" d="M101.775 94.6525C102.25 96.5259 99.486 97.3481 98.8614 95.4673C98.3845 93.5929 101.149 92.7729 101.775 94.6525" fill="#FCC790"/>
<path fill-rule="evenodd" clip-rule="evenodd" d="M100.956 94.1546C101.169 94.8257 99.462 94.718 100.44 93.9013C100.574 93.8821 100.702 93.861 100.956 94.1546Z" fill="#FDE9E4"/>
<path fill-rule="evenodd" clip-rule="evenodd" d="M88.2607 91.557C88.7379 93.4317 85.9719 94.2527 85.3479 92.3722C84.8711 90.4987 87.6364 89.6766 88.2607 91.557Z" fill="#FCC790"/>
<path fill-rule="evenodd" clip-rule="evenodd" d="M87.4416 91.0594C87.6554 91.7314 85.9481 91.6216 86.9256 90.8059C87.0605 90.7869 87.1887 90.7655 87.4416 91.0594Z" fill="#FDE9E4"/>
<path fill-rule="evenodd" clip-rule="evenodd" d="M100.213 99.8057C100.213 99.8008 100.188 101.103 101.144 104.84C101.144 104.838 100.99 105.465 100.666 105.485C98.3664 103.669 100.163 95.3501 100.213 99.8057Z" fill="#FDD6B3"/>
<path fill-rule="evenodd" clip-rule="evenodd" d="M116.895 108.969C117.314 108.666 120.115 107.091 119.963 107.084C124.034 103.47 116.759 105.158 122.536 99.9776C123.005 99.4892 123.319 99.0273 123.544 98.4299C124.258 96.6198 121.173 98.021 122.051 95.8612C127.691 85.3192 123.092 90.7979 123.177 86.0585" fill="#E6B7C3"/>
<path fill-rule="evenodd" clip-rule="evenodd" d="M106.28 110.119C105.521 110.373 94.9423 74.8146 109.23 56.4237C119.536 42.447 131.219 58.4234 127.322 73.4241C122.827 88.5796 116.272 113.849 116.501 113.759" fill="#E6B7C3"/>
<path fill-rule="evenodd" clip-rule="evenodd" d="M106.558 110.213C105.809 110.465 95.413 76.3747 108.747 58.8035C118.359 45.4527 129.472 58.5965 125.761 72.9891C121.526 87.5246 115.032 112.197 115.269 112.105" fill="#FBE8F0"/>
<path fill-rule="evenodd" clip-rule="evenodd" d="M107.671 105.723C107.203 105.883 101.773 84.0509 109.496 72.9919C115.039 64.5903 120.383 73.1305 118.364 82.2659C116.018 91.4933 112.685 107.103 112.838 107.042" fill="#E6B7C3"/>
<path fill-rule="evenodd" clip-rule="evenodd" d="M111.835 106.681C114.577 96.9087 117.424 79.4699 108.376 74.8412C112.952 65.9796 118.552 69.1306 118.8 78.2694C118.771 82.3038 117.374 85.6117 116.566 89.7076C114.614 98.1056 112.728 107.063 112.838 107.042L111.785 106.774C111.803 106.743 111.823 106.719 111.835 106.681" fill="#E3A3B7"/>
<path fill-rule="evenodd" clip-rule="evenodd" d="M105.294 105.148C99.6478 99.5462 104.967 102.694 101.302 97.4611C100.626 95.8562 103.078 96.4119 101.954 94.6535C99.5233 88.4906 101.395 91.036 101.77 88.6469C101.656 87.2405 99.7573 83.1651 102.432 83.9542" fill="#FBE8F0"/>
<path fill-rule="evenodd" clip-rule="evenodd" d="M115.085 108.935C115.503 108.631 118.31 107.056 118.152 107.051C122.226 103.434 114.947 105.126 120.726 99.9438C121.196 99.4557 121.509 98.9935 121.734 98.3958C122.449 96.5851 119.363 97.9884 120.241 95.8274C125.883 85.286 121.279 90.7607 121.368 86.024" fill="#FBE8F0"/>
<path fill-rule="evenodd" clip-rule="evenodd" d="M70.1761 122.037C69.6604 121.995 66.4445 122.104 66.5757 122.019C61.2909 121.096 68.187 118.662 60.7872 117.306C60.0968 117.129 59.5616 116.896 59.0321 116.486C57.489 115.361 60.6997 114.901 59.0841 113.602C48.6454 107.34 55.4415 109.829 52.9163 105.711" fill="#E6B7C3"/>
<path fill-rule="evenodd" clip-rule="evenodd" d="M79.8468 117.514C80.6271 117.337 71.2207 81.4504 49.4637 73.1442C33.4019 66.5423 31.7044 86.2607 42.8193 97.0622C54.5243 107.686 73.2413 125.888 72.9972 125.928" fill="#E6B7C3"/>
<path fill-rule="evenodd" clip-rule="evenodd" d="M79.6568 117.737C80.4288 117.565 71.6275 83.0284 51.1101 74.9278C35.9666 68.5018 33.2869 85.5023 43.9274 95.8819C55.0901 106.11 73.4428 123.831 73.1908 123.874" fill="#FBE8F0"/>
<path fill-rule="evenodd" clip-rule="evenodd" d="M76.3761 114.477C66.7632 80.02 39.9432 80.3255 54.8396 99.7329C61.6531 106.478 72.7962 118.22 72.643 118.287" fill="#E6B7C3"/>
<path fill-rule="evenodd" clip-rule="evenodd" d="M73.3145 117.457C68.3075 112.894 63.7577 107.428 60.6241 101.399C58.282 96.8922 57.2858 92.7969 59.7505 88.4444C59.1274 88.07 58.4882 87.733 57.8342 87.4442C48.735 83.1373 48.5982 93.2111 55.0652 99.9723C61.857 106.644 72.8065 118.259 72.6432 118.287L73.4039 117.511C73.3739 117.493 73.343 117.482 73.3145 117.457Z" fill="#E3A3B7"/>
<path fill-rule="evenodd" clip-rule="evenodd" d="M78.1091 112.751C78.5465 110.555 79.5899 108.574 77.5442 107.066C77.4008 106.083 77.8375 105.312 77.5099 104.009C77.2735 102.517 75.4377 104.02 75.52 102.048C75.0795 100.735 75.3297 98.255 73.8092 97.4805C73.3009 97.375 72.9103 97.5145 72.5604 96.8177C71.9309 95.5551 71.4351 91.0925 69.5598 93.1503" fill="#FBE8F0"/>
<path fill-rule="evenodd" clip-rule="evenodd" d="M71.705 121.069C71.19 121.027 67.9744 121.138 68.1047 121.05C62.8214 120.127 69.7166 117.694 62.3164 116.338C61.6264 116.161 61.0911 115.928 60.5616 115.519C59.0182 114.392 62.2283 113.933 60.6139 112.634C50.1713 106.369 56.9729 108.861 54.4458 104.744" fill="#FBE8F0"/>
<path fill-rule="evenodd" clip-rule="evenodd" d="M127.14 137.438C128.741 135.888 137.116 125.1 130.242 128.153C129.714 128.271 130.211 127.321 130.47 126.884C135.368 118.086 128.544 124.05 129.688 121.612C129.955 120.217 130.486 118.917 130.066 117.482C129.083 114.563 127.695 118.135 126.046 117.818" fill="#E6B7C3"/>
<path fill-rule="evenodd" clip-rule="evenodd" d="M75.9782 150.804C74.0895 150.042 70.4193 148.978 68.8325 148.112C66.2085 146.57 64.8547 144.574 68.355 144.535C69.0754 144.394 68.3006 143.878 67.813 143.588C58.9967 138.689 67.5573 139.955 65.6772 138.696C59.153 131.631 66.0849 134.508 66.7336 133.464" fill="#E6B7C3"/>
<path fill-rule="evenodd" clip-rule="evenodd" d="M81.8967 111.665C82.2815 109.365 86.1709 101.038 88.2331 103.521C88.5035 103.951 87.6027 105.114 88.4417 105.127C90.5137 104.698 91.2312 102.438 93.847 101.676C94.3049 101.575 94.5248 101.805 94.5049 102.232C93.6445 106.332 96.5793 102.304 98.1494 103.118C99.0351 104.802 96.8528 106.438 100.581 106.032" fill="#FBE8F0"/>
<path fill-rule="evenodd" clip-rule="evenodd" d="M129.269 122.062C133.12 135.829 128.314 149.208 105.271 155.653C80.3423 162.626 71.1776 153.157 67.3267 139.389C63.4746 125.621 74.2194 110.581 91.3236 105.798C108.429 101.013 125.418 108.294 129.269 122.062" fill="#E6B7C3"/>
<path fill-rule="evenodd" clip-rule="evenodd" d="M127.541 122.545C131.235 135.869 127.136 150.427 103.838 156.311C87.3276 160.469 78.4372 155.987 73.2261 148.351C71.8555 146.31 70.7832 144.048 69.9234 141.649C69.3318 140.578 69.4532 138.176 67.8722 137.899C67.3825 137.548 67.5107 136.838 67.4354 136.188C66.8194 102.03 118.195 91.6037 127.541 122.545" fill="#FBE8F0"/>
<path fill-rule="evenodd" clip-rule="evenodd" d="M127.384 135.668C128.521 133.8 132.998 128.442 130.715 127.341C129.373 127.785 128.375 128.792 129.382 126.793C132.883 119.382 127.504 124.788 128.392 122.482C128.569 121.008 129.072 120.065 128.214 118.599C127.263 117.254 127.059 120.143 125.734 119.954" fill="#FBE8F0"/>
<path fill-rule="evenodd" clip-rule="evenodd" d="M76.4185 149.935C74.4493 149.488 63.1233 145.139 69.7628 144.297C70.2204 144.144 69.4025 143.649 69.0033 143.436C61.3193 139.101 69.0012 140.327 67.1905 139.092C66.1276 137.822 64.8744 137.258 64.9194 135.245C65.1133 133.91 66.891 136.092 67.8915 135.159" fill="#FBE8F0"/>
<path fill-rule="evenodd" clip-rule="evenodd" d="M85.4323 108.775C84.8147 108.815 85.1879 107.97 85.4919 107.255C87.2864 103.388 86.6212 107.222 85.4323 108.775Z" fill="#F7C3D9"/>
<path fill-rule="evenodd" clip-rule="evenodd" d="M90.8261 107.674C89.0163 107.443 94.2503 101.607 92.8341 104.414C91.7079 105.302 91.4742 106.556 90.8261 107.674Z" fill="#F7C3D9"/>
<path fill-rule="evenodd" clip-rule="evenodd" d="M94.9199 107.75C93.9301 107.552 95.6378 105.879 96.0222 105.22C97.8204 103.527 95.5188 107.298 94.9199 107.75Z" fill="#F7C3D9"/>
<path fill-rule="evenodd" clip-rule="evenodd" d="M93.2941 114.314C92.4976 114.497 92.1367 109.51 93.2953 110.359C92.9781 111.665 93.5553 113.213 93.2941 114.314Z" fill="#F7C3D9"/>
<path fill-rule="evenodd" clip-rule="evenodd" d="M88.8978 112.794C88.1925 112.665 88.3983 111.224 88.3179 110.416C88.5017 107.956 89.4737 112.145 88.8978 112.794Z" fill="#F7C3D9"/>
<path fill-rule="evenodd" clip-rule="evenodd" d="M91.2158 117.441C90.764 117.276 89.829 115.662 90.1581 114.888C90.6298 114.958 91.6767 116.878 91.2158 117.441Z" fill="#F7C3D9"/>
<path fill-rule="evenodd" clip-rule="evenodd" d="M94.682 121.46C94.4603 121.748 93.0579 118.822 94.1241 119.058C94.3404 119.612 95.1561 120.753 94.682 121.46Z" fill="#F7C3D9"/>
<path fill-rule="evenodd" clip-rule="evenodd" d="M96.7067 123.237C96.3219 123.303 95.7502 121.87 96.3962 121.499C96.6954 121.603 97.1364 122.763 96.7067 123.237Z" fill="#F7C3D9"/>
<path fill-rule="evenodd" clip-rule="evenodd" d="M94.8924 127.306C94.3241 127.171 94.1543 125.962 94.203 125.114C94.6214 124.439 95.3787 126.921 94.8924 127.306Z" fill="#F7C3D9"/>
<path fill-rule="evenodd" clip-rule="evenodd" d="M92.7291 123.941C92.4884 124.215 90.6731 120.237 91.8125 120.621C92.0994 121.469 93.1678 122.959 92.7291 123.941Z" fill="#F7C3D9"/>
<path fill-rule="evenodd" clip-rule="evenodd" d="M89.6212 120.84C89.4169 120.991 87.4095 117.783 88.4681 117.953C88.8526 118.5 90.1219 120.099 89.6212 120.84Z" fill="#F7C3D9"/>
<path fill-rule="evenodd" clip-rule="evenodd" d="M86.5908 116.189C85.946 115.94 85.8989 114.409 85.8289 113.413C86.2653 112.606 87.1052 115.685 86.5908 116.189Z" fill="#F7C3D9"/>
<path fill-rule="evenodd" clip-rule="evenodd" d="M95.9867 114.477C95.3074 114.368 95.5967 113.009 95.2578 112.239C95.5701 110.831 96.6309 114.058 95.9867 114.477Z" fill="#F7C3D9"/>
<path fill-rule="evenodd" clip-rule="evenodd" d="M96.5142 118.912C96.0683 119.226 95.5052 116.491 96.4962 117.389C96.4482 117.707 96.9972 118.486 96.5142 118.912Z" fill="#F7C3D9"/>
<path fill-rule="evenodd" clip-rule="evenodd" d="M98.0881 126.718C97.421 126.685 97.7366 125.462 97.7391 124.666C98.3288 123.579 98.5732 126.329 98.0881 126.718Z" fill="#F7C3D9"/>
<path fill-rule="evenodd" clip-rule="evenodd" d="M96.8034 110.482C96.2406 110.984 96.2449 107.258 97.0664 108.587C96.9055 108.938 97.3276 109.919 96.8034 110.482Z" fill="#F7C3D9"/>
<path fill-rule="evenodd" clip-rule="evenodd" d="M98.513 118.048C97.8352 117.865 98.0248 116.315 97.997 115.403C98.5665 114.622 98.9904 117.574 98.513 118.048Z" fill="#F7C3D9"/>
<path fill-rule="evenodd" clip-rule="evenodd" d="M98.9806 123.719C98.3056 123.519 98.5026 122.08 98.6371 121.207C99.2412 120.509 99.4015 123.291 98.9806 123.719Z" fill="#F7C3D9"/>
<path fill-rule="evenodd" clip-rule="evenodd" d="M83.7884 113.817C83.0782 113.67 83.1996 112.094 82.9592 111.312C83.0183 109.328 84.4026 113.275 83.7884 113.817Z" fill="#F7C3D9"/>
<path fill-rule="evenodd" clip-rule="evenodd" d="M96.1985 120.673C86.189 121.786 85.1426 134.924 88.7405 143.653C92.7856 156.144 108.551 150.015 111.061 144.792C112.887 140.704 111.045 135.874 109.443 131.681C106.534 124.447 102.577 120.486 96.1985 120.673Z" fill="#FEFAFC"/>
<path fill-rule="evenodd" clip-rule="evenodd" d="M95.4324 134.404C96.3821 141.376 104.961 136.776 100.821 132.593C99.4518 132.809 101.578 134.804 100.74 135.71C100.135 137.405 97.5478 137.455 96.8397 135.832C96.4913 135.102 96.183 132.958 95.4324 134.404Z" fill="#5E5549"/>
<path fill-rule="evenodd" clip-rule="evenodd" d="M118.053 121.897C118.62 124.794 109.535 127.158 108.395 124.796C107.164 121.827 117.322 119.166 118.053 121.897Z" fill="#F2C0CB"/>
<path fill-rule="evenodd" clip-rule="evenodd" d="M85.7058 130.741C86.2738 133.638 77.1868 136.003 76.0495 133.64C74.8175 130.67 84.9781 128.013 85.7058 130.741Z" fill="#F2C0CB"/>
<path fill-rule="evenodd" clip-rule="evenodd" d="M100.734 124.347C101.341 127.812 97.4755 132.103 93.5732 129.657C89.7819 127.68 90.0612 122.941 95.4454 123.761C95.9623 123.562 96.5162 122.518 98.2829 122.32C99.5664 122.186 100.509 123.185 100.734 124.347" fill="#433A31"/>
<path fill-rule="evenodd" clip-rule="evenodd" d="M100.012 123.533C100.015 124.424 97.5619 124.512 97.4778 123.484C97.4738 122.593 99.9275 122.504 100.012 123.533Z" fill="#E6EBE5"/>
<path fill-rule="evenodd" clip-rule="evenodd" d="M85.9909 123.712C87.1612 128.8 81.6663 130.154 79.9947 125.76C78.302 120.337 84.5118 118.774 85.9909 123.712Z" fill="#5E5549"/>
<path fill-rule="evenodd" clip-rule="evenodd" d="M86.0363 123.521C86.4599 125.191 83.9955 125.96 83.4073 124.257C82.9849 122.586 85.4481 121.817 86.0363 123.521Z" fill="#FEFEFE"/>
<path fill-rule="evenodd" clip-rule="evenodd" d="M82.8719 122.584C83.0625 123.235 81.999 123.817 81.6194 122.934C81.4285 122.284 82.4932 121.699 82.8719 122.584Z" fill="#FEFEFE"/>
<path fill-rule="evenodd" clip-rule="evenodd" d="M109.031 117.266C110.202 122.355 104.708 123.709 103.035 119.315C101.343 113.892 107.554 112.331 109.031 117.266Z" fill="#5E5549"/>
<path fill-rule="evenodd" clip-rule="evenodd" d="M109.077 117.076C109.5 118.745 107.036 119.515 106.448 117.812C106.026 116.142 108.488 115.371 109.077 117.076Z" fill="#FEFEFE"/>
<path fill-rule="evenodd" clip-rule="evenodd" d="M105.913 116.139C106.104 116.789 105.039 117.371 104.661 116.489C104.469 115.838 105.534 115.254 105.913 116.139Z" fill="#FEFEFE"/>
<path fill-rule="evenodd" clip-rule="evenodd" d="M70.3345 125.503C69.6384 113.167 73.288 119.188 73.047 113.612C73.0956 113.096 73.2651 112.266 73.7737 112.014C77.019 113.254 75.4144 110.73 77.3475 110.528C78.3137 110.976 78.4321 112.041 79.6479 112.456" fill="#FBE8F0"/>
<path fill-rule="evenodd" clip-rule="evenodd" d="M118.184 110.678C112.31 99.6912 112.433 106.898 109.638 101.848C109.352 101.448 108.693 100.823 108.212 100.94C106.216 103.654 106.146 100.754 104.441 101.49C103.806 102.294 104.287 103.389 103.453 104.357" fill="#FBE8F0"/>
<path fill-rule="evenodd" clip-rule="evenodd" d="M149.524 167.74C145.984 177.954 145.61 191.434 151.955 199.64C139.314 201.347 142.982 217.674 160.828 208.372C163.602 206.795 165.655 204.686 165.89 202.4C165.785 196.981 167.01 190.357 167.73 184.277C168.263 181.311 169.203 179.32 168.786 176.137C166.84 165.277 155.535 151.057 149.524 167.74Z" fill="#FBE8F0"/>
<path fill-rule="evenodd" clip-rule="evenodd" d="M164.388 171.518C163.799 171.558 164.024 168.681 164.633 170.414C164.553 170.685 165.008 171.385 164.388 171.518Z" fill="#F7C3D9"/>
<path fill-rule="evenodd" clip-rule="evenodd" d="M167.029 176.296C166.744 176.495 165.939 172.405 167.01 173.558C166.901 174.174 167.799 175.767 167.029 176.296Z" fill="#F7C3D9"/>
<path fill-rule="evenodd" clip-rule="evenodd" d="M165.395 179.345C165.035 179.256 164.794 176.432 165.677 176.883L165.386 176.898L165.677 176.883C165.519 177.434 166.208 178.975 165.395 179.345Z" fill="#F7C3D9"/>
<path fill-rule="evenodd" clip-rule="evenodd" d="M166.628 183.419C166.074 182.9 166.671 181.562 166.403 180.418C167.011 178.991 167.5 183.173 166.628 183.419Z" fill="#F7C3D9"/>
<path fill-rule="evenodd" clip-rule="evenodd" d="M164.367 188.279C163.784 187.947 164.588 186.706 164.567 185.934C165.218 183.599 165.38 188.017 164.367 188.279Z" fill="#F7C3D9"/>
<path fill-rule="evenodd" clip-rule="evenodd" d="M164.433 191.288C163.812 191.027 164.741 190.113 164.836 189.444C165.739 188.5 165.239 191.081 164.433 191.288Z" fill="#F7C3D9"/>
<path fill-rule="evenodd" clip-rule="evenodd" d="M162.22 194.262C161.651 193.942 162.382 193.164 162.511 192.277C163.412 191.28 162.902 194.208 162.22 194.262Z" fill="#F7C3D9"/>
<path fill-rule="evenodd" clip-rule="evenodd" d="M163.889 175.366C163.435 175.203 162.637 171.646 163.716 173.094C163.808 174.034 164.653 175.218 163.889 175.366Z" fill="#F7C3D9"/>
<path fill-rule="evenodd" clip-rule="evenodd" d="M161.799 169.356C161.255 168.782 161.349 167.558 160.568 166.469C160.691 164.724 162.92 169.47 161.799 169.356Z" fill="#F7C3D9"/>
<path fill-rule="evenodd" clip-rule="evenodd" d="M159.46 163.247C159.412 163.228 157.393 160.401 158.737 160.971C158.86 161.377 160.38 162.808 159.46 163.247Z" fill="#F7C3D9"/>
<path fill-rule="evenodd" clip-rule="evenodd" d="M164.872 169.297C164.658 169.361 163.535 166.344 164.686 167.218C164.661 167.616 165.676 168.958 164.872 169.297Z" fill="#F7C3D9"/>
<path fill-rule="evenodd" clip-rule="evenodd" d="M164.344 184.426C163.804 183.982 164.358 182.769 164.262 181.799C164.952 180.521 165.099 184.333 164.344 184.426Z" fill="#F7C3D9"/>
</svg>
