<svg width="210" height="235" viewBox="0 0 210 235" fill="none" xmlns="http://www.w3.org/2000/svg">
<path fill-rule="evenodd" clip-rule="evenodd" d="M95.4613 8.81092C49.9334 11.9718 -18.6524 45.4809 4.75601 101.674C11.1416 117.003 11.5527 128.535 5.72378 144.284C-1.0038 162.459 -3.01335 180.109 9.45293 196.206C37.6616 232.63 105.757 233.927 146.925 224.317C203.166 211.186 217.476 150.862 205.709 100.895C199.973 76.5311 188.889 41.5884 169.087 24.7295C153.109 11.1251 129.496 8.53961 109.328 8.39677C104.608 8.36221 99.9863 8.49649 95.4613 8.81092" fill="#ADE1F9"/>
<path fill-rule="evenodd" clip-rule="evenodd" d="M166.986 150.059C166.466 159.217 153.88 158.574 153.65 150.059C154.17 140.904 166.755 141.544 166.986 150.059Z" fill="#433A31"/>
<path fill-rule="evenodd" clip-rule="evenodd" d="M148.412 184.653C102.893 184.653 65.9937 140.864 65.9937 86.8479C65.9937 49.4448 83.6885 16.9506 109.685 0.498544C24.8299 -4.91808 -23.9797 105.42 22.1425 184.509C64.3353 255.888 156.123 251.072 191.414 170.297C178.895 179.401 164.171 184.653 148.412 184.653" fill="#FDCD92"/>
<path fill-rule="evenodd" clip-rule="evenodd" d="M106.908 1.47014C65.9356 16.3513 53.3812 74.5626 60.7019 112.295C64.6708 132.76 77.0818 150.784 95.0745 161.404C50.8334 116.471 58.1638 33.5022 109.685 0.498398C108.966 0.443342 108.241 0.409085 107.516 0.370239C107.589 0.798149 107.425 1.28234 106.908 1.47014" fill="#FFE1AC"/>
<path fill-rule="evenodd" clip-rule="evenodd" d="M111.598 214.949C37.9489 213.959 -4.52548 127.593 19.5329 55.1241C-10.8123 112.419 5.64862 189.831 58.4816 222.038C107.894 251.597 166.932 227.635 191.414 170.298C190.041 171.296 188.637 172.239 187.213 173.144C169.092 198.701 141.948 214.949 111.598 214.949" fill="#FABC8C"/>
<path fill-rule="evenodd" clip-rule="evenodd" d="M45.3689 40.3575C45.0881 45.4784 38.0268 45.0704 37.9133 40.3575C38.1935 35.2361 45.2554 35.6411 45.3689 40.3575Z" fill="#FFE7B4"/>
<path fill-rule="evenodd" clip-rule="evenodd" d="M36.3158 48.5225C36.0356 53.6439 28.9737 53.2386 28.8602 48.5225C29.141 43.4016 36.2023 43.8093 36.3158 48.5225Z" fill="#FFE7B4"/>
<path fill-rule="evenodd" clip-rule="evenodd" d="M45.9016 49.7654C45.7022 53.4107 40.6676 53.114 40.5762 49.7654C40.7756 46.1203 45.8105 46.4155 45.9016 49.7654Z" fill="#FFE7B4"/>
<path fill-rule="evenodd" clip-rule="evenodd" d="M30.5501 58.3863C30.2697 63.5093 23.2078 63.1013 23.0946 58.3863C23.3751 53.267 30.4364 53.672 30.5501 58.3863Z" fill="#FFE7B4"/>
<path fill-rule="evenodd" clip-rule="evenodd" d="M36.3158 48.5225C36.0356 53.6439 28.9737 53.2386 28.8602 48.5225C29.141 43.4016 36.2023 43.8093 36.3158 48.5225Z" fill="#FFE7B4"/>
<path fill-rule="evenodd" clip-rule="evenodd" d="M38.736 56.9318C38.5363 60.5768 33.5011 60.2807 33.4099 56.9318C33.609 53.2867 38.6442 53.5825 38.736 56.9318Z" fill="#FFE7B4"/>
<path fill-rule="evenodd" clip-rule="evenodd" d="M121.542 202.828C124.595 198.692 130.26 202.919 127.779 206.912C124.726 211.047 119.06 206.823 121.542 202.828Z" fill="#FFE7B4"/>
<path fill-rule="evenodd" clip-rule="evenodd" d="M133.589 200.956C136.642 196.821 142.307 201.046 139.827 205.041C136.773 209.176 131.108 204.949 133.589 200.956Z" fill="#FFE7B4"/>
<path fill-rule="evenodd" clip-rule="evenodd" d="M126.251 194.666C128.412 191.725 132.464 194.731 130.705 197.582C128.544 200.522 124.491 197.517 126.251 194.666" fill="#FFE7B4"/>
<path fill-rule="evenodd" clip-rule="evenodd" d="M143.816 195.862C146.871 191.728 152.534 195.952 150.053 199.947C147.001 204.082 141.334 199.857 143.816 195.862Z" fill="#FFE7B4"/>
<path fill-rule="evenodd" clip-rule="evenodd" d="M133.589 200.956C136.642 196.821 142.307 201.046 139.827 205.041C136.773 209.176 131.108 204.949 133.589 200.956Z" fill="#FFE7B4"/>
<path fill-rule="evenodd" clip-rule="evenodd" d="M136.171 192.596C138.335 189.656 142.385 192.661 140.627 195.514C138.462 198.453 134.415 195.448 136.171 192.596Z" fill="#FFE7B4"/>
<path fill-rule="evenodd" clip-rule="evenodd" d="M117.591 123.385C124.864 126.312 132.49 131.06 140.633 136.823C146.445 140.769 152.646 144.854 157.711 149.894C167.165 158.542 171.057 173.732 162.874 184.646C161.152 188.455 159.186 191.569 155.619 193.808C149.051 197.915 141.37 197.664 133.106 197.139C115.939 195.958 104.376 185.476 94.2294 171.981C85.8817 161.214 74.9377 141.343 81.1783 128.179C88.0766 116.354 106.293 118.018 117.591 123.385" fill="#FEFEFE"/>
<path fill-rule="evenodd" clip-rule="evenodd" d="M100.352 148.977C109.93 143.602 113.794 139.611 115.776 129.367C106.215 122.631 96.8858 117.853 88.008 121.867C74.8688 127.804 77.7394 140.738 83.2609 153.27C88.8715 152.981 95.5464 151.674 100.352 148.977" fill="#E8E8E9"/>
<path fill-rule="evenodd" clip-rule="evenodd" d="M128.142 160.157C124.194 147.387 131.104 144.279 120.053 136.845C119.485 136.369 119.218 136.526 118.488 137.046C112.206 140.75 112.168 147.153 110.04 153.668C106.88 160.519 101.937 172.168 96.5977 175.127C114.064 198.534 111.003 186.564 115.159 186.052C117.426 185.612 117.88 183.186 119.579 181.64C121.287 179.738 124.087 180.441 124.745 177.398C125.815 174.673 125.416 171.982 126.199 169.205C128.119 166.289 129.051 163.552 128.142 160.157Z" fill="#E8E8E9"/>
<path fill-rule="evenodd" clip-rule="evenodd" d="M163.318 162.593C159.553 152.854 150.358 152.223 143.501 157.399C139.937 160.883 139.245 166 138.498 170.788C137.215 178.626 139.57 183.246 141.846 189.485C142.672 192.253 142.988 194.843 141.824 197.382C161.3 197.952 169.964 178.568 163.318 162.593" fill="#E8E8E9"/>
<path fill-rule="evenodd" clip-rule="evenodd" d="M123.387 173.108C124.125 171.131 123.897 169.334 124.808 166.301C125.196 164.41 126.501 167.479 127.049 163.407C125.347 150.794 127.279 146.376 125.535 139.527C123.43 133.788 116.764 132.013 113.048 136.842C106.442 145.418 108.217 156.486 103.077 165.695C98.6786 177.266 94.4515 179.929 89.7026 186.364C86.595 190.586 85.3455 193.028 89.7601 197.188C95.4199 202.983 113.276 184.038 115.58 180.738C118.865 182.902 119.154 174.351 122.361 174.236C122.768 174.056 123.008 173.819 123.387 173.108Z" fill="#433A31"/>
<path fill-rule="evenodd" clip-rule="evenodd" d="M124.466 151.316C124.134 151.186 124.167 144.601 124.995 147.604C124.807 148.717 125.581 150.881 124.466 151.316Z" fill="#FEFEFE"/>
<path fill-rule="evenodd" clip-rule="evenodd" d="M123.692 158.569C123.044 158.379 124.413 155.387 124.387 157.481C124.195 157.743 124.41 158.666 123.692 158.569Z" fill="#FEFEFE"/>
<path fill-rule="evenodd" clip-rule="evenodd" d="M124.652 164.726C124.267 164.717 125.026 160.144 125.704 161.784C125.326 162.483 125.692 164.445 124.652 164.726Z" fill="#FEFEFE"/>
<path fill-rule="evenodd" clip-rule="evenodd" d="M121.704 167.354C121.281 166.778 122.217 165.528 122.336 164.63C122.342 164.632 122.833 164.783 122.972 164.825L122.654 164.727C123.246 164.535 122.41 167.6 121.704 167.354Z" fill="#FEFEFE"/>
<path fill-rule="evenodd" clip-rule="evenodd" d="M121.431 172.205C121.149 171.408 122.137 169.933 122.521 168.699C123.595 168.047 122.269 172.427 121.431 172.205Z" fill="#FEFEFE"/>
<path fill-rule="evenodd" clip-rule="evenodd" d="M117.103 176.528C116.614 175.928 118.019 174.845 118.268 174.037C119.867 171.936 118.215 176.707 117.103 176.528Z" fill="#FEFEFE"/>
<path fill-rule="evenodd" clip-rule="evenodd" d="M115.995 179.78C115.446 179.351 116.565 178.77 116.946 178.231C118.493 176.691 117.17 179.937 115.995 179.78Z" fill="#FEFEFE"/>
<path fill-rule="evenodd" clip-rule="evenodd" d="M112.459 182.103C111.933 181.59 113.147 180.884 113.548 180.09C114.905 179.372 113.21 182.313 112.459 182.103Z" fill="#FEFEFE"/>
<path fill-rule="evenodd" clip-rule="evenodd" d="M121.649 162.499C121.229 162.143 121.754 158.063 122.356 159.978C122.09 160.989 122.528 162.646 121.649 162.499Z" fill="#FEFEFE"/>
<path fill-rule="evenodd" clip-rule="evenodd" d="M121.763 155.236C121.405 154.416 121.984 153.081 121.574 151.661C122.396 149.839 122.919 155.808 121.763 155.236Z" fill="#FEFEFE"/>
<path fill-rule="evenodd" clip-rule="evenodd" d="M121.649 147.771C121.586 147.628 120.556 143.924 121.765 145.047C121.739 145.53 122.807 147.662 121.649 147.771Z" fill="#FEFEFE"/>
<path fill-rule="evenodd" clip-rule="evenodd" d="M125.08 156.379C124.819 156.274 124.817 152.687 125.696 154.076C125.513 154.493 126.076 156.328 125.08 156.379Z" fill="#FEFEFE"/>
<path fill-rule="evenodd" clip-rule="evenodd" d="M118.588 172.391C118.152 171.759 119.318 170.48 119.53 169.542C120.769 168.441 119.435 172.586 118.588 172.391Z" fill="#FEFEFE"/>
<path fill-rule="evenodd" clip-rule="evenodd" d="M39.4616 92.7225C33.4602 95.5399 32.9148 100.003 32.4869 104.823C31.8128 104.692 31.0882 105.102 31.3925 106.015C31.9614 108.222 35.6291 108.991 33.0402 110.439C33.7321 112.102 36.0191 111.886 37.4723 112.414C36.1277 115.112 39.0206 114.805 40.5808 114.746C40.1309 115.925 41.2467 116.492 42.2258 116.061C43.6826 115.667 44.209 114.397 45.6845 114.366C62.8844 110.636 54.964 86.7376 39.4616 92.7225" fill="#433A31"/>
<path fill-rule="evenodd" clip-rule="evenodd" d="M45.085 109.793C46.3813 106.186 48.1917 102.329 50.1936 98.9203C39.8507 88.3247 30.9465 109.137 45.085 109.793Z" fill="#E6B6B7"/>
<path fill-rule="evenodd" clip-rule="evenodd" d="M40.2381 102.616C39.5756 100.217 40.2766 98.1959 41.7387 96.6534C37.5694 98.4718 36.2713 104.267 39.6233 107.702C40.2968 109.057 46.3386 111.023 45.0069 108.974C42.8138 107.352 40.9866 105.232 40.2381 102.616Z" fill="#E5AAB0"/>
<path fill-rule="evenodd" clip-rule="evenodd" d="M50.8857 100.071C47.9534 97.3354 49.156 100.87 48.1901 102.08C44.7044 102.758 46.6559 104.022 46.2096 106.139C41.5381 106.39 43.4972 109.629 45.637 111.794" fill="#433A31"/>
<path fill-rule="evenodd" clip-rule="evenodd" d="M94.8168 69.013C100.608 66.5905 104.738 69.0001 108.4 72.1411C108.748 71.596 109.443 71.2317 109.964 71.9566C111.373 73.8188 109.312 77.2671 112.19 76.3138C112.944 77.9349 111.234 79.4917 110.635 80.9094C113.608 81.8331 111.269 83.6668 110.24 84.7765C111.527 85.3038 110.966 86.5793 109.909 86.9668C108.679 87.6713 107.504 87.244 106.563 88.2139C92.1912 98.4378 79.8445 76.3973 94.8168 69.013" fill="#433A31"/>
<path fill-rule="evenodd" clip-rule="evenodd" d="M103.545 84.726C100.014 83.2303 95.9518 81.9447 92.0902 81.1033C91.328 66.3112 112.649 73.8995 103.545 84.726Z" fill="#E6B6B7"/>
<path fill-rule="evenodd" clip-rule="evenodd" d="M93.7116 81.4756C94.9017 77.002 99.3836 74.6101 103.812 74.9352C98.6728 69.8508 90.7802 74.6196 92.0902 81.1031C92.5181 81.1009 93.0216 81.3242 93.7116 81.4756" fill="#E5AAB0"/>
<path fill-rule="evenodd" clip-rule="evenodd" d="M91.9474 81.4073C91.9049 77.6564 93.6052 80.6628 95.0489 80.8264C97.8198 78.8569 97.3622 80.9671 99.1644 82.0499C102.376 78.9536 103.327 82.4417 103.462 85.2805" fill="#433A31"/>
<path fill-rule="evenodd" clip-rule="evenodd" d="M116.952 101.34C123.728 116.914 121.267 135.316 94.1094 146.508C74.3179 154.654 62.5196 150.552 54.8399 141.882C52.8719 139.63 51.2141 137.07 49.7894 134.319C48.9837 133.252 48.6763 130.391 46.8821 130.373C46.1131 130.179 46.1116 128.944 45.9214 128.228C39.4611 86.6174 100.299 65.266 116.952 101.34" fill="#FEFEFE"/>
<path fill-rule="evenodd" clip-rule="evenodd" d="M113.775 96.3199C115.936 98.0998 122.886 102.168 121.175 104.596C119.848 104.927 117.508 103.661 119.628 105.764C126.743 112.899 118.561 109.168 120.208 111.048C121.018 112.729 122.604 114.552 121.346 116.41C120.643 116.836 119.481 114.627 118.247 115.274" fill="#FEFEFE"/>
<path fill-rule="evenodd" clip-rule="evenodd" d="M47.2161 124.887C46.9845 127.994 44.7346 136.309 48.0009 137.22C49.37 136.4 50.0264 133.519 50.0863 137.078C50.6146 147.349 53.5053 138.625 53.7668 140.993C54.4789 142.84 55.0035 145.891 57.2883 145.799C57.9221 145.352 57.2018 143.081 58.5231 142.615" fill="#FEFEFE"/>
<path fill-rule="evenodd" clip-rule="evenodd" d="M73.9857 107.291C78.8627 120.406 58.056 128.859 52.2583 116.803C47.3809 103.688 68.1876 95.2371 73.9857 107.291Z" fill="#433A31"/>
<path fill-rule="evenodd" clip-rule="evenodd" d="M59.374 95.9055C59.4581 93.0092 62.6921 82.4182 65.6667 84.7872C66.1432 85.3188 65.2241 86.8567 66.1585 86.8163C68.6804 85.9959 69.0707 83.1657 72.1474 81.6973C74.535 80.7408 71.1634 87.2387 76.1567 82.9599C76.6421 82.6809 76.7776 82.5323 77.5934 82.6338C79.4127 83.7035 76.2057 87.1179 81.2103 85.8182" fill="#FEFEFE"/>
<path fill-rule="evenodd" clip-rule="evenodd" d="M63.1919 91.7716C62.2382 91.9316 63.004 90.0438 63.1955 89.2534C63.3745 88.5756 63.8528 86.9842 64.3113 88.2633C63.9412 88.7839 63.7647 90.6852 63.1919 91.7716" fill="#E6DBE1"/>
<path fill-rule="evenodd" clip-rule="evenodd" d="M69.5857 89.5005C68.1047 89.4075 70.4844 84.5332 71.4937 84.205C72.4884 84.3539 71.1919 85.4079 70.8383 86.0818C69.991 87.1697 70.1715 88.3706 69.5857 89.5005" fill="#E6DBE1"/>
<path fill-rule="evenodd" clip-rule="evenodd" d="M74.5959 88.8912C73.2635 88.9101 75.5034 85.8273 75.7603 85.1614C77.3744 84.2557 74.9378 88.3222 74.5959 88.8912Z" fill="#E6DBE1"/>
<path fill-rule="evenodd" clip-rule="evenodd" d="M73.7398 97.1811C72.2083 97.5879 72.0826 89.8066 73.118 93.0345C72.7286 94.6785 74.0983 95.8717 73.7398 97.1811Z" fill="#E6DBE1"/>
<path fill-rule="evenodd" clip-rule="evenodd" d="M68.1133 96.0814C67.2181 96.086 67.2077 94.0795 66.9963 93.2784C66.6592 92.8514 67.3432 91.4912 67.6671 92.8646C67.5579 93.8736 68.5734 95.1381 68.1133 96.0814Z" fill="#E6DBE1"/>
<path fill-rule="evenodd" clip-rule="evenodd" d="M71.7398 101.354C71.4502 101.613 68.9589 98.3306 70.2857 98.3798C70.7687 98.99 72.2999 100.702 71.7398 101.354Z" fill="#E6DBE1"/>
<path fill-rule="evenodd" clip-rule="evenodd" d="M76.6621 105.663C76.4707 106.091 74.2137 102.701 75.5683 102.828C75.9265 103.469 77.1194 104.718 76.6621 105.663Z" fill="#E6DBE1"/>
<path fill-rule="evenodd" clip-rule="evenodd" d="M79.4368 107.483C78.9832 107.644 78.0136 105.889 78.76 105.416C79.1411 105.475 79.8956 106.914 79.4368 107.483Z" fill="#E6DBE1"/>
<path fill-rule="evenodd" clip-rule="evenodd" d="M77.9227 112.763C77.4392 112.951 76.2151 110.46 76.9268 110.039C77.404 110.164 78.3387 112.053 77.9227 112.763Z" fill="#E6DBE1"/>
<path fill-rule="evenodd" clip-rule="evenodd" d="M65.8802 100.622C65.1296 100.566 64.6414 98.3636 64.4735 97.3637C64.9094 96.2868 66.4601 100.147 65.8802 100.622Z" fill="#E6DBE1"/>
<path fill-rule="evenodd" clip-rule="evenodd" d="M77.0538 96.9175C76.2928 97.0126 76.3512 95.4261 75.9374 94.6896C75.2743 92.0628 77.9659 96.0966 77.0538 96.9175Z" fill="#E6DBE1"/>
<path fill-rule="evenodd" clip-rule="evenodd" d="M78.4608 102.237C77.9696 102.702 76.8122 99.4556 78.176 100.384C78.1745 100.778 78.9756 101.637 78.4608 102.237Z" fill="#E6DBE1"/>
<path fill-rule="evenodd" clip-rule="evenodd" d="M81.7221 111.496C80.9011 111.572 81.0703 109.968 80.9434 109.051C81.5095 107.62 82.2378 111.028 81.7221 111.496Z" fill="#E6DBE1"/>
<path fill-rule="evenodd" clip-rule="evenodd" d="M77.3641 91.8997C76.7196 92.0814 76.5664 90.1716 76.7325 89.3063C77.3332 88.5315 77.892 91.3287 77.3641 91.8997Z" fill="#E6DBE1"/>
<path fill-rule="evenodd" clip-rule="evenodd" d="M80.7513 100.84C79.9787 100.882 79.8202 98.7928 79.6664 97.7009C80.1925 96.6328 81.2621 100.16 80.7513 100.84Z" fill="#E6DBE1"/>
<path fill-rule="evenodd" clip-rule="evenodd" d="M82.2951 107.683C81.5081 107.785 81.6194 106.184 81.4359 105.414C81.3601 102.836 83.0029 106.816 82.2951 107.683Z" fill="#E6DBE1"/>
<path fill-rule="evenodd" clip-rule="evenodd" d="M62.0528 98.2081C61.1526 98.1542 60.9694 95.9936 60.5669 95.1503C60.2952 94.5254 61.2171 94.0782 61.423 95.4635C61.4698 96.3884 62.5651 97.3048 62.0528 98.2081Z" fill="#E6DBE1"/>
<path fill-rule="evenodd" clip-rule="evenodd" d="M48.7337 134.38C47.6959 134.353 48.262 131.889 48.2859 130.99C48.522 130.429 48.1275 129.702 48.9273 129.486C49.12 129.654 49.3011 129.581 49.139 130.288C48.6765 131.52 49.1983 133.123 48.7337 134.38" fill="#E6DBE1"/>
<path fill-rule="evenodd" clip-rule="evenodd" d="M52.7484 140.538C51.6647 140.356 51.759 137.522 51.5228 136.54C51.1487 135.776 51.9688 134.482 52.2046 136.044C52.0706 137.594 53.128 139.168 52.7484 140.538" fill="#E6DBE1"/>
<path fill-rule="evenodd" clip-rule="evenodd" d="M56.8667 143.616C55.9696 143.56 55.98 141.522 55.4891 140.579C54.996 137.58 57.7103 143.096 56.8667 143.616Z" fill="#E6DBE1"/>
<path fill-rule="evenodd" clip-rule="evenodd" d="M54.0897 135.465C53.3027 135.59 53.5354 133.939 53.1837 133.194C53.0989 131.003 54.9127 134.674 54.0897 135.465Z" fill="#E6DBE1"/>
<path fill-rule="evenodd" clip-rule="evenodd" d="M51.1345 130.823C50.6234 131.099 50.0107 128.867 50.6784 128.659C51.1333 128.57 51.6147 130.527 51.1345 130.823Z" fill="#E6DBE1"/>
<path fill-rule="evenodd" clip-rule="evenodd" d="M48.2122 126.561C47.3135 126.589 47.5891 124.625 47.3628 123.74C47.1838 123.19 47.3074 121.934 48.0054 122.819C47.8873 123.863 48.7104 125.555 48.2122 126.561Z" fill="#E6DBE1"/>
<path fill-rule="evenodd" clip-rule="evenodd" d="M60.6168 144.35C59.8631 144.502 57.3886 139.033 58.8381 139.595C59.2612 140.824 60.8581 143.22 60.6168 144.35Z" fill="#E6DBE1"/>
<path fill-rule="evenodd" clip-rule="evenodd" d="M65.2678 148.645C65.0283 148.769 62.3611 147.219 63.9936 147.119C64.2389 147.402 65.9566 147.882 65.2678 148.645Z" fill="#E6DBE1"/>
<path fill-rule="evenodd" clip-rule="evenodd" d="M118.719 102.291C117.636 101.843 116.35 100.1 115.112 99.6121C114.024 97.6304 119.918 101.542 118.719 102.291Z" fill="#E6DBE1"/>
<path fill-rule="evenodd" clip-rule="evenodd" d="M120.52 109.417C119.778 109.41 119.376 107.824 118.66 107.208C118.252 106.384 117.102 106.12 117.342 105.157C118.008 104.821 121.37 108.988 120.52 109.417" fill="#E6DBE1"/>
<path fill-rule="evenodd" clip-rule="evenodd" d="M119.989 114.532C119.652 114.793 116.882 110.723 118.252 110.896C118.823 111.69 120.522 113.83 119.989 114.532Z" fill="#E6DBE1"/>
<path fill-rule="evenodd" clip-rule="evenodd" d="M115.883 106.962C115.438 107.27 112.918 103.822 114.677 104.522C114.795 105.196 116.466 106.139 115.883 106.962Z" fill="#E6DBE1"/>
<path fill-rule="evenodd" clip-rule="evenodd" d="M114.477 101.641C114.165 101.788 112.278 99.9112 113.465 99.7671C113.807 100.01 115.131 101.184 114.477 101.641Z" fill="#E6DBE1"/>
<path fill-rule="evenodd" clip-rule="evenodd" d="M113.328 96.6044C113.004 96.7696 109.294 92.7927 111.257 93.4276C111.698 94.2697 113.93 95.6131 113.328 96.6044Z" fill="#E6DBE1"/>
<path fill-rule="evenodd" clip-rule="evenodd" d="M117.984 117.783C117.114 117.705 116.95 115.315 116.258 114.53C115.939 114.019 115.174 112.665 116.363 113.183C116.769 114.309 118.539 116.468 117.984 117.783Z" fill="#E6DBE1"/>
<path fill-rule="evenodd" clip-rule="evenodd" d="M117.984 124.115C117.199 124.254 117.466 122.594 117.89 121.919C118.679 121.427 118.416 123.613 117.984 124.115Z" fill="#E6DBE1"/>
<path fill-rule="evenodd" clip-rule="evenodd" d="M103.532 94.5897C108.408 107.704 87.6031 116.156 81.8041 104.102C76.9271 90.9872 97.7329 82.5357 103.532 94.5897Z" fill="#433A31"/>
<path fill-rule="evenodd" clip-rule="evenodd" d="M78.3773 104.443C66.5041 107.482 67.3122 123.303 72.9897 133.363C80.5713 149.076 98.7561 137.319 100.312 131.176C101.809 125.632 99.0246 120.199 96.0672 114.976C91.4492 107.107 85.7389 103.086 78.3773 104.443" fill="#EAE0D9"/>
<path fill-rule="evenodd" clip-rule="evenodd" d="M79.802 121.332C82.093 129.547 91.766 122.847 86.1341 118.192C84.3704 118.583 87.1025 120.384 86.5785 121.555C86.5773 123.72 83.4134 124.881 82.0388 123.161C81.2729 122.504 80.582 119.243 79.802 121.332" fill="#433A31"/>
<path fill-rule="evenodd" clip-rule="evenodd" d="M59.0701 112.739C61.3598 120.954 71.035 114.25 65.4019 109.598C63.6373 109.989 66.3705 111.79 65.8466 112.962C65.8463 115.125 62.6812 116.287 61.3069 114.568C60.5413 113.911 59.8479 110.649 59.0701 112.739" fill="#FEFEFE"/>
<path fill-rule="evenodd" clip-rule="evenodd" d="M94.5275 97.3912C99.1373 105.11 86.8863 106.825 88.0443 99.814C89.3865 99.1316 89.0968 102.819 90.7121 102.888C92.8159 103.82 94.9276 101.673 94.2614 99.6714C93.9338 98.7844 92.789 96.5782 94.5275 97.3912" fill="#FEFEFE"/>
<path fill-rule="evenodd" clip-rule="evenodd" d="M84.5453 108.146C85.9211 112.94 81.3303 118.47 76.0498 115.559C71.8294 113.727 71.5043 108.209 77.9486 108.36C78.5625 108.076 79.0384 106.635 81.2043 106.094C82.7804 105.707 84.0663 106.771 84.5453 108.146" fill="#433A31"/>
<path fill-rule="evenodd" clip-rule="evenodd" d="M103.161 105.868C104.343 109.33 93.6116 113.785 91.855 111.039C89.9718 107.595 101.782 102.672 103.161 105.868Z" fill="#E6B6B7"/>
<path fill-rule="evenodd" clip-rule="evenodd" d="M69.5894 120.564C70.7731 124.027 60.0402 128.481 58.2842 125.735C56.3997 122.293 68.2112 117.368 69.5894 120.564Z" fill="#E6B6B7"/>
<path fill-rule="evenodd" clip-rule="evenodd" d="M83.5232 107.277C83.6844 108.39 80.6615 108.882 80.422 107.653C80.2593 106.54 83.2849 106.048 83.5232 107.277Z" fill="#E6EBE5"/>
<path fill-rule="evenodd" clip-rule="evenodd" d="M155.872 146.602C143.367 154.111 139.86 170.542 142.499 184.44C143.146 187.212 145.12 197.987 146.941 196.892C154.845 195.95 160.106 191.373 162.874 184.645C171.349 172.604 167.544 155.312 155.872 146.602Z" fill="#433A31"/>
<path fill-rule="evenodd" clip-rule="evenodd" d="M144.467 161.243C140.372 172.912 140.098 188.561 147.242 197.652C138.737 198.339 136.138 206.89 141.712 209.955C146.231 212.094 155.093 209.836 159.906 205.894C161.863 204.289 163.125 202.409 163.171 200.422C163.47 183.118 167.479 175.653 166.297 169.927C163.531 157.672 151.256 142.615 144.467 161.243" fill="#433A31"/>
<path fill-rule="evenodd" clip-rule="evenodd" d="M161.433 165.553C160.76 165.599 161.017 162.316 161.713 164.294C161.624 164.604 162.14 165.403 161.433 165.553Z" fill="#FEFEFE"/>
<path fill-rule="evenodd" clip-rule="evenodd" d="M164.448 171.007C164.121 171.237 163.204 166.563 164.426 167.883C164.302 168.586 165.326 170.402 164.448 171.007Z" fill="#FEFEFE"/>
<path fill-rule="evenodd" clip-rule="evenodd" d="M162.582 174.488C161.984 174.094 162.437 172.597 162.24 171.712C162.246 171.711 162.759 171.685 162.904 171.677L162.572 171.694C163.062 171.312 163.328 174.47 162.582 174.488Z" fill="#FEFEFE"/>
<path fill-rule="evenodd" clip-rule="evenodd" d="M163.989 179.138C163.451 178.485 163.872 176.761 163.811 175.47C164.595 174.488 164.853 179.056 163.989 179.138Z" fill="#FEFEFE"/>
<path fill-rule="evenodd" clip-rule="evenodd" d="M161.409 184.684C160.741 184.288 161.691 182.789 161.647 181.944C162.429 179.422 162.513 184.469 161.409 184.684Z" fill="#FEFEFE"/>
<path fill-rule="evenodd" clip-rule="evenodd" d="M161.484 188.117C160.773 187.823 161.836 186.776 161.945 186.015C163.009 184.934 162.349 187.969 161.484 188.117Z" fill="#FEFEFE"/>
<path fill-rule="evenodd" clip-rule="evenodd" d="M158.96 191.512C158.288 191.214 159.189 190.132 159.292 189.249C160.317 188.107 159.738 191.453 158.96 191.512Z" fill="#FEFEFE"/>
<path fill-rule="evenodd" clip-rule="evenodd" d="M160.863 169.946C160.346 169.759 159.44 165.743 160.663 167.335C160.758 168.375 161.739 169.784 160.863 169.946Z" fill="#FEFEFE"/>
<path fill-rule="evenodd" clip-rule="evenodd" d="M158.477 163.085C157.86 162.438 157.946 160.985 157.073 159.791C157.222 157.801 159.757 163.227 158.477 163.085Z" fill="#FEFEFE"/>
<path fill-rule="evenodd" clip-rule="evenodd" d="M155.809 156.114C155.692 155.81 153.724 153.546 154.771 153.374C155.084 153.531 156.895 155.899 155.809 156.114Z" fill="#FEFEFE"/>
<path fill-rule="evenodd" clip-rule="evenodd" d="M161.986 163.019C161.704 163.012 160.471 159.645 161.773 160.645C161.745 161.101 162.906 162.64 161.986 163.019Z" fill="#FEFEFE"/>
<path fill-rule="evenodd" clip-rule="evenodd" d="M161.383 180.288C160.758 179.842 161.413 178.242 161.288 177.288C162.078 175.828 162.245 180.183 161.383 180.288Z" fill="#FEFEFE"/>
</svg>
