<svg width="164" height="130" viewBox="0 0 164 130" fill="none" xmlns="http://www.w3.org/2000/svg">
<path fill-rule="evenodd" clip-rule="evenodd" d="M127.108 102.228C125.725 95.5116 136.459 88.9004 137.611 98.5318C138.229 103.58 128.679 109.19 127.108 102.228ZM91.5764 122.608C90.4468 126.706 86.7714 126.693 87.397 121.84C88.3898 116.908 91.0617 114.63 92.4426 111.527C92.4653 114.709 92.6644 119.115 91.5764 122.608V122.608ZM83.9326 102.864C79.6763 99.2973 83.0556 89.0094 89.3651 93.6412C94.0416 98.288 88.9884 105.442 83.9326 102.864ZM60.4821 104.221C51.114 113.378 47.8683 98.9754 55.3319 93.381C63.7209 87.5169 65.7962 99.7175 60.4821 104.221ZM31.6313 99.1184C31.3868 110.526 24.6723 104.593 30.6302 94.3726C31.3938 95.7094 31.6035 96.793 31.6313 99.1184ZM19.1837 98.9647C19.0029 114.937 13.8879 105.344 18.6741 95.4511C18.8738 96.33 19.0999 97.304 19.1837 98.9647ZM152.974 91.6384C153.077 89.5102 157.243 76.8346 158.007 83.4307C156.395 87.5843 154.458 89.9342 152.445 94.113C152.599 93.2751 152.782 92.4568 152.974 91.6384V91.6384ZM163.814 100.688C164.367 98.3586 161.535 95.5425 160.8 99.1959C162.035 103.382 158.465 106.837 154.845 105.931C144.273 102.717 170.14 80.3557 158.389 77.3223C150.542 77.5415 149.868 95.785 148.391 100.571C146.713 103.155 143.04 104.973 142.375 101.288C141.351 98.1217 142.531 93.7911 142.458 90.5768C140.575 88.1954 139.558 90.6493 139.237 93.1598C135.616 87.5547 127.688 90.7961 125.952 96.2216C124.97 100.669 121.651 106.04 115.978 105.031C104.937 101.925 118.983 86.1045 118.434 97.8483C118.067 95.9961 114.201 96.9783 116.085 99.9758C118.219 103.759 123.326 100.293 123.671 96.4717C124.199 90.0464 116.204 88.8078 112.109 92.361C109.899 94.1458 109.778 98.1608 107.803 100.426C106.16 101.662 103.64 101.172 101.729 99.9241C97.3333 97.8048 102.603 89.5317 99.7065 88.4115C96.5112 88.3536 96.7348 97.108 94.5506 100.225C94.7604 80.6619 75.3394 90.0224 80.1293 101.16C80.1047 101.848 79.5806 103.413 78.3917 104.227C66.5276 110.879 69.0262 95.3579 70.0014 88.2723C66.7002 84.5591 66.5818 92.4864 66.1521 95.1431C64.3239 86.2437 54.6181 87.0312 50.7033 93.6267C48.1959 95.9841 48.354 110.101 43.2655 105.532C42.1875 102.049 43.8816 99.2708 42.6802 94.9509C41.7113 89.1385 34.5778 86.4503 30.4758 90.0029C28.6085 88.7542 25.5228 88.1047 23.0847 88.5508C21.6483 88.7845 20.5609 89.3307 19.2996 90.1566C18.068 88.6068 15.7005 86.9732 13.2372 87.1055C6.808 86.7868 1.31188 96.0843 8.50459 98.9206C15.9871 99.8416 10.7235 89.09 9.4225 95.4026C7.20301 90.3022 14.3296 88.5772 17.2685 92.3226C8.31937 108.733 16.1585 117.036 21.1147 106.461C22.5618 102.38 22.4641 97.2882 20.782 92.6596C22.8755 91.1753 26.2517 91.0134 28.4454 92.2841C17.237 116.45 41.3994 113.917 32.815 92.2066C41.298 88.9836 40.2333 99.875 40.0581 105.946C40.5225 111.761 46.0098 111.159 48.6513 107.215C54.7378 114.371 64.4536 107.204 66.142 99.6577C66.4218 110.26 76.3209 113.421 82.1711 105.087C85.0149 107.233 89.7412 107.686 92.115 104.231C91.8252 109.368 86.9415 114.003 84.9816 119.008C80.3542 128.217 90.8235 132.685 93.1199 126.327C96.6069 118.66 93.1816 106.913 97.7951 99.8019C98.9959 104.47 106.35 106.807 109.366 102.266C111.692 109.51 120.716 110.389 124.836 104.962C127.805 109.186 135.899 109.145 138.775 104.327C140.613 109.823 146.87 106.864 149.509 103.691C152.178 112.278 165.167 109.44 163.814 100.688" fill="#F5F5F7"/>
<path fill-rule="evenodd" clip-rule="evenodd" d="M106.055 82.8667C106.145 78.7969 100.882 79.047 100.902 82.9492C100.575 86.5509 106.704 87.1582 106.055 82.8667Z" fill="#F5F5F7"/>
<path fill-rule="evenodd" clip-rule="evenodd" d="M42.625 64.3185C38.0399 76.7623 33.0175 62.3574 36.1877 56.0296C40.0099 46.647 44.3058 59.2722 42.625 64.3185ZM43.982 49.5028C23.5807 46.3283 26.9405 66.9765 32.6162 71.1093C52.4486 79.1853 55.9715 52.2364 43.982 49.5028Z" fill="#F5F5F7"/>
<path fill-rule="evenodd" clip-rule="evenodd" d="M126.261 57.089C126.141 52.8976 126.013 48.5197 125.876 43.7179C133.34 42.3545 133.885 58.24 126.327 59.3034C126.318 58.8183 126.288 58.1512 126.261 57.089V57.089ZM139.449 67.6207C138.867 64.6389 136.13 61.4952 132.537 60.4966C141.008 57.5419 142.722 46.0589 133.449 41.8423C130.098 40.2106 116.428 39.769 118.205 44.552C118.606 53.7575 118.459 62.1882 119.135 71.6968C129.13 75.7842 126.298 67.5961 126.424 62.4604C130.979 62.6922 131.97 68.6425 132.308 72.0168C136.307 73.6844 141.234 72.8969 139.449 67.6207Z" fill="#4395A1"/>
<path fill-rule="evenodd" clip-rule="evenodd" d="M101.53 67.7362C100.055 62.9482 106.597 60.7603 109.144 64.4634C110.584 71.5767 103.487 72.443 101.53 67.7362ZM113.226 69.8732C112.054 69.5097 111.703 66.3591 111.709 64.9346C113.155 56.6766 108.182 46.7698 99.7749 53.4258C96.3729 56.4303 99.1499 61.9856 102.706 59.6206C105.494 57.6436 103.114 53.783 101.578 56.887C100.498 56.3515 100.657 54.8905 101.944 54.0098C106.862 51.3821 109.866 57.2449 109.309 61.1515C100.645 56.7031 94.8533 67.9567 102.255 72.3938C105.061 74.137 108.361 71.7292 110.633 71.772C111.623 72.7038 112.952 73.1309 114.167 72.6899C116.89 71.687 114.884 67.1296 113.226 69.8732" fill="#F5F5F7"/>
<path fill-rule="evenodd" clip-rule="evenodd" d="M155.285 52.5067C158.975 62.5653 154.695 58.0142 147.275 58.9856C147.065 55.5723 151.406 47.5763 155.285 52.5067ZM156.873 69.0744C157.412 70.8183 155.429 71.0791 153.389 70.5978C148.481 69.9993 147.225 65.3757 147.198 60.7862C147.379 60.7981 147.245 60.8 148.007 60.824C152.195 60.2834 157.116 62.0588 161.231 60.136C165.508 47.2935 145.432 43.2054 142.56 56.3623C139.606 69.116 147.663 76.0152 159.662 72.2654C165.832 68.3663 158.752 67.0553 156.873 69.0744" fill="#F5F5F7"/>
<path fill-rule="evenodd" clip-rule="evenodd" d="M151.559 72.7897C151.54 72.7897 151.53 72.7803 151.511 72.7803V72.7607L151.559 72.7897Z" fill="#4395A1"/>
<path fill-rule="evenodd" clip-rule="evenodd" d="M152.791 70.5275C152.703 70.9345 152.202 71.6224 151.877 72.4912H151.492L151.559 72.4628C151.48 72.5296 151.151 72.575 151.511 72.7804C150.275 74.0234 148.956 68.3074 152.81 70.4607C152.802 70.4796 152.802 70.5086 152.791 70.5275Z" fill="#4395A1"/>
<path fill-rule="evenodd" clip-rule="evenodd" d="M143.569 54.6533C143.405 54.7207 143.241 54.7692 143.069 54.7976C143.386 53.9798 143.771 53.2194 144.224 52.5264C144.396 52.7646 144.835 54.4618 143.569 54.6533" fill="#4395A1"/>
<path fill-rule="evenodd" clip-rule="evenodd" d="M148.874 67.89C148.474 68.1049 147.706 69.7687 147.122 69.7006C146.772 69.688 145.32 69.036 146.158 68.1017C146.904 67.2254 147.762 64.8547 148.874 67.89" fill="#4395A1"/>
<path fill-rule="evenodd" clip-rule="evenodd" d="M146.055 64.2177C146.668 66.2224 142.308 67.2096 143.383 64.3078C143.69 63.4126 145.9 61.9503 146.055 64.2177Z" fill="#4395A1"/>
<path fill-rule="evenodd" clip-rule="evenodd" d="M143.281 61.8158C143.176 62.1239 143.139 62.7488 142.106 62.9227C142.262 62.3796 141.39 60.1431 142.417 59.6221C143.351 60.0083 144.222 60.6219 143.281 61.8158Z" fill="#4395A1"/>
<path fill-rule="evenodd" clip-rule="evenodd" d="M155.988 72.3474L155.998 72.2699L156.064 72.3184L155.988 72.3474ZM156.315 71.7306C155.651 71.6172 154.866 72.2359 154.341 73.2137C154.934 73.2685 157.597 73.385 156.315 71.7306Z" fill="#4395A1"/>
<path fill-rule="evenodd" clip-rule="evenodd" d="M145.928 56.136C145.965 56.1599 145.99 56.0251 146.129 56.165L145.928 56.136ZM147.718 55.6452C145.973 53.318 141.48 59.584 147.217 56.9833C147.546 56.594 147.897 56.7792 147.718 55.6452Z" fill="#4395A1"/>
<path fill-rule="evenodd" clip-rule="evenodd" d="M148.354 59.7843C148.37 59.7346 148.405 59.8089 148.459 59.6401C148.471 59.6924 148.446 59.6924 148.392 59.8133C148.383 59.8039 148.363 59.7944 148.354 59.7843C148.354 59.9576 148.354 59.7843 148.093 59.9771C148.063 59.8398 147.99 59.8026 148.354 59.7843V59.7843ZM150.259 58.966C149.387 58.7285 145.366 58.9893 148.007 60.8238C148.856 60.9549 149.997 60.3929 150.259 58.966Z" fill="#4395A1"/>
<path fill-rule="evenodd" clip-rule="evenodd" d="M157.788 58.1964C157.889 59.1244 155.69 61.0434 155.15 59.0431C156.381 59.1723 156.98 59.195 156.468 57.0889C157.005 57.0107 158.094 57.2262 157.788 58.1964Z" fill="#4395A1"/>
<path fill-rule="evenodd" clip-rule="evenodd" d="M150.202 49.8587C153.767 50.3255 151.224 51.9913 148.705 52.0001C147.956 51.2995 149 50.0773 150.202 49.8587Z" fill="#4395A1"/>
<path fill-rule="evenodd" clip-rule="evenodd" d="M161.59 58.5237C161.606 59.2053 159.963 62.2192 159.087 60.2373C159.057 59.434 160.623 56.7313 161.59 58.5237Z" fill="#4395A1"/>
<path fill-rule="evenodd" clip-rule="evenodd" d="M161.253 54.644C160.345 54.2843 159.908 54.0713 160.637 52.9978C160.787 53.3651 160.848 53.5484 161.253 54.644Z" fill="#4395A1"/>
<path fill-rule="evenodd" clip-rule="evenodd" d="M158.722 50.2925C157.939 50.7518 155.928 51.945 155.208 50.0329C156.353 49.7942 157.124 48.691 158.722 50.2925Z" fill="#4395A1"/>
<path fill-rule="evenodd" clip-rule="evenodd" d="M159.699 51.8373C160.775 52.3186 158.333 54.4322 157.38 53.445C157.312 52.5504 157.977 51.9715 159.699 51.8373Z" fill="#4395A1"/>
<path fill-rule="evenodd" clip-rule="evenodd" d="M151.845 72.4434C151.733 72.5498 151.622 72.6563 151.51 72.7634L151.556 72.7943C151.557 72.6828 151.557 72.5712 151.557 72.4597L151.496 72.4875L151.872 72.4893L151.845 72.4434Z" fill="#4395A1"/>
<path fill-rule="evenodd" clip-rule="evenodd" d="M98.5998 27.5592C98.7554 26.7944 100.29 18.651 101.202 23.1076C100.437 29.4561 102.237 26.6085 104.619 23.3237C109.574 22.9583 103.473 27.2675 102.67 29.3314C112.159 28.9414 111.309 30.7791 102.617 31.1937C102.439 32.1759 107.163 34.0929 105.332 35.4449C104.211 35.6698 101.81 32.2956 101.085 34.8426C101.107 39.1487 98.4763 38.8438 99.0351 33.4264C98.8984 31.2183 92.7074 39.1752 91.9747 37.8358C92.25 35.9811 93.6385 34.2202 94.4336 32.6301C93.8439 32.271 89.5183 32.1935 91.0265 30.3942C99.2247 29.465 91.4411 26.6457 88.9885 23.2254C88.8751 19.7812 96.9693 26.8353 98.5998 27.5592" fill="#FFDA76"/>
<path fill-rule="evenodd" clip-rule="evenodd" d="M81.3774 31.0141C82.5461 31.2346 85.6709 28.5968 86.3557 30.9769C85.9304 31.6327 86.2517 31.3297 84.6629 31.8602C77.4872 34.2857 70.7972 35.6232 62.8598 35.4606C51.1865 34.9566 51.5727 24.2069 61.0019 27.5069C62.1057 27.5812 62.713 29.4794 60.7222 28.7971C52.7597 26.4144 55.7969 33.1643 61.5847 34.079C68.3446 34.6378 74.6496 32.6603 81.3774 31.0141" fill="#FFDA76"/>
<path fill-rule="evenodd" clip-rule="evenodd" d="M79.2696 41.3414C69.3301 44.722 68.1155 34.8814 75.1078 36.9491C76.0037 38.3609 73.2178 37.4978 72.4328 38.8328C72.1733 39.9668 73.6469 39.9554 74.8848 40.026C81.6983 40.0688 83.5656 35.8523 88.4216 33.7751C90.1862 36.4174 81.2138 40.6787 79.2696 41.3414" fill="#FFDA76"/>
<path fill-rule="evenodd" clip-rule="evenodd" d="M76.0711 0.783051C83.3464 -1.61599 86.1587 9.02408 78.7083 5.87723C77.8181 4.61849 78.7297 3.24824 80.4099 5.16344C81.2598 5.14958 82.0712 4.00802 80.667 2.9471C76.0988 -0.127929 74.6807 3.93872 72.4719 6.51227C70.3892 4.84088 74.1818 1.45148 76.0711 0.783051" fill="#FFDA76"/>
<path fill-rule="evenodd" clip-rule="evenodd" d="M87.117 26.7049C83.5739 27.3022 69.506 26.2658 71.2624 23.662C77.9013 26.6772 91.4318 24.5403 87.117 26.7049Z" fill="#FFDA76"/>
<path fill-rule="evenodd" clip-rule="evenodd" d="M76.0687 14.5206C73.5154 18.2955 70.7698 5.98534 74.8132 10.4394C75.491 11.7083 76.4102 13.6178 76.0687 14.5206Z" fill="#FFDA76"/>
<path fill-rule="evenodd" clip-rule="evenodd" d="M85.7874 22.4814C81.8581 24.0904 72.4163 13.313 79.9063 18.8803C81.5097 21.0418 85.6299 20.3791 85.7874 22.4814Z" fill="#FFDA76"/>
<path fill-rule="evenodd" clip-rule="evenodd" d="M61.7761 19.8925C61.7288 18.2174 65.5976 21.7139 66.9843 21.9804C67.2287 24.4682 62.2221 21.2061 61.7761 19.8925Z" fill="#FFDA76"/>
<path fill-rule="evenodd" clip-rule="evenodd" d="M65.1642 11.3208C64.8561 9.01684 68.9801 11.2256 67.6338 13.1238C66.7757 13.7047 65.5157 12.6601 65.1642 11.3208Z" fill="#FFDA76"/>
<path fill-rule="evenodd" clip-rule="evenodd" d="M67.5789 16.8566C67.0869 15.1663 71.277 14.319 70.4643 16.987C69.8973 18.0353 68.384 18.2332 67.5789 16.8566Z" fill="#FFDA76"/>
<path fill-rule="evenodd" clip-rule="evenodd" d="M66.8117 5.49016C65.468 5.88895 64.6036 2.88511 66.825 2.78809C68.2444 3.04513 68.7969 4.67935 66.8117 5.49016Z" fill="#FFDA76"/>
<path fill-rule="evenodd" clip-rule="evenodd" d="M59.4789 18.1302C58.7928 18.3608 55.0059 15.9617 57.7835 15.4199C58.2875 15.4728 60.4459 17.0346 59.4789 18.1302Z" fill="#FFDA76"/>
<path fill-rule="evenodd" clip-rule="evenodd" d="M29.3692 33.3209C29.3018 55.6651 17.4049 55.3804 17.7262 61.9009C16.9847 65.255 18.9912 73.8753 17.2096 75.575C11.7323 76.7512 9.78186 76.2756 10.0414 70.9174C10.0364 66.6126 8.77134 62.7293 10.0295 57.9942C1.65171 54.3112 -0.989247 38.9046 0.663243 31.6546C6.34899 30.3353 8.24088 31.1587 7.86162 36.4885C8.20245 41.5771 7.42314 46.3726 10.1958 51.3918C14.7866 56.9793 20.3514 51.8297 20.9807 45.9997C22.0354 42.3513 21.2157 35.9764 21.9768 32.5265C23.4144 31.2073 29.2438 31.5651 29.3692 33.3209" fill="#F5F5F7"/>
<path fill-rule="evenodd" clip-rule="evenodd" d="M7.88278 37.451C5.2267 36.688 -0.712306 39.2477 0.133154 34.3318C3.02863 35.5339 8.94811 32.4746 7.88278 37.451Z" fill="#4395A1"/>
<path fill-rule="evenodd" clip-rule="evenodd" d="M29.3304 35.381C29.6416 38.3817 28.6405 38.4536 25.4023 38.1039C22.1711 38.0189 21.3414 38.6476 21.6866 35.1208C24.2381 35.2172 26.7795 35.3042 29.3304 35.381Z" fill="#4395A1"/>
<path fill-rule="evenodd" clip-rule="evenodd" d="M9.28795 49.6286C6.70684 49.1801 1.87222 51.3347 1.78906 46.8075C4.54972 47.1773 9.20605 45.1474 9.28795 49.6286Z" fill="#4395A1"/>
<path fill-rule="evenodd" clip-rule="evenodd" d="M27.1359 46.8177C26.7018 50.8093 23.0831 49.4485 19.906 49.6186C20.3073 45.3403 23.8964 47.0936 27.1359 46.8177" fill="#4395A1"/>
<path fill-rule="evenodd" clip-rule="evenodd" d="M17.9136 59.852C17.5645 60.7082 18.2752 63.3768 16.8463 62.7008C11.6766 62.1994 8.75902 64.4743 9.55723 59.852H17.9136Z" fill="#4395A1"/>
<path fill-rule="evenodd" clip-rule="evenodd" d="M17.9038 73.6277C15.1501 72.8238 9.07628 74.8852 9.97151 69.9403C12.6534 70.9735 18.9805 68.8744 17.9038 73.6277Z" fill="#4395A1"/>
<path fill-rule="evenodd" clip-rule="evenodd" d="M8.26779 44.9885C6.55419 44.3642 1.32708 45.4144 1.04736 43.1212C2.7534 44.1721 7.95405 42.6002 8.26779 44.9885Z" fill="#4395A1"/>
<path fill-rule="evenodd" clip-rule="evenodd" d="M28.0791 43.8525C27.6494 45.8817 23.2715 44.6998 21.1289 45.1906C21.3053 43.3321 25.9988 44.3464 28.0791 43.8525" fill="#4395A1"/>
<path fill-rule="evenodd" clip-rule="evenodd" d="M8.02662 41.9561C6.28341 41.2568 0.801785 41.9851 0.605225 39.6263C2.30055 40.8448 7.77525 39.5715 8.02662 41.9561Z" fill="#4395A1"/>
<path fill-rule="evenodd" clip-rule="evenodd" d="M28.6667 41.2436C28.4758 43.2823 23.3495 42.038 21.4658 42.4853C21.5534 40.5978 26.6583 41.7444 28.6667 41.2436Z" fill="#4395A1"/>
<path fill-rule="evenodd" clip-rule="evenodd" d="M24.1035 52.882C21.5381 55.2797 6.66761 56.9574 5.73584 54.7209C11.9357 55.1638 18 53.7967 24.1035 52.882Z" fill="#4395A1"/>
<path fill-rule="evenodd" clip-rule="evenodd" d="M20.3203 57.1369C17.7795 59.1888 13.2504 58.3314 9.80749 58.446C9.87553 58.2822 9.94231 58.1285 10.0292 57.9937C9.84466 57.8979 9.78292 57.9332 8.98975 57.4551C12.7823 57.6567 16.556 57.542 20.3203 57.1369Z" fill="#4395A1"/>
<path fill-rule="evenodd" clip-rule="evenodd" d="M17.6732 66.9468C15.7989 66.1751 9.90084 67.9939 9.68286 65.5413C11.5099 66.3874 17.585 64.5402 17.6732 66.9468Z" fill="#4395A1"/>
<path fill-rule="evenodd" clip-rule="evenodd" d="M77.096 71.2929C71.5722 59.4401 81.2629 48.6205 73.5359 49.4376C69.3937 49.3424 71.0399 53.2907 70.0684 56.275C69.4964 62.2007 67.0028 72.0684 62.8083 69.7645C58.935 65.1592 60.2864 59.5913 60.1459 53.1987C59.6369 50.5054 63.9524 51.2438 62.223 49.8716C52.6779 46.4029 54.4557 55.0918 54.3165 60.4317C53.7363 71.8032 63.4547 75.9725 70.9428 70.4405C70.8105 72.9958 77.3808 73.1004 77.096 71.2929Z" fill="#4395A1"/>
<path fill-rule="evenodd" clip-rule="evenodd" d="M56.2925 64.0516C55.6782 64.0516 55.7998 64.9997 56.4071 64.9997C57.0214 64.9997 56.9004 64.0516 56.2925 64.0516" fill="#F5F5F7"/>
<path fill-rule="evenodd" clip-rule="evenodd" d="M56.4131 57.4329C55.7988 57.4329 55.9204 58.3817 56.5277 58.3817C57.1414 58.3817 57.0204 57.4329 56.4131 57.4329Z" fill="#F5F5F7"/>
<path fill-rule="evenodd" clip-rule="evenodd" d="M71.3342 59.0577C70.72 59.0577 70.8416 60.0059 71.4489 60.0059C72.0625 60.0059 71.9415 59.0577 71.3342 59.0577Z" fill="#F5F5F7"/>
<path fill-rule="evenodd" clip-rule="evenodd" d="M71.6955 53.5224C71.0806 53.5224 71.2022 54.4706 71.8102 54.4706C72.4238 54.4706 72.3028 53.5224 71.6955 53.5224Z" fill="#F5F5F7"/>
<path fill-rule="evenodd" clip-rule="evenodd" d="M74.7034 65.255C74.0891 65.255 74.2107 66.2032 74.818 66.2032C75.4323 66.2032 75.3113 65.255 74.7034 65.255Z" fill="#F5F5F7"/>
<path fill-rule="evenodd" clip-rule="evenodd" d="M70.612 66.6387C69.9978 66.6387 70.1194 67.5868 70.7267 67.5868C71.341 67.5868 71.22 66.6387 70.612 66.6387Z" fill="#F5F5F7"/>
<path fill-rule="evenodd" clip-rule="evenodd" d="M74.9446 70.9102C74.3297 70.9102 74.4513 71.8589 75.0586 71.8589C75.6729 71.8589 75.5519 70.9102 74.9446 70.9102Z" fill="#F5F5F7"/>
<path fill-rule="evenodd" clip-rule="evenodd" d="M67.9654 70.1282C67.3505 70.1282 67.4721 71.077 68.0794 71.077C68.6936 71.077 68.5727 70.1282 67.9654 70.1282Z" fill="#F5F5F7"/>
<path fill-rule="evenodd" clip-rule="evenodd" d="M62.3698 71.0308C61.755 71.0308 61.8765 71.9789 62.4845 71.9789C63.0981 71.9789 62.9772 71.0308 62.3698 71.0308Z" fill="#F5F5F7"/>
<path fill-rule="evenodd" clip-rule="evenodd" d="M59.4817 67.962C58.8668 67.962 58.9884 68.9108 59.5957 68.9108C60.21 68.9108 60.089 67.962 59.4817 67.962Z" fill="#F5F5F7"/>
<path fill-rule="evenodd" clip-rule="evenodd" d="M58.9399 62.487C58.3257 62.487 58.4473 63.4358 59.0546 63.4358C59.6688 63.4358 59.5479 62.487 58.9399 62.487Z" fill="#F5F5F7"/>
<path fill-rule="evenodd" clip-rule="evenodd" d="M55.5105 54.425C54.8962 54.425 55.0178 55.3731 55.6251 55.3731C56.2388 55.3731 56.1178 54.425 55.5105 54.425Z" fill="#F5F5F7"/>
<path fill-rule="evenodd" clip-rule="evenodd" d="M57.9172 51.4165C57.303 51.4165 57.4246 52.3653 58.0319 52.3653C58.6455 52.3653 58.5245 51.4165 57.9172 51.4165Z" fill="#F5F5F7"/>
<path fill-rule="evenodd" clip-rule="evenodd" d="M59.9026 49.7917C59.2883 49.7917 59.4099 50.7405 60.0172 50.7405C60.6309 50.7405 60.5099 49.7917 59.9026 49.7917Z" fill="#F5F5F7"/>
<path fill-rule="evenodd" clip-rule="evenodd" d="M56.5337 49.852C55.9188 49.852 56.0404 50.8008 56.6477 50.8008C57.262 50.8008 57.141 49.852 56.5337 49.852Z" fill="#F5F5F7"/>
<path fill-rule="evenodd" clip-rule="evenodd" d="M58.6389 55.8689C58.0247 55.8689 58.1462 56.817 58.7536 56.817C59.3678 56.817 59.2469 55.8689 58.6389 55.8689Z" fill="#F5F5F7"/>
<path fill-rule="evenodd" clip-rule="evenodd" d="M56.594 60.3207C55.9791 60.3207 56.1007 61.2695 56.708 61.2695C57.3223 61.2695 57.2013 60.3207 56.594 60.3207Z" fill="#F5F5F7"/>
<path fill-rule="evenodd" clip-rule="evenodd" d="M58.8802 59.6594C58.2653 59.6594 58.3869 60.6075 58.9942 60.6075C59.6084 60.6075 59.4875 59.6594 58.8802 59.6594Z" fill="#F5F5F7"/>
<path fill-rule="evenodd" clip-rule="evenodd" d="M57.7371 66.2172C57.1222 66.2172 57.2438 67.1659 57.8511 67.1659C58.4654 67.1659 58.3444 66.2172 57.7371 66.2172Z" fill="#F5F5F7"/>
<path fill-rule="evenodd" clip-rule="evenodd" d="M61.768 69.7671C61.1532 69.7671 61.2747 70.7159 61.8827 70.7159C62.4963 70.7159 62.3754 69.7671 61.768 69.7671Z" fill="#F5F5F7"/>
<path fill-rule="evenodd" clip-rule="evenodd" d="M59.7224 70.73C59.1075 70.73 59.2297 71.6781 59.8371 71.6781C60.4507 71.6781 60.3297 70.73 59.7224 70.73Z" fill="#F5F5F7"/>
<path fill-rule="evenodd" clip-rule="evenodd" d="M65.438 71.2111C64.8237 71.2111 64.9453 72.1598 65.5526 72.1598C66.1663 72.1598 66.0453 71.2111 65.438 71.2111Z" fill="#F5F5F7"/>
<path fill-rule="evenodd" clip-rule="evenodd" d="M70.9732 62.6673C70.2997 62.5495 70.5536 64.042 71.4142 63.468C71.5339 63.2009 71.4671 62.9439 70.9732 62.6673Z" fill="#F5F5F7"/>
<path fill-rule="evenodd" clip-rule="evenodd" d="M73.1394 63.0887C72.5245 63.0887 72.6467 64.0375 73.2541 64.0375C73.8677 64.0375 73.7467 63.0887 73.1394 63.0887Z" fill="#F5F5F7"/>
<path fill-rule="evenodd" clip-rule="evenodd" d="M73.2595 68.9852C72.6453 68.9852 72.7668 69.9333 73.3742 69.9333C73.9884 69.9333 73.8675 68.9852 73.2595 68.9852Z" fill="#F5F5F7"/>
<path fill-rule="evenodd" clip-rule="evenodd" d="M73.5603 57.2526C72.946 57.2526 73.0676 58.2013 73.6749 58.2013C74.2892 58.2013 74.1682 57.2526 73.5603 57.2526Z" fill="#F5F5F7"/>
<path fill-rule="evenodd" clip-rule="evenodd" d="M71.0937 56.35C70.4789 56.35 70.6011 57.2988 71.2084 57.2988C71.822 57.2988 71.7011 56.35 71.0937 56.35Z" fill="#F5F5F7"/>
<path fill-rule="evenodd" clip-rule="evenodd" d="M73.1997 54.0035C72.5849 54.0035 72.7064 54.9523 73.3138 54.9523C73.928 54.9523 73.8071 54.0035 73.1997 54.0035Z" fill="#F5F5F7"/>
<path fill-rule="evenodd" clip-rule="evenodd" d="M72.8989 50.6345C72.2841 50.6345 72.4057 51.5827 73.013 51.5827C73.6272 51.5827 73.5063 50.6345 72.8989 50.6345Z" fill="#F5F5F7"/>
<path fill-rule="evenodd" clip-rule="evenodd" d="M75.1247 50.4536C74.5105 50.4536 74.6321 51.4024 75.2394 51.4024C75.853 51.4024 75.7321 50.4536 75.1247 50.4536Z" fill="#F5F5F7"/>
<path fill-rule="evenodd" clip-rule="evenodd" d="M75.7266 53.4622C75.1117 53.4622 75.2339 54.4109 75.8412 54.4109C76.4548 54.4109 76.3339 53.4622 75.7266 53.4622Z" fill="#F5F5F7"/>
<path fill-rule="evenodd" clip-rule="evenodd" d="M74.3427 60.9225C73.7279 60.9225 73.8494 61.8713 74.4574 61.8713C75.071 61.8713 74.9501 60.9225 74.3427 60.9225Z" fill="#F5F5F7"/>
<path fill-rule="evenodd" clip-rule="evenodd" d="M68.2058 67.6611C67.5909 67.6611 67.7125 68.6099 68.3204 68.6099C68.9341 68.6099 68.8131 67.6611 68.2058 67.6611Z" fill="#F5F5F7"/>
<path fill-rule="evenodd" clip-rule="evenodd" d="M68.8076 64.9541C68.1928 64.9541 68.3143 65.9023 68.9217 65.9023C69.5359 65.9023 69.415 64.9541 68.8076 64.9541Z" fill="#F5F5F7"/>
<path fill-rule="evenodd" clip-rule="evenodd" d="M128.744 40.7526C125.522 42.4719 121.828 44.5125 118.26 46.6444C117.693 44.9919 120.234 44.2869 121.821 43.3388C124.777 42.2294 125.156 40.5649 128.744 40.7526" fill="#F5F5F7"/>
<path fill-rule="evenodd" clip-rule="evenodd" d="M125.971 46.9043C123.45 48.0301 120.908 49.1471 118.367 50.2446C118.373 47.9753 124.03 47.2565 125.943 45.8743C125.943 46.2107 125.953 46.5578 125.971 46.9043Z" fill="#F5F5F7"/>
<path fill-rule="evenodd" clip-rule="evenodd" d="M135.194 42.7552C133.755 42.8277 130.6 46.1805 129.177 44.4304C130.807 44.2168 133.29 41.3591 135.194 42.7552Z" fill="#F5F5F7"/>
<path fill-rule="evenodd" clip-rule="evenodd" d="M137.62 44.9596C135.531 46.1245 133.461 47.3467 131.42 48.6079C130.239 47.7952 137.272 43.0664 137.62 44.9596Z" fill="#F5F5F7"/>
<path fill-rule="evenodd" clip-rule="evenodd" d="M126.164 53.7488C123.758 55.3175 121.284 56.7716 118.588 57.6567C118.823 55.5097 124.356 54.593 126.136 52.6413C126.145 53.0073 126.155 53.3727 126.164 53.7488Z" fill="#F5F5F7"/>
<path fill-rule="evenodd" clip-rule="evenodd" d="M126.107 51.5826C123.681 53.1803 121.159 54.6148 118.53 55.8855C118.678 53.5999 124.249 52.3103 126.068 50.4562C126.07 50.6792 126.078 50.6244 126.107 51.5826Z" fill="#F5F5F7"/>
<path fill-rule="evenodd" clip-rule="evenodd" d="M139.661 51.1205C139.108 53.9039 132.704 54.9528 130.226 56.5688C131.687 53.8182 136.815 53.0364 139.661 51.1205Z" fill="#F5F5F7"/>
<path fill-rule="evenodd" clip-rule="evenodd" d="M137.677 56.8773C133.14 61.3736 124.657 61.4568 118.762 63.7695C118.335 62.2518 120.458 62.2985 122.096 61.768C127.642 60.6504 132.33 58.9828 137.677 56.8773Z" fill="#F5F5F7"/>
<path fill-rule="evenodd" clip-rule="evenodd" d="M126.29 58.0998C123.758 59.0335 121.216 59.9678 118.685 60.892C118.657 58.6863 124.346 58.3002 126.261 57.0893C126.271 57.4263 126.28 57.7628 126.29 58.0998Z" fill="#F5F5F7"/>
<path fill-rule="evenodd" clip-rule="evenodd" d="M126.482 64.6268C126.54 66.8526 120.788 66.423 118.867 67.2546C118.768 65.335 124.566 65.5548 126.482 64.6268Z" fill="#F5F5F7"/>
<path fill-rule="evenodd" clip-rule="evenodd" d="M136.301 62.4994C134.6 62.9095 130.88 65.684 129.399 63.9043C131.521 63.9559 134.58 61.1278 136.301 62.4994Z" fill="#F5F5F7"/>
<path fill-rule="evenodd" clip-rule="evenodd" d="M138.265 64.7425C136.09 65.7045 133.866 66.5329 131.593 67.2454C131.452 66.8416 131.565 67.1302 131.228 66.359C133.165 66.4057 137.255 62.8285 138.265 64.7425" fill="#F5F5F7"/>
<path fill-rule="evenodd" clip-rule="evenodd" d="M139.449 67.6206C137.347 68.3224 134.384 69.4211 132.036 70.3353C132.056 69.9982 132.046 69.6611 132.017 69.3247C134.386 68.3911 136.773 67.5248 139.189 66.7153C139.295 67.0139 139.382 67.3125 139.449 67.6206Z" fill="#F5F5F7"/>
<path fill-rule="evenodd" clip-rule="evenodd" d="M139.709 70.239C139.814 71.5759 136.977 72.9228 134.781 72.6746C136.214 71.5671 137.995 70.9037 139.709 70.239Z" fill="#F5F5F7"/>
<path fill-rule="evenodd" clip-rule="evenodd" d="M126.607 68.9685C124.027 69.3534 121.476 69.9305 118.964 70.6821C118.855 68.5622 124.638 68.6352 126.578 68.0153C126.595 68.1892 126.594 68.4803 126.607 68.9685" fill="#F5F5F7"/>
<path fill-rule="evenodd" clip-rule="evenodd" d="M126.665 70.9704C125.773 71.9135 123.144 72.6235 120.879 72.4912C122.33 71.2552 124.447 71.0706 126.646 70.4122L126.665 70.9704Z" fill="#F5F5F7"/>
<path fill-rule="evenodd" clip-rule="evenodd" d="M139.343 48.6079C137.272 49.4181 134.471 51.3818 131.901 52.0156C131.301 49.1554 136.33 48.2167 138.564 46.4514C138.891 47.106 139.16 47.8286 139.343 48.6079Z" fill="#F5F5F7"/>
<path fill-rule="evenodd" clip-rule="evenodd" d="M126.087 50.928C123.803 52.195 121.36 54.1782 118.521 55.3468C119.155 53.1122 123.839 51.6859 126.049 49.8306C126.062 50.0139 126.045 50.0492 126.087 50.928Z" fill="#F5F5F7"/>
<path fill-rule="evenodd" clip-rule="evenodd" d="M126.578 68.0155C124.695 68.6833 121.209 68.9498 118.954 70.143C118.723 67.7944 124.591 67.8354 126.559 67.2161L126.578 68.0155Z" fill="#F5F5F7"/>
<path fill-rule="evenodd" clip-rule="evenodd" d="M137.947 64.2608C136.382 64.4775 131.88 68.5032 131.122 66.1287C133.034 66.1841 136.65 62.4067 137.947 64.2608" fill="#F5F5F7"/>
<path fill-rule="evenodd" clip-rule="evenodd" d="M6.91016 98.1946C8.44106 98.1946 9.97133 98.2047 11.5022 98.2135C10.6889 98.8662 8.48705 99.2442 6.91016 98.1946" fill="#4395A1"/>
<path fill-rule="evenodd" clip-rule="evenodd" d="M14.8041 98.2136C15.7863 98.2237 16.7779 98.2237 17.7594 98.2237C17.6404 99.3842 16.2752 98.7995 14.6309 98.8783L14.8041 98.2136Z" fill="#4395A1"/>
<path fill-rule="evenodd" clip-rule="evenodd" d="M22.0627 99.0129C21.1001 98.994 20.1469 98.9839 19.1843 98.965C19.1748 98.7237 19.1553 98.4743 19.1357 98.2235C20.099 98.2235 21.0617 98.2336 22.0237 98.2235C22.0432 98.4831 22.0526 98.7527 22.0627 99.0129" fill="#4395A1"/>
<path fill-rule="evenodd" clip-rule="evenodd" d="M26.0862 98.2334C27.0394 98.2334 27.992 98.2333 28.9452 98.2233C28.8652 99.3988 27.5963 99.0744 25.9514 99.0605C25.9993 98.772 26.0384 98.4929 26.0862 98.2334" fill="#4395A1"/>
<path fill-rule="evenodd" clip-rule="evenodd" d="M34.6061 99.1286C33.6145 99.1286 32.6235 99.1185 31.6313 99.1185C31.6313 98.8105 31.6218 98.5119 31.6023 98.2233C32.5945 98.2233 33.5761 98.2233 34.5671 98.2139C34.5866 98.5119 34.6061 98.8206 34.6061 99.1286Z" fill="#4395A1"/>
<path fill-rule="evenodd" clip-rule="evenodd" d="M40.2085 98.1848C40.5443 98.5174 42.9377 97.4615 43.1134 98.661C43.6703 99.5815 40.5575 99.0384 40.2186 99.1575C40.2375 98.8299 40.2375 98.5029 40.2085 98.1848" fill="#4395A1"/>
<path fill-rule="evenodd" clip-rule="evenodd" d="M48.8242 98.1177C49.8259 98.1177 50.8169 98.1076 51.8085 98.0887C51.7146 99.5447 50.4112 99.0848 48.5747 99.1478C48.6415 98.8202 48.7284 98.4737 48.8242 98.1177Z" fill="#4395A1"/>
<path fill-rule="evenodd" clip-rule="evenodd" d="M69.0788 97.8575C69.0882 98.2135 69.1172 98.57 69.1657 98.926C67.2297 98.965 65.2856 98.994 63.3414 99.0129C63.2255 96.9761 67.1629 98.2576 69.0788 97.8575" fill="#4395A1"/>
<path fill-rule="evenodd" clip-rule="evenodd" d="M79.2544 97.6846C80.1975 97.6556 81.1507 97.6361 82.0938 97.6172C82.766 98.8167 78.9457 99.6905 79.2544 97.6846Z" fill="#4395A1"/>
<path fill-rule="evenodd" clip-rule="evenodd" d="M94.2617 97.3185C94.2907 97.636 94.3292 97.9731 94.3676 98.3391C93.2512 98.3775 92.1443 98.4065 91.0374 98.4348C90.638 96.8397 92.6867 97.4974 94.2617 97.3185Z" fill="#4395A1"/>
<path fill-rule="evenodd" clip-rule="evenodd" d="M100.259 98.1559C98.5932 98.2044 96.9382 98.2617 95.2724 98.3102C95.0891 97.1491 100.148 96.109 100.259 98.1559Z" fill="#4395A1"/>
<path fill-rule="evenodd" clip-rule="evenodd" d="M112.524 96.7506C112.155 98.0642 111.001 97.7555 109.173 97.8386C109.214 96.4331 110.997 96.881 112.524 96.7506Z" fill="#4395A1"/>
<path fill-rule="evenodd" clip-rule="evenodd" d="M118.376 97.4723C117.529 97.5113 116.673 97.5498 115.825 97.5781C116.442 96.7119 118.049 96.5292 118.376 97.4723Z" fill="#4395A1"/>
<path fill-rule="evenodd" clip-rule="evenodd" d="M118.453 96.5292C120.196 96.4618 121.938 96.3944 123.681 96.3175C123.809 98.0147 120.144 97.1548 118.453 97.4723C118.463 97.1258 118.463 96.8177 118.453 96.5292Z" fill="#4395A1"/>
<path fill-rule="evenodd" clip-rule="evenodd" d="M125.952 96.2209C126.963 96.1824 127.974 96.1339 128.985 96.0861C128.554 97.2673 127.365 97.113 125.577 97.1741C125.693 96.8465 125.818 96.5289 125.952 96.2209" fill="#4395A1"/>
<path fill-rule="evenodd" clip-rule="evenodd" d="M136.927 95.7208C138.631 95.6433 140.345 95.557 142.048 95.4606C142.711 96.5423 137.295 97.4829 136.927 95.7208Z" fill="#4395A1"/>
<path fill-rule="evenodd" clip-rule="evenodd" d="M155.651 94.71C154.905 96.6 151.175 95.5687 149.066 96.0191C149.165 94.206 153.681 95.1434 155.651 94.71Z" fill="#4395A1"/>
<path fill-rule="evenodd" clip-rule="evenodd" d="M14.2652 100.245C14.8605 100.298 16.2012 100.172 17.2199 100.39C17.0479 102.579 16.1319 102.938 13.5432 102.632C13.7832 101.795 14.0529 100.987 14.2652 100.245" fill="#4395A1"/>
<path fill-rule="evenodd" clip-rule="evenodd" d="M22.0627 100.726C22.2272 102.889 21.8523 103.165 19.0879 102.777C19.1553 101.911 19.1843 101.092 19.1937 100.467C20.157 100.544 21.1096 100.631 22.0627 100.726Z" fill="#4395A1"/>
<path fill-rule="evenodd" clip-rule="evenodd" d="M26.0864 101.159C26.8374 101.246 27.5782 101.323 28.3298 101.4C28.3342 101.882 28.2971 102.023 28.2908 103.46C27.4056 103.374 26.5293 103.297 25.6536 103.229C25.6435 102.516 25.6725 101.804 25.7304 101.121C25.8457 101.13 25.9705 101.15 26.0864 101.159" fill="#4395A1"/>
<path fill-rule="evenodd" clip-rule="evenodd" d="M34.5292 101.968C34.6986 104.313 33.4663 104.051 31.1404 103.72C31.342 103.229 31.4774 102.517 31.5543 101.718C32.5459 101.814 33.5375 101.901 34.5292 101.968" fill="#4395A1"/>
<path fill-rule="evenodd" clip-rule="evenodd" d="M43.0103 104.606C39.4955 105.342 38.2229 101.588 42.9618 102.402C42.9139 103.056 42.8849 103.875 43.0103 104.606Z" fill="#4395A1"/>
<path fill-rule="evenodd" clip-rule="evenodd" d="M51.2309 102.353C51.3078 103.191 51.4911 103.961 51.7607 104.635C50.4075 104.677 49.0347 104.709 47.0918 104.712C47.449 102.699 48.6901 102.072 51.2309 102.353" fill="#4395A1"/>
<path fill-rule="evenodd" clip-rule="evenodd" d="M62.3113 101.766C63.3993 101.689 64.4773 101.612 65.5653 101.525C65.1224 103.9 63.2695 104.314 60.4824 104.221C61.2038 103.489 61.8205 102.661 62.3113 101.766" fill="#4395A1"/>
<path fill-rule="evenodd" clip-rule="evenodd" d="M69.4831 101.207C69.6078 101.939 69.7716 102.767 70.0318 103.508C68.196 103.559 66.3917 104.638 66.3545 101.458C67.394 101.381 68.4436 101.294 69.4831 101.207" fill="#4395A1"/>
<path fill-rule="evenodd" clip-rule="evenodd" d="M82.1803 100.139C82.4594 101.15 83.0081 101.766 83.5184 102.363C82.2477 102.46 80.9864 102.566 79.7164 102.671C79.7082 102.033 80.5996 102.023 79.7453 100.341C80.5536 100.274 81.3619 100.206 82.1803 100.139" fill="#4395A1"/>
<path fill-rule="evenodd" clip-rule="evenodd" d="M112.023 101.516C107.059 100.744 98.2505 103.254 97.7951 99.8021C97.4813 102.822 92.5068 101.363 89.8337 101.92C90.3151 101.362 90.6905 100.591 90.8827 99.5425C92.0765 99.4751 93.2704 99.4171 94.4743 99.3693C94.4932 99.6484 94.5222 99.9274 94.5512 100.225C97.7617 96.1323 106.241 104.44 108.749 99.2244C109.417 99.2313 110.515 99.2483 111.753 99.2722C111.715 100.024 111.801 100.803 112.023 101.516" fill="#4395A1"/>
<path fill-rule="evenodd" clip-rule="evenodd" d="M122.372 99.5229C120.456 101.872 116.971 102.719 115.825 99.3591C118.01 99.407 120.186 99.465 122.372 99.5229Z" fill="#4395A1"/>
<path fill-rule="evenodd" clip-rule="evenodd" d="M127.214 99.6485C127.031 100.38 126.953 101.111 127.04 101.804C125.894 101.785 124.749 101.756 123.604 101.737C125.039 100.302 124.478 99.1684 127.214 99.6485Z" fill="#4395A1"/>
<path fill-rule="evenodd" clip-rule="evenodd" d="M142.096 99.7924C142.192 100.592 142.346 101.333 142.587 101.93C140.623 101.958 138.65 101.958 136.686 101.939C137.193 99.1649 139.38 99.8239 142.096 99.7924Z" fill="#4395A1"/>
<path fill-rule="evenodd" clip-rule="evenodd" d="M152.81 99.427C152.599 99.873 151.706 100.427 152.099 101.65C150.51 101.727 148.921 101.795 147.333 101.833C148.375 99.8844 150.061 99.2285 152.81 99.427Z" fill="#4395A1"/>
<path fill-rule="evenodd" clip-rule="evenodd" d="M163.814 100.688C160.96 100.698 160.993 100.996 160.893 100.096C163.223 100.754 162.325 100.856 160.994 100.996C160.895 100.097 160.863 99.7961 160.801 99.1957C160.892 98.7408 160.611 98.674 161.725 98.6312C163.476 98.2192 163.832 98.3319 163.814 100.688" fill="#4395A1"/>
</svg>
