<svg width="106" height="119" viewBox="0 0 106 119" fill="none" xmlns="http://www.w3.org/2000/svg">
<path fill-rule="evenodd" clip-rule="evenodd" d="M36.183 57.7259C31.7844 42.7773 31.9255 18.7705 52.8434 11.4881C62.6326 10.1732 61.0907 8.16475 66.0976 4.33264C64.4871 6.05354 64.8968 9.48017 62.7823 11.2565C60.9946 13.6386 57.8801 14.2236 57.2719 17.4584C58.2628 23.7736 64.2493 28.3773 65.8551 34.792C68.7677 42.163 64.0839 48.1238 61.6236 53.8866C61.6388 53.8772 53.5819 58.9745 53.1537 59.2454C53.5416 59.3496 36.2593 57.7026 36.183 57.7259" fill="#DBEEE9"/>
<path fill-rule="evenodd" clip-rule="evenodd" d="M62.8948 4.13824C63.2012 -1.4735 70.9536 -1.01781 71.0938 4.13824C70.7868 9.7495 63.035 9.29382 62.8948 4.13824" fill="#C54554"/>
<path fill-rule="evenodd" clip-rule="evenodd" d="M34.1324 46.0359C45.4193 45.2018 56.5419 41.3105 65.9019 34.9394C65.3515 33.2114 64.5765 31.5204 63.6931 29.8677C38.1502 46.6503 32.0202 34.5747 34.1324 46.0359" fill="#C54554"/>
<path fill-rule="evenodd" clip-rule="evenodd" d="M58.8598 21.8359C37.5994 32.8661 36.0022 23.0069 34.2898 33.7557C43.9018 33.7046 53.375 31.1803 61.7303 26.4695C60.7616 24.885 59.7678 23.3394 58.8598 21.8359" fill="#C54554"/>
<path fill-rule="evenodd" clip-rule="evenodd" d="M47.9127 21.4259C51.2313 21.4259 54.6551 21.1052 57.9368 20.2337C56.5451 17.6601 57.501 15.4097 60.0158 13.7537C46.9502 19.0049 46.3713 11.8045 40.1438 20.9252C42.5738 21.2142 45.2056 21.4259 47.9127 21.4259Z" fill="#C54554"/>
<path fill-rule="evenodd" clip-rule="evenodd" d="M101.866 45.5451C93.963 38.6303 83.5628 44.3609 81.8637 45.3784C73.9437 30.8671 60.6559 40.6813 59.1562 50.6216C49.8142 42.6846 34.1841 44.3254 32.0269 57.5128C9.12901 49.4725 -12.3763 76.1101 10.8167 94.3502C2.11138 117.617 27.8698 128.279 42.8231 107.471C43.8993 106.561 43.4441 105.35 44.5431 105.921C47.6102 107.522 49.4604 108.662 53.1016 109.429C69.8293 111.433 77.4215 99.8365 74.667 88.7096C89.8358 99.6664 104.47 84.8216 99.1413 69.074C104.057 65.7445 109.535 51.9588 101.866 45.5451" fill="#7888B0"/>
<path fill-rule="evenodd" clip-rule="evenodd" d="M28.5786 71.7527C34.007 73.2335 40.4037 71.4396 44.079 66.2476C43.7185 72.9511 33.8649 77.3034 28.5786 71.7527Z" fill="#282D3B"/>
<path fill-rule="evenodd" clip-rule="evenodd" d="M62.3865 59.3135C67.9082 60.3963 74.1575 58.1425 77.4463 52.6975C77.5737 59.4091 68.0617 64.4657 62.3865 59.3135" fill="#282D3B"/>
<path fill-rule="evenodd" clip-rule="evenodd" d="M43.3733 71.9458C43.1549 71.8132 40.6913 69.5561 42.4974 69.6608C42.8527 69.8971 44.6077 71.3944 43.3733 71.9458Z" fill="#282D3B"/>
<path fill-rule="evenodd" clip-rule="evenodd" d="M44.6593 69.1995C44.3619 69.2483 41.777 66.8112 44.1497 67.544C44.5864 67.8069 45.7313 68.795 44.6593 69.1995Z" fill="#282D3B"/>
<path fill-rule="evenodd" clip-rule="evenodd" d="M29.2193 74.4137C28.3449 74.4199 29.4083 72.4555 30.3523 72.2158C31.1017 72.6208 30.2225 74.1267 29.2193 74.4137Z" fill="#282D3B"/>
<path fill-rule="evenodd" clip-rule="evenodd" d="M31.893 75.6178C31.2247 75.5061 31.5454 73.6028 32.0351 72.8823C32.9171 72.8634 33.0332 75.1205 31.893 75.6178" fill="#282D3B"/>
<path fill-rule="evenodd" clip-rule="evenodd" d="M34.8319 76.0177C34.2232 75.9372 34.1455 73.717 34.9275 73.1344C35.6281 73.1908 35.828 75.4649 34.8319 76.0177Z" fill="#282D3B"/>
<path fill-rule="evenodd" clip-rule="evenodd" d="M38.1757 75.483C37.8669 75.6227 36.236 72.1279 37.9479 72.9947C38.1265 73.4125 39.3064 75.0107 38.1757 75.483Z" fill="#282D3B"/>
<path fill-rule="evenodd" clip-rule="evenodd" d="M41.1025 73.8816C40.8439 73.8167 38.7152 71.2062 40.4848 71.5529C40.7927 71.8523 42.2877 73.3809 41.1025 73.8816Z" fill="#282D3B"/>
<path fill-rule="evenodd" clip-rule="evenodd" d="M77.5263 57.3762C77.2374 57.4202 74.6473 54.985 77.0233 55.715C77.4591 55.9746 78.5945 56.974 77.5263 57.3762Z" fill="#282D3B"/>
<path fill-rule="evenodd" clip-rule="evenodd" d="M78.1258 54.9052C76.6498 54.5798 76.349 51.9556 78.5507 54.2227C78.5919 54.361 78.6554 54.7797 78.1258 54.9052Z" fill="#282D3B"/>
<path fill-rule="evenodd" clip-rule="evenodd" d="M63.3617 62.1222C62.6024 62.1933 63.2087 59.9224 64.1073 59.6434C64.7903 59.9509 64.374 61.6159 63.3617 62.1222" fill="#282D3B"/>
<path fill-rule="evenodd" clip-rule="evenodd" d="M65.8378 63.1265C65.1254 63.0497 65.5451 60.9343 66.2542 60.3734C67.0353 60.5316 66.8989 62.6414 65.8378 63.1265" fill="#282D3B"/>
<path fill-rule="evenodd" clip-rule="evenodd" d="M69.6463 63.1908C69.2361 63.2543 68.4512 60.3909 69.7069 60.5514C70.173 60.9384 70.6264 62.6608 69.6463 63.1908Z" fill="#282D3B"/>
<path fill-rule="evenodd" clip-rule="evenodd" d="M73.179 62.1878C72.9152 62.0452 71.3241 59.6204 72.5319 59.2969C73.1307 59.5579 74.3035 61.6103 73.179 62.1878Z" fill="#282D3B"/>
<path fill-rule="evenodd" clip-rule="evenodd" d="M76.0372 60.0513C75.5834 59.5738 74.7597 58.5999 74.3689 57.7402C74.9705 56.7284 77.5151 59.3493 76.0372 60.0513Z" fill="#282D3B"/>
<path fill-rule="evenodd" clip-rule="evenodd" d="M30.3442 85.1725C29.3002 82.7255 34.955 80.177 36.1805 82.5298C37.224 84.9764 31.5696 87.5248 30.3442 85.1725" fill="#FAD470"/>
<path fill-rule="evenodd" clip-rule="evenodd" d="M38.185 81.9656C37.141 79.5181 42.7954 76.9701 44.0208 79.3225C45.0648 81.7695 39.41 84.3179 38.185 81.9656Z" fill="#FAD470"/>
<path fill-rule="evenodd" clip-rule="evenodd" d="M45.5207 78.1917C44.4767 75.7442 50.1316 73.1962 51.3565 75.5485C52.4005 77.9956 46.7461 80.544 45.5207 78.1917Z" fill="#FAD470"/>
<path fill-rule="evenodd" clip-rule="evenodd" d="M65.9604 70.6031C64.9164 68.156 70.5708 65.6076 71.7962 67.9604C72.8402 70.407 67.1854 72.9558 65.9604 70.6031Z" fill="#FAD470"/>
<path fill-rule="evenodd" clip-rule="evenodd" d="M73.1196 67.4024C72.0756 64.9554 77.7304 62.407 78.9554 64.7593C79.9994 67.2063 74.3445 69.7547 73.1196 67.4024Z" fill="#FAD470"/>
<path fill-rule="evenodd" clip-rule="evenodd" d="M80.2463 63.9744C79.2023 61.5269 84.8571 58.9789 86.0821 61.3312C87.1261 63.7783 81.4717 66.3267 80.2463 63.9744Z" fill="#FAD470"/>
<path fill-rule="evenodd" clip-rule="evenodd" d="M72.3143 80.1879C68.8734 78.1652 65.3663 83.2043 67.7498 85.9294C71.0633 88.4811 76.2491 82.8263 72.3143 80.1879Z" fill="#F2C6B9"/>
</svg>
