<svg width="144" height="132" viewBox="0 0 144 132" fill="none" xmlns="http://www.w3.org/2000/svg">
<path fill-rule="evenodd" clip-rule="evenodd" d="M30.3735 105.122C28.7822 104.173 26.2256 103.521 24.0521 102.987C5.25796 99.1209 20.584 79.4567 27.3174 94.0752C19.2414 95.7642 31.7047 97.9012 33.9557 95.3327C32.8551 84.0059 12.5401 82.8221 9.06316 93.1541C6.14374 106.182 25.8646 102.428 28.4703 110.522C34.5051 127.071 13.2917 132.152 12.9295 122.385C12.6088 120.591 14.7936 117.228 16.0782 118.301C16.1255 119.064 14.5908 120.543 15.4526 120.749C20.2784 123.365 24.5561 119.165 20.7011 116.436C9.53188 110.394 0.473737 124.327 11.2001 128.939C35.0362 134.925 42.3353 113.056 30.3735 105.122Z" fill="#F5F5F7"/>
<path fill-rule="evenodd" clip-rule="evenodd" d="M69.8461 89.9887C67.6002 86.2787 60.4478 90.6257 57.2064 90.5463C43.6362 92.4161 37.5322 98.5731 53.7301 95.529C54.3746 131.599 46.652 129.793 55.5445 129.775C59.0618 128.91 58.5496 121.089 59.3283 118.652C61.2794 110.296 57.3041 92.8735 62.7977 94.1417C64.8861 93.8532 70.9587 93.4481 69.8461 89.9887" fill="#F5F5F7"/>
<path fill-rule="evenodd" clip-rule="evenodd" d="M120.557 104.757C120.484 104.757 120.369 104.757 120.244 104.778C120.224 99.2512 120.068 93.7142 119.734 88.1872C143.077 83.9945 140.091 104.987 120.557 104.757V104.757ZM142.331 90.602C138.083 82.5392 125.835 82.7503 118.35 86.3558C116.885 86.4874 111.975 85.4618 112.445 88.6798C113.244 102.234 113.117 115.375 112.094 128.924C113.062 130.415 119.338 129.71 119.391 128.331C119.886 121.894 120.2 114.585 120.244 107.911C128.124 111.74 128.394 120.265 128.498 129.05C128.508 130.403 135.815 130.08 135.794 128.456C135.731 123.034 135.981 115.914 133.005 111.127C131.454 108.618 129.206 107.245 126.708 106.276C136.116 104.913 147.764 100.864 142.331 90.602" fill="#F5F5F7"/>
<path fill-rule="evenodd" clip-rule="evenodd" d="M97.8982 121.649C93.6904 122.076 101.879 124.804 99.3573 127.544C89.138 133.161 93.8662 113.953 93.2129 108.813C92.8462 97.2185 72.0543 101.822 77.5019 109.605C83.2412 114.288 86.853 106.519 81.081 108.329C80.737 108.007 80.6771 107.641 80.8699 107.175C87.8572 101.22 91.4369 108.102 89.9047 115.217C83.3773 110.719 70.5574 113.014 72.6276 122.878C74.3437 130.322 85.455 133.683 90.8516 127.478C98.4866 137.652 109.851 123.184 97.8982 121.649" fill="#F5F5F7"/>
<path fill-rule="evenodd" clip-rule="evenodd" d="M87.061 118.1C84.5309 122.25 86.3371 122.492 87.4194 124.703C82.6907 123.58 83.0183 125.372 81.2505 127.085C80.8574 122.24 79.254 123.106 77.0786 121.955C81.5648 120.083 80.2469 118.826 80.6696 116.401C83.8354 120.09 84.6241 118.447 87.061 118.1" fill="#F4B955"/>
<path fill-rule="evenodd" clip-rule="evenodd" d="M36.4735 12.5962C26.0338 17.3603 29.6072 16.3397 27.9169 24.5751C20.159 16.1192 22.2336 19.2018 13.8798 20.1392C19.5246 10.1481 17.2333 13.0738 13.7601 5.41802C25.0069 7.69988 21.5161 6.42539 27.7241 0.756653C29.0301 12.1578 29.1636 8.44391 36.4735 12.5962" fill="#F4B955"/>
<path fill-rule="evenodd" clip-rule="evenodd" d="M14.4094 51.6716C13.6395 52.7061 8.73626 50.8123 9.07268 51.0567C4.8038 57.983 4.05851 53.1546 4.82774 49.5536C-3.30115 47.8116 1.37786 45.7534 4.88381 44.9785C4.41068 36.677 7.05353 40.8545 9.20183 43.7009C17.1877 39.6317 13.2704 45.2292 11.8491 47.4317C12.2416 47.8129 15.0123 50.6233 14.4094 51.6716" fill="#FFDA76"/>
<path fill-rule="evenodd" clip-rule="evenodd" d="M66.864 25.2879C65.8711 25.6325 63.4828 22.0686 63.5874 22.4769C57.4417 25.1997 59.5926 21.3107 61.4826 19.5505C56.7702 14.5427 61.2501 15.6546 63.6031 16.5272C67.0366 10.7753 66.9138 15.0435 67.0253 17.658C74.2709 18.6074 68.7647 20.5554 67.094 21.3498C67.1935 21.8664 67.7126 24.8066 66.864 25.2879Z" fill="#FFDA76"/>
<path fill-rule="evenodd" clip-rule="evenodd" d="M36.9734 14.804C35.3682 14.804 35.3657 17.2988 36.9734 17.2988C38.5787 17.2988 38.5812 14.804 36.9734 14.804" fill="#F4B955"/>
<path fill-rule="evenodd" clip-rule="evenodd" d="M42.4082 14.2069C39.4396 14.3197 39.2078 18.7278 42.4082 19.0207C45.3767 18.9073 45.6086 14.4992 42.4082 14.2069" fill="#F4B955"/>
<path fill-rule="evenodd" clip-rule="evenodd" d="M48.3113 16.8773C46.4736 16.8792 47.3159 20.4973 49.3023 18.5897C49.7005 17.8078 49.4069 17.2194 48.3113 16.8773Z" fill="#F4B955"/>
<path fill-rule="evenodd" clip-rule="evenodd" d="M52.9963 17.2871C50.848 17.2871 50.8449 20.6255 52.9963 20.6255C55.144 20.6255 55.1478 17.2871 52.9963 17.2871Z" fill="#F4B955"/>
<path fill-rule="evenodd" clip-rule="evenodd" d="M58.2433 18.277C56.5247 18.277 56.5221 20.9476 58.2433 20.9476C59.9619 20.9476 59.9645 18.277 58.2433 18.277Z" fill="#F4B955"/>
<path fill-rule="evenodd" clip-rule="evenodd" d="M19.6389 21.1699C18.142 21.1692 17.5353 23.7453 19.6389 24.0515C21.1358 24.0521 21.7425 21.4754 19.6389 21.1699Z" fill="#F4B955"/>
<path fill-rule="evenodd" clip-rule="evenodd" d="M18.015 25.9213C17.2086 25.1747 15.5719 25.5496 15.376 27.0143C15.3898 29.545 19.7324 28.6026 18.015 25.9213Z" fill="#F4B955"/>
<path fill-rule="evenodd" clip-rule="evenodd" d="M14.2981 30.8619C12.3149 30.8638 11.8046 34.1454 14.2981 34.4107C16.2813 34.4088 16.7916 31.1271 14.2981 30.8619" fill="#F4B955"/>
<path fill-rule="evenodd" clip-rule="evenodd" d="M11.206 36.4547C9.52639 36.4535 8.84599 39.3445 11.206 39.6872C12.8856 39.6885 13.566 36.7974 11.206 36.4547Z" fill="#F4B955"/>
<path fill-rule="evenodd" clip-rule="evenodd" d="M114.666 64.6546C114.588 64.7907 114.592 64.8253 114.259 65.4452C114.595 52.8553 124.119 43.8495 114.666 64.6546V64.6546ZM103.664 47.4915C108.065 22.4314 116.547 38.6816 101.957 56.4633C102.415 53.7379 102.932 50.7725 103.664 47.4915ZM32.202 58.3785C40.8481 14.8487 50.5482 55.6153 31.984 59.6064C32.0565 59.2007 32.1296 58.7842 32.202 58.3785ZM131.058 66.6838C125.351 60.4411 122.008 69.6398 116.727 70.2654C112.552 69.8395 120.773 60.4928 121.209 55.1573C123.594 48.8989 116.661 46.4451 113.624 51.5197C110.076 57.1469 107.839 65.1315 110.414 71.3131C102.952 81.9267 99.6523 70.6862 101.156 62.6348C100.057 57.6099 119.787 41.7327 111.566 33.4841C102.027 26.2529 97.3402 54.6288 96.2743 62.5825C93.4292 64.2804 90.9527 69.7544 87.3591 70.3044C85.6065 70.1671 87.017 53.6995 89.452 52.4408C95.4931 52.2285 95.832 49.0041 88.9889 50.416C89.4419 45.6891 91.141 40.409 91.8158 35.4314C88.691 33.4312 88.2651 36.5982 87.3862 39.2171C85.8062 42.9467 85.8723 48.5782 83.5476 52.3249C77.0019 55.0124 75.9486 61.594 83.3164 55.4018C79.9251 63.0588 63.2925 99.132 66.4633 68.1114C66.9837 63.462 67.7592 60.1923 68.8359 55.2014C69.6517 52.1617 69.0431 50.0499 73.2522 49.5629C80.4946 48.3111 75.3973 45.6343 70.889 47.5539C71.1517 44.8726 73.9338 39.1604 72.8994 36.2252C67.2873 35.9341 67.5759 44.4215 64.2394 50.6585C59.43 52.7362 54.4101 60.1406 63.77 53.9862C63.0676 55.873 63.0764 60.2295 61.2557 62.5435C59.081 65.2991 49.4936 78.4024 50.9294 72.6694C51.3868 67.2565 54.4719 64.3081 55.3406 60.4292C49.1125 57.8909 46.5269 70.5552 39.9667 75.8226C28.6034 89.6221 30.0361 70.8991 31.5777 62.0073C31.8303 60.1438 36.5572 60.5319 38.4037 58.897C46.607 55.1756 49.069 45.6456 45.0357 37.6868C37.6427 31.5802 32.7394 45.6361 31.2967 51.4151C30.106 53.2686 30.8759 62.827 26.338 59.1421C24.3755 57.2546 24.0933 53.8123 27.6301 53.7739C21.6237 51.412 22.0603 61.8013 29.0381 61.3446C24.3113 80.6471 30.3385 92.8231 45.8163 72.6373C47.443 85.8352 59.5761 68.3521 61.7824 65.3627C58.9298 72.1724 60.0902 88.9493 71.7824 81.4838C76.1754 76.5553 78.2726 71.0258 82.0678 65.0086C82.2706 75.8037 90.2811 74.223 96.004 66.0179C94.6967 75.1302 104.31 83.5804 111.279 74.24C112.23 73.4122 112.186 71.4561 114.092 72.6209C122.638 75.2046 123.388 64.5406 128.677 67.8531C129.637 67.9917 131.212 67.7164 131.058 66.6838" fill="#F5F5F7"/>
<path fill-rule="evenodd" clip-rule="evenodd" d="M56.5981 56.0976C56.3172 56.6507 54.0032 56.0617 54.196 56.3528C52.7948 59.9255 52.2039 56.9922 52.2587 55.9678C48.0333 55.7303 51.3017 54.4483 51.8826 53.8901C50.9584 50.1699 52.8862 52.4027 53.6768 53.0635C56.5799 50.7728 55.7281 53.204 55.1132 54.4514C55.1095 54.4489 56.6296 55.4481 56.5981 56.0976" fill="#F5F5F7"/>
<path fill-rule="evenodd" clip-rule="evenodd" d="M37.9892 40.5285C37.7006 41.6184 36.6385 41.5554 35.0641 41.5384C35.3659 40.4031 36.411 40.5663 37.9892 40.5285Z" fill="#4395A1"/>
<path fill-rule="evenodd" clip-rule="evenodd" d="M45.0355 37.687C44.265 38.8009 43.2349 39.7062 41.9441 40.2788C41.5787 39.1083 43.7131 38.4833 44.1718 36.9272C44.4943 37.1358 44.7753 37.3853 45.0355 37.687" fill="#4395A1"/>
<path fill-rule="evenodd" clip-rule="evenodd" d="M36.3966 43.6302C36.1957 44.8436 35.194 44.8845 33.5031 44.681C33.8023 43.3385 34.4292 43.5098 36.3966 43.6302Z" fill="#4395A1"/>
<path fill-rule="evenodd" clip-rule="evenodd" d="M46.3573 41.2468C45.1326 42.3089 44.1971 43.1273 42.2567 43.7964C41.8881 42.125 45.1862 41.4484 45.9617 39.6541C46.1179 40.1745 46.2534 40.7056 46.3573 41.2468" fill="#4395A1"/>
<path fill-rule="evenodd" clip-rule="evenodd" d="M46.8464 45.8887C47.3088 47.7466 44.1538 47.6099 42.2562 47.7101C42.2978 47.2628 42.3293 46.8048 42.3293 46.3575C43.4198 46.474 45.5417 46.6964 46.8464 45.8887" fill="#4395A1"/>
<path fill-rule="evenodd" clip-rule="evenodd" d="M45.4101 52.3625C44.9641 54.0673 42.2274 53.4127 40.3934 53.351C40.5094 53.1494 40.6448 52.9591 40.9762 52.3102C42.8926 52.5068 43.8433 52.7393 45.4101 52.3625Z" fill="#4395A1"/>
<path fill-rule="evenodd" clip-rule="evenodd" d="M34.0237 50.1354C34.0211 51.3425 32.8638 51.338 31.2964 51.4155C31.3071 50.0106 32.3422 50.4504 34.0237 50.1354Z" fill="#4395A1"/>
<path fill-rule="evenodd" clip-rule="evenodd" d="M32.4207 57.1813C32.3375 57.577 32.2645 57.9827 32.2021 58.3783C31.3169 58.0041 29.0886 58.3827 30.1521 56.1406C30.9207 56.5142 31.5337 56.9476 32.4207 57.1813Z" fill="#4395A1"/>
<path fill-rule="evenodd" clip-rule="evenodd" d="M40.8512 57.4105C39.4073 58.7959 37.3402 58.6195 34.7213 58.6283C36.2371 57.3645 38.4339 57.718 40.8512 57.4105Z" fill="#4395A1"/>
<path fill-rule="evenodd" clip-rule="evenodd" d="M31.2551 63.9258C31.4189 64.9376 30.0046 65.1651 28.3515 65.3723C28.199 63.9246 29.5516 64.3996 31.2551 63.9258" fill="#4395A1"/>
<path fill-rule="evenodd" clip-rule="evenodd" d="M30.7141 68.5782C30.9252 69.7866 29.4818 69.9063 27.7789 70.077C27.8104 69.8099 27.8445 69.5245 27.9245 68.7654C28.872 68.7584 29.0793 68.9859 30.7141 68.5782" fill="#4395A1"/>
<path fill-rule="evenodd" clip-rule="evenodd" d="M30.6308 74.0115C29.757 74.2855 29.0955 74.4871 27.4039 74.7196C27.0839 72.7666 28.9002 73.9012 30.5993 73.1584C30.5993 73.4388 30.61 73.7305 30.6308 74.0115" fill="#4395A1"/>
<path fill-rule="evenodd" clip-rule="evenodd" d="M31.2447 78.7678C30.621 78.7596 28.1332 81.1051 27.8831 78.8926C28.9553 78.6532 29.9961 78.4138 31.0053 77.9457C31.0677 78.2267 31.1509 78.5076 31.2447 78.7678Z" fill="#4395A1"/>
<path fill-rule="evenodd" clip-rule="evenodd" d="M55.4124 61.5009C54.2966 63.5641 50.8247 64.8147 48.0848 64.8002C48.5605 62.8138 51.7162 63.8275 53.3907 62.3356C54.2072 61.8965 56.0915 59.248 55.4124 61.5009Z" fill="#4395A1"/>
<path fill-rule="evenodd" clip-rule="evenodd" d="M52.9455 65.7267C52.7244 68.0867 48.8455 67.8876 46.6178 67.7874C47.2554 65.9862 51.1872 67.3086 52.9455 65.7267Z" fill="#4395A1"/>
<path fill-rule="evenodd" clip-rule="evenodd" d="M39.9669 75.8328C39.6317 77.8399 39.5801 80.6384 36.844 81.8071C37.7172 79.7778 37.6441 77.661 39.9669 75.8328Z" fill="#4395A1"/>
<path fill-rule="evenodd" clip-rule="evenodd" d="M45.5766 72.9289C45.0254 73.5954 44.4735 74.2614 43.9223 74.9172C43.4384 73.2975 42.6396 71.9707 44.7129 70.2123C45.1293 71.0553 45.4103 71.9713 45.5766 72.9289" fill="#4395A1"/>
<path fill-rule="evenodd" clip-rule="evenodd" d="M73.1167 38.0931C73.3561 40.3623 69.8388 41.0824 67.6729 41.4239C68.3955 39.4942 71.4976 40.4014 73.1167 38.0931Z" fill="#4395A1"/>
<path fill-rule="evenodd" clip-rule="evenodd" d="M72.2526 42.069C72.2469 44.3452 68.6874 44.407 66.4553 44.4523C66.7773 42.178 70.493 43.8904 72.2526 42.069Z" fill="#4395A1"/>
<path fill-rule="evenodd" clip-rule="evenodd" d="M69.8067 82.8271C67.5771 84.0298 66.927 82.2469 64.4133 80.8766C63.1312 79.7678 61.325 80.35 60.8456 78.2684C64.1758 78.768 67.7353 80.35 69.8067 82.8271Z" fill="#4395A1"/>
<path fill-rule="evenodd" clip-rule="evenodd" d="M65.9349 76.4781C64.8047 75.3719 60.8641 76.1121 60.3147 74.4899C61.7839 74.8685 66.4118 73.9443 65.9349 76.4781Z" fill="#4395A1"/>
<path fill-rule="evenodd" clip-rule="evenodd" d="M73.4286 79.5485C73.096 80.0172 72.7419 80.4645 72.3671 80.8809C71.8259 80.319 71.2432 79.8194 70.6289 79.3614C70.8891 79.0697 71.1909 78.6532 71.5449 78.1121C72.19 78.56 72.8358 79.0382 73.4286 79.5485" fill="#4395A1"/>
<path fill-rule="evenodd" clip-rule="evenodd" d="M66.2993 69.5673C66.722 71.7414 62.3668 72.1792 60.429 72.481C61.0797 71.1347 64.7671 71.5789 66.2993 69.5673Z" fill="#4395A1"/>
<path fill-rule="evenodd" clip-rule="evenodd" d="M67.5481 61.3031C67.4782 64.6257 63.5111 67.1212 60.9596 69.2443C61.708 66.3544 65.4433 63.9951 67.5481 61.3031" fill="#4395A1"/>
<path fill-rule="evenodd" clip-rule="evenodd" d="M68.4849 56.7861C68.3349 58.8235 64.5052 58.8997 62.5314 59.5442C62.922 57.4564 66.4254 58.4997 68.4849 56.7861Z" fill="#4395A1"/>
<path fill-rule="evenodd" clip-rule="evenodd" d="M69.4634 52.5292C69.3626 55.5457 65.318 51.7802 63.1766 51.3423C63.5055 51.0847 64.179 50.7785 64.6754 50.3431C65.9234 50.7394 67.6144 52.0158 69.4634 52.5292Z" fill="#4395A1"/>
<path fill-rule="evenodd" clip-rule="evenodd" d="M71.493 45.2329C71.1862 46.8898 67.6866 46.5421 65.6851 46.7947C65.8797 44.8171 69.5551 45.9354 71.493 45.2329Z" fill="#4395A1"/>
<path fill-rule="evenodd" clip-rule="evenodd" d="M74.6258 49.2713C74.1672 49.3752 73.7205 49.4584 73.2518 49.563C70.8471 48.6772 68.1979 48.2645 65.1859 48.5008C66.3653 46.3821 72.3849 48.5008 74.6258 49.2713" fill="#4395A1"/>
<path fill-rule="evenodd" clip-rule="evenodd" d="M62.5524 54.7878C61.6389 55.6497 60.6417 55.5287 59.1801 54.3714C60.035 53.0969 60.8149 54.2693 62.5524 54.7878Z" fill="#4395A1"/>
<path fill-rule="evenodd" clip-rule="evenodd" d="M55.5163 73.2516C54.4926 75.3835 51.335 73.4091 54.3508 71.1909C54.5171 71.7156 54.5959 72.3601 55.5163 73.2516Z" fill="#4395A1"/>
<path fill-rule="evenodd" clip-rule="evenodd" d="M51.6342 69.6401C50.6797 71.8842 49.1766 74.093 50.1978 77.3627C46.5419 77.5504 48.7948 70.4711 51.6342 69.6401Z" fill="#4395A1"/>
<path fill-rule="evenodd" clip-rule="evenodd" d="M91.6537 37.0626C91.6474 38.7327 89.1028 38.9085 87.3867 39.2172C87.5222 37.5615 90.0989 38.2274 91.6537 37.0626" fill="#4395A1"/>
<path fill-rule="evenodd" clip-rule="evenodd" d="M90.8311 40.3516C90.9558 42.1168 88.3224 41.7836 86.6056 41.965C86.5181 40.1178 89.154 40.8568 90.8311 40.3516Z" fill="#4395A1"/>
<path fill-rule="evenodd" clip-rule="evenodd" d="M89.9987 44.2962C89.8708 45.5631 87.4157 45.0585 85.8142 45.1184C86.1733 44.06 88.4627 44.8903 89.9987 44.2962Z" fill="#4395A1"/>
<path fill-rule="evenodd" clip-rule="evenodd" d="M89.3219 48.345C89.269 50.4335 86.635 50.613 84.2952 51.2487C84.5667 49.3486 87.476 50.1683 89.3219 48.345Z" fill="#4395A1"/>
<path fill-rule="evenodd" clip-rule="evenodd" d="M92.2049 49.9791C92.6529 49.9898 93.1833 50.0724 93.5575 50.2916C88.3317 52.2723 83.8877 55.7947 78.1855 57.4837C80.7503 54.3948 88.0495 52.5823 92.2049 49.9791Z" fill="#4395A1"/>
<path fill-rule="evenodd" clip-rule="evenodd" d="M87.8338 56.7445C87.9629 58.2187 82.938 59.0245 81.0266 60.2101C81.7763 58.1891 85.499 57.6769 87.8338 56.7445Z" fill="#4395A1"/>
<path fill-rule="evenodd" clip-rule="evenodd" d="M87.0321 61.4594C86.4443 63.7796 80.773 64.7272 78.4458 65.3622C79.886 63.1837 84.5631 63.2372 87.0321 61.4594" fill="#4395A1"/>
<path fill-rule="evenodd" clip-rule="evenodd" d="M77.8312 67.8498C78.8411 67.7667 79.7779 67.6413 80.6832 67.4649C80.3556 68.9171 78.4076 68.6443 76.7073 68.7759C77.0664 68.5346 76.6474 67.7478 77.8312 67.8498" fill="#4395A1"/>
<path fill-rule="evenodd" clip-rule="evenodd" d="M86.5742 65.4455C86.7184 66.9128 83.7851 67.5402 82.2442 68.1306C81.5512 66.4359 85.1743 66.5726 86.5742 65.4455Z" fill="#4395A1"/>
<path fill-rule="evenodd" clip-rule="evenodd" d="M74.9586 72.1066C76.0415 72.0027 77.1025 71.8672 78.1331 71.6801C77.8811 73.0812 76.1348 73.4384 74.3027 73.3452C74.5113 72.9395 74.74 72.5331 74.9586 72.1066" fill="#4395A1"/>
<path fill-rule="evenodd" clip-rule="evenodd" d="M86.5846 68.6512C83.4516 70.7743 83.6388 70.9828 83.1392 70.3062C86.9412 69.7701 85.0178 70.1109 83.1392 70.3062C84.3053 69.869 85.45 69.3278 86.5846 68.6512Z" fill="#4395A1"/>
<path fill-rule="evenodd" clip-rule="evenodd" d="M76.0205 75.479C75.6229 76.8373 74.5374 76.4126 72.7734 76.0617C73.1451 74.7135 74.1853 74.7589 76.0205 75.479Z" fill="#4395A1"/>
<path fill-rule="evenodd" clip-rule="evenodd" d="M91.7471 67.1524C91.3206 68.774 91.5128 72.1017 88.7395 72.5232C89.2939 70.9923 89.6946 68.6134 91.7471 67.1524Z" fill="#4395A1"/>
<path fill-rule="evenodd" clip-rule="evenodd" d="M94.734 63.9258C94.4323 65.6911 95.255 67.1811 93.1521 69.1196C93.331 67.479 92.5423 65.3616 94.734 63.9258Z" fill="#4395A1"/>
<path fill-rule="evenodd" clip-rule="evenodd" d="M105.559 36.1154C106.11 35.8867 106.61 35.6265 107.068 35.3348C106.834 36.9628 104.656 37.2576 102.717 37.8221C102.926 36.7038 104.054 36.6755 105.559 36.1154Z" fill="#4395A1"/>
<path fill-rule="evenodd" clip-rule="evenodd" d="M110.992 33.0971C110.381 33.586 109.608 35.3846 108.046 34.6273C108.905 34.364 109.538 31.8226 110.992 33.0971Z" fill="#4395A1"/>
<path fill-rule="evenodd" clip-rule="evenodd" d="M101.749 40.1747C103.113 40.0601 104.456 39.873 105.777 39.5296C105.663 41.1966 103.131 40.9622 101.323 41.3194C101.458 40.9654 101.604 40.5804 101.749 40.1747Z" fill="#4395A1"/>
<path fill-rule="evenodd" clip-rule="evenodd" d="M113.333 36.4485C112.418 37.219 111.439 37.895 110.399 38.4885C110.151 37.1327 111.854 36.7327 113.053 35.4802C113.178 35.7927 113.271 36.1153 113.333 36.4485" fill="#4395A1"/>
<path fill-rule="evenodd" clip-rule="evenodd" d="M100.625 43.2764C102.113 42.8291 103.696 42.5267 104.996 42.2042C104.701 43.4957 101.874 43.2764 100.396 43.9423C100.469 43.713 100.542 43.495 100.625 43.2764Z" fill="#4395A1"/>
<path fill-rule="evenodd" clip-rule="evenodd" d="M113.146 40.435C113.179 41.8934 111.293 41.5192 109.701 41.9231C109.765 40.6442 111.524 40.7374 113.146 40.435Z" fill="#4395A1"/>
<path fill-rule="evenodd" clip-rule="evenodd" d="M103.664 47.4917C103.444 48.8865 100.1 48.3466 98.7622 49.313C98.8964 47.5276 101.74 47.859 103.664 47.4917Z" fill="#4395A1"/>
<path fill-rule="evenodd" clip-rule="evenodd" d="M111.054 46.1176C110.645 47.4186 109.631 47.5849 107.359 47.9081C107.611 46.5347 109.438 46.7325 111.054 46.1176Z" fill="#4395A1"/>
<path fill-rule="evenodd" clip-rule="evenodd" d="M97.7735 53.4035C99.3037 52.6122 101.041 52.0087 102.811 51.6546C102.752 53.4262 99.2023 52.9833 97.5964 54.1941C97.6487 53.9239 97.701 53.6637 97.7735 53.4035Z" fill="#4395A1"/>
<path fill-rule="evenodd" clip-rule="evenodd" d="M107.984 51.3323C107.592 52.4442 106.49 52.506 104.789 52.4247C105.148 51.2926 106.255 51.0746 107.984 51.3323Z" fill="#4395A1"/>
<path fill-rule="evenodd" clip-rule="evenodd" d="M103.008 57.5458C102.078 59.2361 98.8643 59.2972 96.6807 59.398C96.5635 57.0853 101.031 58.5456 103.008 57.5458Z" fill="#4395A1"/>
<path fill-rule="evenodd" clip-rule="evenodd" d="M102.197 55.0477C102.396 57.1066 99.0665 56.2378 97.128 56.6196C97.0385 54.7434 100.423 55.4919 102.197 55.0477Z" fill="#4395A1"/>
<path fill-rule="evenodd" clip-rule="evenodd" d="M105.288 54.8502C104.853 55.6717 103.759 56.3572 102.113 56.2444C102.536 55.3252 103.545 54.6467 105.288 54.8502Z" fill="#4395A1"/>
<path fill-rule="evenodd" clip-rule="evenodd" d="M101.156 62.6354C100.915 64.8794 97.1901 66.307 96.0561 68.8384C95.2491 65.9114 98.7733 64.1669 101.156 62.6354Z" fill="#4395A1"/>
<path fill-rule="evenodd" clip-rule="evenodd" d="M100.989 70.1083C99.8332 71.7274 98.9991 72.7007 98.2941 75.1873C95.9802 73.3036 99.2278 70.5688 100.844 68.7557C100.865 69.2131 100.917 69.661 100.989 70.1083Z" fill="#4395A1"/>
<path fill-rule="evenodd" clip-rule="evenodd" d="M104.06 75.4895C103.904 76.374 103.8 77.2692 103.737 78.1644C101.161 78.2035 102.045 76.6537 102.874 74.5004C103.228 74.9168 103.623 75.2709 104.06 75.4895Z" fill="#4395A1"/>
<path fill-rule="evenodd" clip-rule="evenodd" d="M110.742 74.9171C110.326 75.4274 109.889 75.9055 109.42 76.322C108.917 74.982 107.441 74.0641 109.41 72.5231C109.701 73.3767 110.19 74.168 110.742 74.9171" fill="#4395A1"/>
<path fill-rule="evenodd" clip-rule="evenodd" d="M113.927 64.1446C114.052 64.1553 114.176 64.1553 114.302 64.1553C114.283 64.3418 114.281 64.2624 114.249 65.1022C113.209 64.6864 108.866 65.3378 109.274 63.1139C110.804 63.5719 112.324 64.0715 113.927 64.1446Z" fill="#4395A1"/>
<path fill-rule="evenodd" clip-rule="evenodd" d="M117.882 63.7699C117.608 65.0803 116.333 65.1685 114.437 65.1124C114.759 63.7264 116.216 64.1838 117.882 63.7699" fill="#4395A1"/>
<path fill-rule="evenodd" clip-rule="evenodd" d="M115.873 57.0774C115.644 58.8634 112.392 58.3235 110.471 58.5554C110.845 57.0982 114.099 57.6935 115.873 57.0774Z" fill="#4395A1"/>
<path fill-rule="evenodd" clip-rule="evenodd" d="M121.035 55.766C121.008 57.2415 119.116 57.2427 117.424 57.7228C117.516 56.3286 119.428 56.3374 121.035 55.766Z" fill="#4395A1"/>
<path fill-rule="evenodd" clip-rule="evenodd" d="M119.964 49.3026C117.894 51.0011 115.684 52.9352 112.48 53.5803C112.844 52.1294 115.197 51.9713 116.659 50.8392C117.981 50.5633 118.21 48.4603 119.964 49.3026" fill="#4395A1"/>
<path fill-rule="evenodd" clip-rule="evenodd" d="M114.926 60.3353C115.013 62.1504 112.219 60.8809 110.66 60.6793C107.996 59.5296 113.469 60.1665 114.926 60.3353Z" fill="#4395A1"/>
<path fill-rule="evenodd" clip-rule="evenodd" d="M119.547 60.1271C119.429 61.5345 117.775 61.4135 116.144 61.3864C116.226 59.9368 117.983 60.3803 119.547 60.1271Z" fill="#4395A1"/>
<path fill-rule="evenodd" clip-rule="evenodd" d="M116.331 70.1397C115.64 71.2888 115.864 73.7275 113.49 72.4291C114 71.3468 114.645 70.3167 115.384 69.3906C115.644 69.7233 115.947 69.9835 116.331 70.1397" fill="#4395A1"/>
<path fill-rule="evenodd" clip-rule="evenodd" d="M121.691 70.9515C121.119 71.4095 120.515 71.8259 119.86 72.1277C119.394 70.547 119.297 69.1383 121.202 67.8185C121.296 68.8504 121.042 69.1925 121.691 70.9515" fill="#4395A1"/>
<path fill-rule="evenodd" clip-rule="evenodd" d="M125.938 64.8105C125.657 66.2463 125.557 67.8037 123.647 69.099C123.938 68.0317 123.845 65.0071 125.938 64.8105Z" fill="#4395A1"/>
<path fill-rule="evenodd" clip-rule="evenodd" d="M130.382 65.8826C129.729 66.3986 129.88 68.5463 128.082 67.6939C128.553 67.4727 129.299 64.748 130.382 65.8826Z" fill="#4395A1"/>
<path fill-rule="evenodd" clip-rule="evenodd" d="M14.4466 88.2437C12.4981 88.347 12.631 92.0608 15.2732 91.2065C16.612 90.4619 16.3222 88.4049 14.4466 88.2437Z" fill="#4395A1"/>
<path fill-rule="evenodd" clip-rule="evenodd" d="M11.4243 92.2208C9.18402 92.4249 9.02211 95.9863 11.728 96.0966C13.9682 95.8931 14.1301 92.3311 11.4243 92.2208Z" fill="#4395A1"/>
<path fill-rule="evenodd" clip-rule="evenodd" d="M13.2322 97.6265C11.6308 97.7109 11.7303 100.773 13.917 100.065C15.0038 99.4497 14.7852 97.7537 13.2322 97.6265Z" fill="#4395A1"/>
<path fill-rule="evenodd" clip-rule="evenodd" d="M29.8764 106.49C28.1332 106.582 28.2415 109.915 30.6217 109.144C31.8048 108.474 31.5673 106.629 29.8764 106.49Z" fill="#4395A1"/>
<path fill-rule="evenodd" clip-rule="evenodd" d="M31.7267 111.297C29.6534 111.433 29.3787 114.926 32.0171 115.011C34.0898 114.875 34.3645 111.381 31.7267 111.297Z" fill="#4395A1"/>
<path fill-rule="evenodd" clip-rule="evenodd" d="M32.3219 118.335C31.2553 117.948 30.1125 120.094 31.8652 120.504C33.0332 120.583 33.5271 119.019 32.3219 118.335Z" fill="#4395A1"/>
<path fill-rule="evenodd" clip-rule="evenodd" d="M29.5177 123.223C27.3594 123.679 29.8334 126.774 30.5843 124.135C30.5339 123.789 30.2763 123.355 29.5177 123.223Z" fill="#4395A1"/>
<path fill-rule="evenodd" clip-rule="evenodd" d="M10.634 124.541C7.94519 125.109 11.0278 128.965 11.9633 125.677C11.9003 125.246 11.579 124.706 10.634 124.541Z" fill="#4395A1"/>
<path fill-rule="evenodd" clip-rule="evenodd" d="M9.69827 119.736C7.69613 119.736 7.9538 122.834 9.94082 122.834C11.943 122.834 11.6853 119.736 9.69827 119.736Z" fill="#4395A1"/>
<path fill-rule="evenodd" clip-rule="evenodd" d="M12.2007 116.938C10.702 116.938 10.8947 119.257 12.3822 119.257C13.8816 119.257 13.6882 116.938 12.2007 116.938Z" fill="#4395A1"/>
<path fill-rule="evenodd" clip-rule="evenodd" d="M114.52 89.2489C113.907 91.1767 111.973 86.5047 114.249 86.5431C114.291 87.4377 114.385 88.3436 114.52 89.2489Z" fill="#4395A1"/>
<path fill-rule="evenodd" clip-rule="evenodd" d="M117.264 90.4861C117.263 90.2058 117.284 86.0106 116.005 87.8294C116.421 88.4991 115.47 91.4733 117.216 91.3391C117.461 91.1715 117.592 91.0329 117.264 90.4861Z" fill="#4395A1"/>
<path fill-rule="evenodd" clip-rule="evenodd" d="M118.952 92.948C116.859 90.4312 118.371 99.7703 119 94.77C118.988 94.3479 118.977 93.9226 118.952 92.948Z" fill="#4395A1"/>
<path fill-rule="evenodd" clip-rule="evenodd" d="M115.168 91.716C113.782 89.4688 113.803 96.4045 115.339 95.4847C115.944 94.4641 115.155 93.3458 115.168 91.716Z" fill="#4395A1"/>
<path fill-rule="evenodd" clip-rule="evenodd" d="M117.019 96.525C114.723 94.1291 116.767 103.505 117.136 98.8674C117.068 98.2197 117.03 97.608 117.019 96.525Z" fill="#4395A1"/>
<path fill-rule="evenodd" clip-rule="evenodd" d="M114.813 99.65C113.196 97.2976 113.612 105.288 115.151 103.027C115.036 102.281 114.886 101.049 114.813 99.65Z" fill="#4395A1"/>
<path fill-rule="evenodd" clip-rule="evenodd" d="M118.131 99.9238C118.518 100.567 117.121 103.537 118.807 103.507C119.423 103.238 119.601 97.9708 118.131 99.9238Z" fill="#4395A1"/>
<path fill-rule="evenodd" clip-rule="evenodd" d="M116.046 104.152C115.835 104.596 115.969 109.852 117.005 106.374C117.11 105.67 117.384 102.563 116.046 104.152Z" fill="#4395A1"/>
<path fill-rule="evenodd" clip-rule="evenodd" d="M118.101 107.079C118.289 107.574 117.274 112.579 119.049 110.837C118.861 110.341 119.875 105.336 118.101 107.079Z" fill="#4395A1"/>
<path fill-rule="evenodd" clip-rule="evenodd" d="M113.837 107.795C114.055 108.431 113.296 111.247 114.356 111.248C115.498 111.219 115.052 105.6 113.837 107.795Z" fill="#4395A1"/>
<path fill-rule="evenodd" clip-rule="evenodd" d="M116.948 110.512C115.996 108.748 115.215 112.967 116.228 113.911C117.443 113.684 116.783 111.949 116.948 110.512Z" fill="#4395A1"/>
<path fill-rule="evenodd" clip-rule="evenodd" d="M118.762 114.22C116.896 111.765 117.788 120.563 118.777 116.007C118.792 115.594 118.795 115.177 118.762 114.22Z" fill="#4395A1"/>
<path fill-rule="evenodd" clip-rule="evenodd" d="M114.027 115.006C114.337 115.568 112.893 119.433 114.565 118.825C114.929 118.697 115.627 113.346 114.027 115.006Z" fill="#4395A1"/>
<path fill-rule="evenodd" clip-rule="evenodd" d="M116.706 117.538C115.563 115.924 115.272 119.863 115.822 120.964C117.264 121.083 116.525 119.644 116.706 117.538Z" fill="#4395A1"/>
<path fill-rule="evenodd" clip-rule="evenodd" d="M117.54 119.829C117.071 121.189 118.372 125.887 118.59 120.682C118.786 119.936 118.275 118.583 117.54 119.829Z" fill="#4395A1"/>
<path fill-rule="evenodd" clip-rule="evenodd" d="M114.338 121.636C113.012 120.036 113.22 123.833 113.25 125.239C114.762 125.95 114.273 123.139 114.338 121.636Z" fill="#4395A1"/>
<path fill-rule="evenodd" clip-rule="evenodd" d="M115.348 123.863C115.574 124.4 114.402 128.613 116.158 127.242C116.191 126.76 117.03 122.07 115.348 123.863Z" fill="#4395A1"/>
<path fill-rule="evenodd" clip-rule="evenodd" d="M117.48 125.554C117.448 126.289 117.257 129.494 118.518 127.749C118.549 127.014 118.741 123.809 117.48 125.554Z" fill="#4395A1"/>
<path fill-rule="evenodd" clip-rule="evenodd" d="M113.938 128.207L113.906 129.674C112.34 130.294 112.722 126.769 113.938 128.207Z" fill="#4395A1"/>
</svg>
