<svg width="208" height="127" viewBox="0 0 208 127" fill="none" xmlns="http://www.w3.org/2000/svg">
<g clip-path="url(#clip0_1_3475)">
<path fill-rule="evenodd" clip-rule="evenodd" d="M195.788 82.8521C194.416 81.3421 184.565 84.7431 186.656 81.9561C195.026 76.0081 193.855 60.4541 187.406 53.3561C181.934 46.6341 171.025 49.6981 165.873 50.0721C166.095 40.1051 155.607 32.3091 146.861 37.9431C145.254 39.4091 145.19 45.3691 144.46 37.3651C144.151 13.0801 117.955 -5.70386 95.2328 3.73814C85.6918 7.68514 76.9768 14.6131 75.9598 25.0611C55.6788 19.5391 45.0318 44.1031 61.5378 48.7991C51.6678 45.9311 36.5198 46.0071 28.9238 56.6621C22.0348 65.1191 22.4328 77.9211 28.6878 85.1751C19.8868 75.3881 3.55182 86.5161 1.70082 97.6641C-1.22518 116.57 24.8228 124.998 37.2118 113.547C36.1128 112.826 36.5578 111.635 39.9458 114.049C57.3708 125.331 82.0458 128.062 99.4368 114.585C101.017 115.017 97.3458 117.256 95.6388 118.415C114.394 129.52 136.831 126.434 150.905 110.893C151.658 110.85 151.696 110.928 150.926 112.74C146.008 121.999 156.14 124.393 159.134 117.364C160.088 115.312 157.287 112.1 159.603 110.586C160.618 116.07 165.91 113.572 170.881 113.898C192.656 114.106 220.979 92.5621 195.788 82.8521" fill="#FAD5E6"/>
<path fill-rule="evenodd" clip-rule="evenodd" d="M105.388 1.47223C92.7325 2.43523 77.4315 11.2582 75.9595 25.0602C54.4715 19.4482 47.0135 44.9142 59.4645 47.6282C57.9715 31.5772 64.2985 29.5012 77.9055 28.8272C77.3495 13.2392 98.9875 2.18223 111.653 1.50223C109.568 1.35823 107.465 1.37223 105.388 1.47223" fill="#FFE3F0"/>
<path fill-rule="evenodd" clip-rule="evenodd" d="M195.788 82.8522C192.967 81.7232 189.643 83.3902 186.084 82.9452C192.154 77.6162 194.076 68.2872 191.286 60.0032C187.33 46.6022 173.986 48.7122 165.823 50.1122C165.821 46.5642 164.179 41.5152 161.193 38.9902C144.769 28.8852 145.778 46.4832 144.632 39.8662C144.26 33.1682 143.434 26.8492 139.836 20.4672C143.205 31.9962 138.485 46.1732 126.551 51.2692C133.575 88.6092 76.8511 76.9172 75.4241 82.5882C75.5201 84.4712 76.5341 84.4552 79.3481 84.5352C111.151 89.7202 94.5281 115.344 73.2231 116.546C54.3971 118.618 43.3391 107.825 36.9561 112.492C54.9801 124.597 81.3731 128.584 99.9561 114.598C100.025 116.157 97.4741 116.897 95.6391 118.415C114.394 129.52 136.831 126.434 150.905 110.893C151.658 110.85 151.696 110.928 150.926 112.74C146.008 121.999 156.14 124.393 159.134 117.364C160.088 115.312 157.287 112.1 159.603 110.586C160.618 116.07 165.91 113.572 170.881 113.898C192.656 114.106 220.979 92.5622 195.788 82.8522" fill="#F5C6DB"/>
<path fill-rule="evenodd" clip-rule="evenodd" d="M37.2117 113.547C37.1617 113.407 36.8177 113.522 36.5477 112.878C34.5437 114.938 31.3837 116.718 27.9507 118.096C30.7717 117.556 34.7587 116.372 37.2117 113.547Z" fill="#FAD5E6"/>
<path fill-rule="evenodd" clip-rule="evenodd" d="M95.1283 42.3693C98.2163 44.1713 101.903 48.5093 106.516 49.1943C106.612 48.8653 106.776 48.8023 105.403 48.4063C99.2123 47.9163 88.3223 32.1803 95.7793 33.8113C102.741 48.0083 117.005 48.7793 112.846 54.9753C110.162 57.3073 112.501 53.2473 111.565 52.6413C110.115 55.1903 108.631 58.6613 104.452 57.0743C103.812 56.7673 103.024 55.9043 104.69 54.9183C105.539 53.9683 107.776 53.9813 107.603 52.5673C106.344 53.1453 104.103 53.9513 101.821 53.8883C100.85 54.1663 95.8543 51.6913 98.9653 50.6073C102.108 49.7183 104.482 52.0743 106.613 50.2663C102.696 51.0093 90.5223 46.6223 95.1283 42.3693" fill="#A5E2F2"/>
<path fill-rule="evenodd" clip-rule="evenodd" d="M94.1023 44.3272C93.0023 37.7112 104.123 51.3562 106.626 48.8332C100.989 47.2042 90.6963 39.4162 94.3723 33.1682C98.2333 35.3082 100.114 42.0852 104.888 45.1302C107.044 47.5562 112.788 48.4712 113.625 52.5102C114.378 54.2862 110.397 57.5212 111.642 53.8622C112.148 53.3672 112.063 51.6762 111.066 53.3752C110.132 56.4112 106.171 59.4582 103.603 56.0402C103.948 54.5332 107.744 54.1802 107.602 52.5672C105.387 53.7402 98.5533 55.3152 97.9843 51.0962C101.032 49.2062 103.219 51.8102 106.846 50.5632C102.874 49.3012 96.1983 50.1832 94.1023 44.3272ZM94.6913 46.6132C95.9583 48.3432 97.6373 49.3632 99.4993 49.9672C93.7743 51.4082 100.808 56.0602 104.729 54.3612C99.0023 57.9562 109.606 60.0892 110.958 55.3442C112.644 57.7632 115.636 52.8682 113.609 50.4162C110.676 47.6212 107.079 46.6092 103.708 43.0642C100.125 40.0602 99.0373 36.4402 95.6013 32.7322C90.4983 31.1812 93.5513 39.8262 95.7503 42.1502C93.2423 40.7022 92.7173 44.8322 94.6913 46.6132" fill="#6D6E71"/>
<path fill-rule="evenodd" clip-rule="evenodd" d="M106.64 48.8424C101.457 48.5534 88.1824 35.1274 95.3584 33.4254C96.8984 40.1384 100.517 45.7244 106.64 48.8424Z" fill="#92CCDB"/>
<path fill-rule="evenodd" clip-rule="evenodd" d="M111.641 53.8654C111.73 54.4844 112.263 54.8494 113.331 54.0314C113.387 55.0514 110.306 56.7644 111.641 53.8654Z" fill="#A5E2F2"/>
<path fill-rule="evenodd" clip-rule="evenodd" d="M103.604 56.0396C104.793 54.4956 105.177 54.7796 107.516 53.2046C106.501 55.8286 108.761 57.0696 110.67 54.1266C110.154 56.5376 105.587 59.2796 103.604 56.0396" fill="#A5E2F2"/>
<path fill-rule="evenodd" clip-rule="evenodd" d="M95.1283 42.3693C97.2093 43.1993 99.7493 46.5983 102.784 47.8613C97.7593 48.1563 103.428 50.3853 105.546 50.1923C101.913 50.9513 90.5833 46.1023 95.1283 42.3693Z" fill="#A5E2F2"/>
<path fill-rule="evenodd" clip-rule="evenodd" d="M98.1189 52.1447C97.7249 49.0747 102.665 51.1687 105.282 50.8117C103.15 52.3867 105.053 53.7487 107.544 52.5937C105.061 53.6627 100.81 55.0427 98.1189 52.1447Z" fill="#A5E2F2"/>
<path fill-rule="evenodd" clip-rule="evenodd" d="M111.23 53.0757C111.255 53.0157 111.293 52.9747 111.336 52.9487C111.283 53.0257 111.232 53.1047 111.183 53.1837C111.198 53.1477 111.215 53.1107 111.23 53.0757" fill="#B5DBEA"/>
<path fill-rule="evenodd" clip-rule="evenodd" d="M103.593 46.2198C104.499 47.1678 112.865 56.4888 111.545 50.0978C105.926 46.7538 101.471 43.2928 97.5216 37.7468C97.5026 40.3288 101.269 44.0848 103.593 46.2198Z" fill="#C5E9F7"/>
<path fill-rule="evenodd" clip-rule="evenodd" d="M91.4052 36.7238C91.3472 36.2308 91.2782 35.8018 91.4722 34.1888C91.5682 34.1748 91.7252 33.6808 91.9542 33.0148C92.1422 33.3308 92.0182 33.0138 91.8342 34.2518C91.6292 36.2958 92.1292 37.6498 93.1172 40.2368C92.3782 40.6538 91.6752 38.3268 91.4052 36.7238" fill="#6D6E71"/>
<path fill-rule="evenodd" clip-rule="evenodd" d="M103.78 58.0446C104.45 59.2186 107.323 58.5846 108.451 59.2116C107.752 60.2006 102.404 59.5156 103.78 58.0446Z" fill="#6D6E71"/>
<path fill-rule="evenodd" clip-rule="evenodd" d="M182.572 73.9245C179.093 67.2585 164.771 70.9355 172.903 77.8285C171.681 70.1965 181.844 73.4655 179.037 80.8005C164.08 95.4065 158.417 69.7995 154.381 59.6895C156.747 69.7445 152.26 81.9345 142.349 87.0405C159.709 98.7455 188.331 97.1455 182.572 73.9245" fill="#FFB998"/>
<path fill-rule="evenodd" clip-rule="evenodd" d="M63.6849 32.4303C63.3579 31.7453 62.0759 31.9953 61.6279 31.4483C61.1559 29.7783 61.8139 26.8993 58.5549 30.1023C58.9549 31.8993 54.5079 25.6983 56.5289 32.0343C55.9519 33.3113 53.8519 35.2373 58.2019 35.0423C57.5409 33.9893 61.6169 38.9973 61.3089 34.1753C61.2499 33.7203 63.8129 33.7833 63.6849 32.4303" fill="#E6E7E8"/>
<path fill-rule="evenodd" clip-rule="evenodd" d="M61.3226 33.9566C61.0606 37.6886 60.1166 36.4416 58.2016 35.0426C56.7596 34.8066 53.8316 35.3706 56.5296 32.0336C56.2386 28.8816 55.0516 28.9296 58.5546 30.1026C60.6396 27.9176 61.6816 28.5066 61.6276 31.4476C63.9136 32.0196 64.3756 33.6096 61.3226 33.9566ZM64.2346 32.7916C64.2056 31.9136 63.4076 31.4396 61.6986 31.1176C62.5166 25.3896 60.0596 29.9616 57.6096 29.2586C56.9476 29.0526 56.4096 28.0606 55.4726 29.1606C54.6576 30.1926 57.2256 30.9896 55.7596 32.5366C55.3646 33.2006 53.6966 35.1536 55.8806 35.4936C57.3486 34.1366 62.0996 40.2076 61.7836 34.2346C62.7806 34.2726 64.1086 33.8416 64.2346 32.7916Z" fill="#58595B"/>
<path fill-rule="evenodd" clip-rule="evenodd" d="M63.6849 32.4302C63.3579 31.7452 62.0759 31.9952 61.6279 31.4482C61.1749 29.8772 61.7919 26.8862 58.6409 30.0452C59.2939 29.9152 60.5949 29.9632 60.7869 32.3202C60.7869 32.3202 64.0389 31.7562 63.7029 32.9462C63.7719 32.7922 63.7759 32.6212 63.6849 32.4302" fill="#E6E7E8"/>
<path fill-rule="evenodd" clip-rule="evenodd" d="M55.9548 34.2935C57.4688 31.7055 57.0838 31.2535 56.1578 29.1555C55.2608 29.5235 57.1318 31.6355 56.5288 32.0335C55.9518 33.3115 53.8508 35.2375 58.2018 35.0425C58.2018 35.0425 56.4088 34.5145 55.9548 34.2935" fill="#E6E7E8"/>
<path fill-rule="evenodd" clip-rule="evenodd" d="M99.2337 29.3683C98.3967 31.1133 99.4147 33.8003 101.76 31.3933C103.316 33.0403 105.333 33.1193 103.931 30.1013C105.152 28.5773 107.617 27.5393 103.116 26.8473C102.505 28.6443 103.294 23.8473 101.839 24.5003C101.355 24.8373 100.922 26.5943 100.35 26.4263C98.8406 26.8823 96.0636 26.0553 98.9916 29.5893C99.0456 29.6203 99.0027 29.1643 99.2337 29.3683" fill="#E6E7E8"/>
<path fill-rule="evenodd" clip-rule="evenodd" d="M99.1341 29.7813C99.2001 29.7373 99.2841 28.8833 98.9921 29.5893C98.6851 28.6593 95.6971 26.3233 100.35 26.4263C100.561 27.5633 101.744 23.0093 102.602 24.8303C102.651 24.6893 102.853 28.0473 103.116 26.8473C106.27 27.1803 106.15 28.4143 103.931 30.1013C105.047 33.4243 103.499 32.6513 101.577 31.5163C100.137 32.7633 98.2801 32.7803 99.1341 29.7813V29.7813ZM98.7881 32.6813C99.4131 33.2103 100.523 33.0973 101.757 31.8383C102.867 33.4983 106.387 33.8023 104.236 29.9563C109.27 27.0983 104.147 27.9533 103.206 25.5833C103.153 24.7463 102.904 23.0493 101.362 24.2743C101.843 27.2173 93.2841 24.6183 98.8001 29.9093C98.6421 30.4073 98.3771 31.4583 98.7881 32.6813Z" fill="#58595B"/>
<path fill-rule="evenodd" clip-rule="evenodd" d="M103.931 30.1016C105.152 28.5776 107.617 27.5386 103.116 26.8476C103.183 27.2186 102.853 27.6666 102.755 26.6016C102.146 27.8506 104.576 27.5386 104.765 28.6816C102.687 30.2926 102.562 28.8706 104.178 32.5926C104.77 32.0686 104.249 31.3246 103.931 30.1016" fill="#E6E7E8"/>
<path fill-rule="evenodd" clip-rule="evenodd" d="M100.838 27.2198C100.942 26.5228 101.579 25.6638 102.316 24.3188C101.55 24.0788 101.005 26.6308 100.35 26.4258C99.9773 26.7658 97.4373 26.1018 97.6723 27.6228C98.1003 27.0388 99.8293 27.4968 100.838 27.2198Z" fill="#E6E7E8"/>
<path fill-rule="evenodd" clip-rule="evenodd" d="M161.416 75.191C163.628 74.204 160.659 75.789 162.662 78.174C163.586 75.217 165.691 73.353 160.073 72.572C160.407 73.541 160.772 74.496 161.193 75.429C161.263 75.34 161.34 75.259 161.416 75.191" fill="#E6E7E8"/>
<path fill-rule="evenodd" clip-rule="evenodd" d="M158.985 67.314C160.36 67.383 158.045 68.091 159.485 70.771C161.068 68.371 162.96 65.872 157.677 65.006C157.974 65.848 158.245 66.7 158.507 67.553C158.647 67.438 158.808 67.347 158.985 67.314" fill="#E6E7E8"/>
<path fill-rule="evenodd" clip-rule="evenodd" d="M151.932 53.7359C154.798 51.8989 151.709 53.9929 153.342 56.4819C154.41 54.6069 155.982 49.9699 150.181 51.4169C150.829 52.1279 151.412 52.9059 151.932 53.7359" fill="#E6E7E8"/>
<path fill-rule="evenodd" clip-rule="evenodd" d="M154.621 58.5626C154.954 59.0926 155.267 59.6346 155.563 60.1856C158.09 58.9756 155.175 60.1366 157.056 63.3636C158.831 60.5886 162.007 57.0906 154 57.6516C154.216 57.9466 154.424 58.2486 154.621 58.5626" fill="#E6E7E8"/>
<path fill-rule="evenodd" clip-rule="evenodd" d="M122.002 43.5259C122.656 43.5719 121.965 46.9559 125.595 45.3179C122.89 40.5179 120.337 38.3619 118.522 47.2039C119.68 46.8299 120.845 46.4769 122.017 46.1589C121.617 45.3489 121.591 44.2549 122.002 43.5259" fill="#E6E7E8"/>
<path fill-rule="evenodd" clip-rule="evenodd" d="M130.04 44.7271C130.8 40.5171 129.705 45.0791 133.194 44.6791C132.19 37.6711 128.928 38.5171 126.707 45.1171C127.358 45.0111 128.573 44.8351 130.04 44.7271Z" fill="#E6E7E8"/>
<path fill-rule="evenodd" clip-rule="evenodd" d="M138.66 45.3594C140.442 42.4224 137.607 45.3654 141.404 46.0934C141.057 41.7554 140.03 39.1384 135.748 44.8734C136.727 44.9884 137.699 45.1514 138.66 45.3594Z" fill="#E6E7E8"/>
<path fill-rule="evenodd" clip-rule="evenodd" d="M146.132 47.8687C147.808 46.2167 145.912 48.4427 148.094 49.4957C149.218 46.1757 146.6 44.7057 142.98 46.6547C144.021 47.0627 145.042 47.5427 146.019 48.1077C146.051 48.0217 146.09 47.9397 146.132 47.8687" fill="#E6E7E8"/>
<path fill-rule="evenodd" clip-rule="evenodd" d="M175.587 74.1793C175.773 74.6233 175.02 75.0733 174.982 74.2203C174.847 74.2643 174.895 74.2133 174.363 74.4813C175.102 74.7603 174.983 75.3183 176.861 74.6523C176.476 74.3903 176.035 74.2153 175.587 74.1793Z" fill="#E6E7E8"/>
<path fill-rule="evenodd" clip-rule="evenodd" d="M173.611 75.2808C173.54 75.5248 173.461 75.2808 173.324 76.1348C173.59 76.1718 173.673 76.7148 173.142 76.6478C173.091 77.0288 173.102 77.4108 173.18 77.7578C173.232 77.0678 174.041 76.8848 173.611 75.2808" fill="#E6E7E8"/>
<path fill-rule="evenodd" clip-rule="evenodd" d="M166.31 80.7632C166.47 81.4932 165.828 82.3162 167.9 83.0162C167.746 81.0852 168.686 78.5122 163.733 79.6752C164.311 80.3892 164.955 81.0392 165.661 81.6082C165.779 81.2722 166.044 80.9602 166.31 80.7632" fill="#E6E7E8"/>
<path fill-rule="evenodd" clip-rule="evenodd" d="M178.319 76.9898C176.958 77.1528 178.875 76.8088 177.652 75.4198C177.589 76.1238 177.083 77.4088 178.525 78.4368C178.529 77.9468 178.474 77.4478 178.354 76.9668L178.319 76.9898Z" fill="#E6E7E8"/>
<path fill-rule="evenodd" clip-rule="evenodd" d="M171.935 83.7573C172.014 83.4353 172.539 82.5383 172.585 83.9433C173.296 83.8923 173.993 83.7544 174.668 83.5284C173.025 83.2424 172.849 80.5913 170.167 83.7773C170.438 83.6753 171.28 84.2833 171.935 83.7573Z" fill="#E6E7E8"/>
<path fill-rule="evenodd" clip-rule="evenodd" d="M75.6531 85.1168C76.6081 84.8028 78.5901 84.1358 80.6171 83.6798C78.9861 83.6648 76.6231 83.5708 74.2231 83.1058C74.5521 83.7568 74.6611 84.1658 75.6531 85.1168Z" fill="#FFB998"/>
<path fill-rule="evenodd" clip-rule="evenodd" d="M75.6531 85.1168C76.6081 84.8028 78.5901 84.1358 80.6171 83.6798C78.9861 83.6648 76.6231 83.5708 74.2231 83.1058C74.5521 83.7568 74.6611 84.1658 75.6531 85.1168Z" fill="#FFB998"/>
<path fill-rule="evenodd" clip-rule="evenodd" d="M77.013 32.0461C77.287 32.9251 78.936 36.1251 79.263 37.6271C77.879 36.7681 76.839 34.3711 77.013 32.0461ZM81.833 30.475C82.202 31.455 81.436 33.9421 82.16 36.2831C80.475 36.6921 80.944 31.991 81.833 30.475V30.475ZM86.305 33.2811C85.926 33.9311 84.856 35.4661 84.838 37.2551C83.552 37.7131 84.546 33.5881 86.305 33.2811V33.2811ZM69.345 54.159C77.782 49.305 89.14 49.369 97.684 55.785C101.057 48.019 93.595 36.775 85.458 37.695C85.489 37.292 85.509 36.9411 86.027 35.8241C90.564 30.8631 84.784 30.2001 83.319 36.9081C83.283 37.4451 82.645 37.7241 82.983 36.4201C88.161 21.4291 75.937 27.348 80.395 37.153C80.635 37.442 80.397 37.153 81.198 37.736C81.152 37.938 81.176 38.1121 80.375 37.5801C77.817 35.7551 79.609 32.0861 77.391 29.7591C74.483 31.3271 76.581 35.704 78.375 37.84C70.356 36.796 61.993 47.5081 66.084 56.4151C67.077 55.5311 68.228 54.8011 69.345 54.159" fill="#FFB998"/>
<path fill-rule="evenodd" clip-rule="evenodd" d="M94.7724 79.5563C106.105 76.6893 105.528 59.6213 94.4214 54.7143C80.7474 45.8203 54.0054 56.4833 63.0634 75.5533C71.2724 85.5633 84.0754 81.9313 94.7724 79.5563Z" fill="white"/>
<path fill-rule="evenodd" clip-rule="evenodd" d="M152.413 57.2726C142.774 36.7596 112.126 49.4616 98.2319 56.2706C104.86 62.1866 107.496 75.2806 97.1729 80.2426C100.057 81.0166 103.191 84.8456 106.319 85.9946C100.66 84.9266 93.1769 76.0366 87.2969 83.1566C99.3829 82.0276 112.012 102.046 111.959 76.5346C112.876 79.1416 113.434 83.7076 111.429 87.5856C113.318 88.4686 115.88 87.6476 118.886 87.7566C118.02 81.5576 126.793 72.9566 128.154 83.6486C128.502 83.6576 128.813 83.6656 129.9 83.2686C131.227 82.8186 134.6 80.7796 136.418 82.4556C134.35 82.7786 130.994 84.0546 128.124 84.0176C128.149 84.5616 126.487 87.8996 127.254 83.8716C126.278 84.7406 127.626 78.4956 123.887 79.8066C121.999 80.0926 117.433 87.9516 121.189 87.8466C126.04 87.0716 130.006 91.7836 134.845 88.5506C148.992 85.6906 157.512 71.3656 152.413 57.2726" fill="#FFB998"/>
<path fill-rule="evenodd" clip-rule="evenodd" d="M182.532 74.1177C179.053 67.4517 164.731 71.1287 172.863 78.0227C171.641 70.3897 181.804 73.6587 178.997 80.9937C164.04 95.5997 158.378 69.9927 154.341 59.8827C156.631 69.9187 152.387 81.8307 142.545 87.1197C158.357 98.7627 188.515 97.7217 182.532 74.1177" fill="#FFB998"/>
<path fill-rule="evenodd" clip-rule="evenodd" d="M98.7083 54.005C99.6933 53.788 100.847 53.492 102.647 52.904C102.958 48.906 102.83 48.569 103.088 49.64C102.287 51.553 101.901 52.012 102.829 48.57C102.682 53.456 105.089 52.308 108.297 50.84C102.716 42.82 100.792 43.438 98.7083 54.005" fill="#E6E7E8"/>
<path fill-rule="evenodd" clip-rule="evenodd" d="M95.3207 40.8859C95.5217 40.4009 95.6817 39.9819 96.5977 38.5779C96.6477 38.5429 96.9787 38.1169 97.4267 37.5309C97.6257 37.8649 97.5887 37.5859 96.9967 38.8499C96.6207 40.3749 95.0957 41.0059 97.2797 42.8889C104.911 28.4529 87.8127 36.7659 95.3207 40.8859" fill="#FFB998"/>
<path fill-rule="evenodd" clip-rule="evenodd" d="M66.5165 42.0202C66.4895 41.3822 64.9775 39.4682 64.9305 38.2502C65.5795 38.9612 66.7315 40.3182 67.3455 41.9242C75.3655 38.5002 57.0665 28.6402 65.5185 44.1442C65.4905 43.6182 66.9555 43.3602 66.5165 42.0202" fill="#FFB998"/>
<path fill-rule="evenodd" clip-rule="evenodd" d="M110.028 50.1735C110.97 49.8175 111.915 49.4735 112.862 49.1355C112.433 49.1135 112.315 44.2125 113.088 46.5365C113.687 48.6895 113.809 49.1245 116.974 47.7155C112.716 42.7845 111.041 40.0965 110.028 50.1735" fill="#E6E7E8"/>
<path fill-rule="evenodd" clip-rule="evenodd" d="M108.719 88.815C107.594 89.456 106.258 90.173 104.053 89.852C105.938 92.368 109.231 87.838 113.195 88.111C112.604 87.945 112.015 87.77 111.428 87.586C112.876 84.75 113.408 80.193 111.957 76.536C111.997 79.9 112.749 85.89 108.719 88.815Z" fill="#58595B"/>
<path fill-rule="evenodd" clip-rule="evenodd" d="M123.887 79.8052C126.783 78.2902 126.411 83.7402 127.254 83.8712C127.134 84.5682 126.679 87.9312 128.124 84.0172C136.683 83.6562 140.393 79.6322 128.153 83.6482C127.32 71.6492 115.174 84.6842 119.948 87.7842C119.725 84.8742 121.027 80.9512 123.887 79.8052Z" fill="#58595B"/>
<path fill-rule="evenodd" clip-rule="evenodd" d="M106.258 91.1285C107.387 90.8055 108.425 90.7875 110.078 89.3365C108.709 89.7265 107.378 90.2845 106.258 91.1285Z" fill="#58595B"/>
<path fill-rule="evenodd" clip-rule="evenodd" d="M133.961 89.2799C133.413 89.3789 132.82 89.5039 131.176 89.9399C131.487 90.0519 132.722 91.3449 133.961 89.2799Z" fill="#58595B"/>
<path fill-rule="evenodd" clip-rule="evenodd" d="M173.141 76.648C173.393 76.766 173.773 76.347 173.323 76.134C173.243 75.836 173.279 76.12 173.61 75.281C173.619 75.6 174.076 76.596 173.18 77.757C173.101 77.411 173.091 77.029 173.141 76.648V76.648ZM174.473 74.411C174.639 74.321 174.809 74.259 174.981 74.22C174.892 74.719 175.643 75.024 175.586 74.179C176.035 74.215 176.475 74.39 176.86 74.652C176.517 74.499 175.528 75.578 174.362 74.481C174.399 74.458 174.435 74.432 174.473 74.411ZM177.657 75.419C178.493 75.644 177.162 77.525 178.354 76.966C178.474 77.448 178.529 77.947 178.525 78.437C177.93 77.728 176.958 77.25 177.652 75.419H177.657ZM178.041 80.763C178.165 81.309 176.208 80.556 177.555 81.71C177.215 82.147 177.381 82.156 176.433 82.714C176.891 82.138 175.746 80.018 178.263 80.132C178.199 80.346 178.125 80.557 178.041 80.763V80.763ZM172.585 83.943C172.289 82.518 172.424 84.367 170.167 83.777C170.974 82.699 172.621 81.514 174.667 83.529C173.992 83.754 173.296 83.892 172.585 83.943ZM167.9 83.016C167.534 82.591 165.687 82.617 166.438 80.85C166.076 80.784 166.346 80.729 165.661 81.608C164.955 81.04 164.311 80.389 163.733 79.675C165.558 79.698 168.97 78.351 167.9 83.016V83.016ZM162.661 78.174C160.975 77.819 163.541 73.361 161.192 75.429C160.772 74.496 160.407 73.541 160.073 72.572C163.82 73.681 165.002 73.204 162.661 78.174ZM158.783 68.46C159.379 68.208 160.189 66.613 158.507 67.553C158.244 66.7 157.974 65.848 157.677 65.006C160.7 65.703 162.83 66.992 159.485 70.771C159.245 70.003 159.016 69.232 158.783 68.46V68.46ZM156.986 63.193C157.014 62.361 155.038 61.345 157.027 59.85C157.035 59.641 156.54 59.419 155.562 60.185C155.081 59.394 155.285 59.51 153.999 57.651C156.848 58.046 162.404 56.689 157.055 63.363C157.032 63.307 157.01 63.25 156.986 63.193V63.193ZM152.526 54.759C152.824 54.433 154.296 51.915 151.932 53.736C151.412 52.906 150.828 52.128 150.181 51.417C153.557 51.047 156.243 51.543 153.342 56.481C153.096 55.89 152.824 55.315 152.526 54.759V54.759ZM148.094 49.496C146.355 49.632 147.825 45.437 146.018 48.108C145.041 47.543 144.02 47.063 142.979 46.654C144.692 45.513 149.877 45.125 148.094 49.496V49.496ZM140.655 45.864C140.047 45.711 139.185 45.654 139.402 43.915C139.147 44.108 138.913 44.285 138.659 45.359C137.698 45.151 136.726 44.988 135.747 44.873C137.964 41.917 141.076 38.851 141.403 46.094C141.154 46.014 140.904 45.937 140.655 45.864V45.864ZM131.148 44.676C131.108 43.958 130.245 41.14 130.039 44.727C129.234 44.779 128.316 44.872 126.706 45.117C128.433 40.155 131.979 36.208 133.193 44.679C132.512 44.655 131.829 44.655 131.148 44.676ZM123.042 45.891C122.75 45.532 123.066 45.514 122.002 43.526C121.766 44.002 121.586 44.877 122.016 46.159C120.845 46.477 119.679 46.83 118.521 47.204C119.725 43.085 120.919 36.672 125.595 45.318C124.741 45.484 123.89 45.678 123.042 45.891V45.891ZM114.021 48.726C113.507 48.286 113.367 46.412 112.63 45.811C112.656 46.47 112.375 47.88 112.861 49.136C111.914 49.473 110.969 49.817 110.027 50.173C111.056 44.183 110.653 39.448 116.974 47.715C115.989 48.045 115.004 48.382 114.021 48.726V48.726ZM103.61 52.581C103.341 51.865 103.232 52.342 103.088 49.64C103.064 49.653 102.984 49.289 102.829 48.569C102.542 48.849 102.766 48.562 102.476 49.954C102.467 50.148 101.995 51.487 102.647 52.904C101.576 53.245 100.574 53.577 98.7084 54.005C100.093 46.978 101.646 40.632 108.297 50.84C106.742 51.452 105.182 52.043 103.61 52.581ZM98.5334 49.797C98.3494 51.78 97.8934 52.503 97.6834 55.785C88.9804 49.127 75.3094 48.773 66.0834 56.415C62.3114 48.669 69.5504 36.667 78.5094 37.752C77.4154 36.323 75.8564 35.34 76.0164 32.059C78.6144 25.77 77.6244 34.463 80.3734 37.58C80.8814 37.894 81.8714 38.167 80.3964 37.153C76.7114 34.991 82.6054 22.055 84.4974 29.6C84.0144 32.089 82.5414 34.509 83.1624 37.365C83.7424 36.186 84.7594 30.572 87.8904 32.483C88.0204 33.413 87.2164 34.07 86.0274 35.824C85.9684 36.306 84.8464 37.775 85.9134 37.787C88.7594 35.83 99.8784 44.817 98.5334 49.797V49.797ZM99.2704 58.094C106.225 66.328 103.333 80.851 90.4394 79.843C82.8434 84.689 70.0474 82.664 63.7874 76.443C51.3544 55.94 84.7024 43.469 99.2704 58.094V58.094ZM63.8584 40.398C59.1434 31.059 74.7354 37.343 67.3454 41.924C67.0004 41.111 65.9364 38.773 64.7654 38.383C65.1734 39.756 67.9174 42.063 65.5184 44.144C65.0634 42.86 64.4614 41.644 63.8584 40.398V40.398ZM94.0044 36.838C99.1584 31.755 100.611 37.342 97.2804 42.889C95.5554 41.757 96.2584 40.135 97.5984 37.657C96.9714 37.616 96.1764 39.24 95.3204 40.886C94.3324 39.614 91.1224 39.35 94.0044 36.838V36.838ZM183.055 73.061C180.318 68.642 169.405 67.368 169.796 74.844C170.722 78.374 175.227 79.761 174.078 74.851C174.67 75.576 176.003 75.803 177.492 75.339C176.371 76.868 176.161 77.301 178.402 79.59C175.933 78.983 175.948 80.572 175.498 83.205C172.678 81.46 173.045 80.719 168.69 83.341C168.906 79.262 168.942 77.649 163.285 79.092C161.788 77.666 169.917 72.853 159.832 71.856C161.014 68.96 165.235 65.926 157.329 64.06C160.226 60.716 162.867 55.754 153.703 57.256C157.118 50.976 155.552 50.958 148.766 50.044C150.558 45.889 146.677 43.248 142.097 46.3C141.607 38.173 139.51 39.885 134.084 44.723C133.056 37.217 128.41 36.346 125.929 45.2C123.045 36.528 118.324 39.77 117.912 47.355C106.57 33.377 111.75 53.147 108.224 49.816C106.529 46.774 102.791 40.739 99.5374 47.241C97.7584 43.401 97.5744 43.663 100.011 37.907C100.849 31.399 94.0964 33.709 92.0014 38.452C91.5744 38.032 90.0404 37.625 89.1854 36.898C90.1614 36.883 92.9674 36.992 91.4014 33.924C94.2514 35.624 93.4014 32.222 94.3914 31.441C98.6824 32.778 93.7874 27.604 98.8504 29.473C97.8614 28.642 95.2414 27.423 95.4314 30.488C93.9434 29.873 91.5954 30.305 92.8804 33.169C91.4584 32.347 89.2944 32.728 90.6334 35.664C90.6294 35.663 90.6274 35.663 90.6234 35.661C90.1464 35.834 88.3874 35.16 88.0174 36.625C87.5904 36.5 87.1574 36.398 86.7194 36.319C88.6574 35.207 89.9534 28.571 84.6774 32.102C87.4314 26.479 81.3984 23.871 79.0074 30.234C76.5034 26.083 73.3834 33.45 76.6624 36.458C75.3404 36.694 74.0714 37.164 72.8684 37.791C73.3734 36.34 76.0994 32.882 70.6034 34.653C72.2314 30.155 67.5834 33.39 67.5004 31.366C67.1894 29.083 65.4264 28.774 63.7154 30.78C63.7094 29.439 61.2474 29.651 62.0724 31.175C62.7474 29.266 62.5734 31.735 64.5404 31.551C64.8584 31.282 65.3734 30.16 66.2264 30.538C67.1454 32.322 65.6274 33.724 69.7964 32.928C69.3094 35.21 68.9124 36.725 72.8034 35.376C72.3544 36.092 71.5664 36.8 71.9034 38.333C71.4414 38.612 70.9894 38.91 70.5494 39.224C65.3894 31.08 58.4764 34.339 65.0874 44.834C61.3914 49.379 66.5424 53.246 64.6994 57.919C53.1274 73.919 64.6034 79.431 75.6534 85.117C75.2764 84.707 74.8214 84.399 74.2234 83.106C83.2764 86.401 92.5984 76.881 99.9714 82.902C101.895 83.942 103.901 86.258 106.355 85.818C103.267 85.374 101.309 81.589 97.1724 80.243C106.96 74.465 105.979 64.377 98.2324 56.272C159.352 25.653 164.032 72.956 141.658 86.806C151.305 84.462 156.984 69.309 154.38 59.689C157.745 65.659 158.082 74.548 162.982 80.527C166.865 86.374 178.502 87.048 179.45 78.389C180.015 73.135 171.682 71.002 172.902 77.829C164.845 71.627 178.788 66.877 182.571 73.925C188.129 98.509 158.405 97.4 144.021 87.962C160.577 103.385 192.22 94.102 183.055 73.061" fill="#58595B"/>
<path fill-rule="evenodd" clip-rule="evenodd" d="M82.1599 36.2839C81.5349 35.1749 82.0399 32.3529 81.8329 30.4749C81.2369 31.4329 80.2329 36.3729 82.1599 36.2839Z" fill="#58595B"/>
<path fill-rule="evenodd" clip-rule="evenodd" d="M79.4953 37.4239C78.5763 36.1949 77.7203 33.7359 77.0133 32.0459C76.8153 33.2599 77.5943 37.3549 79.4953 37.4239Z" fill="#58595B"/>
<path fill-rule="evenodd" clip-rule="evenodd" d="M84.8378 37.2555C84.8158 36.2505 85.6848 34.2795 86.3058 33.2815C85.3018 32.9625 83.0408 37.5285 84.8378 37.2555Z" fill="#58595B"/>
<path fill-rule="evenodd" clip-rule="evenodd" d="M71.9344 49.8683C70.1264 44.8153 72.3094 53.9383 68.3794 49.2013C68.4724 50.7103 71.5044 53.2273 71.9344 49.8683Z" fill="#58595B"/>
<path fill-rule="evenodd" clip-rule="evenodd" d="M93.8557 48.1236C93.6757 48.9256 91.4547 52.7466 91.2087 47.9836C90.9857 48.0726 91.1087 47.9506 90.9587 48.6966C90.0357 52.2436 94.8207 51.6466 93.8557 48.1236Z" fill="#58595B"/>
<path fill-rule="evenodd" clip-rule="evenodd" d="M111.428 87.5855C113.317 88.4685 115.88 87.6475 118.885 87.7565C118.86 85.9355 119.293 83.0285 120.896 80.9075C118.401 79.8575 116.073 78.8645 112.413 78.4635C113.121 80.8675 113.001 84.3655 111.428 87.5855" fill="#FFD1BD"/>
<path fill-rule="evenodd" clip-rule="evenodd" d="M182.572 73.9245C181.951 72.9505 181.117 72.1565 180.156 71.5575C186.172 80.4745 176.826 90.7715 166.795 89.4205C160.167 88.4735 156.043 83.9235 150.42 79.8945C148.811 82.2655 145.831 85.3465 142.349 87.0405C159.709 98.7455 188.331 97.1455 182.572 73.9245" fill="#FFD1BD"/>
<path fill-rule="evenodd" clip-rule="evenodd" d="M152.413 57.2725C150.578 51.8195 144.051 47.3945 137.693 46.4165C160.013 57.1655 149.371 83.0005 131.146 89.9255C134.593 89.0365 138.316 86.3625 142.579 86.2685C151.16 80.7325 156.747 67.7915 152.413 57.2725" fill="#F4A782"/>
<path fill-rule="evenodd" clip-rule="evenodd" d="M98.533 49.797C98.5539 43.564 92.2799 39.102 86.2529 37.08C91.1129 39.154 99.3069 46.702 90.9599 52.215C92.9619 52.937 95.1109 53.851 97.6839 55.785C97.5929 54.525 98.2169 52.177 98.533 49.797" fill="#F4A782"/>
<path fill-rule="evenodd" clip-rule="evenodd" d="M98.5936 39.6285C99.0526 38.5875 99.9336 35.7665 98.1286 34.7395C96.6676 42.1745 96.3366 41.8385 97.2806 42.8885C98.3876 35.5885 98.5996 38.0585 97.2806 42.8885C97.6556 41.7855 98.1236 40.7175 98.5936 39.6285Z" fill="#F4A782"/>
<path fill-rule="evenodd" clip-rule="evenodd" d="M68.8315 40.5675C71.0635 40.2225 67.7465 34.8355 63.8425 35.6505C65.1835 35.2935 68.3585 38.9825 68.8315 40.5675Z" fill="#F4A782"/>
<path fill-rule="evenodd" clip-rule="evenodd" d="M102.949 88.8873C103.547 89.7103 105.758 90.5343 107.917 89.2813C106.117 89.8163 102.913 88.1103 100.187 87.0283C101.121 87.6233 102.08 88.2083 102.949 88.8873Z" fill="#FFB998"/>
<path fill-rule="evenodd" clip-rule="evenodd" d="M167.782 92.5436C141.821 92.7736 164.142 71.9476 154.381 59.6896C156.747 69.7446 152.26 81.9346 142.349 87.0406C156.397 95.6226 181.098 100.638 183.731 78.7746C182.653 87.1306 176.073 92.0566 167.782 92.5436" fill="#F4A782"/>
<path fill-rule="evenodd" clip-rule="evenodd" d="M98.3949 55.065C102.328 62.241 109.695 73.386 97.1729 80.243C109.831 82.787 110.027 53.121 98.3949 55.065Z" fill="#F4A782"/>
<path fill-rule="evenodd" clip-rule="evenodd" d="M121.269 87.8503C121.233 85.7563 122.035 79.6423 126.236 80.4383C123.823 76.6043 116.915 87.0383 121.269 87.8503Z" fill="#FFB998"/>
<path fill-rule="evenodd" clip-rule="evenodd" d="M68.5808 54.6115C66.8858 50.0505 67.0578 44.3055 71.2278 40.2415C64.6508 45.0785 64.1228 48.2295 66.0838 56.4145C66.8518 55.7315 67.7138 55.1415 68.5808 54.6115" fill="#FFD1BD"/>
<path fill-rule="evenodd" clip-rule="evenodd" d="M63.3864 36.1163C62.3534 38.8583 64.3934 40.8773 65.5184 44.1443C66.2944 41.7343 63.3424 39.6503 63.3864 36.1163" fill="#FFD1BD"/>
<path fill-rule="evenodd" clip-rule="evenodd" d="M72.2532 50.4562C72.3662 49.6692 72.0312 49.0102 71.3912 48.6072C73.1422 50.3872 69.5192 53.4742 68.4242 49.3802C67.9352 50.7802 71.1162 54.3502 72.2532 50.4562" fill="#FFB998"/>
<path fill-rule="evenodd" clip-rule="evenodd" d="M94.2504 48.8263C94.2344 48.7223 94.1444 48.6573 94.0544 48.6483C94.6784 51.2123 89.8244 52.3133 91.0484 48.1803C88.5124 51.2153 94.3904 54.4143 94.2504 48.8263Z" fill="#FFB998"/>
<path fill-rule="evenodd" clip-rule="evenodd" d="M79.1971 32.4382C79.0541 33.6832 79.3541 35.7192 80.5731 37.3482C79.5131 34.6722 79.6992 30.2212 82.6302 27.2842C81.1462 27.7482 79.6021 30.1052 79.1971 32.4382" fill="#FFB998"/>
<path fill-rule="evenodd" clip-rule="evenodd" d="M77.3177 29.7784C75.3927 30.6454 75.5827 35.9434 78.3817 37.2474C77.5277 35.6054 75.2917 32.7694 77.3177 29.7784Z" fill="#FFB998"/>
<path fill-rule="evenodd" clip-rule="evenodd" d="M83.3187 36.9078C83.2827 37.0088 83.3427 36.9498 83.2197 37.3338C84.2877 36.2408 85.0167 31.7608 87.9227 32.8558C86.9497 30.4718 83.9787 33.4048 83.3187 36.9078Z" fill="#FFB998"/>
<path fill-rule="evenodd" clip-rule="evenodd" d="M98.2082 34.7736C96.6552 34.3576 94.0652 36.0566 92.6252 38.8506C94.3482 37.8046 95.7452 35.8926 98.7182 35.1456C98.5792 35.0016 98.4112 34.8756 98.2082 34.7736Z" fill="#FFD1BD"/>
<path fill-rule="evenodd" clip-rule="evenodd" d="M87.9784 83.2193C90.5434 82.0653 94.4484 80.1583 98.1194 81.8223C95.1154 80.4503 90.2774 79.2263 87.3044 83.1573C87.5284 83.1743 87.7534 83.1943 87.9784 83.2193" fill="#FFB998"/>
<path fill-rule="evenodd" clip-rule="evenodd" d="M172.903 77.8287C172.884 77.8027 172.896 77.8197 172.818 77.7827C172.846 77.7987 172.874 77.8137 172.903 77.8287Z" fill="#FFB998"/>
<path fill-rule="evenodd" clip-rule="evenodd" d="M171.253 72.0768C170.155 73.4588 170.11 76.3088 172.692 77.7128C168.627 73.3748 173.935 69.3328 179.617 71.2468C177.828 70.1548 173.269 69.5958 171.253 72.0768Z" fill="#FFB998"/>
<path fill-rule="evenodd" clip-rule="evenodd" d="M132.058 47.758C132.623 47.195 136.257 48.255 136.204 46.763C125.366 43.73 113.8 50.784 103.083 54.016C111.587 55.651 122.4 49.084 132.058 47.758" fill="#FFB998"/>
<path fill-rule="evenodd" clip-rule="evenodd" d="M113.195 43.3746C112.659 42.9686 112.122 43.0196 111.699 43.3436C114.461 42.6586 113.281 49.1806 116.974 47.7146C115.668 46.7776 114.986 45.2496 113.195 43.3746" fill="#D0D4D8"/>
<path fill-rule="evenodd" clip-rule="evenodd" d="M176.598 80.7897C176.973 80.4187 178.038 81.6727 178.262 80.1377C178.036 80.4917 177.786 79.6017 176.598 80.7897Z" fill="#E6E7E8"/>
<path fill-rule="evenodd" clip-rule="evenodd" d="M173.337 83.855C173.788 83.783 174.233 83.674 174.668 83.529C174.018 83.518 173.372 82.255 172.02 82.208C172.617 82.518 172.975 83.338 173.337 83.855" fill="#E6E7E8"/>
<path fill-rule="evenodd" clip-rule="evenodd" d="M167.865 80.2008C167.805 79.8418 167.588 79.6358 167.295 79.5258C168 80.4288 165.677 82.2528 167.901 83.0158C167.764 82.0908 168.018 81.1188 167.865 80.2008Z" fill="#D0D4D8"/>
<path fill-rule="evenodd" clip-rule="evenodd" d="M162.663 78.1431C162.496 76.9381 164.517 75.5961 163.85 73.8611C164.126 75.1371 160.892 76.0221 162.656 78.1651C162.658 78.1581 162.661 78.1501 162.663 78.1431" fill="#D0D4D8"/>
<path fill-rule="evenodd" clip-rule="evenodd" d="M160.255 69.4732C160.497 69.0502 161.667 67.9232 161.236 66.7202C161.407 68.4492 158.968 67.8502 159.485 70.7712C159.674 70.3132 159.938 69.8812 160.255 69.4732Z" fill="#D0D4D8"/>
<path fill-rule="evenodd" clip-rule="evenodd" d="M157.055 63.3633C157.434 62.2453 160.15 60.2833 158.938 58.1843C159.367 59.7013 156.264 61.1993 157.055 63.3633Z" fill="#D0D4D8"/>
<path fill-rule="evenodd" clip-rule="evenodd" d="M154.164 52.5881C154.359 54.0131 151.936 53.4711 153.342 56.4821C153.393 55.5151 155.567 53.3351 154.053 51.7251C154.156 51.9841 154.182 52.2691 154.164 52.5881Z" fill="#D0D4D8"/>
<path fill-rule="evenodd" clip-rule="evenodd" d="M147.566 46.9483C148.111 47.5793 146.389 48.3643 148.094 49.4953C148.135 48.5313 149.072 46.6503 147.225 45.9393C147.441 46.2193 147.527 46.6473 147.566 46.9483Z" fill="#D0D4D8"/>
<path fill-rule="evenodd" clip-rule="evenodd" d="M141.31 45.8218C140.696 45.0888 141.951 41.5188 139.346 41.5028C141.542 41.9618 138.467 45.7428 141.324 46.0698C141.318 45.9878 141.313 45.9048 141.31 45.8218Z" fill="#D0D4D8"/>
<path fill-rule="evenodd" clip-rule="evenodd" d="M131.271 40.6442C132.565 41.4032 130.633 44.5912 133.193 44.6792C132.534 43.6622 132.891 38.5952 129.82 39.8712C130.387 39.9622 131.029 40.3242 131.271 40.6442Z" fill="#E6E7E8"/>
<path fill-rule="evenodd" clip-rule="evenodd" d="M120.898 41.3298C123.21 40.9608 122.748 46.2598 125.562 45.3258C124.582 44.6268 123.501 39.8498 120.898 41.3298Z" fill="#D0D4D8"/>
<path fill-rule="evenodd" clip-rule="evenodd" d="M107.373 49.9709C106.195 49.1319 105.602 45.4759 102.935 45.2599C105.06 45.7239 104.632 52.4239 108.297 50.8399C107.944 50.5879 107.643 50.2929 107.373 49.9709" fill="#D0D4D8"/>
<path fill-rule="evenodd" clip-rule="evenodd" d="M102.294 46.027C100.223 46.56 100.041 49.653 99.6648 52.174C100.883 51.278 100.587 47.902 102.294 46.027Z" fill="#FDFDFD"/>
<path fill-rule="evenodd" clip-rule="evenodd" d="M111.387 47.0837C112.258 42.2487 110.984 44.5237 110.354 49.4207C110.892 49.6357 111.283 48.3517 111.387 47.0837Z" fill="#FDFDFD"/>
<path fill-rule="evenodd" clip-rule="evenodd" d="M120.86 42.1241C119.892 41.7071 118.39 49.5161 120.194 45.0431C120.24 44.8551 120.703 43.5951 120.86 42.1241Z" fill="#FDFDFD"/>
<path fill-rule="evenodd" clip-rule="evenodd" d="M130.86 39.9811C128.915 40.0911 127.78 42.6011 127.401 44.7291C128.499 43.5811 128.999 41.1061 130.86 39.9811Z" fill="#E6E7E8"/>
<path fill-rule="evenodd" clip-rule="evenodd" d="M140.321 42.0519C138.985 41.4119 137.781 43.1779 136.762 44.5249C137.229 44.6659 139.467 42.5719 140.321 42.0519Z" fill="#FDFDFD"/>
<path fill-rule="evenodd" clip-rule="evenodd" d="M147.949 46.964C147.523 46.196 145.023 45.793 144.093 46.777C144.989 46.477 146.514 46.973 147.949 46.964Z" fill="#FDFDFD"/>
<path fill-rule="evenodd" clip-rule="evenodd" d="M154.318 52.8267C154.207 51.7847 152.708 51.3407 151.227 51.7577C151.807 52.0697 153.269 52.1957 154.318 52.8267Z" fill="#FDFDFD"/>
<path fill-rule="evenodd" clip-rule="evenodd" d="M157.632 58.1369C155.525 57.8809 153.541 58.4659 157.971 58.8239C159.174 60.4569 159.654 58.8129 157.632 58.1369Z" fill="#FDFDFD"/>
<path fill-rule="evenodd" clip-rule="evenodd" d="M160.686 66.4039C160.278 66.1649 160.42 65.9819 158.259 65.4729C158.253 65.8719 158.155 65.6249 159.113 66.2179C159.173 66.4929 160.082 66.2529 160.405 67.4099C160.198 68.7299 161.539 68.4209 160.686 66.4039" fill="#FDFDFD"/>
<path fill-rule="evenodd" clip-rule="evenodd" d="M163.01 73.6188C162.53 73.5288 162.961 73.6248 160.552 73.2648C161.175 73.7428 162.586 74.4638 163.759 74.8608C163.824 74.5148 163.893 74.1988 163.01 73.6188Z" fill="#FDFDFD"/>
<path fill-rule="evenodd" clip-rule="evenodd" d="M167.003 79.6285C165.809 79.6585 162.772 80.6765 166.849 80.3345C167.411 80.9785 168.607 80.6535 167.003 79.6285Z" fill="#FDFDFD"/>
<path fill-rule="evenodd" clip-rule="evenodd" d="M172.681 82.5114C172.431 82.4804 172.217 82.3234 171.044 83.4724C171.181 83.6584 171.151 83.7684 171.877 83.1314C171.852 82.8684 172.911 83.1684 172.681 82.5114Z" fill="#E6E7E8"/>
<path fill-rule="evenodd" clip-rule="evenodd" d="M177.76 83.3229C170.914 89.4929 161.576 82.3779 158.07 75.0099C158.199 82.6859 174.23 92.4089 177.76 83.3229Z" fill="#FFB998"/>
<path fill-rule="evenodd" clip-rule="evenodd" d="M101.535 61.5606C101.112 60.7876 100.364 59.1346 98.9412 57.7916C105.059 79.7456 75.9812 85.7406 62.1812 74.0186C68.3652 84.1016 82.7171 83.9356 92.6021 79.4476C101.781 80.3256 105.121 69.1826 101.535 61.5606Z" fill="#D1D3D4"/>
<path fill-rule="evenodd" clip-rule="evenodd" d="M89.619 51.4161C84.789 48.9391 75.604 49.0961 70.499 53.5411C76.303 50.6651 83.512 49.6011 90.473 52.0541C90.164 51.8821 89.901 51.6241 89.619 51.4161Z" fill="#FFD1BD"/>
<path fill-rule="evenodd" clip-rule="evenodd" d="M132.198 34.7658C130.157 37.7008 128.64 43.1888 124.746 45.7528C124.52 45.4958 124.344 45.5078 125.423 44.5698C130.831 41.5168 134.077 22.6578 128.002 27.2788C128.401 40.5598 113.282 53.4238 122.89 53.5558C119.729 47.5178 124.091 55.1398 128.029 53.3308C129.933 52.8008 131.816 50.0428 127.945 50.0888C127.547 49.8438 125.066 50.3508 125.181 49.2698C127.89 49.1998 132.381 48.6778 133.604 44.8908C131.891 41.6088 128.583 47.0618 125.025 47.1338C127.905 45.2938 138.631 37.5938 132.198 34.7658" fill="#A5E2F2"/>
<path fill-rule="evenodd" clip-rule="evenodd" d="M132.919 40.5821C132.184 43.6051 125.424 45.5431 125.371 47.2761C126.829 47.1711 131.581 42.7291 133.575 44.2341C134.423 48.5301 126.789 48.5571 125.151 49.7731C126.285 50.0151 128.568 49.8561 130.27 50.7351C130.146 54.5831 124.002 53.9151 121.62 51.0061C121.105 50.9991 121.525 51.9281 122.813 52.8051C123.103 54.8491 119.322 53.3431 119.458 50.3451C120.187 46.4681 123.634 44.3491 125.075 40.1131C127.689 35.6821 126.246 30.5231 129.004 26.1031C138.049 33.0681 120.132 49.5791 125.716 44.9501C129.2 42.0501 129.608 38.7251 132.197 34.7661C134.838 33.8441 134.034 38.4671 132.919 40.5821V40.5821ZM133.428 34.0311C132.595 33.7011 131.982 34.1521 131.541 34.8291C132.285 32.7841 132.218 22.8681 127.709 26.2241C125.953 30.3831 126.927 34.2971 124.709 39.0101C123.952 44.0091 117.317 47.0471 119.479 52.7191C120.25 54.0031 122.717 55.5181 123.307 53.2021C125.666 56.7501 135.677 50.7991 128.543 49.6861C131.418 50.2071 138.034 42.3601 131.434 43.4981C133.315 41.8611 136.232 36.6841 133.428 34.0311Z" fill="#6D6E71"/>
<path fill-rule="evenodd" clip-rule="evenodd" d="M124.485 45.4864C129.701 43.0664 134.955 23.4644 128.068 27.0874C130.168 33.8794 128.332 40.1164 124.485 45.4864Z" fill="#92CCDB"/>
<path fill-rule="evenodd" clip-rule="evenodd" d="M122.066 52.1495C122.246 52.7485 121.917 53.3035 120.603 53.0115C120.982 53.9605 124.499 54.2155 122.066 52.1495Z" fill="#A5E2F2"/>
<path fill-rule="evenodd" clip-rule="evenodd" d="M130.27 50.7349C128.541 49.8349 128.313 50.2549 125.528 49.8119C127.427 51.6239 126.096 53.8949 123.056 51.9769C124.413 53.8369 129.885 54.5589 130.27 50.7349Z" fill="#92CCDB"/>
<path fill-rule="evenodd" clip-rule="evenodd" d="M132.198 34.7657C130.661 36.3947 129.789 40.5477 127.569 42.9727C132.214 41.1097 128.076 45.5317 126.046 46.2507C129.737 45.3777 137.864 36.2337 132.198 34.7657Z" fill="#92CCDB"/>
<path fill-rule="evenodd" clip-rule="evenodd" d="M133.604 44.8913C132.667 41.9413 129.069 45.9223 126.546 46.7013C129.143 47.2313 127.991 49.2673 125.246 49.2693C127.948 49.1933 132.384 48.6543 133.604 44.8913Z" fill="#92CCDB"/>
<path fill-rule="evenodd" clip-rule="evenodd" d="M122.106 51.2598C122.058 51.2168 122.006 51.1948 121.956 51.1898C122.037 51.2368 122.116 51.2868 122.195 51.3378C122.165 51.3118 122.134 51.2848 122.106 51.2598Z" fill="#B5DBEA"/>
<path fill-rule="evenodd" clip-rule="evenodd" d="M128.348 32.5933C128.451 28.5133 124.744 45.5373 121.029 47.7573C120.503 58.1763 129.534 35.6943 128.348 32.5933Z" fill="#CBEDFB"/>
<path fill-rule="evenodd" clip-rule="evenodd" d="M133.196 28.0768C131.885 25.1408 130.187 23.2978 132.699 28.2558C133.147 28.6738 132.506 31.6038 133.495 32.0078C133.673 31.2258 133.692 29.9138 133.196 28.0768" fill="#6D6E71"/>
<path fill-rule="evenodd" clip-rule="evenodd" d="M130.957 52.6271C130.844 53.9741 127.97 54.6101 127.212 55.6531C128.311 56.3151 132.711 53.3541 130.957 52.6271Z" fill="#6D6E71"/>
<path fill-rule="evenodd" clip-rule="evenodd" d="M131.666 48.4903C130.7 49.1013 129.641 49.4853 128.543 49.6863C135.251 50.5343 126.533 56.9363 123.307 53.2023C123.415 54.2753 122.067 54.8173 120.841 54.0103C124.038 57.5473 132.647 55.3923 131.638 50.1403C132.275 49.6983 134.765 47.7973 134.16 45.4863C133.784 46.7153 132.669 47.8553 131.666 48.4903Z" fill="#FFB998"/>
<path fill-rule="evenodd" clip-rule="evenodd" d="M106.817 92.528C98.5069 80.091 77.0989 79.347 67.0269 89.751C80.0379 81.44 96.5749 82.718 106.817 92.528Z" fill="#58595B"/>
<path fill-rule="evenodd" clip-rule="evenodd" d="M145.27 87.9704C140.674 82.3294 135.579 88.3894 131.125 89.4984C124.082 86.6334 110.916 85.5364 105.836 90.9204C125.765 82.4064 143.429 101.435 132.935 90.4254C138.094 86.0384 144.479 86.3414 147.275 93.2634C148.241 91.9694 146.596 89.6664 145.27 87.9704" fill="#58595B"/>
<path fill-rule="evenodd" clip-rule="evenodd" d="M203.62 99.272C196.793 110.986 162.357 119.535 159.041 110.683C157.628 112.679 160.151 115.394 158.83 118.319C152.351 126.297 146.718 118.174 151.558 111.398C137.608 124.182 114.455 130.691 95.6389 118.415C96.6749 117.784 98.3209 116.653 99.9589 115.108C100.067 114.786 99.9899 113.88 98.4939 115.41C75.5439 131.571 53.6799 120.507 37.2119 113.547C25.4659 124.77 0.0739346 116.905 1.55993 98.834C3.13093 86.617 18.6229 75.727 28.9099 84.885C21.0889 77.416 22.9919 63.571 29.7179 55.701C43.5779 38.6961 68.7449 53.12 59.0809 47.439C49.2459 45.715 54.0359 31.751 59.6559 27.28C64.4889 22.356 71.3049 25.578 76.2289 24.446C77.7039 10.129 94.5759 1.44605 108.081 1.39605C124.49 0.801047 138.477 13.322 143.106 28.604C147.084 51.252 142.119 37.267 151.108 36.134C159.551 34.797 166.393 42.574 165.791 50.64C192.074 41.691 199.603 70.143 186.085 82.945C196.414 81.314 210.499 85.929 203.62 99.272V99.272ZM198.141 81.553C195.926 80.888 192.454 80.06 189.302 81.386C203.817 64.089 186.22 38.949 166.375 49.678C168.967 38.376 154.382 29.885 145.962 37.3C142.691 -11.664 79.5989 -8.29795 75.1839 23.583C61.3539 18.062 47.5959 33.266 54.0269 45.761C32.1309 41.394 14.4079 64.6581 25.8029 82.3511C20.2669 77.8501 13.1409 80.756 7.97093 85.191C-8.46607 98.001 2.99194 119.062 19.9789 120.117C25.0269 120.418 30.1009 119.821 35.0959 117.29C37.5469 116.862 37.2079 113.2 39.6639 115.244C53.7799 124.416 71.7569 128.555 88.0129 121.858C94.8899 118.601 95.2429 119.1 101.712 123.15C117.569 130.507 136.727 126.926 149.134 114.376C144.575 125.245 161.545 125.52 160.911 115.59C194.188 119.841 223.177 93.266 198.141 81.553" fill="#58595B"/>
<path fill-rule="evenodd" clip-rule="evenodd" d="M52.2514 50.9874C53.8034 50.2544 57.5194 50.4734 59.3664 48.5704C33.2274 39.6144 14.0004 68.3024 28.9114 84.8854C13.6204 72.1984 -8.61156 98.2844 6.83344 112.652C0.991439 91.5294 16.3984 83.9444 33.0134 87.1304C26.3944 68.3864 35.2814 55.7754 52.2514 50.9874" fill="#FFE3F0"/>
</g>
<defs>
<clipPath id="clip0_1_3475">
<rect width="208" height="127" fill="white"/>
</clipPath>
</defs>
</svg>
