<svg width="205" height="196" viewBox="0 0 205 196" fill="none" xmlns="http://www.w3.org/2000/svg">
<g clip-path="url(#clip0_1_688)">
<path fill-rule="evenodd" clip-rule="evenodd" d="M137.194 0.123413C136.146 10.0585 137.503 7.25879 142.565 11.7822C132.793 13.8562 135.874 14.282 133.136 20.4938C128.145 11.8408 128.692 14.9032 121.938 14.219C128.624 6.79763 125.882 8.26427 124.446 1.62911C133.57 5.69576 131.328 3.53927 137.194 0.123413" fill="#F4B955"/>
<path fill-rule="evenodd" clip-rule="evenodd" d="M108.879 100.104C108.552 100.734 105.882 100.099 106.123 100.37C104.579 104.402 103.804 101.314 103.881 99.9543C99.2471 99.7659 102.486 98.2268 103.455 97.5893C102.389 93.4268 104.492 95.6873 105.514 96.609C109.784 93.4949 107.05 97.7776 107.254 98.2652C107.636 98.5273 108.927 99.4604 108.879 100.104" fill="#FFDA76"/>
<path fill-rule="evenodd" clip-rule="evenodd" d="M85.1804 40.6191C85.3013 41.3184 82.7902 42.4272 83.1467 42.4971C84.3544 46.6431 81.8697 44.6511 81.1093 43.5221C77.2493 46.1662 78.9831 42.9885 79.3403 41.8954C75.9742 39.2255 79.0165 39.7535 80.3873 39.87C81.905 34.8086 82.317 39.8725 82.7744 40.1371C83.2375 40.1144 84.8301 40.0773 85.1804 40.6191" fill="#FFDA76"/>
<path fill-rule="evenodd" clip-rule="evenodd" d="M98.2744 5.47191C98.3953 6.17121 95.8841 7.27938 96.2407 7.34994C97.4484 11.4953 94.9637 9.50391 94.2033 8.37495C90.3433 11.0191 92.0771 7.84134 92.4343 6.74829C89.0682 4.07835 92.1104 4.60629 93.4813 4.72284C94.999 -0.338575 95.411 4.72536 95.8684 4.98996C96.3314 4.96728 97.9241 4.93011 98.2744 5.47191" fill="#FFDA76"/>
<path fill-rule="evenodd" clip-rule="evenodd" d="M205.044 96.0747C205.044 96.7841 202.381 97.4507 202.72 97.5804C203.208 101.871 201.097 99.4862 200.539 98.2445C196.287 100.194 198.535 97.3574 199.072 96.3412C196.209 93.1383 199.116 94.1747 200.447 94.5224C202.802 89.7917 202.348 94.8544 202.754 95.1915C203.214 95.2482 204.791 95.4819 205.044 96.0747" fill="#F4B955"/>
<path fill-rule="evenodd" clip-rule="evenodd" d="M180.585 146.531C181.125 146.517 181.53 148.568 181.753 148.294C184.919 147.988 183.065 149.572 182.175 149.952C183.655 153.529 181.241 151.058 180.682 151.076C178.273 153.144 179.115 150.927 179.366 149.982C176.615 148.728 178.527 148.309 179.885 148.326C179.885 148.323 180.061 146.827 180.585 146.531Z" fill="#F4B955"/>
<path fill-rule="evenodd" clip-rule="evenodd" d="M171.944 20.132C172.576 20.4539 171.958 23.1289 172.229 22.8857C176.272 24.4022 173.189 25.1985 171.828 25.1311C171.672 29.766 170.11 26.5379 169.467 25.5727C165.312 26.6676 167.557 24.5483 168.472 23.5208C165.329 19.2727 169.63 21.9779 170.117 21.7694C170.376 21.3857 171.301 20.0879 171.944 20.132Z" fill="#FFDA76"/>
<path fill-rule="evenodd" clip-rule="evenodd" d="M17.6835 128.334C17.4429 134.06 9.30327 133.783 9.12939 128.334C9.37068 122.607 17.5103 122.884 17.6835 128.334Z" fill="#FFE8AC"/>
<path fill-rule="evenodd" clip-rule="evenodd" d="M21.6552 139.331C21.5859 141.97 17.5993 142.187 17.3782 139.331C17.4475 136.693 21.4341 136.476 21.6552 139.331Z" fill="#AB8A55"/>
<path fill-rule="evenodd" clip-rule="evenodd" d="M17.6836 133.833C17.6143 136.471 13.6276 136.688 13.4065 133.832C13.4764 131.194 17.4631 130.977 17.6836 133.833Z" fill="#F4D189"/>
<path fill-rule="evenodd" clip-rule="evenodd" d="M19.8222 128.334C19.7529 130.973 15.7663 131.189 15.5452 128.334C15.6151 125.695 19.6011 125.479 19.8222 128.334Z" fill="#F5F5F7"/>
<path fill-rule="evenodd" clip-rule="evenodd" d="M11.2683 130.472C11.199 133.111 7.21234 133.328 6.99121 130.472C7.06114 127.834 11.0478 127.617 11.2683 130.472Z" fill="#F2F0C4"/>
<path fill-rule="evenodd" clip-rule="evenodd" d="M77.6314 3.67456C77.6314 3.67456 -17.3978 16.2998 4.13054 123.221C24.9716 226.732 145.764 200.948 178.625 158.23C178.625 158.23 91.6275 174.863 62.9814 124.675C39.9139 84.2616 46.2108 36.1164 77.6314 3.67456" fill="#F4B955"/>
<path fill-rule="evenodd" clip-rule="evenodd" d="M79.4368 76.8604C79.7953 77.4727 77.8322 79.3917 78.1907 79.3325C80.7756 82.7912 77.7509 81.797 76.6421 81.0064C73.9546 84.8355 74.4636 81.2521 74.4151 80.1036C70.327 78.7831 73.3605 78.2111 74.6854 77.8394C74.3313 72.5663 76.4935 77.1659 77.0145 77.2528C77.4404 77.0695 78.919 76.4761 79.4368 76.8604" fill="#F4B955"/>
<path fill-rule="evenodd" clip-rule="evenodd" d="M7.67166 93.7261C7.70505 93.5245 7.64772 93.7267 7.81845 93.2681C8.0295 94.4657 8.09628 94.1557 8.1051 95.6362C8.03202 95.5304 7.69497 94.7095 7.67166 93.7261ZM8.3634 90.2693C4.09956 89.507 6.18612 101.153 9.09987 100.553C10.5306 98.3553 11.9292 89.9587 8.3634 90.2693" fill="#FFDA76"/>
<path fill-rule="evenodd" clip-rule="evenodd" d="M11.5133 78.8316C11.1429 78.2426 11.1088 77.6006 11.9871 76.8358C12.062 77.9156 12.1118 78.6842 11.645 80.2548C11.5146 79.8213 11.4931 79.3564 11.5133 78.8316ZM13.7164 76.3469C8.31732 67.3247 7.44792 90.045 13.1387 81.5009C13.6874 80.2787 14.3773 78.0907 13.7164 76.3469Z" fill="#FFDA76"/>
<path fill-rule="evenodd" clip-rule="evenodd" d="M16.0274 61.8083C15.7489 61.4366 15.7565 59.81 15.9877 59.054C16.1439 59.3721 15.5177 61.3075 16.9308 61.4562C16.665 61.8272 16.3336 62.124 16.0274 61.8083ZM17.6446 57.8973C17.7977 58.2123 17.7271 58.7661 17.5293 59.2159C17.5388 58.7742 17.581 58.337 17.6446 57.8973ZM18.7799 55.9966C15.4516 53.4696 13.1861 60.4337 14.9123 63.137C17.9968 66.0306 20.8085 57.971 18.7799 55.9966Z" fill="#FFDA76"/>
<path fill-rule="evenodd" clip-rule="evenodd" d="M24.766 44.2357C24.8082 44.15 24.7503 44.0587 25.0111 44.0927C25.1585 44.2508 24.6558 44.8348 24.766 44.2357ZM27.5242 41.601C27.4171 42.0534 27.0479 42.6443 26.5886 43.1729C26.7001 42.4383 27.0466 41.717 27.5141 41.1411C27.5708 41.2104 27.5828 41.3528 27.5242 41.601V41.601ZM29.2598 38.5392C26.0916 38.5714 19.726 46.7469 25.4704 45.8832C27.8997 45.6551 32.2 39.5435 29.2598 38.5392Z" fill="#FFDA76"/>
<path fill-rule="evenodd" clip-rule="evenodd" d="M38.8689 31.5185C37.2063 31.511 39.3074 27.4557 41.3832 27.3404C40.6732 28.3654 40.3066 30.52 38.8689 31.5185ZM43.0748 26.6304C42.5701 24.2282 38.6182 26.0079 37.6612 28.1373C34.074 37.1028 43.2688 32.6204 43.0748 26.6304Z" fill="#FFDA76"/>
<path fill-rule="evenodd" clip-rule="evenodd" d="M23.8807 74.5339C23.8977 74.2182 23.9009 73.8982 23.8977 73.5782C24.3142 73.5108 23.5714 76.0824 23.8807 74.5339ZM25.738 71.6233C22.5187 66.5795 20.2129 75.4102 21.987 78.0146C25.0569 81.4828 27.0837 74.1615 25.738 71.6233Z" fill="#FFDA76"/>
<path fill-rule="evenodd" clip-rule="evenodd" d="M17.5085 102.403C17.0978 102.166 16.5957 97.1511 17.598 98.9434C17.8683 99.8727 16.5465 100.562 17.5413 101.94C18.0856 101.884 18.1644 103.65 17.5085 102.403ZM18.1083 96.9992C17.9042 96.8512 17.695 96.7674 17.4871 96.7365C17.707 96.7327 17.8607 96.3667 18.1083 96.9992ZM18.4554 95.0576C13.8155 93.2192 15.0074 102.629 17.1022 104.571C20.8532 105.998 20.7102 96.4562 18.4554 95.0576Z" fill="#FFDA76"/>
<path fill-rule="evenodd" clip-rule="evenodd" d="M13.9955 122.553C13.9974 122.329 14.0106 122.106 14.0421 121.884C14.2129 122.1 14.3181 122.34 14.3647 122.602C14.2456 122.556 14.1202 122.539 13.9955 122.553ZM13.872 119.02C10.2073 119.476 12.0154 127.198 14.9758 127.422C17.8813 126.675 16.8784 118.713 13.872 119.02Z" fill="#FFDA76"/>
<path fill-rule="evenodd" clip-rule="evenodd" d="M22.8229 150.305C22.3983 149.896 22.1407 149.336 22.1035 148.683C22.5451 148.748 22.7423 149.544 22.8229 150.305ZM22.9282 147.228C12.4015 142.69 25.1785 160.441 23.1638 153.848C25.7562 153.054 24.7879 148.895 22.9282 147.228Z" fill="#FFDA76"/>
<path fill-rule="evenodd" clip-rule="evenodd" d="M25.1515 136.036C25.0879 135.928 25.0331 135.814 24.9789 135.702C25.2328 135.903 25.3298 136.351 26.1085 136.719C25.7135 136.947 25.5995 136.829 25.1515 136.036V136.036ZM26.6415 131.426C20.5236 125.588 21.7143 137.659 26.1873 138.767C30.0132 139.254 27.9298 132.83 26.6415 131.426Z" fill="#FFDA76"/>
<path fill-rule="evenodd" clip-rule="evenodd" d="M38.9675 155.374C38.2109 155.939 37.2022 155.313 36.5376 154.213C37.085 154.095 37.3837 153.642 37.2558 152.485C38.0408 152.932 39.394 153.902 38.9675 155.374ZM39.8287 152.762C37.8196 149.903 32.2712 150.351 35.1774 154.998C37.4782 159.093 42.3519 156.578 39.8287 152.762Z" fill="#FFDA76"/>
<path fill-rule="evenodd" clip-rule="evenodd" d="M52.3052 177.667C52.5288 177.881 52.3568 177.541 53.2892 178.535C52.9144 178.363 52.714 178.295 52.3052 177.667ZM55.5938 178.166C55.2032 175.849 49.8828 173.462 49.3252 176.887C49.3083 181.537 55.2145 183.548 55.5938 178.166Z" fill="#FFDA76"/>
<path fill-rule="evenodd" clip-rule="evenodd" d="M52.4156 168.535C51.894 168.554 51.8228 168.351 51.126 167.724C51.4895 167.766 51.8606 167.712 52.1964 167.545C52.2222 167.624 52.4182 167.996 52.4156 168.535V168.535ZM53.7317 167.313C53.3342 164.015 49.512 161.234 47.2219 164.874C47.8311 167.418 54.6005 173.719 53.7317 167.313Z" fill="#FFDA76"/>
<path fill-rule="evenodd" clip-rule="evenodd" d="M64.7264 174.591C64.8675 174.789 65.2581 174.079 65.7766 175.036C65.2796 174.893 65.5845 175.036 64.7264 174.591ZM68.199 172.963C67.6137 171.75 65.3741 171.307 63.9868 172.021C59.4086 175.549 69.6404 179.722 68.199 172.963Z" fill="#FFDA76"/>
<path fill-rule="evenodd" clip-rule="evenodd" d="M92.6439 188.847C90.3923 188.462 94.9838 188.626 96.2142 188.094C95.1098 188.674 93.9102 188.977 92.6439 188.847ZM97.6833 187.226C98.0254 185.554 87.5479 184.949 90.1529 189.324C91.5874 191.523 98.685 190.623 97.6833 187.226Z" fill="#FFDA76"/>
<path fill-rule="evenodd" clip-rule="evenodd" d="M105.569 180.1C105.078 179.977 104.933 179.767 105.928 179.604C105.957 179.848 105.932 179.662 105.945 180.163C105.819 180.149 105.693 180.13 105.569 180.1ZM111.581 178.168C100.605 175.728 101.509 183.669 108.44 181.222C109.822 180.821 112.951 180.386 111.581 178.168Z" fill="#FFDA76"/>
<path fill-rule="evenodd" clip-rule="evenodd" d="M162.494 168.774C160.69 168.207 154.137 171.184 156.763 172.905C158.255 173.27 165.354 170.944 162.494 168.774Z" fill="#FFDA76"/>
<path fill-rule="evenodd" clip-rule="evenodd" d="M146.872 175.738C144.878 174.638 137.918 177.928 142.365 179.537C144.076 179.696 148.514 177.742 146.872 175.738Z" fill="#FFDA76"/>
<path fill-rule="evenodd" clip-rule="evenodd" d="M120.731 184.577C119.329 183.588 113.579 183.927 115.595 186.718C116.993 186.94 121.936 187.304 120.731 184.577Z" fill="#FFDA76"/>
<path fill-rule="evenodd" clip-rule="evenodd" d="M93.2322 176.211C81.8072 170.536 81.1356 178.839 90.505 177.49C91.4065 177.682 94.3914 178.056 93.2322 176.211Z" fill="#FFDA76"/>
<path fill-rule="evenodd" clip-rule="evenodd" d="M35.0177 168.439C34.5244 168.471 33.7936 167.689 33.2852 166.905C33.7193 167.179 34.2069 167.59 35.0177 168.439ZM36.4321 167.753C34.9894 165.769 30.071 162.399 31.7758 167.892C32.8568 171.204 40.117 172.444 36.4321 167.753Z" fill="#FFDA76"/>
<path fill-rule="evenodd" clip-rule="evenodd" d="M77.3024 187.32C78.7035 183.589 70.1116 182.098 69.5603 185.457C69.6554 187.694 77.7106 190.629 77.3024 187.32Z" fill="#FFDA76"/>
<path fill-rule="evenodd" clip-rule="evenodd" d="M8.43077 107.549C6.31145 105.872 6.00905 111.025 6.85892 112.96C9.52382 116.082 9.8174 109.504 8.43077 107.549" fill="#E2A347"/>
<path fill-rule="evenodd" clip-rule="evenodd" d="M28.5105 56.5533C28.2107 54.0812 24.9643 55.7091 25.2547 57.9614C25.6711 61.512 28.3184 59.0676 28.5105 56.5533Z" fill="#E2A347"/>
<path fill-rule="evenodd" clip-rule="evenodd" d="M11.1673 65.6831C10.8486 64.6594 8.30776 65.3826 8.66434 66.9311C9.85378 69.0971 11.5201 69.3818 11.1673 65.6831Z" fill="#E2A347"/>
<path fill-rule="evenodd" clip-rule="evenodd" d="M24.4731 120.111C22.5125 119.131 22.0079 122.163 24.2097 123.08C25.4748 122.933 25.5768 120.942 24.4731 120.111Z" fill="#E2A347"/>
<path fill-rule="evenodd" clip-rule="evenodd" d="M30.8278 158.415C29.4103 156.7 26.8368 160.233 30.589 160.613C31.1504 160.359 31.3797 159.779 30.8278 158.415Z" fill="#E2A347"/>
<path fill-rule="evenodd" clip-rule="evenodd" d="M62.4807 184.13C62.487 184.126 62.4939 184.123 62.4807 184.13C62.4832 184.14 62.5065 184.135 62.4807 184.13Z" fill="#E2A347"/>
<path fill-rule="evenodd" clip-rule="evenodd" d="M63.3734 184.408C62.206 182.026 58.1677 182.905 60.7167 185.629C61.1892 185.801 63.7552 186.192 63.3734 184.408Z" fill="#E2A347"/>
<path fill-rule="evenodd" clip-rule="evenodd" d="M78.1972 175.306C76.3652 173.648 73.8181 176.389 77.4299 177.6C78.4322 177.544 79.0868 176.484 78.1972 175.306Z" fill="#E2A347"/>
<path fill-rule="evenodd" clip-rule="evenodd" d="M63.0765 162.905C62.6223 160.691 58.7384 160.861 59.7779 163.688C60.2957 164.42 62.7344 164.607 63.0765 162.905Z" fill="#E2A347"/>
<path fill-rule="evenodd" clip-rule="evenodd" d="M109.229 185.48C107.567 184.911 105.563 187.291 108.677 187.656C109.672 187.671 110.973 186.156 109.229 185.48Z" fill="#E2A347"/>
<path fill-rule="evenodd" clip-rule="evenodd" d="M105.074 170.786C105.095 169.457 100.999 169.443 102.32 171.537C102.856 172.189 105.112 172.669 105.074 170.786Z" fill="#E2A347"/>
<path fill-rule="evenodd" clip-rule="evenodd" d="M149.775 169.056C147.467 168.084 144.958 172.246 149.923 170.205C150.081 169.981 150.23 169.537 149.775 169.056Z" fill="#E2A347"/>
<path fill-rule="evenodd" clip-rule="evenodd" d="M168.374 163.2C166.998 164.027 165.311 167.137 168.891 165.05C169.84 164.486 169.852 162.93 168.374 163.2Z" fill="#E2A347"/>
<path fill-rule="evenodd" clip-rule="evenodd" d="M134.792 181.393C134.085 180.871 131.041 182.235 133.44 182.861C134.264 182.994 135.738 182.439 134.792 181.393Z" fill="#E2A347"/>
<path fill-rule="evenodd" clip-rule="evenodd" d="M53.94 18.222C53.4826 18.4766 51.609 19.0669 51.6638 20.279C52.256 21.8049 56.1286 19.1431 53.94 18.222Z" fill="#E2A347"/>
<path fill-rule="evenodd" clip-rule="evenodd" d="M40.9409 39.0201C39.6481 39.0037 36.1428 43.8956 40.5799 41.2956C41.1885 41.0619 42.7402 39.1681 40.9409 39.0201Z" fill="#E2A347"/>
<path fill-rule="evenodd" clip-rule="evenodd" d="M26.7565 87.1052C27.2422 84.0989 23.0174 86.1848 24.3247 88.7432C25.86 90.6862 27.0545 89.6278 26.7565 87.1052Z" fill="#E2A347"/>
<path fill-rule="evenodd" clip-rule="evenodd" d="M16.9806 137.956C16.5484 137.455 17.2137 134.466 15.4081 135.245C13.2661 136.021 16.1143 140.808 16.9806 137.956Z" fill="#FFE8AC"/>
<path fill-rule="evenodd" clip-rule="evenodd" d="M20.2876 110.571C18.4234 109.148 19.3174 114.214 21.2219 112.962C21.8072 112.092 21.0033 111.666 20.2876 110.571Z" fill="#FFE8AC"/>
<path fill-rule="evenodd" clip-rule="evenodd" d="M24.9943 98.2284C25.1153 94.8282 21.4204 98.5339 24.4204 99.523C24.7852 99.2773 25.1178 99.1135 24.9943 98.2284Z" fill="#FFE8AC"/>
<path fill-rule="evenodd" clip-rule="evenodd" d="M30.8085 63.9838C29.8994 63.3879 28.5997 66.6746 29.8975 67.1811C31.1745 67.2113 31.7075 64.8413 30.8085 63.9838" fill="#FFE8AC"/>
<path fill-rule="evenodd" clip-rule="evenodd" d="M31.7973 31.9187C29.3038 33.9139 30.8397 36.2367 32.9786 32.9015C33.3692 32.0661 32.7411 31.232 31.7973 31.9187Z" fill="#FFE8AC"/>
<path fill-rule="evenodd" clip-rule="evenodd" d="M51.3175 26.3345C50.4336 26.2375 48.015 30.4466 51.0781 28.5553C51.6167 28.1294 53.0336 26.5878 51.3175 26.3345Z" fill="#FFE8AC"/>
<path fill-rule="evenodd" clip-rule="evenodd" d="M43.2225 172.026C42.6807 171.879 41.628 170.285 40.4606 170.789C40.0391 171.639 39.9308 171.475 41.0251 172.428C41.5839 173.377 44.4623 174.265 43.2225 172.026" fill="#FFE8AC"/>
<path fill-rule="evenodd" clip-rule="evenodd" d="M37.0558 142.835C36.8674 141.037 34.4589 141.009 35.4581 143.508C35.8311 144.031 37.0463 144.244 37.0558 142.835Z" fill="#FFE8AC"/>
<path fill-rule="evenodd" clip-rule="evenodd" d="M84.9561 182.835C84.4968 182.069 80.645 181.88 81.6032 183.714C82.3737 183.912 85.6749 184.82 84.9561 182.835Z" fill="#FFE8AC"/>
<path fill-rule="evenodd" clip-rule="evenodd" d="M130.379 173.028C128.889 172.448 126.767 174.897 130.379 174.649C130.939 174.528 131.244 173.459 130.379 173.028Z" fill="#FFE8AC"/>
<path fill-rule="evenodd" clip-rule="evenodd" d="M113.653 171.243C113.027 171.014 109.074 172.083 111.85 172.922C112.875 173.198 115.179 172.455 113.653 171.243Z" fill="#FFE8AC"/>
<path fill-rule="evenodd" clip-rule="evenodd" d="M49.8338 152.894C47.1431 151.071 46.1344 153.527 49.4041 154.387C50.2464 154.342 50.6963 153.644 49.8338 152.894Z" fill="#FFE8AC"/>
<path fill-rule="evenodd" clip-rule="evenodd" d="M31.7315 123.32C30.7525 120.94 28.8254 123.93 30.939 126.016C32.3943 126.318 32.3792 124.695 31.7315 123.32Z" fill="#FFE8AC"/>
<path fill-rule="evenodd" clip-rule="evenodd" d="M64.6734 11.8193C64.7062 10.7445 61.875 10.4503 62.4596 12.1734C59.1105 14.556 65.1592 15.7877 64.6734 11.8193Z" fill="#FFE8AC"/>
<path fill-rule="evenodd" clip-rule="evenodd" d="M60.4309 96.4626C57.3723 99.5477 53.2219 101.799 48.4112 100.868C48.8522 100.281 47.8007 97.6867 49.7272 97.9658C53.3138 97.3938 57.9651 95.2719 57.3162 91.7042C54.7742 93.2068 52.7922 96.8696 48.6273 96.6176C48.2568 95.0911 49.4437 89.5692 46.5804 90.8941C45.27 93.9811 47.308 98.9505 45.5044 102.333C40.2854 109.08 31.2764 103.405 29.3896 96.7253C24.9594 96.2131 30.7989 104.111 32.0545 104.746C36.3719 108.567 45.3569 108.526 47.9437 102.713C51.7955 105.244 62.6265 100.479 60.4309 96.4626" fill="#F5F5F7"/>
<path fill-rule="evenodd" clip-rule="evenodd" d="M45.7705 122.555C40.8458 112.587 24.4217 117.737 28.5986 128.363C33.134 134.385 49.485 131.823 45.7705 122.555Z" fill="#E7CDE8"/>
<path fill-rule="evenodd" clip-rule="evenodd" d="M85.6141 127.905C84.3976 126.864 82.946 126.587 81.4668 126.674C83.0538 124.404 80.651 119.531 77.225 121.265C74.4524 122.83 73.6183 125.39 71.6432 127.824C69.8042 131.421 65.7193 131.886 63.239 134.273C67.9691 136.591 72.9801 130.197 75.478 126.566C76.4772 124.298 80.7398 121.876 79.1597 125.765C74.3339 130.755 78.4523 129.756 82.1711 129.231C91.0712 135.564 69.3299 133.872 67.3668 137.066C65.9405 141.616 73.2894 137.187 75.4598 137.648C81.47 137.729 90.7864 134.646 85.6141 127.905" fill="#F5F5F7"/>
<path fill-rule="evenodd" clip-rule="evenodd" d="M29.3841 123.173C28.9406 123.468 28.3497 126.825 30.0072 125.889C30.0733 125.37 31.4089 122.052 29.3841 123.173Z" fill="#F5F5F7"/>
<path fill-rule="evenodd" clip-rule="evenodd" d="M38.58 118.752C36.7625 116.557 27.5771 120.678 31.2285 121.286C32.7758 119.051 36.6711 120.004 38.58 118.752Z" fill="#F5F5F7"/>
<path fill-rule="evenodd" clip-rule="evenodd" d="M122.924 81.8591C122.782 83.5582 117.789 83.734 117.638 81.8591C117.682 75.9107 117.351 69.7732 116.411 63.2653C114.672 67.3433 113.452 72.1716 113.29 77.2066C113.156 78.2303 114.09 81.231 112.536 82.0406C104.157 84.3911 111.553 76.0121 102.739 63.0379C102.463 67.5525 101.941 74.3949 101.576 78.934C102.62 84.2771 95.3549 85.1389 96.1909 80.2451C97.6979 65.6139 96.1714 38.2215 109.906 66.3051C110.948 63.6137 114.944 50.7793 120.283 55.5258C122.125 63.1456 122.352 73.334 122.924 81.8591" fill="#F5F5F7"/>
<path fill-rule="evenodd" clip-rule="evenodd" d="M133.076 73.6443C132.715 73.7526 133.202 73.6644 131.607 74.0991C131.843 73.9013 132.589 74.1968 133.269 73.5687C133.199 73.5957 133.137 73.6165 133.076 73.6443V73.6443ZM133.076 73.6443C132.715 73.7526 133.202 73.6644 131.607 74.0991C131.843 73.9013 132.589 74.1968 133.269 73.5687C133.199 73.5957 133.137 73.6165 133.076 73.6443V73.6443ZM133.076 73.6443C132.715 73.7526 133.202 73.6644 131.607 74.0991C131.843 73.9013 132.589 74.1968 133.269 73.5687C133.199 73.5957 133.137 73.6165 133.076 73.6443V73.6443ZM143.641 67.297C141.59 67.5093 140.626 67.7027 138.389 67.8898C139.859 69.5688 141.111 68.4001 143.813 67.4898C143.757 67.4211 143.702 67.3587 143.641 67.297V67.297ZM133.076 73.6443C132.715 73.7526 133.202 73.6644 131.607 74.0991C131.843 73.9013 132.589 74.1968 133.269 73.5687C133.199 73.5957 133.137 73.6165 133.076 73.6443V73.6443ZM133.076 73.6443C132.715 73.7526 133.202 73.6644 131.607 74.0991C131.843 73.9013 132.589 74.1968 133.269 73.5687C133.199 73.5957 133.137 73.6165 133.076 73.6443V73.6443ZM133.076 73.6443C132.715 73.7526 133.202 73.6644 131.607 74.0991C131.843 73.9013 132.589 74.1968 133.269 73.5687C133.199 73.5957 133.137 73.6165 133.076 73.6443V73.6443ZM133.076 73.6443C132.715 73.7526 133.202 73.6644 131.607 74.0991C131.843 73.9013 132.589 74.1968 133.269 73.5687C133.199 73.5957 133.137 73.6165 133.076 73.6443V73.6443ZM133.076 73.6443C132.715 73.7526 133.202 73.6644 131.607 74.0991C131.843 73.9013 132.589 74.1968 133.269 73.5687C133.199 73.5957 133.137 73.6165 133.076 73.6443V73.6443ZM133.076 73.6443C132.715 73.7526 133.202 73.6644 131.607 74.0991C131.843 73.9013 132.589 74.1968 133.269 73.5687C133.199 73.5957 133.137 73.6165 133.076 73.6443V73.6443ZM133.076 73.6443C132.715 73.7526 133.202 73.6644 131.607 74.0991C131.843 73.9013 132.589 74.1968 133.269 73.5687C133.199 73.5957 133.137 73.6165 133.076 73.6443V73.6443ZM133.076 73.6443C132.715 73.7526 133.202 73.6644 131.607 74.0991C131.843 73.9013 132.589 74.1968 133.269 73.5687C133.199 73.5957 133.137 73.6165 133.076 73.6443V73.6443ZM133.076 73.6443C132.715 73.7526 133.202 73.6644 131.607 74.0991C131.843 73.9013 132.589 74.1968 133.269 73.5687C133.199 73.5957 133.137 73.6165 133.076 73.6443V73.6443ZM133.076 73.6443C132.715 73.7526 133.202 73.6644 131.607 74.0991C131.843 73.9013 132.589 74.1968 133.269 73.5687C133.199 73.5957 133.137 73.6165 133.076 73.6443V73.6443ZM133.076 73.6443C132.715 73.7526 133.202 73.6644 131.607 74.0991C131.843 73.9013 132.589 74.1968 133.269 73.5687C133.199 73.5957 133.137 73.6165 133.076 73.6443V73.6443ZM133.647 78.4341C131.625 75.6962 135.432 62.9676 139.906 69.5499C142.113 73.4842 138.244 85.5979 133.647 78.4341ZM144.178 67.9724C135.184 58.0316 121.493 73.4206 130.98 81.7423C131.593 84.1211 134.435 83.2089 137.161 83.2927C144.964 83.2423 147.868 74.067 144.178 67.9724ZM133.076 73.6443C132.715 73.7526 133.202 73.6644 131.607 74.0991C131.843 73.9013 132.589 74.1968 133.269 73.5687C133.199 73.5957 133.137 73.6165 133.076 73.6443V73.6443ZM133.076 73.6443C132.715 73.7526 133.202 73.6644 131.607 74.0991C131.843 73.9013 132.589 74.1968 133.269 73.5687C133.199 73.5957 133.137 73.6165 133.076 73.6443V73.6443ZM133.076 73.6443C132.715 73.7526 133.202 73.6644 131.607 74.0991C131.843 73.9013 132.589 74.1968 133.269 73.5687C133.199 73.5957 133.137 73.6165 133.076 73.6443V73.6443ZM133.076 73.6443C132.715 73.7526 133.202 73.6644 131.607 74.0991C131.843 73.9013 132.589 74.1968 133.269 73.5687C133.199 73.5957 133.137 73.6165 133.076 73.6443V73.6443ZM133.076 73.6443C132.715 73.7526 133.202 73.6644 131.607 74.0991C131.843 73.9013 132.589 74.1968 133.269 73.5687C133.199 73.5957 133.137 73.6165 133.076 73.6443V73.6443ZM133.076 73.6443C132.715 73.7526 133.202 73.6644 131.607 74.0991C131.843 73.9013 132.589 74.1968 133.269 73.5687C133.199 73.5957 133.137 73.6165 133.076 73.6443V73.6443ZM133.076 73.6443C132.715 73.7526 133.202 73.6644 131.607 74.0991C131.843 73.9013 132.589 74.1968 133.269 73.5687C133.199 73.5957 133.137 73.6165 133.076 73.6443V73.6443ZM133.076 73.6443C132.715 73.7526 133.202 73.6644 131.607 74.0991C131.843 73.9013 132.589 74.1968 133.269 73.5687C133.199 73.5957 133.137 73.6165 133.076 73.6443V73.6443ZM133.076 73.6443C132.715 73.7526 133.202 73.6644 131.607 74.0991C131.843 73.9013 132.589 74.1968 133.269 73.5687C133.199 73.5957 133.137 73.6165 133.076 73.6443V73.6443ZM133.076 73.6443C132.715 73.7526 133.202 73.6644 131.607 74.0991C131.843 73.9013 132.589 74.1968 133.269 73.5687C133.199 73.5957 133.137 73.6165 133.076 73.6443V73.6443ZM133.076 73.6443C132.715 73.7526 133.202 73.6644 131.607 74.0991C131.843 73.9013 132.589 74.1968 133.269 73.5687C133.199 73.5957 133.137 73.6165 133.076 73.6443V73.6443ZM143.641 67.297C141.59 67.5093 140.626 67.7027 138.389 67.8898C139.859 69.5688 141.111 68.4001 143.813 67.4898C143.757 67.4211 143.702 67.3587 143.641 67.297V67.297ZM133.076 73.6443C132.715 73.7526 133.202 73.6644 131.607 74.0991C131.843 73.9013 132.589 74.1968 133.269 73.5687C133.199 73.5957 133.137 73.6165 133.076 73.6443V73.6443ZM133.076 73.6443C132.715 73.7526 133.202 73.6644 131.607 74.0991C131.843 73.9013 132.589 74.1968 133.269 73.5687C133.199 73.5957 133.137 73.6165 133.076 73.6443V73.6443ZM133.076 73.6443C132.715 73.7526 133.202 73.6644 131.607 74.0991C131.843 73.9013 132.589 74.1968 133.269 73.5687C133.199 73.5957 133.137 73.6165 133.076 73.6443V73.6443ZM133.076 73.6443C132.715 73.7526 133.202 73.6644 131.607 74.0991C131.843 73.9013 132.589 74.1968 133.269 73.5687C133.199 73.5957 133.137 73.6165 133.076 73.6443" fill="#F5F5F7"/>
<path fill-rule="evenodd" clip-rule="evenodd" d="M156.19 79.564C152.481 77.5367 154.487 65.4583 159.78 67.3798C163.354 69.491 161.532 82.1811 156.19 79.564ZM166.852 72.314C165.423 57.1726 143.665 65.3972 150.091 78.7444C154.16 86.8355 168.306 82.2352 166.852 72.314Z" fill="#F5F5F7"/>
<path fill-rule="evenodd" clip-rule="evenodd" d="M192.226 54.0306C191.804 62.7353 191.509 72.2943 190.487 81.3222C189.323 82.6552 184.472 82.5601 184.754 79.6942C184.15 72.046 181.053 66.1568 177.106 59.2136C176.944 66.0825 177 73.3262 177.348 80.832C177.402 82.0901 173.497 82.6269 172.688 81.0802C172.572 72.6641 171.396 62.8543 173.001 54.304C179.553 50.8711 183.537 62.0127 186.768 68.8204C187.099 64.2775 187.23 58.8696 187.577 53.7433C188.144 52.4121 192.149 52.5608 192.226 54.0306" fill="#F5F5F7"/>
<path fill-rule="evenodd" clip-rule="evenodd" d="M111.76 133.443C110.614 138.849 104.789 139.67 100.202 138.329C100.148 134.87 100.606 130.222 100.823 126.447C106.046 125.851 112.808 126.072 111.76 133.443ZM101.959 113.912C114.32 114.586 103.446 127.721 101.103 122.958C101.349 120.01 101.622 117.119 101.959 113.912ZM110.057 124.029C120.23 115.541 103.067 106.643 96.8596 112.168C95.524 121.226 95.8655 130.66 94.2697 139.881C94.2142 140.485 94.4083 140.6 95.0937 141.032C122.451 145.432 120.77 126.091 110.057 124.029Z" fill="#F5F5F7"/>
<path fill-rule="evenodd" clip-rule="evenodd" d="M166.169 136.924C150.15 144.326 150.204 115.613 159.276 113.026C160.165 112.816 160.767 113.085 161.486 113.665C165.351 117.352 169.704 113.252 164.133 111.06C150.832 107.069 146.73 119.867 148.038 130.034C150.092 139.631 161.21 144.092 170.297 138.479C171.879 137.088 167.578 136.201 166.169 136.924Z" fill="#F5F5F7"/>
<path fill-rule="evenodd" clip-rule="evenodd" d="M193.979 133.804C194.268 129.426 192.024 125.376 187.21 124.06C190.634 120.625 192.2 115.084 193.677 110.093C194.262 108.117 189.056 107.814 188.584 109.405C187.275 113.827 185.57 123.415 179.978 124.672C179.47 119.637 183.303 107.428 176.221 109.872C175.049 110.573 175.129 110.267 175.105 111.969C175.049 118.121 174.795 124.11 174.326 130.381C174.733 134.12 171.092 141.121 176.721 140.387C180.82 140.216 178.913 129.611 179.816 127.363C184.848 125.846 187.811 126.303 188.607 131.735C189.117 134.843 189.166 137.446 187.71 139.788C192.305 144.203 194.796 137.633 193.979 133.804Z" fill="#F5F5F7"/>
<path fill-rule="evenodd" clip-rule="evenodd" d="M131.649 111.341C118.608 111.769 118.294 129.198 118.479 139.253C118.332 140.975 118.937 141.488 121.537 141.357C125.196 141.335 123.438 139.495 123.722 136.711C124.264 134.149 122.978 130.253 125.1 129.194C129.872 128.617 134.755 128.793 139.946 129.17C140.299 138.624 136.322 142.612 144.124 140.58C146.725 130.788 146.919 110.238 131.649 111.341" fill="#F5F5F7"/>
<path fill-rule="evenodd" clip-rule="evenodd" d="M138.208 119.239C133.79 122.658 135.603 123.448 135.842 126.385C131.225 123.24 131.033 125.208 128.314 126.343C129.879 120.98 127.948 121.406 126.028 119.171C131.612 119.002 130.609 117.298 132.143 114.781C134.029 120.039 135.341 118.559 138.208 119.239" fill="#F4B955"/>
<path fill-rule="evenodd" clip-rule="evenodd" d="M153.351 101.983C153.201 101.989 150.862 100.166 151.907 97.032C155.314 89.0549 160.087 102.487 153.351 101.983ZM129.457 104.084C125.346 105.947 125.188 99.5079 126.598 97.2972C130.421 94.6361 131.471 102.435 129.457 104.084ZM165.225 102.596C164.041 101.548 164.003 104.334 162.254 104.254C158.276 104.591 159.577 99.627 159.121 96.4751C158.776 93.4215 158.117 90.4579 157.989 87.2638C156.253 81.677 156.784 92.5577 157.492 93.9746C154.699 89.0102 150.162 92.3309 150.003 96.9495C149.465 100.047 151.492 102.769 148.987 103.484C144.189 104.262 148.376 89.9338 142.534 93.8429C141.212 95.7802 141.183 97.1964 140.222 99.5772C139.879 98.1893 139.823 95.7934 139.157 93.9003C136.37 93.0491 139.976 103.513 136.118 103.869C132.478 104.917 132.832 95.8092 131.446 94.02C129.997 93.6678 130.401 94.5359 130.532 96.2898C118.149 90.0913 127.275 117.589 131.856 101.342C132.629 106.484 138.122 108.609 139.312 102.134C141.233 111.053 140.696 95.2472 143.944 95.5357C145.459 96.533 144.774 99.2956 145.248 101.341C145.439 104.436 149.981 106.331 151.565 103.396C153.149 104.751 156.421 105.039 157.927 102.686C159.718 108.523 166.32 105.222 165.225 102.596" fill="#4395A1"/>
<path fill-rule="evenodd" clip-rule="evenodd" d="M133.597 40.8658C127.287 31.1953 119.556 43.0828 130.45 43.9919C130.978 43.4816 130.356 42.7489 129.807 42.7722C121.399 38.9374 131.901 35.4251 132.81 42.8799C134.361 48.7452 127.823 51.9992 125.688 45.0918C125.649 44.797 125.54 43.6176 124.631 43.7997C124.016 45.3835 122.824 49.5812 119.117 47.5016C117.384 45.7187 115.22 38.8051 118.052 38.8479C122.402 38.0295 118.903 36.4671 116.351 38.039C115.214 25.6677 113.493 31.7402 115.104 38.6532C111.171 40.6579 110.596 44.4524 115.344 40.055C115.653 46.3361 119.438 54.693 125.262 47.339C130.576 55.415 136.519 46.8552 133.597 40.8658" fill="#F5F5F7"/>
<path fill-rule="evenodd" clip-rule="evenodd" d="M149.643 48.0539C146.214 51.8238 142.317 38.7443 144.952 37.3905C148.57 37.0843 147.772 34.8459 143.997 36.3151C142.945 24.507 140.699 26.5677 142.574 35.9207C142.994 37.6248 140.45 37.4699 139.187 38.7601C138.465 41.2165 141.397 38.8647 142.781 38.1685C144.407 60.3565 154.566 45.1118 149.643 48.0539" fill="#F5F5F7"/>
<path fill-rule="evenodd" clip-rule="evenodd" d="M168.553 46.1189C166.581 43.8623 165.765 35.1973 169.379 35.9394C171.362 38.4298 170.928 43.907 168.553 46.1189V46.1189ZM175.452 47.5112C173.951 48.6849 168.55 48.5388 169.891 46.5555C172.203 42.836 173.195 39.7711 171.529 36.1649C165.035 28.1841 164.257 44.1905 167.603 47.0494C167.497 47.1376 166.705 47.7305 165.631 48.1267C160.644 49.6746 162.149 43.2027 161.161 40.5806C160.141 36.3224 155.234 33.427 153.343 38.5797C152.697 35.4064 152.725 27.1654 150.402 27.2454C150.543 32.2331 152.5 38.787 152.707 44.302C152.752 46.0925 154.376 52.8807 155.037 48.9432C151.948 35.4385 158.769 34.3757 160.218 42.5027C160.446 44.7915 159.998 47.6593 161.668 49.2904C164.112 51.9225 167.146 48.2282 169.103 48.5646C170.797 50.9517 179.017 48.6648 175.452 47.5112" fill="#F5F5F7"/>
<path fill-rule="evenodd" clip-rule="evenodd" d="M97.5905 72.2313C99.134 71.5081 100.691 70.8119 102.263 70.1498C102.401 71.3203 100.918 71.2063 99.6059 72.0007C99.0679 72.2899 101.44 71.4684 102.173 71.2668C102.924 72.1519 96.1094 73.4869 97.5905 72.2313Z" fill="#4395A1"/>
<path fill-rule="evenodd" clip-rule="evenodd" d="M97.2939 65.9255C99.0925 65.4706 100.871 64.961 102.642 64.416C102.68 65.2155 102.211 65.2766 100.864 65.6225C101.23 65.5582 101.132 65.6275 102.586 65.2986C102.369 66.6972 98.9848 66.3936 97.2183 66.9524C97.246 66.6078 97.2668 66.2701 97.2939 65.9255" fill="#4395A1"/>
<path fill-rule="evenodd" clip-rule="evenodd" d="M112.476 68.758C113.2 68.5923 113.93 68.4342 114.654 68.2893C114.43 69.5417 112.472 69.211 110.797 69.8108C109.493 69.6432 107.145 71.7014 106.253 70.2883C108.327 69.778 110.395 69.2406 112.476 68.758Z" fill="#4395A1"/>
<path fill-rule="evenodd" clip-rule="evenodd" d="M121.994 68.069C120.533 68.3651 118.59 68.4684 117.052 68.5994C116.715 67.1737 120.371 67.5221 121.911 67.1592C121.939 67.4623 121.966 67.7659 121.994 68.069Z" fill="#4395A1"/>
<path fill-rule="evenodd" clip-rule="evenodd" d="M107.894 64.7885C107.117 64.5258 104.703 66.3849 103.828 65.0367C105.01 65.2484 107.941 63.1209 109.017 64.5611C108.645 64.6298 108.266 64.7129 107.894 64.7885" fill="#4395A1"/>
<path fill-rule="evenodd" clip-rule="evenodd" d="M115.908 63.4172C114.144 63.6446 112.387 63.9269 110.636 64.2507C111.313 63.0027 121.333 61.3338 121.456 62.762C119.549 63.0172 118.186 63.128 115.908 63.4172Z" fill="#4395A1"/>
<path fill-rule="evenodd" clip-rule="evenodd" d="M110.802 66.9387C112.366 66.4215 113.951 65.9465 115.536 65.5055C113.823 67.5328 108.677 67.8314 105.881 69.3649C105.812 69.1715 105.729 68.9787 105.64 68.7859C107.342 68.1238 109.065 67.5108 110.802 66.9387Z" fill="#4395A1"/>
<path fill-rule="evenodd" clip-rule="evenodd" d="M121.629 64.3474C120.05 64.9402 118.41 65.3812 116.749 65.8361C116.379 64.7015 119.732 64.4136 121.545 63.541C121.573 63.81 121.601 64.0784 121.629 64.3474Z" fill="#4395A1"/>
<path fill-rule="evenodd" clip-rule="evenodd" d="M105.647 58.6066C103.097 58.8687 100.547 59.0338 97.9766 59.0067C99.2051 58.5058 104.115 57.5079 105.647 58.6066Z" fill="#4395A1"/>
<path fill-rule="evenodd" clip-rule="evenodd" d="M107.99 62.6589C108.094 62.8448 108.197 63.0382 108.3 63.224C107.262 63.1132 104.506 65.5261 103.372 64.1892C104.923 63.7136 106.46 63.197 107.99 62.6589" fill="#4395A1"/>
<path fill-rule="evenodd" clip-rule="evenodd" d="M119.044 56.8492C117.342 57.0836 115.64 57.3249 113.93 57.5523C114.684 56.7257 119.584 55.4872 120.554 56.601C119.782 56.732 119.195 56.8284 119.044 56.8492Z" fill="#4395A1"/>
<path fill-rule="evenodd" clip-rule="evenodd" d="M120.863 58.3587C117.776 59.6471 114.675 60.8945 111.539 62.0524C112.253 60.4031 117.41 59.1683 120.725 57.5316C120.767 57.8006 120.815 58.0759 120.863 58.3587" fill="#4395A1"/>
<path fill-rule="evenodd" clip-rule="evenodd" d="M108.479 76.1802C110.161 75.6019 111.828 75.0015 113.497 74.3954C113.43 75.5685 111.53 75.4954 110.023 76.2357C111.084 76.3661 112.194 76.4007 113.324 76.3799C114.159 77.5184 106.042 77.2298 108.479 76.1802" fill="#4395A1"/>
<path fill-rule="evenodd" clip-rule="evenodd" d="M122.29 71.5767C120.684 72.2521 119.065 72.8928 117.438 73.5133C117.554 72.218 120.693 72.0101 122.255 71.1565C122.269 71.3014 122.277 71.4387 122.29 71.5767Z" fill="#4395A1"/>
<path fill-rule="evenodd" clip-rule="evenodd" d="M122.614 76.1184C120.843 76.0648 119.84 76.3931 117.576 76.5732C117.761 75.467 121.11 75.9073 122.566 75.45C122.587 75.6774 122.6 75.8979 122.614 76.1184Z" fill="#4395A1"/>
<path fill-rule="evenodd" clip-rule="evenodd" d="M122.8 79.2401C121.454 79.8959 119.517 81.205 117.672 82.1003C117.45 80.524 120.894 79.7951 122.38 78.6611C120.794 78.8129 119.217 78.9509 117.631 79.0542C116.963 77.0691 120.981 77.2077 122.628 76.3181C122.804 77.58 120.701 77.5095 119.119 78.1514C120.319 78.0752 121.525 77.9794 122.724 77.8616C122.751 78.3581 122.779 78.8198 122.8 79.2401" fill="#4395A1"/>
<path fill-rule="evenodd" clip-rule="evenodd" d="M98.2383 83.2581C100.676 79.8435 101.858 81.915 101.698 77.3588C96.9153 80.1617 102.541 78.5306 100.923 80.0855C99.7377 80.8629 95.2137 83.0175 98.2383 83.2581Z" fill="#4395A1"/>
<path fill-rule="evenodd" clip-rule="evenodd" d="M101.801 75.9873C100.453 76.9304 98.4786 76.4359 96.4531 76.8624C97.1757 75.9905 100.05 76.3319 101.801 75.9873Z" fill="#4395A1"/>
<path fill-rule="evenodd" clip-rule="evenodd" d="M132.317 73.906C132.069 73.9885 131.828 74.0509 131.607 74.0994C132.117 73.9961 132.662 73.8789 133.234 73.7542C133.166 74.7893 131.467 74.4358 130.126 74.9329C128.508 74.6463 132.361 73.2829 133.455 72.7002C133.166 72.8041 133.994 73.4745 132.317 73.906Z" fill="#4395A1"/>
<path fill-rule="evenodd" clip-rule="evenodd" d="M133.951 71.2045C133.799 72.489 132.561 72.748 130.582 73.0403C130.253 72.1432 132.729 71.8735 133.951 71.2045Z" fill="#4395A1"/>
<path fill-rule="evenodd" clip-rule="evenodd" d="M143.641 67.2972C138.987 67.7747 134.77 68.2252 129.691 68.9856C133.271 67.7388 139.731 66.4322 143.641 67.2972Z" fill="#4395A1"/>
<path fill-rule="evenodd" clip-rule="evenodd" d="M144.178 67.9656C143.225 67.8629 140.673 70.2027 139.629 69.0271C140.634 69.0908 142.884 66.8902 144.178 67.9656Z" fill="#4395A1"/>
<path fill-rule="evenodd" clip-rule="evenodd" d="M145.735 73.8509C146.391 76.3085 143.745 76.7867 141.71 77.7034C142.202 77.4066 144.6 77.3839 145.212 77.3518C144.181 80.6102 138.916 83.0275 135.274 83.3822C136.81 82.7761 146.321 78.2968 142.638 78.1979C141.158 78.1192 139.591 78.9734 139.547 78.1242C142.742 76.9253 148.006 73.7312 140.401 74.4229C140.87 73.3935 144.1 74.067 145.735 73.8509Z" fill="#4395A1"/>
<path fill-rule="evenodd" clip-rule="evenodd" d="M131.118 79.9156C130.683 80.0083 129.519 80.901 128.996 79.4677C129.944 79.4299 132.805 77.1481 133.648 78.4339C132.531 78.8339 131.443 79.302 130.346 79.7361C130.22 79.8457 131.504 79.4072 131.118 79.9156" fill="#4395A1"/>
<path fill-rule="evenodd" clip-rule="evenodd" d="M164.453 66.3115C159.725 67.0726 155.461 68.1883 150.242 69.2959C154.091 67.9521 162.241 64.9785 164.453 66.3115Z" fill="#4395A1"/>
<path fill-rule="evenodd" clip-rule="evenodd" d="M154.688 71.6456C154.186 73.0688 150.896 72.8628 149.002 73.4928C149.865 72.4816 152.758 72.3884 154.688 71.6456Z" fill="#4395A1"/>
<path fill-rule="evenodd" clip-rule="evenodd" d="M166.279 69.206C164.68 69.6608 163.081 70.1087 161.476 70.5359C161.441 70.3085 161.4 70.0817 161.344 69.8675C162.909 69.4472 164.474 69.0201 166.031 68.5791C166.121 68.7857 166.204 68.9924 166.279 69.206" fill="#4395A1"/>
<path fill-rule="evenodd" clip-rule="evenodd" d="M159.208 79.3572C161.668 78.0613 164.15 76.7799 166.617 75.4846C167.275 76.4926 157.137 81.6328 159.208 79.3572Z" fill="#4395A1"/>
<path fill-rule="evenodd" clip-rule="evenodd" d="M166.775 74.416C166.765 75.9028 163.045 75.1046 161.352 75.264C161.307 73.3532 165.037 72.7534 166.816 71.7076C166.804 73.0495 163.822 73.529 162.344 74.4708C163.812 74.5748 165.293 74.4437 166.775 74.416" fill="#4395A1"/>
<path fill-rule="evenodd" clip-rule="evenodd" d="M150.284 78.551C150.077 78.6903 150.078 78.8717 149.74 78.0615C151.311 77.6205 152.854 77.1247 154.378 76.5388C154.328 77.6212 151.805 77.8146 150.284 78.551Z" fill="#4395A1"/>
<path fill-rule="evenodd" clip-rule="evenodd" d="M156.19 79.564C155.445 79.85 152.683 83.0775 152.069 81.3431C153.196 81.2921 154.713 78.6858 156.19 79.564Z" fill="#4395A1"/>
<path fill-rule="evenodd" clip-rule="evenodd" d="M172.661 66.0427C171.26 65.4871 175.89 64.3153 177.03 63.6928C177.255 64.4186 176.435 64.7632 175.211 65.0845C175.613 65.0278 175.867 65.0064 177.023 64.9125C177.22 66.2916 174.259 65.6931 172.661 66.0427Z" fill="#4395A1"/>
<path fill-rule="evenodd" clip-rule="evenodd" d="M177.044 70.6945C176.093 71.0253 175.141 71.3497 174.191 71.6798C175.298 71.6653 173.304 72.4862 172.358 72.5625C171.983 70.8123 175.471 70.8104 177.037 69.9435C177.037 70.1918 177.037 70.4463 177.044 70.6945" fill="#4395A1"/>
<path fill-rule="evenodd" clip-rule="evenodd" d="M180.82 57.435C178.016 57.7657 175.211 58.1381 172.406 58.5242C173.774 57.709 178.855 56.6412 180.82 57.435Z" fill="#4395A1"/>
<path fill-rule="evenodd" clip-rule="evenodd" d="M183.157 61.1636C183.28 61.3841 183.391 61.6115 183.508 61.8389C182.572 61.7192 180.004 64.4484 179.167 62.8312C180.503 62.2869 181.833 61.7356 183.157 61.1636" fill="#4395A1"/>
<path fill-rule="evenodd" clip-rule="evenodd" d="M191.096 57.6832C191.378 57.5591 191.73 57.4211 192.095 57.2838C191.947 58.7157 188.856 59.1801 187.244 60.1918C187.164 58.775 189.551 58.6137 191.096 57.6832Z" fill="#4395A1"/>
<path fill-rule="evenodd" clip-rule="evenodd" d="M192.157 55.6984C191.646 56.5168 189.219 55.9347 187.416 56.4494C188.053 55.7117 190.386 56.0626 192.157 55.6984Z" fill="#4395A1"/>
<path fill-rule="evenodd" clip-rule="evenodd" d="M185.038 64.9814C183.98 64.57 180.945 66.404 180.049 64.6576C181.197 65.0621 184.165 63.2118 185.038 64.9814Z" fill="#4395A1"/>
<path fill-rule="evenodd" clip-rule="evenodd" d="M185.906 66.856C186.01 67.0765 186.113 67.3039 186.203 67.5314C185.265 67.3367 182.513 69.9216 181.737 68.2962C183.122 67.8143 184.514 67.3317 185.906 66.856Z" fill="#4395A1"/>
<path fill-rule="evenodd" clip-rule="evenodd" d="M191.716 64.8369C191.729 66.3211 188.482 66.4698 186.857 67.297C186.846 65.8071 190.079 65.6565 191.716 64.8369Z" fill="#4395A1"/>
<path fill-rule="evenodd" clip-rule="evenodd" d="M191.785 63.6239C191.846 65.122 188.79 64.4064 187.002 64.8159C186.964 63.3404 189.995 64.0435 191.785 63.6239" fill="#4395A1"/>
<path fill-rule="evenodd" clip-rule="evenodd" d="M191.365 70.7843C190.09 71.2322 188.815 71.6871 187.547 72.1488C191.919 71.1207 188.868 72.5552 186.656 74.1844C187.733 74.6651 190.846 71.8502 187.747 75.5603C188.867 75.3562 189.407 75.4847 191.055 75.1395C191.812 76.2224 186.98 78.7859 190.862 77.7861C190.572 78.9163 187.955 82.3927 186.031 81.6385C195.781 74.6808 181.313 82.6673 190.302 75.8999C189.593 75.423 183.329 78.0135 187.264 74.6159C182.943 75.6 185.134 73.9828 187.684 72.7896C186.98 72.9452 185.827 73.2255 184.534 73.5714C180.788 73.6501 190.187 70.6822 191.393 70.3294C191.378 70.4812 191.372 70.6324 191.365 70.7843" fill="#4395A1"/>
<path fill-rule="evenodd" clip-rule="evenodd" d="M177.168 76.0356C175.597 76.2076 174.025 76.4351 172.468 76.7249C172.917 75.7666 175.407 76.0023 177.155 75.519C177.155 75.691 177.155 75.8637 177.168 76.0356" fill="#4395A1"/>
<path fill-rule="evenodd" clip-rule="evenodd" d="M177.257 78.6406C176.033 79.0161 174.471 79.2737 172.585 79.75C172.575 78.6273 175.534 78.6399 177.23 77.9652C177.237 78.1926 177.244 78.4201 177.257 78.6406Z" fill="#4395A1"/>
<path fill-rule="evenodd" clip-rule="evenodd" d="M177.326 80.3773C176.251 80.434 174.045 81.8301 172.688 81.088C173.831 80.8051 175.7 80.3446 177.299 79.6604C177.306 79.9017 177.313 80.1361 177.326 80.3773" fill="#4395A1"/>
<path fill-rule="evenodd" clip-rule="evenodd" d="M172.33 62.2317C173.901 61.8114 175.48 61.3774 177.072 60.9704C177.023 62.3772 174.092 61.9954 172.323 62.6519C172.323 62.5145 172.323 62.3696 172.33 62.2317Z" fill="#4395A1"/>
<path fill-rule="evenodd" clip-rule="evenodd" d="M182.708 60.3435C181.713 60.1318 179.022 62.2713 178.05 60.7228C179.043 60.9181 181.692 58.9046 182.708 60.3435Z" fill="#4395A1"/>
</g>
<defs>
<clipPath id="clip0_1_688">
<rect width="205" height="196" fill="white"/>
</clipPath>
</defs>
</svg>
