<svg width="200" height="122" viewBox="0 0 200 122" fill="none" xmlns="http://www.w3.org/2000/svg">
<path d="M25.9089 23.4443C24.0152 23.4443 23.5342 26.6062 25.9089 26.8349C27.8026 26.8502 28.2937 23.668 25.9089 23.4443ZM26.6785 25.742C26.3697 25.4472 26.9773 24.3898 25.8228 23.7392C25.7013 23.241 28.5368 25.4472 26.6785 25.742Z" fill="#FFAA00"/>
<path d="M13.3115 36.3052C11.4178 36.3052 10.9368 39.467 13.3115 39.6907C15.19 39.711 15.6963 36.5288 13.3115 36.3052ZM14.0761 38.6028C13.7723 38.308 14.3798 37.2456 13.2254 36.6C13.1039 36.0917 15.9393 38.3029 14.0761 38.6028Z" fill="#FFAA00"/>
<path d="M142.162 116.271C140.268 116.271 139.787 119.433 142.162 119.657C144.056 119.677 144.547 116.495 142.162 116.271ZM142.932 118.569C142.623 118.274 143.23 117.211 142.076 116.566C141.954 116.068 144.81 118.274 142.932 118.569Z" fill="#FFAA00"/>
<path d="M4.05075 106.887C2.15708 106.887 1.67607 110.049 4.05075 110.278C5.95455 110.308 6.44569 107.111 4.05075 106.887ZM4.82037 109.185C4.51151 108.895 5.11911 107.833 3.96974 107.182C3.85328 106.684 6.68873 108.89 4.8305 109.185H4.82037Z" fill="#FFAA00"/>
<path d="M197.301 53.6799C195.408 53.6799 194.927 56.8418 197.301 57.0654C199.195 57.0858 199.681 53.8833 197.301 53.6799ZM198.066 55.9776C197.762 55.6828 198.37 54.6203 197.215 53.9443C197.094 53.4766 199.929 55.6777 198.066 55.9776Z" fill="#FFAA00"/>
<path d="M167.089 9.05847C165.195 9.05847 164.714 12.2203 167.089 12.4491C168.967 12.4643 169.453 9.28214 167.089 9.05847ZM167.853 11.3612C167.55 11.0664 168.157 10.004 167.003 9.32789C166.866 8.86022 169.702 11.0613 167.838 11.3612H167.853Z" fill="#FFAA00"/>
<path d="M34.5318 16.9986L35.5698 17.9746L36.4356 16.8411L36.4812 18.2695L37.8888 18.0814L36.9166 19.1235L38.0458 19.9927L36.623 20.0334L36.8103 21.4516L35.7723 20.4706L34.9065 21.6092L34.866 20.1808L33.4533 20.3689L34.4306 19.3268L33.2964 18.4576L34.7192 18.4118L34.5318 16.9986Z" fill="#FFAA00"/>
<path d="M54.7393 79.422C55.1545 79.8185 56.6481 79.8032 57.8836 79.0255C64.7747 73.0932 47.0886 72.4476 54.7393 79.422ZM58.476 77.1853C58.1816 77.4563 57.7838 77.5844 57.3874 77.5361C57.3874 77.5361 57.5443 76.2398 56.7646 75.8891C56.7646 75.8891 59.3367 76.25 58.476 77.1853Z" fill="#FF5D57"/>
<path d="M103.18 70.1856C107.737 69.7026 119.889 67.5626 118.699 73.688C118.096 75.4112 112.967 77.2463 117.453 77.3886C122.228 76.0568 124.542 70.3177 119.666 68.2691C113.646 66.4747 107.98 67.8726 102.192 68.3047V70.2923L103.18 70.1856Z" fill="#FF5D57"/>
<path d="M198.942 73.2305C198.081 62.6877 181.534 62.0472 178.43 71.7411C178.354 71.998 178.293 72.2595 178.248 72.524C177.068 81.313 186.81 79.422 181.904 73.8049C181.484 72.9357 181.524 71.7005 182.648 69.3367C185.18 65.9614 190.598 65.941 193.787 69.0266C200.598 77.287 189.58 90.3766 184.673 95.5769C184.41 89.9089 186.942 82.1009 182.365 80.215C179.554 79.3559 179.165 83.5039 179.165 83.6615C177.61 93.1216 175.504 97.9762 173.711 97.4272C169.073 94.4941 177.63 78.8527 167.554 80.4539C167.397 80.4793 167.257 80.5693 167.169 80.7025C167.08 80.8357 167.051 80.9998 167.089 81.1554C167.246 81.7162 167.324 82.2962 167.322 82.8787C167.423 84.546 167.367 86.7624 167.291 89.3955C162.83 101.972 159.079 104.386 159.63 94.4077C160.137 85.583 162.876 80.1744 154.78 79.666C154.57 79.6306 154.357 79.7051 154.214 79.8637C154.071 80.0222 154.019 80.2429 154.076 80.4489V80.9165C147.372 78.0902 143.443 82.6093 142.38 88.6279C139.509 95.9988 137.215 99.8113 135.458 99.5368C134.056 99.2216 134.208 96.4868 134.522 92.964C136.329 70.3025 140.598 59.719 129.924 60.7357C129.719 60.7473 129.531 60.8506 129.41 61.017C129.289 61.1835 129.249 61.3956 129.301 61.5948C129.822 63.612 130.058 65.6929 130 67.7761C130.081 71.609 129.767 76.2246 129.458 80.7589C123.539 78.1817 119.377 82.4822 117.879 89.0905C109.722 110.563 109.139 98.0372 110.992 84.6731C110.724 75.1063 101.843 81.5672 100.395 89.5989C101.205 77.8055 102.385 62.9063 101.61 59.8512C100.83 56.6385 94.0152 55.2762 94.1013 57.1164C95.3823 66.9984 94.7595 82.1467 94.2836 92.0999C92.9013 97.417 91.5849 100.559 90.233 100.309C88.8811 100.06 88.4051 96.7511 88.1773 92.9386C87.9899 86.0507 87.7519 78.2579 87.3621 72.5697C89.7064 72.163 92.0507 71.7513 94.4001 71.3751C94.4001 70.6838 94.4001 69.9975 94.4001 69.479C92.0203 69.8755 89.6406 70.2924 87.2558 70.699C87.1798 68.6962 86.8912 65.4886 86.6583 65.0311C85.5747 61.7879 81.8532 61.5999 79.7469 61.7371C77.6507 62.2709 81.0228 69.0164 80.6583 71.7411C39.6456 78.8578 59.1444 49.0186 65.0988 61.2847C65.3368 64.3347 62.6887 61.6761 61.4076 61.9303C59.038 62.7487 60.5013 65.8851 63.433 65.7174C63.81 65.6921 64.1833 65.6273 64.5469 65.5242C75.1038 60.4968 63.1899 53.1564 56.5368 57.8382C52.0659 59.8715 50.4203 66.1088 53.0836 69.9874C58.2887 77.348 74.2785 74.5319 80.8102 73.6372C81.1899 77.8869 81.4279 82.7262 81.6557 87.0775C75.5798 104.829 71.4583 104.691 73.4076 89.1109C72.9823 85.3034 67.6659 85.2069 68.4051 80.0117C64.5519 78.4867 62.9469 83.57 65.7519 86.2693C63.0279 99.2267 58.157 101.692 58.157 93.2487C58.0051 88.572 60.4102 81.5316 55.6254 81.1504C55.3458 81.0617 55.0506 81.034 54.7595 81.069C54.3215 81.0561 53.8831 81.0765 53.4482 81.13C53.2415 81.188 53.0744 81.3407 52.9975 81.5418C52.2431 82.2585 51.6963 83.5345 50.6785 84.6935C49.6659 79.3814 45.919 76.3009 40.3849 78.507C53.1494 50.5945 37.3469 41.6275 31.8785 64.3042C31.2963 58.4838 34.6532 45.3739 21.676 47.6461C21.3055 47.7121 20.994 47.9629 20.8495 48.3117C20.705 48.6605 20.7475 49.0591 20.9621 49.3694C21.8639 50.7816 22.3419 52.4244 22.3393 54.1019C22.3697 57.1062 22.6532 79.9405 25.3469 95.5362C20.8912 98.7438 18.9975 106.862 24.5165 109.693C30.0355 112.525 29.3671 112.601 37.514 108.783C45.1089 106.038 51.5595 95.1448 50.9722 87.0013C51.8206 86.3299 52.6069 85.583 53.3216 84.7697C53.4076 87.3876 53.1697 91.0019 53.0988 95.2617C52.8659 101.834 57.6203 102.068 57.6203 102.068C63.8633 102.76 66.5418 90.6054 67.0937 87.6824C67.4471 87.9943 67.8228 88.2798 68.2178 88.5364C65.9646 95.4904 67.7114 109.083 76.7899 102.15C79.0633 99.2826 80.8102 95.2007 81.9494 91.9829C81.5697 109.775 90.1114 108.341 94.152 99.0996C94.2127 107.66 97.7317 116.383 99.7216 104.513C100.608 98.3778 103.98 81.7044 106.81 82.8024C106.81 82.8024 107.433 83.1125 106.967 85.6949C106.496 88.5873 103.149 101.651 107.747 103.532C109.83 104.514 112.313 103.931 113.747 102.124C115.183 100.219 116.384 98.1445 117.322 95.9479C118.294 105.291 126.066 102.134 128.547 95.709V96.9595C128.314 103.766 133.458 103.451 133.458 103.451C137.317 103.71 140.349 98.7082 142.294 94.1586C143.19 103.817 150.309 102.343 153.403 95.3939C152.577 102.892 154.456 105.652 158.233 105.484C162.096 105.073 165.154 99.9587 167.19 95.221C167.296 101.118 171.711 101.321 171.711 101.321C175.372 101.707 177.706 97.722 179.19 93.7316V99.0488C176.385 100.93 173.504 102.495 170.856 105.545C159.939 119.479 177.473 126.616 182.425 117.872C185.615 108.504 184.046 105.301 184.598 98.8759C190.886 92.4811 199.701 83.1481 198.942 73.2305V73.2305ZM85.3671 65.3717C85.3671 65.3717 85.0785 66.1291 84.1317 64.9955C83.5747 64.3652 83.3469 63.8416 82.9165 63.5875C82.9165 63.5875 85.4887 64.0195 85.3671 65.3717ZM35.8583 61.5084C35.8583 61.5084 38.5773 54.3459 41.7621 55.4999C44.9368 56.547 37.914 79.7474 33.3368 82.3399C33.3368 82.35 32.3747 68.1574 35.8583 61.5084V61.5084ZM30.0963 53.2124C30.0254 55.1593 27.7925 51.7534 27.5089 50.2539C27.5089 50.2539 30.1874 51.3417 30.0963 53.2124ZM47.3114 91.1899C44.3494 99.3792 40.0861 103.969 36.1722 106.47C35.8076 106.699 35.276 107.019 34.4912 107.436C30.076 109.581 26.8963 108.062 26.8963 108.062C23.5747 106.348 23.595 100.996 25.8836 97.9914C26.6633 101.86 32.4659 105.428 35.6152 102.541C35.7874 99.6537 34.4355 96.9799 34.2887 92.3337C38.557 90.7629 43.6659 90.9104 47.8633 88.9126C47.767 89.6915 47.5783 90.456 47.3013 91.1899H47.3114ZM47.7671 87.474C43.8279 89.7819 38.6532 89.3549 34.1925 91.0832C34.157 90.5749 34.1216 90.0411 34.0963 89.4972C34.0963 89.4972 37.2557 84.4139 41.5646 82.9956C44.876 81.8264 47.6406 83.8954 47.8937 87.3876C47.838 87.4334 47.8026 87.4334 47.757 87.474H47.7671ZM57.5545 85.1459C57.1646 83.3464 55.2912 82.6449 55.4482 82.5635C58.3241 81.9383 57.5444 85.1459 57.5444 85.1459H57.5545ZM67.595 80.825C67.6545 81.5087 67.7577 82.1879 67.9039 82.8584C67.9849 83.1888 66.1925 82.2534 67.595 80.825ZM99.2406 59.8563C98.7747 59.231 98.5418 58.6058 98.152 58.3719C98.152 58.3719 100.643 58.9972 100.486 60.329C100.491 60.329 100.101 61.1068 99.2406 59.8563V59.8563ZM109.742 83.8191C109.352 82.0196 107.479 81.2368 107.635 81.1554C110.527 80.6115 109.747 83.8191 109.747 83.8191H109.742ZM128.906 87.6519C119.792 115.554 118.957 86.5641 126.101 82.1721C128.749 81.6282 129.063 84.5206 129.063 86.1625C128.987 86.6353 128.987 87.1792 128.911 87.6519H128.906ZM133.671 62.6979C133.671 62.6979 136.086 63.6332 135.696 64.965C135.696 64.965 135.225 65.6665 134.527 64.3398C134.208 63.6332 134.056 63.0334 133.671 62.6979V62.6979ZM153.924 87.6519C153.377 89.5277 150.572 99.0742 148.157 99.0742C145.261 99.0132 149.23 74.481 154.157 84.5206C154.076 85.5373 154 86.5539 153.924 87.6519ZM158.522 84.363C158.132 82.4873 156.339 81.7858 156.496 81.7044C159.377 81.1554 158.522 84.3834 158.522 84.3834V84.363ZM171.605 84.8358C171.22 83.0363 169.347 82.3297 169.504 82.2484C172.39 81.7045 171.605 84.8358 171.605 84.8358ZM176.668 119.641C172.851 120.114 166.461 109.632 177.605 102.668C178.147 102.358 178.618 102.043 179.084 101.728C178.871 104.117 179.868 117.735 176.673 119.641H176.668ZM183.838 84.2105C183.6 85.6186 182.825 82.1772 182.511 82.0145C182.517 82.0145 184.152 82.8024 183.843 84.2105H183.838Z" fill="#FF5D57"/>
<path d="M38.2886 42.1917C41.4177 42.1155 41.4936 37.4286 38.2886 37.2761C35.1595 37.3371 35.0936 42.0189 38.2886 42.1917ZM40.2481 40.2651C38.7291 41.846 39.919 38.6944 38.1671 37.7235C38.1671 37.6879 40.3493 37.6879 40.2481 40.2499V40.2651Z" fill="#FF5D57"/>
<path d="M77.2759 112.138C74.1519 112.215 74.081 116.901 77.2759 117.054C80.4051 116.978 80.5063 112.296 77.2759 112.138ZM78.3899 115.473C77.9443 115.046 78.8253 113.506 77.1544 112.565C77.3975 111.864 80.9215 115.204 78.3899 115.473Z" fill="#FF5D57"/>
<path d="M180.299 40.6362C184.734 38.8164 182.218 32.4724 177.878 33.8856C173.448 35.7003 175.975 42.0392 180.299 40.6362V40.6362ZM182.041 37.0169C180.663 40.199 180.886 34.7853 177.924 34.5311C177.924 34.5311 180.922 33.4484 182.041 37.0169Z" fill="#FF5D57"/>
<path d="M3.62025 68.7521L4.5924 67.7151L3.18481 67.9032L3.13924 66.4697L2.27342 67.6084L1.23544 66.6273L1.42278 68.0456L0 68.0913L1.12911 68.9606L0.156962 70.0026L1.56962 69.8095L1.61013 71.243L2.47595 70.1043L3.51392 71.0854L3.32658 69.6671L4.74937 69.6214L3.62025 68.7521Z" fill="#FF5D57"/>
<path d="M91.3722 117.054L92.4101 118.03L93.276 116.896L93.3215 118.325L94.7342 118.137L93.757 119.179L94.8861 120.048L93.4633 120.089L93.6506 121.507L92.6127 120.526L91.7468 121.665L91.7063 120.236L90.2937 120.424L91.2709 119.382L90.1367 118.513L91.5646 118.472L91.3722 117.054Z" fill="#FFAA00"/>
<path d="M156.456 43.0406C156.886 36.7932 160.714 27.694 156.278 25.5336C153.595 24.339 152.734 28.4108 152.699 28.5836C150.025 37.7946 147.357 42.3594 145.646 41.5969C141.823 39.6043 149.696 27.5822 143.711 26.1436C142.344 25.5975 140.862 25.4069 139.402 25.5895C138.519 25.6603 137.651 25.8607 136.825 26.1843C134.04 22.8039 129.777 26.352 128.218 29.3563C128.218 28.5734 128.294 27.8719 128.294 27.1653C128.218 22.8649 124.942 22.4734 123.23 22.5497C123.014 22.5462 122.807 22.6424 122.67 22.8108C122.533 22.9792 122.48 23.2014 122.527 23.4139C122.653 24.1133 122.717 24.8227 122.719 25.5336C121.49 25.6472 120.29 25.9776 119.175 26.5096C116.192 23.0021 112.03 26.8553 110.613 30.0679C110.562 29.2902 110.613 28.5785 110.552 27.877C110.197 23.5918 106.906 23.4088 105.2 23.5969C104.984 23.6068 104.785 23.7157 104.659 23.8923C104.534 24.0689 104.496 24.2935 104.557 24.5017C105.347 29.036 104.891 30.5712 105.038 34.1956C100.162 47.1581 97.1746 46.0804 98.1113 36.0002C98.962 27.3026 100.451 23.3579 93.1544 22.814C92.9447 22.7776 92.7312 22.8522 92.5892 23.0113C92.4472 23.1703 92.3967 23.3916 92.4556 23.5969V24.0645C86.3139 21.4822 82.4202 25.0202 80.9924 30.6017C80.486 30.0324 79.6303 29.585 78.162 29.4376C75.7721 14.1114 77.4683 0.254184 71.5088 0.289767C69.9443 0.289767 67.0683 0.11185 67.281 1.76393C68.2936 8.29602 69.9898 18.2593 70.7341 30.1594C68.167 30.7186 64.7797 31.4811 61.7822 32.0199C60.405 24.827 60.4354 15.1839 58.0253 8.30618C56.7139 6.13052 53.4683 6.93877 53.2506 10.7462C53.286 13.9944 57.8075 26.1233 58.6632 32.7672C55.8886 33.1027 51.6962 32.9044 51.3468 29.2343C51.3436 28.7967 51.4334 28.3635 51.6101 27.9634C52.4101 27.1806 52.0506 28.1159 52.8354 29.0869C56.086 32.0098 58.7898 27.2518 55.9291 25.9047C44.7898 23.5003 44.8759 38.2521 58.3746 36.0714C58.6177 36.0714 58.881 36.0409 59.1291 36.0104C60.4253 46.4566 62.2278 55.7083 63.7417 54.9661C63.7417 54.9661 64.8253 54.8034 64.4556 52.887C64.3291 52.0483 63.4126 44.7181 62.2075 35.4614C64.6886 34.9174 67.9291 34.2617 71.0227 33.7991C71.4075 45.6941 74.2329 53.6241 81.367 52.2414C81.7127 52.1574 82.0018 51.9207 82.1533 51.5977C82.3048 51.2747 82.3024 50.9002 82.1468 50.5792C80.805 47.8647 79.6151 40.9209 78.6025 33.0925C79.2645 33.1431 79.9176 33.2763 80.5468 33.489C79.6354 44.4995 86.7848 48.2968 91.7265 38.4859C90.9012 45.9889 92.7797 48.7441 96.5569 48.5814C100.142 48.1951 103.033 43.7726 105.053 39.3501C105.094 45.9584 105.053 53.0344 104.587 59.4089C104.5 61.5105 104.134 63.591 103.499 65.5954C103.436 65.7636 103.459 65.9518 103.56 66.1003C103.66 66.2487 103.826 66.3391 104.005 66.3426C105.889 66.4595 110.319 66.1749 111.261 62.586C111.62 60.9136 111.489 53.9444 111.205 45.8924C119.195 48.6119 122.851 33.4941 120.066 28.0295C120.87 27.6169 121.76 27.3993 122.663 27.3941C122.101 36.966 121.706 48.0985 120.304 58.2703C120.085 60.3609 119.588 62.4125 118.825 64.3703C118.75 64.5359 118.761 64.7281 118.854 64.8844C118.947 65.0407 119.11 65.1411 119.291 65.1531C121.165 65.392 125.605 65.392 126.775 61.8693C127.24 60.2274 127.554 53.2632 127.787 45.2061C135.747 48.4747 140.359 33.1027 137.625 27.5669C138.218 27.3832 138.843 27.3294 139.458 27.4094C139.772 27.4704 140.82 27.8313 140.704 29.6206C140.466 31.7353 140.005 33.9313 139.463 37.9064C138.451 44.408 143.139 45.2112 143.139 45.2112C146.724 46.0398 149.519 42.3594 151.468 38.5724C151.256 40.3617 151.053 42.0697 150.835 43.8539C147.823 45.3789 144.759 46.5888 141.782 49.3033C129.63 61.3813 145.028 70.882 151.615 63.2265C156.04 54.5849 154.886 50.8537 156.172 44.8198C169.251 41.5664 177.732 50.1014 171.823 55.8506C167.772 57.7467 165.24 53.5529 163.109 54.2189C160.754 54.9458 161.559 57.4874 162.511 58.1737C163.676 59.0175 167.342 58.6363 167.342 58.6363C175.889 58.8447 179.762 51.2451 174.086 45.6534C169.797 41.6834 162.228 41.9528 156.456 43.0406V43.0406ZM72.2987 2.72468C71.8667 2.16136 71.3009 1.7157 70.6531 1.42843C70.6531 1.42843 73.762 1.64702 73.7215 3.1161C73.7215 3.1161 73.5696 3.82268 72.2987 2.72468ZM92.2784 30.7542C91.7316 32.6299 88.9265 42.1917 86.5113 42.1917C83.6151 42.1307 87.5848 17.5985 92.5113 27.6381C92.4354 28.6395 92.3544 29.6562 92.2784 30.7542ZM96.8759 27.45C96.486 25.5692 94.6936 24.8677 94.8506 24.7864C97.7215 24.2628 96.8759 27.45 96.8759 27.45ZM116.354 27.2823C116.643 27.3005 116.909 27.4479 117.078 27.6839C114.872 29.3407 112.931 31.3257 111.321 33.5704C112.218 31.3337 114.177 27.2619 116.354 27.3026V27.2823ZM109.534 26.8603C109.61 28.1108 107.868 25.2439 107.392 25.1168C107.392 25.1371 109.443 25.4777 109.534 26.8807V26.8603ZM113.843 44.1437C112.289 44.8604 111.504 42.4611 111.159 40.7277C111.666 36.1527 114.496 32.8943 117.742 29.6562C118.329 34.0177 116.532 42.9237 113.843 44.164V44.1437ZM134.096 26.9671C134.297 26.9918 134.484 27.083 134.628 27.2264C132.443 28.6345 130.507 30.3989 128.901 32.4469C130.03 30.2255 132.091 26.8197 134.111 26.9874L134.096 26.9671ZM127.332 26.1284C127.332 27.3789 125.777 24.4102 125.306 24.2526C125.306 24.2526 127.332 24.7203 127.332 26.1284ZM130.527 43.6506C128.699 44.3572 128.142 41.053 127.995 39.3654C129.109 35.0547 131.813 31.8928 135.281 28.8428C135.883 32.9502 133.428 42.5374 130.527 43.6506ZM143.083 27.8262C145.99 27.6381 144.851 30.6373 144.851 30.6373C144.699 28.8429 143.013 27.9228 143.083 27.8262ZM150.081 49.6083C150.081 49.6083 148.597 63.9229 145.919 63.9941C142.076 63.9941 136.982 52.8108 148.871 47.2547C149.453 47.0056 149.954 46.7464 150.456 46.4973C150.329 47.5038 150.213 48.5204 150.081 49.6083ZM157.261 29.6664C156.861 31.0439 156.496 27.5314 156.208 27.3331C156.208 27.3331 157.742 28.3142 157.261 29.6664ZM171.716 55.9167L171.666 55.9472L171.716 55.9167Z" fill="#00C6DB"/>
<path d="M144.719 2.48575L143.742 3.52783L145.154 3.33975L145.2 4.76817L146.066 3.63458L147.104 4.61058L146.911 3.19742L148.339 3.15167L147.205 2.28242L148.182 1.24033L146.77 1.42842L146.729 0L145.863 1.13358L144.825 0.157583L145.013 1.57583L143.59 1.6165L144.719 2.48575Z" fill="#00C6DB"/>
<path d="M199.949 114.517L199.332 114.045L199.868 113.475L199.094 113.577L199.068 112.799L198.597 113.419L198.03 112.881L198.132 113.658L197.357 113.684L197.975 114.156L197.443 114.726L198.213 114.624L198.238 115.402L198.709 114.782L199.276 115.315L199.175 114.543L199.949 114.517Z" fill="#00C6DB"/>
<path d="M121.316 13.2166C124.445 13.1404 124.521 8.45353 121.316 8.30103C118.187 8.37219 118.116 13.0539 121.316 13.2166ZM123.276 11.29C121.757 12.8709 122.947 9.71928 121.195 8.74836C121.195 8.72294 123.377 8.72294 123.276 11.2849V11.29Z" fill="#00C6DB"/>
<path d="M12.6582 72.6917C10.7645 72.6917 10.2835 75.8586 12.6582 76.0823C14.567 76.0924 15.0582 72.9102 12.6582 72.6917ZM13.4227 74.9944C13.1189 74.6996 13.7215 73.6372 12.5721 72.9865C12.4708 72.4832 15.3063 74.6843 13.443 74.9842L13.4227 74.9944Z" fill="#00C6DB"/>
<path d="M50.1266 117.964C48.238 117.964 47.7519 121.126 50.1266 121.354C52.0203 121.37 52.5114 118.188 50.1266 117.964ZM50.8962 120.262C50.5874 119.967 51.195 118.904 50.0456 118.259C49.919 117.761 52.7544 119.967 50.8962 120.262Z" fill="#00C6DB"/>
<path d="M170.005 69.7382L170.982 68.6961L169.57 68.8842L169.524 67.4558L168.658 68.5894L167.62 67.6134L167.808 69.0266L166.385 69.0723L167.519 69.9416L166.542 70.9836L167.954 70.7956L167.995 72.224L168.861 71.0853L169.899 72.0664L169.711 70.6481L171.134 70.6075L170.005 69.7382Z" fill="#00C6DB"/>
<path d="M194.481 31.8929L195.458 30.8508L194.045 31.0389L194.005 29.6105L193.139 30.7441L192.101 29.763L192.288 31.1812L190.866 31.227L191.995 32.0962L191.018 33.1383L192.43 32.9502L192.476 34.3786L193.342 33.24L194.38 34.2211L194.192 32.8028L195.615 32.7621L194.481 31.8929Z" fill="#00C6DB"/>
</svg>
