<svg width="190" height="190" viewBox="0 0 190 190" fill="none" xmlns="http://www.w3.org/2000/svg">
<path fill-rule="evenodd" clip-rule="evenodd" d="M174.763 131.235C179.421 130.925 183.963 133.217 186.53 136.421C189.097 139.623 190.402 143.641 189.766 147.422C188.04 157.686 177.814 158.801 159.331 158.302C149.477 158.037 141.703 166.328 139.485 170.197L139.393 170.36L139.442 170.244C140.366 167.898 140.907 156.898 144.499 156.217C154.488 148.477 197.999 155.092 167.358 136.828C172.562 137.142 177.662 138.567 182.018 140.923C181.906 136.953 179.031 133.112 174.763 131.235V131.235Z" fill="#AB7CE8"/>
<path fill-rule="evenodd" clip-rule="evenodd" d="M38.9599 65.3179C39.4699 64.6109 44.5289 66.1269 46.3339 66.7199C47.9959 66.7549 53.0819 70.5929 54.6569 67.6529C53.4239 64.6799 38.8249 62.5819 38.9599 65.3179" fill="#9CEBEF"/>
<path fill-rule="evenodd" clip-rule="evenodd" d="M54.8522 73.5972C52.8652 73.8252 30.2432 74.4362 39.1372 76.6422C42.8242 76.7132 61.1172 77.4482 54.8522 73.5972" fill="#9CEBEF"/>
<path fill-rule="evenodd" clip-rule="evenodd" d="M54.2245 80.6675C51.7185 81.8045 40.1495 86.3565 41.9185 87.9265C44.8195 87.8185 59.5785 83.6155 54.2245 80.6675Z" fill="#9CEBEF"/>
<path fill-rule="evenodd" clip-rule="evenodd" d="M153.831 74.474C149.717 72.362 144.168 72.855 139.048 72.249C136.963 72.984 156.355 77.722 153.831 74.474Z" fill="#9CEBEF"/>
<path fill-rule="evenodd" clip-rule="evenodd" d="M135.17 77.5415C133.714 78.0585 137.001 79.8805 138.392 81.2975C158.219 95.5235 143.857 79.6255 135.17 77.5415Z" fill="#9CEBEF"/>
<path fill-rule="evenodd" clip-rule="evenodd" d="M150.827 63.7212C148.829 63.7012 138.053 66.5792 140.238 68.4882C141.627 67.4952 153.877 66.1162 150.827 63.7212" fill="#9CEBEF"/>
<path fill-rule="evenodd" clip-rule="evenodd" d="M41.8755 125.807C46.2765 144.621 48.3175 167.912 53.3385 187.849C53.5555 188.708 121.491 190.799 136.813 186.392C143.09 163.486 143.701 150.948 149.048 128.101C121.751 117.314 69.8665 116.223 41.8755 125.807" fill="#FFD320"/>
<path fill-rule="evenodd" clip-rule="evenodd" d="M129.379 122.668C130.738 187.749 98.7843 179.701 52.4253 184.046C52.7183 185.325 53.0233 186.594 53.3383 187.849C53.5553 188.708 121.491 190.799 136.814 186.392C143.09 163.485 143.701 150.947 149.048 128.101C143.403 125.87 136.697 124.062 129.379 122.668" fill="#F4C500"/>
<path fill-rule="evenodd" clip-rule="evenodd" d="M148.168 128.735C148.512 128.628 148.754 128.637 148.9 128.752L148.761 129.337L148.418 130.84C148.362 131.088 148.307 131.334 148.252 131.58C143.313 141.451 117.097 173.834 98.8593 189.079C96.5168 189.097 94.1642 189.105 91.8303 189.103L100.63 180.844C117.852 164.645 134.817 148.14 148.168 128.735V128.735ZM128.397 122.956L128.741 122.54C129.361 122.655 129.976 122.773 130.586 122.894C122.049 141.315 98.2438 164.925 79.3207 184.001C78.7396 185.075 76.5723 186.957 73.9179 188.887L72.0732 188.843C69.6512 188.782 67.3835 188.714 65.3197 188.64C87.5551 168.945 108.045 147.363 126.911 124.744L128.741 122.54L128.397 122.956ZM143.201 162.861L141.993 164.114C141.695 165.649 141.384 167.203 141.054 168.79C137.384 174.061 130.585 181.884 124.316 188.171C122.079 188.344 119.67 188.489 117.138 188.609C125.056 181.333 132.563 173.843 139.851 166.329L141.993 164.114L143.201 162.861ZM107.835 120.988L108.735 119.96C109.608 120.028 110.479 120.102 111.346 120.181C94.7986 143.561 74.4223 164.334 51.9965 182.134C51.6174 180.418 51.2575 178.684 50.9117 176.935C71.4868 159.879 90.2189 141.063 107.835 120.988L108.735 119.96L107.835 120.988ZM48.7091 161.096L48.1771 161.433L47.7455 158.745C64.6517 142.235 73.683 127.768 78.8957 119.572C80.763 119.474 82.6472 119.399 84.5411 119.347C78.9729 135.668 61.8153 152.673 48.7091 161.096ZM44.0879 136.543L44.4751 136.245L45.1854 135.689C45.9909 135.052 46.7074 134.461 47.2557 133.944C51.5651 130.087 55.6167 125.892 59.238 121.629C60.0116 121.503 60.7942 121.381 61.5837 121.265C59.1305 125.988 51.6145 135.196 44.8511 140.838C44.6027 139.393 44.3487 137.96 44.0879 136.543V136.543Z" fill="#FF5084"/>
<path fill-rule="evenodd" clip-rule="evenodd" d="M53.0933 150.129C53.0443 146.636 48.2003 119.88 47.3013 131.088C48.6853 147.628 52.3583 174.402 55.4783 173.709C57.5963 167.255 53.4743 157.437 53.0933 150.129Z" fill="white"/>
<path fill-rule="evenodd" clip-rule="evenodd" d="M94.0747 189.361C95.7037 162.748 86.4497 124.739 54.3847 133.084C27.5527 143.806 7.45975 153.798 11.0957 115.723C7.00975 126.094 3.53175 129.137 3.51275 115.771C-4.20325 134.259 6.04375 153.79 25.4187 150.778C68.8707 137.394 89.4167 143.743 88.3327 189.266L94.0747 189.361Z" fill="#D2ACF5"/>
<path fill-rule="evenodd" clip-rule="evenodd" d="M85.7173 157.09C73.2403 126.125 50.7573 142.106 29.2993 146.093C9.03429 148.365 2.03829 132.28 3.51329 115.771C-4.20371 134.259 6.04329 153.789 25.4183 150.778C68.8703 137.394 89.4163 143.742 88.3323 189.266C97.8393 191.348 93.3323 183.145 94.0693 177.437C93.3123 163.68 92.7083 164.617 85.7173 157.09" fill="#AB7CE8"/>
<path fill-rule="evenodd" clip-rule="evenodd" d="M140.445 28.7816C136.401 45.8506 123.273 51.7326 108.275 53.0456C130.638 53.4686 150.402 55.3796 155.533 56.6996C157.919 47.0716 160.365 40.1426 162.089 30.4346C154.917 29.8866 147.697 29.3076 140.445 28.7816Z" fill="#F4C500"/>
<path fill-rule="evenodd" clip-rule="evenodd" d="M159.917 87.4867C154.847 87.2997 154.026 95.7577 159.917 96.1267C164.987 96.3117 165.807 87.8547 159.917 87.4867Z" fill="#FF5084"/>
<path fill-rule="evenodd" clip-rule="evenodd" d="M167.999 102.363C166.63 100.682 164.061 104.014 166.97 104.849C167.75 104.811 168.824 103.709 167.999 102.363Z" fill="#9CEBEF"/>
<path fill-rule="evenodd" clip-rule="evenodd" d="M175.026 90.728C173.399 87.465 167.13 90.637 170.682 94.409C172.821 96.395 176.516 93.67 175.026 90.728Z" fill="#FAD61D"/>
<path fill-rule="evenodd" clip-rule="evenodd" d="M152.361 67.0687C149.688 67.0667 148.605 71.6687 152.362 72.2137C155.034 72.2147 156.117 67.6147 152.361 67.0687Z" fill="#D2ACF5"/>
<path fill-rule="evenodd" clip-rule="evenodd" d="M23.7994 95.2329C19.1614 96.6599 20.6504 103.714 25.8244 102.83C30.4614 101.403 28.9734 94.3479 23.7994 95.2329Z" fill="#FAD61D"/>
<path fill-rule="evenodd" clip-rule="evenodd" d="M16.9682 86.8852C14.3722 87.5762 15.4442 91.6122 18.0432 90.9182C20.6382 90.2272 19.5682 86.1932 16.9682 86.8852Z" fill="#D2ACF5"/>
<path fill-rule="evenodd" clip-rule="evenodd" d="M28.0357 87.3335C25.6967 87.9555 25.8207 92.2345 29.2357 91.8365C31.5747 91.2145 31.4497 86.9365 28.0357 87.3335Z" fill="#FF5084"/>
<path fill-rule="evenodd" clip-rule="evenodd" d="M20.7153 70.2036C18.7123 70.0286 16.4983 72.6666 17.8813 75.0996C22.3163 80.2606 27.0753 71.3206 20.7153 70.2036Z" fill="#9CEBEF"/>
<path fill-rule="evenodd" clip-rule="evenodd" d="M37.6315 114.409C34.9645 115.785 31.3435 116.815 27.8355 115.715C32.5195 109.627 21.6745 108.122 25.1095 115.509C20.3135 116.642 17.8405 108.709 24.1535 107.179C24.2305 106.77 22.9065 106.626 21.9665 106.802C17.8025 108.138 17.5145 116.055 22.3445 117.062C26.3435 117.442 38.7895 118.659 37.6315 114.409Z" fill="#D2ACF5"/>
<path fill-rule="evenodd" clip-rule="evenodd" d="M171.017 118.828C169.227 119.621 167.269 120.224 165.301 119.904C171.347 112.381 156.426 112.739 161.746 120.001C159.156 121.075 155.659 118.332 153.494 117.951C154.789 123.86 176.365 121.37 171.017 118.828" fill="#D2ACF5"/>
<path fill-rule="evenodd" clip-rule="evenodd" d="M94.7562 26.1576C84.5812 23.5926 65.5362 25.4776 66.0122 19.8156C67.6772 3.35059 75.5862 2.85459 83.8512 4.96759C84.8622 6.57659 94.2702 21.7406 94.7562 26.1576" fill="#D2ACF5"/>
<path fill-rule="evenodd" clip-rule="evenodd" d="M83.7674 4.83142C83.7674 4.83142 75.4804 5.28242 73.1634 6.01242C88.4944 21.6854 84.9514 21.3704 66.5684 22.0324C74.7524 24.7754 85.8764 24.3664 94.7564 26.1574C94.3014 21.5694 83.7674 4.83142 83.7674 4.83142Z" fill="#AB7CE8"/>
<path fill-rule="evenodd" clip-rule="evenodd" d="M94.6764 26.4906C88.1264 13.2196 73.6634 11.2636 72.9014 5.13664C95.9504 -8.89836 93.3914 11.0616 94.7564 26.1576" fill="#FF5084"/>
<path fill-rule="evenodd" clip-rule="evenodd" d="M83.065 12.8511C82.275 7.7151 85.133 3.0971 89.455 0.678101C73.106 1.7921 65.872 4.6631 83.329 14.1681C83.224 13.7341 83.133 13.2951 83.065 12.8511Z" fill="#E52C73"/>
<path fill-rule="evenodd" clip-rule="evenodd" d="M93.6926 25.4868C92.3176 28.1568 109.119 27.0758 120.584 27.0158C125.683 26.7428 128.636 28.8248 128.634 22.9108C128.866 18.1948 126.662 10.7008 124.464 10.9958C118.202 10.9258 93.7706 25.4658 93.6926 25.4868" fill="#D2ACF5"/>
<path fill-rule="evenodd" clip-rule="evenodd" d="M125.737 11.477C125.235 10.706 123.464 10.919 121.001 11.72C125.992 23.766 110.416 25.675 101.948 27.274C123.933 26.03 134.714 32.786 125.737 11.477" fill="#AB7CE8"/>
<path fill-rule="evenodd" clip-rule="evenodd" d="M94.2875 24.9662C100.947 19.0102 103.187 8.82025 111.218 3.40525C118.038 -3.20376 128.265 6.47225 124.734 14.0432C117.764 19.1852 93.3265 28.6112 93.6925 25.4872" fill="#FF5084"/>
<path fill-rule="evenodd" clip-rule="evenodd" d="M124.773 8.09322C122.968 3.96522 119.504 -0.750778 114.304 1.83022C118.733 12.6102 108.402 21.8462 98.5562 25.5422C106.023 21.4202 130.935 17.1582 124.773 8.09322" fill="#E52C73"/>
<path fill-rule="evenodd" clip-rule="evenodd" d="M71.6598 9.75429C68.7468 8.78129 64.3928 21.1103 69.0158 18.9583C69.6988 16.5043 70.0868 12.4423 71.6598 9.75429" fill="white"/>
<path fill-rule="evenodd" clip-rule="evenodd" d="M28.8364 36.4291C30.5504 43.1191 34.9154 55.0101 38.0604 61.1591C63.7484 48.1361 144.356 53.8251 155.532 56.7001C157.918 47.0721 160.364 40.1431 162.088 30.4351C118.281 27.0861 72.6804 22.5481 28.8364 36.4291" fill="#FED519"/>
<path fill-rule="evenodd" clip-rule="evenodd" d="M46.8737 57.9074L46.239 58.0826C43.992 58.7216 41.9297 59.4315 40.0863 60.2182C52.8612 47.9471 60.8767 36.5846 66.0629 28.663C68.196 28.4198 70.3319 28.2055 72.4691 28.0187C67.1506 39.4348 56.6711 50.5238 46.8737 57.9074V57.9074ZM158.705 42.9828L159.418 42.261C158.797 44.5958 158.147 46.9043 157.484 49.3075C155.493 51.551 153.383 53.8154 151.31 55.9284L150.39 55.7979C149.121 55.6234 147.683 55.4475 146.097 55.273C150.436 51.2305 154.617 47.1139 158.705 42.9828L159.418 42.261L158.705 42.9828ZM95.8356 26.968L96.4826 26.965C88.4817 36.4346 78.7635 45.7332 69.4249 54.1864C66.9592 54.4132 64.5518 54.6767 62.2201 54.9791C72.2682 46.1546 81.9193 36.7666 91.1565 27.0348C92.1959 27.012 93.2357 26.9949 94.2756 26.9827L96.4826 26.965L95.8356 26.968ZM150.145 32.5692L152.908 29.7244L154.723 29.8655C152.748 34.4386 142.088 46.7148 134.046 54.2008L131.767 54.0428C130.609 53.9655 129.423 53.8908 128.212 53.8194C135.962 46.9207 143.159 39.7357 150.145 32.5692ZM134.165 28.5562L134.326 28.3522C135.245 28.414 136.163 28.477 137.082 28.5411C131.986 35.7193 124.125 45.4809 117.183 53.293C115.526 53.2316 113.841 53.1778 112.137 53.1322C119.947 45.321 127.323 37.1448 134.165 28.5562L134.326 28.3522L134.165 28.5562ZM111.937 27.3145L112.042 27.1935C113.726 27.2487 115.41 27.3128 117.093 27.3847C110.966 35.713 103.056 44.5025 94.8652 52.9835C92.4686 53.0085 90.0694 53.0547 87.6814 53.1241C96.0615 44.77 104.146 36.1505 111.937 27.3145L112.042 27.1935L111.937 27.3145ZM50.1664 31.069L51.2456 30.8663C48.0079 36.0178 40.5232 44.257 36.1095 47.811C34.961 48.5448 33.9746 49.1362 33.1362 49.601C32.7592 48.5934 32.3893 47.5804 32.0322 46.5759C33.9019 44.6755 36.4632 42.5122 39.0405 40.843C42.3888 37.8697 45.547 34.6691 48.4342 31.4089C49.0103 31.2921 49.5882 31.1792 50.1664 31.069L51.2456 30.8663L50.1664 31.069Z" fill="#FF5084"/>
<path fill-rule="evenodd" clip-rule="evenodd" d="M71.0599 29.7894C49.6009 33.9114 23.4389 33.8954 39.5769 53.7964C39.5169 39.7664 34.7799 40.3954 51.1659 36.4674C57.4199 34.4774 76.1569 32.9674 71.0599 29.7894" fill="white"/>
<path fill-rule="evenodd" clip-rule="evenodd" d="M82.5582 29.4926C80.8012 28.8816 77.6452 28.4626 75.1112 29.9906C72.5722 33.4926 85.3342 31.9316 82.5582 29.4926Z" fill="white"/>
<path fill-rule="evenodd" clip-rule="evenodd" d="M53.2678 102.868C51.2768 96.6066 42.8628 111.282 51.5398 106.454C52.2628 105.547 53.3698 105.04 53.2678 102.868ZM50.5188 97.6096C49.4778 95.4126 45.5358 97.5976 47.3788 101.144C47.8568 100.807 47.3478 101.552 49.4268 99.7066C49.6638 99.3076 50.5218 98.9426 50.5188 97.6096V97.6096ZM56.3668 102.839C57.6878 104.115 48.5998 115.248 45.9118 108.952C45.6518 106.088 39.9128 91.1416 52.3238 94.7796C53.1638 95.5566 53.6828 97.0766 52.5698 99.0636C54.1568 99.2576 55.7308 100.174 56.3668 102.839" fill="#FC4F84"/>
<path fill-rule="evenodd" clip-rule="evenodd" d="M68.884 105.771C68.92 106.621 59.984 109.876 59.855 106.211C63.474 105.833 61.823 101.01 61.226 94.4069C54.012 97.3509 60.58 88.7489 66.354 91.8269C66.742 93.3409 63.688 92.6119 63.831 94.6189C64.432 97.5649 63.496 102.204 65.617 105.049C66.608 105.033 68.738 103.462 68.884 105.771" fill="#FC4F84"/>
<path fill-rule="evenodd" clip-rule="evenodd" d="M78.8224 93.1195C79.3994 91.8835 75.3494 90.7215 74.2504 93.1665C73.3624 96.6395 76.5454 97.8485 78.8224 93.1195ZM83.0744 103.828C82.2204 107.118 78.8504 101.395 74.5984 99.3475C75.7164 104.848 71.2324 110.825 71.9474 98.6495C72.8664 96.6925 69.7524 92.2885 72.7774 90.1455C78.2334 87.3745 86.5844 92.8225 77.0964 98.1755C78.6024 99.4495 82.7064 100.503 83.0744 103.828" fill="#FC4F84"/>
<path fill-rule="evenodd" clip-rule="evenodd" d="M97.6547 90.0375C97.5677 92.6445 93.7477 89.3035 93.2507 92.5745C92.2097 93.2255 94.1047 105.405 89.5277 104.437C87.6247 102.628 92.6197 93.6055 89.0497 91.3475C88.3647 91.0965 86.5707 92.3025 86.0277 90.9655C84.2587 89.5615 96.0357 86.6995 97.6547 90.0375Z" fill="#FC4F84"/>
<path fill-rule="evenodd" clip-rule="evenodd" d="M109.643 102.493C109.587 104.346 106.56 106.238 107.037 101.348C107.095 99.6217 107.806 97.8707 103.117 98.5987C101.241 98.4617 103.331 102.112 101.59 104.368C99.1949 104.948 99.2319 100.96 99.8669 97.9177C100.982 96.0537 99.4239 89.2987 103.009 88.9717C104.863 89.9967 103.503 92.5547 103.035 95.6057C107.622 95.2857 107.319 98.0127 107.918 89.5777C111.222 87.2457 110.359 95.7577 109.643 102.493" fill="#FC4F84"/>
<path fill-rule="evenodd" clip-rule="evenodd" d="M122.826 96.0248C124.241 93.8298 116.641 86.7608 115.73 101.233C114.623 103.78 120.802 101.95 122.826 96.0248ZM125.193 96.9548C125.372 102.717 109.518 112.23 113.479 99.2178C114.746 96.3988 113.18 86.7598 122.718 90.7348C124.561 91.9538 125.801 93.9928 125.193 96.9548Z" fill="#FC4F84"/>
<path fill-rule="evenodd" clip-rule="evenodd" d="M134.153 101.147C134.173 100.522 134.527 100.411 134.15 95.676C132.616 96.335 127.099 104.419 134.153 101.147ZM136.416 108.185C131.283 111.292 139.11 102.361 128.545 104.797C127.981 104.751 127.925 107.3 126.481 107.056C121.796 108.965 140.321 72.568 136.416 108.185Z" fill="#FC4F84"/>
<path fill-rule="evenodd" clip-rule="evenodd" d="M151.027 98.3403C148.096 102.069 144.107 105.639 140.634 110.246C138.367 110.188 138.288 107.696 142.557 103.727C139.43 104.589 140.733 91.5203 143.847 96.1853C144.098 96.9863 142.455 99.0923 143.425 101.163C144.822 103.654 149.969 92.0373 151.027 98.3403Z" fill="#FC4F84"/>
<path fill-rule="evenodd" clip-rule="evenodd" d="M76.4935 76.2748C76.8755 77.3478 75.0115 80.9988 73.7935 76.5048C73.3195 76.1308 74.0815 73.2378 72.2365 73.2748C68.9085 74.1018 67.9535 73.1528 69.3055 79.3768C69.2325 79.8788 68.6805 81.1398 67.2545 79.8188C66.9965 81.1648 62.4395 62.3678 67.3575 65.0198C68.6355 66.2428 68.0545 68.3088 68.2395 70.9458C73.6515 70.4218 72.2645 71.3998 71.7765 63.5848C75.3685 62.8988 75.0615 69.1388 76.4935 76.2748" fill="#9CEBEF"/>
<path fill-rule="evenodd" clip-rule="evenodd" d="M86.3726 70.2973C86.2166 69.6843 86.5296 69.4793 84.8426 64.9853C83.5356 66.0533 80.4356 75.4453 86.3726 70.2973ZM90.5346 76.5013C87.9536 79.9383 89.0826 74.1433 86.5486 73.9363C85.1236 74.2163 81.2556 74.1893 81.2536 77.8523C80.9426 78.0103 80.9106 78.4783 79.9056 77.9323C77.2166 80.2203 84.3596 41.2703 90.5346 76.5013Z" fill="#9CEBEF"/>
<path fill-rule="evenodd" clip-rule="evenodd" d="M101.45 65.8813C101.884 62.1663 95.1318 62.3483 96.7668 68.8223C98.1458 68.5563 100.669 68.3243 101.45 65.8813ZM103.805 66.3793C104.133 70.1773 98.3488 70.4193 96.3188 72.6613C95.9288 73.5723 97.4298 78.7463 93.8248 77.1963C93.7838 73.0123 93.5898 66.9213 95.3458 62.0423C97.7918 60.7093 104.312 61.0643 103.805 66.3793Z" fill="#9CEBEF"/>
<path fill-rule="evenodd" clip-rule="evenodd" d="M113.821 67.1088C109.4 69.6518 108.894 69.6188 110.395 69.4938C114.588 63.4478 107.844 63.0218 108.894 69.6188C111.336 69.0748 113.073 69.0658 113.821 67.1088ZM116.123 67.8158C116.107 71.6278 110.328 71.3498 108.102 73.4018C107.634 74.2748 108.665 79.5618 105.213 77.6948C105.547 73.5228 105.899 67.4398 108.087 62.7388C110.642 61.6298 117.102 62.5668 116.123 67.8158Z" fill="#9CEBEF"/>
<path fill-rule="evenodd" clip-rule="evenodd" d="M128.824 67.308C126.104 71.253 122.303 75.104 119.092 79.969C116.801 80.054 116.566 77.544 120.621 73.273C116.962 74.299 118.851 60.015 121.434 66.071C121.683 66.328 120.269 68.534 121.336 70.633C122.9 73.058 127.364 61.015 128.824 67.308Z" fill="#9CEBEF"/>
</svg>
