<svg width="200" height="196" viewBox="0 0 200 196" fill="none" xmlns="http://www.w3.org/2000/svg">
<path d="M88.8633 162.428C82.9701 152.222 68.5983 159.012 60.7778 151.356C60.6368 151.279 60.5043 151.245 60.4573 151.676C67.1667 159.695 80.6026 153.503 87.2436 161.741C87.7821 162.193 88.5812 163.756 88.8633 162.428Z" fill="#313640"/>
<path d="M136.752 150.822C134.649 155.113 128.94 154.264 124.936 155.152C121.231 156.104 115.179 159.319 114.47 162.949C117.337 162.039 119.068 158.175 122.496 157.137C126.739 154.844 137.132 155.861 136.752 150.822V150.822Z" fill="#313640"/>
<path d="M100.321 143.742C100.235 143.486 99.7693 143.43 99.6924 143.917C100.855 155.182 101.513 148.025 100.321 143.742Z" fill="#313640"/>
<path d="M129.914 113.082C129.773 132.366 115.462 137.422 110.154 150.988C112.773 149.677 114.88 143.729 117.615 141.137C123.825 133.656 132.359 122.331 129.914 113.082Z" fill="#313640"/>
<path d="M101.987 129.151C91.3804 103.453 103.962 85.3133 99.5727 72.5925C98.6838 76.9182 100.829 82.8751 99.0171 87.6875C96 99.6397 95.5257 122.912 101.987 129.151V129.151Z" fill="#313640"/>
<path d="M91.8548 150.98C90.2821 143.951 85.3035 138.793 80.1112 134.143C69.5471 125.372 63.1411 116.737 60.6667 104.162C62.671 127.515 85.9274 134.843 90.3163 149.088C90.7052 149.917 91.1539 152.466 91.8548 150.98V150.98Z" fill="#313640"/>
<path d="M103.709 71.5336C102.227 70.9486 102.265 69.7572 101.286 68.3651C99.3206 66.9517 98.1796 68.8263 98.0001 70.7094C94.5386 73.3014 104.427 74.0145 103.709 71.5336V71.5336Z" fill="#F3782E"/>
<path d="M100.671 69.7785C85.1625 72.8317 67.5984 20.9237 97.7522 10.7351C127.906 0.54652 133.983 63.2195 100.671 69.7785Z" fill="#F7AE44"/>
<path d="M105.009 12.8489C101.346 18.857 111.299 34.2979 117.402 30.9458C121.795 25.5099 111.509 8.45063 105.009 12.8489V12.8489Z" fill="#FCCF72"/>
<path d="M117.855 32.8289C115.056 33.6018 115.227 39.4732 118.709 39.5074C122.355 39.2426 120.885 32.9356 117.855 32.8289Z" fill="#FCCF72"/>
<path d="M62.9188 148.217C61.5812 149.319 60.2393 148.354 58.6453 148.776C56.5812 149.814 56.9359 151.672 58.1496 153.004C58.047 153.7 57.9017 154.477 58.9017 154.383C60.1453 153.794 64.8205 149.148 62.9188 148.217Z" fill="#C21957"/>
<path d="M59.453 150.023C50.2222 165.998 0.747873 152.987 15.6795 119.526C30.6111 86.0648 79.2778 115.721 59.453 150.023Z" fill="#E12265"/>
<path d="M22.4956 114.043C24.4785 121.144 42.5811 119.944 44.346 112.826C43.1067 105.046 23.4486 106.369 22.4956 114.043V114.043Z" fill="#EF5D80"/>
<path d="M46.0129 113.462C44.3847 116.644 49.2437 119.539 51.3975 116.357C53.7993 112.852 48.0642 110.776 46.0129 113.462Z" fill="#EF5D80"/>
<path d="M93.953 155.25L93.9017 158.508C94.2945 158.57 94.6926 158.591 95.0897 158.572C95.5171 158.179 94.0128 153.875 95.7094 154.464C95.5513 155.532 96.1923 162.151 95.8248 163.005C94.8846 163.594 95.0342 160.635 95.0983 159.187L95.0214 159.067C94.6582 159.081 94.2948 159.048 93.9402 158.969C94.3419 165.759 92.8419 163.052 93.2094 158.645C93.3419 158.282 92.7949 152.346 93.953 155.25V155.25Z" fill="#313640"/>
<path d="M99.6881 160.46L99.8291 161.267C99.6796 161.583 100.436 162.548 99.8591 163.235C99.1155 163.286 99.3206 162.381 99.0898 161.19L97.8078 160.998C97.6368 161.267 97.6497 164.106 96.6582 162.834C97.4317 160.272 97.7736 157.069 98.2779 154.357C99.7394 153.76 99.4061 159.541 99.6881 160.46V160.46ZM99.0044 160.724C98.9702 159.614 98.8078 157.483 98.6155 155.882C98.2195 158.071 97.9645 159.614 97.8505 160.511C98.2175 160.656 98.6095 160.729 99.0044 160.724Z" fill="#313640"/>
<path d="M100.88 157.47C100.934 156.651 100.907 155.829 100.799 155.015C102.62 152.778 104.59 158.324 101.551 159.11C101.222 160.178 102.291 162.851 101.214 163.38L100.94 163.222C100.722 162.569 100.803 159.857 100.829 158.974C100.786 158.854 100.829 158.974 100.756 158.611C100.866 158.241 100.908 157.855 100.88 157.47V157.47ZM101.534 156.002C101.534 156.002 101.56 158.47 101.56 158.564C101.987 158.79 103.132 155.6 101.675 155.276C101.675 155.276 101.628 155.276 101.534 155.276V156.002Z" fill="#313640"/>
<path d="M103.966 157.47C104.019 156.651 103.992 155.829 103.885 155.015C105.701 152.778 107.675 158.324 104.637 159.11C104.308 160.182 105.376 162.851 104.299 163.38L104.026 163.222C103.803 162.569 103.885 159.857 103.915 158.974C103.872 158.854 103.915 158.974 103.838 158.611C103.952 158.242 103.995 157.855 103.966 157.47V157.47ZM104.62 156.002C104.62 156.002 104.641 158.47 104.641 158.564C105.068 158.79 106.214 155.6 104.756 155.276C104.756 155.276 104.709 155.276 104.62 155.276V156.002Z" fill="#313640"/>
<path d="M108.679 162.419C108.628 162.846 108.5 163.777 107.885 163.004C108.132 162.355 107.987 160.075 107.885 158.542C107.671 157.974 106.453 155.036 106.603 154.827L106.897 154.609C107.141 154.379 107.944 156.715 108.098 157.522C110.402 148.857 108.299 160.694 108.679 162.419V162.419Z" fill="#313640"/>
<path d="M71.2735 171.297C70.8461 173.432 68.3974 174.837 66.3718 176.225C66.4957 176.652 66.9401 176.895 67.9487 177.305C75.5128 182.105 63.0342 190.146 61.7307 187.276C61.8205 184.594 61.7949 180.328 62.1581 177.596C61.5085 177.092 61.1666 176.438 62.3632 175.7C62.5915 172.984 62.64 170.257 62.5085 167.535C61.594 167.361 60.99 166.954 60.6966 166.314C60.6709 166.228 60.782 166.126 60.9316 165.584C63.8846 163.888 72.2222 167.424 71.2735 171.297V171.297ZM67.6581 181.268C67.8117 180.511 67.6293 179.724 67.1581 179.111C66.0299 178.684 65.7094 178.193 64.8248 178.471C65.0171 179.927 64.1666 182.741 64.7692 184.594C65.7051 183.616 67.3162 183.249 67.6581 181.268ZM68.5128 169.841C68.406 168.966 66.5641 167.685 65.188 167.625C65.0684 168.825 65.3889 172.194 65.3333 173.834C66.6666 173.24 68.6923 171.895 68.5299 169.841H68.5128Z" fill="#313640"/>
<path d="M75.7693 169.226C76.1197 173.159 74.7735 180.269 75.0385 184.475C69.8419 189.206 74.1582 170.862 73.3291 168.731C73.7778 168.193 74.218 167.932 75.4317 168.5C75.7308 168.244 75.547 168.628 75.7693 169.226V169.226Z" fill="#313640"/>
<path d="M89.3163 184.184C89.547 184.727 89.2137 185.077 88 185.466C86.2906 184.283 81.9274 179.265 80.3077 177.942C80.171 178.864 79.9445 184.18 79.453 185.756C75.8034 187.037 78.0684 180.41 77.7009 177.971C77.9188 174.457 77.1453 169.051 78.8248 166.98C86.265 164.337 87.1752 173.325 81.671 176.374C82.3932 177.916 87.9316 181.584 89.3163 184.184ZM83.1581 171.092C83.6966 170.046 82.0898 167.475 80.4744 168.996C80.1624 170.247 80.5257 172.758 80.4146 174.547C82.0242 173.354 82.9359 172.202 83.1496 171.092H83.1581Z" fill="#313640"/>
<path d="M102.496 165.814C101.641 168.048 98.3205 167.347 94.9103 168.265C94.0812 175.196 94.765 179.325 94.1068 185.171C89.5171 186.832 92.7692 170.17 92.1667 168.556C90.3333 168.398 87.1496 169.662 85.4274 168.171C85.2564 167.45 84.8034 167.663 85.2778 166.937C86.359 166.51 91.4701 166.331 92.8932 165.409C94.4765 165.853 96.1506 165.864 97.7393 165.439C98.2436 165.588 101.188 164.051 101.709 165.293C102.231 165.293 102.496 165.468 102.496 165.814Z" fill="#313640"/>
<path d="M108.594 167.685C106.803 179.927 108.167 189.932 104.581 185.329C103.812 183.04 104.68 180.542 104.684 178.031C104.184 178.147 102.91 177.562 101.795 177.886C101.331 179.423 101.058 181.688 100.979 184.68C96.7949 185.901 98.906 179.983 99.0471 176.601C99.9488 172.937 98.6838 169.367 100.568 169.051C103.329 169.478 101.983 173.343 101.94 175.7C102.261 176.088 103.927 176.088 104.829 175.994C105.756 174.649 105.094 164.128 108.594 167.685V167.685Z" fill="#313640"/>
<path d="M118.893 177.536C118.239 179.573 115.791 182.784 113.816 184.244C113.244 184.774 112.607 186.2 111.162 184.671C110.838 180.486 111.59 174.513 111.162 170.063C110.735 169.542 108.833 168.035 111.59 167.928C115.103 168.598 120.795 172.98 118.893 177.536ZM116.791 174.419C116.614 173.192 115.574 172.113 113.671 171.182C113.534 174.427 113.496 177.867 113.556 181.503C115.812 179.141 117.12 176.942 116.791 174.419V174.419Z" fill="#313640"/>
<path d="M131.197 182.583C130.769 188.561 127.513 181.093 127.432 178.821C126.577 178.945 124.675 178.821 123.667 179.697C122.103 189.646 117.987 187.78 121.303 180.286C121.974 179.154 120.688 179.432 120.791 178.151C123.675 177.54 123.466 167.569 126.06 166.476C128.761 167.364 129.816 181.691 131.197 182.583ZM126.923 177.011C126.724 175.406 126.411 173.818 125.987 172.258C125.417 173.872 124.912 175.486 124.47 177.1C125.285 177.017 126.104 176.987 126.923 177.011Z" fill="#313640"/>
<path d="M141.709 166.72C140.137 172.249 135.684 182.365 134.624 187.127C129.966 188.134 134.88 178.416 135.479 176.49C134.526 172.284 129.15 165.977 134.051 167.522C134.957 168.88 136.013 171.366 136.88 173.355C137.914 171.447 138.573 164.251 141.709 166.72V166.72Z" fill="#313640"/>
<path d="M96.7265 140.488C96.9273 142.123 96.2436 142.811 95.5684 144.613C96.7564 148.354 108.256 143.029 101.41 141.287C100.385 139.749 98.0855 137.572 96.7265 140.488V140.488Z" fill="#D3422C"/>
<path d="M99.1454 141.581C82.6368 144.271 56.6753 99.4946 86.0214 89.0071C120.675 81.4105 118.88 135.441 99.1454 141.581Z" fill="#F05E41"/>
<path d="M102.944 95.5148C97.6409 89.7971 92.1196 94.8572 94.3973 100.917C95.7392 106.57 106.5 114.414 107.367 105.289C107.196 101.544 105.376 98.2135 102.944 95.5148Z" fill="#F3795C"/>
<path d="M110.299 113.56C111.684 109.132 106.945 108.962 105.932 112.993C105.017 116.661 109.06 116.938 110.299 113.56Z" fill="#F3795C"/>
<path d="M139.393 145.95C137.885 146.889 137.017 146.859 134.851 146.923C131.103 149.464 144.795 157.795 141.778 150.523C142.889 148.285 142.684 145.612 139.393 145.95Z" fill="#1A9F9D"/>
<path d="M139.979 148.661C126.444 135.586 151.517 90.698 180.953 109.111C214.316 135.231 160.586 163.547 139.979 148.661Z" fill="#20B9B6"/>
<path d="M187.368 128.416C189.444 118.433 177.026 118.77 174.081 127.084C169.385 142.738 184.615 140.061 187.368 128.416Z" fill="#6BC9E1"/>
<path d="M174.786 144.216C180.295 143.037 176.782 139.002 172.628 139.997C167.453 141.065 171.432 145.113 174.786 144.216Z" fill="#6BC9E1"/>
<path d="M56.3206 104.619C58.8847 108.509 72.5 99.5159 64.0941 99.8063C63.2394 99.8746 62.8718 99.8533 62.1112 99.1957C56.0385 91.6204 58.7522 101.382 56.3206 104.619V104.619Z" fill="#1A9F9D"/>
<path d="M30.8375 54.8031C10.1025 77.1829 45.1067 124.808 76.829 86.0478C94.329 61.836 56.4358 28.1104 30.8375 54.8031V54.8031Z" fill="#20B9B6"/>
<path d="M69.0984 57.0278C63.7095 44.6743 43.5685 44.6444 48.2779 55.2429C52.201 64.8807 73.5984 68.7494 69.0984 57.0278Z" fill="#6BC9E1"/>
<path d="M75.5898 64.5818C75.2821 59.8504 70.4274 61.2382 70.5471 65.1668C70.9403 69.6035 75.8719 68.3779 75.5898 64.5818Z" fill="#6BC9E1"/>
<path d="M127.351 112.557C127.12 116.187 138.137 116.05 134.269 112.16C132.774 111.554 133.611 110.072 132.902 108.744C130.017 105.802 129.534 111.626 127.351 112.557V112.557Z" fill="#C21957"/>
<path d="M131.372 110.426C101.115 105.891 107.838 50.3366 141.312 55.8451C174.786 61.3536 166.205 115.644 131.372 110.426Z" fill="#E12265"/>
<path d="M155.774 81.3165C163.274 74.5441 149.248 56.2166 141.885 61.5841C135.697 68.1431 147.513 87.7986 155.774 81.3165Z" fill="#EF5D80"/>
<path d="M153.342 88.5288C155.624 90.6126 160.231 87.4527 157.855 84.6472C155.769 82.6403 151.41 85.9667 153.342 88.5288Z" fill="#EF5D80"/>
<path d="M101.453 141.188C101.114 141.402 100.753 141.579 100.376 141.714C90.5982 142.691 98.0512 143.597 101.231 142.239C101.709 142.269 102.564 141.129 101.453 141.188V141.188Z" fill="#313640"/>
<path d="M63.1837 97.4619C61.2563 98.743 58.2008 99.7507 56.4016 100.6C57.5512 101.899 64.6794 97.8633 63.1837 97.4619Z" fill="#313640"/>
<path d="M104.145 69.3003C102.175 70.7009 99.0599 69.7871 97.406 70.2184C98.2222 71.8496 105.915 70.3337 104.145 69.3003Z" fill="#313640"/>
<path d="M134.615 110.939C133.068 111.186 129.551 110.187 128.594 110.665C129.752 111.165 135.521 112.087 134.615 110.939Z" fill="#313640"/>
<path d="M60.7478 146.987C60.0213 148.755 57.4999 151.078 57.4102 153.047C58.9486 153.986 63.4871 145.433 60.7478 146.987Z" fill="#313640"/>
<path d="M142.889 150.57C140.491 149.801 138.444 147.623 136.808 146.108C135.043 147.794 144.094 153.256 142.889 150.57Z" fill="#313640"/>
<path d="M154.103 50.0675C153.363 45.3234 149.436 39.1914 144.115 39.153C140.812 28.7167 128.543 36.2151 130.868 38.0983C135.338 34.648 139.821 33.1534 142.504 39.4306C131.889 44.0252 145.851 52.7022 144.577 41.5315C151.201 42.2232 152.282 55.2301 154.103 50.0675V50.0675ZM140.731 44.0893C140.795 43.0132 141.799 42.4453 142.829 41.8346C142.91 43.2908 142.355 46.1731 140.731 44.0808V44.0893Z" fill="#B2D4DD"/>
<path d="M182.402 80.0056C181.321 84.6259 178.838 91.4069 173.205 91.2788C174.833 82.2432 163.218 87.7218 170.919 92.3677C169.667 95.0067 166.902 96.245 164.312 97.1204C165.727 100.058 171.782 94.9042 172.457 92.8758C182.581 94.8401 186.03 76.2564 182.402 80.0056V80.0056ZM170.457 90.1003C168.534 86.9233 173.081 87.8072 171.658 90.8945C171.222 90.689 170.817 90.4215 170.457 90.1003Z" fill="#B2D4DD"/>
<path d="M177.778 149.806C175.945 147.179 176.269 154.217 175.761 155.229C174.979 158.645 174.351 163.474 170.902 165.105C169.821 151.731 154.872 162.172 168.898 166.814C167.043 171.084 163.859 173.441 159.286 174.03C161.171 171.233 158.663 167.941 155.257 168.176C151.021 168.718 153.774 174.581 156.821 175.196C152.65 179.261 147.821 180.273 142.996 179.564C146.116 183.305 155.816 178.813 158.252 175.452C163.492 175.742 168.898 172.083 170.496 166.878C177.18 165.515 177.932 155.357 177.778 149.806V149.806ZM154.581 169.982C156.526 168.227 160.167 171.498 157.833 173.928C156.252 173.795 154.325 172.019 154.598 169.982H154.581ZM165.581 163C161.855 157.646 171.158 161.147 169.385 165.174C168.009 164.909 166.551 163.871 165.598 163H165.581Z" fill="#B2D4DD"/>
<path d="M54.2394 182.481C52.9334 182.289 51.6939 181.782 50.6283 181.003C58.8505 173.646 43.5856 170.618 47.8591 180.337C43.795 180.914 38.6796 178.04 37.3377 173.902C39.5386 174.504 42.3334 173.65 42.8933 170.96C43.6454 164.836 35.6796 167.484 35.4061 171.788C28.4702 168.799 29.4232 165.263 28.1411 160.366C25.0557 164.576 30.8676 172.015 35.3334 173.27C35.8377 178.642 44.2138 183.54 49.1069 181.81C49.9659 183.104 56.2992 185.03 54.2394 182.481V182.481ZM39.7693 168.953C43.6155 169.021 40.0343 174.056 37.0898 172.403C37.0881 170.776 38.1915 169.355 39.7693 168.953ZM49.0172 178.706C47.9702 172.433 54.1924 177.045 49.4445 179.662C49.2691 179.359 49.1259 179.039 49.0172 178.706Z" fill="#B2D4DD"/>
<path d="M22.4401 98.0811C19.2862 98.4014 16.3717 96.5353 14.9272 93.6957C20.2008 93.2686 21.2862 88.6227 18.0768 85.3048C14.3033 85.3048 12.3845 88.9387 12.8418 91.4581C7.39733 89.8055 6.66656 79.2625 9.50845 75.9318C14.2649 88.4263 24.5426 70.2141 10.658 72.8189C10.9914 62.8737 8.32468 67.8954 9.04691 73.5021C2.54263 77.6698 5.86315 93.337 13.4871 93.6999C15.8802 99.7977 24.7862 99.977 22.4401 98.0811ZM12.6324 74.638C20.2734 74.7533 12.2734 82.179 11.0298 74.9924C11.5468 74.8069 12.0853 74.6878 12.6324 74.638ZM17.3332 87.158C19.0811 90.002 16.8631 91.7015 14.3119 91.6716C14.1025 89.6732 15.2221 87.9181 17.3332 87.158Z" fill="#B2D4DD"/>
<path d="M78.2478 10.3936C74.2777 11.7216 70.9059 14.3477 67.7563 17.3368C60.9444 15.8423 53.4914 20.2448 51.9444 27.2308C42.1538 29.037 38.6196 43.1285 41.7478 41.3436C43.2264 36.1597 45.8632 30.886 51.5768 29.2591C50.9828 33.3243 55.0512 38.1752 59.2093 35.6643C63.1153 31.8553 58.829 25.8857 54.0811 26.8635C56.1452 21.2227 60.9187 18.6606 66.4956 18.9766C61.7093 30.0491 78.5683 25.7149 69.5897 18.1652C71.3332 15.7014 81.8546 10.7736 78.2478 10.3936V10.3936ZM56.0854 28.8193C63.9315 33.6445 52.3674 38.2136 53.5726 28.7894C54.4062 28.6623 55.255 28.6724 56.0854 28.8193ZM67.9016 23.4175C66.9828 22.4268 67.282 20.8085 68.3546 19.4634C70.5127 19.9245 71.2392 25.6209 67.9016 23.4175Z" fill="#B2D4DD"/>
<path d="M19.2309 35.0707C19.0471 34.1441 16.983 31.6546 17.1582 34.6437C17.1711 35.8393 19.5258 36.8898 19.2309 35.0707Z" fill="#B2D4DD"/>
<path d="M25.0087 43.5299C22.6967 42.2489 24.154 45.7888 25.1326 46.613C26.9873 47.2108 25.7181 44.4779 25.0087 43.5299Z" fill="#B2D4DD"/>
<path d="M17.8591 42.3557C16.1967 42.155 12.6625 46.4849 16.3591 44.5377C16.7736 44.0168 18.9617 43.1286 17.8591 42.3557Z" fill="#B2D4DD"/>
<path d="M27.718 35.2971C27.0342 35.2971 23.2222 37.5731 26.0983 37.3895C27.141 37.176 29.4872 35.8693 27.718 35.2971Z" fill="#B2D4DD"/>
<path d="M23.3804 34.8743C24.2351 33.5933 23.6282 30.6853 22.0043 33.5677C21.5086 34.2594 22.5428 36.2963 23.3804 34.8743Z" fill="#B2D4DD"/>
<path d="M21.4744 44.9348C20.765 42.4709 19.2906 45.7888 19.3804 47.2022C20.2693 48.9359 21.3077 46.1176 21.4744 44.9348Z" fill="#B2D4DD"/>
<path d="M17.2478 39.0506C16.6623 38.0684 11.0299 37.872 14.1965 39.4776C15.0427 39.405 17.4017 40.4555 17.2478 39.0506Z" fill="#B2D4DD"/>
<path d="M29.218 41.0276C28.7094 40.528 24.3291 39.4775 26.6539 41.3948C27.4274 41.9414 30.1026 42.6502 29.218 41.0276Z" fill="#B2D4DD"/>
<path d="M21.2735 37.8037C20.9621 37.8643 20.6745 38.0124 20.4444 38.2307C18.376 43.0432 26.0983 39.0079 21.2735 37.8037Z" fill="#B2D4DD"/>
<path d="M165.274 13.0581C165.086 12.1272 163.022 9.64195 163.201 12.6311C163.21 13.8224 165.564 14.8729 165.274 13.0581Z" fill="#B2D4DD"/>
<path d="M171.043 21.5172C168.735 20.2362 170.188 23.7719 171.171 24.596C173.026 25.1938 171.756 22.4652 171.043 21.5172Z" fill="#B2D4DD"/>
<path d="M163.893 20.343C162.231 20.138 158.701 24.4722 162.397 22.5251C162.821 22.0041 164.996 21.0946 163.893 20.343Z" fill="#B2D4DD"/>
<path d="M173.757 13.2844C173.073 13.2844 169.261 15.5561 172.133 15.3725C173.175 15.1633 175.539 13.8438 173.757 13.2844Z" fill="#B2D4DD"/>
<path d="M169.414 12.8617C170.295 11.5806 169.667 8.67267 168.043 11.5508C167.547 12.2468 168.581 14.2879 169.414 12.8617Z" fill="#B2D4DD"/>
<path d="M167.521 22.9179C166.808 20.4583 165.338 23.772 165.427 25.1854C166.308 26.902 167.342 24.0922 167.521 22.9179Z" fill="#B2D4DD"/>
<path d="M163.282 17.0379C162.697 16.0515 157.068 15.8551 160.235 17.4649C161.081 17.3923 163.44 18.4428 163.282 17.0379Z" fill="#B2D4DD"/>
<path d="M175.252 19.015C174.744 18.5112 170.363 17.4607 172.688 19.378C173.462 19.9288 176.137 20.6377 175.252 19.015Z" fill="#B2D4DD"/>
<path d="M167.312 15.7996C167 15.8583 166.712 16.0067 166.483 16.2266C164.427 21.0305 172.133 16.9909 167.312 15.7996Z" fill="#B2D4DD"/>
<path d="M6.81198 158.952C5.52993 158.06 2.62395 158.658 5.49147 160.31C6.1795 160.814 8.23079 159.802 6.81198 158.952Z" fill="#B2D4DD"/>
<path d="M16.859 160.985C14.3889 161.668 17.6924 163.175 19.1069 163.098C20.8505 162.206 18.03 161.143 16.859 160.985Z" fill="#B2D4DD"/>
<path d="M10.9274 165.123C9.93595 165.699 9.68382 171.323 11.3163 168.176C11.2607 167.33 12.3334 164.982 10.9274 165.123Z" fill="#B2D4DD"/>
<path d="M13.0342 153.183C12.5256 153.687 11.4273 158.055 13.3718 155.745C13.9273 155.006 14.6667 152.321 13.0342 153.183Z" fill="#B2D4DD"/>
<path d="M9.63682 155.916C9.4616 154.985 7.42314 152.47 7.56844 155.489C7.56417 156.659 9.90605 157.735 9.63682 155.916Z" fill="#B2D4DD"/>
<path d="M15.3163 164.435C13.0215 163.133 14.4317 166.685 15.4103 167.518C17.2608 168.137 16.0172 165.391 15.3163 164.435V164.435Z" fill="#B2D4DD"/>
<path d="M8.17943 163.188C6.52131 162.966 2.94012 167.262 6.66234 165.353C7.08114 164.828 9.27345 163.948 8.17943 163.188Z" fill="#B2D4DD"/>
<path d="M18.1153 156.232C17.4316 156.232 13.594 158.457 16.47 158.303C17.5213 158.107 19.8931 156.813 18.1153 156.232Z" fill="#B2D4DD"/>
<path d="M10.1838 159.482C10.003 159.745 9.90348 160.055 9.89746 160.374C11.765 165.255 14.5299 157.026 10.1838 159.482Z" fill="#B2D4DD"/>
<path d="M189.491 94.5839C189.252 93.6658 187.055 91.2873 187.397 94.2807C187.47 95.4635 189.88 96.3816 189.491 94.5839Z" fill="#B2D4DD"/>
<path d="M195.726 102.714C193.346 101.566 194.987 105.016 196.017 105.784C197.893 106.28 196.479 103.624 195.726 102.714Z" fill="#B2D4DD"/>
<path d="M188.513 101.933C187.385 101.715 183.483 105.776 186.804 104.495C187.304 103.812 189.662 102.757 188.513 101.933V101.933Z" fill="#B2D4DD"/>
<path d="M197.974 94.3447C197.291 94.396 193.607 96.8641 196.466 96.5225C197.496 96.2535 199.782 94.7974 197.974 94.3447Z" fill="#B2D4DD"/>
<path d="M193.615 94.1612C194.423 92.8289 193.637 89.9636 192.171 92.9313C191.714 93.6487 192.859 95.6514 193.615 94.1612Z" fill="#B2D4DD"/>
<path d="M192.265 104.311C191.41 101.89 190.128 105.281 190.299 106.69C191.282 108.368 192.162 105.473 192.265 104.311Z" fill="#B2D4DD"/>
<path d="M187.722 98.6661C187.081 97.7138 181.449 97.8121 184.697 99.2511C185.543 99.1401 187.953 100.058 187.722 98.6661Z" fill="#B2D4DD"/>
<path d="M199.782 99.9856C199.248 99.5159 194.816 98.7046 197.244 100.494C198.043 100.998 200.752 101.557 199.782 99.9856Z" fill="#B2D4DD"/>
<path d="M191.675 97.2014C191.365 97.2801 191.085 97.4496 190.872 97.6882C189.081 102.59 196.556 98.1366 191.675 97.2014Z" fill="#B2D4DD"/>
<path d="M176.897 65.6195C176.607 65.6195 176.316 65.6408 176.043 65.6622C175.188 61.3066 173.637 63.2452 172.197 65.991C170.538 65.7732 168.5 66.9048 171 68.3011C169.658 70.7693 171.086 71.8923 173.603 70.3252C176.03 72.9812 177.021 71.572 176.342 68.2968C177.056 67.8954 178.816 66.0934 176.897 65.6195V65.6195Z" fill="#FFDA37"/>
<path d="M95.376 1.28103L94.7863 1.66961C92.6025 -0.845508 92.0854 0.76434 92.2649 3.46735C91.3034 3.77907 89.9743 5.66647 92.3846 5.55545C92.4233 6.05865 92.5401 6.55277 92.7307 7.02011C93.4957 8.04495 94.3461 7.02011 95.0171 5.89279C97.5812 6.68704 98.0342 5.51275 96.0812 3.36486C96.3504 2.92077 96.9487 0.854013 95.376 1.28103V1.28103Z" fill="#FFDA37"/>
<path d="M14.3975 106.459C14.1325 106.476 13.8676 106.498 13.6026 106.523C12.718 102.59 11.3248 104.388 10.1026 106.95C9.00859 106.758 6.55132 107.838 9.07696 109.085C7.93166 111.255 9.2479 112.39 11.5214 110.862C13.7992 113.202 14.6753 111.891 13.9659 108.919C14.6111 108.522 16.171 106.835 14.3975 106.459V106.459Z" fill="#FFDA37"/>
<path d="M55.8504 163.893L55.0555 163.957C54.1709 160.024 52.7777 161.822 51.5555 164.384C50.4615 164.192 48.0042 165.272 50.5298 166.519C49.3845 168.688 50.7008 169.824 52.9743 168.295C55.2521 170.635 56.1281 169.324 55.4187 166.352C56.064 165.955 57.6239 164.268 55.8504 163.893V163.893Z" fill="#FFDA37"/>
<path d="M157.355 187.131C157.115 187.016 156.872 186.905 156.628 186.798C157.791 182.955 155.697 183.809 153.376 185.444C152.491 184.705 149.872 184.556 151.427 186.819C149.449 188.1 149.812 189.774 152.679 189.561C153.534 192.742 154.915 192.007 155.765 189.07C156.526 189.035 158.714 188.314 157.355 187.131V187.131Z" fill="#FFDA37"/>
<path d="M144.825 162.266C144.332 162.134 143.822 162.079 143.312 162.104C143.419 160.788 141.688 159.926 141.867 162.215C140.158 161.856 138.372 164.14 141.867 163.807C141.795 165.703 143.577 166.51 143.538 163.696C144.145 163.726 146.064 163.145 144.825 162.266V162.266Z" fill="#FFDA37"/>
<path d="M144.919 166.143L144.688 167.309C143.547 166.805 142.406 168.526 144.598 168.163C145.397 170.725 146.581 165.08 144.919 166.143Z" fill="#FFDA37"/>
<path d="M60.5768 190.218C60.0455 190.066 59.4894 190.019 58.9401 190.082C59.2264 189.257 58.1495 187.114 58.1153 190.082C56.3503 189.744 55.9572 191.414 58.2392 191.085C58.1538 191.593 59.752 192.759 59.2093 191.085C59.5085 191.124 61.4486 191.145 60.5768 190.218V190.218Z" fill="#FFDA37"/>
<path d="M73.0342 32.3849C71.3505 30.126 68.2479 33.3542 70.9915 34.7975C72.124 35.3185 73.859 33.8837 73.0342 32.3849Z" fill="#E12265"/>
<path d="M9.6196 52.984C6.4572 52.984 6.4572 57.8904 9.6196 57.8904C12.782 57.8904 12.7863 52.984 9.6196 52.984Z" fill="#E12265"/>
<path d="M75.6709 140.646C73.9872 139.92 72.2094 142.781 74.6026 143.635C76.4957 144.305 77.7778 141.406 75.6709 140.646Z" fill="#E12265"/>
<path d="M33.1238 188.497C31.252 188.497 31.252 191.397 33.1238 191.397C34.9956 191.397 34.9999 188.497 33.1238 188.497Z" fill="#E12265"/>
<path d="M183.838 19.0662C181.35 19.0662 181.35 22.9093 183.838 22.9093C186.325 22.9093 186.325 19.0662 183.838 19.0662Z" fill="#E12265"/>
<path d="M189.107 153.153C186.816 153.153 186.816 156.706 189.107 156.706C191.397 156.706 191.402 153.153 189.107 153.153Z" fill="#E12265"/>
<path d="M124.269 7.87414C123.034 6.1063 120.265 7.51118 121.333 9.84696C122.385 11.5764 125.543 10.3551 124.269 7.87414V7.87414Z" fill="#F05E41"/>
<path d="M1.5 126.051C-0.5 126.051 -0.5 129.155 1.5 129.155C3.5 129.155 3.50427 126.051 1.5 126.051V126.051Z" fill="#F05E41"/>
<path d="M138.679 191.939C136.29 191.939 136.29 195.641 138.679 195.641C141.068 195.641 141.073 191.939 138.679 191.939Z" fill="#F05E41"/>
<path d="M192.115 77.8576C190.406 76.8456 187.987 79.4888 190.372 80.8467C192.098 81.8801 194.12 79.271 192.115 77.8576Z" fill="#F05E41"/>
<path d="M54.5426 15.2103C52.9871 12.6482 50.6623 14.6039 51.017 16.4914C51.7093 19.0022 55.6708 17.845 54.5426 15.2103V15.2103Z" fill="#20B9B6"/>
<path d="M32.8163 99.4604C32.4616 98.094 29.9573 97.9701 29.9658 99.9472C30.1154 101.95 33.0983 101.702 32.8163 99.4604Z" fill="#20B9B6"/>
<path d="M126.201 148.366C125.709 146.838 122.94 146.304 122.517 148.644C122.222 151.475 126.62 151.407 126.201 148.366Z" fill="#20B9B6"/>
<path d="M159.868 51.8738C158.97 50.1017 155.56 51.2034 156.543 53.5819C157.573 55.8237 161.068 54.3121 159.868 51.8738Z" fill="#20B9B6"/>
<path d="M129.85 25.6209C129.051 25.433 128.073 25.3903 127.62 24.1904C127.62 23.4303 127.44 22.6489 127.568 21.9187C127.485 22.4169 127.442 22.921 127.44 23.4261C127.312 24.8309 127.098 28.6143 129.85 28.61C129.778 28.61 129.966 25.6209 129.85 25.6209V25.6209Z" fill="#F7AE44"/>
<path d="M166.316 59.2099C163.466 58.5438 162.953 62.3613 163.184 64.7611C163.94 63.5398 164.44 61.345 166.316 62.199C166.205 61.4902 166.466 59.9871 166.316 59.2099V59.2099Z" fill="#F7AE44"/>
<path d="M176.859 102.484C176.677 101.05 175.832 99.7852 174.577 99.0675C173.923 103.154 176.555 102.633 176.859 105.473C176.692 104.503 177.026 103.453 176.859 102.484Z" fill="#F7AE44"/>
<path d="M131.286 134.937C131.286 134.463 131.286 133.968 131.286 132.802C131.278 132.66 131.278 132.517 131.286 132.375C129.013 134.698 128.073 134.843 128.436 138.494C128.932 137.345 130.953 136.282 131.286 134.937V134.937Z" fill="#F7AE44"/>
<path d="M81.1326 150.873C79.4659 150.566 77.9317 149.955 76.8591 148.597C76.2907 152.517 78.1625 153.132 81.1326 153.862C80.9745 153.837 81.3334 150.911 81.1326 150.873Z" fill="#F7AE44"/>
<path d="M8.2136 142.973C8.2136 142.713 8.2136 142.192 8.2136 141.479C5.99565 147.094 4.92728 142.713 5.36317 147.884C7.32044 147.517 8.42728 144.959 8.2136 142.973Z" fill="#F7AE44"/>
<path d="M23.8676 53.2317C18.8462 53.7099 18.8035 54.5939 19.0215 57.647C20.5685 56.9083 22.0984 56.1012 23.8676 56.2251C23.8206 56.2165 23.9574 53.236 23.8676 53.2317Z" fill="#F7AE44"/>
<path d="M68.594 41.2752C65.2393 39.9173 62.4445 35.9717 62.8975 42.2702C65.3291 40.5621 66.3163 44.0551 68.594 44.2644C68.5299 44.2558 68.7094 41.2838 68.594 41.2752Z" fill="#F7AE44"/>
</svg>
