<svg width="200" height="133" viewBox="0 0 200 133" fill="none" xmlns="http://www.w3.org/2000/svg">
<g clip-path="url(#clip0_1_6740)">
<path d="M90.0666 103.353C90.0666 112.392 82.5102 108.935 83.2643 102.107C83.9372 93.6155 90.2292 96.1996 90.0666 103.353ZM85.098 102.547C84.7764 103.893 86.7874 110.081 88.2514 106.244C89.5009 100.85 86.0222 92.9316 85.098 102.547Z" fill="#FF71A4"/>
<path d="M111.815 102.591C111.19 113.893 103.682 108.847 104.869 100.577C106.126 92.9057 112.484 96.5212 111.815 102.591ZM110.492 102.366C110.543 97.2421 106.906 94.7948 106.403 101.556C106.288 108.555 110.074 110.817 110.492 102.366Z" fill="#FF71A4"/>
<path d="M119.12 101.15C119.212 100.392 118.61 94.4954 120.318 97.1719C120.229 100.847 121.427 104.935 119.209 108.407C112.835 111.634 113.663 100.817 113.845 97.1164C115.76 94.0111 115.098 105.164 115.8 105.989C118.817 111.405 119.423 103.967 119.127 101.157L119.12 101.15Z" fill="#FF71A4"/>
<path d="M97.0312 96.5434C98.5691 96.1738 99.1532 100.185 99.9185 101.431C100.979 100.115 101.061 97.1238 102.946 96.4288C102.802 100.24 99.5303 103.841 100.528 108.281C98.7391 111.579 99.2974 104.414 99.0682 103.264C98.595 101.02 96.8575 98.7357 97.0312 96.5434V96.5434Z" fill="#FF71A4"/>
<path d="M78.0629 97.7524C70.5583 97.3568 81.2755 95.3901 82.0962 97.1646C81.7487 98.1295 80.6914 97.6526 79.3531 97.8041C80.647 114.233 76.8614 111.128 78.0629 97.7524Z" fill="#FF71A4"/>
<path d="M83.4825 24.2994H80.7764C80.647 25.841 81.1904 27.9963 80.7764 29.7449C78.5583 32.4547 79.1239 19.3937 79.2015 18.4547C80.7542 16.3992 80.5139 21.963 80.7024 23.1349H83.4455C83.7228 22.4473 83.1461 15.8151 85.0278 18.8207C84.9575 22.3808 85.7376 26.8466 84.6581 30.2809C82.8392 31.1497 83.7524 25.5083 83.4825 24.2994V24.2994Z" fill="#FF71A4"/>
<path d="M91.5968 24.6137H90.314C89.8408 25.5971 90.0515 30.647 88.2326 29.8632C87.3491 29.2939 89.3787 17.4825 90.6578 17.9668C92.6948 20.5546 92.9055 26.0074 94.1402 29.3383C93.057 32.1849 91.9997 25.7043 91.5968 24.6137V24.6137ZM91.2862 23.4788C91.131 22.854 90.9166 21.2274 90.7761 20.6433H90.6652C90.5949 21.2311 90.5764 22.8614 90.5025 23.4751L91.2862 23.4788Z" fill="#FF71A4"/>
<path d="M105.904 25.1645C105.833 25.878 106.928 32.0739 104.743 29.3752C104.292 25.9963 103.449 21.2643 104.872 18.1738C109.763 17.0055 111.105 24.6063 105.904 25.1645V25.1645ZM105.571 19.1904C105.663 20.8059 105.752 22.3697 105.841 23.9372C108.536 23.6192 108.318 19.6192 105.571 19.1904Z" fill="#FF71A4"/>
<path d="M98.2179 25.1387C98.1551 25.8781 99.2346 32.0333 97.0608 29.3494C96.6024 25.7709 95.7817 21.8189 97.1569 18.2256C101.833 16.8836 103.623 24.4955 98.2179 25.1387V25.1387ZM98.1551 23.9224C100.883 23.5158 100.636 19.6304 97.8889 19.1498C97.9665 20.7764 98.0664 22.3328 98.1551 23.9372V23.9224Z" fill="#FF71A4"/>
<path d="M114.344 22.5509C114.503 22.2626 116.543 15.6045 116.784 19.0315C116.51 20.9465 115.756 22.8319 115.224 24.8578C114.824 25.7709 115.989 29.8633 114.311 29.9705C112.665 29.1091 114.218 26.562 113.519 24.6618C113.013 22.7579 111.553 20.5953 111.423 18.4215C112.621 17.0648 113.612 21.5491 114.248 22.5546L114.344 22.5509Z" fill="#FF71A4"/>
<path d="M48.0592 61.2792C45.549 61.7967 44.1664 57.4012 47.2274 56.6618C52.8651 55.3383 52.3661 61.1461 48.0592 61.2792Z" fill="#0D1223"/>
<path d="M186.122 95.0536C184.177 88.1331 175.541 86.4547 169.231 85.7745C168.861 79.4566 169.101 72.4658 169.013 66.1183C161.183 62.8466 162.266 74.7283 161.553 79.3605L161.401 79.4196C158.521 76.0924 158.366 70.9686 158.917 66.5952L159.597 66.1405C153.826 60.7653 150.957 73.6451 152.551 77.915C152.004 79.1997 151.311 80.4167 150.484 81.5416C149.545 78.7874 149.538 75.6932 148.344 72.5915C144.717 69.634 144.207 76.7837 143.686 79.2458L143.549 79.2717C141.331 76.0961 140.325 70.4178 143.353 67.4418C145.257 70.695 148.869 68.2255 145.815 66.573C138.791 63.5823 132.595 72.488 134.946 78.7172C133.952 81.0351 132.954 83.8078 130.732 85.6044C129.02 79.7597 128.931 73.3161 128.931 67.0573C135.686 60.9575 145.264 49.0573 142.089 41.5083C140.665 38.5508 136.151 37.464 133.53 39.3272C126.033 46.7616 122.924 57.878 121.822 68.2218C114.381 65.3272 110.732 74.8281 111.675 80.7911C110.979 82.8474 109.862 84.7361 108.395 86.3364C106.273 84.0037 108.469 79.4898 108.24 76.4251C108.872 67.9852 105.035 66.5878 99.3677 72.0703C99.205 70.6581 99.0534 69.3789 98.8982 68.0629C104.536 62.8872 106.843 54.8429 108.329 47.4381C110.089 40.0444 108.377 29.7856 99.9924 35.7893C96.6394 39.3272 94.9795 44.5213 93.2826 49.1645C90.7698 48.9086 88.2446 48.7926 85.7189 48.817C85.7558 47.4381 86.8908 45.22 86.3141 43.7634C82.5322 41.9519 80.4767 46.0776 79.327 49.183C76.9388 49.6784 71.2937 49.6007 71.6301 51.4011C72.1588 53.6192 77.0941 51.0943 78.5285 51.4011C76.2438 57.7634 75.2494 64.5139 74.632 71.3974C72.6874 76.7246 69.571 81.2348 65.5008 85.2385C60.998 74.1479 73.7891 60.2551 61.2826 59.22C61.4342 48.5952 47.1717 59.4085 58.1181 62.1775C56.8427 66.9612 54.7466 71.8115 51.4231 75.7117C49.8889 71.6451 50.8427 67.024 49.7263 62.6544C46.7318 60.6654 44.8982 70.7468 45.2161 72.2662L43.7374 72.4917C40.5063 67.9039 36.0368 67.4011 32.3695 71.4455C31.7784 69.8008 31.3222 68.1106 31.0054 66.3919C40.0331 63.2163 46.8353 54.366 49.4453 45.39C55.2309 27.1386 39.3714 25.342 30.7984 33.9446C23.5451 41.6747 22.51 52.9242 22.6653 63.0943C17.12 59.9446 15.1496 52.4067 16.2327 46.3808C7.43051 42.732 5.38245 66.3697 23.1902 66.5028C25.3492 74.1257 24.7133 82.6987 34.1366 79.1719C28.4102 90.0481 51.8224 88.9575 44.2475 73.4011L45.205 73.1349C45.3233 74.9094 46.2401 77.2311 48.1847 78.0222C55.0682 81.4677 59.242 65.4824 60.5433 61.8854L61.3935 61.4529C60.2586 68.1479 55.5451 74.6765 56.3584 81.9261C56.3584 87.7117 62.8686 89.6118 67.12 86.8873C70.8723 84.5989 72.1773 80.2884 74.7651 76.8725C75.4342 82.8281 79.1828 84.8059 84.4287 83.7708C87.6745 82.3105 89.8852 79.3752 92.1625 76.6359C93.0497 84.647 99.7928 86.1257 100.784 81.3789C100.004 74.8946 98.754 73.3826 104.44 70.0592C105.32 75.915 100.41 81.8078 101.578 87.9815C101.833 90.732 105.405 90.5213 107.32 89.6599C109.948 88.2218 110.917 85.2237 112.754 82.8133C115.434 84.7727 119.87 85.0536 121.996 81.7375L122.122 81.8226C123.822 91.0056 134.621 89.1165 136.455 80.9723C138.44 82.7061 141.375 83.1128 144.074 82.5065C147.26 86.4436 152.909 84.7246 154.51 80.1664C156.621 81.6932 158.965 81.9889 161.482 81.5009C161.534 82.8577 161.589 84.1849 161.641 85.5268C152.769 86.7653 144.421 93.1054 141.589 101.793C136.244 117.786 154.625 121.601 163.272 113.623C169.36 106.536 169.623 96.5324 169.364 87.7449C174.562 88.1738 181.545 94.8614 178.174 99.427C177.316 100.983 174.477 101.187 174.218 103.124C178.355 106.266 185.967 101.527 186.314 96.6654V96.0259C186.244 95.6784 186.192 95.3789 186.122 95.0536V95.0536ZM129.286 61.7375C130.222 54.732 131.626 47.3198 135.678 41.1719C140.34 47.9556 132.917 59.0869 129.264 63.512L129.146 63.4714C129.19 62.8946 129.198 62.3105 129.286 61.7375V61.7375ZM27.4823 75.2939C23.8593 74.6691 23.6264 45.4344 26.1625 47.4861C25.1976 66.7098 29.0682 74.8725 27.4823 75.2939ZM30.4915 63.8706C29.4157 54.1664 30.0849 43.024 35.9998 34.6396C38.0146 31.9667 41.8593 28.5176 44.6616 31.7043C50.8686 41.7745 37.4823 60.5397 30.4915 63.8706V63.8706ZM33.9259 75.4159C33.6745 74.7394 33.3788 74.0739 33.0904 73.3752C33.8908 71.7519 35.2967 70.508 37.0054 69.9113C38.5174 70.9538 39.2235 72.4104 39.5451 74.1701C37.74 75.2381 36.1542 76.6394 34.8723 78.2995C34.7503 77.1904 34.266 76.3327 33.9259 75.4159V75.4159ZM39.6486 77.4529C39.12 79.5416 38.9832 82.0148 37.5008 83.9372C33.9296 82.5398 38.0664 77.7782 39.7743 76.2662C39.7263 76.7394 39.7115 77.1054 39.6486 77.4603V77.4529ZM47.8261 76.3919C45.8298 76.1922 45.8261 66.9205 47.4823 67.9667C47.9074 70.4732 47.7152 73.3863 48.4398 76.1405C48.3964 76.2592 48.3057 76.3545 48.1893 76.4036C48.0729 76.4526 47.9413 76.4511 47.8261 76.3993V76.3919ZM59.035 58.8983C58.1588 58.9316 57.449 57.8743 58.1773 56.7985L58.8205 56.6617C59.3344 57.3531 58.9462 58.1183 59.035 58.9057V58.8983ZM62.2105 67.671C61.3677 73.342 60.1107 79.4824 60.1736 85.2865C55.486 87.7967 60.9425 63.0906 62.2105 67.6784V67.671ZM78.4509 80.6913C75.5673 76.1368 76.7392 56.573 79.1311 57.2754C79.242 64.891 78.1107 73.0721 80.0183 80.7985C79.8353 81.0628 79.5272 81.2119 79.2064 81.1914C78.8856 81.171 78.5989 80.9841 78.4509 80.6987V80.6913ZM91.4823 58.2588C90.7059 76.4141 94.7133 71.2717 83.5118 81.878C80.924 71.8226 83.4416 61.1312 85.29 50.9353C87.7521 50.8935 90.2145 50.9922 92.6653 51.2311C92.0711 53.5381 91.6753 55.8917 91.4823 58.2662V58.2588ZM96.2069 79.9889C91.5008 79.2495 93.4823 52.3697 94.3584 51.3789L95.0756 51.4788C94.5802 60.9982 95.5229 70.5397 96.2069 79.9963V79.9889ZM98.7059 59.7967C99.3122 51.8558 99.8704 42.7911 104.58 35.8854L105.016 36.0074C109.002 43.9704 102.059 58.5582 98.6985 63.4898C98.7059 62.1701 98.7059 60.9982 98.7059 59.7967ZM121.678 79.183C120.939 80.1405 119.83 81.4861 118.547 82.1405C116.835 78.8133 117.275 70.8392 119.656 68.9649C121.774 69.0351 121.874 70.6063 121.667 72.5767C121.493 74.854 121.963 76.8429 121.689 79.183H121.678ZM126.063 84.4954C122.599 86.2329 123.408 57.3974 125.453 59.6636C125.482 67.8189 125.183 76.2218 126.063 84.4954ZM138.632 80.9205C134.861 80.5065 135.615 70.4141 137.919 71.2458C138.037 74.3364 138.181 77.6969 139.523 80.6876C139.316 80.9633 138.947 81.0599 138.632 80.9205ZM156.007 79.8743C153.161 79.5268 152.188 70.9242 154.037 71.3715C154.654 74.2107 155.257 76.9168 156.699 79.6303C156.564 79.8755 156.266 79.9804 156.007 79.8743V79.8743ZM161.922 98.6211C160.325 121.782 147.445 117.29 145.338 108.484C143.272 98.5287 152.096 88.4917 161.737 87.146C162.081 90.7209 162.329 94.7911 161.922 98.6211V98.6211ZM165.127 97.6784C164.924 98.976 165.294 102.891 163.419 102.606C163.445 92.976 162.233 82.7985 163.578 73.1386H164.277C165.161 81.0795 165.183 89.5046 165.142 97.6784H165.127Z" fill="#0D1223"/>
<path d="M159.911 50.0333C152.558 63.5453 167.926 57.5047 165.423 68.9538" stroke="#0D1223" stroke-width="0.5"/>
<path d="M160.137 53.5602L159.375 53.5972C158.31 53.4086 155.471 52.1184 157.918 50.9132C139.978 42.2034 150.429 11.9779 169.153 16.4474C188.51 22.8985 179.471 55.5565 160.455 51.5898C160.857 52.1591 161.264 53.1794 160.137 53.5602Z" fill="#FFCB66"/>
<path d="M178.632 25.5564C176.436 19.6415 170.754 15.3642 164.288 16.0038C146.174 29.0685 163.615 55.7487 179.138 38.4326C180.27 34.4289 180.292 29.6082 178.632 25.5564V25.5564Z" fill="#FF92B9"/>
<path d="M178.632 25.5564C176.436 19.6415 170.754 15.3642 164.288 16.0038C146.174 29.0685 163.615 55.7487 179.138 38.4326C180.27 34.4289 180.292 29.6082 178.632 25.5564V25.5564Z" fill="#FFD180"/>
<path d="M176.646 32.3069C176.876 30.8059 174.391 22.5472 173.035 24.9982C173.8 28.7838 173.404 32.854 173.585 36.8614C174.303 38.7838 176.281 37.8374 176.421 35.8078" fill="white"/>
<path d="M169.479 49.3826C152.344 52.7985 145.782 34.5952 153.212 22.2847C146.007 31.2126 147.15 45.9187 157.911 50.9131C155.922 51.7338 157.601 53.3494 159.368 53.5971L160.129 53.5601C160.954 53.2163 161.142 52.5287 160.447 51.5897C164.795 52.6987 169.586 51.2791 173.016 48.207C171.876 48.7066 170.691 49.1001 169.479 49.3826V49.3826Z" fill="#FFD283"/>
<path d="M169.316 58.9058C167.789 62.9723 164.573 64.4732 165.416 68.5657" stroke="#0D1223" stroke-width="0.5"/>
<path d="M170.606 60.1295L169.782 59.915C168.639 59.3383 166.148 56.9576 169.12 56.5657C152.606 40.9797 174.776 11.8966 193.15 23.904C210.654 37.7302 190.321 68.5324 171.615 58.1295C171.837 58.8836 171.944 60.1184 170.606 60.1295Z" fill="#FF80A7"/>
<path d="M199.656 36.3993C199.334 29.4973 194.61 22.8356 187.53 21.4344C163.804 29.4086 173.663 63.6267 195.914 50.3069C198.454 46.403 200.081 41.2644 199.656 36.3993V36.3993Z" fill="#FF92B9"/>
<path d="M199.656 36.3993C199.334 29.4973 194.61 22.8356 187.53 21.4344C163.804 29.4086 173.663 63.6267 195.914 50.3069C198.454 46.403 200.081 41.2644 199.656 36.3993V36.3993Z" fill="#FF92B9"/>
<path d="M195.294 42.9391C196.078 41.2681 196.081 31.7561 193.871 33.9409C193.357 38.1442 191.878 42.2404 190.543 46.3882C190.292 48.8836 192.891 49.0426 193.889 46.6027" fill="white"/>
<path d="M181.963 58.7801C162.647 56.7764 161.527 35.1461 173.626 24.4585C162.924 31.6415 159.334 47.6896 169.12 56.562C166.628 56.843 168.052 59.0796 169.782 59.9114L170.606 60.1258C171.678 59.989 172.007 59.4123 171.601 58.1258C175.911 60.7838 181.438 60.8282 186.137 58.6951C184.751 58.8533 183.354 58.8817 181.963 58.7801V58.7801Z" fill="#FFB8D5"/>
<path d="M180.817 80.026C178.92 80.1887 176.979 75.6896 180.103 75.8005C181.515 75.9668 183.316 79.904 180.817 80.026Z" fill="#FFCB66"/>
<path d="M173.863 11.7302C171.966 11.8929 170.026 7.3938 173.146 7.5047C174.554 7.67476 176.362 11.6082 173.863 11.7302Z" fill="#3366CC"/>
<path d="M60.8391 20.4031C58.9426 20.5657 57.0017 16.0666 60.1256 16.1776C61.5304 16.3476 63.3381 20.2811 60.8391 20.4031Z" fill="#FFCB66"/>
<path d="M49.0163 100.185C47.1235 100.344 45.1789 95.8448 48.3028 95.9558C49.7076 96.1184 51.5154 100.048 49.0163 100.185Z" fill="#FFCB66"/>
<path d="M133.301 25.1682C131.253 25.5638 130.17 21.7302 132.957 21.793C134.44 21.8595 136.292 25.305 133.301 25.1682Z" fill="#3366CC"/>
<path d="M92.4213 123.22C90.3732 123.616 89.2937 119.782 92.0812 119.845C93.5673 119.911 95.4231 123.357 92.4213 123.22Z" fill="#3366CC"/>
<path d="M41.734 115.712C39.686 116.107 38.6028 112.274 41.3902 112.34C42.8838 112.385 44.7322 115.845 41.734 115.712Z" fill="#FFCB66"/>
<path d="M100.776 117.364C101.024 115.146 105.323 115.412 103.974 118.3C103.116 119.457 99.9038 120.059 100.776 117.364Z" fill="#FFCB66"/>
<path d="M136.784 9.61192C134.336 9.72653 136.081 5.24963 138.262 6.14057C139.619 6.9354 138.665 9.68956 136.784 9.61192Z" fill="#FFCB66"/>
<path d="M86.5067 7.45662C84.0594 7.57123 85.8043 3.09433 87.9854 3.98158C89.368 4.7838 88.4143 7.53796 86.5067 7.45662Z" fill="#FFCB66"/>
<path d="M32.6839 23.3457C30.2366 23.4603 31.9815 18.9834 34.1627 19.8743C35.5379 20.6729 34.5841 23.427 32.6839 23.3457Z" fill="#FFCB66"/>
<path d="M193.246 85.4788C190.799 85.5971 192.544 81.1202 194.725 82.0075C196.1 82.8097 195.15 85.5638 193.246 85.4788Z" fill="#FFCB66"/>
<path d="M178.366 114.019C175.918 114.133 177.663 109.656 179.844 110.547C181.22 111.349 180.266 114.1 178.366 114.019Z" fill="#3366CC"/>
<path d="M142.835 18.4326C142.906 19.5416 141.32 20.0629 140.218 19.5416C137.471 17.9002 142.957 13.9594 142.835 18.4326Z" fill="#FFCB66"/>
<path d="M98.5286 2.06291C98.5988 3.17196 97.0129 3.69692 95.9075 3.17196C93.1608 1.53056 98.6469 -2.4066 98.5286 2.06291Z" fill="#FFCB66"/>
<path d="M39.597 15.0241C39.6673 16.1331 38.0813 16.6544 36.9797 16.1331C34.2292 14.4917 39.7153 10.5546 39.597 15.0241V15.0241Z" fill="#3366CC"/>
<path d="M54.6912 103.116C54.7614 104.226 53.1755 104.747 52.0701 104.226C49.3234 102.584 54.8095 98.647 54.6912 103.116V103.116Z" fill="#3366CC"/>
<path d="M187.061 72.2736C187.027 73.013 186.661 73.3013 185.582 73.464C181.33 73.6747 186.713 66.4954 187.061 72.2736Z" fill="#3366CC"/>
<path d="M0.0478324 74.0703C-0.51409 72.0592 4.16613 69.3901 4.04044 72.928C3.72251 74.1886 0.65042 76.403 0.0478324 74.0703V74.0703Z" fill="#FFCB66"/>
<path d="M8.82036 78.7432C8.08099 78.8467 7.73718 78.5436 7.38228 77.5195C6.41001 73.3716 14.4174 77.3716 8.82036 78.7432Z" fill="#3366CC"/>
<path d="M58.0627 30.9095C61.3307 32.939 67.693 31.9779 64.1921 27.7893C59.608 26.1516 60.3695 32.6433 63.2568 34.0407C65.8889 36.1886 71.4194 32.9317 70.0257 31.0832C64.2623 37.9557 59.5451 29.5195 63.0017 28.4954C65.0276 28.3549 64.4804 30.6618 62.6616 31.0019C61.2864 31.8891 57.1644 28.7838 58.0775 30.8799L58.0627 30.9095Z" fill="#FFCB66"/>
<path d="M128.491 111.22C128.924 114.847 133.341 119.446 134.75 114.251C133.43 109.446 128.51 113.993 129.253 117.253C129.319 121.183 135.907 122.762 135.711 120.651C127.171 120.847 130.129 111.645 133.386 113.586C135.142 115.856 131.486 115.9 130.554 114.222C129.844 113.712 129.404 109.29 128.491 111.22V111.22Z" fill="#FFCB66"/>
<path d="M63.0202 117.63C67.0867 115.922 68.4472 110.288 63.645 110.425C60.3178 111.693 63.4712 115.564 65.9555 115.409C67.3086 115.542 70.51 114.518 69.6745 113.331C68.6062 113.227 67.7818 114.688 66.377 114.503C64.9832 114.702 62.3585 112.921 63.2975 111.693C65.4934 109.915 66.3511 113.46 65.194 114.773C64.6986 115.882 60.9019 117.275 63.0202 117.63V117.63Z" fill="#FFCB66"/>
<path d="M25.2676 120.969C25.2676 124.725 29.3341 128.107 33.0901 128.913C36.3914 129.623 40.6872 129.775 46.3286 127.434C58.4838 122.366 69.6151 123.845 68.6317 132.717" stroke="#0D1223" stroke-width="0.5"/>
<path d="M27.0056 121.86L26.329 122.366C25.22 122.858 21.7819 123.324 23.3494 120.78C1.68208 123.697 -7.29389 89.7302 12.5693 82.2329C34.3808 76.1553 46.122 111.889 26.0998 119.852C26.817 120.148 27.8152 120.821 27.0056 121.86V121.86Z" fill="#FF80A7"/>
<path d="M26.9868 84.7985C21.5524 80.7764 13.4452 80.159 7.9554 84.732C-0.772879 107.793 31.5451 121.76 35.3121 96.3512C33.8926 91.9594 30.9757 87.5046 26.9868 84.7985Z" fill="#FF92B9"/>
<path d="M26.9868 84.7985C21.5524 80.7764 13.4452 80.159 7.9554 84.732C-0.772879 107.793 31.5451 121.76 35.3121 96.3512C33.8926 91.9594 30.9757 87.5046 26.9868 84.7985Z" fill="#FF92B9"/>
<path d="M29.2713 92.2255C28.4912 90.5952 21.2195 84.6359 21.5079 87.6932C24.3988 90.7135 26.6169 94.403 28.9422 98.0185C30.6946 99.7671 32.4432 97.878 31.1973 95.586" fill="white"/>
<path d="M33.0684 112.322C19.4491 125.86 2.21809 113.205 1.58962 97.2607C0.369658 109.845 10.3697 122.736 23.3493 120.773C22.0185 122.81 24.573 123.179 26.329 122.359L27.0055 121.86C27.5563 121.039 27.3087 120.292 26.0998 119.852C30.8466 118.203 34.3031 114.015 35.6155 109.08C34.869 110.237 34.0162 111.322 33.0684 112.322V112.322Z" fill="#FFB8D5"/>
</g>
<defs>
<clipPath id="clip0_1_6740">
<rect width="200" height="133" fill="white"/>
</clipPath>
</defs>
</svg>
