<svg width="259" height="148" viewBox="0 0 259 148" fill="none" xmlns="http://www.w3.org/2000/svg">
<path d="M80.2817 16.6235C84.5071 -3.70979 64.5 -3.75195 62.0071 7.7637C60.324 15.1902 63.7958 21.4574 64.1197 28.6661C64.1197 34.0691 58.0423 35.3408 55.7465 30.528C52.6972 21.4363 62.7535 2.81036 47.8873 1.14519C30.824 4.89708 44.0423 25.2093 41.993 36.2753C41.8521 44.7065 37.5211 52.4984 38.5916 60.7188C40.2254 71.6513 51.331 73.457 58.4085 67.2109C61.9296 64.6464 54.4437 43.7791 63.6409 46.2663C67.6127 53.2923 58.9789 66.6418 69.0704 70.4709C72.3733 71.7286 77.8099 71.1736 79.7465 67.8573C81.9648 64.0632 79.0845 59.3417 77.9789 55.6812C74.0704 42.8025 78.5845 29.432 80.2817 16.6235V16.6235ZM75.1479 68.7285C57.0423 71.7918 72.9155 46.1328 63.3803 44.5028C63.0916 44.3974 63.3803 44.4536 62.4507 44.5028C51.0916 44.2007 62.824 67.6535 52.5916 68.1453C31.4014 72.4663 44.7254 43.491 43.7747 33.233C44.3662 25.7152 40.6268 18.914 40.8451 11.1502C40.8451 5.78939 47.1831 0.280988 52.0071 4.43337C57.7606 11.5929 52.162 20.5932 53.331 28.7645C54.0916 35.383 61.9719 38.1864 65.1197 31.9192C68.7183 22.3568 55.7042 6.09151 70.3662 2.01642C87.9718 0.126415 72.5845 35.5727 74.5916 43.744C73.162 54.9575 83.324 65.8478 75.1268 68.7285H75.1479Z" fill="#E30613"/>
<path d="M121.753 55.8217C114.965 50.9597 112.197 50.8121 114.873 42.3669C120.289 25.1531 109.19 9.87151 92.9718 17.5018C80.2182 26.2562 83.8168 41.868 100.901 34.3642C103.451 34.0691 104.739 34.9755 105.091 37.7648C107.021 40.2731 103.796 41.2005 102.014 41.2146C73.6689 36.9006 88.7816 80.7641 109.76 63.1147C115.232 74.1104 128.232 64.6394 121.753 55.8217V55.8217ZM121.655 60.9718C121.451 66.8736 114.31 67.9135 111.796 63.0796C110.549 57.6344 109.732 61.035 106.965 63.0796C94.5844 71.6443 82.3168 54.4938 91.4718 44.8962C94.6478 41.2216 98.5774 42.7884 102.972 43.21C106.162 43.3786 108.866 39.1419 106.218 36.8374C105.514 31.4063 98.9577 32.13 94.9506 34.1253C82.6408 37.1536 87.514 20.9797 94.9506 18.5487C112.937 12.2252 117.444 31.8981 112.31 44.5449C109.239 56.2714 121.62 52.8637 121.655 60.9718Z" fill="#E30613"/>
<path d="M101.739 48.7746C101.555 48.8061 101.385 48.8946 101.254 49.0276C94.9577 50.1236 94.338 59.1872 101.289 58.9624C107.634 58.316 108.493 48.2196 101.739 48.7746ZM104.042 54.9856C99.3239 60.9015 94.8873 52.7443 101.62 50.482C104.056 50.1306 105.345 52.8567 104.042 54.9856Z" fill="#E30613"/>
<path d="M155.254 33.6827C152.092 6.66763 116.521 9.35157 123.197 33.1909C127.289 44.6854 127.345 55.358 126.937 67.1687C127.275 72.0448 129.923 76.7522 135.627 76.5765C145.74 74.0191 141.803 56.7983 138.683 50.8613C149.74 54.0511 156.549 43.0062 155.254 33.6827V33.6827ZM151.93 42.5636C148.218 49.7863 143.775 49.3156 137.493 48.8378C136.085 48.7957 137.373 50.6576 137.838 52.2595C145.31 75.0449 132.866 79.4361 129.521 69.7613C128.747 66.8385 129.064 63.4379 129.225 60.9718C131.437 42.2896 120.106 29.0455 126.606 20.4738C140.331 6.8222 158.718 28.3218 151.93 42.5636V42.5636Z" fill="#E30613"/>
<path d="M144.697 33.0223C144.345 31.0971 141.739 28.6591 139.768 29.8606C130.366 34.2097 144.246 42.943 144.697 33.0223ZM140.634 35.7624C138.521 35.8186 137.613 32.418 140.049 31.329C142.838 31.4906 144 34.9825 140.634 35.7554V35.7624Z" fill="#E30613"/>
<path d="M187.324 32.4602C184.162 5.44511 148.592 8.12202 155.268 31.9683C159.359 43.4629 159.416 54.1354 159.007 65.9462C159.345 70.8222 161.993 75.5297 167.697 75.347C177.81 72.7966 173.873 55.5758 170.754 49.6318C181.817 52.8286 188.627 41.7837 187.324 32.4602V32.4602ZM184 41.3411C180.289 48.5638 175.838 48.0931 169.563 47.6083C168.19 47.5731 169.444 49.435 169.908 51.037C177.38 73.8224 164.937 78.2066 161.592 68.5388C160.817 65.616 161.134 62.2154 161.296 59.7422C163.507 41.06 152.141 27.816 158.676 19.2512C172.408 5.62076 190.796 27.0993 184.007 41.3411H184Z" fill="#E30613"/>
<path d="M176.76 31.7927C176.408 29.8676 173.803 27.4295 171.831 28.6239C162.444 33.0222 176.324 41.7134 176.76 31.7927ZM172.697 34.5328C170.584 34.589 169.676 31.1884 172.113 30.0994C174.915 30.268 176.056 33.76 172.711 34.5328H172.697Z" fill="#E30613"/>
<path d="M216.402 36.5353C229.782 19.6307 206.972 7.02598 205.606 29.5092C205.162 31.2095 204.409 32.952 202.535 32.8255C198.74 32.0105 201.014 26.46 200.761 23.8322C200.479 19.3285 196.817 16.5533 192.063 17.572C178.599 22.8556 187.733 42.2826 198.324 45.7534C179.93 79.6188 228.007 79.5345 210.563 46.5263C209.493 42.1561 214.176 40.252 216.402 36.5353ZM208.211 44.3342C208.211 48.6481 211.465 52.6178 212.317 57.1988C215.479 68.335 200.409 74.3704 196.38 63.2131C194.085 56.9388 203.071 42.2826 199.162 43.8985C171.423 28.4413 201.507 5.25542 198.458 29.7973C198.458 32.2072 199.866 34.3853 202.458 34.8771C208.035 35.1582 207.479 27.5911 208.641 23.5652C210.183 17.291 217.303 18.6821 218.634 24.2678C219.5 30.3945 215.352 34.8912 211.535 39.3176C210.141 40.7509 208.556 42.0296 208.211 44.306V44.3342Z" fill="#E30613"/>
<path d="M227.204 134.935C220.416 130.073 217.648 129.932 220.324 121.48C225.733 104.273 214.641 88.9915 198.423 96.6218C185.669 105.376 189.268 120.988 206.352 113.484C208.902 113.189 210.19 114.096 210.578 116.885C212.507 119.393 209.282 120.321 207.5 120.328C179.155 116.021 194.268 159.877 215.247 142.235C220.683 153.223 233.683 143.752 227.204 134.935ZM227.106 140.092C226.902 145.994 219.761 147.026 217.247 142.2C216 136.754 215.183 140.155 212.416 142.2C200.035 150.764 187.768 133.607 196.958 124.016C200.134 120.342 204.064 121.908 208.458 122.323C211.648 122.492 214.352 118.262 211.704 115.957C211 110.519 204.437 111.25 200.437 113.245C188.127 116.274 193 100.1 200.437 97.6687C218.423 91.3453 222.93 111.018 217.796 123.665C214.69 135.384 227.071 131.977 227.106 140.092V140.092Z" fill="#EA5B0C"/>
<path d="M207.19 127.874C207.006 127.9 206.835 127.986 206.704 128.119C200.402 129.223 199.789 138.279 206.74 138.061C213.085 137.408 213.944 127.34 207.19 127.874V127.874ZM209.493 134.078C204.775 140 200.338 131.843 207.071 129.574C209.507 129.279 210.789 131.97 209.493 134.099V134.078Z" fill="#EA5B0C"/>
<path d="M254.796 113.119C268.176 96.2142 245.373 83.6095 244 106.093C243.563 107.793 242.803 109.529 240.93 109.409C237.141 108.587 239.416 103.044 239.162 100.416C238.88 95.9051 235.218 93.1368 230.465 94.1486C216.993 99.4321 226.134 118.866 236.718 122.33C218.331 156.223 266.402 156.139 248.986 123.131C247.887 118.74 252.578 116.85 254.796 113.119V113.119ZM246.606 120.918C246.606 125.225 249.866 129.194 250.718 133.782C253.88 144.919 238.803 150.954 234.782 139.79C232.479 133.522 241.465 118.859 237.556 120.482C209.824 105.025 239.909 81.839 236.852 106.381C236.852 108.791 238.261 110.969 240.845 111.461C246.423 111.742 245.866 104.175 247.028 100.142C248.571 93.8675 255.697 95.2587 257.021 100.844C257.894 106.971 253.747 111.461 249.93 115.894C248.542 117.334 246.951 118.62 246.606 120.904V120.918Z" fill="#EA5B0C"/>
<path d="M27.2325 111.854C52.1198 89.3709 10.2255 71.588 1.0635 86.2232C-1.65481 102.144 1.76772 118.416 1.1973 134.703C1.40153 139.466 4.11279 145.994 9.64801 144.926C48.8311 153.87 49.7818 115.557 27.2325 111.854V111.854ZM38.3593 135.244C32.3945 147.813 16.7889 143.155 6.40153 142.712C0.767724 135.982 4.02125 124.852 2.81702 116.407C3.25364 106.838 0.739555 96.2423 3.07758 86.5745C6.64801 81.5931 15.3804 82.7945 20.5776 84.3332C38.8874 91.1484 33.817 103.732 22.9508 113.084C23.486 114.236 23.8804 113.737 25.5001 113.878C30.5411 114.052 35.1506 116.761 37.7472 121.076C40.3437 125.39 40.5741 130.723 38.3593 135.244Z" fill="#EA5B0C"/>
<path d="M22.6551 125.576C18.127 121.67 12.289 130.255 17.4087 133.867C23.6129 138.293 29.1411 128.576 22.6551 125.576ZM20.0073 132.988C15.1481 131.141 17.4298 125.962 22.2537 126.44C24.9087 128.576 23.9791 133.586 20.0073 132.988V132.988Z" fill="#EA5B0C"/>
<path d="M22.3031 98.2799C21.5566 96.2073 18.0284 94.4297 16.1974 96.2143C6.9439 103.985 24.0284 108.397 22.3031 98.2799ZM19.1129 102.095C15.7749 103.563 14.3594 100.444 16.3664 97.6827C16.8011 97.7 17.2358 97.6502 17.6552 97.5352C17.9791 97.7178 17.7397 97.7249 18.3594 97.4509C20.62 97.1698 21.6622 101.034 19.1129 102.095V102.095Z" fill="#EA5B0C"/>
<path d="M60.2606 118.409C59.8522 116.126 59.5916 109.276 56.1268 109.409C39.1338 104.006 41.3381 131.105 44.2184 139.67C47.5986 145.614 56.9507 143.408 60.6831 138.968C64.2958 133.052 61.0423 125.063 60.2606 118.409V118.409ZM56.6338 139.74C42.9789 145.6 44.5705 133.22 44.7465 124.909C44.5 115.48 45.7747 109.971 55.2606 110.308C56.9155 111.608 58.1902 116.224 58.4437 119.702C58.9015 125.464 63.1057 136.417 56.6338 139.74V139.74Z" fill="#EA5B0C"/>
<path d="M56.5706 97.479C56.0072 94.6685 52.5283 92.3289 49.6903 93.9659C35.6621 100.015 57.2255 112.416 56.5706 97.479ZM51.7114 102.65C46.9861 103.458 45.3734 97.3244 49.3734 95.0128C49.4189 95.2484 49.5678 95.4513 49.7792 95.5656C49.9906 95.6799 50.2423 95.6936 50.465 95.603C55.0213 93.706 56.4086 101.73 51.7114 102.65V102.65Z" fill="#EA5B0C"/>
<path d="M86.3239 124.642C107.401 107.906 79.9366 91.0431 67.9718 103.676C66.4437 105.735 66.4578 108.65 66.6549 111.496C67.9648 120.798 67.7817 129.377 69.4225 138.722C73.0141 148.474 82.6197 143.317 79.9859 134.506C82.3803 139.164 86.3239 144.455 91.5 142.235C99.1901 138.876 90.1408 128.576 86.3239 124.642V124.642ZM88.7887 140.478C81.4155 139.74 81.3521 127.508 78.2958 129.848C77.1127 130.052 77.9578 131.801 78.1127 133.431C80.2254 142.635 72.2606 145.193 70.7747 136.024C70.162 115.824 64.1972 103.311 75.162 101.695C85.8873 99.2003 96.669 108.587 89.8873 118.276C88.4789 121.381 83.6549 122.344 84.1197 125.302C87.2535 128.253 97.6831 140.443 88.7887 140.478Z" fill="#EA5B0C"/>
<path d="M83.9296 111.924C83.3852 110.635 82.2297 109.704 80.8521 109.444C79.1127 107.99 76.2113 109.992 75.7817 112.255C74.6479 119.597 85.7817 118.55 83.9296 111.924ZM80.5634 115.557C78.4507 115.887 76.3381 113.667 77.9789 111.173C81.0423 111.116 84.5071 112.831 80.5634 115.557Z" fill="#EA5B0C"/>
<path d="M124.606 101.645C124.606 93.6216 120.528 92.6661 114.683 96.2213C123.873 79.2183 109.662 71.5459 104.887 80.1879C103.239 85.4434 105.197 90.9307 105.197 96.6077C91.5071 89.5817 95.4085 116.105 106.232 107.308C106.732 104.681 100.909 110.442 98.7817 104.378C96.5564 91.5701 105.824 100.767 107.183 98.9895C108.183 92.8347 104.106 84.3262 107.69 79.4502C113.07 75.8809 116.683 83.174 115.613 87.5231C116.042 90.3335 108.338 101.575 113.873 98.9403C118.38 96.3829 122.683 94.802 122.62 101.125C122.923 117.131 111.535 100.774 113.711 110.224C114.69 119.787 115.824 126.63 114.683 136.993C112.19 145.614 103.225 138.398 104.824 131.485C104.986 123.686 110.113 106.613 107.289 106.543C105.373 106.992 106.324 110.294 105.507 112.423C104.5 121.677 100.578 130.691 104.465 139.171C121.57 155.275 116.732 117.25 115.592 109.662C122.535 113.028 124.958 107.119 124.606 101.645Z" fill="#EA5B0C"/>
<path d="M152.528 111.58C148.732 109.072 143.24 109.023 139.634 111.665C152.063 71.7918 128.366 75.607 127.169 87.1999C127.099 104.322 128.099 121.353 127.359 138.616C127.838 146.633 142.754 146.415 143.979 139.888C145.007 135.799 136.113 125.576 144.923 126.595C147.613 128.302 147.514 131.091 146.88 134.162C143.317 145.839 154.225 145.467 158.528 138.089C162.831 129.581 160.12 117.075 152.528 111.58V111.58ZM158.275 133.157C158.113 139.354 147.937 145.685 148.176 137.078C152.106 126.686 143.113 119.983 139.247 127.08C137.204 132.3 145.585 139.122 139.74 142.08C123.873 146.563 130.585 128.288 129.669 120.124C130.62 105.039 127.211 92.9331 130.141 84.2911C131.082 82.4709 132.973 81.3377 135.025 81.364C137.078 81.3913 138.939 82.5734 139.831 84.4176C144.479 93.6006 138.352 103.718 137.972 113.224C137.563 113.829 135.782 115.768 137.627 116.477C138.19 116.667 138.535 116.99 138.768 115.445C150 103.037 161.19 122.52 158.275 133.157V133.157Z" fill="#EA5B0C"/>
<path d="M190.078 112.255C187.021 104.126 177.296 96.7975 168.69 98.6664C160.578 102.313 160.881 114.355 160.599 122.175C159.895 141.399 166.233 147.041 182.733 141.792C192.395 136.579 192.557 119.695 190.078 112.255V112.255ZM188.613 128.625C187.204 141.427 173.233 145.165 165.268 138.518C160.127 130.347 162.451 101.779 168.909 99.924C169.057 100.029 168.909 99.9241 169.535 100.121C169.719 100.226 169.535 100.121 169.993 100.121C186.204 101.294 191.747 115.606 188.613 128.625V128.625Z" fill="#EA5B0C"/>
<path d="M179.155 118.74C178.19 117.152 175.93 115.768 174.099 116.576C172.69 115.712 172.747 118.908 172.472 120.475C171.634 133.199 182.437 125.204 179.155 118.74V118.74ZM176.409 124.55C173.697 125.78 174.578 120.335 174.296 118.36C177.74 118.037 178.965 122.288 176.409 124.543V124.55Z" fill="#EA5B0C"/>
</svg>
