<svg width="183" height="189" viewBox="0 0 183 189" fill="none" xmlns="http://www.w3.org/2000/svg">
<path fill-rule="evenodd" clip-rule="evenodd" d="M128.338 112.813C126.92 112.372 128.128 117.399 125.386 118.559C124.324 114.45 118.462 119.035 123.873 120.073C122.507 124.579 118.588 125.149 115.906 125.358C119.944 132.17 128.712 117.114 128.338 112.813" fill="#9CEBEF"/>
<path fill-rule="evenodd" clip-rule="evenodd" d="M157.112 78.5442C175.455 69.8772 190.014 89.9922 177.248 103.991C166.978 116.407 130.911 119.666 127.814 104.84C115.947 41.3112 164.341 53.4192 152.67 81.1122C152.67 81.1122 154.794 79.7312 157.112 78.5442" fill="#D2ACF5"/>
<path fill-rule="evenodd" clip-rule="evenodd" d="M182.034 89.8763C181.322 84.7173 177.149 79.5083 171.957 77.5913C169.84 99.4743 141.201 118.39 126.69 97.5743C125.414 128.029 186.62 114.135 182.034 89.8763" fill="#AB7CE8"/>
<path fill-rule="evenodd" clip-rule="evenodd" d="M132.637 109.441C131.965 111.581 133.093 118.176 127.426 112.636C122.78 108.7 127.489 108.721 131.976 107.443" fill="#AB7CE8"/>
<path fill-rule="evenodd" clip-rule="evenodd" d="M171.41 81.7416C166.442 76.5626 153.499 81.9496 152.048 86.3106C164.752 76.7456 171.416 85.6466 171.41 81.7416Z" fill="white"/>
<path fill-rule="evenodd" clip-rule="evenodd" d="M69.597 160.141C69.781 162.377 65.386 166.762 65.534 158.582C64.839 157.206 67.866 153.033 60.635 154.574C59.451 154.675 57.32 154.11 58.269 157.626C60.281 164.741 50.025 171.891 56.106 141.11C56.885 138.937 62.301 138.401 58.962 149.748C59.467 150.092 64.502 150.993 65.719 149.1C64.368 134.556 72.08 135.387 69.597 160.141Z" fill="#FFD320"/>
<path fill-rule="evenodd" clip-rule="evenodd" d="M84.7789 154.5C84.1629 151.529 85.4139 148.3 82.8669 143.606C80.3309 146.376 79.8249 149.206 78.7469 154.463C80.1139 154.495 81.4819 154.504 84.7789 154.5V154.5ZM89.2319 161.311C89.3379 163.425 84.6729 165.333 85.0219 160.835C84.6699 159.649 85.7769 157.473 82.9969 158.027C76.7559 157.253 79.3019 158.609 75.0749 163.725C68.1639 165.851 85.4999 109.11 89.2319 161.311" fill="#FFD320"/>
<path fill-rule="evenodd" clip-rule="evenodd" d="M105.49 145.703C106.088 144.015 97.3556 137.89 98.1026 151.011C100.112 150.513 104.167 149.426 105.49 145.703ZM108.626 146.074C107.95 154.363 95.5836 151.768 97.6386 161.699C97.4266 162.017 97.9056 163.983 96.0246 163.871C92.2606 163.257 94.4266 155.353 94.8556 150.993C95.6766 148.162 93.2596 142.384 97.4066 140.108C101.269 138.521 109.352 139.026 108.626 146.074" fill="#FFD320"/>
<path fill-rule="evenodd" clip-rule="evenodd" d="M122.433 145.703C123.031 144.015 114.299 137.89 115.046 151.011C117.055 150.513 121.11 149.426 122.433 145.703ZM125.569 146.074C124.893 154.363 112.527 151.768 114.582 161.699C114.37 162.017 114.849 163.983 112.968 163.871C109.204 163.257 111.37 155.353 111.799 150.993C112.62 148.162 110.203 142.384 114.35 140.108C118.212 138.521 126.295 139.026 125.569 146.074" fill="#FFD320"/>
<path fill-rule="evenodd" clip-rule="evenodd" d="M143.273 142.252C141.256 146.554 137.135 150.682 135.136 156.405C133.498 157.933 134.835 165.834 130.498 163.483C129.193 159.718 133.612 155.972 130.06 151.977C129.187 151.337 126.244 134.877 131.674 141.416C132.004 144.459 132.161 147.835 133.995 151.438C135.035 150.717 141.442 133.712 143.273 142.252" fill="#FFD320"/>
<path fill-rule="evenodd" clip-rule="evenodd" d="M51.5024 176.382C51.0524 174.061 46.8104 175.168 47.6904 178.955C48.2224 178.753 47.5654 179.332 49.9684 178.094C50.2854 177.778 51.1864 177.637 51.5024 176.382V176.382ZM52.8244 182.001C52.4604 175.618 40.9874 187.421 50.3314 184.964C51.2314 184.283 52.3974 184.071 52.8244 182.001ZM55.7524 182.721C56.2814 184.572 45.2174 193.077 44.3494 185.26C45.2694 183.011 42.7254 167.825 53.8864 174.151C54.4924 175.084 54.6134 176.643 53.0844 178.247C54.5914 179.266 55.5064 178.985 55.7524 182.721" fill="#FF5084"/>
<path fill-rule="evenodd" clip-rule="evenodd" d="M67.0736 187.727C67.0226 188.46 58.1986 190.227 58.3556 186.565C61.8856 186.837 61.1496 181.934 61.7376 175.509C54.3186 177.062 62.1106 169.982 67.0966 173.938C67.2026 175.457 64.4096 174.223 64.1926 176.169C64.2516 179.094 62.5436 183.367 64.0736 186.464C65.0236 186.621 67.3396 185.493 67.0736 187.727" fill="#FF5084"/>
<path fill-rule="evenodd" clip-rule="evenodd" d="M78.2291 176.642C79.0591 175.435 74.4231 173.836 73.7431 176.559C72.5221 179.73 75.6031 180.745 78.2291 176.642ZM81.2281 187.444C80.0571 190.537 77.3961 184.651 73.4961 182.226C74.0031 187.663 69.0441 192.98 71.0031 181.275C72.0951 179.478 69.5421 174.893 72.6921 173.136C78.2581 171.023 85.7681 177.163 76.0341 181.352C77.3591 182.742 81.2161 184.189 81.2281 187.444" fill="#FF5084"/>
<path fill-rule="evenodd" clip-rule="evenodd" d="M95.9838 174.505C95.8278 177.039 92.2048 173.682 91.6298 176.85C90.6008 177.453 92.1038 189.356 87.6798 188.282C85.8798 186.469 90.9888 177.836 87.5788 175.54C86.9208 175.276 85.1388 176.4 84.6518 175.084C82.9678 173.671 94.5058 171.213 95.9838 174.505" fill="#FF5084"/>
<path fill-rule="evenodd" clip-rule="evenodd" d="M107.423 186.05C107.455 187.853 104.6 189.831 104.837 185.058C105 183.08 104.847 181.72 100.901 182.569C99.0722 182.52 101.27 185.971 99.6852 188.245C96.6312 190.185 97.1092 176.625 99.5832 173.135C102.29 173.134 101.138 176.533 100.681 179.663C105.129 179.138 104.954 181.803 105.15 173.579C108.252 171.16 107.806 179.47 107.423 186.05" fill="#FF5084"/>
<path fill-rule="evenodd" clip-rule="evenodd" d="M119.488 178.318C120.591 176.028 112.407 170.116 113.261 184.197C112.498 186.788 118.241 184.281 119.488 178.318ZM121.884 178.932C122.747 184.475 108.583 195.558 110.845 182.521C111.732 179.649 109.063 170.529 118.75 173.223C120.675 174.179 122.118 175.999 121.884 178.932Z" fill="#FF5084"/>
<path fill-rule="evenodd" clip-rule="evenodd" d="M130.796 181.234C130.694 180.632 131.012 180.46 129.745 176.016C129.505 175.22 124.064 185.801 130.796 181.234ZM134.302 187.514C131.556 190.609 133.094 185.136 130.679 184.739C129.289 184.897 125.58 184.566 125.29 188.081C124.979 188.208 124.913 188.654 123.99 188.051C121.252 189.669 131.222 153.399 134.302 187.514" fill="#FF5084"/>
<path fill-rule="evenodd" clip-rule="evenodd" d="M145.778 174.611C143.946 178.845 141.074 183.192 138.95 188.387C136.801 188.894 136.111 186.57 139.143 181.777C136.416 183.363 134.405 170.743 138.489 174.361C138.925 175.054 137.899 177.442 139.327 179.15C141.257 181.148 143.222 168.942 145.778 174.611Z" fill="#FF5084"/>
<path fill-rule="evenodd" clip-rule="evenodd" d="M23.1938 139.926C23.8028 139.124 28.8688 140.541 31.6518 141.421C33.8928 141.484 41.9528 146.944 43.0598 142.658C40.8228 139.086 22.5568 136.521 23.1938 139.926" fill="#9CEBEF"/>
<path fill-rule="evenodd" clip-rule="evenodd" d="M43.3637 150.433C41.1577 150.757 12.9387 151.373 22.7797 154.194C27.0417 154.545 51.6727 155.249 43.3637 150.433Z" fill="#9CEBEF"/>
<path fill-rule="evenodd" clip-rule="evenodd" d="M42.5661 159.406C39.2661 160.748 23.8921 167.284 26.9501 168.617C30.7821 168.62 49.6281 162.722 42.5661 159.406Z" fill="#9CEBEF"/>
<path fill-rule="evenodd" clip-rule="evenodd" d="M168.97 151.545C163.726 148.845 156.567 149.486 150.21 148.722C147.777 149.809 172.325 155.623 168.97 151.545Z" fill="#9CEBEF"/>
<path fill-rule="evenodd" clip-rule="evenodd" d="M145.291 155.438C143.57 155.576 146.034 157.366 147.528 158.628C173.202 178.641 159.788 159.866 145.291 155.438Z" fill="#9CEBEF"/>
<path fill-rule="evenodd" clip-rule="evenodd" d="M165.159 137.9C161.493 138.249 152.087 140.392 151.108 143.804C152.656 144.151 169.964 139.771 165.159 137.9Z" fill="#9CEBEF"/>
<path fill-rule="evenodd" clip-rule="evenodd" d="M154.964 120.944C152.55 123.312 155.844 127.919 159.198 125.267C161.611 122.9 158.318 118.293 154.964 120.944Z" fill="#FF5084"/>
<path fill-rule="evenodd" clip-rule="evenodd" d="M155.361 133.73C154.977 134.164 154.637 135.053 155.335 136.229C158.436 138.59 159.821 131.788 155.361 133.73Z" fill="#9CEBEF"/>
<path fill-rule="evenodd" clip-rule="evenodd" d="M168.554 132.54C164.513 136.497 170.656 142.782 174.702 138.819C178.742 134.863 172.601 128.577 168.554 132.54Z" fill="#FAD61D"/>
<path fill-rule="evenodd" clip-rule="evenodd" d="M167.452 118.303C165.094 120.612 168.678 124.28 171.04 121.968C173.397 119.659 169.813 115.991 167.452 118.303Z" fill="#D2ACF5"/>
<path fill-rule="evenodd" clip-rule="evenodd" d="M29.7914 70.4936C25.7994 69.0326 23.1024 74.7436 27.1804 76.8666C31.1714 78.3266 33.8694 72.6176 29.7914 70.4936Z" fill="#FAD61D"/>
<path fill-rule="evenodd" clip-rule="evenodd" d="M29.4457 61.0517C27.2687 60.1597 25.8797 63.5417 28.0597 64.4347C30.2367 65.3267 31.6267 61.9457 29.4457 61.0517Z" fill="#D2ACF5"/>
<path fill-rule="evenodd" clip-rule="evenodd" d="M36.9302 67.2264C34.9692 66.4214 32.7892 69.4724 35.3832 71.0034C37.3442 71.8084 39.5242 68.7564 36.9302 67.2264Z" fill="#FF5084"/>
<path fill-rule="evenodd" clip-rule="evenodd" d="M40.8961 51.3978C39.6091 50.2628 36.7991 50.8098 36.3411 53.1768C36.4661 59.0848 44.8021 55.7698 40.8961 51.3978Z" fill="#9CEBEF"/>
<path fill-rule="evenodd" clip-rule="evenodd" d="M15.4818 130.202C16.1448 126.056 9.07184 124.364 8.15584 129.406C7.49284 133.551 14.5658 135.243 15.4818 130.202Z" fill="#FF5084"/>
<path fill-rule="evenodd" clip-rule="evenodd" d="M2.12158 135.684C3.67258 134.678 1.08358 132.192 0.107577 134.582C0.067577 135.247 0.903577 136.26 2.12158 135.684Z" fill="#9CEBEF"/>
<path fill-rule="evenodd" clip-rule="evenodd" d="M16.4868 148.629C19.4028 147.549 17.2918 141.942 13.7648 144.606C11.9108 146.24 13.7898 149.535 16.4868 148.629Z" fill="#FAD61D"/>
<path fill-rule="evenodd" clip-rule="evenodd" d="M33.4945 125.676C33.7425 123.41 29.9405 122.067 29.1315 125.202C28.8835 127.468 32.6845 128.811 33.4945 125.676Z" fill="#D2ACF5"/>
<path fill-rule="evenodd" clip-rule="evenodd" d="M170.282 51.7895C173.381 49.5315 167.584 44.1495 166.011 49.5735C165.715 51.1225 168.108 53.3175 170.282 51.7895Z" fill="#D2ACF5"/>
<path fill-rule="evenodd" clip-rule="evenodd" d="M156.103 49.7968C157.92 50.1428 157.767 46.5568 155.411 47.6088C154.922 48.0618 154.826 49.3718 156.103 49.7968Z" fill="#9CEBEF"/>
<path fill-rule="evenodd" clip-rule="evenodd" d="M162.661 71.0145C165.181 72.2675 168.058 66.7585 163.475 66.2255C161.006 66.1245 160.086 69.8065 162.661 71.0145Z" fill="#FAD61D"/>
<path fill-rule="evenodd" clip-rule="evenodd" d="M176.502 63.3651C178.248 61.8991 176.429 58.3011 173.677 60.0071C171.932 61.4731 173.751 65.0721 176.502 63.3651Z" fill="#FF5084"/>
<path fill-rule="evenodd" clip-rule="evenodd" d="M81.7622 127.79C79.1112 127.69 73.3112 126.888 74.3152 122.561C78.6732 122.323 75.7782 116.561 73.0192 120.517C69.8782 116.361 69.1132 119.719 72.5572 122.059C72.5002 123.558 72.2922 125.285 73.8672 126.954C75.5562 129.448 84.7162 130.724 81.7622 127.79" fill="#9CEBEF"/>
<path fill-rule="evenodd" clip-rule="evenodd" d="M40.7594 86.8837C22.4914 79.3547 9.32535 99.5107 22.2444 112.559C32.8924 124.367 68.3734 125.705 70.6144 111.061C79.1054 48.7267 32.5204 62.6067 45.2164 89.1717C45.2164 89.1717 43.0774 87.9277 40.7594 86.8837Z" fill="#9CEBEF"/>
<path fill-rule="evenodd" clip-rule="evenodd" d="M51.1753 67.1654C47.5823 67.8224 45.3183 71.5224 44.0483 75.1524C59.4323 83.4864 65.3183 113.959 46.7493 121.601C66.1103 121.618 71.7373 117.833 71.5083 100.76C72.0343 84.6304 68.6563 64.0474 51.1753 67.1654" fill="#52D7DE"/>
<path fill-rule="evenodd" clip-rule="evenodd" d="M66.1284 115.823C66.8874 117.878 66.1074 124.364 71.3644 118.685C75.7044 114.621 71.1134 114.871 66.6764 113.844" fill="#52D7DE"/>
<path fill-rule="evenodd" clip-rule="evenodd" d="M31.6098 111.891C22.7248 105.023 22.3168 96.6169 29.7348 90.1459C24.9658 87.2749 20.2018 99.3519 21.3458 103.484C21.3528 108.265 29.4468 115.852 31.6098 111.891Z" fill="white"/>
<path fill-rule="evenodd" clip-rule="evenodd" d="M36.5387 111.724C33.3887 111.796 34.7477 117.864 38.2327 114.651C38.9127 113.315 38.4117 112.309 36.5387 111.724Z" fill="white"/>
<path fill-rule="evenodd" clip-rule="evenodd" d="M70.7279 33.9965C65.6539 -2.29453 78.2079 19.3185 88.9009 17.3095C90.8569 14.1115 97.1539 -0.0665283 101.708 0.193472C106.2 0.548472 110.559 15.7475 112.81 18.2525C113.266 19.9605 119.17 14.4995 123.559 12.4565C130.173 7.97747 129.764 26.6935 128.605 33.9965C108.977 26.4285 89.6649 25.9895 70.7279 33.9965Z" fill="#FFD320"/>
<path fill-rule="evenodd" clip-rule="evenodd" d="M72.6343 20.6796C73.0833 8.55062 69.4433 21.6366 71.1113 25.3946C73.3923 30.4936 73.5163 23.6806 72.6343 20.6796Z" fill="white"/>
<path fill-rule="evenodd" clip-rule="evenodd" d="M99.6967 4.39197C96.7107 5.71297 90.7767 18.369 95.8837 15.838C95.9197 12.765 99.7787 6.79097 99.6967 4.39197" fill="white"/>
<path fill-rule="evenodd" clip-rule="evenodd" d="M123.173 14.6776C121.806 14.8496 113.712 19.1736 117.684 20.5196C118.896 19.0806 122.885 16.4716 123.173 14.6776Z" fill="white"/>
<path fill-rule="evenodd" clip-rule="evenodd" d="M102.195 130.935C101.784 129.089 98.2898 126.986 99.1928 124.624C100.392 123.285 101.876 121.177 98.8108 123.649C95.4928 127.539 100.383 128.27 99.8388 132.158C94.9448 137.475 101.307 135.998 102.195 130.935" fill="#9CEBEF"/>
<path fill-rule="evenodd" clip-rule="evenodd" d="M84.9428 38.1757C59.9188 32.5657 47.8488 53.2287 53.5878 74.0667C59.7268 95.8217 87.1138 125.086 106.353 118.405C190.187 56.6327 121.892 19.5847 102.507 56.1847C102.507 56.1847 95.8228 40.3867 84.9428 38.1757" fill="#FF5084"/>
<path fill-rule="evenodd" clip-rule="evenodd" d="M136.448 44.4242C134.376 43.0102 130.501 41.8012 125.967 41.7262C132.55 51.5072 130.127 66.9722 124.486 78.7822C113.399 105.144 78.5806 111.325 60.2866 88.7952C69.7186 103.789 88.2826 122.806 104.816 118.85C110.9 116.624 115.079 111.327 121.581 105.896C140.412 88.0992 160.039 60.6112 136.448 44.4242" fill="#E52C73"/>
<path fill-rule="evenodd" clip-rule="evenodd" d="M98.5707 116.883C93.0907 124.221 92.1627 126.811 104.443 125.95C111.43 124.244 102.178 118.806 101.433 115.241" fill="#E52C73"/>
<path fill-rule="evenodd" clip-rule="evenodd" d="M80.559 42.1386C60.751 37.2946 49.4471 72.9796 62.8181 77.6086C64.0261 69.4846 59.635 59.8366 66.154 52.0566C72.917 40.8806 81.879 44.9326 80.559 42.1386" fill="white"/>
<path fill-rule="evenodd" clip-rule="evenodd" d="M64.1059 80.8431C61.1579 80.8431 61.1529 85.4241 64.1059 85.4241C67.0529 85.4241 67.0579 80.8431 64.1059 80.8431Z" fill="white"/>
</svg>
