<svg width="148" height="206" viewBox="0 0 148 206" fill="none" xmlns="http://www.w3.org/2000/svg">
<g clip-path="url(#clip0_1_5213)">
<path fill-rule="evenodd" clip-rule="evenodd" d="M128.623 200.61C124.504 197.022 119.519 193.815 113.997 191.134C119.502 187.648 135.831 181.046 117.301 181.58C77.0448 181.659 38.9478 178.111 10.9998 182.882C9.10377 184.237 13.1818 185.774 14.3558 187.748C26.0978 197.198 15.1628 195.79 10.7008 203.95C26.5378 207.298 46.4238 204.384 64.0758 204.857C80.6638 205.116 132.943 206.653 128.623 200.61Z" fill="#68E1D3"/>
<path fill-rule="evenodd" clip-rule="evenodd" d="M62.639 122.349C60.392 122.036 61.871 126.403 63.431 123.328C63.317 123.087 63.205 122.87 62.639 122.349ZM54.824 123.9C54.882 121.626 50.052 123.38 53.666 125.087C54.029 125.003 54.373 124.925 54.824 123.9ZM80.75 124.464C80.889 122.1 76.182 123.852 79.484 125.614C79.858 125.561 80.211 125.503 80.75 124.464ZM92.78 127.179C94.972 127.069 93.045 122.689 91.381 125.926C91.443 126.333 91.527 126.714 92.78 127.179ZM46.491 126.372C47.694 126.374 49.084 124.395 46.666 123.574C45.815 123.396 44.324 125.884 46.491 126.372ZM88.351 124.683C88.361 122.106 82.799 123.606 86.154 125.702C86.805 125.421 87.312 126.183 88.351 124.683ZM71.682 121.393C69.734 121.536 69.926 125.456 72.681 124.32C73.583 123.481 73.195 121.713 71.682 121.393ZM88.117 118.596C89.739 121.27 96.086 121.779 96.916 124.524C96.348 132.002 93.771 137.724 92.784 145.901C91.686 148.56 88.68 147.504 84.981 147.852C71.371 148.695 60.374 149.796 46.192 150.027C42.938 148.088 44.783 141.62 42.946 137.682C41.939 131.329 35.79 118.285 45.479 117.809C47.41 118.905 50.323 119.997 52.81 117.94C55.749 114.64 61.322 118.974 66.06 116.982C69.444 119.642 73.563 119.97 77.118 116.512C79.529 119.124 84.121 122.158 88.117 118.596" fill="#F8A613"/>
<path fill-rule="evenodd" clip-rule="evenodd" d="M64.8845 114.474C47.9425 118.948 62.7715 106.805 56.6815 103.005C47.0615 104.297 58.3375 120.643 46.8175 116.382C43.5895 114.911 48.0435 111.955 47.6845 108.914C48.0515 106.819 44.9425 100.828 42.5635 105.371C39.9595 109.77 44.1765 114.921 39.5555 118.91C37.7295 113.367 32.4855 98.1033 38.7615 96.6953C63.5755 96.1313 92.9395 93.1393 98.7335 98.5383C99.8325 105.319 97.2865 112.021 97.5405 119.431C98.3095 122.869 89.8635 118.128 89.6105 115.906C89.2495 112.516 92.8065 107.155 89.0005 104.709C83.3875 107.535 90.7225 124.308 79.5705 115.839C77.5905 113.275 81.9695 108.613 80.0575 104.64C78.5215 102.398 75.5155 103.249 75.1045 106.585C73.6295 110.775 77.6035 118.685 69.5235 116.432C67.9755 114.665 67.6845 114.96 68.5095 114.044C68.9205 116.089 68.4925 115.581 67.6845 114.96C77.4275 99.3523 63.4705 98.7113 64.8845 114.474" fill="#F85B68"/>
<path fill-rule="evenodd" clip-rule="evenodd" d="M54.8552 162.839C50.4142 166.698 46.9392 162.834 43.7342 161.393C36.7982 167.897 32.7932 152.571 41.9842 152.029C55.3342 151.173 67.5362 151.934 81.2202 150.339C88.2392 150.633 95.8182 147.191 102.171 151.32C103.619 153.621 104.025 163.108 98.7292 162.171C96.5902 160.565 96.4772 164.804 93.3912 164.36C85.5972 160.438 90.5572 163.648 83.8762 165.334C81.6812 165.378 81.0432 164.142 79.7562 162.257C77.8342 161.538 77.5292 166.146 74.3562 165.468C74.5252 173.002 75.0372 172.584 82.3452 173.482C89.3992 179.135 68.7042 177.603 65.4152 177.013C61.9782 172.89 71.2392 174.332 71.1052 170.749C70.9582 167.147 70.8702 164.724 67.1692 162.169C64.6562 166.349 59.1872 166.517 54.8552 162.839" fill="#18B6B8"/>
<path fill-rule="evenodd" clip-rule="evenodd" d="M17.6931 116.267C18.8601 116.144 26.0761 111.927 25.0261 116.906C25.0241 117.984 21.8181 119.903 22.7911 122.084C23.6491 123.594 26.1961 124.056 25.6171 126.637C24.5751 127.944 22.3221 125.908 20.1231 125.758C18.6991 126.642 17.7941 132.367 14.6721 130.461C12.7651 128.554 15.4811 124.294 12.2951 122.891C10.7591 122.135 7.83507 122.493 7.57007 119.653C7.97007 117.17 11.3451 119.118 12.0791 116.084C10.3251 105.577 12.4851 109.197 17.6931 116.267" fill="#F8CF13"/>
<path fill-rule="evenodd" clip-rule="evenodd" d="M86.1488 75.5607C75.5418 74.4517 62.4138 72.5587 51.2098 71.1457C49.9398 63.5097 86.8078 69.9057 86.1488 75.5607Z" fill="#F85B68"/>
<path fill-rule="evenodd" clip-rule="evenodd" d="M20.0597 86.9231C18.6817 86.5011 12.4367 84.7431 17.0027 82.9261C17.8937 82.1241 20.0007 83.5641 20.5557 81.1681C21.3037 80.1601 20.1017 76.6951 22.2577 76.8071C25.9137 80.4191 23.0427 81.6221 30.6427 80.5901C24.9457 88.7811 31.0957 84.5871 29.1277 90.2291C27.8757 91.3441 26.1477 87.9171 24.6717 90.5791C21.9957 96.1921 19.1547 94.1111 20.0597 86.9231" fill="#F8CF13"/>
<path fill-rule="evenodd" clip-rule="evenodd" d="M102.159 57.0953C102.26 55.8493 103.783 50.3303 105.34 54.3323C106.04 55.0863 104.538 57.2313 107.066 57.0293C108.184 57.4443 111.199 56.1763 111.209 58.7623C111.099 60.6463 107.319 60.3533 108.291 63.1523C108.584 63.8883 109.337 67.0613 106.647 66.7583C104.701 65.1933 103.576 67.7363 101.688 69.6973C97.417 70.7593 101.589 64.3363 99.872 61.8473C95.479 59.1083 94.153 56.6803 102.159 57.0953" fill="#F8CF13"/>
<path fill-rule="evenodd" clip-rule="evenodd" d="M68.5565 94.5534C58.1265 97.4364 65.4735 81.4004 64.3115 75.2244C75.3325 72.4634 67.2025 88.0954 68.5565 94.5534Z" fill="#F8CF13"/>
<path fill-rule="evenodd" clip-rule="evenodd" d="M57.342 73.5821C67.393 72.9041 60.085 87.1171 60.648 93.8751C57.709 94.5621 54.486 94.4221 56.109 89.5681C57.029 83.9371 56.65 79.9171 57.342 73.5821" fill="#68E1D3"/>
<path fill-rule="evenodd" clip-rule="evenodd" d="M71.63 75.9122C81.733 74.1312 74.899 87.5442 76.476 94.4412C65.977 97.4852 72.658 82.8242 71.63 75.9122Z" fill="#68E1D3"/>
<path fill-rule="evenodd" clip-rule="evenodd" d="M52.1726 73.7785C51.5556 76.4795 49.7156 99.6385 44.9856 90.4645C45.6696 86.8695 46.5336 71.8935 52.1726 73.7785Z" fill="#68E1D3"/>
<path fill-rule="evenodd" clip-rule="evenodd" d="M75.2043 45.6555C74.0743 49.5855 76.0593 69.7745 71.7773 65.9795C69.9993 61.5415 74.6273 21.3465 75.2043 45.6555" fill="#F8CF13"/>
<path fill-rule="evenodd" clip-rule="evenodd" d="M79.1565 67.4509C79.9655 62.2439 81.1435 56.2299 82.6655 50.3079C88.1775 35.7249 82.6355 78.0959 79.1565 67.4509Z" fill="#F8A613"/>
<path fill-rule="evenodd" clip-rule="evenodd" d="M67.3177 66.1417C61.9107 69.2267 63.2017 47.2647 62.6997 43.2827C68.2307 38.6797 65.3927 62.8217 67.3177 66.1417Z" fill="#F8A613"/>
<path fill-rule="evenodd" clip-rule="evenodd" d="M84.2581 78.1028C90.6201 76.9408 90.0011 92.2688 85.2121 94.0558C82.6371 95.2548 84.5931 78.7038 84.2581 78.1028Z" fill="#68E1D3"/>
<path fill-rule="evenodd" clip-rule="evenodd" d="M53.2801 93.3513C48.2041 93.9923 51.6911 87.0903 52.0221 83.4223C53.3641 80.7713 52.2421 73.8073 55.5071 73.7693C55.9981 79.8043 54.2931 86.2773 53.2801 93.3513Z" fill="#F8CF13"/>
<path fill-rule="evenodd" clip-rule="evenodd" d="M79.2962 77.0344C83.8372 76.1414 81.2582 84.8644 81.8782 88.1924C81.2832 91.4354 83.7872 94.3294 78.8962 94.4764C78.2842 89.0654 79.4792 83.4204 79.2962 77.0344Z" fill="#F8CF13"/>
<path fill-rule="evenodd" clip-rule="evenodd" d="M86.3396 37.1858C86.7156 39.4458 88.9076 40.9758 88.3256 44.1748C83.1066 51.5848 81.7316 41.4218 86.3396 37.1858Z" fill="#F85900"/>
<path fill-rule="evenodd" clip-rule="evenodd" d="M63.1261 30.7883C65.1991 33.3633 69.3271 41.7883 61.8401 40.8443C58.2421 39.5793 62.0681 34.3883 63.1261 30.7883" fill="#F85900"/>
<path fill-rule="evenodd" clip-rule="evenodd" d="M23.8534 146.515C23.5254 150.669 18.0854 153.141 14.9344 156.062C2.20643 162.464 19.4724 146.034 23.8534 146.515Z" fill="#18B6B8"/>
<path fill-rule="evenodd" clip-rule="evenodd" d="M18.4617 139.692C13.0817 142.229 6.03171 144.905 0.157715 141.606C4.71171 138.685 12.3927 138.439 18.4617 139.692Z" fill="#18B6B8"/>
<path fill-rule="evenodd" clip-rule="evenodd" d="M27.4255 156.862C25.7195 160.468 25.6805 166.066 20.8245 168.657C19.2335 168.956 17.5565 167.561 18.8835 165.352C21.8225 163.006 22.5955 157.622 27.4255 156.862" fill="#18B6B8"/>
<path fill-rule="evenodd" clip-rule="evenodd" d="M35.0013 51.649C29.0313 50.35 25.9823 43.315 21.6543 38.67C19.0223 37.516 17.6653 29.443 23.4503 33.785C27.9753 38.819 34.5393 44.375 35.0013 51.649" fill="#18B6B8"/>
<path fill-rule="evenodd" clip-rule="evenodd" d="M34.1507 67.5748C30.8577 70.0278 23.7207 67.0688 18.9987 67.1578C16.5457 67.2288 9.58072 65.4638 14.5367 62.8578C20.5247 63.7338 28.3087 63.6938 34.1507 67.5748Z" fill="#18B6B8"/>
<path fill-rule="evenodd" clip-rule="evenodd" d="M43.7079 46.7579C41.0109 48.7519 39.2199 41.0849 37.9789 38.1029C37.5769 35.9809 33.0949 29.7549 37.8789 31.0679C40.8779 35.8429 41.8819 40.9019 43.7079 46.7579Z" fill="#18B6B8"/>
<path fill-rule="evenodd" clip-rule="evenodd" d="M15.9749 49.8654C17.1829 48.3714 18.2269 48.8364 20.4669 50.1514C42.2759 62.9894 22.9859 57.8604 15.9749 49.8654Z" fill="#18B6B8"/>
<path fill-rule="evenodd" clip-rule="evenodd" d="M74.2255 27.0559C75.1665 29.0009 78.0225 33.0249 75.5305 35.5809C70.6015 36.8939 71.1165 30.2699 74.2255 27.0559" fill="#F85900"/>
<path fill-rule="evenodd" clip-rule="evenodd" d="M113.127 111.107C118.595 114.843 123.459 120.866 128.056 127.024C128.214 131.85 123.306 128.125 121.122 125.633C118.183 121.694 110.833 115.046 113.127 111.107Z" fill="#18B6B8"/>
<path fill-rule="evenodd" clip-rule="evenodd" d="M116.405 101.283C120.306 99.1934 141.195 104.013 136.35 109.145C130.431 108.122 120.057 105.801 116.405 101.283" fill="#18B6B8"/>
<path fill-rule="evenodd" clip-rule="evenodd" d="M130.422 84.6373C128.752 87.3853 126.063 87.0443 122.44 87.7083C100.685 92.0413 126.251 78.2213 130.422 84.6373Z" fill="#18B6B8"/>
<path fill-rule="evenodd" clip-rule="evenodd" d="M115.156 141.51C113.591 140.081 109.75 128.313 113.162 127.603C114.984 131.572 119.152 136.908 115.156 141.51Z" fill="#18B6B8"/>
<path fill-rule="evenodd" clip-rule="evenodd" d="M128.96 94.922C129.622 94.161 152.862 97.349 147.131 99.302C142.887 97.752 132.136 98.313 128.96 94.922Z" fill="#18B6B8"/>
<path fill-rule="evenodd" clip-rule="evenodd" d="M117.261 78.4465C118.69 75.2945 125.058 71.6545 128.13 69.6005C135.121 65.5745 119.177 79.3835 117.261 78.4465Z" fill="#18B6B8"/>
<path fill-rule="evenodd" clip-rule="evenodd" d="M44.3748 105.677C46.2818 107.172 45.4928 109.899 44.1598 112.391C42.5308 112.264 43.0118 108.307 44.3748 105.677Z" fill="#F8A613"/>
<path fill-rule="evenodd" clip-rule="evenodd" d="M68.9329 104.34C69.5009 107.507 69.2799 109.899 67.1089 112.13C66.2009 109.194 67.0029 106.954 68.9329 104.34Z" fill="#F8A613"/>
<path fill-rule="evenodd" clip-rule="evenodd" d="M54.444 112.215C53.478 108.152 54.068 106.256 56.455 105.195C56.084 107.518 55.816 109.776 54.444 112.215Z" fill="#F8A613"/>
<path fill-rule="evenodd" clip-rule="evenodd" d="M76.87 111.685C76.686 110.007 75.92 106.925 77.98 105.587C79.202 106.538 78.541 109.536 76.87 111.685Z" fill="#F8A613"/>
<path fill-rule="evenodd" clip-rule="evenodd" d="M88.6354 111.528C88.2184 110.048 88.1164 109.201 88.6754 108.228C89.1174 109.205 89.0054 110.044 88.6354 111.528Z" fill="#F8A613"/>
<path fill-rule="evenodd" clip-rule="evenodd" d="M38.676 185.513C38.618 187.151 38.845 189.701 39.259 192.138C43.276 192.59 45.085 184.335 38.676 185.513ZM40.097 199.901C43.329 200.921 48.869 195.283 42.127 193.913C38.468 193.075 39.706 196.45 40.097 199.901ZM42.331 192.162C49.03 193.831 47.774 200.751 40.528 201.411C39.699 203.935 36.051 202.646 36.559 199.034C36.711 195.175 34.701 189.317 36.858 184.854C39.838 182.194 49.058 187.658 42.331 192.162" fill="#F8FFEF"/>
<path fill-rule="evenodd" clip-rule="evenodd" d="M72.9447 193.316C67.7887 191.112 73.9977 202 68.9187 201.197C68.0557 201.189 67.6587 176.394 70.2937 186.501C70.9587 187.341 69.0687 192.472 71.8217 192.328C72.2267 192.365 73.4027 192.376 73.0277 190.863C73.5147 190.024 72.2607 184.857 74.2127 185.145C73.8567 186.938 76.3127 202.617 73.5357 201.852C72.4437 199.519 73.2727 196.866 72.9447 193.316" fill="#F8FFEF"/>
<path fill-rule="evenodd" clip-rule="evenodd" d="M88.7062 188.525C88.7592 189.452 86.9022 193.76 88.6742 193.892C90.5052 193.773 88.6962 190.638 88.7062 188.525ZM89.5842 195.293C88.3852 195.255 87.3002 194.874 87.2792 197.533C87.9452 199.645 84.2772 203.438 84.3332 198.948C85.5622 195.354 85.2392 185.284 88.8752 183.288C90.1932 185.865 93.6462 214.738 89.5842 195.293Z" fill="#F8FFEF"/>
<path fill-rule="evenodd" clip-rule="evenodd" d="M55.3079 191.847C57.8029 191.016 59.4909 186.184 55.0619 185.917C54.8459 187.419 55.2159 189.144 55.3079 191.847ZM55.2859 193.784C54.6869 194.935 57.3209 204.115 53.2639 201.059C53.0829 196.105 51.7239 190.161 53.5629 184.517C56.1079 184.653 61.4399 186.197 58.6759 190.835C58.4389 191.763 56.8279 191.427 58.1149 193.564C57.8469 193.828 63.2159 202.988 59.5059 200.239C58.0919 199.494 57.6359 191.529 55.2859 193.784" fill="#F8FFEF"/>
<path fill-rule="evenodd" clip-rule="evenodd" d="M97.295 190.581C97.805 189.135 97.91 186.833 99.587 184.776C99.596 184.734 100.469 184.441 100.257 185.43C98.267 188.509 97.973 205.178 94.643 202.607C94.442 200.054 97.596 196.027 95.24 193.142C91.213 186.221 93.17 179.718 97.295 190.581" fill="#F8FFEF"/>
<path fill-rule="evenodd" clip-rule="evenodd" d="M79.2004 197.549C83.4944 196.205 84.4254 189.33 80.1244 186.47C79.3474 186.537 78.9574 185.905 79.2154 187.767C79.3704 191.139 79.1744 193.421 79.2004 197.549ZM79.1564 199.523C76.8224 206.192 75.9414 187.228 78.0114 185.264C84.5094 185.82 86.8874 196.153 79.1564 199.523" fill="#F8FFEF"/>
<path fill-rule="evenodd" clip-rule="evenodd" d="M62.3204 186.706C57.5074 186.486 60.9874 182.993 65.8414 184.374C63.7844 187.839 64.1574 194.553 64.9794 200.712C63.1804 206.825 62.4194 189.744 62.3204 186.706Z" fill="#F8FFEF"/>
<path fill-rule="evenodd" clip-rule="evenodd" d="M48.4251 187.029C45.5421 186.425 49.6501 183.021 50.5121 185.685C49.6661 188.923 50.2201 193.745 50.6421 197.925C51.1241 198.404 51.8251 199.863 49.9201 200.151C46.6931 201.455 48.5821 190.569 48.4251 187.029" fill="#F8FFEF"/>
<path fill-rule="evenodd" clip-rule="evenodd" d="M31.9084 191.359C34.9644 191.156 31.6464 196.841 29.8024 193.459C29.7424 192.31 30.0684 191.595 31.9084 191.359" fill="#F8FFEF"/>
<path fill-rule="evenodd" clip-rule="evenodd" d="M102.197 194.477C98.7633 193.959 103.433 188.793 104.529 193.136C104.354 193.781 103.479 194.114 102.197 194.477Z" fill="#F8FFEF"/>
<path fill-rule="evenodd" clip-rule="evenodd" d="M59.9901 0.840088C56.2031 7.22109 65.5271 11.5261 53.6451 13.2521C53.2391 11.1501 50.1111 -3.59391 48.4011 4.59009C50.1431 11.8021 50.4691 24.0471 55.0771 26.5921C59.5051 26.8761 51.8241 16.8471 54.9391 14.7931C56.7071 14.2121 57.5891 14.1151 60.2811 13.4241C60.8231 13.7151 60.5881 13.4031 60.9781 14.7671C61.9131 16.3051 61.6081 23.8941 64.6291 23.2031C63.5191 16.3191 60.9131 8.62109 59.9901 0.840088" fill="#18B6B8"/>
<path fill-rule="evenodd" clip-rule="evenodd" d="M94.5457 11.404C85.9917 20.379 87.4817 13.191 89.4107 6.35199C91.6827 6.20999 95.7147 7.71399 94.5457 11.404ZM92.2077 5.00299C85.0347 2.80999 86.3057 6.25799 84.9147 12.612C84.9497 13.026 81.2117 28.359 85.2187 28.761C87.6697 26.491 85.3317 21.103 87.6457 17.612C94.4437 16.934 101.136 8.69299 92.2077 5.00299" fill="#18B6B8"/>
<path fill-rule="evenodd" clip-rule="evenodd" d="M107.977 17.2262C98.1033 24.7202 100.717 17.8622 103.714 11.4192C105.98 11.6422 109.72 13.7702 107.977 17.2262ZM106.69 10.5342C99.9603 7.22525 100.664 10.8312 98.2763 16.8812C98.2463 17.2972 92.1093 31.8342 96.0013 32.8722C98.8293 30.9332 97.2823 25.4462 100.176 22.2532C106.994 22.6682 114.916 15.6002 106.69 10.5342" fill="#18B6B8"/>
<path fill-rule="evenodd" clip-rule="evenodd" d="M73.0853 12.6037C73.6483 10.8007 74.3463 5.24167 75.8793 4.20867C75.3453 6.46067 79.1423 14.8157 73.0853 12.6037ZM78.7113 18.8667C78.3353 14.3907 77.8713 9.27967 77.1563 3.89667C75.7683 -11.5703 62.4833 29.8957 70.7733 21.0377C71.4143 19.2937 71.2303 16.2517 72.7773 13.8947C73.6563 14.4107 77.2763 13.4497 76.9583 16.2397C77.5913 18.2237 76.3503 21.4007 78.3073 23.6017C79.6043 23.5737 78.8913 20.8087 78.7113 18.8667Z" fill="#18B6B8"/>
<path fill-rule="evenodd" clip-rule="evenodd" d="M125.481 24.9421C122.866 25.0781 118.634 28.7111 114.926 30.3691C120.665 17.5621 112.419 12.9261 111.999 30.6451C111.615 35.1261 104.504 35.2021 102.279 39.3871C103.976 40.9581 108.094 36.8391 110.817 35.5231C115.207 32.3491 121.477 29.7091 125.481 24.9421" fill="#18B6B8"/>
<path fill-rule="evenodd" clip-rule="evenodd" d="M43.4192 19.3381C43.1362 16.2271 36.9642 17.8421 39.5422 21.5861C40.9892 22.9511 43.9352 21.7051 43.4192 19.3381Z" fill="#18B6B8"/>
<path fill-rule="evenodd" clip-rule="evenodd" d="M121 39.2243C121.037 39.2503 120.991 39.0643 120.937 39.1913C119.28 37.4173 115.695 41.5493 119.586 42.6843C121.185 43.1813 122.969 40.5793 121 39.2243Z" fill="#18B6B8"/>
</g>
<defs>
<clipPath id="clip0_1_5213">
<rect width="148" height="206" fill="white"/>
</clipPath>
</defs>
</svg>
