<svg width="177" height="204" viewBox="0 0 177 204" fill="none" xmlns="http://www.w3.org/2000/svg">
<path fill-rule="evenodd" clip-rule="evenodd" d="M173.601 201.78C116.243 204.537 57.8566 199.692 0.413574 203.275C19.4126 186.617 16.9586 189.352 3.76257 172.086C61.1136 168.499 119.19 173.352 176.95 170.591C161.286 189.948 161.554 183.865 173.601 201.78Z" fill="#9CEBEF"/>
<path fill-rule="evenodd" clip-rule="evenodd" d="M0.413086 203.275C6.42209 201.401 20.6561 204.181 21.9841 200.509C22.5751 189.588 25.4961 180.184 31.8541 170.555C22.4701 170.689 13.1011 171.121 3.76309 172.086C20.6321 191.923 14.8301 189.118 0.413086 203.275" fill="#52D7DE"/>
<path fill-rule="evenodd" clip-rule="evenodd" d="M176.95 170.591C169.479 170.708 162.007 170.824 154.535 170.94C154.414 182.521 150.206 193.016 143.775 202.245L173.601 201.78C173.601 201.78 164.204 188.806 164.413 186.889C164.622 184.972 176.95 170.591 176.95 170.591" fill="#52D7DE"/>
<path fill-rule="evenodd" clip-rule="evenodd" d="M42.6207 183.054C42.1517 180.643 37.7467 181.793 38.6607 185.727C39.2127 185.517 38.5307 186.117 41.0267 184.832C41.3567 184.503 42.2907 184.358 42.6207 183.054ZM43.9947 188.89C43.6147 182.262 31.6987 194.519 41.4037 191.968C42.3397 191.262 43.5487 191.041 43.9947 188.89ZM47.0347 189.638C47.3847 192.011 35.8617 200.103 35.1907 192.276C36.0227 189.887 33.7337 174.163 45.0977 180.737C45.7257 181.707 45.8517 183.325 44.2637 184.991C45.8287 186.05 46.7787 185.758 47.0347 189.638" fill="white"/>
<path fill-rule="evenodd" clip-rule="evenodd" d="M58.7939 194.837C58.6739 195.688 49.2 197.298 49.739 193.63C53.405 193.914 52.6419 188.819 53.2519 182.147C45.5449 183.758 53.6409 176.405 58.8189 180.515C58.9289 182.092 56.0259 180.81 55.8009 182.832C55.8629 185.87 54.0879 190.31 55.6779 193.525C56.6649 193.689 59.0699 192.517 58.7939 194.837" fill="white"/>
<path fill-rule="evenodd" clip-rule="evenodd" d="M70.3811 183.323C71.0941 182.142 67.1531 180.538 65.7821 182.875C64.5151 186.269 67.5811 187.828 70.3811 183.323ZM73.4951 194.542C72.2821 197.756 69.5141 191.641 65.4641 189.123C65.9931 194.771 60.8391 200.293 62.8761 188.135C64.0091 186.269 61.3581 181.506 64.6301 179.681C70.4111 177.488 78.2111 183.865 68.1001 188.216C69.4761 189.659 73.4851 191.162 73.4951 194.542" fill="white"/>
<path fill-rule="evenodd" clip-rule="evenodd" d="M88.8223 181.104C88.6583 183.735 84.8973 180.25 84.3003 183.54C83.2693 183.934 84.7793 196.569 80.1973 195.414C78.3273 193.53 83.6333 184.565 80.0913 182.178C79.4083 181.905 77.5583 183.072 77.0513 181.705C75.3053 180.238 87.2853 177.684 88.8223 181.104Z" fill="white"/>
<path fill-rule="evenodd" clip-rule="evenodd" d="M100.704 193.096C99.4517 197.232 97.6917 194.812 97.7867 189.332C95.6127 189.657 92.1387 187.78 93.2737 193.341C93.3097 194.131 92.6087 196.935 90.9437 194.727C90.1997 196.013 90.1087 174.192 94.3757 181.018C94.5697 182.08 94.3947 182.999 93.8377 185.076C92.8667 186.689 96.2267 186.993 98.0917 186.058C98.5787 184.632 97.4837 182.127 98.6127 179.719C102.048 179.308 100.828 185.861 100.704 193.096" fill="white"/>
<path fill-rule="evenodd" clip-rule="evenodd" d="M113.235 185.064C114.381 182.685 105.88 176.544 106.768 191.17C105.974 193.861 111.942 191.257 113.235 185.064ZM115.724 185.702C116.622 191.459 101.906 202.971 104.259 189.429C105.318 186.96 101.992 177.001 112.468 179.772C114.469 180.765 115.966 182.656 115.724 185.702Z" fill="white"/>
<path fill-rule="evenodd" clip-rule="evenodd" d="M124.982 188.093C124.878 187.468 125.205 187.289 123.891 182.673C122.502 183.631 118.643 192.739 124.982 188.093ZM128.624 194.616C125.771 197.83 127.368 192.148 124.861 191.734C123.417 191.897 119.565 191.554 119.263 195.204C118.94 195.336 118.871 195.8 117.914 195.174C115.047 197.234 125.345 158.998 128.624 194.616Z" fill="white"/>
<path fill-rule="evenodd" clip-rule="evenodd" d="M140.541 181.214C138.638 185.612 135.656 190.127 133.449 195.523C131.217 196.049 130.5 193.635 133.65 188.657C130.817 190.306 128.728 177.195 132.971 180.955C133.423 181.674 132.358 184.155 133.84 185.928C135.844 188.005 137.887 175.325 140.541 181.214" fill="white"/>
<path fill-rule="evenodd" clip-rule="evenodd" d="M77.1367 54.4297L73.5227 54.8207C73.5227 54.8207 69.3587 39.5527 70.0557 37.2447C70.4977 35.7837 73.4177 34.7847 74.7577 36.2897C76.0987 37.7937 77.1367 54.4297 77.1367 54.4297Z" fill="#D2ACF5"/>
<path fill-rule="evenodd" clip-rule="evenodd" d="M77.1393 54.4258L75.4933 54.6028C74.6163 51.6028 75.8443 35.8458 71.2593 35.9598C77.9373 32.1078 76.3253 53.7318 77.1393 54.4258Z" fill="#AB7CE8"/>
<path fill-rule="evenodd" clip-rule="evenodd" d="M72.0707 30.1729C71.3557 29.1619 70.6897 27.9839 70.9457 26.7979C64.1347 36.1579 77.5567 38.8869 72.0707 30.1729Z" fill="#F85275"/>
<path fill-rule="evenodd" clip-rule="evenodd" d="M72.0624 32.0518C71.6364 31.4428 71.2394 30.7338 71.3924 30.0188C70.7714 30.9268 68.7604 35.5938 72.4214 35.0958C73.0364 34.6558 73.3674 33.5858 72.0624 32.0518Z" fill="#FAD61D"/>
<path fill-rule="evenodd" clip-rule="evenodd" d="M71.4356 36.8246C69.8976 36.2236 71.1366 47.0736 72.5346 47.2616C71.8626 43.7196 71.0156 39.2646 71.4356 36.8246Z" fill="white"/>
<path fill-rule="evenodd" clip-rule="evenodd" d="M90.9584 53.3452L87.3194 53.3472C87.3194 53.3472 85.0804 37.7362 86.0604 35.5182C86.6794 34.1152 89.7044 33.4342 90.8494 35.0722C91.9934 36.7092 90.9584 53.3452 90.9584 53.3452Z" fill="#D2ACF5"/>
<path fill-rule="evenodd" clip-rule="evenodd" d="M90.9613 53.3413H89.3043C88.8043 50.2803 91.9853 34.7453 87.4143 34.3703C94.5303 31.2533 90.2363 52.5693 90.9613 53.3413" fill="#AB7CE8"/>
<path fill-rule="evenodd" clip-rule="evenodd" d="M88.9398 28.709C88.3548 27.628 87.8398 26.386 88.2408 25.236C80.2998 33.89 93.3378 37.896 88.9398 28.709Z" fill="#F85275"/>
<path fill-rule="evenodd" clip-rule="evenodd" d="M88.6981 30.5742C88.3501 29.9242 88.0451 29.1772 88.2841 28.4832C87.5711 29.2972 84.9681 33.7312 88.6771 33.6362C89.3321 33.2742 89.8111 32.2472 88.6981 30.5742Z" fill="#FAD61D"/>
<path fill-rule="evenodd" clip-rule="evenodd" d="M87.4824 35.2485C86.0234 34.4925 85.9144 45.4065 87.2774 45.7325C87.0504 42.1425 86.7614 37.6285 87.4824 35.2485Z" fill="white"/>
<path fill-rule="evenodd" clip-rule="evenodd" d="M104.091 54.6708L100.482 54.2428C100.482 54.2428 100.407 38.4948 101.683 36.4108C102.491 35.0918 105.584 34.7738 106.495 36.5338C107.405 38.2928 104.091 54.6708 104.091 54.6708Z" fill="#D2ACF5"/>
<path fill-rule="evenodd" clip-rule="evenodd" d="M104.094 54.6675L102.45 54.4715C102.369 51.3945 107.671 36.3495 103.184 35.4325C110.679 33.1885 103.472 53.8305 104.094 54.6675" fill="#AB7CE8"/>
<path fill-rule="evenodd" clip-rule="evenodd" d="M105.475 29.997C105.043 28.856 104.704 27.563 105.26 26.469C96.2111 34.047 108.544 39.684 105.475 29.997Z" fill="#F85275"/>
<path fill-rule="evenodd" clip-rule="evenodd" d="M104.98 31.8183C104.724 31.1323 104.524 30.3553 104.857 29.6953C104.062 30.3983 100.832 34.4933 104.538 34.8533C105.226 34.5793 105.859 33.6193 104.98 31.8183" fill="#FAD61D"/>
<path fill-rule="evenodd" clip-rule="evenodd" d="M103.131 36.311C101.788 35.388 100.178 46.2 101.486 46.686C101.755 43.097 102.089 38.588 103.131 36.311Z" fill="white"/>
<path fill-rule="evenodd" clip-rule="evenodd" d="M116.877 67.7377C115.727 69.9057 117.939 79.4117 114.036 80.0467C98.1494 82.9517 82.0324 82.1717 66.6124 84.0827C66.9264 76.0327 61.1124 61.3817 68.5524 56.0037C81.8174 50.8177 119.373 51.8667 116.877 67.7377Z" fill="#FFCEC7"/>
<path fill-rule="evenodd" clip-rule="evenodd" d="M115.523 61.082C114.444 59.759 113.023 58.796 110.534 57.557C113.201 64.202 113.802 72.558 113.132 80.164C117.75 81.096 117.486 63.197 115.523 61.082" fill="#F9B3AC"/>
<path fill-rule="evenodd" clip-rule="evenodd" d="M80.4225 61.0098C91.4825 73.6778 88.2825 57.9158 95.8565 61.1558C105.635 74.2368 103.195 63.4988 108.001 63.2508C110.411 66.4118 113.515 68.1948 116.852 68.1218C121.28 49.4308 60.0015 48.0348 64.8085 64.2498C67.3515 76.9658 75.1555 57.2048 80.4225 61.0098Z" fill="#F9B3AC"/>
<path fill-rule="evenodd" clip-rule="evenodd" d="M116.877 67.7378C101.455 74.3518 102.981 72.3958 90.0243 68.5728C83.5133 68.2518 78.2683 73.7518 71.5463 70.9988C69.0453 69.5168 64.5383 70.8218 64.9463 66.7148C79.4893 72.5398 81.4433 65.5918 91.4193 66.7088C105.237 73.2218 106.007 69.2918 116.897 66.1188C116.917 66.6588 116.897 67.1978 116.877 67.7378" fill="#FF5084"/>
<path fill-rule="evenodd" clip-rule="evenodd" d="M116.627 70.8638C106.638 81.6928 97.3935 74.2548 88.9215 73.2138C82.8895 73.7348 78.0435 78.1298 71.8075 75.6898C68.9875 74.1528 65.1445 75.5538 65.3885 71.4308C79.6065 77.2028 81.6875 70.2138 91.5795 71.3628C105.123 77.6898 105.954 74.2358 116.627 70.8638Z" fill="#FAD61D"/>
<path fill-rule="evenodd" clip-rule="evenodd" d="M116.255 65.1704C111.576 70.0754 106.686 54.7744 104.197 64.3964C103.598 64.9244 102.916 65.1544 101.625 64.8814C91.766 48.9224 90.184 69.6624 85.023 64.4314C83.719 62.1054 83.641 59.1954 79.928 58.9674C74.455 58.2914 73.285 63.8894 68.418 66.0484C62.057 67.5514 63.446 58.7344 66.432 55.2584C77.842 50.9214 120.729 50.4154 116.255 65.1704Z" fill="#FF5084"/>
<path fill-rule="evenodd" clip-rule="evenodd" d="M116.757 62.6308C115.621 57.7098 110.814 56.0538 105.485 54.2838C107.027 57.3608 103.674 61.4838 102.599 65.1078C105.202 65.3018 103.937 60.9448 106.927 61.1578C109.972 62.2698 115.594 71.0238 116.757 62.6308Z" fill="#E52C73"/>
<path fill-rule="evenodd" clip-rule="evenodd" d="M95.9848 59.0956C98.9108 58.1516 96.9058 52.7866 93.3048 55.3396C91.3888 56.9996 93.3218 59.6466 95.9848 59.0956ZM68.1978 55.0206C65.5638 55.0216 64.4828 59.2236 68.1988 59.7276C70.8248 59.7326 71.9178 55.5246 68.1978 55.0206ZM76.7078 56.1376C75.5538 56.1376 75.5538 57.7936 76.7078 57.7936C77.8518 57.7936 77.8518 56.1376 76.7078 56.1376ZM85.3578 53.0576C83.8648 52.8826 82.5768 54.5676 83.3438 56.1426C85.9368 59.6306 89.5208 53.7206 85.3578 53.0576ZM105.137 56.3606C103.441 56.3606 103.441 58.8066 105.137 58.8066C106.833 58.8066 106.833 56.3606 105.137 56.3606ZM112.05 56.9006C109.806 54.8436 109.342 59.7336 112.653 58.8246C113.613 58.1516 113.832 57.7066 112.05 56.9006Z" fill="#E52C73"/>
<path fill-rule="evenodd" clip-rule="evenodd" d="M110.851 54.834C108.611 54.834 108.608 58.061 110.851 58.061C113.091 58.061 113.095 54.834 110.851 54.834ZM104.134 55.434C102.439 55.434 102.436 57.876 104.134 57.876C105.83 57.876 105.832 55.434 104.134 55.434ZM94.0585 53.721C91.4755 53.719 90.4095 57.849 94.0595 58.344C96.6425 58.346 97.7085 54.216 94.0585 53.721ZM84.2075 52.115C81.3625 52.115 81.3585 56.214 84.2075 56.214C87.0535 56.214 87.0575 52.115 84.2075 52.115ZM75.7005 55.204C74.5505 55.204 74.5485 56.861 75.7005 56.861C76.8505 56.861 76.8525 55.204 75.7005 55.204ZM69.7325 56.448C69.8075 59.383 63.7385 59.636 64.8365 55.543C65.8525 53.47 69.2545 53.633 69.7325 56.448Z" fill="#9CEBEF"/>
<path fill-rule="evenodd" clip-rule="evenodd" d="M78.7505 54.2729C76.5195 54.1289 73.0395 54.4059 69.8595 55.0039C71.1125 55.0309 77.3115 55.3169 78.7505 54.2729ZM101.919 64.4449C101.004 64.0999 99.9425 61.9709 100.516 60.6899C99.8815 61.7739 103.534 63.7589 101.919 64.4449ZM86.9265 64.1579C85.7675 63.4479 85.7855 58.7369 83.6155 59.3569C85.1035 59.5559 85.5815 66.5959 86.9265 64.1579V64.1579ZM66.9055 65.3179C65.2935 64.7449 64.1685 61.5679 65.7595 59.8949C64.7295 61.8319 68.5925 64.5499 66.9055 65.3179Z" fill="white"/>
<path fill-rule="evenodd" clip-rule="evenodd" d="M134.217 103.479C133.111 108.336 132.818 114.657 131.007 120.251C121.126 122.73 109.302 121.987 98.9103 122.554C44.8083 123.171 52.8543 123.252 50.8783 110.065C51.4283 107.527 47.4213 89.33 52.8733 87.925C143.133 63.281 137.523 81.253 134.217 103.479" fill="#FFCEC7"/>
<path fill-rule="evenodd" clip-rule="evenodd" d="M135.504 89.0102C135.165 80.2412 130.971 76.8402 122.43 76.7572C128.207 90.6442 125.246 106.675 123.115 121.573C125.116 120.777 130.249 122.208 131.525 119.04C132.94 109.62 135.702 99.1322 135.504 89.0102" fill="#F9B3AC"/>
<path fill-rule="evenodd" clip-rule="evenodd" d="M55.7516 97.3627C56.6866 96.5827 57.8016 97.9547 58.7406 99.3337C64.0406 106.901 67.1636 96.6677 71.4176 93.0117C75.2386 91.8587 75.0296 98.1517 76.5016 100.399C85.3136 108.207 86.9986 93.4327 91.2646 92.5307C92.9736 92.7647 93.5446 93.9327 93.9566 95.9527C98.2496 113.182 104.999 93.2617 109.944 93.3517C111.595 93.8107 112.127 94.9857 113.443 96.6887C123.771 111.806 125.195 84.8377 135.185 96.6877C138.855 72.0727 121.754 76.7577 106.763 76.9167C88.6556 79.4097 57.5446 83.2577 50.4856 90.0717C50.3196 96.0237 48.2986 106.009 55.7516 97.3627Z" fill="#F9B3AC"/>
<path fill-rule="evenodd" clip-rule="evenodd" d="M136.315 94.0552C133.579 94.1092 134.465 88.8702 131.236 88.4192C123.448 88.1982 121.488 109.653 113.444 91.1332C112.986 90.2822 112.321 88.6642 110.345 89.1802C108.332 89.5782 105.807 91.5252 104.715 93.8602C104.024 97.3462 99.563 103.027 96.446 97.3482C95.857 94.5332 94.974 86.6232 89.672 90.5392C86.767 92.5322 86.415 101.545 80.679 100.102C74.812 98.2692 80.731 88.6652 73.477 89.0132C66.237 89.6002 62.974 109.501 57.915 95.1582C54.734 92.1072 53.917 97.1412 51.851 99.1802C48.266 100.801 47.338 96.9732 48.177 92.6222C47.605 80.2932 88.787 78.7852 97.774 77.1382C115.141 74.2782 140.691 69.7522 136.315 94.0552Z" fill="#D2ACF5"/>
<path fill-rule="evenodd" clip-rule="evenodd" d="M137.188 91.8783C136.599 84.6953 134.693 75.5473 124.844 75.5683C127.002 84.1243 125.758 98.0663 114.352 93.5093C121.95 106.702 123.912 90.1113 130.257 88.4073C134.171 86.7063 135.085 98.7953 137.188 91.8783Z" fill="#AB7CE8"/>
<path fill-rule="evenodd" clip-rule="evenodd" d="M134.217 103.479C134.097 104.214 133.967 104.958 133.836 105.693C129.812 104.222 124.779 104.958 120.238 107.126C108.219 113.588 103.437 109.104 92.6634 105.319C90.0964 104.795 88.2404 105.046 85.3294 105.697C68.4064 113.503 62.1484 102.584 50.4264 104.028C48.6854 96.031 67.5144 105.555 71.0724 105.299C76.7944 106.32 81.3154 103.288 87.3204 102.323C90.7984 101.921 92.9074 102.388 96.5924 103.962C113.578 114.792 119.752 99.56 134.217 103.479Z" fill="#D2ACF5"/>
<path fill-rule="evenodd" clip-rule="evenodd" d="M133.204 109.368C133.074 110.094 132.953 110.819 132.823 111.545C129.51 110.594 125.504 110.997 121.514 112.716C106.624 120.527 103.636 114.453 91.441 111.252C88.893 110.953 87.002 111.377 84.041 112.212C69.645 119.258 61.71 109.073 50.878 110.065C48.773 102.251 67.667 111.72 71.073 111.43C76.794 112.45 81.315 109.421 87.32 108.451C90.474 108.138 91.928 108.318 95.37 109.568C114.691 121.056 117.757 106.478 133.204 109.368Z" fill="#FF5084"/>
<path fill-rule="evenodd" clip-rule="evenodd" d="M52.6542 85.8686C49.6082 84.2136 46.0832 88.6656 49.3002 90.8586C52.8562 93.1136 55.9872 87.8246 52.6542 85.8686ZM66.5522 86.3896C64.3752 86.3896 64.3642 89.5246 66.5522 89.5246C68.7302 89.5246 68.7302 86.3896 66.5522 86.3896ZM80.3902 79.2826C76.5642 77.5006 72.9362 83.6816 78.0242 85.5066C81.7272 86.7936 84.5442 81.1676 80.3902 79.2826ZM94.1982 83.2646C90.6262 83.2646 90.6162 88.4176 94.1982 88.4176C97.7712 88.4176 97.7712 83.2646 94.1982 83.2646ZM108.649 77.1336C106.35 77.1336 106.35 80.4456 108.649 80.4456C110.956 80.4456 110.956 77.1336 108.649 77.1336ZM113.726 84.1386C111.368 84.1386 111.358 87.5436 113.726 87.5436C116.084 87.5436 116.094 84.1386 113.726 84.1386ZM120.449 76.9476C117.734 76.9446 116.616 81.2816 120.45 81.8036C123.16 81.8046 124.279 77.4726 120.449 76.9476V76.9476ZM134.538 80.8356C133.978 78.7856 129.45 79.8736 128.798 82.3306C127.477 88.7196 139.361 88.1706 134.538 80.8356Z" fill="#AB7CE8"/>
<path fill-rule="evenodd" clip-rule="evenodd" d="M132.495 77.8623C127.802 78.0313 127.416 84.4873 132.495 84.9263C137.188 84.7573 137.574 78.3013 132.495 77.8623V77.8623ZM120.448 75.0883C117.736 75.0853 116.616 79.4223 120.448 79.9413C123.159 79.9443 124.279 75.6083 120.448 75.0883ZM113.726 82.2803C111.366 82.2803 111.362 85.6813 113.726 85.6813C116.087 85.6813 116.091 82.2803 113.726 82.2803ZM108.654 75.2703C106.353 75.2703 106.349 78.5843 108.654 78.5843C110.954 78.5843 110.958 75.2703 108.654 75.2703V75.2703ZM94.1965 81.4083C90.6245 81.4083 90.6195 86.5533 94.1965 86.5533C97.7675 86.5533 97.7735 81.4083 94.1965 81.4083ZM78.9785 77.1393C74.7215 77.2723 74.1265 83.3413 78.9785 83.7683C83.2355 83.6353 83.8305 77.5663 78.9785 77.1393ZM66.5505 84.5273C64.3715 84.5273 64.3685 87.6673 66.5505 87.6673C68.7295 87.6673 68.7335 84.5273 66.5505 84.5273ZM51.0795 89.4883C47.0165 89.4883 47.0235 83.6453 51.0795 83.6453C55.1415 83.6453 55.1355 89.4883 51.0795 89.4883Z" fill="#FAD61D"/>
<path fill-rule="evenodd" clip-rule="evenodd" d="M115.022 91.7803C114.746 90.5913 113.933 89.6473 113.135 88.7483C113.053 88.6563 112.931 88.7733 112.976 88.8713C113.461 89.9333 113.714 91.0743 114.281 92.0923C114.51 92.5033 115.124 92.2193 115.022 91.7803V91.7803ZM99.8636 98.2123C97.1626 96.7883 97.7566 93.6993 96.2036 90.6263C94.1156 87.3113 97.9666 102.508 99.8636 98.2123ZM82.1256 98.1233C79.6976 96.8283 80.1566 92.3123 78.0706 90.5023C78.5056 91.9203 79.4656 101.066 82.1256 98.1233ZM61.8176 99.2013C61.1236 98.8123 59.2396 98.6763 59.7406 96.1913C59.2046 97.3473 63.4766 98.2413 61.8176 99.2013ZM106.269 77.5463C100.668 79.1833 92.2246 80.6013 86.6436 80.0933C92.0366 80.2103 102.955 75.7393 106.269 77.5463ZM73.4376 81.3013C68.3416 81.3273 59.3256 83.4363 55.5566 86.3143C59.9976 84.3863 71.1216 84.3133 73.4376 81.3013ZM49.9946 95.2523C49.9866 101.413 47.5436 95.3333 49.9426 92.2493C50.3546 92.5823 49.9386 93.2723 49.9946 95.2523Z" fill="white"/>
<path fill-rule="evenodd" clip-rule="evenodd" d="M141.704 160.867C135.931 168.446 40.2437 169.038 39.2597 159.712C36.1177 149.422 29.2077 113.751 43.9497 115.801C145.461 128.427 147.222 104.363 141.704 160.867Z" fill="#FFCEC7"/>
<path fill-rule="evenodd" clip-rule="evenodd" d="M143.06 155.67C141.758 127.671 149.258 121.955 120.665 120.744C126.977 134.144 127.628 150.707 124.293 165.4C133.653 164.136 144.042 163.305 143.06 155.67Z" fill="#F9B3AC"/>
<path fill-rule="evenodd" clip-rule="evenodd" d="M35.436 131.795C52.452 122.365 44.876 133.778 56.4 133.122C61.758 131.928 64.564 127.814 70.329 126.626C83.259 129.035 81.051 140.876 95.923 129.192C98.049 128.087 99.87 127.94 102.692 128.715C118.523 141.158 111.468 134.574 124.441 131.204C129.369 132.467 133.008 138.266 139.278 137.301C146.618 138.445 142.621 123.096 136.342 122.879C129.519 120.872 121.032 120.651 113.573 120.609C47.343 120.887 32.421 104.542 35.436 131.795" fill="#F9B3AC"/>
<path fill-rule="evenodd" clip-rule="evenodd" d="M144.513 132.55C142.14 141.444 129.948 133.51 126.682 128.494C123.251 128.167 117.785 129.312 116.08 133.153C109.654 139.175 106.737 120.065 96.0852 127.325C81.5462 142.482 82.5852 122.039 72.1292 123.386C59.6302 128.077 55.2072 139.919 47.4332 123.073C46.0512 122.244 44.9182 122.473 43.5732 123.991C28.4712 144.004 28.3552 114.696 40.7502 114.229C123.688 125.98 146.22 110.552 144.513 132.55Z" fill="#FAD61D"/>
<path fill-rule="evenodd" clip-rule="evenodd" d="M144.503 130.029C145.123 118.242 131.758 120.348 123.361 119.595C124.839 123.526 120.848 126.657 117.328 128.536C115.153 130.28 114.902 133.098 111.601 133.776C116.553 136 118.432 127.558 124.755 128.421C127.844 127.596 129.123 132.489 132.253 134.003C137.313 137.284 145.56 138.533 144.503 130.029" fill="#F4C80F"/>
<path fill-rule="evenodd" clip-rule="evenodd" d="M142.948 145.704C128.094 137.453 115.678 154.37 102.702 148.953C91.6217 144.362 85.8608 141.074 74.8647 146.244C65.1427 150.496 57.0778 145.668 46.6737 142.677C42.7487 141.704 39.2877 141.64 35.9957 143.211C33.2147 130.988 62.4847 145.692 66.6827 143.993C93.0247 137.837 86.1307 139.808 105.544 146.853C116.014 149.492 139.808 132.105 142.948 145.704" fill="#FFD81A"/>
<path fill-rule="evenodd" clip-rule="evenodd" d="M143.028 153.127C128.217 144.933 116.499 161.021 103.883 156.678C95.2342 153.88 87.0283 147.956 77.5203 152.682C66.0843 158.103 57.9053 153.524 47.0123 150.141C43.2763 149.176 40.0023 149.029 36.7693 150.225C33.2753 138.441 64.2062 153.789 67.9802 151.328C94.6062 143.624 88.8762 149.84 106.858 154.416C116.726 155.852 140.349 139.942 143.028 153.127Z" fill="#FF5084"/>
<path fill-rule="evenodd" clip-rule="evenodd" d="M40.8632 116.521C37.7562 114.584 33.3322 119.543 37.4522 121.935C40.1482 123.653 45.1102 119.517 40.8632 116.521ZM58.9462 123.758C56.6512 123.758 55.6992 127.42 58.9462 127.861C61.2362 127.864 62.1742 124.196 58.9462 123.758ZM85.3382 120.661C84.0812 118.541 79.4632 118.93 79.8652 122.52C80.2392 126.332 87.3722 124.955 85.3382 120.661ZM112.713 124.744C109.902 124.691 109.854 129.868 113.789 128.475C115.336 127.634 115.23 125.066 112.713 124.744ZM129.2 120.242C124.321 120.02 123.35 127.737 129.2 128.093C134.078 128.309 135.036 120.592 129.2 120.242V120.242ZM144.503 130.028C145.199 126.694 139.918 128.803 141.212 131.421C142.299 133.397 145.301 133.672 144.503 130.028Z" fill="#F4C80F"/>
<path fill-rule="evenodd" clip-rule="evenodd" d="M143.4 126.387C140.253 126.387 140.247 130.922 143.4 130.922C146.548 130.922 146.553 126.387 143.4 126.387ZM129.197 118.382C124.317 118.162 123.355 125.88 129.197 126.231C134.077 126.451 135.038 118.733 129.197 118.382ZM112.711 122.887C110.135 122.735 109.731 128.035 113.787 126.619C115.337 125.776 115.236 123.207 112.711 122.887ZM85.3413 118.804C84.0863 116.671 79.4633 117.071 79.8673 120.662C80.2393 124.471 87.3733 123.093 85.3413 118.804ZM58.9423 121.903C56.6513 121.9 55.7053 125.563 58.9423 126.002C61.2323 126.004 62.1783 122.342 58.9423 121.903ZM42.5453 117.368C42.6613 121.337 35.0403 121.615 35.8253 116.572C36.6213 113.31 42.0443 113.374 42.5453 117.368Z" fill="#FF5084"/>
<path fill-rule="evenodd" clip-rule="evenodd" d="M117.866 120.854C109.035 122.152 97.8736 122.248 89.1596 120.398C97.8106 121.478 110.507 119.538 117.866 120.854ZM111.384 132.199C110.042 132.298 107.818 128.741 108.142 127.663C108.515 128.456 112.378 130.788 111.384 132.199ZM87.1656 131.455C80.4956 125.805 80.1666 125.501 81.1206 126.419C83.9826 133 80.7526 128.135 80.1666 125.501C82.4596 127.64 83.2796 129.351 85.6556 129.984C86.4876 130.06 88.0166 130.188 87.1656 131.455V131.455ZM53.0696 129.156C51.4636 128.565 51.2116 124.136 49.9406 123.61C49.0586 124.954 52.0546 132.406 53.0696 129.156ZM71.9416 119.697C62.8216 118.553 51.4456 114.898 42.7656 115.754C51.6296 115.831 64.9436 121.546 71.9416 119.697ZM33.7406 128.533C30.8026 130.273 32.2196 120.432 34.6696 120.544C33.7216 122.824 33.7766 125.281 33.7406 128.533Z" fill="white"/>
<path fill-rule="evenodd" clip-rule="evenodd" d="M41.0385 51.5552C35.4415 51.5552 35.4325 60.2532 41.0385 60.2532C46.6355 60.2532 46.6445 51.5552 41.0385 51.5552Z" fill="#FF5084"/>
<path fill-rule="evenodd" clip-rule="evenodd" d="M28.0513 65.9712C26.7983 63.0012 21.5393 64.6292 23.1903 68.4062C24.6043 70.8522 29.1233 69.5402 28.0513 65.9712Z" fill="#D2ACF5"/>
<path fill-rule="evenodd" clip-rule="evenodd" d="M35.6226 66.0894C30.9286 66.0894 30.9206 73.3834 35.6226 73.3834C40.3156 73.3834 40.3236 66.0894 35.6226 66.0894Z" fill="#9CEBEF"/>
<path fill-rule="evenodd" clip-rule="evenodd" d="M33.919 81.3358C31.326 81.3338 30.275 85.7978 33.919 86.3268C36.512 86.3288 37.564 81.8648 33.919 81.3358Z" fill="#FAD61D"/>
<path fill-rule="evenodd" clip-rule="evenodd" d="M145.763 65.4267C140.471 65.2327 139.616 74.0587 145.764 74.4437C151.055 74.6377 151.91 65.8107 145.763 65.4267Z" fill="#FF5084"/>
<path fill-rule="evenodd" clip-rule="evenodd" d="M154.199 80.9525C153.192 79.5155 150.25 81.7715 152.439 83.3615C153.762 84.3375 155.221 82.2685 154.199 80.9525Z" fill="#9CEBEF"/>
<path fill-rule="evenodd" clip-rule="evenodd" d="M161.533 68.809C159.792 65.444 153.339 68.564 156.999 72.651C159.231 74.724 163.088 71.88 161.533 68.809Z" fill="#FAD61D"/>
<path fill-rule="evenodd" clip-rule="evenodd" d="M137.877 44.1167C135.087 44.1147 133.957 48.9167 137.877 49.4867C140.667 49.4887 141.797 44.6867 137.877 44.1167Z" fill="#D2ACF5"/>
<path fill-rule="evenodd" clip-rule="evenodd" d="M173.043 127.722C171.121 124.991 166.104 127.465 168.152 131.159C170.074 133.889 175.091 131.415 173.043 127.722Z" fill="#FF5084"/>
<path fill-rule="evenodd" clip-rule="evenodd" d="M160.517 126.065C158.9 123.768 155.115 128.002 159.246 128.81C160.574 128.621 161.052 127.737 160.517 126.065" fill="#9CEBEF"/>
<path fill-rule="evenodd" clip-rule="evenodd" d="M159.568 139.116C156.357 134.545 149.249 139.528 152.465 144.106C155.675 148.677 162.784 143.694 159.568 139.116Z" fill="#FAD61D"/>
<path fill-rule="evenodd" clip-rule="evenodd" d="M173.623 140.316C171.749 137.649 167.601 140.556 169.478 143.228C171.352 145.895 175.499 142.987 173.623 140.316Z" fill="#D2ACF5"/>
<path fill-rule="evenodd" clip-rule="evenodd" d="M14.3334 149.548C9.49342 151.038 11.0464 158.4 16.4474 157.478C21.2874 155.988 19.7334 148.626 14.3334 149.548Z" fill="#FAD61D"/>
<path fill-rule="evenodd" clip-rule="evenodd" d="M7.20397 140.837C4.49597 141.559 5.61297 145.769 8.32597 145.046C11.035 144.324 9.91697 140.114 7.20397 140.837Z" fill="#D2ACF5"/>
<path fill-rule="evenodd" clip-rule="evenodd" d="M18.7548 141.305C16.3138 141.954 16.4438 146.42 20.0078 146.004C22.4488 145.355 22.3178 140.889 18.7548 141.305Z" fill="#FF5084"/>
<path fill-rule="evenodd" clip-rule="evenodd" d="M11.1151 123.427C8.96214 123.239 6.68214 126.067 8.15714 128.536C12.7751 133.929 17.8021 124.548 11.1151 123.427Z" fill="#9CEBEF"/>
<path fill-rule="evenodd" clip-rule="evenodd" d="M136.594 33.0507C132.828 33.4227 121.812 36.0177 121.167 38.7377C124.558 38.1707 140.172 35.9657 136.594 33.0507ZM131.132 21.0487C126.671 22.8907 123.311 27.6357 119.367 31.2967C118.665 33.3927 135.466 21.1767 131.132 21.0487ZM52.3622 39.9757C48.3062 38.3927 42.3702 35.4917 37.7502 35.6397C38.7332 38.5077 54.9922 45.8457 52.3622 39.9757ZM56.0682 37.2627C52.4802 33.3837 45.7282 28.6157 43.1362 23.7887C43.3662 23.2337 44.1622 23.5197 45.6392 24.4027C48.7162 26.9127 63.8312 38.5097 56.0682 37.2627Z" fill="#9CEBEF"/>
<path fill-rule="evenodd" clip-rule="evenodd" d="M69.5072 15.7026C69.5122 20.0236 67.1232 18.2206 65.6222 12.9486C63.6382 13.8906 59.7652 13.1046 62.4692 18.0966C62.7332 18.8426 62.8782 21.7286 60.6422 20.0996C60.5122 21.4626 54.2072 3.17858 59.3542 5.35558C60.7402 6.45458 60.3552 8.56658 60.7882 11.1736C66.1282 10.1426 64.8382 11.2466 63.6172 3.51058C67.1312 2.49458 67.4102 8.73158 69.5072 15.7026" fill="#FF5084"/>
<path fill-rule="evenodd" clip-rule="evenodd" d="M79.0053 9.15081C78.8183 8.54681 79.1183 8.32381 77.1993 3.92581C75.9493 5.06081 73.3453 14.6028 79.0053 9.15081ZM83.4863 15.1288C81.0893 18.6938 81.9113 12.8508 79.3723 12.7758C77.9633 13.1298 74.0983 13.3048 74.2883 16.9638C73.9863 17.1368 73.9793 17.6058 72.9473 17.1138C70.3803 19.5388 75.4753 -19.7312 83.4863 15.1288Z" fill="#FF5084"/>
<path fill-rule="evenodd" clip-rule="evenodd" d="M94.2764 4.49896C94.7144 0.784955 87.9634 0.956955 89.5904 7.43496C90.9684 7.16996 93.4924 6.94096 94.2764 4.49896V4.49896ZM96.6304 4.99996C96.9524 8.79696 91.1724 9.03396 89.1364 11.272C88.7464 12.183 90.2414 17.359 86.6384 15.805C86.6014 11.621 86.4164 5.52996 88.1764 0.653955C90.6244 -0.678045 97.1444 -0.315045 96.6304 4.99996" fill="#FF5084"/>
<path fill-rule="evenodd" clip-rule="evenodd" d="M107.001 6.33881C102.445 8.63081 101.941 8.56881 103.447 8.52881C107.969 2.72681 101.263 1.92581 101.941 8.56881C104.409 8.16281 106.146 8.25281 107.001 6.33881V6.33881ZM109.259 7.17281C109.031 10.9788 103.276 10.3788 100.94 12.3018C100.423 13.1468 101.157 18.4848 97.8154 16.4278C98.3804 12.2818 99.0744 6.22681 101.519 1.65481C104.133 0.689807 110.531 1.98781 109.259 7.17281" fill="#FF5084"/>
<path fill-rule="evenodd" clip-rule="evenodd" d="M122.335 8.17235C119.199 11.7963 115.001 15.2083 111.277 19.6943C108.989 19.5263 109.03 17.0083 113.528 13.2043C110.331 13.9263 112.272 0.794346 115.19 5.65335C115.406 6.47635 113.647 8.52135 114.528 10.6593C115.817 13.2393 121.57 1.75835 122.335 8.17235" fill="#FF5084"/>
</svg>
