<svg width="191" height="255" viewBox="0 0 191 255" fill="none" xmlns="http://www.w3.org/2000/svg">
<g clip-path="url(#clip0_1_4681)">
<path fill-rule="evenodd" clip-rule="evenodd" d="M182.926 71.6726C181.198 71.7753 182.929 67.298 183.295 66.36C176.936 64.7849 176.331 71.1158 178.792 72.6313C178.79 72.6313 178.788 72.6322 178.787 72.6322C180.224 72.9728 181.949 72.3259 184.226 71.6573C183.792 71.6627 183.358 71.6699 182.926 71.6726" fill="#8BD9EE"/>
<path fill-rule="evenodd" clip-rule="evenodd" d="M187.765 72.1918C186.133 70.9952 182.866 71.9566 180.55 72.7396C187.056 71.4313 182.204 78.1712 182.527 80.6545C183.292 80.6843 186.77 80.6599 187.073 80.641C187.109 78.2928 190.025 74.5012 187.765 72.1918Z" fill="#78BCCE"/>
<path fill-rule="evenodd" clip-rule="evenodd" d="M8.36238 57.8315C7.38846 56.5565 6.81366 55.0815 6.67041 53.4911C11.0895 54.3219 10.8418 55.1698 12.8139 59.2507C12.7734 59.1975 12.131 59.0506 12.1572 59.0587C11.1769 58.7461 10.1553 58.4505 8.36238 57.8315" fill="#F4DFFF"/>
<path fill-rule="evenodd" clip-rule="evenodd" d="M162.241 128.002C160.166 125.429 160.783 122.815 162.668 119.303C162.654 119.335 163.015 119.971 162.981 119.906C165.056 122.479 164.439 125.093 162.555 128.604C162.568 128.572 162.207 127.936 162.241 128.002" fill="#FFD798"/>
<path fill-rule="evenodd" clip-rule="evenodd" d="M147.837 16.1927C147.158 14.6122 143.856 18.1129 143.16 18.8391C139.015 13.9788 144.287 10.571 146.906 12.0992C146.905 12.0974 146.905 12.0956 146.904 12.0938C147.84 13.221 148.005 15.0375 148.391 17.356C148.206 16.9667 148.023 16.5784 147.837 16.1927" fill="#FFD798"/>
<path fill-rule="evenodd" clip-rule="evenodd" d="M150.422 20.2681C148.63 19.3509 148.067 16.0205 147.771 13.6147C149.43 19.9816 153.45 12.6947 155.842 11.9171C156.203 12.5848 157.699 15.6871 157.814 15.9656C155.66 17.0297 153.522 21.2981 150.422 20.2681Z" fill="#FFF4BE"/>
<path fill-rule="evenodd" clip-rule="evenodd" d="M64.3362 0.087177C62.6451 0.170976 61.8117 -0.721975 61.4667 1.80099C60.5747 8.18681 66.1191 11.2333 71.9852 10.3448C67.485 9.50145 64.7407 4.21223 66.6759 0.109703C66.6201 0.227742 64.5542 0.087177 64.3362 0.087177" fill="#F4DFFF"/>
<path fill-rule="evenodd" clip-rule="evenodd" d="M34.8908 84.7657C33.5673 85.6838 32.5619 86.9138 31.9321 88.3843C36.535 89.0187 36.5378 87.795 39.5676 84.7657C39.5136 84.8035 38.8559 84.7494 38.8838 84.7494C37.8531 84.7494 36.7891 84.7215 34.8908 84.7657Z" fill="#FFD798"/>
<path fill-rule="evenodd" clip-rule="evenodd" d="M32.605 10.605C29.3796 9.88508 27.2461 11.562 24.8704 14.7805C24.8929 14.7553 25.6299 14.7977 25.5551 14.7977C28.7805 15.5176 30.9148 13.8407 33.2906 10.6212C33.2672 10.6465 32.5311 10.6041 32.605 10.605" fill="#8BD9EE"/>
<path fill-rule="evenodd" clip-rule="evenodd" d="M15.4468 30.9929C17.6514 30.582 18.2469 31.7678 21.5732 30.4874C19.519 30.427 17.409 30.5261 15.4468 30.9929Z" fill="#78BCCE"/>
<path fill-rule="evenodd" clip-rule="evenodd" d="M30.2638 45.394C40.5354 51.4401 19.2155 71.7356 34.918 69.5947C30.0682 62.5222 47.7889 42.2998 28.7493 45.4399C29.1033 45.4291 29.025 45.4481 30.2638 45.394" fill="#78BCCE"/>
<path fill-rule="evenodd" clip-rule="evenodd" d="M29.202 45.104C20.9754 44.4733 33.9788 27.7487 20.4006 30.9385C26.2541 33.6065 16.8014 44.7031 25.2477 45.4392C26.3306 45.3104 27.846 45.8816 29.5876 45.0959C29.4587 45.0986 29.3299 45.1022 29.202 45.104Z" fill="#8BD9EE"/>
<path fill-rule="evenodd" clip-rule="evenodd" d="M180.164 14.0029C180.184 14.0507 181.046 14.9166 181.18 15.3455C181.174 15.45 180.9 15.0941 180.164 14.0029ZM175.189 36.0987C163.121 26.3141 191.476 24.0371 180.021 13.8497C182.819 24.1813 158.217 22.973 176.253 37.4521C175.817 36.8205 175.254 36.0428 175.189 36.0987" fill="#FFF4BE"/>
<path fill-rule="evenodd" clip-rule="evenodd" d="M171.998 6.00439C173.875 9.13738 177.332 11.0404 180.453 14.1887C178.035 11.0386 175.427 8.21289 171.998 6.00439" fill="#FFD798"/>
<path fill-rule="evenodd" clip-rule="evenodd" d="M165.796 82.7976C164.862 81.3289 163.545 80.4683 161.128 78.2229C162.242 79.7547 164.614 82.7174 166.947 84.3564C166.507 84.0338 166.127 83.2364 165.796 82.7976" fill="#FFF4BE"/>
<path fill-rule="evenodd" clip-rule="evenodd" d="M159.61 74.4179C151.016 48.3917 187.859 49.5414 175.506 36.9933C176.255 44.5595 166.023 46.8356 161.326 51.4949C153.712 58.4493 154.703 71.1218 161.587 78.5042C160.835 77.1797 160.115 75.8929 159.61 74.4179" fill="#FFD798"/>
<path fill-rule="evenodd" clip-rule="evenodd" d="M141.673 34.151C142.962 32.2552 142.912 31.7226 140.613 30.3918C135.166 27.5705 130.733 31.2586 128.993 36.4739C131.725 32.8408 137.739 32.7102 140.631 36.2198C140.548 36.1198 141.578 34.3447 141.673 34.151" fill="#78BCCE"/>
<path fill-rule="evenodd" clip-rule="evenodd" d="M178.99 90.5227C179.963 89.2477 180.539 87.7726 180.682 86.1823C176.263 87.013 176.51 87.8618 174.538 91.9418C174.579 91.8887 175.22 91.7418 175.195 91.7499C176.175 91.4372 177.196 91.1417 178.99 90.5227" fill="#F4DFFF"/>
<path fill-rule="evenodd" clip-rule="evenodd" d="M54.715 31.3783C55.3934 29.7979 58.6962 33.2985 59.3918 34.0247C63.537 29.1653 58.2638 25.7566 55.6456 27.2848C55.6465 27.283 55.6465 27.2812 55.6474 27.2794C54.7114 28.4066 54.5465 30.2232 54.1609 32.5416C54.3456 32.1523 54.5294 31.764 54.715 31.3783" fill="#FFD798"/>
<path fill-rule="evenodd" clip-rule="evenodd" d="M52.1303 35.4538C53.9223 34.5374 54.4853 31.2062 54.7809 28.8003C53.1222 35.1672 49.1022 27.8804 46.7102 27.1036C46.3489 27.7704 44.8534 30.8728 44.738 31.1512C46.8922 32.2154 49.0301 36.4837 52.1303 35.4538" fill="#FFF4BE"/>
<path fill-rule="evenodd" clip-rule="evenodd" d="M159.078 103.558C160.159 102.572 161.815 102.931 163.735 100.659C162.078 101.448 160.442 102.387 159.078 103.558Z" fill="#78BCCE"/>
<path fill-rule="evenodd" clip-rule="evenodd" d="M176.868 108.963C187.606 109.659 179.035 134.358 190.673 126.299C183.901 122.744 189.458 99.3322 175.684 109.617C175.96 109.464 175.906 109.511 176.868 108.963" fill="#78BCCE"/>
<path fill-rule="evenodd" clip-rule="evenodd" d="M175.903 109.165C169.172 112.005 172.343 93.4633 162.993 101.495C168.606 101.156 165.964 113.861 172.901 111.043C173.557 110.537 174.8 110.573 176.206 109.001C176.105 109.056 176.003 109.111 175.903 109.165" fill="#8BD9EE"/>
<path fill-rule="evenodd" clip-rule="evenodd" d="M1.18292 116.004C0.71353 116.44 0.332431 116.797 0.37027 117.48C1.94782 115.759 2.07666 116.529 3.76412 113.7C2.89111 114.451 2.02711 115.221 1.18292 116.004" fill="#F4DFFF"/>
<path fill-rule="evenodd" clip-rule="evenodd" d="M39.5109 96.2805C34.6053 99.6784 34.99 106.905 30.6646 111.826C35.6071 108.484 38.2415 101.978 40.0308 95.839C40.01 95.9129 39.5019 96.2877 39.5109 96.2805Z" fill="#F4DFFF"/>
<path fill-rule="evenodd" clip-rule="evenodd" d="M13.2304 112.654C13.2132 112.658 13.2286 112.653 13.197 112.681C13.2132 112.684 13.2006 112.692 13.2304 112.654Z" fill="#8BD9EE"/>
<path fill-rule="evenodd" clip-rule="evenodd" d="M13.2472 112.632C13.24 112.638 13.2328 112.645 13.2256 112.652C13.2346 112.655 13.2265 112.657 13.2472 112.632Z" fill="#8BD9EE"/>
<path fill-rule="evenodd" clip-rule="evenodd" d="M27.9727 109.341C24.1527 107.493 18.0515 106.187 15.2559 111.288C19.9768 108.184 28.6376 117.432 32.0891 109.794C30.7206 110.085 29.27 109.79 27.9727 109.341" fill="#E6AAFF"/>
<path fill-rule="evenodd" clip-rule="evenodd" d="M13.2375 112.656C14.407 113.154 14.5142 112.641 15.5971 110.537C14.7989 111.225 13.988 111.916 13.2375 112.656Z" fill="#F4DFFF"/>
<path fill-rule="evenodd" clip-rule="evenodd" d="M13.2083 112.684C10.8974 112.225 7.06838 111.62 4.2205 113.329C4.24392 113.303 4.26645 113.277 4.29257 113.25C3.65291 113.661 2.78259 115.136 2.5979 115.52C8.25763 113.587 22.2691 119.495 16.1093 127.287C23.7755 123.198 21.9312 115.82 14.1966 112.98C14.2002 112.972 14.2039 112.965 14.2075 112.958C14.0011 112.927 13.8047 112.761 13.2083 112.684Z" fill="#E6AAFF"/>
<path fill-rule="evenodd" clip-rule="evenodd" d="M15.4123 124.068C13.1717 122.359 12.4969 120.686 12.841 117.018C12.8969 117.05 12.951 117.084 13.005 117.117C11.9924 116.32 10.9121 116.078 10.5788 116.019C10.6148 116.031 10.577 116.018 10.6977 116.057C6.37317 122.084 12.9789 133.548 17.7251 124.633C16.9304 124.64 16.125 124.444 15.4123 124.068" fill="#F4DFFF"/>
<path fill-rule="evenodd" clip-rule="evenodd" d="M170.008 151.12C172.475 149.575 173.378 148.989 170.637 145.715C172.744 146.881 174.681 148.622 177.173 145.812C176.732 148.047 176.853 149.322 180.082 150.36C177.095 150.29 176.385 151.493 176.779 155.006C175.366 152.374 174.441 150.422 170.008 151.12" fill="#F4CAE8"/>
<path fill-rule="evenodd" clip-rule="evenodd" d="M98.5622 15.6987C110.239 10.3536 106.236 -0.0608425 100.167 8.67133C100.269 6.74036 99.9307 2.62612 96.4225 2.97483C91.952 4.54177 96.2837 13.538 98.5622 15.6987" fill="#A7E3D8"/>
<path fill-rule="evenodd" clip-rule="evenodd" d="M12.7544 83.5799C15.2212 82.0346 16.1248 81.4498 13.3833 78.1744C15.4906 79.3404 17.4267 81.0813 19.9196 78.2727C19.479 80.5064 19.6007 81.7814 22.8287 82.8194C19.8412 82.7509 19.1313 83.9529 19.5259 87.4653C18.1123 84.8333 17.1879 82.8816 12.7544 83.5799" fill="#F4CAE8"/>
<path fill-rule="evenodd" clip-rule="evenodd" d="M121.643 55.0478C121.603 54.3891 121.585 53.7287 121.587 53.0691C122.322 53.3628 122.918 55.2713 125.169 54.0008C124.23 55.1073 124.14 55.483 125.993 57.0464C124.517 56.8238 122.675 55.9318 122.081 58.7449C121.686 57.7204 122.712 55.7011 119.315 55.893C120.054 55.5227 120.842 55.2695 121.643 55.0478" fill="#C0DBEA"/>
<path fill-rule="evenodd" clip-rule="evenodd" d="M27.1589 129.737C27.8725 129.047 29.3221 129.032 27.4842 126.939C28.2293 127.215 29.3798 128.639 30.8681 126.989C30.742 127.864 30.5357 128.834 32.3745 129.344C31.3276 129.569 30.3456 129.094 30.6645 131.748C29.9762 130.725 29.7555 129.292 27.1589 129.737" fill="#FFA6CB"/>
<path fill-rule="evenodd" clip-rule="evenodd" d="M4.93445 152.734C4.87679 151.741 4.84706 150.747 4.85156 149.753C6.11559 150.751 7.63638 152.869 10.2464 151.157C8.63823 152.698 9.15627 153.823 11.4879 155.745C8.81211 155.252 6.52912 154.249 5.59574 158.303C5.30113 155.866 5.648 153.724 1.42798 154.006C2.54425 153.449 3.72899 153.068 4.93445 152.734Z" fill="#F4CAE8"/>
<path fill-rule="evenodd" clip-rule="evenodd" d="M162.937 235.913C162.361 214.992 162.36 194.055 162.934 173.134C125.192 189.166 49.5303 179.344 26.2499 175.811C24.922 175.723 24.549 175.093 24.6976 177.479C24.3318 190.255 24.5499 202.682 24.9328 215.567C25.6742 229.749 22.6858 241.218 37.1288 247.106C50.7664 253.203 65.5338 251.884 80.266 253.352C106.884 255.625 154.332 257.765 162.937 235.913Z" fill="#B7DFD2"/>
<path fill-rule="evenodd" clip-rule="evenodd" d="M26.4552 165.457C21.3351 170.204 15.2042 197.757 26.7867 192.19C32.6086 215.451 35.3268 188.537 41.6226 204.469C43.8173 207.857 46.3408 210.537 50.7653 211.301C55.3962 211.736 57.2972 206.058 60.4478 203.329C62.9911 200.882 65.9769 201.772 69.4482 203.233C76.2602 206.193 79.5622 197.462 86.1967 197.4C97.6279 196.446 107.486 209.245 118.556 203.674C123.744 200.783 125.948 195.469 132.1 194.349C144.364 192.773 151.236 206.595 158.746 192.623C161.024 190.726 163.547 194.386 166.508 193.982C175.114 191.393 169.135 171.579 164.615 169.279C159.869 166.777 155.863 167.798 150.483 168.384C59.4946 185.71 39.9504 157.83 26.4552 165.457" fill="#FCD3BA"/>
<path fill-rule="evenodd" clip-rule="evenodd" d="M28.469 159.318C23.9292 162.017 19.4704 167.734 22.4588 173.487C30.3736 189.063 72.0486 182.557 80.7814 183.741C102.645 183.106 123.443 184.855 144.893 179.739C152.007 178.155 160.546 180.813 165.614 173.894C170.206 166.085 158.487 159.594 153.255 155.432C127.92 136.744 43.8833 149.599 28.469 159.318" fill="#FABBA1"/>
<path fill-rule="evenodd" clip-rule="evenodd" d="M36.4041 163.713C26.5928 151.522 40.9584 146.748 50.1156 152.936C55.1338 161.64 44.2153 168.139 36.4041 163.713Z" fill="#F3774E"/>
<path fill-rule="evenodd" clip-rule="evenodd" d="M41.3374 152.344C41.3671 151.968 41.9275 152.781 41.923 152.775C41.905 153.953 45.1304 153.453 44.0808 152.942C42.9573 154.346 42.1762 150.883 40.8572 152.386C40.9022 152.521 40.9932 152.565 41.3374 152.344Z" fill="#231F20"/>
<path fill-rule="evenodd" clip-rule="evenodd" d="M42.7187 153.015C42.4241 148.878 43.1764 143.284 47.4639 140.473C48.8919 140.095 48.682 138.406 50.0334 140.629C50.1073 140.918 50.4163 140.982 49.8415 141.461C45.2467 143.486 44.371 148.221 42.7187 153.015Z" fill="#22110D"/>
<path fill-rule="evenodd" clip-rule="evenodd" d="M85.3798 176.551C95.1911 164.358 80.8255 159.585 71.6683 165.772C66.651 174.476 77.5695 180.976 85.3798 176.551Z" fill="#F3774E"/>
<path fill-rule="evenodd" clip-rule="evenodd" d="M80.4474 165.182C80.4177 164.804 79.8564 165.618 79.8609 165.612C79.8798 166.79 76.6535 166.289 77.704 165.778C78.8266 167.184 79.6086 163.719 80.9267 165.222C80.8826 165.357 80.7916 165.402 80.4474 165.182Z" fill="#231F20"/>
<path fill-rule="evenodd" clip-rule="evenodd" d="M79.0651 165.851C79.3597 161.716 78.6083 156.121 74.3199 153.31C72.8928 152.932 73.1018 151.243 71.7513 153.466C71.6774 153.755 71.3675 153.82 71.9423 154.298C76.538 156.323 77.4128 161.059 79.0651 165.851Z" fill="#22110D"/>
<path fill-rule="evenodd" clip-rule="evenodd" d="M122.267 177.044C132.079 164.853 117.712 160.079 108.555 166.266C103.538 174.97 114.456 181.47 122.267 177.044" fill="#F3774E"/>
<path fill-rule="evenodd" clip-rule="evenodd" d="M117.334 165.675C117.305 165.299 116.743 166.112 116.748 166.106C116.768 167.284 113.54 166.784 114.591 166.273C115.714 167.678 116.496 164.214 117.814 165.717C117.769 165.852 117.678 165.896 117.334 165.675" fill="#231F20"/>
<path fill-rule="evenodd" clip-rule="evenodd" d="M115.953 166.346C116.247 162.209 115.495 156.614 111.207 153.804C109.78 153.426 109.989 151.737 108.638 153.96C108.563 154.248 108.254 154.313 108.829 154.793C113.425 156.817 114.3 161.552 115.953 166.346Z" fill="#22110D"/>
<path fill-rule="evenodd" clip-rule="evenodd" d="M139.141 162.341C129.329 150.149 143.695 145.376 152.852 151.563C157.87 160.267 146.951 166.767 139.141 162.341Z" fill="#F3774E"/>
<path fill-rule="evenodd" clip-rule="evenodd" d="M144.074 150.972C144.104 150.596 144.664 151.409 144.66 151.403C144.641 152.581 147.868 152.081 146.817 151.57C145.694 152.975 144.913 149.511 143.594 151.014C143.639 151.148 143.73 151.193 144.074 150.972" fill="#231F20"/>
<path fill-rule="evenodd" clip-rule="evenodd" d="M145.455 151.642C145.161 147.506 145.913 141.912 150.201 139.101C151.628 138.723 151.419 137.034 152.77 139.257C152.844 139.545 153.154 139.61 152.578 140.09C147.982 142.114 147.108 146.85 145.455 151.642Z" fill="#22110D"/>
<path fill-rule="evenodd" clip-rule="evenodd" d="M39.3173 213.327C41.0029 218.49 43.0075 217.442 45.686 217.956C41.2975 221.154 42.9129 222.737 43.2535 225.443C38.8551 222.257 37.8487 224.284 35.381 225.443C37.0505 220.275 34.8134 219.945 32.9485 217.956C38.3785 217.947 38.001 215.717 39.3173 213.327" fill="white"/>
<path fill-rule="evenodd" clip-rule="evenodd" d="M72.6522 216.939C75.3271 224.268 77.1461 222.19 81.1553 223.118C75.0127 227.927 77.5506 229.016 77.9074 233.117C71.4359 228.76 71.1846 231.51 67.3961 233.117C69.5394 225.614 66.8465 226.226 64.1482 223.118C71.9441 222.838 70.5314 220.466 72.6522 216.939Z" fill="white"/>
<path fill-rule="evenodd" clip-rule="evenodd" d="M104.76 219.493C105.86 223.262 107.773 222.984 109.904 223.23C106.66 225.442 107.516 227.175 107.939 229.279C104.834 226.876 103.45 228.226 101.58 229.279C102.905 225.584 101.195 224.684 99.6152 223.23C103.54 223.349 103.867 221.443 104.76 219.493" fill="white"/>
<path fill-rule="evenodd" clip-rule="evenodd" d="M141.574 212.804C143.92 219.419 145.835 217.616 149.297 218.417C143.733 222.692 146.039 223.957 146.348 227.497C140.563 223.524 140.072 226.109 136.8 227.497C138.79 220.767 136.181 221.098 133.851 218.417C140.865 218.229 139.744 215.85 141.574 212.804" fill="white"/>
<path fill-rule="evenodd" clip-rule="evenodd" d="M72.7278 56.1443C75.1846 55.792 73.1701 68.7087 73.8864 70.5108C73.2368 69.562 76.0649 89.4087 72.2755 86.0261C71.6881 78.605 74.4702 70.3837 69.0916 72.0813C67.7924 72.0894 71.27 89.033 67.3095 85.3945C67.4735 77.4102 66.6491 63.0311 67.5338 56.8444C70.4114 54.5863 68.5231 65.3144 68.8456 70.8081L68.7077 70.5333C68.7996 70.5063 69.9303 70.4738 72.098 70.4342C72.453 66.0965 71.0844 59.5836 72.7278 56.1443" fill="#231F20"/>
<path fill-rule="evenodd" clip-rule="evenodd" d="M82.0699 60.4216C81.3996 62.9968 81.0654 66.7353 81.0654 71.6362C81.0122 71.6362 80.9861 72.1426 80.9861 73.1544C81.3284 72.357 82.9925 72.5444 84.7899 72.3264V72.6219C85.0809 71.556 83.0835 65.1648 82.0699 60.4216ZM81.7149 58.3915C88.3702 61.3127 89.3 103.763 85.2016 76.1757C85.7854 72.4372 80.7419 74.7349 80.9861 74.4547C80.4194 77.0299 81.9086 86.6947 79.1977 85.9423C78.2463 77.9382 78.8851 59.0682 81.7149 58.3915" fill="#231F20"/>
<path fill-rule="evenodd" clip-rule="evenodd" d="M95.8849 59.298C95.8632 61.0154 95.3966 73.9024 95.5894 75.1449L95.392 75.0467C97.221 75.9892 102.004 60.6063 95.8849 59.298ZM94.6235 57.6229C103.813 56.4029 101.077 76.4226 95.6677 76.3866C95.3191 79.7214 96.5588 83.4401 95.7722 85.7135C94.2839 87.1146 93.928 84.5268 94.1109 82.221C94.0415 79.6592 93.6839 77.649 93.855 75.2035C93.5775 74.1844 94.1145 60.4243 94.1109 59.1214C94.083 59.1196 93.6073 58.0933 94.6235 57.6229" fill="#231F20"/>
<path fill-rule="evenodd" clip-rule="evenodd" d="M106.822 59.298C106.8 61.0154 106.334 73.9024 106.527 75.1449L106.329 75.0467C108.158 75.9892 112.941 60.6063 106.822 59.298V59.298ZM105.562 57.6229C114.75 56.4029 112.014 76.4226 106.606 76.3866C106.256 79.7214 107.497 83.4401 106.709 85.7135C105.221 87.1146 104.865 84.5268 105.048 82.221C104.98 79.6592 104.621 77.649 104.792 75.2035C104.516 74.1844 105.052 60.4243 105.048 59.1214C105.02 59.1196 104.545 58.0933 105.562 57.6229" fill="#231F20"/>
<path fill-rule="evenodd" clip-rule="evenodd" d="M122.825 59.4362C125.647 60.5472 121.877 69.7794 122.707 72.3664C120.166 98.9332 119.079 80.4723 120.855 71.7744C119.639 68.8333 116.858 64.8623 114.627 61.5654C116.047 58.1035 120.9 68.3657 121.76 69.7641H121.051C121.924 65.13 121.402 60.8779 122.825 59.4362" fill="#231F20"/>
<path fill-rule="evenodd" clip-rule="evenodd" d="M50.1356 113.042C48.895 113.621 45.5994 113.562 46.4219 116.069C47.4238 118.159 49.8257 116.476 50.1356 113.042ZM58.4504 106.018C57.7864 110.165 55.4133 110.231 52.9952 113.144C52.6853 117.432 44.0921 121.166 44.7309 114.259C45.4408 112.876 48.7959 113.101 50.2158 111.873C49.9212 105.921 50.8176 106.897 44.566 107.513C45.2372 106.098 51.6384 98.035 48.1788 97.4502C40.6811 101.349 45.2381 112.742 41.5803 118.129C39.2603 112.369 39.4639 103.148 40.2649 95.3823C42.4235 94.4344 43.8732 97.1447 43.5146 99.7209C43.6822 100.507 44.2759 99.4803 44.7272 98.7928C50.0248 92.6079 54.2998 99.146 48.5202 105.777C50.3365 106.591 53.7205 107.293 53.2835 111.024C55.9674 110.731 56.2044 105.02 58.4504 106.018" fill="#231F20"/>
<path fill-rule="evenodd" clip-rule="evenodd" d="M58.2071 102.184C56.8746 100.387 61.928 99.1994 60.9523 102.547C60.354 103.26 59.5567 103.397 58.2071 102.184ZM56.7944 114.899C55.6376 113.114 56.5692 99.8356 60.0648 107.028C60.4018 107.559 58.5513 117.47 61.2397 113.903C63.1893 111.569 64.7353 109.163 65.7948 106.22C69.6716 102.554 62.0974 120.937 56.7944 114.899Z" fill="#231F20"/>
<path fill-rule="evenodd" clip-rule="evenodd" d="M68.7001 115.949C65.2116 115.075 66.0197 105.94 65.8333 103.154C69.0046 99.7629 69.5983 107.8 69.5875 110.095C70.2055 110.496 70.0479 109.819 70.6605 107.793C70.5956 104.64 76.3121 97.7346 76.1689 104.444C70.7668 99.5827 72.8462 114.672 68.7001 115.949" fill="#231F20"/>
<path fill-rule="evenodd" clip-rule="evenodd" d="M78.3463 115.908C75.5921 111.43 78.2337 102.932 77.6202 98.5104C76.4354 98.1842 74.2209 99.5799 72.3325 98.3094C72.3379 98.022 72.2658 98.259 72.9785 97.9049C82.8979 98.4518 75.9949 92.2336 81.5852 93.8618C82.5753 94.479 80.8014 97.0344 82.9465 96.9353C83.297 96.8596 89.7712 96.1487 87.1557 97.7436C82.6411 97.8868 81.0852 97.2858 80.8014 103.277C80.6762 106.682 77.9598 122.151 83.97 111.868C85.8142 110.172 85.4088 106.15 88.0729 105.776C87.472 108.702 82.6934 119.529 78.3463 115.908" fill="#231F20"/>
<path fill-rule="evenodd" clip-rule="evenodd" d="M90.3332 103.516C91.727 102.085 93.0279 99.4953 93.764 97.704C95.6163 89.226 88.8223 98.715 90.3332 103.516ZM87.6286 117.28C79.7219 87.8374 105.876 86.8282 90.253 105.816C89.6359 106.555 89.5701 110.577 90.9792 107.916C102.28 95.3126 92.5081 122.871 100.357 110.823C101.426 110.54 101.843 104.657 103.934 106.018C103.16 110.761 94.028 122.061 94.0361 110.58C96.0758 101.262 90.3431 109.561 90.2521 114.172C90.4125 115.513 91.4026 120.067 87.6286 117.28" fill="#231F20"/>
<path fill-rule="evenodd" clip-rule="evenodd" d="M113.944 101.012C115.519 98.8048 117.436 94.8906 116.366 91.3657C115.475 89.7996 113.203 99.2166 113.944 101.012ZM106.397 112.356C107.59 111.771 112.351 103.664 107.73 103.799C106.73 105.501 105.085 109.99 106.397 112.356ZM111.038 116.796C109.197 115.747 111.583 106.758 107.609 113.001C100.452 118.37 98.3048 99.6419 110.029 102.185C109.657 97.9236 113.913 81.9073 118.345 93.1417C118.472 98.4895 114.189 100.636 113.159 106.021C112.558 125.046 115.075 113.953 119.754 105.776C120.987 107.041 115.019 122.852 111.038 116.796Z" fill="#231F20"/>
<path fill-rule="evenodd" clip-rule="evenodd" d="M122.137 111.952C123.937 110.934 129.476 105.777 125.286 103.274C123.645 104.923 121.103 109.134 122.137 111.952V111.952ZM127.062 116.958C125.77 116.537 127.361 109.925 126.128 110.081C114.556 122.578 116.45 95.3831 128.031 103.919C133.568 94.2397 129.465 111.025 129.759 115.636C130.678 119.504 134.815 103.965 136.545 105.777C135.592 108.574 131.463 121.9 127.062 116.958Z" fill="#231F20"/>
<path fill-rule="evenodd" clip-rule="evenodd" d="M140.643 121.862C141.06 120.583 141.43 119.164 141.753 117.603C140.153 119.199 136.468 120.006 137.058 123.797C137.978 126.246 139.696 125.124 140.643 121.862ZM151.359 106.018C150.986 109.794 146.916 112.084 144.848 116.084C144.235 118.677 144.427 121.286 142.519 124.061C139.672 128.202 132.431 126.636 136.218 120.389C137.18 118.745 140.124 116.895 142.157 115.262C142.426 113.205 142.562 111.213 142.862 108.597C144.337 103.169 134.087 124.902 135.168 105.34C134.946 102.725 138.024 101.355 138.393 105.071C138.903 106.415 137.329 109.681 138.806 111.265C143.488 103.389 146.78 96.8123 145.346 112.598C148.071 111.285 148.967 105.462 151.359 106.018" fill="#231F20"/>
</g>
<defs>
<clipPath id="clip0_1_4681">
<rect width="191" height="255" fill="white"/>
</clipPath>
</defs>
</svg>
