<svg width="205" height="147" viewBox="0 0 205 147" fill="none" xmlns="http://www.w3.org/2000/svg">
<path fill-rule="evenodd" clip-rule="evenodd" d="M130.041 92.4866C132.858 88.6136 134.638 83.3076 136.48 78.1176C141.993 58.6646 121.931 85.4286 130.041 92.4866ZM103.655 72.9016C112.854 70.2316 119.693 55.8876 113.966 48.2136C109.991 50.8236 103.782 64.2346 103.655 72.9016ZM69.9349 90.6246C70.1339 90.6836 70.3329 90.7436 70.5329 90.8026C79.6869 83.3806 82.5699 73.7076 85.5709 62.3526C67.1459 55.4736 66.2679 69.8066 78.0189 65.4246C78.0859 65.5796 78.1539 65.7346 78.2209 65.8896C71.8599 69.8296 70.6009 83.7536 69.9349 90.6246ZM103.06 56.5466C99.2659 59.6816 95.3449 61.8506 90.0279 62.8946C88.0219 71.2536 83.5009 80.7326 85.3829 90.0046C96.9559 83.0276 97.5679 68.3036 103.06 56.5466ZM20.0169 75.1636C25.1849 70.2096 29.1679 63.0486 26.2719 55.5906C22.2519 43.4036 7.13191 60.6886 5.65291 66.1986C2.90991 70.8196 1.31091 89.6086 9.25791 83.9006C12.9749 80.5816 17.0259 69.7036 8.19691 72.9656C9.18091 70.7876 12.3779 69.6236 15.3469 71.1566C15.0639 67.6636 14.8009 64.4126 14.5359 61.1416C19.3869 59.6966 18.7219 71.5626 20.0169 75.1636ZM175.738 108.57C176.115 108.126 176.493 107.681 176.871 107.236C177.063 106.959 177.256 106.682 177.449 106.406C177.711 105.835 177.975 105.264 178.234 104.69C178.281 104.56 178.329 104.429 178.375 104.298C177.956 104.804 177.821 104.961 177.008 105.931C176.812 106.206 176.615 106.48 176.418 106.755C176.163 107.331 175.907 107.908 175.653 108.486C175.602 108.618 175.55 108.749 175.499 108.881C175.578 108.778 175.658 108.674 175.738 108.57V108.57ZM112.008 70.5846C124.063 66.8286 111.953 90.4026 115.441 95.9196C123.245 87.7996 126.797 66.1856 139.569 70.0496C140.657 67.5966 141.736 65.1616 143.048 62.2026C129.803 66.0606 133.22 52.7926 121.961 62.6766C120.526 60.2356 122.377 59.5536 125.436 56.9996C131.338 52.3786 135.879 62.5636 141.898 60.0586C146.07 57.8686 147.567 51.0406 152.713 50.9636C150.308 65.1976 139.388 79.6676 141.8 95.1456C144.231 94.3906 146.39 92.5916 147.008 90.4166C150.089 62.8976 179.283 59.5206 167.118 76.5906C166.973 76.4986 166.828 76.4056 166.683 76.3126C170.246 54.1236 149.822 83.6696 152.914 91.3656C159.124 89.4466 161.823 75.0266 166.286 78.8216C163.741 87.3346 163.318 90.7046 164.609 93.6886C177.228 88.9576 170.549 68.1726 183.027 62.4326C182.604 70.8806 175.589 80.1866 177.214 90.1536C186.455 81.6406 186.396 68.2046 191.94 70.8776C191.363 78.3976 189.231 86.0746 187.877 94.2276C205.31 82.0996 204.229 59.6946 193.416 46.6676C197.346 44.4946 199.662 49.9866 201.505 53.4696C209.467 70.4216 203.17 87.3896 188.633 96.8266C184.548 99.2046 175.534 120.743 170.795 109.671C173.307 103.174 180.346 101.882 182.296 95.4526C182.712 92.9726 184.727 89.6516 183.899 87.9456C181.259 90.2366 176.238 97.2086 172.622 91.0856C168.262 93.8106 159.214 99.9966 159.584 89.8556C156.369 93.0156 153.274 95.8876 148.713 93.2846C143.901 98.1036 135.436 100.02 136.27 89.5056C132.943 97.6396 123.751 96.5846 123.319 87.8366C120.578 92.9176 112.316 106.539 110.556 93.3066C109.899 85.5566 114.045 79.7096 113.559 71.9096C107.007 76.7506 102.888 84.9376 103.086 93.6286C95.1079 95.8896 97.2019 86.0126 96.8639 80.6156C92.4419 87.2416 81.6449 101.727 79.8449 84.6476C60.2619 107.66 64.7679 82.7706 69.8959 68.9516C67.4499 69.3776 65.0809 69.7896 63.0019 70.1506C59.2549 77.4146 58.1999 91.5296 49.4439 91.2976C44.0209 85.4736 47.9149 74.4736 45.8509 66.8336C44.1519 69.9386 42.4769 73.0016 40.6919 76.2656C45.0099 89.8026 35.6269 109.078 21.3219 112.554C6.90791 115.08 2.18091 91.5576 13.5289 93.3666C8.47791 95.5306 10.6199 102.362 13.2809 106.701C26.5459 124.296 49.0949 75.1466 31.5799 72.7566C12.5529 73.7606 25.6629 92.8036 21.5909 103.317C13.9909 107.046 17.7489 83.2406 16.0439 79.8146C-0.133093 100.011 -4.54309 72.1666 4.94991 60.3706C18.8469 40.6766 39.1869 50.9146 27.6329 71.4176C31.9709 70.7816 35.9339 71.3176 39.4739 74.3396C41.6949 71.6966 43.9409 59.0756 48.4989 61.0946C51.2419 69.7116 49.1529 79.8626 51.3949 89.1016C54.9589 82.8586 57.8199 76.7916 60.3699 69.5726C52.4039 65.8466 56.7939 46.3646 65.3949 48.9916C60.3439 51.8816 57.1079 71.7466 67.9499 66.7966C61.2829 55.1206 81.5219 60.0936 86.3149 59.1756C87.7169 57.0616 87.6289 49.1256 92.2819 50.9596C91.7779 54.0216 91.2759 57.0776 90.7369 60.3586C95.7609 61.8836 103.677 47.9736 102.603 56.6876C102.716 56.7486 102.829 56.8086 102.942 56.8696C122.655 26.7796 124.68 70.2596 103.252 74.7796C103.07 76.3406 102.892 77.8586 102.714 79.3776C102.872 79.4166 103.029 79.4556 103.187 79.4956C105.543 76.8486 107.763 72.3626 112.008 70.5846" fill="#0C0C0C"/>
<path fill-rule="evenodd" clip-rule="evenodd" d="M63.0141 0.268235C64.3471 8.44324 63.1741 16.8562 62.5871 25.7432C65.7381 25.6052 68.6771 25.4332 71.5891 24.0252C72.2681 16.4642 72.9511 8.86024 73.6551 1.01224C74.2081 0.936235 74.9761 0.830235 75.6611 0.737235C78.1661 13.4622 75.8071 28.3762 74.3231 41.9972C67.7551 48.7082 71.5051 29.9352 71.0031 26.7582C68.3561 26.9892 65.6391 27.2252 62.7271 27.4792C62.1191 29.7912 64.2241 50.1342 58.6351 43.5722C57.2121 29.7612 60.0531 16.4602 60.1131 2.22724C60.1711 0.379235 60.2611 -0.476765 63.0141 0.268235" fill="#0C0C0C"/>
<path fill-rule="evenodd" clip-rule="evenodd" d="M74.1664 143.735C78.0994 134.934 82.7134 116.072 77.0744 110.601C71.8064 119.827 70.8234 135.273 74.1664 143.735ZM67.2894 132.562C65.8284 114.183 77.8594 100.366 81.8784 113.865C85.7284 148.857 66.5194 157.115 67.1024 132.577C67.1644 132.572 67.2274 132.567 67.2894 132.562Z" fill="#0C0C0C"/>
<path fill-rule="evenodd" clip-rule="evenodd" d="M90.6883 25.5953C91.1633 20.2263 90.7893 9.32332 89.7503 6.79432C88.1533 12.9903 86.5573 19.1863 84.9053 25.5953H90.6883ZM90.8633 26.9433H84.7793C83.2883 29.5443 82.6813 45.3973 78.5803 42.8563C79.6323 37.6883 87.6633 -9.83868 93.3733 3.07032C100.578 48.6333 89.3313 54.2023 90.8633 26.9433V26.9433Z" fill="#0C0C0C"/>
<path fill-rule="evenodd" clip-rule="evenodd" d="M132.073 1.49139C137.33 0.428394 139.548 18.8294 142.141 22.1244C143.77 15.1664 143.974 8.30339 147.578 1.34939C148.157 1.31839 148.865 1.28139 149.858 1.22839C148.734 8.51639 143.344 51.7274 134.864 41.4824C134.834 40.5954 135.44 39.8814 137.095 39.9694C137.742 36.1344 141.316 30.7834 140.779 26.7554C134.195 20.3614 133.212 10.1404 132.073 1.49139" fill="#0C0C0C"/>
<path fill-rule="evenodd" clip-rule="evenodd" d="M112.955 141.793C117.402 134.979 118.214 124.934 119.6 116.558C118.367 115.335 117.249 114.226 116.132 113.117C111.505 118.226 109.447 135.768 112.955 141.793V141.793ZM120.24 115.791C123.116 122.778 120.273 133.93 117.453 141.108C95.5229 160.309 109.1 91.6367 120.24 115.791" fill="#0C0C0C"/>
<path fill-rule="evenodd" clip-rule="evenodd" d="M128.526 141.006C132.6 134.666 131.562 110.201 136.358 112.686C136.456 160.986 115.572 152.166 125.848 110.652C131.967 106.683 126.478 137.932 128.017 140.943C128.187 140.964 128.357 140.985 128.526 141.006" fill="#0C0C0C"/>
<path fill-rule="evenodd" clip-rule="evenodd" d="M94.6752 144.125C94.3442 138.345 96.3082 133.521 98.1862 127.533C95.7082 122.272 93.4632 116.639 91.7732 110.293C94.6472 109.099 94.5512 110.33 96.4782 113.406C103.416 128.999 99.7682 106.693 107.405 109.744C105.151 120.455 100.435 146.566 94.6752 144.125Z" fill="#0C0C0C"/>
<path fill-rule="evenodd" clip-rule="evenodd" d="M103.634 26.0294C110.758 21.6324 113.141 5.62843 104.487 3.18243C104.207 10.6894 103.931 18.0624 103.634 26.0294ZM103.736 27.7374V42.5764C99.0508 44.3654 101.961 35.0474 101.262 31.9514C101.361 21.6184 101.533 12.7814 101.941 2.10943C118.604 -2.20557 118.061 26.1124 103.736 27.7374" fill="#0C0C0C"/>
<path fill-rule="evenodd" clip-rule="evenodd" d="M121.595 3.0533C120.775 10.0993 120.621 16.7863 120.365 23.7523C126.521 18.7953 127.206 7.6123 121.595 3.0533V3.0533ZM120.399 27.4903C119.292 31.8453 121.2 43.9663 116.938 42.3013C117.305 29.0483 117.68 15.8383 118.876 1.9173C132.891 -3.2557 132.694 24.7933 120.399 27.4903Z" fill="#0C0C0C"/>
<path fill-rule="evenodd" clip-rule="evenodd" d="M144.486 139.388C144.93 136.539 145.353 133.827 145.768 131.165C144.375 129.457 141.526 129.619 140.677 126.867C142.769 126.419 144.633 126.021 146.709 125.577C147.524 117.902 148.768 111.755 153.792 123.366C161.785 122.056 159.137 123.802 155.862 129.738C156.286 131.951 157.383 133.86 158.077 136.586C155.175 137.851 153.971 134.917 151.747 134.47C149.811 136.075 148.589 141.337 144.486 139.388Z" fill="#F9D451"/>
<path fill-rule="evenodd" clip-rule="evenodd" d="M52.7547 126.558C44.9217 129.461 45.7937 132.351 45.2857 139.539C41.7577 140.822 42.1007 135.555 40.6347 132.775C33.7127 136.034 32.6027 135.396 37.3847 127.396C37.7127 125.203 35.3207 123.992 34.6207 121.182C36.7337 120.251 38.4707 121.849 40.6477 121.719C44.3897 115.334 47.4947 112.505 46.8677 123.721C47.5547 125.274 50.0147 124.89 52.5467 125.907C52.6157 126.124 52.6857 126.341 52.7547 126.558" fill="#FED957"/>
<path fill-rule="evenodd" clip-rule="evenodd" d="M60.1063 111.386H54.0603C56.3593 109.944 65.0473 109.449 67.8083 110.578C65.9943 111.007 64.5763 111.343 63.3193 111.64C61.6063 121.639 65.9173 149.095 58.1483 144.532C58.4893 133.647 59.1743 122.707 60.1063 111.386" fill="#0C0C0C"/>
<path fill-rule="evenodd" clip-rule="evenodd" d="M52.8524 46.2931C43.5714 77.1911 34.3734 34.3371 46.1934 48.6151C49.3614 44.2071 49.7454 44.0501 52.8524 46.2931Z" fill="#0C0C0C"/>
<path fill-rule="evenodd" clip-rule="evenodd" d="M178.237 104.693C177.974 105.264 177.711 105.835 177.448 106.406C177.301 106.247 177.154 106.089 177.008 105.93C177.383 105.484 177.758 105.036 178.133 104.589L178.237 104.693Z" fill="#616161"/>
<path fill-rule="evenodd" clip-rule="evenodd" d="M176.871 107.235C176.493 107.68 176.115 108.125 175.738 108.569L175.651 108.483C175.907 107.907 176.163 107.33 176.419 106.756C176.57 106.918 176.721 107.076 176.871 107.235Z" fill="#616161"/>
<path fill-rule="evenodd" clip-rule="evenodd" d="M177.449 106.405C177.257 106.681 177.064 106.958 176.871 107.235C176.721 107.076 176.57 106.918 176.419 106.757C176.615 106.479 176.812 106.205 177.009 105.93C177.155 106.088 177.302 106.246 177.449 106.405Z" fill="#616161"/>
<path fill-rule="evenodd" clip-rule="evenodd" d="M178.134 104.589L178.376 104.297C178.329 104.428 178.281 104.559 178.236 104.691L178.134 104.589Z" fill="#616161"/>
<path fill-rule="evenodd" clip-rule="evenodd" d="M175.738 108.57C175.658 108.674 175.578 108.778 175.499 108.881C175.551 108.749 175.602 108.618 175.653 108.485C175.652 108.484 175.738 108.57 175.738 108.57Z" fill="#616161"/>
</svg>
