<svg width="171" height="44" viewBox="0 0 171 44" fill="none" xmlns="http://www.w3.org/2000/svg">
<path d="M5.57731 28.5029C3.58986 27.5829 5.37347 18.6915 5.25457 10.8572C5.36215 1.76004 5.25457 3.64575 15.5655 7.74861C24.8063 11.3429 23.068 10.8115 17.3944 17.1715C11.4094 22.96 8.12533 28.8743 5.57731 28.5029V28.5029Z" fill="#0EDBC7"/>
<path d="M11.8908 21.3142C7.96682 17.0971 6.30778 10.6342 5.9001 4.7428C5.1357 6.03423 5.57169 6.45708 5.33388 9.06851C5.4358 24.5314 1.10417 36.2799 12.7628 22.2114C12.457 21.9142 12.1512 21.6228 11.8908 21.3142V21.3142Z" fill="#0DB7A2"/>
<path opacity="0.9" d="M13.68 13.0343C16.6471 10.1771 14.4161 15.7828 13.6291 17.1314C13.4139 17.7714 13.261 18.2743 13.1591 18.5657C12.8873 19.0971 12.4513 21.3257 11.0811 20.28C10.8566 20.0593 10.7774 19.7283 10.8772 19.4285C11.0697 18.0743 13.3403 16.04 10.5941 15.4914C9.21818 15.1485 9.59189 19.7543 7.46855 18.6628C7.12315 18.6171 6.95894 17.7314 7.41192 17.0857C8.58967 15.2285 8.87845 11.6 10.9622 10.4171C12.1626 10.56 11.4661 12.4857 10.9112 13.5885C10.8716 13.9143 11.6813 14.3428 12.3211 14.6114C12.9609 14.88 13.4649 13.4685 13.68 13.0343V13.0343Z" fill="white"/>
<path d="M25.582 35.76C23.4982 35.1029 24.1494 26.0457 23.0509 18.3086C22.0827 9.65144 22.0147 10.9829 32.0426 13.6686C42.2346 16.3486 41.1022 15.5714 36.1251 22.6914C30.8988 29.2 28.1356 35.84 25.582 35.76V35.76Z" fill="#F7708E"/>
<path d="M30.916 27.8228C26.4994 24.1428 24.0363 17.9428 22.8925 12.1486C22.3263 13.5257 22.785 13.8628 22.8925 16.5086C24.914 31.8343 22.1112 44.04 31.9125 28.5714C31.5728 28.3486 31.2387 28.0971 30.916 27.8228Z" fill="#EB3E51"/>
<path opacity="0.9" d="M32.7959 21.3372C33.1129 22.4801 30.2082 30.4401 29.7213 25.4743C30.7518 23.6629 31.1085 18.8972 28.4926 22.2058C27.7904 23.5429 28.1981 24.8343 26.9524 25.6343C22.2188 26.1829 32.0881 10.4058 32.7959 21.3372ZM31.3293 19.8686C31.6634 17.7715 27.4224 19.9543 31.2671 19.9886C31.2922 19.9511 31.3131 19.9109 31.3293 19.8686Z" fill="white"/>
<path d="M45.3546 40.2629C43.2143 39.7715 43.0897 31.12 41.2268 23.5257C39.5282 14.7943 39.0752 15.8457 49.2276 17.5657C60.0821 19.3886 58.9893 18.3429 54.3859 26.5772C49.8278 33.5486 47.9196 40.0515 45.3546 40.2629V40.2629Z" fill="#FFDF56"/>
<path d="M49.9014 31.8457C45.1451 28.6114 42.1045 22.7028 40.4058 17.0228C39.9471 18.4571 40.4624 18.7371 40.8248 21.3657C44.3354 36.4171 42.699 48.8457 50.9602 32.5085C50.6035 32.2971 50.2468 32.08 49.9014 31.8457V31.8457Z" fill="#FFC545"/>
<path opacity="0.9" d="M52.0927 26.0571C51.1811 27.7086 49.8731 27.5943 47.3081 27.3828C47.3081 29.5143 47.6195 29.2971 47.5573 31.2343C46.8891 32.6628 45.4962 31.2343 45.7453 29.52C45.6774 28.8857 45.6378 28.2686 45.6264 27.6628C43.9221 21.7714 53.2252 20.8743 52.0927 26.0571V26.0571ZM49.8278 25.2514C49.0011 22.32 44.7884 26.64 49.2616 25.9943C49.2962 25.9731 49.3285 25.9482 49.3579 25.92C49.6252 25.8022 49.806 25.5449 49.8278 25.2514V25.2514Z" fill="white"/>
<path d="M65.1613 42.9143C62.987 42.6001 62.1263 34.0172 59.6689 26.5772C57.2228 18.0058 56.8831 19.1086 67.1431 19.9715C78.1109 20.8686 76.9388 19.9201 73.0318 28.5143C69.0796 35.8458 67.698 42.4858 65.1613 42.9143Z" fill="#0EDBC7"/>
<path d="M68.9944 34.1371C63.9833 31.32 60.4671 25.6628 58.3211 20.1714C57.9813 21.64 58.5193 21.8857 59.0968 24.4628C63.8361 39.1657 63.2303 51.6857 70.1212 34.7142C69.7362 34.5314 69.3625 34.3428 68.9944 34.1371V34.1371Z" fill="#0DB7A2"/>
<path opacity="0.9" d="M71.435 28.04C70.5234 29.6915 69.2154 29.5829 66.6504 29.3715C66.6504 31.5029 66.9618 31.28 66.8995 33.2229C66.2314 34.6457 64.8385 33.2229 65.0876 31.5086C65.0197 30.88 64.98 30.2572 64.9687 29.6515C63.2757 23.7543 72.5958 22.8572 71.435 28.04V28.04ZM69.1701 27.24C68.3434 24.3086 64.1307 28.6286 68.6039 27.9772L68.7001 27.9086C68.9694 27.7911 69.1539 27.5348 69.1814 27.24H69.1701Z" fill="white"/>
<path d="M85.2734 43.7543C83.0764 43.6343 81.4853 35.1828 78.3938 27.96C75.1833 19.7314 74.9964 20.7314 85.715 20.7257C96.3544 20.6057 94.9219 20.0228 91.8756 28.7257C88.5462 36.3714 87.7648 43.1028 85.2734 43.7543V43.7543Z" fill="#F7708E"/>
<path d="M88.3311 34.6743C83.1049 32.3029 79.1073 26.9829 76.4857 21.6971C76.2762 23.1886 76.8311 23.4114 77.6182 25.9029C83.6032 40.1371 84.0788 52.6629 89.4806 35.1486C89.1069 35.0057 88.7218 34.8571 88.3311 34.6743V34.6743Z" fill="#EB3E51"/>
<path opacity="0.9" d="M88.1103 31.8515C87.6944 32.2847 87.1013 32.4963 86.5079 32.4229C86.5205 32.8055 86.5545 33.1871 86.6098 33.5658C86.6495 33.8286 86.7004 34.1372 86.7627 34.5486C86.2928 36.3829 84.7073 34.7886 84.9848 32.4343C82.1536 33.5772 81.5874 23.0343 84.5544 27.3315C84.3506 28.2972 85.0471 33.4115 86.7684 29.8858C86.4456 28.5201 87.0288 24.0686 88.9031 27.3943C88.9937 28.6229 88.8238 30.7086 88.1103 31.8515V31.8515Z" fill="white"/>
<path d="M124.377 41.2114C122.203 41.4114 119.372 32.8 115.414 26.0685C111.048 18.2685 111.931 19.7257 122.831 18.2C132.621 16.6857 130.849 17.0971 129.06 25.4628C126.71 33.4742 126.772 40.2571 124.377 41.2114V41.2114Z" fill="#0EDBC7"/>
<path d="M126.297 31.8228C120.815 30.1085 116.184 25.3542 112.928 20.4399C112.928 21.9485 113.494 22.0742 114.587 24.4399C122.293 37.8057 124.315 50.1542 127.503 32.1142C127.101 32.0514 126.693 31.9428 126.297 31.8228V31.8228Z" fill="#0DB7A2"/>
<path opacity="0.9" d="M126.41 29.1428C119.955 40.3828 114.406 15.8057 125.56 24.8342C125.578 24.8683 125.601 24.8992 125.628 24.9257C126.351 26.203 126.626 27.6884 126.41 29.1428V29.1428ZM121.767 25.2914C120.498 25.4171 120.6 31.1714 123.465 29.7828C125.334 29.0457 124.569 24.8628 121.767 25.2742V25.2914Z" fill="white"/>
<path d="M144.699 37.2914C142.558 37.7143 138.855 29.4457 134.229 23.1657C129.099 15.8628 130.118 17.2171 140.803 14.56C150.384 12.0343 148.662 12.6285 147.745 21.1371C146.228 29.3543 146.986 36.0914 144.699 37.2914Z" fill="#F7708E"/>
<path d="M145.645 27.7486C140.016 26.64 134.926 22.3715 131.183 17.8286C131.313 19.3258 131.902 19.3943 133.244 21.6629C142.304 34.1486 145.565 46.2343 146.879 27.9486C146.466 27.8915 146.052 27.8286 145.645 27.7486Z" fill="#EB3E51"/>
<path opacity="0.9" d="M143.969 20.64C144.32 21.2515 147.366 28.0115 144.087 26.5372C143.363 25.4858 143.521 23.3143 142.225 22.0915C141.341 21.8572 140.396 22.6001 141.092 24.5201C141.222 25.5258 142.225 26.6115 141.483 27.6115C137.785 30.0401 137.474 12.1772 143.969 20.64ZM141.936 20.2629C141.811 19.8172 140.951 19.5086 140.362 20.2629C139.773 21.0172 141.494 21.52 141.953 20.4C141.952 20.3538 141.947 20.3078 141.936 20.2629Z" fill="white"/>
<path d="M164.381 31.1885C162.303 31.8628 157.654 24.1028 152.32 18.4228C146.584 11.9143 147.275 13.0457 156.997 9.38854C166.85 5.62854 165.491 5.67425 165.491 14.3714C164.958 22.7314 166.504 29.76 164.381 31.1885Z" fill="#0EDBC7"/>
<path d="M164.205 21.6C158.543 21.1829 152.915 17.5429 148.679 13.4857C148.985 14.96 149.574 14.96 151.176 17.0457C161.623 28.36 166.306 39.9657 165.457 21.6457C165.021 21.64 164.607 21.6286 164.205 21.6Z" fill="#0DB7A2"/>
<path opacity="0.9" d="M162.32 17.2685C162.075 17.8152 161.595 18.2178 161.017 18.36C161.163 18.7209 161.328 19.0737 161.51 19.4171L161.997 20.2857C162.195 22.1714 160.157 21.2343 159.596 18.9371C157.331 20.9771 153.164 11.32 157.422 14.3028C157.569 15.28 159.993 19.8228 160.383 15.9143C159.608 14.7714 158.611 10.3714 161.516 12.8285C162.025 13.9257 162.592 15.9428 162.32 17.2685V17.2685Z" fill="white"/>
<path d="M104.531 43.3028C102.345 43.3028 100.182 34.5257 96.7565 27.5028C93.0025 19.3828 93.7725 20.9028 104.757 20.2343C114.632 19.4971 112.832 19.76 110.42 27.9657C107.447 35.7714 107.017 42.5371 104.531 43.3028Z" fill="#FFDF56"/>
<path d="M107.158 34.0857C101.824 31.9999 97.5776 26.8571 94.7068 21.7142C94.5709 23.2114 95.1372 23.3885 96.0544 25.8628C102.708 39.7885 103.778 52.2799 108.342 34.5199C107.945 34.3771 107.549 34.2457 107.158 34.0857Z" fill="#FFC545"/>
<path opacity="0.9" d="M106.869 27.7886C106.856 28.0493 106.67 28.2681 106.416 28.32L106.173 28.3771C106.068 28.3853 105.962 28.3656 105.867 28.32L105.55 28.0914C105.391 27.9371 105.125 26.7714 106.371 26.9486C106.5 26.9857 106.616 27.059 106.705 27.16C106.825 27.2561 106.897 27.4 106.903 27.5543C106.908 27.6339 106.897 27.7137 106.869 27.7886V27.7886ZM102.628 27.76C102.866 28.84 100.488 28.6743 101.53 27.2743C101.909 27.2743 101.847 27.1143 102.538 27.4286C102.601 27.527 102.633 27.6428 102.628 27.76Z" fill="white"/>
<path opacity="0.9" d="M100.646 29.4972C101.53 28.6229 103.149 32.7429 106.875 29.16C110.38 30.8115 100.058 33.7715 100.646 29.4972Z" fill="white"/>
<path d="M170.949 3.26286L169.194 4.20571L167.065 5.30857C146.114 15.6743 121.467 20.7371 97.5606 21.8171C65.852 23.0514 31.8275 17.8743 3.80503 2.61714C3.27278 2.07429 -1.05884 0.36 0.243478 0C0.724769 0.285714 2.68957 1.40571 4.05984 2.13143C53.1799 27.4286 122.576 25.4229 166.821 4.80571L168.973 3.77143C170.071 3.36 171.193 2.23429 170.949 3.26286V3.26286Z" fill="#8A41B6"/>
</svg>
