<svg width="159" height="165" viewBox="0 0 159 165" fill="none" xmlns="http://www.w3.org/2000/svg">
<path fill-rule="evenodd" clip-rule="evenodd" d="M148.598 112.236C146.693 148.565 96.2779 146.61 95.2549 112.236C97.1599 75.9067 147.575 77.8617 148.598 112.236Z" fill="#FCE8F1"/>
<path fill-rule="evenodd" clip-rule="evenodd" d="M110.814 151.608C110.417 160.522 97.7835 160.096 97.4775 151.608C97.8735 142.693 110.509 143.119 110.814 151.608Z" fill="#EBF4FB"/>
<path fill-rule="evenodd" clip-rule="evenodd" d="M62.8678 128.429C61.1578 158.515 19.8108 156.408 19.0508 128.429C20.7608 98.343 62.1088 100.45 62.8678 128.429Z" fill="#EBF4FB"/>
<path fill-rule="evenodd" clip-rule="evenodd" d="M77.474 87.4691C76.344 106.356 50.574 104.672 50.168 87.4691C51.298 68.5821 77.067 70.2661 77.474 87.4691Z" fill="#FCE8F1"/>
<path fill-rule="evenodd" clip-rule="evenodd" d="M53.978 54.4476C51.963 91.3216 1.022 89.1496 0 54.4476C2.015 17.5736 52.955 19.7456 53.978 54.4476Z" fill="#EBF4FB"/>
<path fill-rule="evenodd" clip-rule="evenodd" d="M158.44 66.8304C157.332 84.8834 132.783 83.1824 132.404 66.8304C133.513 48.7774 158.062 50.4784 158.44 66.8304Z" fill="#EBF4FB"/>
<path fill-rule="evenodd" clip-rule="evenodd" d="M142.883 31.5863C140.66 74.7083 80.6749 72.6803 79.3789 31.5863C81.6019 -11.5367 141.587 -9.50867 142.883 31.5863Z" fill="#FCE8F1"/>
<path fill-rule="evenodd" clip-rule="evenodd" d="M71.1239 16.3451C69.9729 36.0651 42.9819 34.4001 42.5469 16.3451C43.6979 -3.37489 70.6899 -1.70989 71.1239 16.3451Z" fill="#EBF4FB"/>
<path fill-rule="evenodd" clip-rule="evenodd" d="M110.915 98.7284C109.004 98.6364 107.115 98.3034 105.256 97.7064C102.685 100.392 104.816 103.169 109.063 103.332C111.032 103.446 111.432 101.814 110.915 98.7284Z" fill="#74C9F1"/>
<path fill-rule="evenodd" clip-rule="evenodd" d="M109.063 103.333C105.519 102.951 102.255 101.358 105.257 97.7068C104.947 97.6068 104.64 97.4868 104.331 97.3728C101.345 100.49 104.594 104.393 109.063 104.286C111.473 104.48 112.603 102.063 111.887 98.7668C111.562 98.7658 111.239 98.7448 110.915 98.7288C111.023 100.987 111.853 103.382 109.063 103.333V103.333Z" fill="#478099"/>
<path fill-rule="evenodd" clip-rule="evenodd" d="M89.5806 80.7007C107.785 119.099 144.985 85.4687 147.379 57.2897C148.753 36.0177 125.994 23.6657 107.779 31.4517C109.614 45.2017 105.492 62.4967 97.3926 73.1917C95.0396 76.2987 92.4146 78.8037 89.5806 80.7007V80.7007Z" fill="#74C9F1"/>
<path fill-rule="evenodd" clip-rule="evenodd" d="M107.62 30.4876C107.67 30.8106 107.736 31.1246 107.779 31.4516C119 26.6696 134.789 29.1886 142.335 40.3366C164.007 70.2176 108.89 125.912 89.5796 80.7006C89.3096 80.8816 89.0406 81.0646 88.7676 81.2336C116.435 137.204 181.936 43.7636 126.35 28.7806C120.782 27.6206 113.515 28.1706 107.62 30.4876V30.4876Z" fill="#478099"/>
<path fill-rule="evenodd" clip-rule="evenodd" d="M62.0563 93.666C60.5623 94.842 58.9193 95.815 57.1343 96.583C57.3983 97.669 57.2633 100.084 59.4553 100.056C63.4753 99.276 67.0363 97.292 62.0563 93.666Z" fill="#FFD05E"/>
<path fill-rule="evenodd" clip-rule="evenodd" d="M57.1339 96.5833C56.8289 96.7153 56.5249 96.8483 56.2109 96.9673C56.0099 105.092 71.4709 98.7653 62.8129 93.0513C62.5669 93.2643 62.3119 93.4663 62.0559 93.6663C68.7249 96.8243 57.6669 104.645 57.1339 96.5833Z" fill="#C27E35"/>
<path fill-rule="evenodd" clip-rule="evenodd" d="M68.2472 83.9323C46.0632 76.9623 36.6102 46.3833 43.5842 28.3683C39.0932 27.8573 32.4112 29.0793 28.2752 31.5833C-18.6368 62.9703 47.0362 125.376 68.2472 83.9323Z" fill="#FFD05E"/>
<path fill-rule="evenodd" clip-rule="evenodd" d="M13.4253 69.817C6.29729 50.562 22.1643 26.515 43.5843 28.369C43.7053 28.059 43.8273 27.749 43.9573 27.444C30.3733 25.712 17.1293 36.13 12.8183 48.887C-0.120709 79.933 50.2383 120.911 69.1913 84.156C68.8773 84.081 68.5623 84.017 68.2473 83.932C53.6953 112.226 20.3263 91.663 13.4253 69.817V69.817Z" fill="#C27E35"/>
<path fill-rule="evenodd" clip-rule="evenodd" d="M82.7073 83.9568C80.6523 84.5658 78.5232 84.8988 76.3352 84.9488C75.8982 86.2868 75.7113 87.6318 76.0333 88.4868C78.5733 91.5188 87.3633 90.2028 82.7073 83.9568Z" fill="#F17596"/>
<path fill-rule="evenodd" clip-rule="evenodd" d="M76.3353 84.9484C76.1623 84.9384 76.1363 84.9864 75.3363 84.9504C71.9463 93.9714 90.0703 92.3874 83.6433 83.6604C83.3333 83.7664 83.0203 83.8624 82.7073 83.9564C88.5423 91.1384 73.1623 92.8144 76.3353 84.9484Z" fill="#9C445C"/>
<path fill-rule="evenodd" clip-rule="evenodd" d="M83.9559 6.30105C27.4789 -0.0669537 32.9119 81.7011 75.7649 84.0141C110.747 82.3161 120.962 13.209 83.9559 6.30105V6.30105Z" fill="#F17596"/>
<path fill-rule="evenodd" clip-rule="evenodd" d="M43.3901 31.9132C48.9111 11.3952 74.1821 -1.86078 93.2381 10.1792C122.477 26.4682 102.666 93.4822 68.4591 83.0042C48.1961 76.3112 38.9521 50.4642 43.3901 31.9132ZM106.66 25.9242C97.9781 0.228224 66.6801 -1.23178 50.6811 17.0122C26.1441 40.7562 53.7481 101.41 89.5801 80.7002C105.252 69.4722 111.2 44.7112 106.66 25.9242V25.9242Z" fill="#9C445C"/>
<path fill-rule="evenodd" clip-rule="evenodd" d="M69.9743 109.822C70.2873 109.923 70.9753 109.973 72.0753 109.962C72.8663 108.558 70.4193 101.73 72.7083 100.791C72.7723 100.813 72.8293 100.851 73.1703 101C73.2773 102.883 74.1363 131.009 72.0183 115.11C72.0113 115.032 72.0443 113.025 72.0523 112.132L72.0863 111.312L71.9513 111.047V111.019C71.8233 111.057 71.6833 111.074 71.5333 111.074L70.0433 110.811V114.08L70.1773 118.77C68.3203 122.787 68.7593 111.594 68.7443 110.101V109.962C68.8033 108.969 68.8343 108.412 68.8343 108.292L68.6753 101.862C68.6733 100.989 70.1113 100.444 70.0653 102.712L69.9743 109.822Z" fill="#478099"/>
<path fill-rule="evenodd" clip-rule="evenodd" d="M78.3091 104.089C77.6081 108.868 77.1571 112.235 76.9541 114.192C77.2171 114.406 77.8981 114.559 78.9981 114.652C78.9311 112.234 78.6521 107.59 78.3091 104.089V104.089ZM80.4541 115.835C80.1861 116.513 81.5281 118.56 80.5111 120.134C79.0251 120.105 79.6281 118.19 79.1441 115.668L76.8631 115.25C76.5321 115.555 76.7011 122.072 74.8311 119.257C76.2211 113.508 76.7961 106.723 77.6991 100.764C80.4891 99.8417 79.6241 112.224 80.2061 114.081L80.4541 115.835Z" fill="#478099"/>
<path fill-rule="evenodd" clip-rule="evenodd" d="M83.4698 104.354C83.4688 104.32 83.5158 109.929 83.5148 109.948C84.2308 110.391 86.3658 103.698 83.7178 102.782C83.7178 102.753 83.6348 102.74 83.4698 102.74V104.354ZM82.1708 102.197C85.2798 97.4668 88.9948 109.368 83.5038 111.13V114.178L83.6848 119.578C83.5808 119.692 83.8258 120.13 82.9058 120.413L82.4188 120.064C82.2318 119.016 82.1368 117.621 82.1368 115.875L82.2278 110.796C82.1508 110.538 82.1998 110.812 82.0918 110.003C82.2418 109.632 82.3178 108.816 82.3178 107.554C82.3228 105.762 82.4488 104.056 82.1708 102.197V102.197Z" fill="#478099"/>
<path fill-rule="evenodd" clip-rule="evenodd" d="M88.9239 104.354C88.9229 104.32 88.9699 109.929 88.9689 109.948C89.6849 110.391 91.8199 103.698 89.1719 102.782C89.1719 102.753 89.0889 102.74 88.9239 102.74V104.354ZM87.6249 102.197C90.7339 97.4668 94.4489 109.368 88.9579 111.13V114.178L89.1389 119.578C89.0349 119.692 89.2799 120.13 88.3599 120.413L87.8729 120.064C87.6859 119.016 87.5909 117.621 87.5909 115.875L87.6819 110.796C87.6049 110.538 87.6539 110.812 87.5459 110.003C87.6959 109.632 87.7719 108.816 87.7719 107.554C87.7769 105.762 87.9029 104.056 87.6249 102.197V102.197Z" fill="#478099"/>
<path fill-rule="evenodd" clip-rule="evenodd" d="M94.7054 119.633C95.0614 118.302 95.0134 113.926 94.6944 110.63V109.892C94.3094 108.637 92.1634 102.239 92.4354 101.793L92.9554 101.321C93.2574 100.627 94.9004 106.101 95.0784 107.665C99.1124 88.8889 95.4424 114.805 96.1054 118.353C96.0334 119.222 95.7864 121.315 94.7054 119.633Z" fill="#478099"/>
<path fill-rule="evenodd" clip-rule="evenodd" d="M48.9246 135.643C51.4486 136.253 51.3386 124.003 49.3526 124.096C49.0676 124.859 48.9246 126.471 48.9246 128.935V135.643ZM48.6926 148.333L48.7286 148.553V150.577C51.8686 149.602 52.3586 140.877 48.9786 138.282C48.8706 140.217 48.8176 142.491 48.8176 145.1L48.6926 148.333ZM47.1396 126.625L46.9436 124.293C49.8336 115.685 55.8446 132.309 51.4586 136.918C54.3336 139.408 54.0306 155.906 46.7816 152.029C46.6876 151.603 46.6336 151.09 46.6216 150.489L46.9796 140.899L47.1396 126.625Z" fill="#F17596"/>
<path fill-rule="evenodd" clip-rule="evenodd" d="M59.3298 137.447L59.5088 147.014C59.5098 147.595 59.5107 148.577 59.4907 149.609H59.9727L61.0257 149.565C65.1847 150.739 60.0587 152.885 57.5807 151.985C56.5447 152.298 54.8688 151.108 56.4748 149.829H57.5098L57.5807 149.235L57.3307 139.668L57.5267 129.638C57.5267 127.924 57.4677 126.31 57.3487 124.8H56.6527L55.8137 124.843C49.9467 121.154 69.8758 122.671 59.3838 124.668C59.4778 125.9 59.5257 127.293 59.5257 128.846L59.3298 137.447Z" fill="#F17596"/>
<path fill-rule="evenodd" clip-rule="evenodd" d="M66.112 124.712C66.099 126.448 66.254 132.725 66.255 135.115C67.832 133.047 69.983 125.928 66.237 124.074L66.112 124.712ZM66.094 137.337C66.009 141.423 66.016 148.271 66.755 151.611L66.344 152.82H65.327L64.845 152.161C65.347 145.483 63.646 130.56 64.558 122.936C70.796 119.842 71.303 131.537 68.111 136.237C74.394 164.448 68.484 152.064 66.541 137.337H66.094Z" fill="#F17596"/>
<path fill-rule="evenodd" clip-rule="evenodd" d="M75.3408 151.699L75.2698 148.246C75.2698 148.231 75.2868 147.718 75.3228 146.706C75.1278 146.369 74.2258 125.118 74.2708 124.822H74.1268C72.1638 124.971 69.6308 123.424 72.3238 122.512L77.2858 122.93L77.8758 122.909C78.5798 122.82 80.1218 124.527 77.8038 125.218L76.1258 124.91L76.0548 125.372C74.9908 130.766 79.5488 148.198 76.0198 152.293L75.3408 151.699Z" fill="#F17596"/>
<path fill-rule="evenodd" clip-rule="evenodd" d="M82.8199 136.544C83.1159 136.696 84.8749 136.794 86.1399 136.764C87.2969 135.38 83.2709 119.922 87.8709 122.6C87.4249 126.623 89.2229 149.157 88.1849 152.061C85.8739 153.299 86.0899 148.038 86.0509 144.902C86.0409 144.315 86.0999 141.181 86.1049 140.196L86.1569 138.898L85.9429 138.48V138.436C85.7409 138.494 85.5219 138.524 85.2829 138.524L82.9269 138.106V143.275L83.1419 150.687C80.1819 157.326 80.9089 138.671 80.8739 136.985V136.764C80.9699 135.196 81.0179 134.316 81.0179 134.125L80.7679 123.964C80.7379 122.503 83.1599 121.871 82.9629 125.305L82.8199 136.544Z" fill="#F17596"/>
<path fill-rule="evenodd" clip-rule="evenodd" d="M93.6004 150.401C100.045 149.71 97.9234 123.606 93.3144 124.756C92.5764 130.196 93.6814 143.319 93.6004 149.323V150.401ZM91.1364 123.117C95.7304 121.016 99.6994 129.587 99.4904 134.653L99.4184 136.919C99.2784 143.136 100.227 148.681 94.6184 152.688C90.7444 152.915 91.3504 152.873 91.0474 146.794C91.5704 140.496 90.4034 129.328 91.1364 123.117Z" fill="#F17596"/>
<path fill-rule="evenodd" clip-rule="evenodd" d="M106.88 127.483C105.774 135.034 105.06 140.357 104.739 143.45C105.155 143.788 106.232 144.03 107.969 144.176C107.864 139.936 107.356 132.36 106.88 127.483V127.483ZM110.272 146.046C109.99 147.183 111.889 151.32 110.361 152.842C107.73 152.879 109.056 148.962 108.2 145.781L104.595 145.122C104.056 145.919 104.204 156.163 101.383 151.456C103.67 142.031 104.478 131.539 105.916 122.226C110.195 120.065 109.105 141.633 109.878 143.275L110.272 146.046Z" fill="#F17596"/>
<path fill-rule="evenodd" clip-rule="evenodd" d="M115.303 152.05C115.909 150.411 115.724 141.936 115.286 137.82V136.655C114.535 134.362 111.265 124.256 111.715 123.854L112.537 123.106C113.268 122.05 115.553 130.931 115.892 133.135C116.357 131.22 117.761 118.575 119.64 123.415C119.638 124.299 119.452 126.099 118.915 128.565C116.848 135.161 117.64 144.262 117.516 150.027C117.53 151.946 116.677 154.534 115.303 152.05V152.05Z" fill="#F17596"/>
<path fill-rule="evenodd" clip-rule="evenodd" d="M57.2237 12.4481C19.6277 38.5231 60.5057 109.082 94.6877 74.9671C63.7277 75.1751 48.1887 38.7151 57.2237 12.4481V12.4481Z" fill="#EF5372"/>
<path fill-rule="evenodd" clip-rule="evenodd" d="M105.923 54.9119C103.148 65.0569 98.1361 74.8309 89.5801 80.7009C98.2351 102.602 120.628 102.048 133.921 86.2269C114.849 92.4959 105.631 70.3419 105.923 54.9119V54.9119Z" fill="#60B1DC"/>
<path fill-rule="evenodd" clip-rule="evenodd" d="M107.778 31.4517C108.237 34.8887 108.323 38.5487 108.068 42.2697C109.954 37.1707 113.117 32.5327 117.406 29.2367C114.076 29.5027 110.829 30.2567 107.778 31.4517Z" fill="#60B1DC"/>
<path fill-rule="evenodd" clip-rule="evenodd" d="M49.6279 69.1509C50.1899 80.7079 41.2909 89.7179 29.9819 91.5379C43.1269 101.376 61.6229 99.3209 68.2469 83.9319C66.8759 83.5669 64.7429 82.7929 62.7109 81.6829C57.2909 78.6629 52.9509 74.2369 49.6279 69.1509V69.1509Z" fill="#FBB144"/>
<path fill-rule="evenodd" clip-rule="evenodd" d="M41.3034 43.1417C41.0864 38.2347 41.6274 33.2897 43.5844 28.3687C38.3634 27.9447 31.8004 29.0697 27.1064 32.3177C32.4814 34.6797 37.3744 38.1027 41.3034 43.1417Z" fill="#FBB144"/>
<path fill-rule="evenodd" clip-rule="evenodd" d="M20.8407 61.9432C23.6817 59.5032 21.5447 55.3432 22.9297 51.4492C23.6567 48.7512 25.5537 40.7332 20.9397 43.7592C18.6977 47.9782 13.4357 62.8232 20.8407 61.9432V61.9432Z" fill="#FFEA8B"/>
<path fill-rule="evenodd" clip-rule="evenodd" d="M23.6545 71.1561C24.4785 71.0481 25.9345 70.4291 25.3645 68.0521C23.3225 62.6091 16.8465 68.6231 23.6545 71.1561Z" fill="#FFEA8B"/>
<path fill-rule="evenodd" clip-rule="evenodd" d="M87.3003 15.6031C89.7513 19.6181 93.1533 23.7001 93.9943 29.2501C98.9893 41.4651 101.925 26.0711 96.9943 21.5121C96.0503 18.7061 87.3803 8.44409 87.3003 15.6031V15.6031Z" fill="#F5A4BE"/>
<path fill-rule="evenodd" clip-rule="evenodd" d="M100.791 41.5444C100.812 41.3894 100.833 41.2324 100.854 41.0764C100.778 40.5744 100.764 40.4524 100.811 40.7094C97.8664 30.3314 94.9764 47.5494 100.791 41.5444Z" fill="#F5A4BE"/>
<path fill-rule="evenodd" clip-rule="evenodd" d="M133.92 44.424C137.272 49.852 135.029 55.984 138.209 61.374C144.456 64.117 143.464 52.274 141.816 48.895C141.372 44.745 132.041 33.751 133.92 44.424V44.424Z" fill="#C4E8FA"/>
<path fill-rule="evenodd" clip-rule="evenodd" d="M135.146 71.8329C137.139 75.1289 139.791 70.5139 139.243 68.1009C137.901 64.4349 134.446 68.4479 135.146 71.8329Z" fill="#C4E8FA"/>
<path fill-rule="evenodd" clip-rule="evenodd" d="M117.467 19.084C118.019 17.246 115.605 13.029 115.125 18.776C113.369 17.997 108.837 19.941 114.803 20.832C113.595 24.565 117.533 28.987 117.445 21.607C118.248 22.194 123.095 22.976 121.089 20.096C120.132 19.364 118.71 19.242 117.467 19.084Z" fill="#FFD05E"/>
<path fill-rule="evenodd" clip-rule="evenodd" d="M109.148 10.7618C109.634 9.84776 107.933 7.66376 107.45 10.4198C106.01 9.51876 101.951 11.0438 106.881 12.2618C106.017 13.6108 108.492 16.9958 108.889 12.8868C109.39 12.9988 111.842 12.9528 110.75 11.1938C110.281 10.9348 109.714 10.8438 109.148 10.7618Z" fill="#FFD05E"/>
<path fill-rule="evenodd" clip-rule="evenodd" d="M53.071 105.365C53.505 103.396 50.429 102.737 50.753 105.493C48.95 104.995 44.313 107.404 50.692 107.545C49.71 111.838 53.637 115.201 53.14 107.702C53.82 107.836 57.822 107.848 56.203 105.701C55.208 105.13 54.174 105.292 53.071 105.365V105.365Z" fill="#FFD05E"/>
<path fill-rule="evenodd" clip-rule="evenodd" d="M41.8089 101.23C41.6969 100.193 39.9189 99.8966 39.9489 101.473C38.3039 101.215 37.8749 104.046 40.1859 103.739C39.8729 105.009 42.2729 105.913 42.2069 103.412C42.8319 103.415 45.2799 102.249 43.3409 101.238C42.8329 101.185 42.3209 101.196 41.8089 101.23V101.23Z" fill="#FFD05E"/>
<path fill-rule="evenodd" clip-rule="evenodd" d="M29.6673 136.636C31.7923 137.028 41.3643 138.175 36.8203 133.728C35.1193 132.391 23.0593 132.404 29.6673 136.636Z" fill="#74C9F1"/>
<path fill-rule="evenodd" clip-rule="evenodd" d="M36.0404 130.284C36.8034 129.814 37.5244 129.258 36.3594 127.971C33.8524 123.891 28.2964 127.371 36.0404 130.284Z" fill="#74C9F1"/>
<path fill-rule="evenodd" clip-rule="evenodd" d="M32.9611 142.349C32.0151 147.591 41.9351 140.408 36.6251 139.485C35.6051 139.814 34.0491 140.672 32.9611 142.349Z" fill="#74C9F1"/>
<path fill-rule="evenodd" clip-rule="evenodd" d="M125.494 137.185C127.359 137.405 138.144 140.099 135.201 135.114C133.622 134.11 120.892 132.714 125.494 137.185Z" fill="#74C9F1"/>
<path fill-rule="evenodd" clip-rule="evenodd" d="M128.218 142.326C129.164 140.689 126.658 139.705 124.943 139.769C123.12 140.312 126.317 143.498 128.218 142.326Z" fill="#74C9F1"/>
<path fill-rule="evenodd" clip-rule="evenodd" d="M128.123 131.337C128.119 131.339 128.404 131.217 128.463 131.19C129.295 130.689 131.215 130.513 131.213 128.331C129.567 124.307 120.948 131.423 128.123 131.337Z" fill="#74C9F1"/>
<path fill-rule="evenodd" clip-rule="evenodd" d="M153.592 25.5535C154.425 29.0385 150.733 32.0165 147.193 30.6615C146.676 28.1665 150.252 22.5625 153.592 25.5535ZM145.922 30.1845C140.517 28.0155 139.157 23.1255 135.362 18.4715C133.811 16.7705 126.573 17.0805 127.59 18.9625C137.83 15.1245 136.976 28.9135 146.024 31.4895C146.124 34.3125 151.586 43.8435 152.864 41.4495C151.049 39.6175 148.064 35.5095 147.339 31.9075C149.945 32.5705 152.545 32.0575 154.237 29.1345C157.842 20.2785 145.302 22.9915 145.922 30.1845V30.1845Z" fill="#F17596"/>
<path fill-rule="evenodd" clip-rule="evenodd" d="M14.9883 27.2725C15.5923 27.0985 16.2263 27.0475 16.8733 27.1605C23.3163 30.4215 14.4163 34.0105 14.9883 27.2725V27.2725ZM30.4633 16.9095C23.4223 16.8195 15.4803 18.7315 13.7233 26.5455C10.1153 27.9175 3.32429 39.8385 6.25029 40.8985C6.90829 36.5955 9.74729 30.5955 13.6273 27.9185C16.1613 39.1085 26.7763 26.3815 15.1533 26.0945C20.6383 10.2025 47.4583 27.1045 45.5543 9.3595C43.1643 19.0805 38.5243 18.3045 30.4633 16.9095Z" fill="#F17596"/>
<path fill-rule="evenodd" clip-rule="evenodd" d="M10.6703 101.48C11.0383 97.1631 20.4412 98.2641 16.9082 102.932C15.1902 103.843 12.8863 103.359 10.6703 101.48V101.48ZM9.65825 100.477C3.35325 94.7171 4.99925 84.1371 3.96325 76.6271C2.53425 84.3291 3.01525 95.2451 9.30025 101.652C9.25825 109.776 12.2243 117.691 4.18325 122.561C12.9703 122.113 11.5283 109.72 10.4763 102.752C12.4473 105.162 19.6133 105.563 19.1473 100.762C18.0463 96.6211 11.3693 96.0361 9.65825 100.477V100.477Z" fill="#F17596"/>
<path fill-rule="evenodd" clip-rule="evenodd" d="M135.037 107.3C133.822 106.253 132.971 102.481 135.959 102.277C138.564 102.259 136.231 105.749 135.037 107.3ZM151.282 99.1317C150.152 104.982 141.726 109.97 136.078 108.073C143.93 98.3677 127.301 99.5307 134.177 108.286C129.52 113.495 121.062 112.59 115.121 111.499C120.394 115.023 130.499 113.502 135.145 109.06C146.534 113.056 157.48 99.3737 150.743 88.8237C148.622 89.4107 152.552 96.1027 151.282 99.1317V99.1317Z" fill="#F17596"/>
<path fill-rule="evenodd" clip-rule="evenodd" d="M128.903 157.945C129.658 158.401 130.372 158.981 130.845 159.727C130.254 161.035 128.08 160.576 128.903 157.945ZM128.359 156.173C119.639 153.101 118.492 164.051 108.006 160.643C115.732 167.748 122.324 153.762 127.877 157.392C125.716 165.086 137.206 161.078 129.263 156.678C133.351 146.132 140.447 145.94 146.593 150.552C145.764 145.835 136.407 145.79 133.421 148.367C131.417 150.246 129.797 153.088 128.359 156.173Z" fill="#F17596"/>
<path fill-rule="evenodd" clip-rule="evenodd" d="M36.8046 157.526C36.5766 157.102 36.4196 156.645 36.3986 156.152C39.5626 150.748 41.4866 156.499 36.8046 157.526ZM37.4876 158.481C46.6596 153.325 34.4156 148.761 35.4256 157.702C22.1466 157.2 25.2096 144.999 18.6406 142.562C24.0496 149.229 24.9836 159.024 35.9406 158.759C36.9196 160.616 45.8026 166.866 44.8836 163.842C42.8686 162.584 39.6086 160.705 37.4876 158.481V158.481Z" fill="#F17596"/>
</svg>
