<svg width="200" height="60" viewBox="0 0 200 60" fill="none" xmlns="http://www.w3.org/2000/svg">
<g clip-path="url(#clip0_1_6897)">
<path d="M89.4144 28.5724C88.2697 28.8422 88.5263 30.3487 86.8815 31.5724C86.5131 28.8487 87.2828 26.1908 85.3749 25.7303C84.0263 26.4343 84.3552 30.5001 82.421 31.6514C80.3092 30.9935 83.1315 26.3158 80.9144 25.4014C79.921 25.8093 79.9736 27.5461 79.9013 29.204L79.8289 29.3224C79.4466 29.931 78.8581 30.3816 78.171 30.5922C78.6973 25.7566 73.671 23.579 72.2499 29.9343C72.1973 29.5066 72.1578 29.0987 72.1184 28.7237C72.2039 27.7369 71.7302 25.8751 70.5328 27.2566C70.3885 28.3945 70.4151 29.5476 70.6118 30.6777C70.3114 31.4057 69.7374 31.9868 69.0131 32.2961C69.0855 27.5395 63.8421 25.7172 63.0394 32.2961L62.7828 31.1119C62.4868 30.2369 62.8289 29.2435 61.5394 29.2632C61.2826 29.3376 61.0909 29.5523 61.046 29.8158C61.0281 30.9273 61.1721 32.0354 61.4736 33.1053C61.2171 33.7172 61.9342 35.5329 60.5131 36.3027C59.1315 36.0198 59.0065 32.9737 58.4802 31.2632C58.1513 30.6053 57.3355 30.1711 56.8749 31.3224C54.4539 30.7435 52.2697 33.6185 53.0789 36.4145C53.0822 36.6042 53.0998 36.7933 53.1315 36.9803C53.1315 37.7303 53.5263 38.8356 52.5986 39.5066C51.6381 39.1908 50.9013 37.3751 50.1249 35.6448C50.9605 35.1843 51.1381 33.9145 49.4671 34.1251C49.1644 33.3794 48.8289 32.5176 48.4605 31.5395C46.1578 27.2435 46.6052 33.0264 47.9736 34.7961L43.5197 37.0987C42.4605 34.6645 41.8486 33.3158 41.7105 33.0001C38.8881 30.8816 41.5657 37.0132 41.9934 37.829C40.5855 38.6316 40.5657 40.8356 42.7631 39.5198C43.1447 40.4606 45.3092 46.2501 45.9013 42.4277C45.3026 41.0593 44.9999 40.3553 44.2631 38.6777C44.6447 38.4606 45.7434 37.8882 48.5723 36.4869C49.8881 38.9737 50.2434 41.4408 53.0921 41.0922H53.2368C54.0477 40.6946 54.5899 39.9001 54.6644 39.0001C55.4032 39.4463 56.3139 39.5018 57.1015 39.1487C57.889 38.7956 58.4534 38.0788 58.6118 37.2303C58.8548 37.4829 59.1425 37.6881 59.4605 37.8356C60.5921 38.2194 61.8403 37.7925 62.4999 36.7961C63.0437 38.5321 63.7692 40.2059 64.6644 41.7895C64.8153 41.9594 65.0365 42.0493 65.2631 42.0329C67.2894 41.4606 62.0394 31.8093 66.0065 29.6448C66.6644 29.7435 67.3223 30.9606 67.3749 32.5987C66.1315 33.0658 65.2565 33.079 64.7434 34.4935C64.3092 36.6908 67.7697 37.6908 68.921 34.2237C69.6842 33.9893 70.3885 33.5945 70.9868 33.0658C71.343 35.2968 71.9658 37.4769 72.842 39.5593C72.9792 39.7582 73.2057 39.8764 73.4473 39.8751C75.3355 39.3093 72.7368 34.6514 73.4934 32.2237C73.4934 29.079 76.3092 24.5658 76.5328 30.7106C75.2171 31.0461 74.3749 30.9672 73.6973 32.3158C73.0394 34.5856 76.5263 35.6711 77.8815 32.4935C78.7452 32.349 79.5554 31.9791 80.2302 31.4211C81.0789 34.0527 84.4736 33.8027 85.217 30.3158C85.2537 31.0193 85.2537 31.7242 85.217 32.4277C83.3289 33.4606 80.3947 36.579 83.8092 37.6908C85.6842 37.6908 86.4999 36.1777 86.8684 33.5593C87.8618 33.1316 91.7171 29.7698 89.4144 28.5724V28.5724ZM57.1249 36.7106C56.9628 37.1448 56.6531 37.5081 56.2499 37.7369C53.9934 38.1777 54.0131 30.8948 57.0263 33.3093C57.188 33.841 57.296 34.3876 57.3486 34.9408C57.4076 35.5401 57.3311 36.1449 57.1249 36.7106ZM66.4934 34.8685V35.079C66.4144 34.8027 66.1907 34.9014 66.9802 34.4211C66.7499 34.75 66.5921 34.8685 66.4934 34.8685ZM75.3947 32.8948C75.3092 32.8948 75.2828 32.8948 75.2763 32.8948C75.2697 32.8948 75.2763 32.7237 75.9342 32.5264C75.6578 32.7895 75.4999 32.8948 75.3947 32.8948ZM84.046 36.0132L83.9013 35.9737C83.9524 35.6916 84.0696 35.4255 84.2434 35.1974C84.4275 34.9212 84.6645 34.6842 84.9407 34.5001C84.7368 35.4277 84.4342 35.9474 84.046 36.0132Z" fill="black"/>
<path d="M108.053 26.9342C110.25 27.4078 108.75 23.1118 107.309 25.8486C107.408 26.0065 107.066 26.421 108.053 26.9342Z" fill="black"/>
<path d="M158.941 18.7763C158.013 15.2566 157.244 18.329 156.888 21.1908C156.048 19.6195 155.028 18.1513 153.849 16.8158C151.138 15.7632 153.941 20.8092 153.191 23.2368C152.645 24.3816 150.744 21.5 150.171 19.5197C148.947 16.8882 147.638 19.7895 149.592 22.375C150.25 27.4605 147.658 25.9211 146.395 20.8882C146.132 20.3421 145.125 19.8947 144.816 21.1382C142.73 20.9145 140.586 23.4474 141.48 26.1513C141.415 26.2378 141.375 26.34 141.362 26.4474C141.407 27.2099 141.407 27.9743 141.362 28.7368C141.333 29.081 141.103 29.3755 140.776 29.4868C140.45 29.4793 140.141 29.3392 139.921 29.0987C139.344 28.5689 138.859 27.9463 138.487 27.2566C139.684 25.0263 138.947 13.9737 134.428 19.0921C133.888 20.75 134.369 23.125 135.461 25.4276C135.112 25.4439 134.769 25.5126 134.441 25.6316C133.027 26.4109 132.295 28.0289 132.645 29.6053C132.132 30.2237 132.908 31.9803 131.638 32.704C130.934 32.5987 130.809 31.2303 130.507 29.829C130.204 28.4276 129.322 27.079 128.086 27.4013C127.221 27.6789 126.532 28.3388 126.217 29.1908C126.461 26.454 127.48 21.6119 123.711 21.454C122.224 21.9276 121.665 24.0855 122.059 26.1053C122.026 26.1053 121.02 26.1711 120.388 26.25C120.244 25.454 121.046 23.75 119.526 23.6645C119.187 23.7175 118.922 23.9834 118.869 24.3224C118.723 25.0259 118.648 25.7421 118.645 26.4605C117.52 26.2434 115.684 27.9737 118.217 28.1842L118.612 28.1382C118.612 29.5724 118.651 30.9276 118.744 32.1711C118.349 32.4342 118.309 33.4869 117.52 34.579C113.816 36.2895 120.105 26.9737 113.934 28.2895C113.934 27.5395 113.744 26.204 112.132 26.1184C110.369 25.8684 108.658 29.2961 111.79 30.0658C111.668 30.5556 111.514 31.037 111.329 31.5066L111.296 31.5658C111.007 31.5658 110.934 31.6184 110.513 32.1316C105.066 40.6119 110.665 23.6316 106.816 28.7237C106.541 29.6719 106.339 30.6396 106.211 31.6184C106.008 31.7442 105.785 31.8354 105.553 31.8882C105.269 31.9592 104.975 31.977 104.684 31.9408C104.763 30.1974 104.388 28.8684 102.467 27.7895C106.658 25.1579 103.395 19.7632 97.9475 22C96.7567 22.2105 96.283 24.3553 98.3488 23.6316C97.7901 26.8966 97.4254 30.1918 97.2567 33.5C97.1514 33.9145 98.3093 35.1842 98.8883 33.5395C98.8744 34.346 99.4541 35.0406 100.25 35.1711C101.316 35.5263 102.796 35.0197 104.072 33.5592C104.767 33.6404 105.471 33.5868 106.145 33.4013C106.145 34.2369 106.717 35.7763 108.184 36.0329C109.165 36.2763 110.428 35.6842 111.349 34.0263C112.211 33.6908 113.026 31.9803 113.487 30.079H114.651H114.895C114.895 32.579 113.507 35.8684 116.428 36.6579C117.656 36.6988 118.783 35.9835 119.27 34.8553C119.651 35.7188 120.532 36.2505 121.474 36.1842C122.599 36.1842 123.73 35.3224 124.29 33.7895C124.605 34.2632 124.678 35.4211 125.79 35.8355C125.842 35.8816 125.79 35.8355 125.987 35.8947C126.228 35.8397 126.439 35.6965 126.579 35.4934C127.099 34.4013 126.829 30.6842 128.171 29.2566C128.467 29.2105 128.658 29.8487 128.744 30.2237C128.882 31.1493 129.102 32.0608 129.401 32.9474C129.862 33.7369 130.29 34.5 131.875 34.4276H132.007C132.988 34.1123 133.71 33.2738 133.875 32.2566C134.336 32.6842 135.507 33.4671 136.579 33.1184C137.704 32.5921 138.309 32.3355 138.711 30.329C139.034 30.6582 139.421 30.9179 139.849 31.0921C140.6 31.3279 141.418 31.1841 142.044 30.7065C142.669 30.2289 143.023 29.4772 142.994 28.6908C144.092 29.8224 147.132 29.4276 147.283 26.8487C147.553 27.0729 147.863 27.2428 148.197 27.3487C149.132 27.6579 151.526 26.6908 151.303 24.5724C153.099 26.1447 155.796 24.0724 154.816 20.9342C154.921 21.1119 155.27 21.6316 155.849 22.7763C154.704 24.5592 153.586 28.7697 157.132 28.0395C158.75 27.1645 158.776 25.454 157.822 22.9474C158.666 21.7278 159.061 20.2541 158.941 18.7763V18.7763ZM99.829 24.9145C99.9475 24.1447 100.053 23.5987 100.132 23.2303C100.948 23.0462 101.804 23.2237 102.48 23.7171C103.467 24.9803 101.619 26.8553 99.5462 27.0921C99.6646 26.0855 99.7567 25.3487 99.829 24.9145V24.9145ZM101.362 33.4671C101.126 33.5289 100.881 33.5489 100.638 33.5263C101.04 33.375 100.678 33.2237 102.046 33.1447C101.835 33.281 101.604 33.3852 101.362 33.454V33.4671ZM102.994 31.6645C101.75 31.5 99.3488 31.4079 98.9146 33.2763C99.0067 32.5 99.1514 30.1513 99.3093 28.954C100.401 28.8684 103.362 29.1053 102.994 31.6513V31.6645ZM112.204 28.2961C112.033 28.2961 111.625 28.0461 111.961 27.7566H112.059C112.171 27.8026 112.257 27.7303 112.184 28.2895L112.204 28.2961ZM123.244 32.0263C123.191 32.1908 122.882 33.0855 122.882 33.0855C122.748 33.4563 122.554 33.8029 122.309 34.1119C122.125 34.3443 121.859 34.4974 121.566 34.5395H121.447C119.908 33.8158 120.546 30.3816 120.349 27.9605C120.849 27.8882 121.322 27.8619 122.322 27.6645C122.322 27.8092 122.375 27.9474 122.408 28.1053C122.699 29.2855 123.053 30.4494 123.467 31.5921C123.347 31.7062 123.263 31.8524 123.224 32.0132L123.244 32.0263ZM124.487 29.5329C124.119 28.1119 122.967 24.8684 124.02 23.1842V22.9737L124.053 23.1842C125.191 24.2961 124.816 26.8619 124.467 29.5197L124.487 29.5329ZM137.112 30.3553C136.973 30.7915 136.687 31.1659 136.303 31.4145C131.757 31.2895 136.145 22.0855 137.092 30.3421L137.112 30.3553ZM137.211 25.2368C136.836 24.0066 135.303 21.204 136.257 19.4342V19.2303V19.4276C137.197 20.5526 137.533 22.8355 137.191 25.2237L137.211 25.2368ZM145.724 26.4605C145.614 26.9121 145.348 27.3105 144.974 27.5855C142.75 28.3026 141.954 21.0526 145.211 23.0987C145.438 23.6057 145.612 24.1349 145.73 24.6776C145.851 25.2623 145.842 25.8665 145.704 26.4474L145.724 26.4605ZM156.415 26.4605C156.321 26.1879 156.296 25.8964 156.342 25.6118C156.367 25.2831 156.459 24.963 156.612 24.6711C156.816 25.4408 156.901 26.2303 156.395 26.4803L156.415 26.4605Z" fill="black"/>
<path d="M199.243 29.2237L187.5 18.5724C187.5 18.5724 190.289 11.5789 191.651 8.17763C192.349 6.28289 192.967 5.74342 191.388 5.625L162.322 13.0329L159.151 0.447368C159.099 0.243726 158.952 0.0774601 158.757 0C108.316 35.6382 89.0198 3.76974 47.329 21.7829C47.2829 21.6908 45.5395 14.2829 45.4408 14.1184C45.4264 14.0765 45.4065 14.0367 45.3816 14C45.359 13.9643 45.3325 13.9312 45.3026 13.9013C45.3026 13.9013 45.2632 13.8487 45.2369 13.8289H45.204C45.1645 13.7961 45.204 13.8289 45.0855 13.7697C45.0471 13.7536 45.0075 13.7404 44.9671 13.7303C44.884 13.7218 44.8002 13.7218 44.7171 13.7303C44.7171 13.7303 44.7171 13.7303 44.6776 13.7303L5.53949 23.6842C1.9737 24.7697 -1.65788 24.7303 0.809224 26.4276L13.9145 33.4211C13.5132 34.7763 7.15133 44.1776 7.5987 45.4868C7.6908 45.5987 7.66449 45.6316 8.25659 45.7303L32.8487 40.1316C32.9452 40.1081 33.0352 40.0632 33.1119 40C33.1119 40 35.5263 49.6579 36.9342 55.1645C38.1316 57.7237 36.7237 60.4276 39.6119 58.6118C86.6382 25.8224 115.704 63.7303 158.237 33.0724C158.572 33.9671 159.263 39.9934 159.921 40.5592C160.079 40.6469 160.265 40.6727 160.441 40.6316L192.572 32.0789C196.901 30.3553 199.704 31.4145 199.243 29.2237V29.2237ZM32.5592 38.8158L9.42107 44.1184C9.48028 43.6382 15.7237 33.5921 15.4474 32.9737C15.1316 32.125 3.00001 26.3158 2.46712 25.8158L43.1645 15.4605L31.1448 31.1382C31.0845 31.2199 31.0439 31.3145 31.0263 31.4145C31.02 31.4669 31.02 31.5199 31.0263 31.5724C31.0231 31.5986 31.0231 31.6251 31.0263 31.6513C31.0236 31.6665 31.0236 31.6821 31.0263 31.6974L32.8224 38.8158C32.7358 38.796 32.6458 38.796 32.5592 38.8158V38.8158ZM125.046 44.5855C85.829 45.5263 70.8882 35.4342 38.8619 57.5066L32.4145 31.8092C36.963 28.4895 41.8498 25.6602 46.9934 23.3684H47.0395C47.1343 23.3421 47.2219 23.2949 47.2961 23.2303C60.5198 17.2039 75.6974 15.9013 89.8948 17.9671C124.763 21.6645 134.855 17.0724 158.105 1.70395L164.579 27.4276C153.559 34.6711 139.914 43.5724 125.046 44.5921V44.5855ZM161.632 38.9474L165.941 27.9211C165.941 27.8684 165.974 27.8684 165.974 27.6118C165.977 27.5812 165.977 27.5504 165.974 27.5197L162.645 14.3026L190.605 7.17105C190.605 7.92105 185.342 18.7829 186.25 19.2368C186.25 19.2368 197.434 29.3618 197.434 29.3882L161.632 38.9474Z" fill="black"/>
</g>
<defs>
<clipPath id="clip0_1_6897">
<rect width="200" height="60" fill="white"/>
</clipPath>
</defs>
</svg>
