<svg width="254" height="136" viewBox="0 0 254 136" fill="none" xmlns="http://www.w3.org/2000/svg">
<path d="M29.8185 27.907C25.6325 87.907 -20.6931 48.1256 11.065 38.6233C12.4604 38.6233 13.4929 41.1489 10.8278 41.7209C-11.7908 52.7721 23.8046 74.093 25.9255 32.0512C26.7906 25.0744 27.586 17.6372 29.5255 11.9302C30.7813 9.39071 34.9534 2.74885 38.3441 6.05583C38.5167 6.89513 38.0385 7.73189 37.2278 8.00931C35.1958 8.92567 33.6347 10.6434 32.9162 12.7535C31.3827 17.6892 30.345 22.7654 29.8185 27.907V27.907ZM48.6836 27.5163L50.3441 28.7861C61.3953 38.6233 55.8836 58.2419 38.6511 58.6047C26.0929 60 22.8139 45.5721 33.4185 42.307C36.0836 40.6326 46.8278 47.7349 39.879 48.7395C37.0883 44.7489 31.4092 43.6047 30.2371 49.7163C29.7767 53.9023 34.1302 55.6605 38.4278 55.5768C53.986 55.9395 57.5302 36.1256 45.6697 29.3721C26.7069 38.7768 27.8232 19.8558 45.4883 25.8977C50.0371 22.7302 52.5488 17.5256 51.9069 13.1302C43.2557 -9.76743 8.21852 10.9954 16.5906 32.2326C14.2743 38.3023 11.5255 28.3535 12.2232 24.907C10.2139 1.52094 51.0697 -9.97673 55.3674 12.8233C56.079 17.9721 53.1906 23.7209 48.6836 27.4744V27.5163ZM41.1906 28.1163C39.9627 28.1163 37.2139 27.7256 35.4278 28.3954C34.6464 29.8326 38.8185 28.9814 41.1906 28.0744V28.1163Z" fill="#2AC2DF"/>
<path d="M80.2743 32.4418C80.2761 32.6688 80.2432 32.8947 80.1765 33.1116C77.623 43.786 66.1254 57.8651 61.3951 44.4697C60.8091 39.2093 64.5626 24.9349 67.2277 16.4372C71.1905 12.1674 70.5068 19.3674 68.1068 25.8977C64.6044 39.2511 64.4091 41.1488 64.6044 44.0372C67.9393 52.9953 75.4602 38.0093 76.9672 32.2046C77.3575 31.4203 78.234 31.0052 79.0882 31.2C79.7079 31.3185 80.1842 31.8173 80.2743 32.4418V32.4418ZM68.5533 9.09765C68.0928 5.16277 77.3161 5.94417 73.0742 10.7302C71.1626 11.7767 69.6835 11.3721 68.5533 9.09765Z" fill="#2AC2DF"/>
<path d="M109.172 30.5442C109.171 30.7687 109.128 30.991 109.046 31.2C103.549 48.6419 87.7534 53.6791 90.1534 36.6698C90.572 34.3116 93.3627 24.5023 94.0045 22.8698C90.9986 22.3152 88.0301 21.5742 85.1162 20.6512C84.9069 21.5442 84.2929 22.5768 79.2417 35.7488C78.8657 36.5371 77.9715 36.9339 77.1348 36.6837C76.7999 36.3907 75.865 36.1535 76.1441 34.7582C77.7906 30.3768 79.4929 26.0047 81.2511 21.6419C81.5022 20.8884 81.7534 20.1488 82.0185 19.3954C67.3534 10.6884 91.5348 1.25583 86.0929 17.6651C88.523 18.4501 90.9912 19.1115 93.4883 19.6465C94.3952 20.1907 97.6743 19.3256 97.6743 22.3535C96.7394 24.7814 93.6278 35.3163 93.3208 37.1582C93.0107 38.4697 92.87 39.8155 92.9022 41.1628C95.2464 49.0465 102.293 39.6977 105.851 30.0977C106.268 29.3159 107.185 28.9454 108.028 29.2186C108.646 29.3818 109.101 29.9084 109.172 30.5442ZM82.0743 11.6372C80.079 11.8884 80.358 14.6093 82.8836 16.2698C82.9255 15.4605 84.6836 12.2372 82.0743 11.6372Z" fill="#2AC2DF"/>
<path d="M125.581 30.2372C125.564 30.4623 125.512 30.6834 125.428 30.893C114.419 55.0883 96.4185 49.3814 107.637 25.479C108.865 21.9907 110.112 18.5069 111.377 15.0279C103.744 16.5628 100.884 11.386 112.437 11.9721C113.623 9.96275 117.042 -5.49771 119.819 2.07903C120.056 1.63252 116.637 10.4511 116.107 11.8465C124.814 10.4511 126.405 15.7674 114.949 14.9023C99.0836 50.5674 112.228 49.786 122.302 29.5814C122.817 28.8552 123.748 28.5542 124.591 28.8418C125.162 29.0773 125.547 29.6201 125.581 30.2372V30.2372Z" fill="#2AC2DF"/>
<path d="M156.907 31.2697C156.872 31.4693 156.806 31.6622 156.712 31.8418C150.209 46.0744 136.926 52.6883 136.591 38.8186C139.381 28.6465 150.809 5.91622 132.684 18.8232C127.605 24.5441 126.726 27.3348 120.126 45.0139C119.823 45.8397 118.933 46.2907 118.088 46.0465C119.051 29.3023 133.047 6.79529 133.953 0.865058C134.316 -0.279128 137.637 -0.418663 137.274 2.00924C136.479 3.86506 134.484 8.37203 131.693 15.1953C154.437 3.13948 144.251 27.7534 139.94 38.1209C138.265 48.9627 148.758 41.4837 153.656 30.4325C154.137 29.6854 155.095 29.4059 155.902 29.7767C156.519 30.0123 156.921 30.6098 156.907 31.2697V31.2697Z" fill="#2AC2DF"/>
<path d="M190.619 34.5348C190.573 34.7508 190.493 34.958 190.382 35.1488C184.577 45.9069 168.893 55.6604 167.707 41.4976C135.349 66.7674 159.907 -4.93961 178.047 18.279L180 14.7209C181.828 11.2185 183.698 7.74411 185.582 4.24178C186.098 3.06969 189.349 3.43248 188.693 5.63713C187.465 7.57667 175.158 30.879 174.405 32.8604C164.065 52.3953 180.628 46.2139 187.507 33.4046C188.097 32.7807 189.023 32.6113 189.795 32.986C190.358 33.2879 190.683 33.8994 190.619 34.5348V34.5348ZM173.135 27.0697C173.986 25.6743 174.684 24.279 175.368 23.1627C175.44 23.0046 175.483 22.8342 175.493 22.6604C175.675 19.3534 174 17.2185 170.833 16.9255C146.972 25.1162 152.414 67.0743 173.135 27.0697V27.0697Z" fill="#2AC2DF"/>
<path d="M221.986 39.7953C221.986 39.9488 221.986 39.9628 221.581 40.6046C217.242 48.4884 201.126 60.7116 200.484 45.8093C166.326 67.8837 196.744 -1.54885 212.707 23.2884C212.833 21.8093 217.772 16.9814 217.577 21.9767C195.53 51.7116 203.833 58.4232 218.805 38.8046L218.916 38.5953C219.507 37.9325 220.487 37.7858 221.247 38.2465C221.777 38.5716 222.067 39.1784 221.986 39.7953V39.7953ZM207.112 31.5488C207.991 30.1535 208.884 28.7581 209.777 27.3628C210.083 26.0002 209.804 24.5717 209.009 23.4238C208.214 22.2758 206.974 21.5133 205.591 21.3209C181.158 27.5721 183.558 70.0605 207.112 31.5488Z" fill="#2AC2DF"/>
<path d="M253.716 47.4419C253.64 47.6524 253.531 47.85 253.395 48.0279C245.874 56.9023 238.046 61.7302 226.619 62.3442C208.73 91.7581 190.786 58.1581 218.609 59.2326C220.521 59.3302 222.6 59.4 224.721 59.3442C225.698 57.7814 226.702 56.2326 227.693 54.6698C221.526 58.7302 212.693 52.5628 214.744 46.6465C214.144 46.2977 232.033 14.3163 232.046 25.1302C207.572 55.7163 221.665 57.5163 231.795 47.1907C235.898 44.6233 248.54 19.7442 249.642 29.3581C243.837 36.4884 234.698 49.5768 228.712 59.107C237.879 58.2977 244.73 53.2465 250.758 46.0326C251.395 45.4098 252.385 45.3278 253.116 45.8372C253.618 46.2051 253.853 46.8352 253.716 47.4419V47.4419ZM222.823 62.3721C217.967 61.9395 207.558 62.2326 207.474 66.5581C208.144 75.7116 218.47 70.7861 222.823 62.3721V62.3721Z" fill="#2AC2DF"/>
<path d="M101.6 71.5628C96.6044 94.3767 80.6696 127.209 96.3393 129.595C96.3782 130.36 95.8382 131.032 95.0835 131.158C80.3068 130.349 88.1068 112.405 90.8975 98.7163C84.6603 99.5674 78.423 100.586 72.2277 101.786C68.4184 153.721 19.623 117.888 53.851 102.944C54.3951 102.944 56.1951 102.944 55.5254 104.981C25.3579 121.014 68.0835 144.051 69.0324 102.428C65.544 104.312 60.0603 100.809 69.4789 99.4977C70.2882 94.307 71.3347 85.8232 73.8463 79.7395L74.0137 79.3209C26.837 72.7907 38.53 105.707 58.3021 92.186C59.1672 91.3628 62.0696 92.479 60.1998 94.293C42.7858 106.446 28.7068 88.5163 45.6184 78.1907C55.9021 74.0046 64.7347 76.8791 75.73 76.5163C77.022 75.0145 78.5207 73.7037 80.1812 72.6232C81.1161 71.7302 84.1858 73.0697 82.0509 74.7721C79.7979 76.1278 78.0116 78.1381 76.93 80.5349C74.8446 86.4634 73.4402 92.6099 72.744 98.8558C79.0137 97.6558 85.3161 96.6372 91.651 95.8C92.823 90.6791 97.0928 75.0651 98.4184 70.907C98.6417 69.7907 101.781 69.386 101.6 71.5628Z" fill="#2AC2DF"/>
<path d="M131.335 100.502C131.335 100.642 131.335 100.656 131.139 101.284C128.781 109.07 117.06 123.023 113.432 110.046C87.8696 136.432 99.9115 69.2046 119.628 87.7906C119.432 86.3953 122.893 81.2604 123.814 85.6697C114.046 105.47 114.2 126.972 128.363 100.237L128.432 100.042C128.826 99.3717 129.632 99.0645 130.372 99.3022C130.904 99.4732 131.283 99.9455 131.335 100.502V100.502ZM116.335 96.1767L117.842 91.9208C117.807 90.6352 117.234 89.4231 116.264 88.5796C115.293 87.7361 114.013 87.3385 112.735 87.4836C92.3208 97.9069 103.581 134.688 116.335 96.1767Z" fill="#2AC2DF"/>
<path d="M158.879 101.242C158.851 101.419 158.79 101.59 158.697 101.744C156.479 107.591 148.358 113.842 142.386 108.902C139.093 113.27 130.804 118.028 126.814 112.307C123.256 120.386 121.232 136.223 118.358 129.26C121.623 117.442 130.818 91.9627 134.097 84.7348C134.795 83.3395 138.73 83.772 136.539 87.0092C154.26 75.4278 151.177 98.6744 144.046 106.544C147.87 110.353 154.204 105.386 155.935 100.474C156.404 99.8206 157.274 99.5972 158 99.9441C158.531 100.156 158.879 100.67 158.879 101.242V101.242ZM143.432 100.935C143.242 101.477 143.111 102.039 143.042 102.609C154.958 77.4092 135.172 85.865 130.595 103.112C125.418 114.456 135.13 114.274 140.558 106.474C139.78 104.45 139.746 102.215 140.46 100.167C140.767 99.2046 143.07 98.3116 143.432 100.935Z" fill="#2AC2DF"/>
<path d="M186.367 104.27C186.325 104.445 186.25 104.611 186.144 104.758C183.437 110.465 174.744 115.949 169.163 110.535C165.507 114.609 156.828 118.656 153.326 112.628C149.14 120.386 145.749 136 143.46 128.828C147.73 117.288 158.977 92.7301 162.884 85.7534C163.693 84.358 167.6 85.1813 165.13 88.2232C183.8 78.1767 178.833 101.032 171.033 108.386C174.535 112.488 181.288 108.079 183.423 103.321C183.936 102.688 184.829 102.512 185.544 102.902C186.078 103.141 186.407 103.686 186.367 104.27V104.27ZM170.935 102.679C170.695 103.206 170.517 103.758 170.405 104.325C184.442 80.1162 163.833 87.0371 157.846 103.781C151.721 114.679 161.474 115.321 167.53 107.967C166.917 105.885 167.07 103.653 167.963 101.674C168.409 100.698 170.781 100.028 170.935 102.679V102.679Z" fill="#2AC2DF"/>
<path d="M215.935 110.228C215.873 110.424 215.779 110.608 215.656 110.772C209.014 118.921 202.065 123.442 191.67 124.391C176.893 151.446 159.019 122.214 184.246 121.907C185.991 121.907 187.888 121.907 189.828 121.753C190.656 120.312 191.493 118.874 192.339 117.442C187.232 121.293 178.456 116.172 180.088 110.716C179.544 110.367 194.167 80.9534 194.893 90.6372C192.353 94.9627 183.116 108.777 183.13 111.149C182.977 118.642 191.502 116.228 195.367 110.995C199.553 108.372 209.614 85.293 211.47 93.9581C204.936 102.758 198.908 111.921 193.414 121.405C201.786 120.372 207.828 115.656 213.13 109.014C213.353 108.888 213.688 108.316 215.307 108.805C215.786 109.108 216.034 109.67 215.935 110.228ZM188.223 124.586C184.316 124.335 174.172 125.144 174.535 129.065C175.567 137.214 184.609 132.33 188.223 124.586Z" fill="#2AC2DF"/>
</svg>
