<svg width="300" height="54" viewBox="0 0 300 54" fill="none" xmlns="http://www.w3.org/2000/svg">
<g clip-path="url(#clip0_1_6302)">
<path d="M269.39 12.483C252.637 17.7601 257.16 14.5613 257.641 22.2287C259.466 31.3488 259.16 33.2489 260.214 32.9548C280.457 26.3876 275.039 32.1098 270.909 14.303C270.575 13.4494 270.679 11.9827 269.39 12.483V12.483ZM270.9 27.0218C266.877 24.3342 270.809 22.5913 264.038 25.1069C262.861 25.6702 263.906 29.6798 262.707 29.0184C264.078 16.7081 263.169 15.8281 265.24 18.6899C268.221 22.494 271.169 26.4125 270.9 27.0218V27.0218Z" fill="#BCDEC6"/>
<path d="M265.15 19.5839C264.532 18.6463 264.034 18.5724 264.176 19.766C263.934 24.7785 262.777 24.9061 265.949 23.7973C266.525 23.455 267.316 23.5444 267.704 23.0612C267.027 21.8894 266.156 20.6063 265.15 19.5839V19.5839Z" fill="#BCDEC6"/>
<path d="M243.893 23.9351C243.492 24.0005 241.639 23.9693 242.158 25.0501C243.125 28.0629 242.893 31.131 243.841 34.0091C251.603 30.4517 248.857 23.834 243.893 23.9351V23.9351Z" fill="#FFAEC5"/>
<path d="M288.296 5.24593C273.923 11.4435 276.424 8.9808 276.742 12.3881C277.667 16.7058 278.357 21.1331 279.845 25.1139C282.419 25.4345 296.781 19.3419 294.247 17.5547C290.186 9.53247 289.535 4.42581 288.296 5.24593ZM287.945 20.1076C286.791 20.4297 286.157 15.4087 284.836 15.1356C278.251 11.7991 278.52 10.2203 285.441 14.7216C286.488 13.6976 286.476 8.3163 287.354 8.45325C288.137 8.5863 287.393 9.77601 287.376 10.358C287.084 11.9734 286.368 13.6548 286.314 15.3472C287.436 19.2641 288.609 19.6641 287.945 20.1076Z" fill="#FFD86C"/>
<path d="M76.3647 29.5903C75.5069 29.1849 73.5768 28.1975 73.3288 29.1647C72.999 31.0516 72.2098 33.3229 72.6473 33.8442C77.3395 35.756 78.5591 30.7979 76.3647 29.5903V29.5903Z" fill="#FBC82A"/>
<path d="M81.854 26.4903C74.983 24.8213 68.671 22.876 68.5119 23.4892C66.9461 28.136 66.1163 33.0224 64.8093 37.6506C65.8293 39.581 81.5585 43.0825 80.8995 41.3551C82.219 26.9097 83.1127 26.8622 81.854 26.4903ZM74.5018 34.8284C70.7797 34.0169 72.8642 35.9255 71.7092 37.6965C70.5528 38.5812 72.9991 27.638 73.0771 28.1119C80.441 28.0683 78.4173 35.2424 74.5018 34.8284Z" fill="#FBC82A"/>
<path d="M101.323 30.2533C86.0145 27.6078 89.4832 27.0631 88.1754 32.1168C86.9277 38.5377 85.6441 42.7612 85.9919 43.253C90.0688 44.8154 95.0379 45.1546 99.4829 45.4877C100.526 45.4488 102.042 45.7989 102.122 44.7874C102.383 40.4736 102.623 36.3894 102.88 31.8531C102.899 30.4961 102.782 30.5295 101.323 30.2533V30.2533ZM98.8731 33.7695C93.8401 38.9462 96.2615 43.1394 94.8648 43.1386C94.5029 42.8196 94.7236 42.5745 94.7346 41.9808C95.937 36.7131 94.5677 36.3785 92.2898 33.1151C91.198 29.9833 95.5783 36.9138 95.721 36.8702C96.8908 35.9085 98.6579 32.5222 99.1975 32.9906C99.4798 33.2186 99.1406 33.5283 98.8731 33.7695V33.7695Z" fill="#D3D376"/>
<path d="M53.3762 22.9104C52.4054 23.6752 52.1792 26.9526 51.7292 27.8396C51.8798 29.1149 55.6112 29.2659 56.1166 28.6675C59.0409 26.7293 55.8506 22.6855 53.3762 22.9104Z" fill="#F7BBB5"/>
<path d="M250.017 18.2611C233.391 22.9632 236.889 20.2305 236.838 24.8057C237.921 34.5996 237.696 36.3472 238.33 37.7875C242.274 37.9307 246.522 36.4305 250.374 35.4804C255.599 33.6433 254.493 34.3397 253.697 30.4415C250.648 18.3631 251.261 17.974 250.017 18.2611ZM248.32 31.0461C247.167 32.6124 243.576 35.6999 242.861 34.7226C243.127 34.1911 243.195 33.9982 242.995 33.2162C241.907 24.647 240.873 24.0439 241.503 23.7234C248.971 21.6466 250.606 28.7413 248.32 31.0461Z" fill="#FFAEC5"/>
<path d="M138.689 40.9279C136.862 40.044 135.289 41.226 135.111 40.4541C135.093 40.2502 135.277 40.1055 135.567 40.1008C138.972 39.8394 138.871 35.8431 135.498 36.1722C133.86 36.1006 134.594 41.4539 134.417 42.0733C134.495 43.2405 134.047 44.8262 134.585 45.4386C141.559 46.1599 140.958 41.706 138.689 40.9279V40.9279Z" fill="#FF9961"/>
<path d="M123.447 32.8785C123.7 31.4911 120.334 32.2599 119.639 31.9969C116.011 31.8327 112.653 31.6794 108.955 31.3744C107.447 30.7628 107.54 48.0094 108.286 46.9504C113.41 47.3394 118.398 47.6631 123.585 47.488C124.61 42.9976 122.945 37.6599 123.447 32.8785ZM121.263 38.9873C118.581 42.2997 120.756 45.1934 119.689 45.6144C112.941 40.8524 114.164 45.6922 111.404 44.2208C111.694 43.0179 112.27 42.1199 112.43 40.9116C112.568 39.9109 109.617 38.6551 111.217 38.287C117.455 38.3726 114.18 30.1668 117.903 37.7548C118.846 38.4746 122.114 37.7836 121.263 38.9873Z" fill="#C7D6C9"/>
<path d="M120.041 38.7781C119.286 38.6225 118.298 38.5688 117.49 38.3743C116.898 37.6911 116.208 34.2075 115.501 36.4843C115.125 37.2087 114.938 38.0661 114.18 38.4023C109.672 38.9228 112.782 39.1485 113.301 41.0128C112.894 41.6578 112.562 42.2803 112.411 43.0211C111.33 45.2845 115.41 42.1729 116.123 42.6476C117.109 43.4311 118.103 44.1088 119.364 44.6247C118.746 39.7966 121.258 39.0854 120.041 38.7781V38.7781Z" fill="#E1F9E3"/>
<path d="M61.6931 22.6364C62.4816 21.0288 53.0129 19.9193 52.4623 19.2804C46.2923 17.1018 48.3698 17.6247 46.5925 22.6348C45.6443 25.6196 44.2531 28.5842 43.8975 31.6771C49.7462 34.5203 57.4392 36.6569 59.6913 36.3877C61.3095 34.4643 61.4132 23.6611 61.7282 23.0994H61.69C61.68 22.9452 61.6811 22.7904 61.6931 22.6364V22.6364ZM56.2601 29.237C53.5026 30.4633 51.638 28.2659 51.4485 29.2922C51.1366 29.984 51.1959 32.8411 50.3435 31.8864C50.4816 30.5878 50.9557 29.2502 51.2091 27.9088C51.7371 25.9861 51.9975 24.1739 52.6775 22.3166C57.0305 21.9423 59.8613 26.758 56.2601 29.237V29.237Z" fill="#F7BBB5"/>
<path d="M229.317 23.2792C210.523 28.522 215.634 22.4233 216.85 39.6099C217.24 41.696 216.991 42.3146 219.25 42.1916V42.173C222.726 42.2414 226.276 41.1568 229.667 40.2962C230.773 39.848 232.323 39.4224 232.875 38.5105C232.791 36.261 232.133 33.9376 231.74 31.6671C230.2 25.1381 230.511 22.7742 229.317 23.2792V23.2792ZM228.731 37.4803C226.187 35.237 229.929 32.8895 222.336 35.0915C220.721 35.4074 222.987 39.676 222.012 39.9702C220.938 38.221 221.335 35.1032 220.764 32.9284C220.812 31.9106 219.482 28.0941 220.686 28.8908C221.51 31.0322 221.06 35.2152 222.193 34.5671C228.576 32.6677 227.652 35.044 225.852 28.3936C226.609 26.1418 228.137 34.7826 228.262 35.0168C228.297 35.9536 229.337 37.1426 228.731 37.4803Z" fill="#BAE5E0"/>
<path d="M143.604 32.8973C126.214 33.1424 129.676 30.5529 128.825 35.854C128.308 42.8312 127.675 44.7835 128.161 46.7241C132.032 48.9805 141.722 49.2062 143.595 47.9597C145.041 47.026 144.016 43.3386 144.164 42.194C143.653 34.7219 145.164 32.8 143.604 32.8973V32.8973ZM138.089 45.83C133.471 46.1537 133.663 46.8416 133.834 43.5735C133.998 39.6122 133.763 35.5187 134.31 35.5475C137.226 35.2681 140.124 36.5769 137.914 39.6029C137.603 40.2036 140.231 40.5678 140.521 41.7396C141.395 43.4179 139.973 45.6277 138.089 45.83V45.83Z" fill="#FF9961"/>
<path d="M42.5186 15.6794C27.556 11.6232 30.2925 8.94108 28.7351 14.0711C27.1342 21.2669 25.6034 24.4976 25.6821 25.8935C25.9223 26.5588 27.4508 27.098 28.3156 27.5376C41.4822 32.9921 39.0343 31.8654 40.3554 27.4061C42.1108 18.0954 43.7055 15.9292 42.5186 15.6794V15.6794ZM36.6871 28.2986C36.4453 28.2986 36.1778 28.0208 36.2254 27.687C36.8415 23.0791 35.4214 23.4425 32.1945 22.4247C31.5425 22.5267 28.8038 26.6374 29.1664 24.759C36.758 16.5384 36.0367 11.0731 36.9491 24.496C36.652 26.5082 37.5636 28.0955 36.6871 28.2986V28.2986Z" fill="#FBF2D0"/>
<path d="M35.781 18.1499C35.937 16.3743 32.2359 21.7144 32.7327 21.698C38.3209 24.8291 35.6383 21.5455 35.781 18.1499Z" fill="#FBF2D0"/>
<path d="M25.2096 8.9014C8.85586 1.99189 13.4319 1.46978 10.6931 5.60226C8.92214 9.1037 6.38458 12.0651 5.21094 15.877C6.2715 19.0167 17.5767 24.8835 19.7469 23.5024C21.5897 20.2772 26.3887 8.65474 25.2096 8.9014V8.9014ZM20.6235 10.9104C19.9645 12.4308 14.9853 24.6548 16.8803 18.2829C17.2187 17.2605 18.1826 16.2054 17.4308 15.6102C16.0311 14.8562 14.101 13.7987 12.7144 13.4704C10.7399 18.7615 10.375 16.9796 12.0563 13.6423C12.7815 12.4433 14.9993 6.25508 15.0859 8.4003C14.462 10.1386 12.8119 12.3017 13.4444 12.83C15.2115 13.7956 17.7607 15.2343 18.2349 14.8904C18.7612 14.3216 20.6398 8.2797 20.6235 10.9104V10.9104Z" fill="#8EDDD7"/>
<path d="M183.743 38.0925C183.93 34.9132 179.999 35.0447 179.337 35.5481C179.067 36.4881 179.449 40.9022 179.668 40.9676C181.303 41.152 183.718 40.0525 183.743 38.0925V38.0925Z" fill="#CFE59C"/>
<path d="M208.609 28.136C192.236 31.9284 195.558 27.9874 195.456 36.0975C195.958 46.1949 193.656 46.3108 204.761 45.6191C214.79 44.4169 211.39 42.4374 210.901 37.081C208.953 27.9072 210.289 27.7641 208.609 28.136V28.136ZM206.757 33.2318C205.509 33.4745 203.064 33.5811 203.237 34.332C203.099 35.4034 205.206 47.464 203.74 43.34C201.814 29.6829 203.884 35.5077 198.721 33.9927C199.225 33.4146 202.509 33.7266 203.209 33.3477C203.956 33.2294 208.822 32.0514 206.757 33.2318V33.2318Z" fill="#F4CF9D"/>
<path d="M187.337 31.4297C169.769 32.4467 173.656 31.4118 173.322 35.5591C173.602 39.6153 172.928 43.6676 174.129 47.5418C179.375 48.6171 185.649 48.4444 189.725 46.7995C190.037 46.5614 190.052 46.2338 189.994 45.5755C189.225 40.5389 188.875 35.6633 188.786 33.2248C188.631 32.3945 189.173 31.1612 187.337 31.4297V31.4297ZM186.502 45.0153C184.129 44.6846 178.619 37.3666 179.771 44.4893C179.953 44.8628 179.721 46.0696 179.277 45.2744C179.138 41.9037 178.776 38.6606 178.575 35.212C183.984 32.6809 186.686 39.5211 181.728 41.0828C185.634 44.3804 186.78 44.3228 186.502 45.0153V45.0153Z" fill="#CFE59C"/>
<path d="M165.955 32.5183C148.365 33.9905 150.797 30.8594 150.734 36.1855C150.899 43.4872 150.287 45.3056 150.756 47.2539C153.251 49.4521 167.471 48.1044 167.399 47.194C167.826 43.6965 166.931 40.332 166.844 36.8368C166.555 35.3171 167.142 32.1985 165.955 32.5183V32.5183ZM159.943 45.932C159.642 45.8541 157.931 46.3941 158.416 45.602C159.482 45.7125 158.206 39.2022 158.402 38.3089C158.509 37.7962 157.565 34.434 159.097 36.0851C158.755 37.2779 159.357 42.8071 159.487 44.9873C159.509 45.532 160.052 45.122 160.376 45.4791C160.554 45.7701 160.294 45.9677 159.943 45.932Z" fill="#BDDEC7"/>
<path d="M290.061 4.37369C294.619 2.1102 298.491 0.575014 297.355 0C276.233 11.0412 252.702 17.2909 229.46 22.6691C218.177 25.2851 207.085 28.4582 195.562 29.9163C165.857 33.459 135.871 32.8544 106.078 30.517C85.9465 27.4046 71.4051 23.0901 56.5197 19.903C48.8399 17.5399 41.5532 14.7582 33.9827 12.1835C24.3549 7.6596 17.4823 5.06775 12.8672 2.21991C11.9985 1.87444 11.7755 1.15625 11.0409 1.53674C10.6424 2.28605 11.9899 2.01216 11.3021 3.06493C9.28003 7.46352 6.72063 10.9525 4.54881 15.4733C3.85086 17.1664 8.16254 19.4602 8.83163 20.1605C11.5088 22.2061 17.5252 25.0773 20.1391 24.0214C20.9767 23.1375 21.2247 21.7595 21.8251 20.5893C27.4126 6.41853 25.4732 9.47023 28.318 10.3129C28.8841 10.509 29.2265 10.9183 28.952 11.5065C27.7916 14.8842 27.1888 18.5522 26.0136 21.9992C24.8766 25.9768 23.6881 25.8437 27.103 27.7003C32.3926 30.0066 38.9892 32.5424 40.1261 31.9098C40.8179 26.572 42.1638 21.6039 43.6681 16.3595C43.6112 15.618 47.6234 17.5702 47.1898 17.9157C46.233 22.7212 44.4932 26.8335 43.1347 31.5324C42.4329 32.8459 54.4851 36.1909 54.4422 36.1037C60.9047 37.8856 60.7487 36.9846 60.9468 34.7172C61.6346 30.4719 61.9418 26.4748 62.4019 22.154C62.1235 21.4693 68.3286 22.9321 67.6946 23.3639C66.8017 28.1944 65.5283 32.6622 64.2548 37.3114C62.2436 39.4573 76.8537 42.2134 77.4214 42.2212C84.0055 42.8055 80.6055 42.4398 81.8064 38.1408C83.6702 23.3507 81.8454 27.0918 87.7534 27.8116C89.1711 28.3368 85.3211 41.6617 85.5699 41.7636C85.449 42.6896 84.6684 43.733 85.991 44.0505C91.3905 45.4752 96.7308 46.1513 102.373 46.0027C103.537 43.3766 102.58 29.7654 104.124 30.7691C105.48 31.1208 107.566 31.0337 107.712 31.6126C107.556 35.3327 107.357 38.7897 107.258 42.4048H107.226C107.425 47.2959 106.456 47.4943 108.849 47.5791C114.073 47.7931 119.766 48.4288 124.539 47.9425C123.98 29.7451 122.712 32.3121 127.305 32.2452C128.372 32.2335 128.552 32.2895 128.451 33.4341C127.734 43.6101 126.801 46.9675 127.855 47.3566C132.132 48.9284 136.829 49.5127 141.406 49.1104C144.335 48.6101 145.135 48.0382 144.851 45.3592C144.56 41.4843 144.48 37.8895 144.896 34.0332C144.994 32.5673 145.66 32.8894 146.82 32.8964C147.895 33.1182 149.566 32.4708 150.095 33.2855C150.401 41.8025 149.741 46.4921 150.256 47.727C154.604 49.6629 159.829 48.9393 164.449 48.4926C165.513 48.2335 167.986 48.1565 167.974 47.7519C168.225 42.8849 167.017 37.9533 167.212 33.038C166.68 32.1868 173.006 32.228 172.656 32.6646C173.099 37.7486 172.578 42.7627 173.443 47.8546C176.075 48.884 179.634 48.4887 182.575 48.6163C185.389 48.5829 191.1 47.4212 190.833 46.4999C187.929 28.0512 189.943 31.6826 190.869 31.1512C192.622 31.0897 194.706 30.0875 194.729 31.0438C195.735 47.8701 193.356 45.7498 200.863 46.3241C205.176 46.4797 211.007 45.4573 212.578 43.4148C209.24 24.107 208.922 28.4301 214.022 26.9043C215.269 26.2966 214.932 30.5652 215.251 31.085C215.712 34.8043 216.158 38.0832 216.673 41.9932C217.422 44.5516 232.327 40.4471 232.816 39.497C233.595 39.0364 233.626 38.9352 233.492 38.0186C232.741 33.5601 231.846 29.7506 231.062 25.4913C229.838 21.7984 232.284 23.1484 234.425 22.1836C236.446 21.3386 235.89 23.1616 236.191 24.3358C236.778 28.967 237.11 33.4053 237.546 37.9976C237.82 39.2978 242.1 37.8148 242.665 37.8599C246.296 37.2374 256.688 34.9031 255.072 33.224C250.155 14.1139 250.561 18.623 255.375 16.789C256.514 16.5961 256.331 18.8004 256.688 19.668C259.9 37.1472 257.78 33.7944 262.805 32.8038C266.298 31.6102 271.519 30.2945 275.417 28.5492C275.651 28.4021 275.757 28.273 275.753 28.1563C274.387 23.1764 272.226 17.855 271.082 12.6207C270.815 11.5236 272.486 11.5882 273.247 11.1844C276.803 9.42899 275.758 12.3663 276.523 14.408C279.403 26.5759 278.706 25.7193 279.765 25.8064C285.902 25.0703 294.068 20.0111 295.374 18.8339C295.716 18.2729 295.228 17.9842 294.859 17.3345C294.157 16.1938 293.794 15.0904 293.17 13.8898C289.256 4.37135 289.366 4.82421 290.061 4.37369V4.37369ZM25.4545 9.54493C19.3882 26.474 19.8397 23.6386 17.5727 23.5258C12.3526 22.5773 5.30758 17.1648 5.214 16.0039C6.03438 12.6192 8.48928 9.75268 10.0989 6.68931C11.1508 5.0802 11.9502 2.38954 12.6887 2.96222C21.0398 7.73118 25.9528 8.41513 25.4545 9.54493ZM42.9686 16.3774C38.3739 33.5415 41.097 31.7153 35.7076 30.5193C31.0926 28.7001 26.2132 26.8841 25.7118 25.9729C25.47 25.3185 26.1571 23.872 26.3622 22.9632C30.8509 7.79032 27.7807 10.8249 34.2618 13.0339C38.6796 14.9076 43.4318 15.3464 42.9686 16.3774V16.3774ZM61.1511 29.3063C60.7316 32.1775 60.4641 36.555 59.5743 36.4111C53.9938 36.1037 49.0365 33.8037 43.9777 31.7721C43.9535 28.8674 45.6723 25.7745 46.5207 22.8761C48.3463 15.0834 48.1584 18.6549 53.9408 19.7271C61.8568 22.0739 61.7672 20.9869 61.69 23.1002H61.7282C61.5348 25.1684 61.3305 27.2334 61.1511 29.3063V29.3063ZM82.481 27.3844C80.5922 41.6049 81.2332 41.8741 80.3216 41.8703C73.9886 41.5753 67.0271 39.1671 64.8943 37.9144C64.6221 37.1192 65.267 36.2127 65.3887 35.3171C69.3658 20.9456 67.0029 23.0831 71.7443 23.946C81.2909 26.425 82.7009 26.2491 82.481 27.3844V27.3844ZM102.873 32.2133C101.757 47.7449 103.208 45.3468 98.9814 45.4549C94.6143 45.1639 90.1966 44.6908 86.0454 43.3183C86.0276 39.7935 87.705 35.5894 88.2291 31.8623C88.6089 30.5614 88.4677 28.4512 89.2366 28.2986C93.5725 28.441 97.1979 29.7202 101.502 30.282C102.917 30.5357 102.898 30.5948 102.873 32.2133V32.2133ZM123.865 46.8602C124.318 48.6148 108.635 46.7318 108.592 46.9854C106.887 47.7316 108.112 30.6003 108.694 31.4289C126.523 32.4568 123.084 31.2788 123.422 34.4262C123.325 38.6715 124.026 42.6437 123.865 46.8617V46.8602ZM144.334 33.6442C143.121 47.0516 147.148 48.5922 139.343 48.6669C135.6 48.7595 131.875 48.3043 128.347 46.9115C127.55 46.0953 128.202 44.452 128.13 43.3922C129.49 29.8439 128.234 32.6708 132.215 32.6334C144.595 33.3127 144.285 32.3393 144.334 33.6457V33.6442ZM167.216 41.4726C167.4 43.9112 167.945 47.0749 167.06 47.5247C161.908 48.4973 156.575 48.9548 151.431 47.6803C149.807 47.5138 150.919 43.4965 150.693 42.6903C150.728 39.6005 150.771 36.7122 150.678 33.6232C150.606 32.372 152.662 33.1057 153.448 32.9229C170.901 33.5671 165.503 28.676 167.216 41.4726V41.4726ZM189.934 45.0705C191.484 48.4537 181.1 48.1767 179.836 48.1643C172.621 47.5356 174.192 48.6669 173.435 43.2622C173.448 34.6471 172.893 32.3525 173.606 32.2669C178.631 31.9931 183.55 31.3169 188.47 31.5153C189.256 34.4495 188.791 39.0045 189.934 45.0721V45.0705ZM210.459 34.8666C212.141 44.1812 212.314 43.1416 211.041 43.9267C207.682 46.0743 199.043 46.0572 197.539 45.6463C194.836 45.9086 195.668 39.5881 195.456 36.0975C195.667 36.0687 194.759 31.3791 195.69 30.4898C199.684 29.8595 203.65 29.2316 207.585 28.3547C208.156 28.2986 209.34 27.7859 209.516 28.199C209.842 30.5139 210.043 32.6801 210.459 34.8666V34.8666ZM232.643 36.5006C232.924 38.5127 233.313 38.6839 231.482 39.5569C226.908 41.4244 221.991 42.1963 219.25 42.1768V42.1947C215.932 43.0109 216.852 36.748 216.287 34.9584C215.988 30.3637 214.643 26.835 215.763 26.6032C220.754 25.366 225.293 24.0432 229.954 23.3196C231.08 27.568 231.794 32.1354 232.643 36.4975V36.5006ZM252.404 25.0843C254.801 35.6665 255.257 33.3322 252.239 34.8222C246.831 36.7869 239.359 38.1416 238.387 37.8233C237.925 37.5168 237.987 36.022 237.825 35.2183C236.552 19.4517 235.727 22.1587 238.326 21.2903C254.526 17.6457 249.623 15.8226 252.404 25.0812V25.0843ZM271.505 16.5035C275.343 31.4243 278.825 26.8428 264.123 31.7946C262.007 32.3393 260.858 33.0225 259.787 32.9182C258.617 29.9171 258.557 26.025 257.727 22.7368C257.049 17.5726 256.258 16.4179 257.17 16.2397C273.654 11.1976 269.557 11.2163 271.505 16.5035V16.5035ZM291.547 11.5781C294.812 19.6944 295.827 18.0799 292.281 20.2796C288.746 22.3135 285.123 23.9281 281.208 25.026C279.804 25.2796 279.697 25.3574 279.378 23.9452C277.611 16.7416 275.961 10.2662 276.613 10.004C292.28 4.19006 287.607 2.77236 291.548 11.5781H291.547Z" fill="black"/>
<path d="M3.98971 20.9208C0.307359 17.8691 0.668419 17.0653 0.990488 13.5701C-2.79792 17.687 5.61487 23.2208 3.98971 20.9208Z" fill="black"/>
<path d="M299.447 14.6228C299.014 13.5513 298.355 14.7278 298.745 15.0359C299.513 17.7593 299.551 19.1171 297.328 21.0125C300.482 20.285 300.279 16.996 299.447 14.6228V14.6228Z" fill="black"/>
<path d="M81.4032 45.8097C79.3397 46.9893 76.7733 45.8323 74.8191 44.9359C73.5659 45.9334 79.2173 47.1488 79.7094 46.8664C80.4822 47.0181 82.6314 45.6572 81.4032 45.8097Z" fill="black"/>
<path d="M133.155 53.4638C132.054 53.4934 130.859 53.1526 129.867 52.706C122.22 48.8622 130.893 55.2535 133.37 53.6918C133.331 53.4911 133.239 53.4623 133.155 53.4638Z" fill="black"/>
<path d="M257.181 36.064C252.897 40.0907 250.73 38.7936 249.357 39.844C254.814 39.8643 259.092 35.4167 257.181 36.064Z" fill="black"/>
<path d="M193.887 49.5921C190.943 51.945 189.13 51.9124 186.627 52.6757C187.563 53.7238 192.679 51.0736 193.066 50.7304C194.89 49.5858 194.544 48.8645 193.887 49.5921V49.5921Z" fill="black"/>
<path d="M20.5501 10.295C19.4333 10.3845 18.7939 15.7892 17.6499 14.9216C11.8971 12.1205 12.8399 13.5576 14.8791 8.86722C15.6176 5.43815 12.5763 12.5858 12.3704 12.96C11.8901 13.6214 10.0427 18.4845 11.6569 16.1837C12.7908 11.382 13.6696 14.373 16.6478 15.1317C17.6335 15.6911 18.0242 15.7542 17.4541 16.9805C17.1485 17.6325 15.5358 21.06 16.9449 19.8197C18.3751 15.2507 21.2589 10.6109 20.5501 10.295V10.295Z" fill="black"/>
<path d="M159.943 45.3125C158.898 45.4642 159.016 35.2921 159.102 36.085C157.451 33.7507 158.749 40.5824 158.694 42.7043C159.295 46.9193 158.256 44.7476 158.41 46.0081C158.865 46.1661 161.548 45.8299 159.943 45.3125Z" fill="black"/>
<path d="M228.441 35.7754C227.824 33.7321 226.959 27.1175 225.851 28.1415C225.767 28.5127 225.945 28.4061 226.068 28.897C228.407 36.0252 226.532 32.6319 221.826 34.6145C221.046 33.9858 221.247 28.7974 220.508 28.7788C219.564 28.5228 221.111 33.5975 220.91 33.9578C221.278 35.4222 221.338 40.8455 222.225 39.8542C222.412 38.0848 221.278 36.1326 221.942 35.2588C223.842 34.5312 226.588 33.9204 227.349 34.4231C228.485 38.9088 229.439 37.7759 228.441 35.7754Z" fill="black"/>
<path d="M206.687 32.6669C200.171 34.2301 198.014 33.273 198.912 34.3009C200.273 34.4565 202.046 33.7064 202.577 34.1919C203.013 37.0974 203.162 39.939 203.69 42.8343C203.701 43.5081 203.889 45.0246 204.469 43.6902C203.878 40.5046 203.335 37.3098 203.269 34.0457C203.535 33.4769 209.081 33.147 206.687 32.6669V32.6669Z" fill="black"/>
<path d="M99.1991 32.9913C98.1783 32.8435 95.9597 37.4996 95.5573 36.7885C95.2009 35.8236 90.6444 29.9038 92.5815 33.494C97.8445 39.6091 93.4065 41.1972 95.0161 43.1728C95.5869 42.874 95.2656 40.7435 95.622 40.1825C96.0252 35.17 99.2451 34.5872 99.1991 32.9913V32.9913Z" fill="black"/>
<path d="M267.086 20.9518C264.037 17.3586 263.6 15.3052 263.613 20.4648C263.231 25.4267 262.38 28.946 262.801 29.0729C263.029 29.1678 263.25 29.0464 263.265 28.7694C263.374 23.9452 264.391 25.2143 267.685 23.8915C269.144 23.5803 269.745 27.498 270.9 27.0218C271.018 25.9885 267.287 21.5728 267.086 20.9518V20.9518ZM267.484 23.2799C262.259 25.096 264.027 24.8019 264.088 20.6811C264.223 19.3988 263.976 17.9624 265.149 19.5839C265.999 20.4749 268.212 23.2324 267.481 23.2799H267.484Z" fill="black"/>
<path d="M286.431 15.7175C285.735 14.9083 289.029 6.37024 286.932 8.91228C285.299 16.1097 286.135 14.9169 284.203 13.9645C283.097 13.3506 279.198 10.74 280.327 12.5289C282.153 13.7497 284.71 14.7854 285.576 15.8693C286.631 17.1414 287.131 21.2381 288.149 19.8998C287.712 18.5965 286.814 17.1702 286.431 15.7175V15.7175Z" fill="black"/>
<path d="M186.355 44.4738C184.795 43.6007 183.323 42.2951 181.725 41.0828C187.564 38.7796 182.569 32.5805 178.521 35.3249C178.868 38.7641 179.081 42.0072 179.301 45.3981C180.363 46.4058 179.414 42.2367 179.605 41.8702C180.863 39.5173 187.443 47.3084 186.355 44.4738V44.4738ZM180.158 41.0167C179.559 41.0447 179.442 40.8961 179.457 40.1522C179.524 37.8957 178.907 36.2913 179.394 35.4922C184.819 34.0667 185.313 40.5918 180.158 41.0167V41.0167Z" fill="black"/>
<path d="M76.7353 29.065C75.6326 28.476 73.1481 27.4948 72.8245 28.4309C72.1694 32.8061 71.0044 37.3564 71.4208 37.6817C72.4962 38.0622 71.7468 34.4502 72.6381 34.6191C78.6217 35.9839 78.989 30.2571 76.7353 29.065V29.065ZM77.4099 31.7028C77.2968 34.3701 74.3545 34.7311 72.5968 33.7842C72.3168 32.9283 73.3259 28.8044 73.6238 28.7779C75.2349 28.7118 77.6461 29.7692 77.4067 31.7028H77.4099Z" fill="black"/>
<path d="M37.0513 23.7227C36.4391 21.4802 36.9187 18.5491 36.0016 16.3486C33.5709 18.0783 32.1306 21.9354 29.7381 24.1343C29.5041 24.577 28.6167 24.882 29.2553 25.2695C30.351 24.8089 30.9608 23.2784 32.0417 22.4785C33.1381 22.2879 35.9946 23.774 36.1997 24.1615C36.5787 25.1147 35.6959 29.3545 37.0443 28.0668C37.1386 26.6258 36.6918 25.2438 37.0513 23.7227V23.7227ZM35.7053 22.9874C34.7757 22.4544 33.1069 22.2155 32.6445 21.5012C33.436 20.1528 34.5473 18.6798 35.5673 17.7033C35.9221 18.4697 36.7206 23.9763 35.7053 22.9874Z" fill="black"/>
<path d="M249.047 26.9222C247.855 23.1227 244.483 23.0161 241.502 23.7195C240.994 24.0066 241.433 24.4058 241.535 25.0143C242.213 28.3119 243.158 31.7402 242.938 34.8487C245.845 34.7467 250.514 29.7895 249.047 26.9222ZM247.388 31.4025C243.066 35.4206 243.808 34.1663 243.322 31.7137C242.557 24.4408 241.36 24.6198 242.654 24.1405C247.656 22.7687 250.511 28.3228 247.388 31.4017V31.4025Z" fill="black"/>
<path d="M52.9777 22.2537C52.1371 22.2801 51.6996 26.7231 51.3876 27.1479C51.2504 28.4504 49.6393 32.6343 50.8418 32.0133C51.5982 31.0018 50.6718 28.045 52.7048 29.3227C59.834 31.173 59.2733 22.3167 52.9777 22.2537V22.2537ZM57.2543 27.0001C56.6733 29.6355 53.4729 29.3344 51.8587 28.2007C51.5959 26.6834 52.7991 24.812 52.9777 23.1594C54.6902 21.8498 57.7557 25.4026 57.2543 27.0001Z" fill="black"/>
<path d="M138.68 40.2596C136.575 39.7282 139.737 38.4933 138.39 36.7115C137.524 35.3568 134.013 35.237 134.017 35.8805C134.031 39.3189 133.591 42.5923 133.908 45.886C141.721 47.2796 142.189 41.3684 138.68 40.2596ZM140.213 43.0397C140.008 45.7078 136.324 45.7242 134.422 45.2916C134.415 42.457 134.065 39.2271 134.9 36.373C135.855 35.7988 137.734 36.2866 138.08 37.558C138.136 40.3499 135.513 39.8433 135.126 40.3102C134.637 41.3855 140.224 39.3835 140.213 43.0397Z" fill="black"/>
<path d="M120.955 38.2755C119.972 38.1821 118.586 38.1829 117.797 37.6491C117.095 36.7979 116.315 32.8475 115.371 35.3545C114.903 36.1948 114.797 37.2437 113.903 37.7666C106.449 39.252 114.814 38 111.486 43.9136C111.034 45.7608 115.307 42.7674 116.057 43.4662C117.416 44.0295 118.432 44.992 119.692 45.609C120.166 45.5678 119.974 45.1702 119.946 44.7415C119.308 39.038 122.57 38.803 120.955 38.2755V38.2755ZM120.302 39.3088C119.241 40.9233 119.162 42.7184 119.366 44.6247C118.093 44.1384 117.053 43.3277 115.983 42.5939C114.742 42.5161 111.314 45.297 112.468 42.8273C112.595 42.0664 113.014 41.6213 113.321 40.865C113.269 40.1055 110.64 38.8847 112.43 38.67C116.379 38.8209 115.27 33.9103 116.508 36.3932C116.944 37.0266 117.132 37.6592 117.492 38.3751C118.229 38.7314 120.867 38.442 120.302 39.3088V39.3088Z" fill="black"/>
</g>
<defs>
<clipPath id="clip0_1_6302">
<rect width="300" height="54" fill="white"/>
</clipPath>
</defs>
</svg>
