<svg width="500" height="209" viewBox="0 0 500 209" fill="none" xmlns="http://www.w3.org/2000/svg">
<path d="M41.93 108.3C177.41 182.13 393.57 169.46 500 76.35V74.48C408.73 153.94 257.29 168.48 138.32 142.93C96.25 134 42 109.39 0 84.12V85.79C13 94.37 27.71 101.14 41.93 108.3V108.3Z" fill="#AA9E94"/>
<path d="M85.78 123.73C72.8212 119.24 60.2105 113.802 48.05 107.46C46.18 124 44.6 174.55 48 169.3C62.21 155.07 80.36 142.5 92.82 126.39C90.5586 125.292 88.2023 124.402 85.78 123.73V123.73Z" fill="#FF94AB"/>
<path d="M77 120.75C74.5804 128.089 74.3822 135.979 76.43 143.43C81.31 138.09 89.02 132.94 92.77 126.43C88.31 124.08 82.31 123 77 120.75V120.75Z" fill="#FFA6B9"/>
<path d="M60.09 145.24C57.24 135.33 57.67 123.82 59.93 113.24C54.45 110.9 47.93 108.04 48.05 107.5C45.98 123.35 46.11 140.21 46.53 156.7C46.93 159.9 45.08 167.31 47.24 169.82C53 164.92 58 159.85 63.93 154.86C62.3892 151.764 61.1049 148.546 60.09 145.24Z" fill="#EB889D"/>
<path d="M53.9999 139C55.2399 137.71 59.7299 121.47 62.4799 123H62.5499C68.0499 124.38 72.3699 129.71 66.6999 134C70.9399 143.22 60.6999 145.19 54.8999 141C54.8999 141 54.8399 141 54.8099 141C54.0399 140.666 53.6796 139.776 53.9999 139ZM57.4599 138.77L60.6699 140.14C67.1799 140.79 64.6099 134.09 59.7299 133.46L57.4599 138.77ZM60.9499 130.6C66.1299 133.97 68.5799 127.96 62.6999 126.5L60.9499 130.6Z" fill="white"/>
<path d="M136.63 139C123.139 136.514 109.85 133.038 96.8701 128.6C97.5101 145.18 103.59 195.45 106.14 189.74C118.04 173.53 134.14 158.36 143.97 140.56C141.575 139.821 139.119 139.299 136.63 139Z" fill="#A1D3F3"/>
<path d="M128.18 137.53C126.889 145.134 127.87 152.951 131 160C135 154 141.86 147.73 144.58 140.69C139.82 139.12 133.73 139 128.18 137.53Z" fill="#BFE6FF"/>
<path d="M114.48 164.12C110.16 154.76 108.84 143.32 109.48 132.48C103.71 130.99 96.8701 129.14 96.8701 128.6C97.2201 144.6 99.8701 161.23 102.79 177.46C103.67 180.57 102.96 188.17 105.47 190.32C110.47 184.64 114.58 178.9 119.72 173.06C117.733 170.228 115.98 167.238 114.48 164.12V164.12Z" fill="#90BCD9"/>
<path d="M116 143.87C120 140.03 118.92 146.54 117.15 151.87C115 158.13 115.95 162.97 112.3 161.3C110.56 160.82 116.21 144.63 116 143.87V143.87Z" fill="white"/>
<path d="M187.93 148.19C174.266 147.014 160.706 144.839 147.36 141.68C149.54 157.9 160.51 207.68 162.47 201.68C172.75 184.4 187.27 167.76 195.39 149.09C192.935 148.568 190.439 148.267 187.93 148.19V148.19Z" fill="#FF94AB"/>
<path d="M178.72 147.45C178.177 155.158 179.916 162.855 183.72 169.58C187.14 163.2 193.35 156.32 195.38 149.05C190.66 147.94 184.3 148.36 178.72 147.45Z" fill="#FFA6B9"/>
<path d="M168.3 175.35C163.07 166.35 160.71 155.21 160.3 144.35C154.41 143.43 147.42 142.24 147.38 141.7C149.23 158.12 153.95 174.7 158.23 191.12C159.58 194.54 159.23 200.45 161.88 202.31C166.31 196.18 169.88 190.06 174.4 183.75C172.139 181.123 170.099 178.313 168.3 175.35V175.35Z" fill="#EB889D"/>
<path d="M174 172C174.069 172.405 173.974 172.82 173.736 173.155C173.497 173.489 173.135 173.714 172.73 173.78C172.524 173.805 172.316 173.805 172.11 173.78C171.739 173.72 171.393 173.557 171.11 173.31C170.779 173.01 170.528 172.632 170.38 172.21C170.095 171.097 170.071 169.934 170.31 168.81C170.375 168.392 170.327 167.963 170.17 167.57C169.667 166.729 168.906 166.073 168 165.7L164.75 165.19C164.68 168.81 162.62 176.42 160.81 170.29C162.16 165.81 161.94 152.75 165.05 153.14C173.05 153.01 178.92 159.27 172.1 164.95C173.133 166.128 173.594 167.701 173.36 169.25C173.246 169.789 173.196 170.339 173.21 170.89C173.636 171.112 173.93 171.525 174 172V172ZM171.87 160.3C172.47 157.42 168.48 156.62 166.09 156.46L165.2 162.14C167.42 162.51 171 163.58 171.86 160.28L171.87 160.3Z" fill="white"/>
<path d="M238.52 151.62C224.813 151.823 211.11 151.02 197.52 149.22C201.32 165.14 217.23 213.56 218.58 207.36C227.07 189.13 239.85 171.12 246.06 151.73C243.555 151.472 241.032 151.435 238.52 151.62Z" fill="#A1D3F3"/>
<path d="M229.29 151.81C229.521 159.534 232.03 167.017 236.5 173.32C239.25 166.63 244.75 159.16 246.04 151.73C241.15 151.1 235.1 152.14 229.29 151.81Z" fill="#BFE6FF"/>
<path d="M221.72 180.61C215.61 172.2 212.15 161.34 210.62 150.55C204.68 150.23 197.62 149.75 197.5 149.22C200.99 165.37 207.35 181.36 213.27 197.3C214.95 200.56 215.19 206.48 218.01 208.07C221.8 201.52 224.71 195.07 228.61 188.34C226.103 185.959 223.799 183.373 221.72 180.61V180.61Z" fill="#90BCD9"/>
<path d="M226.5 162.43L222.07 162.19C221.54 163.57 222.62 184.67 218.19 176.91C218.19 176.97 219 162.13 219 162.02C215.18 162.52 210.31 160.44 215 158.7C218.84 159.12 233 158.39 226.5 162.43V162.43Z" fill="white"/>
<path d="M289.52 150.46C275.886 151.931 262.162 152.399 248.46 151.86C253.71 167.37 274.03 214.1 274.8 207.81C281.57 188.87 292.62 169.75 297.01 149.87C294.501 149.843 291.994 150.04 289.52 150.46V150.46Z" fill="#FF94AB"/>
<path d="M280.35 151.5C281.292 159.171 284.479 166.393 289.51 172.26C291.64 165.34 296.42 157.39 297.01 149.87C292.09 149.7 286.16 151.29 280.35 151.5Z" fill="#FFA6B9"/>
<path d="M275.47 180.88C268.62 173.09 264.14 162.53 261.64 151.98C255.69 152.2 248.64 152.38 248.46 151.86C253.46 167.62 261.24 182.96 268.6 198.28C270.6 201.38 271.36 207.28 274.32 208.56C277.49 201.69 279.79 195.01 283.05 187.94C280.335 185.798 277.8 183.436 275.47 180.88V180.88Z" fill="#EB889D"/>
<path d="M266.7 177.73C266.86 176.98 265.7 161.31 266.24 160.48C269.98 156.48 269.24 166.48 269.42 167.85L276.65 167.58C276.07 164.12 276.43 154.72 279.52 161.47C279.64 164.66 280.11 177.08 280.12 177.22C276.89 183.05 276.63 172.43 276.76 170.65L269.54 170.92C269.71 173.07 270.6 183 266.7 177.73V177.73Z" fill="white"/>
<path d="M340 144C326.582 146.824 312.976 148.662 299.29 149.5C306.06 164.4 330.95 208.87 331.08 202.5C335.93 182.98 345.02 162.85 347.4 142.63C344.897 142.864 342.421 143.323 340 144V144Z" fill="#A1D3F3"/>
<path d="M331.67 145.89C333.377 153.425 337.269 160.288 342.86 165.62C344.29 158.53 348.25 150.15 348.09 142.62C343.23 142.91 337.27 145.15 331.67 145.89Z" fill="#BFE6FF"/>
<path d="M329.1 175.7C321.5 168.63 315.98 158.58 312.45 148.32C306.55 149.14 299.52 150.03 299.32 149.53C305.84 164.71 315.14 179.19 324 193.69C326.27 196.58 327.64 202.34 330.72 203.36C333.18 196.2 334.8 189.36 337.34 181.97C334.425 180.11 331.669 178.013 329.1 175.7V175.7Z" fill="#90BCD9"/>
<path d="M320.32 173.45C319.38 162.21 312.91 149.97 329.44 156.54C340.53 164 328 179.17 320.32 173.45ZM323.17 171.45C334.62 170.78 331.65 155.6 321.33 158.23L323.17 171.45Z" fill="white"/>
<path d="M391.19 131.35C378.133 135.547 364.783 138.772 351.25 141C359.57 155.22 388.92 196.88 388.33 190.49C391.14 170.58 398.11 149.62 398.41 129.27C395.946 129.746 393.529 130.442 391.19 131.35V131.35Z" fill="#FF94AB"/>
<path d="M382.41 134.22C384.882 141.541 389.46 147.969 395.57 152.7C396.26 145.5 399.34 136.75 398.41 129.27C393.61 130.07 387.9 132.91 382.41 134.22V134.22Z" fill="#FFA6B9"/>
<path d="M383.56 164C375.28 157.75 368.76 148.31 364.19 138.48C358.4 139.9 351.5 141.48 351.25 141.02C359.09 154.92 369.39 168.4 379.57 181.28C381.87 183.69 384.79 190.63 388.01 191.34C389.73 183.98 390.63 176.97 392.4 169.39C389.311 167.838 386.354 166.035 383.56 164Z" fill="#EB889D"/>
<path d="M383.13 157.38L376.54 159L376.08 162.85C375.9 163.646 375.186 164.205 374.37 164.19C373.518 164.081 372.907 163.315 372.99 162.46L375.06 145C375.154 144.361 375.631 143.845 376.26 143.7C376.888 143.524 377.558 143.765 377.93 144.3L387.85 158.8C388.77 163.58 384 159.82 383.13 157.38V157.38ZM381.29 154.67L377.66 149.38L376.89 155.75L381.29 154.67Z" fill="white"/>
<path d="M439.82 111.75C427.596 117.97 414.932 123.284 401.93 127.65C412.41 140.36 448.03 176.8 446.42 170.59C446.03 150.48 449.57 128.68 446.61 108.59C444.257 109.439 441.985 110.497 439.82 111.75Z" fill="#A1D3F3"/>
<path d="M431.61 116C435.216 122.836 440.761 128.455 447.55 132.15C447.08 124.93 448.73 115.8 446.61 108.56C441.83 110.18 436.91 113.78 431.61 116Z" fill="#BFE6FF"/>
<path d="M437.49 145.18C428.32 140.32 420.37 132.05 414.3 123.07C408.81 125.4 402.25 128.07 401.93 127.65C411.93 140.11 424.2 151.78 436.31 162.87C438.96 164.87 442.95 171.27 446.25 171.46C446.77 163.91 446.54 156.85 447.08 149.09C443.782 148.05 440.575 146.742 437.49 145.18Z" fill="#90BCD9"/>
<path d="M434.52 126L432.31 135.46C438.56 147.38 432.57 147.1 429.48 136.66L421.2 131.66C420.546 131.209 420.353 130.328 420.759 129.645C421.165 128.962 422.031 128.71 422.74 129.07L429.69 133.22L431.53 125.34C431.781 124.595 432.554 124.159 433.321 124.329C434.089 124.498 434.606 125.219 434.52 126V126Z" fill="white"/>
<path d="M500 0C430.72 51.62 355.9 82.88 266.68 81.71C165.28 83.14 85.45 66.26 0 9.07V10.79C103.68 81.46 219.25 92 330.32 78.33C387.3 70.27 453.67 36.9 500 1.88C500 1.39 500 0.12 500 0V0Z" fill="#AA9E94"/>
<path d="M161.64 72C148.005 70.5333 134.495 68.0701 121.22 64.63C123.05 80.89 132.96 130.89 135.05 124.9C145.7 107.84 160.57 91.51 169.05 73.02C166.615 72.4603 164.135 72.1189 161.64 72V72Z" fill="#FF94AB"/>
<path d="M152.46 71.08C151.753 78.7753 153.332 86.5083 157 93.31C160.55 87.01 166.92 80.31 169.1 73.04C164.38 71.83 158 72.11 152.46 71.08V71.08Z" fill="#FFA6B9"/>
<path d="M141.44 98.75C136.44 89.66 134.28 78.46 134.08 67.57C128.22 66.57 121.26 65.19 121.22 64.65C122.72 81.1 127.09 97.75 131.02 114.28C132.29 117.73 131.81 123.64 134.43 125.55C138.99 119.55 142.65 113.47 147.34 107.26C145.141 104.592 143.167 101.745 141.44 98.75V98.75Z" fill="#EB889D"/>
<path d="M133.39 93.8C133.71 93.1 135.91 77.54 136.62 76.8C141.14 73.64 138.3 83.27 138.16 84.68L145.28 86C145.28 82.35 148.13 73.57 149.38 80.64C148.82 83.78 146.64 96.02 146.61 96.16C142.22 101.16 144.23 90.73 144.74 89.02L137.62 87.75C137.33 89.88 136.08 99.8 133.39 93.8V93.8Z" fill="#A5A5A5"/>
<path d="M133.39 93.8C133.71 93.1 135.91 77.54 136.62 76.8C141.14 73.64 138.3 83.27 138.16 84.68L145.28 86C145.28 82.35 148.13 73.57 149.38 80.64C148.82 83.78 146.64 96.02 146.61 96.16C142.22 101.16 144.23 90.73 144.74 89.02L137.62 87.75C137.33 89.88 136.08 99.8 133.39 93.8V93.8Z" fill="white"/>
<path d="M212.51 78.21C198.801 77.8459 185.138 76.4755 171.63 74.11C174.76 90.18 188.63 139.21 190.25 133.11C199.5 115.21 213 97.74 220 78.63C217.521 78.2649 215.014 78.1243 212.51 78.21V78.21Z" fill="#A1D3F3"/>
<path d="M203.28 78C203.189 85.7267 205.384 93.3078 209.59 99.79C212.59 93.22 218.42 85.98 220.01 78.61C215.15 77.8 209.07 78.58 203.28 78V78Z" fill="#BFE6FF"/>
<path d="M194.52 106.48C188.77 97.83 185.75 86.83 184.68 75.99C178.75 75.42 171.68 74.65 171.63 74.11C174.44 90.39 180.14 106.63 185.38 122.8C186.93 126.13 186.92 132.06 189.68 133.8C193.74 127.41 196.91 121.1 201.09 114.53C198.682 112.032 196.484 109.34 194.52 106.48V106.48Z" fill="#90BCD9"/>
<path d="M196.26 100.15L189.51 99.5L187.8 103C187.364 103.69 186.506 103.982 185.74 103.7C184.972 103.315 184.649 102.389 185.01 101.61L192.73 85.83C193.029 85.2534 193.655 84.9227 194.3 85C194.948 85.042 195.5 85.4861 195.68 86.11L200.24 103.11C200.451 103.943 199.958 104.791 199.13 105.02C197.4 105.8 196.6 101.44 196.26 100.15V100.15ZM195.41 97L193.74 90.81L190.91 96.57L195.41 97Z" fill="white"/>
<path d="M265.52 79.25C251.838 80.2031 238.104 80.1496 224.43 79.09C229.09 94.78 247.62 142.26 248.62 135.99C256.11 117.33 267.88 98.65 273.03 78.99C270.524 78.8521 268.01 78.9391 265.52 79.25V79.25Z" fill="#FF94AB"/>
<path d="M256.31 79.9401C256.973 87.6294 259.884 94.9536 264.68 101C267.07 94.2001 272.15 86.4401 273 79.0001C268.11 78.5901 262.13 80.0001 256.31 79.9401Z" fill="#FFA6B9"/>
<path d="M250.32 109.11C243.77 101.11 239.69 90.35 237.6 79.7C231.65 79.7 224.6 79.61 224.43 79.09C228.8 95 236 110.65 242.79 126.23C244.65 129.41 245.21 135.3 248.12 136.73C251.55 129.98 254.12 123.4 257.63 116.46C254.994 114.216 252.549 111.758 250.32 109.11V109.11Z" fill="#EB889D"/>
<path d="M250.93 99.63H247.5C247.91 102.73 247.31 110.96 244.4 105.5V89.26C251.6 81.72 264.78 96.63 250.93 99.63V99.63ZM247.5 96.53C249.77 96.53 253.5 97.06 253.84 93.68C253.95 90.74 249.9 90.56 247.5 90.78V96.53Z" fill="white"/>
<path d="M318.14 76.18C307.46 78 287.37 79.32 277.14 79.09C283 94.39 305 140.35 305.52 134C311.6 114.83 321.94 95.32 325.6 75.29C323.092 75.3678 320.596 75.6656 318.14 76.18V76.18Z" fill="#A1D3F3"/>
<path d="M309 77.56C310.219 85.2025 313.67 92.314 318.92 98C320.8 91 325.28 82.9 325.6 75.36C320.67 75.33 314.81 77.14 309 77.56Z" fill="#BFE6FF"/>
<path d="M305.21 107.1C298.08 99.56 293.21 89.18 290.33 78.72C284.39 79.16 277.33 79.6 277.15 79.09C282.69 94.66 291.06 109.69 298.98 124.73C301.07 127.73 302.07 133.59 305.07 134.8C307.99 127.8 310.07 121.06 313.07 113.88C310.269 111.839 307.64 109.571 305.21 107.1V107.1Z" fill="#90BCD9"/>
<path d="M304.65 97.59L301.23 97.85C301.87 100.91 301.89 109.16 298.57 103.94C298.44 102.17 297.44 88.74 297.36 87.74C304 79.68 318.23 93.57 304.65 97.59ZM301 94.76C303.26 94.62 307 94.84 307.1 91.44C307 88.51 302.94 88.62 300.57 89.02L301 94.76Z" fill="white"/>
<path d="M370.37 66.2C357.174 69.9356 343.721 72.6964 330.12 74.46C337.94 88.96 365.83 131.61 365.46 125.2C368.96 105.4 376.66 84.7 377.65 64.36C375.174 64.757 372.738 65.3728 370.37 66.2V66.2Z" fill="#FF94AB"/>
<path d="M361.5 68.76C363.706 76.1661 368.055 82.7531 374 87.69C374.94 80.52 378.32 71.88 377.64 64.36C372.83 65 367 67.64 361.5 68.76Z" fill="#FFA6B9"/>
<path d="M361.61 98.54C353.55 92.01 347.36 82.35 343.14 72.37C337.31 73.58 330.35 74.95 330.14 74.46C337.49 88.62 347.32 102.46 357.05 115.67C359.26 118.16 361.94 125.2 365.14 126.02C367.14 118.72 368.25 111.75 370.28 104.24C367.24 102.579 364.34 100.673 361.61 98.54V98.54Z" fill="#EB889D"/>
<path d="M363.08 79L359.08 87.85C362.9 100.75 357.08 99.33 356.08 88.48L348.92 82C348.375 81.4317 348.358 80.5402 348.881 79.9518C349.404 79.3633 350.292 79.2755 350.92 79.75L356.92 85.16L360.25 77.79C360.584 77.0085 361.489 76.6459 362.27 76.98C363.052 77.3142 363.414 78.2185 363.08 79V79Z" fill="white"/>
</svg>
