<svg width="178" height="187" viewBox="0 0 178 187" fill="none" xmlns="http://www.w3.org/2000/svg">
<path d="M30.0801 143.17C30.9401 150.56 17.8901 153.27 9.56011 151.22C8.32677 143.493 7.09344 135.77 5.86011 128.05C10.7301 125.61 18.7001 122.31 25.2901 126.76C28.0001 128.95 29.2201 135.46 23.9401 137.28C26.2001 137.62 29.5301 139 30.0801 143.17ZM17.5001 140.31C17.1587 140.357 16.8234 140.441 16.5001 140.56L17.0101 144.68C19.5501 145.8 23.0501 140.34 17.5001 140.31ZM19.3401 134.06C19.107 133.288 18.4944 132.689 17.7173 132.474C16.9401 132.259 16.1069 132.458 15.5101 133C15.6701 134.34 15.8201 135.68 15.9701 137C16.5101 136.83 19.5201 136.63 19.3401 134.06Z" fill="#003F59"/>
<path d="M38.8302 123C39.1836 131.273 39.5536 139.547 39.9402 147.82C37.3902 148.2 34.8402 148.61 32.2902 149.03C31.1102 140.877 29.9236 132.727 28.7302 124.58C32.0902 124 35.4602 123.47 38.8302 123Z" fill="#003F59"/>
<path d="M63.2401 129.26C63.5985 132.58 62.0095 135.809 59.1601 137.55C60.7935 140.03 62.4068 142.513 64.0001 145C61.2801 145.667 58.5701 146.367 55.8701 147.1C54.7501 144.58 53.6301 142.1 52.4801 139.56L50.1901 139.81L50.4601 147.39C47.8401 147.6 45.2201 147.82 42.6101 148.07C42.0601 140 41.3901 132.18 40.9001 123.28C46.8001 120.45 62.2301 117.85 63.2401 129.26V129.26ZM54.8201 130.35C54.8801 128.5 52.8201 126.22 49.7401 127.35C49.8201 129.61 49.8901 131.87 49.9701 134.13C51.6201 134 54.8801 133.49 54.8201 130.35Z" fill="#003F59"/>
<path d="M84.44 120.43L84.35 128.16C82.47 128.25 80.6 128.36 78.72 128.48C78.6267 134.12 78.5434 139.757 78.47 145.39C75.89 145.59 73.32 145.81 70.76 146.05C70.3 140.43 69.8367 134.81 69.37 129.19C67.49 129.36 65.62 129.55 63.75 129.74L63.54 121.14C70.5134 120.773 77.48 120.537 84.44 120.43V120.43Z" fill="#003F59"/>
<path d="M107.55 145.58C104.49 145.627 101.437 145.707 98.3901 145.82C98.3901 143.253 98.3901 140.69 98.3901 138.13H94.1201C94.0201 140.797 93.9235 143.463 93.8301 146.13C91.1035 146.13 88.3735 146.13 85.6401 146.13C85.7735 137.59 85.9168 129.053 86.0701 120.52C89.0701 120.62 92.1601 120.75 95.2001 120.9C94.9801 125.26 94.7635 129.617 94.5501 133.97H98.7001C98.7801 129.41 98.8535 124.847 98.9201 120.28C101.84 120.393 104.753 120.527 107.66 120.68C107.647 128.98 107.61 137.28 107.55 145.58V145.58Z" fill="#003F59"/>
<path d="M131 133C130.5 143.69 119.41 147.24 109.14 145.62C109.58 137.733 110.023 129.84 110.47 121.94C118.09 119.72 132.12 121.26 131 133ZM117.9 139.2C122.56 139.53 126.67 129.75 119.17 128.69C118.75 132.23 118.33 135.74 117.91 139.24L117.9 139.2Z" fill="#003F59"/>
<path d="M153.3 148.12C150.24 148.12 147.184 148.177 144.13 148.29L143.44 144.09L139.24 143.69C138.81 145.03 138.39 146.37 137.96 147.69C134.89 147.11 131.8 146.56 128.71 146.04C131.71 138.14 134.82 130.27 138.04 122.43C141.6 122.557 145.16 122.723 148.72 122.93C150.36 131.323 151.887 139.72 153.3 148.12V148.12ZM143.3 138.47C143.04 136.33 142.76 134.18 142.49 132.03C141.82 134.09 141.17 136.15 140.49 138.21L143.3 138.47Z" fill="#003F59"/>
<path d="M177.52 128.16C173.82 132.287 170.193 136.457 166.64 140.67C166.24 144.08 165.85 147.5 165.45 150.91C162.34 150.47 159.22 150.06 156.11 149.67C156.6 146.29 157.11 142.92 157.59 139.54C155.877 134.793 154.11 130.05 152.29 125.31H162.14C162.82 128.04 163.48 130.78 164.14 133.51C165.58 131.057 167.037 128.61 168.51 126.17C171.503 126.81 174.507 127.473 177.52 128.16V128.16Z" fill="#003F59"/>
<path d="M155.17 186.1C112.801 179.39 69.6392 179.39 27.2699 186.1C29.6632 180.933 32.1699 175.787 34.7899 170.66C30.9232 166.54 26.9566 162.473 22.8899 158.46C68.1577 151.29 114.272 151.29 159.54 158.46C155.46 162.54 151.487 166.67 147.62 170.85C150.253 175.91 152.77 180.993 155.17 186.1V186.1Z" fill="#00DFB3"/>
<path d="M69.6901 165.38C69.9601 168.93 66.4101 171.45 61.8301 171.68C61.9501 173.3 62.0601 174.91 62.1701 176.53C60.3801 176.66 58.5801 176.79 56.7801 176.94C56.4401 172.42 55.9901 167.73 55.6101 161.43C59.6501 160 68.7501 158.1 69.6901 165.38ZM64.4401 166.07C64.3501 165.07 63.3201 164.17 61.6401 164.82L61.7301 168.15C62.5601 168 64.2601 168.24 64.4401 166.07Z" fill="white"/>
<path d="M84.42 174.43C82.5 174.697 80.5867 174.983 78.68 175.29L77.9 172.74C77.01 172.74 76.13 172.8 75.24 172.83L74.76 175.43C72.76 175.317 70.76 175.217 68.76 175.13C70.0333 170.003 71.3667 164.873 72.76 159.74C74.99 159.53 77.22 159.35 79.45 159.18C81.15 164.253 82.8067 169.337 84.42 174.43ZM77.42 169.26C77.07 167.95 76.73 166.64 76.42 165.33C76.17 166.66 75.93 167.99 75.69 169.33L77.42 169.26Z" fill="white"/>
<path d="M98.4601 164.42C98.5337 166.513 97.3923 168.461 95.5301 169.42C96.4501 171.04 97.3501 172.67 98.2501 174.29C96.5001 174.6 94.7501 174.91 93.0101 175.29C92.4201 173.67 91.8301 172.05 91.2201 170.43L89.7701 170.48C89.7001 172.06 89.6401 173.64 89.5801 175.22C87.9101 175.22 86.2501 175.22 84.5801 175.27C84.5801 170.32 84.5801 165.69 84.7101 159.71C88.6201 158.48 97.7801 156.68 98.4601 164.42V164.42ZM93.1301 164.73C93.1403 163.998 92.7856 163.309 92.1838 162.891C91.5821 162.474 90.8122 162.384 90.1301 162.65L89.9501 166.89C90.6501 166.68 92.7501 167.21 93.1301 164.73Z" fill="white"/>
<path d="M112.13 159.78C112.02 161.39 111.9 163 111.78 164.6H108.23C107.937 168.12 107.657 171.64 107.39 175.16C105.75 175.16 104.11 175.21 102.48 175.25C102.48 171.72 102.37 168.19 102.32 164.66L98.77 164.76L99.01 159.38C103.383 159.447 107.757 159.58 112.13 159.78V159.78Z" fill="white"/>
<path d="M127.6 161.45C125.473 164.203 123.383 166.97 121.33 169.75L121.03 176.2C119.03 176.05 117.03 175.92 115.03 175.81L115.54 169.42C114.273 166.52 112.973 163.627 111.64 160.74C113.687 160.587 115.743 160.457 117.81 160.35C118.35 162.03 118.88 163.697 119.4 165.35C120.2 163.75 121.007 162.16 121.82 160.58C123.767 160.86 125.693 161.15 127.6 161.45V161.45Z" fill="white"/>
<path d="M158.13 103.08L92.9399 77L155.65 13.83C156.44 42.22 157.35 74.8 158.13 103.08Z" fill="#009BCD"/>
<path d="M158.13 103.08L92.9399 77L98.8799 71L157.41 77.21L158.13 103.08Z" fill="#FF458F"/>
<path d="M157.07 64.69L114.95 54.86L131.77 37.92L156.74 52.76L157.07 64.69Z" fill="#FFC800"/>
<path d="M156.15 31.47L146.48 23.09L155.66 13.85L156.15 31.47Z" fill="#FF458F"/>
<path opacity="0.4" d="M106.84 82.59L92.9399 77L155.65 13.83L106.84 82.59Z" fill="white"/>
<path d="M158.13 103.08C142.13 102.94 109.43 99.08 92.9399 77.08C92.9399 77 134.06 75.62 158.13 103.08Z" fill="#007E9D"/>
<path opacity="0.249488" d="M153.58 100.8C141.88 100.13 113.96 96.6999 97.49 79.3199C108.17 79.8399 134.57 83 153.58 100.8Z" fill="black"/>
<path d="M168.83 11.78L161.69 14.05L159.5 21.21L155.14 15.12L147.65 15.26L152.1 9.23L149.65 2.15L156.76 4.51L162.74 0L162.69 7.49L168.83 11.78Z" fill="#FFAC00"/>
<path d="M84.9301 92.83L18.3501 115.13C20.6301 86.05 23.0401 55.5 25.3501 26.4L84.9301 92.83Z" fill="#FF458F"/>
<path d="M30.06 90.21C27.9165 93.5735 23.8855 95.2204 20 94.32C20.36 89.74 21.1 80.32 21.46 75.74C28.46 74.91 34.37 83.84 30.06 90.21V90.21Z" fill="#FFC800"/>
<path d="M49.3901 53.2C41.0901 56.92 32.9401 47.49 37.3901 39.84L49.3901 53.2Z" fill="#FFC800"/>
<path d="M75.3 82.09C66.3 91.95 54.12 77.2 64.56 70.09L75.3 82.09Z" fill="#FFC800"/>
<path d="M48.8199 71.89C44.4199 78.12 35.5299 72.04 39.1899 65.75C43.5799 59.52 52.4699 65.6 48.8199 71.89Z" fill="#FFA000"/>
<path d="M29.2 56.5C27.8366 58.6447 25.218 59.6277 22.78 58.91L23.65 47.77C27.52 47 32.06 52.34 29.2 56.5V56.5Z" fill="#FFA000"/>
<path d="M51.2301 91.44C48.4401 95.57 41.8701 91.86 44.4201 87.09C47.2101 83 53.7801 86.67 51.2301 91.44Z" fill="#FFA000"/>
<path opacity="0.4" d="M32.5501 110.37L18.3501 115.13C20.5501 87.13 23.1201 54.43 25.3501 26.41L32.5501 110.37Z" fill="white"/>
<path d="M84.9301 92.83C72.6501 103.07 45.1501 121.24 18.3501 115.13C18.3501 115.13 48.8001 87.45 84.9301 92.83Z" fill="#AC125B"/>
<path opacity="0.249488" d="M80.0001 94C70.6501 101 47.1401 116.5 23.3401 113.88C31.7901 107.42 54.0001 92.74 80.0001 94Z" fill="black"/>
<path d="M33.9401 16.21L29.9501 22.55L32.9201 29.43L25.6601 27.61L20.0401 32.55L19.5301 25.08L13.0801 21.26L20.0301 18.47L21.6701 11.16L26.4801 16.91L33.9401 16.21Z" fill="#C692F1"/>
<path d="M117.8 105.2C114 105.2 113.99 111.11 117.8 111.11C121.61 111.11 121.61 105.2 117.8 105.2Z" fill="#C692F1"/>
<path d="M171.68 56.1899C167.88 56.1899 167.87 62.0999 171.68 62.0999C175.49 62.0999 175.49 56.1899 171.68 56.1899Z" fill="#FFC800"/>
<path d="M2.85 82.4C-0.95 82.4 -0.95 88.31 2.85 88.31C6.65 88.31 6.66 82.4 2.85 82.4Z" fill="#009BCD"/>
<path d="M99.5501 95.89C96.8101 95.89 96.8101 100.14 99.5501 100.14C102.29 100.14 102.29 95.89 99.5501 95.89Z" fill="#FF458F"/>
<path d="M166.72 75.61C163.98 75.61 163.98 79.86 166.72 79.86C169.46 79.86 169.46 75.61 166.72 75.61Z" fill="#00DFB3"/>
<path d="M14 70.11C11.27 70.11 11.26 74.36 14 74.36C16.74 74.36 16.78 70.11 14 70.11Z" fill="#00DFB3"/>
<path d="M84.3401 104C83.4951 104 82.8101 104.685 82.8101 105.53C82.8101 106.375 83.4951 107.06 84.3401 107.06C84.8867 107.06 85.3918 106.768 85.6651 106.295C85.9384 105.822 85.9384 105.238 85.6651 104.765C85.3918 104.292 84.8867 104 84.3401 104Z" fill="#00DFB3"/>
<path d="M164.67 43.14C163.87 43.2046 163.254 43.8726 163.254 44.675C163.254 45.4775 163.87 46.1454 164.67 46.21C165.47 46.1454 166.086 45.4775 166.086 44.675C166.086 43.8726 165.47 43.2046 164.67 43.14Z" fill="#FF458F"/>
<path d="M8.10009 99.26C7.30025 99.3246 6.68408 99.9926 6.68408 100.795C6.68408 101.597 7.30025 102.265 8.10009 102.33C8.89992 102.265 9.51609 101.597 9.51609 100.795C9.51609 99.9926 8.89992 99.3246 8.10009 99.26Z" fill="#FFC800"/>
<path d="M139.35 108.07C136.54 108.07 136.53 112.43 139.35 112.43C142.17 112.43 142.16 108.07 139.35 108.07Z" fill="#FFC800"/>
<path d="M89.9999 59.65C90.3099 62.32 89.9999 65.48 88.2799 67.56C84.0799 62.4 76.1699 68.83 71.1699 64.94C71.5354 64.5253 71.8697 64.0841 72.1699 63.62C77.7899 63.17 82.9099 56.28 89.9999 59.65Z" fill="#00DFB3"/>
<path d="M86.8901 58.92L86.4401 66.33C85.7751 65.9817 85.0698 65.7164 84.3401 65.54L84.7401 58.89C85.4563 58.8398 86.1755 58.8499 86.8901 58.92V58.92Z" fill="#37F8CB"/>
<path d="M83 59.1L82.63 65.27C80.8184 65.254 79.0169 65.5413 77.3 66.12L77.57 61.7C79 60.87 80.32 59.66 83 59.1V59.1Z" fill="#37F8CB"/>
<path d="M93.6599 34.17C95.6599 35.38 97.6599 37.3 98.2199 39.58C92.3099 39.84 92.8199 48.36 87.2899 50.02C87.1931 49.5502 87.0593 49.0888 86.8899 48.64C89.7799 44.29 87.2399 37.72 93.6599 34.17V34.17Z" fill="#FF458F"/>
<path d="M91.5001 35.9301L96.3901 40.1901C95.7948 40.4542 95.234 40.79 94.7201 41.1901L90.3301 37.4001C90.6841 36.8825 91.0751 36.3912 91.5001 35.9301Z" fill="#FF97C8"/>
<path d="M89.57 38.6899L93.64 42.2399C92.6615 43.4829 91.9007 44.8827 91.39 46.3799L88.48 43.8399C88.4944 42.0676 88.8651 40.3162 89.57 38.6899Z" fill="#FF97C8"/>
<path d="M62.26 40.6501C63.7053 39.6558 65.4774 39.2548 67.21 39.5301C65.45 42.9201 70.89 45.9101 70.21 49.9401C69.8832 49.8443 69.5486 49.7773 69.21 49.7401C67.6 46.4001 62.81 46.6401 62.26 40.6501V40.6501Z" fill="#C692F1"/>
<path d="M62.6699 42.6L66.9999 40.9C66.9817 41.3694 67.0186 41.8393 67.1099 42.3L63.2299 43.83C63.0089 43.4366 62.8216 43.0251 62.6699 42.6V42.6Z" fill="#E1C0FF"/>
<path d="M63.79 44.75L67.39 43.33C67.8607 44.3615 68.4994 45.3077 69.28 46.13L66.7 47.13C65.81 46.37 65.7 47 63.79 44.75V44.75Z" fill="#E1C0FF"/>
</svg>
