<svg width="164" height="132" viewBox="0 0 164 132" fill="none" xmlns="http://www.w3.org/2000/svg">
<path fill-rule="evenodd" clip-rule="evenodd" d="M25.4514 95.6751C23.3154 95.1471 20.2793 95.8491 20.2323 98.9891C20.7583 103.038 24.8434 96.8491 25.4514 95.6751V95.6751ZM129.014 105.383C131.738 103.092 134.065 99.0581 134.117 96.6831C130.292 99.3421 128.347 102.533 129.014 105.383ZM99.7624 69.6081C95.7464 71.6771 92.8444 81.6951 94.9644 86.0431C97.1674 80.6611 97.8894 75.0861 99.7624 69.6081ZM121.474 68.2581C117.487 72.3811 115 80.6751 116.112 85.7881C119.474 81.3191 120.029 75.6351 122.529 70.4741C122.254 69.9281 122.628 70.5491 121.474 68.2581V68.2581ZM83.7794 56.6751C80.0064 61.8841 78.8813 67.5971 77.9173 73.6601C82.9513 69.9761 85.7854 61.9331 83.7794 56.6751ZM67.9293 86.8871C68.1653 86.9331 68.4003 86.9781 68.6373 87.0241C72.7973 81.2361 72.5983 73.9961 74.3593 66.6091C72.7343 66.9081 71.4113 67.1521 69.8623 67.4361C69.2143 73.9611 68.5713 80.4241 67.9293 86.8871V86.8871ZM62.0543 66.5441C60.2893 73.4461 58.5153 81.1961 57.9693 89.1761C58.1333 89.2221 58.2983 89.2661 58.4623 89.3121C63.8813 83.0011 64.5973 75.4361 65.8353 66.8651C64.3653 66.7401 63.1743 66.6391 62.0543 66.5441V66.5441ZM18.6703 93.8891C21.4693 93.6321 23.7853 93.4191 26.3443 93.1841C27.7333 88.8291 28.6254 82.1141 24.8484 77.9511C23.1234 78.6301 21.7263 79.1791 20.1603 79.7951C19.6693 84.4371 19.1673 89.1871 18.6703 93.8891V93.8891ZM21.2214 75.4811C25.3004 71.8571 31.5894 60.9031 27.8464 56.4881C24.9554 61.7181 21.1433 69.1051 21.2643 75.5401C21.1573 75.5401 21.0503 75.5391 20.9413 75.5381L21.0444 75.8201C21.1024 75.7071 21.1624 75.5941 21.2214 75.4811V75.4811ZM32.7494 91.4691C44.3634 85.4021 35.4904 70.6471 42.5984 69.3681C45.2584 73.9271 41.6663 81.5971 44.2733 87.4061C47.1013 84.1861 50.7693 74.9041 51.2733 69.9181C42.0454 65.5711 58.0743 52.5511 54.8923 67.7361C55.6973 67.6561 56.3883 67.5871 57.2823 67.4981C58.0333 63.3781 62.1143 64.4671 66.0013 64.3261C67.6623 58.5031 72.2454 53.8991 70.6474 64.6341C72.9704 64.1681 75.4554 62.0511 77.3534 59.7551C92.0874 41.9271 88.8794 74.6091 77.4064 76.9531C77.2774 78.3921 77.1524 79.7791 76.9754 81.7501C86.4254 70.0741 86.2224 80.3901 85.5114 89.5741C90.8564 83.6001 89.0014 68.3781 100.343 67.8281C101.026 65.8631 101.858 63.5211 103.452 60.6471C101.095 60.1751 98.7074 60.9411 96.9414 59.2441C94.6094 61.0341 94.0664 62.2861 94.8684 63.8271C88.4724 66.1071 90.4994 53.4391 102.11 58.2001C106.679 57.4261 106.774 52.1051 112.316 51.7681C107.119 64.1711 102.273 78.2331 104.966 92.1011C110.628 85.8641 110.783 75.9011 116.462 68.9791C130.406 59.8461 122.912 79.2551 124.825 85.4981C130.247 79.5601 130.882 58.5041 136.898 62.5721C136.166 67.5891 134.068 73.0621 134.952 79.0871C140.149 75.7431 140.674 58.8411 146.598 63.1621C145.522 71.4521 144.375 79.7851 142.447 87.9921L142.383 88.6541C142.557 88.5721 142.733 88.4901 142.908 88.4091C151.889 81.2391 154.475 68.4111 151.059 57.2201C155.266 54.8891 156.111 60.1851 156.886 64.0031C158.905 76.2141 151.864 87.3691 141.101 93.1241C134.978 113.883 118.829 110.729 125.831 99.9181C138.055 88.5031 135.822 94.1921 139.491 78.9611C137.004 81.6151 134.505 82.7431 131.3 81.0131C129.583 84.5821 127.791 90.5861 121.987 89.6401C121.428 88.6241 120.861 87.5951 120.128 86.2641C118.603 89.1561 114.59 91.2221 111.245 88.2501C109.07 96.4691 98.8344 99.5271 99.0864 88.1571C96.6684 89.3631 93.0784 92.0941 90.3284 88.4221C85.0814 101.618 80.0184 91.7391 81.4364 81.8161C78.6064 84.6451 79.0384 89.2761 76.3504 93.0391C73.1144 94.9231 71.8553 92.5561 71.7613 88.6611C70.0873 92.3311 67.8473 93.4751 64.4603 91.8121C64.1043 90.7801 63.6854 89.5661 63.1464 88.0041C50.0344 107.825 53.5303 77.3751 56.7453 69.5171C55.6663 69.7961 55.0043 69.9661 54.3563 70.1331C53.0573 76.5851 47.7993 98.0741 40.1413 88.3251C37.3753 91.6081 32.7054 93.5491 29.6784 97.5361C26.5734 103.698 20.4874 104.048 14.5984 101.044C13.5294 84.6131 16.8323 21.8151 19.8403 66.3231C22.0193 61.2381 26.4233 49.0201 32.5163 57.7291C33.6393 64.6261 29.6883 70.4421 26.0493 75.8171C32.4533 77.3611 33.0213 84.8951 32.3243 90.9971C32.2823 91.1971 32.2393 91.3981 32.1973 91.5981C32.3813 91.5551 32.5644 91.5121 32.7494 91.4691" fill="#0C0C0C"/>
<path fill-rule="evenodd" clip-rule="evenodd" d="M65.3928 119.483C67.3208 120.874 68.5748 120.737 70.7028 119.029C67.9638 117.329 66.9918 117.392 65.3928 119.483ZM88.9108 111.093C93.8398 113.233 100.92 114.308 105.406 110.216C116.902 94.0188 93.0208 104.451 88.9108 111.093ZM80.7718 111.412C52.4078 94.0818 36.9248 109.091 43.9418 120.846C35.9528 121.738 37.4298 109.48 42.1148 105.94C54.2428 95.9968 70.4918 101.756 83.1518 108.381C90.0828 104.804 97.2178 97.2408 106.62 98.6088C119.036 100.356 113.932 110.078 106.964 113.731C100.468 116.51 93.0328 116.608 86.2918 113.598C84.0448 115.515 81.9628 117.291 79.6538 119.261C82.6108 119.965 86.5218 125.074 90.0848 122.776C93.7008 119.517 104.127 120.477 97.0968 126.417C89.3778 128.081 79.2998 135.787 72.2308 129.241C75.9768 127.198 81.2228 130.799 85.1188 126.263C80.9708 125.061 77.7348 120.979 72.6598 122.64C65.5228 125.453 51.4748 120.031 64.3118 115.611C72.7848 114.099 74.4718 118.949 80.7718 111.412" fill="#0C0C0C"/>
<path fill-rule="evenodd" clip-rule="evenodd" d="M43.7932 21.8631C46.4272 22.1271 48.9063 21.9791 51.5803 21.9351C52.9063 16.9711 51.9962 -0.511921 56.6392 1.57708C58.9112 9.57108 56.2442 19.5381 56.5492 28.6021C55.9732 32.9571 56.7412 47.1821 50.7992 40.7931C50.1732 35.2241 51.3283 29.8481 51.3453 24.0651C48.9103 23.9081 46.5692 23.7571 44.0922 23.5971C42.4102 28.8041 45.5463 48.8761 37.0752 44.4581C37.0653 30.1171 39.6843 15.5951 41.0523 0.771079C47.1783 -4.56292 43.6832 19.4381 43.7932 21.8631" fill="#0C0C0C"/>
<path fill-rule="evenodd" clip-rule="evenodd" d="M5.21405 43.5046C9.77205 39.8076 14.73 39.6746 19.911 40.5666C15.066 34.5996 5.59305 34.6746 5.21405 43.5046V43.5046ZM23.562 36.0566C24.028 30.1556 25.382 22.5726 20.486 17.3566C18.861 24.2746 20.726 30.2166 23.562 36.0566ZM17.403 34.8886C10.801 17.0716 21.209 6.35963 26.565 22.5956C28.508 29.4096 25.08 36.1176 27.196 42.9586C23.449 47.7336 17.385 40.7696 12.267 43.0346C-8.99895 55.6366 0.451046 28.0896 17.403 34.8886Z" fill="#0C0C0C"/>
<path fill-rule="evenodd" clip-rule="evenodd" d="M139.522 32.641C141.845 27.376 145.182 21.987 147.177 16.06C141.126 20.111 140.098 26.339 139.522 32.641ZM139.632 44.239C145.773 43.616 158.749 38.788 159.686 32.157C151.286 33.284 145.043 37.87 139.632 44.239ZM135.132 45.297C137.343 35.629 133.534 16.397 147.876 14.208C154.897 14.673 141.15 33.066 141.526 37.711C182.054 14.967 157.209 52.274 135.132 45.297Z" fill="#0C0C0C"/>
<path fill-rule="evenodd" clip-rule="evenodd" d="M68.2589 11.8016C66.6539 17.7596 65.0489 23.7166 63.3649 29.9666H69.8069C69.7349 23.8266 69.8939 17.5776 69.1999 11.3446L69.1299 9.90456C69.0169 9.89156 68.9039 9.87856 68.7899 9.86556C68.6129 10.5106 68.4359 11.1556 68.2589 11.8016V11.8016ZM70.3979 42.4556C70.1799 38.8936 69.9609 35.3206 69.7279 31.5066H63.1109C62.4879 34.6756 61.8219 38.0636 61.1219 41.6206C60.3689 41.6586 59.6799 41.6946 58.6689 41.7466C60.0569 24.1746 71.9509 -22.3004 75.0109 22.8796C74.3649 28.6156 79.9549 45.5896 70.3979 42.4556Z" fill="#0C0C0C"/>
<path fill-rule="evenodd" clip-rule="evenodd" d="M86.1155 28.662C92.8885 23.883 92.8235 7.93703 86.1155 4.44903V28.662ZM85.9555 31.684C85.8315 35.243 85.7525 38.808 83.9715 41.992C81.1045 42.02 80.3955 42.042 80.6565 39.03C81.2715 27.146 81.4965 15.201 82.7925 2.71503C96.9045 -1.04797 99.8485 28.57 85.9555 31.684V31.684Z" fill="#0C0C0C"/>
<path fill-rule="evenodd" clip-rule="evenodd" d="M101.964 24.7538C102.155 24.7898 102.346 24.8248 102.537 24.8608C106.154 19.5668 109.75 9.0208 103.309 4.5358C102.852 11.3998 102.408 18.0768 101.964 24.7538ZM99.7591 3.2788C116.968 0.631802 111.026 24.2458 101.745 30.6638C100.631 34.3818 103.506 39.5988 99.2571 42.4858C92.4231 45.1948 100.039 5.3828 99.7591 3.2788" fill="#0C0C0C"/>
<path fill-rule="evenodd" clip-rule="evenodd" d="M114.977 3.70103C120.335 1.60103 118.478 15.124 119.855 18.363C122.322 14.646 121.694 8.34703 125.522 4.70603C129.176 3.61003 126.259 9.32803 125.897 11.97C121.926 22.543 120.332 31.617 119.122 43.114H116.543C116.038 30.376 114.542 17.362 114.977 3.70103" fill="#0C0C0C"/>
<path fill-rule="evenodd" clip-rule="evenodd" d="M43.6546 61.5677C43.5956 64.8137 42.4676 65.6297 39.2696 64.7057C38.2106 62.5417 40.0766 60.0387 43.6546 61.5677Z" fill="#0C0C0C"/>
<path fill-rule="evenodd" clip-rule="evenodd" d="M23.5616 36.057C20.7256 30.217 18.8616 24.274 20.4866 17.356C24.8776 21.733 24.3166 29.641 23.5616 36.057Z" fill="#4CC7E9"/>
<path fill-rule="evenodd" clip-rule="evenodd" d="M5.21411 43.5047C5.55111 34.5197 15.1461 34.7517 19.9111 40.5667C14.7301 39.6747 9.77211 39.8077 5.21411 43.5047" fill="#4ECBED"/>
<path fill-rule="evenodd" clip-rule="evenodd" d="M139.632 44.2386C145.043 37.8706 151.285 33.2836 159.686 32.1566C157.701 39.5046 147.064 43.0596 139.632 44.2386Z" fill="#4ECEF1"/>
<path fill-rule="evenodd" clip-rule="evenodd" d="M139.522 32.6409C140.098 26.3389 141.126 20.1109 147.177 16.0599C145.55 21.0249 141.903 27.3889 139.522 32.6409Z" fill="#4CC7E9"/>
</svg>
