<svg width="204" height="135" viewBox="0 0 204 135" fill="none" xmlns="http://www.w3.org/2000/svg">
<path fill-rule="evenodd" clip-rule="evenodd" d="M48.6139 92.8229C48.2789 93.4029 47.7119 93.2479 48.3769 93.9809C48.4269 93.7339 48.4779 93.4859 48.6139 92.8229ZM66.5549 74.3899C67.5549 70.9869 68.3279 67.7209 66.4699 64.1279C61.9199 61.3089 60.4239 74.6119 66.5549 74.3899ZM162.508 131.583C166.7 129.874 172.217 123.048 173.822 117.555C166.959 116.646 156.994 124.254 162.508 131.583ZM100.589 81.1809C107.883 79.3349 114.907 69.3609 109.662 61.9359C104.897 65.0799 100.653 74.1029 100.589 81.1809V81.1809ZM149.35 99.7799C149.549 99.8609 149.747 99.9429 149.945 100.024C175.282 64.8969 151.069 71.7359 149.35 99.7799ZM132.368 79.5579C125.34 83.1619 119.954 97.4259 124.132 103.472C128.322 99.1469 129.536 93.5279 131.799 88.3409C131.006 88.1389 130.348 87.9729 129.505 87.7609C131.27 85.3019 134.184 83.4329 132.368 79.5579V79.5579ZM18.8349 87.3399C27.1859 83.2889 33.2779 65.0459 27.1859 58.5809C19.5939 65.3849 17.8399 77.0269 18.8349 87.3399ZM14.8439 102.464C11.4459 103.344 10.6289 108.511 12.5569 111.641C18.8279 121.279 32.8229 112.891 35.8269 103.93C30.3909 105.995 25.7059 103.51 20.6209 102.361C22.8429 112.605 16.5449 112.825 14.8439 102.464V102.464ZM76.7329 77.7769C74.6719 86.7069 70.2089 96.1359 70.7389 105.894C81.8579 99.0469 79.4789 84.9979 83.9229 73.6789C81.3379 73.2029 78.9079 72.7549 76.4849 72.3079C75.5489 74.5239 76.0819 76.2859 76.7329 77.7769V77.7769ZM20.3419 99.6699C48.5769 111.691 41.0859 77.7979 30.6469 83.4609C26.2409 85.7889 25.3299 91.3569 19.2739 91.7799C19.6469 94.5369 20.0019 97.1519 20.3419 99.6699V99.6699ZM95.4679 73.7859C93.1629 74.1689 90.8569 74.5519 88.5239 74.9389C85.6559 82.3909 83.4879 97.2559 84.8389 100.697C94.1959 92.9679 92.6859 84.3229 95.9709 74.2099C95.9929 73.9999 96.0129 73.7889 96.0339 73.5779L95.4679 73.7859ZM178.776 102.236C177.139 104.002 175.165 104.386 172.611 104.386C169.199 104.063 168.83 100.459 168.49 96.9379C166.435 101.085 159.11 105.842 156.189 99.1429C153.932 102.552 149.321 106.838 144.673 102.776C140.422 110.255 131.293 114.895 130.697 102.612C127.611 106.189 121.947 108.444 118.106 103.731C110.247 111.245 106.446 103.335 107.038 95.8329C106.774 93.3559 107.385 88.1529 106.469 85.3499C101.226 89.6629 99.3169 97.3509 101.718 104.229C101.678 105.654 103.238 107.246 100.919 107.594C94.6209 109.498 93.9579 100.916 93.0349 96.8399C89.6319 100.364 84.4819 107.993 79.4049 101.424C73.3959 109.066 64.1929 112.575 65.5649 98.6679C65.1499 93.7929 75.3319 74.3699 69.4349 76.0899C66.0609 85.6789 63.2859 97.0109 56.0989 105.496C46.0909 110.806 48.4969 100.591 48.2359 93.9399C47.8429 94.2829 47.4219 94.6279 47.0489 95.0009C24.7339 142.102 -8.58112 104.775 14.8679 99.7459C12.4849 85.7079 10.7889 71.5519 9.78688 57.3479C10.8689 57.3469 11.9509 57.3449 13.0319 57.3439C14.1309 62.3719 15.2289 67.3979 16.3269 72.4249C24.3099 43.1709 41.1419 59.5049 31.4579 80.3239C38.3359 79.0859 45.5029 85.2919 44.8859 92.7529C48.4059 88.6769 49.8269 82.3559 52.1869 77.1829C60.2269 72.9969 49.8689 100.715 52.7179 104.385C56.4979 101.185 64.1439 85.2249 66.2139 76.5819C43.5389 71.8459 74.0479 46.9949 69.6399 73.9429C70.1659 73.9839 70.6039 74.0179 71.0199 74.0519C77.7299 62.4269 83.3069 79.7649 87.9649 63.0919C88.5229 62.1739 89.1399 62.0389 91.2209 62.4379C91.6609 65.7199 89.5139 68.5699 89.3949 71.8839C92.5399 72.7459 95.3409 71.1099 98.1219 68.5029C118.131 43.3989 120.767 80.5969 99.9629 83.2679C99.7839 84.6249 99.5959 86.0529 99.3529 87.9019C115.96 71.4949 109.807 94.5509 112.677 104.138C117.467 102.392 116.283 99.2749 117.05 94.7499C119.303 85.9949 124.936 75.7889 135.219 78.2229C136.067 76.3489 136.926 74.4509 137.964 72.1529C132.142 73.4199 128.009 70.7809 124.285 66.9719C122.004 68.1369 120.448 69.7559 119.186 71.9579H116.232C123.651 52.4219 133.478 80.0819 141.077 64.8359C142.063 63.6059 143.096 63.0289 145.46 63.9109C142.45 78.1659 133.337 97.7479 137.012 107.08C145.287 99.2829 142.744 95.5919 146.51 86.3189C148.815 78.4829 161.401 67.7379 165.602 77.6769C164.411 84.6919 158.949 93.1799 161.698 99.8569C169.091 92.8979 175.246 69.2179 180.986 71.1039C178.126 80.7129 173.692 90.1509 174.148 100.815C187.438 91.4699 186.25 68.1039 193.819 73.9929C189.873 87.3009 185.904 100.682 181.843 114.377C190.047 113.546 198.994 108.546 201.207 99.5649H203.301C202.416 110.72 190.99 115.545 180.619 116.843C170.658 141.668 149.331 136.565 157.901 121.585C170.256 108.474 174.773 124.475 179.682 102.798C179.794 102.242 179.94 100.376 178.776 102.236V102.236Z" fill="#0C0C0C"/>
<path fill-rule="evenodd" clip-rule="evenodd" d="M127.781 36.6189C128.474 35.9489 129.168 35.2789 130.15 34.3299C128.165 34.2249 127.598 35.0289 127.781 36.6189ZM105.973 34.0089C104.412 33.2849 102.558 33.8419 103.325 36.6079C104.228 35.7219 104.931 35.0319 105.973 34.0089ZM39.6588 48.2299C43.7428 43.6169 44.7688 37.9339 45.9488 32.1329C39.8058 33.0899 34.4468 43.3069 39.6588 48.2299ZM137.809 14.7649C130.881 15.8599 128.389 26.7099 125.602 32.8449C134.996 34.2119 137.536 22.6479 137.809 14.7649ZM75.2018 36.7519C79.4808 33.3359 82.3518 27.2789 84.7348 22.0429C87.3218 19.4589 89.2978 16.6759 87.2038 12.3829C78.2428 15.1629 73.9028 28.9719 75.2018 36.7519ZM99.0698 33.4609C101.551 30.9449 104.921 31.9279 108.049 31.3899C110.937 26.8629 115.814 18.1709 112.58 14.0319C106.873 16.2529 99.7928 26.3409 99.0698 33.4609ZM127.095 22.6149C140.059 0.735868 147.28 19.4519 136.086 33.1589C144.405 38.0729 143.154 17.3379 148.353 13.0149C156.448 10.4779 143.536 32.9089 147.074 36.8619C153.046 31.7919 155.297 22.8619 158.745 15.3899C168.967 5.27887 155.832 35.9399 156.387 39.0579C161.156 35.6979 165.927 30.3069 169.225 25.5189C169.804 25.5199 170.383 25.5219 170.962 25.5229C167.524 32.7569 159.888 37.7889 154.534 44.4189C152.17 48.8009 151.787 53.3159 146.925 56.6219C140.605 59.1259 140.005 52.2869 143.712 48.4779C147.565 44.7219 150.489 43.3579 151.479 37.3509C148.889 39.9169 142.173 40.6479 141.203 35.4549C133.409 32.6819 130.747 41.7509 123.581 38.6519C121.337 44.1929 123.362 57.3549 116.451 56.2139C115.985 49.9049 118.246 42.0699 118.803 35.2999C115.905 36.7589 112.074 36.3639 108.294 37.0749C105.139 38.8819 101.237 40.7179 98.1598 36.6039C97.5498 40.0449 91.3748 65.1429 88.7938 53.4109C90.3548 45.7389 92.7408 41.3179 92.9978 35.5579C89.9848 37.6749 85.0358 39.4469 82.6758 33.7729C79.0418 40.1079 74.0508 41.1439 69.2318 36.6579C61.3128 48.6599 55.9028 36.3969 59.3148 27.5669C56.5658 28.3919 54.1338 29.1219 51.7108 29.8489C46.2768 72.0009 14.8818 40.2089 46.1268 28.5369C47.4938 27.0889 47.1598 24.6139 47.3558 22.4899C47.2838 18.3159 48.4678 12.8119 48.5908 8.12187C43.7628 11.4559 34.1758 16.8879 38.3678 23.3539C27.4028 20.4129 40.8138 10.3309 45.9098 7.09987C48.5488 5.34587 49.7118 1.61787 53.7508 3.01987C53.1998 10.9919 52.6458 19.0009 52.0678 27.3759C56.3548 26.5899 61.1258 24.7869 61.7918 19.2209C64.2828 13.5709 68.4838 -2.33413 73.2558 0.289868C69.8678 12.6029 62.9848 25.4119 64.2198 38.4469C70.3688 32.3669 70.8648 24.3689 76.1658 16.9889C78.9178 13.4449 88.5448 6.70287 90.7298 14.0719C90.3188 18.9299 87.6908 23.5139 86.9898 28.9139C85.5478 42.6859 96.4188 29.0729 96.8058 22.8989C98.6938 19.4379 97.5788 10.5169 102.125 11.2299C103.407 13.8049 102.252 16.3469 101.835 19.9029C118.895 0.0928688 122.931 21.0919 111.356 34.1089C124.803 39.5999 119.613 8.72987 127.477 12.3479C127.734 16.0499 126.479 20.1529 125.941 24.2009L126.378 24.3119C126.617 23.7459 126.856 23.1809 127.095 22.6149" fill="#0C0C0C"/>
<path fill-rule="evenodd" clip-rule="evenodd" d="M51.1998 129.711C50.1778 129.801 48.8398 128.687 48.9728 125.832C52.9108 113.461 77.5558 110.983 86.0838 113.49C102.436 117.484 120.554 135.355 134.875 118.3C136.529 116.663 138.556 115.382 141.304 115.557C126.774 139.644 106.158 124.706 88.7338 118.069C74.6368 112.616 56.8728 115.166 51.1998 129.711Z" fill="#0C0C0C"/>
<path fill-rule="evenodd" clip-rule="evenodd" d="M189.695 18.4343C188.308 23.3423 184.216 33.4463 178.968 30.8633C180.531 27.4353 183.962 16.3623 189.695 18.4343" fill="#62DAFB"/>
<path fill-rule="evenodd" clip-rule="evenodd" d="M164.769 42.8378C168.83 41.4588 170.088 45.6328 171.796 49.0658C172.672 58.2108 162.904 48.6538 164.769 42.8378Z" fill="#FBA5CE"/>
<path fill-rule="evenodd" clip-rule="evenodd" d="M27.4204 25.1463C27.9154 27.7653 25.1524 38.4793 21.6644 32.7143C21.3324 29.9003 26.3594 15.3143 27.4204 25.1463" fill="#FBA5CE"/>
<path fill-rule="evenodd" clip-rule="evenodd" d="M166.536 6.34452C171.548 3.39052 172.993 9.42652 175.004 13.6685C171.9 18.0765 167.413 10.7975 166.536 6.34452" fill="#FBA5CE"/>
<path fill-rule="evenodd" clip-rule="evenodd" d="M10.063 93.6853C8.788 95.5333 7.128 94.6643 5.664 94.8773C3.79 92.0283 1.93 89.1993 0 86.2643C4.663 83.6963 8.051 89.6743 10.063 93.6853" fill="#FBA5CE"/>
<path fill-rule="evenodd" clip-rule="evenodd" d="M193.893 60.8728C191.331 63.4188 181.609 68.5638 178.713 65.5878C181.798 62.9248 189.705 58.5858 193.893 60.8728" fill="#62DAFB"/>
<path fill-rule="evenodd" clip-rule="evenodd" d="M57.482 43.8611C56.938 48.5441 54 52.0101 51.827 55.9691C50.898 55.8831 50.06 55.8061 49.136 55.7211C49.742 51.1551 52.664 43.7811 57.482 43.8611" fill="#F9D451"/>
<path fill-rule="evenodd" clip-rule="evenodd" d="M35.5026 1.79958C33.5056 4.74758 29.9406 14.0216 24.5286 9.82758C27.8486 7.67758 30.4076 0.82658 35.5026 1.79958" fill="#62DAFB"/>
<path fill-rule="evenodd" clip-rule="evenodd" d="M190.264 42.654C189.084 46.356 186.538 53.216 181.41 51.578C183.293 49.21 186.172 40.639 190.264 42.654" fill="#F9D451"/>
<path fill-rule="evenodd" clip-rule="evenodd" d="M22.0258 48.2732C18.7748 50.2762 13.7088 47.0352 13.4558 42.8902C16.1298 41.0022 20.6488 45.3192 22.0258 48.2732Z" fill="#62DAFB"/>
<path fill-rule="evenodd" clip-rule="evenodd" d="M76.8278 58.3561C67.0938 49.5051 76.6448 48.5851 80.4578 57.6361C79.1728 57.8911 77.9188 58.1401 76.8278 58.3561Z" fill="#FBA5CE"/>
<path fill-rule="evenodd" clip-rule="evenodd" d="M10.6363 18.8074C14.9393 17.3914 15.0613 23.7274 17.2803 26.8654C13.7543 28.9034 10.2513 21.7104 10.6363 18.8074Z" fill="#F9D451"/>
<path fill-rule="evenodd" clip-rule="evenodd" d="M162.829 59.949C160.544 63.083 158.344 67.131 153.601 67.326C154.545 64.678 158.863 59.157 162.829 59.949Z" fill="#F9D451"/>
<path fill-rule="evenodd" clip-rule="evenodd" d="M56.8335 69.3221C55.4595 72.8811 55.0255 73.1291 52.1145 72.0311C53.0735 68.4251 54.1305 67.8171 56.8335 69.3221Z" fill="#1E1E1E"/>
<path fill-rule="evenodd" clip-rule="evenodd" d="M170.962 25.5232C170.383 25.5222 169.805 25.5202 169.226 25.5192C168.986 24.5832 171.595 23.1232 170.962 25.5232Z" fill="#0C0C0C"/>
<path fill-rule="evenodd" clip-rule="evenodd" d="M147.023 49.8904C147.085 49.9544 147.15 50.0194 147.214 50.0814C147.053 50.4114 146.891 50.7434 146.729 51.0734C146.609 50.9604 146.49 50.8484 146.37 50.7364" fill="#0C0C0C"/>
</svg>
