<svg width="202" height="134" viewBox="0 0 202 134" fill="none" xmlns="http://www.w3.org/2000/svg">
<path d="M43.6201 45.11L31.8301 74.35L9.90015 52.68L43.6201 45.11Z" fill="#338974"/>
<path d="M32.48 47.61L25.03 67.63L15.78 58.49L17.72 50.93L32.48 47.61Z" fill="#46AB8D"/>
<path d="M75.91 31.2L71 61.3899L45.14 45.2999L44.78 44.7299L75.91 31.2Z" fill="#D4052B"/>
<path d="M65.04 35.92L59.81 54.44L51.73 49.41L54.38 40.56L65.04 35.92Z" fill="#FF2137"/>
<path d="M71.4101 33.16L64.9501 57.64L62.3501 56.02L67.7401 34.75L71.4101 33.16Z" fill="#FF2137"/>
<path d="M104.38 41.05L76.9299 30L103 9.89001L104.38 41.05Z" fill="#FFA000"/>
<path d="M91.9001 18.49L88.3001 34.6L81.8401 32.01L82.6101 25.65L91.9001 18.49Z" fill="#FFC800"/>
<path d="M101.39 11.16L96.3 37.8L92.24 36.18L95.99 15.33L101.39 11.16Z" fill="#FFC800"/>
<path d="M1.00004 54.57C-1.75996 52.57 2.38004 52.07 2.41004 52.27C45.82 48.7 79.63 32.33 112.08 0C88.84 36.89 27.23 54 1.00004 54.57Z" fill="#B67E59"/>
<path d="M71.8502 94.2L61.8502 94.68L61.7702 86.27H57.2202L56.9402 95H48.0002L48.7602 67L58.2502 67.43L57.6502 81.74H62.0702V66.74L71.1602 66.98L71.8502 94.2Z" fill="#003F59"/>
<path d="M98.8701 93.2799L89.0001 94.5599L87.8001 90.0499H83.2501L82.2501 94.5599L72.0901 93.5599L80.0001 66.9999L91.0801 66.4399L98.8701 93.2799ZM87.0701 83.9999L85.5601 76.9999L84.0801 83.9999H87.0701Z" fill="#003F59"/>
<path d="M122.51 76.62C122.75 83.45 115.6 86.87 108.64 86.78V95.27H99.3501C99.4101 86.9 99.3501 77.55 99.5501 68.09C106.93 65.79 121.94 64.6 122.51 76.62V76.62ZM113.66 77.3C113.66 75.65 112.05 73.84 109.11 74.79L108.87 80.61C110.22 80.87 113.68 80.25 113.66 77.3V77.3Z" fill="#003F59"/>
<path d="M146.86 76.62C147.1 83.45 140 86.87 133 86.78V95.27H123.7C123.76 86.9 123.7 77.55 123.9 68.09C131.29 65.79 146.3 64.6 146.86 76.62ZM138 77.3C138 75.65 136.4 73.84 133.46 74.79L133.22 80.61C134.57 80.87 138 80.25 138 77.3Z" fill="#003F59"/>
<path d="M172.21 68L162.84 83.31L163.12 94.59H152.88L153.12 83.39L145.82 68.6L156 67.33L159.19 75.94L162.66 67.33L172.21 68Z" fill="#003F59"/>
<path d="M43.7701 125.72C43.6401 134.16 29.3101 134.93 20.6501 131.38V105.71C25.8901 103.97 33.3201 101.9 39.9101 106.37C43.5101 109 44.3201 116.94 38.0001 118.5C40.4301 119.21 43.7201 121.12 43.7701 125.72V125.72ZM30.7701 120.86C30.3935 120.859 30.0179 120.899 29.6501 120.98L29.5701 125.52C32.0001 127.06 36.8801 121.67 30.8201 120.86H30.7701ZM33.6001 114.36C33.5013 113.504 32.9622 112.763 32.1787 112.405C31.3953 112.047 30.4817 112.125 29.7701 112.61L29.7001 117C30.2901 117 33.7601 116.94 33.6501 114.36H33.6001Z" fill="#003F59"/>
<path d="M55.5902 104.75L53.4002 131.9L44.9902 132.33V105.33L55.5902 104.75Z" fill="#003F59"/>
<path d="M80.32 113.6C80.5358 117.218 78.6633 120.641 75.5 122.41L80.24 130.86L71.24 132.61L68.17 124.12L65.7 124.2L65.34 132.49H56.8C57.03 123.65 57.1 115.07 57.44 105.31C64 102.65 80.25 101.63 80.32 113.6V113.6ZM71.39 114.24C71.4669 112.969 70.8835 111.749 69.8465 111.011C68.8095 110.273 67.4653 110.121 66.2901 110.61L66 118C67.73 118 71.28 117.63 71.39 114.24V114.24Z" fill="#003F59"/>
<path d="M102.76 104.32L102.56 112.77L96.6203 113L95.1003 131.9L86.6903 132.33V113.44L80.7603 113.76L81.0003 104.36L102.76 104.32Z" fill="#003F59"/>
<path d="M127.51 132.81L117.51 133.29L117.43 124.08H112.85L112.57 132.81H103.64L104.4 104.81L113.89 105.25L113.29 119.56H117.71V104.18L126.8 104.42L127.51 132.81Z" fill="#003F59"/>
<path d="M152 117C152.29 128.9 140.44 133.92 129.28 132.46L129.84 105.72C138.51 102.7 152.15 104.36 152 117V117ZM143.83 118.28C143.83 116.28 143.23 112.89 139.25 112.7L138.45 125.05C141.562 124.441 143.813 121.721 143.83 118.55V118.28Z" fill="#003F59"/>
<path d="M177.31 131.1L167.42 132.37L166.23 127.87H161.68L160.68 132.37L150.51 131.37L158.45 104.82L169.53 104.27L177.31 131.1ZM165.51 121.77L164 114.84L162.52 121.77H165.51Z" fill="#003F59"/>
<path d="M200.86 105.83L189.86 121.13L189.34 133.61H179.9L180.14 121.21L174.44 106.43L184.6 105.15L186.2 113.76L191.26 105.15L200.86 105.83Z" fill="#003F59"/>
<path d="M186.37 92.69C184.94 94.31 182.87 95.8 180.72 95.91C181.53 90.66 173.66 89.55 173.1 84.28C173.539 84.2757 173.977 84.2356 174.41 84.16C177.68 87.37 184.33 86.38 186.37 92.69Z" fill="#009BCD"/>
<path d="M185.14 90.45L180.47 94.16C180.324 93.5721 180.105 93.0045 179.82 92.47L184 89.14C184.415 89.5454 184.796 89.9835 185.14 90.45Z" fill="#00BCE5"/>
<path d="M183 88.24L179.12 91.33C178.151 90.2441 177.013 89.3222 175.75 88.6L178.53 86.39C180.13 86.6968 181.651 87.3263 183 88.24Z" fill="#00BCE5"/>
<path d="M200.9 76C201.34 78.26 201.26 80.9999 199.9 82.8799C195.98 78.7699 189.9 84.72 185.09 81.76C185.372 81.384 185.622 80.986 185.84 80.57C190.74 79.9 194.23 73.62 200.9 76Z" fill="#FFA000"/>
<path d="M198.2 75.58L198.3 81.95C197.708 81.6949 197.087 81.5135 196.45 81.41L196.36 75.7C196.969 75.6106 197.585 75.5705 198.2 75.58Z" fill="#FFC600"/>
<path d="M194.92 76L195 81.3C193.452 81.4141 191.933 81.7753 190.5 82.37L190.44 78.58C191.742 77.4245 193.267 76.5466 194.92 76V76Z" fill="#FFC600"/>
<path d="M189.15 58.54C190.693 59.3084 191.881 60.6402 192.47 62.26C188.73 62.36 188.75 68.46 184.98 69.83C184.908 69.489 184.807 69.1545 184.68 68.83C186.76 65.87 184.27 61.87 189.15 58.54V58.54Z" fill="#C692F1"/>
<path d="M187.67 59.8199L191.2 62.7199C190.785 62.9307 190.396 63.1891 190.04 63.4899L186.87 60.8799C187.111 60.5078 187.378 60.1535 187.67 59.8199V59.8199Z" fill="#E1C0FF"/>
<path d="M186.36 61.8101L189.3 64.2201C188.635 65.1285 188.127 66.1427 187.8 67.2201L185.69 65.4901C185.93 64.3101 185.37 64.5001 186.36 61.8101V61.8101Z" fill="#E1C0FF"/>
<path d="M7 98.79C7.67887 100.675 9.05767 102.225 10.85 103.12C11.64 98.46 18.55 99.79 20.61 95.47C20.2511 95.3419 19.9033 95.1847 19.57 95C16 96.78 10.59 94 7 98.79Z" fill="#FF458F"/>
<path d="M8.70996 97.24L11.6 101.71C11.8837 101.262 12.2193 100.849 12.6 100.48L10.02 96.48C9.56534 96.701 9.1275 96.955 8.70996 97.24Z" fill="#FF8DC3"/>
<path d="M11.1799 96.0001L13.5799 99.7201C14.7086 99.078 15.9348 98.6253 17.2099 98.3801L15.4899 95.7101C14.0478 95.5341 12.5855 95.6325 11.1799 96.0001Z" fill="#FF8DC3"/>
<path d="M36.15 80.5C37.3745 81.9466 37.9973 83.8078 37.89 85.7C33.89 84.21 31.54 90.34 27.02 90.1C27.0856 89.7368 27.1224 89.369 27.13 89C30.38 86.85 30.36 81.3 36.15 80.5V80.5Z" fill="#FFA000"/>
<path d="M34.0901 81.15L36.4001 85.61C35.891 85.639 35.3873 85.7296 34.9001 85.88L32.8301 81.88C33.2303 81.6041 33.6516 81.36 34.0901 81.15V81.15Z" fill="#FFC600"/>
<path d="M31.9101 82.58L33.8301 86.3C32.764 86.9182 31.8077 87.7089 31.0001 88.64L29.6501 86C30.1825 84.7284 30.9492 83.5683 31.9101 82.58V82.58Z" fill="#FFC600"/>
<path d="M7.05002 69.49C6.15288 70.9294 5.84153 72.658 6.18002 74.32C9.38002 72.48 12.51 77.61 16.38 76.81C16.2797 76.4819 16.1996 76.1479 16.14 75.81C12.84 74.4 12.87 69.76 7.05002 69.49V69.49Z" fill="#C692F1"/>
<path d="M8.99999 69.8L7.48999 74.06C7.94468 74 8.4053 74 8.85999 74.06L10.17 70.24C9.79404 70.0584 9.40245 69.9112 8.99999 69.8V69.8Z" fill="#E1C0FF"/>
<path d="M11.0801 70.79L9.86011 74.33C10.8737 74.7335 11.8157 75.2973 12.6501 76L13.5201 73.46C12.7401 72.67 13.3001 72.54 11.0801 70.79V70.79Z" fill="#E1C0FF"/>
<path d="M109.56 51.67L109.34 54.04L111.18 55.56L108.86 56.09L107.98 58.31L106.76 56.27L104.38 56.12L105.95 54.32L105.35 52.02L107.54 52.95L109.56 51.67Z" fill="#009BCD"/>
<path d="M91.02 48.02L88.27 49.27L87.74 52.24L85.7 50.01L82.71 50.43L84.2 47.8L82.88 45.09L85.84 45.69L88.02 43.6L88.36 46.6L91.02 48.02Z" fill="#00DFB3"/>
<path d="M168.62 45.2599L164.7 47.09L163.98 51.36L161.02 48.1899L156.74 48.83L158.84 45.04L156.91 41.16L161.16 41.99L164.25 38.95L164.78 43.2599L168.62 45.2599Z" fill="#FF458F"/>
<path d="M138.85 42C136.16 42 136.16 46.19 138.85 46.19C141.54 46.19 141.55 42 138.85 42Z" fill="#00DFB3"/>
<path d="M148.84 51.55C148.067 51.55 147.44 52.1769 147.44 52.9501C147.44 53.7232 148.067 54.35 148.84 54.35C149.613 54.35 150.24 53.7232 150.24 52.9501C150.24 52.1769 149.613 51.55 148.84 51.55Z" fill="#009BCD"/>
<path d="M37.93 94.92C37.2052 94.9815 36.6482 95.5877 36.6482 96.315C36.6482 97.0424 37.2052 97.6486 37.93 97.71C38.6548 97.6486 39.2118 97.0424 39.2118 96.315C39.2118 95.5877 38.6548 94.9815 37.93 94.92Z" fill="#009BCD"/>
<path d="M174.41 55C173.637 55 173.01 55.6268 173.01 56.4C173.01 57.1732 173.637 57.8 174.41 57.8C174.91 57.8 175.372 57.5332 175.622 57.1C175.873 56.6668 175.873 56.1332 175.622 55.7C175.372 55.2668 174.91 55 174.41 55V55Z" fill="#FFC800"/>
<path d="M15.7801 84C15.0553 84.0614 14.4983 84.6676 14.4983 85.395C14.4983 86.1224 15.0553 86.7286 15.7801 86.79C16.5048 86.7286 17.0619 86.1224 17.0619 85.395C17.0619 84.6676 16.5048 84.0614 15.7801 84V84Z" fill="#00DFB3"/>
</svg>
