<svg width="138" height="227" viewBox="0 0 138 227" fill="none" xmlns="http://www.w3.org/2000/svg">
<path fill-rule="evenodd" clip-rule="evenodd" d="M106.489 89.7389C106.644 89.7609 106.803 89.7829 106.964 89.8009C106.803 89.7829 106.644 89.7609 106.489 89.7389ZM107.32 89.8429C107.62 89.8719 107.926 89.8969 108.251 89.9109C107.926 89.8969 107.616 89.8729 107.32 89.8429ZM105.763 89.6009C105.86 89.6229 105.959 89.6449 106.061 89.6649C105.959 89.6449 105.86 89.6229 105.763 89.6009ZM22.0397 81.9589L23.0987 89.9019C28.5767 84.5909 33.7007 78.2459 38.3827 84.6259C42.8327 89.6999 35.0247 103.767 44.6457 106.497C63.9267 113.013 59.6767 88.9389 63.3187 76.1149C65.2827 72.8609 70.4497 70.5189 71.6457 73.6289C76.2837 82.9149 72.6437 95.7389 80.3937 103.827C84.7467 106.797 91.9277 102.254 93.8437 97.9469C96.6227 89.3809 86.7187 80.3349 92.7017 72.6779C93.7057 71.5769 96.9137 72.4879 98.0137 73.4939C102.065 79.0149 97.6867 87.4869 105.298 89.4939C106.018 95.8119 107.252 102.357 107.891 108.641C109.464 108.78 111.055 108.929 112.667 109.098L112.896 102.519L113.756 77.8189C113.756 77.8189 119.462 61.2979 77.7287 63.1809C35.9907 65.0649 21.4927 69.8479 22.0397 81.9589V81.9589Z" fill="#FFB808"/>
<path fill-rule="evenodd" clip-rule="evenodd" d="M105.298 89.4941C97.6861 87.4871 102.064 79.0151 98.0131 73.4941C96.9141 72.4881 93.7061 71.5771 92.7021 72.6781C86.7181 80.3351 96.6221 89.3801 93.8441 97.9461C91.9271 102.254 84.7472 106.797 80.3932 103.827C72.6432 95.7391 76.2831 82.9151 71.6451 73.6291C70.4501 70.5191 65.2821 72.8611 63.3191 76.1151C59.6761 88.9391 63.9271 113.013 44.6451 106.497C35.0241 103.767 42.8321 89.7001 38.3831 84.6261C33.7011 78.2461 28.5771 84.5901 23.0981 89.9021L26.3341 114.185C26.6721 114.088 27.0251 113.989 27.3981 113.887C27.0251 113.989 26.6721 114.088 26.3341 114.185L27.0251 119.781L27.8051 126.112L30.8111 150.488C30.8111 150.488 64.1911 164.146 106.251 148.934C106.719 134.508 104.64 119.584 107.37 105.599C107.407 105.411 107.422 105.212 107.456 105.021C106.787 99.8671 105.881 94.6091 105.298 89.4941Z" fill="#FFD41D"/>
<path fill-rule="evenodd" clip-rule="evenodd" d="M107.89 108.641C107.772 107.445 107.613 106.234 107.456 105.021C107.423 105.213 107.407 105.411 107.37 105.599C104.64 119.584 106.719 134.508 106.252 148.934C106.774 148.746 107.291 148.573 107.814 148.375C109.104 147.889 110.401 147.38 111.709 146.838L112.354 121.419L112.523 114.77L112.666 109.098C110.763 108.9 108.898 108.73 107.048 108.571C107.332 108.595 107.609 108.615 107.89 108.641Z" fill="#FFB808"/>
<path fill-rule="evenodd" clip-rule="evenodd" d="M73.193 24.5441C69.845 28.4931 66.158 31.9641 62.272 35.0881L62.441 47.9901C66.484 46.2091 70.49 43.8471 73.918 40.6061L73.193 24.5441Z" fill="#2A4174"/>
<path fill-rule="evenodd" clip-rule="evenodd" d="M62.6114 61.0353C67.0234 59.2253 71.0414 56.1663 74.4434 52.2263L73.9174 40.6053C70.4894 43.8473 66.4834 46.2093 62.4404 47.9903L62.6114 61.0353Z" fill="#6CADEF"/>
<path fill-rule="evenodd" clip-rule="evenodd" d="M62.6258 62.0738L74.8638 61.5878L74.4428 52.2258C71.0418 56.1658 67.0228 59.2258 62.6108 61.0348L62.6258 62.0738Z" fill="#2A4174"/>
<path fill-rule="evenodd" clip-rule="evenodd" d="M73.1668 23.9591C70.8128 22.0571 68.6858 21.6321 66.9428 21.8511C63.9848 22.2261 62.1318 24.4571 62.1318 24.4571L62.2718 35.0881C66.1578 31.9641 69.8448 28.4931 73.1928 24.5441L73.1668 23.9591Z" fill="#6CADEF"/>
<path fill-rule="evenodd" clip-rule="evenodd" d="M68.5331 56.3251C69.0781 59.6261 72.8751 61.1541 73.0611 57.3501C73.2441 53.5481 72.5601 27.6681 71.9231 26.0021C71.2851 24.3351 68.5971 23.2741 68.5491 25.8341C68.5491 25.8341 67.9891 53.0231 68.5331 56.3251Z" fill="#1E3866"/>
<path fill-rule="evenodd" clip-rule="evenodd" d="M111.221 77.5765C111.413 78.0605 111.579 78.5375 111.717 79.0045C111.596 78.4905 111.431 78.0115 111.221 77.5765Z" fill="#FF5284"/>
<path fill-rule="evenodd" clip-rule="evenodd" d="M100.834 83.1783C101.494 85.0933 102.764 86.4853 104.95 86.7343C109.274 87.2273 110.961 82.6773 110.549 81.1473C110.292 80.1943 109.805 77.1163 109.938 76.0333C109.143 75.4623 108.057 75.1503 106.533 75.2173C107.774 79.3853 105.764 81.5843 101.6 82.8263C101.201 82.8453 100.958 82.9723 100.834 83.1783V83.1783Z" fill="#FF5284"/>
<path fill-rule="evenodd" clip-rule="evenodd" d="M80.9247 92.1996C80.8047 92.3986 80.7037 92.5915 80.6147 92.7865C82.5997 96.4255 85.6047 98.7696 90.1437 97.7946C96.6117 96.4056 97.3307 89.4876 94.4187 86.0056C91.5077 82.5226 91.1887 79.2675 92.5107 74.2185C92.8727 72.8285 93.6707 72.0495 94.6197 71.7215C94.3447 71.6195 94.0467 71.5625 93.7057 71.5775C78.8247 69.0855 94.3727 86.3166 88.3417 92.9196C86.2837 94.0676 81.9287 91.0986 80.9247 92.1996V92.1996Z" fill="#FF4080"/>
<path fill-rule="evenodd" clip-rule="evenodd" d="M49.4808 96.7835C46.5758 99.1755 48.5098 101.351 51.4368 103.481C52.1578 103.545 52.9208 103.56 53.7318 103.505C60.9368 103.007 63.1968 95.8495 62.9248 89.8375C62.6728 84.2285 61.6028 77.0145 67.5528 74.8155C66.0158 72.6765 64.1858 71.6345 62.1198 73.0025C55.0388 79.6535 56.5168 89.0815 49.4808 96.7835Z" fill="#FF4080"/>
<path fill-rule="evenodd" clip-rule="evenodd" d="M25.6064 82.0372C21.6804 88.5432 26.4134 99.9352 14.9274 102.565C14.2594 102.595 13.6494 103.898 13.5874 105.372C15.8084 107.072 19.0134 107.75 22.2304 107.16C29.7414 105.791 28.0194 94.3381 28.0194 94.3381C29.1944 87.0651 30.1534 80.5452 34.8854 78.5062C33.4544 78.0172 31.7224 78.0032 29.6744 78.6872C28.6694 79.7892 26.6114 80.9372 25.6064 82.0372V82.0372Z" fill="#FF4080"/>
<path fill-rule="evenodd" clip-rule="evenodd" d="M110.361 66.6069C91.4654 45.3049 61.5054 59.3179 37.5274 65.6739C30.9324 67.6429 22.3274 69.0349 16.7264 64.9179C14.8474 67.5699 14.8984 70.9949 15.7074 75.6169C16.9284 82.6019 17.4134 84.3189 12.3284 93.6699C9.42041 99.0159 10.6234 103.105 13.5864 105.372C13.6494 103.898 14.2594 102.595 14.9274 102.566C26.4134 99.9349 21.6804 88.5429 25.6054 82.0369C26.6114 80.9369 28.6684 79.7889 29.6744 78.6869C31.7224 78.0029 33.4544 78.0169 34.8854 78.5059C35.5434 78.2219 36.2714 78.0229 37.0874 77.9219C43.7634 77.1049 43.4574 81.7679 43.1734 90.7269C42.9214 98.6799 45.7614 102.959 51.4374 103.481C48.5104 101.351 46.5764 99.1759 49.4814 96.7839C56.5174 89.0819 55.0394 79.6529 62.1204 73.0029C64.1864 71.6339 66.0154 72.6759 67.5524 74.8159C67.9794 74.6599 68.4384 74.5239 68.9414 74.4199C76.4424 72.8769 76.7924 80.6059 78.4614 87.0699C78.9924 89.1219 79.6914 91.0939 80.6154 92.7859C80.7034 92.5919 80.8044 92.3979 80.9244 92.1989C81.9294 91.0989 86.2834 94.0679 88.3414 92.9199C94.3734 86.3169 78.8244 69.0849 93.7064 71.5769C94.0464 71.5629 94.3454 71.6199 94.6194 71.7219C97.1244 70.8559 100.708 73.2289 100.361 76.6159C100.126 78.9249 100.191 81.3009 100.834 83.1779C100.958 82.9719 101.201 82.8449 101.6 82.8259C105.764 81.5839 107.774 79.3849 106.533 75.2169C108.057 75.1499 109.143 75.4619 109.938 76.0329C110.022 75.3729 110.332 75.4449 111.057 77.1659C111.115 77.3049 111.167 77.4389 111.221 77.5759C111.431 78.0109 111.596 78.4899 111.717 79.0049C112.125 80.3909 112.281 81.7249 112.16 83.0819C112.167 83.1889 112.17 83.2969 112.177 83.4049C112.17 83.2969 112.167 83.1889 112.16 83.0819C111.954 85.3969 110.934 87.7899 108.914 90.6869C106.158 94.6389 108.589 100.244 112.396 102.424C112.6 102.393 112.806 102.366 113.032 102.355C116.095 100.108 119.11 96.8069 117.917 93.6949C116.435 84.2659 117.011 73.6919 110.361 66.6069V66.6069Z" fill="#FF5284"/>
<path fill-rule="evenodd" clip-rule="evenodd" d="M116.705 68.8225C116.154 60.4145 118.504 59.1035 112.383 56.9705C106.266 54.8365 76.5901 53.1415 48.6661 56.0595C28.6351 58.1555 19.9101 60.4275 16.7261 64.9185C22.3271 69.0355 30.9321 67.6435 37.5281 65.6745C61.5061 59.3175 91.4661 45.3045 110.362 66.6065C117.012 73.6915 116.435 84.2655 117.917 93.6955C119.11 96.8065 116.096 100.107 113.033 102.355C112.806 102.365 112.6 102.392 112.396 102.424C113.722 103.181 115.21 103.532 116.71 103.243C122.51 102.118 123.605 95.8745 121.288 90.2995C118.971 84.7245 117.257 77.2315 116.705 68.8225V68.8225Z" fill="#FF4080"/>
<path fill-rule="evenodd" clip-rule="evenodd" d="M38.7555 143.574C38.5595 143.367 38.5725 143.04 38.7805 142.842L42.9905 138.901C43.1985 138.706 43.5255 138.717 43.7185 138.924C43.9145 139.132 43.9025 139.459 43.6955 139.653L39.4845 143.597C39.3905 143.685 39.2735 143.732 39.1555 143.736C39.0095 143.743 38.8635 143.689 38.7555 143.574Z" fill="white"/>
<path fill-rule="evenodd" clip-rule="evenodd" d="M43.3991 146.739C43.1531 146.596 43.0711 146.281 43.2131 146.036L45.8511 141.528C45.9951 141.281 46.3111 141.199 46.5551 141.342C46.8021 141.486 46.8861 141.802 46.7431 142.048L44.1041 146.556C44.0131 146.713 43.8511 146.802 43.6841 146.811C43.5851 146.815 43.4871 146.791 43.3991 146.739V146.739Z" fill="white"/>
<path fill-rule="evenodd" clip-rule="evenodd" d="M48.5076 148.013C48.2306 147.953 48.0546 147.676 48.1156 147.4L48.9226 143.729C48.9846 143.452 49.2636 143.278 49.5366 143.338C49.8136 143.4 49.9906 143.672 49.9306 143.952L49.1226 147.622C49.0726 147.854 48.8706 148.015 48.6436 148.026C48.5986 148.028 48.5536 148.026 48.5076 148.013V148.013Z" fill="white"/>
<path fill-rule="evenodd" clip-rule="evenodd" d="M102.834 140.739L98.2816 137.19C98.0576 137.014 98.0176 136.69 98.1946 136.464C98.3706 136.241 98.6936 136.202 98.9186 136.376L103.468 139.924C103.69 140.101 103.732 140.425 103.556 140.649C103.458 140.773 103.319 140.839 103.173 140.846C103.054 140.851 102.934 140.818 102.834 140.739Z" fill="white"/>
<path fill-rule="evenodd" clip-rule="evenodd" d="M98.4977 144.1L95.4647 139.85C95.3007 139.619 95.3537 139.295 95.5857 139.129C95.8177 138.965 96.1397 139.018 96.3057 139.25L99.3357 143.502C99.5007 143.735 99.4487 144.055 99.2167 144.22C99.1317 144.28 99.0377 144.311 98.9397 144.316C98.7727 144.323 98.6027 144.248 98.4977 144.1Z" fill="white"/>
<path fill-rule="evenodd" clip-rule="evenodd" d="M93.5969 145.616L92.4609 142.034C92.3759 141.76 92.5249 141.473 92.7979 141.384C93.0689 141.3 93.3599 141.45 93.4459 141.721L94.5779 145.303C94.6639 145.576 94.5159 145.865 94.2429 145.951C94.1979 145.965 94.1559 145.973 94.1099 145.973C93.8809 145.984 93.6689 145.841 93.5969 145.616V145.616Z" fill="white"/>
<path fill-rule="evenodd" clip-rule="evenodd" d="M28.3333 67.45L21.9183 70.163C21.0673 70.525 20.0843 70.126 19.7243 69.273C19.3623 68.421 19.7623 67.436 20.6153 67.075L27.0283 64.361C27.8783 64.003 28.8633 64.4 29.2243 65.253C29.5843 66.106 29.1843 67.088 28.3333 67.45V67.45Z" fill="#73E0AF"/>
<path fill-rule="evenodd" clip-rule="evenodd" d="M54.5659 77.4218L48.5289 73.9548C47.7249 73.4938 47.4499 72.4698 47.9109 71.6658C48.3719 70.8628 49.3969 70.5868 50.1989 71.0468L56.2359 74.5148C57.0409 74.9758 57.3189 75.9988 56.8559 76.8038C56.3959 77.6058 55.3699 77.8828 54.5659 77.4218V77.4218Z" fill="#73E0AF"/>
<path fill-rule="evenodd" clip-rule="evenodd" d="M69.2833 63.8085L62.9563 66.7125C62.1143 67.0985 61.1193 66.7295 60.7323 65.8875C60.3483 65.0455 60.7153 64.0505 61.5553 63.6645L67.8863 60.7605C68.7273 60.3765 69.7223 60.7445 70.1083 61.5855C70.4933 62.4255 70.1243 63.4215 69.2833 63.8085V63.8085Z" fill="#B894EA"/>
<path fill-rule="evenodd" clip-rule="evenodd" d="M41.1333 63.7791L37.3443 69.6221C36.8413 70.4001 35.8043 70.6201 35.0273 70.1171C34.2483 69.6151 34.0283 68.5751 34.5323 67.7991L38.3193 61.9561C38.8233 61.1781 39.8603 60.9571 40.6373 61.4621C41.4133 61.9641 41.6353 63.0041 41.1333 63.7791V63.7791Z" fill="#B894EA"/>
<path fill-rule="evenodd" clip-rule="evenodd" d="M107.182 69.8485L101.417 65.9435C100.651 65.4235 100.451 64.3805 100.97 63.6155C101.49 62.8485 102.531 62.6485 103.297 63.1685L109.064 67.0715C109.831 67.5915 110.031 68.6335 109.51 69.3995C108.991 70.1665 107.949 70.3665 107.182 69.8485V69.8485Z" fill="#B894EA"/>
<path fill-rule="evenodd" clip-rule="evenodd" d="M83.3865 68.4363L79.3005 62.7982C78.7585 62.0502 78.9275 61.0022 79.6755 60.4582C80.4245 59.9162 81.4725 60.0833 82.0175 60.8323L86.1005 66.4703C86.6455 67.2193 86.4795 68.2693 85.7285 68.8103C84.9785 69.3533 83.9315 69.1873 83.3865 68.4363V68.4363Z" fill="#73E0AF"/>
<path fill-rule="evenodd" clip-rule="evenodd" d="M61.0167 7.29722C63.6817 -0.738785 65.9546 0.0192153 65.9546 0.0192153C65.9546 0.0192153 73.5606 3.62821 72.5656 10.6472C71.5696 17.6632 69.4686 21.0262 66.9426 21.8512C66.9426 21.8512 58.3517 15.3352 61.0167 7.29722V7.29722Z" fill="#FF5284"/>
<path fill-rule="evenodd" clip-rule="evenodd" d="M64.5849 9.54423C67.3899 5.11723 66.7029 7.04023 66.7029 7.04023C66.7029 7.04023 73.0639 8.68923 66.9429 21.8512C66.9429 21.8512 61.7809 13.9762 64.5849 9.54423V9.54423Z" fill="#FFD41D"/>
<path fill-rule="evenodd" clip-rule="evenodd" d="M50.9472 135.147C49.4722 135.153 48.4552 134.058 48.4262 132.436C48.4012 130.921 49.5402 129.712 50.9662 129.74C52.3122 129.766 53.3942 131.037 53.3982 132.599C53.4042 134.08 52.3822 135.139 50.9472 135.147Z" fill="black"/>
<path fill-rule="evenodd" clip-rule="evenodd" d="M87.6454 130.488C87.5664 128.866 88.7344 127.48 90.2624 127.378C91.7314 127.283 92.9064 128.611 92.9174 130.377C92.9284 131.98 91.8324 133.205 90.3414 133.26C88.9314 133.311 87.7224 132.069 87.6454 130.488V130.488Z" fill="black"/>
<path fill-rule="evenodd" clip-rule="evenodd" d="M80.4901 141.246C74.3701 139.369 67.1611 139.845 60.8911 141.521C61.8171 142.479 62.8071 143.101 62.8071 143.101C69.1331 146.066 76.5631 144.118 80.4901 141.246V141.246Z" fill="#FF5284"/>
<path fill-rule="evenodd" clip-rule="evenodd" d="M78.3785 133.641C76.8185 134.25 76.7455 135.519 71.3325 136.099C66.0075 136.671 63.5955 133.65 60.7745 135.108C58.4795 136.296 59.4845 140.066 60.8915 141.521C67.1605 139.845 74.3705 139.369 80.4895 141.246C81.8665 140.242 82.3825 138.343 82.3835 137.234C82.3815 133.453 80.0225 133.001 78.3785 133.641Z" fill="black"/>
<path fill-rule="evenodd" clip-rule="evenodd" d="M109.269 107.016C107.108 105.648 104.417 103.949 100.824 104.474C99.4157 104.679 98.0857 105.263 96.9117 105.777C96.3137 106.038 95.7496 106.285 95.2316 106.461L95.0936 106.509C92.7916 107.292 90.6156 108.032 88.3746 108.129C86.0776 108.23 84.0457 107.804 82.1576 106.828C81.6786 106.581 81.1947 106.203 80.6837 105.801C80.0377 105.296 79.3056 104.723 78.4156 104.283C74.8596 102.527 71.3806 102.387 67.7866 103.854C66.1656 104.515 64.9606 105.504 63.9006 106.377C62.6886 107.374 61.7286 108.16 60.3646 108.388C57.4586 108.876 54.5506 108.451 51.4786 107.088C47.2296 105.203 44.0606 104.642 39.4886 107.056C38.7326 107.455 37.9876 107.928 37.2646 108.387C35.4076 109.564 33.6526 110.677 31.9936 110.511C30.8176 110.396 29.3866 109.733 28.6666 108.971C28.5646 108.864 28.4536 108.699 28.3246 108.511C27.9606 107.969 27.4116 107.154 26.3326 106.643L25.2646 106.155C25.5806 107.625 25.7496 110.113 26.1266 112.624C27.5236 113.636 29.8536 114.661 31.5686 114.829C34.7156 115.139 37.3026 113.499 39.5886 112.051C40.2696 111.619 40.9146 111.211 41.5166 110.892C44.5496 109.289 46.3046 109.54 49.7196 111.055C53.5946 112.774 57.3106 113.301 61.0856 112.667C63.5896 112.249 65.2166 110.911 66.6536 109.73C67.5576 108.988 68.4136 108.286 69.4256 107.874C71.9036 106.86 74.0186 106.951 76.4936 108.174C76.9836 108.416 77.4816 108.804 78.0076 109.218C78.6246 109.699 79.3216 110.247 80.1646 110.682C82.7086 111.997 85.5336 112.597 88.5646 112.464C91.4276 112.34 93.9997 111.463 96.4897 110.616L96.6297 110.57C97.3217 110.335 97.9987 110.038 98.6507 109.753C99.6657 109.308 100.623 108.888 101.453 108.767C103.321 108.494 104.776 109.309 106.952 110.683C107.281 110.891 107.61 111.15 107.957 111.423C109.017 112.256 110.668 113.204 112.692 113.251L112.806 108.789C112.248 108.775 111.457 108.656 110.637 108.011C110.239 107.697 109.787 107.343 109.269 107.016V107.016Z" fill="#6CADEF"/>
<path fill-rule="evenodd" clip-rule="evenodd" d="M109.874 118.828C107.713 117.463 105.023 115.762 101.431 116.287C100.021 116.492 98.6934 117.076 97.5174 117.59C96.9204 117.853 96.3564 118.098 95.8374 118.274L95.6994 118.322C93.3974 119.105 91.2244 119.845 88.9804 119.943C86.6854 120.043 84.6514 119.617 82.7644 118.643C82.2844 118.393 81.8014 118.016 81.2904 117.614C80.6454 117.108 79.9124 116.535 79.0214 116.096C75.4674 114.34 71.9854 114.201 68.3924 115.669C66.7724 116.329 65.5684 117.318 64.5054 118.19C63.2944 119.186 62.3344 119.974 60.9724 120.201C58.0644 120.69 55.1574 120.264 52.0844 118.901C47.8354 117.017 44.6684 116.455 40.0944 118.87C39.3404 119.268 38.5934 119.741 37.8724 120.199C36.0144 121.377 34.2584 122.491 32.5994 122.325C31.4254 122.209 29.9934 121.547 29.2724 120.783C29.1704 120.678 29.0594 120.512 28.9314 120.322C28.5684 119.783 28.0174 118.967 26.9404 118.457C26.9404 118.457 27.2944 122.528 27.6724 125.039C29.0694 126.051 30.4604 126.476 32.1744 126.644C35.3224 126.952 37.9094 125.313 40.1944 123.865C40.8754 123.432 41.5204 123.024 42.1224 122.707C45.1564 121.102 46.9114 121.353 50.3254 122.867C54.2004 124.587 57.9164 125.114 61.6904 124.481C64.1964 124.063 65.8224 122.724 67.2604 121.545C68.1654 120.801 69.0194 120.1 70.0314 119.687C72.5094 118.673 74.6264 118.764 77.0994 119.988C77.5914 120.228 78.0884 120.619 78.6154 121.031C79.2314 121.514 79.9294 122.06 80.7704 122.496C83.3144 123.811 86.1414 124.41 89.1724 124.277C92.0334 124.153 94.6054 123.277 97.0974 122.43L97.2364 122.384C97.9284 122.147 98.6044 121.852 99.2564 121.566C100.271 121.122 101.228 120.702 102.058 120.582C103.928 120.307 105.383 121.123 107.556 122.496C107.888 122.705 108.214 122.962 108.562 123.235C109.624 124.07 110.238 124.909 112.264 124.957L112.379 120.433C111.825 120.42 112.064 120.467 111.244 119.824C110.844 119.512 110.392 119.155 109.874 118.828V118.828Z" fill="#B894EA"/>
<path d="M18.1733 104.986C18.1733 104.986 24.3343 104.814 25.2873 97.7839" stroke="white" stroke-width="1.736" stroke-linecap="round" stroke-linejoin="round"/>
<path d="M25.6372 94.2584L26.0602 88.4994" stroke="white" stroke-width="1.736" stroke-linecap="round" stroke-linejoin="round"/>
<path d="M51.9004 100.441C51.9004 100.441 58.2544 100.267 58.9174 94.184" stroke="white" stroke-width="1.736" stroke-linecap="round" stroke-linejoin="round"/>
<path d="M102.495 77.2296C102.495 77.2296 100.753 82.7006 104.472 84.3506" stroke="white" stroke-width="1.736" stroke-linecap="round" stroke-linejoin="round"/>
<path d="M114.703 100.571C114.703 100.571 120.335 100.639 120.489 94.543" stroke="white" stroke-width="1.736" stroke-linecap="round" stroke-linejoin="round"/>
<path d="M64.3623 25.7379L64.6163 37.6809" stroke="white" stroke-width="1.736" stroke-linecap="round" stroke-linejoin="round"/>
<path d="M78.8945 79.3888C78.8945 79.3888 81.1745 90.2538 83.7625 93.0228" stroke="white" stroke-width="1.736" stroke-linecap="round" stroke-linejoin="round"/>
<path fill-rule="evenodd" clip-rule="evenodd" d="M137.136 164.984C140.303 165.787 128.894 177.685 128.894 177.685C128.894 177.685 140.066 190.518 136.699 192.299C133.765 193.851 103.474 191.48 71.8439 192.078C47.8259 192.532 22.3049 195.967 11.6309 196.794C9.57094 196.897 14.8399 184.254 17.9599 180.252C17.9599 180.252 6.05394 173.534 4.66494 169.205C3.80494 166.521 36.6919 161.801 69.8459 161.697C103 161.593 125.085 161.926 137.136 164.984Z" fill="#75BAE1"/>
<path fill-rule="evenodd" clip-rule="evenodd" d="M98.3624 223.325C98.6444 217.412 98.2474 211.943 98.3484 205.36C100.959 206.226 105.29 202.097 99.7574 201.804C95.9924 203.361 100.992 192.286 95.4064 193.843C93.5574 195.617 94.8654 198.533 94.4454 201.692C90.9394 201.209 87.3114 205.284 94.4344 205.213C94.8204 206.669 94.6174 232.578 98.3624 223.325V223.325Z" fill="#FF5284"/>
<path fill-rule="evenodd" clip-rule="evenodd" d="M42.4815 214.65C42.4875 214.693 41.0645 202.888 40.9325 201.792C45.6235 198.588 53.6285 206.347 48.1855 211.76C46.3915 213.415 44.5665 214.343 42.4815 214.65V214.65ZM37.2935 200.601C37.8355 205.83 38.6515 226.327 42.2525 226.604C44.3245 225.63 42.8145 221.785 43.0185 218.325C48.3475 217.752 55.3915 212.228 53.5485 205.344C52.8815 198.888 40.7445 193.741 37.2935 200.601V200.601Z" fill="#FF5284"/>
<path d="M48.3799 199.973C48.3799 199.973 51.0939 201.08 52.0829 204.261" stroke="white" stroke-width="0.838" stroke-linecap="round"/>
<path fill-rule="evenodd" clip-rule="evenodd" d="M59.1778 213.502C59.2148 211.374 60.1948 205.18 60.9018 202.408C62.0288 204.861 64.3598 210.847 65.0898 213.375L59.1778 213.502ZM56.4858 225.672C58.2958 223.717 57.4958 220.167 58.4928 217.374C59.2188 217.357 63.7288 217.262 65.7548 217.217C67.2108 215.929 69.8078 232.038 71.5758 222.465C58.0808 159.9 51.1148 230.779 56.4858 225.672V225.672Z" fill="#FF5284"/>
<path d="M64.5562 201.742L65.9651 206.273" stroke="white" stroke-width="0.838" stroke-linecap="round"/>
<path d="M66.6577 208.407L67.1827 210.421" stroke="white" stroke-width="0.838" stroke-linecap="round"/>
<path fill-rule="evenodd" clip-rule="evenodd" d="M76.4398 199.796C87.9238 198.318 86.8978 211.355 77.2418 213.005L76.4398 199.796ZM77.6038 218.17C87.4808 229.891 93.2968 227.062 80.2878 215.802C104.991 203.421 66.5208 180.877 73.2528 208.84C72.7568 213.753 77.3568 237.964 77.6038 218.17V218.17Z" fill="#FF5284"/>
<path d="M83.2554 212.969C83.2554 212.969 86.5004 210.615 87.0954 207.002" stroke="white" stroke-width="0.838" stroke-linecap="round"/>
<path fill-rule="evenodd" clip-rule="evenodd" d="M115.288 204.676C116.157 210.875 110.112 215.03 107.035 207.37C105.907 204.956 105.446 197.307 102.884 203.319C102.201 208.125 106.15 212.765 109.6 216.249C109.03 227.194 114.755 232.73 113.237 215.652C118.509 212.011 120.456 206.036 118.179 199.331C114.975 192.362 113.348 199.479 115.288 204.676Z" fill="#FF5284"/>
<path d="M116.732 198.996C116.732 198.996 118.898 203.45 117.586 208.311" stroke="white" stroke-width="0.838" stroke-linecap="round"/>
<path fill-rule="evenodd" clip-rule="evenodd" d="M32.3873 189.387C30.1463 191.456 28.4133 183.387 28.8603 182.768C35.9083 177.565 42.5683 185.694 32.3873 189.387ZM27.7753 179.679C22.5153 169.886 34.2353 170.421 32.6743 176.097C31.9653 177.788 30.2493 178.869 27.7753 179.679ZM35.7703 176.802C36.3133 174.759 35.7833 171.353 32.8993 169.993C16.8033 165.648 25.7633 184.748 28.9173 192.215C36.3603 195.461 45.8223 183.537 37.3283 178.591C37.0273 178.059 34.8003 178.56 35.7703 176.802V176.802Z" fill="white"/>
<path fill-rule="evenodd" clip-rule="evenodd" d="M49.682 169.855C51.56 169.201 55.4 169.893 55.033 173.518C49.851 184.237 49.772 174.233 49.682 169.855ZM52.809 181.061C64.287 175.783 54.7 159.78 46.602 169.502C45.976 171.536 50.481 197.613 51.159 183.23C51.866 184.196 62.354 191.588 58.152 184.693C56.862 183.815 54.779 182.398 52.809 181.061V181.061Z" fill="white"/>
<path fill-rule="evenodd" clip-rule="evenodd" d="M87.2314 184.282L87.8374 168.115C93.0384 169.208 96.9444 177.503 92.2764 182.189C90.9904 183.623 89.0414 184.071 87.2314 184.282V184.282ZM84.9724 166.178C83.9934 172.122 83.9204 179.769 85.0674 186.35C91.4204 188.892 98.2134 182.676 97.5904 175.892C97.6034 171.382 90.9534 161.649 84.9724 166.178Z" fill="white"/>
<path fill-rule="evenodd" clip-rule="evenodd" d="M78.6605 175.56C77.8275 175.56 73.5835 175.56 73.2935 175.56C72.3945 174.163 75.0435 165.661 70.4365 166.607C66.6765 169.807 74.6555 199.642 73.5935 178.764C83.2825 178.056 76.3965 179.775 79.9995 186.782C83.3415 187.488 81.3795 177.618 82.0095 174.644C81.3915 171.542 83.7115 168.117 80.7805 166.31C77.5215 166.592 79.5275 173.138 78.6605 175.56Z" fill="white"/>
<path fill-rule="evenodd" clip-rule="evenodd" d="M102.257 178.481L103.822 170.821C104.763 173.069 105.424 175.627 106.321 178.799L102.257 178.481ZM98.9278 188.023C101.08 187.647 100.777 183.322 101.807 181.477C102.575 181.557 106.107 181.928 107.171 182.04C108.357 181.891 107.595 192.786 111.362 188.634C111.511 188.312 111.307 187.226 111.101 185.889C105.781 154.783 96.4728 166.153 98.9278 188.023V188.023Z" fill="white"/>
<path fill-rule="evenodd" clip-rule="evenodd" d="M119.603 178.681C111.865 181.362 116.94 161.669 111.781 169.81C109.968 175.508 112.507 178.473 116.139 182.7C115.908 183.384 113.679 193.669 117.673 188.761C118.232 187.298 118.653 184.278 119.649 182.348C124.854 181.381 127.35 176.202 126.752 170.529C121.96 165.101 124.541 178.384 119.603 178.681V178.681Z" fill="white"/>
<path fill-rule="evenodd" clip-rule="evenodd" d="M64.9977 164.474C61.5487 162.581 62.5007 167.767 62.7467 171.459C59.9577 170.768 55.9627 174.154 62.9447 174.568C63.1127 187.186 67.4517 193.215 66.2237 174.699C67.9477 175.393 71.0707 172.547 67.4357 171.672C64.8067 172.31 66.7817 167.942 64.9977 164.474V164.474Z" fill="white"/>
<path fill-rule="evenodd" clip-rule="evenodd" d="M41.5549 172.129C39.0569 172.628 44.4699 195.126 45.8049 185.92C44.7959 183.811 45.8109 170.206 41.5549 172.129Z" fill="white"/>
<path fill-rule="evenodd" clip-rule="evenodd" d="M40.3327 168.226C39.7767 169.28 39.8467 171.006 41.8207 171.411C45.1127 171.42 44.2457 164.73 40.3327 168.226Z" fill="white"/>
<path fill-rule="evenodd" clip-rule="evenodd" d="M33.0637 171.815C32.1127 169.808 36.8977 173.093 34.7687 176.667C34.5367 175.049 33.6587 171.117 33.0637 171.815Z" fill="#73E0AF"/>
<path fill-rule="evenodd" clip-rule="evenodd" d="M42.1415 167.57C42.2755 167.486 44.0505 168.896 43.0195 169.671C42.9865 169.101 40.9335 167.952 42.1415 167.57Z" fill="#73E0AF"/>
<path fill-rule="evenodd" clip-rule="evenodd" d="M55.6574 176.807C56.4074 175.943 56.8394 173.545 57.4284 175.038C56.1154 178.469 52.9414 180.343 52.6904 180.213C51.6674 179.351 54.0024 179.262 55.6574 176.807Z" fill="#73E0AF"/>
<path fill-rule="evenodd" clip-rule="evenodd" d="M81.2385 167.881C81.6335 167.927 82.0825 172.012 81.2385 172.368C80.8445 172.321 80.3955 168.237 81.2385 167.881Z" fill="#73E0AF"/>
<path fill-rule="evenodd" clip-rule="evenodd" d="M81.6076 173.412C81.3836 173.785 82.1006 174.816 81.2386 175.318C80.7566 175.569 80.4796 172.102 81.6076 173.412Z" fill="#73E0AF"/>
<path fill-rule="evenodd" clip-rule="evenodd" d="M105.012 168.277C104.644 168.305 107.977 172.888 107.114 174.5C106.476 173.209 103.031 167.238 105.012 168.277Z" fill="#73E0AF"/>
<path fill-rule="evenodd" clip-rule="evenodd" d="M124.069 177.909C124.04 177.91 124.746 177.39 124.707 178.28C123.708 179.975 121.776 181.236 121.519 181.144C120.44 180.485 122.523 180.309 124.069 177.909Z" fill="#73E0AF"/>
<path fill-rule="evenodd" clip-rule="evenodd" d="M15.167 131.289C15.569 133.084 14.51 134.619 12.543 135.086C10.704 135.526 8.92697 134.457 8.57497 132.715C8.24497 131.071 9.50397 129.408 11.408 128.986C13.215 128.587 14.776 129.543 15.167 131.289V131.289Z" fill="#B894EA"/>
<path fill-rule="evenodd" clip-rule="evenodd" d="M18.9932 156.934C16.4892 157.617 13.9282 156.263 13.2502 153.919C12.5952 151.659 14.2612 149.379 17.0172 148.75C19.5042 148.185 21.7922 149.475 22.3872 151.779C22.9512 153.958 21.4282 156.269 18.9932 156.934Z" fill="#FF5284"/>
<path fill-rule="evenodd" clip-rule="evenodd" d="M5.14417 147.763C3.18817 148.296 1.18017 147.242 0.651168 145.409C0.139168 143.641 1.44317 141.855 3.59917 141.369C5.54217 140.924 7.33217 141.935 7.80217 143.736C8.24117 145.435 7.04817 147.243 5.14417 147.763V147.763Z" fill="#A7E8CC"/>
<path fill-rule="evenodd" clip-rule="evenodd" d="M124.925 50.6658C123.17 50.1178 122.37 48.4318 122.949 46.4948C123.486 44.6828 125.3 43.6778 126.985 44.2418C128.572 44.7778 129.385 46.7008 128.8 48.5598C128.241 50.3248 126.635 51.1978 124.925 50.6658Z" fill="#B894EA"/>
<path fill-rule="evenodd" clip-rule="evenodd" d="M100.8 41.1638C101.461 38.6528 103.912 37.1108 106.281 37.6958C108.567 38.2578 109.71 40.8408 108.877 43.5408C108.123 45.9768 105.862 47.3148 103.568 46.6798C101.401 46.0798 100.16 43.6038 100.8 41.1638Z" fill="#73E0AF"/>
<path fill-rule="evenodd" clip-rule="evenodd" d="M115.665 33.7505C116.181 31.7905 118.097 30.5775 119.95 31.0355C121.736 31.4765 122.631 33.4975 121.977 35.6075C121.39 37.5125 119.62 38.5595 117.826 38.0655C116.133 37.5975 115.163 35.6595 115.665 33.7505Z" fill="#FFD41D"/>
</svg>
