<svg width="266" height="264" viewBox="0 0 266 264" fill="none" xmlns="http://www.w3.org/2000/svg">
<path fill-rule="evenodd" clip-rule="evenodd" d="M61.5177 142.734C61.365 143.494 60.6879 144.36 60.0835 144.818C59.4978 145.262 58.8642 145.357 58.2484 145.237C58.2237 144.267 58.4347 143.29 59.0347 142.537C59.2443 142.275 62.0401 140.137 61.5177 142.734ZM63.4907 144.349C64.5335 142.298 63.9983 139.722 61.669 139.06C59.4958 138.441 56.8616 140.638 56.1198 142.557C55.9873 142.899 55.8875 143.25 55.8114 143.607C55.6492 143.405 55.5044 143.199 55.3838 142.995C53.6204 139.999 56.3036 137.415 58.1555 135.401C58.3097 135.233 58.1599 134.944 57.9301 135.01C53.5478 136.268 51.5496 141.288 54.1764 145.097C54.6445 145.776 55.1886 146.308 55.7758 146.706C56.3945 150.301 59.1173 153.795 62.304 154.966C62.8838 155.179 63.1368 154.34 62.697 154.024C60.6558 152.558 59.441 149.994 58.7051 147.578C60.5891 147.536 62.438 146.419 63.4907 144.349" fill="#F9AF3E"/>
<path fill-rule="evenodd" clip-rule="evenodd" d="M60.6213 49.0796C59.1566 48.2192 57.3288 47.799 55.5812 47.3182C57.032 45.83 58.6718 43.9118 58.4331 42.2755C58.3845 41.9442 57.9674 41.7409 57.6763 41.8352C56.8015 42.1196 56.5366 42.6321 56.0289 43.4183C55.3741 44.4321 54.6387 45.3893 53.8751 46.321C53.3707 44.3349 53.0872 41.7307 51.802 40.0739C51.6846 39.9229 51.4589 40.026 51.4093 40.1804C50.8604 41.8983 51.2604 44.0486 51.5739 45.9106C49.852 45.2666 48.0138 44.7507 46.2824 45.2319C45.9531 45.3238 45.8987 45.7885 46.1888 45.9648C47.9183 47.0163 49.9871 47.6241 51.9194 48.337C51.928 48.4058 51.9371 48.4752 51.9461 48.5441C50.4777 50.113 48.8842 51.588 47.6153 53.3147C47.4917 53.4828 47.6959 53.7344 47.8806 53.668C49.5118 53.0792 50.9587 51.9266 52.2687 50.6734C52.526 52.062 52.9035 53.4188 53.5568 54.4199C54.3113 55.5764 56.2465 54.8758 55.8208 53.4427C55.4304 52.1284 55.0639 50.8141 54.7084 49.4959C56.5591 50.2923 58.6069 51.0482 60.4342 50.5449C61.087 50.3646 61.2087 49.4246 60.6213 49.0796" fill="#EA4468"/>
<path fill-rule="evenodd" clip-rule="evenodd" d="M38.8533 50.1551C37.3036 50.1524 35.8093 49.8035 34.2908 50.1612C33.9033 50.2522 33.9028 50.7589 34.2908 50.8504C35.8638 51.2194 37.3729 50.8412 38.8933 50.416C39.0537 50.3711 39.0275 50.1551 38.8533 50.1551Z" fill="#EA4468"/>
<path fill-rule="evenodd" clip-rule="evenodd" d="M27.6273 52.136C25.874 51.9896 23.8421 51.7638 22.3015 52.6803C21.8373 52.9561 21.926 53.6538 22.4513 53.802C24.1808 54.2897 26.3268 53.8427 27.8191 52.8304C28.1387 52.6134 28.0099 52.1678 27.6273 52.136" fill="#EA4468"/>
<path fill-rule="evenodd" clip-rule="evenodd" d="M15.548 55.1088C14.2956 54.9036 13.0252 55.0441 11.7608 55.0857C10.6185 55.1238 9.28429 54.9434 8.31942 55.5715C7.89928 55.8449 7.88782 56.3227 8.31942 56.5939C9.32217 57.2255 10.6075 56.9631 11.7608 56.8399C13.0944 56.6976 14.4525 56.5851 15.696 56.1153C16.1839 55.9305 16.0479 55.1908 15.548 55.1088Z" fill="#EA4468"/>
<path fill-rule="evenodd" clip-rule="evenodd" d="M44.657 54.0067C43.947 54.1527 43.2956 54.4584 42.6665 54.7837C41.9294 55.1653 41.4638 55.4959 41.0742 56.193C40.8293 56.631 41.2262 57.0805 41.7406 56.9877C42.5832 56.8355 43.0507 56.4996 43.6368 55.9374C44.1358 55.4586 44.6168 54.9572 44.9643 54.3732C45.0819 54.1762 44.8907 53.9588 44.657 54.0067" fill="#EA4468"/>
<path fill-rule="evenodd" clip-rule="evenodd" d="M36.3708 61.0469C35.1287 61.6762 33.9248 62.3884 33.079 63.3643C32.8193 63.6644 33.2483 64.0957 33.6662 63.9811C35.1703 63.5704 36.4934 62.6813 36.9824 61.4263C37.0906 61.1473 36.6766 60.892 36.3708 61.0469Z" fill="#EA4468"/>
<path fill-rule="evenodd" clip-rule="evenodd" d="M25.5493 70.0367C23.6986 71.1806 21.9794 73.1005 21.0502 75.274C20.8373 75.773 21.3482 76.2384 21.7126 75.864C23.2473 74.2854 24.7225 72.4081 25.9476 70.4966C26.133 70.2078 25.7853 69.8908 25.5493 70.0367" fill="#EA4468"/>
<path fill-rule="evenodd" clip-rule="evenodd" d="M37.7781 54.0176C31.9128 56.9884 25.2819 59.2619 20.1245 63.3561C19.7788 63.6306 20.2244 64.1672 20.5929 63.9491C26.1968 60.6328 33.3334 58.9499 37.957 54.2447C38.0758 54.1238 37.9264 53.9427 37.7781 54.0176" fill="#F9AF3E"/>
<path fill-rule="evenodd" clip-rule="evenodd" d="M48.7938 58.1108C48.7273 57.9922 48.5869 57.9763 48.473 58.0278C46.9696 58.7056 45.7445 60.9748 44.6483 62.194C42.8406 64.2038 41.4566 66.5101 40.0252 68.7878C37.0234 73.5617 33.7638 78.7627 33.0053 84.431C32.9224 85.0485 33.8347 85.1874 34.118 84.7291C37.3666 79.485 39.7059 73.7248 42.9351 68.4427C44.2391 66.3099 45.5906 64.3036 47.118 62.3236C47.9224 61.2809 49.5797 59.5144 48.7938 58.1108" fill="#FF93D5"/>
<path fill-rule="evenodd" clip-rule="evenodd" d="M53.6642 63.5125C53.4342 62.3387 53.1116 61.0803 52.3502 60.0666C52.2588 59.9452 52.0644 60.0025 52.0489 60.1362C51.9132 61.3055 52.0989 62.5145 52.1375 63.6883C52.1714 64.7225 51.8298 65.8698 52.5613 66.757C52.8246 67.0768 53.3232 67.0851 53.5854 66.757C54.3416 65.8086 53.8724 64.5746 53.6642 63.5125Z" fill="#EA4468"/>
<path fill-rule="evenodd" clip-rule="evenodd" d="M53.9203 74.5899C53.7727 73.3861 53.5129 72.2581 53.4526 71.0262C53.3857 69.67 52.0353 69.646 52.0048 71.0262C51.9782 72.1974 52.0665 73.3435 52.1752 74.5014C52.2828 75.6502 52.3573 76.5404 53.1582 76.9717C53.3094 77.0527 53.4675 76.9477 53.5809 76.8075C54.1038 76.1609 54.0322 75.5052 53.9203 74.5899" fill="#EA4468"/>
<path fill-rule="evenodd" clip-rule="evenodd" d="M56.9748 87.6871C56.7298 86.4935 56.3585 85.3031 55.9138 84.1688C55.5998 83.3665 55.3216 82.5062 54.5544 82.0419C54.3813 81.9369 54.1756 82.0414 54.1145 82.2199C53.8478 83.0039 54.1117 83.8317 54.2536 84.6241C54.4698 85.8305 54.6486 87.0552 54.9399 88.2455C55.2639 89.5696 57.2449 89.0032 56.9748 87.6871" fill="#EA4468"/>
<path fill-rule="evenodd" clip-rule="evenodd" d="M46.8011 70.0867C44.9251 75.8415 44.9 82.5706 45.0621 88.6789C45.0735 89.1078 45.5817 89.1063 45.5954 88.6789C45.7979 82.4441 46.6464 76.324 46.9996 70.1199C47.0087 69.9666 46.8407 69.9656 46.8011 70.0867Z" fill="#E275AB"/>
<path fill-rule="evenodd" clip-rule="evenodd" d="M62.3508 57.7816C61.7301 56.9913 60.3774 55.4983 59.3403 56.1684C59.0461 56.3588 58.9614 56.702 59.0152 57.0536C59.0958 57.5765 59.5868 57.9781 59.9007 58.3472C60.313 58.8336 60.6559 59.4121 60.9967 59.9608C61.3335 60.504 61.6951 61.4189 62.2575 61.7166C62.6739 61.9368 63.3403 62.2238 63.7019 61.72C64.6504 60.3961 63.0979 58.7319 62.3508 57.7816Z" fill="#EA4468"/>
<path fill-rule="evenodd" clip-rule="evenodd" d="M70.9801 70.382C70.6682 69.3996 70.0406 68.6939 69.4846 67.9141C68.8284 66.9944 68.2367 65.9612 67.527 65.1079C67.3056 64.8415 66.9314 65.1079 67.0109 65.4775C67.2481 66.5777 67.8002 67.6531 68.3584 68.5512C68.9535 69.5082 69.5671 70.5144 70.4987 70.9743C70.7649 71.1056 71.0833 70.7073 70.9801 70.382Z" fill="#EA4468"/>
<path fill-rule="evenodd" clip-rule="evenodd" d="M78.2641 77.0385C77.7043 76.1245 77.0813 75.2709 76.5013 74.3759C75.7877 73.274 74.4757 74.8395 75.223 75.9284C75.7235 76.6583 76.2506 77.3599 76.7512 78.0899C77.2535 78.8225 77.6738 79.651 78.4471 79.9779C78.6543 80.0656 78.8822 79.8804 78.9387 79.639C79.1648 78.6722 78.7261 77.7924 78.2641 77.0385Z" fill="#EA4468"/>
<path fill-rule="evenodd" clip-rule="evenodd" d="M65.9591 74.2298C64.8895 71.6405 63.3475 69.4029 61.8645 67.0497C60.3996 64.7261 59.1528 62.0377 57.2677 60.0479C57.1546 59.9289 56.9682 60.0508 57.0046 60.2054C57.6429 62.9062 59.3258 65.3863 60.6546 67.7785C62.0336 70.261 63.3557 72.6878 65.2005 74.8326C65.5968 75.2933 66.1565 74.7072 65.9591 74.2298" fill="#F9AF3E"/>
<path fill-rule="evenodd" clip-rule="evenodd" d="M94.8265 66.7521C92.8155 64.2623 89.6823 62.4305 87.1514 60.4841C84.6658 58.5728 82.1224 56.6621 79.3435 55.189C74.5546 52.6509 68.618 52.2461 64.1894 49.0232C64.0672 48.9343 63.9369 49.1225 64.0337 49.2239C67.7094 53.092 73.0222 54.3367 77.7163 56.5812C80.8505 58.0801 83.6364 60.415 86.3295 62.5641C88.7028 64.458 91.1928 66.99 94.1209 67.9586C94.8784 68.2089 95.2401 67.2642 94.8265 66.7521" fill="#FF93D5"/>
<path fill-rule="evenodd" clip-rule="evenodd" d="M99.0853 28.0104C91.776 29.076 84.7271 31.0759 77.8344 33.7029C71.5979 36.0798 64.636 39.136 60.1335 44.1891C59.7656 44.6022 60.2229 45.1881 60.7195 44.9414C63.7474 43.4369 66.5841 41.5864 69.5845 40.0274C72.712 38.4027 75.9879 37.0452 79.2943 35.8249C85.9203 33.3784 92.8228 31.7872 99.4772 29.4181C100.387 29.094 100.014 27.8752 99.0853 28.0104" fill="#FF93D5"/>
<path fill-rule="evenodd" clip-rule="evenodd" d="M71.9326 44.6505C71.1351 43.4379 69.3561 44.2261 68.2653 44.5812C67.429 44.8541 66.6065 45.1626 65.7786 45.4571C65.2042 45.6616 64.4406 45.7395 64.0433 46.2352C64.0006 46.2886 63.9835 46.3502 64.0198 46.4132C64.6068 47.4267 66.5521 46.8646 67.4462 46.6533C68.3237 46.4455 69.1854 46.1943 70.0712 46.0196C70.8089 45.8743 71.5382 45.8507 71.9326 45.1404C72.015 44.9917 72.0297 44.7978 71.9326 44.6505Z" fill="#EA4468"/>
<path fill-rule="evenodd" clip-rule="evenodd" d="M81.6548 42.0931C80.561 41.9083 79.7183 42.0154 78.6443 42.2669C77.4796 42.5393 76.1616 42.7467 75.1818 43.3506C74.9401 43.4999 74.9094 43.8607 75.2745 43.9246C76.2623 44.0976 77.2644 43.938 78.2466 43.7938C79.5537 43.6013 80.6938 43.4696 81.7716 42.8145C82.0761 42.6293 82.113 42.1708 81.6548 42.0931Z" fill="#EA4468"/>
<path fill-rule="evenodd" clip-rule="evenodd" d="M92.7643 39.4488C91.8584 39.0092 91.098 38.9312 90.0893 39.0498C89.2859 39.144 87.9858 39.1526 87.3012 39.6102C86.9841 39.8225 86.8775 40.2557 87.1773 40.537C87.8053 41.1271 89.0198 40.9883 89.8195 40.9801C90.9442 40.9693 91.7878 40.7579 92.7643 40.2516C93.0715 40.0921 93.0855 39.6047 92.7643 39.4488Z" fill="#EA4468"/>
<path fill-rule="evenodd" clip-rule="evenodd" d="M91.3686 48.2084C87.9209 47.9165 84.5171 47.9672 81.0619 48.1409C79.3777 48.2252 77.694 48.3082 76.0082 48.3657C74.7052 48.4097 73.2198 48.2442 72.0902 48.8835C71.9626 48.9556 71.9775 49.1025 72.0902 49.1768C74.0001 50.4467 77.9286 49.8646 80.1979 49.8804C83.942 49.9072 87.6449 49.7363 91.3686 49.3985C92.2082 49.3223 92.2127 48.2801 91.3686 48.2084Z" fill="#F9AF3E"/>
<path fill-rule="evenodd" clip-rule="evenodd" d="M72.8136 12.2101C69.3047 15.9789 66.3596 20.1498 63.8642 24.6323C61.8351 28.2779 59.1663 33.6475 60.25 37.8941C60.2807 38.0135 60.4615 38.0413 60.5214 37.9291C61.5067 36.0792 61.9579 33.9413 62.6791 31.9782C63.5708 29.5499 64.8553 27.249 66.1505 25.0099C68.5314 20.8936 71.4965 17.1396 73.9076 13.0401C74.2984 12.3754 73.357 11.6263 72.8136 12.2101" fill="#F9AF3E"/>
<path fill-rule="evenodd" clip-rule="evenodd" d="M50.2065 26.3147C49.9532 23.2581 49.9108 20.1885 49.8856 17.1252C49.8599 14.0605 49.7955 10.9938 49.6914 7.92999C49.605 5.39095 49.7493 2.5462 48.4182 0.242579C48.1908 -0.150265 47.5346 -0.0337594 47.4064 0.361491C46.63 2.76573 47.181 5.46075 47.3119 7.92999C47.475 10.9933 47.5158 14.0609 47.6451 17.1252C47.8833 22.8046 47.8576 29.4223 50.259 34.7647C50.4093 35.0997 51.0048 35.0834 51 34.6746C50.9667 31.893 50.4366 29.092 50.2065 26.3147" fill="#FF93D5"/>
<path fill-rule="evenodd" clip-rule="evenodd" d="M55.5804 31.3301C55.268 30.8895 54.7489 30.8905 54.436 31.3301C53.9529 32.0087 53.962 32.7283 54.0406 33.5372C54.1139 34.2997 54.0171 35.0192 54.2256 35.7573C54.2807 35.9524 54.5136 36.0711 54.6876 35.9529C55.3653 35.4928 55.5555 34.8426 55.7789 34.0537C56.0439 33.117 56.168 32.1579 55.5804 31.3301" fill="#EA4468"/>
<path fill-rule="evenodd" clip-rule="evenodd" d="M57.821 23.3266C57.7074 23.0118 57.2084 22.8334 57.0431 23.2209C56.9522 23.4332 56.7969 23.5942 56.7197 23.8118C56.6307 24.0638 56.579 24.3267 56.5208 24.5876C56.3846 25.1965 56.2338 25.7874 56.0304 26.3764C55.8347 26.9408 56.6375 27.2353 56.925 26.7686C57.2474 26.2456 57.5408 25.7095 57.7851 25.1417C58.0717 24.4758 58.0594 23.9883 57.821 23.3266" fill="#EA4468"/>
<path fill-rule="evenodd" clip-rule="evenodd" d="M59.9826 15.5103C59.9318 15.0461 59.5569 14.8399 59.2456 15.1423C58.2656 16.0941 58.1187 18.0611 58.0025 19.4761C57.9499 20.118 58.7369 20.1745 58.8908 19.6209C59.2478 18.3371 60.1348 16.9015 59.9826 15.5103Z" fill="#EA4468"/>
<path fill-rule="evenodd" clip-rule="evenodd" d="M67.4321 32.0077C66.5085 32.1795 65.8367 32.8771 65.2182 33.6586C64.7367 34.2667 64.1272 34.954 64.0017 35.8117C63.9935 35.8705 64.0143 35.9273 64.0658 35.9447C64.7354 36.1743 65.4232 35.6435 65.9319 35.1883C66.7127 34.4886 67.4425 33.8043 67.9361 32.7825C68.1459 32.3468 67.8033 31.9386 67.4321 32.0077" fill="#EA4468"/>
<path fill-rule="evenodd" clip-rule="evenodd" d="M76.475 27.0013C75.3968 27.0826 74.5716 27.5303 73.7331 28.182C73.3639 28.4692 72.9666 28.729 72.6249 29.0476C72.4627 29.1982 72.1638 29.5701 72.0674 29.6384C71.9506 29.7207 71.9925 29.8887 72.1398 29.8992C72.3785 29.9167 72.5361 30.0204 72.8212 29.9964C73.3466 29.9531 73.8153 29.807 74.3095 29.6364C75.3973 29.2615 76.3052 28.7404 76.9294 27.7751C77.1324 27.461 76.8718 26.9714 76.475 27.0013Z" fill="#EA4468"/>
<path fill-rule="evenodd" clip-rule="evenodd" d="M84.7228 23.0276C83.9355 22.8903 83.2612 23.2928 82.5792 23.627C81.9962 23.9132 81.4954 24.1384 81.0411 24.5838C80.9703 24.6533 80.9981 24.7515 81.0703 24.8047C81.5872 25.1887 82.3131 24.915 82.8735 24.7567C83.6251 24.5443 84.5615 24.3319 84.954 23.5892C85.0605 23.388 84.9814 23.0727 84.7228 23.0276" fill="#EA4468"/>
<path fill-rule="evenodd" clip-rule="evenodd" d="M43.7861 40.6641C39.0987 36.0574 34.7301 31.1981 30.7732 25.943C28.9272 23.4908 27.1311 21.0037 25.3712 18.4889C23.6256 15.9939 21.986 13.2483 19.6747 11.2358C19.0169 10.663 17.6915 11.1946 18.0652 12.1755C19.1575 15.0393 21.0674 17.5006 22.8461 19.9692C24.713 22.5585 26.6179 25.123 28.6025 27.6229C32.7811 32.8854 37.3477 37.9835 42.8581 41.8699C43.5822 42.3807 44.3954 41.2628 43.7861 40.6641" fill="#FF93D5"/>
<path fill-rule="evenodd" clip-rule="evenodd" d="M44.6543 34.6039C43.8141 33.0143 42.8341 31.6404 41.7933 30.199C41.5142 29.8121 40.8932 30.0232 41.0158 30.5405C41.4215 32.2481 42.118 33.5029 43.0568 34.9509C43.9107 36.2691 44.6391 37.8516 45.7432 38.9576C45.8369 39.0517 45.9654 38.9765 45.9786 38.8559C46.1425 37.3471 45.3317 35.8853 44.6543 34.6039" fill="#EA4468"/>
<path fill-rule="evenodd" clip-rule="evenodd" d="M38.8671 19.2268C38.5941 18.7643 37.886 19.0714 38.0157 19.5898C38.5512 21.7244 38.9958 23.8806 40.1652 25.7731C40.4549 26.2418 41.0663 25.9152 40.9941 25.42C40.6741 23.221 39.9952 21.1372 38.8671 19.2268Z" fill="#EA4468"/>
<path fill-rule="evenodd" clip-rule="evenodd" d="M37.988 9.21378C37.755 8.82855 36.9622 9.00081 37.0014 9.43717C37.1518 11.1141 37.6035 12.7106 37.3729 14.4015C37.2629 15.2121 38.7517 15.1868 38.8777 14.4015C39.1659 12.6029 38.974 10.8436 37.988 9.21378Z" fill="#EA4468"/>
<path fill-rule="evenodd" clip-rule="evenodd" d="M37.8794 45.522C32.1323 43.0076 25.0419 42.9197 18.9248 43.0279C12.8869 43.1346 6.02581 43.44 0.459598 46.1495C-0.391929 46.5637 0.0421447 48.0385 0.927889 47.9992C6.94919 47.733 12.8786 46.1223 18.9248 45.7866C25.215 45.4372 31.578 46.3843 37.8339 45.8828C38.0353 45.8671 38.0573 45.5999 37.8794 45.522" fill="#FF93D5"/>
<path fill-rule="evenodd" clip-rule="evenodd" d="M37.8774 43.2251C36.4425 41.7606 34.487 40.8713 32.7067 40.0487C32.2319 39.8293 31.7577 40.3968 32.139 40.854C33.5171 42.5084 35.4336 44.0355 37.5845 43.9994C37.9341 43.9933 38.1485 43.502 37.8774 43.2251" fill="#EA4468"/>
<path fill-rule="evenodd" clip-rule="evenodd" d="M24.9558 37.6254C24.3993 36.7937 23.6616 36.2345 22.9077 35.6693C22.093 35.0586 21.4545 34.3761 20.5299 34.0197C20.247 33.9106 19.9109 34.2736 20.0217 34.6206C20.3963 35.7866 21.0696 36.2537 21.9821 36.8228C22.8808 37.3836 23.8151 37.8474 24.825 37.9981C25.0058 38.025 25.0411 37.7525 24.9558 37.6254Z" fill="#EA4468"/>
<path fill-rule="evenodd" clip-rule="evenodd" d="M10.926 29.5967C9.72369 28.5941 8.32449 27.243 6.75061 27.0073C6.20576 26.9253 5.72762 27.5548 6.18028 28.0267C7.31817 29.2144 9.19412 29.5918 10.7041 29.9934C10.9093 30.0478 11.1136 29.7533 10.926 29.5967" fill="#EA4468"/>
<path fill-rule="evenodd" clip-rule="evenodd" d="M83.9635 72.2666C82.5705 68.5741 79.0729 66.9584 76.4892 64.2769C75.6814 63.4378 74.4859 64.6924 75.239 65.5605C77.5728 68.2517 80.5376 70.2872 83.0029 72.8408C83.3849 73.2364 84.179 72.8379 83.9635 72.2666" fill="#E275AB"/>
<path fill-rule="evenodd" clip-rule="evenodd" d="M133.91 47.0114C134.075 46.8844 134.001 46.6181 133.788 46.5928C132.666 46.4596 131.566 46.9174 130.548 47.4387C130.581 46.3269 130.645 45.0404 130.153 44.0856C130.108 43.9997 129.959 43.9591 129.899 44.057C129.242 45.1315 129.29 46.6725 129.148 47.8716C128.591 47.3943 128.05 46.8997 127.554 46.3646C127.169 45.9493 126.959 45.6738 126.39 45.5822C126.199 45.5516 125.957 45.7063 125.956 45.903C125.949 46.8763 127.138 47.8545 128.171 48.5982C127.124 49.0264 126.02 49.4269 125.182 50.0523C124.846 50.3034 125.003 50.8404 125.426 50.8901C126.609 51.0275 127.82 50.4132 128.905 49.7921C128.797 50.5903 128.683 51.387 128.553 52.1861C128.413 53.0573 129.68 53.3008 130.05 52.5628C130.37 51.9236 130.488 51.0996 130.527 50.2685C131.453 50.8877 132.454 51.4376 133.523 51.6424C133.645 51.6658 133.75 51.5016 133.658 51.4142C132.715 50.5153 131.597 49.7873 130.544 48.9973C130.544 48.9577 130.543 48.9199 130.543 48.8808C131.685 48.3008 132.923 47.7709 133.91 47.0114" fill="#62CCA6"/>
<path fill-rule="evenodd" clip-rule="evenodd" d="M139.075 49.5466C139.998 49.3668 140.853 48.8761 141.791 49.0292C142.031 49.0679 142.08 49.5319 141.857 49.6589C140.957 50.1777 140.022 50.0052 139.076 49.7906C138.977 49.7679 138.972 49.5673 139.075 49.5466" fill="#96DCED"/>
<path fill-rule="evenodd" clip-rule="evenodd" d="M146.211 50.279C147.345 50.0797 148.653 49.8205 149.748 50.1776C150.079 50.285 150.086 50.6465 149.757 50.7595C148.671 51.131 147.224 51.0559 146.151 50.6461C145.921 50.5586 145.963 50.3226 146.211 50.279" fill="#96DCED"/>
<path fill-rule="evenodd" clip-rule="evenodd" d="M153.23 50.3612C153.984 50.1786 154.784 50.1681 155.569 50.1089C156.281 50.0555 157.088 49.8799 157.747 50.1338C158.034 50.2442 158.089 50.4832 157.849 50.6464C157.291 51.0271 156.469 50.9771 155.744 50.9887C154.905 51.0021 154.053 51.0316 153.237 50.875C152.917 50.8135 152.927 50.4339 153.23 50.3612Z" fill="#96DCED"/>
<path fill-rule="evenodd" clip-rule="evenodd" d="M136.142 52.0007C136.478 52.0413 136.799 52.2107 137.112 52.3978C137.478 52.6169 137.715 52.8241 137.944 53.3213C138.088 53.6331 137.937 54.0187 137.694 53.9993C137.296 53.9667 137.058 53.755 136.748 53.3825C136.485 53.0644 136.228 52.7274 136.026 52.3131C135.958 52.1735 136.031 51.987 136.142 52.0007" fill="#96DCED"/>
<path fill-rule="evenodd" clip-rule="evenodd" d="M142.264 56.0204C142.879 56.3863 143.483 56.819 143.946 57.4801C144.088 57.6832 143.927 58.0451 143.728 57.9954C143.012 57.8161 142.34 57.2612 142.017 56.3586C141.945 56.1584 142.113 55.9299 142.264 56.0204" fill="#96DCED"/>
<path fill-rule="evenodd" clip-rule="evenodd" d="M148.296 61.0107C149.707 61.4848 151.093 62.4104 151.941 63.5526C152.135 63.8147 151.815 64.1256 151.524 63.9474C150.298 63.1981 149.089 62.2744 148.053 61.3076C147.897 61.1617 148.116 60.9498 148.296 61.0107Z" fill="#96DCED"/>
<path fill-rule="evenodd" clip-rule="evenodd" d="M140.127 51.006C144.026 52.4271 148.336 53.3182 151.899 55.546C152.138 55.696 151.911 56.0907 151.662 55.981C147.894 54.3074 143.323 53.853 140.036 51.1723C139.952 51.1036 140.028 50.9703 140.127 51.006Z" fill="#4ED2C2"/>
<path fill-rule="evenodd" clip-rule="evenodd" d="M133.066 55.0848C133.096 55.0079 133.181 54.9864 133.254 55.0079C134.229 55.2887 135.174 56.552 135.948 57.1931C137.225 58.2504 138.27 59.5232 139.341 60.7734C141.587 63.3959 144.029 66.2527 144.987 69.6037C145.091 69.969 144.548 70.1299 144.335 69.878C141.898 66.9942 139.968 63.7217 137.539 60.8124C136.558 59.6386 135.56 58.5448 134.456 57.4814C133.875 56.9207 132.711 55.9973 133.066 55.0848" fill="#00ACE4"/>
<path fill-rule="evenodd" clip-rule="evenodd" d="M131.029 58.0756C131.046 57.3996 131.103 56.6696 131.404 56.0477C131.44 55.9729 131.543 55.9914 131.562 56.0662C131.73 56.7144 131.739 57.407 131.819 58.07C131.889 58.654 132.161 59.2764 131.864 59.8257C131.758 60.023 131.506 60.0618 131.345 59.8955C130.88 59.4136 131.014 58.6873 131.029 58.0756" fill="#96DCED"/>
<path fill-rule="evenodd" clip-rule="evenodd" d="M132.004 65.722C132.022 65.0301 132.108 64.3668 132.074 63.6689C132.037 62.9008 132.81 62.7288 132.904 63.4989C132.984 64.1532 132.998 64.806 133 65.4683C133.002 66.1251 133.009 66.6325 132.574 66.9684C132.492 67.0316 132.395 66.991 132.323 66.9258C131.987 66.6245 131.991 66.2484 132.004 65.722Z" fill="#96DCED"/>
<path fill-rule="evenodd" clip-rule="evenodd" d="M131.001 73.3536C131.033 72.6729 131.119 71.9843 131.239 71.3211C131.325 70.8521 131.391 70.3538 131.691 70.0362C131.759 69.9644 131.853 70.0064 131.89 70.1001C132.053 70.5135 131.99 70.993 131.978 71.4431C131.959 72.1282 131.958 72.8203 131.906 73.5028C131.849 74.2618 130.966 74.1039 131.001 73.3536Z" fill="#96DCED"/>
<path fill-rule="evenodd" clip-rule="evenodd" d="M135.146 62.0408C137.015 65.2256 137.602 69.176 137.999 72.7818C138.026 73.0344 137.651 73.0869 137.605 72.8371C136.929 69.1957 135.786 65.689 135.002 62.0808C134.983 61.9913 135.106 61.9735 135.146 62.0408" fill="#4ED2C2"/>
<path fill-rule="evenodd" clip-rule="evenodd" d="M125.565 56.3349C125.794 55.7911 126.308 54.7462 126.805 55.0564C126.946 55.1447 127.003 55.3471 127 55.5668C126.994 55.8949 126.799 56.1884 126.681 56.4445C126.527 56.7818 126.408 57.1693 126.288 57.5378C126.17 57.9029 126.062 58.498 125.83 58.735C125.658 58.9097 125.38 59.1496 125.191 58.8763C124.696 58.1577 125.288 56.9888 125.565 56.3349" fill="#96DCED"/>
<path fill-rule="evenodd" clip-rule="evenodd" d="M121.005 63.6622C121.12 63.0318 121.441 62.5369 121.714 62.0034C122.036 61.3752 122.313 60.6842 122.671 60.0901C122.783 59.9046 123.02 60.0274 122.999 60.2597C122.934 60.954 122.684 61.6659 122.417 62.2709C122.133 62.9157 121.842 63.5918 121.327 63.9705C121.18 64.0785 120.966 63.8703 121.005 63.6622" fill="#96DCED"/>
<path fill-rule="evenodd" clip-rule="evenodd" d="M118.286 68.1349C118.54 67.5101 118.832 66.9152 119.099 66.3C119.426 65.5424 120.264 66.37 119.917 67.1236C119.685 67.6281 119.435 68.1185 119.203 68.623C118.969 69.1298 118.789 69.6874 118.376 69.9721C118.266 70.0484 118.126 69.9591 118.079 69.8156C117.889 69.2416 118.076 68.6513 118.286 68.1349" fill="#96DCED"/>
<path fill-rule="evenodd" clip-rule="evenodd" d="M125.01 66.5626C125.414 64.8708 126.116 63.3531 126.774 61.7695C127.424 60.2054 127.922 58.4361 128.838 57.0398C128.893 56.9566 129.008 57.0148 129 57.1133C128.849 58.8351 128.087 60.5145 127.519 62.1088C126.931 63.7628 126.369 65.3774 125.488 66.8656C125.3 67.185 124.935 66.8748 125.01 66.5626" fill="#4ED2C2"/>
<path fill-rule="evenodd" clip-rule="evenodd" d="M108.062 64.3369C108.994 62.7884 110.61 61.5183 111.879 60.232C113.124 58.9685 114.402 57.7013 115.848 56.659C118.339 54.8637 121.65 54.1678 123.883 52.0186C123.945 51.9596 124.033 52.054 123.987 52.1186C122.229 54.568 119.338 55.6832 116.876 57.3066C115.232 58.3911 113.852 59.915 112.509 61.3273C111.325 62.5722 110.127 64.1821 108.556 64.9542C108.15 65.1537 107.87 64.6558 108.062 64.3369Z" fill="#00ACE4"/>
<path fill-rule="evenodd" clip-rule="evenodd" d="M101.483 41C105.895 41.0208 110.233 41.6299 114.532 42.6329C118.421 43.5404 122.798 44.7972 125.89 47.4757C126.143 47.6944 125.922 48.0892 125.607 47.9819C123.689 47.3292 121.854 46.4499 119.948 45.7616C117.96 45.0441 115.908 44.5008 113.849 44.0441C109.723 43.1282 105.507 42.7541 101.371 41.8867C100.805 41.7685 100.922 40.9975 101.483 41" fill="#00ACE4"/>
<path fill-rule="evenodd" clip-rule="evenodd" d="M118.023 48.3693C118.401 47.803 119.553 48.0339 120.248 48.1205C120.781 48.1871 121.308 48.2699 121.839 48.3465C122.206 48.3993 122.678 48.3869 122.963 48.5753C122.994 48.5953 123.01 48.6208 122.994 48.6498C122.726 49.118 121.493 48.9945 120.93 48.9572C120.378 48.921 119.831 48.8651 119.277 48.8434C118.815 48.8251 118.369 48.8589 118.066 48.5784C118.003 48.5201 117.977 48.4383 118.023 48.3693" fill="#96DCED"/>
<path fill-rule="evenodd" clip-rule="evenodd" d="M112.161 48.162C112.748 47.9662 113.226 47.9723 113.845 48.0524C114.516 48.1393 115.266 48.1741 115.868 48.4839C116.016 48.5603 116.068 48.7856 115.873 48.8523C115.342 49.0327 114.771 49.0052 114.214 48.9862C113.471 48.9595 112.827 48.9591 112.166 48.625C111.98 48.5304 111.914 48.2441 112.161 48.162" fill="#96DCED"/>
<path fill-rule="evenodd" clip-rule="evenodd" d="M105.12 48.408C105.676 48.1275 106.171 48.0369 106.848 48.0267C107.388 48.0185 108.248 47.9343 108.745 48.1151C108.975 48.1989 109.088 48.4072 108.918 48.5674C108.56 48.9038 107.744 48.9174 107.215 48.9681C106.472 49.0399 105.893 48.9922 105.199 48.8072C104.98 48.7486 104.924 48.5072 105.12 48.408" fill="#96DCED"/>
<path fill-rule="evenodd" clip-rule="evenodd" d="M107.326 52.2708C109.363 51.8189 111.406 51.5802 113.491 51.4118C114.507 51.3298 115.523 51.247 116.537 51.1484C117.322 51.072 118.196 50.8533 118.932 51.1544C119.015 51.1884 119.02 51.2796 118.96 51.334C117.935 52.2624 115.528 52.2182 114.171 52.4081C111.932 52.7213 109.699 52.9107 107.438 52.9996C106.928 53.0191 106.828 52.3816 107.326 52.2708" fill="#4ED2C2"/>
<path fill-rule="evenodd" clip-rule="evenodd" d="M115.642 30.094C117.966 32.1251 120.001 34.4541 121.803 37.0153C123.268 39.0982 125.244 42.1949 124.975 44.9205C124.968 44.9972 124.866 45.0301 124.823 44.9659C124.104 43.9047 123.668 42.6194 123.092 41.4651C122.379 40.0373 121.452 38.7231 120.524 37.4477C118.817 35.1033 116.806 33.0343 115.084 30.7033C114.805 30.3252 115.282 29.7791 115.642 30.094" fill="#4ED2C2"/>
<path fill-rule="evenodd" clip-rule="evenodd" d="M130.159 35.8048C130.066 33.9696 129.887 32.1431 129.701 30.3213C129.515 28.4991 129.345 26.6726 129.191 24.8446C129.064 23.3303 128.823 21.6514 129.212 20.1818C129.279 19.9309 129.55 19.9501 129.627 20.1755C130.094 21.545 130.044 23.1868 130.149 24.6642C130.279 26.496 130.459 28.3216 130.603 30.1515C130.87 33.5432 131.304 37.4721 130.679 40.8279C130.639 41.0389 130.399 41.0739 130.374 40.8312C130.21 39.1764 130.244 37.4717 130.159 35.8048" fill="#00ACE4"/>
<path fill-rule="evenodd" clip-rule="evenodd" d="M127.114 40.2557C127.226 39.9599 127.457 39.9141 127.623 40.153C127.879 40.5216 127.919 40.9593 127.933 41.4574C127.947 41.9276 128.034 42.3551 127.986 42.8228C127.973 42.9458 127.877 43.0393 127.792 42.9834C127.463 42.7648 127.339 42.3866 127.192 41.9281C127.017 41.3827 126.903 40.8113 127.114 40.2557" fill="#96DCED"/>
<path fill-rule="evenodd" clip-rule="evenodd" d="M125.032 35.2053C125.062 35.0348 125.265 34.9048 125.358 35.0915C125.409 35.1943 125.485 35.2648 125.531 35.3712C125.583 35.4939 125.621 35.6256 125.661 35.7557C125.755 36.059 125.854 36.3522 125.975 36.6396C126.092 36.9152 125.766 37.1285 125.616 36.9095C125.448 36.6649 125.291 36.4113 125.154 36.1373C124.993 35.8164 124.969 35.5641 125.032 35.2053Z" fill="#96DCED"/>
<path fill-rule="evenodd" clip-rule="evenodd" d="M123 30.2446C122.997 30.0479 123.282 29.936 123.563 30.0391C124.451 30.3642 124.758 31.1703 124.989 31.7495C125.092 32.0124 124.459 32.0923 124.282 31.8732C123.868 31.3658 123.011 30.833 123 30.2446Z" fill="#96DCED"/>
<path fill-rule="evenodd" clip-rule="evenodd" d="M120.348 41C120.991 41.0094 121.506 41.3434 121.991 41.7309C122.368 42.0321 122.84 42.3661 122.996 42.8449C123.006 42.8773 122.997 42.9116 122.963 42.9268C122.526 43.123 122.014 42.8856 121.63 42.6742C121.041 42.3495 120.488 42.0287 120.068 41.4915C119.89 41.2625 120.089 40.9961 120.348 41" fill="#96DCED"/>
<path fill-rule="evenodd" clip-rule="evenodd" d="M114.255 39.0036C114.869 38.9762 115.369 39.1092 115.895 39.3232C116.126 39.4174 116.371 39.499 116.589 39.607C116.692 39.6585 116.891 39.7905 116.951 39.8123C117.024 39.8387 117.014 39.9082 116.932 39.9209C116.799 39.941 116.719 39.9911 116.556 39.9975C116.257 40.0095 115.982 39.9771 115.689 39.9366C115.047 39.8474 114.493 39.6896 114.063 39.3382C113.923 39.2242 114.029 39.0139 114.255 39.0036" fill="#96DCED"/>
<path fill-rule="evenodd" clip-rule="evenodd" d="M109.164 37.0554C109.713 36.9058 110.238 37.091 110.76 37.235C111.207 37.3577 111.588 37.4514 111.96 37.6808C112.018 37.7168 112.008 37.7784 111.962 37.8165C111.631 38.0919 111.084 37.9887 110.666 37.9406C110.107 37.8764 109.414 37.8278 109.057 37.4132C108.959 37.3009 108.983 37.1044 109.164 37.0554Z" fill="#96DCED"/>
<path fill-rule="evenodd" clip-rule="evenodd" d="M135.089 44.2664C137.489 41.2061 139.677 38.0255 141.588 34.6493C142.479 33.074 143.336 31.4822 144.172 29.8779C144.999 28.2861 145.742 26.5582 146.949 25.1987C147.291 24.8124 148.125 25.0104 147.984 25.6102C147.577 27.3623 146.648 28.9478 145.799 30.527C144.907 32.1839 143.99 33.8293 143.02 35.4432C140.98 38.8426 138.693 42.1782 135.743 44.8889C135.355 45.2454 134.777 44.6644 135.089 44.2664" fill="#00ACE4"/>
<path fill-rule="evenodd" clip-rule="evenodd" d="M133.435 41.1604C133.75 40.0957 134.152 39.1524 134.58 38.1612C134.695 37.8956 135.025 37.9691 134.999 38.3018C134.911 39.3994 134.645 40.2426 134.269 41.2285C133.927 42.1255 133.668 43.1757 133.184 43.9641C133.143 44.0312 133.073 43.9966 133.058 43.9231C132.87 43.0011 133.18 42.019 133.435 41.1604" fill="#96DCED"/>
<path fill-rule="evenodd" clip-rule="evenodd" d="M136.581 31.1568C136.677 30.8825 137.025 30.9946 136.999 31.2883C136.89 32.4996 136.825 33.7157 136.407 34.8444C136.303 35.124 135.999 34.9934 136 34.7167C136.005 33.487 136.183 32.2923 136.581 31.1568" fill="#96DCED"/>
<path fill-rule="evenodd" clip-rule="evenodd" d="M136.243 24.1785C136.326 23.9063 136.733 23.9579 136.751 24.2482C136.818 25.3656 136.729 26.4532 136.986 27.5497C137.11 28.0749 136.37 28.1748 136.241 27.6672C135.946 26.5048 135.893 25.3299 136.243 24.1785" fill="#96DCED"/>
<path fill-rule="evenodd" clip-rule="evenodd" d="M139.059 46.7847C142.32 44.7284 146.585 44.0198 150.279 43.5197C153.925 43.026 158.083 42.5764 161.654 43.7048C162.201 43.8783 162.057 44.8125 161.52 44.871C157.871 45.2663 154.17 44.8375 150.5 45.1929C146.683 45.5626 142.925 46.7256 139.116 46.9996C138.993 47.0087 138.958 46.8485 139.059 46.7847Z" fill="#00ACE4"/>
<path fill-rule="evenodd" clip-rule="evenodd" d="M139.062 44.5425C139.948 43.4884 141.26 42.7424 142.452 42.0546C142.77 41.8717 143.161 42.1804 142.931 42.503C142.103 43.6702 140.879 44.8102 139.343 44.9978C139.093 45.0277 138.895 44.7419 139.062 44.5425Z" fill="#96DCED"/>
<path fill-rule="evenodd" clip-rule="evenodd" d="M146.017 40.8491C146.315 40.4594 146.751 40.1718 147.198 39.8804C147.68 39.5657 148.043 39.2328 148.617 39.0176C148.792 38.9518 149.04 39.0803 148.995 39.2344C148.843 39.7519 148.44 39.9961 147.89 40.3003C147.35 40.5999 146.779 40.8615 146.132 40.9966C146.016 41.021 145.973 40.9084 146.017 40.8491" fill="#96DCED"/>
<path fill-rule="evenodd" clip-rule="evenodd" d="M154.035 34.7896C154.713 34.137 155.485 33.2751 156.466 33.0158C156.806 32.926 157.165 33.2344 156.919 33.5326C156.298 34.2827 155.136 34.6453 154.211 34.9908C154.085 35.0382 153.929 34.892 154.035 34.7896Z" fill="#96DCED"/>
<path fill-rule="evenodd" clip-rule="evenodd" d="M113.009 66.611C113.561 64.2989 115.615 63.0364 117.002 61.2206C117.436 60.6529 118.295 61.2934 117.898 61.874C116.669 63.6734 114.986 65.1388 113.661 66.8683C113.456 67.1358 112.924 66.9686 113.009 66.611" fill="#4ED2C2"/>
<path fill-rule="evenodd" clip-rule="evenodd" d="M142.877 97.398C142.125 95.9493 140.788 94.8691 139.677 93.7378C138.382 92.4198 137.216 91.0886 136.094 89.6041C134.816 87.9127 132.145 90.1267 133.271 91.9079C134.252 93.4602 135.604 94.6819 136.969 95.8447C138.372 97.0404 140.003 98.3932 141.745 98.9537C142.614 99.2332 143.287 98.1879 142.877 97.398Z" fill="#FFAA32"/>
<path fill-rule="evenodd" clip-rule="evenodd" d="M147.967 94.0149C147.175 90.262 146.931 86.3131 145.94 82.6166C145.279 80.152 140.703 80.6247 141.015 83.2255C141.47 87.0105 142.105 92.6669 145.127 95.5254C146.384 96.7145 148.273 95.4661 147.967 94.0149Z" fill="#FFAA32"/>
<path fill-rule="evenodd" clip-rule="evenodd" d="M154.277 83.9071C153.205 85.5312 152.861 87.7025 152.398 89.5528C151.974 91.2479 151.357 92.9367 151.025 94.6483C150.835 95.6362 151.749 96.2797 152.657 95.8794C154.264 95.1717 155.002 93.0082 155.596 91.53C156.398 89.5333 157.307 87.4714 157.912 85.4111C158.556 83.2203 155.479 82.087 154.277 83.9071" fill="#FFAA32"/>
<path fill-rule="evenodd" clip-rule="evenodd" d="M208.928 120.449C208.83 119.941 208.147 119.888 207.796 120.169C206.859 120.92 206.329 121.793 205.672 122.761C205.062 123.661 204.309 124.533 204.012 125.578C203.942 125.825 204.186 126.054 204.45 125.989C205.74 125.667 206.846 124.772 207.729 123.866C208.718 122.851 209.191 121.807 208.928 120.449" fill="#E56BA4"/>
<path fill-rule="evenodd" clip-rule="evenodd" d="M112.334 171C111.298 171.014 110.112 171.462 109.33 172.279C108.904 172.725 108.876 173.726 109.33 174.165C110.302 175.104 111.59 175.091 112.777 174.889C113.498 174.765 114 173.776 114 172.98C114 171.91 113.242 170.989 112.334 171" fill="#3CBCBF"/>
<path fill-rule="evenodd" clip-rule="evenodd" d="M152.906 166.484C151.556 165.723 150.105 166.007 148.7 166.34C147.592 166.603 147.891 168.641 148.958 168.663C149.847 168.681 150.776 168.669 151.624 169.031C152.442 169.377 152.653 170.951 153.207 171.644C153.745 172.317 154.698 171.98 154.905 171.099C155.332 169.278 154.257 167.247 152.906 166.484" fill="#3CBCBF"/>
<path fill-rule="evenodd" clip-rule="evenodd" d="M180.919 158.98C180.759 157.123 180.687 155.282 179.864 153.555C179.387 152.556 177.982 153.067 177.635 153.82C176.883 155.45 177.004 157.243 177.011 158.98C177.02 160.924 177.047 162.21 178.427 163.75C178.723 164.08 179.455 164.087 179.749 163.75C181.114 162.185 181.088 160.928 180.919 158.98Z" fill="#3CBCBF"/>
<path fill-rule="evenodd" clip-rule="evenodd" d="M202.067 188.013C200.744 188.232 199.667 189.118 198.414 189.572C196.842 190.142 195.274 190.009 193.751 189.406C193.178 189.18 192.571 189.564 192.259 190.009C191.282 191.399 189.559 191.774 187.944 191.529C186.968 191.38 186.229 190.548 185.276 190.544C185.233 190.544 185.187 190.568 185.166 190.606C184.353 192.131 186.728 193.398 187.872 193.77C189.884 194.423 192.294 193.62 193.799 192.181C197.026 193.078 202.086 192.495 202.975 188.913C203.119 188.332 202.617 187.921 202.067 188.013" fill="#3CBCBF"/>
<path fill-rule="evenodd" clip-rule="evenodd" d="M226.723 196.084C226.474 194.126 226.188 192.095 225.434 190.289C225.221 189.777 224.622 190.024 224.471 190.427C223.833 192.13 223.994 193.938 224.096 195.74C224.204 197.648 223.833 199.695 224.565 201.46C224.915 202.306 225.905 202.042 226.311 201.46C227.373 199.936 226.949 197.867 226.723 196.084" fill="#3CBCBF"/>
<path fill-rule="evenodd" clip-rule="evenodd" d="M89.1437 208.003C86.7691 208.206 84.7792 209.842 82.5257 210.532C79.9405 211.323 77.2493 210.915 74.6472 211.455C73.8558 211.619 73.7978 212.613 74.4316 212.974C77.0437 214.464 80.5423 214.063 83.3976 213.445C85.9002 212.903 89.3798 211.557 89.98 209.014C90.0901 208.548 89.7359 207.952 89.1437 208.003" fill="#3CBCBF"/>
<path fill-rule="evenodd" clip-rule="evenodd" d="M53.0342 213.565C54.718 211.825 54.7238 214.824 53.8688 215.815C53.3842 216.377 52.7105 216.639 51.9788 216.709C51.8262 215.589 52.2186 214.409 53.0342 213.565ZM61.6983 219.741C58.9006 220.912 55.4355 220.975 53.1473 218.84C55.4009 218.134 57.0428 216.224 56.7201 213.29C56.4973 211.264 54.543 210.25 52.7032 211.16C50.5709 212.215 49.6032 214.216 49.6188 216.393C49.1123 216.228 48.6438 216.018 48.2597 215.796C45.5507 214.238 45.7584 211.335 46.8231 208.801C47.0649 208.226 46.1454 207.71 45.7535 208.189C42.7525 211.856 43.6129 216.785 48.2621 218.608C48.8983 218.857 49.5535 219.018 50.2038 219.095C52.2698 223.305 59.5193 224.343 62.7367 221.066C63.4606 220.328 62.5519 219.383 61.6983 219.741" fill="#00ACE4"/>
<path fill-rule="evenodd" clip-rule="evenodd" d="M245.266 156.03C243.649 156.529 242.593 157.776 241.663 159.133C241.189 159.824 240.775 160.556 240.318 161.26C239.927 161.862 239.376 162.449 239.065 163.085C238.881 163.463 239.097 164.037 239.582 163.998C240.921 163.889 241.953 162.329 242.714 161.36C243.813 159.961 244.744 158.435 245.852 157.053C246.206 156.611 245.892 155.837 245.266 156.03Z" fill="#8A68AF"/>
<path fill-rule="evenodd" clip-rule="evenodd" d="M171.054 65.2442C170.249 66.1305 169.339 65.7973 168.545 65.0538C168.883 64.4555 169.341 63.9159 169.962 63.4581C170.532 63.0378 171.366 62.6223 172.091 62.7545C172.706 62.8666 171.257 65.0211 171.054 65.2442V65.2442ZM172.58 60.9419C170.773 60.2138 168.299 62.0851 167.294 63.4475C166.974 62.9175 166.731 62.4102 166.607 62.0668C165.44 58.8423 166.984 56.8003 169.139 54.6357C169.355 54.4198 169.205 53.9773 168.882 54.0009C163.831 54.3702 163.13 60.3259 164.833 64.1145C165.145 64.8066 165.564 65.4414 166.055 65.9867C164.434 71.4961 167.949 78.9594 171.117 82.8654C171.417 83.2357 171.892 82.7644 171.723 82.3873C169.81 78.125 167.8 73.79 167.725 69.0102C167.716 68.4519 167.74 67.9056 167.81 67.3785C169.724 68.3961 171.958 68.1451 173.297 65.5457C174.129 63.9289 174.572 61.7451 172.58 60.9419" fill="#4ED2C2"/>
<path fill-rule="evenodd" clip-rule="evenodd" d="M180.475 65.3249C177.179 69.6475 177.435 76.1201 179.716 80.7949C179.836 81.0382 180.269 81.097 180.361 80.7949C181.003 78.6816 180.782 76.4615 180.779 74.2977C180.775 71.4827 181.063 68.5759 181.964 65.8653C182.227 65.0757 180.971 64.6745 180.475 65.3249" fill="#8A68AF"/>
<path fill-rule="evenodd" clip-rule="evenodd" d="M176 85C174.91 85 174 85.9099 174 87C174 88.0901 174.91 89 176 89C177.09 89 178 88.0901 178 87C178 85.9099 177.09 85 176 85Z" fill="#EA4468"/>
<path fill-rule="evenodd" clip-rule="evenodd" d="M68.3159 143.248C65.4453 146.101 65.5278 151.31 67.0214 154.714C67.1866 155.089 67.7495 155.101 67.9088 154.714C68.5208 153.23 68.3892 151.661 68.4862 150.106C68.6155 148.031 69.1068 146.014 69.9446 144.076C70.2887 143.279 68.9429 142.625 68.3159 143.248Z" fill="#E56BA4"/>
<path fill-rule="evenodd" clip-rule="evenodd" d="M40 243C38.9095 243 38 243.91 38 245C38 246.091 38.9095 247 40 247C41.0905 247 42 246.091 42 245C42 243.91 41.0905 243 40 243Z" fill="#4ED2C2"/>
<path fill-rule="evenodd" clip-rule="evenodd" d="M43.5782 249.422C43.166 249.01 42.3753 248.832 41.8726 249.202C41.819 249.241 41.7653 249.28 41.7116 249.32C41.3972 249.551 41.1584 249.789 41.0506 250.18C40.9146 250.674 41.0579 251.216 41.4209 251.579C41.6893 251.847 42.0578 252 42.4377 252C42.9872 252 43.3694 251.708 43.6796 251.288C43.7192 251.234 43.7588 251.18 43.7984 251.127C44.1687 250.625 43.9899 249.833 43.5782 249.422" fill="#8A68AF"/>
<path fill-rule="evenodd" clip-rule="evenodd" d="M45.9936 230.611C46.0691 230.112 45.4586 229.731 45.226 230.244C43.9047 233.159 43.2575 237.256 45.3472 239.952C45.4313 240.06 45.5844 239.971 45.5861 239.839C45.6079 238.496 45.3826 237.168 45.3877 235.819C45.3937 234.092 45.7363 232.306 45.9936 230.611" fill="#EA4468"/>
<path fill-rule="evenodd" clip-rule="evenodd" d="M49.2046 233.152C48.3812 234.009 47.7255 234.894 47.3409 236.014C47.055 236.846 46.6827 238.265 47.4816 238.926C47.5874 239.014 47.7516 239.034 47.8549 238.926C48.3853 238.373 48.4763 237.439 48.7224 236.74C49.0804 235.725 49.5202 234.699 49.958 233.713C50.157 233.264 49.6061 232.734 49.2046 233.152Z" fill="#EA4468"/>
<path fill-rule="evenodd" clip-rule="evenodd" d="M34.7497 195.807C33.761 195.045 33.4104 194.834 33.5108 193.505C33.5888 192.481 33.7887 191.373 33.296 190.419C31.587 187.11 28.3942 190.369 27.1433 192.299C26.554 193.208 27.9288 194.324 28.6046 193.475C28.8955 193.11 30.7743 190.694 31.3191 191.152C31.9051 191.644 31.5435 193.104 31.51 193.754C31.4134 195.624 32.5972 197.631 34.6239 196.812C35.0682 196.632 35.1299 196.1 34.7497 195.807" fill="#4ED2C2"/>
<path fill-rule="evenodd" clip-rule="evenodd" d="M38.8684 194.614C38.7285 194.259 38.3493 194 37.968 194C37.3781 194 36.8374 194.615 37.0454 195.209C37.2387 195.76 37.7417 196.126 38.3419 195.96C38.907 195.802 39.182 195.094 38.8684 194.614" fill="#EA4468"/>
<path fill-rule="evenodd" clip-rule="evenodd" d="M230.903 88.4975C224.781 82.8244 221.611 74.1973 222.092 65.9071C222.152 64.8743 220.452 64.6315 220.272 65.6615C218.89 73.5617 222.849 85.3645 230.538 88.9697C230.832 89.1075 231.17 88.7441 230.903 88.4975Z" fill="#8A68AF"/>
<path fill-rule="evenodd" clip-rule="evenodd" d="M230.177 76.0344C229.757 73.6579 229.669 71.2512 229.326 68.8673C229.119 67.4256 227.194 67.9559 227.069 69.1853C226.62 73.588 228.437 78.8777 230.252 82.7922C230.431 83.1791 231 82.9777 231 82.5808C231.001 80.3696 230.56 78.2005 230.177 76.0344Z" fill="#EA4468"/>
<path fill-rule="evenodd" clip-rule="evenodd" d="M199.879 253.262C199.568 252.944 198.423 251.718 199.243 251.726C200.157 251.735 200.932 252.375 201.566 252.946C202.016 253.35 202.355 253.849 202.614 254.407C201.628 254.474 200.674 254.072 199.879 253.262V253.262ZM203.73 238.545C202.075 236.316 200.367 234.037 199.389 231.418C198.305 228.512 200.715 227.786 203.19 227.342C203.977 227.201 203.716 226.092 203.013 226.036C199.215 225.73 196.083 227.376 196.654 231.532C197.239 235.778 201.052 239.793 203.612 243.005C204.777 244.466 205.991 245.908 206.994 247.488C208.249 249.464 206.572 252.164 204.692 253.557C204.535 253.135 204.352 252.72 204.14 252.317C202.906 249.981 199.057 247.861 196.748 249.914C194.192 252.186 198.849 256.243 200.802 256.889C201.639 257.166 202.473 257.195 203.279 257.049C203.505 259.191 203.231 261.557 203.209 263.251C203.198 264.12 204.495 264.291 204.719 263.455C205.328 261.177 205.647 258.669 205.346 256.278C207.109 255.265 208.568 253.513 209.353 251.857C211.831 246.629 206.592 242.399 203.73 238.545" fill="#4ED2C2"/>
<path fill-rule="evenodd" clip-rule="evenodd" d="M84 233C82.9098 233 82 234.137 82 235.5C82 236.863 82.9098 238 84 238C85.0902 238 86 236.863 86 235.5C86 234.137 85.0902 233 84 233Z" fill="#00ACE4"/>
<path fill-rule="evenodd" clip-rule="evenodd" d="M98.571 240.071C98.226 239.976 97.8814 239.976 97.5364 240.071C97.0093 240.22 96.6847 240.553 96.3734 240.991C96.3015 241.092 96.246 241.203 96.1998 241.318C96.0808 241.524 96 241.749 96 242C96 242.251 96.0808 242.477 96.1998 242.683C96.246 242.798 96.3015 242.909 96.3734 243.009C96.5462 243.311 96.7789 243.549 97.0715 243.727C97.5209 243.998 98.0688 244.071 98.571 243.929C99.4059 243.693 100 242.89 100 242C100 241.11 99.4059 240.308 98.571 240.071Z" fill="#4ED2C2"/>
<path fill-rule="evenodd" clip-rule="evenodd" d="M97.5602 226.244C97.2377 225.977 96.7538 225.948 96.3398 226.066C96.254 226.078 96.1696 226.099 96.0863 226.128C96.026 226.138 95.9642 226.148 95.9034 226.157C94.6999 226.336 94.6978 227.762 95.9034 227.94C96.536 228.033 97.091 228.06 97.6087 227.706C98.2168 227.29 98.0497 226.649 97.5602 226.244" fill="#8A68AF"/>
<path fill-rule="evenodd" clip-rule="evenodd" d="M182.998 212.58C182.961 211.757 182.432 211.195 181.698 211.143C181.646 211.139 181.597 211.147 181.546 211.148C181.409 211.117 181.271 211.093 181.134 211.076C181.287 211.099 181.441 211.121 181.594 211.144C181.492 211.126 181.394 211.096 181.295 211.067C180.156 210.733 179 211.688 179 213C179 214.31 180.157 215.269 181.295 214.932C181.548 214.857 181.757 214.759 182.007 214.64C182.377 214.463 182.721 213.978 182.849 213.483C182.956 213.213 183.013 212.922 182.998 212.58" fill="#FF93D5"/>
<path fill-rule="evenodd" clip-rule="evenodd" d="M194.5 214C192.5 214 192.5 217 194.5 217C196.5 217 196.5 214 194.5 214Z" fill="#FF8C79"/>
<path fill-rule="evenodd" clip-rule="evenodd" d="M184.349 224.65C184.259 224.603 184.196 224.572 184.134 224.548C183.92 224.213 183.503 224 183.156 224C182.507 224 182.027 224.568 182.001 225.246C181.977 225.897 182.285 226.381 182.752 226.749C183.11 227.031 183.779 227.068 184.18 226.897C184.645 226.699 185 226.306 185 225.738C185 225.268 184.738 224.851 184.349 224.65" fill="#FF8C79"/>
<path fill-rule="evenodd" clip-rule="evenodd" d="M225 221C223.667 221 223.667 223 225 223C226.333 223 226.333 221 225 221Z" fill="#EA4468"/>
<path fill-rule="evenodd" clip-rule="evenodd" d="M42.4194 111.57C41.6453 110.81 40.3515 110.81 39.577 111.57C38.6642 112.466 38.8598 114.032 39.9839 114.668C40.1147 114.742 40.2533 114.803 40.3951 114.853C40.574 114.942 40.7641 115 40.9982 115C41.2267 115 41.4135 114.945 41.5887 114.859C41.8956 114.757 42.196 114.579 42.4194 114.36C43.1935 113.6 43.1935 112.33 42.4194 111.57" fill="#4ED2C2"/>
<path fill-rule="evenodd" clip-rule="evenodd" d="M47.7327 123.989C47.1839 123.046 45.9413 122.716 45.0021 123.269C44.1137 123.792 43.67 125.111 44.2858 126.015C44.3031 126.041 44.3209 126.066 44.3382 126.092C44.4004 126.219 44.4768 126.343 44.5935 126.46C44.7614 126.629 44.9398 126.728 45.1324 126.793C45.7445 127.064 46.4095 127.093 47.0164 126.735C47.954 126.183 48.2831 124.933 47.7327 123.989Z" fill="#8A68AF"/>
<path fill-rule="evenodd" clip-rule="evenodd" d="M195.442 49.2329C195.105 48.9218 194.73 48.9229 194.394 49.2329C194.316 49.3051 194.261 49.3777 194.203 49.4596C194.208 49.4524 194.195 49.4689 194.165 49.5101C194.088 49.6038 194.021 49.7053 193.965 49.8145C193.961 49.8238 193.955 49.832 193.951 49.8413C193.896 49.8717 193.893 49.8753 193.947 49.8475C193.947 49.8485 193.946 49.849 193.946 49.8495C193.519 50.0592 193.182 50.397 193.051 50.9307C192.913 51.4957 193.059 52.1144 193.427 52.528C194.218 53.418 195.553 52.9782 195.868 51.8038C196.089 50.9781 196.085 49.8279 195.442 49.2329" fill="#00ACE4"/>
<path fill-rule="evenodd" clip-rule="evenodd" d="M201.386 40.4625C201.068 40.1211 200.566 40.0032 200.107 40C199.436 39.9955 198.821 40.346 198.478 40.8827C198.362 41.0652 198.274 41.2577 198.191 41.4526C198.159 41.5199 198.128 41.5868 198.104 41.6556C198.098 41.6715 198.091 41.687 198.084 41.7034C198.09 41.6897 198.097 41.676 198.103 41.6624C197.884 42.2974 198.008 42.9911 198.535 43.4891C199.269 44.1828 200.451 44.1577 201.189 43.4891C201.49 43.2164 201.719 42.8655 201.848 42.4917C201.875 42.4135 201.9 42.3352 201.926 42.2564C202.146 41.5814 201.849 40.961 201.386 40.4625" fill="#EA4468"/>
<path fill-rule="evenodd" clip-rule="evenodd" d="M45.4997 160.879C44.8626 159.719 43.2607 159.717 42.5814 160.815C42.3474 161.107 42.1741 161.462 42.1006 161.851C42.0473 162.132 42.0304 162.421 42 162.706C42.0169 162.565 42.0337 162.424 42.0501 162.283C41.978 162.848 41.9986 163.364 42.2659 163.882C42.5262 164.387 42.9569 164.765 43.4531 164.92C44.5092 165.25 45.5943 164.524 45.8977 163.343C46.1158 162.492 45.9861 161.545 45.4997 160.879" fill="#FF8C79"/>
<path fill-rule="evenodd" clip-rule="evenodd" d="M42 179.475C42 179.086 41.8433 178.708 41.5673 178.432C41.2919 178.157 40.9133 178 40.5236 178C40.3602 178 40.218 178.032 40.0831 178.079C39.5328 178.04 38.9813 178.227 38.5704 178.638C37.8099 179.398 37.8099 180.667 38.5704 181.427C39.1971 182.052 40.1963 182.183 40.9618 181.735C41.6192 181.35 41.9638 180.639 41.9186 179.921C41.9665 179.785 42 179.641 42 179.475" fill="#8A68AF"/>
<path fill-rule="evenodd" clip-rule="evenodd" d="M14.5 183C12.5 183 12.5 187 14.5 187C16.5 187 16.5 183 14.5 183Z" fill="#EA4468"/>
<path fill-rule="evenodd" clip-rule="evenodd" d="M32.9572 102.604C32.9006 102.288 32.7166 102.068 32.5306 101.846C32.5122 101.818 32.4885 101.797 32.4686 101.771C32.4425 101.738 32.4149 101.707 32.3892 101.674C32.3955 101.682 32.4023 101.692 32.4086 101.7C32.3858 101.675 32.3679 101.645 32.3422 101.622C32.1374 101.445 31.9727 101.336 31.7795 101.238C31.8153 101.255 31.8516 101.271 31.8879 101.287C31.8637 101.277 31.841 101.265 31.8187 101.251C31.7862 101.233 31.7514 101.223 31.718 101.207C31.6879 101.193 31.6531 101.178 31.6201 101.164C31.5649 101.14 31.5102 101.112 31.454 101.094C31.4482 101.091 31.4443 101.089 31.439 101.087C31.4434 101.089 31.4477 101.091 31.4521 101.093C30.6293 100.829 29.7164 101.13 29.2554 101.958C29.0021 102.413 28.9333 102.967 29.0665 103.476C29.204 104.003 29.5154 104.346 29.9276 104.653C30.5789 105.138 31.5049 105.1 32.1519 104.632C32.8463 104.13 33.1122 103.467 32.9572 102.604" fill="#8A68AF"/>
<path fill-rule="evenodd" clip-rule="evenodd" d="M182 40C180.91 40 180 40.9097 180 42C180 43.0898 180.91 44 182 44C183.09 44 184 43.0898 184 42C184 40.9097 183.09 40 182 40Z" fill="#8A68AF"/>
<path fill-rule="evenodd" clip-rule="evenodd" d="M200.971 66.5422C200.892 66.2353 200.694 65.9354 200.441 65.7765C200.397 65.7489 200.342 65.7287 200.29 65.7055C200.084 65.2906 199.666 65 199.216 65C198.62 65 197.924 65.5925 198.007 66.295C198.045 66.6241 198.074 66.9206 198.256 67.2028C198.479 67.5481 198.74 67.7499 199.104 67.8989C199.656 68.1253 200.537 67.9803 200.832 67.3749C200.96 67.1135 201.048 66.8411 200.971 66.5422" fill="#8A68AF"/>
<path fill-rule="evenodd" clip-rule="evenodd" d="M107.236 79.7177C106.983 79.5713 106.731 79.4426 106.456 79.3997C106.174 79.1504 105.81 79 105.483 79C104.642 79 104.047 79.7451 104.003 80.6349C103.962 81.4446 104.367 82.1663 104.98 82.5791C105.201 82.7278 105.406 82.8748 105.672 82.9354C106.266 83.0709 106.706 82.9943 107.236 82.6958C108.262 82.1177 108.247 80.3009 107.236 79.7177" fill="#8A68AF"/>
<path fill-rule="evenodd" clip-rule="evenodd" d="M95 147C92.3333 147 92.3333 151 95 151C97.6667 151 97.6667 147 95 147Z" fill="#FEDB47"/>
<path fill-rule="evenodd" clip-rule="evenodd" d="M105.931 153.512C105.878 153.306 105.795 153.148 105.695 153C105.699 153.006 105.704 153.011 105.709 153.018C105.698 153.004 105.69 152.99 105.682 152.975C104.829 151.456 102.522 151.785 102.071 153.456C101.611 155.164 103.474 156.62 104.973 155.73C105.448 155.448 105.75 155.051 105.931 154.52C106.035 154.211 106.01 153.821 105.931 153.512" fill="#EA4468"/>
<path fill-rule="evenodd" clip-rule="evenodd" d="M110 145C108.667 145 108.667 147 110 147C111.333 147 111.333 145 110 145Z" fill="#FEDB47"/>
<path fill-rule="evenodd" clip-rule="evenodd" d="M224 149C222.667 149 222.667 151 224 151C225.333 151 225.333 149 224 149Z" fill="#FF8C79"/>
<path fill-rule="evenodd" clip-rule="evenodd" d="M214 225C211.985 225 211.228 227.679 212.977 228.663C213.066 228.713 213.155 228.763 213.244 228.813C213.49 228.951 213.749 229.007 214 228.999C214.251 229.007 214.51 228.951 214.756 228.813C214.845 228.763 214.934 228.713 215.023 228.663C216.772 227.679 216.015 225 214 225Z" fill="#FF93D5"/>
<path fill-rule="evenodd" clip-rule="evenodd" d="M119.677 220.586C119.666 220.57 119.656 220.553 119.645 220.537C119.431 220.191 119.144 219.917 118.782 219.712C118.622 219.622 118.438 219.549 118.243 219.492C117.893 219.181 117.431 219 116.951 219C116.078 219 115.38 219.559 115.119 220.334C114.906 220.968 114.995 221.659 115.26 222.269C115.361 222.66 115.542 223.016 115.867 223.326C116.167 223.611 116.521 223.808 116.928 223.918C117.355 224.027 117.781 224.027 118.207 223.918C118.226 223.915 118.244 223.913 118.263 223.91C118.832 223.835 119.401 223.321 119.677 222.87C120.096 222.186 120.119 221.268 119.677 220.586" fill="#4ED2C2"/>
<path fill-rule="evenodd" clip-rule="evenodd" d="M128.096 224.267C127.571 223.93 126.845 223.906 126.296 224.23C125.563 224.439 125 225.101 125 225.998C125 226.897 125.563 227.558 126.298 227.767C126.711 228.007 127.228 228.061 127.66 227.931C128.443 227.694 129 226.889 129 225.998C129 225.291 128.651 224.624 128.096 224.267Z" fill="#EA4468"/>
<path fill-rule="evenodd" clip-rule="evenodd" d="M128.226 214.022C128.155 214.019 128.083 214.016 128.011 214.013C127.971 214.006 127.93 213.998 127.887 214L127.787 214.004C127.542 213.994 127.323 214.15 127.178 214.383C127.069 214.551 127 214.762 127 215C127 215.239 127.069 215.449 127.178 215.618C127.323 215.85 127.542 216.006 127.787 215.996L127.887 216C127.93 216.002 127.971 215.995 128.011 215.987C128.083 215.984 128.155 215.981 128.226 215.978C128.648 215.962 129 215.546 129 215C129 214.454 128.648 214.038 128.226 214.022Z" fill="#FF8C79"/>
<path fill-rule="evenodd" clip-rule="evenodd" d="M154.895 209.165C154.737 208.313 153.82 207.834 153.09 208.052C152.218 208.312 151.678 209.529 152.213 210.393C152.476 210.818 152.708 211.284 152.91 211.747C152.926 211.79 152.938 211.815 152.944 211.833C152.974 211.911 153.003 211.988 153.022 212.07C153.042 212.152 153.053 212.238 153.065 212.321C153.196 213.223 154.619 213.23 154.743 212.321C154.763 212.176 154.78 212.031 154.796 211.885C154.767 212.15 154.815 211.839 154.824 211.801C154.847 211.69 154.867 211.579 154.887 211.467C155.029 210.671 155.043 209.962 154.895 209.165" fill="#EA4468"/>
<path fill-rule="evenodd" clip-rule="evenodd" d="M159.095 207.056C158.406 206.825 157.821 207.338 157.586 208.1C157.377 208.777 157.322 209.502 157.231 210.212C157.164 210.739 157.039 211.243 157.003 211.774C156.95 212.53 157.684 213.198 158.265 212.946C159.585 212.372 159.885 209.982 159.996 208.498C160.045 207.844 159.586 207.22 159.095 207.056" fill="#F9AF3E"/>
<path fill-rule="evenodd" clip-rule="evenodd" d="M159.415 135.532C159.268 133.501 159.358 131.082 158.209 129.358C157.893 128.884 157.285 128.878 156.971 129.358C155.963 130.894 156.077 132.765 156.017 134.57C155.932 137.078 156.18 139.649 156.441 142.139C156.527 142.96 156.92 143.687 157.746 143.914C158.318 144.072 158.594 144.014 159.115 143.729C159.62 143.451 160.053 142.746 159.995 142.139C159.784 139.939 159.575 137.737 159.415 135.532" fill="#E56BA4"/>
<path fill-rule="evenodd" clip-rule="evenodd" d="M81.1257 91C79.2764 91.012 77.6458 92.3388 76.1364 93.3267C74.2817 94.5416 72.5563 96.0206 71.0221 97.629C68.6738 100.09 65.6826 105.058 67.6258 108.51C68.0129 109.197 68.9368 109.129 69.3385 108.51C70.1336 107.284 70.421 105.742 71.0478 104.414C71.8312 102.754 73.1214 101.374 74.4027 100.103C75.7376 98.7794 77.2918 97.7306 78.8518 96.7096C80.2446 95.7976 81.7579 95.2474 82.7198 93.8318C83.5329 92.6362 82.4465 90.9912 81.1257 91" fill="#E56BA4"/>
<path fill-rule="evenodd" clip-rule="evenodd" d="M261.975 1.40841C261.952 1.14531 261.522 0.869249 261.176 1.06755C259.772 1.86764 259.825 3.53048 260.309 4.69477C260.48 5.10562 261.241 5.09784 261.417 4.69477C261.624 4.21653 261.711 3.73353 261.836 3.2393C261.995 2.60553 262.031 2.04391 261.975 1.40841" fill="white"/>
<path fill-rule="evenodd" clip-rule="evenodd" d="M265.178 4.00073C264.763 4.01903 264.462 4.22856 264.1 4.39143C263.961 4.45456 263.787 4.49665 263.638 4.58037C263.483 4.66821 263.347 4.78395 263.21 4.89603C262.728 5.2881 263.155 5.95923 263.682 5.994C264.399 6.04158 265.482 5.80917 265.887 5.19248C266.213 4.69703 265.791 3.97374 265.178 4.00073" fill="white"/>
<path fill-rule="evenodd" clip-rule="evenodd" d="M255.866 4.03313C255.753 3.85612 255.601 3.71897 255.434 3.59597C255.137 3.37696 254.851 3.20253 254.519 3.04138C254.197 2.88537 253.886 3.19781 254.041 3.52268C254.186 3.82569 254.337 4.09227 254.534 4.364C254.648 4.52043 254.757 4.65543 254.902 4.7823C255.001 4.86887 255.121 4.9563 255.25 4.99188C255.227 4.98545 255.706 5.01502 255.522 4.9893C255.82 5.03088 256.017 4.83158 255.976 4.532C255.98 4.62843 255.987 4.58986 256 4.41671C256 4.26928 255.943 4.1527 255.866 4.03313Z" fill="white"/>
<path fill-rule="evenodd" clip-rule="evenodd" d="M94.9758 119.005L105.023 117.248L104.345 96.9806C104.204 92.7605 105.677 90.3503 107.481 90.035C109.349 89.7083 110.972 91.7569 111 92.5883C111.029 93.4802 109.243 92.3571 109.41 97.3496L110.656 134.617C110.69 135.627 109.865 136.13 108.899 136.299C107.417 136.558 105.651 136.03 105.621 135.138L105.162 121.409L95.1149 123.165L95.5861 137.252C95.6202 138.263 94.7947 138.765 93.829 138.934C92.3472 139.193 90.5812 138.665 90.5511 137.773L90.0922 124.044L85.519 124.843C84.167 125.08 83.1431 123.525 83.1017 122.277C83.0795 121.623 83.3839 121.032 84.0279 120.919L89.9526 119.883L89.3106 100.686C81.389 102.071 75.826 108.125 76.0924 116.089C76.2597 121.082 78.943 123.841 79.7804 123.695C80.1667 123.627 80.2215 123.319 80.5432 123.262C80.8654 123.206 80.9478 123.73 80.9617 124.145C81.045 126.642 78.7338 129.198 76.8242 128.277C74.5208 127.185 71.2296 123.695 71.0115 117.157C70.5901 104.557 81.8197 97.5115 91.6085 95.7999C92.9611 95.5633 94.2203 96.4193 94.2682 97.8455L94.9758 119.005Z" fill="#FF93D5"/>
<path fill-rule="evenodd" clip-rule="evenodd" d="M138.236 120.983C138.449 119.714 139.066 119.079 139.7 118.969C140.714 118.792 141.962 119.865 141.999 120.972C142.001 121.031 142.005 121.147 141.95 121.391C141.001 125.427 138.641 131.116 133.187 132.066C130.968 132.452 129.223 131.76 128.225 130.526C127.002 132.088 125.261 133.446 122.852 133.866C117.906 134.728 115.177 131.333 115.011 126.377C114.684 116.64 121.84 109.413 129.575 108.066C131.288 107.768 132.523 108.49 132.574 110.007C132.608 110.997 132.429 111.38 131.795 111.491C131.224 111.59 130.586 111.584 129.952 111.694C125.133 112.534 119.617 117.307 119.899 125.702C120.001 128.734 121.454 130.239 123.674 129.853C125.386 129.555 126.48 127.957 127.123 126.203L126.821 117.224C126.784 116.117 126.519 115.811 126.505 115.403C126.486 114.82 127.233 114.279 128.12 114.125C130.213 113.76 131.584 114.694 131.631 116.093L131.954 125.713C131.997 126.996 132.678 128.284 134.199 128.019C136.736 127.577 137.752 123.647 138.236 120.983Z" fill="#FF93D5"/>
<path fill-rule="evenodd" clip-rule="evenodd" d="M142.764 114.037L143.191 126.774C144.046 125.38 146.203 124.41 149.14 123.66C150.607 121.329 151.177 117.196 151.104 115.013C150.922 109.589 149 107.966 146.823 108.346C144.966 108.67 143.371 111.024 142.764 114.037V114.037ZM143.285 129.605L143.928 148.77C144.001 150.952 141.902 151.733 140.622 151.957C139.341 152.18 139.125 151.506 139.095 150.622L137.715 109.461C137.659 107.751 137.014 107.745 137 107.332C136.987 106.919 138.131 106.482 139.027 106.326C141.076 105.968 142.46 106.913 142.57 108.258C143.855 106.254 145.603 104.586 148.292 104.116C153.286 103.245 155.871 107.36 156.067 113.198C156.177 116.501 155.58 119.808 154.69 122.098C158.91 121.184 159.819 119.484 161.199 116.455C161.738 115.234 162.042 114.706 162.618 114.606C163.707 114.416 164.97 115.619 164.998 116.445C165.089 119.157 161.279 124.627 152.764 126.113C151.093 128.124 148.629 129.563 146.389 129.954C144.852 130.222 143.816 130.046 143.285 129.605" fill="#FF93D5"/>
<path fill-rule="evenodd" clip-rule="evenodd" d="M165.764 110.037L166.191 122.774C167.045 121.38 169.203 120.41 172.14 119.66C173.607 117.329 174.177 113.196 174.104 111.013C173.923 105.589 172.001 103.967 169.823 104.346C167.967 104.67 166.371 107.025 165.764 110.037V110.037ZM166.285 125.605L166.928 144.77C167.001 146.952 164.902 147.733 163.622 147.957C162.341 148.18 162.125 147.506 162.095 146.622L160.715 105.461C160.659 103.751 160.014 103.745 160 103.332C159.987 102.92 161.131 102.482 162.028 102.326C164.076 101.969 165.461 102.913 165.57 104.258C166.855 102.255 168.603 100.586 171.292 100.116C176.286 99.2452 178.871 103.361 179.067 109.199C179.178 112.501 178.58 115.808 177.691 118.099C181.91 117.185 182.819 115.484 184.199 112.455C184.738 111.234 185.042 110.706 185.618 110.606C186.706 110.416 187.971 111.619 187.998 112.445C188.089 115.157 184.279 120.627 175.764 122.113C174.093 124.124 171.63 125.563 169.389 125.953C167.852 126.222 166.816 126.046 166.285 125.605" fill="#FF93D5"/>
<path fill-rule="evenodd" clip-rule="evenodd" d="M196.677 135.137L196.468 128.768C194.507 131.093 193.189 133.603 193.306 137.174C193.367 139.02 194.046 140.336 195.059 140.155C197.085 139.795 196.714 136.268 196.677 135.137V135.137ZM207.703 106.47C208.715 106.29 209.96 107.385 209.998 108.516C210 108.575 210.009 108.873 209.955 109.122C208.029 116.41 204.474 120.576 201.149 123.983L201.486 134.28C201.692 140.53 198.41 143.33 195.182 143.905C191.638 144.537 189.007 141.952 188.882 138.143C188.685 132.131 192.256 128.441 196.319 124.245L196.072 116.685C194.631 119.336 192.725 121.413 190.004 121.897C185.764 122.653 183.185 119.7 183.015 114.521C182.807 108.212 184.853 100.723 184.853 100.723C185.263 99.6321 184.781 98.5201 188.136 97.9225C191.236 97.3702 189.479 100.078 189.255 101.017C188.261 105.624 187.651 108.367 187.815 113.367C187.92 116.581 189.052 118.116 190.888 117.788C193.419 117.338 195.191 113.13 195.814 108.829L195.499 99.2449C195.462 98.1142 195.197 97.8023 195.183 97.386C195.163 96.7903 195.91 96.2385 196.796 96.0809C198.884 95.7089 200.252 96.6617 200.299 98.0905L200.984 118.982C203.185 116.196 205.112 112.859 206.243 108.526C206.582 107.209 207.071 106.583 207.703 106.47" fill="#FF93D5"/>
<path fill-rule="evenodd" clip-rule="evenodd" d="M66.4031 176.337C66.3655 175.226 66.0987 174.919 66.0855 174.51C66.0655 173.926 66.817 173.383 67.7097 173.228C69.8142 172.862 71.3201 173.777 71.3675 175.181L72.098 196.874C72.2871 202.487 74.4024 204.354 78.1648 203.701C81.7362 203.081 84.3283 200.043 84.214 196.652C84.0366 191.389 79.5833 190.575 75.5658 191.272C74.4175 191.472 73.1862 187.275 75.0992 186.942C78.0969 186.422 85.3691 183.334 85.0837 174.856C84.9342 170.412 81.656 166.395 73.8121 167.757C63.5447 169.541 59.6078 176.459 59.8477 183.592C60.0212 188.738 62.3783 190.152 62.5117 190.305C63.207 190.008 63.4763 190.373 63.4958 190.958C63.5315 192.01 61.939 196.169 60.0466 195.203C58.9965 194.503 55.2434 191.626 55.0128 184.786C54.6449 173.85 62.2488 165.355 73.6006 163.382C83.2304 161.71 89.711 165.583 89.9905 173.886C90.205 180.26 86.7656 184.798 82.1872 187.886C85.9193 188.239 89.0152 190.642 89.1843 195.67C89.3812 201.517 84.6782 206.628 78.3646 207.725C70.0106 209.176 67.3598 204.754 67.1175 197.562L66.4031 176.337Z" fill="#4ED2C2"/>
<path fill-rule="evenodd" clip-rule="evenodd" d="M99.2841 196.393C99.3024 196.924 99.3762 199.104 101.057 198.813C103.644 198.367 104.68 194.395 105.174 191.702C105.828 187.974 109.414 190.141 108.961 192.115C107.928 196.205 105.586 201.943 100.025 202.903C96.5977 203.495 94.5073 201.307 94.4052 198.302L93.8726 182.571C93.8345 181.451 93.5639 181.143 93.5501 180.731C93.5298 180.141 94.2918 179.595 95.197 179.438C97.331 179.07 98.7292 180.014 98.7772 181.428L99.2841 196.393ZM93.0021 170.335C92.9322 168.273 94.6267 166.44 96.7607 166.072C99.024 165.681 100.757 166.922 100.827 168.985C100.893 170.929 99.2677 172.869 97.0045 173.259C94.8705 173.627 93.0685 172.279 93.0021 170.335V170.335Z" fill="#4ED2C2"/>
<path fill-rule="evenodd" clip-rule="evenodd" d="M112.038 194.364C111.909 190.634 112.937 186.297 114.845 180.931L109.904 181.771L109.188 181.892C109.202 184.176 108.986 189.313 107.932 192.892C107.171 195.484 103.718 193.96 104.235 191.879C104.869 189.426 104.964 184.544 104.926 181.561C103.272 181.021 102.06 179.996 102.001 178.305C101.946 176.673 103.47 175.359 105.16 175.072C106.721 174.807 108.565 175.198 109.363 177.466C111.517 177.334 112.167 177.224 112.817 177.114L116.198 176.54C116.978 176.407 119.645 177.888 119.432 179.273C119.456 179.973 116.766 187.347 116.967 193.175C117.023 194.807 117.921 196.179 119.676 195.881C122.667 195.373 123.644 191.455 124.141 188.791C124.358 187.523 124.991 186.888 125.641 186.778C126.681 186.601 127.961 187.674 128 188.781C128.005 188.955 127.944 189.083 127.948 189.2C126.91 193.246 124.555 198.921 118.963 199.871C115.908 200.39 112.214 199.494 112.038 194.364" fill="#4ED2C2"/>
<path fill-rule="evenodd" clip-rule="evenodd" d="M123.562 169.349L123.233 159.257C123.177 157.524 122.543 157.518 122.529 157.1C122.516 156.682 123.642 156.239 124.524 156.081C126.604 155.708 127.967 156.665 128.013 158.097L128.354 168.549C132.199 167.859 136.609 167.007 140.888 166.058C142.595 163.95 142.214 169.785 140.578 170.139C135.539 171.164 131.821 171.831 128.481 172.431L129.097 191.361C129.159 193.272 130.006 193.961 131.329 193.724C133.851 193.271 134.86 189.246 135.342 186.516C135.554 185.218 136.166 184.567 136.796 184.454C137.805 184.272 139.045 185.371 139.083 186.506C139.084 186.565 139.088 186.685 139.033 186.935C138.09 191.069 135.744 196.897 130.324 197.87C126.92 198.481 124.463 197 124.309 192.282L123.69 173.291C120.917 173.788 119.338 173.952 119.338 173.952C117.321 174.314 116.056 170.516 117.884 170.188C117.884 170.188 120.157 169.9 123.562 169.349" fill="#4ED2C2"/>
<path fill-rule="evenodd" clip-rule="evenodd" d="M134.722 159.237C134.664 157.516 134.014 157.509 134 157.094C133.986 156.679 135.141 156.238 136.045 156.081C138.177 155.709 139.574 156.661 139.622 158.085L140.277 177.551C141.909 173.924 144.149 170.968 147.316 170.417C151.644 169.664 152.788 172.748 152.879 175.478L153.292 187.763C153.31 188.297 153.384 190.493 155.064 190.2C157.649 189.751 158.684 185.75 159.178 183.038C159.831 179.283 163.413 181.465 162.96 183.454C161.929 187.574 159.589 193.353 154.032 194.32C150.608 194.916 148.52 192.713 148.418 189.685L148.013 177.638C147.951 175.799 147.77 174.277 146.542 174.491C144.669 174.817 140.834 180.618 140.54 185.386L140.831 194.051C140.869 195.179 140.981 196.592 139.107 196.918C137.815 197.143 135.992 197.041 135.918 194.846L134.722 159.237Z" fill="#4ED2C2"/>
<path fill-rule="evenodd" clip-rule="evenodd" d="M171.031 184.863L170.544 170.354C166.413 171.782 162.672 175.211 162.919 182.554C163.061 186.782 165.165 188.188 167.402 187.798C169.063 187.509 170.244 186.299 171.031 184.863ZM158.011 183.821C157.71 174.835 163.477 168.572 170.414 166.478L169.968 153.203C169.911 151.5 169.268 151.494 169.254 151.082C169.24 150.671 170.383 150.235 171.277 150.08C173.386 149.713 174.768 150.654 174.815 152.064L175.875 183.605C175.918 184.898 176.604 186.196 178.138 185.929C180.694 185.483 181.718 181.524 182.207 178.84C182.421 177.562 183.042 176.922 183.681 176.811C184.704 176.633 185.962 177.714 185.999 178.829C186.001 178.888 186.005 179.005 185.95 179.252C184.993 183.317 182.614 189.049 177.118 190.006C174.945 190.384 173.188 189.745 172.184 188.561C170.821 190.099 169.001 191.419 166.573 191.842C161.588 192.711 158.218 189.988 158.011 183.821" fill="#4ED2C2"/>
<path fill-rule="evenodd" clip-rule="evenodd" d="M205.236 173.983C205.449 172.714 206.065 172.08 206.699 171.969C207.714 171.793 208.962 172.865 208.999 173.973C209.001 174.031 209.005 174.148 208.95 174.392C208 178.427 205.64 184.116 200.187 185.066C197.968 185.453 196.222 184.759 195.225 183.526C194.001 185.088 192.262 186.447 189.852 186.866C184.906 187.728 182.177 184.332 182.011 179.378C181.684 169.641 188.839 162.414 196.575 161.066C198.287 160.768 199.523 161.491 199.574 163.007C199.607 163.998 199.429 164.381 198.795 164.491C198.224 164.591 197.586 164.584 196.952 164.695C192.133 165.534 186.617 170.307 186.899 178.701C187.001 181.734 188.454 183.239 190.673 182.852C192.386 182.554 193.48 180.956 194.123 179.203L193.822 170.225C193.784 169.117 193.519 168.811 193.505 168.403C193.485 167.82 194.233 167.279 195.121 167.125C197.213 166.761 198.584 167.695 198.63 169.093L198.953 178.713C198.997 179.996 199.678 181.284 201.199 181.019C203.735 180.577 204.752 176.647 205.236 173.983" fill="#4ED2C2"/>
<path fill-rule="evenodd" clip-rule="evenodd" d="M218.677 197.137L218.468 190.768C216.507 193.093 215.19 195.604 215.307 199.174C215.367 201.02 216.047 202.336 217.06 202.156C219.085 201.795 218.714 198.268 218.677 197.137V197.137ZM229.703 168.47C230.716 168.29 231.961 169.386 231.998 170.516C232 170.575 232.01 170.873 231.955 171.122C230.03 178.41 226.474 182.576 223.149 185.982L223.487 196.28C223.692 202.53 220.41 205.33 217.183 205.905C213.639 206.537 211.008 203.952 210.883 200.143C210.685 194.13 214.256 190.441 218.32 186.245L218.071 178.686C216.631 181.337 214.726 183.413 212.004 183.898C207.764 184.653 205.185 181.7 205.015 176.522C204.808 170.212 206.853 162.723 206.853 162.723C207.264 161.633 206.782 160.521 210.136 159.923C213.236 159.371 211.479 162.079 211.256 163.016C210.261 167.624 209.651 170.367 209.815 175.367C209.92 178.581 211.053 180.115 212.888 179.789C215.419 179.337 217.191 175.13 217.814 170.829L217.499 161.246C217.462 160.114 217.197 159.802 217.183 159.386C217.164 158.79 217.91 158.239 218.795 158.081C220.884 157.709 222.252 158.662 222.299 160.091L222.985 180.983C225.185 178.196 227.113 174.859 228.243 170.527C228.582 169.209 229.07 168.583 229.703 168.47" fill="#4ED2C2"/>
</svg>
