<svg width="192" height="148" viewBox="0 0 192 148" fill="none" xmlns="http://www.w3.org/2000/svg">
<path d="M165 12.13C162.42 23.23 179.81 7.02 177.5 4.42C175.08 -1.4 166.34 11.6 165 12.13Z" fill="#ED3782"/>
<path d="M167.91 12.71C168.63 11.77 170.83 10.64 171.91 8.96002C171.56 6.02002 163.91 13.49 167.91 12.71Z" fill="#F7A3C5"/>
<path d="M168.81 21.9301C161.13 29.42 184.32 25.2801 185.18 21.34C185.48 16.84 180.68 19.6701 177.18 20.1001C174.09 20.8201 171.15 21.4901 168.81 21.9301Z" fill="#ED3782"/>
<path d="M171.7 24.0901C172.6 23.7201 180.62 22.9701 177.34 21.0901C176.5 21.7701 168.42 22.0901 171.7 24.0901Z" fill="#F7A3C5"/>
<path d="M42.4 123.53C41.85 106.79 40.19 115.53 31.86 118.14C29.6 117.91 24.64 115.91 23.46 116.81C22.99 117.3 23.37 119.62 24.03 122.03C27.23 128.38 20.28 130.18 20.26 134.16C21.43 135.57 27.18 135.67 28.89 135.94C30.45 135.74 33.89 144.45 36.07 142.43C37.86 140.92 39.2 135.18 39.98 134.26C52.85 129.78 50.25 130.64 42.4 123.53V123.53Z" fill="#FFCF37"/>
<path opacity="0.3" d="M29.2001 136C37.6101 147.61 35.8401 141.81 40.2001 134.1C34.2995 130.198 30.1083 124.194 28.4801 117.31C17.5901 113.44 27.4801 124.83 24.2601 127.72C15.0001 137.57 24.7901 134.66 29.2001 136V136Z" fill="#FFCF37"/>
<path d="M37.9999 118.52C38.4199 119.6 36.6399 124.17 39.2599 124.52C40.7599 124.37 40.1999 114.77 37.9999 118.52Z" fill="#FFE9A3"/>
<path d="M43.7199 126.84C42.1699 125.05 37.0399 125.84 42.7199 128.49C43.4499 128.83 44.5599 127.97 43.7199 126.84Z" fill="#FFE9A3"/>
<path d="M107.15 7.00004C108.93 -1.99996 107.73 0.480044 101.83 2.20004C101.12 2.33004 97.25 -0.309956 96.29 0.0700443C96.12 9.22004 94 6.61004 91.78 10.41C92.32 11.48 96.35 12.48 97.1 12.88C97.93 13.45 99.1 19.43 100.81 17.63C106.35 8.25004 114.84 16.86 107.15 7.00004V7.00004Z" fill="#FFCF37"/>
<path opacity="0.3" d="M97.1 12.88C100.54 21.45 100.74 17.05 104.21 13.27C101.095 9.9767 99.347 5.62311 99.32 1.09002C93.32 -2.72998 97.51 5.58002 95.18 6.99002C87.92 11.78 94.68 11.42 97.1 12.88V12.88Z" fill="#FFCF37"/>
<path d="M105.11 3.18003C103.73 6.12003 105.11 9.79003 106.29 3.50003C106.36 3.05003 105.88 2.50003 105.11 3.18003Z" fill="#FFE9A3"/>
<path d="M107.51 9.24007C106.78 7.88007 103.51 7.69007 106.64 10.1101C107.03 10.3601 107.73 10.1801 107.51 9.24007Z" fill="#FFE9A3"/>
<path d="M118.16 131.16C117.9 134.85 117.16 143.07 117.62 145.99C124.37 156.51 125.28 120.69 118.16 131.16Z" fill="#FFCF37"/>
<path d="M119.42 137.27C118.65 140.87 120.56 145.27 120.57 137.27C120.57 136.84 119.98 136.49 119.42 137.27Z" fill="#FFE48D"/>
<path d="M129.87 130.4C131.04 132.6 136.58 140.71 138.57 143.8C139.79 147.71 145.24 144.73 143.62 141.57C140.94 137.17 132.8 119.57 129.87 130.4V130.4Z" fill="#ED3782"/>
<path d="M135.3 133.6C135.3 134.49 141.07 141.94 138.51 136.6C137.7 136.08 136.3 131.27 135.3 133.6Z" fill="#F58DB8"/>
<path d="M131.78 22.4501C130.68 8.45009 144.26 12.0701 146.59 20.1701C151.36 2.68009 174.28 33.5901 147.01 36.2701C100.4 42.2501 122.07 6.25009 131.78 22.4501V22.4501Z" fill="#C8EDFF"/>
<path opacity="0.27" d="M152.77 15.12C144.14 24.18 131.93 29 119 29.52C120.6 38.79 147.24 38.41 156 33.52C163.83 28.64 159.12 16 152.77 15.12V15.12Z" fill="#C8EDFF"/>
<path opacity="0.77" d="M135.34 21.3801C134.14 20.3001 138.97 14.1501 134.77 16.9701C132.72 18.2301 133.52 24.5201 135.34 21.3801Z" fill="#DEF4FF"/>
<path opacity="0.77" d="M138.16 16.8301C140.53 17.3901 140.91 13.1401 136.96 15.9101C136.96 16.4901 137.06 17.0701 138.16 16.8301Z" fill="#DEF4FF"/>
<path opacity="0.77" d="M122.12 26.33C123.73 21.71 120.69 20.63 120.53 26.77C120.68 27.43 121.82 27.58 122.12 26.33Z" fill="#DEF4FF"/>
<path opacity="0.77" d="M124.42 22.0001C127.27 20.0001 122.11 18.9201 123.3 22.2901C123.54 22.3901 123.77 22.4601 124.42 22.0001Z" fill="#DEF4FF"/>
<path d="M188.76 39.6101C180.44 37.3701 182.48 56.2901 181.37 59.6101C176.6 70.6101 171.37 56.4001 171.37 45.7701C160.86 33.6001 163 77.7201 180.58 69.2301C180.87 80.2301 174.72 109.02 154.72 101.82C153.376 101.427 151.936 101.979 151.2 103.17C149.08 109.68 162.78 113.17 171.89 109.55C197.57 101.86 192.78 38.0001 188.76 39.6101V39.6101Z" fill="#463298"/>
<path d="M151.94 71.2701C150.52 80.3601 153.67 92.0001 160.67 83.6401C163.19 73.6401 162.36 46.5201 155.42 46.6397C145.36 46.7901 139.07 79.4501 138.42 82.4001C142.66 90.2901 145.61 76.7001 146.92 71.3101C148.591 71.4578 150.272 71.4444 151.94 71.2701ZM152.24 57.2701C152.49 57.2701 152.34 61.5101 152.15 66.2701C150.98 66.1001 149.51 65.8901 148.35 65.8201C149.51 61.5201 151.78 57.2401 152.24 57.2401V57.2701Z" fill="#463298"/>
<path d="M122.78 48.7401C120.4 46.4801 117.86 49.0001 117.78 51.8901C116.88 65.6301 114.45 84.4601 121.42 81.8901C140.56 79.2001 141.49 45.7801 122.78 48.7401ZM131 64.0701C130.53 70.5001 124.73 75.2601 124.17 75.2601C123.61 75.2601 123.28 52.9801 124.17 52.8701C128.82 52.3201 131.52 57.6401 131 64.0701Z" fill="#463298"/>
<path d="M110.94 40.77C105.1 41.16 107.61 51.01 106.17 57.17C104.72 57.34 102.56 57.64 101.17 57.8C101.53 50.8 100.85 41.64 95.97 48.17C93.97 54.26 93.97 71.86 95.45 79.07C102.08 87.61 101.52 71.64 101.23 62.72C102.77 62.5989 104.298 62.3582 105.8 62C105.69 65.7 104.87 75.51 106.12 78.58C113 86.73 114 38.42 110.94 40.77V40.77Z" fill="#463298"/>
<path d="M87.0701 33.4701C87.2801 33.2501 93.0701 32.64 97.6201 31.97C109.62 29.97 100.77 24.97 95.7201 26.47C85.4301 27.37 60.2401 25.47 64.7801 32.27C66.3401 35.02 77.8601 32.86 80.1801 33.67C79.6801 50.06 77.0001 78.4301 83.3601 83.9001C90.8001 85.5001 87.3601 72.35 87.8001 65.21C87.4201 52.37 86.8401 33.7901 87.0701 33.4701Z" fill="#463298"/>
<path d="M41.1299 50.0601C45.8499 47.9001 43.2199 42.4401 40.0499 43.1801C34.7599 44.4201 36.4099 52.2201 41.1299 50.0601Z" fill="#463298"/>
<path d="M26.6 70.45C32.15 63.04 33.92 50.19 25.77 43.57C35.6 21.25 25.71 26.01 20.87 40.92C2.64998 38.23 9.44998 59.82 23.15 47.06C28.37 52.06 25.81 63.86 22.36 67.91C12.56 64.75 11.36 78.04 23.02 73.32C32.52 85.03 24.07 105.21 16.59 96.32C8.22998 80.24 10.24 58.32 7.29998 50.78C-1.20002 43.51 -0.430018 73 0.649982 79.14C6.62998 134.76 50 100.56 26.6 70.45V70.45ZM15.23 45.07C15.45 44.51 16.86 44.07 18.62 44.41C17.53 45.89 14.62 46.93 15.23 45.07V45.07ZM17.59 70.43C17.77 69.96 18.79 69.88 20.14 70.65C18.65 71.93 17.21 71.45 17.59 70.43Z" fill="#463298"/>
<path d="M39.3799 56.61C32.7899 57.91 38.1399 106.26 45.0799 89.61C44.6699 82.91 44.3399 54.24 39.3799 56.61Z" fill="#463298"/>
<path d="M65.2101 63.15C78.5001 46.55 53.2101 29.35 51.0801 61.09C49.0801 100.71 67.5401 100.81 59.7501 66.44C60.4486 66.3744 61.1278 66.174 61.7501 65.85C63.0401 66.23 68.0901 76.3 66.8301 82.58C67.7201 88.16 72.8301 84.03 71.4801 77.58C71.8101 71 65.6601 63.2 65.2101 63.15V63.15ZM62.2101 59.9C61.2744 59.2524 60.1193 59.0041 59.0001 59.21C57.1101 40.76 68.7501 50.38 62.2501 59.9H62.2101Z" fill="#463298"/>
<g opacity="0.27">
<path opacity="0.27" d="M180.36 72.8201C175 117.94 151.44 96.2901 151 103.9C150.88 109.06 157 110.37 163 111.08C184.93 110.68 189.53 89.0801 191 75.1301C187.46 74.2901 183.913 73.5201 180.36 72.8201V72.8201Z" fill="#463298"/>
<path opacity="0.27" d="M157.21 69.22C152.156 68.6533 147.1 68.2067 142.04 67.88C133.85 90.88 144.11 88.7 146.94 71.29C148.603 71.4497 150.277 71.4497 151.94 71.29C149.47 93.54 164.47 90.14 161.75 69.8C160.23 69.59 158.72 69.39 157.21 69.22V69.22Z" fill="#463298"/>
<path opacity="0.27" d="M130.34 67.31C125.34 76.23 123.25 78.92 123.71 67.16C121.43 67.16 119.15 67.16 116.87 67.16C113.16 92.08 131.87 81.41 135.67 67.52C133.9 67.43 132.12 67.36 130.34 67.31V67.31Z" fill="#463298"/>
<path opacity="0.27" d="M105.55 67.44C103.99 84.31 111.2 82.65 111.55 67.24C109.563 67.2933 107.563 67.36 105.55 67.44Z" fill="#463298"/>
<path opacity="0.27" d="M94.51 68.06C93.88 87.53 103.24 84.27 101.29 67.63C99 67.75 96.77 67.9 94.51 68.06Z" fill="#463298"/>
<path opacity="0.27" d="M79.5398 69.45C80.1998 90.87 90.4698 87.72 87.8998 68.6C85.1098 68.86 82.3198 69.13 79.5398 69.45Z" fill="#463298"/>
<path opacity="0.27" d="M31.3999 78.25C29.6599 78.69 27.9299 79.13 26.1999 79.6C31.1199 98 15.9499 108.69 12.1999 83.6C8.73325 84.6733 5.30325 85.8067 1.90991 87C8.33991 123.71 41.1799 109.2 31.3999 78.25Z" fill="#463298"/>
<path opacity="0.27" d="M37.1799 76.85C38.3899 102.11 48.1799 95.15 44.2399 75.26C41.8799 75.77 39.5199 76.3 37.1799 76.85Z" fill="#463298"/>
<path opacity="0.27" d="M70.07 70.67C68.45 70.9 66.82 71.14 65.2 71.39C66.49 73.27 66.93 78.76 66.79 82.58C70.15 91.32 73.5 77.39 70.07 70.67V70.67Z" fill="#463298"/>
<path opacity="0.27" d="M60.4399 72.16C57.3399 72.69 54.2399 73.24 51.1499 73.84C52.8899 99.05 65.8399 96.2 60.4399 72.16Z" fill="#463298"/>
</g>
<path d="M23.6199 42.6601C24.6286 41.4035 25.5317 40.0656 26.3199 38.6601C29.2299 32.6601 19.8699 42.6601 23.6199 42.6601Z" fill="#AAA1D0"/>
<path d="M27.9999 34.88C28.0899 34.48 29.3599 32.31 27.5699 32.5C26.3999 32.85 26.1599 36.43 27.9999 34.88Z" fill="#AAA1D0"/>
<path d="M3.04991 57.4702C3.17991 59.4702 0.979914 67.6702 3.80991 67.3602C4.08991 66.2102 5.22991 54.7902 3.04991 57.4702Z" fill="#AAA1D0"/>
<path d="M4.99994 55.0001C5.99994 53.4301 4.35994 50.2901 3.61994 54.6201C3.49994 55.2001 4.33994 55.8501 4.99994 55.0001Z" fill="#AAA1D0"/>
<path d="M38.6798 46.7801C38.0098 48.6901 42.0898 49.6201 39.4098 46.0601C39.1798 46.0601 38.9698 46.1401 38.6798 46.7801Z" fill="#AAA1D0"/>
<path d="M38.3999 64.06C38.7199 65.06 37.8499 73.47 40.2599 71.06C39.7199 70.06 40.8499 61.64 38.3999 64.06Z" fill="#AAA1D0"/>
<path d="M39.9198 62.0702C40.7298 61.0702 37.6398 57.4802 38.7298 62.5902C39.1498 62.8202 39.5398 62.7702 39.9198 62.0702Z" fill="#AAA1D0"/>
<path d="M54.4198 62.6401C54.1398 59.3701 55.4898 54.9401 56.3398 51.2601C53.6798 48.6601 51.4698 66.8301 54.4198 62.6401Z" fill="#AAA1D0"/>
<path d="M57.2399 49.7801C59.0299 48.7201 58.0899 46.1101 55.9999 49.0501C55.8099 49.5601 56.2199 50.3001 57.2399 49.7801Z" fill="#AAA1D0"/>
<path d="M65.53 53.4701C64.53 57.7501 66.9 60.8601 66.97 53.4701C66.97 52.8701 65.97 52.4701 65.53 53.4701Z" fill="#AAA1D0"/>
<path d="M68.2798 30.7201C69.2198 30.3302 77.2798 31.2002 74.9598 28.7802C74.0098 29.2702 65.8198 28.3502 68.2798 30.7201Z" fill="#AAA1D0"/>
<path d="M77.45 30.0001C78.07 30.1801 81.08 29.5601 79.16 28.4301C78.54 28.2501 75.54 28.8701 77.45 30.0001Z" fill="#AAA1D0"/>
<path d="M84.1299 39.0001C84.9899 40.9001 82.4799 48.5401 85.2399 48.9101C86.0699 47.9601 86.2399 35.5901 84.1299 39.0001Z" fill="#AAA1D0"/>
<path d="M85.5599 36.5401C86.4199 34.6401 84.3099 32.3401 84.1199 36.5401C84.1199 37.1401 85.1199 37.5401 85.5599 36.5401Z" fill="#AAA1D0"/>
<path d="M97.0998 51.7102C97.3498 52.4102 95.8998 55.5002 97.5998 56.3702C98.4098 55.9102 98.2898 56.0902 98.2998 54.4802C98.3798 53.6702 98.8898 50.1502 97.0998 51.7102Z" fill="#AAA1D0"/>
<path d="M98.8299 49.3901C99.8299 47.5501 96.2099 46.7801 97.9499 49.8901C98.1699 49.8901 98.3899 49.8901 98.8299 49.3901Z" fill="#AAA1D0"/>
<path d="M108.88 46.43C109.15 47.16 107.7 54.63 110.25 52.43C109.83 51.7 111.47 44.23 108.88 46.43Z" fill="#AAA1D0"/>
<path d="M110.07 44.1301C110.75 43.1301 108.92 41.7001 108.68 43.7401C108.635 44.0984 108.859 44.4356 109.207 44.5331C109.555 44.6307 109.922 44.4593 110.07 44.1301Z" fill="#AAA1D0"/>
<path d="M120.09 54.8201C120.25 55.5201 119.2 62.6401 121.57 60.3701C121.13 59.6601 122.57 52.5501 120.09 54.8201Z" fill="#AAA1D0"/>
<path d="M121.33 52.6101C121.33 52.1901 121.87 49.8001 120.22 50.4601C119.22 51.1101 120.03 54.5901 121.33 52.6101Z" fill="#AAA1D0"/>
<path d="M156.31 56.0001C156.93 57.4601 155.73 61.4901 157.63 63.0001C159.18 63.4001 157.94 52.8301 156.31 56.0001Z" fill="#AAA1D0"/>
<path d="M156.73 52.4201C157.07 51.0501 154.37 49.2201 155.34 52.8101C155.51 53.3801 156.53 53.5101 156.73 52.4201Z" fill="#AAA1D0"/>
<path d="M166.92 51.1201C167.4 52.5701 166.39 60 169.16 59.26C169.23 58.26 168.73 48.1901 166.92 51.1201Z" fill="#AAA1D0"/>
<path d="M168.33 48.6801C169.28 47.2501 166.55 45.6801 167.05 48.8701C167.39 49.2001 167.77 49.2501 168.33 48.6801Z" fill="#AAA1D0"/>
<path d="M187.45 47.6401C188.45 49.5201 186.22 57.1001 188.95 57.4701C189.86 56.5301 189.45 44.2601 187.45 47.6401Z" fill="#AAA1D0"/>
<path d="M188.38 44.88C188.13 44.45 188.44 43.57 187.63 42.44C185.39 41.63 187.2 47.75 188.38 44.88Z" fill="#AAA1D0"/>
<path d="M73.9999 101.25C73.2599 105.89 73.5699 128.61 79.9299 122.45C81.5899 119.3 79.5099 94.1901 73.9999 101.25Z" fill="#463298"/>
<path d="M63.8901 102.33C63.7701 103.88 62.8901 110.27 62.4101 113.43C62.6101 121.93 54.9801 97.83 51.1101 106.36C50.8001 110.75 61.5401 126.17 64.0401 123.36C66.7501 121.45 68.8201 94.11 63.8901 102.33V102.33Z" fill="#463298"/>
<path d="M97.92 107.1C102.98 100.37 94.22 95.5201 89.92 99.2301C87.36 97.9101 85.99 101.91 86.21 104.23C87.39 137.71 115.36 113.81 97.92 107.1V107.1ZM94.15 114.66C85.39 95.1901 101.49 100.96 93.79 109.09C102.76 108.73 98.6 121 94.15 114.66Z" fill="#463298"/>
<path d="M137.52 99.65C141.47 102.32 141.2 96.24 138.84 94.07C128.12 86.52 127.66 99.69 134.03 107.47C135.71 110.38 136.85 113.18 133.79 112.2C132.35 110.71 132.25 109.36 130.37 110.2C125.07 116.04 138.2 122.51 141.11 115.2C143.76 109.04 137.28 103.85 134.52 97.84C134.21 94.77 137.18 96.88 137.52 99.65V99.65Z" fill="#463298"/>
<path d="M113.77 99.62C113.77 99.32 115.7 98.9 117.9 98.49C130.5 93.87 109.08 94.29 109.15 96.97C106.83 100.5 107.74 112.86 110.75 117.58C114.47 124.77 130.97 113.84 122.57 111.94C116.23 115.52 115.62 114.48 114.74 108.94C114.43 107.64 120.19 108.1 121.85 105.38C122.33 103.38 120.94 102.56 118.9 103.52C112 106.17 114.51 102.92 113.77 99.62Z" fill="#463298"/>
<path opacity="0.27" d="M74.1499 113.42C74.8999 128.31 82.6699 125.83 79.9799 112.64C77.9999 112.89 76.0899 113.14 74.1499 113.42Z" fill="#463298"/>
<path opacity="0.27" d="M56 116.44C62.52 126.69 65.45 126.02 66 114.65C62.6667 115.19 59.3333 115.787 56 116.44Z" fill="#463298"/>
<path opacity="0.27" d="M98.4101 110.68C101.19 117.09 94.1801 119.16 92.8301 111.2C90.9101 111.38 89.0001 111.58 87.0801 111.79C89.5001 126.79 107.08 122.9 102.55 110.33L98.4101 110.68Z" fill="#463298"/>
<path opacity="0.27" d="M134.64 108.6C135.36 110.07 136.64 112.47 134.48 112.6C132.48 111.39 131.71 108.43 129.48 110.98C128.17 123.17 146.23 118.98 140.79 108.44L134.64 108.6Z" fill="#463298"/>
<path opacity="0.27" d="M122.57 112C117.08 114.94 115.76 115.28 114.78 109.55C112.63 109.67 110.49 109.81 108.34 109.96C110 130.53 131.84 113.14 122.57 112Z" fill="#463298"/>
<path d="M53.73 108.15C54 110.15 58.14 112.42 54.97 107.42C54.68 106.98 53.89 106.94 53.73 108.15Z" fill="#AAA1D0"/>
<path d="M75.7299 103.62C75.2299 107.73 78.1099 112.62 77.1699 103.62C77.1111 103.268 76.8066 103.01 76.4499 103.01C76.0932 103.01 75.7888 103.268 75.7299 103.62Z" fill="#AAA1D0"/>
<path d="M88.24 103.4C87.92 104.08 88.77 111.12 90.31 107.81C89.31 107.2 90.52 101.15 88.24 103.4Z" fill="#AAA1D0"/>
<path d="M110.32 100.14C110.38 100.79 110.13 107.71 112.13 104.87C111.64 104.19 112.53 97.87 110.32 100.14Z" fill="#AAA1D0"/>
<path d="M112.22 98.48C114.06 98.75 116.74 95.74 111.84 97.1C111.26 97.26 111.13 98.27 112.22 98.48Z" fill="#AAA1D0"/>
<path d="M131.34 96.43C131.26 97.17 132.88 103.73 134.11 100.51C133.21 100.01 133.11 94.18 131.34 96.43Z" fill="#AAA1D0"/>
<path d="M134 95.1601C135.56 95.1601 135.83 92.5701 133.27 93.9201C132.85 94.2601 132.84 95.1001 134 95.1601Z" fill="#AAA1D0"/>
</svg>
