<svg width="194" height="182" viewBox="0 0 194 182" fill="none" xmlns="http://www.w3.org/2000/svg">
<g clip-path="url(#clip0_1_5544)">
<path fill-rule="evenodd" clip-rule="evenodd" d="M139.993 25.6369L148.623 23.2789L151.339 31.5059L155.07 22.9419L162.586 18.2809L153.896 17.2549L153.697 8.48486L146.892 15.0799L139.924 14.1569L143.766 19.2029L139.993 25.6369Z" fill="#FFD41D"/>
<path fill-rule="evenodd" clip-rule="evenodd" d="M35.2805 85.835L40.7685 86.11L42.5765 93.158L44.5955 87.147L49.8755 85.864L44.9995 83.603L46.5615 78.442L41.3285 80.991L37.4355 79.119L38.7135 82.799L35.2805 85.835Z" fill="#B894EA"/>
<path fill-rule="evenodd" clip-rule="evenodd" d="M68.6984 27.463C68.6954 25.665 66.3514 17.601 64.0494 23.489C64.4154 25.843 65.4904 29.214 66.2764 32.427C62.3914 32.788 60.1754 37 58.9304 31.096C57.8384 29.257 57.5464 23.998 54.7764 23.524C48.0214 23.24 67.2444 58.957 61.2624 37.603C69.7584 35.452 65.2064 33.801 69.4594 41.969C73.9244 42.206 68.4974 30.434 68.6984 27.463Z" fill="#FF5284"/>
<path fill-rule="evenodd" clip-rule="evenodd" d="M81.6214 31.1789C80.9944 31.5069 80.2694 31.7189 78.4684 31.9529L78.7914 26.1979L81.6214 31.1789ZM88.0873 36.8949C85.5083 31.9089 79.1434 13.3099 74.9814 23.3399C72.7674 28.9859 75.4844 52.2869 78.3024 35.5769C79.7494 35.6749 83.4154 33.5479 83.5094 35.1149C83.6874 37.2289 89.9223 45.6589 88.0873 36.8949Z" fill="#FF5284"/>
<path fill-rule="evenodd" clip-rule="evenodd" d="M110.52 27.0627C109.779 27.9557 108.633 28.5367 107.332 28.6837C107.156 26.7157 106.87 23.5127 106.611 20.6447C109.066 20.2157 113.158 23.8617 110.52 27.0627V27.0627ZM108.704 17.0107C100.541 15.0397 103.31 24.6537 103.688 30.0977C104.849 33.9837 102.597 38.1507 106.496 40.5897C108.76 39.8227 107.657 35.4907 107.942 32.4957C117.453 30.6627 116.937 19.2937 108.704 17.0107" fill="#FF5284"/>
<path fill-rule="evenodd" clip-rule="evenodd" d="M96.7813 24.8917C96.3353 26.9367 95.3253 28.2027 93.3363 29.1687C92.7853 26.4647 92.3503 24.3347 91.7053 21.1237C93.7783 20.6957 97.6483 21.1177 96.7813 24.8917ZM93.2703 17.7057C86.4723 17.9207 87.7883 23.2857 89.0673 28.7297C90.4423 32.7797 89.0923 36.8257 92.4333 40.6987C95.8263 40.7757 94.1503 36.7747 93.9863 33.0917C102.048 30.2367 103 18.0307 93.2703 17.7057" fill="#FF5284"/>
<path fill-rule="evenodd" clip-rule="evenodd" d="M132.931 23.4846C128.831 13.9176 127.175 40.1986 121.183 27.7646C120.567 26.4966 122.737 18.7826 118.673 21.9366C116.212 27.4446 118.261 30.6606 120.75 34.6876C121.153 37.0266 117.633 40.9146 120.811 42.7146C122.057 42.3936 122.879 40.5456 123.551 37.8076C123.73 34.7546 125.734 35.2366 128.253 33.5996C131.058 31.0886 132.591 28.0216 132.931 23.4846" fill="#FF5284"/>
<path d="M130.7 22.8214C130.7 22.8214 132.341 23.2944 131.604 25.4244" stroke="white" stroke-width="0.743" stroke-linecap="round"/>
<path d="M110.247 30.3215C110.247 30.3215 114.105 29.0715 114.119 24.1475" stroke="white" stroke-width="0.743" stroke-linecap="round"/>
<path d="M77.5754 21.842C77.5754 21.842 78.9864 20.974 81.0864 25.309" stroke="white" stroke-width="0.743" stroke-linecap="round"/>
<path d="M66.8625 23.5499L67.6716 27.0089" stroke="white" stroke-width="0.743" stroke-linecap="round"/>
<path d="M68.1369 29.5694L67.9619 28.5514" stroke="white" stroke-width="0.743" stroke-linecap="round"/>
<path fill-rule="evenodd" clip-rule="evenodd" d="M48.7972 64.7667C55.7042 59.2877 62.6952 67.2247 52.5802 71.3057C50.4002 73.4677 48.3662 65.4067 48.7972 64.7667V64.7667ZM52.4002 57.9187C51.7452 59.6477 50.0572 60.7947 47.5962 61.6997C47.6032 61.7527 45.6692 55.9167 45.5902 55.7047C47.5112 53.8337 53.6272 52.8717 52.4002 57.9187ZM57.1722 60.2657C56.8502 59.7407 54.6252 60.3247 55.5402 58.5207C56.0152 56.4447 55.3612 53.0357 52.4112 51.7697C36.0582 47.9657 45.7492 66.8707 49.1882 74.2747C56.7952 77.2767 65.8932 64.9437 57.1722 60.2657" fill="#73E0AF"/>
<path fill-rule="evenodd" clip-rule="evenodd" d="M74.8098 54.5333C69.9728 65.5043 69.5418 55.4393 69.2958 51.0363C71.1628 50.3123 75.0498 50.8723 74.8098 54.5333ZM78.3448 65.6703C77.0138 64.8343 74.8708 63.4773 72.8368 62.2043C86.6468 53.6513 69.2778 40.6953 66.2498 51.7863C66.1288 53.1633 70.8558 78.9253 71.2558 64.4443C73.3878 65.5833 75.0248 67.6943 78.2758 68.7573C79.2598 68.5543 80.6378 66.9543 78.3448 65.6703Z" fill="#73E0AF"/>
<path fill-rule="evenodd" clip-rule="evenodd" d="M112.599 61.9445C111.356 63.4325 109.409 63.9525 107.594 64.2265L107.633 47.9355C112.907 48.8525 117.131 57.0645 112.599 61.9445V61.9445ZM117.724 55.4195C117.531 50.7595 110.484 41.3225 104.682 46.0885C103.907 52.1035 104.103 59.8045 105.492 66.3845C111.974 68.7195 118.592 62.2215 117.724 55.4195" fill="#73E0AF"/>
<path fill-rule="evenodd" clip-rule="evenodd" d="M100.468 46.3673C97.1962 46.7713 99.4502 53.2823 98.6602 55.7533C97.8222 55.7833 93.5522 55.9323 93.2602 55.9423C92.3022 54.0763 94.5122 47.6863 90.7622 46.7843C85.6062 48.5623 95.6952 80.8703 93.6762 59.1573C103.401 58.0983 96.5302 60.0773 100.406 66.9993C103.95 67.4803 101.362 56.2183 101.974 53.2163C101.363 50.7013 103.288 47.6363 100.468 46.3673" fill="#73E0AF"/>
<path fill-rule="evenodd" clip-rule="evenodd" d="M126.614 58.0343L122.511 57.8593L123.816 50.0963C124.843 52.3213 125.597 54.8773 126.614 58.0343V58.0343ZM131.996 66.6463C120.974 16.7483 114.843 73.1813 120.585 66.9213C121.251 65.7363 121.486 62.5463 122.164 60.8903C123.026 60.9503 127.417 61.2563 127.717 61.2763C127.819 62.4643 130.434 73.6173 131.996 66.6463" fill="#73E0AF"/>
<path fill-rule="evenodd" clip-rule="evenodd" d="M146.882 48.9904C141.863 43.6974 144.938 56.9754 139.976 57.4484C132.284 60.4174 136.693 40.4264 131.791 48.7954C130.162 54.5904 132.828 57.4924 136.631 61.6154C136.422 62.3114 134.546 72.7404 138.389 67.6604C138.902 66.1674 139.219 63.1154 140.153 61.1354C145.354 59.9804 147.685 54.6784 146.882 48.9904" fill="#73E0AF"/>
<path fill-rule="evenodd" clip-rule="evenodd" d="M87.2279 52.2364C84.6029 52.9744 86.4349 48.5074 84.5199 45.0794C80.9809 43.2974 82.1219 48.4834 82.5009 52.1894C79.6669 51.5904 75.7699 55.1454 82.8109 55.3104C83.4199 67.9974 88.0079 73.9244 86.1139 55.3284C87.8709 55.9644 90.9159 52.9914 87.2279 52.2364" fill="#73E0AF"/>
<path fill-rule="evenodd" clip-rule="evenodd" d="M65.9602 67.3419C64.8722 65.2549 65.4132 51.5299 61.1962 53.6129C58.6982 54.2019 64.9442 76.6549 65.9602 67.3419Z" fill="#73E0AF"/>
<path fill-rule="evenodd" clip-rule="evenodd" d="M61.4379 52.8811C63.6309 53.0041 64.7849 47.7931 60.7459 48.8201C59.2299 49.6121 58.9329 52.4231 61.4379 52.8811Z" fill="#73E0AF"/>
<path d="M52.7852 53.255C52.7852 53.255 55.1292 54.248 54.5142 58.049" stroke="white" stroke-width="0.743" stroke-linecap="round"/>
<path d="M61.5195 49.3585C61.5195 49.3585 62.6595 49.6965 62.5715 50.7145" stroke="white" stroke-width="0.743" stroke-linecap="round"/>
<path d="M72.6768 60.9835C72.6768 60.9835 75.5818 59.7115 76.9248 55.8575" stroke="white" stroke-width="0.743" stroke-linecap="round"/>
<path d="M100.998 48.3058L101.13 52.0788" stroke="white" stroke-width="0.743" stroke-linecap="round"/>
<path d="M101.179 53.5011L101.235 55.0491" stroke="white" stroke-width="0.743" stroke-linecap="round"/>
<path d="M124.595 47.6622C124.595 47.6622 126.591 51.5162 127.245 53.3082" stroke="white" stroke-width="0.743" stroke-linecap="round"/>
<path d="M141.978 59.4864C141.978 59.4864 143.645 58.7794 144.772 56.6874" stroke="white" stroke-width="0.743" stroke-linecap="round"/>
<path fill-rule="evenodd" clip-rule="evenodd" d="M130.988 121.009C106.207 116.249 79.7355 115.676 55.3535 120.034L62.2455 176.153L132.943 176.989C134.89 158.021 138.675 138.806 130.988 121.009" fill="#FF5284"/>
<path fill-rule="evenodd" clip-rule="evenodd" d="M142.485 102.094L54.1716 110.418L55.3536 120.034C79.7356 115.676 106.207 116.249 130.988 121.009C138.675 138.806 134.89 158.021 132.943 176.99L134.238 177.004L142.485 102.094Z" fill="#FF4080"/>
<path fill-rule="evenodd" clip-rule="evenodd" d="M48.6331 97.7297L50.3621 110.579C53.7001 105.861 57.3501 101.289 60.9751 96.6747L48.6331 97.7297Z" fill="#75BAE1"/>
<path fill-rule="evenodd" clip-rule="evenodd" d="M60.9748 96.675C57.3498 101.288 53.7008 105.861 50.3628 110.578L50.4728 111.378L69.8458 109.51C72.9758 104.713 76.1068 99.914 79.2388 95.115L60.9748 96.675Z" fill="#A7E8CC"/>
<path fill-rule="evenodd" clip-rule="evenodd" d="M104.911 92.921C101.99 97.701 99.0813 102.43 96.0393 106.99L116.554 105.015C119.645 100.208 123.12 95.728 126.403 91.087L104.911 92.921Z" fill="#A7E8CC"/>
<path fill-rule="evenodd" clip-rule="evenodd" d="M126.403 91.0871C123.12 95.7281 119.645 100.208 116.553 105.015L136.089 103.134C138.391 98.3071 141.276 93.8931 144.204 89.5651L126.403 91.0871Z" fill="#75BAE1"/>
<path fill-rule="evenodd" clip-rule="evenodd" d="M144.887 89.506L144.204 89.565C141.277 93.893 138.392 98.307 136.089 103.134L146.599 102.121L144.887 89.506Z" fill="#A7E8CC"/>
<path fill-rule="evenodd" clip-rule="evenodd" d="M79.2385 95.1154C76.1065 99.9144 72.9755 104.713 69.8455 109.51L96.0395 106.99C99.0815 102.429 101.99 97.7014 104.911 92.9214L79.2385 95.1154Z" fill="#75BAE1"/>
<path d="M113.882 157.925C113.882 157.925 114.198 151.113 119.275 152.619C122.839 153.675 121.682 157.581 121.682 157.581" stroke="black" stroke-width="1.222" stroke-linecap="round"/>
<path d="M77.2708 157.681C77.2708 157.681 77.5867 150.869 82.6637 152.376C86.2277 153.43 85.0697 157.334 85.0697 157.334" stroke="black" stroke-width="1.222" stroke-linecap="round"/>
<path d="M92.544 159.145C92.544 159.145 91.437 163.588 99.243 164.317C101.553 164.529 106.433 164.017 107.107 159.636" stroke="black" stroke-width="1.222" stroke-linecap="round"/>
<path fill-rule="evenodd" clip-rule="evenodd" d="M83.5958 120.514C82.9488 120.346 82.3488 120.066 81.9778 119.604C81.5988 119.133 81.6718 118.444 82.1398 118.065C82.6048 117.691 83.2818 117.757 83.6618 118.21C83.9748 118.451 85.4318 118.657 86.4138 118.53C89.2538 118.157 89.6878 115.946 89.6918 114.661C89.7038 112.421 88.6088 110.353 87.4478 108.162C87.2828 107.849 87.1168 107.536 86.9538 107.224C86.4688 106.29 85.8688 105.454 85.2368 104.572C84.0388 102.905 82.8018 101.18 82.4488 98.8198C82.1208 96.6578 82.8268 94.4668 84.3388 92.9628C85.7878 91.5238 87.7948 90.8828 89.8478 91.2038C89.8978 91.2138 94.9148 92.1048 95.2858 94.4788C95.3798 95.0758 94.9698 95.6348 94.3738 95.7288C93.7788 95.8218 93.2158 95.4128 93.1228 94.8158C92.8678 94.3958 90.7388 93.5598 89.5078 93.3668C88.1318 93.1498 86.8438 93.5578 85.8838 94.5138C84.8638 95.5278 84.3888 97.0158 84.6118 98.4928C84.8908 100.334 85.9208 101.773 87.0138 103.295C87.6658 104.203 88.3378 105.142 88.8968 106.217C89.0568 106.525 89.2168 106.83 89.3808 107.137C90.6168 109.471 91.8968 111.883 91.8818 114.671C91.8668 117.971 89.8808 120.282 86.6978 120.699C86.6728 120.703 85.0178 120.882 83.5958 120.514" fill="#FFD41D"/>
<path fill-rule="evenodd" clip-rule="evenodd" d="M95.5999 94.1524C95.5999 94.1524 95.3459 94.1864 94.8699 94.2544C94.6319 94.2904 94.3399 94.3334 93.9899 94.3324C93.6409 94.3334 93.2319 94.3814 92.7849 94.3304C91.8899 94.2734 90.7929 94.1684 89.5699 93.8534C88.3469 93.5504 86.9629 93.1304 85.5889 92.2644C84.9139 91.8484 84.2539 91.4144 83.5479 90.9444C83.1999 90.7064 82.8439 90.4634 82.4849 90.2184C82.1279 89.9614 81.7759 89.6814 81.4119 89.4084C81.0439 89.1424 80.6939 88.8354 80.3439 88.5124C80.1669 88.3544 79.9899 88.1944 79.8109 88.0344L79.5439 87.7924L79.2769 87.4954C78.9699 87.1214 78.6359 86.8164 78.3419 86.3724C78.0549 85.9384 77.7249 85.4994 77.4739 85.0484C77.2259 84.6004 76.9539 84.1494 76.7179 83.6904C76.4829 83.2184 76.2459 82.7984 76.0079 82.2714C75.7969 81.8344 75.5699 81.2384 75.4159 80.7014C75.2529 80.1584 75.1349 79.5934 75.0579 79.0214C74.8999 77.8764 74.8959 76.6794 75.1329 75.4934C75.3669 74.3104 75.8619 73.1284 76.6589 72.1814C77.4659 71.2334 78.5049 70.5894 79.6319 70.2614C79.8829 70.1954 80.1189 70.1184 80.3809 70.0594L81.2709 69.9664C81.5749 69.9204 81.8499 69.9524 82.1269 69.9784C82.4019 70.0104 82.6879 70.0064 82.9539 70.0744C85.1289 70.5314 86.9309 71.7964 88.3839 73.2024C89.8549 74.6114 91.0319 76.2064 92.0159 77.7974C92.5079 78.5924 92.9439 79.3974 93.3299 80.1964C93.5089 80.6154 93.7049 80.9754 93.8559 81.4204C94.0009 81.8164 94.1429 82.2064 94.2819 82.5874C94.7779 84.2144 95.0259 85.7164 95.1729 87.0524C95.3199 88.3904 95.3989 89.5524 95.4729 90.5084C95.5509 91.4614 95.5939 92.2154 95.6489 92.7244C95.6929 93.2364 95.7159 93.5094 95.7159 93.5094C95.7159 93.5094 95.6639 93.2424 95.5659 92.7394C95.4639 92.2384 95.3209 91.5014 95.1769 90.5534C95.0289 89.6104 94.8559 88.4604 94.6089 87.1634C94.3609 85.8704 93.9929 84.4294 93.4709 82.9714C93.3119 82.6004 93.1479 82.2224 92.9799 81.8374C92.8399 81.4884 92.6119 81.1104 92.4289 80.7374C92.0169 80.0004 91.5759 79.2474 91.0709 78.5084C90.0679 77.0354 88.8719 75.5834 87.4889 74.3054C86.1149 73.0214 84.4479 72.0144 82.6759 71.6444C82.4559 71.5884 82.2299 71.6024 82.0069 71.5754C81.7839 71.5554 81.5579 71.5294 81.3579 71.5684L80.7339 71.6224C80.4979 71.6754 80.2449 71.7604 79.9999 71.8294C79.1669 72.0754 78.3619 72.5894 77.7859 73.2804C76.5869 74.6664 76.2579 76.8144 76.5219 78.7674C76.5829 79.2594 76.6849 79.7464 76.8159 80.2184C76.9459 80.7004 77.0769 81.0954 77.2979 81.6004C77.4759 82.0254 77.7279 82.5094 77.9359 82.9584C78.1539 83.4144 78.3949 83.8344 78.6209 84.2694C78.8479 84.7014 79.1079 85.0524 79.3449 85.4474C79.4519 85.6424 79.6139 85.8274 79.7659 86.0164L80.2159 86.5744L80.4119 86.8204L80.6549 87.0574C80.8159 87.2154 80.9759 87.3744 81.1359 87.5304C81.4519 87.8474 81.7699 88.1574 82.1159 88.4264C82.4529 88.7074 82.7779 88.9924 83.1129 89.2564C83.4539 89.5164 83.7899 89.7734 84.1209 90.0254C84.7809 90.5254 85.4439 91.0254 86.0619 91.4614C87.2749 92.3244 88.5729 92.8634 89.7259 93.2624C90.8839 93.6764 91.9429 93.8764 92.8169 94.0104C93.6899 94.1154 94.3839 94.1974 94.8649 94.1664C95.3439 94.1554 95.5999 94.1524 95.5999 94.1524" fill="#FFD41D"/>
<path fill-rule="evenodd" clip-rule="evenodd" d="M95.9552 92.8771C95.9552 92.8771 95.9612 92.8121 95.9762 92.6861C95.9672 92.5571 95.9502 92.3801 95.8942 92.1431C95.8022 91.6571 95.5622 91.0081 95.3562 90.0731C95.2092 89.1821 95.0232 88.0651 94.9762 86.7721C94.9082 85.4831 94.9122 84.0141 95.1632 82.4181C95.3882 80.8321 95.8822 79.0611 96.7692 77.4311C97.6732 75.7451 98.8592 74.1411 100.459 72.7761C100.844 72.4251 101.297 72.1391 101.723 71.8141C102.181 71.5271 102.644 71.2561 103.142 70.9941C104.058 70.5421 105.115 70.1281 106.171 69.8621C107.243 69.5911 108.379 69.4301 109.569 69.5031C110.746 69.5621 112.012 69.9331 113.049 70.7051C113.32 70.8821 113.536 71.1211 113.767 71.3421L113.851 71.4261C113.881 71.4581 113.847 71.4121 113.928 71.5101L113.958 71.5461L114.081 71.6991L114.328 72.0031C114.712 72.5501 115.027 73.0841 115.235 73.6581C115.692 74.8041 115.795 76.0351 115.688 77.1821C115.589 78.3331 115.277 79.4121 114.865 80.4081C114.456 81.4061 113.954 82.3311 113.405 83.1951C112.311 84.9271 111.007 86.4021 109.643 87.6591C108.958 88.2871 108.26 88.8631 107.529 89.3601C106.771 89.8621 106.077 90.2311 105.411 90.6481C104.064 91.4561 102.856 92.1891 101.719 92.8151C100.385 93.4491 99.2362 93.2811 98.3562 93.4061C97.5082 93.5351 96.7702 93.7611 96.2712 93.7421C95.7392 93.7611 95.5672 93.4631 95.5802 93.4791C95.5852 93.4721 95.6182 93.5381 95.7312 93.5861C95.8412 93.6421 96.0282 93.6621 96.2632 93.6231C96.7542 93.5691 97.3552 93.2371 98.2852 92.9791C99.1742 92.7501 100.352 92.6871 101.287 92.1001C102.309 91.3541 103.466 90.5131 104.726 89.5951C105.345 89.1311 106.054 88.6651 106.661 88.1821C107.284 87.6771 107.907 87.1131 108.502 86.4891C109.694 85.2461 110.812 83.7871 111.76 82.1921C112.692 80.5971 113.434 78.7921 113.583 77.0001C113.654 76.1081 113.559 75.2281 113.234 74.4451C113.086 74.0411 112.85 73.6831 112.646 73.3751L112.398 73.0761L112.272 72.9261L112.243 72.8881C112.305 72.9581 112.244 72.8931 112.25 72.9011L112.194 72.8511C112.045 72.7181 111.912 72.5631 111.743 72.4581C110.483 71.4621 108.494 71.4731 106.68 71.9101C106.221 72.0281 105.768 72.1591 105.318 72.3181C104.854 72.4731 104.471 72.6271 103.987 72.8411C103.589 73.0381 103.18 73.2541 102.789 73.4761C102.42 73.7441 102.023 73.9661 101.678 74.2621C100.267 75.3931 99.0712 76.7891 98.2022 78.2061C97.2962 79.6801 96.7422 81.1741 96.3922 82.6511C96.0422 84.1241 95.8792 85.5291 95.8092 86.7751C95.7302 88.0221 95.7572 89.1131 95.7872 90.0341C95.8722 90.8981 95.9902 91.6391 96.0132 92.1261C96.0302 92.3691 96.0172 92.5701 96.0072 92.6921C95.9722 92.8141 95.9552 92.8771 95.9552 92.8771" fill="#FFD41D"/>
<path fill-rule="evenodd" clip-rule="evenodd" d="M126.124 107.878C122.683 106.987 119.541 104.47 118.196 101.224C115.916 95.7261 112.02 92.1251 106.614 90.5241C104.448 89.8711 101.814 90.9351 100.274 92.1801C100.107 92.3171 99.8521 92.5021 99.5501 92.7201C99.0541 93.0791 97.6941 94.0601 97.2011 94.6801C97.2431 94.9531 97.1811 95.2421 97.0061 95.4821L96.8521 95.7041C96.6051 96.0471 96.1811 96.2161 95.7671 96.1401C95.3581 96.0661 95.0181 95.7521 94.9091 95.3431C94.5051 93.8151 96.1891 92.4461 98.2701 90.9471C98.5291 90.7581 98.7521 90.6001 98.8981 90.4811C100.935 88.8321 104.288 87.5561 107.236 88.4261C113.22 90.1991 117.707 94.3331 120.218 100.385C121.658 103.861 125.845 106.381 129.549 106.001C131.61 105.789 132.903 104.08 134.27 102.269L134.652 101.77C134.758 101.628 134.912 101.457 135.083 101.274C135.241 101.103 135.55 100.769 135.657 100.582C135.616 100.071 135.938 99.5851 136.448 99.4411C137.031 99.2751 137.638 99.6141 137.8 100.197C138.096 101.238 137.283 102.117 136.69 102.758C136.573 102.885 136.463 103 136.389 103.098L136.018 103.589C134.502 105.596 132.78 107.87 129.771 108.178C128.562 108.303 127.325 108.19 126.124 107.878" fill="#FFD41D"/>
<path fill-rule="evenodd" clip-rule="evenodd" d="M112.533 121.823C112.524 121.708 112.526 121.629 112.423 121.541C110.659 121.659 111.279 124.831 112.641 124.411C111.921 123.42 110.767 124.943 110.563 125.633C110.288 126.58 111.277 128.176 112.379 127.811C112.305 127.498 111.974 127.51 111.704 127.588C110.69 127.882 110.782 129.344 110.821 130.11C110.848 130.643 111.098 131.433 111.792 131.073C111.516 131 111.104 130.85 110.813 130.944C110.396 131.079 109.883 132.141 109.989 132.576C110.107 133.059 110.828 133.644 111.338 133.588C111.332 133.552 111.303 133.473 111.301 133.442C110.981 133.632 110.295 133.921 110.137 134.238C109.953 134.606 110.157 135.344 110.286 135.742C110.571 136.612 111.507 136.652 112.075 137.187C112.622 137.702 112.605 138.54 113.359 138.899C113.936 139.178 114.463 139.284 114.779 138.706C115.094 138.129 114.902 137.275 114.729 136.681C114.742 137.766 116.22 139.249 117.306 139.313C118.897 139.405 118.244 137.119 118.349 136.146C118.952 137.158 119.489 138.381 120.998 137.722C121.889 137.335 121.621 136.632 121.687 135.907C121.989 136.881 122.554 137.702 123.644 137.59C125.391 137.413 125.121 136.115 125.243 134.833C125.335 136.267 127.428 136.979 128.391 136.019C128.927 135.486 129.253 134.227 128.312 133.911C129.072 134.009 130.262 134.482 130.823 133.809C131.774 132.659 129.815 131.899 129.101 131.862C130.051 131.556 130.735 131.553 131.077 130.415C131.217 129.957 131.231 129.08 130.81 128.757C130.481 128.504 129.865 128.567 129.473 128.531C130.334 128.458 131.568 127.983 131.537 126.965C131.5 125.719 130.596 125.506 129.753 125.035C131.02 124.925 132.412 124.237 131.93 122.749C131.535 121.514 130.673 121.363 129.58 121.365C130.952 121.363 133.001 119.486 131.102 118.536C130.477 118.224 129.723 118.231 129.172 117.762C128.467 117.169 128.351 116.023 127.375 115.73C125.732 115.239 126.453 117.801 126.403 118.601C126.126 117.6 124.391 115.506 123.159 115.893C121.785 116.326 122.26 118.631 122.018 119.641C121.384 118.814 121.121 115.647 119.349 116.734C118.246 117.405 118.132 119.063 118.285 120.151C118.007 120.049 117.952 119.549 117.806 119.271C117.498 118.669 116.997 117.82 116.295 117.633C114.465 117.148 114.637 119.988 114.676 121.06C114.017 120.683 113.532 118.713 112.375 119.381C111.571 119.843 111.81 121.599 112.514 122.045" fill="#2A4174"/>
<path fill-rule="evenodd" clip-rule="evenodd" d="M112.866 136.898L112.905 120.907L130.023 117.74L128.841 133.208L112.866 136.898Z" fill="#75BAE1"/>
<path fill-rule="evenodd" clip-rule="evenodd" d="M121.579 133.363C121.579 133.363 111.798 128.329 114.415 123.184C117.034 118.035 121.125 125.355 121.125 125.355C121.125 125.355 122.058 121.577 125.002 120.988C127.943 120.398 128.601 128.423 121.579 133.363" fill="#FFD41D"/>
<path fill-rule="evenodd" clip-rule="evenodd" d="M75.6046 165.176C75.4996 165.176 75.3926 165.133 75.3116 165.045C75.1716 164.886 75.1866 164.648 75.3466 164.504L78.5446 161.681C78.7056 161.542 78.9466 161.556 79.0836 161.715C79.2256 161.874 79.2106 162.112 79.0506 162.251L75.8486 165.078C75.7826 165.141 75.6926 165.172 75.6046 165.176" fill="white"/>
<path fill-rule="evenodd" clip-rule="evenodd" d="M78.8878 167.545C78.8158 167.545 78.7418 167.525 78.6798 167.487C78.5008 167.376 78.4448 167.14 78.5568 166.961L80.6038 163.688C80.7158 163.506 80.9508 163.453 81.1278 163.563C81.3118 163.676 81.3638 163.912 81.2528 164.092L79.2038 167.366C79.1318 167.481 79.0178 167.544 78.8878 167.545" fill="white"/>
<path fill-rule="evenodd" clip-rule="evenodd" d="M82.5295 168.553C82.4965 168.553 82.4635 168.548 82.4295 168.541C82.2235 168.489 82.1005 168.281 82.1525 168.076L82.8275 165.38C82.8775 165.178 83.0915 165.053 83.2915 165.103C83.4985 165.154 83.6185 165.364 83.5705 165.566L82.8915 168.264C82.8505 168.433 82.6965 168.547 82.5295 168.553Z" fill="white"/>
<path fill-rule="evenodd" clip-rule="evenodd" d="M120.362 164.464C120.276 164.466 120.187 164.44 120.11 164.379L116.823 161.651C116.66 161.52 116.639 161.279 116.777 161.116C116.912 160.954 117.154 160.936 117.312 161.065L120.599 163.789C120.763 163.923 120.783 164.161 120.649 164.322C120.579 164.414 120.468 164.463 120.362 164.464" fill="white"/>
<path fill-rule="evenodd" clip-rule="evenodd" d="M117.157 166.941C117.032 166.939 116.909 166.88 116.837 166.769L114.683 163.561C114.565 163.387 114.613 163.147 114.792 163.031C114.963 162.913 115.2 162.961 115.318 163.136L117.469 166.343C117.586 166.519 117.538 166.761 117.365 166.873C117.301 166.917 117.225 166.936 117.157 166.941Z" fill="white"/>
<path fill-rule="evenodd" clip-rule="evenodd" d="M113.549 168.062C113.383 168.064 113.222 167.952 113.179 167.781L112.416 165.108C112.359 164.907 112.475 164.697 112.679 164.637C112.881 164.579 113.093 164.701 113.15 164.898L113.909 167.573C113.968 167.777 113.849 167.987 113.649 168.046C113.613 168.056 113.582 168.058 113.549 168.062" fill="white"/>
<path fill-rule="evenodd" clip-rule="evenodd" d="M91.6007 98.5988L94.3267 96.3038L98.2957 98.8478L96.5997 95.1038L98.5367 92.1648L95.2237 93.2478L93.6867 90.1088L92.3297 93.6308L89.6567 94.4598L91.8897 95.6408L91.6007 98.5988Z" fill="#FF5284"/>
<path d="M131.026 172.107L132.608 157.823" stroke="white" stroke-width="1.781" stroke-linecap="round" stroke-linejoin="round"/>
<path d="M133.349 153.296L134.086 147.736" stroke="white" stroke-width="1.781" stroke-linecap="round" stroke-linejoin="round"/>
<path d="M52.4513 106.29C52.4513 106.29 49.6763 100.53 54.0093 100.278C58.3393 100.025 62.5903 99.5962 62.5903 99.5962" stroke="white" stroke-width="1.781" stroke-linecap="round" stroke-linejoin="round"/>
<path d="M66.9944 99.4688L72.6304 98.7628" stroke="white" stroke-width="1.781" stroke-linecap="round" stroke-linejoin="round"/>
<path fill-rule="evenodd" clip-rule="evenodd" d="M170.337 89.4229C170.41 88.5559 169.974 86.8859 169.429 83.9639L164.102 81.1759C164.102 81.1759 163.543 83.0199 161.88 86.8549C161.498 87.7369 161.328 88.2389 161.377 88.5409C164.513 87.5129 167.563 88.0069 170.337 89.4229" fill="#9177F2"/>
<path fill-rule="evenodd" clip-rule="evenodd" d="M161.377 88.5412C161.495 89.2852 162.97 88.7722 166.051 89.5232C169.168 90.2812 170.235 90.6132 170.337 89.4232C167.563 88.0072 164.513 87.5132 161.377 88.5412Z" fill="#2A4174"/>
<path fill-rule="evenodd" clip-rule="evenodd" d="M193.195 59.0461C194.554 54.2521 194.139 49.1771 192.394 44.6891C187.811 57.3881 178.608 67.5241 161.463 70.7491C159.563 71.3441 157.658 72.9891 156.275 75.2551C156.636 75.8841 156.867 76.2401 156.867 76.2401C156.867 76.2401 158.658 79.9101 163.742 83.8291C167.376 86.6291 172.701 83.6621 174.131 82.6511C174.131 82.6511 188.377 76.0231 193.195 59.0461" fill="#9177F2"/>
<path fill-rule="evenodd" clip-rule="evenodd" d="M192.395 44.6886C188.066 33.5486 174.663 25.1266 160.548 34.5766C141.416 47.3836 153.472 70.3786 156.276 75.2546C157.659 72.9896 159.564 71.3436 161.463 70.7496C178.609 67.5236 187.812 57.3876 192.395 44.6886" fill="#B894EA"/>
<path d="M158.248 51.9093C158.248 51.9093 157.913 56.1303 160.968 55.6213C163.111 55.2633 162.739 52.7623 162.739 52.7623" stroke="black" stroke-width="0.737" stroke-linecap="round"/>
<path d="M180.999 53.7589C180.999 53.7589 180.92 57.9919 177.929 57.1889C175.832 56.6219 176.447 54.1689 176.447 54.1689" stroke="black" stroke-width="0.737" stroke-linecap="round"/>
<path d="M173.648 57.2677C173.648 57.2677 173.951 60.0997 169.376 59.9067C168.019 59.8507 165.236 59.1327 165.174 56.3757" stroke="black" stroke-width="0.737" stroke-linecap="round"/>
<path fill-rule="evenodd" clip-rule="evenodd" d="M180.82 61.4171C180.879 61.4291 180.946 61.4121 180.997 61.3621C181.091 61.2781 181.1 61.1281 181.017 61.0261L179.379 59.0221C179.297 58.9231 179.156 58.9141 179.065 59.0001C178.972 59.0861 178.964 59.2341 179.044 59.3331L180.685 61.3411C180.716 61.3851 180.767 61.4091 180.82 61.4171" fill="#FF5284"/>
<path fill-rule="evenodd" clip-rule="evenodd" d="M178.739 62.6125C178.777 62.6175 178.822 62.6125 178.859 62.5935C178.974 62.5445 179.023 62.3985 178.972 62.2785L178.036 60.0925C177.984 59.9725 177.853 59.9195 177.74 59.9745C177.629 60.0265 177.577 60.1675 177.628 60.2905L178.566 62.4755C178.601 62.5515 178.662 62.6015 178.739 62.6125" fill="#FF5284"/>
<path fill-rule="evenodd" clip-rule="evenodd" d="M176.551 62.9348C176.572 62.9398 176.59 62.9378 176.612 62.9338C176.735 62.9188 176.819 62.8008 176.805 62.6718L176.618 60.9548C176.606 60.8238 176.491 60.7308 176.371 60.7438C176.249 60.7608 176.16 60.8788 176.174 61.0078L176.362 62.7258C176.376 62.8328 176.455 62.9198 176.551 62.9348" fill="#FF5284"/>
<path fill-rule="evenodd" clip-rule="evenodd" d="M158.306 59.7061C158.356 59.7041 158.408 59.6851 158.452 59.6441L160.283 57.8911C160.373 57.8041 160.379 57.6541 160.294 57.5581C160.209 57.4591 160.067 57.4521 159.981 57.5381L158.142 59.2911C158.052 59.3761 158.05 59.5231 158.133 59.6251C158.18 59.6771 158.244 59.7091 158.306 59.7061" fill="#FF5284"/>
<path fill-rule="evenodd" clip-rule="evenodd" d="M160.26 61.1778C160.33 61.1748 160.402 61.1348 160.44 61.0668L161.597 59.0318C161.658 58.9238 161.623 58.7728 161.517 58.7088C161.411 58.6338 161.275 58.6688 161.211 58.7808L160.057 60.8158C159.995 60.9278 160.03 61.0738 160.136 61.1408C160.175 61.1648 160.217 61.1788 160.26 61.1778" fill="#FF5284"/>
<path fill-rule="evenodd" clip-rule="evenodd" d="M162.403 61.8018C162.504 61.7998 162.59 61.7288 162.612 61.6238L162.973 59.9478C162.999 59.8228 162.924 59.6948 162.803 59.6628C162.68 59.6298 162.564 59.7088 162.535 59.8328L162.176 61.5058C162.149 61.6348 162.225 61.7638 162.345 61.7948C162.366 61.7998 162.384 61.8018 162.403 61.8018" fill="#FF5284"/>
<path d="M159.213 40.7463C159.213 40.7463 164.275 32.5173 175.14 34.0423" stroke="white" stroke-width="2.132" stroke-linecap="round"/>
<path fill-rule="evenodd" clip-rule="evenodd" d="M169.412 81.1848C168.934 81.1848 168.5 80.8618 168.379 80.3778C168.236 79.8068 168.583 79.2278 169.153 79.0848C169.209 79.0708 174.661 77.6808 177.581 75.0158C178.016 74.6188 178.691 74.6488 179.087 75.0838C179.484 75.5188 179.453 76.1938 179.017 76.5898C175.697 79.6218 169.916 81.0918 169.671 81.1528C169.585 81.1738 169.497 81.1848 169.412 81.1848" fill="#75BAE1"/>
<path fill-rule="evenodd" clip-rule="evenodd" d="M181.074 74.3077C180.746 74.3077 180.423 74.1577 180.214 73.8707C179.865 73.3987 179.969 72.7307 180.442 72.3817C180.465 72.3657 182.745 70.6757 184.478 68.1557C184.812 67.6707 185.476 67.5477 185.96 67.8807C186.445 68.2147 186.568 68.8777 186.235 69.3637C184.29 72.1927 181.806 74.0257 181.703 74.1017C181.513 74.2417 181.293 74.3077 181.074 74.3077Z" fill="#75BAE1"/>
<path fill-rule="evenodd" clip-rule="evenodd" d="M162.912 83.3663C162.912 83.3663 163.06 83.4313 163.349 83.5603C163.637 83.6893 164.066 83.8953 164.632 84.0623C165.192 84.2613 165.909 84.3873 166.786 84.4863C167.665 84.5803 168.731 84.7793 169.828 85.2113C171.029 85.6353 172.091 86.6493 172.869 87.8783C173.656 89.1193 174.246 90.6003 174.532 92.2813C174.667 93.1243 174.733 94.0193 174.619 94.9763C174.587 95.2163 174.544 95.4603 174.485 95.7063L174.372 96.1013L174.268 96.4093C174.143 96.8063 173.968 97.2593 173.769 97.7113C172.982 99.4443 171.872 101.11 170.509 102.642C169.155 104.185 167.558 105.593 165.824 106.903C165.408 107.22 164.987 107.539 164.564 107.861C164.176 108.189 163.788 108.484 163.399 108.843C162.608 109.52 161.86 110.274 161.115 111.045C159.649 112.612 158.266 114.342 157.085 116.232C155.866 118.105 154.85 120.108 154.198 122.289C153.593 124.398 153.253 126.806 153.198 129.15C153.162 131.499 153.385 133.908 154.155 135.999C154.902 138.113 156.257 139.722 158.122 140.281C159.67 140.887 161.783 139.956 163.449 138.537C165.115 137.158 166.419 135.051 166.36 133.381C166.309 132.554 166.041 131.958 165.295 131.29C164.722 130.808 164.061 130.58 163.306 130.752C161.734 131.042 159.961 132.951 159.567 134.626L159.349 135.54C159.285 135.832 159.258 136.075 159.208 136.344C159.124 136.864 159.062 137.444 159.046 137.986C158.991 139.089 159.082 140.178 159.32 141.22C159.552 142.265 159.919 143.266 160.403 144.203C160.893 145.137 161.517 145.992 162.194 146.8C162.886 147.63 163.639 148.268 164.532 149.012C165.503 149.809 166.348 150.679 167.131 151.587C170.201 155.209 172.067 159.693 171.798 164.002C171.669 166.14 171.017 168.123 170.026 169.792C169.787 170.171 169.554 170.545 169.321 170.913C169.061 171.287 168.807 171.656 168.555 172.019C168.034 172.72 167.505 173.379 166.963 173.993C164.776 176.435 162.448 178.139 160.391 179.219C158.339 180.326 156.569 180.824 155.376 181.113C154.779 181.271 154.311 181.339 154 181.398C153.687 181.455 153.527 181.484 153.527 181.484C153.469 181.494 153.414 181.456 153.403 181.398C153.392 181.343 153.43 181.289 153.483 181.276C153.483 181.276 153.641 181.238 153.946 181.166C154.251 181.09 153.462 181.221 154.039 181.034C155.201 180.693 156.893 180.09 158.85 178.943C160.811 177.812 162.997 176.07 165.01 173.635C166.016 172.413 166.954 171.026 167.805 169.46C168.649 167.921 169.212 166.106 169.277 164.175C169.438 160.29 167.634 156.172 164.692 152.87C163.947 152.047 163.14 151.257 162.244 150.556C161.346 149.847 160.421 149.104 159.64 148.21C158.031 146.467 157.284 144.38 156.738 141.965C156.158 139.558 157.089 136.635 157.697 134.195C157.998 132.927 158.689 131.789 159.566 130.836C160.451 129.894 161.569 129.105 162.881 128.81C164.19 128.484 165.638 128.891 166.645 129.789C167.662 130.632 168.373 131.929 168.413 133.288C168.473 134.648 168.009 135.954 167.367 137.107C166.702 138.257 165.838 139.282 164.835 140.146C163.833 141.01 162.686 141.723 161.425 142.161C160.794 142.375 160.135 142.518 159.461 142.548C158.781 142.579 158.093 142.476 157.476 142.248C156.201 141.854 155.067 141.06 154.192 140.074C153.322 139.076 152.695 137.897 152.268 136.672C151.4 134.214 151.207 131.612 151.264 129.094C151.353 126.567 151.716 124.085 152.419 121.72C153.922 117.012 156.823 113.086 159.95 109.892C161.533 108.305 163.229 106.887 164.965 105.701C166.671 104.483 168.231 103.177 169.55 101.752C170.876 100.336 171.956 98.8013 172.727 97.2143C173.089 96.4183 173.461 95.6163 173.586 94.8083C173.718 93.9933 173.693 93.1773 173.6 92.3993C173.4 90.8443 172.903 89.4283 172.224 88.2573C171.546 87.0903 170.637 86.1603 169.598 85.7503C167.526 84.8383 165.655 84.9093 164.515 84.3593C163.929 84.1453 163.52 83.9193 163.241 83.7743C162.961 83.6313 162.816 83.5553 162.816 83.5553C162.763 83.5293 162.743 83.4663 162.769 83.4123C162.795 83.3623 162.86 83.3443 162.912 83.3663" fill="#2A4174"/>
<path fill-rule="evenodd" clip-rule="evenodd" d="M37.6749 56.3537C37.3379 55.5517 36.1769 54.2767 34.3389 51.9407H28.3259C28.3259 51.9407 28.6869 53.8327 28.9919 58.0007C29.0639 58.9627 29.1469 59.4857 29.3289 59.7297C31.6299 57.3637 34.5619 56.3867 37.6749 56.3537Z" fill="#6CADEF"/>
<path fill-rule="evenodd" clip-rule="evenodd" d="M29.3293 59.7296C29.7793 60.3346 30.8493 59.1946 33.9253 58.4306C37.0383 57.6576 38.1383 57.4556 37.6753 56.3536C34.5613 56.3866 31.6303 57.3636 29.3293 59.7296" fill="#2A4174"/>
<path fill-rule="evenodd" clip-rule="evenodd" d="M43.8379 18.841C42.8189 13.963 40.0969 9.65997 36.4689 6.49097C38.2989 19.869 34.8459 33.117 21.1519 43.928C19.7459 45.334 18.8199 47.675 18.6479 50.325C19.2589 50.714 19.6279 50.924 19.6279 50.924C19.6279 50.924 22.9169 53.343 29.2399 54.457C33.7569 55.252 37.099 50.153 37.896 48.596C37.896 48.596 47.4419 36.115 43.8379 18.841" fill="#6CADEF"/>
<path fill-rule="evenodd" clip-rule="evenodd" d="M36.469 6.49134C27.467 -1.36766 11.687 -2.61366 3.56397 12.3033C-7.44503 32.5243 13.903 47.3053 18.648 50.3253C18.821 47.6753 19.746 45.3343 21.153 43.9283C34.846 33.1173 38.299 19.8693 36.469 6.49134" fill="#75BAE1"/>
<path fill-rule="evenodd" clip-rule="evenodd" d="M10.4641 35.3419C10.3941 35.3619 10.3151 35.3479 10.2491 35.3039C10.1321 35.2219 10.1031 35.0579 10.1831 34.9399L11.8521 32.5389C11.9351 32.4209 12.0961 32.3929 12.2171 32.4719C12.3341 32.5569 12.3631 32.7189 12.2791 32.8369L10.6121 35.2379C10.5761 35.2919 10.5231 35.3279 10.4641 35.3419Z" fill="white"/>
<path fill-rule="evenodd" clip-rule="evenodd" d="M13.0345 36.3849C12.9865 36.3969 12.9345 36.3959 12.8865 36.3789C12.7495 36.3359 12.6755 36.1869 12.7195 36.0489L13.5475 33.5369C13.5945 33.3989 13.7405 33.3259 13.8785 33.3719C14.0135 33.4139 14.0905 33.5629 14.0445 33.6979L13.2165 36.2139C13.1865 36.3019 13.1175 36.3619 13.0345 36.3849Z" fill="white"/>
<path fill-rule="evenodd" clip-rule="evenodd" d="M15.6212 36.462C15.5982 36.468 15.5752 36.47 15.5512 36.469C15.4082 36.469 15.2932 36.349 15.2942 36.206L15.3032 34.302C15.3062 34.159 15.4242 34.042 15.5642 34.042C15.7092 34.044 15.8262 34.161 15.8252 34.306L15.8152 36.212C15.8152 36.328 15.7322 36.433 15.6212 36.462" fill="white"/>
<path fill-rule="evenodd" clip-rule="evenodd" d="M41.8733 27.1164C41.8143 27.1324 41.7513 27.1284 41.6943 27.0984L39.0623 25.8244C38.9323 25.7594 38.8793 25.6044 38.9423 25.4744C39.0053 25.3454 39.1623 25.2894 39.2933 25.3524L41.9213 26.6294C42.0513 26.6934 42.1063 26.8484 42.0433 26.9804C42.0083 27.0494 41.9443 27.0964 41.8733 27.1164" fill="white"/>
<path fill-rule="evenodd" clip-rule="evenodd" d="M40.1437 29.2854C40.0637 29.3054 39.9707 29.2864 39.9047 29.2244L37.9497 27.4394C37.8437 27.3434 37.8337 27.1774 37.9327 27.0714C38.0297 26.9654 38.1937 26.9574 38.3017 27.0544L40.2537 28.8384C40.3617 28.9374 40.3687 29.1014 40.2717 29.2074C40.2367 29.2484 40.1917 29.2734 40.1437 29.2854Z" fill="white"/>
<path fill-rule="evenodd" clip-rule="evenodd" d="M37.9279 30.6193C37.8149 30.6483 37.6959 30.6003 37.6369 30.4963L36.6929 28.8423C36.6219 28.7153 36.6629 28.5583 36.7889 28.4843C36.9149 28.4133 37.0759 28.4573 37.1469 28.5823L38.0889 30.2373C38.1579 30.3623 38.1169 30.5213 37.9909 30.5953C37.9709 30.6043 37.9499 30.6133 37.9279 30.6193" fill="white"/>
<path fill-rule="evenodd" clip-rule="evenodd" d="M16.34 28.3146C16.499 29.0476 16.106 29.6806 15.394 29.8346C14.665 29.9946 14.044 29.5596 13.861 28.7596C13.687 28.0116 14.124 27.2936 14.831 27.1546C15.5 27.0236 16.17 27.5386 16.34 28.3146" fill="black"/>
<path fill-rule="evenodd" clip-rule="evenodd" d="M34.7131 24.7198C34.0191 24.8968 33.2861 24.4078 33.0821 23.6318C32.8711 22.8378 33.3021 22.0278 34.0481 21.8148C34.7671 21.6128 35.4881 22.1438 35.6821 23.0198C35.8591 23.8118 35.4431 24.5338 34.7131 24.7198" fill="black"/>
<path fill-rule="evenodd" clip-rule="evenodd" d="M22.1145 32.5188C25.5625 33.3148 29.0375 31.5618 30.6785 29.7218C27.4485 29.4418 23.9275 30.4428 20.9985 31.9378C21.5595 32.3148 22.1145 32.5188 22.1145 32.5188Z" fill="#FF5284"/>
<path fill-rule="evenodd" clip-rule="evenodd" d="M31.1917 27.5344C30.7887 25.6604 29.5717 25.6854 28.8257 26.1794C28.1187 26.6444 28.2167 27.2824 25.5957 28.1444C23.0187 28.9914 21.5027 27.7504 20.2607 28.7724C19.2497 29.6064 20.1447 31.3654 20.9987 31.9374C23.9277 30.4424 27.4487 29.4414 30.6787 29.7224C31.2537 29.0784 31.3087 28.0824 31.1917 27.5344Z" fill="black"/>
<path d="M4.80769 29.086C4.80769 29.086 2.14269 19.995 8.94069 10.905" stroke="white" stroke-width="2.132" stroke-linecap="round"/>
<path d="M12.3284 7.68567C12.3284 7.68567 14.0474 5.73067 17.2454 4.66467" stroke="white" stroke-width="2.132" stroke-linecap="round"/>
<path fill-rule="evenodd" clip-rule="evenodd" d="M47.7667 179.649C45.6347 179.556 43.4707 179.39 41.3617 178.767C39.2737 178.121 37.2767 176.842 35.9367 175.026C35.2527 174.138 34.6837 173.168 34.2327 172.157C34.1187 171.892 34.0037 171.68 33.8877 171.371L33.6157 170.617C33.4657 170.083 33.2837 169.506 33.1817 168.978C32.7047 166.827 32.4607 164.657 32.3567 162.473C32.2557 160.29 32.3527 158.091 32.6837 155.882C32.8737 154.778 33.1007 153.67 33.5137 152.564C33.8857 151.459 34.4917 150.348 35.5147 149.362C35.7247 149.185 35.9007 149.015 36.1377 148.831C36.4447 148.629 36.7637 148.435 37.0857 148.254C37.4227 148.12 37.7677 148 38.1207 147.898C38.5017 147.861 38.8837 147.779 39.2757 147.823C39.6677 147.875 40.0697 147.913 40.4267 148.086C40.6067 148.161 40.7967 148.229 40.9647 148.323L41.4377 148.645C42.0577 149.093 42.4857 149.678 42.8457 150.277C44.1477 152.743 43.7967 155.599 42.4157 157.825C42.2497 158.065 42.1817 158.247 41.9367 158.534C41.7077 158.81 41.4697 159.084 41.2247 159.349C40.7247 159.793 40.2197 160.223 39.6317 160.535C38.4867 161.188 37.2077 161.553 35.9447 161.661C33.4107 161.849 30.9447 161.144 28.8557 159.822C27.7957 159.178 26.8677 158.31 26.0607 157.329C25.7277 156.89 25.3997 156.537 25.0617 156.028C24.7347 155.522 24.3677 155.015 24.0837 154.501C22.9127 152.473 22.1287 150.218 21.7397 147.931C20.9597 143.326 21.6407 138.753 22.7547 134.496C23.8847 130.215 25.5037 126.167 27.1597 122.197C28.8007 118.225 30.6637 114.382 32.0757 110.487C32.4287 109.516 32.7597 108.543 33.0257 107.573L33.1287 107.209C33.1427 107.187 33.1857 106.979 33.2127 106.874C33.2677 106.622 33.3467 106.336 33.3827 106.112C33.4677 105.668 33.5467 105.208 33.6017 104.711C33.8237 102.778 33.7987 100.776 33.3767 98.9456C32.9797 97.1136 32.1677 95.4436 30.9077 94.3946C30.6067 94.1116 30.2507 93.9076 29.8967 93.6986C29.8907 93.6636 29.4157 93.4596 29.3277 93.4326C29.1967 93.3806 28.9957 93.3226 28.7957 93.2656C27.9887 93.0656 27.0797 93.0076 26.1687 93.0816C25.2587 93.1556 24.3387 93.3476 23.5027 93.6606C22.6737 93.9576 21.8887 94.4226 21.5037 94.8736C21.3087 95.0976 21.2777 95.2476 21.2687 95.3156C21.2607 95.3546 21.2707 95.3986 21.2897 95.4726C21.3187 95.5136 21.3137 95.5506 21.3507 95.6036L21.3987 95.6816L21.4197 95.7216C21.4357 95.7466 21.3017 95.5686 21.3737 95.6636L21.4057 95.7026L21.6537 96.0156C21.6847 96.0286 21.7067 96.0466 21.7247 96.0746C21.8017 96.1346 21.9087 96.2186 22.0157 96.2666C22.2327 96.3746 22.5127 96.4336 22.8527 96.4296C23.5347 96.4266 24.3847 96.1316 25.1667 95.6936C25.9607 95.2596 26.7127 94.6646 27.3957 94.0026C28.7497 92.6666 29.8487 90.9966 30.3667 89.2136C30.5067 88.7696 30.5837 88.3176 30.6467 87.8676L30.6927 87.2526L30.6687 86.4516C30.6317 85.3906 30.6537 84.2786 30.4547 83.3496L30.2397 81.8886L29.8477 80.4146C29.6347 79.4196 29.1997 78.4686 28.8697 77.4936C28.0867 75.5616 27.1457 73.6646 26.2897 71.6766C25.8457 70.6986 25.4397 69.6926 25.0527 68.6756L24.7567 67.9186C24.7047 67.7786 24.6637 67.6956 24.6037 67.5086L24.4827 67.1276C24.3167 66.6456 24.1787 66.0346 24.0647 65.4836C23.6667 63.2676 23.7327 60.9516 24.5097 58.8146C25.2547 56.6936 26.9297 54.7836 29.1217 54.1236L29.1407 54.1166C29.1927 54.1006 29.2457 54.0986 29.2947 54.1066C29.4877 54.1376 29.7417 54.1496 29.9717 54.1426C30.2077 54.1546 30.4467 54.1046 30.6857 54.0886C30.9257 54.0636 31.1597 53.9996 31.3997 53.9556C31.6407 53.9196 31.8667 53.8226 32.1007 53.7546C32.5767 53.6296 33.0097 53.3926 33.4637 53.1986C33.6917 53.1006 33.8927 52.9536 34.1087 52.8336L34.7487 52.4516L34.7637 52.4436C34.8137 52.4146 34.8787 52.4306 34.9087 52.4806C34.9377 52.5296 34.9227 52.5926 34.8757 52.6246L34.2417 53.0396C34.0257 53.1716 33.8267 53.3306 33.5977 53.4406C33.1417 53.6586 32.7047 53.9216 32.2177 54.0736C31.9787 54.1546 31.7477 54.2646 31.4977 54.3146C31.2497 54.3716 31.0077 54.4496 30.7557 54.4876C30.2507 54.5656 29.7487 54.6266 29.2227 54.5686L29.2777 54.5636C27.2677 55.2606 25.7937 57.0296 25.1547 59.0306C24.4897 61.0396 24.4927 63.2316 24.9267 65.2946C26.0617 69.3826 28.3417 73.0786 30.0077 77.0136C30.3747 78.0216 30.8407 78.9936 31.0927 80.0426L31.5367 81.5906L31.8067 83.1856C32.0407 84.2476 32.0337 85.3156 32.0947 86.3806C32.2007 87.4356 32.0907 88.5696 31.8037 89.6016C31.2397 91.6996 30.0477 93.5856 28.5497 95.1326C27.7917 95.9016 26.9547 96.5996 26.0137 97.1446C25.0807 97.6866 24.0417 98.1186 22.9297 98.1716C21.8307 98.2556 20.6357 97.7626 20.0047 96.8396C19.6657 96.3826 19.4197 95.8356 19.4547 95.2446C19.4777 94.6606 19.7457 94.1176 20.1077 93.6956C20.8447 92.8456 21.8387 92.3196 22.8447 91.9296C23.8607 91.5436 24.9297 91.3126 26.0077 91.2146C27.0867 91.1206 28.1857 91.1706 29.2487 91.4236C30.3227 91.6896 31.3077 92.2106 32.1407 92.9226C33.8417 94.3246 34.8197 96.4126 35.2927 98.5026C35.7907 100.611 35.8277 102.798 35.6017 104.937C35.3837 107.102 34.7167 109.154 34.0147 111.177C32.5667 115.213 30.7737 119.098 29.1017 123.026C27.4307 126.95 25.8197 130.913 24.7037 135.023C23.5987 139.114 22.9547 143.418 23.6407 147.615C23.9807 149.702 24.6717 151.734 25.7187 153.573C26.2457 154.484 26.8367 155.354 27.5227 156.183C28.1827 156.991 28.9487 157.73 29.8467 158.279C31.6107 159.419 33.7317 160.018 35.8267 159.906C37.9017 159.765 39.9787 158.761 41.0547 156.928C42.1847 155.2 42.2427 153.736 41.2737 151.877C40.7957 150.968 40.2687 150.28 39.2507 150.193C39.0017 150.153 38.4097 150.181 38.1577 150.187L37.4297 150.426L36.7667 150.808C36.5547 150.963 36.3557 151.146 36.1497 151.314C35.4117 152.02 34.8357 152.933 34.4927 153.932C34.1037 154.914 33.8687 155.953 33.6667 156.994C33.3057 159.087 33.6407 159.623 33.6667 161.751C33.7837 165.958 34.1547 170.431 36.7047 173.912C37.9127 175.66 39.7347 176.903 41.7277 177.602C43.7407 178.29 46.7797 178.574 47.7857 179.437C47.8447 179.442 47.8877 179.494 47.8827 179.552C47.8777 179.61 47.8287 179.653 47.7717 179.649H47.7667Z" fill="#2A4174"/>
</g>
<defs>
<clipPath id="clip0_1_5544">
<rect width="194" height="182" fill="white"/>
</clipPath>
</defs>
</svg>
