<svg width="179" height="172" viewBox="0 0 179 172" fill="none" xmlns="http://www.w3.org/2000/svg">
<path d="M70.3201 149.59C60.6401 146.83 57.1901 137.66 52.7901 129.42C67.3601 123.21 70.7901 101.15 55.4401 94.35C46.9301 90.35 37.1501 94.85 29.6001 89.53C27.4701 87.84 26.3701 82.39 30.8401 81.6C31.9501 81.29 34.2001 83.03 33.4401 80.75C31.5041 79.5923 29.0135 80.0166 27.5701 81.75C19.2801 98.11 48.6701 92 55.4101 96.22C69.1001 102.91 64.4101 122.95 51.9101 127.81C28.5601 92.11 10.4801 143.89 51.1901 130.14C53.0501 136.54 67.0001 156 70.3201 149.59V149.59ZM40.1401 130.59C13.9401 128.17 37.4901 103.09 50.3101 128.49C47.0779 129.814 43.6318 130.539 40.1401 130.63V130.59Z" fill="#007E9D"/>
<path d="M36.8501 82.3901C33.0201 86.1801 29.8501 84.6501 29.8501 84.6501L31.4201 78.5601L36.8501 82.3901Z" fill="#009BCD"/>
<path d="M36.8501 82.39C33.0201 86.18 29.8501 84.65 29.8501 84.65C31.5289 82.5753 34.2751 81.6887 36.8501 82.39Z" fill="#007E9D"/>
<path d="M45.8401 60.4201C42.8714 68.1353 38.0169 74.9838 31.7201 80.3401C2.2701 77.1801 -11.2099 38.8501 11.3501 20.4401C38.1701 3.00006 57.3901 37.7901 45.8401 60.4201Z" fill="#009BCD"/>
<path d="M41.1901 23.12C7.37006 11.61 -2.25993 36.06 5.59007 63.83C-12.5499 34.56 17.2301 0.570021 41.1901 23.12V23.12Z" fill="#00BCE5"/>
<path d="M5.81014 44.2C17.8101 51.46 36.4901 27.92 24.8801 19.58C13.4001 13 -4.36986 36.58 5.81014 44.2V44.2Z" fill="#00BCE5"/>
<path d="M36.87 34.5C44.49 37.63 43.78 27.5 37.79 25.5C29.69 23.41 32 32.74 36.87 34.5Z" fill="#00BCE5"/>
<path d="M156.26 108.21C147.31 106.08 141.58 115.61 138.89 123.21C118.05 124.47 108.25 108.44 127.03 98.87C135.36 95.4 142.96 96.87 151.76 93.87C160.76 90.19 158.16 81.5 150.23 79.53C146.35 78.26 148.75 80.41 151.33 81.19C169.81 94.84 130.51 93.5999 125 97.8099C103.69 110.87 121.23 126.13 138.26 124.86C133.26 139.57 126.07 145.98 112.44 146.49C124.35 153.13 137.19 135.78 140.2 124.79C148.58 125.53 169.33 116.22 156.26 108.21V108.21ZM156.84 117.57C152.67 121.14 146.77 122.44 140.84 123.12C146.27 104.4 164 107.77 156.84 117.57Z" fill="#AC125B"/>
<path d="M151.13 83.66C146.13 85.75 143.82 83.15 143.82 83.15L147.55 78.1L151.13 83.66Z" fill="#FF458F"/>
<path d="M151.13 83.6601C146.13 85.7501 143.82 83.1501 143.82 83.1501C146.143 81.8597 149.009 82.0596 151.13 83.6601Z" fill="#AC125B"/>
<path d="M167.67 66.6301C162.036 72.684 154.974 77.2292 147.13 79.8501C120.98 65.8501 122.87 25.6101 150.3 16.7501C181.76 10.1201 187 49.8601 167.67 66.6301Z" fill="#FF458F"/>
<path d="M177.27 30.3C150.22 7.00003 132.16 26 129.05 54.77C123.14 21 163.35 0.30003 177.27 30.3V30.3Z" fill="#FF8DC3"/>
<path d="M136.58 36.65C144.58 47.32 168.58 34.35 164.4 22.74C158.53 8.84003 129.58 25.15 136.58 36.65Z" fill="#FF8DC3"/>
<path d="M169 39.24C173.19 43.79 177.49 38.5 174.91 33.49C169.64 25 163.39 33.53 169 39.24Z" fill="#FF8DC3"/>
<path d="M64.0901 0.209961L62.6801 22.71L55.6801 23.01L55.7401 11.15L52.6001 20.71H49.9001L47.4801 12.17V22.09L40.4001 22.31L40.7101 1.12996L48.5801 0.829961L51.6801 11L55.8501 0.209961H64.0901Z" fill="#003F59"/>
<path d="M84.2702 21.24L76.6702 22.24L75.7502 18.77H72.2602L71.4902 22.24L63.6802 21.47L69.7702 0.999985L78.2902 0.609985L84.2702 21.24ZM75.2002 14.07L74.0002 8.72999L72.9002 14.07H75.2002Z" fill="#003F59"/>
<path d="M104 0.61L96.6302 10.82L102.85 21.67L95.7402 22.92L91.0902 16.3L90.8402 23.23L84.4702 23.47L85.0002 0L92.1002 0.4L91.5502 7.32L96.3002 0L104 0.61Z" fill="#003F59"/>
<path d="M118.37 0.459961C118.28 1.73996 118.25 3.05996 118.01 6.15996L111.51 6.49996L111.36 8.42996H115.92L115.59 13.18L110.99 13.33L110.84 15.57H117.33C117.24 17.37 117.09 19.57 116.96 22.25L103.76 22.55L104.25 0.459961H118.37Z" fill="#003F59"/>
<path d="M144.35 21.2399L136.75 22.2399L135.83 18.7699H132.33L131.57 22.2399L123.75 21.4699L129.85 0.999946L138.37 0.569946L144.35 21.2399ZM135.27 14.0699L134.11 8.72995L133 14.0699H135.27Z" fill="#003F59"/>
<path d="M79.7001 31.61L74.6101 61.81L62.2301 62.07L59.5701 46.43L56.9101 60.94L44.5401 61.37L39.4001 31.61L50.2001 30.61L52.3801 48.7L55.3001 30.65H63.8001L67.2001 49L68.9401 30.7L79.7001 31.61Z" fill="#003F59"/>
<path d="M92.6701 31.17L90.2701 60.85L81.0801 61.33V31.78L92.6701 31.17Z" fill="#003F59"/>
<path d="M116.48 50.26C116.21 62.13 103.8 64.81 93.6501 59.32L94.6501 50.32C95.5001 52.1 111.65 54.61 104.71 49.46C102.17 49.1 98.5201 49.63 96.0101 46.8C87.9001 35.15 102.48 25.34 114.78 31.14L113.91 40C111.3 39.54 105.46 36.93 103.24 40.56C103.43 41.77 105.14 42.22 108.99 42.14C111.072 42.1881 113.046 43.0798 114.458 44.6108C115.87 46.1417 116.6 48.1806 116.48 50.26V50.26Z" fill="#003F59"/>
<path d="M143.72 61.85L132.82 62.37L132.74 52.31H127.74L127.43 61.85H117.67L118.5 31.22L128.87 31.7L128.21 47.34H133L133.05 30.52L142.98 30.78L143.72 61.85Z" fill="#003F59"/>
<path d="M43.49 113.36C45.31 109.83 55.2 111.59 56.33 112.76C58.39 106.89 64.42 107.35 66.83 110.76L55.83 118.23L43.49 113.36Z" fill="#EF6E00"/>
<path d="M140.48 113.33C138.65 109.79 128.76 111.56 127.63 112.72C125.63 106.85 119.54 107.31 117.13 110.72L128.13 118.19L140.48 113.33Z" fill="#EF6E00"/>
<path d="M132.9 114.34V122.34L92.6401 134.74L51.0601 120.22V114.34C68.0801 105.89 98.1001 100.19 132.9 114.34V114.34Z" fill="#BD401E"/>
<path d="M132.9 114.34V122.34L92.6401 134.74L51.0601 120.22V114.34C53.4575 113.091 55.9443 112.021 58.5001 111.14C79.6501 122.96 111.81 115.01 127.94 112.43C129.58 113.023 131.233 113.66 132.9 114.34V114.34Z" fill="#A92A09"/>
<path d="M140.48 113.36C130.02 123.92 119.01 163.27 118.88 163.36C108.75 168.36 91.98 171.71 91.98 171.71C91.98 171.71 75.21 168.34 65.09 163.36C64.68 162.58 54.21 124.48 43.49 113.36C43.49 113.36 51.04 111.36 54.49 118.08C54.49 118.08 61.89 112.69 65.49 120.5C65.49 120.5 70.77 114.57 75.15 122.5C75.15 122.5 82.29 116.88 85.62 125.36C89.02 118.53 95.79 121.06 98.23 125.3C101.55 116.81 108.69 122.5 108.69 122.5C113.07 114.5 118.36 120.5 118.36 120.5C121.99 112.69 129.36 118.08 129.36 118.08C132.92 111.34 140.48 113.36 140.48 113.36V113.36Z" fill="#FFC600"/>
<path d="M138.83 115.18C137.859 116.418 136.974 117.721 136.18 119.08C129.6 129.84 121.96 152.8 118.89 163.34C108.76 168.34 91.9901 171.69 91.9901 171.69C91.9901 171.69 75.2201 168.32 65.1001 163.34C65.1001 163.34 64.5601 161.48 63.6201 158.45C59.0001 144.69 54.0001 127.67 45.1301 115.18C48.7702 115.036 52.1531 117.051 53.7601 120.32C53.7601 120.32 61.3101 114.78 65.0101 122.81C65.0101 122.81 70.4001 116.72 74.8701 124.9C74.8701 124.9 82.1601 119.11 85.5501 127.84C89.2301 120.63 95.9601 123.56 98.4201 127.77C101.81 119.04 109.09 124.9 109.09 124.9C113.56 116.72 118.96 122.81 118.96 122.81C122.65 114.81 130.21 120.32 130.21 120.32C131.814 117.052 135.193 115.037 138.83 115.18V115.18Z" fill="#FFA000"/>
<path d="M136.17 119.08C129.59 129.91 122.17 152.19 118.88 163.34C108.75 168.34 91.9801 171.69 91.9801 171.69C91.9801 171.69 75.2101 168.32 65.0901 163.34C61.7001 152.14 56.1501 134.72 49.0901 121.4C55.0901 121.74 62.4801 149.4 64.6201 153.76C63.3801 150 54.2901 122.11 58.8701 121.89C63.6901 121.65 71.2901 155.52 71.5501 156.7C62.4201 102.78 73.8001 125.08 77.7501 157.21C74.7501 105.76 84.0501 125.46 85.3101 158.42C86.7901 113.14 97.3801 118.73 100.31 158.42C100.31 158.42 100.69 127.58 104.39 126.83C108.09 126.08 108 155.46 108 155.46C108 155.46 110.79 125.01 113.51 124.41C116.23 123.81 115.4 151.89 115.4 151.89C115.4 151.89 120.4 122.12 123.78 121.89C127.16 121.66 122.6 147.63 122.36 149C122.68 147.62 129 120.25 136.17 119.08Z" fill="#EF6E00"/>
<path d="M119.7 160.59C119.17 162.33 118.88 163.34 118.88 163.34C108.75 168.34 91.9802 171.69 91.9802 171.69C91.9802 171.69 75.2102 168.32 65.0902 163.34C65.0902 163.34 64.8602 162.52 64.4202 161.09C95.5702 173.53 95.5002 169.52 119.7 160.59V160.59Z" fill="#FFC600"/>
<path d="M121.71 117.23C102.19 121.85 66.1502 120.51 58.7902 116.16C49.7902 111.81 49.7902 101.92 57.0802 100.43C51.6902 89.2 67.7602 89.28 67.7602 89.28C65.5902 79.28 76.6902 81.75 76.6902 81.75C75.8302 70.64 88.3002 71.75 88.3002 71.75C88.5002 66.62 98.1102 68.62 97.7802 63.52C112.07 64 114 79.36 114 79.36C121.92 85.06 118.6 91.68 118.6 91.68C129.05 93.17 127.12 103.19 127.12 103.19C127.12 103.19 138.71 112.43 121.71 117.23V117.23Z" fill="#FFE0AA"/>
<path d="M112.36 78.71C105.76 78.45 96.57 75.59 90.54 74.05C96.06 77.48 105.57 80.88 112.36 78.71V78.71Z" fill="#FFC781"/>
<path d="M115.6 91.84C103.3 92.31 89.99 88.15 78.51 83.39C83.27 90.1 117.82 96 115.6 91.84Z" fill="#FFC781"/>
<path d="M123.79 103C102.64 103.13 85.0902 100 69.6902 91.74C83.6902 103 108.68 105.84 123.79 103V103Z" fill="#FFC781"/>
<path d="M121 117.43C119.022 117.932 117.02 118.329 115 118.62C97.3901 116.04 74.5901 110.89 60.8601 101.94C79.857 110.551 100.207 115.793 121 117.43V117.43Z" fill="#FFC781"/>
<path d="M60.7801 105.49C51.8501 101.55 52.5801 110.7 59.5801 113.6C65.3701 116.9 88.2301 120.77 85.5801 114.87C77.7501 111.81 68.6801 109.94 60.7801 105.49Z" fill="#FFEBD1"/>
<path d="M61.7101 95.16C58.7701 106.36 125.01 118.48 116.45 107.48C104.68 104.02 92.6401 104.83 80.8201 101.07C73.7801 100.14 64.9001 87.69 61.7101 95.16V95.16Z" fill="#FFEBD1"/>
<path d="M74.47 89.09C77.47 95.97 111.15 102.59 108.72 97.78C80.55 92.68 74.85 81.33 74.47 89.09Z" fill="#FFEBD1"/>
<path d="M83.9101 80.49C88.0301 84.64 96.1001 86.24 102.27 86.49C117.06 86.49 101.99 81.18 97.2701 79.49C93.0701 77.57 80.4101 71.22 83.9101 80.49Z" fill="#FFEBD1"/>
<path d="M101.7 70.07C89.4602 68.33 109.19 79.92 109.51 74.77C109.06 69.74 95.1602 62.22 101.7 70.07Z" fill="#FFEBD1"/>
<path d="M91.1201 55C85.6201 59.26 90.0001 69.72 97.3001 70C104.08 69.67 110.68 57.36 103 54C98.7901 55.89 95.7401 53.86 91.1201 55V55Z" fill="#D4052B"/>
<path d="M93.2301 55.7C84.7301 59.96 102.36 63.48 103.6 56.49C103.6 53.71 100.54 55.41 98.3801 57.33C96.7301 56.81 95.0001 55.59 93.2301 55.7Z" fill="#FF2137"/>
<path d="M98.3801 69C99.3801 68.91 104.06 66.28 102.72 65C99.0501 66.2 96.7901 67.73 92.1001 66.09C92.7201 68.18 95.4601 69.5 98.3801 69Z" fill="#B02100"/>
<path d="M101.75 41.18C101.81 41.11 100.75 40.04 100.75 41.06C95.16 44.25 94.53 51.72 97.45 57.51C93.59 54.22 93.92 61.57 99.1 59.98C101.2 59.32 100.62 54.56 97.64 57.6C95.64 51.89 95.12 45.2 101.04 41.6C101.35 42 102 41.64 101.75 41.18V41.18Z" fill="#B02100"/>
<path d="M61.5401 108C60.9301 107 56.8801 109.83 59.4001 110.76C60.0001 110.39 62.4601 109.77 61.5401 108Z" fill="#009BCD"/>
<path d="M116.37 109.47C115.07 107.33 110.66 107.01 115.37 110.67C115.699 110.79 116.068 110.69 116.292 110.421C116.516 110.153 116.547 109.772 116.37 109.47Z" fill="#009BCD"/>
<path d="M86.94 94C85.33 92 80.94 91.25 85.81 95.12C86.15 95.43 87.6 95.28 86.94 94Z" fill="#009BCD"/>
<path d="M89.19 79.1899C89.28 79.5299 86.41 79.7799 87.19 81.1899C88.2608 81.4434 89.3875 81.143 90.19 80.3899C90.48 79.9999 90.38 79.2199 89.19 79.1899Z" fill="#009BCD"/>
<path d="M112.52 85.24C112.11 83.5 107.96 81.85 111.44 86.07C111.8 86.36 112.5 86.27 112.52 85.24Z" fill="#009BCD"/>
<path d="M107.24 71.67C107.06 71.4781 106.799 71.3853 106.539 71.4211C106.278 71.4569 106.051 71.6168 105.93 71.85C104.66 72.28 104.93 74.85 106.82 72.85C107.24 72.72 107.44 72.57 107.24 71.67V71.67Z" fill="#009BCD"/>
<path d="M69.2502 98.73C68.1002 97.38 63.8102 97.0699 68.3902 100.2C69.0002 100.57 70.0002 99.83 69.2502 98.73Z" fill="#FF458F"/>
<path d="M86.14 116C85.32 115.77 83.36 114.72 83.52 116.63C84 117.91 87.92 117.88 86.14 116Z" fill="#FF458F"/>
<path d="M99.33 109C98.44 108.06 95.54 112.07 98.2 111.62C98.37 111.1 100.15 110.35 99.33 109Z" fill="#FF458F"/>
<path d="M116.3 97.22C116.13 97.7 113.48 97.75 114.3 99.41C115.29 100.56 119.27 97.3 116.3 97.22Z" fill="#FF458F"/>
<path d="M95.1 84.78C93.41 82.06 91.8 84.67 95.1 86.7C95.66 86.53 96.13 85.73 95.1 84.78Z" fill="#FF458F"/>
<path d="M100 72.45C99.75 71.57 96.76 73 98.73 73.85C98.78 73.7 100.2 73.68 100 72.45Z" fill="#FF458F"/>
<path d="M70.6001 112.5C69.0001 110.79 65.0001 114.22 70.4101 114C70.6901 113.75 70.9201 113.51 70.6001 112.5Z" fill="#FFAC00"/>
<path d="M86.1102 103.32C85.5202 103.21 79.2202 106.06 84.1102 105.69C85.2602 105.81 88.9302 104.21 86.1102 103.32Z" fill="#FFAC00"/>
<path d="M100.23 96.52C98.68 94.45 93.23 93.46 99.23 97.89C99.72 98.22 100.74 97.59 100.23 96.52Z" fill="#FFAC00"/>
<path d="M104.58 83.41C104.1 82.64 100.58 85.29 102.77 85.77C102.91 85.35 105.25 84.88 104.58 83.41Z" fill="#FFAC00"/>
<path d="M159.65 7.72994L156.05 9.36994L155.35 13.2599L152.69 10.3399L148.77 10.8899L150.72 7.44994L148.99 3.88994L152.87 4.67994L155.71 1.93994L156.16 5.86994L159.65 7.72994Z" fill="#FFC600"/>
<path d="M26.58 27.4699L22.98 29.1099L22.29 32.9999L19.62 30.0799L15.71 30.6299L17.66 27.1899L15.93 23.6299L19.8 24.4199L22.65 21.6799L23.09 25.6099L26.58 27.4699Z" fill="#FFC600"/>
<path d="M34.1001 6.79999L33.1501 9.21999L34.6001 11.37L32.0101 11.21L30.4101 13.26L29.7601 10.74L27.3101 9.84999L29.5101 8.45999L29.6001 5.85999L31.6001 7.50999L34.1001 6.79999Z" fill="#FFC600"/>
<path d="M159.57 26.9899L158.14 29.1399L159.1 31.5499L156.61 30.8499L154.62 32.5099L154.52 29.9199L152.32 28.5399L154.75 27.6399L155.38 25.1299L156.99 27.1599L159.57 26.9899Z" fill="#FFC600"/>
<path d="M32.8 102.41L31.64 104.15L32.42 106.08L30.41 105.52L28.81 106.86L28.72 104.77L26.96 103.66L28.91 102.94L29.42 100.92L30.72 102.55L32.8 102.41Z" fill="#FFC600"/>
<path d="M70.4799 72.7799L68.6999 72.9799L67.8599 74.5599L67.1199 72.9299L65.3599 72.6099L66.6699 71.4099L66.4299 69.6399L67.9899 70.5199L69.5899 69.7399L69.2399 71.4899L70.4799 72.7799Z" fill="#FFC600"/>
<path d="M150.72 102.59L148.94 102.8L148.1 104.37L147.36 102.74L145.6 102.43L146.92 101.22L146.67 99.45L148.23 100.33L149.84 99.55L149.48 101.31L150.72 102.59Z" fill="#FFC600"/>
<path d="M52.23 76.47L49.9 78.45L50.2 81.49L47.6 79.88L44.8 81.12L45.53 78.14L43.49 75.86L46.54 75.63L48.08 72.99L49.24 75.82L52.23 76.47Z" fill="#FFC600"/>
<path d="M133.81 76.47L131.48 78.45L131.78 81.49L129.18 79.88L126.38 81.12L127.1 78.14L125.07 75.86L128.12 75.63L129.66 72.99L130.82 75.82L133.81 76.47Z" fill="#FFC600"/>
</svg>
