<svg width="200" height="40" viewBox="0 0 200 40" fill="none" xmlns="http://www.w3.org/2000/svg">
<g clip-path="url(#clip0_1_6902)">
<path d="M7.34457 3.94861C4.93214 12.6115 -3.76843 23.5143 7.42366 21.2572C11.4576 26.3258 12.9773 24.9143 14.5423 20.2743C16.1299 16.1486 19.0282 8.61147 19.0621 8.55432L7.34457 3.94861Z" fill="#0EDBC7"/>
<path d="M7.86431 4.16004C2.36714 19.1429 13.5592 22.8172 13.5592 22.8172C11.9095 26.5315 8.97731 23.0286 7.41799 21.2572C0.677873 22.2343 0.999907 19.9143 2.95471 15.3372L7.34454 3.94861L7.86431 4.16004Z" fill="#0DB7A2"/>
<path opacity="0.9" d="M13.2597 11.8057C16.2089 8.47423 14.2654 14.7599 13.5591 16.2171C13.384 16.9199 13.2597 17.4514 13.175 17.7999C12.9151 18.5314 12.61 20.8114 11.0959 19.8057C10.8507 19.5957 10.74 19.2661 10.8077 18.9485C10.8981 17.4685 13.158 15.0914 10.1637 14.7371C8.70039 14.4399 9.384 19.4857 7.08457 18.4228C6.70604 18.4228 6.45745 17.4685 6.88683 16.7085C7.92073 14.7142 8.10717 10.4514 10.1241 9.22852C12.5478 9.66852 8.50265 13.0742 11.9377 13.6171C12.593 13.9085 13.0676 12.2914 13.2597 11.8057V11.8057Z" fill="white"/>
<path d="M21.4689 9.45715C19.678 18.2857 11.774 29.7829 22.7797 26.7086C27.1638 31.4686 28.5819 29.9543 29.8136 25.2057C31.096 20.9772 33.4463 13.2514 33.4633 13.2057L21.4689 9.45715Z" fill="#F7708E"/>
<path d="M21.9942 9.62287C17.5874 24.9714 29.0168 27.8172 29.0168 27.8172C27.6383 31.64 24.4575 28.3886 22.8021 26.7086C16.1185 28.1772 16.2767 25.84 17.8982 21.1429C19.2089 16.8343 21.4349 9.5143 21.4688 9.45715L21.9942 9.62287Z" fill="#EB3E51"/>
<path opacity="0.9" d="M28.8135 19.1885C28.8135 19.9485 27.9096 27.9143 25.6892 24.7143C26.2542 23 27.2994 16 24.1808 20.64C23.5311 22.2 24.0621 23.5714 22.7005 24.2514C17.9152 24.44 27.4576 7.67997 28.8135 19.1885V19.1885ZM27.1186 17.7143C27.1921 15.2571 23.0339 18.1828 27.0621 17.8457C27.0877 17.8052 27.1067 17.7608 27.1186 17.7143Z" fill="white"/>
<path d="M35.6384 13.6743C34.5424 22.5943 27.548 34.6972 38.2825 30.7715C43.017 35.1772 44.3108 33.5543 45.1752 28.7257C46.1356 24.4057 47.887 16.5143 47.904 16.4572L35.6384 13.6743Z" fill="#FF6B31"/>
<path d="M36.192 13.8C32.9717 29.4457 44.5875 31.3886 44.5875 31.3886C43.5027 35.3086 40.0677 32.2915 38.2824 30.7715C31.7513 32.76 31.7344 30.4115 32.9886 25.5886C33.966 21.2057 35.627 13.7315 35.6383 13.6743L36.192 13.8Z" fill="#DF591C"/>
<path opacity="0.9" d="M44.2881 23.1542C42.9378 24.6914 41.5254 24.2285 38.983 23.4285C38.4971 25.5371 38.8248 25.7142 38.3446 27.5428C37.3785 28.84 36.1525 27.1771 36.8361 25.3142C36.9152 24.6342 37.0169 23.9714 37.1468 23.3314C36.8643 16.4342 46.8926 18.2857 44.2881 23.1542ZM42.1073 21.7714C41.9265 18.4914 36.4915 22.0285 41.3615 22.4228L41.4858 22.3714C41.7841 22.2981 42.021 22.0694 42.1073 21.7714V21.7714Z" fill="white"/>
<path d="M49.9548 16.9429C49.3446 25.9143 43.0226 38.3886 53.5254 33.8686C58.4972 38 59.7006 36.3029 60.3051 31.44C61.0283 27.0743 62.3446 19.0972 62.3559 19.04L49.9548 16.9429Z" fill="#0EDBC7"/>
<path d="M50.5141 17.0343C48.1525 32.84 59.8531 34.1314 59.8531 34.1314C58.983 38.1314 55.4067 35.2743 53.5254 33.8686C47.1186 36.2114 46.9661 33.8686 47.9604 28.9943C48.6949 24.56 49.9435 16.9943 49.9548 16.9429L50.5141 17.0343Z" fill="#0DB7A2"/>
<path opacity="0.9" d="M59.5537 26.0915C58.2712 27.7029 56.8531 27.32 54.2373 26.6629C53.8701 28.7943 54.2373 28.9486 53.8249 30.8057C52.9322 32.16 51.6215 30.56 52.1978 28.6686C52.243 27.9829 52.3108 27.3143 52.4012 26.6686C51.774 19.7943 61.8644 21.08 59.5537 26.0915V26.0915ZM57.2938 24.8343C56.9322 21.5657 51.6949 25.4057 56.5876 25.5257C56.6279 25.5101 56.6659 25.4889 56.7006 25.4629C56.9974 25.3774 57.226 25.1375 57.2995 24.8343H57.2938Z" fill="white"/>
<path d="M64.3332 19.2285C64.1242 28.2171 58.3671 40.9714 68.6609 35.9999C73.8078 39.8971 74.9377 38.1485 75.3162 33.2571C75.8417 28.8685 76.8021 20.8399 76.8078 20.7771L64.3332 19.2285Z" fill="#FFDF56"/>
<path d="M64.8983 19.2971C63.2429 35.1942 74.9943 35.9485 74.9943 35.9485C74.2994 39.9485 70.5988 37.3028 68.661 35.9771C62.3615 38.6114 62.1073 36.2799 62.8813 31.3542C63.4124 26.8971 64.322 19.2914 64.3333 19.2285L64.8983 19.2971Z" fill="#FFC545"/>
<path opacity="0.9" d="M72.8813 30.3257C72.3807 30.7294 71.7232 30.8751 71.1016 30.72C71.0638 31.1398 71.0487 31.5614 71.0564 31.9828C71.0564 32.2685 71.0564 32.6285 71.0903 33.0571C70.3163 35.0571 68.8813 32.84 69.4632 30.56C66.0734 31.2457 67.2598 20.04 69.6553 25.0343C69.7909 25.6457 69.0338 28.0571 69.9321 28.9714C72.2937 29.7714 71.4123 26.9371 72.2711 24.6571C75.2993 22.5371 74.2541 28.8457 72.8813 30.3257V30.3257Z" fill="white"/>
<path d="M78.8192 20.9657C79.1526 29.9543 74.1582 43.0343 84.1356 37.4228C89.5085 40.9943 90.5311 39.1886 90.6215 34.28C90.8814 29.8628 91.3616 21.7943 91.3672 21.7086L78.8192 20.9657Z" fill="#F7708E"/>
<path d="M79.3899 21C78.6837 37 90.4577 37 90.4577 37C90.0057 41.0457 86.1526 38.6171 84.1356 37.4171C78.0057 40.4285 77.6159 38.12 78.0961 33.1542C78.3616 28.6685 78.8193 21.0228 78.8193 20.96L79.3899 21Z" fill="#EB3E51"/>
<path opacity="0.9" d="M86.9716 25.7143C89.5592 26.2858 89.2032 30.2286 85.8416 30.16C91.5535 31.0629 88.4405 37.68 83.3558 34.6115C81.8077 31.6458 81.384 23.9315 86.9716 25.7143V25.7143ZM85.0337 28.5715C87.7625 28.6629 85.4236 25.4058 84.2993 27.7829C84.3049 28.08 84.4236 28.44 85.0337 28.5715ZM84.1806 32.5715C84.0055 34.0972 88.4292 33.5258 85.7964 31.8343C85.5592 31.7429 84.384 31.4972 84.1806 32.5715Z" fill="white"/>
<path d="M93.2203 22.0228C93.9491 30.9885 89.548 44.2743 99.2655 38.2171C104.785 41.5485 105.729 39.6914 105.599 34.7885C105.667 30.36 105.791 22.2743 105.791 22.2171L93.2203 22.0228Z" fill="#FF6B31"/>
<path d="M93.7854 22.0286C93.7854 38.0286 105.554 37.5143 105.554 37.5143C105.283 41.5771 101.328 39.3314 99.2599 38.2171C93.2712 41.5086 92.7741 39.2171 93.0452 34.2171C93.113 29.72 93.226 22.0571 93.226 22L93.7854 22.0286Z" fill="#DF591C"/>
<path opacity="0.9" d="M102.356 27.2285C102.497 27.8285 102.215 29.1828 100.853 28.8171C100.853 29.9028 101 32.08 100.972 33.72C100.972 33.9314 101.006 34.0342 101.073 34.0114C104.904 34.44 100.446 37.3085 98.209 35.5542C97.7118 35.2628 97.644 33.3885 98.9943 33.7485L99.2542 33.8C99.2994 32.5542 99.2542 30.7085 99.2542 28.7885L98.1977 28.6342C95.9999 26.7371 100.864 25.1428 102.356 27.2285V27.2285Z" fill="white"/>
<path d="M107.678 22.04C108.808 30.7942 104.853 44.4514 114.401 37.9542C120.051 41.0457 120.927 39.1485 120.588 34.2571C120.469 29.8342 120.243 21.7485 120.243 21.6857L107.678 22.04Z" fill="#FFDF56"/>
<path d="M108.248 22.0228C108.932 37.9885 120.678 36.9828 120.678 36.9828C120.576 41.0571 116.537 38.9828 114.418 37.9543C108.898 41.3828 107.943 39.4114 108.039 34.6057C107.921 30.1828 107.7 22.1028 107.695 22.0343L108.248 22.0228Z" fill="#FFC545"/>
<path opacity="0.9" d="M114.836 26.0457C120.61 25.1772 120.531 31.44 114.418 30.7714C114.983 31.5829 116.113 32.6172 116.881 33.5657C118.192 34.6229 117.446 36.64 115.537 35.0343C115.186 34.8686 113.757 32.0857 113.474 31.5372C113.641 32.6114 113.735 33.6958 113.757 34.7829C113.966 35.5486 112.135 36.7029 112.124 34.7315C112.062 32.3086 111.096 28.8229 112.474 26.7314C112.825 26.4 113.616 26.1714 114.836 26.0457V26.0457ZM114.876 27.5829C113.401 27.5429 113.429 30.44 115.955 28.9943C116.203 28.4857 116.435 27.7257 114.876 27.5829Z" fill="white"/>
<path d="M122.175 21.4571C123.819 30.1314 120.684 43.9943 129.813 36.9486C135.644 39.6971 136.39 37.7486 135.774 32.8857C135.395 28.4743 134.7 20.4171 134.695 20.36L122.175 21.4571Z" fill="#F7708E"/>
<path d="M122.74 21.4114C124.356 37.3085 136.006 35.6057 136.006 35.6057C136.141 39.6742 131.983 37.8457 129.791 36.9485C124.48 40.6742 123.407 38.7885 123.226 33.9828C122.848 29.5771 122.158 21.5199 122.153 21.4571L122.74 21.4114Z" fill="#EB3E51"/>
<path opacity="0.9" d="M132.497 26.9257C131.843 27.2448 131.12 27.3922 130.395 27.3543C130.859 29.64 131.232 31.5143 131.469 33.28C131.469 33.9371 131.345 34.3428 131.028 34.5028C130.712 34.4514 131.152 34.8285 129.661 34.5428C128.588 33.3085 129.096 29.5828 128.531 27.5771C127.881 27.7492 127.206 27.8053 126.537 27.7428C126.328 27.6714 126.136 27.5587 125.972 27.4114C123.378 25.3371 136.04 23.4743 132.497 26.9257V26.9257Z" fill="white"/>
<path d="M136.678 20.3657C138.763 28.9372 136.345 42.9543 145.096 35.4343C151.062 37.8743 151.712 35.8914 150.842 31.0629C150.237 26.68 149.147 18.6743 149.147 18.6115L136.678 20.3657Z" fill="#0EDBC7"/>
<path d="M137.243 20.2858C139.667 36.0801 151.215 33.7715 151.215 33.7715C151.559 37.8286 147.311 36.2172 145.096 35.4343C139.819 39.5429 138.813 37.5086 138.345 32.4686C137.729 28.0172 136.684 20.4286 136.65 20.3658L137.243 20.2858Z" fill="#0DB7A2"/>
<path opacity="0.9" d="M145.412 24.7657C146.39 20.4057 147.712 26.8514 147.802 28.4743C147.989 29.1714 148.13 29.6971 148.232 30.0457C148.356 30.8114 149.186 32.9543 147.379 32.8171C147.062 32.7566 146.805 32.5232 146.712 32.2114C146.452 30.6457 145.898 26.4971 143.74 29.6228C143.644 30.2857 145.435 34.5028 142.61 33.4171C142.006 30.8571 140.87 27.2514 141.215 24.2743C142.288 22.9428 143.181 25.3657 143.294 26.9314C143.333 27.28 144.819 27.0857 145.158 26.9943C145.842 26.9314 145.48 25.2914 145.412 24.7657V24.7657Z" fill="white"/>
<path d="M151.192 18.3143C153.684 26.7771 151.921 40.8914 160.316 32.9657C165.893 34.9886 167.057 33.3371 165.904 28.6571L163.548 15.9657L151.192 18.3143Z" fill="#F7708E"/>
<path d="M151.757 18.2114C154.915 33.8686 166.345 31.0057 166.345 31.0057C166.91 34.9257 162.695 33.7086 160.316 32.9657C155.396 37.2 154.147 35.4286 153.492 30.68C152.684 26.3257 151.203 18.3829 151.192 18.32L151.757 18.2114Z" fill="#EB3E51"/>
<path opacity="0.9" d="M163.407 27.8172C160.147 35.0972 154.316 28.8572 155.633 22.5543C157.164 20.8686 160.717 20.5886 162.328 23.2057C162.347 23.2417 162.372 23.2745 162.401 23.3029C163.231 24.6495 163.585 26.2407 163.407 27.8172ZM158.265 23.8514C157.164 23.6629 157.017 29.2572 159.604 28.8572C162.316 28.52 161.61 23.3143 158.265 23.8514Z" fill="white"/>
<path d="M166.667 15.0972C169.859 23.4915 169.328 37.4972 176.966 28.92C182.695 30.4629 183.717 28.72 182.186 24.1543L178.796 11.7086L166.667 15.0972Z" fill="#FFDF56"/>
<path d="M167.186 14.9429C171.638 30.2857 182.785 26.4572 182.785 26.4572C183.701 30.3143 179.395 29.4572 176.938 28.92C172.107 33.7829 170.994 31.7257 169.859 26.8743C168.672 22.5429 166.655 15.1543 166.638 15.0972L167.186 14.9429Z" fill="#FFC545"/>
<path opacity="0.9" d="M177.362 19.9028C177.751 20.5543 181.243 27.7486 177.667 26.2628C177.249 24.4971 174.384 18.04 174.226 23.6514C174.514 25.32 175.695 26.1886 174.904 27.4971C171.04 30.2857 170.057 10.9543 177.362 19.9028ZM175.158 19.56C173.904 17.4571 171.966 22.1828 175.158 19.7086C175.158 19.6586 175.152 19.6088 175.141 19.56H175.158Z" fill="white"/>
<path d="M180.446 11.0685C184.124 19.2571 184.401 33.2685 191.542 24.2457C197.853 25.4914 198.119 23.4285 196.362 18.8571C194.943 14.6685 192.356 7.0171 192.339 6.95996L180.446 11.0685Z" fill="#FF6B31"/>
<path d="M180.983 10.8572C186.328 25.8972 197.232 21.4115 197.232 21.4115C198.362 25.3257 193.842 24.56 191.542 24.2229C187.023 29.3657 185.774 27.3772 184.356 22.6058C182.915 18.3543 180.463 11.1029 180.446 11.0457L180.983 10.8572Z" fill="#DF591C"/>
<path opacity="0.9" d="M191.785 17.7829C191.504 18.3676 190.973 18.789 190.345 18.9257C190.491 19.3143 190.661 19.6971 190.847 20.0686L191.345 21.0171C191.508 23.16 189.26 21.7943 188.802 19.4914C186.763 21.44 181.989 12.2743 186.361 14.0114C187.186 14.8457 187.079 17.16 188.542 17.8514C191.017 17.5314 189 15.3714 188.797 12.9371C190.503 9.71428 192.418 15.8229 191.785 17.7829Z" fill="white"/>
<path d="M199.435 4.32L194.813 6.41714L191.339 7.84571C156.689 21.3829 117.39 24.4171 80.1299 21.8171C68.2021 20.8957 56.3477 19.1776 44.644 16.6743C36.2887 14.8181 28.0546 12.4422 19.9886 9.56C18.435 8.96 16.5028 8.21143 14.5197 7.43429C11.4632 6.14857 7.81349 4.49143 4.47451 2.81143C3.84739 2.2 -1.05092 0.4 0.203322 0L4.69485 2.37143C7.62705 3.78857 11.1186 5.36 14.757 6.85714L20.2316 8.89714C28.2914 11.6807 36.5096 13.9705 44.8417 15.7543C56.5217 18.1591 68.3398 19.8176 80.2259 20.72C104.52 22.4857 129.78 21.5886 153.853 17.3314C165.035 15.4111 176.046 12.5829 186.78 8.87429C188.362 8.30286 189.836 7.81143 191.124 7.26857L194.593 5.89143C195.48 5.78286 200.028 2.85714 199.435 4.32V4.32Z" fill="#0DB7A2"/>
</g>
<defs>
<clipPath id="clip0_1_6902">
<rect width="200" height="40" fill="white"/>
</clipPath>
</defs>
</svg>
