<svg width="181" height="159" viewBox="0 0 181 159" fill="none" xmlns="http://www.w3.org/2000/svg">
<path d="M66.4799 97.09C33.7699 101.62 20.6899 84.26 20.6899 84.26C31.5799 71.38 46.6299 63.38 47.0899 63.13C57.4123 71.7621 64.293 83.8129 66.4799 97.09Z" fill="#FFAC00"/>
<path d="M64.1801 95.51C64.1801 95.51 49.0801 81.93 27.5701 83.91C27.5701 83.91 38.8901 97.87 64.1801 95.51Z" fill="#EF6E00"/>
<path d="M47.0899 63.13C29.8299 81.78 20.6899 84.26 20.6899 84.26C31.5799 71.38 46.6299 63.38 47.0899 63.13V63.13Z" fill="#FFC800"/>
<path d="M67 97.09C99.71 101.62 112.79 84.26 112.79 84.26C101.89 71.38 86.85 63.38 86.38 63.13C76.0585 71.7614 69.181 83.8131 67 97.09Z" fill="#FFAC00"/>
<path d="M69.3301 95.51C69.3301 95.51 84.4301 81.93 105.94 83.91C105.94 83.91 94.6201 97.87 69.3301 95.51Z" fill="#EF6E00"/>
<path d="M86.4199 63.13C103.68 81.78 112.83 84.26 112.83 84.26C101.93 71.38 86.8899 63.38 86.4199 63.13V63.13Z" fill="#FFC800"/>
<path d="M114.81 108V158.92H28.17C26.47 149.49 20.53 116.64 18.97 108H114.81Z" fill="#338974"/>
<path d="M80.5999 158.88H67.5799L62.1699 107.96H79.2199L80.5999 158.88Z" fill="#FFAC00"/>
<path d="M43.37 158.87H28.17L18.98 107.96H39.67L43.37 158.87Z" fill="#266157"/>
<path d="M37.0001 158.88H31.3301C30.9501 155.81 24.7701 105.18 24.5801 103.62L34.1301 102.62C34.1901 104 36.8401 156.07 37.0001 158.88V158.88Z" fill="#FFAC00"/>
<path opacity="0.249488" d="M114.81 107.96V115.23L40.67 121.74L21.34 121.07L18.97 107.96H114.81Z" fill="black"/>
<path d="M118.92 112.66L37.62 118.2L17.7 117.2L12.77 98.28L117.69 95.61L118.92 112.66Z" fill="#46AB8D"/>
<path d="M76.73 96.65V115.53L59.9 116.68L55.79 97.18L76.73 96.65Z" fill="#FFC800"/>
<path d="M37.62 118.2L17.7 117.2L12.77 98.28L34.71 97.72L37.62 118.2Z" fill="#338974"/>
<path d="M31.7 117.89L23.81 117.49L19.75 98.1L30 97.84L31.7 117.89Z" fill="#C18300"/>
<path d="M19.7499 98.1L12.1599 127.44L18.9699 124.77L23.0899 130.74L29.9999 97.84L19.7499 98.1Z" fill="#FFC800"/>
<path d="M90.1799 96.46L93.9699 129.39L100.95 122.61L106.7 128.67L103.73 96.04L90.1799 96.46Z" fill="#FFC800"/>
<path d="M117.48 112.42C117.48 112.42 129.38 115.06 145.13 97.9899L134.13 85.4399C134.13 85.4399 118.83 94.8599 117.48 112.42V112.42Z" fill="#FF458F"/>
<path d="M118.64 112C118.64 112 127.03 111.92 131.64 100.82C131.59 100.8 124.61 101.05 118.64 112V112Z" fill="#AC125B"/>
<path d="M134.11 85.4399C134.26 89.8999 142.69 98.3499 145.11 97.9899L134.11 85.4399Z" fill="#FF8DC3"/>
<path d="M117.47 112.42C117.47 112.42 105.57 115.06 89.8201 98L100.82 85.45C100.82 85.45 116.11 94.86 117.47 112.42Z" fill="#FF458F"/>
<path d="M116.3 112C116.3 112 107.92 111.92 103.3 100.82C103.35 100.8 110.34 101.05 116.3 112Z" fill="#AC125B"/>
<path d="M100.84 85.4399C100.69 89.8999 92.2501 98.3499 89.8401 97.9899L100.84 85.4399Z" fill="#FF8DC3"/>
<path d="M159.15 158.88H91.64C90.29 147.2 88.81 134.39 87.46 122.69L158.31 121.86C158.58 133.75 158.88 146.92 159.15 158.88Z" fill="#009BCD"/>
<path d="M158.72 139.72H89.43L88.74 133.81H158.58L158.72 139.72Z" fill="#00BCE5"/>
<path d="M158.94 149.39H90.5501L89.8601 143.49H158.8L158.94 149.39Z" fill="#00BCE5"/>
<path d="M123.21 158.88H113.13L109.51 122.43L122.47 122.28L123.21 158.88Z" fill="#FF458F"/>
<path opacity="0.249488" d="M158.48 129.06H88.2L87.46 122.69L158.31 121.86L158.48 129.06Z" fill="black"/>
<path d="M161.16 111.13V125.88L84.6101 126.88L83.6101 113.14L161.16 111.13Z" fill="#009BCD"/>
<path d="M125.89 112.05L124.57 126.36L114.06 126.5L113.01 112.38L125.89 112.05Z" fill="#FF458F"/>
<path d="M85.6999 124.29L84.6899 113.98L110.16 113.31L86.9499 116.5L85.6999 124.29Z" fill="#00BCE5"/>
<path d="M117.37 112.32C111.99 109.98 104.71 114.56 102.05 119.24C98.0499 114.61 87.0499 119.4 90.4699 124.36C91.4699 119.36 97.4699 118.59 100.83 122.11C96.5499 138.44 113.36 133.49 103.38 120.76C105.13 114.75 112.6 113.51 117.37 112.32V112.32ZM103.31 127.05C103.53 130.93 101.31 127.32 102.31 124.28C102.754 125.159 103.09 126.09 103.31 127.05Z" fill="#FF458F"/>
<path d="M138.42 114C137.146 114.584 136.116 115.596 135.51 116.86C132.36 112.72 121.24 108.44 117.98 112.94C124.35 113 131.27 113.63 134.98 119.03C137.92 135.03 143.45 127.03 136.36 117.91C143.92 108.45 145.89 122.55 149.83 123.32C150.85 118.34 143.59 111.24 138.42 114ZM136.23 120.87C136.798 121.861 137.257 122.911 137.6 124C136.979 123.022 136.517 121.952 136.23 120.83V120.87Z" fill="#FF458F"/>
<path d="M42.8099 1.62L41.3799 19.24L35.9299 19.53V2L42.8099 1.62Z" fill="#003F59"/>
<path d="M57.3701 1.33997L57.2401 6.81997L53.3901 6.99997L52.3901 19.26L47.0001 19.53V7.25997L43.1501 7.46997L43.3001 1.36997L57.3701 1.33997Z" fill="#003F59"/>
<path d="M63.3701 3.50999C63.0817 5.72269 61.7557 7.66532 59.8001 8.73999C59.8001 8.04999 59.8001 7.67999 59.6701 5.96999C55.0701 4.51999 60.9701 -3.61001 63.3701 3.43999V3.50999Z" fill="#003F59"/>
<path d="M77.4101 13C77.2901 19.55 70.2501 21.91 63.8501 18.38L64.4201 13C64.5001 14.25 75.5601 15.15 69.7901 12.4C68.7737 12.4425 67.7578 12.3036 66.7901 11.99C59.7901 7.50998 66.3401 -2.85002 76.3701 1.60998L75.8801 6.86998C75.7601 6.12998 65.8801 5.64998 70.9701 8.06998C71.2501 8.06998 71.8601 8.06998 72.9701 8.12998C74.2123 8.16544 75.3867 8.70413 76.2239 9.62244C77.0612 10.5407 77.4893 11.7598 77.4101 13Z" fill="#003F59"/>
<path d="M100 2.32004L92.9001 12.26L92.5701 20.35H86.4401L86.5901 12.35L82.8901 2.75004L89.4901 1.92004L90.4901 7.51004L93.7801 1.92004L100 2.32004Z" fill="#003F59"/>
<path d="M113.75 10.7C114.35 21.48 95.6099 23.24 97.5999 8.83998C98.9299 0.629983 113.73 -0.320018 113.75 10.7ZM108 11C107.74 3.49998 97.32 13.08 106.48 13.69C106.7 13.34 107.72 13.62 108 11Z" fill="#003F59"/>
<path d="M130.13 5.44996C130.8 24.6 110.34 27.45 115.13 2.24996L121.19 2.47996C117.9 14.6 124.44 24.39 123.93 1.82996H129.93C130.08 2.99996 130.13 4.22996 130.13 5.44996Z" fill="#003F59"/>
<path d="M146.32 7.36995C146.462 9.71699 145.245 11.9374 143.19 13.0799L146.27 18.5699L140.45 19.7099L138.45 14.1999L136.84 14.2499L136.61 19.6299H131.05C131.19 14.0199 131.23 8.76995 131.46 1.98995C135.68 0.379949 146.05 -0.650051 146.32 7.36995V7.36995ZM140.53 7.77995C140.564 6.96112 140.181 6.18071 139.513 5.70627C138.845 5.23183 137.982 5.12784 137.22 5.42995L137 10.2399C137.82 9.99995 140.17 10.5599 140.53 7.77995V7.77995Z" fill="#003F59"/>
<path d="M34.3101 46.3C34.2 53.48 21.73 54.19 14.55 51.13V29.2C20.88 24.43 42.88 30.39 29.43 40.13C32.2987 40.7937 34.3251 43.3557 34.3101 46.3ZM23.24 42.14C22.9209 42.142 22.6027 42.1755 22.29 42.24L22.22 46.13C24.42 47.48 28.25 42.89 23.24 42.14ZM25.66 36.59C25.5777 35.8583 25.1181 35.2232 24.4488 34.9162C23.7795 34.6092 22.9984 34.6752 22.39 35.09L22.29 38.87C22.81 38.8 25.54 39 25.66 36.59Z" fill="#003F59"/>
<path d="M44.4001 28.38L42.5301 51.58L35.3501 52V28.86L44.4001 28.38Z" fill="#003F59"/>
<path d="M65.5399 35.94C65.4899 38.35 65.0299 41.32 61.4199 43.47L65.4199 50.69L57.7599 52.19L55.1299 44.93L53.0699 45L52.7699 52.09H45.4399C45.6299 44.75 45.6999 37.09 45.9899 28.86C51.6799 26.71 65.2299 25.46 65.5399 35.94V35.94ZM57.9099 36.49C58.1299 35.1 56.2699 32.3 53.5499 33.39L53.2799 39.72C54.4699 39.75 57.9999 39.32 57.9099 36.49Z" fill="#003F59"/>
<path d="M84.7102 28L84.5402 35.22L79.4702 35.42L78.1702 51.57L71.0002 52V35.86L65.9202 36.13L66.1302 28.13L84.7102 28Z" fill="#003F59"/>
<path d="M105.86 52.36L97.34 52.77L97.28 44.9H93.36L93.12 52.36H85.49L86.14 28.42L94.25 28.79L93.73 41H97.51V27.85L105.27 28.06L105.86 52.36Z" fill="#003F59"/>
<path d="M126.77 38.84C127.12 48.66 117.13 53.37 107.36 52.05L107.83 29.2C115 26.63 127.08 28.08 126.77 38.84ZM119.77 39.93C119.77 38.14 119.08 35.26 115.85 35.16L115.17 45.72C117.821 45.187 119.738 42.8736 119.77 40.17V39.93Z" fill="#003F59"/>
<path d="M148.41 50.89L140 52L139 48.16H135.12L134.21 52L125.53 51.15L132.3 28.47L141.77 27.99L148.41 50.89ZM138.33 42.89L137 37L135.74 42.92L138.33 42.89Z" fill="#003F59"/>
<path d="M168.54 29.3L159.17 42.38L158.73 53H150.66L150.86 42.41L146 29.81L154.69 28.72L156 36.08L160.32 28.72L168.54 29.3Z" fill="#003F59"/>
<path d="M170.62 6.71L166.44 8.66L165.67 13.21L162.52 9.84L157.96 10.52L160.2 6.48L158.14 2.35L162.67 3.23L165.96 0L166.53 4.58L170.62 6.71Z" fill="#FF458F"/>
<path d="M24.8999 7.75998L22.5499 6.79998L20.4299 8.19998L20.6099 5.66998L18.6299 4.08998L21.0899 3.47998L21.9799 1.09998L23.3199 3.24998L25.8599 3.36998L24.2299 5.30998L24.8999 7.75998Z" fill="#FF458F"/>
<path d="M66.8301 67.5L64.4801 66.55L62.3601 67.94L62.5501 65.41L60.5601 63.83L63.0201 63.22L63.9201 60.84L65.2601 63L67.7901 63.11L66.1601 65.06L66.8301 67.5Z" fill="#FF458F"/>
<path d="M16.98 14.58L13.01 16.43L12.28 20.76L9.28996 17.55L4.95996 18.2L7.07996 14.36L5.12996 10.44L9.42996 11.27L12.56 8.19995L13.09 12.55L16.98 14.58Z" fill="#FF458F"/>
<path d="M165.83 71.68C165.29 74.52 163.93 77.68 161.51 79.26C158.86 72.6 148.66 76.66 144.77 71.05C145.269 70.7503 145.747 70.4162 146.2 70.05C152.15 71.37 159.64 65.94 165.83 71.68Z" fill="#00DFB3"/>
<path d="M162.88 69.93L160 77.4C159.425 76.8293 158.784 76.3291 158.09 75.91L160.65 69.2C161.411 69.3875 162.156 69.6315 162.88 69.93V69.93Z" fill="#37F8CB"/>
<path d="M158.86 68.87L156.49 75.09C154.633 74.4944 152.69 74.2105 150.74 74.25L152.43 69.79C154.25 69.39 155.67 68.59 158.86 68.87Z" fill="#37F8CB"/>
<path d="M114.22 62.53C113 64.44 112 67 112.51 69.2C117.65 66.9 120.99 74.63 126.51 73.72C126.396 73.2666 126.316 72.8053 126.27 72.34C121.9 69.75 121.35 62.92 114.22 62.53V62.53Z" fill="#009BCD"/>
<path d="M116.85 63.15L114.37 69C115.012 68.9917 115.653 69.0589 116.28 69.2L118.5 64C117.973 63.6743 117.421 63.3901 116.85 63.15V63.15Z" fill="#00BCE5"/>
<path d="M119.72 64.76L117.65 69.59C119.029 70.2733 120.288 71.175 121.38 72.26L122.86 68.8C122.091 67.2586 121.024 65.8854 119.72 64.76V64.76Z" fill="#00BCE5"/>
<path d="M25.3901 62.89C25.1285 64.8095 24.1363 66.5541 22.6201 67.76C20.8801 63.47 14.9301 66.21 11.8601 62.48C12.1828 62.2796 12.4903 62.0556 12.7801 61.81C16.6301 62.83 20.8401 59 25.3901 62.89Z" fill="#00DFB3"/>
<path d="M23.4999 61.76L21.6699 66.57C21.3001 66.1901 20.8874 65.8545 20.4399 65.57L22.0799 61.27C22.5656 61.3953 23.0404 61.5591 23.4999 61.76Z" fill="#37F8CB"/>
<path d="M20.9099 61.08L19.3899 65.08C18.1953 64.695 16.9448 64.5125 15.6899 64.54L16.7899 61.67C18.1147 61.2192 19.5119 61.0192 20.9099 61.08V61.08Z" fill="#37F8CB"/>
<path d="M157.69 99.17C159.21 101.17 161.49 103.17 163.99 103.44C163.57 97.13 172.93 96.58 173.99 90.56C173.477 90.514 172.969 90.4271 172.47 90.3C168.29 93.66 160.34 92.29 157.69 99.17Z" fill="#C692F1"/>
<path d="M159.33 96.66L164.44 101.42C164.671 100.75 164.98 100.109 165.36 99.51L160.78 95.25C160.261 95.6813 159.776 96.1528 159.33 96.66Z" fill="#E1C0FF"/>
<path d="M162.07 94.2799L166.33 98.2799C167.557 97.1006 168.969 96.131 170.51 95.41L167.51 92.5699C166 92.8899 164.29 92.9099 162.07 94.2799V94.2799Z" fill="#E1C0FF"/>
<path d="M2.40011 97.6899C4.28256 97.8228 6.04287 98.6707 7.32011 100.06C3.27011 102.06 6.32011 107.65 2.91011 110.89C2.7031 110.571 2.46529 110.273 2.20011 110C2.93011 106.23 -0.999892 102.39 2.40011 97.6899V97.6899Z" fill="#FF458F"/>
<path d="M1.43007 99.61L6.23007 101.07C5.89404 101.454 5.60531 101.877 5.37007 102.33L1.07007 101C1.15904 100.529 1.27931 100.065 1.43007 99.61V99.61Z" fill="#FF8DC3"/>
<path d="M0.939941 102.17L4.93994 103.39C4.6486 104.57 4.55066 105.789 4.64994 107L1.79994 106.13C1.2669 104.876 0.975139 103.532 0.939941 102.17V102.17Z" fill="#FF8DC3"/>
<path d="M169.45 50C171.345 50.066 173.139 50.8699 174.45 52.24C170.45 54.32 173.66 59.85 170.32 63.17C170.101 62.873 169.857 62.5953 169.59 62.34C170.2 58.47 166.13 54.73 169.45 50V50Z" fill="#FF458F"/>
<path d="M168.54 51.9L173.37 53.24C173.045 53.6278 172.77 54.0544 172.55 54.51L168.21 53.31C168.288 52.8331 168.398 52.362 168.54 51.9V51.9Z" fill="#FF8DC3"/>
<path d="M168.11 54.47L172.11 55.58C171.847 56.7746 171.783 58.0044 171.92 59.22L169.05 58.42C168.489 57.1748 168.17 55.8343 168.11 54.47Z" fill="#FF8DC3"/>
<path d="M6.43 69.77C3.91 70.53 1.21 72.08 0 74.42C6.29 76.16 3.62 85.78 9.08 88.75C9.30902 88.266 9.57655 87.8012 9.88 87.36C8.06 82.1 12.23 74.8 6.43 69.77V69.77Z" fill="#009BCD"/>
<path d="M8.30007 72.26L1.82007 75.58C2.39466 76.0395 2.91172 76.5667 3.36007 77.15L9.18007 74.15C8.93212 73.4999 8.63803 72.8683 8.30007 72.26V72.26Z" fill="#00BCE5"/>
<path d="M9.66002 75.79L4.27002 78.55C4.98813 80.1727 5.4341 81.9025 5.59002 83.67L9.46002 81.67C9.64002 80.1 10.21 78.45 9.66002 75.79V75.79Z" fill="#00BCE5"/>
<path d="M178.85 73C176.09 73 176.09 77.28 178.85 77.28C181.61 77.28 181.6 73 178.85 73Z" fill="#FFAC00"/>
<path d="M3.04998 39.65C0.28998 39.65 0.28998 43.93 3.04998 43.93C5.80998 43.93 5.80998 39.65 3.04998 39.65Z" fill="#FFAC00"/>
<path d="M15.6899 143.48C12.9399 143.48 12.9399 147.76 15.6899 147.76C18.4399 147.76 18.4499 143.48 15.6899 143.48Z" fill="#FFAC00"/>
<path d="M177.16 39.25C176.459 39.25 175.89 39.8186 175.89 40.52C175.89 41.2214 176.459 41.79 177.16 41.79C177.862 41.79 178.43 41.2214 178.43 40.52C178.43 39.8186 177.862 39.25 177.16 39.25Z" fill="#FFAC00"/>
<path d="M138.83 61.86C138.175 61.9183 137.673 62.4672 137.673 63.125C137.673 63.7828 138.175 64.3317 138.83 64.39C139.485 64.3317 139.987 63.7828 139.987 63.125C139.987 62.4672 139.485 61.9183 138.83 61.86Z" fill="#FFAC00"/>
<path d="M1.82001 55.58C1.16483 55.6383 0.662598 56.1872 0.662598 56.845C0.662598 57.5027 1.16483 58.0516 1.82001 58.11C2.4752 58.0516 2.97743 57.5027 2.97743 56.845C2.97743 56.1872 2.4752 55.6383 1.82001 55.58Z" fill="#FFAC00"/>
<path d="M2.93012 125.62C2.27494 125.678 1.77271 126.227 1.77271 126.885C1.77271 127.543 2.27494 128.092 2.93012 128.15C3.5853 128.092 4.08754 127.543 4.08754 126.885C4.08754 126.227 3.5853 125.678 2.93012 125.62V125.62Z" fill="#FFAC00"/>
<path d="M151.27 85.4399C150.615 85.4983 150.113 86.0472 150.113 86.7049C150.113 87.3627 150.615 87.9116 151.27 87.9699C151.925 87.9116 152.427 87.3627 152.427 86.7049C152.427 86.0472 151.925 85.4983 151.27 85.4399Z" fill="#FFAC00"/>
</svg>
