<svg width="159" height="160" viewBox="0 0 159 160" fill="none" xmlns="http://www.w3.org/2000/svg">
<path fill-rule="evenodd" clip-rule="evenodd" d="M10.3799 46.4911C12.2849 10.1621 62.6999 12.1171 63.7229 46.4911C61.8179 82.8201 11.4039 80.8651 10.3799 46.4911V46.4911Z" fill="#FCE8F1"/>
<path fill-rule="evenodd" clip-rule="evenodd" d="M48.1643 7.11902C48.5613 -1.79498 61.1953 -1.36998 61.5003 7.11902C61.1043 16.033 48.4703 15.607 48.1643 7.11902Z" fill="#EBF4FB"/>
<path fill-rule="evenodd" clip-rule="evenodd" d="M96.1101 30.2978C97.8201 0.211773 139.167 2.31877 139.927 30.2978C138.217 60.3838 96.8691 58.2768 96.1101 30.2978V30.2978Z" fill="#EBF4FB"/>
<path fill-rule="evenodd" clip-rule="evenodd" d="M81.5039 71.2577C82.6339 52.3707 108.404 54.0547 108.811 71.2577C107.68 90.1447 81.9109 88.4607 81.5039 71.2577Z" fill="#FCE8F1"/>
<path fill-rule="evenodd" clip-rule="evenodd" d="M158.978 104.279C156.963 141.153 106.023 138.981 105 104.279C107.015 67.4051 157.956 69.5771 158.978 104.279Z" fill="#EBF4FB"/>
<path fill-rule="evenodd" clip-rule="evenodd" d="M0.537598 91.8963C1.6466 73.8433 26.1946 75.5443 26.5736 91.8963C25.4646 109.949 0.915598 108.248 0.537598 91.8963V91.8963Z" fill="#EBF4FB"/>
<path fill-rule="evenodd" clip-rule="evenodd" d="M16.0959 127.141C18.3179 84.0175 78.3039 86.0465 79.5989 127.141C77.3759 170.264 17.3909 168.235 16.0959 127.141V127.141Z" fill="#FCE8F1"/>
<path fill-rule="evenodd" clip-rule="evenodd" d="M87.855 142.381C89.005 122.661 115.996 124.327 116.431 142.382C115.28 162.102 88.288 160.436 87.855 142.381Z" fill="#EBF4FB"/>
<path fill-rule="evenodd" clip-rule="evenodd" d="M62.7316 58.6831C63.0446 58.7841 63.7326 58.8341 64.8326 58.8231C65.6236 57.4191 63.1766 50.5911 65.4656 49.6521C65.5296 49.6741 65.5866 49.7121 65.9276 49.8611C66.0346 51.7441 66.8936 79.8701 64.7756 63.9711C64.7686 63.8931 64.8016 61.8861 64.8096 60.9931L64.8436 60.1731L64.7086 59.9081V59.8801C64.5806 59.9181 64.4406 59.9351 64.2906 59.9351L62.8006 59.6721V62.9411L62.9346 67.6311C61.0776 71.6481 61.5166 60.4551 61.5016 58.9621V58.8231C61.5606 57.8301 61.5916 57.2731 61.5916 57.1531L61.4326 50.7231C61.4306 49.8501 62.8686 49.3051 62.8226 51.5731L62.7316 58.6831Z" fill="#F17596"/>
<path fill-rule="evenodd" clip-rule="evenodd" d="M71.0661 52.9495C70.3651 57.7285 69.9141 61.0955 69.7111 63.0525C69.9741 63.2665 70.6551 63.4195 71.7551 63.5125C71.6881 61.0945 71.4091 56.4505 71.0661 52.9495ZM73.2111 64.6955C72.9431 65.3735 74.2851 67.4205 73.2681 68.9945C71.7821 68.9655 72.3851 67.0505 71.9011 64.5285L69.6201 64.1105C69.2891 64.4155 69.4581 70.9325 67.5881 68.1175C68.9781 62.3685 69.5531 55.5835 70.4561 49.6245C73.2461 48.7025 72.3811 61.0845 72.9631 62.9415L73.2111 64.6955Z" fill="#F17596"/>
<path fill-rule="evenodd" clip-rule="evenodd" d="M76.2269 53.2147C76.2259 53.1807 76.2729 58.7897 76.2719 58.8087C76.9879 59.2517 79.1229 52.5587 76.4749 51.6427C76.4749 51.6137 76.3919 51.6007 76.2269 51.6007V53.2147ZM74.9279 51.0577C78.0369 46.3277 81.7519 58.2287 76.2609 59.9907V63.0387L76.4419 68.4387C76.3379 68.5527 76.5829 68.9907 75.6629 69.2737L75.1759 68.9247C74.9889 67.8767 74.8939 66.4817 74.8939 64.7357L74.9849 59.6567C74.9079 59.3987 74.9569 59.6727 74.8489 58.8637C74.9989 58.4927 75.0749 57.6767 75.0749 56.4147C75.0799 54.6227 75.2059 52.9167 74.9279 51.0577Z" fill="#F17596"/>
<path fill-rule="evenodd" clip-rule="evenodd" d="M81.681 53.2147C81.68 53.1807 81.727 58.7897 81.726 58.8087C82.442 59.2517 84.577 52.5587 81.929 51.6427C81.929 51.6137 81.846 51.6007 81.681 51.6007V53.2147ZM80.382 51.0577C83.491 46.3277 87.206 58.2287 81.715 59.9907V63.0387L81.896 68.4387C81.792 68.5527 82.037 68.9907 81.117 69.2737L80.63 68.9247C80.443 67.8767 80.348 66.4817 80.348 64.7357L80.439 59.6567C80.362 59.3987 80.411 59.6727 80.303 58.8637C80.453 58.4927 80.529 57.6767 80.529 56.4147C80.534 54.6227 80.66 52.9167 80.382 51.0577Z" fill="#F17596"/>
<path fill-rule="evenodd" clip-rule="evenodd" d="M87.4627 68.4938C87.8187 67.1628 87.7707 62.7868 87.4517 59.4908V58.7528C87.0667 57.4978 84.9207 51.0998 85.1927 50.6538L85.7127 50.1818C86.0147 49.4878 87.6577 54.9618 87.8357 56.5258C91.8697 37.7498 88.1997 63.6658 88.8627 67.2138C88.7907 68.0828 88.5437 70.1758 87.4627 68.4938Z" fill="#F17596"/>
<path fill-rule="evenodd" clip-rule="evenodd" d="M41.6819 84.5037C44.2059 85.1137 44.0959 72.8637 42.1099 72.9567C41.8249 73.7197 41.6819 75.3317 41.6819 77.7957V84.5037ZM41.4499 97.1937L41.4859 97.4137V99.4377C44.6259 98.4627 45.1159 89.7377 41.7359 87.1427C41.6279 89.0777 41.5749 91.3517 41.5749 93.9607L41.4499 97.1937ZM39.8969 75.4857L39.7009 73.1537C42.5909 64.5457 48.6019 81.1697 44.2159 85.7787C47.0909 88.2687 46.7879 104.767 39.5389 100.89C39.4449 100.464 39.3909 99.9507 39.3789 99.3497L39.7369 89.7597L39.8969 75.4857Z" fill="#478099"/>
<path fill-rule="evenodd" clip-rule="evenodd" d="M52.0873 86.3075L52.2663 95.8745C52.2673 96.4555 52.2683 97.4375 52.2483 98.4695H52.7303L53.7833 98.4255C57.9423 99.5995 52.8163 101.745 50.3383 100.845C49.3023 101.158 47.6263 99.9685 49.2323 98.6895H50.2673L50.3383 98.0955L50.0883 88.5285L50.2843 78.4985C50.2843 76.7845 50.2253 75.1705 50.1063 73.6605H49.4103L48.5713 73.7035C42.7043 70.0145 62.6333 71.5315 52.1413 73.5285C52.2353 74.7605 52.2833 76.1535 52.2833 77.7065L52.0873 86.3075Z" fill="#478099"/>
<path fill-rule="evenodd" clip-rule="evenodd" d="M58.8693 73.5724C58.8563 75.3084 59.0113 81.5854 59.0123 83.9754C60.5893 81.9074 62.7403 74.7884 58.9943 72.9344L58.8693 73.5724ZM58.8513 86.1974C58.7663 90.2834 58.7733 97.1314 59.5123 100.471L59.1013 101.68H58.0843L57.6023 101.021C58.1043 94.3434 56.4033 79.4204 57.3153 71.7964C63.5533 68.7024 64.0603 80.3974 60.8683 85.0974C67.1513 113.308 61.2413 100.924 59.2983 86.1974H58.8513Z" fill="#478099"/>
<path fill-rule="evenodd" clip-rule="evenodd" d="M68.0979 100.559L68.0269 97.1064C68.0269 97.0914 68.0439 96.5784 68.0799 95.5664C67.8849 95.2294 66.9829 73.9784 67.0279 73.6824H66.8839C64.9209 73.8314 62.3879 72.2844 65.0809 71.3724L70.0429 71.7904L70.6329 71.7694C71.3369 71.6804 72.8789 73.3874 70.5609 74.0784L68.8829 73.7704L68.8119 74.2324C67.7479 79.6264 72.3059 97.0584 68.7769 101.153L68.0979 100.559Z" fill="#478099"/>
<path fill-rule="evenodd" clip-rule="evenodd" d="M75.5769 85.4049C75.8729 85.5569 77.6319 85.6549 78.8969 85.6249C80.0539 84.2409 76.0279 68.7829 80.6279 71.4609C80.1819 75.4839 81.9799 98.0179 80.9419 100.922C78.6309 102.16 78.8469 96.8989 78.8079 93.7629C78.7979 93.1759 78.8569 90.0419 78.8619 89.0569L78.9139 87.7589L78.6999 87.3409V87.2969C78.4979 87.3549 78.2789 87.3849 78.0399 87.3849L75.6839 86.9669V92.1359L75.8989 99.5479C72.9389 106.187 73.6659 87.5319 73.6309 85.8459V85.6249C73.7269 84.0569 73.7749 83.1769 73.7749 82.9859L73.5249 72.8249C73.4949 71.3639 75.9169 70.7319 75.7199 74.1659L75.5769 85.4049Z" fill="#478099"/>
<path fill-rule="evenodd" clip-rule="evenodd" d="M86.3577 99.2614C92.8027 98.5704 90.6807 72.4664 86.0717 73.6164C85.3337 79.0564 86.4387 92.1794 86.3577 98.1834V99.2614ZM83.8937 71.9774C88.4877 69.8764 92.4567 78.4474 92.2477 83.5134L92.1757 85.7794C92.0357 91.9964 92.9847 97.5414 87.3757 101.548C83.5017 101.775 84.1077 101.733 83.8047 95.6544C84.3277 89.3564 83.1607 78.1884 83.8937 71.9774Z" fill="#478099"/>
<path fill-rule="evenodd" clip-rule="evenodd" d="M99.6369 76.3439C98.5309 83.8949 97.8169 89.2179 97.4959 92.3109C97.9119 92.6489 98.9889 92.8909 100.726 93.0369C100.621 88.7969 100.113 81.2209 99.6369 76.3439ZM103.029 94.9069C102.747 96.0439 104.646 100.181 103.118 101.703C100.487 101.74 101.813 97.8229 100.957 94.6419L97.3519 93.9829C96.8129 94.7799 96.9609 105.024 94.1399 100.317C96.4269 90.8919 97.2349 80.3999 98.6729 71.0869C102.952 68.9259 101.862 90.4939 102.635 92.1359L103.029 94.9069Z" fill="#478099"/>
<path fill-rule="evenodd" clip-rule="evenodd" d="M108.061 100.91C108.667 99.2714 108.482 90.7964 108.044 86.6804V85.5154C107.293 83.2224 104.023 73.1164 104.473 72.7144L105.295 71.9664C106.026 70.9104 108.311 79.7914 108.65 81.9954C109.115 80.0804 110.519 67.4354 112.398 72.2754C112.396 73.1594 112.21 74.9594 111.673 77.4254C109.606 84.0214 110.398 93.1224 110.274 98.8874C110.288 100.806 109.435 103.394 108.061 100.91V100.91Z" fill="#478099"/>
<path fill-rule="evenodd" clip-rule="evenodd" d="M60.5932 123.772L60.5482 121.587C60.5482 121.578 60.5592 121.253 60.5812 120.613C60.4592 120.381 59.9052 107.369 59.9152 106.767H59.8252C58.8332 106.921 56.9702 105.859 58.6852 105.306L61.8232 105.571L62.1972 105.557C62.6422 105.501 63.6182 106.58 62.1522 107.018L61.0902 106.823L61.0442 107.115C60.3642 110.383 63.2532 121.481 61.0222 124.148L60.5932 123.772Z" fill="#F17596"/>
<path fill-rule="evenodd" clip-rule="evenodd" d="M65.0876 114.254C65.0876 117.01 65.2676 119.412 65.6296 121.462C66.0136 122.659 66.3786 123.364 66.7246 123.577C69.8256 121.428 68.2536 113.916 68.3506 109.245C67.8096 105.113 64.3966 106.041 65.2006 111.624L65.0876 114.254ZM63.8566 114.436C63.8566 114.343 63.8456 114.296 63.8226 114.296C62.6716 101.327 69.8726 103.048 69.8556 113.515C70.9206 128.396 63.4756 127.997 63.8346 115.52L63.8566 114.436Z" fill="#F17596"/>
<path fill-rule="evenodd" clip-rule="evenodd" d="M75.8494 123.995C76.2054 122.664 76.1574 118.288 75.8384 114.992V114.254C75.4534 112.999 73.3074 106.601 73.5794 106.155L74.0994 105.683C74.4014 104.989 76.0444 110.463 76.2224 112.027C80.2564 93.2508 76.5864 119.167 77.2494 122.715C77.1774 123.584 76.9304 125.677 75.8494 123.995Z" fill="#F17596"/>
<path fill-rule="evenodd" clip-rule="evenodd" d="M80.863 114.254C80.863 117.01 81.043 119.412 81.405 121.462C81.789 122.659 82.154 123.364 82.5 123.577C85.601 121.428 84.029 113.916 84.126 109.245C83.585 105.113 80.172 106.041 80.976 111.624L80.863 114.254ZM79.632 114.436C79.632 114.343 79.621 114.296 79.598 114.296C78.447 101.327 85.648 103.048 85.631 113.515C86.696 128.396 79.251 127.997 79.61 115.52L79.632 114.436Z" fill="#F17596"/>
<path fill-rule="evenodd" clip-rule="evenodd" d="M92.7314 112.013C92.0884 134.886 85.4154 122.663 87.0974 110.135L86.9944 106.057C87.2444 105.638 87.8944 104.654 88.1914 107.088C87.1004 124.538 91.9384 131.95 91.6364 106.044L91.6244 105.571C91.4984 105.293 92.2754 104.294 92.8664 105.362C92.9274 105.594 92.9614 105.9 92.9694 106.28C92.8924 107.589 92.7644 110.033 92.7094 111.526L92.7314 112.013Z" fill="#F17596"/>
<path fill-rule="evenodd" clip-rule="evenodd" d="M84.6881 27.6625C76.5711 -5.1595 73.2831 3.8895 64.7251 26.8285C62.2401 20.5865 50.6321 8.4805 51.3631 27.3545C52.3581 38.6795 55.4461 41.4255 62.1821 41.8285C70.1541 42.9045 79.6811 43.7625 89.0331 43.0955C97.7451 44.8715 100.765 23.8655 97.2621 18.3495C93.5221 16.9725 87.5241 25.5405 84.6881 27.6625V27.6625Z" fill="#FFD05E"/>
<path fill-rule="evenodd" clip-rule="evenodd" d="M90.815 42.8602C78.509 44.0332 58.841 42.7852 55.143 39.4902C46.014 23.3682 53.305 5.98518 65.208 27.0992C73.729 -3.20382 78.611 2.01018 84.688 27.6632C91.6 20.9052 100.071 10.0812 98.474 28.2752C97.684 35.4062 95.154 43.0122 90.815 42.8602ZM85.098 26.1022C79.693 -2.14182 71.113 -0.516817 64.979 25.2462C52.687 4.80118 46.474 23.0842 52.848 37.5712C54.582 45.3232 81.33 44.6542 91.838 43.6292C98.133 43.6762 102.244 22.7012 97.79 17.5572C93.939 15.5922 87.331 23.6362 85.098 26.1022V26.1022Z" fill="#C27E35"/>
<path fill-rule="evenodd" clip-rule="evenodd" d="M54.1794 17.2952C47.7764 21.4762 53.1124 41.5852 57.5934 40.9382C65.8554 42.2542 95.3804 47.8522 96.5114 37.1022C92.5894 38.3652 88.6654 39.5922 84.5774 39.9892C71.1554 41.4772 49.4524 34.1442 54.1794 17.2952V17.2952Z" fill="#FBB144"/>
<path fill-rule="evenodd" clip-rule="evenodd" d="M78.4682 19.5223C82.1882 19.1323 78.5522 11.1203 77.7602 8.81527C74.1362 6.12727 77.3522 18.2493 78.4682 19.5223Z" fill="#FFEA8B"/>
<path fill-rule="evenodd" clip-rule="evenodd" d="M80.902 25.0285C81.35 24.6915 81.676 24.0325 81.426 22.8465C80.061 20.2775 77.307 24.9255 80.902 25.0285Z" fill="#FFEA8B"/>
<path fill-rule="evenodd" clip-rule="evenodd" d="M96.3841 25.1747C96.9631 24.6727 97.2251 23.3867 97.0161 21.9627C95.5801 18.4277 93.1361 25.7747 96.3841 25.1747Z" fill="#FFEA8B"/>
<path fill-rule="evenodd" clip-rule="evenodd" d="M108.309 66.0803C105.917 58.1573 103.026 59.7283 108.862 53.3003C106.923 53.1413 97.3686 52.0013 94.9096 52.9583C94.3686 54.1283 94.2246 65.2233 95.0336 66.1073C95.2456 66.6263 107.839 66.4573 108.309 66.0803Z" fill="#74C9F1"/>
<path fill-rule="evenodd" clip-rule="evenodd" d="M108.862 53.3009C101.738 59.3899 108.585 62.9359 108.309 66.0799C108.223 66.4229 95.5126 66.6559 95.0336 66.1069C94.2246 65.2239 94.3686 54.1289 94.9096 52.9579C94.9486 52.9199 95.3696 52.5799 98.2346 52.5799C101.76 52.5799 106.864 53.0869 108.862 53.3009ZM106.047 58.4409C106.057 57.7689 111.548 52.8899 109.819 52.4479C109.913 52.6669 97.6076 50.6129 94.2736 52.2449C91.2846 70.0239 94.2956 67.9579 108.75 66.9359C110.296 65.8869 107.111 60.5099 106.047 58.4409Z" fill="#478099"/>
<path fill-rule="evenodd" clip-rule="evenodd" d="M42.0293 53.3006C49.1523 59.3896 42.3063 62.9366 42.5823 66.0796C42.6913 66.4196 55.3833 66.6706 55.8863 66.0866C56.6663 65.2236 56.5223 54.1286 55.9603 52.9266C53.8543 52.0816 43.9533 53.0866 42.0293 53.3006V53.3006Z" fill="#74C9F1"/>
<path fill-rule="evenodd" clip-rule="evenodd" d="M42.0295 53.3009C43.9565 53.1239 53.4955 52.0439 55.9605 52.9269C56.5225 54.1289 56.6665 65.2239 55.8865 66.0869C55.6515 66.6409 43.0785 66.4539 42.5825 66.0799C44.9755 58.1569 47.8655 59.7279 42.0295 53.3009V53.3009ZM44.8445 58.4409C43.7765 60.8099 39.3955 67.5079 43.2055 67.1399C47.4955 67.0509 56.1455 68.8119 56.9985 65.7149C56.9515 59.9629 59.8475 50.4449 52.6565 51.6279C38.6815 52.5649 38.7355 50.7269 44.8445 58.4409V58.4409Z" fill="#478099"/>
<path fill-rule="evenodd" clip-rule="evenodd" d="M98.6055 121.832C100.09 122.377 107.937 121.671 108.77 121.335C105.201 113.081 103.497 115.502 108.901 108.34C108.168 108.116 98.2665 107.937 98.4905 108.671C97.9405 109.854 97.7965 120.948 98.6055 121.832Z" fill="#74C9F1"/>
<path fill-rule="evenodd" clip-rule="evenodd" d="M105.085 113.851C105.734 116.07 109.046 120.49 108.77 121.334C108.104 121.592 100.723 122.429 98.6064 121.831C97.7964 120.948 97.9404 109.853 98.4904 108.67C98.3524 107.978 107.253 108.068 108.9 108.339L105.085 113.851ZM97.6964 108.142C97.3244 109.442 96.2034 119.801 98.0874 122.626C109.003 123.455 112.829 123.534 106.051 114.127C106.317 113.425 110.507 108.349 110.194 107.728C109.956 106.837 98.0494 106.894 97.6964 108.142Z" fill="#478099"/>
<path fill-rule="evenodd" clip-rule="evenodd" d="M42.7048 108.339C49.8458 115.575 43.1498 117.588 42.8358 121.335C43.5188 121.584 50.9038 122.456 53.0288 121.81C53.8088 120.948 53.6648 109.853 53.1028 108.65C53.2488 107.994 44.3368 108.063 42.7048 108.339V108.339Z" fill="#74C9F1"/>
<path fill-rule="evenodd" clip-rule="evenodd" d="M42.8366 121.335C46.4046 113.081 48.1086 115.502 42.7046 108.34C43.4216 108.112 53.3356 107.951 53.1026 108.65C53.6646 109.854 53.8086 120.948 53.0286 121.811C52.9626 121.85 52.5406 122.045 50.6096 122.045C47.6926 122.045 43.7586 121.612 42.8366 121.335V121.335ZM45.5536 114.128C44.5166 116.074 40.0456 121.929 42.8166 122.313C45.0846 122.292 53.1116 124.711 54.1396 121.439C54.0126 114.549 57.4936 106.065 48.5186 107.144C36.6686 106.666 42.9906 109.059 45.5536 114.128Z" fill="#478099"/>
<path fill-rule="evenodd" clip-rule="evenodd" d="M73.9219 137.339C43.6139 114.096 67.1179 177.741 86.3119 152.102C92.8359 144.834 94.9409 132.759 86.8149 130.628C78.3929 131.459 77.0349 143.258 73.9219 137.339V137.339Z" fill="#F17596"/>
<path fill-rule="evenodd" clip-rule="evenodd" d="M60.5544 133.472C66.7734 128.636 74.7924 138.289 75.7864 139.365C87.8524 121.917 97.4084 134.427 88.5404 149.093C73.0834 174.187 54.0994 139.867 60.5544 133.472V133.472ZM75.7704 138.056C50.2714 114.754 55.6924 156.545 75.8234 159.324C86.1804 160.96 101.913 133.645 86.8144 129.676C82.4444 129.676 77.6894 135.269 75.7704 138.056Z" fill="#9C445C"/>
<path fill-rule="evenodd" clip-rule="evenodd" d="M64.3805 132.281C48.2185 134.558 73.2585 171.663 85.5805 152.933C71.3935 159.162 62.3095 144.409 64.3805 132.281Z" fill="#EF5372"/>
<path fill-rule="evenodd" clip-rule="evenodd" d="M86.3577 133.569C87.0957 134.777 88.1887 135.206 87.8297 137.231C86.5157 144.777 91.6497 141.043 90.3617 136.132C90.6737 134.527 86.9067 129.845 86.3577 133.569V133.569Z" fill="#F5A4BE"/>
<path fill-rule="evenodd" clip-rule="evenodd" d="M88.3671 144.343C88.3381 144.073 88.9811 142.874 87.8041 142.365C85.9671 141.774 85.8631 147.161 88.3671 144.343Z" fill="#F5A4BE"/>
<path fill-rule="evenodd" clip-rule="evenodd" d="M105.04 42.159C107.403 41.871 116.157 29.499 110.817 31.705C109.843 34.288 102.113 40.701 105.04 42.159Z" fill="#F17596"/>
<path fill-rule="evenodd" clip-rule="evenodd" d="M116.016 26.1268C116.641 25.3138 120.494 20.1418 116.621 20.9618C115.472 21.6658 111.813 27.9348 116.016 26.1268Z" fill="#F17596"/>
<path fill-rule="evenodd" clip-rule="evenodd" d="M120.639 48.8623C112.581 56.2923 132.295 44.5263 125.827 43.9813C124.178 45.3003 123.017 47.0043 120.639 48.8623Z" fill="#74C9F1"/>
<path fill-rule="evenodd" clip-rule="evenodd" d="M124.185 68.0157C125.91 66.9367 137.768 64.8207 133.334 62.7577C131.364 63.2887 117.694 66.2027 124.185 68.0157V68.0157Z" fill="#F17596"/>
<path fill-rule="evenodd" clip-rule="evenodd" d="M139.809 62.2481C139.109 64.5671 150.225 60.8051 147.389 59.6151C145.711 60.0511 141.343 59.7721 139.809 62.2481Z" fill="#F17596"/>
<path fill-rule="evenodd" clip-rule="evenodd" d="M123.413 87.3346C120.733 90.3056 139.18 88.5286 134.53 86.1746C131.306 86.2356 127.578 86.7606 123.413 87.3346V87.3346Z" fill="#74C9F1"/>
<path fill-rule="evenodd" clip-rule="evenodd" d="M123.382 104.343C125.743 104.293 133.982 110.772 133.229 106.849C131.974 105.374 121.272 100.681 123.382 104.343V104.343Z" fill="#F17596"/>
<path fill-rule="evenodd" clip-rule="evenodd" d="M141.726 113.893C142.167 114.092 142.965 113.858 142.872 112.747C142.052 110.161 136.214 110.749 141.726 113.893Z" fill="#F17596"/>
<path fill-rule="evenodd" clip-rule="evenodd" d="M119.61 120.773C118.374 122.652 129.559 130.022 128.414 125.953C125.826 125.008 122.79 120.764 119.61 120.773V120.773Z" fill="#74C9F1"/>
<path fill-rule="evenodd" clip-rule="evenodd" d="M112.037 130.901C109.066 129.984 119.567 142.582 119.194 138.507C117.127 136.291 114.824 133.718 112.037 130.901Z" fill="#F17596"/>
<path fill-rule="evenodd" clip-rule="evenodd" d="M124.162 148.089C124.551 148.276 125.216 148.078 125.154 147.096C123.187 143.272 118.545 143.901 124.162 148.089Z" fill="#F17596"/>
<path fill-rule="evenodd" clip-rule="evenodd" d="M104.788 145.282C107.323 144.642 104.409 138.861 103.849 136.3C100.987 133.883 103.692 143.853 104.788 145.282Z" fill="#74C9F1"/>
<path fill-rule="evenodd" clip-rule="evenodd" d="M45.7636 42.159C43.4006 41.871 34.6476 29.499 39.9876 31.705C40.9616 34.288 48.6916 40.701 45.7636 42.159Z" fill="#F17596"/>
<path fill-rule="evenodd" clip-rule="evenodd" d="M34.789 26.1268C34.164 25.3138 30.31 20.1418 34.184 20.9618C35.332 21.6658 38.992 27.9348 34.789 26.1268Z" fill="#F17596"/>
<path fill-rule="evenodd" clip-rule="evenodd" d="M30.1648 48.8623C38.2228 56.2923 18.5088 44.5263 24.9768 43.9813C26.6258 45.3003 27.7868 47.0043 30.1648 48.8623Z" fill="#74C9F1"/>
<path fill-rule="evenodd" clip-rule="evenodd" d="M26.6181 68.0157C24.8941 66.9367 13.0361 64.8207 17.4701 62.7577C19.4401 63.2887 33.1101 66.2027 26.6181 68.0157Z" fill="#F17596"/>
<path fill-rule="evenodd" clip-rule="evenodd" d="M10.9953 62.2481C11.6943 64.5671 0.579341 60.8051 3.41534 59.6151C5.09334 60.0511 9.46034 59.7721 10.9953 62.2481Z" fill="#F17596"/>
<path fill-rule="evenodd" clip-rule="evenodd" d="M27.3919 87.3346C30.0719 90.3056 11.6249 88.5296 16.2749 86.1746C19.4989 86.2356 23.2269 86.7606 27.3919 87.3346Z" fill="#74C9F1"/>
<path fill-rule="evenodd" clip-rule="evenodd" d="M27.4227 104.343C25.0607 104.293 16.8227 110.772 17.5747 106.849C18.8307 105.374 29.5327 100.681 27.4227 104.343Z" fill="#F17596"/>
<path fill-rule="evenodd" clip-rule="evenodd" d="M9.0769 113.893C8.6369 114.092 7.8389 113.858 7.9309 112.747C8.7519 110.161 14.5899 110.749 9.0769 113.893Z" fill="#F17596"/>
<path fill-rule="evenodd" clip-rule="evenodd" d="M31.194 120.773C32.43 122.652 21.245 130.022 22.39 125.953C24.978 125.008 28.014 120.765 31.194 120.773Z" fill="#74C9F1"/>
<path fill-rule="evenodd" clip-rule="evenodd" d="M38.7668 130.901C41.7388 129.984 31.2378 142.582 31.6108 138.507C33.6778 136.291 35.9808 133.718 38.7668 130.901Z" fill="#F17596"/>
<path fill-rule="evenodd" clip-rule="evenodd" d="M26.6429 148.089C26.2539 148.276 25.5889 148.078 25.6499 147.096C27.6169 143.272 32.2589 143.901 26.6429 148.089Z" fill="#F17596"/>
<path fill-rule="evenodd" clip-rule="evenodd" d="M46.0154 145.282C43.4804 144.642 46.3954 138.861 46.9554 136.3C49.8174 133.883 47.1124 143.853 46.0154 145.282Z" fill="#74C9F1"/>
</svg>
