<svg width="190" height="117" viewBox="0 0 190 117" fill="none" xmlns="http://www.w3.org/2000/svg">
<path fill-rule="evenodd" clip-rule="evenodd" d="M0 70.4923C1.49412 70.698 2.24019 70.8003 3.73332 71C3.85683 65.2324 4.27319 58.928 4.08792 49.7519C6.50043 50.2586 7.82622 49.805 13.5208 50.9539C13.5228 49.3585 13.5228 48.5608 13.5248 46.9654C11.7657 46.6222 8.33621 46.4848 4.21841 46.0242C4.24829 44.7419 4.41065 41.0052 4.69155 37.114C5.65277 36.9594 6.69566 37.0026 7.89694 37.0447C9.77356 37.112 12.0396 37.1772 14.998 36.4919C15 35.3901 14.998 34.8433 15 33.7405C12.0745 33.2689 9.73471 33 7.86606 33C-2.63962 33 1.68637 41.5049 0 70.4923" fill="black"/>
<path fill-rule="evenodd" clip-rule="evenodd" d="M19.931 34.0867C19.6058 39.9186 17.6696 44.0344 15.4507 51.8096C14.2527 57.2332 12.3185 64.4198 11 72.7041C12.4381 72.9889 13.1596 73.1274 14.5987 73.4083C15.3825 68.666 16.6782 62.1318 18.5887 54.7261C19.2203 54.747 20.866 54.8765 23.1867 54.8426C24.4834 61.2673 25.3986 67.2656 27.9753 74.6105C29.5814 74.7699 30.3899 74.8496 32 75C31.5839 73.9432 30.64 71.5526 30.3099 70.5117C27.1807 59.9136 26.0668 46.7845 23.243 34.1504C22.6322 34.1136 22.2783 34 21.4372 34C21.0577 34 20.5783 34.0229 19.931 34.0867V34.0867ZM19.5455 50.954C19.9013 49.6233 19.8697 49.43 21.5608 44.2774C21.6527 44.9159 21.7189 45.3193 21.9206 46.4598C22.0144 47.0484 22.2003 48.18 22.5669 50.966C22.3297 50.95 22.1439 50.965 21.8553 50.9789C21.6547 50.9899 21.4046 50.9998 21.0528 50.9998C20.6831 50.9998 20.1998 50.9889 19.5455 50.954Z" fill="black"/>
<path fill-rule="evenodd" clip-rule="evenodd" d="M43.2791 34.0792C39.6676 34.4901 34.8688 34.4475 28 34.7663C28.1081 36.3455 28.1676 37.1336 28.2787 38.7167C30.1663 38.285 31.0828 38.2682 34.3828 38.593C34.4165 48.4907 33.632 62.2538 33.8849 74.696C35.3261 74.8198 36.0502 74.8822 37.4944 75C37.1889 64.5765 37.9715 51.3501 37.9913 38.4791C39.9969 38.3266 40.8995 38.2247 45 38.0474C44.8909 36.4277 44.8433 35.6188 44.7352 34C44.1559 34.0307 43.8603 34.0485 43.2791 34.0792Z" fill="black"/>
<path fill-rule="evenodd" clip-rule="evenodd" d="M46.2273 74.9692C47.7076 75.0707 48.4463 75.1185 49.9276 75.212C49.9977 69.129 50.015 61.2252 50.0191 53.0111C50.52 52.9812 50.8522 53.0101 51.2668 53.0409C52.045 53.0976 53.119 53.1534 56.1681 52.8061C55.8368 58.5598 56.3764 67.4525 56.2636 75.806C57.75 75.8876 58.4846 75.9264 59.9711 76C59.9142 73.0271 60.1184 70.4751 59.8857 66.7571C59.716 56.9819 59.9589 45.7809 59.6144 33.5422C58.1341 33.5403 57.3985 33.5422 55.9212 33.5383C55.9405 37.4822 56.0715 42.1046 56.2229 48.6483C54.834 48.7259 53.7286 49.0284 49.8951 48.908C50.4804 44.8855 48.4635 40.3506 51.0158 33.581C49.4562 33.3492 48.6769 33.2308 47.1163 33C44.6687 45.2267 47.1488 59.9169 46.2273 74.9692" fill="black"/>
<path fill-rule="evenodd" clip-rule="evenodd" d="M62 76.8406C65.3142 77.0568 71.7153 77.0004 77.3522 76.9703C77.3542 75.2619 77.3542 74.4102 77.3571 72.7028C76.1267 72.6535 74.9387 72.6776 73.5857 72.7008C71.6087 72.7359 69.2781 72.7711 65.9482 72.5751C66.1407 67.8269 66.278 60.4452 66.2513 53.2405C68.8653 53.0062 71.4744 52.9218 76.0032 53.2838C76.1118 51.5613 76.1662 50.6965 76.2718 48.975C72.3533 48.8896 72.851 48.4552 66.0035 48.9569C65.9245 48.79 66.0193 44.805 66.279 37.3761C67.2102 37.1971 68.6076 37.3721 70.2528 37.5481C72.5419 37.7904 75.3129 38.0337 77.996 37.3268C77.998 35.898 77.998 35.178 78 33.7511C77.1152 33.7139 78.0415 33.6124 75.1836 33.4998C72.3039 33.1066 68.2698 33.2635 62.8295 33C61.9585 45.886 63.429 61.134 62 76.8406" fill="black"/>
<path fill-rule="evenodd" clip-rule="evenodd" d="M80.6434 77.8034C82.139 77.8334 82.8905 77.8504 84.3851 77.8754C84.3912 74.2285 84.3635 71.1168 84.3994 66.9396C85.8223 69.663 88.4507 73.8152 91.6839 79C92.7685 77.9074 93.3138 77.3561 94.4005 76.2565C92.3717 72.6716 89.1611 67.9181 86.4671 62.4132C87.2441 61.9599 87.8018 61.5877 89.078 60.6132H89.1672C96.2323 55.3744 97.2749 43.0358 90.1052 36.3933C87.9955 34.7354 86.3041 34 84.9561 34C75.4184 33.996 83.0237 70.7676 80.6434 77.8034ZM84.5737 43.5151C84.5778 42.1724 84.3369 42.0333 84.2149 38.3923C93.1929 40.1393 93.7095 54.3839 84.4917 58.7962C84.4004 54.0067 84.7849 49.4272 84.5737 43.5151" fill="black"/>
<path fill-rule="evenodd" clip-rule="evenodd" d="M96 45C97.4439 45 98.1682 44.999 99.6122 44.9971C99.9215 42.1949 99.8701 39.9218 101 34.3155C99.5542 34.1911 98.8327 34.1244 97.3888 34C96.8972 37.2637 96.7224 40.2902 96 45Z" fill="black"/>
<path fill-rule="evenodd" clip-rule="evenodd" d="M110.782 65.9445C112.089 74.7156 102.734 75.3176 103.878 65.0955C102.39 65.1094 101.637 65.1144 100.147 65.1243C98.1781 80.7346 116.676 81.4575 114.348 64.2992C114.23 58.0253 96.3644 34.1131 112.203 39.1353C112.11 39.8216 112.059 40.1618 111.965 40.8491C113.575 40.8431 114.385 40.8401 115.993 40.8302C115.94 39.5013 116.348 37.484 114.618 35.7385C114.41 35.5471 114.364 35.447 113.277 34.6308C113.284 34.5901 113.29 34.5732 113.299 34.5316C111.518 34.1696 109.985 34 108.674 34C93.6741 33.999 107.767 56.2193 110.782 65.9445" fill="black"/>
<path fill-rule="evenodd" clip-rule="evenodd" d="M127 34.2166C128.154 46.7033 127.645 62.7313 128.096 77C136.819 77.0148 146.096 67.9121 147.875 57.0669C149.006 48.2559 142.41 34.001 129.749 34C128.862 34 127.947 34.0702 127 34.2166V34.2166ZM131.459 51.18C131.273 47.2571 131.128 43.1591 131.119 38.3808C146.815 40.6572 149.73 64.8089 131.615 72.457C131.44 66.0559 131.597 58.3979 131.459 51.18" fill="black"/>
<path fill-rule="evenodd" clip-rule="evenodd" d="M180.494 46.3338C177.845 42.8346 173.552 37.6299 168.848 33.0576C168.556 33.4229 168.838 32.8094 166 35.9483C170.069 39.376 173.935 43.6228 178.682 50.2559C175.43 55.809 171.146 67.0552 167.696 73.8352C169.248 73.9067 170.021 73.9385 171.568 74C177.62 62.6357 181.744 47.9151 190 35.1452C188.822 34.2945 188.232 33.8656 187.055 33C183.989 36.2888 182.473 39.6619 180.494 46.3338Z" fill="black"/>
<path fill-rule="evenodd" clip-rule="evenodd" d="M154.857 34.1544C154.291 39.5931 152.573 45.1613 150.366 52.9595C149.157 59.1724 147.208 66.9666 146 75.9955C147.443 76.0005 148.157 76.0005 149.6 75.9995C150.312 71.083 151.775 62.9121 153.516 55.6978C154.142 55.6509 155.815 55.5991 158.12 55.3211C159.284 60.7009 160.225 67.3871 162.962 74.4839C163.583 74.7848 166.96 74.0973 165.734 71.6868C162.105 60.687 161.208 47.0047 157.813 34C157.236 34.0448 157.483 33.9681 154.857 34.1544ZM156.445 44.6351C156.545 45.2798 156.614 45.6914 156.814 46.8522C156.908 47.4402 157.093 48.61 157.485 51.422C156.739 51.4309 157.443 51.5286 154.459 51.6781C154.88 49.8396 155.197 48.7076 156.445 44.6351" fill="black"/>
<path fill-rule="evenodd" clip-rule="evenodd" d="M64.968 0.678732C64.7305 1.40304 65.1266 6.17101 65.2589 10.5625C59.0243 10.6318 64.2352 12.8394 65.3387 12.0596C66.0617 18.2802 63.5463 17.5747 62 17.979C65.7484 23.8725 69.4676 15.3284 68.1247 12.0071C69.3605 11.9804 69.6495 11.9556 72.6749 11.8733C71.5228 25.4252 75.8219 19.3057 74.9889 11.8466C76.7298 11.3967 75.8579 9.77968 75.0726 10.3445C76.0953 -0.397331 71.804 5.67261 72.7557 10.3722C69.7585 10.399 69.4676 10.4247 68.0974 10.5099C68.0731 6.89334 68.0731 2.79618 68.4643 0.358687C68.329 0.0961124 68.0069 0 67.6099 0C66.63 0 65.1927 0.58361 64.968 0.678732" fill="black"/>
<path fill-rule="evenodd" clip-rule="evenodd" d="M78.7013 11.9818C77.2035 17.6184 77.8915 23.254 82.8606 14.1985C82.7771 25.5485 89.9007 20.8437 92 13.4865L91.2835 12.8834C83.2489 27.8848 90.2358 12.1802 84.5246 8.61344C78.2217 27.1018 76.5165 8.94026 86.1551 6.88988C85.2371 5.55636 84.3418 5 83.5015 5C81.3943 5 79.6281 8.49089 78.7013 11.9818" fill="black"/>
<path fill-rule="evenodd" clip-rule="evenodd" d="M90.3477 6.85685C90.159 10.2221 90.1179 22.3263 90 26.7418C91.5662 28.2106 93.0051 23.1557 94.1005 18.1019C95.7118 10.6537 96.5744 3.20551 95.9856 16.6301C91.3528 20.2002 97.0482 18.9531 97.5108 17.1923C98.0687 17.0962 98.7005 17.1131 99.3487 17.1299C101.213 17.1804 103.216 17.2299 104 14.5683C103.625 13.9616 102.746 14.6495 101.626 15.3374C100.571 15.9837 99.3036 16.6301 98.0359 16.2025C101.338 7.76647 96.0492 3.14513 93.7415 12.2948C93.5405 9.70844 94.678 5 93.0636 5C92.521 5 91.6677 5.53251 90.3477 6.85685V6.85685ZM95.4041 17.698C95.2954 17.8604 95.1795 18.0197 95.0431 18.1543C94.7323 18.4453 94.5251 18.5592 94.4328 18.5592C94.2451 18.5592 94.5323 18.092 95.4041 17.698Z" fill="black"/>
<path fill-rule="evenodd" clip-rule="evenodd" d="M102.35 6.85685C102.157 10.2212 102.116 22.3263 102 26.7418C103.565 28.2106 105.005 23.1557 106.101 18.1009C107.714 10.6527 108.577 3.20353 107.988 16.6301C103.355 20.1973 109.048 18.9561 109.509 17.1923C110.067 17.0962 110.699 17.1131 111.348 17.1299C113.214 17.1804 115.219 17.2299 116 14.5683C115.627 13.9596 114.748 14.6485 113.625 15.3374C112.57 15.9837 111.301 16.6301 110.035 16.2025C113.34 7.76845 108.048 3.14216 105.745 12.2948C105.545 9.70745 106.682 5 105.067 5C104.525 5 103.67 5.53251 102.35 6.85685ZM107.402 17.698C107.296 17.8604 107.185 18.0197 107.044 18.1543C106.733 18.4453 106.525 18.5592 106.432 18.5592C106.244 18.5592 106.531 18.092 107.402 17.698Z" fill="black"/>
<path fill-rule="evenodd" clip-rule="evenodd" d="M114.073 11.4331C113.745 15.5363 114.43 19.6395 117.988 17.0648C118.545 16.1112 119.074 14.8335 119.978 11.7302C119.978 12.138 120.004 16.6278 119.899 19.1592C111.362 30.0257 124.514 37.069 122.899 18.5329C123.31 18.7574 130.276 14.5455 127.233 13.6896C125.906 16.9017 124.045 16.9017 122.899 17.39C123.774 1.1677 121.369 6.00792 119.211 10.8461C117.704 14.2273 116.317 17.6075 116.252 13.8094C116.66 7.29173 116.336 5 115.821 5C115.211 5.00101 114.33 8.21707 114.073 11.4331V11.4331ZM119.821 20.6021C119.743 22.3178 119.632 24.1131 119.53 25.5812C119.078 26.7593 118.746 27.2255 118.524 27.2255C117.733 27.2255 118.323 21.3421 119.821 20.6021Z" fill="black"/>
<path fill-rule="evenodd" clip-rule="evenodd" d="M100.172 99.2326C97.7562 98.3015 94.3924 98.4341 92.3294 99.1613C46.9868 59.6787 48.4344 107.089 53.4036 114.497C56.7005 122.535 86.7188 108.678 90.8168 108.281C93.0437 109.844 98.6494 111.302 101.746 108.273C119.178 112.922 145.91 128.375 141.52 100.12C139.196 87.3565 134.588 83.001 128.956 83C120.263 83 109.127 93.3784 100.172 99.2326" fill="black"/>
</svg>
