<svg width="156" height="127" viewBox="0 0 156 127" fill="none" xmlns="http://www.w3.org/2000/svg">
<path fill-rule="evenodd" clip-rule="evenodd" d="M97.3729 3.48044C91.0279 4.84844 84.1789 15.9044 75.7439 13.8604C69.2289 13.4854 54.7999 7.82144 60.6579 4.84344C66.0969 4.72744 62.6399 2.53544 58.1819 0.93644C55.9049 0.33344 53.7529 0.62844 52.6419 2.67644C47.7859 17.5414 80.6149 25.2754 100.894 21.5224C113.223 17.6154 108.097 1.23944 97.3729 3.48044V3.48044Z" fill="black"/>
<path fill-rule="evenodd" clip-rule="evenodd" d="M110.42 3.48044C116.765 4.84844 123.614 15.9044 132.049 13.8604C138.564 13.4854 152.993 7.82144 147.135 4.84344C141.696 4.72744 145.153 2.53544 149.611 0.93644C151.888 0.33344 154.04 0.62844 155.151 2.67644C160.007 17.5414 127.178 25.2754 106.899 21.5224C94.5698 17.6154 99.6958 1.23944 110.42 3.48044V3.48044Z" fill="black"/>
<path fill-rule="evenodd" clip-rule="evenodd" d="M136.138 13.5716C136.16 14.7166 160.694 7.73755 146.929 4.39355C154.716 7.54255 141.361 12.5456 136.138 13.5716Z" fill="black"/>
<path fill-rule="evenodd" clip-rule="evenodd" d="M71.6534 13.5716C71.6324 14.7166 47.0984 7.73755 60.8634 4.39355C53.0764 7.54255 66.4314 12.5456 71.6534 13.5716Z" fill="black"/>
<path fill-rule="evenodd" clip-rule="evenodd" d="M32.3596 105.824C30.8906 107.247 29.3786 113.455 26.0496 113.949C26.7846 109.757 29.8866 109.139 32.4746 105.123C33.8976 101.776 33.1626 102.429 35.6756 100.77C35.9046 99.7997 37.6856 95.9937 39.9106 95.9717C40.7166 96.5457 34.4486 104.356 32.3596 105.824V105.824Z" fill="black"/>
<path fill-rule="evenodd" clip-rule="evenodd" d="M50.9649 82.8151C49.5039 81.9641 50.7979 84.4021 48.5559 84.4891C47.0799 85.8381 46.7949 89.9571 43.6559 91.0041C42.6669 87.7301 47.6579 87.0881 48.2829 83.6081C48.0709 82.9351 49.2109 82.5971 49.6789 82.0641C49.7469 81.9591 48.6929 81.4131 49.7089 81.2811C51.2849 81.5141 51.3039 76.7521 54.0589 77.0721C54.6489 79.3171 50.8309 80.2281 50.9649 82.8151V82.8151Z" fill="black"/>
<path fill-rule="evenodd" clip-rule="evenodd" d="M44.8491 112.873C43.7791 114.673 43.9871 120.869 40.8551 122.353C40.4801 118.115 43.3181 116.715 44.7791 112.166C45.2851 108.564 44.7441 109.386 46.7421 107.132C46.7121 106.136 47.4481 101.999 49.5911 101.402C50.5181 101.749 46.4861 110.914 44.8491 112.873Z" fill="black"/>
<path fill-rule="evenodd" clip-rule="evenodd" d="M56.8655 85.8344C55.2245 85.4824 57.2165 86.9244 54.8335 88.3114C53.9805 89.7694 54.5795 94.5244 51.7205 95.5964C50.7835 92.3034 54.8316 90.2264 54.6476 86.4834C54.9856 85.7064 55.7475 85.9114 54.9775 84.8584C56.9555 84.6054 55.4965 80.0704 58.3665 79.4844C59.5175 81.5014 56.0655 83.3694 56.8655 85.8344V85.8344Z" fill="black"/>
<path fill-rule="evenodd" clip-rule="evenodd" d="M58.7359 116.45C58.1679 118.466 59.9739 124.396 57.3319 126.641C55.8729 122.645 58.2509 120.557 58.4859 115.786C58.0429 112.175 57.7329 113.109 59.0799 110.415C58.7929 109.461 58.4329 105.273 60.3489 104.143C61.3329 104.238 59.8109 114.134 58.7359 116.45V116.45Z" fill="black"/>
<path fill-rule="evenodd" clip-rule="evenodd" d="M63.3507 87.1532C63.2687 87.5502 62.0587 86.8312 62.8067 88.0462C61.2957 90.8482 63.3347 94.2872 61.1097 97.9682C58.6687 95.8182 62.5827 92.5002 61.4167 89.2492C60.8977 88.7712 61.7167 87.9102 61.8547 87.2142C61.8607 87.0892 60.6747 87.1432 61.4887 86.5202C62.9697 85.9352 60.6057 81.8012 63.1517 80.7002C64.8167 82.3252 61.9007 85.0142 63.3507 87.1532Z" fill="black"/>
<path fill-rule="evenodd" clip-rule="evenodd" d="M73.0756 116.31C73.0496 118.404 76.3286 123.665 74.3576 126.518C71.9146 123.034 73.6716 120.403 72.6616 115.734C71.3006 112.36 71.2426 113.343 71.8466 110.393C71.3216 109.545 69.8896 105.593 71.4486 104.005C72.4246 103.842 73.5136 113.795 73.0756 116.31V116.31Z" fill="black"/>
<path fill-rule="evenodd" clip-rule="evenodd" d="M69.9504 86.8187C69.9744 87.2217 68.6204 86.8407 69.6564 87.8207C68.9224 90.9187 71.7814 93.7127 70.5854 97.8437C67.6714 96.3997 70.5934 92.1817 68.6254 89.3427C68.0004 89.0157 68.5674 87.9717 68.5224 87.2637C68.4944 87.1417 67.3644 87.4997 67.9884 86.6887C69.2694 85.7397 65.9144 82.3587 68.0884 80.6357C70.1164 81.7747 67.9964 85.1267 69.9504 86.8187V86.8187Z" fill="black"/>
<path fill-rule="evenodd" clip-rule="evenodd" d="M10.9843 69.6181C8.89034 69.5921 3.62934 72.8711 0.777344 70.9001C4.26034 68.4571 6.89234 70.2131 11.5613 69.2041C14.9353 67.8431 13.9523 67.7851 16.9023 68.3881C17.7493 67.8641 21.7023 66.4321 23.2893 67.9911C23.4523 68.9671 13.4993 70.0561 10.9843 69.6181V69.6181Z" fill="black"/>
<path fill-rule="evenodd" clip-rule="evenodd" d="M40.4767 66.4931C40.0727 66.5161 40.4537 65.1641 39.4737 66.1991C36.3767 65.4651 33.5817 68.3241 29.4517 67.1281C30.8937 64.2131 35.1137 67.1361 37.9527 65.1681C38.2797 64.5431 39.3227 65.1111 40.0307 65.0651C40.1537 65.0371 39.7947 63.9061 40.6067 64.5311C41.5547 65.8121 44.9367 62.4571 46.6587 64.6311C45.5207 66.6591 42.1677 64.5401 40.4767 66.4931V66.4931Z" fill="black"/>
<path fill-rule="evenodd" clip-rule="evenodd" d="M14.8312 83.4338C12.8012 83.9498 8.56722 88.4798 5.30322 87.3138C8.03422 84.0518 11.0312 85.0678 15.2812 82.8838C18.1872 80.6968 17.2232 80.8948 20.2292 80.7148C20.9122 79.9888 24.3582 77.5828 26.2952 78.6768C26.7052 79.5768 17.3742 83.2058 14.8312 83.4338V83.4338Z" fill="black"/>
<path fill-rule="evenodd" clip-rule="evenodd" d="M42.5094 72.7816C42.1254 72.9076 42.1434 71.5026 41.4644 72.7566C38.2824 72.8506 36.3224 76.3346 32.0234 76.2476C32.8024 72.9176 37.4474 74.8566 39.7274 72.1546C39.8814 71.4666 41.0374 71.7446 41.7094 71.5176C41.8194 71.4586 41.1814 70.4596 42.1274 70.8526C43.3734 71.8436 45.7724 67.7286 47.9984 69.3826C47.4234 71.6366 43.6374 70.4566 42.5094 72.7816V72.7816Z" fill="black"/>
<path fill-rule="evenodd" clip-rule="evenodd" d="M22.1211 95.7824C20.2941 96.8064 17.3791 102.277 13.9231 101.996C15.8221 97.9924 18.8291 98.4124 22.4141 95.1344C24.6541 92.2694 23.7751 92.7104 26.6321 91.7584C27.1041 90.8804 29.8111 87.6644 31.9641 88.2204C32.5941 88.9834 24.5191 94.9054 22.1211 95.7824Z" fill="black"/>
<path fill-rule="evenodd" clip-rule="evenodd" d="M46.0478 78.3742C44.8568 77.1732 45.4748 79.8642 43.2878 79.3672C41.5128 80.2882 40.1718 84.1922 36.8688 84.3922C36.7578 80.9742 41.7488 81.6452 43.2508 78.4442C43.2218 77.7402 44.4098 77.7102 44.9998 77.3152C45.0918 77.2302 44.2148 76.4322 45.2318 76.5652C46.6918 77.2012 47.9448 72.6052 50.5228 73.6262C50.5108 75.9482 46.5878 75.8412 46.0478 78.3742V78.3742Z" fill="black"/>
<path fill-rule="evenodd" clip-rule="evenodd" d="M38.4506 21.5427C56.8236 -2.84327 19.9976 17.4507 16.8626 28.0147C10.0136 38.9387 29.1106 40.4877 33.5966 48.3687C41.2446 60.9957 24.2346 67.2447 13.8386 63.8917C11.7976 61.7747 0.0475559 52.5257 11.2786 52.7547C13.8946 57.6477 23.0326 60.2897 27.4106 55.4007C28.5206 46.3407 15.8706 46.2697 11.0336 39.2997C-1.17444 24.5987 30.3026 2.93173 42.1566 4.00573C63.1196 7.38673 40.5186 33.3907 38.4506 21.5427V21.5427Z" fill="black"/>
<path fill-rule="evenodd" clip-rule="evenodd" d="M57.8617 51.4397C54.3827 58.7597 43.7187 61.4087 41.7887 52.0097C40.7567 46.6277 46.9477 33.4317 48.9787 30.1807C62.8467 28.2327 42.6657 50.3997 50.4937 51.6567C55.2427 50.6397 57.8937 43.8237 59.7557 38.4107C59.6737 31.0167 66.6687 27.5647 67.6977 35.5997C67.6357 39.4977 63.3387 46.3517 63.2157 50.3077C63.0537 52.2107 63.4827 53.2747 64.2937 54.5327C70.1997 62.1977 57.6327 63.0447 57.8617 52.6287V51.4397Z" fill="black"/>
<path fill-rule="evenodd" clip-rule="evenodd" d="M87.4029 38.4362C83.0149 39.0382 76.0979 46.9692 77.9289 50.4082C83.4239 50.4542 96.0309 40.8142 87.4029 38.4362ZM76.5449 32.9922C79.1999 28.6492 76.3409 24.9412 82.3799 25.7282C85.4369 27.2322 84.7099 31.8462 82.4499 35.0182C90.8869 29.1192 101.774 35.5382 95.6479 46.2612C92.5579 51.8472 87.7189 54.1962 80.2989 56.2672C77.7779 57.3552 76.1539 54.0292 75.5149 58.3132C73.3359 62.1272 73.7829 62.4492 72.9759 66.9752C67.6789 90.0542 61.1269 73.2752 67.7769 60.1642C68.8479 53.6302 73.4969 40.7722 76.5449 32.9922V32.9922Z" fill="black"/>
<path fill-rule="evenodd" clip-rule="evenodd" d="M110.547 40.3331C115.264 42.7611 124.219 34.2061 116.16 33.9891C114.917 34.0571 108.395 38.8581 110.547 40.3331ZM116.596 45.8351C113.603 47.3471 107.155 42.6041 107.073 48.0421C107.477 58.7531 115.063 49.5451 119.967 49.3751C122.43 50.7611 122.385 52.7561 120.205 54.8581C94.3945 74.8821 95.4895 29.6551 116.716 28.1969C129.698 28.1511 127.073 42.7151 116.596 45.8351Z" fill="black"/>
<path fill-rule="evenodd" clip-rule="evenodd" d="M140.393 36.923C144.102 34.026 151.714 28.7361 154.552 33.988C155.893 35.0811 156.156 35.764 153.421 37.409C148.672 38.607 144.743 40.468 139.996 44.2C132.941 47.386 135.274 63.0091 127.978 56.8071C123.856 54.3821 132.748 26.209 137.101 28.04C146.43 26.936 128.956 48.094 140.393 36.923V36.923Z" fill="black"/>
<path fill-rule="evenodd" clip-rule="evenodd" d="M83.1197 77.7472C83.7997 90.4062 82.1987 107.867 84.5227 109.539C89.6567 104.206 100.476 68.8202 87.2357 73.7452C83.9547 74.2172 83.0457 75.0542 83.1197 77.7472ZM80.0487 79.1682C79.8717 79.2302 79.5847 79.0692 79.9147 79.7112C80.0367 79.6992 80.3637 79.8542 80.0487 79.1682ZM79.6427 100.522C79.7117 100.522 79.7117 100.59 79.7787 100.59C79.7787 100.522 79.7117 100.522 79.7117 100.522H79.6427ZM79.6427 88.5232C79.4207 87.9302 80.5567 86.7112 79.9817 85.0662C80.2517 85.4682 80.7407 85.4432 79.8457 84.1842C80.1227 84.1142 80.4127 84.0122 79.9147 83.3042C80.3097 82.4192 81.1977 81.2452 79.8457 80.1182L80.1167 80.6602C79.6597 80.9872 79.2627 82.9192 79.4397 84.6592C79.4397 84.7262 79.3727 84.7262 79.3727 84.7262C79.8047 85.8712 78.0527 88.1002 79.5757 88.9982V89.0652C79.7117 90.4722 79.1967 91.7272 79.7787 93.4732C80.2507 93.6822 80.6857 93.0122 80.1167 91.7772C80.2107 91.5432 80.9277 90.3612 80.3207 89.1342C80.7517 88.5352 80.8557 86.0432 79.6427 88.5232ZM79.1017 91.6412C78.9637 91.6782 78.8727 92.0372 78.6257 92.7262C78.8067 93.8302 79.7977 92.6722 79.1017 91.6412ZM79.8457 94.0152C78.6737 92.4742 78.9517 95.1882 78.8397 97.7092C78.9557 98.0632 77.3997 99.2602 79.3047 99.0312C78.4207 99.9882 80.5227 101.467 79.7787 98.7602C80.2007 98.2622 80.3497 98.3812 80.5237 97.1332C79.7087 97.2502 80.9327 92.9072 79.8457 94.0152V94.0152ZM87.6417 118.893C85.5627 123.737 76.9507 122.644 76.9217 118.222C76.1747 101.084 75.1257 83.6112 76.4737 67.9042C99.6547 65.9672 102.291 73.9572 98.2167 93.8792C96.8147 102.8 93.3497 111.237 87.6417 118.893V118.893Z" fill="black"/>
<path fill-rule="evenodd" clip-rule="evenodd" d="M114.62 81.8127C111.958 88.3137 111.727 97.9027 110.621 105.404C116.79 105.404 115.976 102.15 115.773 96.9297C115.636 92.1837 116.314 86.2857 114.62 81.8127V81.8127ZM107.367 105.539C107.482 105.615 107.135 105.813 107.502 106.217C107.406 106.197 107.706 105.719 107.367 105.539ZM107.367 97.9467C107.367 97.9467 107.367 97.8777 107.23 97.9467H107.367ZM107.433 104.996C107.407 105.128 107.804 104.714 107.976 104.251C108.036 103.465 106.81 103.962 107.433 104.996ZM104.655 114.623C104.845 114.604 105.083 114.854 104.858 114.216C104.766 114.193 104.428 113.987 104.655 114.623ZM107.976 99.0987C108.601 98.1457 106.622 97.1547 107.434 99.3017C106.553 100.096 106.788 101.423 106.622 103.438C106.303 103.404 106.186 103.826 106.419 104.793C106.388 104.883 105.31 105.857 105.876 106.759C105.232 107.14 104.9 109.26 106.419 107.302C106.458 108.39 105.004 108.423 105.604 110.081C105.299 109.689 104.851 109.409 105.536 110.759C105.32 110.68 104.994 110.767 105.333 111.368C104.803 111.991 103.771 112.743 104.925 113.877C104.925 113.742 104.791 113.538 104.791 113.403C105.169 113.574 105.475 112.851 105.401 111.911C105.512 111.778 106.381 111.344 106.011 110.42C105.926 109.606 107.877 107.798 106.553 107.031C106.622 106.962 106.622 106.962 106.553 106.962C106.451 106.162 107.499 105.535 106.74 104.531C107.37 104.306 107.383 103.885 106.689 103.438C106.789 103.334 106.704 103.441 106.96 103.099C107.289 104.089 108.506 102.92 108.18 101.268C107.537 100.822 108.885 100.245 108.791 99.0987C108.654 99.0317 108.18 99.0317 107.976 99.0987V99.0987ZM116.111 110.42C115.064 111.254 109.379 112.645 109.428 113.464C110.19 125.883 100.538 123.564 101.672 113.921C102.294 103.126 105.777 93.5157 107.724 82.6587C109.931 75.9337 109.329 64.5097 118.548 67.0647C119.768 67.8677 120.618 68.7607 120.252 70.2427C118.385 87.1727 120.578 103.351 123.772 119.572C115.628 124.863 117.687 115.927 116.111 110.42V110.42Z" fill="black"/>
<path fill-rule="evenodd" clip-rule="evenodd" d="M134.566 77.7469C135.246 90.4049 133.645 107.868 135.969 109.539C141.103 104.206 151.922 68.8199 138.682 73.7449C135.401 74.2169 134.492 75.0539 134.566 77.7469V77.7469ZM131.495 79.1679C131.318 79.2299 131.031 79.0689 131.362 79.7109C131.483 79.6989 131.81 79.8539 131.495 79.1679ZM131.089 100.522C131.158 100.522 131.158 100.59 131.225 100.59C131.225 100.522 131.158 100.522 131.158 100.522H131.089ZM131.089 88.5229C130.867 87.9299 132.003 86.7109 131.428 85.0659C131.697 85.4679 132.187 85.4429 131.292 84.1839C131.569 84.1139 131.859 84.0119 131.362 83.3039C131.756 82.4179 132.644 81.2449 131.292 80.1179L131.563 80.6599C131.106 80.9869 130.709 82.9179 130.886 84.6589C130.886 84.7259 130.819 84.7259 130.819 84.7259C131.251 85.8709 129.499 88.1009 131.022 88.9979V89.0649C131.158 90.4719 130.642 91.7269 131.225 93.4729C131.697 93.6819 132.132 93.0119 131.563 91.7769C131.656 91.5429 132.375 90.3599 131.767 89.1339C132.198 88.5349 132.302 86.0429 131.089 88.5229ZM130.547 91.6409C130.41 91.6789 130.319 92.0379 130.073 92.7259C130.253 93.8299 131.244 92.6719 130.547 91.6409ZM131.292 94.0149C130.12 92.4739 130.398 95.1869 130.286 97.7089C130.402 98.0629 128.846 99.2599 130.751 99.0309C129.867 99.9879 131.97 101.467 131.225 98.7599C131.647 98.2619 131.796 98.3809 131.97 97.1329C131.156 97.2499 132.378 92.9069 131.292 94.0149V94.0149ZM139.088 118.893C137.009 123.737 128.397 122.644 128.368 118.222C127.621 101.084 126.572 83.6109 127.92 67.9039C151.101 65.9659 153.737 73.9569 149.663 93.8789C148.261 102.8 144.796 111.238 139.088 118.893V118.893Z" fill="black"/>
</svg>
