<svg width="96" height="159" viewBox="0 0 96 159" fill="none" xmlns="http://www.w3.org/2000/svg">
<path fill-rule="evenodd" clip-rule="evenodd" d="M57.7619 50.161C63.9185 46.3552 52.9949 46.228 50.2799 46.255C50.1647 34.174 49.6247 21.5662 49.1273 9.265C51.9053 8.803 61.5743 10.5382 58.6307 5.8534C33.1187 3.1978 29.2457 9.685 46.3739 9.289C46.4069 21.331 46.4279 33.8644 46.8239 46.147C44.3621 46.2268 34.8437 45.4 38.0051 49.354C44.1569 50.782 51.3935 50.0086 57.7619 50.161V50.161ZM65.0939 6.163C65.8775 11.9872 59.6567 14.3182 54.5513 14.239C54.9245 22.8868 55.3517 31.5748 55.6619 40.531C63.9683 39.6136 66.0467 50.5852 60.0215 53.9854C51.3215 55.5574 42.0251 55.7536 33.8393 54.5122C24.3365 47.5498 34.3301 40.3762 42.0959 41.095C42.0629 32.2738 41.6801 22.6948 41.3219 13.543C30.0869 14.7532 26.6243 5.7946 34.7753 1.1284C40.5575 -1.1084 47.1605 1.0762 53.3585 0.739595C58.8725 0.294395 63.9497 0.168396 65.0939 6.163" fill="black"/>
<path fill-rule="evenodd" clip-rule="evenodd" d="M57.7621 46.6151C66.7375 52.3727 39.6919 49.9247 38.0059 49.3541C34.6639 45.1787 44.6641 46.3385 46.8241 46.1471C46.4329 34.1171 46.4059 21.5573 46.3741 9.28907C43.9093 9.07547 32.8195 9.81767 36.9397 6.08087C43.7929 4.92407 51.2011 5.46587 58.3153 5.63747C62.4835 10.5215 51.7243 8.82647 49.1275 9.26507C49.6135 21.3389 50.1589 33.9215 50.2801 46.2551C52.8055 46.3691 55.3255 46.5251 57.7621 46.6151" fill="white"/>
<path fill-rule="evenodd" clip-rule="evenodd" d="M71.0483 89.0049L72.4223 89.5149C67.7405 100.323 57.6341 109.715 46.8443 114.619C46.1909 114.927 45.5099 114.321 44.3843 113.815L45.1043 112.819C45.3923 113.029 45.6803 113.245 45.9623 113.461C55.7633 107.691 66.2963 99.8355 71.0483 89.0049" fill="white"/>
<path fill-rule="evenodd" clip-rule="evenodd" d="M73.9521 80.9112C74.0181 83.9112 73.4481 86.7972 72.4221 89.5152L71.0481 89.0052C76.4331 70.974 58.9095 63.75 47.3541 76.0632L46.3281 74.6052C55.1475 62.6574 73.1577 66.2544 73.9521 80.9112" fill="white"/>
<path fill-rule="evenodd" clip-rule="evenodd" d="M72.4222 89.5148C80.0332 69.497 57.844 59.75 46.3282 74.6048C39.181 64.7702 24.2596 67.7936 21.1864 78.6332C16.9924 94.4732 34.9978 110.576 46.8442 114.619C57.535 109.781 67.7212 100.36 72.4222 89.5148ZM78.3322 76.9808C83.7718 95.4902 62.7406 112.63 48.2602 119.047C39.7342 119.292 31.8748 110.928 26.0938 105.33C1.13856 78.0692 28.7002 51.1424 46.1482 68.7548C56.29 56.5262 74.5198 63.308 78.3322 76.9808" fill="#E94B59"/>
<path fill-rule="evenodd" clip-rule="evenodd" d="M64.0943 70.423C85.7441 83.0254 59.4503 106.496 45.9623 113.461C6.08753 89.9962 25.2221 58.2778 46.3583 76.573C46.5083 76.5484 46.6799 76.6468 47.3543 76.063C52.0343 71.893 57.4943 68.209 64.0943 70.423Z" fill="#E94B59"/>
<path fill-rule="evenodd" clip-rule="evenodd" d="M46.3282 74.6049L47.3542 76.0629C47.14 76.1337 47.2732 76.4493 46.3582 76.5729C37.66 69.5235 27.9718 67.8357 23.3464 79.2393C19.762 94.3329 33.7318 105.655 45.1042 112.819L44.3842 113.815C-0.822754 88.2627 29.0512 54.5199 46.3282 74.6049" fill="white"/>
<path fill-rule="evenodd" clip-rule="evenodd" d="M91.5643 150.925C99.5935 138.368 80.7805 124.262 69.2425 130.007C68.6785 137.658 68.6803 145.997 69.2557 153.925C70.3957 158.576 90.6949 153.723 91.5643 150.925ZM94.7923 142.399C99.2035 160.975 66.4603 160.043 67.2037 155.089C65.9185 150.033 67.0351 143.384 66.5653 137.912C66.9727 134.349 65.2201 130.762 67.1455 127.643C78.6223 123.381 93.6535 129.536 94.7923 142.399Z" fill="black"/>
<path fill-rule="evenodd" clip-rule="evenodd" d="M90.844 149.395C96.5344 137.866 80.278 127.064 70.4452 131.119C70.525 138.803 70.7314 146.068 70.18 153.559C76.7554 154.289 86.3122 154.211 90.844 149.395V149.395ZM88.486 133.981C107.997 158.579 65.6662 157.25 69.256 153.925C69.0058 144.58 67.8916 131.609 70.0558 129.306C76.564 127.907 83.6698 129.596 88.486 133.981" fill="white"/>
<path fill-rule="evenodd" clip-rule="evenodd" d="M89.0077 147.577C90.3919 135.762 81.7249 132.072 72.2923 132.517C72.5863 138.985 72.7363 145.489 72.4777 151.957C77.8915 152.51 86.3953 151.996 89.0077 147.577ZM85.6183 133.537C102.326 149.682 84.2203 155.756 70.1797 153.559C71.1223 146.398 69.7777 137.404 70.8577 130.688C75.9745 129.852 81.2317 130.672 85.6183 133.537Z" fill="black"/>
<path fill-rule="evenodd" clip-rule="evenodd" d="M61.8817 154.249C62.0557 158.029 56.1943 158.005 56.0197 154.249C55.9537 152.785 55.8817 151.309 55.7977 149.833L55.7383 148.099C56.4643 148.075 57.1903 148.021 57.8977 147.937C58.2211 149.679 57.3013 152.739 58.3927 154.59C61.1533 154.935 58.8199 140.435 58.8277 139.225L60.5863 138.877C61.6717 144.175 61.6903 150.037 61.8817 154.249Z" fill="black"/>
<path fill-rule="evenodd" clip-rule="evenodd" d="M60.5862 138.877L58.8276 139.225C55.425 122.843 38.6292 125.325 35.9898 140.178C33.8076 147.624 35.5626 162.272 36.4842 147.427C42.6126 148.071 49.2228 147.875 55.7382 148.099L55.7982 149.833C50.2944 150.623 44.2626 149.939 38.4996 149.803C38.889 154.037 37.4766 158.653 33.2226 155.858C31.542 148.64 32.9988 137.483 36.4062 132.144C45.3396 120.724 58.8672 125.898 60.5862 138.877Z" fill="black"/>
<path fill-rule="evenodd" clip-rule="evenodd" d="M57.868 146.365C58.0852 122.207 36.862 125.648 36.556 146.239C36.556 146.239 36.562 146.233 36.568 146.233C43.3354 145.829 50.7904 146.005 57.868 146.365ZM59.524 153.925C57.169 156.85 58.0972 149.516 57.898 147.937C51.1348 148.205 43.5094 147.974 36.484 147.427C36.4168 148.44 36.2668 156.522 34.9534 153.026C33.3088 118.001 63.3628 120.484 59.524 153.925Z" fill="white"/>
<path fill-rule="evenodd" clip-rule="evenodd" d="M55.3363 144.163C54.9355 126.724 39.7513 128.438 38.8303 144.031C44.0053 144.39 49.7929 143.905 55.3363 144.163ZM56.9683 138.319C57.5797 140.917 57.7903 143.635 57.8683 146.365C51.1081 146.007 43.6321 145.831 36.5683 146.233C36.5617 146.233 36.5563 146.239 36.5563 146.239C36.3469 129.965 52.1455 122.233 56.9683 138.319Z" fill="black"/>
<path fill-rule="evenodd" clip-rule="evenodd" d="M20.9441 153.451C29.5109 149.897 27.4589 137.63 21.6191 132.218C17.1047 128.419 8.22168 128.543 3.19608 130.123C1.77348 137.126 2.22888 146.126 3.19608 153.487C3.22008 153.649 3.36408 153.703 3.49608 153.679C8.40648 155.141 15.9251 155.504 20.9441 153.451V153.451ZM24.6401 131.521C30.4469 137.693 31.8065 150.298 23.5691 155.314C17.6477 158.184 10.6637 157.24 4.04208 156.439C-1.69872 157.617 0.755883 148.473 0.418683 144.923C0.932283 139.431 0.191883 134.342 1.34808 128.92C3.85368 123.761 23.3807 128.227 24.6401 131.521" fill="black"/>
<path fill-rule="evenodd" clip-rule="evenodd" d="M18.8619 152.737C27.7611 150.573 26.4033 138.612 20.7561 133.583C16.3011 129.649 9.60153 131.004 4.08393 131.077C3.46593 138.331 3.86793 145.513 3.74793 152.767C8.31693 152.969 14.1153 154.043 18.8619 152.737ZM26.6199 142.837C28.0797 156.128 12.0279 156.077 3.49593 153.679C3.36393 153.703 3.21993 153.649 3.19593 153.487C2.24913 146.267 1.74873 137.286 3.19593 130.123C15.4965 126.95 25.4253 130.742 26.6199 142.837Z" fill="white"/>
<path fill-rule="evenodd" clip-rule="evenodd" d="M17.2118 151.141C25.5638 150.701 24.6836 139.031 19.5134 134.774C15.746 132.097 11.2646 133.501 6.58579 132.649C6.64519 138.501 6.43759 144.652 6.23779 150.883C9.37879 151.013 13.5404 151.366 17.2118 151.141V151.141ZM25.0718 141.733C27.1832 155.896 12.1538 153.397 3.74779 152.767C3.86779 145.513 3.46579 138.331 4.08379 131.077C15.0614 130.136 22.841 130.769 25.0718 141.733Z" fill="black"/>
</svg>
