<svg width="131" height="131" viewBox="0 0 131 131" fill="none" xmlns="http://www.w3.org/2000/svg">
<path fill-rule="evenodd" clip-rule="evenodd" d="M21.5674 58.1629C14.5594 55.2349 19.5384 53.5979 21.6294 50.6669C22.4144 54.2789 34.6644 52.5599 26.7924 50.3259C13.0104 49.3839 17.5124 32.0169 30.8174 35.8659C37.1044 37.9599 36.4284 39.1859 32.6394 43.6189C30.9734 43.3759 26.4614 39.4259 24.2554 42.9399C44.3864 45.2149 36.1664 63.2089 21.5674 58.1629" fill="#413D4B"/>
<path fill-rule="evenodd" clip-rule="evenodd" d="M41.4113 57.6219C35.6273 53.3379 36.1173 41.4729 38.0773 35.5439C38.7883 35.7189 42.7913 36.6829 44.2583 37.0389C41.4443 59.5789 52.8823 57.9919 48.7613 36.7789C51.2423 36.7129 55.4563 33.4609 55.2933 36.0609C59.0983 46.5469 55.2073 65.0169 41.4113 57.6219" fill="#413D4B"/>
<path fill-rule="evenodd" clip-rule="evenodd" d="M65.0889 47.4217C75.3459 46.0707 61.5409 33.0527 63.6329 47.0257C63.6019 47.3727 63.8939 47.2317 65.0889 47.4217ZM69.9419 36.5407C79.5329 41.1077 74.8219 54.5147 63.7599 52.7997L63.9139 59.0127C54.4139 59.3567 58.6119 59.3237 57.4439 49.0377C57.2959 43.8787 57.1479 38.7277 57.1169 37.6717C59.1609 35.9127 65.7279 34.3377 69.9419 36.5407Z" fill="#413D4B"/>
<path fill-rule="evenodd" clip-rule="evenodd" d="M92.8769 52.4596V58.6416L76.5569 59.0126L75.7529 35.5206L92.0729 34.9956L92.5069 41.1776L82.0589 41.3006C80.9849 45.7996 86.9559 42.9276 90.5359 43.5646C91.4939 42.2456 90.8199 49.0786 91.1769 49.7396L82.5529 49.9246C80.8609 55.4396 90.7739 51.6516 92.8769 52.4596" fill="#413D4B"/>
<path fill-rule="evenodd" clip-rule="evenodd" d="M99.7393 46.8957C104.385 49.0677 108.398 39.2137 99.6773 41.4547C99.6643 41.4107 99.7453 46.6227 99.7393 46.8957ZM108.61 53.3256C109.31 53.7996 110.114 54.0367 111.021 54.0367V60.2187C106.214 60.7767 102.68 56.0047 99.8013 52.8617L99.8633 58.7657C99.4873 58.5207 92.4063 59.0777 93.6793 58.6267C93.6613 57.0127 93.4953 42.2307 93.4473 37.8347C95.6023 31.0917 120.346 37.3176 107.909 50.7136C106.397 51.4226 107.358 52.2366 108.61 53.3256" fill="#413D4B"/>
<path fill-rule="evenodd" clip-rule="evenodd" d="M35.3994 81.6608C35.7594 76.9268 28.5914 73.4768 25.6754 75.1778C25.6764 76.6878 25.6754 85.1498 25.6754 87.9888C27.0504 91.1248 36.7374 86.3678 35.3994 81.6608V81.6608ZM34.3164 68.0968C45.7354 73.3358 48.1104 89.5108 37.2324 94.8578C32.6374 97.6808 17.8164 98.6398 17.5554 96.1078C17.6094 91.2778 17.8514 69.3178 17.8714 67.5098C20.3044 65.4278 29.3554 65.2088 34.3164 68.0968Z" fill="#0E4969"/>
<path fill-rule="evenodd" clip-rule="evenodd" d="M61.5058 82.1512L59.5448 74.7972L56.6038 82.1102L61.5058 82.1512ZM63.7128 90.3222C51.0448 90.1462 53.9288 89.1592 50.7208 96.7772L42.5498 93.4272L55.9498 66.0952L64.1208 66.1772L73.7218 95.1842C62.5698 98.1642 66.2738 97.5482 63.7128 90.3222V90.3222Z" fill="#0E4969"/>
<path fill-rule="evenodd" clip-rule="evenodd" d="M92.3106 81.6608C92.6706 76.9268 85.5026 73.4768 82.5866 75.1778C82.5876 76.6878 82.5866 85.1498 82.5866 87.9888C83.9616 91.1248 93.6486 86.3678 92.3106 81.6608V81.6608ZM91.2276 68.0968C102.647 73.3358 105.022 89.5108 94.1436 94.8578C89.5486 97.6808 74.7276 98.6398 74.4666 96.1078C74.5206 91.2778 74.7626 69.3178 74.7826 67.5098C77.2156 65.4278 86.2666 65.2088 91.2276 68.0968Z" fill="#0E4969"/>
<path d="M65.5 129C100.57 129 129 100.57 129 65.5C129 30.4299 100.57 2 65.5 2C30.4299 2 2 30.4299 2 65.5C2 100.57 30.4299 129 65.5 129Z" stroke="#0E4969" stroke-width="2.864"/>
<path fill-rule="evenodd" clip-rule="evenodd" d="M102.157 66.0947H111.104C110.592 90.9337 113.5 85.9017 102.892 86.7677L102.157 66.0947ZM104.343 96.6347C98.8263 93.4697 103.904 84.5247 110.205 88.9937C113.244 91.9977 109.969 99.6727 104.343 96.6347Z" fill="#0E4969"/>
</svg>
