<svg width="136" height="125" viewBox="0 0 136 125" fill="none" xmlns="http://www.w3.org/2000/svg">
<g clip-path="url(#clip0_1_3853)">
<path fill-rule="evenodd" clip-rule="evenodd" d="M120.876 49.8435C120.461 53.3675 114.429 77.1365 115.52 91.2865C116.298 92.3445 124.2 105.92 125.118 104.117C128.226 98.3015 135.446 93.1065 133.907 85.4845C132.682 68.9085 128.288 49.5775 128.259 49.3225C124.268 49.4545 120.189 48.9315 120.876 49.8435V49.8435Z" fill="black"/>
<path fill-rule="evenodd" clip-rule="evenodd" d="M117.459 47.2132C120.143 52.5102 118.783 53.0012 125.011 52.7582C130.68 53.2452 129.492 51.5582 132.193 46.0342C135.198 33.8972 112.897 34.3772 117.459 47.2132Z" fill="black"/>
<path fill-rule="evenodd" clip-rule="evenodd" d="M23.1695 116.774C23.7255 115.497 24.5875 114.085 25.1425 111.768C24.2335 113.31 23.3855 113.793 23.1695 116.774ZM20.2875 72.3216C20.2105 72.4726 20.1355 72.5486 20.1355 72.7006L20.2875 72.3216ZM11.5635 92.8776C13.2115 88.1776 17.9095 77.7426 19.9835 73.0026C16.6575 78.8666 13.6555 85.7046 11.5635 92.8776V92.8776ZM37.7345 85.3686C38.6885 85.9176 47.2115 84.3066 43.6625 86.8376C40.4735 87.9486 36.5455 86.4546 34.8795 91.2806C30.0935 101.984 27.2825 112.358 22.4255 123.411C8.33952 130.248 27.2955 93.2376 27.8725 89.5396C24.1105 91.3966 16.1845 89.6386 13.3025 93.2926C10.9035 101.539 8.56652 108.089 6.38752 116.972C5.58552 118.374 5.27752 118.764 3.47252 118.21C-4.79648 114.298 6.51352 97.5966 6.63352 92.4226C4.41452 91.9296 2.24652 89.0626 6.10152 88.4786C12.2905 85.2256 16.9505 62.3716 21.3495 57.6806C21.3495 57.8316 21.6535 56.7696 21.5005 56.8456C23.6235 54.6236 30.3605 58.3296 26.3725 61.7956C22.3695 70.0176 19.3495 77.9986 15.8875 87.1136C21.6615 85.3546 30.3475 88.4056 31.5035 81.3766C34.1635 74.2306 38.9195 64.1286 41.7555 57.6396C45.4815 56.1746 50.3075 62.3006 46.8365 65.6456C44.9705 72.0846 39.9445 78.6706 37.7345 85.3686V85.3686Z" fill="black"/>
<path fill-rule="evenodd" clip-rule="evenodd" d="M51.9744 90.3246C50.3604 83.3116 44.3804 98.5116 43.2544 101.443C47.0404 99.1206 52.2564 95.6316 51.9744 90.3246ZM45.7614 119.91C42.3114 122.869 36.0314 120.093 34.8814 115.506C35.2824 111.021 36.1274 106.962 37.5644 101.594C35.4834 105.829 34.2224 110.295 34.9104 116.386C30.2374 89.7606 57.1584 76.5206 55.6204 93.2506C49.0604 107.491 40.3744 97.2346 40.5994 116.159C45.7554 123.746 62.8794 90.8766 64.9074 96.1096C65.2104 96.7166 64.9834 97.0956 64.6024 97.5506C58.0514 104.899 53.5534 113.122 45.7614 119.91V119.91Z" fill="black"/>
<path fill-rule="evenodd" clip-rule="evenodd" d="M72.6842 103.111C72.7212 102.965 74.2612 99.9413 74.2772 99.6973L72.6842 103.111ZM68.0562 94.3113C67.5712 94.0053 66.5642 94.6393 66.0082 93.2493C66.5252 93.8103 66.6072 94.0153 68.0562 94.3113ZM63.7342 118.206C63.7342 118.282 63.8092 118.282 63.8092 118.358C63.8092 118.282 63.7342 118.206 63.7342 118.206ZM69.5742 97.2693C67.0072 101.188 65.2862 105.67 63.6572 110.924C64.8632 107.02 67.5312 100.783 69.5742 97.2693ZM63.4292 111.227C63.4292 111.151 63.5062 111.076 63.5062 110.924C63.5062 111.076 63.4292 111.151 63.4292 111.227ZM63.2782 112.442C63.2782 112.366 63.3542 112.29 63.3542 112.215C63.3542 112.29 63.2782 112.29 63.2782 112.366V112.442ZM64.1892 118.966C64.1122 118.89 64.0372 118.814 64.0372 118.738L64.1122 118.814C63.7342 117.979 63.3542 117.144 63.2022 116.689L63.4292 117.676C63.3932 117.558 63.1902 116.269 63.0512 115.779C63.0512 115.779 63.0512 115.855 63.1262 115.932C63.0972 115.038 63.0792 114.015 63.2782 112.442C62.9862 114.16 62.5802 117.066 64.4172 119.497C64.4172 119.421 64.4172 119.345 64.3392 119.345C64.7952 119.8 65.4022 120.179 66.0852 120.406C65.2502 120.103 64.6442 119.497 64.1892 118.89V118.966ZM69.8022 119.8L69.2722 120.027C62.0772 125.947 60.7772 109.065 63.8092 108.725C63.9312 107.066 67.4532 99.5903 68.5122 97.7253C57.4192 100.612 59.1502 83.3223 67.8292 86.7263C69.6222 85.6123 67.1562 92.4023 68.2092 88.3933C63.7712 95.1893 66.5072 94.0393 72.9122 94.9943C72.1812 94.7083 70.6482 94.6533 69.1942 94.3113C71.1542 94.5563 76.6602 94.5093 75.1872 98.4073C72.9702 104.072 61.7962 124.953 74.4292 112.215C73.4072 112.651 93.2302 85.1043 87.7042 98.4833C83.7082 105.245 76.4572 116.42 69.8022 119.8V119.8Z" fill="black"/>
<path fill-rule="evenodd" clip-rule="evenodd" d="M98.8739 91.9216V91.8446C98.7979 91.9976 98.7209 92.0726 98.7979 92.0726C98.4189 92.6036 97.9629 93.0586 97.5069 93.8936C100.43 90.1746 93.6729 101.048 96.8259 103.376C103.794 108.234 105.56 93.6386 104.487 89.1146C103.157 87.0446 100.033 90.0376 98.8739 91.9216V91.9216ZM92.5779 100.494C92.0469 101.1 90.9839 102.921 89.8459 105.197L90.3009 104.514C79.5399 125.787 95.7419 117.759 100.846 106.182C97.5069 105.727 93.4109 104.287 92.5779 100.494ZM106.915 106.182C105.125 106.98 102.731 113.025 100.542 113.997C100.542 113.997 101.149 113.238 101.074 113.162L98.8739 115.741C99.2899 116.566 94.5439 119.861 92.0099 120.851C87.1059 122.608 81.9669 118.215 80.8199 113.301C80.2739 106.071 84.8299 98.1866 91.8929 94.9376C96.8969 90.8716 99.2119 79.3616 107.749 89.1146L107.446 88.8106C107.516 88.8866 107.527 89.1056 107.825 89.4936C111.092 91.5846 108.448 99.5456 107.295 103.679C109.22 103.646 113.178 101.902 115.487 102.39C117.686 105.197 108.811 105.803 107.976 105.955C107.825 105.955 106.839 106.258 106.915 106.182V106.182Z" fill="black"/>
<path fill-rule="evenodd" clip-rule="evenodd" d="M28.5734 25.0155C18.1474 13.5115 27.9824 -12.8225 29.3574 7.38847C30.3004 18.4155 30.0264 24.3055 36.7064 15.9665C42.1074 11.1165 52.0124 -5.34853 52.4744 6.28147C46.5834 11.8855 37.8954 22.1545 34.0534 25.9905C31.7414 28.2735 29.4264 54.4725 23.3364 44.3215C24.1684 38.0835 26.1164 32.0025 28.5734 25.0155V25.0155Z" fill="black"/>
<path fill-rule="evenodd" clip-rule="evenodd" d="M49.0531 34.4731C49.3021 39.0401 55.4861 34.3271 56.5571 30.2231C61.2521 18.4721 48.6341 28.2441 49.0531 34.4731ZM53.4201 40.3631C39.4101 46.4991 41.6101 28.0511 49.6451 22.2761C67.1231 9.81806 65.8701 34.5411 53.4201 40.3631Z" fill="black"/>
<path fill-rule="evenodd" clip-rule="evenodd" d="M77.66 35.7949C75.023 42.0539 64.839 43.1879 65.418 34.6379C65.766 31.3299 69.535 14.3979 74.553 20.6899C75.728 24.1279 65.033 41.1859 74.655 34.3059C79.65 31.0659 78.847 14.0699 85.088 22.2349C85.774 27.3809 78.789 36.7599 83.374 38.9839C85.669 45.3219 77.07 42.8929 77.66 36.7089V35.7949Z" fill="black"/>
<path fill-rule="evenodd" clip-rule="evenodd" d="M99.6335 10.2586C98.9395 12.3816 93.7475 19.1716 92.2805 14.0276C93.7295 10.7386 95.7495 8.7956 95.8065 7.4766C94.7335 7.6976 92.3835 6.4006 93.0355 3.8526C97.7375 -4.4474 104.219 2.8116 99.6335 10.2586Z" fill="black"/>
<path fill-rule="evenodd" clip-rule="evenodd" d="M103.829 25.4203C107.048 21.7013 117.648 17.6743 115.661 24.4373C110.917 26.4393 102.436 29.2134 100.282 36.0694C99.6641 38.1294 100.077 39.7124 97.6041 41.2154C90.7771 41.9564 97.7531 17.5264 102.262 17.8294C108.793 16.4234 97.3891 32.3123 103.829 25.4203V25.4203Z" fill="black"/>
<path fill-rule="evenodd" clip-rule="evenodd" d="M124.522 27.3705C127.935 28.8765 134.571 22.5175 128.448 22.3965C127.677 22.4175 121.867 26.3765 124.522 27.3705ZM129.078 31.4275C126.439 32.8675 121.094 28.4795 121.445 34.0285C122.067 39.5845 127.211 36.0335 130.64 34.0275C135.685 35.2385 130.173 40.9995 126.219 41.8755C109.523 44.9995 116.627 18.3035 128.875 17.9515C138.228 17.8885 137.421 28.3665 129.078 31.4275Z" fill="black"/>
<path fill-rule="evenodd" clip-rule="evenodd" d="M59.634 58.1222C64.743 53.4712 75.587 45.6262 71.389 59.5832C80.695 51.0802 82.573 52.7622 83.751 64.6992C85.952 65.3672 87.801 69.1102 83.456 69.5652C76.685 70.7502 78.67 61.7302 77.614 59.9452C74.174 61.6252 61.287 77.5152 65.724 61.9572C70.965 49.9752 58.319 68.8452 54.936 69.2742C48.937 67.5052 54.994 57.0622 56.285 50.6312C54.755 45.7412 66.683 43.9792 59.634 58.1222V58.1222Z" fill="black"/>
<path fill-rule="evenodd" clip-rule="evenodd" d="M87.2812 78.1368C96.6452 66.2308 91.2202 72.2948 89.5372 64.0288C86.8522 60.6888 89.2302 37.1438 94.1282 50.5778C94.3352 55.6448 93.5872 63.3828 95.3232 64.6378C97.4592 61.3708 103.855 39.0298 106.615 52.3018C100.856 64.9148 92.3572 91.2418 77.7182 82.1748C76.9242 81.1268 76.4852 80.9568 77.3882 78.9808C80.2852 76.5848 84.3662 82.0348 87.2812 78.1368V78.1368Z" fill="black"/>
</g>
<defs>
<clipPath id="clip0_1_3853">
<rect width="136" height="125" fill="white"/>
</clipPath>
</defs>
</svg>
