<svg width="172" height="140" viewBox="0 0 172 140" fill="none" xmlns="http://www.w3.org/2000/svg">
<path fill-rule="evenodd" clip-rule="evenodd" d="M43.0885 70.6146C41.4647 81.5069 40.5586 142.472 48.6517 116.706C45.9154 83.3861 61.632 59.0055 71.7327 74.6332C79.1698 97.9556 61.3519 120.294 51.2404 114.344C64.5248 133.645 89.1339 84.0513 74.5008 71.6093C60.9522 59.3222 50.6164 74.5398 47.6409 89.6493C47.2362 80.7008 50.0263 67.001 47.0897 67C46.2683 67 45.0004 68.0702 43.0885 70.6146" fill="black"/>
<path fill-rule="evenodd" clip-rule="evenodd" d="M108.428 109.621C107.431 106.733 108.259 103.8 107.897 99.802C118.546 96.4492 98.1411 91.5388 94.5762 119.708C93.4247 115.597 98.1421 88.23 90.0733 101.074C81.7619 97.9888 77.319 103.157 76.2537 108.326C74.7984 115.39 79.6532 122.454 89.5681 108.442C92.4004 143.23 97.8755 113.821 103.564 103.002C101.986 116.518 110.796 117.138 114.766 105.315C115.129 110.474 115.15 114.846 114.986 120.699C82.278 131.131 118.315 157.104 119.991 122.952C122.861 122.16 130.385 127.846 124.203 128.029C113.713 132.916 139.175 133.851 126.244 122.238C124.528 121.217 122.464 120.604 120.129 120.412C120.013 104.344 120.69 94.002 118.382 94C116.82 93.999 113.893 98.7296 108.428 109.621V109.621ZM89.3978 103.204C86.1616 110.566 83.3774 112.808 81.6055 113.387C78.4154 111.581 83.7021 100.359 89.3978 103.204ZM105.061 135.424C101.987 130.161 109.728 124.372 114.847 123.434C114.504 129.273 112.957 136.45 108.367 136.45C107.405 136.45 106.308 136.134 105.061 135.424Z" fill="black"/>
<path fill-rule="evenodd" clip-rule="evenodd" d="M28.9143 7.12831C19.7512 5.64852 -3.94201 2.48192 0.564088 17.4372C4.59058 22.8717 8.87723 19.8265 10.6119 16.7813C12.1342 14.1093 11.6933 11.4364 7.38678 14.4945C5.54085 18.909 2.30476 15.7912 3.9233 12.6733C5.49219 9.65104 11.6258 6.62775 28.0147 10.471C27.1995 14.8199 26.9026 21.2904 27.2213 28.0396C21.0341 30.5026 18.1714 27.9818 17.7981 25.4611C17.4416 23.0618 19.3441 20.6615 22.7838 22.5622C22.9784 22.6388 24.2365 21.9074 23.5285 20.5868C16.3076 15.8608 12.6952 20.4873 13.5432 25.1128C14.3098 29.2945 18.7215 33.4771 27.409 30.7484C32.5446 63.4274 13.2999 62.1108 12.9593 44.8418C-0.409021 60.4867 41.3265 72.2763 33.061 28.6178C35.9674 27.4166 39.692 23.0887 42.5707 22.5214C47.5981 17.6173 36.4341 21.5362 32.8495 25.5139C32.4622 19.7748 32.4811 14.4457 32.8962 10.9617C42.802 11.5458 46.1831 8.53248 45.9924 5.51715C45.8167 2.75858 42.6481 0 38.7507 0C35.5454 0 31.8476 1.86493 28.9143 7.12831V7.12831ZM33.625 7.67068C34.2943 3.93983 41.2997 0.929478 43.2171 5.44351C42.9043 7.51941 41.0584 8.00405 38.7586 8.00405C37.1461 8.00405 35.3111 7.76522 33.625 7.67068" fill="black"/>
<path fill-rule="evenodd" clip-rule="evenodd" d="M80.6799 16.5526C78.4432 17.4075 76.0609 18.444 72.318 19.4242C77.2939 4.29366 67.5923 5.8609 67.0551 20.4898C66.8308 20.3865 66.2916 20.4788 65.6576 20.5721C63.983 20.8179 61.6426 21.0637 62.6683 17.6894C60.9269 14.0633 58.3961 16.9048 58.8666 19.7463C59.2205 21.8814 61.2708 24.0176 66.6315 23.4045C65.8849 29.9775 59.7149 48.4894 57.3784 54.5075C56.3518 50.3335 60.7316 22.35 52.866 36.0638C44.9208 32.2942 40.4144 37.6732 39.284 43.0532C37.7879 50.176 42.2086 57.2978 52.3996 43.1877C53.5169 72.0381 60.9289 57.046 64.6868 40.7977C63.7059 55.7226 69.0207 62.6617 77.6238 47.3987C80.8175 75.0702 83.8925 39.088 89.8871 38.4488C89.0807 57.9169 92.1837 72.5327 101.785 48.4382C112.241 62.3025 121.306 38.4568 123.895 30.8324C135.523 27.7912 115.869 51.7503 126.114 54.4804C129.976 54.6209 140.668 37.7083 137.381 36.6769C134.694 38.4448 130.841 47.771 128.705 49.581C129.626 38.5783 141.085 25.6731 124.741 28.1705C126.698 16.947 116.932 21.4751 114.76 26.0042C113.553 28.5196 114.69 31.034 121.476 30.8524C119.822 37.9903 105.695 62.8413 105.632 41.4749C126.419 36.5836 106.569 14.4847 95.7152 54.8406C97.4646 36.7742 91.459 20.0122 81.885 47.0777C81.7844 45.689 81.6179 42.1753 82.0226 37.4264C86.9546 34.3742 93.9699 26.8842 97.1008 19.7002C96.0621 23.5751 104.013 21.8092 98.6159 16.1523C101.989 6.05254 99.3664 2.001 95.161 2C90.0107 1.999 82.4861 8.07229 80.6799 16.5526V16.5526ZM97.3569 9.64154C97.3161 10.9569 96.8894 12.8242 96.1817 14.8941C93.1844 13.9138 90.0077 13.958 85.8093 14.9964C87.0702 9.53518 95.2667 -0.346844 97.3569 9.64154V9.64154ZM84.9401 17.7165C87.3065 16.9088 92.1578 16.1864 95.2627 17.3473C93.1027 23.4236 87.0104 30.6929 82.1641 34.2468C82.3765 30.6919 83.2267 23.846 84.9401 17.7165ZM71.6392 22.5116C73.561 22.0199 76.2772 21.1339 79.7789 19.652C76.1187 29.7317 81.0777 42.1472 71.4508 51.1422C71.1917 51.2867 70.9564 51.356 70.7441 51.356C66.468 51.356 71.401 23.3795 71.6392 22.5116ZM120.104 28.1935C120.336 27.6959 123.741 23.5029 122.202 28.1935C122.023 28.1925 121.97 28.1986 121.88 28.2056C121.8 28.2106 121.689 28.2166 121.432 28.2166C121.175 28.2166 120.771 28.2106 120.104 28.1935ZM111.967 34.6953C111.835 36.5625 109.383 37.6622 106.565 38.5522C107.25 37.3451 109.646 32.1066 111.967 34.6953ZM52.3716 37.599C49.8887 43.7616 45.9823 48.0007 44.4802 48.1563C41.461 46.0041 46.3561 35.2561 52.3716 37.599Z" fill="black"/>
<path fill-rule="evenodd" clip-rule="evenodd" d="M141.434 23.1118C141.614 23.3523 140.789 24.1088 141.249 25.9863C143.41 26.3005 147.343 21.1442 143.139 19.0737C142.979 19.0233 142.812 19 142.642 19C140.727 19 138.465 21.9665 141.434 23.1118Z" fill="black"/>
<path fill-rule="evenodd" clip-rule="evenodd" d="M154.383 43.2284C133.203 67.7826 169.885 63.8599 159.206 41.302C166.611 34.882 168.428 34.6674 168.21 43.2653C170.144 44.2595 174.313 39.679 170.347 35.3401C166.741 32.6352 161.635 35.5298 158.117 39.2817C157.065 37.542 155.897 35.8012 154.907 34.336C159.224 25.8289 156.349 22.001 152.916 22C147.977 21.998 141.883 29.9202 154.383 43.2284V43.2284ZM154.22 25.2789C154.383 25.4785 154.729 26.1812 154.339 28.3462C154.173 29.1387 153.916 30.3644 153.319 31.7788C152.643 30.9683 150.659 25.6003 154.22 25.2789ZM155.307 45.4772C156.636 49.3759 156.683 52.4152 155.461 54.7469C153.659 56.7881 152.398 57.6056 151.593 57.6066C148.951 57.6076 151.208 48.794 155.307 45.4772Z" fill="black"/>
<path fill-rule="evenodd" clip-rule="evenodd" d="M117.993 68.3433C111.039 58.0845 105.416 64.924 99.449 71.7645C94.5172 77.4168 89.3501 83.0701 83 79.069C85.8879 90.8357 118.478 83.3811 117.993 71.6036C119.633 87.0388 153.68 88.0905 152.99 79.069C146.238 82.658 140.991 77.1323 136.151 71.6065C132.383 67.3033 128.862 63 125.071 63C122.841 62.999 120.517 64.4884 117.993 68.3433" fill="black"/>
</svg>
