<svg width="157" height="149" viewBox="0 0 157 149" fill="none" xmlns="http://www.w3.org/2000/svg">
<g clip-path="url(#clip0_1_5413)">
<path fill-rule="evenodd" clip-rule="evenodd" d="M111.671 117.081H65.4021L72.3831 108.285L65.4021 99.4888H111.671L105.089 108.285L111.671 117.081Z" fill="#E05977"/>
<path fill-rule="evenodd" clip-rule="evenodd" d="M111.671 117.081H65.4021L72.3831 108.285L65.4021 99.4888H111.671L105.089 108.285L111.671 117.081Z" stroke="#124A83" stroke-width="2" stroke-linecap="round" stroke-linejoin="round"/>
<path fill-rule="evenodd" clip-rule="evenodd" d="M123.48 36.5065C121.883 49.8395 56.8997 49.2085 53.7157 37.3475C51.5067 22.9995 123.372 23.4825 123.48 36.5065Z" fill="#E05977"/>
<path fill-rule="evenodd" clip-rule="evenodd" d="M123.48 36.5065C121.883 49.8395 56.8997 49.2085 53.7157 37.3475C51.5067 22.9995 123.372 23.4825 123.48 36.5065Z" stroke="#124A83" stroke-width="2" stroke-linecap="round" stroke-linejoin="round"/>
<path fill-rule="evenodd" clip-rule="evenodd" d="M111.038 30.8676C110.012 39.7516 65.7993 38.8056 66.0403 30.8676C68.1513 10.7206 63.8353 5.14663 84.4733 2.68363C114.417 0.586633 107.856 15.5136 111.038 30.8676Z" fill="#418DD2"/>
<path fill-rule="evenodd" clip-rule="evenodd" d="M111.038 30.8676C110.012 39.7516 65.7993 38.8056 66.0403 30.8676C68.1513 10.7206 63.8353 5.14663 84.4733 2.68363C114.417 0.586633 107.856 15.5136 111.038 30.8676Z" stroke="#124A83" stroke-width="2" stroke-linecap="round" stroke-linejoin="round"/>
<path fill-rule="evenodd" clip-rule="evenodd" d="M107.471 8.81751C98.0299 16.1835 72.0749 11.5575 68.8169 8.29051C74.0379 1.28251 102.491 -0.0974889 107.471 8.81751Z" fill="#74BFDF"/>
<path fill-rule="evenodd" clip-rule="evenodd" d="M107.471 8.81751C98.0299 16.1835 72.0749 11.5575 68.8169 8.29051C74.0379 1.28251 102.491 -0.0974889 107.471 8.81751Z" stroke="#124A83" stroke-width="2" stroke-linecap="round" stroke-linejoin="round"/>
<path fill-rule="evenodd" clip-rule="evenodd" d="M73.3303 54.2583C73.3263 57.3243 71.8623 64.2403 72.1783 68.0463C71.9823 68.4083 71.9523 68.6433 70.9143 68.3783C69.4653 67.2783 70.2883 64.7873 70.3593 62.1273C70.1443 62.2403 69.2943 61.7773 68.1653 62.0163C67.8103 63.1843 67.6033 64.9053 67.5453 67.1813C66.7433 67.5113 65.1323 67.1233 65.6393 65.2083C66.2553 63.7913 65.5323 56.7793 67.2343 55.3003C67.2523 55.4793 67.7373 55.2413 68.3873 55.9653C68.6843 56.5943 68.4143 58.7733 68.2763 60.3543C68.4533 60.4873 68.6753 60.5683 68.9413 60.5983C69.1183 60.6283 69.3703 60.6353 69.6953 60.6203C70.1233 60.5913 70.3823 60.5753 70.4713 60.5753C71.0713 59.6613 70.6493 55.6773 72.0003 53.7713C72.7833 53.6973 73.2263 53.8593 73.3303 54.2583" fill="#124A83"/>
<path fill-rule="evenodd" clip-rule="evenodd" d="M80.6008 61.3514C80.5558 60.8054 80.4598 60.1914 80.3128 59.5114C80.1638 58.9204 80.0248 58.3294 79.8908 57.7384C79.4478 58.9654 79.0638 60.1914 78.7388 61.4174C78.9748 61.3734 79.5948 61.3514 80.6008 61.3514V61.3514ZM83.8368 65.5854C83.9198 65.8894 84.2718 66.6964 83.0828 67.2924C81.6628 67.0094 81.6298 64.4734 80.9778 62.7264C80.4748 62.7704 79.9718 62.8144 79.4698 62.8584C78.8938 62.9334 78.4428 63.1104 78.1178 63.3914C77.8378 64.1054 77.3208 66.8314 76.7438 68.2894C76.6248 68.5554 76.3738 68.6294 75.9898 68.5114C75.5018 68.3484 75.2438 68.1264 75.2138 67.8464C75.1698 67.2844 75.3318 66.5314 75.7018 65.5854C77.0518 64.1654 75.0858 62.4414 76.8098 61.7944C77.8098 60.9764 77.9078 53.1044 80.4898 53.5494C80.9038 53.9034 81.1688 54.4354 81.2878 55.1444C81.3758 55.7504 81.4568 56.3564 81.5318 56.9624C82.2708 60.4504 83.0388 63.3244 83.8368 65.5854" fill="#124A83"/>
<path fill-rule="evenodd" clip-rule="evenodd" d="M90.5968 57.2728C90.6708 56.6818 90.4198 56.2168 89.8428 55.8768C89.8138 55.8768 89.2818 55.6628 88.2468 55.2338C88.4088 57.9528 88.4608 59.8588 88.4028 60.9528C89.7178 59.7108 90.4498 58.4848 90.5968 57.2728ZM92.0378 58.9798C91.5048 60.1848 90.6928 61.4618 89.5768 62.4158C89.1488 62.7558 88.7198 62.9618 88.2918 63.0358C87.9328 64.3018 88.9538 67.2498 87.6268 68.8658C84.6558 66.3798 87.5468 59.2688 86.4298 54.6348C86.3258 54.6788 86.2168 54.5078 85.8308 54.0808C85.9058 53.6078 86.0308 53.3718 86.2078 53.3718C88.5548 53.2308 93.7888 55.0708 92.0378 58.9798" fill="#124A83"/>
<path fill-rule="evenodd" clip-rule="evenodd" d="M99.4418 57.2728C99.5158 56.6818 99.2648 56.2168 98.6878 55.8768C98.6588 55.8768 98.1268 55.6628 97.0918 55.2338C97.2538 57.9528 97.3058 59.8588 97.2478 60.9528C98.5628 59.7108 99.2948 58.4848 99.4418 57.2728ZM100.883 58.9798C100.35 60.1848 99.5378 61.4618 98.4218 62.4158C97.9938 62.7558 97.5648 62.9618 97.1368 63.0358C96.7778 64.3018 97.7988 67.2498 96.4718 68.8658C93.5008 66.3798 96.3918 59.2688 95.2748 54.6348C95.1708 54.6788 95.0618 54.5078 94.6758 54.0808C94.7508 53.6078 94.8758 53.3718 95.0528 53.3718C97.3998 53.2308 102.634 55.0708 100.883 58.9798" fill="#124A83"/>
<path fill-rule="evenodd" clip-rule="evenodd" d="M110.636 53.5267C110.115 56.6407 106.177 64.1717 105.738 67.3807C105.752 67.8687 105.752 68.1787 105.738 68.3117C105.693 68.8287 105.419 69.0877 104.917 69.0877C104.819 68.9997 104.148 69.2447 103.699 68.2007C103.742 67.1217 104.016 65.8887 104.518 64.4997C104.976 63.3177 105.435 62.1347 105.893 60.9527C104.843 58.1447 103.949 56.0907 103.21 54.7907C103.049 54.3467 103.469 53.5857 104.807 54.1477C105.321 54.9597 105.909 56.1377 106.956 58.5807C107.292 57.6817 107.981 55.1007 108.974 53.4157C109.459 53.1727 109.55 52.8457 110.636 53.5267" fill="#124A83"/>
<path fill-rule="evenodd" clip-rule="evenodd" d="M57.1409 77.8389C57.3959 78.6569 57.3519 79.4219 57.0079 80.1359L51.8989 80.2999L51.7429 82.9089L55.9299 82.8309C56.3259 83.5919 56.2969 84.3079 55.8439 84.9799L51.5709 85.1589L51.2889 89.5729C50.2939 89.9999 49.4429 89.9899 48.7349 89.5419L49.4219 78.4949C49.4799 78.2919 49.6019 78.1469 49.7889 78.0579L57.1409 77.8389Z" fill="#124A83"/>
<path fill-rule="evenodd" clip-rule="evenodd" d="M64.3157 81.503L63.0887 85.347L64.9957 85.12L64.3157 81.503ZM65.6517 77.776L68.7767 89.026C68.0627 89.495 67.1357 89.62 65.9957 89.401L65.4327 87.308L62.5347 87.667L61.8157 89.776C60.6547 89.933 59.7897 89.769 59.2217 89.284L63.3157 77.87C64.1387 77.355 64.9177 77.323 65.6517 77.776V77.776Z" fill="#124A83"/>
<path fill-rule="evenodd" clip-rule="evenodd" d="M79.639 77.8545C79.998 78.6875 79.978 79.5235 79.577 80.3625L76.694 80.4015L76.272 89.4875C75.48 89.8255 74.613 89.8205 73.67 89.4715L74.178 80.5025L71.342 80.5655C70.764 79.5915 70.741 78.7635 71.272 78.0815L79.639 77.8545Z" fill="#124A83"/>
<path fill-rule="evenodd" clip-rule="evenodd" d="M85.096 78.0732L84.869 82.4402L88.58 82.2532L88.877 78.1822C89.679 77.7922 90.45 77.7972 91.19 78.1982L90.658 89.3152C89.695 89.8002 88.854 89.8202 88.135 89.3782L88.362 84.6042L84.698 84.7602L84.416 89.5262C83.296 89.8122 82.45 89.7502 81.877 89.3392L82.549 78.3622C83.31 77.8102 84.159 77.7142 85.096 78.0732" fill="#124A83"/>
<path fill-rule="evenodd" clip-rule="evenodd" d="M101.31 77.8389C101.565 78.6569 101.521 79.4219 101.177 80.1359L96.0677 80.2999L95.9267 82.2999L100.123 82.2139C100.513 82.9749 100.482 83.6929 100.029 84.3699L95.7547 84.5499L95.5437 86.9719L100.787 86.8159C101.219 87.7369 101.159 88.6019 100.607 89.4089L93.3017 89.6979C93.0787 89.6559 92.9397 89.4919 92.8877 89.2059L93.5907 78.4949C93.6487 78.2919 93.7707 78.1469 93.9577 78.0579L101.31 77.8389Z" fill="#124A83"/>
<path fill-rule="evenodd" clip-rule="evenodd" d="M106.867 80.2061L106.531 83.4331C110.687 83.7361 112.467 79.4931 106.867 80.2061ZM105.219 78.0181C111.8 76.0641 116.497 81.4601 109.765 85.1121L112.531 88.6831C112.02 89.7081 111.167 90.0391 109.969 89.6751L107.226 85.6981L106.312 85.7921L105.945 89.4871C104.878 89.8621 104.026 89.7791 103.39 89.2371L104.383 78.5501L105.219 78.0181Z" fill="#124A83"/>
<path fill-rule="evenodd" clip-rule="evenodd" d="M117.113 77.4246L116.769 81.8306C116.102 82.2266 115.426 82.2346 114.738 81.8546L115.097 77.3696C115.821 77.2036 116.493 77.2216 117.113 77.4246" fill="#124A83"/>
<path fill-rule="evenodd" clip-rule="evenodd" d="M119.319 88.3387C118.98 87.1567 119.178 86.2397 119.913 85.5887C121.252 86.3757 122.222 86.8597 122.827 87.0417C123.952 87.0317 124.569 86.7507 124.678 86.1977C124.705 85.7557 124.361 85.3287 123.647 84.9167L121.639 83.9407C120.384 83.2737 119.733 82.3337 119.686 81.1197C119.802 78.0257 124.048 76.9047 127.436 79.1197C127.478 80.1047 127.171 80.9617 126.514 81.6907C125.249 80.7427 124.236 80.2997 123.475 80.3617C122.461 80.2677 121.627 81.4597 123.85 82.4407C126.497 83.0827 128.933 86.8097 125.569 89.1047C124.913 89.5627 123.965 89.7527 122.725 89.6747C121.543 89.5237 120.408 89.0787 119.319 88.3387" fill="#124A83"/>
<path fill-rule="evenodd" clip-rule="evenodd" d="M81.7873 106.888C81.6823 106.15 81.0553 105.499 79.9063 104.937C79.8243 106.894 79.8013 108.968 79.8363 111.159C80.7753 110.13 81.9953 108.612 81.7873 106.888ZM83.0533 108.769C82.9343 109.038 82.8243 109.308 82.7193 109.577C82.5783 109.893 82.4253 110.146 82.2623 110.333C81.7823 110.858 81.1733 111.919 79.9943 112.811C79.8703 112.978 79.0803 114.012 78.3943 113.075C78.1943 110.702 78.6543 107.596 78.3943 104.269C78.3833 104.258 78.2543 104.123 78.0083 103.865C77.9903 103.741 77.3853 103.292 78.2013 103.021C78.3533 102.998 78.5063 102.98 78.6583 102.969C80.2953 103.546 84.1053 105.172 83.0533 108.769Z" fill="#124A83"/>
<path fill-rule="evenodd" clip-rule="evenodd" d="M88.7649 108.453C88.7299 108.019 88.6529 107.533 88.5359 106.994C88.4189 106.525 88.3079 106.057 88.2029 105.588C87.8509 106.56 87.5459 107.533 87.2879 108.506C87.4759 108.471 87.9679 108.453 88.7649 108.453ZM91.3299 111.81C91.4649 114.143 89.4509 112.958 89.0639 109.543C88.6649 109.578 88.2659 109.613 87.8689 109.648C87.4109 109.707 87.0539 109.848 86.7959 110.07C86.5819 110.586 86.3429 112.157 85.7059 113.954C85.6129 114.165 85.4129 114.224 85.1089 114.13C84.7219 114.001 84.5169 113.825 84.4939 113.603C84.4579 113.158 84.5869 112.56 84.8799 111.81C85.8709 110.901 84.4179 109.241 85.7589 108.805C86.5829 108.104 86.5409 102.123 88.6769 102.266C89.0039 102.547 89.2149 102.969 89.3099 103.532C89.3799 104.012 89.4439 104.493 89.5029 104.973C90.0879 107.738 90.6979 110.017 91.3299 111.81" fill="#124A83"/>
<path fill-rule="evenodd" clip-rule="evenodd" d="M98.554 102.248C98.168 104.624 95.039 110.651 94.67 113.233C94.682 113.62 94.682 113.866 94.67 113.972C94.635 114.382 94.418 114.587 94.02 114.587C93.942 114.517 93.41 114.712 93.053 113.884C93.088 113.028 93.305 112.05 93.703 110.948C94.067 110.011 94.43 109.074 94.793 108.136C93.961 105.91 93.252 104.281 92.666 103.25C92.77 102.954 92.465 102.213 93.932 102.74C94.34 103.384 94.806 104.318 95.637 106.255C95.985 105.385 96.182 104.137 97.237 102.16C97.619 101.968 97.694 101.707 98.554 102.248" fill="#124A83"/>
<path fill-rule="evenodd" clip-rule="evenodd" d="M126.251 122.506C131.668 129.481 120.418 136.388 112.091 132.29C102.572 126.075 95.5731 117.791 88.5361 132.177C80.4801 116.02 72.9311 128.318 64.2191 132.638C54.3901 136.438 46.0101 127.877 50.8221 122.506C35.3191 145.585 81.9941 157.229 88.5361 141.23C90.2751 148.688 106.856 150.887 119.228 145.402C129.527 140.901 131.82 127.755 126.251 122.506" fill="#136C99"/>
<path fill-rule="evenodd" clip-rule="evenodd" d="M126.251 122.506C131.668 129.481 120.418 136.388 112.091 132.29C102.572 126.075 95.5731 117.791 88.5361 132.177C80.4801 116.02 72.9311 128.318 64.2191 132.638C54.3901 136.438 46.0101 127.877 50.8221 122.506C35.3191 145.585 81.9941 157.229 88.5361 141.23C90.2751 148.688 106.856 150.887 119.228 145.402C129.527 140.901 131.82 127.755 126.251 122.506" fill="#418DD2"/>
<path fill-rule="evenodd" clip-rule="evenodd" d="M126.251 122.506C131.668 129.481 120.418 136.388 112.091 132.29C102.572 126.075 95.5731 117.791 88.5361 132.177C80.4801 116.02 72.9311 128.318 64.2191 132.638C54.3901 136.438 46.0101 127.877 50.8221 122.506C35.3191 145.585 81.9941 157.229 88.5361 141.23C90.2751 148.688 106.856 150.887 119.228 145.402C129.527 140.901 131.82 127.755 126.251 122.506V122.506Z" stroke="#124A83" stroke-width="2" stroke-linecap="round" stroke-linejoin="round"/>
<path d="M91.8381 138.805C92.6051 140.37 93.7391 141.617 95.0461 142.329" stroke="#124A83" stroke-width="0.75" stroke-linecap="round" stroke-linejoin="round"/>
<path d="M93.1672 137.282C93.8812 139.194 95.4412 140.502 97.0582 140.542" stroke="#124A83" stroke-width="0.75" stroke-linecap="round" stroke-linejoin="round"/>
<path d="M96.719 144.616C97.638 145.441 98.744 145.899 99.856 145.916" stroke="#124A83" stroke-width="0.75" stroke-linecap="round" stroke-linejoin="round"/>
<path d="M97.7561 142.91C98.7111 143.602 99.8191 143.925 100.905 143.828" stroke="#124A83" stroke-width="0.75" stroke-linecap="round" stroke-linejoin="round"/>
<path d="M99.8206 140.9C101.044 142.003 102.587 142.469 104.051 142.179" stroke="#124A83" stroke-width="0.75" stroke-linecap="round" stroke-linejoin="round"/>
<path d="M99.8694 137.921C100.834 138.731 101.951 139.224 103.092 139.342" stroke="#124A83" stroke-width="0.75" stroke-linecap="round" stroke-linejoin="round"/>
<path d="M106.246 142.299C107.327 142.554 108.407 142.808 109.488 143.063" stroke="#124A83" stroke-width="0.75" stroke-linecap="round" stroke-linejoin="round"/>
<path d="M110.882 145.515C112.188 145.701 113.528 145.466 114.751 144.836" stroke="#124A83" stroke-width="0.75" stroke-linecap="round" stroke-linejoin="round"/>
<path d="M111.316 141.293H114.99" stroke="#124A83" stroke-width="0.75" stroke-linecap="round" stroke-linejoin="round"/>
<path d="M106.974 138.199C107.899 138.753 108.9 139.081 109.913 139.159" stroke="#124A83" stroke-width="0.75" stroke-linecap="round" stroke-linejoin="round"/>
<path d="M116.654 138.27C118.127 138.528 119.671 137.983 120.847 136.789" stroke="#124A83" stroke-width="0.75" stroke-linecap="round" stroke-linejoin="round"/>
<path d="M116.738 140.852C117.891 140.945 119.064 140.558 120.048 139.76" stroke="#124A83" stroke-width="0.75" stroke-linecap="round" stroke-linejoin="round"/>
<path d="M116.913 143.148C117.935 143.172 118.959 142.666 119.718 141.761" stroke="#124A83" stroke-width="0.75" stroke-linecap="round" stroke-linejoin="round"/>
<path d="M122.339 137.059C123.11 136.991 123.836 136.328 124.154 135.398" stroke="#124A83" stroke-width="0.75" stroke-linecap="round" stroke-linejoin="round"/>
<path d="M122.538 139.823C122.823 139.392 123.108 138.962 123.393 138.531" stroke="#124A83" stroke-width="0.75" stroke-linecap="round" stroke-linejoin="round"/>
<path d="M92.9631 130.683C92.8671 131.8 92.9071 132.936 93.0791 134.037" stroke="#124A83" stroke-width="0.75" stroke-linecap="round" stroke-linejoin="round"/>
<path d="M89.7962 136.217C89.7922 137.711 90.0902 139.203 90.6482 140.503" stroke="#124A83" stroke-width="0.75" stroke-linecap="round" stroke-linejoin="round"/>
<path d="M95.7307 134.603C95.7587 135.687 96.3577 136.706 97.1477 137.011" stroke="#124A83" stroke-width="0.75" stroke-linecap="round" stroke-linejoin="round"/>
<path d="M95.5159 128.787C95.1419 129.806 95.3239 130.973 95.9449 131.548" stroke="#124A83" stroke-width="0.75" stroke-linecap="round" stroke-linejoin="round"/>
<path d="M50.9221 132.999C51.1171 134.046 50.9511 133.669 51.9091 136.001" stroke="#124A83" stroke-width="0.75" stroke-linecap="round" stroke-linejoin="round"/>
<path d="M86.8783 133.79C86.9303 134.645 87.5413 136.05 86.4163 137.681" stroke="#124A83" stroke-width="0.75" stroke-linecap="round" stroke-linejoin="round"/>
<path d="M85.3283 135.062C84.9573 136.628 84.3953 138.115 83.6743 139.45" stroke="#124A83" stroke-width="0.75" stroke-linecap="round" stroke-linejoin="round"/>
<path d="M83.9963 142.856C84.8803 142.135 85.7183 141.318 86.5013 140.417" stroke="#124A83" stroke-width="0.75" stroke-linecap="round" stroke-linejoin="round"/>
<path d="M77.6467 145.261C79.1357 145.688 80.7677 145.144 81.9227 143.833" stroke="#124A83" stroke-width="0.75" stroke-linecap="round" stroke-linejoin="round"/>
<path d="M78.512 142.674C79.153 142.704 80.912 142.382 81.503 140.595" stroke="#124A83" stroke-width="0.75" stroke-linecap="round" stroke-linejoin="round"/>
<path d="M80.1008 138.025C81.2428 137.605 82.2718 136.671 82.9778 135.416" stroke="#124A83" stroke-width="0.75" stroke-linecap="round" stroke-linejoin="round"/>
<path d="M74.3333 139.851C75.1073 140.356 75.9863 140.579 76.8483 140.487" stroke="#124A83" stroke-width="0.75" stroke-linecap="round" stroke-linejoin="round"/>
<path d="M72.5022 143.059C73.6452 143.751 74.9972 143.815 76.1752 143.233" stroke="#124A83" stroke-width="0.75" stroke-linecap="round" stroke-linejoin="round"/>
<path d="M70.2688 145.383C71.4118 146.074 72.7638 146.138 73.9418 145.557" stroke="#124A83" stroke-width="0.75" stroke-linecap="round" stroke-linejoin="round"/>
<path d="M65.301 144.062C66.65 144.435 68.035 144.58 69.411 144.489" stroke="#124A83" stroke-width="0.75" stroke-linecap="round" stroke-linejoin="round"/>
<path d="M66.0032 141.264C67.1082 141.414 68.2142 141.563 69.3192 141.713" stroke="#124A83" stroke-width="0.75" stroke-linecap="round" stroke-linejoin="round"/>
<path d="M60.9485 139.765C61.7625 140.803 62.8575 141.45 63.9875 141.562" stroke="#124A83" stroke-width="0.75" stroke-linecap="round" stroke-linejoin="round"/>
<path d="M54.7571 138.262C55.3931 139.654 56.4741 140.678 57.6771 141.03" stroke="#124A83" stroke-width="0.75" stroke-linecap="round" stroke-linejoin="round"/>
<path d="M56.4084 136.249C56.9324 136.574 57.4204 136.999 57.8534 137.505" stroke="#124A83" stroke-width="0.75" stroke-linecap="round" stroke-linejoin="round"/>
<path d="M70.2141 140.308C70.8441 140.55 71.4751 140.792 72.1061 141.034" stroke="#124A83" stroke-width="0.75" stroke-linecap="round" stroke-linejoin="round"/>
<path d="M82.8655 127.591C83.6155 128.53 84.2335 129.651 84.6805 130.88" stroke="#124A83" stroke-width="0.75" stroke-linecap="round" stroke-linejoin="round"/>
<path d="M53.6565 134.289C53.7795 134.824 54.0195 135.311 54.3395 135.678" stroke="#124A83" stroke-width="0.75" stroke-linecap="round" stroke-linejoin="round"/>
<path d="M52.6321 137.275C52.8181 137.795 53.0341 138.295 53.2791 138.769" stroke="#124A83" stroke-width="0.75" stroke-linecap="round" stroke-linejoin="round"/>
<path d="M58.8508 140.492C59.0798 141.104 59.5018 141.587 59.9938 141.8" stroke="#124A83" stroke-width="0.75" stroke-linecap="round" stroke-linejoin="round"/>
<path d="M62.2297 143.938C62.5317 144.172 62.3667 145.046 64.6897 145.658" stroke="#124A83" stroke-width="0.75" stroke-linecap="round" stroke-linejoin="round"/>
<path d="M58.4973 143.041C58.7713 143.306 59.2113 144.175 60.5303 144.303" stroke="#124A83" stroke-width="0.75" stroke-linecap="round" stroke-linejoin="round"/>
<path d="M90.4817 132.872C90.5347 133.648 90.4017 134.601 91.1367 136.078" stroke="#124A83" stroke-width="0.75" stroke-linecap="round" stroke-linejoin="round"/>
<path d="M91.6692 142.516C92.1102 143.308 92.7972 143.855 93.5342 144.002" stroke="#124A83" stroke-width="0.75" stroke-linecap="round" stroke-linejoin="round"/>
<path d="M150.754 56.8273L161.718 51.8833" stroke="#124A83" stroke-linecap="round" stroke-linejoin="round"/>
<path d="M144.522 59.6377L147.015 58.5127" stroke="#124A83" stroke-linecap="round" stroke-linejoin="round"/>
<path d="M143.716 40.903L146.821 38.418" stroke="#124A83" stroke-linecap="round" stroke-linejoin="round"/>
<path d="M125.153 55.7606L138.319 45.2236" stroke="#124A83" stroke-linecap="round" stroke-linejoin="round"/>
<path d="M126.368 116.067L133.355 123.492" stroke="#124A83" stroke-linecap="round" stroke-linejoin="round"/>
<path d="M40.2757 126.352L37.3357 129.75" stroke="#124A83" stroke-linecap="round" stroke-linejoin="round"/>
<path d="M49.136 116.466L45.103 121.126" stroke="#124A83" stroke-linecap="round" stroke-linejoin="round"/>
<path d="M37.1457 40.2619L29.4377 33.6719" stroke="#124A83" stroke-linecap="round" stroke-linejoin="round"/>
<path d="M43.637 45.8119L40.866 43.4429" stroke="#124A83" stroke-linecap="round" stroke-linejoin="round"/>
<path d="M31.2912 56.3096L23.8982 52.6826" stroke="#124A83" stroke-linecap="round" stroke-linejoin="round"/>
<path d="M38.6848 59.9363L35.5608 58.4033" stroke="#124A83" stroke-linecap="round" stroke-linejoin="round"/>
<path d="M13.1184 68.8794L6.29639 67.4624" stroke="#124A83" stroke-linecap="round" stroke-linejoin="round"/>
<path d="M34.5697 73.3334L22.1497 70.7544" stroke="#124A83" stroke-linecap="round" stroke-linejoin="round"/>
<path d="M17.804 87.9702L12.084 88.2372" stroke="#124A83" stroke-linecap="round" stroke-linejoin="round"/>
<path d="M34.3148 87.2002L26.4058 87.5692" stroke="#124A83" stroke-linecap="round" stroke-linejoin="round"/>
<path d="M17.804 106.528L12.084 108.285" stroke="#124A83" stroke-linecap="round" stroke-linejoin="round"/>
<path d="M31.7629 102.241L21.2039 105.484" stroke="#124A83" stroke-linecap="round" stroke-linejoin="round"/>
<path d="M40.7277 99.4883L36.0657 100.92" stroke="#124A83" stroke-linecap="round" stroke-linejoin="round"/>
<path d="M30.7151 116.466L21.6741 121.256" stroke="#124A83" stroke-linecap="round" stroke-linejoin="round"/>
<path d="M41.8517 110.566L38.8057 112.18" stroke="#124A83" stroke-linecap="round" stroke-linejoin="round"/>
<path d="M145.263 119.245L152.359 123.492" stroke="#124A83" stroke-linecap="round" stroke-linejoin="round"/>
<path d="M131.386 111.174L141.254 117.081" stroke="#124A83" stroke-linecap="round" stroke-linejoin="round"/>
<path d="M144.864 103.783L156.126 107.645" stroke="#124A83" stroke-linecap="round" stroke-linejoin="round"/>
<path d="M130.356 98.8076L134.733 100.309" stroke="#124A83" stroke-linecap="round" stroke-linejoin="round"/>
<path d="M151.916 89.6245L162.52 90.4645" stroke="#124A83" stroke-linecap="round" stroke-linejoin="round"/>
<path d="M144.068 89.0029L148.053 89.3179" stroke="#124A83" stroke-linecap="round" stroke-linejoin="round"/>
<path d="M145.573 74.8122L157.113 72.8042" stroke="#124A83" stroke-linecap="round" stroke-linejoin="round"/>
</g>
<defs>
<clipPath id="clip0_1_5413">
<rect width="157" height="149" fill="white"/>
</clipPath>
</defs>
</svg>
