<svg width="177" height="213" viewBox="0 0 177 213" fill="none" xmlns="http://www.w3.org/2000/svg">
<path fill-rule="evenodd" clip-rule="evenodd" d="M6.33782 57.4817C6.81982 53.2947 6.88182 49.0257 6.82282 44.7537C9.69182 46.6427 12.8898 47.9317 12.9558 52.0297C13.0168 55.7867 9.78982 58.1607 6.33782 57.4817V57.4817ZM6.55182 4.88168C8.46482 5.92468 9.49481 6.05668 10.9308 8.17468C12.9098 11.0957 13.5718 14.9217 13.9238 18.3607C14.4228 23.2467 17.0068 42.1137 8.25782 40.2227C7.65882 40.0937 7.14582 40.1997 6.73582 40.4387C6.66182 37.6327 6.57582 34.8357 6.55582 32.0747C6.49282 23.0117 6.66582 13.9437 6.55182 4.88168V4.88168ZM18.3598 23.3467C17.9768 15.4177 16.7838 2.25868 6.69782 1.01268C6.21782 0.952681 5.76282 1.19068 5.42082 1.53768C4.22382 0.992681 2.49182 1.57568 2.45982 3.30468C2.27782 12.8917 2.46282 22.4867 2.37182 32.0747C2.28582 41.1007 1.46982 50.4897 2.78082 59.4437C2.92582 60.4337 4.01382 60.8197 4.90482 60.6107C10.1018 63.2907 16.1438 59.6387 17.1228 53.9727C17.7328 50.4387 16.3008 46.4347 13.6788 43.7927C19.0118 40.3617 18.6118 28.5657 18.3598 23.3467V23.3467Z" fill="black"/>
<path fill-rule="evenodd" clip-rule="evenodd" d="M38.343 4.88098C39.967 4.59098 39.742 2.23498 38.343 1.81398C34.866 0.76698 30.665 1.08398 27.18 1.93398C25.974 1.47998 24.353 2.08798 24.341 3.77598C24.278 12.975 24.499 22.184 24.573 31.384C24.646 40.579 24.384 49.846 25.47 58.991C25.587 59.972 26.302 60.479 27.021 60.499C27.188 60.579 27.376 60.637 27.6 60.652C30.53 60.854 33.55 60.888 36.456 61.315C39.103 61.704 40.286 57.685 37.581 57.233C34.451 56.71 31.646 56.602 28.726 57.466C29.108 52.679 29.148 47.868 29.088 43.058C29.833 43.174 30.618 43.159 31.349 43.18C32.448 43.213 33.55 43.289 34.646 43.362C37.379 43.544 37.368 39.288 34.646 39.106C32.981 38.995 30.777 38.896 29.03 39.467C28.976 36.769 28.91 34.073 28.869 31.384C28.739 22.682 28.732 13.97 28.5 5.27098C31.732 5.39898 35.205 5.44098 38.343 4.88098" fill="black"/>
<path fill-rule="evenodd" clip-rule="evenodd" d="M83.4369 1.62577C79.5119 0.983768 74.6309 1.45177 70.7789 2.43977C69.4639 2.77777 69.4629 4.76777 70.7789 5.10477C72.1649 5.46077 73.6859 5.74477 75.2459 5.93877C75.3869 14.7338 75.9979 23.4948 75.9019 32.3048C75.8039 41.2828 74.5179 50.4768 75.1859 59.4168C75.3149 61.1398 77.8579 61.6838 78.3319 59.8428C80.5199 51.3268 80.2869 41.9538 80.3819 33.2098C80.4799 24.2748 80.5069 15.1008 79.4679 6.20377C80.8439 6.20477 82.1909 6.12377 83.4369 5.91977C85.5619 5.57177 85.5639 1.97377 83.4369 1.62577" fill="black"/>
<path fill-rule="evenodd" clip-rule="evenodd" d="M119.595 31.7711C119.186 40.4431 121.217 57.9531 108.814 57.6271C109.648 49.4311 108.86 40.9341 108.657 32.7501C108.431 23.6271 108.527 14.4191 107.948 5.30706C120.448 6.52406 120.028 22.5821 119.595 31.7711ZM107.716 0.892061C106.8 0.808061 106.189 1.22706 105.872 1.83206C104.868 1.78806 103.854 2.42406 103.816 3.77206C103.545 13.4031 104.107 23.1161 104.296 32.7501C104.473 41.8341 103.915 51.3581 105.672 60.3051C105.892 61.4271 107.502 61.6511 108.185 60.9011C113.434 62.7931 118.865 60.2961 121.321 55.1861C124.385 48.8121 123.41 40.3581 123.78 33.5111C124.455 21.0061 124.215 2.39106 107.716 0.892061V0.892061Z" fill="black"/>
<path fill-rule="evenodd" clip-rule="evenodd" d="M157.156 57.8389C156.271 40.1709 155.6 22.6289 156.486 4.94688C165.321 10.1679 169.182 19.5259 169.972 29.6049C170.767 39.7459 169.488 55.8299 157.156 57.8389ZM174.929 32.9139C174.433 20.5369 169.336 5.69488 156.983 0.596881C156.24 0.290881 155.585 0.522881 155.125 0.993881C154.053 0.812881 152.766 1.43788 152.655 2.84988C151.166 21.7919 150.971 41.0529 153.614 59.8999C153.764 60.9689 154.766 61.3449 155.678 61.1739L155.807 61.2209C171.245 65.4939 175.348 43.3949 174.929 32.9139V32.9139Z" fill="black"/>
<path fill-rule="evenodd" clip-rule="evenodd" d="M52.7098 6.52986C54.8178 5.17786 57.8338 5.42886 59.2498 7.46686C60.7438 9.61786 60.7958 12.5589 61.2228 15.0569C61.6088 17.3209 65.2838 16.7789 65.2078 14.5179C65.0238 9.04886 63.0168 1.77786 56.5608 1.00386C49.4558 0.151856 46.3138 7.74286 45.8708 13.4979C45.2328 21.7839 48.2588 29.9299 52.2528 37.0469C54.2598 40.6239 57.0178 43.8769 58.7468 47.5959C63.0328 56.8149 49.3508 61.3859 48.3598 53.8149C48.1458 52.1849 45.4308 51.3519 45.1278 53.3779C44.2808 59.0489 49.4398 63.0689 54.9218 62.2599C61.1198 61.3449 65.2768 55.2089 64.0668 49.1719C63.2968 45.3369 60.7988 42.1989 58.7138 38.9969C55.9798 34.7999 53.5008 30.3809 51.9118 25.6119C50.3358 20.8819 49.3418 15.3949 50.6388 10.4759C50.9458 9.31386 51.6288 7.22386 52.7098 6.52986" fill="black"/>
<path fill-rule="evenodd" clip-rule="evenodd" d="M135.688 44.9327C134.529 45.0347 133.364 45.1607 132.212 45.3537C133.647 34.7917 134.675 24.1587 136.279 13.6217C137.412 19.9427 138.088 26.3527 138.895 32.7197C139.397 36.6757 139.754 40.7377 140.185 44.7927C138.736 44.5317 137.192 44.8007 135.688 44.9327V44.9327ZM142.52 29.9967C141.382 21.0267 140.421 12.0227 137.873 3.31574C137.388 1.66074 134.467 1.34274 134.191 3.31574C131.581 21.9677 127.184 40.5747 126.597 59.4647C126.539 61.3097 129.508 61.7777 129.871 59.9087C130.577 56.2807 131.171 52.6347 131.707 48.9777C133.03 49.0537 134.357 49.0727 135.688 49.0937C137.371 49.1197 139.082 49.4037 140.671 48.9797C141.125 52.5457 141.698 56.0777 142.559 59.4957C143.034 61.3817 145.952 60.9797 145.941 59.0377C145.886 49.4377 143.728 39.5207 142.52 29.9967V29.9967Z" fill="black"/>
<path fill-rule="evenodd" clip-rule="evenodd" d="M46.0049 148.956C45.3959 141.685 34.6139 141.607 35.2149 148.956C36.0209 158.801 36.2299 168.676 35.7629 178.548C35.5179 183.709 35.4079 189.346 34.3909 194.643C32.4589 191.634 30.5259 188.625 28.5929 185.616C26.4249 182.239 21.6429 181.833 19.5549 185.616C17.5749 189.201 15.4079 192.625 13.0849 195.933C11.4799 189.823 11.2369 183.036 10.7939 177.031C10.4549 172.454 10.2479 167.865 10.1729 163.274C10.0939 158.413 10.5159 153.142 8.99492 148.497C8.09492 145.748 3.80792 144.359 2.44792 147.59C-1.51308 157 0.394919 169.961 1.17792 179.972C1.94392 189.764 2.48492 200.386 7.36792 209.005C8.99192 211.873 13.1199 212.712 15.3719 210.099C18.5409 206.422 21.4639 202.552 24.1479 198.494C26.4929 202.211 28.8389 205.927 31.1839 209.644C33.3929 213.144 38.2149 213.418 40.3699 209.644C45.0089 201.522 45.6599 191.749 46.3159 182.49C47.1089 171.313 46.9409 160.117 46.0049 148.956Z" fill="black"/>
<path fill-rule="evenodd" clip-rule="evenodd" d="M72.0238 181.823C71.9368 186.121 71.8508 190.635 71.1178 194.88C70.6948 197.322 69.0829 203.099 66.8069 198.871C63.0029 191.806 62.9678 180.708 63.1748 172.793C63.2958 168.154 63.5318 163.2 64.7908 158.725C65.2198 157.198 65.8309 155.952 66.5849 154.864C67.3439 155.142 68.1908 155.249 69.0978 155.107C71.8058 154.683 72.0748 179.286 72.0238 181.823V181.823ZM83.2679 177.972C83.1919 169.969 82.9708 160.674 80.2878 153.104C78.7668 148.81 75.2169 145.21 71.1829 144.67C66.3579 141.064 60.0748 144.759 57.0038 149.584C52.9248 155.992 52.4028 165.308 52.1658 172.793C51.8969 181.288 52.6998 190.198 54.8328 198.414C56.4008 204.452 59.5588 210.768 65.8058 212.252C72.4208 213.823 78.4028 208.761 80.7608 202.542C83.5758 195.118 83.3439 185.84 83.2679 177.972Z" fill="black"/>
<path fill-rule="evenodd" clip-rule="evenodd" d="M108.174 169.423C108.149 175.082 106.065 186.342 100.041 189.068C100.091 185.761 100.087 182.466 100.103 179.232C100.146 170.862 99.9368 162.499 99.5358 154.142C105.434 154.952 108.201 163.305 108.174 169.423ZM110.64 194.308C116.511 187.537 119.074 176.878 118.65 167.875C117.994 153.911 107.482 138.735 92.7578 144.113C90.6858 144.87 88.8418 146.904 88.9638 149.394C89.4348 159.011 89.6548 168.639 89.5608 178.269C89.4678 187.828 88.3938 197.602 88.9438 207.131C89.2568 212.563 97.2688 214.45 98.4118 208.489C98.8688 206.105 99.1988 203.677 99.4398 201.225C101.386 201.576 103.393 202.256 104.831 203.633C106.635 205.362 106.608 208.094 108.053 210.096C110.088 212.916 113.802 213.339 115.766 210.096C118.617 205.391 115.634 199.151 112.253 195.745C111.734 195.223 111.195 194.747 110.64 194.308V194.308Z" fill="black"/>
<path fill-rule="evenodd" clip-rule="evenodd" d="M140.261 201.754C138.805 201.183 137.291 201.004 135.757 200.953C135.738 191.681 135.474 182.409 134.977 173.153C134.695 167.907 134.364 162.669 133.804 157.448C133.239 152.181 132.93 146.566 130.548 141.821C129.073 138.885 124.811 139.677 124.001 142.728C122.743 147.47 123.363 152.586 123.608 157.448C123.889 163.012 124.258 168.57 124.511 174.135C125.003 184.949 125.127 195.766 125.064 206.592C125.045 209.745 127.53 212.133 130.408 212.256C134.324 212.424 137.849 212.699 141.365 210.707C145.145 208.567 143.757 203.127 140.261 201.754" fill="black"/>
<path fill-rule="evenodd" clip-rule="evenodd" d="M159.13 198.063C159.284 190.986 158.384 183.607 158.105 176.887C157.791 169.338 157.476 161.788 157.171 154.238C162.67 158.495 165.696 165.812 165.934 173.344C166.168 180.745 164.589 192.104 159.13 198.063ZM176.966 174.201C176.688 158.825 167.955 143.169 152.92 140.052C149.724 139.39 146.007 141.582 146.195 145.482C146.699 155.949 147.15 166.419 147.618 176.887C148.055 186.639 147.222 198.16 150.165 207.487C150.464 208.433 151.034 209.176 151.735 209.701C152.499 211.257 154.005 212.388 156.32 212.372C172.003 212.266 177.196 186.873 176.966 174.201Z" fill="black"/>
<path fill-rule="evenodd" clip-rule="evenodd" d="M50.1099 105.699C50.1519 100.653 50.4349 95.522 49.8619 90.502C49.7289 89.336 47.7849 88.779 47.5829 90.193C46.9409 94.696 47.0039 99.258 46.9069 103.799C46.7999 108.809 46.3259 114.016 46.8939 118.996C47.0549 120.409 49.4119 121.084 49.6559 119.37C50.2969 114.871 50.0719 110.239 50.1099 105.699Z" fill="black"/>
<path fill-rule="evenodd" clip-rule="evenodd" d="M71.6998 92.018C71.6048 89.479 67.6788 89.459 67.7388 92.018C67.8898 98.393 67.7068 104.744 67.2078 111.083C64.5908 104.431 61.9728 97.779 59.4168 91.104C58.7188 89.28 55.8618 89.416 55.8538 91.587C55.8188 100.563 55.2668 109.54 55.6238 118.512C55.6738 119.776 57.7148 120.203 57.9488 118.826C58.9398 112.969 59.3038 107.067 59.4278 101.149C61.7868 107.284 64.1298 113.424 66.4838 119.56C67.0688 121.083 69.8358 121.621 70.1428 119.56C71.5068 110.408 72.0478 101.268 71.6998 92.018" fill="black"/>
<path fill-rule="evenodd" clip-rule="evenodd" d="M103.366 90.1438C101.746 89.4398 100.42 89.8408 98.7098 90.0518C96.8358 90.2838 94.9478 90.3648 93.0728 90.6088C91.9308 90.7578 91.9288 92.2408 93.0728 92.3908C94.3538 92.5578 95.6408 92.6498 96.9258 92.7638C95.8308 101.076 96.4508 110.127 96.2898 118.523C96.2578 120.192 99.0098 120.657 99.2828 118.927C100.552 110.881 101.71 101.273 100.218 93.1588C101.275 93.2988 102.252 93.3398 103.366 92.8558C104.395 92.4088 104.395 90.5908 103.366 90.1438" fill="black"/>
<path fill-rule="evenodd" clip-rule="evenodd" d="M121.67 103.751C121.679 99.2469 121.831 94.6879 121.221 90.2189C121.079 89.1769 119.353 89.2269 119.164 90.2189C118.32 94.6579 118.258 99.2449 118.036 103.751C118.008 104.304 117.973 104.862 117.935 105.424C117.421 105.492 116.896 105.633 116.358 105.72C115.541 105.852 114.706 105.955 113.885 106.109C113.878 105.906 113.869 105.703 113.864 105.502C113.75 100.828 113.584 96.1419 112.961 91.5049C112.756 89.9789 110.709 89.9309 110.547 91.5049C110.07 96.1529 110.069 100.833 110.087 105.502C110.103 109.607 109.698 113.907 110.741 117.891C111.102 119.268 113.261 119.328 113.589 117.891C114.256 114.971 114.148 111.896 114.003 108.858C114.924 108.856 115.852 108.774 116.767 108.735C117.088 108.721 117.4 108.725 117.703 108.722C117.516 111.653 117.444 114.609 118.044 117.403C118.365 118.903 120.604 118.806 120.982 117.403C122.148 113.071 121.661 108.217 121.67 103.751" fill="black"/>
<path fill-rule="evenodd" clip-rule="evenodd" d="M129.084 107.346C129.994 107.442 130.939 107.367 131.853 107.336C132.919 107.299 133.812 107.449 134.636 106.643C135.335 105.959 135.14 104.802 134.335 104.305C133.365 103.708 132.472 104.091 131.44 104.286C130.609 104.444 129.745 104.576 128.935 104.829C128.932 104.071 128.927 103.313 128.925 102.565C128.915 99.4198 129.217 95.8498 128.392 92.7228C128.571 92.7368 128.751 92.7498 128.93 92.7718C129.851 92.8838 130.76 93.0768 131.691 93.0788C133.819 93.0838 134.261 89.9348 132.193 89.3678C131.07 89.0588 129.912 89.0698 128.759 89.1558C127.806 89.2268 126.733 89.2708 125.893 89.7768C124.879 90.3868 124.77 92.0388 125.611 92.6678C124.981 95.5558 125.271 98.6948 125.172 101.636C125.006 106.542 124.308 111.594 124.651 116.485C124.778 118.297 127.513 118.94 128.028 117.042C129.398 117.069 130.779 117.042 132.141 117.034C135.111 117.017 134.603 112.279 131.59 112.96C130.599 113.184 129.595 113.401 128.596 113.631C128.835 111.543 128.906 109.419 128.926 107.303L129.084 107.346Z" fill="black"/>
<path fill-rule="evenodd" clip-rule="evenodd" d="M35.7499 98.3961C33.7079 96.3541 29.4459 95.9071 27.4659 98.3961C27.2359 98.6851 27.0049 98.9741 26.7749 99.2641C25.6539 98.7601 24.4769 98.4331 23.2359 98.4271C19.3099 98.4091 17.6799 102.432 19.1069 105.622C20.0439 107.717 22.3819 109.384 23.9199 111.073C25.8889 113.236 30.2109 113.425 32.1419 111.073C33.3449 109.609 34.5479 108.145 35.7499 106.68C37.7559 104.237 38.1409 100.787 35.7499 98.3961" fill="black"/>
<path fill-rule="evenodd" clip-rule="evenodd" d="M156.75 97.3961C154.708 95.3541 150.446 94.9071 148.466 97.3961C148.236 97.6851 148.005 97.9741 147.775 98.2641C146.654 97.7601 145.477 97.4331 144.236 97.4271C140.31 97.4091 138.68 101.432 140.107 104.622C141.044 106.717 143.382 108.384 144.92 110.073C146.889 112.236 151.211 112.425 153.142 110.073C154.345 108.609 155.548 107.145 156.75 105.68C158.756 103.237 159.141 99.7871 156.75 97.3961" fill="black"/>
</svg>
