<svg width="90" height="170" viewBox="0 0 90 170" fill="none" xmlns="http://www.w3.org/2000/svg">
<path fill-rule="evenodd" clip-rule="evenodd" d="M64.6521 41.8755C62.1541 41.8755 62.1581 38.0005 64.6521 38.0005C67.1501 38.0005 67.1461 41.8755 64.6521 41.8755ZM45.3051 40.6625C44.6021 39.3975 44.3971 38.0275 44.4541 36.6275C42.6031 33.2445 47.0861 25.6995 49.0081 32.6975C49.6251 33.9865 49.3571 35.6615 49.8461 38.0695C49.9841 38.4805 50.0281 38.9045 49.9751 39.3115C50.0031 39.6305 50.0391 39.9495 50.0451 40.2715C50.0451 43.2185 45.7441 43.3335 45.3051 40.6625ZM28.9851 42.6635C25.9011 42.6635 25.9071 37.8785 28.9851 37.8785C32.0691 37.8785 32.0641 42.6635 28.9851 42.6635V42.6635ZM75.6661 22.2995C75.9901 21.5635 75.4901 20.5965 74.1691 21.0615C68.0421 22.6415 65.5081 30.4635 61.0821 35.2605C56.1551 29.1875 53.3461 19.8805 48.1451 13.3365C48.1741 12.6525 47.2801 10.5595 46.0611 12.1355L46.0591 12.1335C46.0331 12.2225 45.9961 12.3095 45.9681 12.3985C45.9271 12.4535 45.7781 12.4485 45.8521 12.7395C42.3151 19.7365 39.1731 27.0635 35.1291 34.5555C35.1351 34.5535 35.1421 34.5525 35.1501 34.5505C35.1451 34.5595 35.1411 34.5685 35.1351 34.5775C31.0751 32.9005 20.1121 18.5905 18.0131 22.0115C15.6881 28.9195 23.2911 38.1745 23.0961 46.5555C23.1461 47.1135 23.1111 47.5405 24.2191 48.1825C24.7351 48.4475 25.3351 48.3275 25.7741 47.9835C38.8801 49.2865 66.7301 50.4195 69.9331 47.0555C70.2201 46.8645 70.8481 45.5955 71.1041 44.0315C73.9381 38.2295 74.5811 30.6045 75.6751 23.7625C75.8941 23.2665 75.8691 22.7505 75.6661 22.2995" fill="#FFDC96"/>
<path fill-rule="evenodd" clip-rule="evenodd" d="M85.3904 152.186C83.6644 149.955 72.2874 151.895 67.6014 149.353C59.0114 144.346 48.9994 142.219 46.3194 153.122C40.5744 135.771 19.7694 154.764 8.04541 151.317C8.03541 151.313 8.02441 151.308 8.01341 151.304C-0.319591 145.872 8.76441 164.658 13.2354 165.416C23.4104 170.9 43.1834 170.97 46.2174 158.002C48.9124 177.158 82.2544 170.814 84.8194 155.766C85.0424 154.975 86.6594 153.623 85.3904 152.186Z" fill="#D2A184"/>
<path fill-rule="evenodd" clip-rule="evenodd" d="M7.5329 62.3932C7.6259 71.4232 7.7189 80.4542 7.8109 89.4842C7.8239 90.6812 9.68291 90.6842 9.67191 89.4842C9.57891 80.4542 9.4859 71.4232 9.3919 62.3932C9.3809 61.1972 7.5199 61.1942 7.5329 62.3932" fill="black"/>
<path fill-rule="evenodd" clip-rule="evenodd" d="M1.43816 63.9794C6.07816 64.0784 10.7182 64.1764 15.3582 64.2744C16.5562 64.3004 16.5552 62.4404 15.3582 62.4154C10.7182 62.3164 6.07816 62.2174 1.43816 62.1194C0.240164 62.0944 0.241164 63.9544 1.43816 63.9794" fill="black"/>
<path fill-rule="evenodd" clip-rule="evenodd" d="M15.1033 68.7989C15.3433 75.5019 15.5843 82.2049 15.8263 88.9079C15.8693 90.1019 17.7293 90.1069 17.6863 88.9079L16.9623 68.7989C16.9203 67.6059 15.0603 67.5999 15.1033 68.7989" fill="black"/>
<path fill-rule="evenodd" clip-rule="evenodd" d="M16.239 81.8794C18.08 81.6584 19.921 81.4384 21.762 81.2174C22.243 81.1594 22.717 80.8314 22.692 80.2874C22.672 79.8334 22.279 79.2954 21.762 79.3574C19.921 79.5784 18.08 79.7984 16.239 80.0194C15.758 80.0774 15.285 80.4054 15.309 80.9494C15.329 81.4034 15.721 81.9414 16.239 81.8794Z" fill="black"/>
<path fill-rule="evenodd" clip-rule="evenodd" d="M21.1588 68.5817C21.3418 75.5767 21.5238 82.5707 21.7068 89.5657C21.7378 90.7607 23.5978 90.7657 23.5668 89.5657C23.3848 82.5707 23.2018 75.5767 23.0188 68.5817C22.9878 67.3867 21.1278 67.3817 21.1588 68.5817Z" fill="black"/>
<path fill-rule="evenodd" clip-rule="evenodd" d="M32.3649 61.8973C30.6659 62.0463 28.9659 62.1943 27.2649 62.3433C26.7819 62.3853 26.3109 62.7413 26.3359 63.2733C26.3559 63.7413 26.7459 64.2493 27.2649 64.2033C28.9659 64.0543 30.6659 63.9063 32.3649 63.7573C32.8479 63.7153 33.3189 63.3593 33.2959 62.8273C33.2739 62.3593 32.8849 61.8523 32.3649 61.8973" fill="black"/>
<path fill-rule="evenodd" clip-rule="evenodd" d="M25.7782 63.9305C26.5922 72.0835 27.0242 80.2675 27.0722 88.4615C27.0792 89.6585 28.9382 89.6605 28.9312 88.4615C28.8842 80.2675 28.4532 72.0835 27.6382 63.9305C27.5202 62.7505 25.6592 62.7385 25.7782 63.9305Z" fill="black"/>
<path fill-rule="evenodd" clip-rule="evenodd" d="M28.6141 89.6483C30.8961 89.4163 33.1771 89.1853 35.4591 88.9533C35.9591 88.9023 36.3891 88.5623 36.3891 88.0233C36.3891 87.5593 35.9621 87.0423 35.4591 87.0933C33.1771 87.3253 30.8961 87.5563 28.6141 87.7883C28.1141 87.8393 27.6841 88.1793 27.6841 88.7183C27.6841 89.1823 28.1111 89.6993 28.6141 89.6483" fill="black"/>
<path fill-rule="evenodd" clip-rule="evenodd" d="M27.945 78.9572C29.711 78.8572 31.476 78.7572 33.242 78.6562C33.727 78.6292 34.196 78.2492 34.173 77.7272C34.151 77.2462 33.762 76.7672 33.242 76.7962C31.476 76.8962 29.711 76.9972 27.945 77.0972C27.46 77.1242 26.991 77.5052 27.014 78.0272C27.036 78.5072 27.424 78.9872 27.945 78.9572" fill="black"/>
<path fill-rule="evenodd" clip-rule="evenodd" d="M46.5055 64.3804C46.6505 72.7754 46.7955 81.1704 46.9405 89.5654C46.9605 90.7604 48.8205 90.7644 48.8005 89.5654C48.6545 81.1704 48.5105 72.7754 48.3645 64.3804C48.3445 63.1844 46.4845 63.1804 46.5055 64.3804Z" fill="black"/>
<path fill-rule="evenodd" clip-rule="evenodd" d="M48.0553 90.4546C51.2233 90.5486 55.0753 89.6606 56.5313 86.4926C57.7743 83.7866 56.7363 80.7546 54.6923 78.7506C53.2013 77.2886 51.2713 76.3546 49.2703 75.8186C48.1123 75.5086 47.6183 77.3016 48.7753 77.6116C51.3473 78.3016 54.0983 79.8966 54.9653 82.4886C55.2993 83.4866 55.3323 84.3766 54.9953 85.3626C54.6923 86.2516 53.9453 87.0676 53.0343 87.5976C51.5373 88.4676 49.7533 88.6446 48.0553 88.5946C46.8583 88.5586 46.8593 90.4196 48.0553 90.4546" fill="black"/>
<path fill-rule="evenodd" clip-rule="evenodd" d="M48.9763 78.0198C51.3223 77.6288 52.7223 75.2168 53.2653 73.1048C53.8713 70.7498 53.7383 67.9258 52.1753 65.9558C51.2573 64.7998 49.9393 64.2168 48.4913 64.0818C47.2993 63.9718 47.3073 65.8318 48.4913 65.9418C50.3683 66.1168 51.3723 67.6018 51.6643 69.4478C51.9463 71.2238 51.5263 73.3298 50.4693 74.8778C49.9843 75.5888 49.3513 76.0818 48.4823 76.2268C47.3043 76.4228 47.8033 78.2148 48.9763 78.0198" fill="black"/>
<path fill-rule="evenodd" clip-rule="evenodd" d="M65.4791 61.2869C63.5631 61.5739 61.6471 61.8599 59.7311 62.1459C59.2491 62.2179 58.9401 62.8519 59.0821 63.2899C59.2521 63.8169 59.7081 64.0169 60.2251 63.9389C62.1411 63.6529 64.0571 63.3669 65.9731 63.0799C66.4561 63.0089 66.7641 62.3749 66.6231 61.9359C66.4531 61.4099 65.9961 61.2099 65.4791 61.2869Z" fill="black"/>
<path fill-rule="evenodd" clip-rule="evenodd" d="M58.8552 63.4961C59.1832 71.7461 59.5102 79.9951 59.8382 88.2441C59.8862 89.4361 61.7462 89.4431 61.6992 88.2441C61.3712 79.9951 61.0432 71.7461 60.7152 63.4961C60.6672 62.3031 58.8072 62.2971 58.8552 63.4961" fill="black"/>
<path fill-rule="evenodd" clip-rule="evenodd" d="M60.6422 89.3541C63.0722 89.2821 65.5022 89.2111 67.9322 89.1391C68.4352 89.1251 68.8632 88.7231 68.8632 88.2091C68.8632 87.7171 68.4372 87.2651 67.9322 87.2791C65.5022 87.3511 63.0722 87.4221 60.6422 87.4941C60.1402 87.5091 59.7122 87.9111 59.7122 88.4241C59.7122 88.9171 60.1372 89.3691 60.6422 89.3541Z" fill="black"/>
<path fill-rule="evenodd" clip-rule="evenodd" d="M60.6451 78.088C62.0441 78.159 63.4441 78.23 64.8421 78.3C65.3301 78.325 65.7941 77.855 65.7731 77.371C65.7491 76.846 65.3641 76.467 64.8421 76.441C63.4441 76.37 62.0441 76.299 60.6451 76.228C60.1591 76.203 59.6931 76.673 59.7151 77.158C59.7391 77.683 60.1241 78.062 60.6451 78.088" fill="black"/>
<path fill-rule="evenodd" clip-rule="evenodd" d="M75.9725 61.7546C73.6515 61.9536 71.2585 62.7156 70.0245 64.8486C68.9015 66.7886 69.0655 69.1996 69.5985 71.2946C70.2645 73.9146 71.5565 76.3976 73.0645 78.6256C73.8745 79.8216 74.7665 80.9686 75.7355 82.0396C76.1585 82.5066 76.5945 82.9626 77.0535 83.3946C77.5865 83.8956 77.7235 84.5556 77.7305 85.2896C77.7565 88.1396 74.1335 89.7826 72.8675 86.7376C72.4145 85.6486 70.6145 86.1256 71.0745 87.2316C72.0545 89.5906 74.3445 91.0816 76.8455 89.8676C79.3125 88.6706 80.2145 85.5336 79.1465 83.0796C78.8755 82.4586 78.3665 82.0896 77.8935 81.6146C77.3435 81.0616 76.8205 80.4826 76.3205 79.8836C75.3365 78.7056 74.4575 77.4406 73.6795 76.1186C72.3265 73.8156 71.0815 71.1316 71.0475 68.4086C71.0085 65.3656 73.0945 63.8616 75.9725 63.6146C77.1565 63.5126 77.1665 61.6516 75.9725 61.7546" fill="black"/>
<path fill-rule="evenodd" clip-rule="evenodd" d="M78.5409 65.7669C81.8569 65.3419 85.2319 65.3529 88.5389 65.8579C89.0349 65.9339 89.5389 65.7329 89.6839 65.2089C89.8049 64.7689 89.5329 64.1419 89.0339 64.0649C85.5519 63.5329 82.0359 63.4589 78.5409 63.9069C78.0429 63.9709 77.6099 64.2889 77.6099 64.8369C77.6099 65.2899 78.0389 65.8309 78.5409 65.7669Z" fill="black"/>
<path fill-rule="evenodd" clip-rule="evenodd" d="M82.9284 65.2448L82.5743 89.3458C82.5563 90.5428 84.4163 90.5438 84.4343 89.3458C84.5513 81.3118 84.6703 73.2788 84.7873 65.2448C84.8053 64.0478 82.9464 64.0468 82.9284 65.2448Z" fill="black"/>
<path fill-rule="evenodd" clip-rule="evenodd" d="M1.74001 143.743C2.37301 159.528 19.284 172.237 34.636 167.599C38.105 166.551 41.722 164.648 43.947 161.711C45.945 159.074 46.879 155.619 46.536 152.33C46.202 149.13 44.739 146.113 42.079 144.221C38.73 141.839 34.213 142.001 30.427 143.076C25.212 144.557 20.466 147.827 14.91 147.977C12.649 148.039 10.336 147.78 8.17001 147.118C6.30101 146.546 4.18401 145.553 3.70501 143.477C3.41501 142.224 1.48601 142.754 1.77601 144.009C2.58501 147.504 6.49501 148.938 9.63901 149.532C13.783 150.315 17.826 149.979 21.793 148.544C28.012 146.293 38.353 140.39 43.155 148.231C44.737 150.813 44.965 154.069 44.13 156.942C43.145 160.331 40.733 162.563 37.693 164.188C31.178 167.67 23.285 167.063 16.879 163.644C9.49201 159.7 4.08101 152.24 3.74001 143.743C3.68901 142.46 1.68801 142.454 1.74001 143.743" fill="black"/>
<path fill-rule="evenodd" clip-rule="evenodd" d="M44.1687 146.866C38.7597 145.432 33.0567 147.072 27.8357 148.537C22.6727 149.987 16.8107 152.127 11.3987 150.842C8.15167 150.071 5.76266 147.903 4.06166 145.098C3.39566 143.999 1.66466 145.003 2.33466 146.107C3.86066 148.625 5.91566 150.813 8.64566 152.015C11.1117 153.101 13.8367 153.336 16.5007 153.108C22.5587 152.589 28.2587 150.227 34.1727 148.987C37.2757 148.336 40.5297 147.971 43.6367 148.795C44.8817 149.125 45.4127 147.196 44.1687 146.866" fill="black"/>
<path fill-rule="evenodd" clip-rule="evenodd" d="M1.51438 144.158C2.65138 147.692 4.50038 151.029 7.37638 153.441C9.89738 155.554 12.9624 156.864 16.1804 157.477C22.7874 158.736 29.6754 157.552 36.1174 155.945C39.1314 155.192 42.0994 154.279 45.0944 153.455C46.3334 153.114 45.8074 151.183 44.5634 151.526C39.1294 153.022 33.7564 154.702 28.1634 155.516C22.1074 156.398 15.2464 156.425 9.96438 152.901C6.69838 150.72 4.62738 147.309 3.44338 143.627C3.05038 142.406 1.11838 142.928 1.51438 144.158" fill="black"/>
<path fill-rule="evenodd" clip-rule="evenodd" d="M2.57012 146.57C6.01112 153.829 11.5181 160.137 19.3251 162.703C25.2161 164.64 31.7041 164.244 37.5701 162.414C40.2771 161.569 42.9211 160.422 45.3341 158.924C46.4241 158.247 45.4221 156.516 44.3241 157.197C34.8781 163.061 21.6101 164.168 12.6481 156.809C8.97712 153.794 6.31712 149.823 4.29712 145.561C3.74612 144.399 2.02112 145.412 2.57012 146.57" fill="black"/>
<path fill-rule="evenodd" clip-rule="evenodd" d="M87.5241 143.744C86.9261 158.662 70.4131 170.449 56.1531 165.34C52.8991 164.174 49.6631 162.197 47.9961 159.075C46.5591 156.384 46.2551 153.089 47.2031 150.188C48.1581 147.262 50.4961 145.137 53.5211 144.532C57.9851 143.64 62.3371 145.612 66.3531 147.301C68.7051 148.289 71.0911 149.252 73.6161 149.691C75.8211 150.075 78.0441 150.043 80.2561 149.749C83.7611 149.283 88.5681 147.99 89.4891 144.01C89.7781 142.757 87.8501 142.223 87.5601 143.478C86.6931 147.228 80.8931 147.846 77.7861 147.966C72.8581 148.155 68.5981 146.005 64.1391 144.229C60.1011 142.621 55.3981 141.448 51.1871 143.147C48.1901 144.355 46.0621 146.931 45.1671 150.008C44.2551 153.138 44.6081 156.571 45.9811 159.51C47.5571 162.882 50.6301 165.12 53.9611 166.598C61.1061 169.772 69.3441 168.831 76.0511 165.009C83.7331 160.632 89.1671 152.677 89.5241 143.744C89.5761 142.457 87.5761 142.459 87.5241 143.744" fill="black"/>
<path fill-rule="evenodd" clip-rule="evenodd" d="M47.6286 148.795C53.3126 147.294 59.4126 149.492 64.8586 151.017C70.1496 152.499 76.2586 154.316 81.6766 152.401C84.8576 151.276 87.2386 148.952 88.9696 146.107C89.6406 145.005 87.9116 143.999 87.2426 145.098C85.7456 147.56 83.6856 149.64 80.8976 150.557C78.4246 151.37 75.7516 151.304 73.2046 150.92C67.4116 150.048 61.9366 147.778 56.1696 146.78C53.1606 146.26 50.0766 146.079 47.0966 146.866C45.8536 147.195 46.3806 149.125 47.6286 148.795" fill="black"/>
<path fill-rule="evenodd" clip-rule="evenodd" d="M87.822 143.627C86.75 146.96 84.969 150.069 82.186 152.261C79.777 154.159 76.823 155.203 73.818 155.677C67.554 156.664 61.046 155.394 54.983 153.84C52.206 153.128 49.466 152.287 46.702 151.526C45.46 151.184 44.929 153.113 46.171 153.455C52.029 155.068 57.813 156.855 63.865 157.621C70.271 158.433 77.508 158.184 82.91 154.207C86.302 151.71 88.473 148.128 89.751 144.158C90.146 142.93 88.216 142.404 87.822 143.627" fill="black"/>
<path fill-rule="evenodd" clip-rule="evenodd" d="M87.2429 145.561C83.9319 152.416 78.7489 158.448 71.3039 160.813C65.7319 162.582 59.6989 162.198 54.1679 160.471C51.6359 159.681 49.1909 158.606 46.9409 157.198C45.8469 156.513 44.8419 158.242 45.9309 158.924C56.1969 165.351 70.4009 166.084 80.1109 158.265C83.9679 155.159 86.8309 150.999 88.9699 146.57C89.5269 145.416 87.8039 144.401 87.2429 145.561" fill="black"/>
<path fill-rule="evenodd" clip-rule="evenodd" d="M17.154 94.2714C16.53 107.051 15.905 119.831 15.281 132.61C15.218 133.897 17.218 133.894 17.281 132.61C17.905 119.831 18.53 107.051 19.154 94.2714C19.217 92.9844 17.216 92.9884 17.154 94.2714" fill="black"/>
<path fill-rule="evenodd" clip-rule="evenodd" d="M15.745 135.404C19.637 135.193 23.585 134.285 26.677 131.794C29.164 129.791 30.729 126.883 31.342 123.773C32.72 116.766 30.261 109.252 26.867 103.173C24.934 99.711 22.508 96.436 19.514 93.817C18.549 92.973 17.128 94.382 18.099 95.231C23.109 99.613 26.67 105.843 28.522 112.194C30.13 117.707 30.734 124.818 26.425 129.32C23.662 132.205 19.609 133.195 15.745 133.404C14.465 133.473 14.457 135.474 15.745 135.404" fill="black"/>
<path fill-rule="evenodd" clip-rule="evenodd" d="M35.571 133.248C39.909 120.782 43.518 108.074 46.381 95.1891C46.66 93.9351 44.732 93.4001 44.453 94.6581C41.59 107.542 37.98 120.25 33.643 132.716C33.219 133.934 35.15 134.458 35.571 133.248Z" fill="black"/>
<path fill-rule="evenodd" clip-rule="evenodd" d="M45.1736 95.8714C47.0806 108.37 49.2876 120.821 51.7926 133.214C52.0476 134.475 53.9766 133.941 53.7216 132.683C51.2166 120.289 49.0096 107.838 47.1026 95.3394C46.9076 94.0714 44.9816 94.6104 45.1736 95.8714Z" fill="black"/>
<path fill-rule="evenodd" clip-rule="evenodd" d="M39.1443 122.543C42.6983 122.388 46.2503 122.232 49.8043 122.077C51.0863 122.021 51.0933 120.021 49.8043 120.077C46.2503 120.232 42.6983 120.388 39.1443 120.543C37.8623 120.599 37.8553 122.6 39.1443 122.543Z" fill="black"/>
<path fill-rule="evenodd" clip-rule="evenodd" d="M62.617 133.934C62.269 120.823 61.921 107.712 61.572 94.6019C61.538 93.3169 59.538 93.3119 59.572 94.6019C59.921 107.712 60.269 120.823 60.617 133.934C60.651 135.219 62.651 135.224 62.617 133.934Z" fill="black"/>
<path fill-rule="evenodd" clip-rule="evenodd" d="M62.0007 135.121C65.8037 134.472 69.6137 133.057 72.3667 130.256C74.6327 127.951 75.8947 124.933 76.2807 121.751C77.1447 114.664 74.1047 107.281 70.1587 101.544C67.9027 98.2648 65.1847 95.2968 61.9297 92.9878C60.8777 92.2418 59.8777 93.9748 60.9197 94.7148C66.2917 98.5258 70.3857 104.461 72.6597 110.594C74.6947 116.084 75.6677 123.125 71.6897 128.022C69.1707 131.124 65.2977 132.538 61.4697 133.192C60.2027 133.409 60.7397 135.336 62.0007 135.121" fill="black"/>
<path fill-rule="evenodd" clip-rule="evenodd" d="M22.652 48.314C38.874 48.388 55.095 48.472 71.317 48.546C72.604 48.552 72.606 46.552 71.317 46.546C55.095 46.472 38.874 46.388 22.652 46.314C21.365 46.308 21.363 48.308 22.652 48.314" fill="black"/>
<path fill-rule="evenodd" clip-rule="evenodd" d="M72.5271 47.1896C74.1461 36.9776 75.7651 26.7656 77.3851 16.5536C77.5851 15.2936 75.6581 14.7516 75.4571 16.0216C73.8381 26.2336 72.2171 36.4456 70.5981 46.6576C70.3991 47.9176 72.3261 48.4596 72.5271 47.1896" fill="black"/>
<path fill-rule="evenodd" clip-rule="evenodd" d="M75.2273 15.1812C70.1333 20.4202 65.0393 25.6592 59.9453 30.8972C59.0463 31.8202 60.4593 33.2362 61.3593 32.3112C66.4543 27.0732 71.5473 21.8342 76.6423 16.5962C77.5403 15.6722 76.1263 14.2572 75.2273 15.1812" fill="black"/>
<path fill-rule="evenodd" clip-rule="evenodd" d="M61.0399 31.2074C57.1829 23.7934 53.3239 16.3794 49.4659 8.96538C48.9159 7.90838 48.3649 6.85038 47.8139 5.79238C47.2209 4.65038 45.4939 5.66038 46.0879 6.80138C49.9459 14.2154 53.8039 21.6294 57.6619 29.0434C58.2119 30.1014 58.7629 31.1594 59.3129 32.2174C59.9069 33.3594 61.6339 32.3494 61.0399 31.2074Z" fill="black"/>
<path fill-rule="evenodd" clip-rule="evenodd" d="M23.3035 46.6578C21.6845 36.4458 20.0655 26.2338 18.4465 16.0218C18.2445 14.7538 16.3175 15.2918 16.5175 16.5538C18.1365 26.7648 19.7555 36.9768 21.3745 47.1898C21.5755 48.4568 23.5035 47.9188 23.3035 46.6578Z" fill="black"/>
<path fill-rule="evenodd" clip-rule="evenodd" d="M17.2605 16.5957C22.3545 21.8337 27.4485 27.0727 32.5425 32.3117C33.4425 33.2357 34.8555 31.8207 33.9575 30.8967C28.8635 25.6587 23.7685 20.4197 18.6745 15.1807C17.7755 14.2567 16.3625 15.6717 17.2605 16.5957" fill="black"/>
<path fill-rule="evenodd" clip-rule="evenodd" d="M34.5895 32.2171C37.1065 28.8671 38.9685 24.9601 40.8545 21.2371C42.8455 17.3041 44.7455 13.3261 46.6115 9.33306C46.9105 8.69506 47.2075 8.05506 47.5055 7.41806C47.5895 7.23906 47.7025 7.05606 47.7635 6.86806C47.8285 6.66506 48.0205 6.57306 47.7245 6.83506C47.1675 6.51006 46.6105 6.18606 46.0535 5.86206C46.0445 5.91906 46.0085 5.97906 45.9865 6.03106C45.4915 7.21706 47.4265 7.73506 47.9155 6.56306C47.9375 6.51006 47.9725 6.45006 47.9825 6.39306C48.1405 5.41706 47.0975 4.72406 46.3105 5.42106C45.7995 5.87306 45.5415 6.91606 45.2675 7.50606C44.4865 9.17806 43.7025 10.8481 42.9075 12.5131C40.7935 16.9461 38.6365 21.3661 36.2695 25.6691C35.2275 27.5621 34.1625 29.4761 32.8615 31.2071C32.0885 32.2371 33.8235 33.2351 34.5895 32.2171" fill="black"/>
<path fill-rule="evenodd" clip-rule="evenodd" d="M20.9235 47.5199C21.0045 49.3529 21.0855 51.1869 21.1675 53.0199C21.1905 53.5419 21.6105 54.0449 22.1675 54.0199C22.6895 53.9969 23.1925 53.5799 23.1675 53.0199C23.0855 51.1869 23.0045 49.3529 22.9235 47.5199C22.9005 46.9979 22.4805 46.4949 21.9235 46.5199C21.4015 46.5429 20.8985 46.9599 20.9235 47.5199Z" fill="black"/>
<path fill-rule="evenodd" clip-rule="evenodd" d="M21.903 54.4445C38.319 54.3665 54.735 54.2885 71.152 54.2095C72.438 54.2035 72.441 52.2035 71.152 52.2095C54.735 52.2885 38.319 52.3665 21.903 52.4445C20.616 52.4505 20.614 54.4505 21.903 54.4445Z" fill="black"/>
<path fill-rule="evenodd" clip-rule="evenodd" d="M72.9021 48.5211V47.8471C72.9021 47.3241 72.4421 46.8221 71.9021 46.8471C71.3601 46.8711 70.9021 47.2861 70.9021 47.8471V53.2711C70.9021 53.7941 71.3621 54.2951 71.9021 54.2711C72.4441 54.2471 72.9021 53.8321 72.9021 53.2711V47.8471C72.9021 47.3241 72.4421 46.8221 71.9021 46.8471C71.3601 46.8711 70.9021 47.2861 70.9021 47.8471V48.5211C70.9021 49.0441 71.3621 49.5451 71.9021 49.5211C72.4441 49.4971 72.9021 49.0821 72.9021 48.5211Z" fill="black"/>
<path fill-rule="evenodd" clip-rule="evenodd" d="M45.823 27.192C41.959 31.052 42.004 37.741 45.831 41.592C46.74 42.507 48.154 41.093 47.246 40.178C44.179 37.093 44.138 31.701 47.237 28.606C48.149 27.695 46.735 26.281 45.823 27.192" fill="black"/>
<path fill-rule="evenodd" clip-rule="evenodd" d="M47.3396 42.0497C52.1076 38.3687 52.2526 30.7027 47.5636 26.8717C47.1426 26.5277 46.5626 26.4667 46.1496 26.8717C45.7926 27.2207 45.7326 27.9447 46.1496 28.2857C48.0286 29.8217 49.0566 32.0537 49.0286 34.4827C49.0046 36.6697 48.0956 38.9597 46.3306 40.3227C45.9006 40.6557 45.6806 41.1787 45.9716 41.6917C46.2126 42.1137 46.9126 42.3797 47.3396 42.0497" fill="black"/>
<path fill-rule="evenodd" clip-rule="evenodd" d="M28.1461 35.5319C27.7271 35.8409 27.3141 36.1619 26.9311 36.5159C26.6851 36.7439 26.4501 36.9869 26.2431 37.2509C26.0351 37.5179 25.8271 37.7849 25.6871 38.0949C25.6121 38.2639 25.5321 38.4389 25.4851 38.6189C25.4401 38.7899 25.4171 38.9689 25.4051 39.1449C25.3941 39.3139 25.4251 39.4849 25.4511 39.6509C25.4621 39.7259 25.4821 39.7999 25.5111 39.8699C25.5701 40.0159 25.6261 40.1719 25.7161 40.3039C25.8061 40.4339 25.9041 40.5659 26.0171 40.6769C26.1341 40.7919 26.2691 40.8899 26.4021 40.9839C26.4711 41.0319 26.5431 41.0749 26.6191 41.1139C26.7741 41.1929 26.9371 41.2599 27.1001 41.3209C27.1881 41.3529 27.2771 41.3809 27.3671 41.4049C27.4611 41.4299 27.5581 41.4509 27.6551 41.4679C27.8421 41.5009 28.0321 41.5259 28.2211 41.5439C28.4301 41.5649 28.6421 41.5689 28.8521 41.5599C29.1551 41.5479 29.4581 41.5079 29.7551 41.4539C29.9611 41.4169 30.1661 41.3649 30.3641 41.2979C30.5411 41.2369 30.7131 41.1629 30.8841 41.0869C30.9741 41.0479 31.0621 41.0039 31.1481 40.9549C31.2301 40.9079 31.3101 40.8579 31.3861 40.8019C31.5261 40.6999 31.6671 40.5949 31.7931 40.4749C31.9181 40.3559 32.0191 40.2169 32.1241 40.0799C32.1751 40.0109 32.2221 39.9399 32.2611 39.8639C32.3381 39.7129 32.4081 39.5539 32.4561 39.3899C32.5041 39.2229 32.5231 39.0439 32.5391 38.8729C32.5461 38.7809 32.5451 38.6869 32.5361 38.5949C32.5151 38.4079 32.4941 38.2159 32.4411 38.0339C32.3861 37.8439 32.3041 37.6589 32.2221 37.4799C32.1691 37.3649 32.1081 37.2529 32.0411 37.1449C31.9181 36.9489 31.7761 36.7679 31.6341 36.5869C31.5321 36.4559 31.4221 36.3299 31.3081 36.2079C31.0341 35.9149 30.7331 35.6469 30.4211 35.3939C30.1761 35.1959 29.9251 35.0029 29.6701 34.8179C29.5561 34.7449 29.4321 34.7049 29.2981 34.6989C29.1661 34.6689 29.0331 34.6749 28.9001 34.7169C28.7701 34.7479 28.6571 34.8069 28.5601 34.8959C28.4511 34.9669 28.3651 35.0599 28.3021 35.1769C28.2691 35.2559 28.2351 35.3359 28.2021 35.4149C28.1541 35.5929 28.1541 35.7699 28.2021 35.9469C28.2351 36.0269 28.2691 36.1059 28.3021 36.1859C28.3911 36.3359 28.5111 36.4559 28.6621 36.5449C28.7701 36.6239 28.8781 36.7049 28.9851 36.7869C28.9171 36.7359 28.8501 36.6829 28.7831 36.6309C29.0171 36.8119 29.2461 37.0009 29.4651 37.2009C29.6511 37.3709 29.8311 37.5479 29.9991 37.7369C30.0811 37.8289 30.1601 37.9239 30.2361 38.0209C30.1831 37.9539 30.1311 37.8859 30.0801 37.8189C30.2211 38.0019 30.3501 38.1969 30.4551 38.4039C30.4801 38.4549 30.5041 38.5069 30.5261 38.5599C30.4931 38.4799 30.4591 38.3999 30.4251 38.3209C30.4791 38.4469 30.5211 38.5779 30.5481 38.7129C30.5551 38.7469 30.5611 38.7819 30.5661 38.8169C30.5541 38.7289 30.5421 38.6399 30.5301 38.5519C30.5461 38.6779 30.5481 38.8059 30.5321 38.9329C30.5431 38.8439 30.5551 38.7559 30.5681 38.6669C30.5521 38.7819 30.5211 38.8939 30.4761 39.0009C30.5101 38.9219 30.5431 38.8419 30.5771 38.7619C30.5411 38.8489 30.4951 38.9309 30.4421 39.0089C30.4261 39.0309 30.4101 39.0529 30.3931 39.0739C30.4451 39.0069 30.4981 38.9399 30.5491 38.8719C30.4771 38.9669 30.3931 39.0529 30.3031 39.1299C30.2771 39.1529 30.2501 39.1749 30.2221 39.1959C30.2901 39.1429 30.3571 39.0919 30.4241 39.0389C30.2831 39.1479 30.1281 39.2399 29.9681 39.3169C29.9201 39.3399 29.8731 39.3619 29.8241 39.3819C29.9041 39.3479 29.9831 39.3149 30.0631 39.2819C29.9361 39.3349 29.8051 39.3809 29.6721 39.4199C29.5371 39.4599 29.3991 39.4919 29.2591 39.5189C29.1791 39.5339 29.0991 39.5469 29.0181 39.5579C29.1071 39.5459 29.1961 39.5339 29.2841 39.5219C29.1251 39.5429 28.9651 39.5569 28.8051 39.5619C28.6471 39.5669 28.4891 39.5649 28.3321 39.5529C28.2451 39.5469 28.1591 39.5379 28.0731 39.5269C28.1621 39.5389 28.2501 39.5509 28.3381 39.5629C28.2271 39.5479 28.1171 39.5289 28.0081 39.5029C27.9041 39.4799 27.8001 39.4509 27.7001 39.4159C27.6451 39.3969 27.5901 39.3769 27.5371 39.3539C27.6171 39.3879 27.6961 39.4219 27.7761 39.4549C27.6571 39.4049 27.5421 39.3449 27.4351 39.2739C27.4071 39.2539 27.3791 39.2339 27.3521 39.2139C27.4191 39.2649 27.4871 39.3179 27.5551 39.3699C27.4881 39.3179 27.4241 39.2599 27.3691 39.1959C27.3531 39.1779 27.3371 39.1599 27.3231 39.1409C27.3751 39.2089 27.4271 39.2759 27.4801 39.3439C27.4251 39.2729 27.3791 39.1959 27.3441 39.1129C27.3771 39.1929 27.4121 39.2719 27.4451 39.3519C27.4111 39.2709 27.3881 39.1859 27.3761 39.0989C27.3881 39.1869 27.4001 39.2759 27.4121 39.3649C27.3991 39.2629 27.4001 39.1599 27.4141 39.0589C27.4021 39.1469 27.3901 39.2359 27.3781 39.3239C27.3931 39.2159 27.4211 39.1089 27.4591 39.0049C27.4701 38.9719 27.4841 38.9399 27.4971 38.9079C27.4631 38.9879 27.4301 39.0669 27.3961 39.1469C27.4721 38.9669 27.5731 38.7969 27.6851 38.6369C27.7221 38.5839 27.7601 38.5319 27.7991 38.4819C27.7481 38.5489 27.6951 38.6159 27.6431 38.6839C27.7811 38.5069 27.9311 38.3389 28.0881 38.1789C28.2791 37.9859 28.4811 37.8029 28.6881 37.6279C28.8221 37.5149 28.9581 37.4059 29.0971 37.2989L28.8951 37.4549C28.9811 37.3889 29.0681 37.3239 29.1551 37.2589C29.2721 37.1959 29.3651 37.1099 29.4361 37.0009C29.5241 36.9049 29.5831 36.7909 29.6151 36.6609C29.6571 36.5279 29.6631 36.3949 29.6321 36.2619C29.6261 36.1289 29.5871 36.0059 29.5141 35.8899C29.4611 35.8229 29.4101 35.7559 29.3581 35.6879C29.2331 35.5639 29.0851 35.4789 28.9171 35.4309C28.8281 35.4189 28.7391 35.4069 28.6511 35.3949C28.4701 35.3959 28.3011 35.4419 28.1461 35.5319" fill="black"/>
<path fill-rule="evenodd" clip-rule="evenodd" d="M64.1482 35.7542C63.7982 35.9752 63.4652 36.2192 63.1432 36.4782C62.9422 36.6402 62.7512 36.8132 62.5782 37.0042C62.4502 37.1462 62.3342 37.2982 62.2212 37.4522C62.1662 37.5282 62.1152 37.6072 62.0692 37.6902C62.0492 37.7262 62.0302 37.7632 62.0122 37.8012C61.9602 37.9152 61.9102 38.0312 61.8662 38.1492C61.8392 38.2182 61.8192 38.2892 61.8052 38.3612C61.7762 38.5132 61.7512 38.6702 61.7502 38.8262C61.7502 38.8582 61.7522 38.8892 61.7542 38.9212C61.7662 39.0402 61.7802 39.1602 61.8032 39.2772C61.8152 39.3372 61.8342 39.3952 61.8562 39.4522C61.9102 39.5852 61.9612 39.7272 62.0402 39.8502C62.1192 39.9732 62.2112 40.0892 62.3082 40.1982C62.3512 40.2472 62.3982 40.2912 62.4472 40.3332C62.5372 40.4082 62.6302 40.4792 62.7242 40.5482C62.7522 40.5682 62.7802 40.5882 62.8082 40.6072C62.8662 40.6452 62.9262 40.6802 62.9882 40.7122C63.1272 40.7842 63.2762 40.8432 63.4212 40.9012C63.4912 40.9292 63.5612 40.9542 63.6322 40.9762C63.7792 41.0222 63.9282 41.0552 64.0802 41.0772C64.3222 41.1132 64.5642 41.1482 64.8082 41.1492C65.0492 41.1502 65.2882 41.1172 65.5262 41.0812C65.6692 41.0592 65.8112 41.0252 65.9492 40.9772C66.0942 40.9252 66.2382 40.8652 66.3772 40.7972C66.4362 40.7682 66.4952 40.7362 66.5502 40.6992C66.6742 40.6182 66.7942 40.5262 66.9042 40.4272C66.9512 40.3852 66.9942 40.3392 67.0332 40.2902C67.1222 40.1792 67.2222 40.0622 67.2912 39.9332C67.3452 39.8302 67.3872 39.7182 67.4302 39.6112C67.4432 39.5812 67.4542 39.5512 67.4632 39.5212C67.5082 39.3732 67.5222 39.2092 67.5392 39.0602C67.5462 38.9882 67.5472 38.9152 67.5442 38.8432C67.5272 38.5862 67.4852 38.3242 67.3972 38.0812C67.2932 37.7962 67.1662 37.5182 67.0052 37.2602C66.9362 37.1482 66.8612 37.0382 66.7832 36.9322C66.6462 36.7452 66.5032 36.5622 66.3552 36.3852C66.2522 36.2622 66.1432 36.1422 66.0332 36.0252C65.9422 35.9272 65.8352 35.8582 65.7102 35.8182C65.5912 35.7552 65.4632 35.7272 65.3262 35.7322C65.1882 35.7272 65.0592 35.7552 64.9402 35.8182C64.8162 35.8582 64.7102 35.9272 64.6192 36.0252C64.5662 36.0922 64.5142 36.1602 64.4622 36.2272C64.3722 36.3832 64.3262 36.5512 64.3262 36.7322C64.3372 36.8202 64.3492 36.9092 64.3612 36.9982C64.4092 37.1672 64.4952 37.3142 64.6192 37.4392C64.7962 37.6282 64.9662 37.8232 65.1262 38.0282C65.0732 37.9612 65.0212 37.8932 64.9692 37.8262C65.1452 38.0532 65.3072 38.2932 65.4372 38.5502C65.4672 38.6112 65.4972 38.6722 65.5232 38.7352C65.4902 38.6562 65.4562 38.5762 65.4222 38.4972C65.4782 38.6282 65.5232 38.7642 65.5512 38.9042C65.5582 38.9392 65.5642 38.9742 65.5692 39.0092C65.5572 38.9212 65.5452 38.8322 65.5332 38.7432C65.5482 38.8572 65.5502 38.9712 65.5362 39.0852C65.5472 38.9962 65.5592 38.9072 65.5722 38.8182C65.5592 38.9092 65.5362 38.9992 65.5012 39.0832C65.5342 39.0042 65.5682 38.9242 65.6012 38.8442C65.5682 38.9242 65.5242 38.9992 65.4712 39.0672C65.5232 39.0002 65.5762 38.9322 65.6272 38.8652C65.5682 38.9422 65.4982 39.0102 65.4202 39.0702C65.4882 39.0182 65.5552 38.9662 65.6232 38.9142C65.5432 38.9752 65.4562 39.0272 65.3652 39.0712C65.3382 39.0852 65.3112 39.0972 65.2842 39.1082C65.3632 39.0752 65.4432 39.0412 65.5222 39.0072C65.3802 39.0672 65.2322 39.1092 65.0812 39.1372C65.0372 39.1462 64.9922 39.1522 64.9472 39.1592C65.0362 39.1472 65.1252 39.1352 65.2132 39.1232C65.0022 39.1512 64.7892 39.1552 64.5772 39.1392C64.5152 39.1342 64.4552 39.1282 64.3942 39.1202C64.4832 39.1322 64.5712 39.1442 64.6602 39.1562C64.4602 39.1292 64.2622 39.0842 64.0722 39.0172C64.0202 38.9992 63.9682 38.9802 63.9182 38.9582C63.9982 38.9922 64.0772 39.0252 64.1572 39.0592C64.0322 39.0062 63.9122 38.9432 63.7992 38.8682C63.7692 38.8482 63.7402 38.8262 63.7112 38.8042C63.7792 38.8572 63.8462 38.9082 63.9142 38.9612C63.8222 38.8902 63.7382 38.8102 63.6682 38.7182C63.7192 38.7862 63.7722 38.8532 63.8242 38.9212C63.7682 38.8492 63.7222 38.7722 63.6872 38.6882C63.7202 38.7682 63.7532 38.8482 63.7882 38.9272C63.7552 38.8512 63.7342 38.7712 63.7222 38.6892C63.7352 38.7772 63.7472 38.8662 63.7582 38.9552C63.7472 38.8672 63.7482 38.7782 63.7592 38.6912C63.7482 38.7792 63.7352 38.8682 63.7232 38.9562C63.7392 38.8422 63.7722 38.7312 63.8162 38.6252C63.7832 38.7052 63.7502 38.7842 63.7152 38.8642C63.7692 38.7382 63.8372 38.6192 63.9162 38.5072C63.9412 38.4712 63.9662 38.4362 63.9932 38.4012C63.9412 38.4692 63.8892 38.5372 63.8362 38.6042C64.0122 38.3782 64.2182 38.1772 64.4362 37.9922C64.5112 37.9282 64.5872 37.8672 64.6662 37.8072C64.5982 37.8592 64.5312 37.9112 64.4622 37.9632C64.6862 37.7912 64.9192 37.6322 65.1582 37.4812C65.2742 37.4192 65.3682 37.3332 65.4382 37.2242C65.5272 37.1272 65.5862 37.0142 65.6182 36.8832C65.6592 36.7512 65.6652 36.6182 65.6352 36.4852C65.6292 36.3522 65.5892 36.2282 65.5162 36.1132C65.4642 36.0462 65.4132 35.9782 65.3602 35.9112C65.2352 35.7872 65.0882 35.7012 64.9192 35.6532C64.8312 35.6422 64.7422 35.6292 64.6532 35.6182C64.4722 35.6182 64.3042 35.6642 64.1482 35.7542" fill="black"/>
<path fill-rule="evenodd" clip-rule="evenodd" d="M81.907 33.3841C83.99 32.3841 86.074 31.3841 88.157 30.3841C88.63 30.1571 88.792 29.4451 88.515 29.0161C88.203 28.5301 87.653 28.4141 87.147 28.6571C85.064 29.6571 82.98 30.6571 80.897 31.6571C80.425 31.8841 80.262 32.5971 80.539 33.0261C80.851 33.5111 81.401 33.6271 81.907 33.3841Z" fill="black"/>
<path fill-rule="evenodd" clip-rule="evenodd" d="M81.9041 39.8124C83.3211 39.7304 84.7382 39.6484 86.1552 39.5654C86.6752 39.5354 87.1792 39.1274 87.1552 38.5654C87.1322 38.0504 86.7142 37.5334 86.1552 37.5654C84.7382 37.6484 83.3211 37.7304 81.9041 37.8124C81.3831 37.8424 80.8801 38.2504 80.9041 38.8124C80.9271 39.3284 81.3451 39.8454 81.9041 39.8124Z" fill="black"/>
<path fill-rule="evenodd" clip-rule="evenodd" d="M81.7409 44.5031C83.3029 45.6151 84.8669 46.7271 86.4299 47.8381C86.8579 48.1431 87.5609 47.9281 87.7989 47.4801C88.0699 46.9651 87.8959 46.4361 87.4389 46.1121C85.8769 45.0001 84.3129 43.8881 82.7499 42.7761C82.3229 42.4721 81.6189 42.6871 81.3819 43.1351C81.1099 43.6501 81.2839 44.1791 81.7409 44.5031" fill="black"/>
<path fill-rule="evenodd" clip-rule="evenodd" d="M12.0281 31.6588C10.7241 30.5408 9.4211 29.4228 8.1181 28.3048C7.7201 27.9638 7.0881 27.8858 6.7031 28.3048C6.3601 28.6788 6.2791 29.3548 6.7031 29.7188L10.6141 33.0728C11.0101 33.4128 11.6431 33.4918 12.0281 33.0728C12.3711 32.6988 12.4521 32.0228 12.0281 31.6588" fill="black"/>
<path fill-rule="evenodd" clip-rule="evenodd" d="M11.1677 37.8066C9.74769 37.5786 8.32768 37.3506 6.90668 37.1226C6.63368 37.0786 6.38568 37.0776 6.13668 37.2236C5.92968 37.3446 5.73069 37.5826 5.67769 37.8216C5.56769 38.3016 5.82269 38.9626 6.37568 39.0516C7.79568 39.2796 9.21569 39.5076 10.6367 39.7356C10.9097 39.7796 11.1577 39.7796 11.4067 39.6346C11.6137 39.5136 11.8127 39.2746 11.8657 39.0366C11.9757 38.5566 11.7207 37.8956 11.1677 37.8066" fill="black"/>
<path fill-rule="evenodd" clip-rule="evenodd" d="M11.8864 42.893C10.0534 44.226 8.21943 45.56 6.38643 46.893C5.96443 47.199 5.71443 47.775 6.02843 48.261C6.29743 48.679 6.94343 48.949 7.39643 48.62C9.22943 47.286 11.0634 45.953 12.8964 44.62C13.3184 44.313 13.5684 43.737 13.2544 43.251C12.9854 42.833 12.3394 42.564 11.8864 42.893" fill="black"/>
<path fill-rule="evenodd" clip-rule="evenodd" d="M17.9371 15.0606C17.6071 14.9056 17.2871 14.7276 16.9861 14.5206C16.9111 14.4686 16.8371 14.4146 16.7651 14.3596L16.9671 14.5166C16.7611 14.3566 16.5681 14.1806 16.3961 13.9846C16.3521 13.9346 16.3101 13.8826 16.2691 13.8306C16.3221 13.8976 16.3741 13.9656 16.4251 14.0326C16.3111 13.8846 16.2091 13.7266 16.1261 13.5586C16.1051 13.5146 16.0851 13.4696 16.0661 13.4246C16.0991 13.5046 16.1331 13.5836 16.1661 13.6636C16.1061 13.5186 16.0581 13.3666 16.0281 13.2126C16.0201 13.1696 16.0131 13.1276 16.0071 13.0856C16.0191 13.1736 16.0311 13.2626 16.0431 13.3516C16.0241 13.2046 16.0191 13.0566 16.0301 12.9096C16.0331 12.8686 16.0381 12.8286 16.0421 12.7886C16.0311 12.8766 16.0191 12.9656 16.0071 13.0546C16.0271 12.9066 16.0621 12.7606 16.1121 12.6206C16.1261 12.5816 16.1411 12.5416 16.1581 12.5036C16.1241 12.5836 16.0901 12.6636 16.0571 12.7426C16.1141 12.6066 16.1851 12.4766 16.2691 12.3546C16.2921 12.3216 16.3161 12.2886 16.3401 12.2566C16.2891 12.3236 16.2371 12.3916 16.1841 12.4586C16.2671 12.3516 16.3611 12.2516 16.4631 12.1626C16.4921 12.1376 16.5201 12.1136 16.5501 12.0906C16.4831 12.1436 16.4151 12.1956 16.3471 12.2476C16.4381 12.1776 16.5361 12.1156 16.6381 12.0646C16.6661 12.0506 16.6941 12.0376 16.7221 12.0256C16.6431 12.0596 16.5631 12.0926 16.4841 12.1266C16.5681 12.0906 16.6561 12.0626 16.7471 12.0446C16.7711 12.0396 16.7961 12.0356 16.8211 12.0326C16.7331 12.0446 16.6441 12.0566 16.5551 12.0676C16.6281 12.0586 16.7031 12.0556 16.7771 12.0606C16.7971 12.0616 16.8181 12.0646 16.8381 12.0666C16.7501 12.0556 16.6621 12.0426 16.5731 12.0316C16.6581 12.0426 16.7411 12.0646 16.8191 12.0986C16.7401 12.0646 16.6601 12.0306 16.5811 11.9976C16.6581 12.0306 16.7311 12.0736 16.7981 12.1256C16.7311 12.0736 16.6641 12.0216 16.5961 11.9696C16.6751 12.0306 16.7451 12.1026 16.8051 12.1816C16.7531 12.1136 16.7011 12.0456 16.6491 11.9786C16.7141 12.0636 16.7701 12.1556 16.8161 12.2526C16.8311 12.2826 16.8451 12.3136 16.8581 12.3446C16.8251 12.2646 16.7911 12.1856 16.7571 12.1056C16.8311 12.2806 16.8801 12.4646 16.9161 12.6516C16.9271 12.7126 16.9361 12.7736 16.9451 12.8356C16.9331 12.7466 16.9211 12.6586 16.9091 12.5696C16.9361 12.7686 16.9481 12.9696 16.9511 13.1706C16.9531 13.4106 16.9421 13.6496 16.9211 13.8886C16.9081 14.0416 16.8901 14.1946 16.8701 14.3476C16.8811 14.2586 16.8941 14.1696 16.9061 14.0816C16.8701 14.3496 16.8241 14.6166 16.7711 14.8816C16.7541 14.9636 16.7371 15.0466 16.7191 15.1286C16.6771 15.2616 16.6711 15.3946 16.7021 15.5276C16.7081 15.6606 16.7471 15.7846 16.8201 15.8986C16.8831 16.0156 16.9691 16.1086 17.0781 16.1796C17.1741 16.2686 17.2881 16.3276 17.4171 16.3586C17.5061 16.3706 17.5951 16.3826 17.6831 16.3946C17.8641 16.3936 18.0331 16.3486 18.1881 16.2576C18.2551 16.2056 18.3231 16.1536 18.3911 16.1016C18.5141 15.9766 18.6001 15.8296 18.6481 15.6606C18.7491 15.1966 18.8221 14.7296 18.8811 14.2586C18.9211 13.9436 18.9471 13.6266 18.9511 13.3096C18.9521 13.1746 18.9491 13.0396 18.9411 12.9056C18.9291 12.6976 18.9001 12.4916 18.8711 12.2856C18.8431 12.0836 18.7991 11.8836 18.7321 11.6916C18.6741 11.5316 18.6091 11.3726 18.5331 11.2206C18.4981 11.1526 18.4591 11.0856 18.4161 11.0236C18.3471 10.9256 18.2731 10.8316 18.1981 10.7396C18.1761 10.7126 18.1531 10.6866 18.1291 10.6626C18.1071 10.6396 18.0831 10.6166 18.0601 10.5956C18.0471 10.5846 18.0361 10.5746 18.0231 10.5646C17.9451 10.5026 17.8661 10.4406 17.7851 10.3816C17.7361 10.3456 17.6841 10.3146 17.6301 10.2886C17.5271 10.2396 17.4201 10.1946 17.3141 10.1546C17.2871 10.1446 17.2581 10.1356 17.2301 10.1276C17.2031 10.1206 17.1751 10.1146 17.1481 10.1096C17.0321 10.0886 16.9151 10.0736 16.7971 10.0626C16.7401 10.0576 16.6821 10.0566 16.6251 10.0606C16.4781 10.0716 16.3311 10.0906 16.1861 10.1226C16.1271 10.1356 16.0691 10.1526 16.0121 10.1736C15.8141 10.2476 15.6141 10.3306 15.4371 10.4486C15.4101 10.4676 15.3821 10.4866 15.3561 10.5066C15.2621 10.5776 15.1671 10.6486 15.0771 10.7246C15.0251 10.7686 14.9741 10.8146 14.9261 10.8636C14.8771 10.9146 14.8321 10.9676 14.7881 11.0216C14.6911 11.1436 14.5921 11.2666 14.5071 11.3976C14.3801 11.5936 14.2911 11.8106 14.2071 12.0276C14.1511 12.1696 14.1101 12.3186 14.0861 12.4696C14.0471 12.7156 14.0121 12.9626 14.0291 13.2126C14.0411 13.3836 14.0651 13.5556 14.0961 13.7246C14.1121 13.8096 14.1331 13.8946 14.1591 13.9776C14.2101 14.1456 14.2841 14.3096 14.3541 14.4696C14.3931 14.5586 14.4371 14.6436 14.4861 14.7276C14.5391 14.8166 14.5951 14.9036 14.6571 14.9866C14.7721 15.1426 14.8901 15.2976 15.0201 15.4416C15.1001 15.5296 15.1841 15.6136 15.2721 15.6946C15.4291 15.8376 15.5981 15.9656 15.7671 16.0956C15.9991 16.2736 16.2471 16.4306 16.5011 16.5706C16.6411 16.6476 16.7841 16.7196 16.9281 16.7876C17.0421 16.8606 17.1661 16.8996 17.2991 16.9056C17.4331 16.9356 17.5661 16.9296 17.6991 16.8886C17.8291 16.8566 17.9421 16.7976 18.0391 16.7086C18.1471 16.6386 18.2331 16.5446 18.2961 16.4286C18.3301 16.3496 18.3641 16.2686 18.3971 16.1896C18.4451 16.0126 18.4451 15.8346 18.3971 15.6576C18.3641 15.5786 18.3301 15.4986 18.2961 15.4186C18.2081 15.2686 18.0871 15.1496 17.9371 15.0606" fill="black"/>
<path fill-rule="evenodd" clip-rule="evenodd" d="M47.8582 6.0629C47.8152 6.0089 47.7732 5.9549 47.7312 5.8999C47.7832 5.9679 47.8362 6.0349 47.8872 6.1029C47.8152 6.0089 47.7442 5.9149 47.6732 5.8199C47.6062 5.7289 47.5402 5.6379 47.4742 5.5449C47.4122 5.4579 47.3502 5.3689 47.2902 5.2789C47.2312 5.1929 47.1732 5.1059 47.1182 5.0199C47.0642 4.9359 47.0112 4.8519 46.9602 4.7669C46.9102 4.6869 46.8622 4.6049 46.8142 4.5229C46.7692 4.4449 46.7242 4.3649 46.6812 4.2859C46.6402 4.2089 46.6002 4.1329 46.5612 4.0559C46.5242 3.9819 46.4882 3.9079 46.4532 3.8339C46.4202 3.7629 46.3872 3.6909 46.3562 3.6189C46.3482 3.6019 46.3402 3.5839 46.3342 3.5669C46.3672 3.6459 46.4012 3.7269 46.4342 3.8059C46.3972 3.7179 46.3622 3.6299 46.3292 3.5409C46.2982 3.4569 46.2692 3.3729 46.2422 3.2879C46.2162 3.2079 46.1932 3.1279 46.1722 3.0469C46.1522 2.9719 46.1342 2.8959 46.1192 2.8189C46.1042 2.7479 46.0912 2.6749 46.0822 2.6029C46.0802 2.5939 46.0792 2.5849 46.0782 2.5769C46.0892 2.6659 46.1012 2.7539 46.1142 2.8429C46.1072 2.7939 46.1012 2.7459 46.0972 2.6959C46.0932 2.6499 46.0902 2.6029 46.0882 2.5559C46.0872 2.5119 46.0862 2.4669 46.0872 2.4219C46.0872 2.3789 46.0882 2.3359 46.0912 2.2939C46.0942 2.2529 46.0982 2.2119 46.1042 2.1719C46.1042 2.1669 46.1052 2.1619 46.1062 2.1569C46.0932 2.2459 46.0822 2.3339 46.0702 2.4229C46.0782 2.3629 46.0882 2.3029 46.1032 2.2439C46.1162 2.1879 46.1312 2.1329 46.1512 2.0799C46.1612 2.0509 46.1712 2.0219 46.1832 1.9939C46.1502 2.0729 46.1172 2.1529 46.0832 2.2319C46.1002 2.1909 46.1202 2.1509 46.1412 2.1109C46.1622 2.0739 46.1832 2.0369 46.2082 2.0009C46.2212 1.9819 46.2352 1.9629 46.2502 1.9449C46.1972 2.0119 46.1452 2.0799 46.0922 2.1469C46.1162 2.1169 46.1412 2.0879 46.1682 2.0599C46.1932 2.0329 46.2192 2.0069 46.2482 1.9829C46.2632 1.9699 46.2792 1.9569 46.2962 1.9439C46.2282 1.9959 46.1612 2.0479 46.0932 2.0999C46.1232 2.0769 46.1542 2.0559 46.1852 2.0359C46.2162 2.0169 46.2502 1.9989 46.2832 1.9819C46.3012 1.9729 46.3202 1.9649 46.3392 1.9569C46.2592 1.9899 46.1802 2.0239 46.1002 2.0579C46.1372 2.0419 46.1762 2.0279 46.2152 2.0159C46.2542 2.0039 46.2942 1.9949 46.3342 1.9869C46.3562 1.9819 46.3792 1.9789 46.4022 1.9759C46.3132 1.9879 46.2242 1.9999 46.1362 2.0119C46.1812 2.0049 46.2282 2.0019 46.2742 2.0009C46.3212 1.9999 46.3682 2.0009 46.4142 2.0039C46.4412 2.0059 46.4672 2.0089 46.4942 2.0129C46.4052 2.0009 46.3162 1.9889 46.2272 1.9769C46.2802 1.9839 46.3332 1.9939 46.3842 2.0059C46.4362 2.0199 46.4882 2.0349 46.5402 2.0529C46.5692 2.0639 46.5982 2.0749 46.6272 2.0869C46.5462 2.0539 46.4672 2.0199 46.3872 1.9859C46.4152 1.9979 46.4412 2.0099 46.4672 2.0219C46.4942 2.0359 46.5212 2.0489 46.5462 2.0629C46.5732 2.0779 46.5992 2.0929 46.6252 2.1089C46.6512 2.1249 46.6762 2.1419 46.7022 2.1589C46.7272 2.1759 46.7532 2.1949 46.7772 2.2139C46.7802 2.2159 46.7842 2.2179 46.7872 2.2209C46.7192 2.1679 46.6512 2.1169 46.5842 2.0639C46.6102 2.0839 46.6352 2.1049 46.6602 2.1259C46.6852 2.1479 46.7102 2.1699 46.7342 2.1929C46.7582 2.2159 46.7832 2.2399 46.8062 2.2649C46.8302 2.2899 46.8532 2.3149 46.8762 2.3409C46.8982 2.3679 46.9212 2.3949 46.9422 2.4219C46.9452 2.4259 46.9482 2.4289 46.9512 2.4329C46.8982 2.3649 46.8462 2.2979 46.7952 2.2299C46.8172 2.2599 46.8392 2.2909 46.8612 2.3219C46.8832 2.3539 46.9052 2.3859 46.9252 2.4189C46.9462 2.4529 46.9652 2.4869 46.9852 2.5209C47.0042 2.5569 47.0232 2.5929 47.0412 2.6289C47.0592 2.6659 47.0772 2.7039 47.0922 2.7419C47.0952 2.7469 47.0972 2.7509 47.0992 2.7559C47.0652 2.6769 47.0322 2.5969 46.9982 2.5179C47.0162 2.5609 47.0342 2.6049 47.0492 2.6489C47.0662 2.6949 47.0812 2.7409 47.0952 2.7879C47.1102 2.8349 47.1232 2.8829 47.1342 2.9319C47.1472 2.9819 47.1582 3.0319 47.1682 3.0829C47.1772 3.1349 47.1862 3.1879 47.1942 3.2399C47.1952 3.2469 47.1962 3.2529 47.1962 3.2599C47.1842 3.1709 47.1722 3.0829 47.1612 2.9939C47.1692 3.0569 47.1752 3.1199 47.1802 3.1829C47.1862 3.2479 47.1892 3.3139 47.1902 3.3789C47.1922 3.4479 47.1922 3.5159 47.1902 3.5839C47.1882 3.6549 47.1842 3.7259 47.1782 3.7969C47.1722 3.8709 47.1652 3.9449 47.1562 4.0179C47.1542 4.0269 47.1532 4.0369 47.1522 4.0459C47.1642 3.9579 47.1752 3.8689 47.1872 3.7799C47.1742 3.8759 47.1592 3.9709 47.1402 4.0659C47.1222 4.1659 47.0992 4.2659 47.0742 4.3639C47.0482 4.4679 47.0192 4.5709 46.9882 4.6739C46.9552 4.7819 46.9192 4.8889 46.8802 4.9959C46.8392 5.1079 46.7962 5.2199 46.7502 5.3309C46.7442 5.3439 46.7382 5.3579 46.7322 5.3729C46.7662 5.2919 46.7992 5.2129 46.8342 5.1329C46.8042 5.2029 46.7742 5.2719 46.7432 5.3409C46.7102 5.4119 46.6762 5.4829 46.6422 5.5539C46.6072 5.6259 46.5712 5.6979 46.5342 5.7699C46.4962 5.8439 46.4572 5.9169 46.4172 5.9899C46.3762 6.0659 46.3332 6.1409 46.2902 6.2149C46.2852 6.2249 46.2792 6.2339 46.2732 6.2439C46.2002 6.3589 46.1612 6.4829 46.1552 6.6159C46.1252 6.7489 46.1302 6.8819 46.1722 7.0149C46.2042 7.1449 46.2632 7.2579 46.3512 7.3549C46.4212 7.4629 46.5152 7.5489 46.6322 7.6119C46.7122 7.6459 46.7922 7.6789 46.8712 7.7129C47.0482 7.7609 47.2252 7.7609 47.4032 7.7129C47.4822 7.6789 47.5622 7.6459 47.6412 7.6119C47.7922 7.5229 47.9122 7.4039 48.0012 7.2529C48.0512 7.1649 48.1022 7.0759 48.1512 6.9859C48.1982 6.8989 48.2442 6.8129 48.2892 6.7249C48.3322 6.6409 48.3742 6.5559 48.4142 6.4709C48.4532 6.3879 48.4902 6.3049 48.5272 6.2209C48.5952 6.0629 48.6642 5.9029 48.7272 5.7419C48.7582 5.6639 48.7882 5.5849 48.8162 5.5059C48.8432 5.4299 48.8702 5.3529 48.8942 5.2759C48.9182 5.2019 48.9402 5.1269 48.9622 5.0519C48.9822 4.9799 49.0012 4.9069 49.0182 4.8339C49.0352 4.7639 49.0502 4.6929 49.0642 4.6229C49.0782 4.5539 49.0902 4.4859 49.1012 4.4169C49.1252 4.2629 49.1462 4.1079 49.1642 3.9539C49.1702 3.8899 49.1762 3.8249 49.1812 3.7609C49.1852 3.6989 49.1892 3.6369 49.1902 3.5749C49.1922 3.5149 49.1922 3.4539 49.1912 3.3939C49.1902 3.3359 49.1872 3.2779 49.1832 3.2199C49.1792 3.1649 49.1742 3.1089 49.1682 3.0529C49.1552 2.9379 49.1382 2.8219 49.1222 2.7069C49.1182 2.6809 49.1142 2.6539 49.1102 2.6269C49.1012 2.5759 49.0912 2.5239 49.0802 2.4729C49.0692 2.4229 49.0572 2.3739 49.0442 2.3249C49.0312 2.2769 49.0162 2.2299 49.0012 2.1829C48.9862 2.1369 48.9692 2.0919 48.9522 2.0469C48.9032 1.9239 48.8522 1.8019 48.7962 1.6809C48.7782 1.6399 48.7582 1.5989 48.7372 1.5589C48.7162 1.5199 48.6952 1.4809 48.6722 1.4429C48.6502 1.4059 48.6272 1.3699 48.6032 1.3339C48.5792 1.2989 48.5542 1.2649 48.5292 1.2309C48.4642 1.1469 48.4012 1.0629 48.3352 0.979903C48.3222 0.964903 48.3092 0.948903 48.2952 0.933903C48.2692 0.902903 48.2422 0.872902 48.2142 0.843902C48.1872 0.814902 48.1592 0.787902 48.1292 0.760902C48.1012 0.734902 48.0722 0.709902 48.0432 0.684902C47.9622 0.618902 47.8792 0.556903 47.7962 0.493903C47.7812 0.481903 47.7652 0.470902 47.7512 0.459902C47.7202 0.437902 47.6902 0.416903 47.6592 0.396903C47.6282 0.376903 47.5962 0.358902 47.5642 0.340902C47.5332 0.323902 47.5012 0.306902 47.4682 0.291902C47.4532 0.283902 47.4372 0.276902 47.4212 0.269902C47.3342 0.230902 47.2462 0.194902 47.1582 0.158902C47.1502 0.154902 47.1422 0.151902 47.1332 0.147902C47.1022 0.135902 47.0692 0.123902 47.0372 0.112902C47.0042 0.101902 46.9712 0.0919025 46.9382 0.0839025C46.9062 0.0749025 46.8732 0.0679025 46.8402 0.0619025C46.8242 0.0589025 46.8082 0.0559025 46.7922 0.0529025C46.7832 0.0519025 46.7752 0.0499025 46.7672 0.0489025C46.6712 0.0359025 46.5742 0.0219025 46.4772 0.0109025C46.4452 0.0059025 46.4132 0.00390249 46.3802 0.00190249C46.3482 0.000902495 46.3162 -9.75052e-05 46.2842 0.000902495C46.2522 0.000902495 46.2202 0.0019025 46.1882 0.0049025C46.0692 0.0169025 45.9492 0.0329025 45.8302 0.0529025C45.7992 0.0589025 45.7692 0.0649025 45.7392 0.0719025C45.7092 0.0799025 45.6782 0.0879025 45.6492 0.0989025C45.6342 0.103902 45.6202 0.107902 45.6052 0.113902C45.5982 0.116902 45.5912 0.119902 45.5852 0.122902C45.4972 0.157902 45.4112 0.194902 45.3252 0.231902C45.2962 0.243902 45.2682 0.256903 45.2412 0.271903C45.2132 0.286903 45.1872 0.301902 45.1612 0.318902C45.1342 0.335902 45.1092 0.353902 45.0852 0.372902C45.0072 0.431902 44.9222 0.493903 44.8452 0.558903C44.8342 0.568903 44.8222 0.578903 44.8102 0.589903C44.7862 0.611903 44.7632 0.633902 44.7422 0.657902C44.6912 0.712902 44.6462 0.774902 44.6002 0.833902C44.5542 0.894902 44.5052 0.952902 44.4642 1.0169C44.4452 1.0459 44.4272 1.0759 44.4122 1.1069C44.3942 1.1389 44.3792 1.1709 44.3642 1.2039C44.3222 1.2989 44.2812 1.3949 44.2432 1.4919C44.2362 1.5099 44.2292 1.5269 44.2232 1.5449C44.2102 1.5819 44.1992 1.6189 44.1882 1.6559C44.1772 1.6949 44.1692 1.7349 44.1612 1.7739C44.1572 1.7949 44.1532 1.8149 44.1502 1.8359C44.1312 1.9449 44.1192 2.0549 44.1052 2.1649C44.0992 2.2089 44.0942 2.2529 44.0912 2.2969C44.0882 2.3439 44.0872 2.3909 44.0872 2.4369C44.0872 2.4859 44.0872 2.5359 44.0892 2.5849C44.0922 2.6359 44.0962 2.6879 44.1012 2.7389C44.1042 2.7659 44.1072 2.7929 44.1102 2.8189C44.1252 2.9349 44.1402 3.0499 44.1572 3.1659C44.1662 3.2219 44.1752 3.2789 44.1872 3.3349C44.1992 3.3949 44.2122 3.4529 44.2262 3.5119C44.2422 3.5729 44.2582 3.6349 44.2762 3.6949C44.2952 3.7599 44.3142 3.8239 44.3362 3.8879C44.3582 3.9539 44.3812 4.0209 44.4062 4.0859C44.4312 4.1559 44.4592 4.2239 44.4872 4.2919C44.5492 4.4439 44.6132 4.5949 44.6802 4.7439C44.7132 4.8179 44.7492 4.8919 44.7842 4.9649C44.8222 5.0419 44.8612 5.1179 44.9002 5.1939C44.9422 5.2729 44.9852 5.3529 45.0302 5.4309C45.0762 5.5129 45.1232 5.5939 45.1702 5.6749C45.2212 5.7589 45.2732 5.8429 45.3252 5.9259C45.3802 6.0129 45.4362 6.0999 45.4932 6.1849C45.5522 6.2749 45.6132 6.3639 45.6742 6.4519C45.7392 6.5439 45.8042 6.6359 45.8722 6.7269C45.9402 6.8219 46.0102 6.9159 46.0822 7.0089C46.2012 7.1659 46.3222 7.3219 46.4442 7.4769C46.5352 7.5749 46.6412 7.6439 46.7652 7.6839C46.8842 7.7469 47.0132 7.7749 47.1512 7.7699C47.2892 7.7749 47.4172 7.7469 47.5362 7.6839C47.6602 7.6439 47.7672 7.5749 47.8582 7.4769C47.9102 7.4099 47.9622 7.3419 48.0142 7.2739C48.1052 7.1189 48.1502 6.9499 48.1512 6.7699C48.1392 6.6809 48.1272 6.5929 48.1152 6.5039C48.0682 6.3339 47.9822 6.1879 47.8582 6.0629" fill="black"/>
<path fill-rule="evenodd" clip-rule="evenodd" d="M77.2047 15.4432C77.0577 15.0732 76.9337 14.6922 76.8557 14.3002C76.8377 14.2072 76.8217 14.1142 76.8087 14.0202C76.8207 14.1092 76.8327 14.1972 76.8447 14.2862C76.8137 14.0612 76.8027 13.8332 76.8177 13.6062C76.8217 13.5502 76.8267 13.4942 76.8347 13.4382C76.8227 13.5272 76.8107 13.6152 76.7987 13.7042C76.8177 13.5622 76.8497 13.4222 76.8967 13.2872C76.9087 13.2522 76.9227 13.2172 76.9367 13.1822C76.9037 13.2622 76.8697 13.3412 76.8367 13.4212C76.8897 13.2972 76.9567 13.1792 77.0387 13.0722C76.9857 13.1402 76.9337 13.2072 76.8827 13.2752C76.9547 13.1802 77.0397 13.0952 77.1337 13.0232C77.0657 13.0752 76.9987 13.1272 76.9317 13.1792C77.0257 13.1062 77.1297 13.0462 77.2397 12.9992C77.1597 13.0322 77.0807 13.0662 77.0007 13.1002C77.0947 13.0602 77.1917 13.0302 77.2927 13.0112C77.3207 13.0062 77.3487 13.0012 77.3767 12.9982C77.2887 13.0092 77.1997 13.0212 77.1107 13.0332C77.2207 13.0192 77.3297 13.0162 77.4387 13.0242C77.4707 13.0262 77.5017 13.0292 77.5327 13.0342C77.4437 13.0222 77.3547 13.0102 77.2667 12.9982C77.3757 13.0132 77.4827 13.0382 77.5867 13.0752C77.6157 13.0862 77.6447 13.0972 77.6737 13.1092C77.5937 13.0752 77.5147 13.0422 77.4337 13.0082C77.5257 13.0472 77.6127 13.0942 77.6947 13.1502C77.7177 13.1652 77.7397 13.1822 77.7627 13.1992L77.5597 13.0422C77.6477 13.1112 77.7277 13.1902 77.7977 13.2792C77.7447 13.2112 77.6927 13.1442 77.6407 13.0762C77.7057 13.1612 77.7607 13.2542 77.8027 13.3522C77.7677 13.2732 77.7347 13.1932 77.7007 13.1132C77.7437 13.2152 77.7727 13.3222 77.7877 13.4322C77.7757 13.3432 77.7637 13.2552 77.7517 13.1662C77.7687 13.2942 77.7667 13.4242 77.7507 13.5522C77.7627 13.4642 77.7737 13.3752 77.7857 13.2862C77.7677 13.4172 77.7347 13.5462 77.6897 13.6702C77.6767 13.7082 77.6617 13.7462 77.6457 13.7842C77.6797 13.7052 77.7127 13.6252 77.7467 13.5452C77.6667 13.7352 77.5617 13.9142 77.4447 14.0842C77.4067 14.1382 77.3677 14.1922 77.3267 14.2442C77.3797 14.1762 77.4317 14.1092 77.4827 14.0422C77.2337 14.3632 76.9417 14.6512 76.6327 14.9142C76.5277 15.0032 76.4217 15.0892 76.3127 15.1722L76.5157 15.0162C76.2987 15.1832 76.0747 15.3422 75.8467 15.4932C75.7297 15.5562 75.6367 15.6422 75.5657 15.7512C75.4767 15.8472 75.4177 15.9612 75.3877 16.0912C75.3457 16.2242 75.3397 16.3572 75.3687 16.4892C75.3747 16.6232 75.4147 16.7472 75.4877 16.8612C75.5397 16.9292 75.5927 16.9962 75.6437 17.0642C75.7687 17.1882 75.9157 17.2742 76.0857 17.3212C76.1737 17.3332 76.2627 17.3452 76.3507 17.3572C76.5317 17.3562 76.6997 17.3112 76.8557 17.2202C77.2187 16.9802 77.5687 16.7192 77.9067 16.4442C78.1337 16.2592 78.3517 16.0632 78.5557 15.8522C78.7787 15.6182 78.9837 15.3622 79.1687 15.0972C79.2817 14.9352 79.3827 14.7642 79.4617 14.5822C79.5607 14.3542 79.6627 14.1252 79.7057 13.8782C79.7257 13.7552 79.7427 13.6312 79.7557 13.5072C79.7597 13.4712 79.7627 13.4362 79.7637 13.4002C79.7657 13.3322 79.7637 13.2642 79.7557 13.1972C79.7387 13.0482 79.7247 12.8922 79.6847 12.7462C79.6477 12.6042 79.5827 12.4672 79.5257 12.3352C79.4437 12.1482 79.3137 11.9872 79.1847 11.8312C79.0567 11.6772 78.8887 11.5532 78.7257 11.4382C78.5587 11.3192 78.3677 11.2452 78.1787 11.1692C78.0667 11.1252 77.9507 11.0932 77.8327 11.0742C77.6277 11.0422 77.4187 11.0082 77.2097 11.0232C77.0607 11.0332 76.9137 11.0542 76.7677 11.0812C76.7077 11.0932 76.6477 11.1082 76.5897 11.1262C76.4507 11.1712 76.3157 11.2312 76.1837 11.2922C76.1277 11.3182 76.0727 11.3492 76.0197 11.3822C75.9937 11.3992 75.9687 11.4172 75.9437 11.4352C75.8507 11.5042 75.7577 11.5742 75.6697 11.6492C75.6197 11.6912 75.5737 11.7362 75.5307 11.7852C75.4297 11.8992 75.3367 12.0202 75.2527 12.1462C75.2127 12.2052 75.1777 12.2682 75.1457 12.3322C75.0927 12.4432 75.0467 12.5572 75.0007 12.6712C74.9857 12.7062 74.9727 12.7422 74.9607 12.7792C74.9337 12.8572 74.9127 12.9362 74.8967 13.0172C74.8607 13.1902 74.8387 13.3672 74.8227 13.5432C74.8137 13.6402 74.8097 13.7372 74.8107 13.8352C74.8117 13.9422 74.8177 14.0492 74.8287 14.1552C74.8497 14.3592 74.8777 14.5632 74.9147 14.7642C74.9637 15.0312 75.0347 15.2942 75.1207 15.5502C75.1677 15.6932 75.2207 15.8352 75.2757 15.9752C75.3067 16.1052 75.3657 16.2182 75.4547 16.3152C75.5247 16.4242 75.6187 16.5092 75.7347 16.5722C75.8497 16.6462 75.9747 16.6852 76.1067 16.6912C76.2397 16.7212 76.3727 16.7152 76.5057 16.6732C76.5857 16.6402 76.6647 16.6062 76.7447 16.5722C76.8947 16.4842 77.0147 16.3642 77.1027 16.2142C77.1377 16.1342 77.1707 16.0542 77.2047 15.9752C77.2517 15.7972 77.2517 15.6202 77.2047 15.4432" fill="black"/>
<path fill-rule="evenodd" clip-rule="evenodd" d="M24.3445 54.2105C26.2715 52.6395 28.1985 51.0675 30.1235 49.4965C30.5315 49.1645 30.4945 48.4215 30.1235 48.0825C29.6915 47.6855 29.1445 47.7275 28.7095 48.0825C26.7825 49.6535 24.8575 51.2245 22.9305 52.7955C22.5235 53.1275 22.5605 53.8705 22.9305 54.2105C23.3635 54.6075 23.9105 54.5645 24.3445 54.2105Z" fill="black"/>
<path fill-rule="evenodd" clip-rule="evenodd" d="M29.7077 49.2891C32.3347 50.2491 34.8047 51.6771 36.9447 53.4771C37.3577 53.8251 37.9547 53.8831 38.3587 53.4771C38.7167 53.1211 38.7747 52.4131 38.3587 52.0631C35.9377 50.0281 33.2107 48.4471 30.2387 47.3601C29.7317 47.1751 29.1437 47.5681 29.0087 48.0591C28.8557 48.6161 29.1977 49.1021 29.7077 49.2891" fill="black"/>
<path fill-rule="evenodd" clip-rule="evenodd" d="M38.9071 53.6342C41.8331 52.0432 44.5761 50.1392 47.1091 47.9782C47.5201 47.6272 47.4701 46.9242 47.1091 46.5642C46.7021 46.1562 46.1071 46.2122 45.6951 46.5642C43.2911 48.6152 40.6731 50.3982 37.8971 51.9072C36.7661 52.5232 37.7751 54.2502 38.9071 53.6342" fill="black"/>
<path fill-rule="evenodd" clip-rule="evenodd" d="M47.0252 48.6323C49.9482 50.1193 52.8702 51.6053 55.7922 53.0923C56.2732 53.3373 56.8772 53.2183 57.1602 52.7333C57.4212 52.2873 57.2842 51.6113 56.8012 51.3653C53.8792 49.8783 50.9572 48.3923 48.0352 46.9053C47.5532 46.6603 46.9512 46.7793 46.6672 47.2643C46.4062 47.7103 46.5432 48.3863 47.0252 48.6323Z" fill="black"/>
<path fill-rule="evenodd" clip-rule="evenodd" d="M57.6092 53.4781C59.5342 51.6831 61.5902 50.1851 63.9072 48.8841C64.3782 48.6201 64.5352 47.9771 64.2652 47.5161C63.9882 47.0421 63.3702 46.8921 62.8972 47.1581C60.4772 48.5161 58.2242 50.1711 56.1952 52.0641C55.7992 52.4321 55.8222 53.1051 56.1952 53.4781C56.5882 53.8721 57.2132 53.8481 57.6092 53.4781Z" fill="black"/>
<path fill-rule="evenodd" clip-rule="evenodd" d="M64.5016 48.9758C67.0906 50.6778 69.6796 52.3788 72.2686 54.0798C72.7196 54.3768 73.3737 54.1708 73.6367 53.7218C73.9217 53.2338 73.7306 52.6508 73.2776 52.3528C70.6886 50.6518 68.0997 48.9508 65.5107 47.2488C65.0597 46.9528 64.4047 47.1588 64.1427 47.6078C63.8567 48.0958 64.0486 48.6788 64.5016 48.9758" fill="black"/>
<path fill-rule="evenodd" clip-rule="evenodd" d="M29.1129 25.2861C29.6059 22.3711 30.7559 19.6511 32.5029 17.2661C32.8219 16.8301 32.5759 16.1511 32.1439 15.8981C31.6359 15.6011 31.0949 15.8201 30.7749 16.2571C28.9429 18.7591 27.7019 21.6961 27.1839 24.7551C27.0939 25.2861 27.3249 25.8311 27.8839 25.9851C28.3629 26.1171 29.0229 25.8221 29.1129 25.2861" fill="black"/>
<path fill-rule="evenodd" clip-rule="evenodd" d="M31.0602 17.5982C33.3632 19.6322 35.6652 21.6672 37.9682 23.7022C38.3722 24.0592 38.9842 24.1002 39.3822 23.7022C39.7472 23.3372 39.7892 22.6462 39.3822 22.2872L32.4742 16.1832C32.0702 15.8262 31.4582 15.7852 31.0602 16.1832C30.6962 16.5482 30.6542 17.2392 31.0602 17.5982" fill="black"/>
<path fill-rule="evenodd" clip-rule="evenodd" d="M56.7964 23.7958C58.3174 21.4788 60.0634 19.3978 62.0974 17.4658C62.4884 17.0938 62.4724 16.4258 62.0974 16.0508C61.7064 15.6608 61.0754 15.6778 60.6834 16.0508C58.5594 18.0688 56.6764 20.3378 55.0684 22.7858C54.7734 23.2378 54.9794 23.8918 55.4274 24.1538C55.9154 24.4398 56.4984 24.2488 56.7964 23.7958Z" fill="black"/>
<path fill-rule="evenodd" clip-rule="evenodd" d="M61.3649 17.2308C62.9369 19.9038 64.5099 22.5768 66.0819 25.2498C66.7339 26.3588 68.4639 25.3538 67.8089 24.2408C66.2359 21.5668 64.6639 18.8948 63.0919 16.2208C62.4389 15.1128 60.7099 16.1178 61.3649 17.2308" fill="black"/>
</svg>
