<svg width="203" height="147" viewBox="0 0 203 147" fill="none" xmlns="http://www.w3.org/2000/svg">
<path fill-rule="evenodd" clip-rule="evenodd" d="M183.25 66.3667C171.942 74.3955 185.326 83.0869 185.326 83.0869C180.625 74.454 203.127 69.5331 197.512 83.3168C180.064 114.226 153.762 105.204 132.445 96.1809C118.592 90.3181 106.844 84.4543 101 89.5497C103.659 125.572 167.419 126.991 192.851 102.277C210.118 88.3094 202.724 64.002 190.149 64C187.971 63.999 185.639 64.7281 183.25 66.3667Z" fill="black"/>
<path fill-rule="evenodd" clip-rule="evenodd" d="M10.1494 102.277C35.5819 126.993 99.34 125.57 102 89.5498C96.1551 84.4534 84.4061 90.3172 70.5523 96.181C49.2364 105.203 22.9353 114.225 5.4877 83.3169C-0.126791 69.5331 22.3742 74.4541 17.6745 83.087C12.9747 91.7199 31.0525 74.3956 19.7463 66.3667C17.3589 64.7281 15.0265 63.999 12.8484 64C0.27496 64.002 -7.11685 88.3085 10.1494 102.277" fill="black"/>
<path fill-rule="evenodd" clip-rule="evenodd" d="M84.9871 0C84.1576 0.0345228 83.3066 3.57163 83.7495 11.5188C80.7647 11.8571 78.8366 12.7596 77.0793 13.6148C77.3135 0.188396 73.486 -1.72713 74.9916 14.5509C71.5077 15.8174 70.4255 14.4473 70.6761 13.0763C70.8736 11.9922 71.9077 10.9062 73.2466 11.1311C69.8445 9.4918 68.6058 11.3235 69.1071 13.1552C69.5929 14.9286 71.7103 16.7011 75.0786 15.3242C76.0656 29.879 79.4994 25.2411 77.1683 14.3871C79.6109 12.9914 82.0014 12.4608 83.7495 12.2329C83.4518 31.6831 86.9439 29.513 85.8965 12.0682C87.127 12.0682 88.3861 12.153 89.6463 12.3454C91.2205 11.1163 87.1004 11.5286 85.8965 11.3797C86.7741 4.21967 85.9128 0.0364955 85.0107 0H84.9871Z" fill="black"/>
<path fill-rule="evenodd" clip-rule="evenodd" d="M94.4576 16.7803C89.5851 27.4216 86.8954 17.8054 94.0948 16.5013C90.5123 14.7097 88.5683 17.1186 88.1078 19.5285C87.4688 22.8746 89.6869 26.2197 94.3427 18.3246C94.6965 36.4357 98.6953 21.4397 101 15.8943C99.6647 15.28 97.3932 24.5763 96.6828 25.0484C96.0821 25.2447 96.1094 22.6375 96.1315 20.0293C96.1537 17.5142 96.1708 15 95.6155 15C95.3646 15 94.9958 15.5161 94.4576 16.7803Z" fill="black"/>
<path fill-rule="evenodd" clip-rule="evenodd" d="M100.884 32C103.243 31.1565 100.96 24.183 101.862 21.9436C104.852 13.7529 107.342 16.8031 106.786 19.8533C106.493 21.4565 105.359 23.0587 103.015 23.0301C103.151 23.2313 103.429 23.4325 103.81 23.5448C107.864 24.4812 109.105 21.0603 111 16.6867C109.662 16.7592 107.677 23.5213 106.334 23.0301C106.253 23.0883 106.171 23.1169 106.087 23.1445C111.924 16.7224 104.055 12.4611 101.972 20.3445C102.49 15.7666 102.418 13.999 102.101 14C101.253 14.001 98.6497 26.6552 100.884 32Z" fill="black"/>
<path fill-rule="evenodd" clip-rule="evenodd" d="M109.482 31.6756C111.901 33.91 110.055 23.9412 110.733 21.9704C113.769 13.7425 116.29 16.8069 115.725 19.8703C115.428 21.482 114.279 23.0927 111.904 23.0619C112.04 23.2641 112.32 23.4662 112.71 23.579C116.818 24.5198 118.08 21.0809 120 16.6889C118.643 16.7607 116.631 23.5564 115.271 23.0619C115.185 23.1204 115.102 23.1491 115.019 23.1768C120.938 16.7279 112.953 12.4427 110.845 20.3638C111.3 15.781 111.227 13.999 110.934 14C110.193 14.001 108.05 25.3559 109.482 31.6756" fill="black"/>
<path fill-rule="evenodd" clip-rule="evenodd" d="M122.338 20.2258C121.399 20.8498 121.388 19.2882 121.39 17.7265C121.393 15.9049 121.414 14.0833 120.002 15.7309C119.926 23.7648 121.703 21.8582 123.207 19.9527C124.484 18.3323 125.565 16.713 125.147 21.1927C113.21 38.3367 128.39 35.8192 126.832 20.0326C128.874 17.2106 130.988 15.647 132.793 15.3061C134.32 12.5165 126.901 17.7235 126.832 18.8988C126.832 14.5728 126.618 13 126.179 13C125.48 13.001 124.211 17.0043 122.338 20.2258V20.2258ZM121.026 29.8325C121.611 27.9815 123.727 24.404 125.2 22.2689C126.298 24.844 123.252 32.2802 121.776 32.2792C121.325 32.2792 121.02 31.5813 121.026 29.8325" fill="black"/>
<path fill-rule="evenodd" clip-rule="evenodd" d="M39.7979 38.8503C40.9103 44.1536 40.1532 45.5307 40.7826 46.9328C40.4135 47.6798 40.4353 48.4479 40.847 49.2339L40.5986 49.4829C41.2636 51.136 40.6302 70.8373 40.847 72.3023C40.7609 72.4694 40.6797 72.7194 40.5986 73.0514C40.844 73.6214 40.7411 73.5594 40.847 73.6734C40.7638 74.4235 40.5808 74.3545 40.7826 74.5435C40.6193 79.4658 41.4032 81.5799 42.8164 83C45.4221 78.4197 44.0792 73.6714 45.1539 71.2463C50.1002 70.8793 49.8825 70.9423 53.1523 69.8162V68.5111L50.507 66.459L50.1378 66.647C47.6904 66.517 46.9729 66.738 46.387 66.895C45.5023 66.834 45.0777 66.955 45.0302 66.958C45.6735 57.4414 45.0352 46.8748 44.5364 39.8444C46.8057 38.9393 48.1259 39.6923 48.5989 39.0353C52.6189 39.2203 53.3285 38.8063 54.7526 38.2903C54.8545 36.5562 54.8773 35.6331 55 34.809L53.7669 34C48.017 34.504 35.7691 36.0591 39.7979 38.8503" fill="black"/>
<path fill-rule="evenodd" clip-rule="evenodd" d="M60.8075 39.1067C58.698 48.0491 57.7383 54.9067 56.5134 61.4881C56.7305 61.6057 56.6815 61.6536 56.7636 61.6725C55.926 63.7035 56.4824 64.6487 56.2652 64.6497C56.044 66.4174 56.041 67.1143 55.7658 67.4393C56.0991 68.1791 55.4936 68.22 55.7068 68.4304C55.0253 72.3936 55.5137 75.3139 55.0203 77.1105C54.9623 78.4157 55.0363 78.294 55.1454 78.4735C55.3946 79.0288 54.9152 79.1076 55.0834 79.2173C55.2685 81.5045 55.5087 81.9132 55.5797 82.3798L55.7068 82.2572C56.3252 82.9661 56.3823 82.8664 56.5134 83L57.5111 82.0698C58.3057 78.9162 58.701 78.2551 58.755 76.2411C63.1502 75.0257 66.3075 75.0846 68.461 74.3189L69.2706 79.5902C70.5905 80.8683 71.262 81.3738 71.8845 82.007H72.6931C74.036 79.6071 73.4996 78.4316 74 77.8553C72.663 70.5202 70.9428 63.0464 69.7049 58.2009C67.2451 49.421 67.11 42.9194 64.9785 37C61.572 37.7418 61.2758 38.2892 60.8075 39.1067V39.1067ZM62.862 49.6463C63.3593 51.1499 63.2773 52.0382 63.7326 52.6823C64.8824 60.838 66.5506 64.869 67.4653 69.6079C61.8322 71.6129 60.8405 71.7007 59.5025 72.3368C60.4622 62.6785 61.2568 56.7891 62.862 49.6463" fill="black"/>
<path fill-rule="evenodd" clip-rule="evenodd" d="M82.8363 34.0682C80.4396 34.7748 80.2932 34.6565 79.9213 34.6906C76.7466 35.8272 74.968 36.2392 74.0933 36.9348C72.7441 37.038 72.2463 38.1817 72.0295 38.1807C71.8509 41.0123 72.5391 41.317 72.5772 41.9194C75.6786 41.4623 76.1863 41.2719 76.8257 41.4222C77.6965 41.0353 78.3252 41.2739 78.5848 41.1105C76.8833 56.3087 77.2308 69.4833 80.1614 81C82.7142 80.6542 84.2567 78.9142 84.6559 78.6285C84.4216 76.3141 84.4421 76.0265 84.4724 75.4521C83.8213 72.2698 83.8525 72.4472 83.9862 71.4619C83.7207 69.5454 83.9413 69.8401 83.502 69.344L83.7432 69.0934C82.6391 64.9448 83.7783 64.7503 82.7142 62.2385C82.9554 57.719 81.9069 52.7134 82.4692 50.6436C82.0114 49.9811 82.3931 49.8658 82.2876 49.7114C82.7582 43.2284 82.7582 42.7052 82.7728 40.051C82.0016 39.2131 82.0738 39.3073 81.862 39.1149C85.844 37.6615 89.1377 36.0127 92 34.5663V34.3167C90.4351 34.0601 90.5425 34.0501 90.1803 34.005C90.2067 34.012 89.3925 34.008 88.2992 34.005C87.6353 34.003 86.868 34 86.1222 34C84.3621 34 82.7201 34.013 82.8363 34.0682" fill="black"/>
<path fill-rule="evenodd" clip-rule="evenodd" d="M96.2479 45.9524C96.3376 50.0223 96.4962 49.6469 96.5673 50.0817C96.558 52.6591 96.5034 52.2052 96.5034 52.8956C97.1813 55.1439 96.9299 58.297 96.9526 58.6552C96.8815 59.9294 97.0288 60.5121 97.3997 60.8462C97.0278 61.2075 97.1215 61.1199 97.0175 61.2206C97.2142 62.9878 97.6685 63.9842 97.4635 63.9731C95.3867 64.6152 94.3946 64.5588 93.3655 64.7883L92.9802 64.4733C93.0194 60.7969 92.9545 60.0984 92.7247 59.0296L92.9184 58.8414C92.0252 50.8345 92.425 50.2125 92.1489 48.6415C91.8687 40.9938 90.3656 39.0383 88.6236 44.3864C88.8626 46.1879 88.7307 47.8736 88.433 48.5177C88.672 52.4789 88.807 52.806 88.433 54.212C88.9986 57.1929 88.1652 61.4762 88.8162 61.4068C88.7678 69.0172 87.648 76.8873 88.1126 81.8721C94.3885 82.3702 93.1038 79.4627 93.1749 77.301C93.0369 77.1822 93.177 77.0645 93.1749 77.0534C93.6385 74.792 93.2388 72.8094 93.11 72.0455C93.1502 68.976 93.314 68.3218 93.3006 67.729L97.5933 67.0406C97.8869 70.706 97.4893 71.2645 97.8468 72.6101C98.2197 77.6965 97.615 81.2763 98.7451 82.9972C102.175 83.0677 103.346 81.7754 103.935 81.4937C103.6 80.5456 103.689 79.98 104 79.7445C103.461 78.9072 103.98 78.8216 103.804 78.6173C103.868 75.8145 104.03 76.7464 103.935 75.739C103.529 73.4132 103.643 73.0237 103.421 72.2961L103.615 72.1069C102.494 65.4133 102.689 62.0811 101.82 58.2175C102.149 56.6676 101.584 55.9852 101.565 55.8373C100.967 47.1772 101.62 38.7455 98.1074 36C94.5626 39.3725 96.8166 43.2532 96.2479 45.9524" fill="black"/>
<path fill-rule="evenodd" clip-rule="evenodd" d="M108.166 37.2356C107.025 40.4782 107.196 42.1144 107.508 42.9097L107.031 43.7715C107.838 45.8906 106.692 47.1202 107.268 48.334C106.739 49.2998 107.184 49.3444 107.031 49.5676C107.065 50.6296 106.852 53.1692 107.329 53.7612C106.955 54.7806 107.38 55.0563 107.268 55.1158C107.217 56.9483 107.058 56.2363 107.268 56.9652C107.06 62.6056 107.45 62.3854 107.447 64.3053C107.635 73.4928 105.574 80.9449 109.783 82C118.142 81.9613 117.689 81.1105 119 77.4385C118.058 76.2436 116.996 76.781 116.846 76.4518C116.207 76.4101 115.774 76.4468 115.463 76.4815C115.154 76.5163 114.963 76.551 114.81 76.5113C113.645 76.7969 112.967 76.7751 112.58 76.7513C112.373 76.7394 112.249 76.7265 112.178 76.7612C111.469 75.2688 112.528 74.9316 111.879 74.5419C111.763 71.1505 111.868 71.4996 111.879 70.4712C111.682 70.3403 111.737 70.3334 111.638 70.2868L111.936 69.8535C114.949 70.6785 116.374 70.0488 117.205 69.3616C117.83 67.057 117.47 67.176 117.084 66.1556C114.531 65.0708 113.229 65.6033 112.894 65.2919C112.285 65.6033 112.019 65.5448 111.85 65.4863C111.74 65.4476 111.672 65.4079 111.579 65.4754C111.784 62.9308 111.222 62.8019 111.579 62.2704C111.045 58.6192 111.564 57.4064 111.221 56.1362C111.58 51.7749 110.953 49.4188 111.339 48.8893C111.377 44.8791 111.406 43.353 111.221 42.1075C111.582 39.8366 111.246 39.8723 111.879 39.085C114.828 39.3359 116.119 38.728 117.024 38.7151C117.785 37.6441 117.445 37.2762 117.623 37.0501C117.347 36.2628 117.348 36.3828 117.205 36.2489C115.324 36.1448 113.69 36 112.311 36C110.453 36 109.063 36.2618 108.166 37.2356" fill="black"/>
<path fill-rule="evenodd" clip-rule="evenodd" d="M126.478 35.6598C124.826 35.7573 124.509 36.8092 123.696 36.8998C121.307 38.6513 121.422 39.0474 120.543 40.4894L120.666 40.6138L119.923 41.1681V42.0329L119.678 42.2826C117.432 52.0612 121.444 59.0363 121.902 66.0443C121.17 68.8785 121.536 69.3204 121.719 70.6221L122.211 71.2431L122.953 71.4272C123.663 72.4771 123.298 72.5408 123.448 72.7896C122.912 77.6619 123.134 81.1032 124.251 83C127.424 82.173 127.831 80.9669 128.332 79.906L128.086 79.6592C128.885 78.5546 128.156 75.2108 128.394 75.0177C131.929 78.7088 134.833 81.5709 136.925 82.0725L137.792 81.5779C138.053 78.4093 138.023 77.7356 137.945 77.1832C134.276 72.2034 131.09 69.4717 127.963 67.1589L128.454 66.107L128.332 66.0443L129.199 65.4253C129.585 63.5624 130.325 63.3653 130.37 63.1354C130.694 61.5909 131.502 60.9928 131.422 60.1668C133.45 55.5652 133.772 54.7253 133.834 53.2972C134.523 52.1995 134.161 51.5785 134.393 51.5029C137.135 43.0589 135.123 36.3266 129.321 35.1035C129.052 35.0308 128.788 35 128.534 35C127.568 35 126.764 35.4419 126.478 35.6598V35.6598ZM125.426 43.8301L124.376 42.5921L124.746 41.5393C137.598 32.8285 128.217 57.653 126.478 59.6085C125.544 52.9548 125.825 47.774 125.426 43.8301" fill="black"/>
<path fill-rule="evenodd" clip-rule="evenodd" d="M144.585 43C145.511 40.2097 144.59 39.0056 144.65 37.841C142.203 33.6449 139.158 34.2663 138 34C138.891 37.5381 142.003 42.0217 144.585 43Z" fill="black"/>
<path fill-rule="evenodd" clip-rule="evenodd" d="M153.479 76.2313C149.043 75.076 146.198 73.0024 145 75.4883C145.281 76.2721 145.176 76.8349 145.252 76.8508C148.184 79.8696 150.556 79.9712 152.293 81L152.73 80.6912C162.916 82.6095 164.866 70.9258 163.701 65.7656C161.266 59.1574 159.551 56.6147 157.032 52.326C149.414 41.5696 157.679 38.9312 162.453 43.6581C164.616 41.3883 161.007 39.1772 160.334 38.5169C158.434 38.1653 156.818 38 155.453 38C135.344 38.001 169.927 73.9286 153.479 76.2313" fill="black"/>
<path fill-rule="evenodd" clip-rule="evenodd" d="M80.1359 126.469C86.7028 111.788 90.5636 118.972 91.4569 126.155C92.2396 132.444 90.7472 138.732 86.8072 130.355C87.2037 113.014 84.5757 121.013 84.2087 129.011C83.8457 136.921 85.692 144.83 94.8594 128.244C95.8419 120.58 91.5005 117 87.2604 117C83.1867 117.001 79.2082 120.305 80.1359 126.469" fill="black"/>
<path fill-rule="evenodd" clip-rule="evenodd" d="M96.9848 128.208C95.1559 133.959 95.5029 139.71 101.236 130.82C101.161 142.661 108.642 138.019 111 130.073L110.235 129.437C101.589 145.42 109.153 128.675 103.014 124.942C97.7811 138.056 96.5537 133.146 98.5936 128.235C99.7093 125.549 101.803 122.862 104.756 123.126C103.931 121.623 103.06 121 102.201 121C100.133 121 98.132 124.604 96.9848 128.208" fill="black"/>
<path fill-rule="evenodd" clip-rule="evenodd" d="M108.073 127.688C107.735 131.956 108.481 136.224 112.262 133.537C112.862 132.55 113.431 131.221 114.398 127.998C114.398 128.423 114.43 133.085 114.312 135.713C105.143 146.814 119.227 154.531 117.533 135.063C117.972 135.295 125.442 130.919 122.176 130.032C120.751 133.367 118.757 133.367 117.533 133.876C118.469 117.065 115.882 122.07 113.567 127.074C112.019 130.428 110.592 133.78 110.433 130.571C110.864 123.479 110.497 121 109.929 121C109.269 121.001 108.338 124.344 108.073 127.688V127.688ZM114.228 137.212C114.143 138.993 114.03 140.857 113.915 142.384C113.43 143.607 113.076 144.091 112.837 144.091C111.991 144.09 112.624 137.982 114.228 137.212" fill="black"/>
</svg>
