<svg width="136" height="157" viewBox="0 0 136 157" fill="none" xmlns="http://www.w3.org/2000/svg">
<path fill-rule="evenodd" clip-rule="evenodd" d="M20.4223 56.1172C20.3036 56.098 20.2186 56.0798 20.1971 56.1111C19.4346 56.1415 19.0671 56.197 19.0671 56.3355C12.4814 55.7545 7.46685 58.7595 9.4311 64.1655C10.2152 71.7125 9.7955 83.1882 10.4537 88.5587C10.6778 92.9491 10.8784 95.158 11.0166 95.158C10.2745 101.702 18.5062 101.114 20.0856 100.866C20.9505 100.938 21.2924 98.7542 21.2197 97.5103C18.891 89.9289 20.9147 78.2057 19.5164 71.1032C31.9212 66.9189 16.7548 67.5909 18.8388 64.8404C17.5522 61.5211 17.2922 61.0058 17.1397 60.25C19.0139 60.2257 19.2472 60.255 19.973 60.3641C20.0323 60.2015 20.1572 60.2611 20.2401 60.3187C20.2985 60.3611 20.3353 60.4015 20.3128 60.3641C27.1012 59.3688 25.7163 55.3432 21.2197 56.1111C21.2197 56.0263 21.1941 56 21.1061 56C20.8788 56.1758 20.6086 56.1465 20.4223 56.1172" fill="black"/>
<path fill-rule="evenodd" clip-rule="evenodd" d="M26.9419 84.4661C27.4679 91.9341 23.5272 101.592 28.7126 102C28.7126 101.917 28.7376 101.891 28.8214 101.891V102C28.9312 101.917 29.6239 101.833 30.8956 101.694C33.2023 99.7254 31.765 93.9859 32.8849 89.0232C34.459 89.4418 35.7297 89.6626 36.643 89.7429C37.3247 98.2168 38.9257 99.4173 42.586 97.6627C49.634 95.9844 39.0505 64.1587 38.6023 60.9285C36.6659 57.4284 35.0769 55.999 33.7653 56C28.0808 56.002 27.6476 82.9042 26.9419 84.4661V84.4661ZM34.5399 72.6556H34.6487C35.3474 79.9993 35.7965 81.9275 36.0041 84.8826C33.903 84.9679 33.7443 85.0563 33.1903 85.1055C34.2065 80.2442 33.9489 75.2022 34.5399 72.6556Z" fill="black"/>
<path fill-rule="evenodd" clip-rule="evenodd" d="M50.0386 57.2087C43.7019 57.9901 45.5783 60.7407 50.4716 61.3717C50.0249 67.3043 49.3459 76.2733 49.8202 81.6341C49.7415 81.6341 49.71 81.6598 49.71 81.7429C49.9983 82.1375 49.7326 83.273 49.8202 83.275L49.9314 84.0405C49.8477 84.0405 49.8202 84.0702 49.8202 84.1523C49.4423 117.769 58.5106 96.5564 57.9911 80.099C58.9593 76.9369 58.7881 74.5028 59.0823 73.6364C59.0036 68.5149 58.8392 65.5061 58.6434 64.5487C58.668 62.5329 58.8579 63.2441 58.8648 62.4647C63.8299 62.6556 66.035 61.2718 65.9996 59.8861C65.9642 58.4826 63.6233 57.0781 59.5192 57.3175C58.7044 57.0821 56.4 57 54.2628 57C51.8816 57 49.709 57.1019 50.0386 57.2087Z" fill="black"/>
<path fill-rule="evenodd" clip-rule="evenodd" d="M77.8942 84.8074H77.7811C75.2782 86.6467 74.9854 83.8574 75.1186 81.0681C75.2287 78.7797 75.6255 76.4913 75.3226 76.7572C75.2408 76.2344 75.1812 75.9864 75.1005 75.9864C73.9797 67.1654 75.3307 57.7598 68.2843 58.3424C62.2102 59.623 65.9186 93.3725 68.6144 97.4892C74.0645 100.106 75.4559 96.9525 76.1031 93.7977C76.6604 91.0871 76.6674 88.3754 78.2314 89.3285C78.7897 95.4199 79.234 98.4791 79.5722 98.4791C80.0023 99.9499 85.0658 100.5 85.2748 99.4739C89.6113 92.8029 84.2369 82.3686 85.608 76.7572C84.9981 68.9419 84.9275 61.1277 81.6966 57.0179C81.5421 57.006 81.3947 57 81.2493 57C72.127 57.003 78.9937 80.1948 77.8942 84.8074" fill="black"/>
<path fill-rule="evenodd" clip-rule="evenodd" d="M98.3685 56.1149C98.2523 56.0958 98.1678 56.0776 98.1464 56.1099C97.3863 56.1401 97.0216 56.1946 97.0216 56.3317C90.4685 55.752 85.4691 58.7545 87.4314 64.1505C88.2046 71.68 87.7951 83.1264 88.4471 88.4851C88.6723 92.8669 88.8699 95.0718 89.0095 95.0718C87.9031 103.912 104.063 101.31 105 97.2526C93.0563 93.9174 99.9843 81.242 97.4699 71.068C109.294 68.007 93.474 66.4876 95.1041 60.2436C96.9696 60.2194 97.1988 60.2477 97.9222 60.3535C97.9793 60.1973 98.1056 60.2537 98.1891 60.3102C98.2482 60.3505 98.2859 60.3898 98.2635 60.3535C105.016 59.3594 103.638 55.3467 99.1642 56.1099C99.1642 56.0252 99.1336 56 99.0511 56C98.8198 56.1744 98.5539 56.1442 98.3685 56.1149" fill="black"/>
<path fill-rule="evenodd" clip-rule="evenodd" d="M108.3 98.1875C114.042 103.58 117.984 97.8242 116.111 90.5318H116.218C119.545 104.848 128.893 103.112 125.116 93.5379C122.982 88.8551 121.202 82.2883 117.628 80.1688C118.093 79.5801 118.415 79.2752 118.607 79.2752C120.843 75.6813 121.254 74.3246 120.995 72.4799C122.753 63.9577 118.446 59.0333 116.869 57.6576C114.896 56.5153 113.258 55.999 111.905 56C101.315 56.004 108.175 87.6162 108.3 98.1875V98.1875ZM113.18 60.552C116.845 62.5145 117.337 72.7989 114.701 75.7095H114.594C113.866 71.6114 113.485 63.072 113.18 60.552" fill="black"/>
<path fill-rule="evenodd" clip-rule="evenodd" d="M54.4181 47C48.7204 42.3141 52.7258 0.332655 47.8923 5.42694C35.6056 53.7688 38.4365 63.8525 33.0421 11.1563C21.5886 37.6222 17.5171 6.63911 24.2792 17.6005C24.2642 17.6864 24.07 18.2246 24.6618 19.0054C39.9385 -2.72671 36.2144 4.2008 39.6561 24.8815C44.3855 -10.7416 58.0521 -6.37918 56.9105 26.9264C70.9976 -17.6511 71.5524 29.1011 74.212 41.9307C76.1917 40.9991 90.2938 9.37796 82.8467 31.5334C63.3162 72.2737 69.3554 17.6934 64.7091 13.9421C56.7763 23.1052 61.1423 43.694 54.4181 47" fill="black"/>
<path fill-rule="evenodd" clip-rule="evenodd" d="M38.9519 30.538C35.4226 -15.4663 33.0933 17.3525 24.0625 19.8431C23.4864 19.6522 23.0317 18.5483 23.3252 17.7511C21.1133 14.8966 20.578 16.9836 21.3044 19.0706C22.3302 22.0171 25.8715 24.9645 30.757 13.9867C35.6156 -0.357025 34.6176 43.8432 35.6196 44.9085C41.8384 51.8528 40.0713 11.8859 47.6931 4.76743C52.3288 4.77732 49.8313 36.3311 53.08 45.8273C57.6949 47.5968 56.479 35.4083 58.9118 25.7123C60.3008 18.8016 62.6282 12.7622 65.3883 13.5198C67.5913 34.0948 66.4271 67.4754 84 25.7647C66.1386 55.4195 74.625 41.5475 69.6151 13.0856C62.6461 0.987142 56.1805 25.7687 55.9755 32.7526C56.4909 11.969 53.2482 0.998022 49.307 1C45.6334 1.00198 41.3538 10.5368 38.9519 30.538" fill="black"/>
<path fill-rule="evenodd" clip-rule="evenodd" d="M95.1781 38.993C91.1567 46.0929 85.7691 55.0328 89.7013 56.9165C95.19 54.3249 95.4308 43.9722 95.1781 38.993ZM90.4672 60C79.2848 58.3014 90.599 42.3045 94.7888 34.9736C94.657 33.5299 94.3707 31.1922 94.1884 29.173C79.1272 58.6808 83.9898 -0.459224 88.4877 33.4712C92.9292 28.3108 97.2755 4.38158 99.0677 28.7738C99.685 24.7633 116.834 15.9559 110.662 23.0488C106.995 23.693 102.439 27.8996 99.2827 32.7802C99.9267 41.5608 100.411 56.5133 90.4672 60" fill="black"/>
<path fill-rule="evenodd" clip-rule="evenodd" d="M92.7793 25.6749C91.3498 29.6556 89.6985 33.6362 87.8345 33.3329C86.3537 31.0412 88.2759 19.0963 84 24.3714C84.8512 41.7747 88.1941 37.2254 91 32.6771C93.399 28.7886 95.4049 24.902 95.132 34.7155C72.6098 66.4134 102.593 68.6149 98.469 32.1985C101.485 27.3209 106.691 22.5113 110.169 22.0497C114.69 16.6925 99.3458 25.5578 98.3429 29.9319C97.8316 21.0646 97.1449 18 96.2877 18C95.3291 18 94.1567 21.8375 92.7793 25.6749V25.6749ZM87.4168 54.911C87.2936 50.3497 91.2581 43.9132 95.3606 36.866C96.8296 39.5771 94.0956 57.2647 90 57.2647C89.1852 57.2647 88.3173 56.5649 87.4168 54.911Z" fill="black"/>
<path fill-rule="evenodd" clip-rule="evenodd" d="M13.2409 128.97C16.6454 127.418 15.1014 127.663 13.0896 127.908C11.7464 128.072 10.1965 128.235 9.76917 127.865C4.43399 125.155 11.6178 112.92 22.3287 124.762C29.2197 133.342 34.5124 130.369 34.9684 127.397C35.2611 125.48 33.5431 123.563 28.9438 124.745C31.2662 124.539 33.0386 125.706 33.8388 126.872C35.6113 129.456 32.6094 132.04 20.2308 119.702C18.7779 118.497 17.1577 118 15.5603 118C8.26377 118.002 1.44494 128.363 13.2409 128.97V128.97ZM15.9045 129.606C6.80287 137.571 0.707075 134.805 0.532005 132.038C0.424194 130.348 2.528 128.657 7.5081 129.415C-1.44619 124.31 -2.45704 136.391 4.82963 136.783C7.28951 138.61 27.4819 128.425 20.9014 124.497C14.321 120.569 19.5612 126.123 15.9045 129.606" fill="black"/>
<path fill-rule="evenodd" clip-rule="evenodd" d="M15.7975 143.858L16.0992 144.011C17.9891 141.83 24.9986 132.104 28.4945 132.212C25.4265 138.685 12.7591 155.44 30.1951 141.792C19.9184 149.567 24.6437 144.198 28.246 138.83C31.3229 134.244 33.5815 129.659 24.9739 133.262C27.4021 130.464 32.5355 124.939 28.4107 124C29.7514 124.31 10.9619 141.769 15.7975 143.858" fill="black"/>
<path fill-rule="evenodd" clip-rule="evenodd" d="M30.7632 150.576C33.423 151.976 38.8367 149.792 41.1997 145.752C38.0646 147.731 30.3277 155.056 32.258 144.655C45.4843 139.047 44.3775 136 40.1142 136C34.8994 136.001 24.9605 140.563 30.7632 150.576V150.576ZM37.3351 141.444C35.8636 142.632 33.9216 143.521 32.615 143.872C37.1702 133.805 45.0497 133.988 37.3351 141.444" fill="black"/>
<path fill-rule="evenodd" clip-rule="evenodd" d="M50.008 144.332C41.5763 127.931 73.6386 133.374 54.7039 142.891C55.3321 141.337 55.9958 139.673 56.2455 139.081C57.8592 134.971 56.5855 134.01 54.7181 134.066C54.6024 135.107 51.0645 143.628 49.5655 147.239C34.4823 160.328 73.1058 155.361 57.6887 143.451C69.3263 137.557 62.5489 132.999 55.8588 133C50.2901 133.001 44.7824 136.159 50.008 144.332ZM54.3487 143.688C69.2685 150.196 38.8625 161.489 49.1941 148.182C49.188 148.198 49.186 148.213 49.1829 148.23C47.3916 153.069 48.4745 153.515 50.0628 153.875L54.3487 143.688Z" fill="black"/>
<path fill-rule="evenodd" clip-rule="evenodd" d="M64.8191 142.578C58.5254 151.912 63.7368 161.603 70.973 154.615C75.5693 147.098 74.2105 149.821 71.6379 152.542C69.1047 155.221 65.397 157.9 65.0273 150.824C73.5735 145.964 74.5274 138.999 70.8756 139C69.4765 139 67.402 140.022 64.8191 142.578V142.578ZM69.0208 146.092C67.952 147.703 66.3084 149.198 65.1184 149.976C66.2266 139.095 74.2022 136.527 69.0208 146.092Z" fill="black"/>
<path fill-rule="evenodd" clip-rule="evenodd" d="M76.3328 142.545C73.3926 153.413 76.1227 147.522 76.8909 143.267C77.8307 144.427 78.8478 146.017 79.4891 147.863C66.7726 156.307 85.9753 161.147 82.3719 147.203C84.3426 146.461 85.4192 146.416 85.9773 146.09C86.2003 145.553 84.7371 145.908 83.5634 146.263C82.816 146.488 82.1855 146.715 82.1796 146.71C81.1823 144.398 79.4782 142.743 77.5154 140.947C77.8158 139.02 78.3234 137.284 78.3432 137C74.7675 137.125 74.4265 140.774 76.3328 142.545V142.545ZM76.9524 150.73C77.5531 150.018 78.5226 149.23 79.7013 148.52C81.1714 152.789 79.0312 155.108 77.4887 155.107C76.2902 155.107 75.4525 153.705 76.9524 150.73Z" fill="black"/>
<path fill-rule="evenodd" clip-rule="evenodd" d="M85.7648 133.195C85.6424 132.938 86.2203 136.896 85.3715 138.084C84.2295 139.882 85.6164 166.603 90.985 146.615C91.1093 143.174 90.4311 146.681 90.1287 148.221C87.6212 159.149 87.8883 141.908 88.5498 138.418C91.113 138.246 87.8883 132.999 86.2352 133C86.0571 133 85.8966 133.061 85.7648 133.195" fill="black"/>
<path fill-rule="evenodd" clip-rule="evenodd" d="M100.094 139.972C90.9819 135.335 98.5607 123.789 104.373 127.435C116.567 136.625 100.795 160.726 101.342 143.742C102.152 148.758 103.496 149.002 105.023 148.425C104.095 146.964 104.207 124.435 98.9329 128.561C99.3744 129.542 100.64 138.84 101.172 142.78C93.7118 153.906 117.06 153.385 110.977 132.625C109.487 127.047 106.708 125 103.88 125C97.0331 125 89.901 137.004 100.094 139.972" fill="black"/>
<path fill-rule="evenodd" clip-rule="evenodd" d="M117.404 125.198C112.876 124.957 112.384 129.525 113.517 134.095C115.228 140.996 120.647 147.896 121.47 138.222C125.023 142.246 125.971 138.71 125.999 135.174C126.02 132.697 125.589 130.22 125.29 130.342C126.278 148 121.367 128.281 119.92 123C119.903 123 119.887 123 119.87 123C117.702 123 117.376 124.176 117.404 125.198V125.198ZM116.228 133.474C115.015 129.644 114.719 125.814 117.498 125.9C117.865 128.021 119.287 132.09 119.831 134.098C121.105 139.173 121.06 141.05 120.424 141.05C119.522 141.049 117.427 137.262 116.228 133.474Z" fill="black"/>
<path fill-rule="evenodd" clip-rule="evenodd" d="M123.709 111.764C123.627 111.864 123.577 111.91 123.556 111.927C123.738 112.226 125.167 115.181 126.477 118.435C116.001 119.428 132.598 147.12 131.975 130.935C135.79 134.676 136.278 131.115 135.89 127.553C135.532 124.268 134.43 120.983 134.505 123.428C136.582 136.161 134.069 128.375 130.789 120.59C128.768 115.795 126.458 110.999 124.749 111C124.369 111 124.019 111.237 123.709 111.764V111.764ZM126.74 119.134L130.041 127.329C131.809 132.161 131.959 133.953 131.336 133.952C129.553 133.948 121.455 119.307 126.74 119.134" fill="black"/>
<path fill-rule="evenodd" clip-rule="evenodd" d="M60.1134 106.283C59.6216 108.884 60.902 121.98 60.6873 123C60.9655 122.53 61.0718 122.771 61.235 122.782L61.5505 122.326L61.7586 122.353C62.0565 121.427 62.5527 121.666 62.4618 121.56C63.2208 120.081 63.2975 120.171 63.3512 120.026C63.1124 120.334 63.8386 116.679 63.9777 113.023C64.1102 109.511 63.7028 106 61.3796 106C61.0083 106 60.5877 106.09 60.1134 106.283" fill="black"/>
<path fill-rule="evenodd" clip-rule="evenodd" d="M70.9571 115.908C79.6221 118.146 65.2632 122.748 65.3585 114.17L64.9869 114.594C64.9869 114.594 64.732 115.991 64.7077 117.136C64.6863 115.781 64.7777 114.85 64.7777 114.85C61.7425 131.918 89.368 118.022 67.5192 110.669C67.5192 110.508 71.1858 109.339 73.9223 109.339C74.5868 106.944 73.1723 106 71.2198 106C66.2885 106 57.928 112.024 70.9571 115.908" fill="black"/>
</svg>
