<svg width="143" height="308" viewBox="0 0 143 308" fill="none" xmlns="http://www.w3.org/2000/svg">
<path fill-rule="evenodd" clip-rule="evenodd" d="M24.4891 146.056C24.2191 146.101 24.0101 146.211 23.8471 146.357C23.9361 141.244 23.9381 136.129 23.8481 131.016C23.6861 121.765 23.6211 112.277 22.1761 103.104C23.3081 101.875 27.2151 104.718 27.9911 105.445C29.4451 106.809 30.5691 108.52 31.5141 110.263C33.6901 114.275 35.2751 118.88 36.2751 123.331C38.4801 133.15 35.6391 144.204 24.4891 146.056V146.056ZM31.1031 156.987C29.9171 160.117 25.8911 161.254 23.0241 159.937C23.9701 156.892 23.9281 153.287 23.8671 149.905C24.0121 149.977 24.1671 150.031 24.3401 150.047C26.4011 150.239 28.0861 150.217 29.6771 151.783C31.0521 153.138 31.8111 155.116 31.1031 156.987V156.987ZM37.9451 139.952C41.2411 133.529 40.4511 126.105 38.4221 119.41C36.7021 113.738 34.4011 106.905 29.6961 102.956C27.9331 101.476 23.6801 99.3609 21.3261 100.678C20.6701 100.42 19.7141 100.831 19.7031 101.691C19.5791 111.743 20.6331 121.821 20.7761 131.88C20.8461 136.774 20.8331 141.669 20.7391 146.563C20.6511 151.103 19.6421 156.255 20.8281 160.647C20.8831 160.852 20.9881 160.999 21.1121 161.115C21.1691 161.247 21.2611 161.374 21.4051 161.486C25.6351 164.793 32.5231 162.665 34.0391 157.421C34.9991 154.101 32.8191 149.849 29.6961 147.955C33.2581 146.453 36.1781 143.395 37.9451 139.952Z" fill="black"/>
<path fill-rule="evenodd" clip-rule="evenodd" d="M51.0721 114.866C51.2571 111.038 54.2581 98.8558 60.5521 104.584C63.2591 107.047 63.7131 113.079 64.3111 116.413C65.8711 125.106 66.1201 133.93 65.3421 142.709C60.9111 142.153 56.4791 141.597 52.0481 141.042C51.6631 132.392 50.6511 123.512 51.0721 114.866V114.866ZM68.1631 120.979C67.4981 115.67 66.9361 109.209 64.2461 104.439C62.2881 100.967 58.6161 99.0618 54.7811 100.847C50.2961 102.935 48.5691 108.178 48.0861 112.727C47.3291 119.846 48.3061 127.309 48.6181 134.443C48.8911 140.686 48.2961 147.832 50.4341 153.807C51.7411 157.46 54.4221 160.492 58.4511 160.928C61.8761 161.299 65.1391 159.654 66.0961 156.256C66.4241 155.092 64.6301 154.258 64.0891 155.41C61.9481 159.974 55.9711 157.885 54.0501 154.396C52.3901 151.381 52.2241 147.696 52.1421 144.199C57.0151 144.81 61.8871 145.421 66.7601 146.033C67.6641 146.146 68.2541 145.215 68.3331 144.46C69.1481 136.635 69.1421 128.79 68.1631 120.979V120.979Z" fill="black"/>
<path fill-rule="evenodd" clip-rule="evenodd" d="M76.892 113.378C77.371 122.317 80.421 131.248 85.179 138.799C87.621 142.674 91.49 146.089 93.046 150.432C94.312 153.969 93.06 157.895 89.359 159.301C85.33 160.831 81.563 158.037 80.272 154.273C79.834 152.996 78.085 153.527 78.285 154.821C79.176 160.57 85.191 164.332 90.716 162.029C97.097 159.37 97.835 152.169 94.667 146.769C92.569 143.192 89.623 140.173 87.47 136.614C84.887 132.347 82.923 127.723 81.633 122.905C80.591 119.01 78.333 111.621 80.853 107.892C82.711 105.142 86.956 105.013 89.824 105.775C93.851 106.844 96.016 110.125 95.297 114.241C95.05 115.651 97.069 116.799 97.799 115.296C103.955 102.614 75.913 95.1508 76.892 113.378" fill="black"/>
<path fill-rule="evenodd" clip-rule="evenodd" d="M105.751 103.849C104.395 103.688 104.134 105.896 105.431 106.212C108.064 106.854 110.745 107.301 113.444 107.536C113.827 116.383 114.926 125.227 115.422 134.076C115.928 143.114 115.862 152.275 116.879 161.271C117.028 162.579 118.825 162.611 118.94 161.271C119.731 152.005 119.022 142.494 118.498 133.226C118.019 124.756 117.695 116.115 116.473 107.704C118.447 107.753 120.426 107.688 122.396 107.481C124.287 107.283 124.379 104.395 122.396 104.459C116.801 104.641 111.317 104.515 105.751 103.849V103.849Z" fill="black"/>
<path fill-rule="evenodd" clip-rule="evenodd" d="M45.9931 216.475C44.8031 204.554 44.5771 192.645 44.2671 180.681C50.7411 184.082 53.6261 191.326 54.0201 198.445C54.3841 205.031 52.5551 213.67 45.9931 216.475ZM44.7021 177.58C44.4811 177.484 44.2631 177.442 44.0561 177.443C43.6121 176.624 42.1881 176.812 42.0861 177.951C40.8791 191.415 41.7741 205.075 43.2131 218.488C43.3171 219.457 44.0791 220.17 45.0971 219.923C53.9461 217.775 57.1951 207.841 57.0491 199.641C56.8911 190.805 53.2751 181.294 44.7021 177.58Z" fill="black"/>
<path fill-rule="evenodd" clip-rule="evenodd" d="M68.4871 203.213C68.6901 201.297 68.8871 199.4 69.1401 197.57C69.7151 193.391 70.2781 189.21 70.8431 185.03C72.7631 190.915 74.2531 196.914 75.5431 202.965C73.1911 203.041 70.8381 203.114 68.4871 203.213V203.213ZM81.5231 217.958C79.1111 204.497 76.5961 191.039 71.6571 178.235C71.0161 176.575 68.8991 176.936 68.6711 178.639C67.8071 185.097 66.9511 191.556 66.1081 198.017C65.2911 204.273 63.6471 211.096 64.1851 217.395C64.2641 218.311 65.4521 218.481 65.7721 217.61C67.1751 213.79 67.7861 209.534 68.2601 205.305C70.8691 205.417 73.4811 205.494 76.0911 205.579C76.8401 209.262 77.5291 212.96 78.1951 216.663C78.0631 216.788 77.9471 216.931 77.8851 217.104C77.3081 218.716 78.3801 219.993 80.0481 219.894C81.1051 219.831 81.7051 218.972 81.5231 217.958V217.958Z" fill="black"/>
<path fill-rule="evenodd" clip-rule="evenodd" d="M93.32 216.474C93.148 205.442 92.216 194.376 91.492 183.365C96.889 186.291 100.107 191.921 101.565 197.857C103.308 204.955 103.279 216.829 93.32 216.474V216.474ZM105.292 200.767C104.069 191.567 99.236 182.687 90.181 179.367C89.258 179.028 88.137 179.914 88.199 180.876C89.028 193.62 89.473 206.496 91.04 219.175C91.207 220.53 93.124 220.694 93.338 219.42C103.629 222.109 106.244 207.924 105.292 200.767Z" fill="black"/>
<path fill-rule="evenodd" clip-rule="evenodd" d="M21.5231 198.932C20.6111 199.457 19.6991 199.983 18.7871 200.508C17.5831 200.902 16.0261 200.804 14.7751 200.941C10.9781 201.358 7.17806 201.773 3.39106 202.278C5.74106 199.785 8.29906 197.569 11.1561 195.62C11.8681 195.134 12.0321 194.203 11.4231 193.552C10.2801 192.331 9.11906 190.914 7.88206 189.589C12.3321 190.675 17.0711 191.271 21.4501 192.287C21.5591 193.972 21.7731 195.814 21.4971 197.37C21.5061 197.891 21.5141 198.411 21.5231 198.932ZM24.2911 191.122C24.2851 190.494 23.8461 189.887 23.2291 189.727C16.9541 188.1 9.64506 185.486 3.13106 185.643C1.81406 185.675 1.61606 187.224 2.53206 187.864C3.94306 190.29 6.36306 192.39 8.48306 194.379C5.50106 196.769 2.93006 199.517 0.726061 202.68C0.271061 203.333 1.05006 204.098 1.69206 203.931C1.84906 204.363 2.20906 204.71 2.74006 204.676C6.22106 204.453 9.69706 204.119 13.1711 203.805C15.8381 203.563 19.3501 203.836 21.9101 202.887C26.0131 201.366 24.3201 194.322 24.2911 191.122V191.122Z" fill="black"/>
<path fill-rule="evenodd" clip-rule="evenodd" d="M122.045 197.37C121.77 195.814 121.983 193.972 122.092 192.287C126.471 191.271 131.21 190.675 135.66 189.589C134.424 190.914 133.262 192.331 132.12 193.552C131.51 194.203 131.674 195.134 132.386 195.62C135.243 197.569 137.801 199.785 140.151 202.278C136.364 201.773 132.564 201.358 128.767 200.941C127.516 200.804 125.959 200.902 124.755 200.508C123.843 199.983 122.931 199.457 122.02 198.932C122.028 198.411 122.036 197.891 122.045 197.37V197.37ZM121.632 202.887C124.192 203.836 127.704 203.563 130.371 203.805C133.846 204.119 137.321 204.453 140.802 204.676C141.333 204.71 141.694 204.363 141.85 203.931C142.492 204.098 143.271 203.333 142.816 202.68C140.612 199.517 138.041 196.769 135.059 194.379C137.18 192.39 139.6 190.29 141.01 187.864C141.926 187.224 141.728 185.675 140.411 185.643C133.897 185.486 126.588 188.1 120.314 189.727C119.696 189.887 119.257 190.494 119.251 191.122C119.222 194.322 117.53 201.366 121.632 202.887V202.887Z" fill="black"/>
<path fill-rule="evenodd" clip-rule="evenodd" d="M23.629 265.991C20.015 265.706 16.393 265.483 12.77 265.374C12.65 265.371 12.541 265.391 12.438 265.423C12.564 260.926 12.838 256.458 13.118 252.13C13.48 246.542 13.595 240.439 14.996 235.002C16.046 230.927 18.955 229.556 23.063 229.462C26.622 229.38 30.012 229.968 31.59 233.517C33.633 238.112 33.036 244.313 33.195 249.247C33.389 255.29 33.434 261.336 33.422 267.382L33.239 267.275C30.274 266.156 26.78 266.24 23.629 265.991V265.991ZM36.152 245.785C36.002 241.122 36.337 235.313 33.926 231.09C29.847 223.945 15.863 224.349 12.656 232.037C10.573 237.032 10.652 243.401 10.226 248.706C9.63003 256.121 9.39303 263.563 9.51303 271.001C9.66403 280.318 8.47703 295.131 18.163 300.461C29.546 306.725 35.537 292.308 35.365 283.185C35.328 281.187 32.267 281.18 32.257 283.185C32.229 288.372 30.638 298.276 23.939 298.799C17.651 299.29 14.518 292.464 13.639 287.365C12.542 281.002 12.278 274.305 12.388 267.633L12.461 267.652C15.913 268.178 19.381 268.604 22.854 268.969C26.258 269.327 29.856 270.078 33.239 269.464C33.828 269.357 34.06 268.919 34.041 268.457C34.724 268.775 35.737 268.426 35.803 267.427C36.28 260.219 36.384 253.005 36.152 245.785V245.785Z" fill="black"/>
<path fill-rule="evenodd" clip-rule="evenodd" d="M89.212 265.991C85.598 265.706 81.977 265.483 78.353 265.374C78.233 265.371 78.124 265.391 78.021 265.423C78.148 260.926 78.421 256.458 78.701 252.13C79.063 246.542 79.178 240.439 80.579 235.002C81.629 230.927 84.539 229.556 88.647 229.462C92.205 229.38 95.595 229.968 97.173 233.517C99.216 238.112 98.619 244.313 98.778 249.247C98.972 255.29 99.017 261.336 99.005 267.382L98.822 267.275C95.857 266.156 92.363 266.24 89.212 265.991V265.991ZM101.735 245.785C101.585 241.122 101.92 235.313 99.509 231.09C95.43 223.945 81.446 224.349 78.24 232.037C76.156 237.032 76.235 243.401 75.809 248.706C75.214 256.121 74.976 263.563 75.097 271.001C75.247 280.318 74.06 295.131 83.746 300.461C95.129 306.725 101.12 292.308 100.948 283.185C100.911 281.187 97.85 281.18 97.84 283.185C97.813 288.372 96.222 298.276 89.522 298.799C83.234 299.29 80.101 292.464 79.222 287.365C78.125 281.002 77.861 274.305 77.971 267.633L78.045 267.652C81.497 268.178 84.964 268.604 88.437 268.969C91.841 269.327 95.439 270.078 98.822 269.464C99.411 269.357 99.644 268.919 99.624 268.457C100.308 268.775 101.32 268.426 101.386 267.427C101.863 260.219 101.968 253.005 101.735 245.785V245.785Z" fill="black"/>
<path fill-rule="evenodd" clip-rule="evenodd" d="M65.439 229.409C61.551 251.228 58.012 273.107 54.789 295.033C50.54 272.694 47.317 250.237 43.856 227.751C43.633 226.301 41.139 226.626 41.275 228.101C43.657 253.796 48.361 279.408 53.492 304.677C53.787 306.13 56.297 306.219 56.518 304.677C60.084 279.801 64.064 254.987 68.472 230.245C68.825 228.266 65.794 227.416 65.439 229.409Z" fill="black"/>
<path fill-rule="evenodd" clip-rule="evenodd" d="M130.862 258.527C130.528 264.849 128.932 271.098 125.406 276.41C122.384 280.964 118.355 284.744 114.294 288.381C113.406 281.359 112.51 274.337 111.856 267.285C111.228 260.517 110.7 253.739 110.289 246.955C110.1 243.845 109.938 240.734 109.799 237.621C109.729 236.039 109.302 234.078 109.594 232.527C109.997 230.395 110.668 230.476 112.734 230.76C125.958 232.582 131.485 246.715 130.862 258.527V258.527ZM116.462 228.392C112.821 227.227 107.096 226.097 106.46 231.116C105.96 235.065 106.751 239.59 106.969 243.562C107.202 247.804 107.482 252.044 107.807 256.28C109.084 272.928 110.643 290.004 114.33 306.317C114.582 307.435 116.482 307.218 116.365 306.042C115.924 301.606 115.395 297.18 114.844 292.757C119.564 293.757 123.226 297.608 123.872 302.476C124.134 304.454 127.283 304.48 127.017 302.476C126.226 296.521 122.422 291.946 117.009 290.153C121.449 286.143 125.79 281.92 128.891 276.772C132.319 271.084 133.802 264.389 134.035 257.798C134.469 245.549 128.953 232.389 116.462 228.392V228.392Z" fill="black"/>
<path fill-rule="evenodd" clip-rule="evenodd" d="M120.983 86.8458C120.776 87.5038 120.995 88.0288 121.392 88.3668C113.342 86.9098 104.749 86.8958 96.63 86.3968C87.645 85.8438 78.65 85.4408 69.651 85.1868C60.652 84.9318 51.649 84.8288 42.647 84.8638C35.013 84.8928 26.431 84.1338 18.765 85.4828C18.847 85.2718 18.884 85.0318 18.845 84.7648C16.666 69.8308 13.516 55.0358 11.117 40.1248C20.015 46.4588 28.327 53.5088 36.039 61.2618C36.751 61.9768 37.986 61.8118 38.495 60.9448C49.348 42.4428 60.201 23.9408 71.053 5.43877C80.912 24.1308 90.77 42.8238 100.629 61.5158C101.005 62.2288 102.097 62.5418 102.775 62.0788C112.61 55.3668 122.444 48.6538 132.279 41.9418C129.383 57.1198 125.622 72.1008 120.983 86.8458V86.8458ZM133.726 37.1588C123.335 44.2528 112.943 51.3468 102.552 58.4408L72.478 1.42977C71.921 0.374768 70.348 0.448768 69.773 1.42977C58.785 20.1658 47.797 38.9008 36.81 57.6368C28.473 49.4288 19.457 42.0038 9.79603 35.3938C8.54203 34.5348 7.31903 35.9498 7.50203 37.1578C9.93603 53.2538 12.199 69.6938 16.395 85.4398C16.446 85.6338 16.525 85.7918 16.621 85.9208C16.507 85.9488 16.39 85.9698 16.276 85.9988C15.45 86.2038 15.375 87.5928 16.276 87.7468C24.711 89.1928 34.095 87.8248 42.647 87.7688C51.358 87.7108 60.071 87.8038 68.78 88.0348C77.489 88.2658 86.194 88.6368 94.891 89.1468C104.067 89.6858 113.514 91.2568 122.688 91.0598C123.997 91.0318 124.385 89.0208 123.065 88.6828C123.483 88.5388 123.846 88.2218 124.016 87.6818C129.046 71.6928 133.055 55.4278 136.033 38.9328C136.254 37.7098 134.96 36.3168 133.726 37.1588V37.1588Z" fill="black"/>
<path fill-rule="evenodd" clip-rule="evenodd" d="M19.5971 65.3588C17.8411 62.4898 16.5871 59.4308 17.3231 55.9998C17.3961 55.6598 16.8941 55.5168 16.8001 55.8558C15.8441 59.2918 16.2191 63.2868 19.0351 65.7918C19.3281 66.0518 19.8191 65.7198 19.5971 65.3588Z" fill="black"/>
<path fill-rule="evenodd" clip-rule="evenodd" d="M23.151 67.2718C22.191 64.4668 21.817 61.5748 21.907 58.6188C21.927 57.9788 21 58.0098 20.933 58.6188C20.584 61.7568 21.124 64.7138 22.385 67.5948C22.574 68.0278 23.305 67.7198 23.151 67.2718" fill="black"/>
<path fill-rule="evenodd" clip-rule="evenodd" d="M41.1941 79.2757C38.9621 78.6637 36.7011 79.0037 34.6351 80.0047C34.2461 80.1927 34.5191 80.8347 34.9301 80.7027C36.9501 80.0577 38.9691 80.0007 41.0591 80.2687C41.6351 80.3427 41.7291 79.4227 41.1941 79.2757Z" fill="black"/>
<path fill-rule="evenodd" clip-rule="evenodd" d="M56.504 34.6056C54.272 36.3816 52.853 39.1776 52.149 41.8936C52.033 42.3386 52.67 42.4976 52.827 42.0806C53.819 39.4336 55.35 37.3846 57.106 35.2076C57.453 34.7786 56.934 34.2636 56.504 34.6056Z" fill="black"/>
<path fill-rule="evenodd" clip-rule="evenodd" d="M60.849 30.3479C59.037 33.0549 58.216 36.1069 58.136 39.3499C58.122 39.8959 58.931 39.8809 58.974 39.3499C59.225 36.3159 60.222 33.4949 61.691 30.8399C61.997 30.2869 61.196 29.8299 60.849 30.3479Z" fill="black"/>
<path fill-rule="evenodd" clip-rule="evenodd" d="M75.889 20.7368C74.963 18.3818 73.836 16.1058 72.772 13.8108C72.584 13.4038 71.863 13.6998 72.039 14.1198C73.019 16.4508 73.939 18.8188 75.055 21.0878C75.28 21.5458 76.08 21.2208 75.889 20.7368Z" fill="black"/>
<path fill-rule="evenodd" clip-rule="evenodd" d="M91.26 49.5939C89.828 48.8689 88.647 47.7739 88.163 46.2059C87.976 45.6009 87.045 45.8519 87.211 46.4679C87.706 48.3039 89.041 49.9039 90.923 50.3949C91.389 50.5159 91.715 49.8249 91.26 49.5939" fill="black"/>
<path fill-rule="evenodd" clip-rule="evenodd" d="M72.968 59.3376C72.012 58.0776 71.327 56.7486 71.254 55.1416C71.231 54.6446 70.468 54.6386 70.477 55.1416C70.507 56.8746 71.093 58.5996 72.416 59.7636C72.695 60.0086 73.224 59.6746 72.968 59.3376Z" fill="black"/>
<path fill-rule="evenodd" clip-rule="evenodd" d="M79.915 61.7417C78.343 60.5867 77.4 58.8527 77.396 56.8937C77.394 56.3847 76.623 56.3867 76.606 56.8937C76.533 59.1507 77.565 61.2747 79.461 62.5187C79.954 62.8427 80.373 62.0777 79.915 61.7417" fill="black"/>
<path fill-rule="evenodd" clip-rule="evenodd" d="M123.113 67.1888C121.614 70.0958 120.377 73.1208 119.089 76.1248C118.896 76.5738 119.543 76.9748 119.76 76.5168C121.174 73.5328 122.635 70.5718 123.834 67.4928C123.997 67.0768 123.316 66.7948 123.113 67.1888Z" fill="black"/>
<path fill-rule="evenodd" clip-rule="evenodd" d="M122.184 61.8939C120.992 64.2209 119.966 66.6349 118.948 69.0419C118.744 69.5249 119.426 69.9589 119.672 69.4649C120.856 67.0929 122.034 64.7089 123.041 62.2549C123.242 61.7639 122.425 61.4249 122.184 61.8939" fill="black"/>
<path fill-rule="evenodd" clip-rule="evenodd" d="M98.433 69.7415C96.9 71.9655 94.312 73.9285 92.085 75.4455L91 75.4105C90 75.4105 90 76.9765 91 76.9765C91 76.9765 92.457 76.8015 92.57 76.5735C95.032 75.0405 97.708 72.9595 98.977 70.3265C99.302 69.6535 98.858 69.1245 98.433 69.7415Z" fill="black"/>
</svg>
