<svg width="85" height="160" viewBox="0 0 85 160" fill="none" xmlns="http://www.w3.org/2000/svg">
<path fill-rule="evenodd" clip-rule="evenodd" d="M11.9745 50.5463C15.1465 47.9913 11.2145 44.2853 7.65754 46.6833C7.39154 51.6653 7.47354 52.5143 11.9745 50.5463ZM11.2115 36.3293C10.8565 35.8383 8.02054 35.4043 7.65754 36.2913C8.18354 37.9293 6.45254 40.5643 8.66154 40.2133C9.78754 40.3413 13.5025 38.7383 11.2115 36.3293ZM15.1475 42.5703C20.8205 42.5183 22.8535 52.3713 17.0545 55.1763C14.3985 57.0473 5.68654 57.2533 0.930542 57.1013C0.961542 57.0683 1.03054 34.9653 1.06754 32.1283C4.90954 27.3553 27.9235 32.7303 14.4185 42.6063C14.5805 42.5833 14.8235 42.5703 15.1475 42.5703" fill="#D82E42"/>
<path fill-rule="evenodd" clip-rule="evenodd" d="M40.2178 49.7142V56.6502L21.9088 57.0662L21.0078 30.7112C42.9258 30.2562 38.9098 27.9312 39.8018 37.0572L28.0808 37.1952C26.8438 42.2062 33.7728 39.0402 37.6628 39.7352C38.3748 38.3702 38.0838 46.1002 38.3108 46.6622L28.6368 46.8702L28.8098 50.1652L40.2178 49.7142Z" fill="#D82E42"/>
<path fill-rule="evenodd" clip-rule="evenodd" d="M45.454 56.1123C37.446 52.6273 43.143 51.2143 45.523 47.7033C46.204 50.9143 58.641 51.0383 52.513 47.3983C37.028 47.6413 39.115 28.1703 54.505 30.7673C64.401 33.4963 61.359 35.1793 57.798 39.9003C55.145 38.2503 50.887 35.7353 48.472 39.0323C71.439 41.7643 61.334 61.8653 45.454 56.1123Z" fill="#D82E42"/>
<path fill-rule="evenodd" clip-rule="evenodd" d="M76.3516 37.2999L76.4206 56.9959L69.5556 57.3089L69.4866 37.4739C59.0696 38.3229 62.9606 37.0919 61.7886 30.7109L83.5646 30.1919L84.1196 37.1259L76.3516 37.2999Z" fill="#D82E42"/>
<path fill-rule="evenodd" clip-rule="evenodd" d="M19.544 135.985V142.708L1.796 143.111L0.921997 117.564C22.107 117.068 18.309 114.981 19.141 123.715L7.779 123.85C6.579 128.707 13.297 125.638 17.067 126.311C17.753 124.991 17.477 132.459 17.695 133.027L8.316 133.228L8.484 136.422L19.544 135.985Z" fill="#D82E42"/>
<path fill-rule="evenodd" clip-rule="evenodd" d="M43.8124 119.379C36.3174 145.056 39.6294 142.923 30.4344 144.186C30.4474 144.16 22.2344 125.855 20.2344 121.333C18.3364 119.976 24.6294 118.575 26.5354 117.295L33.1904 132.32L37.2244 117.564L43.8124 119.379Z" fill="#D82E42"/>
<path fill-rule="evenodd" clip-rule="evenodd" d="M63.0401 135.985V142.708L45.2921 143.111L44.4181 117.564C65.6031 117.068 61.8051 114.981 62.6371 123.715L51.2751 123.85C50.0751 128.707 56.7931 125.638 60.5631 126.311C61.2491 124.991 60.9731 132.459 61.1911 133.027L51.8121 133.228L51.9801 136.422L63.0401 135.985Z" fill="#D82E42"/>
<path fill-rule="evenodd" clip-rule="evenodd" d="M70.502 129.934C75.553 132.296 79.919 121.58 70.434 124.017C70.416 123.966 70.512 129.699 70.502 129.934ZM80.148 136.926C80.91 137.442 81.784 137.699 82.771 137.699V144.421C77.541 145.029 73.701 139.838 70.568 136.421L70.636 142.842C70.334 142.65 62.565 143.111 63.912 142.709C63.894 141.084 63.717 125.369 63.661 120.308C63.294 118.009 64.718 118.105 70.014 117.406C81.13 115.58 88.022 127.703 78.4 134.776C78.663 135.341 79.136 136.121 80.148 136.926Z" fill="#D82E42"/>
<path fill-rule="evenodd" clip-rule="evenodd" d="M16.0812 75.3614C16.5902 71.6334 9.99416 68.1664 7.82816 69.9254V77.4384C5.89516 85.6134 17.0742 80.0004 16.0812 75.3614V75.3614ZM15.1622 63.8484C36.9742 78.7664 12.8392 94.0004 0.936157 87.6374C0.981157 83.5944 1.18416 65.2004 1.20416 63.3864C3.01316 61.5864 10.8312 61.3714 15.1622 63.8484" fill="#413D4B"/>
<path fill-rule="evenodd" clip-rule="evenodd" d="M38.2393 75.7779L36.5743 69.5369L34.0783 75.7439L38.2393 75.7779ZM40.1113 82.7139C29.4653 82.4049 31.6223 82.0929 29.0843 88.1919L22.1493 85.3489L33.5223 62.1499L40.4583 62.2189L48.6073 86.8409C39.2403 89.4819 42.1703 88.5489 40.1113 82.7139Z" fill="#413D4B"/>
<path fill-rule="evenodd" clip-rule="evenodd" d="M64.3848 75.3614C64.8938 71.6334 58.2977 68.1664 56.1317 69.9254V77.4384C54.1987 85.6134 65.3778 80.0004 64.3848 75.3614V75.3614ZM63.4657 63.8484C85.2777 78.7664 61.1427 94.0004 49.2397 87.6374C49.2847 83.5944 49.4877 65.2004 49.5077 63.3864C51.3167 61.5864 59.1347 61.3714 63.4657 63.8484" fill="#413D4B"/>
<path fill-rule="evenodd" clip-rule="evenodd" d="M72.7422 62.1499H80.3362C79.9452 82.9109 82.3082 79.0739 73.3662 79.6969L72.7422 62.1499ZM74.5962 88.0709C69.6042 85.4199 75.1032 76.7329 80.1512 82.3249C81.8772 85.3839 78.7742 90.3129 74.5962 88.0709V88.0709Z" fill="#413D4B"/>
<path fill-rule="evenodd" clip-rule="evenodd" d="M64.4649 91.8384C65.6619 93.2654 65.9639 94.8174 65.6549 96.1534C65.6589 96.1294 65.0599 100.197 59.0589 100.028C59.0589 100.028 59.7549 99.8694 60.6119 99.5084C59.6319 99.4364 56.8459 99.1324 53.8419 97.9384C53.8419 97.9384 55.4099 98.3214 56.8889 98.1074C43.7369 90.2734 35.1889 103.243 44.9379 109.522C57.4809 115.003 72.5829 100.932 64.4649 91.8384Z" fill="#413D4B"/>
<path fill-rule="evenodd" clip-rule="evenodd" d="M18.1436 91.8384C17.3656 92.7924 16.6506 94.4414 16.9526 96.1534C16.9526 96.1534 17.5696 100.344 23.5486 100.028C23.5486 100.028 22.8526 99.8694 21.9956 99.5084C22.9756 99.4364 25.7626 99.1324 28.7666 97.9384C28.7666 97.9384 27.1986 98.3214 25.7196 98.1074C38.6306 90.3304 47.5366 103.053 37.6706 109.522C25.1276 115.003 10.0246 100.934 18.1436 91.8384Z" fill="#413D4B"/>
<path d="M8.453 23.287V10.75H74.53V23.287M74.53 149.39V158.04H8.453V149.39H74.53Z" stroke="#0E4969" stroke-width="3.071"/>
<path fill-rule="evenodd" clip-rule="evenodd" d="M41.246 20.2338C65.464 9.12376 48.687 -4.72124 41.328 3.46476C37.136 -1.99124 27.778 2.00476 28.694 8.87776C29.457 13.9538 37.383 18.0038 41.246 20.2338" fill="#D82E42"/>
</svg>
