<svg width="105" height="117" viewBox="0 0 105 117" fill="none" xmlns="http://www.w3.org/2000/svg">
<g clip-path="url(#clip0_1_4409)">
<path fill-rule="evenodd" clip-rule="evenodd" d="M102.623 50.71C102.757 73.6804 61.0266 73.8568 50.9556 60.2752C37.011 77.362 -3.17995 69.886 1.71005 49.8484C1.73825 49.7704 1.78385 49.702 1.83425 49.6408C2.39825 48.4546 3.21425 48.9664 3.84065 50.608C7.60385 56.8588 15.4416 54.2764 20.8062 51.0046C25.9896 47.833 28.4322 43.303 33.387 39.631C38.868 35.9482 47.2206 37.4242 51.2148 42.8392C61.149 31.5616 73.8264 40.4968 80.898 49.2604C91.0326 59.9158 93.5803 54.0382 101.828 49.9222C102.2 49.9672 102.526 50.215 102.623 50.71V50.71ZM28.785 47.602C28.9596 47.518 29.1282 47.4394 29.2974 47.3542C29.3478 47.1856 29.4042 47.0338 29.466 46.8814C29.235 47.1238 29.016 47.3602 28.785 47.602Z" fill="black"/>
<path fill-rule="evenodd" clip-rule="evenodd" d="M86.5428 7.84353C88.3944 18.9381 77.136 27.0699 69.7038 33.5385C67.9968 35.7843 65.0808 35.0175 62.5254 33.5163C29.343 17.4621 50.5428 -9.20786 65.3064 5.74354C72.261 -1.64726 83.6484 -2.68767 86.5428 7.84353" fill="#E94B59"/>
<path fill-rule="evenodd" clip-rule="evenodd" d="M100.117 103.092C104.785 86.3078 88.2342 73.0868 73.476 75.5444C72.6708 75.5222 72.468 75.944 72.8676 76.817C73.3272 88.4186 74.3658 100.812 74.4156 112.663C83.4012 112.055 96.879 113.884 100.117 103.092V103.092ZM102.577 88.7858C110.111 113.087 91.3164 117.576 72.8394 115.743C70.1238 114.99 71.1852 107.607 70.6914 105.33C70.7058 94.787 69.579 85.0316 69.8292 74.4278C70.2348 72.8096 71.9148 72.4934 73.7544 72.32C85.5822 70.8176 98.2674 77.303 102.577 88.7858" fill="white"/>
<path fill-rule="evenodd" clip-rule="evenodd" d="M58.9054 101.673C55.7332 91.3055 53.7244 80.9231 50.0098 70.2239C47.0812 80.7185 46.5922 91.9001 44.977 102.861C48.4588 101.519 53.9938 102.002 57.937 102.112C58.207 101.808 58.5562 101.679 58.9054 101.673ZM65.0026 113.411C62.5546 119.972 60.5296 106.633 59.761 104.809C55.3306 105.631 49.2886 105.539 44.7178 104.966C44.7424 107.165 42.3604 121.141 41.5564 112.742C43.183 94.6817 46.3822 67.9361 49.2184 67.4543C54.004 66.2639 55.4812 81.4073 56.7622 83.5133C59.5498 93.5231 62.2774 103.394 65.0026 113.411" fill="white"/>
<path fill-rule="evenodd" clip-rule="evenodd" d="M25.649 111.818C34.5686 108.495 32.9144 97.4608 30.7406 89.941C26.3228 76.4656 15.7166 73.6132 4.24404 74.2378C3.16644 86.899 5.07384 100.089 4.51404 112.995C11.4896 113.58 18.9326 114.177 25.649 111.818V111.818ZM35.3948 95.4064C39.1658 118.287 18.395 118.555 3.01644 115.832C-0.117356 113.475 1.75284 102.23 1.04244 99.2176C1.46904 89.9698 -0.945956 79.9876 1.83324 71.3464C20.7644 68.2984 33.203 78.6178 35.3948 95.4064Z" fill="white"/>
<path fill-rule="evenodd" clip-rule="evenodd" d="M32.0896 3.16499C34.2652 5.4774 31.5328 9.0534 28.4416 8.7612C28.4866 14.8314 28.4566 21.6588 28.1992 28.1172C31.1866 27.4446 33.2524 30.7842 31.7422 33.1866C30.2392 35.6706 26.9494 34.6038 24.2818 35.2746C14.0884 36.972 12.8764 28.0986 21.4996 28.5618C21.6418 22.0068 21.8554 15.2886 21.6574 8.42879C19.099 9.08759 15.4984 6.19619 17.314 3.43259C19.9072 0.404395 30.3052 1.73339 32.0896 3.16499" fill="black"/>
</g>
<defs>
<clipPath id="clip0_1_4409">
<rect width="105" height="117" fill="white"/>
</clipPath>
</defs>
</svg>
