<svg width="176" height="177" viewBox="0 0 176 177" fill="none" xmlns="http://www.w3.org/2000/svg">
<path fill-rule="evenodd" clip-rule="evenodd" d="M103.233 44.0273C91.3534 43.6733 79.6304 43.3243 68.0504 42.9803C67.1834 44.5063 66.5224 45.6683 65.5984 47.2933C78.5984 47.7613 91.1324 48.2133 103.901 48.6733C103.646 46.9003 103.456 45.5793 103.233 44.0273V44.0273ZM56.4864 48.8903C55.8864 57.2483 82.2684 52.2473 86.2804 53.5893C95.7944 52.6123 113.596 56.2233 113.58 50.3643C94.6324 48.7563 75.7164 47.4033 56.4864 48.8903V48.8903ZM79.1984 37.8923C79.0634 37.7063 78.9284 37.5213 78.7944 37.3363C80.2554 36.4733 81.7174 35.6103 83.5814 34.5093C73.1864 25.3893 69.3264 31.7163 68.5144 42.1513C80.0964 42.6583 91.4174 43.3583 102.943 42.8523C98.5734 20.9643 90.7514 31.6383 79.1984 37.8923V37.8923ZM115.48 50.2953C114.708 53.8703 113.936 54.9083 110.162 54.8413C101.191 54.9523 91.5684 54.9763 81.9674 54.8623C72.5274 53.3153 51.6634 59.7723 55.1274 47.3303C75.1664 50.5603 61.7364 16.1063 84.0584 33.3933C101.019 19.3973 102.325 35.9653 106.454 47.8913C109.572 49.2983 112.818 46.7363 115.48 50.2953Z" fill="black"/>
<path fill-rule="evenodd" clip-rule="evenodd" d="M69.0063 143.55C80.2583 141.176 81.1493 122.194 68.4203 121.723C68.6163 129.051 68.8073 136.167 69.0063 143.55ZM62.0283 144.425C61.8283 136.683 61.6283 128.92 61.4253 121.065C85.6453 114.747 83.1773 149.055 62.0283 144.425Z" fill="black"/>
<path fill-rule="evenodd" clip-rule="evenodd" d="M80.689 79.804C78.718 75.73 77.027 72.234 75.335 68.738C75.118 68.764 74.9 68.792 74.682 68.819C74.167 72.676 73.651 76.533 73.08 80.809C75.694 80.464 77.958 80.164 80.689 79.804V79.804ZM65.031 88.963C66.439 80.971 67.391 73.103 69.59 65.283C78.144 63.683 82.281 81.95 85.375 87.467C82.586 86.184 82.522 83.297 80.87 81.093C78.482 81.309 75.889 81.544 72.978 81.807C71.895 87.536 73.925 91.853 65.031 88.963" fill="black"/>
<path fill-rule="evenodd" clip-rule="evenodd" d="M39.5483 90.4495C39.0533 82.1115 38.5693 73.9705 38.0883 65.8615C45.5713 62.3315 43.5393 73.6355 44.8523 78.4475H55.1583C55.2293 74.1375 54.3183 70.2345 53.9503 65.8035C57.1063 73.0175 57.4933 82.7915 57.5763 90.7915C55.8513 86.8415 56.5573 82.9885 55.0663 79.3505C51.8433 79.5555 48.5623 79.7635 44.9833 79.9905C44.8313 83.6655 47.7173 93.2835 39.5483 90.4495" fill="black"/>
<path fill-rule="evenodd" clip-rule="evenodd" d="M114.543 77.1456C121.158 76.6726 119.922 66.0656 113.779 66.3926C114.034 69.9746 114.286 73.5306 114.543 77.1456ZM107.685 65.1496C119.446 60.4766 125.216 76.2746 114.323 78.3006C113.465 82.5896 117.354 92.0906 109.151 89.7836C107.639 82.1986 109.087 73.5986 107.685 65.1496" fill="black"/>
<path fill-rule="evenodd" clip-rule="evenodd" d="M96.5341 136.552C95.0731 133.012 93.7551 129.82 92.4381 126.628C92.2491 126.657 92.0601 126.687 91.8711 126.716C91.2311 129.909 90.5911 133.103 89.8991 136.552H96.5341ZM99.8781 144.018C98.7831 141.88 97.8351 140.028 96.8011 138.008C94.3951 137.863 91.8961 137.713 89.4421 137.565C89.6021 141.102 84.1201 146.8 82.6671 141.003C85.1071 135.169 85.4781 115.47 92.2921 121.1C93.1231 129.044 99.4581 136.506 99.8781 144.018Z" fill="black"/>
<path fill-rule="evenodd" clip-rule="evenodd" d="M95.73 78.3768C103.679 78.9678 101.68 67.0868 94.656 66.4548C95.021 70.4978 95.377 74.4568 95.73 78.3768ZM89.837 88.5708C89.543 80.8688 89.257 73.3598 88.958 65.5008C102.112 62.2838 106.946 75.6378 95.668 81.2338C95.356 85.2648 96.922 89.6698 89.837 88.5708" fill="black"/>
<path fill-rule="evenodd" clip-rule="evenodd" d="M122.033 64.1945C129.271 61.7095 129.836 67.4875 133.407 72.5795C134.807 70.4355 136.003 68.6065 137.198 66.7775C137.354 66.8595 137.51 66.9415 137.665 67.0235C132.637 73.3425 133.474 81.4265 133.542 89.7695C132.291 89.8685 130.766 89.9885 128.826 90.1415C127.902 80.9445 130.189 71.8585 122.033 64.1945" fill="black"/>
<path fill-rule="evenodd" clip-rule="evenodd" d="M111.518 128.502C113.292 125.673 115.023 122.913 116.754 120.151C116.856 125.317 110.05 128.465 111.811 134.926C113.599 149.291 105.503 144.443 106.79 133.239C106.712 128.346 102.894 126.243 100.462 121.367C102.841 114.123 109.262 124.895 111.518 128.502Z" fill="black"/>
<path fill-rule="evenodd" clip-rule="evenodd" d="M64.5498 110.905C66.8118 108.819 67.5198 104.249 63.2178 104.203C61.5778 105.591 61.7938 109.474 64.5498 110.905ZM67.5468 102.884C67.6358 106.256 67.5078 109.625 69.8188 113.257C68.2258 114.422 67.6888 112.342 66.6408 111.73C58.8368 114.818 58.0858 98.3067 67.5468 102.884" fill="black"/>
<path fill-rule="evenodd" clip-rule="evenodd" d="M81.83 113.278C80.619 106.832 81.432 101.185 80.271 94.2261C82.751 95.1851 82.321 100.727 82.652 104.32C86.59 105.658 87.911 108.68 86.571 113.13C84.274 111.836 86.452 107.664 83.132 106.258C81.585 108.207 84.167 110.509 81.83 113.278" fill="black"/>
<path fill-rule="evenodd" clip-rule="evenodd" d="M57.7772 108.677C56.6722 108.958 55.5672 109.239 54.4742 109.518V119.571C52.2972 116.566 49.7092 90.2054 57.9532 95.7494C51.9342 95.9094 54.3712 102.624 54.2352 107.336C55.6502 107.589 56.6502 107.767 57.6512 107.945C57.6932 108.189 57.7352 108.433 57.7772 108.677" fill="black"/>
<path fill-rule="evenodd" clip-rule="evenodd" d="M91.1074 105.882C93.6914 106.055 94.8674 102.702 91.5844 102.542C90.4704 103.337 89.6924 104.518 91.1074 105.882ZM90.8704 107.818C91.5304 110.436 93.4814 110.748 96.3854 110.04C92.5254 116.361 84.8234 104.943 90.5624 101.371C96.1274 99.401 97.7744 107.094 90.8704 107.818Z" fill="black"/>
<path fill-rule="evenodd" clip-rule="evenodd" d="M77.6298 105.295C76.9158 105.384 76.2008 105.473 75.4238 105.569C75.0358 108.395 75.5858 110.72 77.9098 112.482C73.9258 114.308 74.4518 107.84 72.6898 104.502C74.4698 101.3 73.2608 97.2256 73.5358 92.7246C75.7478 96.0526 75.1768 99.2126 75.1998 103.463C76.2888 103.919 77.0718 104.248 77.8558 104.576C77.7808 104.816 77.7048 105.055 77.6298 105.295" fill="black"/>
<path fill-rule="evenodd" clip-rule="evenodd" d="M99.5829 112.293C98.4659 108.855 98.2429 103.409 99.0169 100.186C99.5669 101.205 99.9809 101.971 100.452 102.843C102.025 102.395 103.45 101.151 105.691 102.293C97.4729 105.533 102.185 104.672 99.5829 112.293Z" fill="black"/>
<path fill-rule="evenodd" clip-rule="evenodd" d="M114.797 98.1191C112.146 100.444 113.782 102.312 115.282 105.744C115.642 108.396 113.916 111.559 110.692 109.753C118.605 106.945 106.38 99.1071 114.797 98.1191Z" fill="black"/>
<path fill-rule="evenodd" clip-rule="evenodd" d="M108.142 100.878C107.611 99.5316 107.08 98.1866 106.538 96.8166C108.299 96.6716 109.071 98.0346 108.75 100.636L108.142 100.878Z" fill="black"/>
<path fill-rule="evenodd" clip-rule="evenodd" d="M79.1987 37.8925C92.4927 29.6585 98.9847 22.9925 102.944 42.8525C91.4177 43.3585 80.0967 42.6595 68.5137 42.1515C69.4277 30.2255 73.9997 26.2275 83.5807 34.5105C81.7177 35.6105 80.2557 36.4735 78.7937 37.3365C78.9287 37.5215 79.0637 37.7065 79.1987 37.8925" fill="#C2996A"/>
<path fill-rule="evenodd" clip-rule="evenodd" d="M56.4868 48.8904C75.7168 47.4034 94.6328 48.7564 113.58 50.3654C113.402 56.7704 86.3578 52.3204 83.1528 53.5884C74.4588 52.6044 55.8518 56.4784 56.4868 48.8904Z" fill="#C2996A"/>
<path fill-rule="evenodd" clip-rule="evenodd" d="M103.233 44.0275C103.456 45.5795 103.646 46.9005 103.901 48.6735C91.1324 48.2135 78.5984 47.7615 65.5984 47.2935C66.5224 45.6685 67.1834 44.5065 68.0504 42.9805C79.6304 43.3245 91.3534 43.6735 103.233 44.0275" fill="#D3007F"/>
<path fill-rule="evenodd" clip-rule="evenodd" d="M82.8174 163.139C97.1834 170.771 104.673 165.938 114.175 156.078C119.491 155.554 125.096 156.134 128.816 150.934C131.991 147.281 131.677 142.265 135.551 138.979C143.596 135.408 151.881 131.267 152.411 121.966C147.789 99.1963 169.45 105.952 162.024 86.9313C160.025 83.0253 157.234 79.1173 157.268 74.6083C158.314 66.1333 162.642 57.4923 155.824 50.5233C151.231 44.2663 141.553 44.2003 136.668 37.8493C124.544 3.33227 111.684 19.3433 99.5474 15.9513C93.5074 13.1943 88.7024 8.74927 81.8154 6.73727C59.1204 4.02527 73.5204 23.2083 46.2494 21.3703C43.3284 21.8943 41.0894 23.4523 38.6184 26.0253C33.1344 31.1973 34.7654 36.6033 33.0044 42.4473C17.7834 56.6073 13.2234 52.2353 14.4604 74.3843C12.9124 82.1723 3.56937 85.2943 6.15837 94.9333C6.83837 99.4153 8.76437 102.681 12.2374 105.839C27.5464 113.997 13.9174 134.756 29.1334 141.571C58.4424 143.849 42.4564 171.39 74.4064 160.105C77.4294 159.655 79.7524 160.513 82.8174 163.139V163.139ZM124.707 15.9133C139.436 27.1033 134.509 35.4473 142.211 39.9773C176.139 55.1833 155.373 67.9843 159.64 77.9933C161.961 83.5283 165.665 87.1363 165.604 93.7953C165.836 101.452 159.537 104.246 154.687 109.455C153.224 112.137 153.477 114.333 154.267 118.134C155.78 134.637 144.638 135.335 135.875 141.767C128.437 158.314 127.502 155.811 114.184 158.988C105.884 168.714 98.9794 170.125 87.1914 167.73C82.9454 167.012 81.2224 163.203 76.7964 162.265C68.2104 163.196 57.4614 168.076 50.7484 160.072C46.2284 154.208 44.2684 147.054 36.2634 144.834C25.4614 145.325 18.4914 137.502 18.7064 127.295C20.1574 102.527 -0.101634 108.666 4.25237 87.4983C5.47137 81.9383 12.8684 78.0733 12.7314 71.4303C10.1024 58.7833 15.7904 51.7673 25.6084 45.8783C37.8654 38.8223 26.8054 27.0453 43.3284 19.8793C49.2114 17.3813 55.3614 20.4963 61.0094 16.8303C74.8794 -7.98874 87.0984 9.51227 102.879 14.6433C110.224 13.6923 117.95 11.6473 124.707 15.9133" fill="black"/>
<path fill-rule="evenodd" clip-rule="evenodd" d="M34.6597 159.078C36.3137 156.752 37.9687 154.426 39.9307 151.665C39.7017 154.469 38.3167 156.589 34.6597 159.078Z" fill="black"/>
<path fill-rule="evenodd" clip-rule="evenodd" d="M151.8 27.4411C149.619 29.8921 147.031 31.8531 143.776 33.0251C146.239 30.9741 148.702 28.9211 151.165 26.8701C151.377 27.0601 151.589 27.2511 151.8 27.4411" fill="black"/>
<path fill-rule="evenodd" clip-rule="evenodd" d="M100.837 7.46898C101.687 4.97898 102.536 2.48998 103.386 0.000976562C103.679 0.0879766 103.972 0.174977 104.265 0.261977C103.539 2.80898 102.814 5.35598 102.088 7.90298L100.837 7.46898Z" fill="black"/>
<path fill-rule="evenodd" clip-rule="evenodd" d="M12.8838 116.556C10.2128 117.711 7.54279 118.867 4.87179 120.022C4.72679 119.7 4.58179 119.378 4.43579 119.056C7.11779 117.872 9.80079 116.688 12.4828 115.504C12.6158 115.855 12.7498 116.205 12.8838 116.556Z" fill="black"/>
<path fill-rule="evenodd" clip-rule="evenodd" d="M74.1488 168.374C74.0468 171.018 73.6358 173.555 71.5238 176.455C71.5768 172.851 72.8048 170.593 74.1488 168.374Z" fill="black"/>
<path fill-rule="evenodd" clip-rule="evenodd" d="M139.533 143.786C141.636 145.998 143.739 148.211 145.843 150.423C145.63 150.628 145.417 150.832 145.205 151.037L138.905 144.465C139.114 144.239 139.324 144.013 139.533 143.786" fill="black"/>
<path fill-rule="evenodd" clip-rule="evenodd" d="M55.6362 12.6375C55.0442 10.5685 54.4532 8.49952 53.8612 6.43152C54.1302 6.34952 54.3992 6.26852 54.6692 6.18652C55.7772 8.11752 56.9332 10.0335 56.5982 12.4445C56.2772 12.5095 55.9572 12.5735 55.6362 12.6375Z" fill="black"/>
<path fill-rule="evenodd" clip-rule="evenodd" d="M121.208 171.191C120.104 169.173 119 167.155 117.86 165.075C120.377 166.108 121.446 167.843 121.208 171.191" fill="black"/>
<path fill-rule="evenodd" clip-rule="evenodd" d="M19.7412 35.8052C21.7182 37.4152 23.6942 39.0262 25.8732 40.8012C23.9472 40.6592 23.9472 40.6592 19.7412 35.8052Z" fill="black"/>
<path fill-rule="evenodd" clip-rule="evenodd" d="M6.08195 74.1807C4.10595 73.6387 2.12995 73.0967 0.152954 72.5547C0.222954 72.2897 0.291954 72.0267 0.360954 71.7627C2.33595 72.3057 4.31095 72.8487 6.28695 73.3917C6.21895 73.6547 6.14995 73.9177 6.08195 74.1807Z" fill="black"/>
<path fill-rule="evenodd" clip-rule="evenodd" d="M161.19 112.126C162.879 112.372 164.569 112.617 166.258 112.863C166.229 113.104 166.199 113.346 166.169 113.587C164.465 113.388 162.76 113.189 161.055 112.991C161.1 112.703 161.145 112.415 161.19 112.126Z" fill="black"/>
<path fill-rule="evenodd" clip-rule="evenodd" d="M170.99 72.6944C169.313 73.7404 167.627 73.6734 165.93 72.3174C167.621 72.4774 169.312 72.6384 171.003 72.7994L170.99 72.6944Z" fill="black"/>
<path fill-rule="evenodd" clip-rule="evenodd" d="M171.003 72.7993C172.279 72.4283 173.555 72.0583 175.6 71.4653C173.322 73.1723 173.322 73.1723 170.991 72.6953C170.99 72.6943 171.003 72.7993 171.003 72.7993Z" fill="black"/>
<path fill-rule="evenodd" clip-rule="evenodd" d="M24.0155 74.837C22.8005 76.015 20.0755 77.319 19.2145 74.72C18.8555 71.223 24.3495 70.237 24.0155 74.837Z" fill="black"/>
<path fill-rule="evenodd" clip-rule="evenodd" d="M49.4385 30.6354C48.4165 27.3104 48.9795 25.2604 52.0765 26.2974C54.2985 28.0754 53.5195 29.9474 49.4385 30.6354Z" fill="black"/>
<path fill-rule="evenodd" clip-rule="evenodd" d="M21.689 111.28C23.813 110.604 26.89 111.884 25.203 114.527C22.376 116.098 22.219 114.539 21.689 111.28Z" fill="black"/>
<path fill-rule="evenodd" clip-rule="evenodd" d="M34.9541 54.0211C34.6121 52.1771 36.7431 47.9251 39.0861 50.8521C39.7191 53.1421 37.7841 54.9821 34.9541 54.0211Z" fill="black"/>
<path fill-rule="evenodd" clip-rule="evenodd" d="M23.7959 125.446C25.9579 125.011 30.5819 126.733 27.0749 128.889C24.7029 129.671 24.5389 128.802 23.7959 125.446" fill="black"/>
<path fill-rule="evenodd" clip-rule="evenodd" d="M126.377 143.224C127.001 144.658 126.671 147.49 124.645 147.062C121.915 145.692 123.28 142.715 126.377 143.224Z" fill="black"/>
<path fill-rule="evenodd" clip-rule="evenodd" d="M11.9437 98.8273C13.1347 99.1283 16.6557 97.4043 15.9417 100.731C14.2217 102.489 11.4187 102.507 11.9437 98.8273Z" fill="black"/>
<path fill-rule="evenodd" clip-rule="evenodd" d="M151.141 69.3952C149.448 68.1032 151.283 63.9482 153.999 65.9622C154.595 67.4392 153.424 69.1192 151.141 69.3952" fill="black"/>
<path fill-rule="evenodd" clip-rule="evenodd" d="M74.874 151.898C75.23 153.636 73.56 156.706 71.516 154.258C69.917 152.177 72.724 151.072 74.874 151.898Z" fill="black"/>
<path fill-rule="evenodd" clip-rule="evenodd" d="M26.3838 60.972C25.2818 61.721 23.5308 62.429 22.7448 60.652C22.9868 57.29 26.8068 56.818 26.3838 60.972Z" fill="black"/>
<path fill-rule="evenodd" clip-rule="evenodd" d="M16.6259 86.865C16.2819 88.235 15.9909 89.396 15.6589 90.72C12.0299 91.351 12.3279 85.264 16.6259 86.865Z" fill="black"/>
<path fill-rule="evenodd" clip-rule="evenodd" d="M48.8881 137.341C48.9521 138.968 47.7661 142.495 45.4071 139.746C44.2911 137.86 45.6061 136.996 48.8881 137.341Z" fill="black"/>
<path fill-rule="evenodd" clip-rule="evenodd" d="M91.8057 161.246C93.0177 160.398 94.0867 159.649 95.3567 158.76C97.3497 161.091 94.4457 165.292 91.8057 161.246Z" fill="black"/>
<path fill-rule="evenodd" clip-rule="evenodd" d="M63.7992 154.029C64.7502 155.903 64.1872 158.74 61.2752 157.842C59.3662 156.296 61.5412 154.127 63.7992 154.029Z" fill="black"/>
<path fill-rule="evenodd" clip-rule="evenodd" d="M155.393 96.4507C155.051 94.6077 155.129 91.3447 158.077 92.5447C159.585 94.6367 158.155 95.3617 155.393 96.4507Z" fill="black"/>
<path fill-rule="evenodd" clip-rule="evenodd" d="M144.041 115.714C145.26 116.941 145.265 120.288 142.497 119.162C140.181 118.072 141.567 115.885 144.041 115.714Z" fill="black"/>
<path fill-rule="evenodd" clip-rule="evenodd" d="M85.9478 157.495C83.6738 158.333 80.2148 155.976 83.8188 154.088C85.3778 154.207 85.2778 155.078 85.9478 157.495Z" fill="black"/>
<path fill-rule="evenodd" clip-rule="evenodd" d="M144.335 130.564C142.343 130.794 138.845 130.622 140.7 127.912C142.439 126.906 143.897 127.241 144.335 130.564Z" fill="black"/>
<path fill-rule="evenodd" clip-rule="evenodd" d="M122.17 27.1899C120.18 27.4279 117.086 27.3359 118.471 24.5949C120.268 23.3809 121.34 24.2419 122.17 27.1899Z" fill="black"/>
<path fill-rule="evenodd" clip-rule="evenodd" d="M96.7993 25.6035C96.9463 23.1615 96.5953 21.7165 99.7913 21.5195C99.9063 23.5075 100.091 24.8025 96.7993 25.6035Z" fill="black"/>
<path fill-rule="evenodd" clip-rule="evenodd" d="M52.3433 151.495C52.0013 148.892 51.6623 147.899 54.8513 147.772C55.5543 149.837 55.5613 150.547 52.3433 151.495Z" fill="black"/>
<path fill-rule="evenodd" clip-rule="evenodd" d="M36.1806 134.623C37.0736 136.574 34.9896 139.822 33.1596 137.22C32.8286 135.225 33.6066 135.203 36.1806 134.623Z" fill="black"/>
<path fill-rule="evenodd" clip-rule="evenodd" d="M78.9359 13.9817C78.2129 14.7687 75.0079 17.1357 74.2999 14.0427C74.5349 12.5097 77.3889 12.0547 78.9359 13.9817Z" fill="black"/>
<path fill-rule="evenodd" clip-rule="evenodd" d="M130.46 135.212C130.223 133.708 131.38 131.25 133.263 132.519C135.511 134.941 132.752 136.753 130.46 135.212Z" fill="black"/>
<path fill-rule="evenodd" clip-rule="evenodd" d="M87.8418 14.7793C88.9388 15.0833 90.0498 15.3903 91.2378 15.7193C90.6238 19.8003 85.2008 19.0193 87.8418 14.7793Z" fill="black"/>
<path fill-rule="evenodd" clip-rule="evenodd" d="M148.627 56.6382C148.382 54.1542 147.624 52.4922 151.18 52.9312C151.361 54.3372 151.732 55.8382 148.627 56.6382Z" fill="black"/>
<path fill-rule="evenodd" clip-rule="evenodd" d="M108.954 22.333C111.441 22.698 111.65 26.498 108.518 26.072C107.544 25.245 107.553 23.925 108.954 22.333Z" fill="black"/>
<path fill-rule="evenodd" clip-rule="evenodd" d="M43.8793 38.1057C42.5323 38.3457 41.6423 38.5037 40.7523 38.6627C39.2733 35.9557 43.2323 33.2917 43.8793 38.1057Z" fill="black"/>
<path fill-rule="evenodd" clip-rule="evenodd" d="M106.572 155.902C106.245 157.805 104.951 159.344 103.506 158.777C101.55 157.285 103.721 155.878 106.572 155.902Z" fill="black"/>
<path fill-rule="evenodd" clip-rule="evenodd" d="M145.876 105.485C146.481 103.389 149.834 103.207 149.642 106.397C149.243 108.253 146.68 106.898 145.876 105.485Z" fill="black"/>
<path fill-rule="evenodd" clip-rule="evenodd" d="M127.292 38.0244C125.695 36.6774 128.202 32.4494 129.62 35.9734C129.573 36.8694 129.214 38.2594 127.292 38.0244" fill="black"/>
<path fill-rule="evenodd" clip-rule="evenodd" d="M112.293 152.065C112.57 150.69 112.729 149.902 112.971 148.702C114.375 149.218 115.521 149.64 116.667 150.062L116.609 151.042C115.32 151.347 114.031 151.653 112.293 152.065" fill="black"/>
<path fill-rule="evenodd" clip-rule="evenodd" d="M150.272 84.739C150.198 82.637 149.785 82.131 152.891 82.002C153.132 83.777 153.335 84.965 150.272 84.739Z" fill="black"/>
<path fill-rule="evenodd" clip-rule="evenodd" d="M138.43 49.8588C136.865 49.9458 134.787 48.1268 137.196 46.5808C138.955 45.7738 139.176 48.4508 138.43 49.8588Z" fill="black"/>
<path fill-rule="evenodd" clip-rule="evenodd" d="M63.3472 25.9953C61.9122 25.3073 61.8172 21.9803 64.3502 22.7313C64.9192 23.5813 65.0032 24.8193 63.3472 25.9953" fill="black"/>
</svg>
