<svg width="240" height="204" viewBox="0 0 240 204" fill="none" xmlns="http://www.w3.org/2000/svg">
<path fill-rule="evenodd" clip-rule="evenodd" d="M196.7 32.2651C191.901 25.0702 160.49 29.5765 124.128 38.7423C105.009 15.0019 88.9479 -2.04021 84.7727 0.197286C80.3152 2.58677 71.4897 26.3377 63.276 56.9117C26.451 69.6138 -2.79397 83.179 0.212946 89.5911C2.5861 94.6525 23.2049 104.054 50.532 114.412C43.548 154.792 41.641 192.794 53.4657 203.162C58.022 207.157 90.4656 176.218 123.403 139.47C164.605 152.514 201.2 162.379 205.222 160.857C209.364 159.29 188.993 126.778 163.805 91.3922C185.836 63.1101 201.088 38.8435 196.7 32.2651V32.2651Z" fill="#3289C6"/>
<path fill-rule="evenodd" clip-rule="evenodd" d="M91.5668 56.3418C91.6009 56.4267 91.6766 56.506 91.7279 56.5438C91.7091 56.4962 91.7283 56.5405 91.6668 56.4336C91.6331 56.404 91.6001 56.3727 91.5668 56.3418V56.3418Z" fill="#020202"/>
<path fill-rule="evenodd" clip-rule="evenodd" d="M133.091 79.9496C134.215 75.9882 135.37 71.4149 137.966 67.8522C140.352 70.8809 139.841 75.8557 137.535 78.9694C136.454 80.3758 134.017 79.8187 133.091 79.9496ZM91.7868 56.5351C91.9275 56.6517 92.0715 56.7594 92.2163 56.8557C92.0475 56.7435 91.9495 56.6862 91.8962 56.661C91.8702 56.6297 91.834 56.5879 91.7868 56.5351ZM129.7 75.9602C130.071 61.7208 132.822 62.601 123.839 63.1716C121.974 63.7315 123.65 68.7734 122.26 71.2734C121.539 74.292 115.236 85.1954 114.187 81.9603C112.794 77.0984 115.004 70.1502 114.898 65.7594C113.851 64.0526 109.418 62.4486 107.858 63.6308C106.527 65.8695 106.005 70.5156 104.296 75.0251C102.084 82.9876 96.0397 91.4963 97.2222 84.0783C97.9381 73.6361 105.528 50.0904 92.2363 52.9854C89.8704 53.1622 90.1808 54.8726 91.5667 56.342C91.5488 56.2973 91.5427 56.2518 91.5578 56.2104C91.5122 56.1718 91.6672 56.3977 91.7367 56.5501C91.7343 56.5481 91.731 56.5456 91.7282 56.5436C93.3122 66.9565 88.319 78.1225 89.5837 88.6838C93.6051 101.295 103.998 85.3673 106.245 79.9882C109.056 92.3334 118.235 86.8725 122.265 79.06C119.28 132.798 115.617 125.398 125.951 125.077C128.074 111.786 129.045 95.0663 132.835 80.9326C146.991 86.2983 149.547 66.7603 140.12 65.4932C133.217 64.3342 131.472 71.0995 129.7 75.9602V75.9602Z" fill="white"/>
<path fill-rule="evenodd" clip-rule="evenodd" d="M54.155 42.7462C46.6434 64.2889 83.3467 88.0927 75.2021 95.1502C73.0291 97.6356 69.4181 99.103 66.3539 97.022C59.725 91.2222 66.7969 86.4115 60.0122 86.5363C56.9292 87.4315 58.776 92.2146 59.6339 94.153C65.1974 105.547 82.0885 103.33 82.8984 88.007C82.7316 83.7473 81.5723 81.8357 80.0164 79.7677C41.8775 31.9545 79.7817 29.0656 83.234 44.3343C84.7822 50.7867 81.7098 56.5202 79.1833 62.3005C78.4987 63.8061 81.3962 65.2618 82.9696 64.6587C84.3677 63.7801 84.6516 61.4146 85.5937 59.7647C90.1753 49.8484 89.2474 39.928 79.6784 34.9535C70.6796 30.2676 58.392 33.3016 54.155 42.7462V42.7462Z" fill="white"/>
<path fill-rule="evenodd" clip-rule="evenodd" d="M174.336 62.0512C165.916 62.6242 172.792 45.0757 176.504 51.446C177.476 53.8461 176.364 58.6994 175.946 60.8264C176.005 61.518 175.415 62.1869 174.336 62.0512V62.0512ZM160.803 66.844C165.781 65.3205 156.587 75.8054 155.639 76.2853C155.815 75.3323 156.064 74.3969 156.388 73.435C157.165 71.2105 158.667 67.9225 160.803 66.844V66.844ZM183.338 56.1783C182.861 57.718 181.136 59.2757 179.018 60.4481C181.584 49.2967 174.872 43.9188 168.349 49.5767C163.173 55.9666 166.112 65.0031 174.959 64.7235C172.381 72.7876 165.441 85.5636 157.427 85.0552C155.144 83.4318 154.557 79.9073 157.768 78.3102C163.522 72.7323 170.855 65.5464 162.034 64.1444C150.578 62.6376 147.573 75.1405 146.754 81.0602C146.414 81.5401 144.252 82.3037 143.304 83.1071C143.027 84.9492 146.296 84.1307 147.571 83.6817C154.042 97.9654 168.766 84.7566 173.111 76.7892C178.876 67.6791 175.757 64.2379 181.358 64.2444C177.803 84.2567 177.386 84.2295 187.258 84.8651C186.365 76.8863 190.146 67.2069 189.485 58.0013C189.427 57.1999 183.558 55.4679 183.338 56.1783V56.1783Z" fill="white"/>
<path fill-rule="evenodd" clip-rule="evenodd" d="M77.4212 94.8585C80.4932 86.8452 66.7624 76.974 64.8143 71.2197C70.2143 77.0666 82.7021 88.0644 77.4212 94.8585Z" fill="#ABDCFF"/>
<path fill-rule="evenodd" clip-rule="evenodd" d="M94.2949 91.1767C87.0176 91.3937 92.174 74.8136 93.1315 71.6069C93.7502 78.2382 89.3798 89.1314 94.2949 91.1767Z" fill="#ABDCFF"/>
<path fill-rule="evenodd" clip-rule="evenodd" d="M115.436 84.7827C109.762 88.4474 110.514 76.5939 111.557 74.126C111.937 77.0937 110.763 85.1156 115.436 84.7827Z" fill="#ABDCFF"/>
<path fill-rule="evenodd" clip-rule="evenodd" d="M121.255 121.985C120.82 110.828 121.967 99.4913 123.582 88.4644C124.444 99.3824 123.311 111.251 121.255 121.985Z" fill="#ABDCFF"/>
<path fill-rule="evenodd" clip-rule="evenodd" d="M156.942 88.0768C149.235 89.2842 147.353 80.0172 150.154 74.5137C149.87 80.4809 150.188 86.4046 156.942 88.0768Z" fill="#ABDCFF"/>
<path fill-rule="evenodd" clip-rule="evenodd" d="M169.162 60.5625C165.134 58.2157 168.486 51.5833 171.295 49.7119C170.036 52.8483 167.543 57.1323 169.162 60.5625Z" fill="#ABDCFF"/>
<path fill-rule="evenodd" clip-rule="evenodd" d="M185.26 81.6825C182.707 76.6406 184.896 69.5071 186.811 64.6318C187.106 70.3605 184.97 75.9575 185.26 81.6825Z" fill="#ABDCFF"/>
<path fill-rule="evenodd" clip-rule="evenodd" d="M134.327 140.945C134.241 140.955 134.33 140.943 134.061 140.971C134.16 140.964 134.278 140.956 134.327 140.945Z" fill="#020202"/>
<path fill-rule="evenodd" clip-rule="evenodd" d="M141.64 142.524C136.177 141.908 133.937 142.934 133.636 147.416C132.913 150.536 131.475 153.289 129.682 155.744C128.943 156.471 127.554 159.002 126.893 158.045C125.208 152.038 126.748 146.952 130.446 142.99C131.024 142.536 130.694 142.728 131.619 142.036C131.161 142.411 132.12 141.595 133.288 141.188C133.081 141.283 133.681 141.078 134.061 140.97C134.039 140.972 134.019 140.973 133.996 140.975C134.128 140.963 134.258 140.943 134.626 140.92C134.723 140.917 134.636 140.919 134.896 140.917C134.815 140.919 134.757 140.919 134.713 140.92C135 141.02 134.964 140.749 135.776 141.285C137.578 144.824 138.53 134.597 130.265 137.651C111.358 143.156 113.072 178.573 133.836 156.309C135.605 173.807 149.115 163.174 147.027 162.939C138.738 157.539 145.297 142.114 141.64 142.524Z" fill="white"/>
<path fill-rule="evenodd" clip-rule="evenodd" d="M134.626 140.92C134.639 140.92 134.666 140.92 134.713 140.92C134.687 140.919 134.664 140.919 134.647 140.919C134.64 140.919 134.633 140.92 134.626 140.92Z" fill="#020202"/>
<path fill-rule="evenodd" clip-rule="evenodd" d="M68.3869 108.893C67.9553 108.959 67.0755 109.214 68.4142 108.889C68.4052 108.891 68.3959 108.892 68.3869 108.893Z" fill="#020202"/>
<path fill-rule="evenodd" clip-rule="evenodd" d="M87.4036 168.519C77.4151 178.467 80.9549 164.463 82.9241 161.232C87.1388 155.092 94.5227 151.578 101.709 149.79C101.657 149.925 101.613 150.063 101.56 150.198C98.5054 158.14 92.4363 164.326 87.4036 168.519V168.519ZM66.7071 105.515C50.1731 106.214 57.0778 113.495 68.682 108.824C68.5839 108.848 68.4957 108.87 68.4143 108.889C68.8085 108.829 69.2047 108.78 69.6013 108.739C63.7705 168.669 61.3803 164.277 65.2968 168.997C74.8496 178.636 73.0833 161.822 74.4867 156.437C76.2888 140.806 77.7792 125.513 79.5723 109.913C79.8521 109.991 80.0466 110.045 79.9665 110.018C86.3919 111.6 100.361 119.667 103.76 134.36C104.919 146.711 102.827 144.617 98.7572 145.855C88.6248 148.985 76.8717 155.944 75.9182 164.885C74.8467 170.966 77.6877 176.851 85.6894 176.858C89.5221 176.485 96.5159 172.442 101.359 168.565C110.721 160.826 117.348 147.203 115.704 135.855C112.092 114.723 84.5602 104.858 66.7071 105.515V105.515Z" fill="white"/>
<path fill-rule="evenodd" clip-rule="evenodd" d="M183.954 97.9578C184.384 105.723 179.803 113.328 177.885 120.828C178.355 114.836 179.088 108.81 180.621 103.004C181.188 101.46 182.979 93.4791 183.954 97.9578V97.9578ZM188.32 97.5352C185.607 89.4134 176.095 92.0101 174.445 99.1956C166.046 123.795 175.096 149.259 161.678 161.854C153.798 158.733 156.509 143.888 163.36 140.803C164.542 140.703 164.64 142.839 165.284 143.089C172.19 144.402 167.971 138.606 164.594 138.177C153.286 135.594 145.232 147.523 148.124 157.319C152.817 170.076 166.668 166.195 170.508 155.439C171.658 164.695 173.542 193.038 186.77 185.308C177.273 171.633 177.217 149.341 179.038 129.441C179.063 129.129 179.075 128.97 179.083 128.87C178.914 129.425 181.287 120.957 182.411 118.125C184.782 111.525 188.89 104.743 188.32 97.5352V97.5352Z" fill="white"/>
<path fill-rule="evenodd" clip-rule="evenodd" d="M66.4285 162.993C66.6864 153.016 67.3067 142.871 69.7775 133.16C70.5394 142.626 69.8422 154.064 66.4285 162.993Z" fill="#ABDCFF"/>
<path fill-rule="evenodd" clip-rule="evenodd" d="M94.8955 169.127C104.507 163.259 111.267 149.013 113.037 138.178C114.2 149.108 105.981 165.935 94.8955 169.127Z" fill="#ABDCFF"/>
<path fill-rule="evenodd" clip-rule="evenodd" d="M122.805 160.205C117.06 159.725 120.493 147.802 122.805 145.148C122.423 148.167 119.826 158.049 122.805 160.205Z" fill="#ABDCFF"/>
<path fill-rule="evenodd" clip-rule="evenodd" d="M142.621 162.993C137.358 160.721 138.145 152.287 139.551 147.937C141.002 152.8 139.795 158.561 142.621 162.993Z" fill="#ABDCFF"/>
<path fill-rule="evenodd" clip-rule="evenodd" d="M156.576 161.878C149.318 161.327 149.102 151.925 151.831 147.1C152.037 152.679 151.519 158.279 156.576 161.878Z" fill="#ABDCFF"/>
<path fill-rule="evenodd" clip-rule="evenodd" d="M179.741 177.77C173.676 170.325 173.637 156.702 174.717 147.658C176.844 157.505 176.242 168.26 179.741 177.77Z" fill="#ABDCFF"/>
<path fill-rule="evenodd" clip-rule="evenodd" d="M35.9979 85.7996C38.07 85.7996 38.7245 82.3438 36.3497 82.3438C34.2768 82.3438 33.6231 85.7996 35.9979 85.7996Z" fill="white"/>
<path fill-rule="evenodd" clip-rule="evenodd" d="M74.4607 28.0281C76.5333 28.0281 77.1874 24.5723 74.8126 24.5723C72.7401 24.5723 72.086 28.0281 74.4607 28.0281Z" fill="white"/>
<path fill-rule="evenodd" clip-rule="evenodd" d="M125.028 35.2825C127.1 35.2825 127.754 31.8271 125.38 31.8271C123.307 31.8271 122.653 35.2825 125.028 35.2825Z" fill="white"/>
<path fill-rule="evenodd" clip-rule="evenodd" d="M187.43 34.4768C189.502 34.4768 190.156 31.021 187.781 31.021C185.708 31.021 185.055 34.4768 187.43 34.4768Z" fill="white"/>
<path fill-rule="evenodd" clip-rule="evenodd" d="M216.747 77.4695C218.82 77.4695 219.474 74.0137 217.099 74.0137C215.026 74.0137 214.373 77.4695 216.747 77.4695Z" fill="white"/>
<path fill-rule="evenodd" clip-rule="evenodd" d="M215.402 145.989C217.475 145.989 218.129 142.533 215.754 142.533C213.682 142.533 213.027 145.989 215.402 145.989Z" fill="white"/>
<path fill-rule="evenodd" clip-rule="evenodd" d="M188.774 182.802C190.847 182.802 191.501 179.346 189.126 179.346C187.053 179.346 186.399 182.802 188.774 182.802Z" fill="white"/>
<path fill-rule="evenodd" clip-rule="evenodd" d="M131.483 179.04C133.555 179.04 134.21 175.584 131.835 175.584C129.762 175.584 129.108 179.04 131.483 179.04Z" fill="white"/>
<path fill-rule="evenodd" clip-rule="evenodd" d="M47.2947 160.768C49.3669 160.768 50.0214 157.312 47.6466 157.312C45.5737 157.312 44.92 160.768 47.2947 160.768Z" fill="white"/>
<path fill-rule="evenodd" clip-rule="evenodd" d="M65.8536 143.571C67.9261 143.571 68.5802 140.115 66.2054 140.115C64.1329 140.115 63.4788 143.571 65.8536 143.571Z" fill="white"/>
<path fill-rule="evenodd" clip-rule="evenodd" d="M17.4382 120.462C18.6101 120.411 19.7446 119.042 19.2752 117.465C17.7652 114.173 13.453 119.709 17.4382 120.462Z" fill="white"/>
<path fill-rule="evenodd" clip-rule="evenodd" d="M30.8873 62.9597C32.9598 62.9597 33.6139 59.5039 31.2391 59.5039C29.1666 59.5039 28.5125 62.9597 30.8873 62.9597Z" fill="white"/>
<path fill-rule="evenodd" clip-rule="evenodd" d="M16.3627 150.02C18.4353 150.02 19.0894 146.564 16.7146 146.564C14.642 146.564 13.9879 150.02 16.3627 150.02Z" fill="white"/>
<path fill-rule="evenodd" clip-rule="evenodd" d="M237.996 111.864C240.069 111.864 240.723 108.408 238.348 108.408C236.275 108.408 235.621 111.864 237.996 111.864Z" fill="white"/>
<path fill-rule="evenodd" clip-rule="evenodd" d="M113.806 172.925C114.99 172.925 115.364 170.951 114.007 170.951C112.823 170.951 112.449 172.925 113.806 172.925Z" fill="white"/>
<path fill-rule="evenodd" clip-rule="evenodd" d="M153.614 193.078C154.798 193.078 155.172 191.104 153.815 191.104C152.631 191.104 152.257 193.078 153.614 193.078Z" fill="white"/>
<path fill-rule="evenodd" clip-rule="evenodd" d="M203.912 149.279C205.096 149.279 205.47 147.305 204.113 147.305C202.929 147.305 202.555 149.279 203.912 149.279Z" fill="white"/>
<path fill-rule="evenodd" clip-rule="evenodd" d="M230.809 115.96C231.994 115.96 232.367 113.985 231.01 113.985C229.826 113.985 229.452 115.96 230.809 115.96Z" fill="white"/>
<path fill-rule="evenodd" clip-rule="evenodd" d="M189.925 83.1777C191.11 83.1777 191.484 81.2031 190.127 81.2031C188.942 81.2031 188.568 83.1777 189.925 83.1777Z" fill="white"/>
<path fill-rule="evenodd" clip-rule="evenodd" d="M193.96 79.1469C195.144 79.1469 195.518 77.1724 194.161 77.1724C192.977 77.1724 192.603 79.1469 193.96 79.1469Z" fill="white"/>
<path fill-rule="evenodd" clip-rule="evenodd" d="M148.773 35.8857C149.957 35.8857 150.331 33.9111 148.974 33.9111C147.789 33.9111 147.416 35.8857 148.773 35.8857Z" fill="white"/>
<path fill-rule="evenodd" clip-rule="evenodd" d="M97.9367 38.3042C99.1213 38.3042 99.4951 36.3296 98.1381 36.3296C96.9535 36.3296 96.5797 38.3042 97.9367 38.3042Z" fill="white"/>
<path fill-rule="evenodd" clip-rule="evenodd" d="M83.9501 19.226C85.1347 19.226 85.5085 17.2515 84.1515 17.2515C82.967 17.2515 82.5931 19.226 83.9501 19.226Z" fill="white"/>
<path fill-rule="evenodd" clip-rule="evenodd" d="M53.8253 38.0356C55.0094 38.0356 55.3833 36.061 54.0262 36.061C52.8421 36.061 52.4683 38.0356 53.8253 38.0356Z" fill="white"/>
<path fill-rule="evenodd" clip-rule="evenodd" d="M23.9691 71.8921C25.1537 71.8921 25.5275 69.9175 24.1705 69.9175C22.986 69.9175 22.6125 71.8921 23.9691 71.8921Z" fill="white"/>
<path fill-rule="evenodd" clip-rule="evenodd" d="M43.6042 74.8481C44.7887 74.8481 45.1626 72.8735 43.8056 72.8735C42.621 72.8735 42.2472 74.8481 43.6042 74.8481Z" fill="white"/>
<path fill-rule="evenodd" clip-rule="evenodd" d="M22.3556 105.211C23.5397 105.211 23.9135 103.237 22.5565 103.237C21.3724 103.237 20.9986 105.211 22.3556 105.211Z" fill="white"/>
<path fill-rule="evenodd" clip-rule="evenodd" d="M33.3835 133.426C34.5677 133.426 34.9415 131.451 33.5845 131.451C32.4003 131.451 32.0265 133.426 33.3835 133.426Z" fill="white"/>
<path fill-rule="evenodd" clip-rule="evenodd" d="M21.8177 167.282C23.0019 167.282 23.3757 165.308 22.0187 165.308C20.8345 165.308 20.4607 167.282 21.8177 167.282Z" fill="white"/>
<path fill-rule="evenodd" clip-rule="evenodd" d="M64.0461 165.133C65.2306 165.133 65.6045 163.158 64.2474 163.158C63.0629 163.158 62.6891 165.133 64.0461 165.133Z" fill="white"/>
<path fill-rule="evenodd" clip-rule="evenodd" d="M72.3842 189.585C73.5688 189.585 73.9426 187.61 72.5856 187.61C71.401 187.61 71.0272 189.585 72.3842 189.585Z" fill="white"/>
<path fill-rule="evenodd" clip-rule="evenodd" d="M100.358 203.826C101.542 203.826 101.915 201.852 100.558 201.852C99.3743 201.852 99.0005 203.826 100.358 203.826Z" fill="white"/>
<path fill-rule="evenodd" clip-rule="evenodd" d="M125.372 195.765C126.556 195.765 126.93 193.791 125.573 193.791C124.389 193.791 124.015 195.765 125.372 195.765Z" fill="white"/>
<path fill-rule="evenodd" clip-rule="evenodd" d="M157.424 116.257C159.984 116.257 159.783 112.833 157.245 112.833C154.685 112.833 154.885 116.257 157.424 116.257Z" fill="white"/>
<path fill-rule="evenodd" clip-rule="evenodd" d="M119.944 14.1886C122.504 14.1886 122.303 10.7637 119.764 10.7637C117.205 10.7637 117.406 14.1886 119.944 14.1886V14.1886Z" fill="white"/>
<path fill-rule="evenodd" clip-rule="evenodd" d="M41.3906 135.492C43.9501 135.492 43.75 132.067 41.2112 132.067C38.6518 132.067 38.8519 135.492 41.3906 135.492Z" fill="white"/>
<path fill-rule="evenodd" clip-rule="evenodd" d="M169.969 108.435C171.569 108.435 171.444 106.294 169.857 106.294C168.257 106.294 168.383 108.435 169.969 108.435Z" fill="white"/>
<path fill-rule="evenodd" clip-rule="evenodd" d="M210.273 104.845C211.873 104.845 211.747 102.704 210.161 102.704C208.561 102.704 208.686 104.845 210.273 104.845Z" fill="white"/>
<path fill-rule="evenodd" clip-rule="evenodd" d="M178.441 124.592C180.04 124.592 179.915 122.451 178.329 122.451C176.729 122.451 176.854 124.592 178.441 124.592Z" fill="white"/>
</svg>
