<svg width="109" height="291" viewBox="0 0 109 291" fill="none" xmlns="http://www.w3.org/2000/svg">
<path fill-rule="evenodd" clip-rule="evenodd" d="M21.4559 270.404C20.0259 275.269 15.7479 280.759 10.1879 280.696C10.3429 276.977 9.99991 273.174 9.99991 269.532V253.609C9.99991 244.001 10.0789 234.394 10.0169 224.787C14.0749 224.97 17.8819 227.012 19.9399 230.846C22.9949 236.536 22.6069 243.953 22.7089 250.207C22.8169 256.872 23.3589 263.934 21.4559 270.404ZM31.9379 250.207C31.7959 241.318 31.9139 231.174 26.3129 223.73C21.2119 216.952 12.0209 213.911 3.87891 216.306C0.893914 217.184 0.0899134 220.305 1.05891 222.627C0.980913 232.954 0.999913 243.281 0.999913 253.609V269.532C0.999913 274.878 0.397913 280.588 1.41691 285.846C1.83191 287.991 3.83791 289.01 5.79891 288.924C6.09191 289.051 6.40591 289.155 6.76191 289.232C15.1659 291.059 23.3619 286.447 27.6529 279.198C32.7489 270.588 32.0899 259.825 31.9379 250.207Z" fill="black"/>
<path fill-rule="evenodd" clip-rule="evenodd" d="M54.1728 269.101C52.4738 269.056 50.7558 268.924 49.0688 269.06C49.7748 263.811 50.5318 258.567 51.3428 253.333C52.0848 248.539 52.8808 243.753 53.7088 238.973C55.9018 248.978 57.5318 259.103 58.9578 269.26C57.3678 269.171 55.7758 269.143 54.1728 269.101V269.101ZM70.2148 284.533C67.2868 261.685 64.3238 238.738 57.3718 216.696C56.0928 212.642 49.4058 211.983 48.4768 216.696C46.1918 228.297 44.1328 239.94 42.3328 251.626C41.4658 257.255 40.6608 262.893 39.9048 268.538C39.1398 274.25 37.5178 280.775 38.1188 286.513C38.6028 291.132 44.7298 292.267 46.3258 287.623C47.3828 284.545 47.8118 281.093 48.1398 277.658C49.7388 277.982 51.3498 278.066 53.1048 278.146C55.4488 278.253 57.8478 278.509 60.2008 278.431C60.4668 280.465 60.7298 282.499 60.9908 284.533C61.7348 290.34 70.9688 290.414 70.2148 284.533V284.533Z" fill="black"/>
<path fill-rule="evenodd" clip-rule="evenodd" d="M97.1669 270.311C95.4349 275.093 92.2729 277.806 87.9259 279.085C87.8629 276.621 87.6279 274.182 87.6179 272.224C87.5889 266.414 87.5599 260.603 87.5319 254.792C87.4829 244.906 87.4339 235.019 87.3849 225.132C97.1589 228.454 98.6979 244.509 99.0019 253.253C99.1979 258.928 99.1249 264.905 97.1669 270.311V270.311ZM108.226 253.253C107.696 237.978 102.708 214.233 82.7479 215.316C80.2669 215.451 78.1229 217.32 78.1358 219.928C78.1929 231.549 78.2499 243.171 78.3079 254.792C78.3349 260.35 78.3629 265.909 78.3899 271.466C78.4049 274.499 78.4559 277.53 78.5069 280.561C78.5549 283.397 78.3459 286.026 80.1249 288.35C81.2659 289.84 82.8589 290.301 84.2789 289.731C85.2879 289.967 86.3339 289.97 87.5999 289.664C88.9989 289.326 90.1919 288.743 91.2669 287.943C96.6299 286.307 101.372 282.232 104.015 277.456C108.03 270.198 108.507 261.362 108.226 253.253V253.253Z" fill="black"/>
<path fill-rule="evenodd" clip-rule="evenodd" d="M78.5139 93.0541C76.6159 92.9311 74.7179 92.8361 72.8189 92.7601C72.7439 92.3381 72.5029 91.9341 72.0399 91.6401C62.4399 85.5261 53.5159 78.7351 44.6619 71.6001C44.8409 68.1921 44.8849 64.7651 44.8909 61.3511C50.8579 67.2701 57.2009 72.9481 63.7219 78.1711C64.0409 78.4261 64.3849 78.5511 64.7239 78.5801C64.7229 79.1581 64.7109 79.7361 64.7179 80.3131C64.7229 80.7351 64.9429 81.0441 65.2359 81.2421C65.1549 81.8341 65.2719 82.4691 65.7569 82.8551C67.4449 84.1991 69.7659 84.3691 72.0809 84.3331C73.9219 85.6931 75.8229 86.9721 77.8389 88.0581C78.1999 88.2531 78.5489 88.2441 78.8439 88.1191C78.8659 88.4761 78.8859 88.8261 78.9129 89.1521C79.0209 90.4781 79.0639 91.8251 79.0879 93.1671C78.9099 93.1111 78.7229 93.0671 78.5139 93.0541V93.0541ZM55.1059 92.5651C54.4309 91.6371 53.5769 91.2051 52.5439 90.5101C51.0219 89.4861 49.5709 88.3731 48.1729 87.1861C46.4909 85.7571 44.8639 84.2421 43.3339 82.6411C43.4389 82.5121 43.5259 82.3571 43.5629 82.1411C44.0089 79.5071 44.3009 76.8341 44.5009 74.1441C51.2439 81.1411 58.9819 87.2881 67.1339 92.5971C63.1249 92.5211 59.1159 92.5211 55.1059 92.5651V92.5651ZM43.7329 92.7681C43.7159 92.4141 43.5409 92.0641 43.1359 91.8221C39.0199 89.3581 35.1399 86.7371 31.5949 83.5101C31.5729 83.3071 31.5559 83.1041 31.5289 82.9011C34.6699 83.3231 38.3999 83.8841 41.5159 83.3921C43.0469 85.5231 44.7019 87.5361 46.6389 89.3551C47.6669 90.3191 48.9089 91.5871 50.2609 92.6351C48.0849 92.6741 45.9089 92.7191 43.7329 92.7681ZM31.5649 93.0271C31.6929 90.7481 31.8259 88.4611 31.7679 86.1861C34.2249 88.7121 36.9549 91.0061 39.9519 92.8541C37.1559 92.9181 34.3609 92.9801 31.5649 93.0271V93.0271ZM30.9579 8.46714C31.0149 8.18014 31.0819 7.89514 31.1679 7.61214C31.8689 5.33014 35.0209 4.68414 38.4189 4.57114C45.5689 14.3261 55.7769 23.8321 65.7659 30.4361C65.8459 33.6261 65.9629 36.8181 66.0469 40.0101C61.2029 34.6401 54.6799 30.1381 49.4319 25.3301C47.5739 23.6281 45.7199 21.9221 43.8659 20.2161C43.6549 19.7651 43.2989 19.4491 42.8909 19.2881C42.7319 19.0121 42.4949 18.7861 42.1739 18.6611C38.4549 15.2411 34.7259 11.8321 30.9579 8.46714ZM35.7839 18.8851C34.1639 19.0221 32.6559 19.2091 31.1099 19.5081C31.5609 16.6361 30.7399 13.5721 30.7549 10.6371C33.2069 13.3361 35.7079 15.9891 38.2679 18.5851C37.4369 18.6881 36.6059 18.8161 35.7839 18.8851V18.8851ZM46.5649 4.77114C47.8239 4.75514 49.0819 4.75514 50.3379 4.76314C55.1889 10.1591 60.6059 15.1901 65.9319 20.1161C65.8069 20.3361 65.7169 20.5801 65.7109 20.8641C65.6709 22.8031 65.6779 24.7431 65.7009 26.6841C61.3369 23.1391 56.8149 19.8041 52.6089 16.0471C48.5009 12.3781 44.7339 8.36514 40.7659 4.56214C43.0289 4.61314 45.1809 4.78814 46.5649 4.77114V4.77114ZM55.1209 42.7821C51.7059 39.9141 48.4129 36.8601 44.9389 34.0581C44.8779 30.9141 44.7359 27.7821 44.4609 24.6851C45.4149 25.6031 46.3649 26.5261 47.3279 27.4341C53.1109 32.8811 59.1839 40.0591 66.1249 43.9731C66.1549 46.1891 66.1589 48.4051 66.1029 50.6221C66.0889 51.1901 66.0629 51.7591 66.0429 52.3271C63.1349 48.6271 58.6839 45.7751 55.1209 42.7821V42.7821ZM65.1529 67.4471C65.0049 69.8041 64.8749 72.1601 64.7969 74.5161C58.2339 69.0151 51.5779 63.5811 44.8859 58.2321C44.8799 56.2461 44.8719 54.2651 44.8749 52.3031C44.8769 51.3781 44.8859 50.4461 44.8929 49.5141C51.0309 55.6841 57.6479 61.5511 64.3169 67.0781C64.5829 67.2981 64.8689 67.4101 65.1529 67.4471ZM44.9219 46.4431C44.9559 43.4371 44.9909 40.4071 44.9769 37.3791C47.7109 40.2231 50.6579 42.9081 53.4939 45.6041C56.8849 48.8271 60.5189 53.1031 64.7809 55.1081C65.1429 55.2791 65.5549 55.2751 65.9229 55.1521C65.7769 58.0521 65.5819 60.9541 65.3869 63.8561C58.6419 57.9871 51.8479 52.0921 44.9219 46.4431V46.4431ZM63.6329 5.18714C67.4599 9.46614 71.3159 14.1071 75.6199 17.9231C73.3879 18.0101 71.1549 18.1261 68.9379 18.3391C63.9069 13.7421 58.7779 9.05014 53.3979 4.81014C56.8139 4.88014 60.2239 5.02414 63.6329 5.18714V5.18714ZM77.9959 15.2501C74.7839 11.7281 71.0229 8.51414 67.3739 5.36714C70.9699 5.55214 74.5679 5.74614 78.1739 5.90114C78.0979 9.01614 78.0269 12.1331 77.9959 15.2501ZM76.4399 84.2681C77.9009 84.3441 77.7479 84.0321 78.3569 85.4321L78.4329 85.6751C77.5219 85.2031 76.6139 84.7281 75.7089 84.2481C75.9579 84.2501 76.2029 84.2551 76.4399 84.2681V84.2681ZM82.1329 88.0991C82.0549 86.3211 82.0679 83.8371 81.1419 82.2631C80.3539 80.9231 79.0459 80.5851 77.5869 80.4331C76.0649 80.2751 74.5289 80.2421 73.0019 80.1721C72.5129 80.1491 68.7069 80.3271 68.5379 80.0851C68.2639 79.6921 67.8129 79.4231 67.3389 79.3211C69.3499 69.9821 69.5719 60.1191 69.8259 50.6221C70.0839 40.9821 70.4469 30.9581 69.2509 21.3561C72.8169 21.6611 76.4219 21.7611 79.9949 21.8191C81.1079 21.8381 81.9879 20.8781 82.0169 19.7981C82.1439 14.9741 82.0479 10.1451 82.0089 5.32014C82.0029 4.69414 81.7569 4.23014 81.3919 3.92214C81.4019 3.11614 80.9809 2.34714 80.0249 2.20814C65.8779 0.155137 51.1109 0.197137 36.8649 1.04814C33.3549 1.25814 28.7039 0.358137 27.6029 4.44314C26.4039 8.89114 26.3919 17.4961 29.2929 21.2931C29.5609 21.6431 29.9779 21.7361 30.3029 21.5761C33.2509 22.6951 37.3509 23.2671 40.5569 22.3271C40.2489 31.9371 41.1279 41.7021 41.1599 51.3181C41.1659 53.0601 41.1409 54.8111 41.1079 56.5641C40.9419 56.8131 40.9109 57.1271 41.0909 57.4381C40.9309 65.0151 40.5779 72.6661 41.1049 80.1821C40.8359 79.9231 40.4659 79.9651 40.1969 80.1661C39.0369 80.0141 37.8379 79.9951 36.6979 79.9251C34.8149 79.8091 32.9359 79.7031 31.0489 79.7191C30.1059 79.7271 29.6269 80.3251 29.5629 80.9951C29.3689 81.1321 29.2119 81.3201 29.1339 81.5571C27.7139 85.8591 27.7429 90.5221 27.5649 95.0131C27.5239 96.0571 28.4909 96.9731 29.5129 96.9611C45.8149 96.7781 62.2379 96.3391 78.5139 97.4131C79.4849 97.4771 80.1099 96.9911 80.4059 96.3251C80.6749 96.2321 80.9159 96.0381 81.0299 95.7121C81.9159 93.1821 82.2509 90.7861 82.1329 88.0991V88.0991Z" fill="black"/>
<path fill-rule="evenodd" clip-rule="evenodd" d="M100.29 141.434C99.2268 153.893 91.9478 164.426 83.8808 173.515C75.6898 182.745 66.9468 191.519 58.4508 200.468C58.2748 200.654 58.1538 200.85 58.0578 201.048C54.4978 198.642 50.0318 196.98 46.5058 194.727C41.3168 191.411 36.4648 187.644 32.0118 183.39C23.2868 175.055 16.1258 164.802 11.7638 153.521C6.75482 140.57 6.23982 124.744 19.4448 116.592C24.6448 113.382 31.0958 112.363 37.0028 113.974C43.9178 115.86 47.9938 120.335 52.1098 125.866C53.1538 127.268 55.5108 127.011 56.1128 125.65C56.5018 125.631 56.8768 125.448 57.1028 125.043C62.3938 115.556 73.8748 110.404 84.3058 114.367C95.2598 118.53 101.259 130.086 100.29 141.434V141.434ZM103.724 130.241C100.783 119.66 91.7618 110.717 80.7198 109.123C70.3708 107.629 59.6818 112.957 55.4008 122.466C50.2528 111.462 35.5108 106.092 24.2328 109.447C10.0178 113.677 2.66782 127.528 4.34282 141.792C6.07082 156.512 14.5318 170.612 24.3008 181.454C29.1558 186.842 34.6748 191.619 40.7028 195.653C45.7848 199.054 53.4608 204.214 59.8078 204.146L59.8508 204.139C60.3988 204.2 60.9798 204.029 61.4838 203.501C72.4728 191.988 84.5658 180.885 94.0148 168.034C101.84 157.392 107.42 143.536 103.724 130.241V130.241Z" fill="black"/>
<path fill-rule="evenodd" clip-rule="evenodd" d="M31.9898 161.356C30.1578 161.488 28.3128 161.392 26.4768 161.297C27.2168 152.168 28.1518 142.895 26.7088 133.82C26.6048 133.165 25.5128 133.177 25.3978 133.82C23.7428 143.085 23.9778 152.607 23.3028 161.99C23.2238 163.08 24.1048 163.567 24.9508 163.47C27.2198 164.498 29.5118 164.779 31.9898 164.637C34.0948 164.516 34.0938 161.204 31.9898 161.356" fill="black"/>
<path fill-rule="evenodd" clip-rule="evenodd" d="M49.2758 152.31C49.1998 154.339 49.1678 156.527 48.6818 158.494C47.8238 161.962 45.6298 161.686 43.0648 160.827C40.6398 157.89 40.2108 154.464 40.0948 150.364C40.0068 147.267 39.7208 134.809 46.1868 137.224C50.1758 138.714 49.3928 149.172 49.2758 152.31V152.31ZM46.3738 133.558C38.8978 131.409 36.8738 141.796 36.7408 146.955C36.6258 151.433 36.5258 161.491 41.8568 163.273C48.7208 167.901 52.0368 161.295 52.6258 154.977C53.1888 148.949 54.2308 135.817 46.3738 133.558Z" fill="black"/>
<path fill-rule="evenodd" clip-rule="evenodd" d="M69.0488 135.497C67.7238 142.775 66.5538 150.047 64.5158 157.128C62.9088 149.967 61.5848 142.698 59.4158 135.729C59.0438 134.533 57.1608 134.712 57.1828 136.031C57.3448 145.503 60.0208 155.082 62.5188 164.16C63.0268 166.004 65.3568 165.711 65.9778 164.16C69.5988 155.128 71.3298 145.588 72.5938 135.976C72.8568 133.975 69.4118 133.5 69.0488 135.497" fill="black"/>
<path fill-rule="evenodd" clip-rule="evenodd" d="M84.028 136.276C82.282 135.884 80.434 136.296 78.737 136.91C78.57 136.052 77.213 135.732 77.012 136.757C75.263 145.665 75.063 154.949 74.708 164.001C74.692 164.403 74.791 164.731 74.957 164.992C74.93 165.625 75.203 166.332 75.732 166.742C76.563 167.385 77.841 167.374 78.846 167.404C80.099 167.442 81.333 167.396 82.573 167.214C84.712 166.902 84.193 163.381 82.065 163.46C80.913 163.502 79.767 163.637 78.615 163.683C78.515 163.687 78.414 163.692 78.313 163.696C78.455 161.432 78.606 159.155 78.74 156.871L80.087 157.026C81.385 157.175 82.297 157.323 83.144 156.174C83.398 155.83 83.398 155.17 83.144 154.826C82.296 153.676 81.395 153.824 80.087 153.974L78.89 154.111C79.136 149.216 79.246 144.304 78.946 139.445C80.491 139.527 82.03 139.834 83.554 139.776C84.28 139.749 85.132 139.247 85.273 138.468C85.301 138.312 85.324 138.152 85.336 137.994C85.392 137.253 84.746 136.437 84.028 136.276" fill="black"/>
</svg>
