<svg width="177" height="134" viewBox="0 0 177 134" fill="none" xmlns="http://www.w3.org/2000/svg">
<g clip-path="url(#clip0_1_5611)">
<path fill-rule="evenodd" clip-rule="evenodd" d="M47.6779 117.14C47.9649 120.367 19.8119 126.399 15.2149 133.712C15.2149 133.712 18.6339 120.463 22.1099 116.394C22.1099 116.394 10.4269 112.579 7.55493 113.374C7.55493 113.374 21.6789 98.9273 40.6389 94.1523L47.5329 113.831L47.6779 117.14Z" fill="#418DD2"/>
<path fill-rule="evenodd" clip-rule="evenodd" d="M47.6779 117.14C47.9649 120.367 19.8119 126.399 15.2149 133.712C15.2149 133.712 18.6339 120.463 22.1099 116.394C22.1099 116.394 10.4269 112.579 7.55493 113.374C7.55493 113.374 21.6789 98.9273 40.6389 94.1523L47.5329 113.831L47.6779 117.14Z" stroke="#124A83" stroke-width="2" stroke-linecap="round" stroke-linejoin="round"/>
<path fill-rule="evenodd" clip-rule="evenodd" d="M141.139 117.015C140.852 120.242 169.005 126.273 173.602 133.587C173.602 133.587 170.183 120.338 166.707 116.268C166.707 116.268 178.389 112.454 181.262 113.248C181.262 113.248 167.138 98.8023 148.178 94.0273L141.283 113.705L141.139 117.015Z" fill="#418DD2"/>
<path fill-rule="evenodd" clip-rule="evenodd" d="M141.139 117.015C140.852 120.242 169.005 126.273 173.602 133.587C173.602 133.587 170.183 120.338 166.707 116.268C166.707 116.268 178.389 112.454 181.262 113.248C181.262 113.248 167.138 98.8023 148.178 94.0273L141.283 113.705L141.139 117.015Z" stroke="#124A83" stroke-width="2" stroke-linecap="round" stroke-linejoin="round"/>
<path fill-rule="evenodd" clip-rule="evenodd" d="M30.0579 117.141C38.7719 118.302 46.9119 113.491 47.6779 117.141C47.4209 94.6576 39.4459 104.027 28.5259 112.104L30.0579 117.141Z" fill="#136C99"/>
<path fill-rule="evenodd" clip-rule="evenodd" d="M30.0579 117.141C38.7719 118.302 46.9119 113.491 47.6779 117.141C47.4209 94.6576 39.4459 104.027 28.5259 112.104L30.0579 117.141Z" stroke="#124A83" stroke-width="2" stroke-linecap="round" stroke-linejoin="round"/>
<path fill-rule="evenodd" clip-rule="evenodd" d="M158.757 117.14C150.042 118.301 141.903 113.49 141.137 117.14C141.394 94.6556 149.369 104.026 160.288 112.103L158.757 117.14Z" fill="#136C99"/>
<path fill-rule="evenodd" clip-rule="evenodd" d="M158.757 117.14C150.042 118.301 141.903 113.49 141.137 117.14C141.394 94.6556 149.369 104.026 160.288 112.103L158.757 117.14Z" stroke="#124A83" stroke-width="2" stroke-linecap="round" stroke-linejoin="round"/>
<path fill-rule="evenodd" clip-rule="evenodd" d="M84.3665 121.321C84.2175 120.269 83.3235 119.342 81.6865 118.541C81.5705 121.33 81.5375 124.285 81.5875 127.406C83.2405 125.62 84.6945 123.592 84.3665 121.321V121.321ZM86.1705 124.001C86.0035 124.384 85.8445 124.768 85.6945 125.152C85.4935 125.603 85.2765 125.963 85.0435 126.229C84.3845 126.928 83.6455 128.336 81.8125 129.76C81.6365 129.999 80.5105 131.47 79.5335 130.135C79.2605 126.988 79.8975 121.539 79.5335 117.59C79.5165 117.573 79.3335 117.381 78.9825 117.013C78.9585 116.836 78.0955 116.197 79.2585 115.811C79.4745 115.778 79.6915 115.753 79.9095 115.736C82.4695 116.326 87.8645 119.7 86.1705 124.001Z" fill="#124A83"/>
<path fill-rule="evenodd" clip-rule="evenodd" d="M94.3079 123.55C94.2579 122.933 94.1499 122.239 93.9829 121.472C93.8159 120.804 93.6579 120.136 93.5069 119.468C93.0059 120.854 92.5719 122.239 92.2039 123.625C92.4719 123.575 93.1729 123.55 94.3079 123.55V123.55ZM97.9639 128.333C98.0579 128.677 98.4549 129.587 97.1139 130.262C95.5079 129.942 95.4709 127.077 94.7339 125.103C94.1659 125.153 93.5989 125.203 93.0319 125.253C92.3799 125.337 91.8699 125.537 91.5029 125.854C91.1869 126.662 90.6039 129.741 89.9509 131.389C89.8169 131.689 89.5339 131.773 89.0999 131.639C88.5479 131.455 88.2559 131.204 88.2229 130.888C88.1729 130.253 88.3569 129.402 88.7739 128.333C90.2999 126.729 88.0779 124.781 90.0259 124.051C91.2049 122.984 91.2429 114.283 94.1829 114.736C94.6509 115.136 94.9509 115.737 95.0839 116.538C95.1849 117.223 95.2769 117.907 95.3599 118.592C96.1949 122.532 97.0629 125.779 97.9639 128.333Z" fill="#124A83"/>
<path fill-rule="evenodd" clip-rule="evenodd" d="M108.257 114.71C107.642 118.318 103.201 126.769 102.723 130.361C102.63 131.112 103.136 131.902 101.796 132.29C101.685 132.19 100.928 132.468 100.418 131.288C100.469 130.069 100.778 128.676 101.345 127.106C101.862 125.771 102.38 124.435 102.898 123.1C101.712 119.928 100.702 117.606 99.867 116.138C99.685 115.636 100.159 114.775 101.671 115.411C102.561 116.878 102.862 117.591 104.1 120.42C104.639 118.933 105.221 116.597 106.379 114.585C106.432 114.393 107.434 113.951 108.257 114.71" fill="#124A83"/>
<path fill-rule="evenodd" clip-rule="evenodd" d="M20.1536 90.6853C20.1536 86.8873 58.9456 74.3433 92.8756 74.3433C126.806 74.3433 166.802 86.2513 168.663 90.6853C172.084 98.8343 163.067 113.163 158.759 117.14C159.524 111.467 129.245 102.988 92.8776 102.988C56.5106 102.988 29.6746 113.49 30.0576 117.14C30.0576 117.14 20.1536 110.645 20.1536 90.6853" fill="#E05977"/>
<path fill-rule="evenodd" clip-rule="evenodd" d="M20.1536 90.6853C20.1536 86.8873 58.9456 74.3433 92.8756 74.3433C126.806 74.3433 166.802 86.2513 168.663 90.6853C172.084 98.8343 163.067 113.163 158.759 117.14C159.524 111.467 129.245 102.988 92.8776 102.988C56.5106 102.988 29.6746 113.49 30.0576 117.14C30.0576 117.14 20.1536 110.645 20.1536 90.6853V90.6853Z" stroke="#124A83" stroke-width="2" stroke-linecap="round" stroke-linejoin="round"/>
<path fill-rule="evenodd" clip-rule="evenodd" d="M54.0519 85.9111C54.6009 86.8611 54.7599 87.8291 54.5309 88.8171L48.1969 90.4571L48.7349 93.7601L53.9419 92.4861C54.6499 93.3241 54.8159 94.2261 54.4379 95.1931L49.1519 96.6181L50.0399 102.209C48.9169 103.022 47.8509 103.248 46.8409 102.888L44.5969 88.8981C44.6119 88.6291 44.7229 88.4121 44.9329 88.2491L54.0519 85.9111Z" fill="#F6F5EF"/>
<path fill-rule="evenodd" clip-rule="evenodd" d="M64.9124 88.8025L64.1194 93.9065L66.4854 93.2435L64.9124 88.8025ZM65.8674 83.8255L72.0394 97.4385C71.2284 98.1715 70.0814 98.5125 68.5964 98.4605L67.4714 95.9235L63.8764 96.9495L63.3834 99.7605C61.9444 100.187 60.8194 100.15 60.0054 99.6495L62.9314 84.4065C63.8704 83.5915 64.8494 83.3985 65.8674 83.8255V83.8255Z" fill="#F6F5EF"/>
<path fill-rule="evenodd" clip-rule="evenodd" d="M84.8215 81.9258C85.3685 82.9498 85.4315 84.0188 85.0095 85.1308L81.3365 85.4888L81.7685 97.1238C80.7955 97.6408 79.6885 97.7268 78.4495 97.3818L78.1375 85.8878L74.5275 86.2708C73.6855 85.0898 73.5675 84.0358 74.1725 83.1088L84.8215 81.9258Z" fill="#F6F5EF"/>
<path fill-rule="evenodd" clip-rule="evenodd" d="M92.9748 81.958L92.7328 87.551L97.4808 87.27L97.8158 82.057C98.8378 81.548 99.8258 81.546 100.777 82.052L100.218 96.287C98.9908 96.918 97.9138 96.954 96.9898 96.396L97.2268 90.282L92.5378 90.522L92.2308 96.626C90.7998 97.005 89.7158 96.935 88.9788 96.414L89.7178 82.356C90.6848 81.642 91.7708 81.509 92.9748 81.958" fill="#F6F5EF"/>
<path fill-rule="evenodd" clip-rule="evenodd" d="M114.876 82.4403C115.13 83.5073 115.006 84.4813 114.504 85.3623L107.965 85.1203L107.608 87.6623L112.974 87.9223C113.405 88.9283 113.302 89.8433 112.663 90.6683L107.189 90.5193L106.707 93.5933L113.415 93.8573C113.885 95.0733 113.732 96.1713 112.956 97.1543L103.603 96.8783C103.32 96.8043 103.158 96.5833 103.117 96.2123L104.961 82.5963C105.053 82.3423 105.222 82.1673 105.469 82.0703L114.876 82.4403Z" fill="#F6F5EF"/>
<path fill-rule="evenodd" clip-rule="evenodd" d="M122.705 86.5007L121.645 90.5157C127.139 91.7487 129.68 86.5537 122.705 86.5007ZM121.051 83.4097C130.851 82.3237 133.952 90.5437 125.406 93.2767L128.202 98.3367C127.354 99.5337 126.209 99.7837 124.766 99.0877L122.079 93.5187L120.905 93.4567L119.713 98.0587C118.289 98.3227 117.228 98.0497 116.531 97.2397L119.889 83.9167L121.051 83.4097Z" fill="#F6F5EF"/>
<path fill-rule="evenodd" clip-rule="evenodd" d="M137.241 85.6169L135.583 91.0259C134.64 91.3359 133.792 91.1559 133.039 90.4899L134.738 84.9869C135.688 84.9809 136.523 85.1909 137.241 85.6169" fill="#F6F5EF"/>
<path fill-rule="evenodd" clip-rule="evenodd" d="M137.151 99.8946C137.159 98.3206 137.73 97.2646 138.866 96.7276C140.229 98.1736 141.25 99.1166 141.926 99.5566C143.313 99.9476 144.172 99.8226 144.505 99.1826C144.695 98.6486 144.425 97.9996 143.696 97.2396L141.578 95.3206C140.274 94.0516 139.81 92.6636 140.187 91.1546C141.59 86.9746 147.459 87.9526 150.428 91.4716C150.127 92.6966 149.442 93.6396 148.375 94.3006C147.159 92.6826 146.072 91.7756 145.116 91.5806C143.568 91.1366 142.574 92.2796 144.833 94.2686C148.062 96.2376 149.413 101.332 144.558 103.074C143.588 103.402 142.354 103.296 140.859 102.756C139.461 102.148 138.224 101.194 137.151 99.8946" fill="#F6F5EF"/>
<path fill-rule="evenodd" clip-rule="evenodd" d="M62.5949 7.9845C64.2349 11.5295 66.5479 20.9955 68.8599 24.9465C69.0779 25.3575 68.3909 26.0225 67.5479 26.0395C65.2249 25.5385 64.8189 22.1335 63.4329 18.9455C63.3169 19.1885 62.3449 18.9795 60.7739 20.0285C60.9989 21.6065 61.7069 23.7595 62.8969 26.4865C62.1319 27.3205 60.0049 27.7545 59.5479 25.2065C59.4529 23.1215 54.6609 14.9355 55.9539 12.5905C56.1249 12.8225 56.1189 12.2275 57.6869 12.7415C58.6279 13.6785 59.0349 15.5435 59.9849 17.9985C60.2679 18.0575 60.5749 18.0315 60.9069 17.9195C61.1329 17.8565 61.4349 17.7255 61.8119 17.5285C62.3019 17.2565 62.6009 17.0955 62.7049 17.0465C62.8459 15.3375 60.1569 11.0245 60.7499 8.1435C61.6369 7.6225 62.2509 7.5695 62.5949 7.9845" fill="#124A83"/>
<path fill-rule="evenodd" clip-rule="evenodd" d="M79.428 12.9266C79.232 12.2376 78.951 11.4756 78.589 10.6416C78.248 9.92262 77.917 9.19962 77.596 8.47662C77.341 10.1616 77.162 11.8316 77.059 13.4876C77.35 13.3696 78.14 13.1836 79.428 12.9266ZM84.658 17.5266C84.843 17.8956 85.499 18.8396 84.128 19.9056C82.001 19.7796 81.668 16.7466 80.263 14.5916C79.63 14.7766 78.997 14.9616 78.365 15.1476C77.645 15.3896 77.113 15.7316 76.768 16.1746C76.591 17.1626 76.624 20.7866 76.258 22.8046C76.174 23.1756 75.87 23.3336 75.348 23.2806C74.682 23.1976 74.293 22.9786 74.184 22.6266C73.272 21.1666 75.972 16.9096 73.605 15.5646C73.531 15.1536 73.957 15.1806 74.684 14.4626C75.748 12.9146 73.947 2.77062 77.293 2.95362C77.913 3.30262 78.39 3.91662 78.723 4.79562C78.991 5.54962 79.25 6.30562 79.5 7.06362C81.338 11.3446 83.058 14.8316 84.658 17.5266" fill="#124A83"/>
<path fill-rule="evenodd" clip-rule="evenodd" d="M96.4552 6.57608C96.5742 5.80708 96.2642 5.18908 95.5232 4.72308C95.4842 4.72208 94.7982 4.42308 93.4632 3.82408C93.5722 7.38208 93.5672 9.87408 93.4492 11.3011C95.2152 9.72808 96.2162 8.15408 96.4552 6.57608V6.57608ZM98.2732 8.86008C97.5282 10.5391 96.1612 12.2831 94.9292 13.2561C94.3562 13.6841 93.7892 13.9381 93.2262 14.0181C92.6742 15.9091 93.9472 19.3521 92.1382 21.6091C88.4432 18.9471 92.3442 8.39208 91.1102 2.97308C90.9742 3.02508 90.8392 2.80008 90.3502 2.22608C90.4642 1.61208 90.6372 1.30708 90.8692 1.31408C94.0732 1.23908 100.688 3.84308 98.2732 8.86008" fill="#124A83"/>
<path fill-rule="evenodd" clip-rule="evenodd" d="M112.824 9.30854C113.106 8.58254 112.936 7.91254 112.314 7.29754C112.277 7.28754 111.671 6.84754 110.497 5.97354C109.835 9.47154 109.292 11.9045 108.868 13.2715C110.931 12.1185 112.25 10.7965 112.824 9.30854V9.30854ZM114.105 11.9315C113.016 13.4105 111.302 14.8155 109.89 15.4995C109.238 15.7935 108.63 15.9195 108.062 15.8755C107.115 17.6045 107.613 21.2395 105.359 23.0525C102.328 19.6535 108.417 10.1925 108.385 4.63454C108.24 4.65754 108.156 4.40554 107.803 3.74254C108.048 3.16554 108.282 2.90654 108.507 2.96254C111.651 3.58254 117.55 7.55354 114.105 11.9315" fill="#124A83"/>
<path fill-rule="evenodd" clip-rule="evenodd" d="M133.16 12.5633C130.585 16.0213 121.614 22.3763 119.263 25.8183C118.992 26.3953 118.808 26.7563 118.713 26.9033C118.355 27.4803 117.884 27.6203 117.299 27.3233C117.267 27.0933 116.487 27.4263 116.401 25.5693C117.091 24.3373 118.138 23.0613 119.545 21.7393L123.242 18.4173C123.679 14.5243 123.85 11.6013 123.758 9.64827C123.833 9.03527 124.771 8.39727 125.998 9.84227C126.165 11.3213 126.043 13.7483 125.885 16.2813C127.218 15.0273 129.04 12.9223 131.288 11.4523C131.444 11.2823 132.708 11.3503 133.16 12.5633" fill="#124A83"/>
<path d="M113.988 122.927H125.888" stroke="#124A83" stroke-width="2" stroke-linecap="round" stroke-linejoin="round"/>
<path d="M61.506 122.927H71.44" stroke="#124A83" stroke-width="2" stroke-linecap="round" stroke-linejoin="round"/>
<path fill-rule="evenodd" clip-rule="evenodd" d="M87.5393 41.3346C87.1653 43.2846 83.7033 61.1656 83.2723 63.3966C82.7753 63.5086 63.8933 67.6786 63.3603 67.8006C60.8933 67.2576 55.5303 66.0766 53.0403 65.5246L47.6813 43.0526L78.2093 38.7856C80.4993 39.4066 85.1963 40.6876 87.5393 41.3346Z" fill="#418DD2"/>
<path fill-rule="evenodd" clip-rule="evenodd" d="M134.896 41.7216C135.751 45.6576 132.509 60.7556 131.676 64.5806C125.654 66.9066 113.413 67.7966 106.973 66.3446H106.928L98.8148 60.1196L96.6877 39.6396L131.767 41.5506L134.896 41.7216Z" fill="#418DD2"/>
<path fill-rule="evenodd" clip-rule="evenodd" d="M87.5392 41.3348L86.9252 44.5208L63.7132 67.7218L63.3602 67.8008L57.1592 66.4358L83.3972 40.1968L87.5392 41.3348Z" fill="#74BFDF"/>
<path fill-rule="evenodd" clip-rule="evenodd" d="M80.7043 37.8789L80.0903 41.0659L55.1513 65.9919H53.9203L53.4783 65.6219L80.5953 38.4489L80.7043 37.8789Z" fill="#74BFDF"/>
<path fill-rule="evenodd" clip-rule="evenodd" d="M130.4 37.8789L129.786 41.0659L104.847 65.9919H103.616L103.174 65.6219L130.291 38.4489L130.4 37.8789Z" fill="#74BFDF"/>
<path fill-rule="evenodd" clip-rule="evenodd" d="M134.896 41.7218V46.2738L114.176 66.9818C110.979 66.7088 107.417 66.3898 106.973 66.3448L131.767 41.5508L134.896 41.7218Z" fill="#74BFDF"/>
<path fill-rule="evenodd" clip-rule="evenodd" d="M129.772 64.3203C124.039 68.3753 105.028 65.6963 101.953 61.8973C100.23 59.4683 97.1846 44.1333 99.8966 42.3043C102.49 40.1753 129.757 41.8803 132.34 44.4213C134.814 46.4123 132.212 61.6023 129.772 64.3203ZM82.2346 61.8973C79.1596 65.6963 60.1496 68.3733 54.4166 64.3183C51.9756 61.6003 49.3756 46.4103 51.8476 44.4193C54.4316 41.8783 81.6996 40.1743 84.2916 42.3043C87.0026 44.1333 83.9576 59.4683 82.2346 61.8973V61.8973ZM144.278 41.6093C144.124 41.5513 144.001 41.5003 143.841 41.4703C143.991 41.4983 144.139 41.5253 144.289 41.5523C144.289 41.5523 144.07 41.4823 143.655 41.4073C134.956 38.3793 121.448 36.9213 111.198 36.8543C107.44 36.6893 103.935 36.7063 101.05 36.9043C101.05 36.9033 99.5566 37.0593 98.5536 37.1253C98.1656 37.1733 97.8086 37.2233 97.4856 37.2743C93.9926 37.5523 91.0866 37.6023 86.7036 37.2743C86.3786 37.2233 86.0236 37.1733 85.6336 37.1243C84.6316 37.0593 83.1386 36.9033 83.1386 36.9033C80.2526 36.7063 76.7496 36.6883 72.9916 36.8523C62.7416 36.9203 49.2336 38.3773 40.5336 41.4043C40.1186 41.4803 39.8996 41.5493 39.8996 41.5493C40.0486 41.5223 40.1986 41.4953 40.3466 41.4673C40.1876 41.4973 40.0656 41.5493 39.9106 41.6063C35.4766 47.4983 45.7676 47.8333 47.4536 50.8463C48.6296 53.6933 49.1016 61.2833 49.3206 61.4113C49.3176 61.4503 49.9546 68.3123 58.3336 69.1913C104.999 70.7713 78.2336 45.7513 92.7196 42.6673C97.7266 42.2703 95.0866 56.4343 98.5566 62.9303C103.164 69.2743 111.038 68.3113 126.787 69.0753C134.462 67.8583 134.748 61.5573 134.868 61.4133C135.181 61.1743 135.483 53.2173 137.166 50.1633C140.776 47.5573 148.137 46.5453 144.278 41.6093" fill="#124A83"/>
</g>
<defs>
<clipPath id="clip0_1_5611">
<rect width="177" height="134" fill="white"/>
</clipPath>
</defs>
</svg>
