<svg height="192" viewBox="0 0 136 192" width="136" xmlns="http://www.w3.org/2000/svg"><g fill="none" fill-rule="evenodd"><path d="m5.72620486 157.3507c-.626 10.346 5.75900004 19.184 22.31000004 15.441 9.352-2.264 13.021-13.197 21.852-18.94 14.53-5.526 24.326 13.023 6.561 25.739-14.942 14.41-64.12300004 7.387-50.72300004-22.24" fill="#b36500"/><path d="m5.72620486 157.3507c-15.72899996 31.945 52.66000004 42.199 59.93700004 8.558-3.119-33.642-25.466 3.903-40.711 7.679-1.31-.735-19.96100004 3.664-19.22600004-16.237m15.81200004 12.232c12.971 1.364 17.736-14.361 29.573-18.953 18.642-5.329 26.275 19.857 5.799 32.595-17.453 17.179-73.871 2.672-51.90600004-29.742-.538-2.786 17.83100004-2.657 10.80700004 1.652-11.43100004-4.392-7.81900004 15.711 5.727 14.448" fill="#000"/><path d="m129.973305 157.3507c.626 10.346-5.759 19.184-22.31 15.441-9.3530001-2.264-13.0210001-13.197-21.8530001-18.94-14.53-5.526-24.325 13.024-6.56 25.739 14.942 14.41 64.1220001 7.387 50.7230001-22.24" fill="#b36500"/><g fill="#000"><path d="m129.729105 157.7013c1.513 10.008-6.41 18.897-22.065 15.091-9.3540001-2.265-13.0210001-13.197-21.8540001-18.941-14.531-5.526-24.324 13.026-6.56 25.74 14.943 14.41 64.1230001 7.386 50.7230001-22.241-.169.237-.251.303-.244.351m-14.749 11.885c6.542 2.421 18.651-12.886 7.405-14.895-.91.976-6.811.182-3.238-2.079 16.261-8.141 26.698 24.655.314 34.571-47.0270001 22.562-76.7920001-52.644-27.7690001-32.431 4.608 6.538 12.4070001 15.092 23.2880001 14.834"/><path d="m36.1949049 29.7687c.116.054.233.107.35.16 4.38-6.208 11.94-11.666 12.713-21.731-11.267 2.798-15.288.147-13.063 21.571m.114 21.721c2.207.133 20.492-12.367 9.846-18.036-11.432.49-10.46 3.03-9.846 18.036m-.827-41.509c20.832-11.306 20.979.672 5.297 20.735 21.361-2.85 9.771 20.57-5.552 25.721-.608 1.073 1.005.056-.607 5.152-.327-.013-.309-.399-1.803-.426-3.037-4.465-.871-5.815-2.426-19.144-.582-.157-1.217-.175-1.658-.925 1.559-6.531 2.211-13.216 1.728-23.43.69-.547-3.719-18.47 5.021-7.683"/><path d="m93.4196049 20.295c-1.207-.236-2.321 1.671-5.437.638 8.473-5.395 4.484-6.133 9.327-20.933 1.999.507 3.7090001 1.185 2.481 14.866 4.2890001-1.521 12.9160001.346-.194 3.373-.656 8.92-1.727 20.607-.027 31.268 1.6950001-1.816.9630001-1.591 4.3810001-7.559.816-.068 1.512-.13 2.236.166-12.9690001 28.331-12.6050001.497-12.7670001-21.819"/><path d="m73.8971049 14.4161c-.177-7.717 16.899-5.005 11.449 3.38-1.45-.945-1.945-2.488-2.412-4.092-.829.091.077-.335-2.78-.052 1.63 9.42 9.482 18.426 8.387 30.264-2.005 1.551-4.264 3.934-10.439 5.636-10.509-4.22 1.325-22.662-2.621-10.728.448 1.025.898 2.056 1.371 3.136.235-.009.462-.022.695-.032.279.749.505 1.542 1.447 1.952 1.04-.492-.347.05 4.868-1.462.518-2.081-1.342-4.987-2.295-9.273-.315-.119-.536-.203-.813-.305-1.418-5.461-3.849-8.45-6.857-18.424"/><path d="m66.7702049 11.3624c-6.603 3.384-5.585 1.65-6.998 19.251.604 1.261 10.843-7.54 8.59.493-2.468.444-2.469-.014-8.475 3.27.072 2.824-.543 5.557.156 8.41 3.056-.253 1.035-1.987 8.692-2.195-.235.441-.418.785-.676 1.269.057.123.176.381.295.64-3.344 1.658-6.463 5.166-12.122 5.602-.248-.613-.462-1.142-.752-1.862.641-4.061-.702-6.362.578-29.113-.348-.238-.278-.886-2.504-.368-.141-1.208-.074.48 1.387-4.03.778-.031 19.193-11.307 11.858-1.355-.002 0-.029-.012-.029-.012"/><path d="m104.392205 106.5743c1.439-2.489-12.6530001.543-10.1660001 14.314-.425 2.374 6.6930001-4.429 10.1660001-14.314m-14.6980001-1.407c.337.345.6.616.86.881.305-.193-.001-.464 1.572-1.259.649 1.143 1.278 2.253 1.98 3.491 13.2770001-14.35 20.3300001 1.021 3.746 15.686 1.468 3.242 3.2250001 7.329 8.1340001 10.604 1.663-.878 1.293-3.776 5.048-5.946-1.131 2.352.915 13.564-8.65 9.455-1.388-1.998-4.7190001-6.286-7.0510001-10.271-1.544 3.914 2.057 10.121-1.034 15.928-.785.102-1.756.014-2.288 1.06-3.389.712-3.681-18.574-3.902-35.79.724-.814-1.025-.498 1.585-3.839"/><path d="m42.7926049 108.2931c-.835 1.925-3.041 1.213-6.223 3.794.235 2.138.011 5.692.533 10.297 1.507.003 3.029-2.928 6.455-.74-2.113 1.489-3.589 3.612-6.12 4.379.206 3.707.03 8.941.97 14.817 2.336.829 4.406-4.682 8.524-2.407-.427.858-.983 1.733-.918 2.78-.703.107-11.798 10.317-14.325 3.972-.358-2.291-.54-8.499-.678-13.136 0 .003.027.034.027.034-.772-3.13.311-10.588-.019-17.605-14.992 4.406 2.18-11.872 13.452-10.904-.271.217 2.504 2.614-1.713 4.745z"/><path d="m50.9440049 124.3253c.281-2.182-2.754-2.39-.53-13.991 5.695 4.015 4.683 12.016 9.135 20.013.955-10.452 10.281-32.462 4.673-1.164.535 1.362-1.047-.445-.522 5.349-.183.138-.377.283-.696.523-.47 2.12-.079 4.774-2.041 8.908-1.752-.068-1.713 1.667-5.232-3.1-.63-2.887-2.05-5.775-3.965-12.074-.052-1.546-.956-2.929-.86-4.503l.081-.036z"/><path d="m76.3073049 116.0587c2.299-1.987 3.935-4.071 5.19-6.586-3.166-2.115-5.806.935-5.19 6.586m8.834 14.872c1.383 7.739-14.606 24.47-13.736-3.082-1.362-.028-.681-28.353 10.492-22.005 1.707.87 6.679 3.432 1.705 7.46-1.231 3.707-13.113 7.893-6.396 25.419 2.299-1.364 4.348-5.821 7.935-7.792"/></g><path d="m88.5026049 93.2511c.163-.042 20.0490001-24.488 15.7160001-36.867-13.4460001 3.38-23.1050001 10.17-15.7160001 36.867m-7.115-39.662c1.325 1.394 2.92 2.461 4.135 8.529 13.606-13.278 32.1880001-14.29 19.5870001 14.333-4.595 11.811-14.8350001 18.028-15.1950001 31.6-.389-.099-.768-.193-1.219-.308-.284.315-.591.654-.883.976-4.828-1.651-9.55-30.333-6.425-55.13" fill="#ff2c44"/><path d="m36.5553049 99.8585-.074-.152-.057.162zm14.086-39.46c-3.934-1.227-12.246 5.991-17.753 12.803 1.253 7.064.902 16.44 3.321 25.112 4.614-9.459 11.472-20.946 15.884-34.013-.737-1.057-.025-2.764-1.452-3.902zm-18.679 45.416c-3.829-4.056-2.217-7.132-3.289-14.26.536-9.691-5.43-24.122-.328-35.25 1.941 2.113 3.407 5.616 3.616 10.578 35.103-33.008 25.745 17.827 4.459 34.538.759 1.989.316 4.459-3.369 5.625-.432-.503.052.097-1.089-1.231z" fill="#ff2c44"/><path d="m67.4342049 69.8224c-1.554 4.031-1.593 5.143-4.168 15.89 1.161-.118-.019 1.035 6.684-1.77-.663-2.694-.25-5.095-2.516-14.12m8.785 32.695c-4.323-2.143-3.582-7.699-5.585-13.827-1.718.163-3.904.781-7.872 1.856-1.256 27.723-11.465 17.844-4.261-10.244 1.556-6.831 1.149-20.73 9.288-25.839 5.993 13.311 8.933 33.792 9.813 49.414-.728-.161-1.085-.779-1.435-1.407.136-.11.273-.223.409-.335-.055-.05-.111-.1-.166-.15-.064.178-.127.355-.191.532" fill="#ff2c44"/><path d="m17.5748049 41.1153c.007.043-.11.025-.034.222-.01-.042.117-.029.034-.222zm1.182 11.925.052.069v-.139zm-4.608.704v-.961c-.422.344-.422.344 0 .961zm1.739-2.603c.662-1.092.639-1.254-.105-1.498.036.522.071 1.011.105 1.498zm1.077 9.633c.504-.79.551-.972.631-2.159-.667.512-.735 1.181-.631 2.159zm-.467-12.494c.346-1.977.832-3.905.848-5.91.27.527-2.069 1.336-.848 5.91zm2.834-6.162c.904-1.851 3.602-4.621 3.268-8.408-.756 1.093.237-.602-2.979 3.971.247 1.092.535-.366-.289 4.437zm-11.85100004 7.661c.06-2.745-3.832-8.791-.523-12.37-.697-.377-1.405-.545-2.069-.204-1.193 3.531-1.15 7.922 2.592 12.574zm6.57300004 1.712c0 .009.001.018.002.026-.84-2.906.364-8.831-4.32300004-12.52 1.83200004 2.901 2.49900004 7.556 4.32100004 12.494zm-2.79-5.23c.071.056-.196.186.124.447-.765-1.369.025-4.265-3.57400004-7.273.191 1.534 1.291 4.178 3.45000004 6.826zm-2.58400004.797c-.003-.068-.007-.135-.011-.202.019.049.125.064-.012.174.62 3.131 2.46300004 7.885 3.87400004 9.849-.77-2.523-1.549-5.953-3.85100004-9.821zm9.77500004 8.42c-.499.293-.363.772-.356 1.213-.625.155.323 1.044-.018-.035.031-.321.272-.394.424-1.915-.059.003-.116.004-.173.006.041.243.082.488.123.731zm.028 9.655c-7.352-5.321-21.59500004-17.644-14.62800004-30.208 4.091-.595 8.53000004 2.713 10.97200004 7.9 14.066-27.495 9.783 5.803 3.656 22.308z" fill="#ff7e95"/><path d="m118.093405 41.2354c.006.037.042.068.065.102-.023-.038.098-.063-.034-.222-.01.038-.037.081-.031.12zm-1.203 11.735v.139l.053-.069zm4.66-.187v.961c.422-.617.422-.617 0-.961zm-1.633-3.14c-.744.244-.766.405-.106 1.498.035-.487.069-.976.106-1.498zm-1.814 8.972c.08 1.187.128 1.369.632 2.159.103-.978.035-1.647-.632-2.159zm1.379-13.651c-.398-.85-.702-1.744-1.127-2.594.014 2.005.501 3.933.846 5.91.341-1.089.826-2.149.281-3.316zm-3.551-4.748c-.253-.869-.341-1.719.148-2.535-.456-1.031.077.042-2.98-3.971-.43 2.251 1.262 5.134 3.267 8.408-.184-.82-.281-1.368-.435-1.902zm15.376 3.457c.468-2.197.338-4.285-.497-6.468-.663-.341-1.371-.173-2.07.204 1.925 2.183 1.528 3.322-.522 12.37 1.705-1.955 2.617-3.885 3.089-6.106zm-9.322 7.363c1.158-3.767 1.032-6.109 3.981-12.039-.7 1.204-3.587 1.526-4.322 12.52.001-.009.002-.017.002-.026.115-.154.294-.287.339-.455zm3.38-5.901c.461-1.541 1.495-1.147 2.519-5.7-1.632 1.125-2.482 2.528-3.572 7.273.085-.127.22-.087.123-.448.607-.124.691-.711.93-1.125zm.695 3.469c-.477 1.6-2.088 4.775-2.891 8.275 1.411-1.964 3.253-6.718 3.873-9.849.029-.03-.164-.045-.011-.174-.253.814.009.064-.971 1.748zm-8.693 6.143c-.056-.002-.114-.003-.171-.006.096.721-.011.569.422 1.915-.467.485.719.764-.018.035.008-.441.143-.92-.356-1.213.041-.243.082-.488.123-.731zm-1.19 8.288c-1.001-4.902-12.969-51.059 4.695-20.21 2.019-3.392 4.512-8.182 10.972-7.901 5.458 4.966-.926 21.86-14.627 30.208-.754-.51-1.163-1.154-1.04-2.097z" fill="#ff7e95"/></g></svg>