<svg width="172" height="113" viewBox="0 0 172 113" fill="none" xmlns="http://www.w3.org/2000/svg">
<g clip-path="url(#clip0_1_3764)">
<path fill-rule="evenodd" clip-rule="evenodd" d="M38.6715 52.1431C39.0275 51.9321 27.4175 63.1161 33.1825 58.9291C33.2235 58.2021 42.6785 52.1061 38.6715 52.1431Z" fill="black"/>
<path fill-rule="evenodd" clip-rule="evenodd" d="M27.1326 63.7169C26.7886 64.3649 24.5396 63.9249 25.3286 65.8619C25.8426 66.2599 26.3916 66.6279 26.9086 65.3479C27.2186 64.6689 29.7066 61.4699 27.1326 63.7169Z" fill="black"/>
<path fill-rule="evenodd" clip-rule="evenodd" d="M34.2315 42.4106C32.5585 43.6276 27.1865 44.9326 25.1895 46.9566C25.7315 47.5516 28.0085 46.1166 30.1415 45.4506C30.7675 44.9616 37.4315 43.6896 34.2315 42.4106Z" fill="black"/>
<path fill-rule="evenodd" clip-rule="evenodd" d="M19.1763 48.9309C18.7083 48.8969 17.4993 48.3399 17.5873 50.0869C17.9283 50.6179 18.3453 51.2479 19.2263 50.2219C19.9863 49.3889 23.4553 47.7009 19.1763 48.9309Z" fill="black"/>
<path fill-rule="evenodd" clip-rule="evenodd" d="M22.7106 33.2923C23.9506 33.3133 25.7286 33.3563 28.6416 33.4523C29.4166 33.3643 31.5356 34.1923 30.7326 32.2383C29.9066 32.8143 21.8456 31.4323 22.7106 33.2923Z" fill="black"/>
<path fill-rule="evenodd" clip-rule="evenodd" d="M14.5223 33.5896C14.8633 33.8316 15.1713 34.0816 16.1203 33.3866C22.0213 33.7346 13.2623 30.1336 14.5223 33.5896Z" fill="black"/>
<path fill-rule="evenodd" clip-rule="evenodd" d="M25.9817 20.267C27.8427 20.465 32.1497 24.355 34.2957 23.23C35.8967 22.402 19.5207 16.794 25.9817 20.267Z" fill="black"/>
<path fill-rule="evenodd" clip-rule="evenodd" d="M16.8017 15.9612C16.2277 17.5102 19.2367 17.5732 20.5447 17.5462C20.1077 17.4252 17.8427 14.2662 16.8017 15.9612Z" fill="black"/>
<path fill-rule="evenodd" clip-rule="evenodd" d="M30.813 6.40771C31.443 8.30571 35.889 11.6247 37.949 14.2137C41.442 14.9597 32.82 7.10671 30.813 6.40771V6.40771Z" fill="black"/>
<path fill-rule="evenodd" clip-rule="evenodd" d="M24.6403 0.450751C23.5993 2.08775 26.1803 2.00375 27.2403 3.44775C27.2233 3.46575 27.9383 3.68675 27.6413 2.90175C26.6613 2.96275 26.3493 -0.814249 24.6403 0.450751V0.450751Z" fill="black"/>
<path fill-rule="evenodd" clip-rule="evenodd" d="M37.7637 63.2755C39.0917 60.6105 45.7457 54.4325 42.7467 54.7375C41.8777 55.6895 34.0567 66.3075 37.7637 63.2755Z" fill="black"/>
<path fill-rule="evenodd" clip-rule="evenodd" d="M34.6511 50.0777C36.4211 48.9107 37.5891 48.1397 37.8001 48.0007C37.8351 44.2997 20.2151 60.0807 34.6511 50.0777Z" fill="black"/>
<path fill-rule="evenodd" clip-rule="evenodd" d="M24.7355 40.0929C24.4915 41.0179 35.2535 39.3099 35.0735 38.1109C34.9505 37.3339 24.7985 39.0889 24.7355 40.0929Z" fill="black"/>
<path fill-rule="evenodd" clip-rule="evenodd" d="M25.2171 26.9878C26.6101 26.8978 36.5061 30.2838 34.6751 27.7518C34.0711 28.0398 22.3541 24.1748 25.2171 26.9878Z" fill="black"/>
<path fill-rule="evenodd" clip-rule="evenodd" d="M28.8297 13.5683C29.0057 13.8773 37.2227 20.3183 37.9797 19.2813C38.7387 19.0573 28.6727 11.4763 28.8297 13.5683V13.5683Z" fill="black"/>
<path fill-rule="evenodd" clip-rule="evenodd" d="M43.4384 11.8458C44.0724 11.6548 37.5554 1.88784 36.6974 2.66184C36.1034 3.01984 42.5344 12.4918 43.4384 11.8458Z" fill="black"/>
<path fill-rule="evenodd" clip-rule="evenodd" d="M147.686 59.7018C147.66 59.6938 148.609 60.7718 148.452 59.3848C144.009 53.6118 133.304 46.7548 147.686 59.7018Z" fill="black"/>
<path fill-rule="evenodd" clip-rule="evenodd" d="M151.667 63.4553C152.467 63.4293 153.822 68.2813 154.892 65.1713C155.229 65.0803 151.269 61.8673 151.667 63.4553Z" fill="black"/>
<path fill-rule="evenodd" clip-rule="evenodd" d="M145.74 42.3862C141.983 42.9922 152.916 47.1102 154.842 46.9562C153.71 45.4392 148.456 44.0052 145.74 42.3862Z" fill="black"/>
<path fill-rule="evenodd" clip-rule="evenodd" d="M162.415 49.3644C162.082 48.4504 160.337 49.2424 159.085 48.3424C157.526 47.8244 162.704 52.8774 162.415 49.3644Z" fill="black"/>
<path fill-rule="evenodd" clip-rule="evenodd" d="M157.318 32.4931C156.079 32.4731 154.301 32.4301 151.388 32.3341C150.613 32.4221 148.496 31.5931 149.297 33.5481C150.123 32.9721 158.184 34.3541 157.318 32.4931Z" fill="black"/>
<path fill-rule="evenodd" clip-rule="evenodd" d="M164.25 32.1546C164.102 32.8666 160.951 32.0086 162.071 33.2496C162.32 33.3956 163.089 32.8586 164.25 33.6316C165.418 34.9066 166.766 31.2586 164.25 32.1546Z" fill="black"/>
<path fill-rule="evenodd" clip-rule="evenodd" d="M155.436 19.658C156.393 17.745 149.832 21.252 147.582 21.803C141.346 25.684 152.762 21.277 155.436 19.658Z" fill="black"/>
<path fill-rule="evenodd" clip-rule="evenodd" d="M159.887 17.7621C160.406 17.0681 161.969 17.7481 163.197 16.7921C164.261 14.0271 158.84 16.8081 159.887 17.7621Z" fill="black"/>
<path fill-rule="evenodd" clip-rule="evenodd" d="M141.202 13.1297C140.259 16.9647 146.175 9.78572 148.051 8.08572C152.181 3.14772 143.227 11.2557 141.202 13.1297Z" fill="black"/>
<path fill-rule="evenodd" clip-rule="evenodd" d="M153.842 1.00886C153.534 1.68886 151.044 4.88786 153.619 2.64086C155.509 2.89986 156.242 -1.46114 153.842 1.00886Z" fill="black"/>
<path fill-rule="evenodd" clip-rule="evenodd" d="M143.332 63.8513C143.966 63.6603 137.448 53.8933 136.59 54.6683C135.996 55.0253 142.428 64.5003 143.332 63.8513Z" fill="black"/>
<path fill-rule="evenodd" clip-rule="evenodd" d="M147.313 51.3541C149.698 52.6291 151.152 54.8251 150.956 52.4591C150.013 52.3271 142.82 46.0751 142.05 47.2321C141.598 48.0901 144.657 49.4361 147.313 51.3541V51.3541Z" fill="black"/>
<path fill-rule="evenodd" clip-rule="evenodd" d="M151.135 39.9273C153.813 40.1983 155.824 41.7033 154.889 39.5413C154.23 39.6983 144.831 36.8313 144.956 38.1113C144.717 38.9893 148.098 39.2183 151.135 39.9273Z" fill="black"/>
<path fill-rule="evenodd" clip-rule="evenodd" d="M145.199 28.3582C145.138 29.3572 154.487 26.9232 154.888 26.9732C157.45 24.9422 144.403 27.2542 145.199 28.3582Z" fill="black"/>
<path fill-rule="evenodd" clip-rule="evenodd" d="M142.049 19.281C142.322 19.935 151.61 14.381 151.135 13.288C151.049 12.418 141.26 18.543 142.049 19.281Z" fill="black"/>
<path fill-rule="evenodd" clip-rule="evenodd" d="M137.849 9.25561C136.926 10.8006 135.273 11.7936 137.283 11.7766C137.598 10.6876 144.144 3.80361 143.333 2.66261C142.796 2.04761 140.013 6.41161 137.849 9.25561Z" fill="black"/>
<path fill-rule="evenodd" clip-rule="evenodd" d="M53.8932 35.7096C60.4362 32.5746 62.5272 22.6136 58.6122 17.5226C51.4722 9.66157 50.9872 37.4996 53.8932 35.7096ZM52.3842 42.8826C51.3692 45.1126 51.9852 49.5996 52.4192 52.0176C51.6302 63.8876 61.7542 52.3376 59.5382 46.3456C59.9232 41.7876 55.0012 39.7726 52.3842 42.8826V42.8826ZM49.8142 49.3546C49.8362 49.3036 49.9342 49.4956 49.9302 49.3546H49.8142ZM49.9872 28.6926C49.8432 28.7086 49.6262 28.6056 49.8722 29.2136C50.0522 29.1996 50.3352 29.3206 49.9872 28.6926ZM49.1202 40.1526H49.2362C49.1512 40.0136 49.4072 39.8466 49.0622 39.3996C49.1202 39.6316 49.1202 39.8626 49.1202 40.1526ZM49.2942 40.7886C49.2672 40.7886 48.9742 41.1476 48.9462 41.8306C48.9322 42.7436 50.0392 41.7136 49.2942 40.7886ZM46.9412 57.7766C48.0302 44.2836 44.5512 14.4886 50.4912 13.8146C67.9342 8.62757 69.8712 27.5816 61.2252 37.4586C62.7232 39.4496 65.2472 42.9856 65.3832 46.6926C67.8492 58.6006 54.2222 66.2016 46.9412 57.7766Z" fill="black"/>
<path fill-rule="evenodd" clip-rule="evenodd" d="M71.866 30.1588C71.872 30.1178 71.887 30.2998 71.982 30.1588H71.866ZM71.692 50.5608C71.803 50.9418 72.198 51.0228 71.866 50.3008C72.011 50.3498 71.347 50.0498 71.692 50.5608ZM72.271 31.6638C73.03 30.6838 71.24 29.3238 71.866 31.8378C70.704 33.3288 71.811 32.9888 71.345 36.1778C71.332 36.0868 71.506 37.5488 71.75 36.4098C72.893 38.3648 72.309 33.8978 73.024 31.6638C72.908 31.6058 72.503 31.6058 72.271 31.6638V31.6638ZM82.909 35.9058C87.465 40.8318 76.799 38.6558 75.946 40.8008C73.319 44.0368 75.497 52.2118 75.281 56.0308C89.973 54.0778 81.116 60.9988 72.886 61.2178C66.46 61.1668 68.862 51.1228 69.31 46.1668C70.693 36.3798 66.738 21.9238 70.572 15.6198C77.018 11.5378 93.045 19.3568 79.84 19.3758C77.874 19.3288 76.263 19.5318 75.57 20.7248C73.276 40.0288 76.972 34.6238 82.909 35.9058V35.9058Z" fill="black"/>
<path fill-rule="evenodd" clip-rule="evenodd" d="M100.169 50.6105C100.111 50.6105 100.111 50.5515 100.052 50.5515C100.052 50.6105 100.111 50.6105 100.169 50.6105ZM97.2366 42.9255C97.7016 42.9235 96.9386 44.4405 97.9986 44.1575C97.8406 43.8455 97.9796 42.5575 97.2366 42.9255ZM95.4166 36.8245C95.5346 36.8245 95.6516 36.8825 95.7106 37.0005C95.6676 37.0135 95.6366 36.9335 95.4166 36.8245ZM92.9536 32.4835C92.8066 32.3155 92.2736 32.0455 92.6596 32.6585C92.8196 32.6925 92.7286 32.7845 93.0116 32.6005C93.0116 32.5415 92.9536 32.5415 92.9536 32.4835ZM95.6476 27.3675C95.2396 36.6345 105.51 44.6415 104.122 54.7925C102.403 62.1145 91.3996 63.4965 87.4706 57.3175C85.2616 55.0355 88.0346 52.2045 85.5906 50.1715C83.5946 47.7315 88.7856 44.9315 91.9866 46.8065C93.4296 48.4295 90.5076 52.2745 92.3696 55.0345C98.6376 60.3895 97.4016 47.3745 93.3336 41.5885C73.6366 9.04048 116.183 4.39248 105.847 29.9645C104.899 31.4345 103.349 31.3945 100.932 29.1975C107.92 17.7135 93.3376 10.3225 95.6476 27.3675V27.3675Z" fill="black"/>
<path fill-rule="evenodd" clip-rule="evenodd" d="M121.755 49.5454C121.948 49.5154 122.026 49.5894 121.812 49.0244C121.628 49.0394 121.367 48.9214 121.755 49.5454ZM121.754 37.5654C121.794 37.7154 122.006 37.2704 122.102 36.5814C122.071 35.9064 121.071 35.9504 121.754 37.5654ZM120.829 29.1724H120.944C120.944 29.1724 120.887 29.1154 120.829 29.1154V29.1724ZM121.465 40.1114C121.523 40.0534 121.523 40.0534 121.465 40.0534C121.902 39.3984 120.556 32.8784 120.887 37.5064C120.764 37.7014 120.34 38.8034 120.829 39.9964C120.495 40.4034 120.541 43.1354 121.407 40.5174C121.724 41.4324 120.788 41.3574 121.234 43.7004C120.754 43.7944 120.891 43.6874 121.465 44.7414C121.194 44.7874 121.014 44.9224 121.465 45.5524C121.243 46.3324 120.478 47.5874 121.754 48.6194L121.523 48.0984C121.971 48.1234 121.853 47.2204 121.639 46.1304C121.809 45.7204 122.03 45.9654 121.929 44.3364C121.232 43.3184 122.897 41.2904 121.465 40.1114ZM123.953 60.9464C117.027 62.5204 118.328 54.5744 118.803 50.1244C118.38 40.9934 119.265 30.4774 118.513 20.7224C118.629 21.4754 117.935 20.2594 118.34 20.3754C117.056 19.6784 114.435 20.2654 112.113 20.6434C106.869 22.0184 106.042 12.8144 111.532 14.5014C118.629 16.5474 124.55 11.5814 131.563 12.9094C136.769 16.0434 132.434 18.9014 128.7 18.2924C117.353 14.9194 128.951 60.0454 123.953 60.9464V60.9464Z" fill="black"/>
<path fill-rule="evenodd" clip-rule="evenodd" d="M32.6719 74.478C29.6279 76.155 22.3799 73.888 16.7329 75.99C15.6089 75.555 11.8829 86.387 11.3939 87.141C12.3339 87.972 21.3269 86.411 25.1059 86.808C29.5259 93.94 12.3929 90.659 9.86989 92.158C7.08789 96.424 5.89189 105.946 2.89689 109.555C-6.33711 108.796 9.40489 82.875 9.96889 77.555C11.4079 73.972 7.68689 77.047 5.57089 75.876C4.34089 71.933 10.1299 72.109 13.2899 71.541C15.2429 67.806 16.7979 68.687 18.4609 71.357C22.7889 70.246 25.8699 70.933 29.3059 70.37C31.9029 70.823 33.1629 71.163 32.6719 74.478Z" fill="black"/>
<path fill-rule="evenodd" clip-rule="evenodd" d="M39.398 84.6859C39.308 84.6489 36.379 89.2069 36.658 89.874C38.861 89.8879 43.865 87.8509 45.445 89.1919C48.13 71.2659 49.528 68.2719 39.398 84.6859ZM49.72 107.786C50.115 109.884 44.075 108.345 44.477 106.986C44.513 106.055 44.98 93.8839 44.985 93.7539C28.415 93.4959 32.906 100.112 25.027 111.035C17.199 107.913 29.014 98.1459 27.918 92.8709C33.77 88.5199 37.429 76.5999 43.221 69.7989C58.862 59.7289 47.615 102.601 49.72 107.786V107.786Z" fill="black"/>
<path fill-rule="evenodd" clip-rule="evenodd" d="M56.9382 109.726C54.9522 108.109 63.1922 82.8197 67.0612 76.3017C45.7872 79.0667 57.3342 70.8677 69.7662 71.4097C81.2022 68.2237 92.0372 79.3257 74.3622 75.6757C68.8282 72.8757 62.3512 117.489 56.9382 109.726Z" fill="black"/>
<path fill-rule="evenodd" clip-rule="evenodd" d="M97.3381 108.23C97.5461 105.619 101.26 95.2527 101.965 92.2717C99.5121 90.4177 91.2041 92.7797 86.5901 92.1567C84.0511 96.1087 82.7841 106.875 80.6931 112.804C69.2561 115.024 88.4441 70.7637 91.6151 66.6327C92.7971 66.0717 96.4251 69.3447 94.9201 70.9787C90.6121 78.5167 90.6331 80.6467 87.8221 87.3067C93.5951 86.8037 101.442 87.1287 103.905 86.5687C107.465 77.2247 106.081 74.8797 110.808 69.2927C116.083 68.6477 114.139 73.8867 111.611 79.2357C109.902 83.3157 106.036 95.8287 105.047 98.7717C102.407 104.614 103.736 117.584 97.3381 108.23V108.23Z" fill="black"/>
<path fill-rule="evenodd" clip-rule="evenodd" d="M131.913 101.626C143.63 94.3851 135.985 107.455 128.985 108.435C114.475 113.606 106.485 103.586 112.43 91.5221C113.945 88.0411 117.221 83.7591 119.706 78.4141C121.409 76.2361 119.523 75.2341 123.445 72.7221C126.508 69.4191 129.822 71.7961 133.275 70.3411C136.906 68.3751 148.147 69.9411 140.981 74.0851C128.075 76.7721 128.523 73.2031 120.557 86.8561C123.561 90.5681 138.025 79.2951 136.876 88.2961C132.027 91.1841 121.522 93.0421 117.31 92.4941C114.65 97.0021 113.975 102.938 119.933 104.648C123.55 105.175 129.091 103.703 131.913 101.626V101.626Z" fill="black"/>
<path fill-rule="evenodd" clip-rule="evenodd" d="M157.233 75.6153C156.164 78.7993 150.441 88.7753 151.128 89.7623C157.899 88.6843 172.988 80.3833 163.28 74.3623C160.327 73.9943 158.356 72.3743 157.233 75.6153ZM152.098 94.4373C154.026 97.9563 157.249 101.8 161.998 105.724C165.299 107.619 169.51 111.283 163.678 112.235C157.105 109.258 150.938 103.837 147.935 96.3773C146.272 98.5063 144.173 118.133 138.128 109.499C138.142 109.271 138.428 108.427 139.235 106.557C141.345 100.144 148.554 82.7513 151.569 75.9853C153.581 73.7003 144.175 72.3433 155.464 69.5163C183.707 68.3533 169.846 91.5833 152.098 94.4373V94.4373Z" fill="black"/>
<path fill-rule="evenodd" clip-rule="evenodd" d="M92.794 6.5894C92.257 16.3664 53.336 9.2304 50.676 6.0564C73.963 10.0654 93.292 -2.6026 92.794 6.5894Z" fill="black"/>
<path fill-rule="evenodd" clip-rule="evenodd" d="M87.912 6.58954C88.449 16.3665 127.371 9.23054 130.031 6.05654C106.652 10.0605 87.429 -2.60646 87.912 6.58954V6.58954Z" fill="black"/>
<path fill-rule="evenodd" clip-rule="evenodd" d="M92.794 6.5894C92.257 16.3664 53.336 9.2304 50.676 6.0564C73.963 10.0654 93.292 -2.6026 92.794 6.5894Z" fill="black"/>
<path fill-rule="evenodd" clip-rule="evenodd" d="M87.912 6.58954C88.449 16.3665 127.371 9.23054 130.031 6.05654C106.652 10.0605 87.429 -2.60646 87.912 6.58954V6.58954Z" fill="black"/>
<path fill-rule="evenodd" clip-rule="evenodd" d="M126.131 6.62561C126.131 6.62561 118.43 8.62361 105.889 6.20361C105.889 6.20361 116.317 7.70161 126.131 6.62561Z" fill="black"/>
<path fill-rule="evenodd" clip-rule="evenodd" d="M54.5752 6.62561C54.5752 6.62561 62.2762 8.62361 74.8172 6.20361C74.8172 6.20361 64.3892 7.70161 54.5752 6.62561Z" fill="black"/>
</g>
<defs>
<clipPath id="clip0_1_3764">
<rect width="172" height="113" fill="white"/>
</clipPath>
</defs>
</svg>
