<svg width="120" height="97" viewBox="0 0 120 97" fill="none" xmlns="http://www.w3.org/2000/svg">
<path fill-rule="evenodd" clip-rule="evenodd" d="M62.8584 12.9896L62.8864 21.9036H57.3494L57.3214 12.5186L50.1244 3.13462C58.4394 -1.51438 56.6814 3.31062 60.3394 7.14862C65.3814 -1.26938 64.6084 0.965623 70.1674 2.08262L62.8584 12.9896Z" fill="#413D4B"/>
<path fill-rule="evenodd" clip-rule="evenodd" d="M81.586 15.8406C87.598 12.4966 82.387 2.84862 75.46 7.37462C70.871 10.9536 75.667 19.0576 81.586 15.8406ZM73.682 20.5606C61.369 13.0086 71.946 -4.34038 84.369 2.15162C96.578 9.51662 86.002 27.2696 73.682 20.5606Z" fill="#413D4B"/>
<path fill-rule="evenodd" clip-rule="evenodd" d="M94.3618 20.6301C89.1898 16.7811 89.5828 6.11205 91.4058 0.86405C92.0948 1.03105 95.2898 1.80405 96.7998 2.16905C94.7728 21.6301 104.185 21.7911 101.053 1.93105C103.589 1.83205 106.879 -1.11395 106.831 1.43805C110.156 10.824 106.746 27.1841 94.3618 20.6301" fill="#413D4B"/>
<path fill-rule="evenodd" clip-rule="evenodd" d="M34.8691 20.8699C59.0861 9.75794 42.3081 -4.08706 34.9501 4.10094C30.7581 -1.35706 21.3991 2.64094 22.3161 9.51294C23.0791 14.5879 31.0051 18.6389 34.8691 20.8699Z" fill="#D82E42"/>
<path fill-rule="evenodd" clip-rule="evenodd" d="M33.851 49.6656C34.284 44.3516 26.182 40.5226 22.932 42.3406C22.933 43.9176 22.932 53.9536 22.932 56.9386C25.03 60.0136 35.217 54.9976 33.851 49.6656V49.6656ZM32.635 34.4346C43.904 39.2456 48.318 56.1006 37.842 63.3376C33.621 67.2476 14.816 68.9476 13.811 66.0936C13.867 61.1186 14.148 35.5876 14.168 33.7496C17.104 31.4276 27.166 31.2166 32.635 34.4346Z" fill="#413D4B"/>
<path fill-rule="evenodd" clip-rule="evenodd" d="M63.1659 50.2165L60.9639 41.9585L57.6609 50.1705L63.1659 50.2165ZM65.6439 59.3915C51.3489 59.3485 54.8289 57.7285 51.0549 66.6405L41.8789 62.8785L56.9269 32.1865L66.1029 32.2785L76.8829 64.8515C64.5529 67.9555 68.5689 68.0405 65.6439 59.3915V59.3915Z" fill="#413D4B"/>
<path fill-rule="evenodd" clip-rule="evenodd" d="M97.7578 49.6656C98.1908 44.3516 90.0888 40.5226 86.8388 42.3406C86.8398 43.9176 86.8388 53.9536 86.8388 56.9386C88.9368 60.0136 99.1238 54.9976 97.7578 49.6656V49.6656ZM96.5418 34.4346C107.811 39.2456 112.225 56.1006 101.749 63.3376C97.5278 67.2476 78.7228 68.9476 77.7178 66.0936C77.7738 61.1186 78.0548 35.5876 78.0748 33.7496C81.0108 31.4276 91.0728 31.2166 96.5418 34.4346Z" fill="#413D4B"/>
<path fill-rule="evenodd" clip-rule="evenodd" d="M59.0073 85.0272L29.4973 96.9732L23.7213 71.4502C23.7213 71.4502 49.9633 75.5442 59.0073 82.2572" fill="#0E4969"/>
<path fill-rule="evenodd" clip-rule="evenodd" d="M59.9805 85.0272L89.4895 96.9732C89.4905 96.9732 95.2665 71.4502 95.2665 71.4502C95.2665 71.4502 69.0235 75.5442 59.9805 82.2572" fill="#0E4969"/>
<path fill-rule="evenodd" clip-rule="evenodd" d="M51.105 83.6225C51.689 74.6955 67.643 75.4765 67.882 83.6225C67.297 92.5475 51.345 91.7685 51.105 83.6225Z" fill="#D82E42"/>
<path d="M114.371 6.54395H118.273V88.7819H100.529M17.2669 88.7819H1.56995V6.54395H9.07695L17.2669 88.7819Z" stroke="#0E4969" stroke-width="3.071"/>
<path fill-rule="evenodd" clip-rule="evenodd" d="M13.8042 0.835938H19.1752L19.0092 21.8759H13.6382L13.8042 0.835938Z" fill="#413D4B"/>
</svg>
