<svg width="142" height="276" viewBox="0 0 142 276" fill="none" xmlns="http://www.w3.org/2000/svg">
<path fill-rule="evenodd" clip-rule="evenodd" d="M28.725 248.979C26.871 255.283 21.388 262.397 14.183 262.315C14.384 257.496 14 252.568 14 247.849V227.215C14 214.764 14.042 202.315 13.961 189.865C19.22 190.102 24.123 192.748 26.791 197.717C30.749 205.09 30.231 214.702 30.363 222.805C30.504 231.443 31.191 240.594 28.725 248.979V248.979ZM42.307 222.805C42.124 211.287 42.277 198.142 35.018 188.496C28.408 179.712 16.498 175.771 5.94797 178.875C2.07897 180.013 0.928975 184.056 2.18397 187.066C2.08297 200.449 1.99997 213.831 1.99997 227.215V247.849C1.99997 254.777 1.32797 262.176 2.64797 268.989C3.18697 271.769 5.83997 273.09 8.38097 272.978C8.76097 273.142 9.19497 273.277 9.65497 273.377C20.546 275.744 31.181 269.768 36.741 260.375C43.346 249.217 42.505 235.27 42.307 222.805V222.805Z" fill="black"/>
<path fill-rule="evenodd" clip-rule="evenodd" d="M71.1218 247.29C68.9198 247.231 66.6928 247.061 64.5068 247.237C65.4228 240.434 66.4028 233.64 67.4538 226.857C68.4158 220.644 69.4478 214.443 70.5198 208.249C73.3618 221.214 75.4748 234.334 77.3218 247.496C75.2618 247.381 73.1978 247.345 71.1218 247.29V247.29ZM91.9098 267.288C88.1148 237.68 84.2758 207.943 75.2668 179.381C73.6088 174.127 64.9438 173.273 63.7398 179.381C60.7788 194.414 58.1108 209.502 55.7788 224.645C54.6548 231.94 53.6118 239.245 52.6318 246.56C51.6398 253.962 49.5388 262.419 50.3178 269.853C50.9448 275.84 58.8848 277.31 60.9518 271.293C62.3228 267.303 62.8788 262.83 63.3028 258.379C65.3748 258.799 67.4638 258.908 69.7378 259.012C72.7748 259.15 75.8828 259.481 78.9328 259.38C79.2778 262.016 79.6188 264.652 79.9568 267.288C80.9208 274.813 92.8858 274.909 91.9098 267.288V267.288Z" fill="black"/>
<path fill-rule="evenodd" clip-rule="evenodd" d="M126.836 248.858C124.591 255.055 120.494 258.57 114.86 260.228C114.78 257.035 114.474 253.875 114.461 251.338C114.424 243.808 114.387 236.278 114.35 228.748C114.286 215.936 114.223 203.124 114.16 190.312C126.825 194.617 128.82 215.422 129.213 226.753C129.468 234.107 129.373 241.853 126.836 248.858V248.858ZM141.166 226.753C140.48 206.959 134.017 176.189 108.15 177.592C104.936 177.766 102.157 180.189 102.174 183.569C102.248 198.628 102.322 213.688 102.397 228.748C102.432 235.95 102.468 243.153 102.503 250.355C102.523 254.285 102.589 258.213 102.656 262.141C102.717 265.816 102.446 269.222 104.752 272.234C106.23 274.165 108.294 274.762 110.135 274.024C111.442 274.33 112.798 274.334 114.438 273.937C116.251 273.498 117.797 272.743 119.19 271.707C126.14 269.587 132.285 264.306 135.709 258.116C140.913 248.712 141.531 237.262 141.166 226.753Z" fill="black"/>
<path fill-rule="evenodd" clip-rule="evenodd" d="M24.2179 156.212C21.0479 164.975 9.58391 159.9 3.33791 162.357L3.22091 162.42C4.85691 149.857 4.56191 136.89 4.73391 124.245C4.91091 111.191 5.56991 97.8098 4.65191 84.7678C10.3339 85.6318 15.5459 86.7678 20.0799 90.6498C24.5289 94.4598 27.1999 99.8938 28.4609 105.542C30.9679 116.774 29.4279 131.579 17.8079 136.946C17.5239 137.077 17.3659 137.269 17.2819 137.48C16.3369 138.017 16.1169 139.447 17.2339 140.259C22.2799 143.921 26.6649 149.445 24.2179 156.212V156.212ZM21.4169 138.344C33.4279 134.026 34.3659 116.91 32.4209 106.058C30.0899 93.0568 19.3049 79.7808 4.79591 81.1708C4.18691 81.2288 3.69491 81.6018 3.38191 82.0838C2.54891 81.8928 1.57891 82.3568 1.52591 83.5078C0.920912 96.6928 1.69091 110.041 1.52691 123.252C1.36291 136.44 0.216912 149.811 0.932912 162.981C0.993912 164.095 2.73391 164.523 3.06291 163.44C6.74491 166.303 12.7769 165.501 17.1769 164.887C21.8079 164.241 25.8759 162.488 27.7199 157.934C30.2549 151.669 27.7239 141.765 21.4169 138.344V138.344Z" fill="black"/>
<path fill-rule="evenodd" clip-rule="evenodd" d="M12.6969 127.514C13.7909 117.854 13.5299 107.819 12.7219 98.1581C21.7369 106.414 22.3009 119.406 12.6969 127.514ZM12.3189 94.7031C11.3689 94.1681 10.5969 94.9011 10.5749 95.7131C10.3939 95.8961 10.2759 96.1541 10.2899 96.5041C10.7229 107.708 10.2349 118.792 10.2009 129.985C10.1989 130.77 11.0479 131.182 11.6859 131.025C12.1089 131.326 12.6919 131.411 13.3399 131.069C28.0069 123.339 25.6759 102.229 12.3189 94.7031Z" fill="black"/>
<path fill-rule="evenodd" clip-rule="evenodd" d="M11.8199 155.059C11.9839 153.786 11.9649 152.443 11.9889 151.215C12.0029 150.527 12.0809 149.778 12.0819 149.046C13.6749 149.471 15.2349 150.362 15.3969 152.188C15.5509 153.931 13.5129 155.651 11.8199 155.059ZM11.3719 145.63C10.9599 145.628 10.6189 145.791 10.3569 146.038C10.1519 146.068 9.95293 146.143 9.80093 146.296C8.65993 147.443 8.97693 148.992 8.99693 150.513C9.01693 152.159 8.90593 153.98 9.23993 155.6C9.41093 156.427 9.79793 157.077 10.7259 157.124L10.7889 157.119C13.7829 158.951 17.7769 156.571 18.3979 153.264C19.1509 149.249 15.1899 145.641 11.3719 145.63V145.63Z" fill="black"/>
<path fill-rule="evenodd" clip-rule="evenodd" d="M41.661 159.148C43.289 147.2 43.388 135.028 43.428 122.989C43.471 109.848 43.29 96.5982 42.227 83.4952C42.214 83.3232 42.173 83.1702 42.121 83.0252L42.116 82.8172C42.09 82.6772 42.133 82.5702 42.197 82.4752L42.24 82.4762C45.166 83.9282 48.582 83.3952 51.808 83.4352C55.685 83.4822 59.64 83.7232 63.516 83.4602C63.078 85.6772 62.956 88.3392 63.59 90.6182C62.72 90.5782 61.831 90.6532 60.981 90.6842C59.388 90.7402 57.816 90.8652 56.231 91.0282C55.714 91.0812 55.352 91.3182 55.117 91.6282C54.285 91.4112 53.179 91.8802 53.045 93.0052C52.198 100.152 52.007 107.66 53.543 114.727C52.915 115.091 52.983 116.182 53.76 116.37C55.392 116.765 57.081 116.858 58.75 116.995C60.037 117.1 61.477 117.341 62.79 117.136C62.796 118.053 62.989 119.004 63.074 119.92C63.203 121.307 63.254 122.695 63.298 124.085C62.27 124.081 61.199 124.264 60.202 124.265C58.393 124.267 56.632 124.081 54.867 123.672C53.81 123.428 53.183 124.217 53.211 125.014C53.153 125.161 53.109 125.32 53.096 125.501C52.578 132.95 52.528 140.603 53.507 148.012C53.589 148.63 53.999 148.999 54.459 149.126C54.501 149.551 54.745 149.95 55.213 150.04C56.916 150.365 58.676 150.538 60.404 150.656C61.387 150.723 62.355 150.857 63.253 150.708C63.241 150.803 63.23 150.899 63.232 151.005C63.285 153.545 63.675 156.154 64.112 158.691C56.731 158.635 49.015 158.344 41.661 159.148V159.148ZM65.226 149.443C65.384 148.973 65.292 148.396 64.928 148.072C63.636 146.919 62.044 147.232 60.404 147.344C58.923 147.446 57.422 147.594 55.95 147.836C56.274 140.898 56.145 133.887 56.026 126.934C57.268 127.306 58.53 127.579 59.839 127.717C61.569 127.9 63.824 128.066 65.279 126.998C66.021 126.454 66.154 125.526 65.701 124.888C65.904 123.241 65.998 121.582 66.026 119.92C66.055 118.158 66.25 116.071 64.908 114.771C64.761 114.63 64.59 114.56 64.414 114.524C64.266 114.38 64.094 114.249 63.871 114.155C62.311 113.501 60.402 113.87 58.75 114.005C57.539 114.105 56.318 114.184 55.115 114.369C55.473 107.536 55.44 100.727 55.978 93.9012C56.065 93.9222 56.134 93.9622 56.231 93.9722C57.815 94.1342 59.388 94.2592 60.981 94.3162C62.435 94.3682 64.048 94.5582 65.427 94.0482C66.558 93.6292 66.845 92.4292 66.29 91.6112C66.482 90.4432 66.471 89.2712 66.55 88.0822C66.652 86.5352 66.889 85.0062 67.034 83.4642C67.106 82.6972 66.659 82.1712 66.066 81.9252C66.148 81.1032 65.627 80.2222 64.499 80.1082C60.314 79.6832 56.014 79.9262 51.808 79.9362C50.132 79.9402 48.41 79.7952 46.73 79.8512C46.046 79.5122 45.278 79.5352 44.46 79.5532C43.377 79.5772 42.276 79.5492 41.198 79.6582C40.577 79.7202 40.026 80.0482 39.851 80.6832C39.701 81.2302 39.767 81.6312 39.946 81.9882C39.349 82.1642 38.877 82.6582 38.923 83.4952C39.621 96.3392 40.379 109.129 40.413 122.001C40.446 134.54 39.61 147.074 39.745 159.607C39.004 160.248 39.242 161.572 40.5 161.73C48.325 162.719 56.613 162.355 64.5 162.305C65.501 162.298 66.069 161.628 66.207 160.868C66.477 160.669 66.679 160.379 66.695 159.998C66.82 157.046 66.941 153.946 66.607 151.005C66.508 150.132 65.899 149.606 65.226 149.443V149.443Z" fill="black"/>
<path fill-rule="evenodd" clip-rule="evenodd" d="M93.3499 162.541C90.0699 163.173 86.5878 162.868 83.4638 161.689C78.6078 159.858 76.7118 156.302 75.9908 151.518C77.4938 151.513 78.9968 151.511 80.4998 151.491C80.8138 151.486 81.0718 151.398 81.2848 151.262C81.6358 153.26 83.0369 154.863 85.2249 155.389C87.2109 155.867 90.7159 155.136 91.4769 152.937C92.1969 152.926 92.9638 152.446 93.0808 151.536C94.1428 143.243 89.2008 136.142 85.3118 129.258C80.1678 120.153 75.0729 109.973 75.1166 99.2619C75.1389 93.8589 76.2308 87.3109 80.7358 83.7799C84.9078 80.5099 90.8648 80.5399 95.5948 82.5159C105.681 86.7309 106.897 97.4179 102.153 105.997L101.94 105.863C100.288 105.025 98.5688 104.281 96.8568 103.558C98.2598 100.119 98.3978 96.2289 95.7848 93.2379C93.6068 90.7429 90.0489 89.8219 87.0449 91.3909C78.7309 95.7339 82.3039 109.173 85.0709 115.621C89.7499 126.522 99.1419 135.6 102.296 147.128C104.347 154.628 101.181 161.031 93.3499 162.541V162.541ZM86.4459 107.498C85.7849 104.475 85.2918 100.82 86.4768 97.8319C87.6078 94.9789 90.5928 92.2179 93.5418 96.2299C94.9278 98.1159 94.1698 101.156 93.5968 103.125C93.3958 103.814 93.7139 104.417 94.2119 104.782C94.1899 105.351 94.4988 105.865 94.9958 106.228C96.6628 107.445 98.6429 108.419 100.64 108.947C101.113 109.072 101.545 108.976 101.898 108.755C102.245 108.868 102.655 108.835 102.979 108.583C110.584 102.673 109.857 90.9469 103.747 84.1909C97.6558 77.4559 85.7738 74.9659 78.3408 81.0089C69.4998 88.1969 71.3228 102.972 74.3538 112.501C76.3878 118.894 79.4668 124.93 82.7298 130.768C86.2918 137.139 90.3468 143.174 90.1758 150.674C90.0588 150.684 89.9388 150.705 89.8128 150.754C88.5548 151.247 87.7858 152.452 86.2878 152.306C84.8348 152.165 83.4608 150.606 83.1438 149.243C82.9408 148.372 82.0349 148.388 81.5439 148.877C81.3019 148.626 80.9558 148.461 80.4998 148.467C78.3758 148.496 76.2528 148.55 74.1298 148.602C73.4798 148.618 72.8988 149.046 72.7188 149.677C72.1628 151.623 72.4698 153.718 73.6078 155.279C74.5228 167.704 105.86 172.004 106.926 152.906C107.525 142.17 99.0478 132.18 93.7598 123.587C90.6728 118.569 87.7159 113.308 86.4459 107.498V107.498Z" fill="black"/>
<path fill-rule="evenodd" clip-rule="evenodd" d="M133.12 89.4127C133.009 89.4077 132.897 89.4257 132.79 89.4697L132.72 89.4827C132.051 89.6297 131.837 90.3767 132.057 90.9297C130.484 96.1337 130.605 101.948 130.305 107.316C129.947 113.725 129.786 120.123 129.875 126.543C130.038 138.253 130.8 149.982 132.284 161.603C129.909 161.268 127.262 161.952 124.864 161.999C124.784 161.867 124.665 161.765 124.526 161.688C125.113 149.822 124.989 137.887 125.232 126.011C125.353 120.096 125.507 114.181 125.606 108.265C125.696 102.972 126.759 96.3477 124.842 91.3477C124.785 91.2007 124.661 91.0787 124.516 91.0007C124.454 90.2527 123.951 89.5187 122.996 89.4537C120.215 89.2617 117.395 89.3257 114.685 89.9757C114.8 88.5897 114.477 87.2247 114.38 85.8267C114.311 84.8327 114.181 83.8437 114.063 82.8557C121.866 83.4647 130.508 84.0287 138.356 83.1897C137.696 85.1377 137.661 87.1227 138.358 88.9777C136.612 89.0087 134.832 89.0817 133.12 89.4127V89.4127ZM140.826 81.7367C140.844 81.0897 140.406 80.4297 139.501 80.3087C131.345 79.2187 122.206 79.7627 114 80.3427C113.805 80.3567 113.637 80.4047 113.49 80.4727C113.263 80.3777 112.998 80.4137 112.87 80.6957C111.53 83.6407 110.427 87.6677 112.09 90.7417C112.2 90.9457 112.375 91.0917 112.571 91.2017C112.542 91.6777 112.862 92.1747 113.473 92.2237C116.642 92.4757 119.824 92.4227 122.996 92.6407L123.216 92.6337C121.863 96.8827 122.298 101.925 122.158 106.294C121.959 112.536 121.842 118.781 121.713 125.025C121.456 137.489 120.875 150.025 121.162 162.49C121.186 163.56 121.983 164.092 122.79 164.096C123.005 164.431 123.321 164.721 123.728 164.898C125.028 165.466 126.898 165.273 128.297 165.297C130.089 165.327 132.227 165.659 133.905 164.963C134.096 164.884 134.258 164.781 134.399 164.666C135.254 164.556 136.052 163.958 135.945 162.975C134.592 150.534 133.595 138.101 133.397 125.581C133.301 119.498 133.292 113.398 133.443 107.316C133.57 102.182 134.37 96.8497 133.873 91.7147C135.565 91.9657 137.307 92.0077 139 92.0347C139.704 92.0457 140.153 91.6527 140.355 91.1467C140.874 91.0327 141.305 90.5657 141.14 89.8957C140.618 87.7697 140.682 85.4537 141.519 83.4247C141.854 82.6117 141.445 82.0027 140.826 81.7367V81.7367Z" fill="black"/>
<path fill-rule="evenodd" clip-rule="evenodd" d="M25.282 2.05196C24.66 0.0399569 21.857 0.898957 22.186 2.90496C22.755 6.38496 22.232 11.582 17.765 12.099C13.079 12.642 12.101 6.66496 12.765 3.31296C12.983 2.21096 11.337 1.31496 10.816 2.49096C9.49302 5.47496 9.02002 8.84696 10.758 11.787C11.792 13.537 13.47 14.907 15.408 15.473C14.798 19.031 14.522 22.655 14.383 26.257C14.23 30.167 13.685 34.648 15.068 38.354C15.494 39.495 17.159 39.635 17.531 38.354C18.555 34.836 17.965 30.818 17.979 27.161C17.995 23.347 18.148 19.521 18.082 15.708C24.565 15.175 26.994 7.58896 25.282 2.05196" fill="black"/>
<path fill-rule="evenodd" clip-rule="evenodd" d="M41.9109 20.9369C41.8139 24.0349 41.1008 38.9969 34.5098 36.5059C30.0778 34.8309 31.4198 23.9659 31.6928 20.4749C31.9938 16.6299 32.4549 5.65986 37.2409 3.98686C37.3549 4.49286 37.6809 4.95486 38.2289 5.13686C43.3179 6.82686 42.0379 16.8799 41.9109 20.9369V20.9369ZM38.6278 2.18985C38.2208 2.14185 37.9038 2.25186 37.6688 2.44886C37.5248 2.31486 37.3359 2.21685 37.1039 2.19185C29.5469 1.36385 28.7009 15.6129 28.2609 20.4749C27.7139 26.5309 26.7469 40.1769 35.9849 40.5249C44.0739 40.8309 45.2089 27.3579 45.4639 21.8069C45.7509 15.5799 47.2588 3.21985 38.6278 2.18985Z" fill="black"/>
<path fill-rule="evenodd" clip-rule="evenodd" d="M63.977 4.56785C63.582 2.65085 61.052 3.36185 60.846 4.99185C60.151 10.4998 60.749 16.3239 60.564 21.8939C60.462 24.9589 61.023 36.4719 56.961 36.5489C55.494 35.3059 54.506 32.3358 54.286 30.8808C54.103 29.6758 54.26 28.3059 54.247 27.0849C54.218 24.2369 54.19 21.3899 54.161 18.5429C54.114 13.8959 54.835 8.44785 53.091 4.08185C52.778 3.29685 51.771 3.27185 51.464 4.08185C50.083 7.72685 50.609 11.8429 50.634 15.6959C50.666 20.4409 50.685 25.1879 50.753 29.9319C50.816 34.2849 51.852 41.0798 57.686 39.8438C60.359 40.4618 62.748 38.7238 63.538 34.5448C64.425 29.8578 64.389 24.7668 64.506 20.0159C64.63 14.9339 65.006 9.56385 63.977 4.56785" fill="black"/>
<path fill-rule="evenodd" clip-rule="evenodd" d="M93.3758 30.7478C92.1668 30.7248 90.9928 30.6608 89.7988 30.8878C89.7088 30.9048 89.6448 30.9448 89.5688 30.9748C90.1618 23.5688 90.6838 16.1628 91.5628 8.77679C92.1398 10.8818 92.3488 13.6198 92.5548 14.6558C93.1228 17.5098 93.6558 20.3748 94.1268 23.2478C94.5368 25.7498 94.8228 28.2758 95.1058 30.8018C94.5458 30.7558 93.9748 30.7598 93.3758 30.7478V30.7478ZM96.5758 16.5598C95.7328 12.3538 95.6568 4.67979 90.8778 2.94079C90.1008 2.65879 88.9568 3.26279 88.8288 4.10479C86.9818 16.2408 85.5698 28.7158 86.5518 40.9958C86.6628 42.3758 88.5478 42.3578 88.6848 40.9958C88.9528 38.3398 89.1858 35.6818 89.4038 33.0238C89.5198 33.1298 89.6488 33.2218 89.7988 33.2778C90.8828 33.6858 92.0528 33.7838 93.1928 33.9568C93.9678 34.0738 94.7348 34.2348 95.5028 34.2358C95.7588 36.3398 96.0508 38.4358 96.4538 40.5098C96.7868 42.2268 99.3388 41.7398 99.3998 40.1108C99.6898 32.3798 98.0898 24.1188 96.5758 16.5598V16.5598Z" fill="black"/>
<path fill-rule="evenodd" clip-rule="evenodd" d="M104.779 6.00883C104.768 5.89583 104.744 5.79183 104.717 5.69083C106.898 6.04483 109.04 6.56283 110.655 8.19283C113.269 10.8298 114.084 14.7018 114.274 18.2628C114.623 24.8008 112.693 30.4548 106.274 32.2748C106.489 23.5188 105.583 14.5908 104.779 6.00883V6.00883ZM111.682 34.6258C117.07 31.3618 118.758 22.4948 118.178 16.4748C117.738 11.9018 116.155 7.25783 112.287 4.46983C109.402 2.38983 105.57 1.56183 102.903 4.15183L102.771 4.34283C101.949 4.38683 101.205 4.93283 101.287 6.00883C102.158 17.4738 101.728 29.0628 102.793 40.4928C102.969 42.3808 105.474 42.3398 105.699 40.4928C105.874 39.0618 105.999 37.6208 106.095 36.1738C106.186 36.2268 106.296 36.2668 106.427 36.2868C108.115 36.5478 109.55 36.8438 110.901 37.9828C112.223 39.0978 112.746 40.4308 113.296 42.0038C113.959 43.8998 117.13 43.7508 117.003 41.5028C116.837 38.5858 114.51 35.8338 111.682 34.6258V34.6258Z" fill="black"/>
<path fill-rule="evenodd" clip-rule="evenodd" d="M132.241 39.3848C130.994 38.9108 130.107 39.7918 128.922 39.9968C127.84 40.1838 126.776 40.0058 125.751 39.6558C125.929 35.8468 125.97 32.0218 125.94 28.1918C126.416 28.0958 126.889 28.0348 127.388 28.0518C128.142 28.0778 128.816 28.3458 129.566 28.0998C130.94 27.6478 131.15 25.8908 129.958 25.1008C129.08 24.5188 127.946 24.7218 126.963 24.9128C126.603 24.9838 126.251 25.0878 125.905 25.2088C125.782 18.2638 125.447 11.3118 125.18 4.41284L125.263 4.44284C127.312 4.74384 129.562 4.97984 131.63 4.83884C133.464 4.71284 134.182 1.68284 132.097 1.38584C130.028 1.08984 127.784 1.06984 125.699 1.22084C125.211 1.25584 124.676 1.46284 124.387 1.88784L124.365 1.89484C124.056 1.99184 123.868 2.18784 123.769 2.41484C122.842 2.25484 121.799 2.77984 121.812 4.00384C121.944 16.4708 121.555 29.0548 122.389 41.4978C122.502 43.1938 124.482 43.5298 125.312 42.4878C126.506 43.0808 127.808 43.3938 129.162 43.3638C130.792 43.3268 132.814 43.0858 133.313 41.2738C133.549 40.4178 133.017 39.6808 132.241 39.3848" fill="black"/>
<path fill-rule="evenodd" clip-rule="evenodd" d="M64.458 49.576C63.296 49.098 61.857 49.317 60.594 49.456C60.344 49.402 60.069 49.432 59.826 49.543C58.604 49.682 57.407 49.896 56.221 50.24C54.998 50.595 55.172 52.653 56.533 52.542C57.415 52.47 58.299 52.418 59.185 52.39C59.194 55.596 59.288 58.789 59.617 61.989C59.822 63.975 62.905 64.05 62.781 61.989C62.589 58.78 62.173 55.617 61.67 52.454C62.602 52.562 63.517 52.706 64.458 52.515C66.098 52.18 65.695 50.086 64.458 49.576" fill="black"/>
<path fill-rule="evenodd" clip-rule="evenodd" d="M78.342 56.687C78.102 54.703 77.985 52.706 77.703 50.727C77.564 49.75 76.144 49.926 75.895 50.727C75.488 52.035 75.27 53.423 75.168 54.812C74.509 54.991 73.892 55.358 73.219 55.562C72.485 55.784 71.713 55.913 70.944 56.017C70.648 54.438 70.407 52.851 70.056 51.283C69.823 50.243 68.469 50.624 68.352 51.513C68.101 53.425 68.1 55.35 68.118 57.277C68.134 58.96 68.032 60.747 68.945 62.207C69.59 63.237 71.255 63.091 71.58 61.863C71.922 60.572 71.657 59.289 71.362 58.006C72.084 58.051 72.805 58.053 73.553 58.025C74.087 58.005 74.609 57.998 75.113 57.939C75.148 59.559 75.276 61.271 76.426 62.433C76.946 62.959 78.057 62.927 78.395 62.179C79.199 60.399 78.572 58.586 78.342 56.687Z" fill="black"/>
<path fill-rule="evenodd" clip-rule="evenodd" d="M84.9258 55.289C84.4688 55.38 83.9758 55.384 83.4868 55.347C83.4498 54.588 83.3998 53.828 83.3518 53.069C83.7878 53.04 84.2238 53.023 84.6608 52.982C85.5858 52.896 86.5228 52.909 87.3368 52.419C88.3718 51.796 88.2928 49.932 86.9788 49.678C85.3188 49.357 83.2978 50.239 81.7178 50.739C81.1958 50.904 80.9278 51.349 80.8758 51.813L80.8278 52C80.6898 53.827 80.6058 55.65 80.5348 57.481C80.4898 58.633 80.3098 59.828 80.5628 60.925C80.2548 61.546 80.4748 62.476 81.2498 62.619C82.2018 62.794 83.1538 62.912 84.1098 63.055C85.2218 63.222 86.3088 63.588 87.1518 62.594C87.7268 61.916 87.7308 61.089 87.1518 60.406C86.3098 59.414 85.2228 59.778 84.1098 59.945C83.9638 59.966 83.8188 59.987 83.6738 60.007C83.7128 59.216 83.6238 58.398 83.5878 57.598C84.4648 57.887 85.3808 58.076 86.2308 58.046C86.7238 58.028 87.3308 57.778 87.5468 57.291L87.6278 57.107C87.8768 56.542 87.8138 56.079 87.4328 55.602C86.7198 54.707 85.8468 55.105 84.9258 55.289" fill="black"/>
<path fill-rule="evenodd" clip-rule="evenodd" d="M50.5639 54.6661C49.1269 54.3471 47.6519 54.3171 46.1879 54.2331C45.4879 54.1941 44.6569 54.2651 43.9749 54.1081L43.8729 54.0461C43.6619 53.8551 43.4099 53.7081 43.1149 53.6401L42.9889 53.6111C41.9769 53.3771 41.1099 53.7871 40.5329 54.6101C39.0619 56.7091 41.3389 58.8801 43.4219 58.9401C45.6879 59.0051 48.3559 58.8271 50.5639 58.3281C52.3699 57.9191 52.3789 55.0711 50.5639 54.6661" fill="black"/>
<path fill-rule="evenodd" clip-rule="evenodd" d="M102.899 56.6871C102.561 54.4871 99.9979 53.8711 98.1269 53.7321C96.2679 53.5951 94.5109 54.0171 92.9639 55.0541C91.0979 56.3051 92.3069 58.9311 94.4449 58.5671C96.1429 58.2781 97.4989 58.6251 99.0939 59.1201C100.901 59.6801 103.258 59.0231 102.899 56.6871Z" fill="black"/>
</svg>
