<svg width="151" height="129" viewBox="0 0 151 129" fill="none" xmlns="http://www.w3.org/2000/svg">
<path fill-rule="evenodd" clip-rule="evenodd" d="M110.251 62.8758C102.377 63.0128 98.5804 76.3879 90.9654 73.5689C86.1834 72.2839 90.9804 63.0458 92.4934 69.1288C96.9094 61.6908 80.5634 66.6309 85.5784 75.2089C92.3004 85.4749 109.316 82.8389 115.005 79.2649C119.727 77.1109 118.407 69.8379 118.538 66.1239C117.832 62.1289 113.279 62.7988 110.251 62.8758Z" fill="black"/>
<path fill-rule="evenodd" clip-rule="evenodd" d="M124.565 62.8758C132.438 63.0128 136.235 76.3879 143.85 73.5689C148.632 72.2839 143.836 63.0458 142.322 69.1288C137.907 61.6898 154.252 66.6319 149.237 75.2089C142.516 85.4749 125.499 82.8389 119.81 79.2649C115.089 77.1109 116.409 69.8379 116.277 66.1239C116.984 62.1289 121.537 62.7988 124.565 62.8758V62.8758Z" fill="black"/>
<path fill-rule="evenodd" clip-rule="evenodd" d="M88.612 68.332C86.626 71.684 89.823 75.785 93.637 74.99C88.612 76.369 85.93 71.362 88.612 68.332Z" fill="black"/>
<path fill-rule="evenodd" clip-rule="evenodd" d="M146.203 68.332C148.189 71.684 144.993 75.785 141.178 74.99C146.203 76.369 148.885 71.362 146.203 68.332Z" fill="black"/>
<path fill-rule="evenodd" clip-rule="evenodd" d="M31.9857 17.6618C50.3587 -6.72416 13.5327 13.5708 10.3987 24.1348C3.54971 35.0588 22.6467 36.6068 27.1317 44.4888C34.7797 57.1158 17.7707 63.3638 7.37371 60.0118C5.33271 57.8938 -6.41729 48.6458 4.81371 48.8748C7.42971 53.7678 16.5677 56.4088 20.9457 51.5208C22.0557 42.4608 9.40571 42.3898 4.56971 35.4198C-7.63929 20.7188 23.8377 -0.948155 35.6917 0.125845C56.6547 3.50684 34.0547 29.5098 31.9857 17.6618V17.6618Z" fill="black"/>
<path fill-rule="evenodd" clip-rule="evenodd" d="M6.50881 51.168C6.53681 53.422 6.12481 58.436 7.37281 60.012C13.0908 63.242 10.6738 55.885 10.7448 53.587C8.97181 53.05 7.56481 52.239 6.50881 51.168V51.168Z" fill="black"/>
<path fill-rule="evenodd" clip-rule="evenodd" d="M15.7031 53.9731C15.6741 54.3821 19.2331 61.8411 23.4381 58.6351C23.4381 58.6351 19.5721 52.9111 19.1121 53.1111C17.9481 53.5481 16.8131 53.8311 15.7031 53.9731Z" fill="black"/>
<path fill-rule="evenodd" clip-rule="evenodd" d="M51.3969 47.5602C47.9179 54.8802 37.2549 57.5292 35.3239 48.1292C34.7469 42.8752 39.9599 27.9612 43.4069 26.0932C53.6699 24.9702 41.0899 43.2202 42.1569 45.3772C43.8479 53.3712 52.6029 39.3682 53.2899 34.5302C53.2089 27.1372 60.2039 23.6852 61.2329 31.7202C61.1709 35.6182 56.8739 42.4722 56.7509 46.4282C56.5899 48.3312 57.0189 49.3942 57.8289 50.6532C63.7349 58.3172 51.1679 59.1652 51.3969 48.7482V47.5602Z" fill="black"/>
<path fill-rule="evenodd" clip-rule="evenodd" d="M80.9377 34.5563C76.5507 35.1583 69.6337 43.0883 71.4647 46.5273C76.9597 46.5743 89.5657 36.9343 80.9377 34.5563ZM70.0807 29.1123C72.7357 24.7693 69.8767 21.0613 75.9157 21.8483C78.9727 23.3513 78.2457 27.9663 75.9857 31.1383C84.4227 25.2383 95.3087 31.6583 89.1827 42.3813C86.0937 47.9673 81.2547 50.3163 73.8347 52.3873C71.3127 53.4743 69.6887 50.1493 69.0497 54.4333C66.8717 58.2463 67.3187 58.5683 66.5117 63.0953C61.2147 86.1743 54.6627 69.3953 61.3117 56.2833C62.3837 49.7503 67.0327 36.8923 70.0807 29.1123V29.1123Z" fill="black"/>
<path fill-rule="evenodd" clip-rule="evenodd" d="M104.083 36.4532C108.8 38.8802 117.755 30.3262 109.696 30.1082C108.453 30.1762 101.931 34.9782 104.083 36.4532ZM110.132 41.9542C107.14 43.4672 100.691 38.7242 100.609 44.1622C101.013 54.8732 108.6 45.6642 113.503 45.4952C115.966 46.8812 115.921 48.8752 113.741 50.9772C87.9306 71.0022 89.0256 25.7752 110.252 24.317C123.234 24.2712 120.609 38.8352 110.132 41.9542V41.9542Z" fill="black"/>
<path fill-rule="evenodd" clip-rule="evenodd" d="M133.928 33.0432C137.637 30.1462 145.25 24.8562 148.087 30.1082C149.428 31.2012 149.691 31.8842 146.956 33.5282C142.208 34.7272 138.278 36.5872 133.532 40.3202C126.476 43.5062 128.809 59.1282 121.513 52.9272C117.391 50.5022 126.284 22.3292 130.636 24.1602C139.966 23.0562 122.492 44.2142 133.928 33.0432V33.0432Z" fill="black"/>
<path fill-rule="evenodd" clip-rule="evenodd" d="M53.7121 120.639C54.2831 119.325 55.1701 117.874 55.7411 115.491C54.8061 117.077 53.9341 117.573 53.7121 120.639ZM50.7491 74.9281C50.6701 75.0831 50.5921 75.1611 50.5921 75.3171L50.7491 74.9281ZM41.7781 96.0671C43.4741 91.2291 48.2991 80.5111 50.4351 75.6291C47.0351 81.6051 43.8831 88.8161 41.7781 96.0671ZM68.6901 88.3441C69.6711 88.9101 78.4351 87.2531 74.7851 89.8551C71.5061 90.9971 67.4671 89.4601 65.7541 94.4231C61.0091 105.348 57.9541 115.283 53.3861 126.747C38.3071 136.823 57.6001 96.2621 58.5481 92.6351C54.7091 94.1551 48.1161 93.3841 44.0381 95.6771C41.1891 103.564 38.8421 111.79 36.4541 120.843C35.6301 122.285 35.3131 122.685 33.4571 122.116C24.9531 118.2 36.6221 100.742 36.7071 95.5981C34.4271 95.0911 32.1961 92.1421 36.1611 91.5421C42.3851 88.4611 47.4371 64.4711 51.8401 59.8721C51.8401 60.0281 52.1531 58.9351 51.9961 59.0131C54.1791 56.7291 61.1071 60.5401 57.0061 64.1041C52.8891 72.5581 49.7841 80.7661 46.2241 90.1381C51.9631 88.3861 60.9861 91.2451 62.0721 84.8141C64.9331 77.0481 69.7921 66.7691 72.8241 59.8301C76.7711 58.3571 81.5911 64.6361 78.0501 68.0621C76.1301 74.6851 70.9621 81.4571 68.6901 88.3441V88.3441Z" fill="black"/>
<path fill-rule="evenodd" clip-rule="evenodd" d="M83.333 91.6576C81.673 84.4446 75.524 100.077 74.366 103.09C78.259 100.702 83.623 97.1136 83.333 91.6576ZM76.943 122.08C73.396 125.123 66.939 122.269 65.756 117.552C66.168 112.94 67.037 108.766 68.515 103.246C66.375 107.601 65.078 112.193 65.785 118.457C60.992 90.9996 88.672 77.4956 87.082 94.6656C80.224 109.457 71.469 98.6247 71.636 118.224C76.849 126.083 94.576 92.2186 96.632 97.6066C96.943 98.2306 96.709 98.6196 96.319 99.0886C89.607 106.611 84.89 115.189 76.943 122.08V122.08Z" fill="black"/>
<path fill-rule="evenodd" clip-rule="evenodd" d="M104.629 104.807C104.667 104.656 106.251 101.547 106.267 101.296L104.629 104.807ZM99.8715 95.7578C99.3715 95.4428 98.3355 96.0938 97.7645 94.6648C98.2955 95.2408 98.3795 95.4518 99.8715 95.7578ZM95.4255 120.329C95.4255 120.407 95.5025 120.407 95.5025 120.486C95.5025 120.407 95.4255 120.329 95.4255 120.329ZM101.431 98.7998C98.7915 102.829 97.0225 107.438 95.3465 112.841C96.5865 108.826 99.3305 102.411 101.431 98.7998ZM95.1125 113.154C95.1125 113.074 95.1915 112.997 95.1915 112.841C95.1915 112.997 95.1125 113.074 95.1125 113.154ZM94.9575 114.402C94.9575 114.323 95.0355 114.245 95.0355 114.167C95.0355 114.245 94.9575 114.245 94.9575 114.323V114.402ZM95.8934 121.11C95.8144 121.031 95.7375 120.954 95.7375 120.876L95.8145 120.954C95.4255 120.096 95.0354 119.238 94.8784 118.77L95.1125 119.783C95.0755 119.661 94.8665 118.338 94.7235 117.833C94.7235 117.833 94.7235 117.911 94.8005 117.989C94.7705 117.072 94.7525 116.019 94.9575 114.402C94.6575 116.168 94.2385 119.157 96.1275 121.656C96.1275 121.578 96.1274 121.499 96.0484 121.499C96.5164 121.968 97.1415 122.358 97.8435 122.592C96.9845 122.28 96.3614 121.656 95.8934 121.031V121.11ZM101.665 121.968L101.12 122.202C93.7215 128.289 92.3845 110.93 95.5025 110.578C95.6305 108.87 99.2444 101.197 100.338 99.2678C88.9594 102.244 90.6645 84.4488 99.6375 87.9568C101.567 87.0348 98.8805 93.7328 100.027 89.6728C95.4635 96.6598 98.2775 95.4778 104.863 96.4598C104.111 96.1648 102.535 96.1088 101.04 95.7578C103.055 96.0088 108.718 95.9608 107.203 99.9698C104.885 105.931 93.3905 127.293 106.424 114.167C105.362 114.632 125.754 86.2888 120.074 100.048C115.827 107.203 108.602 118.371 101.665 121.968V121.968Z" fill="black"/>
<path fill-rule="evenodd" clip-rule="evenodd" d="M131.559 93.2983V93.2203C131.482 93.3773 131.403 93.4553 131.482 93.4553C131.091 94.0013 130.623 94.4693 130.155 95.3273C133.16 91.5033 126.212 102.684 129.454 105.078C136.596 110.169 138.469 94.8053 137.332 90.4133C135.965 88.2843 132.752 91.3613 131.559 93.2983V93.2983ZM125.085 102.114C124.54 102.737 123.447 104.61 122.277 106.95L122.745 106.248C111.679 128.123 128.34 119.868 133.589 107.963C130.155 107.496 125.943 106.014 125.085 102.114ZM139.829 107.963C137.889 108.875 135.592 114.945 133.275 115.999C133.275 115.999 133.9 115.218 133.822 115.141L131.559 117.793C131.987 118.642 127.108 122.029 124.502 123.047C119.459 124.854 114.174 120.336 112.995 115.284C112.434 107.849 117.118 99.7423 124.381 96.4013C129.51 92.1983 131.962 80.3973 140.686 90.4133L140.374 90.1003C140.446 90.1783 140.458 90.4033 140.765 90.8023C144.124 92.9533 141.405 101.139 140.219 105.39C142.199 105.355 146.269 103.561 148.643 104.064C150.904 106.95 141.779 107.574 140.92 107.73C140.765 107.73 139.751 108.042 139.829 107.963V107.963Z" fill="black"/>
<path fill-rule="evenodd" clip-rule="evenodd" d="M11.1031 69.2435C11.0781 69.3605 11.0551 69.4685 11.0041 69.7075C10.9301 73.5925 2.74106 102.229 6.14106 110.903C16.6401 122.19 12.6471 124.109 20.6681 114.598C24.5691 109.746 25.3291 110.777 24.6311 104.178C23.2651 89.5715 18.8031 69.1795 18.7771 68.9735C16.1691 69.1815 10.0951 68.5625 11.1031 69.2435V69.2435Z" fill="black"/>
<path fill-rule="evenodd" clip-rule="evenodd" d="M6.60522 58.5158C4.84222 60.5118 9.49322 69.1758 10.4972 69.3878C18.5802 70.8478 23.6712 68.7188 23.4382 58.6358C23.1492 56.2828 8.12522 55.6348 6.60522 58.5158V58.5158Z" fill="black"/>
</svg>
