<svg width="177" height="302" viewBox="0 0 177 302" fill="none" xmlns="http://www.w3.org/2000/svg">
<path fill-rule="evenodd" clip-rule="evenodd" d="M18.378 63.3083C14.088 62.3193 9.19102 62.3533 4.80202 62.3242C3.49602 62.3163 3.11902 64.4543 4.48402 64.6753C6.17102 64.9473 7.93502 65.2463 9.71802 65.4963L9.69502 65.5763C7.88402 75.9183 7.40702 86.5553 7.15502 97.0363C6.92502 106.6 6.43702 116.772 7.69802 126.341C5.40102 126.355 3.22902 126.791 1.89602 127.808C0.994023 128.495 1.46902 129.502 2.19102 129.715L2.14902 129.747C4.18402 130.238 6.32402 129.608 8.42002 129.679C10.758 129.758 12.94 130.566 15.246 130.682C16.61 130.75 16.949 128.899 15.909 128.234C14.699 127.46 12.827 126.871 10.801 126.567C11.013 116.761 10.051 106.868 10.288 97.0363C10.538 86.6283 11.58 76.2903 12.094 65.9013L12.088 65.7863C14.096 65.9993 16.099 66.1113 18.014 65.9983C19.486 65.9113 19.958 63.6733 18.378 63.3083" fill="black"/>
<path fill-rule="evenodd" clip-rule="evenodd" d="M64.4589 128.443C60.8819 128.64 57.3099 128.938 53.7369 129.216C54.2289 107.351 54.3649 84.5512 50.4869 63.0052C50.2639 61.7672 48.2699 62.0632 48.3069 63.3002C48.6369 74.5602 49.8659 85.7942 50.3189 97.0562C50.7729 108.332 50.8419 119.618 50.5789 130.9C50.5599 131.697 51.3099 132.523 52.1389 132.46C56.2459 132.151 60.3599 131.893 64.4589 131.502C66.3859 131.318 66.4489 128.333 64.4589 128.443" fill="black"/>
<path fill-rule="evenodd" clip-rule="evenodd" d="M87.3681 127.914C87.0641 127.905 86.813 127.976 86.601 128.091C76.473 123.524 76.9561 108.41 76.5341 98.9602C76.2841 93.3662 76.105 87.7192 76.417 82.1242C76.69 77.2372 77.7941 64.9382 84.6721 64.7412C90.7081 64.5692 93.5681 72.9152 94.5501 77.5662C95.7411 83.2062 96.063 89.1002 96.474 94.8392C97.079 103.264 101.386 128.313 87.3681 127.914V127.914ZM100.24 108.304C100.049 101.284 99.614 94.2722 98.932 87.2832C98.412 81.9412 97.976 76.3782 95.914 71.3662C92.783 63.7512 83.111 57.1072 77.387 66.2922C71.147 76.3032 72.9591 91.0842 73.6451 102.24C74.2461 112.032 74.815 126.982 86.069 130.243C86.301 130.677 86.7331 131.004 87.3681 131.022C99.5461 131.369 100.481 117.17 100.24 108.304V108.304Z" fill="black"/>
<path fill-rule="evenodd" clip-rule="evenodd" d="M132.591 64.7082C129.168 83.5532 125.997 102.435 122.468 121.259C117.97 102.113 113.72 82.8432 108.311 63.9492C107.89 62.4762 105.753 63.1002 106.04 64.5752C110.25 86.2612 115.976 107.707 121.122 129.185C121.47 130.64 123.85 130.721 124.147 129.185C128.231 108.035 132.338 86.8292 135.577 65.5312C135.87 63.5992 132.951 62.7282 132.591 64.7082" fill="black"/>
<path fill-rule="evenodd" clip-rule="evenodd" d="M172.439 105.965C167.949 105.563 163.438 105.38 158.935 105.577C159.055 105.14 158.574 104.635 158.028 104.869C157.146 105.249 156.199 105.435 155.238 105.429C154.869 105.426 154.518 105.372 154.168 105.323C154.149 105.193 154.129 105.061 154.11 104.931C152.51 94.585 151.619 83.746 154.432 73.523C155.653 69.085 158.252 61.309 164.257 62.403C170.786 63.592 171.884 71.219 172.211 76.656C172.797 86.408 172.79 96.203 172.439 105.965V105.965ZM175.618 83.27C175.416 77.098 175.812 69.543 172.114 64.198C169.568 60.518 164.852 58.007 160.4 59.621C155.831 61.277 153.538 66.138 152.1 70.433C147.602 83.87 149.75 98.445 152.24 112.049C153.195 117.264 154.161 123.5 158.63 127.001C162.252 129.837 167.232 130.094 170.47 126.637C171.17 125.89 170.218 124.469 169.319 125.145C163.724 129.353 158.364 123.405 156.716 118.376C155.571 114.88 155.016 111.092 154.477 107.402C154.691 107.389 154.905 107.367 155.122 107.328C155.128 108.065 155.607 108.771 156.582 108.747C162.403 108.603 168.14 108.644 173.94 109.224C174.803 109.31 175.469 108.438 175.5 107.664C175.825 99.534 175.885 91.402 175.618 83.27V83.27Z" fill="black"/>
<path fill-rule="evenodd" clip-rule="evenodd" d="M33.7309 190.295C33.7159 177.6 33.6989 164.905 33.6769 152.209C33.6749 150.773 31.5169 150.034 30.8369 151.44C27.5869 158.161 24.0459 164.717 20.2399 171.134C16.1389 164.502 12.5429 157.634 9.08793 150.633C8.93893 150.333 8.68393 150.185 8.40793 150.147C7.82893 149.875 7.00493 150.149 6.96693 151C5.87493 175.667 6.40893 200.615 6.81893 225.302C6.83093 226.046 7.46593 226.778 8.25193 226.736C9.94393 226.646 10.8659 226.009 11.2149 224.293C11.4029 223.369 10.4559 222.627 9.70793 222.857C9.91093 200.787 10.1479 178.527 9.20793 156.464C11.9249 162.835 15.2619 168.93 18.9859 174.772C19.5919 175.722 20.9719 175.755 21.5709 174.772C24.7819 169.498 27.7989 164.123 30.6279 158.644C30.6249 169.194 30.6229 179.745 30.6239 190.295C30.6259 202.962 30.1669 215.727 30.7019 228.381C30.4639 230.25 33.6209 230.35 33.7019 228.381C34.2199 215.726 33.7449 202.962 33.7309 190.295" fill="black"/>
<path fill-rule="evenodd" clip-rule="evenodd" d="M66.04 154.526C66.046 152.956 63.443 152.491 63.206 154.143C62.232 160.916 63.744 174.732 53.208 173.334C43.598 172.06 42.891 161.319 43.232 153.667C43.29 152.37 41.243 152.079 40.954 153.359C38.9 162.453 41.668 174.437 52.135 176.312C51.373 184.911 51.529 193.677 51.527 202.299C51.526 210.557 50.77 219.545 52.233 227.684C52.518 229.271 54.67 228.684 54.825 227.333C55.791 218.941 54.664 209.91 54.673 201.436C54.682 193.151 55.137 184.832 54.966 176.551C65.41 176.322 66.014 162.842 66.04 154.526" fill="black"/>
<path fill-rule="evenodd" clip-rule="evenodd" d="M105.898 191.376C105.248 198.623 103.574 205.87 100.822 212.616C99.5709 215.681 97.9249 218.901 95.4839 221.2C93.8709 222.719 91.5719 223.182 89.9409 224.44C90.7669 219.531 90.0079 213.988 89.9599 209.095L89.7799 190.9C89.6619 179.106 89.7219 167.282 89.1669 155.498C104.015 161.545 107.23 176.548 105.898 191.376V191.376ZM105.854 166.759C102.931 160.345 97.0119 153.795 89.7239 152.651C88.9849 152.535 88.4429 152.855 88.1669 153.32C87.4499 153.14 86.5879 153.531 86.5589 154.512C86.1969 166.63 86.5129 178.779 86.6369 190.9C86.6959 196.676 86.7549 202.453 86.8139 208.228C86.8709 213.849 86.0179 220.413 87.4569 225.86C87.6959 226.765 88.9039 226.918 89.4359 226.281C93.7929 229.003 99.7129 221.366 101.546 218.223C105.917 210.727 107.951 201.505 108.872 192.963C109.815 184.223 109.555 174.88 105.854 166.759V166.759Z" fill="black"/>
<path fill-rule="evenodd" clip-rule="evenodd" d="M127.324 205.905C125.202 205.921 123.095 205.808 120.982 205.699C121.452 200.637 121.919 195.576 122.381 190.514C123.258 180.915 124.135 171.316 125.012 161.717C127.758 170.809 130.167 179.998 132.188 189.282C133.379 194.756 134.434 200.26 135.366 205.784C132.732 205.497 129.97 205.885 127.324 205.905V205.905ZM138.896 207.947C137.895 201.687 136.725 195.453 135.391 189.255C132.781 177.124 129.515 165.15 125.682 153.348C125.118 151.61 122.759 152.021 122.6 153.765C121.508 165.73 120.417 177.695 119.324 189.659C118.805 195.356 118.285 201.054 117.775 206.752C117.495 209.885 117.214 213.019 116.934 216.152C116.691 218.871 116.036 221.47 117.104 224.028C117.331 224.571 118.017 224.725 118.367 224.193C121.027 220.145 120.286 213.202 120.728 208.461C120.741 208.314 120.755 208.167 120.768 208.02C125.579 208.869 131.248 209.486 135.774 208.309C136.609 213.888 136.941 219.67 138.304 225.112C138.68 226.616 140.944 226.268 140.969 224.752C141.06 219.228 139.768 213.399 138.896 207.947V207.947Z" fill="black"/>
<path fill-rule="evenodd" clip-rule="evenodd" d="M165.882 205.684C163.816 211.911 159.946 216.043 155.331 220.287C155.121 209.19 154.223 198.071 153.614 186.998C153.285 181.006 152.955 175.014 152.625 169.022C152.341 163.847 152.536 158.326 151.662 153.174C153.22 154.128 154.859 154.96 156.303 156.131C159.119 158.415 161.218 161.319 162.747 164.591C165.735 170.984 167.005 178.451 167.515 185.429C168 192.077 168.002 199.296 165.882 205.684V205.684ZM170.528 183.847C169.826 176.35 168.344 168.427 164.771 161.722C162.061 156.639 156.426 150.202 150.131 150.375C149.79 150.384 149.497 150.648 149.384 150.959C149.095 151.182 148.871 151.498 148.828 151.902C148.204 157.728 149.218 164.03 149.539 169.878C149.869 175.87 150.199 181.862 150.528 187.854C151.186 199.824 151.507 211.882 152.765 223.807C152.937 225.443 155.388 225.527 155.38 223.807L155.377 223.61C155.587 223.606 155.803 223.558 156.015 223.442C169.827 215.88 171.837 197.823 170.528 183.847V183.847Z" fill="black"/>
<path fill-rule="evenodd" clip-rule="evenodd" d="M172.947 28.2002C169.234 38.5152 157.948 43.4192 147.807 44.5232C137.135 45.6862 125.374 44.7532 114.822 42.9092C104.46 41.0982 95.066 36.8352 88.629 28.3542C88.535 28.1062 88.371 27.8882 88.162 27.7452L88.127 27.6992C87.436 26.7432 86.03 27.3582 86.165 28.3522C82.197 31.1092 78.549 34.2162 74.325 36.6482C69.762 39.2752 64.955 41.4542 59.968 43.1432C50.081 46.4922 39.572 47.9592 29.148 47.2722C18.27 46.5552 8.01397 42.6462 4.33797 31.4472C1.31997 22.2512 5.33497 11.8062 14.241 8.05619C10.989 12.6302 11.528 19.2942 16.093 23.0362C21.835 27.7442 30.157 25.8942 35.792 22.0752C43.494 16.8552 48.777 7.53919 58.088 4.86519C62.975 3.46119 68.93 3.78619 73.921 4.60319C78.539 5.35919 83.003 7.06519 85.684 11.1042C86.418 12.2102 87.987 11.6192 88.148 10.6262C88.384 10.6932 88.645 10.6612 88.894 10.4742C96.654 4.64319 106.321 1.93419 115.932 4.06719C126.589 6.43319 132.582 15.0282 141.045 21.0302C147.419 25.5502 156.876 28.1362 163.386 22.3412C167.179 18.9642 168.007 13.0322 165.357 8.96519C168.104 10.2132 170.3 12.0882 171.907 15.0772C174.08 19.1192 174.503 23.8752 172.947 28.2002ZM160.983 6.61919C160.609 7.17719 160.6 8.01919 161.318 8.51319C165.182 11.1712 165.182 16.9672 161.912 20.1322C158.415 23.5162 152.898 23.6422 148.554 22.1012C139.779 18.9882 134.358 10.5902 126.713 5.68319C114.944 -1.87081 97.909 -0.808812 87.627 8.83219L87.441 9.08219C83.824 4.23219 78.099 2.39519 72.202 1.75119C64.01 0.856188 56.142 1.43719 49.392 6.52319C42.856 11.4492 37.979 19.1312 30.126 22.1442C25.973 23.7382 20.533 23.8812 17.122 20.5722C13.552 17.1092 13.892 11.0192 16.935 7.38719C17.545 6.65819 16.687 5.71519 15.948 6.19719C8.42097 6.45619 2.99097 12.7792 1.25897 19.8092C-0.595029 27.3282 1.92297 35.4612 6.99797 41.1762C13.225 48.1912 22.59 49.7232 31.534 50.0292C41.189 50.3602 50.935 48.9112 60.104 45.8802C69.486 42.7772 80.306 37.8492 87.43 30.6242C93.649 39.9922 105.374 44.1692 116.089 45.7732C122.798 46.7782 129.644 47.2012 136.42 47.4422C143.184 47.6822 150.131 47.4582 156.645 45.4332C166.022 42.5182 175.422 35.0142 176.46 24.6252C177.285 16.3682 171.417 5.39919 162.108 5.47019C161.409 5.47519 161.005 6.04619 160.983 6.61919V6.61919Z" fill="black"/>
<path fill-rule="evenodd" clip-rule="evenodd" d="M16.441 25.1024C15.382 24.7504 14.439 24.4434 13.616 23.6424C12.806 22.8534 12.275 21.8094 12.186 20.6784C12.131 19.9634 11.069 19.9424 11.058 20.6784C11.02 23.3244 13.337 26.6014 16.291 26.2104C16.899 26.1304 17.084 25.3164 16.441 25.1024Z" fill="black"/>
<path fill-rule="evenodd" clip-rule="evenodd" d="M20.0329 28.6054C18.6339 28.6704 17.3469 28.9284 15.9509 28.5834C14.4609 28.2164 13.2129 27.3834 12.1939 26.2534C11.9239 25.9534 11.3779 26.3584 11.6249 26.6924C13.4019 29.0874 17.3809 31.0094 20.2289 29.3284C20.5499 29.1394 20.4269 28.5874 20.0329 28.6054" fill="black"/>
<path fill-rule="evenodd" clip-rule="evenodd" d="M47.5979 41.481C45.0509 42.8 42.7529 43.782 39.8259 43.825C39.2499 43.834 39.2719 44.651 39.8259 44.705C42.7529 44.993 46.0039 44.324 48.2369 42.31C48.6989 41.894 48.1109 41.215 47.5979 41.481Z" fill="black"/>
<path fill-rule="evenodd" clip-rule="evenodd" d="M49.868 38.6414C47.731 40.0384 45.405 40.7424 42.855 40.2534C42.345 40.1554 42.123 40.9024 42.638 41.0414C45.363 41.7774 48.302 41.2824 50.419 39.3564C50.799 39.0104 50.302 38.3564 49.868 38.6414" fill="black"/>
<path fill-rule="evenodd" clip-rule="evenodd" d="M74.8809 7.90221C72.9899 4.65321 68.0579 5.27521 66.0299 7.96521C65.9059 8.12921 66.1659 8.31021 66.3059 8.17821C68.6209 5.98521 71.7799 6.72521 73.9709 8.60521C74.4519 9.01821 75.2279 8.49921 74.8809 7.90221" fill="black"/>
<path fill-rule="evenodd" clip-rule="evenodd" d="M120.491 7.16296C119.12 4.90596 115.853 4.31896 113.422 4.60696C112.635 4.70096 112.597 5.92796 113.422 5.86996C114.575 5.78796 115.695 5.89896 116.787 6.29296C117.863 6.67996 118.773 7.37196 119.804 7.84896C120.232 8.04796 120.772 7.62496 120.491 7.16296" fill="black"/>
<path fill-rule="evenodd" clip-rule="evenodd" d="M121.219 12.1362C119.192 10.0102 116.87 8.1032 114.62 6.2182C114.153 5.8262 113.49 6.4582 113.94 6.8982C116.035 8.9522 118.16 11.0732 120.473 12.8822C120.994 13.2902 121.701 12.6422 121.219 12.1362" fill="black"/>
<path fill-rule="evenodd" clip-rule="evenodd" d="M148.075 27.0841C146.808 27.0851 145.642 27.2401 144.398 26.8691C143.08 26.4761 141.977 25.7341 141.045 24.7331C140.773 24.4411 140.251 24.8271 140.484 25.1651C142.087 27.4971 145.55 29.2381 148.32 27.9901C148.777 27.7841 148.527 27.0841 148.075 27.0841Z" fill="black"/>
<path fill-rule="evenodd" clip-rule="evenodd" d="M120.79 39.1353C117.226 38.7023 114.033 37.5233 111.162 35.3473C110.799 35.0723 110.329 35.6823 110.673 35.9813C113.508 38.4483 117.014 39.9623 120.79 40.0563C121.398 40.0713 121.362 39.2043 120.79 39.1353" fill="black"/>
<path fill-rule="evenodd" clip-rule="evenodd" d="M167.742 30.678C166.04 31.866 164.668 33.686 163.327 35.254C162.957 35.687 163.53 36.276 163.956 35.884C165.471 34.486 167.245 33.045 168.365 31.301C168.604 30.93 168.118 30.416 167.742 30.678Z" fill="black"/>
<path fill-rule="evenodd" clip-rule="evenodd" d="M166.664 25.7022C166.154 27.7662 165.06 29.5012 163.349 30.7752C162.949 31.0732 163.301 31.7352 163.752 31.4632C165.743 30.2602 167.161 28.2432 167.533 25.9412C167.623 25.3822 166.807 25.1272 166.664 25.7022Z" fill="black"/>
<path fill-rule="evenodd" clip-rule="evenodd" d="M112.13 21.2579C109.608 19.0559 106.148 18.2229 102.916 19.1989C102.39 19.3579 102.615 20.0939 103.139 20.0069C106.21 19.4989 109.033 20.1619 111.547 22.0139C111.985 22.3369 112.54 21.6159 112.13 21.2579Z" fill="black"/>
<path fill-rule="evenodd" clip-rule="evenodd" d="M72.8489 18.8561C70.6619 19.3161 68.3369 19.6171 66.2549 20.4481C65.8739 20.6001 65.8689 21.2991 66.3619 21.2411C68.6279 20.9741 70.8429 20.1331 73.0219 19.4851C73.4269 19.3641 73.2579 18.7701 72.8489 18.8561" fill="black"/>
<path fill-rule="evenodd" clip-rule="evenodd" d="M66.8459 16.6423C64.7459 18.1653 62.2769 18.8213 59.6969 18.8463C59.1949 18.8503 59.2309 19.5383 59.6969 19.6013C62.5299 19.9813 65.1269 19.0443 67.3289 17.2673C67.6779 16.9863 67.2129 16.3763 66.8459 16.6423Z" fill="black"/>
<path fill-rule="evenodd" clip-rule="evenodd" d="M40.5599 24.7984C38.2489 25.0144 35.7679 25.9074 34.3839 27.8654C34.1959 28.1314 34.5779 28.5274 34.8449 28.3254C36.6649 26.9454 38.3239 25.7144 40.6269 25.2964C40.9059 25.2464 40.8449 24.7724 40.5599 24.7984Z" fill="black"/>
<path fill-rule="evenodd" clip-rule="evenodd" d="M74.2419 29.2203C72.7759 30.1903 71.0289 30.4673 69.3399 29.9683C68.9489 29.8533 68.7859 30.4553 69.1719 30.5773C71.0369 31.1633 72.9509 30.8723 74.5399 29.7293C74.8429 29.5113 74.5629 29.0073 74.2419 29.2203" fill="black"/>
<path fill-rule="evenodd" clip-rule="evenodd" d="M139.705 297.676C127.168 295.151 114.947 288.584 103.723 282.629C103.907 282.054 104.061 281.453 104.145 280.798C104.208 280.305 104.24 279.818 104.243 279.336C107.393 279.403 110.288 280.821 112.586 283.138C113.162 283.719 114.288 282.922 113.758 282.234C111.421 279.202 107.848 277.713 104.167 277.904C104.045 276.822 103.775 275.781 103.383 274.793C108.899 272.003 114.828 271.854 120.519 274.711C121.618 275.263 122.568 273.682 121.491 273.05C115.709 269.654 108.293 269.638 102.613 273.196C102.065 272.229 101.401 271.328 100.632 270.516C110.994 262.872 121.776 255.801 132.999 249.482C138.624 246.314 148.088 241.429 152.556 248.98C155.496 253.95 154.869 260.967 155.132 266.504C155.658 277.562 157.535 301.267 139.705 297.676V297.676ZM100.896 282.02C98.412 288.365 91.278 286.217 86.095 286.272C85.699 286.277 85.418 286.442 85.228 286.674C81.962 285.161 79.58 281.91 79.844 278.003C80.289 271.395 87.005 267.578 93.065 269.175C97.192 270.262 101.002 274.083 101.398 278.395C100.966 278.635 101.045 279.228 101.424 279.456C101.388 280.304 101.231 281.164 100.896 282.02V282.02ZM60.549 267.91C67.279 268.42 72.632 269.354 77.934 273.941H77.935C77.563 274.823 77.304 275.76 77.149 276.737C71.952 275.644 66.371 276.231 61.861 279.229C61.16 279.696 61.591 281.042 62.474 280.684C67.255 278.746 71.881 277.558 77.017 277.889C76.991 278.314 76.983 278.744 77.003 279.182C77.079 280.87 77.552 282.427 78.305 283.798C72.238 285.367 66.776 289.207 61.003 291.515C54.226 294.225 46.941 295.904 39.642 296.238C32.423 296.568 24.475 295.157 22.251 287.211C20.342 280.392 21.516 271.912 22.012 264.972C22.469 258.568 22.975 250.89 27.698 245.989C33.427 240.046 42.442 241.161 49.381 243.943C62.455 249.183 72.397 258.768 81.814 268.887C80.502 269.928 79.388 271.207 78.562 272.665C74.053 268.063 66.817 264.715 60.316 266.189C59.303 266.419 59.61 267.838 60.549 267.91V267.91ZM158.156 266.504C157.874 260.398 158.426 252.94 155.187 247.442C152.221 242.409 146.667 241.145 141.253 242.477C133.72 244.329 126.663 249.503 120.168 253.54C112.734 258.161 105.514 263.108 98.481 268.318L98.274 268.505C96.337 267.181 94.075 266.294 91.69 266.02C88.676 265.674 85.719 266.404 83.251 267.888C76.871 257.393 66.488 249.184 55.699 243.567C46.14 238.591 32.532 235.164 24.605 244.905C21.459 248.772 20.234 253.753 19.577 258.591C18.577 265.954 18.293 273.595 18.509 281.02C18.659 286.144 19.49 291.537 23.532 295.109C27.055 298.224 31.986 299.17 36.549 299.296C52.605 299.74 65.78 291.995 80.115 286.227C82.41 288.533 85.701 289.797 89.059 289.398C94.269 290.209 100.199 288.903 102.839 284.587C109.55 288.88 116.662 292.443 124.033 295.461C130.385 298.061 138.364 301.976 145.43 300.911C160.641 298.621 158.659 277.383 158.156 266.504V266.504Z" fill="black"/>
<path fill-rule="evenodd" clip-rule="evenodd" d="M31.577 291.986C28.488 291.625 26.335 288.334 26.855 285.355C26.995 284.549 25.884 284.221 25.618 285.014C24.331 288.847 27.661 292.816 31.577 292.652C32.015 292.634 31.995 292.035 31.577 291.986" fill="black"/>
<path fill-rule="evenodd" clip-rule="evenodd" d="M28.1949 279.801C27.9379 279.272 27.1379 279.651 27.2709 280.191C27.9469 282.942 29.2179 285.439 30.3659 288.01C30.4879 288.281 30.9179 288.087 30.8399 287.81C30.0749 285.09 29.4389 282.356 28.1949 279.801Z" fill="black"/>
<path fill-rule="evenodd" clip-rule="evenodd" d="M41.3361 245.35C38.5561 244.557 35.6111 245.819 33.7771 247.945C33.3561 248.433 34.0431 249.142 34.4921 248.661C36.2961 246.724 38.6461 246.144 41.2161 246.234C41.7301 246.252 41.8191 245.488 41.3361 245.35" fill="black"/>
<path fill-rule="evenodd" clip-rule="evenodd" d="M54.544 258.624C52.579 257.534 50.361 257.517 48.192 257.838C47.967 257.871 48.018 258.257 48.246 258.237C50.353 258.057 52.293 258.636 54.278 259.255C54.652 259.372 54.887 258.814 54.544 258.624" fill="black"/>
<path fill-rule="evenodd" clip-rule="evenodd" d="M58.8599 256.787C56.5489 255.834 54.2129 254.966 51.8689 254.099C51.4009 253.925 51.2199 254.653 51.6659 254.836C53.9799 255.786 56.2889 256.731 58.6369 257.596C59.1509 257.785 59.3469 256.988 58.8599 256.787Z" fill="black"/>
<path fill-rule="evenodd" clip-rule="evenodd" d="M60.165 283.094C58.767 284.205 57.045 284.799 55.26 284.674C54.564 284.626 54.585 285.677 55.26 285.747C57.377 285.967 59.376 285.324 60.863 283.792C61.317 283.324 60.651 282.708 60.165 283.094Z" fill="black"/>
<path fill-rule="evenodd" clip-rule="evenodd" d="M45.6119 270.79C43.5629 270.71 41.5219 270.751 39.4709 270.784C38.9709 270.792 38.9709 271.553 39.4709 271.561C41.5219 271.594 43.5619 271.635 45.6119 271.555C46.1039 271.536 46.1049 270.809 45.6119 270.79" fill="black"/>
<path fill-rule="evenodd" clip-rule="evenodd" d="M87.287 282.741C84.576 283.935 81.938 280.904 83.744 278.456C84.006 278.101 83.426 277.658 83.134 277.985C81.926 279.335 81.702 281.471 82.917 282.904C84.109 284.311 86.244 284.565 87.735 283.508C88.207 283.174 87.808 282.512 87.287 282.741" fill="black"/>
<path fill-rule="evenodd" clip-rule="evenodd" d="M93.85 280.349C91.471 280.292 89.191 279.249 87.749 277.326C87.382 276.837 86.551 277.287 86.908 277.818C88.465 280.138 91.045 281.468 93.85 281.114C94.324 281.054 94.357 280.362 93.85 280.349" fill="black"/>
<path fill-rule="evenodd" clip-rule="evenodd" d="M125.27 257.724C123.55 258.942 121.731 260.023 119.992 261.217C119.674 261.435 119.95 261.924 120.297 261.739C122.154 260.745 123.948 259.628 125.818 258.662C126.445 258.338 125.839 257.322 125.27 257.724Z" fill="black"/>
<path fill-rule="evenodd" clip-rule="evenodd" d="M134.107 257.63C131.387 258.71 128.74 259.91 126.09 261.151C125.522 261.417 126.018 262.219 126.575 261.982C129.231 260.855 131.856 259.704 134.44 258.419C134.871 258.205 134.565 257.448 134.107 257.63" fill="black"/>
<path fill-rule="evenodd" clip-rule="evenodd" d="M149.471 260.301C149.135 259.88 148.466 260.421 148.735 260.869C149.998 262.975 150.466 265.216 150.377 267.661C150.357 268.198 151.204 268.323 151.322 267.789C151.918 265.099 151.178 262.443 149.471 260.301" fill="black"/>
<path fill-rule="evenodd" clip-rule="evenodd" d="M136.067 290.95C133.516 290.25 131.139 289.267 128.977 287.727C128.616 287.47 128.298 288.053 128.635 288.313C130.782 289.97 133.197 291.17 135.883 291.616C136.313 291.687 136.505 291.07 136.067 290.95Z" fill="black"/>
<path fill-rule="evenodd" clip-rule="evenodd" d="M143.979 287.391C141.38 286.421 138.73 285.591 136.086 284.755C135.483 284.565 135.241 285.489 135.827 285.695C138.443 286.616 141.059 287.545 143.72 288.331C144.331 288.512 144.557 287.607 143.979 287.391Z" fill="black"/>
</svg>
