<svg width="170" height="176" viewBox="0 0 170 176" fill="none" xmlns="http://www.w3.org/2000/svg">
<path fill-rule="evenodd" clip-rule="evenodd" d="M86.6124 100.623C86.3224 100.693 86.0314 100.762 85.7414 100.832C83.6624 108.243 81.5834 115.654 79.4684 123.193C84.0644 123.523 88.4114 123.836 93.0864 124.172C90.8784 116.141 88.7454 108.382 86.6124 100.623ZM84.6714 99.4238C88.4404 97.6098 95.6884 96.4978 97.5504 100.315C101.711 111.547 104.61 123.187 106.405 135.39C85.8194 142.024 106.01 121.406 78.8044 125.264C77.9864 128.687 77.1774 132.064 76.3694 135.441C76.0904 135.412 75.8104 135.382 75.5314 135.352C76.6814 123.452 82.1194 111.526 84.6714 99.4238" fill="black"/>
<path fill-rule="evenodd" clip-rule="evenodd" d="M51.5182 135.315C73.1882 135.574 71.7252 98.1608 51.5182 99.9588V135.315ZM41.7902 134.992C41.3412 123.028 40.9012 111.326 40.4572 99.5138C80.2812 87.3548 75.4362 148.322 41.7902 134.992Z" fill="black"/>
<path fill-rule="evenodd" clip-rule="evenodd" d="M54.3608 45.5334C55.2718 58.1684 56.1928 70.9464 57.1248 83.8874C58.7798 84.3084 60.4028 84.7224 62.0258 85.1364C55.4258 87.2724 47.6628 88.2214 40.5628 86.1244C42.6098 85.9394 44.6558 85.7534 46.6448 85.5724C47.7228 81.2544 45.8628 48.6454 44.3388 45.2324H36.0608C36.0618 44.9794 36.0618 44.7254 36.0618 44.4724C44.0208 44.1574 51.9798 43.8414 60.4858 43.5044C58.5688 45.8374 56.0838 43.9664 54.3608 45.5334" fill="black"/>
<path fill-rule="evenodd" clip-rule="evenodd" d="M115.724 97.7633C116.236 110.298 116.731 122.437 117.247 135.076C139.173 133.132 138.432 94.9623 115.724 97.7633V97.7633ZM108.534 96.1333C147.386 89.3243 138.574 144.09 110.886 135.287C106.616 122.755 109.26 109.159 108.534 96.1333" fill="black"/>
<path fill-rule="evenodd" clip-rule="evenodd" d="M125.326 151.259C142.638 148.822 144.225 140.497 147.037 126.962C151.037 123.881 155.159 121.462 155.652 115.5C156.547 110.478 153.198 106.644 154.201 101.43C158.084 93.8745 163.153 86.3565 158.671 78.2675C155.264 72.9675 149.001 68.9175 151.338 61.7275C159.243 39.3935 133.419 45.7235 131.36 28.0785C129.961 23.5305 126.597 20.1485 122.314 18.1375C114 13.5525 104.739 20.8175 95.9752 17.6755C68.7532 -1.99054 65.9022 15.2835 54.5742 21.3425C48.3542 22.9915 41.9722 21.9155 35.1512 23.9675C14.2532 31.8125 35.0552 45.1395 14.9952 55.3265C13.1142 56.9835 11.0612 59.3695 10.3602 62.4475C6.54223 74.6685 17.2672 78.4965 14.2952 86.2315C0.145232 115.726 23.6992 109.054 18.7372 131.177C18.9972 134.436 20.1072 136.278 22.5772 139.291C25.3552 142.478 28.3412 144.162 32.4302 145.155C53.8292 144.051 50.5232 165.157 67.2622 165.109C72.6892 164.791 75.8382 159.814 81.7052 159.859C101.967 165.152 103.642 171.167 117.024 153.375C119.178 151.457 121.542 150.881 125.326 151.259V151.259ZM74.1402 7.00146C95.6742 7.92046 92.6372 19.8855 107.86 15.5375C137.516 11.1655 130.123 32.1175 138.309 37.1525C144.126 40.7885 150.662 41.8825 153.895 49.0935C157.055 54.9625 152.722 60.2175 152.908 66.6745C164.159 83.2355 166.044 85.3505 156.279 101.698C157.771 117.276 160.454 118.759 148.91 128.801C147.349 143.61 137.979 154.228 122.277 153.274C113.263 156.934 108.458 171.602 96.1282 166.996C67.1082 152.14 70.9512 185.282 46.2282 151.698C41.9432 146.652 37.0222 147.908 30.6432 146.902C18.8532 143.209 15.5162 134.343 17.0362 123.419C16.8962 120.695 16.2302 118.695 14.3082 116.19C4.04423 107.073 7.32923 96.2955 12.1722 85.3695C13.8862 80.2405 8.44123 76.5505 7.68823 71.1485C5.03423 52.4535 18.9132 54.5195 22.8872 44.1035C22.6952 38.0055 20.9442 32.2735 25.8522 27.5465C32.8272 18.5625 44.4272 21.9015 54.1242 19.3715C60.6562 15.2105 65.2972 7.18746 74.1402 7.00146" fill="black"/>
<path fill-rule="evenodd" clip-rule="evenodd" d="M83.7261 175.858V166.763C85.1631 169.18 85.2641 171.711 83.7261 175.858Z" fill="black"/>
<path fill-rule="evenodd" clip-rule="evenodd" d="M102.901 0.694168C102.544 3.95517 101.572 7.05417 99.5979 9.89617C100.416 6.79617 101.234 3.69617 102.052 0.597168C102.335 0.629168 102.618 0.662168 102.901 0.694168Z" fill="black"/>
<path fill-rule="evenodd" clip-rule="evenodd" d="M49.794 13.9532C49.044 11.4322 48.294 8.91124 47.543 6.38924C47.833 6.29124 48.122 6.19224 48.411 6.09424C49.296 8.58924 50.18 11.0852 51.065 13.5812C50.641 13.7052 50.218 13.8292 49.794 13.9532Z" fill="black"/>
<path fill-rule="evenodd" clip-rule="evenodd" d="M41.3374 153.826C39.8304 156.315 38.3234 158.805 36.8164 161.294C36.5124 161.116 36.2074 160.937 35.9014 160.759C37.4014 158.24 38.9014 155.721 40.4004 153.201C40.7124 153.409 41.0254 153.618 41.3374 153.826Z" fill="black"/>
<path fill-rule="evenodd" clip-rule="evenodd" d="M121.295 160.549C122.744 162.762 123.879 165.069 123.838 168.655C121.793 165.688 121.486 163.136 121.295 160.549Z" fill="black"/>
<path fill-rule="evenodd" clip-rule="evenodd" d="M160.33 102.619C163.326 103.203 166.322 103.787 169.318 104.371C169.264 104.661 169.209 104.951 169.155 105.241C166.174 104.673 163.192 104.105 160.211 103.536C160.251 103.23 160.29 102.925 160.33 102.619Z" fill="black"/>
<path fill-rule="evenodd" clip-rule="evenodd" d="M15.9532 44.361C14.2722 43.018 12.5912 41.675 10.9102 40.332C11.0822 40.11 11.2542 39.887 11.4262 39.665C13.4492 40.596 15.5002 41.486 16.6252 43.647C16.4012 43.885 16.1772 44.123 15.9532 44.361" fill="black"/>
<path fill-rule="evenodd" clip-rule="evenodd" d="M161.279 135.572C159.21 134.568 157.141 133.563 155.007 132.528C157.656 131.911 159.533 132.706 161.279 135.572Z" fill="black"/>
<path fill-rule="evenodd" clip-rule="evenodd" d="M0.12793 84.0444C2.67093 84.2114 5.21493 84.3784 8.02093 84.5624C6.36793 85.5634 6.36793 85.5634 0.12793 84.0444Z" fill="black"/>
<path fill-rule="evenodd" clip-rule="evenodd" d="M11.2364 123.234C9.31136 123.938 7.38736 124.641 5.46236 125.344C5.36536 125.089 5.26936 124.834 5.17236 124.579C7.09736 123.877 9.02136 123.174 10.9464 122.473C11.0434 122.727 11.1394 122.981 11.2364 123.234Z" fill="black"/>
<path fill-rule="evenodd" clip-rule="evenodd" d="M159.632 64.2667C161.151 63.4877 162.67 62.7087 164.189 61.9297C164.305 62.1427 164.421 62.3577 164.537 62.5717C163.032 63.3967 161.528 64.2237 160.023 65.0497C159.893 64.7877 159.762 64.5277 159.632 64.2667" fill="black"/>
<path fill-rule="evenodd" clip-rule="evenodd" d="M144.766 26.4521C144.005 28.2771 142.593 29.1991 140.423 29.0771C141.894 28.2281 143.366 27.3791 144.836 26.5301L144.766 26.4521Z" fill="black"/>
<path fill-rule="evenodd" clip-rule="evenodd" d="M144.836 26.5303C145.662 25.4893 146.487 24.4473 147.81 22.7803C146.942 25.4893 146.942 25.4893 144.766 26.4523L144.836 26.5303" fill="black"/>
<path fill-rule="evenodd" clip-rule="evenodd" d="M26.2314 113.376C26.0954 115.263 23.7154 118.015 21.9424 115.645C20.3564 112.643 23.9764 109.793 26.2314 113.376" fill="black"/>
<path fill-rule="evenodd" clip-rule="evenodd" d="M21.3331 62.6202C18.5741 60.5032 17.8441 58.5062 20.9681 57.5562C23.7911 57.7242 24.2561 59.6372 21.3331 62.6202Z" fill="black"/>
<path fill-rule="evenodd" clip-rule="evenodd" d="M45.4562 144.424C46.8482 142.677 49.8392 141.819 50.2012 145.033C48.8082 147.953 47.7762 146.773 45.4562 144.424Z" fill="black"/>
<path fill-rule="evenodd" clip-rule="evenodd" d="M23.082 90.0725C21.734 88.7685 21.007 84.0685 24.613 85.0945C26.455 86.5945 25.945 89.2165 23.082 90.0725Z" fill="black"/>
<path fill-rule="evenodd" clip-rule="evenodd" d="M55.3823 154.747C56.8923 153.14 61.6583 151.863 60.0493 155.652C58.5703 157.664 57.9323 157.051 55.3823 154.747Z" fill="black"/>
<path fill-rule="evenodd" clip-rule="evenodd" d="M149.283 109.785C150.543 110.479 151.957 113.071 150.095 113.917C147.116 114.37 146.449 111.263 149.283 109.785Z" fill="black"/>
<path fill-rule="evenodd" clip-rule="evenodd" d="M30.2969 139.923C31.4419 139.478 33.3129 136.033 34.6589 139.158C34.2879 141.476 32.0129 143.266 30.2969 139.923" fill="black"/>
<path fill-rule="evenodd" clip-rule="evenodd" d="M126.678 35.267C124.575 35.265 123.656 30.834 127.017 30.813C128.359 31.671 128.378 33.719 126.678 35.267Z" fill="black"/>
<path fill-rule="evenodd" clip-rule="evenodd" d="M112.338 146.702C113.438 147.704 114.011 150.475 111.756 150.748C108.57 150.479 109.659 147.335 112.338 146.702Z" fill="black"/>
<path fill-rule="evenodd" clip-rule="evenodd" d="M20.126 100.704C19.793 102.196 17.748 103.898 16.676 102.098C15.486 98.7488 18.478 97.7038 20.126 100.704Z" fill="black"/>
<path fill-rule="evenodd" clip-rule="evenodd" d="M27.1803 127.46C27.6943 128.776 28.1293 129.89 28.6263 131.163C26.0343 133.779 22.7503 128.646 27.1803 127.46Z" fill="black"/>
<path fill-rule="evenodd" clip-rule="evenodd" d="M82.7247 149.898C83.3847 150.798 84.7087 153.731 82.1507 154.087C79.5547 153.619 79.2807 151.754 82.7247 149.898Z" fill="black"/>
<path fill-rule="evenodd" clip-rule="evenodd" d="M131.554 144.507C132.05 143.113 132.488 141.884 133.008 140.423C136.207 141.312 135.932 146.197 131.554 144.507Z" fill="black"/>
<path fill-rule="evenodd" clip-rule="evenodd" d="M104.548 154.857C106.488 155.758 107.604 159.129 104.236 159.38C102.23 158.494 102.802 156.465 104.548 154.857Z" fill="black"/>
<path fill-rule="evenodd" clip-rule="evenodd" d="M145.823 54.8513C144.476 53.5473 142.648 50.8433 145.746 50.1133C148.014 50.8303 147.524 52.3933 145.823 54.8513Z" fill="black"/>
<path fill-rule="evenodd" clip-rule="evenodd" d="M147.735 77.1294C149.854 77.4464 151.343 80.8824 147.702 80.8814C145.802 80.6604 146.077 78.6794 147.735 77.1294Z" fill="black"/>
<path fill-rule="evenodd" clip-rule="evenodd" d="M124.606 144.846C123.326 146.554 119.702 147.284 120.585 143.673C121.893 142.267 122.511 143.152 124.606 144.846Z" fill="black"/>
<path fill-rule="evenodd" clip-rule="evenodd" d="M156.581 89.0597C155.091 90.4017 152.141 92.2887 152.081 89.0047C152.915 87.1787 154.298 86.6057 156.581 89.0597Z" fill="black"/>
<path fill-rule="evenodd" clip-rule="evenodd" d="M78.6085 17.6615C77.3345 18.8375 74.4875 20.7955 74.0905 17.6895C74.8515 15.6605 76.2235 15.7395 78.6085 17.6615Z" fill="black"/>
<path fill-rule="evenodd" clip-rule="evenodd" d="M57.0132 31.0728C55.7182 28.9968 54.5942 28.0228 57.0852 26.0098C58.3312 27.5638 59.2322 28.5118 57.0132 31.0728Z" fill="black"/>
<path fill-rule="evenodd" clip-rule="evenodd" d="M93.7433 159.43C92.1853 157.743 91.0183 156.819 93.6293 154.943C95.3993 156.218 95.8153 156.792 93.7433 159.43Z" fill="black"/>
<path fill-rule="evenodd" clip-rule="evenodd" d="M70.7939 155.048C72.5489 156.087 72.9189 160.252 69.8369 158.915C68.4109 157.482 69.0319 157.012 70.7939 155.048Z" fill="black"/>
<path fill-rule="evenodd" clip-rule="evenodd" d="M35.7202 31.9531C35.5322 33.2661 34.3762 36.6892 31.9772 34.6892C31.2802 33.3042 33.3422 31.2801 35.7202 31.9531" fill="black"/>
<path fill-rule="evenodd" clip-rule="evenodd" d="M147.968 100.889C147.218 99.8618 146.293 98.2238 148.125 97.0908C151.32 96.9688 151.47 100.721 147.968 100.889Z" fill="black"/>
<path fill-rule="evenodd" clip-rule="evenodd" d="M43.4404 27.4422C44.5104 27.0542 45.5944 26.6602 46.7524 26.2402C48.6414 29.9912 43.6504 32.3682 43.4404 27.4422Z" fill="black"/>
<path fill-rule="evenodd" clip-rule="evenodd" d="M117.236 26.3276C115.596 24.4446 114.016 23.5306 117.169 21.8276C118.465 23.2106 119.182 23.7736 117.236 26.3276Z" fill="black"/>
<path fill-rule="evenodd" clip-rule="evenodd" d="M65.0239 21.3625C66.9529 20.5735 69.4759 22.1405 67.3659 24.3985C65.8299 25.6085 64.6889 23.2565 65.0239 21.3625Z" fill="black"/>
<path fill-rule="evenodd" clip-rule="evenodd" d="M21.1323 71.93C20.1733 72.906 19.5403 73.551 18.9063 74.197C16.1323 72.847 17.8143 68.382 21.1323 71.93Z" fill="black"/>
<path fill-rule="evenodd" clip-rule="evenodd" d="M140.49 131.594C141.327 133.334 141.163 135.339 139.657 135.714C137.199 135.632 138.153 133.226 140.49 131.594Z" fill="black"/>
<path fill-rule="evenodd" clip-rule="evenodd" d="M143.303 67.7291C142.752 65.8361 144.558 63.8051 146.517 65.7521C148.325 67.8161 144.857 68.5111 143.303 67.7291Z" fill="black"/>
<path fill-rule="evenodd" clip-rule="evenodd" d="M89.0616 23.5227C87.1096 23.3537 86.4466 18.9877 89.5686 20.3287C90.3746 21.1627 90.8116 22.5647 89.0616 23.5227Z" fill="black"/>
<path fill-rule="evenodd" clip-rule="evenodd" d="M142.929 125.152C142.358 123.871 142.031 123.137 141.532 122.018C142.975 121.626 144.154 121.305 145.332 120.985C145.506 121.262 145.679 121.539 145.853 121.816C144.98 122.813 144.107 123.809 142.929 125.152Z" fill="black"/>
<path fill-rule="evenodd" clip-rule="evenodd" d="M134.862 48.2744C133.409 46.7494 133.306 46.0644 135.41 44.5264C136.635 45.8334 137.489 46.6844 134.862 48.2744Z" fill="black"/>
<path fill-rule="evenodd" clip-rule="evenodd" d="M104.996 26.7119C103.932 27.6349 101.007 27.4209 102.091 24.7559C103.139 23.0159 104.793 25.2359 104.996 26.7119Z" fill="black"/>
<path fill-rule="evenodd" clip-rule="evenodd" d="M29.9785 50.7786C28.2535 50.9926 26.4365 48.3726 28.9045 47.5376C29.9375 47.9136 30.6755 48.9616 29.9785 50.7786Z" fill="black"/>
<path fill-rule="evenodd" clip-rule="evenodd" d="M100.79 88.5173C111.507 77.2923 127.909 63.4323 121.56 46.5493C115.087 31.6083 103.707 43.0263 95.574 46.7603C88.959 40.4283 81.377 34.8563 73.319 42.7873C58.34 61.5423 86.144 82.2893 100.79 88.5173ZM96.315 44.6793C112.926 28.8033 128.194 40.0763 124.466 59.1073C120.635 72.3503 111.037 81.6073 100.849 90.1563C43.75 68.1103 71.435 17.8203 96.315 44.6793" fill="black"/>
<path fill-rule="evenodd" clip-rule="evenodd" d="M96 55.9791C91.271 47.8731 75.477 45.2221 76.671 57.8591C79.647 67.8331 92.817 79.1751 100.09 82.5251C125.761 62.0981 112.299 39.1571 96 55.9791ZM100.79 88.5171C49.169 65.3021 70.953 21.5321 96.406 46.8431C113.662 32.3611 125.76 40.6531 122.187 59.8741C118.873 71.9251 109.216 79.3471 100.79 88.5171Z" fill="#F269C2"/>
<path fill-rule="evenodd" clip-rule="evenodd" d="M99.1821 81.0228C120.427 63.8088 113.223 40.7938 95.7721 58.9548C91.4961 51.7278 76.4711 45.5698 79.1861 59.5078C83.8041 68.3078 91.8121 73.7958 99.1821 81.0228ZM96.0001 55.9798C102.753 47.5128 114.955 48.5588 114.768 59.6458C113.559 67.2048 103.12 84.8908 98.1251 81.9168C56.9181 51.8328 85.7051 40.6748 96.0001 55.9798" fill="black"/>
<path fill-rule="evenodd" clip-rule="evenodd" d="M99.1821 81.023C62.0871 51.15 84.9551 43.562 95.7721 58.955C99.3991 55.353 104.766 49.652 110.65 53.913C117.626 60.732 104.158 77.895 99.1821 81.023Z" fill="#E9B0D1"/>
</svg>
