<svg width="100" height="142" viewBox="0 0 100 142" fill="none" xmlns="http://www.w3.org/2000/svg">
<path fill-rule="evenodd" clip-rule="evenodd" d="M56.2779 42.728C82.5028 57.6833 115.643 16.5704 78.1933 15.709C66.5862 23.6642 70.2603 21.5988 76.0192 19.5334C80.53 17.9154 86.3196 16.2984 87.0522 19.4931C90.4447 24.4158 88.0813 35.2383 74.8533 39.5292C58.2785 46.9514 54.1108 35.0438 55.5205 23.1373C57.303 8.0893 67.996 -6.95865 73.8164 17.0097C75.9171 6.88837 72.0953 1.99899 67.1741 2C58.8069 2.00302 47.2673 16.1392 56.2779 42.728" fill="black"/>
<path fill-rule="evenodd" clip-rule="evenodd" d="M33.3424 2.12533C32.1428 2.23016 32.5163 2.88586 32.36 3.02333C30.5433 4.01825 29.6847 6.41358 29.3274 7.07026C20.1415 25.685 33.4165 23.6022 28.5581 18.77C27.2256 14.6934 29.6228 10.0511 31.4638 7.73288C31.5491 6.71621 31.5359 6.66775 31.955 6.73599C32.5488 5.19218 34.5167 4.42868 35.3205 3.75221C35.97 3.67507 35.7275 3.56925 35.898 3.49706C38.1988 2.70389 38.7275 3.07871 39.4968 3.12619C41.4891 5.15559 40.6 5.45327 40.6995 5.96458C41.412 9.8503 40.3646 9.71778 40.5868 10.7898C40.5087 12.2545 40.5188 11.8995 40.4102 12.2407C40.1717 12.5799 40.2702 12.7787 40.192 12.8143L40.5594 13.1614C39.7719 14.812 40.125 15.0079 39.9748 14.9881L40.2235 15.5231C38.9447 19.3208 38.7113 21.9248 38.2099 24.2499C38.4768 24.4922 38.621 24.6277 38.6321 24.6643C36.4572 27.2871 37.8689 29.4411 37.0468 29.9633C36.924 31.8473 36.6835 31.7564 36.7677 32.1292L36.6419 32.2874C33.6814 47.678 45.9384 42.8112 41.2892 39.9204C41.1105 38.1472 40.5818 37.6537 40.7076 37.3679L40.5401 37.2502C41.2475 36.4174 41.1166 35.6431 41.3064 35.4225C40.9278 33.3813 41.5266 32.3863 40.8233 31.8948C42.0574 28.8814 42.1112 26.7649 42.1346 25.5069C43.047 22.8931 43.2317 21.7587 43.0794 20.7262C44.7794 17.7909 44.2517 16.4192 44.3318 15.624C45.1996 10.1826 45.4107 6.05062 43.8071 3.63452C42.8734 0.962284 40.4214 0 38.1196 0C35.8279 0 33.6855 0.954372 33.3424 2.12533" fill="black"/>
<path fill-rule="evenodd" clip-rule="evenodd" d="M0 68.5101C0.111039 97.9174 38.8848 68.3249 17.8623 63.7841C14.3351 65.0348 21.1735 64.8108 21.1275 65.707C26.4014 75.3799 4.5166 90.0169 2.72197 71.0294C1.9787 48.7947 58.5048 18.3328 20.2432 90.1214C24.5997 99.3822 34.6253 58.5184 48.4942 51.793C59.5952 59.7691 40.7585 86.7995 41.4517 87.857C42.9132 99.2906 58.6258 58.5692 71.4564 54.2137C82.5523 52.4103 48.7633 91.417 72.2947 94C53.382 91.2785 98.7681 28.434 62.3842 60.267C56.9582 66.3393 51.6724 73.95 50.2158 76.4405C61.7889 49.6052 51.6443 37.3771 34.4692 67.342C40.2003 51.1865 34.5973 43.998 26.2533 44C16.918 44.002 4.15247 53.0018 0 68.5101Z" fill="black"/>
<path fill-rule="evenodd" clip-rule="evenodd" d="M77.5889 86.7286C70.2463 90.7034 79.9911 71.5689 82.7765 70.1716C77.2596 68.9021 73.4597 77.1207 73.8747 79.9342C67.6755 91.233 79.2938 91.8519 84.9334 78.6995C84.0694 81.4902 82.3465 87.2294 80.2904 90.7669C50.0953 92.8615 61.7496 123.624 83.1546 91.3054C90.1928 88.7825 94.6542 84.6003 96 77.8535C93.5359 81.3841 88.2983 89.5213 84.0694 89.5907C86.8887 83.1048 88.0769 74.076 92.5991 70.1716C92.1192 70.0555 91.6703 70 91.2463 70C85.0082 70.001 84.3468 81.8968 77.5889 86.7286V86.7286ZM68.0985 95.8129C71.1771 94.471 75.8151 93.399 79.3217 92.4836C78.1046 98.317 68.0087 104.015 64.1519 104.015C61.7186 104.014 61.7685 101.745 68.0985 95.8129Z" fill="black"/>
<path fill-rule="evenodd" clip-rule="evenodd" d="M11.8083 100.945C10.1894 104.878 14.1899 108.811 18.5078 105.859C14.2655 117.232 13.9683 123.281 9.77932 129.782C6.13742 130.723 -0.155074 133.557 1.18382 136.126C1.11229 139.04 2.4814 138.998 3.78403 138.956C4.17895 138.944 4.56782 138.93 4.90834 139C11.0084 138.411 13.6419 136.868 17.0188 135.255C16.3448 135.391 15.8008 135.525 15.3958 135.659C15.4633 135.592 15.4633 135.592 15.4633 135.462C32.2725 129.223 53.2888 99.3677 37.3067 95.7967C33.5197 95.2427 30.2355 95 27.3995 95C17.4661 95 13.0313 97.9731 11.8083 100.945V100.945ZM22.5003 106.19C22.4328 106.058 22.6363 105.792 22.7723 105.792C44.2067 101.499 37.0438 111.155 29.5373 119.355C22.9909 125.501 19.35 127.836 17.5568 127.836C12.8158 127.836 20.9912 111.514 22.5003 106.19" fill="black"/>
<path fill-rule="evenodd" clip-rule="evenodd" d="M45.2292 117.396C38.7757 123.565 48.0319 130.326 51.6006 127.083C53.7659 125.701 53.1403 126.046 53.7244 125.738C61.0791 131.796 66.0501 124.198 68 120.288C67.664 119.953 67.3329 119.681 66.8704 119.615C57.2446 130.591 57.4304 126.427 57.6873 122.262C57.8425 119.732 58.0244 117.202 56.0488 118.066C53.5959 122.425 51.1964 124.347 49.543 125.738C49.543 125.602 49.4748 125.535 49.543 125.471C53.2559 117.19 54.0643 119.245 55.8482 116.589V116.518C61.2165 113.55 55.6634 112.365 55.3837 111.81C54.1493 111.075 53.0227 111.228 52.8646 111C48.4786 111.057 46.5554 116.018 45.2292 117.396" fill="black"/>
<path fill-rule="evenodd" clip-rule="evenodd" d="M81.5574 106.114C79.9885 109.314 80.3505 114.778 77.8369 112.208C69.9015 111.87 66.5619 117.512 66.0663 123.154C65.3323 131.488 70.8056 139.822 76.8368 128.876C76.8368 129.016 76.9724 129.077 77.0367 129.217C77.5817 137.03 80.7502 141.175 85.6784 142C93.6455 137.106 91.7472 135.073 93.784 133.231C93.784 133.165 93.8503 133.097 93.9819 133.029C94.1391 131.268 95.7328 129.789 95.8416 129.548C95.2194 128.083 98.094 126.223 98.1702 125.533C98.7963 124.427 99.6945 123.052 99.2326 122.65C99.3454 122.544 100.315 121.58 99.8954 121.58C100.444 117.388 97.547 122.662 94.8662 127.938C92.7562 132.088 90.7808 136.239 90.7244 135.776C90.0616 136.041 89.9983 136.377 88.6688 136.58H88.7301C88.6688 136.645 88.6015 136.845 88.6015 136.916C87.9734 136.617 87.7587 136.484 87.6153 136.358C87.7478 136.183 87.9407 136.24 88.1317 136.179C85.898 134.355 86.1859 133.065 85.3431 131.824C83.7 123.864 84.9692 125.8 84.5478 123.587C85.0958 119.619 85.3638 118.694 85.8782 117.831C96.6814 101.411 95.7219 95 91.8956 95C88.7331 95.001 83.61 99.3835 81.5574 106.114V106.114ZM87.9388 105.686C89.1733 101.881 90.6433 98.0758 90.7926 98.0778C94.428 94.2335 93.7029 98.8831 92.2112 103.535C91.0113 107.279 89.3148 111.025 89.0002 110.333C87.6549 112.441 86.8773 113.293 86.5014 113.293C85.7061 113.293 86.7042 109.49 87.9388 105.686V105.686ZM72.6495 131.224C71.1261 128.089 72.8177 126.014 73.4488 124.729C77.5926 117.064 77.7538 121.477 76.363 125.889C75.5232 128.557 74.1155 131.225 72.6782 131.224C72.6683 131.224 72.6594 131.224 72.6495 131.224ZM85.6092 132.893C85.4786 132.893 85.4786 132.764 85.4786 132.695C85.0799 132.023 84.6773 131.291 84.4785 130.417C85.7447 132.591 85.2808 132.368 85.7427 133.097H85.6092C85.6784 133.029 85.6784 132.964 85.6092 132.893ZM83.882 133.764H84.0126L84.0818 133.831V133.901C84.0818 133.831 84.0818 133.831 83.882 133.764ZM86.4718 136.109C85.9406 135.505 85.5429 134.838 85.0127 134.169C86.911 135.787 86.4609 136.051 86.8714 136.242V136.512C86.6716 136.377 86.4718 136.31 86.4718 136.109ZM84.4142 134.768L84.4785 134.703C84.4785 134.768 84.614 134.838 84.614 134.905H84.4785C84.4785 134.838 84.4785 134.838 84.4142 134.768ZM87.1395 135.908C87.3393 135.776 87.4006 135.839 87.4006 135.908C87.5797 136.027 87.55 136.199 87.5856 136.331C87.4719 136.225 87.3897 136.116 87.1395 135.908V135.908ZM80.8906 138.318C80.7591 138.252 80.6908 138.187 80.6908 138.119L80.8263 138.048C80.8906 138.119 80.9609 138.187 81.0222 138.252C81.0222 138.318 80.9609 138.451 81.0222 138.52L82.2221 138.494C81.2715 138.89 83.794 140.264 84.3479 140.93C82.0767 140.365 81.4149 139.263 80.8906 138.318V138.318ZM83.2825 139.66C83.2825 139.589 83.3508 139.589 83.3508 139.589C83.3597 139.696 83.3389 139.703 83.328 139.697C83.332 139.702 83.3399 139.711 83.3508 139.725L83.2825 139.66Z" fill="black"/>
</svg>
