<svg width="88" height="165" viewBox="0 0 88 165" fill="none" xmlns="http://www.w3.org/2000/svg">
<path fill-rule="evenodd" clip-rule="evenodd" d="M28.9103 12.3802C27.4649 11.9362 21.8495 7.54603 21.4307 9.30823C22.3499 10.1302 30.2459 15.526 28.9103 12.3802" fill="black"/>
<path fill-rule="evenodd" clip-rule="evenodd" d="M36.4864 3.41123C35.8786 3.02543 34.6072 -0.542175 33.457 0.972825C33.4516 1.42942 36.2746 5.43443 36.4864 3.41123Z" fill="black"/>
<path fill-rule="evenodd" clip-rule="evenodd" d="M47.9685 2.94423C47.8317 3.66603 44.1849 5.67123 45.9285 6.16743C46.5285 5.86503 50.5209 2.86983 47.9685 2.94423Z" fill="black"/>
<path fill-rule="evenodd" clip-rule="evenodd" d="M57.2994 8.95801C56.3886 9.41461 50.3982 14.1294 52.4886 14.211C53.16 13.2456 59.4222 9.95041 57.2994 8.95801" fill="black"/>
<path fill-rule="evenodd" clip-rule="evenodd" d="M83.2437 54.4531C83.9757 38.5633 75.3741 30.5149 61.1217 31.5091C61.3989 46.8589 60.9927 62.6563 61.3797 78.2131C76.4403 81.6373 83.3619 66.3655 83.2437 54.4531V54.4531ZM78.3417 34.3111C97.9059 50.5705 80.9571 91.7419 61.3071 80.3071C61.2477 80.2891 61.1871 80.2771 61.1277 80.2591C60.8157 80.1571 60.6891 79.8871 60.7071 79.6291C60.6831 79.5931 60.6537 79.5631 60.6237 79.5211C58.9329 64.2013 59.6589 46.9285 60.3591 31.0711C61.9443 28.0987 72.4311 31.3537 74.3157 32.4031C75.4977 32.8891 76.5777 33.5131 77.5497 34.2571C77.7831 34.1191 78.0831 34.0951 78.3417 34.3111" fill="black"/>
<path fill-rule="evenodd" clip-rule="evenodd" d="M78.6717 125.229C83.1969 126.502 88.3611 136.642 81.3447 136.06C77.8443 132.523 75.6693 127.896 70.3389 131.52C64.4985 135.799 67.8819 148.372 68.7549 153.226C69.5655 155.853 71.9997 159.262 75.1317 158.883C78.7083 156.654 76.7679 149.86 77.5077 146.013C77.4477 146.019 77.3817 146.031 77.3217 146.037C72.6315 146.712 68.0481 143.85 72.2403 140.133C75.1461 139.224 82.5645 139.114 82.7457 142.293C84.3117 147.054 84.1251 156.34 81.4197 161.436C78.4917 167.054 69.0921 165.412 65.9997 160.62C57.6033 149.046 58.1997 118.356 78.6717 125.229Z" fill="white"/>
<path fill-rule="evenodd" clip-rule="evenodd" d="M68.0756 70.9111C79.9742 70.5391 79.955 34.9723 68.0936 38.7451C67.9676 38.7751 67.8716 38.8291 67.7936 38.8951C65.48 43.8403 67.4654 53.2189 66.83 59.5417C67.265 62.4991 65.8634 72.1501 67.9796 70.9111C68.0096 70.9111 68.039 70.9171 68.0756 70.9111V70.9111ZM77.9816 36.7471C89.4422 49.7137 82.3856 83.2129 61.3796 78.2131C60.9968 62.8687 61.3952 47.0461 61.1216 31.5091C67.0856 31.0651 73.6676 32.2891 77.9816 36.7471" fill="white"/>
<path fill-rule="evenodd" clip-rule="evenodd" d="M81.8574 103.713C84.3324 105.957 74.2674 104.813 74.2854 103.743C74.268 103.689 74.244 103.623 74.2374 103.551C74.5104 97.9924 72.192 86.32 74.3214 86.7334C83.2206 85.7362 85.044 89.227 74.8374 87.7714C75.1254 90.8734 75.3894 94.0114 75.4734 97.1434C80.4816 97.0138 81.3456 99.9862 75.4974 98.1574C75.5214 99.8434 75.492 101.529 75.3774 103.209C77.4954 103.167 79.8294 103.257 81.8574 103.713" fill="black"/>
<path fill-rule="evenodd" clip-rule="evenodd" d="M68.1717 43.2751C68.2077 42.4951 68.2557 41.7211 68.3091 40.9471C68.2497 40.9831 68.1837 41.0131 68.1237 41.0551C68.1417 41.7931 68.1591 42.5311 68.1717 43.2751V43.2751ZM68.4237 57.2311C68.3637 56.5309 68.2971 55.8295 68.2497 54.5611C68.2497 55.4791 68.2371 56.3911 68.2317 57.3091C68.2917 57.2731 68.3577 57.2431 68.4237 57.2311V57.2311ZM75.4197 55.1011C75.4437 52.1371 75.7611 45.8791 73.8177 42.3931H73.8111C72.8823 41.8339 72.0435 40.5667 70.4391 40.4971C70.3737 47.0731 70.1577 53.6491 69.9297 60.2251C70.2417 63.1771 70.5477 66.2131 69.9777 69.0331C74.6457 66.2911 75.3717 60.3451 75.4197 55.1011V55.1011ZM76.7091 52.8751C76.7895 59.3269 76.2903 69.6745 67.9797 70.9111C67.6737 71.2771 66.9297 71.1631 66.9237 70.5511C66.8337 60.1711 66.6891 49.7251 67.0131 39.3511C67.0257 38.8951 67.4817 38.7451 67.7937 38.8951C67.8717 38.8291 67.9677 38.7751 68.0937 38.7451C76.2177 36.9811 76.6611 47.5771 76.7091 52.8751Z" fill="black"/>
<path fill-rule="evenodd" clip-rule="evenodd" d="M68.4717 93.8613C68.4891 89.7753 65.5677 87.3753 61.6851 87.7893C62.0391 91.7613 62.3391 95.7633 62.3757 99.7593C62.4177 99.7533 62.4537 99.7413 62.4957 99.7413C65.9757 99.9393 68.4537 97.2933 68.4717 93.8613ZM66.3657 100.785C67.3557 100.81 70.6779 104.754 67.7403 103.803C66.3291 102.34 65.0001 101.097 62.5131 101.265C62.4591 101.265 62.4177 101.253 62.3697 101.241C61.7673 109.692 60.5055 98.8851 60.7923 96.5157C61.1757 92.9265 59.0643 87.2817 61.0977 86.7033C70.3497 83.9673 72.3957 97.6713 65.9871 100.629C66.1131 100.677 66.2457 100.731 66.3657 100.785" fill="black"/>
<path fill-rule="evenodd" clip-rule="evenodd" d="M66.4374 111.417C64.146 112.255 59.8044 111.949 58.0728 113.725C57.0342 120.031 62.2764 117.469 66.1014 118.365C63.1716 115.176 62.2818 114.652 66.4374 111.417ZM68.3094 110.889C68.4768 112.127 66.4218 112.926 65.5134 114.165C64.2012 115.213 66.8772 116.829 67.7754 118.509C69.2466 120.261 63.7896 119.081 62.1816 119.325C60.1908 119.248 56.6562 119.958 56.7576 116.916C56.9274 114.866 55.7778 112.682 58.0014 111.699C60.339 111.206 69.2718 108.357 68.3094 110.889" fill="black"/>
<path fill-rule="evenodd" clip-rule="evenodd" d="M61.5593 112.413C63.1853 112.083 64.8113 111.753 66.4373 111.417C63.0659 114.175 62.4491 114.761 66.1013 118.365C63.9365 117.867 60.9467 118.586 58.5281 117.524C57.2129 114.232 57.9449 112.616 61.5593 112.413" fill="#FFE900"/>
<path fill-rule="evenodd" clip-rule="evenodd" d="M65.2075 20.019C67.2415 20.7696 61.6117 22.8984 60.5491 22.1076C60.9793 20.7162 63.4261 20.736 65.2075 20.019Z" fill="black"/>
<path fill-rule="evenodd" clip-rule="evenodd" d="M51.9718 128.451C51.9928 125.581 55.5447 124.826 57.1641 126.512C58.8525 129.658 57.4365 134.014 57.8511 137.599C57.1995 145.647 59.7429 165.238 54.5697 164.601C50.6859 166.14 50.1705 160.441 48.6105 157.717C46.0647 151.739 44.1736 146.776 41.4778 140.787C41.6218 147.705 41.5798 154.647 41.1112 161.451C40.8718 164.919 35.9037 164.937 35.7111 161.451C35.0817 150.315 35.2078 139.011 35.0758 127.857C35.0458 125.505 37.1938 124.605 38.9218 125.121C45.0484 128.251 49.0047 146.839 51.6957 150.675C51.9081 143.655 51.9118 135.762 51.9718 128.451" fill="white"/>
<path fill-rule="evenodd" clip-rule="evenodd" d="M52.3495 98.4029C53.0629 98.4149 53.8195 98.3789 54.5389 98.4809C53.6755 95.5229 52.8055 92.5829 51.7015 89.6789C51.0235 92.5889 50.4775 95.5169 49.9615 98.4509C50.6869 98.2469 51.6235 98.3849 52.3495 98.4029V98.4029ZM57.3175 103.563C55.9885 105.59 55.4887 101.199 54.9235 99.7889C53.5759 99.8639 51.5443 99.9365 49.7815 99.4889C49.1989 100.364 49.9459 104.402 48.1183 104.379C47.3161 99.4757 49.8619 93.1853 50.6329 88.0451C52.2775 81.7565 57.4951 102.665 57.3175 103.563Z" fill="black"/>
<path fill-rule="evenodd" clip-rule="evenodd" d="M55.7456 19.851C57.9716 20.0046 54.9734 26.7126 55.127 28.512C54.3134 30.3324 55.1018 34.284 53.1176 34.095L52.8956 33.633C52.8956 33.585 52.883 33.537 52.8956 33.483C53.6456 29.601 54.4016 25.713 55.1516 21.825C52.4078 23.2722 49.832 27.276 47.0054 28.2768C44.0762 22.4754 41.8478 15.8868 38.7476 9.98701C32.6768 32.274 37.538 30.726 27.587 25.833C28.5056 28.719 29.4296 31.599 30.2756 34.503C30.2816 34.509 30.2756 34.515 30.2816 34.521L30.413 35.175C30.335 35.193 30.2576 35.205 30.1796 35.223C30.0536 35.247 29.9576 35.205 29.885 35.139C23.6672 21.579 24.9242 22.7568 33.5276 27.549C39.4556 -3.60299 38.0582 7.3182 47.561 26.691C50.0996 24.177 52.8176 21.903 55.7456 19.851" fill="black"/>
<path fill-rule="evenodd" clip-rule="evenodd" d="M55.1516 21.8253C54.4016 25.7133 53.6456 29.6013 52.8956 33.4833C52.8836 33.5373 52.8956 33.5853 52.8956 33.6333C52.8536 33.6093 52.8116 33.5853 52.7516 33.5733C45.3176 32.2893 37.5536 32.4273 30.2816 34.5213C30.2756 34.5153 30.2816 34.5093 30.2756 34.5033C29.4296 31.5993 28.5056 28.7193 27.5876 25.8333C29.4734 26.3253 33.0512 29.8095 34.5776 28.6479C35.6672 22.7205 37.1606 16.0311 38.7476 9.9873C50.4116 33.6153 43.4744 30.1407 55.1516 21.8253" fill="#FFE900"/>
<path fill-rule="evenodd" clip-rule="evenodd" d="M54.8217 78.0512C54.8337 78.4112 54.4197 78.5792 54.1497 78.4712C54.0537 78.5732 53.9337 78.6572 53.7891 78.6632C51.7371 78.6716 49.8303 79.0448 47.2317 78.8732C47.1801 78.9188 46.4391 79.076 46.0077 78.4832C45.1677 78.0872 44.4891 77.4572 44.1177 76.5872C43.8237 76.5092 43.6977 76.2152 43.7871 75.9872V75.9812L44.5197 75.7052C44.5257 75.7052 44.5317 75.7112 44.5437 75.7172C47.0277 75.6332 49.7631 75.5612 52.1997 76.0232C50.9157 69.7058 50.7273 62.2778 50.1657 55.6832L51.4737 55.5752C51.6777 57.9992 51.9717 60.4472 52.2717 62.9012C52.1091 60.9392 51.9537 58.9772 51.7797 57.0212L53.1777 56.8892C53.8257 63.9212 54.6957 70.9952 54.8217 78.0512" fill="black"/>
<path fill-rule="evenodd" clip-rule="evenodd" d="M53.0815 55.8513C53.1115 56.1993 53.1421 56.5413 53.1775 56.8893L51.7795 57.0213C51.5995 54.9753 51.3595 52.8993 51.1075 50.8113C51.2215 52.4013 51.3355 53.9913 51.4735 55.5753L50.1661 55.6833C49.6231 48.8571 48.8701 41.1693 48.8995 34.1133C44.2921 33.6213 39.7615 33.7473 35.1955 34.3653C35.1895 34.4313 35.1835 34.5033 35.1775 34.5693L34.2775 34.4913C32.9941 34.6833 31.7095 34.9113 30.4135 35.1753L30.2815 34.5213C37.5535 32.4273 45.3181 32.2893 52.7515 33.5733C52.8115 33.5853 52.8535 33.6093 52.8955 33.6333L53.1181 34.0953C52.8559 34.7559 52.3513 34.5843 50.8555 34.3533C52.6291 40.8267 52.3651 48.9375 53.0815 55.8513V55.8513ZM49.9255 34.8213C49.9315 34.5393 50.1421 34.3533 50.3755 34.2873C50.2015 34.2633 50.0335 34.2393 49.8595 34.2213C49.8661 34.2273 49.8661 34.2333 49.8715 34.2453C49.8895 34.4373 49.9075 34.6293 49.9255 34.8213" fill="black"/>
<path fill-rule="evenodd" clip-rule="evenodd" d="M51.3657 118.959C52.1931 120.421 50.3037 120.132 48.1131 119.955C46.7091 118.494 47.4141 113.816 47.4891 111.489C47.5017 111.435 47.5257 111.399 47.5437 111.351C49.1379 109.059 55.3209 112.433 48.7257 111.975C48.8457 112.875 48.8757 113.811 48.8631 114.759C49.0677 114.687 49.2777 114.633 49.5051 114.621C51.3093 114.64 52.1487 116.405 48.8331 115.905C48.7917 116.919 48.7131 117.927 48.6477 118.899C49.3365 118.904 49.8489 118.661 51.3657 118.959" fill="black"/>
<path fill-rule="evenodd" clip-rule="evenodd" d="M42.8335 66.3453C44.2303 65.6829 42.7453 62.1555 42.8689 60.2481C41.6077 54.4827 42.7855 47.4381 40.2979 43.1019C38.6791 50.0751 38.6371 59.4093 38.7181 66.7233C39.0937 67.0455 42.9427 68.0655 42.8335 66.3453V66.3453ZM50.2075 56.1633C50.7535 62.6793 50.8975 69.5853 52.1995 76.0233C49.7635 75.5613 47.0275 75.6333 44.5441 75.7173C44.5315 75.7113 44.5255 75.7053 44.5201 75.7053C44.0995 74.7735 44.3521 72.1161 42.9775 71.2233C41.9047 71.2269 39.9067 71.1615 38.2495 71.5113C37.5109 72.3591 37.5709 74.1327 36.8755 75.6993C36.8161 75.6753 36.7495 75.6573 36.6775 75.6513C34.6459 75.6087 32.4463 75.4359 29.8855 75.7953C31.6975 62.2629 34.1143 48.1065 35.1961 34.3653C39.7615 33.7473 44.2921 33.6213 48.8995 34.1133C48.8671 40.9575 49.5991 48.6453 50.1661 55.6833C50.1835 55.8453 50.1961 56.0013 50.2075 56.1633" fill="white"/>
<path fill-rule="evenodd" clip-rule="evenodd" d="M45.2755 111.339C46.3861 115.72 44.4181 125.966 44.0815 116.229C43.1815 116.229 42.2629 116.187 41.3629 116.133C41.5609 120.737 39.6181 121.071 39.7855 115.973C39.1687 109.465 41.7145 109.107 41.4055 114.969C42.2815 114.915 43.1695 114.873 44.0389 114.873C44.0845 114.226 43.2931 109.15 45.2755 111.339" fill="black"/>
<path fill-rule="evenodd" clip-rule="evenodd" d="M44.5196 75.7052L43.787 75.9812C43.433 75.0332 43.0496 74.0792 42.7556 73.1012C42.707 73.1192 42.6656 73.1492 42.611 73.1612C42.1298 73.7636 41.6852 73.313 40.2296 73.3832C39.5414 74.522 39.5576 77.273 38.1182 78.2972C35.3378 78.6908 28.8212 79.1564 28.5476 76.2872C28.5476 76.2632 28.5416 76.2392 28.5476 76.2152C30.389 62.3432 31.7036 48.2552 34.2776 34.4912L35.1776 34.5692C34.085 48.3452 31.7156 62.1032 29.885 75.7952C31.6916 75.4604 34.2458 75.5882 36.6776 75.6512C36.7496 75.6572 36.8156 75.6752 36.8756 75.6992C37.4336 74.801 37.3388 72.7202 38.2496 71.5112C39.401 71.2388 41.1476 71.2334 42.9776 71.2232C44.1164 71.8166 44.051 74.0192 44.5196 75.7052" fill="black"/>
<path fill-rule="evenodd" clip-rule="evenodd" d="M41.0872 66.1172C41.5132 66.0992 41.9458 66.0812 42.3658 66.0872C41.8396 63.728 41.7298 60.323 41.3332 57.4472C41.3158 59.1932 41.1892 60.9392 40.9498 62.6792C40.9978 63.8252 41.0458 64.9712 41.0872 66.1172V66.1172ZM43.4572 65.7692C43.5052 66.1952 43.1632 66.3812 42.8332 66.3452C43.1212 67.6562 39.895 67.4426 38.7178 66.7232C39.505 28.7408 41.3986 42.8552 43.4572 65.7692Z" fill="black"/>
<path fill-rule="evenodd" clip-rule="evenodd" d="M39.7556 87.351C39.611 92.3928 41.1776 98.6634 38.8646 103.58C30.695 111.261 29.8232 95.6328 30.2546 90.4416C30.0386 88.5996 30.752 84.6846 31.5668 87.4986C30.7466 92.5056 32.201 111.159 38.2262 101.465C39.2798 98.6718 36.8978 83.4576 39.7556 87.351" fill="black"/>
<path fill-rule="evenodd" clip-rule="evenodd" d="M38.1775 110.649C39.5311 111.297 38.6167 112.38 36.8455 112.059C37.1863 124.41 34.3411 119.475 35.5255 112.041C30.6079 111.61 35.5411 110.082 38.1775 110.649Z" fill="black"/>
<path fill-rule="evenodd" clip-rule="evenodd" d="M31.0612 127.557C32.0812 138.777 32.2132 150.189 32.1832 161.451C32.1772 165.609 25.8478 165.585 25.7458 161.451C25.4752 150.171 25.0372 138.837 25.1812 127.557C25.2352 123.711 30.7252 123.849 31.0612 127.557" fill="white"/>
<path fill-rule="evenodd" clip-rule="evenodd" d="M26.5016 114.981C27.4178 111.729 20.2874 112.395 18.1736 111.417C21.5468 114.172 22.1594 114.765 18.5096 118.365C21.0944 117.598 27.3332 119.626 26.5016 114.981ZM26.6096 111.699C28.829 112.232 28.1432 118.026 26.9468 118.966C25.5602 119.521 14.4254 120.057 16.8356 118.509C17.0834 117.419 20.3786 115.651 19.0976 114.165C18.6968 113.148 16.2212 112.475 16.3016 110.889C15.7466 108.178 25.3958 111.614 26.6096 111.699" fill="black"/>
<path fill-rule="evenodd" clip-rule="evenodd" d="M25.4392 112.899C26.7832 113.326 26.5678 113.944 26.4934 115.507C26.8792 119.74 21.388 117.463 18.5092 118.365C21.4372 115.177 22.3312 114.652 18.1738 111.417C20.2966 111.884 22.933 112.34 25.4392 112.899Z" fill="#FFE900"/>
<path fill-rule="evenodd" clip-rule="evenodd" d="M24.0593 54.4529C24.7925 38.5619 16.1867 30.5153 1.93735 31.5089C2.21515 46.8587 1.80835 62.6561 2.19595 78.2129C17.2559 81.6371 24.1775 66.3653 24.0593 54.4529V54.4529ZM19.1513 34.3109C38.7281 50.5703 21.7685 91.7429 2.12335 80.3069C2.06335 80.2889 2.00335 80.2769 1.94395 80.2589C1.63135 80.1569 1.50535 79.8869 1.52335 79.6289C1.49935 79.5929 1.46335 79.5629 1.43935 79.5209C-0.250854 64.2011 0.475146 46.9283 1.17535 31.0709C2.75275 28.0991 13.2443 31.3529 15.1313 32.4029C16.3133 32.8889 17.3939 33.5129 18.3659 34.2569C18.5993 34.1189 18.8993 34.0949 19.1513 34.3109" fill="black"/>
<path fill-rule="evenodd" clip-rule="evenodd" d="M23.2854 100.527C24.5274 96.5647 24.3138 88.0273 20.2794 87.1171C15.3594 88.5205 16.0194 95.7445 16.8294 99.7531C17.0334 101.253 17.946 102.027 19.572 102.069C19.5894 102.087 19.6134 102.105 19.6314 102.123C20.7714 102.292 22.2168 101.883 23.2854 100.527ZM20.9574 85.8871C27.12 87.1453 26.52 105.252 20.5014 104.643C12.5412 104.708 13.3416 85.2823 20.3334 86.0311C20.4894 85.8931 20.6994 85.8211 20.9574 85.8871Z" fill="black"/>
<path fill-rule="evenodd" clip-rule="evenodd" d="M8.89186 70.9111C20.7899 70.5391 20.7713 34.9723 8.90926 38.7451C8.78326 38.7751 8.68726 38.8291 8.60926 38.8951C6.40546 42.2815 8.26006 50.1481 7.62826 54.9487C8.08846 59.1451 6.60706 72.4159 8.79586 70.9111C8.82586 70.9111 8.85526 70.9171 8.89186 70.9111ZM18.7979 36.7471C30.2579 49.7137 23.2019 83.2129 2.19586 78.2131C1.81306 62.8687 2.21146 47.0461 1.93726 31.5091C7.90186 31.0651 14.4779 32.2891 18.7979 36.7471" fill="white"/>
<path fill-rule="evenodd" clip-rule="evenodd" d="M22.6134 161.055C20.9136 171.698 9.7254 152.282 8.2794 149.919C8.1834 150.033 8.0874 150.159 7.992 150.273C8.76 155.276 5.6148 170.265 1.0068 159.683C1.6446 148.427 1.0038 138.163 0.608398 126.944C7.9302 117.844 8.0982 135.359 8.0634 139.641C11.0256 136.144 17.2164 117.04 21.1386 127.483C18.8274 134.399 14.4192 140.119 10.818 146.433C15.162 150.315 20.457 155.592 22.6134 161.055" fill="white"/>
<path fill-rule="evenodd" clip-rule="evenodd" d="M21.4976 21.5251C23.3096 22.8547 16.4342 22.7119 16.5428 21.3625C17.7536 20.6977 19.5758 21.4351 21.4976 21.5251Z" fill="black"/>
<path fill-rule="evenodd" clip-rule="evenodd" d="M8.98735 43.2751C9.02395 42.4951 9.07195 41.7211 9.12535 40.9471C9.06595 40.9831 8.99995 41.0131 8.93935 41.0551C8.95735 41.7931 8.97535 42.5311 8.98735 43.2751V43.2751ZM9.23935 57.2311C9.17935 56.5309 9.11335 55.8295 9.06595 54.5611C9.06595 55.4791 9.05335 56.3911 9.04795 57.3091C9.10735 57.2731 9.17395 57.2431 9.23935 57.2311V57.2311ZM16.2353 55.1011C16.2593 52.1371 16.5773 45.8791 14.6333 42.3931H14.6273C13.6985 41.8339 12.8597 40.5667 11.2553 40.4971C11.1893 47.0731 10.9739 53.6491 10.7459 60.2251C11.0513 63.1771 11.3633 66.2131 10.7939 69.0331C15.4613 66.2911 16.1873 60.3451 16.2353 55.1011ZM17.5253 52.8751C17.6057 59.3269 17.1065 69.6745 8.79595 70.9111C8.48935 71.2771 7.73935 71.1631 7.73935 70.5511C7.64995 60.1711 7.50535 49.7251 7.82935 39.3511C7.84195 38.8951 8.29795 38.7451 8.60935 38.8951C8.68735 38.8291 8.78335 38.7751 8.90935 38.7451C17.0333 36.9811 17.4773 47.5771 17.5253 52.8751Z" fill="black"/>
<path fill-rule="evenodd" clip-rule="evenodd" d="M11.3633 87.4112C12.0179 90.1292 9.31789 92.5352 6.73729 92.6432C8.88229 113.233 4.37569 102.773 5.66329 92.5652C3.30049 92.894 -0.792709 86.1146 1.77589 86.6486C2.43589 89.4824 6.08749 92.9972 8.96209 90.2384C10.2437 89.4626 9.74749 85.874 11.3633 87.4112" fill="black"/>
</svg>
