<svg width="112" height="145" viewBox="0 0 112 145" fill="none" xmlns="http://www.w3.org/2000/svg">
<path fill-rule="evenodd" clip-rule="evenodd" d="M98.6902 126.382C104.246 112.853 99.982 82.6609 85.5322 79.6783C85.6606 96.8971 86.3596 114.764 86.6842 132.196C91.5922 133.978 96.4222 130.876 98.6902 126.382V126.382ZM111.284 107.674C113.665 125.791 106.055 144.941 86.7202 143.302C85.2802 143.842 83.6422 143.854 82.2442 143.254C76.453 143.272 77.5594 136.622 77.371 132.324C77.1748 123.608 76.9918 115.332 76.8022 106.601C77.4202 91.7155 72.6736 68.3557 81.5122 70.4083C101.744 68.1697 110.873 90.9055 111.284 107.674" fill="white"/>
<path fill-rule="evenodd" clip-rule="evenodd" d="M57.6023 119.29C56.2571 109.944 54.7913 100.081 53.3543 90.4725C52.4399 99.9525 51.3839 109.864 50.6483 119.626C52.9523 119.326 55.3583 119.338 57.6023 119.29ZM70.7723 135.58C71.8367 141.575 65.2925 144.513 61.3403 140.45C59.3975 137.509 60.0293 133.36 59.1383 129.797C56.4815 130.036 52.5797 130.297 49.4603 129.875C48.7487 135.334 46.1957 148.65 40.0553 140.175C38.3051 130.982 39.9533 121.298 40.8899 111.972C44.2103 89.2119 41.0789 68.8449 52.4783 68.4585C64.8593 68.6055 63.1703 88.2915 65.0873 95.9313C66.7685 109.214 68.9045 122.296 70.7723 135.58" fill="white"/>
<path fill-rule="evenodd" clip-rule="evenodd" d="M22.6163 126.382C28.1705 112.851 23.9117 82.6586 9.45827 79.6784C9.59027 96.8972 10.2845 114.764 10.6103 132.196C15.5183 133.978 20.3483 130.876 22.6163 126.382V126.382ZM35.2103 107.674C37.5911 125.791 29.9813 144.942 10.6463 143.302C9.20627 143.842 7.57427 143.854 6.17027 143.254C0.379069 143.272 1.48547 136.623 1.29707 132.324C1.10087 123.608 0.918469 115.332 0.732469 106.602C1.34687 91.7174 -3.40573 68.3516 5.44427 70.4084C25.6679 68.1686 34.8059 90.9104 35.2103 107.674" fill="white"/>
<path fill-rule="evenodd" clip-rule="evenodd" d="M111.163 43.8849C110.775 46.2711 112.811 54.4593 108.223 52.4229C103.777 53.5209 98.1009 52.9569 93.7269 52.0689C93.7149 52.0629 93.7089 52.0569 93.7029 52.0569C92.7957 52.5465 91.7157 51.0537 90.7509 50.1429C90.6549 50.1249 90.5589 50.1129 90.4629 50.0949C90.2949 50.0709 90.1929 49.9509 90.1389 49.8069C89.9349 49.6869 89.7849 49.4709 89.7907 49.1589C89.7907 49.0389 89.7969 48.9129 89.7969 48.7929L91.3869 48.8109C91.4289 48.8289 91.4709 48.8529 91.5189 48.8829C91.5609 48.9129 91.6029 48.9489 91.6509 48.9789C96.5475 48.7647 102.103 48.7779 107.395 48.8589C107.461 48.8589 107.521 48.8709 107.581 48.8889C107.395 47.0769 107.281 44.8689 107.671 43.0689C105.655 43.2969 103.525 43.1409 101.467 42.9069L101.665 41.1249C103.699 41.4303 109.425 39.7785 109.681 42.3789C109.915 42.6969 110.071 43.0389 110.167 43.4109C110.539 43.2669 111.073 43.4649 111.163 43.8849" fill="black"/>
<path fill-rule="evenodd" clip-rule="evenodd" d="M110.143 3.69108C110.227 3.91308 110.155 4.12908 110.011 4.28508C109.827 6.92928 110.893 11.3285 109.357 13.7831C108.567 14.5133 106.956 13.9445 105.427 13.8431C103.831 13.9451 102.157 13.7891 100.651 13.4951C100.48 14.5745 100.577 16.3421 100.219 17.9891C101.092 18.2441 104.402 16.9451 104.677 19.0091L103.447 19.7951C102.052 19.4885 98.6785 20.4857 97.4287 18.8951C96.6883 16.9085 97.1755 13.7729 97.5367 11.1971C97.1683 8.62488 106.049 10.0865 107.623 9.80508C107.665 7.62108 107.605 5.45508 107.545 3.27708C102.187 3.60948 96.1591 3.44148 90.7087 2.52108C90.7807 2.31708 90.8647 2.11308 90.9547 1.91508C90.9787 1.85508 91.0387 1.81908 91.1047 1.80108C95.7115 0.826082 103.326 1.50348 108.487 1.64508C108.918 2.17368 109.27 2.76228 110.143 3.69108" fill="black"/>
<path fill-rule="evenodd" clip-rule="evenodd" d="M107.545 3.27711C107.605 5.45511 107.665 7.62111 107.623 9.80511C105.08 9.92991 96.6172 8.90451 97.537 11.1971C97.333 13.2947 96.547 16.4087 97.429 18.8951C98.2114 20.2445 101.537 19.6037 103.447 19.7951C102.559 22.0631 102.655 24.8471 103.201 27.2711C101.899 27.2051 100.585 27.3011 99.2831 27.3431C99.0491 27.3551 98.8691 27.4931 98.7551 27.6731C96.8591 31.0259 97.741 37.3865 98.263 41.2631C98.269 41.2811 98.281 41.2931 98.287 41.3171C97.1374 43.6829 106.133 43.0289 107.671 43.0691C107.281 44.8691 107.395 47.0771 107.581 48.8891C107.521 48.8711 107.461 48.8591 107.395 48.8591C102.453 48.7721 96.9748 48.7649 91.651 48.9791C91.603 48.9491 91.5611 48.9131 91.5191 48.8831C91.4711 48.8531 91.429 48.8291 91.387 48.8111C91.2064 33.6245 92.7658 18.0221 91.729 2.68311C96.973 3.47511 102.253 3.58911 107.545 3.27711" fill="white"/>
<path fill-rule="evenodd" clip-rule="evenodd" d="M106.327 20.8093C106.794 23.4985 106.116 26.5021 106.303 29.6893C107.021 31.9633 103.938 31.0177 102.079 30.9193C102.339 34.5841 101.929 39.1117 101.467 42.9073C100.789 42.6337 97.3983 43.1203 98.2869 41.3173C98.2809 41.2933 98.2689 41.2813 98.2629 41.2633C97.7835 37.2925 96.7815 31.3597 98.7549 27.6733C98.8689 27.4933 99.0489 27.3553 99.2829 27.3433C100.585 27.3013 101.899 27.2053 103.201 27.2713C102.655 24.8473 102.559 22.0633 103.447 19.7953L104.677 19.0093C104.839 19.1137 105.15 19.2799 105.199 19.9093C105.385 20.1013 105.601 20.2573 105.805 20.4253C106.033 20.4313 106.255 20.5693 106.327 20.8093" fill="black"/>
<path fill-rule="evenodd" clip-rule="evenodd" d="M91.7289 2.683C92.7759 17.665 91.2063 33.487 91.3869 48.811L89.7969 48.793C90.3915 33.5716 89.1711 17.8408 90.7089 2.521L91.7289 2.683Z" fill="black"/>
<path fill-rule="evenodd" clip-rule="evenodd" d="M86.8389 1.60287C87.2109 1.88487 87.4088 2.34087 87.1508 2.78487C87.1148 2.83887 87.0728 2.89287 87.0248 2.94087C82.5638 18.4395 81.2223 35.4489 76.5909 50.8449C76.5429 50.8929 76.4888 50.9409 76.4288 50.9829C75.6848 52.6359 67.0509 52.7073 67.6989 49.9029C65.3715 48.0573 65.8388 42.0117 65.1152 38.9403C63.566 26.5899 61.0983 14.4657 59.7249 1.92687L60.9429 1.91487C63.6495 17.2689 66.1653 33.0885 68.3469 48.8229C68.3949 48.8049 68.4308 48.7809 68.4848 48.7689C70.3688 48.4089 72.3669 48.1929 74.2989 48.1629C76.7955 32.9619 79.7313 17.0121 84.4209 2.04687C82.3209 2.49687 80.0229 2.60487 77.9109 2.25687L76.4889 1.82487C76.5729 1.59087 76.7589 1.44687 76.9629 1.37487C78.4791 0.0278654 82.8747 0.0974654 85.2849 0.174865C85.4709 0.0968654 85.6809 0.138865 85.8249 0.270865C85.9329 0.330865 86.0229 0.402865 86.0709 0.510865C86.1669 0.744865 86.2809 0.990865 86.4369 1.19487C86.4489 1.20687 86.5089 1.27287 86.5149 1.27887C86.5695 1.34127 86.5647 1.31727 86.8089 1.56687C86.8149 1.57887 86.8449 1.60287 86.8629 1.61487C86.8569 1.61487 86.8509 1.60887 86.8389 1.60287" fill="black"/>
<path fill-rule="evenodd" clip-rule="evenodd" d="M84.4209 2.04704C79.7577 16.933 76.8687 32.5678 74.2989 48.163C72.3669 48.193 70.3689 48.409 68.4849 48.769C68.4309 48.781 68.3949 48.805 68.3469 48.823C66.2187 33.3892 63.6903 17.5672 60.9429 1.91504C62.6901 2.40464 65.3937 2.21624 67.6989 2.19104C68.9325 8.74304 70.2903 36.2284 72.3609 30.895C74.8755 21.8542 76.5315 11.7424 77.9109 2.25704C80.0229 2.60504 82.3209 2.49704 84.4209 2.04704" fill="white"/>
<path fill-rule="evenodd" clip-rule="evenodd" d="M71.9768 26.2928C72.0248 25.8368 72.0788 25.3808 72.1388 24.9308C72.0608 25.0028 71.9648 25.0448 71.8568 25.0628C71.8928 25.4768 71.9408 25.8848 71.9768 26.2928V26.2928ZM76.4888 1.8248L77.9108 2.2568C76.5788 11.5706 74.897 21.6764 72.3608 30.8948C72.0338 31.8428 70.6574 31.9346 70.7846 29.9354C70.205 20.5178 68.5844 11.732 67.6988 2.1908C65.9024 2.171 63.0494 2.4596 60.9428 1.9148L59.7248 1.9268C59.6408 1.5674 59.7392 0.239603 60.6728 1.0148C61.9832 -0.486997 65.6852 0.105803 67.7948 0.162803C68.1248 0.198803 68.3708 0.342803 68.5328 0.546803C68.6288 0.576803 68.7188 0.624803 68.7908 0.690803C69.2486 1.157 71.9984 2.624 71.5688 4.0688C72.7928 8.2328 73.1588 12.8648 73.3748 17.3588C74.2322 12.6776 74.6882 6.4952 76.4888 1.8248" fill="black"/>
<path fill-rule="evenodd" clip-rule="evenodd" d="M49.2008 0.984774C62.6882 3.05777 52.883 25.5368 51.023 32.2958C48.6122 38.3474 43.2626 59.15 35.2208 50.1308C28.7024 42.626 25.3298 32.0384 23.4272 22.163C18.5612 -1.95103 36.1868 -4.97443 39.6548 7.51877C41.2808 3.64877 44.7968 0.570774 49.2008 0.984774" fill="#E94B59"/>
<path fill-rule="evenodd" clip-rule="evenodd" d="M22.021 42.9308C23.0368 43.769 22.9834 52.2788 21.571 52.3328C21.325 52.3088 21.079 52.2968 20.833 52.2728C16.2652 52.697 9.95496 53.81 5.57496 52.2728C4.73796 52.0748 3.49656 51.2096 2.17896 50.3168C0.335757 49.9958 1.50336 46.6826 1.17936 44.747C1.31256 30.506 0.369957 17.2028 0.522957 3.07275H0.528957L1.68096 3.10875C2.98416 18.2426 2.69316 33.9056 2.98296 49.2908C3.10896 49.3328 3.22896 49.3808 3.35496 49.4288C8.29356 48.6524 13.9216 49.3028 19.273 49.0688C19.045 46.7108 18.823 44.2688 18.829 41.9228L19.657 40.8308C20.035 40.8008 20.419 40.9868 20.533 41.4428C20.581 41.6048 20.611 41.7788 20.647 41.9528C20.8732 42.1958 21.5002 42.1724 22.021 42.9308" fill="black"/>
<path fill-rule="evenodd" clip-rule="evenodd" d="M19.6571 40.8309L18.8291 41.9229C16.2755 42.2169 13.1075 42.3273 10.1471 41.6349C8.20605 41.7027 9.21405 38.9823 9.00045 37.1499C9.43485 25.4787 8.15925 14.9763 8.07105 3.62488C5.94105 3.49288 3.79305 3.43888 1.68105 3.10888L0.529053 3.07288C0.529053 2.91088 0.535053 2.74288 0.541053 2.58088C0.632253 0.745478 7.67565 1.56628 8.80905 2.22688C9.11445 2.28868 9.53505 2.27788 9.64305 3.25888C10.0121 4.02928 12.8825 3.90088 12.2711 5.54488C12.1859 16.7703 13.8539 28.6401 12.4631 40.0569C14.1083 40.4235 18.0533 39.1119 19.6571 40.8309Z" fill="black"/>
<path fill-rule="evenodd" clip-rule="evenodd" d="M19.2729 49.0689C14.2767 49.3041 8.66131 48.6519 3.35491 49.4289C3.22891 49.3809 3.10891 49.3329 2.98291 49.2909C2.69251 34.1175 2.99371 18.4401 1.68091 3.10889C3.79291 3.43889 5.94091 3.49289 8.07091 3.62489C9.39631 20.5893 7.93411 43.1907 10.1469 41.6349C12.5313 42.2979 15.8925 42.2217 18.8289 41.9229C18.8229 44.2689 19.0449 46.7109 19.2729 49.0689Z" fill="white"/>
</svg>
