<svg width="193" height="228" viewBox="0 0 193 228" fill="none" xmlns="http://www.w3.org/2000/svg">
<path fill-rule="evenodd" clip-rule="evenodd" d="M44.349 139.307C43.721 138.542 42.589 138.4 41.572 138.317C41.395 130.93 41.114 123.544 40.836 116.16C41.646 116.223 42.472 116.245 43.183 115.947C43.885 115.654 44.25 114.582 43.417 114.157C42.386 113.631 41.258 113.748 40.119 113.714C38.854 113.677 37.558 113.554 36.297 113.672C35.174 113.777 34.696 115.599 36.007 115.817C36.825 115.953 37.652 115.995 38.48 116.026C38.691 123.416 38.898 130.81 39.209 138.197C38.405 138.204 37.604 138.263 36.802 138.388C35.551 138.584 35.852 140.637 37.1 140.589C38.29 140.543 39.475 140.5 40.662 140.613C41.729 140.714 42.928 141.254 43.948 140.827C44.606 140.551 44.815 139.876 44.349 139.307" fill="black"/>
<path fill-rule="evenodd" clip-rule="evenodd" d="M61.0009 138.407C59.1619 138.389 57.3249 138.342 55.4879 138.311C56.3439 130.712 55.9589 122.557 55.2869 114.977C55.1639 113.588 53.0619 113.536 53.0839 114.977C53.2039 122.964 52.9269 131.093 53.3489 139.058C53.3729 139.499 53.5889 139.774 53.8659 139.921C53.9749 140.203 54.1949 140.431 54.5759 140.482C56.6829 140.766 58.8779 140.847 61.0009 140.722C62.4779 140.635 62.5039 138.421 61.0009 138.407Z" fill="black"/>
<path fill-rule="evenodd" clip-rule="evenodd" d="M76.0639 127.71C75.8409 131.965 75.1059 138.234 70.5179 137.898C67.3499 135.865 66.4579 132.789 66.2989 128.955C66.1729 125.933 66.0139 118.166 69.8129 116.331L69.8699 116.339C76.6169 116.026 76.3189 122.849 76.0639 127.71V127.71ZM71.0619 114.117C64.6579 113.204 64.1069 122.673 64.0279 127.145C63.9279 132.727 64.2629 140.391 71.2579 140.058C71.3619 140.054 71.4579 140.024 71.5469 139.982C72.3139 139.955 73.0959 139.794 73.8709 139.463C77.3559 137.975 77.8029 134.157 78.1279 130.814C78.6099 125.856 79.3019 112.328 71.0619 114.117Z" fill="black"/>
<path fill-rule="evenodd" clip-rule="evenodd" d="M89.8188 114.859C88.5168 121.956 87.1018 129.03 85.6078 136.089C84.7938 133.265 84.8178 129.379 84.5058 127.167C83.9088 122.929 83.6698 118.474 82.3488 114.396C82.1058 113.646 81.0608 113.809 81.0038 114.578C80.6418 119.531 81.7778 124.729 82.4778 129.639C82.9608 133.026 82.7058 137.826 85.2648 140.385C85.8738 140.994 87.0698 140.752 87.2628 139.858C89.0098 131.761 90.6298 123.641 92.1238 115.494C92.3998 113.99 90.0958 113.345 89.8188 114.859" fill="black"/>
<path fill-rule="evenodd" clip-rule="evenodd" d="M101.77 115.338C103.096 115.436 103.038 113.458 101.77 113.303C99.7948 113.062 97.6728 112.922 95.7188 113.373C95.3498 113.458 95.1678 113.691 95.1258 113.956C94.8418 114.096 94.6178 114.357 94.6028 114.766C94.3018 122.857 94.3068 130.981 94.6758 139.069C94.6878 139.349 94.8038 139.558 94.9638 139.709C94.9618 140.009 95.1198 140.284 95.5268 140.349C96.6488 140.529 97.7408 140.596 98.8768 140.63C99.9348 140.662 100.981 140.85 101.961 140.406C102.49 140.167 102.448 139.315 101.961 139.063C101.07 138.601 100.086 138.727 99.1008 138.706C98.2428 138.688 97.4028 138.696 96.5578 138.745C96.5308 136.115 96.5218 133.487 96.5088 130.858C97.7808 131.024 99.0788 130.987 100.358 131.05C101.664 131.115 101.621 129.167 100.358 129.044C99.0568 128.917 97.7238 128.985 96.4998 129.451C96.4818 124.66 96.4828 119.869 96.5328 115.074C98.2668 115.239 100.033 115.208 101.77 115.338" fill="black"/>
<path fill-rule="evenodd" clip-rule="evenodd" d="M123.585 112.8C122.357 114.555 121.488 116.621 120.769 118.762C119.737 117.609 118.696 116.464 117.65 115.323C117.058 114.678 115.938 113.078 114.894 113.464C114.329 113.674 114.07 114.549 114.711 114.867C115.038 115.03 115.415 115.827 115.661 116.122C116.066 116.607 116.496 117.073 116.916 117.545C117.756 118.49 118.602 119.429 119.453 120.364C119.67 120.602 119.919 120.694 120.158 120.688C119.644 122.416 119.189 124.149 118.696 125.77C117.35 130.185 115.846 134.685 115.255 139.271C115.104 140.443 116.844 140.508 117.198 139.534C118.847 134.989 119.767 130.142 121.158 125.504C122.373 121.45 124.361 117.326 124.703 113.103C124.755 112.457 123.894 112.359 123.585 112.8" fill="black"/>
<path fill-rule="evenodd" clip-rule="evenodd" d="M137.844 126.189C137.737 127.911 137.735 129.722 137.518 131.433C137.628 134.198 136.467 136.549 134.034 138.487C133.665 138.445 133.297 138.445 132.93 138.45C127.634 137.739 128.441 131.234 128.561 127.169C128.677 123.257 128.712 116.012 132.821 114.156L132.9 114.171C139.935 114.197 138.124 121.679 137.844 126.189V126.189ZM132.9 112.165C132.68 112.179 132.511 112.261 132.365 112.365C127.146 112.481 126.462 123.626 126.355 127.169C126.174 133.138 125.73 141.023 133.693 140.382C133.914 140.365 134.081 140.277 134.22 140.166C139.81 139.565 139.47 133.013 139.851 127.063C140.247 120.864 141.876 111.594 132.9 112.165V112.165Z" fill="black"/>
<path fill-rule="evenodd" clip-rule="evenodd" d="M155.106 127.401C155.146 122.508 154.919 117.616 154.391 112.753C154.248 111.438 152.188 111.399 152.3 112.753C152.604 116.409 152.874 120.063 152.948 123.733C152.985 125.566 152.986 127.401 152.942 129.234C152.892 131.305 152.958 137.39 149.611 137.792C144.508 136.77 145.533 127.797 145.396 124.054C145.264 120.406 145.246 116.754 144.75 113.135C144.623 112.205 143.248 112.508 143.194 113.345C142.943 117.227 143.245 121.142 143.385 125.027C143.496 128.114 143.201 131.495 143.786 134.523C144.316 137.263 145.815 139.478 148.469 139.511C150.675 140.263 153.274 138.263 154.29 135.809C155.332 133.292 155.085 130.044 155.106 127.401Z" fill="black"/>
<path fill-rule="evenodd" clip-rule="evenodd" d="M25.3679 139.033C17.8389 139.231 10.2329 139.476 2.7629 140.472C5.0189 137.899 7.1999 135.29 9.5889 132.827C10.8149 131.563 14.3649 129.413 14.6539 127.492C14.8179 126.402 14.2499 125.845 13.7039 125.02C11.6609 121.933 9.0739 119.474 7.1219 116.288C13.1639 116.554 19.3359 116.089 25.3679 115.828C25.4009 123.593 25.8199 131.263 25.3679 139.033ZM27.0889 115.049C27.3359 114.366 26.9979 113.466 26.0569 113.491C19.1349 113.67 12.0049 113.562 5.1379 114.495C4.7949 114.542 4.6159 114.747 4.5509 114.996C4.2479 115.336 4.1199 115.829 4.3919 116.345C5.6279 118.683 6.9949 120.897 8.6479 122.968C9.2039 123.665 9.7789 124.342 10.3799 125C11.8319 126.589 12.2289 126.07 10.9449 128.133C9.6789 130.17 7.2319 131.87 5.6679 133.74C3.9609 135.781 2.3439 137.864 0.9439 140.127C0.7559 140.43 0.8239 140.751 1.0069 140.99C0.7439 141.488 1.0619 142.318 1.7539 142.319C9.7249 142.328 17.7149 141.709 25.6809 141.393C26.3349 141.866 27.5719 141.557 27.6569 140.472C28.3129 132.099 28.6359 123.357 27.0889 115.049V115.049Z" fill="black"/>
<path fill-rule="evenodd" clip-rule="evenodd" d="M167.632 115.828C173.664 116.089 179.836 116.554 185.878 116.288C183.926 119.474 181.339 121.933 179.296 125.02C178.75 125.845 178.182 126.402 178.346 127.492C178.635 129.413 182.185 131.563 183.411 132.827C185.8 135.29 187.981 137.899 190.237 140.472C182.767 139.476 175.161 139.231 167.632 139.033C167.18 131.263 167.599 123.593 167.632 115.828V115.828ZM165.343 140.472C165.428 141.557 166.665 141.866 167.319 141.393C175.285 141.709 183.275 142.328 191.246 142.319C191.938 142.318 192.256 141.488 191.993 140.99C192.176 140.751 192.244 140.43 192.056 140.127C190.656 137.864 189.039 135.781 187.332 133.74C185.768 131.87 183.321 130.17 182.055 128.133C180.771 126.07 181.168 126.589 182.62 125C183.221 124.342 183.796 123.665 184.352 122.968C186.005 120.897 187.372 118.683 188.608 116.345C188.88 115.829 188.752 115.336 188.449 114.996C188.384 114.747 188.205 114.542 187.862 114.495C180.995 113.562 173.865 113.67 166.943 113.491C166.002 113.466 165.664 114.366 165.911 115.049C164.363 123.357 164.687 132.099 165.343 140.472Z" fill="black"/>
<path fill-rule="evenodd" clip-rule="evenodd" d="M168.693 202.302C167.194 206.76 164.524 210.696 161.171 213.968C155.568 219.435 147.791 222.73 140.161 224.09C124.627 226.859 109.921 221.961 97.4849 212.729C97.3709 212.007 96.3219 211.427 95.7499 212.117C85.7569 224.197 66.7439 225.223 52.4649 222.015C44.7189 220.275 37.4089 216.742 31.7209 211.13C25.3479 204.841 19.2789 193.527 26.2299 186.086C20.3219 196.547 35.3109 206.596 44.3609 208.423C51.6949 209.903 58.1219 207.897 64.4059 204.113C72.3509 199.328 85.6589 185.912 94.4299 195.808C94.7469 196.166 95.1139 196.275 95.4559 196.227C95.6429 196.922 96.7139 197.267 97.2589 196.494C106.171 183.874 120.302 196.993 128.271 203.018C135.13 208.204 142.321 210.609 150.989 210.05C157.688 209.618 165.019 206.984 167.962 200.411C170.037 195.779 169.098 190.792 166.231 186.986C171.032 189.764 170.217 197.771 168.693 202.302V202.302ZM162.315 183.855C160.996 183.855 160.954 185.778 162.162 185.961C166.978 190.06 168.297 197.069 163.896 202.136C159.936 206.694 153.319 207.702 147.617 207.559C137.433 207.305 131.234 202.065 123.524 196.167C115.988 190.402 103.3 184.997 96.4699 194.178L96.3049 193.933C87.6939 183.438 74.4929 194.348 66.4549 199.766C58.7479 204.96 51.0309 208.11 41.6679 205.422C31.8329 202.599 24.8679 194.742 28.7349 184.352C28.8439 184.058 28.6329 183.797 28.3719 183.706C28.3729 183.182 28.0039 182.684 27.3659 182.921C19.5239 185.837 19.8049 195.317 22.6139 201.857C26.3759 210.618 34.0579 217.375 42.6629 221.202C58.5639 228.274 84.6939 228.972 96.6849 214.161C111.195 228.187 135.051 231.36 153.034 222.449C161.715 218.148 169.078 210.63 171.514 201.067C173.398 193.667 171.636 183.854 162.315 183.855V183.855Z" fill="black"/>
<path fill-rule="evenodd" clip-rule="evenodd" d="M45.218 64.5687C42.705 68.4747 39.122 69.9187 35.178 70.3957C35.79 62.2467 34.828 53.5567 34.759 45.7207C34.686 37.4647 34.613 29.2077 34.54 20.9517C43.13 24.6757 47.844 34.1637 48.108 44.2137C48.275 50.5487 48.755 59.0707 45.218 64.5687V64.5687ZM25.622 3.2617C18.934 3.4387 16.58 10.2677 18.583 14.9537C18.65 25.2097 18.717 35.4647 18.784 45.7207C18.852 56.1277 17.339 68.1227 20.038 78.2167C20.33 79.3097 20.859 80.2117 21.521 80.9597C22.071 82.0157 22.926 82.9407 24.156 83.5827C33.9 88.6717 45.967 86.2117 53.911 78.8297C62.937 70.4417 64.028 58.3227 64.114 46.6687C64.279 24.2117 50.044 2.6157 25.622 3.2617V3.2617Z" fill="black"/>
<path fill-rule="evenodd" clip-rule="evenodd" d="M156.211 62.6117C153.698 66.5187 150.115 67.9627 146.171 68.4387C146.783 60.2907 145.821 51.6007 145.752 43.7637C145.679 35.5077 145.606 27.2517 145.533 18.9957C154.123 22.7187 158.837 32.2077 159.101 42.2567C159.268 48.5917 159.748 57.1137 156.211 62.6117V62.6117ZM136.615 1.30568C129.927 1.48268 127.573 8.31069 129.576 12.9967C129.643 23.2527 129.71 33.5087 129.777 43.7637C129.845 54.1717 128.332 66.1657 131.031 76.2607C131.323 77.3537 131.852 78.2557 132.514 79.0027C133.064 80.0597 133.919 80.9837 135.149 81.6267C144.893 86.7157 156.96 84.2547 164.904 76.8727C173.93 68.4847 175.021 56.3657 175.107 44.7127C175.271 22.2557 161.036 0.658685 136.615 1.30568Z" fill="black"/>
<path fill-rule="evenodd" clip-rule="evenodd" d="M98.0178 57.8058C94.8468 58.3218 91.6738 58.2658 88.4998 58.4538C89.0648 55.1318 89.5838 51.9178 90.2128 49.0488C91.3038 44.0688 92.3958 39.0888 93.4868 34.1088C94.4128 37.4348 95.3398 40.7598 96.2658 44.0858C97.5288 48.6188 98.7918 53.1508 100.055 57.6838C99.3818 57.6688 98.7018 57.6948 98.0178 57.8058V57.8058ZM120.656 71.9038C116.646 57.5098 112.635 43.1158 108.625 28.7218C106.24 20.1598 103.029 -1.71624 89.9878 0.829762C83.4728 2.10276 82.6628 8.72576 81.4628 14.2028C79.8808 21.4238 78.2978 28.6458 76.7148 35.8678C75.0398 43.5138 73.3068 51.1508 71.6908 58.8088C70.2358 65.7048 67.5638 73.4858 69.5658 80.4178C70.7748 84.6028 76.7408 86.7558 79.8588 83.1348C82.3388 80.2568 84.0518 76.5808 85.3408 72.5798C90.8158 74.1898 96.5278 74.1928 102.278 73.2578C102.973 73.1448 103.613 72.8998 104.202 72.5678C104.536 73.7668 104.87 74.9658 105.204 76.1638C107.967 86.0848 123.432 81.8708 120.656 71.9038V71.9038Z" fill="black"/>
</svg>
