<svg width="129" height="155" viewBox="0 0 129 155" fill="none" xmlns="http://www.w3.org/2000/svg">
<g clip-path="url(#clip0_1_4607)">
<path fill-rule="evenodd" clip-rule="evenodd" d="M15 65.7928L15.9166 66.5512C17.022 71.5311 16.2692 72.8315 16.8958 74.1447C16.5284 74.8445 16.5493 75.5661 16.9554 76.2997L16.7111 76.533C17.2027 79.6051 17.1114 95.6518 16.7111 98.6604C17.2514 100.477 16.7816 103.183 16.9554 103.797C17.5016 105.967 18.0886 107.566 18.9099 108C21.48 103.973 20.1215 99.3652 21.2308 96.968C26.1338 96.6196 25.9183 96.6881 29.1677 95.623V94.3981L26.5419 92.4695L26.1775 92.6471C23.7473 92.53 23.0432 92.7295 22.4523 92.8794C22.0968 92.8526 21.8445 92.8874 21.6489 92.9201C21.4185 92.9588 21.2655 92.9965 21.1076 92.942C21.7482 83.2163 21.0868 74.5914 20.619 67.4832C22.1514 66.7725 24.3769 67.3056 24.6501 66.7279C28.3126 66.9184 29.3336 66.5293 30.7567 66.0251C30.86 64.4002 30.8788 63.5257 31 62.7534L29.7775 62C23.8635 62.8904 17.1531 62.5519 15 65.7928" fill="black"/>
<path fill-rule="evenodd" clip-rule="evenodd" d="M32.517 88.4263C32.7265 88.5422 32.685 88.5876 32.7649 88.6037C31.8997 90.6799 32.5018 91.5894 32.2023 91.7457C31.5414 94.2997 32.179 93.608 31.7691 94.1223C31.2277 97.6312 31.418 102.17 31.0182 103.372C30.9626 104.615 31.0425 104.503 31.1478 104.673C31.3947 105.202 30.918 105.282 31.084 105.387C31.2722 107.57 31.509 107.965 31.5809 108.409L31.7033 108.293C32.3247 108.971 32.3844 108.874 32.517 109L33.5097 108.113C34.3234 105.194 34.7767 103.799 34.7565 102.541C39.6727 101.293 42.1106 101.475 44.4604 100.702L45.27 105.746C46.5916 106.964 47.2616 107.45 47.8839 108.05H48.6925C50.0243 105.705 49.5942 104.403 50 104.081C48.4041 96.7096 46.9054 88.1812 45.021 83.4462C43.4596 75.0015 42.5741 69.972 40.9761 65C32.1213 66.8815 34.9963 84.9758 32.517 88.4263V88.4263ZM38.8641 77.1008C40.707 84.995 42.1177 91.178 43.4656 96.1954C40.0552 97.4104 37.5546 97.9377 35.5044 98.8059C36.3959 89.7421 37.2976 83.7507 38.8641 77.1008" fill="black"/>
<path fill-rule="evenodd" clip-rule="evenodd" d="M61.0044 63.0486C60.1594 63.0734 59.4061 63.0972 58.8345 63.0972C54.9764 63.9805 51.5448 64.8846 50.0945 65.7788C48.7538 65.871 48.2464 66.9457 48.0302 66.9447C47.8722 69.3884 48.3757 69.5559 48.5761 70.4442C51.6741 70.0199 52.1884 69.8405 52.8262 69.9763C53.1875 69.7711 53.3662 69.7939 53.4866 69.8157C53.5637 69.8305 53.616 69.8454 53.6772 69.7998C53.8756 69.7998 54.1826 69.7631 54.5845 69.6858C52.7245 83.4133 53.5686 98.9134 56.163 107C58.3745 106.807 60.4546 104.987 60.6589 104.785C60.421 102.621 60.4427 102.354 60.4733 101.813C59.8237 98.839 59.8553 99.0046 59.9906 98.0816C59.723 96.2882 59.9382 96.5629 59.5029 96.0999L59.7447 95.8689C58.6686 92.1532 59.7605 91.6694 58.7131 89.4518C59.0379 84.8766 57.7614 80.9775 58.4712 78.6071C58.2777 72.2307 58.9885 71.4247 58.7763 68.6954C58.0023 67.9132 58.0783 68.0005 57.865 67.821C61.8416 66.4609 65.1281 64.9183 68 63.57V63.3311C66.8282 63.0704 65.2456 63 63.6749 63C62.7528 63 61.8337 63.0248 61.0044 63.0486" fill="black"/>
<path fill-rule="evenodd" clip-rule="evenodd" d="M70.9827 79.8177C71.7295 83.7094 71.3317 84.0949 71.4039 85.2065C71.3278 86.4148 71.5072 86.9696 71.8221 87.2605C71.4711 87.6041 71.5638 87.5105 71.4643 87.6101C71.6505 89.2576 72.0717 90.1929 71.8835 90.186C69.9396 90.7916 69.0076 90.7338 68.0483 90.9509L67.6866 90.6551C67.7266 87.2146 67.6603 86.5592 67.4478 85.5611L67.6291 85.3848C66.8346 78.4242 67.168 77.4152 66.9106 75.8364C66.6298 70.109 65.7378 66.5858 63.8533 70.9716C63.8962 71.7973 63.7305 71.6977 63.6106 71.8491C63.9001 73.8622 63.5765 75.0694 63.4322 75.7159C63.8543 80.01 63.3747 82.8478 63.672 84.6836C63.2684 86.3998 63.6895 86.62 63.6418 86.7614C64.0717 94.0129 62.5557 102.317 63.1329 106.943C68.7873 107.398 67.9001 104.962 67.8689 102.667C67.7402 102.55 67.8689 102.447 67.8689 102.435C68.3671 99.7364 67.865 98.0341 67.8075 97.7442C67.8475 94.8705 67.9966 94.2599 67.9849 93.7031L72.0044 93.0567C72.5932 99.5969 71.7782 104.441 73.0817 107.997C76.2725 108.07 77.379 106.858 77.9366 106.592C77.5935 105.321 77.7631 105.187 78 104.947C77.494 104.181 77.9805 104.087 77.8157 103.899C77.8684 101.551 78.0283 102.027 77.9366 101.2C77.4775 98.6925 77.6715 99.3359 77.458 97.9793L77.6373 97.806C76.681 94.1454 77.2064 91.943 76.7385 90.4818C76.5689 86.9636 75.7831 85.5472 76.0785 84.2702C75.6632 82.8458 76.0151 82.8677 75.7217 82.5689C75.3502 76.4769 75.4682 73.7755 75.0032 71.0303C74.6581 66.0131 73.9747 65.6923 72.485 64C68.3564 68.9884 71.9167 76.0655 70.9827 79.8177" fill="black"/>
<path fill-rule="evenodd" clip-rule="evenodd" d="M84.2101 65.2407C83.075 68.3299 83.2447 69.9081 83.5548 70.6601L83.077 71.4822C83.644 74.1979 82.8201 75.1893 83.3164 75.8421C82.569 78.5058 83.3901 80.9711 83.3164 82.318C83.2631 84.0704 83.108 83.3834 83.3164 84.0884C84.0744 99.5465 81.2265 106.441 85.8193 108C89.3729 107.716 91.9756 107.631 93.6875 107.292C94.3166 104.387 94.3961 104.58 95 103.639C94.5376 102.945 94.7334 102.92 94.6084 102.811C91.4124 102.621 90.3859 102.738 89.7413 102.856C89.2614 102.942 88.9949 103.029 88.2058 102.99C87.4953 101.575 88.5557 101.24 87.9063 100.874C87.8491 98.1966 87.8946 97.8452 87.8471 97.3945C87.3431 97.004 87.9363 97.2513 87.9063 96.983C87.7134 96.8568 87.7667 96.8518 87.6668 96.8077L87.9693 96.3972C90.1038 97.1532 90.76 96.7056 91.899 96.6926C93.0371 96.0177 92.9702 96.1078 93.2106 95.9245C93.8387 93.7225 93.4665 93.8317 93.0923 92.8614C90.539 91.8279 89.2556 92.3326 88.9202 92.0382C88.3105 92.3356 88.0468 92.2796 87.8811 92.2245C87.7706 92.1874 87.7046 92.1514 87.6106 92.2165C87.8093 89.7741 87.2549 89.653 87.6106 89.1503C87.0736 85.6706 87.6048 84.506 87.25 83.2923C87.6407 79.1847 86.9602 77.4483 87.3712 76.3699C87.3925 72.6508 87.4768 71.2829 87.25 69.893C87.6164 67.7221 87.283 67.7541 87.9063 67.0071C90.5749 67.2524 92.344 66.7828 93.0341 66.6546C93.7864 65.6382 93.45 65.2777 93.6274 65.0624C93.3492 64.3034 93.356 64.4276 93.2106 64.2974C91.6877 64.1192 90.224 64 88.9183 64C86.7702 64 85.0525 64.3234 84.2101 65.2407" fill="black"/>
<path fill-rule="evenodd" clip-rule="evenodd" d="M102.474 63.5356C100.829 63.6245 100.505 64.637 99.6934 64.7199C98.0652 65.8608 96.6451 67.6494 96.5385 68.1668L96.6622 68.2881L95.918 68.8236V69.6573L95.6746 69.8938C93.44 79.3755 97.4336 85.9368 97.8983 92.7124C97.147 95.8117 97.3441 96.4938 98.209 97.7094L98.9502 97.8853C99.6663 98.8907 99.2902 98.9594 99.445 99.1959C98.8989 103.869 99.1433 107.208 100.249 109C103.531 108.323 103.938 106.548 104.328 106.026L104.082 105.791C104.88 104.748 104.154 101.514 104.391 101.332C108.071 105.116 110.619 107.447 112.926 108.105L113.789 107.634C114.056 104.594 114.021 103.944 113.946 103.415C110.251 98.5775 106.631 95.6257 103.959 93.7856L104.453 92.7761L104.328 92.7124L105.195 92.1202C105.445 90.6034 106.35 90.0537 106.37 89.9213C106.693 88.4379 107.502 87.8669 107.422 87.0706C108.695 84.3978 109.727 82.4606 109.834 80.4699C110.522 79.4301 110.161 78.8187 110.391 78.749C113.251 70.7568 111.003 64.0348 105.319 63C103.198 63.0707 103.173 63.0808 102.474 63.5356V63.5356ZM101.421 71.3762L100.374 70.1929L100.743 69.1763C113.429 60.7981 104.359 84.5019 102.474 86.5351C101.554 80.3406 101.816 75.0616 101.421 71.3762" fill="black"/>
<path fill-rule="evenodd" clip-rule="evenodd" d="M76.3718 34.3985C76.394 34.4403 76.3314 34.4077 76.4707 34.8475C77.3903 35.5393 78.6874 36.0158 82.0296 35.1148C81.7934 35.5678 81.9327 35.3076 81.4219 36.2576C81.6208 37.8647 70.2375 52.3445 72.0121 43.5103C76.716 39.2748 64.8442 43.145 70.6241 47.6407C81.7036 50.7487 86.1783 32.8782 90 25.4367L89.9011 25.2633C85.6454 23.7225 84.6753 30.0814 80.4408 33.9363C80.4064 33.9179 80.3812 33.9006 80.364 33.8863C80.3832 32.4925 83.3903 28.5172 84.001 25.0847C83.6891 25.0276 83.3954 25 83.1157 25C79.5141 24.999 78.4825 29.61 76.3718 34.3985" fill="black"/>
<path fill-rule="evenodd" clip-rule="evenodd" d="M71.4705 8.07986C59.8943 -21.9866 58.5682 43.7034 44.8677 48.6051C27.7969 69.7933 -2.54682 47.2652 19.1222 34.2647L19.1202 34.2587L19.2474 34.2677C23.7795 33.6713 29.9773 38.1793 29.8751 45.8115C32.336 47.1164 33.9816 45.4339 33.6 42.4555C25.1787 23.3953 9.56822 34.3527 8.10992 45.31C7.19949 52.1519 11.8057 58.9949 27.1288 58.5273V58.5553C53.3791 58.3924 63.2866 25.3026 65.5352 4.02245C68.0922 6.17854 66.8212 11.5028 68.8744 14.1905C74.1367 13.9207 75.3506 4.7588 81.8909 1.55563C64.9843 30.7388 68.9906 57.6341 108.398 52.1679C112.748 58.8051 132.507 81.2832 119.547 82.1564V82.9927C128.892 83.3304 124.253 71.8845 120.155 66.0636C117.082 61.102 113.732 56.4162 110.279 51.6694C128.268 49.4653 129.362 31.2634 115.645 38.9496C113.414 19.188 88.4031 30.59 107.75 51.2927C67.5664 56.0765 69.5845 24.6792 85.177 0.202821H84.8115C84.3287 0.0659418 83.8199 0 83.2911 0C79.41 0 74.5003 3.52089 71.4705 8.07986V8.07986ZM102.165 36.5048C102.472 27.8354 114.816 28.9195 114.223 42.1068C127.761 32.2985 126.38 47.6 109.601 50.7412C106.764 46.2621 102.558 42.7023 102.165 36.5048Z" fill="black"/>
<path fill-rule="evenodd" clip-rule="evenodd" d="M10.8941 130.248C13.0745 106.828 7.89306 122.672 2.08784 124.628C1.08315 120.342 -0.105486 122.301 0.0074793 124.261C0.140439 126.572 2.08484 128.883 8.27594 120.942C9.64053 126.961 3.22849 142.609 8.01102 142.468C11.1801 139.329 15.2788 117.454 19.2116 119.289C16.5344 161.506 17.6941 141.097 28.6017 125.466C27.9439 136.387 25.3627 157.491 38.8186 136.664C38.0608 142.037 43.6361 142.724 45.8294 136.65C45.3316 141.256 30.864 165.787 47.4009 149.467C50.36 132.065 49.9832 140.578 57 132.261C55.2775 132.476 51.9356 133.837 49.0184 136.858C49.5823 122.419 44.9257 135.984 41.7167 138.938C42.1685 125.055 37.552 137.208 33.1033 142.211C28.0039 140.307 36.7892 103.971 21.7778 133.207C23.7322 122.064 22.4906 116.001 19.8304 116C17.5291 116 14.1671 120.537 10.8941 130.248V130.248ZM40.3051 152.781C39.0795 150.788 44.3179 144.767 45.8674 142.552C45.6965 144.586 45.0677 152.877 41.0789 152.878C40.834 152.878 40.577 152.846 40.3051 152.781" fill="black"/>
<path fill-rule="evenodd" clip-rule="evenodd" d="M82.993 127.9C81.1156 128.371 77.6624 128.887 74.9879 130.424C73.5961 125.355 75.9135 113.124 71.2687 118.311C69.5339 121.508 74.2425 131.049 70.7548 132.302C66.6147 133.735 64.7495 128.7 70.0812 128.633C66.988 124.877 63.996 127.61 64 130.343C64.0051 132.622 66.0958 134.903 71.9585 133.413C72.09 136.038 73.9977 150.135 76.575 142.03C73.6234 130.519 75.0952 131.464 82.9889 129.293C83.8103 157.39 89.2319 144.953 86.4159 129.034C87.6701 129.004 88.5218 128.972 90.8715 129.133C94.4239 127.678 88.6695 127.474 86.2561 127.611C86.5099 117.81 85.4701 114 84.4202 114C83.0901 113.999 81.7448 120.11 82.993 127.9" fill="black"/>
<path fill-rule="evenodd" clip-rule="evenodd" d="M97.1053 127.75C96.1201 129.314 96.7571 130.876 101.651 130.419C101.325 132.979 93.856 149.325 92.0662 137.153C93.8428 136.466 101.123 134.149 95.9273 130.982C79.7329 133.186 96.0686 158.314 103.147 130.287C108.387 131.151 99.0677 156.395 112.076 136.17C115.816 148.058 122.723 140.31 121.962 132.052C123.488 131.262 131.014 129.235 128.485 127.861C126.2 128.141 124.25 129.784 121.635 130.954C121.84 124.916 115.092 125.723 114.26 131.096C111.239 131.76 109.726 138.516 107.303 140.951C106.333 135.983 114.226 125.834 103.481 128.732C103.971 125.971 103.016 125 101.682 125C100.096 125 97.9734 126.375 97.1053 127.75V127.75ZM101.586 127.887C101.947 127.702 102.4 127.518 102.175 128.844C102.145 128.845 101.601 128.99 100.668 128.925C100.718 128.747 100.893 128.407 101.237 128.004C101.248 128.012 101.261 128.016 101.278 128.016C101.347 128.016 101.461 127.951 101.586 127.887V127.887ZM119.509 128.286C119.982 128.654 120.663 130.768 120.506 131.309C120.183 131.524 119.788 131.618 119.388 131.618C117.55 131.618 115.558 129.651 119.509 128.286V128.286ZM114.859 132.669C114.859 132.669 114.877 132.438 114.877 132.433C116.008 133.088 117.109 133.298 120.474 132.744C120.535 137.961 119.292 140.086 117.958 140.086C116.368 140.086 114.649 137.064 114.859 132.669V132.669ZM95.891 133.074C95.7688 134.115 94.3274 134.731 92.7304 135.445C93.0504 135.083 94.2708 131.845 95.891 133.074Z" fill="black"/>
</g>
<defs>
<clipPath id="clip0_1_4607">
<rect width="129" height="155" fill="white"/>
</clipPath>
</defs>
</svg>
