<svg width="179" height="267" viewBox="0 0 179 267" fill="none" xmlns="http://www.w3.org/2000/svg">
<path fill-rule="evenodd" clip-rule="evenodd" d="M71.7561 60.9392C73.5471 61.4882 75.5291 61.4112 77.4001 61.4282C79.8731 61.4502 82.3921 61.3772 84.8021 60.7872C85.1971 60.6902 85.4091 60.4562 85.5021 60.1822C86.3541 60.4392 87.4751 59.9462 87.4081 58.8632C86.9631 51.5892 85.7001 44.3512 85.1851 37.0682C84.7121 30.3832 85.2841 23.1822 83.8831 16.6272C84.5351 15.7142 84.1731 14.1482 82.7471 14.2362C80.6211 14.3662 78.4971 14.5302 76.3721 14.6842C75.4121 14.7542 74.4381 14.8842 73.4751 14.8942C71.7581 14.9112 71.5411 15.2182 71.3231 13.3262C70.9401 10.0032 70.4521 6.70617 69.9191 3.40817C76.3811 3.75817 82.8571 3.88617 89.3241 4.09517C94.7481 4.27017 100.72 5.13417 106.163 4.45217C105.925 8.03817 105.822 11.6252 105.774 15.2192C102.421 15.1282 98.6871 14.7732 95.5841 15.6332C94.6871 15.8822 94.4371 16.9532 94.8711 17.6232C92.9431 23.8882 93.3941 31.0142 93.5401 37.4882C93.6751 43.4832 93.5861 50.0202 94.8501 55.9632C93.7211 56.1642 93.4551 58.0892 94.7391 58.2812C98.8031 58.8912 102.947 59.3222 107.062 59.6212C105.378 62.3382 106.689 66.5312 108.641 68.9992C96.7251 69.0272 84.6251 70.5472 72.7391 71.4322C71.9821 67.9122 71.7181 64.5232 71.7561 60.9392ZM111.007 68.4302C109.98 67.1412 109.342 65.4832 109.256 63.8372C109.179 62.3522 109.847 61.0582 109.89 59.6112L109.887 59.5882C110.964 58.9642 110.665 56.8862 109.071 56.7312C105.253 56.3612 101.37 56.1042 97.5161 55.9982C97.5451 49.5842 96.4561 43.0522 96.3131 36.6272C96.1771 30.5522 96.8701 24.2312 95.9571 18.2042C99.4841 18.9802 103.692 18.3262 107.269 18.2712C108.09 18.2582 108.784 17.5862 108.786 16.7542C108.793 12.2932 108.741 7.84317 108.462 3.39017C108.51 3.13617 108.482 2.86917 108.384 2.62517C108.235 1.94017 107.604 1.67017 107.06 1.81917C101.463 0.561173 95.0221 1.13617 89.3241 0.964173C82.7561 0.766173 76.1841 0.481173 69.6121 0.433139C69.1141 0.430173 68.7501 0.624173 68.5131 0.911173C68.0081 0.979173 67.5341 1.34517 67.5601 1.93917C67.6971 4.98017 67.8331 8.01717 68.1101 11.0492C68.2641 12.7292 68.1021 15.1172 69.0561 16.6062C70.0691 18.1862 71.8191 17.9932 73.4751 17.9062C76.2651 17.7602 79.0581 17.5472 81.8451 17.3272C80.6461 23.9112 81.6621 31.3182 82.1331 37.9092C82.6251 44.7902 83.0191 51.9402 84.4981 58.7012C82.1501 58.4182 79.7621 58.4842 77.4001 58.3842C75.2851 58.2942 73.0431 57.8162 70.9911 58.3632C70.6571 58.4522 70.4111 58.6982 70.2681 58.9952C70.1231 59.1042 70.0051 59.2542 69.9591 59.4742C68.9881 64.0952 69.1841 68.7242 70.2641 73.3082C70.3991 73.8772 71.0301 74.3832 71.6271 74.3452C84.4291 73.5282 97.5801 73.4682 110.281 71.6652C111.257 71.5262 111.451 70.5072 111.09 69.7672C111.33 69.3992 111.368 68.8832 111.007 68.4302V68.4302Z" fill="black"/>
<path fill-rule="evenodd" clip-rule="evenodd" d="M87.0681 182.536C83.1081 181.824 81.4761 184.974 80.2961 188.235C79.4751 184.923 77.9961 181.7 74.8251 183.244C73.0611 184.103 72.1591 185.948 71.7381 188.094C71.5491 187.089 71.3871 186.069 71.2331 185.035C71.0841 184.026 69.5691 184.335 69.5251 185.267C69.3241 189.594 70.4311 193.632 71.9281 197.655C72.4391 199.029 74.9041 198.987 74.7121 197.279C74.5541 195.867 74.4331 194.48 74.4581 193.058C74.4781 191.882 74.3251 188.83 75.0661 187.854C76.7881 185.587 76.9821 188.481 77.3041 189.824C77.6521 191.275 78.0011 192.726 78.3491 194.177C78.6531 195.444 80.5331 195.695 81.1531 194.544C82.1851 192.628 82.6671 187.655 84.4991 186.481C89.2021 183.469 88.3051 193.995 88.4551 195.793C88.5731 197.203 90.7111 197.705 91.0721 196.147C91.9181 192.499 92.1881 183.457 87.0681 182.536" fill="black"/>
<path fill-rule="evenodd" clip-rule="evenodd" d="M106.192 184.335C105.433 182.499 102.828 183.153 103.186 185.164C103.561 186.448 103.674 187.747 103.526 189.059C103.823 191.724 101.954 192.449 97.919 191.236C96.935 189.364 97.336 186.551 97.526 184.553C97.659 183.163 95.348 182.846 95.079 184.222C94.223 188.612 94.313 195.833 100.381 196.222C103.077 196.394 104.656 195.097 105.538 193.222C105.783 194.649 105.943 196.095 105.993 197.569C106.145 201.974 104.912 205.928 104.296 210.205C104.1 211.561 105.906 212.623 106.686 211.212C111.006 203.393 109.451 192.215 106.192 184.335" fill="black"/>
<path fill-rule="evenodd" clip-rule="evenodd" d="M22.8291 164.205C17.3361 162.091 11.0031 162.285 5.23307 163.415C4.93707 150.939 4.64107 138.463 4.34507 125.987C4.19307 119.576 4.04107 113.165 3.88907 106.753C3.76207 101.4 4.70407 94.7621 2.57907 89.7871C2.31507 89.1711 1.47907 89.4601 1.29307 89.9551C-0.634934 95.0971 0.722065 102.187 0.846065 107.627C0.992065 114.039 1.13807 120.45 1.28407 126.862C1.57707 139.684 1.86907 152.507 2.16107 165.33C2.18507 166.369 3.13607 167.067 4.13407 166.833C10.4021 165.364 15.8231 165.986 22.1021 166.846C23.8321 167.083 24.5051 164.85 22.8291 164.205" fill="black"/>
<path fill-rule="evenodd" clip-rule="evenodd" d="M128.087 90.1539C124.276 112.652 120.245 135.113 116.016 157.536C112.902 147.48 110.004 137.36 107.361 127.169C104.189 114.936 101.845 102.487 98.589 90.2829C98.255 89.0299 96.071 89.2359 96.251 90.5989C99.548 115.563 107.227 140.517 114.878 164.439C115.316 165.811 117.603 166.056 117.911 164.439C122.562 140.001 126.965 115.517 131.12 90.9899C131.455 89.0099 128.424 88.1589 128.087 90.1539" fill="black"/>
<path fill-rule="evenodd" clip-rule="evenodd" d="M149.242 116.83C149.561 110.301 149.672 102.824 152.432 96.7601C155.711 89.5551 163.598 88.8411 168.964 94.3731C173.926 99.4881 174.272 107.724 174.755 114.407C175.037 118.32 175.2 122.244 175.243 126.167C175.261 127.849 175.259 129.531 175.235 131.212C175.219 132.314 175.694 135.241 175.097 136.255C173.725 138.582 166.006 136.937 163.508 136.799C161.81 136.705 160.111 136.61 158.412 136.516C157.28 136.453 156.148 136.391 155.016 136.328C154.07 136.057 153.228 136.136 152.485 136.555C152.467 136.347 152.404 136.128 152.276 135.902C152.212 135.789 152.147 135.675 152.083 135.561C151.735 134.947 151.03 134.732 150.373 134.865C150.004 134.94 149.723 135.035 149.49 135.174C149.029 129.072 148.944 122.942 149.242 116.83V116.83ZM175.636 158.357C172.028 166.13 162.509 165.616 157.097 160.175C151.56 154.608 150.53 146.136 149.793 138.69C151.746 139.845 154.509 139.445 156.714 139.568C161.243 139.819 165.773 140.07 170.302 140.321C172.507 140.443 175.671 141.202 177.333 139.251C179.211 137.048 178.383 132.128 178.398 129.531C178.443 121.422 178.272 113.071 176.897 105.062C175.827 98.8301 173.25 92.5851 167.532 89.3031C163.124 86.7731 157.667 86.6021 153.63 89.9391C149.245 93.5641 147.89 99.5871 147.167 104.957C146.004 113.586 145.693 122.353 146.109 131.047C146.478 138.772 146.936 147.197 149.848 154.451C152.288 160.531 157.228 166.26 164.031 167.273C169.886 168.145 175.76 164.868 177.338 159.074C177.607 158.089 176.092 157.374 175.636 158.357V158.357Z" fill="black"/>
<path fill-rule="evenodd" clip-rule="evenodd" d="M87.0951 116.256C85.4251 125.47 80.3291 134.174 75.0941 141.817C72.4021 145.748 69.4391 149.485 66.2321 153.009C64.7491 154.639 63.2181 156.225 61.6351 157.758C60.7511 158.614 58.6501 161.225 57.0351 162.23L56.8881 162.144C56.3111 161.808 55.5121 161.898 55.0411 162.382C54.9431 162.483 54.8601 162.579 54.7841 162.674L54.6961 162.552C42.7341 148.775 28.4081 134.356 25.7931 115.377C24.6401 107.009 26.5261 96.4054 35.6541 93.3204C46.1371 89.7774 56.1991 98.7534 54.3441 109.507C54.0181 111.477 57.0251 112.332 57.3681 110.34C58.6821 102.413 63.8851 92.7274 73.1651 92.9914C84.6491 93.3174 88.7831 106.944 87.0951 116.256ZM90.5181 107.828C89.3681 98.6614 81.8801 89.3544 71.9321 89.8714C64.8261 90.2414 59.7241 95.4304 56.8171 101.595C54.9571 95.5344 50.0641 90.6384 43.2481 89.5994C33.5561 88.1214 25.3451 94.6224 23.1051 103.853C20.5951 114.198 24.3041 125.059 29.0681 134.174C34.9601 145.448 43.5081 155.824 53.0301 164.218C53.4841 164.619 53.9961 164.615 54.3881 164.397L54.4201 164.587C54.5631 165.292 55.2611 165.663 55.9091 165.721C57.9071 165.9 59.2441 164.224 60.6331 162.983C63.0071 160.863 65.2851 158.637 67.4601 156.313C71.7311 151.748 75.6141 146.805 79.0391 141.575C85.3771 131.896 92.0221 119.813 90.5181 107.828V107.828Z" fill="black"/>
<path fill-rule="evenodd" clip-rule="evenodd" d="M52.7201 153.523C52.1711 152.177 50.9331 151.157 49.9551 150.105C48.7741 148.835 47.5381 147.622 46.3331 146.376C45.9921 146.024 45.5241 146.535 45.8091 146.899C46.8301 148.202 47.8121 149.532 48.8591 150.814C49.7751 151.937 50.6551 153.408 51.9221 154.136C52.2961 154.351 52.9071 153.984 52.7201 153.523" fill="black"/>
<path fill-rule="evenodd" clip-rule="evenodd" d="M53.2381 148.231C51.8491 147.339 50.4781 146.598 49.4251 145.282C48.3261 143.909 47.6861 142.272 47.5051 140.525C47.4351 139.845 46.3961 139.813 46.4201 140.525C46.5381 144.135 48.9391 148.586 52.7581 149.37C53.4451 149.511 53.8471 148.622 53.2381 148.231" fill="black"/>
<path fill-rule="evenodd" clip-rule="evenodd" d="M32.025 117.705C30.192 115.533 30.143 112.486 31.59 110.1C31.887 109.611 31.155 109.007 30.776 109.473C28.613 112.128 28.957 115.954 31.45 118.281C31.838 118.643 32.36 118.102 32.025 117.705" fill="black"/>
<path fill-rule="evenodd" clip-rule="evenodd" d="M44.4541 96.0319C43.6631 95.9119 43.3031 97.1019 44.1161 97.2569C46.5351 97.7149 48.3071 100.137 47.9091 102.604C47.7731 103.448 49.0321 103.832 49.2171 102.964C49.9001 99.7769 47.7081 96.5219 44.4541 96.0319" fill="black"/>
<path fill-rule="evenodd" clip-rule="evenodd" d="M49.008 119.286C47.878 117.742 46.654 116.28 45.438 114.803C45.126 114.424 44.448 114.938 44.75 115.334C45.912 116.854 47.054 118.38 48.301 119.831C48.63 120.214 49.311 119.701 49.008 119.286Z" fill="black"/>
<path fill-rule="evenodd" clip-rule="evenodd" d="M80.616 102.433C80.149 102.042 79.48 102.679 79.936 103.113C82.275 105.34 83.325 108.371 83.115 111.571C83.073 112.206 84.152 112.367 84.242 111.723C84.741 108.143 83.387 104.75 80.616 102.433" fill="black"/>
<path fill-rule="evenodd" clip-rule="evenodd" d="M81.018 105.929C80.812 105.479 80.064 105.798 80.218 106.267C81.458 110.043 81.588 113.688 80.433 117.509C80.246 118.127 81.164 118.355 81.384 117.772C82.84 113.914 82.745 109.69 81.018 105.929Z" fill="black"/>
<path fill-rule="evenodd" clip-rule="evenodd" d="M74.7171 130.702C73.7081 133.041 72.8181 135.397 71.9671 137.799C71.7501 138.413 72.6991 138.651 72.9311 138.064C73.8521 135.735 74.7201 133.411 75.4841 131.025C75.6261 130.581 74.9081 130.261 74.7171 130.702Z" fill="black"/>
<path fill-rule="evenodd" clip-rule="evenodd" d="M67.634 112.269C66.263 114.27 66.299 116.804 67.418 118.914C67.721 119.486 68.564 118.983 68.281 118.41C67.374 116.574 67.553 114.559 68.497 112.774C68.8 112.2 67.996 111.742 67.634 112.269Z" fill="black"/>
<path fill-rule="evenodd" clip-rule="evenodd" d="M60.752 254.464C57.701 261.86 49.63 266.006 42.029 264.208C41.912 263.469 41.026 262.928 40.298 263.604L40.281 263.608C39.904 253.807 38.999 244.05 38.894 234.229C38.867 231.715 38.868 229.201 38.896 226.687C38.903 225.993 38.514 223.53 38.958 222.917C39.837 221.702 41.118 222.465 42.156 222.802C46.592 224.241 50.808 226.545 54.248 229.713C60.935 235.87 64.343 245.763 60.752 254.464V254.464ZM63.847 241.846C62.128 233.907 56.454 227.504 49.462 223.633C46.882 222.205 41.816 219.267 38.771 220.043C35.637 220.841 36.784 226.364 36.779 228.573C36.755 240.266 36.906 252.303 38.71 263.887C38.301 264.42 38.259 265.295 38.978 265.612C39.12 265.674 39.257 265.728 39.391 265.773C45.601 268.287 52.714 266.757 57.778 262.427C63.654 257.403 65.439 249.202 63.847 241.846V241.846Z" fill="black"/>
<path fill-rule="evenodd" clip-rule="evenodd" d="M105.194 263.791C105.091 263.67 104.964 263.566 104.799 263.51C103.483 263.057 101.931 263.272 100.522 263.624C100.259 261.152 100.409 258.656 100.93 256.222C101.044 255.692 100.635 255.387 100.24 255.426C100.117 255.232 99.9251 255.088 99.6501 255.049C94.5901 254.328 89.6271 254.159 84.5461 254.568C83.9641 254.002 82.5841 254.35 82.7051 255.331C83.0331 257.993 83.4141 260.651 83.7881 263.309C81.6881 263.375 79.5881 263.44 77.4921 263.573C77.1281 255.378 75.8941 247.066 76.3491 238.863C76.7811 231.085 80.8291 220.905 90.0341 220.519C98.9861 220.143 102.958 229.97 104.427 237.178C106.258 246.167 105.833 254.76 105.194 263.791ZM106.036 233.874C104.119 226.496 99.0811 218.274 90.4911 218.278C82.6711 218.281 76.8871 225.323 75.1071 232.357C73.8981 237.135 74.0561 242.093 74.4091 246.968C74.8141 252.564 75.2761 258.165 75.8711 263.743C75.9191 264.193 76.2511 264.453 76.6031 264.512C76.6451 264.868 76.8941 265.197 77.3761 265.218C79.9091 265.33 82.4461 265.339 84.9811 265.371C85.4951 265.377 86.1041 264.881 86.0311 264.321C85.6701 261.572 85.3212 258.82 84.9302 256.076C89.7071 256.158 94.4861 256.497 99.2241 257.106C98.3741 259.76 98.2051 262.44 98.6091 265.256C98.6911 265.822 99.4211 266.143 99.9191 266C101.539 265.534 103.194 265.638 104.799 265.239C105.028 265.182 105.191 265.06 105.295 264.906C105.732 265.573 107.035 265.568 107.239 264.62C109.343 254.838 108.542 243.518 106.036 233.874V233.874Z" fill="black"/>
<path fill-rule="evenodd" clip-rule="evenodd" d="M85.438 246.211C85.472 246.095 85.487 245.969 85.45 245.827C84.295 241.433 82.732 228.677 91.004 230.822C98.189 232.685 96.519 240.428 96.77 246.003C93.112 245.572 89.073 245.93 85.438 246.211V246.211ZM89.883 228.388C81.042 227.973 80.837 240.954 84.119 246.388C84.224 246.563 84.372 246.665 84.532 246.709C84.424 247.078 84.624 247.533 85.144 247.572C89.149 247.878 93.685 248.322 97.659 247.693C97.861 247.661 98.009 247.548 98.106 247.397C98.326 247.302 98.516 247.124 98.609 246.825C100.748 239.99 98.721 228.803 89.883 228.388Z" fill="black"/>
<path fill-rule="evenodd" clip-rule="evenodd" d="M47.5959 254.366C47.4759 254.379 47.3679 254.414 47.2679 254.458C47.2439 251.187 47.0139 247.913 46.7629 244.654C46.5219 241.53 46.6469 238.109 45.7329 235.102C46.7989 235.25 50.3949 237.989 50.7459 238.325C52.4709 239.971 53.9679 241.975 54.6239 244.297C56.1039 249.535 52.7159 253.831 47.5959 254.366V254.366ZM56.4179 242.502C55.0229 238.99 51.6939 235.08 48.1219 233.62C46.8799 233.112 44.5109 233.056 44.4179 234.556C44.2619 234.65 44.1429 234.804 44.1099 235.039C43.6549 238.363 44.3569 241.942 44.6439 245.28C44.9379 248.693 45.2629 252.115 45.8309 255.495C45.9159 256.003 46.4299 256.116 46.8219 255.948C46.9359 256.098 47.0969 256.227 47.3349 256.297C54.8919 258.549 58.6379 248.089 56.4179 242.502V242.502Z" fill="black"/>
<path fill-rule="evenodd" clip-rule="evenodd" d="M137.698 254.464C134.646 261.86 126.576 266.006 118.974 264.208C118.857 263.469 117.972 262.928 117.243 263.604L117.226 263.608C116.849 253.807 115.944 244.05 115.839 234.229C115.813 231.715 115.813 229.201 115.841 226.687C115.849 225.993 115.459 223.53 115.903 222.917C116.782 221.702 118.063 222.465 119.102 222.802C123.538 224.241 127.753 226.545 131.193 229.713C137.88 235.87 141.288 245.763 137.698 254.464V254.464ZM140.792 241.846C139.073 233.907 133.399 227.504 126.407 223.633C123.827 222.205 118.762 219.267 115.716 220.043C112.582 220.841 113.729 226.364 113.724 228.573C113.7 240.266 113.851 252.303 115.655 263.887C115.246 264.42 115.204 265.295 115.923 265.612C116.065 265.674 116.202 265.728 116.336 265.773C122.546 268.287 129.659 266.757 134.724 262.427C140.599 257.403 142.384 249.202 140.792 241.846V241.846Z" fill="black"/>
<path fill-rule="evenodd" clip-rule="evenodd" d="M124.541 254.366C124.421 254.379 124.313 254.414 124.213 254.458C124.189 251.187 123.959 247.913 123.708 244.654C123.467 241.53 123.592 238.109 122.678 235.102C123.744 235.25 127.34 237.989 127.692 238.325C129.416 239.971 130.913 241.975 131.569 244.297C133.049 249.535 129.661 253.831 124.541 254.366V254.366ZM133.363 242.502C131.969 238.99 128.639 235.08 125.068 233.62C123.825 233.112 121.456 233.056 121.363 234.556C121.207 234.65 121.088 234.804 121.056 235.039C120.6 238.363 121.302 241.942 121.59 245.28C121.883 248.693 122.208 252.115 122.776 255.495C122.861 256.003 123.375 256.116 123.767 255.948C123.882 256.098 124.042 256.227 124.28 256.297C131.837 258.549 135.583 248.089 133.363 242.502V242.502Z" fill="black"/>
<path fill-rule="evenodd" clip-rule="evenodd" d="M12.4821 245.657C13.5211 244.277 14.5591 242.898 15.5971 241.519C16.5311 240.279 18.0261 238.847 18.1121 237.184C18.1961 235.546 17.0221 234.389 16.0941 233.146C14.9421 231.601 13.7891 230.057 12.6371 228.513C14.4461 228.701 16.2561 228.889 18.0661 229.076C20.5031 229.329 23.6291 229.178 25.9821 229.898C28.2321 230.586 27.6931 231.329 27.6891 233.223L27.6801 236.938C27.6741 239.725 27.6671 242.513 27.6611 245.3C22.6101 245.197 17.5331 245.432 12.4821 245.657V245.657ZM29.0681 228.316C27.3781 226.936 23.7651 227.353 21.7191 227.141C17.8631 226.742 14.0061 226.343 10.1491 225.944C9.3201 225.859 8.6481 227.009 9.1521 227.683C10.2941 229.212 11.4361 230.742 12.5781 232.271C13.5371 233.555 16.0591 235.944 15.5691 237.701C15.2341 238.906 13.6091 240.352 12.8571 241.351C11.6091 243.011 10.3601 244.67 9.1111 246.33C8.5831 247.032 9.2971 248.097 10.1051 248.063C16.3361 247.802 22.6271 247.647 28.8261 246.935C29.1121 246.902 29.3111 246.756 29.4401 246.57C29.7531 246.396 29.9801 246.074 29.9811 245.606C29.9891 241.891 29.9961 238.176 30.0031 234.461C30.0071 232.678 30.6831 229.633 29.0681 228.316V228.316Z" fill="black"/>
<path fill-rule="evenodd" clip-rule="evenodd" d="M23.111 241.991C22.334 241.781 21.544 241.794 20.744 241.806C20.099 241.815 19.375 241.775 18.752 241.968C18.234 242.129 17.854 242.725 18.346 243.148C18.508 243.288 18.715 243.116 18.632 242.928L18.612 242.895L18.663 242.894C18.788 242.88 18.913 242.872 19.039 242.864C19.434 242.84 19.828 242.841 20.224 242.852C21.192 242.88 22.163 243.011 23.111 242.754C23.488 242.652 23.488 242.093 23.111 241.991Z" fill="black"/>
<path fill-rule="evenodd" clip-rule="evenodd" d="M25.0521 238.119C23.5171 237.596 21.6291 238.146 20.2191 238.799C19.8171 238.984 20.1061 239.69 20.5241 239.522C21.2531 239.229 22.0041 239.013 22.7891 238.937C23.5081 238.868 24.2271 238.963 24.9441 238.915C25.4021 238.884 25.4921 238.269 25.0521 238.119" fill="black"/>
<path fill-rule="evenodd" clip-rule="evenodd" d="M20.501 230.415C19.576 230.257 18.754 230.372 17.828 230.439C17.465 230.466 17.464 230.978 17.828 231.004C18.752 231.071 19.576 231.186 20.501 231.029C20.805 230.977 20.806 230.466 20.501 230.415" fill="black"/>
<path fill-rule="evenodd" clip-rule="evenodd" d="M27.081 235.146C26.456 234.163 26.437 233.232 26.617 232.12C26.688 231.679 26.093 231.501 25.941 231.934C25.538 233.082 25.936 234.461 26.632 235.407C26.826 235.67 27.263 235.433 27.081 235.146" fill="black"/>
<path fill-rule="evenodd" clip-rule="evenodd" d="M151.173 245.3C151.166 242.513 151.16 239.725 151.154 236.938L151.145 233.223C151.141 231.329 150.602 230.586 152.852 229.898C155.204 229.178 158.33 229.329 160.768 229.076C162.577 228.889 164.387 228.701 166.197 228.513C165.044 230.057 163.892 231.601 162.74 233.146C161.812 234.389 160.637 235.546 160.722 237.184C160.808 238.847 162.302 240.279 163.236 241.519C164.275 242.898 165.313 244.277 166.352 245.657C161.3 245.432 156.223 245.197 151.173 245.3V245.3ZM148.83 234.461C148.838 238.176 148.845 241.891 148.852 245.606C148.853 246.074 149.081 246.396 149.394 246.57C149.522 246.756 149.722 246.902 150.008 246.935C156.206 247.647 162.498 247.802 168.728 248.063C169.537 248.097 170.251 247.032 169.723 246.33C168.474 244.67 167.225 243.011 165.976 241.351C165.224 240.352 163.6 238.906 163.264 237.701C162.775 235.944 165.297 233.555 166.255 232.271C167.398 230.742 168.54 229.212 169.682 227.683C170.185 227.009 169.513 225.859 168.684 225.944C164.828 226.343 160.971 226.742 157.114 227.141C155.069 227.353 151.456 226.936 149.765 228.316C148.151 229.633 148.827 232.678 148.83 234.461V234.461Z" fill="black"/>
<path fill-rule="evenodd" clip-rule="evenodd" d="M155.723 241.991C156.5 241.781 157.29 241.794 158.09 241.806C158.734 241.815 159.458 241.775 160.081 241.968C160.6 242.129 160.98 242.725 160.487 243.148C160.325 243.288 160.119 243.116 160.202 242.928L160.221 242.895L160.171 242.894C160.045 242.88 159.921 242.872 159.794 242.864C159.4 242.84 159.005 242.841 158.61 242.852C157.641 242.88 156.67 243.011 155.723 242.754C155.346 242.652 155.345 242.093 155.723 241.991Z" fill="black"/>
<path fill-rule="evenodd" clip-rule="evenodd" d="M153.782 238.119C155.316 237.596 157.204 238.146 158.615 238.799C159.017 238.984 158.728 239.69 158.31 239.522C157.581 239.229 156.83 239.013 156.045 238.937C155.325 238.868 154.607 238.963 153.889 238.915C153.432 238.884 153.341 238.269 153.782 238.119" fill="black"/>
<path fill-rule="evenodd" clip-rule="evenodd" d="M158.332 230.415C159.258 230.257 160.08 230.372 161.006 230.439C161.369 230.466 161.369 230.978 161.006 231.004C160.081 231.071 159.258 231.186 158.332 231.029C158.028 230.977 158.028 230.466 158.332 230.415Z" fill="black"/>
<path fill-rule="evenodd" clip-rule="evenodd" d="M151.753 235.146C152.378 234.163 152.396 233.232 152.217 232.12C152.146 231.679 152.741 231.501 152.892 231.934C153.295 233.082 152.897 234.461 152.201 235.407C152.008 235.67 151.57 235.433 151.753 235.146Z" fill="black"/>
</svg>
