<svg width="194" height="153" viewBox="0 0 194 153" fill="none" xmlns="http://www.w3.org/2000/svg">
<path fill-rule="evenodd" clip-rule="evenodd" d="M123.822 29.2712L124.46 29.4221C155.564 37.0864 131.988 60.8538 98.5619 61.9731L97.5461 62L96.5897 61.9848C65.3867 61.254 38.2418 37.7323 70.6044 29.4392L71.2748 29.2732L68.9535 38.9306C83.0828 53.9451 115.822 51.0226 126.142 38.9306L123.822 29.2712ZM85.3641 0L85.5805 0.00626822C88.5793 0.180411 90.3951 3.92964 95.9004 4.5515L96.3099 4.59132L96.6747 4.63562C99.4435 4.91606 101.81 3.88667 103.949 2.74885L104.527 2.43675L106.063 1.59409C111.751 -1.45495 116.076 -2.08343 123.028 27.217L123.491 29.1926L123.526 29.2007L123.132 29.4416C102.248 42.0105 84.0157 36.6507 71.574 29.2006L71.6033 29.1926L71.7102 28.6818C72.453 24.9365 77.0048 1.81678 84.5393 0.0876745C84.7545 0.0423256 84.9623 0.0156832 85.1642 0.00519623L85.3641 0Z" fill="black"/>
<path fill-rule="evenodd" clip-rule="evenodd" d="M58.4615 77.5113C58.4248 82.2708 59.005 86.0574 59.1389 88.3887C59.9254 91.8037 58.6262 91.7068 57.0671 91.6119C56.483 91.576 55.8621 91.54 55.3008 91.6879C55.1471 91.545 55.0677 91.4781 54.912 91.3323C54.9229 88.954 54.9428 87.0313 54.6482 85.8197C54.7256 85.7547 54.7623 85.7198 54.8366 85.6579C54.1712 80.9623 54.3814 77.1967 54.0204 75.6315C54.5153 66.9726 50.2715 65.8538 50.5542 72.2824C50.5998 76.052 50.5185 79.5909 50.4282 80.4659C50.8696 82.3557 50.2309 83.4025 50.6226 84.2535C50.8319 92.3251 49.7548 102.665 50.0524 108.794C52.9642 108.914 53.6435 108.4 54.5956 108.304C55.7818 107.209 55.0419 104.772 55.1421 104.247C54.9973 104.139 55.1401 104.003 55.1391 104.002C55.7134 103.607 55.28 103.398 55.394 103.32C55.1669 100.125 55.1084 96.8419 55.2452 94.6364C56.965 94.5156 57.8268 94.4566 59.5475 94.3298C59.8232 98.6178 59.4206 98.7567 59.8579 100.393C60.5056 104.367 59.2827 107.42 60.7644 109.991C64.2148 110.119 65.3652 108.885 65.9851 108.575C65.993 105.545 66.0853 103.369 65.6915 102.431C65.4198 100.645 65.6707 100.537 65.4257 99.7994C65.5031 99.7295 65.5428 99.6946 65.6181 99.6256C65.1451 98.7557 65.3989 98.2582 65.2234 98.2053C64.9973 94.9521 64.9913 95.1089 65.0181 94.6364C64.8009 94.4177 64.7355 94.2279 64.8247 94.0541C64.6492 91.1934 63.7635 88.095 63.8855 85.9365C62.4355 77.8259 64.2187 68.5218 59.9432 64C55.8542 67.8016 58.7531 74.5358 58.4615 77.5113" fill="black"/>
<path fill-rule="evenodd" clip-rule="evenodd" d="M71.7118 81.6951C70.586 88.9186 70.439 96.141 69.7361 95.3256C69.437 98.4919 69.0634 103.632 69 105.07C69.4511 105.486 68.9285 105.646 69.1339 105.717C69.3857 106.253 68.9104 106.312 69.0685 106.425C69.4954 108.034 69.2558 108.737 69.6123 109.415C69.6656 109.371 69.6868 109.343 69.7381 109.299C70.3977 109.969 70.4561 109.874 70.5951 110C71.013 109.651 71.2204 109.483 71.6393 109.132C72.4711 106.288 72.9484 104.943 72.9212 103.71C77.195 102.716 81.3136 102.748 83.1483 102.156C83.4978 104.07 83.669 105.02 84.0154 106.925C85.4121 108.09 86.1109 108.54 86.7776 109.115H87.6305C89.0866 106.726 88.3545 106.454 89 105.4C87.0565 97.3825 85.8934 91.1791 83.674 85.8744C81.8876 77.8425 81.1827 72.9173 79.3217 68.0288C79.1626 68.0089 79.0065 68 78.8535 68C74.7248 68 72.7793 74.847 71.7118 81.6951V81.6951ZM73.8819 98.3181C74.6764 90.9228 75.8436 84.3757 77.1366 79.372C78.8736 86.1128 80.7265 93.2201 82.0789 97.8682C79.1667 98.7124 75.5676 99.4871 73.6936 100.096C73.6735 98.5604 73.7128 98.5962 73.8819 98.3181Z" fill="black"/>
<path fill-rule="evenodd" clip-rule="evenodd" d="M91.3081 96.118C92.5821 101.482 91.3595 121.772 97.7088 117.383C97.1734 107.387 95.3952 95.2332 95.3942 86.5069C95.9721 85.4518 95.4329 85.4197 95.8124 85.2022C95.4833 81.4838 96.0999 82.4488 96.0147 80.8376C97.6061 76.3426 98.1647 73.8086 99.8994 72.4268C100.214 72.9138 100.374 73.1553 100.687 73.6402C101.935 77.4117 101.062 76.4238 101.622 78.028C101.432 79.3646 101.8 79.3787 101.626 79.9779C101.155 86.1932 98.1608 90.6822 96.3835 93.4156C107.978 94.8825 108.65 69.4739 100.75 68C89.4776 70.3377 90.8416 89.8445 91.3081 96.118" fill="black"/>
<path fill-rule="evenodd" clip-rule="evenodd" d="M108 93.808C108.382 100.877 108.16 107.25 109.244 112.107C111.198 114.588 113.828 114.484 113.721 112.646C112.55 104.314 113.041 92.9627 113.271 86.0841C113.985 85.0026 113.392 84.9778 113.816 84.7616C113.808 83.6761 113.85 83.4658 113.795 82.9925C114.277 81.0499 114.299 81.1769 114.371 80.3395C116.021 76.742 116.865 73.317 119.096 71.6145C119.389 72.1046 119.535 72.3517 119.826 72.8448C120.078 75.3182 120.365 76.9602 120.469 77.3432C120.412 83.3577 116.98 89.1886 114.038 92.6234C123.813 97.097 129.592 68.644 120.325 67C108.483 70.2959 109.074 86.4264 108 93.808Z" fill="black"/>
<path fill-rule="evenodd" clip-rule="evenodd" d="M134.455 84.8478C134.121 84.0913 133.955 83.7106 133.621 82.962C133.699 82.8757 133.738 82.8361 133.823 82.7548C132.447 80.3385 132.373 77.5881 131.774 76.8613C129.61 71.9743 131.607 66.522 127.613 66.5637C125.424 74.1893 129.733 81.4083 130.628 86.4967C135.62 95.0592 131.22 102.7 133.059 109.491C133.141 109.548 133.205 109.618 133.249 109.699C133.613 109.819 133.795 109.878 134.16 110C135.696 109.346 136.464 109.011 138.003 108.328C138.628 104.748 138.747 103.384 138.894 102.147C139.28 97.1889 139.069 94.5387 140.057 92.0064C139.924 91.9211 139.861 91.8765 139.736 91.7912C139.836 91.706 139.891 91.6653 139.995 91.58C139.95 91.5414 139.896 91.5037 139.833 91.47C140.668 88.8376 140.057 88.9566 140.449 87.8957C140.375 87.8312 140.336 87.8005 140.262 87.737C141.385 83.7304 141.194 80.6657 141.822 78.6371C141.348 78.2048 142.044 78.0353 141.822 77.945C144.547 64.7433 144.404 59.999 143.088 60C140.685 60.001 134.376 75.8034 134.455 84.8478" fill="black"/>
<path fill-rule="evenodd" clip-rule="evenodd" d="M0.443022 111.386C2.09446 115.156 7.69287 118.925 5.57791 111.562C3.63954 114.416 1.70618 112.707 2.1386 110.998C2.68239 108.852 6.95946 106.704 19.6452 113.602C18.7593 116.23 18.076 120.386 17.8272 124.824C13.2471 125.841 6.89826 119.688 15.5668 119.349C10.165 114.517 7.50626 118.131 8.7333 121.746C9.61219 124.337 12.4876 126.928 17.7801 126.407C19.5358 141.937 8.06309 149.919 5.56086 133.105C-2.82272 145.168 24.8523 152.48 21.7501 125.952C23.6624 125.728 26.7425 123.527 29.019 123.577C31.8554 121.603 25.1523 122.169 21.7933 124.162C21.8906 120.323 22.2658 116.925 22.8076 114.75C30.826 117.262 32.7985 114.86 31.735 112.456C30.4959 109.66 25.1453 106.863 20.4278 111.813C12.1074 108.279 6.92735 107 3.86628 107C-0.142905 106.999 -0.51814 109.193 0.443022 111.386V111.386ZM23.4648 112.981C24.2835 110.236 29.927 110.195 30.526 113.283C30.235 114.109 29.5989 114.405 28.7622 114.405C27.3365 114.405 25.3319 113.547 23.4648 112.981Z" fill="black"/>
<path fill-rule="evenodd" clip-rule="evenodd" d="M55.979 123.994C54.2695 124.298 52.7897 124.632 49.7168 124.843C53.4133 118.243 47.8204 115.008 46.1546 124.886C40.4811 120.128 36.0856 123.425 45.7896 126.403C45.0309 130.267 40.0058 140.237 37.632 144.365C38.7975 124.337 39.786 130.918 28.3416 139.047C26.843 137.02 30.5523 131.128 34.5282 133.283C30.5434 128.258 26.5894 131.958 25.3771 135.659C24.0525 139.7 25.9976 143.741 34.743 136.419C33.9017 152.867 39.6995 147.014 43.8007 135.838C42.119 144.963 45.7976 150.236 52.8583 141.229C54.0965 156.995 57.0968 140.802 61.0538 136.661C63.3152 142.492 59.8853 159.284 70.4327 143.242C75.6149 150.52 84.4895 140.653 86.6903 134.205C93.5571 133.085 86.3412 139.614 86.3054 144.609C86.6187 152.742 96.8618 141.018 97 137.875C96.9045 137.756 96.7504 137.69 96.5724 137.69C95.0409 138.529 91.9451 143.449 90.0964 144.936C90.7935 138.474 98.9253 131.81 87.2542 132.905C89.8776 124.222 71.5803 133.309 85.1578 134.182C83.8799 138.364 72.8681 151.884 73.2669 139.629C88.2695 137.394 74.3161 125.481 65.8631 147.054C67.306 135.55 62.5813 127.989 55.804 142.091C55.7692 141.238 55.6677 139.335 56.1709 136.011C59.7858 134.603 64.9531 131.076 67.7705 126.495C66.5304 128.952 71.3953 128.673 68.582 125.123C71.4898 119.454 69.1647 117 65.7169 117C62.1626 117 57.415 119.609 55.979 123.994V123.994ZM67.0694 124.348C66.1853 124 65.0914 123.716 63.7916 123.573C62.9314 123.486 61.3879 123.454 59.401 123.583C61.3352 117.969 70.7738 115.614 67.0694 124.348ZM58.7983 124.905C60.5357 124.648 63.902 124.556 66.4329 125.544C64.7095 128.852 60.0414 132.74 56.337 134.411C56.5916 132.158 57.3285 128.655 58.7983 124.905V124.905ZM49.1858 126.413C50.586 126.334 52.7848 126.028 55.3256 125.51C53.6858 129.89 53.1746 133.363 52.922 138.43C51.6033 140.095 50.935 141.421 47.2117 143.651C45.1204 139.815 48.07 130.859 49.1858 126.413V126.413ZM83.9078 132.837C83.8083 132.786 84.8674 131.485 85.6869 131.37C86.025 131.669 86.0588 131.963 85.6312 132.874C85.4721 132.873 85.2861 132.878 83.9078 132.837ZM78.1667 136.132C77.7321 137.384 76.4234 137.72 73.8994 138.212C74.2017 137.786 76.4075 134.56 78.1667 136.132Z" fill="black"/>
<path fill-rule="evenodd" clip-rule="evenodd" d="M99.0004 130.258C99.1807 130.348 98.4418 131.128 98.8559 131.992C99.9701 132.157 102.31 129.74 100.052 128.039C99.9711 128.012 99.8818 128 99.7858 128C98.7027 128 96.833 129.586 99.0004 130.258" fill="black"/>
<path fill-rule="evenodd" clip-rule="evenodd" d="M109.584 141.487C96.0249 150.82 117.323 152.334 112.659 141.011C114.089 140.226 115.485 139.589 116.965 139.046C117.198 138.61 121.569 137.79 119.396 136.953C117.725 137.467 116.317 138.058 112.058 140.041C111.539 139.317 110.537 138.22 109.362 136.963C112.187 133.62 110.511 132 108.483 132C105.607 131.999 102.024 135.259 109.584 141.487V141.487ZM109.282 133.321C109.505 133.554 109.509 134.048 109.29 134.566C109.159 134.926 108.876 135.419 108.501 135.938C107.925 135.592 107.369 132.822 109.282 133.321V133.321ZM110.128 142.548C110.912 144.508 110.472 146.198 109.981 146.821C109.37 147.335 108.71 147.569 108.154 147.569C106.485 147.569 105.754 145.465 110.128 142.548Z" fill="black"/>
<path fill-rule="evenodd" clip-rule="evenodd" d="M133.153 129.082C132.493 124.024 133.745 118.347 132.936 115.609C129.427 114.996 128.645 123.393 129.131 131.789C129.791 143.209 132.793 154.627 134.465 143.383C137.025 99.5948 151.123 113.785 151.204 127.977C151.246 135.154 147.701 142.332 137.265 142.007C137.017 142.034 136.782 142.155 136.606 142.335C147.214 152.925 161.972 121.797 151.301 114.496C149.594 113.46 147.934 113 146.354 113C139.554 113 134.24 121.499 133.153 129.082" fill="black"/>
<path fill-rule="evenodd" clip-rule="evenodd" d="M177.022 133.658C176.472 132.689 176.51 131.628 175.876 127.303C175.975 127.186 178.682 126.4 178.444 125.654C171.147 124.6 169.15 135.624 167.785 141.961C166.42 140.154 168.514 121.575 163.494 130.89C158.174 129.911 155.227 132.92 154.313 135.93C152.888 140.618 156.397 145.307 163.559 134.913C167.555 156.471 169.66 137.812 173.236 129.757C173.08 139.546 179.96 137.144 181.304 129.38C181.759 131.662 182.335 134.997 182.833 139.959C159.662 150.458 188.424 162.792 186.439 140.646C188.135 139.679 195.039 142.604 190.025 143.689C184.103 148.122 200.447 144.954 190.976 139.518C189.621 139.068 188.064 138.941 186.326 139.141C184.789 126.888 184.072 122.001 182.905 122C181.766 122 180.199 126.653 177.022 133.658V133.658ZM163.197 131.992C162.17 134.617 160.329 138.008 158.019 139.264C157.914 139.312 157.817 139.341 157.734 139.355C156.293 137.928 158.183 131.903 163.197 131.992ZM176.508 150.581C173.884 147.485 179.028 142.885 182.941 141.564C183.101 145.808 182.685 150.955 178.617 150.956C178 150.956 177.302 150.837 176.508 150.581Z" fill="black"/>
</svg>
