<svg width="112" height="159" viewBox="0 0 112 159" fill="none" xmlns="http://www.w3.org/2000/svg">
<g clip-path="url(#clip0_1_5289)">
<path fill-rule="evenodd" clip-rule="evenodd" d="M18.2489 96.6956C15.7679 96.8486 12.9889 98.4886 12.7159 100.977C12.3909 101.015 12.0619 101.056 11.7319 101.102C11.0229 100.782 9.92987 100.351 8.92187 101.896C4.76787 105.781 20.2599 104.612 22.4049 103.148C24.2009 100.549 21.4409 96.5356 18.2489 96.6956Z" fill="#A3CED0"/>
<path fill-rule="evenodd" clip-rule="evenodd" d="M103.652 104.271C103.862 99.0835 97.29 98.6035 96.1 104.044C95.18 104.23 94.007 104.158 91.62 104.563C90.981 104.604 89.439 104.745 88.538 105.794C88.03 106.105 87.928 106.726 88.244 107.158C88.526 108 89.192 108.906 91.054 108.118C93.306 108.642 110.529 108.654 103.652 104.271" fill="#A3CED0"/>
<path fill-rule="evenodd" clip-rule="evenodd" d="M60.9323 80.3252C60.6643 80.0592 60.3183 79.8672 59.9533 79.7852C59.7523 79.7172 59.5473 79.6762 59.3403 79.6462C59.0823 79.6132 58.8543 79.2882 57.5683 79.7922C56.4873 80.2052 55.0343 80.9712 54.0693 82.7312C53.9333 82.1832 53.5793 81.6692 53.0783 81.2542C52.1273 79.5092 47.4693 77.8702 47.8553 82.1942C47.3463 85.0752 49.5563 88.7632 52.3053 90.5132C53.9213 91.6972 55.8803 90.8602 57.1873 88.3972C57.6893 88.0152 58.1183 87.5212 58.4713 86.9842C59.4883 86.0772 61.3993 84.8212 61.5463 82.8202C61.9473 81.9402 61.8693 81.0592 60.9323 80.3252" fill="#FFDC96"/>
<path fill-rule="evenodd" clip-rule="evenodd" d="M90.1764 153.401C87.6704 152.712 85.3404 152.983 81.9514 153.686C81.1194 153.609 80.0014 153.547 78.2014 153.273C77.4624 148.46 76.9674 135.12 68.7464 138.526C57.5354 136.025 43.3254 137.799 31.6144 140.611C30.7654 140.181 26.4564 140.224 27.9334 142.779C27.8484 143.119 28.4344 144.777 29.9944 143.925C30.9104 147.544 31.7994 153.351 35.5044 155.802C48.3674 158.67 62.6484 156.355 76.2784 157.594C77.6364 158.315 79.1144 158.374 80.6324 158.202C85.2864 159.696 95.9604 158.668 90.1764 153.401Z" fill="#A3CED0"/>
<path fill-rule="evenodd" clip-rule="evenodd" d="M32.483 154.657C31.489 152.363 29.948 149.656 28.319 146.601C28.331 146.259 28.468 145.591 27.606 144.925C27.309 143.74 24.95 142.153 23.271 143.923C22.927 144.063 22.703 144.179 21.72 144.673C18.427 144.547 15.378 147.051 12.313 148.955C12.28 148.97 12.247 148.984 12.213 149C10.943 149.508 8.363 150.077 6.673 151.622C5.816 152.437 3.575 151.964 3.099 154.004C2.508 154.878 3.066 156.055 4.029 156.274C9.408 157.869 34.665 160.399 32.357 155.832C32.554 155.48 32.635 155.074 32.483 154.657" fill="#FFDC96"/>
<path fill-rule="evenodd" clip-rule="evenodd" d="M105.698 152.641C104.766 149.766 100.552 148.313 97.3949 147.121C96.4469 146.476 95.3429 146.02 94.2719 145.787C89.6189 143.622 83.1699 140.233 77.7899 140.082C76.7969 139.269 72.8329 140.213 75.8629 142.471C75.9079 142.795 75.8059 142.507 76.2749 143.551C76.4299 144.175 76.4779 144.903 76.5559 145.667C76.5389 155.293 82.4999 151.096 88.5729 153.203C91.4169 154.085 91.7639 156.932 95.0429 157.298C97.8099 156.669 105.819 156.697 105.698 152.641" fill="#FFDC96"/>
<path fill-rule="evenodd" clip-rule="evenodd" d="M5.07391 3.41814L5.55191 31.0711C5.57291 32.2671 7.43191 32.2711 7.41191 31.0711L6.93391 3.41814C6.91391 2.22214 5.05291 2.21914 5.07391 3.41814Z" fill="black"/>
<path fill-rule="evenodd" clip-rule="evenodd" d="M6.68435 31.9571C10.1324 32.0591 14.3294 31.1021 15.9134 27.6521C17.2594 24.7181 16.1224 21.4321 13.9084 19.2621C12.2814 17.6671 10.1774 16.6501 7.99535 16.0651C6.83635 15.7551 6.34335 17.5491 7.49935 17.8581C10.3314 18.6181 13.3774 20.3381 14.3614 23.2771C15.1064 25.5051 14.3264 27.7531 12.1984 28.9891C10.5404 29.9531 8.56535 30.1521 6.68435 30.0981C5.48735 30.0611 5.48935 31.9221 6.68435 31.9571" fill="black"/>
<path fill-rule="evenodd" clip-rule="evenodd" d="M7.67245 18.3067C10.2655 17.8717 11.7785 15.2007 12.3375 12.8577C12.9505 10.2817 12.7905 7.19174 11.0605 5.06174C10.0895 3.86774 8.68045 3.26274 7.16345 3.18174C5.96745 3.11874 5.97045 4.97874 7.16345 5.04174C9.25345 5.15374 10.3435 6.81274 10.6935 8.79474C11.0495 10.8187 10.6225 13.2057 9.45445 14.9427C8.89245 15.7777 8.17045 16.3467 7.17745 16.5137C5.99945 16.7107 6.49945 18.5037 7.67245 18.3067" fill="black"/>
<path fill-rule="evenodd" clip-rule="evenodd" d="M25.8414 0.109536C23.7374 0.423536 21.6334 0.738536 19.5294 1.05254C19.0324 1.12754 18.7584 1.75454 18.8804 2.19654C19.0274 2.72854 19.5264 2.92154 20.0244 2.84554C22.1284 2.53154 24.2324 2.21754 26.3354 1.90354C26.8324 1.82954 27.1074 1.20154 26.9854 0.758536C26.8384 0.226535 26.3394 0.0355355 25.8414 0.109536" fill="black"/>
<path fill-rule="evenodd" clip-rule="evenodd" d="M18.6354 2.44729C18.9944 11.5053 19.3554 20.5623 19.7144 29.6213C19.7624 30.8133 21.6224 30.8193 21.5744 29.6213C21.2154 20.5623 20.8554 11.5053 20.4944 2.44729C20.4474 1.25429 18.5874 1.24829 18.6354 2.44729" fill="black"/>
<path fill-rule="evenodd" clip-rule="evenodd" d="M20.5055 30.7493C23.1745 30.6703 25.8425 30.5923 28.5115 30.5133C29.7055 30.4783 29.7105 28.6173 28.5115 28.6533C25.8425 28.7313 23.1745 28.8113 20.5055 28.8893C19.3115 28.9243 19.3065 30.7843 20.5055 30.7493Z" fill="black"/>
<path fill-rule="evenodd" clip-rule="evenodd" d="M20.5096 18.3781C22.0456 18.4561 23.5816 18.5341 25.1186 18.6111C25.6056 18.6361 26.0706 18.1661 26.0486 17.6821C26.0256 17.1561 25.6396 16.7771 25.1186 16.7511C23.5816 16.6741 22.0456 16.5961 20.5096 16.5191C20.0226 16.4931 19.5576 16.9641 19.5786 17.4481C19.6026 17.9731 19.9886 18.3521 20.5096 18.3781" fill="black"/>
<path fill-rule="evenodd" clip-rule="evenodd" d="M37.5857 0.659162C31.5067 -0.439838 29.6867 6.20916 30.2957 11.0042C30.6147 13.5172 31.5937 16.2022 33.2337 18.1642C35.2987 20.6302 39.2817 22.7752 39.3477 26.3882C39.4047 29.6242 35.2357 31.4162 33.8417 27.9912C33.3967 26.8972 31.5967 27.3762 32.0487 28.4852C33.1107 31.0962 35.6697 32.6602 38.3757 31.2532C41.0647 29.8542 41.8427 26.4702 40.6077 23.8272C39.8207 22.1392 38.5677 20.7392 37.2287 19.4702C36.0927 18.3922 34.6827 17.3652 33.9427 15.9522C32.6167 13.4212 31.8477 10.8912 32.0617 7.99216C32.2717 5.13716 33.6897 1.83816 37.0917 2.45316C38.2627 2.66416 38.7647 0.872162 37.5857 0.659162" fill="black"/>
<path fill-rule="evenodd" clip-rule="evenodd" d="M40.1588 4.84961C43.8088 4.38161 47.5218 4.39661 51.1618 4.95361C51.6578 5.02961 52.1618 4.82861 52.3058 4.30361C52.4268 3.86361 52.1558 3.23661 51.6568 3.15961C47.8428 2.57661 43.9888 2.49861 40.1588 2.98961C39.6608 3.05361 39.2288 3.37061 39.2288 3.91961C39.2288 4.37161 39.6568 4.91361 40.1588 4.84961Z" fill="black"/>
<path fill-rule="evenodd" clip-rule="evenodd" d="M45.0681 4.36736C44.9381 13.1884 44.8081 22.0104 44.6791 30.8304C44.6621 32.0274 46.5211 32.0284 46.5391 30.8304C46.6691 22.0104 46.7981 13.1884 46.9281 4.36736C46.9461 3.17036 45.0861 3.16936 45.0681 4.36736" fill="black"/>
<path fill-rule="evenodd" clip-rule="evenodd" d="M64.1647 2.24121C63.7187 11.3782 63.2717 20.5152 62.8257 29.6522C62.7627 30.9382 64.7627 30.9352 64.8257 29.6522C65.2717 20.5152 65.7187 11.3782 66.1647 2.24121C66.2277 0.955207 64.2267 0.958207 64.1647 2.24121Z" fill="black"/>
<path fill-rule="evenodd" clip-rule="evenodd" d="M63.442 31.9348C68.707 31.6938 73.497 29.1858 74.734 23.7348C75.886 18.6588 74.193 13.1308 71.774 8.67684C70.369 6.08884 68.567 3.65384 66.338 1.71484C65.371 0.872842 63.951 2.28284 64.923 3.12884C68.463 6.20584 70.962 10.5518 72.254 15.0328C73.365 18.8878 73.824 23.9368 70.836 27.1118C68.928 29.1388 66.133 29.8118 63.442 29.9348C62.161 29.9938 62.153 31.9938 63.442 31.9348" fill="black"/>
<path fill-rule="evenodd" clip-rule="evenodd" d="M77.8922 30.184C80.9912 21.27 83.5712 12.186 85.6212 2.97397C85.8992 1.71997 83.9713 1.18397 83.6923 2.44197C81.6423 11.655 79.0622 20.738 75.9632 29.652C75.5392 30.871 77.4712 31.394 77.8922 30.184Z" fill="black"/>
<path fill-rule="evenodd" clip-rule="evenodd" d="M84.2078 3.46104C85.5718 12.398 87.1498 21.299 88.9398 30.16C89.1948 31.421 91.1228 30.887 90.8688 29.628C89.0788 20.768 87.5008 11.865 86.1368 2.93004C85.9418 1.66104 84.0158 2.20004 84.2078 3.46104" fill="black"/>
<path fill-rule="evenodd" clip-rule="evenodd" d="M80.1716 22.7395C82.7126 22.6285 85.2526 22.5175 87.7936 22.4065C88.3336 22.3835 88.7936 21.9645 88.7936 21.4065C88.7936 20.8835 88.3356 20.3835 87.7936 20.4065C85.2526 20.5175 82.7126 20.6285 80.1716 20.7395C79.6316 20.7625 79.1716 21.1815 79.1716 21.7395C79.1716 22.2625 79.6296 22.7625 80.1716 22.7395Z" fill="black"/>
<path fill-rule="evenodd" clip-rule="evenodd" d="M97.2389 30.5989C96.9899 21.2249 96.7409 11.8519 96.4919 2.47795C96.4579 1.19395 94.4579 1.18795 94.4919 2.47795C94.7409 11.8519 94.9899 21.2249 95.2389 30.5989C95.2729 31.8829 97.2729 31.8879 97.2389 30.5989Z" fill="black"/>
<path fill-rule="evenodd" clip-rule="evenodd" d="M96.5897 31.7219C101.823 30.8339 106.189 27.6559 106.941 22.1569C107.642 17.0189 105.54 11.6599 102.706 7.46492C101.045 5.00592 99.0277 2.80392 96.6067 1.07692C95.5567 0.328921 94.5567 2.06292 95.5967 2.80492C99.3607 5.48892 102.239 9.64492 103.831 13.9539C105.242 17.7749 105.958 22.6719 103.26 26.1239C101.516 28.3539 98.7587 29.3349 96.0577 29.7929C94.7907 30.0079 95.3277 31.9359 96.5897 31.7219" fill="black"/>
<path fill-rule="evenodd" clip-rule="evenodd" d="M61.7068 47.5879C62.2838 51.8349 62.5468 56.1239 62.5288 60.4099C62.5258 61.2079 63.6748 61.8189 64.2368 61.1169C65.9238 59.0089 67.6098 56.9009 69.2968 54.7929C69.6368 54.3679 69.7038 53.7949 69.2968 53.3789C68.9508 53.0249 68.2188 52.9579 67.8828 53.3789C66.1958 55.4869 64.5088 57.5949 62.8218 59.7029C63.3918 59.9389 63.9608 60.1749 64.5288 60.4099C64.5478 55.9399 64.2368 51.4849 63.6358 47.0559C63.5628 46.5219 62.8758 46.2259 62.4058 46.3579C61.8278 46.5199 61.6338 47.0479 61.7068 47.5879" fill="black"/>
<path fill-rule="evenodd" clip-rule="evenodd" d="M67.4324 54.6613C68.2514 57.1953 69.0714 59.7293 69.8904 62.2633C70.1744 63.1413 71.6084 63.2853 71.8194 62.2633C72.7844 57.5803 74.1474 52.9923 75.8974 48.5423C76.3684 47.3443 74.4344 46.8243 73.9684 48.0113C72.2184 52.4603 70.8554 57.0493 69.8904 61.7313H71.8194C70.9994 59.1973 70.1804 56.6643 69.3614 54.1303C68.9664 52.9103 67.0354 53.4323 67.4324 54.6613" fill="black"/>
<path fill-rule="evenodd" clip-rule="evenodd" d="M81.6023 50.9065C78.3103 50.0445 76.2663 53.6054 75.2513 56.1474C74.9843 56.8184 74.6663 57.5604 74.5703 58.2804C74.4763 58.9834 74.4643 59.7134 74.4983 60.4214C74.5433 61.3794 74.6733 62.4814 75.2423 63.2924C75.7193 63.9704 76.4643 64.4294 77.3183 64.3504C78.1923 64.2694 78.9233 63.8254 79.5833 63.2724C81.0763 62.0234 82.1113 60.1615 82.7363 58.3435C83.4283 56.3295 83.5733 54.0525 82.6303 52.0945C82.5293 51.8845 82.4123 51.6804 82.2823 51.4854C81.9823 51.0364 81.3993 50.8434 80.9143 51.1274C80.4673 51.3874 80.2533 52.0444 80.5543 52.4954C80.6793 52.6824 80.7923 52.8775 80.8913 53.0795C80.9083 53.1125 80.9233 53.1464 80.9393 53.1794C80.9983 53.2994 81.0573 53.2864 80.9273 53.1444C80.9973 53.2204 81.0293 53.4125 81.0603 53.5105C81.1233 53.7045 81.1733 53.9015 81.2143 54.1015C81.2333 54.1925 81.2463 54.2854 81.2633 54.3764C81.3043 54.5824 81.2413 54.1234 81.2583 54.3324C81.2643 54.4074 81.2743 54.4814 81.2813 54.5564C81.3173 54.9944 81.3083 55.4345 81.2663 55.8715C81.2603 55.9285 81.2523 55.9864 81.2473 56.0444C81.2283 56.2594 81.2893 55.7965 81.2513 56.0105C81.2363 56.1055 81.2223 56.2024 81.2053 56.2994C81.1643 56.5304 81.1133 56.7605 81.0543 56.9895C80.9423 57.4295 80.7993 57.8624 80.6333 58.2854C80.6113 58.3404 80.5883 58.3945 80.5673 58.4495C80.4883 58.6505 80.6653 58.2325 80.5763 58.4275C80.5263 58.5345 80.4803 58.6424 80.4303 58.7494C80.3313 58.9594 80.2253 59.1675 80.1153 59.3715C79.9093 59.7495 79.6823 60.1165 79.4353 60.4694C79.3833 60.5424 79.3313 60.6154 79.2773 60.6874C79.2503 60.7234 79.2173 60.7885 79.1813 60.8155C79.3603 60.6805 79.2803 60.6904 79.2073 60.7784C79.0793 60.9354 78.9493 61.0914 78.8113 61.2414C78.6923 61.3704 78.5693 61.4964 78.4413 61.6174C78.3233 61.7274 78.1253 61.8384 78.0343 61.9694C78.1513 61.8025 78.2063 61.8434 78.1003 61.9154C78.0663 61.9384 78.0333 61.9644 77.9983 61.9874C77.9443 62.0254 77.8873 62.0624 77.8313 62.0974C77.7083 62.1744 77.5433 62.2234 77.4323 62.3104C77.6123 62.1694 77.6563 62.2254 77.5403 62.2634C77.5083 62.2744 77.4773 62.2874 77.4443 62.2984C77.3863 62.3174 77.3293 62.3344 77.2693 62.3484C77.0963 62.3884 77.0903 62.3004 77.3333 62.3484C77.2763 62.3374 77.1843 62.3564 77.1233 62.3594C76.9603 62.3654 76.9903 62.2584 77.2153 62.3794C77.1743 62.3564 77.0943 62.3494 77.0473 62.3404C76.8323 62.2914 77.1893 62.4244 77.1263 62.3774C77.0933 62.3514 76.9873 62.2754 76.9493 62.2704C77.1293 62.2944 77.1483 62.4525 77.0553 62.3505C77.0413 62.3355 77.0233 62.3235 77.0093 62.3085C76.9693 62.2645 76.9223 62.1965 76.8753 62.1635C77.0593 62.2945 77.0113 62.3585 76.9493 62.2535C76.9333 62.2265 76.9153 62.2025 76.8993 62.1775C76.8543 62.1045 76.8193 62.0295 76.7783 61.9555C76.6693 61.7585 76.8683 62.2054 76.7633 61.9184C76.7373 61.8444 76.7123 61.7704 76.6913 61.6954C76.6313 61.4914 76.5913 61.2844 76.5533 61.0754C76.5403 61.0024 76.4813 60.8174 76.5553 61.1064C76.5403 61.0494 76.5403 60.9804 76.5353 60.9214C76.5233 60.8114 76.5143 60.7025 76.5073 60.5935C76.4883 60.3005 76.4833 60.0065 76.4863 59.7125C76.4903 59.3865 76.5043 59.0614 76.5273 58.7364C76.5333 58.6614 76.5323 58.5814 76.5443 58.5074C76.5023 58.7464 76.5703 58.4854 76.5803 58.4504C76.6313 58.2654 76.6863 58.0835 76.7453 57.9005C76.8573 57.5445 76.9813 57.1915 77.1163 56.8435C77.1373 56.7885 77.1593 56.7335 77.1803 56.6785C77.1953 56.6435 77.3373 56.3054 77.2493 56.5084C77.3323 56.3164 77.4173 56.1274 77.5073 55.9394C77.6733 55.5944 77.8523 55.2565 78.0483 54.9275C78.1363 54.7795 78.2283 54.6335 78.3243 54.4895C78.3713 54.4195 78.4183 54.3484 78.4673 54.2804C78.4923 54.2464 78.7073 53.9614 78.5593 54.1484C78.7633 53.8894 78.9843 53.6424 79.2273 53.4184C79.2743 53.3764 79.3213 53.3344 79.3693 53.2934C79.4073 53.2604 79.4453 53.2285 79.4843 53.1975C79.3783 53.2785 79.3703 53.2864 79.4563 53.2204C79.5863 53.1354 79.7133 53.0494 79.8503 52.9744C79.9023 52.9474 79.9553 52.9234 80.0063 52.8964C80.1063 52.8514 80.0893 52.8574 79.9573 52.9164C79.9993 52.8994 80.0423 52.8844 80.0853 52.8704C80.1513 52.8484 80.2153 52.8294 80.2823 52.8124C80.3303 52.8014 80.5553 52.7104 80.4153 52.7794C80.2933 52.8414 80.4233 52.7804 80.4873 52.7764C80.5793 52.7714 80.6713 52.7714 80.7643 52.7764C80.8293 52.7794 81.0463 52.8274 80.7813 52.7714C80.8783 52.7924 80.9743 52.8094 81.0703 52.8354C81.5763 52.9684 82.1793 52.6685 82.3003 52.1365C82.4193 51.6135 82.1433 51.0495 81.6023 50.9065" fill="black"/>
<path fill-rule="evenodd" clip-rule="evenodd" d="M85.1727 65.5089C86.1817 61.0169 87.5217 56.6079 89.1807 52.3129C89.3767 51.8049 88.9647 51.2209 88.4827 51.0819C87.9197 50.9209 87.4457 51.2799 87.2527 51.7809C85.5927 56.0749 84.2527 60.4859 83.2437 64.9779C82.9617 66.2319 84.8897 66.7669 85.1727 65.5089Z" fill="black"/>
<path fill-rule="evenodd" clip-rule="evenodd" d="M88.3786 53.0951C90.0306 52.9431 91.0366 53.781 90.8296 55.383C90.6086 57.097 89.1166 58.227 87.4356 58.46C86.9296 58.53 86.5676 59.233 86.7366 59.69C87.6856 62.256 88.4136 64.89 88.9186 67.578C89.1556 68.842 91.0846 68.3071 90.8476 67.0471C90.3416 64.3591 89.6126 61.7251 88.6656 59.1581C88.4326 59.5691 88.1996 59.9791 87.9676 60.3881C90.5766 60.0271 92.6526 57.905 92.8406 55.259C93.0266 52.638 90.9086 50.8631 88.3786 51.0951C87.1076 51.2121 87.0956 53.2131 88.3786 53.0951" fill="black"/>
<path fill-rule="evenodd" clip-rule="evenodd" d="M96.0768 55.7451C94.7418 59.8861 93.4068 64.0261 92.0728 68.1661C91.9478 68.5521 92.1478 69.1171 92.5318 69.2961C93.6928 69.8331 94.8538 70.3711 96.0148 70.9081C97.1768 71.4451 98.1928 69.7231 97.0248 69.1821C95.8638 68.6431 94.7028 68.1061 93.5418 67.5681C93.6948 67.9451 93.8478 68.3211 94.0008 68.6981C95.3358 64.5581 96.6708 60.4171 98.0058 56.2771C98.4008 55.0491 96.4718 54.5231 96.0768 55.7451" fill="black"/>
<path fill-rule="evenodd" clip-rule="evenodd" d="M101.094 71.6584C102.779 67.0934 104.464 62.5274 106.149 57.9624C106.595 56.7534 104.663 56.2314 104.22 57.4304C102.535 61.9964 100.85 66.5614 99.1655 71.1274C98.7195 72.3364 100.651 72.8574 101.094 71.6584" fill="black"/>
<path fill-rule="evenodd" clip-rule="evenodd" d="M100.429 72.7297C103.55 73.6087 106.799 72.8207 108.572 69.9627C110.165 67.3907 110.213 63.9347 109.126 61.1667C108.42 59.3697 107.292 57.8737 105.763 56.6977C105.331 56.3667 104.647 56.6347 104.395 57.0567C104.088 57.5687 104.327 58.0967 104.753 58.4247C106.778 59.9797 107.854 62.5707 107.858 65.0847C107.862 67.2707 107.029 69.6057 105.051 70.6367C103.813 71.2817 102.308 71.1807 100.961 70.8007C99.7196 70.4527 99.1896 72.3807 100.429 72.7297" fill="black"/>
<path fill-rule="evenodd" clip-rule="evenodd" d="M29.4198 49.9854C30.3638 54.4224 31.3098 58.8574 32.2538 63.2944C32.5218 64.5514 34.4498 64.0194 34.1828 62.7624C33.2368 58.3264 32.2928 53.8894 31.3488 49.4534C31.0808 48.1954 29.1518 48.7274 29.4198 49.9854" fill="black"/>
<path fill-rule="evenodd" clip-rule="evenodd" d="M27.1297 50.1477C29.7747 49.5567 32.4577 49.2337 35.1667 49.1717C36.4517 49.1427 36.4567 47.1427 35.1667 47.1717C32.2847 47.2377 29.4107 47.5907 26.5987 48.2187C26.0707 48.3357 25.7617 48.9467 25.9007 49.4487C26.0487 49.9917 26.6017 50.2647 27.1297 50.1477" fill="black"/>
<path fill-rule="evenodd" clip-rule="evenodd" d="M37.028 47.5666C37.757 52.1286 38.486 56.6886 39.216 61.2506C39.3 61.7876 39.965 62.0756 40.445 61.9486C41.014 61.7976 41.228 61.2496 41.143 60.7176C40.415 56.1576 39.686 51.5956 38.957 47.0356C38.871 46.4976 38.208 46.2106 37.727 46.3366C37.157 46.4866 36.943 47.0366 37.028 47.5666" fill="black"/>
<path fill-rule="evenodd" clip-rule="evenodd" d="M39.7975 56.3163C39.5735 56.4113 39.9055 56.2743 39.9445 56.2593C40.0235 56.2293 40.1015 56.2003 40.1795 56.1703C40.3625 56.1043 40.5475 56.0423 40.7345 55.9833C41.0785 55.8753 41.4295 55.7823 41.7825 55.7043C41.9595 55.6653 42.1376 55.6293 42.3156 55.5983C42.4116 55.5813 42.5075 55.5653 42.6045 55.5503C42.6385 55.5453 42.9146 55.4933 42.6696 55.5413C43.0466 55.4673 43.4515 55.4623 43.8345 55.4493C44.3575 55.4313 44.8595 55.0023 44.8345 54.4493C44.8115 53.9223 44.3955 53.4293 43.8345 53.4493C42.0805 53.5093 40.4005 53.9073 38.7875 54.5883C38.5735 54.6793 38.3865 54.9753 38.3275 55.1863C38.2625 55.4263 38.2915 55.7453 38.4295 55.9583C38.5675 56.1703 38.7715 56.3593 39.0265 56.4173C39.3075 56.4813 39.5345 56.4263 39.7975 56.3163Z" fill="black"/>
<path fill-rule="evenodd" clip-rule="evenodd" d="M42.6051 46.7522C42.9311 50.7112 43.2581 54.6692 43.5841 58.6282C43.6311 59.1972 43.6781 59.7682 43.7251 60.3382C43.8311 61.6112 45.8321 61.6222 45.7251 60.3382C45.3991 56.3792 45.0731 52.4202 44.7461 48.4622C44.6991 47.8922 44.6521 47.3222 44.6051 46.7522C44.5011 45.4792 42.5001 45.4672 42.6051 46.7522Z" fill="black"/>
<path fill-rule="evenodd" clip-rule="evenodd" d="M54.0104 45.0196L49.6514 45.3276L49.0244 45.3716C48.5034 45.4086 47.9984 45.8046 48.0244 46.3716C48.0464 46.8816 48.4654 47.4106 49.0244 47.3716C50.4774 47.2686 51.9304 47.1666 53.3824 47.0646C53.5924 47.0496 53.8014 47.0356 54.0104 47.0196C54.5314 46.9836 55.0354 46.5856 55.0104 46.0196C54.9884 45.5096 54.5694 44.9806 54.0104 45.0196" fill="black"/>
<path fill-rule="evenodd" clip-rule="evenodd" d="M47.5368 46.4602C47.7358 50.7372 48.0188 55.0122 48.2188 59.2892C48.2778 60.5712 50.2778 60.5782 50.2188 59.2892C50.0188 55.0122 49.7358 50.7372 49.5368 46.4602C49.4758 45.1782 47.4758 45.1712 47.5368 46.4602Z" fill="black"/>
<path fill-rule="evenodd" clip-rule="evenodd" d="M49.1571 60.2344C51.1641 60.2484 53.1711 60.2624 55.1781 60.2764C55.7011 60.2804 56.2021 59.8134 56.1781 59.2764C56.1531 58.7314 55.7381 58.2804 55.1781 58.2764C53.1711 58.2624 51.1641 58.2484 49.1571 58.2344C48.6341 58.2304 48.1331 58.6974 48.1571 59.2344C48.1811 59.7794 48.5951 60.2304 49.1571 60.2344Z" fill="black"/>
<path fill-rule="evenodd" clip-rule="evenodd" d="M49.0603 53.4161C50.2803 53.3091 51.4993 53.2011 52.7193 53.0931C52.8943 53.0771 53.0703 53.0621 53.2463 53.0471C53.7653 53.0011 54.2713 52.6191 54.2463 52.0471C54.2233 51.5441 53.8033 50.9971 53.2463 51.0471C52.0263 51.1541 50.8063 51.2621 49.5863 51.3701C49.4113 51.3861 49.2353 51.4001 49.0603 51.4161C48.5393 51.4621 48.0343 51.8441 48.0603 52.4161C48.0823 52.9191 48.5013 53.4661 49.0603 53.4161" fill="black"/>
<path fill-rule="evenodd" clip-rule="evenodd" d="M4.48615 60.7452C5.58115 63.9032 6.67615 67.0612 7.77115 70.2202C7.94815 70.7292 8.45615 71.0672 9.00115 70.9182C9.49715 70.7822 9.87815 70.2002 9.70015 69.6872C8.60415 66.5302 7.50915 63.3722 6.41515 60.2142C6.23815 59.7032 5.73015 59.3652 5.18515 59.5162C4.68915 59.6512 4.30815 60.2322 4.48615 60.7452" fill="black"/>
<path fill-rule="evenodd" clip-rule="evenodd" d="M2.49873 61.5121C4.74673 61.0431 6.91373 60.1551 8.84573 58.9131C9.28473 58.6311 9.50573 58.0121 9.20373 57.5451C8.92073 57.1061 8.30673 56.8841 7.83573 57.1871C5.97773 58.3791 4.13773 59.1311 1.96673 59.5831C1.45373 59.6901 1.10873 60.3221 1.26873 60.8141C1.44373 61.3561 1.94873 61.6261 2.49873 61.5121" fill="black"/>
<path fill-rule="evenodd" clip-rule="evenodd" d="M16.6911 67.7491C15.6391 63.3651 14.5871 58.9821 13.5371 54.5991C12.9791 54.9231 12.4221 55.2471 11.8651 55.5711L21.0901 65.9511C21.7821 66.7291 22.9881 65.8991 22.7611 64.9781C21.6691 60.5381 20.3241 56.1641 19.2301 51.7241C18.9221 50.4751 16.9941 51.0041 17.3011 52.2561C18.3951 56.6961 19.7401 61.0701 20.8341 65.5111C21.3901 65.1861 21.9481 64.8611 22.5041 64.5371L13.2791 54.1571C12.5851 53.3771 11.3871 54.2121 11.6081 55.1311C12.6601 59.5141 13.7121 63.8971 14.7621 68.2801C15.0631 69.5311 16.9921 69.0021 16.6911 67.7491" fill="black"/>
<path fill-rule="evenodd" clip-rule="evenodd" d="M6.6521 70.3441C6.5381 70.4891 6.4231 70.6321 6.3071 70.7771C5.9941 71.1711 5.9021 71.6651 6.2291 72.0891C6.5561 72.5131 7.0541 72.5501 7.5191 72.3471C9.0741 71.6671 10.6291 70.9881 12.1821 70.3091C12.6641 70.0981 12.8101 69.3581 12.5411 68.9411C12.2191 68.4421 11.6871 68.3571 11.1731 68.5811C9.6191 69.2611 8.0641 69.9411 6.5101 70.6201C6.9141 71.1441 7.3181 71.6671 7.7211 72.1911C7.8371 72.0461 7.9521 71.9031 8.0671 71.7581C8.2381 71.5431 8.3591 71.3381 8.3591 71.0511C8.3591 70.8061 8.2511 70.5131 8.0671 70.3441C7.7051 70.0111 7.0011 69.9071 6.6521 70.3441" fill="black"/>
<path fill-rule="evenodd" clip-rule="evenodd" d="M2.21639 152.418C14.3384 143.549 28.7304 138.033 43.6194 136.176C58.4084 134.33 73.6134 135.963 87.6154 141.099C95.5734 144.018 103.077 148.106 109.845 153.21C110.872 153.984 111.87 152.249 110.855 151.482C98.6124 142.251 83.9744 136.467 68.8114 134.371C53.7424 132.288 38.1684 133.73 23.8124 138.81C15.7504 141.662 8.11039 145.641 1.20639 150.691C0.178391 151.443 1.17539 153.18 2.21639 152.418" fill="black"/>
<path fill-rule="evenodd" clip-rule="evenodd" d="M37.7557 136.022C35.4247 132.27 33.0947 128.518 30.7647 124.766C30.0867 123.675 28.3557 124.678 29.0367 125.776C31.3667 129.528 33.6977 133.28 36.0277 137.031C36.7057 138.123 38.4377 137.12 37.7557 136.022" fill="black"/>
<path fill-rule="evenodd" clip-rule="evenodd" d="M30.9353 126.058C46.0093 122.481 61.7563 122.119 76.9753 125.023C78.2333 125.262 78.7723 123.335 77.5073 123.094C61.9243 120.121 45.8403 120.466 30.4043 124.129C29.1523 124.426 29.6823 126.356 30.9353 126.058Z" fill="black"/>
<path fill-rule="evenodd" clip-rule="evenodd" d="M76.2185 123.724C73.9705 127.476 71.7225 131.227 69.4745 134.978C68.8115 136.084 70.5395 137.091 71.2015 135.988C73.4495 132.236 75.6975 128.485 77.9465 124.734C78.6095 123.627 76.8805 122.62 76.2185 123.724" fill="black"/>
<path fill-rule="evenodd" clip-rule="evenodd" d="M42.5963 123.217C46.8603 118.414 50.9413 113.427 54.8193 108.309C55.1473 107.874 54.8843 107.195 54.4603 106.941C53.9503 106.635 53.4163 106.87 53.0913 107.299C49.3183 112.281 45.3313 117.128 41.1823 121.803C40.3303 122.762 41.7403 124.182 42.5963 123.217" fill="black"/>
<path fill-rule="evenodd" clip-rule="evenodd" d="M54.0231 108.413C57.7721 112.93 61.2631 117.652 64.4911 122.557C65.1961 123.627 66.9281 122.626 66.2181 121.547C62.8971 116.502 59.2941 111.646 55.4371 106.998C54.6141 106.007 53.2071 107.429 54.0231 108.413" fill="black"/>
<path fill-rule="evenodd" clip-rule="evenodd" d="M54.9187 121.772C55.1847 117.101 55.4507 112.431 55.7177 107.76C55.7907 106.474 53.7897 106.479 53.7177 107.76C53.4507 112.431 53.1847 117.101 52.9187 121.772C52.8457 123.058 54.8457 123.053 54.9187 121.772Z" fill="black"/>
<path fill-rule="evenodd" clip-rule="evenodd" d="M1.98217 42.0696C4.81017 41.9006 7.63917 41.7316 10.4672 41.5616C10.2992 40.9406 10.1302 40.3196 9.96217 39.6986C6.78417 41.9036 3.60617 44.1096 0.427173 46.3146C-0.0158271 46.6226 -0.218827 47.1916 0.0691728 47.6826C0.325173 48.1226 0.991173 48.3516 1.43717 48.0426C4.61517 45.8366 7.79417 43.6316 10.9722 41.4246C11.7222 40.9056 11.5372 39.4986 10.4672 39.5616C7.63917 39.7316 4.81017 39.9006 1.98217 40.0696C1.44317 40.1016 0.982173 40.5066 0.982173 41.0696C0.982173 41.5866 1.44017 42.1016 1.98217 42.0696" fill="black"/>
<path fill-rule="evenodd" clip-rule="evenodd" d="M109.283 40.0696C106.454 39.9006 103.626 39.7316 100.798 39.5616C99.73 39.4986 99.543 40.9046 100.293 41.4246C103.471 43.6316 106.65 45.8366 109.828 48.0426C110.272 48.3496 110.938 48.1246 111.196 47.6826C111.487 47.1856 111.283 46.6246 110.838 46.3146C107.659 44.1096 104.48 41.9036 101.303 39.6986C101.134 40.3196 100.966 40.9406 100.798 41.5616C103.626 41.7316 106.454 41.9006 109.283 42.0696C109.822 42.1016 110.283 41.5876 110.283 41.0696C110.283 40.5016 109.824 40.1016 109.283 40.0696Z" fill="black"/>
<path fill-rule="evenodd" clip-rule="evenodd" d="M88.3172 106.837C94.5402 106.732 100.761 106.626 106.984 106.521C108.269 106.498 108.273 104.498 106.984 104.521C100.761 104.626 94.5402 104.732 88.3172 104.837C87.0322 104.858 87.0272 106.859 88.3172 106.837" fill="black"/>
<path fill-rule="evenodd" clip-rule="evenodd" d="M88.9772 105.569C88.9992 105.33 88.9372 105.715 88.9862 105.502C89.0072 105.406 89.0252 105.31 89.0502 105.216C89.0722 105.135 89.0952 105.056 89.1232 104.978C89.1322 104.95 89.2312 104.708 89.1782 104.827C89.1252 104.945 89.2572 104.673 89.2712 104.648C89.3112 104.575 89.3522 104.504 89.3962 104.433C89.4402 104.363 89.4892 104.296 89.5352 104.226C89.6502 104.052 89.4292 104.334 89.5822 104.165C89.6962 104.041 89.8052 103.915 89.9272 103.799C89.9892 103.742 90.0542 103.688 90.1162 103.632C90.3132 103.452 89.9592 103.731 90.1802 103.581C90.3202 103.484 90.4592 103.39 90.6082 103.306C90.6822 103.264 90.7572 103.224 90.8332 103.187C90.8842 103.162 90.9362 103.137 90.9882 103.114C90.8922 103.153 90.8782 103.159 90.9452 103.132C91.1052 103.071 91.2672 103.016 91.4322 102.971C91.5152 102.95 91.5982 102.929 91.6822 102.913C91.7322 102.902 92.0402 102.862 91.7982 102.887C91.9712 102.869 92.1442 102.858 92.3172 102.86C92.4042 102.861 92.4922 102.865 92.5792 102.871C92.6102 102.874 92.8892 102.917 92.6622 102.877C92.8372 102.908 93.0122 102.945 93.1832 102.997C93.2712 103.023 93.3562 103.054 93.4422 103.085C93.6532 103.16 93.3622 103.032 93.5442 103.131C93.7132 103.224 93.8822 103.31 94.0432 103.418C94.2082 103.527 94.2592 103.568 94.4772 103.773C94.8722 104.142 95.5012 104.164 95.8922 103.773C96.2652 103.4 96.2882 102.729 95.8922 102.359C94.3932 100.955 92.2642 100.46 90.3342 101.236C88.4932 101.976 87.1692 103.573 86.9772 105.569C86.9242 106.108 87.4732 106.569 87.9772 106.569C88.5612 106.569 88.9242 106.109 88.9772 105.569" fill="black"/>
<path fill-rule="evenodd" clip-rule="evenodd" d="M96.4598 102.474C96.4208 102.159 96.3968 101.842 96.3978 101.525C96.3978 101.378 96.4038 101.232 96.4158 101.085C96.4198 101.029 96.4278 100.972 96.4318 100.915C96.4488 100.677 96.3918 101.063 96.4408 100.854C96.5018 100.599 96.5478 100.347 96.6338 100.099C96.6488 100.052 96.6698 100.006 96.6848 99.9587C96.7578 99.7297 96.6178 100.097 96.6828 99.9617C96.7388 99.8437 96.7958 99.7267 96.8598 99.6137C96.9178 99.5127 96.9808 99.4167 97.0458 99.3207C97.1998 99.0867 96.9488 99.4077 97.1378 99.2027C97.2888 99.0387 97.4468 98.8927 97.6088 98.7407C97.7678 98.5907 97.4708 98.8367 97.5868 98.7567C97.6308 98.7267 97.6738 98.6947 97.7188 98.6637C97.8088 98.6037 97.8998 98.5467 97.9938 98.4947C98.0778 98.4477 98.1668 98.4077 98.2518 98.3617C98.3108 98.3287 98.4638 98.2767 98.2188 98.3707C98.2788 98.3477 98.3388 98.3237 98.3988 98.3017C98.6008 98.2297 98.8088 98.1727 99.0188 98.1297C99.0728 98.1197 99.3708 98.0777 99.2038 98.0967C99.0458 98.1147 99.3878 98.0837 99.4568 98.0807C99.6618 98.0727 99.8648 98.0817 100.07 98.0947C100.124 98.0987 100.178 98.1067 100.231 98.1117C99.9628 98.0857 100.1 98.0907 100.158 98.1037C100.284 98.1327 100.412 98.1517 100.538 98.1837C100.738 98.2347 100.932 98.3017 101.125 98.3747C101.257 98.4257 100.903 98.2587 101.095 98.3657C101.132 98.3857 101.174 98.4027 101.212 98.4217C101.329 98.4807 101.443 98.5437 101.554 98.6137C101.647 98.6707 101.734 98.7367 101.825 98.7967C101.874 98.8287 101.957 98.9167 101.78 98.7607C101.821 98.7977 101.866 98.8297 101.906 98.8687C102.079 99.0307 102.239 99.1967 102.394 99.3757C102.212 99.1637 102.456 99.4707 102.499 99.5357C102.568 99.6457 102.633 99.7577 102.692 99.8717C102.715 99.9147 102.734 99.9577 102.757 100.001C102.777 100.045 102.797 100.089 102.816 100.133C102.769 100.019 102.758 99.9947 102.785 100.065C102.832 100.196 102.879 100.325 102.917 100.458C102.96 100.61 102.992 100.763 103.024 100.917C103.035 100.97 103.042 101.024 103.051 101.078C103.011 100.834 103.051 101.085 103.055 101.142C103.079 101.501 103.082 101.856 103.055 102.215C103.014 102.754 103.544 103.215 104.055 103.215C104.63 103.215 105.014 102.756 105.055 102.215C105.253 99.6267 103.926 97.2067 101.412 96.3567C99.2248 95.6157 96.7008 96.3677 95.3578 98.2557C94.4988 99.4637 94.2798 101.031 94.4598 102.474C94.5258 103.01 94.8718 103.474 95.4598 103.474C95.9478 103.474 96.5258 103.014 96.4598 102.474" fill="black"/>
<path fill-rule="evenodd" clip-rule="evenodd" d="M103.989 103.547C104.067 103.552 104.145 103.56 104.223 103.569C104.135 103.558 104.046 103.546 103.958 103.534C104.269 103.577 104.57 103.662 104.861 103.782C104.781 103.749 104.702 103.716 104.622 103.682C104.839 103.776 105.046 103.886 105.242 104.017C105.295 104.052 105.345 104.089 105.396 104.125C105.534 104.224 105.206 103.968 105.343 104.085C105.432 104.162 105.521 104.238 105.605 104.321C105.689 104.404 105.769 104.49 105.845 104.58C105.894 104.638 105.985 104.781 105.806 104.525C105.843 104.576 105.882 104.625 105.917 104.678C106.05 104.871 106.162 105.078 106.256 105.294C106.222 105.214 106.188 105.135 106.155 105.055C106.221 105.215 106.276 105.378 106.32 105.545C106.452 106.052 107.042 106.408 107.551 106.243C108.072 106.074 108.389 105.556 108.249 105.014C107.745 103.077 105.964 101.682 103.989 101.547C103.466 101.511 102.966 102.032 102.989 102.547C103.014 103.119 103.428 103.509 103.989 103.547" fill="black"/>
<path fill-rule="evenodd" clip-rule="evenodd" d="M55.3307 91.4134C57.7867 89.1034 60.2597 86.5284 61.7997 83.4924C62.6027 81.9074 63.3057 79.8974 62.6937 78.1264C61.6787 75.1844 58.0287 74.9304 55.8077 76.6444C54.3097 77.8004 53.6007 79.6224 53.6237 81.4864C53.6397 82.7714 55.6407 82.7754 55.6237 81.4864C55.6217 81.2944 55.6257 81.1014 55.6397 80.9094C55.6447 80.8224 55.6557 80.7364 55.6637 80.6504C55.6777 80.5054 55.6147 80.9094 55.6577 80.6954C55.6687 80.6444 55.6757 80.5934 55.6847 80.5424C55.7487 80.1994 55.8557 79.8774 55.9747 79.5514C55.9057 79.7384 55.9277 79.6524 55.9867 79.5334C56.0187 79.4684 56.0517 79.4024 56.0867 79.3384C56.1627 79.1964 56.2467 79.0594 56.3377 78.9274C56.3777 78.8694 56.4207 78.8134 56.4607 78.7574C56.2767 79.0194 56.4277 78.8004 56.4827 78.7384C56.5857 78.6264 56.6867 78.5144 56.7987 78.4104C56.8827 78.3314 57.2377 78.0744 56.9567 78.2634C57.0777 78.1824 57.1937 78.0944 57.3187 78.0174C57.4287 77.9524 57.5407 77.8914 57.6547 77.8344C57.7107 77.8074 57.7727 77.7864 57.8267 77.7554C57.5517 77.9194 57.7477 77.7884 57.8487 77.7514C58.0967 77.6614 58.3497 77.6234 58.6017 77.5564C58.7357 77.5194 58.3137 77.5754 58.5807 77.5594C58.6407 77.5574 58.6987 77.5504 58.7587 77.5474C58.8897 77.5404 59.0207 77.5404 59.1517 77.5474C59.2167 77.5514 59.2817 77.5614 59.3467 77.5624C59.4997 77.5644 59.0667 77.5024 59.2917 77.5574C59.4157 77.5874 59.5397 77.6074 59.6617 77.6434C59.8077 77.6874 60.0447 77.8244 59.7737 77.6724C59.8827 77.7324 59.9967 77.7784 60.1027 77.8444C60.1557 77.8764 60.2047 77.9144 60.2577 77.9454C60.4257 78.0434 60.0807 77.7774 60.2187 77.9154C60.3067 78.0034 60.3997 78.0844 60.4857 78.1744C60.5157 78.2044 60.6497 78.3794 60.5287 78.2194C60.4067 78.0584 60.5497 78.2514 60.5737 78.2924C60.6427 78.4054 60.6957 78.5274 60.7647 78.6404C60.8407 78.7674 60.6837 78.3884 60.7497 78.6134C60.7677 78.6744 60.7907 78.7324 60.8087 78.7924C60.8507 78.9344 60.8587 79.0904 60.9037 79.2274C60.8147 78.9574 60.8927 79.1014 60.8987 79.2224C60.9037 79.3044 60.9097 79.3864 60.9117 79.4684C60.9157 79.6434 60.9047 79.8174 60.8927 79.9934C60.8787 80.2254 60.8897 80.0554 60.8927 80.0384C60.8747 80.1354 60.8607 80.2324 60.8427 80.3294C60.8017 80.5374 60.7507 80.7424 60.6907 80.9454C60.6337 81.1424 60.5687 81.3374 60.4977 81.5294C60.4597 81.6324 60.4197 81.7344 60.3787 81.8354C60.3077 82.0114 60.3647 81.8654 60.3807 81.8314C60.3447 81.9124 60.3097 81.9924 60.2717 82.0714C58.8477 85.1514 56.3557 87.7044 53.9167 89.9994C52.9767 90.8834 54.3937 92.2954 55.3307 91.4134" fill="black"/>
<path fill-rule="evenodd" clip-rule="evenodd" d="M55.3307 89.999C53.1047 87.95 50.9207 85.709 49.4467 83.04C49.3207 82.812 49.2007 82.581 49.0877 82.347C49.0347 82.235 48.9837 82.124 48.9337 82.013C48.8527 81.834 48.9137 81.969 48.9297 82.007C48.8957 81.927 48.8637 81.847 48.8327 81.767C48.6827 81.377 48.5557 80.978 48.4647 80.571C48.4427 80.479 48.4247 80.387 48.4077 80.294C48.3877 80.185 48.3677 79.996 48.3927 80.227C48.3717 80.038 48.3537 79.851 48.3507 79.661C48.3487 79.505 48.3577 79.352 48.3657 79.196C48.3787 78.948 48.3357 79.315 48.3627 79.189C48.3777 79.121 48.3867 79.051 48.4007 78.981C48.4307 78.85 48.4697 78.722 48.5097 78.593C48.5557 78.445 48.5757 78.453 48.4957 78.607C48.5317 78.538 48.5607 78.466 48.5977 78.397C48.6537 78.292 48.7377 78.196 48.7887 78.09C48.8497 77.962 48.6107 78.279 48.7677 78.119C48.8127 78.072 48.8537 78.021 48.8987 77.975C48.9707 77.903 49.0777 77.84 49.1387 77.761C48.9867 77.957 48.9907 77.86 49.1067 77.792C49.1687 77.757 49.2267 77.717 49.2877 77.682C49.3367 77.654 49.3897 77.633 49.4377 77.604C49.6237 77.495 49.2827 77.649 49.3937 77.621C49.5107 77.59 49.6217 77.54 49.7387 77.511C49.7947 77.496 49.8517 77.485 49.9077 77.474C49.9517 77.464 50.1767 77.439 49.9677 77.461C49.7657 77.48 50.1517 77.452 50.2287 77.452C50.3507 77.451 50.4687 77.465 50.5887 77.469C50.8177 77.477 50.4267 77.432 50.5487 77.463C50.6147 77.479 50.6847 77.487 50.7527 77.502C50.8747 77.529 50.9957 77.562 51.1147 77.602C51.1757 77.621 51.2337 77.646 51.2947 77.666C51.4907 77.728 51.0797 77.555 51.3017 77.668C51.5507 77.796 51.7797 77.936 52.0137 78.088C52.1807 78.196 51.8517 77.941 52.0367 78.107C52.1027 78.167 52.1717 78.223 52.2357 78.283C52.3547 78.395 52.4687 78.515 52.5747 78.639C52.6057 78.674 52.7737 78.891 52.6737 78.756C52.5727 78.621 52.7367 78.849 52.7637 78.888C52.8697 79.045 52.9667 79.207 53.0547 79.374C53.0987 79.456 53.1377 79.54 53.1787 79.623C53.3017 79.873 53.1307 79.472 53.2267 79.736C53.2957 79.925 53.3617 80.113 53.4157 80.307C53.4727 80.511 53.5187 80.718 53.5577 80.926C53.5697 81 53.6147 81.377 53.5877 81.102C53.6007 81.229 53.6137 81.357 53.6237 81.486C53.6647 82.024 54.0547 82.486 54.6237 82.486C55.1337 82.486 55.6647 82.027 55.6237 81.486C55.4937 79.766 54.9117 78.027 53.6107 76.833C52.6127 75.918 51.2477 75.334 49.8777 75.473C48.5247 75.61 47.3097 76.375 46.7507 77.642C45.9867 79.368 46.4487 81.282 47.1707 82.939C48.6087 86.245 51.3047 89.009 53.9167 91.413C54.8617 92.284 56.2797 90.873 55.3307 89.999" fill="black"/>
<path fill-rule="evenodd" clip-rule="evenodd" d="M8.32012 103.658C13.2091 103.538 18.0971 103.418 22.9861 103.299C24.2711 103.267 24.2761 101.267 22.9861 101.299C18.0971 101.418 13.2091 101.538 8.32012 101.658C7.03512 101.689 7.03012 103.689 8.32012 103.658Z" fill="black"/>
<path fill-rule="evenodd" clip-rule="evenodd" d="M8.95376 101.671C8.89776 101.39 8.95276 101.817 8.94476 101.638C8.94276 101.577 8.93676 101.518 8.93576 101.457C8.93476 101.397 8.93576 101.337 8.93876 101.276C8.94076 101.243 8.96276 100.98 8.94476 101.17C8.92876 101.358 8.96176 101.102 8.96976 101.066C8.98276 101.006 8.99876 100.947 9.01576 100.89C9.03276 100.831 9.05176 100.774 9.07176 100.716C9.08576 100.678 9.09976 100.64 9.11476 100.602C9.05276 100.746 9.04376 100.77 9.08776 100.672C9.14476 100.563 9.19876 100.452 9.26376 100.347C9.30176 100.285 9.34376 100.227 9.38376 100.166C9.51876 99.959 9.26576 100.291 9.39676 100.147C9.48176 100.053 9.56276 99.959 9.65276 99.872C9.71376 99.814 9.77776 99.761 9.84076 99.705C9.98376 99.578 9.66376 99.821 9.83776 99.708C9.95276 99.634 10.0648 99.558 10.1858 99.493C10.2138 99.478 10.3788 99.419 10.3848 99.396C10.2528 99.449 10.2218 99.463 10.2918 99.436C10.3218 99.424 10.3508 99.412 10.3818 99.402C10.5218 99.353 10.6668 99.313 10.8138 99.285C10.8348 99.281 10.8558 99.277 10.8778 99.274C10.9868 99.256 10.9628 99.26 10.8048 99.283C10.8078 99.288 10.9898 99.27 11.0018 99.27C11.0798 99.267 11.1568 99.268 11.2348 99.272C11.3268 99.275 11.5248 99.344 11.2738 99.266C11.4078 99.308 11.5538 99.317 11.6878 99.358C11.7728 99.383 11.8948 99.404 11.9688 99.454C11.9348 99.44 11.9018 99.426 11.8698 99.412C11.9168 99.434 11.9638 99.455 12.0108 99.479C12.1828 99.565 12.3458 99.665 12.5038 99.773C12.9368 100.067 13.6318 99.869 13.8718 99.414C14.1398 98.907 13.9748 98.36 13.5138 98.046C12.0958 97.08 10.1908 96.99 8.77676 98.019C7.44876 98.984 6.70276 100.564 7.02476 102.202C7.12676 102.717 7.76776 103.059 8.25576 102.9C8.80276 102.724 9.06176 102.222 8.95376 101.671" fill="black"/>
<path fill-rule="evenodd" clip-rule="evenodd" d="M13.7293 99.5491C13.8753 98.8961 14.0423 98.3741 14.3313 97.8491C14.6353 97.2921 14.8163 97.0531 15.2883 96.6281C15.3313 96.5891 15.5513 96.4081 15.5033 96.4441C15.4543 96.4821 15.6873 96.3201 15.7343 96.2901C15.8463 96.2191 15.9613 96.1521 16.0793 96.0901C16.1503 96.0531 16.4093 95.9331 16.3563 95.9541C16.2773 95.9871 16.5573 95.8831 16.6033 95.8671C16.7263 95.8271 16.8513 95.7921 16.9773 95.7611C17.0893 95.7341 17.2023 95.7131 17.3153 95.6911C17.3573 95.6821 17.5113 95.6621 17.3043 95.6891C17.3903 95.6781 17.4753 95.6691 17.5613 95.6631C19.3713 95.5281 21.0733 96.3821 21.9323 97.9551C22.0043 98.0871 22.0733 98.2241 22.1313 98.3621C22.0593 98.1921 22.2053 98.5821 22.2243 98.6451C22.2663 98.7801 22.3033 98.9191 22.3343 99.0581C22.3443 99.1031 22.4143 99.4961 22.3903 99.3211C22.4893 100.053 22.4243 100.68 22.2803 101.314C21.9943 102.567 23.9213 103.102 24.2083 101.845C24.8443 99.0561 23.9353 96.1861 21.4433 94.6391C19.3263 93.3241 16.4223 93.2801 14.3933 94.7941C13.0103 95.8251 12.1713 97.3491 11.8003 99.0181C11.5223 100.272 13.4503 100.807 13.7293 99.5491" fill="black"/>
<path fill-rule="evenodd" clip-rule="evenodd" d="M22.986 141.438C24.8 141.37 26.762 141.58 28.02 143.013C29.007 144.137 29.403 145.75 29.775 147.209C30.704 150.855 31.779 154.47 35.6 155.995C38.833 157.285 42.583 156.842 45.917 156.278C47.183 156.064 46.646 154.136 45.385 154.35C40.984 155.093 35.072 155.576 32.917 150.74C31.574 147.725 31.705 143.97 29.31 141.465C27.675 139.753 25.255 139.352 22.986 139.438C21.703 139.487 21.697 141.487 22.986 141.438" fill="black"/>
<path fill-rule="evenodd" clip-rule="evenodd" d="M73.4451 137.478C74.9081 138.79 74.2951 141.27 74.0791 142.953C73.9091 144.279 73.8491 145.618 74.0771 146.941C74.4001 148.829 75.4941 150.368 77.3111 151.047C80.6391 152.294 84.5341 150.753 87.7731 151.301C89.6081 151.612 90.5721 152.585 90.7881 154.59C90.9251 155.857 92.9251 155.871 92.7881 154.59C92.5741 152.606 91.7861 150.736 89.8811 149.858C88.1861 149.079 86.2291 149.157 84.4131 149.282C82.6771 149.401 80.6211 149.674 79.0491 149.431C77.4021 149.176 76.4631 148.466 76.0851 146.816C75.3011 143.4 77.9161 138.803 74.8591 136.064C73.9031 135.207 72.4841 136.617 73.4451 137.478" fill="black"/>
</g>
<defs>
<clipPath id="clip0_1_5289">
<rect width="112" height="159" fill="white"/>
</clipPath>
</defs>
</svg>
