<svg width="164" height="127" viewBox="0 0 164 127" fill="none" xmlns="http://www.w3.org/2000/svg">
<g clip-path="url(#clip0_1_3814)">
<path fill-rule="evenodd" clip-rule="evenodd" d="M57.8642 58.7481C58.2972 67.3981 57.4172 75.8831 58.6162 83.9611C62.9132 82.9061 72.0482 50.2081 61.2312 54.9131C58.4122 55.3161 57.7412 56.0711 57.8642 58.7481V58.7481ZM55.3632 59.3421C55.2172 59.3921 54.9832 59.2611 55.2532 59.7851C55.3502 59.7751 55.6212 59.9041 55.3632 59.3421ZM55.0312 76.7781C55.0872 76.7781 55.0872 76.8341 55.1422 76.8341C55.1422 76.7781 55.0872 76.7781 55.0872 76.7781H55.0312ZM54.5892 69.5271C54.4762 69.5571 54.4022 69.8511 54.2012 70.4131C54.3822 71.1731 55.0992 70.6451 54.5892 69.5271ZM55.1972 71.4641C53.8522 70.3481 54.9852 72.2861 54.0912 75.1171C54.0712 75.3811 53.7632 75.6691 54.7552 75.5611C54.0332 76.3431 55.7502 77.5491 55.1422 75.3391C55.3642 75.1191 55.5132 75.1551 55.7512 74.0111C55.0582 74.3261 56.0652 70.6011 55.1972 71.4641V71.4641ZM61.5632 91.7801C59.6892 95.9011 52.5942 94.7501 52.7562 90.8511C52.2702 76.8671 51.2642 62.8141 52.4792 50.0971C71.2642 48.4711 73.5852 55.3591 70.1982 71.3541C69.0642 78.5021 66.2602 85.5061 61.5632 91.7801Z" fill="black"/>
<path fill-rule="evenodd" clip-rule="evenodd" d="M83.5921 61.5005C81.4151 66.8495 81.2631 74.4445 80.3261 80.7635C85.3641 80.7635 84.7001 78.1065 84.5341 73.8445C84.4231 69.9695 84.9761 65.1535 83.5921 61.5005ZM77.6691 74.6745C77.6691 74.6745 77.6691 74.6195 77.5581 74.6745H77.6691ZM77.7241 80.4315C77.7021 80.5395 78.0261 80.2025 78.1681 79.8225C78.2161 79.1815 77.2151 79.5875 77.7241 80.4315ZM75.4551 88.2925C75.6111 88.2775 75.8051 88.4815 75.6211 87.9605C75.5461 87.9415 75.2701 87.7725 75.4551 88.2925ZM84.8101 84.8605C84.0801 85.6235 79.0061 86.4395 79.3341 87.7255C79.9631 97.1475 72.1571 95.6535 73.0101 87.8755C74.9151 77.7005 78.2841 43.3295 87.2371 49.7215C88.0511 50.6525 88.4601 50.8245 88.1441 52.2515C86.7141 65.8535 88.4401 79.1365 91.0661 92.3325C84.4821 96.5735 86.0741 89.4415 84.8101 84.8605Z" fill="black"/>
<path fill-rule="evenodd" clip-rule="evenodd" d="M99.8734 58.7481C100.306 67.3981 99.4274 75.8831 100.625 83.9611C104.922 82.9061 114.057 50.2091 103.24 54.9131C100.421 55.3161 99.7504 56.0711 99.8734 58.7481V58.7481ZM97.3724 59.3421C97.2264 59.3921 96.9924 59.2611 97.2624 59.7851C97.3594 59.7751 97.6304 59.9041 97.3724 59.3421ZM97.0404 76.7781C97.0964 76.7781 97.0964 76.8341 97.1514 76.8341C97.1514 76.7781 97.0964 76.7781 97.0964 76.7781H97.0404ZM97.0404 66.9801C96.8284 66.3801 97.8284 65.6781 97.3174 64.1571C97.5344 64.4841 97.9384 64.4681 97.2074 63.4381C97.4314 63.3801 97.6694 63.2961 97.2624 62.7181C97.5114 62.1961 98.3494 60.9131 97.2074 60.1171L97.4284 60.5591C97.0534 60.8271 96.7304 62.4041 96.8744 63.8251C96.8744 63.8811 96.8194 63.8811 96.8194 63.8811C97.1724 64.8131 95.7434 66.6421 96.9854 67.3681V67.4231C97.0694 68.6861 96.7174 69.2331 97.1514 71.0211C97.5364 71.1931 97.8914 70.6451 97.4284 69.6381C97.5034 69.4481 98.0914 68.4821 97.5944 67.4791C97.9454 66.9911 98.0314 64.9551 97.0404 66.9801V66.9801ZM96.5984 69.5271C96.4854 69.5571 96.4114 69.8501 96.2104 70.4131C96.3914 71.1731 97.1084 70.6451 96.5984 69.5271ZM103.572 91.7801C101.698 95.9011 94.6034 94.7501 94.7654 90.8511C94.2804 76.8671 93.2734 62.8141 94.4884 50.0971C113.273 48.4711 115.594 55.3601 112.208 71.3541C111.073 78.5021 108.269 85.5061 103.572 91.7801Z" fill="black"/>
<path fill-rule="evenodd" clip-rule="evenodd" d="M49.739 109.425C51.381 109.178 52.435 107.204 53.037 104.478C54.179 96.683 44.961 109.736 49.739 109.425ZM47.888 112.635C49.063 121.442 50.531 122.097 57.133 116.287C60.635 116.254 57.589 122.188 55.294 124.38C41.162 129.444 36.855 109.311 46.992 98.707C58.203 93.665 61.612 108.12 52.864 112.809C51.125 112.968 49.802 113.129 47.888 112.635Z" fill="black"/>
<path fill-rule="evenodd" clip-rule="evenodd" d="M82.3126 100.081C80.1526 106.435 77.4506 120.497 74.5356 125.666C63.3676 127.375 63.8536 115.936 63.6976 106.026C64.0976 104.181 61.3066 98.5258 66.4016 99.4448C68.1196 100.213 68.4036 99.8298 68.4556 102.453C69.0386 104.372 69.7366 123.265 71.2616 116.744C71.3706 113.753 76.1936 92.1858 82.3126 100.081Z" fill="black"/>
<path fill-rule="evenodd" clip-rule="evenodd" d="M92.5262 106.69C90.5142 117.383 98.7692 103.157 96.3122 101.759C94.5172 100.782 93.2222 104.516 92.5262 106.69ZM97.1912 97.7598C105.485 99.2438 101.87 117.496 91.9742 113.85C92.2092 117.465 94.2762 124.453 99.4782 120.659C100.845 119.177 101.149 117.785 103.026 118.067C106.989 120.768 100.519 128.729 94.4032 125.653L94.5192 125.595C93.9312 125.912 92.8292 124.744 91.7992 124.728C83.2032 121.506 82.9002 94.0508 97.1912 97.7598V97.7598Z" fill="black"/>
<path fill-rule="evenodd" clip-rule="evenodd" d="M114.767 105.75C116.545 103.758 116.386 101.716 118.643 99.328C121.855 97.402 125.736 98.94 123.67 105.082C114.794 108.105 116.894 112.283 115.867 122.529C115.808 126.699 109.422 124.64 109.535 119.102C109.244 113.075 111.29 108.746 107.94 101.932C107.484 95.9601 115.38 98.706 114.767 105.75V105.75Z" fill="black"/>
<path fill-rule="evenodd" clip-rule="evenodd" d="M45.2915 21.3211C51.9625 21.8691 66.2435 7.14815 56.7225 5.22215C50.8835 2.58815 46.6105 17.5411 45.2915 21.3211ZM55.8535 21.5781C77.0145 27.2821 54.7775 56.7041 39.6385 47.3471C33.3105 40.8291 40.1705 40.7471 45.3475 43.7132C52.4245 44.6392 60.8845 35.0521 57.9785 29.2421C54.6715 24.5011 48.6395 25.6541 42.9415 27.3741C42.8805 27.6231 42.5295 28.2301 42.2295 28.8721C40.9625 30.5581 37.2935 46.3632 34.6095 42.6152C27.2605 38.7672 48.9075 5.51615 45.6785 2.19515C46.3115 1.07515 50.9575 0.490148 52.3105 0.0691479C70.3465 -1.16585 67.9085 14.3411 55.8535 21.5781V21.5781Z" fill="black"/>
<path fill-rule="evenodd" clip-rule="evenodd" d="M75.9791 27.8035C79.5861 29.3965 86.6051 22.6725 80.1301 22.5445C79.3381 22.5025 73.0041 27.0045 75.9791 27.8035ZM80.7961 32.0935C78.0071 33.6165 72.3511 28.9765 72.7251 34.8445C73.8841 41.9075 79.2411 35.2425 83.2211 35.0365C87.1321 37.0635 82.3701 41.2425 78.8501 42.8055C60.1051 48.0785 67.0691 18.3125 80.5811 17.8435C90.5611 17.7385 89.4801 29.0115 80.7961 32.0935Z" fill="black"/>
<path fill-rule="evenodd" clip-rule="evenodd" d="M103.183 25.5726C103.354 25.0586 106.672 22.1666 105.552 20.8056C102.737 20.6816 100.481 23.2026 98.8705 24.4756C97.3735 25.1276 94.2555 29.5256 96.6995 31.2876C108.105 38.4196 105.484 46.0336 92.9375 43.8896C88.3185 42.7496 86.0325 37.9386 93.1675 39.5666C94.1725 39.9196 100.998 39.7106 96.3595 37.8066C96.4995 37.3376 90.5535 33.8766 91.3355 32.7196C86.5325 27.4396 96.7055 17.9726 102.282 16.6196C117.007 12.4836 109.087 34.5416 103.183 25.5726Z" fill="black"/>
<path fill-rule="evenodd" clip-rule="evenodd" d="M119.477 15.7202C120.997 12.2752 126.145 2.54125 128.757 9.79325C128.827 11.3302 124.957 14.3412 125.594 16.2972C127.708 16.2162 134.563 14.6572 132.485 20.0332C130.017 21.3802 123.533 18.8242 121.731 22.8012C116.452 34.8652 113.53 43.0442 129.065 35.5812C135.362 43.4212 100.287 53.8972 116.836 21.0632C115.583 20.5542 114.788 20.8542 113.52 19.9042C112.085 15.8892 117.232 17.8282 119.477 15.7202V15.7202Z" fill="black"/>
<path fill-rule="evenodd" clip-rule="evenodd" d="M137.174 101.13C134.579 105.975 131.297 112.984 130.311 118.918C128.75 121.906 126.626 118.561 127.762 115.151C128.51 112.861 129.221 111.106 130.562 108.19C131.519 106.374 136.589 90.7078 137.174 101.13ZM127.334 126.001C125.458 126.889 122.539 124.828 125.623 122.656C127.406 120.979 131.128 124.257 127.334 126.001Z" fill="black"/>
<path fill-rule="evenodd" clip-rule="evenodd" d="M47.5285 82.4004C34.6435 82.4134 13.8325 86.8834 1.40649 87.6694C-6.71251 92.3064 38.4485 85.5404 39.3445 86.2994C45.0425 86.0064 51.9465 85.6324 47.5285 82.4004Z" fill="black"/>
<path fill-rule="evenodd" clip-rule="evenodd" d="M29.2691 61.244C36.2541 61.208 44.8291 65.601 48.9271 61.823C46.7711 57.333 1.43811 57.208 1.98811 55.918C-7.54389 58.411 25.8961 60.245 29.2691 61.244V61.244Z" fill="black"/>
<path fill-rule="evenodd" clip-rule="evenodd" d="M40.1503 71.3385C39.4933 72.2405 -2.93369 68.9134 5.36031 73.9374C7.94031 74.4964 7.21631 73.9895 11.1873 74.1285H40.0213L37.7703 72.7724L40.1503 71.3385Z" fill="black"/>
<path fill-rule="evenodd" clip-rule="evenodd" d="M116.499 63.1438C129.385 63.1308 150.195 58.6598 162.621 57.8758C170.74 53.2378 125.58 60.0048 124.683 59.2448C118.986 59.5378 112.082 59.9118 116.499 63.1438V63.1438Z" fill="black"/>
<path fill-rule="evenodd" clip-rule="evenodd" d="M136.213 84.4867C127.853 84.3057 118.818 79.9677 115.1 83.7217C117.257 88.2107 162.59 88.3367 162.04 89.6257C171.276 87.1517 139.997 85.4847 136.213 84.4867Z" fill="black"/>
<path fill-rule="evenodd" clip-rule="evenodd" d="M123.877 74.2062C124.534 73.3042 166.962 76.6302 158.668 71.6072C156.087 71.0482 156.812 71.5542 152.84 71.4152C143.601 71.4162 124.095 71.4162 124.007 71.4162L126.258 72.7722L123.877 74.2062Z" fill="black"/>
</g>
<defs>
<clipPath id="clip0_1_3814">
<rect width="164" height="127" fill="white"/>
</clipPath>
</defs>
</svg>
