<svg width="109" height="190" viewBox="0 0 109 190" fill="none" xmlns="http://www.w3.org/2000/svg">
<g clip-path="url(#clip0_1_4898)">
<path fill-rule="evenodd" clip-rule="evenodd" d="M12.5812 76.4069C12.4202 79.4329 12.7002 78.4279 16.3192 78.5419C20.2772 77.4909 18.1512 81.5479 18.9242 83.4689L12.8042 83.5439L13.0022 90.1099H8.04616C8.56816 65.9889 4.26416 72.3749 20.4862 71.2529C21.7852 79.3929 16.5902 75.3529 12.5812 76.4069" fill="#C32F45"/>
<path fill-rule="evenodd" clip-rule="evenodd" d="M28.9602 80.9919L27.7712 76.5309L25.9862 80.9669L28.9602 80.9919ZM30.2982 85.9469C23.1202 85.5109 23.8902 85.9589 22.4182 89.8629L17.4622 87.8309L25.5902 71.2529L30.5462 71.3029L36.3692 88.8959C29.6592 90.9999 31.6562 89.6129 30.2982 85.9469V85.9469Z" fill="#C32F45"/>
<path fill-rule="evenodd" clip-rule="evenodd" d="M43.2578 75.9613L43.3078 90.0353L38.4008 90.2593L38.3518 76.0844C30.9558 76.9204 33.6268 75.2333 32.8508 71.2523L48.4118 70.8813L48.8088 75.8373L43.2578 75.9613Z" fill="#C32F45"/>
<path fill-rule="evenodd" clip-rule="evenodd" d="M60.0084 83.2713L54.4574 82.6763V90.0613H49.5024V71.2783H54.4574C53.9404 80.0793 54.7684 77.3553 59.9834 78.3153C59.6754 69.3903 59.4544 71.6063 64.8904 71.2523L65.0134 90.2593C57.0344 91.3383 60.8994 87.2403 60.0084 83.2713" fill="#C32F45"/>
<path fill-rule="evenodd" clip-rule="evenodd" d="M79.1885 84.8325V89.7885L66.1045 90.0855L65.4595 71.2525L78.5435 70.8315L78.8895 75.7875L70.5145 75.8865C70.1475 79.1445 71.7185 77.4245 75.5475 77.7395C79.2595 76.6795 77.1335 80.7645 77.8255 82.6515L70.9115 82.8005C69.5925 87.2825 77.6195 84.1455 79.1885 84.8325Z" fill="#C32F45"/>
<path fill-rule="evenodd" clip-rule="evenodd" d="M84.6896 80.3718C88.3976 82.0978 91.6976 74.3178 84.6396 76.0098C84.7246 76.0608 84.6256 79.9878 84.6896 80.3718ZM91.8006 85.5258C92.3626 85.9058 93.0066 86.0968 93.7336 86.0968V91.0528C90.0106 91.4758 87.1946 87.8818 84.7386 85.1538L84.7886 89.8878C84.3146 89.6628 78.7286 90.2188 79.8306 89.7108C79.8126 88.0698 79.6766 75.9748 79.6416 72.8478C81.8176 68.1688 100.723 72.2488 91.4636 83.2468C90.3216 83.9248 90.3506 84.3578 91.8006 85.5258" fill="#C32F45"/>
<path fill-rule="evenodd" clip-rule="evenodd" d="M98.59 73.1108C97.707 75.1548 97.266 79.4708 94.873 79.1578C95.916 77.6918 95.094 72.3478 98.59 73.1108Z" fill="#C32F45"/>
<path fill-rule="evenodd" clip-rule="evenodd" d="M102.679 89.4038C97.1077 87.1888 101.106 85.5938 102.729 83.3948C103.025 86.0258 113.28 85.1618 106.867 83.1218C96.9638 82.8678 98.1627 68.9568 109.78 71.4398C111.272 71.8188 113.553 72.9197 114.205 74.1577C113.707 74.8317 111.725 77.5158 111.5 77.8198C109.978 76.8128 106.461 74.8177 104.835 77.1997C118.587 77.9807 117.077 92.9828 102.679 89.4038" fill="#C32F45"/>
<path fill-rule="evenodd" clip-rule="evenodd" d="M31.8561 117.595C32.4891 111.316 22.1791 106.705 19.1731 109.231C19.1741 111.531 19.1741 123.227 19.1741 126.266C22.4831 129.179 33.2051 123.875 31.8561 117.595ZM30.4441 99.9042C43.7851 105.77 48.5671 125.074 36.4911 133.474C30.8811 138.535 8.12813 139.616 8.58013 136.658C8.64413 130.909 8.96513 101.852 8.99413 99.1842C12.0321 96.4132 24.1321 96.1312 30.4441 99.9042Z" fill="#96DAFF"/>
<path fill-rule="evenodd" clip-rule="evenodd" d="M65.9054 118.235L63.3474 108.643L59.5114 118.181L65.9054 118.235ZM68.7834 128.892C51.9354 128.945 56.3964 126.747 51.8384 137.311L41.1804 132.942L58.6584 97.2939L69.3154 97.3999L81.8384 135.233C67.4914 138.697 72.2784 139.284 68.7834 128.892V128.892Z" fill="#96DAFF"/>
<path fill-rule="evenodd" clip-rule="evenodd" d="M97.7178 120.686L97.7718 137.844H87.1138L87.0608 119.78L73.2058 101.716L84.3968 97.0801L92.8688 109.442C103.596 93.7681 98.1378 96.8361 111.785 99.6911L97.7178 120.686Z" fill="#96DAFF"/>
<path fill-rule="evenodd" clip-rule="evenodd" d="M21.3825 56.8853L14.3675 56.1343V65.4663H8.10449V41.7293H14.3675C13.9925 52.9603 14.0685 49.2883 21.3515 50.6223C21.1655 39.4483 20.2005 42.1263 27.5515 41.6973L27.7085 65.7163L21.4455 65.6853L21.3825 56.8853Z" fill="white"/>
<path fill-rule="evenodd" clip-rule="evenodd" d="M42.803 54.0043L41.3 48.3673L39.045 53.9733L42.803 54.0043ZM44.494 60.2683C35.092 59.9133 36.687 59.8603 34.535 65.2153L28.272 62.6483L38.544 41.6973L44.807 41.7603L52.166 63.9943C43.754 66.4483 46.289 65.3603 44.494 60.2683Z" fill="white"/>
<path fill-rule="evenodd" clip-rule="evenodd" d="M6.29712 20.1657H12.8541V17.7637H6.29712V20.1657Z" fill="#0E4969"/>
<path fill-rule="evenodd" clip-rule="evenodd" d="M104.91 20.1657H111.466V17.7637H104.91V20.1657Z" fill="#0E4969"/>
<path fill-rule="evenodd" clip-rule="evenodd" d="M99.9406 1.02002C102.07 3.55802 102.605 6.31702 102.058 8.69202C102.062 8.66602 100.976 16.06 90.3296 15.583C90.3296 15.583 91.5696 15.299 93.0916 14.656C91.3526 14.527 86.3946 13.988 81.0556 11.866C81.0556 11.866 83.8426 12.547 86.4736 12.165C58.7716 -2.86198 50.1596 24.999 65.2306 32.457C87.4716 41.958 114.475 17.809 99.9406 1.02002" fill="#0E4969"/>
<path fill-rule="evenodd" clip-rule="evenodd" d="M17.5984 1.02002C15.8844 2.99602 14.8814 6.29002 15.4804 8.69202C15.4804 8.69202 16.5754 16.143 27.2094 15.583C27.2094 15.583 25.9694 15.299 24.4464 14.656C26.1854 14.527 31.1434 13.988 36.4834 11.866C36.4834 11.866 33.6964 12.547 31.0654 12.165C58.7674 -2.86298 67.3804 24.999 52.3084 32.457C30.0674 41.958 3.06343 17.81 17.5984 1.02002" fill="#0E4969"/>
<path fill-rule="evenodd" clip-rule="evenodd" d="M60.7774 53.7541C71.1694 52.3861 57.1844 39.1961 59.3024 53.3531C59.2704 53.7041 59.5674 53.5621 60.7774 53.7541ZM65.6934 42.7311C75.5094 47.4421 70.5404 60.9301 59.4304 59.2021L59.5874 65.4971C49.9634 65.8451 54.2164 65.8121 53.0324 55.3921C52.8824 50.1641 52.7334 44.9451 52.7014 43.8761C54.8524 42.0741 61.3654 40.4941 65.6934 42.7311Z" fill="white"/>
<path fill-rule="evenodd" clip-rule="evenodd" d="M79.629 53.7541C90.021 52.3861 76.034 39.1961 78.155 53.3531C78.123 53.7041 78.419 53.5621 79.629 53.7541ZM84.545 42.7311C94.361 47.4421 89.392 60.9301 78.282 59.2021L78.439 65.4971C68.815 65.8451 73.068 65.8111 71.885 55.3921C71.735 50.1641 71.585 44.9451 71.554 43.8761C73.704 42.0741 80.217 40.4941 84.545 42.7311" fill="white"/>
<path fill-rule="evenodd" clip-rule="evenodd" d="M103.273 55.4448L103.304 65.5288H97.0407L97.0087 54.9128L88.8677 44.2968L95.4437 41.5728L100.422 48.8378C106.304 39.4668 104.641 41.6738 111.54 43.1068L103.273 55.4448Z" fill="white"/>
<path fill-rule="evenodd" clip-rule="evenodd" d="M81.1154 146.129L83.5804 162.171L59.0774 190.61L34.5754 162.171L37.0404 146.129H81.1154Z" fill="#D82E42"/>
<path fill-rule="evenodd" clip-rule="evenodd" d="M6.29712 152.746H32.8451V150.342H6.29712V152.746Z" fill="#0E4969"/>
<path fill-rule="evenodd" clip-rule="evenodd" d="M85.7402 152.746H111.466V150.342H85.7402V152.746Z" fill="#0E4969"/>
</g>
<defs>
<clipPath id="clip0_1_4898">
<rect width="109" height="190" fill="white"/>
</clipPath>
</defs>
</svg>
