<svg width="201" height="212" viewBox="0 0 201 212" fill="none" xmlns="http://www.w3.org/2000/svg">
<path fill-rule="evenodd" clip-rule="evenodd" d="M153.561 176.802C152.498 176.802 152.465 178.352 153.438 178.5C157.32 181.805 158.384 187.455 154.836 191.54C151.643 195.216 146.308 196.028 141.711 195.913C133.501 195.708 128.503 191.483 122.287 186.728C116.212 182.081 105.983 177.723 100.476 185.125L100.343 184.927C93.4 176.466 82.757 185.261 76.277 189.629C70.064 193.817 63.841 196.357 56.293 194.19C48.364 191.914 42.749 185.58 45.866 177.202C45.954 176.966 45.785 176.755 45.574 176.682C45.575 176.259 45.277 175.858 44.762 176.049C38.44 178.4 38.667 186.043 40.931 191.316C43.965 198.379 50.158 203.826 57.095 206.912C69.915 212.614 90.981 213.176 100.649 201.235C112.347 212.544 131.58 215.102 146.079 207.917C153.077 204.45 159.014 198.389 160.977 190.678C162.497 184.713 161.076 176.802 153.561 176.802" fill="black"/>
<path fill-rule="evenodd" clip-rule="evenodd" d="M57.7958 68.56C56.7908 68.767 55.4088 68.497 54.3618 68.52C53.0518 68.549 51.7398 68.567 50.4298 68.625C48.7378 68.698 46.7758 68.473 45.4208 69.641C43.6588 71.161 45.8018 74.161 47.7658 73.214C47.8968 73.208 48.0488 73.199 48.2458 73.186C48.8288 73.159 49.4108 73.132 49.9938 73.105C50.4178 73.083 50.8408 73.048 51.2648 73.02C51.4008 79.177 51.8698 85.328 51.9758 91.49C52.0868 97.927 51.5818 104.415 52.0538 110.838C52.1898 112.686 54.6278 112.599 54.8638 110.838C55.7198 104.461 55.3628 97.908 55.2888 91.49C55.2178 85.284 55.2118 78.989 54.6258 72.804C56.1958 72.724 57.8438 72.638 59.2188 71.936C61.1698 70.941 59.7558 68.156 57.7958 68.56" fill="black"/>
<path fill-rule="evenodd" clip-rule="evenodd" d="M78.3249 91.3241C78.0499 84.2841 77.6429 77.2371 76.8529 70.2341C76.5819 67.8291 72.7769 67.7971 73.0459 70.2341C73.8199 77.2491 74.4799 84.2631 74.6279 91.3241C74.6479 92.2941 74.6419 93.2761 74.6249 94.2651C74.5029 94.2411 74.3799 94.2171 74.2529 94.2221C72.3919 94.2971 70.5329 94.3721 68.6729 94.4681C68.6369 93.3331 68.6059 92.2171 68.5959 91.1361C68.5329 84.0131 68.2099 76.9041 67.6809 69.8021C67.5119 67.5311 63.9689 67.4981 64.1129 69.8021C64.5549 76.9041 64.8139 84.0191 64.8369 91.1361C64.8589 97.6101 63.6669 104.839 64.9799 111.188C65.2569 112.525 67.1489 112.352 67.5169 111.188C68.8129 107.096 68.8849 102.386 68.7719 97.8111C70.5999 98.0581 72.3949 98.1401 74.2529 98.0001C74.3409 97.9941 74.4319 97.9711 74.5229 97.9561C74.3749 102.417 74.2339 106.939 75.0779 111.181C75.3339 112.465 77.2029 112.324 77.5379 111.181C79.3599 104.973 78.5739 97.7141 78.3249 91.3241" fill="black"/>
<path fill-rule="evenodd" clip-rule="evenodd" d="M91.0189 108.353C89.1239 108.528 87.2259 108.576 85.3259 108.573C85.8549 105.003 86.1489 101.336 86.2609 97.6312C88.4499 98.1612 91.1329 98.6202 92.7679 97.2262C93.3479 96.7312 93.2689 95.7452 92.7679 95.2382C91.8129 94.2732 90.2859 94.2532 88.9869 94.2092C88.0839 94.1782 87.1989 94.2822 86.3149 94.4172C86.3349 86.7452 85.6249 78.9812 84.5779 71.6282C85.6729 71.5282 86.7599 71.3042 87.8689 71.2772C89.3179 71.2422 90.8859 71.7602 92.1259 70.8722C92.7499 70.4262 92.8659 69.6792 92.3559 69.0882C91.2269 67.7762 89.1329 68.0602 87.5339 68.0132C85.8039 67.9622 84.2229 67.9132 82.6219 68.4842C81.6809 68.5112 80.7149 69.1412 80.7829 70.2372C81.1969 76.9302 81.8639 83.5962 82.0499 90.3042C82.2359 97.0142 82.0159 103.726 82.5879 110.419C82.6229 110.836 82.8759 111.159 83.1979 111.368C83.4659 111.659 83.8419 111.872 84.3329 111.92C86.5669 112.138 88.7829 112.098 91.0189 111.917C91.8239 111.852 92.4999 111.406 92.7369 110.609C92.8939 110.08 92.8089 109.708 92.5579 109.236C92.2859 108.726 91.6089 108.299 91.0189 108.353Z" fill="black"/>
<path fill-rule="evenodd" clip-rule="evenodd" d="M108.535 108.243C107.529 109.077 105.733 108.972 104.278 108.881C104.686 105.929 104.711 102.884 104.632 99.8429C104.744 99.8789 104.858 99.9089 104.974 99.9209C108.035 100.246 111.998 105.371 108.535 108.243ZM109.652 75.2609C110.818 77.7879 110.831 80.8739 110.594 83.6129C110.16 88.6069 108.165 93.0879 104.517 96.4569C104.452 94.7409 104.388 93.0389 104.378 91.3679C104.337 84.5539 104.206 77.7319 103.817 70.9289C106.297 71.6289 108.307 72.3459 109.652 75.2609V75.2609ZM108.132 97.6359C112.73 92.8469 114.563 85.8499 114.055 79.2659C113.624 73.6689 108.77 64.8789 101.897 68.8049L101.766 68.9099C101.09 69.0309 100.513 69.5389 100.544 70.4449C100.782 77.4189 101.049 84.3879 101.087 91.3679C101.123 97.8519 100.096 104.592 101.028 111.019C101.141 111.795 101.855 112.133 102.548 112.079C102.755 112.192 102.996 112.27 103.27 112.299C107.522 112.744 112.435 111.609 112.911 106.625C113.263 102.937 111.263 99.3519 108.132 97.6359V97.6359Z" fill="black"/>
<path fill-rule="evenodd" clip-rule="evenodd" d="M126.654 68.2499C123.904 67.7989 120.61 67.7299 118.076 69.0379C117.766 69.1979 117.574 69.4149 117.47 69.6539C117.336 69.8679 117.24 70.1279 117.216 70.4439C116.669 77.4219 117.122 84.5949 117.166 91.5939C117.207 98.1079 116.639 104.988 117.685 111.428C117.806 112.178 118.583 112.514 119.279 112.427C120.967 113.632 123.423 113.5 125.286 112.766C126.064 112.46 126.554 111.898 126.598 111.044C126.628 110.45 126.359 109.988 125.894 109.641C125.135 109.073 124.403 109.326 123.568 109.526C122.594 109.759 121.603 109.703 120.613 109.724C121.015 105.888 120.933 101.936 120.811 98.0189C122.15 98.3049 123.63 98.1869 124.878 97.8779C125.839 97.6399 126.416 96.5599 126.158 95.6229C125.873 94.5859 124.883 94.1789 123.903 94.3419C122.88 94.5119 121.769 94.6319 120.714 94.8619C120.683 93.7659 120.655 92.6739 120.646 91.5939C120.591 85.0229 120.882 78.2979 120.383 71.7339C122.316 71.7629 124.33 71.5249 126.217 71.4809C127.988 71.4389 128.554 68.5629 126.654 68.2499" fill="black"/>
<path fill-rule="evenodd" clip-rule="evenodd" d="M141.45 105.292C141.27 100.312 138.238 95.38 136.549 90.78C135.626 88.265 134.787 85.708 134.269 83.076C133.929 81.347 133.729 79.584 133.758 77.82C133.78 77.341 133.802 76.863 133.823 76.384C133.571 74.162 134.704 72.921 137.22 72.66C137.385 74.417 139.727 74.386 139.931 72.66C140.226 70.159 137.834 68.271 135.385 68.654C132.092 69.168 131.02 72.861 130.689 75.664C130.072 80.886 131.397 86.07 133.141 90.954C134.137 93.744 135.32 96.461 136.342 99.241C136.772 100.408 137.232 101.579 137.539 102.785C137.889 103.834 138.057 104.921 138.043 106.044C136.914 110.051 135.159 110.905 132.778 108.605C132.005 107.646 130.19 108.684 130.662 109.837C131.644 112.236 133.794 113.702 136.487 113.094C139.984 112.304 141.569 108.555 141.45 105.292" fill="black"/>
<path fill-rule="evenodd" clip-rule="evenodd" d="M155.114 69.5871C153.698 69.0831 152.145 69.2791 150.659 69.2331C150.286 69.2211 149.915 69.1941 149.543 69.1731C149.406 69.1511 149.268 69.1461 149.13 69.1511C148.046 69.0861 146.962 69.0121 145.876 68.9811C143.33 68.9071 143.446 72.6041 145.876 72.8651C146.373 72.9171 146.911 72.9701 147.462 73.0201C147.504 79.3821 147.61 85.7441 147.767 92.1041C147.928 98.6061 147.505 105.705 148.924 112.071C149.21 113.351 151.445 113.47 151.634 112.071C152.513 105.58 151.628 98.6431 151.442 92.1041C151.264 85.7921 151.152 79.4811 151.048 73.1681C152.648 73.1351 154.212 72.9321 155.478 72.3741C156.789 71.7961 156.213 69.9791 155.114 69.5871Z" fill="black"/>
<path fill-rule="evenodd" clip-rule="evenodd" d="M175.402 135.407C175.467 128.889 174.763 122.254 174.062 115.958L174.044 115.802L174.034 115.706C174.01 115.495 173.92 115.332 173.796 115.213C173.733 115.089 173.674 114.962 173.612 114.838C173.746 114.68 173.788 114.435 173.621 114.24C171.449 111.704 168.69 109.64 165.924 107.692C171.127 107.857 176.33 107.857 181.532 107.632C187.271 107.384 192.975 106.649 198.713 107.26L198.753 107.395C198.417 107.548 196.628 109.524 196.405 109.772C195.48 110.798 194.535 111.807 193.571 112.797C191.741 114.677 189.818 116.466 188.005 118.363C187.901 118.472 187.859 118.604 187.853 118.737C187.524 118.947 187.325 119.357 187.582 119.79C189.36 122.794 191.307 125.677 193.314 128.531C194.886 130.767 196.355 133.38 198.35 135.295C190.877 134.275 182.86 134.676 175.402 135.407ZM173.694 143.958C125.651 145.889 77.5659 143.037 29.5199 144.096C30.1459 139.794 30.1299 135.343 30.3839 131.018C30.6849 125.883 31.1599 120.715 31.1899 115.568C54.6599 117.022 78.3249 117.115 101.835 117.388C125.383 117.661 148.938 117.517 172.471 116.607L172.555 116.586C173.422 125.715 173.068 134.852 173.72 143.963L173.694 143.958ZM28.8109 130.18C28.7579 131.078 28.6909 131.983 28.6199 132.89C23.8569 132.57 19.0909 132.288 14.3259 131.991C10.8859 131.776 6.96791 131.071 3.57291 131.98L3.57391 131.979C3.79991 131.755 4.05191 131.584 4.23291 131.316L4.29491 131.149C5.99391 129.731 7.34591 127.52 8.79091 125.972C10.8769 123.736 13.1259 121.704 15.3569 119.619C15.9719 119.044 15.3179 118.261 14.6509 118.38C11.2989 113.641 7.37691 109.282 3.23291 105.215C14.6969 104.881 26.0179 104.883 37.3919 106.532C34.9689 109.158 32.3869 111.618 29.9739 114.252C29.8199 114.421 29.8159 114.649 29.8959 114.838C29.8599 114.912 29.8309 114.993 29.8199 115.087C29.2329 120.084 29.1079 125.156 28.8109 130.18V130.18ZM38.3829 114.499C36.0489 114.485 33.7139 114.474 31.3799 114.484C33.9869 112.408 36.3019 109.981 38.5449 107.513C38.3169 109.829 38.2039 112.196 38.3829 114.499ZM163.116 107.808C166.301 110.063 169.318 112.653 172.652 114.669L172.657 114.772L172.706 114.984L172.471 114.956C169.346 115.087 166.221 115.201 163.095 115.304C163.187 112.813 163.206 110.302 163.116 107.808V107.808ZM199.631 135.491C198.593 132.651 196.404 130.194 194.686 127.729C192.716 124.906 190.801 122.052 189.042 119.091C191.504 117.19 193.728 115.001 195.868 112.75C197.01 111.548 198.125 110.32 199.209 109.066C199.754 108.435 200.329 107.972 200.409 107.134C200.457 106.624 199.955 106.309 199.508 106.328C199.438 105.971 199.188 105.635 198.737 105.58C193.015 104.872 187.262 105.722 181.532 105.97C175.383 106.237 169.233 106.181 163.086 105.891C162.891 105.881 162.737 105.937 162.612 106.021C162.484 106.035 162.37 106.114 162.339 106.281L162.318 106.424C162.288 106.52 162.271 106.62 162.272 106.723C161.787 109.558 161.614 112.471 161.708 115.346C141.758 115.98 121.795 116.088 101.835 115.876C81.1709 115.656 60.4809 114.664 39.8129 114.502C39.9189 111.523 39.7449 108.491 39.6559 105.519C39.6419 105.066 39.1639 104.984 38.9119 105.221C26.7179 102.594 14.0739 103.103 1.68791 103.528C1.39491 103.538 1.18391 103.669 1.04491 103.85C0.622913 104.082 0.380913 104.662 0.824913 105.107C5.30491 109.59 9.49091 114.307 13.7469 118.996C11.4719 120.889 9.36391 123.024 7.39891 125.226C6.06191 126.725 4.11591 128.551 3.21691 130.524C2.43491 130.759 1.82691 131.856 2.39491 132.557C2.47191 132.653 2.59091 132.674 2.70891 132.674C6.41291 133.494 10.5369 133.225 14.3259 133.471C19.0509 133.777 23.7759 134.097 28.5039 134.382C28.2119 138.016 27.9169 141.682 28.1359 145.273C28.1749 145.904 29.1839 146.134 29.3109 145.432L29.3179 145.385C53.1519 146.27 77.0789 145.933 100.928 146.12C125.183 146.31 149.45 146.656 173.694 145.696C173.92 145.687 174.089 145.597 174.224 145.477C174.399 145.494 174.57 145.413 174.608 145.185C175.082 142.35 175.314 139.443 175.384 136.508C183.258 136.605 191.336 137.145 199.186 136.781C199.817 136.752 200.092 135.862 199.639 135.536L199.631 135.491Z" fill="black"/>
<path fill-rule="evenodd" clip-rule="evenodd" d="M100.513 135.412C99.401 135.472 98.2879 135.485 97.1769 135.534C98.3049 131.544 99.38 127.538 100.587 123.568C102.297 127.198 102.919 131.335 103.727 135.356C102.696 135.154 101.551 135.357 100.513 135.412V135.412ZM104.273 130.509C103.457 127.349 102.771 124.126 101.023 121.335C100.694 120.809 99.911 120.918 99.726 121.504C97.744 127.79 95.7309 134.195 94.5769 140.693C94.4609 141.346 95.383 141.624 95.584 140.971C96.038 139.498 96.4709 138.018 96.8949 136.536C98.0839 136.765 99.31 136.881 100.513 136.947C101.682 137.012 102.91 137.12 104.008 136.709C104.339 138.231 104.717 139.727 105.215 141.16C105.431 141.781 106.476 141.732 106.429 140.996C106.203 137.453 105.159 133.938 104.273 130.509V130.509Z" fill="black"/>
<path fill-rule="evenodd" clip-rule="evenodd" d="M83.141 139.592C83.62 133.892 83.94 128.022 83.792 122.31C88.04 122.318 90.213 127.875 90.226 131.426C90.243 136.123 87.389 138.843 83.141 139.592ZM83.109 121.21C82.853 121.283 82.731 121.516 82.721 121.75C82.644 121.842 82.583 121.954 82.569 122.103C81.993 127.96 81.904 134.024 81.991 139.914C81.595 140.292 81.741 141.033 82.453 141.117C95.981 142.716 93.289 118.292 83.109 121.21V121.21Z" fill="black"/>
<path fill-rule="evenodd" clip-rule="evenodd" d="M113.155 140.15C113.151 137.291 113.022 134.43 112.89 131.575C112.764 128.83 112.161 125.583 112.544 122.826C117.426 123.159 120.476 126.538 120.603 131.573C120.727 136.498 118.133 139.775 113.155 140.15V140.15ZM112.111 121.698C111.963 121.664 111.806 121.683 111.666 121.761C111.381 121.822 111.273 122.07 111.305 122.307C110.501 124.621 111.248 127.761 111.364 130.152C111.536 133.71 111.703 137.278 112.074 140.821C112.094 141.004 112.183 141.136 112.301 141.224C112.365 141.423 112.515 141.588 112.796 141.631C125.813 143.634 125.272 119.663 112.111 121.698V121.698Z" fill="black"/>
<path fill-rule="evenodd" clip-rule="evenodd" d="M128.947 45.239L128.958 45.446L128.889 45.43C110.812 44.728 92.0859 44.022 74.0279 45.201C73.0749 38.453 71.5409 31.854 70.7399 25.075C75.2029 27.82 79.2009 31.085 82.8159 34.924C83.2409 35.375 83.9769 35.231 84.2859 34.735C90.8229 24.237 97.3699 13.747 103.885 3.23602C108.056 12.88 112.164 22.554 116.3 32.214C116.532 32.754 117.417 32.826 117.78 32.405C121.672 27.892 125.782 23.61 130.087 19.498C131.35 28.092 130.197 36.681 128.947 45.239V45.239ZM131.591 17.384C131.468 16.662 130.52 16.554 130.056 16.979C125.577 21.084 121.374 25.433 117.385 30.009C113.186 20.29 108.959 10.582 104.806 0.844024C104.524 0.185024 103.57 0.331024 103.248 0.844024C96.5829 11.467 89.9549 22.115 83.3159 32.754C79.3599 28.698 74.9749 25.283 70.0569 22.427C69.4689 22.086 68.5419 22.51 68.6089 23.258C69.2899 30.861 70.2589 38.852 73.2239 45.937C73.3539 46.246 73.6419 46.308 73.8549 46.202L73.8919 46.212C91.9679 47.757 110.754 47.418 128.889 47.07C129.387 47.061 129.641 46.704 129.669 46.327C130.112 46.462 130.605 46.306 130.692 45.72C132.088 36.259 133.222 26.893 131.591 17.384V17.384Z" fill="black"/>
</svg>
