<svg width="160" height="128" viewBox="0 0 160 128" fill="none" xmlns="http://www.w3.org/2000/svg">
<path fill-rule="evenodd" clip-rule="evenodd" d="M2.01466 68.7955C4.44507 83.4027 2.92432 87.5066 2.92432 87.5066C-7.09089 87.9815 12.0049 91.4423 9.88005 89.3142C15.357 89.8109 33.1986 81.5426 15.0464 75.5727C24.1929 74.1837 20.7969 64.371 9.5765 66.237C8.04775 64.7173 6.28536 64 4.81453 64C2.54588 64 0.970206 65.7047 2.01466 68.7955V68.7955ZM10.1037 67.9684C13.1103 66.4903 18.1598 68.7728 18.1658 70.3389C18.3156 71.542 18.1249 73.8799 11.3269 74.895C10.7977 72.9182 10.1407 68.1297 10.1037 67.9684ZM11.3619 76.9272C11.3619 76.9272 17.2901 76.664 19.8723 80.3544C20.5563 83.1405 20.2907 86.0008 10.1836 87.47C0.0765257 88.9392 11.7034 82.162 11.3619 76.9272" fill="black"/>
<path fill-rule="evenodd" clip-rule="evenodd" d="M28.8443 73.782C11.0415 87.4105 39.1348 99.4911 44 83.0861C43.92 82.9942 43.844 82.9003 43.771 82.8054C40.4848 85.5999 30.5694 93.5726 30.5154 83.2079C38.2477 83.153 44.237 73 34.4716 73C32.9795 73 31.1214 73.2367 28.8443 73.782V73.782ZM30.9364 80.811C31.8964 77.5242 35.4386 74.533 36.7167 75.7954C39.2498 77.2705 32.9215 80.822 31.0944 80.822C31.0374 80.822 30.9844 80.818 30.9364 80.811Z" fill="black"/>
<path fill-rule="evenodd" clip-rule="evenodd" d="M44.9278 75.2996C42.4849 78.4199 42.6494 80.4531 43.846 81.999C43.9907 81.8747 44.1284 81.7583 44.2462 81.6577C44.1927 81.8698 44.1333 82.073 44.0729 82.2762C45.8332 84.2651 49.2756 85.4469 50.6614 87.2394C31.0245 91.9254 57.3114 99.5758 57.0281 87.6133C59.3887 86.5844 61.0134 85.5298 61.9713 84.6577C61.9812 84.0924 61.9911 83.4285 62 82.7064C60.9143 82.8869 58.9875 83.7925 56.3169 85.8099C43.2834 81.783 51.865 71.7738 54.2871 79.0375C58.731 77.1325 55.0102 73.001 50.3752 73C48.5534 73 46.592 73.6383 44.9278 75.2996V75.2996ZM51.0359 88.9629C51.8244 90.3923 50.9992 91.5554 50.0185 91.8948C49.2023 91.9412 48.5128 91.9619 47.9373 91.9619C41.8876 91.9619 48.4345 89.6051 51.0359 88.9629" fill="black"/>
<path fill-rule="evenodd" clip-rule="evenodd" d="M44.298 82.5325C44.371 82.6275 44.447 82.7215 44.527 82.8135C44.588 82.6075 44.648 82.4015 44.702 82.1865C44.583 82.2885 44.444 82.4065 44.298 82.5325" fill="black"/>
<path fill-rule="evenodd" clip-rule="evenodd" d="M44.298 82.5325C44.371 82.6275 44.447 82.7215 44.527 82.8135C44.588 82.6075 44.648 82.4015 44.702 82.1865C44.583 82.2885 44.444 82.4065 44.298 82.5325" fill="black"/>
<path fill-rule="evenodd" clip-rule="evenodd" d="M62.634 66.3536C53.31 66.9435 60.6154 69.5269 62.5579 68.6647C62.5315 69.2263 62.5011 77.9285 62.4351 83.2692C63.8042 83.0416 63.8611 83.9452 62.4057 85.2708C62.3935 85.9568 62.3793 86.5103 62.3651 86.8786C63.3536 96.2578 79.2533 87.3249 77.9207 82.7491C62.5589 95.0223 69.5233 79.2723 68.275 67.9706C75.2505 67.4303 75.2546 64.4381 68.891 65.5856C68.1156 61.6575 66.8054 60 65.5824 60C64.0823 60 62.7152 62.4963 62.634 66.3536" fill="black"/>
<path fill-rule="evenodd" clip-rule="evenodd" d="M62.0274 83.0348C62.0189 83.762 62.0094 84.4307 62 85C63.2141 83.8336 63.2981 83 62.3855 83C62.2797 83 62.1606 83.0109 62.0274 83.0348Z" fill="black"/>
<path fill-rule="evenodd" clip-rule="evenodd" d="M62.0274 83.0348C62.0189 83.762 62.0094 84.4307 62 85C63.2141 83.8336 63.2981 83 62.3855 83C62.2797 83 62.1606 83.0109 62.0274 83.0348Z" fill="black"/>
<path fill-rule="evenodd" clip-rule="evenodd" d="M84.4986 65.4776C82.265 65.3761 81.7912 65.9266 82.0735 66.4751C82.3944 67.1019 83.6997 67.7286 84.4986 67.3891C84.5037 67.6443 84.4038 85.8244 84.1858 88.3728C101.659 92.9553 123.905 71.1067 91.3612 65.6303C91.0494 64.6218 88.9983 64 87.2182 64C85.7111 64 84.3987 64.445 84.4986 65.4776V65.4776ZM91.5548 67.6182C97.0755 67.6332 103.812 72.2107 104.506 74.9198C107.066 83.0631 98.1709 84.4061 92.7175 85.4699C92.9162 85.0309 92.6156 71.5326 91.5548 67.6182Z" fill="black"/>
<path fill-rule="evenodd" clip-rule="evenodd" d="M116.764 72.6022C107.883 78.8325 115.993 97.369 127.838 84.5049C128.822 82.8633 129.651 84.6461 130.746 86.4279C132.125 88.6729 133.928 90.9178 137 86.322C136.775 85.642 136.661 84.8852 136.645 84.0942C129.374 87.1322 134.232 86.9708 130.537 76.0902C118.416 97.8957 114.927 74.0218 130.031 73.5627C130.246 72.235 125.86 71 122.013 71C119.69 71 117.563 71.45 116.764 72.6022" fill="black"/>
<path fill-rule="evenodd" clip-rule="evenodd" d="M146.044 64.266C145.933 67.137 146.022 75.8125 145.969 75.0066C140.498 73.1592 136.905 79.1893 137.002 83.9434C137.602 83.694 138.275 83.4247 139.055 83.1365C138.445 84.3688 137.881 85.3496 137.352 86.1376C138.289 88.9569 141.121 90.4595 146.457 87.6362C149.068 92.1519 154.443 89.3087 157.579 86.4646C161.07 83.3015 161.788 80.1383 152.843 87.1095C152.773 76.8192 156.311 63 150.094 63C149.044 62.999 147.715 63.3935 146.044 64.266V64.266ZM139.371 82.1606C139.226 79.5103 140.819 76.8599 146.007 77.1263C151.195 77.3926 145.894 77.8447 146.007 81.625C145.476 85.7292 144.203 87.2129 142.911 87.2129C141.226 87.2129 139.509 84.6868 139.371 82.1606" fill="black"/>
<path fill-rule="evenodd" clip-rule="evenodd" d="M137 83.8066C137.015 84.5854 137.124 85.3305 137.341 86C137.856 85.2123 138.406 84.2318 139 83C138.241 83.2881 137.584 83.5573 137 83.8066Z" fill="black"/>
<path fill-rule="evenodd" clip-rule="evenodd" d="M137 83.8066C137.015 84.5854 137.124 85.3305 137.341 86C137.856 85.2123 138.406 84.2318 139 83C138.241 83.2881 137.584 83.5573 137 83.8066Z" fill="black"/>
<path fill-rule="evenodd" clip-rule="evenodd" d="M41.4777 102.075C42.2067 104.493 42.2419 115.862 42.3606 122.323C39.2806 123.268 42.2731 128.576 43.1288 127.949C53.8678 123.05 59.0091 122.825 62.1785 120.094L61.1106 119.982L62.5636 119.263C62.7245 118.897 62.8703 118.654 63 118.479C62.9336 118.247 62.8673 118.013 62.7999 117.775C58.3504 117.28 51.7854 118.858 46.9156 120.548C47.0664 119.603 47.2534 118.055 47.4103 116.052C52.1695 114.791 52.1282 114.735 53.5702 114.051L53.7994 113.596L55.178 113.218L55.1036 112.841L56.3635 112.009H55.8678L57.0513 111.33C57.2906 109.594 57.5058 110.022 57.5108 109.63C55.4465 109.63 51.2343 109.933 47.8708 110.387C48.0438 107.281 47.9985 108.308 48.0639 106.684C53.5591 105.676 55.3801 105.628 57.2424 104.645L57.2826 104.192L58.1906 103.688C58.1564 103.627 58.1222 103.571 58.088 103.51H57.7431C57.8326 103.442 57.898 103.394 57.9794 103.333C57.5782 102.673 57.1669 102.179 56.7466 101.925C57.3489 101.523 57.9161 101.22 58.454 101.001C58.3394 101 58.2197 101 58.097 101C53.5802 101 44.1695 101.275 41.4777 102.075" fill="black"/>
<path fill-rule="evenodd" clip-rule="evenodd" d="M68.6885 117.703C67.1903 112.372 66.1716 97.4385 58.4705 100.629C59.0028 100.63 59.4673 100.637 59.8102 100.647C59.7753 100.913 59.8102 101.631 59.8102 101.631C59.7224 101.721 59.7434 101.622 58 102.964C58.0359 103.022 58.0718 103.08 58.1077 103.142H58.5233L58.2093 103.319C59.8879 106.379 61.398 112.449 62.7786 117.422C63.0078 117.449 63.2361 117.476 63.4544 117.513C63.5112 117.71 63.3088 117.672 62.9769 118.127C64.1272 122.21 65.1908 125.381 66.1885 125.188C66.4527 126.891 68.198 127.419 72.86 126.664C74.1837 117.23 78.3193 107.904 79.8045 104.384C79.7268 103.064 79.6191 102.03 79.4626 101.477C79.6151 101.433 79.8035 101.393 79.9959 101.354C80.0557 100.416 79.4407 99.7738 79.3889 99.7778C79.3211 97.6293 78.4778 98.8467 78.3253 98C74.6452 103.824 71.611 109.913 68.6885 117.703" fill="black"/>
<path fill-rule="evenodd" clip-rule="evenodd" d="M63.3553 117.855C63.6883 117.397 63.8913 117.436 63.8343 117.237C63.6153 117.2 63.3863 117.173 63.1562 117.146C63.2233 117.386 63.2893 117.621 63.3553 117.855" fill="black"/>
<path fill-rule="evenodd" clip-rule="evenodd" d="M63.3553 117.855C63.6883 117.397 63.8913 117.436 63.8343 117.237C63.6153 117.2 63.3863 117.173 63.1562 117.146C63.2233 117.386 63.2893 117.621 63.3553 117.855" fill="black"/>
<path fill-rule="evenodd" clip-rule="evenodd" d="M58.2915 103.411C58.3255 103.472 58.3595 103.529 58.3935 103.59L58.7085 103.411H58.2915Z" fill="black"/>
<path fill-rule="evenodd" clip-rule="evenodd" d="M58.2915 103.411C58.3255 103.472 58.3595 103.529 58.3935 103.59L58.7085 103.411H58.2915Z" fill="black"/>
<path fill-rule="evenodd" clip-rule="evenodd" d="M57 101.793C57.4122 102.011 57.8156 102.434 58.2091 103C59.9339 101.851 59.9132 101.935 60 101.858C60.0868 101.782 59.9655 101.243 60 101.015C59.6607 101.007 59.2012 101.001 58.6746 101C58.1469 101.188 57.5907 101.448 57 101.793Z" fill="black"/>
<path fill-rule="evenodd" clip-rule="evenodd" d="M57 101.793C57.4122 102.011 57.8156 102.434 58.2091 103C59.9339 101.851 59.9132 101.935 60 101.858C60.0868 101.782 59.9655 101.243 60 101.015C59.6607 101.007 59.2012 101.001 58.6746 101C58.1469 101.188 57.5907 101.448 57 101.793Z" fill="black"/>
<path fill-rule="evenodd" clip-rule="evenodd" d="M79.8769 101.703C79.8609 101.946 79.8118 102.203 79.6836 102.479C80.0963 102.452 80.3217 101.964 80.1013 103.74C80.0082 103.987 79.8619 104.344 79.6846 104.765C79.9481 109.28 79.8359 117.27 79.8359 122.316C74.2725 133.437 98.251 121.394 99.6234 120.406L98.5566 120.29L100 119.603C99.989 119.223 99.978 118.842 99.9659 118.453C99.8437 118.282 99.6975 118.146 99.5382 118.013C95.1648 117.665 89.0485 119.082 84.4126 120.595C84.5669 119.639 84.7913 118.072 84.9836 116.049C89.7406 114.854 89.6735 114.807 91.121 114.136L91.3854 113.678L92.7607 113.333L92.7227 112.951L93.9818 112.15L93.483 112.109L94.665 111.462C94.8833 109.702 95.1588 110.138 95.1237 109.741C93.0643 109.702 88.9082 109.931 85.5586 110.354C85.7749 107.209 85.7168 108.25 85.7839 106.607C91.3093 105.663 93.0943 105.652 94.9755 104.695L95.0106 104.235L96.2677 103.587L95.5034 103.55C96.2677 102.99 96.7325 102.652 97.021 102.444C97.1752 102.234 97.3535 102.04 97.5569 101.864C97.5509 101.629 97.5509 101.245 97.6049 101.064C96.7114 101.028 95.0957 101 93.1714 101C88.6808 101 82.5044 101.152 79.8769 101.703" fill="black"/>
<path fill-rule="evenodd" clip-rule="evenodd" d="M80.0775 101.122C80.2345 101.669 80.3425 102.693 80.4205 104C80.5975 103.587 80.7435 103.237 80.8365 102.995C81.0565 101.256 80.8315 101.734 80.4195 101.761C80.5475 101.49 80.5965 101.238 80.6125 101C80.4195 101.038 80.2305 101.079 80.0775 101.122Z" fill="black"/>
<path fill-rule="evenodd" clip-rule="evenodd" d="M80.0775 101.122C80.2345 101.669 80.3425 102.693 80.4205 104C80.5975 103.587 80.7435 103.237 80.8365 102.995C81.0565 101.256 80.8315 101.734 80.4195 101.761C80.5475 101.49 80.5965 101.238 80.6125 101C80.4195 101.038 80.2305 101.079 80.0775 101.122Z" fill="black"/>
<path fill-rule="evenodd" clip-rule="evenodd" d="M97.1851 101.443C97.1881 101.555 97.1922 101.636 97.1922 101.636C97.121 101.688 97.1342 101.672 96.6406 102.019C95.799 103.145 95.7196 104.77 96.8065 106.976C97.6166 106.789 98.3941 106.638 99.1675 106.522C99.2846 108.57 99.3965 111.032 99.5136 113.53C98.1631 113 97.2675 112.32 97.0782 111.752C96.8838 112.585 97.1138 113.986 97.8507 115.425C97.4619 115.083 96.8838 113.683 96.6905 112.661C97.1668 116.324 98.3737 116.791 99.1981 117.449C99.6855 117.488 100.159 117.541 100.6 117.623C100.727 117.893 100.242 117.709 99.6683 119.024L99.6672 119.025C99.8046 123.606 99.9156 127.407 100.017 128C100.436 127.263 100.588 127.639 100.836 127.662L101.297 126.942L101.607 126.978C102.055 125.528 102.783 125.894 102.651 125.729C104.506 122.678 104.135 122.566 104.357 119.25C105.712 119.255 107.123 119.141 108.038 119.024C110.541 121.913 111.548 125.112 112.644 127.132C113.673 127.067 114.224 126.339 114.349 126.109C114.475 125.879 114.466 126.26 114.543 126.336C115.046 124.745 113.576 119.896 113.576 119.896C113.576 119.896 115.163 122.358 114.928 125.881C115.475 123.571 114.814 120.349 113.34 117.736C127.343 108.146 112.122 100 102.55 100C100.296 100 98.3564 100.452 97.1851 101.443V101.443ZM104.9 105.879C120.593 105.577 117.142 113.737 104.629 114.478C104.819 111.216 104.992 108.124 104.9 105.879Z" fill="black"/>
<path fill-rule="evenodd" clip-rule="evenodd" d="M97.229 101.789C97.714 101.441 97.701 101.457 97.771 101.404C97.841 101.351 97.767 101.323 97.764 101.211C97.561 101.386 97.383 101.58 97.229 101.789Z" fill="black"/>
<path fill-rule="evenodd" clip-rule="evenodd" d="M97.229 101.789C97.714 101.441 97.701 101.457 97.771 101.404C97.841 101.351 97.767 101.323 97.764 101.211C97.561 101.386 97.383 101.58 97.229 101.789Z" fill="black"/>
<path fill-rule="evenodd" clip-rule="evenodd" d="M100.305 117.553C100.314 118.042 100.322 118.522 100.33 119L100.331 118.999C100.734 117.33 101.075 117.563 100.986 117.221C100.675 117.116 100.343 117.049 100 117C100.114 117.167 100.218 117.339 100.305 117.553" fill="black"/>
<path fill-rule="evenodd" clip-rule="evenodd" d="M100.305 117.553C100.314 118.042 100.322 118.522 100.33 119L100.331 118.999C100.734 117.33 101.075 117.563 100.986 117.221C100.675 117.116 100.343 117.049 100 117C100.114 117.167 100.218 117.339 100.305 117.553" fill="black"/>
<path fill-rule="evenodd" clip-rule="evenodd" d="M111.842 34.1578C113.708 55.973 53.6596 30.6202 47.8405 34.2916C47.8405 34.2916 47.8505 34.207 47.8725 34.0555C-36.0986 58.317 191.929 66.1855 114.81 32.0057C114.81 32.0057 113.667 31.5953 111.661 31C111.873 32.1681 111.929 33.218 111.842 34.1578Z" fill="black"/>
<path fill-rule="evenodd" clip-rule="evenodd" d="M111.842 34.1571C112.997 47.6626 90.4246 43.0906 71.6781 38.5195C60.1437 35.7061 50.058 32.8936 47.8424 34.291C45.6269 35.6883 47.8514 34.2063 47.8723 34.0548C-36.0985 58.3172 191.929 66.1859 114.81 32.0059C37.6899 -2.17405 113.668 31.5936 111.662 31.0002C111.873 32.1673 111.93 33.2173 111.842 34.1571" fill="black"/>
<path fill-rule="evenodd" clip-rule="evenodd" d="M76.155 2.78512C54.8898 -2.81845 49.1513 24.3629 48 31.3949C49.0274 31.2313 50.0857 31.0949 51.1771 30.9939L51.1011 31.505C64.6859 31.9172 120.488 55.3922 107.168 26.9541C108.507 27.4188 109.774 27.8815 111 28.3431C103.787 5.75005 95.4874 0.0010102 87.4622 0C83.5775 0 79.7568 1.34861 76.155 2.78512" fill="black"/>
<path fill-rule="evenodd" clip-rule="evenodd" d="M112 34.6305C111.914 33.5944 111.707 32.4623 111.351 31.214C111.516 31.264 111.665 31.3099 111.82 31.3578C111.706 30.7041 111.558 30.0239 111.351 29.2977C111.255 28.9887 111.157 28.7042 111.063 28.4013C109.838 27.9362 108.573 27.4691 107.24 27C120.528 55.7089 64.8557 32.0095 51.3014 31.5924L51.3771 31.0774C50.2883 31.1794 49.2334 31.317 48.2074 31.4823C48.1077 32.1013 48.0389 32.5817 48 32.856C53.6445 29.1672 110.283 53.762 112 34.6305" fill="black"/>
<path fill-rule="evenodd" clip-rule="evenodd" d="M111.806 34C111.894 33.1448 111.837 32.1893 111.625 31.1263C111.47 31.0842 111.321 31.0439 111.155 31C111.512 32.0961 111.72 33.0901 111.806 34Z" fill="black"/>
<path fill-rule="evenodd" clip-rule="evenodd" d="M111.806 34C111.894 33.1448 111.837 32.1893 111.625 31.1272C111.47 31.0851 111.321 31.0448 111.154 31C111.512 32.0961 111.72 33.091 111.806 34Z" fill="black"/>
<path fill-rule="evenodd" clip-rule="evenodd" d="M111.806 34C111.894 33.1448 111.837 32.1893 111.625 31.1272C111.47 31.0851 111.321 31.0448 111.154 31C111.512 32.0961 111.72 33.091 111.806 34Z" fill="black"/>
</svg>
