<svg width="95" height="148" viewBox="0 0 95 148" fill="none" xmlns="http://www.w3.org/2000/svg">
<path fill-rule="evenodd" clip-rule="evenodd" d="M13.0367 78.7945C16.9377 75.4975 11.3637 71.8895 8.15771 74.3715C7.95371 79.9505 7.69871 81.0795 13.0367 78.7945V78.7945ZM12.1747 62.7265C11.7567 62.1915 7.91771 61.4615 8.15771 63.0545C8.72371 65.4375 6.84171 67.3045 9.29271 67.1155C10.9867 67.1825 14.6897 65.2975 12.1747 62.7265V62.7265ZM16.6227 69.7805C23.0367 69.6945 25.3277 80.9385 18.7777 84.0265C15.7297 86.1615 5.93471 86.3665 0.553711 86.2015C0.583711 86.1675 0.671711 60.7985 0.708711 57.9155C5.91571 52.5405 30.8427 58.9915 15.7997 69.8195C15.9817 69.7945 16.2567 69.7805 16.6227 69.7805" fill="#D82E42"/>
<path fill-rule="evenodd" clip-rule="evenodd" d="M44.9581 77.8542V85.6922L24.2651 86.1632L23.2461 56.3772C48.4791 55.8872 43.3241 53.1862 44.4881 63.5492L31.2411 63.7062C29.6111 69.4392 39.0181 65.7252 42.3451 66.5692C42.6751 65.6922 42.6341 74.0622 42.8021 74.4052L31.8681 74.6402L32.0641 78.3642L44.9581 77.8542Z" fill="#D82E42"/>
<path fill-rule="evenodd" clip-rule="evenodd" d="M50.8755 85.0849C41.8705 81.1199 48.1515 79.6609 50.9535 75.5809C52.5495 77.5669 58.9145 80.8119 60.8695 76.6399C60.6235 75.6989 60.0465 75.2569 57.4995 75.1499C40.2295 73.9109 45.5795 52.7509 61.7065 56.5729C71.7775 59.8919 69.3135 60.8079 64.8835 66.6879C63.1145 65.8119 54.6385 61.1779 54.5975 66.4359C80.2335 67.6929 68.7175 92.0769 50.8755 85.0849" fill="#D82E42"/>
<path fill-rule="evenodd" clip-rule="evenodd" d="M85.795 63.824L85.874 86.085L78.114 86.437L78.035 64.019C66.349 64.905 70.637 63.811 69.335 56.378L93.947 55.79L94.574 63.628L85.795 63.824Z" fill="#D82E42"/>
<path fill-rule="evenodd" clip-rule="evenodd" d="M17.6779 106.841C18.1819 102.634 11.0929 98.8305 8.34986 100.637C8.35086 102.123 8.34986 110.068 8.34986 112.853C9.48786 116.008 19.0019 111.34 17.6779 106.841ZM16.6389 93.8295C41.0209 110.666 14.7859 127.46 0.557861 120.914C0.603861 116.786 0.842861 95.0965 0.863861 93.2745C3.12886 91.2705 11.8859 91.0565 16.6389 93.8295" fill="white"/>
<path fill-rule="evenodd" clip-rule="evenodd" d="M42.7211 107.312L40.8401 100.257L38.0181 107.272L42.7211 107.312ZM44.8371 115.15C32.8741 114.903 35.3171 114.201 32.3741 121.342L24.5361 118.128L37.3911 91.9102L45.2291 91.9882L54.4391 119.814C43.7531 122.753 47.2391 121.875 44.8371 115.15V115.15Z" fill="white"/>
<path fill-rule="evenodd" clip-rule="evenodd" d="M72.2711 106.841C72.7751 102.634 65.6861 98.8305 62.9431 100.637C62.9441 102.123 62.9431 110.068 62.9431 112.853C64.0811 116.008 73.5951 111.34 72.2711 106.841ZM71.2321 93.8295C95.6141 110.666 69.3791 127.46 55.1511 120.914C55.1971 116.786 55.4361 95.0965 55.4571 93.2745C57.7221 91.2705 66.4791 91.0565 71.2321 93.8295" fill="white"/>
<path fill-rule="evenodd" clip-rule="evenodd" d="M81.7164 91.9102H90.2994C89.8544 115.66 92.5084 110.943 82.4224 111.74L81.7164 91.9102ZM83.8134 121.205C78.1094 118.157 84.5554 108.37 90.0914 114.711C92.0414 118.309 88.4534 123.759 83.8134 121.205Z" fill="white"/>
<path fill-rule="evenodd" clip-rule="evenodd" d="M47.8315 38.9915C58.9525 28.1885 34.5055 26.2685 27.3435 24.6505C19.9915 23.0585 11.9285 12.0925 22.0355 9.37652C26.4115 9.66952 25.1945 15.9755 25.9055 17.5035C28.9855 20.0955 30.2315 13.8975 27.2405 8.97952C16.5755 -0.985477 8.6275 17.9155 19.6075 24.1955C27.7955 31.8315 46.6935 27.0015 47.2375 35.5335C46.7675 35.9755 45.4365 36.5905 44.3105 35.2505C39.4665 28.4525 39.5345 41.7755 47.8315 38.9915Z" fill="#FBB040"/>
<path fill-rule="evenodd" clip-rule="evenodd" d="M45.5159 38.9916C34.3959 28.1876 58.8419 26.2686 66.0049 24.6506C73.3559 23.0586 81.4199 12.0926 71.3119 9.37662C66.9369 9.66962 68.1539 15.9756 67.4419 17.5036C64.3629 20.0956 63.1159 13.8976 66.1069 8.97962C76.7719 -0.98538 84.7199 17.9146 73.7409 24.1956C65.5539 31.8306 46.6529 27.0026 46.1109 35.5336C46.5799 35.9766 47.9109 36.5906 49.0369 35.2506C53.8819 28.4526 53.8139 41.7756 45.5159 38.9916" fill="#FBB040"/>
<path fill-rule="evenodd" clip-rule="evenodd" d="M23.5913 0.729004C28.1973 66.857 65.8893 63.002 69.5623 0.729004H23.5913Z" fill="#FBB040"/>
<path fill-rule="evenodd" clip-rule="evenodd" d="M34.9929 51.8299H58.1599V44.6499H34.9929V51.8299Z" fill="#3E3946"/>
<path fill-rule="evenodd" clip-rule="evenodd" d="M46.5094 8.78579C47.7354 8.75594 49.8594 13.2359 49.8844 13.4939C49.8084 13.5509 55.7834 13.8339 55.4174 15.7149C55.0334 17.5919 51.5274 19.9949 52.0034 20.0529C54.2594 28.8539 49.3294 25.3289 46.5094 23.8819C38.0954 29.0629 41.0184 22.5929 40.9394 19.8199C40.3274 19.2119 36.7194 16.1559 37.8424 14.8979C38.9354 13.8309 42.8564 13.5169 43.1344 13.4939C43.0644 13.4369 44.9944 9.13694 46.5094 8.78579" fill="white"/>
<path fill-rule="evenodd" clip-rule="evenodd" d="M46.1997 130.465C47.4357 130.434 49.5767 134.95 49.6017 135.21C49.5257 135.267 55.5487 135.554 55.1787 137.449C54.7927 139.341 51.2587 141.765 51.7387 141.823C54.0117 150.694 49.0387 147.14 46.1997 145.682C37.7217 150.903 40.6637 144.384 40.5857 141.589C39.9697 140.976 36.3317 137.895 37.4637 136.626C38.5657 135.55 42.5177 135.234 42.7977 135.21C42.7267 135.152 44.6727 130.819 46.1997 130.465" fill="#FBB040"/>
<path fill-rule="evenodd" clip-rule="evenodd" d="M21.0523 130.465C22.2883 130.434 24.4293 134.95 24.4543 135.21C24.3783 135.267 30.4013 135.554 30.0313 137.449C29.6453 139.341 26.1103 141.765 26.5903 141.823C28.8643 150.694 23.8913 147.14 21.0523 145.682C12.5733 150.903 15.5153 144.386 15.4383 141.589C14.8213 140.976 11.1843 137.894 12.3163 136.626C13.4183 135.55 17.3703 135.234 17.6503 135.21C17.5793 135.152 19.5253 130.819 21.0523 130.465" fill="#FBB040"/>
<path fill-rule="evenodd" clip-rule="evenodd" d="M71.4833 130.465C72.7193 130.434 74.8603 134.95 74.8863 135.21C74.8103 135.267 80.8333 135.554 80.4633 137.449C80.0763 139.341 76.5423 141.765 77.0223 141.823C79.2953 150.694 74.3233 147.14 71.4833 145.682C63.0053 150.903 65.9473 144.384 65.8693 141.589C65.2523 140.976 61.6153 137.894 62.7483 136.626C63.8503 135.55 67.8013 135.234 68.0813 135.21C68.0113 135.152 69.9573 130.819 71.4833 130.465" fill="#FBB040"/>
</svg>
