<svg width="120" height="140" viewBox="0 0 120 140" fill="none" xmlns="http://www.w3.org/2000/svg">
<path fill-rule="evenodd" clip-rule="evenodd" d="M10.4138 5.93674C-7.40734 18.2029 -1.22774 48.437 20.3778 44.069C20.4709 41.1855 21.0785 40.9606 20.1296 38.2378C0.520842 41.4537 1.70091 12.2019 16.5143 6.61066C39.305 -5.45364 57.9578 18.4761 39.1698 31.7798C37.4623 31.4513 35.5936 31.5618 33.5578 31.4945C34.6447 24.9783 35.0441 17.3934 38.1219 11.0509C35.4675 9.35154 35.1062 9.64581 31.9753 9.98529C24.6797 27.5444 29.1327 54.9241 17.4001 67.4353C15.0009 66.3436 11.9962 65.6506 8.44902 66.1869C7.53119 70.3801 6.03283 70.581 7.12382 74.731C10.4779 74.731 14.1402 73.8883 17.4281 71.7129C53.5128 87.0222 68.9638 44.5049 43.2175 33.4048C63.8422 16.6 47.9888 0.00100435 28.9716 0C22.734 0 16.156 1.78574 10.4138 5.93674V5.93674ZM20.1696 68.982C29.1027 61.3761 31.5339 48.3315 33.2445 36.1989C35.6767 36.1326 37.7686 35.1052 39.7403 34.5116C55.3585 41.5742 51.8613 71.041 32.725 71.4849C28.8305 71.0028 24.3995 70.0185 20.1696 68.982Z" fill="black"/>
<path fill-rule="evenodd" clip-rule="evenodd" d="M100.084 13.2204C98.9977 18.2353 97.9277 23.095 96.6694 28.4421C95.2812 28.4421 94.4145 28.4759 93.9515 28.4759C93.5015 29.9618 93.1915 29.9231 93.0928 31.4727C93.3576 31.5363 95.1021 31.4816 96.6231 31.4816C95.1584 36.7949 95.3829 43.5653 91.2688 49.6981C89.7055 40.4521 82.0299 31.7014 86.3373 20.2404C84.8113 18.5555 84.2123 18.9017 82.1074 19.7928C80.6267 24.6526 80.519 29.0925 81.5367 34.3471C78.0175 43.4678 66.9495 66.3848 63.9307 45.0443C80.067 42.3598 77.3128 23.8877 68.1525 28.08C42.3313 54.2137 72.8263 75.3802 81.9585 37.8044C84.4126 41.213 88.3747 59.7666 79.7851 51.2954C77.4014 51.9937 77.2635 52.3915 76.0606 54.5419C80.6146 64.4433 90.6769 55.7195 94.0109 48.9372C94.4467 65.3514 102.332 57.9942 106.066 50.637C108.208 46.4208 108.987 42.2036 106.218 42.4622C97.5824 68.201 98.0827 43.8806 101.359 31.234C102.55 31.234 104.164 31.5244 104.428 31.4587C104.843 29.9519 104.636 29.9778 104.636 28.4142C104.042 28.4779 103.294 28.5992 102.235 28.5992C103.316 23.7494 104.278 18.3427 104.87 12.6346C104.114 12.187 103.541 12 103.009 12C102.126 12 101.364 12.5182 100.084 13.2204V13.2204ZM70.2724 32.0595C74.6885 33.6022 68.226 41.3582 64.3504 42.5617C64.7732 39.547 66.721 32.5648 70.2724 32.0595Z" fill="black"/>
<path fill-rule="evenodd" clip-rule="evenodd" d="M38.1134 96.6981C38.1134 96.6981 37.6514 83.542 33.2332 83.1352C12.6899 80.4462 7.67009 89.8907 9.27851 99.3352C10.9398 109.093 19.6784 118.85 25.685 115.227C50.3082 104.511 72.1806 56.469 98.7534 68.9274C100.555 69.1613 101.691 67.9208 103 63.4175C99.5956 62.4418 96.2979 62 93.108 62C69.5474 61.998 51.738 86.0731 38.1134 96.6981Z" fill="black"/>
<path fill-rule="evenodd" clip-rule="evenodd" d="M68.3375 79.2683C68.4804 81.8439 68.4538 82.3074 68.3375 83.3078C69.0166 88.3266 68.4222 91.0036 68.8914 92.323C68.7721 94.5194 69.0885 102.241 68.7071 103.504C68.781 104.702 68.5721 104.604 68.5218 104.865C68.5149 109.333 66.9764 112.498 69.2157 114.775H69.121C69.0905 114.933 69.0757 115.167 69.0757 115.481C69.8445 115.855 70.6133 116.028 71.383 115.996C77.5155 111.632 78.5888 104.717 79.8258 100.638C80.0998 96.0716 80.0249 95.7214 79.7794 93.8281C79.4 93.2341 79.7597 93.1619 79.6415 93.0284C77.7343 83.3339 74.5744 80.084 68.8441 78C68.1147 78.9452 68.5474 79.0726 68.3375 79.2683V79.2683ZM71.659 107.825C71.6107 106.728 71.7132 106.508 71.8443 106.273C71.6491 103.386 72.0798 103.241 71.9369 102.047L71.9823 102C71.9823 101.969 72.0128 101.923 72.0749 101.859L71.797 101.531C72.136 101.249 72.136 100.967 71.797 100.684C72.0178 100.43 71.9527 100.505 72.0276 100.45C71.8827 99.3777 71.8561 99.3857 71.9823 98.8058C71.5999 97.7994 72.0729 95.3652 71.7053 94.6268C72.0552 94.2094 71.7615 94.0639 71.8443 93.9686C71.3357 88.0668 71.043 83.076 70.5985 79.783C75.2939 82.6998 75.6271 87.3995 76.3209 90.0223C76.73 90.9113 76.3968 90.9916 76.6432 91.1501C76.3337 91.7892 76.7901 91.7923 76.6896 91.9488C77.0848 95.0311 76.8512 96.1328 76.7339 97.2084C76.933 98.1044 76.6255 98.273 76.6432 98.3362C76.3081 101.061 75.9109 101.796 75.628 103.079L75.3501 103.314C74.8021 106.58 73.989 106.138 73.6903 107.778L73.3217 108.107V108.528L72.2129 109.939C72.3115 110.089 72.3174 110.049 72.3519 110.127C71.2992 111.096 71.3002 111.048 71.0597 111.301C71.4057 109.457 71.5082 108.16 71.659 107.825" fill="black"/>
<path fill-rule="evenodd" clip-rule="evenodd" d="M86.2804 81.6041C84.7926 88.0872 83.9022 94.1673 83.1157 98.6321C83.2734 98.7238 83.241 98.758 83.2998 98.7731C82.7023 100.3 83.0941 100.916 82.9325 101.038C82.7209 102.589 82.7082 103.039 82.5662 103.161C82.8081 103.724 82.3624 103.758 82.5191 103.915C82.0147 107.316 82.3742 109.414 82.0147 110.519C81.9726 111.516 82.0265 111.418 82.1068 111.556C82.2919 111.978 81.9373 112.041 82.0607 112.123C82.2273 114.333 82.2684 113.588 82.428 114.527L82.5191 114.434C82.9756 114.974 83.0187 114.898 83.1157 115L83.8493 114.294C84.4497 111.966 84.7808 110.86 84.7661 109.859L84.9953 109.669C89.1317 109.031 90.7283 108.735 91.9184 108.397L92.5149 112.405C94.4759 114.305 94.0302 113.82 94.4406 114.246H95.0372C95.9471 112.736 95.5984 111.691 96 111.085C94.6453 104.369 93.8275 98.8739 92.3318 94.6721C91.1084 87.6066 90.5589 84.1363 89.3511 80C86.4508 80.7003 86.7751 80.9401 86.2804 81.6041V81.6041ZM87.7937 89.6229C89.4383 97.2163 90.1984 100.827 91.1848 104.813C88.7478 105.748 86.6781 106.25 85.3166 106.888C85.9435 99.8704 86.7476 94.3164 87.7937 89.6229Z" fill="black"/>
<path fill-rule="evenodd" clip-rule="evenodd" d="M99.3354 79.2683C99.477 81.8439 99.4524 82.3074 99.3354 83.3078C100.016 88.3256 99.4199 91.0046 99.889 92.323C99.77 94.5194 100.086 102.242 99.7041 103.504C99.7769 104.702 99.5714 104.604 99.5202 104.865C99.5143 109.329 97.9794 112.501 100.21 114.775H100.119C100.089 114.933 100.073 115.167 100.073 115.481C100.84 115.855 101.607 116.028 102.374 115.996C108.494 111.632 109.563 104.717 110.796 100.638C111.166 96.2562 110.959 95.8067 110.751 93.8281C110.373 93.2351 110.733 93.1619 110.614 93.0284C108.711 83.3329 105.559 80.084 99.8418 78C99.1112 78.9442 99.5458 79.0726 99.3354 79.2683V79.2683ZM102.65 107.825C102.917 103.723 102.868 103.582 102.927 102.047L102.972 102C102.972 101.969 103.003 101.923 103.065 101.859L102.789 101.531C103.126 101.249 103.126 100.967 102.789 100.684C103.009 100.429 102.944 100.505 103.019 100.45C102.782 98.7335 102.966 95.4505 102.695 94.6268C103.047 94.2104 102.751 94.0639 102.834 93.9686C102.327 88.0638 102.036 83.078 101.592 79.783C106.28 82.6125 106.374 87.2029 107.345 89.7885C107.411 90.8501 107.474 91.123 107.621 91.1501C107.854 93.9154 107.987 96.1729 107.713 97.2084C107.91 98.1044 107.605 98.273 107.621 98.3362C107.289 101.06 106.892 101.796 106.609 103.079L106.332 103.314C105.774 106.083 104.967 107.05 104.308 108.107V108.528L103.203 109.939C103.302 110.089 103.307 110.048 103.34 110.127C102.293 111.096 102.291 111.048 102.053 111.301C102.395 109.457 102.501 108.16 102.65 107.825Z" fill="black"/>
<path fill-rule="evenodd" clip-rule="evenodd" d="M57.2342 102.178C55.4618 102.345 55.5194 102.679 54.7568 102.566L53.6298 103.256C53.5524 103.513 53.5812 103.482 53.5752 103.588C53.5027 103.588 53.2545 103.514 52.8335 103.367C49.3999 105.943 46.6237 107.375 45.0201 109.364C41.3949 112.226 39.2353 117.318 42.5159 118.648C44.2357 118.499 44.9794 118.107 45.459 117.901C43.905 118.753 44.4522 118.549 43.8911 118.704C41.657 120.394 39.1409 121.539 39.3802 121.854C36.8661 123.225 36.4898 123.955 36.1056 124.535C33.3571 126.134 32.6909 128.547 32.4476 129.454C31.1657 130.766 31.7515 131.174 31.6493 131.61C31.0654 132.8 30.8708 133.158 31.2104 133.57C30.8599 134.49 30.9959 134.26 31.265 134.648C30.7179 135.654 31.5539 135.886 31.4298 136.196C33.7811 139.292 34.779 139.654 37.1213 139.927C38.433 140.137 38.155 139.828 38.4677 139.816L39.1539 139.982C40.6889 139.241 42.6132 138.76 42.8098 137.773C45.1065 137.956 46.9682 136.02 47.8688 134.869C48.3365 134.701 48.1727 134.784 48.3087 134.703C47.987 133.43 48.6294 133.993 48.9412 134.151C53.0659 132.142 56.9591 127.271 58.948 125.723C63.3348 121.345 60.2567 121.194 58.4545 123.568C56.2035 125.769 54.7677 126.463 54.4143 127.354L53.9476 127.464C53.9287 127.503 53.8731 127.675 53.7827 127.99C51.9359 129.036 52.2943 129.173 51.5834 129.231C47.5034 132.859 45.0777 134.066 42.5139 135.34C40.8369 136.021 40.8557 136.056 40.1498 135.893C39.551 136.247 39.5818 136.057 39.3256 136.003C38.8381 136.116 38.8927 136.115 38.8133 136.113C38.7984 136.113 38.7775 136.113 38.7487 136.113C38.6018 136.003 38.437 135.948 38.2533 135.948L37.9792 136.113C37.6307 136.003 37.4192 135.948 37.3467 135.948C36.4243 135.325 36.3687 134.46 36.2763 134.316C36.3161 133.409 36.3875 133.692 36.2763 133.461C37.4341 129.411 37.9187 128.846 38.7507 127.933C39.3693 126.879 39.1032 127.168 39.6593 126.856C40.3116 125.585 40.3841 125.978 40.2371 125.309L40.2918 125.197L40.676 125.419C41.4932 124.97 41.9658 124.404 41.806 124.119C43.1345 123.913 42.5795 123.533 42.8227 123.179C43.9885 122.86 44.335 121.753 44.4452 121.688C44.4839 121.578 44.5187 121.504 44.5554 121.467C47.5163 120.11 50.9936 116.883 54.0677 116.99C62.3418 110.074 49.7634 113.446 48.1022 115.361H47.7179C45.7747 116.284 45.2584 116.486 44.8861 116.66C45.0956 115.861 46.2782 113.832 46.3079 113.702C48.2769 111.534 47.4657 111.818 48.7317 110.773C60.8663 100.367 60.3639 103.677 59.4812 106.986C58.9311 109.046 58.2331 111.106 60.3401 109.859C60.9219 109.237 60.6181 109.482 60.8912 109.251C61.6537 106.784 61.8047 106.672 61.9625 106.295C62.3468 103.42 59.6857 102 58.0643 102C57.7326 102 57.4437 102.059 57.2342 102.178" fill="black"/>
<path fill-rule="evenodd" clip-rule="evenodd" d="M68.8973 133.353C68.8038 133.445 68.7377 133.591 68.7001 133.792C67.9966 134.302 68.0637 134.149 67.9682 134.312C67.7385 134.31 67.7994 134.278 67.7425 134.257C68.2925 132.707 66.9822 132.489 67.9123 132.067C71.7547 122.547 68.2701 122.327 62.3133 126.128L62.2005 126.346C59.4498 128.407 59.5108 130.805 61.1047 129.767C63.2251 128.785 63.4427 127.384 64.2284 127.633C65.0518 127.028 65.247 127.283 65.3283 127.524C60.7337 136.977 66.2798 142.168 71.0655 133.792C73.1412 131.71 73.93 130.768 74.8357 130.314C76.4611 128.269 76.5232 129.149 76.6634 128.536C77.7867 128.009 77.4167 128.127 77.6779 128.056C78.609 127.291 79.1508 127.243 79.4781 127.03C81.0619 127.123 80.7254 126.749 81.1086 126.621L81.6159 126.783C82.3427 124.041 81.9808 123 81.011 123C78.0073 123.002 69.187 132.985 68.8973 133.353" fill="black"/>
<path fill-rule="evenodd" clip-rule="evenodd" d="M85.4704 126.88L84.8869 127.34C83.9543 129.037 83.7701 129.411 83.4673 129.961L83.078 131.366C81.5629 132.585 81.8023 134.096 82.8265 134.471C83.5035 136.421 83.4593 136.433 83.914 136.335C84.1363 137.146 84.5176 137.55 85.0569 137.55C87.1676 138.074 86.9945 137.899 87.7601 137.686C89.2551 138.525 91.1334 137.526 92.7139 136.527C93.9594 135.74 95.0208 134.952 95.564 135.065L95.73 135.011C95.8981 134.796 96.2612 134.562 96.8186 134.309C97.394 133.363 97.2321 133.397 97.5721 133.472L97.7934 133.688C99.3538 132.132 100.056 131.547 100.776 130.987H100.943C101.608 129.874 101.757 129.293 101.975 129.043C101.642 127.383 102.11 127.787 101.975 127.61C101.387 127.134 101.032 127.465 100.826 127.795C100.678 128.033 100.607 128.27 100.582 128.205C97.5852 130.435 94.7109 131.874 92.728 133.526C91.2662 134.375 90.9523 134.637 90.8899 134.742L90.6103 134.632C86.5398 136.036 85.2933 135.387 85.5971 133.309C85.8939 133.13 86.1796 133.039 86.4573 133.039L87.0136 132.472L87.2933 132.526C88.3768 131.535 87.9885 131.279 88.3205 131.257C90.4382 130.644 90.9835 129.096 91.7964 129.42C92.7924 127.96 94.2592 127.858 94.0479 127.866C98.0691 124.322 96.6838 123 93.9634 123C90.8336 123 85.9362 124.75 85.4704 126.88V126.88ZM90.7753 125.72C97.0892 123.687 88.0106 129.753 87.2953 129.771C86.8718 127.909 90.2008 126.033 90.7753 125.72" fill="black"/>
<path fill-rule="evenodd" clip-rule="evenodd" d="M105.126 124.445L104.961 124.808L104.548 124.92L104.22 125.31C99.5937 127.83 96.5854 133.019 101.584 130.221C101.804 129.926 102.023 129.663 102.244 129.441C104.171 127.98 104.153 128.623 104.55 127.934C107.981 125.28 109.399 125.419 108.23 127.598C104.168 132.429 104.657 139.347 109.687 138.986C112.329 137.921 113.054 137.483 113.338 136.976L113.174 136.697C113.748 136.223 113.909 136.586 114.191 136.279L114.3 136C118.941 134.337 122.214 126.463 118.172 130.221C114.746 132.903 111.17 135.172 109.796 135.609L109.412 135.497C106.942 135.573 109.489 131.902 109.906 131.59C110.143 131.255 110.336 130.921 110.482 130.585C112.088 128.989 112.312 128.384 112.598 128.297C113.32 123.721 111.636 122 109.572 122C108.018 122 106.247 122.976 105.126 124.445" fill="black"/>
</svg>
