<svg width="157" height="160" viewBox="0 0 157 160" fill="none" xmlns="http://www.w3.org/2000/svg">
<path fill-rule="evenodd" clip-rule="evenodd" d="M22.5098 114.715C22.5218 127.049 22.8562 139.404 22.9966 151.755C36.1935 150.219 37.1605 140.447 36.7309 130.003C36.0938 116.093 31.1696 114.949 22.5098 114.715V114.715ZM9.31211 151.981C9.2187 139.593 9.12578 127.281 9.03262 114.915C5.2114 114.58 1.99176 116.143 2.33098 111.83C2.52925 110.382 2.20161 108.87 3.06493 107.668C4.28847 106.478 7.34822 107.121 8.66975 106.875C12.1725 106.762 15.6071 106.68 19.0806 106.663C35.0782 106.876 44.6223 109.319 48.9816 119.881C50.9102 124.302 51.2814 128.943 51.2289 133.703C51.2936 143.171 47.9354 150.539 40.5039 155.44C32.9255 160.609 8.68833 160.549 4.55251 159.142C4.02093 158.85 3.7581 158.38 3.62487 157.672C3.34538 150.701 3.69933 152.127 9.31211 151.981" fill="black"/>
<path fill-rule="evenodd" clip-rule="evenodd" d="M129.119 150.009C144.082 149.018 146.027 128.327 139.167 119.565C136.704 116.461 132.374 116.01 128.59 116.312C128.767 127.56 128.943 138.752 129.119 150.009ZM116.759 150.903C116.526 139.927 116.295 129.006 116.063 118.057C114.3 118.003 112.447 119.063 110.814 118.543C109.14 117.807 109.481 112.996 109.818 112.289C110.808 109.967 119.504 109.878 120.833 109.413C134.288 107.565 151.259 107.944 155.5 122.922C157.459 129.414 157.462 136.514 154.813 142.804C150.901 153.203 139.207 157.067 129.009 157.643C122.637 158.341 113.332 158.556 111.98 157.405C111.593 157.087 111.377 156.656 111.245 156.077C110.228 149.752 112.278 151.157 116.759 150.903" fill="black"/>
<path fill-rule="evenodd" clip-rule="evenodd" d="M82.6552 140.96C80.2147 134.91 78.1118 128.853 75.5374 122.964C73.3281 128.958 71.1577 134.943 69.0037 140.96H82.6552ZM86.9496 151.753C86.4833 150.588 86.0539 149.515 85.6218 148.435H66.3065C65.9229 149.497 65.5497 150.531 65.1506 151.635C66.8146 151.746 69.4648 151.272 70.243 152.824C70.7453 154.433 70.8591 158.301 69.4843 158.685C68.9019 158.967 68.2611 158.942 67.601 158.943C62.7264 158.91 58.0211 158.805 53.1671 158.861C52.2508 158.937 51.4128 158.644 51.2166 157.704C50.8921 155.742 50.5866 153.219 51.4665 152.028C52.8686 150.864 55.9521 151.608 57.3461 151.327C61.1354 140.838 64.9337 130.283 68.7225 119.782C69.7873 117.38 71.2955 110.968 72.9871 110.114C74.382 109.102 76.3744 109.176 78.1264 109.207C79.5912 109.307 81.1057 109.135 82.4405 109.707C85.5916 111.122 86.9848 116.009 88.1837 118.478C92.7005 129.474 97.0859 140.421 101.54 151.412C103.169 151.611 105.478 151.008 106.532 152.012C107.54 153.467 107.687 157.877 106.31 158.439C105.602 158.854 104.757 158.828 103.948 158.918C98.8159 159.226 93.7748 158.913 88.6392 158.94C83.7677 158.698 80.9392 159.737 80.7782 156.02C80.1476 150.443 83.3454 151.995 86.9496 151.753V151.753Z" fill="black"/>
<path fill-rule="evenodd" clip-rule="evenodd" d="M93.7649 49.4886C94.992 32.7543 103.309 12.8001 116.484 9.41132C121.133 7.93679 127.089 9.21981 126.536 14.6814C125.898 16.6213 125.589 16.6234 124.004 16.1886C120.284 15.7512 116.454 16.9165 113.691 19.4538C105.526 27.3348 102.116 39.9003 101.251 49.9672C100.78 52.8148 100.848 56.6091 100.166 57.1087C97.4731 58.7798 93.841 58.7673 90.7711 58.3885C67.3487 52.4356 86.7253 15.885 72.2182 8.07711C71.4151 7.77993 71.3286 7.10394 71.4322 6.36456C73.2256 2.26615 78.809 2.8378 82.4997 3.21999C98.0642 6.72852 86.313 39.7336 93.7649 49.4886" fill="black"/>
<path fill-rule="evenodd" clip-rule="evenodd" d="M113.055 80.8284C116.93 68.2025 109.707 70.4119 110.355 76.0709C110.471 77.968 111.268 79.8982 113.055 80.8284ZM106.901 83.2358C104.888 84.8354 104.004 87.2798 104.219 89.7792C104.289 91.8167 105.915 91.5265 107.101 90.6571C108.648 89.2942 109.699 87.5173 110.879 85.822C109.333 85.2744 108.1 84.2857 106.901 83.2358V83.2358ZM116.863 81.2331C120.7 80.0776 123.433 76.5971 125.636 73.4337C126.491 72.2962 126.833 70.7283 128.014 69.8941C130.593 68.1334 134.557 68.0506 136.853 69.4868C140.344 71.744 135.916 77.4673 135.101 79.9295C133.635 83.0066 132.556 86.2601 132.161 89.6646C149.559 70.3349 143.069 71.1443 147.282 70.1234C153.839 69.8968 154.76 71.8356 153.157 77.3121C151.282 83.9347 146.456 92.2257 150.586 94.8195C150.474 97.3987 145.343 96.6135 144.202 95.65C140.994 93.3434 140.578 89.0716 141.001 85.3867C137.835 89.0321 135.288 93.1718 132.24 95.2363C131.006 95.9355 129.528 95.5459 128.289 94.9505C123.406 92.1846 124.126 84.6457 124.855 80.3491C116.069 88.3747 115.387 84.4483 114.171 87.5932C107.33 99.5194 98.6866 96.9864 97.0146 88.2269C96.3402 83.6896 98.1098 78.6194 102.222 76.6684C100.367 66.7799 110.943 64.7887 115.31 68.0098C119.074 71.118 117.934 76.987 116.863 81.2331" fill="black"/>
<path fill-rule="evenodd" clip-rule="evenodd" d="M126.552 33.8563C136.632 40.4391 142.083 26.1815 134.129 28.755C131.051 29.6768 128.55 31.3331 126.552 33.8563V33.8563ZM123.446 40.5855C122.651 45.3838 123.627 50.7459 129.324 50.3298C131.841 50.4634 134.118 49.4985 135.891 47.7409C138.143 47.3179 140.389 49.6196 140.145 51.8832C140.015 53.6958 138.264 55.0618 136.817 56.0038C129.716 59.943 120.79 58.0291 115.277 52.1629C111.802 49.1623 110.432 44.9301 110.283 40.3904C110.125 35.2463 111.868 30.6234 115.036 26.3179C121.665 16.8554 137.384 16.198 143.711 25.0557C147.699 30.79 144.64 37.2937 139.675 40.8975C134.869 44.2576 127.801 43.218 123.446 40.5855" fill="black"/>
<path fill-rule="evenodd" clip-rule="evenodd" d="M83.9213 82.3755C80.0527 86.7027 73.1735 95.7237 71.0249 95.7673C68.1673 96.3783 65.2858 93.9733 64.5424 91.2205C62.4777 83.7975 66.4411 76.6802 68.0631 69.6006C62.9049 72.4431 58.452 77.5954 57.3185 83.2397C56.5979 86.251 57.1161 90.6542 60.2685 91.7437C60.3952 94.5021 58.1304 96.9553 55.6133 97.8291C50.1097 99.5853 47.7284 93.2687 47.7121 89.1312C47.6616 85.3257 49.215 81.6227 51.3029 78.5088C55.8747 71.6161 66.4199 63.8025 73.8602 65.1774C77.3334 65.5259 80.1795 67.2655 79.1943 70.9628C77.1748 77.2625 73.42 82.7426 72.1783 89.2797C81.7751 80.2006 85.3387 71.065 86.4185 70.6499C88.3416 69.6414 91.1378 71.0861 92.7873 71.6392C93.6947 72.19 93.79 73.2347 94.0286 74.24C94.4092 76.8407 93.8263 79.4089 93.5518 82.016C92.9103 86.6361 92.2825 91.1084 91.4235 95.6911C88.2628 95.146 85.1614 95.2573 81.9485 95.8476C82.8792 91.3447 83.4682 86.8914 83.9213 82.3755" fill="black"/>
<path fill-rule="evenodd" clip-rule="evenodd" d="M45.6664 25.0006C48.7285 27.9785 52.1338 30.2596 56.3653 31.1091C55.8251 37.3344 60.0278 42.503 63.557 35.149C67.0797 25.5429 63.539 13.9714 59.9383 11.5681C57.8246 10.2566 55.8885 12.4798 55.3498 14.326C54.9082 15.8603 55.1636 17.5308 55.7356 19.0772C57.0826 21.6893 58.8007 22.7524 61.2305 21.3351C62.8381 21.8436 63.5605 23.8672 63.5947 25.2967C63.5356 28.0522 62.0396 29.8738 59.5861 30.4108C54.402 32.2064 46.2331 26.3255 44.715 22.56C41.341 15.9317 44.0387 7.04077 51.0885 4.48946C73.1948 -2.39223 76.8771 32.6702 67.8583 41.3882C59.6757 51.3065 47.3785 44.0302 44.9097 33.7804C44.3493 31.0319 43.8942 26.5864 45.6664 25.0006Z" fill="black"/>
<path fill-rule="evenodd" clip-rule="evenodd" d="M32.6519 56.4197C22.2663 77.48 5.1741 62.4459 14.8148 51.6725C23.5741 41.4635 47.6394 49.3547 51.1467 49.7261C56.1127 50.6654 63.6827 50.7049 65.891 46.0503C68.9445 47.257 70.0823 51.4849 69.4985 54.5177C68.7218 61.6356 60.4691 64.774 54.1659 63.8573C44.4603 62.0772 31.5192 54.858 28.8246 54.6407C25.9849 54.0311 22.8119 54.2789 20.7847 56.4363C20.1333 57.2063 19.2743 58.1296 19.4254 59.2658C21.3178 61.6805 24.051 56.1625 24.5435 54.9217C27.1367 54.2167 30.9292 55.3974 32.6519 56.4197" fill="black"/>
<path fill-rule="evenodd" clip-rule="evenodd" d="M37.3114 46.4904C33.4954 46.3332 29.714 45.9878 25.8673 46.2857C28.2818 6.44126 13.7493 9.78242 14.0404 7.72826C13.6208 6.36615 14.3015 5.08289 15.1605 3.93886C18.0917 -0.141443 24.9609 -0.942047 28.9979 1.03072C32.3287 2.90568 34.2481 6.31495 35.7752 9.71589C40.6701 21.0092 40.6088 35.7104 37.3114 46.4904" fill="black"/>
<path fill-rule="evenodd" clip-rule="evenodd" d="M63.6544 130.875C59.0629 128.752 58.3877 121.694 59.0756 117.754C61.1296 106.087 70.8547 98.5147 81.2297 96.3473C87.6596 95.0263 94.8223 95.2826 98.3245 101.193C100.481 105.432 96.8105 112.649 91.668 112.022C91.3965 103.185 80.0976 101.963 73.8363 105.105C66.2068 108.452 60.5073 118.41 64.8636 126.123C65.2933 126.596 65.1983 127.02 64.9153 127.606C64.4942 128.696 64.1056 129.705 63.6544 130.875Z" fill="black"/>
<path fill-rule="evenodd" clip-rule="evenodd" d="M27.5568 96.9964C29.0281 92.2103 33.8728 89.58 35.1493 85.9875C35.6237 84.5612 34.5802 83.1917 33.2149 83.0933C30.935 83.1314 29.2628 84.5643 27.8201 86.1623C25.9861 82.1239 26.1534 78.8658 24.9025 77.5527C21.9087 75.1198 20.3967 81.2009 20.5559 83.2151C20.5315 88.4331 23.1364 95.2668 27.5568 96.9964ZM31.0228 80.2022C39.2933 76.6676 42.4643 82.7957 39.9583 87.8243C38.7191 90.6598 36.3621 92.3948 34.1892 94.4744C31.834 96.6667 29.9989 99.0259 28.1813 101.673C21.5909 98.6412 17.7741 91.7573 17.288 84.6441C16.559 74.7061 23.9435 70.5797 28.2764 73.7376C30.0792 75.3587 30.4223 78.0357 31.0228 80.2022" fill="black"/>
<path fill-rule="evenodd" clip-rule="evenodd" d="M86.7789 113.235C84.1008 108.816 83.4534 108.641 79.1123 108.422C79.4649 106.971 79.8072 105.564 80.1617 104.105C83.0606 103.751 87.0668 104.768 88.7151 106.531C89.0529 106.865 88.6811 107.376 88.5747 107.856C87.91 109.709 87.5872 111.482 86.7789 113.235Z" fill="black"/>
<path fill-rule="evenodd" clip-rule="evenodd" d="M128.298 100.41C129.341 100.509 133.685 100.467 131.538 102.198C127.732 101.871 123.881 102.169 120.044 102.505C112.919 103.065 104.677 106.221 104.424 105.086C103.657 103.785 105.776 103.747 106.574 103.501C108.264 103.127 109.937 102.74 111.628 102.367C117.15 100.97 122.633 100.68 128.298 100.41Z" fill="black"/>
<path fill-rule="evenodd" clip-rule="evenodd" d="M7.15143 84.9884C6.89681 80.4137 9.53383 71.5519 11.2547 73.6448C11.4702 73.9672 11.4227 74.3051 11.1564 74.6987C8.92514 78.5053 8.42047 82.9078 8.77936 87.2301C9.15056 90.8324 9.32578 94.1322 10.7568 97.5578C10.8309 97.88 10.767 98.0994 10.5521 98.326C7.99593 100.441 7.06624 85.6499 7.15143 84.9884" fill="black"/>
<path fill-rule="evenodd" clip-rule="evenodd" d="M37.7111 100.708C44.0971 100.754 49.2205 105.738 52.7177 110.672C53.4917 111.95 56.6997 115.108 54.4971 115.417C53.8765 115.359 53.6953 114.709 53.3006 114.241C50.5711 110.366 48.0348 106.446 43.8076 104.137C41.4455 102.645 39.0866 102.185 36.2675 102.196C34.788 101.204 36.6569 100.448 37.7111 100.708Z" fill="black"/>
<path fill-rule="evenodd" clip-rule="evenodd" d="M104.842 141.003C104.202 140.906 104.094 140.089 103.849 139.513C102.539 135.585 101.188 131.731 99.6809 127.882C97.4951 121.664 95.1928 119.593 97.0486 119.286C98.7787 119.178 103.351 133.757 103.628 134.03C104.262 135.79 104.792 137.453 105.409 139.215C105.805 140.017 105.91 141.007 104.842 141.003" fill="black"/>
<path fill-rule="evenodd" clip-rule="evenodd" d="M12.6652 37.6265C12.4022 41.8474 6.69603 41.338 6.53613 37.5019C6.78304 33.2695 12.5166 33.8108 12.6652 37.6265Z" fill="black"/>
<path fill-rule="evenodd" clip-rule="evenodd" d="M147.732 57.9766C151.809 58.2035 151.887 63.7578 148.036 64.0654C143.819 63.9901 143.686 58.1195 147.732 57.9766" fill="black"/>
<path fill-rule="evenodd" clip-rule="evenodd" d="M0 85.9295C0.078319 84.4184 0.259454 74.016 2.53481 76.9354C2.60975 78.0119 1.94748 79.0318 1.94591 80.115C1.62889 83.8425 1.28195 87.4741 2.21489 91.1548C0.244732 93.9493 0.049236 86.7465 0 85.9295" fill="black"/>
<path fill-rule="evenodd" clip-rule="evenodd" d="M5.5568 45.4369C5.42345 48.5054 1.31575 48.6708 1.1106 45.7661C1.12882 42.624 5.38447 42.4376 5.5568 45.4369Z" fill="black"/>
<path fill-rule="evenodd" clip-rule="evenodd" d="M151.867 53.167C151.965 50.1239 155.97 49.8769 156.302 52.7136C156.394 55.9232 152.026 56.1656 151.867 53.167Z" fill="black"/>
<path fill-rule="evenodd" clip-rule="evenodd" d="M139.815 101.835C141.728 102.23 143.854 103.151 145.694 103.943C146.611 104.213 147.808 105.014 146.623 105.782C144.524 105.616 142.575 104.134 140.488 103.624C137.998 103.375 138.331 101.82 139.815 101.835" fill="black"/>
<path fill-rule="evenodd" clip-rule="evenodd" d="M34.8678 72.3855C34.6317 73.483 34.7521 77.576 33.079 76.3151C32.9273 76.1305 32.9121 75.9181 32.9901 75.5968C33.7877 73.1805 33.3616 70.5853 32.7739 68.1241C34.4282 66.0224 34.8819 71.6241 34.8678 72.3855" fill="black"/>
<path fill-rule="evenodd" clip-rule="evenodd" d="M108.567 129.785C107.847 131.993 106.589 129.353 106.243 128.406C105.937 127.477 104.98 126.469 105.492 125.69C106.832 124.187 108.162 129.137 108.567 129.785" fill="black"/>
<path fill-rule="evenodd" clip-rule="evenodd" d="M120.524 94.9363C120.361 96.0004 118.75 95.8105 117.87 96.1269C116.55 96.5607 114.828 96.5251 115.783 95.0829C116.717 94.5917 117.734 94.6261 118.683 94.3559C119.359 94.135 120.501 93.9373 120.524 94.9363" fill="black"/>
<path fill-rule="evenodd" clip-rule="evenodd" d="M38.8495 70.6584C37.4242 70.4203 38.5738 69.0987 39.1254 68.4427C39.8273 67.6566 40.1442 66.9171 40.9746 66.2562C42.8675 66.0222 41.379 67.9207 40.7833 68.5702C40.0793 69.2717 39.7878 70.3227 38.8495 70.6584Z" fill="black"/>
<path fill-rule="evenodd" clip-rule="evenodd" d="M56.6667 105.954C56.5311 107.347 55.3503 106.893 54.9095 105.973C54.4706 105.477 53.8772 105.127 53.4194 104.526C53.0571 102.821 54.842 103.516 55.4878 104.317C55.9897 104.774 56.4535 105.278 56.6667 105.954Z" fill="black"/>
<path fill-rule="evenodd" clip-rule="evenodd" d="M38.6639 73.8304C39.8117 73.7534 42.9176 74.8747 41.426 76.0079C40.5153 76.1948 39.8272 75.0651 38.8173 75.2224C36.9705 75.5533 37.0499 73.7617 38.6639 73.8304Z" fill="black"/>
<path fill-rule="evenodd" clip-rule="evenodd" d="M156.439 44.1023C156.337 45.8539 153.912 45.7739 153.77 44.1963C153.726 42.2664 156.434 42.3411 156.439 44.1023Z" fill="black"/>
<path fill-rule="evenodd" clip-rule="evenodd" d="M3.64194 54.4746C3.56229 56.3181 1.02049 56.1752 0.96582 54.513C1.0655 52.6993 3.58221 52.771 3.64194 54.4746Z" fill="black"/>
</svg>
