<svg width="153" height="147" viewBox="0 0 153 147" fill="none" xmlns="http://www.w3.org/2000/svg">
<path fill-rule="evenodd" clip-rule="evenodd" d="M4.79368 58.8239C3.62732 58.355 2.22264 58.3005 0.701834 58.6484C0.527133 58.9378 0.236301 59.0578 0 59.2353C1.71874 71.2961 0.0131278 85.1963 1.5198 95.0144C1.28754 95.4248 1.16939 95.9492 0.995695 96.4756C4.0565 96.7398 2.86691 96.4252 4.26755 97C4.57151 96.764 4.97242 96.8195 5.3814 96.876C5.68031 96.9183 5.98427 96.9587 6.25692 96.884C6.49019 96.5351 6.6649 96.1247 7.01531 95.8938C7.24959 96.0107 7.6 96.1247 7.83529 95.8353C8.15036 96.4363 8.34829 96.3596 8.56035 96.282C8.66133 96.2467 8.76434 96.2104 8.88653 96.2457C9.17938 95.5408 9.23593 94.49 9.64592 93.8517C9.32681 87.0085 9.54898 85.1651 9.64592 83.5778C15.5373 84.0497 17.8407 81.7687 17.5963 78.3804C16.1422 78.816 14.5083 78.7323 12.8067 78.6486C11.7696 78.5972 10.7073 78.5457 9.64592 78.6123C9.89838 72.0565 9.81052 68.6833 9.82163 63.9003C10.9112 63.8005 12.0786 63.8317 13.1965 63.863C15.7514 63.9336 18.0417 64.0042 18.5314 62.5016C18.7071 62.5561 18.8829 62.4421 19 62.3867C18.2396 62.0307 19.0586 61.2764 18.6486 60.5765C18.7071 60.3416 18.9414 60.2831 18.9414 60.1066C18.6486 59.9927 18.591 59.6377 18.591 59.4693C16.226 58.3429 14.1649 58 12.2796 58C9.5409 58 7.17486 58.7241 4.79368 58.8239" fill="black"/>
<path fill-rule="evenodd" clip-rule="evenodd" d="M23.7502 59.7316C28.1084 66.1061 20.3586 80.2693 19.8862 87.0394C18.9046 87.2095 18.6723 87.6704 17.6927 87.6704C17.6358 88.1263 17.9807 88.0719 17.9807 88.416C17.8282 88.5347 17.6757 88.5109 17.5412 88.4892C17.4206 88.4684 17.3129 88.4467 17.2302 88.5278C17.2302 88.8165 18.1531 88.8709 18.6155 89.1013C16.7309 89.3584 19.3162 90.2791 19.1926 90.4146C18.4431 92.7613 17.8641 95.6835 17 96.889C20.7782 97.6406 22.4117 94.4622 23.5778 90.7627C25.5401 90.4739 27.8463 90.7034 29.6921 90.7627C30.0927 93.3754 30.9867 94.926 31.8289 96.084C32.5205 96.3135 33.5002 96.1978 33.6726 95.5688C33.9268 95.6331 34.3214 95.6113 34.736 95.5906C35.4506 95.553 36.225 95.5164 36.4423 95.9139C37.3083 95.1129 37.7698 94.1972 38 92.9393C37.2505 81.4254 35.4496 69.7364 31.7681 60.1341C30.5223 58.5429 29.2027 58.5953 28.7104 58.2472C28.1593 58.0722 27.635 58 27.1477 58C25.0966 58 23.7093 59.2935 23.7502 59.7316V59.7316ZM27.3291 76.107C27.8463 78.2243 28.538 82.976 29.115 86.2394C27.4417 86.2394 26.174 86.3531 24.6153 86.4659C25.5401 82.976 26.5198 79.6542 27.3291 76.107" fill="black"/>
<path fill-rule="evenodd" clip-rule="evenodd" d="M37.8423 58.9148C37.7299 58.8035 37.6156 58.741 37.5022 58.6834C36.5052 60.4166 37.3057 60.804 37.2754 60.9867C37.163 61.1 37.163 61.5568 37.2188 61.8479C38.5217 62.8242 40.3309 62.5958 42.2544 62.7676C43.009 73.7858 41.4666 85.0245 42.4235 93.7016C42.3111 93.8138 42.2544 93.9906 42.3111 94.2181C42.8771 94.68 43.1038 95.5421 43.7255 96C44.0646 95.7735 44.6315 95.5957 45.0284 95.7735C45.1408 95.4835 45.3666 95.257 45.7057 95.0832C53.3032 97.1293 48.2324 72.9217 49.894 63.1133C51.7022 62.9991 53.8535 62.8819 54.4781 61.5569C54.8153 61.6155 54.8153 61.3304 54.9864 61.0414C54.5319 61.0414 55.2112 60.4663 54.9287 60.2398C54.872 60.2934 54.6472 60.4096 54.6472 60.2398C54.9805 59.5237 54.1214 59.3041 54.4195 58.8035C53.9591 58.9347 54.006 58.7499 54.1116 58.5652C54.1956 58.4192 54.3178 58.2712 54.2504 58.2841C52.0629 58.1043 50.0514 58 48.0447 58C44.8603 58 41.6875 58.2642 37.8423 58.9148" fill="black"/>
<path fill-rule="evenodd" clip-rule="evenodd" d="M72.0759 58.5725C72.8587 66.5257 71.5274 75.3555 71.905 80.8557C70.1892 80.7441 67.7867 80.6859 66.0699 80.6859C67.1017 73.0259 67.3557 53.5323 56 59.3158C56.0573 60.1154 56.7432 59.9999 57.1435 60.4017C56.7432 60.5744 56.2866 60.5744 56.1137 60.915C61.3527 64.8496 51.9459 98.0808 62.8075 95.8885C63.0368 95.5449 63.4371 95.314 63.7227 94.9152C68.6 93.8086 65.1775 86.3658 65.9543 85.0884C68.4795 85.1664 69.5073 85.0776 70.2169 84.9877C70.7971 84.9147 71.1647 84.8416 71.9603 84.8594C71.9969 87.419 71.9949 93.239 73.2224 95.6585C73.5634 95.7749 73.849 95.8302 74.2522 96C74.4785 95.9427 74.3066 95.6002 74.5368 95.5449C75.2227 96.1718 76.1389 95.8885 76.9948 95.6002C80.3462 97.8854 81.376 87.5315 80.8838 77.1787C80.4154 67.3124 78.5652 57.4482 76.0243 58.5153C75.1071 58.1165 73.849 58.1165 72.7065 58C72.9921 58.461 72.3052 58.2853 72.0759 58.5725" fill="black"/>
<path fill-rule="evenodd" clip-rule="evenodd" d="M82 58.2617C82 58.9618 82.4746 59.1386 82.7715 59.5498C82.5342 59.7236 82.2352 59.8398 82 59.958C86.0937 67.5728 80.3122 88.9643 84.974 96.0426C85.0911 95.8083 83.96 94.5231 84.2579 94.1725C86.4912 99.3656 97.4902 96.0123 99.5417 94.9929C101.139 91.3638 97.48 91.5891 94.5717 91.8134C92.9671 91.9387 91.5906 92.063 91.455 91.5386C91.6327 85.5959 91.2352 81.0313 91.3954 77.2719C98.0686 77.8478 99.2756 76.4828 98.7692 73.0599C97.2653 72.9629 95.9308 73.0306 94.6508 73.0982C93.6503 73.1508 92.6816 73.2033 91.6913 73.177C91.9882 70.0158 92.0488 65.5724 91.455 62.2979C96.39 62.604 103.035 60.2136 98.4723 58.8477C97.5796 58.1758 94.6467 58.2991 91.8793 58.4243C90.0435 58.5062 88.2797 58.588 87.2329 58.4375C86.5785 58.1162 85.6715 58 84.7274 58C83.7833 58 82.8023 58.1162 82 58.2617" fill="black"/>
<path fill-rule="evenodd" clip-rule="evenodd" d="M101.46 58.8518C101.46 58.8518 101.345 58.6218 101 58.6793C101.083 60.4464 101.387 60.8926 101.746 61.088C101.46 61.206 101.231 61.206 101.231 61.5491C101.646 61.7286 101.877 61.6909 102.05 61.6532C102.212 61.6175 102.324 61.5828 102.491 61.7216C103.592 65.9054 98.0855 95.1619 105.069 95.9364C105.2 96.0663 105.274 95.9721 105.357 95.8769C105.42 95.8065 105.485 95.7361 105.584 95.7589C112.191 97.1046 109.904 89.7009 110.111 86.7518C112.873 91.8131 120.849 101.003 123 91.9173C120.824 91.3956 120.565 90.5765 119.735 90.3633C119.678 90.5399 120.191 90.998 120.191 91.4551C119.905 90.9385 119.105 90.6529 119.161 90.0252C119.361 88.7817 114.37 84.0089 114.12 82.6731C120.691 75.3052 127.855 64.5012 116.753 59.2564C116.298 58.5077 115.553 58.7338 114.693 58.5077C111.768 58.2082 109.34 58 107.241 58C105.003 58 103.142 58.237 101.46 58.8518V58.8518ZM110.51 65.7943C110.568 64.651 110.396 63.2706 110.625 62.2918C119.99 63.0673 112.287 76.3772 110.34 78.768C110.34 76.1888 110.34 73.431 110.51 65.7943ZM115.781 86.0061C116.011 86.0061 118.589 89.0464 118.589 89.218C118.303 89.218 115.781 86.2302 115.781 86.0061ZM118.704 89.4451C118.818 89.333 119.046 89.6751 119.046 89.8487C119.046 89.8864 119.037 89.9022 119.022 89.9022C118.942 89.9022 118.704 89.4937 118.704 89.4451ZM117.844 89.6206C118.246 90.0252 118.704 90.3633 118.934 90.998C118.416 90.7124 117.731 89.7337 117.844 89.6206ZM119.046 91.1686C119.161 91.1101 119.564 91.5127 119.449 91.6257C119.444 91.6307 119.437 91.6327 119.428 91.6327C119.322 91.6327 118.942 91.3272 119.046 91.1686V91.1686ZM120.423 91.5127C120.594 91.5127 121.626 92.3744 121.798 92.775C121.785 92.7879 121.767 92.7949 121.745 92.7949C121.482 92.7949 120.634 91.8865 120.423 91.5127ZM119.619 91.8022C120.079 91.9718 120.479 92.4904 120.708 92.9496C120.698 92.9644 120.682 92.9714 120.662 92.9714C120.457 92.9714 119.776 92.2197 119.619 91.8022" fill="black"/>
<path fill-rule="evenodd" clip-rule="evenodd" d="M124.581 68.9893C131.185 69.3861 135.384 58.614 131.523 53.6753C130.088 53.2094 128.915 53 127.957 53C120.553 53.001 126.107 65.5245 124.581 68.9893Z" fill="black"/>
<path fill-rule="evenodd" clip-rule="evenodd" d="M147.685 57.0733C146.637 58.0592 147.8 59.278 146.637 60.3252C145.027 57.1928 140.634 57.1004 140.828 58.2329C123.049 69.3741 152.403 82.8537 144.138 92.5823C141.203 89.0985 142.645 81.2262 136.648 81.9461C127.744 103.443 168.034 100.051 146.667 73.3309C143.967 69.4876 143.898 65.7467 146.694 64.2769C146.81 66.0791 146.579 68.1121 147.623 69.5639C148.518 72.3409 148.771 70.9123 149.889 70.5538C150.005 70.6693 149.947 71.0217 150.237 70.9625C150.413 70.7878 150.295 70.4364 150.413 70.2065C150.645 70.2065 150.645 70.3209 150.762 70.3811C150.762 70.0328 151.283 69.4504 151.574 69.8601C153.295 62.6846 151.424 62.5651 151.748 60.3824C151.288 58.2881 150.287 57 148.47 57C148.223 57.001 147.961 57.0241 147.685 57.0733" fill="black"/>
<path fill-rule="evenodd" clip-rule="evenodd" d="M48.9649 19.1507C44.9035 19.5119 40.9767 21.1918 38.1844 22.6649C38.6024 -1.28748 32.2098 -3.60756 34.8052 24.2354C29.5742 26.4089 27.3888 24.1069 27.645 21.8029C27.8349 20.099 29.3622 18.396 31.9827 18.5044C27.4812 15.3735 24.702 18.5425 25.0255 21.7106C25.3259 24.6347 28.269 27.5589 34.9429 25.5299C35.1197 54.6151 42.3754 59.5131 38.323 23.9574C41.9212 21.8109 45.9203 20.7131 48.9649 20.3488C47.9641 50.7366 54.1306 55.736 52.4345 20.0749C54.426 20.0749 56.4617 20.2124 58.4984 20.5365C60.2669 18.972 56.9812 18.9781 54.5054 18.9851C53.6242 18.9861 52.8454 18.9891 52.4345 18.9199C52.3139 11.9958 53.2353 5.12082 53.1197 0.967367C52.2697 0.300044 51.5814 0 51.0257 0C47.3924 0.00100349 49.407 12.7955 48.9649 19.1507" fill="black"/>
<path fill-rule="evenodd" clip-rule="evenodd" d="M66.5068 29.1284C58.8382 46.6496 53.9668 32.3632 65.5129 27.9514C59.9461 26.2973 56.9859 29.9581 56.209 33.6209C55.0304 39.185 58.8942 44.7482 66.3271 31.6684C66.8653 61.0954 73.0302 37.6995 77 27.6664C75.3372 25.3952 71.4028 41.9324 69.6958 43.4936C68.257 42.0969 70.2488 25.999 68.4888 26C68.0713 26 67.4428 26.9062 66.5068 29.1284Z" fill="black"/>
<path fill-rule="evenodd" clip-rule="evenodd" d="M76.0976 52C80.2026 8.15865 94.229 36.7232 80.0826 37.1296C84.0794 42.3871 89.9035 36.4709 93 27.4616C90.5185 28.0282 87.4564 38.6622 84.8892 37.8804C93.9977 29.5948 83.6347 17.9568 78.0901 33.3607C79.1341 25.9651 78.9638 22.999 78.342 23C76.9221 23.002 73.1477 38.474 76.0976 52" fill="black"/>
<path fill-rule="evenodd" clip-rule="evenodd" d="M91.0974 51.9625C95.6584 52.9412 88.9237 34.495 96.9573 28.3436C101.828 24.6536 101.936 32.3676 99.6614 35.8887C98.6085 37.5052 96.8559 37.4912 95.8916 37.4772C95.0552 37.4652 94.8101 37.4523 96.1267 38.503C102.642 39.9836 104.399 35.7887 108 27.4558C105.519 28.0227 102.457 38.6449 99.8867 37.8611C109.003 29.5913 98.635 17.9613 93.091 33.3473C94.1341 25.9612 93.9629 22.999 93.341 23C91.921 23.002 88.1483 38.454 91.0974 51.9625" fill="black"/>
<path fill-rule="evenodd" clip-rule="evenodd" d="M115.485 27.9845C113.383 33.5591 111.032 39.1358 109.842 25.3492C104.235 35.7431 112.89 42.4163 116.377 28.8367C117.028 28.8155 116.549 34.3396 116.963 37.394C95.8783 55.9464 120.128 67.8801 119.619 37.1163C125.508 35.4796 125.753 37.5858 125.107 39.6921C124.29 42.3517 122.051 45.0112 127.949 40.1364C128.652 35.5321 121.925 35.1949 119.619 36.1369C119.742 25.4663 119.256 21.999 118.432 22C117.668 22 116.613 24.9928 115.485 27.9845V27.9845ZM109.971 48.6623C112.256 41.6903 114.896 40.6554 117.008 38.5077C118.389 43.2362 113.695 53.8785 111.285 53.8775C110.394 53.8775 109.814 52.4185 109.971 48.6623" fill="black"/>
<path fill-rule="evenodd" clip-rule="evenodd" d="M53.4123 109.629C56.4874 108.896 59.4133 108.605 62.1959 108.7C62.683 112.916 62.9271 120.272 63.0744 126.296C58.3079 125.767 57.3568 121.176 56.5348 122.375C56.5348 129.189 60.0487 132.03 63.27 133.158C63.3184 134.627 63.3678 135.661 63.4152 136C63.5615 136 63.857 135.411 63.857 135.411L64.3915 135.558L64.8807 134.384L65.7602 134.436L66.0516 133.796C71.511 134.123 85.4513 132.616 85.9606 120.272C86.9016 107.118 70.7576 100.999 60.088 101C52.6438 101.001 47.8632 103.981 53.4123 109.629V109.629ZM68.9795 109.582C86.6354 114.552 85.3 123.741 68.3945 126.785C68.5892 122.769 68.9311 114.973 68.9795 109.582ZM67.5151 120.998V126.785C67.3083 126.857 67.2084 126.831 67.154 126.805C67.1126 126.785 67.0945 126.766 67.0753 126.785L67.5151 120.998Z" fill="black"/>
<path fill-rule="evenodd" clip-rule="evenodd" d="M96.0681 102.422C94.3447 101.936 92.4745 102.176 92.4745 102.176C92.761 104.502 90.7957 113.819 88.9722 122.134C87.1754 122.129 86.3171 123.804 86.1229 125.48C85.9158 127.266 86.4628 129.053 87.438 128.8C86.6224 132.571 86 135.422 86 136C87.5678 135.797 87.9781 133.947 88.878 134.356L90.7957 128.703L89.9305 133.39C91.9572 131.19 91.9998 130.302 92.8095 128.223C97.7886 127.434 99.0591 128.055 101.2 127.253C103.61 137.967 109.437 137.049 107.672 130.153C103.621 119.111 107.164 100.999 100.182 101C99.0908 101 97.743 101.442 96.0681 102.422V102.422ZM95.0632 121.843C95.9739 119.233 96.8847 116.334 97.6042 113.677C98.181 116.483 98.8975 119.381 99.6656 122.134C98.2276 121.987 96.6449 121.894 95.0632 121.843Z" fill="black"/>
<path fill-rule="evenodd" clip-rule="evenodd" d="M109 103.344C111.337 108.364 111.776 156.892 125.036 121.885C124.221 124.934 125.972 152.146 131.263 146.136C131.52 145.278 131.328 141.375 131.508 142.907C131.894 139.369 131.257 138.307 131.067 134.885C131.235 136.017 131.564 138.227 131.771 139.57C131.002 130.485 135.295 104.544 136 105.592C130.255 90.1579 120.353 119.56 117.789 121.289C118.401 109.981 116.944 100.999 112.994 101C111.869 101 110.54 101.73 109 103.344" fill="black"/>
<path fill-rule="evenodd" clip-rule="evenodd" d="M6 118.276C10.8299 137.189 26.1807 149.496 37.8012 126.502C42.7867 118.775 41.6434 108.558 36.4558 107.518C32.4393 105.859 23.5453 113.404 27.5202 116.032C36.114 98.9791 49.4247 117.883 25.2157 137.657C20.7602 137.885 4.64267 118.022 13.9993 111.013C18.0495 106.911 21.1526 110.396 23.1668 113.881C25.4772 117.877 26.357 121.872 25.5991 114.44C24.2031 109.552 20.0192 107 15.8739 107C10.926 107 6.0317 110.636 6 118.276" fill="black"/>
</svg>
