<svg width="180" height="216" viewBox="0 0 180 216" fill="none" xmlns="http://www.w3.org/2000/svg">
<path fill-rule="evenodd" clip-rule="evenodd" d="M44.099 55.1842C46.067 55.1272 46.07 52.1832 44.099 52.1252C40.012 52.0062 35.893 52.1622 31.819 52.4892C30.321 52.6102 30.318 54.7002 31.819 54.8202C32.974 54.9142 34.134 54.9882 35.295 55.0512C35.524 67.3142 35.763 79.5762 36.014 91.8382C36.139 97.9132 36.264 103.987 36.388 110.061C36.448 112.953 36.486 115.847 36.567 118.739C36.581 119.275 36.566 119.791 36.597 120.278C35.148 120.136 33.699 119.953 32.228 119.698C30.473 119.394 29.715 121.882 31.48 122.41C35.23 123.533 39.324 123.927 43.223 123.624C45.175 123.472 45.231 120.493 43.223 120.54C42.201 120.564 41.194 120.555 40.194 120.523C40.05 120.158 39.799 119.9 39.485 119.753C39.188 118.145 39.604 114.505 39.584 113.532C39.526 110.64 39.469 107.747 39.411 104.855C39.301 99.3592 39.191 93.8632 39.081 88.3672C38.86 77.3042 38.624 66.2412 38.382 55.1782C40.289 55.2312 42.198 55.2402 44.099 55.1842" fill="black"/>
<path fill-rule="evenodd" clip-rule="evenodd" d="M79.4711 123.575C78.4791 122.744 79.0051 120.501 79.0401 119.414C79.1411 116.256 79.2431 113.098 79.3441 109.941L79.9811 90.1331C80.4051 76.9321 80.9451 63.7261 81.1451 50.5191C81.1731 48.6371 78.3261 48.6561 78.2341 50.5191C77.4551 66.2951 77.1031 82.0981 76.5921 97.8841C76.3421 105.63 75.9461 113.387 75.8411 121.136C75.7561 127.379 78.8251 126.764 84.4461 126.594C86.4481 126.534 86.4611 123.442 84.4461 123.473C83.8971 123.482 79.8631 123.903 79.4711 123.575V123.575Z" fill="black"/>
<path fill-rule="evenodd" clip-rule="evenodd" d="M113.13 81.2631C110.326 88.5011 107.898 95.8711 105.91 103.376C104.916 107.13 104.028 110.911 103.249 114.716C102.934 116.249 102.435 117.891 102.142 119.526C99.0831 106.506 95.7791 93.6571 93.8441 80.3671C93.2691 76.4191 92.7371 72.4521 92.3651 68.4791C91.9861 64.4231 91.0551 59.2451 94.1331 56.2491C99.2371 51.2811 101.216 60.6841 101.162 64.4541C101.114 67.7321 100.843 70.7941 101.598 74.0251C102.055 75.9761 104.972 75.1411 104.584 73.2021C104.275 71.6581 104.236 69.8791 104.253 68.0161C104.556 65.8531 105.038 63.7141 105.732 61.6621C107.324 56.9531 112.842 50.2901 116.963 57.2201C121.007 64.0221 115.628 74.8151 113.13 81.2631ZM121.242 61.3421C120.819 55.4191 115.795 48.7621 109.236 51.7961C106.592 53.0181 104.806 55.2621 103.625 57.9441C102.924 55.4881 101.518 53.4281 98.7391 52.2321C91.3211 49.0381 88.9901 57.0071 88.9151 62.6711C88.7841 72.5631 90.9041 82.9191 92.6941 92.6131C94.6311 103.098 96.8391 113.807 100.457 123.857C100.899 125.083 102.41 124.984 102.885 124.099C103.065 124.172 103.254 124.217 103.433 124.221C103.563 124.224 103.693 124.226 103.823 124.229C104.289 124.24 104.862 123.957 105.065 123.517C105.132 123.372 105.199 123.227 105.266 123.082C105.526 122.521 105.466 121.754 105.014 121.329C105.45 116.466 107.151 111.26 108.318 106.628C109.672 101.249 111.246 95.9241 113.032 90.6731C116.195 81.3711 121.965 71.4621 121.242 61.3421V61.3421Z" fill="black"/>
<path fill-rule="evenodd" clip-rule="evenodd" d="M139.729 52.4671C138.728 64.0211 137.88 75.5911 136.962 87.1521C136.526 92.6441 136.09 98.1361 135.654 103.628C135.425 106.518 135.195 109.409 134.966 112.299C134.839 113.894 134.962 116.776 134.476 119.111C133.252 108.377 132.101 97.6351 131.067 86.8801C129.932 75.0881 129.551 63.0271 127.618 51.3371C127.393 49.9771 125.281 50.3451 125.267 51.6551C125.14 63.6361 126.876 75.8241 128.025 87.7391C129.184 99.7561 130.469 111.761 131.862 123.753C131.994 124.891 133.101 125.758 134.218 125.105C137.835 122.991 137.597 118.615 137.892 114.9L139.549 94.0891C140.653 80.2161 141.845 66.3471 142.85 52.4671C142.995 50.4561 139.901 50.4841 139.729 52.4671" fill="black"/>
<path fill-rule="evenodd" clip-rule="evenodd" d="M152.714 68.4489C153.012 65.8599 153.38 63.4379 153.817 60.8689C154.014 59.7169 154.184 55.7289 155.236 54.9729C156.81 55.2909 158.383 55.6479 159.957 55.9659C160.439 56.9349 160.794 57.9629 161.023 59.0109C161.307 60.0249 161.502 61.0809 161.714 62.1109C162.193 64.4319 162.591 66.7699 162.916 69.1169C164.163 78.1389 164.196 86.9259 163.242 95.9699C159.499 95.3889 155.758 94.9999 152 93.9999H151.997C151.5 85.9999 151.727 77.0269 152.714 68.4489V68.4489ZM166.671 74.5649C166.139 68.3829 165.837 59.9089 162.669 54.4209C160.822 51.2219 156.315 49.2909 153.378 52.3029C151.792 53.9279 151.469 56.4649 151.077 58.5719C150.449 61.9479 149.966 65.3569 149.576 68.7679C147.877 83.6479 148.421 98.7629 151.115 113.493C151.788 117.174 152.386 124.165 157.247 124.942C161.596 125.638 163.446 120.706 163.705 117.272C163.798 116.048 162.07 115.986 161.694 117C161.421 117.738 161.052 119.459 160.45 119.899C158.959 120.015 157.468 120.131 155.977 120.247C155.769 119.684 155.561 119.122 155.353 118.559C154.705 116.393 154.386 114.072 153.993 111.848C153.166 107.181 152.579 102.474 152.208 97.7479C156.193 98.4469 160.208 98.9949 164.207 99.6029C165.304 99.7689 166.065 99.1849 166.197 98.0859C167.136 90.2679 167.347 82.4149 166.671 74.5649V74.5649Z" fill="black"/>
<path fill-rule="evenodd" clip-rule="evenodd" d="M47.816 183.714C47.546 178.618 48.199 166.787 41.881 164.424C34.713 161.742 32.479 173.429 31.812 177.914C31.714 178.572 31.636 179.235 31.549 179.895L31.543 179.842C31.069 175.978 31.073 162.813 24.469 163.484C18.49 164.092 18.47 177.068 18.404 181.21C18.242 191.452 18.551 201.875 19.25 212.092C19.334 213.319 21.135 213.342 21.175 212.092C21.407 204.731 21.25 197.353 21.253 189.988C21.255 186.807 21.21 183.619 21.357 180.44C21.492 177.51 21.351 172.069 23.155 169.602C26.929 164.44 27.809 175.364 28.026 176.912C28.552 180.672 28.96 184.451 29.256 188.236C29.827 195.534 29.956 202.843 29.73 210.158C29.677 212.173 32.797 212.169 32.859 210.158C33.054 202.647 33.416 195.144 33.983 187.652C34.263 183.955 34.495 180.215 35.192 176.568C35.566 174.613 38.773 162.885 42.698 169.571C44.332 172.354 44.148 176.453 44.41 179.558C44.736 183.432 44.894 187.321 44.884 191.209C44.868 197.649 44.36 204.056 43.431 210.419C43.361 210.54 43.305 210.679 43.275 210.848C43.031 212.222 42.926 213.023 42.813 214.417C42.671 216.151 45.58 216.571 45.878 214.832C47.64 204.549 48.368 194.14 47.816 183.714" fill="black"/>
<path fill-rule="evenodd" clip-rule="evenodd" d="M64.369 165.925C64.394 164.707 62.466 164.039 61.933 165.265C59.733 170.329 63.723 176.618 60.3 181.243C57.198 185.434 54.124 180.663 53.384 177.515C52.446 173.523 52.821 169.328 53.654 165.367C53.916 164.121 52.198 163.667 51.763 164.846C49.885 169.936 48.371 183.456 55.491 185.723C55.303 189.831 55.417 193.947 55.514 198.057C55.621 202.604 55.034 207.864 55.914 212.318C56.197 213.746 56.727 215.274 58.472 215.243C59.81 215.22 60.568 214.222 60.516 212.945C60.462 211.588 58.587 211.333 58.166 212.627C58.505 211.586 58.749 211.353 58.831 210.071C58.903 208.947 58.771 207.765 58.739 206.639C58.666 204.064 58.585 201.49 58.508 198.915C58.379 194.624 58.282 190.321 57.873 186.045C67.188 185.868 64.261 171.29 64.369 165.925" fill="black"/>
<path fill-rule="evenodd" clip-rule="evenodd" d="M104.639 200.536C103.931 202.626 102.99 204.632 101.834 206.511C101.173 207.595 100.441 208.631 99.639 209.617C99.079 210.045 98.717 210.549 98.546 211.128L98.369 211.057C97.971 210.981 97.595 211.013 97.262 211.122C97.464 209.393 97.454 206.395 97.446 206.138C97.39 204.405 97.318 202.673 97.253 200.941C97.114 197.188 96.954 193.435 96.795 189.683C96.508 182.892 96.222 176.102 95.935 169.312C101.555 174.18 105.34 181.009 106.071 188.498C106.466 192.555 105.944 196.68 104.639 200.536V200.536ZM95.105 165.075C94.233 164.456 92.926 165.281 92.972 166.3C93.387 175.538 93.802 184.775 94.217 194.013C94.425 198.632 94.623 203.254 94.906 207.87C95.021 209.749 94.642 212.059 96.19 213.239C96.316 213.799 96.626 214.307 97.237 214.455C100.852 215.333 103.783 209.455 105.205 206.857C107.791 202.132 109.217 196.692 109.19 191.299C109.137 180.728 103.627 171.128 95.105 165.075V165.075Z" fill="black"/>
<path fill-rule="evenodd" clip-rule="evenodd" d="M120.323 201.322C119.044 201.35 117.766 201.387 116.488 201.424C116.893 192.073 117.32 182.732 118.027 173.393C120.885 182.42 121.868 191.78 122.433 201.221C121.723 201.24 121.008 201.307 120.323 201.322V201.322ZM126.034 209.403C125.699 194.555 124.306 179.461 118.392 165.719C117.732 164.186 115.676 165.171 115.557 166.487C114.167 181.881 113.114 197.478 113.59 212.942C113.637 214.485 115.912 214.479 115.983 212.942C116.129 209.761 116.265 206.583 116.402 203.406C117.709 203.445 119.016 203.483 120.323 203.511C121.058 203.528 121.818 203.603 122.569 203.616C122.735 206.725 122.87 209.841 123.024 212.955C123.106 214.625 125.615 215.116 126.044 213.363C126.277 212.491 126.472 211.611 126.63 210.722C126.742 210.156 126.451 209.663 126.034 209.403Z" fill="black"/>
<path fill-rule="evenodd" clip-rule="evenodd" d="M133.438 212.076C133.548 204.453 132.94 196.778 132.519 189.177C132.126 182.073 132.214 174.678 131.251 167.601C136.723 173.574 140.326 180.963 140.795 189.188C141.305 198.136 137.755 204.705 133.438 212.076ZM143.712 188.492C142.963 179.262 138.418 170.578 131.276 164.7C130.631 164.17 129.82 164.545 129.595 165.129C129.049 165.265 128.551 165.7 128.52 166.339C128.135 174.4 129.272 182.812 129.748 190.868C130.203 198.557 130.477 206.324 131.559 213.956C131.699 214.947 133.09 214.763 133.356 213.947C133.817 214.461 134.668 214.648 135.299 214.063C141.828 208.005 144.41 197.091 143.712 188.492V188.492Z" fill="black"/>
<path fill-rule="evenodd" clip-rule="evenodd" d="M159.724 190.033C159.51 197.394 157.188 204.541 152.977 210.525C152.579 210.352 152.079 210.373 151.665 210.709L151.604 210.765C152.46 195.895 151.944 180.992 150.327 166.189C154.529 166.527 157.253 174.914 158.152 177.949C159.313 181.87 159.844 185.945 159.724 190.033V190.033ZM162.611 185.607C162.079 179.594 158.345 162.521 149.611 163.865C148.687 163.141 147.032 163.483 147.187 164.934C148.871 180.683 149.383 196.466 149.057 212.297C149.041 213.096 149.632 213.489 150.239 213.486C150.259 213.873 150.338 214.289 150.478 214.75C150.796 215.797 152.291 216.368 153.085 215.438C160.137 207.184 163.57 196.44 162.611 185.607Z" fill="black"/>
<path fill-rule="evenodd" clip-rule="evenodd" d="M176.562 164.736C175.663 164.227 174.48 165.072 174.786 166.101C175.354 168.015 176.455 169.525 176.052 171.638C175.638 173.813 173.96 175.358 171.781 175.67C167.297 176.313 164.568 170.965 167.669 167.674C168.597 166.689 167.199 165.318 166.195 166.2C161.472 170.349 164.443 177.788 170.137 178.589C169.349 184.247 169.341 190.02 169.292 195.721C169.241 201.584 168.422 208.315 169.846 214.015C170.107 215.058 171.802 215.123 172.023 214.015C173.126 208.471 172.217 202.231 172.229 196.577C172.242 190.597 172.55 184.556 172.117 178.583C175.002 178.237 177.518 176.443 178.588 173.684C179.661 170.918 179.439 166.366 176.562 164.736" fill="black"/>
<path fill-rule="evenodd" clip-rule="evenodd" d="M20.699 49.897C16.552 45.459 11.199 41.833 6.17104 38.238C9.96904 37.914 13.733 38.095 17.56 38.807C18.744 39.028 19.58 37.949 19.298 36.845C16.718 26.731 14.655 16.514 13.103 6.19802C20.519 12.884 27.935 19.569 35.351 26.255C36.224 27.042 37.576 26.54 37.842 25.438C38.856 21.232 40.182 17.164 41.829 13.197C43.735 21.199 45.492 29.234 47.073 37.307C37.791 37.164 26.968 43.664 20.699 49.897V49.897ZM50.124 37.281C48.209 27.485 46.07 17.74 43.693 8.04602C43.38 6.77002 41.45 6.72102 40.915 7.84002C38.673 12.53 36.884 17.348 35.524 22.341C27.691 15.28 19.859 8.21902 12.026 1.15702C11.1 0.322017 9.32204 1.03602 9.50604 2.37902C11.036 13.525 13.159 24.562 15.857 35.481C11.289 34.861 6.77504 34.932 2.17104 35.745C1.05604 35.941 0.121039 37.498 1.26804 38.347C7.31204 42.823 13.455 48.332 20.282 51.569C20.472 51.659 20.647 51.668 20.801 51.629C21.135 51.882 21.584 51.957 21.983 51.644C26.039 48.468 30.119 45.645 34.859 43.554C39.278 41.605 44.02 41.14 48.456 39.465C48.766 39.348 48.974 39.078 49.084 38.773C49.755 38.658 50.295 38.154 50.124 37.281V37.281Z" fill="black"/>
<path fill-rule="evenodd" clip-rule="evenodd" d="M21.921 33.4438L19.26 24.8118C19.025 24.0468 17.823 24.4468 18.08 25.2098C19.04 28.0618 20.001 30.9148 20.962 33.7668C21.171 34.3848 22.113 34.0668 21.921 33.4438Z" fill="black"/>
<path fill-rule="evenodd" clip-rule="evenodd" d="M22.469 25.6029C22.064 23.6809 21.551 21.7859 21.005 19.8999C20.842 19.3379 20.017 19.6309 20.151 20.1879C20.613 22.0939 21.107 23.9919 21.709 25.8589C21.871 26.3619 22.573 26.0949 22.469 25.6029" fill="black"/>
<path fill-rule="evenodd" clip-rule="evenodd" d="M43.503 31.8883C43.217 29.6573 42.612 27.4523 42.121 25.2593C42.04 24.8953 41.405 25.0153 41.473 25.3873C41.88 27.5973 42.184 29.8633 42.795 32.0283C42.905 32.4203 43.555 32.3003 43.503 31.8883Z" fill="black"/>
<path fill-rule="evenodd" clip-rule="evenodd" d="M23.719 41.8792C22.306 42.7442 20.942 43.6742 19.575 44.6092C19.077 44.9502 19.579 45.7152 20.09 45.3932C21.491 44.5092 22.886 43.6272 24.241 42.6732C24.741 42.3202 24.241 41.5602 23.719 41.8792" fill="black"/>
</svg>
