<svg width="240" height="204" viewBox="0 0 240 204" fill="none" xmlns="http://www.w3.org/2000/svg">
<path fill-rule="evenodd" clip-rule="evenodd" d="M196.93 32.3428C192.125 25.1306 160.678 29.6477 124.273 38.8356C105.131 15.038 89.0517 -2.04512 84.8717 0.19776C80.409 2.59299 71.5731 26.4011 63.3498 57.0487C26.4818 69.7813 -2.79736 83.3792 0.213073 89.8068C2.589 94.8804 23.232 104.305 50.591 114.687C43.5988 155.165 41.6896 193.258 53.5281 203.651C58.0897 207.656 90.5712 176.643 123.547 139.805C164.797 152.881 201.435 162.77 205.462 161.244C209.609 159.673 189.214 127.084 163.996 91.6122C186.053 63.2621 201.323 38.937 196.93 32.3428V32.3428Z" fill="#F9F2D4"/>
<path fill-rule="evenodd" clip-rule="evenodd" d="M91.9194 55.8989C91.9536 55.9839 92.0293 56.0631 92.0805 56.1009C92.0618 56.0533 92.0809 56.0976 92.0195 55.9908C91.9857 55.9611 91.9528 55.9298 91.9194 55.8989V55.8989Z" fill="#020202"/>
<path fill-rule="evenodd" clip-rule="evenodd" d="M133.459 80.2644C134.577 76.295 135.725 71.7123 138.306 68.1423C140.678 71.1772 140.17 76.1622 137.877 79.2822C136.803 80.6916 134.379 80.1333 133.459 80.2644ZM92.3966 56.8021C92.5365 56.919 92.6796 57.0269 92.8236 57.1234C92.6558 57.011 92.5583 56.9536 92.5054 56.9283C92.4795 56.897 92.4435 56.855 92.3966 56.8021ZM130.088 76.2669C130.457 61.9984 133.192 62.8804 124.261 63.4522C122.407 64.0133 124.073 69.0655 122.691 71.5706C121.975 74.5953 115.708 85.521 114.666 82.2793C113.281 77.4075 115.478 70.4451 115.372 66.0452C114.332 64.335 109.925 62.7277 108.374 63.9123C107.05 66.1556 106.531 70.8112 104.832 75.3299C102.633 83.3087 96.6246 91.8347 97.8002 84.4016C98.5119 73.9381 106.058 50.3442 92.8434 53.2452C90.4914 53.4223 90.8 55.1362 92.1778 56.6087C92.16 56.5639 92.1539 56.5183 92.1689 56.4767C92.1236 56.438 92.2777 56.6645 92.3468 56.8172C92.3444 56.8151 92.3412 56.8127 92.3383 56.8106C93.9131 67.2449 88.9491 78.4336 90.2063 89.0165C94.2042 101.654 104.537 85.6933 106.771 80.3031C109.565 92.6736 118.69 87.2016 122.696 79.373C119.729 133.221 116.088 125.805 126.361 125.484C128.471 112.166 129.437 95.412 133.205 81.2495C147.278 86.6262 149.819 67.0482 140.447 65.7785C133.584 64.6172 131.85 71.3963 130.088 76.2669Z" fill="#020202"/>
<path fill-rule="evenodd" clip-rule="evenodd" d="M54.0166 43.0276C46.5315 64.708 83.1054 88.6638 74.9896 95.7664C72.8242 98.2677 69.226 99.7445 66.1725 97.6501C59.567 91.8133 66.6139 86.9719 59.8532 87.0975C56.7811 87.9984 58.6213 92.812 59.4762 94.7628C65.0201 106.23 81.8517 103.999 82.6588 88.5775C82.4926 84.2907 81.3373 82.3669 79.7869 80.2857C41.7825 32.167 79.553 29.2596 82.9932 44.6259C84.5359 51.1195 81.4743 56.8897 78.9567 62.7069C78.2745 64.2221 81.1618 65.687 82.7297 65.0801C84.1229 64.1959 84.4058 61.8153 85.3446 60.1549C89.91 50.1752 88.9854 40.1914 79.45 35.1852C70.483 30.4693 58.2387 33.5227 54.0166 43.0276V43.0276Z" fill="#020202"/>
<path fill-rule="evenodd" clip-rule="evenodd" d="M173.864 61.8454C165.494 62.4222 172.328 44.7578 176.019 51.1702C176.985 53.5861 175.88 58.4715 175.464 60.6125C175.523 61.3087 174.936 61.982 173.864 61.8454V61.8454ZM160.411 66.6698C165.36 65.1363 156.22 75.6904 155.278 76.1735C155.452 75.2143 155.701 74.2726 156.023 73.3044C156.794 71.0652 158.288 67.7555 160.411 66.6698V66.6698ZM182.812 55.9337C182.338 57.4836 180.623 59.0515 178.518 60.2317C181.068 49.0067 174.396 43.5932 167.912 49.2885C162.767 55.7206 165.688 64.8168 174.482 64.5354C171.92 72.6527 165.021 85.5132 157.055 85.0014C154.785 83.3672 154.202 79.8195 157.395 78.2119C163.114 72.5971 170.403 65.3637 161.635 63.9525C150.247 62.4357 147.26 75.0212 146.446 80.98C146.107 81.4631 143.959 82.2317 143.016 83.0404C142.741 84.8947 145.991 84.0708 147.258 83.6188C153.69 97.9968 168.327 84.7008 172.646 76.6807C178.377 67.5105 175.276 64.0465 180.844 64.0531C177.309 84.1976 176.895 84.1702 186.708 84.81C185.82 76.7785 189.579 67.0351 188.923 57.7687C188.865 56.9621 183.031 55.2186 182.812 55.9337V55.9337Z" fill="#020202"/>
<path fill-rule="evenodd" clip-rule="evenodd" d="M77.7142 95C80.8124 86.8643 66.9647 76.8422 65 71C70.446 76.9363 83.04 88.102 77.7142 95Z" fill="#B1F2EF"/>
<path fill-rule="evenodd" clip-rule="evenodd" d="M94 90.9978C86.3979 91.2196 91.7844 74.2768 92.7847 71C93.431 77.7763 88.8655 88.9078 94 90.9978Z" fill="#B1F2EF"/>
<path fill-rule="evenodd" clip-rule="evenodd" d="M116 84.3244C109.841 87.8748 110.658 76.3909 111.789 74C112.202 76.8752 110.928 84.6469 116 84.3244Z" fill="#B1F2EF"/>
<path fill-rule="evenodd" clip-rule="evenodd" d="M121.102 122C120.622 110.683 121.891 99.1847 123.678 88C124.632 99.0742 123.377 111.113 121.102 122Z" fill="#B1F2EF"/>
<path fill-rule="evenodd" clip-rule="evenodd" d="M157 87.8901C149.308 89.1266 147.43 79.6362 150.225 74C149.942 80.1111 150.259 86.1776 157 87.8901Z" fill="#B1F2EF"/>
<path fill-rule="evenodd" clip-rule="evenodd" d="M168.864 61C164.831 58.6209 168.188 51.8971 171 50C169.739 53.1796 167.243 57.5226 168.864 61Z" fill="#B1F2EF"/>
<path fill-rule="evenodd" clip-rule="evenodd" d="M185.269 82C182.472 76.9731 184.871 69.8608 186.969 65C187.293 70.7116 184.953 76.292 185.269 82Z" fill="#B1F2EF"/>
<path fill-rule="evenodd" clip-rule="evenodd" d="M134.133 140.987C134.047 140.997 134.136 140.985 133.867 141.013C133.966 141.006 134.084 140.998 134.133 140.987Z" fill="#020202"/>
<path fill-rule="evenodd" clip-rule="evenodd" d="M141.421 142.398C135.982 141.788 133.753 142.804 133.453 147.244C132.733 150.334 131.302 153.061 129.517 155.492C128.781 156.212 127.398 158.72 126.741 157.771C125.063 151.822 126.596 146.784 130.277 142.86C130.853 142.41 130.524 142.6 131.445 141.915C130.989 142.286 131.943 141.478 133.106 141.075C132.901 141.169 133.498 140.966 133.876 140.859C133.854 140.861 133.834 140.862 133.811 140.864C133.943 140.853 134.072 140.833 134.438 140.809C134.535 140.806 134.448 140.809 134.707 140.807C134.626 140.808 134.568 140.809 134.525 140.809C134.81 140.909 134.774 140.64 135.583 141.171C137.377 144.676 138.325 134.547 130.097 137.572C111.276 143.024 112.983 178.104 133.651 156.052C135.413 173.383 148.861 162.852 146.782 162.619C138.531 157.27 145.06 141.992 141.421 142.398V142.398Z" fill="#020202"/>
<path fill-rule="evenodd" clip-rule="evenodd" d="M134.957 141C134.97 141.001 134.996 141.001 135.044 141C135.018 141 134.995 141 134.978 141C134.971 141 134.964 141 134.957 141Z" fill="#020202"/>
<path fill-rule="evenodd" clip-rule="evenodd" d="M68.9617 108.924C68.3558 108.989 67.1205 109.244 69 108.919C68.9874 108.921 68.9743 108.922 68.9617 108.924Z" fill="#020202"/>
<path fill-rule="evenodd" clip-rule="evenodd" d="M87.4806 168.705C77.5034 178.601 81.0392 164.67 83.0062 161.456C87.2161 155.348 94.5916 151.852 101.77 150.074C101.718 150.208 101.674 150.346 101.621 150.48C98.5699 158.38 92.5076 164.533 87.4806 168.705ZM66.8074 106.031C50.2921 106.726 57.189 113.969 68.7801 109.323C68.6822 109.347 68.594 109.368 68.5128 109.387C68.9065 109.328 69.3022 109.279 69.6984 109.238C63.8742 168.854 61.4867 164.485 65.3987 169.18C74.9407 178.769 73.1765 162.043 74.5783 156.686C76.3783 141.137 77.8671 125.924 79.6581 110.406C79.9377 110.484 80.1319 110.537 80.0519 110.511C86.4701 112.084 100.424 120.108 103.818 134.725C104.976 147.011 102.886 144.928 98.8214 146.16C88.7004 149.273 76.9606 156.196 76.0082 165.089C74.9379 171.139 77.7756 176.993 85.7684 177C89.5967 176.629 96.5826 172.607 101.421 168.751C110.772 161.052 117.391 147.5 115.75 136.212C112.141 115.191 84.6404 105.377 66.8074 106.031V106.031Z" fill="#020202"/>
<path fill-rule="evenodd" clip-rule="evenodd" d="M183.563 98.4352C183.995 106.191 179.396 113.787 177.471 121.278C177.943 115.294 178.678 109.274 180.218 103.475C180.786 101.934 182.585 93.9619 183.563 98.4352V98.4352ZM187.946 98.0131C185.222 89.9009 175.674 92.4946 174.017 99.6715C165.586 124.242 174.67 149.675 161.2 162.256C153.29 159.138 156.012 144.311 162.889 141.229C164.076 141.13 164.174 143.263 164.82 143.513C171.754 144.824 167.518 139.035 164.128 138.606C152.776 136.026 144.691 147.942 147.595 157.726C152.305 170.468 166.21 166.591 170.065 155.848C171.22 165.093 173.111 193.403 186.39 185.681C176.856 172.023 176.8 149.757 178.628 129.881C178.653 129.569 178.665 129.411 178.674 129.311C178.504 129.865 180.886 121.407 182.014 118.578C184.395 111.986 188.518 105.212 187.946 98.0131V98.0131Z" fill="#020202"/>
<path fill-rule="evenodd" clip-rule="evenodd" d="M66 163C66.2843 152.967 66.9683 142.765 69.6923 133C70.5323 142.519 69.7636 154.021 66 163Z" fill="#B1F2EF"/>
<path fill-rule="evenodd" clip-rule="evenodd" d="M95 169C104.479 163.122 111.146 148.853 112.892 138C114.039 148.948 105.933 165.803 95 169Z" fill="#B1F2EF"/>
<path fill-rule="evenodd" clip-rule="evenodd" d="M123 160C117.525 159.523 120.797 147.644 123 145C122.635 148.007 120.161 157.853 123 160Z" fill="#B1F2EF"/>
<path fill-rule="evenodd" clip-rule="evenodd" d="M143 163C137.882 160.737 138.647 152.334 140.014 148C141.426 152.846 140.252 158.585 143 163Z" fill="#B1F2EF"/>
<path fill-rule="evenodd" clip-rule="evenodd" d="M156 162C149.15 161.441 148.946 151.898 151.522 147C151.716 152.663 151.227 158.347 156 162Z" fill="#B1F2EF"/>
<path fill-rule="evenodd" clip-rule="evenodd" d="M180 178C173.457 170.583 173.415 157.01 174.58 148C176.875 157.811 176.226 168.525 180 178Z" fill="#B1F2EF"/>
<path fill-rule="evenodd" clip-rule="evenodd" d="M36.3439 86C38.1843 86 38.7657 83 36.6564 83C34.8152 83 34.2346 86 36.3439 86Z" fill="#020202"/>
<path fill-rule="evenodd" clip-rule="evenodd" d="M74.3437 28C76.1846 28 76.7656 25 74.6563 25C72.8154 25 72.2344 28 74.3437 28Z" fill="#020202"/>
<path fill-rule="evenodd" clip-rule="evenodd" d="M125.344 35C127.184 35 127.766 32 125.656 32C123.815 32 123.235 35 125.344 35Z" fill="#020202"/>
<path fill-rule="evenodd" clip-rule="evenodd" d="M187.344 34C189.184 34 189.766 31 187.656 31C185.815 31 185.235 34 187.344 34Z" fill="#020202"/>
<path fill-rule="evenodd" clip-rule="evenodd" d="M216.344 77C218.184 77 218.766 74 216.656 74C214.815 74 214.235 77 216.344 77Z" fill="#020202"/>
<path fill-rule="evenodd" clip-rule="evenodd" d="M215.344 146C217.185 146 217.766 143 215.656 143C213.815 143 213.234 146 215.344 146Z" fill="#020202"/>
<path fill-rule="evenodd" clip-rule="evenodd" d="M188.344 183C190.185 183 190.766 180 188.656 180C186.815 180 186.234 183 188.344 183Z" fill="#020202"/>
<path fill-rule="evenodd" clip-rule="evenodd" d="M131.344 179C133.185 179 133.766 176 131.656 176C129.815 176 129.234 179 131.344 179Z" fill="#020202"/>
<path fill-rule="evenodd" clip-rule="evenodd" d="M47.3439 161C49.1843 161 49.7657 158 47.6564 158C45.8152 158 45.2346 161 47.3439 161Z" fill="#020202"/>
<path fill-rule="evenodd" clip-rule="evenodd" d="M66.3437 143C68.1846 143 68.7656 140 66.6563 140C64.8154 140 64.2344 143 66.3437 143Z" fill="#020202"/>
<path fill-rule="evenodd" clip-rule="evenodd" d="M17.8332 120C19.1384 119.949 20.4019 118.591 19.8791 117.028C18.1975 113.763 13.3949 119.253 17.8332 120Z" fill="#020202"/>
<path fill-rule="evenodd" clip-rule="evenodd" d="M31.3437 63C33.1846 63 33.7656 60 31.6563 60C29.8154 60 29.2344 63 31.3437 63Z" fill="#020202"/>
<path fill-rule="evenodd" clip-rule="evenodd" d="M16.3437 150C18.1846 150 18.7656 147 16.6563 147C14.8154 147 14.2344 150 16.3437 150Z" fill="#020202"/>
<path fill-rule="evenodd" clip-rule="evenodd" d="M238.344 112C240.185 112 240.766 109 238.656 109C236.815 109 236.234 112 238.344 112Z" fill="#020202"/>
<path fill-rule="evenodd" clip-rule="evenodd" d="M113.896 173C115.123 173 115.51 171 114.104 171C112.877 171 112.49 173 113.896 173Z" fill="#020202"/>
<path fill-rule="evenodd" clip-rule="evenodd" d="M153.896 193C155.123 193 155.51 191 154.104 191C152.877 191 152.49 193 153.896 193Z" fill="#020202"/>
<path fill-rule="evenodd" clip-rule="evenodd" d="M203.896 149C205.123 149 205.51 147 204.104 147C202.877 147 202.49 149 203.896 149Z" fill="#020202"/>
<path fill-rule="evenodd" clip-rule="evenodd" d="M230.896 116C232.123 116 232.51 114 231.104 114C229.877 114 229.49 116 230.896 116Z" fill="#020202"/>
<path fill-rule="evenodd" clip-rule="evenodd" d="M189.896 83C191.123 83 191.51 81 190.104 81C188.877 81 188.49 83 189.896 83Z" fill="#020202"/>
<path fill-rule="evenodd" clip-rule="evenodd" d="M193.896 79C195.123 79 195.51 77 194.104 77C192.877 77 192.49 79 193.896 79Z" fill="#020202"/>
<path fill-rule="evenodd" clip-rule="evenodd" d="M148.896 36C150.123 36 150.51 34 149.104 34C147.877 34 147.49 36 148.896 36Z" fill="#020202"/>
<path fill-rule="evenodd" clip-rule="evenodd" d="M97.8957 38C99.123 38 99.5104 36 98.1043 36C96.877 36 96.4896 38 97.8957 38Z" fill="#020202"/>
<path fill-rule="evenodd" clip-rule="evenodd" d="M83.8957 19C85.123 19 85.5104 17 84.1043 17C82.877 17 82.4896 19 83.8957 19Z" fill="#020202"/>
<path fill-rule="evenodd" clip-rule="evenodd" d="M53.8959 38C55.123 38 55.5104 36 54.1041 36C52.877 36 52.4896 38 53.8959 38Z" fill="#020202"/>
<path fill-rule="evenodd" clip-rule="evenodd" d="M23.8956 72C25.123 72 25.5104 70 24.1042 70C22.8768 70 22.4898 72 23.8956 72Z" fill="#020202"/>
<path fill-rule="evenodd" clip-rule="evenodd" d="M43.8957 75C45.123 75 45.5104 73 44.1043 73C42.877 73 42.4896 75 43.8957 75Z" fill="#020202"/>
<path fill-rule="evenodd" clip-rule="evenodd" d="M21.8959 105C23.123 105 23.5104 103 22.1041 103C20.877 103 20.4896 105 21.8959 105Z" fill="#020202"/>
<path fill-rule="evenodd" clip-rule="evenodd" d="M32.8959 133C34.123 133 34.5104 131 33.1041 131C31.877 131 31.4896 133 32.8959 133Z" fill="#020202"/>
<path fill-rule="evenodd" clip-rule="evenodd" d="M21.8959 167C23.123 167 23.5104 165 22.1041 165C20.877 165 20.4896 167 21.8959 167Z" fill="#020202"/>
<path fill-rule="evenodd" clip-rule="evenodd" d="M63.8957 165C65.123 165 65.5104 163 64.1043 163C62.877 163 62.4896 165 63.8957 165Z" fill="#020202"/>
<path fill-rule="evenodd" clip-rule="evenodd" d="M71.8957 190C73.123 190 73.5104 188 72.1043 188C70.877 188 70.4896 190 71.8957 190Z" fill="#020202"/>
<path fill-rule="evenodd" clip-rule="evenodd" d="M99.8959 204C101.123 204 101.51 202 100.104 202C98.877 202 98.4896 204 99.8959 204Z" fill="#020202"/>
<path fill-rule="evenodd" clip-rule="evenodd" d="M124.896 196C126.123 196 126.51 194 125.104 194C123.877 194 123.49 196 124.896 196Z" fill="#020202"/>
<path fill-rule="evenodd" clip-rule="evenodd" d="M157.094 116C159.768 116 159.558 113 156.906 113C154.232 113 154.442 116 157.094 116Z" fill="#020202"/>
<path fill-rule="evenodd" clip-rule="evenodd" d="M120.094 14C122.768 14 122.558 11 119.906 11C117.233 11 117.442 14 120.094 14Z" fill="#020202"/>
<path fill-rule="evenodd" clip-rule="evenodd" d="M41.0937 135C43.7675 135 43.5584 132 40.9063 132C38.2325 132 38.4416 135 41.0937 135Z" fill="#020202"/>
<path fill-rule="evenodd" clip-rule="evenodd" d="M170.047 108C171.384 108 171.279 106 169.953 106C168.616 106 168.721 108 170.047 108Z" fill="#020202"/>
<path fill-rule="evenodd" clip-rule="evenodd" d="M210.047 105C211.384 105 211.279 103 209.953 103C208.616 103 208.721 105 210.047 105Z" fill="#020202"/>
<path fill-rule="evenodd" clip-rule="evenodd" d="M178.047 125C179.384 125 179.279 123 177.953 123C176.616 123 176.721 125 178.047 125Z" fill="#020202"/>
</svg>
