<svg width="28" height="130" viewBox="0 0 28 130" fill="none" xmlns="http://www.w3.org/2000/svg">
<path d="M11.2444 127.267C16.8444 136.622 14.8444 110.044 15.1333 108.889H11.2444V127.267Z" fill="url(#paint0_linear_1_3243)"/>
<path d="M25.2666 107.733C25.7778 109.133 1.04442 110.2 1.11109 107.733C0.599974 106.356 25.3333 105.289 25.2666 107.733Z" fill="url(#paint1_linear_1_3243)"/>
<path d="M13.8666 129.044C15.6444 129.444 13.8666 109.8 14.5332 108.867H13.8666V129.044Z" fill="#6FB353"/>
<path d="M6.79993 112.022C7.79993 121.689 21.4666 119.333 19.5777 108.867H6.79993V112.022Z" fill="url(#paint2_linear_1_3243)"/>
<path d="M14.5778 0C-2.86666 28.8889 22.4444 38.6222 22.5111 21.6667C20.2889 16.0222 15.1333 3.26667 14.5778 0Z" fill="url(#paint3_linear_1_3243)"/>
<path d="M14.8222 1.0889C13.3777 6.53334 5.59996 14.4222 9.06663 22.7778C11.2888 27.0667 10.8444 26.7111 13.6888 23.0445C14.4444 24.0667 15.3555 26.9556 16.5777 26.0667C17.2222 26.5111 17.2444 20.2667 18.5111 21.0889C19.7777 21.9111 20.7333 24.4445 21.7555 25.5333C25.1555 23.4667 14.3333 5.04445 14.8222 1.0889V1.0889Z" fill="url(#paint4_linear_1_3243)"/>
<path d="M14.9333 1.84445C12.5111 5.42223 5.42222 24.8222 11.8889 20.9333C14.2889 14.0445 15.4444 22.7111 16.9555 17.5333C18.0222 15.7333 20.1778 21.4 20.6444 18.7778C20.3111 17.9111 14.1333 4.44445 14.9333 1.84445V1.84445Z" fill="url(#paint5_linear_1_3243)"/>
<path d="M11.4889 10.1556C11.4889 10.4 8.26667 19.8445 12 17.3556C13.9556 14.9333 16.0445 13.8 17.9111 15.2445C13.9556 10.5778 16.5333 -0.599991 11.4889 10.1556Z" fill="url(#paint6_linear_1_3243)"/>
<path d="M16.7556 26.6667C14.9556 26.2444 15.6445 29.5111 15.5334 33.6667C16.2445 45.4889 18.6445 28.6444 16.7556 26.6667Z" fill="#825831"/>
<path d="M27.8889 42.7333C27.8889 39.7333 24.0222 36.5111 20.2889 37.2222C-2.73335 34.0222 12.0222 60 8.46665 78.1556C9.77776 89.9333 4.02221 86.0222 1.55554 96.8C4.24443 100.889 10.0667 110.489 16.5778 105.333C33.4667 91.2445 25.4 63.7111 27.8889 42.7333V42.7333Z" fill="#ECC63E"/>
<path d="M26.7778 41.6222C26.7778 38.6222 22.9111 35.4 19.1778 36.1111C-3.84443 32.9111 10.9111 58.9778 7.35557 77.0444C8.66668 88.8222 2.91112 84.9111 0.444458 95.6889C3.13335 99.7778 8.8889 109.378 15.5556 104.222C32.3556 90.1333 24.2889 62.6 26.7778 41.6222V41.6222Z" fill="#EFD665"/>
<path d="M22.5333 36.2889C17.7777 40 3.62217 40.2222 6.66662 48.8889C8.88884 46.4222 35.4222 40.4667 22.5333 36.2889V36.2889Z" fill="#EECC41"/>
<path d="M26.6667 46.0889C22.2222 49.6666 3.42222 51.8 7.24444 60.3111C12.0222 56.6222 29.6222 54.9111 26.6667 46.0889Z" fill="#EECC41"/>
<path d="M26.3334 57.9111C22.7778 60.4889 3.40003 64.5778 7.44447 71.8889C12.2889 68.0667 29.1334 66.9334 26.3334 57.9111Z" fill="#EECC41"/>
<path d="M26.2444 69.8444V69.6222C21.4221 72.6889 4.19992 75.9333 6.82214 83.8222C10.6666 80.8 29.8444 77.6222 26.2444 69.8444Z" fill="#EECC41"/>
<path d="M26.0444 81.3555C21.6889 84.4444 -9.02225 93.3333 2.62219 97.3555C13.3333 90.8444 27.3777 91.1111 26.0444 81.3555Z" fill="#EECC41"/>
<path d="M23.1111 94.3333L5.68884 102.089C9.99995 109.156 20.6666 101.689 23.1111 94.3333V94.3333Z" fill="#EECC41"/>
<path d="M18.1555 42.0889C30.0222 41.0222 14.7111 36.8 10.9555 41.0889C7.68888 51.7333 9.82221 42.2222 18.1555 42.0889Z" fill="white"/>
<path d="M24.4445 79.4667C24.4202 78.6163 23.7173 77.9431 22.8667 77.9556C21.6 77.9556 20.0222 81.6667 22.8667 82.5111C23.8445 82.4444 24.6889 81.5778 24.4445 79.4667Z" fill="#FFFDE3"/>
<path d="M23.8888 56.2222C23.8831 55.8293 23.7199 55.4551 23.4358 55.1836C23.1517 54.912 22.7705 54.7658 22.3777 54.7778C20.7555 54.7778 19.4888 73.9778 22.8222 74.6C25.3111 75.8667 23.6222 56.8667 23.8888 56.2222V56.2222Z" fill="#FFFDE3"/>
<defs>
<linearGradient id="paint0_linear_1_3243" x1="11.2444" y1="119.067" x2="15.2444" y2="119.067" gradientUnits="userSpaceOnUse">
<stop stop-color="#C8B557"/>
<stop offset="0.16" stop-color="#D1BC5A"/>
<stop offset="0.68" stop-color="#E8D062"/>
<stop offset="1" stop-color="#F0D765"/>
</linearGradient>
<linearGradient id="paint1_linear_1_3243" x1="1.08886" y1="107.733" x2="25.2889" y2="107.733" gradientUnits="userSpaceOnUse">
<stop stop-color="#C8B557"/>
<stop offset="0.16" stop-color="#D1BC5A"/>
<stop offset="0.68" stop-color="#E8D062"/>
<stop offset="1" stop-color="#F0D765"/>
</linearGradient>
<linearGradient id="paint2_linear_1_3243" x1="6.79993" y1="113.511" x2="19.7555" y2="113.511" gradientUnits="userSpaceOnUse">
<stop stop-color="#C8B557"/>
<stop offset="0.16" stop-color="#D1BC5A"/>
<stop offset="0.68" stop-color="#E8D062"/>
<stop offset="1" stop-color="#F0D765"/>
</linearGradient>
<linearGradient id="paint3_linear_1_3243" x1="15.4667" y1="29.9778" x2="15.4667" y2="0" gradientUnits="userSpaceOnUse">
<stop stop-color="#D35B30"/>
<stop offset="0.07" stop-color="#D97338"/>
<stop offset="0.15" stop-color="#DF893E"/>
<stop offset="0.25" stop-color="#E39A44"/>
<stop offset="0.36" stop-color="#E6A547"/>
<stop offset="0.53" stop-color="#E8AC49"/>
<stop offset="1" stop-color="#E8AE4A"/>
</linearGradient>
<linearGradient id="paint4_linear_1_3243" x1="15.3111" y1="26.2222" x2="15.3111" y2="1.0889" gradientUnits="userSpaceOnUse">
<stop stop-color="#E0922F"/>
<stop offset="0.01" stop-color="#E19630"/>
<stop offset="0.08" stop-color="#E7B138"/>
<stop offset="0.16" stop-color="#ECC73F"/>
<stop offset="0.26" stop-color="#F0D844"/>
<stop offset="0.38" stop-color="#F3E347"/>
<stop offset="0.54" stop-color="#F5EA49"/>
<stop offset="1" stop-color="#F5EC4A"/>
</linearGradient>
<linearGradient id="paint5_linear_1_3243" x1="14.9333" y1="21.4445" x2="14.9333" y2="1.84445" gradientUnits="userSpaceOnUse">
<stop stop-color="#F5EC39"/>
<stop offset="0.07" stop-color="#F5ED44"/>
<stop offset="0.32" stop-color="#F6EF63"/>
<stop offset="0.56" stop-color="#F6F079"/>
<stop offset="0.79" stop-color="#F6F186"/>
<stop offset="1" stop-color="#F6F18B"/>
</linearGradient>
<linearGradient id="paint6_linear_1_3243" x1="14.0222" y1="17.7778" x2="14.0222" y2="5.62223" gradientUnits="userSpaceOnUse">
<stop stop-color="#F4F2AA"/>
<stop offset="0.14" stop-color="#F6F5BA"/>
<stop offset="0.51" stop-color="#FBFAE0"/>
<stop offset="0.81" stop-color="#FEFEF7"/>
<stop offset="1" stop-color="white"/>
</linearGradient>
</defs>
</svg>
