<svg width="63" height="126" viewBox="0 0 63 126" fill="none" xmlns="http://www.w3.org/2000/svg">
<g clip-path="url(#clip0_1_3043)">
<path d="M10.1555 123.511C15.7555 132.867 13.7555 106.267 14.0222 105.111H10.1555V123.511Z" fill="url(#paint0_linear_1_3043)"/>
<path d="M24.1777 103.978C24.6666 105.378 -4.87482e-05 106.444 -4.87482e-05 103.978C-0.488938 102.578 24.2444 101.511 24.1777 103.978Z" fill="url(#paint1_linear_1_3043)"/>
<path d="M12.7555 125.267C14.5555 125.667 12.8888 106.022 13.4444 105.111H12.7555V125.267Z" fill="#6FB353"/>
<path d="M5.71106 108.244C6.66662 117.933 20.3555 115.556 18.4666 105.111H5.71106V108.244Z" fill="url(#paint2_linear_1_3043)"/>
<path d="M29.3999 0C27.9777 9.15556 17.7777 21.7556 29.3999 31.1111C43.3111 32.4222 31.5777 5.53333 29.3999 0Z" fill="url(#paint3_linear_1_3043)"/>
<path d="M29.5333 1.46666C28.3111 9.31111 19.9999 17.0222 26.2888 25.9111C27.5111 27.8667 26.9777 22.2222 28.3555 22.1111C30.9333 29.4889 30.5777 26.9333 32.1111 21.1333C42.2222 36.1333 29.7999 0.622218 29.5333 1.46666V1.46666Z" fill="url(#paint4_linear_1_3043)"/>
<path d="M29.5333 1.46667C28.2222 3.6889 20.6444 29.6 27.9555 18.1333C31.2 23.3556 29.8889 14.2222 33.7333 19.6445C37.7778 21.0889 29.5111 2.00001 29.5333 1.46667V1.46667Z" fill="url(#paint5_linear_1_3043)"/>
<path d="M28.5332 8.26667C28.1554 9.71112 23.4888 21.7778 28.8888 15.5556C29.7777 14.7778 33.6221 16.9111 32.3777 13.0889C30.6221 10.4667 30.3554 1.00001 28.5332 8.26667V8.26667Z" fill="url(#paint6_linear_1_3043)"/>
<path d="M31.2889 28.3111C29.4889 27.8889 30.1778 31.1556 30.0667 35.3111C30.4667 47.5111 33.3333 29.6667 31.2889 28.3111V28.3111Z" fill="#825831"/>
<path d="M30.6221 72.7333H29.9777C30.4666 71.4 31.111 69.6222 31.9777 67.3111C32.5555 68.7111 32.9333 69.6667 34.0666 72.6889L30.6221 72.7333ZM61.3777 92.8889C47.4444 59.4 33.8221 1.62223 12.8444 67.3778C12.6888 74.0444 -8.24452 105.311 12.4444 102.022C27.9999 104.711 15.8666 88.5333 31.9555 90.2222C44.9555 89.2222 37.6666 91.0445 45.2888 100.689C50.5333 103.244 66.4444 103.267 61.3777 92.8889Z" fill="#ECC63E"/>
<path d="M29.5111 71.6222H28.8888C29.3777 70.2889 30.0222 68.5111 30.8888 66.2C31.4666 67.6 31.8444 68.5556 32.9777 71.5778L29.5111 71.6222ZM60.2666 91.7778C46.3333 58.2889 32.7111 0.511114 11.7333 66.2667C11.5777 72.9333 -9.35561 104.2 11.3333 100.911C26.8888 103.6 14.7555 87.4222 30.8444 89.1111C43.8444 88.1111 36.5555 89.9333 44.1777 99.5778C49.4222 102.222 65.3333 102.222 60.2666 91.7778V91.7778Z" fill="#EFD665"/>
<path d="M26.5112 37.4667C24.0381 37.5456 21.9208 39.2631 21.3334 41.6667L30.9334 37.4L26.5112 37.4667Z" fill="#EECC41"/>
<path d="M39.9999 41.5333C40.3777 37.8889 28.8888 44.7556 21.6444 47.6C16.6666 49.3111 18.5555 49.8222 15.7333 55.8C16.8222 53.9333 46.3999 45.7556 39.9999 41.5333V41.5333Z" fill="#EECC41"/>
<path d="M43.3778 49.6C37.7778 53.3333 9.40001 60.7111 10.4667 69.8444L45.2667 54.2889L43.3778 49.6Z" fill="#EECC41"/>
<path d="M29.5111 71.6222H28.8889C29.3333 70.4444 29.8889 68.9111 30.6 66.9778C25.8889 69.6889 4.26666 75.8667 5.55555 83.7111L32.7111 71.5778L29.5111 71.6222Z" fill="#EECC41"/>
<path d="M32.9333 71.4889C36.6666 68.1556 53.7555 66.8889 47.3333 59.4889C43.5777 62.8444 26.6666 64.0222 32.9333 71.4889Z" fill="#EECC41"/>
<path d="M51.3111 69.3777C47.7111 73.1777 -3.46667 88.2222 1.77778 97.0444L53.2 74.0889L51.3111 69.3777Z" fill="#EECC41"/>
<path d="M55.2889 79.2667L33.3334 89.1111C35.9334 89.7778 39.6445 87.0222 40.1334 91.6222C43.7112 88.2889 61.8667 86.6667 55.2889 79.2667Z" fill="#EECC41"/>
<path d="M7.06663 100.956C13.7333 99.9333 18.8 104.067 21.6222 94.2889L6.66663 100.911L7.06663 100.956Z" fill="#EECC41"/>
<path d="M60.2667 91.7777C59.9778 91.0889 59.6444 90.2 59.2222 89.1555L42.0222 96.8444C44.7778 101.578 46.4667 100.667 53.6667 97.2C59.0667 93.4444 62.5333 96.3111 60.2667 91.7777Z" fill="#EECC41"/>
<path d="M32.2888 44.4445C42.2444 42.2222 29.7555 37.7778 24.3333 44.2889C18.3555 59.2889 23.3333 45.8 32.2888 44.4445Z" fill="white"/>
<path d="M19.4445 64.2666C19.3221 64.6566 19.049 64.9814 18.686 65.1692C18.323 65.357 17.9001 65.392 17.5112 65.2666C16.2667 64.9778 15.8 60.8222 18.8667 60.8222C19.6667 61.2222 20.2223 62.2222 19.4445 64.2666V64.2666Z" fill="#FFFDE3"/>
<path d="M12.4889 86.4444C12.3762 86.8202 12.1176 87.1351 11.771 87.3188C11.4244 87.5026 11.0187 87.5398 10.6444 87.4222C9.06666 87 13.1333 68.1778 16.5111 68.4889C19.2667 67.9555 12.4222 85.7333 12.4889 86.4444V86.4444Z" fill="#FFFDE3"/>
<path d="M54.2222 93.7333C54.2222 93.2444 54.0445 92.7777 55.1556 91.7555C56.3334 91.2444 59.1556 94.2 56.7111 96.0444C55.8667 96.2889 54.7778 95.7555 54.2222 93.7333V93.7333Z" fill="#FFFDE3"/>
<path d="M46.4223 71.8222C46.1556 71.0444 46.4223 71.8222 47.3111 69.9333C48.8223 69.3111 56.9112 86.8 53.9778 88.5778C52.1556 90.6667 46.9112 72.3333 46.4223 71.8222V71.8222Z" fill="#FFFDE3"/>
</g>
<defs>
<linearGradient id="paint0_linear_1_3043" x1="10.1555" y1="115.289" x2="14.1555" y2="115.289" gradientUnits="userSpaceOnUse">
<stop stop-color="#C8B557"/>
<stop offset="0.16" stop-color="#D1BC5A"/>
<stop offset="0.68" stop-color="#E8D062"/>
<stop offset="1" stop-color="#F0D765"/>
</linearGradient>
<linearGradient id="paint1_linear_1_3043" x1="-4.87847e-05" y1="103.978" x2="24.1777" y2="103.978" gradientUnits="userSpaceOnUse">
<stop stop-color="#C8B557"/>
<stop offset="0.16" stop-color="#D1BC5A"/>
<stop offset="0.68" stop-color="#E8D062"/>
<stop offset="1" stop-color="#F0D765"/>
</linearGradient>
<linearGradient id="paint2_linear_1_3043" x1="5.71106" y1="109.733" x2="18.6444" y2="109.733" gradientUnits="userSpaceOnUse">
<stop stop-color="#C8B557"/>
<stop offset="0.16" stop-color="#D1BC5A"/>
<stop offset="0.68" stop-color="#E8D062"/>
<stop offset="1" stop-color="#F0D765"/>
</linearGradient>
<linearGradient id="paint3_linear_1_3043" x1="30.0222" y1="31.2" x2="30.0222" y2="0" gradientUnits="userSpaceOnUse">
<stop stop-color="#D35B30"/>
<stop offset="0.07" stop-color="#D97338"/>
<stop offset="0.15" stop-color="#DF893E"/>
<stop offset="0.25" stop-color="#E39A44"/>
<stop offset="0.36" stop-color="#E6A547"/>
<stop offset="0.53" stop-color="#E8AC49"/>
<stop offset="1" stop-color="#E8AE4A"/>
</linearGradient>
<linearGradient id="paint4_linear_1_3043" x1="30.0444" y1="26.6444" x2="30.0444" y2="1.44444" gradientUnits="userSpaceOnUse">
<stop stop-color="#E0922F"/>
<stop offset="0.01" stop-color="#E19630"/>
<stop offset="0.08" stop-color="#E7B138"/>
<stop offset="0.16" stop-color="#ECC73F"/>
<stop offset="0.26" stop-color="#F0D844"/>
<stop offset="0.38" stop-color="#F3E347"/>
<stop offset="0.54" stop-color="#F5EA49"/>
<stop offset="1" stop-color="#F5EC4A"/>
</linearGradient>
<linearGradient id="paint5_linear_1_3043" x1="29.8222" y1="21.0445" x2="29.8222" y2="1.46667" gradientUnits="userSpaceOnUse">
<stop stop-color="#F5EC39"/>
<stop offset="0.07" stop-color="#F5ED44"/>
<stop offset="0.32" stop-color="#F6EF63"/>
<stop offset="0.56" stop-color="#F6F079"/>
<stop offset="0.79" stop-color="#F6F186"/>
<stop offset="1" stop-color="#F6F18B"/>
</linearGradient>
<linearGradient id="paint6_linear_1_3043" x1="29.4888" y1="17.2889" x2="29.4888" y2="5.57779" gradientUnits="userSpaceOnUse">
<stop stop-color="#F4F2AA"/>
<stop offset="0.14" stop-color="#F6F5BA"/>
<stop offset="0.51" stop-color="#FBFAE0"/>
<stop offset="0.81" stop-color="#FEFEF7"/>
<stop offset="1" stop-color="white"/>
</linearGradient>
<clipPath id="clip0_1_3043">
<rect width="63" height="126" fill="white"/>
</clipPath>
</defs>
</svg>
