<svg width="53" height="124" viewBox="0 0 53 124" fill="none" xmlns="http://www.w3.org/2000/svg">
<g clip-path="url(#clip0_1_2987)">
<path d="M21.4445 0C20.3556 6.66667 14.5778 16.9778 16.1556 25.4C17.5556 30.4889 27.2667 32.7778 28.8667 24.8C27.4713 16.2481 24.9765 7.91243 21.4445 0V0Z" fill="url(#paint0_linear_1_2987)"/>
<path d="M21.5778 1.46667C19.6001 7.37779 13.3334 23.7556 17.7778 26.2667C19.8223 19.6 20.6889 27.5556 22.7112 26.4222C23.3334 26.8667 23.4001 20.6222 24.6223 21.4445C25.8445 22.2667 26.8445 24.7778 27.8889 25.8889C31.1112 21.1556 22.2223 5.60001 21.5778 1.46667V1.46667Z" fill="url(#paint1_linear_1_2987)"/>
<path d="M21.5777 1.46667C20.2666 3.6889 12.6889 29.6 20 18.1333C23.2444 23.3556 21.9333 14.2222 25.7777 19.6445C29.7777 21.0889 21.5555 2.00001 21.5777 1.46667V1.46667Z" fill="url(#paint2_linear_1_2987)"/>
<path d="M20.5778 8.26667C20.2 9.71112 15.5556 21.7778 20.9778 15.5556C21.8667 14.7778 25.7111 16.9111 24.4667 13.0889C22.6667 10.4667 22.4222 1.00001 20.5778 8.26667V8.26667Z" fill="url(#paint3_linear_1_2987)"/>
<path d="M22.8889 27.0444C21.0889 26.6 21.7778 29.8667 21.6667 34.0444C22.2222 46 24.8889 28.6667 22.8889 27.0444V27.0444Z" fill="#825831"/>
<path d="M31.6222 56.3556C29.4 56.5333 17.9555 61.4889 20.7111 51.7111C25.0222 52.1556 34.3333 50.3778 31.6222 56.3556ZM50.2222 68.6444C44.9333 63.7556 54.8222 56.5111 50.2222 47.5778C46.5778 32.4444 10.2222 31.7556 1.88888 38.6889C-0.155561 50.6889 3.51111 64.8667 2 77.1111C1.51111 91.4444 -1.66667 101.044 13.6 98.8444C28.8889 97.7778 37.7778 102.222 47.4222 92.1111C52.9593 85.5505 54.0602 76.3237 50.2222 68.6444V68.6444ZM20.6 74.5556C33.2444 71.6222 41.8222 82.9333 20.6 81.5556C20.6 79.7333 20.5778 77.4444 20.6 74.5556Z" fill="#CC2C29"/>
<path d="M30.5111 55.2444C28.2889 55.4222 16.8445 60.3778 19.6 50.6C23.9111 51.1111 33.3334 49.2667 30.5111 55.2444ZM49.1111 67.5333C43.8222 62.6444 53.7111 55.4 49.1111 46.4667C45.4667 31.3333 9.11113 30.6444 0.777799 37.5778C-1.26665 49.5778 2.40002 63.7555 0.777799 76C0.400021 90.3333 -2.77776 100 12.4889 97.7778C27.6667 96.8 36.6222 101.067 46.3111 91.1111C51.8958 84.5278 52.9986 75.2415 49.1111 67.5333V67.5333ZM19.4889 73.4444C32.1334 70.5111 40.7111 81.8222 19.4889 80.4444C19.4889 78.6222 19.4667 76.3333 19.4889 73.4444Z" fill="#D35B4F"/>
<path d="M16.4222 34.2667C11.8444 34.8 -2.55559 36.8 0.444406 45.1778L24.8889 34.2889L16.4222 34.2667Z" fill="#D1545A"/>
<path d="M42.2222 38.0222C35.2889 33.1111 32.4667 37.6 18.3556 43.3111C4.62223 51.6667 -0.399989 46.1111 0.933344 56.6444L42.3778 38.1333L42.2222 38.0222Z" fill="#D1545A"/>
<path d="M29.3334 51.3555C29.9556 51.6222 31.2445 52.3555 31.0223 54.8666C35.4667 51.2889 55.1334 48.6666 46.5778 42.3333L27.3334 50.9111C28.0133 50.9917 28.6833 51.1406 29.3334 51.3555V51.3555Z" fill="#D1545A"/>
<path d="M23.5334 56.3556C22.5778 55.6222 19.0889 58.1333 19.4889 54.4667C14.8 58.1333 -1.97776 59.4667 1.1778 68.1778L28.7556 55.8667C27.041 56.2401 25.2875 56.4042 23.5334 56.3556V56.3556Z" fill="#D1545A"/>
<path d="M50.289 53.4445C50.289 53.0889 50.289 52.7334 50.289 52.4L1.55562 74.1111C0.533398 74.3556 1.1334 74.6222 0.733398 80.0445C3.97784 76.4667 54.2001 61.2889 50.289 53.4445V53.4445Z" fill="#D1545A"/>
<path d="M30.9556 74.0444C31.8222 74.6 32.4667 74.9333 32.0667 77.7111C36.6667 73.2666 56.6445 72.6444 47.3778 65.3333L28.8889 73.5778C29.5934 73.6534 30.2869 73.81 30.9556 74.0444V74.0444Z" fill="#D1545A"/>
<path d="M24.6667 80.5111C23.4 79.6 18.7778 82.7333 19.4889 77.7778C14.8 81.4 -2.73332 83.1556 0.355564 91.8667L25.8667 80.4667L24.6667 80.5111Z" fill="#D1545A"/>
<path d="M51.4667 76.4222C51.4887 76.0151 51.4887 75.6071 51.4667 75.2L2.82227 96.8667C12.4 100.311 17.8889 95.2889 35.3556 87.9778C47.6223 80.9556 51.4889 84.6445 51.4667 76.4222V76.4222Z" fill="#D1545A"/>
<path d="M46.3111 91.1111C47.0488 90.2515 47.7106 89.3295 48.2889 88.3555L27.1111 97.7778C33.0889 98.2222 41.4666 97.0666 46.3111 91.1111V91.1111Z" fill="#D1545A"/>
<path d="M27.8889 41.7333C42.3111 43.2444 40.9333 51.2444 43.9111 52.6889C44.8667 53.1333 47.1111 49.8 40.6222 43.9556C32.4889 36.5778 24.2444 41.3778 27.8889 41.7333V41.7333Z" fill="white"/>
<path d="M31.7111 86.6667C26.6222 84.4444 35.9778 84.4444 36.3333 79.5111C36.6889 74.5778 36.3333 75.0667 38.2444 75.6889C36.5778 78.7555 34.5333 77.5778 36.2889 75.0444C38.3577 76.9053 39.0532 79.8553 38.0334 82.4443C37.0137 85.0332 34.4932 86.7165 31.7111 86.6667V86.6667Z" fill="#FFF9B2"/>
<path d="M24.2445 87.2889C23.7556 87.2889 23.2889 87.1111 22.7556 85.7111C22.7556 84.4222 26.4889 82.8889 27.2001 85.8444C27.2223 86.6666 26.3334 87.5333 24.2445 87.2889V87.2889Z" fill="#FFF22D"/>
<path d="M9.60002 64.2445C9.57581 65.0949 8.8729 65.7681 8.02224 65.7556C6.73335 65.7556 5.15558 62.0445 8.02224 61.2C8.88891 61.2667 9.80002 62.2222 9.60002 64.2445V64.2445Z" fill="#FFF9B2"/>
<path d="M9.02227 87.4889C9.0165 87.8818 8.85328 88.256 8.5692 88.5275C8.28513 88.7991 7.90396 88.9453 7.51116 88.9333C5.88894 88.9333 4.62227 69.7555 7.95561 69.1333C10.4445 67.8444 8.75561 86.8444 9.02227 87.4889Z" fill="#FFF9B2"/>
<path d="M23.1555 121.178C28.7333 130.556 26.7333 103.956 27.0222 102.778H23.1555V121.178Z" fill="url(#paint4_linear_1_2987)"/>
<path d="M37.1555 101.667C37.6666 103.044 12.9333 104.133 13 101.667C12.5111 100.267 37.2222 99.2 37.1555 101.667Z" fill="url(#paint5_linear_1_2987)"/>
<path d="M25.7556 122.956C27.5334 123.356 25.8667 103.711 26.4223 102.778H25.7556V122.956Z" fill="#F5EC4A"/>
<path d="M18.6888 105.933C19.6888 115.556 33.3333 113.333 31.4666 102.778H18.6888V105.933Z" fill="url(#paint6_linear_1_2987)"/>
</g>
<defs>
<linearGradient id="paint0_linear_1_2987" x1="22.3778" y1="30.0222" x2="22.3778" y2="0" gradientUnits="userSpaceOnUse">
<stop stop-color="#D35B30"/>
<stop offset="0.07" stop-color="#D97338"/>
<stop offset="0.15" stop-color="#DF893E"/>
<stop offset="0.25" stop-color="#E39A44"/>
<stop offset="0.36" stop-color="#E6A547"/>
<stop offset="0.53" stop-color="#E8AC49"/>
<stop offset="1" stop-color="#E8AE4A"/>
</linearGradient>
<linearGradient id="paint1_linear_1_2987" x1="22.4001" y1="26.5333" x2="22.4001" y2="1.46667" gradientUnits="userSpaceOnUse">
<stop stop-color="#E0922F"/>
<stop offset="0.01" stop-color="#E19630"/>
<stop offset="0.08" stop-color="#E7B138"/>
<stop offset="0.16" stop-color="#ECC73F"/>
<stop offset="0.26" stop-color="#F0D844"/>
<stop offset="0.38" stop-color="#F3E347"/>
<stop offset="0.54" stop-color="#F5EA49"/>
<stop offset="1" stop-color="#F5EC4A"/>
</linearGradient>
<linearGradient id="paint2_linear_1_2987" x1="21.8666" y1="21.0445" x2="21.8666" y2="1.46667" gradientUnits="userSpaceOnUse">
<stop stop-color="#F5EC39"/>
<stop offset="0.07" stop-color="#F5ED44"/>
<stop offset="0.32" stop-color="#F6EF63"/>
<stop offset="0.56" stop-color="#F6F079"/>
<stop offset="0.79" stop-color="#F6F186"/>
<stop offset="1" stop-color="#F6F18B"/>
</linearGradient>
<linearGradient id="paint3_linear_1_2987" x1="21.5333" y1="17.2889" x2="21.5333" y2="5.57779" gradientUnits="userSpaceOnUse">
<stop stop-color="#F4F2AA"/>
<stop offset="0.14" stop-color="#F6F5BA"/>
<stop offset="0.51" stop-color="#FBFAE0"/>
<stop offset="0.81" stop-color="#FEFEF7"/>
<stop offset="1" stop-color="white"/>
</linearGradient>
<linearGradient id="paint4_linear_1_2987" x1="23.1555" y1="112.978" x2="27.1555" y2="112.978" gradientUnits="userSpaceOnUse">
<stop stop-color="#B5624F"/>
<stop offset="0.08" stop-color="#B96450"/>
<stop offset="0.64" stop-color="#D0705A"/>
<stop offset="1" stop-color="#D8745D"/>
</linearGradient>
<linearGradient id="paint5_linear_1_2987" x1="12.9777" y1="101.667" x2="37.1777" y2="101.667" gradientUnits="userSpaceOnUse">
<stop stop-color="#B5624F"/>
<stop offset="0.08" stop-color="#B96450"/>
<stop offset="0.64" stop-color="#D0705A"/>
<stop offset="1" stop-color="#D8745D"/>
</linearGradient>
<linearGradient id="paint6_linear_1_2987" x1="18.6888" y1="107.422" x2="31.6444" y2="107.422" gradientUnits="userSpaceOnUse">
<stop stop-color="#B5624F"/>
<stop offset="0.08" stop-color="#B96450"/>
<stop offset="0.64" stop-color="#D0705A"/>
<stop offset="1" stop-color="#D8745D"/>
</linearGradient>
<clipPath id="clip0_1_2987">
<rect width="53" height="124" fill="white"/>
</clipPath>
</defs>
</svg>
