<svg width="55" height="126" viewBox="0 0 55 126" fill="none" xmlns="http://www.w3.org/2000/svg">
<g clip-path="url(#clip0_1_3016)">
<path d="M29.6889 0C28.6 6.66667 22.8222 16.9778 24.4444 25.4C25.8444 30.4889 35.5556 32.7778 37.1556 24.8C35.7459 16.2461 33.2362 7.91033 29.6889 0V0Z" fill="url(#paint0_linear_1_3016)"/>
<path d="M29.8222 1.46667C27.8444 7.37779 21.6 23.6889 26.0222 26.2667C28.0667 19.6 28.9333 27.5556 30.9333 26.4222C31.5778 26.8667 31.6222 20.6222 32.8667 21.4445C34.1111 22.2667 35.0889 24.7778 36.1111 25.8889C39.3111 21.1778 30.3556 5.60001 29.8222 1.46667V1.46667Z" fill="url(#paint1_linear_1_3016)"/>
<path d="M29.8222 1.46667C28.5111 3.6889 20.9334 29.6 28.2445 18.1333C31.4889 23.3556 30.1778 14.2222 34.0222 19.6222C38.0222 21.0889 29.8 2.00001 29.8222 1.46667V1.46667Z" fill="url(#paint2_linear_1_3016)"/>
<path d="M28.8889 8.26666C28.5111 9.71111 23.8444 21.7778 29.2889 15.4667C30.1778 14.6889 34.0222 16.8222 32.7555 13C30.8889 10.4667 30.6444 0.977773 28.8889 8.26666Z" fill="url(#paint3_linear_1_3016)"/>
<path d="M31.1112 27.0444C29.3112 26.6 30.0001 29.8667 29.8889 34.0444C30.4001 46.0444 33.1112 28.6444 31.1112 27.0444V27.0444Z" fill="#825831"/>
<path d="M51.9556 81.6222C44.4445 70.5111 43.0667 82 31.4445 83.9555C19.6223 84.1333 16.3112 62.4444 27 56.2444C35.5556 50.8222 39.0223 63.3333 47.5112 62.2222C58.6223 54.8444 55.1112 43.9111 43.6889 39.2444C-3.84439 21.4667 -14.0888 98.4 28.4445 102.578C39.0667 104.044 62.8889 94.2222 51.9556 81.6222Z" fill="#559A4B"/>
<path d="M50.8445 80.5111C43.3334 69.4 41.9556 80.8889 30.3334 82.8445C18.5112 83.0222 15.2001 61.3333 25.8889 55.1333C34.4667 49.7111 38.0001 62.2222 46.4889 61.0222C57.6001 53.6445 54.0889 42.7111 42.6667 38.0445C-4.86661 20.2667 -15.1111 97.2 27.4223 101.378C37.9556 102.933 61.7778 93.1111 50.8445 80.5111V80.5111Z" fill="#8CBE54"/>
<path d="M30.1778 35.5556C21.736 35.3174 13.6573 38.9917 8.28894 45.5111L30.5112 35.5556H30.1778Z" fill="#8CBE54"/>
<path d="M40.5778 37.3111C35.7778 41.0889 -1.2889 51.2444 1.17777 60.4222L46.4222 40.2444C44.6195 39.0004 42.6525 38.0132 40.5778 37.3111V37.3111Z" fill="#8CBE54"/>
<path d="M22.3778 58.0445C22.8158 57.453 23.3148 56.9092 23.8667 56.4222C19.7778 60 -3.73333 63.8889 0.511118 72.3778C5.64445 69.5556 21.8889 65.3556 22.3778 58.0445V58.0445Z" fill="#8CBE54"/>
<path d="M30.4 54.2C34.4667 54.2 36.2889 57.6889 41.9556 53.8889C53.3333 48.6444 56.6222 49.0667 50.5111 44.5111L28.4889 54.3556C29.1212 54.2569 29.76 54.2049 30.4 54.2V54.2Z" fill="#8CBE54"/>
<path d="M19.6222 69.9778C16.0222 73.3333 -3.33335 75.4222 2.95554 82.9556C7.31109 79.4222 24.0444 78.1556 19.6222 69.9778Z" fill="#8CBE54"/>
<path d="M44.4444 61.4444C47.4666 61.4444 48.8888 59.0444 50.8888 56.0444L41.2222 60.3555C42.156 61.0465 43.2829 61.4273 44.4444 61.4444V61.4444Z" fill="#8CBE54"/>
<path d="M44.4444 75.5556C42.5333 75.5556 41.4 76.4889 39.5111 78.2445L45.4444 75.5556C45.1117 75.5266 44.7771 75.5266 44.4444 75.5556Z" fill="#8CBE54"/>
<path d="M23.3111 80L5.53333 87.9556C6.17777 96.8444 26.1778 83.2444 29.4667 82.8222C27.1193 82.7451 24.9014 81.7282 23.3111 80Z" fill="#8CBE54"/>
<path d="M53.3333 83.8444C52.3555 82.8889 50.2222 78.1111 49.5333 79.9778L13.0444 96.2222C16.5333 104.444 49.1111 84.2889 53.3333 83.8444V83.8444Z" fill="#8CBE54"/>
<path d="M30.0444 101.489C39.077 101.451 47.5779 97.2129 53.0444 90.0222L27.6444 101.356C28.4222 101.422 29.2222 101.489 30.0444 101.489V101.489Z" fill="#8CBE54"/>
<path d="M29.6445 42.2222C44.4889 42.2222 44.7334 50.4445 48.0667 51.6222C49.0667 52 50.6667 48.4445 42.9112 43.1778C33.2 36.6667 25.9112 42.2222 29.6445 42.2222V42.2222Z" fill="white"/>
<path d="M16.8 58.6C20.6445 58.9111 14.5778 66.1778 16.4 70.9778C23.1778 94.2666 7.04447 63.9778 16.8 58.6V58.6Z" fill="#CFE0A4"/>
<path d="M20.6445 54.0667C21.0667 53.8 21.4667 53.5555 22.8667 54.2667C23.7556 55.1778 21.9556 58.8667 19.3556 57.2C18.8223 56.5111 18.9111 55.2889 20.6445 54.0667V54.0667Z" fill="#CCE0AD"/>
<path d="M28.8889 123.244C34.3111 132.333 32.3778 106.533 32.6445 105.467H28.8889V123.244Z" fill="url(#paint4_linear_1_3016)"/>
<path d="M42.4889 104.311C42.9778 105.644 18.9778 106.689 19.0445 104.311C18.5556 102.956 42.5556 101.911 42.4889 104.311Z" fill="url(#paint5_linear_1_3016)"/>
<path d="M31.4222 124.956C33.1556 125.356 31.4222 106.289 32.0667 105.378H31.4222V124.956Z" fill="#6FB353"/>
<path d="M24.5778 108.444C25.5333 117.844 38.8 115.556 36.9555 105.378H24.5778V108.444Z" fill="url(#paint6_linear_1_3016)"/>
</g>
<defs>
<linearGradient id="paint0_linear_1_3016" x1="30.6222" y1="30.0222" x2="30.6222" y2="0" gradientUnits="userSpaceOnUse">
<stop stop-color="#D35B30"/>
<stop offset="0.07" stop-color="#D97338"/>
<stop offset="0.15" stop-color="#DF893E"/>
<stop offset="0.25" stop-color="#E39A44"/>
<stop offset="0.36" stop-color="#E6A547"/>
<stop offset="0.53" stop-color="#E8AC49"/>
<stop offset="1" stop-color="#E8AE4A"/>
</linearGradient>
<linearGradient id="paint1_linear_1_3016" x1="30.6444" y1="26.5333" x2="30.6444" y2="1.46667" gradientUnits="userSpaceOnUse">
<stop stop-color="#E0922F"/>
<stop offset="0.01" stop-color="#E19630"/>
<stop offset="0.08" stop-color="#E7B138"/>
<stop offset="0.16" stop-color="#ECC73F"/>
<stop offset="0.26" stop-color="#F0D844"/>
<stop offset="0.38" stop-color="#F3E347"/>
<stop offset="0.54" stop-color="#F5EA49"/>
<stop offset="1" stop-color="#F5EC4A"/>
</linearGradient>
<linearGradient id="paint2_linear_1_3016" x1="30.1111" y1="21.0445" x2="30.1111" y2="1.46667" gradientUnits="userSpaceOnUse">
<stop stop-color="#F5EC39"/>
<stop offset="0.07" stop-color="#F5ED44"/>
<stop offset="0.32" stop-color="#F6EF63"/>
<stop offset="0.56" stop-color="#F6F079"/>
<stop offset="0.79" stop-color="#F6F186"/>
<stop offset="1" stop-color="#F6F18B"/>
</linearGradient>
<linearGradient id="paint3_linear_1_3016" x1="29.7778" y1="17.2889" x2="29.7778" y2="5.57777" gradientUnits="userSpaceOnUse">
<stop stop-color="#F4F2AA"/>
<stop offset="0.14" stop-color="#F6F5BA"/>
<stop offset="0.51" stop-color="#FBFAE0"/>
<stop offset="0.81" stop-color="#FEFEF7"/>
<stop offset="1" stop-color="white"/>
</linearGradient>
<linearGradient id="paint4_linear_1_3016" x1="28.8889" y1="115.289" x2="32.7778" y2="115.289" gradientUnits="userSpaceOnUse">
<stop stop-color="#417A3B"/>
<stop offset="0.02" stop-color="#417B3B"/>
<stop offset="0.62" stop-color="#509247"/>
<stop offset="1" stop-color="#559A4B"/>
</linearGradient>
<linearGradient id="paint5_linear_1_3016" x1="19.0445" y1="104.289" x2="42.4889" y2="104.289" gradientUnits="userSpaceOnUse">
<stop stop-color="#417A3B"/>
<stop offset="0.02" stop-color="#417B3B"/>
<stop offset="0.62" stop-color="#509247"/>
<stop offset="1" stop-color="#559A4B"/>
</linearGradient>
<linearGradient id="paint6_linear_1_3016" x1="24.5778" y1="109.889" x2="37.1333" y2="109.889" gradientUnits="userSpaceOnUse">
<stop stop-color="#417A3B"/>
<stop offset="0.02" stop-color="#417B3B"/>
<stop offset="0.62" stop-color="#509247"/>
<stop offset="1" stop-color="#559A4B"/>
</linearGradient>
<clipPath id="clip0_1_3016">
<rect width="55" height="126" fill="white"/>
</clipPath>
</defs>
</svg>
