<svg width="59" height="123" viewBox="0 0 59 123" fill="none" xmlns="http://www.w3.org/2000/svg">
<path d="M23.1111 120.556C28.5778 129.733 26.6222 103.689 26.8889 102.556H23.1111V120.556Z" fill="url(#paint0_linear_1_3101)"/>
<path d="M36.8222 101.444C37.3111 102.822 13.1111 103.867 13.1555 101.444C12.6666 100.089 36.8888 99.0444 36.8222 101.444Z" fill="url(#paint1_linear_1_3101)"/>
<path d="M25.6666 122.222C27.4 122.622 25.6666 103.356 26.3111 102.467H25.6666V122.222Z" fill="#F5EC4A"/>
<path d="M18.7555 105.622C19.7333 115.111 33.0888 112.8 31.2444 102.556H18.7555V105.622Z" fill="url(#paint2_linear_1_3101)"/>
<path d="M22.0667 0C4.62223 28.8889 29.9333 38.6222 30 21.6667C27.7778 16.0222 22.6222 3.26667 22.0667 0Z" fill="url(#paint3_linear_1_3101)"/>
<path d="M22.2222 1.0889C20.7778 6.53334 13 14.4222 16.4666 22.7778C18.6889 27.0667 18.2444 26.7111 21.0889 23.0445C21.8666 24.0667 22.7555 26.9556 23.9778 26.0667C24.6222 26.5111 24.6667 20.2667 25.9111 21.0889C27.1555 21.9111 28.1333 24.4445 29.1555 25.5333C32.6444 23.4667 21.8222 5.04445 22.2222 1.0889V1.0889Z" fill="url(#paint4_linear_1_3101)"/>
<path d="M22.4222 1.84445C20 5.42223 12.9111 24.8222 19.3778 20.9333C21.7778 14.0445 22.9333 22.7111 24.4444 17.5333C25.5111 15.7333 27.6889 21.4 28.1333 18.7778C27.8 17.9111 21.6222 4.44445 22.4222 1.84445V1.84445Z" fill="url(#paint5_linear_1_3101)"/>
<path d="M18.9778 10.1556C18.9778 10.4 15.7556 19.8445 19.4889 17.3556C21.4445 14.9333 23.5333 13.8 25.4 15.2445C21.4445 10.5778 24.0222 -0.599991 18.9778 10.1556Z" fill="url(#paint6_linear_1_3101)"/>
<path d="M24.2445 26.6667C22.4445 26.2444 23.1334 29.5111 23.0222 33.6667C23.7334 45.4889 26.1334 28.6444 24.2445 26.6667Z" fill="#825831"/>
<path d="M35.6888 79.3778C33.3333 82.9555 26.9999 83.0444 20.8888 82.9111C21.6444 75.3111 18.6666 60.1555 21.9333 53.6444C38.3777 51.1111 43.9555 67.9778 35.6888 79.3778V79.3778ZM55.6888 54.1111C49.0222 35.2 21.2888 33.3778 3.24438 37.9555C-1.20006 44.1555 3.24438 61.0889 2.19994 68.9333C3.68882 75.9778 -2.44451 94.3333 4.97771 99.7111C42.2222 106.667 66.6666 88.8889 55.5555 54.1111H55.6888Z" fill="#D35F2B"/>
<path d="M34.5778 78.2667C32.2 81.8444 25.8889 81.9333 19.7778 81.8C20.5333 74.2 17.5555 59.0444 20.8222 52.5333C37.2667 49.9333 42.8444 66.8667 34.5778 78.2667ZM54.5778 53C47.9111 34.0889 20 32.2667 2.04443 36.8444C-2.40002 43.0444 2.04443 59.9778 0.999984 67.8222C2.48887 74.8667 -3.64446 93.3333 3.77776 98.6C41.1555 105.556 65.5778 87.8667 54.4889 53H54.5778Z" fill="#E0934A"/>
<path d="M7.53334 35.2667C2.8889 38.0667 -0.266658 35.8 0.422231 43.9778L20 35.2667H7.53334Z" fill="#DB8258"/>
<path d="M32.0889 35.9556C28.2889 39.7556 -4.20002 46.6667 0.733308 55.5556L39.8444 38.1111C37.3474 37.1065 34.7461 36.3835 32.0889 35.9556V35.9556Z" fill="#DB8258"/>
<path d="M25.0889 52.5556C29.5333 55.6889 45.8444 47 49.7555 45.2889C48.4222 36.6889 24.4444 51.9556 21.0889 52.5333L25.0889 52.5556Z" fill="#DB8258"/>
<path d="M19.6666 58.4222C19.6666 56.3777 19.6666 54.6222 19.6666 53.1333C15.0888 56.7111 -2.55561 58.4666 0.911061 67.0444C0.888839 66.8 19.7999 59.2 19.6666 58.4222V58.4222Z" fill="#DB8258"/>
<path d="M19.5111 67.2222C19.5111 66.5556 19.5111 65.7556 19.5111 64.8889C14.6889 68.6667 -2.00002 69.8445 0.733312 78.8222C2.73331 76.7778 22.6 72.1111 19.5111 67.2222Z" fill="#DB8258"/>
<path d="M37.7777 62.2222C41.9555 58.8 60.7333 56.5111 52.8444 49.9556L35.6888 57.7778C36.6602 59.1137 37.3691 60.6219 37.7777 62.2222Z" fill="#DB8258"/>
<path d="M36.8888 74.3556C40.8888 70.8222 61.3333 68.2667 56.6222 59.9778C51.4 63.0444 35.8888 66.1111 36.8888 74.3556Z" fill="#DB8258"/>
<path d="M20 81.7556C19.5778 81.0667 20 80.1556 19.7556 76.4667C15.0667 80.1333 -2.46666 81.8667 0.444447 90.6445L20.4444 81.7556H20Z" fill="#DB8258"/>
<path d="M57.0222 71.4667L1.19995 96.3778C6.46662 103.511 18.1555 93.1111 36.4222 86.2C52.2222 77.3556 55.5555 82.5778 57.0222 71.4667Z" fill="#DB8258"/>
<path d="M50.1333 88.6C50.9392 87.4952 51.6811 86.3452 52.3555 85.1556L21.2444 99.0222C32.2888 99.4889 42.2222 98.3556 50.1333 88.6V88.6Z" fill="#DB8258"/>
<path d="M28.5778 41.9556C45.5111 43.3111 45.0667 52.6667 48.7555 54.2889C49.9111 54.8 52.0222 50.8667 43.6444 44.2C33.1333 35.8444 24.3111 41.6222 28.5778 41.9556Z" fill="white"/>
<path d="M39.4666 83.3555C35.9333 81.8222 44.1111 76.9555 43.9111 71.8C45.1555 47.3555 50.4666 81.6 39.4666 83.3555Z" fill="#FFFDE9"/>
<path d="M34.3556 86.3778C33.9728 86.5292 33.5452 86.5203 33.1691 86.3531C32.7929 86.1859 32.4998 85.8745 32.3556 85.4889C31.8223 84.3334 34.7112 81.4445 36.6223 83.8667C36.8667 84.6889 36.3778 85.7778 34.3556 86.3778Z" fill="#FFF22D"/>
<path d="M8.33327 66.9556C8.32262 67.3787 8.13757 67.7785 7.82195 68.0605C7.50633 68.3424 7.08821 68.4814 6.6666 68.4445C5.39994 68.4445 3.82216 64.7334 6.6666 63.8889C7.71105 63.9556 8.55549 64.8445 8.33327 66.9556V66.9556Z" fill="#FFF22D"/>
<path d="M7.75555 90.2C7.74978 90.5929 7.58656 90.9671 7.30248 91.2387C7.0184 91.5102 6.63724 91.6564 6.24444 91.6444C4.62222 91.6444 3.35555 72.4445 6.68888 71.8222C9.17777 70.5333 7.5111 89.5333 7.75555 90.2Z" fill="#FFF22D"/>
<defs>
<linearGradient id="paint0_linear_1_3101" x1="23.1111" y1="112.533" x2="27.0222" y2="112.533" gradientUnits="userSpaceOnUse">
<stop stop-color="#B5624F"/>
<stop offset="0.08" stop-color="#B96450"/>
<stop offset="0.64" stop-color="#D0705A"/>
<stop offset="1" stop-color="#D8745D"/>
</linearGradient>
<linearGradient id="paint1_linear_1_3101" x1="13.1555" y1="101.444" x2="36.8444" y2="101.444" gradientUnits="userSpaceOnUse">
<stop stop-color="#B5624F"/>
<stop offset="0.08" stop-color="#B96450"/>
<stop offset="0.64" stop-color="#D0705A"/>
<stop offset="1" stop-color="#D8745D"/>
</linearGradient>
<linearGradient id="paint2_linear_1_3101" x1="18.7555" y1="107.089" x2="31.4222" y2="107.089" gradientUnits="userSpaceOnUse">
<stop stop-color="#B5624F"/>
<stop offset="0.08" stop-color="#B96450"/>
<stop offset="0.64" stop-color="#D0705A"/>
<stop offset="1" stop-color="#D8745D"/>
</linearGradient>
<linearGradient id="paint3_linear_1_3101" x1="22.9556" y1="29.9778" x2="22.9556" y2="0" gradientUnits="userSpaceOnUse">
<stop stop-color="#D35B30"/>
<stop offset="0.07" stop-color="#D97338"/>
<stop offset="0.15" stop-color="#DF893E"/>
<stop offset="0.25" stop-color="#E39A44"/>
<stop offset="0.36" stop-color="#E6A547"/>
<stop offset="0.53" stop-color="#E8AC49"/>
<stop offset="1" stop-color="#E8AE4A"/>
</linearGradient>
<linearGradient id="paint4_linear_1_3101" x1="22.8" y1="26.2222" x2="22.8" y2="1.0889" gradientUnits="userSpaceOnUse">
<stop stop-color="#E0922F"/>
<stop offset="0.01" stop-color="#E19630"/>
<stop offset="0.08" stop-color="#E7B138"/>
<stop offset="0.16" stop-color="#ECC73F"/>
<stop offset="0.26" stop-color="#F0D844"/>
<stop offset="0.38" stop-color="#F3E347"/>
<stop offset="0.54" stop-color="#F5EA49"/>
<stop offset="1" stop-color="#F5EC4A"/>
</linearGradient>
<linearGradient id="paint5_linear_1_3101" x1="22.4222" y1="21.4445" x2="22.4222" y2="1.84445" gradientUnits="userSpaceOnUse">
<stop stop-color="#F5EC39"/>
<stop offset="0.07" stop-color="#F5ED44"/>
<stop offset="0.32" stop-color="#F6EF63"/>
<stop offset="0.56" stop-color="#F6F079"/>
<stop offset="0.79" stop-color="#F6F186"/>
<stop offset="1" stop-color="#F6F18B"/>
</linearGradient>
<linearGradient id="paint6_linear_1_3101" x1="21.5333" y1="17.7778" x2="21.5333" y2="5.62223" gradientUnits="userSpaceOnUse">
<stop stop-color="#F4F2AA"/>
<stop offset="0.14" stop-color="#F6F5BA"/>
<stop offset="0.51" stop-color="#FBFAE0"/>
<stop offset="0.81" stop-color="#FEFEF7"/>
<stop offset="1" stop-color="white"/>
</linearGradient>
</defs>
</svg>
