<svg width="48" height="126" viewBox="0 0 48 126" fill="none" xmlns="http://www.w3.org/2000/svg">
<g clip-path="url(#clip0_1_3074)">
<path d="M24.2444 0C22.8222 9.15556 12.6222 21.7556 24.2444 31.1111C38.1555 32.4222 26.4222 5.53333 24.2444 0Z" fill="url(#paint0_linear_1_3074)"/>
<path d="M24.4445 1.46666C23.2223 9.31111 14.9334 17.0222 21.2223 25.9111C22.4223 27.8667 21.8889 22.2222 23.2667 22.1111C25.8445 29.4889 25.4889 26.9333 27.0223 21.1333C37.1556 36.1333 24.6445 0.622218 24.4445 1.46666V1.46666Z" fill="url(#paint1_linear_1_3074)"/>
<path d="M24.4444 1.46667C23.1555 3.6889 15.5555 29.6 22.8666 18.1333C26.1333 23.3556 24.8222 14.2222 28.6444 19.6445C32.5777 21.0889 24.4444 2.00001 24.4444 1.46667V1.46667Z" fill="url(#paint2_linear_1_3074)"/>
<path d="M23.4 8.26667C23 9.71112 18.3334 21.7778 23.7778 15.4667C24.6667 14.6889 28.5111 16.8222 27.2667 13C25.4667 10.4667 25.2223 1 23.4 8.26667Z" fill="url(#paint3_linear_1_3074)"/>
<path d="M25.4666 29.1111C23.6666 28.6667 24.3555 31.9333 24.2444 36.0889C24.6444 48.2889 27.4889 30.4444 25.4666 29.1111V29.1111Z" fill="#825831"/>
<path d="M42.2222 84.3111C28.3556 84.0889 18.8222 89.8 20.7778 79.1333C23.2222 75.8 36.6 80.3778 41.1334 78.7111C46.4889 76.4889 47.8 65.2444 42.2667 60.9333C36.0889 59.4667 28.9334 61.8222 20.7778 61.2V55.9111C26.6667 54.5555 44.8667 61.4 46.5111 51.1111C47.3111 33.7333 32.9334 40.1333 20.1334 39.1778C-2.4222 37.0222 1.55558 40.4444 2.22225 63.2222C4.44447 73.6 -2.2222 90.3333 3.82225 101.489C15.7334 103.711 32.4445 102.867 44.2 101.978C48.2 98.5778 50.1111 84.8222 42.2222 84.3111V84.3111Z" fill="#518FC6"/>
<path d="M41.1556 83.2C27.2889 82.9778 17.7556 88.6889 19.7112 78.0222C22.1556 74.6889 35.5334 79.2667 40.0667 77.6C45.4223 75.3778 46.7334 64.1333 41.2001 59.8222C35.0223 58.3556 27.8667 60.7111 19.7112 60.0889V54.8C25.6223 53.4444 43.7556 60.2889 45.4001 49.8889C46.2001 32.5111 31.8223 38.9111 19.0223 37.9556C-3.53328 35.9111 0.444498 39.3333 1.11116 62.2222C3.33339 72.6 -3.33328 89.3333 2.71116 100.489C14.6223 102.711 31.3334 101.867 43.0889 100.978C47.0889 97.4667 49.0001 83.7111 41.1556 83.2V83.2Z" fill="#5FA7D9"/>
<path d="M14.3555 37.7778C10.1777 38 -2.48893 38.0222 0.555512 46.9778L20.8888 37.9778L14.3555 37.7778Z" fill="#7084C0"/>
<path d="M37.7778 37.7778C37.2667 35.8444 5.53336 51.2444 1.15558 52.8889C0.244472 53.1778 1.04447 53.9555 1.00003 58.5111L43.0445 39.7556C41.6667 38.3516 39.7392 37.6277 37.7778 37.7778V37.7778Z" fill="#7084C0"/>
<path d="M19.7111 60V56.2222C15.1111 59.8445 -2.0445 61.5111 1.28884 70.0445L23.7777 60H19.7111Z" fill="#7084C0"/>
<path d="M29.5556 55.1778C33.6445 55.5333 48.9111 52.7333 44.8667 45.0444L22.8889 54.8667C24.7334 54.9111 26.9334 55.0222 29.5556 55.1778V55.1778Z" fill="#7084C0"/>
<path d="M39.0444 59.3778C38.9111 59.2444 5.42216 74.3778 1.42216 76.0889C0.57772 76.4222 1.28883 76.7333 0.799942 81.9333C0.244386 80 58.9333 61.6444 39.0444 59.3778V59.3778Z" fill="#7084C0"/>
<path d="M21.0222 84.2C19.1111 84.8666 19.8222 81.6666 19.7111 79.5778C15.0222 83.2444 -2.64445 85 0.333328 93.7778L21.8222 84.2H21.0222Z" fill="#7084C0"/>
<path d="M24.8 77.3778C34.6444 76.7334 44.2889 80.4 44.2 68.6667L24.6444 77.3778H24.8Z" fill="#7084C0"/>
<path d="M41.1555 83.2C38.7388 83.1074 36.3402 83.6515 34.2 84.7778L1.62219 99.3111C5.66664 107.422 40.5333 85.9778 45.4444 85.3111C44.4167 83.9839 42.8342 83.2049 41.1555 83.2Z" fill="#7084C0"/>
<path d="M45.3111 97.0444C45.5441 95.051 45.8779 93.0707 46.3111 91.1111L23.7111 101.133C31.1658 102.229 38.7726 100.789 45.3111 97.0444V97.0444Z" fill="#7084C0"/>
<path d="M5.31113 50.5111C6.11113 53.2889 5.93335 44.1778 22.2445 43.5111C24.7556 43.5111 31.3111 41.8 21 41.5333C6.40001 41.1333 3.42224 43.8 5.31113 50.5111V50.5111Z" fill="white"/>
<path d="M9.84448 91.1111C9.82026 90.2607 9.11736 89.5875 8.2667 89.6C7.00003 89.6 5.42226 93.3334 8.2667 94.0445C9.22226 94.1334 10.0667 93.3334 9.84448 91.1111Z" fill="#FFFDE3"/>
<path d="M9.26666 67.9111C9.26088 67.5182 9.09766 67.144 8.81359 66.8725C8.52951 66.6009 8.14835 66.4547 7.75555 66.4667C6.13332 66.4667 4.86666 85.6667 8.19999 86.2889C10.6889 87.5556 9.02221 68.5556 9.26666 67.9111V67.9111Z" fill="#FFFDE3"/>
<path d="M18.6444 123.467C24.2222 132.822 22.2222 106.244 22.5111 105.067H18.6444V123.467Z" fill="url(#paint4_linear_1_3074)"/>
<path d="M32.6666 103.956C33.1555 105.333 8.42218 106.4 8.48885 103.956C7.99996 102.556 32.7111 101.489 32.6666 103.956Z" fill="url(#paint5_linear_1_3074)"/>
<path d="M21.2444 125.244C23.0222 125.644 21.3777 106 21.9111 105.067H21.2444V125.244Z" fill="#F5EC4A"/>
<path d="M14.2 108.222C15.2 117.889 28.8888 115.556 26.9555 105.067H14.2V108.222Z" fill="url(#paint6_linear_1_3074)"/>
</g>
<defs>
<linearGradient id="paint0_linear_1_3074" x1="24.8666" y1="31.2" x2="24.8666" y2="0" gradientUnits="userSpaceOnUse">
<stop stop-color="#D35B30"/>
<stop offset="0.07" stop-color="#D97338"/>
<stop offset="0.15" stop-color="#DF893E"/>
<stop offset="0.25" stop-color="#E39A44"/>
<stop offset="0.36" stop-color="#E6A547"/>
<stop offset="0.53" stop-color="#E8AC49"/>
<stop offset="1" stop-color="#E8AE4A"/>
</linearGradient>
<linearGradient id="paint1_linear_1_3074" x1="24.8889" y1="26.6444" x2="24.8889" y2="1.44444" gradientUnits="userSpaceOnUse">
<stop stop-color="#E0922F"/>
<stop offset="0.01" stop-color="#E19630"/>
<stop offset="0.08" stop-color="#E7B138"/>
<stop offset="0.16" stop-color="#ECC73F"/>
<stop offset="0.26" stop-color="#F0D844"/>
<stop offset="0.38" stop-color="#F3E347"/>
<stop offset="0.54" stop-color="#F5EA49"/>
<stop offset="1" stop-color="#F5EC4A"/>
</linearGradient>
<linearGradient id="paint2_linear_1_3074" x1="24.6888" y1="21.0445" x2="24.6888" y2="1.46667" gradientUnits="userSpaceOnUse">
<stop stop-color="#F5EC39"/>
<stop offset="0.07" stop-color="#F5ED44"/>
<stop offset="0.32" stop-color="#F6EF63"/>
<stop offset="0.56" stop-color="#F6F079"/>
<stop offset="0.79" stop-color="#F6F186"/>
<stop offset="1" stop-color="#F6F18B"/>
</linearGradient>
<linearGradient id="paint3_linear_1_3074" x1="24.3334" y1="17.2889" x2="24.3334" y2="5.57778" gradientUnits="userSpaceOnUse">
<stop stop-color="#F4F2AA"/>
<stop offset="0.14" stop-color="#F6F5BA"/>
<stop offset="0.51" stop-color="#FBFAE0"/>
<stop offset="0.81" stop-color="#FEFEF7"/>
<stop offset="1" stop-color="white"/>
</linearGradient>
<linearGradient id="paint4_linear_1_3074" x1="18.6444" y1="115.267" x2="22.6444" y2="115.267" gradientUnits="userSpaceOnUse">
<stop stop-color="#4F8AB3"/>
<stop offset="0.15" stop-color="#5290BB"/>
<stop offset="0.67" stop-color="#5CA2D2"/>
<stop offset="1" stop-color="#5FA8DA"/>
</linearGradient>
<linearGradient id="paint5_linear_1_3074" x1="8.48885" y1="103.956" x2="32.6666" y2="103.956" gradientUnits="userSpaceOnUse">
<stop stop-color="#4F8AB3"/>
<stop offset="0.15" stop-color="#5290BB"/>
<stop offset="0.67" stop-color="#5CA2D2"/>
<stop offset="1" stop-color="#5FA8DA"/>
</linearGradient>
<linearGradient id="paint6_linear_1_3074" x1="14.2" y1="109.711" x2="27.1333" y2="109.711" gradientUnits="userSpaceOnUse">
<stop stop-color="#4F8AB3"/>
<stop offset="0.15" stop-color="#5290BB"/>
<stop offset="0.67" stop-color="#5CA2D2"/>
<stop offset="1" stop-color="#5FA8DA"/>
</linearGradient>
<clipPath id="clip0_1_3074">
<rect width="48" height="126" fill="white"/>
</clipPath>
</defs>
</svg>
