<svg width="49" height="124" viewBox="0 0 49 124" fill="none" xmlns="http://www.w3.org/2000/svg">
<g clip-path="url(#clip0_1_3160)">
<path d="M24.2 27.4445C22.4 27 23.0889 30.2889 22.9778 34.4445C23.4889 46.4667 26.1778 29.0445 24.2 27.4445V27.4445Z" fill="#825831"/>
<path d="M21.8889 0C20.8 6.66667 15 16.9778 16.6 25.4C18 30.5111 27.7111 32.7778 29.2889 24.8C27.9103 16.2469 25.4227 7.91 21.8889 0V0Z" fill="url(#paint0_linear_1_3160)"/>
<path d="M22.0223 1.46667C20.0001 7.37779 13.8001 23.7556 18.2223 26.2667C20.2667 19.6 21.1334 27.5556 23.1334 26.4222C23.7778 26.8667 23.8223 20.6222 25.0667 21.4445C26.3112 22.2667 27.289 24.7778 28.3112 25.8889C31.5112 21.1556 22.5556 5.60001 22.0223 1.46667V1.46667Z" fill="url(#paint1_linear_1_3160)"/>
<path d="M22.0223 1.46667C20.7112 3.6889 13.1334 29.6 20.4445 18.1333C23.689 23.3556 22.3779 14.2222 26.2223 19.6445C30.2223 21.0889 22.0001 2.00001 22.0223 1.46667V1.46667Z" fill="url(#paint2_linear_1_3160)"/>
<path d="M21.0223 8.26667C20.6445 9.71112 15.9779 21.7778 21.4223 15.5556C22.3112 14.7778 26.1556 16.9111 24.889 13.0889C23.089 10.4667 22.8445 1.00001 21.0223 8.26667V8.26667Z" fill="url(#paint3_linear_1_3160)"/>
<path d="M22.8445 54.3333C28.8889 52.8889 46.6667 59.4889 48.1334 49.4445C47.5334 46.4222 48.6889 37.8 42.7556 36.5111C29.7556 36.1111 19.0667 37.8667 6.82224 36.9778C-2.99998 37.3334 3.44446 62.7111 2.15557 66.3111C4.37779 70.3333 -3.04443 93.1333 4.91113 100.067C24.7111 104.667 21.8889 93.8667 21.1556 77.1111C26.6667 75.4222 43.7111 82.0222 45.6 72.1556C48.1333 55.0889 36.3111 58.6889 21.1556 59.3111C21.6445 58.3111 19.4667 53.1778 22.8445 54.3333V54.3333Z" fill="#86358F"/>
<path d="M21.7334 53.3333C27.8445 51.8889 45.4889 58.4889 47.0223 48.4445C46.4223 45.4222 47.5778 36.8 41.6445 35.5111C28.6445 35.1111 17.9556 36.8667 5.71115 35.9778C-4.11107 36.3334 2.33338 61.7111 1.04449 65.3111C3.26671 69.3333 -4.15551 92.1333 3.80004 99.0667C23.6 103.556 20.7778 92.7556 20 76C25.5112 74.3111 42.5556 80.9111 44.4445 71.0445C46.9778 53.9778 35.1556 57.5778 20 58.2C20.5334 57.2 18.3556 52.0667 21.7334 53.3333V53.3333Z" fill="#8F579E"/>
<path d="M17.8889 36.0444C12.7334 36.5333 -1.88885 33.3333 0.377814 44.4444L19.0667 36.1111L17.8889 36.0444Z" fill="#9263A5"/>
<path d="M39.6667 35.2444C34.4 34.1333 19.8445 42.0222 5.75557 48.0889C1.19209e-05 51.4 0.422234 47.6444 0.77779 55.8667L44.0889 36.5333C42.823 35.5755 41.249 35.1167 39.6667 35.2444V35.2444Z" fill="#9263A5"/>
<path d="M20.0001 58.2V53.3333C15.5556 56.4666 -2.64438 59.7111 1.06673 67.3778L21.7556 58.1555L20.0001 58.2Z" fill="#9263A5"/>
<path d="M21.7334 53.3333C26.9778 54.0445 50.3334 51.9111 46.4 41.7111L20.3556 53.3333H21.7334Z" fill="#9263A5"/>
<path d="M38.9556 57.5778C38.2667 56 7.71116 70.9111 1.77783 73.1333C0.222271 73.8 1.26672 73.1333 0.800049 79.1333L43.6889 60C42.6251 58.441 40.8424 57.5287 38.9556 57.5778V57.5778Z" fill="#9263A5"/>
<path d="M20 76.6889C15.3778 80.3556 -2.62219 82.2222 0.377807 91.1111C4.84447 87.4 23.6667 85.2667 20 76.6889Z" fill="#9263A5"/>
<path d="M22.6667 75.9555C27.7112 75.9555 47.3556 76.9333 44.3779 65.8222L21.6667 75.9555H22.6667Z" fill="#9263A5"/>
<path d="M20.4445 93.6C20.4445 92.2222 20.4445 90.4 20.4445 88.2L1.17786 96.7556C3.64452 102.933 16.9779 95.3111 20.4445 93.6V93.6Z" fill="#9263A5"/>
<path d="M5.26672 48.8889C6.08894 51.6667 5.86671 42.5556 22.1778 41.8889C24.7112 41.8889 31.2667 40.1778 20.9778 39.8889C6.37782 39.5778 3.3556 42.2222 5.26672 48.8889V48.8889Z" fill="white"/>
<path d="M9.51115 58.6889C9.50538 59.0995 9.33513 59.4907 9.03856 59.7747C8.74198 60.0588 8.34386 60.212 7.93338 60.2C6.64449 60.2 5.06671 56.4889 7.93338 55.6445C8.88893 55.7111 9.71115 56.6 9.51115 58.6889V58.6889Z" fill="#FFF22D"/>
<path d="M8.88888 81.9556C8.85318 82.764 8.18697 83.4008 7.37777 83.4C5.75554 83.4 4.46666 64.2 7.79999 63.5778C10.3333 62.2223 8.66666 81.2889 8.88888 81.9556Z" fill="#FFF22D"/>
<path d="M10.8 121.178C16.4 130.556 14.4 103.956 14.6889 102.778H10.8V121.178Z" fill="url(#paint4_linear_1_3160)"/>
<path d="M24.8223 101.667C25.3112 103.044 0.600083 104.111 0.666749 101.667C0.155638 100.267 24.889 99.2 24.8223 101.667Z" fill="url(#paint5_linear_1_3160)"/>
<path d="M13.3334 122.956C15.1112 123.356 13.3334 103.711 14 102.778H13.3334V122.956Z" fill="#F5EC4A"/>
<path d="M6.35559 105.933C7.35559 115.556 21.0223 113.333 19.1334 102.778H6.35559V105.933Z" fill="url(#paint6_linear_1_3160)"/>
</g>
<defs>
<linearGradient id="paint0_linear_1_3160" x1="22.8" y1="30.0222" x2="22.8" y2="0" gradientUnits="userSpaceOnUse">
<stop stop-color="#D35B30"/>
<stop offset="0.07" stop-color="#D97338"/>
<stop offset="0.15" stop-color="#DF893E"/>
<stop offset="0.25" stop-color="#E39A44"/>
<stop offset="0.36" stop-color="#E6A547"/>
<stop offset="0.53" stop-color="#E8AC49"/>
<stop offset="1" stop-color="#E8AE4A"/>
</linearGradient>
<linearGradient id="paint1_linear_1_3160" x1="22.8445" y1="26.5333" x2="22.8445" y2="1.46667" gradientUnits="userSpaceOnUse">
<stop stop-color="#E0922F"/>
<stop offset="0.01" stop-color="#E19630"/>
<stop offset="0.08" stop-color="#E7B138"/>
<stop offset="0.16" stop-color="#ECC73F"/>
<stop offset="0.26" stop-color="#F0D844"/>
<stop offset="0.38" stop-color="#F3E347"/>
<stop offset="0.54" stop-color="#F5EA49"/>
<stop offset="1" stop-color="#F5EC4A"/>
</linearGradient>
<linearGradient id="paint2_linear_1_3160" x1="22.3112" y1="21.0445" x2="22.3112" y2="1.46667" gradientUnits="userSpaceOnUse">
<stop stop-color="#F5EC39"/>
<stop offset="0.07" stop-color="#F5ED44"/>
<stop offset="0.32" stop-color="#F6EF63"/>
<stop offset="0.56" stop-color="#F6F079"/>
<stop offset="0.79" stop-color="#F6F186"/>
<stop offset="1" stop-color="#F6F18B"/>
</linearGradient>
<linearGradient id="paint3_linear_1_3160" x1="21.9779" y1="17.2889" x2="21.9779" y2="5.57779" gradientUnits="userSpaceOnUse">
<stop stop-color="#F4F2AA"/>
<stop offset="0.14" stop-color="#F6F5BA"/>
<stop offset="0.51" stop-color="#FBFAE0"/>
<stop offset="0.81" stop-color="#FEFEF7"/>
<stop offset="1" stop-color="white"/>
</linearGradient>
<linearGradient id="paint4_linear_1_3160" x1="10.8" y1="112.978" x2="14.8" y2="112.978" gradientUnits="userSpaceOnUse">
<stop stop-color="#764682"/>
<stop offset="0.58" stop-color="#875296"/>
<stop offset="1" stop-color="#8F579E"/>
</linearGradient>
<linearGradient id="paint5_linear_1_3160" x1="0.644527" y1="101.667" x2="24.8445" y2="101.667" gradientUnits="userSpaceOnUse">
<stop stop-color="#764682"/>
<stop offset="0.58" stop-color="#875296"/>
<stop offset="1" stop-color="#8F579E"/>
</linearGradient>
<linearGradient id="paint6_linear_1_3160" x1="6.35559" y1="107.422" x2="19.3111" y2="107.422" gradientUnits="userSpaceOnUse">
<stop stop-color="#764682"/>
<stop offset="0.58" stop-color="#875296"/>
<stop offset="1" stop-color="#8F579E"/>
</linearGradient>
<clipPath id="clip0_1_3160">
<rect width="49" height="124" fill="white"/>
</clipPath>
</defs>
</svg>
