<svg width="60" height="127" viewBox="0 0 60 127" fill="none" xmlns="http://www.w3.org/2000/svg">
<path d="M27.0667 0C9.62223 28.8889 34.9333 38.6222 35 21.6667C32.7778 16.0222 27.6222 3.26667 27.0667 0Z" fill="url(#paint0_linear_1_3132)"/>
<path d="M27.3112 1.0889C25.8668 6.53334 18.0668 14.4222 21.5556 22.7778C23.7779 27.0667 23.3334 26.7111 26.1556 23.0445C26.9334 24.0667 27.8445 26.9556 29.0668 26.0667C29.689 26.5111 29.7334 20.2667 30.9779 21.0889C32.2223 21.9111 33.2001 24.4445 34.2445 25.5333C37.6445 23.4667 26.8001 5.04445 27.3112 1.0889V1.0889Z" fill="url(#paint1_linear_1_3132)"/>
<path d="M27.4223 1.84445C25.0001 5.42223 17.8889 24.8222 24.4445 20.9333C26.8445 14.0445 28.0001 22.7111 29.4889 17.5333C30.5778 15.7333 32.7334 21.4 33.2001 18.7778C32.8001 17.9111 26.6667 4.44445 27.4223 1.84445V1.84445Z" fill="url(#paint2_linear_1_3132)"/>
<path d="M23.9779 10.1556C23.9779 10.4 20.7334 19.8445 24.4668 17.3556C26.4445 14.9333 28.5112 13.8 30.4001 15.2445C26.4445 10.5778 29.0223 -0.599991 23.9779 10.1556Z" fill="url(#paint3_linear_1_3132)"/>
<path d="M29.7334 28.3555C27.9334 27.9111 28.6222 31.1778 28.5111 35.3555C29 47.3555 31.7111 29.9778 29.7334 28.3555V28.3555Z" fill="#825831"/>
<path d="M29.9333 124.444C35.3556 133.533 33.4222 107.733 33.6889 106.667H29.9333V124.444Z" fill="url(#paint4_linear_1_3132)"/>
<path d="M43.5334 105.489C44 106.844 20.0223 107.867 20.0889 105.489H20C19.5112 104.133 43.5112 103.089 43.4445 105.489H43.5334Z" fill="url(#paint5_linear_1_3132)"/>
<path d="M32.4667 126.133C34.2 126.533 32.5778 107.467 33.1111 106.578H32.4667V126.133Z" fill="#6FB353"/>
<path d="M25.6223 109.622C26.5779 119.022 39.8445 116.733 38.0001 106.578H25.6223V109.622Z" fill="url(#paint6_linear_1_3132)"/>
<path d="M59.8223 94.5778C56.0668 80.4889 67.9334 62.1333 44.8001 65.1333C41.8441 65.2943 39.4473 67.5873 39.1557 70.5333C45.6223 91.1778 18.3779 88.1111 20.689 66.9555C27.7112 44.8889 34.7112 59.8667 48.089 64.1555C53.2223 60.6222 61.1779 53.8222 54.4001 47.3778C-7.02212 -1.31112 -21.2888 126.667 48.5557 98.6444C52.7334 101 59.5112 102.089 59.8223 94.5778V94.5778Z" fill="#559A4B"/>
<path d="M58.7111 93.4667C54.9556 79.3778 66.8222 61.0222 43.6889 64.0222C40.7329 64.1832 38.3361 66.4762 38.0445 69.4222C44.5111 90.0667 17.2667 87 19.5778 65.8444C26.6 43.7778 33.6 58.7556 46.9778 63.0444C52.1111 59.5111 60 52.7111 53.3334 46.2667C-8.13332 -2.42223 -22.4 125.444 47.4445 97.5333C51.6222 100 58.4 100.978 58.7111 93.4667V93.4667Z" fill="#8CBE54"/>
<path d="M8.37781 45.4L30.3334 35.5556C21.9106 35.3871 13.855 38.9991 8.37781 45.4V45.4Z" fill="#8CBE54"/>
<path d="M44.0889 38.9111C40 35.0889 29.9778 42.5556 15.5556 48.3333C3.44444 54.6889 3.44444 50.3778 1 60.3778L46.3111 40.1556C45.5556 39.7333 44.8444 39.2889 44.0889 38.9111V38.9111Z" fill="#8CBE54"/>
<path d="M22.6667 58.4889C26.3778 53.2 32.6889 54.1556 36.8889 56L54.6667 48.0889C51.0001 40.1111 44.3112 48.4222 28.0001 54.4C9.66672 64.6 -1.79994 62.4445 0.2445 72.3556C6.48894 68.5111 20.4223 66.4667 22.6667 58.4889V58.4889Z" fill="#8CBE54"/>
<path d="M45.3111 63.3111C48.0667 63.5778 53.6445 57.6222 55.6889 53.7111L40.4445 60.5333C41.5465 62.1656 43.3452 63.1923 45.3111 63.3111V63.3111Z" fill="#8CBE54"/>
<path d="M43.689 64.0222C41.6481 63.9742 39.7454 65.0493 38.7334 66.8222L44.9556 64.0445L43.689 64.0222Z" fill="#8CBE54"/>
<path d="M19.4667 69.8889C15.9112 73.1778 -3.66661 75.4 2.82227 82.8667C7.13338 79.3556 24.1556 77.9556 19.4667 69.8889Z" fill="#8CBE54"/>
<path d="M55.9779 65.2444C51.5334 68.8667 34.6668 70.0444 38.689 78.5778C41.4223 75.8444 64.7112 71.2444 55.9779 65.2444V65.2444Z" fill="#8CBE54"/>
<path d="M23.4667 79.7556L5.44446 87.8C6.2889 96.5556 25.4445 83.4667 28.7111 82.9556C26.6621 82.486 24.8214 81.3629 23.4667 79.7556Z" fill="#8CBE54"/>
<path d="M57.9556 78.2C57.9556 77.6667 57.9556 76.9111 57.9556 75.9778L13.0222 95.9778C16.6667 98.7111 18.8889 99.8 22.9333 97.1111C35.9555 89.9111 60.8889 83.9333 57.9556 78.2Z" fill="#8CBE54"/>
<path d="M58.3112 87.5333L27.2001 101.444C32.2667 102.378 63.689 97.0889 58.3112 87.5333Z" fill="#8CBE54"/>
<path d="M30.3334 43.8444C45.889 43.8444 46.1779 52.4889 49.7112 53.7333C50.8001 54.1111 52.4223 50.3555 44.289 44.8444C34.089 37.9111 26.4223 43.8222 30.3334 43.8444V43.8444Z" fill="white"/>
<path d="M15.5556 62.5111C19.4223 62.2667 14.3778 70.3333 16.9334 74.8222C26.8445 96.9111 6.6667 69.2222 15.5556 62.5111V62.5111Z" fill="#CFE0A4"/>
<path d="M18.7779 54.5556C19.2001 54.2889 19.6001 54.0444 21.0001 54.7555C21.889 55.6667 20.089 59.3556 17.5112 57.6667C16.9557 57 17.0668 55.7778 18.7779 54.5556V54.5556Z" fill="#CCE0AD"/>
<path d="M54.2444 91.4222C54.2387 91.8152 54.0754 92.1894 53.7914 92.4609C53.5073 92.7325 53.1261 92.8786 52.7333 92.8667C51.1111 92.8667 49.8444 73.6667 53.1778 73.0445C55.6667 71.7556 53.9778 90.7556 54.2444 91.4222V91.4222Z" fill="#FFF22D"/>
<defs>
<linearGradient id="paint0_linear_1_3132" x1="27.9556" y1="29.9778" x2="27.9556" y2="0" gradientUnits="userSpaceOnUse">
<stop stop-color="#D35B30"/>
<stop offset="0.07" stop-color="#D97338"/>
<stop offset="0.15" stop-color="#DF893E"/>
<stop offset="0.25" stop-color="#E39A44"/>
<stop offset="0.36" stop-color="#E6A547"/>
<stop offset="0.53" stop-color="#E8AC49"/>
<stop offset="1" stop-color="#E8AE4A"/>
</linearGradient>
<linearGradient id="paint1_linear_1_3132" x1="27.7779" y1="26.2222" x2="27.7779" y2="1.0889" gradientUnits="userSpaceOnUse">
<stop stop-color="#E0922F"/>
<stop offset="0.01" stop-color="#E19630"/>
<stop offset="0.08" stop-color="#E7B138"/>
<stop offset="0.16" stop-color="#ECC73F"/>
<stop offset="0.26" stop-color="#F0D844"/>
<stop offset="0.38" stop-color="#F3E347"/>
<stop offset="0.54" stop-color="#F5EA49"/>
<stop offset="1" stop-color="#F5EC4A"/>
</linearGradient>
<linearGradient id="paint2_linear_1_3132" x1="27.4223" y1="21.4445" x2="27.4223" y2="1.84445" gradientUnits="userSpaceOnUse">
<stop stop-color="#F5EC39"/>
<stop offset="0.07" stop-color="#F5ED44"/>
<stop offset="0.32" stop-color="#F6EF63"/>
<stop offset="0.56" stop-color="#F6F079"/>
<stop offset="0.79" stop-color="#F6F186"/>
<stop offset="1" stop-color="#F6F18B"/>
</linearGradient>
<linearGradient id="paint3_linear_1_3132" x1="26.5112" y1="17.7778" x2="26.5112" y2="5.62223" gradientUnits="userSpaceOnUse">
<stop stop-color="#F4F2AA"/>
<stop offset="0.14" stop-color="#F6F5BA"/>
<stop offset="0.51" stop-color="#FBFAE0"/>
<stop offset="0.81" stop-color="#FEFEF7"/>
<stop offset="1" stop-color="white"/>
</linearGradient>
<linearGradient id="paint4_linear_1_3132" x1="29.9333" y1="116.467" x2="33.8" y2="116.467" gradientUnits="userSpaceOnUse">
<stop stop-color="#417A3B"/>
<stop offset="0.02" stop-color="#417B3B"/>
<stop offset="0.62" stop-color="#509247"/>
<stop offset="1" stop-color="#559A4B"/>
</linearGradient>
<linearGradient id="paint5_linear_1_3132" x1="20.0889" y1="105.489" x2="43.5334" y2="105.489" gradientUnits="userSpaceOnUse">
<stop stop-color="#417A3B"/>
<stop offset="0.02" stop-color="#417B3B"/>
<stop offset="0.62" stop-color="#509247"/>
<stop offset="1" stop-color="#559A4B"/>
</linearGradient>
<linearGradient id="paint6_linear_1_3132" x1="25.6223" y1="111.067" x2="38.1779" y2="111.067" gradientUnits="userSpaceOnUse">
<stop stop-color="#417A3B"/>
<stop offset="0.02" stop-color="#417B3B"/>
<stop offset="0.62" stop-color="#509247"/>
<stop offset="1" stop-color="#559A4B"/>
</linearGradient>
</defs>
</svg>
