<svg width="61" height="126" viewBox="0 0 61 126" fill="none" xmlns="http://www.w3.org/2000/svg">
<g clip-path="url(#clip0_1_3186)">
<path d="M9.93335 123.267C15.3778 132.422 13.4445 106.444 13.7111 105.289H9.93335V123.267Z" fill="url(#paint0_linear_1_3186)"/>
<path d="M23.6222 104.2C24.1111 105.556 -8.63476e-06 106.667 -8.63476e-06 104.2C-0.488898 102.844 23.6889 101.778 23.6222 104.2Z" fill="url(#paint1_linear_1_3186)"/>
<path d="M12.4667 125C14.2222 125.4 12.6 106.2 13.1333 105.289H12.4667V125Z" fill="#6FB353"/>
<path d="M5.57776 108.356C6.66665 117.778 20 115.556 18.0666 105.289H5.57776V108.356Z" fill="url(#paint2_linear_1_3186)"/>
<path d="M11.8888 0C10.7999 6.66667 5.02217 16.9778 6.66661 25.4C8.08883 30.4889 17.7777 32.7778 19.3777 24.8C17.9707 16.2428 15.4532 7.90574 11.8888 0V0Z" fill="url(#paint3_linear_1_3186)"/>
<path d="M12.0222 1.46667C10.0444 7.37779 3.79995 23.6889 8.22217 26.2667C10.2666 19.6 11.1333 27.5556 13.1333 26.4222C13.7777 26.8667 13.8222 20.6222 15.0666 21.4445C16.3111 22.2667 17.2888 24.7778 18.3111 25.8889C21.5111 21.1556 12.5555 5.60001 12.0222 1.46667V1.46667Z" fill="url(#paint4_linear_1_3186)"/>
<path d="M12.0222 1.46667C10.7111 3.6889 3.13331 29.6 10.4444 18.1333C13.6889 23.3556 12.3778 14.2222 16.2222 19.6222C20.2222 21.0889 12 2.00001 12.0222 1.46667V1.46667Z" fill="url(#paint5_linear_1_3186)"/>
<path d="M11.1111 8.26667C10.6444 9.71112 5.97777 21.7778 11.4222 15.5556C12.3111 14.7778 16.1333 16.9111 14.8889 13.0889C13.0889 10.4667 12.8444 1.00001 11.1111 8.26667V8.26667Z" fill="url(#paint6_linear_1_3186)"/>
<path d="M13.3333 27.0444C11.5333 26.6 12.1999 29.8667 12.1111 34.0444C12.5777 46.0222 15.3111 28.6667 13.3333 27.0444V27.0444Z" fill="#825831"/>
<path d="M60.2444 83.8889C58.0222 70 63.2888 53.6 58.9333 40.3778C38.4888 32.6222 40.1999 44.6445 41.1555 61.0667C38.7555 61.0667 25.5999 61.1778 21.8666 61.0667C20.8888 55.3111 25.7333 43.2889 18.9999 39.2C6.13328 36.2445 0.555503 39.8889 2.59995 52.5333C4.22217 71.2445 1.84439 82.3111 2.84439 99.2C18.3999 110.311 25.1999 99.5556 22.0666 81C20.1777 75.8889 37.4666 79.8445 40.9999 78.7778C42.1111 84.8445 37.2444 97.7111 43.9999 102.111C60.6666 106 61.8666 99.2889 60.2444 83.8889Z" fill="#CD307B"/>
<path d="M59.1333 82.7778C56.8444 68.8889 62.2222 52.4889 57.7778 39.2667C37.3333 31.5111 39.0444 43.5333 40 59.9556C37.6 59.9556 24.4444 60.0667 20.7111 59.9556C19.7333 54.2 24.5778 42.1778 17.8444 38.0889C4.97776 35.1333 -0.600015 38.7778 1.44443 51.4222C3.06665 70.1333 0.688874 81.2 1.68887 98.0889C17.2444 109.2 24.0444 98.4444 20.9111 79.8889C19.0222 74.7778 36.3111 78.7333 39.8444 77.6667C40.9555 83.7333 36.0889 96.6 42.8444 101C59.5555 104.889 60.7555 98.1778 59.1333 82.7778V82.7778Z" fill="#D676A9"/>
<path d="M15.5555 37.7778C11.1111 38.9778 -1.5556 40.6222 1.31107 48.6667L20.3777 40C19.2383 38.5054 17.432 37.673 15.5555 37.7778V37.7778Z" fill="#D365A0"/>
<path d="M21.2444 45.8C16.6444 50.0444 -1.64449 50.4222 1.82218 60C6.53329 56.3555 24.1555 54.5778 21.2444 45.8V45.8Z" fill="#D365A0"/>
<path d="M45.2444 37.7778C43.7698 37.7356 42.3412 38.2936 41.2856 39.3241C40.23 40.3546 39.6378 41.7693 39.6443 43.2444L51.8666 37.7778H45.2444Z" fill="#D365A0"/>
<path d="M20.7333 60C20.7333 59.2889 20.7333 58.5111 20.7333 57.7778C16.1333 61.3111 -1.15561 62.8667 2.08883 71.5333L27.8888 60C24.4444 60 22.2222 60 20.7333 60V60Z" fill="#D365A0"/>
<path d="M59.4666 43.2667C59.4666 39.0222 57.2444 41.6222 50.8666 44.2222C40.511 49.9778 39.0221 45.8667 39.8666 54.6889C42.6221 51.7778 61.4888 48.7111 59.4666 43.2667Z" fill="#D365A0"/>
<path d="M59.0889 56.9778C59.0889 55.2223 59.2222 53.6223 59.2666 52.1334L2.42219 77.5111C1.48886 77.7334 2.02219 77.8667 1.66663 83.4C1.64442 82.6223 60.3333 58.6889 59.0889 56.9778V56.9778Z" fill="#D365A0"/>
<path d="M58.8444 63.9778L28.2888 77.6222H39.8666V77.9333C44.711 74.1778 61.6666 73 58.8444 63.9778Z" fill="#D365A0"/>
<path d="M1.28886 95.2222C5.73331 91.7111 24.6222 89.3111 20.9555 80.8889C16.3111 84.4445 -1.82225 86.4889 1.28886 95.2222V95.2222Z" fill="#D365A0"/>
<path d="M58.8444 75.5555C54.1332 79.1111 36.6221 81.1333 39.5555 89.7111C43.9999 86.2 62.511 84.2 58.8444 75.5555Z" fill="#D365A0"/>
<path d="M7 101.444C11.7111 100.644 23.0889 102.889 21.2667 92.4222L3.48889 100.333C4.50821 101.074 5.74024 101.464 7 101.444V101.444Z" fill="#D365A0"/>
<path d="M59.3332 87.0889C54.6666 90 31.4444 96.2222 42.511 100.133C51.311 94.6444 61.711 96.1111 59.3332 87.0889V87.0889Z" fill="#D365A0"/>
<path d="M58.4888 99.1111L53.2666 101.333C55.2515 101.408 57.166 100.593 58.4888 99.1111Z" fill="#D365A0"/>
<path d="M12.9778 45.0444C13.7333 45.1555 17.8444 45.0444 17.5555 43.6444C17.2667 42.2444 2.68887 39.2 4.68887 49.5111C5.02221 51.3111 6.06665 43.8 12.9778 45.0444V45.0444Z" fill="white"/>
<path d="M8.60002 91.3112C8.57596 90.4695 7.88651 89.7997 7.04446 89.8C5.75557 89.8 4.17779 93.5334 7.04446 94.3556C7.97779 94.2889 8.88891 93.3334 8.60002 91.3112Z" fill="#FFFDE3"/>
<path d="M8.02224 68.0667C7.98617 67.2653 7.31294 66.6416 6.51113 66.6667C4.91113 66.6667 3.62224 85.8667 6.95557 86.4889C9.44446 87.7111 7.77779 68.7334 8.02224 68.0667V68.0667Z" fill="#FFFDE3"/>
<path d="M55.5556 50.6889C55.5314 51.5393 54.8285 52.2125 53.9778 52.2C52.6889 52.2 51.1111 48.4889 53.9778 47.7555C55 47.7111 55.8223 48.5777 55.5556 50.6889Z" fill="#FFF22D"/>
<path d="M55.0445 73.9333C55.0387 74.3263 54.8755 74.7004 54.5914 74.972C54.3073 75.2435 53.9262 75.3897 53.5334 75.3778C51.9112 75.3778 50.6445 56.2 53.9778 55.5778C56.4667 54.2889 54.7778 73.3333 55.0445 73.9333Z" fill="#FFF22D"/>
</g>
<defs>
<linearGradient id="paint0_linear_1_3186" x1="9.93335" y1="115.267" x2="13.8222" y2="115.267" gradientUnits="userSpaceOnUse">
<stop stop-color="#B46391"/>
<stop offset="0.06" stop-color="#B76593"/>
<stop offset="0.64" stop-color="#CE71A5"/>
<stop offset="1" stop-color="#D676AB"/>
</linearGradient>
<linearGradient id="paint1_linear_1_3186" x1="-8.60645e-06" y1="104.2" x2="23.6444" y2="104.2" gradientUnits="userSpaceOnUse">
<stop stop-color="#B46391"/>
<stop offset="0.06" stop-color="#B76593"/>
<stop offset="0.64" stop-color="#CE71A5"/>
<stop offset="1" stop-color="#D676AB"/>
</linearGradient>
<linearGradient id="paint2_linear_1_3186" x1="5.57776" y1="109.822" x2="18.2222" y2="109.822" gradientUnits="userSpaceOnUse">
<stop stop-color="#B46391"/>
<stop offset="0.06" stop-color="#B76593"/>
<stop offset="0.64" stop-color="#CE71A5"/>
<stop offset="1" stop-color="#D676AB"/>
</linearGradient>
<linearGradient id="paint3_linear_1_3186" x1="12.7999" y1="30.0222" x2="12.7999" y2="0" gradientUnits="userSpaceOnUse">
<stop stop-color="#D35B30"/>
<stop offset="0.07" stop-color="#D97338"/>
<stop offset="0.15" stop-color="#DF893E"/>
<stop offset="0.25" stop-color="#E39A44"/>
<stop offset="0.36" stop-color="#E6A547"/>
<stop offset="0.53" stop-color="#E8AC49"/>
<stop offset="1" stop-color="#E8AE4A"/>
</linearGradient>
<linearGradient id="paint4_linear_1_3186" x1="12.8222" y1="26.5333" x2="12.8222" y2="1.46667" gradientUnits="userSpaceOnUse">
<stop stop-color="#E0922F"/>
<stop offset="0.01" stop-color="#E19630"/>
<stop offset="0.08" stop-color="#E7B138"/>
<stop offset="0.16" stop-color="#ECC73F"/>
<stop offset="0.26" stop-color="#F0D844"/>
<stop offset="0.38" stop-color="#F3E347"/>
<stop offset="0.54" stop-color="#F5EA49"/>
<stop offset="1" stop-color="#F5EC4A"/>
</linearGradient>
<linearGradient id="paint5_linear_1_3186" x1="12.3111" y1="21.0445" x2="12.3111" y2="1.46667" gradientUnits="userSpaceOnUse">
<stop stop-color="#F5EC39"/>
<stop offset="0.07" stop-color="#F5ED44"/>
<stop offset="0.32" stop-color="#F6EF63"/>
<stop offset="0.56" stop-color="#F6F079"/>
<stop offset="0.79" stop-color="#F6F186"/>
<stop offset="1" stop-color="#F6F18B"/>
</linearGradient>
<linearGradient id="paint6_linear_1_3186" x1="11.9778" y1="17.2889" x2="11.9778" y2="5.57779" gradientUnits="userSpaceOnUse">
<stop stop-color="#F4F2AA"/>
<stop offset="0.14" stop-color="#F6F5BA"/>
<stop offset="0.51" stop-color="#FBFAE0"/>
<stop offset="0.81" stop-color="#FEFEF7"/>
<stop offset="1" stop-color="white"/>
</linearGradient>
<clipPath id="clip0_1_3186">
<rect width="61" height="126" fill="white"/>
</clipPath>
</defs>
</svg>
