<svg width="25" height="125" viewBox="0 0 25 125" fill="none" xmlns="http://www.w3.org/2000/svg">
<path d="M10.8222 0C9.39996 9.15556 -0.800039 21.7556 10.8222 31.1111C24.7333 32.4222 13 5.53333 10.8222 0Z" fill="url(#paint0_linear_1_3219)"/>
<path d="M10.9555 1.46666C9.7333 9.31111 1.42219 17.0222 7.71108 25.9111C8.88886 27.8667 8.39997 22.2222 9.77774 22.2222C12.3333 29.6 12 27.0444 13.5333 21.2444C23.7333 36.1333 11.2222 0.622218 10.9555 1.46666V1.46666Z" fill="url(#paint1_linear_1_3219)"/>
<path d="M10.9555 1.46667C9.64444 3.6889 2.06666 29.6 9.37777 18.1333C12.6222 23.3556 11.3111 14.2222 15.1555 19.6445C19.1555 21.0889 10.9333 2.00001 10.9555 1.46667V1.46667Z" fill="url(#paint2_linear_1_3219)"/>
<path d="M9.95553 8.26667C9.57775 9.71112 4.91109 21.7778 10.3555 15.5556C11.2444 14.7778 15.0889 16.9111 13.8222 13.0889C12.0222 10.4667 11.7778 1.00001 9.95553 8.26667V8.26667Z" fill="url(#paint3_linear_1_3219)"/>
<path d="M12.0444 29.1111C10.2444 28.6667 10.9333 31.9333 10.8222 36.0889C11.5333 47.9111 13.9333 31.1111 12.0444 29.1111V29.1111Z" fill="#825831"/>
<path d="M21.3777 82.5111C20.7555 69.6222 21.3777 60.2889 21.6666 45.3111C23.711 33.6667 -2.77785 34.6889 1.6666 47.7778C5.91104 66.1111 -7.22229 106.556 12.4444 101.622C24.4444 103.378 21.4666 93.6889 21.3777 82.5111V82.5111Z" fill="#CC2C29"/>
<path d="M20.2666 81.4C19.6444 68.5111 20.2666 59.1778 20.5555 44.2C22.6 32.5555 -3.88893 33.5778 0.555515 46.6667C4.79996 65 -8.33337 105.444 11.3333 100.511C23.2666 102.222 20.3555 92.5778 20.2666 81.4Z" fill="#D35B4F"/>
<path d="M14.8222 36.7333C9.71111 37.2667 -1.11112 34.8 0.488884 45.0889L17.6222 37.4222C16.7569 36.9733 15.797 36.7372 14.8222 36.7333V36.7333Z" fill="#D1545A"/>
<path d="M20.5555 42.2222C16.1111 45.9111 -2.86667 47.8889 0.911104 56.5333C5.5111 52.9333 23.7555 50.9111 20.5555 42.2222V42.2222Z" fill="#D1545A"/>
<path d="M20.2445 55.4222C20.2445 54.9333 20.2445 54.4667 20.2445 54C15.7334 57.6 -2.22217 59.4667 1.26672 68.0444C4.28895 65.3333 23.1778 62 20.2445 55.4222Z" fill="#D1545A"/>
<path d="M20 68.2444C20 67.5333 20 66.7111 20 65.8C15.0889 69.6222 -1.71112 70.8444 0.933329 79.8444C2.66666 77.9111 23.0667 73.0222 20 68.2444Z" fill="#D1545A"/>
<path d="M20.2667 81.4C20.2667 79.9778 20.2667 78.6445 20.1111 77.4C15.4222 81.0667 -2.46667 82.9111 0.488884 91.7111C1.06666 90.4 22.3556 84.1334 20.2667 81.4Z" fill="#D1545A"/>
<path d="M20.5111 88.8889L1.11108 97.5334C3.6222 103.356 24.0666 97.0667 20.5111 88.8889Z" fill="#D1545A"/>
<path d="M13.3333 44.1111C25.1333 43.0222 9.86662 38.8222 6.11106 43.1111C2.73329 53.7333 4.88884 44.4444 13.3333 44.1111Z" fill="white"/>
<path d="M8.5111 63.6667C8.50533 64.0773 8.33508 64.4684 8.0385 64.7525C7.74193 65.0365 7.34381 65.1897 6.93333 65.1778C5.66666 65.1778 4.08888 61.4667 6.93333 60.7333C7.88888 60.6889 8.73333 61.5778 8.5111 63.6667V63.6667Z" fill="#FFF9B2"/>
<path d="M7.93328 86.9111C7.92751 87.3041 7.76429 87.6782 7.48021 87.9498C7.19614 88.2213 6.81497 88.3675 6.42217 88.3556C4.79995 88.3556 3.53328 69.1556 6.86662 68.5556C9.35551 67.2667 7.68884 86.2667 7.93328 86.9111Z" fill="#FFF9B2"/>
<path d="M10.7999 122.511C16.2666 131.689 14.311 105.644 14.5777 104.489H10.7999V122.511Z" fill="url(#paint4_linear_1_3219)"/>
<path d="M24.4444 103.4C24.9332 104.756 0.733244 105.8 0.777688 103.4C0.288799 102.022 24.511 100.978 24.4444 103.4Z" fill="url(#paint5_linear_1_3219)"/>
<path d="M13.3333 124.244C15.0888 124.644 13.4666 105.4 13.9999 104.489H13.3333V124.244Z" fill="#F5EC4A"/>
<path d="M6.42224 107.578C7.42224 117.044 20.7778 114.756 18.9334 104.489H6.42224V107.578Z" fill="url(#paint6_linear_1_3219)"/>
<defs>
<linearGradient id="paint0_linear_1_3219" x1="11.4222" y1="31.2" x2="11.4222" y2="0" gradientUnits="userSpaceOnUse">
<stop stop-color="#D35B30"/>
<stop offset="0.07" stop-color="#D97338"/>
<stop offset="0.15" stop-color="#DF893E"/>
<stop offset="0.25" stop-color="#E39A44"/>
<stop offset="0.36" stop-color="#E6A547"/>
<stop offset="0.53" stop-color="#E8AC49"/>
<stop offset="1" stop-color="#E8AE4A"/>
</linearGradient>
<linearGradient id="paint1_linear_1_3219" x1="11.4444" y1="26.6444" x2="11.4444" y2="1.44444" gradientUnits="userSpaceOnUse">
<stop stop-color="#E0922F"/>
<stop offset="0.01" stop-color="#E19630"/>
<stop offset="0.08" stop-color="#E7B138"/>
<stop offset="0.16" stop-color="#ECC73F"/>
<stop offset="0.26" stop-color="#F0D844"/>
<stop offset="0.38" stop-color="#F3E347"/>
<stop offset="0.54" stop-color="#F5EA49"/>
<stop offset="1" stop-color="#F5EC4A"/>
</linearGradient>
<linearGradient id="paint2_linear_1_3219" x1="11.2444" y1="21.0445" x2="11.2444" y2="1.46667" gradientUnits="userSpaceOnUse">
<stop stop-color="#F5EC39"/>
<stop offset="0.07" stop-color="#F5ED44"/>
<stop offset="0.32" stop-color="#F6EF63"/>
<stop offset="0.56" stop-color="#F6F079"/>
<stop offset="0.79" stop-color="#F6F186"/>
<stop offset="1" stop-color="#F6F18B"/>
</linearGradient>
<linearGradient id="paint3_linear_1_3219" x1="10.9111" y1="17.2889" x2="10.9111" y2="5.57779" gradientUnits="userSpaceOnUse">
<stop stop-color="#F4F2AA"/>
<stop offset="0.14" stop-color="#F6F5BA"/>
<stop offset="0.51" stop-color="#FBFAE0"/>
<stop offset="0.81" stop-color="#FEFEF7"/>
<stop offset="1" stop-color="white"/>
</linearGradient>
<linearGradient id="paint4_linear_1_3219" x1="10.7999" y1="114.489" x2="14.711" y2="114.489" gradientUnits="userSpaceOnUse">
<stop stop-color="#B5624F"/>
<stop offset="0.08" stop-color="#B96450"/>
<stop offset="0.64" stop-color="#D0705A"/>
<stop offset="1" stop-color="#D8745D"/>
</linearGradient>
<linearGradient id="paint5_linear_1_3219" x1="0.844355" y1="103.4" x2="24.5332" y2="103.4" gradientUnits="userSpaceOnUse">
<stop stop-color="#B5624F"/>
<stop offset="0.08" stop-color="#B96450"/>
<stop offset="0.64" stop-color="#D0705A"/>
<stop offset="1" stop-color="#D8745D"/>
</linearGradient>
<linearGradient id="paint6_linear_1_3219" x1="6.42224" y1="109.022" x2="19.1111" y2="109.022" gradientUnits="userSpaceOnUse">
<stop stop-color="#B5624F"/>
<stop offset="0.08" stop-color="#B96450"/>
<stop offset="0.64" stop-color="#D0705A"/>
<stop offset="1" stop-color="#D8745D"/>
</linearGradient>
</defs>
</svg>
