<svg height="189" viewBox="0 0 152 189" width="152" xmlns="http://www.w3.org/2000/svg"><g fill="none"><path d="m131.02 7.92v32.02h-108.66v-34.2l5.5-5.52h95.46z" fill="#d62300"/><path d="m151.3 28.18-47.1 47.44-27.46 5.44-28.56-5.98 75.02-74.98z" fill="#eb390d"/><path d="m28.08 0 75.32 76.62-48.82 6.04-54.58-54.58z" fill="#eb390d"/><path d="m103.12 76.96-26.18.24-63.04-63.02 14.18-14.18 75.76 75.76z" fill="#ff4e2c"/><path d="m86.66 108.9h-22.32c-4.34-29.82 27.38-26.72 22.32 0zm-17.2-5.12h12c2.92-14.5-14.5-14.22-12 0z" fill="#ef9900"/><path d="m75.5 96.78c-3.24 0-4.76-16 0-16.7400749 3.26-.0399251 4.78 15.9600749 0 16.7400749z" fill="#ffc831"/><path d="m106.74 80c.28 10.48-37.16 3.5-53.2 5.4-11.26 1.38-10.16-12.44 0-10.8 17.44 1.52 54.02-4.72 53.2 5.4z" fill="#ffc831"/><path d="m120.28 144c-3.34 60.82-87.12 56.7-88.68 0 3.34-60.82 87.22-56.48 88.68 0z" fill="#ffe853"/><path d="m120.28 144c-.82 44.22-55.76 59.82-80.42 25.78 42.9 26.46 87.6-23.34 60.5-62.78 11.2 7.18 20.28 22.26 19.92 37z" fill="#ffc831"/><path d="m109.72 144c-2.76 46.64-66.5 42.78-67.56 0 2.76-46.56 66.5-42.72 67.56 0z" fill="#ef9900"/><path d="m37.22 144.96c-9.82-10.58 21.02-47.78 27.92-36.96-22.32 9.68-22.38 19.84-27.92 36.96z" fill="#fffce5"/><path d="m106.1 144c-2.36 41.54-59.4 38.2-60.32 0 2.36-41.48 59.38-38.14 60.32 0z" fill="#ffe853"/><path d="m106.1 144c.46 22.42-25.46 37.78-45.28 26 24.88 7.52 48.76-16.4 41.2-41.26 2.698776 4.630863 4.107615 9.900194 4.08 15.26z" fill="#ffc831"/><path d="m68.94 107.68c-3.2.12-.64-6.34 1.7-1.7-.08.54-.16 1.06-1.7 1.7z" fill="#fffce5"/><path d="m71.38 134.42h-.12l-8.02 3.32-1.96-4.68 11.66-7.74h9.78v37.22h-11.34z" fill="#ef9900"/><g fill="#fffce5"><path d="m67.02 82c-1.2-.68-23.72 2.22-15.68-3.42 1.2.56 23.72-2.34 15.68 3.42z"/><path d="m73.3 82c-3.14 0-.58-6.32 1.72-1.7-.08.46-.16.96-1.72 1.7z"/></g></g></svg>