<svg height="169" viewBox="0 0 111 169" width="111" xmlns="http://www.w3.org/2000/svg"><g fill="none"><path d="m28.6 61.62h53.42l28.6-61.62h-53.4z" fill="#eb390d"/><path d="m65.88 95.46h-20.92c-4.26-27.88 25.7-25.1 20.92 0zm-16.12-4.8h11.32c2.66-13.6-13.68-13.34-11.32 0z" fill="#ef9900"/><path d="m55.42 84.1c-3.04 0-4.48-15.06 0-15.72 3.04 0 4.58 15.06 0 15.72z" fill="#ffc831"/><path d="m96 113.56c1.76 36.86-1.62 34-24.84 54.22-37.16 3.1-36.3-1.78-56-24.6-2.82-39.74 1.02-33.18 22.94-55.32 6.48-1.52 30.96-2.58 36.22 1.1 2.9 4.04 22.24 19.38 21.68 24.6z" fill="#ffe853"/><path d="m96 113.56c-1.02 26 6 27.56-14.58 45.28-10.94 12.5-10.68 8.62-32.66 9.18-10.26 2-14.34-4.12-21.52-11.46 37.5 16 73.2-22.36 56.44-58.2 2.78 3.64 12.32 9.9 12.32 15.2z" fill="#ffc831"/><path d="m87.22 116.58c1.5 28.78-1.28 25.86-18.76 42.22-5.34.36-23.14 2-27.72-1.18-2.82-4-16.76-14.14-17-19.26-1.5-28.78 1.28-25.88 18.78-42.22 5.32-.36 23.12-2 27.7 1.18 2.82 3.94 16.74 14.14 17 19.26z" fill="#ef9900"/><path d="m82.68 72.68s-44.54 0-53.16 0c-1.06.74-10.8-1.42-9.22-10.88-2.3-15.8 43.52-5.8 60.44-8.42 8.68-2.9 16.46 16.3 1.94 19.3zm-54.38-8h54.22v-3.3h-54.22z" fill="#ffc831"/><path d="m82.02 61.62h-53.42l-28.6-61.62h53.42z" fill="#ff4e2c"/><path d="m20.76 112.84c-6.54.2 16.9-23.16 18.36-20 2.5 2.16-16.74 19.3-18.36 20z" fill="#fffce5"/><path d="m44.1 93.3c-3.84.38-.94-6.94 1.8-1.8-.08.5-.16 1.1-1.8 1.8z" fill="#fffce5"/><path d="m84.96 117.36c1.5 26.64-1.54 24.36-17.44 39.2-4.94.34-21.5 2-25.72-1.1-2.64-3.68-15.58-13.12-15.8-17.88-1.5-26.62 1.56-24.38 17.44-39.2 4.96-.34 21.5-1.9 25.74 1.1 2.62 3.66 15.54 13.14 15.78 17.88z" fill="#ffe853"/><path d="m68.68 130.9c1.88 25.68 1.3 12.84-14.2 10.26-4.46 1.5-10 7.38-12.76 4.7-.88-1.84.1-2.78.7-7.2 4.9-11.26-8.94-11.1-8.24-18.62 1.34-1.54 4.88-.98 9.88-2 7.82 2.24 7.16-16.82 13.44-12.18 5.82 23.46 33.7 4.14 11.18 25.04z" fill="#ef9900"/><path d="m84.96 117.36c-.54 6.62 2 23.36-2.98 25.28-8 7.18-11.84 14-16.54 14.3-7.44-.94-21.28 2.56-25.22-3.06 25.78 7.7 49.6-18.26 40.18-43.18 2.28 2.78 3.6 2.16 4.56 6.66z" fill="#ffc831"/></g></svg>