<svg height="144" viewBox="0 0 180 144" width="180" xmlns="http://www.w3.org/2000/svg"><g fill="none" transform="translate(0 -1)"><path d="m50 61.32c-.3 14-21.06 14-21.6 0 .24-13.92 21-14.08 21.6 0z" fill="#ff4e2c"/><path d="m149.36 62c-.3 14-21.06 14-21.62 0 .26-13.92 21.06-14.08 21.62 0z" fill="#ff4e2c"/><path d="m42 75.72c-6.54 1.8-6-4.66-8.8-13.62-1.7-9.56-5.88-11.22 1.26-14.7z" fill="#ffc831"/><path d="m136 75.72c6.54 1.8 6-4.66 8.8-13.62 1.7-9.56 5.88-11.22-1.26-14.7z" fill="#ef9900"/><path d="m150 26.48-17.42 63.4h-87.26l-17.44-63.4c-.4665023-1.5596438.0587294-3.2464217 1.3282028-4.2655146s3.029916-1.1671814 4.4517972-.3744854c38.66 27.44 23.7 22.68 52-6.42.0887015-.158264.2036742-.3002891.34-.42v-.12l.18-.16c1.4687419-1.1914926 3.5712581-1.1914926 5.04 0 31.82 35.64 16.96 29.88 52.72 7.08 1.435431-1.023033 3.371341-.9858517 4.766431.0915446 1.39509 1.0773962 1.92048 2.9410204 1.293569 4.5884554z" fill="#ffe853"/><path d="m104 61.6c-.82 19.52-28.58 18.58-29.18 0 .8-19.54 28.56-18.6 29.18 0z" fill="#ffc831"/><path d="m100.12 61.6c-.32 13.38-20.52 14.68-21.46 0 .34-13.4 20.48-14.6 21.46 0z" fill="#ff4e2c"/><path d="m100.12 61.6c-.1364285 4.2993748-2.8021291 8.1113194-6.7936121 9.7148467-3.9914829 1.6035274-8.5534846.6952199-11.6263879-2.3148467l15.16-15.18c2.1121594 2.0334175 3.29165 4.8482766 3.26 7.78z" fill="#eb390d"/><path d="m150 26.48-16.7 60.52c-12.42.18-53.72-.96-53.72-.96 32.2-4.78 53.9-39.04 62.42-62.72l2-1.48c1.429416-.9548991 3.309097-.8897241 4.66894.161888 1.359843 1.0516122 1.895718 2.854467 1.33106 4.478112z" fill="#ffc831"/><path d="m131.84 91.62h-85.28c-19.5-11.24 13.12-10.32 42.34-9.72 26.08.4 60.8-3.62 42.94 9.72z" fill="#ffc831"/><path d="m179.48 137.24c.88 12-30.9 5.18-66.3 6.88-52-.28-101.88.52-107.74-.24-11.44-5.5-1.92-23.86 2.56-32.36 24-30.12 36.94-19.3 82.72-21.44 50.04-1.32 83.46-2.26 88.76 47.16z" fill="#eb390d"/><path d="m175.4 118.04c-15.24 19.58-42 8-90.94 10.96-44.68-1.4-69.68 5.72-80-10.96 20.52-36 39.8-26.46 87.82-28 44.42.96 64.06-6.36 83.12 28z" fill="#ff4e2c"/><g fill="#fffce5"><path d="m11.7 117.82c-9.24-8 39.36-34.16 38.7-21.24-16.8 1.38-28.4 8.08-38.7 21.24z"/><path d="m54.76 97c-3.28.14-.96-6.72 1.8-1.8-.08.6-.16 1.14-1.8 1.8z"/><path d="m67.46 45.4c-7.06.58 21.7-31.2 17.64-18.78-3.1 2.74-15.4 18.6-17.64 18.78z"/><path d="m87.26 23.2c-3.16.24-.74-6.66 1.84-2-.44.82.2 1.64-1.84 2z"/></g><path d="m34.24 17.64c-.24 9-13.84 9.74-14.6 0 .24-9 13.84-9.74 14.6 0z" fill="#ffc831"/><path d="m96.18 8.04c-.18 8.96-13.82 9.72-14.58-.02.24-9.02 13.84-9.72 14.58.02z" fill="#ffc831"/><path d="m157.42 17.64c-.24 9-13.84 9.74-14.58 0 .24-9 13.84-9.74 14.58 0z" fill="#ffc831"/></g></svg>