<svg height="171" viewBox="0 0 80 171" width="80" xmlns="http://www.w3.org/2000/svg"><g fill="none" transform="translate(0 -1)"><path d="m56.24 94.44h-33.32c-1.5-12 4.88-8.66 18.94-9.16 11.72 0 14.9-1.82 14.38 9.16zm-29.52-1.82h25.72c1.4-5.42-5.12-3.02-13.62-3.54-8.82 1.14-11.84-3.12-12.1 3.54z" fill="#ffc831"/><path d="m79.32 118.12c1.8 35.72-1.88 33.22-24.12 52.64-36.18 3.1-35.56-2-54.4-23.88-2.8-38.52 1.2-32.5 22.26-53.72 6.3-1.48 30.1-2.52 35.18 1.08 2.82 3.92 21.6 18.76 21.08 23.88z" fill="#ffe853"/><path d="m79.32 118.12c-.92 26.4 5.68 26.58-14.78 44.58-8.92 12.3-16.94 7.46-36.38 8.3-3.04 2.22-11.8-7.04-15.62-11.1 16.0704218 7.060695 34.8368511 3.38285 47.0533154-9.221509s15.3061001-31.47655 7.7466846-47.318491c2.66 3.46 11.92 9.64 11.98 14.76z" fill="#ffc831"/><path d="m70.76 121c1.44 28-1.24 25.1-18.22 40.98-5.18.34-22.46 2-26.9-1.16-2.74-3.82-16.28-13.64-16.52-18.64-1.46-28 1.24-25.12 18.24-40.98 5.16-.36 22.46-2 26.9 1.14 2.72 3.82 16.26 13.74 16.5 18.66z" fill="#ef9900"/><path d="m6.24 117.42c-6.36.18 16.4-22.42 17.76-19.38 2.48 2.06-16.2 18.7-17.76 19.38z" fill="#fffce5"/><path d="m28.9 98.44c-3.74.38-.92-6.74 1.74-1.76-.08.56-.16 1.08-1.74 1.76z" fill="#fffce5"/><path d="m68.56 121.8c1.58 25.76-1.86 24-16.92 38-4.8.34-20.9 1.84-24.98-1.06-2.66-3.54-15.14-12.7-15.34-17.3-1.6-25.76 1.86-24 16.92-38 4.82-.32 20.9-1.84 25 1.08 2.56 3.5 15.1 12.68 15.32 17.28z" fill="#ffe853"/><path d="m52.76 135c2 25.1.82 12.18-13.82 10-4.5 1.54-9.62 7.14-12.36 4.54-.8-1.78 0-2.28.54-6.24 5.04-12.12-8.4-11.18-7.86-18.82 1.04-1.56 7.38-1.32 11.54-2.22 4.34 2 5.78-16.28 11.12-11.54 5.84 22.82 32.64 3.86 10.84 24.28z" fill="#ef9900"/><path d="m68.56 121.8c-.52 6.64 2 22.7-3.04 24.7-8 7.12-11.34 13.44-16 13.74-7.42-.86-20.64 2.5-24.46-2.98 24.96 7.38 48-17.5 39-42 2.3 2.78 3.58 2.18 4.5 6.54z" fill="#ffc831"/><path d="m51.78 89.8h-24.28l-10.22-83.9h43.9z" fill="#ff4e2c"/><path d="m58.98 12.32c-5.62-2-50 5.8-45.22-7.12 3.46-7.7 20.24-2.2 37.44-3.7 8.44-2.38 20.6 5.36 7.78 10.82z" fill="#ffc831"/><g fill="#fffce5"><path d="m34.9 8.74c-2-1.1-20.74 2.88-17.3-2.98 1.18-.76 25.7-2.42 17.3 2.98z"/><path d="m41.34 8.78c-3.24 0-.6-6.48 1.76-1.76-.08.56-.16 1.08-1.76 1.76z"/></g></g></svg>