<svg height="184" viewBox="0 0 110 184" width="110" xmlns="http://www.w3.org/2000/svg"><g fill="none" transform="translate(-1)"><path d="m67 100.44h-23.48c-4.76-31.28 28.92-28.32 23.48 0zm-18-5.4h12.76c2.84-15.36-15.54-15.04-12.76 0z" fill="#ef9900"/><path d="m55.3 87.64c-4.3.24-2.3-10.62-2.7-14.72 4.4-12.3 9.24 13.96 2.7 14.72z" fill="#ffc831"/><path d="m103.74 3.84-21.34 66.9h-53.82l-19.34-66.9z" fill="#ff4e2c"/><path d="m103.74 3.84-21.34 66.9h-.26l-19.36-66.9z" fill="#eb390d"/><path d="m103.94 12.84h-96.94c-9.22-.84-6.76-12.84.18-12.6h96c3.22-1.98 13.54 9.18.76 12.6z" fill="#ffc831"/><path d="m82.14 77.64c-6.44-2.5-70 7.6-58.38-10 3.64-6.12 39.4-1.12 55.64-2.58 5.12-2.44 15.92 8.58 2.74 12.58z" fill="#ffc831"/><path d="m102.14 137.18c-3.48 64-91.9 60-93.6 0 3.48-64.2 92.04-59.72 93.6 0z" fill="#ffe853"/><path d="m102.14 137.18c-.88 46.6-58.8 63.18-84.88 27.2 45.18 28 92.48-24.62 63.84-66.26 11.9 7.52 21.42 23.42 21.04 39.06z" fill="#ffc831"/><path d="m91 137.18c-2.86 49.12-70.16 45.26-71.3 0 2.84-49.18 70.14-45.18 71.3 0z" fill="#ef9900"/><path d="m13.88 139.36c-10.62-11.72 23.12-52.28 30.7-40.66-24.74 10.88-24.6 21.3-30.7 40.66z" fill="#fffce5"/><path d="m87.18 137.18c-2.44 43.76-62.68 40.42-63.68 0 2.44-43.76 62.66-40.42 63.68 0z" fill="#ffe853"/><path d="m87.18 137.18c.54 23.7-27.04 40-47.8 27.54 26.24 8 51.46-17.26 43.48-43.54 2.8414318 4.852505 4.3329917 10.376801 4.32 16z" fill="#ffc831"/><path d="m48.84 98.3c-3.38.12-.68-6.7 1.78-1.8-.08.56-.16 1.1-1.78 1.8z" fill="#fffce5"/><path d="m68.4 140.8c1.88 25.7 1.3 12.86-14.2 10.28-4.48 1.5-10 7.38-12.76 4.7-.9-1.86.1-2.78.68-7.22 4.92-11.24-8.94-11.08-8.22-18.6 1.32-1.54 4.86-1 9.88-2 7.82 2.24 7.14-16.82 13.44-12.18 5.78 23.44 33.78 4.08 11.18 25.02z" fill="#ef9900"/><g fill="#fffce5"><path d="m46.44 73.28c-2-1.14-21.36 2.96-17.82-3.06 1.22-.84 26.48-2.52 17.82 3.06z"/><path d="m53 73.32c-3.32 0-.62-6.68 1.8-1.8 0 .48-.08 1.1-1.8 1.8z"/><path d="m23.64 8.48c-2-1.14-21.36 2.96-17.82-3.06 1.18-.84 26.48-2.52 17.82 3.06z"/><path d="m30.28 8.52c-3.32 0-.62-6.68 1.8-1.8-.08.56-.16 1.1-1.8 1.8z"/></g></g></svg>