<svg height="134" viewBox="0 0 149 134" width="149" xmlns="http://www.w3.org/2000/svg"><g fill="none"><path d="m97.74 75.86c-.58-7.5-18.14-4-22.54-4.74 65.32-49.68-8.2-88.96-25.44-51.12 1.18 4 3.76 6.96 8.8 6.44 19.86-13.22 30.44 4.82 17.02 19.56-8.28 11.26-17.82 18.36-22.96 24.6-4.14 13.36 0 17.84 10 16.5 20.38-1.4 40.14 5.84 35.12-11.24z" fill="#bdd5d6"/><path d="m98.56 79.78c-.62 11.64-10.14 6-26 7.34-14.3-.62-22 3.22-21.2-8.66 22.6-4 54.58-36.9 46.38-61.22 11.8 22.58-7.06 42-22.52 53.88 7.78.76 23.48-3.9 23.34 8.66z" fill="#a1bfbf"/><path d="m104.3 130.12h-59.2c-.64-29.36-1.7-39.84 31.14-37.68 33.6-2.88 27.56 16 28.06 37.68z" fill="#563e03"/><path d="m104.34 133.08c-2.78-1.58-62.66 3.48-61.8-2.52.96-4.82 14.4-1.7 31.38-2.54 17.62.8 40.22-3.04 30.42 5.06z" fill="#c1c0bf"/><path d="m90.4 108.32c3.72 16.74-18.42 9.02-26.32 10.68-4.14-.16-5.64-4.5-5.06-10.26-1.48-9.52 22-4.38 27.04-5.42 2.4832483.3656 4.3272409 2.490015 4.34 5z" fill="#c1c0bf"/><path d="m90.4 108.32v2.36l-24.4 8.32c-1.8393563.318943-3.722371-.236426-5.094255-1.502479s-2.076314-3.098526-1.905745-4.957521l27.04-9.22c2.4911859.356641 4.3457678 2.483455 4.36 5z" fill="#eaeaea"/><path d="m56.5 90.8c-29.18-10.54-41.3-36.8-36.34-64.8l3.5.32c-5.34 28.82 8.56 52 34.28 61.3z" fill="#bdd5d6"/><path d="m24.38 26.62-2.48 1.66c-3.6680478-4.2561532-5.1827424-9.958849-4.1101006-15.474178s4.6142503-10.2346561 9.6101006-12.805822c6.58 7.46 6.04 20.56-3.02 26.62z" fill="#bdd5d6"/><path d="m24.38 26.62-2.48 1.66 5.5-28.28c6.58 7.46 6.04 20.56-3.02 26.62z" fill="#a1bfbf"/><path d="m17.68 41.82 1.76 4.34c-5.6268487.0516392-10.96528763-2.4854773-14.4785956-6.8810159-3.51330798-4.3955387-4.81169374-10.1618273-3.5214044-15.6389841 10.28 0 17.56 7.46 16.24 18.18z" fill="#a1bfbf"/><path d="m19.78 43.2-.34 2.96-18-22.52c9.98-.18 19.56 8.72 18.34 19.56z" fill="#bdd5d6"/><path d="m25.86 67.28 2.56 2.3c-4.747313 3.0253904-10.6219723 3.7002379-15.9316514 1.8301377-5.30967918-1.8701002-9.46478572-6.0774903-11.2683486-11.4101377 4.14179552-2.6996519 9.2589132-3.4478271 14.0002439-2.0469794s8.6301832 4.8098777 10.6397561 9.3269794z" fill="#a1bfbf"/><path d="m27.12 66.9 1.3 2.68-27.2-9.58c8.34-5.38 21.22-2.94 25.9 6.9z" fill="#bdd5d6"/><path d="m42.58 84.6 3.34.9c-2.8307841 4.8564404-7.7323627 8.1464823-13.2991945 8.926697-5.5668319.7802147-11.1840146-1.035579-15.2408055-4.926697 2.4265084-4.3037104 6.6186215-7.3265163 11.4684241-8.2695334 4.8498025-.9430172 9.8691774.288666 13.7315759 3.3695334z" fill="#a1bfbf"/><path d="m43.54 83.7 2.38 1.8-28.54 4c4.94-8.74 17.62-12.44 26.16-5.8z" fill="#bdd5d6"/><path d="m24.2 52.36v3.64c5.5669588-.8826451 10.4177241-4.2787618 13.151732-9.2077873 2.7340078-4.9290256 3.0468753-10.8422013.848268-16.0322127-4.9125168.6423966-9.2957307 3.4080482-11.9903742 7.5654982s-3.4292845 9.2879174-2.0096258 14.0345018z" fill="#a1bfbf"/><path d="m23.38 53.16.82 2.84 14-25.24c-9.94 1.54-17.9 11.94-14.82 22.4z" fill="#bdd5d6"/><path d="m39.26 76.44 2.18 2.94c3.9480788-4.0010712 5.8408507-9.5931389 5.1345241-15.1696073-.7063267-5.5764684-3.9335619-10.5200258-8.7545241-13.4103927-3.5532615 3.4227178-5.4378186 8.2244363-5.161171 13.1502998.2766475 4.9258634 2.6870082 9.4863697 6.601171 12.4897002z" fill="#a1bfbf"/><g fill="#bdd5d6"><path d="m39 77.56 2.36 1.82-3.54-28.58c-7.06 7.02-7.38 20.1 1.18 26.76z"/><path d="m93.18 90.8-1.44-3.2c27.88-10 39.04-34.72 34.28-61.3l3.5-.3c5.48 30.22-9.24 54.84-36.34 64.8z"/><path d="m125.46 27.26 2.48 1.68c3.668048-4.2561532 5.182742-9.958849 4.110101-15.474178-1.072642-5.515329-4.614251-10.2346561-9.610101-12.805822-6.6 7.46-6.04 20.54 3.02 26.6z"/></g><path d="m125.46 27.26 2.48 1.68-5.5-28.28c-6.6 7.46-6.04 20.54 3.02 26.6z" fill="#a1bfbf"/><path d="m131.94 42.26-1.78 4.34c5.624116.0438011 10.957366-2.4953917 14.468927-6.8887441 3.51156-4.3933523 4.813115-10.1550372 3.531073-15.6312559-10.28-.08-17.6 7.44-16.22 18.18z" fill="#a1bfbf"/><path d="m129.84 43.64.32 2.96 18-22.52c-9.98-.08-19.58 8.72-18.32 19.56z" fill="#bdd5d6"/><path d="m123.42 67.66-2.56 2.34c4.736584 3.0282088 10.60129 3.7140003 15.908743 1.8602946 5.307452-1.8537058 9.469937-6.0416416 11.291257-11.3602946-4.126234-2.7068604-9.230359-3.4725154-13.969206-2.0954801-4.738848 1.3770352-8.637785 4.7588396-10.670794 9.2554801z" fill="#a1bfbf"/><path d="m122.16 67.28-1.3 2.72 27.2-9.5c-8.34-5.48-21.22-3.06-25.9 6.78z" fill="#bdd5d6"/><path d="m107 84.56-3.34.88c2.825445 4.862779 7.727881 8.1583332 13.297479 8.9389356 5.569598.7806023 11.189121-1.0402554 15.242521-4.9389356-2.425195-4.3059708-6.619412-7.3293097-11.471235-8.2688691-4.851823-.9395593-9.871458.2995098-13.728765 3.3888691z" fill="#a1bfbf"/><path d="m106.08 83.64-2.36 1.8 28.54 4c-4.94-8.74-17.52-12.42-26.18-5.8z" fill="#bdd5d6"/><path d="m125 52.1v3.66c-5.565672-.8769734-10.417094-4.2688712-13.151713-9.195092-2.734619-4.9262207-3.047536-10.8375103-.848287-16.024908 4.906327.6380701 9.285694 3.396548 11.980208 7.5460989 2.694513 4.149551 3.432849 9.2723352 2.019792 14.0139011z" fill="#a1bfbf"/><path d="m125.74 52.88-.74 2.86-14-25.22c9.86 1.48 17.82 11.9 14.74 22.36z" fill="#bdd5d6"/><path d="m110.36 76.24-2.18 2.94c-3.94239-4.0017683-5.833357-9.5895995-5.131309-15.163083.702049-5.5734834 3.919671-10.5178254 8.731309-13.416917 3.549205 3.4232052 5.432835 8.2216039 5.160161 13.1451025-.272675 4.9234986-2.674652 9.4845509-6.580161 12.4948975z" fill="#a1bfbf"/><path d="m110.52 77.34-2.34 1.82 3.6-28.58c7.08 7.02 7.4 20.1-1.26 26.76z" fill="#bdd5d6"/><path d="m90.82 92.68c-3.04-1.56-44 4.64-33.84-6 2.02-.58 49.82-3.78 33.84 6z" fill="#718987"/><path d="m54.42 20c-10.62-4.58 31.42-18.64 21.34-8.22-4.76-1.9-18.92 5.7-21.34 8.22z" fill="#fff"/><path d="m81.68 12.76c-3.06.12-.88-6.32 1.7-1.7-.08.54-.16 1.06-1.7 1.7z" fill="#fff"/></g></svg>