<svg height="134" viewBox="0 0 149 134" width="149" xmlns="http://www.w3.org/2000/svg"><g fill="none"><path d="m99 53.62c-2.5174947-4.805011-7.1187589-8.1728706-12.46-9.12v-.22c17.42-5.58 14-30.3-.68-35.68-10.76-4.96-38.32-.8-32.86 9.72 4 13.68 9.34 2.22 21.24 5.82 10.2 4.18 4.46 13.84-6 13.24-14 14.2-.94 13.38 10 17.44 12 13.7-10.92 19.14-21.58 11.86-4.22-.52-5.16 7.06-6.58 10v.12c-.5390453 2.347023.7072393 4.7378546 2.94 5.64 23.98 12.66 56.18-2.84 45.98-28.82z" fill="#f79a70"/><path d="m104.3 130.12h-59.2c-.64-29.36-1.7-39.84 31.14-37.68 33.6-2.88 27.56 16 28.06 37.68z" fill="#563e03"/><path d="m104.34 133.08c-2.78-1.58-62.66 3.48-61.8-2.52.96-4.82 14.4-1.7 31.38-2.54 17.62.8 40.22-3.04 30.42 5.06z" fill="#c1c0bf"/><path d="m90.4 108.32c3.72 16.74-18.42 9.02-26.32 10.68-4.14-.16-5.64-4.5-5.06-10.26-1.48-9.52 22-4.38 27.04-5.42 2.4832483.3656 4.3272409 2.490015 4.34 5z" fill="#c1c0bf"/><path d="m90.4 108.32v2.36l-24.4 8.32c-1.8393563.318943-3.722371-.236426-5.094255-1.502479s-2.076314-3.098526-1.905745-4.957521l27.04-9.22c2.4911859.356641 4.3457678 2.483455 4.36 5z" fill="#eaeaea"/><path d="m56.42 90.72c-29.18-10.54-41.28-36.72-36.32-64.72l3.48.34c-5.34 28.8 8.58 52 34.28 61.28z" fill="#f79a70"/><path d="m24.38 26.62-2.48 1.66c-3.6680478-4.2561532-5.1827424-9.958849-4.1101006-15.474178s4.6142503-10.2346561 9.6101006-12.805822c6.58 7.46 6.04 20.56-3.02 26.62z" fill="#f79a70"/><path d="m24.38 26.62-2.48 1.66 5.5-28.28c6.58 7.46 6.04 20.56-3.02 26.62z" fill="#e88158"/><path d="m17.68 41.82 1.76 4.34c-5.6268487.0516392-10.96528763-2.4854773-14.4785956-6.8810159-3.51330798-4.3955387-4.81169374-10.1618273-3.5214044-15.6389841 10.28 0 17.56 7.46 16.24 18.18z" fill="#e88158"/><path d="m19.78 43.2-.34 2.96-18-22.52c9.98-.18 19.56 8.72 18.34 19.56z" fill="#f79a70"/><path d="m25.86 67.28 2.56 2.3c-4.747313 3.0253904-10.6219723 3.7002379-15.9316514 1.8301377-5.30967918-1.8701002-9.46478572-6.0774903-11.2683486-11.4101377 4.14179552-2.6996519 9.2589132-3.4478271 14.0002439-2.0469794s8.6301832 4.8098777 10.6397561 9.3269794z" fill="#e88158"/><path d="m27.12 66.9 1.3 2.68-27.2-9.58c8.34-5.36 21.22-2.94 25.9 6.9z" fill="#f79a70"/><path d="m42.58 84.6 3.34.9c-2.8307841 4.8564404-7.7323627 8.1464823-13.2991945 8.926697-5.5668319.7802147-11.1840146-1.035579-15.2408055-4.926697 2.4265084-4.3037104 6.6186215-7.3265163 11.4684241-8.2695334 4.8498025-.9430172 9.8691774.288666 13.7315759 3.3695334z" fill="#e88158"/><path d="m43.54 83.7 2.38 1.8-28.54 4c4.94-8.74 17.62-12.44 26.16-5.8z" fill="#f79a70"/><path d="m24.2 52.36v3.64c5.5669588-.8826451 10.4177241-4.2787618 13.151732-9.2077873 2.7340078-4.9290256 3.0468753-10.8422013.848268-16.0322127-4.9125168.6423966-9.2957307 3.4080482-11.9903742 7.5654982s-3.4292845 9.2879174-2.0096258 14.0345018z" fill="#e88158"/><path d="m23.38 53.16.82 2.84 14-25.24c-9.94 1.54-17.9 11.94-14.82 22.4z" fill="#f79a70"/><path d="m39.26 76.44 2.18 2.94c3.9480788-4.0010712 5.8408507-9.5931389 5.1345241-15.1696073-.7063267-5.5764684-3.9335619-10.5200258-8.7545241-13.4103927-3.5532615 3.4227178-5.4378186 8.2244363-5.161171 13.1502998.2766475 4.9258634 2.6870082 9.4863697 6.601171 12.4897002z" fill="#e88158"/><g fill="#f79a70"><path d="m39 77.56 2.36 1.82-3.54-28.58c-7.06 7.02-7.38 20.1 1.18 26.76z"/><path d="m93.18 91.16-1.44-3.16c27.86-10 39.04-34.74 34.28-61.32l3.5-.34c5.48 30.26-9.24 54.86-36.34 64.82z"/><path d="m125.24 27.04 2.48 1.68c3.668048-4.2561532 5.182742-9.958849 4.110101-15.474178-1.072642-5.515329-4.614251-10.2346561-9.610101-12.805822-6.6 7.56-6.04 20.54 3.02 26.6z"/></g><path d="m125.24 27.04 2.48 1.68-5.5-28.28c-6.6 7.56-6.04 20.54 3.02 26.6z" fill="#e88158"/><path d="m131.94 42.26-1.78 4.34c5.624116.0438011 10.957366-2.4953917 14.468927-6.8887441 3.51156-4.3933523 4.813115-10.1550372 3.531073-15.6312559-10.28-.08-17.6 7.44-16.22 18.18z" fill="#e88158"/><path d="m129.84 43.64.32 2.96 18-22.52c-9.98-.08-19.58 8.72-18.32 19.56z" fill="#f79a70"/><path d="m123.76 67.72-2.56 2.28c4.733433 3.0283762 10.595769 3.7141823 15.900376 1.8601071 5.304607-1.8540751 9.46331-6.0424525 11.279624-11.3601071-4.130849-2.7028995-9.238764-3.4596019-13.975827-2.0704226-4.737062 1.3891792-8.627317 4.7846623-10.644173 9.2904226z" fill="#e88158"/><path d="m122.48 67.34-1.28 2.66 27.18-9.5c-8.32-5.44-21.2-3-25.9 6.84z" fill="#f79a70"/><path d="m107 85.04-3.32.96c2.830784 4.8564404 7.732363 8.1464823 13.299195 8.926697 5.566831.7802147 11.184014-1.035579 15.240805-4.926697-2.415234-4.319674-6.60641-7.3600335-11.462422-8.3150622-4.856013-.9550286-9.8864.2717325-13.757578 3.3550622z" fill="#e88158"/><path d="m106.06 84.12-2.38 1.88 28.54 4c-4.94-8.8-17.5-12.5-26.16-5.88z" fill="#f79a70"/><path d="m125.42 52.8v3.66c-5.562942-.8899556-10.408214-4.2872584-13.140855-9.2138205s-3.049424-10.8357053-.859145-16.0261795c4.904603.649986 9.279006 3.4140719 11.971676 7.5646309 2.69267 4.1505591 3.433812 9.2717188 2.028324 14.0153691z" fill="#e88158"/><path d="m126.24 53.6-.82 2.86-14-25.24c9.94 1.52 17.9 11.92 14.82 22.38z" fill="#f79a70"/><path d="m110.36 76.88-2.18 2.94c-3.949891-3.9982818-5.845943-9.588377-5.143546-15.1646245.702396-5.5762474 3.925506-10.5215217 8.743546-13.4153755 3.549205 3.4232052 5.432835 8.2216039 5.160161 13.1451025-.272675 4.9234986-2.674652 9.4845509-6.580161 12.4948975z" fill="#e88158"/><path d="m110.52 78-2.34 1.82 3.6-28.58c7.08 7.02 7.4 20.1-1.26 26.76z" fill="#f79a70"/><path d="m90.82 92.68c-3.04-1.56-44 4.64-33.84-6 2.02-.58 49.82-3.78 33.84 6z" fill="#d16843"/><path d="m99 53.62c10.8 27.64-24.7 40.76-46 28.76-2.3031963-.8229443-3.5843094-3.2805899-2.94-5.64 13.6 12.24 49.82 6.26 48.94-23.12z" fill="#e88158"/><path d="m57.7 16.56c-8.84-3.12 20.94-12 20.68-5.34-.74 1.62-1.86 1.44-3.66 1.3-4.92-.76-16.2 3.2-16 3.76-.2970184.2092684-.6577675.3082976-1.02.28z" fill="#fff"/><path d="m81.96 13.88c-3.06-.38.16-6.38 2-1.4-.22.52-.38 1.02-2 1.4z" fill="#fff"/></g></svg>