<svg height="148" viewBox="0 0 117 148" width="117" xmlns="http://www.w3.org/2000/svg"><g fill="none"><path d="m82 9.68c-10.7-1.22-19.82-12.5-26.34-9.02-17.66 13.34-40.92 7.88-41.66 14.94-1.38 47.74-2.42 95.64 44.54 100 49.1-5.34 45.06-54.34 44.52-99.18 1.76-6.18-10.64-3.92-21.06-6.74z" fill="#ffe853"/><path d="m77.82 18.26c-8.24-1.32-15.06-8.16-20.28-8.26-6 5.46-26.28 10.22-34.94 10.66-1.46.54-.2 20.22-.56 31.82-1.74 74.7 81.32 67.52 72.98-8.48 0-29.9 3.66-21.54-17.2-25.74z" fill="#ef9900"/><path d="m91.84 24.96c.96 33.34 2.58 73-33.18 76h-.24c-38.88-4.36-33-46.64-33.18-75.92 2.64-2.62 27.44-4.56 32.5-10.92.4899341-.2781784 1.0900659-.2781784 1.58 0 5.44 6.12 26.28 7.98 32.52 10.84z" fill="#ffe853"/><path d="m22.52 17.68c-1.46.62-4.56-2.36-.86-3.54.52 1.7 28.66-4.54 29.76-7.66 12.76 2.86-26.02 13.4-28.9 11.2z" fill="#fff"/><path d="m58 6.88c-3.16.12-.92-6.52 1.74-1.76-.14.56-.22 1.08-1.74 1.76z" fill="#fff"/><path d="m52.64 44.02h-.12l-8.22 3.42-2-4.82 11.92-7.94h10.04v38.16h-11.62z" fill="#ef9900"/><path d="m91.84 33.76c1.88 32-1.74 64.72-33.18 67.1h-.24c-7.5028756-.160305-14.6595499-3.1875781-20-8.46 36.8 8.2 52.14-31.28 53.42-58.64z" fill="#ffc831"/><path d="m37.82 134.76-29.62 12.36 3.26-14.14-11.46-8.94 31.72-13.26z" fill="#eb390d"/><path d="m15.48 125.76s22.8 9.3 22.36 9-5.22-30.98-5.22-30.98l-13.56.46z" fill="#d62300"/><path d="m78.34 134.76 29.64 12.36-3.26-14.14 11.46-8.94-31.72-13.26z" fill="#eb390d"/><path d="m100.68 125.76s-22.68 9.3-22.34 9 5.22-30.98 5.22-30.98l13.56.46z" fill="#d62300"/><path d="m15.48 125.76v-26c24-17.5 74-9.56 85.36-.22v26.46c-28.36-15.22-74.42-7.32-85.36-.24z" fill="#ff4e2c"/></g></svg>