<svg height="198" viewBox="0 0 122 198" width="122" xmlns="http://www.w3.org/2000/svg"><g fill="none"><path d="m41.76 107.26c-29.6-.5-45.76-33.74-40.9-59.72 1.26-3.54 15.14-1.18 17.34-1.78-.78 9.46 8.58 8 14.56 8v5.4c-6.84.26-16.96 1-19.18-8-8.22-1.14-8 1.16-7.82 9.7-.56 18.42 15.14 40.98 36 41z" fill="#ef9900"/><path d="m80.24 107.26c29.6-.5 45.76-33.74 40.9-59.72-1.26-3.56-15.06-1.18-17.34-1.78.78 9.46-8.58 8-14.56 8v5.4c6.84.26 16.96 1 19.18-8 8.22-1.14 8 1.16 7.82 9.7.58 18.42-15.14 40.98-36 41z" fill="#ef9900"/><path d="m67.04 6c-1.68 13.6-11.26 11.3-12.36 0-.08-7.04 11.54-8.84 12.36 0z" fill="#ffc831"/><path d="m88.74 42.46v18.44h-55.8c.12-4.36-.26-18 .24-22 5.74-33.36 50.94-30.9 55.34-.04.1547584 1.1936347.2282609 2.396403.22 3.6z" fill="#ef9900"/><path d="m91.24 38.86c-15.66 203.74-51.06 152.88-60.76 0z" fill="#ffe853"/><path d="m91.24 43.46c1.18 11.22-19.54 197.5-44.86 104.56 30-14.2 38.14-104 37.84-105.12z" fill="#ffc831"/><path d="m94.5 41.32c-.1767272 1.9060283-1.4514925 3.5327226-3.26 4.16-3.44.26-57.4.24-60.76 0-12-11.28 11.3-8.12 29.6-8.42 20.42 1.1 33.06-3.32 34.42 4.26z" fill="#ffc831"/><path d="m98 196.2h-74.2v-25.62c6.3954574 0 11.58-5.184543 11.58-11.58h50.96c-.005456 3.086773 1.2238321 6.047522 3.414014 8.222677 2.190182 2.175155 5.1593239 3.38403 8.245986 3.357323z" fill="#4a3302"/><path d="m99.22 196.96s-43.78 0-65.3 0c-9.84-1.22-9.88 2.82-13.82-2.4.44-4.82 21.56-1.46 43.86-2.4 19.86.88 45.38-3.1 35.26 4.8z" fill="#c1c0ba"/><path d="m77.52 173.8c4 18-19.5 9.5-28 11.34-4.76-.28-5.88-4.8-5.38-10.9-1.48-10.26 23.34-4.54 28.72-5.74 2.6613246.350554 4.6529402 2.615696 4.66 5.3z" fill="#c1c0ba"/><path d="m77.52 173.8v2.5l-25.9 8.84c-1.9596826.383126-3.9845699-.191619-5.4507518-1.547146s-2.1977334-3.329187-1.9692482-5.312854l28.72-9.78c2.6375077.37779 4.5970938 2.635574 4.6 5.3z" fill="#ebebe9"/><g fill="#fffce5"><path d="m56.1 43.24c-3.34 0-.64-6.68 1.8-1.8-.08.56-.16 1.1-1.8 1.8z"/><path d="m50 43.2c-1.18-.78-27.1 2.5-18.3-3.6 1.18.78 27.1-2.5 18.3 3.6z"/></g></g></svg>