<svg width="203" height="204" viewBox="0 0 203 204" fill="none" xmlns="http://www.w3.org/2000/svg">
<g clip-path="url(#clip0_1_201)">
<path fill-rule="evenodd" clip-rule="evenodd" d="M7.65781 0C4.15977 3.62284 2.8472 2.36339 0.365419 2.20724C2.55154 6.52827 0.936907 7.73653 0 9.9668C4.81957 9.10413 5.17859 10.9069 7.06648 12.5548C7.83124 7.61045 9.75241 7.70453 11.799 6.39516C7.45558 4.2116 8.19794 2.37043 7.65781 0Z" fill="#FBB413"/>
<path fill-rule="evenodd" clip-rule="evenodd" d="M195.849 39.1075C198.591 43.712 200.34 42.7233 202.877 43.1533C199.492 47.2926 200.987 48.6481 201.386 51.2847C196.459 49.1876 195.763 51.0838 193.436 52.2652C193.796 46.9029 191.927 46.6994 190.015 44.7392C195.21 43.4074 194.608 41.556 195.849 39.1075Z" fill="#FBB413"/>
<path fill-rule="evenodd" clip-rule="evenodd" d="M1.21069 72.1422C11.4482 66.5515 23.0911 58.5468 33.0559 51.9846C29.9508 50.1965 23.0098 49.4766 21.415 47.3641C27.8287 41.9845 34.181 36.2076 40.2767 30.1861C35.5006 27.9808 30.4762 25.7192 25.4845 23.343C19.0766 33.32 11.4744 42.7582 3.83646 52.2393C5.58548 53.3452 10.4294 53.7567 11.4431 55.6209C7.82216 61.3422 5.03767 67.3559 1.21069 72.1422ZM3.35649 52.3135C10.8607 43.2376 18.6049 33.1018 25.425 22.8278C29.4427 24.7989 37.0896 27.2046 40.692 30.2162C34.7621 36.0994 28.4341 41.9026 21.8969 47.4095C25.3975 48.8507 30.4129 49.8484 33.7548 51.8566C27.981 56.4042 21.6166 59.7346 15.663 63.7286C10.3289 66.9361 4.10141 71.611 -0.00012207 73.0605C3.89086 67.5639 7.10476 61.8164 10.8537 55.5665C9.05729 54.5035 4.41883 54.0299 3.35649 52.3135Z" fill="black"/>
<path fill-rule="evenodd" clip-rule="evenodd" d="M71.1667 191.974C78.7227 187.825 86.6186 182.411 93.1789 177.146C102.28 179.257 93.7657 182.526 91.1675 187.076C87.3917 189.871 81.8023 187.791 77.2559 189.846C74.5303 190.192 73.8833 193.796 71.1667 191.974ZM18.6832 151.404C4.38323 173.721 34.8974 166.588 39.74 163.719C28.9726 177.316 39.2082 187.907 58.2215 180.379C66.973 167.246 68.1409 148.372 81.9488 141.713C99.1862 126.258 80.3943 137.012 74.259 141.549C70.3719 146.219 66.8924 154.016 59.7388 153.054C52.3479 151.367 53.0666 142.785 58.3604 139.417C60.3948 138.028 62.9591 138.9 65.3059 137.272C70.8608 133.57 74.2289 128.364 78.6613 123.347C47.4739 129.627 37.2953 142.749 18.6832 151.404Z" fill="#F7A400"/>
<path fill-rule="evenodd" clip-rule="evenodd" d="M165.174 22.2763C167.511 14.2581 155.776 7.93402 149.615 13.2265C144.552 16.8308 148.723 21.5793 142.195 19.4329C118.379 13.9676 94.6934 18.4358 72.5744 27.2181C72.0419 27.4376 71.48 28.2094 70.7383 26.8296C65.904 20.1893 58.3889 21.7131 54.3546 27.6795C50.5423 35.2739 58.163 42.423 64.3259 43.8872C64.1057 73.4331 51.462 104.386 86.4277 113.172C87.1815 113.435 88.3508 113.245 88.8979 113.692C86.9556 115.105 84.3919 117.274 82.3639 119.312C76.8391 124.774 72.822 131.39 66.6406 136.339C61.4268 139.93 55.1392 137.943 54.2304 146.136C57.2549 161.477 70.3991 148.766 74.2575 141.548C78.7603 138.345 83.6521 135.252 89.0259 133.465C86.603 140.561 78.3238 142.419 74.0104 147.906C67.0208 161.198 50.71 193.152 55.5558 196.605C60.7478 201.432 84.9871 182.815 87.3697 181.724C91.9211 178.819 92.5105 174.747 97.5374 179.463C89.2493 192.304 85.9471 186.912 77.2557 189.845C67.3849 194.962 66.0576 204.235 79.0271 203.463C103.792 204.431 103.263 201.848 116.568 189.475C143.179 164.314 145.048 153.465 154.154 130.472C161.264 117.493 172.379 107.484 181.606 96.0212C184.917 94.6088 188.502 92.0727 189.489 88.103C192.349 77.3388 182.898 77.4412 176.556 80.5347C173.684 84.4763 173.466 91.6477 168.307 94.2402C181.148 74.6579 162.376 51.3293 159.684 30.5619C161.188 28.1658 164.554 25.8556 165.174 22.2763Z" fill="white"/>
<path fill-rule="evenodd" clip-rule="evenodd" d="M56.6244 38.2966C46.8784 27.757 65.1097 17.5906 71.444 28.9128C75.4125 27.6124 79.8077 25.7059 84.3188 24.4228C104.581 17.7608 125.535 16.4399 145.902 21.4783C146.242 19.6704 147.342 17.0728 148.856 15.384C151.568 12.2046 155.483 11.8706 159.48 13.5581C174.004 20.5088 156.333 28.0085 159.671 32.4134C164.896 55.7779 175.966 71.0282 171.443 86.683C167.612 97.7921 155.203 102.234 144.913 105.542C119.177 111.011 86.6432 119.713 70.5084 103.705C61.0664 94.5641 60.9128 83.6233 62.7367 72.1117C63.6096 62.2389 64.2649 53.1342 64.9222 43.3203C65.1135 42.5575 64.8665 42.2612 63.8445 42.5415C61.6795 42.5997 59.4338 41.2232 56.6244 38.2966ZM140.602 108.073C141.103 122.649 137.991 161.172 119.485 157.413C97.7638 154.965 100.367 139.932 105.721 125.87C107.374 121.343 109.49 117.318 111.541 112.975C111.881 112.825 111.542 112.956 112.507 112.817C122.404 111.899 130.115 110.116 140.602 108.073ZM72.4065 194.727C73.1041 195.011 75.7369 193.986 73.4766 193.489C77.9883 188.892 84.8686 190.945 90.6993 188.872C96.9229 180.462 104.061 179.297 93.5036 175.982C92.4611 175.828 92.4157 175.761 91.7757 176.487C81.6643 185.314 71.43 191.459 59.6425 195.967C58.8873 194.804 58.6902 196.853 56.6033 196.02C56.9053 195.767 57.9696 194.499 56.4874 194.557C56.0504 194.821 55.3822 195.899 54.9445 194.281C54.2796 193.262 56.3492 193.176 56.0888 192.116C55.5115 191.862 55.7291 191.612 54.8312 192.178C59.3244 178.294 66.4133 164.592 72.7464 151.22C76.9004 142.97 88.3506 142.642 89.9045 132.028C68.8125 137.924 69.5824 153.847 59.549 151.691C61.1918 148.362 58.3056 152.99 55.9 149.556C57.6976 148.544 57.9946 146.971 55.061 148.466C54.5311 147.488 53.5763 144.909 56.2244 144.973C56.2935 144.913 56.3505 144.838 56.3409 144.38C56.0267 143.887 56.3287 144.225 55.3342 144.013C57.6976 138.758 64.1049 140.807 67.8654 136.665C96.2964 106 82.8111 116.597 111.123 112.975C103.851 126.673 92.2403 152.41 114.023 157.837C126.614 161.529 132.218 156.3 135.53 146.392C139.58 135.155 142.213 119.449 141.301 108.552C150.895 104.566 164.595 100.679 172.219 92.1604C173.21 90.3103 175.019 83.9311 176.437 82.4535C178.832 79.9474 183.7 79.6376 186.695 80.4504C184.77 82.3965 186.662 81.1972 188.378 81.3681C188.997 82.0362 189.629 83.295 189.678 84.7023C188.603 84.1795 186.428 85.405 189.585 86.0366C189.48 86.6625 189.198 87.6909 188.678 88.7712C188.355 88.0583 185.498 87.0855 187.669 89.0829C189.067 89.8655 186.346 91.8014 184.913 92.9105C177.722 96.5685 174.255 104.72 168.54 110.062C153.128 125.394 150.839 138.79 145.37 151.15C136.999 170.595 119.688 185.713 104.012 199.273C97.7952 204.065 73.2417 202.535 70.4585 200.443C71.7186 200.431 71.9029 199.007 69.7821 199.223C69.7001 198.047 71.0242 197.516 72.6517 197.382C72.8737 196.711 72.4872 196.35 71.2489 196.405C71.4754 196.049 71.8312 195.506 72.4065 194.727ZM88.8517 113.629C80.2084 119.508 74.7706 129.5 66.5918 136.278C63.0189 139.346 56.9437 137.712 54.9227 143.287C54.5471 144.59 53.781 143.585 52.407 143.794C51.6858 144.746 52.8717 145.277 54.2764 145.211C54.0453 146.356 54.0914 147.51 54.4472 148.58C53.1539 148.278 49.0133 149.998 53.2025 150.29C55.4545 149.419 55.2638 150.562 57.1428 151.98C56.1918 151.731 54.094 153.918 56.9911 153.475C58.2301 153.361 57.7059 152.36 59.2758 153.01C67.0251 154.807 70.4297 145.736 74.8711 141.126C78.2705 138.638 86.4371 134.248 88.6994 133.491C88.7237 137.088 80.4637 142.846 76.7218 144.876C73.4964 147.494 71.7244 151.621 69.6739 155.744C64.6534 166.462 60.4367 176.308 55.6824 187.098C54.1714 191.625 55.6817 191.825 51.5674 194.174C52.4877 194.923 53.079 194.504 54.5112 193.899C54.4869 195.102 55.7054 195.807 53.3887 196.548C52.8435 196.823 52.5536 197.348 53.669 197.54C54.8971 197.125 55.7976 196.857 57.5927 197.586C54.8619 201.352 57.8864 198.966 59.917 197.307C71.6232 192.784 82.399 185.97 91.9415 178.01C92.8323 176.234 95.1298 178.181 97.0599 178.761C98.4109 180.609 92.168 184.854 90.7018 187.424C88.1887 188.949 84.6363 188.273 81.6329 188.78C72.8161 189.426 75.2883 193.955 69.6707 193.005C69.2176 193.705 70.2652 194.369 71.4223 194.621C70.6537 195.521 70.9001 196.925 68.6672 195.966C67.1032 195.63 68.1956 197.443 69.8032 197.57C69.6048 198.096 69.4717 198.641 69.4346 199.199C68.1246 198.498 64.192 199.065 68.8247 200.451C75.1104 205.993 98.0109 203.654 102.641 201.602C118.787 188.736 135.699 172.367 144.366 154.779C149.744 144.286 151.35 134.308 157.268 125.3C164.471 115.019 173.42 106.411 181.148 96.3983C183.852 94.7939 187.072 93.5632 188.721 90.2828C190.285 94.9187 188.867 88.8141 189.932 86.1857C191.334 87.4241 192.45 85.8754 189.995 84.7996C189.936 83.8268 189.828 82.2711 189.089 80.9131C197.319 80.0677 180.107 77.6249 177.517 79.8546C173.359 82.536 174.009 91.5806 168.26 94.1789C183.04 75.6481 157.252 41.172 160.482 29.4939C163.173 28.2408 167.528 19.7645 164.392 16.0003C161.829 12.3045 156.066 9.96283 151.438 11.9102C144.862 15.1523 147.408 21.4828 144.079 19.7863C118.051 13.2062 93.7046 19.1188 71.2482 27.3999C68.7562 23.8283 64.4512 21.1008 59.9618 22.9471C47.3673 28.0252 54.9042 42.8013 64.1427 43.5507C64.3833 43.8086 64.327 45.6376 64.2093 48.0445C63.6493 64.1044 61.1259 73.4793 61.6372 86.6804C63.2967 100.942 74.6906 112.349 88.8517 113.629Z" fill="black"/>
<path fill-rule="evenodd" clip-rule="evenodd" d="M140.602 108.072C141.104 122.647 137.991 161.172 119.485 157.413C97.763 154.965 100.368 139.931 105.721 125.87C107.374 121.343 109.49 117.318 111.541 112.975C111.881 112.825 111.543 112.955 112.507 112.817C122.404 111.899 130.114 110.116 140.602 108.072Z" fill="#ECECEC"/>
<path fill-rule="evenodd" clip-rule="evenodd" d="M93.8429 120.768C84.6575 121.449 60.2147 126.899 48.0221 133.976C33.8034 142.405 2.76133 166.143 2.46631 146.022C8.01352 129.623 58.2641 107.828 69.7662 110.5C81.8039 110.877 84.5647 113.01 90.3545 113.493C109.964 115.563 139.365 108.088 158.732 101.689C159.012 102.493 139.749 110.625 136.995 111.349C142.396 114.39 141.827 122.579 143.82 133.252C130.541 129.057 137.454 116.6 133.514 111.149C136.106 119.851 128.402 120.366 126.168 114.165C128.215 116.659 125.703 127.552 123.652 128.985C124.106 128.9 113.687 134.87 112.393 135.001C112.393 135.001 114.488 122.825 117.889 120.294C121.29 117.762 122.899 114.734 123.69 114.734C124.973 114.734 108.489 119.67 93.8429 120.768Z" fill="#FBB413"/>
<path fill-rule="evenodd" clip-rule="evenodd" d="M104.666 66.8259C103.614 66.5412 107.01 88.7101 110.707 90.2141C115.339 91.7941 127.182 91.0095 128.626 84.576C129.935 76.4683 126.96 66.6858 125.091 61.2199C122.522 55.887 105.458 60.5537 104.821 65.3764C104.539 66.2589 104.669 66.7875 104.666 66.8259Z" fill="#ECECEC"/>
<path fill-rule="evenodd" clip-rule="evenodd" d="M93.1361 78.5262C93.6992 87.3295 79.556 88.3554 78.3401 80.4269C77.7769 71.6236 91.9195 70.5977 93.1361 78.5262Z" fill="#FCE8E9"/>
<path fill-rule="evenodd" clip-rule="evenodd" d="M153.831 69.9461C154.394 78.7494 140.251 79.7753 139.035 71.8468C138.472 63.0434 152.614 62.0176 153.831 69.9461Z" fill="#FCE8E9"/>
<path fill-rule="evenodd" clip-rule="evenodd" d="M122.721 77.8278C118.439 86.8353 109.306 79.2037 115.141 80.9694C121.056 83.087 116.428 73.0684 115.834 70.2583C113.236 70.3524 108.517 66.6739 111.155 63.6616C112.443 62.15 114.549 63.7217 115.886 62.5967C122.869 59.0577 123.848 67.5916 118.414 69.9396C118.414 73.0402 118.578 77.1398 118.842 80.5054C121.401 79.5244 122.402 76.3469 123.477 73.9067C123.835 75.0184 123.324 76.3399 122.721 77.8278Z" fill="black"/>
<path fill-rule="evenodd" clip-rule="evenodd" d="M156.691 17.9421C154.571 16.1272 149.048 20.8066 149.627 22.8551C151.054 23.7568 153.772 26.5138 156.129 26.4338C157.694 24.4396 159.132 20.3592 156.691 17.9421Z" fill="black"/>
<path fill-rule="evenodd" clip-rule="evenodd" d="M59.9498 58.3426C59.7195 55.8865 61.0589 54.5995 63.5631 54.1381C67.5014 53.5871 68.5682 53.6818 70.8638 52.6482C94.4842 40.6809 101.181 55.0014 114.639 52.1267C117.172 51.4048 119.006 50.0865 121.246 48.5115C133.86 37.2014 153.396 45.5478 164.418 41.3407C171.146 43.5499 160.334 60.5396 145.871 63.2416C129.617 65.7637 127.462 57.8268 118.066 58.1276C107.031 58.5148 101.757 67.3239 89.6199 70.3765C73.8889 74.8716 60.3594 62.5965 59.9498 58.3426Z" fill="#FBB413"/>
<path fill-rule="evenodd" clip-rule="evenodd" d="M85.134 53.7379C98.6456 52.4605 99.6657 63.3066 87.5096 65.6592C73.0003 67.7634 71.8074 55.661 85.134 53.7379Z" fill="white"/>
<path fill-rule="evenodd" clip-rule="evenodd" d="M139.214 46.7908C152.726 45.5134 153.746 56.3589 141.59 58.712C127.08 60.8162 125.888 48.7139 139.214 46.7908Z" fill="white"/>
<path fill-rule="evenodd" clip-rule="evenodd" d="M144.482 48.9363C141.859 54.6941 139.31 59.9623 135.46 51.116C135.239 51.1986 135.226 51.2498 135.361 52.0965C139.728 65.1716 146.259 49.223 144.482 48.9363Z" fill="black"/>
<path fill-rule="evenodd" clip-rule="evenodd" d="M92.5686 56.0903C88.5253 65.0165 85.6199 64.7599 81.9964 57.879C84.2388 68.6899 92.3696 64.2274 92.5686 56.0903Z" fill="black"/>
<path fill-rule="evenodd" clip-rule="evenodd" d="M60.8189 30.8192C61.8703 28.1569 68.8766 29.682 69.3765 31.7241C68.5733 33.148 67.477 37.0224 65.4004 37.9913C63.0683 36.9974 59.8429 34.1124 60.8189 30.8192Z" fill="black"/>
<path fill-rule="evenodd" clip-rule="evenodd" d="M106.787 23.2181C107.6 21.2931 108.029 26.8019 108.161 27.7817C108.322 28.4447 107.222 28.4306 107.286 27.1123C107.107 25.7088 106.809 23.3973 106.787 23.2181ZM112.304 32.0425C113.565 30.1188 113.87 38.192 112.729 35.3537C112.612 34.4392 112.332 32.2659 112.304 32.0425ZM117.615 40.1375C118.664 38.1536 119.133 46.2734 117.782 43.9561C117.758 43.409 117.622 40.3115 117.615 40.1375ZM105.532 43.8729C105.926 41.6484 108.269 49.2921 106.352 47.6852C106.357 47.7159 105.568 44.0342 105.532 43.8729ZM116.277 27.0182C117.326 25.0343 117.797 33.1542 116.445 30.8375C116.421 30.2897 116.285 27.1923 116.277 27.0182ZM100.263 37.1143C100.657 34.8891 103 42.5328 101.083 40.9265C101.088 40.9572 100.299 37.2755 100.263 37.1143ZM121.097 22.294C121.856 20.1629 122.893 28.0876 121.269 26.1894C121.268 26.2208 121.106 22.4591 121.097 22.294ZM97.9218 26.4217C98.2482 25.2071 98.9643 26.6739 99.411 28.556C99.8494 30.5457 101.137 32.1878 99.5492 31.6112C99.5588 31.6483 97.9544 26.5216 97.9218 26.4217ZM121.093 33.7858C121.856 31.727 122.816 39.1839 121.22 37.3338C121.218 37.3638 121.101 33.9631 121.093 33.7858ZM104.456 33.1324C105.464 31.0724 106.642 39.038 105.164 36.2945C104.968 35.4203 104.505 33.3455 104.456 33.1324ZM111.632 21.5625C112.347 19.4839 113.487 26.9209 111.843 25.1066C111.842 25.1373 111.644 21.7398 111.632 21.5625ZM111.174 41.1294C111.987 39.2037 112.417 44.7132 112.549 45.693C112.71 46.3553 111.611 46.3413 111.675 45.0242C111.494 43.6201 111.197 41.3086 111.174 41.1294Z" fill="black"/>
<path fill-rule="evenodd" clip-rule="evenodd" d="M82.5767 76.2541C83.9308 76.0622 84.7845 78.3571 82.9101 78.855C81.5559 79.0469 80.7016 76.7527 82.5767 76.2541Z" fill="white"/>
<path fill-rule="evenodd" clip-rule="evenodd" d="M86.6115 74.6224C87.9656 74.4304 88.8193 76.7253 86.9449 77.2238C85.5907 77.4158 84.737 75.1203 86.6115 74.6224Z" fill="white"/>
<path fill-rule="evenodd" clip-rule="evenodd" d="M81.9361 80.4768C83.2903 80.2848 84.144 82.5797 82.2696 83.0776C80.9154 83.2702 80.0617 80.9746 81.9361 80.4768Z" fill="white"/>
<path fill-rule="evenodd" clip-rule="evenodd" d="M90.7375 76.9454C92.0917 76.7534 92.9454 79.0483 91.0709 79.5462C89.7168 79.7388 88.863 77.4433 90.7375 76.9454Z" fill="white"/>
<path fill-rule="evenodd" clip-rule="evenodd" d="M142.5 70.6442C143.855 70.4522 144.709 72.7471 142.834 73.2456C141.479 73.4376 140.626 71.1427 142.5 70.6442Z" fill="white"/>
<path fill-rule="evenodd" clip-rule="evenodd" d="M145.418 72.4962C146.772 72.3042 147.625 74.5991 145.751 75.097C144.397 75.2897 143.543 72.9941 145.418 72.4962Z" fill="white"/>
<path fill-rule="evenodd" clip-rule="evenodd" d="M151.269 70.1092C152.624 69.9172 153.478 72.2121 151.603 72.7107C150.249 72.902 149.395 70.6077 151.269 70.1092Z" fill="white"/>
<path fill-rule="evenodd" clip-rule="evenodd" d="M148.741 68.0334C150.095 67.8414 150.949 70.1363 149.075 70.6342C147.72 70.8262 146.867 68.5312 148.741 68.0334Z" fill="white"/>
<path fill-rule="evenodd" clip-rule="evenodd" d="M144.203 66.5634C145.557 66.3714 146.411 68.6663 144.537 69.1642C143.182 69.3569 142.329 67.0613 144.203 66.5634Z" fill="white"/>
<path fill-rule="evenodd" clip-rule="evenodd" d="M86.7084 79.1677C88.0625 78.9757 88.9162 81.2706 87.0418 81.7685C85.6876 81.9611 84.8345 79.6656 86.7084 79.1677Z" fill="white"/>
<path fill-rule="evenodd" clip-rule="evenodd" d="M128.278 123.309C129.901 121.994 127.685 127.055 127.34 127.983C127.171 128.642 126.208 128.112 126.885 126.98C127.386 125.656 128.213 123.478 128.278 123.309ZM120.673 146.261C122.297 144.946 120.081 150.007 119.736 150.934C119.566 151.594 118.603 151.064 119.28 149.932C119.782 148.609 120.609 146.43 120.673 146.261ZM122.701 131.403C124.718 130.3 121.185 137.565 121.516 134.524C121.843 133.662 122.621 131.613 122.701 131.403ZM108.01 139.758C109.869 138.502 106.459 145.886 106.358 143.206C106.595 142.711 107.935 139.915 108.01 139.758ZM126.57 146.412C127.832 145.527 126.956 147.973 126.27 150.079C125.916 151.087 125.93 152.188 125.157 151.055C125.145 151.092 126.535 146.528 126.57 146.412ZM109.794 131.826C111.654 130.57 108.244 137.953 108.143 135.273C108.38 134.778 109.72 131.982 109.794 131.826ZM119.026 138.086C120.422 136.309 118.887 144.155 117.953 141.835C117.943 141.865 118.982 138.245 119.026 138.086ZM115.133 146.165C116.897 144.786 114.005 152.376 113.721 149.717C113.923 149.208 115.068 146.327 115.133 146.165ZM133.215 132.558C134.075 131.641 134.015 133.272 133.522 135.142C132.971 137.103 133.334 139.158 132.205 137.903C132.196 137.941 133.196 132.66 133.215 132.558ZM132.493 124.2C134.351 122.858 131.638 130.44 131.626 127.322C131.865 126.46 132.434 124.411 132.493 124.2ZM129.647 138.698C131.506 137.355 128.793 144.936 128.781 141.819C129.021 140.957 129.589 138.908 129.647 138.698ZM128.085 131.534C129.944 130.192 127.23 137.772 127.219 134.656C127.459 133.793 128.026 131.744 128.085 131.534ZM124.691 137.846C126.549 136.503 123.836 144.085 123.824 140.968C124.064 140.106 124.632 138.056 124.691 137.846ZM113.366 120.26C114.976 118.762 112.478 125.859 111.883 123.485C111.87 123.509 113.29 120.427 113.366 120.26ZM112.827 139.702C114.451 138.387 112.235 143.449 111.89 144.375C111.72 145.036 110.756 144.505 111.434 143.373C111.936 142.05 112.763 139.871 112.827 139.702Z" fill="black"/>
<path fill-rule="evenodd" clip-rule="evenodd" d="M51.8306 159.711C51.0243 162.71 48.122 160.481 48.4843 162.479C51.1811 164.044 47.6619 167.105 50.623 166.282C54.3092 164.786 53.7844 169.724 54.5863 163.981C57.5769 161.762 54.818 162.405 53.4625 161.339C53.1381 160.849 52.9326 158.801 51.8306 159.711Z" fill="#141414"/>
<path fill-rule="evenodd" clip-rule="evenodd" d="M28.64 155.156C27.8337 158.155 24.9315 155.924 25.2937 157.923C27.9911 159.488 24.472 162.55 27.4331 161.726C31.1193 160.23 30.5939 165.168 31.3964 159.425C34.3863 157.207 31.6274 157.849 30.2726 156.783C29.9475 156.292 29.7421 154.246 28.64 155.156Z" fill="#141414"/>
<path fill-rule="evenodd" clip-rule="evenodd" d="M19.2206 141.402C19.1431 139.665 15.6649 140.899 17.6264 138.871C17.9976 138.534 17.8126 138.479 17.5982 137.499C17.4389 137.129 17.6322 136.795 18.2229 136.97C20.3661 138.268 20.7635 134.784 20.9549 138.504C22.7781 139.832 21.6255 139.574 20.2995 140.325C20.0282 140.643 20.0813 141.94 19.2206 141.402Z" fill="#141414"/>
<path fill-rule="evenodd" clip-rule="evenodd" d="M37.6042 127.446C36.7979 130.445 33.8956 128.214 34.2578 130.213C36.9553 131.778 33.4361 134.84 36.3966 134.016C40.0828 132.52 39.558 137.458 40.3605 131.715C43.3505 129.497 40.5916 130.139 39.2361 129.073C38.9117 128.583 38.7062 126.536 37.6042 127.446Z" fill="#141414"/>
<path fill-rule="evenodd" clip-rule="evenodd" d="M41.5824 151.754C41.505 150.017 38.0268 151.252 39.9889 149.224C40.3595 148.887 40.1745 148.832 39.9601 147.851C39.8008 147.481 39.994 147.148 40.5847 147.323C42.728 148.621 43.126 145.137 43.3167 148.857C45.14 150.184 43.9874 149.927 42.6614 150.678C42.3901 150.996 42.4438 152.293 41.5824 151.754Z" fill="#141414"/>
</g>
<defs>
<clipPath id="clip0_1_201">
<rect width="203" height="204" fill="white"/>
</clipPath>
</defs>
</svg>
