<svg width="105" height="181" viewBox="0 0 105 181" fill="none" xmlns="http://www.w3.org/2000/svg">
<path fill-rule="evenodd" clip-rule="evenodd" d="M104.5 102.191C103.782 101.716 103.081 101.217 102.381 100.714C104.669 98.3902 106.91 97.286 102.252 95.4958C103.447 93.7203 106.282 92.0159 101.917 91.2644C106.2 82.4978 100.957 86.3961 98.618 89.9204C97.1539 92.561 97.1695 95.2874 96.4897 98.096C93.8496 106.29 91.4488 91.3694 91.2767 89.4384C90.6594 86.3002 89.6046 83.5693 86.6204 82.0653C90.2501 101.69 87.5288 109.575 93.2531 110.654C97.7747 112.009 100.011 108.574 101.283 105.924C102.439 105.183 105.773 103.156 104.5 102.191Z" fill="#C4A4E1"/>
<path fill-rule="evenodd" clip-rule="evenodd" d="M90.6467 97.9593C79.3647 -12.1378 25.8598 14.2296 8.21712 71.925C-2.53898 106.758 -9.64613 148.899 32.9301 159.016C79.3259 168.593 97.4455 138.499 90.6467 97.9593Z" fill="#8970A6"/>
<path fill-rule="evenodd" clip-rule="evenodd" d="M45.224 40.9394C43.1855 36.5612 36.0622 38.0409 36.0219 42.9304C35.9638 49.8902 48.5727 48.1313 45.224 40.9394Z" fill="white"/>
<path fill-rule="evenodd" clip-rule="evenodd" d="M40.5019 40.867C39.2714 41.1405 38.6421 42.9185 39.4546 44.0435C42.8184 46.6912 44.5208 40.6262 40.5019 40.867Z" fill="black"/>
<path fill-rule="evenodd" clip-rule="evenodd" d="M67.7939 38.3208C65.7554 33.9426 58.6316 35.4223 58.5913 40.3118C58.5337 47.2716 71.1426 45.5127 67.7939 38.3208Z" fill="white"/>
<path fill-rule="evenodd" clip-rule="evenodd" d="M63.0713 38.2484C61.8413 38.5219 61.2115 40.3005 62.024 41.4249C65.3883 44.0726 67.0902 38.0081 63.0713 38.2484Z" fill="black"/>
<path fill-rule="evenodd" clip-rule="evenodd" d="M77.5567 60.8858C67.8725 48.3274 52.9855 56.7675 56.2665 65.9989C56.911 66.9144 57.6989 67.4731 59.0711 67.1451C67.0257 63.598 68.356 72.0123 71.518 75.7092C82.6082 80.682 82.7227 66.2861 77.5567 60.8858Z" fill="#FDDA89"/>
<path fill-rule="evenodd" clip-rule="evenodd" d="M70.0301 63.2782C69.6071 62.9067 67.8735 60.9207 67.2835 62.4626C67.339 63.2171 70.6327 65.4928 70.0301 63.2782Z" fill="#EEAD02"/>
<path fill-rule="evenodd" clip-rule="evenodd" d="M67.2109 58.9271C65.6806 58.2846 62.1543 60.0753 66.8737 60.1495C67.282 60.3281 68.1511 59.3899 67.2109 58.9271Z" fill="#EEAD02"/>
<path fill-rule="evenodd" clip-rule="evenodd" d="M74.4043 63.2496C74.1726 62.6238 71.5775 59.9943 71.9797 62.4365C72.389 62.7257 74.3382 65.5707 74.4043 63.2496Z" fill="#EEAD02"/>
<path fill-rule="evenodd" clip-rule="evenodd" d="M78.5158 66.0131C78.3775 65.5019 77.1874 62.2208 76.2305 64.1281C76.4208 64.658 77.9722 68.3216 78.5158 66.0131Z" fill="#EEAD02"/>
<path fill-rule="evenodd" clip-rule="evenodd" d="M73.283 67.9293C73.0892 67.5816 72.1111 65.3231 71.3338 66.8054C71.1375 67.9399 73.3259 69.9718 73.283 67.9293Z" fill="#EEAD02"/>
<path fill-rule="evenodd" clip-rule="evenodd" d="M77.7203 69.816C77.6547 69.5455 77.6057 69.3124 77.2479 68.4806C75.0938 66.7894 76.72 72.6005 77.7203 69.816Z" fill="#EEAD02"/>
<path fill-rule="evenodd" clip-rule="evenodd" d="M75.6778 72.6604C75.9362 71.8968 73.4552 69.3107 74.2374 72.3308C74.1885 73.2373 75.5976 74.0095 75.6778 72.6604Z" fill="#EEAD02"/>
<path fill-rule="evenodd" clip-rule="evenodd" d="M63.3216 62.7793C62.7579 62.4927 59.2947 63.55 61.589 64.3414C62.1528 64.1733 65.184 63.9225 63.3216 62.7793Z" fill="#EEAD02"/>
<path fill-rule="evenodd" clip-rule="evenodd" d="M61.2624 60.0222C60.3535 58.6136 57.2294 62.6658 59.9835 61.6706C60.1794 61.1568 61.6203 61.0392 61.2624 60.0222Z" fill="#EEAD02"/>
<path fill-rule="evenodd" clip-rule="evenodd" d="M72.5629 57.9734C72.2874 57.0852 69.1133 56.1979 70.5956 58.089C71.0514 58.4019 73.0762 59.9806 72.5629 57.9734Z" fill="#EEAD02"/>
<path fill-rule="evenodd" clip-rule="evenodd" d="M65.3734 55.4489C64.7471 55.4136 61.624 56.4437 63.8079 57.1412C64.4347 57.176 67.5573 56.1459 65.3734 55.4489Z" fill="#EEAD02"/>
<path fill-rule="evenodd" clip-rule="evenodd" d="M58.0923 64.1338C57.3857 64.1883 56.4339 66.4049 58.1463 65.7619C58.7737 65.4576 59.5665 63.9667 58.0923 64.1338Z" fill="#EEAD02"/>
<path fill-rule="evenodd" clip-rule="evenodd" d="M69.3169 67.2201C69.2467 66.5635 66.7858 64.4115 67.2577 66.6786C67.6448 67.2055 69.279 69.2132 69.3169 67.2201Z" fill="#EEAD02"/>
<path fill-rule="evenodd" clip-rule="evenodd" d="M72.2579 72.1104C72.163 71.8479 72.0837 71.6238 71.7759 70.7669C70.7857 69.2008 69.7349 72.2345 71.8152 72.8901C71.9959 72.8084 72.168 72.7256 72.2579 72.1104Z" fill="#EEAD02"/>
<path fill-rule="evenodd" clip-rule="evenodd" d="M80.3325 71.9541C80.2073 71.6896 80.3264 71.3126 79.9343 70.6177C77.7197 69.5593 79.5331 74.5568 80.3325 71.9541Z" fill="#EEAD02"/>
<path fill-rule="evenodd" clip-rule="evenodd" d="M78.121 74.3558C78.3799 73.3096 75.9331 72.1957 77.0591 74.9761C77.5189 75.2552 78.0226 75.3006 78.121 74.3558Z" fill="#EEAD02"/>
<path fill-rule="evenodd" clip-rule="evenodd" d="M74.6251 75.2031C74.5277 74.1609 72.4705 74.2427 73.5309 75.843C73.7979 76.3447 74.7825 76.1262 74.6251 75.2031Z" fill="#EEAD02"/>
<path fill-rule="evenodd" clip-rule="evenodd" d="M63.6691 76.4698C54.2106 88.1969 41.2737 81.2659 39.4881 68.4971C36.5432 67.4518 41.0945 77.0037 41.5346 77.5811C51.6139 92.4116 71.4601 76.8877 66.0286 67.7436C65.6955 70.7238 65.1469 73.9221 63.6691 76.4698Z" fill="black"/>
<path fill-rule="evenodd" clip-rule="evenodd" d="M39.526 73.1099C34.0066 83.7944 33.399 83.3386 44.4619 80.8272C42.1933 79.1436 40.3673 75.9746 39.526 73.1099Z" fill="white"/>
<path fill-rule="evenodd" clip-rule="evenodd" d="M64.7396 77.1564C60.7879 83.4595 50.9362 85.8533 44.7683 81.0557C44.4589 92.6531 45.3472 89.6824 51.24 83.6771C57.1566 93.5151 55.7797 89.6587 58.759 82.5677C67.4544 90.3623 64.0098 83.4363 64.7396 77.1564Z" fill="white"/>
<path fill-rule="evenodd" clip-rule="evenodd" d="M55.9439 98.7395C46.6812 91.1862 44.2294 101.182 40.4048 106.729C32.0824 114.425 29.1632 98.6966 28.9502 92.9007C28.6005 90.5306 28.2931 87.3465 25.9452 86.0514C22.6733 84.4768 21.0709 92.7316 20.4531 96.9817C17.9988 112.728 31.3208 133.542 46.3855 114.078C47.5417 112.64 50.6522 113.602 53.0974 112.491C54.4803 111.959 53.3679 110.265 52.1491 109.196C57.5085 108.586 54.5146 106.929 51.9063 104.95C56.2851 103.655 54.8992 102.748 51.7211 100.76C52.5054 99.8675 56.4476 100.589 55.9439 98.7395Z" fill="#C4A4E1"/>
<path fill-rule="evenodd" clip-rule="evenodd" d="M32.8264 30.3925C35.5917 13.9929 28.7409 11.2983 15.1343 9.84176C14.3061 9.90131 13.4451 9.169 12.8253 10.2359C31.3401 22.87 13.4632 30.2769 23.2291 40.7958C26.0494 37.0131 29.234 33.5131 32.8264 30.3925Z" fill="#EEAD02"/>
<path fill-rule="evenodd" clip-rule="evenodd" d="M69.3706 30.2215C80.9206 17.9927 62.6985 8.87184 76.6781 1.53203C76.9345 1.39627 77.1162 1.07528 76.7902 0.596327C72.4483 -0.943503 64.8647 2.23811 62.6516 5.47018C57.2311 13.35 67.0192 17.2761 58.9501 23.6191C62.7944 24.9908 66.3863 27.2716 69.3706 30.2215Z" fill="#EEAD02"/>
<path fill-rule="evenodd" clip-rule="evenodd" d="M31.5474 16.1782C30.7293 14.864 29.1754 13.5372 27.3963 12.6464C26.5318 15.3727 22.9499 17.3294 19.9414 16.8697C20.9806 18.2409 21.881 20.8098 21.7735 22.5591C26.0139 22.3073 29.6109 19.9327 31.5474 16.1782Z" fill="#FDE09C"/>
<path fill-rule="evenodd" clip-rule="evenodd" d="M33.3513 22.1897C30.4417 25.2876 26.0756 27.2044 21.7302 27.0434C20.4023 26.9768 20.9015 28.9007 20.3589 30.4062C18.647 35.3366 24.4051 32.7122 27.0234 32.2882C34.1886 30.0786 33.4785 27.3169 33.3513 22.1897Z" fill="#FDE09C"/>
<path fill-rule="evenodd" clip-rule="evenodd" d="M71.318 12.0554C70.9601 10.6357 70.8304 8.87679 71.4457 7.0508C68.9126 6.6324 66.6056 5.30606 65.2581 3.00313C56.1276 10.0169 65.1329 11.5719 71.318 12.0554Z" fill="#FDE09C"/>
<path fill-rule="evenodd" clip-rule="evenodd" d="M73.3825 18.612C73.2624 17.9074 73.0681 17.2175 72.8425 16.5352C68.9998 17.3699 64.137 17.0298 61.5943 14.098C62.3075 15.8811 62.9222 18.5383 61.5555 20.6161C65.4447 22.7248 75.6456 25.9619 73.3825 18.612Z" fill="#FDE09C"/>
<path fill-rule="evenodd" clip-rule="evenodd" d="M58.6872 173.258C58.1562 178.993 70.1509 177.681 72.8949 176.103C75.3795 172.18 67.7541 170.558 64.8935 172.575L63.8412 158.631C61.839 159.245 59.7804 159.731 57.6833 160.094C57.8025 164.497 58.1345 168.905 58.6872 173.258Z" fill="#55406B"/>
<path fill-rule="evenodd" clip-rule="evenodd" d="M35.1779 175.909C34.6474 181.644 46.6416 180.333 49.3861 178.754C51.8702 174.831 44.2452 173.208 41.3846 175.226L40.2657 160.403C38.1955 160.138 36.1418 159.77 34.121 159.302C34.1276 164.845 34.4814 170.42 35.1779 175.909Z" fill="#55406B"/>
<path fill-rule="evenodd" clip-rule="evenodd" d="M76.8105 111.852C76.9528 112.482 76.4612 114.301 77.1385 114.719C78.9953 115.525 78.1181 109.334 76.8105 111.852Z" fill="#AD8DCB"/>
<path fill-rule="evenodd" clip-rule="evenodd" d="M77.0219 121.355C76.8205 122.341 77.1682 125.076 78.2892 123.256C78.49 122.27 78.1423 119.535 77.0219 121.355Z" fill="#AD8DCB"/>
<path fill-rule="evenodd" clip-rule="evenodd" d="M88.1849 129.635C87.5071 128.051 85.9309 131.063 87.0019 131.894C88.0042 131.974 88.2086 130.749 88.1849 129.635Z" fill="#AD8DCB"/>
<path fill-rule="evenodd" clip-rule="evenodd" d="M85.3159 135.558C85.0141 136.041 84.0208 139.551 85.8806 137.999C86.1819 137.516 87.1757 134.006 85.3159 135.558Z" fill="#AD8DCB"/>
<path fill-rule="evenodd" clip-rule="evenodd" d="M82.1882 141.315C82.0443 141.954 79.7439 144.385 81.7107 144.554C82.5414 144.283 84.3664 140.097 82.1882 141.315Z" fill="#AD8DCB"/>
<path fill-rule="evenodd" clip-rule="evenodd" d="M77.3102 147.59C76.7288 147.874 74.7509 149.922 76.6425 150.044C77.3758 149.701 79.1968 147.411 77.3102 147.59Z" fill="#AD8DCB"/>
<path fill-rule="evenodd" clip-rule="evenodd" d="M71.6531 152.285C71.109 151.244 67.4888 153.728 70.1506 153.768C70.358 153.523 72.0341 153.34 71.6531 152.285Z" fill="#AD8DCB"/>
<path fill-rule="evenodd" clip-rule="evenodd" d="M64.6603 154.375C64.0022 154.58 60.4521 156.037 62.9711 156.513C63.6292 156.308 67.1787 154.851 64.6603 154.375Z" fill="#AD8DCB"/>
<path fill-rule="evenodd" clip-rule="evenodd" d="M58.0208 156.891C57.556 157.111 56.106 156.663 55.3692 157.465C55.3202 158.29 55.3843 158.429 56.6117 158.289C57.4505 158.497 59.6399 157.639 58.0208 156.891Z" fill="#AD8DCB"/>
<path fill-rule="evenodd" clip-rule="evenodd" d="M52.3036 158.173C52.3021 157.611 48.7758 157.396 49.5409 158.959C50.1203 159.359 52.0982 159.516 52.3036 158.173Z" fill="#AD8DCB"/>
<path fill-rule="evenodd" clip-rule="evenodd" d="M82.9053 79.7976C82.8084 79.134 82.013 74.9076 81.0404 77.3912C81.1373 78.0554 81.9322 82.2812 82.9053 79.7976Z" fill="#AD8DCB"/>
<path fill-rule="evenodd" clip-rule="evenodd" d="M83.1951 84.3956C81.4695 81.6086 81.472 89.0847 83.3278 87.4803C83.6756 86.6011 83.1476 85.7381 83.1951 84.3956Z" fill="#AD8DCB"/>
<path fill-rule="evenodd" clip-rule="evenodd" d="M83.7707 92.0414C82.1764 90.2316 82.3959 94.5871 83.4225 95.3522C85.0325 95.2755 83.7955 93.3587 83.7707 92.0414Z" fill="#AD8DCB"/>
<path fill-rule="evenodd" clip-rule="evenodd" d="M84.546 100.931C84.1427 100.33 84.8786 99.1159 83.9676 98.3629C83.4725 98.5022 83.1707 98.2579 83.1238 99.4273C82.7629 100.464 83.9424 102.916 84.546 100.931Z" fill="#AD8DCB"/>
<path fill-rule="evenodd" clip-rule="evenodd" d="M85.2528 107.457C85.5268 105.959 83.2269 103.836 84.0309 107.795C84.1939 108.274 85.2154 108.606 85.2528 107.457Z" fill="#AD8DCB"/>
<path fill-rule="evenodd" clip-rule="evenodd" d="M85.7102 112.483C84.837 110.392 83.5703 114.302 85.2928 115.227C86.2275 115.066 85.8045 113.761 85.7102 112.483Z" fill="#AD8DCB"/>
<path fill-rule="evenodd" clip-rule="evenodd" d="M84.6244 119.243C84.423 120.23 84.7708 122.964 85.8917 121.144C86.0926 120.158 85.7443 117.424 84.6244 119.243Z" fill="#AD8DCB"/>
<path fill-rule="evenodd" clip-rule="evenodd" d="M83.5888 126.044C83.5273 126.778 82.5633 129.745 84.2904 129.02C84.9344 128.325 85.114 124.306 83.5888 126.044Z" fill="#AD8DCB"/>
<path fill-rule="evenodd" clip-rule="evenodd" d="M80.8662 133.652C80.8183 134.275 79.2845 137.385 81.2362 136.816C81.8903 136.291 82.6958 131.881 80.8662 133.652Z" fill="#AD8DCB"/>
<path fill-rule="evenodd" clip-rule="evenodd" d="M77.9736 140.236C77.1333 139.913 75.7883 142.095 76.4631 143.218C77.3039 143.542 78.6489 141.36 77.9736 140.236Z" fill="#AD8DCB"/>
<path fill-rule="evenodd" clip-rule="evenodd" d="M73.0824 146.123C72.4985 145.683 69.6126 148.673 71.6551 148.969C72.1341 148.417 73.9015 147.319 73.0824 146.123Z" fill="#AD8DCB"/>
<path fill-rule="evenodd" clip-rule="evenodd" d="M67.0512 149.464C66.391 149.262 63.9382 152.624 66.2785 152.003C66.5985 151.516 68.2751 150.3 67.0512 149.464Z" fill="#AD8DCB"/>
<path fill-rule="evenodd" clip-rule="evenodd" d="M72.6299 45.7705C72.2953 45.1064 71.617 41.9273 70.4769 43.4641C70.2326 44.2353 72.1782 48.1118 72.6299 45.7705Z" fill="#AD8DCB"/>
<path fill-rule="evenodd" clip-rule="evenodd" d="M74.6201 51.1295C74.394 50.4517 72.4802 47.0767 72.7381 50.274C72.8153 51.186 74.5439 53.2209 74.6201 51.1295Z" fill="#AD8DCB"/>
<path fill-rule="evenodd" clip-rule="evenodd" d="M76.9992 56.3548C76.8291 55.4787 76.333 53.6416 75.3514 54.8609C74.8956 55.6099 76.5732 58.3726 76.9992 56.3548Z" fill="#AD8DCB"/>
<path fill-rule="evenodd" clip-rule="evenodd" d="M67.9408 46.1756C67.8192 47.0589 67.9676 48.6199 69.1143 47.7831C69.8032 46.7626 68.7085 44.5147 67.9408 46.1756Z" fill="#AD8DCB"/>
<path fill-rule="evenodd" clip-rule="evenodd" d="M69.55 52.8219C69.766 50.6189 67.3636 50.3005 68.4553 53.4619C68.7339 53.8838 69.8104 53.9414 69.55 52.8219Z" fill="#AD8DCB"/>
<path fill-rule="evenodd" clip-rule="evenodd" d="M63.1097 32.2122C62.8326 32.0563 62.2845 30.5124 61.369 31.1564C60.4136 31.7484 63.6815 34.8381 63.1097 32.2122Z" fill="#AD8DCB"/>
<path fill-rule="evenodd" clip-rule="evenodd" d="M55.0592 92.6349C54.9371 93.5181 55.0854 95.0791 56.2326 94.2423C56.921 93.2223 55.8268 90.9739 55.0592 92.6349Z" fill="#AD8DCB"/>
<path fill-rule="evenodd" clip-rule="evenodd" d="M60.0224 90.6348C59.6994 90.2987 60.354 88.8356 59.1361 88.8603C58.6728 89.2429 58.7046 88.8971 58.6259 89.9777C58.3266 90.9094 60.0315 92.694 60.0224 90.6348Z" fill="#AD8DCB"/>
<path fill-rule="evenodd" clip-rule="evenodd" d="M60.2767 97.7578C60.3044 97.2041 59.7876 92.8243 58.8378 96.1003C58.5022 97.1198 59.5858 99.8134 60.2767 97.7578Z" fill="#AD8DCB"/>
<path fill-rule="evenodd" clip-rule="evenodd" d="M59.2826 102.349C59.4259 103.051 58.8314 104.992 59.916 105.073C61.4028 105.067 60.46 100.05 59.2826 102.349Z" fill="#AD8DCB"/>
<path fill-rule="evenodd" clip-rule="evenodd" d="M60.8056 109.948C59.3813 107.563 58.9846 112.778 60.4285 113.091C61.6423 112.799 60.6986 111.262 60.8056 109.948Z" fill="#AD8DCB"/>
<path fill-rule="evenodd" clip-rule="evenodd" d="M61.3043 115.758C59.7317 114.41 60.2132 117.732 60.8627 118.943C62.5206 119.29 61.699 116.991 61.3043 115.758Z" fill="#AD8DCB"/>
<path fill-rule="evenodd" clip-rule="evenodd" d="M62.227 124.353C62.3466 123.804 61.5517 120.434 60.7411 122.796C60.621 123.345 61.4169 126.716 62.227 124.353Z" fill="#AD8DCB"/>
<path fill-rule="evenodd" clip-rule="evenodd" d="M61.3945 129.169C61.5374 129.87 60.9433 131.812 62.0279 131.892C63.5148 131.886 62.572 126.87 61.3945 129.169Z" fill="#AD8DCB"/>
<path fill-rule="evenodd" clip-rule="evenodd" d="M60.9721 135.715C60.9186 136.605 60.8031 138.704 62.1455 137.745C62.7805 136.749 61.926 133.869 60.9721 135.715Z" fill="#AD8DCB"/>
<path fill-rule="evenodd" clip-rule="evenodd" d="M63.086 143.357C63.2092 142.808 62.4178 139.437 61.6052 141.8C61.4826 142.349 62.274 145.72 63.086 143.357Z" fill="#AD8DCB"/>
<path fill-rule="evenodd" clip-rule="evenodd" d="M63.3241 146.905C62.2279 144.413 61.1166 150.08 63.3554 149.25C63.8031 148.553 63.365 148.07 63.3241 146.905Z" fill="#AD8DCB"/>
<path fill-rule="evenodd" clip-rule="evenodd" d="M63.1047 152.588C63.0124 150.732 60.9502 151.853 62.2089 153.484C62.4345 153.797 63.6695 153.628 63.1047 152.588Z" fill="#AD8DCB"/>
<path fill-rule="evenodd" clip-rule="evenodd" d="M57.4743 105.854C57.335 104.596 55.993 101.767 55.9117 105.336C55.8007 106.46 57.5818 107.488 57.4743 105.854Z" fill="#AD8DCB"/>
<path fill-rule="evenodd" clip-rule="evenodd" d="M56.5373 111.007C56.6796 111.637 56.188 113.456 56.8653 113.874C58.7221 114.681 57.845 108.489 56.5373 111.007Z" fill="#AD8DCB"/>
<path fill-rule="evenodd" clip-rule="evenodd" d="M56.7488 117.554C56.8916 118.255 56.297 120.197 57.3821 120.278C58.869 120.272 57.9257 115.255 56.7488 117.554Z" fill="#AD8DCB"/>
<path fill-rule="evenodd" clip-rule="evenodd" d="M56.7488 123.467C56.8916 124.169 56.297 126.11 57.3821 126.191C58.869 126.184 57.9257 121.168 56.7488 123.467Z" fill="#AD8DCB"/>
<path fill-rule="evenodd" clip-rule="evenodd" d="M56.5373 130.436C56.6564 131.05 56.2279 131.989 56.8654 132.458C58.7383 133.165 57.7077 128.146 56.5373 130.436Z" fill="#AD8DCB"/>
<path fill-rule="evenodd" clip-rule="evenodd" d="M56.7487 136.138C56.5474 137.124 56.8951 139.858 58.016 138.039C58.2169 137.052 57.8692 134.318 56.7487 136.138Z" fill="#AD8DCB"/>
<path fill-rule="evenodd" clip-rule="evenodd" d="M56.7488 142.473C56.8906 143.103 56.3995 144.921 57.0768 145.34C58.9336 146.146 58.0564 139.955 56.7488 142.473Z" fill="#AD8DCB"/>
<path fill-rule="evenodd" clip-rule="evenodd" d="M56.7487 149.02C56.6857 149.608 56.7033 150.684 57.687 150.408C58.8256 149.751 57.4356 147.347 56.7487 149.02Z" fill="#AD8DCB"/>
<path fill-rule="evenodd" clip-rule="evenodd" d="M57.7576 152.209C56.9299 151.939 56.0437 154.585 57.533 154.696C58.1336 154.392 58.6171 153.023 57.7576 152.209Z" fill="#AD8DCB"/>
<path fill-rule="evenodd" clip-rule="evenodd" d="M53.3164 117.047C53.3795 115.038 51.2613 116.803 52.0602 118.592C53.2967 119.641 53.2064 118.516 53.3164 117.047Z" fill="#AD8DCB"/>
<path fill-rule="evenodd" clip-rule="evenodd" d="M52.7285 121.777C51.5984 121.654 51.5692 126.537 53.1514 124.311C52.9697 123.768 54.0245 122.208 52.7285 121.777Z" fill="#AD8DCB"/>
<path fill-rule="evenodd" clip-rule="evenodd" d="M53.7659 131.325C53.6604 130.729 53.5453 127.748 52.3174 129.591C51.9449 130.274 53.0654 133.564 53.7659 131.325Z" fill="#AD8DCB"/>
<path fill-rule="evenodd" clip-rule="evenodd" d="M52.1025 136.56C51.9016 137.546 52.2493 140.281 53.3703 138.461C53.5711 137.475 53.2229 134.74 52.1025 136.56Z" fill="#AD8DCB"/>
<path fill-rule="evenodd" clip-rule="evenodd" d="M52.9473 143.318C52.8943 144.207 52.7782 146.306 54.1207 145.347C54.7556 144.351 53.9012 141.471 52.9473 143.318Z" fill="#AD8DCB"/>
<path fill-rule="evenodd" clip-rule="evenodd" d="M52.9473 150.498C53.0664 151.112 52.6379 152.05 53.2753 152.52C55.1483 153.227 54.1177 148.208 52.9473 150.498Z" fill="#AD8DCB"/>
<path fill-rule="evenodd" clip-rule="evenodd" d="M53.3416 156.666C53.3416 153.662 50.3134 156.147 52.8989 157.446C53.0862 157.362 53.2623 157.287 53.3416 156.666Z" fill="#AD8DCB"/>
<path fill-rule="evenodd" clip-rule="evenodd" d="M48.7032 119.708C48.4771 119.053 48.7744 115.052 47.2507 117.132C46.9771 117.845 47.5964 122.233 48.7032 119.708Z" fill="#AD8DCB"/>
<path fill-rule="evenodd" clip-rule="evenodd" d="M49.2803 126.061C48.875 125.46 49.6119 124.246 48.7014 123.493C48.2053 123.632 47.9045 123.388 47.8566 124.557C47.4942 125.595 48.6807 128.045 49.2803 126.061Z" fill="#AD8DCB"/>
<path fill-rule="evenodd" clip-rule="evenodd" d="M48.5124 131.492C48.3115 132.478 48.6593 135.212 49.7802 133.393C49.9806 132.406 49.6328 129.672 48.5124 131.492Z" fill="#AD8DCB"/>
<path fill-rule="evenodd" clip-rule="evenodd" d="M50.166 139.564C49.6896 139.029 50.6182 137.429 49.3671 136.984C49.0294 137.166 48.7392 136.984 48.6948 138.194C48.3824 139.25 49.6588 141.476 50.166 139.564Z" fill="#AD8DCB"/>
<path fill-rule="evenodd" clip-rule="evenodd" d="M50.5963 146.53C50.4519 145.975 50.4873 142.673 49.1498 144.585C48.7854 145.414 49.8115 148.814 50.5963 146.53Z" fill="#AD8DCB"/>
<path fill-rule="evenodd" clip-rule="evenodd" d="M45.1161 122.875C45.3442 121.373 43.122 119.793 43.8937 123.212C44.0593 123.692 45.0767 124.023 45.1161 122.875Z" fill="#AD8DCB"/>
<path fill-rule="evenodd" clip-rule="evenodd" d="M45.7105 129.434C45.2926 128.836 46.0153 127.626 45.1089 126.872C44.6143 127.011 44.3095 126.767 44.2666 127.935C43.9042 128.976 45.1432 131.409 45.7105 129.434Z" fill="#AD8DCB"/>
<path fill-rule="evenodd" clip-rule="evenodd" d="M45.775 136.81C45.8982 136.26 45.1073 132.889 44.2942 135.253C44.1716 135.802 44.963 139.173 45.775 136.81Z" fill="#AD8DCB"/>
<path fill-rule="evenodd" clip-rule="evenodd" d="M46.7869 143.786C46.8369 143.152 45.882 140.036 45.1426 142.222C45.1719 143.238 46.0768 145.879 46.7869 143.786Z" fill="#AD8DCB"/>
<path fill-rule="evenodd" clip-rule="evenodd" d="M47.7997 149.752C48.0152 147.551 45.6139 147.231 46.7056 150.393C46.9841 150.815 48.0607 150.872 47.7997 149.752Z" fill="#AD8DCB"/>
<path fill-rule="evenodd" clip-rule="evenodd" d="M48.7239 152.821C48.6018 153.704 48.7501 155.265 49.8973 154.428C50.5857 153.408 49.4915 151.16 48.7239 152.821Z" fill="#AD8DCB"/>
<path fill-rule="evenodd" clip-rule="evenodd" d="M65.2882 91.0675C65.1615 90.584 65.2776 89.0669 64.1496 89.6352C62.9242 90.42 65.1509 93.3952 65.2882 91.0675Z" fill="#AD8DCB"/>
<path fill-rule="evenodd" clip-rule="evenodd" d="M65.6144 95.1697C64.1533 92.7905 63.8349 97.9925 65.2829 98.3069C66.4926 98.0172 65.5261 96.4809 65.6144 95.1697Z" fill="#AD8DCB"/>
<path fill-rule="evenodd" clip-rule="evenodd" d="M63.9284 101.505C64.0707 102.134 63.5796 103.953 64.2569 104.371C66.1137 105.178 65.2366 98.9861 63.9284 101.505Z" fill="#AD8DCB"/>
<path fill-rule="evenodd" clip-rule="evenodd" d="M65.574 110.212C65.0799 109.673 66.0752 107.891 64.7857 107.419C64.4263 107.626 64.1604 107.39 64.1094 108.683C63.8071 109.72 64.9492 112.209 65.574 110.212Z" fill="#AD8DCB"/>
<path fill-rule="evenodd" clip-rule="evenodd" d="M65.716 116.555C65.7907 116.064 65.0609 112.308 64.1656 114.765C64.0909 115.257 64.8217 119.012 65.716 116.555Z" fill="#AD8DCB"/>
<path fill-rule="evenodd" clip-rule="evenodd" d="M65.8535 120.93C64.7618 118.438 63.6358 124.107 65.8777 123.276C66.3244 122.58 65.8903 122.096 65.8535 120.93Z" fill="#AD8DCB"/>
<path fill-rule="evenodd" clip-rule="evenodd" d="M66.4922 127.899C65.6247 125.807 64.3437 129.721 66.0663 130.645C67.0005 130.484 66.5816 129.177 66.4922 127.899Z" fill="#AD8DCB"/>
<path fill-rule="evenodd" clip-rule="evenodd" d="M64.9846 134.237C65.1274 134.939 64.5334 136.88 65.618 136.961C67.1048 136.955 66.162 131.938 64.9846 134.237Z" fill="#AD8DCB"/>
<path fill-rule="evenodd" clip-rule="evenodd" d="M64.9846 141.628C65.1269 142.258 64.6353 144.077 65.3126 144.495C67.1694 145.302 66.2922 139.11 64.9846 141.628Z" fill="#AD8DCB"/>
<path fill-rule="evenodd" clip-rule="evenodd" d="M78.8765 82.1244C78.6151 81.4663 79.0532 77.4777 77.4594 79.5439C77.1328 80.2596 77.7768 84.6489 78.8765 82.1244Z" fill="#AD8DCB"/>
<path fill-rule="evenodd" clip-rule="evenodd" d="M79.1003 86.304C78.1873 84.2191 77.0114 88.1032 78.7339 89.0425C79.6762 88.8785 79.231 87.5809 79.1003 86.304Z" fill="#AD8DCB"/>
<path fill-rule="evenodd" clip-rule="evenodd" d="M79.5774 93.4776C78.135 91.096 77.7767 96.3044 79.2226 96.6179C80.4344 96.3272 79.4795 94.7904 79.5774 93.4776Z" fill="#AD8DCB"/>
<path fill-rule="evenodd" clip-rule="evenodd" d="M80.6415 101.502C79.7744 99.4096 78.4925 103.324 80.215 104.247C81.1492 104.087 80.7303 102.78 80.6415 101.502Z" fill="#AD8DCB"/>
<path fill-rule="evenodd" clip-rule="evenodd" d="M79.9781 109.107C80.1204 109.736 79.6293 111.555 80.3061 111.974C82.1634 112.78 81.2858 106.589 79.9781 109.107Z" fill="#AD8DCB"/>
<path fill-rule="evenodd" clip-rule="evenodd" d="M81.4759 115.651C80.4055 113.209 79.2815 118.614 81.5128 117.784C81.9347 117.152 81.541 116.702 81.4759 115.651Z" fill="#AD8DCB"/>
<path fill-rule="evenodd" clip-rule="evenodd" d="M79.9781 123.045C80.0972 123.659 79.6687 124.598 80.3061 125.067C82.1791 125.774 81.149 120.754 79.9781 123.045Z" fill="#AD8DCB"/>
<path fill-rule="evenodd" clip-rule="evenodd" d="M79.5749 128.749C78.4495 128.628 78.3753 133.506 79.9721 131.28C79.796 130.737 80.8796 129.18 79.5749 128.749Z" fill="#AD8DCB"/>
<path fill-rule="evenodd" clip-rule="evenodd" d="M75.9967 134.874C75.4178 134.893 73.9239 138.511 75.6026 138.436C76.1905 137.966 77.3655 135.477 75.9967 134.874Z" fill="#AD8DCB"/>
<path fill-rule="evenodd" clip-rule="evenodd" d="M71.3372 141.036C71.4436 141.799 70.0032 142.896 70.4025 143.917C71.1322 144.192 71.1812 144.272 71.8156 143.276C72.5605 142.523 72.9275 139.601 71.3372 141.036Z" fill="#AD8DCB"/>
<path fill-rule="evenodd" clip-rule="evenodd" d="M69.1686 138.466C68.2662 136.379 67.067 140.27 68.789 141.206C69.7293 141.042 69.2897 139.743 69.1686 138.466Z" fill="#AD8DCB"/>
<path fill-rule="evenodd" clip-rule="evenodd" d="M67.958 75.105C66.8962 72.6623 65.748 78.0717 67.9838 77.2394C68.4047 76.6075 68.0166 76.1568 67.958 75.105Z" fill="#AD8DCB"/>
<path fill-rule="evenodd" clip-rule="evenodd" d="M67.3075 81.6538C67.1066 82.6399 67.4543 85.3744 68.5752 83.5544C68.7756 82.5683 68.4279 79.8338 67.3075 81.6538Z" fill="#AD8DCB"/>
<path fill-rule="evenodd" clip-rule="evenodd" d="M68.7585 90.5678C68.9533 89.0976 67.2959 86.1996 67.3534 90.2281C67.2388 91.2506 68.7105 91.8537 68.7585 90.5678Z" fill="#AD8DCB"/>
<path fill-rule="evenodd" clip-rule="evenodd" d="M68.966 95.2135C67.5104 93.7514 67.6083 96.5056 68.2932 97.9752C69.9007 98.5592 69.2077 96.6176 68.966 95.2135Z" fill="#AD8DCB"/>
<path fill-rule="evenodd" clip-rule="evenodd" d="M67.9408 103.616C67.7399 104.603 68.0877 107.337 69.2086 105.517C69.4095 104.53 69.0612 101.797 67.9408 103.616Z" fill="#AD8DCB"/>
<path fill-rule="evenodd" clip-rule="evenodd" d="M69.5519 112.968C69.1492 112.367 69.8845 111.153 68.9736 110.4C68.4785 110.539 68.1766 110.295 68.1302 111.464C67.7688 112.501 68.9483 114.953 69.5519 112.968Z" fill="#AD8DCB"/>
<path fill-rule="evenodd" clip-rule="evenodd" d="M69.8063 117.347C68.9322 115.256 67.6674 119.166 69.39 120.091C70.3247 119.93 69.9012 118.625 69.8063 117.347Z" fill="#AD8DCB"/>
<path fill-rule="evenodd" clip-rule="evenodd" d="M69.5614 124.119C68.714 123.836 67.8383 126.664 69.3307 126.816C69.9459 126.512 70.4178 125.001 69.5614 124.119Z" fill="#AD8DCB"/>
<path fill-rule="evenodd" clip-rule="evenodd" d="M68.997 132.125C68.9435 133.015 68.8279 135.114 70.1704 134.155C70.8053 133.159 69.9509 130.279 68.997 132.125Z" fill="#AD8DCB"/>
<path fill-rule="evenodd" clip-rule="evenodd" d="M71.9118 79.3358C69.7103 76.3404 70.8767 85.4073 72.3166 82.5058C72.2207 81.7588 72.0658 80.5415 71.9118 79.3358Z" fill="#AD8DCB"/>
<path fill-rule="evenodd" clip-rule="evenodd" d="M72.7556 90.5742C72.9807 88.4933 70.6717 87.0852 71.5333 90.9113C71.6387 91.2813 72.6991 91.7521 72.7556 90.5742Z" fill="#AD8DCB"/>
<path fill-rule="evenodd" clip-rule="evenodd" d="M73.1933 97.1141C73.054 96.5589 73.0767 93.2556 71.7463 95.1695C71.3875 95.9972 72.405 99.3993 73.1933 97.1141Z" fill="#AD8DCB"/>
<path fill-rule="evenodd" clip-rule="evenodd" d="M73.8103 106.2C73.3172 105.661 74.3105 103.878 73.022 103.407C72.6622 103.614 72.3957 103.378 72.3457 104.67C72.0439 105.707 73.185 108.197 73.8103 106.2Z" fill="#AD8DCB"/>
<path fill-rule="evenodd" clip-rule="evenodd" d="M72.798 112.697C72.9403 113.326 72.4493 115.145 73.1261 115.564C74.9828 116.37 74.1062 110.179 72.798 112.697Z" fill="#AD8DCB"/>
<path fill-rule="evenodd" clip-rule="evenodd" d="M74.0351 120.507C73.3028 120.42 72.3585 124.471 74.2617 123.697C74.403 122.979 75.3377 121.129 74.0351 120.507Z" fill="#AD8DCB"/>
<path fill-rule="evenodd" clip-rule="evenodd" d="M74.6719 128.955C73.5434 128.832 73.5015 133.715 75.0878 131.488C74.9081 130.945 75.9705 129.386 74.6719 128.955Z" fill="#AD8DCB"/>
<path fill-rule="evenodd" clip-rule="evenodd" d="M75.8982 85.7204C75.6761 85.0371 76.0506 81.3361 74.5047 83.3453C74.1544 84.0918 74.8666 88.1798 75.8982 85.7204Z" fill="#AD8DCB"/>
<path fill-rule="evenodd" clip-rule="evenodd" d="M77.156 94.595C76.7507 93.9944 77.4876 92.7806 76.5771 92.0276C76.081 92.1669 75.7802 91.9226 75.7322 93.0915C75.3699 94.1292 76.5564 96.5795 77.156 94.595Z" fill="#AD8DCB"/>
<path fill-rule="evenodd" clip-rule="evenodd" d="M77.0584 102.133C75.9945 99.6907 74.8518 105.1 77.0871 104.268C77.5075 103.635 77.1184 103.185 77.0584 102.133Z" fill="#AD8DCB"/>
<path fill-rule="evenodd" clip-rule="evenodd" d="M40.4925 50.226C40.1245 50.7878 39.7899 53.7544 41.2914 52.2524C41.6593 51.6907 41.9934 48.7236 40.4925 50.226Z" fill="#AD8DCB"/>
<path fill-rule="evenodd" clip-rule="evenodd" d="M38.1849 55.5096C38.0789 56.2439 36.7485 58.4171 38.2621 58.3793C39.2962 58.3192 39.9872 53.7219 38.1849 55.5096Z" fill="#AD8DCB"/>
<path fill-rule="evenodd" clip-rule="evenodd" d="M35.4539 61.2155C35.0678 61.7747 34.6554 64.7146 36.2064 63.2282C36.592 62.669 37.0043 59.7292 35.4539 61.2155Z" fill="#AD8DCB"/>
<path fill-rule="evenodd" clip-rule="evenodd" d="M33.7387 67.1215C33.4238 67.6484 32.9292 70.9103 34.518 69.3548C34.8319 68.8274 35.3265 65.566 33.7387 67.1215Z" fill="#AD8DCB"/>
<path fill-rule="evenodd" clip-rule="evenodd" d="M32.6603 72.8112C31.7847 72.7027 31.1266 74.885 32.0648 75.7152C32.9414 75.8238 33.5986 73.6414 32.6603 72.8112Z" fill="#AD8DCB"/>
<path fill-rule="evenodd" clip-rule="evenodd" d="M30.9673 79.358C30.1391 79.0779 29.1817 81.8951 30.6973 82.0475C31.2919 81.7392 31.842 80.2382 30.9673 79.358Z" fill="#AD8DCB"/>
<path fill-rule="evenodd" clip-rule="evenodd" d="M32.2788 85.8801C32.3202 86.4913 31.3315 89.8026 33.158 88.7453C33.7379 88.0377 33.7854 83.7336 32.2788 85.8801Z" fill="#AD8DCB"/>
<path fill-rule="evenodd" clip-rule="evenodd" d="M36.4894 86.511C36.334 87.0939 35.9923 90.0852 37.4741 88.5711C37.8788 88.017 37.8395 84.5593 36.4894 86.511Z" fill="#AD8DCB"/>
<path fill-rule="evenodd" clip-rule="evenodd" d="M40.699 88.4115C40.7676 88.9126 40.5572 90.7654 40.7929 91.2847C42.7864 93.0915 42.208 85.6795 40.699 88.4115Z" fill="#AD8DCB"/>
<path fill-rule="evenodd" clip-rule="evenodd" d="M32.6741 92.2125C32.4732 93.1992 32.821 95.9331 33.9419 94.1132C34.1423 93.127 33.7945 90.393 32.6741 92.2125Z" fill="#AD8DCB"/>
<path fill-rule="evenodd" clip-rule="evenodd" d="M37.9537 94.5354C37.9002 95.4251 37.7846 97.5242 39.1271 96.5647C39.762 95.5685 38.9076 92.6887 37.9537 94.5354Z" fill="#AD8DCB"/>
<path fill-rule="evenodd" clip-rule="evenodd" d="M34.3637 98.5478C34.1623 99.5345 34.5106 102.268 35.6315 100.449C35.8319 99.4623 35.4841 96.7284 34.3637 98.5478Z" fill="#AD8DCB"/>
<path fill-rule="evenodd" clip-rule="evenodd" d="M38.7985 101.504C38.745 102.394 38.6294 104.493 39.9719 103.534C40.6068 102.538 39.7519 99.6578 38.7985 101.504Z" fill="#AD8DCB"/>
<path fill-rule="evenodd" clip-rule="evenodd" d="M44.289 93.2687C44.1669 94.1519 44.3153 95.7125 45.4625 94.8762C46.1509 93.8557 45.0567 91.6073 44.289 93.2687Z" fill="#AD8DCB"/>
<path fill-rule="evenodd" clip-rule="evenodd" d="M49.9906 90.312C49.7897 91.2982 50.1374 94.0326 51.2584 92.2127C51.4592 91.2265 51.111 88.4921 49.9906 90.312Z" fill="#AD8DCB"/>
<path fill-rule="evenodd" clip-rule="evenodd" d="M30.7406 124.568C29.2846 123.106 29.383 125.86 30.0684 127.329C31.6758 127.913 30.9824 125.972 30.7406 124.568Z" fill="#AD8DCB"/>
<path fill-rule="evenodd" clip-rule="evenodd" d="M31.7549 132.815C31.6762 132.526 31.6106 132.278 31.3547 131.332C28.9614 129.189 30.7728 135.664 31.7549 132.815Z" fill="#AD8DCB"/>
<path fill-rule="evenodd" clip-rule="evenodd" d="M33.4228 139.412C33.3178 138.75 31.6039 135.232 31.4731 138.029C31.8668 139.412 33.1932 141.753 33.4228 139.412Z" fill="#AD8DCB"/>
<path fill-rule="evenodd" clip-rule="evenodd" d="M36.3593 144.912C36.3654 144.926 35.3943 142.733 35.3262 142.579C32.6791 140.881 35.8687 148.29 36.3593 144.912Z" fill="#AD8DCB"/>
<path fill-rule="evenodd" clip-rule="evenodd" d="M39.142 150.807C38.6222 150.387 37.5224 147.15 36.403 148.772C36.2506 149.59 39.1869 153.298 39.142 150.807Z" fill="#AD8DCB"/>
<path fill-rule="evenodd" clip-rule="evenodd" d="M43.8923 155.33C43.3028 154.747 41.9769 152.995 41.5454 154.588C41.663 155.699 44.4621 157.405 43.8923 155.33Z" fill="#AD8DCB"/>
<path fill-rule="evenodd" clip-rule="evenodd" d="M46.9402 158.597C46.4612 158.283 45.5926 157.987 44.5459 158.135C42.3964 159.234 48.3897 160.645 46.9402 158.597Z" fill="#AD8DCB"/>
<path fill-rule="evenodd" clip-rule="evenodd" d="M35.2084 124.734C35.3508 125.363 34.8592 127.183 35.5365 127.601C37.3933 128.408 36.5161 122.216 35.2084 124.734Z" fill="#AD8DCB"/>
<path fill-rule="evenodd" clip-rule="evenodd" d="M37.0745 131.074C36.1615 128.989 34.986 132.873 36.7085 133.812C37.6508 133.648 37.2057 132.351 37.0745 131.074Z" fill="#AD8DCB"/>
<path fill-rule="evenodd" clip-rule="evenodd" d="M37.9444 136.389C36.4807 134.928 36.5897 137.68 37.2822 139.149C38.8937 139.732 38.1922 137.793 37.9444 136.389Z" fill="#AD8DCB"/>
<path fill-rule="evenodd" clip-rule="evenodd" d="M39.6235 143.109C38.4562 140.562 37.5553 146.709 39.7068 145.659C40.1085 145.46 39.6346 143.443 39.6235 143.109Z" fill="#AD8DCB"/>
<path fill-rule="evenodd" clip-rule="evenodd" d="M41.4906 124.366C41.6253 123.361 40.4272 119.934 40.0406 123.59C39.7938 124.689 41.2968 125.903 41.4906 124.366Z" fill="#AD8DCB"/>
<path fill-rule="evenodd" clip-rule="evenodd" d="M42.1495 132.17C42.3458 130.7 40.6884 127.803 40.7449 131.83C40.6299 132.853 42.1006 133.457 42.1495 132.17Z" fill="#AD8DCB"/>
<path fill-rule="evenodd" clip-rule="evenodd" d="M42.4127 136.769C41.321 134.277 40.1951 139.945 42.4364 139.115C42.8836 138.418 42.449 137.935 42.4127 136.769Z" fill="#AD8DCB"/>
<path fill-rule="evenodd" clip-rule="evenodd" d="M41.9661 142.684C41.7648 143.671 42.113 146.405 43.2334 144.585C43.4343 143.599 43.0866 140.865 41.9661 142.684Z" fill="#AD8DCB"/>
<path fill-rule="evenodd" clip-rule="evenodd" d="M44.2674 151.385C44.4117 150.786 43.5229 147.774 42.8073 150.036C42.6634 150.636 43.5527 153.647 44.2674 151.385Z" fill="#AD8DCB"/>
<path fill-rule="evenodd" clip-rule="evenodd" d="M41.3688 62.0608C41.2865 62.3495 41.2143 62.5958 40.9443 63.5385C41.8846 66.5995 43.6874 60.1237 41.3688 62.0608Z" fill="#AD8DCB"/>
<path fill-rule="evenodd" clip-rule="evenodd" d="M43.0332 56.9847C42.3261 57.5914 42.9651 60.717 44.0456 57.9558C44.6331 57.2164 43.8887 55.9213 43.0332 56.9847Z" fill="#AD8DCB"/>
<path fill-rule="evenodd" clip-rule="evenodd" d="M45.1397 50.6489C44.7703 51.2102 44.4291 54.1748 45.9341 52.6743C46.304 52.1126 46.6447 49.1475 45.1397 50.6489Z" fill="#AD8DCB"/>
<path fill-rule="evenodd" clip-rule="evenodd" d="M47.538 43.7409C47.0379 44.2199 46.1814 47.3586 47.9807 46.3032C48.3072 45.5916 49.4024 42.7547 47.538 43.7409Z" fill="#AD8DCB"/>
<path fill-rule="evenodd" clip-rule="evenodd" d="M49.2591 36.9723C48.4698 36.5251 46.8805 39.1415 48.2987 39.625C49.0633 39.3938 49.9107 37.8056 49.2591 36.9723Z" fill="#AD8DCB"/>
<path fill-rule="evenodd" clip-rule="evenodd" d="M49.1206 33.057C48.4019 33.3421 47.9134 35.1217 49.3836 34.5862C50.1012 34.301 50.5898 32.5215 49.1206 33.057Z" fill="#AD8DCB"/>
<path fill-rule="evenodd" clip-rule="evenodd" d="M54.5871 27.2219C54.7294 26.21 53.4939 22.7993 53.1416 26.4472C52.8963 27.5444 54.3801 28.7638 54.5871 27.2219Z" fill="#AD8DCB"/>
<path fill-rule="evenodd" clip-rule="evenodd" d="M53.1587 31.8155C53.3015 32.517 52.707 34.4581 53.7921 34.5388C55.2789 34.5328 54.3356 29.5166 53.1587 31.8155Z" fill="#AD8DCB"/>
<path fill-rule="evenodd" clip-rule="evenodd" d="M53.7753 38.998C52.0618 35.8916 52.0099 45.0609 53.7374 40.881C53.8147 40.3622 53.8404 39.8706 53.7753 38.998Z" fill="#AD8DCB"/>
<path fill-rule="evenodd" clip-rule="evenodd" d="M51.0453 45.5704C50.1939 45.2863 49.3354 48.1171 50.8232 48.2685C51.4425 47.9652 51.8977 46.4531 51.0453 45.5704Z" fill="#AD8DCB"/>
<path fill-rule="evenodd" clip-rule="evenodd" d="M49.1462 52.3001C49.2891 53.0011 48.695 54.9426 49.7796 55.0234C51.2665 55.0173 50.3232 50.0012 49.1462 52.3001Z" fill="#AD8DCB"/>
<path fill-rule="evenodd" clip-rule="evenodd" d="M47.8791 58.4239C48.0219 59.1254 47.4279 61.067 48.5125 61.1472C49.9994 61.1417 49.0561 56.125 47.8791 58.4239Z" fill="#AD8DCB"/>
<path fill-rule="evenodd" clip-rule="evenodd" d="M47.2536 65.1826C47.2743 65.657 46.376 68.9057 48.1429 67.8373C48.7097 67.274 48.7591 63.137 47.2536 65.1826Z" fill="#AD8DCB"/>
<path fill-rule="evenodd" clip-rule="evenodd" d="M47.0343 71.7284C46.9808 72.6177 46.8652 74.7167 48.2077 73.7578C48.8426 72.761 47.9882 69.8817 47.0343 71.7284Z" fill="#AD8DCB"/>
<path fill-rule="evenodd" clip-rule="evenodd" d="M47.0343 78.0637C46.9122 78.9469 47.0606 80.5074 48.2077 79.6712C48.8961 78.6507 47.802 76.4022 47.0343 78.0637Z" fill="#AD8DCB"/>
<path fill-rule="evenodd" clip-rule="evenodd" d="M45.7657 62.6478C45.315 61.115 43.6959 62.994 44.5928 64.4566C45.4538 64.768 45.7824 63.7576 45.7657 62.6478Z" fill="#AD8DCB"/>
<path fill-rule="evenodd" clip-rule="evenodd" d="M43.6552 68.3493C43.628 68.9297 43.5028 70.2611 44.594 69.9492C45.7068 69.3183 44.4441 66.5839 43.6552 68.3493Z" fill="#AD8DCB"/>
<path fill-rule="evenodd" clip-rule="evenodd" d="M43.4443 73.6289C43.4166 74.2093 43.2919 75.5407 44.383 75.2288C45.4959 74.5979 44.2326 71.8634 43.4443 73.6289Z" fill="#AD8DCB"/>
<path fill-rule="evenodd" clip-rule="evenodd" d="M57.1711 26.3249C57.049 27.2081 57.1974 28.7692 58.344 27.9324C59.033 26.9119 57.9388 24.664 57.1711 26.3249Z" fill="#AD8DCB"/>
<path fill-rule="evenodd" clip-rule="evenodd" d="M56.7488 32.4488C56.6266 33.332 56.775 34.893 57.9217 34.0562C58.6106 33.0362 57.5164 30.7878 56.7488 32.4488Z" fill="#AD8DCB"/>
<path fill-rule="evenodd" clip-rule="evenodd" d="M55.904 40.0513C55.9721 40.5529 55.7622 42.4057 55.9979 42.925C57.9914 44.7313 57.413 37.3193 55.904 40.0513Z" fill="#AD8DCB"/>
<path fill-rule="evenodd" clip-rule="evenodd" d="M55.2701 47.4428C55.3892 48.057 54.9613 48.9952 55.5987 49.4646C57.4711 50.1717 56.441 45.1525 55.2701 47.4428Z" fill="#AD8DCB"/>
<path fill-rule="evenodd" clip-rule="evenodd" d="M54.2144 52.511C54.0923 53.3942 54.2407 54.9552 55.3879 54.1184C56.0763 53.0979 54.9821 50.85 54.2144 52.511Z" fill="#AD8DCB"/>
<path fill-rule="evenodd" clip-rule="evenodd" d="M52.9473 59.4796C52.8943 60.3694 52.7782 62.4684 54.1207 61.509C54.7556 60.5127 53.9012 57.6334 52.9473 59.4796Z" fill="#AD8DCB"/>
<path fill-rule="evenodd" clip-rule="evenodd" d="M52.3139 66.0264C52.433 66.6406 52.0046 67.5793 52.642 68.0482C54.5149 68.7553 53.4843 63.7366 52.3139 66.0264Z" fill="#AD8DCB"/>
<path fill-rule="evenodd" clip-rule="evenodd" d="M52.3139 71.306C52.433 71.9202 52.0046 72.8585 52.642 73.3278C54.5149 74.0349 53.4843 69.0157 52.3139 71.306Z" fill="#AD8DCB"/>
<path fill-rule="evenodd" clip-rule="evenodd" d="M52.5249 76.7966C52.4623 77.3845 52.4794 78.4611 53.4636 78.1855C54.6017 77.5274 53.2123 75.124 52.5249 76.7966Z" fill="#AD8DCB"/>
<path fill-rule="evenodd" clip-rule="evenodd" d="M56.9597 70.8836C57.0788 71.4978 56.6503 72.4365 57.2877 72.9054C59.1606 73.6125 58.1301 68.5933 56.9597 70.8836Z" fill="#AD8DCB"/>
<path fill-rule="evenodd" clip-rule="evenodd" d="M56.9597 76.1632C56.9319 76.7431 56.8072 78.075 57.8984 77.7631C59.0113 77.1323 57.748 74.3978 56.9597 76.1632Z" fill="#AD8DCB"/>
<path fill-rule="evenodd" clip-rule="evenodd" d="M61.1831 69.1941C61.0609 70.0773 61.2098 71.6383 62.3565 70.8015C63.0454 69.781 61.9507 67.5331 61.1831 69.1941Z" fill="#AD8DCB"/>
<path fill-rule="evenodd" clip-rule="evenodd" d="M62.0278 74.0513C61.2128 74.0513 61.2112 75.3186 62.0278 75.3186C62.8429 75.3186 62.8444 74.0513 62.0278 74.0513Z" fill="#AD8DCB"/>
<path fill-rule="evenodd" clip-rule="evenodd" d="M59.705 46.3866C59.8241 47.0013 59.3956 47.9396 60.033 48.4089C61.9059 49.116 60.8754 44.0968 59.705 46.3866Z" fill="#AD8DCB"/>
<path fill-rule="evenodd" clip-rule="evenodd" d="M60.119 51.6943C59.2741 51.4107 58.3879 54.2385 59.8828 54.3904C60.4955 54.0851 60.978 52.576 60.119 51.6943Z" fill="#AD8DCB"/>
<path fill-rule="evenodd" clip-rule="evenodd" d="M63.9284 46.809C64.0475 47.4232 63.6195 48.3619 64.2569 48.8313C66.1299 49.5384 65.0993 44.5192 63.9284 46.809Z" fill="#AD8DCB"/>
<path fill-rule="evenodd" clip-rule="evenodd" d="M65.3789 52.7663C65.3789 49.7618 62.3507 52.2475 64.9358 53.546C65.1235 53.4618 65.2996 53.3866 65.3789 52.7663Z" fill="#AD8DCB"/>
<path fill-rule="evenodd" clip-rule="evenodd" d="M64.7697 28.0184C64.3028 27.3698 61.0072 25.7028 61.5568 27.7983C62.2709 28.0436 65.4394 30.1103 64.7697 28.0184Z" fill="#AD8DCB"/>
<path fill-rule="evenodd" clip-rule="evenodd" d="M68.6151 32.8332C68.2618 32.5284 67.0959 30.3738 66.4746 32.0197C66.4438 32.9089 69.0708 35.1513 68.6151 32.8332Z" fill="#AD8DCB"/>
<path fill-rule="evenodd" clip-rule="evenodd" d="M73.3668 39.0872C73.0316 38.7223 72.2433 35.5412 71.1532 37.2002C70.8832 38.0006 73.1492 41.5653 73.3668 39.0872Z" fill="#AD8DCB"/>
<path fill-rule="evenodd" clip-rule="evenodd" d="M76.1258 45.2023C75.6832 44.5573 74.7773 41.9535 73.8779 43.5438C73.6271 44.3801 76.0405 47.5627 76.1258 45.2023Z" fill="#AD8DCB"/>
<path fill-rule="evenodd" clip-rule="evenodd" d="M78.8356 50.9239C78.55 50.4672 77.6642 48.1935 76.8164 49.6784C76.5539 50.6438 78.8488 53.0649 78.8356 50.9239Z" fill="#AD8DCB"/>
<path fill-rule="evenodd" clip-rule="evenodd" d="M81.3197 57.7117C81.0961 57.2595 79.7365 53.8245 79.1702 56.0538C79.2273 56.7952 81.0285 60.1827 81.3197 57.7117Z" fill="#AD8DCB"/>
<path fill-rule="evenodd" clip-rule="evenodd" d="M83.5391 65.0155C83.5154 64.4624 82.3107 60.9946 81.6515 63.2506C81.6752 63.8038 82.88 67.271 83.5391 65.0155Z" fill="#AD8DCB"/>
<path fill-rule="evenodd" clip-rule="evenodd" d="M84.9472 72.0487C85.1496 69.7761 82.7952 69.5974 83.8525 72.6887C84.1407 73.1081 85.2011 73.1682 84.9472 72.0487Z" fill="#AD8DCB"/>
<path fill-rule="evenodd" clip-rule="evenodd" d="M86.0059 78.9676C85.7556 78.4008 85.9579 77.3077 85.2387 77.026C83.2982 76.7156 85.2928 81.4356 86.0059 78.9676Z" fill="#AD8DCB"/>
<path fill-rule="evenodd" clip-rule="evenodd" d="M87.3435 84.402C85.7411 81.8376 85.5957 88.0247 87.344 87.468C88.0728 86.7665 87.292 85.7223 87.3435 84.402Z" fill="#AD8DCB"/>
<path fill-rule="evenodd" clip-rule="evenodd" d="M87.9714 92.6792C86.5113 91.2176 86.6158 93.9707 87.3052 95.4399C88.9142 96.0234 88.2167 94.0833 87.9714 92.6792Z" fill="#AD8DCB"/>
<path fill-rule="evenodd" clip-rule="evenodd" d="M89.0582 99.604C87.4765 97.0361 87.2817 103.232 89.034 102.674C89.7684 101.971 88.9967 100.926 89.0582 99.604Z" fill="#AD8DCB"/>
<path fill-rule="evenodd" clip-rule="evenodd" d="M88.4254 107.207C88.5682 107.908 87.9742 109.849 89.0588 109.93C90.5456 109.924 89.6029 104.908 88.4254 107.207Z" fill="#AD8DCB"/>
<path fill-rule="evenodd" clip-rule="evenodd" d="M88.6363 115.231C88.7796 115.932 88.1851 117.874 89.2702 117.955C90.757 117.949 89.8138 112.932 88.6363 115.231Z" fill="#AD8DCB"/>
<path fill-rule="evenodd" clip-rule="evenodd" d="M89.0395 121.986C87.8953 121.887 87.912 126.503 89.4513 124.308C89.3024 123.773 90.3073 122.382 89.0395 121.986Z" fill="#AD8DCB"/>
<path fill-rule="evenodd" clip-rule="evenodd" d="M23.5832 120.127C23.567 119.571 22.4153 116.089 21.7264 118.352C21.743 118.909 22.8948 122.391 23.5832 120.127Z" fill="#AD8DCB"/>
<path fill-rule="evenodd" clip-rule="evenodd" d="M25.912 128.364C25.7727 127.99 25.8903 127.099 25.4961 126.398C23.3936 124.88 24.9021 131.423 25.912 128.364Z" fill="#AD8DCB"/>
<path fill-rule="evenodd" clip-rule="evenodd" d="M26.9722 135.119C26.8611 134.591 26.3615 132.059 25.2784 133.426C24.8857 134.267 26.4816 137.225 26.9722 135.119Z" fill="#AD8DCB"/>
<path fill-rule="evenodd" clip-rule="evenodd" d="M29.1634 140.49C28.9797 139.856 27.2113 137.749 27.5832 140.395C27.6529 141.543 30.1082 142.328 29.1634 140.49Z" fill="#AD8DCB"/>
<path fill-rule="evenodd" clip-rule="evenodd" d="M31.7071 146.189C31.4008 146.027 31.2307 144.677 30.1653 144.65C29.5495 145.202 29.5076 145.092 30.195 146.191C30.3944 147.05 31.8999 147.586 31.7071 146.189Z" fill="#AD8DCB"/>
<path fill-rule="evenodd" clip-rule="evenodd" d="M32.3606 155.441C31.8671 155.256 29.7524 153.674 29.7478 155.402C29.9896 156.277 33.5053 157.274 32.3606 155.441Z" fill="#AD8DCB"/>
<path fill-rule="evenodd" clip-rule="evenodd" d="M35.7417 152.479C35.2744 152.398 32.7479 150.608 32.9583 152.523C33.3015 153.197 36.8586 154.453 35.7417 152.479Z" fill="#AD8DCB"/>
<path fill-rule="evenodd" clip-rule="evenodd" d="M40.2382 156.839C39.6769 156.47 36.7123 156.129 38.2128 157.634C38.7745 158.004 41.7391 158.344 40.2382 156.839Z" fill="#AD8DCB"/>
<path fill-rule="evenodd" clip-rule="evenodd" d="M49.5721 29.0697C48.92 29.2402 46.7897 31.527 49.4747 30.7135C50.4927 30.552 51.1811 28.5402 49.5721 29.0697Z" fill="#AD8DCB"/>
<path fill-rule="evenodd" clip-rule="evenodd" d="M17.9423 107.047C17.2287 107.653 17.8434 110.768 18.9492 108.017C19.5437 107.279 18.8084 105.988 17.9423 107.047Z" fill="#AD8DCB"/>
<path fill-rule="evenodd" clip-rule="evenodd" d="M17.2582 113.33C17.1361 114.214 17.2844 115.775 18.4316 114.938C19.12 113.917 18.0258 111.669 17.2582 113.33Z" fill="#AD8DCB"/>
<path fill-rule="evenodd" clip-rule="evenodd" d="M17.8915 119.666C17.7694 120.549 17.9183 122.11 19.065 121.273C19.7539 120.253 18.6592 118.005 17.8915 119.666Z" fill="#AD8DCB"/>
<path fill-rule="evenodd" clip-rule="evenodd" d="M19.278 126.951C19.4334 124.706 17.1057 124.448 18.1838 127.591C18.4634 128.013 19.5379 128.07 19.278 126.951Z" fill="#AD8DCB"/>
<path fill-rule="evenodd" clip-rule="evenodd" d="M21.87 134.283C21.7872 133.995 21.718 133.747 21.4501 132.804C19.0204 130.672 20.9211 137.124 21.87 134.283Z" fill="#AD8DCB"/>
<path fill-rule="evenodd" clip-rule="evenodd" d="M17.6614 139.136C17.6457 138.579 16.4975 135.097 15.8071 137.36C15.8227 137.917 16.9714 141.4 17.6614 139.136Z" fill="#AD8DCB"/>
<path fill-rule="evenodd" clip-rule="evenodd" d="M14.2068 142.158C14.1362 141.49 12.3874 139.928 12.4757 141.744C12.5469 142.413 14.2957 143.975 14.2068 142.158Z" fill="#AD8DCB"/>
<path fill-rule="evenodd" clip-rule="evenodd" d="M17.0724 148.572C16.6711 148.224 15.1823 146.151 14.7255 147.83C14.7175 148.802 17.6356 150.674 17.0724 148.572Z" fill="#AD8DCB"/>
<path fill-rule="evenodd" clip-rule="evenodd" d="M21.561 145.348C20.977 144.964 19.1207 142.248 19.0481 144.474C19.2081 145.317 22.4447 147.912 21.561 145.348Z" fill="#AD8DCB"/>
<path fill-rule="evenodd" clip-rule="evenodd" d="M24.1238 141.952C24.0602 141.291 22.318 139.705 22.4013 141.533C22.4649 142.194 24.2071 143.78 24.1238 141.952Z" fill="#AD8DCB"/>
<path fill-rule="evenodd" clip-rule="evenodd" d="M23.9429 151.803C23.5119 151.339 20.6447 149.812 21.6027 151.859C22.0342 152.322 24.9014 153.85 23.9429 151.803Z" fill="#AD8DCB"/>
<path fill-rule="evenodd" clip-rule="evenodd" d="M28.8317 149.247C28.1741 148.94 24.9627 146.573 26.6726 149.436C27.4175 150.55 30.2438 150.893 28.8317 149.247Z" fill="#AD8DCB"/>
<path fill-rule="evenodd" clip-rule="evenodd" d="M15.2906 131.545C15.3552 130.86 14.2989 128.105 13.668 130.188C13.6039 130.873 14.6603 133.627 15.2906 131.545Z" fill="#AD8DCB"/>
<path fill-rule="evenodd" clip-rule="evenodd" d="M44.359 32.9042C43.6817 33.0571 41.4702 34.8296 43.5409 34.876C44.2182 34.7231 46.4298 32.9501 44.359 32.9042Z" fill="#AD8DCB"/>
<path fill-rule="evenodd" clip-rule="evenodd" d="M47.5972 28.1387C47.1172 27.0177 43.8266 29.788 46.2719 29.792C46.4788 29.4494 47.7935 29.2576 47.5972 28.1387Z" fill="#AD8DCB"/>
<path fill-rule="evenodd" clip-rule="evenodd" d="M51.8688 24.4668C51.7442 23.6093 47.6622 24.5506 48.8356 26.0303C49.6028 26.0813 51.5095 25.7588 51.8688 24.4668Z" fill="#AD8DCB"/>
<path fill-rule="evenodd" clip-rule="evenodd" d="M35.2947 50.5016C34.7779 50.9669 33.7125 53.5923 35.5445 52.6198C36.0618 52.1544 37.1263 49.529 35.2947 50.5016Z" fill="#AD8DCB"/>
<path fill-rule="evenodd" clip-rule="evenodd" d="M32.9294 54.8837C32.7346 55.2516 31.8867 57.6317 33.4831 56.9797C34.2896 56.5779 34.4218 53.4009 32.9294 54.8837Z" fill="#AD8DCB"/>
<path fill-rule="evenodd" clip-rule="evenodd" d="M30.9925 59.7285C30.9425 60.3468 28.8727 63.6329 31.0061 63.1231C31.6703 62.6432 33.1092 57.9515 30.9925 59.7285Z" fill="#AD8DCB"/>
<path fill-rule="evenodd" clip-rule="evenodd" d="M29.1551 66.7194C28.6287 67.4507 28.1114 70.5864 29.7541 68.8694C30.491 67.4572 30.6374 65.4657 29.1551 66.7194Z" fill="#AD8DCB"/>
<path fill-rule="evenodd" clip-rule="evenodd" d="M27.4172 72.827C27.0609 73.3372 26.2155 76.5703 28.0062 75.0648C28.362 74.5541 29.2074 71.321 27.4172 72.827Z" fill="#AD8DCB"/>
<path fill-rule="evenodd" clip-rule="evenodd" d="M25.3314 78.5359C24.9448 79.0951 24.5319 82.035 26.0829 80.5486C26.469 79.9894 26.8818 77.0501 25.3314 78.5359Z" fill="#AD8DCB"/>
<path fill-rule="evenodd" clip-rule="evenodd" d="M34.0167 46.2471C33.1693 45.9211 31.8526 48.1125 32.5218 49.237C33.3697 49.563 34.6864 47.3721 34.0167 46.2471Z" fill="#AD8DCB"/>
<path fill-rule="evenodd" clip-rule="evenodd" d="M29.9983 51.9703C29.4745 52.4321 28.3818 55.0399 30.2315 54.0784C30.7549 53.6161 31.8476 51.0083 29.9983 51.9703Z" fill="#AD8DCB"/>
<path fill-rule="evenodd" clip-rule="evenodd" d="M27.0845 57.0651C26.603 57.486 24.9844 60.2896 27.084 59.368C27.5644 58.9471 29.1835 56.1445 27.0845 57.0651Z" fill="#AD8DCB"/>
<path fill-rule="evenodd" clip-rule="evenodd" d="M24.5108 62.9544C24.2937 63.3172 23.1395 65.2366 24.6824 65.1447C25.7306 64.7314 26.0698 61.8698 24.5108 62.9544Z" fill="#AD8DCB"/>
<path fill-rule="evenodd" clip-rule="evenodd" d="M21.5629 69.0827C21.4393 69.3305 21.3323 69.5409 20.927 70.349C21.3217 73.5417 24.0632 67.7796 21.5629 69.0827Z" fill="#AD8DCB"/>
<path fill-rule="evenodd" clip-rule="evenodd" d="M20.5944 75.552C19.482 75.1331 18.779 79.042 20.6146 77.3876C20.6171 77.0111 21.5765 76.1799 20.5944 75.552Z" fill="#AD8DCB"/>
<path fill-rule="evenodd" clip-rule="evenodd" d="M18.5436 81.9061C18.2479 82.3901 17.296 85.9165 19.1336 84.3559C19.4283 83.8719 20.3807 80.3451 18.5436 81.9061Z" fill="#AD8DCB"/>
<path fill-rule="evenodd" clip-rule="evenodd" d="M17.6471 88.86C16.5337 88.4401 15.8478 92.3555 17.6769 90.6991C17.6763 90.3216 18.6252 89.4863 17.6471 88.86Z" fill="#AD8DCB"/>
<path fill-rule="evenodd" clip-rule="evenodd" d="M15.1852 95.0051C14.8163 95.5663 14.4776 98.5314 15.9816 97.0304C16.3505 96.4687 16.6887 93.5031 15.1852 95.0051Z" fill="#AD8DCB"/>
<path fill-rule="evenodd" clip-rule="evenodd" d="M13.6627 101.926C13.6506 102.637 12.2425 106.172 14.3022 104.639C14.7998 104.022 15.4231 99.832 13.6627 101.926Z" fill="#AD8DCB"/>
<path fill-rule="evenodd" clip-rule="evenodd" d="M12.8234 109.318C12.9425 109.932 12.514 110.871 13.1514 111.34C15.0244 112.047 13.9938 107.028 12.8234 109.318Z" fill="#AD8DCB"/>
<path fill-rule="evenodd" clip-rule="evenodd" d="M12.3793 115.229C12.4293 115.842 11.4855 119.158 13.2979 118.099C13.8682 117.392 13.8566 113.076 12.3793 115.229Z" fill="#AD8DCB"/>
<path fill-rule="evenodd" clip-rule="evenodd" d="M13.4143 122.837C12.096 121.061 11.9103 123.68 12.469 125.287C14.0078 126.265 13.541 124.256 13.4143 122.837Z" fill="#AD8DCB"/>
<path fill-rule="evenodd" clip-rule="evenodd" d="M10.0968 93.9434C9.80105 94.4274 8.84768 97.9532 10.6858 96.3927C10.981 95.9087 11.9344 92.3824 10.0968 93.9434Z" fill="#AD8DCB"/>
<path fill-rule="evenodd" clip-rule="evenodd" d="M6.60046 96.3131C5.83887 95.8266 3.99471 98.8608 5.45177 99.3978C6.23808 99.149 7.26666 97.1509 6.60046 96.3131Z" fill="#AD8DCB"/>
<path fill-rule="evenodd" clip-rule="evenodd" d="M8.4329 102.61C8.23758 102.978 7.38969 105.358 8.98655 104.706C9.79306 104.305 9.92529 101.127 8.4329 102.61Z" fill="#AD8DCB"/>
<path fill-rule="evenodd" clip-rule="evenodd" d="M5.12231 103.916C4.05034 103.569 3.6057 105.471 3.82474 106.702C4.95627 107.828 5.67193 104.976 5.12231 103.916Z" fill="#AD8DCB"/>
<path fill-rule="evenodd" clip-rule="evenodd" d="M7.75525 110.163C7.89808 110.864 7.30405 112.806 8.38864 112.886C9.87548 112.881 8.9322 107.864 7.75525 110.163Z" fill="#AD8DCB"/>
<path fill-rule="evenodd" clip-rule="evenodd" d="M2.47558 112.275C2.2742 113.261 2.62244 115.995 3.74337 114.175C3.94374 113.189 3.596 110.455 2.47558 112.275Z" fill="#AD8DCB"/>
<path fill-rule="evenodd" clip-rule="evenodd" d="M8.17757 117.554C8.12408 118.444 8.0085 120.543 9.35049 119.584C9.9859 118.587 9.13095 115.708 8.17757 117.554Z" fill="#AD8DCB"/>
<path fill-rule="evenodd" clip-rule="evenodd" d="M4.99514 118.823C4.09476 116.736 2.89055 120.629 4.61258 121.564C5.55232 121.4 5.11425 120.101 4.99514 118.823Z" fill="#AD8DCB"/>
<path fill-rule="evenodd" clip-rule="evenodd" d="M9.16086 126.899C8.92769 126.488 9.11745 123.964 7.76032 124.709C6.90133 125.576 8.50879 129.228 9.16086 126.899Z" fill="#AD8DCB"/>
<path fill-rule="evenodd" clip-rule="evenodd" d="M5.83495 128.789C4.28351 127.301 4.5404 130.222 5.22275 131.75C6.9256 132.325 6.06862 130.277 5.83495 128.789Z" fill="#AD8DCB"/>
<path fill-rule="evenodd" clip-rule="evenodd" d="M11.2368 134.985C11.1995 134.276 9.56022 130.595 9.53246 133.818C9.44262 134.872 10.984 137.109 11.2368 134.985Z" fill="#AD8DCB"/>
<path fill-rule="evenodd" clip-rule="evenodd" d="M9.35801 139.619C9.07235 139.162 8.18661 136.889 7.33822 138.373C7.07628 139.339 9.37113 141.76 9.35801 139.619Z" fill="#AD8DCB"/>
<path fill-rule="evenodd" clip-rule="evenodd" d="M46.0639 23.2179C45.9013 23.5242 44.5518 23.6943 44.5245 24.7592C45.0767 25.3749 44.9672 25.4168 46.0664 24.7294C46.9249 24.5301 47.4609 23.0251 46.0639 23.2179Z" fill="#AD8DCB"/>
<path fill-rule="evenodd" clip-rule="evenodd" d="M41.1682 26.3609C40.7675 26.4295 37.9901 27.7003 39.8307 28.4039C40.5247 28.2999 43.2168 26.704 41.1682 26.3609Z" fill="#AD8DCB"/>
<path fill-rule="evenodd" clip-rule="evenodd" d="M42.4265 29.9046C41.6786 29.0188 38.5424 32.3296 41.1461 31.8401C41.4277 31.3485 43.0024 31.0694 42.4265 29.9046Z" fill="#AD8DCB"/>
<path fill-rule="evenodd" clip-rule="evenodd" d="M36.5895 30.0031C36.2447 29.2173 32.8991 30.9545 34.4218 32.0113C35.1319 31.8927 36.6601 31.2442 36.5895 30.0031Z" fill="#AD8DCB"/>
<path fill-rule="evenodd" clip-rule="evenodd" d="M34.7604 34.3242C34.1775 34.9136 32.4262 36.2395 34.019 36.671C35.1299 36.5534 36.8363 33.7544 34.7604 34.3242Z" fill="#AD8DCB"/>
<path fill-rule="evenodd" clip-rule="evenodd" d="M28.6908 37.4948C27.9145 36.5661 25.1816 40.2751 27.6364 39.6594C27.857 39.1022 29.1758 38.595 28.6908 37.4948Z" fill="#AD8DCB"/>
<path fill-rule="evenodd" clip-rule="evenodd" d="M30.8811 41.0118C30.4904 41.7073 28.8244 43.5848 30.5939 43.6035C31.5034 43.3965 32.9246 39.9565 30.8811 41.0118Z" fill="#AD8DCB"/>
<path fill-rule="evenodd" clip-rule="evenodd" d="M23.5289 43.7857C23.3594 44.251 21.0277 46.4369 22.9945 46.562C23.8494 46.399 25.7754 42.7718 23.5289 43.7857Z" fill="#AD8DCB"/>
<path fill-rule="evenodd" clip-rule="evenodd" d="M26.7356 48.262C26.6064 48.5577 24.8601 49.502 25.8443 50.3141C26.8895 51.0201 28.8472 47.6568 26.7356 48.262Z" fill="#AD8DCB"/>
<path fill-rule="evenodd" clip-rule="evenodd" d="M20.7295 50.4789C19.9159 50.1478 18.7601 52.0253 19.4556 53.0508C20.2697 53.3819 21.4254 51.5044 20.7295 50.4789Z" fill="#AD8DCB"/>
<path fill-rule="evenodd" clip-rule="evenodd" d="M23.6783 54.6988C22.8799 54.3728 21.6691 56.2331 22.3767 57.2576C23.1756 57.5842 24.3864 55.7233 23.6783 54.6988Z" fill="#AD8DCB"/>
<path fill-rule="evenodd" clip-rule="evenodd" d="M17.6273 57.1779C16.949 57.1184 15.6348 59.23 16.3832 60.0663C17.3013 60.4847 18.7523 57.9905 17.6273 57.1779Z" fill="#AD8DCB"/>
<path fill-rule="evenodd" clip-rule="evenodd" d="M20.0833 62.7143C19.1753 61.976 17.1268 65.9762 19.4509 64.8386C19.4837 64.4525 20.8999 63.6793 20.0833 62.7143Z" fill="#AD8DCB"/>
<path fill-rule="evenodd" clip-rule="evenodd" d="M14.8643 63.9263C13.7923 63.514 12.5851 68.1122 14.6564 66.3892C14.6321 65.8224 15.9787 64.6616 14.8643 63.9263Z" fill="#AD8DCB"/>
<path fill-rule="evenodd" clip-rule="evenodd" d="M17.2064 69.8466C16.5352 69.5691 14.4351 73.3346 16.5029 73.1171C16.8249 72.4418 18.3066 70.8384 17.2064 69.8466Z" fill="#AD8DCB"/>
<path fill-rule="evenodd" clip-rule="evenodd" d="M12.5897 71.7594C11.4698 71.4284 10.3812 75.7637 12.4176 74.0245C12.5655 73.2008 13.636 72.4589 12.5897 71.7594Z" fill="#AD8DCB"/>
<path fill-rule="evenodd" clip-rule="evenodd" d="M14.3054 78.2747C13.7412 79.2608 13.6261 82.3683 15.3698 79.4284C16.0512 78.4735 15.011 76.8161 14.3054 78.2747Z" fill="#AD8DCB"/>
<path fill-rule="evenodd" clip-rule="evenodd" d="M9.32596 80.4936C8.79249 80.9559 7.93501 84.1032 9.7383 83.0478C10.0462 82.3216 11.2448 79.5452 9.32596 80.4936Z" fill="#AD8DCB"/>
<path fill-rule="evenodd" clip-rule="evenodd" d="M12.0703 85.9826C11.554 86.4484 10.4916 89.0754 12.3221 88.1013C12.8379 87.636 13.8998 85.0085 12.0703 85.9826Z" fill="#AD8DCB"/>
<path fill-rule="evenodd" clip-rule="evenodd" d="M6.46588 88.6534C5.37674 88.2593 4.26641 92.6214 6.29327 90.919C6.30841 90.3583 7.54593 89.3777 6.46588 88.6534Z" fill="#AD8DCB"/>
</svg>
