<svg width="207" height="210" viewBox="0 0 207 210" fill="none" xmlns="http://www.w3.org/2000/svg">
<path fill-rule="evenodd" clip-rule="evenodd" d="M201.323 110C196.924 114.427 195.753 112.889 192.445 112.687C195.108 118.309 193.249 118.996 192 122.134C198.151 121.153 198.059 123.145 200.603 125.285C201.734 119.008 203.506 119.668 206.365 117.786C200.878 114.836 202.14 113.34 201.323 110Z" fill="#FBB413"/>
<path fill-rule="evenodd" clip-rule="evenodd" d="M170.253 55.6518C170.148 49.3367 172.09 49.5734 174.572 47.3176C168.503 45.2262 169.451 43.392 168.037 40.326C164.341 45.4918 163.184 43.9917 159.679 44.3392C163.431 49.5901 161.702 50.4092 161.048 53.8113C167.19 51.8908 167.265 53.945 170.253 55.6518Z" stroke="#141414" stroke-width="1.417" stroke-linecap="round" stroke-linejoin="round"/>
<path fill-rule="evenodd" clip-rule="evenodd" d="M111.06 22.2156C111.06 22.2156 123.06 50.9787 126.763 58.1963C132.041 68.4824 135.521 97.6929 96.0681 107.477C86.5115 109.848 56.7097 115.162 46.1669 114.702C35.6235 114.241 20.2925 113.365 14.8157 99.3312C9.33953 85.2968 12.2712 71.1133 11.422 57.5294C10.9222 49.5331 10.4921 42.306 10.4921 42.306C10.4921 42.306 -6.51941 35.3284 3.5485 25.3495C13.6516 15.3347 21.0131 28.022 21.0131 28.022C46.4952 10.3218 80.4709 8.3821 99.1387 9.74266C105.266 -10.7087 132.924 9.1315 111.06 22.2156Z" fill="white"/>
<path fill-rule="evenodd" clip-rule="evenodd" d="M40.5789 122.682C41.2048 120.033 41.2176 120.065 43.9733 119.169C42.9992 120.158 42.0105 121.122 40.5789 122.682ZM63.8934 185.381C61.8302 189.296 53.1132 189.673 48.2732 185.55C37.2888 175.911 39.4231 165.389 38.6948 152.284C38.4427 150.919 39.4276 150.993 40.5686 150.151C47.1961 145.892 51.944 138.224 53.3756 130.923C55.1355 149.082 55.7953 168.161 63.8934 185.381ZM103.82 186.09C95.1832 188.481 86.6653 179.481 87.1894 179.507C87.1894 179.507 86.902 184.008 84.7223 187.092C84.6423 184.967 83.1736 181.106 84.5406 178.906C88.669 176.836 93.3119 175.742 98.1161 175.93C102.369 176.884 101.783 182.529 103.82 186.09ZM135 128.158C143.433 137.146 153.611 162.468 147.404 164.969C140.068 169.013 134.903 165.339 134.273 164.541C136.374 175.093 133.507 182.044 121.424 180.721C122.975 157.38 117.208 141.167 111.133 123.395C118.719 126.02 126.603 128.491 135 128.158Z" fill="#F7A400"/>
<path fill-rule="evenodd" clip-rule="evenodd" d="M20.9969 151.358C20.6449 151.683 18.2156 151.797 18.5759 152.975C19.1199 152.972 20.3665 152.495 21.5242 152.402C23.3603 156.208 28.7334 155.164 32.5399 153.961C43.2311 150.533 50.9581 142.373 53.1954 131.249C55.4506 152.154 56.968 180.427 71.9982 199.5C77.3649 207.669 79.887 205.184 81.0101 209.237C81.1887 208.822 81.062 208.309 80.8092 207.126C81.6712 207.176 82.5838 207.072 83.8836 206.548C83.8932 207.403 84.9088 209.045 84.354 206.319C84.7667 206.1 85.3817 205.705 86.0838 205.061C86.1823 205.239 86.7551 206.88 87.1756 206.495C87.1948 205.853 86.9349 205.682 86.526 204.578C89.8333 198.843 79.3302 178.627 86.5298 177.939C91.0761 176.808 99.0258 173.526 100.866 178.189C104.032 185.152 107.81 201.436 111.778 200.198C112.251 200.333 113.289 200.019 114.169 200.07C114.095 200.694 115.527 202.802 114.655 199.864C115.403 199.647 116.132 199.393 117.354 198.78C117.326 198.8 118.485 201.562 118.611 200.264C118.897 199.386 116.908 198.915 118.468 198.027C122.155 193.053 120.766 185.409 121.461 179.344C122.848 157.042 117.183 141.174 111.133 123.395C146.704 135.75 140.861 120.163 145.847 124.329C147.369 124.843 146.008 122.82 144.678 122.42C144.976 121.867 145.343 121.009 145.572 119.727C148.234 121.213 149.555 119.834 145.67 118.647C145.485 118.368 145.616 117.966 145.264 117.027C147.456 117.754 147.428 115.739 144.557 115.793C143.263 114.409 141.437 113.754 139.172 113.607C135.93 113.109 133.855 115.165 130.467 114.013C116.675 107.356 114.553 105.013 103.628 105.59C123.127 99.5123 133.064 83.7397 129.27 65.2217C124.453 50.5185 117.013 37.4166 111.299 23.0078C132.784 9.64149 106.015 -11.8101 99.1614 8.78073C87.5135 9.006 74.1958 8.6233 62.1248 11.0302C47.2066 13.5689 33.5747 19.175 20.8618 27.3448C19.6427 25.5292 17.4918 22.995 15.0606 21.8667C11.7564 20.1779 8.44718 20.7461 5.3088 23.0577C-1.55161 27.6571 -1.07804 35.2445 4.96642 39.5784C8.45294 42.2195 10.7267 40.9434 10.6666 47.0768C13.6661 83.0735 2.02515 115.851 47.9208 115.355C29.0028 130.915 40.6809 140.689 25.1016 142.784C23.6815 143.311 22.7664 143.402 21.592 144.843C20.2904 144.685 16.4691 146.489 20.9617 146.139C20.2596 146.89 21.6119 148.332 19.7336 148.736C17.1168 149.438 17.6441 151.043 20.682 149.561C20.7383 149.948 20.7767 150.28 21.0788 151.333L20.9969 151.358Z" fill="white"/>
<path fill-rule="evenodd" clip-rule="evenodd" d="M68.1323 113.952C68.1547 113.7 86.7636 109.57 89.6825 109.078C92.7242 113.596 96.086 121.468 98.3066 127.587C107.032 148.668 93.6695 158.465 76.2068 155.562C65.2109 147.644 67.1423 122.081 68.1323 113.952ZM86.5921 204.63C87.3121 205.256 87.442 208.302 86.0558 205.204C85.2962 206.064 84.1513 205.798 84.6082 207.848C84.3868 208.437 83.9919 207.726 83.8275 206.663C83.0525 206.91 82.3722 207.264 80.9118 207.216C80.8344 207.431 81.6081 209.036 80.8683 209.191C80.1221 208.663 81.1403 207.216 79.5007 206.929C73.4543 203.769 70.4228 197.2 66.7353 191.414C52.905 165.725 55.2089 139.699 53.2692 130.883C51.4939 148.937 25.4352 160.783 21.4515 152.44C19.3031 153.352 16.2396 152.907 20.9747 151.278C20.8083 150.762 20.6861 150.218 20.6131 149.667C20.1779 149.451 18.4155 151.134 17.9617 149.982C18.082 147.967 21.038 149.809 20.8467 146.235C13.8717 146.564 28.1346 141.647 30.0506 141.418C32.8639 140.172 34.5304 138.196 35.6356 132.832C38.5993 122.552 39.8562 123.492 47.7156 115.435C-0.537697 116.369 14.4598 76.5682 10.4562 45.2534C10.1638 40.3046 7.50282 42.4414 3.59968 38.5633C-0.0647628 34.8758 -0.723286 31.203 1.18573 27.4048C6.68238 18.4837 15.7622 18.9733 20.7942 27.2077C22.2015 26.8871 24.8458 24.4444 27.3513 23.3359C49.3852 10.8893 73.2252 7.62419 98.6759 9.07115C108.853 -13.3493 131.412 12.0425 111.413 23.0608C117.076 37.5156 125.071 51.2857 129.53 66.0977C133.202 86.9701 120.453 100.397 102.939 105.924C115.927 103.737 120.466 109.786 129.72 113.701C132.087 114.98 134.862 113.681 137.885 113.504C141.062 112.746 150.61 117.951 145.391 117.13C145.297 118.328 146.425 118.811 147.814 119.467C149.222 121.132 147.467 120.634 145.644 119.832C145.528 120.669 145.246 121.533 144.792 122.385C145.253 122.704 146.98 123.368 146.413 124.508C144.982 124.587 144.442 122.388 143.216 124.561C136.337 131.511 125.225 127.903 111.276 123.534C122.069 150.332 123.823 179.264 119.836 196.154C119.476 198.08 117.095 197.83 118.696 200.252C118.532 201.192 117.953 200.587 117.316 198.896C116.81 199.167 115.814 199.609 114.761 199.921C115.115 200.246 115.044 202.848 114.259 200.676C114.101 199.553 113.178 200.466 111.862 200.287C107.906 202.3 102.344 180.717 100.534 177.631C99.8579 175.885 98.0366 175.969 96.0642 175.912C92.4612 176.559 85.883 176.955 84.0943 179.935C83.7072 189.762 89.1168 199.1 86.5921 204.63ZM85.0056 202.69C85.931 203.48 84.4924 206.326 83.3168 204.056C83.0064 204.012 82.824 204.277 83.3545 205.32C82.9085 205.416 83.5657 205.399 81.6157 205.763C80.771 205.473 80.7825 205.788 80.7441 204.838C81.6177 205.753 81.3406 205.76 80.7825 205.788C80.3973 203.986 80.1861 204.388 80.1777 205.726C66.6201 199.414 59.2477 172.594 56.7301 161.802C55.1545 152.343 54.8192 140.071 53.472 129.171C53.3383 128.626 52.6849 128.868 52.8065 129.919C50.2889 149.639 25.8403 157.27 22.2418 152.323C24.474 152.383 24.7908 150.03 21.7708 151.031C21.3977 149.585 21.4431 149.591 23.4526 148.786C23.3989 147.489 22.9842 147.827 21.5084 148.095C21.7311 146.816 21.2883 145.968 23.6491 145.902C23.9377 145.84 23.9326 144.45 23.1096 144.589C32.6886 140.894 33.4713 143.978 36.1207 134.437C43.8963 111.046 54.5421 116.179 67.5186 113.562C65.8016 130.074 65.1533 165.782 89.7657 156.208C112.275 149.539 97.1925 122.353 90.5855 108.932C120.266 103.598 110.566 108.261 133.28 115.519C135.729 114.816 140.225 113.623 142.7 115.777C142.36 115.541 138.379 117.191 141.317 117.119C142.864 117.206 144.079 116.189 144.896 118.426C144.56 118.435 141.45 118.032 142.67 119.549C142.96 119.786 145.386 118.991 145.121 120.305C144.816 120.988 144.856 122.927 143.425 121.632C140.352 119.633 140.841 121.887 143.64 123.119C135.089 132.377 112.612 123.775 108.766 119.343C108.574 119.35 108.245 118.053 108.272 119.304C112.677 130.509 117.287 140.893 119.638 152.741C122.014 168.053 122.406 194.882 117.266 197.358C117.224 196.944 115.699 194.759 116.541 197.15C117.109 198.095 115.666 197.991 114.536 198.497C113.918 195.61 115.023 199.366 111.782 198.863C111.919 197.198 110.846 194.781 111.099 198.789C104.429 196.321 103.323 175.021 98.0999 174.733C93.4493 174.787 83.1139 175.496 83.6489 179.753C83.7379 190.406 88.6054 198.644 86.0411 203.624C85.9912 203.543 85.1887 201.873 85.0056 202.69ZM110.91 21.4788C132.426 8.87212 105.125 -9.38733 99.3479 10.4836C86.5396 9.75015 73.1253 10.3965 60.1968 12.8245C46.6603 15.4106 34.4587 20.4881 22.7103 27.721C22.1797 28.0634 21.8348 28.3123 21.1635 28.7584C20.9132 28.5062 21.1097 28.72 20.688 28.0698C16.3497 21.3789 9.36703 20.3953 3.99325 25.787C1.56331 28.1382 -0.518498 31.1601 1.40396 34.6723C3.17154 38.281 7.96614 39.5942 10.6732 42.3134C13.5639 68.1661 8.54916 83.9156 15.3033 99.8801C27.0671 123.325 66.4185 110.988 86.8711 108.665C109.23 105.382 133.091 93.1714 129.178 67.1255C123.902 48.5524 108.954 24.6037 110.91 21.4788Z" fill="black"/>
<path fill-rule="evenodd" clip-rule="evenodd" d="M68.1142 113.955C66.1137 126.883 66.8317 159.924 82.7438 156.135C91.3724 155.512 101.032 151.085 101.033 141.217C100.802 129.801 94.9588 118.947 89.8013 109.058C87.4546 109.423 68.1507 113.689 68.1142 113.955Z" fill="#ECECEC"/>
<path fill-rule="evenodd" clip-rule="evenodd" d="M8.36758 29.8654C10.0065 27.3491 16.3127 29.9218 17.2119 32.1309C16.6263 33.6111 14.2917 36.6331 12.3808 38.2611C9.71599 38.2202 6.70816 32.3235 8.36758 29.8654Z" fill="black"/>
<path fill-rule="evenodd" clip-rule="evenodd" d="M110.695 9.03666C108.685 6.8051 102.855 10.3255 102.309 12.6473C103.193 13.8479 106.195 17.5482 108.544 17.8522C110.554 16.0455 112.815 12.0234 110.695 9.03666Z" fill="black"/>
<path fill-rule="evenodd" clip-rule="evenodd" d="M94.4552 71.7728C96.921 80.8507 111.545 77.0122 110.041 68.5915C107.575 59.5143 92.95 63.3528 94.4552 71.7728Z" fill="#FCE8E9"/>
<path fill-rule="evenodd" clip-rule="evenodd" d="M30.2507 84.0312C32.7165 93.109 47.3409 89.2705 45.8364 80.8499C43.3712 71.7726 28.7461 75.6111 30.2507 84.0312Z" fill="#FCE8E9"/>
<path fill-rule="evenodd" clip-rule="evenodd" d="M104.327 65.8409C102.895 66.1142 102.824 68.724 104.887 68.5806C106.319 68.3074 106.391 65.6976 104.327 65.8409Z" fill="white"/>
<path fill-rule="evenodd" clip-rule="evenodd" d="M99.6937 65.585C98.2608 65.8583 98.1898 68.4681 100.253 68.3247C101.685 68.0514 101.756 65.4417 99.6937 65.585Z" fill="white"/>
<path fill-rule="evenodd" clip-rule="evenodd" d="M106.429 69.8814C104.996 70.1546 104.925 72.7644 106.988 72.621C108.421 72.3478 108.492 69.738 106.429 69.8814Z" fill="white"/>
<path fill-rule="evenodd" clip-rule="evenodd" d="M96.3308 69.3511C94.8979 69.6237 94.8268 72.2335 96.8901 72.0908C98.3223 71.8181 98.394 69.2077 96.3308 69.3511Z" fill="white"/>
<path fill-rule="evenodd" clip-rule="evenodd" d="M41.925 80.831C40.4922 81.1043 40.4211 83.7141 42.4844 83.5707C43.9166 83.2974 43.9883 80.6877 41.925 80.831Z" fill="white"/>
<path fill-rule="evenodd" clip-rule="evenodd" d="M39.6196 83.7052C38.1867 83.9778 38.1157 86.5883 40.1789 86.4449C41.6118 86.1716 41.6828 83.5619 39.6196 83.7052Z" fill="white"/>
<path fill-rule="evenodd" clip-rule="evenodd" d="M32.8918 83.3131C31.459 83.5863 31.3886 86.1961 33.4512 86.0527C34.884 85.7801 34.9551 83.1697 32.8918 83.3131Z" fill="white"/>
<path fill-rule="evenodd" clip-rule="evenodd" d="M34.728 80.347C33.2951 80.6196 33.224 83.2301 35.2873 83.0867C36.7202 82.8134 36.7906 80.2037 34.728 80.347Z" fill="white"/>
<path fill-rule="evenodd" clip-rule="evenodd" d="M38.8002 77.2997C37.3674 77.573 37.297 80.1827 39.3602 80.04C40.7924 79.7668 40.8635 77.1563 38.8002 77.2997Z" fill="white"/>
<path fill-rule="evenodd" clip-rule="evenodd" d="M101.162 70.2051C99.7295 70.4783 99.6578 73.0881 101.722 72.9447C103.154 72.6715 103.225 70.0617 101.162 70.2051Z" fill="white"/>
<path fill-rule="evenodd" clip-rule="evenodd" d="M78.4717 65.6131C79.4355 65.002 83.5454 88.0912 80.5606 91.1394C76.6773 94.4883 63.9516 97.8244 60.355 91.7013C56.3373 83.9916 55.9079 73.1314 55.9264 67.0038C55.9444 63.7297 64.3215 60.1561 73.2957 61.6825C78.1665 62.7186 78.4244 65.5856 78.4717 65.6131Z" fill="#ECECEC"/>
<path fill-rule="evenodd" clip-rule="evenodd" d="M63.8782 83.02C69.9201 89.586 76.689 81.2409 73.8565 79.2742C69.5144 91.8527 68.0879 78.1863 68.3861 72.9258C70.53 72.1534 73.173 69.0105 72.2227 66.2209C71.3658 63.7014 68.1717 64.3772 66.3203 65.5227C63.5704 63.9113 58.2516 66.7201 60.7827 70.5746C61.8911 72.497 63.484 72.9885 65.6726 73.4928C66.7567 76.6709 67.9861 80.8089 68.8814 84.3024C67.5535 85.0749 61.6287 79.1661 63.8782 83.02Z" fill="black"/>
<path fill-rule="evenodd" clip-rule="evenodd" d="M60.8209 18.2893C59.6485 17.2852 60.1624 19.614 60.698 21.8571C61.018 23.137 60.8708 24.4022 61.8365 23.2656C61.8461 23.3021 60.842 18.3987 60.8209 18.2893ZM58.2943 29.0957C56.8621 27.5182 58.1414 32.5573 58.2566 33.0839C59.0891 34.0157 59.1679 32.4254 58.5874 30.533C58.4159 29.6928 58.3378 29.3094 58.2943 29.0957ZM55.7249 39.0945C54.3297 37.8696 55.506 41.4956 56.0199 43.0635C55.9572 43.8629 57.2787 43.6504 56.7366 42.5445C56.4051 41.4124 55.7805 39.2852 55.7249 39.0945ZM69.2044 38.7003C68.0326 37.2635 68.5894 41.0342 68.8326 42.6655C68.6374 43.445 69.9762 43.4501 69.6255 42.2713C69.4873 41.0995 69.2281 38.8974 69.2044 38.7003ZM52.5532 25.3954C51.1587 24.1699 52.3343 27.7959 52.8489 29.3638C52.7855 30.1638 54.1077 29.9513 53.5656 28.8455C53.2335 27.7134 52.6089 25.5855 52.5532 25.3954ZM72.193 30.0633C71.0206 28.6272 71.578 32.3973 71.8206 34.0292C71.626 34.808 72.9642 34.8138 72.6141 33.635C72.4759 32.4625 72.2161 30.2611 72.193 30.0633ZM46.0608 22.289C44.6656 21.0635 45.8419 24.6895 46.3551 26.2574C46.2931 27.0574 47.6139 26.8449 47.0725 25.7391C46.7404 24.607 46.1158 22.4791 46.0608 22.289ZM70.8696 18.4678C69.8047 16.5402 69.6524 24.6159 70.6111 24.6927C71.3502 25.1516 70.773 18.4889 70.8696 18.4678ZM50.0253 33.8839C48.5445 32.0773 50.152 39.929 51.121 37.5074C51.1312 37.5355 50.0708 34.0375 50.0253 33.8839ZM66.5882 27.4907C65.3275 25.8184 66.0999 30.8057 66.1742 31.3458C66.8973 32.3313 67.1476 30.8095 66.7425 28.9063C66.6522 28.0788 66.6113 27.7018 66.5882 27.4907ZM55.3607 18.2893C53.6699 16.6695 55.7217 24.5513 56.3488 21.8654C56.2067 21.3528 55.4055 18.4518 55.3607 18.2893ZM62.5661 37.8754C61.3937 36.8713 61.9069 39.2007 62.4426 41.4438C62.7619 42.7237 62.616 43.9889 63.581 42.8517C63.59 42.8882 62.5865 37.9854 62.5661 37.8754Z" fill="black"/>
<path fill-rule="evenodd" clip-rule="evenodd" d="M120.848 40.642C120.234 38.0841 118.439 37.2477 115.753 37.6451C111.164 38.5769 110.156 38.9295 106.942 38.5967C80.4325 35.0187 78.5036 50.7036 64.0737 53.177C60.9852 53.4663 58.4286 52.6734 55.3574 51.7704C38.8514 44.9349 21.8316 59.9101 9.47198 59.5683C3.67774 64.2542 20.8531 77.8368 36.5303 75.0804C53.2769 71.7993 52.6049 63.346 62.1909 60.4342C76.0871 56.0249 87.4669 69.1512 106.928 59.5831C116.942 54.1075 121.528 43.799 120.848 40.642Z" fill="#FBB413"/>
<path fill-rule="evenodd" clip-rule="evenodd" d="M93.8484 44.6747C79.7762 48.03 82.466 59.3689 95.6006 57.5168C111.056 54.5147 107.846 42.0406 93.8484 44.6747Z" fill="white"/>
<path fill-rule="evenodd" clip-rule="evenodd" d="M36.8822 56.3012C22.8094 59.6565 25.4992 70.9954 38.6344 69.1434C54.0889 66.1413 50.8788 53.6671 36.8822 56.3012Z" fill="white"/>
<path fill-rule="evenodd" clip-rule="evenodd" d="M71.9115 125.116C72.5809 123.725 73.0462 126.064 73.4583 128.334C73.6797 129.634 74.3229 130.734 72.9815 130.081C72.9879 130.117 71.9358 125.225 71.9115 125.116ZM89.7665 141.218C90.4359 139.827 90.9025 142.167 91.3133 144.436C91.5347 145.736 92.1779 146.836 90.8365 146.183C90.8429 146.22 89.7908 141.327 89.7665 141.218ZM82.9375 126.816C83.6152 124.796 84.4689 129.925 84.5745 130.453C84.1873 131.64 83.4757 130.216 83.2472 128.25C83.0661 127.412 82.9835 127.029 82.9375 126.816ZM74.664 142.744C75.448 141.061 75.8287 144.854 75.9887 146.497C76.3676 147.204 75.0723 147.54 75.1241 146.31C74.9731 145.14 74.6896 142.941 74.664 142.744ZM95.1301 137.933C95.5774 135.851 97.9517 142.771 97.0749 143.192C96.506 143.777 95.2581 138.067 95.1301 137.933ZM71.66 134.61C72.4453 132.928 72.826 136.721 72.9854 138.363C73.3642 139.07 72.069 139.406 72.1202 138.176C71.9698 137.006 71.6856 134.808 71.66 134.61ZM83.5512 134.859C84.0472 133.072 85.0525 136.748 85.4858 138.34C85.9773 138.975 84.7543 139.518 84.6014 138.297C84.2571 137.168 83.6094 135.049 83.5512 134.859ZM84.753 144.345C85.4186 142.615 86.0573 146.373 86.328 147.998C86.7542 148.676 85.489 149.101 85.4564 147.872C85.226 146.715 84.7921 144.54 84.753 144.345ZM93.0419 121.684C93.2422 119.491 96.6282 126.824 95.7809 127.28C95.2881 127.996 93.1391 121.664 93.0419 121.684ZM87.549 114.623C88.0911 112.353 90.642 120.081 88.6613 118.163C88.5019 117.656 87.5996 114.785 87.549 114.623ZM93.4105 129.246C93.9525 126.975 96.5034 134.703 94.5234 132.785C94.3634 132.278 93.461 129.407 93.4105 129.246ZM75.8415 132.588C76.3836 130.317 78.9345 138.045 76.9538 136.127C76.7945 135.62 75.8921 132.749 75.8415 132.588ZM88.4815 131.358C88.9634 129.321 90.2599 134.198 90.409 134.722C90.1435 135.915 89.3038 134.622 88.909 132.716C88.6587 131.923 88.5442 131.56 88.4815 131.358ZM69.6556 119.566C70.5522 117.404 71.8405 125.446 70.1881 123.238C70.1113 122.712 69.68 119.733 69.6556 119.566ZM78.9422 139.9C79.6116 138.509 80.0775 140.848 80.489 143.117C80.7104 144.418 81.3536 145.517 80.0122 144.865C80.0186 144.901 78.9665 140.009 78.9422 139.9Z" fill="black"/>
<path fill-rule="evenodd" clip-rule="evenodd" d="M121.791 109.466C121.791 109.466 85.8758 111.001 83.4689 111.972C82.9691 112.174 84.6835 113.315 84.3028 114.481C83.9213 115.647 89.6215 113.953 94.3073 121.467C99.4725 129.75 98.4844 131.399 98.4844 131.399C98.4844 131.403 98.4287 130.577 95.6877 129.96C80.9673 129.525 84.0199 121.55 80.6895 116.948C83.2116 121.537 80.3171 131.999 80.168 133.533C74.048 129.663 72.5927 123.82 75.4553 118.13C65.9025 115.622 75.8124 111.802 65.0565 116.833C56.4854 121.321 41.838 121.906 40.2713 125.204C39.9289 125.864 38.0058 126.81 37.7063 126.246C36.134 121.571 43.6951 114.106 45.5216 115.402C109.041 111.024 108.161 95.0886 121.791 109.466Z" fill="#FBB413"/>
<path fill-rule="evenodd" clip-rule="evenodd" d="M29.2351 183.654C22.6813 174.005 15.9789 161.566 10.1105 151.178C13.6904 151.005 20.1931 153.535 22.577 152.383C19.3279 144.669 16.3162 136.628 13.6424 128.487C18.8991 128.707 24.4009 128.99 29.9269 129.155C31.0712 140.958 33.5242 152.826 35.9893 164.749C33.928 164.934 29.431 163.088 27.6775 164.283C28.2861 171.026 28.0167 177.648 29.2351 183.654Z" fill="#FBB413"/>
<path fill-rule="evenodd" clip-rule="evenodd" d="M29.2351 183.654C22.6813 174.005 15.9789 161.566 10.1105 151.178C13.6898 151.005 20.1931 153.535 22.577 152.383C19.3285 144.669 16.3155 136.628 13.6424 128.487C18.8991 128.707 24.4009 128.99 29.9269 129.155C31.0712 140.958 33.5242 152.826 35.9893 164.748C33.928 164.934 29.431 163.088 27.6775 164.283C28.2861 171.026 28.0167 177.649 29.2351 183.654ZM36.3823 165.034C33.8512 153.533 31.5908 140.979 30.2156 128.724C25.7409 128.643 17.8393 127.29 13.2591 128.325C15.8477 136.267 18.8268 144.319 22.1283 152.204C18.3558 151.887 13.4376 150.485 9.54791 150.745C12.6076 157.427 16.7488 163.297 20.2206 169.568C23.5011 174.858 26.9063 181.861 29.893 185.024C28.9414 178.356 28.7078 171.776 28.2266 164.504C30.3109 164.379 34.6524 166.076 36.3823 165.034Z" fill="black"/>
<path fill-rule="evenodd" clip-rule="evenodd" d="M32.5956 65.491C36.1467 65.395 36.2997 59.8663 32.5956 59.634C29.0444 59.7306 28.8915 65.2586 32.5956 65.491Z" fill="#141414"/>
<path fill-rule="evenodd" clip-rule="evenodd" d="M89.1449 54.261C92.6961 54.165 92.849 48.6363 89.1449 48.404C85.5938 48.5007 85.4408 54.0287 89.1449 54.261Z" fill="#141414"/>
<path fill-rule="evenodd" clip-rule="evenodd" d="M137.917 153.344C137.166 150.071 132.065 152.694 135.446 149.155C135.94 148.876 135.521 148.088 135.266 146.91C134.946 146.45 135.669 145.921 136.175 146.141C138.658 148.264 141.157 143.175 140.517 148.025C140.426 148.451 140.549 148.511 141.398 149.247C144.323 151.685 139.271 150.077 139.161 152.836C138.945 153.472 138.787 153.84 137.917 153.344Z" fill="#141414"/>
<path fill-rule="evenodd" clip-rule="evenodd" d="M129.295 162.962C126.702 160.827 124.262 166.018 124.779 161.151C125 160.628 124.188 160.26 123.267 159.482C122.733 159.313 122.984 158.453 123.518 158.318C126.781 158.485 125.655 152.929 128.107 157.162C128.296 157.555 128.429 157.527 129.551 157.591C133.356 157.738 128.373 159.548 129.97 161.8C130.187 162.435 130.286 162.823 129.295 162.962Z" fill="#141414"/>
<path fill-rule="evenodd" clip-rule="evenodd" d="M49.3815 163.722C48.6308 160.448 43.529 163.072 46.9093 159.531C47.4034 159.252 46.9855 158.465 46.7301 157.286C46.4095 156.827 47.1327 156.298 47.6389 156.518C50.122 158.642 52.6204 153.552 51.981 158.402C51.8902 158.829 52.0124 158.889 52.8616 159.623C55.7869 162.062 50.7344 160.454 50.6256 163.213C50.4093 163.849 50.2512 164.216 49.3815 163.722Z" fill="#141414"/>
<path fill-rule="evenodd" clip-rule="evenodd" d="M131.841 140.982C126.516 140.078 127.793 148.115 124.87 140.814C123.994 140.085 121.311 140.613 121.549 138.988C121.814 138.148 123.552 137.543 123.97 136.755C124.215 135.284 123.145 132.04 125.449 133.377C128.003 136.512 131.387 131.457 131.222 135.006C130.835 136.975 130.238 136.841 131.091 138.046C132.243 139.46 133.386 140.181 131.841 140.982Z" fill="#141414"/>
<path fill-rule="evenodd" clip-rule="evenodd" d="M54.5862 179.462C49.2624 178.559 50.5384 186.595 47.6157 179.295C46.7396 178.564 44.0563 179.094 44.2943 177.469C44.5599 176.629 46.298 176.023 46.7159 175.235C46.9604 173.765 45.891 170.521 48.1943 171.858C50.7484 174.993 54.1331 169.938 53.968 173.486C53.5815 175.456 52.9838 175.322 53.8362 176.527C54.9888 177.941 56.1311 178.662 54.5862 179.462Z" fill="#141414"/>
</svg>
