<svg width="141" height="164" viewBox="0 0 141 164" fill="none" xmlns="http://www.w3.org/2000/svg">
<path fill-rule="evenodd" clip-rule="evenodd" d="M140.116 69.6673C138.861 70.5828 137.429 72.853 135.92 73.5606C137.257 62.5168 136.39 66.4756 132.088 71.407C132.69 70.1337 128.485 62.8993 128.699 66.4302C130.693 77.1863 121.905 87.6234 111.077 87.8521C109.416 87.63 109.438 90.2756 109.062 91.6267C109.282 92.9455 108.306 94.2925 110.293 94.3455C125.087 96.9558 138.795 84.2904 140.116 69.6673Z" fill="#688AB0"/>
<path fill-rule="evenodd" clip-rule="evenodd" d="M31.8976 93.6143C31.9566 91.9529 32.158 87.8053 29.9702 87.8522C23.29 87.5913 17.4254 83.9408 14.2504 78.0131C12.0353 74.1492 11.9843 69.7846 12.3467 65.5209C10.4656 65.8484 8.98735 69.4954 8.95909 71.4067C2.75283 62.8006 4.73276 67.0335 5.12743 73.5607C3.76677 72.9798 2.43437 70.8379 0.931885 69.667C1.04897 74.6685 3.92877 80.2151 6.69653 84.1043C11.5306 91.3629 24.7844 97.4399 31.8976 93.6143Z" fill="#688AB0"/>
<path fill-rule="evenodd" clip-rule="evenodd" d="M114.747 86.1079C117.988 87.1617 119.979 89.9805 121.582 92.3217C122.25 86.5748 118.852 79.0891 114.524 72.8132C117.041 74.4479 118.965 77.1263 120.589 79.674C120.847 65.3094 110.418 52.7227 106.57 39.0131C103.436 30.2027 100.722 21.8055 98.7094 12.6685C97.7474 8.67733 97.5768 3.31947 95.3395 0.157035C94.6052 0.154009 94.3165 2.60431 94.3054 3.49157C93.9233 16.1958 93.2405 32.0413 93.7119 44.7086C80.7326 41.5876 68.8914 41.8687 54.3364 45.6544C54.6347 31.5325 54.5852 15.5018 53.3962 0.475501C51.4566 -0.905349 48.1877 12.9092 47.7002 13.7097C40.2645 46.6502 23.6296 70.4376 25.98 79.6735C27.5037 77.2409 29.4044 74.5736 32.047 72.8127C27.588 78.5526 23.1643 91.0166 25.3098 92.1552C26.3621 89.6055 28.8164 87.3005 31.8234 86.1079C27.4134 90.8536 22.859 101.505 25.0938 106.533C26.14 104.133 28.2067 101.599 30.4587 100.008C27.541 104.499 24.307 113.758 26.5004 118.042C27.4336 116.319 28.936 114.093 30.328 112.422C28.4869 116.893 27.2453 126.817 29.743 128.914C30.2927 126.981 31.7346 124.419 33.4354 122.466C31.5998 127.416 31.4792 134.223 34.3984 138.595C35.4749 136.711 36.4025 133.594 37.8409 131.53C39.1016 146.519 39.6412 137.364 42.6714 134.363C42.5507 135.491 44.1299 144.464 45.476 141.396C47.2434 139.256 47.0683 139.125 47.5962 139.511C45.9191 140.704 46.3657 140.058 47.0683 139.125C50.0525 141.271 52.6376 142.59 55.631 143.601C69.2522 147.436 85.4888 146.104 97.0933 138.942C101.183 135.159 101.667 150.562 104.052 134.363C105.165 135.723 106.422 137.922 107.084 139.797C108.723 139.317 108.621 133.597 108.883 131.757C110.153 133.54 111.006 136.55 112.171 138.595C115.056 134.324 114.991 127.498 113.135 122.466C114.978 124.265 115.996 127.233 117.106 129.117C119.069 124.19 118.154 117.486 116.243 112.421C117.696 113.856 118.894 116.6 120.379 118.183C121.561 112.129 119.324 105.021 116.112 100.007C118.545 101.452 120.205 104.507 121.79 106.696C122.857 99.5404 119.462 91.4431 114.747 86.1079Z" fill="#F7A174"/>
<path fill-rule="evenodd" clip-rule="evenodd" d="M49.9522 19.8913C55.5357 20.4622 54.1745 18.3661 54.1326 14.5335C52.3435 15.2562 49.5712 14.9675 47.8209 13.2773C47.0608 16.9429 44.7599 19.4528 49.9522 19.8913Z" fill="#FEEBB8"/>
<path fill-rule="evenodd" clip-rule="evenodd" d="M49.1772 35.5052C56.7956 35.6924 54.0581 33.2865 54.4765 28.3547C51.4216 30.2558 46.9253 30.3638 43.6937 28.0458C40.2446 36.2067 42.871 34.6174 49.1772 35.5052Z" fill="#FEEBB8"/>
<path fill-rule="evenodd" clip-rule="evenodd" d="M99.1723 14.8661C99.0557 14.4012 98.9553 13.9283 98.8614 13.4544C97.6007 14.4588 95.9054 15.1815 93.93 14.8454C94.2727 17.4683 92.1903 20.5848 96.3687 19.9418C101.251 19.5749 100.093 18.3268 99.1723 14.8661Z" fill="#FEEBB8"/>
<path fill-rule="evenodd" clip-rule="evenodd" d="M102.928 28.2095C100.357 29.9023 96.7361 30.3752 93.5898 28.9635C93.0154 36.9423 93.9123 35.5231 100.624 35.2854C107.594 34.7317 103.514 32.1527 102.928 28.2095Z" fill="#FEEBB8"/>
<path fill-rule="evenodd" clip-rule="evenodd" d="M87.0314 86.6397C79.2313 85.9639 52.5521 85.6889 55.1487 88.4894C75.1615 86.4656 91.0614 89.2687 87.0314 86.6397Z" fill="#231F20"/>
<path fill-rule="evenodd" clip-rule="evenodd" d="M85.2926 59.8506C77.7842 49.9126 70.0185 61.3657 71.3342 69.7442C72.5313 81.385 82.9437 81.544 86.0229 72.1622C87.3084 68.1932 87.1136 62.8631 85.2926 59.8506Z" fill="white"/>
<path fill-rule="evenodd" clip-rule="evenodd" d="M61.1458 64.4787C54.1487 62.6073 51.0211 74.6922 57.6866 76.9371C65.0294 79.0891 67.3652 66.9895 61.1458 64.4787Z" fill="white"/>
<path fill-rule="evenodd" clip-rule="evenodd" d="M79.5209 65.5236C77.2346 64.8008 75.6085 68.854 77.7646 70.3863C80.6544 71.7954 82.0378 66.7212 79.5209 65.5236Z" fill="#231F20"/>
<path fill-rule="evenodd" clip-rule="evenodd" d="M60.3892 68.825C58.4729 67.5582 56.5808 70.4698 58.2654 72.0223C59.991 73.5712 61.9745 70.2008 60.3892 68.825Z" fill="#231F20"/>
<path fill-rule="evenodd" clip-rule="evenodd" d="M107.659 58.1298C106.258 56.2957 106.427 59.6641 106.788 60.9995C108.398 62.0074 107.635 59.3815 107.659 58.1298Z" fill="#FEEBB8"/>
<path fill-rule="evenodd" clip-rule="evenodd" d="M104.202 71.2453C102.722 69.5268 102.996 74.0816 103.929 74.3678C105.157 74.068 104.409 72.4787 104.202 71.2453Z" fill="#FEEBB8"/>
<path fill-rule="evenodd" clip-rule="evenodd" d="M96.9486 83.2192C95.701 81.4296 95.4259 86.2399 96.4812 86.4872C97.7132 86.1389 96.9572 84.5658 96.9486 83.2192Z" fill="#FEEBB8"/>
<path fill-rule="evenodd" clip-rule="evenodd" d="M106.53 86.7943C105.155 84.515 104.958 89.8901 106.242 90.1979C107.421 89.829 106.4 88.2008 106.53 86.7943Z" fill="#FEEBB8"/>
<path fill-rule="evenodd" clip-rule="evenodd" d="M37.514 55.8402C37.4913 56.4892 36.1871 60.4223 38.0939 59.4331C38.3583 58.9052 39.1906 54.157 37.514 55.8402Z" fill="#FEEBB8"/>
<path fill-rule="evenodd" clip-rule="evenodd" d="M46.9016 57.2744C46.8996 57.2492 46.9031 60.2789 46.9016 60.4116C48.5626 63.1728 48.5162 54.4799 46.9016 57.2744Z" fill="#FEEBB8"/>
<path fill-rule="evenodd" clip-rule="evenodd" d="M40.6405 71.5368C39.414 69.1268 38.6726 75.2281 40.4724 74.7371C41.1406 74.0042 40.3593 72.9176 40.6405 71.5368Z" fill="#FEEBB8"/>
<path fill-rule="evenodd" clip-rule="evenodd" d="M49.0145 80.9565C48.0692 78.3634 46.8908 83.7046 48.361 84.0649C49.5006 83.75 48.5977 82.2425 49.0145 80.9565Z" fill="#FEEBB8"/>
<path fill-rule="evenodd" clip-rule="evenodd" d="M36.3622 89.9341C34.9485 87.3425 34.4968 94.5495 36.3818 93.096C36.6574 92.2178 36.1567 91.3079 36.3622 89.9341Z" fill="#FEEBB8"/>
<path fill-rule="evenodd" clip-rule="evenodd" d="M45.0585 101.628C43.8068 99.1624 43.1492 105.522 44.8364 104.958C45.653 104.098 44.7526 103.073 45.0585 101.628Z" fill="#FEEBB8"/>
<path fill-rule="evenodd" clip-rule="evenodd" d="M36.1502 118.456C35.6874 117.932 36.3748 114.359 34.7209 115.297C34.1642 116.017 35.2241 120.901 36.1502 118.456Z" fill="#FEEBB8"/>
<path fill-rule="evenodd" clip-rule="evenodd" d="M61.4664 113.891C59.973 111.622 60.0911 117.204 60.8042 118.087C62.5141 118.327 61.2039 115.301 61.4664 113.891Z" fill="#FEEBB8"/>
<path fill-rule="evenodd" clip-rule="evenodd" d="M52.0432 121.024C51.0106 119.297 50.4206 122.159 51.2266 123.63C52.6968 124.002 51.8646 122.345 52.0432 121.024Z" fill="#FEEBB8"/>
<path fill-rule="evenodd" clip-rule="evenodd" d="M95.961 55.5629C95.9423 56.3588 95.7339 58.4927 97.0173 57.5807C97.5619 56.702 96.8977 53.8232 95.961 55.5629Z" fill="#FEEBB8"/>
<path fill-rule="evenodd" clip-rule="evenodd" d="M90.3991 100.201C90.3976 100.181 90.4001 102.77 90.3991 102.911C92.0469 105.583 91.9949 97.4991 90.3991 100.201Z" fill="#FEEBB8"/>
<path fill-rule="evenodd" clip-rule="evenodd" d="M103.789 98.0521C102.546 96.2644 102.255 101.07 103.344 101.321C104.567 100.973 103.779 99.3991 103.789 98.0521Z" fill="#FEEBB8"/>
<path fill-rule="evenodd" clip-rule="evenodd" d="M99.5271 111.04C99.621 111.858 99.3621 113.222 99.407 114.476C101.242 116.241 101.039 108.41 99.5271 111.04Z" fill="#FEEBB8"/>
<path fill-rule="evenodd" clip-rule="evenodd" d="M111.647 105.763C110.624 103.48 109.595 108.97 110.822 109.172C111.958 108.77 111.469 107.227 111.647 105.763Z" fill="#FEEBB8"/>
<path fill-rule="evenodd" clip-rule="evenodd" d="M86.9762 116.174C87.0393 116.616 86.8465 118.899 87.0605 119.332C88.8865 121.055 88.3364 113.544 86.9762 116.174Z" fill="#FEEBB8"/>
<path fill-rule="evenodd" clip-rule="evenodd" d="M72.7149 99.9161C72.778 100.467 72.5841 102.758 72.7991 103.217C74.6267 104.965 74.0841 97.2559 72.7149 99.9161Z" fill="#FEEBB8"/>
<path fill-rule="evenodd" clip-rule="evenodd" d="M57.1698 98.7752C57.1683 98.7545 57.1708 101.344 57.1698 101.485C58.8176 104.157 58.7656 96.073 57.1698 98.7752Z" fill="#FEEBB8"/>
<path fill-rule="evenodd" clip-rule="evenodd" d="M74.9966 120.025C74.9951 120.004 74.9976 122.593 74.9966 122.734C76.6444 125.406 76.5924 117.323 74.9966 120.025Z" fill="#FEEBB8"/>
<path fill-rule="evenodd" clip-rule="evenodd" d="M66.2972 129.009C66.3593 129.46 66.1685 131.281 66.3815 131.74C68.1888 133.389 67.6523 126.503 66.2972 129.009Z" fill="#FEEBB8"/>
<path fill-rule="evenodd" clip-rule="evenodd" d="M46.3935 133.286C45.9474 132.83 46.3708 131.319 45.3347 130.863C45.051 131.057 44.6099 130.92 44.8592 132.061C44.7603 132.91 46.1094 135.413 46.3935 133.286Z" fill="#FEEBB8"/>
<path fill-rule="evenodd" clip-rule="evenodd" d="M95.7978 127.574C94.521 125.758 94.3034 130.724 95.3532 130.984C96.6074 130.609 95.8069 128.975 95.7978 127.574Z" fill="#FEEBB8"/>
<path fill-rule="evenodd" clip-rule="evenodd" d="M106.082 121.309C104.156 118.515 104.816 127.045 106.023 123.137C106.082 122.632 106.108 122.155 106.082 121.309Z" fill="#FEEBB8"/>
<path fill-rule="evenodd" clip-rule="evenodd" d="M78.8471 134.571C78.9102 135.013 78.7174 137.297 78.9314 137.729C80.7574 139.452 80.2073 131.941 78.8471 134.571Z" fill="#FEEBB8"/>
<path fill-rule="evenodd" clip-rule="evenodd" d="M59.4301 139.412C58.8598 138.78 59.6385 135.131 57.9745 136.119C57.3215 136.857 58.5519 141.889 59.4301 139.412Z" fill="#FEEBB8"/>
<path fill-rule="evenodd" clip-rule="evenodd" d="M69.1495 140.419C69.2045 141.078 68.7588 143.919 70.2058 142.864C70.6822 142.078 70.2613 138.528 69.1495 140.419Z" fill="#FEEBB8"/>
<path fill-rule="evenodd" clip-rule="evenodd" d="M60.7812 144.835C60.6085 148.993 60.601 153.898 60.8054 158.248C58.4187 159.012 55.073 159.209 54.2383 161.997C53.8547 164.819 65.0776 163.09 64.6032 160.587C65.2876 144.359 67.3846 145.443 60.7812 144.835Z" fill="#688AB0"/>
<path fill-rule="evenodd" clip-rule="evenodd" d="M81.2733 153.058C81.779 155.698 80.866 159.244 82.5057 161.942C84.7612 163.036 91.6988 164.709 92.156 161.998C91.6983 159.538 88.5596 159.175 86.2592 158.386C85.2972 158.272 85.6268 158.062 85.6505 156.739C85.808 152.352 85.7741 148.313 85.5768 143.865C84.1112 144.253 82.6006 144.567 81.0598 144.822C81.0648 147.533 81.1319 150.296 81.2733 153.058Z" fill="#688AB0"/>
</svg>
