<svg width="128" height="141" viewBox="0 0 128 141" fill="none" xmlns="http://www.w3.org/2000/svg">
<path fill-rule="evenodd" clip-rule="evenodd" d="M108.504 54.8191C104.694 38.9762 92.2034 23.0863 77.118 15.9575C63.4539 11.2224 47.4302 15.7359 36.2961 26.3517C19.5669 41.75 11.6341 79.1546 11.2909 100.328C14.3373 109.75 21.8562 105.338 24.7043 99.073C25.3371 112.046 35.2524 110.357 38.0116 100.189C38.5516 114.521 45.3575 110.178 48.7238 100.814C49.5777 112.313 55.6775 110.501 58.4402 101.89C60.6356 111.342 66.2075 110.588 67.7695 101.809C67.4294 111.293 76.6466 110.61 78.0058 102.33C79.9504 113.357 87.3932 109.297 89.5321 101.022C91.8466 110.4 97.4038 111.377 99.8521 101.627C99.8965 105.122 103.506 109.277 107.667 106.639C120.061 102.08 109.969 62.4042 108.504 54.8191Z" fill="#FFCC82"/>
<path fill-rule="evenodd" clip-rule="evenodd" d="M47.6019 18.4154C47.4419 18.2761 47.5923 18.3649 47.1916 18.4275C48.8339 -2.69506 37.4797 -5.21804 40.3267 9.63468C36.1236 -2.13687 32.735 5.14389 34.346 12.6684C33.104 10.2418 28.7192 7.53716 28.5955 12.3479C29.4949 17.7356 32.783 22.3752 35.8334 26.811C39.0629 23.5981 43.1015 20.5387 47.6019 18.4154Z" fill="#9FC9B3"/>
<path fill-rule="evenodd" clip-rule="evenodd" d="M98.2894 17.5184C101.548 13.6686 98.5963 7.18624 93.841 11.4802C95.4071 5.74533 91.5507 -0.114699 88.7738 8.10883C89.2069 4.72887 86.7071 -1.81603 83.0905 1.49579C79.8402 6.38378 80.2167 12.1313 80.9097 17.263C82.7119 20.0116 87.1729 21.614 89.5344 24.304C91.42 27.0148 97.2724 18.6565 98.2894 17.5184Z" fill="#9FC9B3"/>
<path fill-rule="evenodd" clip-rule="evenodd" d="M37.434 8.89051C35.8882 7.20583 36.3429 11.9495 37.6818 12.1453C38.8124 11.4826 37.3836 10.2547 37.434 8.89051Z" fill="#D4E6DB"/>
<path fill-rule="evenodd" clip-rule="evenodd" d="M32.3171 14.3714C30.6041 13.0829 31.4232 16.097 32.6123 16.9297C34.1925 16.8369 32.7158 15.6291 32.3171 14.3714Z" fill="#D4E6DB"/>
<path fill-rule="evenodd" clip-rule="evenodd" d="M37.2576 20.397C36.2739 18.9864 35.5926 21.8546 37.4282 22.5313C38.0242 22.1589 37.7855 21.7471 37.2576 20.397Z" fill="#D4E6DB"/>
<path fill-rule="evenodd" clip-rule="evenodd" d="M40.1133 16.3434C37.1517 15.0191 42.0841 22.3029 40.9364 17.9872C40.7078 17.5315 40.4923 17.101 40.1133 16.3434Z" fill="#D4E6DB"/>
<path fill-rule="evenodd" clip-rule="evenodd" d="M45.2533 13.623C44.6881 13.7406 44.5316 17.1751 45.9115 16.3166C46.1608 15.772 46.4591 13.8133 45.2533 13.623Z" fill="#D4E6DB"/>
<path fill-rule="evenodd" clip-rule="evenodd" d="M43.1409 5.20137C43.0814 5.76159 43.3035 9.63009 44.437 7.525C44.3598 7.11115 44.3931 3.47329 43.1409 5.20137Z" fill="#D4E6DB"/>
<path fill-rule="evenodd" clip-rule="evenodd" d="M90.927 11.0598C91.2888 10.6753 92.49 8.06346 90.7937 8.94921C90.4329 9.33378 89.2317 11.9456 90.927 11.0598Z" fill="#D4E6DB"/>
<path fill-rule="evenodd" clip-rule="evenodd" d="M96.4855 13.3093C95.6129 12.8687 94.6343 14.5907 94.1841 15.7808C94.7357 17.258 96.7616 14.3328 96.4855 13.3093Z" fill="#D4E6DB"/>
<path fill-rule="evenodd" clip-rule="evenodd" d="M84.5241 4.14267C84.3742 4.54946 83.5258 7.97786 85.1242 6.62628C85.2736 6.22 86.122 2.79109 84.5241 4.14267Z" fill="#D4E6DB"/>
<path fill-rule="evenodd" clip-rule="evenodd" d="M83.7741 11.8684C83.9724 12.522 83.0761 13.967 83.7781 14.8779C84.4943 14.9153 84.4573 15.0324 84.6653 13.8983C84.9237 13.116 85.0631 10.3069 83.7741 11.8684Z" fill="#D4E6DB"/>
<path fill-rule="evenodd" clip-rule="evenodd" d="M88.2103 14.7822C88.1926 15.2854 86.9354 16.3629 87.4053 17.3491C88.1139 17.5677 88.0003 17.6782 88.5439 16.6128C89.0193 16.0929 89.6376 13.951 88.2103 14.7822Z" fill="#D4E6DB"/>
<path fill-rule="evenodd" clip-rule="evenodd" d="M91.5061 18.3314C91.283 18.9491 88.6985 19.7178 90.0783 20.6242C91.009 20.9553 93.699 17.8443 91.5061 18.3314Z" fill="#D4E6DB"/>
<path fill-rule="evenodd" clip-rule="evenodd" d="M81.1115 24.3661C79.6665 22.2458 80.045 29.4544 78.4325 30.1408C78.1227 28.5192 76.9154 26.5782 75.2757 25.3159C73.3513 22.9136 73.4628 31.7039 72.084 32.3887C66.0215 19.687 68.2942 28.1432 63.5076 31.8876C62.6007 30.4159 62.5755 27.7011 61.4868 25.7565C59.1784 26.4919 57.0551 29.7027 55.966 32.0299C55.4269 30.3432 56.4727 27.799 56.0563 25.8242C53.4066 26.2511 50.0348 28.815 47.378 30.1878C47.5547 26.9441 52.3251 24.6073 50.6783 23.6777C48.7321 24.4039 47.4144 27.0284 46.6054 28.9608C43.6105 35.7369 52.8802 27.5169 55.006 27.2282C54.4458 41.8301 56.9703 29.8486 60.9398 27.2242C62.5225 36.9492 65.4003 32.7345 67.8501 27.1424C69.4464 28.6166 70.7965 31.9921 71.4213 33.7312C73.2306 35.2095 74.9643 27.7178 74.932 26.4485C76.4819 27.3594 77.082 29.8759 77.833 31.9068C80.26 31.1391 81.3805 26.7563 81.1115 24.3661Z" fill="#6B7E82"/>
<path fill-rule="evenodd" clip-rule="evenodd" d="M73.7776 78.5192C72.2797 76.2713 72.4255 80.2427 72.1343 81.5676C71.621 83.76 70.5465 85.4179 68.9295 86.8149C66.7012 88.7499 62.8671 88.9109 60.4768 87.3807C55.2138 84.1329 57.9599 77.374 55.6191 77.956C53.4938 93.8246 74.3767 93.2286 73.7776 78.5192Z" fill="#231F20"/>
<path fill-rule="evenodd" clip-rule="evenodd" d="M56.81 85.2463C53.3332 88.8776 56.3169 94.4268 60.2304 88.8095C59.0246 88.1912 57.665 86.8371 56.81 85.2463Z" fill="white"/>
<path fill-rule="evenodd" clip-rule="evenodd" d="M65.1746 92.6711C67.2903 95.505 69.0789 90.7699 68.6474 88.6507C67.3589 89.377 65.9029 89.7489 64.4579 89.7833C64.4877 90.7619 64.6371 91.7884 65.1746 92.6711Z" fill="white"/>
<path fill-rule="evenodd" clip-rule="evenodd" d="M12.2889 61.1128C9.55794 65.9917 5.88375 70.8837 1.82043 74.945C-0.381051 79.1905 1.46765 80.4947 4.63715 77.2439C2.77583 81.1563 4.76837 84.7599 7.69864 79.2092C7.82936 85.2661 11.4289 78.4219 11.5459 75.9383C12.6139 72.9293 11.1558 70.6112 12.4993 67.8343C13.9382 65.2695 15.5865 63.1977 17.7199 61.1325C18.3639 58.8588 19.2829 55.9205 20.1031 53.5948C17.3333 54.898 14.7614 57.3725 12.2889 61.1128Z" fill="#798E93"/>
<path fill-rule="evenodd" clip-rule="evenodd" d="M126.036 74.6743C119.336 69.2332 115.589 57.5287 108.22 53.7304C109.153 61.7864 113.132 63.3439 115.537 67.8377C116.825 70.3783 115.493 73.7265 116.648 76.6184C116.899 79.2484 120.273 84.8434 120.336 79.209C122.506 84.0516 125.486 82.0913 123.397 77.2437C127.215 81.2298 128.104 77.8574 126.036 74.6743Z" fill="#798E93"/>
<path fill-rule="evenodd" clip-rule="evenodd" d="M81.9617 49.2078C76.8097 30.2913 44.929 35.1333 48.7703 56.7263C53.7128 77.8544 86.7497 69.8428 81.9617 49.2078Z" fill="white"/>
<path fill-rule="evenodd" clip-rule="evenodd" d="M65.6494 45.1552C54.7328 44.9741 53.4831 60.0302 64.0883 61.2425C76.9086 62.0873 77.2453 45.5852 65.6494 45.1552Z" fill="#231F20"/>
<path fill-rule="evenodd" clip-rule="evenodd" d="M65.2988 45.2905C54.3676 45.5499 54.0885 60.6747 64.6962 61.1501C76.8932 61.301 76.7065 45.6756 65.644 45.2971C65.5289 45.2925 65.644 45.2971 65.2988 45.2905ZM65.0222 61.4347C53.1669 61.1178 54.3792 44.6374 65.6546 45.0129C78.3725 45.9935 75.7601 61.7835 65.0222 61.4347Z" fill="#231F20"/>
<path fill-rule="evenodd" clip-rule="evenodd" d="M62.9034 46.8945C59.0879 45.6727 55.3067 55.1504 59.7708 51.4202C60.1776 49.9939 65.0948 47.7369 62.9034 46.8945Z" fill="white"/>
<path fill-rule="evenodd" clip-rule="evenodd" d="M44.5052 54.6542C44.4052 55.5334 43.1203 60.1171 45.0179 59.2495C45.1789 58.5233 46.2065 52.8974 44.5052 54.6542Z" fill="#FFE9C9"/>
<path fill-rule="evenodd" clip-rule="evenodd" d="M37.3374 71.6018C37.0674 72.4471 35.1692 76.3343 37.1123 75.9871C37.3995 75.3608 39.2078 70.2971 37.3374 71.6018Z" fill="#FFE9C9"/>
<path fill-rule="evenodd" clip-rule="evenodd" d="M33.7483 89.6452C33.6847 90.5001 32.0974 94.9324 34.0062 94.0476C34.311 93.4587 35.5415 87.906 33.7483 89.6452Z" fill="#FFE9C9"/>
<path fill-rule="evenodd" clip-rule="evenodd" d="M60.6535 19.1757C60.7878 19.7313 59.6759 23.2057 61.4499 22.5294C61.8214 22.0666 62.1212 17.1468 60.6535 19.1757Z" fill="#FFE9C9"/>
<path fill-rule="evenodd" clip-rule="evenodd" d="M70.0076 20.7141C69.565 20.3392 68.7671 17.1813 67.7002 18.6383C67.5367 19.3388 69.9213 23.0272 70.0076 20.7141Z" fill="#FFE9C9"/>
<path fill-rule="evenodd" clip-rule="evenodd" d="M78.5742 19.4332C78.0246 19.0546 75.4133 16.517 75.11 18.4006C75.5546 18.8412 79.2318 21.5241 78.5742 19.4332Z" fill="#FFE9C9"/>
<path fill-rule="evenodd" clip-rule="evenodd" d="M34.8759 38.5225C34.2233 39.1932 31.1381 42.4207 33.1776 42.6151C33.5935 41.9791 37.2172 37.8865 34.8759 38.5225Z" fill="#FFE9C9"/>
<path fill-rule="evenodd" clip-rule="evenodd" d="M41.8688 40.9843C41.6548 41.8403 39.2818 45.7492 41.2894 45.3873C41.7563 44.8059 43.87 39.6994 41.8688 40.9843Z" fill="#FFE9C9"/>
<path fill-rule="evenodd" clip-rule="evenodd" d="M32.4176 55.8251C31.9205 56.832 30.362 62.0107 32.4151 61.0956C32.3807 60.0721 34.2325 54.4382 32.4176 55.8251Z" fill="#FFE9C9"/>
<path fill-rule="evenodd" clip-rule="evenodd" d="M23.4671 69.874C22.9756 70.6265 20.9583 75.1744 23.0417 74.3159C23.188 73.4311 25.5182 68.686 23.4671 69.874Z" fill="#FFE9C9"/>
<path fill-rule="evenodd" clip-rule="evenodd" d="M25.9536 80.9345C25.5236 81.9605 23.6875 87.3128 25.7714 86.3776C25.8512 85.3824 27.8155 79.5238 25.9536 80.9345Z" fill="#FFE9C9"/>
<path fill-rule="evenodd" clip-rule="evenodd" d="M54.5637 18.5369C53.7941 18.8311 49.9044 20.7157 51.8611 21.4581C52.449 21.0841 56.69 18.869 54.5637 18.5369Z" fill="#FFE9C9"/>
<path fill-rule="evenodd" clip-rule="evenodd" d="M44.1478 94.0258C44.0858 94.8888 42.9012 99.2196 44.7419 98.3455C44.9468 97.7565 45.781 92.2816 44.1478 94.0258Z" fill="#FFE9C9"/>
<path fill-rule="evenodd" clip-rule="evenodd" d="M45.8556 80.0111C45.8561 79.9869 45.5104 82.7016 45.4902 82.8429C46.7267 85.3604 47.7614 77.4568 45.8556 80.0111Z" fill="#FFE9C9"/>
<path fill-rule="evenodd" clip-rule="evenodd" d="M81.663 84.3956C81.6625 84.3714 82.0082 87.0862 82.0284 87.2275C80.7919 89.7449 79.7577 81.8414 81.663 84.3956Z" fill="#FFE9C9"/>
<path fill-rule="evenodd" clip-rule="evenodd" d="M54.1772 99.0452C53.9441 99.5478 53.3006 103.763 54.901 101.934C54.791 101.379 55.9068 97.6522 54.1772 99.0452Z" fill="#FFE9C9"/>
<path fill-rule="evenodd" clip-rule="evenodd" d="M16.978 92.7313C16.5682 93.4565 14.9996 98.7619 17.03 96.732C16.8791 95.8246 19.1795 91.244 16.978 92.7313Z" fill="#FFE9C9"/>
<path fill-rule="evenodd" clip-rule="evenodd" d="M24.5619 49.5025C24.3686 49.9921 22.7636 52.6766 24.5392 52.4116C25.0161 51.964 26.3061 48.4301 24.5619 49.5025Z" fill="#FFE9C9"/>
<path fill-rule="evenodd" clip-rule="evenodd" d="M63.2115 95.9965C63.2478 96.0606 63.1848 98.0592 63.2115 98.2803C64.7634 100.714 64.7498 93.5361 63.2115 95.9965Z" fill="#FFE9C9"/>
<path fill-rule="evenodd" clip-rule="evenodd" d="M72.6199 101.934C72.9171 102.42 71.8951 104.062 73.069 104.491C73.4647 104.277 73.5954 104.471 73.6868 103.275C73.9755 102.572 73.4657 100.517 72.6199 101.934Z" fill="#FFE9C9"/>
<path fill-rule="evenodd" clip-rule="evenodd" d="M87.1121 94.6089C85.595 93.2775 86.2683 96.3526 86.3092 97.7027C87.0879 101.377 87.791 96.2088 87.1121 94.6089Z" fill="#FFE9C9"/>
<path fill-rule="evenodd" clip-rule="evenodd" d="M95.1213 37.9838C94.878 37.096 91.7216 32.263 91.8604 35.1024C92.7996 35.5839 94.7094 40.6102 95.1213 37.9838Z" fill="#FFE9C9"/>
<path fill-rule="evenodd" clip-rule="evenodd" d="M88.0797 43.8331C87.8026 43.1659 85.427 38.8209 85.2104 41.2818C85.8191 41.7648 87.7001 46.3869 88.0797 43.8331Z" fill="#FFE9C9"/>
<path fill-rule="evenodd" clip-rule="evenodd" d="M94.3361 52.8292C92.4157 51.4498 93.891 55.1482 94.1539 56.4115C95.9774 57.2417 94.648 54.0213 94.3361 52.8292Z" fill="#FFE9C9"/>
<path fill-rule="evenodd" clip-rule="evenodd" d="M98.2682 64.2455C96.6587 62.1914 97.3113 69.0184 98.5736 68.7333C99.5406 67.8945 98.3152 65.7631 98.2682 64.2455Z" fill="#FFE9C9"/>
<path fill-rule="evenodd" clip-rule="evenodd" d="M87.0072 61.603C85.2034 60.0636 86.4288 64.4676 86.5514 65.7334C88.4143 66.5515 87.1465 62.9591 87.0072 61.603Z" fill="#FFE9C9"/>
<path fill-rule="evenodd" clip-rule="evenodd" d="M81.0001 72.5589C79.4547 70.8647 80.019 75.7249 80.7952 76.4072C82.2896 76.324 81.0773 73.9105 81.0001 72.5589Z" fill="#FFE9C9"/>
<path fill-rule="evenodd" clip-rule="evenodd" d="M93.4721 75.0713C91.3877 73.9777 93.7648 78.5487 93.6508 79.8922C95.766 80.8108 93.9385 76.1045 93.4721 75.0713Z" fill="#FFE9C9"/>
<path fill-rule="evenodd" clip-rule="evenodd" d="M95.4224 89.4609C93.7145 87.3008 94.7784 95.0489 95.8181 94.6774C96.9183 93.6781 95.6202 91.0456 95.4224 89.4609Z" fill="#FFE9C9"/>
<path fill-rule="evenodd" clip-rule="evenodd" d="M106.488 72.9239C104.449 71.5183 106.221 75.569 106.514 76.8045C108.363 77.1573 106.814 74.1776 106.488 72.9239Z" fill="#FFE9C9"/>
<path fill-rule="evenodd" clip-rule="evenodd" d="M107.02 93.5724C105.197 92.1123 106.479 96.2165 106.536 97.5226C108.355 98.3498 107.234 94.875 107.02 93.5724Z" fill="#FFE9C9"/>
<path fill-rule="evenodd" clip-rule="evenodd" d="M103.694 50.8693C101.889 49.1866 103.584 56.0909 104.557 55.3464C105.46 54.2149 104.068 52.3788 103.694 50.8693Z" fill="#FFE9C9"/>
<path fill-rule="evenodd" clip-rule="evenodd" d="M45.8768 67.1689C46.0414 68.0526 44.3178 70.6084 45.7259 71.3256C46.6536 71.4553 47.5873 65.2909 45.8768 67.1689Z" fill="#FFE9C9"/>
<path fill-rule="evenodd" clip-rule="evenodd" d="M43.0188 29.3849C42.3586 29.8195 39.0393 32.3364 41.1206 32.561C41.6914 32.0957 45.2067 29.2931 43.0188 29.3849Z" fill="#FFE9C9"/>
<path fill-rule="evenodd" clip-rule="evenodd" d="M88.9234 32.1016C88.6398 31.2113 86.4943 27.1793 85.7141 29.1633C86.296 29.7517 88.5767 34.2562 88.9234 32.1016Z" fill="#FFE9C9"/>
<path fill-rule="evenodd" clip-rule="evenodd" d="M82.1687 108.978C79.0547 107.889 78.5798 105.134 78.0059 102.33C77.7511 103.834 76.933 106.089 75.6344 107.276C75.7232 109.938 75.7918 113.344 75.9251 116.438C75.6864 146.649 95.5235 145.666 84.1925 127.062C84.192 127.065 84.2167 126.721 84.2627 126.067C84.5408 122.146 85.5345 108.137 85.537 108.099C84.4968 108.889 83.2674 109.218 82.1687 108.978Z" fill="#798E93"/>
<path fill-rule="evenodd" clip-rule="evenodd" d="M44.8418 107.71C43.6144 108.887 42.4051 109.873 40.7951 109.262C40.7982 109.273 41.8742 124.502 42.0382 126.788C31.4587 146.626 48.2687 142.983 49.6182 125.489C50.398 119.172 50.3924 113.917 50.6049 107.668C49.434 106.205 48.8592 103.016 48.7234 100.814C47.9644 103.367 46.6415 105.723 44.8418 107.71Z" fill="#798E93"/>
</svg>
