<svg width="137" height="171" viewBox="0 0 137 171" fill="none" xmlns="http://www.w3.org/2000/svg">
<path fill-rule="evenodd" clip-rule="evenodd" d="M91.0322 0.698002C87.464 11.0725 82.2278 14.94 74.2632 19.7922C68.9699 28.1798 82.8011 32.026 88.0909 26.4088C92.5579 18.9716 93.4336 9.05225 91.0322 0.698002Z" fill="#FAD570"/>
<path fill-rule="evenodd" clip-rule="evenodd" d="M58.2472 21.0877C50.8927 17.2081 43.6074 13.6242 40.4147 5.0116C38.7335 -2.09201 38.4388 12.8682 38.9248 13.7832C39.5254 18.7378 41.0986 23.0545 43.6493 27.4822C48.341 34.0715 62.5729 29.8412 58.2472 21.0877Z" fill="#FAD570"/>
<path fill-rule="evenodd" clip-rule="evenodd" d="M42.2659 68.1337C37.4586 68.6152 30.9435 71.3188 25.8123 69.295C20.1566 66.9012 16.3164 58.4364 16.8963 52.7021C17.5458 49.9394 19.2265 49.2111 21.1186 46.6649C21.8156 45.5429 21.7661 44.3574 20.4499 43.2501C17.9355 42.6611 16.9745 46.1435 15.0975 47.6006C15.4695 37.1463 11.0509 37.6833 11.4779 47.1484C8.13074 39.6117 2.69364 36.4786 6.52025 47.8302C4.14212 45.2598 -1.01235 43.4106 1.23507 49.1374C3.09235 51.6886 6.41023 53.1972 8.43003 56.2723C12.6962 61.9562 14.1432 68.6777 20.0067 73.1327C25.1097 76.9714 38.2323 78.2957 41.5421 74.9052C42.6651 73.0055 44.6163 69.4913 42.2659 68.1337Z" fill="#89BEC2"/>
<path fill-rule="evenodd" clip-rule="evenodd" d="M95.6732 60.9472C100.553 61.2616 107.334 63.7927 112.377 61.4171C117.782 58.7008 121.263 50.2542 120.472 44.6137C119.724 41.8757 118.018 41.209 116.036 38.7325C115.298 37.6363 115.305 36.4492 116.581 35.2955C119.072 34.6167 120.158 38.0622 122.086 39.4511C121.339 29.016 125.774 29.3946 125.687 38.8692C128.762 31.2165 134.083 27.8901 130.666 39.3719C132.951 36.7182 138.035 34.6843 135.995 40.4883C134.23 43.1046 130.969 44.7318 129.061 47.8776C125.002 53.7109 123.797 60.4804 118.098 65.1427C113.471 69.1521 98.0655 71.4636 96.0194 66.7744C95.1423 64.8753 93.5691 62.2236 95.6732 60.9472Z" fill="#89BEC2"/>
<path fill-rule="evenodd" clip-rule="evenodd" d="M113.162 70.8703C114.192 66.0061 109.657 58.3327 106.522 54.4379C108.216 54.8906 110.138 56.5521 111.87 57.3384C112.052 52.7835 109.367 47.5675 106.338 43.9352C106.758 43.8236 112.255 47.6891 112.082 46.3002C110.07 39.2415 106.768 31.6741 100.225 28.6035C104.248 28.5399 107.612 32.7849 107.947 31.5111C105.231 26.4035 101.441 20.7494 94.513 21.3455C95.8454 18.6251 99.4772 17.1201 102.261 15.0625C95.7369 12.5032 86.3122 17.5638 83.0675 23.1159C82.5128 20.9472 83.9901 18.7079 85.0984 16.9889C81.4005 17.2619 77.699 20.649 76.0194 23.6242C75.7181 20.8922 77.3417 18.0513 78.7584 15.8115C75.0327 15.3179 71.9425 20.1942 70.3345 23.6004C60.5106 4.18929 65.6716 18.2633 62.1685 24.3393C61.0062 24.7012 59.5966 20.333 58.1844 19.3388C57.0408 17.5814 50.83 12.9579 49.9241 14.8263C52.2452 17.0934 53.8713 20.6959 54.0631 24.0582C50.3182 21.0093 40.1471 18.9421 38.0556 21.7442C40.3267 22.5855 42.8179 24.3151 44.4854 26.2617C38.9797 24.7411 28.5784 25.9907 27.5312 31.6715C31.1917 30.81 35.682 30.8348 39.4748 31.7649C31.22 33.9614 23.54 41.1816 22.4221 49.4904C24.6367 48.4759 27.462 46.2987 30.1056 45.4124C26.6787 49.3597 22.195 59.9245 24.0604 61.2281C25.6214 59.3582 28.0566 57.3536 30.3514 56.0969C26.6782 59.1679 22.3373 68.8813 24.5318 71.0243C25.5497 69.4814 27.3681 67.659 29.0932 66.5168C26.7171 69.0852 25.0405 73.3343 25.0309 77.0453C25.1419 77.8331 24.7437 80.0498 26.1276 78.5039C28.3432 76.3231 30.9273 74.6268 33.9292 73.3812C30.5508 76.6047 26.0357 83.7467 27.0517 88.4358C28.9256 87.5031 31.5632 86.3317 33.7344 85.4778C30.5422 87.7227 25.9717 95.8266 27.8143 98.1371C29.5681 96.3727 32.0038 94.2807 34.1659 92.7045C31.2437 96.194 28.4684 106.495 30.8339 107.643C32.4474 104.666 35.0628 101.565 37.9097 99.4145C35.4453 102.826 33.6405 107.692 33.312 112.168C33.4826 113.018 32.6261 114.979 33.7743 114.941C35.6997 112.729 38.5472 110.401 41.2463 108.865C38.4987 111.991 35.6992 121.819 37.9395 123.046C39.4521 120.469 41.8545 117.696 44.3007 115.734C42.6039 118.952 41.4103 123.383 41.3609 126.951C40.4938 134.422 45.7391 124.803 48.5432 123.92C47.5661 126.694 47.0513 130.227 47.2724 132.843C47.3975 133.553 47.3239 136.053 48.4049 134.185C49.913 131.596 51.9181 129.377 54.4371 127.516C54.0712 139.881 56.9858 131.431 61.847 128.531C62.0645 142.354 63.5216 135.65 69.6491 129.957C70.4228 131.515 70.6964 134.285 71.9278 136.003C72.3397 136.153 76.2748 129.3 76.5554 129.109C78.0241 130.646 79.4019 132.854 80.0126 134.779C81.6175 134.818 81.6473 128.736 81.6493 127.188C84.4499 128.511 85.8403 131.202 86.825 133.414C88.2114 131.624 88.2765 127.887 88.0544 125.393C90.3901 127.047 91.5964 130.231 92.7516 132.717C94.3258 130.062 94.3182 125.498 94.0477 122.211C95.8489 123.172 97.2202 125.36 98.5985 126.657C99.4616 124.447 99.1739 120.728 99.1794 118.05C100.738 118.213 103.408 120.699 104.736 120.352C104.563 115.832 103.002 110.678 101.645 107.38C103.659 108.272 105.337 110.618 106.985 112.029C107.51 108.622 106.652 103.278 105.564 98.7397C107.809 99.8601 109.867 102.367 111.851 103.904C112.44 98.7811 110.021 92.9801 107.021 88.89C109.085 89.8389 111.277 92.0777 113.318 93.3233C113.762 88.6624 111.573 83.1673 108.979 78.9697C109.404 79.1312 113.072 82.6379 113.534 82.4128C113.857 77.227 111.419 71.6819 108.514 68.0032L113.162 70.8703Z" fill="#6C3A13"/>
<path fill-rule="evenodd" clip-rule="evenodd" d="M113.162 70.8703C114.192 66.0061 109.657 58.3327 106.522 54.4379C108.216 54.8906 110.138 56.5521 111.87 57.3384C112.052 52.7835 109.367 47.5675 106.338 43.9352C106.758 43.8236 112.255 47.6891 112.082 46.3002C110.07 39.2415 106.768 31.6741 100.225 28.6035C104.248 28.5399 107.612 32.7849 107.947 31.5111C105.231 26.4035 101.441 20.7494 94.513 21.3455C95.8454 18.6251 99.4772 17.1201 102.261 15.0625C95.7369 12.5032 86.3122 17.5638 83.0675 23.1159C82.5128 20.9472 83.9901 18.7079 85.0984 16.9889C81.4005 17.2619 77.699 20.649 76.0194 23.6242C75.7181 20.8922 77.3417 18.0513 78.7584 15.8115C75.0327 15.3179 71.9425 20.1942 70.3345 23.6004C60.5106 4.18929 65.6716 18.2633 62.1685 24.3393C61.0062 24.7012 59.5966 20.333 58.1844 19.3388C57.0408 17.5814 50.83 12.9579 49.9241 14.8263C52.2452 17.0934 53.8713 20.6959 54.0631 24.0582C50.3182 21.0093 40.1471 18.9421 38.0556 21.7442C40.3267 22.5855 42.8179 24.3151 44.4854 26.2617C38.9797 24.7411 28.5784 25.9907 27.5312 31.6715C31.1917 30.81 35.682 30.8348 39.4748 31.7649C31.22 33.9614 23.54 41.1816 22.4221 49.4904C24.6367 48.4759 27.462 46.2987 30.1056 45.4124C26.6787 49.3597 22.195 59.9245 24.0604 61.2281C25.6214 59.3582 28.0566 57.3536 30.3514 56.0969C26.6782 59.1679 22.3373 68.8813 24.5318 71.0243C25.5497 69.4814 27.3681 67.659 29.0932 66.5168C26.7171 69.0852 25.0405 73.3343 25.0309 77.0453C25.1419 77.8331 24.7437 80.0498 26.1276 78.5039C28.3432 76.3231 30.9273 74.6268 33.9292 73.3812C30.5508 76.6047 26.0357 83.7467 27.0517 88.4358C28.9256 87.5031 31.5632 86.3317 33.7344 85.4778C30.5422 87.7227 25.9717 95.8266 27.8143 98.1371C29.5681 96.3727 32.0038 94.2807 34.1659 92.7045C31.2437 96.194 28.4684 106.495 30.8339 107.643C32.4474 104.666 35.0628 101.565 37.9097 99.4145C35.4453 102.826 33.6405 107.692 33.312 112.168C33.4826 113.018 32.6261 114.979 33.7743 114.941C35.6997 112.729 38.5472 110.401 41.2463 108.865C38.4987 111.991 35.6992 121.819 37.9395 123.046C39.4521 120.469 41.8545 117.696 44.3007 115.734C42.6039 118.952 41.4103 123.383 41.3609 126.951C40.4938 134.422 45.7391 124.803 48.5432 123.92C47.5661 126.694 47.0513 130.227 47.2724 132.843C47.3975 133.553 47.3239 136.053 48.4049 134.185C49.913 131.596 51.9181 129.377 54.4371 127.516C54.0712 139.881 56.9858 131.431 61.847 128.531C62.0645 142.354 63.5216 135.65 69.6491 129.957C70.4228 131.515 70.6964 134.285 71.9278 136.003C72.3397 136.153 76.2748 129.3 76.5554 129.109C78.0241 130.646 79.4019 132.854 80.0126 134.779C81.6175 134.818 81.6473 128.736 81.6493 127.188C84.4499 128.511 85.8403 131.202 86.825 133.414C88.2114 131.624 88.2765 127.887 88.0544 125.393C90.3901 127.047 91.5964 130.231 92.7516 132.717C94.3258 130.062 94.3182 125.498 94.0477 122.211C95.8489 123.172 97.2202 125.36 98.5985 126.657C99.4616 124.447 99.1739 120.728 99.1794 118.05C100.738 118.213 103.408 120.699 104.736 120.352C104.563 115.832 103.002 110.678 101.645 107.38C103.659 108.272 105.337 110.618 106.985 112.029C107.51 108.622 106.652 103.278 105.564 98.7397C107.809 99.8601 109.867 102.367 111.851 103.904C112.44 98.7811 110.021 92.9801 107.021 88.89C109.085 89.8389 111.277 92.0777 113.318 93.3233C113.762 88.6624 111.573 83.1673 108.979 78.9697C109.404 79.1312 113.072 82.6379 113.534 82.4128C113.857 77.227 111.419 71.6819 108.514 68.0032L113.162 70.8703Z" fill="#6C3A13"/>
<path fill-rule="evenodd" clip-rule="evenodd" d="M113.162 70.8703C114.192 66.0061 109.657 58.3327 106.522 54.4379C108.216 54.8906 110.138 56.5521 111.87 57.3384C112.052 52.7835 109.367 47.5675 106.338 43.9352C106.758 43.8236 112.255 47.6891 112.082 46.3002C110.07 39.2415 106.768 31.6741 100.225 28.6035C104.248 28.5399 107.612 32.7849 107.947 31.5111C105.231 26.4035 101.441 20.7494 94.513 21.3455C95.8454 18.6251 99.4772 17.1201 102.261 15.0625C95.7369 12.5032 86.3122 17.5638 83.0675 23.1159C82.5128 20.9472 83.9901 18.7079 85.0984 16.9889C81.4005 17.2619 77.699 20.649 76.0194 23.6242C75.7181 20.8922 77.3417 18.0513 78.7584 15.8115C75.0327 15.3179 71.9425 20.1942 70.3345 23.6004C60.5106 4.18929 65.6716 18.2633 62.1685 24.3393C61.0062 24.7012 59.5966 20.333 58.1844 19.3388C57.0408 17.5814 50.83 12.9579 49.9241 14.8263C52.2452 17.0934 53.8713 20.6959 54.0631 24.0582C50.3182 21.0093 40.1471 18.9421 38.0556 21.7442C40.3267 22.5855 42.8179 24.3151 44.4854 26.2617C38.9797 24.7411 28.5784 25.9907 27.5312 31.6715C31.1917 30.81 35.682 30.8348 39.4748 31.7649C31.22 33.9614 23.54 41.1816 22.4221 49.4904C24.6367 48.4759 27.462 46.2987 30.1056 45.4124C26.6787 49.3597 22.195 59.9245 24.0604 61.2281C25.6214 59.3582 28.0566 57.3536 30.3514 56.0969C26.6782 59.1679 22.3373 68.8813 24.5318 71.0243C25.5497 69.4814 27.3681 67.659 29.0932 66.5168C26.7171 69.0852 25.0405 73.3343 25.0309 77.0453C25.1419 77.8331 24.7437 80.0498 26.1276 78.5039C28.3432 76.3231 30.9273 74.6268 33.9292 73.3812C30.5508 76.6047 26.0357 83.7467 27.0517 88.4358C28.9256 87.5031 31.5632 86.3317 33.7344 85.4778C30.5422 87.7227 25.9717 95.8266 27.8143 98.1371C29.5681 96.3727 32.0038 94.2807 34.1659 92.7045C31.2437 96.194 28.4684 106.495 30.8339 107.643C32.4474 104.666 35.0628 101.565 37.9097 99.4145C35.4453 102.826 33.6405 107.692 33.312 112.168C33.4826 113.018 32.6261 114.979 33.7743 114.941C35.6997 112.729 38.5472 110.401 41.2463 108.865C38.4987 111.991 35.6992 121.819 37.9395 123.046C39.4521 120.469 41.8545 117.696 44.3007 115.734C42.6039 118.952 41.4103 123.383 41.3609 126.951C40.4938 134.422 45.7391 124.803 48.5432 123.92C47.5661 126.694 47.0513 130.227 47.2724 132.843C47.3975 133.553 47.3239 136.053 48.4049 134.185C49.913 131.596 51.9181 129.377 54.4371 127.516C54.0712 139.881 56.9858 131.431 61.847 128.531C62.0645 142.354 63.5216 135.65 69.6491 129.957C70.4228 131.515 70.6964 134.285 71.9278 136.003C72.3397 136.153 76.2748 129.3 76.5554 129.109C78.0241 130.646 79.4019 132.854 80.0126 134.779C81.6175 134.818 81.6473 128.736 81.6493 127.188C84.4499 128.511 85.8403 131.202 86.825 133.414C88.2114 131.624 88.2765 127.887 88.0544 125.393C90.3901 127.047 91.5964 130.231 92.7516 132.717C94.3258 130.062 94.3182 125.498 94.0477 122.211C95.8489 123.172 97.2202 125.36 98.5985 126.657C99.4616 124.447 99.1739 120.728 99.1794 118.05C100.738 118.213 103.408 120.699 104.736 120.352C104.563 115.832 103.002 110.678 101.645 107.38C103.659 108.272 105.337 110.618 106.985 112.029C107.51 108.622 106.652 103.278 105.564 98.7397C107.809 99.8601 109.867 102.367 111.851 103.904C112.44 98.7811 110.021 92.9801 107.021 88.89C109.085 89.8389 111.277 92.0777 113.318 93.3233C113.762 88.6624 111.573 83.1673 108.979 78.9697C109.404 79.1312 113.072 82.6379 113.534 82.4128C113.857 77.227 111.419 71.6819 108.514 68.0032L113.162 70.8703Z" fill="#6C3A13"/>
<path fill-rule="evenodd" clip-rule="evenodd" d="M113.162 70.8703C114.192 66.0061 109.657 58.3327 106.522 54.4379C108.216 54.8906 110.138 56.5521 111.87 57.3384C112.052 52.7835 109.367 47.5675 106.338 43.9352C106.758 43.8236 112.255 47.6891 112.082 46.3002C110.07 39.2415 106.768 31.6741 100.225 28.6035C104.248 28.5399 107.612 32.7849 107.947 31.5111C105.231 26.4035 101.441 20.7494 94.513 21.3455C95.8454 18.6251 99.4772 17.1201 102.261 15.0625C95.7369 12.5032 86.3122 17.5638 83.0675 23.1159C82.5128 20.9472 83.9901 18.7079 85.0984 16.9889C81.4005 17.2619 77.699 20.649 76.0194 23.6242C75.7181 20.8922 77.3417 18.0513 78.7584 15.8115C75.0327 15.3179 71.9425 20.1942 70.3345 23.6004C60.5106 4.18929 65.6716 18.2633 62.1685 24.3393C61.0062 24.7012 59.5966 20.333 58.1844 19.3388C57.0408 17.5814 50.83 12.9579 49.9241 14.8263C52.2452 17.0934 53.8713 20.6959 54.0631 24.0582C50.3182 21.0093 40.1471 18.9421 38.0556 21.7442C40.3267 22.5855 42.8179 24.3151 44.4854 26.2617C38.9797 24.7411 28.5784 25.9907 27.5312 31.6715C31.1917 30.81 35.682 30.8348 39.4748 31.7649C31.22 33.9614 23.54 41.1816 22.4221 49.4904C24.6367 48.4759 27.462 46.2987 30.1056 45.4124C26.6787 49.3597 22.195 59.9245 24.0604 61.2281C25.6214 59.3582 28.0566 57.3536 30.3514 56.0969C26.6782 59.1679 22.3373 68.8813 24.5318 71.0243C25.5497 69.4814 27.3681 67.659 29.0932 66.5168C26.7171 69.0852 25.0405 73.3343 25.0309 77.0453C25.1419 77.8331 24.7437 80.0498 26.1276 78.5039C28.3432 76.3231 30.9273 74.6268 33.9292 73.3812C30.5508 76.6047 26.0357 83.7467 27.0517 88.4358C28.9256 87.5031 31.5632 86.3317 33.7344 85.4778C30.5422 87.7227 25.9717 95.8266 27.8143 98.1371C29.5681 96.3727 32.0038 94.2807 34.1659 92.7045C31.2437 96.194 28.4684 106.495 30.8339 107.643C32.4474 104.666 35.0628 101.565 37.9097 99.4145C35.4453 102.826 33.6405 107.692 33.312 112.168C33.4826 113.018 32.6261 114.979 33.7743 114.941C35.6997 112.729 38.5472 110.401 41.2463 108.865C38.4987 111.991 35.6992 121.819 37.9395 123.046C39.4521 120.469 41.8545 117.696 44.3007 115.734C42.6039 118.952 41.4103 123.383 41.3609 126.951C40.4938 134.422 45.7391 124.803 48.5432 123.92C47.5661 126.694 47.0513 130.227 47.2724 132.843C47.3975 133.553 47.3239 136.053 48.4049 134.185C49.913 131.596 51.9181 129.377 54.4371 127.516C54.0712 139.881 56.9858 131.431 61.847 128.531C62.0645 142.354 63.5216 135.65 69.6491 129.957C70.4228 131.515 70.6964 134.285 71.9278 136.003C72.3397 136.153 76.2748 129.3 76.5554 129.109C78.0241 130.646 79.4019 132.854 80.0126 134.779C81.6175 134.818 81.6473 128.736 81.6493 127.188C84.4499 128.511 85.8403 131.202 86.825 133.414C88.2114 131.624 88.2765 127.887 88.0544 125.393C90.3901 127.047 91.5964 130.231 92.7516 132.717C94.3258 130.062 94.3182 125.498 94.0477 122.211C95.8489 123.172 97.2202 125.36 98.5985 126.657C99.4616 124.447 99.1739 120.728 99.1794 118.05C100.738 118.213 103.408 120.699 104.736 120.352C104.563 115.832 103.002 110.678 101.645 107.38C103.659 108.272 105.337 110.618 106.985 112.029C107.51 108.622 106.652 103.278 105.564 98.7397C107.809 99.8601 109.867 102.367 111.851 103.904C112.44 98.7811 110.021 92.9801 107.021 88.89C109.085 89.8389 111.277 92.0777 113.318 93.3233C113.762 88.6624 111.573 83.1673 108.979 78.9697C109.404 79.1312 113.072 82.6379 113.534 82.4128C113.857 77.227 111.419 71.6819 108.514 68.0032L113.162 70.8703Z" fill="#B38666"/>
<path fill-rule="evenodd" clip-rule="evenodd" d="M92.1792 6.59589C92.0111 6.93353 91.8431 7.27117 91.6811 7.61134C92.3028 5.74396 91.7366 3.12156 91.0805 0.879189C89.7496 2.24187 89.7203 5.15548 88.3087 7.27874C88.3284 7.21162 88.347 7.14399 88.3667 7.07687C87.964 8.20385 86.4211 9.41614 86.0486 10.8358C86.5185 11.4268 87.1968 11.3991 87.4229 10.1646C87.8772 10.4588 88.0149 9.75327 88.7432 9.6059C88.1103 11.8952 89.8808 11.9522 90.2341 9.14814C89.7743 10.3599 89.8884 14.7225 91.5539 10.799C92.3044 14.3122 92.5698 7.97624 92.1792 6.59589Z" fill="#6D9699"/>
<path fill-rule="evenodd" clip-rule="evenodd" d="M42.5976 9.45848C41.2869 7.98729 40.9205 4.93185 39.3065 3.30925C38.9805 5.43453 38.339 7.64359 39.2646 10.0687C39.0748 9.74313 38.879 9.42063 38.6837 9.09813C38.4359 9.89101 39.1218 17.2273 39.6547 13.2351C40.9826 16.0846 41.8461 14.0638 40.8337 11.4808C40.8761 12.7673 43.2477 15.2529 42.3569 11.8139C42.7904 11.6221 42.8737 12.5659 43.719 12.2616C43.6534 12.9363 45.1499 13.8433 45.1055 12.4897C44.4993 11.6827 43.396 10.6173 42.5224 9.26114C42.5476 9.32675 42.5719 9.39287 42.5976 9.45848Z" fill="#6D9699"/>
<path fill-rule="evenodd" clip-rule="evenodd" d="M60.183 40.3219C57.3855 27.7943 40.1137 35.9093 47.0927 45.6621C51.0071 49.7532 60.7892 47.1247 60.183 40.3219Z" fill="white"/>
<path fill-rule="evenodd" clip-rule="evenodd" d="M53.7374 38.7745C51.3421 37.9236 49.1245 41.8476 52.193 43.1341C55.1314 44.1339 56.3563 39.7455 53.7374 38.7745Z" fill="#231F20"/>
<path fill-rule="evenodd" clip-rule="evenodd" d="M91.3851 38.86C88.5876 26.3325 71.3159 34.448 78.2943 44.2002C82.2092 48.2913 91.9913 45.6629 91.3851 38.86Z" fill="white"/>
<path fill-rule="evenodd" clip-rule="evenodd" d="M84.9394 37.3127C82.5436 36.4618 80.326 40.3863 83.3946 41.6723C86.3329 42.6721 87.5583 38.2842 84.9394 37.3127Z" fill="#231F20"/>
<path fill-rule="evenodd" clip-rule="evenodd" d="M72.3284 46.5978C69.755 35.5248 66.4436 36.3691 64.173 45.2846C60.6023 58.4541 74.5279 59.2647 72.3284 46.5978Z" fill="#FFEB9E"/>
<path fill-rule="evenodd" clip-rule="evenodd" d="M91.7848 63.4197C90.465 58.2137 83.163 55.8038 77.9207 56.6794C74.1163 57.0685 71.8361 59.5496 67.7435 59.0989C47.5033 54.3725 43.9815 68.8517 50.1565 76.7487C55.8121 83.2648 63.0943 78.0609 70.3816 78.445C74.7396 78.0407 77.5277 79.6729 81.5082 79.2575C88.5609 78.0988 93.6249 70.3411 91.7848 63.4197Z" fill="#8C6446"/>
<path fill-rule="evenodd" clip-rule="evenodd" d="M87.7956 64.711C83.5607 56.5228 75.1938 60.8521 68.1427 61.5803C53.9067 58.3639 47.7176 67.0639 53.7568 74.5253C58.72 79.3749 64.4387 75.3015 70.5329 75.7053C74.0663 75.4242 76.1532 76.6455 79.5145 76.2504C84.7941 75.4459 89.3157 70.0941 87.7956 64.711Z" fill="#F88E88"/>
<path fill-rule="evenodd" clip-rule="evenodd" d="M55.0898 62.5192C53.6797 64.597 55.8242 73.993 59.778 69.5446C63.7085 60.9188 62.092 59.2169 55.0898 62.5192Z" fill="white"/>
<path fill-rule="evenodd" clip-rule="evenodd" d="M74.6691 60.1568C73.1742 60.5086 71.7323 61.4075 69.6287 61.5811C70.1148 75.5975 78.309 69.0133 77.3445 59.7309C76.4654 59.7965 75.5741 59.9318 74.6691 60.1568Z" fill="white"/>
<path fill-rule="evenodd" clip-rule="evenodd" d="M69.4499 61.7355L69.444 61.5932C67.4408 61.6861 64.8375 60.9745 62.4311 60.9618C61.2324 72.8883 70.4835 73.0377 69.4499 61.7355Z" fill="white"/>
<path fill-rule="evenodd" clip-rule="evenodd" d="M86.0464 62.1347C84.013 60.6999 77.0891 57.2124 78.1979 62.5375C78.0555 73.1745 85.3964 69.5725 86.0464 62.1347Z" fill="white"/>
<path fill-rule="evenodd" clip-rule="evenodd" d="M64.7609 76.1709C64.4676 69.0496 58.1821 70.5516 59.9259 76.9607C61.3547 77.0056 62.9318 76.4772 64.7609 76.1709Z" fill="white"/>
<path fill-rule="evenodd" clip-rule="evenodd" d="M78.6706 72.9843C76.94 69.1233 73.6075 72.9484 74.1602 75.853C77.1742 76.2426 80.3472 77.7002 78.6706 72.9843Z" fill="white"/>
<path fill-rule="evenodd" clip-rule="evenodd" d="M59.009 96.6786C62.2274 95.9352 61.0888 90.2074 58.5169 88.5459C57.343 90.2296 56.3391 96.4692 59.009 96.6786Z" fill="#F4E4A3"/>
<path fill-rule="evenodd" clip-rule="evenodd" d="M65.0822 100.994C64.2151 102.091 63.9623 104.319 63.9249 106.11C63.6055 108.661 65.7333 110.463 67.2196 107.795C67.9696 106.001 67.2913 102.467 65.0822 100.994Z" fill="#F4E4A3"/>
<path fill-rule="evenodd" clip-rule="evenodd" d="M94.7485 87.9815C93.8204 87.9189 93.8365 89.6273 93.4656 90.8699C92.4239 101.904 100.635 93.0375 94.7485 87.9815Z" fill="#F4E4A3"/>
<path fill-rule="evenodd" clip-rule="evenodd" d="M70.9572 113.432C70.0902 114.529 69.8378 116.758 69.8 118.548C69.4805 121.099 71.6098 122.901 73.0946 120.234C73.8451 118.439 73.1668 114.906 70.9572 113.432Z" fill="#F4E4A3"/>
<path fill-rule="evenodd" clip-rule="evenodd" d="M46.8302 89.9761C46.5537 89.2968 46.0364 87.7408 45.3772 90.1204C41.3518 99.5643 51.2448 98.348 46.8302 89.9761Z" fill="#F4E4A3"/>
<path fill-rule="evenodd" clip-rule="evenodd" d="M78.402 102.04C78.1254 101.359 77.6076 99.8075 76.9495 102.186C72.925 111.631 82.8181 110.411 78.402 102.04Z" fill="#F4E4A3"/>
<path fill-rule="evenodd" clip-rule="evenodd" d="M84.3997 89.3009C84.1232 88.6215 83.6059 87.0655 82.9467 89.4447C78.9213 98.8891 88.8143 97.6723 84.3997 89.3009Z" fill="#F4E4A3"/>
<path fill-rule="evenodd" clip-rule="evenodd" d="M71.8394 88.8334C70.8184 88.3484 70.1729 91.3695 70.025 92.5808C70.1911 101.324 75.0922 92.5278 71.8394 88.8334Z" fill="#F4E4A3"/>
<path fill-rule="evenodd" clip-rule="evenodd" d="M60.8948 114.087C59.8744 113.601 59.2283 116.622 59.08 117.834C59.247 126.578 64.1471 117.78 60.8948 114.087Z" fill="#F4E4A3"/>
<path fill-rule="evenodd" clip-rule="evenodd" d="M84.4362 113.664C83.4157 113.178 82.7692 116.2 82.6213 117.411C82.7879 126.154 87.6885 117.358 84.4362 113.664Z" fill="#F4E4A3"/>
<path fill-rule="evenodd" clip-rule="evenodd" d="M54.3515 101.66C53.33 101.175 52.685 104.196 52.5366 105.408C52.7031 114.151 57.6037 105.356 54.3515 101.66Z" fill="#F4E4A3"/>
<path fill-rule="evenodd" clip-rule="evenodd" d="M89.8523 101.022C88.8308 100.537 88.1858 103.558 88.0374 104.77C88.2035 113.513 93.1046 104.717 89.8523 101.022Z" fill="#F4E4A3"/>
<path fill-rule="evenodd" clip-rule="evenodd" d="M61.8471 128.531C54.7944 134.244 54.6284 137.741 54.4371 127.515C53.194 128.838 50.7109 129.52 51.0097 132.094C50.4667 139.669 52.4107 145.803 51.4902 153.088C50.4581 157.151 46.1843 158.551 44.1796 162.261C43.3499 164.679 45.9188 166.533 48.3696 164.655C46.5724 169.708 50.7296 170.615 53.1138 165.982C53.3732 176.914 61.1587 165.082 61.3439 159.764C62.3942 150.694 62.2165 137.546 61.8471 128.531Z" fill="#89BEC2"/>
<path fill-rule="evenodd" clip-rule="evenodd" d="M81.6495 127.188C80.7835 140.765 80.3454 132.903 76.5551 129.109C75.308 130.924 74.9835 131.607 75.1672 131.958C75.8082 142.442 75.7027 151.664 76.8181 158.771C77.0931 164.272 85.3303 176.768 85.4085 165.402C87.2204 169.218 92.1084 169.742 90.1027 163.905C92.117 165.64 96.1894 163.669 93.6225 160.395C91.2125 157.481 87.3476 155.875 86.3922 151.823C84.7544 142.457 90.1633 131.398 81.6495 127.188Z" fill="#89BEC2"/>
<path fill-rule="evenodd" clip-rule="evenodd" d="M62.0299 143.237L62.0839 138.093C58.4819 139.061 54.6447 139.033 51.0563 138.012C51.5918 139.305 50.2523 142.73 52.043 143.345C55.3432 144.223 58.4809 144.239 62.0299 143.237Z" fill="#F4EBC7"/>
<path fill-rule="evenodd" clip-rule="evenodd" d="M61.9343 151.938C58.5669 152.649 55.0219 152.374 51.8045 151.145C50.6003 155.468 50.8971 155.378 55.2016 156.351C60.1285 156.808 62.5611 157.779 61.9343 151.938Z" fill="#F4EBC7"/>
<path fill-rule="evenodd" clip-rule="evenodd" d="M75.6813 142.992C78.9098 143.838 82.8737 143.782 86.3632 142.503C86.4096 141.19 86.4616 139.143 86.4611 137.375C82.9116 138.525 79.0775 138.69 75.4417 137.853L75.6813 142.992Z" fill="#F4EBC7"/>
<path fill-rule="evenodd" clip-rule="evenodd" d="M86.8006 153.075C86.4554 152.272 86.2756 151.41 86.1842 150.527C83.0127 151.871 79.4799 152.273 76.0894 151.684C76.6249 152.602 75.3066 156.093 77.1992 156.157C79.0525 156.499 89.0152 155.696 86.8006 153.075Z" fill="#F4EBC7"/>
</svg>
