<svg width="133" height="127" viewBox="0 0 133 127" fill="none" xmlns="http://www.w3.org/2000/svg">
<path fill-rule="evenodd" clip-rule="evenodd" d="M111.947 69.0512C92.9744 43.1724 38.9118 35.7519 15.8017 56.2663C2.72301 67.7845 4.15584 88.6956 20.5474 93.2661C31.1793 95.6548 40.6939 89.1998 48.3557 92.291C54.9571 99.1786 23.9808 99.9331 21.9923 99.9781C13.947 99.9952 0.00117781 97.4152 0.787496 108.212C2.33692 117.706 13.0986 117.556 20.8154 117.758C30.5757 118.129 39.3963 118.451 49.1915 118.371C68.9897 117.408 84.7746 117.025 100.355 110.407C118.058 101.728 122.581 84.4516 111.947 69.0512Z" fill="#91C2AC"/>
<path fill-rule="evenodd" clip-rule="evenodd" d="M15.0377 99.824C15.6202 99.8553 16.2026 99.8805 16.7845 99.9027C14.6915 95.641 14.9373 96.2598 11.8057 99.67C12.5794 99.6867 13.8769 99.7563 15.0377 99.824Z" fill="#DBDBDB"/>
<path fill-rule="evenodd" clip-rule="evenodd" d="M9.92751 99.6938C7.03106 94.4783 7.14411 97.2673 5.43066 100.644C6.73379 100.109 8.0031 99.7988 9.92751 99.6938Z" fill="#DBDBDB"/>
<path fill-rule="evenodd" clip-rule="evenodd" d="M17.2496 92.1402C20.3767 99.0056 20.1849 97.1008 25.084 93.7572C22.5428 93.7108 19.8508 93.361 17.2496 92.1402Z" fill="#DBDBDB"/>
<path fill-rule="evenodd" clip-rule="evenodd" d="M10.4731 86.2755C11.5138 98.0092 10.9672 95.6624 16.3245 91.6657C14.0145 90.3853 12.0215 88.5179 10.4731 86.2755Z" fill="#DBDBDB"/>
<path fill-rule="evenodd" clip-rule="evenodd" d="M31.0903 93.2679C33.7929 100.198 35.0653 95.0913 37.8381 92.1439C41.4603 97.8273 41.1822 94.5079 44.2336 91.4575C39.9962 91.5489 35.5129 92.6027 31.0903 93.2679Z" fill="#DBDBDB"/>
<path fill-rule="evenodd" clip-rule="evenodd" d="M25.9932 96.573C25.7196 95.7721 23.7114 100.026 23.665 99.9464C25.1963 99.9086 26.7275 99.843 28.2557 99.742L25.9932 96.573Z" fill="#DBDBDB"/>
<path fill-rule="evenodd" clip-rule="evenodd" d="M37.0256 63.8668C25.6709 43.4488 2.54769 65.1805 12.9122 81.2642C23.9938 95.1035 43.6992 77.8726 37.0256 63.8668Z" fill="#7EA694"/>
<path fill-rule="evenodd" clip-rule="evenodd" d="M21.0917 67.3375C22.359 68.9223 24.7724 66.9565 23.4789 65.4823C22.313 64.1529 19.9612 65.9244 21.0917 67.3375Z" fill="#231F20"/>
<path fill-rule="evenodd" clip-rule="evenodd" d="M15.5254 76.5295C16.6711 77.9619 18.8524 76.1853 17.6835 74.8524C16.6297 73.6512 14.5034 75.2521 15.5254 76.5295Z" fill="#231F20"/>
<path fill-rule="evenodd" clip-rule="evenodd" d="M21.0917 67.3375C19.9612 65.9244 22.3131 64.1529 23.4789 65.4823C24.7724 66.9565 22.359 68.9223 21.0917 67.3375ZM26.6994 67.5424C28.5168 62.339 21.3597 59.5072 18.9866 63.9889C16.0513 70.2708 24.1047 72.9937 26.6994 67.5424Z" fill="white"/>
<path fill-rule="evenodd" clip-rule="evenodd" d="M15.5256 76.5295C14.5036 75.2521 16.6299 73.6512 17.6837 74.8524C18.8526 76.1853 16.6713 77.9619 15.5256 76.5295ZM14.9412 71.9933C11.1009 74.7298 13.7259 81.5502 18.7476 78.8128C23.7194 75.8174 19.2715 69.5743 14.9412 71.9933Z" fill="white"/>
<path fill-rule="evenodd" clip-rule="evenodd" d="M25.815 76.8327C24.7929 75.5553 26.9192 73.9539 27.973 75.1555C29.1419 76.4879 26.9606 78.2645 25.815 76.8327ZM29.9055 72.7158C25.4122 69.2854 20.981 75.6507 24.8242 79.073C28.4671 81.871 33.5595 75.9358 29.9055 72.7158Z" fill="white"/>
<path fill-rule="evenodd" clip-rule="evenodd" d="M25.8151 76.8326C26.9607 78.2645 29.142 76.4879 27.9731 75.1555C26.9193 73.9539 24.7931 75.5553 25.8151 76.8326Z" fill="#231F20"/>
<path fill-rule="evenodd" clip-rule="evenodd" d="M36.4117 20.5765C36.174 15.1848 28.7575 -6.8533 24.0118 3.95074C21.6297 19.133 26.1831 35.947 29.7926 48.2137C32.6639 47.2224 35.797 46.4215 39.2133 45.8017C39.3607 36.9751 37.8688 28.2251 36.4117 20.5765Z" fill="#FEB9B7"/>
<path fill-rule="evenodd" clip-rule="evenodd" d="M72.6824 7.41983C72.6647 5.06693 72.0349 1.43514 69.0042 0.544346C64.0269 -0.92836 61.2858 11.1818 60.2119 13.5887C57.2064 23.6529 56.9909 33.6807 56.5432 44.4933C58.8986 44.5579 61.2505 44.7195 63.5918 44.9779C68.7321 33.1397 73.1543 20.4708 72.6824 7.41983Z" fill="#FEB9B7"/>
<path fill-rule="evenodd" clip-rule="evenodd" d="M61.9638 16.0724C61.9103 16.347 61.8633 16.5811 61.6877 17.4775C62.6602 19.9914 63.6767 14.527 61.9638 16.0724Z" fill="#FCDECC"/>
<path fill-rule="evenodd" clip-rule="evenodd" d="M64.1339 20.4254C63.8527 20.8544 63.1896 23.4041 64.6274 22.2403C64.9081 21.8113 65.5712 19.2616 64.1339 20.4254Z" fill="#FCDECC"/>
<path fill-rule="evenodd" clip-rule="evenodd" d="M67.1894 22.8683C67.1445 23.2685 66.3794 26.441 67.8551 25.1909C68.0484 24.6887 68.6581 21.2568 67.1894 22.8683Z" fill="#FCDECC"/>
<path fill-rule="evenodd" clip-rule="evenodd" d="M68.3679 2.49535C68.1974 2.88952 67.4711 5.9283 68.9312 4.68018C69.1018 4.28602 69.828 1.24673 68.3679 2.49535Z" fill="#FCDECC"/>
<path fill-rule="evenodd" clip-rule="evenodd" d="M65.2991 5.18715C64.6682 5.73273 64.4815 9.28478 65.8482 6.65077C66.2666 6.08854 66.5719 4.16665 65.2991 5.18715Z" fill="#FCDECC"/>
<path fill-rule="evenodd" clip-rule="evenodd" d="M67.7025 7.61353C67.4178 8.17879 67.0196 11.261 68.3081 9.72165C68.676 8.58356 68.9581 6.50471 67.7025 7.61353Z" fill="#FCDECC"/>
<path fill-rule="evenodd" clip-rule="evenodd" d="M69.855 11.3389C69.6884 11.8168 69.6117 14.5079 70.7579 13.0044C70.9239 12.5265 71.0006 9.83541 69.855 11.3389Z" fill="#FCDECC"/>
<path fill-rule="evenodd" clip-rule="evenodd" d="M64.1427 10.5649C64.1281 11.0004 62.7719 13.7202 64.4339 12.8799C64.877 12.4529 65.6593 9.29604 64.1427 10.5649Z" fill="#FCDECC"/>
<path fill-rule="evenodd" clip-rule="evenodd" d="M66.306 14.7875C66.0203 15.2155 65.3334 17.7561 66.7849 16.5978C67.0701 16.1699 67.757 13.6292 66.306 14.7875Z" fill="#FCDECC"/>
<path fill-rule="evenodd" clip-rule="evenodd" d="M69.9023 17.8936C69.0242 17.456 68.4695 21.3321 69.9937 19.931C69.8862 19.608 70.6998 18.5391 69.9023 17.8936Z" fill="#FCDECC"/>
<path fill-rule="evenodd" clip-rule="evenodd" d="M28.1316 25.43C27.15 23.4132 26.4248 28.3179 28.2251 27.7132C28.6288 27.0374 28.1674 26.5762 28.1316 25.43Z" fill="#FCDECC"/>
<path fill-rule="evenodd" clip-rule="evenodd" d="M35.6684 24.4078C35.1253 22.9073 33.8227 25.2688 35.3131 26.3261C35.9288 26.1454 35.8385 25.7245 35.6684 24.4078Z" fill="#FCDECC"/>
<path fill-rule="evenodd" clip-rule="evenodd" d="M32.6027 31.1849C32.8964 30.4627 31.3868 27.2423 31.4393 30.2624C31.299 30.9079 32.0899 32.8075 32.6027 31.1849Z" fill="#FCDECC"/>
<path fill-rule="evenodd" clip-rule="evenodd" d="M30.0158 34.2634C30.0118 33.8188 29.443 30.7643 28.6405 32.6151C28.645 33.0597 29.2133 36.1141 30.0158 34.2634Z" fill="#FCDECC"/>
<path fill-rule="evenodd" clip-rule="evenodd" d="M35.6858 32.219C35.7605 32.6994 35.5283 33.9647 35.7923 34.4568C37.3588 35.7044 36.9157 30.1295 35.6858 32.219Z" fill="#FCDECC"/>
<path fill-rule="evenodd" clip-rule="evenodd" d="M34.0216 36.0616C32.6963 34.4345 32.9421 37.5818 33.3837 38.8082C34.8846 39.5587 34.0095 37.2285 34.0216 36.0616Z" fill="#FCDECC"/>
<path fill-rule="evenodd" clip-rule="evenodd" d="M36.8385 40.1606C36.9132 40.641 36.6811 41.9058 36.945 42.3979C38.5111 43.646 38.0685 38.0711 36.8385 40.1606Z" fill="#FCDECC"/>
<path fill-rule="evenodd" clip-rule="evenodd" d="M34.772 42.8519C33.4926 40.5207 33.3513 46.6351 34.9295 44.5143C34.8966 44.1666 34.8462 43.6367 34.772 42.8519Z" fill="#FCDECC"/>
<path fill-rule="evenodd" clip-rule="evenodd" d="M31.8399 46.0397C31.7626 45.7899 31.6986 45.5769 31.4487 44.7608C29.4582 43.0691 31.049 48.2745 31.8399 46.0397Z" fill="#FCDECC"/>
<path fill-rule="evenodd" clip-rule="evenodd" d="M31.2874 40.8023C30.7933 40.3455 31.3227 37.5172 29.8823 38.1784C29.2433 38.7134 30.6595 42.9412 31.2874 40.8023Z" fill="#FCDECC"/>
<path fill-rule="evenodd" clip-rule="evenodd" d="M27.4694 5.06688C26.1274 3.44327 26.4055 6.5845 26.8597 7.80991C28.3673 8.55837 27.4694 6.23273 27.4694 5.06688Z" fill="#FCDECC"/>
<path fill-rule="evenodd" clip-rule="evenodd" d="M26.0918 11.2112C24.7458 8.89314 24.7927 15.3179 26.3583 13.2598C26.3023 12.8308 26.2175 12.1782 26.0918 11.2112Z" fill="#FCDECC"/>
<path fill-rule="evenodd" clip-rule="evenodd" d="M31.8519 11.7108C31.5273 11.3474 32.0744 8.5337 30.6507 9.23068C30.0748 9.76869 31.0877 13.8416 31.8519 11.7108Z" fill="#FCDECC"/>
<path fill-rule="evenodd" clip-rule="evenodd" d="M29.4872 14.2845C27.6996 12.3243 28.8624 19.3073 29.9223 16.7091C29.8254 16.1706 29.6664 15.2838 29.4872 14.2845Z" fill="#FCDECC"/>
<path fill-rule="evenodd" clip-rule="evenodd" d="M27.1108 18.7691C26.3083 17.0446 25.4564 20.3796 26.813 21.0796C27.5983 20.9317 27.1996 19.8441 27.1108 18.7691Z" fill="#FCDECC"/>
<path fill-rule="evenodd" clip-rule="evenodd" d="M33.406 19.5239C33.2203 19.2115 33.4989 16.5291 32.1912 17.49C31.8849 17.9997 32.5647 21.5205 33.406 19.5239Z" fill="#FCDECC"/>
<path fill-rule="evenodd" clip-rule="evenodd" d="M31.5523 24.1465C31.3822 23.7716 31.2434 20.5046 30.17 22.1005C30.0604 22.6552 30.7276 26.1022 31.5523 24.1465Z" fill="#FCDECC"/>
<path fill-rule="evenodd" clip-rule="evenodd" d="M61.0708 21.3525C60.4222 21.086 59.3856 24.2818 60.8972 24.0779C61.2484 23.5686 61.8213 22.1297 61.0708 21.3525Z" fill="#FCDECC"/>
<path fill-rule="evenodd" clip-rule="evenodd" d="M62.7129 26.0589C62.5175 26.4682 61.8973 29.3571 63.3029 28.1216C63.5769 27.3883 64.067 24.8305 62.7129 26.0589Z" fill="#FCDECC"/>
<path fill-rule="evenodd" clip-rule="evenodd" d="M65.9371 28.8823C65.6535 29.3108 64.9787 31.8559 66.4232 30.6951C66.7063 30.2666 67.3811 27.721 65.9371 28.8823Z" fill="#FCDECC"/>
<path fill-rule="evenodd" clip-rule="evenodd" d="M59.4102 28.2425C59.3259 28.6231 59.1967 29.204 59.0059 30.063C58.7203 34.4523 61.9049 26.4806 59.4102 28.2425Z" fill="#FCDECC"/>
<path fill-rule="evenodd" clip-rule="evenodd" d="M61.9807 32.2158C62.0024 32.6251 60.7432 35.0047 62.2881 34.6918C62.8503 34.4062 63.4469 30.8884 61.9807 32.2158Z" fill="#FCDECC"/>
<path fill-rule="evenodd" clip-rule="evenodd" d="M65.284 34.7994C64.4068 34.3623 63.8427 38.2374 65.3694 36.8358C65.2629 36.5128 66.0829 35.4454 65.284 34.7994Z" fill="#FCDECC"/>
<path fill-rule="evenodd" clip-rule="evenodd" d="M59.1249 34.6528C58.9518 35.1302 58.8352 37.8167 60.0036 36.3163C60.1762 35.8388 60.2928 33.1523 59.1249 34.6528Z" fill="#FCDECC"/>
<path fill-rule="evenodd" clip-rule="evenodd" d="M61.8226 38.3569C61.6575 38.7516 60.9732 41.8005 62.4121 40.5473C62.5766 40.1532 63.2615 37.1038 61.8226 38.3569Z" fill="#FCDECC"/>
<path fill-rule="evenodd" clip-rule="evenodd" d="M59.5205 40.4179C58.6034 40.266 58.6645 43.9588 59.8788 42.208C59.7476 41.9264 60.5182 40.7717 59.5205 40.4179Z" fill="#FCDECC"/>
<path fill-rule="evenodd" clip-rule="evenodd" d="M129.836 67.0438C124.632 62.4929 116.65 66.5961 118.313 73.133C119.4 77.7994 126.842 77.4274 125.763 72.5758C125.673 72.0756 124.826 70.5227 124.64 71.5835C125.707 74.48 120.065 72.7676 121.109 69.8762C131.768 61.4533 131.271 85.8937 117.285 81.8597C117.916 87.2594 116.567 87.753 122.604 86.8077C131.585 85.1614 136.319 73.248 129.836 67.0438Z" fill="#F7B4B2"/>
<path fill-rule="evenodd" clip-rule="evenodd" d="M53.8326 55.0075C52.6895 55.0665 52.8742 57.049 51.9355 58.126C49.9576 59.5099 50.8322 56.1027 49.9041 55.1902C49.0496 55.277 49.3227 56.8012 48.6706 57.691C47.0904 59.1627 46.5852 57.8181 46.3409 55.708C43.7937 55.0681 46.7704 62.1454 49.574 58.1871C51.3687 61.561 54.8521 56.9324 53.8326 55.0075Z" fill="#CAE6D9"/>
<path fill-rule="evenodd" clip-rule="evenodd" d="M67.9046 58.8612C67.9752 58.7582 68.0388 58.6523 68.0968 58.5448C68.9432 61.9585 73.3417 58.2303 71.1846 56.3286C70.5088 56.1651 70.4412 60.6867 69.0881 58.2859C68.8458 57.6873 69.2425 55.4278 67.8137 55.9996C67.5997 57.1609 66.3784 60.5741 64.9223 58.0411C64.6008 57.6434 65.2478 56.3887 64.2768 56.0596C62.4129 57.5298 65.5375 62.0388 67.9046 58.8612Z" fill="#CAE6D9"/>
<path fill-rule="evenodd" clip-rule="evenodd" d="M90.019 59.5227C89.2367 59.5883 89.6077 61.7887 88.8728 61.9003C87.0534 62.082 88.0643 59.8563 87.0322 58.859C85.7164 60.7788 83.5306 64.8351 82.983 59.1704C80.5509 58.1509 82.9729 66.5839 86.7051 61.5162C88.3888 65.0521 92.009 61.0312 90.019 59.5227Z" fill="#CAE6D9"/>
<path fill-rule="evenodd" clip-rule="evenodd" d="M81.913 74.0839C82.2149 73.7423 82.7397 70.3562 81.2988 71.9223C81.2105 72.7576 80.9617 75.332 79.1342 74.734C78.1854 74.204 79.2599 72.9579 78.7531 71.6119C78.2252 70.9836 77.7599 71.4156 77.4056 72.7626C76.9201 73.9598 75.6074 76.1174 74.6459 74.2278C74.3598 73.8462 75.6043 71.8819 74.1437 72.0858C72.2819 74.4872 75.2611 78.2366 77.7644 74.3459C78.0213 76.188 81.21 76.4388 81.913 74.0839Z" fill="#CAE6D9"/>
<path fill-rule="evenodd" clip-rule="evenodd" d="M57.1834 71.2657C57.9915 71.673 58.9115 71.2909 59.4374 70.6949C60.5286 73.3905 64.708 70.2932 63.0374 68.2254C62.4631 68.235 62.4429 68.7503 62.1921 69.741C61.7918 71.188 59.9547 71.2092 60.2136 68.9744C60.4917 68.3874 59.8972 67.3023 59.2608 68.3163C59.3975 69.0304 57.9289 71.6891 57.2223 69.632C57.0118 69.3393 57.7613 68.3364 56.924 67.8434C55.8319 67.9503 55.9394 70.6368 57.1834 71.2657Z" fill="#CAE6D9"/>
<path fill-rule="evenodd" clip-rule="evenodd" d="M101.879 77.0909C103.897 77.5795 104.342 71.7356 102.574 73.8558C102.565 74.4988 103.028 75.5597 101.861 76.0664C100.335 76.2925 102.186 70.44 100.059 74.086C100.089 75.2013 98.6133 77.2726 98.2025 74.6098C98.1217 74.1041 98.9424 72.5946 97.6307 72.8439C96.2104 74.2687 98.1015 78.6999 100.398 76.2183C100.605 76.5458 101.111 77.0309 101.879 77.0909Z" fill="#CAE6D9"/>
<path fill-rule="evenodd" clip-rule="evenodd" d="M50.214 79.6282C49.2324 79.9926 50.264 81.4683 49.3263 82.6024C48.6187 83.3544 47.5462 82.9002 47.5457 81.5239C47.4281 81.0505 48.1064 79.7034 46.933 79.8336C45.9958 80.3424 46.6837 82.398 45.2594 82.825C44.6437 82.7064 44.4736 81.6147 44.8991 80.6199C43.2729 77.565 42.9509 86.8979 46.8295 82.8719C48.6323 86.1938 52.4791 81.4714 50.214 79.6282Z" fill="#CAE6D9"/>
<path fill-rule="evenodd" clip-rule="evenodd" d="M69.4617 88.074C69.5763 87.9453 69.6742 87.808 69.7595 87.6647C73.8748 90.9114 73.3408 81.411 71.5779 87.1529C70.0376 88.3193 70.7204 84.4593 69.333 85.7872C69.4274 86.6189 67.8452 88.78 67.4081 87.1201C67.3319 86.469 67.8679 85.3072 66.7051 85.6035C65.4983 87.06 67.2794 90.1457 69.4617 88.074Z" fill="#CAE6D9"/>
<path fill-rule="evenodd" clip-rule="evenodd" d="M98.6844 84.7609C97.6129 84.9633 98.3977 86.812 97.1511 87.619C96.4319 87.9703 95.8202 87.8255 95.685 86.8519C95.4296 83.0288 94.8073 86.805 93.3533 87.561C92.7855 87.5999 92.6371 87.3359 92.4862 86.4446C91.4152 82.0002 90.417 91.3932 94.877 87.7573C96.0585 90.6629 100.608 86.8418 98.6844 84.7609Z" fill="#CAE6D9"/>
<path fill-rule="evenodd" clip-rule="evenodd" d="M63.2561 96.9293C62.2214 97.3068 63.1405 99.1308 62.1069 100.223C60.3586 101.783 59.5112 99.6517 59.9518 97.5965C59.8902 97.4365 59.7782 96.8854 59.117 97.1998C58.6901 99.8677 56.372 103.058 56.6809 97.6899C54.8998 94.5048 55.083 105.457 59.1024 100.409C60.9102 104.19 65.4722 99.1666 63.2561 96.9293Z" fill="#CAE6D9"/>
<path fill-rule="evenodd" clip-rule="evenodd" d="M87.2037 97.4434C86.2695 97.4757 86.7116 98.9691 85.7719 99.7458C84.331 100.519 84.3981 99.1296 84.2174 97.4051C84.0726 97.4495 84.0171 97.0286 83.5033 97.3294C83.1152 99.6605 80.8587 102.211 80.8668 97.6418C78.6784 96.3033 80.1617 104.128 83.6613 100.106C84.8342 102.432 88.787 99.4057 87.2037 97.4434Z" fill="#CAE6D9"/>
<path fill-rule="evenodd" clip-rule="evenodd" d="M108.716 95.7716C107.773 95.3492 107.151 102.842 105.923 96.5054C104.707 95.0393 104.799 100.657 102.855 98.9421C102.261 98.4581 103.235 96.5155 102.228 95.8821C100.244 97.534 102.722 102.792 105.41 98.9204C106.936 101.795 109.946 98.4001 108.716 95.7716Z" fill="#CAE6D9"/>
<path fill-rule="evenodd" clip-rule="evenodd" d="M16.5714 107.168C15.7775 107.083 15.295 111.786 13.7926 108.945C13.8577 108.614 14.109 105.866 12.8695 107.261C13.2747 107.993 11.4402 110.887 11.4755 108.135C11.5795 107.815 11.9373 106.758 10.9037 106.985C9.50512 108.167 10.994 111.583 13.0719 109.894C14.2493 112.391 18.2894 109.147 16.5714 107.168Z" fill="#CAE6D9"/>
<path fill-rule="evenodd" clip-rule="evenodd" d="M40.8253 107.042C39.7377 107.348 40.8041 109.936 38.916 110.184C37.3944 110.044 38.3331 107.943 37.1879 107.198C36.1054 107.469 37.2601 109.45 35.6082 109.9C34.9637 109.683 34.6453 109.328 34.6433 108.118C33.6283 103.516 32.5563 113.9 37.1556 110.054C38.9044 113.165 42.8047 109.07 40.8253 107.042Z" fill="#CAE6D9"/>
<path fill-rule="evenodd" clip-rule="evenodd" d="M73.5445 109.391C72.8147 109.664 73.6636 111.191 72.316 111.516C71.2885 111.583 71.1244 111.202 71.3531 109.823C71.2748 109.672 71.2642 109.275 70.6692 109.367C69.7643 109.672 70.7212 111.503 68.8821 111.484C68.4531 111.3 67.912 111.23 68.2643 110.264C67.4492 106.979 65.708 114.646 70.5753 111.897C71.7639 113.961 75.9902 110.738 73.5445 109.391Z" fill="#CAE6D9"/>
<path fill-rule="evenodd" clip-rule="evenodd" d="M98.2481 104.383C97.1932 104.608 98.241 107.28 96.3726 107.295C95.8144 107.057 95.6055 106.342 95.7791 105.078C95.7291 104.913 95.6236 104.339 94.9478 104.654C94.5633 107.627 92.3285 110.132 92.2735 104.61C90.2516 103.279 91.3161 112.2 95.2058 107.679C96.7456 109.799 100.209 106.039 98.2481 104.383Z" fill="#CAE6D9"/>
<path fill-rule="evenodd" clip-rule="evenodd" d="M30.2075 124.152C22.9763 122.976 28.3185 128.464 31.2351 124.374C31.2291 123.951 31.1781 119.584 31.1634 118.394C31.1771 117.918 31.2417 118.193 30.1349 118.092L30.2075 124.152Z" fill="#55334C"/>
<path fill-rule="evenodd" clip-rule="evenodd" d="M36.8469 124.458C29.6187 123.282 34.9523 128.766 37.8745 124.681C37.8684 124.262 37.8159 119.73 37.8013 118.549C37.8175 118.097 37.8699 118.36 36.7732 118.273L36.8469 124.458Z" fill="#55334C"/>
<path fill-rule="evenodd" clip-rule="evenodd" d="M43.2027 124.385C35.9629 123.208 41.3243 128.689 44.2303 124.604C44.2243 124.182 44.1738 119.831 44.1597 118.645C44.1733 118.17 44.2364 118.444 43.1311 118.372L43.2027 124.385Z" fill="#55334C"/>
<path fill-rule="evenodd" clip-rule="evenodd" d="M50.5764 124.295C43.3421 123.119 48.6909 128.602 51.604 124.516C51.5979 124.048 51.5313 118.405 51.5303 118.334C49.6241 117.275 50.8702 123.761 50.5764 124.295Z" fill="#55334C"/>
<path fill-rule="evenodd" clip-rule="evenodd" d="M71.8936 122.984C64.521 122.586 70.5698 127.422 72.9383 123.102C72.8853 122.642 72.2227 116.843 72.2151 116.777C71.8754 116.815 71.5373 116.855 71.1971 116.894L71.8936 122.984Z" fill="#55334C"/>
<path fill-rule="evenodd" clip-rule="evenodd" d="M78.5295 122.613C71.1504 122.219 77.2158 127.045 79.5743 122.731C79.5198 122.259 78.8127 116.069 78.8051 116.004C76.7656 115.083 78.7874 122.081 78.5295 122.613Z" fill="#55334C"/>
<path fill-rule="evenodd" clip-rule="evenodd" d="M84.4799 118.443C84.6015 119.628 84.7232 120.808 84.8458 121.891C77.8663 121.303 82.9683 126.46 85.893 122.039C85.6765 120.16 85.4131 117.412 85.1527 115.066C83.5084 114.879 84.4738 116.955 84.4799 118.443Z" fill="#55334C"/>
<path fill-rule="evenodd" clip-rule="evenodd" d="M91.8028 117.315C91.9234 118.61 92.0486 119.936 92.1728 121.053C85.1918 120.465 90.2948 125.623 93.2195 121.2C92.9823 119.138 92.7153 115.855 92.4433 113.397C90.752 113.383 91.8326 115.641 91.8028 117.315Z" fill="#55334C"/>
</svg>
