<svg width="130" height="123" viewBox="0 0 130 123" fill="none" xmlns="http://www.w3.org/2000/svg">
<path fill-rule="evenodd" clip-rule="evenodd" d="M109.171 66.9774C90.6446 41.9217 39.488 34.8887 16.4734 53.7154C3.12821 64.6023 3.60817 85.1328 19.497 90.3822C29.7484 93.1772 39.1156 86.6681 47.1615 89.5378C53.9809 96.2447 23.687 97.0497 21.7676 97.0866C14.0125 97.1466 0.160083 94.5096 0.943877 105.105C2.37318 114.029 12.3449 114.238 19.7297 114.372C29.3638 114.739 38.3474 115.079 48.0709 114.996C67.1707 114.058 82.6013 113.733 97.9203 107.225C115.148 98.7601 119.506 81.9447 109.171 66.9774Z" fill="#798E93"/>
<path fill-rule="evenodd" clip-rule="evenodd" d="M14.8182 96.9383C15.3855 96.9691 15.9523 96.9933 16.5191 97.015C14.4619 92.8306 14.7233 93.4897 11.6714 96.7884C12.425 96.8041 13.6882 96.8727 14.8182 96.9383Z" fill="#DBDBDB"/>
<path fill-rule="evenodd" clip-rule="evenodd" d="M9.84272 96.8117C7.02298 91.7334 7.13301 94.4492 5.46448 97.7368C6.68988 97.2275 8.00361 96.906 9.84272 96.8117Z" fill="#DBDBDB"/>
<path fill-rule="evenodd" clip-rule="evenodd" d="M16.9718 89.4571C19.9985 96.1686 19.8869 94.2416 24.5993 91.0313C22.1757 90.9879 19.4928 90.6452 16.9718 89.4571Z" fill="#DBDBDB"/>
<path fill-rule="evenodd" clip-rule="evenodd" d="M10.374 83.7472C11.3723 95.2493 10.912 92.8197 16.071 88.9951C13.8221 87.7485 11.8816 85.9305 10.374 83.7472Z" fill="#DBDBDB"/>
<path fill-rule="evenodd" clip-rule="evenodd" d="M30.4473 90.5552C33.0788 97.303 34.3173 92.3307 37.017 89.4605C40.5594 95.044 40.3036 91.6943 43.2434 88.7923C39.0676 88.8882 34.8387 89.893 30.4473 90.5552Z" fill="#DBDBDB"/>
<path fill-rule="evenodd" clip-rule="evenodd" d="M25.4846 93.7731C25.2187 92.9934 23.263 97.1354 23.2175 97.0572C24.7089 97.0209 26.1998 96.9573 27.6876 96.8584L25.4846 93.7731Z" fill="#DBDBDB"/>
<path fill-rule="evenodd" clip-rule="evenodd" d="M36.2262 61.9294C25.3202 42.267 3.03281 62.7597 12.4994 78.4855C23.0142 92.6806 42.8281 75.7223 36.2262 61.9294Z" fill="#F1D7B9"/>
<path fill-rule="evenodd" clip-rule="evenodd" d="M20.7124 65.3091C21.9464 66.8514 24.2963 64.9381 23.0371 63.5027C21.902 62.2082 19.6117 63.9327 20.7124 65.3091Z" fill="#231F20"/>
<path fill-rule="evenodd" clip-rule="evenodd" d="M15.2933 74.2585C16.4087 75.653 18.5324 73.9234 17.3944 72.6258C16.3683 71.4554 14.298 73.0144 15.2933 74.2585Z" fill="#231F20"/>
<path fill-rule="evenodd" clip-rule="evenodd" d="M20.7124 65.309C19.6117 63.9327 21.902 62.2082 23.037 63.5027C24.2963 64.9381 21.9464 66.8514 20.7124 65.309ZM26.1722 65.5084C27.9422 60.4417 20.9738 57.6856 18.6628 62.0487C15.8052 68.1646 23.6457 70.8158 26.1722 65.5084Z" fill="white"/>
<path fill-rule="evenodd" clip-rule="evenodd" d="M15.2933 74.2585C14.2981 73.0144 16.3683 71.4554 17.3944 72.6258C18.5325 73.9234 16.4087 75.653 15.2933 74.2585ZM14.7245 69.8414C10.9852 72.5057 13.5405 79.147 18.43 76.4812C23.259 73.5752 18.9428 67.4804 14.7245 69.8414Z" fill="white"/>
<path fill-rule="evenodd" clip-rule="evenodd" d="M25.3114 74.5533C24.3161 73.3092 26.3864 71.7502 27.4129 72.9206C28.5505 74.2182 26.4268 75.9478 25.3114 74.5533ZM29.2944 70.5455C24.9187 67.2049 20.6046 73.4031 24.3464 76.7346C27.8949 79.4438 32.844 73.7145 29.2944 70.5455Z" fill="white"/>
<path fill-rule="evenodd" clip-rule="evenodd" d="M25.3114 74.5533C26.4267 75.9477 28.5505 74.2182 27.4129 72.9206C26.3864 71.7502 24.3161 73.3092 25.3114 74.5533Z" fill="#231F20"/>
<path fill-rule="evenodd" clip-rule="evenodd" d="M35.6286 19.7811C35.354 14.6529 28.5477 -6.18505 23.7308 3.09734C20.8202 17.674 26.0938 36.1161 29.1836 46.6895C31.9796 45.7245 35.0295 44.9443 38.3564 44.3412C38.4998 35.7472 37.0473 27.2279 35.6286 19.7811Z" fill="#F2B594"/>
<path fill-rule="evenodd" clip-rule="evenodd" d="M70.9423 6.97144C68.4022 -8.49904 60.3411 5.66225 58.9103 12.6205C55.8766 22.5418 55.6722 32.4041 55.2291 43.0674C57.5224 43.1304 59.8122 43.2874 62.0914 43.5392C67.0965 32.0135 71.4016 19.6782 70.9423 6.97144Z" fill="#F2B594"/>
<path fill-rule="evenodd" clip-rule="evenodd" d="M60.5063 15.396C60.4543 15.6635 60.4089 15.8911 60.2378 16.7638C61.1846 19.2115 62.1738 13.8915 60.5063 15.396Z" fill="#FCDECC"/>
<path fill-rule="evenodd" clip-rule="evenodd" d="M62.6192 19.634C61.8082 20.6419 62.5698 23.6488 63.5817 19.8989C63.7099 19.4689 63.0406 19.0339 62.6192 19.634Z" fill="#FCDECC"/>
<path fill-rule="evenodd" clip-rule="evenodd" d="M65.5942 22.0126C65.7522 22.4789 64.9048 23.7694 65.5211 24.5532C66.2645 24.5396 66.1121 24.7596 66.3881 23.5251C66.6576 22.9503 66.693 20.6332 65.5942 22.0126Z" fill="#FCDECC"/>
<path fill-rule="evenodd" clip-rule="evenodd" d="M66.7418 2.17707C66.7711 2.57831 65.6502 4.88982 67.1229 4.57741C67.6604 4.29427 68.1055 0.87445 66.7418 2.17707Z" fill="#FCDECC"/>
<path fill-rule="evenodd" clip-rule="evenodd" d="M63.7538 4.79791C63.1396 5.32885 62.9574 8.78703 64.2883 6.22267C64.6955 5.67558 64.9933 3.80416 63.7538 4.79791Z" fill="#FCDECC"/>
<path fill-rule="evenodd" clip-rule="evenodd" d="M66.0937 7.16024C65.8166 7.71036 65.429 10.7113 66.6832 9.21234C67.0415 8.10504 67.3166 6.0807 66.0937 7.16024Z" fill="#FCDECC"/>
<path fill-rule="evenodd" clip-rule="evenodd" d="M68.1894 10.7872C68.0274 11.2526 67.9527 13.873 69.0686 12.4088C69.2306 11.9435 69.3048 9.32312 68.1894 10.7872Z" fill="#FCDECC"/>
<path fill-rule="evenodd" clip-rule="evenodd" d="M62.6279 10.0336C62.8111 10.5515 61.2283 12.2624 62.6087 12.5289C63.0569 12.223 62.859 12.4209 63.2067 11.6487C63.6468 11.1404 63.7316 8.94147 62.6279 10.0336Z" fill="#FCDECC"/>
<path fill-rule="evenodd" clip-rule="evenodd" d="M64.7338 14.1449C64.5103 14.3937 63.7699 17.0726 65.2002 15.9078C65.4233 15.659 66.1636 12.9801 64.7338 14.1449Z" fill="#FCDECC"/>
<path fill-rule="evenodd" clip-rule="evenodd" d="M68.2354 17.1689C67.3805 16.7429 66.8405 20.517 68.3243 19.1529C68.2198 18.8384 69.0122 17.7977 68.2354 17.1689Z" fill="#FCDECC"/>
<path fill-rule="evenodd" clip-rule="evenodd" d="M27.5665 24.507C26.6111 22.5432 25.905 27.3181 27.6573 26.7302C28.0505 26.0715 27.6018 25.6229 27.5665 24.507Z" fill="#FCDECC"/>
<path fill-rule="evenodd" clip-rule="evenodd" d="M34.9045 23.5114C34.3761 22.0503 33.1073 24.3497 34.5588 25.3792C35.1578 25.2031 35.07 24.7938 34.9045 23.5114Z" fill="#FCDECC"/>
<path fill-rule="evenodd" clip-rule="evenodd" d="M31.9197 30.1099C32.2054 29.4068 30.7357 26.2711 30.7867 29.2115C30.6509 29.8399 31.4206 31.6896 31.9197 30.1099Z" fill="#FCDECC"/>
<path fill-rule="evenodd" clip-rule="evenodd" d="M29.4013 33.1073C29.3972 32.6742 28.8441 29.7006 28.0623 31.5023C28.0663 31.9354 28.62 34.909 29.4013 33.1073Z" fill="#FCDECC"/>
<path fill-rule="evenodd" clip-rule="evenodd" d="M34.9215 31.1168C34.9947 31.5841 34.7681 32.8161 35.0255 33.2951C36.5502 34.5104 36.1187 29.0824 34.9215 31.1168Z" fill="#FCDECC"/>
<path fill-rule="evenodd" clip-rule="evenodd" d="M33.3012 34.8579C32.0107 33.2737 32.2499 36.3377 32.6804 37.5318C34.1415 38.2626 33.2896 35.9935 33.3012 34.8579Z" fill="#FCDECC"/>
<path fill-rule="evenodd" clip-rule="evenodd" d="M36.0438 38.8487C36.1169 39.316 35.8903 40.548 36.1477 41.027C37.6729 42.2423 37.2414 36.8143 36.0438 38.8487Z" fill="#FCDECC"/>
<path fill-rule="evenodd" clip-rule="evenodd" d="M34.032 41.469C32.7864 39.1994 32.6486 45.1528 34.1859 43.0881C34.1536 42.7489 34.1047 42.2331 34.032 41.469Z" fill="#FCDECC"/>
<path fill-rule="evenodd" clip-rule="evenodd" d="M31.1772 44.5729C31.102 44.3296 31.0399 44.1217 30.7967 43.3278C28.8586 41.6805 30.407 46.7486 31.1772 44.5729Z" fill="#FCDECC"/>
<path fill-rule="evenodd" clip-rule="evenodd" d="M30.6392 39.4736C30.3304 39.036 30.2925 35.6036 29.1812 37.2272C29.0525 37.7501 29.8327 41.4152 30.6392 39.4736Z" fill="#FCDECC"/>
<path fill-rule="evenodd" clip-rule="evenodd" d="M26.9221 4.68062C25.6155 3.09991 25.886 6.15837 26.3286 7.35148C27.7963 8.08026 26.9221 5.81568 26.9221 4.68062Z" fill="#FCDECC"/>
<path fill-rule="evenodd" clip-rule="evenodd" d="M25.5808 10.663C24.2701 8.40604 24.316 14.6613 25.8402 12.6576C25.7857 12.2402 25.7034 11.6043 25.5808 10.663Z" fill="#FCDECC"/>
<path fill-rule="evenodd" clip-rule="evenodd" d="M31.1887 11.1495C31.0499 10.7841 31.0489 7.47175 29.9244 9.04337C29.8336 9.56523 30.2656 13.0926 31.1887 11.1495Z" fill="#FCDECC"/>
<path fill-rule="evenodd" clip-rule="evenodd" d="M28.8863 13.6552C27.1461 11.747 28.2777 18.5452 29.3103 16.0157C29.2159 15.4913 29.061 14.6283 28.8863 13.6552Z" fill="#FCDECC"/>
<path fill-rule="evenodd" clip-rule="evenodd" d="M26.5728 18.0216C25.7915 16.3424 24.9618 19.5897 26.2826 20.2715C27.0477 20.1272 26.6591 19.0683 26.5728 18.0216Z" fill="#FCDECC"/>
<path fill-rule="evenodd" clip-rule="evenodd" d="M32.7018 18.7564C32.5212 18.4521 32.7922 15.8403 31.5188 16.7765C31.2206 17.2726 31.8827 20.7005 32.7018 18.7564Z" fill="#FCDECC"/>
<path fill-rule="evenodd" clip-rule="evenodd" d="M30.897 23.257C30.7315 22.8916 30.5962 19.7116 29.551 21.265C29.4445 21.805 30.0946 25.1608 30.897 23.257Z" fill="#FCDECC"/>
<path fill-rule="evenodd" clip-rule="evenodd" d="M59.6369 20.5369C59.0055 20.277 57.9961 23.3889 59.4683 23.1901C59.8095 22.694 60.3677 21.2934 59.6369 20.5369Z" fill="#FCDECC"/>
<path fill-rule="evenodd" clip-rule="evenodd" d="M61.236 25.1191C61.0457 25.5173 60.4416 28.33 61.8103 27.1273C62.0773 26.4131 62.5537 23.9229 61.236 25.1191Z" fill="#FCDECC"/>
<path fill-rule="evenodd" clip-rule="evenodd" d="M64.3752 27.8678C64.1531 28.1171 63.4253 30.8001 64.8481 29.6327C65.0701 29.3839 65.7979 26.7004 64.3752 27.8678Z" fill="#FCDECC"/>
<path fill-rule="evenodd" clip-rule="evenodd" d="M58.02 27.2451C57.9377 27.6156 57.8126 28.1808 57.6269 29.0176C57.3483 33.2909 60.4491 25.5296 58.02 27.2451Z" fill="#FCDECC"/>
<path fill-rule="evenodd" clip-rule="evenodd" d="M60.5231 31.1136C60.5443 31.5118 59.3179 33.8289 60.8224 33.524C61.3695 33.2465 61.9509 29.8211 60.5231 31.1136Z" fill="#FCDECC"/>
<path fill-rule="evenodd" clip-rule="evenodd" d="M63.7389 33.629C62.885 33.2035 62.3353 36.9761 63.8222 35.6119C63.7182 35.2975 64.5172 34.2578 63.7389 33.629Z" fill="#FCDECC"/>
<path fill-rule="evenodd" clip-rule="evenodd" d="M57.7425 33.486C57.5735 33.9509 57.4604 36.5667 58.5975 35.1056C58.7661 34.6408 58.8791 32.0254 57.7425 33.486Z" fill="#FCDECC"/>
<path fill-rule="evenodd" clip-rule="evenodd" d="M60.369 37.0926C60.2086 37.4767 59.5419 40.4458 60.9429 39.2254C61.1034 38.8414 61.7696 35.8727 60.369 37.0926Z" fill="#FCDECC"/>
<path fill-rule="evenodd" clip-rule="evenodd" d="M58.1274 39.0993C57.2345 38.9514 57.2936 42.5469 58.4761 40.8425C58.3484 40.568 59.0989 39.444 58.1274 39.0993Z" fill="#FCDECC"/>
<path fill-rule="evenodd" clip-rule="evenodd" d="M126.588 65.0227C121.28 60.3411 113.058 65.1125 115.638 71.6251C117.331 75.9372 124.281 74.4055 122.432 69.9233C122.336 69.5866 121.62 68.4652 121.529 69.4428C121.721 69.7946 121.936 69.7719 121.615 70.4663C120.643 71.4202 118.517 70.8085 118.055 68.8644C117.863 67.8227 118.204 67.0642 119.386 66.4505C124.854 64.1914 126.191 70.373 124.935 74.1193C123.688 78.4915 118.603 80.7273 114.369 79.4479C115.128 84.2996 113.306 85.1747 119.117 84.3601C128.129 83.004 133.007 71.2123 126.588 65.0227Z" fill="#E3A786"/>
<path fill-rule="evenodd" clip-rule="evenodd" d="M52.5896 53.3043C51.4783 53.3618 51.6549 55.2938 50.7424 56.34C48.817 57.6876 49.6684 54.3702 48.765 53.4819C47.7158 53.6929 48.3971 55.5083 47.1535 56.3067C45.6697 57.1163 45.595 55.6955 45.2957 53.9856C42.7919 53.4098 45.7606 60.2388 48.443 56.3996C50.1863 59.6912 53.5879 55.1656 52.5896 53.3043Z" fill="#B4D4DB"/>
<path fill-rule="evenodd" clip-rule="evenodd" d="M66.2906 57.0559C66.3592 56.956 66.4213 56.8531 66.4778 56.7481C67.3015 60.072 71.5844 56.4417 69.4838 54.5905C68.8262 54.431 68.7606 58.8335 67.4428 56.4962C67.1723 55.7917 67.6709 54.4033 66.4566 54.1252C65.6537 54.6849 65.745 58.2511 63.6687 56.795C62.9202 56.2535 63.8181 54.9206 62.7587 54.3286C60.9161 55.7866 64.0689 60.1386 66.2906 57.0559Z" fill="#B4D4DB"/>
<path fill-rule="evenodd" clip-rule="evenodd" d="M87.8217 57.7001C87.0602 57.7642 87.421 59.9062 86.7059 60.0152C84.9344 60.1918 85.9185 58.0252 84.9132 57.0541C83.6323 58.9235 81.5045 62.8728 80.971 57.3569C78.603 56.3647 80.9619 64.5751 84.5952 59.6412C86.0972 62.9712 89.8032 59.3066 87.8217 57.7001Z" fill="#B4D4DB"/>
<path fill-rule="evenodd" clip-rule="evenodd" d="M79.9294 71.877C80.2231 71.5449 80.7344 68.2482 79.3313 69.7729C79.2455 70.586 79.0033 73.0918 77.2237 72.5104C76.2996 71.9941 77.3463 70.7808 76.8527 69.4701C76.339 68.8594 75.8857 69.2793 75.541 70.591C75.1777 71.9598 73.1175 74.133 72.8455 71.5273C72.8455 71.0453 73.5884 69.7512 72.365 69.9319C70.5526 72.2697 73.4526 75.9201 75.8903 72.1324C76.1714 73.9135 79.1597 74.2011 79.9294 71.877Z" fill="#B4D4DB"/>
<path fill-rule="evenodd" clip-rule="evenodd" d="M55.8522 69.1332C56.639 69.5294 57.5348 69.1579 58.0466 68.5775C61.1692 72.9497 63.2147 63.3095 60.8719 67.1245C60.7901 68.0461 59.5506 69.6177 58.838 67.8503C58.7628 67.6529 59.1024 64.8619 57.8745 66.262C58.0077 66.9569 56.5779 69.545 55.89 67.5429C55.6851 67.2572 56.4149 66.2816 55.5998 65.8012C54.5359 65.9051 54.6409 68.521 55.8522 69.1332Z" fill="#B4D4DB"/>
<path fill-rule="evenodd" clip-rule="evenodd" d="M99.3685 74.8051C101.334 75.2805 101.767 69.5906 100.046 71.6548C100.038 72.2791 100.487 73.3289 99.3432 73.8073C97.7893 74.0274 99.806 69.0233 97.7393 71.4302C97.6283 72.5168 96.4246 75.2967 95.7891 72.3891C95.7104 71.8965 96.5094 70.4269 95.2325 70.6701C93.834 72.0293 95.6892 76.3308 97.9276 73.9547C98.1178 74.2484 98.5423 74.6815 99.3685 74.8051Z" fill="#B4D4DB"/>
<path fill-rule="evenodd" clip-rule="evenodd" d="M49.0666 77.2754C48.4025 77.4964 48.5301 82.6549 46.5371 79.6535C46.5093 79.227 46.6623 75.7769 45.399 78.2969C45.2314 78.6481 45.0381 81.1015 43.8476 80.141C43.0976 79.5036 44.4118 78.4957 43.568 77.614C41.3584 78.1545 43.519 83.579 45.772 80.4333C47.5268 83.6679 51.2717 79.0701 49.0666 77.2754Z" fill="#B4D4DB"/>
<path fill-rule="evenodd" clip-rule="evenodd" d="M67.8064 85.4984C67.9179 85.3732 68.0138 85.239 68.0966 85.1002C70.3122 87.7231 72.7908 81.9817 70.1522 83.0915C70.5449 83.9141 69.5784 85.7169 68.629 84.0701C68.8324 83.4382 68.0708 82.1951 67.6065 83.576C67.6676 84.3568 66.1116 86.053 65.8073 84.5697C65.7331 83.9353 66.2544 82.8043 65.1229 83.093C63.9641 84.4799 65.6735 87.5268 67.8064 85.4984Z" fill="#B4D4DB"/>
<path fill-rule="evenodd" clip-rule="evenodd" d="M96.2586 82.2726C95.1114 82.5259 96.0799 84.8581 94.2736 85.2493C92.6883 85.9952 94.0813 81.5842 92.3623 83.0508C92.3265 83.6842 91.4084 85.6964 90.4657 84.7466C89.0353 78.6276 88.1996 88.926 92.5516 85.1897C93.7023 88.019 98.1315 84.2989 96.2586 82.2726Z" fill="#B4D4DB"/>
<path fill-rule="evenodd" clip-rule="evenodd" d="M61.7646 94.1201C60.7572 94.488 61.6515 96.2636 60.6457 97.327C58.9438 98.8456 58.1187 96.7703 58.5477 94.7697C58.4876 94.6137 58.3786 94.0772 57.7346 94.3836C57.405 96.7143 55.0713 100.23 55.363 94.8605C53.5971 91.7965 53.8525 102.429 57.7205 97.5081C59.4803 101.189 63.9222 96.2979 61.7646 94.1201Z" fill="#B4D4DB"/>
<path fill-rule="evenodd" clip-rule="evenodd" d="M85.0804 94.6204C84.0095 95.5278 82.6912 99.847 82.1724 94.583C82.0321 94.6264 81.9781 94.2166 81.4779 94.5093C81.0999 96.779 78.903 99.2621 78.9105 94.8137C76.7802 93.5105 78.2241 101.129 81.6319 97.213C82.7735 99.4781 86.6223 96.5312 85.0804 94.6204Z" fill="#B4D4DB"/>
<path fill-rule="evenodd" clip-rule="evenodd" d="M106.025 92.9929C105.07 92.6795 104.504 99.8427 103.306 93.7071C102.122 92.2798 102.212 97.7487 100.319 96.0802C99.7407 95.6093 100.688 93.7172 99.7089 93.1004C97.7769 94.7084 100.189 99.8285 102.807 96.0585C104.293 98.857 107.222 95.5517 106.025 92.9929Z" fill="#B4D4DB"/>
<path fill-rule="evenodd" clip-rule="evenodd" d="M16.3113 104.088C15.5639 104.116 14.8159 108.833 13.5744 105.588C13.7984 105.309 13.7843 102.837 12.7073 104.179C13.102 104.892 11.3158 107.71 11.3497 105.03C11.4511 104.718 11.7998 103.69 10.793 103.91C9.50555 105.059 10.7501 108.37 12.9046 106.743C14.0503 109.174 17.9839 106.015 16.3113 104.088Z" fill="#B4D4DB"/>
<path fill-rule="evenodd" clip-rule="evenodd" d="M39.9257 103.966C38.8668 104.264 39.905 106.784 38.0669 107.025C36.5851 106.889 37.4991 104.844 36.3847 104.118C35.3304 104.381 36.4544 106.31 34.8464 106.749C34.1943 106.704 33.7573 105.61 33.9324 104.48C31.9651 101.996 32.9947 110.478 36.3529 106.899C38.0553 109.927 41.8526 105.94 39.9257 103.966Z" fill="#B4D4DB"/>
<path fill-rule="evenodd" clip-rule="evenodd" d="M71.7816 106.253C71.071 106.518 71.8977 108.006 70.5855 108.323C69.5847 108.387 69.4252 108.016 69.6478 106.673C69.5721 106.527 69.5615 106.14 68.9821 106.23C68.1014 106.527 69.033 108.309 67.2419 108.291C66.8245 108.112 66.2981 108.044 66.6408 107.103C65.8469 103.904 64.1516 111.37 68.8907 108.693C70.0475 110.702 74.1628 107.564 71.7816 106.253Z" fill="#B4D4DB"/>
<path fill-rule="evenodd" clip-rule="evenodd" d="M95.8336 101.377C94.8065 101.596 95.8265 104.198 94.0076 104.211C93.4641 103.98 93.2607 103.284 93.4302 102.053C93.3818 101.893 93.2788 101.334 92.6207 101.64C92.2397 104.635 90.0286 106.847 90.017 101.598C88.0083 100.358 89.1464 108.981 92.872 104.586C94.371 106.651 97.7429 102.989 95.8336 101.377Z" fill="#B4D4DB"/>
<path fill-rule="evenodd" clip-rule="evenodd" d="M29.5878 120.625C22.5473 119.48 27.7487 124.822 30.5881 120.842C30.5825 120.429 30.5331 116.177 30.5184 115.018C30.5321 114.556 30.5947 114.823 29.5171 114.725L29.5878 120.625Z" fill="#4E676E"/>
<path fill-rule="evenodd" clip-rule="evenodd" d="M36.0522 120.923C28.9976 119.783 34.2328 125.116 37.0525 121.137C37.047 120.716 36.9965 116.373 36.9819 115.19C36.9925 114.72 37.0687 114.988 35.9805 114.901L36.0522 120.923Z" fill="#4E676E"/>
<path fill-rule="evenodd" clip-rule="evenodd" d="M42.2405 120.851C35.1914 119.706 40.4115 125.042 43.2408 121.064C43.2353 120.653 43.1863 116.418 43.1717 115.263C43.1853 114.801 43.2469 115.066 42.1709 114.996L42.2405 120.851Z" fill="#4E676E"/>
<path fill-rule="evenodd" clip-rule="evenodd" d="M49.4193 120.765C42.3581 119.625 47.6104 124.956 50.4196 120.976C50.414 120.502 50.3489 115.035 50.3479 114.961C48.4921 113.927 49.7054 120.249 49.4193 120.765Z" fill="#4E676E"/>
<path fill-rule="evenodd" clip-rule="evenodd" d="M70.1744 119.488C62.9804 119.107 68.9101 123.804 71.1914 119.601C71.1374 119.135 70.4954 113.514 70.4873 113.444C70.1567 113.482 69.8277 113.52 69.4961 113.558L70.1744 119.488Z" fill="#4E676E"/>
<path fill-rule="evenodd" clip-rule="evenodd" d="M76.6354 119.126C69.4511 118.742 75.356 123.442 77.6524 119.241C77.5994 118.781 76.9105 112.755 76.9034 112.692C74.918 111.795 76.8868 118.609 76.6354 119.126Z" fill="#4E676E"/>
<path fill-rule="evenodd" clip-rule="evenodd" d="M82.4286 115.067C82.5472 116.22 82.6658 117.368 82.7849 118.423C75.9892 117.85 80.9569 122.872 83.8044 118.567C83.5939 116.739 83.337 114.062 83.0837 111.777C81.4828 111.596 82.423 113.617 82.4286 115.067Z" fill="#4E676E"/>
<path fill-rule="evenodd" clip-rule="evenodd" d="M89.5585 113.968C89.6761 115.229 89.7977 116.521 89.9183 117.607C83.1221 117.034 88.0898 122.056 90.9378 117.751C90.7072 115.743 90.4467 112.547 90.1818 110.153C88.5354 110.14 89.5872 112.338 89.5585 113.968Z" fill="#4E676E"/>
</svg>
