<svg width="142" height="128" viewBox="0 0 142 128" fill="none" xmlns="http://www.w3.org/2000/svg">
<path fill-rule="evenodd" clip-rule="evenodd" d="M123.878 74.5102C121.601 58.3462 107.957 53.7495 97.1684 50.8419C97.2714 50.4175 98.0829 47.1182 98.9803 43.4562C100.033 39.1673 101.172 34.524 101.413 33.5409C114.57 33.8301 118.507 16.4872 105.221 12.2084C92.0382 9.0853 85.8516 26.3076 96.4664 31.8401C96.3528 32.3003 92.7291 47.2586 92.1992 49.4388C92.5545 50.0637 90.1466 49.1688 88.3579 48.9548C83.206 47.3126 75.95 48.595 74.7614 46.5414C74.666 40.3079 74.3652 34.2046 74.3047 27.7212C85.3469 26.1895 89.488 12.5612 82.1159 5.09214C70.9277 -5.67153 53.9477 5.80932 58.7055 19.4361C59.5004 21.514 60.5693 22.8131 62.5109 24.4669C64.0366 26.4746 67.465 26.0017 68.1277 28.0599C67.9041 32.1979 67.8652 36.4267 67.8248 40.7692C67.2752 42.796 69.1774 47.8561 66.2214 47.0794C59.2642 47.204 53.1992 48.0242 47.2297 49.5282C47.2327 49.5418 43.6544 34.7976 43.0256 32.207C50.4613 27.0162 50.9221 15.1891 39.0541 11.9903C27.7413 10.2496 22.0776 22.8413 29.0727 30.2139C31.2792 32.6829 35.6948 33.6595 37.9594 33.4147C38.0129 33.6287 38.2203 34.4811 38.5393 35.7767C39.6618 40.3467 41.9854 49.8083 42.2559 50.911C33.5474 54.3157 21.1217 60.3206 18.0996 72.6852C12.2194 107.15 60.4992 111.821 84.4703 109.678C108.421 107.852 125.991 97.968 123.878 74.5102Z" fill="#7DB5BA"/>
<path fill-rule="evenodd" clip-rule="evenodd" d="M123.878 74.5102C121.601 58.3462 107.957 53.7495 97.1684 50.8419C97.2714 50.4175 98.0829 47.1182 98.9803 43.4562C100.033 39.1673 101.172 34.524 101.413 33.5409C114.57 33.8301 118.507 16.4872 105.221 12.2084C92.0382 9.0853 85.8516 26.3076 96.4664 31.8401C96.3528 32.3003 92.7291 47.2586 92.1992 49.4388C92.5545 50.0637 90.1466 49.1688 88.3579 48.9548C83.206 47.3126 75.95 48.595 74.7614 46.5414C74.666 40.3079 74.3652 34.2046 74.3047 27.7212C85.3469 26.1895 89.488 12.5612 82.1159 5.09214C70.9277 -5.67153 53.9477 5.80932 58.7055 19.4361C59.5004 21.514 60.5693 22.8131 62.5109 24.4669C64.0366 26.4746 67.465 26.0017 68.1277 28.0599C67.9041 32.1979 67.8652 36.4267 67.8248 40.7692C67.2752 42.796 69.1774 47.8561 66.2214 47.0794C59.2642 47.204 53.1992 48.0242 47.2297 49.5282C47.2327 49.5418 43.6544 34.7976 43.0256 32.207C50.4613 27.0162 50.9221 15.1891 39.0541 11.9903C27.7413 10.2496 22.0776 22.8413 29.0727 30.2139C31.2792 32.6829 35.6948 33.6595 37.9594 33.4147C38.0129 33.6287 38.2203 34.4811 38.5393 35.7767C39.6618 40.3467 41.9854 49.8083 42.2559 50.911C33.5474 54.3157 21.1217 60.3206 18.0996 72.6852C12.2194 107.15 60.4992 111.821 84.4703 109.678C108.421 107.852 125.991 97.968 123.878 74.5102Z" fill="#7DC2C7"/>
<path fill-rule="evenodd" clip-rule="evenodd" d="M100.352 67.6415C89.7854 53.2082 80.5847 65.3694 68.1722 63.9345C64.0751 63.4576 61.1549 60.9028 57.023 59.7203C37.308 56.1057 31.6478 80.5164 45.2565 90.6628C56.0121 98.7884 64.335 92.1945 72.0443 93.0717C79.4885 93.6955 85.4803 95.8253 92.0888 93.9494C102.941 90.5861 105.691 75.9817 100.352 67.6415Z" fill="#B9E8ED"/>
<path fill-rule="evenodd" clip-rule="evenodd" d="M97.3099 69.4804C88.2602 58.2347 79.7429 67.1532 69.5914 66.5436C66.8994 66.6334 64.2149 65.3676 61.4527 64.1871C43.3371 56.9806 33.6928 78.5261 47.9253 88.0855C57.0664 94.311 64.603 89.4437 71.6153 89.9211C78.0527 90.3511 83.3606 92.0232 89.1429 90.8175C98.8754 89.0122 102.521 76.5386 97.3099 69.4804Z" fill="#FECCCB"/>
<path fill-rule="evenodd" clip-rule="evenodd" d="M58.3608 63.118C40.2159 59.4251 52.3847 82.5589 60.3084 63.7388C59.6684 63.5006 59.0204 63.2825 58.3608 63.118Z" fill="white"/>
<path fill-rule="evenodd" clip-rule="evenodd" d="M88.2079 73.9345C78.5586 73.1587 76.081 76.2202 70.3512 78.5257C60.2048 68.1698 37.2078 77.0378 43.0294 82.8757C50.5858 94.304 60.5086 90.9175 70.3426 89.8647C76.4378 90.0176 82.8238 92.0046 88.5708 90.9296C95.1187 90.0822 99.3294 83.9138 99.6837 78.0154C96.5248 75.7332 92.2495 74.1469 88.2079 73.9345Z" fill="#F29DA0"/>
<path fill-rule="evenodd" clip-rule="evenodd" d="M80.9137 64.6897C78.2232 64.5832 81.4028 71.5006 82.4465 72.7164C88.3701 79.1705 92.6495 68.3417 90.2183 64.2784C87.3315 63.1302 84.0161 63.8817 80.9137 64.6897Z" fill="white"/>
<path fill-rule="evenodd" clip-rule="evenodd" d="M59.0583 86.8126C56.5777 73.1202 47.0278 88.4998 50.9155 89.6823C56.1724 91.3312 60.2302 93.7749 59.0583 86.8126Z" fill="white"/>
<path fill-rule="evenodd" clip-rule="evenodd" d="M85.4833 84.3843C81.1267 75.3643 75.0688 87.7203 78.4362 90.7101C81.9352 91.1366 83.5871 91.4369 87.1417 91.128C86.8878 88.8135 86.3584 86.3405 85.4833 84.3843Z" fill="white"/>
<path fill-rule="evenodd" clip-rule="evenodd" d="M71.4009 82.1284C66.686 76.6691 64.1398 86.8655 64.3634 90.6109C67.1619 90.031 69.7046 89.6494 72.8251 90.0224C72.6465 87.4964 72.603 84.7513 71.4009 82.1284Z" fill="white"/>
<path fill-rule="evenodd" clip-rule="evenodd" d="M46.625 22.1922C45.3249 10.1406 28.1058 11.05 27.7 22.3588C27.8176 35.652 47.3356 33.9436 46.625 22.1922Z" fill="white"/>
<path fill-rule="evenodd" clip-rule="evenodd" d="M17.8718 73.8566C13.7585 78.4781 10.1459 84.1423 7.70009 89.9771C0.0937991 91.8273 -3.63288 101.348 7.45026 94.5749C2.48102 102.298 6.7886 106.267 11.2673 97.1478C10.2933 99.3544 11.446 106.472 14.1421 101.391C15.6017 97.6742 14.0977 93.885 15.105 90.1154C16.0155 87.8882 17.0077 86.0778 18.3538 84.0676C17.5301 80.994 17.2828 77.0745 17.8718 73.8566Z" fill="#EE888B"/>
<path fill-rule="evenodd" clip-rule="evenodd" d="M140.895 94.7232C139.08 92.1528 136.668 90.4716 134.093 89.9775C131.562 83.9832 128.076 78.4936 123.739 73.647C124.32 76.811 124.244 80.8703 123.542 84.2235C124.871 86.1539 126.294 88.9197 127.193 91.4331C125.16 104.719 132.315 106.667 130.525 97.1482C135.682 107.255 138.855 100.885 134.343 94.5743C135.8 95.4484 142.899 99.5163 140.895 94.7232Z" fill="#EE888B"/>
<path fill-rule="evenodd" clip-rule="evenodd" d="M56.01 108.691C56.0009 108.707 55.4225 120.561 55.4139 120.62C51.5797 120.963 39.0032 123.821 46.2108 127.779C50.9201 128.709 57.9722 124.517 59.2693 121.744C59.3077 120.683 59.5449 114.144 59.6615 110.939C59.9456 108.264 59.4677 109.531 56.01 108.691Z" fill="#EE888B"/>
<path fill-rule="evenodd" clip-rule="evenodd" d="M80.6855 121.886C89.7125 132.775 102.153 125.983 92.3147 122.432C90.0168 121.467 86.2684 120.961 84.5318 120.548C84.4848 119.603 83.9928 109.763 83.9902 109.715C82.7462 109.83 81.5006 109.931 80.254 110.004L80.6855 121.886Z" fill="#EE888B"/>
<path fill-rule="evenodd" clip-rule="evenodd" d="M44.3364 22.2873C43.3422 13.1816 30.368 13.8508 29.9945 22.3605C29.9056 32.3722 44.8154 31.3264 44.3364 22.2873Z" fill="#231F20"/>
<path fill-rule="evenodd" clip-rule="evenodd" d="M110.376 18.1295C103.798 8.27228 89.602 16.1168 93.6401 26.3475C99.9216 37.4675 116.011 29.194 110.376 18.1295Z" fill="white"/>
<path fill-rule="evenodd" clip-rule="evenodd" d="M34.1199 17.3562C28.5344 19.0252 29.999 30.0064 34.6336 18.841C35.0182 18.3398 35.2024 17.4753 34.1199 17.3562Z" fill="white"/>
<path fill-rule="evenodd" clip-rule="evenodd" d="M81.5569 8.9996C73.7361 -2.84109 56.4705 6.59271 61.5301 18.9845C69.2847 32.149 88.2613 22.2287 81.5569 8.9996Z" fill="white"/>
<path fill-rule="evenodd" clip-rule="evenodd" d="M108.527 19.1409C103.696 11.7304 92.6912 17.2786 95.4917 25.2629C99.9724 34.2041 112.982 27.7843 108.527 19.1409Z" fill="#231F20"/>
<path fill-rule="evenodd" clip-rule="evenodd" d="M100.075 17.0487C94.6588 17.3792 94.8072 28.8005 99.4943 19.6438C99.9263 18.9408 101.832 17.6235 100.075 17.0487Z" fill="white"/>
<path fill-rule="evenodd" clip-rule="evenodd" d="M79.4943 10.1273C73.1482 0.583488 59.3584 8.60817 63.8527 18.3266C70.2725 28.3388 84.7063 20.2651 79.4943 10.1273Z" fill="#231F20"/>
<path fill-rule="evenodd" clip-rule="evenodd" d="M68.2194 7.94045C61.5387 9.31121 63.5873 22.932 67.8822 11.1801C68.3299 10.3004 70.4037 8.31342 68.2194 7.94045Z" fill="white"/>
</svg>
