<svg width="143" height="129" viewBox="0 0 143 129" fill="none" xmlns="http://www.w3.org/2000/svg">
<path fill-rule="evenodd" clip-rule="evenodd" d="M124.938 74.6954C122.639 58.373 108.861 53.7324 97.9673 50.796C98.0708 50.367 98.8904 47.035 99.7968 43.3376C100.859 39.0068 102.009 34.3187 102.253 33.3259C115.539 33.6182 119.514 16.1052 106.098 11.785C92.3763 8.7144 86.816 26.241 97.2506 31.6392C97.0331 32.5346 93.4695 47.2344 92.9476 49.3869C93.3044 50.0031 90.8622 49.1053 89.0705 48.8903C85.3913 48.2231 82.0981 47.7885 78.378 47.4373C75.3493 46.9729 75.3518 47.2036 75.3428 46.5096C77.3308 47.3409 76.4571 47.2823 75.3518 47.2036C75.2459 40.1812 74.941 34.0138 74.8794 27.4493C83.9741 26.1704 88.6885 16.6578 85.5391 8.7568C78.4517 -6.41893 56.0684 0.69931 58.4985 16.7012C60.8877 28.2224 70.1197 23.9764 68.5384 30.0252C67.689 35.9166 69.5579 46.9588 67.4836 46.9866C60.2725 47.0592 53.7296 47.896 47.54 49.4697C47.543 49.4828 43.8058 34.083 43.2652 31.8568C53.9502 25.0535 47.6314 8.63466 33.8279 11.9404C20.7447 16.3651 25.6271 34.3061 38.1683 33.1543C38.1668 33.1488 38.4842 34.4413 38.9597 36.3783C40.1502 41.226 42.2629 49.827 42.5183 50.8687C33.7123 54.3072 21.2337 60.3378 18.1394 72.7917C12.0452 107.88 61.7356 112.511 85.9081 110.13C109.843 108.189 127.056 97.9726 124.938 74.6954Z" fill="#7DB5BA"/>
<path fill-rule="evenodd" clip-rule="evenodd" d="M124.938 74.6954C122.639 58.373 108.861 53.7324 97.9673 50.796C98.0708 50.367 98.8904 47.035 99.7968 43.3376C100.859 39.0068 102.009 34.3187 102.253 33.3259C115.539 33.6182 119.514 16.1052 106.098 11.785C92.3763 8.7144 86.816 26.241 97.2506 31.6392C97.0331 32.5346 93.4695 47.2344 92.9476 49.3869C93.3044 50.0031 90.8622 49.1053 89.0705 48.8903C85.3913 48.2231 82.0981 47.7885 78.378 47.4373C75.3493 46.9729 75.3518 47.2036 75.3428 46.5096C77.3308 47.3409 76.4571 47.2823 75.3518 47.2036C75.2459 40.1812 74.941 34.0138 74.8794 27.4493C83.9741 26.1704 88.6885 16.6578 85.5391 8.7568C78.4517 -6.41893 56.0684 0.69931 58.4985 16.7012C60.8877 28.2224 70.1197 23.9764 68.5384 30.0252C67.689 35.9166 69.5579 46.9588 67.4836 46.9866C60.2725 47.0592 53.7296 47.896 47.54 49.4697C47.543 49.4828 43.8058 34.083 43.2652 31.8568C53.9502 25.0535 47.6314 8.63466 33.8279 11.9404C20.7447 16.3651 25.6271 34.3061 38.1683 33.1543C38.1668 33.1488 38.4842 34.4413 38.9597 36.3783C40.1502 41.226 42.2629 49.827 42.5183 50.8687C33.7123 54.3072 21.2337 60.3378 18.1394 72.7917C12.0452 107.88 61.7356 112.511 85.9081 110.13C109.843 108.189 127.056 97.9726 124.938 74.6954Z" fill="#C2CC93"/>
<path fill-rule="evenodd" clip-rule="evenodd" d="M101.182 67.7593C90.5368 53.1797 81.1081 65.4882 68.6875 64.0165C64.55 63.535 61.6015 60.9555 57.4292 59.7604C37.5209 56.1109 31.8058 80.7603 45.5476 91.0067C56.4082 99.211 64.8124 92.5526 72.5974 93.4388C79.8943 94.052 85.8452 96.0971 92.28 94.477C103.642 91.4957 106.69 76.3261 101.182 67.7593Z" fill="#AABA6E"/>
<path fill-rule="evenodd" clip-rule="evenodd" d="M98.1098 69.6165C88.8425 58.126 80.2132 67.4937 69.4526 66.6504C66.5945 66.4954 64.6842 65.4043 61.9018 64.2712C43.6192 56.9991 33.8618 78.7323 48.2422 88.4043C57.5998 94.8231 65.6618 89.5449 72.6185 90.2904C79.2669 90.8042 84.4648 92.456 90.4394 91.0303C99.906 88.8141 103.233 76.5793 98.1098 69.6165Z" fill="#FECCCB"/>
<path fill-rule="evenodd" clip-rule="evenodd" d="M58.7801 63.1919C40.4667 59.4557 52.7334 82.8282 60.7464 63.8188C60.1004 63.578 59.4463 63.358 58.7801 63.1919Z" fill="white"/>
<path fill-rule="evenodd" clip-rule="evenodd" d="M88.9188 74.1144C79.3876 73.3351 76.6587 76.3512 70.9021 78.7652C61.92 68.8191 34.6336 76.1024 44.7961 85.2914C53.3053 94.8221 62.2097 90.8622 70.8284 90.2001C76.9746 90.3409 83.4711 92.3647 89.2852 91.2756C95.8992 90.4201 100.155 84.1846 100.507 78.2352C97.3174 75.9308 92.9997 74.3289 88.9188 74.1144Z" fill="#F29DA0"/>
<path fill-rule="evenodd" clip-rule="evenodd" d="M81.5533 64.779C78.8366 64.6715 82.0469 71.657 83.1012 72.8844C89.0829 79.402 93.4036 68.4673 90.9488 64.3636C88.0342 63.2043 84.6865 63.9634 81.5533 64.779Z" fill="white"/>
<path fill-rule="evenodd" clip-rule="evenodd" d="M59.4839 87.1187C56.9796 73.292 47.3359 88.8221 51.2614 90.0157C56.5698 91.6812 60.6674 94.1491 59.4839 87.1187Z" fill="white"/>
<path fill-rule="evenodd" clip-rule="evenodd" d="M86.1678 84.6662C81.7684 75.5579 75.6514 88.035 79.0516 91.0541C82.585 91.4846 84.253 91.7875 87.8419 91.4761C87.586 89.1383 87.0515 86.6416 86.1678 84.6662Z" fill="white"/>
<path fill-rule="evenodd" clip-rule="evenodd" d="M71.9476 82.3886C67.1863 76.8753 64.6154 87.1716 64.841 90.9538C67.6668 90.3684 70.2347 89.9828 73.386 90.3593C73.2053 87.8086 73.1614 85.0368 71.9476 82.3886Z" fill="white"/>
<path fill-rule="evenodd" clip-rule="evenodd" d="M46.9296 21.8659C45.6164 9.69669 28.2286 10.6147 27.8193 22.0345C27.9404 35.4509 47.6402 33.744 46.9296 21.8659Z" fill="white"/>
<path fill-rule="evenodd" clip-rule="evenodd" d="M17.8949 74.036C13.7413 78.7024 10.0933 84.4217 7.62387 90.314C-0.0566006 92.1824 -3.82013 101.796 7.37102 94.9562C2.35333 102.755 6.7028 106.763 11.2259 97.5554C10.2442 99.7867 11.3959 106.979 14.1289 101.839C15.6026 98.0863 14.084 94.2597 15.1009 90.4533C16.0205 88.2039 17.0223 86.3764 18.3814 84.347C17.5497 81.2426 17.3004 77.2847 17.8949 74.036Z" fill="#688AB0"/>
<path fill-rule="evenodd" clip-rule="evenodd" d="M142.122 95.1061C140.288 92.511 137.852 90.8132 135.253 90.314C132.696 84.2612 129.177 78.7176 124.797 73.8241C125.384 77.0188 125.307 81.1175 124.599 84.5035C125.94 86.4531 127.377 89.2461 128.286 91.7842C126.227 105.124 133.448 107.235 131.65 97.5554C136.985 107.905 139.99 101.182 135.505 94.9557C136.977 95.8384 144.145 99.9467 142.122 95.1061Z" fill="#688AB0"/>
<path fill-rule="evenodd" clip-rule="evenodd" d="M56.4062 109.21C56.3972 109.227 55.8132 121.196 55.8041 121.256C51.6318 121.447 38.5253 125.148 47.1138 128.596C51.8175 129.056 58.7748 124.95 59.7004 122.294C59.7564 120.755 60.0552 112.531 60.136 110.305C60.4347 109.307 58.8222 109.8 56.4062 109.21Z" fill="#688AB0"/>
<path fill-rule="evenodd" clip-rule="evenodd" d="M81.3229 122.535C90.9767 134.022 103.823 126.062 91.8504 122.679C89.8361 121.916 86.5183 121.552 85.2065 121.183C85.1596 120.229 84.6625 110.293 84.66 110.244C83.4038 110.361 82.1456 110.463 80.8868 110.537L81.3229 122.535Z" fill="#688AB0"/>
<path fill-rule="evenodd" clip-rule="evenodd" d="M44.6183 21.962C43.6144 12.767 30.5135 13.4433 30.1365 22.0357C30.0462 32.1463 45.1018 31.0895 44.6183 21.962Z" fill="#231F20"/>
<path fill-rule="evenodd" clip-rule="evenodd" d="M111.304 17.7638C104.684 7.81468 90.3193 15.7243 94.4043 26.062C100.747 37.2905 116.994 28.9367 111.304 17.7638Z" fill="white"/>
<path fill-rule="evenodd" clip-rule="evenodd" d="M34.3019 16.9826C28.9087 17.9521 30.4026 29.3886 34.0243 19.6535C34.375 18.8974 36.1314 17.352 34.3019 16.9826Z" fill="white"/>
<path fill-rule="evenodd" clip-rule="evenodd" d="M82.203 8.54422C74.1929 -3.46706 56.8899 6.19637 61.9803 18.6276C69.8102 31.9203 88.973 21.903 82.203 8.54422Z" fill="white"/>
<path fill-rule="evenodd" clip-rule="evenodd" d="M109.436 18.7845C104.558 11.3024 93.4463 16.904 96.2741 24.9666C100.798 33.9956 113.935 27.5127 109.436 18.7845Z" fill="#231F20"/>
<path fill-rule="evenodd" clip-rule="evenodd" d="M100.902 16.6721C95.4333 17.0057 95.5826 28.539 100.315 19.292C100.752 18.5824 102.676 17.2525 100.902 16.6721Z" fill="white"/>
<path fill-rule="evenodd" clip-rule="evenodd" d="M80.1198 9.68322C73.5855 -0.0115042 59.8123 8.23575 64.3258 17.9628C70.8077 28.0729 85.3828 19.92 80.1198 9.68322Z" fill="#231F20"/>
<path fill-rule="evenodd" clip-rule="evenodd" d="M68.7349 7.47517C61.9891 8.85854 64.0573 22.613 68.3942 10.7461C68.8469 9.85784 70.9404 7.85117 68.7349 7.47517Z" fill="white"/>
</svg>
