<svg height="136" viewBox="0 0 40 136" width="40" xmlns="http://www.w3.org/2000/svg"><g fill="none"><path d="m19.75 135.92-19.75-53.34 11.68-22.64h16.14l11.68 22.64z" fill="#d0d2d3"/><path d="m13.62 119.37-2.91-7.87 22.06-10.75-4.2 11.34z" fill="#fff"/><path d="m35.2 94.2-26.18 12.75-1.66-4.5 30.23-14.72z" fill="#fff"/><path d="m19.75 135.93v-75.99h8.07l11.68 22.64z" fill="#a6a8ab"/><path d="m13.68 17.79h12.14v42.15h-12.14z" fill="#8a5e3c"/><path d="m0 82.58 19.75 9.86 19.75-9.86-11.68-22.64h-16.14z" fill="#a6a8ab" opacity=".5"/><g fill="#754c29"><path d="m25.82 38.4v1c-4.243447-.4111306-8.5052877.571831-12.14 2.8v-1.09c3.6666155-2.1432263 7.9100207-3.0904773 12.14-2.71z"/><path d="m25.82 36.15c-2.24-1.89-6-3.92-12.14-4.36v-.94c5.9.39 9.73 2.19 12.14 4z"/><path d="m13.68 45.9v-.9c4.2543479.5320973 8.3717342 1.8548162 12.14 3.9v1.06c-3.7461232-2.1254777-7.8689048-3.5042663-12.14-4.06z"/><path d="m25.82 21.87v.95c-4.3981389.3711945-8.6040434 1.9683296-12.14 4.61v-1.2c3.6019808-2.477845 7.7845915-3.9800017 12.14-4.36z"/></g><path d="m13.68 59.94v-8c14.1.3 7.24-26.37 8.76-34.14h3.38v42.14z" fill="#8a5e3c" opacity=".5"/><path d="m30.87 59.94s-20.09 0-22.1 0c-1.36.71-2.9-4.21-.93-6.16.41102378-.2057156.87462598-.2824017 1.33-.22h21.56c1.42-.93 3.34 5.64.14 6.38z" fill="#754c29"/><path d="m30.87 59.94h-.58c.71-7.94-19.36-3.48-23.23-4.56-.18-3.44 10.08-1.23 18.27-1.82 5 .4 4.43-.93 6.9.78.4 1.77 1 5.14-1.36 5.6z" fill="#754c29" opacity=".5"/><path d="m30.29 10.57c-.88-14.57-20.76-13.2-21.08 0 .88 14.57 20.79 13.19 21.08 0zm-5.45 0c-.16 6.5-9.86 6.66-10.18 0 .15-6.51 9.86-6.66 10.18 0z" fill="#594a42"/><path d="m27.73 17.43c4.61-11.31-10-19.78-17.65-11 7.79-14.7 27.16-1.19 17.65 11z" fill="#594a42" opacity=".5"/><path d="m20.44 19.3s-8 2.07-9.54-7c2.6-1.25 1.4 6.46 9.54 5.91 1.63-.04.81.95 0 1.09z" fill="#fff" opacity=".5"/><path d="m9.28 59c-1.07 0-1.43-.67-1.43-1.81 1.05.69 18.06-1.81 17.38 1.81z" fill="#fff" opacity=".5"/></g></svg>