<svg height="243" viewBox="0 0 107 243" width="107" xmlns="http://www.w3.org/2000/svg"><g fill="none" transform="translate(.8 .6)"><path d="m104.856432 231.6c-1.656432 13.452-99.432432 12.948-104.676432 1.092-5.232-14.688 104.928-14.424 104.676432-1.092z" fill="#000" fill-opacity=".1"/><path d="m69.78 213.228c-5.28 15.888 2.22 14.604.636 20.76-3.6-1.2-13.584.156-15.204-4.8.18-4.68-2.4-11.088.48-15.336z" fill="#3f3d40"/><path d="m81.108 164.712c-3.324 16.8-5.196 34.8-10.656 51.6-4.356 1.68-14.4 3.6-15.84-1.56-.972-21.348-2.796-39.144-9.396-59.196-1.308-8.52 5.664-8.244 12.264-8.196 7.56-.72 18.396-2.4 25.728-.468-1.3659047 5.842478-2.0703327 11.820053-2.1 17.82z" fill="#514f52"/><path d="m33.048 212.796c5.472 14.676-3.492 14.568-2.1 21.06 1.14 1.38 14.808-1.308 15.18-2.4.492-4.656 3.276-12.684.924-17.112z" fill="#3f3d40"/><path d="m22.692 164.712c9.936 43.512 2.712 55.656 17.748 52.8 3.42.6 8.796 1.2 9.168-3.696 1.284-14.868-4.8-45.54 9.432-44.316.684-6.216 2.292-21.264-5.496-21.924-10.8.192-22.8-3.072-32.952-.66 1.3641189 5.834659 2.068535 11.804082 2.1 17.796z" fill="#514f52"/><path d="m76.86 79.812c44.736 37.764 11.76 63.408-1.536 27.936-4.272-6.336-9.684-28.548 1.536-27.936z" fill="#514f52"/><path d="m80.4 84c7.884 4.164 20.4 21.6 17.364 26.868-6.696-20.136-21.648-25.668-17.364-26.868z" fill="#6d696e"/><path d="m23.352 79.812c-44.736 37.788-11.772 63.408 1.524 27.936 4.284-6.336 9.696-28.548-1.524-27.936z" fill="#514f52"/><path d="m83.508 112.68c-.624 11.676 3.516 28.536-11.748 28.956-16.8 1.464-51.288 4.02-52.044-8.892-.636-19.584-7.2-43.536 5.76-55.032 13.416-11.628 41.664-8.52 53.532 3.432 7.104 8.196 5.436 20.304 4.5 31.536z" fill="#514f52"/><path d="m43.08 124.128c9.7037845-14.766451 17.4826683-30.711348 23.148-47.4485176h9.42c.168-.0834824-2.844 10.0805176-3.444 12.3725176-5.208 17.616-16.02 36-26.268 52.344-1.56 1.872-13.416-.264-13.044-3.6 2.904-4.464 7.08-8.052 10.188-13.668z" fill="#3f3d40"/><path d="m53.028 118.032c-10.392-6-22.8-30.468-21.516-38.34 3.2348515-.0397922 6.4516052.4882103 9.504 1.56.876 11.256 7.488 24.276 16.8 31.272-.492 2.004-3.108 5.208-4.788 5.508z" fill="#3f3d40"/><path d="m83.124 34.404c-2.544-9.756 10.536-12.276 15.816-15.984.096-.252.084-.264 0 0-.144 13.332-6.996 14.244-15.816 15.984z" fill="#514f52"/><path d="m94.8 22.8c-3.6 2.4-6.648 5.376-10.74 8.712-.0811431.030313-.1433484.0969615-.168.18-.156.204.24.9.912.456 7.2-.348 14.4-6.468 1.38-1.068 1.044-1.74 10.176-6.252 8.616-8.28z" fill="#3f3d40"/><path d="m83.1 34.32c4.92-8.796 16.104-1.56 22.488-.588.24-.108.228-.12 0 0-9.12 9.36-14.928 5.544-22.488.588z" fill="#514f52"/><path d="m99.6 33.972c-3.9-.744-8.604-.756-13.788-1.2-.0770505-.030722-.1629495-.030722-.24 0-.264 0-.456.816.336.96 1.392 1.056 7.356 5.376 8.688 3.168-1.752-.96-4.092-1.2-6.96-2.988 1.932-.408 11.652 2.664 11.964.06z" fill="#3f3d40"/><path d="m70.32 8.124c23.844 18 16.92 59.916-1.728 78.396-28.044 20.904-54.192-11.388-54.624-37.668-5.292-37.548 26.484-62.544 56.352-40.728z" fill="#514f52"/><path d="m23.328 77.448c32.4 38.064 62.76 1.104 62.028-36.072-11.772 21.696-37.068 35.424-62.028 36.072z" fill="#3f3d40"/><path d="m22.008 34.8c-4.404-12.432 7.8-33.18 20.268-29.016 1.332 24 14.4 24.336 30.192 29.76-12.54 4.668-45.288 11.364-50.46-.744z" fill="#6d696e"/><path d="m80.7 46.86c-.168-4.2 1.848-11.664-3.336-13.956-18.648-4.8-38.592-3.288-57.432-.672-4.128 24.168 9.756 27.768 28.728 27.876 12.684.684 28.524 1.644 32.04-13.248z" fill="#f6b796"/><path d="m19.716 42.48c9.6 7.776 22.344 5.088 34.392 6 8.508-.36 25.38 4.188 27.096-6.636z" fill="#de956f"/><path d="m12.768 40.716c17.364 3.6 36.504 3.096 54.792 3.264 23.484.396 22.092 1.092 16.116-18.384-5.376 3.36-13.704 1.2-20.316 1.812-16.932-.168-31.308 2.244-48.072-1.2-.156 1.26-3.36 13.572-2.52 14.508z" fill="#3f3d40"/><path d="m12.768 42.708c17.364 3.6 36.504 3.096 54.792 3.264 23.484.396 22.092 1.092 16.116-18.384-5.376 3.372-13.704 1.212-20.316 1.812-16.932-.168-31.308 2.244-48.072-1.2-.156 1.26-3.36 13.572-2.52 14.508z" fill="#514f52"/><path d="m87.18 40.968c-.5844424-4.588886-1.76229-9.0824552-3.504-13.368-3.888 2.88-11.772 1.512-16.8 1.764-12.192 8.076-27.168 12.168-41.928 15.252 13.596.348 68.28 5.688 62.232-3.648z" fill="#3f3d40"/><path d="m62.4 33.936c-6.768-.732-55.452-2.304-42.66-.096 13.86-.444 31.668 3.36 42.66.096z" fill="#6d696e"/><path d="m44.064 37.884c-7.668 1.332-20.268-1.116-26.772-.288 7.272 1.32 21.648 3.732 26.772.288z" fill="#6d696e"/><path d="m55.764 41.64c-12.4824567.4429275-24.9805783-.0383865-37.392-1.44 7.164 3.516 29.904 4.764 37.392 1.44z" fill="#6d696e"/><path d="m60.228 64.68c-11.892 2.46-29.88-1.968-38.88-.588 10.02 3.108 41.892 4.308 38.88.588z" fill="#6d696e"/><path d="m58.62 70.104c-6 1.668-13.596 1.2-20.196.336 2.844 3.024 20.832 2.832 20.196-.336z" fill="#6d696e"/><path d="m55.272 78.456c-4.908-.552-11.736-.576-17.208-.648 1.02 1.392 16.212 2.436 17.208.648z" fill="#6d696e"/><path d="m18 144.48c-.514178-3.942891-.1703324-7.95033 1.008-11.748 21 1.968 47.82 2.82 64.8.408 0 4.992 1.764 18-4.452 18.708-16.956 1.752-61.548 4.38-61.356-7.368z" fill="#3f3d40"/><g fill="#514f52"><path d="m72.588 137.04c-16.464 2.58-37.944-.384-52.464-1.2 15.984 3.216 38.436 6.336 52.464 1.2z"/><path d="m66 143.46c-14.4 1.632-33.864-1.8-46.284-2.808 13.884 3.108 34.068 7.116 46.284 2.808z"/><path d="m31.656 146.736c-3.744.492-8.4-.276-13.008-.936 1.608 2.124 11.676 3.408 13.008.936z"/><path d="m57.6 101.472c-6.0223257 9.118779-11.5541774 18.552168-16.572 28.26 5.268-6.996 13.452-19.86 16.572-28.26z"/><path d="m55.836 111.876c-1.608 3.492-8.4 10.8-8.088 13.86 1.524-3.516 8.652-10.86 8.088-13.86z"/><path d="m45.3 101.472c-2.1-4.632-6.468-10.272-9.612-14.892-.348 2.22 6.828 13.644 9.612 14.892z"/><path d="m35.34 49.56c-2.952.66-2.136 6.456 2.148 4.356 1.968-1.536.912-4.56-2.148-4.356z"/><path d="m64.584 50.4c-3.288 0-3.3 5.112 0 5.112s3.3-5.112 0-5.112z"/><path d="m40.404 48.276c-.144-.576-13.068-3.012-7.428-.3 1.824-.096 6.804 2.748 7.428.3z"/><path d="m68.4 47.688c-1.2.612-8.832-.06-8.148 2.4 1.104-.372 10.068.312 8.148-2.4z"/><path d="m95.352 124.056c20.004-17.256-31.128-17.448-38.7-14.688-8.652 5.604-.936 14.532 7.644 15 10.656 1.764 20.796 3.96 31.056-.312z"/></g><path d="m64.8 122.616c2.4-5.16 4.224-18.996-6.264-14.76 1.236 6.468-6.204 18.492 6.264 14.76z" fill="#3f3d40"/><path d="m85.2 108.504c-3.42-1.08-6.312-8.796-6.804-12.12-1.668 3.408-1.092 8.208-3.6 11.112 3.24.576 6.552 2.052 9.72.996.468-.036-.156.216.684.012z" fill="#3f3d40"/><path d="m68.868 108.096c6.624-.396 14.4.432 21.852 1.428 1.92 2.328-26.376 1.116-21.852-1.428z" fill="#6d696e"/><path d="m60.66 121.128c10.596 3.696 25.62 2.196 34.464 2.4-8.208 3.54-35.952 2.544-34.464-2.4z" fill="#3f3d40"/><path d="m57.444 122.604c7.848-4.704 4.692-10.656.768-16.668-1.956-3.36-2.568-8.196-6.612-10.176-1.608 4.056.564 8.292.804 12.312-6.456 0-4.188 7.56-2.712 7.044-6.204 4.284 2.46 9.804 7.752 7.488z" fill="#de956f"/><path d="m6.396 124.056c-20.004-17.256 31.128-17.448 38.7-14.688 8.652 5.604.936 14.532-7.644 15-10.656 1.764-20.796 3.96-31.056-.312z" fill="#514f52"/><path d="m37.008 122.616c-2.4-5.16-4.224-18.996 6.252-14.76-1.26 6.468 6.156 18.492-6.252 14.76z" fill="#3f3d40"/><path d="m44.616 122.604c-7.848-4.704-4.692-10.656-.768-16.668 1.956-3.36 2.568-8.196 6.612-10.176 1.608 4.056-.564 8.292-.804 12.312 8.328.708 4.932 19.932-5.04 14.532z" fill="#f6b796"/><path d="m16.536 108.504c3.42-1.08 6.312-8.796 6.804-12.12 1.668 3.408 1.092 8.208 3.6 11.112-3.24.576-6.552 2.052-9.72.996-.42-.036.168.216-.684.012z" fill="#3f3d40"/><path d="m32.88 108.096c-6.624-.396-14.4.432-21.852 1.428-1.92 2.328 26.376 1.116 21.852-1.428z" fill="#6d696e"/><path d="m19.764 84c-7.896 4.14-20.352 21.6-17.364 26.844 6.744-20.112 21.696-25.644 17.364-26.844z" fill="#6d696e"/><path d="m41.088 121.128c-10.596 3.696-25.62 2.196-34.464 2.4 8.208 3.54 35.952 2.544 34.464-2.4z" fill="#3f3d40"/><path d="m59.652 166.404c-2.28.852-3.24 1.692-6.588 3.828-.216-28.896-3.984-13.38-1.836-.864-2.904-3.432-4.32-8.88-4.356-14.1-3.084.372-.816 9.312.456 12-3.78.18-.192 2.544 2.844 3.288.252-.096.36.804 1.572.396.0153826.038378.0355415.074664.06.108-.504 2.112 9.108-2.928 7.848-4.656z" fill="#3f3d40"/><path d="m37.884 191.652c-2.808 2.22-6.492 2.196-10.488 1.764-.108 3.816 14.076 1.08 10.488-1.764z" fill="#3f3d40"/><path d="m74.868 191.88c-2.4 2.64-6.768 2.568-9.996-.288-3.696 1.104 3.768 6 7.2 3.912 1.368-.408 5.604-3.204 2.796-3.624z" fill="#3f3d40"/><path d="m73.68 196.248c-.708-.336-8.076.636-3.6 2.016 1.08-.06 5.94-.108 3.6-2.016z" fill="#3f3d40"/><path d="m29.544 188.808c-4.212-10.116-3.06-27.78-6.516-35.04-1.572 6.828 2.688 42.06 6.516 35.04z" fill="#6d696e"/><path d="m36.84 217.32c-1.476-5.76-3.6-14.712-7.452-19.812-1.272 4.56-.24 23.292 7.452 19.812z" fill="#6d696e"/><path d="m52.368 172.932c-.144-.336-.768-.552-1.2.144 6.024 77.796 8.196 28.524 1.2-.144z" fill="#6d696e"/><path d="m48.72 183.96c-1.008 1.584-9.6 11.1-6.48 11.556 1.128-2.532 7.92-8.832 6.48-11.556z" fill="#3f3d40"/><path d="m48.276 189.036c-1.284 2.088-4.236 6.42-4.248 9.6 1.488-.636 5.808-8.424 4.248-9.6z" fill="#3f3d40"/><path d="m62.7 196.032c-2.088-3.348-5.604-6.804-7.02-11.544-4.08-1.488 5.112 15.444 7.02 11.544z" fill="#3f3d40"/></g></svg>