<svg height="186" viewBox="0 0 168 186" width="168" xmlns="http://www.w3.org/2000/svg"><g fill="none" fill-rule="evenodd"><path d="m161.582061 105.741679c1.374545 2.820547 5.993697-3.757336 3.054545-4.011898-.980848 1.282993-2.005818 2.630474-3.054545 4.011898z" fill="#fff"/><path d="m152.924121 181.217628c.607515 6.642372-117.3318786 5.902445-99.3236362-1.316935 15.3134546-5.284708 100.4402422-3.862554 99.3236362 1.316935z" fill="#000" fill-rule="nonzero" opacity=".2"/><path d="m96.1740606 64.4008029c4.6361214-.5125182 11.0031514.0339416 16.0227874-1.0895255 3.875879-3.9270438 4.53091-11.645365-.65503-15.1447446-27.541818 2.5184672-29.6766059-1.7615693-32.581818.6788322-6.6215758 21.2712043 11.7871515 14.0110949 17.2140606 15.5554379z" fill="#b4b4b5"/><path d="m48.4484848 39.799927c-1.2014545 5.8718978-3.2581818 18.155365-.9401212 19.1430657 9.4792728 2.2163869 19.8545455 4.0729927 29.8225455 4.6805474-3.1427879-5.349197-2.8339394-10.6814233-.4004849-16.149416-9.7319818-1.5746453-19.2761896-4.1462445-28.4819394-7.6741971z" fill="#848687"/><g fill="#fff"><path d="m105.351273 56.9947445c-5.348849 2.5252555-18.0421821 2.4234307-19.5083639-.6482846 5.430303-1.4560949 12.9987879.4208759 19.5049699.3971167 0 .0848541.003394.1663139.003394.2511679z"/><path d="m49.2121212 37.0336861c28.9333333 12.0832117 75.3454548 11.855803 97.1786668-1.4560949-5.05697-25.4799635-12.557576-20.904635-.872243-31.16178828-38.694303-.93339416-82.3539389-8.82821168-96.3064238 32.61788318z"/><path d="m47.9393939 77.1187226c3.0070303 32.2004014 19.6644849 33.5105474 44.8543031 35.4180654 51.323151.678832 49.853576-24.3327369 52.670545-37.5937223-30.888242 11.3670438-66.1478784 13.7158029-97.5248481 2.1756569z"/><path d="m124.537212 116.830401c-3.197091 13.325475-17.617939 20.364964-29.5747878 25.001387 13.7420608 3.078504 28.9469088 1.503613 41.5757578-5.447627 1.781818-9.042044-3.39394-19.061606-10.012121-25.707373-49.0186671 12.602519-13.636849-4.778978-41.7861822 22.18084 2.8916364 20.015365 35.8060602-9.972044 39.7973332-16.027227z"/></g><path d="m115.288727 65.9824818c-3.79103.4819708-8.583272-.8519344-11.827879 2.9087956-14.7398783 14.2011679-7.3410904-5.115-32.0387874-3.5095621 2.464 1.6325913 5.6746667 2.8239416 7.9825455 5.6682482-8.2133334-1.9346715-14.841697-8.2070803-24.3379394-8.3258759-1.0962425 5.1896715-8.0911515 13.2032847-.339394 13.9160584 28.9570909 8.7942701 58.7423033 5.4306569 87.0986663-3.2414234-3.393939-12.1884306-3.427878-10.6169343-10.259878-9.6462044-17.217455 1.2490511-16.830546 6.9512409-24.497455 7.4128468 1.629091-2.6033212 5.185939-3.7471533 8.220121-5.1828832z" fill="#f3d7bf"/><path d="m114.942545 63.3214599c40.778182-5.4781752 31.536485-.8349635 32.04897-23.4468614-10.61361 3.7130894-21.569904 6.3622363-32.707394 7.9083942 3.309091 4.2223358 4.931394 10.905438.658424 15.5384672z" fill="#848687"/><path d="m137.396848 159.389781c-11.359515 4.178212-22.617212 3.350037-33.915636.593978-.07806.536277-.139151.933394-.210424 1.415365 1.476364.42427 4.890667-1.15062 5.912242 1.357664l-2.735515.475183c10.772364 16.023832 16.582788 8.936825 28.709333 12.045876l-.987636.597372c2.640485 2.613504 10.022303-7.833723 7.283394-10.650876-4.262788-.451423-3.030788-2.077226-4.055758-5.834562z" fill="#fff"/><path d="m81.7396364 147.306569c-5.3590303 4.42938-11.8075152 8.325876-14.3427879 15.457008-7.8535758 6.109489 6.4722424 7.806569 10.7146667 9.927919 4.5987878-.593978 7.2121212-5.664854 12.5575757-6.431934-5.6848485-5.108212-9.4487273-10.963139-8.9294545-18.952993z" fill="#fff"/><path d="m142.097455 153.456788c-3.366788-.801022-5.688243-6.448905-8.298182-6.252043-12.472728 9.079379-30.175515 6.68989-44.1755154 2.090802 9.3061818 14.228322 44.3927274 12.870657 52.4736974 4.161241z" fill="#fff"/><path d="m43.3304242 54.8258759c3.7095758-11.9508394-33.51175753-13.2813504-38.69090905-10.335219 12.89696965 2.4030657 26.10278785 6.3640511 38.69090905 10.335219z" fill="#ededed"/><path d="m134.936242 140.857664c-14.224 6.24865-28.593939 7.616497-43.489939 2.823942-5.5558788 10.005985 48.723394 7.979671 43.489939-2.823942z" fill="#848687"/><path d="m84.0644848 146.122007c-1.564606 7.025913 2.5081213 14.594891 9.3808485 19.906752 2.4538182-1.045401 6.6758787-2.48792 7.9723637-5.715766-10.2870303-3.485803-12.0009697-10.175694-17.3532122-14.190986z" fill="#848687"/><path d="m64.3219394 169.494197c-2.0804849 3.910073-6.2210909 7.199015-10.0596364 9.995803l.0305455.339416c18.9178182 4.829891 12.1910303-4.91135 18.6429091-6.543942z" fill="#848687"/><path d="m142.586182 97.2223358c-3.020606 5.8345622-7.982546 9.2796352-13.592727 11.9236862l4.310303 5.288102c5.308121-4.02208 13.314424-11.737007 9.282424-17.2117882z" fill="#fff"/><path d="m139.694545 176.235c1.018182-.339416 11.356122-1.904124 7.846788 1.143832-2.338424-.200255-9.082181-.016971-6.862545 3.441679 17.689212 2.270693 11.2-4.554964 3.054545-10.861314z" fill="#848687"/><path d="m72.2230303 145.147883.1493333.176497c2.7151516-2.263906 3.8453334-1.157409 8.2947879-1.490037-10.3990303-1.968613-11.8787879-9.989015-.3088485-11.648759 0-.088248.0203637-.179891.0339394-.271533-2.6676363-1.327117-5.3454545-2.633869-8.4169697-3.153175.1255758 1.520584 2.073697 1.843029 3.36 3.29573-2.5318788 2.019525-7.3682424 1.530766-10.3888485 4.072993.0339394.09843.0712728.200255.1086061.298686 5.7323636-.315657 9.4215758-2.158686 1.7241212 4.025474 3.9064243-1.042007 8.0029091-2.036496 2.0533333 3.58084l.1832728.210437c.8993939-.655072 5.5864242-3.149781 3.2072727.902847z" fill="#f3d7bf"/><path d="m80.2157576 145.74865c-5.3861818-.227409-10.5212121 1.802299-16.073697 4.493868 5.6610909 10.552446 9.4385455-1.337299 16.073697-4.493868z" fill="#848687"/><path d="m82.3030303 133.689197c-15.4424242 2.325-5.1995151 10.131569 3.9030303 7.423029-2.6167273-1.846423-3.6620606-4.28343-3.9030303-7.423029z" fill="#848687"/><path d="m82.150303 131.038358c5.0569697-2.30803 10.4770909-9.775183 12.8494546-15.402701-5.8443637 2.62708-11.3832728 8.546496-12.8494546 15.402701z" fill="#fff"/><path d="m46.4562424 60.7724453c.1289697 3.67927-.3597576 13.2372262 2.3757576 13.6309489 1.12-3.6419343 2.1042424-8.4854015 4.8601212-11.9474453z" fill="#fff"/><path d="m146.957576 61.1525912-7.602424 1.4289416c1.904947 3.2908943 3.294482 6.8542415 4.120242 10.5660219 3.886061.4616059 2.511515-8.9979197 3.482182-11.9949635z" fill="#fff"/><path d="m152.296242 95.6270803c-1.472969 5.1625187.264728 5.1082117 4.286546 7.3551457 4.144 2.976679 3.505939 1.194745 6.210909-1.972007z" fill="#848687"/><path d="m101.964121 66.6748905h-13.5248483l7.1781818 5.4713869z" fill="#fff"/><path d="m146.977939 100.708139c5.908849.553248.868849-16.3802193-1.299878-10.5456572 3.607757 3.0886861 3.217454 6.4828467 1.299878 10.5456572z" fill="#f3d7bf"/><path d="m84.9027879 115.330182c-.2952727 2.206205-.5973334 4.453139-.896 6.700073 1.9820606-2.467554 4.0116363-4.812919 6.6928485-6.513394l-.0814546-.186679z" fill="#848687"/><path d="m144.839758 92.1209124c-1.303273 2.2469343-1.551031 3.930438.807757 6.5133942 1.371152-2.4845256 1.10303-4.9147446-.807757-6.5133942z" fill="#848687"/><path d="m85.2218182 143.460985c-.0339394.074672-.0644849.152738-.0950303.224015l3.580606 2.274088 1.4220606-3.302519c-1.6781619-.168519-3.37107.108967-4.9076363.804416z" fill="#848687"/><path d="m124.537212 116.830401c-2.077091 14.788358-7.80606 27.061643-28.9095756 35.54365.2816969 11.496022 38.6909086 7.905 42.2443636 6.503212-14.593939 9.537591-28.169697 9.503649-14.224 15.952555-11.166061 3.815036-16.290909-14.594891-21.29697-12.127336l-.074666-2.742482c-1.052122.132372-15.0758792-10.114599-14.4242428-11.614818 0 0-4.7209697 1.160803-2.3757576 8.125621-3.6111515-4.00511-3.6688484-12.504088.0848485-14.49646 16.2569699-1.873577 34.9915149-14.014489 38.9759999-25.143942z" fill="#231f20" opacity=".2"/><path d="m137.861818 63.2569708c-23.995151.7263504-23.489454 7.9457299-30.78303 7.9117883 1.618909-2.5965328 5.175757-3.7505474 8.209939-5.1862773-3.79103.4819708-8.583272-.8519344-11.827879 2.9087956-14.7398783 14.2011679-7.3410904-5.115-32.0387874-3.5095621 2.464 1.6325913 5.6746667 2.8239416 7.9825455 5.6682482-8.2133334-1.9346715-14.841697-8.2070803-24.3379394-8.3258759-.9401212 2.7153285-2.5522425 6.0008759-3.4550303 9.3407299 5.1723636-14.5948905 25.3832727 4.9215329 45.0579394 3.0886861 30.9663032-3.1022627 36.9701822-16.6313868 44.9798792-2.6576277-.751798-3.2651194-2.031142-6.3857312-3.787637-9.2389051z" fill="#d5ae9a"/><path d="m45.1156364 56.159781s74.3883636 6.6627372 104.8523636-7.7658394l-1.469576 10.9665329c-36.569697 7.4909124-83.1243634 7.4026642-103.3827876 0z" fill="#231f20" opacity=".2"/><path d="m54.7815758 101.729781s42.9774545 24.09854 87.0545452-9.6088686c-1.561212 9.0725916-8.087757 13.5257296-8.145454 13.7090146-.678788-.251168.339394 11.733613-.641455 9.357701-2.749091-2.885037-7.018667-6.560913-10.592485-5.131971-26.6729694 6.269015-52.4465452 6.16719-67.6751512-8.325876z" fill="#231f20" opacity=".2"/><path d="m81.4884848 147.442336s-1.8972121 14.228321 3.8758788 22.062044l7.2087273-2.715329c-4.870303-4.32416-11.088-10.399708-10.9590303-21.905912h-5.769697c-1.4586732 2.243591-2.4875485 4.738834-3.0341818 7.35854z" fill="#231f20" opacity=".2"/><path d="m17.9233939 47.915365s12.8969697-2.1417154 26.1095758 1.6088321v6.1400365z" fill="#231f20" opacity=".2"/><path d="m63.3580606 168.051679c-.9944242-1.758175-.6482424-3.658905 1.3847273-5.223613 10.4499394-11.258431-13.0904243-9.717482 5.1316363-16.987774-3.0545454.230803-3.4618181-.481971-2.0363636-3.631752-2.8916364.814599-4.0421818-1.357664-2.0058182-3.791277-7.9078788-2.14511 1.7614546-6.496424 5.7866667-6.944453-4.3646061-7.314416 4.9653333-3.17354 8.4407273-1.537555 1.6019394-4.87062 2.4368484-9.843065 3.0307878-14.934306-55.8472727-3.618175-30.5454545-59.9001461-43.6121212-59.5267884-13.5553939-4.9215329-26.2419394-6.7645621-39.478303-10.3318248 11.984-8.5023723 30.5250909-2.8510949 43.7478788 2.4675547 7.5922424-59.7066788 71.9040002-47.07021897 111.8133332-45.29167882-29.904 15.29748172 6.916849 11.39759122-9.282424 84.95583942 1.191273-.0882482 2.956121-.2274088 3.733333 1.4017883 1.449212 11.5401456 28.441212 7.4671533 13.338182 20.4803646-23.981576-14.6322259-13.575758-2.851095-28.675394 7.409453 13.830303 21.556314-8.922667 27.302628 9.272243 35.485949 1.856484 3.200693-8.661334 6.248649-2.277334 10.942774 3.39394 3.81843 5.678061 7.623284 10.331152 11.509598 10.992969 10.861314-19.192728 11.611423-12.89697 3.180329l-.722909-.553249c-1.798788 1.507008-4.340849 1.751387-6.319515-.42427-29.262546 4.106935-22.335515-17.225365-31.017212-11.906715-8.5221822 4.263066-13.3042428 3.465438-20.1633943 9.686934-14.1187879.481971-5.5287273 3.482409-13.0904242 7.68438-5.209697 1.86-14.2138182 2.375912-15.8938182-2.423431 1.9481212-4.707701 9.0278788-6.285985 11.4613333-11.696277zm-14.1459394-131.0179929c28.9333333 12.0832117 75.3454548 11.855803 97.1786668-1.4560949-5.05697-25.4799635-12.557576-20.904635-.872243-31.16178828-38.694303-.93339416-82.3539389-8.82821168-96.3064238 32.61788318zm-1.2557576 40.0850365c3.0070303 32.2004014 19.6644849 33.5105474 44.8543031 35.4180654 51.3231513.678832 49.8535753-24.3327369 52.6705453-37.5937223-30.905212 11.3670438-66.1648484 13.7158029-97.5418181 2.1756569zm76.5978184 39.7116784c-3.197091 13.325475-17.61794 20.364964-29.5747881 25.001387 13.7420611 3.078504 28.9469091 1.503613 41.5757581-5.447627 1.781818-9.042044-3.39394-19.061606-10.012122-25.707373-49.0356361 12.602519-13.653818-4.778978-41.8031512 22.18084 2.8916364 20.015365 35.8060602-9.972044 39.7973332-16.027227zm-9.265455-50.8479192c-3.79103.4819708-8.583272-.8519344-11.827879 2.9087956-14.7398783 14.2011679-7.3410904-5.115-32.0387874-3.5095621 2.464 1.6325913 5.6746667 2.8239416 7.9825455 5.6682482-8.2133334-1.9346715-14.841697-8.2070803-24.3379394-8.3258759-1.0962425 5.1896715-8.0911515 13.2032847-.339394 13.9160584 28.9570909 8.7942701 58.7423033 5.4306569 87.0986663-3.2414234-3.393939-12.1884306-3.427878-10.6169343-10.259878-9.6462044-17.217455 1.2490511-16.830546 6.9512409-24.497455 7.4128468 1.629091-2.6033212 5.185939-3.7471533 8.220121-5.1828832zm-.339394-2.6610219c40.778182-5.4781752 31.536485-.8349635 32.04897-23.4468614-10.61361 3.7130894-21.569904 6.3622363-32.707394 7.9083942 3.302303 4.2223358 4.924606 10.905438.651636 15.5384672zm-18.7684845 1.079343c4.6361215-.5125182 11.0031515.0339416 16.0227875-1.0895255 3.875879-3.9270438 4.530909-11.645365-.65503-15.1447446-27.5418181 2.5184672-29.676606-1.7615693-32.5818181.6788322-6.6283637 21.2712043 11.7803636 14.0110949 17.2072727 15.5554379zm-47.7323637-24.6008759c-1.2014545 5.8718978-3.2581818 18.155365-.9401212 19.1430657 9.4792728 2.2163869 19.8545455 4.0729927 29.8225455 4.6805474-3.1427879-5.349197-2.8339394-10.6814233-.4004849-16.149416-9.7319818-1.5746453-19.2761896-4.1462445-28.4819394-7.6741971zm88.9483632 119.589854c-11.359515 4.178212-22.617212 3.350037-33.915636.593978-.07806.536277-.139151.933394-.210424 1.415365 1.476364.42427 4.890667-1.15062 5.912242 1.357664l-2.735515.475183c10.772364 16.023832 16.582788 8.936825 28.709333 12.045876l-.987636.597372c2.640485 2.613504 10.022303-7.833723 7.283394-10.650876-4.262788-.451423-3.030788-2.077226-4.055758-5.834562zm-55.6572116-12.083212c-5.3590303 4.42938-11.8075152 8.325876-14.3427879 15.457008-7.8535758 6.109489 6.4722424 7.806569 10.7146667 9.927919 4.5987878-.593978 7.2121212-5.664854 12.5575757-6.431934-5.6848485-5.108212-9.4487273-10.963139-8.9294545-18.952993zm60.3578186 6.153613c-3.366788-.801021-5.688243-6.448905-8.298182-6.252043-12.472728 9.079379-30.175515 6.68989-44.1755154 2.090803 9.3061818 14.224927 44.3927274 12.867262 52.4736974 4.157846zm-98.7636368-98.6309119c3.7095757-11.9508394-33.51175759-13.2813504-38.69090911-10.335219 12.89357571 2.3996715 26.09939391 6.3606569 38.68751511 10.3318248zm91.6024238 86.0283939c-14.224 6.24865-28.593939 7.616497-43.489939 2.823942-5.5558788 10.005985 48.723394 7.979671 43.489939-2.823942zm-50.8717572 5.264343c-1.564606 7.025913 2.5081213 14.594891 9.3808485 19.906752 2.4538182-1.045401 6.6758787-2.48792 7.9723637-5.715766-10.2870303-3.485803-12.0009697-10.175694-17.3532122-14.190986zm-19.7425454 23.37219c-2.0804849 3.910073-6.2210909 7.199015-10.0596364 9.995803l.0305455.339416c18.9178182 4.829891 12.1910303-4.91135 18.6429091-6.543942zm78.2642426-72.2718612c-3.020606 5.8345622-7.982546 9.2796352-13.592727 11.9236862l4.310303 5.288102c5.308121-4.02208 13.314424-11.737007 9.282424-17.2117882zm-2.891637 79.0126642c1.018182-.339416 11.356122-1.904124 7.846788 1.143832-2.338424-.200255-9.082181-.016971-6.862545 3.441679 17.689212 2.270693 11.2-4.554964 3.054545-10.861314zm-67.4715147-31.087117.1493333.176497c2.7151516-2.263906 3.8453334-1.157409 8.2947879-1.490037-10.3990303-1.968613-11.8787879-9.989015-.3088485-11.648759 0-.088248.0203637-.179891.0339394-.271533-2.6676363-1.327117-5.3454545-2.633869-8.4169697-3.153175.1255758 1.520584 2.073697 1.843029 3.36 3.29573-2.5318788 2.019525-7.3682424 1.530766-10.3888485 4.072993.0339394.09843.0712728.200255.1086061.298686 5.7323636-.315657 9.4215758-2.158686 1.7241212 4.025474 3.9064243-1.042007 8.0029091-2.036496 2.0533333 3.58084l.1832728.210437c.8993939-.655072 5.5864242-3.149781 3.2072727.902847zm7.9927273.600767c-5.3861818-.227409-10.5212121 1.802299-16.073697 4.493868 5.6610909 10.552446 9.4385455-1.337299 16.073697-4.493868zm2.0872727-12.059453c-15.4424242 2.325-5.1995151 10.131569 3.9030303 7.423029-2.6167273-1.846423-3.6620606-4.28343-3.9030303-7.423029zm-.1527273-2.650839c5.0569697-2.30803 10.4770909-9.775183 12.8494546-15.402701-5.8443637 2.62708-11.3832728 8.546496-12.8494546 15.402701zm-35.6940606-70.2591244c.1289697 3.67927-.3597576 13.2372263 2.3757576 13.6309489 1.12-3.6419343 2.1042424-8.4854015 4.8601212-11.9474453zm100.5013336.3733576-7.602424 1.4289416c1.904947 3.2908943 3.294482 6.8542415 4.120242 10.5660219 3.886061.4616059 2.511515-8.9979197 3.482182-11.9949635zm5.348848 34.4744891c-1.472969 5.1625187.264728 5.1082117 4.286546 7.3551457 4.144 2.976679 3.505939 1.194745 6.210909-1.972007zm-50.332121-28.9521898h-13.5350303l7.1781818 5.4713869zm45.003636 34.0332485c5.908849.553248.868849-16.3802193-1.299878-10.5456572 3.607757 3.0886861 3.217454 6.4828467 1.299878 10.5456572zm-62.0751511 14.622043c-.2952727 2.206205-.5973334 4.453139-.896 6.700073 1.9820606-2.467554 4.0116363-4.812919 6.6928485-6.513394l-.0814546-.186679zm59.9369701-23.2092696c-1.303273 2.2469343-1.551031 3.930438.807757 6.5133942 1.371152-2.4845256 1.10303-4.9147446-.807757-6.5133942zm16.742303 13.6207666c1.374545 2.820547 5.993697-3.757336 3.054545-4.011898-.980848 1.282993-2.005818 2.630474-3.054545 4.011898zm-76.3636368 37.719306c-.0339394.074672-.0644848.152738-.0950303.224015l3.5806061 2.274088 1.4220606-3.302519c-1.6770407-.167913-3.3686986.10956-4.9042424.804416z" fill="#000" fill-rule="nonzero"/><path d="m79.0414545 76.3686131c-.1052121 4.0729927-6.1905454 4.2460949-6.4484848 0 .1052121-4.0729927 6.1939394-4.2427007 6.4484848 0z" fill="#000" fill-rule="nonzero"/><path d="m118.658909 75.4759489c-.101818 4.0729927-6.190545 4.2460949-6.448485 0 .108606-4.0628102 6.19394-4.2460949 6.448485 0z" fill="#000" fill-rule="nonzero"/><path d="m144.938182 4.97923358c.203208-.1729713.391657-.36256827.563394-.56682482 0 0-11.332364 6.08572994-10.860606 8.58722624.471757 2.5014964 9.964606 26.3115329-21.612606 31.9051095 16.810181-2.4981022 32.530909-6.6661314 33.440484-8.6924452-4.690424-24.8690146-12.540606-22.1061679-1.530666-31.23306572z" fill="#231f20" opacity=".2"/></g></svg>