<svg height="206" viewBox="0 0 151 206" width="151" xmlns="http://www.w3.org/2000/svg"><g fill="none"><path d="m52.73 101.22s-13.73 28.32-7.17 36.89c14.48 17.2 56.17 8.19 60.57-5.07-.27-4.95-8.13-30.14-13.13-32.48-8.3-4-40.17.68-40.27.66z" fill="#34302f"/><path d="m52.08 126.72c-2.4556458-1.721836-4.6921534-3.736707-6.66-6-13.29 33.66 47.25 32.53 60.14 13.68 1.43-.77-.13-6-2.8-14.39-14.16 10.62-34.97 17.16-50.68 6.71z" fill="#272423"/><path d="m94.48 101.6c-4.75-5.7-41.75-.38-41.75-.38-2.310962 4.910982-4.3148161 9.960694-6 15.12 16 5.47 36.84-1 49.75-11.63-.5651677-1.098534-1.2349329-2.140019-2-3.11z" fill="#272423"/><path d="m59.41 103.55s11.8 16.67 14.68 17.71 14.61-13 13.43-16.42-28.11-1.29-28.11-1.29z" fill="#ec1c24"/><path d="m87.52 104.84c-1.18-3.38-28.11-1.29-28.11-1.29s6.08 8.58 10.57 13.82c4.4382834-.715006 8.7934922-1.874161 13-3.46 2.84-3.61 5.09-7.49 4.54-9.07z" fill="#bc141a"/><path d="m81.25 115.08c-1-1-2.06-2-3.13-2.91 1.66-1.81 2.79-4.26-.56-.5-2-2.18-4.64-3.6-.53.56-.93 1-1.87 1.9-2.82 2.84-1.46-1.15-2.89-2.32-4.27-3.54 1.53-1.21 3.12-4.55-.55-.49-1.16-1.05-2.27-2.15-3.34-3.33-.0142277-.074761-.0677892-.135974-.14-.16 0-.23-1.06-.79-.29.12-.92.22-1.43 2.6.31.37 1 1.16 2 2.3 3 3.39-.6.17-1 1.76.5.49 1.320619 1.321999 2.7451908 2.535894 4.26 3.63-.46 0-1.78 2.53.64.45 1.18.12 1.53.39.5-.42-.34.13.14 1.7 0 0 .9742557-.857723 1.8865382-1.783372 2.73-2.77.44.06 3 3.55 3.69 2.27z" fill="#800000"/><path d="m83.9 111.63c-.69 0-2.39-2.33-3.53-2.28.27.47 2.8 3.29 3.53 2.28z" fill="#800000"/><path d="m31.06 3.77c-2.41-1.92-12.84 2.61-8.06 4.23 1.56-2.39 7.16-2.64 8.06-4.23z" fill="#45403f"/><path d="m66.51 139.88c6 .6 3.41-10.31 7.38-9.11 3.61 20.29-14.56 25.14-11.14 12" fill="#fdcf9a"/><path d="m70.33 148.05c-.0302383-2.957886-.9234524-5.842585-2.57-8.3-.4042401.124248-.8288438.168407-1.25.13l-3.29 2.51-.5.47c-1.96 6.38 2.37 9.3 7.61 5.19z" fill="#fab575"/><path d="m66.07 136.46c-13.88.25-30.07-8-18.08-23.85 2.33-6.41 4.74-11.39 4.74-11.39l.5-.07.69-2.4-8.08 1.25s-13.2 4.55-15.25 21.35 15.69 32.49 34.9 30.16c2.34-.25 2.93-13.63.58-15.05z" fill="#34302f"/><path d="m54.73 143.57c-11.22-2.75-22.17-10.94-24-23.24-4.58 26.73 39.27 41.1 36.78 24.67-4.3031125.061171-8.5968266-.419268-12.78-1.43z" fill="#272423"/><path d="m80.9 139.88c-6 .6-3.4-10.31-7.37-9.11-3.61 20.29 14.55 25.14 11.14 12" fill="#fdcf9a"/><path d="m77.08 148.05c.0285277-2.959642.9256505-5.845734 2.58-8.3.4008119.124215.8221411.168387 1.24.13l3.29 2.51.51.47c1.96 6.38-2.38 9.3-7.62 5.19z" fill="#fab575"/><path d="m116.83 121.38c-2-16.8-15.25-21.35-15.25-21.35l-6.39-.14.56 3.55c1.868377 3.336985 3.4668087 6.818088 4.78 10.41 4.55 4.37 4.18 17.37-5.85 20.53-13.93 3.51-16.83-2-13.9 15.73 14.68 8 39.5-12.37 36.05-28.73z" fill="#34302f"/><path d="m92.69 143.57c11.22-2.75 22.17-10.94 24-23.24 4.59 26.73-39.24 41.1-36.77 24.69 4.3005881.053257 8.5908358-.433889 12.77-1.45z" fill="#272423"/><path d="m25.73 25.67s-20.73 13.1-7.83 50.65 73.35 40.49 102.1 15.39 8.9-74.61-29.56-82.08c-39.44-7.63-63.5-15.17-71.02-3.87-6.82 10.24 6.31 19.91 6.31 19.91z" fill="#34302f"/><path d="m42 47.31c-17.66 8.63-11.86 27.69.82 31.82s54.09 5.08 64.51-4.07 10.29-23.62-.94-27.44-48.64-8.01-64.39-.31z" fill="#fdcf9a"/><path d="m120 33.22c-4.77-8.68-17.1-18.15-26.37-18.08 15.73 7.57 26.47 23.94 26.37 18.08z" fill="#45403f"/><path d="m121.75 37.25c-2.22-1 1.47 6 2.67 6.23 2.08-1.48-.92-4.89-2.67-6.23z" fill="#45403f"/><path d="m106.39 47.62c-92.13-20.62-84.77 30.65-57.54 32.9-35.85-40.1 47.52-41.29 65.59-24.73-1.138577-3.9038441-4.163429-6.973787-8.05-8.17z" fill="#fab575"/><path d="m65.21 55c-3-3.36-15.37-4.93-16-.23 1.84 2.45 5.66.79 9 2.3 2.71 1.14 9.28 2.73 7-2.07z" fill="#34302f"/><path d="m95.36 51.12c-3.38-1.72-16.73 3.21-12 7 2.64-.42 18.31-3.28 12-7z" fill="#34302f"/><path d="m63.37 66.77c0-3.16-4.37-7.71-6-2.54-2.86 6.77 5.22 10.61 6 2.54z" fill="#34302f"/><path d="m61.44 63.77c-.5590459-.0815982-1.0851981.2854992-1.2015878.8383499-.1163896.5528508.2170951 1.1009244.7615878 1.2516501.5590459.0815982 1.0851981-.2854992 1.2015878-.8383499.1163896-.5528508-.2170951-1.1009244-.7615878-1.2516501z" fill="#fff"/><path d="m78.77 72.08c-1-3.5-8.12-1.43-5.9 1.14 1.31-1.63 5.12-2.11 3.84 1.22-10.32 4.39 5.29 4.17 2.06-2.36z" fill="#f7994d"/><path d="m20.57 199c5.67 10.32 140.23 11.57 103.32-14.23 0 0 8.53-15.66-4.56-16.51 0 0 .29-14.8-10.81-11.95 0 0-7.12-17.08-23.34-5.7-1.7-10.67-19.88-6.88-19.92 1.14-10.36-8.13-29.3-6.06-30.74 8.54-9.29-1.41-9.41 9.44-7.4 12.81-12 1.24-8.56 13.6-3.7 17.07 0 .03-11.42 2.03-2.85 8.83z" fill="#bab3a7"/><path d="m122.75 200.17c16.22-7.4 1.14-15.37 1.14-15.37 1.377997-2.632255 2.284996-5.485239 2.68-8.43-3.1 2.95-9.15 5.29-13.78 3.27-1.5 4.65-8.17 6.61-11.94 3.51-4 8.94-16.24 16.16-23.55 7.45-4.09 7.71-16.16 8-20.63.13-7.77 5.17-19.73 1.5-23.13-7.65-5.2 3-11.54-2-11.74-8.08-7 4.72.51 15.17 1.62 15.2 0 0-11.39 2-2.85 8.83 12.78 10.22 87.43 7.84 102.18 1.14z" fill="#a49e8a"/><path d="m23.14 151.78c4 2.46 10.73-6.78 4.52-9.06 1.73-8-11.08-12.08-11.37-2.85-7.82-3.15-11.71 9.16-2.93 9.9-.52 5.85 7.7 7.75 9.78 2.01z" fill="#bab3a7"/><path d="m14.36 180.5c.12 1.43-.41 3.07-1.73 3.61 4 5.08-9.35 12.64-8.34 2.91-7.15.32-4.82-12 3-7.93 1.51-3.72 6.52-3.42 7.07 1.41z" fill="#bab3a7"/><path d="m117.31 144.47c-4.8.74-3 10.37 2.7 8.67.32 7 16.29 8.62 9.9 1.64 9.76-5.48 3.83-17.14-5.44-10-.42-6.05-3.93-.68-7.16-.31z" fill="#bab3a7"/><path d="m145 184.64c2-3.44 0-8.24-5.18-5.64.84-2.76-2.29-4.2-5.24-1.46-1.9-2.74-6.4 3.22-2.08 3.9-.892645 1.497109-.570033 3.420377.762264 4.54427 1.332297 1.123892 3.282426 1.117853 4.607736-.01427.947769 1.185631 2.471854 1.752367 3.964005 1.474028 1.492151-.27834 2.709417-1.356436 3.165995-2.804028z" fill="#bab3a7"/><path d="m150.37 160.42c-.64-.75-1.84-.37-2.81-.48 1.45-2.71-4.43-5.44-5.15-.93-4.09-1.08-4.78 5.27.27 3.67-.67 3 5.74 6.19 4.34 1.23 1.34.41 4.58-1.11 3.35-3.49z" fill="#bab3a7"/><path d="m2.14 162.28c-.22.48-.92 1.7.5 2.33-3.71.6-1.36 5.15 1.94 2.71.72 2.21 6.54 3.46 5.47-1.1 5.57-2.23-.69-6.5-4.23-3.42.44-1.66-2.26-2.87-3.68-.52z" fill="#bab3a7"/><path d="m125.3 130.55c-.08-4.07-5.18-3.06-6.12-.5-1 3.95 6.04 4.66 6.12.5z" fill="#bab3a7"/><path d="m122.57 129c.07-.5.15-1 .22-1.51l-1.18-1" fill="#bab3a7"/><path d="m22.35 129.64c2.69 2.39 8.41-3.29 2.54-4.82-1.1687577-.061768-2.2667296.5618-2.8123651 1.597218-.5456355 1.035419-.4393018 2.293621.2723651 3.222782z" fill="#bab3a7"/><path d="m96.49 61.61c-3.19-1.45-4.75 6.54-10.6 1.82-1.04 6.05 11.87 4.06 10.6-1.82z" fill="#34302f"/><path d="m55 180.74c-1.86 1.82-9.73-2.53-5.65 1.88-2.17 1.55-5.24.59-7.94-.42-.16 3.79 8.48 4.35 9.69 1 .8.21 6.95-.78 3.9-2.46z" fill="#a49e8a"/><path d="m93.58 177.05c-3 5.57-16.07 1.9-9.07 4.9-1 1-3.29.21-5.09.66.25 2.88 5.93 2.38 7.41-.25 2.17 1.1 11.26-4.49 6.75-5.31z" fill="#a49e8a"/><path d="m114.24 173.62c-.84 1.51-4 .32-5.24 1.49.53 3.77 10-.83 5.24-1.49z" fill="#a49e8a"/><path d="m124.46 151.73c-1.66-.25-3.24-1.69-3.1-3.36-1.165505.672023-2.604391.65646-3.755087-.040617-1.150697-.697076-1.830813-1.965176-1.774913-3.309383-2.73 2.48-.89 9.54 4.18 8.12.32 7 16.29 8.62 9.9 1.64 2.939678-1.569329 4.885358-4.519838 5.17-7.84-2.72 1.89-6.26 4.91-10.62 4.79z" fill="#a49e8a"/><path d="m143.34 187c1.31-1 2.15-3 2.55-5.51-2.18 2.52-7.39 3.13-9.78-.63-1.035282.384229-2.19041.264803-3.125185-.323106s-1.54273-1.57734-1.644815-2.676894c-.49.72-1.33 3.64 1.18 3.58-.879051 1.496579-.550731 3.408946.777143 4.526635 1.327874 1.11769 3.268218 1.114886 4.592857-.006635 1.19 1.41 2.8 2.04 5.45 1.04z" fill="#a49e8a"/><path d="m27.32 148.4c-2.31.29-4.9-1.17-5.27-3.46-1.19 1.1-5.13 2.85-6.17-.38-1.18 3.62-6.51 2.84-7.37-1.39-.47934562 1.543056-.19758019 3.222049.75922469 4.524092.95680491 1.302044 2.47498401 2.07246 4.09077531 2.075908-.52 5.85 7.7 7.75 9.78 2 2.62 1.17 5.53-.66 6.86-4.4-.8061658.537309-1.7214861.889092-2.68 1.03z" fill="#a49e8a"/><path d="m12.69 188.55c1.0260883-1.310132 1.0011161-3.158073-.06-4.44 1.55-.93 2.31-3.08 1.24-5.44-.3935506 1.769096-1.5656556 3.265513-3.1889871 4.071354-1.62333155.80584-3.52392569.834746-5.1710129.078646-.36579555.985672-1.14097467 1.764332-2.12499795 2.134539-.98402327.370208-2.08021956.295594-3.00500205-.204539.60118929 1.585449 2.23714982 2.526859 3.91 2.25-.8 6 4.71 6 8.4 1.55z" fill="#a49e8a"/><g fill="#e1d1cc"><path d="m54.61 152.85c-1.3-2-3.22-2.08-5-1.3-3.52-6.35-15.64 5.7-9.39 4.48 1.8013799-2.303789 4.6335897-3.556714 7.55-3.34-4 4.14.34 1.55 3.51.33 1.18-.3 3.18 2.23 3.33-.17z"/><path d="m78.62 148.28c-1-1.89-7.35-1.82-6.43 1.19 1.44.09 2.49-1.39 4.66-.65.94.25 1.81 1.18 1.77-.54z"/><path d="m102 153c-1.31-6.5-13.88-1.32-9.52-.17.9985306-1.023814 2.3791071-1.584335 3.8087281-1.546364 1.4296211.037971 2.7784967.670988 3.7212719 1.746364-5.16 2.77.35.14 2.61 2.26 2.06 3.08 2.78-1.7-.62-2.29z"/><path d="m32.77 165.49c-1.73-1.05-5.13 3.79-2.13 3.81-.21-1.77 2.83-2.3 2.13-3.81z"/><path d="m112.34 160.49c-1.18 1 1.49 1.67 2.55 3 1.55-.96-.61-3.28-2.55-3z"/><path d="m3.59 179.59c-.87-.56-3.39 3.12-1.28 2.48-.31-.68 2.55-1.42 1.28-2.48z"/><path d="m24.29 139.72c-.2139137-.582697-.7267923-1.003716-1.34-1.1-.11-2.69-5.94-.81-3.32 1 .5-.14.25-1.87 2.06-.82-1.69.58 1.83 1.7 2.6.92z"/><path d="m12.7 141.72c-.45-.46-3.71 1.81-1.55 1.73-.15-.54 2.61-.71 1.55-1.73z"/><path d="m131.29 145.13c-.75-.9-4.3-.8-4.5 1.18 1.79 0 2.07.14 1.14-.16-2.58 1.36-3.23 1.9.59 1.11.29 0 .52-.09-.59-1.11.36-.95 3.63.85 3.36-1.02z"/><path d="m146.28 158.67c-.78-.67-2.76 1.25-.1.71.19-.08.33-.19.1-.71z"/><path d="m143.36 180.69c-.1-.9-4.21-.69-2.25.64.22-.56 2.41.83 2.25-.64z"/></g><path d="m113.68 116.9c-.86-1.09-1.94-6.3-4.26-6.06-.28.95 2.88 8.56 4.26 6.06z" fill="#45403f"/><path d="m113.8 119.72c-.42 1.26 1.16 4.63 1.2 0-.07-.45-.65-.81-1.2 0z" fill="#45403f"/><path d="m35.12 112.53c-1.82.09-3.46 9.4-1.39 5.67-.48-1.72 3.49-4.99 1.39-5.67z" fill="#45403f"/><path d="m37.22 109.33c-1.23.9-.23 3.32.8.33-.02-.24-.1-.44-.8-.33z" fill="#45403f"/><path d="m98.38 113.32c-1.41-.71.35 4.31 1.75 2.61-.066497-1.123102-.736268-2.122018-1.75-2.61z" fill="#45403f"/><path d="m100.82 117.93c-.53-.36-1 .36-.67.8-.1.78 1.78.49.67-.8z" fill="#45403f"/></g></svg>