<svg height="227" viewBox="0 0 131 227" width="131" xmlns="http://www.w3.org/2000/svg"><g fill="none"><path d="m130.088 213.42c-2.532 17.388-121.908 16.8-127.812 1.116-4.32-18.696 127.524-18.3 127.812-1.116z" fill="#363d42" opacity=".3"/><path d="m68.48 191.064s-1.056 9.6-.9 13.2c10.3064424 1.795532 20.8247705 2.026126 31.2.684 2.844-14.328-13.296-10.92-17.88-13.2z" fill="#363d42"/><path d="m79.484 171.732-11.004 19.332s6.348 8.316 13.2 2.22l14.892-15.6z" fill="#363d42"/><path d="m32.456 180 62.244-1.932c6.48-.18 10.968-18.252.228-21.528l-24.444 1.26c-2.2240586.163317-3.9703425 1.971599-4.056 4.2l-37.92 2.4c-.144 2.208 1.692 15.6 3.948 15.6z" fill="#363d42"/><path d="m35.288 173.652c-.2953841 2.909051-.0924751 5.847172.6 8.688.348 6 19.392 7.92 25.308-5.388-.42-9.66-11.712-6.096-13.908-7.128z" fill="#363d42"/><path d="m66.596 162.72v.144c.7257282-1.085645 1.9235756-1.762495 3.228-1.824l24-1.332c5.076.24 7.2 9.192 6 12.504 1.644-3.06 1.692-13.44-5.304-14.772l-24 1.344c-2.0970686.170404-3.7600004 1.838421-3.924 3.936z" fill="#4d555b"/><path d="m26.6 163.512c-19.8 3.204 14.4 12.636 20.4 11.952 25.536.744 52.08-22.932 31.116-20.4.012.048-18.336 17.028-51.516 8.448z" fill="#4d555b"/><path d="m79.928 155.808s-20.496 16.992-53.736 8.34l-2.196 1.572c20.94 21.12 69.564-6.12 55.932-9.912z" fill="#42484e"/><path d="m36.644 194.268c0-3.396-.204-24.708 3.6-26.4-9.288-3.6-5.772 15.468-7.668 23.676-.756 2.796 2.028 6.984 12 6.648-4.92-.816-7.176-2.34-7.932-3.924z" fill="#4d555b"/><path d="m102.92 147.852c-1.2 4.428-4.8 4.992-9.444 3.036-23.58-11.016-38.4-24.48-19.332-34.428 14.856.744 30.252 29.376 28.776 31.392z" fill="#2c3338"/><path d="m74.324 93.6c-6.888-5.808-7.704-3.408-10.8 1.032l-17.472 24.432 9.084 6.492c.684-2.928 24.744-29.556 19.188-31.956z" fill="#2c3338"/><path d="m1.4 186.636c7.2 6.24 8.196 2.4 9.828.372l42.312-59.268-9.084-6.48-43.704 61.26c-.46154324.631173-.65264213 1.420204-.5310385 2.192612.12160363.772409.54589103 1.464557 1.1790385 1.923388z" fill="#2c3338"/><path d="m77.516 158.148c5.292-7.872 1.404-8.4-.864-9.804l-64.08-34.572-5.304 9.828 66.252 35.748c1.4349406.771058 3.2232475.234029 3.996-1.2z" fill="#2c3338"/><g fill="#ea400c"><path d="m62.408 96.168 1.416 2.184-2.532-.624-.36.504 2.808 4.32 3.36.852 1.848 2.82 2.544-3.576-6.54-10.056z"/><path d="m58.472 120.888.96-1.344-2.184-.54z"/><path d="m66.248 106.404 1.224 1.884.96-1.344z"/><path d="m58.004 121.548-6.54-10.044-2.556 3.576 1.416 2.184-2.532-.636-1.74 2.436 2.892 2.064 4.668 1.176 1.836 2.82z"/><path d="m71.972 101.988.96-1.344-2.196-.552z"/><path d="m57.908 102.468 1.416 2.196-2.532-.636-.36.504 2.808 4.32 3.372.852 1.836 2.82 2.544-3.576-6.54-10.044z"/><path d="m53.408 108.78 1.416 2.184-2.532-.636-.36.504 2.808 4.32 3.372.852 1.836 2.82 2.544-3.576-6.54-10.044z"/><path d="m61.748 112.704 1.224 1.884.96-1.344z"/></g><path d="m48.473577 114.14918h2.688v18.516h-2.688z" fill="#4d555b" transform="matrix(.58112915 -.81381135 .81381135 .58112915 -79.563033 92.233781)"/><path d="m18.716 130.992c-2.94 11.352 9.384 29.472 14.4 32.76 10.164 6.564 42.732-4.704 44.4-9.516 9.972-68.22-57.06-40.164-58.8-23.244z" fill="#42484e"/><path d="m73.616 116.64c-2.0129948-2.144042-4.522839-3.759574-7.308-4.704 2.892 7.2 7.476 26.892-22.488 52.392 6.1106098-.154998 12.1694239-1.1648 18-3 7.848-6.936 23.412-30.528 11.796-44.688z" fill="#ea400c"/><path d="m77.3 151.488c-9.288 10.8-45.036 16.488-52.308 3.96-1.62 21.384 27.444 19.2 48.372 9.444 9.144-4.98 7.368-8.748 5.712-18.372-.2416149-.315168-.6235062-.490389-1.02-.468 0 0-.132 4.692-.756 5.436z" fill="#ea400c"/><path d="m25.844 103.416c-15.72 24.36 57.828 51.732 53.916 11.028 0 0-43.728-20.28-53.916-11.028z" fill="#2c3338"/><path d="m28.448 102.888c-14.796 23.184 54.732 48.744 50.952 10.416 0 0-41.328-19.152-50.952-10.416z" fill="#363d42"/><path d="m63.368 125.916-18.408-3.792-.9 7.02c5.9833301 2.555081 12.4180055 3.885268 18.924 3.912z" fill="#4d555b"/><path d="m28.676 101.808c-14.016 18.576 53.916 43.62 49.524 10.32 0 0-40.476-17.508-49.524-10.32z" fill="#2c3338"/><path d="m81.416 56.544c20.556 29.4 9.6 63.912-21.42 68.148l5.004-63.42s3.252-7.836 16.416-4.728z" fill="#4d555b"/><path d="m79.196 57c20.604 29.4 9.588 63.912-21.396 68.148l4.944-63.432s3.3-7.824 16.452-4.716z" fill="#2c3338"/><path d="m81.008 107.664 3.216-4.092-.684-6.66-3.384 10.56z" fill="#42484e"/><path d="m22.532 100.644c-.192 1.032-3.756-26.676 4.644-41.292 23.592-23.904 43.68-10.8 52.656-3.18l-11.124.288z" fill="#42484e"/><path d="m84.572 88.8s.468 11.376-4.416 18.708c-18.204 25.08-75.228-18.42-44.256-27.108z" fill="#ffc392"/><path d="m84.572 88.8s.468 11.376-4.416 18.708c-18.204 25.08-75.228-18.42-44.256-27.108z" fill="#ffc392"/><path d="m83.42 99.6c.7543595-3.1944814 1.1567562-6.4619428 1.2-9.744-.4496873-.5533075-.9991928-1.0173344-1.62-1.368l-46.056-7.908c-.672.672-6.864 10.212-6.864 10.212v7.2c2.2502632 2.933536 4.961471 5.482639 8.028 7.548l2.088.156c-1.98-2.184-1.392-10.524 2.976-10.8 4.608 1.716 7.512 7.944 14.4 2.4 0 0 8.772 2.22 15.6 1.848 1.236 1.656 7.008 5.076 10.248.456z" fill="#eaaf83"/><path d="m55.976 95.076c-1.332 5.004-9.6 3.456-8.772-2.064 1.32-5.004 9.612-3.468 8.772 2.064z" fill="#2c3338"/><path d="m50.204 93.72c-.348 1.668-3.66-.54-.756-1.128.3.108.588.216.756 1.128z" fill="#f6f6f6"/><path d="m82.928 97.2c-1.032 4.572-8.112 4.164-7.2-1.704.996-4.632 8.076-4.224 7.2 1.704z" fill="#2c3338"/><path d="m78.848 97.128c-.348 1.668-3.66-.54-.756-1.128.3.12.576.216.756 1.128z" fill="#f6f6f6"/><path d="m81.872 109.368s-3.264-4.968-11.508-6.588c-1.6025686 8.419856-4.059267 16.65442-7.332 24.576 13.632-.42 18.84-17.988 18.84-17.988z" fill="#363d42"/><path d="m31.568 94.8s25.992 25.56 52.632 8.772l-2.4 5.796-43.92 1.512s-11.376-8.316-6.312-16.08z" fill="#363d42"/><path d="m30.752 93.42s1.704 19.044 18.432 26.1c0 0-13.716 2.736-23.148-11.436 0 0-1.464-9.096 4.716-14.664z" fill="#42484e"/><path d="m70.364 102.78c-9.228-2.724-32.4 7.968-32.484 8.1s10.68 16.992 25.2 16.476c3.12-1.188 9.12-17.664 7.284-24.576z" fill="#42484e"/><path d="m71.984 97.068c5.532.132 11.136-3.732 14.184-5.868 0 0-.36-22.032-14.22-33.9241333 0-.0478667 4.584 12.8641333.036 39.7921333z" fill="#363d42"/><path d="m34.664 85.668s21.192 10.944 37.32 11.4c6.384-27.456 0-39.84 0-39.84s-20.76.66-37.32 28.44z" fill="#42484e"/><path d="m73.196 60.66c-.2962535-1.1776764-.6978728-2.3263075-1.2-3.432 0 0-20.7.552-37.104 27.6 5.4469906 2.6767939 11.0582511 5.005467 16.8 6.972-17.484-12.6 13.392-29.1 21.504-31.14z" fill="#363d42"/><path d="m81.056 54 .36 2.592s-44.016 9.288-50.352 51.804c-.12.792-.564 4.98 12.192 10.452.768.336-7.2-.432-12.756-5.472l-9.9-11.376c.792-19.032 15.972-47.7 51.732-53.628z" fill="#4d555b"/><path d="m61.784 127.068c-12.264-2.652-19.044-15.972-7.428-22.104-5.3714684 1.708596-10.6333087 3.744403-15.756 6.096 0 .252 10.68 16.992 25.2 16.488l.144-.096c-.72-.096-1.44-.252-2.16-.384z" fill="#363d42"/><path d="m88.904 152.832c8.952.936 8.28-1.5 8.4-6.936.204-9.168.684-29.892.684-30l-11.16-.252c1.044 2.784-3.828 38.328 2.076 37.188z" fill="#2c3338"/><path d="m84.116.408c3.6 41.232 2.736 112.524 2.736 112.524l11.16.264s.948-87.78-2.856-103.344c-1.896-7.776-11.184-11.052-11.04-9.444z" fill="#aeaeae"/><path d="m95.156 9.852c-3.336-8.988-13.536-13.86-10.716-5.664 4.0755687 1.65772318 7.1696402 5.08772243 8.4 9.312 3.324 13.644 3.012 82.8 2.88 99.6h2.4s.84-87.684-2.964-103.248z" fill="#d2d5d8"/><path d="m97.316 144-2.412-.996 2.448-.9.012-.636-4.752-1.98-3.252 1.188-3.108-1.308-.096 4.404 11.052 4.632z" fill="#ea400c"/><path d="m86.66 121.356-.036 1.644 2.112-.768z" fill="#ea400c"/><path d="m88.388 137.712-2.076-.876-.036 1.656z" fill="#ea400c"/><path d="m86.672 120.54 11.064 4.632.108-4.392-2.412-1.008 2.448-.888.072-3-3.552-.084-4.512 1.656-3.108-1.308z" fill="#ea400c"/><path d="m86.132 144.588-.036 1.644 2.112-.78z" fill="#ea400c"/><path d="m97.484 136.26-2.4-.996 2.448-.9.012-.636-4.752-1.992-3.252 1.2-3.108-1.308-.108 4.392 11.064 4.632z" fill="#ea400c"/><path d="m97.664 128.52-2.4-1.008 2.448-.888.012-.636-4.752-1.992-3.264 1.2-3.108-1.308-.096 4.392 11.064 4.632z" fill="#ea400c"/><path d="m88.556 129.972-2.076-.876-.036 1.644z" fill="#ea400c"/><path d="m91.068232 105.153479h2.688v18.516h-2.688z" fill="#4d555b" transform="matrix(.02268733 -.99974261 .99974261 .02268733 -24.066386 204.204234)"/><path d="m83 125.424s2.796-10.8 15.708-9.6c0 0 6.684.492 2.268 6.348 6.504 19.752-18.288 20.244-17.976 3.252z" fill="#ffc392"/><path d="m102.26 132.324c-11.832-2.184-13.284 6.252-10.008 14.748 11.88 8.82 13.356-8.52 10.008-14.748z" fill="#eaaf83"/><path d="m17.8276867 134.148c-.1436867 3.408 49.3803133 42.468 79.4523133 2.844 2.172-2.868-3.6-13.32-9.456-10.8s-19.2 12.24-60.588-3.432c0-.06-8.904-.504-9.4083133 11.388z" fill="#4d555b"/><path d="m32.096 202.536c-15.372 21.696-1.728 24.924 15.252 20.544 2.508-4.608.936-12.504.756-20.484-5.352-.912-16.008-.06-16.008-.06z" fill="#363d42"/><path d="m30.968 176.196 1.128 26.34s8.496 4.212 16.008.06c.336-10.044 11.316-37.404-6.948-37.404-2.8153641.093439-5.476389 1.309112-7.3901333 3.376136s-2.9211947 4.813651-2.7978667 7.627864z" fill="#363d42"/><path d="m26.876 212.652c6.8195794-.072702 13.6359759.328262 20.4 1.2l-1.092-9.108s-7.392 1.932-13.896-1.128c.024-.048-4.356 6.792-5.412 9.036z" fill="#42484e"/></g></svg>