<svg height="163" viewBox="0 0 198 163" width="198" xmlns="http://www.w3.org/2000/svg"><g fill="none"><path d="m11.3466508 61.0588551s-3.18357571-2.7993479-5.55768775-4.5167537c1.79120382 2.3623189 5.55768775 4.5167537 5.55768775 4.5167537z" fill="#f9b5ab"/><path d="m10.89118 51.189087c-1.98000002 2.6835942 3.1009773 7.920855 3.1009773 7.920855s-8.73182357-6.0333623-9.09761618-5.1593043c-.16283671.8268116.23599523 1.7221304.89442193 2.5985507 2.37411204 1.7174058 5.55768775 4.5167536 5.55768775 4.5167536s-3.77592374-2.1544348-5.55768775-4.5167536c-1.07849821-.7772029-1.98707986-1.3347101-2.35995232-1.3063623-1.83132301 2.5607536 5.59308701 9.0358696 5.59308701 9.0358696s-6.44738975-3.7466377-8.7318236-3.9923189c-2.46143028 5.0104783 11.67940406 8.6791594 12.03575686 9.5366812.3563528.8575217-6.60786652 4.2521739-5.19189512 7.7342319 1.06197854 1.6536231 5.33113232-3.0025073 7.42676992-4.0702754 1.2177354-.3945073 3.9246008-.3992319 5.2390942-.3968696l2.6856257-10.6115362-5.6332062-4.6254203s-5.2508939-7.3657101-5.9612395-6.6641014z" fill="#f9b5ab"/><path d="m9.31001192 65.4291449 9.97315848 6.253058 2.178236-11.0131304-4.406031-4.0490145z" fill="#474b4f"/><path d="m19.1486532 80.8078406c1.9682002-.1677247 30.6463408-1.1976957 58.6849344 8.913029l7.2710131-8.6059276c-30.9696543-19.3143188-64.693373-21.9081449-64.693373-21.9081449s-3.615447 9.8296087-1.2625745 21.6010435z" fill="#474b4f"/><path d="m20.4112277 59.2067971s-3.615447 9.8296087-1.2625745 21.6010435c.8354231-.0708696 6.4969487-.2929276 14.8676996.2362319-1.2696543-4.6443189-1.2743743-13.1817392 1.4655304-19.4418841-9.1542551-1.9394638-15.0706555-2.3953913-15.0706555-2.3953913z" fill="#1f1e21"/><path d="m123.005435 133.615116c-.368153.297652-9.491728 11.298971-8.259833 26.571362.884982.675623 7.648605-2.14971 8.321192-3.356855.672586-1.207145 2.553468-21.497101 2.553468-21.497101s-2.593587-1.932377-2.614827-1.717406z" fill="#1f1e21"/><path d="m67.2940405 112.023522c-.4885101.113391-1.8124434 2.73084-2.1027175 6.34755-18.114994 4.620696-27.5548033 13.937682-28.0362336 15.565319 5.7606436 9.231942 13.1992133 14.970015 13.1992133 14.970015s25.6361621-24.546855 64.2780213-18.033942l-11.327771-13.753421c-9.1778545-3.113536-26.1978307-7.401144-36.0105125-5.095521z" fill="#1f1e21"/><path d="m37.1550894 133.943478c5.7606436 9.231942 13.1992133 14.970015 13.1992133 14.970015s8.1087962-8.107479 22.4974255-13.606957l-7.7406436-16.907116c-18.0630751 4.623058-27.4769249 13.911696-27.9559952 15.544058z" fill="#474b4f"/><path d="m70.6050536 130.4-3.9694398 6.746783-9.6356853-2.544218 3.858522-6.564884 9.704124 2.234754-.3327533-.727594-9.0220977-2.078841 3.3676519-5.721536 2.3481526.583493-.3351132-.734682-1.6897259-.406318.8377831-1.417392-.3374732-.734681-1.1799762 1.991435-4.3470321-1.074855c-.3728725.12284-.745745.248043-1.1091776.377971l5.1210965 1.26384-3.3747318 5.733348-9.3737306-2.161522 1.333373-2.274913c-.3610727.167725-.7079857.337812-1.0643385.505537l-.9439809 1.615826-1.5127294-.351986-.8307033.45829 2.0083195.472464-3.6555662 6.227072-5.8998808-1.561492c-.2029559.170087-.396472.337811-.5829082.500811l6.1594755 1.627638-3.0278188 5.166391-3.0372586-.831536-.2076758.600029 2.9121811.796101-1.1799761 2.003247c.1510369.184261.2997139.363797.4507509.543333l1.385292-2.362319 9.1400953 2.494609-3.9293206 6.675913.5073898.444116 4.0827175-6.938131 5.4656496 1.495348.7079857-.472463-5.8456019-1.592203 3.0915375-5.249073 9.6333254 2.54658-.3823123.652c.6112277-.307102 1.2342551-.611841 1.8879619-.914218l-.49795-.129927 3.6414065-6.189275zm-17.6996424 9.839058-9.1353754-2.51587 3.0325387-5.171116 9.2038141 2.430827zm3.4313707-5.823116-9.2038141-2.428464 3.6744458-6.262507 9.3713707 2.159159z" fill="#1f1e21"/><path d="m181.716329 2.6835942c-.221836 2.96707247-.115638 7.26649276-.115638 7.26649276s.804744-4.33957971.115638-7.26649276z" fill="#f9b5ab"/><path d="m188.029201 16.351971c-.45783-.8268116 6.178356-14.26131883.446031-15.56295651-1.354612 1.94891305-2.697425 9.41147831-2.697425 9.41147831s-.205316-9.98552179-3.523409-10.2004928c-.273754.27166667-.441311 1.3417971-.542789 2.6835942.693826 2.92691305-.115638 7.26649276-.115638 7.26649276s-.106197-4.29942029.115638-7.26649276c-.254875-1.07485507-.707986-1.95836232-1.49149-2.36231884-.943981-.27875362-2.001239 10.45089854-2.001239 10.45089854s-.792944-7.35389854-4.309273-7.53343477c-1.052539.10630435 1.345172 8.96027537 1.345172 8.96027537l-.084958 7.386971 10.42391 4.7246377c.892062-1.0323333 2.732824-3.1466087 3.879761-3.8434928 2.286794-.9449275 8.967819-1.2992753 8.342432-3.1962174-1.838403-3.356855-9.328892-.0921304-9.786723-.918942z" fill="#f9b5ab"/><path d="m174.022884 18.3528551 9.227414 4.667942 3.591847-11.7123768-12.937258.4039565z" fill="#474b4f"/><path d="m172.342598 16.8078986c-21.496805 33.407913-50.439261 69.5490289-50.439261 69.5490289l10.813302 5.282145s35.847676-30.8495218 58.581096-61.2572899c-.377592-2.2701884-9.286412-11.1501449-18.955137-13.573884z" fill="#474b4f"/><path d="m172.342598 16.8078986c-2.421311 3.7655362-4.94174 7.5594202-7.502288 11.3391304 6.806632 3.1047773 12.683227 7.9383043 17.045936 14.0203623 3.287413-3.8954638 6.459189-7.8499855 9.411489-11.795058-.377592-2.2607391-9.286412-11.1406956-18.955137-13.5644347z" fill="#1f1e21"/><path d="m109.452229 93.673029s-11.6558047 19.401725-7.94832 27.946232c1.784124 4.10571 11.606246 12.822667 27.670441 10.051667 15.811681-2.730841 13.746723-11.358029 13.340811-15.711783-.882622-9.48471-9.135376-32.1157247-9.135376-32.1157247z" fill="#1f1e21"/><path d="m100.98 114.877203c-.066079.472464-.110918.930754-.146317 1.384319 3.115137 1.39613 12.590346 4.918348 25.839118 3.160782 5.416689-.744295 10.710687-2.20516 15.743242-4.344304-.056639-.432304-.125078-.883507-.200596-1.351246-21.815399 9.267376-37.981073 2.693043-41.235447 1.150449z" fill="#b10d28"/><path d="m121.159952 108.933609 6.643266-14.386522-18.483146 6.614493z" fill="#3c3f42"/><g fill="#b10d28"><path d="m107.39435 103.124667 13.281812 7.852347 1.281454-2.430826-10.076996-6.392434z"/><path d="m116.199333 119.110478 3.983599.226783 10.803862-25.0901885-4.207795 2.3481449z"/><path d="m139.173468 44.4352174 1.819524 3.0851884c12.36851-11.0438406 31.956114-3.1300725 31.956114-3.1300725s-4.033158-6.2790434-.592348-10.0185942c0 0-17.702002-7.9492029-33.18329 10.0634783z"/><path d="m143.5559 18.0717391s-11.037497 11.958058-6.515828 26.9091739l3.521048.6142029c.424792-11.0721884 15.889559-21.9223188 15.889559-21.9223188s-9.756043 1.9796232-12.894779-5.601058z"/></g><path d="m85.6426698 23.2286812c-21.3009296 9.4232898-33.4027652 28.7612318-19.8920381 59.3438116 13.1331347 29.7345072 33.5325626 29.1817242 54.8429323 19.7607972 21.310369-9.4209277 35.432324-24.1405364 22.299189-53.8821306-13.510727-30.584942-35.946794-34.6457681-57.2500832-25.2224782z" fill="#1f1e21"/><path d="m65.34 69.593913c-4.5358284-25.0712898 17.6500834-42.1910144 17.6500834-42.1910144s-27.2480095 11.5753623-17.6500834 42.1910144z" fill="#52575b"/><path d="m103.302193 62.1738696c-33.112491 14.6463768-31.5926817 19.3521159-29.1430512 24.8988405 2.4496305 5.5467247 4.8992611 9.839058 38.0164722-4.8073188 34.566222-15.2889275 31.592682-19.3497536 29.140691-24.8988406-2.45199-5.5490869-3.45025-10.4816087-38.014112 4.8073189z" fill="#f9b5ab"/><path d="m103.302193 62.1738696c-27.8214779 12.3053188-31.1938497 17.5945507-30.1082717 22.2577681l66.9164477-29.5974928c-2.421311-4.075-7.768963-5.5042029-36.808176 7.3397247z" fill="#d68c81"/><path d="m86.5890107 75.7501159c-3.6447626 1.6140173-5.2924525 5.8799573-3.6803137 9.5284907 1.6121387 3.6485334 5.8736868 5.2981818 9.518681 3.6846883 3.6449941-1.6134934 5.2932958-5.8791965 3.6816804-9.5279616-.7735779-1.7529636-2.2114925-3.1262618-3.9970859-3.8174663s-3.7724278-.6436292-5.5229618.1322489z" fill="#fff"/><path d="m87.12236 76.9619855c-2.9778145 1.3221763-4.3215835 4.8100062-3.0017702 7.7912676 1.3198134 2.9812614 4.8036805 4.327594 7.7824154 3.0074968 2.9787348-1.3200972 4.3249334-4.8069882 3.0071974-7.7891702-.6333877-1.4334264-1.8100396-2.556025-3.2707777-3.1205239s-3.0857379-.5245923-4.5170649.1109297z" fill="#231f20"/><path d="m123.26503 59.5304348c-3.644833 1.6134715-5.293125 5.8789431-3.681735 9.527636 1.611391 3.648693 5.87238 5.299182 9.517623 3.6866403 3.645243-1.6125418 5.294621-5.8775928 3.684159-9.5266966-.773633-1.752957-2.2114-3.126371-3.996859-3.8179669-1.78546-.6915959-3.772283-.6446925-5.523188.1303872z" fill="#fff"/><path d="m123.798379 60.7375797c-2.977814 1.3221763-4.321583 4.8100062-3.00177 7.7912676s4.80368 4.327594 7.782415 3.0074968c2.978735-1.3200971 4.324934-4.8069882 3.007198-7.7891702-.633388-1.4334264-1.81004-2.556025-3.270778-3.1205239s-3.085738-.5245923-4.517065.1109297z" fill="#231f20"/><path d="m77.2687856 73.7723455 22.1247788-.0022268-.0002399 2.3859177-22.1247788.0022268z" fill="#1f1e21" transform="matrix(.99489833 -.10088266 .10088266 .99489833 -7.111951 9.293514)"/><path d="m111.848817 58.7968473 20.290925-.0101466-.001192 2.3848261-20.290926.0101466z" fill="#1f1e21" transform="matrix(.73016228 -.68327377 .68327377 .73016228 -8.067124 99.541081)"/><path d="m99.0306794 53.5348696c-24.5741836 10.8666666-37.523242 22.6593623-37.523242 22.6593623l5.2367342 11.3934638s12.87118-10.8666667 37.6789984-21.8372754c24.807819-10.9706087 41.59888-13.2289855 41.59888-13.2289855l-4.896901-11.5446522s-17.522646 1.689058-42.0944696 12.558087z" fill="#d82035"/><path d="m121.698021 118.975826.0354-.004725.285554-.146463-.292634.129927z" fill="#7a888f"/><path d="m140.933993 120.653072s-17.565125 10.580827-15.122575 11.433624c2.442551.852797 10.383791 5.669565 8.063957 7.108217-1.651966.923667-8.259833-3.871841-8.259833-3.871841s-4.575947 7.760218-3.384171 15.574769c.604147.455927 5.050298 3.113536 10.421549 5.067173.471991 1.492986 2.47087 5.263247 2.817783 5.381363 6.626746 2.24184 23.809559 3.182043 26.26863-6.805841 3.719284-15.08813-20.80534-33.887464-20.80534-33.887464z" fill="#1f1e21"/><path d="m125.615542 135.323072s-4.575947 7.760218-3.384171 15.574769c.597068.451202 4.9559 3.071014 10.261072 5.008116-.811823-5.589247-1.692085-11.117073.672587-16.609464-2.312753-.179536-7.549488-3.973421-7.549488-3.973421z" fill="#474b4f"/><path d="m129.561383 137.846029c-.398832-.222058-.792944-.455928-1.179977-.687435l.096758.155913-3.235494 2.015058-.873183-1.488261c-.096758.236232-.198236.472464-.299713.72287l.639547 1.096116-1.347533.840985c-.096758.29529-.193516.600029-.285554.914218l1.95168-1.216594 2.572348 4.375014-3.978879 2.256015-1.276735-2.213493c-.056638.328362-.103838.663811-.143957 1.001623l.877903 1.521333-1.03602.588218v.722869l1.354613-.770116 2.657306 4.601797-.783504.380334c.219476.115753.448391.236232.689106.35671l.408272-.196073.328033.571682c.314661.157488.648987.314975 1.00298.472463l-.766984-1.327623 4.160596-2.022145.870822 1.478812c-.061359-.502387-.115638-1.005561-.162837-1.509522l-.141597-.236232.117998-.059058c-.01888-.222058-.040119-.444116-.051919-.668536l-.382312.184261-2.883862-4.897087 3.485649-1.977261.092039.146464c.068438-.349623.148677-.708696.235995-1.053594l-.117998.068507zm1.215375 12.142319-4.158236 2.022145-2.678546-4.63487 3.96944-2.260739zm-2.631347-5.719174-2.579428-4.401 3.252015-2.024507 2.796543 4.457695z" fill="#1f1e21"/><path d="m32.9897735 123.884725c-5.0125387-1.063044-12.6281048 2.556029-12.6281048 2.556029s28.1801907 24.060217 29.9053158 25.539029c3.4526103-3.415913 3.3039333-6.111319 3.3039333-6.111319s-15.5756854-20.918334-20.5811443-21.983739z" fill="#1f1e21"/><path d="m129.740739 80.9991884s-12.923099 9.1823333-30.1507509 11.5753623c21.1310129.881145 30.1507509-11.5753623 30.1507509-11.5753623z" fill="#52575b"/><path d="m125.006675 89.5318841s-9.675805 7.9303043-16.418189 9.8886666c10.872301-1.3465217 16.418189-9.8886666 16.418189-9.8886666z" fill="#52575b"/><path d="m139.473182 108.69029c-2.239594 1.041782-3.705125 2.811159-3.266174 3.954522.06183.157531.158675.298905.283195.413405-.084959-1.129188 1.415971-2.574927 3.45733-3.522217 1.928081-.895319 3.674446-1.053594 4.44143-.328362-.00706-.113697-.0301-.22583-.068439-.333087-.438951-1.141-2.607747-1.223681-4.847342-.184261z" fill="#485358"/><path d="m136.232968 102.094696-2.680906 7.918492-10.926579 9.068942 12.8523-2.147347 10.855781 5.034101 1.871442-10.791072 10.40503-8.388595-14.133755 1.696145zm4.750584 10.434362c-2.109798.944928-4.151156.888232-4.559428-.146464-.408272-1.034695.97938-2.650522 3.086818-3.609623 2.107437-.959101 4.151156-.888232 4.559427.148826.408272 1.037058-.97702 2.650522-3.086817 3.607261z" fill="#7a868e"/><path d="m136.362765 112.108565-12.802741 6.536536 13.232253-5.801855c-.163945-.115422-.291646-.275209-.368153-.460652-.031267-.088575-.051865-.180568-.061359-.274029z" fill="#b8c8d1"/><path d="m139.128629 108.969043c.127438-.066144.250155-.134652.382313-.196072.169916-.073232.335113-.141739.502669-.205522l-3.44081-5.953043z" fill="#b8c8d1"/><path d="m144.070369 108.921797c.061866.171547.0813.355542.056639.536246l12.927819-6.064072-13.215733 5.182928c.100268.09757.179046.21505.231275.344898z" fill="#b8c8d1"/><path d="m140.983552 112.529058c-.113278.049609-.224196.089768-.337473.134652l5.102217 8.438203-4.151157-8.877594c-.201382.107092-.405911.208671-.613587.304739z" fill="#b8c8d1"/><path d="m99.7599046 115.859928c-1.6519666.077956-3.1104171.812637-3.2402145 1.641811-.0176082.110745-.0087113.224092.0259595.330725.3303933-.732319 1.7015256-1.249667 3.2048152-1.318174 1.4277712-.068507 2.5039092.278753 2.7045052.930753.035777-.074944.061183-.154419.075519-.236231.127437-.817363-1.111538-1.426841-2.7705844-1.348884z" fill="#485358"/><path d="m100.090298 110.891971-4.2337545 4.275797-9.4398093 2.884391 8.2338737 1.953638 4.5806674 5.005754 4.7907037-5.350652 8.90174-2.598551-8.826222-2.563116zm2.277354 6.290855c-.110918.755942-1.46317 1.417391-3.0183791 1.469362-1.5552085.051971-2.7233849-.503174-2.6124672-1.259116.1109178-.755942 1.4631705-1.417391 3.018379-1.471724 1.5552083-.054334 2.7257453.507898 2.6124673 1.261478z" fill="#7a868e"/><path d="m96.7934446 117.204087-9.6758046.812638 9.6758046-.236232c-.0583639-.118504-.0789588-.252093-.0589988-.382696.0127819-.066473.0325584-.131405.0589988-.19371z" fill="#b8c8d1"/><path d="m99.7551847 115.921348h.3610723v-4.615971l-.6489864 4.639594c.0943981-.007087.1911561-.018899.2879141-.023623z" fill="#b8c8d1"/><path d="m102.367652 117.182826c-.022379.126654-.072333.246826-.146317.351986l9.593206-.484276-9.465769-.141739c.025174.08905.031603.182363.01888.274029z" fill="#b8c8d1"/><path d="m99.1179976 118.652188.0707986 5.669566.6230274-5.695551c-.146317.016536-.297354.028348-.4531108.033072-.0920382-.002362-.1699166-.004724-.2407152-.007087z" fill="#b8c8d1"/><path d="m174.544434 88.8066522c-1.085578.866971-1.597688 1.9867101-1.137497 2.5064203.065831.0732834.146207.1320171.235995.1724492-.259595-.5693188.339833-1.5331449 1.326293-2.3150724.943981-.7417681 1.902122-1.0819421 2.47323-.8244493-.024134-.0590982-.058486-.1134758-.101478-.1606377-.45547-.5197101-1.708605-.2409565-2.796543.6212899z" fill="#485358"/><path d="m171.493015 85.9151739-.082598 4.4458841-4.561788 6.2577826 6.94062-2.9954203 6.44975.4724638-.235995-5.3081305 4.401311-5.8302029-7.773683 2.9599855zm4.618427 4.6301449c-1.028939.8031884-2.206555 1.0701305-2.628987.600029-.422431-.4701014.073159-1.5000724 1.102098-2.3008985s2.204196-1.0677681 2.626627-.600029-.070799 1.5024348-1.099738 2.3008985z" fill="#7a868e"/><path d="m173.482455 91.1453478c-.032883-.0401407-.061366-.0836995-.084958-.1299275l-6.107557 5.2348985 6.487509-4.9230724c-.113079-.0325323-.2151-.09544-.294994-.1818986z" fill="#b8c8d1"/><path d="m174.400477 89.0003623c.061359-.051971.117997-.103942.184076-.155913s.165197-.1228406.247795-.1795363l-3.049058-2.5347681z" fill="#b8c8d1"/><path d="m177.21118 88.2444203c.065601.0765567.111032.1683218.132157.266942l6.260954-5.0128406-6.588987 4.6159711c.072498.0312922.138831.075292.195876.1299275z" fill="#b8c8d1"/><path d="m176.111442 90.5453188c-.056639.0448841-.113278.0803189-.167556.1204783l3.787723 3.0710145-3.332253-3.4395362c-.092038.0874058-.186436.1795362-.287914.2480434z" fill="#b8c8d1"/><path d="m55.7727533 106.46971c-1.1658165-.61184-2.5204291-.720507-3.0278189-.236232-.0688582.06522-.120714.146325-.1510369.236232.594708-.340174 1.7864839-.127565 2.8319428.432304 1.0006198.52916 1.5504887 1.18116 1.3593325 1.689058.060007-.031941.1155501-.071655.1651967-.118115.5168295-.493725-.0165197-1.384319-1.1776162-2.003247z" fill="#485358"/><path d="m58.5126579 103.386884-5.0361382 1.07013-7.8562813-1.932376 4.5853873 4.571087.5711085 5.081347 5.9565197-1.542594 7.3465316 1.889855-4.6821455-5.197101zm-1.6519666 4.99158c-.4578308.441753-1.7062455.326-2.7894636-.259855-1.0832182-.585855-1.588248-1.417392-1.1327772-1.866232.4554708-.448841 1.7086055-.328363 2.7918236.259855 1.0832182.588217 1.5953278 1.422116 1.1445769 1.866232z" fill="#7a868e"/><path d="m52.7921335 106.524043c.0219794-.104201.0755494-.199074.1533969-.271666.0406396-.0391.0857984-.073201.1345173-.10158l-6.9712992-3.36158z" fill="#b8c8d1"/><path d="m55.737354 106.512232c.0809978.044097.1597598.09219.2359952.144101l2.3363528-2.990695-2.7800238 2.742652z" fill="#b8c8d1"/><path d="m56.874851 108.378464c-.0799791.073164-.1738941.129409-.2761144.165362l6.7447437 3.543478-6.3482717-3.893101c-.0280242.068536-.0688763.131078-.1203576.184261z" fill="#b8c8d1"/><path d="m53.9154708 108.021754-2.8319428 3.694666 3.3039333-3.439536c-.1109178-.049609-.2171157-.10158-.3256735-.158275-.0401191-.03071-.0920381-.066145-.146317-.096855z" fill="#b8c8d1"/><path d="m70.9448868 118.909681s2.3198331-3.118261 6.3105125-3.633246c-6.0556377-1.131551-6.3105125 3.633246-6.3105125 3.633246z" fill="#52575b"/><path d="m150.177926 156.945377s3.370012 3.071014 5.899881-1.800087c-2.227795 2.683594-5.899881 1.800087-5.899881 1.800087z" fill="#52575b"/></g></svg>