<svg height="194" viewBox="0 0 151 194" width="151" xmlns="http://www.w3.org/2000/svg"><g fill="none" transform="translate(0 -1)"><path d="m138.24 128.09c11.39-20.13 15.9-4.85 8.35 7.48-1.59 2.74-8.45 6.61-10.65 2-.52-2.57 2.34-6.68 2.3-9.48z" fill="#272423"/><path d="m59.54 183.33c-6.17 9 1.19 16.15 7.87 6 5.94-9.55-.26-22.53-9.2-11.91" fill="#272423"/><path d="m20.1 96.69c-.56-5-11.17-16.41-7.07-3.58-4.03-6.49-11.52-8.52-4.03 1.43-9.52-10.67-9.91-1.2-2.12 3-17.35-3.63 3.06 8.72 9.05 8.09 2.58.44 4.31-8.82 4.17-8.94z" fill="#fdcf9a"/><path d="m11 100.83c-3.85.5-8-.48-10.77-3.21-1.46 2.52 12.25 8.26 15.68 8 2.18.24 3.76-5.85 4.08-8.13-2.7567464 1.6754256-5.8080505 2.809058-8.99 3.34z" fill="#fab575"/><path d="m49.77 103s-20.49-.38-30-8.35c0 0-5.31 6.64-6.07 11.19 0 0 13.85 14 33.58 14z" fill="#34302f"/><path d="m12.32 94.14c-.93.93-1.16 2-3.2 4.23-.11.22-.13.4.46.45.33-.37 4.99-4.06 2.74-4.68z" fill="#fab575"/><path d="m15.87 96.2c-.35-4-3.15-4.47-.76.44.22.14.44.21.76-.44z" fill="#fab575"/><path d="m48.61 110.89c-11.26.39-24.65.07-34.6-6.28-.1215121.393584-.2183666.794362-.29 1.2 0 0 13.85 14 33.58 14z" fill="#272423"/><path d="m42.13 139.44c-33.33 11.4-21.85 40 13.5 44.12 4.11 2.69 10.74-9.22 8.61-10.79-23.24-15.19 2.76-10.59 23.54-13.52 20-1.43 47.36-13.85 50.68-17.39 3.46-.62 3-9.29.16-14.66-.65 0-8.34.48-16.54.62-10.59.58-17.32-1.59-21-1.41-14.94.72-58.88 13.02-58.95 13.03z" fill="#34302f"/><path d="m86.58 98.46s14.61 3.6 29.41 0c0 0 2.84 8.92 1.52 11.76-5.53 5.91-40.36 14-37.19-6.26z" fill="#34302f"/><path d="m100.09 110.77c-3.7441018-2.89588-6.5313451-6.850281-8-11.35-3.39-.45-5.47-1-5.47-1l-5.42 4.77c-1.13 3.87.67 8.46 4 11.57 5.64 3.25 16 2.66 21.74.51-2.407177-1.302424-4.698824-2.807886-6.85-4.5z" fill="#272423"/><path d="m47.68 100.12s-9.11 31.88-4.93 41.74 27.32 6.45 41.36 3 19.74-15.18 20.87-16.7-15.18-19.69-18.59-35.63-38.71 7.59-38.71 7.59z" fill="#34302f"/><path d="m53.75 103.16s15.18 13.66 18.22 14 11.38-15.94 9.49-19-27.71 5-27.71 5z" fill="#ec1c24"/><path d="m47.68 100.12s-2.58 9-4.36 19c17.0483515-.247807 33.3463424-7.052066 45.51-19-1.0413409-2.4509495-1.8580258-4.9913753-2.44-7.59-3.39-15.94-38.71 7.59-38.71 7.59z" fill="#272423"/><path d="m81.46 98.22c-1.9-3-27.71 4.94-27.71 4.94s7.82 7 13.36 11.14c4.161441-1.674385 8.1446648-3.761474 11.89-6.23 2-4.15 3.34-8.43 2.46-9.85z" fill="#bc141a"/><path d="m12.39 28s-19 15.56-1.52 51.23 77.8 31.12 103.22 2.65-.38-75.11-39.46-77.77c-40.14-2.73-64.9-7.21-70.97 4.89-5.49 11 8.73 19 8.73 19z" fill="#34302f"/><path d="m37.55 50.08c-15.64 11.92-6.25 29.49 6.99 31.06s54-5.51 62.5-16.51 5.51-25.16-6.25-26.73-49.27 1.57-63.24 12.18z" fill="#fdcf9a"/><path d="m77.6 109.59c-1.19-.78-2.44-1.46-3.7-2.15 1.22-2.13 1.78-4.77-.65-.36-2.46-1.68-5.32-2.49-.4.66-.7 1.14-1.41 2.26-2.12 3.39-1.68-.8-3.33-1.62-5-2.51 1.23-1.52 2-5.13-.64-.35-1.3749712-.772017-2.7100104-1.613092-4-2.52-.0313226-.071798-.1016773-.118702-.18-.12-.07-.23-1.21-.54-.25.17-.85.43-.82 2.85.38.3 1.19.92 2.43 1.81 3.72 2.64-.55.29-.6 1.94.58.36 1.5951839 1.000575 3.2670728 1.873301 5 2.61-.44.15-1.18 2.86.72.3 1.18-.15 1.57 0 .39-.52-.3.2.51 1.62 0 0 .7645313-1.052925 1.4529465-2.159068 2.06-3.31.49-.03 3.7 2.82 4.09 1.41z" fill="#800000"/><path d="m79.42 105.64c-.68.13-2.84-1.75-3.94-1.44.36.39 3.45 2.58 3.94 1.44z" fill="#800000"/><g fill="#45403f"><path d="m106.89 23.86c-5.81-8-19.2-15.9-28.4-14.68 16.88 5.74 28.87 20.36 28.4 14.68z"/><path d="m109.11 27.65c-2.35-.1 2 4.45 3 5.94 2.66-1.08-1.02-4.95-3-5.94z"/><path d="m15 5.62c-2.66-1.62-12.45 4.18-7.51 5.17 1.25-2.54 6.79-3.47 7.51-5.17z"/><path d="m6.43 14.22c-1.35-1.87-1.42 3.94.38 2.41-.00740722-.8176538-.1354536-1.6297374-.38-2.41z"/><path d="m96.74 117.36c-3-2.85-5.29-9.41-8.35-11.73-1.09 2.43 7.72 16.25 8.35 11.73z"/><path d="m98.17 119.81c-.17-1-1.7 0-.63.62.26.07.46.08.63-.62z"/></g><path d="m117.93 111.27c-5.47-1.17-7.86-21.69-1.87-10.82-1.1-4.13.87-13.33 3.18-3.13.61-12.11 4.21-5.47 3.85.71 4.16-16.48 6.91 14.8-5.16 13.24z" fill="#fdcf9a"/><path d="m124.7 106.84c-7.44 3.78-11.18-2-11.86-9.43-1.84 6.9 5.09 21.2 11.86 9.43z" fill="#fab575"/><path d="m117.06 103.17c-.54-.08-.23 2.2.16 3.37.9-.49.29-1.8-.16-3.37z" fill="#fab575"/><path d="m123.68 103.25c-1.23.65-3.71 0-5.68-.25-.34 2 7.61 2.36 5.68.25z" fill="#fab575"/><path d="m100.79 37.9c-94.42-2.41-77.17 46.53-50.07 43.43-43-32.38 38.62-49.72 59.55-37-1.881079-3.5980878-5.441346-6.0129102-9.48-6.43z" fill="#fab575"/><path d="m69 51.17c-3.62-2.71-16-1.86-15.72 2.87 2.28 2.05 5.7-.32 9.31.51 2.79.56 9.55.85 6.41-3.38z" fill="#34302f"/><path d="m97 42.4c-4.13-.21-12.17 3.43-11.61 8.51 1.4 2.56 18.92-6.98 11.61-8.51z" fill="#34302f"/><path d="m70.08 63.29c-.58-3.1-5.78-6.71-6.4-1.32-1.47 6.95 7.1 9.63 6.4 1.32z" fill="#34302f"/><path d="m98.73 57.79c-.58-3.1-5.78-6.71-6.4-1.33-1.47 6.96 7.1 9.64 6.4 1.33z" fill="#34302f"/><path d="m67.61 60.72c-.5909447 0-1.07.4790553-1.07 1.07s.4790553 1.07 1.07 1.07 1.07-.4790553 1.07-1.07-.4790553-1.07-1.07-1.07z" fill="#fff"/><path d="m95.88 54.84c-.5909447 0-1.07.4790553-1.07 1.07s.4790553 1.07 1.07 1.07 1.07-.4790553 1.07-1.07-.4790553-1.07-1.07-1.07z" fill="#fff"/><path d="m88 65c-1.6-3.26-8.24.16-5.56 2.26 1-1.86 4.61-3.07 4 .44-9.23 6.3 6.01 3.04 1.56-2.7z" fill="#f7994d"/><path d="m41.71 137.88c-6.85 16.64 43.48 15.91 59.23-1.75 3.93-4.06 5.45-7.56 5.37-8.5-4.08-7.88-4.5-3.38-5.68-2.66-4.78 5.49-20.17 20.44-58.92 12.91z" fill="#ec1c24"/><path d="m39.69 171.84c-7.74-2.6-14.87-10.31-15.91-19-8.89 23.18 27.16 31 34.12 31 .55.93 3.93-2.73 5.88-7.16-8.2644544-.069299-16.4401003-1.711895-24.09-4.84z" fill="#272423"/><path d="m61.08 156.58c-6 .63-13.13 5.06-4.74 10-6.54-8.55 18.67-4.37 38.47-8.37 28-5.73 47.43-15.54 46.11-21-24.92 11.79-52.46 16.14-79.84 19.37z" fill="#272423"/><path d="m104.78 101.56c-2.42721-.155629-4.8634468-.095393-7.28.18-1.75 1.16 9.5 2.36 7.28-.18z" fill="#45403f"/><path d="m108.69 101.66c-.52-.44-2.71.85 0 .72.19-.1.31-.22 0-.72z" fill="#45403f"/><path d="m134.4 129.94c-3.36.3-12.36-1.41-14 .65 2.6.71 16.75 2.14 14-.65z" fill="#45403f"/><path d="m34.88 145.94c-1 .62-8.53 5.27-5.21 5.81.53-1.35 7.33-4.75 5.21-5.81z" fill="#45403f"/><path d="m26.18 99.28c-4.22-.79-4.5-1.06-3.58-.33 2.94.57-.1-2-.92-.73 1.57 1.02 5.12 3.1 4.5 1.06z" fill="#45403f"/></g></svg>