<svg height="369" viewBox="0 0 55 369" width="55" xmlns="http://www.w3.org/2000/svg"><g fill="none"><path d="m31.34 18.11c-24.41 76.82-20.48 174.15-21.16 240.22h15.82c.68-71.33-4.23-181.62 29-258.33-16.44 3.14-23.66 18.11-23.66 18.11z" fill="#a6a8ab"/><path d="m31.34 18.11c-24.41 76.82-20.48 174.15-21.16 240.22h7.89c0-83.6 1.27-120.87 7.62-180.34 3.8-54.2 29.31-77.99 29.31-77.99-16.44 3.14-23.66 18.11-23.66 18.11z" fill="#d0d2d3"/><path d="m8.65 249.17h18.58v11.2h-18.58z" fill="#bd1e2d"/><path d="m17.94 249.17h9.29v11.2h-9.29z" fill="#bd1e2d"/><path d="m8.65 258.33v88.67c.57 8.11-3.17 19.64 9.29 21.08 2.4638612 0 4.826809-.978765 6.569022-2.720978s2.720978-4.105161 2.720978-6.569022v-100.46z" fill="#8a5e3c"/><g fill="#603913"><path d="m17.94 267.5-7.76 3.88 7.76 3.88 7.75-3.88z"/><path d="m17.94 284.97-7.76 3.87 7.76 3.88 7.75-3.88z"/><path d="m17.94 302.43-7.76 3.88 7.76 3.87 7.75-3.87z"/><path d="m17.94 319.89-7.76 3.88 7.76 3.87 7.75-3.87z"/><path d="m17.94 337.36-7.76 3.87 7.76 3.88 7.75-3.88z"/><path d="m17.94 368.12c5.0611719-.004601 9.1873864-4.059673 9.28-9.12l-5.92-3c2.16-6.27-8.75-7-6.72 0l-5.92 3c.09261358 5.060327 4.2188281 9.115399 9.28 9.12z"/></g><path d="m19.32 354.14c-.41 3-5-.05-1.38-1.38.7264701.079944 1.300056.65353 1.38 1.38z" fill="#bd1e2d"/><path d="m22.61 258.33v86.67c0 4.48 2.05 20.88-13.7 16 1.06712553 4.601211 5.4200615 7.666801 10.1117926 7.12131 4.6917312-.54549 8.2252096-4.528005 8.2082685-9.25131v-100.54z" fill="#8a5e3c" opacity=".5"/><path d="m32.16 255.35c-3.78 1.25-35.29-3.66-31.91 4.55 1.92 5.28 12.4 1.66 24.07 2.65 6.86-.28 6 .61 9.65-.5 3.03-1.64 2.03-6.43-1.81-6.7z" fill="#594a42"/><path d="m34.3 256.07c-.18 6.57-6.45 3.69-14.29 4.29-11.3-.4-16.24.92-19.82-.72 2 5.23 9 2.1 19.68 2.91 9.59-.18 19.53 1.72 14.43-6.48z" fill="#594a42" opacity=".5"/><path d="m20.35 62.88 14.35 9.72c1-6.43 2.15-12.74 3.42-18.85l-14.06-9.52c-1.36 6.04-2.6 12.27-3.71 18.65z" fill="#fff" opacity=".5"/><path d="m17.26 83.13 14.64 9.87c.39-3.26.8-6.52 1.23-9.74l-14.5-9.83c-.48 3.2266667-.9366667 6.46-1.37 9.7z" fill="#fff" opacity=".5"/><path d="m11.26 158.4 15.42 10.45c.21-6.72.47-13.62.81-20.62l-15.24-10.32c-.4 6.93-.72 13.78-.99 20.49z" fill="#fff" opacity=".5"/><path d="m26.38 180.4-15.51-10.51c-.1 3.533333-.19 7.003333-.27 10.41l15.58 10.55c.05-3.41.12-6.85.2-10.45z" fill="#fff" opacity=".5"/></g></svg>