<svg height="204" viewBox="0 0 182 204" width="182" xmlns="http://www.w3.org/2000/svg"><g fill="none"><path d="m181.548849 193.092c-1.968849 13.2-170.676849 13.032-181.032849 1.2-11.712-14.628 181.5-14.736 181.032849-1.2z" fill="#000" fill-opacity=".1"/><path d="m38.568 149.664c-1.008 16.188-22.992 14.556-23.34 0 1.008-16.188 22.992-14.568 23.34 0z" fill="#3f3d40"/><path d="m33.6 148.092c-.3 11.04-15.984 10.8-16.476.24.336-11.04 16.032-10.74 16.476-.24z" fill="#514f52"/><path d="m113.304 176.664c-1.092 2.592-.252 14.472 1.716 14.028 6.732.972 23.448 1.464 11.916-5.652-7.332-4.2-.696-14.016-13.344-12.288-.024 2.052-.432 4.476-.288 3.912z" fill="#3f3d40"/><path d="m60.504 193.764c5.832-3.516 16.8-4.272 22.68-10.152.103394 2.815382 1.2099969 5.501022 3.12 7.572 1.464-4.68 4.104-9.288 4.104-14.136-14.292-.468-43.86-9.6-30.42 14.208 2.748-.276 5.352-.288.516 2.508z" fill="#3f3d40"/><path d="m63.312 136.32c-6.576 16.452-35.412 73.704 5.52 54.924 19.392-21.888 36.54-54.816-5.388-55.392-.048.156-.084.312-.132.468z" fill="#514f52"/><path d="m61.68 79.812c-10.572 3.816-45.528 62.556-21.06 55.68 13.728-5.616 40.716-53.052 21.06-55.68z" fill="#514f52"/><path d="m121.836 112.692c-.624 11.664 3.516 28.524-11.748 28.944-16.8 1.464-51.288 4.02-52.056-8.892-.624-19.584-7.2-43.536 5.772-55.032 13.416-11.628 41.664-8.52 53.532 3.432 7.104 8.196 5.436 20.304 4.5 31.548z" fill="#514f52"/><path d="m81.408 124.128c9.7042893-14.764406 17.4794293-30.7098957 23.136-47.4485176h9.432c.168-.0834824-2.844 10.0805176-3.444 12.3725176-5.208 17.616-16.02 36-26.268 52.344-1.572 1.872-13.416-.264-13.044-3.6 2.904-4.464 7.08-8.052 10.188-13.668z" fill="#3f3d40"/><path d="m91.356 118.032c-10.392-6-22.8-30.468-21.516-38.34 3.2347767-.0388004 6.451359.489174 9.504 1.56.876 11.256 7.488 24.276 16.8 31.272-.492 2.004-3.108 5.208-4.788 5.508z" fill="#3f3d40"/><path d="m121.452 34.404c-2.544-9.756 10.536-12.276 15.816-15.984.096-.252.084-.264 0 0-.156 13.332-6.996 14.244-15.816 15.984z" fill="#514f52"/><path d="m133.08 22.8c-3.6 2.4-6.648 5.376-10.8 8.712-.081143.030313-.143348.0969615-.168.18-.156.204.24.9.912.456 7.2-.348 14.4-6.468 1.38-1.068 1.152-1.74 10.284-6.252 8.676-8.28z" fill="#3f3d40"/><path d="m121.428 34.32c4.92-8.796 16.104-1.56 22.476-.588.252-.108.24-.12 0 0-9.108 9.36-14.916 5.544-22.476.588z" fill="#514f52"/><path d="m137.892 33.972c-3.9-.744-8.604-.756-13.788-1.2-.07705-.030722-.16295-.030722-.24 0-.264 0-.456.816.336.96 1.392 1.056 7.356 5.376 8.688 3.168-1.752-.96-4.092-1.2-6.96-2.988 1.968-.408 11.688 2.664 11.964.06z" fill="#3f3d40"/><path d="m108.648 8.124c23.844 18 16.92 59.916-1.728 78.396-28.044 20.904-54.12-11.388-54.624-37.668-5.292-37.548 26.484-62.544 56.352-40.728z" fill="#514f52"/><path d="m61.656 77.448c32.4 38.064 62.76 1.104 62.028-36.072-11.772 21.696-37.068 35.424-62.028 36.072z" fill="#3f3d40"/><path d="m60.336 34.8c-4.404-12.432 7.8-33.18 20.268-29.016 1.332 24 14.4 24.336 30.18 29.76-12.528 4.668-45.276 11.364-50.448-.744z" fill="#6d696e"/><path d="m119.016 46.86c-.156-4.2 1.86-11.664-3.324-13.956-18.66-4.8-38.592-3.288-57.432-.672-4.128 24.168 9.756 27.768 28.728 27.876 12.684.684 28.524 1.644 32.028-13.248z" fill="#f6b796"/><path d="m58.044 42.48c9.6 7.776 22.344 5.088 34.392 6 8.508-.36 25.38 4.188 27.096-6.636z" fill="#de956f"/><path d="m51.096 40.716c17.364 3.6 36.504 3.096 54.792 3.264 23.472.396 22.092 1.092 16.116-18.384-5.376 3.36-13.704 1.2-20.328 1.812-16.92-.168-31.296 2.232-48.06-1.2-.156 1.26-3.36 13.572-2.52 14.508z" fill="#3f3d40"/><path d="m51.096 42.708c17.364 3.6 36.504 3.096 54.792 3.264 23.484.396 22.092 1.092 16.116-18.384-5.376 3.372-13.704 1.2-20.328 1.812-16.92-.168-31.296 2.244-48.06-1.2-.156 1.26-3.36 13.572-2.52 14.508z" fill="#514f52"/><path d="m125.508 40.968c-.584442-4.588886-1.76229-9.0824552-3.504-13.368-3.888 2.88-11.772 1.512-16.8 1.764-12.192 8.076-27.204 12.168-41.928 15.252 13.584.348 68.28 5.688 62.232-3.648z" fill="#3f3d40"/><path d="m100.704 33.936c-6.768-.732-55.452-2.304-42.66-.096 13.956-.444 31.692 3.36 42.66.096z" fill="#6d696e"/><path d="m82.392 37.884c-8.196.828-18.252-.144-27.024-.696 6.168 2.568 22.272 3.72 27.024.696z" fill="#6d696e"/><path d="m94.092 41.64c-12.4824567.4429275-24.9805783-.0383865-37.392-1.44 7.164 3.516 29.904 4.764 37.392 1.44z" fill="#6d696e"/><path d="m98.544 64.68c-11.88 2.46-29.868-1.968-38.868-.588 10.02 3.108 41.892 4.308 38.868.588z" fill="#6d696e"/><path d="m96.948 70.104c-6 1.668-13.596 1.2-20.196.336 2.844 3.024 20.832 2.832 20.196-.336z" fill="#6d696e"/><path d="m93.6 78.456c-4.908-.552-11.736-.576-17.208-.648 1.02 1.392 16.212 2.436 17.208.648z" fill="#6d696e"/><path d="m56.4 144.48c-.514178-3.942891-.1703324-7.95033 1.008-11.748 21 1.968 47.82 2.82 64.8.408 0 4.992 1.764 18-4.452 18.708-16.956 1.752-61.62 4.38-61.356-7.368z" fill="#3f3d40"/><g fill="#514f52"><path d="m110.916 137.04c-16.464 2.58-37.944-.384-52.464-1.2 15.948 3.216 38.436 6.336 52.464 1.2z"/><path d="m104.4 143.46c-14.4 1.632-33.864-1.8-46.284-2.808 13.884 3.108 33.984 7.116 46.284 2.808z"/><path d="m69.984 146.736c-3.744.492-8.4-.276-13.008-.936 1.608 2.124 11.676 3.408 13.008.936z"/><path d="m95.916 101.472c-6.0223257 9.118779-11.5541774 18.552168-16.572 28.26 5.28-6.996 13.464-19.86 16.572-28.26z"/><path d="m94.164 111.876c-1.608 3.492-8.4 10.8-8.088 13.86 1.524-3.516 8.592-10.86 8.088-13.86z"/><path d="m83.628 101.472c-2.148-4.632-6.468-10.308-9.6-14.892-.36 2.22 6.816 13.644 9.6 14.892z"/><path d="m73.668 49.56c-2.952.66-2.136 6.468 2.148 4.356 1.968-1.536.876-4.56-2.148-4.356z"/><path d="m102.912 50.4c-3.288 0-3.3 5.112 0 5.112s3.3-5.112 0-5.112z"/><path d="m78.72 48.276c-.132-.576-13.056-3.012-7.416-.3 1.8-.096 6.804 2.748 7.416.3z"/><path d="m106.8 47.688c-1.2.612-8.832-.06-8.136 2.4 1.02-.372 9.972.312 8.136-2.4z"/></g><path d="m58.092 84c-7.896 4.164-20.4 21.6-17.364 26.868 6.744-20.136 21.672-25.668 17.364-26.868z" fill="#6d696e"/><path d="m87.3 153.78c2.808-.252 5.46-.72 8.256-.864 1.044-5.82 4.068-12.72 6.264-18.924 12.9-10.668 23.784 1.104 25.944 14.856 1.836 8.688-.396 24.528-4.932 29.64-13.764 5.292-12.216-5.88-15.78-12.408-4.068-5.712-16.464-3.744-21.9-2.016.228-.084.216-9.048.3-10.164.624-.024 1.236-.072 1.848-.12z" fill="#514f52"/><path d="m106.728 159.108c-.732-2.76-2.964-20.892-2.856-9.264.804 16.704 9.396 29.664 2.856 9.264z" fill="#3f3d40"/><path d="m115.2 131.892c-11.304-7.716-23.232 13.2-18.996 20.928 3.396-16.692 5.304-19.164 18.996-20.928z" fill="#6d696e"/><path d="m95.232 162.144h-.108c-2.4-13.032-4.8-10.596-1.356-.444-.605091-.159057-1.2178832-.287223-1.836-.384-.732-1.536-1.932-8.916-4.068-8.496.828 2.4 1.308 4.368 2.808 8.316-3.96.492-12-2.796-15.756-.588 4.284 1.224 17.352 3.936 20.316 1.596z" fill="#3f3d40"/><path d="m98.256 155.808c-2.184-2.1-3.504 13.452-.372 2.844.2610636-.924985.3863721-1.882988.372-2.844z" fill="#3f3d40"/><path d="m57.204 119.364c-.432-6.564 1.32-13.536.552-20.1-4.116 6.552-6.588 15.6-8.004 23.664 1.584-.36 5.796-3.276 7.452-3.564z" fill="#3f3d40"/><path d="m33.084 131.352c-5.904-.756-15.972 15.492-8.7 14.856 2.5746985-2.448808 5.4118853-4.605875 8.46-6.432 1.332 11.508 11.352-9.864.24-8.424z" fill="#f6b796"/><path d="m38.304 135.6c-2.604 0-4.656-2.724-7.2-3.36-2.004-11.568 18 .9 8.1 3.6-.0840039-.29004-.0840039-.59796 0-.888" fill="#3f3d40"/><path d="m164.28 149.664c-1.008 16.188-22.98 14.556-23.34 0 1.02-16.188 22.992-14.568 23.34 0z" fill="#3f3d40"/><path d="m159.36 148.092c-.312 11.04-15.996 10.8-16.488.24.3-11.04 15.996-10.74 16.488-.24z" fill="#514f52"/><path d="m117.828 79.812c10.584 3.816 45.528 62.556 21.072 55.68-13.728-5.616-40.716-53.052-21.072-55.68z" fill="#514f52"/><path d="m121.428 84c7.884 4.164 20.4 21.6 17.364 26.868-6.792-20.136-21.696-25.668-17.364-26.868z" fill="#6d696e"/><path d="m122.316 119.364c.432-6.564-1.32-13.536-.552-20.1 4.116 6.552 6.576 15.6 8.004 23.664-1.584-.36-5.796-3.276-7.452-3.564z" fill="#3f3d40"/><path d="m146.4 131.352c5.916-.756 15.984 15.492 8.712 14.856-2.555905-2.445263-5.372816-4.602212-8.4-6.432-1.368 11.508-11.388-9.864-.312-8.424z" fill="#f6b796"/><path d="m141.216 135.6c2.604 0 4.656-2.724 7.2-3.36 2.004-11.568-18 .9-8.1 3.6.077914-.290873.077914-.597127 0-.888" fill="#3f3d40"/><path d="m24.744 149.724c-3.936-2.724-6.084 3.072-11.424 2.196-1.008 5.868 10.548-1.188 11.424-2.196z" fill="#ccb685"/><path d="m14.724 152.844c-.84-1.476-7.896-6.912-2.964-.912-.924-.996-8.172.24-.3 1.668-.768.66-.948 3.9 1.344.06.19627.027801.3960484-.014705.564-.12.456.636 1.608.732 1.356-.696z" fill="#f67676"/><path d="m156.78 149.724c3.936-2.724 6.072 3.072 11.424 2.196.996 5.868-10.548-1.188-11.424-2.196z" fill="#ccb685"/><path d="m166.8 152.844c.84-1.476 7.884-6.912 2.964-.912.924-.996 8.172.24.3 1.668.768.66.948 3.9-1.344.06-.19627.027801-.396048-.014705-.564-.12-.456.636-1.608.732-1.356-.696z" fill="#f67676"/></g></svg>