<svg height="129" viewBox="0 0 129 129" width="129" xmlns="http://www.w3.org/2000/svg"><g fill="none" fill-rule="evenodd"><path d="m60.75 125c-1.44-10.68 5.22-23.53-7.58-28.89-.33 2.37 4.13 4.3 6.44 7-1 5.49-.22 11.75-.71 18.32-4.28-8.93-4.84-20.1-10.66-29.21-9.78 4.32-19.69 9.22-30 13 7.47-10 20.7-13.1 15.08-26.27-1.49 2.56.16 6.08-.36 9.81-5.02 3.44-8.65 8.24-13.16 12.24 2.38-9 11.74-18.7 12.54-28-9.63-2.91-19.1-7-29.25-10.85 10.25-3.07 23.67 5.33 28.47-8.36-2.4.35-4.25 4.39-7 6.7-5.74-1.18-12.17-.42-18.69-.63 8-4.5 27.56-6.27 28.34-11.61-4.55-10.25-9.21-19.55-13.51-30.36 8.81 5.84 13.97 21.71 26.3 15.11-2.07-1.15-6.13.2-9.54-.17-3.52-5.02-8.37-8.83-12.46-13.3 9.18 2.88 17.91 10.71 28.45 13.21 4.12-9.45 7.55-20.55 12.1-30.55 2 10.28-5.27 24.76 7.92 29.05-1-2.61-4.14-4.11-6.64-6.86 1-6 .41-12 .55-18.6 4.71 8.51 5.82 25.08 11.41 28.61 9.72-4.37 19.69-9 30.12-13.15-6.18 9-21.06 13.46-15.39 26.54 1.36-2.63.13-6 .21-9.69 5.09-3.57 8.9-8.55 13.82-12.85-2.87 9.23-11.75 18.51-13 28.37 9.4 5.23 20.8 7.64 31.17 12.62-7.16 1-14.38.07-23.3 0-1.3 2.18-5.43 4.67-5.67 8.17 2.81-1.82 4.2-4.89 6.77-6.81 6.17 1 12.36.33 18.53.5-8.64 4.24-20.14 6.33-30.24 10.19 3.87 9.72 9.19 20.09 13.19 30.47-9.26-6.31-13.45-21-26.4-15.32 2.54 1.34 6 .1 9.63.25 3.56 5.12 8.4 8.77 12.64 13.61-9.26-2.65-18.15-11.87-27.97-12.29-3.62 9.83-7.57 19.81-11.66 30.08zm-30.95-58.41c-.21.54-.27 1 .42 1.27.39 1.91.48 2.06 2 3.32-.85-2.1-.85-2.1-2.08-3.27.1817904-.4699809.0110232-1.0031078-.41-1.28-.16-.42-.32-.85-.47-1.28l-.12-.25c.056857.062643.1040437.1334231.14.21-.03.51-.28 1.12.52 1.28zm68.44-5.5.27.42.09-.19-.44-.15c.2537705-.9095184-.1631525-1.8726106-1-2.31.0632635-.8859583-.5398859-1.6816021-1.41-1.86.58.77.47 1.68 1.45 1.82-.14.97.49 1.61 1.04 2.27zm-12.89-24.22c.12 0 0 .41.44.34l-.51-.27c-1.1692942-.9127922-2.6645818-1.3001911-4.13-1.07 1.2981271.6691681 2.7396005 1.0123761 4.2 1zm3.87 48.32c1.28-2 1.33-2.26.88-4.41-.32 1.76-.57 3.12-.81 4.48l-.16.45zm-28.48-56.44c-.72.78-3 .79-4.27 3.18.87-.79 3.94-1.1 4.26-3.16l.66.06zm-23.61 11.3c-1.66 1.58-1.74 3.7-2 5.77 1.17-1.82 1.39-3.82 1.97-5.82 0-.07 0-.09 0-.43.01.14.02.31.03.48zm2.87 49c-.1496231-.0150377-.3003769-.0150377-.45 0h.54c1.61 1.7 3.74 1.84 5.87 2-1.8991271-.8943825-3.9007166-1.5526233-5.96-1.96zm20.15-34.24c-15.66 6.35-4.15 29.19 10.94 20.09 12.26-5.85-.46-28.19-11.05-20zm10.6 41.19c-2.1702484.247524-4.1615955 1.3219919-5.56 3z" fill="#b0b0b0"/><path d="m60 54.91c6.89-3 15 4.21 14.09 12.21-5.55 17.94-30.23 1.99-14.09-12.21zm4.43 14.69c12.77-1.71-1.16-17.36-5-5.94-.01 2.7.57 6.64 5 5.94z" fill="#808080"/><g fill-rule="nonzero"><path d="m65.77 1.32-13.15 30.61c-.54 3.2 13.43-6.19 13.39-6-.01-.03 1.43-25.04-.24-24.61z" fill="#dedede"/><path d="m60.89 126.67 13.11-30.61c.54-3.2-13.43 6.19-13.39 6 .03.03-1.4 25.04.28 24.61z" fill="#dedede"/><path d="m20.73 18 12.36 30.89c1.87 2.58 5.11-13.83 5.2-13.73s-16.67-18.7-17.56-17.16z" fill="#dedede"/><path d="m105.92 110-12.35-30.9c-1.88-2.58-5.12 13.83-5.21 13.73s16.64 18.69 17.56 17.17z" fill="#dedede"/><path d="m.65 61.55 30.61 13.15c3.2.5400041-6.19-13.43-6-13.39-.03 0-25.04-1.43-24.61.24z" fill="#dedede"/><path d="m126 66.44-30.61-13.15c-3.2-.54 6.19 13.43 6 13.39.03 0 25.04 1.43 24.61-.24z" fill="#dedede"/><path d="m17.28 106.59 30.94-12.35c2.59-1.88-13.83-5.12-13.73-5.21s-18.69 16.67-17.21 17.56z" fill="#dedede"/><path d="m109.37 21.4-30.94 12.36c-2.58 1.87 13.83 5.11 13.73 5.2s18.7-16.67 17.21-17.56z" fill="#dedede"/><path d="m32 48.91c-3.23-9.27-15.74-30.56-11.38-33.69 10.21 3.91 20.19 12.25 31.25 15.19 18.45-44.75 12.75-36.63 25.83 1.7 10.91-2.25 22.12-12.46 33.81-11.44-3.51 10.47-12.36 20.5-15.15 31.75 12.58 6.14 28.69 9.09 31.86 15.33-9.83 4.11-21.22 6.9-32.11 10.51-1.8 10.81 12.21 22.95 9.51 33.07-10.24-3.33-19.62-11.47-30.62-14.63-6.89 12-8.24 27.18-15.49 31.37-4.62-10.1-6.1-22.21-11.71-32.82-10.96 2.46-25.97 13.75-32.51 10.75 3.71-10.12 11.71-19.56 14.62-30.69-47.91-20.38-31.49-11.31 2.09-26.4zm28.75 76.09.49.12c3.76-9.5 7.87-19.86 11.66-30.12 7.84-.34 20.27 10.28 27.92 12.28-4.24-4.84-9.08-8.49-12.64-13.61-2.75-.32-6.24 1.24-9.63-.25 12.15-5.94 17.6 9.17 26.4 15.32-3.8-10.14-9-19.89-13.12-30.46 9.16-3.54 21.47-5.94 30.24-10.19-6.17-.17-12.36.48-18.53-.5-2.57 1.92-4 5-6.77 6.81 0-2.77 3.62-5.47 5.67-8.17 6.78 0 14.92 1 23.3 0-41.61-18.34-35-2.9-18.19-41-4.18 3.6-8.79 9.31-13.82 12.85-.26 2.84 1.3 6.24-.21 9.69-5.88-12.24 8.94-17.62 15.39-26.54-9.71 3.83-20 8.63-30.12 13.15-6.73-6.13-6.68-20.57-11.41-28.61-.16 5.39.49 12.47-.55 18.6 1.52 1.92 5.46 3.95 6.64 6.86-12.61-3.4-6.23-18.69-7.92-29-4.4 9.7-7.59 20.14-12.12 30.55-9.43-2.05-19.14-10.23-28.43-13.25 4.11 4.49 9 8.28 12.52 13.32 2.2.48 7.41-1 9.54.17-11.63 6.72-17.69-9.08-26.36-15.13 16.47 42.47 23 27.23-14.86 42 6 .22 12.21-.58 18.69.63 2-1.39 4.16-5.9 7-6.7-4.11 13.54-19.94 5.38-28.47 8.36 40.79 17.09 31.36 2.88 16.74 38.82 4.51-4 8.14-8.8 13.12-12.25.69-2.85-1.27-6.36.36-9.81 6.07 12-8.69 17.68-15.08 26.27 9.74-3.49 19.86-8.59 30-13 5.29 8 6.36 19.84 10.66 29.21.6-5.81-.39-11.54.71-18.32-1.29-1.9-6.43-4.11-6.44-7 12.27 4.77 6.5 17.95 7.62 28.9z" fill="#000"/><path d="m60 54.91c10.82-8.16 23.79 14.47 10 20.72-13.88 7.07-25.58-14.23-9.86-20.82-15.82 13.9 6.94 29.41 13.94 13.39 1.92-6.92-6.58-17.07-14.08-13.29z" fill="#000"/><path d="m70.75 96-5.56 3c1.3984045-1.6780081 3.3897516-2.752476 5.56-3z" fill="#000"/><path d="m40 89.07c2.0687183.4059975 4.0825378 1.0537761 6 1.93-2.13-.14-4.26-.28-5.87-2z" fill="#000"/><path d="m37.12 40c-.6 2-.82 4.06-2 5.84.23-2.07.31-4.19 2-5.77z" fill="#000"/><path d="m60.73 28.77c-.15 1.5-2.19 2-4.26 3.16.24-1.49 1.61-1.46 4.27-3.18z" fill="#000"/><path d="m30.16 67.91c1.23 1.17 1.23 1.17 2.08 3.27-1.54-1.26-1.63-1.41-2-3.32z" fill="#000"/><path d="m89.29 85.26c.24-1.36.49-2.72.81-4.48.45 2.15.4 2.37-.88 4.41z" fill="#000"/><path d="m85.35 36.87c-1.4631661.0378245-2.9108713-.3068672-4.2-1 1.4654182-.2301911 2.9607058.1572078 4.13 1.07z" fill="#000"/><path d="m97.2 58.81c-1-.13-.87-1-1.45-1.81.8661049.1827132 1.4640713.9771542 1.4 1.86z" fill="#000"/><path d="m97.15 58.86c.8368475.4373894 1.2537705 1.4004816 1 2.31l.07-.08c-.54-.66-1.17-1.3-1-2.27z" fill="#000"/><path d="m60.74 28.75.65.08-.66-.06z" fill="#000"/><path d="m98.16 61.17.44.15-.09.19-.28-.42z" fill="#000"/><path d="m29.31 65.29-.15-.19.12.25z" fill="#000"/><path d="m29.28 65.35c.15.43.31.86.47 1.29 0 0 .06-.06.06-.06-.84-.15-.56-.76-.51-1.28.01-.01-.02.05-.02.05z" fill="#000"/><path d="m30.22 67.86c-.69-.24-.63-.73-.42-1.27h-.05c.4227149.2708717.5945327.8030878.41 1.27z" fill="#000"/><path d="m37.13 40.05c0-.17 0-.34 0-.52-.0129318.1463816-.0129318.2936184 0 .44.0034553.0265547.0034553.0534453 0 .08z" fill="#000"/><path d="m85.28 36.94.51.27c-.23 0-.19.14-.44-.34z" fill="#000"/><path d="m89.22 85.19-.09.52.16-.45z" fill="#000"/><path d="m40.09 89.06h-.54c.1529342-.0156453.3070658-.0156453.46 0z" fill="#000"/><path d="m64.43 69.6c-3.81.63-5.63-2.76-4.75-6.91 5.32-9.83 16.65 5.63 4.75 6.91zm-2.35-2.2c2.86 1.3 9-2 3.7-5.21-3.52-1.68-5.67 1.12-3.7 5.21z" fill="#000"/></g></g></svg>