<svg height="176" viewBox="0 0 190 176" width="190" xmlns="http://www.w3.org/2000/svg"><g fill="none"><path d="m106.656 25.044c-8.268 3.6-6.492 5.376-3.9 10.152 4.308 8.1 14.052 26.4 14.1 26.508l9.864-5.244c-2.316-1.92-15.444-35.316-20.064-31.416z" fill="#2c3338"/><path d="m157.488 131.748c8.76-3.6 5.82-6.24 4.704-8.64-6.108-11.508-34.188-64.224-34.212-64.308l-9.852 5.28 35.364 66.444c.366965.69284.994471 1.21124 1.744115 1.440861.749643.22962 1.559838.151597 2.251885-.216861z" fill="#2c3338"/><g fill="#ea400c"><path d="m103.644 36.864 2.592-.3-1.704 1.98.3.564 5.124-.6 2.256-2.628 3.348-.396-2.064-3.876-11.916 1.38z"/><path d="m124.02 51.396-.768-1.452-1.464 1.704z"/><path d="m114.504 37.98 2.244-.252-.78-1.452z"/><path d="m124.404 52.116-11.916 1.38 2.064 3.876 2.592-.3-1.692 1.98 1.404 2.652 3.144-1.668 3.12-3.66 3.348-.384z"/><path d="m113.112 30.888-.78-1.452-1.464 1.716z"/><path d="m107.28 43.704 2.592-.3-1.704 1.98.3.552 5.124-.588 2.256-2.64 3.348-.384-2.064-3.876-11.916 1.38z"/><path d="m110.916 50.544 2.592-.3-1.692 1.98.288.552 5.124-.6 2.256-2.628 3.348-.384-2.064-3.888-11.916 1.38z"/><path d="m118.14 44.82 2.244-.264-.78-1.452z"/></g><path d="m113.153417 58.918578h18.516v2.688h-18.516z" fill="#4d555b" transform="matrix(.88278366 -.46977974 .46977974 .88278366 -13.96152 64.570162)"/><path d="m182.304 47.28c-4.464-7.824-6-5.868-10.512-2.772l-24.804 16.944 6.3 9.216c1.644-2.508 33.408-19.224 29.016-23.388z" fill="#2c3338"/><path d="m81.84 109.524c4.56 8.316 6.84 5.1 9.096 3.732l60.132-41.076-6.3-9.216-62.16 42.456c-.6461415.442322-1.0900722 1.123239-1.2341053 1.892916-.144033.769677.0236338 1.565045.4661053 2.211084z" fill="#2c3338"/><path d="m170.22 45.576.588 2.544-2.16-1.464-.516.348 1.152 5.028 2.868 1.956.756 3.288 3.624-2.484-2.676-11.688z" fill="#ea400c"/><path d="m158.028 67.428 1.356-.924-1.86-1.272z" fill="#ea400c"/><path d="m170.304 56.508.504 2.184 1.368-.924z" fill="#ea400c"/><path d="m157.356 67.896-2.688-11.688-3.624 2.472.576 2.544-2.148-1.464-2.484 1.692 2.004 2.928 3.972 2.7.756 3.288z" fill="#ea400c"/><path d="m177.204 54.336 1.356-.936-1.86-1.26z" fill="#ea400c"/><path d="m163.836 49.944.576 2.544-2.148-1.464-.528.348 1.152 5.028 2.868 1.956.756 3.276 3.624-2.472-2.676-11.688z" fill="#ea400c"/><path d="m157.44 54.312.576 2.544-2.148-1.464-.528.348 1.152 5.028 2.868 1.956.756 3.276 3.624-2.472-2.676-11.688z" fill="#ea400c"/><path d="m163.92 60.876.504 2.184 1.356-.924z" fill="#ea400c"/><path d="m147.677856 57.556297h2.688v18.516h-2.688z" fill="#4d555b" transform="matrix(.82580312 -.56395852 .56395852 .82580312 -11.721349 95.680987)"/><path d="m151.2 98.076c6.108 5.34-7.776 46.728-18.096 50.016s-20.316-.708-18.984-9.78 8.4-29.184 8.4-29.184 23.52-15.528 28.68-11.052z" fill="#363d42"/><path d="m124.692 147.168c9.876-3.144 19.644-38.988 20.472-42.12 10.704-18.552-2.58 49.116-24.108 42.984 1.232484-.193718 2.448118-.482582 3.636-.864z" fill="#4d555b"/><path d="m129.396 153.816c11.268 10.152-16.8 16.536-21.204 11.592-11.844-8.472 16.8-16.8 21.204-11.592z" fill="#363d42"/><path d="m125.352 140.052c14.292 3.6-2.16 20.4-7.38 23.52-23.292 3.252-2.892-20.472-.648-24.54z" fill="#363d42"/><path d="m122.712 78.276s-33.348 34.344-31.776 43.968c10.692 29.628 42.252-19.284 46.212-21.6z" fill="#363d42"/><path d="m96.816 127.308c-2.46-8.628 28.8-41.28 31.488-44.112l-2.064-3.18c-.972 2.4-42.936 40.152-28.212 50.256-.5144035-.939171-.9209852-1.933484-1.212-2.964z" fill="#4d555b"/><path d="m171.096 90.852c.132 4.296 15.336 8.82 18.636 7.464-2.628-3.876 1.524-11.556-.444-12.96-3.648-3.324-19.08-6.156-18.192 5.496z" fill="#ffc392"/><path d="m183.42 93.708c-5.94 3.816-11.832-2.124-17.568-7.548-9.432-6.984-4.464-16.296 3.42-15.504 3.912 1.068 13.716 13.404 13.932 13.332 0 .012 5.604 6.168.216 9.72z" fill="#363d42"/><path d="m105.084 78.54c-2.856 4.104-24.888-.54-28.656-3.3 6.648-4.32 1.2-10.56 5.136-11.796 5.904-1.272 29.184 4.644 23.52 15.096z" fill="#ffc392"/><path d="m86.892 74.4c6.36 6.528 15.948 4.872 27.216 2.688 17.724-1.86 10.272-13.836.648-16.344-5.712-.888-23.76 4.872-24 4.8.024-.06-10.056 2.568-3.864 8.856z" fill="#363d42"/><path d="m107.82 92.616c.276.492-10.14-2.964-6.648 1.032 22.02 38.592 81.228 22.248 56.628 14.28 0 0-23.976 7.104-49.98-15.312z" fill="#4d555b"/><path d="m159.096 109.356s-25.896 6.096-51.876-16.32l-2.664.432c9.444 28.212 65.112 25.332 54.54 15.888z" fill="#42484e"/><path d="m115.02 62.4c-7.38 7.68-4.8 27.096-1.836 32.688 5.052 9.78 39 16.008 43.908 12.804 38.844-50.988-32.736-58.56-42.072-45.492z" fill="#42484e"/><path d="m170.196 75.456c-.892431-2.6770037-2.419979-5.0980229-4.452-7.056-.612 7.2-5.148 25.2-43.02 32.4 5.502826 2.634137 11.323042 4.545975 17.316 5.688 9.324-1.908 34.296-13.932 30.156-31.032z" fill="#ea400c"/><path d="m158.16 105.468c-12.768 4.488-47.016-6.624-48.3-20.4-9.78 15.948 11.34 25.536 34.728 29.34 13.116 1.008 14.316-1.572 17.328-12.192 0 0 0-.456-.696-.84 0 0-2.172 3.768-3.06 4.092z" fill="#ea400c"/><path d="m120.264 58.128c-15.396 24.564 58.536 50.952 54.048 10.272 0 0-43.992-19.656-54.048-10.272z" fill="#2c3338"/><path d="m122.856 57.6c-14.484 23.376 55.38 48 51.072 9.732 0-.036-41.568-18.636-51.072-9.732z" fill="#363d42"/><path d="m158.088 80.112-18.468-3.6-.804 7.032c6.020183 2.4547528 12.471061 3.6788285 18.972 3.6z" fill="#4d555b"/><path d="m123.072 56.472c-13.776 18.768 54.528 42.888 49.644 9.66 0 0-40.716-16.932-49.644-9.66z" fill="#2c3338"/><path d="m175.2 10.512c20.964 29.112 10.452 63.78-20.496 68.4l4.092-63.492s3.204-7.836 16.404-4.908z" fill="#4d555b"/><path d="m172.992 10.992c20.952 29.112 10.44 63.78-20.496 68.4l4.08-63.492s3.204-7.836 16.416-4.908z" fill="#2c3338"/><path d="m175.476 61.632 3.156-4.128-.768-6.66-3.24 10.608z" fill="#42484e"/><path d="m116.916 55.392c-.18 1.008-4.116-26.592 4.08-41.34 23.28-24.288 43.68-11.268 52.608-3.9l-11.124.444z" fill="#42484e"/><path d="m178.8 42.684s.612 11.376-4.164 18.768c-17.868 25.356-75.468-17.376-44.616-26.484z" fill="#ffc392"/><path d="m178.8 42.684s.612 11.376-4.164 18.768c-17.868 25.356-75.468-17.376-44.616-26.484z" fill="#ffc392"/><path d="m177.768 53.508c.705812-3.2077558 1.055926-6.4835327 1.044295-9.768-.463543-.5314033-1.015792-.9780758-1.632295-1.32l-46.128-7.284c-.672.684-6.732 10.308-6.732 10.308l.12 7.2c2.291166 2.9042636 5.038962 5.416997 8.136 7.44l2.088.12c-2.004-2.148-1.524-10.5 2.832-10.8 4.632 1.656 7.62 7.836 14.4 2.244 0 0 8.796 2.1 15.6 1.644 1.296 1.572 7.104 4.908 10.272.216z" fill="#eaaf83"/><path d="m150.276 49.38c-1.2 5.016-9.6 3.6-8.808-1.956 1.26-5.016 9.564-3.588 8.808 1.956z" fill="#2c3338"/><path d="m144.492 48.096c-.324 1.68-3.672-.492-.78-1.116.288.108.588.216.78 1.116z" fill="#f6f6f6"/><path d="m177.252 51.084c-.972 4.584-8.052 4.272-7.26-1.608.972-4.584 8.052-4.272 7.26 1.608z" fill="#2c3338"/><path d="m173.172 51.12c-.324 1.68-3.672-.492-.768-1.116.3.108.576.216.768 1.116z" fill="#f6f6f6"/><path d="m176.4 63.312s-3.324-4.932-11.592-6.432c-1.496638 8.4591642-3.856989 16.74251-7.044 24.72 13.632-.636 18.636-18.288 18.636-18.288z" fill="#363d42"/><path d="m125.856 49.404s26.4 25.2 52.8 8.1l-2.256 5.808-43.956 2.112s-11.532-8.16-6.588-16.02z" fill="#363d42"/><path d="m125.028 48.072s1.968 19.008 18.78 25.836c0 0-13.668 2.928-23.292-11.124 0 0-1.584-9.072 4.512-14.712z" fill="#42484e"/><path d="m164.76 56.88c-9.264-2.592-32.304 8.4-32.4 8.544s10.908 16.8 25.368 16.14c3.228-1.164 8.964-17.784 7.032-24.684z" fill="#42484e"/><path d="m166.308 51.156c5.544.072 11.088-3.888 14.1-6.108 0 0-.648-22.032-14.676-33.732 0 0 4.764 12.852.576 39.84z" fill="#363d42"/><path d="m128.832 40.248s21.348 10.668 37.476 10.908c6-27.6-.576-39.84-.576-39.84s-20.712.948-36.9 28.932z" fill="#42484e"/><path d="m167.028 14.736c-.322192-1.1786415-.75616-2.3238357-1.296-3.42 0 0-20.688.828-36.72 28.14 5.4733 2.611485 11.108939 4.8681454 16.872 6.756-17.592-12.36 13.056-29.328 21.144-31.476z" fill="#363d42"/><path d="m174.792 7.932.408 2.58s-43.896 9.888-49.656 52.524c-.108.792-.492 4.98 12.324 10.284.792.324-7.2-.336-12.816-5.304l-10.104-11.244c.54-19.044 15.324-47.916 51.012-54.372z" fill="#4d555b"/><path d="m156.516 81.288c-12.3-2.484-19.26-15.72-7.728-21.996-5.324994 1.776148-10.534954 3.8801702-15.6 6.3 0 .252 10.908 16.8 25.368 16.14l.132-.084c-.730181-.0791517-1.455328-.1993418-2.172-.36z" fill="#363d42"/><path d="m89.868 167.304c.924 11.22 67.944 11.052 72.828 1.2 5.736-12.708-73.116-12.732-72.828-1.2z" fill="#363d42" opacity=".3"/><path d="m45.924 31.824s-96.192 37.524 54.528 8.568c0 0-50.052 17.688-81.252 17.208-35.448-.672 12.072-21.672 26.724-25.776z" fill="#aeaeae"/><path d="m2.748 81.9c4.8 32.472 89.064 18.564 83.352 19.02-85.944 0-81.888-18.204-83.352-19.02z" fill="#aeaeae"/><path d="m46.008 76.608c-43.968.036-45.024-7.008-46.008-7.308 1.68884568 2.9010383 4.33068396 5.1273065 7.476 6.3 15.612 4.332 33.18 1.2 38.532 1.008z" fill="#aeaeae"/></g></svg>