<svg height="149" viewBox="0 0 178 149" width="178" xmlns="http://www.w3.org/2000/svg"><g fill="none" fill-rule="evenodd"><path d="m75.0880784 143.924252c18.7842353 0 34.0154506 1.072243 34.0154506 2.395141 0 1.322897-15.2312153 2.39514-34.0154506 2.39514s-34.0084706-1.072243-34.0084706-2.39514c0-1.322898 15.2242353-2.395141 34.0084706-2.395141z" fill="#1d1819"/><path d="m64.6105098 112.794393-22.2116078 26.548457s-2.2825883 2.137524-3.2319216 2.186262c-1.0403494.141943-1.8949795.890239-2.170902 1.900795-.3350588 1.044392-.5235294 2.228037 0 2.464766s5.3679216 1.392523 8.2717647.946916c1.7808421-.29887 3.4802476-.962677 4.9909804-1.949533.2373334-.097477 2.9457255-.382944 2.9457255-.382944l.6980392-2.269813s17.4928628-13.180234 20.1523922-13.751168c2.6595294-.570935 7.315451-.758925 8.934902-.285467 1.6194509.473457 15.0636862 7.101869 15.0636862 7.101869l-3.6228235 6.161916s-1.2704314 2.562243-1.2215686 3.223691c.0488627.661449 3.4203921.661449 3.4203921.661449s1.5636079 1.427336 2.8968628 1.615327c1.3332546.187991 7.8459606.696262 8.6487056.187991s0-3.08444 0-3.69715-1.186666-1.469112-1.186666-1.469112 4.132392-6.635374 4.132392-7.777243-16.3410983-17.664159-16.7529414-18.576262c-.4118432-.912103-29.7574118-2.840747-29.7574118-2.840747z" fill="#1d1819"/><path d="m42.2732549 52.7418224s-15.7477647-1.2811215-27.5655686 4.7276169c-11.81780395 6.0087383-14.7076863 12.7764018-14.7076863 12.7764018 7.78049414-.596961 15.4905776-1.8973462 23.0352941-3.8851402 11.8666667-3.2097663 17.4509804-7.1784579 17.4509804-7.1784579l1.78-6.433458z" fill="#1d1819"/><path d="m40.7934118 67.4538318s-5.2981177 11.3003271-12.9625883 17.1558878c-7.6644706 5.8555608-12.9276862 7.2968225-12.9276862 7.2968225s3.008549-13.6258412 12.8718431-23.986215 13.9956863-9.4343458 13.9956863-9.4343458z" fill="#1d1819"/><path d="m56.1502745 83.9413084c4.7705357-.5443644 9.5716572-.776948 14.3726275-.6962617 8.865098.0765888 12.6065882 1.3298598 12.6065882 1.3298598s3.9229804-.4456074 12.6065882 1.3228972c4.7128066.9151605 9.3601486 2.138581 13.9119216 3.6623365l-12.2785098 19.3212618-.551451 8.090561s-.4327843 1.03743-3.7484706 1.448224c-3.3156862.410794-13.4721568-.466495-13.4721568-.466495s-10.1145883-1.260234-13.2627451-2.353365c-3.1481569-1.093131-1.7241569-2.805934-1.7241569-2.805934l-3.3017255-8.355141-5.1585098-20.4700931z" fill="#1d1819"/><path d="m65.5179608 110.413178c3.1132549.960841 6.3800784 1.81028 9.5631372 2.485654 1.8281753.402988 3.6789933.695947 5.5424314.877289h.0837647c1.8535341.213779 3.7184853.313765 5.5843137.299393 3.2528628 0 6.6243922-.146215 9.8772549-.431682l1.3960785-.125327 1.3262745 4.553551-1.5566275.522196c-1.5843814.508531-3.1944093.933835-4.8234509 1.274159-3.4335349.789209-6.9471072 1.179391-10.4705883 1.162757-.6491765 0-1.2983529-.041775-1.940549-.090514h-.1675294-.0698039-.1675294c-.6421961-.083551-1.2843922-.18799-1.9196079-.313318-3.4505793-.722159-6.8067888-1.836489-10.0029019-3.321168-1.5223786-.675121-3.0088484-1.428083-4.4534902-2.255888l-1.3960785-.835514 2.2476863-4.17757 1.3402353.410795z" fill="#1d1819"/><path d="m65.0153725 112.035467s9.5770981 2.959112 15.4755295 3.43257c5.8635294.765888 15.8454902-.125327 15.8454902-.125327l.481647 1.643178s-8.6975686 2.903411-16.5644706 2.269813h-.1675294-.160549c-7.8250196-1.051355-15.7058824-5.702383-15.7058824-5.702383l.8167059-1.517851z" fill="#fff000"/><path d="m94.0468235 84.4078037-15.6779608 22.5588783 3.1760785-7.3873362-7.636549-17.2951402z" fill="#fff000"/><path d="m36.9960784 69.3476636c5.9612549 15.4430841 27.0629804 23.9026635 41.8125491 25.2394859 2.7014117.2436916 7.8669019.5709346 9.1303529.3550935 6.6243921-1.1140187 21.3669806-4.0104673 31.9003926-17.9565888 6.477803-8.5709813 8.739451-28.1777103 6.072941-41.2743925-2.987608-14.6214953-9.695765-26.33957946-25.555216-32.66859815-11.0080784-4.3864486-29.6457255-3.60663551-41.065647-.34116822-24.5081569 7.00439252-32.0330196 41.50415887-22.2953726 66.64616827z" fill="#1d1819"/><path d="m111.351216 15.8469159c-3.608894-3.6820285-7.980413-6.53350741-12.8090199-8.3551402-10.0447843-4.01046729-27.6353726-3.13317757-37.931451-.18799065-3.2438465.92755845-6.2744172 2.47919526-8.9209412 4.56747665-11.4199215 9.0165888-14.9729412 26.165514-13.8141961 39.9236448.4364803 5.4187372 1.6373103 10.74894 3.5669804 15.8329907 1.7183879 4.1289065 4.4732657 7.7471653 7.9995294 10.5065888-2.2454376-2.2664767-4.0135982-4.9581266-5.2003921-7.9164953-1.9296702-5.0840507-3.1305001-10.4142535-3.5669804-15.8329907-1.1517647-13.7650935 2.3942745-30.9349065 13.8141961-39.9236449 2.6480156-2.0899962 5.6812183-3.6417664 8.9279215-4.5674766 10.2890981-2.94518691 27.9215687-3.82247663 37.9244703.1879907 3.615239 1.3942156 6.991957 3.3389876 10.009883 5.7650467z" fill="#fefefe"/><path d="m49.4630588 59.2936449s.2861961-11.6763085 9.4305098-13.4796262c9.1443138-1.8033178 23.1609412 5.8207477 26.7418824 7.1018692 3.5809412 1.2811214 3.008549 1.0235046 3.9369412 1.3020093.9772549-.2436916.3629803 0 4.1463529-1.1557944 3.7833725-1.1557944 10.4147449-9.1976168 19.2170199-7.0740187 8.802274 2.1235981 6.854745 14.6214953 6.854745 14.6214953s-1.333255 6.9138785-10.330981 9.7476636c-8.997725 2.833785-18.2188231-1.9495327-21.2203917-.5778972-4.8862746 1.0931308-20.7247844 3.9408411-29.2129412.7728505-4.9498784-1.8078185-8.5820652-6.0786537-9.5631373-11.2446262z" fill="#fbd7a3"/><g fill="#1d1819"><path d="m70.3832941 56.4598598c-1.059947 1.1947275-1.5866652 2.7683446-1.4589019 4.3585981.1326274 2.9869627 2.0173333 5.4447664 4.1882353 5.4865421 2.1709019.0417757 3.8741176-2.3533645 3.7414901-5.3403271 0-.2158411 0-.4316822-.0558431-.6405608l-6.442902-3.8642523z"/><path d="m78.1105882 61.0830374-15.5872157-3.7737383s2.9876079-2.6318692 3.7345099-2.6806075c.7469019-.0487383 12.5647058 4.8111682 12.5647058 4.8111682l.3141177 1.9425701z"/><path d="m107.176941 56.0003271c1.060995 1.1913521 1.588005 2.7633282 1.458902 4.3516355-.132627 2.9939253-2.017333 5.4447664-4.188235 5.4865421s-3.874118-2.3533645-3.74149-5.3403271c0-.2158412 0-.4316823.055843-.6405608l6.442902-3.8572897z"/><path d="m96.9157647 62.9699065 14.8054113-6.1619158s-3.364549-2.1305608-4.111451-2.0887851c-.746901.0417757-11.6572544 6.7189252-11.6572544 6.7189252v1.9913085z"/><path d="m64.3871373 83.6558411s-16.7529412 10.158458-19.2170197 13.7093925c-2.4640784 3.5509344 2.4989804 14.7607474 4.4255687 16.8634584 1.9265882 2.10271 3.0225098 3.537009 3.3715294 3.557897.5475175-.052124 1.0853279-.178621 1.5985098-.375982.4327843-.16014 3.594902-1.824205 3.594902-1.824205s.6352156.473458 1.0051764.431682 1.9684706-1.183645 1.9126275-1.531776c-.2060384-.545978-.4558127-1.074523-.746902-1.580514 0 0 .3210981-1.267196.3839216-1.496962.0628235-.229767-1.7660392-2.617944-2.3523922-2.785047-.5863529-.167103-2.3244706-.550047-2.6036863-.90514-.2792156-.355094.0837648-5.528318.0837648-5.528318l8.5160784-4.0174298s2.1569412-4.0661682 2.2127843-7.7633178c-.0513572-2.4114616-.8110297-4.7548813-2.1848627-6.739813z"/><path d="m98.7516078 87.492243c.6072942.327243 12.1807842-.8981776 23.3284702-2.144486 11.147687-1.2463084 15.796628-1.4969626 16.131687 0s3.490196 7.6588785 3.490196 7.6588785l-2.170902 2.3324766-1.60549.1531776s-1.731138 1.8799066-2.959687 1.9913084c-1.228549.1114019-5.52847-2.924299-5.52847-2.924299s-21.311137 3.2933177-29.317647 7.5892519c-8.0065101 4.295935-1.1447846-14.6214949-1.3960787-14.6214949z"/><path d="m141.003922 70.6148598c7.601647-.7519626 10.910353-.6962617 11.168627.4943458.328078 1.4551869 3.490196 7.6588785 3.490196 7.6588785l-2.163921 2.3324766-1.605491.1531776s-1.731137 1.8799066-2.966666 1.9913084c-1.23553.1114019-5.528471-2.924299-5.528471-2.924299l-10.470588.1392523 4.80949-2.3464019-14.253961-.8285514 12.63451-3.3142056-6.980392-.9956542s12.299451-2.3951402 12.313412-2.2489252l-.404863-.1114019z"/><path d="m138.316471 101.152897c7.636549.306355 10.903372.786776 11.008078 2.033084.125647 1.49 2.401255 8.083598 2.401255 8.083598l-2.471059 2.012197-1.61247-.076589s-1.975451 1.62229-3.210981 1.566589c-1.235529-.055701-5.067765-3.669299-5.067765-3.669299l-10.379843-1.308972 5.088706-1.657103-14.009647-2.81986 12.955608-1.51785-6.805882-1.956496s12.508862-.696261 12.501882-.522196l-.383922-.167103z"/><path d="m162.957255 87.4643925c7.601647-.7519626 10.903372-.7310747 11.168627.4943458.328079 1.4551869 3.490196 7.6588785 3.490196 7.6588785l-2.163921 2.3324767-1.612471.1531775s-1.731137 1.8799066-2.959686 1.991308c-1.228549.111402-5.528471-2.9312612-5.528471-2.9312612l-10.470588.1392523 4.80949-2.3464019-14.274902-.8494392 12.613569-3.2933178-6.980392-.9956542s12.29247-2.3881776 12.29247-2.2489252l-.397882-.1044393z"/></g></g></svg>