<svg height="36" viewBox="0 0 245 36" width="245" xmlns="http://www.w3.org/2000/svg"><g fill="none"><path d="m197.82 11.7c-1.76-.08-3.51-.2-5.26-.4 0 4.24.08 9.33.07 14.37 1.906389-.3713076 3.849134-.5222982 5.79-.45-.565263-4.4830277-.765921-9.0045233-.6-13.52z" fill="#eab27a"/><path d="m207.12 11.89c.69 3.84-.09 8.57-.37 13.32h6.16c-6.59-21-1.06-12.25 1.51.65 1.131297.0865306 2.268971-.0285911 3.36-.34-.36-19.63 2.31-14.77 1.23-.33l5.17-.07c.11-3.72.39-8.38.45-13.1-5.31-.18-11.41-.2-17.51-.13z" fill="#eab27a"/><path d="m238.28 12.22c.404128 4.4578247.531039 8.9364435.38 13.41h.42c4.69-2.97 3.58-9.97-.8-13.41z" fill="#3c5777"/><path d="m225.46 12.05c.667079 4.3311314.667079 8.7388686 0 13.07h4c1-4.41 3.39-9.3 5.56-13.34-3.178633.2770801-6.370796.3672353-9.56.27z" fill="#eab27a"/><path d="m237.1 11.54-1 .11c-1.161548 4.6797227-2.859454 9.2097093-5.06 13.5 2.09.05 4.18.15 6.25.34-.400313-4.639301-.463813-9.3015173-.19-13.95z" fill="#eab27a"/><path d="m35.74 20.31c.027893-.0412668.0615704-.0783119.1-.11-11.1114036-1.0515935-22.0796316-3.2807718-32.72-6.65 5.06 7.4 14.4 11.6 23.79 12.24 3.1913831-1.3928468 6.1653033-3.238496 8.83-5.48z" fill="#c4c5c6"/><path d="m18.14 16.13c5.22 1.7 13.83 1.59 18.59 3.93 48.71-1.15 98.25-1.57 147.37-2-.06-1.43-.22-3.76-.34-6.15-59.61.29-122.29.16-181.85-.26 0 0 .07.18.1.23 6.14 1.97 9.99 2.67 16.13 4.25z" fill="#939ba3"/><path d="m146.56 19.8c-36.5.13-73.87 1.52-110.57 1-1.6981996 2.2170981-3.8985432 3.9993079-6.42 5.2 51.23 1.59 103.28-.88 154.63-1.65 0-1.74 0-3.46-.06-5.09-12.48.74-25.08.39-37.58.54z" fill="#fff"/><path d="m191.29 2.12c-1.72-.2-3.59-.89-6 .78.79 9.52 1.83 20.63 1.4 30.49 1 .71 3.66.89 4.43-1.41-.66148-9.9444703-.604666-19.923706.17-29.86z" fill="#3c5777"/><path d="m199.53 18.42c.307862 2.3500678.391572 4.7240847.25 7.09 1.875761.2185106 3.761675.3386751 5.65.36-.23-4.58-.48-9.15 1.24-13.84-2.61 0-5.22-.09-7.83-.2.345658 2.1830134.575978 4.3827333.69 6.59z" fill="#eab27a"/><g fill="#d68c63"><path d="m193.41 19.83-.79-.16v6c1.906389-.3713076 3.849134-.5222982 5.79-.45-.312062-1.4792001-.459625-2.9883682-.44-4.5-1.53-.26-3.05-.55-4.56-.89z"/><path d="m207.07 21.87c-.010408 1.1204647-.117471 2.2379421-.32 3.34h6.16c-.39652-.9729365-.714209-1.9761658-.95-3-1.626667-.0933333-3.256667-.2066667-4.89-.34z"/><path d="m224.23 22.67-5-.17c.024767.9024637-.052388 1.80484-.23 2.69l5.17-.06c-.035005-.8204194-.01496-1.6422627.06-2.46z"/><path d="m217.61 22.44c-1-.05-1.24 0-3.86-.15.326033.946882.550625 1.9257.67 2.92h3.36c-.163604-.9136514-.220652-1.8431994-.17-2.77z"/><path d="m225.83 22.71c-.045052.8121145-.16218 1.6186194-.35 2.41h4c.17-.75.4-1.51.64-2.28z"/><path d="m232.18 22.92c-.36.77-.74 1.52-1.13 2.23 2.09.05 4.18.15 6.25.34-.123753-.7643626-.197244-1.5360186-.22-2.31-1.64-.08-3.27-.18-4.9-.26z"/><path d="m205.23 21.7c-1.19-.13-3.41-.35-5.47-.69.149979 1.3859544.149979 2.7840456 0 4.17h5.65c-.194994-1.1490677-.255401-2.3169463-.18-3.48z"/></g><path d="m244.08 18.15c-.47-3-2.64-7.13-5.9-7.77-14.41-2-30.65-.64-45.64-.14-.06-2.74-.2-5.48-.51-8.23.64-3.08-7.5-2.44-7.8.68-.473665 2.4566564-.654925 4.96073787-.54 7.46-59.91-.36-122.89-.56-182.69.28-.05531613-.043832-.11576034-.0807701-.18-.11l-.53.06c-.04399217.0242713-.08438174.0545635-.12.09h-.17c.22.84.43 1.68.64 2.52 11.47 23.15 52.65 13.74 70.26 15.46 38.31-.24 75.25-.62 113.39-1.89.17 1.71.31 4.71 1.4 7-.09 4.26 8.82 2.25 6.6-1.86.18-1.54.27-3.09.31-4.65 15.693577.830983 31.421248.7875825 47.11-.13 4.04.44 4.8-5.99 4.37-8.77zm-242.17-6.31c59.64.77 122.36.65 181.85.26.06 1.34.22 3.62.34 6-48.91.4-98.08.83-147.37 2-10.51-3.26-22.94-4.04-34.73-8.1zm11.83 10.63c-4.24152684-2.0209397-7.89693416-5.0912065-10.62-8.92 10.6403684 3.3692282 21.6085964 5.5984065 32.72 6.65-.0384296.0316881-.072107.0687332-.1.11-2.6562499 2.2531273-5.6319507 4.0998816-8.83 5.48-4.5466856-.3507193-9.0003963-1.4734467-13.17-3.32zm20.57 3.74c-1.57 0-3.16-.1-4.74-.2 2.525083-1.1993606 4.7289709-2.981665 6.43-5.2 49.08.15 98.86-.81 148.15-1.54 0 1.63 0 3.35.06 5.09-49.94.82-99.95 2.96-149.9 1.85zm156.76 5.79c-1 1.38-1.69 2.84-4.43 1.41.5-9.57-.64-20.52-1.4-30.49 1.784074-1.14046659 3.983632-1.4264091 6-.78-.773902 9.9363259-.830716 19.9155065-.17 29.86zm1.56-6.31c0-4.29 0-9.33-.07-14.37 1.75.2 3.5.32 5.26.4-.152614 4.5154162.047997 9.0358538.6 13.52-1.940099-.0788843-3.882837.065395-5.79.43zm12.86-7.49c-.329458 2.3740361-.349626 4.780776-.06 7.16-2 0-2.93 0-5.65-.09.067714-4.5151307-.246741-9.0278949-.94-13.49 2.61.11 5.22.14 7.83.14-1.14 1.72-1.03 4.23-1.18 6.26zm19 1.28c-.07 1.88-.4 3.79-.29 5.67l-5.17.06c1-19.82-1.88-13.64-1.23.07-.63 0-2 .11-3.36.08-5-19.61-6.35-14.31-1.51-.12h-6.16c.27-3.76 1-8.77.37-13.32 5.35-.05 11.29-.09 17.51.14-.2 2.44-.08 4.94-.18 7.4zm1 5.66c.670874-4.3308401.670874-8.7391599 0-13.07 3.179214.0960615 6.361325.0059073 9.53-.27-2.17 4-4.53 8.93-5.56 13.34-1.35-.04-2.67-.03-3.98-.02zm5.57 0c2.200546-4.2902907 3.898452-8.8202773 5.06-13.5l1-.11c-.270281 4.6653999-.203441 9.3442247.2 14-2.09-.23-4.18-.33-6.27-.38zm8.3.27c-.105752.064519-.197549.1495158-.27.25h-.42c.152098-4.4735535.025185-8.9522382-.38-13.41 3.47 2.47 5.98 10.06 1.06 13.17z" fill="#000"/></g></svg>