<svg height="161" viewBox="0 0 176 161" width="176" xmlns="http://www.w3.org/2000/svg"><g fill="none" fill-rule="evenodd"><g fill="#1d1819"><path d="m121.453968 145.060303h7.500953v10.496364h-7.500953z"/><path d="m149.132063 141.505758h-8.087619l7.298413 18.086363h5.370794l2.060317-1.616969z"/><path d="m101.584127 141.505758h8.080635l-7.291429 18.086363h-5.3707933l-2.0603175-1.616969z"/><path d="m57.64 155.793636c17.8584127 0 32.3295238 1.066364 32.3295238 2.390606 0 1.324243-14.4711111 2.397576-32.3295238 2.397576s-32.3225397-1.073333-32.3225397-2.369697c0-1.296363 14.4711111-2.390606 32.3225397-2.390606z"/><path d="m19.6184127 73.8090909s-11.49587302 7.8130303-16.29396826 18.4906061c-4.79809523 10.677576-2.99619047 16.908485-2.99619047 16.908485 5.00163245-4.711985 9.56682389-9.8649145 13.64000003-15.3960608 6.3555555-8.7609091 8.0038095-14.6015151 8.0038095-14.6015151z"/><path d="m25.08 82.4515152s-.6984127 10.9842424-5.1542857 18.2466668c-4.455873 7.262424-8.2971429 10.12-8.2971429 10.12s-1.89269838-12.1690911 2.8914286-23.8433335c4.784127-11.6742424 8.4857143-12.2039394 8.4857143-12.2039394l2.0952381 7.6666667z"/><path d="m30.7301587 94.0909091c4.6889693-1.0386986 9.4415186-1.7674539 14.2266667-2.1815152 8.8279365-.8572727 12.6831746 0 12.6831746 0s3.8622222-.8572727 12.6901587 0c4.7851481.4140613 9.5376975 1.1428166 14.2266667 2.1815152l-7.2844444 19.8287879-2.9193651 9.876061-3.2546032.752727c-3.2546032.759697-13.4584127.954848-13.4584127.954848s-10.1968254-.195151-13.4514286-.954848l-3.2615873-.752727-2.9123809-9.876061z"/><path d="m41.2552381 123.816667-8.1853968 28.819697s-3.4501588 2.369697-3.7644445 3.366363c-.3142857.996667-.8869841 2.230303 0 2.613637.8869842.383333 2.2977778.899091 6.8514286.696969 2.6765073-.090523 5.2705224-.946956 7.4730159-2.467272l2.7936508-.522728v-3.415151s4.6304762-12.914849 7.3542857-14.524849c1.2007613-.692938 2.5081606-1.182788 3.8692063-1.449697 1.3632824.26679 2.6729988.756625 3.8761905 1.449697 2.7168254 1.61 7.3193651 14.566667 7.3193651 14.566667v3.415152l2.7936508.522727c2.2024935 1.520316 4.7965085 2.37675 7.4730158 2.467273 4.5536508.188181 5.9644445-.334546 6.8514286-.69697s.3142857-1.61697 0-2.613637c-.3142857-.996666-3.7644444-3.366363-3.7644444-3.366363l-8.1644445-28.861515c.1187302-.362425-11.6146031-.146364-16.391746-.048788-4.7771429-.097576-16.5034921-.313637-16.3847619.048788z"/><path d="m42.2120635 122.067273c3.2057143.627272 6.544127 1.129091 9.7777778 1.463636 1.8546445.211965 3.7206115.309726 5.5873016.292727h.0907936c1.8666901.016999 3.7326571-.080762 5.5873016-.292727 3.2406349-.334545 6.5790476-.836364 9.7777778-1.463636l1.3968254-.271818 1.7949206 4.397878-1.4946032.655152c-1.5220842.675451-3.0794651 1.268731-4.6653968 1.777273-3.3374828 1.14673-6.7966463 1.90449-10.3085714 2.258181-.6425397.055758-1.2920635.097576-1.9346032.111516h-.4120635c-.6495238 0-1.2920635-.055758-1.9346032-.111516-3.5120436-.35295-6.9712921-1.110728-10.3085714-2.258181-1.5835665-.508777-3.1386101-1.102055-4.6584127-1.777273l-1.487619-.69697 1.7949206-4.397879 1.3968254.271819z"/></g><path d="m41.9047619 123.73303s9.8476191 1.937576 15.7561905 1.791212c5.9155555.146364 15.7631746-1.791212 15.7631746-1.791212l.6495238 1.589091s-8.3809524 3.805455-16.2450794 3.993637h-.3492063c-7.8920635-.188182-16.2730159-3.993637-16.2730159-3.993637l.6495238-1.589091z" fill="#fff000"/><path d="m32.9161905 95.3384848s-5.7898413 4.5442425-8.9396826 15.3333332c-3.1498412 10.789091-.7892063 19.034243-.7892063 19.034243s1.3549206 6.126363 2.6679365 6.391212c1.3130159.264848 4.5257143-1.289394 4.5257143-1.289394s1.5574603 1.282424 2.255873 1.13606c.6984127-.146363 1.8228571-.968787 1.4946032-2.090909-.213007-.98106-.013579-2.00637.551746-2.836666.4120635-.808485 1.1942857-.836364 1.152381-1.512425-.0419048-.67606-1.3968254-3.484848-1.7250794-3.408181-.328254.076666-2.311746-.822425-2.311746-.822425s-.5028572-10.363939 9.2330158-18.316363c2.5701588-2.090909-.495873-8.217273-2.3746031-9.9039397-1.5498995-1.4174932-3.6670803-2.0446524-5.7409524-1.7006061z" fill="#1d1819"/><path d="m68.4793651 90.5990909-13.2139683 24.1012121 2.3746032-7.687576-9.4146032-16.4136361z" fill="#fff000"/><path d="m8.89079365 34.8833333c-4.00190476 13.409697-2.98920635 31.9769697 2.98222225 41.5254546 9.6590476 15.5354545 32.0292063 21.9754545 38.8247619 23.7596971 2.305257.401256 4.6449156.571699 6.984127.508788 2.339206.062678 4.6788414-.107762 6.9841269-.508788 6.7955556-1.7842426 29.1587302-8.2242426 38.8247623-23.7596971 5.936508-9.5484849 6.984127-28.1157576 2.947301-41.5254546-4.497778-15.0057575-9.5053966-25.70424239-26.630476-30.81303027-8.1714285-2.41848485-16.5244444-4.07030303-22.167619-4.07030303s-13.968254 1.65181818-22.1187302 4.07030303c-17.1250793 5.10878788-22.1326984 15.80727277-26.63047615 30.81303027z" fill="#1d1819"/><path d="m13.1650794 36.1587879c-3.1428572 10.4893939-3.41523813 28.4433333 2.4653968 37.9012121 1.3980355 2.2122046 3.0582723 4.248111 4.9447619 6.0636364-1.1947991-1.2998797-2.2765855-2.6988663-3.2336508-4.1818182-6.0692063-9.4648485-5.7898413-27.4118182-2.5422222-37.9012121 4.3790476-14.169394 8.7580952-23.3066667 24.3746032-27.8160606 6.3555555-1.86090914 14.8482539-3.88212126 21.4901587-3.88212126 6.6419047 0 15.1415873 2.04909091 21.4971428 3.88909096 1.5064224.4307347 2.9891046.9402261 4.4419048 1.5263636-2.5606459-1.4487525-5.2849964-2.58818231-8.1155556-3.39424244-6.1669841-1.84-14.4012698-3.88909091-20.847619-3.88909091s-14.6806349 2.02818182-20.8406349 3.88909091c-15.1485714 4.48848484-19.3809524 13.62575754-23.6342857 27.79515154z" fill="#fefefe"/><path d="m18.7244444 63.6054545s-2.6609523-13.57 7.2495239-15.6190909c9.9104761-2.0490909 21.0222222 6.969697 27.1961904 8.8375758 1.976508.5993939 3.4222223 1.0106061 4.4698413 1.2893939 1.0546032-.2787878 2.5003175-.6969697 4.4768254-1.2893939 6.1739683-1.8748485 17.2647619-10.8936364 27.1961905-8.8375758 9.9314285 2.0560606 7.2425397 15.6190909 7.2425397 15.6190909s-2.3257143 7.9454546-13.3257143 11.5209091c-8.3809524 2.7112122-20.3098413.4809091-25.5898413-.7457575-5.28 1.2266666-17.2298413 3.4848484-25.5828571.7457575-11.0069842-3.5754545-13.3326985-11.5209091-13.3326985-11.5209091z" fill="#fbd7a3"/><path d="m82.1333333 79.4545455h86.1422227c4.182585.0152893 7.56944 3.3951468 7.584761 7.5690909v53.6248486c-.015321 4.173944-3.402176 7.553801-7.584761 7.569091h-86.1422227c-4.1825857-.01529-7.5694409-3.395147-7.5847619-7.569091v-53.6109092c.0076563-4.1793867 3.3967435-7.5677001 7.5847619-7.5830303z" fill="#1d1819"/><path d="m82.1333333 82.6257576h86.1422227c2.438441.0076522 4.413284 1.978415 4.420952 4.4118182v53.6109092c-.007668 2.433403-1.982511 4.404166-4.420952 4.411818h-86.1422227c-2.4384412-.007652-4.4132842-1.978415-4.4209523-4.411818v-53.6109092c.0076681-2.4334032 1.9825111-4.404166 4.4209523-4.4118182z" fill="#fefefe"/><path d="m122.040635 79.5869697s3.43619-3.4151515 5.943492-2.7878788 4.420952 6.0218182 4.609524 8.3009091c.188571 2.2790909-2.234921 2.4672727-3.757461 1.2336364-1.522539-1.2336364-3.492063-6.2169697-3.492063-6.2169697l-3.324444-.5227273z" fill="#1d1819"/><path d="m117.186667 79.5869697s3.443174-3.4151515 5.943492-2.7878788c2.500317.6272727 4.420952 6.0218182 4.616508 8.3009091.195555 2.2790909-2.234921 2.4672727-3.757461 1.2336364-1.522539-1.2336364-3.492063-6.2169697-3.492063-6.2169697l-3.331429-.5227273z" fill="#1d1819"/><path d="m112.339683 79.5869697s3.43619-3.4151515 5.943492-2.7878788c2.507301.6272727 4.420952 6.0218182 4.609523 8.3009091.188572 2.2790909-2.23492 2.4672727-3.75746 1.2336364-1.52254-1.2336364-3.492063-6.2169697-3.492063-6.2169697l-3.324445-.5227273z" fill="#1d1819"/><path d="m39.8095238 59.8209091c2.912381 0 5.28 2.9272727 5.28 6.5445454 0 3.6172728-2.367619 6.5515152-5.28 6.5515152-2.9123809 0-5.2869841-2.9342424-5.2869841-6.5515152 0-3.6172727 2.367619-6.5445454 5.2869841-6.5445454z" fill="#1d1819"/><path d="m77.712381 59.8209091c2.919365 0 5.28 2.9272727 5.28 6.5445454 0 3.6172728-2.360635 6.5515152-5.28 6.5515152-2.9193651 0-5.28-2.9342424-5.28-6.5515152 0-3.6172727 2.3606349-6.5445454 5.28-6.5445454z" fill="#1d1819"/><path d="m43.6507937 57.6393939c-1.5109402-.7073925-3.1223271-1.1775848-4.7771429-1.3939394-2.9053968-.4251515-5.9434921 2.139697-5.7828571 1.3939394.1606349-.7457575 2.3257142-3.610303 5.28-4.0633333 2.9542857-.4530303 6.2298412 1.7563636 6.2298412 1.7563636z" fill="#1d1819"/><path d="m71.9365079 57.6393939c1.5109402-.7073925 3.1223271-1.1775848 4.7771429-1.3939394 2.8984127-.4251515 5.9434921 2.139697 5.775873 1.3939394-.167619-.7457575-2.3187301-3.610303-5.2730159-4.0633333-2.9542857-.4530303-6.2298412 1.7563636-6.2298412 1.7563636z" fill="#1d1819"/><path d="m75.0095238 60.7478788c1.8088889 0 3.2755556 1.0942424 3.2755556 2.4463636s-1.4666667 2.439394-3.2755556 2.439394-3.2825397-1.0942425-3.2825397-2.439394 1.4666667-2.4463636 3.2825397-2.4463636z" fill="#fbd7a3"/><path d="m37.7771429 60.7478788c1.8088888 0 3.2825396 1.0942424 3.2825396 2.4463636s-1.4736508 2.439394-3.2825396 2.439394c-1.8088889 0-3.2825397-1.0942425-3.2825397-2.439394s1.4736508-2.4463636 3.2825397-2.4463636z" fill="#fbd7a3"/></g></svg>