<svg height="118" viewBox="0 0 193 118" width="193" xmlns="http://www.w3.org/2000/svg"><g fill="none"><path d="m28.2783883 44.61816c-1.239536 2.20896.1366789 3.83736.1366789 3.83736 5.0476923 2.85324 14.0378632 7.94848 24.0531257 13.6526l3.1318315-5.94012-24.0224908-13.41896s-2.0643224-.33984-3.2991453 1.86912z" fill="#bbb8b8"/><g fill="#989697"><path d="m47.1306471 59.07552 5.3375458 3.0326 3.1318315-5.94012-4.8049695-2.68332c-1.4626821 1.6933449-2.6948743 3.5733184-3.6644078 5.59084z"/><path d="m37.6715263 53.70416 3.169536 1.80068c.7611599-2.02488 1.9087912-3.89636 3.2543712-5.75604l-2.5002809-1.39712c-1.5999433 1.5497792-2.926539 3.3594768-3.9236263 5.35248z"/><path d="m33.9340659 51.58252.9614652.54516c1.2301099-1.87148 2.9904396-3.40312 4.948718-4.76248l-2.6746642-1.49388c-1.283632 1.7796241-2.3686173 3.6947939-3.235519 5.7112z"/><path d="m28.2783883 44.61816c-1.239536 2.20896.1366789 3.83736.1366789 3.83736.8365689.472 1.7909645 1.0148 2.8278388 1.60716 1.1664835-1.84316 2.6817338-3.52584 4.2747497-5.10232l-3.9401221-2.21132s-2.0643224-.33984-3.2991453 1.86912z"/></g><path d="m42.2196337 56.286 2.7901343 1.58356c.7375946-2.10512 1.7367644-4.15832 2.5356288-6.195l-1.3432234-.75048c-1.4987546 1.62132-2.9951526 3.422-3.9825397 5.36192z" fill="#e2dddb"/><path d="m57.1176313 51.8846c-1.708486-.88264-4.1145055.37524-6.8740049 5.72064s-2.3965934 8.024-.6857509 8.91608c1.7108424.89208 4.116862-.37524 6.8763614-5.72064s2.3942368-8.03108.6833944-8.91608z" fill="#cf8158"/><path d="m52.6496459 62.20016c10.6562393 6.01564 38.8450794 22.066 57.2236751 32.51844l3.421685-6.10296-57.4993894-32.12432z" fill="#6c3d21"/><path d="m28.0050305 44.47892c-1.3479365 2.40956.1508181 4.18664.1508181 4.18664.8224298.472 1.9017216 1.00536 2.9079609 1.57648l1.2513187-2.124c-.3299145-.18644-.6833944-.36344-.9426129-.51684-.301578-.4092853-.3221484-.9617588-.0518437-1.3924.2181525-.4532894.69441-.7232835 1.1947619-.67732l1.0038827.55932 1.1452748-1.94464-3.0634921-1.70628s-2.2457753-.37288-3.5960684 2.03904z" fill="#cf8158"/><path d="m146.868523 85.6798c-3.810513-5.664-12.87138-6.6316-26.482711-3.86804l-19.054921 13.54876c11.136972-.81656 19.761881-.472 24.654042 2.28448 5.891331 3.3158 3.831721 9.8412 4.006105 11.66312l19.380122-.19588c-.153175-2.6786.492515-11.93216-3.487668-19.116.546716-1.13044 1.296093-3.85624.985031-4.31644z" fill="#1f1e21"/><path d="m126.512796 97.95888c5.245641 3.40076 3.313285 9.58396 3.471172 11.34924l19.380122-.19588c-.150818-2.65972.471307-11.8-3.407545-18.96732z" fill="#474b4f"/><path d="m146.168632 103.71256 2.653456-4.35656c-.044774-.30916-.094261-.61832-.148462-.92984l-2.950378 4.84744-4.835605-4.779 3.393407-5.1094 4.161636 3.82084c-.070696-.34692-.150818-.6962-.235653-1.04548l-3.584286-3.28984 1.543529-2.32224c-.068339-.13688-.136679-.2714-.209731-.40356l-.348767.13924-1.439841 2.16884-1.204189-1.10448-.629194.25252 1.491685 1.36644-3.376911 5.09288-4.100366-4.05212-.612698.2478 4.373724 4.32116-3.756313 5.664-4.500977-4.36836 3.475886-5.44924-.975605.39412-2.948022 4.62088-2.502637-2.4426-.622125.25016 2.792491 2.70692-1.340867 2.1004c.086446.261221.159593.52667.219158.79532l1.56945-2.46148 4.491551 4.35892-2.530916 3.81376.506655.33748 2.455506-3.71228 3.17425 3.0798.424175-.44132-3.254371-3.15532 3.753956-5.6522 4.856813 4.79316-3.197814 5.25336.197949.12036h.445384l2.999866-4.92768 3.490024 3.4456c0-.26904 0-.55696 0-.86612z" fill="#1f1e21"/><path d="m30.3050061 85.904c-.5914896.26904-1.4987546 3.87748-.7069597 6.35548-13.1518071 6.21624-21.14045177 12.85964-24.99338218 16.579h34.64102568c4.4514896-3.18836 7.6092429-11.57816 46.2068864-15.38956l-10.632674-13.12868c-14.2570207.67968-33.5546642.61124-44.5148962 5.58376z" fill="#1f1e21"/><path d="m4.61173382 108.84084h34.64102568c2.0737484-1.48444 3.8717826-4.09932 9.0962149-6.8558l-18.9630159-9.617c-13.0151282 6.18556-20.94250307 12.77232-24.77422468 16.4728z" fill="#474b4f"/><path d="m42.9265934 99.24036-1.0133089-.51448.0542002.177-7.9721489 2.51104-2.1208791-7.03516.8554212-.31388-.7446642-.3776-.287497.10384-.0895482-.295-.7540904-.38232.2686447.88736-7.976862 2.92404-.3534798-1.16348-.5467156.3068.3252015 1.06672-5.4011722 1.98476c-.7760846.4956-1.5199633.985693-2.2316361 1.47028l7.8095482-2.86268 2.0030525 6.608-8.1182539 2.54644-1.748547-6.26108-.5325763.3658 1.6967032 6.08172-5.6250427 1.77236h2.0313309l3.7586691-1.18.3299145 1.18h.6339072l-.3817582-1.3688 8.1323932-2.56296 1.1924053 3.93176h.6362638l-1.2466056-4.11348 8.0805494-2.53936 1.7320513 5.73952-2.9150305.9204h2.0336874l1.058083-.33512.0989744.33512h.6386202l-.1555311-.51684 5.865409-1.85732c.3534799-.32096.7305251-.65608 1.1476313-1.003l-7.1944933 2.26796-1.7296947-5.74188 7.9721489-2.51104 1.63779 5.428c.1673138-.13216.3393407-.26432.5160806-.39884l-1.5718071-5.2156zm-17.5938706 4.90172-2.0030525-6.6316 7.9768621-2.92168 2.1208791 7.0092z" fill="#1f1e21"/><path d="m85.9168132 100.1938-.2050183 3.66272c3.3297802 2.832 6.4521856.29028 6.1835409-.45076s-3.749243-1.26496-5.9785226-3.21196z" fill="#d68c81"/><path d="m182.485153 19.97032c1.28431-1.43016 9.69713-1.54816 9.140989-2.43788-2.259915-3.79488-9.317729.17936-9.397851-.05428.942613-1.416 6.159975-3.09632 4.882735-4.11584-2.578047-1.83608-6.233028 2.8202-6.233028 2.8202l-6.390916 1.77944 1.331441 8.66828s1.430415 6.66936 5.299841 6.39088c2.80663-.2006-1.649573-4.5312-1.555311-6.81096.044774-.92276 12.692283.80476 12.468412-.5428-1.786251-4.38016-9.946923-1.888-10.024688-2.5488.688107-1.49388 11.240659-.92512 10.840048-1.74168-2.137374-4.21732-9.798461-1.08088-10.361672-1.40656z" fill="#f9b5ab"/><path d="m176.040037 16.0952-1.147632 8.9562 6.956484-1.09504-1.416276-9.3338z" fill="#404347"/><path d="m85.1297314 99.02796-8.954823 3.304 1.2913798 6.48764s-3.2213798 5.8056-.0400611 7.18856c1.6802076.62776 1.7956777-4.81676 2.6251771-6.4074.2686446-.0472-1.0062394 8.26 3.8552869 8.333321 1.1547008.039959-1.4963981-7.431801-.8648474-9.343401.6315507.33748 0 8.70604 5.1843712 8.44644 1.0015262-.059-3.0964835-8.76504-2.0666789-10.16924.6810379-.27848 1.5835898 7.788 5.6768865 7.20036 1.4139194-.4956-3.1766057-9.6406-4.0673749-11.34452s-2.6393162-3.69576-2.6393162-3.69576z" fill="#f9b5ab"/><path d="m76.7593284 102.38624 1.8616606 5.50116 10.9885104-3.59664-4.8733089-6.47348z" fill="#474b4f"/><path d="m116.648352 34.95632 2.486141 11.90856c31.664726-36.60124 56.394176-16.992 56.394176-16.992l1.446911-15.16772s-27.533724-26.491-60.327228 20.25116z" fill="#474b4f"/><path d="m163.75072 25.1104c7.406582 1.30036 11.768523 4.75776 11.768523 4.75776l1.456337-15.163s-4.178132-4.012-11.224164-6.16432z" fill="#231f20"/><path d="m79.7002808 53.23216s-8.9100488 21.14088-7.4607814 35.07904c19.481453 13.9358 40.5135046 9.95212 49.6827716-5.74896-2.900891-15.79548-8.233724-25.61308-8.233724-25.61308z" fill="#1f1e21"/><path d="m93.1725763 84.30156 11.8462877-6.83456-23.1552865-3.65092z" fill="#3c3f42"/><path d="m77.4615751 72.22308 13.399243 12.43956 2.6063248-1.11156-8.7615873-8.21752z" fill="#b10d28"/><path d="m84.4345543 87.0368 3.6219903 1.40656 24.6422584-12.2956-8.29735 1.31924z" fill="#b10d28"/><path d="m65.6270696 85.57832c-2.5379854-4.20788.9426129-9.09072 10.8164835-13.51808l-8.5942735-6.26816c-53.8538339 21.25416 5.5614164 39.58664 5.5614164 39.58664l12.7912576-7.53312s-17.8177411-7.79508-20.574884-12.26728z" fill="#474b4f"/><path d="m61.538486 100.6068c3.8442318 1.859644 7.8108773 3.453999 11.87221 4.77192l12.7912576-7.53312s-5.7923565-2.53228-11.2854335-5.54128z" fill="#231f20"/><path d="m132.201465 46.256-1.649572 2.7612c16.37083 3.9766 15.234981 30.22216 15.234981 30.22216s2.519133-7.12248 9.475617-8.45824c.007069.00472 1.496398-19.4228-23.061026-24.52512z" fill="#b10d28"/><path d="m155.931746 39.2232s-14.10149-3.71936-24.03663 6.15252l.994457 3.05148c8.940683-4.32116 24.03663 3.37244 24.03663 3.37244s-5.67453-6.90064-.994457-12.57644z" fill="#b10d28"/><path d="m102.16746.74104c-20.5866663-3.49988-39.1938458 4.97252-44.196764 34.54568-4.878022 28.7448 10.6515262 38.43496 31.2358364 41.93484 20.5843096 3.49988 38.4373996-.51448 43.3130646-29.264 5.005275-29.5708-9.76547-43.70956-30.352137-47.21652z" fill="#1f1e21"/><path d="m63.8879487 24.78s6.7396826-17.76608 33.283663-22.74568c-30.592503.74812-33.283663 22.74568-33.283663 22.74568z" fill="#6d6e71"/><path d="m96.1205983 38.61904c-31.9969963-5.44216-33.1894017-1.1682-34.0966667 4.19608-.9072649 5.36428-1.1947619 9.78928 30.8022345 15.24088 33.4014899 5.67816 33.1870449 1.18 34.0966669-4.19608.909621-5.37608 2.601611-9.56508-30.8022347-15.24088z" fill="#f9b5ab"/><path d="m96.1205983 38.61904c-26.8809646-4.57132-32.0229182-2.27504-33.5146032 1.73696l64.6679609 10.99288c.214444-4.24092-3.084701-7.96028-31.1533577-12.72984z" fill="#d68c81"/><path d="m76.9148596 40.4976c-3.5217523-.5982661-6.8611056 1.7754899-7.4591819 5.3023072-.5980763 3.5268174 1.7715383 6.8715491 5.2930564 7.4711957 3.5215182.5996465 6.861799-1.7728002 7.4612537-5.2993829.5984126-3.5282212-1.7721759-6.8743276-5.2951282-7.47412z" fill="#fff"/><path d="m76.7169109 41.66816c-2.8779617-.489179-5.6070107 1.4506696-6.0956012 4.332844-.4885906 2.8821745 1.4482842 5.6153271 4.3262016 6.1047671 2.8779174.4894401 5.6071418-1.450161 6.095993-4.3322911.234783-1.3842148-.0891696-2.8051382-.9005802-3.9501316-.8114105-1.1449935-2.0438004-1.920248-3.4260132-2.1551884z" fill="#231f20"/><path d="m112.357106 46.52504c-3.522031-.5972319-6.860747 1.7776719-7.457647 5.3047934-.596901 3.5271215 1.773996 6.871118 5.295842 7.4694437 3.521847.5983257 6.861297-1.7755412 7.45929-5.3024771.287934-1.6944793-.108606-3.4340841-1.102259-4.8355676s-2.502894-2.3498588-4.195226-2.6361924z" fill="#fff"/><path d="m112.17094 47.69324c-2.87687-.4946174-5.609478 1.4398048-6.103726 4.3208466-.494247 2.8810417 1.436994 5.6179114 4.313741 6.1132435s5.609835-1.4384112 6.104796-4.3193301c.493761-2.8816184-1.437683-5.6187761-4.314811-6.11476z" fill="#231f20"/><path d="m83.1855922 45.9374c-2.9221001-7.66056-13.3615385-8.55028-13.4675824-8.55736l.1885226-2.43788c.4925152.03776 12.0913675 1.03368 15.5531135 10.1244z" fill="#1f1e21"/><path d="m104.302479 49.52696-1.866374-1.57884c6.270733-7.434 17.54674-4.54064 18.022759-4.4132l-.626837 2.36.313419-1.18-.311063 1.18c-.10133-.02124-10.255628-2.61016-15.531904 3.63204z" fill="#1f1e21"/><path d="m57.9424176 28.41204-1.7155556 11.1156s14.9946154-1.75348 38.9676191 2.3246c23.9730039 4.07808 37.6432479 10.70024 37.6432479 10.70024l2.04547-11.05896s-13.938889-7.41512-37.6856654-11.45308c-23.7467766-4.03796-39.255116-1.6284-39.255116-1.6284z" fill="#d82035"/><path d="m39.1019414 106.9434c-2.1350183-1.9234-28.4292064-1.04312-32.73930404.42244-4.31009768 1.46556-6.36263736 5.79616-6.36263736 5.79616h42.3633822s-1.124066-4.30464-3.2614408-6.2186z" fill="#231f20"/><path d="m152.561905 106.7782c-3.466459-1.77-24.020135-3.10812-25.738047-.79532s-2.62282 7.51188-2.62282 7.51188h33.050366s-1.220684-4.94892-4.689499-6.71656z" fill="#231f20"/><path d="m91.4452381 88.08464c-10.3970208-1.26496-17.5820879-7.5638-18.9700855-8.86888-.0565568.4499733-.1068294.8999467-.150818 1.34992 2.3235409 2.06264 9.1904761 7.42692 18.9842246 8.614 1.4233154.189704 2.8577394.2835281 4.293602.2808962 12.0065328 0 23.3932968-6.1903362 26.1575088-7.7998562-.075409-.38468-.148461-.767-.235653-1.13988-2.142088 1.28384-16.347265 9.41876-30.0787789 7.5638z" fill="#b10d28"/><path d="m104.86569 66.76912c-15.4871308-.14868-27.9720392-6.79208-27.9720392-6.79208s9.4002076 9.98752 27.9720392 6.79208z" fill="#6d6e71"/><path d="m97.7018315 73.84676c-6.1858974-.96052-15.6450183-6.86996-15.6450183-6.86996s5.8771917 6.92896 15.6450183 6.86996z" fill="#6d6e71"/><path d="m138.286032 84.32988c1.340867 2.58184-.895483 4.90644-.895483 4.90644s4.446777-1.86912.895483-4.90644z" fill="#52575b"/><path d="m42.3068254 87.58196c-1.9205739 2.18536-.3039927 4.97724-.3039927 4.97724s-3.8694261-2.8792.3039927-4.97724z" fill="#52575b"/></g></svg>