<svg height="123" viewBox="0 0 195 123" width="195" xmlns="http://www.w3.org/2000/svg"><g fill="none"><path d="m139.1 111c-12.12-.46-18.89 2.34-28.9 2.43-12-3.82-64.1-3.08-54.61 5.18 14.3 8.16 48.47 1.4 61.79 2.24 37.62 7.52 81.25-7.69 21.72-9.85z" fill="#000" opacity=".156087"/><path d="m141.08 106.19c0 1.18 14.07 6.55 12.32 8.69-7 2.05-30.4 5.14-21.54-8.69 0 0 6.29-2.9 9.22 0z" fill="#3c2415"/><path d="m142.19 114.74c-11.3 0-11.16-2.42-8.47-9.23-.631901.192685-1.252823.419689-1.86.68-1.22 2.44-3.28 8.46-.32 9.07 5.9 2.3 24.41 1 21.79-1.21-3.68978.518951-7.414382.749649-11.14.69z" fill="#3c2415" opacity=".5"/><path d="m73.4 108.42c-.05 1.18-14.07 6.55-12.32 8.69 7 2 30.4 5.14 21.54-8.69 0 0-6.29-2.9-9.22 0z" fill="#3c2415"/><path d="m82.62 108.42s-.37-.16-1-.38c7.45 13-14.57 8.41-20.47 8.12-2.39 2.26 13.93 3.48 21.21 1.56 4.25-.56 1.09-7.33.26-9.3z" fill="#3c2415" opacity=".5"/><path d="m139.87 102c-2.15-5.88-13.6-18.26-36.12-19-1.07-.38-22.68-4.24-30.94 6.16s-4.69 17-2.18 19.85 14.68 2.6 12.88-6c-1.43-7.53 11.68-3.95 16.71-5 0 0 16.23 2.32 25.36 9.05 5.53 3.82 17.42.94 14.29-5.06z" fill="#bd1e2d"/><path d="m140.37 103.92c-7.88 5.23-21.45-4.17-32.18-8.09-13.35-2.72-27.19-4.1-29.19 9.74-1 2.55-7.33 1.39-10.11.86 2.14 6.6 17.19 5.88 14.53-4.84.41-5.81 12-2.57 16.8-3.6 0 0 16.23 2.32 25.36 9.05 4.9 3.41 14.79 1.56 14.79-3.12z" fill="#bd1e2d" opacity=".5"/><path d="m136.55 32.44.45-.44.38-.39c.26-.24.51-.49.77-.71 1.017234-.9146919 2.100134-1.7536054 3.24-2.51 5.464026-3.5831762 12.029343-5.0941567 18.51-4.26 1.462801.1828962 2.910079.4736887 4.33.87 1.42.38 2.74.92 4.13 1.41l-7 13c-.7-.45-1.39-1-2.11-1.44-4.111629-2.4867538-9.113422-3.0250141-13.66-1.47-.885889.2796783-1.751301.620497-2.59 1.02-.22.1-.4.21-.6.32 0 0-.19.12-.48.25z" fill="#603913"/><path d="m161.73 48.65-.59.55c-9.498153 8.3842532-20.217695 15.2732198-31.79 20.43-6.39 4.27-15.26 1.9-10.89-5.7 11.08-7.16 20.9-14.76 29.36-25.58 7.18-11.42 23.54 1.29 13.91 10.3z" fill="#bd1e2d"/><path d="m35.37 48.65.58.55c7.39 7 35.54 26.24 41.62 22 7.83-6.63-5-10.06-9.33-14.24-7.1941217-5.5144492-13.6798526-11.8960591-19.31-19-7.4-10.83-23.03 2.04-13.56 10.69z" fill="#bd1e2d"/><path d="m41.92 33.72c-4.1647591-4.6466727-7.5182131-9.9608156-9.92-15.72-3.41-8.72-4.22 9.54-2.82 13-13.34-.3.38 12.29 6.89 13.81 3.82.72 8.79-6.66 5.85-11.09z" fill="#3c2415"/><path d="m153.07 55.73c2.33-1.75 5.16-3.94 8.07-6.53 1.971473-1.4586322 3.203049-3.7093491 3.368609-6.1561642.165559-2.4468151-.751598-4.8429222-2.508609-6.5538358-4.12 7.73-5.81 15.54-14.17 16.42 0-3.34-1.45-9-2.24-11.87-7.21 8.3-16 16.35-26.26 22.21-10.33 20.92 29.52-3.25 33.74-7.52z" fill="#bd1e2d" opacity=".5"/><path d="m73 71.7c11.92.3 6.25-9.42-1.31-12.29-7.7821573-5.4589636-14.8095419-11.9214675-20.9-19.22-.69 2.35-2.52 9-2.49 12.72-10.44-1.91-10.3-10.3-13.68-15.91-1.5468711 1.7546819-2.2793739 4.0817922-2.0164558 6.4061401.262918 2.3243478 1.496723 4.4290398 3.3964558 5.7938599 10.41 9.16 23.23 17.46 37 22.5z" fill="#bd1e2d" opacity=".5"/><path d="m111.67 66.09c.277446-.1850885.564516-.3553277.86-.51.27-.13.53-.27.79-.37 1.631803-.7112238 3.400719-1.0527133 5.18-1 2.427918.1357178 4.754342 1.0194793 6.66 2.53.897111.6835257 1.721458 1.4576076 2.46 2.31l1 1.28.87 1.28c1.54 2.29 3.11 5.93 5.4 8.44.691.7764267 1.60679 1.3182108 2.62 1.55 1.8.54 4.68 0 7.57-1l2.72 10.17-3.1.51c-1.657661.2145239-3.33246.2647678-5 .15-1.866575-.121247-3.70077-.5468612-5.43-1.26-2.370926-1.0017483-4.421904-2.6342296-5.93-4.72-2.14-2.86-3.34-6.45-5.05-10.2l-.51-1-.55-.89c-.355987-.560401-.768113-1.0830969-1.23-1.56-.797584-.86649-1.84681-1.4610514-3-1.7-.595759-.1008938-1.204241-.1008938-1.8 0-.314438.0392404-.625367.1027635-.93.19-.153092.0360767-.303462.0828584-.45.14-.103368.0456405-.210417.0824388-.32.11z" fill="#f6931e"/><path d="m132.24 90.45c-1.49.18-19.64-12.65-36.63-23.45-12.61-9.16-23.35-12.85-21.04-17 2.34-4.59 18.6 10.16 35.62 20.2 13.36 9.68 31.45 17.25 22.05 20.25z" fill="#b59458"/><path d="m117.37 58c-12.84-11.64-27.6-10.49-39.27 0-2.91 3.49-1.39 22.79 3 28.28h33.19c4.47-5.53 6-24.83 3.08-28.28z" fill="#bd1e2d"/><path d="m117.37 58c-.61618-.6782966-1.284922-1.3069142-2-1.88 1.48 25.23-19.28 25.31-36.85 24.51.5057319 2.0257923 1.3803267 3.9410872 2.58 5.65h33.19c4.47-5.53 6-24.83 3.08-28.28z" fill="#bd1e2d" opacity=".5"/><path d="m109.84 52.68c-9.33-4-14.25-4.14-24.11 0 4.4 4.82 12 13.51 12 13.51z" fill="#97ccef"/><path d="m99.87 66.17 11.67-12.65c-.975458-.517547-1.976768-.984825-3-1.4l-10.78 11.68-10.49-11.8c-1.0233946.3998485-2.0248079.8538225-3 1.36l29.21 32.89h.86c.536941-.6924182.986965-1.4480552 1.34-2.25z" fill="#890c1f"/><path d="m97.21 60.49c-19-.37-19.26-11.77-10-10.39 2.22.86 3.28 2.36 9.4 2.75 4.46.73 10.17-3 13.71-3 12.68 5.58-9.32 11.6-13.11 10.64z" fill="#f6931e"/><path d="m117.13 81.72c-35-2.9-42.55-32.23-36.65-27 .07.31 4.75 22.08 38.64 25.14 1.52.45.98 2.74-1.99 1.86z" fill="#3c2415"/><path d="m186.71 36.32c-1.52-.26-5 .12-5.28-.91-5.27-6.75-3-.44-4.13 2.32-.43.72-3.66 2.66-3.5 3.65 0 .73 4.63.54 5 .68.23-.16 3.07 3.19 3.44 3.53 1.63 1 .81-4.64 1.45-5.24.19-.71 4.9-3.13 3.02-4.03zm-5.71 4.08c-3.14.65-1.67-4.91.89-1.84.16854.7458131-.200674 1.5091329-.89 1.84z" fill="#929497"/><path d="m194 18.42c-1.52-.26-5 .12-5.28-.91-5.27-6.75-3-.44-4.13 2.32-.43.72-3.67 2.66-3.5 3.66 0 .72 4.63.54 5 .68.23-.17 3.06 3.18 3.43 3.52 1.64 1 .82-4.64 1.46-5.24.18-.71 4.9-3.13 3.02-4.03zm-5.73 4.08c-3.14.65-1.67-4.91.89-1.84.16854.7458131-.200674 1.5091329-.89 1.84z" fill="#929497"/><path d="m179.74 5.38c-1.53-.26-5 .12-5.29-.91-5.26-6.75-3-.44-4.13 2.32-.42.72-3.66 2.66-3.49 3.66 0 .72 4.63.53 5 .68.23-.17 3.07 3.18 3.44 3.52 1.64 1 .81-4.64 1.45-5.24.18-.71 4.9-3.13 3.02-4.03zm-5.74 4.08c-3.15.65-1.68-4.91.88-1.84.17011.74333194-.194568 1.50584026-.88 1.84z" fill="#929497"/><path d="m7.79 39.62c1 1.15 4 3 3.56 4-.1 8.57 2.1 2.24 4.68.77.78-.3 4.52.21 5-.67.43-.59-3.28-3.32-3.49-3.66-.29 0-.41-4.41-.49-4.9-.63-1.84-3.53 3.12-4.4 3.18-.57.45-5.77-.6-4.86 1.28zm5.21 1.27c1.45-2.86 4.88 1.76.88 1.84-.6882298-.3313761-1.054033-1.0962374-.88-1.84z" fill="#929497"/><path d="m.11 17.54c1 1.15 4 3 3.56 4-.1 8.57 2.09 2.24 4.67.77.78-.3 4.53.21 5-.67.43-.59-3.28-3.31-3.49-3.66-.28 0-.41-4.41-.49-4.9-.62-1.83-3.52 3.12-4.36 3.18-.6.45-5.8-.6-4.89 1.28zm5.18 1.27c1.46-2.86 4.89 1.76.89 1.84-.69212682-.3280506-1.06248715-1.0937394-.89-1.84z" fill="#929497"/><path d="m15.82 4.87c1 1.15 4 3 3.57 4-.1 8.57 2.09 2.24 4.67.77.78-.3 4.52.21 5-.67.43-.59-3.28-3.32-3.49-3.66-.29 0-.41-4.41-.49-4.9-.63-1.84-3.53 3.12-4.4 3.18-.57.41-5.77-.59-4.86 1.28zm5.18 1.27c1.47-2.86 4.89 1.76.9 1.86-.7048538-.3263662-1.081494-1.10475582-.9-1.86z" fill="#929497"/><g fill="#3c2415"><path d="m186.2 29.84c-2.53.68-6.72-.11-10.32-.73 3.06.11 6.56-.79 10.32.73z"/><path d="m183.45 13c-1.23 2.3-4.66 4.8-7.56 7 2.16-2.17 3.89-5.34 7.56-7z"/><path d="m181 50.46c-3.51-1.24-6.71-4.3-10.32-7 2.91 1.65 7.65 3.74 10.32 7z"/><path d="m165.84 3.69c.138435.39437754.192933.8133308.16 1.23-.18 2.12-1.27 4.65-2.64 7.61.26-1.7.84-3.87 1.5-6.73.234003-.74277029.563421-1.45202789.98-2.11z"/><path d="m10 29.84c2.53.68 6.72-.11 10.32-.73-3.11.11-6.61-.79-10.32.73z"/><path d="m12.69 13c1.23 2.3 4.66 4.8 7.56 7-2.16-2.17-3.88-5.34-7.56-7z"/><path d="m15.14 50.46c3.51-1.24 6.7-4.3 10.31-7-2.84 1.62-7.66 3.75-10.31 7z"/><path d="m30.31 3.69c-.1384346.39437754-.1929326.8133308-.16 1.23.19 2.12 1.27 4.65 2.64 7.61-.26-1.7-.83-3.87-1.49-6.73-.2371499-.74327059-.5699397-1.45254994-.99-2.11z"/></g><path d="m98.4 88.18c-29.67.81-22.15-7.41-17.16-6.35 8.5970853 1.063647 17.2745132 1.3247733 25.92.78 3.67-.07 7.15-1 10.19-1 1.18961.332027 1.992119 1.4418265 1.934736 2.6755691-.057384 1.2337426-.959443 2.2642599-2.174736 2.4844309-6.194462.9209498-12.447477 1.3921817-18.71 1.41z" fill="#890c1f"/><path d="m101.56 85c4 1.83 7.38 5.56 10.08 10.35l1 1.86-8 2.19-.1-1.7c-.233071-3.4161614-1.260323-6.7307617-3-9.68-.301312-.453895-.635544-.885054-1-1.29z" fill="#890c1f"/><path d="m97.48 85c-4 1.83-7.39 5.56-10.09 10.35l-1 1.86 8 2.19.11-1.7c.2283016-3.417049 1.2558878-6.7327271 3-9.68.301312-.453895.6355438-.885054 1-1.29z" fill="#890c1f"/><path d="m129.75 25.25c.24-.37.17-.21.87-1.25.31-.46.6-1 .89-1.43 2.725964-4.8352656 4.165219-10.2892834 4.18-15.84.008484-1.06503807-.038245-2.12980002-.14-3.19-.08-1.06-.3-2.12-.43-3.16l14.73-.32c-.2 1.49-.34 3-.63 4.42s-.57 2.9-1 4.31c-1.971629 6.9857927-5.708164 13.3465108-10.85 18.47-.52.49-1 1-1.58 1.44-.11.1-.44.38-1.28 1.05l-.52.39z" fill="#603913"/><path d="m144.52 11.39c-8-10.07-46.45-8.06-46.45-8.06s-41.59-1.52-46.07 38.76c-9.47 54.11 118.31 50.56 88.52-14.09-2.02-8.64 11.76-6.8 4-16.61z" fill="#bd1e2d"/><path d="m144.52 11.39c-.83694-1.0196256-1.853755-1.87713917-3-2.53 6.1 8.72-6.67 7.29-4.72 15.65 22.95 56-54.28 60.52-79 40.87 30.92 28.88 106.09 13.52 82.72-37.38-2.02-8.64 11.76-6.8 4-16.61z" fill="#bd1e2d" opacity=".5"/><path d="m133.49 42.38c-8.49-16.73-43.07-12.64-56.37-10.47-16.42 3.09-22.85 24.4-11 33.78 9.06 7 22.09-.36 34.05.45 8.85.61 17.48 3.65 24.07 2.18 11.39-2.52 14.76-15.12 9.25-25.94z" fill="#fecea2"/><path d="m120.53 55.3c-.53 13.6-11.89 12.5-12.15 0 .53-13.6 11.89-12.5 12.15 0z" fill="#3c2415"/><path d="m118.55 51.39c-.09 5.19-5.46 5.18-4.67-1.24.73-3.76 4.41-3.49 4.67 1.24z" fill="#fff"/><path d="m87.76 55.3c-.52 13.6-11.89 12.5-12.14 0 .52-13.6 11.89-12.5 12.14 0z" fill="#3c2415"/><path d="m85.79 51.39c-.1 5.19-5.46 5.18-4.68-1.24.73-3.76 4.42-3.49 4.68 1.24z" fill="#fff"/><path d="m98.17 16c-16.88 0-29.77 2.5-38.72 5.18-2.0516966 2.9224747-3.6936099 6.1120932-4.88 9.48 26.42-11.2 71.05-8 87.27.81-.41-1.2-.84-2.37-1.32-3.47-.480049-1.6330798-.18127-3.3962441.81-4.78-7.95-3.16-22.2-7.22-43.16-7.22z" fill="#603913"/><path d="m104.25 46.73-1.61-5.08 21.55-6.92 1.61 7.19z" fill="#0c0608"/><path d="m91.9 46.73-21.55-4.81 1.6-7.19 21.55 6.92z" fill="#0c0608"/><path d="m108.05 12.63c-5 1.2-25.15-3.89-22.2 5.54.25 5.3-1.09 7.39 2.45 8.61 5-1.21 25.15 3.88 22.2-5.55-.25-5.3 1.09-7.38-2.45-8.6z" fill="#929497"/><path d="m88.3 24.44c-.7-.21-1-9.92 0-9.48h19.55c.78-1.36 1.23 9.75.12 9.48z" fill="#d0d2d3"/><path d="m129.75 65c.23 2.32-9.91 3.15-11.67.51-2.38-3.07 11.51-3.78 11.67-.51z" fill="#e5a876"/><path d="m66.39 65c-.22 2.32 9.91 3.15 11.67.51 2.38-3.07-11.51-3.78-11.67-.51z" fill="#e5a876"/><path d="m99.21 23.82c-2.51.28-6.21-2.76-4.14-6.46.5571172-.8786183 1.4501021-1.4903986 2.4706212-1.6926126 1.0205191-.2022139 2.079318.022824 2.9293788.6226126 3.37 1.68-1.59 9.25-3.71 2.85.38-.43.18-1.82 2.42-1.31.2992771.1799971.5150268.4712592.6.81-.14.12.42.95-1 1.28.28162-.0289208.5315576-.1930589.67-.44 0-.16.43-.52-.47-1.24-.2197076-.0794328-.4602924-.0794328-.68 0-.40547.1754839-.6803417.5611641-.7139065 1.0017024-.0335648.4405382.1797029.86341.5539065 1.0982976 1.71 1.13 4-3 .33-3.61-.9866168-.0190474-1.9229938.434278-2.52 1.22-.801603 1.377057-.6536157 3.1089085.37 4.33.7210999.8761401 1.7606103 1.4300661 2.89 1.54z" fill="#414042"/><path d="m155.18 33.72c4.145631-4.6514145 7.481896-9.9651001 9.87-15.72 3.41-8.72 4.23 9.54 2.82 13 13.34-.3-.38 12.29-6.89 13.81-3.78.72-8.75-6.66-5.8-11.09z" fill="#3c2415"/></g></svg>