<svg height="93" viewBox="0 0 195 93" width="195" xmlns="http://www.w3.org/2000/svg"><g fill="none"><path d="m97.08 0-97.08 63.85c43.29 30.6 97.08 28.86 97.08 28.86s47.23 3.06 97.08-28.86z" fill="#95601d"/><g fill="#b78827"><path d="m118.66 27.21 60.79 45.06c1.05-.55 2.1-1.08 3.16-1.66z"/><path d="m113.62 31.7 51.46 47.3c1-.42 2-.84 3-1.28z"/><path d="m110.69 39.64 38.11 45.26c.85-.26 1.71-.56 2.57-.83z"/><path d="m108.38 47.61 20.41 42.26c.66-.12 1.34-.26 2-.4z"/><path d="m110.57 92.35-10.37-42.77 8.52 42.91c.59-.04 1.21-.08 1.85-.14z"/><path d="m91.7 92.66 1.76-50.66-3.87 50.58z"/><path d="m77 91.55 8-40.32-9.76 40.11z"/><path d="m59 88.62 22.71-42.3-24.77 41.86z"/><path d="m42.67 84.4 37.67-44.76-40.23 43.94z"/><path d="m27.21 78.79 51.32-47.18-54.31 45.89c.99.5 1.99.87 2.99 1.29z"/><path d="m14.23 72.61 60.55-48.12-63.67 46.39c1.03.59 2.08 1.17 3.12 1.73z"/></g><path d="m115.75 12.28c117.69 88.31-144.24 87.27-64.38 17.78l-51.37 33.79c43.29 30.6 97.08 28.86 97.08 28.86s47.23 3.06 97.08-28.86z" fill="#95601d" opacity=".4"/><path d="m95.5 6-68.19 51.76c-16.15 30.51 71.28-55.93 68.19-51.76z" fill="#fff" opacity=".3"/></g></svg>