<svg height="167" viewBox="0 0 150 167" width="150" xmlns="http://www.w3.org/2000/svg"><g fill="none" fill-rule="evenodd"><path d="m145.673077 162.174041c1.567873 6.226714-123.4785069 6.257388-113.2092761-.749796 11.6945701-5.957469 114.4445701-4.648735 113.2092761.749796z" fill="#000" fill-rule="nonzero" opacity=".2"/><path d="m86.8778281 64.3563469c27.0576919 2.338 18.3461539-14.634653 14.6674209-16.1615102-9.9671947.708898-19.7986427 1.2133062-29.7183259-.2965102-5.4298643-1.0224489-3.770362 13.0396327-.9773756 15.1901837 4.1742082 1.7824694 10.9377828.5964286 16.0282806 1.2678367z" fill="#b4b4b5"/><path d="m67.591629 47.2644082c-9.560033-1.6156981-18.9254984-4.2315032-27.943439-7.8046939-1.1266968 5.3099184-3.2613122 18.2882041-1.0588235 19.0243673 9.2952489 2.3107347 19.5169683 4.2636123 29.3144797 4.9316123-3.050905-5.3337755-2.7454752-10.6505102-.3122172-16.1512857z" fill="#848687"/><path d="m96.719457 56.5755102c-4.4864253 2.818551-10.4728507 1.7313469-16.0214932 1.4893674-13.4558824-3.2377552 13.7375566-1.9324286 16.0214932-1.4893674z" fill="#fff"/><path d="m40.4049774 36.7127347c45.5667421 19.1777347 101.9999996 2.2902857 96.0407236-2.3652653-4.713801-24.38881634-12.34276-19.3685918-.414027-29.99183675-38.2466061-.88953061-81.6142532-9.20204081-95.6266966 32.35710205z" fill="#fff"/><path d="m38.9524887 76.5780204c2.7726244 32.1117146 18.9298642 33.7101426 43.9920814 36.0072446 49.9852939 1.271245 49.8868779-22.3677752 52.6018099-36.9308568-30.929864 10.4221632-65.6097284 13.1248367-96.5938913.9236122z" fill="#fff"/><path d="m132.013575 73.8957959c-2.036199-20.5341837-21.057693-5.3201428-32.4264709-2.944653 1.9411769-2.8969388 5.0361989-3.5785715 7.7477379-4.9520613-3.940046.5248572-9.2511316-1.0224489-12.794118 2.2459796-16.0520362 15.3128776-7.3303168-4.3931224-32.4400453-3.111653 2.6572399 1.7347551 5.6742082 2.9344285 7.7782806 5.7938775-8.0090498-2.1880408-14.6266969-8.3227347-23.8472851-8.5919796-2.0633484 7.7467551-7.3914027 12.8419592-.627828 13.755347 28.6662895 9.2633877 58.2624438 6.1040204 86.6097288-2.1948572z" fill="#f3d7bf"/><path d="m97.1606335 116.664837c2.2771493 8.963469-5.0226245 18.485877-3.4717195 28.287755 11.854072 24.392224 35.728507-33.785123 29.501131-37.302347-10.421945 5.88249-22.547511 8.200041-34.6153844 8.394306-5.2771493 3.333184-.2205882 9.733714 5.2262444 9.587163.6957013-3.190041 1.3031674-6.346 3.3597285-8.966877z" fill="#fff"/><path d="m50.4468326 139.652898c3.4785068-4.624878.8552036-9.771204.1255656-15.241306 2.7997737 1.925612 3.3359728 4.863449 3.8246606 7.750163 18.3800905-2.552714 24.1561086 1.915388 24.6685521-1.704082-34.4762444-6.288061-23.8778281-14.031408-35.0871041-17.647469-18.811086-6.816326-19.2590498 20.033184-11.1346154 29.862327-.0475113.074979-.0950226.153367-.1391403.231755-11.0260181-.817959 3 5.841592 7.8665159 5.211081 5.4061086.497592 12.9298642-4.669183 6.1493212-8.680591-.566742-1.192858 1.3846154-1.673409 3.7262444.218122z" fill="#fff"/><path d="m105.335973 63.3918367c39.580317-4.9077551 32.090498-.753204 31.934389-23.3220612-10.579542 3.6500014-21.492267 6.2414298-32.579186 7.7365306 3.322399 5.1156531 4.696833 10.2210817.644797 15.5855306z" fill="#848687"/><path d="m117.699095 146.735061c.322398 7.555898 13.544118-3.844408 18.366516-4.331775 5.090498-6.104021-2.599548-7.344592-7.632353-5.200857.084842-2.092613 2.311086-2.317551 4.041855-3.152551-.081448-3.578572-5.881222-7.221898-7.954751-10.159735-2.96841 6.794715-6.404321 13.373611-10.282805 19.688959 1.415158.794102 3.940045.422612 6.763574.470327l.030543.293102c-.845022 1.134918-1.869909 2.041489-3.332579 2.39253z" fill="#fff"/><path d="m86.0531674 124.282082c-9.1628959-14.484694-26.3076923-7.630878-38.2533936-17.77698 4.7307692 20.847735 24.5599547 16.239898 38.2533936 17.77698z" fill="#fff"/><path d="m41.300905 98.7038163c-7.6357466-16.4034898-1.5848417-21.2771632-9.3190045-21.5600408-8.7081448-1.6120612-17.2567874 1.0531225-12.6447964 10.060898 7.6052036 2.7708367 15 6.9083469 21.9638009 11.4991428z" fill="#fff"/><path d="m64.479638 149.250286c3.5667421 1.925612 7.3846154 5.660959 11.6029412 6.257387 4.6187783-7.341183 6.7364253-15.776387 8.0972851-24.487653-3.5294118-1.441653-4.7511313 4.457878-7.2285068 6.557307-3.8891403 4.676-7.7613123 7.538857-12.4717195 11.672959z" fill="#848687"/><path d="m125.175339 150.940735c2.792987 2.477734 2.626697 7.044673 4.394797 9.266796 5.63009.729347 13.856335.610061 17.647059-1.877898.057692-4.870266-10.557693-4.209082-12.115385-12.22849-3.834842.657775-6.923077 2.712898-9.926471 4.839592z" fill="#848687"/><path d="m32.0667421 148.892429c-1.4864254 4.134102 8.918552 3.72853 5.2635746 6.090387-3.3936651-2.143734-11.1719457.681633-8.6165158 5.38149 5.3653846 1.983551 14.6504525 2.903755 18.6108597.231755-.0950226-3.905755-3.9570135-1.704081-2.6945701-10.326734-4.2692308.88953-8.2941176-.504409-12.5633484-1.376898z" fill="#848687"/><path d="m91.1402715 147.863163c-10.4524887 16.522776 1.9717195 4.771429 2.7149321 7.71949.2647059 3.585388 9.2918554 10.940204 7.3608594 3.786469 1.985294-.565755 2.972851 3.408164 5.409503 1.915388 0-.173816-.539593-.340816-.495476-1.969918 1.574661-.378306 1.754525 1.727939 4.282806 1.87449-.286811-.815508-.41694-1.678263-.383484-2.54249 1.018099-.245388 1.832579 1.247388 3.515837.817959-.156109-1.468918-1.673077-2.280061-3.128959-3.823959-6.115385 6.969694-16.1266972-1.056531-19.2760185-7.777429z" fill="#f3d7bf"/><path d="m14.0531674 86.339c-4.91742079-4.9929592-2.8201357-11.5298163 3.9570136-12.6102041-1.3574661-1.3019183-2.2975113-2.8151428-4.1368778-3.507.678733 5.7938776-2.2160634.4907755-5.3891403.8520408 2.8676471 4.4953674 3.030543 5.2349388-3.68552037 3.5956123-.02036199.0783877-.04411764.1601837-.0678733.2419796 5.53506787 4.3760816 3.26470588 3.6808163-3.01357466 4.0897959 0 .0988367.02375566.1976735.03733032.2965102 4.56108597 1.9528775 11.53846151 1.6597755 4.10294117 8.2170816 3.01696833.4737347 5.49773754-.814551 8.19570134-1.1758163z" fill="#f3d7bf"/><path d="m129.654977 62.8703878c6.145928 16.7 6.159503 11.7479387 7.486426-1.3462245z" fill="#fff"/><path d="m37.540724 60.3040408c.1493212 3.7183061-.3699095 13.0907551 2.2873303 13.6326531 1.1266968-3.6194694 2.1006787-8.4386123 4.8393665-11.8672245z" fill="#fff"/><path d="m86.4230769 131.214286c1.2251131 5.112245 3.1866516 10.016592 2.9423077 15.462836 1.510181-3.786469 4.5169683-17.954204-2.9423077-15.462836z" fill="#848687"/><path d="m92.3076923 66.6261837h-13.3710407l6.9943439 5.4973673z" fill="#fff"/><path d="m96.9671946 152.344898c3.2002264 4.321551 14.4773754 6.318735 11.6165154-1.843816-3.573529 2.474326-7.452488 3.053714-11.6165154 1.843816z" fill="#848687"/><path d="m19.8427602 76.3053673-.0984163-.2249387c-6.8789593-.7429796-8.4638009 6.2642041-3.1357466 9.7405306-1.1334842-3.9500612.020362-7.075347 3.2341629-9.5155919z" fill="#848687"/><path d="m81.5328054 126.316755-14.5248868-.70549c4.6255656 1.339408 9.4276018 1.632511 14.2228506 2.457286.1085973-.627102.1968326-1.148551.3020362-1.751796z" fill="#848687"/><path d="m89.199095 128.992163c1.5441177-2.43002-7.5237556-4.065939-6.2375565-.681632z" fill="#848687"/><path d="m86.1515837 115.80598-4.9819004-.357858 3.0542986 2.808327z" fill="#848687"/><path d="m93.3257919 127.332388h-2.5079186c.0339367.627102.0644796 1.155367.0950226 1.673408 1.8970589.504408 2.1515837.351041 2.412896-1.673408z" fill="#848687"/><g fill-rule="nonzero"><path d="m127.143665 63.2827755c-21.665158 1.9392449-17.840498 6.1824082-27.5429863 7.6683674 1.9411763-2.8969388 5.0361993-3.5785715 7.7477373-4.9520613-3.940045.5248572-9.2511309-1.0224489-12.7941174 2.2459796-16.0520362 15.3128776-7.3303167-4.3931224-32.4400452-3.111653 2.6572398 1.7347551 5.6742081 2.9344285 7.7782805 5.7938775-8.0090497-2.1880408-14.6266968-8.3227347-23.847285-8.5919796-1.2420815 2.9719184-2.5350679 7.0719388-3.7839367 10.6539184 6.7160634-15.9502041 25.0486426 4.4306122 42.872172 3.3297755 24.0271488-2.6379184 40.7239818-17.7599388 46.8936648-2.4334286-.943439-3.2241224-1.835973-9.0452653-4.883484-10.6027959z" fill="#d5ae9a"/><path d="m37.5 54.796449s61.2929864 8.2784286 101.25-4.154551v8.6192449s-34.812217 10.8175102-86.7420814 3.4797347l-15.4343892-3.6228776z" fill="#231f20" opacity=".2"/><path d="m135.067873 4.26702041s-10.968325 6.51640819-9.895927 11.53663269-1.235294 22.9164898-23.545249 29.8077959c-.57353.3408163 36.85181-5.5450817 37.598416-8.4045306 0-.0545306-7.466063-23.4720204-7.201357-22.8108368-1.476245-6.46187752 11.005656-11.94561221 3.044117-10.12906119z" fill="#231f20" opacity=".2"/><path d="m42.5361991 96.0147755s33.8993213 24.3240615 83.9524889 6.7277145c-30.7873305 19.924122-63.6651586 24.92049-83.9524889-6.7277145z" fill="#231f20" opacity=".2"/><path d="m22.1979638 89.0075918s8.270362-4.4306122 16.2522624-4.7339387l4.9886878 17.2896119z" fill="#231f20" opacity=".2"/><path d="m119.202489 133.238735c3.098416 3.442245-.841629 6.748163 3.58371 10.705041.505656 1.472326-1.53733 5.251979.81448 5.613244-6.108598 2.177817-7.079186-1.830183-8.219457-4.294285l-3.393665-1.158776z" fill="#231f20" opacity=".2"/><path d="m69.6515837 76.5507551c-.1357466 4.3556327-6.5531674 4.4851429-6.821267 0 .1357466-4.3590408 6.5531675-4.488551 6.821267 0z" fill="#000"/><path d="m106.466063 75.9713673c-.135746 4.3556327-6.5531671 4.4851429-6.8212666 0 .1289593-4.3590408 6.5531676-4.488551 6.8212666 0z" fill="#000"/><path d="m87.821267 148.677714c-.8076923-.197673-2.0361991.494184-1.2861991-1.022449 1.6730769-6.155143.607466-11.928571.5124434-13.114612l-1.3303167-1.179224-.5260181 4.089795-.770362-.443061c1.4151584 7.780837-4.6934389 14.627837 3.617647 14.56649z" fill="#000"/><path d="m79.8020362 131.984531 1.6119909-2.436837-1.2760181-1.128102c-36.4106334 10.855-62.3484162-32.7183675-32.0429864-14.375633l.7941177-2.627694c-35.7794118-20.2376732-10.4457014 31.327837 30.4819004 20.186551z" fill="#000"/><path d="m149.28733 156.390388c-2.87104-4.474919-11.090497-4.740755-12.471719-11.175368 5.355203-3.360449 3.797511-10.657326-2.399321-10.837959.088235-7.283245-10.39819-9.672367-8.589367-14.051857 4.798643-12.296653-2.056561-12.559082 1.381222-15.646877 11.297511-10.4323882 10.859728-26.7677148 12.617647-41.1092658 6.315611-52.8912857-21.386878-45.9761224 6.247737-61.45940814-64.5509046-4.79869388-118.9242077-8.42497959-110.6843887 72.55638774-4.4932127-1.4791428-9.6753394.0374898-14.2533937-.460102-2.290724-.8452245-6.8280543-9.7746123-9.2579185-4.3045102-1.7171946-1.6563674-6.97398195-.8384082-4.82239824 2.944653-2.27375565-.8111428-6.06108597.7634286-3.73303167 3.6365102-7.71719457 2.8935306-.13914027 5.1122449 4.21832579 6.5709388-10.24886878 10.8209184 5.55203622 4.3965306 10.33710412 5.5007755 11.04638 6.7243061 28.5339366 13.6633269 28.4321267 22.1530609l-.4242082-.098836c6.5599548 14.811877 20.6504525 17.811061 33.1866516 19.845734-1.2285068 3.067347-22.0180996-.201081-24.668552 1.704082-.1391403-.824776-.2850679-1.652959-.4819005-2.460694l-2.6402715-1.267837c1.0520362 3.244572 1.7579186 7.733123-.8280543 11.219674-.3393665-.637327-4.8970588-2.54249-3.4106335.248796 6.9162896 3.541081-2.5859728 9.379265-7.4219457 8.14551-4.0350678.654367-17.8438914-6.10402-6.9162896-5.13951.0441177-.078388.091629-.156776.1391403-.231755-7.5339366-9.331551-5.7692308-25.561225.2850679-29.548776-.2613122-.916796-.5022625-2.232347-.1934389-3.363857-15.5124435 9.795061-3.6278281 30.516694-6.5667421 34.848469.8585973 2.900347 6.4479638 5.896123 1.7443439 9.045266-11.8778281 12.085347 13.5271493 12.432979 19.6832579 9.004367 4.0113122-3.425204-4.3540724-8.72149-.9230769-13.223673 13.4830316-10.773205-4.7036199-17.783796 29.0938914-14.362l.1018099.241979c-4.0723982 6.025633-16.0147059 13.475878-13.3947964 15.156102 4.4524887 1.738163 8.4604073 6.79247 13.9920815 6.95947 4.6628959-5.436021 7.2624434-13.23049 8.6809955-20.551225 2.5045249 1.441653 3.4479638 11.39349 1.357466 13.431571-4.2047511 5.688225-.8518099 12.405715 5.6266969 7.08898 1.3744344 3.554714 7.80543 9.542857 11.070136 5.21449.773755.528265 8.548642.742979 8.799773-1.291694 7.625566-.432837-1.696832-6.240347-1.900452-12.235306l2.619909-3.408163c.845023.473734 1.605204.892938 2.429865 1.363265.590497 9.849592 7.37104 1.128102 9.950226 8.254571 1.561086 3.084388.678733 7.129878 5.25 7.838776 5.440045.201081 22.218326.845224 18.736425-6.744755zm-102.149321 3.108245c1.6968326 4.284061-17.7115384 2.668591-18.9807692.412387.9230769-8.820326 6.7669683-4.253387 9.9977376-5.432612-.5904978-3.452469-6.2273756 0-6.1085973-5.585979 4.2692308.872489 8.2941176 2.266428 12.5565611 1.363265.4547511 5.432612-2.0565611 3.541082 2.5384615 9.246347zm90.061086-97.5688983c-1.798643 19.4265306-2.955882 10.9504286-7.544118.9406531l7.486426-1.3462245c.034929.1324653.054292.2685827.057692.4055714zm-75.0950226 3.2036735c27.1289593.0306734 16.6289593 18.0632653 32.4366516 3.1150612 3.1561086-3.1082449 8.484163-1.8097347 12.797511-2.2493878-2.714932 1.3632653-5.806561 2.044898-7.7477373 4.9520613 29.9966063-11.1003878 28.9819003-10.2244898 32.4264703 2.944653-28.754525 8.578347-60.6923074 11.5877551-89.6266965 1.1621837-.9536199-3.2616123 2.5622172-8.5817551 3.6447964-12.712449 14.9321267 1.7552041 15.4276018 7.0208163 23.847285 8.5919796-2.0938914-2.8696735-5.1108597-4.0693469-7.7782805-5.804102zm24.7737557-.7770613c-4.8868779-.7225306-11.412896.6134694-16.0282806-1.2644285-3.617647-4.7509796-4.9886878-18.0632653 4.3099548-14.7880204 9.8416289 1.6665918 18.4683258-.5555307 27.6040727.4294285 10.84276 17.5145511-9.5361994 15.3742245-15.8857469 15.6230204zm5.4298642 2.2698368-6.3766968 5.4973673-6.9943439-5.4973673zm45.0882357-25.7282245c.061086 5.3371837 1.214932 13.632653-.644797 17.9542041-10.379676 2.097775-20.867638 3.6133465-31.415158 4.5396734 4.052036-5.3678571 2.677602-10.4732857-.658371-15.5855306 11.086919-1.4951008 21.999643-4.0865292 32.579185-7.7365306.06448.3237755.111991.5725714.139141.8281837zm-92.9864257-13.4963265c19.7205882-33.42726535 61.6323527-22.6608776 91.6289597-23.04940821-12.987557 7.58316331.302036 19.76734691.590497 30.92226531.936652 2.3857143-1.309954 2.171-3.658371 3.0673469-33.8755654 10.9231633-63.2986423 9.747347-92.5656106-1.629102 1.0066685-3.2342989 2.3429287-6.3556613 3.9875565-9.3145102zm-4.9683258 12.9510204c.0576923-.2590204.1289592-.5146327.2239819-.8895307 9.0179405 3.5731908 18.3834059 6.1889959 27.9434389 7.8046939-2.4366516 5.5007755-2.7386878 10.8175102.3122172 16.1512857-37.1063349-4.5226326-30.9298643-2.6038367-28.4966064-23.0698571zm-1.8834842 19.9547959 7.1266968 1.7586122c-2.6402715 3.3297755-3.5904977 7.7058572-4.8393665 11.8672245-2.9966063-1.4382449-2.0497737-10.6641428-2.3042986-13.6292449zm-31.70022624 27.2244081c6.26809954-5.8893061 2.53506788-6.0017755-4.10294117-8.2170816 0-.0988367-.02375566-.1976735-.03733032-.2965102.9739819-1.1349184 11.17533933 2.130102 3.01357466-4.0897959.02375566-.0817959.04751131-.1635918.0678733-.2419796 2.90497738.0340816 8.54185517 3.6092449 3.68552037-3.5956122 2.0124434-1.3905307 6.1595023 5.7938775 5.3891403-.8520409 1.8393665.6816327 2.7929864 2.2050817 4.1368778 3.507-6.688914 1.1996735-9.020362 7.4434286-3.9570136 12.6102041-2.6979638.3442245-5.17873301 1.6325102-8.19570134 1.1758163zm7.37782804-6.6527347c-.061086-2.7946938 3.142534-5.596204 6.4954751-4.7986938l.0984163.2249387c-3.2070136 2.4402449-4.367647 5.5655307-3.2341629 9.5155919-1.550905-1.3905306-3.0950226-2.7878776-3.3597285-4.9418368zm27.3902715 17.4259388c-6.5904977-4.3522245-13.5644796-8.329551-21.2816742-11.1003877-6.1730769-11.7717959 9.4547511-11.1549184 15.9502262-9.4781021 2.4977376 6.1142449 2.270362 14.3517755 6.0237557 20.9772449-.3359728-.1908571-.5090498-.2862857-.678733-.3987551zm1.7443439-5.2042653c-1.7884615-5.177-2.6266968-10.8004694-3.4309955-16.5227755 30.8076923 12.2012245 65.548643 9.5053674 96.600679-.9236122-2.127828 14.9550204-5.569005 26.4643878-18.631222 31.3551018-21.3020362 10.538041-69.3325791 7.443429-74.5248868-13.9087141zm43.7782805 22.7051841-1.9174208 2.457285-3.0542986-2.808326zm-25.1300905 6.27102c-6.9638009-2.218714-11.6877828-8.268204-13.2352941-15.571898 21.3800905 13.291837 28.0554299 2.518633 38.2533937 17.77698-8.178733-.770245-16.7579186-.051123-25.0147059-2.205082zm5.9864254 3.534265 14.5248869.70549c-.1052037.603245-.1934389 1.124694-.3020362 1.751796-4.7918552-.824775-9.5938914-1.117878-14.219457-2.457286zm16.2658371 10.336959c-6.760181 27.360735-7.6696833 19.395858-18.7839367 13.291837 19.6255657-15.442388 13.9377828-19.181143 19.7002263-18.230265-.3054299 1.666592-.6244344 3.299102-.9128959 4.938428zm-.3122172-7.651326c-1.5067873-2.726531 7.4660633-2.508408 6.2375566.681633zm3.4615385 2.927612c7.7680995-2.348224 4.2081448 12.450021 2.9423077 15.462837.2477375-5.446245-1.713801-10.360816-2.9389141-15.473061zm4.4117647-3.892122h2.4943439c-.2748869 2.024449-.5294118 2.188041-2.412896 1.673408-.0169683-.518041-.0475113-1.046306-.0814479-1.673408zm19.591629 28.308204c.644796 1.005408 2.89819 1.901755 3.128959 3.823959-1.184389.514633-1.608597-.654367-3.515837-.817959-.033456.864227.096673 1.726982.383484 2.54249-1.60181.313551-2.036199-1.731347-4.282805-1.87449.220588.681632-.434389.480551.495475 1.969918-2.626697 1.656368-3.393665-2.965102-5.609729-1.659775 1.998869 7.446836-7.2997733-1.905164-7.8529407-4.843-9.5972851 5.470102-5.9049774-1.666592-2.0361991-6.918572 3.0509049 6.748164 13.5067868 14.747123 19.2895928 7.777429zm-13.4558824-3.295694c4.1708144 1.223531 8.0429864.644143 11.6165154-1.843816 3.006788 8.20004-8.49095 6.052898-11.6165154 1.843816zm12.0203624-5.93702c-.722851 1.888122-3.298643 3.513816-5.942308 3.929612-20.0972852 1.959694-1.903846-26.154245-5.8846155-33.659021-2.0565611 2.61747-2.6640272 5.776837-3.3631222 8.966878-5.6097285.681633-11.9762443-8.810102-3.2036199-9.798469 11.4841626.143142 22.3201356-2.726531 32.5791856-8.179592 4.690045 11.454836-11.368778 33.32502-14.18552 38.726959zm12.400452 2.828775c-2.460407.807735-3.268099.207898-3.688914-2.487959 1.46267-.340816 2.487557-1.257612 3.332579-2.385714l-.030543-.293102c-2.073529-.282878-3.587104.661183-6.763574-.470327 3.878484-6.315348 7.314395-12.894244 10.282805-19.688959 14.419683 14.944796 5.345023 7.470694 3.912896 13.312286 4.211538-1.612062 11.877828-1.765429 8.236425 4.682816-5.032805 2.665184-10.038461 4.359041-15.281674 7.317326zm24.980769 9.76098c-24.855203 4.56353-13.968326.030673-21.193439-8.043266 3.003394-2.126694 6.091629-4.181816 9.929865-4.839591 2.090497 8.793061 15.376696 8.561306 11.263574 12.869224z" fill="#000"/><path d="m79.0723982 151.489449c.0950226-.020449.4038461-1.13151.7364253-2.753796-.5226244 1.656367-.8348416 2.774245-.7364253 2.753796z" fill="#231f20" opacity=".2"/><path d="m81.5328054 129.077367-11.0124434-1.322367c18.6651584 4.031857-15.030543 4.164776-21.040724.923612-.5497737 10.565306-11.0667421 5.074755-2.867647 13.516776 1.4864253 2.222122.4683257 4.072755.3699095 4.239755 4.2624434.494184 5.8235294-12.494327 6.8789592-12.835143 18.2714932.126102 30.882353-4.229531 25.9411765 15.135653 6.7567873-22.834694 5.6708145-9.999551 9.4072398-12.364816-.5395927-4.175 3.2307692-2.484551 3.6685521-1.973327l.9400452-3.912571z" fill="#231f20" opacity=".2"/></g></g></svg>