<svg height="87" viewBox="0 0 82 87" width="82" xmlns="http://www.w3.org/2000/svg"><g fill="none"><path d="m80.19 8h-11.66v9.22c3.79-.87 15 2.88 13.09-4.24-.31-3.45.98-3.81-1.43-4.98z" fill="#a87c50"/><path d="m1.66 8h11.66v9.22c-3.8-.87-15 2.88-13.1-4.24.32-3.45-.97-3.81 1.44-4.98z" fill="#a87c50"/><path d="m70.15 60.67 2.91-.63v-7.92l-6.27-1.36 6.27-1.36v-17.11l-4.09-1.19 4.09-1.19v-11.76h-64.81v15.34l6.48 1.41-6.48 1.4v6.36l5.6 1.21-5.6 1.22v12.97l5.65 1.65-5.65 1.64v6.44h64.81v-6.48z" fill="#fce7be"/><path d="m36.85 33.26-2.7-1.93v1.93h-10.79l-2.7-1.93v23.16l2.71-1.93v-1.22h10.78v3.15l2.7-1.93zm-2.7 16.15h-10.78v-7.36h10.78zm0-9.29h-10.78v-4.93h10.78z" fill="#bd1e2d"/><path d="m54.78 38h9.49v-1.6s-2.57-1.53-3-1.89v1.89h-6.49v-3.64h1.64c-1.3675261-.8645411-2.6558821-1.8483766-3.85-2.94l-.07 6.58h-9.61v1.6h8.79c-3.55 6.15-13.24 15.17-13.24 15.17 3.1880446-1.107778 6.0838072-2.9231853 8.47-5.31.14.8 2.66 1.13 5.46 1.24v5.06l2.46-1.47v-3.52c2.83 0 5.35-.12 5.35-.12v-2.66c1.36 1.4 2.43 2.48 2.43 2.48 1.3.09 3.37-2.21 3.37-2.21-5.72-1.39-11.2-8.66-11.2-8.66zm-7 9c1.6977091-1.7012073 3.2466955-3.5446015 4.63-5.51l-.02 5.51zm10.82-2.21c-.85 1.56-1.06 2.52-3.82 2.21v-6.64c1.1731042 1.5694114 2.4527923 3.0562553 3.83 4.45z" fill="#bd1e2d"/><path d="m75.19 2.82c-4.763363 1.18140057-9.6010193 2.04001774-14.48 2.57v14.5c4.83-.49 12.95 4.25 17.65 1.53 1.79-3.97 2.64-20.17-3.17-18.6z" fill="#efbf6a"/><path d="m6.65 2.82c4.7667285 1.18145615 9.6077142 2.04007128 14.49 2.57v14.5c-4.83-.49-13 4.25-17.65 1.53-1.79-3.97-2.63-20.17 3.16-18.6z" fill="#efbf6a"/><path d="m75.9 2.4c-.135666-.81977728-.6199665-1.54052016-1.3276984-1.97589997-.7077319-.43537981-1.5694213-.54265776-2.3623016-.29410003-10.1767129 2.90369474-20.7071436 4.38111855-31.29 4.39-31.92.66-36.42-15.1-35.86 10.75.9 9.79-.32 11.59 11.75 8 7.9252522-1.6904714 16.0064629-2.5418308 24.11-2.54 32.16-.73 38.85 17.56 34.98-18.33z" fill="#f8dea5"/><path d="m75.9 2.4c-.1932768-1.26647625-1.207869-2.24833974-2.48-2.4.24 5.4 3.84 25.68-6.8 20.33-9.2829385-2.376051-18.8278011-3.5754582-28.41-3.57 0-.32-17.79.43-32.5 4.5-.31 7.05 8.72 1.93 15.29 1.2 6.5774611-1.1517598 13.2424597-1.7305975 19.92-1.73 32.16-.73 38.85 17.56 34.98-18.33z" fill="#f8dea5" opacity=".5"/><path d="m80.19 79h-11.66v-9.22c3.79.87 15-2.88 13.09 4.25-.31 3.47.98 3.84-1.43 4.97z" fill="#a87c50"/><path d="m1.66 79h11.66v-9.22c-3.8.87-15-2.88-13.1 4.25.32 3.47-.97 3.84 1.44 4.97z" fill="#a87c50"/><path d="m75.19 84.21c-4.7643891-1.1765657-9.6017196-2.035125-14.48-2.57v-14.49c4.83.48 12.95-4.26 17.65-1.53 1.79 3.96 2.64 20.17-3.17 18.59z" fill="#efbf6a"/><path d="m6.65 84.21c4.7677529-1.1766261 9.6084134-2.0351835 14.49-2.57v-14.49c-4.83.48-13-4.26-17.65-1.53-1.79 3.96-2.63 20.17 3.16 18.59z" fill="#efbf6a"/><path d="m75.9 84.63c-.1331356.8216077-.6163945 1.5449513-1.324459 1.9824545-.7080645.4375033-1.5711858.5460695-2.365541.2975455-10.1767129-2.9036947-20.7071436-4.3811186-31.29-4.39-31.92-.67-36.42 15.1-35.86-10.76.9-9.79-.32-11.59 11.75-8 7.9261877 1.6845765 16.0067765 2.5358703 24.11 2.54 32.16.7 38.85-17.56 34.98 18.33z" fill="#f8dea5"/><path d="m75.9 84.63c-.2054563 1.2547545-1.2172209 2.2216424-2.48 2.37.24-5.4 3.84-25.69-6.8-20.34-9.2829385 2.376051-18.8278011 3.5754582-28.41 3.57 0 .33-17.79-.42-32.5-4.49-.31-7.06 8.72-1.93 15.29-1.2 6.578241 1.1457829 13.2427218 1.7245757 19.92 1.73 32.16.73 38.85-17.53 34.98 18.36z" fill="#f8dea5" opacity=".5"/><g fill="#fff"><path d="m68.94 5.88c-1.27-2.29-3.11-.71-4.87-.59-40.81 9.31-56.34-8.79-56.46 4.08 0 9.46 1.64 7.58 9.74 6.05 9.42-1.54 19.15-1.47 28.18-.95 19.09.35 27.07 8.72 23.41-8.59z" opacity=".5"/><path d="m68.94 71.38c-1.27-2.29-3.11-.71-4.87-.59-40.81 9.31-56.34-8.79-56.46 4.08 0 9.46 1.64 7.59 9.74 6.06 9.42-1.55 19.15-1.48 28.18-1 19.09.39 27.07 8.76 23.41-8.55z" opacity=".5"/></g></g></svg>