<svg height="168" viewBox="0 0 243 168" width="243" xmlns="http://www.w3.org/2000/svg"><g fill="none"><path d="m237.84 156.79c-3.18 14.12-197.92 13.66-206 .8-6.56-15.04 205.85-14.8 206-.8z" fill="#000" fill-opacity=".15"/><path d="m114.78 108.73-8.4 4.31 8.18 13.28 4.26-5.32z" fill="#f15a24"/><path d="m58.67642 49.699055h33.34v8.53h-33.34z" fill="#000" transform="matrix(.9475455 -.3196209 .3196209 .9475455 -13.295781 26.912948)"/><path d="m125.55 110.43c-34-.35-48.07-21.87-52.53-50.54l6.82-.22s12.35 40.33 48.08 35.94c.99 0-2.37 14.82-2.37 14.82z" fill="#000"/><path d="m63.9 50.71 9.96-2.99v-3.99l7.97-1.99 2 16.94-16.94 3.98z" fill="#ffaf78"/><path d="m75.2 47.8c1.18 2.65 2.75 9.19 2.18 13-1.02-2.67-2.59-9.28-2.18-13z" fill="#e2803d"/><path d="m199.25 146.27-9.57-5.33-4.37 7.83 4.35 2.43-1.94 3.48 4.74 3.78 2.81-3 9.39-.47-1.93-6.78z" fill="#ffaf78"/><path d="m199.24 150.06c1.51-.3-6 8.19-6.69 8.19-.39-.89 5.85-7.55 6.69-8.19z" fill="#e77736"/><path d="m206.76 27.63s5.24-23.87 28.99-27.63c.95 0 6.61 19 6.61 19s-24.67-1.63-35.6 8.63z" fill="#f7931e"/><path d="m205.57 28.66s10.61-4.56 27.69-2.66c1 0-1 8.54-1 8.54s-18.26-6.97-26.69-5.88z" fill="#f15a24"/><path d="m101.37 56.73c3.63 71.53 116.74 69.67 119.63.19-3.72-71.54-116.79-69.68-119.63-.19z" fill="#232323"/><path d="m150.23 67.72c29.07 0 53.32-18.36 58.73-42.8 26.14 31.79 6.83 72.61-30 82.67-43.34 11.9-85-21.66-76.41-61.12 10.85 12.88 28.16 21.22 47.68 21.25z" fill="#000"/><path d="m101.74 50.93c1.16339-9.0201382 4.789394-17.5453986 10.48-24.64 2 1.51 38 23.4 38 23.4l68.16-8.14c2.014217 5.9309903 2.84988 12.1984635 2.46 18.45-38.94 24.25-88.57 21.72-119.1-9.07z" fill="#f7931e"/><path d="m116.22 36.54c-14.06 17.58 13.75 35 28.1 23.53z" fill="#000"/><path d="m155.66 62.41c7.7 21.1 37.06 6.57 34.71-11.75z" fill="#000"/><path d="m208.68 40c4.72 2.57 2.75 1.89-3.05-.67-3-1.27-7.23-3-11.48-4.53l-5.49-1.9-6-1.87c-13.572578-3.9372135-27.517395-6.4540502-41.61-7.51l-5.86-.33c-3.66-.13-8.41-.23-12.57-.22-9.75.24-4.63-.61 2.1-.89 25.28-1.63 60.56 5.46 83.96 17.92z" fill="#515151"/><path d="m195.87 16.76c3.28.82 2 .84-2 .38l-3.44-.33-4.26-.33c-14.32-1.72-38.16 2.6-49 5.34 15.97-7.4 43.55-8.58 58.7-5.06z" fill="#515151"/><path d="m212.78 76.45c5.8-2.82 3.78-1.45-2.9 2.37-2.56 1.18-5.87 3-9.69 4.38-1.29.5-2.63 1-4 1.55-2.17.68-3.61 1.14-6.73 2.1-1.69.41-4.66 1.14-7.4 1.77l-5.23.9c-3.06.5-6.82.9-10.91 1.15l-5.57.22-5.58-.13c-3.664519-.1485979-7.319183-.4823572-10.95-1l-5.3-.76c-2.25-.46-4.31-.94-7.46-1.65l-6.81-2c-1.42-.49-2.78-1-4.09-1.52-3.364994-1.2814587-6.662592-2.7333364-9.88-4.35-2.86-1.82-3.8-3-.07-.92.81.44 1.77.77 2.76 1.2 2 .8 4.21 1.89 6.8 2.71 2 .73 5.21 1.87 8.35 2.66 5.705842 1.5914868 11.521764 2.7580135 17.4 3.49 14.48 1.82 32.16.3 44.56-3.26 3-.91 5.82-1.61 8.3-2.62s4.8-1.71 6.71-2.63 3.61-1.55 4.9-2.18 2.22-1.2 2.79-1.48z" fill="#515151"/><path d="m134.78 22.25c2 4.6 12.79 4.41 24.53 4.57 11.75-.12 22.5.1 24.550288-4.49.139712-18.54-50.860288-16.5-49.080288-.08z" fill="#3a393a"/><path d="m169.74 107.81c18.48 2.37 41.08 16.55 28.65 38.53l-4-1c-.7-28.07-28.52-19.65-39.85-14.94l-1 6c13.81 20 5 21.34-11 12 0 0-1 11-3 11s-5-14-5-14l7-2-26.9-10s-84.68 3-88.67 1 15.03-36.87 22.03-36.87-4 23.91-4 23.91l71.72 6 10.47-32.68z" fill="#000"/><path d="m117.46 120.01 37.1 10.4-1 6.97-37.86-9.96z" fill="#f7931e"/><path d="m101.52 123.74 14.18 3.68 2.99-6.98-16.7-5.87z" fill="#f7931e"/><path d="m119.67 120.48c.21-.41 34.19 16.11 33.78 16.93s-33.99-16.52-33.78-16.93z" fill="#c66300"/><path d="m59.92 62.66c-.59-.5-61.47 16.45-59.89 14l57.89-21z" fill="#a1a1a1"/><path d="m36.68 60.44c2.55-.48 4.68-2.92 4.4-5.28-3.63-8.29 3.45-21.19 11.29-9 1.34 2.9 0 8.6 5 9-.5505608.4882757-1.2642158.752328-2 .74-4.89.33-5-6.94-9-9.48-.19 0-.23 0-.51.24-.3264275.313178-.55854.7115801-.67 1.15.03 4.81.14 14.96-8.51 12.63z" fill="#a1a1a1"/><path d="m39.35 69.81c2.46-.85 5.51.22 6.44 2.41.93 9.15 13.68 16.54 14.27 2.23-.28-3.18-4.22-7.45-.06-10.31-.7342606-.1617392-1.5026695-.0288835-2.14.37-4.6 2.35-.81 8.37-3.12 12.68-.17.08-.2.11-.56 0-.4410563-.1047917-.847537-.3218111-1.18-.63-2.53-4.15-6.79-13.04-13.65-6.75z" fill="#a1a1a1"/><g fill="#f7931e"><path d="m82.49 65.93c.12.25.25.51.37.78-2.3590452 1.4867167-4.8825744 2.6947891-7.52 3.6-.09-.43-.18-.86-.26-1.27 2.04-.86 5.45-2.42 7.41-3.11z"/><path d="m79 72.14c2.62.63 5.45 1.21 7.61 1.65.23.4.47.8.72 1.21-3.9000374-.4113562-7.7512418-1.1983415-11.5-2.35-.11-.45-.21-.9-.31-1.34z"/><path d="m73.22 61.55c1.58.17 6.16 2.16 8.65 3 .19.43.4.87.61 1.33-3.1809807-.8150231-6.2578137-1.9927421-9.17-3.51-.03-.27-.06-.56-.09-.82z"/><path d="m197.68 142.62c1-.49 2.17-1 3.21-1.52-.2.67-.43 1.28-.65 1.83-1.844237.909824-3.796508 1.581862-5.81 2v-.62c1.049074-.626903 2.134301-1.191222 3.25-1.69z"/><path d="m201.8 135.17c-2.59.73-5.67 1.49-7.82 2 2.37.61 5.26 1.48 7.37 2.18-.09.39-.17.76-.27 1.11-2.537236-.555385-5.041197-1.253155-7.5-2.09-.18-.64-.4-1.3-.66-2 2.90157-1.017791 5.859903-1.865891 8.86-2.54.02.45.03.9.02 1.34z"/></g><path d="m56.929273 50.705603h3.99v16.94h-3.99z" fill="#4e524d" transform="matrix(.95324343 -.30220352 .30220352 .95324343 -15.127979 20.573971)"/></g></svg>