<svg height="67" viewBox="0 0 67 67" width="67" xmlns="http://www.w3.org/2000/svg"><g fill="none"><path d="m43.13 29.62c2-3.7 9.25-15.43 23.77-20.26 0 0-33.07-15.13-37.28 14.41-3.7-2-15.43-9.25-20.26-23.77 0 0-15.13 33.06 14.41 37.27-1.99 3.73-9.25 15.44-23.77 20.27 0 0 33.06 15.13 37.27-14.41 3.71 2 15.44 9.25 20.27 23.77 0 0 15.13-33.07-14.41-37.28z" fill="#32313f"/><path d="m37.89 35.43c-2.67 5.62-11.21 2-8.88-4 2.67-5.59 11.2-1.93 8.88 4z" fill="#68677c"/><g fill="#fff"><path d="m52.65 32.67c-2.0341637-1.1292843-4.2197343-1.9610808-6.49-2.47l-3.92 16.1c1.9402251 1.4213257 3.7658371 2.9928232 5.46 4.7z" opacity=".5"/><path d="m57.88 37.28c-.8868339-1.1997653-1.9331407-2.2729867-3.11-3.19l-4.49 19.79c.974196 1.1648551 1.8822889 2.3834356 2.72 3.65z" opacity=".5"/><path d="m51 19.2-18.33-4.95c-1.1292734 2.03063-1.9610962 4.2129019-2.47 6.48l16.1 3.92c1.4216465-1.93685 2.9931401-3.7591139 4.7-5.45z" opacity=".5"/><path d="m34.09 12.12 19.79 4.5c1.1676711-.9675195 2.3860648-1.8721351 3.65-2.71l-20.25-4.91c-1.2009181.88933287-2.2742445 1.9391066-3.19 3.12z" opacity=".5"/><path d="m14.25 34.22c2.0280502 1.1370791 4.2109901 1.9725253 6.48 2.48l3.92-16.1c-1.9375882-1.4280341-3.7598725-3.0062326-5.45-4.72z" opacity=".5"/><path d="m9 29.62c.88048624 1.1989505 1.9238676 2.2692579 3.1 3.18l4.52-19.8c-.9675266-1.1711354-1.8721354-2.392858-2.71-3.66z" opacity=".5"/><path d="m15.88 47.7 18.34 4.95c1.1370772-2.031594 1.9724955-4.2178296 2.48-6.49l-16.1-3.92c-1.4277133 1.9409632-3.0059157 3.7665956-4.72 5.46z" opacity=".5"/><path d="m32.8 54.77-19.8-4.49c-1.1618502.9735975-2.3770686 1.8816728-3.64 2.72l20.26 4.9c1.2002232-.89058 2.270512-1.9440404 3.18-3.13z" opacity=".5"/></g><path d="m57.54 66.9c3.39-15-20.19-28.69-20.19-28.69.1156256 1.6392286.0888587 3.2853972-.08 4.92 3.73 1.98 15.44 9.25 20.27 23.77z" fill="#68677c"/><path d="m9.36 0c-3.36 15 20.18 28.69 20.18 28.69-.1101631-1.639372-.0834037-3.2850762.08-4.92-3.7-1.99-15.43-9.25-20.26-23.77z" fill="#68677c"/><path d="m0 57.54c15 3.39 28.69-20.19 28.69-20.19-1.6392218.1158774-3.2854122.0891101-4.92-.08-1.99 3.73-9.25 15.44-23.77 20.27z" fill="#68677c"/><path d="m66.9 9.36c-15.01-3.36-28.69 20.18-28.69 20.18 1.6393791-.1098848 3.2850601-.0831258 4.92.08 1.98-3.7 9.25-15.43 23.77-20.26z" fill="#68677c"/></g></svg>