<svg height="207" viewBox="0 0 246 207" width="246" xmlns="http://www.w3.org/2000/svg"><g fill="none"><path d="m1.07 60.93 74.41 77.96 5.71-5.55-81.19-85.83z" fill="#777"/><path d="m67.57 130.61 12.75 1.8.87.93-5.71 5.55z" fill="#4e524d"/><path d="m100.078889 134.47441h7.97v55.15h-7.97z" fill="#4e524d" transform="matrix(.71739715 -.69666443 .69666443 .71739715 -83.485309 118.293236)"/><path d="m97.598209 131.891046h7.97v55.15h-7.97z" fill="#000" transform="matrix(.71739715 -.69666443 .69666443 .71739715 -82.386618 115.834969)"/><path d="m147.89 157.9 3.94 9.07 15.62-9.82-6.16-4.43z" fill="#f15a24"/><path d="m157.63 114.14 41.06 8.12 36.64-31.65s-11.33-8.61-10.7-11.56 21.07 10.81 21.07 10.81l-47.24 51.74c-12.75 22.42-10.91 34.33 13.17 41.71 11.9 24.42 10.34 33.69-7.56 6.49-25.73 3.72-28-13-29.28-29l-59.52-30.6z" fill="#000"/><path d="m198.69 122.26 36.64-31.65c-23.17-19.52-4-11 9.58-1.28l-45.41 40.76-34.11-14.42z" fill="#3a393a"/><path d="m80.8500052 35s.0899948-25.7-23.3500052-35c-1-.21-11.14 17.94-11.14 17.94s25.64 4 34.4900052 17.06z" fill="#f7931e"/><path d="m76.49 34.68c-5.78-4.2-8-6.93-27.75-9.07-1-.22-1 9-1 9s20.41-2.98 28.75.07z" fill="#f15a24"/><path d="m53.37 64.4c-12.44 74.11 103.86 97.89 122.53 27.27 12.44-74.11-103.9-97.88-122.53-27.27z" fill="#232323"/><path d="m97.83 96.24c33.47 7.45 66-10.37 73.14-39.87 17.94 35.19-5.56 70.54-41.21 76.76-45.51 8-85.85-30.16-76.15-69.68 8.22 15.76 24.13 28.32 44.22 32.79z" fill="#000"/><path d="m102.5 156s12.51-23.1 21.39-27.07c.6-.38-18-6.91-18-6.91s-10.69 21.5-10.48 29.71c-.22.97 7.09 4.27 7.09 4.27z" fill="#000"/><path d="m165.08 131.11c.77.63-11.36 37.27-48 32.18l.11-5.08s24.86-1.61 32.21-25.49c1.2-.72 7.04-8.64 15.68-1.61z" fill="#232323"/><path d="m191.68 120.87c0 .85-12.45 24.61-24.23 36.28-2.92-.65-7.08-4.13-7.08-4.13s12-16.54 14-35.33c-1.16-.93 17.31 3.18 17.31 3.18z" fill="#f7931e"/><path d="m160.09 152.55c8.23-6.24 25.55-21.54 31.95-30.24-5.98 11-21.86 24.69-31.95 30.24z" fill="#c66300"/><path d="m102.4 152.39c2.7 1.63 7 4.09 7 4.09l7.78 1.73-.54 16.21-16.43.43-9.5-12.32 11-3.67z" fill="#ffaf78"/><path d="m90.3 136.92c.76 1.19 6.32 6 6.32 6l-2 2.1 6.7 6.6-9 8.21-8.54-2.92-6.69-6.6z" fill="#ffaf78"/><path d="m96.62 142.92c-1.49 2.4-5.89 7.44-9.19 9.18 1.49-2.4 5.89-7.44 9.19-9.18z" fill="#e2803d"/><path d="m86.33 129.1-.33 8.9-5.78 5.34c-7.92-1-13.49 1.13-4.44-6.51 5.49-4.49 9.4-10.67 10.55-7.73z" fill="#262525"/><path d="m165.61 170.01 1.84-12.86-6.75-4.05-4.28 16.9z" fill="#f7931e"/><path d="m156.78 89c2.59-3.69 1.93-2.12-.72 2.57-.74 1.12-1.6 2.44-2.57 3.9s-2.24 3-3.53 4.61l-3.27 3.7c-.93.94-2.12 2.12-3.77 3.75l-2.79 2.47c-1.55 1.36-3.52 2.88-6.07 4.71l-3.23 2.2-3.35 2c-4.33931 2.507681-8.90226 4.606704-13.63 6.27l-1.64.59-4.77 1.4c-2.06.47-4 .91-5.72 1.23s-3.34.49-4.7.65c-5.25.32-7.42.24 1.61-1.17 18.126207-3.375367 34.754038-12.304352 47.58-25.55 1.45-1.61 2.9-3 4-4.52s2.28-2.73 3.12-4 1.63-2.2 2.2-3 .99-1.48 1.25-1.81z" fill="#515151"/><path d="m155.14 43.49c6.34 1.1 3.84 1-3.68.28-2.78-.08-6.47-.39-10.47-.25-1.36 0-2.78 0-4.25.07l-6.91.52-7.41 1-5.12 1c-3 .59-6.59 1.5-10.45 2.64l-5.23 1.65-5.13 1.95c-2.85 1.1-6.29 2.64-9.87 4.41l-4.62 2.4c-2 1.13-3.74 2.21-6.49 3.84l-5.8 3.92c-1.21.88-2.33 1.78-3.44 2.61-2.27 1.64-5.71 4.61-8.27 6.82-1.6819221 1.68226-3.4545679 3.2712984-5.31 4.76 2.12-3.07 7.62-8.28 12.15-12 6.9239706-5.658045 14.4651498-10.5155305 22.48-14.48 13.19-6.58 30.48-11.09 43.42-11.93 3.12-.15 6-.44 8.73-.34s5.12 0 7.23.21 3.92.26 5.35.44 2.47.37 3.09.48z" fill="#515151"/><path d="m110.57 24.47c1.26-.75 1.85-.87.3.57-10.47 8.26-22.24 24.06-28.26 33.32 3.87-11.71 18.44-27.66 27.96-33.89z" fill="#515151"/><path d="m50 112.19c0-2.71.18-8.31.23-11.58l1.43 1.51c.0986268 3.835942-.0015074 7.674418-.3 11.5z" fill="#a1a1a1"/><path d="m15.46 63.86 1.63 1.72c.58 4.39 1.15 9.31 1.59 13.8l-1.75-1.84c-.54-4.62-1.06-9.54-1.47-13.68z" fill="#a1a1a1"/><path d="m46.24 96.39 1.27 1.34c.11 3.51.11 8 0 11.82l-1.51-1.55c0-4 .1-8.5.24-11.61z" fill="#a1a1a1"/><path d="m96.62 170.52c-.06-.52 10.7-2.45 10.83-1.41s-10.77 1.89-10.83 1.41z" fill="#e77736"/><path d="m126.3 89.82 35.05-46.89c6.337491 6.633311 11.014986 14.6724341 13.65 23.46-21.37 48-75.61 51.25-112.26 40.51-5.7830663-7.8836698-9.3498934-17.1719223-10.33-26.9z" fill="#f7931e"/><path d="m152.68 59.57c20.5 11.62.36 39.51-18.22 33.88z" fill="#000"/><path d="m84 89.55c-4.81 23 29.36 26.44 37.47 8.7z" fill="#000"/><path d="m91.43 38.39c1.2 6 13.3 8.72 26.34 11.79 13.12 2.75 25.23 5.41 28.87.49 5.47-21.31-53.28-32.13-55.21-12.28z" fill="#3a393a"/><g fill="#f7931e"><path d="m122.3 159.59c-.507079 1.403911-1.132667 2.762142-1.87 4.06-.45 0-.91-.08-1.37-.13.71-1.5 1.82-3.89 2.75-6.07.4-.09.82-.19 1.26-.31-.210937.830342-.468002 1.648277-.77 2.45z"/><path d="m130.81 163.23-1.39.2c.287864-3.06628.74523-6.114275 1.37-9.13l.56-.27c.25 1.18-.03 5.47-.54 9.2z"/><path d="m123.93 156.9 1.2-.36c1.23 2.11 2.69 4.84 3.75 7-.43 0-.87.1-1.31.13-1.332452-2.190565-2.5475-4.450421-3.64-6.77z"/></g></g></svg>