<svg height="158" viewBox="0 0 142 158" width="142" xmlns="http://www.w3.org/2000/svg"><g fill="none" fill-rule="evenodd"><g fill="#1d1819"><path d="m56.0830392 153.176476c17.7917647 0 32.2214706 1.064934 32.2214706 2.387401s-14.4297059 2.394361-32.2214706 2.394361-32.2214706-1.071894-32.2214706-2.394361 14.4227451-2.387401 32.2214706-2.387401z"/><path d="m29.2352941 91.5773568c4.6732976-1.037306 9.4099627-1.7650842 14.1791177-2.1785903 8.7984313-.8561233 12.6407843 0 12.6407843 0s3.8423529-.8561233 12.6407843 0c4.7691549.4135061 9.5058201 1.1412843 14.1791176 2.1785903l-7.2322549 19.7882822-2.902647 9.862819-3.2437255.758679c-3.2506863.751718-13.4134314.946607-13.4134314.946607s-10.1627451-.194889-13.4134314-.946607l-3.2437254-.758679-2.9026471-9.862819z"/><path d="m39.7460784 121.242379-8.1580392 28.808899s-3.4386274 2.38044-3.7449019 3.36185c-.3062746.981409-.8840197 2.227313 0 2.610132.8840196.382819 2.2970588.897885 6.8285294.696035 2.6675617-.090401 5.2529069-.945687 7.4480392-2.463965l2.7843137-.522026v-3.389692s4.6080392-12.946255 7.3018628-14.554097c1.2005855-.701142 2.5116548-1.193057 3.8771568-1.454713 1.3571004.260738 2.6606977.747792 3.8562745 1.440793 2.7077451 1.621762 7.294902 14.568017 7.294902 14.568017v3.410573l2.7843137.522026c2.1986899 1.516363 4.785673 2.371391 7.455 2.463965 4.5314706.18793 5.937549-.334097 6.8215686-.696035s.3132353-1.614802 0-2.610132c-.3132353-.995331-3.7518627-3.36185-3.7518627-3.36185l-8.1510784-28.82978c.1113725-.361938-11.5757844-.146168-16.3369608-.048723-4.7611765-.097445-16.4483334-.313215-16.3369608.048723z"/><path d="m40.7066667 119.49533c3.1880392.626432 6.5152941 1.127577 9.745098 1.461674 1.8484852.211209 3.7081866.308837 5.5686275.292335h.0835294c1.8604408.016502 3.7201422-.081126 5.5686274-.292335 3.2298039-.334097 6.5570588-.835242 9.7450981-1.461674l1.3921568-.271453 1.7958824 4.391982-1.4826471.696035c-1.517472.673395-3.0695856 1.265856-4.6498039 1.77489-3.3265301 1.144474-6.7740481 1.9012-10.2741177 2.255154-.6473529.055683-1.2877451.097445-1.935098.111366h-.4037255c-.6473529 0-1.2947059-.055683-1.935098-.111366-3.5001874-.353217-6.9477895-1.109961-10.2741177-2.255154-1.5806311-.507859-3.1328068-1.100345-4.6498039-1.77489l-1.482647-.696035 1.7958823-4.391982z"/></g><path d="m40.372549 121.158855s9.8077451 1.934978 15.7035294 1.78881c5.8957843.146168 15.7035294-1.78881 15.7035294-1.78881l.647353 1.58696s-8.3529412 3.800352-16.1907843 3.988282h-.3271569c-7.8656863-.18793-16.1838235-3.988282-16.1838235-3.988282z" fill="#fff000"/><path d="m34.0521569 94.1526872s-6.1046079 4.0787665-10.0652942 14.5540968c-3.9606862 10.475331-2.2622549 18.911278-2.2622549 18.911278s.8770589 6.208634 2.164804 6.577533c1.2877451.368898 4.5941176-.939648 4.5941176-.939648s1.4478431 1.392071 2.1508824 1.301586c.7030392-.090485 1.8863725-.821322 1.6497058-1.97674-.1328741-.993472.1434721-1.998305.7656863-2.784141.4733334-.772599 1.2529412-.737797 1.259902-1.392071.0069608-.654273-1.1206863-3.591541-1.4408824-3.528898-.320196.062643-2.2413725-.98141-2.2413725-.98141s.2923529-10.363965 10.5873529-17.526167c2.7147059-1.886256.1392157-8.2201765-1.5940196-10.0437888-1.4293565-1.5298726-3.4826964-2.3177929-5.5686274-2.1368282z" fill="#1d1819"/><path d="m66.8861765 88.0693392-13.1767647 24.0688988 2.3736274-7.677269-9.390098-16.3916298z" fill="#fff000"/><path d="m16.2603922 78.2482819s-10.36460789 9.1946256-13.74754906 20.3868723c-3.38294118 11.1922468-.81441177 17.1224668-.81441177 17.1224668 4.34973843-5.297149 8.20802362-10.97938 11.52705883-16.9762994 5.1718627-9.4869604 6.0558823-15.4867842 6.0558823-15.4867842l-3.0140196-5.0462555z" fill="#1d1819"/><path d="m22.7617647 86.1134802s.6960784 10.9764757-2.7843137 18.7303088c-3.4803922 7.753832-6.9120588 11.06696-6.9120588 11.06696s-3.41774514-11.832599-.1809804-23.9784142c3.2367647-12.145815 6.8424509-13.1689868 6.8424509-13.1689868l3.0279412 7.3501322z" fill="#1d1819"/><path d="m.69607843 41.0660793c-2.2622549 13.7814978 1.12068628 32.0176211 8.20676471 40.7459031 11.52705886 14.1643172 34.45588236 17.7001762 41.40274506 18.6050216 2.3272067.101785 4.6587781-.026443 6.9607843-.382819 2.3190197-.2362496 4.6087883-.7025686 6.8354902-1.3920705 6.4944118-2.6310132 27.7804902-11.8325991 35.3538236-28.460881 4.6567647-10.2177974 3.3133337-28.7392952-2.3666667-41.5115419-6.3551961-14.2896035-12.6686274-24.25682816-30.2654902-27.13841407-8.3529412-1.36422907-16.7894118-1.93497797-22.365-1.21806167s-13.6292157 3.41057269-21.3487255 6.84202643c-16.28127449 7.23180621-19.87303919 18.46581501-22.41372547 33.91083701z" fill="#1d1819"/><path d="m5.08833333 41.7621145c-1.76803921 10.7885463.24362745 28.6070485 7.26705887 37.2309251 1.6614839 2.0139719 3.561815 3.8183563 5.6591176 5.3733921-1.3507643-1.1291247-2.5992651-2.375219-3.7309804-3.7237885-7.20441175-8.5890749-9.20911764-26.4075771-7.32274509-37.2100441 2.52676471-14.6167401 5.69392159-24.194185 20.54823529-30.6255506 6.0489216-2.6240529 14.1860784-5.73533044 20.7570588-6.57753308s15.2232353.10440528 21.7385294 1.12061674c1.5499926.23339985 3.0859979.55173521 4.6010785.95356828-2.7208953-1.12911382-5.5672461-1.92828589-8.4782353-2.38044053-6.3343137-1.05101321-14.7359804-2.0185022-21.1050981-1.19718061-6.3691176.82132158-14.2487254 3.890837-20.1097058 6.4940088-14.3879412 6.3896035-17.40196083 16.0088106-19.82431377 30.5559471z" fill="#fefefe"/><path d="m14.0816667 68.2601762s-4.37833337-13.0993832 5.1718627-16.3985903c9.5501961-3.299207 21.6689216 4.2249339 28.0101961 5.3037885 2.032549.3410573 3.4803921.5637886 4.5871569.6960353 1.0023529-.4106608 2.3805882-.9953304 4.26-1.8444934 5.840098-2.6310132 15.682647-12.9740969 25.7549019-12.166696 10.0722549.8074008 9.1534314 14.5610572 9.1534314 14.5610572s-1.2877451 8.1644934-11.7080392 13.0993833c-7.9144118 3.7446696-20.0122549 3.0555947-25.3929412 2.5057269-5.0604902 1.8514537-16.5945098 5.5822026-25.1910784 3.9395594-11.3321569-2.1368282-14.6176471-9.7444934-14.6176471-9.7444934z" fill="#fbd7a3"/><path d="m34.4071569 61.8288106c2.8887255-.3688987 5.5686274 2.2342731 6.0558823 5.8188546s-1.5035294 6.7863436-4.3852941 7.1552423-5.5686275-2.2342731-6.0558824-5.8118943c-.4872549-3.5776211 1.5035295-6.7863436 4.3852942-7.1622026z" fill="#1d1819"/><path d="m71.904902 57.0122467c2.8887255-.3688987 5.5686274 2.2342731 6.0558823 5.8188546s-1.5035294 6.7863436-4.3852941 7.1552423-5.5686275-2.2342731-6.0558824-5.8188546 1.5035295-6.7863436 4.3852942-7.1552423z" fill="#1d1819"/><path d="m37.9571569 59.1629956c-1.5847047-.5183153-3.2400719-.788323-4.907353-.8004405-2.9165686-.0556829-5.5686274 2.8676652-5.5268627 2.1437885.0417647-.7238766 1.837647-3.8699559 4.6985294-4.6912775 2.8608823-.8213216 6.3830392.9466079 6.3830392.9466079z" fill="#1d1819"/><path d="m65.932549 55.5853744c1.4018587-.903394 2.9351531-1.5842942 4.5453922-2.0185022 2.7843137-.7934801 6.1463725 1.3920705 5.8888235.6960353-.257549-.6960353-2.7843137-3.278326-5.7287255-3.3479295-2.9444117-.0696036-5.9027451 2.5057268-5.9027451 2.5057268l1.2320588 2.1646696z" fill="#1d1819"/><path d="m69.3502941 58.2790308c1.7958824-.2296916 3.3829412.6960353 3.5569608 2.0045815.1740196 1.3085463-1.1415686 2.6031718-2.9304902 2.8328635-1.7889216.2296916-3.3829412-.6960353-3.5569608-2.0045815-.1740196-1.3085463 1.1415686-2.6031718 2.9304902-2.8328635z" fill="#fbd7a3"/><path d="m32.5486275 63.0051101c1.7889215-.2296916 3.3829411.6960353 3.5569607 2.0045815.1740196 1.3085463-1.1415686 2.6101322-2.9374509 2.8398238-1.7958824.2296916-3.3759804-.6960352-3.55-2.0045815-.1740197-1.3085462 1.1415686-2.6101321 2.9304902-2.8398238z" fill="#fbd7a3"/><path d="m72.6566667 94.3754185s8.5965686.2714537 15.6896078-3.3618502c7.0930392-3.633304 7.9840196-6.417445 7.9840196-6.417445-.0597486-1.8116441-.231778-3.6178408-.515098-5.4081938-.3967647-1.9767401.7935294-2.665815 1.8585294-1.6148017 1.065 1.0510132.9466667 2.2203524 1.3155882 2.2899559.3689216.0696035 3.1741173-4.2806167 4.6637253-3.7794714 1.489608.5011454.612549 2.5057269.612549 2.5057269.709901-.3046466 1.533952.0016729 1.872451.6960352.647353 1.2111014.048726 1.5939208.563824 2.2133921.612147.6004522.874739 1.4722043.696078 2.310837-.299314.828282-6.800686 16.2663435-19.8521567 20.7627315-13.0514706 4.496387-16.3578431 2.96511-16.3578431 2.96511l1.482647-13.1411454z" fill="#1d1819"/><path d="m110.342353 72.1092511-9.431863.375859 4.26-4.8722467c-1.365963-1.830869-2.112142-4.049761-2.13-6.3339207-.00273-.7446343.079001-1.4871763.243628-2.213392.814411-3.6750661 3.536078-6.5218503 6.696274-8.3524229 7.660653-4.1856226 16.924838-4.1856226 24.58549 0 3.160196 1.8584141 5.874902 4.7051982 6.696275 8.3524229.324866 1.4577163.324866 2.9690677 0 4.4267841-.821373 3.6750661-3.536079 6.5218502-6.696275 8.3524229-7.532918 4.1104706-16.620861 4.1888101-24.223529.2088106z" fill="#1d1819"/><path d="m108.295882 69.2346256 2.700785-.3758591.327157.2018502c6.719892 3.7427297 14.88519 3.797844 21.655.1461674 2.387549-1.3920704 4.601078-3.5706608 5.227549-6.3687224.232147-1.0076554.232147-2.0548997 0-3.0625551-.626471-2.784141-2.84-4.9627313-5.227549-6.3687225-6.682816-3.601141-14.728557-3.601141-21.411373 0-2.387549 1.3920705-4.608039 3.5706608-5.23451 6.3687225-.11128.5028207-.167059 1.0162918-.167059 1.5312775.079317 2.2680141 1.085804 4.4041489 2.784314 5.9093392l.911863.8839648-1.545294 1.1345375z" fill="#fff"/><path d="m124.124706 66.95163h-2.025588v-4.4059031h-4.642843v4.4059031h-2.025589v-10.4405287h2.025589v4.2945375h4.642843v-4.3084582h2.025588v10.4405287zm5.436372-8.846608h-.925784v7.2457269h.925784v1.6008811h-3.856274v-1.6008811h.904902v-7.2457269h-.904902v-1.6078414h3.856274z" fill="#1d1819" fill-rule="nonzero"/></g></svg>