<svg height="76" viewBox="0 0 69 76" width="69" xmlns="http://www.w3.org/2000/svg"><g fill="none"><g fill="#fff"><path d="m21.21 23.38c.52-.51 1.06-1 1.6-1.49-2.39-.82-4.69-1.84-7.09-2.64 1.2528602 2.0774697 2.294716 4.2750818 3.11 6.56.77-.81 1.56-1.65 2.38-2.43z"/><path d="m29 16.84c1-.74 2.77-2 4.65-3.33-2.3517576-.9867527-4.6107246-2.1814952-6.75-3.57.8368667 2.2560998 1.5381175 4.5602094 2.1 6.9z"/><path d="m55.49 4.93c-.49.62-1.39 1.73-2.49 3.25.8506836.21728892 1.685881.49123367 2.5.82-.01-1.34-.01-2.71-.01-4.07z"/><path d="m41.34 2.83c-.27 1.78-.34 3.88-.69 6.55 1.1347238-.50977638 2.3084821-.92778148 3.51-1.25-1.1383968-1.65373587-2.0845081-3.43188832-2.82-5.3z"/><path d="m12.83 33.67c-1.9118972-.5825201-3.78554464-1.2838854-5.61-2.1 1.2660747 2.0539533 2.36944414 4.2038519 3.3 6.43.6854115-1.4868926 1.4567136-2.9326666 2.31-4.33z"/><path d="m61.63 23.09c.07-.32 1.14-1.8-1.18-1.94-.55.43-1.05 2.77 1.18 1.94z"/><path d="m9.19 62.51c-.4046543-1.2366573-.73852855-2.4953632-1-3.77-1.7672886.9120392-3.59099705 1.7103291-5.46 2.39 1.72.43 3.83.81 6.46 1.38z"/><path d="m3.57 44.7c1.6213205 1.468403 2.9748319 3.2076652 4 5.14.08344766-1.5330743.28403268-3.0575204.6-4.56-1.54683184-.0646306-3.08553821-.2586414-4.6-.58z"/></g><path d="m55.36 26.19c-.78.85-1.58 1.69-2.39 2.51.451525.8674044.7428574 1.8091536.86 2.78 1.1034485-1.1972573 2.2789689-2.326024 3.52-3.38-.7081749-.5882369-1.3732168-1.2265434-1.99-1.91z" fill="#2c415b"/><path d="m15.63 64.51c-.92.57.57 2.73 1 .81-.13-.21-.25-.41-1-.81z" fill="#fff"/><path d="m20 65.26c-1.49-2.91-3.24-5.67-4.22-9.74-.45-.18-.34-.67-.41-1.93-.14-1.8-1-5.45-.23-8 .78.83.09 2.3.69 4.45 5.45-14.4 21.93-29 33.84-32.27-.15.93-.9.75-2.57 2.05 6.33-1.33 18.68 17.84 19.1 2.94-13.64-28.4-40.6-3.79-51.63 11.7-8.2 12.09-5.93 27 2.24 38.39 5.94 2.25 4.52-4.85 3.19-7.59zm39.42-44.59c1.7-2 5.19 1.07 2.82 3.43-1.51 1.12-4.81-.62-2.83-3.13-.031934-.0980808-.0283946-.2042635.01-.3zm-45.19 45.54c-.25-.39 0-2.21 1.27-2.13l.05-.06c3.62-1.26 1.88 6.04-1.32 2.19z" fill="#c4c5c6"/><path d="m66.18 22.73c-2.49-4.53-5.27-9.2-10.6-11.63-.83 6.84-17.13 8.17-21.41 12.12-30.42 17.87-14.32 35.19-22.52 40.05 1.3945242 3.3448968 3.1162258 6.5437781 5.14 9.55 10.4 1.94-.45-12.56-1-17.3-.45-.18-.34-.67-.41-1.93-.14-1.8-1-5.45-.23-8 .78.83.09 2.3.69 4.45 5.45-14.4 21.93-29 33.84-32.27-.15.93-.9.75-2.57 2.05 6.3-1.36 18.65 17.81 19.07 2.91zm-51.03 41.27c.1184006-.0498261.2549553-.0264168.35.06l.05-.06c2.7-1.3 3 4.84-.81 2.92-.93-.87-.92-1.83.41-2.92zm47.09-39.9c-1.51 1.12-4.81-.62-2.83-3.13 1.13-2.63 5.42.72 2.83 3.13z" fill="#939ba3"/><path d="m22.85 59.18c-.1-.47-.19-1-.25-1.44-1.06.92-2.14 1.81-3.24 2.66.54 1.15 1.13 2.18 2.19 4.1.75-.94 1.57-1.83 2.42-2.71-.63-.35-.79-1.25-1.12-2.61z" fill="#2c415b"/><path d="m23.28 57.15c.19 1.13.43 1.83 1 4.32.62-.63 1.27-1.24 1.92-1.85-.6723541-1.34596-.9628815-2.8504772-.84-4.35-.68.64-1.36 1.27-2.08 1.88z" fill="#3c5777"/><path d="m33.85 47-3.3 3.27c.0475442 1.5707648.2383354 3.1339137.57 4.67l3.21-3.17c-.43-.94-.33-2.21-.48-4.77z" fill="#3c5777"/><path d="m47.4 35.56c-.06-.41-.13-.81-.18-1.22-1.59 1.5-3.18 3-4.78 4.46.27.73.48 2 1.13 3.63 1.52-1.57 3.06-3.13 4.57-4.71-.43-.33-.65-1-.74-2.16z" fill="#2c415b"/><path d="m29.74 51.07c-1.23 1.2-2.45 2.4-3.7 3.57.1238797 1.4824539.4191838 2.9455516.88 4.36.67-.64 2.08-1.93 3.43-3.26-.64-1.21-.72-2.5-.61-4.67z" fill="#2c415b"/><path d="m41.76 39.44c-1 .89-1.94 1.79-2.9 2.7.2531736 1.3521027.5871049 2.6878277 1 4 1-1 1.91-2 2.86-2.94-.6566617-1.1424325-.9886198-2.442602-.96-3.76z" fill="#3c5777"/><path d="m52.25 29.44c-1.37 1.39-2.76 2.75-4.18 4.1.3508017 1.1309687.6116147 2.2879085.78 3.46 1.33-1.43 2.64-2.94 4-4.41-.4043477-1.000578-.6082071-2.0708401-.6-3.15z" fill="#3c5777"/><path d="m38 42.93c-.83.78-2 1.87-3.4 3.29.2887494 1.5433259.4824473 3.102928.58 4.67 1.3-1.28 2.6-2.58 3.89-3.88-.75-1.63-.69-1.01-1.07-4.08z" fill="#2c415b"/><path d="m67.63 21.71c-1.9542261-5.235018-5.8058672-9.543573-10.79-12.07.53-8.49-1-8.68-5.1-1.74-2.0495711-.39040253-4.1521495-.41410309-6.21-.07-5.65-12.07-5.53-9.23-5.83 2-1.7319033.8870184-3.4023234 1.8892705-5 3-10.49-7.13-12-7.24-6.67 4.77-1.3533333 1.02-2.6966667 2.0966667-4.03 3.23-12.42-5.39-11.71-3.83-5.72 5.58-1.7319465 1.9186673-3.3133043 3.9680804-4.73 6.13-12.3-5.61-6.66.46-3.55 6.69-.63181551 1.5512299-1.15311634 3.1452075-1.56 4.77-14.07-3.51-5.26 2-1 7.07-.01118673 2.132788.17628954 4.2619828.56 6.36-12.43 4.18-9.1 5 1.73 6.49 1.2581167 3.4607068 3.2582224 6.6042176 5.86 9.21 4 6 10.07-2.47 6.47-7.68 12.63-11 24.8-23.61 36.37-36.56 4.91 4.17 12.57-1.44 9.2-7.18zm-13.63-14.83c.5-.66666667 1.01-1.31666667 1.53-1.95v4.09c-.8233888-.33683291-1.6686589-.61747593-2.53-.84.34-.42.64-.87 1-1.3zm-13-.88c.09-1.07.22-2.13.35-3.19.7354919 1.86811168 1.6816032 3.64626413 2.82 5.3-1.2015179.32221852-2.3752762.74022362-3.51 1.25.1840166-1.11171729.2975764-2.23395485.34-3.36zm-14.13 3.94c2.1392754 1.3885048 4.3982424 2.5832473 6.75 3.57-1.12.77-2.72 1.9-4.65 3.33-.21-1.94-1.24-4.07-2.1-6.9zm-11.15 9.31c2.4.8 4.7 1.82 7.09 2.64-.94.85-2.41 2.23-4 3.92-.808899-2.2841421-1.8440425-4.4817284-3.09-6.56zm-8.5 12.32c1.82445536.8161146 3.6981028 1.5174799 5.61 2.1-.8532864 1.3973334-1.6245885 2.8431074-2.31 4.33-.93055586-2.2261481-2.0339253-4.3760467-3.3-6.43zm.32 18.27c-1.0251681-1.9323348-2.3786795-3.671597-4-5.14 1.50461784.3197043 3.03322062.5137064 4.57.58-.29154739 1.5055768-.48197318 3.0289831-.57 4.56zm-1.54 12.01c-1.08-.23-2.15-.47-3.22-.72 1.86900295-.6796709 3.6927114-1.4779608 5.46-2.39.26147145 1.2746368.5953457 2.5333427 1 3.77-1.1-.31-2.24-.44-3.24-.66zm15.6 2.65c-.54-1.07-1.25-2.13-2.19-4.1 1.1-.85 2.18-1.74 3.24-2.66.2.62.2 3 1.37 4-.9.93-1.72 1.82-2.47 2.76zm-2.68-5.11c-.9726052-2.0944181-1.7719467-4.265015-2.39-6.49 3.59-14.41 16.63-23.72 28.61-31.77 3 .15 6.61.76 9.22 3.93-11.72 10.94-24.24 22.42-35.49 34.33zm5.42 2.08c0-.9-.69-2.27-1-4.32.7-.61 1.4-1.24 2.09-1.88-.1228815 1.4995228.1676459 3.00404.84 4.35-.71.61-1.36 1.22-1.98 1.85zm5.59-5.32c-1 .94-2 1.86-3 2.8-.4805231-1.3945071-.7927352-2.8414255-.93-4.31 1.25-1.17 2.47-2.37 3.7-3.57-.1868084 1.5667838.0229431 3.1553932.61 4.62zm1.24-1.22c-.3186952-1.5382454-.5093478-3.100259-.57-4.67l3.25-3.26c-.0469995 1.6040689.1143476 3.2074558.48 4.77zm4.09-4c-.0864131-1.5680895-.2802005-3.1284125-.58-4.67 1.24-1.26 1.13-1.26 3.32-3.33.0695636 1.4200088.4447718 2.8082789 1.1 4.07-1.29 1.31-2.59 2.61-3.89 3.89zm4.69-4.7c-.4126195-1.3122501-.7465466-2.6479584-1-4 1-.91 1.93-1.81 2.9-2.7.0105746 1.3334963.3543278 2.643196 1 3.81-1.04.89-1.99 1.88-2.95 2.85zm3.67-3.76c-.32-1-.62-1.66-1.13-3.63 1.6-1.48 3.19-3 4.78-4.46.15.43.06 2.39.92 3.38-1.56 1.54-3.1 3.1-4.62 4.67zm5.23-5.47c-.1483333-1.1658908-.4095598-2.3146175-.78-3.43 1.42-1.35 2.81-2.71 4.18-4.1.0514781 1.0614286.2465874 2.1109823.58 3.12-1.34 1.41-2.65 2.95-3.98 4.41zm5-5.49c-.1104694-.9804859-.3984977-1.9326735-.85-2.81.81-.82 1.61-1.66 2.39-2.51.6231945.6806847 1.2913621 1.3187847 2 1.91-1.2547474 1.052719-2.4436524 2.1815108-3.56 3.38zm5.72-4c-3.59-2.72-6.66-7.83-12.47-7.65-.08-.3 3.19-1.28 2.21-2.22-14.24 5.59-27.74 18.07-33.5 32.36-.92-8.86-1.32-.42-.46 3.58.19.28-.36 1.29.41 1.93.14 3.54 11.53 19.76 1 17.3-15.08-21.33-5.1-40.53 12-53.47 15.3-13.28 28.79-13.73 37.42 3.39 1.11 4.03-2.36 7.44-6.63 4.71z" fill="#000"/><path d="m62.56 20.79c-.38-.57-2.82-1.35-3.15.18-2.97 4.03 5.66 4.95 3.15-.18zm-.93 2.3c-.57.57-2.71-.18-1.18-1.94.23-.1 2.16.23 1.18 1.94z" fill="#000"/><path d="m17.71 65.15c-.2-.48-.79-1.76-2.16-1.13l-.05.06c-3.82.8 1.55 6.16 2.21 1.07zm-1.6 1c-.64.21-1-.65-.48-1.64.26.11 1.73.92.48 1.64z" fill="#000"/></g></svg>