<svg height="200" viewBox="0 0 115 200" width="115" xmlns="http://www.w3.org/2000/svg"><g fill="none" fill-rule="evenodd"><path d="m54.6352071 61.8707483c27.6 2.2993197 18.5973373-14.1088435 15.0112426-15.5136054-10.452071.7482993-20.9007396 1.1666666-31.3664201-.4319728-10.2615385 18.9081632 10.5099112 15.4489796 16.3551775 15.9455782z" fill="#b4b4b5"/><path d="m82.225 171.816327 12.8609467 10.119047.1701184-.173469c-3.0621302-5.442177-7.1892012-10.17347-11.2278107-15.054422z" fill="#b4b4b5"/><path d="m77.8087278 196.789116c.7927515 2.721088-25.7150887 4.030612-35.8405325 1.799319-19.7677515-4.244898 34.8912722-7.027211 35.8405325-1.799319z" fill="#000" fill-rule="nonzero" opacity=".2"/><path d="m64.6177515 53.8537415c-4.1338758 2.6530612-21.0946746 2.744898-19.5193787-.3741497 6.2841716-.7517006 12.7860947.2108844 19.4751479.159864.0136095.0714286.0306213.1428571.0442308.2142857z" fill="#fff"/><path d="m7.5056213 35.3367347c46.6566568 18.3367347 103.3264797 2.2959184 97.5492607-2.2176871-4.807545-23.43877549-12.5105033-18.6632653-.421894-28.81972787-37.2661241-.60544218-82.5720413-9.31632653-97.1273667 31.03741497z" fill="#fff"/><path d="m104.26213 72.6258503c-31.3800294 10.1700681-66.6081359 12.5850341-98.17189331 1.0204082 2.64704142 28.1190475 16.30414201 31.8775515 38.73934911 33.8639455.204142-3.136054 2.9702663-7.8231292 6.0902367-3.251701 2.2217455-3.935374 5.2430473.391157 5.7227811 3.87415 44.7479294-.738095 44.4451184-21.5544217 47.6195264-35.5068027z" fill="#fff"/><path d="m29.6005917 62.6190476c2.6878698 1.6768708 5.7840237 2.8061225 7.8934911 5.5680272-8.1214497-2.1122449-14.9295858-8.0034013-24.224852-8.2448979-1.9087278 7.0272109-7.48520713 12.3911564-.7893491 13.1632653 29.0494082 8.9489796 59.3304733 5.8979592 88.0634613-2.1462585-2.3068045-19.8809524-21.6628696-4.7619048-32.8838755-2.7551021 1.7794378-2.6394557 4.7428994-3.3095238 7.9139053-4.792517-4.0828403.6054422-9.3258876-1-13.0650888 2.1938776-16.2360947 14.6666666-7.6893491-4.3197279-32.9076923-2.9863946z" fill="#f3d7bf"/><path d="m70.6093195 142.176871c29.8353555 3.061224 33.9556215-23.59864 12.6908284-35.268708-5.0559171 2.721089-11.8674556 2.591837-17.6242603 4.340136-4.3278107 5.64966-4.1781065 12.778912-9.635503 17.901361l.2075444.170068c30.5872781-2.040816 28.212426 2.479592 25.5177515-8.22449l.3402367-.088435c2.0720414 1.510204 2.5245562 3.833333 3.1676035 6.081632 1.337499-.549839 2.7632264-.854027 4.2087278-.897959-2.1502958 5.442177-12.3369822 5.156463-16.9505917 5.102041-.6464497 3.676871-1.2792899 7.265306-1.9223373 10.884354z" fill="#fff"/><path d="m25.8579882 108.302721c-27.55917163 25.282313-4.9844675 51.809524 19.7337278 22.530612-2.8647929-2-4.3788462-4.874149-5.5356509-8.295918-3.8480769 2.795918-8.3085799 5.843537-13.558432 5.442177 4.6612426-4.163265 2.8273669-2.20068 4.5659764-7.289116.9968935.938776.7213017 2.210885 1.1159763 3.445578l6.1242604-3.238095c-3.9399409-4.438775-7.7812131-8.707483-12.445858-12.595238z" fill="#fff"/><path d="m72.6983728 46.0102041c3.3819526 4.1190476 4.9130177 10.4557823.6430473 14.9659864 40.2125739-4.8639456 32.7137579-.5238095 32.5470419-22.414966-10.8040723 3.5221885-21.9167925 6.0162592-33.1900892 7.4489796z" fill="#848687"/><path d="m35.1464497 45.4761905c-9.6453594-1.5376189-19.1125618-4.0364672-28.26005917-7.4591837-1.48002958 5.3095238-3.29349112 17.537415-1.15 18.2278912 9.79396767 2.3427064 19.75005697 3.9469887 29.78431957 4.7993197-3.1573965-5.1666667-2.8409764-10.2891157-.3742604-15.5680272z" fill="#848687"/><path d="m61.9230769 149.928571c1.9699704 3.962585 3.8514793 10.176871 6.6516272 13.761905 7.4852071-2.629252 14.4328403-7.010204 20.7136095-11.768707l-5.175-7.683674c-6.8319527 3.289116-14.3954142 4.778912-22.1902367 5.690476z" fill="#fff"/><path d="m25.0107988 154.156463c23.4763314 12.397959 19.9480769 9.659864 24.4970414-4.170068-25.5619822-2.204082-18.168639-6.670068-24.4970414 4.170068z" fill="#fff"/><path d="m69.9764793 166.768707c-.4286982-.156462 4.2495562 4.272109-3.1199704 4.265307-3.4874261.115646-6.018787 5.013605-8.1044379 1.578231-2.3816568 10.921769 14.0245562 5.493197 19.6656805 4.204082-.6804734-.778912-3.4942308-5.707483.4865384-3.431973 2.5245563-4.221089 3.1880178-8.938776 4.6204142-13.391157z" fill="#fff"/><path d="m34.9797337 172.469388c5.6887574-2.360544-1.3609467 4.605442.3810651 6.241496 27.0011834 3.836735 20.5060651-1.955782 20.7306213-11.20068.0408284 9.234694-.1224852 7.142857-8.6045858 5.704082-9.1285503-1.585034-8.8155325.14966-4.2053254-7.612245l-13.020858-4.908163c1.5923077 3.979591 3.1607988 7.884353 4.7190828 11.77551z" fill="#fff"/><path d="m56.3942308 181.163265c-4.6408284 1.07483-9.2408284 1.102041-13.7727811 1.268708l4.4639053 8.044217c3.8548817.619048-1.4630177 2.853742-4.1781065 4.911565.0204142.088435.0442308.176871.064645.268708 19.1383136.843537 14.1470414.489796 13.4223373-14.493198z" fill="#848687"/><path d="m72.552071 181.071429c-4.6408284 1.020408-9.1149408 1.139455-13.6094674-.704082 1.289497 15.646258-2.7831361 16.176871 13.1059171 14.826531-1.2248521-.39796-8.3119822-6.122449-2.7763314-4.578232.4389054-3.353741 1.891716-6.323129 3.2798817-9.544217z" fill="#848687"/><path d="m53.7267751 172.367347c2.3034024-43.979592-3.4261834-12.095238-10.7140532-2.091837z" fill="#848687"/><path d="m56.9488166 150.078231c.1667159 7.37415 1.2622781 14.421769 3.8276627 21.159864 2.3854104-1.291903 4.950889-2.219421 7.6110947-2.7517-9.90429-15.683674-5.9643491-18.908164-11.4387574-18.408164z" fill="#848687"/><path d="m4.94363905 104.952381 13.25221895 6.823129c.8369822-.908163 1.7318047-1.874149 2.7218935-2.962585l-12.52411245-9.8333332z" fill="#848687"/><path d="m68.1255917 141.557823c.5409763-2.863945 2.5551775-7.183673 1.4766272-10.5-10.4622781-1.244898-11.8572485 8.880953-1.4766272 10.5z" fill="#848687"/><path d="m49.3819527 142.517007c-9.9485207-1.037415-10.312574-1.561225-17.1241125 2.608843 5.6699065.968892 11.3852672 1.650036 17.1241125 2.040817z" fill="#848687"/><path d="m47.5718935 129.367347c1.9563609-3.163265 3.4806213-8.870748 0-11.94898-6.6244083-2.040816-5.8554734 10.180272 0 11.94898z" fill="#848687"/><path d="m39.981213 119.591837c9.0741124-8.2483-3.1335799-10.408164-9.6559171-10.7483 3.4806213 3.428572 7.1211538 6.581633 9.6559171 10.7483z" fill="#fff"/><path d="m63.0390533 142.588435c-3.6983728-1.914966-6.1038462-6.802721-3.0621302-10.823129-2.8794967-.23178-5.7717508.249536-8.420858 1.401361 5.481213.802721 5.9847633 1.996598-.7587278 3.687074l.0714497.244898c5.647929-1.170068 3.6813609 7.438776 12.1702663 5.489796z" fill="#f3d7bf"/><path d="m98.1446746 60.4489796c6.1242604 15.5136054 6.2841714 11.8061224 7.5974854-1.2959184z" fill="#fff"/><path d="m6.96464497 71.0408163c1.24526627-3.5102041 2.22514793-7.9455782 4.88920123-11.3843537l-7.20621306-1.6666667c.11568047 3.537415-.32322486 12.6632653 2.31701183 13.0510204z" fill="#fff"/><path d="m60.2593195 64.0442177h-13.5856509l7.1075444 5.2789116z" fill="#fff"/><path d="m53.1994083 140.170068c1.2486686-1.408163-8.3630178-.653061-3.5486687-5.306122-1.3235207-.731293-1.8372781-1.744898-1.4051775-3.170068-1.6093195 3.119047-4.2325443 5.387755-6.6822485 7.785714l.0612426.255102z" fill="#fff"/><path d="m51.3927515 142.517007v4.829932h7.5260355c.5511834-2.35034-4.3618343-5.482993-7.5260355-4.829932z" fill="#848687"/><path d="m62.4300296 111.255102h-6.1480769c-.2857989 3.180272-1.3949705 3.986395 2.9532544 5.309524z" fill="#848687"/><path d="m71.0005917 145.697279c0-.088435-.0204142-.173469-.0272189-.258503-3.0995562-1.088436-6.3692308-.755103-10.2071006-.370749v2.231293z" fill="#848687"/><path d="m3.28668639 103.891156 3.40236686-5.7823125c-2.22174556-2.7380952-6.64142011 4.7414965-3.40236686 5.7823125z" fill="#fff"/><path d="m43.9551775 111.993197.2585799-.017007c-.0986686-.554421.4899408-1.455782-1.2350592-1.380952z" fill="#848687"/><g fill-rule="nonzero"><path d="m95.6065089 60.8401361c-21.6934911 1.670068-19.7337278 6.7619047-27.933432 7.3639455 1.7794379-2.6394557 4.7428994-3.3095238 7.9139053-4.792517-4.0828402.6054422-9.3258875-1-13.0650887 2.1938776-16.2497042 14.6666666-7.7029586-4.3197279-32.9213018-2.9863946 2.6878698 1.6768708 5.7840237 2.8061225 7.8934911 5.5680272-8.1214497-2.1122449-14.9295858-8.0034013-24.224852-8.2448979-1.2588758 3.4217687-3.34112429 7.877551-4.21893494 11.8741496 7.30828404-17.9353741 13.94970414-1.4421768 39.61375744.5238096 31.1044378 1.877551 37.3681952-16.9455783 51.8384617-1.3605443l.040828-.0272108c-.928846-3.0952381-1.9971892-8.8401361-4.9368341-10.1122449z" fill="#d5ae9a"/><path d="m3.47721893 52.1258503s72.30710057 8.8095238 104.55473407-6.2210884l-1.02071 11.4251701c-38.3208584 8.9047619-93.1806217 4.1530612-103.53402407-.867347z" fill="#231f20" opacity=".2"/><path d="m105.044675 4.1292517c-17.209172 7.1632653-13.7013318 8.3673469-12.2178999 14.3741497 1.6705622 7.1836734 1.3201184 19.5136054-21.7173076 25.6972789 8.9516272-1.0204082 27.3720414-4.2891157 35.6704145-7.4013606l-7.1449708-24.8639456z" fill="#231f20" opacity=".2"/><path d="m17.5051775 101.255102s50.3550296 7.619048 81.5785503-10.2040816c-2.5721893 8.5476191-14.5927515 13.7755106-24.0921598 18.0782316-28.8758875 15.70068-51.0048816-5.387755-57.4863905-7.87415z" fill="#231f20" opacity=".2"/><path d="m27.5863905 126.755102c2.8681953-12.809524 5.0763314-5.928571 11.1053255-5.380952z" fill="#231f20" opacity=".2"/><path d="m87.4986686 127.302721c-10.0267751-16.102041-5.4437869.295918-12.9085798 2.238095-.8131657.520408 10.4690828-.489796 12.9085798-2.238095z" fill="#231f20" opacity=".2"/><path d="m83.5247041 142.765306c-10.016568 3.72449-15.6508875-.210884-19.6486686 1.061225l5.4982249 3.472789s-17.620858 1.874149-31.6998521-.088436c2.5360888-1.104015 4.8801741-2.604659 6.9442308-4.445578l16.777071.367347c-4.7088758.187075-7.4273669-3.255102-8.8461539-4.782313-6.7060651-1.302721 2.235355-5.047619-5.1035503-7.442177-2.337426 5.581633-19.0532544 14.479592-18.5156805 13.945578l-2.0210059 4.265307c6.6720414-.945579 15.6032545 2.809523 20.8769231 3.503401 7.3933432.887755 28.5798817-2.823129 36.4495562-8.238095z" fill="#231f20" opacity=".2"/><path d="m30.2606509 160.459184 11.6463018 7.387755-.8778107 3.40136 1.2554734 1.153062c-1.5480769 3.911564 5.8078402 2.632653 9.4211538 5.030612 3.4431953 3.608843 6.556361 2.469388 9.227219 2.380952-.7008876-8.289115 12.1226331-3.772109 9.404142-10.227891-.4695266-1.05102 12.7860947-9.057823 13.1875739-9.578231l-15.1371301 5.656462c2.2217455 5.207483-6.9952663 6.047619-8.1078403 6.938776l-4.2223373-7.663265c-1.2792899 10.571428-.3198224 8.795918-8.8903846 7.170068-9.6423077-1.29932-2.2557692-3.741497-3.0178994-7.982994z" fill="#231f20" opacity=".2"/></g><path d="m48.568787 104.741497-.472929.040816c-.6328402 3.40136-1.2679487 6.802721-1.9053255 10.204082 6.6107989.605442 6.8693787 8.503401 5.1443787 13.77551 2.7593196.129251 3.2696746-10.068027 5.0150888-4.146259 6.8047337-7.35034-3.8072485-5.755102-2.4326923-9.911564-.1190828-2.94898 2.2319527-7.775511-1.0036982-10.503402-2.0686391 2.234694-.1497042 6.527211-2.6164202 9.183674-2.1605029-1.819728.0578403-5.792517-1.7284023-8.642857z" fill="#f3d7bf"/><path d="m26.1063609 146.897959c-19.50236682.619048-19.08387569-21.846939-9.6865384-32.85034-4.8892012-3.826531-11.72455623-5.42517-16.4198225-10.231292.17011834-7.8707488 4.86198225-10.7448984 11.397929-4.7619052-11.24482249-14.8639456-10.14926036-44.9421769-9.14556214-54.6700681 8.04659764-56.2891156 74.24985204-43.58843533 112.57411214-42.19047615-22.8605027 10.70748295-7.958136 15.10204085-6.348816 32.08503405 2.55858 25.170068.193935 64.9387755-21.1865387 71.1224494 15.7257397 11.547619 18.1278107 30.374149-.2177515 38.023809 8.0534023 12.14966 7.9071006 6.122449-.8846154 15.221089-5.3110947 9.938775 13.6536982 16.285714 10.887574 26.108843-5.6649409-2.12585-10.2887574-7.680272-15.6508876-11.343537-2.6436391 12.693877-5.0048817-1.57483-10.7242604 18.448979 12.0409764 6.802721-8.458284 6.938776-12.3778106 4.261905-4.3244083 2.680272-27.1781065 3.030612-13.0616864-4.670068l-5.3213018-9.037415c-3.6847633-.176871-10.4758876-1.792517-6.8489645-7.214286-8.968639-30.5-16.9880177-12.17687-6.9850592-28.302721zm-18.6007396-111.5646257c46.6566568 18.3367347 103.3264797 2.2959184 97.5492607-2.217687-4.807545-23.43537419-12.5105033-18.659864-.421894-28.81632657-37.2661241-.60544218-82.5720413-9.31632653-97.1273667 31.03741497zm96.7565087 37.292517c-31.3800294 10.1700681-66.6081359 12.5850341-98.17189331 1.0204082 2.64704142 28.1190475 16.30414201 31.8775515 38.73934911 33.8639455.204142-3.136054 2.9702663-7.8231292 6.0902367-3.251701 2.2217455-3.935374 5.2430473.391157 5.7227811 3.87415 44.7479294-.738095 44.4451184-21.5544217 47.6195264-35.5068027zm-74.6615383-10.0068027c2.6878698 1.6768708 5.7840237 2.8061225 7.8934911 5.5680272-8.1214497-2.1122449-14.9295858-8.0034013-24.224852-8.2448979-1.9087278 7.0272109-7.48520713 12.3911564-.7893491 13.1632653 29.0494082 8.9489796 59.3304733 5.8979592 88.0634613-2.1462585-2.3068045-19.8809524-21.6628696-4.7619048-32.8838755-2.7551021 1.7794378-2.6394557 4.7428994-3.3095238 7.9139053-4.792517-4.0828403.6054422-9.3258876-1-13.0650888 2.1938776-16.2360947 14.6666666-7.6893491-4.3197279-32.9076923-2.9863946zm41.0087278 79.5578234c29.8353555 3.061224 33.9556215-23.59864 12.6908284-35.268708-5.0559171 2.721089-11.8674556 2.591837-17.6242603 4.340136-4.3278107 5.64966-4.1781065 12.778912-9.635503 17.901361l.2075444.170068c30.5872781-2.040816 28.212426 2.479592 25.5177515-8.22449l.3402367-.088435c2.0720414 1.510204 2.5245562 3.833333 3.1676035 6.081632 1.337499-.549839 2.7632264-.854027 4.2087278-.897959-2.1502958 5.442177-12.3369822 5.156463-16.9505917 5.102041-.6464497 3.676871-1.2792899 7.265306-1.9223373 10.884354zm-44.7513313-33.87415c-27.55917163 25.282313-4.9844675 51.809524 19.7337278 22.530612-2.8647929-2-4.3788462-4.874149-5.5356509-8.295918-3.8480769 2.795918-8.3085799 5.843537-13.558432 5.442177 4.6612426-4.163265 2.8273669-2.20068 4.5659764-7.289116.9968935.938776.7213017 2.210885 1.1159763 3.445578l6.1242604-3.238095c-3.9399409-4.438775-7.7812131-8.707483-12.445858-12.595238zm46.8403846-62.2925169c3.3819526 4.1190476 4.9130177 10.4557823.6430473 14.9659864 40.2125739-4.8639456 32.7137579-.5238095 32.5470419-22.414966-10.8040723 3.5221885-21.9167925 6.0162592-33.1900892 7.4489796zm-18.0631657 15.8605442c27.6 2.2993197 18.5973373-14.1088435 15.0112426-15.5136054-10.452071.7482993-20.9007396 1.1666666-31.3664201-.4319728-10.2615385 18.9081632 10.5099112 15.4489796 16.3551775 15.9455782zm-19.4887574-16.3945578c-9.6453594-1.5376189-19.1125618-4.0364672-28.26005917-7.4591837-1.48002958 5.3095238-3.29349112 17.537415-1.15 18.2278912 9.79396767 2.3427064 19.75005697 3.9469887 29.78431957 4.7993197-3.1573965-5.1666667-2.8409764-10.2891157-.3742604-15.5680272zm26.7766272 104.4523805c1.9699704 3.962585 3.8514793 10.176871 6.6516272 13.761905 7.4852071-2.629252 14.4328403-7.010204 20.7136095-11.768707l-5.175-7.683674c-6.8319527 3.289116-14.3954142 4.778912-22.1902367 5.690476zm-36.9122781 4.227892c23.4763314 12.397959 19.9480769 9.659864 24.4970414-4.170068-25.5619822-2.204082-18.168639-6.670068-24.4970414 4.170068zm44.9656805 12.612244c-.4286982-.156462 4.2495562 4.272109-3.1199704 4.265307-3.4874261.115646-6.018787 5.013605-8.1044379 1.578231-2.3816568 10.921769 14.0245562 5.493197 19.6656805 4.204082-.6804734-.778912-3.4942308-5.707483.4865384-3.431973 2.5245563-4.221089 3.1880178-8.938776 4.6204142-13.391157zm-34.9967456 5.700681c5.6887574-2.360544-1.3609467 4.605442.3810651 6.241496 27.0011834 3.836735 20.5060651-1.955782 20.7306213-11.20068.0408284 9.234694-.1224852 7.142857-8.6045858 5.704082-9.1285503-1.585034-8.8155325.14966-4.2053254-7.612245l-13.020858-4.908163c1.5923077 3.979591 3.1607988 7.884353 4.7190828 11.77551zm21.4144971 8.693877c-4.6408284 1.07483-9.2408284 1.102041-13.7727811 1.268708l4.4639053 8.044217c3.8548817.619048-1.4630177 2.853742-4.1781065 4.911565.0204142.088435.0442308.176871.064645.268708 19.1383136.843537 14.1470414.489796 13.4223373-14.493198zm16.1578402-.091836c-4.6408284 1.020408-9.1149408 1.139455-13.6094674-.704082 1.289497 15.646258-2.7831361 16.176871 13.1059171 14.826531-1.2248521-.39796-8.3119822-6.122449-2.7763314-4.578232.4389054-3.353741 1.891716-6.323129 3.2798817-9.544217zm-18.8252959-8.704082c2.3034024-43.979592-3.4261834-12.095238-10.7140532-2.091837zm3.2220415-22.289116c.1667159 7.37415 1.2622781 14.421769 3.8276627 21.159864 2.3854104-1.291903 4.950889-2.219421 7.6110947-2.7517-9.90429-15.683674-5.9643491-18.908164-11.4387574-18.408164zm-8.3800296-45.336734-.472929.040816c-.6328402 3.40136-1.2679487 6.802721-1.9053255 10.204082 6.6107989.605442 6.8693787 8.503401 5.1443787 13.77551 2.7593196.129251 3.2696746-10.068027 5.0150888-4.146259 6.8047337-7.35034-3.8072485-5.755102-2.4326923-9.911564-.1190828-2.94898 2.2319527-7.775511-1.0036982-10.503402-2.0686391 2.234694-.1497042 6.527211-2.6164202 9.183674-2.1605029-1.819728.0578403-5.792517-1.7284023-8.642857zm-43.62514795.210884 13.25221895 6.823129c.8369822-.908163 1.7318047-1.874149 2.7218935-2.962585l-12.52411245-9.8333332zm63.18195265 36.605442c.5409763-2.863945 2.5551775-7.183673 1.4766272-10.5-10.4622781-1.244898-11.8572485 8.880953-1.4766272 10.5zm-18.743639.959184c-9.9485207-1.037415-10.312574-1.561225-17.1241125 2.608843 5.6699065.968892 11.3852672 1.650036 17.1241125 2.040817zm-1.8100592-13.163266c1.9563609-3.163265 3.4806213-8.870748 0-11.948979-6.6244083-2.027211-5.8554734 10.193877 0 11.962585zm-7.5906805-9.761904c9.0741124-8.2483-3.1335799-10.408164-9.6559171-10.7483 3.4806213 3.428572 7.1211538 6.581633 9.6559171 10.7483zm23.0578403 22.996598c-3.6983728-1.914966-6.1038462-6.802721-3.0621302-10.823129-2.8794967-.23178-5.7717508.249536-8.420858 1.401361 5.481213.802721 5.9847633 1.996598-.7587278 3.687074l.0714497.244898c5.647929-1.170068 3.6813609 7.438776 12.1702663 5.489796zm35.1056213-82.1394554c6.1242604 15.5136054 6.2841714 11.8061224 7.5974854-1.2959184zm-91.183432 10.5918367c1.24526628-3.5102041 2.22514793-7.9455782 4.8892012-11.3843537l-7.20621303-1.6666667c.11908284 3.537415-.31982249 12.6632653 2.3204142 13.0510204zm75.260355 100.7755107 12.8609468 10.119047.1701183-.173469c-3.0621302-5.442177-7.1892012-10.17347-11.2278106-15.054422zm-21.9622781-107.7721093h-13.5856509l7.1075444 5.2789116zm-7.0599112 76.1258503c1.2486686-1.408163-8.3630178-.653061-3.5486687-5.306122-1.3235207-.731293-1.8372781-1.744898-1.4051775-3.170068-1.6093195 3.119047-4.2325443 5.387755-6.6822485 7.785714l.0612426.255102zm-1.8066568 2.346939v4.829932h7.5260355c.5511834-2.35034-4.3618343-5.482993-7.5260355-4.829932zm11.0372781-31.251701h-6.1480769c-.2857989 3.180272-1.3949705 3.986395 2.9532544 5.309524zm8.5705621 34.442177c0-.088435-.0204142-.173469-.0272189-.258503-3.0995562-1.088436-6.3692308-.755102-10.2071006-.370749v2.231293zm-67.71390531-41.816327 3.40236686-5.7823125c-2.22174556-2.7380952-6.64142011 4.7414965-3.40236686 5.7823125zm20.57411241 2.94898-5.5900887-2.605442c1.3711538.527211 3.3581361 4.738095 5.5900887 2.605442zm20.0943787 5.153061.2585799-.017007c-.0986686-.554421.4899408-1.455782-1.2350592-1.380952z" fill="#000" fill-rule="nonzero"/><path d="m35.4866864 73.0680272c-.102071 4.0816327-6.2025148 4.2585034-6.4644971 0 .1088758-4.0714286 6.2127219-4.255102 6.4644971 0z" fill="#000" fill-rule="nonzero"/><path d="m76.2130178 72.6326531c-.1020711 4.0816326-6.2059172 4.255102-6.4644971 0 .1122781-4.07483 6.2127219-4.2653062 6.4644971 0z" fill="#000" fill-rule="nonzero"/></g></svg>