<svg height="161" viewBox="0 0 102 161" width="102" xmlns="http://www.w3.org/2000/svg"><g fill="none" fill-rule="evenodd"><g fill="#1d1819"><path d="m50.8334694 155.793636c17.7355102 0 32.1195918 1.066364 32.1195918 2.390606 0 1.324243-14.3840816 2.397576-32.1195918 2.397576s-32.0987755-1.073333-32.0987755-2.369697c0-1.296363 14.3771428-2.390606 32.1195918-2.390606z"/><path d="m82.2869388 77.3636364s11.4212245 7.8130303 16.1881632 18.4975757c4.766939 10.6845459 2.976735 16.9015149 2.976735 16.9015149-4.968936-4.70764-9.5023525-9.858455-13.5444901-15.3890906-6.3142857-8.7609091-7.9587755-14.6363637-7.9587755-14.6363637l2.3383674-5.4015151z"/><path d="m76.8608163 86.02s.6938776 10.9912121 5.1277551 18.246667c4.4338776 7.255454 8.2155102 10.11303 8.2155102 10.11303s1.8804082-12.169091-2.8657143-23.8363637c-4.7461224-11.6672727-8.437551-12.2109091-8.437551-12.2109091l-2.0816326 7.6666667z"/><path d="m24.0914286 94.0909091c4.661422-1.0311752 9.3853815-1.7529384 14.1412245-2.1606061 8.7706122-.8572727 12.6008163 0 12.6008163 0s3.8302041-.8572727 12.6008163 0c4.7536096.4071684 9.4752937 1.1289381 14.1342857 2.1606061l-7.2371428 19.8287879-2.8934694 9.876061-3.2404082.752727c-3.2334694.759697-13.3640816.954848-13.3640816.954848s-10.137551-.195151-13.3710204-.954848l-3.2334694-.752727-2.8934694-9.876061z"/><path d="m34.5481633 123.816667-8.1322449 28.819697s-3.4277551 2.369697-3.74 3.366363c-.3122449.996667-.8812245 2.230303 0 2.613637.8812245.383333 2.2897959.899091 6.8069387.696969 2.6582294-.09556 5.2340278-.951538 7.4244898-2.467272l2.8102041-.522728v-3.415151s4.5657143-12.956667 7.264898-14.566667c1.1953787-.693072 2.4965905-1.182907 3.8510204-1.449697 1.3522078.266909 2.6511174.756759 3.8440816 1.449697 2.6991837 1.61 7.2718368 14.566667 7.2718368 14.566667v3.415151l2.7755102.522728c2.1900157 1.532741 4.7712342 2.40343 7.4383673 2.509091 4.5171429.188181 5.9187755-.334546 6.8-.69697s.3122449-1.61697 0-2.613637c-.3122449-.996666-3.74-3.366363-3.74-3.366363l-8.1114286-28.861515c.1179592-.362425-11.5322449-.146364-16.2783673-.048788-4.7461225-.097576-16.4032653-.313637-16.2853061.048788z"/><path d="m35.5057143 122.067273c3.1779592.627272 6.4946939 1.129091 9.7142857 1.463636 1.8426262.211667 3.6964582.309427 5.5510204.292727h.0832653c1.8545584.016525 3.7083798-.081235 5.5510204-.292727 3.2126531-.334545 6.5363266-.836364 9.7142857-1.463636l1.3877551-.271818 1.7832653 4.397878-1.4779591.69697c-1.5122006.675451-3.0594686 1.268732-4.6351021 1.777273-3.3134255 1.146748-6.7478319 1.904516-10.2346939 2.258182-.6453061.055757-1.2836734.097575-1.9289795.111515h-.3608164c-.6383673 0-1.2836734-.055758-1.9220408-.111515-3.4891204-.353692-6.9258218-1.111451-10.2416326-2.258182-1.5858739-.521271-3.1424442-1.128526-4.6628572-1.819091l-1.4779592-.69697 1.7902041-4.397879 1.3877551.271819z"/></g><path d="m35.1795918 123.73303s9.7767347 1.937576 15.6538776 1.791212c5.8702041.146364 15.6538775-1.791212 15.6538775-1.791212l.6453062 1.589091s-8.3265307 3.805455-16.1395919 3.993637h-.34c-7.8408163-.188182-16.1395918-3.993637-16.1395918-3.993637l.6522449-1.589091z" fill="#fff000"/><path d="m26.2702041 95.3384848s-5.7591837 4.5442425-8.8816327 15.3333332c-3.122449 10.789091-.7910204 19.055152-.7910204 19.055152s1.3530612 6.126363 2.657551 6.391212c1.3044898.264848 4.4963266-1.289394 4.4963266-1.289394s1.5404081 1.282424 2.2342857 1.13606c.6938775-.146363 1.8110204-.968787 1.4848979-2.090909-.2083261-.981093-.0104449-2.0051.5481633-2.836666.4093878-.808485 1.1934694-.836364 1.144898-1.512425-.0485715-.67606-1.3877551-3.484848-1.7069388-3.408181-.3191837.076666-2.2967347-.822425-2.2967347-.822425s-.5065306-10.363939 9.1730612-18.316363c2.5534694-2.090909-.492653-8.2172729-2.3591836-9.9039396-1.5403599-1.4165621-3.6433342-2.0435845-5.7036735-1.7006061z" fill="#1d1819"/><path d="m74.584898 95.3384848s5.7522449 4.5442425 8.8816326 15.3333332c3.1293878 10.789091.7840816 19.055152.7840816 19.055152s-1.3877551 6.126363-2.6506122 6.391212c-1.2628571.264848-4.4963265-1.289394-4.4963265-1.289394s-1.547347 1.282424-2.2412245 1.13606c-.6938776-.146363-1.8110204-.968787-1.484898-2.090909.2216886-.979463.0335692-2.007393-.5204081-2.843636-.4093878-.808485-1.1865307-.836364-1.144898-1.512424.0416327-.676061 1.3877551-3.484849 1.7069388-3.408182.3191836.076667 2.2967347-.822424 2.2967347-.822424s.5065306-10.36394-9.1730613-18.316364c-2.5465306-2.090909.4995919-8.2172726 2.3661225-9.9039393 1.5398351-1.4174933 3.6432681-2.0446524 5.7036735-1.7006061z" fill="#1d1819"/><path d="m61.602449 90.5990909-13.1351021 24.1012121 2.3661225-7.687576-9.3604082-16.4136361z" fill="#fff000"/><path d="m2.39387755 34.8833333c-3.99673469 13.409697-2.96979592 31.9769697 2.92816327 41.5254546 9.60326528 15.5354545 31.82122448 21.9754545 38.57959188 23.7596971 2.2902138.401858 4.6147399.572305 6.9387755.508788 2.3240291.063237 4.6485274-.107208 6.9387755-.508788 6.7514285-1.7842426 28.9763265-8.2242426 38.572653-23.7596971 5.9048983-9.5484849 6.9387753-28.1157576 2.9281633-41.5254546-4.4685714-15.0057575-9.4436735-25.70424239-26.457551-30.81303027-8.0836735-2.41848485-16.3893878-4.07030303-21.9889796-4.07030303s-13.877551 1.65181818-21.9751021 4.07030303c-17.0208163 5.10878788-21.99591832 15.80727277-26.46448975 30.81303027z" fill="#1d1819"/><path d="m6.64734694 36.1587879c-3.12938776 10.4893939-3.4 28.4433333 2.44938775 37.9012121 1.38674061 2.213803 3.03640491 4.2499665 4.91265311 6.0636364-1.1892622-1.299756-2.2663394-2.6987349-3.2195919-4.1818182-6.0297959-9.4578788-5.7453061-27.4048485-2.52571427-37.8942424 4.35755107-14.169394 8.70816327-23.3066667 24.21632657-27.8160606 6.3142857-1.86787884 14.7518367-3.88909096 21.357551-3.88909096s15.0363265 2.02121212 21.3506122 3.88909096c1.5012669.4304782 2.9789541.9399698 4.4269388 1.5263636-2.5494703-1.4475782-5.2605795-2.58692002-8.0767347-3.39424244-6.12-1.86090909-14.3008163-3.91-20.7053061-3.91s-14.5853061 2.04909091-20.7053061 3.91c-15.0432653 4.48848484-19.2620409 13.62575754-23.48081636 27.79515154z" fill="#fefefe"/><path d="m12.1706122 63.6054545s-2.67142853-13.57 7.1955102-15.6190909c9.8669388-2.0490909 20.8857143 6.969697 27.0195919 8.8375758 1.9636735.5993939 3.4 1.0106061 4.4477551 1.2824242 1.0408163-.2718181 2.4771428-.6969697 4.4408163-1.2824242 6.1338776-1.8748485 17.1526531-10.8936364 27.0195919-8.8375758 9.8669387 2.0560606 7.2163265 15.6190909 7.2163265 15.6190909s-2.3106123 7.9454546-13.2461225 11.5209091c-8.3265306 2.7112122-20.1710204.4809091-25.4167347-.7457575-5.2457142 1.2266666-17.1248979 3.4848484-25.4236734.7457575-10.9285715-3.5754545-13.2391837-11.5209091-13.2391837-11.5209091z" fill="#fbd7a3"/><path d="m60.1314286 65.78c.2502777-1.1237082.7042271-2.1915812 1.3391836-3.150303.9783674-1.2963637 7.3134694-4.3072728 11.6363266-5.7709091 4.3228571-1.4636364 2.4910204 0 2.4910204 0z" fill="#1d1819"/><path d="m70.9559184 58.8521212c1.1984396 1.2126675 1.8525063 2.8639313 1.8110204 4.5721212 0 3.1224243-1.9567347 5.6524243-4.3644898 5.6524243s-4.3644898-2.5160606-4.3644898-5.6524243c0-.23 0-.4530303 0-.6969697l6.8902041-3.9169697z" fill="#1d1819"/><path d="m41.5355102 65.78c-.2543529-1.1235542-.7105196-2.1911119-1.3461224-3.150303-.9506123-1.2963637-7.3065307-4.3072728-11.6363266-5.7709091-4.3297959-1.4636364-2.4840816 0-2.4840816 0z" fill="#1d1819"/><path d="m30.7110204 58.8521212c-1.1984396 1.2126675-1.8525064 2.8639313-1.8110204 4.5721212 0 3.1224243 1.9567347 5.6524243 4.3644898 5.6524243s4.3644898-2.5160606 4.3644898-5.6524243c0-.23 0-.4530303 0-.6969697l-6.8832653-3.9169697z" fill="#1d1819"/></g></svg>