<svg height="148" viewBox="0 0 127 148" width="127" xmlns="http://www.w3.org/2000/svg"><g fill="none"><path d="m91.29 79.38c11.88 5.07 23.7 19.71 4.17 23.76-8.66-2.5-3.92-7.33 1.27-9.92-.01-3.83-18.33-14.36-5.44-13.84z" fill="#bd1e2d"/><path d="m104.13 89.23c-2.450671-3.0714186-5.4644828-5.6474131-8.88-7.59-3.66 1.1-5.29.17-5.65 3.41 2.28 2 5.75 4.48 7.13 8.17-9 3.54-6.76 12 2.43 9.15.4319941-1.337302.7662081-2.7042375 1-4.09 3.155559-1.8278971 4.762175-5.4903346 3.97-9.05z" fill="#bd1e2d" opacity=".5"/><path d="m69.43 121.77c-1.08.45-1.28 15.46-3.9 14.56-4.33-5.82-15.32-26.76.71-23.22 0 0 4.9 4.89 3.19 8.66z" fill="#3c2415"/><path d="m59.2 113.6c-2.3.69-1.94 5.31.71 11.8 1.73-1.14 4.94-4.14 6.15-5.05 1.1710945.355569 2.3680231.619696 3.58.79 1-3.65-3.4-8-3.4-8s-5.05-.4-7.04.46z" fill="#3c2415" opacity=".5"/><path d="m64.2 77.53c-6.3222054-2.0254775-13.1009946-2.1437324-19.49-.34-1.15.29-3.16 1.13-5 1.75-11.71 4.06-25.95-2.14-32.24-13.17l10.23-5.4c3.09 6.92 11.39 12.5 19.81 10.63l1.07-.24c1.14-.3 2.29-.63 4.44-1 7.9142831-1.3797304 16.0608123-.3339628 23.37 3z" fill="#f6931e"/><path d="m35.26 109c1.46.34 20.82-10.58 38.82-19.63 13.5-7.78 24.54-10.37 22.66-14.7-1.86-4.8-19.53 8.21-37.49 16.46-14.25 8.25-33.04 13.94-23.99 17.87z" fill="#b59458"/><path d="m81.34 103.43s9.48-10.92 9.48-18.14c-10.76-24.9-37.82-4.43-45.34 16.08 0 0 21.84 5.36 35.86 2.06z" fill="#bd1e2d"/><path d="m89.62 82.17c-6.52 25-28.86 15.42-42.11 14.18-.831625 1.5958525-1.5016232 3.2708482-2 5 0 0 21.84 5.36 35.86 2.06 0 0 9.48-10.92 9.48-18.14-.1770227-1.1112175-.5970019-2.1697017-1.23-3.1z" fill="#bd1e2d" opacity=".5"/><path d="m69 75.16 7.13 14.78s7.36-4.7 13.12-8.29c-3.62-5.21-12.55-10.76-20.25-6.49z" fill="#fff8a1"/><path d="m90.13 83.1c-.4935242-.9828954-1.1083174-1.900046-1.83-2.73l-11.46 7.21-6.49-13c-1.0299062.4112109-2.0320156.8888831-3 1.43l6.65 13.33-21 13.22c0 .11 0 .22.05.33 1.39.23 2.91.46 4.52.67z" fill="#890c1f"/><path d="m39.89 133.42c-1.08.46-1.27 15.46-3.89 14.57-4.33-5.83-15.32-26.77.71-23.22 0 0 4.9 4.9 3.18 8.65z" fill="#3c2415"/><path d="m39 127.74c.0534496.684509-.0633568 1.371606-.34 2-2.67 9.31-1.07 25.4-9.62 3.37 9.45 25.88 7.94 12.52 10.88.26.82-1.81.08-3.95-.92-5.63z" fill="#3c2415" opacity=".5"/><path d="m81.34 103.43c16.73 6.85 4.76 26.41-15.87 14.63-1.65 2.07-17.73 19-26 13.61-5.15-3.09-6-8.86 0-12 3.3-2.47 2.68-16.69 6-18.34s25.98 4.57 35.87 2.1z" fill="#bd1e2d"/><path d="m71.08 107.24c-14.33-.34-24.63-3.13-26.62-4.29-.7650549-.686229-1.0722506-1.748404-.7915979-2.737067.2806526-.9886622 1.1001011-1.731015 2.1115979-1.912933 1.91 0 .78.15 1.61.27 3.45 1 20.4 5.39 35.11 2.3 1.76-.42 2.45-.6 3.83.72 3.67 6.32-12.39 5.25-15.25 5.65z" fill="#890c1f"/><path d="m49.61 100.3c34.44 4.51 47.68-24 41-19.93-.08.2-3.92 9.14-15.53 14.4-5.22 2.36-12 3.9-20.69 3.64-2.62.16-5.31-.9-7-.28-.96 1.19.04 2.26 2.22 2.17z" fill="#3c2415"/><path d="m78.83 82.69c19 .72 19.91-10.64 10.59-9.8-2.27.73-3.41 2.17-9.55 2.21-4.49.48-10-3.6-13.5-3.8-12.96 4.87 8.63 12.14 12.46 11.39z" fill="#f6931e"/><path d="m32.12 41.22c-.43 0-.26 0-1.52 0-.55 0-1.12-.05-1.68-.07-5.5303359-.4482566-10.8532693-2.3074959-15.46-5.4-.91-.56-1.73-1.28-2.57-1.91s-1.59-1.42-2.37-2.1l-8.52 12.02c1.35.66 2.64 1.37 4 2s2.73 1.15 4.16 1.56c6.8893084 2.2760077 14.2477472 2.7443033 21.37 1.36.7-.16 1.38-.3 2.08-.5.14 0 .56-.15 1.58-.48l.62-.21z" fill="#603913"/><path d="m34.28 50.88-.64.11-.54.1c-.34.07-.69.14-1 .23-1.3236437.3398393-2.6231859.7674521-3.89 1.28-6.0331683 2.5188975-10.9668183 7.1120512-13.91 12.95-.6727345 1.3146244-1.244387 2.6785673-1.71 4.08-.48 1.38-.77 2.78-1.14 4.21l14.66 1.42c0-.82-.06-1.71 0-2.54.0416277-.8299089.1452498-1.6555437.31-2.47.7780793-3.8676016 2.9576059-7.311396 6.12-9.67.7367325-.5880691 1.5192158-1.1164125 2.34-1.58.21-.13.41-.22.61-.32-.05 0 .2-.09.47-.26z" fill="#603913"/><path d="m30.28 8.22c7.95-10.07 46.45-8.06 46.45-8.06s41.59-1.52 46.07 38.76c9.48 54.08-118.3 50.56-88.52-14.06 2.02-8.67-11.75-6.86-4-16.64z" fill="#bd1e2d"/><path d="m81.07 72c-40.25-.84-54.34-21.47-42.45-51.44 1.9-8.14-10.16-7-5.16-15-14.1 11.21 2.85 10.27.83 19.25-24.29 58.99 63.45 61.56 83.41 36.59-8.76 7.02-22.37 10.6-36.63 10.6z" fill="#bd1e2d" opacity=".5"/><path d="m51.18 31.21c16.18-31.92 82.58-13.88 62.06 21.79-7.24 9-19.77 1.64-31.64 2-7.62.46-16.11 3.51-21.38 2.36-10.83-2.11-14.07-15.06-9.04-26.15z" fill="#fecea2"/><path d="m76.63 12.85c16.89 0 29.78 2.51 38.73 5.18 2.04796 2.9247319 3.689602 6.1138226 4.88 9.48-26.42-11.2-71.06-8-87.27.81.4-1.2.83-2.36 1.31-3.46.4754645-1.6333476.1770298-3.3944809-.81-4.78 7.96-3.19 22.2-7.23 43.16-7.23z" fill="#603913"/><path d="m76.87 32.82 1.61-5.09-21.55-6.92-1.61 7.19z" fill="#0c0608"/><path d="m93.43 32.82 21.55-4.82-1.6-7.19-21.55 6.92z" fill="#0c0608"/><path d="m73.68 9.46c5 1.2 25.15-3.89 22.2 5.54-.25 5.31 1.09 7.39-2.45 8.61-5-1.2-25.15 3.88-22.2-5.55.25-5.3-1.1-7.38 2.45-8.6z" fill="#929497"/><path d="m93.43 21.27c.69-.21 1-9.92 0-9.48h-19.59c-.79-1.36-1.24 9.75-.12 9.48z" fill="#d0d2d3"/><path d="m54.52 51.77c-.22 2.33 9.91 3.15 11.67.51 2.38-3.04-11.5-3.76-11.67-.51z" fill="#e5a876"/><path d="m111.57 51.77c.23 2.33-9.91 3.15-11.67.51-2.38-3.04 11.51-3.76 11.67-.51z" fill="#e5a876"/><path d="m60.59 41.38c.53 13.6 11.89 12.5 12.15 0-.53-13.59-11.89-12.5-12.15 0z" fill="#3c2415"/><path d="m62.57 37.47c.09 5.19 5.45 5.18 4.67-1.24-.73-3.76-4.41-3.49-4.67 1.24z" fill="#fff"/><path d="m95.46 41.38c.53 13.6 11.89 12.5 12.15 0-.53-13.59-11.89-12.5-12.15 0z" fill="#3c2415"/><path d="m97.44 37.47c.09 5.19 5.46 5.18 4.67-1.24-.73-3.76-4.41-3.49-4.67 1.24z" fill="#fff"/><path d="m72.14 104c3.87 2.09 7 6 9.37 11l.84 1.91-8.08 1.66v-1.7c.0212089-3.421765-.7560512-6.801306-2.27-9.87-.2720467-.471225-.5726057-.925403-.9-1.36z" fill="#890c1f"/><path d="m68.07 103.71c-4.12 1.55-7.74 5-10.76 9.64l-1.09 1.79 7.78 2.72.21-1.68c.4574608-3.392821 1.7004247-6.63206 3.63-9.46.3297188-.432686.6871346-.843547 1.07-1.23z" fill="#890c1f"/><path d="m84.37 118.55c-6.87 2.74-17.09.3-14.58-6.84 0 0-11.16 11.74-20.72 15.85-7.12 2.72-13-1-13.69-2.84-.36 2.52 1.16 5.17 4.12 6.95 8.06 4.67 21.46-8.61 26-13.61 12.37 6.39 21.64 4.13 23.5-3.67 0 0-.72 2-4.63 4.16z" fill="#bd1e2d" opacity=".5"/><path d="m126.46 13.75c-4.81 31.05-14 45.87-25.8 68.41l-6-3.17c12.81-23 23.94-46.13 26.43-76.87 5.63 4.49 5.37 11.63 5.37 11.63z" fill="#a6a8ab"/><path d="m126.46 13.75c-4.81 31.05-14 45.87-25.8 68.41l-3-1.58c16.77-31.78 10.66-18.51 20.17-42.4 6.87-22.18 3.27-36.06 3.27-36.06 5.62 4.49 5.36 11.63 5.36 11.63z" fill="#d0d2d3"/><path d="m96.02089 75.256507h4.81v7.98h-4.81z" fill="#bd1e2d" transform="matrix(.46654102 -.88449956 .88449956 .46654102 -17.587326 129.332417)"/><path d="m94.252771 76.31201h4.81v3.99h-4.81z" fill="#bd1e2d" transform="matrix(.46654102 -.88449956 .88449956 .46654102 -17.69956 127.267334)"/><path d="m101.24 82.46c-2.81 3-12.95 31.49-18.67 26.85-7.17-2.68 11.2-27 11.61-30.57z" fill="#8a5e3c"/><g fill="#603913"><path d="m95.87 84.09 2.17 3.03-3.72-.08-2.17-3.03z"/><path d="m92.37 90.73 2.17 3.03-3.72-.08-2.17-3.03z"/><path d="m88.74 97.62 2.17 3.02-3.73-.08-2.17-3.03z"/><path d="m82.57 109.31c-1.9138452-1.01493-2.6719273-3.368974-1.71-5.31l2.85.06c0-2.3 4.74-1.33 2.55 1.35l1.66 2.31c-1.0578633 1.892144-3.4304428 2.597266-5.35 1.59z"/></g><path d="m95.94 79.66c-.84 4.34-19.74 28.56-8.5 28.74-17.78 7.51 6.13-26.17 6.74-29.66z" fill="#8a5e3c" opacity=".5"/><path d="m92.91 76.62c1.18 1.46 14.66 5.44 10.9 8.38-1.38 1.1-19.35-8.15-10.9-8.38z" fill="#594a42"/><path d="m92 76.46c-2 2.63 10.52 7.55 12.25 8.2-.44 1.82-18.45-6.5-12.25-8.2z" fill="#594a42" opacity=".5"/><path d="m64.78 76.78c.4.36.1.13 1 .93.4.33.81.67 1.24 1 2.6096946 1.8296306 5.4689649 3.274421 8.49 4.29 1.9899793.6598176 4.029923 1.1580989 6.1 1.49 1 .2 2.09.25 3.13.39 10.05-1.43 9.22 13.31-1 10-1.18-.25-2.37-.4-3.55-.72-2.391945-.5666271-4.7331848-1.3292023-7-2.28-3.5410514-1.5246816-6.8474441-3.5448808-9.82-6-.51-.43-1-.9-1.52-1.38-3.96-1.83-2.71-11.84 2.93-7.72z" fill="#bd1e2d"/><path d="m87.82 96.38c-12.93 3.1-2.83 16.68 6.75 10.11 10.87-9.12-7-18.33-5-10.33z" fill="#3c2415"/><path d="m85.31 20.65c-2.5.28-6.21-2.76-4.13-6.46.5571172-.8786183 1.4501021-1.4903986 2.4706212-1.6926126 1.0205191-.2022139 2.079318.022824 2.9293788.6226126 4.5 2.7-4.4 9.38-3.24 1.87.55-.13 1.45-1.48 2.54.48-.13.12.43 1-1 1.28.2804776-.0321035.5290908-.1953718.67-.44 0-.16.42-.52-.48-1.24-.2166891-.0770425-.4533109-.0770425-.67 0-.4066966.1733942-.6837394.557967-.7194131.9986427-.0356738.4406758.1759027.8648035.5494131 1.1013573 1.71 1.13 4-3 .34-3.61-.9869748-.0206841-1.9240556.432982-2.52 1.22-.804382 1.3749996-.6604056 3.1067148.36 4.33.7248986.8767335 1.7676809 1.4304868 2.9 1.54z" fill="#414042"/><path d="m87.3 95.33c1.77.23 4-1.45 4.48-4.35l-4.45-1c-9.29 2.5-24.12-3.81-27-13.07-.8352762 1.2088961-1.1490557 2.7030131-.8706577 4.1457918.278398 1.4427788 1.12556 2.712881 2.3506577 3.5242082.51.48 1 .95 1.52 1.38 2.9769798 2.4489083 6.2824564 4.4685477 9.82 6 2.2684776.9463204 4.6093483 1.7087754 7 2.28 1.18.32 2.37.47 3.55.71s2.4.23 3.6.38z" fill="#bd1e2d" opacity=".5"/><path d="m93.68 85c4.84-1 9.71 1 8.41 6.78-6 16.38-32.14-4.43-9.18-9.53 1.65.6.77 2.75.77 2.75z" fill="#3c2415"/></g></svg>