<svg height="166" viewBox="0 0 185 166" width="185" xmlns="http://www.w3.org/2000/svg"><g fill="none"><path d="m125.356695 160.441068c-1.607975 7.171672-84.742535 6.808363-89.259495.590747-4.84552-7.812634 89.5548-7.688577 89.259495-.590747z" fill="#000102" opacity=".11"/><path d="m112.44152 38.6644128c-10.52872-41.82195728-79.60624-34.38149465-83.93672 7.021032 28.54624 3.9077936 56.31696.4873666 83.93672-7.021032z" fill="#535659"/><path d="m113.43904 59.1899288-.20424-.1270107c-27.47472 30.5032385-35.78048 15.5041638-43.26928 17.6515303-21.6672 6.9383274-27.85952 2.6819929-40.27672-12.5356584l-.23088.1181495c1.60136 10.5300712 5.43456 23.1572954 13.32 27.6262989 26.70808 15.0699646 69.34392.6793595 70.66112-32.7333096z" fill="#535659"/><path d="m112.9388 40.6434164c-27.91872 7.5290747-55.90848 10.9672242-84.48136 6.8379003-.36704 13.4306406-.296 10.1726691 8.93624 12.2757296 24.41408 5.529395 48.98504 2.0676156 72.816-4.5753381 6.52088.224484 2.56632-10.7279715 2.72912-14.5382918z" fill="#c4374f"/><path d="m52.51928 144.204377c9.71768-1.140142 13.13944-6.557295 20.00664-8.731245-.6364-.239253-1.20472-.159502-1.94472-1.41484 4.80112-2.36299 30.784 12.22847 31.24872 13.920961-.03552.064982-.07104.132918-.1036.200854l-1.13664-.191993c3.48392 3.290463 14.208-1.875623 15.13744-4.191352-2.89784-8.270463-6.808-16.467082-10.49024-24.48057-11.97024 12.647901-44.47992 13.409965-52.77976 1.757473-16.576 19.329253-8.24064 14.969538-10.3748 24.705054 4.90472 2.617011 13.19272 2.767651 17.35448-.416477-.03848-.127011-.07992-.251068-.12136-.378078-2.28808.679359-4.49624.635053-6.79616-.779787z" fill="#535659"/><path d="m82.01272 63.4698932c-9.61704 1.290783-19.06536 1.7899645-28.53736.8624911l4.83664 2.9803203c-.0444.0915659-.08584.180178-.13024.2687901-9.1805507-3.6327643-18.7426788-6.2198762-28.5048-7.7122064 19.5508 28.5980782 30.73368 13.81758 42.72168 14.2163345 19.33472 7.4965836 29.304-7.088968 41.21208-18.3545196-15.392 5.8011388-24.01744 5.2724199-33.78544 10.5625623z" fill="#f3d7bf"/><path d="m116.75424 46.1757651c31.54176-12.5031672 25.5004 33.7966548 63.95968 15.2619573-2.30288-2.546121-2.4716-5.5264413-2.49824-8.6308185-30.33408 13.0348399-35.20328-23.24-53.62336-14.2133808-3.68816 1.9612812-9.64072 2.4250178-7.83808 7.582242z" fill="#c4374f"/><path d="m70.31184 101.100498c5.19776 2.212349 10.74184 7.31936 15.11968 3.890071 8.22584-2.986227 10.49616-7.9750886 11.5736-5.9458715-3.08728 5.1454095-9.44832 8.2232025-14.8 10.0043065-9.2796 18.543558 48.42264-1.55662 19.42056-18.2334168-9.03688 5.8867971-20.7792 7.8126334-31.31384 10.2849108z" fill="#535659"/><path d="m163.30024 68.5798577c-25.88816-4.3715303-22.23848-25.6207118-38.27576-21.8576513-3.63192.9747331-8.88 1.1637722-7.85584 3.9757295 30.85504 1.6127403 16.8276 32.6949111 47.30376 32.943025-2.08976-5.0302136-3.1228-9.9097865-1.17216-15.0611032z" fill="#c4374f"/><path d="m107.1964 20.9922064c3.18496 6.9117438 10.17352-.2717438 15.42456-1.3498576 13.7492-5.3433097 26.91824-9.72960859 41.04336-14.37288261-20.93016-6.09946619-44.0004 1.34395018-63.76728 9.41060501 2.40648.9954092 4.4992 5.9074733 7.80848 4.1706761 13.55384-5.3167259 25.64544-12.83989321 40.32112-12.47953734-14.1932 2.90647687-27.43032 8.83167264-40.83024 14.62099644z" fill="#ededed"/><path d="m103.81904 115.048043c-15.2736 6.577971-34.91024 13.720106-49.9056 3.192989 8.52184 14.570783 41.69456 6.010854 51.16656-.386939z" fill="#c4374f"/><path d="m58.84776 118.568897c1.56584-5.724342 4.23872-10.674804 7.104-15.016797-2.12824-4.7761925-8.1696-2.885801-12.85528-4.0052673 3.62896 13.0850533-.888 16.2869043 5.75128 19.0220643z" fill="#535659"/><path d="m8.00976 94.6583986c5.7128-8.0637011 14.91544-14.7420997 5.77792-15.4834876-3.58752 3.2491104-6.55344 7.975089-9.91896 11.7381495 1.77008.8388612 3.33 1.7515658 4.14104 3.7453381z" fill="#848687"/><path d="m107.12536 159.321601c1.87072.336726 15.32984.773879 12.04424-2.153274-1.75528-.968825-10.59976-.965871-4.3808-3.839857-.69856-1.444377-1.44152-2.992135-2.16376-4.492634l-7.54504 2.51363c1.42376 2.684947 4.17656 4.492634 2.04536 7.972135z" fill="#37383a"/><path d="m46.81832 155.142064c1.48-.203808 2.664.200854 4.0256 1.181495-3.14352.886121-6.3492.469644-9.08128 2.51363 23.88128 3.429288 8.35904-1.296691 12.51192-8.802136-3.38032.478506-6.6156.41057-9.98112-.638007 1.09224 1.925837 3.33 2.977367 2.52488 5.745018z" fill="#37383a"/><path d="m69.03904 114.348007c-3.4484-2.921245-3.57864-3.308185-1.93584-5.836584-.24864-.437153-.50024-.886121-.92944-1.651138l-5.9052 12.269822c4.8856783 1.410883 9.9974638 1.872146 15.05752 1.358719-2.00688-1.654093-7.83808-2.463417-6.28704-6.140819z" fill="#535659"/><path d="m33.29112 86.6360498c-4.21504-10.3380783-5.328-20.9715302-8.08376-2.8090035 2.25848.7118505 5.37536 2.153274 8.08376 2.8090035z" fill="#535659"/><path d="m72.65616 104.751317c-.96496-.667545-2.072-.986548-3.87168-.886121-.57424 1.373487.82288 4.117509.90872 5.488042-3.75624 2.953737 3.36848 2.80605 2.072 6.170356 2.7528 1.964235 5.48488 3.435196 9.43944 2.067616-6.90864-.53758-11.64464-6.217616-8.54848-12.839893z" fill="#37383a"/><path d="m28.82744 71.7403559c-14.13104-19.0988612-17.66824 1.1814946-7.8144-4.3331317 2.146-.1772242 4.95504 1.9081139 5.85488 4.4660498z" fill="#e7c04b"/><path d="m17.96128 70.7715302c-7.33784-.3278647-3.0636 3.2491104-3.69704 5.7509253 2.57224 1.3025979 6.89088 3.1575445 4.80112 7.1569039 1.44448.1624555 4.07888-1.8224555 4.1736-3.1073309-3.5964-.8949822-6.78432-5.9458719-5.27768-9.8004983z" fill="#37383a"/><path d="m79.51744 108.626619c-8.10448-7.139181-5.846 5.6121.12432 6.356441-1.28464-2.094199-.86728-4.188398-.12432-6.356441z" fill="#37383a"/><path d="m24.6124 72.546726c-7.104-3.8871175-4.92544 4.0023131-.79032 5.9901779.26344-2.0026334.50912-3.8723487.79032-5.9901779z" fill="#37383a"/><path d="m27.93056 67.8591459c-.02368-3.813274-7.4444-7.7919573-10.31264-5.8454448 4.32456.0502135 7.40592 2.6081494 10.31264 5.8454448z" fill="#efd081"/><path d="m6.9116 95.6715302c-1.37936-.8595373-2.48048-2.0676156-4.1292-2.2389323.90872.5818861 2.35912 4.0407117 4.1292 2.2389323z" fill="#e7c04b"/><path d="m23.21528 70.168968c-1.23136-1.0397153-2.42128-1.3203203-3.17016-.773879z" fill="#000"/><path d="m113.368 56.1209964c.094645-.117096.173279-.246221.23384-.3839857-15.392 5.8011388-24.01744 5.2724199-33.78544 10.5625623l2.19928-2.8237723c-9.61704 1.2907829-19.06536 1.7899644-28.53736.8624911l4.83368 2.9744128c-.0444.0915659-.08584.180178-.13024.2687901-9.1805507-3.6327643-18.7426788-6.2198762-28.5048-7.7122064 1.5096 3.3790747 5.41088 6.9028825 8.07192 9.835943-5.4168-11.4043772 28.08744 6.202847 36.92896 1.435516 5.73352-.2628825 34.10512-17.3413879 27.71152-4.5428469 3.70296-3.4263346 7.3112-6.988541 10.97864-10.476904z" fill="#d5ae9a"/><path d="m112.44152 38.6644128c-1.08928-6.2766904-5.10008-12.3495729-9.83904-16.992847-.70448 4.3360854-3.63192 16.9160499-14.37968 22.4336299 8.0956-1.4118861 16.16456-3.252064 24.21872-5.4407829z" fill="#000" opacity=".2"/><path d="m83.6052 61.0182918c37.13912-7.5999644 30.192-3.8398576 29.3336-20.3807829-9.983488 2.7274646-20.1193082 4.8657348-30.3548 6.4037011 4.58504 1.2760142 11.90216 4.8972953 1.0212 13.9770818z" fill="#000" opacity=".2"/><path d="m113.2348 59.0747331c-3.8184 4.3597153-8.4656 9.1565836-13.4532 12.7365125-1.63392 4.923879-6.8672 17.5983629-19.03872 23.8957295 21.08112-4.6166904 31.35528-19.482847 32.69616-36.5170463z" fill="#000" opacity=".2"/><path d="m66.04944 100.562918 3.02512-.159502-1.73456 1.589111z" fill="#f3d7bf"/><g fill="#000"><g opacity=".2" transform="translate(104.784 9.451957)"><path d="m40.94568 1.95241993c1.2037333-.41943061 2.4074667-.84575326 3.6112-1.27896797-16.55528-2.82967972-30.24824 6.29441281-42.14448 10.86679714 2.072 1.8756228 1.88552 4.6964413 5.57664 2.5992883 11.16512-4.58419932 21.4008-8.55402139 32.95664-12.18711747z"/><path d="m2.03056 9.77982206c6.216-2.65836299 12.4172-5.3433096 18.67168-7.88647686-7.2148918 1.44482891-14.1860199 3.91049366-20.70224 7.32231316.4884.43419929.9916.93928824 2.03056.5641637z"/></g><path d="m134.81616 45.4875445c-3.22048-8.3413523-21.08704-6.9058363-18.056.6882206 5.41088-1.9022064 12.4024-3.5710676 18.056-.6882206z" opacity=".2"/><path d="m150.20816 73.252669c4.32456 2.7528826 8.93624 4.2592883 12.52968 5.0804271-.7104-3.2136655-.69856-6.4302847.5624-9.747331-25.88816-4.3715302-22.23848-25.6207117-38.27576-21.8576512-3.63192.9747331-8.88 1.1637722-7.85584 3.9757295 2.61368.3721708 5.12376.5405338 8.15776 1.2641993 3.24712-13.1352669 16.83944 17.7401424 24.88176 21.2846263z" opacity=".2"/><path d="m33.29112 86.6360498c-.592-1.4768683-1.50072-3.3554448-2.16672-5.4378292-2.0756784.0289368-4.0928443.6906266-5.78088 1.896299-.0444.2422064-.09176.4903203-.13616.7325267 2.25848.7118505 5.37536 2.153274 8.08376 2.8090035z" opacity=".2"/><path d="m10.4636 91.6751246c2.60776-3.6508186 13.12168-14.0391104 2.5012-11.8149467-.17464 2.3245908-.73704 7.357758-2.5012 11.8149467z" opacity=".2"/><path d="m24.2128 69.1174377 2.62256-5.9576868c2.1164.1329181 2.61664 9.3633452 2.81792 9.5405694l-3.4632.8063701z" opacity=".2"/><path d="m52.75608 99.5409253c.67192.8861207 10.70336 4.9622777 10.656 6.3564417-1.22544 12.603594 5.97624 18.60854 14.75856 14.688932-5.994-2.622918-11.70976-6.846762-9.94856-13.708292-4.59688-9.386975 8.50112-1.240569 9.1612-1.329181.40256-.295374 15.8064-11.0942353 12.728-10.603915-11.15032 3.4174733-33.744 5.511673-37.888 2.6317794z" opacity=".2"/><path d="m96.29176 118.007687c-6.88496 3.39089-14.8296 5.13064-22.76832 5.458505 14.356 4.412883 22.33616-1.388256 31.54472-5.612099l-1.24912-2.811958c-2.48936.97178-5.08232 1.789965-7.52728 2.965552z" opacity=".2"/><path d="m90.9016 129.869893c3.46616-1.358719 8.40048-5.384662 10.51392-7.186441-13.83208 8.627865-36.75136 8.376797-45.50704 1.739751 4.94912 6.442099 15.4216 10.370569 4.1736 11.971495-6.85536 8.453594-11.8252 4.430604-7.0448 11.188754 1.84408-.354448 4.48144-.51395 6.39952-2.22121-.03848-.127011-.07992-.251068-.12136-.378078-2.28808.679359-4.49624.629146-6.808-.779787 9.71768-1.140142 13.13944-6.557295 20.00664-8.731245-.6364-.239253-1.20472-.159502-1.94472-1.41484 4.80112-2.36299 30.784 12.22847 31.24872 13.920961-.03552.064982-.07104.132918-.1036.200854l-1.13664-.191993c.739002.655702 1.657325 1.076352 2.63736 1.208078-11.02008-19.665978-20.0392-16.10968-12.3136-19.326299z" opacity=".2"/><path d="m166.42896 68.6596085c6.62448.0502136 12.70136-2.6967615 18.28096-6.6783985-3.8924-4.0525267-3.41288-8.8789324-3.256-13.9475445-36.75728 18.7207829-33.892-28.2820285-65.75048-8.4535943-1.29352-4.1352313-1.85888-8.5451602-3.95456-12.5002135 19.4028-8.0666549 39.24072-15.3210321 59.26808-22.28003564 0-.11519573.01776-.22743772.02368-.34263345-29.896-10.04270462-51.16656-1.18149466-75.70792 7.76241989-25.3376-10.58323839-58.4748-2.49886117-67.66856 24.2206406-4.24464 13.4601779.67192 21.2669039-1.65168 24.7345908-7.2224-4.1677225-14.93024-1.4207474-12.2248 7.6472242-1.23136.605516-2.74096 2.4368327-2.6936 4.2002135 3.70592 8.400427-8.47448 12.7365124-11.09408 19.8491103 8.288 16.3873311 12.79904-8.7105694 22.08456-7.7890036 4.59096 3.8162278 13.2756 2.3629894 17.6712 8.9202847 8.21696 6.202847 11.31904 1.4768684 11.89328 10.840214 4.84848 23.059822-15.75312 20.330569-12.24552 36.257117.15392 9.274733-.9324 2.953737 3.81248 9.954093 5.40496 6.669537-9.52824 4.5458-1.87368 9.638042 2.5752 1.329182 5.30136 1.128328 8.41824 1.107651 16.35104-1.382348 2.83272-4.460142 6.734-11.537295 3.12872-2.788327 4.52288-1.435516 5.37536-6.554342 3.34776-2.702669 7.918-4.471957 11.84-6.704982 5.53224-.472598 24.35192 9.747331 24.63608 12.13395 15.78864 7.399111-2.072 12.571104 13.6752 12.506121 4.44.522812 12.62736-1.580249 7.92096-6.315089-4.5288-1.934697-3.72664-1.668861-5.50264-6.716797-.32264-1.695445 3.81544-2.658363 3.5964-4.912064-1.06856-6.542526-4.83072-12.441139-7.12472-18.903914-7.76408-15.019751-4.40152-9.000036.57128-16.966264 4.662-7.251423-1.35568-15.0108894-7.83808-18.5671883 8.32056-10.1815302 14.43-22.566548 13.51536-36.3634519 16.2356.7354804 16.872 8.3147686 22.274 19.2229181 5.56184 11.114911 16.4872 17.9203203 27.66416 12.6124555-1.73456-4.3922064-4.51992-13.7703203-.66896-16.0742349zm-65.99616-54.2837722c19.85864-7.71516014 41.8988-15.22946619 63.23152-9.10637011-63.85904 20.59345191-50.10984 22.01124551-56.46792 15.72274021 13.39992-5.7893238 26.64-11.71451957 40.83024-14.62099644-30.192.79160143-38.34384 20.41327404-48.1296 8.30886124.171308-.1136751.350326-.2153316.53576-.3042349zm-70.87424 25.9279004c10.40144-38.37199293 73.78688-39.96701072 82.88296-1.6393239-27.61976 7.5083986-55.39048 10.9288256-83.93672 7.021032.36112-1.8549466.64824-3.633096 1.05376-5.3817081zm-8.18144 21.3761921c2.516 1.0219929 6.35808 2.8621708 6.55344 6.1792171-2.90672-3.2491103-5.98808-5.7952313-10.31264-5.8454448 1.22248-.7088968 2.48344-.6527758 3.7592-.3337723zm-4.91952 1.8490392c4.58208-.2953737 11.68312 4.7259786 12.36984 8.2113879l-1.95952.1329181c-3.256-6.0728825-4.96392-4.1588612-9.72064-3.4086121-1.54808-.0974733-2.58112-4.6107829-.68968-4.9356939zm6.75768 6.64-3.17016-.773879c.74888-.5464413 1.9388-.2776513 3.17016.773879zm-17.99088 25.8067971c-.88338151-.7785594-1.70020801-1.6292255-2.442-2.5431672 1.64872.168363 2.74984 1.379395 4.144 2.2389323-.5476.7236655-1.11592.8329538-1.702.3042349zm12.2544-13.3863345c-3.02808 3.8930249-6.09168 8.087331-9.472 12.068968-.81104-1.9937723-2.368-2.9064769-4.144-3.7453381 2.96888-3.1043772 12.4172-18.5465125 13.616-8.3236299zm1.58656 1.0899288c1.90624-4.0111743-1.554-5.473274-4.80112-7.1569039-.20424-3.8398576-2.45976-6.0167615 3.69704-5.7509253-1.50664 3.8546264 1.68128 8.9055161 5.27768 9.8004983-.09472 1.2848754-2.72912 3.2697864-4.1736 3.1073309zm4.75672-5.1424555c-4.78336-2.658363-5.77496-9.6528114.79032-5.9901779-.2812 2.1178292-.52688 3.9875445-.79032 5.9901779zm9.1464 8.0961922c-2.60184-.9363345-5.20368-1.8785765-7.76112-2.8060498 2.84456-20.6348043 4.84552-3.5119929 8.08376 2.8090035-.1072129.0131068-.2156861.0121138-.32264-.0029537zm22.63216 71.5276869c1.184 2.658363-12.03832 1.872669-13.838.664591 2.73208-2.043986 5.93776-1.621602 9.08128-2.51363-1.34976-.968826-2.54856-1.373488-4.0256-1.181495.80512-2.767651-1.43264-3.819181-2.52488-5.756833 3.36552 1.048577 6.6008 1.116513 9.98112.638007-1.06856 3.133915-1.3616 5.186762 1.32608 8.14936zm59.2-4.841174c-5.99104 2.888754 1.8204 2.510676 4.86032 4.135231 1.0656 2.989181-10.73296 2.032171-12.52376 1.872669 2.01576-2.850356-.3404-5.234021-2.03944-7.975089l7.53912-2.522491c.7104 1.497544 1.45336 3.045302 2.15192 4.48968zm-6.96488-28.745766c6.68664 18.673524 11.14736 18.773951 4.56136 21.839929-3.97528 1.639324-7.80552 4.297687-11.7956 1.574342l1.13664.191993c.03256-.067936.06808-.135872.1036-.200854-6.4232-5.824769-30.12688-16.712242-31.24872-13.920961.41144.386939.42328 1.125373 1.94472 1.41484-12.92928 5.76274-10.01368 7.313452-20.00664 8.731245 2.29992 1.408933 4.50808 1.459146 6.808.779787.04144.12701.08288.251067.12136.378078-3.256 3.467687-18.2632 2.693808-17.2568-.590747-1.11296-13.587189 3.552-14.978399 10.27712-23.688968 11.248 13.926868 44.52136 8.22911 52.77976-1.757474.85248 1.75452 1.80264 3.455872 2.56336 5.24879zm-34.632-11.088327c1.951546 2.464638 4.8825088 3.958294 8.02752 4.090925-4.01968 1.181495-5.92.372171-9.43944-2.067615 1.2284-3.910748-5.84896-2.507723-1.94176-6.521851-.50616-1.671815-1.4652-2.563843-1.03896-5.136548.96792.038399 2.62256-.106334 3.87168.886121-1.0064 2.549075-1.80264 6.176263.49432 8.748968zm6.46464 1.497544c-6.47944-1.219893-7.87952-13.350889-.12432-6.356441-.7696 2.168043-1.18696 4.262242.09768 6.356441zm4.736 7.112598c6.56528-1.181494 12.83456-4.811637 19.43536-7.047615l1.24024 2.80605c-23.84872 13.545836-49.27512 8.193665-51.15472.381032 8.46856 6.442099 20.25232 5.928149 30.4584 3.860533zm-17.0644-20.103131-1.29056-1.429609 3.02808-.162455zm-1.16624 4.867758c.4292.762064.6808 1.213985.92944 1.651138-1.6428 2.528399-1.51256 2.915339 1.93584 5.836584-1.48 3.689217 3.70296 4.179537 6.28704 6.140819-5.0600562.513427-10.1718417.052164-15.05752-1.358719zm-7.326 11.708612c-6.84944-2.395481-2.91264-13.52516-5.7424-19.0220643 4.01672 1.2139863 10.42216-1.0958363 12.85528 4.0052673-2.87416 4.341993-5.54704 9.28064-7.11288 15.016797zm45.02456-26.0608187c22.41608 14.9518147-25.5152 33.3151957-22.64104 18.3840567.44696-1.819502.77848-1.911067 2.97776-2.487046 5.25992-2.005587 12.67176-6.95605 12.68952-9.7709609-17.6564 9.4224199-11.2184 9.9718149-26.58672 2.4663699 10.3304-2.4368325 21.79448-4.1972596 31.31976-10.2849108.68968.5169039 1.50664 1.0456228 2.24072 1.6924911zm9.56672-32.5974377c-3.73848 38.6939501-51.02448 44.8967974-71.84512 31.2534875-8.25248-5.685943-11.08224-20.2212811-12.136-26.8790035l.23088-.1181495c16.75064 20.8120285 22.34208 16.6 42.14744 12.3761566 19.11864 6.1171886 30.13872-5.2192527 41.39856-17.4920285l.20424.1270107c0 .2510676.01184.4873665 0 .7325267zm-.07104-3.7896442c-31.1984 31.9387545-32.46528 16.6295374-42.7128 18.0177936-23.15608 6.5897865-28.6824 2.8060499-40.98712-14.2576868 9.7628129 1.4890649 19.3253053 4.0762753 28.5048 7.7122064.0444-.0886121.08584-.1772242.13024-.26879l-4.8248-2.9803203c9.472.9274733 18.92032.4282918 28.53736-.8624911l-2.19928 2.8237722c10.2268-5.3551245 22.86304-6.0492526 33.78544-10.5625623-.06102.1357-.13964.2628134-.23384.3780783zm-.3256-1.6334163c-27.05144 8.0223487-55.60952 10.9288256-83.38912 3.8398576-2.072-1.8785765-1.00344-7.9337366-1.184-10.8283986 28.57288 4.1352314 56.56264.6911744 84.48136-6.8379003.3848 4.138185 1.79376 12.8901068.0888 13.8205338zm44.77296 28.3558719c-23.62672-6.2530605-13.44728-32.0037367-40.64376-32.1337011-1.54512-3.7364769 12.7724-4.755516 14.47144-3.9402847 3.08136.83 4.40744 2.2241637 6.4824 4.8972954 6.882 9.6469039 14.27608 15.3298932 25.17776 16.9308185-1.95064 5.1513167-.9176 10.0427046 1.184 15.0640569-2.37392-.3071886-4.54064-.4578292-6.6748-.8359075zm-11.16808-25.4228114c-11.7808-13.6639858-14.29088-16.1864769-29.896-11.2241993-2.18448-4.9475089 5.3132-6.2264769 8.66392-7.862847 19.08016-6.9294662 24.40224 27.8744128 52.79752 14.4733096.02664 3.1043772.19536 6.0846975 2.49824 8.6308185-12.4912 7.0151246-24.0796 5.104057-34.06664-4.0348043z"/></g><path d="m149.34088 53.3740214c7.249664 4.2228358 15.701961 5.9167849 24.02336 4.8145907-7.78776 3.05121-17.6268 1.4237011-24.02336-4.8145907z" fill="#fff"/><path d="m102.0164 94.2625979c3.3448.886121 8.05416 4.7761921 5.74832 9.1772601.03256-3.4854096-2.84456-6.229431-5.74832-9.1772601z" fill="#fff"/><path d="m105.08 125.649004c2.96 4.68758 5.21848 10.128363 6.808 16.018113-3.12872-4.374484-5.52928-10.317402-6.808-16.018113z" fill="#fff"/><path d="m38.6576 32.8898577c5.36056-12.6331317 20.40032-19.5832741 34.0104-18.7621353-13.0684 1.3409965-26.55712 6.9737723-34.0104 18.7621353z" fill="#fff"/><path d="m44.696 137.679573c-.5328-4.26815 1.90032-9.044342 6.30184-11.540249-1.65168 2.581566-5.07936 7.413879-6.30184 11.540249z" fill="#fff"/><path d="m58.18176 71.7758007c.0444 3.5740214-5.68024 3.9964057-5.26288-.4637366.03552-3.6153737 5.51152-2.8533097 5.26288.4637366z" fill="#000"/><path d="m87.07432 67.0675445c3.30336-.3633096 3.5816 4.5576156.95608 5.3374021-3.69704 1.0633452-5.65656-5.2133452-.95608-5.3374021z" fill="#000"/></g></svg>