<svg height="72" viewBox="0 0 72 72" width="72" xmlns="http://www.w3.org/2000/svg"><g fill="none"><path d="m46.88 35.76 10.15-21.14-21.14 10.15-21.64-10.19 10.19 21.64-10.15 21.15 21.14-10.16 21.64 10.19z" fill="#32313f"/><g fill="#3f3f4f"><path d="m57.03 14.62-21.37 21.37 11.22-.23z"/><path d="m57.03 57.37-21.37-21.38-.23 11.22z"/><path d="m14.29 57.37 21.37-21.38-11.22.23z"/><path d="m14.29 14.62 21.37 21.37.23-11.22z"/></g><path d="m57.03 14.62-12.01 21.18 12.01 21.57-10.15-21.61z" fill="#fff" opacity=".359096"/><path d="m57.07 57.4-21.6-12.27-21.18 12.24 21.14-10.16z" fill="#fff" opacity=".359096"/><path d="m14.29 57.37 12.02-21.18-12.02-21.57 10.15 21.6z" fill="#fff" opacity=".359096"/><path d="m14.73 14.63 21.18 12.02 21.57-12.02-21.61 10.16z" fill="#fff" opacity=".359096"/><path d="m44.97 26.51-9.18-26.15-9.18 26.15-26.61 9.57 26.61 9.57 9.18 26.16 9.18-26.16 26.6-9.57z" fill="#32313f"/><path d="m35.79.36v35.72l9.18-9.57z" fill="#3f3f4f"/><path d="m71.51 36.08h-35.72l9.18 9.57z" fill="#3f3f4f"/><path d="m35.79 71.81v-35.73l-9.18 9.57z" fill="#3f3f4f"/><path d="m.06 36.08h35.73l-9.18-9.57z" fill="#3f3f4f"/><path d="m35.79.36 7.65 27.74 28.07 7.98-26.54-9.57z" fill="#fff" opacity=".359096"/><path d="m71.57 36.08-28.31 7.8-7.47 27.93 9.18-26.16z" fill="#fff" opacity=".304455"/><path d="m35.79 71.81-7.66-27.75-28.07-7.98 26.55 9.57z" fill="#fff" opacity=".304455"/><path d="m.44 35.73 27.75-7.66 7.98-28.07-9.57 26.55z" fill="#fff" opacity=".359096"/></g></svg>