<svg height="139" viewBox="0 0 200 139" width="200" xmlns="http://www.w3.org/2000/svg"><g fill="none"><path d="m145.390071 39.657551c-2.018913-1.6287585-3.898345-.5177041-3.898345-.5177041-3.737589 4.6191497-10.420804 12.8338606-17.874705 21.9846939l5.460993 4.1676361 17.647754-21.9846939s.690308-2.0235374-1.335697-3.649932z" fill="#bbb8b8"/><g fill="#989697"><path d="m127.593381 56.2477211c-1.290781 1.5814796-2.617022 3.212602-3.971632 4.8744558l5.456265 4.17 3.527187-4.3922109c-1.456001-1.7669731-3.141512-3.3315562-5.01182-4.6522449z"/><path d="m134.624113 47.6051361-2.364066 2.8981972c1.91253 1.1110545 3.609929 2.5861565 5.257683 4.2551021l1.834516-2.2906633c-1.291836-1.8748325-2.890237-3.5187041-4.728133-4.862636z"/><path d="m136.690307 45.0638946c1.676123 1.562568 2.926714 3.602653 3.962175 5.8011224l1.966903-2.4490476c-1.579242-1.5962772-3.328876-3.0144629-5.217494-4.2290987-.234042.2860375-.470449.5815307-.711584.8770239z"/><path d="m145.390071 39.657551c-2.018913-1.6287585-3.898345-.5177041-3.898345-.5177041l-2.104019 2.6003402c1.654846 1.4916496 3.101655 3.3095238 4.423168 5.1864966l2.907801-3.6262925s.6974-2.0164456-1.328605-3.6428402z"/></g><path d="m131.245863 51.7704082-2.073286 2.5436054c1.997636 1.1015986 3.900709 2.4585034 5.817967 3.6144728l.988179-1.2316157c-1.382978-1.7918707-2.94799-3.6097448-4.73286-4.9264625z" fill="#e2dddb"/><path d="m128.546099 59.639983c-4.921986-3.6972109-7.702127-3.7823129-8.879432-2.2079252-1.177305 1.5743878-.326241 4.2220068 4.600472 7.9192177 4.926714 3.6972109 7.699764 3.7823129 8.881797 2.2079252 1.182033-1.5743878.323877-4.2196429-4.602837-7.9192177z" fill="#cf8158"/><path d="m71.0070922 127.255918s-.7092199 2.295392 1.4822695 4.153453 4.6926714.340408 4.6926714.340408l51.5981089-66.4268708-5.224586-4.1581803c-7.886525 9.7536394-38.8699768 49.3024491-52.5484638 66.0911901z" fill="#6c3d21"/><path d="m146.080378 38.267551c-2.522458-1.8202381-4.702127-.3711394-4.702127-.3711394-.626478.8604762-1.371159 1.9998979-2.12766 3.0542177l2.21513 1.6736734c.250591-.3475.49409-.7091837.6974-1.0023129.498287-.2840636 1.11947-.2353459 1.567375.1229252.476008.3017326.715949.8662716.602837 1.4183673l-.756501 1.0519558 2.028369 1.5294728 2.295508-3.1936905s.702128-2.4632313-1.820331-4.2834694z" fill="#cf8158"/><path d="m90.1229314 75.8211905s-4.7966903 23.7009183-6.7186761 24.2068025c-1.9219858.505885-11.3758865-7.4558842-11.3758865-7.4558842l-5.7754137 17.0865982s20.2671395 9.928572 26.9503546 1.931344 1.7943262-30.7312925 1.7943262-30.7312925z" fill="#474b4f"/><path d="m72.0283688 92.5721088-5.7754137 17.0865982c2.7706966 1.301668 5.6315202 2.402171 8.5602837 3.292977 3.5460993-4.099082 5.4373522-9.051548 5.1702127-14.3869731-3.4255319-2.1819218-7.9550827-5.9926021-7.9550827-5.9926021z" fill="#1f1e21"/><path d="m112.229314 68.2116497-22.0330965 7.2833163s2.3333333 21.1785884 12.2931445 33.998265c1.839243 2.375766 6.93617 3.893419 18.522458-.460969 11.586289-4.354388 13.869977-17.7603232 12.898345-19.9824321-15.073286-5.6947449-21.680851-20.8381802-21.680851-20.8381802z" fill="#1f1e21"/><path d="m99.1040189 86.1232653 3.3569741-11.0372619-9.0921987 3.2456973z" fill="#3c3f42"/><path d="m91.2671395 78.3482483 7.4964539 10.3635374.5862884-3.1038605-5.4468085-7.3187755z" fill="#b10d28"/><path d="m95.7115839 97.1912585c.6170213 1.5507483 1.3002364 3.1038605 2.0520095 4.6262415l8.1749406-31.5255782-2.950354.9739455z" fill="#b10d28"/><path d="m160.50591 64.4553401c-1.806146-.5602551-6.619385-1.6240306-8.016548-.1560204-6.969267 7.3093198-12.810875 21.0863946-24.295509 27.3366667l-9.477541 13.9212756-16.238771 3.935969s-18.3380611 23.436157-6.2340422 27.577789c5.8156032 1.988079 17.1087472 2.600341 23.6619382.165477 1.643026-.583895 1.799055-3.881599 2.106383-5.200681 5.681564-2.221805 11.226363-4.778566 16.605201-7.656819l-8.789598-14.803028s-17.553191 11.14364-18.007092 10.19097c-1.347518-2.673623 10.368794-9.247755 10.368794-9.247755 49.881797-22.7458847 76.536643-50.6924493 76.536643-50.6924493l-25.255319-10.7985034s-5.687943 7.0894728-12.964539 15.4271088z" fill="#1f1e21"/><path d="m116.373522 117.72449 5.829788 14.22386c5.614642-2.20427 11.095274-4.735667 16.413711-7.581173l-8.789598-14.803027s-8.118203 5.158129-13.453901 8.16034z" fill="#474b4f"/><path d="m134.416076 117.291888-.399528-.673725-1.522458 4.179456-5.851064-2.363946 1.867612-5.129761 4.650119 1.865153-.508275-.858113-3.933806-1.576751 1.13948-3.1275-.030733-.052007-.775414.489337-.895981 2.479779-1.853428-.742279-.640661.397142 2.286052.914847-1.869977 5.129762-5.955083-2.389949.132388-.364047-1.078014.638265.172577.070918-1.699764 4.664065.595745 1.453827 5.539007 2.222108-1.536643 4.217279-1.631206-.654813.321513.78483 1.101655.442058-.432624 1.181973.34279.834473.654846-1.798963 2.803782 1.125238c.26714-.111105.531915-.222211.791963-.33568l-3.387707-1.359269 1.536643-4.219643 5.851064 2.347398-.635934 1.74932.775414-.354592.425531-1.167789 1.11584.446786.742316-.340408-1.654846-.664269 1.877069-5.153401 3.347517 1.326173.236407-.564983-3.361702-1.347449zm-10.423168 6.649779-5.955083-2.389949 1.877069-5.153402 5.955082 2.389949zm6.416075 2.571972-5.851063-2.345034 1.877068-5.155765 5.851064 2.349762z" fill="#1f1e21"/><path d="m68.7943262 87.7732993c-1.8001103-1.3949238-4.1727207-1.811569-6.3404255-1.1134183-5.5082742 1.8415136-6.8959811 13.2073639-6.3546099 15.975544.9456265 4.794082 7.1985815 7.730102 10.359338 6.921633 3.1607565-.80847 6.5153665-12.2074151 6.0236407-16.4152383 0-.042551-.0165485-.085102-.0236407-.127653 1.0236407-3.214966-.0945626-7.4984354-3.6643026-5.2408674z" fill="#f9b5ab"/><path d="m128.775414 110.159864s5.002364 17.370272 8.794326 19.325255 10.444444-.501156 10.444444-.501156l-17.182033-21.336973s-1.730496 1.094507-2.056737 2.512874z" fill="#1f1e21"/><path d="m69.8416076 88.7377891c-.0158884.0448506-.0246627.0919104-.0260048.1394728.0087691 1.3055717-.0702111 2.610257-.2364066 3.9052381-2.5697399-3.1322279-7.1111111-3.5222789-7.3286052-3.5459184-.2132614-.0164688-.4191095.0820811-.5400033.258527-.1208939.176446-.1384668.4039815-.0460993.5968963s.2806427.3219004.493904.3383692c.0520095 0 5.0945627.434966 7.0921986 3.9690647.0191712.0270148.0396855.0530509.0614657.0780102-.1985815 1.0968707-.4444444 2.1748299-.7281324 3.2055102-2.5768321-3.3331633-7.5910165-4.1298129-7.8274231-4.1652721-.2212541-.0553497-.4547669.019418-.6027182.1929824-.1479514.1735645-.1847973.4159596-.0951028.6256443.0896945.2096848.2904435.3504569.518152.3633461.0543735 0 5.5224586.8746598 7.5319148 4.4371258.0068764.0074045.0131977.0153058.0189126.0236395-.3356683 1.0385168-.742462 2.0526848-1.2174941 3.0353058-2.427896-3.0494895-7.3144208-4.0045235-7.534279-4.0470745-.2111499-.0396942-.427438.0362683-.5673909.199273-.1399528.1630048-.1823081.3882875-.1111111.5909864.0711971.2026989.2451299.3520192.4562798.3917134.0520095.0118197 5.1347518 1.0046767 7.1182033 4.0352547-.7210402 1.170153-1.4822695 1.931344-2.21513 2.068453-2.7872341.522432-5.3096927-2.087364-5.3356974-2.113368-.1437886-.170061-.3698947-.246577-.5874143-.198785-.2175195.047793-.3907202.212043-.4499682.426715-.0592479.214672.0051897.444501.1674061.597087.1087471.11347 2.4539007 2.555426 5.4373523 2.555426.329081 0 .6574719-.030106.9810874-.08983 3.4444445-.642994 6.4444445-9.4037759 6.711584-16.4837929-.193955-.2470315-.4006993-.4837495-.6193854-.7091837-.1580586-.238232-.3318079-.465674-.5200945-.6808163z" fill="#d68c81"/><path d="m173.562648 109.427041-9.56974.586258s2.070922 5.091939 4.470449 5.437075 10.248227-1.562568 12.056738-4.664064c1.567375-2.649983-2.366431-4.467858-6.957447-1.359269z" fill="#d68c81"/><path d="m0 46.739932c6.26713948 3.6806632 7.96453901 16.2568537 7.96453901 16.2568537s19.33806149-23.2139456 38.97399529-19.3205272l-.1300237-3.690119c-21.2056737-9.4226871-46.8085106 6.7537925-46.8085106 6.7537925z" fill="#b10d28"/><path d="m22.2009456 17.5593878c.6572104 5.5860034-7.4208038 11.7322619-7.4208038 11.7322619s22.106383-.0212756 29.9196218 12.4461734l2.8368794-2.5105102c-4.9432624-15.2356292-25.3356974-21.6679251-25.3356974-21.6679251z" fill="#b10d28"/><path d="m81.7966903.14183674c-21.2765957 1.52474489-37.6903073 14.45552716-35.5106383 45.04498296 2.1276596 29.7337075 19.858156 35.5868368 41.1347518 34.0668198 21.2765962-1.5200171 38.0165482-9.8434694 35.8959812-39.5771769-2.174941-30.59181974-20.243499-41.05464287-41.5200947-39.53462586z" fill="#1f1e21"/><path d="m72.1867612 5.33542517c28.9361698-3.2622449 43.5319148 13.65178573 43.5319148 13.65178573s-11.768321-22.65841838-43.5319148-13.65178573z" fill="#6d6e71"/><path d="m84.1985816 39.2864116c-34.5153665 2.4703231-33.2104019 6.8956292-32.8179669 12.4438095.3924349 5.5481803-.2695036 10.120051 34.2458628 7.6520918 33.0685575-2.3663095 33.2127655-6.9027211 32.8132385-12.4485374s-1.182033-10.0113095-34.2411344-7.6473639z" fill="#f9b5ab"/><path d="m84.1985816 39.2864116c-29 2.082636-32.711584 5.5316326-32.926714 9.8836564l66.8250594-4.7822619c-1.125296-4.2527381-6.120568-7.0894728-33.8983454-5.1013945z" fill="#d68c81"/><path d="m100.945626 43.1018197c-3.646492.254131-6.3967341 3.4157378-6.1432214 7.0620881.2535126 3.6463503 3.4148045 6.3969994 7.0613844 6.144131 3.64658-.2528684 6.397917-3.4135227 6.145667-7.0599606-.12119-1.7518898-.93362-3.3838201-2.25845-4.5365589-1.324831-1.1527389-3.053463-1.7317939-4.80538-1.6096996z" fill="#fff"/><path d="m105.134752 44.2388776c-2.261141-.7051143-4.724733.0118233-6.2543685 1.820103-1.5296353 1.8082796-1.8280901 4.3565341-.7576926 6.4693018s3.3016581 3.3795161 5.6645431 3.2159183c.160757-.0118197.316785-.0330953.472813-.0567347 2.140494-1.0199932 3.571897-3.1069227 3.752521-5.4710318.180625-2.3641092-.917121-4.644253-2.877816-5.9775566z" fill="#000"/><path d="m64.1276596 45.305017c-3.6469103.2528545-6.398379 3.4140018-6.1456798 7.0607377.2526993 3.6467359 3.413881 6.39821 7.0608146 6.1456918 3.6469336-.2525183 6.3986938-3.4134118 6.1463309-7.060171-.1212039-1.7514509-.9333018-3.3830036-2.2576116-4.5356751s-3.0523307-1.7320233-4.8038541-1.6105834z" fill="#fff"/><path d="m68.321513 46.4420748c-.705032-.2245076-1.4463599-.3127565-2.1843972-.260034-3.216093.2710349-5.6171157 3.0764654-5.3881315 6.2956626.2289841 3.2191972 3.0029313 5.6565654 6.225011 5.4696946.1607565 0 .3144208-.0330953.4728132-.0567347 2.1404942-1.0199932 3.5718964-3.1069227 3.752521-5.4710318.1806246-2.3641092-.9171208-4.644253-2.8778165-5.9775567z" fill="#000"/><path d="m93.9361702 46.827398-2.177305-1.0803232c4.4539008-8.9664455 16.4657208-7.6213605 16.9763598-7.5646258l-.290781 2.4135884c-.106383-.0118197-10.8226946-1.1890646-14.5082738 6.2313606z" fill="#1f1e21"/><path d="m73.0969267 48.3828741c-4.716312-6.8436224-15.1702128-4.122721-15.2765957-4.0967176l-.6312057-2.3450341c.4964539-.1347448 12.2293144-3.1771428 17.9101655 5.0635715z" fill="#1f1e21"/><path d="m83.9503546 30.449983c-24.5413711 1.7564116-39.4420804 7.9215816-39.4420804 7.9215816l.9905438 11.4580442s14.5484633-5.3874319 39.321513-7.1603911c24.77305-1.7729592 39.843972 1.4940136 39.843972 1.4940136l-.647755-11.4793197s-15.52955-3.9879762-40.0661934-2.2339286z" fill="#d82035"/><path d="m73.5224586 66.1904762c17.3711584 5.8389456 27.8794324-2.3639456 27.8794324-2.3639456s-12.9858153 4.519864-27.8794324 2.3639456z" fill="#6d6e71"/><path d="m95.4018913 69.7813095s-9.962175 4.2716497-16.0472814 4.2763776c9.3735225 1.5081973 16.0472814-4.2763776 16.0472814-4.2763776z" fill="#6d6e71"/><path d="m113.238771 68.1856463c-4.829788.6548129-6.574468 5.6120068 1.437352 8.0255952s49.995272 29.4240305 49.995272 29.4240305l6.411347-19.2874319s-53.004728-18.8193707-57.843971-18.1621938z" fill="#474b4f"/><path d="m150 96.3567857c8.274232 5.1604933 14.671395 9.2784863 14.671395 9.2784863l6.411347-19.2874319s-5.470449-1.9431632-13.052009-4.5553231c-6.34279 1.7256803-8.884161 7.5646259-8.030733 14.5642687z" fill="#1f1e21"/><path d="m169.073286 85.8112245c-3.437352.304949-8.690307 13.1789966-9.437352 18.1290985-.747045 4.950102 9.751773 12.578555 14.65721 9.380136 4.905438-3.198418 6.352246-10.935612 6.728133-16.2757651.375886-5.3401531-8.508275-11.5360544-11.947991-11.2334694z" fill="#f9b5ab"/><path d="m162.361702 105.141207c-.1903.274241-.122605.650773.1513.841565.250591.174932 5.981088 4.125085 13.092199 6.27864.331957-.308452.643119-.638551.931442-.98813-7.191489-2.051904-13.271868-6.240816-13.333333-6.283367-.131514-.092016-.294295-.127788-.452273-.099389s-.298106.118624-.389335.250681z" fill="#d68c81"/><path d="m164.92435 99.2431633c-.083624.1366166-.109435.3008962-.071733.4565726.037701.1556764.135814.2899477.272679.3731721.068557.042551 6.763593 4.094354 14.184397 6.023333.132387-.380595.257683-.765918.371158-1.153605-7.269503-1.874609-13.858156-5.862585-13.92435-5.9098639-.138135-.0829148-.303632-.1073311-.459828-.0678403-.156197.0394908-.290199.1396289-.372323.2782315z" fill="#d68c81"/><path d="m167.548463 93.4775c-.073704.1426267-.087713.3086939-.038941.4616508.048771.1529569.156325.2802672.298989.3539104 4.158063 2.0498092 8.525398 3.6444789 13.026004 4.7562585.047282-.4160544.085107-.8202891.120568-1.215068-4.348205-1.0891647-8.568768-2.6359388-12.591017-4.6144218-.296399-.1538293-.66139-.0385193-.815603.2576701z" fill="#d68c81"/><path d="m160.609929 64.3347789c3.13948 7.4369728 8.624114 12.1270408 14.971631 15.072517 13.680851-10.3020748 23.146572-19.5805612 23.146572-19.5805612l-25.257683-10.7985034s-5.652482 7.0280102-12.86052 15.3065476z" fill="#474b4f"/><path d="m192.390071 57.1176531-.593381-.2529422-.321513 5.0517517-8.073286.2553061.333334-8.167432 1.300236-.040187-1.874704-.8013776v.2505782l-8.957447.2694898.122931-4.2763775-.600473-.2553061-.141844 4.5718707-4.054373.1229252-.517731.6240816 4.553192-.1394728-.255319 8.1934354-7.825059.2434864.078014-4.214915-.62175.7328232-.063829 3.5033673-3.021277.0992857-.541371.6240817 3.546099-.1158334-.144208 7.8010204c.255319.3096769.513002.6122619.777778.9077551l7.513002-.3309524-.191489 6.2029932c.198581.1134694.394799.2363946.595745.3380443l.205673-6.5670409 8.789598-.390051-.115839 2.8130953.631206-.5082483.094562-2.3308504 2.903074-.127653.765957-.6429932-3.643026.1607483.321513-7.9310375 8.059102-.2647619-.26714 4.2078232.64539-.567347.236407-3.6593877 3.978723-.132381.678487-.6288095-4.617021.1512925zm-19.340426 14.0489285-7.706855.3404082.141844-8.1296088 7.801418-.2600341zm9.404256-.4160544-8.794327.3876871.250591-8.037415 8.867613-.2907653zm.349882-8.5480272-8.874705.2907653.255319-8.1910714 8.952719-.2718538z" fill="#1f1e21"/><path d="m162.267139 44.0544898c3.855792 7.0067347 30.796691 16.6445408 33.477542 16.8667517s4.089834-2.1086395 4.089834-2.1086395l-38.938534-34.1188265s-5.234042 7.3755102 1.371158 19.3607143z" fill="#231f20"/><path d="m160.895981 24.6937755s-.328605 6.0493367 5.63357 14.7462925 33.309692 19.372534 33.309692 19.372534-1.274231-4.7278911-13.070921-17.6823129c-16.82506-18.7437245-25.872341-16.4365136-25.872341-16.4365136z" fill="#9fa1a4"/><path d="m101.574468 108.280527c.236407.342772.496454.678453.749409 1.011769 2.021277-2.88165 12.191489-16.2686736 29.685579-21.0391157-.555555-.2505783-1.099291-.5106123-1.628841-.7871939-16.477542 4.9902891-26.307329 17.3419046-28.806147 20.8145406z" fill="#b10d28"/></g></svg>