<svg height="125" viewBox="0 0 125 125" width="125" xmlns="http://www.w3.org/2000/svg"><g fill="none" fill-rule="evenodd" transform="translate(0 -1)"><path d="m61.65 83.1c-1.64 11.84.68 25.35-.74 36.94-20.54-60.9-8.4-35.18-57.53-56.33 12.85-1.06 25.62 1.61 39.14-.65-11.52-2.73-25.35.43-37.81-1.06 63-21.23 34.45-8.78 56.84-57.06.72 12.64-1.81 25 .61 38.26 2.12-11.94 0-25.1.89-37.59 4.95 13.09 9.95 27.69 13.95 41.67-2.2 2.41-3.1 3.78-3.46 5.27 2.14-.93 2.76-3.49 4.66-4.31 13.27 4.86 29.36 7.51 42.12 14.26-12.16 1-26.18-2.41-38.43.89 11.88 1.47 25-.09 37.22.68-60.74 21.2-34.67 7.14-56.27 57.49-1.38-12.25 2-26.15-1-38.87-.0756292.1306254-.1392243.2678571-.19.41zm-11.92-33.93c-.63 1.26 1.27 2.83 3.11 5.23-8.37 11.83 2.52 24.16 14.94 17.75 2.21.61 2.86 3 5.66 3.83-.76-2.16-2.59-3.11-3.75-4.72 9.9-11.46-5.6-27.26-16.86-16.78-.3779239-2.0790392-1.4753416-3.9588095-3.1-5.31zm4.64 24.23c-1.7551462 1.245162-3.1964838 2.8816451-4.21 4.78 1.7427817-1.2588401 3.1813536-2.892183 4.21-4.78zm20.3-10.55c1.2.59 1.2.59 3.23.06-1.53-1.06-1.84-1.05-3.23-.06zm-26.54-.13c1-.48-.8-2-1.87-.45.4276258.5897958 1.2208685.7806831 1.87.45z" fill="#b0b0b0"/><path d="m65.5 53c12.44 7.81 1.46 25.57-11 16.18-8.15-6.45.88-20.36 11-16.18zm-6.79 4.39c-12.24 9.41 13.46 17.36 5.32 1-1.580155-1.0018639-3.4893352-1.3463776-5.32-.96z" fill="#808080"/><g fill-rule="nonzero"><path d="m52.83 26.88c1-3.59 4.55-13.56 5.13-15.42 9.11-29.41 2.47 41 4.09 40.37-2.968357-.7052921-6.0810424.3193808-8.05 2.65-.9.76-7.82-7.6-7.7-9 2.49-4.48 5.88-16.19 6.53-18.6z" fill="#dedede"/><path d="m71.36 99.38c-.85 3.61-4.1 13.7-4.61 15.57-8.27 30.05-3.75-42.32-5.16-41.55 2.3797254.1411649 4.7081633-.7306371 6.41-2.4.87-.79 9.44 8.12 9.36 9.55-2.42 4.54-5.42 16.39-6 18.83z" fill="#dedede"/><path d="m97.44 53.75c3.58 1 13.55 4.54 15.41 5.12 29.42 9.12-41 2.47-40.36 4.1.7136603-2.9856592-.3152205-6.1187173-2.66-8.1-.76-.9 7.6-7.81 9-7.69 4.44 2.52 16.17 5.91 18.61 6.57z" fill="#dedede"/><path d="m24.94 72.28c-3.62-.86-13.7-4.1-15.58-4.62-30-8.26 42.32-3.76 41.55-5.16-.1402842 2.3601626.7158328 4.6709528 2.36 6.37.79.87-8.12 9.44-9.54 9.37-4.5-2.39-16.36-5.39-18.79-5.96z" fill="#dedede"/><path d="m63.31 2.41c6.37 12.71 10.54 27.44 14.61 41.74 1.9 4.44 8.28 4.7 13.08 6.29 11.42 3.22 21.59 6.87 33.06 11.08.083022.6253579.007367 1.2615532-.22 1.85-65.22 28.48-35.91-.37-60.5 61.72l-1.7-.35c-28.09-65.95-.87-35.74-61.64-60.48.12-.55.25-1.15.36-1.68 13.29-7.7 29.75-11 44.85-16.26 6.27-14.17 9-30.42 15.41-45.3 1.1066467-.1905631 2.2052173.37709976 2.69 1.39zm-1 80.89c1.76 12.19-.45 25.45.52 38.26 21.62-58.71 3.25-36.35 56.27-57.49-11.49-.79-24.92.82-37.22-.68 11.67-3.22 25.68 0 38.43-.89-12.37-6.61-28-9.15-42.12-14.26-1.9.82-2.52 3.38-4.66 4.31.36-1.49 1.26-2.86 3.46-5.27-3.94-13.69-8.81-28-14-41.72-.87 12 1.26 25-.89 37.59-2.31-11.88 0-25.49-.61-38.26-23.23 59.11-1.02 35.04-56.78 57.11 11.91 1.58 25.36-1.68 37.81 1.11-12.43 2.23-25.93-.37-39.14.65 59.12 21.5 36.76 3.53 57.53 56.24 1.58-11-1.22-25.38.93-37.35.28.35.47.52.48.65z" fill="#000"/><path d="m52.83 54.48c3.79-5.14 18.73-4.72 20.21 6 .25 3.71.1 7.58-3.35 10.8 1.16 1.61 3 2.56 3.75 4.72-2.37-.47-3-2.77-5.66-3.83-12.32 6.5-23.38-6.3-15-17.72zm1.42.87c-8.75 11.49 4.87 22.11 15.21 12.95 6.13-10.46-6.1-20.37-15.21-12.95z" fill="#000"/><path d="m50.16 78.18c1.7427817-1.2588401 3.1813536-2.892183 4.21-4.78-1.7551462 1.245162-3.1964838 2.8816451-4.21 4.78z" fill="#000"/><path d="m52.83 54.48c-.3779239-2.0790392-1.4753416-3.9588095-3.1-5.31-.63 1.28 1.25 2.8 3.1 5.24z" fill="#000"/><path d="m77.9 62.91c-1.53-1.06-1.84-1-3.23-.06 1.2.59 1.2.59 3.23.06z" fill="#000"/><path d="m46.26 62.27c-.06.54 3.31 1 1.79-.62-.6678459-.1968406-1.3869855.0522468-1.79.62z" fill="#000"/><path d="m65.7 65.16c-4.56 6.77-13.93.17-8.51-7.1 4.03-2.59 11.44 1.02 8.51 7.1zm-8.56-2.83c-.07 3.88 6 5.21 7.27 1 1.11-4.79-7.53-6.61-7.27-1z" fill="#000"/></g></g></svg>