<svg height="113" viewBox="0 0 26 113" width="26" xmlns="http://www.w3.org/2000/svg"><g fill="none"><path d="m5.21 0h15.14v6.88h-15.14z" fill="#a26621"/><path d="m5.21 0h15.14v6.88h-15.14v-2.39c7.58 1.45 24.28-3.75 0-4.49z" fill="#a26621" opacity=".4"/><g fill="#5c3a0d"><path d="m5.21 6.88h15.14v33.6h-15.14z"/><path d="m.21 34.47h15.14v-33.59h-15.14v11.66c14.09-5.24 19.34 21.89 0 21.93z" opacity=".2" transform="translate(5 6)"/><g opacity=".5"><path d="m5.21 9.37h15.14v1.63h-15.14z"/><path d="m5.21 12.94h15.14v1.63h-15.14z"/><path d="m5.21 16.52h15.14v1.63h-15.14z"/><path d="m5.21 20.1h15.14v1.63h-15.14z"/><path d="m5.21 23.68h15.14v1.62h-15.14z"/><path d="m5.21 27.26h15.14v1.62h-15.14z"/><path d="m5.21 30.83h15.14v1.63h-15.14z"/><path d="m5.21 34.41h15.14v1.63h-15.14z"/></g></g><path d="m0 113v-80h25.12c-1.63 41.66 9.22 69.33-25.12 80z" fill="#eef1f3"/><path d="m2 34.7h2v71c-.74714074 1.466342-1.41477408 2.971855-2 4.51z" fill="#fff" opacity=".3"/><path d="m0 37.73c7.34-5.41 20.31-4.73 22.3 21.42 2.6 34-6.7 45-6.77 45.15 5.63-5.22 9.59-12.11 9.59-19.34v-51.96h-25.12z" fill="#d3d3d4" opacity=".4"/></g></svg>