<svg height="157" viewBox="0 0 131 157" width="131" xmlns="http://www.w3.org/2000/svg"><g fill="none"><path d="m130.539451 151.540414c-1.721799 7.082706-99.7914149 6.761033-106.13146.622688-7.3395486-7.852952 106.470767-7.79688 106.13146-.622688z" fill="#000102" opacity=".11"/><path d="m121.670316 60.1557895c-5.600767-42.8798872-72.7744921-42.6024812-83.0948081-4.0489474 27.3355305 6.4098496 54.9697291 7.7526128 83.0948081 4.0489474z" fill="#535659"/><path d="m36.9402257 73.8903383-.2483973.067876c-.5736794 28.4724807 15.6194583 35.6289657 37.9811287 37.1428947 35.0181039 2.01562 42.4049659-13.713891 45.9091419-33.0526316-19.688442 20.9353008-22.8732502 16.1957895-44.1171329 12.8787218-22.7135666 3.5354512-28.5095033.0324625-39.5247404-17.0368609z" fill="#535659"/><path d="m37.9012867 57.7240602c-3.0458239 15.1835526 3.0635666 10.2138533 12.7155756 14.3424812 30.0442438 8.9773308 47.2339278 4.1315789 66.7922577.7643421 6.41693.3836466 3.708216-6.6695489 4.616049-10.9988534-28.5302029 3.9781203-56.3773135 2.6412594-84.1238823-4.1079699z" fill="#c4374f"/><path d="m95.8103837 78.5442669c-11.6400301 1.489617-23.4544291.8556441-34.8672911-1.871015l4.9413318 3.7538346-.2513544.3541353c-9.0185489-4.891635-18.6218644-8.6230538-28.5804741-11.105094 17.6273364 29.2781391 26.6967946 17.6329887 41.9318285 18.9698496 23.9732956 6.3006579 28.4237476.436767 42.0146276-14.9504135-10.21386 1.7706767-20.339007 4.3263534-30.3458692 8.1421617l-.0946275-.230188z" fill="#f3d7bf"/><path d="m34.4148533 68.8586654c3.3001354-20.0676692-15.826456-5.8225752-7.3070203-42.7736466-1.3809707-9.4819737-14.3212867-11.6894173-22.2847856-11.9520677-1.97830699 4.4266918-1.77426636 9.6118233-2.89796839 14.9799248-.20404064 1.3280076.02661399 1.4253948 2.15869074 2.2664662 33.80568845 12.0022368 4.8762754 26.3447181 30.33108355 37.4793233z" fill="#c4374f"/><path d="m82.5536569 128.202895c-34.4739955-.082632-33.2556659-14.640545-42.561693-16.845038-20.4602483-4.444398-9.0931151 18.925583-10.0334763 27.233008 20.6228894 6.551503 22.4089842-2.251711 17.618465-17.857275l.3400677-.097387c2.6377427 1.873966 3.0901806 4.816241 3.6963883 7.631617 10.2582167-.844023 20.3597065-.802707 30.3310835 1.617218.1951693-.543008.3903386-1.074211.6091648-1.682143z" fill="#535659"/><path d="m75.3767494 116.483966c1.4282845 3.190169 6.7422122 8.679267 9.758465 4.231917.3578104-3.485281 4.1665689-9.641334 3.9773138-2.909812-5.1365011 19.961429-11.5090745 19.359399-3.1315801 23.570658 9.4361399 3.854173 9.4243115-3.125244 13.6263657-7.672932 5.4322122-7.126974 12.0768392-15.859361 6.5056432-24.739305-17.6184649 8.384155-27.512957 1.809042-30.7362076 7.519474z" fill="#535659"/><path d="m35.4084424 57.2518797.2276976-.1121429c-9.2439278-32.2233646 28.5331602-37.7567293 1.4401128-54.22402251-1.0409029 6.98531954-4.7609481 12.16750001-11.3730474 15.62327071 11.7397291 13.3331955-8.8033183 23.2165225 9.705237 38.7128947z" fill="#c4374f"/><path d="m76.7577201 121.769436c-8.2118962-13.536823-20.5696614-7.726053-31.2566592-15.859361 2.699842 16.266617 19.9989391 15.431448 31.2566592 15.859361z" fill="#535659"/><path d="m109.39535 121.949455c-2.244447 5.31203-6.434673 10.762763-9.167043 15.815094 2.6407 5.1025 4.568736 5.016917 9.028059 1.9625 16.021625-3.626936 7.845214-10.975244.138984-17.777594z" fill="#535659"/><path d="m39.5424831 100.403271.1005417-.141654c-3.2971783-3.9574629-3.0280812-10.8985155-5.2104289-15.2337223-7.1709932-1.9064285-15.989097-2.2044924-11.7012866 5.8078196 5.1660722 4.2230639 11.3493905 6.2239286 16.8111738 9.5675567z" fill="#535659"/><path d="m32.1970203 141.42985-.1153273.206579 2.0137923 3.311165c2.0699775-.336429 4.0009707-.227237 5.5386682 1.283741-3.1167946.18297-7.9220993-.047218-9.7229797 3.916146 27.5011287 3.461673 9.2320993-.197725 16.1694808-8.815019-4.7639052 1.295546-9.3355982 1.136185-13.8836343.097388z" fill="#37383a"/><path d="m108.945869 141.828252c8.170497 6.430507 2.291761 5.70453 5.124673 8.263158 16.468149 1.770676 20.404063-1.366372 3.548532-5.17923.473138-.522349.606208-.985676 2.268104-1.083063-.964018-1.664437-1.874808-3.246241-2.812212-4.86641-2.401174 1.67624-5.101016 1.510977-8.129097 2.865545z" fill="#37383a"/><path d="m91.9809255 150.507519c.7629345-3.246241 3.0399097.790902 5.7663657.312819-.3962528-.785-1.0675169-1.20406-1.0349887-2.493703 1.1207449-.483985 1.6885101 1.381128 3.2764785.404305l-2.4721444-2.360902c-5.7545373 4.311597-13.1029571-1.525733-16.7224605-5.565827-3.7762303 4.810338-5.8166366 6.262293 2.6850564 5.359248-.4701806 1.319154 1.5436117 4.105018 3.288307 4.769022.0147856-4.279135 2.4455305-2.490752 5.213386-.424962z" fill="#37383a"/><path d="m17.7426637 90.4727256c0-.067876-.026614-.1328008-.0384425-.2006767-7.96941307-1.7382143-6.6860271-6.7905451.3341535-9.1160339-1.8659368-1.3958834-3.7851016.6817106-6.0591196-1.0299436-.1448984 1.7706767-.5204515 2.7445489-2.88318287 2.9511278.37851016 1.0624061 3.54853277 3.8630264-1.77426636 3.6328384l-.07097066.3216729c1.92803612 1.2335715 7.18577879 1.9064286 3.60176069 5.1172557l.1478556.2951127z" fill="#37383a"/><path d="m84.0558691 123.705376c-7.2833635.05312-14.5371558-.18297-21.7199775-1.257181 4.3883522 1.41064 23.151219 5.586485 21.7199775 1.257181z" fill="#c4374f"/><path d="m20.0492099 84.0215602c-6.1567043.8853383-5.8964785 2.841936-1.0527313 5.6218984.3578103-1.9211842.7008352-3.7361278 1.0527313-5.6218984z" fill="#37383a"/><path d="m94.9528217 142.26797c-1.4548984 2.440583-4.731377 1.856259-7.4726185 1.69985 2.4159593 1.782481 11.4292325 4.807387 7.4726185-1.69985z" fill="#37383a"/><path d="m75.5275621 113.945996-3.0901806-.147556 1.6471106 1.490319z" fill="#f3d7bf"/><path d="m63.8114898 84.3343797c-.1271557 3.4292105-5.4854401 3.6800564-5.535711.0678759.106456-4.1315789 5.8935214-3.3200188 5.535711-.0678759z" fill="#000"/><path d="m92.9952144 85.449906c-.2010835-2.378609 4.2168398-3.5915225 5.2784425-1.201109 1.7890521 4.7129511-5.5090971 5.7015789-5.2784425 1.201109z" fill="#000"/><path d="m104.731986 77.0716541c-4.51255.8853384-9.1847851 3.5679136-14.0788032 4.7660715l-.0946275-.230188 5.2518284-3.0632707c-11.6400301 1.489617-23.4544291.8556441-34.8672911-1.871015l4.9413318 3.7538346-.2513544.3541353c-9.0185489-4.891635-18.6218644-8.6230538-28.5804741-11.105094 2.1172912 3.3259211 4.6130926 7.3158459 7.4134763 10.6240602-5.8787359-11.1552632 30.6356659 7.4870112 34.5715802 4.6450752 10.054176 1.5581954 40.0925056-14.6434963 36.4020316-4.9490414 1.756524-1.8356015 3.566275-4.0046804 5.559368-6.3006579-5.047788.9679699-10.923567 2.3638534-16.267066 3.3760902z" fill="#d5ae9a"/><g fill="#000"><path d="m44.5459142 43.9039286c-2.8605873 3.5836362-4.9004373 7.7487598-5.9763205 12.2029135 8.8921109 2.0867619 17.9005375 3.6447481 26.9777201 4.6657331-11.6037021-3.600376-18.6031829-13.1000564-21.0013996-16.8686466z" opacity=".2"/><path d="m28.7105869 33.0349248c-3.3829345 12.4567105-.7954627 16.9158647 6.6978555 24.2169549l.2276976-.1121429c-1.3306998-5.1939849-2.0699775-11.3825-.8871332-16.5263157-3.7377878-1.6290226-5.3494131-5.1438158-6.0384199-7.5784963z" opacity=".2"/><path d="m22.8436795 58.0516353c1.5613544 5.2795677 6.6948984 8.2631579 11.5711738 10.8070301.1034988-3.2226316 2.1379909-7.5165225-1.2449436-10.181391-2.7116704.5636654-6.4465011.8027068-10.3262302-.6256391z" opacity=".2"/><path d="m45.5542889 85.2108647c-3.2790028-3.4465389-6.1677644-7.2429241-8.6140632-11.3205264l-.2483973.067876c-.3400677 26.7313157 12.9876298 34.3481767 34.219684 36.8861467-16.3764785-4.801485-23.0299774-18.8075377-25.3572235-25.6334963z" opacity=".2"/><path d="m35.2812867 86.1050564c-.0975847-.4957895-.2690971-1.0210902-1.3218285-1.1804511-2.5342438 1.6437782-6.4760722 4.4945676-9.1197291 7.6021052l14.6938826 7.8765605.1005418-.141654c-2.4041309-3.8128576-3.9980135-9.2399817-4.3528668-14.1565606z" opacity=".2"/><path d="m37.0318962 67.5218045c9.1345146 4.2378196 20.371535 6.2888534 30.6770654 8.4461278-16.4001354-6.4364097-2.2355756-13.3184398-2.2355756-13.3184398-9.2834164-1.0746099-18.491593-2.7195427-27.5720993-4.9254323-.3075395 3.3642857-.6180361 6.581015-.8693905 9.7977443z" opacity=".2"/><path d="m46.3881941 139.476203c7.1295937-8.127406-9.7229797-24.494361-9.0487584-25.934511 3.6461173-4.178797 20.534176 10.299436 25.7446049 7.864755 6.8013544-1.57-13.5613092-14.233289-12.138939-13.091203l-.0946276-.056071c16.1132958 6.22688 38.3744244 4.550639 44.3270881 3.644643-9.4183973 2.183834-8.7826185 15.018289-11.8284425 19.477443-52.6927539-8.891748-22.565711 7.132876-36.9609255 8.094944z" opacity=".2"/><path d="m107.159774 140.990132c1.098744-.84 2.344038-1.469393 3.672732-1.85626-.224741-2.065789-4.181355-7.625714-5.529797-9.467218-1.265644 2.399267-3.601761 5.193985-5.151287 7.737857.730406 2.738647 3.832415 6.138346 7.008352 3.585621z" opacity=".2"/><path d="m108.304176 108.011278c2.339075 3.145902 2.611129 7.283384 1.984221 11.317575 4.553951 5.397613 13.082258 10.033835 8.445508 18.00188 4.068984 8.558271 5.24 5.863891 11.041851 9.511485 6.209932 8.224793-13.774221 6.843665-17.242912 5.607143-1.017246-.380696-1.984221-.932556-2.457359-2.136617.538194-10.396823-8.785575-3.075075-11.8136566-11.229041l-1.9960496 1.894624c7.3158912 6.622331 7.4933182 11.854681-3.0487811 10.140075-1.3720993 1.449004-2.7619413.218384-4.2641535-.395451-.3637246 1.434248-1.5317833 2.812425-3.3356207 1.617218-2.6229571-.808609-2.6909707-4.887067-5.665824-4.385376-10.908781.938459 2.4869301-10.482406 1.3011287-16.133816-9.6135666-2.656015-19.4844018-2.254661-29.3522799-1.941842-.2099548 10.919173-2.7146275 7.832294-5.3227991 16.204643 6.8664108 11.642199-18.9255079 7.968045-19.7801129 4.476861-.77772-3.671203 6.1774041-4.426692 3.5485328-8.60844-.7067495-2.039229-4.7077201-2.313684-3.3119639-5.140864 1.3602709-5.489098-2.9571106-11.586128-2.5017156-17.308365-.1537697-11.69532 10.5627991-14.056222 18.8160948-9.691504-1.04386-9.9157893-18.0856885-11.4798871-23.5179007-18.2733833-2.6791422 2.4110714-15.04282162 6.1206391-10.66334081-1.2335714-1.96056433-.8853384-7.56724605-4.5535902-1.09708804-5.3887594-1.33661399-3.1340978.56776524-2.6117481 1.79200903-4.456203.18629802-4.0135339 8.87133182-1.7293609 11.77225732.070827 4.3883522.8381203 8.8388036 0 13.3069978 1.9329888-.6357788-3.0544173.7777201-10.2935339-1.2449436-11.2674061-14.330158-5.657312-14.6879684-13.1797368-14.3774718-24.4796052-.2169324-2.2592842-1.1384417-4.3937687-2.6347855-6.1029323-6.334131-6.8230076-13.38979688-5.4802444-16.6840181-9.880376.52636569-24.20219924 7.14733634-22.07738721 24.1625508-13.6165037 10.559842-9.17505644 7.8156433-9.02454892 10.7934537-16.82250972 6.3193454-.09925724 13.1384425 6.80638185 14.2444018 11.70230292 1.4785553 15.3458646-16.9265011 21.7970301-12.218781 39.4152631 13.9486907-35.2866353 70.3614897-35.6820864 85.1115577-2.3402443 6.623928 16.7742105-1.93395 52.8546996-13.789007 58.9399246zm13.36614-47.8613908c-5.600767-42.8798872-72.7744921-42.6024812-83.0948081-4.0489474 27.3355305 6.4157519 54.9697291 7.7585151 83.0948081 4.0548497zm-84.7300903 13.7404511-.2483973.067876c-.5736794 28.4724807 15.6194583 35.6289657 37.9811287 37.1428947 35.0181039 2.01562 42.4049659-13.713891 45.9091419-33.0526316-19.688442 20.9353008-22.8732502 16.1957895-44.1171329 12.8787218-22.7135666 3.5354512-28.5095033.0324625-39.5247404-17.0368609zm.961061-16.1662781c-3.0458239 15.1835526 3.0635666 10.2138533 12.7155756 14.3424812 30.0442438 8.9773308 47.2339278 4.1315789 66.7922577.7643421 6.41693.3836466 3.708216-6.6695489 4.616049-10.9988534-28.5302029 3.9781203-56.3773135 2.6412594-84.1238823-4.1079699zm57.909097 20.8202067c-11.6400301 1.489617-23.4544291.8556441-34.8672911-1.871015l4.9413318 3.7538346-.2513544.3541353c-9.0185489-4.891635-18.6218644-8.6230538-28.5804741-11.105094 17.6273364 29.2781391 26.6967946 17.6329887 41.9318285 18.9698496 23.9732956 6.3006579 28.4237476.436767 42.0146276-14.9504135-10.21386 1.7706767-20.339007 4.3263534-30.3458692 8.1421617l-.0946275-.230188zm-61.3955304-9.6856015c3.3001354-20.0676692-15.826456-5.8225752-7.3070203-42.7736466-1.3809707-9.4819737-14.3212867-11.6894173-22.2847856-11.9520677-1.97830699 4.4266918-1.77426636 9.6118233-2.89796839 14.9799248-.20404064 1.3280076.02661399 1.4253948 2.15869074 2.2664662 33.80568845 12.0022368 4.8762754 26.3447181 30.33108355 37.4793233zm48.1388036 59.3442296c-34.4739955-.082632-33.2556659-14.640545-42.561693-16.845038-20.4602483-4.444398-9.0931151 18.925583-10.0334763 27.233008 20.6228894 6.551503 22.4089842-2.251711 17.618465-17.857275l.3400677-.097387c2.6377427 1.873966 3.0901806 4.816241 3.6963883 7.631617 10.2582167-.844023 20.3597065-.802707 30.3310835 1.617218.1951693-.543008.3903386-1.074211.6091648-1.682143zm-7.1769075-11.718929c1.4282845 3.190169 6.7422122 8.679267 9.758465 4.231917.3578104-3.485281 4.1665689-9.641334 3.9773138-2.909812-5.1365011 19.961429-11.5090745 19.359399-3.1315801 23.570658 9.4361399 3.854173 9.4243115-3.125244 13.6263657-7.672932 5.4322122-7.126974 12.0768392-15.859361 6.5056432-24.739305-17.6184649 8.384155-27.512957 1.809042-30.7362076 7.519474zm-39.968307-59.2320863.2276976-.1121429c-9.2439278-32.2233646 28.5331602-37.7567293 1.4401128-54.22402251-1.0409029 6.98531954-4.7609481 12.16750001-11.3730474 15.62327071 11.7397291 13.3331955-8.8033183 23.2165225 9.705237 38.7128947zm41.3492777 64.5116543c-8.2118962-13.536823-20.5696614-7.726053-31.2566592-15.859361 2.699842 16.272519 19.9989391 15.43735 31.2566592 15.865263zm32.6376299.180019c-2.244447 5.31203-6.434673 10.762763-9.167043 15.815094 2.6407 5.1025 4.568736 5.016917 9.028059 1.9625 16.021625-3.621034 7.845214-10.969342.138984-17.771692zm-69.8528669-21.543233.1005417-.141655c-3.2971783-3.957462-3.0280812-10.8985146-5.2104289-15.2337214-7.1709932-1.9064286-15.989097-2.2044925-11.7012866 5.8078196 5.1660722 4.226015 11.3493905 6.2268797 16.8111738 9.5705078zm-7.3454628 41.020676-.1153273.206579 2.0137923 3.311166c2.0699775-.336429 4.0009707-.227237 5.5386682 1.28374-3.1167946.18297-7.9220993-.047218-9.7229797 3.916147 27.5011287 3.461673 9.2320993-.197726 16.1694808-8.815019-4.7639052 1.304399-9.3355982 1.145038-13.8836343.106241zm76.7488487.398402c8.170497 6.430508 2.291761 5.704531 5.124673 8.263158 16.468149 1.770677 20.404063-1.366372 3.548532-5.179229.473138-.52235.606208-.985677 2.268104-1.083064-.964018-1.664436-1.874808-3.24624-2.812212-4.86641-2.401174 1.685094-5.101016 1.519831-8.129097 2.874399zm-16.9649435 8.688121c.7629345-3.246241 3.0399097.790902 5.7663657.312819-.3962528-.785-1.0675169-1.20406-1.0349887-2.493703 1.1207449-.483985 1.6885101 1.381128 3.2764785.404305l-2.4721444-2.360902c-5.7545373 4.311597-13.1029571-1.525733-16.7224605-5.565827-3.7762303 4.810338-5.8166366 6.262293 2.6850564 5.359248-.4701806 1.319154 1.5436117 4.105018 3.288307 4.769022.0147856-4.279135 2.4455305-2.490752 5.213386-.424962zm-74.2382618-60.0347934c0-.067876-.026614-.1328008-.0384425-.2006767-7.96941307-1.7382143-6.6860271-6.7905451.3341535-9.1160339-1.8659368-1.3958834-3.7851016.6817106-6.0591196-1.0299436-.1448984 1.7706767-.5204515 2.7445489-2.88318287 2.9511278.37851016 1.0624061 3.54853277 3.8630264-1.77426636 3.6328384l-.07097066.3216729c1.92803612 1.2335715 7.18577879 1.9064286 3.60176069 5.1172557l.1478556.2951127zm66.3132054 33.2326504c-7.2833635.05312-14.5371558-.18297-21.7199775-1.257181 4.3883522 1.41064 23.151219 5.586485 21.7199775 1.257181zm-64.0066592-39.6838158c-6.1567043.8853383-5.8964785 2.841936-1.0527313 5.6218984.3578103-1.9211842.7008352-3.7361278 1.0527313-5.6218984zm74.9036118 58.2464098c-1.4548984 2.440583-4.731377 1.856259-7.4726185 1.69985 2.4159593 1.782481 11.4292325 4.807387 7.4726185-1.69985zm-19.4252596-28.330827-3.0901806-.147557 1.6471106 1.49032z"/></g><path d="m83.0031377 31.2524436c12.8309029 1.6349248 28.6514443 7.7408083 32.4247183 21.9032707-5.086231-12.8698684-19.5405874-18.4888158-32.4247183-21.9032707z" fill="#fff"/><path d="m103.720655 112.638647c2.889097 2.818327 2.563815 8.263158-1.029075 11.955018 1.135531-3.222631 2.832912-7.844097 1.029075-11.955018z" fill="#fff"/><path d="m29.2310384 121.751729c-1.3395711-3.269849.4080812-8.55827 4.9442889-8.900601-2.9038826 1.702801-4.5509932 4.825094-4.9442889 8.900601z" fill="#fff"/><path d="m40.8081264 12.8728195c5.2045147 2.4376316 1.7535666 10.2640226-1.6530248 13.5427256 1.2774718-3.7921992 5.4972686-9.352124 1.6530248-13.5427256z" fill="#fff"/><path d="m10.8141535 18.5153759c6.0058916-.5134962 13.4932957 4.6332707 11.9555982 11.775-.3785102-6.2386842-5.7013093-10.3791165-11.9555982-11.775z" fill="#fff"/></g></svg>