<svg height="197" viewBox="0 0 139 197" width="139" xmlns="http://www.w3.org/2000/svg"><g fill="none"><path d="m14.14 120.19c18.73-6.74-4.77-19.38-2.26-2l.21-.37" fill="#fdcf9a"/><path d="m6.41 102.46c.65 3.52-2.19 27 7.68 19.89 1-2.33 1.21-20.68 1.22-20.79z" fill="#73716b"/><path d="m23.72 110.64c-7.35-8.9-25-2-7.14.86" fill="#fdcf9a"/><path d="m118.23 143c-.63 2.2-2.44 8.48 1.86 8.87.392315.561289 1.014338.918569 1.696843.974639.682504.05607 1.354497-.194903 1.833157-.684639.62.32 3 1.24 3.74-.6 7.83.34 1.38-14.72-6.92-13.42" fill="#fdcf9a"/><path d="m120.32 147.44c-1.16-1.67-1.57 5 .23 3.13-.128875-1.038839-.205638-2.083481-.23-3.13z" fill="#fab575"/><path d="m122.13 145c1.961233-1.194229 3.615428-2.831299 4.83-4.78-1.93-1.93-3.25-1.27-6.52-2.11l-2.21 4.89c-.344946 1.053077-.61561 2.12905-.81 3.22 1.633249-.103746 3.231765-.517799 4.71-1.22z" fill="#fab575"/><path d="m118.1 187.57c-4.71 7 9.68 9.07 14.3 5.62 5.22-6.36-11.93-7.84-14.3-5.62z" fill="#272423"/><path d="m51.24 196.83c3.35.1 11.43-3 8.24-8.17-10.33-4.35-29.62 8.67-8.24 8.17z" fill="#272423"/><path d="m54.41 115.86s-23.11-4.86-32.64-7.86c0 0-4.91 6.33-2.93 11.78 2.51 2.07 41.7 30.15 42.63 5.91z" fill="#34302f"/><path d="m21.19 117.83c-1-.47-1.87-1-2.78-1.53-.1006802 1.177289.0457838 2.362626.43 3.48.16.08 20.62 15.43 33 15.81 2.72-3.74 4.31-8.44 5.75-12.92-11.19 4.33-25.66.05-36.4-4.84z" fill="#272423"/><path d="m96.33 134.34s18.78 3.13 20.57 9.68c.31 1.16 9.26-2.53 9.73-4.22s-9.21-22.55-34.63-22.8 4.33 17.34 4.33 17.34z" fill="#34302f"/><path d="m117.39 135.24c-5.86-3.66-13.39-7.87-20.91-7.45l-6.31 2.45c3.24 2.37 6.16 4.1 6.16 4.1 26.38 4.78 16.38 13.74 27.52 7.62-1.724646-2.615897-3.914156-4.893529-6.46-6.72z" fill="#272423"/><path d="m42.78 151c-24.27 18 11.6 50 16.85 35.81-.54-5.64-1.14-13.52 1.19-13.47 6.92-2.38 27-2.73 41.81 5.3 12.51 7.36 11 13.14 23.5 8.63 1.84-.68.83-2.61.39-6.26-1.56-9.76-11.17-27.71-24.13-30.56-19.57-5.79-59.47.55-59.61.55z" fill="#34302f"/><path d="m52.23 113.86s-15.23 27.52-9.18 36.44c13.51 18 55.63 11.26 60.75-1.74 0-4.95-6.51-30.54-11.28-33.14-8.11-4.42-40.19-1.54-40.29-1.56z" fill="#34302f"/><path d="m93.89 116.53c-4.42-5.94-41.66-2.67-41.66-2.67-2.579125 4.777749-4.86015 9.710507-6.83 14.77 15.71 6.34 36.84 1.05 50.32-8.88-.508419-1.127967-1.1210797-2.205982-1.83-3.22z" fill="#272423"/><path d="m58.78 116.55s10.86 17.3 13.67 18.45 15.32-12.21 14.32-15.65-27.99-2.8-27.99-2.8z" fill="#ec1c24"/><path d="m86.77 119.39c-1-3.44-28-2.84-28-2.84s5.59 8.91 9.79 14.38c4.4679535-.466494 8.8771403-1.384516 13.16-2.74 3.05-3.44 5.51-7.19 5.05-8.8z" fill="#bc141a"/><path d="m80 129.27c-.93-1.08-2-2.08-3-3.08 1.76-1.71 3-4.1-.53-.53-1.9-2.29-4.43-3.85-.56.53-1 .9-2 1.79-3 2.68-1.4-1.23-2.76-2.47-4.07-3.77 1.6-1.13 3.37-4.37-.52-.52-1.1093266-1.115369-2.160708-2.286908-3.15-3.51-.0142277-.074761-.0677892-.135974-.14-.16 0-.24-1-.85-.29.1-.94.17-1.57 2.51.29.38.89 1.21 1.84 2.41 2.85 3.56-.61.13-1.11 1.7.46.51 1.2511208 1.393146 2.6085344 2.687035 4.06 3.87-.46 0-1.91 2.42.62.48 1.17.18 1.5.47.51-.39-.34.11 0 1.7 0 0 1.0264137-.801121 1.9923653-1.676828 2.89-2.62.41.09 2.77 3.71 3.58 2.47z" fill="#800000"/><path d="m82.78 126c-.68-.07-2.25-2.46-3.39-2.47.24.47 2.61 3.4 3.39 2.47z" fill="#800000"/><path d="m32.27 35.39s-21.44 11.94-10.61 50.14 71 44.46 101.1 21 13-74-25-83.57c-39-9.82-62.58-18.63-70.71-7.76-7.36 9.8 5.22 20.19 5.22 20.19z" fill="#34302f"/><path d="m47.31 57.89c-18.1 7.65-13.35 27-.92 31.82s53.72 8 64.64-.53 11.57-23 .56-27.44-48.12-10.67-64.28-3.85z" fill="#fdcf9a"/><path d="m126 48.1c-3-8.65-21.64-22.1-25-19.1 12.82 5.23 24.79 25.42 25 19.1z" fill="#45403f"/><path d="m127.5 52.22c-2.16-1.07 1.14 6.06 2.32 6.37 2.18-1.37-.65-4.93-2.32-6.37z" fill="#45403f"/><path d="m38.78 13.81c-2.4-1.37-11.18.26-9 3.84 2.16 0 3.55-2.45 6.2-2.87.81-.55 3.24.59 2.8-.97z" fill="#45403f"/><path d="m28.85 20.75c-1-2.08-2.1 3.62-.05 2.44.1359332-.8065086.1527793-1.6285997.05-2.44z" fill="#45403f"/><path d="m111.59 61.74c-90.83-25.74-86.33 25.93-59.26 29.69-33.6-42 49.7-38.63 66.85-21.09-.922559-3.960761-3.774608-7.1923325-7.59-8.6z" fill="#fab575"/><path d="m70.07 66.88c-2.84-3.52-15.07-5.76-15.94-1.11 1.7 2.55 5.6 1.11 8.9 2.8 2.58 1.24 9.06 3.19 7.04-1.69z" fill="#34302f"/><path d="m100.39 64.62c-3.28-1.9-16.88 2.29-12.39 6.38 2.67-.33 18.49-2.32 12.39-6.38z" fill="#34302f"/><path d="m67.59 78.49c.2-3.15-3.94-7.93-5.88-2.87-3.2 6.59 4.66 10.89 5.88 2.87z" fill="#34302f"/><path d="m96.71 80.25c.2-3.15-3.94-7.93-5.88-2.87-3.19 6.62 4.66 10.89 5.88 2.87z" fill="#34302f"/><path d="m65.82 75.39c-.5523145-.0966331-1.0855545.2494889-1.2221633.7932971s.1697508 1.1008442.7021633 1.2767029c.5523145.0966331 1.0855545-.2494889 1.2221633-.7932971s-.1697508-1.1008442-.7021633-1.2767029z" fill="#fff"/><path d="m94.67 76.69c-.5572754-.1104914-1.1037458.233799-1.2446617.7841687-.140916.5503698.1728572 1.1149158.7146617 1.2858313.5572754.1104914 1.1037458-.233799 1.2446617-.7841687.140916-.5503698-.1728572-1.1149158-.7146617-1.2858313z" fill="#fff"/><path d="m82.67 84.65c-.75-3.56-8-1.88-6 .81 1.35-1.08 4.06-2.45 4.14.82-10.81 5.23 4.5 4.72 1.86-1.63z" fill="#f7994d"/><path d="m42 147.31c-8.8 7.52 15.23 18.48 38.34 17.45 20.47-2.75 32-13.44 23-18.51-24.74 15.75-50.54 4.31-61.34 1.06z" fill="#ec1c24"/><path d="m94.85 175.11c17 5.59 16.57 15.38 26.56 13.39-7.41-24.08-90.59-38.15-67.41 1.32 18.59.56-19-28.08 40.85-14.71z" fill="#272423"/><path d="m2.56 97.61c-11.28 8.73 18.92 9.86 18.23 5.13.99-8.61-15.57-7.35-18.23-5.13z" fill="#878e8d"/><path d="m5.66 101c-.88-.5-3.51-1.61-2.27-3.83-14.07 8.41 20.44 11.93 17.38 3.81-4.8402834 1.982209-10.2644861 1.989388-15.11.02z" fill="#73716b"/><path d="m14.42 97.17c-.52-2.84-4.93-68.61 8.13-97.17 0 0-16.5 5-18.55 41.53s2.25 53.8 2.71 56.05 8.29 2.42 7.71-.41z" fill="#afc5cd"/><path d="m9.53 88.83c-1-1.24.12-6.24-.21-8.57-1.71-3.46-1.13-5.9.13-10.1-1.78-5.87-1.15-11.16-2.35-18.1 1.71-8 .07-13.8 4-21.91-.25-7.69 2.6-16.63 5.33-22.15-5.67 5.6-5.82 15.15-6.65 22.81-2 4.65-3.15 8.05-2.77 13.48-.25 3.37-2.54 5.12-1.16 8.85 2.2 4.64.56 6.28.66 10.82.65 3.13 2.19 6 .6 9.75-.59 2.9 1.38 6.42 1.22 9.76-.63 1.66-.95 7.24 1.2 5.36z" fill="#e7f3f4"/><path d="m6.06 107.52c3.62-1.77 13.26 2.62 9 7.25-.13 1.34 1.81 3.72 0 4.69-6.45 4.23-14.06-5.92-9-11.94z" fill="#fdcf9a"/><path d="m15.84 110.29c-.6452404.058551-1.2955906.021484-1.93-.11-6.76-4.18-4.11.49-.11.69-.02.13 3.1.46 2.04-.58z" fill="#fab575"/><path d="m14.64 113c.64-.32-1.17-3-1.15-1.33.77.61-.05 1.43-1.34 2-1.76-1.15-4.65 0 .07.45.29.16.23.22.93.07.71 3.1-1 2.06-4.57 2.1.42 1.11 2.52 1.24 4.79.92-1.34 2.88 1.05 3.18.43-.32.553658-.909047.3435667-2.088131-.49-2.75.5950194-.155318 1.085506-.575735 1.33-1.14z" fill="#fab575"/><g fill="#45403f"><path d="m118.31 129.24c-.19-1.25-10.68-7.84-6.31-3.8 1.63.35 5.5 6.12 6.31 3.8z"/><path d="m119.85 131c.47.57.58.93 0 0-.67-.79-1.12 1.79 0 0z"/><path d="m29.11 111.7c-1.13.2-5.69-3-6.2-1.34.83.21 6.43 3.74 6.2 1.34z"/><path d="m98.81 134.57c-2-.36.52 4.72.82 6.84 2.06.93.08-5.12-.82-6.84z"/><path d="m40.7 176.93c-2.13-3.45-2.86-8.2-3.72-12.16-2.41 1.23 1.78 15.81 3.72 12.16z"/><path d="m43.1 179.86c-.63-1.19-2.81-.1-.23.71.21-.04.39-.12.23-.71z"/><path d="m123.63 175.78c-.39-2.08-4.34-11.94-5.94-10.07 1.9 1.76 4.31 12.65 5.94 10.07z"/></g></g></svg>