<svg height="140" viewBox="0 0 164 140" width="164" xmlns="http://www.w3.org/2000/svg"><g fill="none"><path d="m80.91 128.69c-.14 1.17 12.84 8.71 10.77 10.55-7.2.91-30.84.19-19.87-12 0-.03 6.67-1.89 9.1 1.45z" fill="#3c2415"/><path d="m14.71 96.77c-.91.75-14.29-6-14.71-3.32 3.14 6.55 16.58 26 20.89 10.16 0 0-2.06-6.61-6.18-6.84z" fill="#3c2415"/><path d="m78.44 101s10.73 17.57 4.75 26.53c-4.22 5-11.91 1.95-12.84-2.18-4.54-24.73-20.74-18.11-37.44-16.89-5.6 1.15-22.65-4-17.57-12.45 11.66-7.7 55.91-4.38 63.1 4.99z" fill="#bd1e2d"/><path d="m34.37 105.17c7.17-1.1 16.5-1.7 16.5-1.7l6.81-6.47s13.52.58 20.51 3.75c1.0190638 1.596159 1.9149918 3.267667 2.68 5l-4.14 1.43 1.47 9.44-6.15.69c.5 8.65 2.1 11 10.62 10.87-13.16 7.62-11.17-6.63-16.57-14.18.4917778-2.459482.8257925-4.947891 1-7.45.09-1.54-2.64-1.88-2.64-1.88s-1.51.52-2.82 4.53c-14.57-7.78-36.19 7.44-46.85-8.07s12.41 5.14 19.58 4.04z" fill="#bd1e2d" opacity=".5"/><path d="m69.66 79c-7.48.24-45-10-28.48-19.08 3.91-.66 5 2.39 8.53 4.46 3.54 4.8 33.4 9.45 19.95 14.62z" fill="#bd1e2d"/><path d="m92.2 115c-1.56-1.15-1.08-1.12-1.52-1.64-2.42-3.89-15.19-24.42-24.54-39.47-5.94-10.89-14.14-18.3-8.25-20.19 3.81-.94 12.75 19.15 24.45 36.3 7.34 13.11 19.35 26 9.86 25z" fill="#b59458"/><path d="m58.67 74.3c1.8629467-.487848 3.401819-1.7984665 4.18-3.56 2.61 1.75 11.75.92 9.74 6.75-4.59 5.63-38.12-6.85-35.4-13.11 3.18 3.62 16.04 10.21 21.48 9.92z" fill="#bd1e2d" opacity=".5"/><path d="m94.42 83.75c6.465863 1.4101649 12.37634 4.6852649 17 9.42.85.83 2.18 2.56 3.44 4 8.22 9.42 23.51 11.09 34.54 4.69l-6.18-9.79c-6.14 4.59-16.22 5-22.48-.65l-.8-.74c-.84-.83-1.67-1.69-3.33-3.12-6.171479-5.1441745-13.752182-8.305415-21.75-9.07z" fill="#f6931e"/><g fill="#bd1e2d"><path d="m86.43 85.74c9 12 29.71 17.71 28.27-2.18-4.09-5.93-9.89-1.69-10.38 4.19-.93.43-1 .22-2.93-.22-3.89-.65-18.06-13.6-14.96-1.79z"/><path d="m91.74 90.82c-8.13-4.73-8-15.09 2.09-7.27-.2384845 1.4252625-.651594 2.8157287-1.23 4.14 4.41 6.46 14.93 9.26 20.24 5-5.02 7.51-15.38 3.52-21.1-1.87z" opacity=".5"/><path d="m78.44 101s11.47-8.8 12.92-15.87c-5.48-26.5-36.16-12-47.65 6.67 0 .03 20.29 9.65 34.73 9.2z"/><path d="m90.8 81.86c-11.38 23.14-31.35 9.34-44.09 5.45-1.1434383 1.4063846-2.1481192 2.9201038-3 4.52 0 0 20.29 9.62 34.73 9.17 0 0 11.47-8.8 12.92-15.87.0570847-1.1179788-.1341621-2.2347235-.56-3.27z" opacity=".5"/></g><path d="m72.05 70.86 4 15.92s8.14-3.13 14.51-5.49c-2.56-5.88-10.14-13.06-18.51-10.43z" fill="#fff8a1"/><path d="m91.12 82.88c-.2948888-1.0464967-.714569-2.0537293-1.25-3l-12.67 4.72-3.75-14c-1.0802872.1981921-2.1460246.4688025-3.19.81l3.84 14.4-23.22 8.69v.34c1.31.5 2.75 1 4.29 1.57z" fill="#890c1f"/><path d="m67 102.57c-38-8.83-26.8-17-20.07-12.29 5.07 2.36 15.59 6.72 26.83 8.06 4.1.93 8.06-.89 9.91 1.88 2.42 7.01-13.81 2.52-16.67 2.35z" fill="#890c1f"/><path d="m82.06 98.8c-21.91-9.17-17.38-35.61-15.23-30.24 0 .3-3.87 20.07 17.13 28.94.46.36.55 2.8-1.9 1.3z" fill="#3c2415"/><path d="m79.16 80.93c-20.5-11.38-8.1-20.54-3-11.91 1.6094134 1.9605883 3.5951125 3.579069 5.84 4.76 3.59 2.67 10.53 1.93 13.69 3.49 8.86 10.85-13.8 6.07-16.53 3.66z" fill="#f6931e"/><path d="m137.08 65.12c.38.21.22.15 1.31.77.47.28 1 .53 1.49.78 5.019964 2.3660896 10.56475 3.3992796 16.1 3 1.06 0 2.13-.24 3.17-.37s2.09-.45 3.12-.66l1.38 14.67c-1.5-.1-3-.13-4.45-.31-1.471313-.1652189-2.933221-.4055324-4.38-.72-7.106546-1.4627164-13.717977-4.7271102-19.2-9.48-.52-.49-1.05-1-1.55-1.47-.11-.1-.41-.41-1.14-1.21l-.42-.48z" fill="#603913"/><path d="m130.39 72.41.5.41.41.36c.26.24.53.47.77.71.981581.9354617 1.897111 1.9378662 2.74 3 3.963804 5.1953979 5.942567 11.6352434 5.58 18.16-.072285 1.4718097-.256146 2.9360128-.55 4.38-.28 1.44-.72 2.8-1.11 4.22l-13.42-6.08c.39-.72.91-1.45 1.28-2.2.391411-.7400855.725717-1.508989 1-2.3 1.254098-3.7389556 1.083163-7.8093545-.48-11.43-.365957-.8644833-.790269-1.7030839-1.27-2.51-.12-.21-.24-.38-.36-.58-.105898-.1438457-.202752-.2941356-.29-.45z" fill="#603913"/><path d="m155.14 37.43c-1.88-12.69-36.25-30.15-36.25-30.15s-36-22.5-59.95 11.59c-33 41.92 78.1 101.4 84.43 31 2.57-8.53 13.63-.07 11.77-12.44z" fill="#bd1e2d"/><path d="m79.29 67.41c35.23 19.35 57.83 8.47 62.44-23.41 2.34-7.77 12.26-1.21 12-10.43 6.62 16.67-7.67 7.57-10.32 16.28-8.41 63.2-85.69 21.7-90.57-9.93 4.09 10.46 14.09 20.37 26.45 27.49z" fill="#bd1e2d" opacity=".5"/><path d="m125.56 46.94c1.67-36.63-65.9-52.79-64.56-11.53 2.19 11.12 17 10.86 26.77 17.2 17.5 16.72 32.23 19.78 37.79-5.67z" fill="#fecea2"/><path d="m112.65 18.33c-14.65-8.43-27.06-12.68-36.14-14.83-3.2500609 1.50629085-6.2782584 3.4510666-9 5.78 28.62 3.5 65.67 28.64 75.23 44.23.25-1.24.45-2.46.59-3.65.397628-1.659114 1.537523-3.0424817 3.09-3.75-5.27-6.72-15.6-17.33-33.77-27.78z" fill="#603913"/><path d="m102.48 35.51 1.15-5.21 22.13 4.76-2.2 7.03z" fill="#0c0608"/><path d="m88.13 27.25-16.27-14.92 4.97-5.43 15.23 16.75z" fill="#0c0608"/><path d="m116.9 16.86c-4.9-1.46-19.85-15.86-22-6.26-2.73 4.83-4.43 6.38-2.13 8.69 5.8 2 19.75 15.79 22 6.25 2.42-4.81 4.54-5.66 2.13-8.68z" fill="#929497"/><path d="m93.9 17.25c-.51-.53 4.11-9.08 4.76-8.2l16.94 9.76c1.36-.79-3.79 9.06-4.62 8.27z" fill="#d0d2d3"/><path d="m112.4 63.09c-1 2.13-10.16-2.21-10.37-5.38-.54-3.82 11.85 2.48 10.37 5.38z" fill="#e5a876"/><path d="m63 34.63c-1.35 1.91 7 7.68 9.86 6.27 3.53-1.45-8.14-9-9.86-6.27z" fill="#e5a876"/><path d="m112.32 51.06c-6.77 10.89-15.86 5.65-11.15-4.87 6.57-13.04 17.59-6.69 11.15 4.87z" fill="#3c2415"/><path d="m112.56 46.68c-2.67 4.45-7.31 1.77-3.43-3.4 2.51-2.9 5.57-.83 3.43 3.4z" fill="#fff"/><path d="m82.1 33.66c-6.77 10.9-15.86 5.65-11.1-4.86 6.51-13.04 17.54-6.69 11.1 4.86z" fill="#3c2415"/><path d="m82.34 29.29c-2.67 4.45-7.32 1.77-3.43-3.4 2.51-2.89 5.57-.83 3.43 3.4z" fill="#fff"/><path d="m69.31 99.73c3.38 2.82 5.65 7.31 7 12.65l.44 2h-8.27l.35-1.67c.6926821-3.350883.5864821-6.817797-.31-10.12-.1643973-.516761-.3648907-1.021336-.6-1.51z" fill="#890c1f"/><path d="m65.38 98.64c-4.35.7-8.6 3.4-12.47 7.3l-1.43 1.53 7.08 4.22.55-1.6c1.1302264-3.230591 2.9959997-6.154206 5.45-8.54.4090026-.363823.8434385-.698004 1.3-1z" fill="#890c1f"/><path d="m106.51 78.35c.88-14 16.57-4.88 10.86 5.3-7.58 11.33-18.61-4.22-10.75-3.51z" fill="#3c2415"/><path d="m38.06 56.2c-5.66-7.6-14.07-1-10.93 6.62 9.71 12.63 23.42 2.84 13.24-8.3-1.65-.52-2.31 1.68-2.31 1.68z" fill="#3c2415"/><path d="m101.24 20.56c1.86 1.7 6.64 1.44 7.15-2.78.060201-1.031431-.304415-2.0425523-1.00904-2.7981827s-1.687842-1.1899062-2.72096-1.2018173c-3.71-.64-4.17 8.4 1.32 4.48 0-.56.93-1.57-1.19-2.48-.360821-.0466639-.724451.0624251-1 .3 0 .18-.9.52 0 1.63-.204559-.1925688-.304878-.4712338-.27-.75.13-.1 0-.67 1.11-.72.224095.0541187.420103.1895419.55.38.220627.3807932.215111.8518052-.014375 1.2273266-.229485.3755214-.646116.5952967-1.085625.5726734-2.33-.21-1.47-4.64 1.85-3.11.817085.5570921 1.307133 1.4810758 1.31 2.47-.166222 1.5338229-1.252548 2.810454-2.74 3.22-1.101963.2923373-2.274968.1340176-3.26-.44z" fill="#414042"/></g></svg>