<svg height="76" viewBox="0 0 76 76" width="76" xmlns="http://www.w3.org/2000/svg"><g fill="none"><g fill="#68677c"><path d="m47.57 25.28s0-20.41-10-25.28c-10.1 4.87-10.0000191 25.28-10.0000191 25.28 5.3100191 1.64 4.9000191 4.26 4.9000191 4.26h10.2s-.41-2.62 4.9-4.26z"/><path d="m49.77 47.57s20.41 0 25.28-10c-4.87-10.1-25.28-10.0000191-25.28-10.0000191-1.64 5.3100191-4.27 4.9000191-4.27 4.9000191v10.2s2.63-.41 4.27 4.9z"/><path d="m27.4799917 49.77s-.0599917 20.41 10 25.28c10.1000083-4.87 10.0000274-25.28 10.0000274-25.28-5.3100191-1.64-4.9000191-4.27-4.9000191-4.27h-10.2s.41 2.63-4.9000083 4.27z"/><path d="m26 27.4799917s-21.13-.0599917-26 10c4.87 10.1000083 26 10.0000274 26 10.0000274 1.64-5.3100191 3.54-4.9000191 3.54-4.9000191v-10.2s-1.9.41-3.54-4.9000083z"/></g><path d="m51.65 29.77s-.65 2.61-6.15 2.61l-2.14-.7-.7-2.14c0-5.45 2.61-6.14 2.61-6.14 0-9.24-7.75-18.12-7.75-18.12s-7.75 8.79-7.75 18.12c0 0 2.61.69 2.61 6.14l-.7 2.14-2.14.7c-5.45 0-6.14-2.61-6.14-2.61-9.24 0-18.12 7.75-18.12 7.75s8.79 7.75 18.12 7.75c0 0 .69-2.6 6.14-2.6l2.14.7.7 2.13c0 5.46-2.61 6.15-2.61 6.15 0 9.24 7.75 18.11 7.75 18.11s7.75-8.76 7.75-18.11c0 0-2.6-.69-2.6-6.15l.7-2.14 2.13-.7c5.46 0 6.15 2.61 6.15 2.61 9.24 0 18.11-7.75 18.11-7.75s-8.76-7.75-18.11-7.75z" fill="#32313f"/><path d="m42 37.52c-.14 5.58-8.5 5.83-8.85 0 .09-5.58 8.45-5.83 8.85 0z" fill="#68677c"/><path d="m30.62 17.79 14 6c.1932672-.1605332.4132936-.285779.6500296-.37.0018789-1.0492301-.088469-2.0965963-.2700296-3.13l-13.24-5.66c-.4411188 1.0302715-.8217653 2.0853969-1.14 3.16z" fill="#fff" opacity=".5"/><path d="m66.7 39.82-18.22-7.82c-.9816977.2391833-1.9896738.3534206-3 .34l-2.14-.7-.69-2.12-11.4-4.84c.4880781.78952.808077 1.6712191.94 2.59l32.45 13.86c.75-.45 1.44-.89 2.06-1.31z" fill="#fff" opacity=".5"/><path d="m7.78 35.62 17.82 7.7c1.2586881-.4703709 2.5969246-.691146 3.94-.65l2.14.7.7 2.13v.74l12.91 5.58v-.17s-2.07-.56-2.51-4.57l-31.56-13.62c-1.1837814.6591267-2.33203749 1.3801247-3.44 2.16z" fill="#fff" opacity=".5"/><path d="m43.37 60.23c.26-.61.5-1.24.71-1.89l-14.29-6.19c.0198891.7671018.0900395 1.532075.21 2.29z" fill="#fff" opacity=".5"/></g></svg>