<svg height="102" viewBox="0 0 56 102" width="56" xmlns="http://www.w3.org/2000/svg"><g fill="none"><path d="m34.69 76.56c-11-20.9-20.45-48.79-32.2-71.45.72 16.25 2.3 33.48 1.35 50.31 11.38.92 29.65 18.38 28.73 25.58-11.5 14.68 2.26 23.65 15.64 16.46 8.33-4.35 7.26-15.89-.75-18.3-2.33-1.59-5.9 1-7.13-1.52-5.62-12-5.33-28.49-1.13-41.35-11.53-11.79-23.99-22.29-36.77-32.59 11.64 23.45 23.25 47.92 32.26 72.86zm1.46 8c7-8.07 16.31 1.76 10.62 9.17-8.16 9.27-19.63-1.12-10.62-9.15z" fill="#fff"/><path d="m41.45 78.74c-.3017188.0379499-.6043122-.0634531-.8222394-.275543-.2179273-.2120899-.3275065-.5118192-.2977606-.814457-5.62-12-5.33-28.49-1.13-41.35-11.53-11.8-23.99-22.3-36.77-32.6 11.57 23.53 23.57 48.09 32.21 73.11.13.84.22 3.42-1.61 4.06-.0320839.0890694-.1043286.1577684-.1948986.1853332s-.1888373.0107607-.2651014-.0453332c-12 15.37 3.54 24 16.54 15.88 10.38-7.43 3.09-20.16-7.66-18.15zm4 16.4c-9.31 6.54-17.18-3.46-9.26-10.56 7.99-8.89 17.25 3.87 9.22 10.56z" fill="#939ba3"/><path d="m38.38 38.46c.1799967-.7538112.4520396-1.4826177.81-2.17-11.52-11.79-23.98-22.29-36.76-32.59 3.04666667 5.9 5.97666667 11.86 8.79 17.88 8.3293879 6.7155979 17.4507778 12.3845619 27.16 16.88z" fill="#c4c5c6"/><path d="m41.45 78.74c-.3017188.0379499-.6043122-.0634531-.8222394-.275543-.2179273-.2120899-.3275065-.5118192-.2977606-.814457-5.39-11.14-4.95-25.65-2.25-38.14-9.2006073-4.2533091-17.8810668-9.5515099-25.87-15.79 7 16.84 18.35 36.82 21.91 53.08-8-17.76-15-36.47-23.58-54.38l-.37-.29c.18 11.29-3.78 22-6.28 32.88 0 .14 0 .28-.05.41 11.38.92 29.65 18.38 28.73 25.58-12 15.37 3.54 24 16.54 15.88 10.38-7.42 3.09-20.15-7.66-18.14zm4 16.4c-9.31 6.54-17.18-3.46-9.26-10.56 7.99-8.89 17.25 3.87 9.22 10.56z" fill="#c4c5c6"/><path d="m12.21 23.72c7.56 17 16.62 35.06 22.43 53.09.13.84.22 3.42-1.61 4.06-.0320839.0890694-.1043286.1577684-.1948986.1853332s-.1888373.0107607-.2651014-.0453332c-11.5 14.68 2.26 23.65 15.64 16.46 8.33-4.35 7.26-15.89-.75-18.3-2.33-1.59-5.9 1-7.13-1.52-5.39-11.14-4.95-25.65-2.25-38.14m7.33 55.63c-9.31 6.54-17.18-3.46-9.26-10.56 8.03-8.89 17.29 3.87 9.26 10.56z" fill="#939ba3"/><g fill="#000"><path d="m56 86.63c-.92-7-8.22-12-15.07-9.67-3.0162783-13.3025664-3.0981774-27.1025704-.24-40.44-8.76-13.81-26.69-26.2-40.69-36.52 2.52 18-.13 39.34 3.29 56.33 10.89 5 21.82 12.73 28.57 23.86-22.04 23.38 24.71 31.32 24.14 6.44zm-2 2.37c-5 19.38-37.43 11.36-21.42-8-.29-10.51-20.8-25.47-28.74-25.58.95-16.32-.59-33.42-1.35-50.31 68.51 154.82 6.2 7.26-.06-1.41 12.78 10.3 25.24 20.8 36.76 32.59-4.19 12.71-4.5 29.02 1.13 41.35 5.88 2.29 14.21 1.16 13.68 11.36z"/><path d="m45.51 82.67c-3.43-2.29-7.12-.9-9.36 1.91-14.3 19.67 23.55 13.42 9.36-1.91zm-1.98 11.33c-5 3.25-11.35-.62-7.73-6.37 6.93-9.35 15.2.2 7.73 6.37z"/></g></g></svg>