<svg height="161" viewBox="0 0 121 161" width="121" xmlns="http://www.w3.org/2000/svg"><g fill="none" fill-rule="evenodd"><g fill="#1d1819"><path d="m44.8325862 95.8821212c-.5354598 0-7.0027011 9.0048488-14.4087356 12.6499998-7.4060345 3.645152-10.0416092 5.847576-10.0416092 5.847576l10.7717816 5.345758s17.9135632-8.642425 21.2306322-12.859091c3.3170689-4.216667-7.552069-10.9842428-7.552069-10.9842428z"/><path d="m69.5402299 155.793636c17.7744827 0 32.1832181 1.066364 32.1832181 2.390606 0 1.324243-14.4435055 2.397576-32.1832181 2.397576-17.7397127 0-32.2249425-1.073333-32.2249425-2.369697 0-1.296363 14.4087356-2.390606 32.1901724-2.390606z"/><path d="m101.028046 77.3636364s11.446322 7.8130303 16.223736 18.4975757c4.777413 10.6845459 2.983275 16.9015149 2.983275 16.9015149-4.979854-4.70764-9.523233-9.858455-13.574252-15.3890906-6.328161-8.7609091-7.9762648-14.6363637-7.9762648-14.6363637l2.3435058-5.4015151z"/><path d="m95.59 86.02s.6954023 10.9912121 5.132069 18.246667c4.436667 7.255454 8.261379 10.11303 8.261379 10.11303s1.884541-12.169091-2.872011-23.8363637-8.4560922-12.2109091-8.4560922-12.2109091l-2.0862069 7.6666667z"/><path d="m42.7046552 94.0909091c4.6687581-1.0386986 9.4008224-1.7674539 14.1653448-2.1815152 8.7898851-.8572727 12.6354598 0 12.6354598 0s3.8386207-.8572727 12.6285057 0c4.7645224.4140613 9.4965867 1.1428166 14.1653448 2.1815152l-7.2530459 19.8287879-2.8998276 9.876061-3.2475288.752727c-3.2405747.759697-13.3934482.954848-13.3934482.954848s-10.1598276-.195151-13.4004023-.954848l-3.2544828-.731818-2.9067816-9.876061z"/><path d="m53.1843678 123.816667-8.1501149 28.819697s-3.4352874 2.369697-3.7482184 3.366363c-.3129311.996667-.8831609 2.230303 0 2.613637.8831609.383333 2.2948276.899091 6.8218965.696969 2.6649707-.090523 5.2478046-.946956 7.4408046-2.467272l2.7816092-.522728v-3.415151s4.5827012-12.956667 7.2878161-14.566667c1.1980055-.693072 2.5020767-1.182907 3.8594828-1.449697 1.3551791.266909 2.6569431.756759 3.8525287 1.449697 2.705115 1.61 7.2878161 14.566667 7.2878161 14.566667v3.415151l2.7816092.522728c2.193 1.520316 4.775834 2.376749 7.4408046 2.467272 4.534023.188182 5.9387356-.334545 6.8218966-.696969.8831609-.362425.312931-1.61697 0-2.613637-.3129311-.996666-3.7482184-3.366363-3.7482184-3.366363l-8.150115-28.847576c.1182184-.362424-11.5575862-.146364-16.3141379-.048788-4.7565517-.097576-16.4393104-.313636-16.321092.048788z"/><path d="m54.144023 122.067273c3.1849425.627272 6.5089655 1.129091 9.7356322 1.463636 1.8466503.211965 3.7045744.309726 5.5632184.292727h.0973563c1.858644.016999 3.716568-.080762 5.5632184-.292727 3.2266666-.334545 6.5506896-.836364 9.7356322-1.463636l1.3908046-.271818 1.7871839 4.397878-1.4812069.69697c-1.5155236.675451-3.0661916 1.268732-4.6452874 1.777273-3.3237467 1.14034-6.768065 1.891097-10.2641379 2.237272-.6397701.055758-1.2795402.097576-1.9262644.111516h-.4102873c-.6397702 0-1.2864943-.055758-1.9262644-.111516-3.4967875-.353691-6.9410408-1.111451-10.2641379-2.258181-1.5771595-.515614-3.125507-1.115875-4.6383334-1.798182l-1.4812069-.69697 1.7871839-4.397879 1.3908046.271819z"/></g><path d="m53.8102299 123.73303s9.8051724 1.937576 15.6952299 1.791212c5.8831034.146364 15.6882758-1.791212 15.6882758-1.791212l.6467242 1.589091s-8.3448276 3.805455-16.1750575 3.993637h-.3268391c-7.858046-.188182-16.1750575-3.993637-16.1750575-3.993637z" fill="#fff000"/><path d="m93.3021264 95.3384848s5.7718391 4.5442425 8.9011496 15.3333332c3.12931 10.789091.792758 19.055152.792758 19.055152s-1.390804 6.126363-2.66339 6.391212c-1.2725865.264848-4.5062072-1.289394-4.5062072-1.289394s-1.5437931 1.282424-2.2391954 1.13606c-.6954023-.146363-1.815-.968787-1.4881609-2.090909.2120888-.98106.0135204-2.00637-.5493679-2.836666-.4102873-.808485-1.1891379-.836364-1.1474137-1.512425.0417241-.67606 1.3908045-3.484848 1.7106896-3.408181.3198851.076666 2.3017816-.822425 2.3017816-.822425s.5076437-10.363939-9.1932184-18.316363c-2.5590804-2.090909.4937357-8.2172729 2.3643678-9.9039396 1.5437447-1.4165621 3.6513401-2.0435845 5.7162069-1.7006061z" fill="#1d1819"/><path d="m80.2911494 90.5990909-13.1570115 24.1012121 2.3713219-7.687576-9.380977-16.4136361z" fill="#fff000"/><path d="m20.9594253 34.8833333c-4.0055173 13.409697-2.9763219 31.9769697 2.9345977 41.5254546 9.6243678 15.5354545 31.8911494 21.9754545 38.6921839 23.7596971 2.2952464.401858 4.6248805.572305 6.954023.508788 2.3291286.062911 4.6587024-.107532 6.954023-.508788 6.7662643-1.7842426 29.0400001-8.2242426 38.6574141-23.7596971 5.910919-9.5484849 6.954023-28.1157576 2.934597-41.5254546-4.47839-15.0057575-9.464425-25.70424239-26.5156893-30.81303027-8.1222988-2.41848485-16.4671264-4.07030303-22.0303448-4.07030303s-13.908046 1.65181818-22.0303448 4.07030303c-17.0860345 5.10878788-22.072069 15.80727277-26.5504598 30.81303027z" fill="#1d1819"/><path d="m25.2152874 36.1587879c-3.1293104 10.4893939-3.4005173 28.4433333 2.4617241 37.9012121 1.387344 2.213617 3.0383108 4.249796 4.9164942 6.0636364-1.1875501-1.3016493-2.2645325-2.7004525-3.2197126-4.1818182-6.043046-9.4578788-5.7301149-27.4048485-2.5312644-37.8942424 4.3671265-14.169394 8.7203449-23.3066667 24.2695403-27.8160606 6.3281609-1.86787884 14.7842528-3.88909096 21.3975287-3.88909096s15.111092 2.02121212 21.4044828 3.88909096c1.5045657.4304782 2.9855001.9399698 4.4366666 1.5263636-2.5536804-1.4504255-5.2710935-2.5899126-8.0944827-3.39424244-6.1125862-1.86090909-14.3391954-3.91-20.7160345-3.91s-14.6521265 2.04909091-20.7925288 3.91c-15.0693678 4.48848484-19.2974137 13.62575754-23.5324137 27.79515154z" fill="#fefefe"/><path d="m30.7576437 63.6054545s-2.6772989-13.57 7.2113218-15.6190909 20.9316092 6.969697 27.0789655 8.8375758c1.9679885.5993939 3.4074713 1.0106061 4.4575288 1.2824242 1.0431034-.2718181 2.4825862-.6969697 4.4505747-1.2824242 6.1473563-1.8748485 17.1903448-10.8936364 27.0789655-8.8375758 9.888621 2.0560606 7.218276 15.6190909 7.218276 15.6190909s-2.31569 7.9454546-13.27523 11.5209091c-8.3448276 2.7112122-20.2153449.4809091-25.4725862-.7457575-5.2572414 1.2266666-17.1625288 3.4848484-25.4795403.7457575-10.9525862-3.5754545-13.2682758-11.5209091-13.2682758-11.5209091z" fill="#fbd7a3"/><path d="m2.00971264 116.728485c-.42241627.328271-.61974911.870128-.50764367 1.393939.17167903.483731.51943552.884552.97356321 1.122121l36.69637932 9.757576 21.6756896-9.820303s0-.306666-.1529885-1.170909c-.1529885-.864242-1.1126436-1.073333-1.1126436-1.073333l-33.1567816-6.45394-24.44339085 6.272728z" fill="#1d1819"/><path d="m40.7088506 124.060606 4.534023-1.735454-3.7412644-.836364c-1.5785632.759697-2.9485058 1.393939-3.7273563 1.812121zm5.7927011-2.216364 4.221092-1.616969-4.4922989-1.045455-3.7134482 1.770303 3.9846551.850303zm5.5284483-2.090909 4.1724138-1.59606-5.438046-1.066364c-.7649425.320606-2.0236207.892121-3.4770115 1.568182l4.7287357 1.010606zm-2.3574138-2.787878-4.4714368-.850303c-.6954023.369393-1.6272414.92-2.6912069 1.554242l4.0402874.857273c1.3073563-.655152 2.426954-1.226667 3.1223563-1.603031zm-8.0110345 1.247575c-1.0431034.620303-2.1487931 1.296364-3.1918965 1.930606l3.4074712.731819 3.6508621-1.798182zm-3.9985632 2.362728-3.0110919 1.860909 2.5173563.655151 3.7064942-1.791212-3.2127586-.69697zm6.5159195-4.669697-2.7816091-.501819c-.6954023.390303-1.5716092.899091-2.5243104 1.463637l2.8928736.620303c.9735632-.620303 1.828908-1.177879 2.42-1.582121zm-6.1056321 1.435757-3.2336207 1.965455 2.9902299.641212c1.0291954-.641212 2.120977-1.317273 3.1293103-1.958485zm-3.9985633 2.453334-2.8650574 1.763333 2.8650574.738788 2.997184-1.84-2.9554598-.69697zm6.3559771-4.544243-6.8497127-1.240606-1.2864942 1.477576 5.8344252 1.247576c.883161-.557576 1.6759196-1.073334 2.3017817-1.484546zm-8.5534483.69697-1.9749425 2.327879 4.2975862.90606 3.1849425-1.986363-5.5006322-1.233637zm-2.42 2.787879-1.6411494 1.930606 2.7816091.738788 2.8441955-1.749394-3.9916092-.899091z" fill="#8b8b8c"/><path d="m2.13488506 88.0969697s33.60183904 5.3039394 34.95787354 5.680303c1.3461117.2928877 2.3310064 1.4511781 2.406092 2.829697.1668965 1.4427273.7997126 28.6872723.7928155 28.8824243 0 .404242-.5494247.578485-.5494247.578485l-37.73252876-9.339394s-2.07925287-26.2269698-2.00971264-26.9100002c.06954023-.6830303 2.13488506-1.7215151 2.13488506-1.7215151z" fill="#1d1819"/><path d="m1.75241379 91.2124242s.4520115-.9478787 1.24477012-1.0663636c.79275862-.1184848 32.92034479 5.3178788 33.37931039 5.5757576.4589655.2578788 1.1335057.5993939 1.2586781 2.3487879.1251724 1.7493939.8692529 26.9796969.8692529 26.9796969s-34.77011496-8.949091-34.71448277-8.767879c.05563218.181212-2.03752874-25.0560604-2.03752874-25.0560604z" fill="#332c2b"/><path d="m2.6008046 90.9127273c.09345118-.1491929.24460156-.2527118.41724138-.2857576.7579885-.1115152 31.47390802 6.4539394 31.90505742 6.6839394.4311495.23 1.0778736.5715151 1.196092 2.2372727.1182184 1.6657572 1.8706322 24.3590912 1.8706322 24.3590912s-.6954023-23.9827275-.8275287-25.6484851c-.1321265-1.6657576-.7649426-2.0072727-1.196092-2.2372727s-32.19017242-5.5060607-32.94816092-5.4154546c-.166242.0475482-.31263443.1478085-.41724138.2857576z" fill="#8b8b8c"/><path d="m12.2182184 124.137273c-1.1024093-.177296-2.0604744-.856918-2.59385058-1.84-.6954023-1.575152-2.03752874-6.091515-1.08482759-6.335455 1.38862163-.248031 2.80110767.287194 3.67867817 1.39394 1.2447701 1.393939 1.7385057 4.181818 1.7385057 4.181818s-.2712069-4.181818 1.515977-4.397879c1.787184-.216061 2.7816092.487879 2.9206897 1.679697s.7579885 4.265454.7579885 4.265454-.1877586-4.265454 1.4672989-4.265454c1.6550574 0 2.2113793 0 2.3782758 1.191818.1668966 1.191818.6954023 5.575758 0 6.189091s-2.6494827.69697-3.0875862.355455c-.2849938-.231771-.582121-.448139-.8901149-.648182-.7154493.353878-1.5385687.421172-2.3017816.188182-1.0150224-.401903-1.9171933-1.045371-2.6286207-1.874849z" fill="#1d1819"/><path d="m51.3206897 60.6712121c2.9067816 0 5.2572413 2.9342424 5.2572413 6.5515152 0 3.6172727-2.3504597 6.5445454-5.2572413 6.5445454-2.9067817 0-5.2641954-2.9272727-5.2641954-6.5445454 0-3.6172728 2.3574137-6.5515152 5.2641954-6.5515152z" fill="#1d1819"/><path d="m89.0879885 60.6712121c2.9067816 0 5.2641954 2.9342424 5.2641954 6.5515152 0 3.6172727-2.3574138 6.5445454-5.2641954 6.5445454s-5.2572414-2.9272727-5.2572414-6.5445454c0-3.6172728 2.3504598-6.5515152 5.2572414-6.5515152z" fill="#1d1819"/><path d="m55.1732184 58.489697c-1.5036298-.7095045-3.1084056-1.1797948-4.7565517-1.3939394-2.8928736-.4251515-5.9178736 2.1327272-5.750977 1.3939394.1668965-.7387879 2.3087356-3.6033334 5.2502873-4.0563637s6.2029885 1.7563637 6.2029885 1.7563637z" fill="#1d1819"/><path d="m83.3509195 58.489697c1.5036298-.7095045 3.1084057-1.1797948 4.7565518-1.3939394 2.8928735-.4251515 5.9178735 2.1327272 5.750977 1.3939394-.1668966-.7387879-2.3087357-3.6033334-5.2502874-4.0563637s-6.2029885 1.7563637-6.2029885 1.7563637z" fill="#1d1819"/><path d="m48.7685632 61.6190909c1.801092 0 3.2683908 1.0942424 3.2683908 2.4463636 0 1.3521213-1.4672988 2.4463637-3.2683908 2.4463637-1.8010919 0-3.2683908-1.0942424-3.2683908-2.4463637 0-1.3521212 1.4672989-2.4463636 3.2683908-2.4463636z" fill="#fbd7a3"/><path d="m85.6735632 61.6190909c1.801092 0 3.2614368 1.0942424 3.2614368 2.4463636 0 1.3521213-1.4603448 2.4463637-3.2614368 2.4463637-1.8010919 0-3.2683908-1.0942424-3.2683908-2.4463637 0-1.3521212 1.4603448-2.4463636 3.2683908-2.4463636z" fill="#fbd7a3"/></g></svg>