<svg height="130" viewBox="0 0 143 130" width="143" xmlns="http://www.w3.org/2000/svg"><g fill="none" fill-rule="evenodd"><path d="m66.47 18.35c-3.47-4.8-12.47-10.14-18.66-11.35l-5.33-3.57c21.86-9.13 51.52 21.09 46.21 43.84 8.8 1.55 21.78-15.34 23.08-23.38 2.31 14.69-1.54 28.57-8.77 42.11 13.09-13.15 10.87-34.8 9.7-52.29 6.33.5 9.85 16.59 9.8 23 .77 17-9.63 32.21-24.85 38.91 8 6.83 18 12.5 29.13 13.72-13.54481 5.0485201-28.3315689 5.723507-42.28 1.93 9.71 8.13 40.43 2.39 46.76-2.68l6.3-1.28c-11.86 25.12-54.62 20.09-68.8-2.76-6.67 8.76-4.67 23.85-.18 34.06-4.32-3.24-7.7-8.23-12.58-12.22 2.26 5.29 10.85 14.36 15.36 15.74l4.58 5.24c-28.15.93-45-36.72-32.39-60.8-9.4-5.57-23.29-2.86-32.88 2.43 3.23-4.79 8.09-9.2 12.33-14.3 6.7-3.56 13.93-8 21.57-11.14-12.77-.35-35.1 20.27-37.23 28.33-1.51 1.39-2.93 2.7-5 4.94-3-27.36 31.87-45.83 56.66-37.15.19.72.35 1.31.56 2.09l1.63-1c.59-11-2-22.57-10.09-31.12 5.05 1.83 10.03 6.35 15.42 8.65.42.51 1 .4 1.5.29 3.44 6.76 10.57 12.21 14.62 19.61-1.16-7.75-8.21-14.55-14.73-19.54-.48-.09-.91-.2-1.44-.31zm2.7 33.12v-.07c-8.41-1.79-11.1 8.8-10 14.33 1 10.13 15.64 9.51 20.86 4.31 6.91-6.74-1.03-20.52-10.86-18.57zm-23.4 32-.54.18c-1.67 2.51 10 27.85 9.36 19.77-3.59-6.71-6.59-12.27-8.82-19.92zm0-3.46c-.37-2.6.89-6.15-.73-8.81-1.57 1.09-1.04 7.23.71 8.8zm37.81-38.8c.14 2.39 1.42 5.09 1.77 8.26 2.5 2.2.84-6.47-1.79-8.23zm-1.38 49c-2.26-1-5.44-5.16-8.31-3.81 2.11 2.4 4.49 2.86 8.29 3.81zm-26-48.35c-2.28-.24-5.94-.19-8.54 1.39 1.74-.12 7.34 1.38 8.53-1.39zm41.71 29.66c1.53-.08 2.46-1.34 3.45-3.28-1.53.43-1.53.43-3.45 3.28z" fill="#b0b0b0"/><path d="m68.66 52.75c14-.19 17.55 19.29.79 19.14-11.73.6-12.28-20.07-.79-19.14zm1.68 16.08c9.38 1.35 8.28-13.44-.46-13.5-7.05-.23-8.13 14.67.46 13.5z" fill="#808080"/><g fill-rule="nonzero"><path d="m56.24 42c4.74.53 4.73-3.93-1.11-3.14-17.34-5.1-42.88 5.94-49.75 21.36-2.85 4.08-7.22 15.69-2.69 17.22 5-3.66 7-10.27 12-14.86 10.94-12.58 25.47-18.88 41.55-20.58z" fill="#dedede"/><path d="m43.22 4.93c3.56-.1 7.07 3.8 11 4.57.3569356.44364264.848211.7594626 1.4.9 7.921166 5.8423747 15.4383046 12.2135672 22.5 19.07 5.25 7.46 5.63 22.16 9.22 20.54 10.26-25.01-20.34-53.12-45.18-48.46-.4020156.27837212-.6204792.75362627-.57 1.24-.54 1.08.23 2.69 1.63 2.14z" fill="#dedede"/><path d="m98.47 74.93c10.46-3 18.4-13.61 21.15-23.69 1.26-3.25 4.16-7.85 3.42-12-.62-15.51-3.74-23.4-10.47-27.11-1.14 1.55-.26 5.16.31 7.57 7.19 40.92-23.29 54.3-14.41 55.23z" fill="#dedede"/><path d="m137.08 87.74c-2.83-1.81-5.61 0-9.21 1-48.24 17.21-43.59-7-60.21-4.21 10.33 17.73 45.11 29 61.81 13.3 3.28-3.29 9.71-5.46 7.61-10.09z" fill="#dedede"/><path d="m69.39 120.47c-13-7.84-18.8-22.61-23.87-36.54-4.1-44.31-10.27 9.29-2.85 19.75 9.23 27.19 47.43 30.24 26.72 16.79z" fill="#dedede"/><path d="m130.57 87c-9.57.9-22.84-3-27.57-11.65 21.77-10.68 29.78-48.54 10.19-64.84-.761063.2034794-1.415669.6899625-1.83 1.36 1.16 13-7 27.92-19.59 32.89-.47-26.63-29.07-54.33-54-41.54 14.0027847 5.28524757 22.710188 19.3163481 21.23 34.21-62.35-12.38-63 53.76-56 41.36 7.87-11.59 24.14-15.89 37.61-11.61-10.82 28 6.77 64 38.71 62.3-9.56-9.93-18-26.9-10.08-40.5 19.32 22.78 59.81 24.1 72.83-4.86-.8-.56-8.8 2.63-11.5 2.88zm7.23 1.53c-15.69 23.44-54 18.8-69-4-6.67 8.76-4.67 23.85-.18 34.06-4.32-3.24-7.7-8.23-12.58-12.22 2.42 7.22 15.59 15.9 19.94 21-28.15.93-45-36.72-32.39-60.8-9.44-5.57-23.33-2.86-32.92 2.43 3.23-4.79 8.09-9.2 12.33-14.3 6.7-3.56 13.93-8 21.57-11.14-18.73 1.83-30.81 19.25-42.2 33.27-3.03-27.36 31.84-45.83 56.63-37.15.19.72.35 1.31.56 2.09l1.63-1c.59-11-2-22.57-10.09-31.12 5 1.87 10 6.15 15.24 8.64l.25-.32c-6.3-6.7-15.47-9.72-24.11-14.54 21.86-9.13 51.52 21.09 46.21 43.84 8.8 1.55 21.78-15.34 23.08-23.38 2.31 14.69-1.54 28.57-8.77 42.11 13.09-13.15 10.87-34.8 9.7-52.29 6.33.5 9.85 16.59 9.8 23 .77 17-9.63 32.21-24.85 38.91 8 6.83 18 12.5 29.13 13.72-13.54481 5.0485201-28.3315689 5.723507-42.28 1.93 9.71 8.13 40.43 2.39 46.76-2.68l6.3-1.28c.52.34.44.8.24 1.24z" fill="#000"/><path d="m69.17 51.47c21.87.39 14.65 30.32-6 20.37-7.76-4.1-4.45-23 6-20.44zm-.51 1.28c-8-1.63-10.86 11.92-5.51 16.61 18.02 10.86 25.34-15.79 5.51-16.61z" fill="#000"/><path d="m82.84 37.54c-2.34-7.49-8.09-13.54-14.44-18.68l-.26.25c3.86 6.43 10.39 11.89 14.5 19.09.1-.32.25-.52.2-.66z" fill="#000"/><path d="m45.77 83.5c1.54 3.06 2.23 8.5 4.61 12.17 12.81 23.37-7-3.44-5.15-12z" fill="#000"/><path d="m45.75 80c-1.3-1.11-2.54-7.06-.73-8.81 1.37 2.12.52 5.52.73 8.81z" fill="#000"/><path d="m83.56 41.24c2.0183617 2.2746757 3.135169 5.2089623 3.14 8.25-1.35 2.51-2.84-6.31-3.14-8.25z" fill="#000"/><path d="m82.18 90.21c-3.22-.81-5.89-1.1-8.31-3.81 1.05-1.82 5.99 2.32 8.31 3.81z" fill="#000"/><path d="m56.19 41.86c-.72 2.46-5.67 1.44-8.54 1.39 2.6571796-1.2640466 5.619113-1.7461411 8.54-1.39z" fill="#000"/><path d="m97.91 71.52c1.92-2.85 1.92-2.85 3.45-3.28-.62 1.06-1.36 3.22-3.45 3.28z" fill="#000"/><path d="m70.34 68.83c-7.29 1.17-8.42-11.36-1.34-13.38 8.55-1.64 11.9 14.55 1.34 13.36zm.13-2.16c7.82 1.5 4.39-12.34-2.46-9.27-2.96 2.25-3.01 9.66 2.46 9.27z" fill="#000"/></g></g></svg>