<svg height="200" viewBox="0 0 140 200" width="140" xmlns="http://www.w3.org/2000/svg"><g fill="none"><path d="m130.51 145.72s4 12.52-2.24 19c-1.76 1.82-2.54-12-8.14-15.1 0 0-10.51 3.38-16.64-6-1.46-2.24 3.75 2.21 13.63-1.18 0 0 .61-10.13-7.58-13.17-2-.73 11.46-4.32 16.63 9 4.577488-2.626078 8.451157-6.321332 11.29-10.77 1.98-3.28 4.13 14.23-6.95 18.22z" fill="#90b3c5"/><path d="m124.45 136.13c5.26.5 10 8.91 4.45 13.06-3.092433.51594-6.210202.866439-9.34 1.05-7.21-3.72-1.38-13.94 4.89-14.11z" fill="#fdcf9a"/><path d="m116.48 144.65c-.91-3.87 5-9.65 9.31-8.21-.16 3.96-4.56 8.13-9.31 8.21z" fill="#fab575"/><path d="m97.19 103.9c18.11 1.64 42.1 35.48 19.4 37.8-5.77-6.7-11.93-12.7-21.17-13.7-6-4.35-15.81-27.92-7.22-27.37" fill="#34302f"/><path d="m95.42 128c-1.7295852-1.703728-3.2717139-3.587807-4.6-5.62l.42-7.7c13 3.19 24 14 30.1 25.84-1.489302.707672-3.103286 1.115415-4.75 1.2-5.77-6.72-11.93-12.72-21.17-13.72z" fill="#272423"/><g fill="#b2cbd8"><path d="m131.68 138.65c2.22-1.8 4.64-6.89 6.52-8.65-.65 2-4.7 10.33-6.52 8.65z"/><path d="m132.77 139.47c1.65-1 1.85-1.36 1.17-.44-.81.5-.13-1.52.68-.92-.74.66-1.51 2.33-1.85 1.36z"/><path d="m126.77 150.92c2-.38 2.55 7.28 2 10.07-1.48-.53-.22-7.3-2-10.07z"/><path d="m126.11 151.58c.34.38 0 1.63-.46.2-.02-.2.03-.33.46-.2z"/><path d="m106.66 145.33c1.76 1 6.44-.42 8.08.3-1.31.95-8.2 1.84-8.08-.3z"/><path d="m113.1 146.6c.9-.42 4.38.34 0 .5-.1-.1-.25-.16 0-.5z"/></g><path d="m114.89 115.63c1.46 1.34 5.86 6.74 4.59 8.27-.09-2.35-5.23-6.52-4.59-8.27z" fill="#45403f"/><path d="m110.33 112.51c1.09-.35 2.66 3.23-.2.77-.22-.17-.35-.35.2-.77z" fill="#45403f"/><path d="m10.2 147.61s-2.58 12.88 4.33 18.62c2 1.62 1.19-12.21 6.41-15.91 0 0 10.82 2.2 15.87-7.82 1.21-2.39-3.48 2.61-13.67.33 0 0-1.73-10 6.07-13.92 1.88-1-11.87-3-15.52 10.82-4.84101434-2.103147-9.10198786-5.345193-12.42-9.45-2.33-3.05-2.53 14.59 8.93 17.33z" fill="#90b3c5"/><path d="m15.16 137.4c-5.17 1.08-9 10-3 13.48 2.68 0 6.38.41 9.62-.11 6.29-4.83-.4-13.77-6.62-13.37z" fill="#fdcf9a"/><path d="m24 145c.48-3.94-6.05-9-10.16-7.13.71 4.13 5.41 7.46 10.16 7.13z" fill="#fab575"/><path d="m38.67 102.35c-17.76 3.65-37.95 39.92-15.09 39.72 5-7.32 10.45-14 19.52-16 5.52-5 12.63-29.5 4.14-28" fill="#34302f"/><path d="m43.1 126.09c1.5397122-1.886678 2.8801761-3.927534 4-6.09l-3.16-7.09c-11.33 5.38-20.79 16.59-25.17 28.49 1.5565709.541373 3.2049532.769087 4.85.67 4.96-7.32 10.38-13.96 19.48-15.98z" fill="#272423"/><path d="m98.13 189.61c-7.41 6.62 8.43 10.62 14 9.26 12.28-5.55-10.22-10.87-14-9.26z" fill="#272423"/><path d="m36.82 189.36c-.26-.78-1.73-.79-3.61 0-17.46 8.25-3.64 12 5.17 9.6 13.51-2.74 11.61-16.45-2.6-9.85-.47.07.78.76 1.04.25z" fill="#272423"/><path d="m37.48 144.22c-19.71 11.48-11.38 58.27 9.12 44 .33-16.87 10.89-32.85 39.85-22.1 11.32 6.41 9.52 20 9.83 22.5 18.38 14.71 27.26-28.27 2-48.7z" fill="#34302f"/><path d="m44.87 103s-14.46 27.94-8.18 36.68c14 17.6 55.93 9.72 60.69-3.41-.13-5-7.36-30.35-12.2-32.82-8.18-4.28-40.18-.45-40.31-.45z" fill="#34302f"/><path d="m86.59 104.47c-4.59-5.82-41.72-1.47-41.72-1.47-2.4530007 4.860161-4.5972509 9.870091-6.42 15 15.88 5.91 36.85 0 50.05-10.27-.5326835-1.144338-1.172186-2.235845-1.91-3.26z" fill="#272423"/><path d="m35.6 136.67c-8.59 7.77 15.73 18.05 38.81 16.38 19.92-3.33 31.46-13.71 22.7-19.21-24.38 16.35-49.87 6.08-61.51 2.83z" fill="#ec1c24"/><path d="m92 122.37c-2-.31.65 4.7 1 6.81 2.1.87 0-5.12-1-6.81z" fill="#45403f"/><path d="m51 105.05s11.34 17 14.19 18.1 15-12.63 13.88-16-28.07-2.1-28.07-2.1z" fill="#ec1c24"/><path d="m79 107.11c-1.07-3.41-28-2.06-28-2.06s5.84 8.75 10.19 14.1c4.4523237-.595343 8.8340651-1.633829 13.08-3.1 2.9-3.53 5.25-7.35 4.73-8.94z" fill="#bc141a"/><path d="m72.47 117.17c-1-1-2-2-3-3 1.71-1.76 2.9-4.18-.55-.51-2-2.25-4.54-3.73-.54.54-1 .93-1.93 1.84-2.9 2.76-1.43-1.19-2.82-2.4-4.17-3.66 1.57-1.17 3.25-4.46-.54-.5-1.12-1.08-2.21-2.21-3.24-3.42-.0142277-.074761-.0677892-.135974-.14-.16 0-.24-1-.83-.29.1-.93.2-1.5 2.56.29.38.94 1.19 1.92 2.36 3 3.48-.61.15-1.06 1.73.48.5 1.2871803 1.356133 2.6780551 2.609926 4.16 3.75-.46 0-1.85 2.48.62.46 1.18.16 1.52.44.51-.4-.34.12.1 1.7 0 0 1.0026006-.832255 1.944961-1.734515 2.82-2.7.31.09 2.77 3.64 3.49 2.38z" fill="#800000"/><path d="m75.21 113.8c-.68 0-2.32-2.4-3.46-2.38.25.47 2.7 3.36 3.46 2.38z" fill="#800000"/><path d="m22.73 25.44s-21.1 12.56-9.22 50.42 72.23 42.48 101.65 18.14 10.93-74.34-27.31-82.85c-39.27-8.71-63.06-16.87-70.85-5.78-7.13 10.04 5.73 20.07 5.73 20.07z" fill="#34302f"/><path d="m38.39 47.52c-17.88 8.14-12.6 27.38 0 31.83s53.89 6.56 64.61-2.35 10.93-23.32-.2-27.45-48.45-9.3-64.41-2.03z" fill="#fdcf9a"/><path d="m116.77 35.56c-3.24-8.56-22.24-21.49-25.56-18.37 13.01 4.81 25.53 24.69 25.56 18.37z" fill="#45403f"/><path d="m118.39 39.64c-2.19-1 1.31 6 2.5 6.3 2.11-1.43-.79-4.94-2.5-6.3z" fill="#45403f"/><path d="m28.64 3.69c-2.43-1.3-11.17.58-8.88 4.09 2.15-.08 3.47-2.55 6.11-3 .79-.61 3.25.46 2.77-1.09z" fill="#45403f"/><path d="m18.91 10.9c-1.05-2.05-2 3.68 0 2.45.1184545-.8123713.1184545-1.6376287 0-2.45z" fill="#45403f"/><path d="m102.75 49.59c-91.51-23.18-85.58 28.31-58.41 31.31-34.78-41.06 48.66-39.98 66.23-22.9-1.017342-3.9450517-3.959229-7.1088972-7.82-8.41z" fill="#fab575"/><path d="m61.39 55.88c-2.94-3.45-15.23-5.35-16-.67 1.77 2.5 5.63.95 9 2.55 2.61 1.17 9.15 2.94 7-1.88z" fill="#34302f"/><path d="m91.64 52.78c-3.33-1.78-16.81 2.75-12.21 6.67 2.66-.35 18.41-2.78 12.21-6.67z" fill="#34302f"/><path d="m59.23 67.55c.11-3.15-4.16-7.82-5.95-2.7-3.02 6.67 4.95 10.75 5.95 2.7z" fill="#34302f"/><path d="m88.39 68.5c.11-3.15-4.16-7.81-6-2.7-2.97 6.67 5 10.76 6 2.7z" fill="#34302f"/><path d="m57.38 64.5c-.5508104-.0765813-1.0684669.2815396-1.1910359.8239727-.122569.542433.1908128 1.0883366.7210359 1.2560273.5508104.0765813 1.0684669-.2815396 1.1910359-.8239727.122569-.542433-.1908128-1.0883366-.7210359-1.2560273z" fill="#fff"/><path d="m86.25 65c-.5508104-.0765813-1.0684669.2815396-1.1910359.8239727-.122569.542433.1908128 1.0883366.7210359 1.2560273.5508104.0765813 1.0684669-.2815396 1.1910359-.8239727.122569-.542433-.1908128-1.0883366-.7210359-1.2560273z" fill="#fff"/><path d="m74.47 73.29c-.84-3.53-8.07-1.66-5.92 1 1.36-1.61 5.17-2 3.81 1.31-10.44 4.09 5.15 4.29 2.11-2.31z" fill="#f7994d"/><path d="m100.7 169.35c-16.5-25.91-70.95-9.51-59.65 21.14 10.52-1.54 3.5-8.32 8.92-17.33 4-11.54 30.27-14.22 40.38-4.14 11 11.32-.12 21.86 12.44 22.19.98-6.76.59-14.94-2.09-21.86z" fill="#272423"/><path d="m8.25 140.71c-2.4-1.54-5.37-6.33-7.44-7.88.86 1.88 5.81 9.75 7.44 7.88z" fill="#b2cbd8"/><path d="m7.26 141.65c-1.76-.86-2-1.15-1.22-.31.87.4 0-1.52-.78-.84.82.58 1.74 2.15 2 1.15z" fill="#b2cbd8"/><path d="m14.49 152.36c-2.05-.15-1.72 7.52-.89 10.23 1.4-.69-.6-7.28.89-10.23z" fill="#b2cbd8"/><path d="m15.22 152.94c-.3.42.19 1.62.48.15 0-.2-.07-.33-.48-.15z" fill="#b2cbd8"/><path d="m33.86 144.58c-1.64 1.21-6.45.29-8 1.19 1.4.8 8.35.93 8-1.19z" fill="#b2cbd8"/><path d="m27.6 146.55c-1-.31-4.32.82 0 .5.19-.05.28-.19 0-.5z" fill="#b2cbd8"/><path d="m22.38 116c-1.29 1.48-5.07 7.34-3.64 8.72-.17-2.36 4.47-7.08 3.64-8.72z" fill="#45403f"/><path d="m26.57 112.37c-1.12-.24-2.29 3.5.29.74.19-.19.3-.39-.29-.74z" fill="#45403f"/><path d="m29.1 159.5c-.74 2.24-3.27 9.49-.05 10.79.03-1.51 1.76-11.68.05-10.79z" fill="#45403f"/><path d="m110.16 160.06c-1-.79-.84.82-.35 3 2.24 24.94 2.82 3.09.35-3z" fill="#45403f"/><path d="m110.53 177c-.69 1.27.73 4 1 .17.01-.38-.44-.75-1-.17z" fill="#45403f"/></g></svg>