<svg height="152" viewBox="0 0 126 152" width="126" xmlns="http://www.w3.org/2000/svg"><g fill="none"><path d="m22.45 117.48c-1-.59-13.14 8.25-14 5.62 2.06-7 12.23-28.31 19.0000755-13.36.0099245 0-.9700755 6.86-5.0000755 7.74z" fill="#3c2415"/><path d="m22.85 104.39c-.7754751-.452535-1.7345249-.452535-2.51 0 5.94 4.79-1.75 8.11-1.52 14.59 2-.91 3.63-1.49 3.63-1.49 4-.88 5-7.74 5-7.74s-2.72-4.28-4.6-5.36z" fill="#3c2415" opacity=".5"/><g fill="#bd1e2d"><path d="m61.87 81.81c-3.9 0-9.68.44-13.82 3.53-2.62 1.42-2.89 5.52-4.86 8.42-10.32 5.59-10.11-8.86-3.33-13.5 3.07-6.69 35.19-7.04 22.01 1.55z"/><path d="m62.3 75.67c-.9586863-.1858929-1.9267872-.3194241-2.9-.4.6 11-20.18 0-18.2 19.6 4.29-1.25 2.71-6.75 6.85-9.53 2.12-4.06 24.7-1.87 14.25-9.67z" opacity=".5"/><path d="m89.17 78.38c3.75 2.34 8.09 4.69 13.56 4.42 3 .22 5.4-3.11 8.61-4.49 10 .12 5.66 11.34-2.25 12.65-9.01 5.76-35.41-12.96-19.92-12.58z"/><path d="m116.43 80.73c-.524402-.9541529-1.351066-1.7069455-2.35-2.14-4.32 3.72.1 8.46-5.63 10.48-8.12 1.74-18 .36-13.79-7.77-8.46-6.3-15.91-1.53-4.13 5.93 6.57 6.37 29.47 6.64 25.9-6.5z" opacity=".5"/></g><path d="m90.89 140.29c.17 1.17 14.63 5.19 13.09 7.49-6.74 2.7-29.78 8-22.27-6.62 0 0 5.99-3.49 9.18-.87z" fill="#3c2415"/><path d="m92.81 148.4c-10.66.26-11.33-1.25-9.13-8.08-.6868761.264544-1.3550684.575253-2 .93-9 16.67 23.66 7.52 22.19 6-3.651707.666491-7.3492909 1.05096-11.06 1.15z" fill="#3c2415" opacity=".5"/><path d="m81.34 103.43c1.49 2 14 24.67 11.24 33.69-2.37 6.66-12 6.08-15.3.71-3.69-6.17-8.11-15.94-13.87-17.16-11.93 3.33-30.83 10.93-41.12-2.89-2.31-7.92 3.95-12.38 19-7.07 5-.44 3.29-9.21 4.86-10.16 8.08.11 33.14 3.98 35.19 2.88z" fill="#bd1e2d"/><path d="m64.2 77.53c-6.3222054-2.0254775-13.1009946-2.1437324-19.49-.34-1.15.29-3.16 1.13-5 1.75-11.71 4.06-25.95-2.14-32.24-13.17l10.23-5.4c3.09 6.92 11.39 12.5 19.81 10.63l1.07-.24c1.14-.3 2.29-.63 4.44-1 7.9142831-1.3797304 16.0608123-.3339628 23.37 3z" fill="#f6931e"/><path d="m35.26 109c1.46.34 20.82-10.58 38.82-19.63 13.5-7.78 24.54-10.37 22.66-14.7-1.86-4.8-19.53 8.21-37.49 16.46-14.25 8.25-33.04 13.94-23.99 17.87z" fill="#b59458"/><path d="m81.34 103.43s9.48-10.92 9.48-18.14c-10.76-24.9-37.82-4.43-45.34 16.08 0 0 21.84 5.36 35.86 2.06z" fill="#bd1e2d"/><path d="m89.62 82.17c-6.52 25-28.86 15.42-42.11 14.18-.831625 1.5958525-1.5016232 3.2708482-2 5 0 0 21.84 5.36 35.86 2.06 0 0 9.48-10.92 9.48-18.14-.1770227-1.1112175-.5970019-2.1697017-1.23-3.1z" fill="#bd1e2d" opacity=".5"/><path d="m69 75.16 7.13 14.78s7.36-4.7 13.12-8.29c-3.62-5.21-12.55-10.76-20.25-6.49z" fill="#fff8a1"/><path d="m90.13 83.1c-.4935242-.9828954-1.1083174-1.900046-1.83-2.73l-11.46 7.21-6.49-13c-1.0299062.4112109-2.0320156.8888831-3 1.43l6.65 13.33-21 13.22c0 .11 0 .22.05.33 1.39.23 2.91.46 4.52.67z" fill="#890c1f"/><path d="m70.4 107.24c-39.19-1.1-29.27-11.14-22.7-8.15 5.18 1.25 16.82 3.59 28.52 2.64 4.2.09 7.72-2.48 10.09-.14 3.77 6.41-13.03 5.23-15.91 5.65z" fill="#890c1f"/><path d="m49.61 100.3c34.44 4.51 47.68-24 41-19.93-.08.2-3.92 9.14-15.53 14.4-5.22 2.36-12 3.9-20.69 3.64-2.62.16-5.31-.9-7-.28-.96 1.19.04 2.26 2.22 2.17z" fill="#3c2415"/><path d="m78.83 82.69c19 .72 19.91-10.64 10.59-9.8-2.27.73-3.41 2.17-9.55 2.21-4.49.48-10-3.6-13.5-3.8-12.96 4.87 8.63 12.14 12.46 11.39z" fill="#f6931e"/><path d="m32.12 41.22c-.43 0-.26 0-1.52 0-.55 0-1.12-.05-1.68-.07-5.5303359-.4482566-10.8532693-2.3074959-15.46-5.4-.91-.56-1.73-1.28-2.57-1.91s-1.59-1.42-2.37-2.1l-8.52 12.02c1.35.66 2.64 1.37 4 2s2.73 1.15 4.16 1.56c6.8893084 2.2760077 14.2477472 2.7443033 21.37 1.36.7-.16 1.38-.3 2.08-.5.14 0 .56-.15 1.58-.48l.62-.21z" fill="#603913"/><path d="m34.28 50.88-.64.11-.54.1c-.34.07-.69.14-1 .23-1.3236437.3398393-2.6231859.7674521-3.89 1.28-6.0331683 2.5188975-10.9668183 7.1120512-13.91 12.95-.6727345 1.3146244-1.244387 2.6785673-1.71 4.08-.48 1.38-.77 2.78-1.14 4.21l14.66 1.42c0-.82-.06-1.71 0-2.54.0416277-.8299089.1452498-1.6555437.31-2.47.7780793-3.8676016 2.9576059-7.311396 6.12-9.67.7367325-.5880691 1.5192158-1.1164125 2.34-1.58.21-.13.41-.22.61-.32-.05 0 .2-.09.47-.26z" fill="#603913"/><path d="m30.28 8.22c7.95-10.07 46.45-8.06 46.45-8.06s41.59-1.52 46.07 38.76c9.48 54.08-118.3 50.56-88.52-14.06 2.02-8.67-11.75-6.86-4-16.64z" fill="#bd1e2d"/><path d="m81.07 72c-40.25-.84-54.34-21.47-42.45-51.44 1.9-8.14-10.16-7-5.16-15-14.1 11.21 2.85 10.27.83 19.25-24.29 58.99 63.45 61.56 83.41 36.59-8.76 7.02-22.37 10.6-36.63 10.6z" fill="#bd1e2d" opacity=".5"/><path d="m51.18 31.21c16.18-31.92 82.58-13.88 62.06 21.79-7.24 9-19.77 1.64-31.64 2-7.62.46-16.11 3.51-21.38 2.36-10.83-2.11-14.07-15.06-9.04-26.15z" fill="#fecea2"/><path d="m76.63 12.85c16.89 0 29.78 2.51 38.73 5.18 2.04796 2.9247319 3.689602 6.1138226 4.88 9.48-26.42-11.2-71.06-8-87.27.81.4-1.2.83-2.36 1.31-3.46.4754645-1.6333476.1770298-3.3944809-.81-4.78 7.96-3.19 22.2-7.23 43.16-7.23z" fill="#603913"/><path d="m76.87 32.82 1.61-5.09-21.55-6.92-1.61 7.19z" fill="#0c0608"/><path d="m93.43 32.82 21.55-4.82-1.6-7.19-21.55 6.92z" fill="#0c0608"/><path d="m73.68 9.46c5 1.2 25.15-3.89 22.2 5.54-.25 5.31 1.09 7.39-2.45 8.61-5-1.2-25.15 3.88-22.2-5.55.25-5.3-1.1-7.38 2.45-8.6z" fill="#929497"/><path d="m93.43 21.27c.69-.21 1-9.92 0-9.48h-19.59c-.79-1.36-1.24 9.75-.12 9.48z" fill="#d0d2d3"/><path d="m54.52 51.77c-.22 2.33 9.91 3.15 11.67.51 2.38-3.04-11.5-3.76-11.67-.51z" fill="#e5a876"/><path d="m111.57 51.77c.23 2.33-9.91 3.15-11.67.51-2.38-3.04 11.51-3.76 11.67-.51z" fill="#e5a876"/><path d="m60.59 41.38c.53 13.6 11.89 12.5 12.15 0-.53-13.59-11.89-12.5-12.15 0z" fill="#3c2415"/><path d="m62.57 37.47c.09 5.19 5.45 5.18 4.67-1.24-.73-3.76-4.41-3.49-4.67 1.24z" fill="#fff"/><path d="m95.46 41.38c.53 13.6 11.89 12.5 12.15 0-.53-13.59-11.89-12.5-12.15 0z" fill="#3c2415"/><path d="m97.44 37.47c.09 5.19 5.46 5.18 4.67-1.24-.73-3.76-4.41-3.49-4.67 1.24z" fill="#fff"/><path d="m85.63 20.66c-2.5.27-6.2-2.77-4.13-6.47.5571172-.8786183 1.4501021-1.4903986 2.4706212-1.6926126 1.0205191-.2022139 2.079318.022824 2.9293788.6226126 4.5 2.7-4.4 9.38-3.24 1.87.55-.13 1.45-1.48 2.55.48-.14.12.42 1-1 1.28.2804776-.0321035.5290908-.1953718.67-.44-.05-.16.43-.52-.48-1.24-.2166891-.0770425-.4533109-.0770425-.67 0-.4066966.1733942-.6837394.557967-.7194131.9986427-.0356738.4406758.1759027.8648035.5494131 1.1013573 1.71 1.13 4-3 .34-3.61-.9866168-.0190474-1.9229938.434278-2.52 1.22-.801603 1.377057-.6536157 3.1089085.37 4.33.7204523.8733028 1.7542831 1.4297048 2.88 1.55z" fill="#414042"/><path d="m114.27 74.19c9.49-11 16.74 7.65 4.06 11.2-11.47 3-10.77-14.87-5.06-9.72z" fill="#3c2415"/><path d="m45.63 95c3.08 13.79-14.52 9.28-11.91-2 4-13 19.07-1.17 11.3.34z" fill="#3c2415"/><path d="m93 135.43c.0957877-.847301.0957877-1.702699 0-2.55-11 9-17.27-9.42-25.26-15.59-7-5.15-11.47 3.46-16.74 4-11 2-31.45.48-23.55-12.63-4.82.9-6.54 4.38-5.16 9.13 8.82 13.23 31.36 6.81 39.5 3 8-1.27 11.61 13.25 17.44 19.27 4.61 3.57 12.62 2.29 13.77-4.63z" fill="#bd1e2d" opacity=".5"/><path d="m72.14 104c3.87 2.09 7 6 9.37 11l.84 1.91-8.08 1.66v-1.7c.0212089-3.421765-.7560512-6.801306-2.27-9.87-.2720467-.471225-.5726057-.925403-.9-1.36z" fill="#890c1f"/><path d="m68.07 103.71c-4.12 1.55-7.74 5-10.76 9.64l-1.09 1.79 7.78 2.72.21-1.68c.4574608-3.392821 1.7004247-6.63206 3.63-9.46.3297188-.432686.6871346-.843547 1.07-1.23z" fill="#890c1f"/></g></svg>