<svg height="148" viewBox="0 0 30 148" width="30" xmlns="http://www.w3.org/2000/svg"><g fill="none" fill-rule="evenodd"><path d="m14.4 42.43c3.54-11.26-.4-26.13.9-39.29 13.78 27.81 19.14 65.23.42 92.8.13-2.51-1.12-9.16-1.53-.4-9.51-10.54-12.68-26.27-12.54-41.38.52-16.92 3.84-35.16 12.09-51.03.98 12.04-1.3 26.68.66 39.3zm.32 5.29c-2.11 8.49.09 18-.52 27.73 1.37 2.08.89-4 .85-6-.49-7.14 1.53-14.15-.33-21.73zm-.72 31.28c-1.08 7.28 2 16.34 1.18 0-.3884108-.0880041-.7915892-.0880041-1.18 0z" fill="#b0b0b0"/><path d="m14.54 1.15v95.35c-21.85-20.61-13.71-73.94 0-95.35z" fill="#dedede"/><path d="m16.09 97.32c-.34 11.12-1.55 23.51.46 35.22 1.15 3.41 4.41 6.6 1.95 10.85-9.12 7.2-10.09-5.6-5.44-11.69 2.66-6.85-2.82-35.56 3.03-34.38zm-1.08 45c3.29.6 3.59-6-.91-5.07-2.19.31-2.7 5.34.9 5.11z" fill="#9e9e9e"/><g fill="#000" fill-rule="nonzero"><path d="m8.19 140.52c-.69-4 2.73-6.32 3.65-10.41.07-11.34.86-21.51-.27-33.06-1.23-7.35-7-10.73-8.69-18.92-6.6-22.13-1.58-61.76 12.18-78.13 13.62 23.65 18.46 53.78 10.52 81-2.55 7.15-8.72 11.68-8.36 20.59.82 10.18-1.39 20.91 1.14 31.31 1.88 2.67 3.23 4.78 2.75 9-.85 7.79-13.22 6.8-12.92-1.38zm6.21-98.09c-2-12.48.32-26.25-.66-39.3-7.83 15.27-11.62 33.1-12.09 51.03-.03 13.94 2.35 30.1 12.54 41.38-.3-2.25 1.11-8.39 1.53.4 18-25.32 13.85-65.38-.42-92.8-1.3 11.86 2.7 28.28-.9 39.29zm1.69 54.89c-5.86-.35-.41 30.49-3 34.38-5.38 6.76-2.49 19.46 5.9 10.92 1.75-4.65-1.93-7.35-3.22-12.26-.05-10.96-.58-21.55.32-33.04z"/><path d="m14.72 47.72c1.31 8.59.62 19.19-.09 28.35-.48-8.07-1.7-19.38.09-28.35z"/><path d="m14 79c.3898217-.0743297.7901783-.0743297 1.18 0 1.29 4.57-1.6 17.75-1.18 0z"/><path d="m15 142.36c-3.17.67-4-6.58 1.09-4.9 2.12.79 2.15 5.2-1.09 4.93zm-.58-1.47c2.09.85 2.09-4.24-.62-1.21.2.32.4.76.63 1.21z"/></g></g></svg>