<svg height="101" viewBox="0 0 94 101" width="94" xmlns="http://www.w3.org/2000/svg"><g fill="none" fill-rule="evenodd"><path d="m76.9 44.85v-.06c-.0046835.0298172-.0046835.0601828 0 .09z" fill="#79a4c4" fill-rule="nonzero"/><path d="m90.72 14.13c-3.54-7.38-11.67-13.28-20.79-12.02-7.78 5.21-13.56 12.31-21.13 18.76 11 4.65 25.13 10.39 28.06 23.92 1.15-9.72 7-19.43 15.49-25.8.28-1.99-.74-3.43-1.63-4.86z" fill="#79a4c4" fill-rule="nonzero"/><path d="m61.14 67.67c1.02-11.67-8.71-18.83-19.14-22.73-8.78-2.59-16.76-8.85-23.22-4.58 6.62-21.97 62.76 11.37 42.36 27.31zm-19.66-27.57c3 1.67 6-2.51-.23-2.62-1.12.43-1.78 1.6.23 2.62zm-10.55-4.19c1.06-2.68-4.87-3-3.66.34 1.1047189.9163097 2.7429715.7641223 3.66-.34zm22.91 8.55c-3.12-1.35-2.44 4.09 1.27 2.83.55-.63.31-2-1.27-2.83zm10.29 12c.57-.84-1.57-5.08-2.95-2.11-.06.9.94 3.15 2.95 2.14z" fill="#b0b0b0"/><path d="m27.69 94.89c.75-13.48 14.7-38.2 19.38-45.46 2.6476979.8462481 4.9835567 2.4615066 6.71 4.64-10.3 12.35-17.41 26.85-26.09 40.82z" fill="#808080"/><path d="m34.28 43.67c3.16 1.08 6.06 2.36 8.94 3.63-11.35 11.95-21.22 26.6-29.79 41.47 3.78-15.29 11.76-31.85 20.85-45.1z" fill="#808080"/><path d="m32.3 27.21c1.6479155-3.1692219 4.7538101-5.3208959 8.3-5.75-4.53 3.18 4.64 5.31 2.56-.11 10.68.34 39.76 16.82 29 28.52-7.16-13.15-22.85-28.79-39.86-22.66zm20.86 1.11c4.18 1.51 3.06-4.31-1.42-2.4-.26.79.26 1.35 1.42 2.4zm10.69 4.39c-5.08-1.88-2 3.93 1.77 2.26.15-.9-.12-1.55-1.77-2.26zm7.27 6.79c-3.21-1.76-2 5.37 1.12 2.65.38-.74.36-1.87-1.12-2.65z" fill="#b0b0b0"/><path d="m30.33 42.65c-12.33 8.95-19.94 23.07-27.33 36.56 1-11 9.49-24.78 15.59-35.7 2.41-5.16 7.23-3.05 11.74-.86z" fill="#808080"/><path d="m57 58.53c5.8 6.73-.51 13.29-3.93 20.07-3.39 6.34-4.67 12.34-9.4 18.12.86-12.72 7.8-26.02 13.33-38.19z" fill="#808080"/><path d="m55.67 55.72c-1 6.06-6.06 12.52-8.16 19.52-1.9.37-3.12-.79-4.73-1.3 3.46-6.24 7.1-12.74 12.89-18.22z" fill="#ffccab"/><path d="m55.64 78.21c1.7-4.63 5.27-7.26 8.87-11.11 9.81-19.66.86 15.27-8.87 11.11z" fill="#ffccab"/><path d="m29.76 67.84c4.5-5.35 8.24-13.62 14.56-17.84-3.53 6.34-6.93 13.6-10.74 20.55-1.4370409-.647036-2.734476-1.5674677-3.82-2.71z" fill="#ffccab"/><path d="m68.51 69.4c1-3 5.33-8.67-.23-10.84.4705511-1.7254678 1.1103213-3.4002589 1.91-5l3.11-1.14c1.36 5.31 2.82 14.44-4.79 16.98z" fill="#ffccab"/><path d="m29.55 47-8.55 15.77c-2.28-.55-2.28-.55-3.52-3.17 1.79-4.09 7.42-10.01 12.07-12.6z" fill="#ffccab"/><path d="m42.78 33.39c1.51-1.68 3.69-2.62 5.42-4.06 2.38.33 3.78 2.2 5.95 2.94-1.4 2.08-3.06 2.78-5.46 5-1.74-1.66-4.12-1.91-5.8-3.41-.06-.05-.05-.18-.11-.47z" fill="#808080"/><path d="m53.45 40.36c1.73-1.67 2.62-3.62 4.67-4.62 1.7703149 1.0954072 3.3905815 2.416496 4.82 3.93-.95 1.52-2.4 2.55-4.14 4.53z" fill="#808080"/><path d="m66.56 44.15c2.65 2.92 3.82 6.63 1.17 10.92-2-1.33-1.46-5.23-4.94-6.9.59706-1.8335254 1.9785303-3.3066051 3.77-4.02z" fill="#808080"/><path d="m37 32.25-5.2-1.14c1.51-3.74 6.56-4.47 10.8-3.36-1.49 1.98-4.01 2.6-5.6 4.5z" fill="#808080"/><path d="m56.24 33.77c.44 2.13-2.56 3.32-4.28 5.49l-1.31-.87c1.5573853-1.8766627 3.4536401-3.4438715 5.59-4.62z" fill="#ffccab"/><path d="m60.74 45.46c.68-.45 2.46-4.45 4.19-3.37-.79 1.12-2.24 2.07-3.85 3.63-.02.01-.08-.09-.34-.26z" fill="#ffccab"/><path d="m76.84 44.88c.4918148 1.9327004.189303 3.9818583-.84 5.69-.54-2.43.39-4 .93-5.72z" fill="#79a4c4"/><path d="m43.09 30.13c.5253749-1.0075512 1.483504-1.7187778 2.6-1.93-1 1.48-1 1.48-2.63 1.84z" fill="#ffccab"/><path d="m41.22 32.34c-.25-.06-.13.71-1.28.34.17-.42.49-1 1.25-.34z" fill="#ffccab"/><path d="m42.18 31.49c-.59 0-.82.36-1 .85z" fill="#ffccab"/><path d="m42.16 31.49c.44-.37.17-1.21.93-1.36v-.09l-.88 1.45z" fill="#ffccab"/><g fill="#000" fill-rule="nonzero"><path d="m54.72 79.72c-12.87 31-18.73 26.29-8.3-2.1-1.5823581-.9529823-3.3077409-1.6451613-5.11-2.05-4.32 6.22-7.41 14-12 20.75-9.54 5.84 1.59-20.38 3.42-23.73-.9-1.2-2-1.8-4.16-3.23-5.36 6.49-9 14.3-13.9 21.79-10.53 6.11 4.33-23.4 5.23-26.25l-4-3.26c-5.84 6.36-8.36 19.24-15.67 23.43-2.23-13.07 12.07-33.78 17.16-42.82-3.18-7.72 8-9.16 12.49-12.75-.49-11.42 15.55-7 21.21-13.88 6.91-4.62 10.62-10.94 18.26-15.14 10.12-3.16 27.12 9.84 24.29 20.12-23.93 18-8.59 42.28-26 52.8-4.5 1.6-6.44 8.99-12.92 6.32zm-12.56-48.23-1 .85c-.16-.32-.86-.74-1.25.34.23-.13.38.55 1.28-.34.14-.49.37-.87 1-.85l.87-1.49c1.58-.36 1.58-.36 2.63-1.84-1.116496.2112222-2.0746251.9224488-2.6 1.93-.76.19-.49 1.03-.93 1.4zm34.74 13.36c-.54 1.68-1.47 3.29-.93 5.72 1.0395203-1.7039059 1.3528754-3.7533201.87-5.69 1.16-9.74 7.01-19.51 15.51-25.88-1.53-9.57-10.86-17.37-21.35-17.16-8.59 4.31-14.18 12.64-22.16 19 10.98 4.67 25.09 10.48 28.06 24.01zm-15.76 22.82c20.69-17.34-37.71-48.67-42.32-27.31 4.18-4.16 13.84 1.64 19.37 2.98 11.81 4.66 23.62 9.94 22.95 24.33zm-33.45 27.22c8.36-13.3 15.52-28.16 26.09-40.82-1.7264433-2.1784934-4.0623021-3.7937519-6.71-4.64-8.89 14.92-18.79 33.78-19.38 45.46zm6.59-51.22c-8.94 13.07-17.11 29.74-20.85 45.1 8.37-14.55 18.15-29.15 29.79-41.47-2.88-1.3-5.78-2.55-8.94-3.63zm-2-16.46c15.6-6.14 33 9.15 39.85 22.66 11.22-12.63-20.62-28.71-29-28.52 3 3.67-7.1 4.89-2.56.11-3.5195035.4789089-6.5954504 2.6175661-8.27 5.75zm-2 15.44c-3.53-1.41-9.09-4.94-11.78.87-6.18 10.87-14.66 25.03-15.5 35.69 7.26-13.07 14.5-27.21 27.33-36.56zm26.72 15.88c-5.27 11.69-12.41 25-13.33 38.19 4.74-5.59 6.73-13.76 10.74-20.6 2.82-4.86 8.01-11.71 2.59-17.59zm-1.34-2.81c-5.29 4.85-9 11.3-12.89 18.22 1.61.51 2.83 1.67 4.73 1.3 1.74-6.14 6.85-12.76 8.17-19.52zm0 22.49c9.86 3.94 18.86-30.9 8.87-11.11-3.17 3.84-6.76 5.55-8.89 11.11zm-25.9-10.37c1.0882142 1.1317582 2.3854682 2.0418736 3.82 2.68 3.62-6.52 6.82-13.52 10.74-20.52-5.89 3.7-9.6 11.83-14.56 17.84zm38.75 1.56c6.92-2.2 6.55-10.53 4.79-17l-3.11 1.14c-.7996787 1.5997411-1.4394489 3.2745322-1.91 5 5.06 1.96 2.01 6.54.23 10.86zm-38.96-22.4c-4.65 2.59-10.28 8.51-12.11 12.6 1.24 2.62 1.24 2.62 3.52 3.17zm13.23-13.61c.06.29 0 .42.11.47 1.68 1.5 4.06 1.75 5.8 3.41 1.44-1.4 3.72-2.72 5.46-5-2.17-.74-3.57-2.61-5.95-2.94-1.73 1.44-3.91 2.38-5.42 4.06zm10.67 7 5.35 3.81c1.24-1.39 2.47-2.43 4.14-4.53-1.22-1-2.49-2.69-4.82-3.93-2.05 1-2.94 2.95-4.67 4.62zm13.11 3.79c-1.7871278.7090801-3.1678705 2.1740591-3.77 4 2.81 1.19 2.85 4.67 4.94 6.9 2.04-3.26 2.27-7.25-1.17-10.93zm-29.56-11.93c1.58-1.9 4.1-2.52 5.6-4.5-2.83-.75-8.94-1.13-10.8 3.36zm19.23 1.52c-2.1363599 1.1761285-4.0326147 2.7433373-5.59 4.62l1.31.87c.81-1.54 4.69-2.9 4.29-5.49zm4.5 11.69c.22.17.32.27.34.26.82-.82 2.72-2 3.85-3.63-1.31-1.09-2.74 1.68-4.18 3.37z"/><path d="m41.48 40.1c-4.16-2.05 3.13-4.45 3.41-.51-.7 1.41-1.72 1.08-3.41.51z"/><path d="m30.93 35.91c-.92 1.79-6.42.62-2.6-2 1.4-.72 2.83.03 2.6 2z"/><path d="m53.84 44.46c2.69 1 1.43 5.57-2.07 1.45-.02-.56-.43-2.24 2.07-1.45z"/><path d="m64.13 56.49c-1.29 1-4.33-1.31-2.19-3.11 1-.06 2.5.77 2.19 3.11z"/><path d="m53.16 28.32c-3.92-2.34 1.6-4.93 2.67-.57-.34.64-1.07.97-2.67.57z"/><path d="m63.85 32.71c5.16 2.44-2.11 4.08-2.79.2.58-.58 1.19-.91 2.79-.2z"/><path d="m71.12 39.5c1.88.36 1.74 4.84-1.12 2.79-1.09-1.49-1.76-3.56 1.12-2.79z"/></g></g></svg>