<svg height="117" viewBox="0 0 41 117" width="41" xmlns="http://www.w3.org/2000/svg"><g fill="none"><path d="m13.67 33.26c1.23-6.94-4.61-35.58 8-33.11 10.29.3 4.69 27.2 6 33.11z" fill="#a26621"/><g fill="#5c3a0d"><path d="m13.67 28h14.02v2.85h-14.02z"/><path d="m13.67 22.61h14.02v2.85h-14.02z"/><path d="m13.67 17.22h14.02v2.85h-14.02z"/><path d="m13.67 11.83h14.02v2.85h-14.02z"/><path d="m21.65.15c-2.8688861-.50762481-5.7263618.94968777-7 3.57 16.47-8.06 13.35 42.28-.98 22.62v6.92h14c-1.03-6.26 3.75-33.46-6.02-33.11z" opacity=".4"/></g><path d="m39.5 42.37c-.61-14.21-14.18-8.53-19.41-9.43-2.09.06-16.46-1.3-17.28 2.26-5.48 11-1.31 44.26-1 44.08.4-2 3.62-27.71 7.07-32.66 7.53-6.34 6.54 16.4 7.79 25.47 1.42 18.2 3.38 44.59 3.39 44.650054.01.059946 3.69-49.830054 4.62-59.640054s1.88-12.1 5.57-11.33 7.4 29.07 8 33.22 2.75-27.94 1.25-36.62z" fill="#eef1f3"/><path d="m9.59 42.24c-4.37.17-4.87 11.4-6.88 19.45s-2.53-5.27-2.54-5.69c.22 12 1.39 27.4 1.83 22.45.68-11.25 9.16-54.45 13.55-20.45-.88-10.67-1.61-15.93-5.96-15.76z" fill="#d3d3d4" opacity=".4"/><path d="m30.58 42.24c4.36.17 4.87 11.4 6.88 19.45s2.54-5.27 2.54-5.69c-.22 12-1.39 27.4-1.82 22.45-.69-11.25-9.18-54.45-13.56-20.45.88-10.67 1.6-15.93 5.96-15.76z" fill="#d3d3d4" opacity=".4"/><path d="m21.56 45.09s3-2.34 2.73-1.19c-1.29 5.21.17 1.13-4.55 58.41z" fill="#fff" opacity=".5"/><path d="m3.55 36.37c.77-4.73 22.77-1.53 23.64-2.35-2.1.49-21.72-.26-23.64 2.35z" fill="#fff" opacity=".5"/></g></svg>