<svg height="212" viewBox="0 0 224 212" width="224" xmlns="http://www.w3.org/2000/svg"><g fill="none"><path d="m103.104 208.176c.528 3.396-17.712 5.196-24.924 2.148-12.828-6.144 24.828-8.1 24.924-2.148z" fill="#363d42" opacity=".3"/><path d="m98.592 31.308c-8.748 2.124-7.308 4.188-5.568 9.336l9.396 28.512 10.608-3.492c-1.956-2.28-9.216-37.416-14.436-34.356z" fill="#2c3338"/><path d="m130.548 145.092c9.252-2.088 6.804-5.16 6.108-7.704-4.068-12.348-22.8-69.108-22.8-69.168l-10.608 3.492 23.556 71.496c.243984.748205.776625 1.368015 1.479618 1.721765.702994.35375 1.518138.412152 2.264382.162235z" fill="#2c3338"/><g fill="#ea400c"><path d="m93.612 42.444 2.604.144-2.004 1.656.192.6 5.148.288 2.676-2.208 3.36.18-1.368-4.164-11.976-.672z"/><path d="m111.228 60.216-.516-1.56-1.728 1.44z"/><path d="m104.136 45.384 2.244.132-.516-1.572z"/><path d="m111.48 60.996-11.976-.672 1.38 4.176 2.604.144-2.004 1.668.936 2.844 3.372-1.104 3.696-3.072 3.372.192z"/><path d="m103.956 38.16-.516-1.56-1.728 1.428z"/><path d="m96.036 49.788 2.604.156-2.004 1.656.192.6 5.148.288 2.676-2.22 3.36.192-1.38-4.176-11.964-.66z"/><path d="m98.46 57.144 2.604.144-2.004 1.668.192.6 5.148.288 2.664-2.22 3.372.192-1.38-4.176-11.964-.66z"/><path d="m106.56 52.74 2.244.12-.516-1.56z"/></g><path d="m98.877683 67.341704h18.516v2.688h-18.516z" fill="#4d555b" transform="matrix(.94975377 -.31299805 .31299805 .94975377 -16.065081 37.297455)"/><path d="m169.368 66.06c-3.072-8.4-4.98-6.804-9.9-4.5l-27.312 12.468 4.644 10.152c2.04-2.184 36.18-13.26 32.568-18.12z" fill="#2c3338"/><path d="m59.772 110.328c3.096 8.976 5.88 6.204 8.34 5.22l66.288-30.24-4.644-10.164-68.556 31.272c-1.4662035.693621-2.1025654 2.436932-1.428 3.912z" fill="#2c3338"/><path d="m157.752 62.34.132 2.604-1.872-1.812-.564.264.276 5.148 2.496 2.412.18 3.36 3.996-1.824-.648-11.976z" fill="#ea400c"/><path d="m142.008 81.804 1.5-.684-1.62-1.56z" fill="#ea400c"/><path d="m155.976 73.116.12 2.256 1.5-.684z" fill="#ea400c"/><path d="m141.264 82.14-.648-11.976-3.996 1.824.144 2.604-1.872-1.812-2.736 1.248 1.476 3.228 3.456 3.348.18 3.36z" fill="#ea400c"/><path d="m163.14 72.156 1.5-.684-1.62-1.572z" fill="#ea400c"/><path d="m150.708 65.556.144 2.604-1.884-1.812-.564.264.276 5.148 2.496 2.412.18 3.36 3.996-1.824-.648-11.976z" fill="#ea400c"/><path d="m143.664 68.772.144 2.604-1.872-1.812-.576.264.276 5.148 2.496 2.412.18 3.36 3.996-1.824-.648-11.976z" fill="#ea400c"/><path d="m148.932 76.344.12 2.244 1.5-.684z" fill="#ea400c"/><path d="m131.908792 70.395643h2.688v18.516h-2.688z" fill="#4d555b" transform="matrix(.90959904 -.41548718 .41548718 .90959904 -21.048886 62.565592)"/><path d="m105.444 126.276s-41.268 10.884-47.844 4.248c-19.2-23.52 30.216-25.056 34.8-27.468z" fill="#363d42"/><path d="m55.92 123.336c6.156 6.36 44.22-3.324 47.532-4.176l1.86 3.3c-2.46-.252-49.02 15.54-51.312-1.62.5555695.893664 1.1987422 1.729789 1.92 2.496z" fill="#4d555b"/><path d="m17.784 89.568c-16.104-13.8-19.632-2.196-16.992 10.776 3.792 2.028 9.216 1.392 15.9 1.764 1.056-4.128 1.092-12.54 1.092-12.54z" fill="#363d42"/><path d="m41.484 90.288-23.7-.72s-3.852 6.432-1.092 12.54l23.892 6.54z" fill="#363d42"/><path d="m78.696 89.688s-26.4-2.316-36.372-3.156c-12.408-4.464-13.896 20.652-5.628 22.032l37.632 2.892c2.4.612 4.56-1.944 5.352-7.896 1.5-8.34 4.632-11.784-.984-13.872z" fill="#363d42"/><path d="m36.528 92.94c1.044-.936 18.624 1.344 31.788 2.268 8.976 1.56 8.832-1.2 13.092 3.024 3.852-9.6-18-5.844-33.6-8.58-10.272-.468-14.508-4.38-15.12 11.244.744-4.896 2.256-7.164 3.84-7.956z" fill="#4d555b"/><path d="m10.2 84.816c-.37516138 5.3737243-1.12498385 10.7147057-2.244 15.984l7.2-.264c-.5360166-3.6995716.0930962-7.4742484 1.8-10.8 0 0-5.064-3.948-6.756-4.92z" fill="#42484e"/><path d="m67.584 80.232c-4.392 1.308-14.964-13.2-15.528-17.28 6.492.732 8.772-5.64 11.772-4.884 4.476 1.932 15.24 18.48 3.756 22.164z" fill="#ffc392"/><path d="m59.256 67.92c-.816 7.86 7.092 11.88 15.24 16.26 11.424 7.74 16.62-2.4 12.528-9.864-2.772-3.828-18.624-9.684-18.732-9.948 0 0-8.292-3.708-9.036 3.552z" fill="#363d42"/><path d="m66.312 87.348c-16.668-12.732 2.196 22.512 7.416 25.452 16.8 16.716 49.476 19.92 33.828 6.6 0 .036-24.924-1.8-41.244-32.052z" fill="#4d555b"/><path d="m108.264 121.2s-26.4-3.516-42.672-33.72l-2.64-.54c-1.224 29.76 51.792 46.884 45.312 34.26z" fill="#42484e"/><path d="m83.808 61.608c-9.66 4.56-14.112 23.712-13.344 29.928 1.32 10.956 30.756 28.8 36.468 27.6 54.504-33.936-9.948-66.336-23.124-57.528z" fill="#42484e"/><path d="m70.512 93.516c-1.2 2.88 3.96 5.628 4.272 8.64 5.52-6.42 15.972-16.908 51-13.728 0 0 2.256-4.152-2.124-8.4-15.42-4.632-46.704 1.572-55.356 12.552.336.18 2.76-1.032 2.208.936z" fill="#ea400c"/><path d="m108.78 117.264c-13.536-.348-41.58-22.92-37.884-36.24-15.696 11.784 4.056 30.636 24.588 40.92 10.212 4.212 11.772 1.644 18-6.372.056769-.385823-.077489-.77517-.36-1.044 0 0-3.408 2.748-4.344 2.736z" fill="#ea400c"/><path d="m131.232 60.204c13.488 25.668-62.184 46.392-54.672 6.204 0 0 45.348-16.32 54.672-6.204z" fill="#2c3338"/><path d="m128.688 59.448c12.672 24.408-58.8 43.68-51.6 5.856-.06 0 42.792-15.42 51.6-5.856z" fill="#363d42"/><path d="m91.86 79.284 18.684-2.148.264 7.08c-6.187311 2.015755-12.7159505 2.7706289-19.2 2.22z" fill="#4d555b"/><path d="m128.556 58.344c12.324 19.752-57.6 38.676-50.232 5.904 0 0 41.856-13.848 50.232-5.904z" fill="#2c3338"/><path d="m80.04 8.592c-23.076 27.408-15.24 62.82 15.288 69.78l.696-63.6s-2.604-8.112-15.984-6.18z" fill="#4d555b"/><path d="m82.2 9.24c-23.076 27.42-15.228 62.76 15.288 69.78l.696-63.6s-2.604-8.112-15.984-6.18z" fill="#2c3338"/><path d="m75.912 59.556-2.844-4.368 1.272-6.576 2.436 10.824z" fill="#42484e"/><path d="m134.772 57.732c.108 1.044 6.12-26.232-.96-41.532-21.384-25.968-42.708-14.52-52.212-7.8l11.1 1.2z" fill="#42484e"/><path d="m74.028 40.404s-1.464 11.292 2.772 19.032c15.876 26.616 76.572-11.64 46.476-23.052z" fill="#ffc392"/><path d="m74.028 40.404s-1.464 11.292 2.772 19.032c15.876 26.616 76.572-11.64 46.476-23.052z" fill="#ffc392"/><path d="m74.232 51.276c-.4591502-3.2511422-.5597536-6.5428864-.3-9.816.4984942-.5014432 1.0840191-.9080577 1.728-1.2l46.536-3.804c.624.732 6 10.8 6 10.8l-.648 7.104c-2.528387 2.7364792-5.482486 5.0462686-8.748 6.84h-2.088c2.16-1.992 2.304-10.356-2.016-10.992-4.8 1.284-8.184 7.2-14.556 1.2 0 0-8.94 1.44-15.72.468-1.332 1.428-7.38 4.32-10.188-.6z" fill="#eaaf83"/><path d="m102 49.2c.876 5.1 9.264 4.296 8.928-1.284-.912-5.064-9.312-4.272-8.928 1.284z" fill="#2c3338"/><path d="m107.832 48.384c.192 1.692 3.696-.216.852-1.056-.312.084-.6.168-.852 1.056z" fill="#f6f6f6"/><path d="m74.928 48.9c.624 4.632 7.716 4.8 7.368-1.068-.636-4.632-7.716-4.86-7.368 1.068z" fill="#2c3338"/><path d="m78.996 49.2c.204 1.692 3.696-.216.852-1.056-.3.132-.588.204-.852 1.056z" fill="#f6f6f6"/><path d="m74.904 61.2s3.684-4.68 12-5.544c.8583546 8.5232509 2.5914821 16.9355543 5.172 25.104-13.548-1.632-17.172-19.56-17.172-19.56z" fill="#363d42"/><path d="m126.3 51.084s-28.164 23.184-53.232 4.116l1.836 6 43.68 5.4s12.072-7.308 7.716-15.516z" fill="#363d42"/><path d="m127.2 49.812s-3.384 18.816-20.676 24.36c0 0 13.416 3.948 24.072-9.336.036-.036 2.304-8.94-3.396-15.024z" fill="#42484e"/><path d="m86.952 55.62c9.432-1.884 31.572 10.8 31.63222 10.944.05978.144-12.14422 15.984-26.50822 14.196-3.096-1.476-7.572-18.36-5.124-25.14z" fill="#42484e"/><path d="m85.836 49.788c-5.52-.336-10.8-4.704-13.596-7.2 0 0 2.304-21.912 17.172-32.532 0 .048-5.724 12.516-3.576 39.732z" fill="#363d42"/><path d="m124.02 41.736s-22.02 9.036-38.184 8.052c-3.924-27.912 3.6-39.684 3.6-39.684s20.556 2.508 34.584 31.632z" fill="#42484e"/><path d="m87.864 13.416c.4117939-1.1497732.9300432-2.2585856 1.548-3.312 0 0 20.568 2.4 34.5 30.828-5.65753 2.188261-11.44938 4.0119926-17.34 5.46 18.468-11.004-10.812-30.216-18.708-32.976z" fill="#363d42"/><path d="m80.628 6-.588 2.592s43.02 13.2 45.6 56.1c0 .804.108 5.016-13.08 9.336-.804.264 7.2.204 13.2-4.32l10.92-10.452c.888-19.032-11.676-48.936-46.8-58.008z" fill="#4d555b"/><path d="m93.336 80.58c12.456-1.56 20.4-14.232 9.36-21.36 5.184447 2.1755029 10.229996 4.6682209 15.108 7.464 0 .252-12.144 15.984-26.508 14.184 0 0-.084-.072-.132-.096.72-.036 1.44-.084 2.172-.192z" fill="#363d42"/><path d="m138.216 56.868c5.928-11.304 22.992-3.168 25.752 4.62.648 3.312-13.2 9.336-13.2 9.288s-12.912-9.24-12.552-13.908z" fill="#ffc392"/><path d="m156.156 61.08c-1.668-4.608-13.02-10.32-15.708-4.14-16.236 37.38-35.448 25.992-31.98 39.6 5.112 20.052 57.54-8.088 47.688-35.46z" fill="#4d555b"/><path d="m203.172 104.4c-27.6-18.948-47.724-14.952-47.724-14.952 55.572 9.372 66.72 43.056 67.692 44.4.648-2.076-3.636-18.204-19.968-29.448z" fill="#aeaeae"/><path d="m187.788 123.912c-31.092-12.312-49.86-3.912-49.86-3.912 56.268-3.204 74.616 27.168 75.852 28.248.18-2.256-7.584-17.016-25.992-24.336z" fill="#aeaeae"/></g></svg>