<svg height="100" viewBox="0 0 149 100" width="149" xmlns="http://www.w3.org/2000/svg"><g fill="none" fill-rule="evenodd" transform="translate(-1)"><path d="m140.53 40c-15.31-12-31.8-23.7-50.31-31.68-19.94-11.32-24.15-6.24-37.14 7 7.22 4.33 14 .86 22.12 2.59-7.71 1.63-16.34 2.78-23.52-2-14.4 12.23-30.49 23.69-43.22 37.92 32.33 20.48 111.84 14.89 133.42-12.76-.55-.44-.94-.77-1.35-1.07z" fill="#e7ae39" fill-rule="nonzero"/><path d="m108.93 62.3c1.271571 1.1303724 2.322652 2.4866047 3.1 4-8.25 4.18-19.51 4.7-29.43 6.38l-1.18-1.55c-.36.62-.65 1.1-.94 1.58l-4.48.29-.9-1.25-.45 1.31c-1.0240171.3303456-2.1259829.3303456-3.15 0-.71-.69-.19-1.82-1.28-2.47.34 2.73-1.38 4-5.26 3.49-.08-1-.15-2-.24-3.22-1.1.81-.57 1.93-.86 2.89-10.0807934-.1765513-20.1046994-1.5529081-29.86-4.1.53-1 1.31-5.07-1.39-.66-.8925096.1520101-1.8102348.0043301-2.61-.42.09-.54.18-1 .29-1.68-1.87.53-4.24 2.07-6.62-.06-.13-1.15.62-1.84 1-2.67-1.2-.95-1.56 0-2.6 2.1-2.45-.43-4.57-1.61-6.72-2.43-.13-1.69 1.6-4.4 4-2.77 28.28 9.33 60.1 7.94 89.58 1.24z" fill="#d89739"/><path d="m133 57.26c-3.12 1.61-5.71 3.24-9.71 5-.38-1.88-3-5.73-1.77.7-1.14 1-2.54.94-3.88 1.31-.4-.62 0-2.58-1.1-3.48-1.14 1.22 0 2.58-.21 4-.68.91-1.86.92-2.9 1.35l-2.65-4c4.51-1.73 9.44-3.76 14.84-5.75-.57.5-.55 1.21.6 2.21.32-.63 1.13-1-.66-2.17 3.45-2.41 8.29-4.51 12.25-7.81 1.62-.11 2.73 1.63 4.48 1-.57-1.41-2-1.39-2.94-2.25.8-2.36 5.6-3.6 5.4-7.5 1.69.42 3.91 2.18 2.08 4.54-1.78-1-5.55-1-3.74 2.1.300959-.4455317.539822-.9299858.71-1.44.912958-.0654259 1.823996.1509892 2.61.62-2.51 5.08-7.74 8.71-13.43 11.67 0-.9-.21-1.59-1.61-1.87z" fill="#d89739"/><path d="m105 84.08c-35.81-.86-57 9.26-74.51-13.25 2.73-.8 4.59 2.93 7.66 5.39 18.96 16.31 46.7.48 66.85 7.86z" fill="#a18b68"/><path d="m16.23 58.92-2.39 4.27c-1.84-.19-4.1-1.7-7.29-3.55-.16-1.47.87-2.16 1.42-3-.58-.95-1.31-.22-2.44 1.13l-1.66.12c-.79-1.38-.59-6 3-5.42-.24.52-.46 1-.73 1.62 1.79094548 1.2052691 3.66951714 2.2749184 5.62 3.2-.37 1.25-1.83 2.22-.86 3.88 1.61-1.8 1.84-3.48 5.33-2.25z" fill="#d89739"/><path d="m117.13 84.06c3.61 2.57 11.47 5.63 11 10.69-2.7-3.05-13.23-8.11-11-10.69z" fill="#a18b68"/><path d="m126.18 97.73c-4.84 1.23-15.54-2.66-15.7-9.16 4 4.25 8.91 8.18 15.72 8.66 0 .17-.01.33-.02.5z" fill="#a18b68"/><path d="m114.16 79c1.51-4.15 3.78-8 4.13-12.62.551768-.5187252 1.349196-.6813076 2.06-.42.45.95-3.67 9.89-6.19 13.04z" fill="#a18b68"/><path d="m106.32 82.25c1.59-.54 3.28-1.2 5.07-.16-1.76.69-2.39.36-5.07.16z" fill="#a18b68"/><path d="m111.69 84 2.28-.54c-.31 1-.59 2.34-2.28.54z" fill="#a18b68"/><path d="m110.13 87.47c0 .06-1.54-1.06 0-1.57-.13.24.56.42 0 1.57z" fill="#a18b68"/><g fill="#000" fill-rule="nonzero"><path d="m140.78 37.59c11.9-.41 9.3 8.7 2.76 15.26-6 5.12-12.62 7.42-19.8 11.52-3.39 3.71-4.61 10.91-7.87 15.53-1.44 1.74 1.66 2.87 3.47 4.19 28.06 15.42-6.49 24-11.86 1.44-11.17.9-23.5 0-35.52.68-16.11 2.71-33.89-.49-42.7-15.65-7.32-1.41-43.26-14.82-21.2-20.06 22.82-20.5 55.51-50.08 64.06-50.5 26.14 5.51 47.35 21.77 68.66 37.59zm-15.18 18.77c-4.52 1.66-9.47 3.67-14.85 5.75l2.65 4c1-.43 2.22-.44 2.9-1.35.24-1.38-.93-2.74.21-4 .84.5.52 1.68 1.1 3.48 1.34-.37 2.74-.28 3.88-1.31-.52-2-.52-6.71 1.77-.7 2.44-1 6.59-3.33 9.71-5v.06c4.6-2.56 10.72-5.93 13.43-11.68-.786004-.4690108-1.697042-.6854259-2.61-.62-.155713.5158391-.395613 1.0023957-.71 1.44-1.65-1.44.74-3.83 3.74-2.1 1.27-1.39.6-4-2.08-4.54.38 3.11-3.54 4.44-5.4 7.5.89.86 2.37.84 2.94 2.25-1.75.65-2.86-1.09-4.48-1-3.41 2.86-7.79 4.82-12.25 7.81zm16.28-15.29c-15.69-12.4-32.62-24.54-51.66-32.76-19.94-11.31-24.15-6.23-37.14 7.01 7.22 4.33 14 .86 22.12 2.59-7.71 1.63-16.34 2.78-23.52-2-14.4 12.23-30.49 23.69-43.22 37.92 32.33 20.48 111.84 14.89 133.42-12.76zm-104.88 31.56c11.86 12.84 30.75 8.57 46.81 7.94 10.29-1 18.3 1.51 28.41-2.06 1.12-3.09 5-7.4 4.13-11.43-25.01 8.92-52.66 10.23-79.35 5.55zm71.93-10.33c-70 15.83-94.14-9-93.54 1.53 2.15.82 4.27 2 6.72 2.43.55-.22.64-3.52 2.6-2.1-.4.83-1.15 1.52-1 2.67 1.84 1.63 3.94 1 6.62.06-.11.66-.2 1.14-.29 1.68.788263.4155624 1.6904541.5630022 2.57.42.42-1 3.07-4.29 1.39.66 9.7710755 2.5532749 19.8122712 3.9297009 29.91 4.1.29-1-.24-2.08.86-2.89.09 1.18.16 2.17.24 3.22 2 0 5.73.77 5.26-3.49 1.09.65.57 1.78 1.28 2.47 1.0240171.3303456 2.1259829.3303456 3.15 0l.45-1.31.85 1.25 4.45-.33c.29-.48.58-1 .94-1.58l1.18 1.55c9.23-1.6 20.59-2 29.43-6.43-.777647-1.4787906-1.81793-2.8037106-3.07-3.91zm-4 21.78c-16.26-6-37.84 3.46-56.12-2-8.35-1.07-11-9.21-18.39-11.2 10.58 13.88 25.77 16.66 42.17 13.98 11.13-.94 20.8.05 32.41-.78zm6.84 1.92c1.12 5.15 8 10.43 14.11 9.26-3.69-3.39-8.03-9.19-14.11-9.26zm-95.54-27c-1.005564-.4519937-2.1530964-.4689153-3.1715506-.0467679s-1.8175167 1.2459289-2.2084494 2.2767679c-1-1.66.49-2.63.86-3.88-1.95048286-.9250816-3.82905452-1.9947309-5.62-3.2.27-.6.49-1.1.73-1.62-2.43-.56-4.19 2.39-2.95 5.42l1.66-.12c.47-.17 1.24-2.5 2.47-1.21-.55.86-1.58 1.55-1.42 3 1.64.82 3.74 2.69 7.29 3.55zm100.9 25.14c-2.11 2.33 9.45 8.87 11 10.69.87-4.7-7.46-8.33-11-10.77zm9.05 13.67c0-.17 0-.33 0-.5-5.59-.23-11.57-4-15.72-8.66.62 6.03 9.26 10.25 15.72 9.08zm-12.02-18.81c2.52-3.1 6.64-12 6.19-13-.710804-.2613076-1.508232-.0987252-2.06.42-.35 4.49-2.62 8.38-4.13 12.58zm-7.84 3.3c1-.07 2.88.73 5.07-.16-1.79-1.09-3.48-.43-5.07.11zm5.37 1.7c1.15 1.07 1.89 1.39 2.28-.54zm-1.56 3.44c.26-.6.33-.26 0-1.57-.66 0-1.13.77 0 1.6z"/><path d="m108.5 25c-12.26 10-37.31 15.84-52.5 12 22.66 0 32.33-3.44 52.5-12z"/><path d="m134.47 41.43c-6.58-2.11-11.37-9.1-17.85-12.77 4.77-1.04 14.25 9.52 17.85 12.77z"/><path d="m32.4 39.5c-4.1 4.09-7.76 10.12-12.9 13.74 1.87-4.66 7.36-11.24 12.9-13.74z"/><path d="m44.7 32.33c-1.9-2.7 5.42-9.89 7.53-11.95.13 3.62-5.31 7.79-7.53 11.95z"/><path d="m33.31 51.71c-1.8-2.31 4.37-7.58 6.62-9.26 4.32-1.82-5.57 7.86-6.62 9.26z"/><path d="m82.22 16.89c2.46-2 6.71-2 10.11-4.33 4.59-.06-7.53 6.44-10.11 4.33z"/><path d="m99.47 51.1c-3.28-2.37-4.7-6.32-7-10.54 2.53.02 5.7 6.87 7 10.54z"/><path d="m69.46 55.38c-2.77-.1-1.4-5.37-2.07-8.3 1.03-6.41 2.44 5.82 2.07 8.3z"/><path d="m76.15 44.8c1.83 0 2.95 9.17.7 9.58z"/><path d="m58.72 54.86c-.480425-3.3515157.227134-6.7654876 2-9.65 1.46 2.05-.42 6.66-2 9.65z"/><path d="m47.09 54c.5-3.05 3.58-5.56 6-8.74.45 2.42-2.31 4.22-3.92 6.73-.91.68-.24 3.13-2.08 2.01z"/><path d="m71.17 6.37c1.72 1.51 1.23 4.86 2.12 7.87-1.29 2.69-2.79-4.5-2.12-7.87z"/><path d="m44.44 45.89c.36 2.57-3.66 3.78-2.86 6.82-5.28 3.29.31-5.12 2.86-6.82z"/><path d="m108.64 24c-3.71-.14-5.23-2.64-7.21-4.41.86-2.17 5.32 2.41 7.21 4.41z"/><path d="m113.81 36.68c2.58-.15 6 2.48 7.27 5.33-2.42-.51-4.98-2.77-7.27-5.33z"/><path d="m63.31 24.3c.76 2.78-2.34 4.72-3 8.29-3.18-.11 1.55-6.34 3-8.29z"/><path d="m97 28.13c-2 1.31-5.06-2.29-6.24-4.53 2.13-.76 3.93 2.73 6.24 4.53z"/><path d="m109 46.38c-2.67-.85-4.71-4.36-5.68-7.1 2.15 1.03 4.39 4.08 5.68 7.1z"/><path d="m71.12 26.29c-.45.49-.91 8.27-2.79 4.71.39-.58.67-6.07 2.79-4.71z"/><path d="m43.81 35.35c-1.76.47-4.77.13-6.25-1.49-.27-2.13 4.14.25 6.25 1.49z"/><path d="m115.38 45.18c-1.8-.66-3.09-2.84-4.84-5 1.6-.47 4.87 2.47 4.84 5z"/><path d="m82.54 7.73c1.13-2.57 7.08 7.21 2.85 3.74-1.05-1.41-1.21-1.69-2.85-3.74z"/><path d="m58.53 24.56c-.9382603 2.6252512-2.3669458 5.0482477-4.21 7.14-1.01-1.77 2.68-5.2 4.21-7.14z"/><path d="m101.26 24.32c-1.74.55-4.06-2.68-3.82-4.84 1.91 1.04 2.69 2.91 3.82 4.84z"/><path d="m74.29 8.4c1.39.49 3.38 3.24 2.54 5.28-1.71-.45-1.83-2.77-2.54-5.28z"/><path d="m80.48 13.54c-1.08-1.39-3.78-3.17-3.16-5.54 1.6727435 1.417021 2.7917828 3.378881 3.16 5.54z"/><path d="m110.64 24.77c-2.93-1.37 7-4.44 2.31-1.07-.53.3-1.07.51-2.31 1.07z"/><path d="m83 25.91c1.51-.09 2.4 1.67 2.17 3.73-1.17 1.18-1.63-1.47-2.17-3.73z"/><path d="m74.88 30.94c-1.26.68-1.64-1.47-1.17-3.26 1.09 1.07 1.09 1.07 1.17 3.26z"/><path d="m78.85 30.82c-.87-.24-2.56-3.3-.4-2.61.43.41.7 1.11.4 2.61z"/><path d="m64.06 10.54c.37.71.87 2.73-.48 3.35-.73-.64-.53-1.71.48-3.35z"/><path d="m69.24 8-.46.3c-.118494-.18516479-.2157728-.38307693-.29-.59 0-.09.15-.22.23-.33z"/><path d="m125.53 56.4c0 .16 1.88.92.66 2.17-.14-.4-1.81-1.18-.6-2.21z"/><path d="m133 57.26-1.63-1.82c1.4.28 1.64 1 1.61 1.87z"/></g></g></svg>