<svg height="153" viewBox="0 0 131 153" width="131" xmlns="http://www.w3.org/2000/svg"><g fill="none" fill-rule="evenodd"><g fill="#1d1819"><path d="m73.5969149 147.964909c21.8031383 0 39.4811701 1.071 39.4811701 2.392364 0 1.321363-17.6780318 2.392363-39.4811701 2.392363s-39.4532979-1.071-39.4532979-2.392363c0-1.321364 17.6780319-2.392364 39.4881383-2.392364z"/><path d="m61.2564362 119.1105-18.4932979 23.221227s-2.2785638 2.128091-3.2262234 2.176773c-1.0403694.139034-1.8979515.882833-2.1810106 1.891636-.3344681 1.043182-.5226064 2.225455 0 2.461909.5226063.236455 5.3584574 1.39091 8.2502127.952773 1.7940491-.294199 3.5072585-.957311 5.0309575-1.947273.2369149-.090409 2.9405319-.375545 2.9405319-.375545l.6968085-2.274136s17.4620213-13.164955 20.1168617-13.728273 7.3025532-.758046 8.9191489-.285136c1.6165958.472909 15.0371277 7.086681 15.0371277 7.086681l-3.5815958 6.161728s-1.2681914 2.552318-1.2194148 3.213c.0487765.660681 3.4143617.695454 3.4143617.695454s1.560851 1.390909 2.8917553 1.6065c1.3309044.215591 7.8251594.695455 8.6334574.194727.808298-.500727 0-3.080863 0-3.699818 0-.618954-1.184574-1.467409-1.184574-1.467409s4.125106-6.627682 4.125106-7.761273c0-1.13359-16.3122873-17.650636-16.7234043-18.561681-.411117-.911046-33.4468085.465954-33.4468085.465954z"/><path d="m42.1987234 34.7727273s-15.72-1.3005-27.5169681 4.7012727c-11.79696807 6.0017727-14.6817553 12.7615909-14.6817553 12.7615909 7.76677644-.596269 15.4632663-1.8951467 22.9946809-3.8806364 11.8457446-3.2060454 17.4202127-7.1770909 17.4202127-7.1770909z"/><path d="m40.8469149 46.2338182s-8.4731915 9.1521818-17.5317021 12.4069091c-9.0585107 3.2547272-14.50755323 3.0252272-14.50755323 3.0252272s6.96808513-12.0591818 19.51063833-18.9441818 16.1729255-4.7290909 16.1729255-4.7290909z"/><path d="m51.4802128 86.4171818c4.6814425-1.0316729 9.425079-1.7587942 14.2009574-2.1767727 8.8076596-.8484546 12.6540426 0 12.6540426 0s3.8463829-.8484546 12.6540425 0c4.7853275.4159799 9.5383647 1.1431151 14.2288297 2.1767727l-7.2677127 19.7926362-2.9056914 9.847637-3.2889362.778909c-3.2471277.758045-13.4205319.945818-13.4205319.945818s-10.1803724-.187773-13.4275-.945818l-3.2471277-.758046-2.9126596-9.847636z"/><path d="m62.9427128 114.311864c3.1913829.632863 6.5221276 1.133591 9.7553191 1.460454 1.8498175.218215 3.7119256.315786 5.5744681.292091h.0905851c1.862546.023873 3.7246657-.073699 5.5744681-.292091 3.2331915-.326863 6.5709042-.827591 9.7553191-1.460454l1.3936171-.271228 1.7907978 4.388319-1.4842021.695454c-1.5198089.671028-3.0734546 1.262959-4.6546808 1.773409-3.3283102 1.141098-6.7768543 1.897137-10.2779256 2.253273-.6480319.055636-1.2890957.090409-1.9371276.111273h-.4111171c-.6410638 0-1.2890957-.055637-1.9301595-.111273-3.5033209-.356278-6.9541568-1.112306-10.2848936-2.253273-1.5812263-.51045-3.134872-1.102381-4.6546809-1.773409l-1.4842021-.695454 1.8117021-4.37441 1.393617.271228z"/></g><path d="m62.6082447 115.980955s9.825 1.933363 15.7269681 1.780363c5.895.153 15.72-1.780363 15.72-1.780363l.6480319 1.585636s-8.3617021 3.790227-16.207766 3.984954h-.3275c-7.8739361-.194727-16.2077659-3.984954-16.2077659-3.984954z" fill="#fff000"/><path d="m89.1496809 82.9120909-13.1905852 24.0557731 2.3761171-7.670864-9.3999468-16.3849091z" fill="#fff000"/><path d="m38.1432979 28.7570455c-4.9194681 12.2747727-5.5326596 29.772409-.7664894 39.2445 7.7485106 15.4043181 28.1998404 23.346409 34.4293085 25.5996818 2.1291886.5680794 4.3089784.9267897 6.5081915 1.071 2.190601.2531701 4.4008568.2904409 6.5987766.1112727 6.5360638-1.1057727 28.0813829-5.2506818 38.4707979-19.0206818 6.389734-8.4636818 8.940053-25.8083182 6.306117-38.7437727-2.9475-14.4724091-6.745106-24.9459546-22.381489-31.19113641-7.4279791-2.95568182-15.1277131-5.21590909-20.4304259-5.69577273-5.3027128-.47986363-13.2811702.36163637-21.1132979 1.95422728-16.5143617 3.33818181-22.1236702 12.96327276-27.6214893 26.67068186z" fill="#1d1819"/><path d="m42.0454255 30.3148636c-3.8463829 9.5833637-5.6302127 26.4272728-.905851 35.802 1.1312548 2.1958301 2.5258135 4.2462385 4.1529787 6.1060909-1.010344-1.3130506-1.9077709-2.7089204-2.6827128-4.1727272-4.8776595-9.4025455-3.1007978-26.2325455.8361702-35.8089546 5.3305851-12.9493636 10.2082447-21.1557272 25.2244681-24.06968179 6.1179787-1.18227273 14.2497341-2.39236364 20.5210107-1.82904546 6.2712766.56331819 14.0406916 3.213 19.8520746 5.47322725 1.380329.5340455 2.731668 1.1399218 4.048457 1.8151364-2.286073-1.5861128-4.75405-2.8935839-7.35133-3.89454546-5.630212-2.24631819-13.1905846-4.86818182-19.2388825-5.41063637-6.0482979-.54245454-13.9361702.69545455-19.9008511 1.88468182-14.5981383 2.94177273-19.3573404 11.17595451-24.5555319 24.10445451z" fill="#fefefe"/><path d="m44.9302128 56.5613182s-1.3936171-12.9632727 8.1317553-14.0551364c9.5253723-1.0918636 19.1482979 8.3454546 24.7854787 10.6056818 1.8047341.6954546 3.1286702 1.2379091 4.090266 1.5856364 1.0103723-.1738636 2.4039893-.4311818 4.3062766-.8275909 5.9577127-1.2379091 17.1414896-8.7627273 26.2905846-5.9948182 9.149096 2.7679091 5.469947 15.3 5.469947 15.3s-2.856915 7.2605455-13.490212 9.6807273c-8.0760111 1.836-19.1064899-1.2657273-23.9632452-2.8652727-5.0588298.6954545-16.4725532 1.7803636-24.0817021-1.4674091-10.0270745-4.2979091-11.5391489-11.9618182-11.5391489-11.9618182z" fill="#fbd7a3"/><path d="m90.0764362 62.6952273c.3310348-1.0343058.8507568-1.9986389 1.5329787-2.8444091 1.0103723-1.1475 7.2746808-3.4216364 11.4834041-4.4230909 4.208724-1.0014546 2.355213.2086363 2.355213.2086363z" fill="#1d1819"/><path d="m100.890904 57.1176818c1.028558 1.2424251 1.504257 2.8501269 1.316968 4.4509091-.264787 2.9348182-2.3273401 5.1463636-4.5989358 4.9377273-2.2715958-.2086364-3.9090958-2.7470455-3.6443085-5.6818637 0-.2086363.0278723-.4172727.083617-.625909z" fill="#1d1819"/><path d="m72.4680851 61.1095909c-.1390143-1.0772779-.4768646-2.1195134-.9964362-3.0739091-.7943617-1.3074545-6.5430319-4.6665-10.5078723-6.4120909s-2.3482447-.2086364-2.3482447-.2086364z" fill="#1d1819"/><path d="m62.8590957 53.6821364c-1.2398607 1.0465726-1.9954538 2.5548224-2.0904255 4.1727272-.2717553 2.9348182 1.393617 5.4801819 3.6373404 5.6818637s4.3411171-2.0029091 4.6059043-4.9377273c0-.2086364 0-.4172727 0-.6259091l-6.1737234-4.2631364z" fill="#1d1819"/><path d="m57.8351064 85.4365909-27.8723404-7.9907727s-.8501064-2.5314546-1.2333511-3.4077273c0 0-.6968085-1.9959545.0696808-3.4772727.7664894-1.4813182-3.5746276-1.2031364-3.442234 1.9542273.0160453.4418743.0696599.8815906.160266 1.314409-.7664894-.0834545-3.191383-.2364545-3.191383-.2364545s-6.6196809-1.6343182-7.0935107-1.5647727c-.4738297.0695454-1.3518085 2.0376818-1.066117 2.5314545s4.5292553 1.6551818 4.5292553 1.6551818l-.1393617 3.9293182s-4.4874468.6954546-4.4874468 1.1614091c0 .4659546 0 2.2045909.404149 2.3715.4041489.1669091 4.6059042-.5007273 4.6059042-.5007273l6.8078192 2.7818182 30.6386702 14.1872732s2.2506915-1.3422277 2.0904255-6.6485459c-.063626-2.702126-.3244586-5.3960324-.7804255-8.0603182z" fill="#1d1819"/><path d="m101.957021 89.5606364s12.333511 15.1609086 13.469309 19.3266816-8.438351 11.920091-10.95383 13.248409-4.034521 2.322818-4.368989 2.225455c-.5047938-.2287-.9741113-.52848-1.3936174-.890182-.3553723-.292091-1.6375-1.780364-1.6375-1.780364-.3519721.119896-.7296203.143904-1.0939893.069546-.3275-.166909-1.4493617-1.773409-1.2751596-2.086364.3750251-.446956.7876441-.8611 1.233351-1.237909l.1393617-1.536954c0-.236455 2.536383-1.870773 3.1565426-1.870773s2.369149.264273 2.752394 0c.383244-.264273 3.107766-6.175637 3.107766-6.175637l-7.9993621-5.661s-.6968085-4.5482723.5226064-8.0533632c.8614278-2.2509237 2.3630164-4.201613 4.3202127-5.6123182z" fill="#1d1819"/></g></svg>