<svg height="117" viewBox="0 0 116 117" width="116" xmlns="http://www.w3.org/2000/svg"><g fill="none"><path d="m47.38 35.31c-6.27 17.69-12.77 36.45-19.21 54.51 18.2-.78 37.65 4.8 53.87 14 8.18-22.08 15.76-45 23.29-67.84-16.3296797-9.0165935-34.7973658-13.4399913-53.44-12.8-1.34 4.12-3.13 8.2-4.51 12.13zm2.62 14.79c4.3966165.1225716 8.7783449.5670948 13.11 1.33-.91 1.57-11.5-.06-13.11-1.33zm-2 34.75c-7.36.49-4.69-8 1-7.65.0812013.0160605.1549379.0581957.21.12 6.72.04 4.12 7.51-1.21 7.53zm11.46-15.12c-3.24-.38-14.35-1.44-14.25-3.83 3.38 1.17 13.13 1.26 14.25 3.83zm1.34-3.58c-5.24-.75-12-2.43-17.6-3.69.01-2.06 20.57 2.18 17.6 3.69zm-11.55-8.36c2 .56 9.16-.49 10 1.41-1.97-.41-9.51.54-10-1.41zm-2.56-3c.93-1.94 12.81-.34 15.5 1.51-3.91 1.14-10.68-1.61-15.5-1.56zm22.86 32.72c-1-.5-7.4-1.08-6.81-2.9 1.06.61 7.62 1.15 6.81 2.9zm4.16-1.74c-3.6932753-1.794086-7.5689303-3.1854328-11.56-4.15-.47-2.68 13.77 2.56 11.56 4.15zm16.37-37.48c-3-.63-7.37-1.79-11.06-2.23-1.02-1.48 12.77.79 11.06 2.23zm-1.73-17.17c1.44.57 5.25.81 6.9 2.54-.85.51-8.06-.94-6.9-2.54zm-6.3 2.58c3.82.3 13.61 1.3 14.84 4.22-3.5-1.92-13.78-1.87-14.84-4.22zm-2.67 3.39c3.28 0 9.31 0 12.11 2.7-2.33.53-5.69-1.67-9.13-1.76-.78-.43-3.64.39-2.98-.94zm-4.3 2.25c6.81 1.7 15.41 3.13 22.3 5.86-4.04 1.22-18.46-3.62-22.3-5.86zm2.32 21.58c1.69-1.74 3.34-4 5.49-5.14h.1c.63-.44 1.76-.39 3.4-.18.1437819-.0093817.2850109.0413159.39.14.17.09.17 0 .21.34-3.3460389 4.5736447-7.0582589 8.8677802-11.1 12.84.16.45 1.37.39 1.34 1.61.43.91-2.34 2.38-5.07.64-.73 4.16-8.2 3.27-3-1.84-.3-.38-2.08-1.11-2.1-2.25.3698755-1.0300674 1.0739592-1.9066517 2-2.49 1 0 1.77.84 3.39 1.79 1.11-2.09 3.38-3.83 4.95-5.46zm-20.85-18.57c2.62-4.15 3-7.38.34-11.56v-.05c-.1037158-.1283309-.1037158-.3116691 0-.44 0-.26 0 0 .41-.14l.09.16c7.59 6.8 16.4-8.78 8.64 5.19 6.19 4.16 7.08 6.81-2.37 3.65-1.38.52-5.58 4.61-7.11 3.19z" fill="#fff"/><path d="m79 92c-9.9-5-22-4.2-33.26-4.87-3.81.02-4.74-2.93-7.74-5.13-2.41-.6-2.31-.75-1.56-4 4.9483884-18.576485 10.9412509-36.8588889 17.95-54.76-.83 0-1.67 0-2.5-.06-8 21.34-16 45.06-23.72 66.64 18.2-.78 37.65 4.8 53.87 14 .83-2.91 1.88-5.79 3-8.65-1.9219936-1.2222453-3.9422866-2.2825647-6.04-3.17z" fill="#c4c5c6"/><path d="m67.08 17.71c-4.4-.35-9.28.31-13.66-.46-.2949462 1.6052445-.6856438 3.1914102-1.17 4.75 18.42-1.79 37.88 3.64 54.13 12.57-4.8 23.2-14.2 48.07-23.43 70.58-.13.2-.29.42-1.08.35-16.616069-9.1242907-35.1971242-14.0826702-54.15-14.45-.51 1.42-1 2.85-1.53 4.27 20.54.68 41.81 8.37 59.61 19.25 8.94-26.7 17.82-54 28.11-80.71-13.91-8.76-29.91-14.97-46.83-16.15z" fill="#3c5777"/><path d="m63.6 38.18c1.12-.28 2.22.3 4.3.64-1.1377305-.8603906-2.0815388-1.9507107-2.77-3.2-.0100129-.0461296-.0100129-.0938704 0-.14.3548489-1.4534885.9533122-2.8363782 1.77-4.09-1.84 1.63-4.82 4.26-8 1.24 2 2.13 1.59 5.48-.7 8.46 1.6757889-1.1127351 3.4458977-2.0764238 5.29-2.88.0345751-.0165043.0718331-.0266656.11-.03z" fill="#939ba3"/><path d="m68.8 66.36c-.3417347.3092091-.7255475.568451-1.14.77 2 1.06 4.65 3 7.53 4.51.2890277-.3926507.6248372-.7486088 1-1.06-2.3194194-1.4580666-4.4957723-3.1321842-6.5-5-.2609532.2981286-.5602186.5604062-.89.78z" fill="#939ba3"/><path d="m80.1 62.56c1.72-2 3.43-4 5.17-6-.6991371.1086526-1.4108629.1086526-2.11 0-2.8961884 3.792391-6.1918014 7.2623395-9.83 10.35.67.49 1.33 1 2 1.51 1.4048961-2.0969841 3.0017725-4.0587652 4.77-5.86z" fill="#c4c5c6"/><path d="m8.14 100c1.57.64 4.33 1.42 6.79.07-2.1581715-.9525351-4.6126494-.977839-6.79-.07z" fill="#d68c63"/><path d="m20.93 89.87c-4.93-3.87-12.62-4.72-19.23-3.29-.55 3 2 5.42 5.57 6.24.46-.32.1-2.28 1.67-2.74 2.81-1.76 11.43-.35 11.23 3.44.0324168.9879695-.1272004 1.9728414-.47 2.9 4.81.07 4.77-4.85 1.23-6.55z" fill="#3c5777"/><path d="m9.08 91.29c-.05280433.9083998-.15629881 1.8131419-.31 2.71.00971765.0696627.00971765.1403373 0 .21-.3 1.66-.73 3.31-1.18 4.9 2.43-1.58 6.83-1.52 8.89.36l.24-.09c.8746172-1.9101935 1.6359362-3.8702559 2.28-5.87-3.16-2.51-6.12-2.69-9.92-2.22z" fill="#eab27a"/><path d="m48 8.94c.2308277-1.21566256.7446978-2.3598799 1.5-3.34-2.96-2.55-6.5-3.82-10.99-4.29-.1902564 1.13837463-.5263552 2.24750066-1 3.3 3.7974609.56625939 7.3987757 2.05278875 10.49 4.33z" fill="#eab27a"/><path d="m30.84 12.41c-1 2.94-2.11 5.83-3.34 8.69 2.11-1.16 5.25-7.33 3.34-8.69z" fill="#fff"/><path d="m23.78 30.63c.3342678-.0012033.6682742.0188371 1 .06.47-1.4.85-2.84 1.25-4.27l-.66.07c-.47 1.4-1.04 2.77-1.59 4.14z" fill="#fff"/><path d="m45.49 34.78c2-5.77 3.61-12.42 6.6-17.86-.0490942-.0692965-.0640848-.1571296-.0407541-.2387869s.0824609-.148313.1607541-.1812131h.11c-4.82-8.03-14.15-10.94-23.32-9.79-8.88 25.53-18.95 51.76-26.41 78.22 7.64-2.43 18-.23 22.77 7 6.51-18.83 13.43-38 20.13-57.15zm-18.72-8.65c-2 10.52-6.36 3.52-1.16-.54.09.2.7-.34 1.16.54zm5.66-14.37c-2.81 14.08-9.88 13.63-2.1.54-.1014088-.1025221-.1397852-.2516916-.1004431-.3904242.0393421-.1387325.1503118-.2455502.2904431-.2795758h.15c.0389077-.0586555.1046134-.0939181.175-.0939181s.1360923.0352626.175.0939181c.22.08.98-.63 1.41.13z" fill="#3c5777"/><path d="m52.08 16.21c-2.3848757-3.6552395-5.7834862-6.53606577-9.78-8.29 2.4 14.75-20.3 58.63-23.2 59.29 1.26 7.11-7.91 14-15 12.73l-1.54 5c7.64-2.43 18-.23 22.77 7 8.89-24.27 17.14-50.82 26.73-75-.0490942-.0692965-.0640848-.1571296-.0407541-.2387869s.0824609-.148313.1607541-.1812131h.11c-.0929713-.0857547-.1648448-.1918538-.21-.31z" fill="#2c415b"/><path d="m47.87 78.17h-.1c-3.78 1.1-4.91 7.1 1.64 5.33 5.22-1.77 2.59-5.96-1.54-5.33z" fill="#939ba3"/><path d="m70.18 70c-.4164238.8575351-1.0134068 1.6148507-1.75 2.22 1 1 2 .69 2.91-1.46-.36-.24-.73-.46-1.08-.7z" fill="#939ba3"/><g fill="#000"><path d="m114.88 32.27c-17.44-11.82-39.75-18.53-61.12-16.27-.39-2-2.65-4.19-4.7-6.15.81-.87 1.41-2.41 1.43-4.78-1.22-3.41-7.84-6.07-11.89-4.69-1.24-.72-1.91 2.27-2.7 4.05-2.4593829-.27562478-4.9467865.14356163-7.18 1.21-.12 0-.11 0-.52.29-.2.12 0 0-.23.4-10.9799714 25.7970921-20.0738428 52.3568114-27.21 79.47v.07c-2.45 3.55 1.7 8 6 8.67.12 1.21-2.1 4.36-.45 5.9 2.33 3 9.27 3.46 11.42.11.6754596-.7189978 1.1601922-1.5956418 1.41-2.55 2.0516789.4579014 4.195828-.1514884 5.7-1.62.1255024.0242879.2544976.0242879.38 0 51.38 7.29 56.65 22.75 61.91 19.47 9.62-26.85 19.58-54.17 27.87-82.07.204595-.2068211.308982-.4924862.285935-.7824916-.023046-.2900053-.171242-.5555976-.405935-.7275084zm-76.37-31c3.36.5 7.8 1.32 10.94 4.29-.7431768.99652033-1.2400426 2.1547317-1.45 3.38-3.1002113-2.27453812-6.7072864-3.76061188-10.51-4.33.4805215-1.05154999.823352-2.16070728 1.02-3.3zm-26.66 99.61c-1.2816613-.05267-2.54122005-.351433-3.71-.88 2.1793794-.8973605 4.6295841-.8721006 6.79.07-.9554793.490944-2.0066176.767379-3.08.81zm6.15-4.36c-.33.92-1 1.86-1.27 2.83l-.24.09c-2.06-1.88-6.46-1.94-8.89-.36.45-1.59.88-3.24 1.18-4.9.00971765-.0696627.00971765-.1403373 0-.21.15259852-.8869442.25608949-1.7816404.31-2.68 3.8-.47 6.76-.31 9.88 2.22-.45.95-.67 2.06-.97 3.01zm4-.52c-.7273084.2719261-1.4939585.4239052-2.27.45.3427996-.9271586.5024168-1.9120305.47-2.9.26-3.62-8.39-5.28-11.23-3.44-.77 0-.93.82-1.67 2.74-2.36-.78-6.3-2.32-5.6-6.27 6.22-2.73 27.69 2.8 20.3 9.42zm.83-7.12c-5.3-4.41-13.58-6.24-20.21-3.92 7.38-26.31 17.27-52.13 26.38-78.25 8.53-1.08 18.38 1.41 23.37 9.75h-.11c-.0782932.0329001-.1374234.0995558-.1607541.1812131s-.0083401.1694904.0407541.2387869c-9.62 24.22-17.62 50.1-26.73 75-.6505761-1.17999-1.539385-2.2118257-2.61-3.03zm59.17 14.89c-16.13-9-34.82-14.66-53.87-14 7.9-22 15.37-44.28 23.72-66.64 18-.56 37.27 3.57 53.44 12.75-7.29 22.37-14.88 45.34-23.29 67.89zm28.25-60.84c-7.79 23.52-16.9 47.54-24.49 71.64-17.68-10.79-38.42-18.48-59.57-19.25.52-1.42 1-2.85 1.53-4.27 18.9518657.3924524 37.5285701 5.356532 54.15 14.47.28.07.51.12 1.08-.35 9.13-22.2 18.59-47.28 23.43-70.58-16-8.87-35.46-14.3-54.13-12.57.4851304-1.5651464.8758336-3.1580133 1.17-4.77 20.84-.34 42.62 4.64 60.49 16.61-1.72 2.73-2.57 6.05-3.62 9.07z"/><path d="m32.17 11.41c-.57.05-.77.07-1.13.13-.0389077-.0586555-.1046134-.0939181-.175-.0939181s-.1360923.0352626-.175.0939181h-.15c-.1401313.0340256-.251101.1408433-.2904431.2795758-.0393421.1387326-.0009657.2879021.1004431.3904242-9.25 16.62 1.77 9.79 1.82-.8zm-.68 2.27c-.35 1.39-1.74 6.54-4 7.42 1.23-2.86 2.3-5.75 3.34-8.69 1.23-.3.79.43.66 1.27z"/><path d="m26.45 25.71-.84-.12c-6.21 5.48.44 10.29.84.12zm-1.7 5c-.3317258-.0411629-.6657322-.0612033-1-.06.55-1.37 1.12-2.74 1.56-4.14l.66-.07c-.37 1.41-.75 2.85-1.22 4.25z"/><path d="m70.87 39.59c-1.5069139-1.4932105-3.1359093-2.857954-4.87-4.08.78-1.33 3.29-4.23 3-6.44-4.74 2.59-6.47 5.18-11.63 1.25l-.09-.16c-.08-.19 0-.06-.41.14-.1037158.1283309-.1037158.3116691 0 .44v.05c6 8.41-7.21 16.91 6.74 8.37 1.3-.16 7.25 3.25 7.26.43zm-10.54-4c-.2077376-1.0824886-.6936691-2.0922611-1.41-2.93 3.07 2.28 4.7 1.74 8-1.24-.789439 1.2680782-1.3859601 2.6464801-1.77 4.09-.0100129.0461296-.0100129.0938704 0 .14.53 1.22 1.06 1.68 2.77 3.2-.8 0-2.62-.91-4.3-.64-.0298502-.0042398-.0601498-.0042398-.09 0-1.8441023.8035762-3.6142111 1.7672649-5.29 2.88 1.06-1.72 2.3-3.69 2.09-5.53z"/><path d="m87 56s.05-.19-.21-.34c-.1049891-.0986841-.2462181-.1493817-.39-.14-1.127831-.2595369-2.305877-.1971698-3.4.18h-.1c-3.897774 3.0882542-7.3829299 6.6641519-10.37 10.64-.64-.28-1.9-1.56-3.39-1.79-.9432426.563825-1.6528986 1.4473467-2 2.49-.14.77.9 1.29 2.1 2.25-3.7 2.17.24 8.22 3 2 1 .73 4.53 1.45 5.07-.84.15-.39-.35-.85-1.34-1.56 4.0253308-3.9856167 7.7145422-8.2969435 11.03-12.89zm-15.93 15.15c-.39.48-1 2.84-2.64 1 .7193108-.5943465 1.3140426-1.3250171 1.75-2.15l.08.06c.35.24.72.46 1.08.7-.0979509.1243118-.1881229.2545602-.27.39zm5.1-.57c-.3755758.3109509-.7114359.6669626-1 1.06-2.31-1.23-4.49-2.69-7.53-4.51.7717602-.3823587 1.4534772-.9243238 2-1.59 2.0119495 1.8832351 4.1984623 3.5708346 6.53 5.04zm3.93-8c-1.7751734 1.8003511-3.3787685 3.7621606-4.79 5.86-.65-.52-1.31-1-2-1.51 3.6406086-3.0851109 6.9364819-6.5553335 9.83-10.35.6935286.166084 1.4164714.166084 2.11 0-1.72 2-3.43 3.99-5.15 5.98z"/><path d="m49.22 77.32c-.0576548-.0637255-.1352074-.106027-.22-.12-3.45-.73-8.29 5.16-3.65 7.32 6.65 2.71 11.91-6.83 3.87-7.2zm3 3.75c-2.52 5.61-12.7 1.53-4.4-2.92 1.48.12 4.95-.02 4.35 2.92z"/><path d="m74.11 85.25c-1.89-2-11.28-6.12-12-3.63 3.41 0 9.42 4.28 12 3.63z"/><path d="m69.83 86.85c-1.18-.19-7.08-3.44-7.29-1.51 1.23.1 6.38 3.23 7.29 1.51z"/><path d="m59.56 69c-4.7248871-1.2874379-9.5150088-2.3222377-14.35-3.1-2.08 1.4 16.32 5.37 14.35 3.1z"/><path d="m61 65.34c-4.37-1.41-14.87-4.83-17.82-2.88 4.57.32 15.3 4.99 17.82 2.88z"/><path d="m59.3 58.59c-2.58-.44-6.69-.63-10-.8-.66 1.15 9.41 2.21 10 .8z"/><path d="m61.89 55.77c-3.23-.83-14.56-3.29-15.2-1 3.64-.44 13.71 3.33 15.2 1z"/><path d="m63.07 51.43c-3.22-.31-10.58-2.14-13.17-.87 3.01.07 11.79 2.9 13.17.87z"/><path d="m90.26 47.64c-2.26-.64-10.03-3.3-11.26-1.58 2.59-.4 9.89 3.18 11.26 1.58z"/><path d="m97.38 45.2c-7.3441872-2.6177007-14.9270251-4.5100608-22.64-5.65 5.56 2.09 18.11 6.93 22.64 5.65z"/><path d="m91.34 39.34c-3-1.37-8.55-3.13-12.28-1.93 2.53.36 10.44 2.95 12.28 1.93z"/><path d="m97.13 37.35c-4.06-1.78-10.88-4.35-15.49-3.26 3.36 1.2 12.43 3.57 15.49 3.26z"/><path d="m95.1 33.26c-1.52-.42-4.91-2.47-7.27-1.84.45 1.18 6.45 3.16 7.27 1.84z"/></g></g></svg>