<svg height="189" viewBox="0 0 104 189" width="104" xmlns="http://www.w3.org/2000/svg"><g fill="none"><path d="m5.136 37.32c-7.536 4.956-5.472 6.408-2.088 10.68l18.468 23.652 8.808-6.852c-2.616-1.5-21.312-32.124-25.188-27.48z" fill="#2c3338"/><path d="m73.632 133.632c8.016-5.088 4.668-7.2 3.144-9.324l-44.808-57.396-8.796 6.864 46.32 59.34c1.0013083 1.284718 2.8539758 1.51563 4.14.516z" fill="#2c3338"/><g fill="#ea400c"><path d="m4.212 49.476 2.496-.744-1.332 2.244.384.504 4.944-1.476 1.764-2.976 3.24-.96-2.712-3.468-11.496 3.42z"/><path d="m26.784 60.264-1.008-1.296-1.152 1.944z"/><path d="m15.108 48.696 2.148-.636-1.008-1.296z"/><path d="m27.288 60.912-11.496 3.42 2.712 3.456 2.496-.744-1.332 2.244 1.848 2.364 2.796-2.184 2.448-4.128 3.24-.96z"/><path d="m12.492 41.952-1.008-1.296-1.14 1.944z"/><path d="m8.976 55.584 2.496-.744-1.332 2.244.396.492 4.932-1.464 1.764-2.988 3.24-.96-2.712-3.456-11.496 3.408z"/><path d="m13.74 61.692 2.496-.744-1.332 2.244.384.492 4.944-1.476 1.764-2.976 3.24-.96-2.712-3.468-11.496 3.42z"/><path d="m19.86 54.804 2.16-.636-1.008-1.308z"/></g><path d="m17.808037 67.9263h18.594527v2.6994h-18.594527z" fill="#4d555b" transform="matrix(.78666375 -.61738168 .61738168 .78666375 -36.98719 31.513397)"/><path d="m62.004 30.876c-8.196-3.744-8.4-1.2-10.152 3.9-3.132 8.616-10.2 28.104-10.248 28.224l10.5 3.804c-.132-3 15.9-35.1 9.9-35.928z" fill="#2c3338"/><path d="m16.8 140.064c8.556 4.092 8.544.156 9.6-2.28 4.428-12.216 24.828-68.4 24.852-68.4l-10.488-3.804-25.692 70.8c-.504121 1.492639.2579596 3.117352 1.728 3.684z" fill="#2c3338"/><path d="m51.204 36.552 1.956 1.728-2.604.06-.216.6 3.876 3.396 3.456-.084 2.532 2.232 1.5-4.128-9-7.932z" fill="#ea400c"/><path d="m54.06 61.416.564-1.548-2.256.06z" fill="#ea400c"/><path d="m57.648 45.372 1.692 1.488.564-1.548z" fill="#ea400c"/><path d="m53.772 62.184-8.988-7.92-1.5 4.128 1.956 1.716-2.616.072-1.02 2.82 3.336 1.212 4.812-.12 2.52 2.22z" fill="#ea400c"/><path d="m61.98 39.588.564-1.548-2.256.06z" fill="#ea400c"/><path d="m48.564 43.836 1.956 1.716-2.604.072-.216.588 3.864 3.408 3.468-.084 2.532 2.22 1.5-4.128-9-7.92z" fill="#ea400c"/><path d="m45.924 51.108 1.956 1.728-2.604.06-.216.6 3.864 3.396 3.468-.084 2.532 2.232 1.5-4.128-9-7.932z" fill="#ea400c"/><path d="m55.008 52.656 1.692 1.488.564-1.548z" fill="#ea400c"/><path d="m45.048286 56.91404h2.688v18.516h-2.688z" fill="#4d555b" transform="matrix(.34136403 -.93993117 .93993117 .34136403 -31.641535 87.188841)"/><path d="m101.304 180.156c-1.116 11.292-79.2 10.968-84.132 1.116-5.688-12.66 84.576-12.492 84.132-1.116z" fill="#363d42" opacity=".3"/><path d="m58.464 166.992c-1.0142204 2.685278-1.5424562 5.529625-1.56 8.4 2.844 2.724 17.184 14.184 25.476 3.072 1.968-9.288-9.996-9.6-11.52-11.184z" fill="#363d42"/><path d="m41.724 167.904c-11.628 17.748.336 19.74 12.864 15.456 1.524-4.02.192-9.312-.3-15.996-4.224-.564-12.564.54-12.564.54z" fill="#363d42"/><path d="m57.792 143.748.672 23.244s3.876 3.672 12.396.252l3.948-21.228z" fill="#363d42"/><path d="m59.52 124.716c0-.06-4.44 19.296-4.464 19.428-1.2 6.384 15.6 14.496 21.012 4.644l3.792-24.18c.2871626-2.173357-1.0767015-4.22428-3.192-4.8l-12.132 1.908c-1.0639825-.289328-2.1999032-.133013-3.1461895.432947-.9462862.565961-1.6213748 1.492786-1.8698105 2.567053z" fill="#363d42"/><path d="m75.72 119.796h-.156c.9658665.930787 1.4142209 2.27585 1.2 3.6l-3.816 24.204c-1.44 5.076-11.04 5.184-14.16 3.384 2.772 2.244 13.368 4.56 16.332-2.208l3.792-24.18c.2871626-2.173357-1.0767015-4.22428-3.192-4.8z" fill="#4d555b"/><path d="m39.384 144.3 2.4 23.604s6.816 3 12.564-.54l3.36-24.564z" fill="#363d42"/><path d="m37.98 124.98c.156 3.828-1.896 24.816.312 24.6-.06 2.976 18.72 6.936 21.264-1.488-.612-4.512 2.196-21.408-1.344-23.244-4.212-1.032-20.148-6.24-20.232.132z" fill="#363d42"/><path d="m43.968 148.524c-.168-3.396-1.332-24.672 2.4-26.604-9.444-3.192-5.064 15.72-6.588 24-.624 2.82 2.4 6.876 12.264 6.084-4.92-.516-7.224-1.932-8.076-3.48z" fill="#4d555b"/><path d="m33.996 118.8-2.172 9.936s32.196 14.148 52.584-2.4l-1.932-9.24s-16.74 15.852-48.48 1.704z" fill="#4d555b"/><path d="m82.476 117.06s-16.8 15.888-48.48 1.692l-.72 3.312c7.512 8.952 42.12 8.928 50.4.624z" fill="#42484e"/><path d="m37.98 176.04c5.3573447-.319649 10.7305033-.263511 16.08.168l-1.2-7.116c-3.604335 1.010417-7.4340172.871995-10.956-.396 0 0-3.18 5.532-3.924 7.344z" fill="#42484e"/><path d="m70.8 167.592c-2.6810833 1.25974-5.6654255 1.730076-8.604 1.356 4.356 3.276 14.64 7.656 18.324 2.64z" fill="#42484e"/><path d="m84.528 76.908c.168.672 22.14 11.676 18 18.792-5.628 14.784-19.344-4.8-22.716-6.612-.06 0-9.516-8.688 4.716-12.18z" fill="#363d42"/><path d="m29.124 81.072c-4.728 10.728 4.476 30.6 8.916 34.644 8.988 8.124 42.996 2.208 45.372-2.256 20.796-65.616-49.728-48.912-54.288-32.388z" fill="#42484e"/><path d="m85.62 75.732c-1.6341359-2.433849-3.8379943-4.4317393-6.42-5.82 1.692 7.632 3.06 27.744-30.612 48.096 6.0461659.851521 12.1818341.851521 18.228 0 8.784-5.64 27.984-26.412 18.804-42.276z" fill="#ea400c"/><path d="m83.652 110.724c-10.932 9.156-47.1 9.024-52.26-4.5-4.716 20.04 21.108 23.076 44.4 17.724 11.496-3.6 10.644-7.32 10.44-17.844-.1914421-.344969-.5334142-.580353-.924-.636 0 0-.924 4.62-1.656 5.256z" fill="#ea400c"/><path d="m30.612 64.26c-9.6 27.42 68.196 36.96 55.008-1.656 0 0-47.22-9.684-55.008 1.656z" fill="#2c3338"/><path d="m33.024 63.144c-9.036 26.016 64.476 34.8 51.972-1.56 0 0-44.616-9.156-51.972 1.56z" fill="#363d42"/><path d="m72.3 77.532-18.792.54.744 7.032c6.4063606 1.1195528 12.9723989.9399967 19.308-.528z" fill="#4d555b"/><path d="m33 62.04c-9.384 21.324 62.52 30 50.556-1.332 0 0-43.404-7.74-50.556 1.332z" fill="#2c3338"/><path d="m73.92 5.868c26.82 24 24 60-5.184 71.256l-9.756-62.868s1.428-8.388 14.94-8.388z" fill="#4d555b"/><path d="m71.868 6.816c26.82 24 24 60-5.184 71.256l-9.756-62.868s1.428-8.388 14.94-8.388z" fill="#2c3338"/><path d="m85.272 55.728 2.196-4.728-2.196-6.336-.864 11.064z" fill="#42484e"/><path d="m26.748 62.316c0 1.2-9.816-25.356-4.968-41.244 17.604-29.028 40.704-20.22 50.52-15.204l-10.8 2.844z" fill="#42484e"/><path d="m84.408 36.504s3.06 10.968 0 19.2c-11.856 28.62-77.448-.504-49.296-16.104z" fill="#ffc392"/><path d="m84.408 36.504s3.06 10.968 0 19.2c-11.856 28.62-77.448-.504-49.296-16.104z" fill="#ffc392"/><path d="m85.752 47.292c-.001473-3.2824113-.3677208-6.5544932-1.092-9.756-.5623531-.415353-1.191349-.73188-1.86-.936l-46.632 2.88c-.504.816-4.344 11.52-4.344 11.52l1.668 6.948c2.8850938 2.3341847 6.1263747 4.1898179 9.6 5.496l2.064-.324c-2.4-1.668-3.768-9.924.42-11.172 4.896.6 9.156 6 14.58-.948 0 0 9.048.156 15.6-1.776 1.524 1.332 7.92 3.336 9.996-1.932z" fill="#eaaf83"/><path d="m58.02 49.2c-.144 5.16-8.568 5.568-9.024 0 .204-5.148 8.604-5.556 9.024 0z" fill="#2c3338"/><path d="m52.092 49.2c0 1.704-3.684.312-.996-.924.312.06.612.096.996.924z" fill="#f6f6f6"/><path d="m84.732 45.036c0 4.68-6.948 5.916-7.44 0-.048-4.68 6.936-5.916 7.44 0z" fill="#2c3338"/><path d="m80.748 45.96c0 1.704-3.684.312-.996-.924.312.048.648.084.996.924z" fill="#f6f6f6"/><path d="m86.496 57.168s-4.308-4.092-12.708-3.768c.3801962 8.568406-.1184067 17.1532211-1.488 25.62 13.176-3.54 14.196-21.852 14.196-21.852z" fill="#363d42"/><path d="m34.188 54.528s31.2 18.936 53.28-3.528l-.972 6.168-42.456 11.58s-12.984-5.472-9.852-14.22z" fill="#363d42"/><path d="m33.084 53.4s6 18.144 24 21.168c0 0-12.72 5.82-25.2-5.82-.012 0-3.528-8.508 1.2-15.348z" fill="#42484e"/><path d="m73.788 53.4c-9.6-.516-29.712 15.216-29.7480676 15.348-.0359324.132 14.3160676 14.052 28.2600676 10.272 2.856-1.896 4.872-19.296 1.488-25.62z" fill="#42484e"/><path d="m74.052 47.472c5.424-1.116 9.984-6.18 12.444-9.012 0 0-5.4-21.36-21.6001302-29.748-.0358698 0 7.4041302 11.52 9.1561302 38.76z" fill="#363d42"/><path d="m35.112 44.952s23.148 5.784 38.94 2.52c-.096-28.188-9.192-38.76-9.192-38.76s-20.016 5.412-29.748 36.24z" fill="#42484e"/><path d="m66.876 11.76c-.5766625-1.075939-1.2515327-2.09627837-2.016-3.048 0 0-20.016 5.292-29.748 35.424 5.9307469 1.3649774 11.9431626 2.3470053 18 2.94-19.884-8.268 6.252-31.404 13.764-35.316z" fill="#363d42"/><path d="m72.972 3.444.948 2.4s-40.692 19.2-37.092 62.04c.072.792.6 4.968 14.268 7.368.84.144-7.056 1.2-13.668-2.4l-12.3-8.76c-3.6-18.732 4.596-50.112 38.028-64.092z" fill="#4d555b"/><path d="m71.028 79.02c-12.552.228-22.212-11.172-12.312-19.8-4.8214986 2.8903821-9.4621231 6.0722956-13.896 9.528 0 .264 14.316 14.088 28.272 10.272.0389435-.0372495.0750443-.0773615.108-.12-.721525.0764544-1.4464441.1165052-2.172.12z" fill="#363d42"/><path d="m82.128 97.62c5.292-7.032 10.056-12.552 18.588-6.816 10.572 8.316-14.544 18.144-14.952 18.396 0 0-8.7-2.616-3.636-11.58z" fill="#4d555b"/><path d="m70.86 83.292c5.892-5.484 6.876 7.128 6.6 7.644 10.128.132 9.096 6.96 9.792 10.104 1.476 10.944-8.256 11.64-14.484 5.328-3.36-2.652-4.5-13.404-3.6-18.288.2039656-1.7012574.7817712-3.3363244 1.692-4.788z" fill="#dba179"/><path d="m69.948 82.98c6.408-4.128 4.932 4.248 2.892 9.204 8.304.288 12.468 4.692 7.536 11.376 3.024 7.404-12 14.796-18.672 10.068 4.524-8.028.792-23.724 8.244-30.648z" fill="#ffc392"/><path d="m79.932 109.116c.96-.312.408-6.372.516-6 3.192-.66 1.332-9.852.396-9.036-3.312.348-3.324 2.976-3.324 2.976 1.2 13.02-2.772 13.2-13.032 8.808-10.26 17.856 15.66 5.352 15.444 3.252z" fill="#eaaf83"/><path d="m74.904 84.312c-.0540484-.386329-.1759211-.7600722-.36-1.104-2.592 2.064-4.716 9.828-4.644 9.888l2.94-.912c-.024-2.184 2.04-4.584 2.064-7.872z" fill="#eaaf83"/><path d="m64.86 101.004c10.128-.432 13.116 11.58 2.16 14.88-.264.156-22.116 2.904-24.168-.456-30.924-25.98-17.196-57.828 8.244-16.128z" fill="#4d555b"/><path d="m77.46 90.936-2.148.984c1.344 1.008 8.916 1.944 10.236 1.728 0-.048-.348-1.968-8.088-2.712z" fill="#ffc392"/></g></svg>