<svg height="96" viewBox="0 0 95 96" width="95" xmlns="http://www.w3.org/2000/svg"><g fill="none"><g fill="#59595b"><path d="m61.15 31.53 30.43-31.53-63.87 35.47-27.71-25.82 30.43 59.88-25.88 26 61.15-30.6 28.81 28.67zm-16.09 27.66-6.78-5 1-8.39 7.72-3.38 6.78 5-1 8.39z"/><path d="m65.7 64.93-42.44 16.68 16.41-17.33-6.25 2.74-10.37-12.01 7.38 14.52-25.88 25.96z" opacity=".4"/><path d="m60.52 29.17-2.49-.45 27.73 56.17 8.75 8.71-33.36-62.07 30.43-31.53z" opacity=".4"/><path d="m9.69 18.68 17.58 21.62 38.27-25.84-37.83 21.01z" opacity=".4"/><path d="m47.01 42.42.91-.46 7.04 5.02-.52 10.6-9.09 2.88-7.33-5.34.26-.97 6.78 5.04 7.75-3.34.98-8.39z" opacity=".4"/></g><path d="m11.66 29.54 17.68 29.54-4.97-4.66z" fill="#ced0d1" opacity=".3"/><path d="m63.59 61.59s1.61 2.89 1 2.66-24.38 8.75-24 8.48 23-11.14 23-11.14z" fill="#ced0d1" opacity=".3"/><path d="m57.38 30.27-.91.46 15.71 28.92z" fill="#ced0d1" opacity=".3"/></g></svg>