<svg height="173" viewBox="0 0 185 173" width="185" xmlns="http://www.w3.org/2000/svg"><g fill="none"><path d="m129.740782 31.931836 14.472464-.0300167-.008104 3.9048348-14.472465.0300168z" fill="#474b4f" transform="matrix(.64678978 -.76266833 .76266833 .64678978 22.54925 116.427904)"/><path d="m141.255159 25.6778386c-1.932484-2.0542271-2.849235-4.2457182-2.688981-6.538974.454841-6.5957729 8.505287-13.89443232 8.505287-13.89443232-.400637.25559508-10.272803 5.95915182-10.812484 13.72640222-.235669 3.2967031.874331 6.6975376 3.801337 9.4925171.142261.2567524.365179.4589732.63395.5750889 3.299363 2.8091792 6.952229 3.410301 10.213885 2.5464843 7.588535-2.0139946 11.837643-13.4637073 12.019108-13.9512312 0 0-6.186306 10.0060738-12.60828 11.7076744-2.210573.5845554-4.529554 0-6.905096-1.7536662 15.160574-17.95082082 15.224204-18.16145009 21.46-27.5877018-10.781847 10.6119289-11.050509 10.8083584-23.618726 25.6778386z" fill="#7d7b7b"/><path d="m118.833631 95.736922-29.1922934-1.954829c-9.2311465 13.179713-8.8611465 32.399042-7.5414013 36.751259 7.7228662 16.315485 44.4683437 5.206566 42.0126747-3.926225-3.214522-11.892271-5.27898-30.870205-5.27898-30.870205z" fill="#1f1e21"/><path d="m98.9667516 107.127469 11.8329304-12.2283308-19.7207648 2.5630506z" fill="#3c3f42"/><path d="m86.6719108 97.5781532 9.9758599 11.2958828 2.8987261-2.447087-7.4235669-9.0807246z" fill="#b10d28"/><path d="m81.4447771 121.170999c-.0867556 2.075415-.0434161 4.154255.1296178 6.224213l35.7627391-31.7600547-6.692994-.4472914z" fill="#b10d28"/><path d="m147.476815 128.17383c-24.620318-9.229822-67.783057-9.755212-101.521401 4.120288-.2663057.108864-2.8657325 5.554459-1.5106369 8.619234-14.943758 6.224213-27.8371975 13.977264-36.0903185 22.605964 8.7197452 0 37.0777707-.984514 37.0777707-.984514s25.9989809-19.860684 59.1528667-21.626184c12.063885-.641354 26.496242.130164 29.416178 3.637497 5.102229 6.129548-8.573631 19.600356-8.573631 19.600356l25.009172-.047333s5.359109-7.977879 6.469109-16.750944c.666942-.236662 4.645031-4.65751 4.678025-5.085868.476051-6.349645-6.042548-11.066321-14.107134-14.088496z" fill="#1f1e21"/><path d="m54.7152229 133.71409c-5.3567516 4.603078.3605733 8.117511.3605733 8.117511s-2.7290446-4.494214-.3605733-8.117511z" fill="#52575b"/><path d="m81.4212102 121.824186c-.0117834.440192-.0164968.866183-.0164968 1.282709 6.9946497-.269795 23.5668786-.809385 41.6850956-.679221-.096624-.425991-.188535-.851983-.280446-1.285075-17.965032-.123064-34.3770063.411792-41.3881528.681587z" fill="#b10d28"/><path d="m8.26961783 163.50985c8.71974527 0 37.07777067-.984515 37.07777067-.984515s6.3064969-4.813707 16.6641402-9.913775l-17.8801911-11.608277c-14.8447771 6.200547-27.6510191 13.922832-35.86171977 22.506567z" fill="#474b4f"/><path d="m53.8621019 152.848222.6504459-5.107169-.5443949-.359726-.7070064 5.502394-9.5870064.359726.777707-6.120082 8.5901274-.324227-.8696178-.565622-7.6427389.288728.6174523-4.849207-.5561784-.362093-.664586 5.234966-9.1533758.345526.219172-1.725266-.6410191.317127-.181465 1.419972-2.8280254.106498c-.4053504.212996-.8036306.428359-1.2019109.643721l3.9474523-.149097-.777707 6.120082-8.3191083.312394.4713376-3.623297-.6504459.39286-.4124204 3.254104-4.9160509.184596c-.3016561.208263-.5962421.421259-.8931848.629521l5.731465-.215362-.7753503 6.108249-9.5139491.357359.0235669.596389 9.4055414-.354993-.2356688 1.950096.6033121-.016567.249809-1.954829 8.3049681-.31476-.256879 2.025827.6033121-.018933.2592357-2.030561 9.1510191-.345526-.263949 2.082626.6033121-.021299.263949-2.084994 5.7644586-.217729.9685987-.634254-6.6576433.250862.7800637-6.105883 9.5870064-.362093-.5396815 4.243352.6504458-.385759.4925478-3.878892 7.0700637-.267428 1.1453503-.570356-.1013376-.066266zm-21.4010828 7.480889-8.3191083.31476.7753503-6.103515 8.3191083-.312394zm9.7566879-.369193-9.1533758.345527.7753503-6.105883 9.1533758-.345526zm.8507643-6.704638-9.1510191.338427.777707-6.117715 9.1533758-.345527z" fill="#1f1e21"/><path d="m125.418217 164.137004 25.009172-.047332s5.283694-7.861916 6.443184-16.566348l-21.780509-.32896c.74707 6.678605-9.671847 16.94264-9.671847 16.94264z" fill="#474b4f"/><path d="m154.622293 147.483092-3.70707 2.153625-1.47293-2.231724-.721147-.011833 1.677962 2.544118-6.363057 3.694295-2.828026-4.278851 3.492612-2.018727-1.157134-.018933-2.65363 1.545403-1.051083-1.595102h-.721147l1.256115 1.893296-6.598726 3.83156-.025924-.037866c-.166539.35026-.344076.70052-.532611 1.05078l.37-.215363 2.828025 4.276484-7.656879 4.446881.2993.51829 7.685159-4.465814 2.915223 4.420849-1.951338 1.133611h1.192484l1.086433-.631888.414778.629522h.707006l-.612739-.927716 6.598726-3.829193 3.124968 4.733242h.205032s.091911-.137264.252166-.390492l-3.063695-4.650411 6.363058-3.691928.525541.797551c.089554-.222463.179109-.449658.266306-.67922l-.275733-.418892.553822-.321861c.101338-.283994.205032-.572722.304013-.866183l-1.178344.688687-2.915223-4.420849 4.522484-2.638782zm-20.514968 6.001751 6.598726-3.83156 2.828025 4.276484-6.598726 3.83156zm6.066114 9.196689-2.915222-4.423215 6.598726-3.829193 2.915223 4.420849zm13.468472-7.824049-6.363057 3.691929-2.915223-4.420848 6.363057-3.691929z" fill="#1f1e21"/><path d="m72.739172 114.968085c-1.4517198-2.307456 3.3865605-7.232394 11.7551592-9.497251.5532952-2.951984 1.7332584-5.7496611 3.4596178-8.2027081-21.4458598 1.8648974-37.4171337 13.5512721-36.0573248 20.2559101.7564968 6.252612 9.2358599 13.425841 37.2521656 19.844117 4.6803822-10.616662 13.2563692-17.48223 13.2563692-17.48223s-27.5968151-1.630602-29.665987-4.917838z" fill="#474b4f"/><path d="m135.886624 56.9101368-2.481592 3.029275c24.302165 9.7031463 17.573822 47.2093572 17.573822 47.2093572s8.444012-11.6224763 19.223503-7.9636801c0 0 1.48707-29.8430916-34.315733-42.2749521z" fill="#b10d28"/><path d="m183.015669 51.1971135s-23.33121-8.5198358-46.860382 5.9615185l2.139872 3.8623256c19.063249-10.0699726 46.59879 5.8195212 46.59879 5.8195212s-5.123439-7.7246512-1.87828-15.6433653z" fill="#b10d28"/><path d="m90.1338854 17.7733242c-22.1151593 3.3132695-38.2372612 18.1614501-33.519172 50.0161696 4.5837579 30.9648701 23.6069427 35.6697132 45.7197456 32.3682762 22.112802-3.3014362 38.94898-13.3572091 34.362866-44.3220792-4.722803-31.8547195-24.44828-41.363803-46.5634396-38.0623666z" fill="#1f1e21"/><path d="m95.8865605 58.5502052c-33.7006369 5.0314364-33.4908917 9.7907114-32.635414 15.5652668s2.0291083 10.3941997 35.7297452 5.3627633c35.1877073-5.2515322 33.4885353-9.7883447 32.6330573-15.5676334-.855478-5.7792886-.542038-10.6119288-35.7273885-5.3603967z" fill="#f9b5ab"/><path d="m95.8865605 58.5502052c-28.3203185 4.2267852-32.6919745 8.2618741-32.8592994 12.8673187l68.1082799-10.1764705c-1.185414-4.3948154-5.689044-7.1022299-35.2489805-2.6908482z" fill="#d68c81"/><path d="m74.6103822 67.5835978c-3.5948466.5388291-6.0743706 3.9017102-5.538635 7.5118332s3.8839282 6.1008761 7.4790227 5.5637178 6.0761681-3.8988866 5.5420963-7.5092582c-.5356301-3.6120068-3.8856258-6.1041012-7.482484-5.5662928z" fill="#fff"/><path d="m75.6072611 68.7361423c-2.9371299.440039-4.9631854 3.187448-4.5257333 6.1370684.437452 2.9496205 3.1728192 4.9849076 6.1101696 4.5463549s4.9647841-3.1849362 4.5288122-6.1347776c-.4374915-2.9512158-3.1743668-4.987625-6.1132485-4.5486457z" fill="#231f20"/><path d="m111.707006 61.6978112c-3.782733.5670222-6.391838 4.1056743-5.828105 7.9044875.563732 3.7988131 4.086905 6.4197661 7.869909 5.8545711s6.393804-4.1025865 5.831891-7.9016714c-.270014-1.8255553-1.251451-3.4685031-2.728218-4.5670978-1.476768-1.0985947-3.327779-1.5627577-5.145477-1.2902894z" fill="#fff"/><path d="m111.886115 62.9521204c-3.087867.4649424-5.216437 3.3546771-4.755357 6.4558461.46108 3.1011689 3.337369 5.2404979 6.425806 4.7793933 3.088438-.4611047 5.220567-3.3481921 4.763309-6.4499316-.219946-1.491967-1.021767-2.8348269-2.228674-3.7325017-1.206907-.8976749-2.71979-1.2764479-4.205084-1.0528061z" fill="#231f20"/><path d="m65.5795541 64.1803967.4901911 2.0258277c.113121-.0283995 11.213121-2.6245828 16.8220382 4.3309165l1.6143312-1.3111081c-6.4455414-7.9873461-18.4222292-5.171067-18.9265605-5.0456361z" fill="#231f20"/><path d="m102.322675 66.5659508 1.925414.7833515c3.353567-8.2831737 14.724586-9.0499589 14.847134-9.0570588l-.117834-2.0826265c-.527899.030766-12.803886.8259507-16.654714 10.3563338z" fill="#231f20"/><path d="m94.8095541 49.3345828c-25.5087898 3.8078933-40.4949681 11.4449794-40.4949681 11.4449794l1.9466242 11.9206704s14.6774522-6.7969357 40.4313376-10.6497948c25.7538852-3.8528591 41.8689172-1.6566348 41.8689172-1.6566348l-1.593121-11.9703693s-16.652357-2.8943776-42.1587899.9111491z" fill="#d82035"/><path d="m60.8520382 44.930301s9.5163057-20.0807798 38.0793631-24.6317921c-32.7838854-.2129959-38.0793631 24.6317921-38.0793631 24.6317921z" fill="#52575b"/><path d="m80.440828 86.3935021s13.6334395 6.8963337 31.86949-3.5499316c-16.2729295 5.7532558-31.86949 3.5499316-31.86949 3.5499316z" fill="#52575b"/><path d="m88.505414 91.7704651s8.7857325 5.0243365 18.990191 1.2377428c-6.843822 1.3537073-18.990191-1.2377428-18.990191-1.2377428z" fill="#52575b"/><path d="m143.703758 33.5279207s-5.943567 10.8675239-9.96172 20.478372c14.187261 9.5611492 16.989363 15.9415596 15.294905 20.7552668-5.069236 12.7442545-30.540319 20.9303967-30.540319 20.9303967l.942675 7.1613958c-.068344 0 45.832867-5.2586324 47.046561-28.5580168 1.614331-26.0470315-22.782102-40.7674145-22.782102-40.7674145z" fill="#474b4f"/><path d="m143.703758 33.5279207s-5.943567 10.8675239-9.96172 20.478372c4.857134 3.273037 8.380382 6.1745144 10.840765 8.7683311 4.595541-5.502394 8.670254-11.2769494 11.962547-17.612394-6.146242-7.5921204-12.841592-11.6343091-12.841592-11.6343091z" fill="#1f1e21"/><path d="m129.104076 28.9272093c-4.670955 1.6022025-10.343503 11.3053488-8.731528 16.5284815 1.611974 5.2231327 14.121274 7.0998632 14.121274 7.0998632s8.672611-17.4135978 9.044968-18.0076197c-3.34414-5.3225307-9.836815-10.2356361-14.434714-5.620725z" fill="#f9b5ab"/><path d="m40.4878981 155.6858c-4.840637-2.378454-30.1656051.359727-32.39974523 2.040028-5.68904459 3.015075-8.12821656 7.916347-8.08815287 9.830944h46.9947134s-1.6685351-9.497251-6.5068153-11.870972z" fill="#1f1e21"/><path d="m157.318344 157.900958c-4.058217-1.93353-27.212675 1.35844-29.081529 2.72398-1.92777.352627-4.336305 5.374597-4.30134 6.936567h38.843315s-1.399873-7.729385-5.460446-9.660547z" fill="#1f1e21"/><path d="m89.3931959 134.195965 16.5753721-.034659-.00936 4.474351-16.5753723.03466z" fill="#474b4f" transform="matrix(.66913061 -.74314483 .74314483 .66913061 -69.058638 117.723381)"/><path d="m92.4929299 141.564172c-3.6010191-3.218604-7.6663057-4.004322-11.3450955-3.154706-8.5594905 1.976129-13.69 14.502654-13.9044586 15.035144 0 0 7.2515287-10.865157 14.4936306-12.543092 2.4933758-.572722 5.0692356.156197 7.6710191 2.167825-17.5643949 19.358961-17.6398089 19.588523-24.933758 29.819426 12.4150319-11.385814 12.7261147-11.596443 27.2833758-27.635034 2.1021656 2.338221 3.0424841 4.797141 2.7879618 7.336525-.7258599 7.282093-9.9782166 15.091942-9.9782166 15.091942.4571975-.269794 11.6938854-6.257346 12.5517198-14.83398.3652866-3.637497-.7541401-7.433557-3.9380255-10.626129-.1505708-.289731-.3925934-.521121-.6881529-.657921z" fill="#7d7b7b"/><path d="m102.379236 119.87409s-11.547771 11.378714-10.9750959 14.860014c.3370064 2.084993 2.3189809 4.65751 4.9655414 6.05855.1390446.073365-.9096815 1.164377-.7871337 1.261409 2.1775796 1.685034 4.8689172 1.313475 6.7801912.747852 5.16586-1.528837 10.732357-7.838249 10.006497-14.971245s-9.99-7.95658-9.99-7.95658z" fill="#f9b5ab"/><path d="m92.0027389 132.417182c3.2215923 2.129959 7.3740764 3.076607 7.3740764 3.076607l11.7834397-14.041162-8.222484-1.533571s-8.3921659 6.458509-10.9350321 12.498126z" fill="#474b4f"/><path d="m75.9513376 133.867921c3.8673248 1.18331 8.9813376 3.4529 14.2296815 4.619644 4.8288535-10.619029 13.0607639-18.592175 13.0607639-18.592175s-9.1321652-.530123-17.326369-1.56197c-5.0150318 3.99959-7.9255414 9.646347-9.9640764 15.534501z" fill="#2e3033"/><path d="m147.794968 143.355705s7.673376 2.101559 5.978917-4.901273c-.497261 4.501314-5.978917 4.901273-5.978917 4.901273z" fill="#52575b"/><g fill="#d68c81"><path d="m108.171975 126.47223c-.114087-.096389-.270713-.124334-.410881-.073311-.140167.051024-.242581.173265-.268662.320677s.028132.2976.142218.393988c1.955207 1.867117 3.283684 4.298726 3.801337 6.957866.193673-.484433.36124-.978983.501975-1.481505-.683043-2.342944-1.984302-4.456794-3.765987-6.117715z"/><path d="m105.230828 130.60435c-.112889-.105577-.274584-.139969-.420403-.089419s-.251952.177789-.275942.330817c-.023991.153029.038078.30686.161377.399957 2.067633 1.972744 3.430868 4.574306 3.879108 7.40279.235669-.269795.471338-.546689.707007-.835417-.570438-2.767723-1.98663-5.287737-4.051147-7.208728z"/><path d="m101.486051 135.64762c-.112889-.105577-.274584-.13997-.420403-.089419-.145819.05055-.251952.177789-.275942.330817-.023991.153028.038078.306859.161377.399956 1.628335 1.550994 2.827745 3.499992 3.480828 5.656224.247452-.13253.497261-.274528.742357-.425991-.697567-2.247121-1.969185-4.271518-3.688217-5.871587z"/><path d="m136.143503 33.8119152c-.942675-2.6198495-4.654458-4.4374145-6.650573-5.2467989-.129618.1159644-.261592.2366621-.388854.362093-.191286.0681293-.378553.1471446-.560891.2366621 1.670891.6224213 6.348917 2.6032832 6.879172 5.3745965.235668 1.1975102-.393567 2.4470861-1.824077 3.7179616-1.734522-2.5535841-7.098344-4.7876744-9.125095-5.5615595-.193249.2366621-.381784.487524-.567962.7431191 2.731401 1.0129138 8.507643 3.5854309 9.27828 5.9473187.09546.2896807.09546.6025355 0 .8922161-.674238-.1275971-1.36746-.1138998-2.036178.0402326-1.128854.2366621-2.208217 1.1501778-3.134395 2.3808208l-7.027643-3.7865937c-.103695.2863611-.197962.5750889-.287516.8614501l6.799044 3.6635294c-1.272611 1.9713953-2.168153 4.4752804-2.356688 6.3662106l.235669.1159645.629236.0591655c.289872-3.0908071 2.790318-8.2595075 5.319044-8.7848974.914395-.1916963 2.146943-.2366621 2.828026.6295212.549108.6957866 1.133567 2.5677839-1.084077 7.2749932l.808344.3833926c2.300128-4.8847059 1.802867-7.163762.978026-8.2145418-.227361-.2853361-.511504-.5198962-.834268-.6886867.161617-.4780695.161617-.9963354 0-1.4744049-.004924-.009018-.008874-.0185385-.011783-.0283995 1.687388-1.4412722 2.462739-2.9180437 2.311911-4.3924487.867261-.1893296 2.990637-1.0081805 3.638726-4.4208481-.256879-.2366621-.520828-.4733242-.791847-.6839535-.433631 3.4481669-2.366115 4.1108208-3.023631 4.2338851z"/></g></g></svg>