<svg height="188" viewBox="0 0 169 188" width="169" xmlns="http://www.w3.org/2000/svg"><g fill="none" fill-rule="evenodd"><path d="m76.8728974 65.9260145c0-.0647102 0-.1328261 0-.200942 22.5208652-2.7246377 20.6710463.9502174 24.7515296-6.3722464 1.761408-4.0869565-.782093-12.1791304-6.722596-9.9926087-9.6639437 1.6415942-18.6410061 1.7607971-28.4035614 1.4406522-4.4749296 9.8802174-.1904225 17.0664492 10.3746278 15.1251449z" fill="#b4b4b5"/><path d="m144.06147 183.163768c.047584 5.296015-79.6850515 6.229203-97.856802 1.975362-30.5288129-7.356521 97.292314-9.212681 97.856802-1.975362z" fill="#000" fill-rule="nonzero" opacity=".2"/><path d="m92.3209256 57.7384783c-20.3582093 6.2564492-30.3417908-2.1081884-.0408049-.1975363z" fill="#fff"/><path d="m130.177606 4.60804348c-37.8702821 1.89362319-81.0621935-2.94601449-93.5994772 37.69536232 45.2253521 15.0297826 101.3319922-4.7681159 95.3200802-9.1445652-6.283943-23.1015218-12.476076-17.4751449-1.720603-28.55079712z" fill="#fff"/><path d="m132.710905 72.5230435c-29.83173 12.5163043-64.4410257 17.4104348-95.8675448 7.9797826 3.5772233 31.4525359 21.9836016 30.8667389 45.8680281 31.2515939 48.9521927-2.734855 47.6906437-24.855507 49.9995167-39.2313765z" fill="#fff"/><path d="m129.072475 71.3684783c-3.118169-16.4261595-11.517163-6.7400725-21.704769-6.5152899-21.9768006 1.6484058-15.6690541 7.9116667-24.6699193 10.2173913-13.0677465-9.1513768-13.0711469-6.9614493-23.5987927-7.0976811 2.9379476 1.4406521 5.957505 2.3636231 7.9365392 4.8362318-23.5307847-7.1249275-23.9796378-11.9918116-27.3630382 5.8954348 29.9405432 8.2658696 60.795795 2.7348551 89.39998-7.3360869z" fill="#f3d7bf"/><path d="m92.9976056 117.84058c3.6724346.776521 26.6455534-7.193044 25.1323744-2.724638-3.345996 3.790652-20.5418311 4.342391-23.1227365 5.265362-6.185332 16.599855 7.9875455 8.892537 16.7469815 9.212682 46.401892-5.023551 9.650342-26.224638 6.16833-23.418261-18.770221 10.067536-19.4026958 3.552246-24.9249494 11.664855z" fill="#fff"/><path d="m128.368592 143.275072-6.862013-8.11942c-11.047907 6.362029-22.877907 9.342102-35.4219915 9.69971.7174849 3.746377 1.7002012 12.322174 4.8285715 13.50058 13.383984-.613043 27.080805-6.327971 37.455433-15.08087z" fill="#fff"/><path d="m102.012072 63.2388406c40.281167-7.9252899 31.307505-2.6939855 31.032073-24.6307247-10.419793 4.2594679-21.217393 7.5253249-32.249417 9.7542029 3.526218 3.9473189 5.23322 10.139058 1.217344 14.8765218z" fill="#848687"/><path d="m35.9932596 45.0280435c-1.0201208 5.8613768-2.4550906 17.3423188-.3808451 18.2278261 9.3409054 1.5394203 19.5863179 2.7246376 29.3590744 2.6156521-3.2507847-4.8941304-3.1317706-10.0164492-.938511-15.3907971-9.5086711-.8486886-18.9048052-2.6758868-28.0397183-5.4526811z" fill="#848687"/><path d="m100.777726 160.031594c20.375212 8.058116 13.744427 14.985507 29.760322 9.291015 4.865976-2.319348 4.437525-3.518189.129216-7.213479-1.455373-4.945217-1.999437-9.345507-4.954387-14.011449-7.402676 6.024855-15.573843 10.122029-24.935151 11.933913z" fill="#fff"/><path d="m66.450664 163.553188c0-.102174 0-.200942 0-.303116-1.1289336-1.631376-10.5038431-5.507173-6.2533401-7.588115l-10.1774044-8.153479c-6.4607646 6.770725-7.0796378 9.876812-2.9855533 17.008551l-.9385111.085145c-2.7951308 6.508478 27.2032193 6.147464 18.1173441.94-.5644668-1.008116.0238028-1.382754 2.2374648-1.988986z" fill="#fff"/><path d="m62.8564386 114.063551c-1.0201207 23.060652-3.1793762 17.294637 17.2502415 22.195579l1.4043662-4.158478c-1.7886117-.265652-6.3621529-2.384058-2.0062374-4.40029-1.638994-1.059203-5.7806842-3.048188-1.8566198-5.561666-4.1994969-8.957247-8.5146076-7.751595-14.7917505-8.075145z" fill="#fff"/><path d="m50.9516298 145.086957c15.3018108 13.480144 11.2995372 7.267971 23.8028169-1.413406-5.2774246-1.444058-10.4460362-2.901739-15.0603823-5.857971-2.2798929 3.100282-5.2808909 5.596313-8.7424346 7.271377z" fill="#fff"/><path d="m161.47831 2.78934783c0-.07152174-.020403-.14304348-.027203-.21456522-44.545272 11.88623189-32.144004 10.21739129-31.049075 16.91318839 9.955978-6.2875007 20.340248-11.86741645 31.076278-16.69862317z" fill="#ededed"/><path d="m61.4622736 171.61471-11.9014084-.647101c.363843 1.726739.7650905 3.623768 1.1765392 5.578695 7.1612475.149855-2.5639034 3.150363-4.8659758 4.962247 26.6591549 5.861377 10.3304225-4.808986 15.590845-9.893841z" fill="#848687"/><path d="m120.258632 131.409275c-10.296419 2.087754-20.6574449 7.02616-31.8957749 7.210073-.1496177 1.178406-.2890342 2.271666-.4352515 3.426232 11.2009256-.449566 22.4426564-3.603334 32.7730784-8.667754-.122414-.551739-.272032-1.212464-.442052-1.968551z" fill="#848687"/><path d="m84.221167 144.787246c-4.8999799-.565362-3.9614688 20.390508-.5950704 21.711957l6.6409859-4.086957c-3.8118511-5.180217-5.6582696-11.113116-6.0459155-17.625z" fill="#848687"/><path d="m33.5109658 80.5300725c-.3910463-10.5579711-26.4687324-14.587029-15.7574648-2.2512319 7.6543058-5.7353623 9.8509658 2.0026087 15.7574648 2.2512319z" fill="#b4b4b5"/><path d="m122.462093 174.478986c1.394165 1.505362 2.645513 4.808985 2.495895 7.172608 4.522535.521087 8.861449 1.662029 13.581207-.187319-2.808732-2.261449-7.52169-4.236811-7.202052-9.226304z" fill="#848687"/><path d="m78.889336 144.368333c-5.9030986 2.043479-11.3845473 9.536232-17.6412877 12.979493l6.6443863 4.573986c3.7234407-5.936305 7.3584708-11.72616 10.9969014-17.553479z" fill="#848687"/><path d="m37.2548089 96.4896377c-1.5505835-3.9336957-1.5505835-10.6056522-4.0600805-13.7287681-7.6067002.2452174-8.3717908 12.4413768 4.0600805 13.7287681z" fill="#fff"/><path d="m17.161831 80.4347101c-16.63476863 9.1036957 3.2643863 7.571087 3.3357948 12.3494203-.3400403 6.3041305 2.9583501 2.9119566 5.4100402.0783334-5.593662-.9365942-10.0005835-6.3552174-8.745835-12.4277537z" fill="#f3d7bf"/><path d="m28.7163984 81.0852174c-10.7928773-8.7188406-12.0850302 6.0486956-3.4616097 9.3114493.0408049-3.4296377 1.0235212-6.5561595 3.4616097-9.3114493z" fill="#848687"/><path d="m11.9286117 102.296522c12.159839-10.1697104 3.9070623-15.7892756-4.59734409-3.7736234 2.18985915.5857971 3.97847079 1.4440579 4.59734409 3.7736234z" fill="#848687"/><path d="m85.9315694 117.244565c-1.7716096-.813985-3.4004024-1.784637-5.5392555-1.587101 2.2884708 3.187826 4.8829779 3.974565-2.0402415 4.233406 1.5675855 1.948116 5.6990745 2.792753-.4862575 4.376449.8058954 1.753985 8.3343863 3.426232 1.6797988 5.217681v.255435c2.9515493.490435 5.9779074 3.307029 9.8849698 2.724637-5.297827-2.588405-10.2964185-11.685289-3.4990141-15.220507z" fill="#f3d7bf"/><path d="m60.6325755 135.65971c2.6557142 1.971957 13.3023742 5.633189 15.4718309 5.367536.3604427-1.021739.7072837-2.043478 1.0541248-3.037971-5.3523558-1.162698-10.6121987-2.717656-15.7370624-4.652318z" fill="#848687"/><path d="m126.195734 60.9637681c2.01773 3.0438359 3.537552 6.3906793 4.502133 9.9142754 3.852656.200942 2.166057-8.8312319 3.060362-11.7806522z" fill="#fff"/><path d="m91.7054527 120.037319c-10.2012072-3.947319-6.9300201 8.337391-.4658551 10.557971-.9249095-4.144855-.7412877-6.259855.4658551-10.557971z" fill="#848687"/><path d="m34.8235211 65.1052174c.1292153 3.324058.0238028 12.856884 2.6965191 12.7615217.9623139-3.5318116 1.7852113-8.173913 4.3185111-11.6205797z" fill="#fff"/><path d="m88.9001207 67.3019565-12.9759356.7594928 7.2054527 4.7681159z" fill="#fff"/><path d="m104.61338 133.347174c-6.8008045-.790145-14.0912673 2.476014-21.0314887.521087-.3026358.865072-.5814688 1.675652-.887505 2.561159 7.5352918.401884 14.7747485-.960434 21.9189937-3.082246z" fill="#fff"/><path d="m77.984829 141.572174 7.6713078.596014c.1394165-1.277174.2584306-2.353405.3740443-3.405797-2.8359356.194131-7.7597183-2.302319-8.0453521 2.809783z" fill="#848687"/><path d="m3.79144869 102.575797c2.45169014.374638 3.98867203 1.593913 4.39331992 4.086957l2.21026159-2.591812c-.41484911-3.218478-4.0532797-6.1474637-6.60358151-1.495145z" fill="#fff"/><path d="m32.2358149 73.3165942c.3774447-4.1993478-7.4808853-6.8115942-11.1431187-5.2960145 3.9652574 1.1780939 7.7242492 2.9646382 11.1431187 5.2960145z" fill="#848687"/><path d="m6.3383501 108.355435c-.64267606-1.897029-.9827163-3.616957-4.28450704-3.664638-1.4009658 3.385362 1.58458752 5.408406 4.28450704 3.664638z" fill="#b4b4b5"/><path d="m93.803501 113.883043c-2.7203219.289493-5.1448088.524493-8.3921932.732247 4.8625755 2.636087 4.8897787 3.950724 8.3921932-.732247z" fill="#848687"/><path d="m72.7074044 161.462029c1.5573843-3.436449 3.0365594-6.695797 4.512334-9.958551l-.2244265-.091956c-1.8022133 2.976666-3.6010262 5.956739-5.4406439 8.987898.2856338.262247.6052716.555145 1.1527364 1.062609z" fill="#fff"/><path d="m77.5291751 118.092609 1.2105432-.483623c-.2210261-.970653-.4250503-1.873189-.6290744-2.779131h-3.2303823c.9181086 1.151159 1.7716096 2.196739 2.6489135 3.262754z" fill="#848687"/><path d="m78.593501 152.807899-2.3530785 5.837536 1.8736218-.34058c.1530181-1.777826.3094366-3.548841.4794567-5.496956z" fill="#fff"/><path d="m31.7903622 65.0677536-.2176258-.0681159-1.7478068 1.8936232 2.070845 1.1988405c-.0408048-1.1477536-.0714084-2.0843478-.1054124-3.0243478z" fill="#ededed"/><g fill-rule="nonzero"><path d="m124.88998 61.8628986c-9.521127.5278985-20.69825 4.3321739-30.8110464 4.9213768-19.950161 18.7012318-7.6849095-1.8527537-34.9799396 1.1988405 2.9379476 1.4406522 5.957505 2.3636232 7.9365392 4.8362319-26.9209859-8.5894203-22.9425151-10.3638406-27.5432596 5.725145 4.3151107-18.0234783 28.923823.9774637 44.2834407-1.3180435 23.2825557-4.5024638 31.4197187-18.5071015 45.3103617-5.857971-.550865-2.8472464-2.37008-6.7843479-4.196096-9.5055797z" fill="#d5ae9a"/><path d="m33.5109658 58.698913s61.363662 7.8333334 101.5428172-12.8330434v11.2663768c-48.3163182 12.2404348-80.8921733 11.5626811-100.8355335 6.8286232z" fill="#231f20" opacity=".2"/><path d="m130.177606 4.60804348s-13.815835 5.64681162-11.697385 9.01514492c2.118451 3.3683333 7.674709 18.7318841-8.307183 29.6304348 7.191851.6334782 23.802817-6.6447102 23.122737-6.9001449l-2.893743-14.5563769 11.200926-7.0193478s-4.47833-4.2708695-14.305493-2.3840579z" fill="#231f20" opacity=".2"/><path d="m56.2290543 109.200072s51.7915297 5.037174 73.2786717-20.7992024c2.312274 13.1634054-31.6679473 26.4630434-41.0768608 29.2421734-2.0606439-1.277173-9.0212676-5.554855-8.9022535 0-1.5777868.64029-23.7348089-7.339492-23.2995574-8.442971z" fill="#231f20" opacity=".2"/><path d="m29.0632394 94.0715217s3.3731992-5.840942 7.5148894-7.720942l2.3598792 11.9202899z" fill="#231f20" opacity=".2"/><path d="m76.5872636 125.673913c3.1215694 5.755797-1.8906238 5.381159 2.3088732 8.310145 9.3341046 2.799565 32.4840442 4.853261 33.7829982 4.427536-2.315674 1.205652-33.7931994 9.948334-52.0465595-1.66884l-.9521127 1.06942c5.7228772 7.707319 40.8422332 16.538551 61.8261162-2.646304l-.533863-5.405c-7.297263 1.403188-22.0006033 2.431739-29.2672633 2.353405-1.7716096 3.146957-17.7296982-.861666-11.4899597-4.812391z" fill="#231f20" opacity=".2"/><path d="m69.6776459 163.02529 2.298672-1.103478c.6970825 1.045579 2.5298994-1.28058 2.7645272-1.828913l4.1484909-1.229493.7820926-10.370652c-5.9269014 2.319347-7.8311268 11.191449-9.9937827 14.532536z" fill="#231f20" opacity=".2"/><path d="m125.712877 148.097681-18.487988 16.228623-9.483722-4.577391s20.320805-5.296014 27.97171-11.651232z" fill="#231f20" opacity=".2"/><path d="m50.0199195 147.508478c0 .10558 9.4293159 9.706522 9.1810865 9.822319-2.8427364 2.956232 4.8931791 10.714638 2.9175453 12.465217 5.7092757 1.968551 4.2267002-4.086956 4.0532797-5.132536l1.3023541-1.638188-7.0490342-5.500362.8330986-2.22058z" fill="#231f20" opacity=".2"/><path d="m165.143944.38826087c-11.377747.8242029-22.976519 4.465-34.13324 8.30673913 2.346278-2.79956522 6.028914-4.74086957 9.238894-6.85586957-22.422254-.34057971-46.8643465.43934783-69.6674451 4.57398551-55.2055332 18.81362316-29.91334 60.52442026-44.3004426 59.37326086-7.9229377-1.4542754-16.89659964 5.7898551-11.2791348 13.1531884-5.63106645 1.5871015-9.71494975 8.9742754-3.6962375 11.9202899-22.1672233 21.2828259-7.43327965 28.5099279 7.5862978 6.8115942 2.8257344 2.0094203 6.3247485-.0272464 7.9977465-3.0856522 3.2847887 3.5692754 9.4871227 2.6122464 12.9215292 6.5016669 7.6407042 12.145072 17.7330986 9.778043 19.8719517 13.064637 1.5573843 36.384131-15.2780081 23.782682-11.1227163 32.150725-13.4893964 10.513696-1.8566197 19.883044-.0578069 30.992754-18.4845875 8.146666 24.9725554 14.208985 13.8022334-2.097971.2516298-6.041884 8.2663783-3.555652 5.0495976-10.217392l3.7710463-2.121811c2.3802817 2.52029 3.4718109-2.329565 7.0252314-3.198044 1.4077666 16.977899 16.1655131 3.351305 13.7920322 1.546232 10.9935011-.500652 21.5925551 7.983189 28.7980081 14.937826 2.427887 1.719928.622274 7.015942 3.910463 7.737971 8.990664 1.79145 24.84674 1.277174 10.020986-8.463405-3.767646-7.492754 7.732515-7.663044-1.934829-14.617682-2.818934-14.263478-7.661107-12.332391-1.863421-17.00855-.367243-4.240218-7.820925-7.550653-8.392193-12.839855 24.051046-5.524203 17.525674-19.940942.023803-27.454131 13.601609-9.5362318 12.612092-28.046739 14.070865-43.0560868 2.968551-57.76231888-25.339799-24.5523913 32.232414-59.45159424-1.13454-.56250063-2.411076-.77243134-3.665633-.60282609zm-129.3173042 45.29710143c.0374045-.1771014.0884105-.3405797.1666198-.6471014 9.1350353 2.7756403 18.531167 4.6016967 28.0397183 5.4492753-2.1932596 5.3743479-2.3122737 10.4966667.938511 15.3907971-37.0235815-1.5905072-30.8348491-.3473913-29.1448491-20.2031884zm59.0445876 26.0441305c.5134607.7765217 7.3414686-4.1107971 10.2828166-6.2973189 3.016157-1.106884 7.480886-1.3214493 11.156721-2.2886956 10.915291-3.6510145 9.929175.4563768 12.758309 8.225-28.260744 10.0505072-60.1871223 15.6666666-89.5802008 7.2032608 2.7815292-22.2092029 14.5231188-7.6119565 27.5432596-5.7523913-1.9790342-2.4726087-4.9985916-3.4057971-7.9365392-4.8362319 27.4446478-2.3295652 16.9102012 16.6509421 33.3239436-.0987681 1.9756338-2.0434782 5.7058753-1.2465217 8.6438228-2.0230435-2.2000602 1.6347827-6.702193 5.1018841-6.1921326 5.8681885zm-60.0511067-6.6242754 7.004829 1.140942c-2.4074849 3.2184783-3.2847887 7.6766667-4.3185111 11.6205797-2.9141448-.4393478-2.5298994-10.4319565-2.6829175-12.7615217zm41.100664 2.9562319 12.9759356-.7594928-5.7806841 5.5378261zm23.7688129-5.2960145c-29.8181288 6.2019565-39.1046278 4.6421014-33.1879276-11.9645652 21.7931791 1.6484058 42.991288-8.7937682 33.191328 11.9645652zm-68.1168612 2.2342029.2176258.0681159c.034004.94.0646076 1.8765942.1054124 3.0243478l-2.070845-1.1988405zm-5.2332193 2.8778985c2.4006841 1.0421739 5.9711066 1.6824638 5.8962978 5.4492754-3.4214769-2.3357181-7.1839788-4.1257419-11.1533199-5.3062319 1.7015387-.5565516 3.5278237-.6062448 5.2570221-.1430435zm-10.7826761 4.8736957c2.2272636-6.6651449 19.0422536 2.2103623 17.9541248 7.7788406-2.9855533.5483333-4.9543863-3.0039131-8.1167606-3.8349276-6.3281489-3.0107246-9.5483299 7.1249276-9.8373642-3.943913zm-12.98613677 35.8119561c-.89090544-.524492-1.13573441-2.186521-.51686117-3.872391 1.70020121.091957 3.74044265.589203 4.28450704 3.664638-.82969819.756087-2.64891348.865072-3.76764587.207753zm5.61406438-1.90384c-.40464789-2.489638-1.94162978-3.708913-4.39331992-4.086957 1.9756338-3.4398548 5.56985916-3.4057968 6.60358151 1.491739zm9.35110669-10.1833335c-1.6185916 1.6484058-3.7098391 3.8110865-5.6072636 5.8205075-.6188733-2.3295655-2.40748494-3.1878263-4.59734409-3.7736234 2.92094569-4.6182609 12.61889339-11.7772464 10.20460769-2.0468841zm4.4783299-.2247826c-2.5401006.7492753-.6324748-4.4275362-2.5979074-5.2994203-9.2150906-3.4228261-12.95553321-4.7068116-2.2544668-10.5171015-1.2275453 5.6638406 2.771328 11.3753624 8.745835 12.4277537-1.2717505 1.1954348-2.0130382 2.8744927-3.8934608 3.3887681zm3.2405835-5.8545652c-9.6129376-4.3219566-6.2125352-17.6454348 3.4616097-9.3114493-2.4380885 2.7552898-3.4208048 5.8818116-3.4616097 9.3114493zm9.8985715 5.3811594c-12.1938431-1.7505797-6.987827-14.9855073-1.360161-12.8194203 1.2309457 3.794058 2.2510664 9.216087 3.4616097 13.5312319zm24.5271026 42.0241309c4.6143461 2.956231 9.7829577 4.427536 15.0603823 5.857971-16.3219316 13.711739-10.1263984 11.096086-23.8028169 1.413405 3.4615437-1.675063 6.4625417-4.171094 8.7424346-7.271376zm3.1283702-23.527247c.0053357-.07236.0213796-.143524.0476056-.211159 10.4154326.551739 9.5381288-.429131 14.7917505 8.075145-2.8801408 1.941304-1.5437827 3.804275 1.8566198 5.561666-3.3085916 1.675652-1.6627968 3.668044 2.0062374 4.40029l-1.4043662 4.158478c-26.3089135-4.628478-15.8390745-4.219782-17.2978471-21.98442zm19.2496781 3.286594c-.6800805-.463188-1.3329578-.96384-1.6661972-1.90384 2.1524547-.197536 3.7676459.773116 5.5392555 1.587101-6.6851911 3.521594-1.9892354 12.489058 3.4820121 15.206884-3.7642455.609638-5.8010865-1.757391-9.8849698-2.724637v-.255435c5.3386318-1.62116 1.3907646-2.367029-1.6797988-5.217681 2.3802817-1.270363 5.923501-.255435.4862575-4.37645.7344869-.316739 6.725996.432537 3.7234407-2.315942zm.6358752 18.868116c.3060362-.885507.5848692-1.702898.887505-2.561159 6.6545876 1.988985 13.6016097-1.287391 21.0314887-.521087-7.1442452 2.121812-14.3837019 3.48413-21.9189937 3.082246zm28.0941247-2.275072c2.69992-1.491739 5.780684-2.35 9.470121-2.745073.17002.756087.319638 1.427029.442052 1.968551-9.96998 4.887319-21.3511267 8.231812-32.7730784 8.667754.1462173-1.154566.2856338-2.247826.4352515-3.426232 7.6227047-.612953 15.1484309-2.111343 22.4256539-4.465zm-24.7583299 4.604638c-.1156137 1.055797-.2346278 2.132028-.3740443 3.405797l-7.6713078-.596015c.3978471-4.996304 4.4885312-2.711014 8.0453521-2.809782zm5.2094165-8.173914c-6.2737425-2.043478-9.9087727-14.372463.4658551-10.557971-1.2071428 4.308334-1.3907646 6.423334-.4658551 10.564783zm-.2720322-13.452898c-1.5641851.044275-3.5466197-1.522391-5.5562576-2.523696 2.3802817-.156666 5.280825-.388261 8.3921932-.732246-1.0235211 1.192029-1.9144266 2.237609-2.8359356 3.262754zm-13.4383903.960435c-.8637023-1.066015-1.7172033-2.111595-2.6489135-3.262754h3.2303823c.2040241.905942.4080483 1.808478.6290744 2.779131zm-8.3275856 17.900869c2.6217103.776522 5.3114286 1.341884 7.9569417 1.995797-.3400403 1.001305-.6800805 2.006015-1.0541248 3.037971-2.1694567.265653-12.8161167-3.405797-15.4718309-5.367536l.7888933-2.322753c2.6115091.902536 5.1584105 1.873188 7.7801207 2.656521zm-8.2765794 46.141739c-4.3423139 1.747174-10.4868411 1.362319-15.0501811-.626666.6222736-1.144348 12.7209054-4.80558 4.8659758-4.962247-.4114487-1.954927-.8126961-3.851956-1.1765392-5.578695l11.9014084.647101c-3.9410664 4.539928 2.9957546 8.551957-.5406639 10.520507zm3.2881891-16.593043c8.9498592 5.173406-21.2389135 5.500362-18.1173441-.94l.9385111-.085145c-4.8591751-7.915072-2.1932596-11.494565 2.9855533-17.008551l10.1672032 8.153479c-4.0974849 1.784637 4.3797183 5.636594 6.2533401 7.588115v.303116c-.3400403.313334-3.2201811.388261-2.2272636 1.988986zm8.501006-4.086957c-.5474648-.507463-.8671026-.800362-1.1459356-1.062608 1.8328169-3.03116 3.6316298-6.011232 5.4406439-8.987899l.2244265.091957c-1.4893762 3.269565-2.9685513 6.532319-4.5259356 9.965362zm5.4066399-3.167391-1.8736218.34058 2.3530785-5.837536c-.1768209 1.965144-.3332394 3.736159-.4862575 5.503768zm-10.2012073 3.627174-6.6613883-4.567174c9.3647082-5.915869 14.5707243-13.204275 17.6310865-12.979493-3.6384306 5.827319-7.2734607 11.617174-10.9867002 17.553479zm15.7234608 4.577391c-4.3763179-3.886014-3.3663984-23.551087.5950704-21.711956.3876459 6.511884 2.2340644 12.444782 6.0459155 17.611377zm51.0502414 12.26087c1.105131.76971 2.064044 1.171594 3.862857 2.724638-19.310885 2.966449-10.847284-1.283986-16.077102-6.98529l8.87505-2.241015c-.040805 1.832319 1.006519 5.248334 3.322193 6.491449zm-4.457928-17.934928c9.065473 8.739276-2.801931 10.322971-10.694265 10.38087-5.49165-3.661232-11.772193-8.855073-18.753219-11.167609 9.361307-1.811884 17.532474-5.909058 24.93515-11.92029 2.274613 3.920263 3.804532 8.228617 4.512334 12.707029zm-1.856619-17.543261c-10.541248 8.643914-24.095252 14.907174-38.1627165 14.95145-2.720322-3.685073-3.3527968-8.67116-4.1212878-13.37116 12.5440845-.357608 24.3740843-3.337681 35.4219923-9.69971zm.414849-32.746739c23.384567 17.369566-25.118773 20.754928-33.891811 20.223624-6.2295372-14.644928 10.47664-10.38087 18.192153-13.486957 17.858913-6.893333-15.8662778-.051087-20.0861772.582391 3.8118511-6.845652 12.7787122-4.860072 19.2190742-8.855072 9.412314-6.021449 9.823763-1.593913 16.55656 1.536014zm3.400402-33.6969562c-1.94163 31.6057972-35.0853518 35.7165942-59.507042 34.7391302-27.6214688-.783333-32.7458752-11.092681-35.8266398-31.0744925 31.2837022 9.4306522 65.8589938 4.5671739 95.8675448-7.9797826-.200623 1.5462319-.333239 2.9323913-.533863 4.3151449zm1.145936-12.9965217c-.707284 1.8493478 1.162938 6.9205797-2.642113 7.0568116-.963227-3.5283363-2.483093-6.8798759-4.502133-9.9278986l7.552294-1.8663768c-.142817 1.6552174-.285634 3.1980435-.408048 4.7374638zm.054406-22.09c-.309436 4.3526087 1.380564 11.3855797-.166619 14.8458695-10.285498 2.7466472-20.704289 4.9655737-31.215695 6.648116 3.71664-4.3185507 2.720322-10.557971-1.203742-14.8628986 11.027857-2.234116 21.820877-5.5045264 32.235815-9.7678261.119014 1.1136957.309436 2.1184058.350241 3.1367392zm-1.02012-6.7298551c-28.114528 14.3928986-64.9476865 16.8348551-95.7995376 7.2884058 13.4689939-43.16507247 62.0369416-35.20231884 93.6028776-37.69536232-12.397868 8.48724642 1.261549 19.36876812 2.20006 30.40695652zm-1.975634-15.527029c-.044205-1.4985507-3.526218-4.9588406-1.914427-6.5493478 10.752073-3.74637682 21.381731-8.43956523 32.963501-10.36384059 0 .07152174.017002.14304348.027203.21456522-10.734866 4.83134958-21.117996 10.41126297-31.072877 16.69862317z" fill="#000"/><path d="m67.5625956 78.3844203c-.1360161 4.3526087-6.5627767 4.482029-6.8314085 0 .1360161-4.3560145 6.5627767-4.4786232 6.8314085 0z" fill="#000"/><path d="m104.212133 75.4588406c-.136016 4.3560145-6.5661773 4.4854348-6.8348091 0 .1360161-4.3526087 6.5661771-4.482029 6.8348091 0z" fill="#000"/></g></g></svg>