<svg height="133" viewBox="0 0 68 133" width="68" xmlns="http://www.w3.org/2000/svg"><g fill="none"><path d="m13.22 122.61c.3215804.238303.6287836.495418.92.77l.66-1.49c-1.58-1.46-4.06-3.46-7.25-3.56-.38.78-.77 1.55-1.19 2.31 2.44846454-.182789 4.8815936.515937 6.86 1.97z" fill="#2c415b"/><path d="m5.38 129.27c17.9 6.34 7-11.69-3.64-6-1.32 2.09 1.57 4.92 3.64 6z" fill="#c4c5c6"/><path d="m15.17 121.05c.33-.73.65-1.46 1-2.18-1.8771436-2.120687-4.0178494-3.992544-6.37-5.57-.62 1.5-1.26 3-1.94 4.43 2.57 0 5.87 1 7.31 3.32z" fill="#3c5777"/><path d="m16.51 118 2.13-4.79c-2.6636767-.669811-5.2483002-1.621864-7.71-2.84l-.83 2.09c2.7015078 1.068938 4.9610499 3.021803 6.41 5.54z" fill="#2c415b"/><path d="m22.38 84.88c2.72-.37 6 .48 7.71 2.57.57-1.12 1.17-2.22 1.81-3.29-2.8118983-.496485-5.5829005-1.2017702-8.29-2.11-.39.95-.81 1.89-1.23 2.83z" fill="#2c415b"/><path d="m43.86 81.24c11-7.15 10.42-23.87 20.63-32.18-15.81 1.59-13 30.06-30.51 29-.95-.11-2-.38-1.21-1.53 6.56-21.65 16.45-43.14 23.95-65.11-10.44 20.07-19.5 42-29.55 62.77-5.06 5.36-13.58-5.63-11.68-11.84 1.51-9.67 14.12-18.28 8.26-28.35 2.44 14.69-23 28.78-8.81 42.25 8.62 5.13 20.26 8.75 28.92 4.99z" fill="#c4c5c6"/><path d="m28.78 78.61c-2.5935525-.7455333-5.0112317-2.0036786-7.11-3.7-2.91591-1.3647066-5.0535614-3.9806621-5.81-7.11-1.4446067-2.4594569-2.6021802-5.0765797-3.45-7.8-10.6 20.59 28.05 28.24 35.07 18.35-6.0936039 1.7862767-12.5590893 1.8761712-18.7.26z" fill="#939ba3"/><path d="m19.08 112.27.93-2.09c-2.29-1.12-4.17-2.73-7.6-3.51-.41 1-.82 2.06-1.22 3.1 2.70992.556159 5.3542867 1.394045 7.89 2.5z" fill="#3c5777"/><path d="m20.45 109.2c.49-1.12 1-2.24 1.49-3.36-2.5950423-1.205041-5.0838581-2.626743-7.44-4.25-.6 1.38-1.18 2.78-1.74 4.2 2.8339878.387423 5.5002514 1.569732 7.69 3.41z" fill="#2c415b"/><path d="m24.66 99.59c.85-2 1.69-4.07 2.58-6.1-2.21-.81-6.77-2.71-8.1-1.72-.21.42-.41.85-.62 1.27 2.5966257 1.5936912 4.7172458 3.8559162 6.14 6.55z" fill="#2c415b"/><path d="m22.52 104.53c.45-1 .63-1.4 1.45-3.31-1.6296545-2.7154454-3.5693293-5.2323244-5.78-7.5-1.16 2.38-2.3 4.76-3.38 7.17 2.05.91 4.63 2.11 7.71 3.64z" fill="#3c5777"/><path d="m27.72 92.38c.62-1.37 1.25-2.73 1.92-4.07-2.11-1.31-4.22-2.57-7.64-2.5600591-.71 1.5500591-1.43 3.0900591-2.18 4.6300591 2.18-.44 6.02 1.02 7.9 2z" fill="#3c5777"/><path d="m67.41 48.24c-19.41-4.99-15.87 28.18-33.41 28.25 9.4-24.81 21.33-51.49 27.92-76.44-2.76-.73-4.65 7.1-6.57 9.81-10 21.53-20.62 41.82-29.37 64-25.84-5.45 14.1-34.13-3.33-41.66.47 19.69-31.27 37.06-.5 49.36-4.42 7.52-7.51 15.77-11.34 24-.33 0-.6.05-.29.64-.85 1.91-1.71 3.8-2.52 5.71-.04322606.055011-.07085816.120637-.08.19-1.20858616 2.825954-2.18514389 5.745594-2.92 8.73-.48955242.104885-.97082336.245255-1.44.42-1.87-1.06-4 2.08-3.48 4.17 1 9.24 22.53 9.9 15.27-.65l8.31-18.71c.1242048-.102792.1912229-.259168.18-.42 2.78-6.44 7-14.25 9.12-21.32 23.87 3.68 20.18-26.66 34.55-35.46.0828194-.0901924.1197656-.2133502.1002677-.3342367-.0194978-.1208866-.0932914-.2261831-.2002677-.2857633zm-59.86 70.09c2.7771772.237001 5.364349 1.507391 7.25 3.56l-.66 1.49c-2.1298186-1.904767-4.92660927-2.889755-7.78-2.74.42-.76.81-1.53 1.19-2.31zm6 12c-4.08 1.87-13.23-2.13-11.76-7 4.11-3.17 17.39 1.81 11.71 6.98zm1.67-9.26c-1.44-2.32-4.74-3.32-7.34-3.32.68-1.45 1.32-2.93 1.94-4.43 2.3521506 1.577456 4.4928564 3.449313 6.37 5.57-.37.7-.69 1.43-1.02 2.16zm1.34-3c-1.4489501-2.518197-3.7084922-4.471062-6.41-5.54l.83-2.09c2.4695216 1.199861 5.0522253 2.151207 7.71 2.84zm2.57-5.77c-2.52882-1.124223-5.1751951-1.962745-7.89-2.5.4-1 .81-2.07 1.22-3.1 2.12.42 5 2 7.6 3.51zm1.37-3.07c-1.83-1.76-4.36-2.8-7.69-3.41.56-1.42 1.14-2.82 1.74-4.2 2.3615358 1.614658 4.8496246 3.035946 7.44 4.25-.55 1.13-1.05 2.21-1.54 3.33zm2.4-5.41-.33.74c-2.09-1.09-4.5-2.16-7.71-3.64 1.08-2.41 2.22-4.79 3.38-7.17 2.2032179 2.2741316 4.1422037 4.7901167 5.78 7.5-.42.83-.79 1.69-1.17 2.54zm1.81-4.2c-1.4262642-2.7261516-3.5656295-5.014132-6.19-6.62.21-.42.41-.85.62-1.27 1.33-1 5.89.91 8.1 1.72-.89 2.07-1.73 4.11-2.58 6.14zm-4.85-9.21c.75-1.54 1.47-3.08 2.18-4.63 2.7494607.0643681 5.4155758.9565582 7.65 2.56-.67 1.34-1.3 2.7-1.92 4.07-1.93-1.01-5.77-2.47-7.96-2.03zm10.28-2.93c-1.72-2.09-5-2.94-7.71-2.57.42-.94.84-1.88 1.23-2.83 2.7070995.9082298 5.4781017 1.613515 8.29 2.11-.69 1.04-1.29 2.14-1.86 3.26zm29.52-32.77c-5.2 8.23-7.08 20.67-15.8 26.54-10.45 4.75-34.25-2.65-33.19-13.87.2-12.84 14.67-20.38 13.08-33.38 5.61 9.47-5.74 18.26-8.08 27.51-2.53 6.61 6.25 18.24 11.5 12.74 10-20.67 18.77-42 29.55-62.77-7.33 21.52-17.17 42.89-23.95 65.09 15 9.27 17.48-27.81 31.72-27.51-2.0880262 1.4155754-3.7564158 3.3672114-4.83 5.65z" fill="#000"/></g></svg>