<svg height="155" viewBox="0 0 146 155" width="146" xmlns="http://www.w3.org/2000/svg"><g fill="none" fill-rule="evenodd"><path d="m88.3508571 149.877354c11.2211429 0 20.3148569 1.070404 20.3148569 2.391032 0 1.320627-9.093714 2.38408-20.3148569 2.38408-11.2211428 0-20.3148571-1.042601-20.3148571-2.38408 0-1.34148 9.0937143-2.391032 20.3148571-2.391032z" fill="#1d1819"/><path d="m42.103619 52.6513453s-15.6845714-1.2789238-27.4549523 4.7195067c-11.77038099 5.9984305-14.6486667 12.7544843-14.6486667 12.7544843 7.74927226-.5959369 15.4284164-1.8940913 22.9428571-3.8784753 11.7773334-3.2042601 17.3809524-7.1661435 17.3809524-7.1661435l1.7728572-6.4224215z" fill="#1d1819"/><path d="m40.6297143 67.3450673s-5.2768572 11.273991-12.9105714 17.1195067c-7.6337143 5.8455157-12.8758096 7.2843049-12.8758096 7.2843049s2.9964762-13.6024663 12.8201905-23.9450672 13.9395238-9.4181615 13.9395238-9.4181615z" fill="#1d1819"/><path d="m59.6931429 93.8757848c4.2967841-2.0974154 8.7255387-3.9130605 13.2581904-5.4354261 8.3428572-2.8845291 12.2709524-2.9609865 12.2709524-2.9609865s3.5318095-1.7307175 12.2779048-2.9609865c4.7288535-.7097487 9.4991255-1.1091086 14.2801905-1.1955157l-5.054381 22.242152 2.19 7.791704s-.055619 1.112108-3.031238 2.606503c-2.975619 1.494394-12.7993334 4.066143-12.7993334 4.066143s-9.9140953 2.196413-13.2095238 2.217419c-3.2954286.020698-2.5515238-2.085356-2.5515238-2.085356l-5.9025715-6.783857z" fill="#1d1819"/><path d="m77.3452381 115.645291c3.2467619-.132062 6.5978095-.423991 9.8098095-.861883 1.8508469-.222274 3.6854422-.563564 5.492381-1.021749h.0417143.0417142c1.8156635-.419334 3.6035448-.950924 5.3533334-1.591704 3.0590475-1.077354 6.1737145-2.349327 9.1215235-3.704708l1.272286-.583857 2.780952 3.843722-1.279238 1.007848c-1.317428.998252-2.686633 1.926299-4.101904 2.780269-2.958895 1.891175-6.127166 3.432937-9.4413338 4.594394-.6118095.20852-1.2305714.396189-1.8493333.563005l-.1668572.041704h-.0695238l-.1668571.041704c-.6257143.132063-1.258381.250224-1.898.340583-3.4818032.47361-7.0063102.548234-10.5050477.222421-1.6531506-.126668-3.2984994-.340117-4.9292381-.639462l-1.5990476-.305829.6952381-4.684753 1.3904762-.062557z" fill="#1d1819"/><path d="m77.4217143 117.341256s9.9766667-.417041 15.6637143-1.946189c5.7565714-1.230269 14.8294284-5.407623 14.8294284-5.407623l1.001143 1.390134s-7.188762 5.636996-14.7807619 7.64574l-.1599048.041704-.1599047.034754c-7.6476191 1.661211-16.6857143-.076458-16.6857143-.076458l.2572381-1.695964z" fill="#fff000"/><path d="m95.4005714 81.6634529-7.1470476 26.4473091.5005714-8.007175-12.9522857-13.7136767z" fill="#fff000"/><path d="m36.847619 69.2286996c5.9373334 15.4165919 26.954381 23.8616591 41.644762 25.1961883 2.6905714.2432735 7.8353333.5699551 9.0937142.3544843 6.5978096-1.1121076 21.2812378-4.0035874 31.7723808-17.9257848 6.45181-8.556278 8.704381-28.1293722 6.048572-41.2035874-2.975619-14.5964126-9.656858-26.29439462-25.452667-32.61255605-10.9639048-4.37892377-29.526762-3.60044843-40.9008572-.34058296-24.4098095 6.99237668-31.9044762 41.43295961-22.2059048 66.53183861z" fill="#1d1819"/><path d="m110.904381 15.8197309c-3.594412-3.675712-7.948388-6.5222993-12.7576191-8.34080713-10.0044762-4.00358745-27.5244762-3.12780269-37.7792381-.18766816-3.2308295.92596725-6.2492389 2.47494227-8.8851428 4.55964129-11.3740953 9.001121-14.9128572 26.1206278-13.758762 39.8551569.4347288 5.4094415 1.63074 10.7305005 3.5526667 15.8058296 1.7114923 4.1218235 4.4553152 7.7338753 7.9674286 10.488565-2.2364271-2.2625886-3.9974924-4.9496211-5.1795238-7.9029148-1.9219267-5.0753291-3.1179379-10.3963881-3.5526667-15.8058296-1.1471428-13.7414798 2.3846667-30.8818385 13.7587619-39.8551569 2.6373896-2.0864109 5.6584205-3.6355191 8.8920953-4.55964127 10.2478095-2.94013453 27.8095238-3.81591928 37.772286.18766817 3.600731 1.3918239 6.963899 3.3332597 9.969714 5.7551569z" fill="#fefefe"/><path d="m49.2645714 59.1919283s.2850476-11.6562781 9.3926667-13.4565023c9.107619-1.8002242 23.068 5.8107623 26.6345714 7.0896861 3.5665715 1.2789238 2.9964762 1.0217489 3.9211429 1.2997758.9733333-.2432736.3615238 0 4.1297143-1.1538117 3.7681904-1.1538116 10.3729523-9.1818385 19.1399043-7.0618834 8.766953 2.1199552 6.827239 14.5964126 6.827239 14.5964126s-1.327905 6.9020179-10.289524 9.7309417-18.1457146-1.9461884-21.1352384-.5769058c-4.8666666 1.0912556-20.641619 3.9340807-29.0957143.7715246-4.9300152-1.8047172-8.5476267-6.0682259-9.5247619-11.2253363z" fill="#fbd7a3"/><g fill="#1d1819"><path d="m70.1008571 56.3630045c-1.0556936 1.192678-1.5802981 2.7635955-1.4530476 4.3511211.1320953 2.9818385 2.0092381 5.435426 4.1714286 5.47713s3.8585714-2.3493273 3.7264762-5.3311659c0-.2154709 0-.4309417-.0556191-.6394619l-6.4170476-3.8576233z"/><path d="m77.7971429 60.9782511-15.5246667-3.7672646s2.975619-2.6273542 3.7195238-2.6760089 12.5142857 4.8029148 12.5142857 4.8029148l.3128572 1.9392376z"/><path d="m106.746857 55.9042601c1.056737 1.1893083 1.581633 2.7585878 1.453048 4.3441704-.132095 2.9887892-2.009238 5.435426-4.171429 5.47713-2.16219.0417041-3.858571-2.3423766-3.726476-5.3311659 0-.2154708 0-.4309417.055619-.6394619l6.417048-3.8506726z"/><path d="m96.5268571 62.8618834 14.7459999-6.1513453s-3.351047-2.1269058-4.094952-2.0852018c-.743905.0417041-11.6104764 6.7004485-11.6104764 6.7004485v1.994843z"/><path d="m67.3268571 90.8591928s-12.3057142 15.1455162-13.4459047 19.3089682c-1.1401905 4.163453 7.3 13.053364 9.8028571 14.380942 2.5028572 1.327579 4.0254286 2.321525 4.3521905 2.224215.5043559-.227282.9727944-.527009 1.3904762-.889686.3545714-.291928 2.7809524-2.919282 2.7809524-2.919282.3485567.120936.7234225.14496 1.0845714.069507.3337143-.159866 1.4530476-1.765471 1.2792381-2.085202-.3757528-.443132-.7873312-.854609-1.2305714-1.230269l-.1390477-1.536099c0-.236323-2.537619-1.869731-3.1494285-1.869731s-2.3707619.257175-2.7809524 0-1.7798095-5.226906-1.7798095-5.226906l6.6534285-6.603139s.6952381-4.5457397-.5214285-8.041928c-.8554505-2.2499794-2.3515954-4.2000476-4.3035238-5.6091929z"/><path d="m77.2479048 120.434305-4.8666667 26.648879s-3.740381 2.662107-4.1714286 3.579596 0 2.821973 0 2.821973 7.446.695068 9.0380953 0c1.5920952-.695067 2.3290476-1.786323 3.5248571-2.085201l2.0092381-.542153s8.7113333-18.829372 12.6185714-21.651345c.9733334-.695067 4.4008572-1.973991 7.5919996-2.99574 9.649905-3.086099 30.632191-8.632736 30.632191-8.632736 1.556357.477223 3.156324.798534 4.776286.959193 1.550381 0 1.606-4.295515 3.344095-5.491031s4.053238-8.493722 3.615238-9.362556-4.449524-1.390135-5.645333-.841032c-1.19581.549104-4.234 3.989687-4.943143 4.170404-.709143.180718-28.400476 2.99574-28.400476 2.99574-8.5375242 6.067937-18.4099052 9.154036-29.0957147 10.426009z"/><path d="m104.487333 98.1713004s7.265238.5421525 16.553619-3.2807174c9.288381-3.82287 12.681143-10.426009 12.681143-10.426009s3.524857-4.3719731 2.982572-5.435426c-.542286-1.0634529-3.427524-2.4396861-3.427524-2.4396861s0-1.8002242-.46581-2.2033632c-.465809-.4031391-1.689428-.7367713-2.30819.1320627-.568139.6928546-1.394013 1.1245122-2.287333 1.1955157-.799524.1668162-1.251429-.3683856-1.703334.0417041s-1.661619 2.9331838-1.425238 3.1069506c.314114.6648531.54752 1.3648972.695238 2.0852018 0 0-6.952381 6.1513453-17.964952 3.7950673-2.899143-.6255605-5.471524 4.9419282-5.603619 7.1939462-.180762 3.2112107 2.252571 6.2556054 2.252571 6.2556054z"/></g></g></svg>