<svg height="52" viewBox="0 0 52 52" width="52" xmlns="http://www.w3.org/2000/svg"><g fill="none"><path d="m51.37 0c-7.4195357 16.3196126-7.4195357 35.0503874 0 51.37-16.3196126-7.4195357-35.0503874-7.4195357-51.37 0 7.41953565-16.3196126 7.41953565-35.0503874 0-51.37 16.3196126 7.41953565 35.0503874 7.41953565 51.37 0z" fill="#32313f"/><path d="m32.18 25.69c-.38 8.68-12.7 8.27-13 0 .39-8.69 12.71-8.28 13 0z" fill="#68677c"/><path d="m19.05 5.21-13.84 13.84c.22625791 2.1058562.34308167 4.2220351.35 6.34l19.83-19.83c-2.1179649-.00691833-4.2341438-.12374209-6.34-.35z" fill="#fff" opacity=".5"/><path d="m46.1 19.65-26.46 26.45c2.6314814-.2597025 5.2769417-.3498886 7.92-.27l18.27-18.27c-.080068-2.6397292.010119-5.2818746.27-7.91z" fill="#fff" opacity=".5"/><path d="m47 37.54c-.27-1.37-.49-2.74-.66-4.12l-12.92 12.87c1.38.17 2.75.39 4.12.66z" fill="#fff" opacity=".5"/><g fill="#68677c"><path d="m51.37 0c-16.3196126 7.41953565-35.0503874 7.41953565-51.37 0 21 17.7 35.41 13 51.37 0z"/><path d="m51.37 0c-17.7 21-13 35.41 0 51.37-7.4195357-16.3196126-7.4195357-35.0503874 0-51.37z"/><path d="m0 51.37c16.3196126-7.4195357 35.0503874-7.4195357 51.37 0-20.99-17.7-35.37-13.03-51.37 0z"/><path d="m0 51.37c17.7-20.99 13-35.37 0-51.37 7.41953565 16.3196126 7.41953565 35.0503874 0 51.37z"/></g></g></svg>