<svg height="122" viewBox="0 0 110 122" width="110" xmlns="http://www.w3.org/2000/svg"><g fill="none" transform="translate(0 -1)"><path d="m99.25 116.89c-1.5283449.835393-2.8854011 1.951572-4 3.29 3.8743848-.71135 7.524496-2.33248 10.65-4.73-2.299177-.050809-4.577802.442608-6.65 1.44z" fill="#d68c63"/><path d="m72.86 56.19c-.0804706.1123102-.191556.1990957-.32.25l-.66.53c1.18 3 2.29 5.93 3.37 8.92 2.1-3.2 6.63-6.78 11.34-6.78-.94-2.85-1.84-5.7-2.69-8.57-3.9970595 1.1860947-7.7400908 3.1016859-11.04 5.65z" fill="#eab27a"/><path d="m81.77 85.07c.82 2.49 1.88 5.69 3 9.11 2.7801399-3.9365523 6.741474-6.8856622 11.31-8.42-.88-2.37-2.17-5.89-3.33-9-4.2703379 1.8547222-8.0350845 4.7039977-10.98 8.31z" fill="#d68c63"/><path d="m75.66 67.05c.92 2.55 1.79 5.12 2.66 7.68 2.4167743-4.0343816 6.2094842-7.0600266 10.68-8.52-.72-2-1.43-4.12-2.12-6.19-3.75.98-8.66 2.79-11.22 7.03z" fill="#d68c63"/><path d="m78.71 75.89c.91 2.72 1.81 5.43 2.71 8.15 2.6102274-3.9253927 6.4958697-6.8290272 11-8.22-1-2.85-2.08-5.7-3.09-8.57-4.3269226 1.7488472-8.0273883 4.7593956-10.62 8.64z" fill="#eab27a"/><path d="m88.54 105.38c.79 2.35 1.26 3.81 2.39 7.08 2.6621491-4.504588 6.6116288-8.109272 11.34-10.35-.72-1.9-1.45-3.79-2.16-5.68-4.04 2.13-8.67 4.27-11.57 8.95z" fill="#d68c63"/><path d="m85.13 95.18c1 2.98 2 5.953333 3 8.92 2.12-3.74 7.49-8.17 11.73-8.38-1.1333333-2.9866667-2.2533333-5.9866667-3.36-9-4.356822 1.9652243-8.2358847 4.8514926-11.37 8.46z" fill="#eab27a"/><path d="m64.94 39.1c.220842-.1169641.4941291-.0529125.64.15-2.34-11.21 6.61 13.24 7 15.11 2.0819088-1.609141 4.3560674-2.9528093 6.77-4-5-15.59-10.94-31.2-15.55-47.5-28.69 20.46-50.8 50.47-59.89 84.88 15.69-20.65 38.09-37.14 61.03-48.64zm-2-19.3c.09-.2-3-1.62-1.9-2.32-.17.2 2.96 1.62 1.85 2.32zm-2.24-8.13c.4 0 5.28 5.49 1.63 3.1-.19-.67-2.86-2.48-1.63-3.1z" fill="#c4c5c6"/><path d="m18.38 56.11c7.83-1.11 13.78-6.11 19.69-11.35 4.36-1.1 8.12-3.87 11.58-7.87 7.63-2.11 14.28-6.16 22.88-6.62-2.66-8.61-6.38-17.91-8.78-27.36-20.0509275 14.2443277-36.4893854 32.9841697-48 54.72.8021534-.6258566 1.6872574-1.1373996 2.63-1.52zm44.51-36.31c.09-.2-3-1.62-1.9-2.32-.12.2 3.01 1.62 1.9 2.32zm-2.19-8.13c.4 0 5.28 5.49 1.63 3.1-.19-.67-2.86-2.48-1.63-3.1z" fill="#939ba3"/><path d="m32.72 67.6c10.63-8.3 21.65-18.21 33.88-25-.31-1-.61-1.94-.89-2.91-23.9615912 12.4966051-45.1972053 29.6360266-62.47 50.42-.56 2-1.11 4.06-1.67 6.09 9.8094119-10.1401365 20.2109683-19.6902012 31.15-28.6z" fill="#fff"/><path d="m91.25 113.38c.75 2.13 1.51 4.26 2.25 6.4 2.54-3.77 8.08-6.86 13.19-5.84-1.2-3.13-2.56-7-4-10.8-4.5845963 2.439004-8.5099256 5.952585-11.44 10.24z" fill="#eab27a"/><g fill="#000"><path d="m108.67 112.83c-8.75-20.57-16-43-24.33-64.26l-.94.27c-.79.25-1.54.53-2.24.8-5.61-15.64-10.11-32.19-16.76-47.94-.0479159-.20606927-.1599538-.39163208-.32-.53v-.05c-.0623898-.10202398-.1844598-.15085199-.3-.12-31.26 20.22-54.68 54.68-62.97 91 .13 1.21-1.5 3.86-.44 5.67 2.35 2.87 14.06-12.67 16.55-13.61 15.66-15.18 32.86-27.23 50.08-40.19 1.3 3.91 2.78 7.79 4.17 11.59l-.79.71c6.18 22.43 14.62 44.11 21.56 66.65l2.54-.14c4.9159636-.662649 9.542359-2.708805 13.34-5.9l1.78-1.6zm-59.67-58.1c-16.32 12.39-33 26.39-47.43 41.47.56-2 1.11-4.06 1.67-6.09 17.2769281-20.7797799 38.5116354-37.9184695 62.47-50.42.28 1 .58 1.94.89 2.91-6.3 3.04-12.03 7.96-17.6 12.13zm16.49-18.88c-1.2-.44-.34 1.79.09 3.4-23 10-45.92 28.26-61.67 48.49 8.9-33.86 31.09-64.49 59.84-84.83 4.32 15.43 10.43 31.69 15.55 47.5-2.4139326 1.0471907-4.6880912 2.390859-6.77 4-2.12-6.25-4.2-12.68-7.04-18.56zm6.39 21.15.66-.53c.128444-.0509043.2395294-.1376898.32-.25 3.2894885-2.5414462 7.0181061-4.4565998 11-5.65.85 2.87 1.75 5.72 2.69 8.57-4.3 0-8.64 2.91-11.34 6.78-1.04-3.02-2.15-6-3.33-8.92zm3.78 10.08c2.28-3.6 6.47-6 11.23-7 .69 2.07 1.4 4.14 2.12 6.19-4.4742252 1.4578675-8.2707711 4.4837394-10.69 8.52-.87-2.62-1.74-5.19-2.66-7.74zm3 8.84c2.6032017-3.8868483 6.3183707-6.8980172 10.66-8.64 1 2.87 2 5.72 3.09 8.57-4.5041303 1.3909728-8.3897726 4.2946073-11 8.22-.89-2.75-1.79-5.46-2.7-8.18zm5 15c-.6666667-1.92-1.3033333-3.8466667-1.91-5.78 2.9503865-3.6161154 6.7216387-6.4754102 11-8.34l3.33 9c-4.5520304 1.529319-8.5014944 4.4634066-11.28 8.38-.37-1.11-.74-2.18-1.12-3.33zm4.43 13.25c-.9866667-2.966667-1.9866667-5.94-3-8.92 3.1293619-3.6025689 7.0013187-6.4852151 11.35-8.45 1.1133333 3 2.2333333 6 3.36 9-3.97.03-9.37 4.33-11.69 8.3zm.43 1.28c2.34-3.85 7-6.8 11.57-8.95.71 1.89 1.44 3.78 2.16 5.68-4.7283712 2.240728-8.6778509 5.845412-11.34 10.35-.53-1.63-1.51-4.6-2.37-7.15zm16.12 11c-2.837973 1.91673-6.0475021 3.214852-9.42 3.81 2.6049584-3.168575 6.552577-4.921837 10.65-4.73-.37.24-.78.54-1.21.84zm-5.91-1.11c-2.1175095 1.018045-3.9285811 2.577292-5.25 4.52-.74-2.14-1.5-4.27-2.25-6.4 2.921628-4.28376 6.8363291-7.797041 11.41-10.24 1.14 2.93 2.56 6.91 4 10.8-2.38-.94-5.79.19-7.89 1.24z"/><path d="m63.76 15c-.8602915-1.2321066-1.89049-2.3363717-3.06-3.28-.37 0-.89.08.2 1.29.49.25 2.1 3.62 2.86 1.99z"/><path d="m63.24 19.33c-.15.14-2.16-2.63-2.59-1.42.17-.16 2.19 2.72 2.59 1.42z"/></g></g></svg>