<svg height="157" viewBox="0 0 132 157" width="132" xmlns="http://www.w3.org/2000/svg"><g fill="none" fill-rule="evenodd"><path d="m64.2539683 151.99823c18.7942857 0 34.0336507 1.069823 34.0336507 2.382788 0 1.312964-15.2463492 2.389734-34.0336507 2.389734-18.7873016 0-34.0336508-1.069823-34.0336508-2.389734 0-1.319912 15.2323809-2.382788 34.0336508-2.382788z" fill="#1d1819"/><path d="m46.3396825 114.623894s-2.1720635 10.177212 2.8285715 14.317566c5.0006349 4.140354 12.7320635 1.521372 12.7320635 1.521372s9.2679365 10.309203 9.4704762 11.323451c.2025396 1.014248-1.6971429 3.779115-2.8984127 5.557522-.8764046 1.503532-1.5503245 3.115122-2.0044445 4.793363l2.2 1.292124c.3729063.976158 1.1892107 1.718516 2.2 2.000708 1.704127.465442 10.9022222.465442 12.0057143 0s1.2501587-2.348053 0-4.168142c-.4870849-.745701-1.0237305-1.458188-1.6063492-2.132699 0 0 4.9796825-8.398805 4.5815873-11.177566s-8.248254-14.82469-8.248254-14.82469l-1.0266666-5.981284z" fill="#1d1819"/><path d="m42.295873 67.8781858s-15.7561905-1.27823-27.5803174 4.7169469c-11.82412703 5.995177-14.7155556 12.7475664-14.7155556 12.7475664 7.78465706-.5956137 15.4988657-1.893064 23.047619-3.8763717 11.8730159-3.2025221 17.4603175-7.1692035 17.4603175-7.1692035l1.7809524-6.4189381z" fill="#1d1819"/><path d="m40.8152381 82.5569912s-5.3009524 11.274823-12.9695238 17.1171681c-7.6685714 5.8423447-12.9346032 7.2595137-12.9346032 7.2595137s3.0101587-13.5950889 12.8787302-23.9320801c9.8685714-10.3369911 14.0031746-9.3644248 14.0031746-9.3644248l-.9777778 8.9476107z" fill="#1d1819"/><path d="m42.4844444 85.0092478s2.0952381-1.0350885 10.9580953-.9586726c8.8628571.076416 12.6133333 1.3268584 12.6133333 1.3268584s3.9250794-.4446017 12.6133333 1.3199115c8.688254 1.7645133 10.5879366 5.9534956 10.5879366 5.9534956-6.6558731 10.4203543-10.6507937 12.7406193-11.5098413 25.2311503 0 0-.4260318 1.035089-3.7434921 1.444956s-11.4888889-.653009-11.4888889-.653009-10.1339682-1.271283-13.2768254-2.348053c-3.1428571-1.07677-1.7180952-2.778761-1.7180952-2.778761-1.1034921-2.778761-2.2046561-5.557522-3.3034921-8.336283-1.7180952-6.8079649-1.7320635-11.5318587-1.7320635-20.146018z" fill="#1d1819"/><path d="m48.1485714 111.150442c2.8774603.958673 5.8876191 1.806195 8.8279365 2.480045 1.683242.401728 3.3909748.694115 5.112381.875309h.0698413c1.7141072.21431 3.4407279.314106 5.1682539.298717 3.0031746 0 6.1111111-.145885 9.0793651-.430708l1.2920635-.125044 1.2222222 4.543274-1.3968254.521018c-1.4572359.508241-2.9426512.932702-4.4488889 1.271283-3.1630003.786878-6.4126284 1.176622-9.6730158 1.160133-.600635 0-1.1942858-.041681-1.7879365-.09031h-.160635-.0628571-.1536508c-.5936508-.083363-1.1803175-.187566-1.7669841-.31261-3.2020593-.725748-6.3027826-1.838578-9.2330159-3.313673-1.408503-.676422-2.7793755-1.427775-4.1066667-2.250796l-1.2990476-.833629 2.0952381-4.168141 1.2361905.409867z" fill="#1d1819"/><path d="m47.687619 112.762124s8.8419048 2.945487 14.2755556 3.417876c5.4126984.764159 14.6666667-.125044 14.6666667-.125044l.44 1.639469s-8.0317461 2.896858-15.288254 2.26469h-.1466667-.1536508c-7.2215873-1.014248-14.5130158-5.654779-14.5130158-5.654779l.7542857-1.507478z" fill="#fff000"/><path d="m76.9720635 85.1898673-15.6863492 22.5079647 3.1777778-7.370664-7.6336508-17.2561061z" fill="#fff000"/><path d="m22.8939683 69.1911504c5.9644444 15.4082301 27.0774603 23.8487169 41.8349206 25.1825222 2.7028571.2431416 7.8711111.569646 9.1352381.354292 6.6279365-1.1115044 21.3784127-4.0014159 31.91746-17.9160619 6.474286-8.5516372 8.744127-28.1141151 6.076191-41.181239-2.989207-14.5884956-9.707937-26.28013273-25.5688891-32.59486724-11.0139683-4.37654867-29.6266667-3.59849558-41.0526984-.34039823-24.5212699 6.98858407-32.0501588 41.41048677-22.3492064 66.49575217z" fill="#1d1819"/><path d="m97.3238095 15.8111504c-3.6108247-3.6737183-7.9846821-6.51876166-12.815873-8.33628314-10.0501587-4.00141593-27.6501587-3.1261062-37.951746-.18756638-3.2459819.92445972-6.2783625 2.4726908-8.9257143 4.55716812-11.4260318 8.996239-14.9809524 26.1064602-13.8285714 39.8335398.4355254 5.4073642 1.6394589 10.7260224 3.575873 15.7972567 1.5504762 4.0222566 4.4069841 7.5234956 7.9968254 10.4828761-2.2423716-2.2634-4.0088293-4.948558-5.1961905-7.8986283-1.9307026-5.0725764-3.132175-10.3907492-3.5688889-15.7972567-1.1593651-13.7340265 2.3955556-30.8650885 13.8215873-39.8335398 2.64794-2.0835682 5.6801322-3.6317031 8.9257143-4.55716813 10.3015873-2.93853982 27.9365079-3.81384955 37.951746.18756633 3.6158636 1.39379 6.9939836 3.3339402 10.0152381 5.7520354z" fill="#fefefe"/><path d="m35.4025397 59.159823s.2863492-11.6499557 9.4285714-13.4492035 23.1803175 5.8076106 26.7631746 7.0858407c3.5828572 1.2782301 3.0101587 1.0211947 3.9390476 1.2990708.9707937-.2431416.3631746 0 4.1485715-1.1531859 3.7853968-1.1531858 10.4133333-9.1768584 19.2273015-7.0580531 8.8139687 2.1188053 6.8584127 14.5884956 6.8584127 14.5884956s-1.333968 6.8982743-10.3365079 9.7256637c-9.0025397 2.8273894-18.2285714-1.9451327-21.231746-.5765929-4.8888889 1.0906637-20.735873 3.9319469-29.2285714.7711062-4.9541804-1.8013801-8.5892658-6.0636963-9.568254-11.2192478z" fill="#fbd7a3"/><g fill="#1d1819"><path d="m60.7130159 56.6103097c-1.5138787-.7037915-3.1273609-1.1723704-4.784127-1.3893805-2.8984127-.4237611-5.9434921 2.1326991-5.775873 1.3893805.167619-.7433185 2.3257143-3.5915486 5.2730158-4.0430973 2.9473016-.4515487 6.2368254 1.7506195 6.2368254 1.7506195z"/><path d="m84.6336508 56.7492478c1.5109402-.7050791 3.1223271-1.1737336 4.7771429-1.3893805 2.9053968-.4237611 5.943492 2.1326991 5.775873 1.3893805-.1676191-.7433186-2.3187302-3.5984956-5.2730159-4.0430974-2.9542857-.4446017-6.2298413 1.7436726-6.2298413 1.7436726z"/><path d="m57.8495238 57.8676947c1.4546283-.0018423 2.8502127.5721091 3.8787911 1.5952053 1.0285783 1.0230962 1.6056052 2.4112424 1.6037531 3.8581177 0 .9378319-1.7460363 1.1462389-1.899687 0 .0581675-1.3094851-.6110485-2.5450365-1.7424639-3.2170537s-2.5423871-.6720172-3.6738025 0-1.8006313 1.9075686-1.7424638 3.2170537c-.0977778.930885-1.7669841.9795133-1.899687 0-.0018494-1.4456708.5742193-2.8327621 1.6012862-3.8556579 1.0270668-1.0228958 2.4208553-1.5976651 3.8742738-1.5976651z"/><path d="m90.1371429 57.8676947c1.4546283-.0018423 2.8502126.5721091 3.878791 1.5952053s1.6056052 2.4112424 1.6037531 3.8581177c0 .9378319-1.7390521 1.1462389-1.899687 0 .0581675-1.3094851-.6110484-2.5450365-1.7424638-3.2170537s-2.5423871-.6720172-3.6738025 0-1.8006314 1.9075686-1.7424639 3.2170537c-.0907936.930885-1.7669841.9795133-1.899687 0-.0018493-1.4456708.5742194-2.8327621 1.6012862-3.8556579 1.0270669-1.0228958 2.4208553-1.5976651 3.8742739-1.5976651z"/><path d="m45.487619 115.242168c-1.1315017 4.347076-.9982895 8.924423.384127 13.199115 1.2826884 3.813189 2.9193756 7.499365 4.8888889 11.010841 0 0-4.5746032 12.289071-4.7422222 15.178982-.167619 2.889912 12.3130159 2.014602 14.2546032 1.139292s-.8590476-3.563761-.8590476-3.563761c.3988554-1.721604 1.0833634-3.365059 2.0253968-4.862832 1.6482539-2.716239 3.3873016-5.279646 3.3873016-7.280354 0-3.529026-2.9542857-14.44261-2.9542857-14.44261l-14.3314286-10.364779h-2.0533334z"/><path d="m85.7161905 89.6914602s-.1746032 5.7311947 10.3504762 5.7311947c10.5250793 0 9.8825393-4.355708 9.8825393-4.355708s-.244444-3.7860619.565715-4.7308407c.810158-.9447788 3.708571-.6182743 3.708571-.6182743s4.756191-6.8426992 6.090159-6.0021239c1.333968.8405752-.474921 3.9736283-1.28508 5.2935398-.810158 1.3199115-.907936.8058407-.384127 1.3268584.52381.5210177 3.492064 2.4522566 3.331429 4.494646-.698413 7.1830974-13.31873 14.9497348-26.0088889 14.9013338-12.4107936-.041909-13.0044444-3.286113-13.0044444-3.286113z"/><path d="m43.56 87.3920354s-8.1574603 4.3070796-14.3104762 16.9018146c-6.1530159 12.594734-5.0844444 21.028274-4.1066667 22.633008 1.0061551 1.612537 2.9548706 2.379969 4.7980953 1.889558 1.2165959-.470573 2.2965716-1.234462 3.1428571-2.223009 0 0 1.5225397.993407 2.0952381.048628.5726984-.944778 1.5714286-2.480044.9498413-3.688805s-2.6609524-2.903805-2.6609524-2.903805 3.5269841-11.233142 12.4387302-18.312036c8.911746-7.0788934-2.3117461-14.3453536-2.3117461-14.3453536z"/><path d="m115.356825 50.2608407s8.618413-8.2598672 9.603175-8.0723009c.984762.1875664 3.701587 3.216416 3.233651 4.0361505-.467937.8197345-10.266667 6.9469026-11.062857 6.7384955-.796191-.208407-1.773969-2.7023451-1.773969-2.7023451z"/><path d="m117.968889 55.7627876s11.726349-2.3480531 12.459682-1.6603097c.733334.6877433 1.396826 4.6891593.544762 5.1268141-.852063.4376549-12.431746.3820797-12.976508-.2431416-.544762-.6252212 0-3.2233628 0-3.2233628z"/><path d="m116.907302 61.9177434s11.412063 3.563761 11.719365 4.5085398c.307301.9447787-1.061588 4.779469-2.004445 4.7587129-.942857-.0209253-11.076825-5.6201288-11.251428-6.4259696-.174604-.8058407 1.536508-2.8412831 1.536508-2.8412831z"/></g></g></svg>