<svg height="215" viewBox="0 0 173 215" width="173" xmlns="http://www.w3.org/2000/svg"><g fill="none" fill-rule="evenodd" transform="translate(-5.4 .6)"><g fill-rule="nonzero"><path d="m137.82 45.108c6.996-7.392 13.008-12.624 17.124-1.032-10.596 8.064-11.22 14.4-19.884 2.808.998569-.4599405 1.927633-1.057773 2.76-1.776z" fill="#514f52"/><path d="m156.576 65.928c-1.824-8.268-14.4-16.488-19.812-7.956-.36 5.556 3.504 11.556-2.064 15.6-4.368 4.296-10.572 4.476-15.408 7.656-6.42 6.072 1.476 23.316 4.548 27.6 5.112-4.884 11.328-7.584 18.096-10.308 12.012-5.964 16.956-19.8 14.64-32.592z" fill="#514f52"/><path d="m136.26 59.124c0-.276-.096-.528-.156-.78 4.608 1.392 8.988-4.5 13.38-3.684 14.064 9.396-15.492 20.58-13.224 4.464z" fill="#3f3d40"/><path d="m136.728 60.468c-3.036-2.4-7.776-7.488-6.564-12.588 3.264-2.148 6.624-7.392 11.532-5.832 11.364 8.172 9.744 22.656-4.968 18.42z" fill="#f6b796"/><path d="m148.224 61.536c-1.284.42-8.592.852-7.824 2.928 1.296-.684 7.884-.66 7.824-2.928z" fill="#514f52"/><path d="m128.484 107.28c.071857-4.178959-.23338-8.355883-.912-12.48 8.4.252 16.368-3.18 24.576-6.624-4.008 8.496-14.4 14.808-23.46 17.364-.168.06.54.06-.204 1.74z" fill="#3f3d40"/><path d="m148.932 81.996c-4.068 3.6-9.6 3.696-14.736 3.216 1.8 4.2 15.9.816 14.736-3.216z" fill="#3f3d40"/><path d="m139.428 72.192c-4.44 2.1-7.752 6.648-13.548 8.052-1.86.78-7.488 1.2-4.284 3.72 4.728.78 23.604-8.148 17.832-11.772z" fill="#6d696e"/><path d="m124.308 50.232c-.456 4.188 11.52 22.8 13.92 13.8.3-13.536-18.876-25.908-12.42-9.6" fill="#514f52"/><path d="m129.264 53.568c15.264 6.636-13.716 22.572-17.616 28.8-.36-3.684-8.664-5.184-5.916-7.008 8.916-8.844 18.624-22.02 23.532-21.792z" fill="#a5b7c6"/><path d="m133.368 59.016c-3.924 2.484-8.244 6.744-12.084 10.728-.348 2.976 13.812-9.888 12.084-10.728z" fill="#d5ecff"/><path d="m37.752 191.424c-2.676 6.084 5.448 11.916.492 16.02-2.4 2.316-10.308 2.82-8.904 5.34 32.4 3.024 22.8 1.512 23.028-21.6-.5348371.492357-.9813042 1.072765-1.32 1.716z" fill="#3f3d40"/><path d="m161.484 195.672c3.132 11.856 12.084 10.62 16.572 15.264.984 1.92-10.116.96-11.772.972-10.632 3.144-17.04-7.98-22.248-16.032 5.052-.78 9.42-5.052 15.6-5.268.612 1.776 1.164 3.444 1.848 5.064z" fill="#3f3d40"/><path d="m68.76 174.108c7.776.588 16.872-4.272 24.492-3.468 17.472 4.704 32.304 13.512 47.784 24.456 27.06 14.244 18.228-12.876 9.108-24.408-9.912-10.668-25.272-22.56-38.244-25.38-17.208-1.668-39.9 14.928-43.14 28.8z" fill="#514f52"/><path d="m66.48 142.008c-18 8.4-32.748 18.624-30.648 38.076 1.008 7.908-2.04 20.472 9.12 20.400308 13.032-.888308 11.136-16.920308 21.3-21.996308 54.42-30.072 33.78-47.76.228-36.48z" fill="#514f52"/><path d="m22.8 119.736c-11.664 8.184-29.316 21.864-4.596 11.844-4.596 19.62 21.504-12.528 4.596-11.844z" fill="#f6b796"/><path d="m60.408 82.62c-12.804 7.74-19.764 20.4-31.74 29.532-11.22 6.852-9.876 21.912.48 19.932 14.4-7.14 26.22-12.444 35.256-22.452 5.196-7.572 9.456-16.248 3.18-23.232-2.508-2.616-3.648-5.736-7.176-3.78z" fill="#514f52"/><path d="m55.2 118.5c-.324-7.644.96-16.668 1.008-25.368-3.72 9.084-10.236 19.02-10.956 29.076 3.276-1.2 6.996-3.96 9.948-3.708z" fill="#3f3d40"/><path d="m125.556 112.692c-.624 11.664 3.516 28.524-11.748 28.944-16.8 1.464-51.288 4.02-52.044-8.892-.624-19.584-7.2-43.536 5.772-55.032 13.416-11.628 41.652-8.52 53.532 3.432 7.092 8.196 5.424 20.304 4.488 31.548z" fill="#514f52"/><path d="m85.128 124.128c9.7081263-14.763978 17.48729-30.709448 23.148-47.4485176h9.42c.18-.0834824-2.844 10.0805176-3.432 12.3725176-5.22 17.616-16.032 36-26.28 52.344-1.56 1.872-13.416-.264-13.044-3.6 2.904-4.464 7.08-8.052 10.188-13.668z" fill="#3f3d40"/><path d="m95.076 118.032c-10.38-6-22.8-30.468-21.516-38.34 3.2348515-.0397922 6.4516052.4882103 9.504 1.56.876 11.256 7.488 24.276 16.8 31.272-.492 2.004-3.108 5.208-4.788 5.508z" fill="#3f3d40"/><path d="m125.172 34.404c-2.544-9.756 10.536-12.276 15.816-15.984.096-.252.084-.264 0 0-.144 13.332-6.996 14.244-15.816 15.984z" fill="#514f52"/><path d="m136.8 22.8c-3.6 2.4-6.648 5.376-10.8 8.712-.078308.0344319-.139044.0995061-.168.18-.156.204.24.9.924.456 7.2-.348 14.4-6.468 1.368-1.068 1.152-1.74 10.296-6.252 8.676-8.28z" fill="#3f3d40"/><path d="m125.16 34.32c4.908-8.796 16.092-1.56 22.476-.588.24-.108.24-.12 0 0-9.12 9.36-14.928 5.544-22.476.588z" fill="#514f52"/><path d="m141.6 33.972c-3.9-.744-8.604-.756-13.788-1.2-.07705-.030722-.16295-.030722-.24 0-.252 0-.456.816.348.96 1.38 1.056 7.356 5.376 8.676 3.168-1.752-.96-4.092-1.2-6.948-2.988 1.968-.408 11.688 2.664 11.952.06z" fill="#3f3d40"/><path d="m112.368 8.124c23.856 18 16.932 59.916-1.728 78.396-28.044 20.904-54.144-11.388-54.624-37.668-5.292-37.548 26.484-62.544 56.352-40.728z" fill="#514f52"/><path d="m65.376 77.448c32.4 38.064 62.76 1.104 62.028-36.072-11.772 21.696-37.068 35.424-62.028 36.072z" fill="#3f3d40"/><path d="m64.056 34.8c-4.404-12.432 7.8-33.18 20.28-29.016 1.32 24 14.4 24.336 30.18 29.76-12.516 4.668-45.288 11.364-50.46-.744z" fill="#6d696e"/><path d="m122.748 46.86c-.168-4.2 1.848-11.664-3.336-13.956-18.648-4.8-38.58-3.288-57.432-.672-4.128 24.168 9.756 27.768 28.728 27.876 12.696.684 28.524 1.644 32.04-13.248z" fill="#f6b796"/><path d="m61.776 42.48c9.6 7.776 22.332 5.088 34.38 6 8.52-.36 25.38 4.188 27.096-6.636z" fill="#de956f"/><path d="m54.816 40.716c17.364 3.6 36.504 3.096 54.792 3.264 23.484.396 22.104 1.092 16.128-18.384-5.376 3.36-13.716 1.2-20.328 1.812-16.932-.168-31.308 2.232-48.072-1.2-.156 1.26-3.336 13.572-2.52 14.508z" fill="#3f3d40"/><path d="m54.816 42.708c17.364 3.6 36.504 3.096 54.792 3.264 23.484.396 22.104 1.092 16.128-18.384-5.376 3.372-13.716 1.2-20.328 1.812-16.932-.168-31.308 2.244-48.072-1.2-.156 1.26-3.336 13.572-2.52 14.508z" fill="#514f52"/><path d="m129.228 40.968c-.574532-4.5895087-1.748544-9.0838386-3.492-13.368-3.9 2.88-11.784 1.512-16.8 1.764-12.204 8.076-27.168 12.168-41.94 15.252 13.596.348 68.292 5.688 62.232-3.648z" fill="#3f3d40"/><path d="m104.4 33.936c-6.768-.732-55.452-2.304-42.648-.096 13.944-.444 31.716 3.36 42.648.096z" fill="#6d696e"/><path d="m86.112 37.884c-8.196.828-18.24-.144-27.012-.696 6.156 2.568 22.26 3.72 27.012.696z" fill="#6d696e"/><path d="m97.824 41.64c-12.4864509.4429936-24.9885664-.0383198-37.404-1.44 7.164 3.516 29.904 4.764 37.404 1.44z" fill="#6d696e"/><path d="m102.276 64.68c-11.892 2.46-29.88-1.968-38.88-.588 10.02 3.108 41.904 4.308 38.88.588z" fill="#6d696e"/><path d="m100.668 70.104c-6 1.668-13.584 1.2-20.196.336 2.844 3.024 20.832 2.832 20.196-.336z" fill="#6d696e"/><path d="m97.32 78.456c-4.908-.552-11.724-.576-17.196-.648 1.008 1.392 16.2 2.436 17.196.648z" fill="#6d696e"/><path d="m60.084 144.48c-.5077652-3.94303-.164037-7.9491 1.008-11.748 21 1.968 47.82 2.82 64.8.408 0 4.992 1.764 18-4.452 18.708-16.944 1.752-61.5837124 4.38-61.356-7.368z" fill="#3f3d40"/><path d="m79.332 112.092c-6.264 0-12.588-3.096-17.808-6.456 1.74 4.068 15.36 9.312 17.808 6.456z" fill="#6d696e"/></g><path d="m22.884 119.58c-7.2 1.032-14.556 1.404-22.872 2.04-.468 4.308 16.56 3.84 17.892 4.272"/><path d="m25.464 131.844c-6.984-3.3-7.2-16.2 1.68-18.144 2.22 6.408 2.616 11.664 9.6 15.012-3.588 2.088-7.944 4.368-11.28 3.132z" fill="#3f3d40" fill-rule="nonzero"/><path d="m114.636 137.04c-16.464 2.58-37.944-.384-52.464-1.2 15.984 3.216 38.436 6.336 52.464 1.2z" fill="#514f52" fill-rule="nonzero"/><path d="m108.06 143.46c-14.4 1.632-33.852-1.8-46.272-2.808 13.896 3.108 34.044 7.116 46.272 2.808z" fill="#514f52" fill-rule="nonzero"/><path d="m73.704 146.736c-3.744.492-8.4-.276-12.996-.936 1.596 2.124 11.664 3.408 12.996.936z" fill="#514f52" fill-rule="nonzero"/><path d="m29.928 125.424c-3.192-2.832-4.608-6.624-4.392-11.424-3.288 1.836.684 12.912 4.392 11.424z" fill="#514f52" fill-rule="nonzero"/><path d="m23.796 122.844c0-.492-3.372-6.12-1.86-1.836.864 2.652 4.956 8.16 1.86 1.836z" fill="#514f52" fill-rule="nonzero"/><path d="m74.76 103.272c-3.7546847-.416116-7.3677761-1.67106-10.572-3.672-1.668 1.44 10.272 6.252 10.572 3.672z" fill="#6d696e" fill-rule="nonzero"/><path d="m99.6 101.472c-6.0223257 9.118779-11.5541774 18.552168-16.572 28.26 5.316-6.996 13.5-19.86 16.572-28.26z" fill="#514f52" fill-rule="nonzero"/><path d="m97.884 111.876c-1.608 3.492-8.4 10.8-8.088 13.86 1.524-3.516 8.604-10.86 8.088-13.86z" fill="#514f52" fill-rule="nonzero"/><path d="m87.36 101.472c-2.16-4.632-6.48-10.272-9.612-14.892-.36 2.22 6.816 13.644 9.612 14.892z" fill="#514f52" fill-rule="nonzero"/><path d="m113.928 171.84c-5.88-1.128-12.696-1.092-19.728-1.608.6-18.276-4.248-18.744-.336 0-.528 0-1.044 0-1.56 0-.936-3.804-5.04-7.704-4.164-13.296-.48-1.44 1.896-5.076-.324-5.112-2.52 5.088-.96 15 4.164 18.42 3.624 1.752 17.352 2.988 21.948 1.596z" fill="#3f3d40" fill-rule="nonzero"/><path d="m123.168 166.5c-8.736-.096-18.312 1.98-27.6 2.76 5.016 1.26 21.444-.564 27.6-2.76z" fill="#3f3d40" fill-rule="nonzero"/><path d="m89.52 168.9c-3.936-.384-19.56-5.508-19.2-2.292 4.788.912 15.912 4.26 19.2 2.292z" fill="#3f3d40" fill-rule="nonzero"/><path d="m70.8 175.32c-6.96 1.452-14.592 4.56-22.236 6.852 3.036 1.32 18.024-4.224 22.236-6.852z" fill="#3f3d40" fill-rule="nonzero"/><path d="m146.16 166.992c3.96 8.232 1.908 11.412-4.08 16.728 6.936-1.5 9.396-11.448 4.08-16.728z" fill="#3f3d40" fill-rule="nonzero"/><path d="m152.496 180.864c-.54.828-4.176 2.832-4.104 4.404.408-.612 5.76-3.372 4.104-4.404z" fill="#3f3d40" fill-rule="nonzero"/><path d="m46.68 176.628c-4.5 1.44-8.4-.648-11.112-4.476-1.908 4.092 10.86 9.048 11.112 4.476z" fill="#3f3d40" fill-rule="nonzero"/><path d="m52.656 91.008c-7.608 7.104-27.144 22.32-24.324 25.392 4.332-.24 33.588-27.852 24.324-25.392z" fill="#6d696e" fill-rule="nonzero"/><path d="m57.78 150.12c-18.216-2.616-27.816 42-10.008 9.336 1.68-3.672 13.572-4.5 10.008-9.336z" fill="#6d696e" fill-rule="nonzero"/><path d="m151.872 173.412c-2.244-6.18-28.5-23.172-27.372-16.62 11.808 5.604 28.188 22.572 27.372 16.62z" fill="#6d696e" fill-rule="nonzero"/><path d="m77.4 49.56c-2.952.66-2.148 6.456 2.136 4.356 1.968-1.536.864-4.56-2.136-4.356z" fill="#514f52" fill-rule="nonzero"/><path d="m106.632 50.4c-3.288 0-3.3 5.112 0 5.112s3.3-5.112 0-5.112z" fill="#514f52" fill-rule="nonzero"/><path d="m82.452 48.276c-.144-.576-13.068-3.012-7.428-.3 1.776-.096 6.804 2.748 7.428.3z" fill="#514f52" fill-rule="nonzero"/><path d="m110.472 47.688c-1.2.612-8.832-.06-8.136 2.4 1.08-.372 10.032.312 8.136-2.4z" fill="#514f52" fill-rule="nonzero"/><path d="m151.128 40.164c.084-1.2-6.732-2.172-2.676-.216 2.4.252 1.932 3.276 3.984 3.852.372-.792-.108-2.388-1.308-3.636z" fill="#3f3d40" fill-rule="nonzero"/><path d="m149.928 44.772c-.9-.696-4.224-5.46-5.46-3.888.924.168 3.948 5.448 5.46 3.888z" fill="#3f3d40" fill-rule="nonzero"/><path d="m146.196 55.836c-1.308-1.956-4.512-2.052-6.936-1.296.492-.672.744-1.332.24-1.548 1.104.372 3.204.372 3.276-2.124 5.772.972 0-11.712 1.512-1.872-.192.384-.396.744-1.644.96-.372-1.644-5.76-9.36-5.772-5.28 1.2 1.2 6 6.12 3.84 6.756-13.644-11.256-3.972-2.748-3.24 3.912-1.392 2.496 2.976-.54 5.712.6.564-.108 2.964 1.764 3.012-.108z" fill="#de956f" fill-rule="nonzero"/></g></svg>