<svg height="200" viewBox="0 0 164 200" width="164" xmlns="http://www.w3.org/2000/svg"><g fill="none" fill-rule="evenodd"><path d="m109.398468 195.344948s24.05566-.912892 35.319319-12.940767c11.26366-12.027874 8.067404-24.30662 8.067404-24.30662s-9.149106 15.519164-16.965276 7.993031c-7.81617-7.526132.453617-13.059233 14.529702-21.303136 14.076085-8.243902 12.952511-33.574912 12.952511-33.574912s-8.91183 13.149825-16.323234 9.756097c-7.411405-3.393728-13.727149-7.825784 1.312-31.3588849 15.039149-23.533101-13.922554-51.9581882-13.922554-51.9581882s2.658894 9.9721255-4.843234 11.6027875c-7.502127 1.630662-19.540425-6.9686411-13.957446-19.9163763 5.582978-12.9477352-3.817362-29.3379791-3.817362-29.3379791s1.521362 11.5470383-11.20783 15.1080139c-12.7291914 3.5609756-15.9742978 11.8048781-15.9742978 11.8048781s-1.3957447-6.3972126 2.5542128-13.6794425l3.9429787-7.28222999s-18.1795745 2.29965157-26.5889362 12.34146339c-10.9914893 13.1149826-6.888 20.56446-15.464851 23.6933798-7.0764256 2.5644599-9.8609362-4.1811847-8.0813617-10.4529617 1.0568519-3.7467985 2.8425046-7.2490095 5.2549787-10.3066202 0 0-22.5412766 6.7456446-29.52 35.6027875-6.97872341 28.8571428 14.6553191 50.0278747 2.1564255 54.1114987-12.4988936 4.083623-7.3067234-15.5261329-7.3067234-15.5261329s-19.14263828 13.6655049-8.06740424 38.0975609 22.74365954 18.898955 23.02978724 28.062718-10.1261277 11.84669-15.0461277 6.759582c-4.91999996-5.087108-3.99182975-10.055749-3.99182975-10.055749s-5.73651064 13.665505 9.23285105 26.425087c14.9693617 12.759582 57.7698724 12.76655 57.7698724 12.76655l34.9634044-2.125435z" fill="#e62129"/><g fill="#1d1819"><path d="m81.4347234 195.121951c17.6212766 0 31.8997446 1.059234 31.8997446 2.369338 0 1.310105-14.278468 2.36237-31.8997446 2.36237s-31.8857872-1.08014-31.8857872-2.383276 14.2854468-2.369338 31.8997447-2.369338z"/><path d="m43.3588085 76.5923345s-12.8338723-4.8780488-19.9033191-13.9930314c-7.0694468-9.1149825-6.7902979-15.5400697-6.7902979-15.5400697 5.8889465 3.3662262 11.4598702 7.2590727 16.6442553 11.6306621 8.1232341 6.9686411 11.0612766 12.174216 11.0612766 12.174216z"/><path d="m46.6039149 67.0383275s-3.2451064-10.3763066-9.1700426-16.3275261c-5.9249361-5.9512195-10.293617-7.7979094-10.293617-7.7979094s.9909787 12.1393728 8.2837447 22.2229965 10.9705532 9.7560976 10.9705532 9.7560976l.2093617-7.8606272z"/><path d="m54.8806809 134.202091c4.6284144-1.022488 9.3188097-1.741791 14.0411914-2.153311 8.7094468-.843205 12.5128511 0 12.5128511 0s3.810383-.843205 12.5198298 0c4.7201353.41103 9.4082408 1.13034 14.0342128 2.153311l-7.188085 19.581881-2.8752342 9.756098-3.2102128.745644c-3.2171914.752614-13.2595744.940767-13.2595744.940767s-10.0633192-.188153-13.2595745-.940767l-3.2171915-.745644-2.875234-9.756098-7.1880851-19.581881z"/><path d="m65.2650213 163.533101-8.0394894 28.480836s-3.405617 2.348432-3.7196596 3.331011c-.3140425.982578-.8723404 2.20209 0 2.571428.8723405.369338 2.2750639.891986 6.762383.696864 2.6408042-.09158 5.200289-.935449 7.3765107-2.432055l2.7914893-.51568v-3.33101s4.543149-12.794425 7.2229787-14.383275c1.1863354-.680001 2.4756701-1.162509 3.8173617-1.428572 1.3442724.264735 2.6361148.747299 3.8243405 1.428572 2.6309787 1.554006 7.1811064 14.383275 7.1811064 14.383275v3.372822l2.7914893.51568c2.1795618 1.478056 4.7360381 2.304809 7.3695321 2.383275 4.487319.188153 5.876085-.327526 6.755404-.696864s.307064-1.588851 0-2.571429-3.712681-3.33101-3.712681-3.33101l-8.0743827-28.480837c.1116595-.3554-11.4590639-.146341-16.1766809-.04878-4.7106383-.097561-16.2883404-.30662-16.1697021.04878z"/><path d="m66.2141277 161.804878c3.1543829.620209 6.4483404 1.114983 9.6515744 1.449477 1.8346188.210177 3.6806032.305601 5.527149.285715h.0837446c1.8488668.019886 3.6971729-.075538 5.5341277-.285715 3.1962553-.334494 6.4902128-.829268 9.6515745-1.449477l1.3538723-.264808 1.7795745 4.313589-1.4725107.696864c-1.5011552.66534-3.0362615 1.251513-4.5989787 1.756097-3.2958734 1.12666-6.709533 1.874803-10.1749787 2.229965-.6350638.055749-1.2701277.090593-1.9121702.10453h-.404766c-.6350638 0-1.2771064-.048781-1.9121702-.10453-3.463288-.354425-6.8747192-1.102593-10.168-2.229965-1.564588-.505748-3.1019572-1.091896-4.6059574-1.756097l-1.4655319-.696864 1.7725957-4.341464 1.3608511.264808z"/></g><path d="m65.8861277 163.449477s9.7143829 1.916377 15.5485957 1.770035c5.8342128.146342 15.5485957-1.770035 15.5485957-1.770035l.6420426 1.574913s-8.2348936 3.756098-16.0510638 3.937282h-.3210213c-7.7882553-.181184-16.0510638-3.937282-16.0510638-3.937282l.6420425-1.574913z" fill="#fff000"/><path d="m99.0978723 154.04878s6.9787237 1.965157 17.4468087-1.797909 15.68817-10.452962 15.68817-10.452962 4.096511-4.648083 3.55217-5.853658c-.54434-1.205575-3.670808-2.850174-3.670808-2.850174s.125617-1.979094-.404766-2.452962-1.828426-.885017-2.547234.041812c-.661975.734072-1.593546 1.169016-2.582128 1.205575-.886298.146341-1.395745-.466899-1.877276 0-.481532.466899-1.981958 3.149826-1.723745 3.351916.258213.202091.697872 2.320558.697872 2.320558s-7.990638 6.439024-20.008 3.310104c-3.16834-.8223-6.2808509 5.1777-6.5251062 7.665505-.2362699 2.06414.4951756 4.121573 1.9819574 5.574913z" fill="#1d1819"/><path d="m92.1331064 136.543554-13.0432341 23.804878 2.3448511-7.58885-9.2886808-16.216028z" fill="#fff000"/><path d="m33.330383 82.3066202c-3.9708936 13.2404181-2.952 31.5749128 2.9101276 41.0034848 9.5329362 15.33101 31.5996596 21.693379 38.3131915 23.456446 2.2710566.397391 4.5761193.567803 6.8810213.50871 2.3072236.059372 4.6146288-.111041 6.888-.50871 6.7065532-1.763067 28.7802556-8.118467 38.3131916-23.456446 5.862128-9.428572 6.881021-27.7630667 2.910128-41.0034848-4.438469-14.815331-9.379405-25.3797909-26.260937-30.4181185-8.0185528-2.3902439-16.2604251-4.0209059-21.8294464-4.0209059s-13.8318298 1.6097561-21.8434043 4.0209059c-16.9024681 5.0383276-21.8434042 15.6027875-26.2818723 30.4181185z" fill="#1d1819"/><path d="m37.5525106 83.5679443c-3.1055319 10.3554006-3.3777021 28.0836237 2.4285958 37.4216027 1.3825155 2.183438 3.0226274 4.193182 4.8851064 5.986063-1.1774548-1.280596-2.2443484-2.658327-3.1892766-4.118467-5.9877447-9.344948-5.7085958-27.0731709-2.5123405-37.4285716 4.3268086-13.9860627 8.6466383-22.9965157 24.0556596-27.4634146 6.2808511-1.8118467 14.6553192-3.8327526 21.2083404-3.8327526 6.5530213 0 14.9344681 2.0209059 21.2083403 3.8327526 1.489121.425676 2.954413.9304598 4.389617 1.5121951-2.528667-1.4394004-5.220626-2.571712-8.018553-3.3728223-6.0854468-1.8188153-14.2086809-3.8397212-20.5732766-3.8397212s-14.4808511 2.0209059-20.5662979 3.8397212c-14.9344681 4.4529617-19.1217021 13.4703833-23.3159149 27.4634147z" fill="#fefefe"/><path d="m43.0377872 110.66899s-2.6519149-13.3937287 7.1462128-15.4216032c9.7981277-2.0278746 20.7477447 6.8710802 26.8401702 8.7247382 1.9470638.592335 3.3777021.996516 4.4105532 1.268293 1.0398298-.271777 2.4634894-.696864 4.4175319-1.268293 6.0924256-1.853658 17.0350637-10.7526128 26.8331917-8.7247382 9.798127 2.0278745 7.153191 15.4216032 7.153191 15.4216032s-2.296 7.846689-13.154893 11.372822c-8.2418727 2.675958-20.0359152.480836-25.2490216-.738676-5.2061277 1.219512-17.0071489 3.414634-25.2420425.738676-10.8309788-3.526133-13.1548937-11.372822-13.1548937-11.372822z" fill="#fbd7a3"/><path d="m63.227234 154.04878s-6.9787234 1.965157-17.4468085-1.797909-15.6811915-10.452962-15.6811915-10.452962-4.1034893-4.648083-3.5521702-5.853658c.5513192-1.205575 3.6777873-2.843206 3.6777873-2.843206s-.1186383-1.979094.4047659-2.452961c.5234043-.473868 1.8284256-.885018 2.5472341.041811.6646103.734468 1.598454 1.169297 2.5891063 1.205575.8862979.146342 1.3957447-.466899 1.8772766 0 .481532.466899 1.9819575 3.149826 1.7237447 3.351917-.2582127.20209-.6978723 2.320557-.6978723 2.320557s7.9836596 6.439025 20.0010213 3.310105c3.1683404-.8223 6.280851 5.1777 6.5320851 7.665505.2362699 2.06414-.4951756 4.121573-1.9819575 5.574913z" fill="#1d1819"/><path d="m92.1191489 114.083624 17.9004251-8.160279s-2.24017 9.930314-8.939744 10.494773c-6.6995747.56446-8.9606811-2.334494-8.9606811-2.334494z" fill="#e62129"/><path d="m72.1460426 114.083624-17.8934469-8.160279s2.2750639 9.937282 8.9467234 10.501742c6.6716596.56446 8.9467235-2.341463 8.9467235-2.341463z" fill="#e62129"/><path d="m91.9586383 115.442509 18.0679147-13.212544-3.098553-3.045296-15.8626383 13.728223z" fill="#1d1819"/><path d="m73.0602553 115.442509-18.0609362-13.212544 3.0985532-3.045296 15.8556596 13.728223z" fill="#1d1819"/><path d="m134.940596 132.8223c.795574-2.027875 13.322383-22.188154 15.004255-36.8362373 1.681872-14.6480836-4.033702-19.456446-4.033702-19.456446s1.926128 14.4529617-5.13634 32.4390243c-7.062469 17.986063-10.119149 22.181185-10.119149 22.181185z" fill="#1d1819"/><path d="m134.36834 131.763066-2.023829-1.031359c-.499081-.317139-1.160155-.181414-1.493447.306621l-8.297702 16.229965c-.204156.557798.074606 1.176373.628085 1.393728l2.02383 1.031359c.49908.317139 1.160155.181414 1.493446-.30662l8.297703-16.229966c.20021-.557649-.077334-1.173523-.628086-1.393728z" fill="#1d1819"/><path d="m133.663489 130.648084c-1.550728-.841968-3.249795-1.376744-5.003744-1.574913-.258213-.634147-.963064-1.114983-1.263149-.808363-.3456.474362-.611919 1.001522-.788596 1.560976-.446638 1.191638 1.702809 3.414634 4.885106 5.045296 3.182298 1.630662 6.280851 2.090592 6.978724 1.003484.35073-.473293.621807-1.000539.802553-1.560975.069787-.418119-.697872-.696864-1.395745-.543554-1.179104-1.302701-2.60142-2.363163-4.187234-3.121951z" fill="#1d1819"/><path d="m134.270638 129.456446c-3.056681-1.560976-6.015659-1.874564-6.608851-.696864-.593191 1.1777 1.395745 3.379791 4.452426 4.933798s6.015659 1.874564 6.608851.696864c.593191-1.1777-1.395745-3.372822-4.452426-4.933798z" fill="#fefefe"/><path d="m134.417191 129.170732c-3.28-1.672474-6.420425-2.090593-7.020595-.912892-.60017 1.1777 1.577191 3.48432 4.885106 5.142857 3.307915 1.658536 6.427404 2.090592 7.020596.912892.593191-1.1777-1.577192-3.484321-4.885107-5.142857z" fill="#1d1819"/><path d="m26.5819574 132.557491c-.6978723-2.090592-11.8149787-23.031359-12.5058723-37.7560973-.6908936-14.7247386 5.3177872-19.1428571 5.3177872-19.1428571s-2.8822127 14.2926829 2.9380426 32.7108014c5.8202553 18.418118 8.6187234 22.801394 8.6187234 22.801394l-4.3826383 1.393728z" fill="#1d1819"/><path d="m27.2170213 131.54007 2.093617-.898955c.517875-.280711 1.1653434-.102145 1.4655319.404181l7.1950638 16.724739c.1655492.560823-.1427751 1.15195-.6978723 1.337979l-2.093617.891986c-.5174207.284622-1.1677437.105269-1.4655319-.404181l-7.1950639-16.71777c-.1694753-.561198.1402174-1.154949.6978724-1.337979z" fill="#1d1819"/><path d="m27.9986383 130.466899c1.6022311-.736444 3.3323822-1.155341 5.0944681-1.23345.3000851-.61324 1.0398298-1.045296 1.3189787-.696864.3179332.49555.5535941 1.03914.6978723 1.609756.3628937 1.219513-1.9261276 3.296168-5.2270638 4.710802s-6.3785532 1.637631-6.9787234.536585c-.3195891-.494668-.5553712-1.038537-.6978723-1.609756-.0418724-.418118.781617-.655052 1.3957447-.445993 1.2712223-1.224885 2.769335-2.190623 4.4105531-2.843205z" fill="#1d1819"/><path d="m27.4682553 129.240418c3.154383-1.351916 6.1273192-1.470383 6.6437447-.264808s-1.6190638 3.275261-4.7664681 4.627177c-3.1474042 1.351917-6.1273191 1.470384-6.6507234.264809-.5234042-1.205575 1.6190638-3.275262 4.7734468-4.627178z" fill="#fefefe"/><path d="m27.3426383 128.919861c3.3846808-1.449478 6.5460426-1.6446 7.0624681-.445993.5164255 1.198606-1.8005107 3.358885-5.1851915 4.808362-3.3846809 1.449477-6.5460426 1.651568-7.0624681.445993s1.8005106-3.358885 5.1851915-4.808362z" fill="#1d1819"/></g></svg>