<svg height="181" viewBox="0 0 52 181" width="52" xmlns="http://www.w3.org/2000/svg"><g fill="none"><path d="m26.44 180.37c-14.13-.84-9.52-10.22-10.37-21.71v-33.58h19v46.61c0 4.774373-3.8557061 8.652498-8.63 8.68z" fill="#8a5e3c"/><path d="m25.6 132.28-6.24 3.75 6.24 3.75 6.23-3.75z" fill="#603913"/><path d="m25.6 144.45-6.24 3.76 6.24 3.75 6.23-3.75z" fill="#603913"/><path d="m25.6 156.63-6.24 3.75 6.24 3.75 6.23-3.75z" fill="#603913"/><path d="m28.22 169.46c.15-2.83-4.86-3.93-5.25 0-2.66.14-5.23.43-6.9.65 0 14.11 19.49 12.93 19 0-1.62-.22-4.18-.51-6.85-.65z" fill="#603913"/><path d="m26.82 169.49c.06 2.23-4.54.49-1.22-1.22.4.05.75.11 1.22 1.22z" fill="#ffca00"/><path d="m31.17 125.08v36.78c.57 6 0 18.18-12.72 15.26 14.85 10.58 18-6.4 16.67-16.56v-35.48z" fill="#8a5e3c" opacity=".5"/><path d="m25.6 0c12.14 24.36 6.9 112.61 7.89 123.11h-15.79v-78c0-23.74 7.9-45.11 7.9-45.11z" fill="#a6a8ab"/><path d="m25.6 0c-12.15 24.36-6.91 112.61-7.9 123.11h7.9z" fill="#d0d2d3"/><path d="m16.07 113.76h19.05v11.32h-19.05z" fill="#f9a000"/><path d="m16.07 113.76h9.53v11.32h-9.53z" fill="#ffca00"/><path d="m49.94 110.65c-6.25-8 .77-14.37-2.94-12-3.77 3.78-2.24 8-.25 13.91 3 12.62-14.65 6.87-21.15 7-39.26 6.1-9.8-14.02-22.6-21.56 2 6.48.25 8.87-2.57 14.69-3.43 19.21 15.07 15.1 25.17 16.85.75-.08 17.34-1.55 18.2-1.64 6.1-2.49 9.57-11.06 6.14-17.25z" fill="#594a42"/><path d="m49.94 110.65-.28-.54c2.76 19.08-13.48 15.14-24.06 16.9l-17.41-1.63c-5.2-2.21-8.52-9.5-6.66-15.27-7.18 20.73 13.2 18.09 24.07 19.43.75-.08 17.34-1.55 18.2-1.64 6.1-2.49 9.57-11.06 6.14-17.25z" fill="#594a42" opacity=".5"/><path d="m27.52 124.62c.06 3.59-4.57 3.95-3.7-1.12.71-2.45 3.38-2.39 3.7 1.12z" fill="#ffca00"/><path d="m26.07 123.89c-1 2.38-3.56-.72-.33-1.69.26.18.5.39.33 1.69z" fill="#fff" opacity=".5"/><path d="m27 122.59c.63 1.4-.94 5.8-3.13 3.15 1.13 3.62 5.13.55 3.13-3.15z" fill="#ffca00" opacity=".5"/><g fill="#fff"><path d="m25.6 132.5c-.11-1.9-2.46-1.74-5.37-2.11-3.55-.7-2.82 2.09-2.93 3.18.61 13.53-1.57 35.72 1.54 41.43 3.81 3.29 7.72-.82 6.76-2.37z" opacity=".5"/><path d="m17.7 45.47v9.14l7.9 5.1v-9.15z"/><path d="m17.7 66.16 7.9 5.1v-5.49l-7.9-5.1z"/><path d="m25.6 85.27-7.9-5.1v7.32l7.9 5.09z"/><path d="m33.49 50.73v9.15l-7.89 5.12v-9.18z"/><path d="m33.49 71.42-7.89 5.1v-5.52l7.89-5.1z"/><path d="m25.6 90.53 7.89-5.1v7.32l-7.89 5.1z"/></g></g></svg>