<svg height="154" viewBox="0 0 167 154" width="167" xmlns="http://www.w3.org/2000/svg"><g fill="none"><path d="m93.8195621 122.301075s-7.7980508 20.76043-7.8051343 22.236559c-.007069 1.476129 5.1633264 9.528603 6.3403462 9.353549 7.706059-15.612903 4.9699011-31.381936 4.7835593-31.852688.0943503-.19871-3.3187712.26258-3.3187712.26258z" fill="#231f20"/><path d="m100.846299 102.652473s4.356625 18.288387 11.942387 20.732043c.975982-1.310694 1.691859-2.797192 2.108729-4.37871 1.601596-7.04-1.391666-17.346881-1.391666-17.346881z" fill="#231f20"/><path d="m112.673107 116.422581 3.505113-2.547742-12.463672-8.312688c2.736158 11.771182 8.958559 10.86043 8.958559 10.86043z" fill="#474b4f"/><path d="m117.409492 95.0754839-11.48243 12.6086021s11.432896 17.486452 22.158164 12.137849c10.725268-5.348602-.98596-20.3109673-10.675734-24.7464511z" fill="#231f20"/><path d="m84.1675282 119.710753c-1.0378531-3.27871 6.2129662-9.935484 6.2129662-9.935484l-8.9632769-12.3578496s-21.2288135 18.0778496-18.7639124 29.5320426c.5684604 2.642366 2.7786158 7.193764 6.0855932 9.462366.4717514.324086 3.1112006-.544086 4.0995198-.85871 5.9818079 3.699785 13.5487005 6.24043 16.1999435 6.001506.0566102-.295699 5.7506497-6.093764 4.8802683-19.241721-1.3444915-.312258-8.7132485.674194-9.7511017-2.60215z" fill="#231f20"/><path d="m85.1346186 121c-2.9107062 5.958925-6.0171892 11.723871-12.0815536 14.666667 5.9464265 3.631182 13.369435 6.110322 15.9876553 5.873763.0566102-.295699 5.7506498-6.093763 4.8802684-19.24172-1.1274859-.250753-6.4629943.397419-8.7863701-1.29871z" fill="#474b4f"/><path d="m90.3002966 123.72043 2.5568927-1.492688h-1.1793786l-1.6511299.967527-.5425141-1.031398c-.2358757-.016559-.4717514-.035484-.7076272-.061505l.7335735 1.395699-5.4109887 3.155698-.9435028-1.790752c-.1132204.210537-.2358757.421075-.3443786.626881l.7713136 1.464302-2.6064266 1.521075c-.2759745.409247-.5661017.806666-.863305 1.196989l3.7480649-2.188172 2.4837712 4.731183-5.6916808 3.323656-2.10637-4.012043c-.1438842.153763-.2877684.305161-.4340113.454193l2.0214548 3.844086-3.2833899 1.916129.6486582.314624 2.9107062-1.70086 1.9577684 3.723441.8208475.279139-2.2620481-4.30301 5.6916808-3.311828 2.5498164 4.849462-5.1892655 3.027957c.2688983.085161.5283616.163226.7854661.236559l4.6821328-2.732258.8420762 1.601506c.1155791-.184517.2358757-.383226.3585311-.598495l-.6863983-1.303441 1.8657768-1.090538c.1202966-.283871.2358757-.586666.3561723-.898924l-2.5002824 1.45957-2.5498164-4.849463 5.4086299-3.158064.9435028 1.783656c.0566102-.31699.1108616-.643441.1603955-.974624l-.582613-1.109462.7736723-.451828c.0235876-.23656.0471752-.473119.0636865-.730968l-1.1133333.648172zm-3.436709 8.184946-2.48613-4.731182 5.40863-3.158065 2.4837712 4.731183z" fill="#231f20"/><path d="m26.0571893 47.5483871c-1.1487147 2.3135484.3325847 3.9032258.3325847 3.9032258 5.2836158 2.6447312 14.6879802 7.3830108 25.1608616 12.6701075l2.8800424-6.200215-25.1231215-12.4453764s-2.1040113-.2412903-3.2503672 2.0722581z" fill="#bbb8b8"/><g fill="#989697"><path d="m45.9674576 61.3090323 5.583178 2.8150537 2.8800424-6.200215-5.0194351-2.4862366c-1.4024061 1.7953557-2.560488 3.7697992-3.4437853 5.8713979z"/><path d="m36.0889831 56.3223656 3.3022598 1.6701075c.669887-2.1006451 1.738404-4.064086 3.0144916-6.0275269l-2.6135029-1.2939785c-1.5436924 1.6606173-2.795813 3.5714346-3.7032485 5.6513979z"/><path d="m32.1616525 54.351828 1.0071893.5062365c1.155791-1.968172 2.8706074-3.6193548 4.7812006-5.100215l-2.8045622-1.3862366c-1.2088585 1.8784428-2.209407 3.8837516-2.9838277 5.9802151z"/><path d="m26.0571893 47.5483871c-1.1487147 2.3135484.3325847 3.9032258.3325847 3.9032258l2.9696752 1.487957c1.0944632-1.9350538 2.5474576-3.7281721 4.0877259-5.4148387l-4.1396186-2.0509678s-2.1040113-.2389247-3.2503672 2.0746237z"/></g><path d="m40.8348023 58.7187097 2.9130649 1.4690322c.641582-2.1787096 1.5520622-4.3219354 2.2644068-6.4367742l-1.4152542-.6978494c-1.4317656 1.7316129-2.8470198 3.6430107-3.7622175 5.6655914z" fill="#e2dddb"/><path d="m55.7610169 53.4765591c-1.7832203-.8113978-4.1679237.5913979-6.7035875 6.1765592-2.5356639 5.5851613-2.0238136 8.3032258-.2358757 9.112258 1.7879378.8090323 4.1679237-.5890322 6.7035875-6.1741935 2.5356639-5.5851613 2.0285311-8.3032258.2358757-9.1146237z" fill="#cf8158"/><path d="m130.042994 94.1505376-75.5179658-35.9451613-2.9177824 5.9778495c11.1356921 5.5804301 56.0440682 26.6554839 75.2679382 36.3544082 0 0 2.382344.205807 3.712683-2.3348383 1.330339-2.5406452-.544873-4.0522581-.544873-4.0522581z" fill="#6c3d21"/><path d="m25.7764972 47.4206452c-1.2501413 2.524086.3632486 4.2580645.3632486 4.2580645.863305.4305376 1.9884322.9273118 3.0427966 1.4548387l1.1628672-2.2260215c-.3467373-.1726882-.7076271-.335914-.9953955-.4731183-.3277409-.4029231-.3763905-.9658911-.1226553-1.4193548.1982822-.4728376.6683128-.7726433 1.1793785-.7522581l1.0472881.5204301 1.0661582-2.0391398-3.1961158-1.5825806s-2.2974294-.2649463-3.5475706 2.2591398z" fill="#cf8158"/><path d="m82.0139831 70.9795699s-4.4934323 20.2896774-3.1796046 28.8791398c.6014831 3.9387093 6.1539972 13.0107523 20.7287571 11.9131183 14.7964834-1.104731 18.3416954-9.412688 19.0068644-13.4412904 1.389308-8.3836559-7.930141-29.0967742-7.930141-29.0967742z" fill="#231f20"/><path d="m96.4189124 93.5047312 12.2443076-10.4015054-21.3467511-1.0739785z" fill="#3c3f42"/><path d="m96.0297175 92.7808602 1.9105932 2.1976344 13.5652123-11.5417204-5.274181.8113978z" fill="#b10d28"/><path d="m85.4860734 83.2877419 14.8813986 18.5296771 3.615974-.686021-15.1573726-17.7584948z" fill="#b10d28"/><path d="m6.84039548 2.52172043c-1.41525424.86580645 3.63720342 3.23139785 4.39672312 4.79741935-.1132203.22473119-6.72245758-4.71225806-9.49163837-1.18279569-.67932204.82795699 7.7838983 2.04387096 8.90666667 3.65483871-.6109181.2649462-7.93485876-3.91268818-10.63327684.07096774-.5165678.78301076 10.20398304 1.58494626 10.70403954 3.18408606-.165113.6741935-8.07402542-2.9215054-10.44457627 1.2703225-.40334745 1.331828 12.58632767 1.2372043 12.50141247 2.1739785-.1887006 2.315914-5.26238704 6.1055914-2.4507486 6.6780646 3.8754378.7877419 6.1823022-5.7673119 6.1823022-5.7673119l2.4719774-8.58473116-6.2200423-2.63290323s-3.08053676-5.17827957-5.92283902-3.66193548z" fill="#f9b5ab"/><path d="m13.2750847 5.7744086-2.514435 8.255914 6.8922882 1.8972043-.1179379-8.24881722z" fill="#474b4f"/><path d="m16.9028531 5.20430108-.5071328 15.50881722s27.5031074-16.58989249 54.6995763 24.5264516l4.0570622-11.7073118c-27.0337147-51.5107527-58.2495057-28.32795702-58.2495057-28.32795702z" fill="#474b4f"/><path d="m16.9028531 5.20430108-.5071328 15.50881722s4.8496046-2.9262366 12.4896187-3.2739785l.1438842-17.00623657c-7.3852684 1.24903225-12.1263701 4.77139785-12.1263701 4.77139785z" fill="#231f20"/><path d="m160.003927 134.024946-3.96743-7.650322-10.501186 3.997849s-7.967882 3.598065-6.56678 8.44043c1.018983 3.52 5.229364-3.311828 8.109407-3.784946 1.179378-.191613 2.443672 16.346237 4.073573 15.702796 5.000565-3.437205-.356172-13.143226.471752-13.42 2.059195.473118 4.21274 14.037419 5.127938 13.308817 4.717514-3.836989-1.318546-12.73871-1.054365-13.540645 2.141752 1.253763 4.57363 11.913118 5.54072 10.969247 4.13726-3.87957-2.759745-11.797204-2.488488-11.962796 2.042683.811398 5.554873 7.009248 6.484223 5.114409 1.59452-3.758925-5.229364-7.174839-5.229364-7.174839z" fill="#f9b5ab"/><path d="m147.266638 128.778065 3.115918 8.584731 10.078969-4.028602-2.844661-5.230323z" fill="#474b4f"/><path d="m120.037147 70.3006452-5.33315 7.5698924c33.730226 17.9974194 26.403927 51.9010754 26.403927 51.9010754l19.105932-.104086s8.574082-43.1389248-40.176709-59.3668818z" fill="#474b4f"/><path d="m141.506554 116.469892c.794901 7.773334-.39863 13.29699-.39863 13.29699l19.105932-.104086s1.205325-6.055914.143884-14.479785z" fill="#231f20"/><path d="m132.533842 49.3556989-.518927 3.2645162c13.933178 1.6251612 28.682486 17.4486021 28.682486 17.4486021s-3.200833-9.4458064 6.087952-11.5795699c0 0-15.824901-11.7593548-34.251511-9.1335484z" fill="#b10d28"/><path d="m152.540819 33.7427957s-14.843658 1.7268817-20.634407 14.8819355l2.0875 2.5453763c6.915876-7.48 24.189054-5.7815053 24.189054-5.7815053s-7.98911-4.463871-5.642147-11.6458065z" fill="#b10d28"/><path d="m102.270989 7.61247312c-21.2618365-2.42236559-39.820537 7.31440858-43.2855511 37.90150538-3.3683051 29.7354839 13.0651553 38.7815054 34.3246327 41.2015054s39.3063274-2.7015054 42.6722744-32.4346237c3.465014-30.5870968-12.444803-44.2460215-33.711356-46.66838708z" fill="#1f1e21"/><path d="m63.4151836 33.827957s9.9256497-20.1075269 38.8534464-24.24494625c-33.1169492-.73096774-38.8534464 24.24494625-38.8534464 24.24494625z" fill="#6d6e71"/><path d="m97.4638418 46.6825806c-34.5015395-3.9292473-34.0132768.6812904-34.6525 6.2286022s-2.1228813 9.9354839 32.3762994 13.8623656c33.0485448 3.7636559 34.0250708-.6812903 34.6524998-6.2286022.62743-5.5473118.672246-10.0987096-32.3762992-13.8623656z" fill="#f9b5ab"/><path d="m97.4638418 46.6825806c-28.9844068-3.3118279-33.2820621-.5724731-34.2892514 3.6737635l66.7929236 7.6006451c-.330226-4.3952688-4.736384-8.1139784-32.5036722-11.2744086z" fill="#d68c81"/><path d="m115.840918 54.0135484c-3.638255-.4140724-6.922438 2.207954-7.335733 5.8567033s2.200779 6.9427497 5.838939 7.3576617 6.922945-2.2063564 7.337077-5.8550102c.198934-1.752683-.304678-3.5128204-1.400002-4.8930402-1.095323-1.3802198-2.692593-2.267409-4.440281-2.4663146z" fill="#fff"/><path d="m115.701751 55.2247312c-2.181476-.2506825-4.298516.8421194-5.362818 2.7682513s-.865973 4.3057369.5024 6.0279403c1.368374 1.7222033 3.636932 2.4473652 5.746641 1.8369573 2.109708-.6104079 3.644506-2.4360057 3.887902-4.6245468.33142-2.980036-1.803708-5.6672592-4.774125-6.0086021z" fill="#231f20"/><path d="m79.2306497 49.8453763c-3.6384533-.4129369-6.9218578 2.2102257-7.3339231 5.8591847-.4120652 3.6489591 2.2032289 6.9421086 5.8416095 7.3556901 3.6383806.4135814 6.9222469-2.2089995 7.3349549-5.8578855.4101029-3.6490166-2.2046438-6.9414768-5.8426413-7.3569893z" fill="#fff"/><path d="m79.0962006 51.0565591c-2.1816346-.2526165-4.2999273.8387676-5.3657051 2.7645119s-.8687804 4.3059314.499001 6.029092c1.3677813 1.7231606 3.636506 2.4493438 5.7467541 1.8394458s3.6457026-2.4355543 3.8893567-4.6244475c.331536-2.978389-1.8008944-5.6648712-4.7694067-6.0086022z" fill="#231f20"/><path d="m108.068814 57.5501075-1.903517-1.4382795c5.97709-7.9460215 17.643502-5.6230108 18.136483-5.5212904l-.483546 2.3395699c-.106144-.0212903-10.689887-2.1077419-15.74942 4.62z" fill="#1f1e21"/><path d="m86.3658898 55.0804301c-3.4249152-7.6905376-14.2067938-8.0430107-14.3176553-8.0430107l.0518926-2.3892474c.5071328.0141936 12.3952684.3737635 16.4405367 9.4623656z" fill="#1f1e21"/><path d="m58.4971751 38.4597849-1.1298446 11.4896775s15.3319209-2.6352689 40.0988701.1845161c24.7669494 2.8197849 39.0256354 8.8236559 39.0256354 8.8236559l1.467147-11.4494624s-14.595989-6.7987096-39.1152683-9.5901075c-24.5192797-2.7913978-40.3465396.5417204-40.3465396.5417204z" fill="#d82035"/><path d="m78.6409605 97.8077419c.0235875.4470968.0518926.88.096709 1.2892473 7.5220763 3.1438708 14.2162288 3.9458068 19.8937571 3.5199998 10.5908194-.790107 17.6576554-5.8146234 20.0116944-7.744946-.03774-.4470968-.084915-.9083871-.148601-1.3815054-1.903517 1.707957-16.971257 14.1817204-39.8535595 4.3172043z" fill="#b10d28"/><path d="m81.9927542 71.2563441c16.0631356 8.9632258 27.9253248 2.8055914 27.9253248 2.8055914s-13.6218219 2.0746236-27.9253248-2.8055914z" fill="#6d6e71"/><path d="m86.3045621 80.1012903c8.9632769 3.2172043 16.6127259-1.2608602 16.6127259-1.2608602s-10.6096891 2.379785-16.6127259 1.2608602z" fill="#6d6e71"/><path d="m108.366017 110.269677.091991 5.623011" fill="#fff"/><path d="m108.111956 110.26826.596766-.000029-.00027 5.625372-.596766.000029z" fill="#231f20" transform="matrix(.99986254 -.01657987 .01657987 .99986254 -1.859965 1.81297)"/><path d="m106.417684 113.550753 5.477034.456559" fill="#fff"/><path d="m108.851632 111.020196.598482-.000142-.001314 5.498372-.598483.000142z" fill="#231f20" transform="matrix(.08280821 -.9965655 .9965655 .08280821 -13.266888 213.123618)"/><path d="m65.9461299 126.795699s-.4340113 5.050538 4.7340255 3.134409c-3.1395057.38086-4.7340255-3.134409-4.7340255-3.134409z" fill="#52575b"/></g></svg>