<svg height="175" viewBox="0 0 126 175" width="126" xmlns="http://www.w3.org/2000/svg"><g fill="none" fill-rule="evenodd"><g fill-rule="nonzero"><path d="m65.2650353 171.594915c.2964706 3.669068-31.4525647 4.532204-39.7715294 1.643221-15.1170353-5.469492 39.6232941-6.961441 39.7715294-1.643221z" fill="#000102" opacity=".11"/><path d="m91.6420235 37.1c-9.605647-46.03686441-79.8039529-43.89830508-88.4668235.0385593 29.0985882 5.7483051 59.2377882 5.9470339 88.4668235-.0385593z" fill="#535659"/><path d="m91.9058824 56.9491525c-19.9109648 27.6114407-28.3514824 17.4525424-45.2503059 16.7317797-24.3580236 5.1995763-30.3852706 1.4177966-43.54856474-16.6872881l-.24903529.0978813c2.1168 30.3343221 17.44136473 37.8237288 42.05138823 38.9478814 1.9300235-1.5067797 1.5742588-5.015678 5.1052235-2.5508475 2.2620706-3.529661 4.6842353-1.1597457 5.1763765 2.5627119 29.7686118-3.6423729 35.1288-18.4639831 36.7149177-39.1021187z" fill="#535659"/><path d="m2.96470588 39.1317797c.15712941 4.7457627-2.60894117 11.8080508 2.28282353 12.0572034 24.31058819 6.593644 43.24319999 9.7881355 65.38362349 4.4194915 26.7446118-6.6173729 21.5800942-1.5334746 21.3607059-16.4737288-29.3823866 5.9045593-59.6451594 5.903551-89.02715292-.0029661z" fill="#c4374f"/><path d="m2.81054118 52.2716102c20.67882352 30.2957627 28.26254122 18.9830508 45.46672942 18.6864406 25.5379765 5.4427967 30.7202823.145339 43.1868706-18.2563559-10.4624471 1.7322034-20.7529412 5.7868644-30.7232471 10.2716102-.0444706-.086017-.0889412-.1720339-.130447-.2580509 1.4586353-1.1063559 3.2611764-2.4173728 5.3038588-3.6957627-12.2817211 2.2408751-24.8741441 2.1624058-37.1270118-.2313559l5.5825412 3.8885593-.1541647.2699153c-9.7272-4.5144068-20.5068706-8.3495763-31.40512942-10.675z" fill="#f3d7bf"/><path d="m46.1812235 145.884746c.2371765 2.785169-.5662588 6.540254.1126589 9.705085 4.8295058 3.120338 15.8433882 4.211864 18.2625882.320338l-3.3382588-2.35805.2490353-.504238 3.0655058.889831c3.0121412-7.308475 11.1057883-14.065254 8.1381177-23.135593-14.0052706 13.418644-38.5085647 10.58305-51.8200941 2.574576-2.3954824 6.475 4.1150117 13.107203 4.6456941 19.638559l3.9400941-.477542.0444706.344068c-15.12 4.84661 11.6750118 5.635593 14.868 3.938983.2282823-3.108475-.0533647-7.525.0504-11.128814-1.8736941-.566525-4.9807059.29661-6.7150588-1.444491 2.9113411-1.542373 10.0266353.705932 13.3411764.88983v.364831z" fill="#535659"/><path d="m43.0327059 112.889831c-1.3074353-1.100424-2.1434824-3.016526-1.8470118-4.544068 4.0794353-12.9855935-17.3850353-9.8919494-24.2127529-15.361441-20.94268238 35.788983 20.5157647 38.799576 18.1884706 22.153814-2.5466824.88983-23.1632471-5.107628-12.5555294-4.244492.7293176-2.530085 1.1265882-5.101695 3.0121411-6.988136l.3824471.103814c-.5158588 2.372881-1.0346824 4.745763-1.5772235 7.237288 6.0889046 1.458655 12.3593135 2.012334 18.6094588 1.643221z" fill="#535659"/><path d="m55.6860706 116.294915c18.4197176 22.352543 32.4160941-3.046186 15.9323294-18.8110167l-10.7796706 8.8004237c2.9647059 2.26017 5.4165177 3.639407 6.5935059 3.763983.1541647-.961017.3112941-1.925.4684235-2.886017l.4595294-.026695c.1185883 3.78178 1.6958118 4.561865 4.6427294 6.33856l-.1630588.317372c-4.8235764.249153-8.5798588-2.319491-12.3094588-4.9-1.3811495 2.613142-3.0029528 5.091677-4.8443294 7.40339z" fill="#535659"/><path d="m122.8248 88.9059322c-1.535718-2.9186441-1.574259-5.7927966-.083012-8.7588983-22.8638115.3529661-10.234164-33.9292373-27.7229645-34.2317797-1.5831529 8.4593221 3.0981177 9.711017 4.3581177 14.9521187 3.6139768 11.5618644 8.0995768 33.1283898 23.4478588 28.0385593z" fill="#c4374f"/><path d="m111.567812 90.4097458c-11.19473-8.9635594-11.520847-20.6885594-15.5172708-31.5088983 7.4473408 27.2584745-9.0364236 41.2288135 17.3346348 48.2999995-3.821505-4.300847-5.496564-11.6923724-1.817364-16.7911012z" fill="#c4374f"/><path d="m19.9939765 127.147881c7.6519059 14.708899 44.5358117 12.327119 52.5790588.130509-20.1333177 6.816102-35.0576471 6.492796-52.5790588-.130509z" fill="#c4374f"/><path d="m40.3615059 168.177966c-2.4814588.261017-6.8455059-1.186441-8.6717647 2.126695 3.9964235.210593 7.9513412.379661 11.8588235-.723729.2964706-3.559322.6611294-7.92839 1.0880471-12.107627-4.0480859 1.359145-8.327639 1.891693-12.5851765 1.566102.7886118 2.669491 1.5327529 5.205508 2.3065412 7.827542 1.9478117-.029661 4.2009882-.533898 6.0035294 1.311017z" fill="#37383a"/><path d="m46.1575059 157.351695c-2.3272941 15.922034-.9664941 13.323729 12.024847 13.380085-3.1366588-2.966102-3.0210353-2.31356-8.0195294-2.61017.6996706-1.536441 3.1307294-.907627 5.1556236-1.355508-1.0732236-2.248305-.1897412-4.511441.6522353-7.011865-3.3739587-.29805-6.6829147-1.108176-9.8131765-2.402542z" fill="#37383a"/><path d="m65.2650353 126.652542c-4.8324706-1.99322-8.9356235-4.677542-11.6424-9.177118l-1.2659294.536864c-2.0752941 3.200424-1.5861177 6.58178-.5929412 11.004237 4.4618824-.219491 8.9030118-1.245762 13.5012706-2.363983z" fill="#535659"/><path d="m54.6217412 102.42839c-.7471059-2.5597459-1.482353-5.069068-2.2087059-7.5813561-1.3015059 1.5838983.0296471 4.4491525-1.3815529 6.6292371-1.7402824-1.225-1.2837177-4.2177964-2.5437177-6.5788134l-.3379765.0978814c-.9516706 1.8656779-.5573647 3.7906779-.1126588 5.594068 6.0361412 1.607627-10.9516235 7.415254-1.9922823 10.992373 1.1858823-8.601695 1.4289882 7.972881 6.7891764 4.386864-3.5724706-3.879661-6.5253176-15.637288 1.7877177-13.540254z" fill="#37383a"/><path d="m48.4877647 121.574576c-2.8905882 7.762288-13.0180235 2.470763-19.1549647 5.994492 6.8603294 1.269491 13.608 1.895339 20.4327529 1.580932-.4387764-2.589407-.8479058-5.080932-1.2777882-7.575424z" fill="#535659"/><path d="m17.0589176 136.381356c-3.9697411 5.172881-7.15679995 10.737288-9.05421172 17.244915 4.69609412-5.083898 13.45680002-9.138559 9.05421172-17.244915z" fill="#848687"/><path d="m86.5308706 87.8885593c-3.8363294 3.1944915-7.5451765 6.2792373-11.2984941 9.4084746l1.4082353 1.8152542c3.9993882-2.2216101 7.8831529-4.3838983 11.8351058-6.5699152-.6492705-1.5631356-1.2511058-3.0016949-1.944847-4.6538136z" fill="#848687"/><path d="m35.7958588 123.250424c7.5629647.36483 10.2104471-6.783475 1.6039059-7.118644-1.1325176 1.877542-.9012706 4.650847-1.6039059 7.118644z" fill="#37383a"/><path d="m54.4586824 113.957627c.4951058-1.904237 4.3729411-4.274152 2.8401882-6.323729-8.0165647-8.3021183-6.2496 2.064407-2.8401882 6.323729z" fill="#37383a"/><path d="m67.2069176 97.0775424-11.5119529 1.779661 2.3332235 5.4398306z" fill="#000" opacity=".2"/><path d="m40.6164706 114.547881-.0948706.275848c5.1496941 1.18644 5.7189176 5.665254 2.5111059 8.975424 3.809647-1.299153 1.3489412-4.716102 4.9955294-4.994916-2.2442824-.352966-3.2018824-1.566101-.5395765-3.055084-1.4853176-1.447458-4.5004235-.901695-6.8721882-1.201272z" fill="#37383a"/><path d="m43.8539294 103.270763 2.3272941-1.723305c-.0415059-3.1737292-3.2848941-2.4588987-6.1310117-2.6694919z" fill="#f3d7bf"/><path d="m90.0232941 91.2372881.3557647.0830509c1.5772236-1.3822034-.4032-3.3783898-1.5031059-4.8792373l-.2964705.1334746z" fill="#e7c04b"/><path d="m31.3132235 67.2059322c0 4.0398305-6.3504 4.2385593-5.8019294-.4805085.1423059-3.8944915 6.1043294-2.9216101 5.8019294.4805085z" fill="#000"/><path d="m65.7571765 66.675c-.3261177-3.1262712 5.5113882-4.2830508 5.8078588-.35.7737882 4.5648305-5.9768471 4.609322-5.8078588.35z" fill="#000"/><path d="m19.7775529 145.694915c-13.22258819 15.281356-20.05919996 19.279661-10.36164702-2.58644 3.96974122-8.38517 8.78145882-9.966102 8.71030592-13.394916-.8449412-1.456356 0-3.491101-2.5941177-4.375-12.39543528-7.180932-8.22112939-24.144067-.8716235-33.7512709-5.84936472-3.7165254-9.89322354-9.9868644-11.35185884-16.9512712-3.99049411-19.2470338-4.71684705-37.8029661-.26089411-47.8669491 20.37345885-43.8864407 93.87444705-30.92161017 91.80211765 17.8677966 18.6568937.5932203 11.2807057 19.8105932 19.6708237 28.8067797 6.5016 7.9432203 12.854965 2.6398305 11.218447 6.8694915-1.257035 2.0940678-1.808471 4.5470339-.978353 7.1186441 3.151482 6.8902542-8.867435 4.2444915-11.508988 4.3127118-2.994353 4.081356-.592941 11.5411015 2.795717 14.4033895 2.312471 4.977119-12.475482 1.483051-13.272988-.154237-16.0509175-10.0283898-2.496282-30.5716101-8.7014116-45.1707626-1.3341177 8.4830508-1.9744942 17.1411017-7.1152942 24.6572033 1.3341177-.5932203 2.2917177-.9372881 2.8609412-.2788135 9.9732706 8.6550847-6.2614588 11.5677966-11.4882353 16.3580508 8.5235294 19.683051-1.9567059 20.433475-3.7740706 27.24661 4.6960941 16.699153-5.1615529 16.38178-7.6192941 27.813136-1.4586353 3.755085-5.8048941 1.942796-8.3308235 4.787288-6.7328471 7.278813 11.8588235 10.482203-4.8799059 10.855932-12.2738824-1.922034-23.8125176 2.814831-26.8365176-1.557203.0266823-1.729238 4.2306352-2.295763 4.7939294-3.609746.0563294-3.645339-.8894118-9.108898-5.8493647-9.224576-3.5131765-.370763-3.599153-9.657627-6.0568942-12.175848zm71.8644706-108.594915c-9.605647-46.03686441-79.8039529-43.89830508-88.4668235.0385593 29.0985882 5.7483051 59.2377882 5.9470339 88.4668235-.0385593zm.2638589 19.8491525c-19.9109648 27.6114407-28.3514824 17.4525424-45.2503059 16.7317797-24.3580236 5.1995763-30.3852706 1.4177966-43.54856474-16.6872881l-.24903529.0978813c2.1168 30.3343221 17.44136473 37.8237288 42.05138823 38.9478814 1.9300235-1.5067797 1.5742588-5.015678 5.1052235-2.5508475 2.2620706-3.529661 4.6842353-1.1597457 5.1763765 2.5627119 29.7686118-3.6423729 35.1288-18.4639831 36.7149177-39.1021187zm-88.94117652-17.7966101c.15712941 4.7457627-2.60894117 11.8080508 2.28282353 12.0572034 24.31058819 6.593644 43.24319999 9.7881356 65.38362349 4.4194915 26.7446118-6.6173729 21.5800942-1.5334746 21.3607059-16.4737288-29.3837626 5.897707-59.6465354 5.889641-89.02715292-.0237288zm-.14230588 13.1398305c20.6788235 30.2957627 28.2625412 18.9830508 45.4667294 18.6864407 25.5379765 5.4427966 30.7202824.1453389 43.1868706-18.256356-10.4624471 1.7322034-20.7529412 5.7868644-30.7232471 10.2716102-.0444705-.086017-.0889411-.1720339-.130447-.2580509 1.4586353-1.1063559 3.2611765-2.4173728 5.3038588-3.6957627-12.2817211 2.2408751-24.8741441 2.1624058-37.1270118-.2313559l5.5825412 3.8885593-.1541647.2699153c-9.7390588-4.5351695-20.5187294-8.370339-31.41698822-10.6957627zm43.3588235 93.5923731c.2371765 2.785169-.5662588 6.540254.1126589 9.705085 4.8295058 3.120338 15.8433882 4.211864 18.2625882.320338l-3.3382588-2.35805.2490353-.504238 3.0655058.889831c3.0121412-7.308475 11.1057883-14.065254 8.1381177-23.135593-14.0052706 13.418644-38.5085647 10.58305-51.8200941 2.574576-2.3954824 6.475 4.1150117 13.107203 4.6456941 19.638559l3.9400941-.477542.0444706.344068c-15.12 4.84661 11.6750118 5.635593 14.868 3.938983.2282823-3.108475-.0533647-7.525.0504-11.128814-1.8736941-.566525-4.9807059.29661-6.7150588-1.444491 2.9113411-1.542373 10.0266353.705932 13.3411764.88983v.364831zm-3.1485176-32.994915c-1.3074353-1.100424-2.1434824-3.016526-1.8470118-4.544068 4.0794353-12.9855935-17.3850353-9.8919494-24.2127529-15.361441-20.94268238 35.788983 20.5157647 38.799576 18.1884706 22.153814-2.5466824.88983-23.1632471-5.107628-12.5555294-4.244492.7293176-2.530085 1.1265882-5.101695 3.0121411-6.988136l.3824471.103814c-.5158588 2.372881-1.0346824 4.745763-1.5772235 7.237288 6.0889046 1.458655 12.3593135 2.012334 18.6094588 1.643221zm12.6533647 3.405084c18.4197176 22.352543 32.4160941-3.046186 15.9323294-18.8110167l-10.7796706 8.8004237c2.9647059 2.26017 5.4165177 3.639407 6.5935059 3.763983.1541647-.961017.3112941-1.925.4684235-2.886017l.4595294-.026695c.1185883 3.78178 1.6958118 4.561865 4.6427294 6.33856l-.1630588.317372c-4.8235764.249153-8.5798588-2.319491-12.3094588-4.9-1.3811495 2.613142-3.0029528 5.091677-4.8443294 7.40339zm67.1387294-27.3889828c-1.535718-2.9186441-1.574259-5.7927966-.083012-8.7588983-22.8638115.3529661-10.234164-33.9292373-27.7229645-34.2317797-1.5831529 8.4593221 3.0981177 9.711017 4.3581177 14.9521187 3.6139768 11.5618644 8.0995768 33.1283898 23.4478588 28.0385593zm-11.265882 1.5038136c-11.19473-8.9635594-11.520847-20.6885594-15.5172709-31.5088983 7.4473409 27.2584745-9.0364236 41.2288135 17.3346349 48.2999995-3.812611-4.300847-5.48767-11.6923724-1.80847-16.7911012zm-91.5649415 36.7381352c7.6519059 14.708899 44.5358117 12.327119 52.5790588.130509-20.1333177 6.816102-35.0576471 6.492796-52.5790588-.130509zm20.3675294 41.030085c-2.4814588.261017-6.8455059-1.186441-8.6717647 2.126695 3.9964235.210593 7.9513412.379661 11.8588235-.723729.2964706-3.559322.6611294-7.92839 1.0880471-12.107627-4.0480859 1.359145-8.327639 1.891693-12.5851765 1.566102.7886118 2.669491 1.5327529 5.205508 2.3065412 7.827542 1.9478117-.029661 4.2009882-.533898 6.0035294 1.311017zm5.796-10.817373c-2.3272941 15.922034-.9664941 13.323729 12.024847 13.380085-3.1366588-2.966102-3.0210353-2.313559-8.0195294-2.61017.6996706-1.53644 3.1307294-.907627 5.1556236-1.355508-1.0732236-2.248305-.1897412-4.511441.6522353-7.011864-3.3744279-.300892-6.6834-1.114022-9.8131765-2.411441zm19.1075294-30.708051c-4.8324706-1.99322-8.9356235-4.677542-11.6424-9.177118l-1.2659294.536864c-2.0752941 3.200424-1.5861177 6.58178-.5929412 11.004237 4.4618824-.219491 8.9030118-1.245762 13.5012706-2.363983zm-10.6432941-24.224152c-.7471059-2.5597459-1.482353-5.069068-2.2087059-7.5813561-1.3015059 1.5838983.0296471 4.4491525-1.3815529 6.6292371-1.7402824-1.225-1.2837177-4.2177964-2.5437177-6.5788134l-.3379765.0978814c-.9516706 1.8656779-.5573647 3.7906779-.1126588 5.594068 6.0361412 1.607627-10.9516235 7.415254-1.9922823 10.992373 1.1858823-8.601695 1.4289882 7.972881 6.7891764 4.386864-3.5724706-3.879661-6.5253176-15.637288 1.7877177-13.540254zm-6.1339765 19.146186c-2.8905882 7.762288-13.0180235 2.470763-19.1549647 5.994492 6.8603294 1.269491 13.608 1.895339 20.4327529 1.580932-.4387764-2.589407-.8479058-5.080932-1.2777882-7.575424zm-31.4258823 14.80678c-3.9727059 5.172881-7.15976475 10.737288-9.05717652 17.244915 4.69609412-5.083898 13.45680002-9.138559 9.05421172-17.244915zm69.4689882-48.4927967c-3.8363294 3.1944915-7.5451765 6.2792373-11.2984941 9.4084746l1.4082353 1.8152542c3.9993882-2.2216101 7.8831529-4.3838983 11.8351058-6.5699152-.6492705-1.5631356-1.2511058-3.0016949-1.944847-4.6538136zm-50.7350118 35.3618647c7.5629647.36483 10.2104471-6.783475 1.6039059-7.118644-1.1325176 1.877542-.9012706 4.650847-1.6039059 7.118644zm18.6776471-9.292797c.4951059-1.904237 4.3729412-4.274152 2.8401882-6.323729-8.0313882-8.3021183-6.2644235 2.064407-2.8550117 6.323729zm12.7482353-16.8800846-11.511953 1.779661 2.3332236 5.4398306zm-26.6052706 17.4703386-.0948706.275848c5.1496941 1.18644 5.7189176 5.665254 2.5111059 8.975424 3.809647-1.299153 1.3489412-4.716102 4.9955294-4.994916-2.2442824-.352966-3.2018824-1.566101-.5395765-3.055084-1.4853176-1.447458-4.5004235-.901695-6.8721882-1.201272zm3.2611765-11.271186 2.3272941-1.723305c-.0415059-3.173729-3.2848941-2.4588985-6.1310118-2.6694917zm46.145647-12.0394069.3557647.0830509c1.5772236-1.3822034-.4032-3.3783898-1.5031059-4.8792373l-.2964705.1334746zm-13.0447059 2.45-.1037647-.1720339-3.8541176 1.75 1.1858823.9076272z" fill="#000"/><path d="m91.2388235 53.4610169c.1198481-.2407573.1961319-.5008468.2253177-.7682203-10.4624471 1.7322034-20.7529412 5.7868644-30.7232471 10.2716102-.0444706-.086017-.0889412-.1720339-.130447-.2580509 1.4586353-1.1063559 3.2611764-2.4173728 5.3038588-3.6957627-12.2817211 2.2408751-24.8741441 2.1624058-37.1270118-.2313559l5.5825412 3.8885593-.1541647.2699153c-9.7272-4.5055085-20.5068706-8.340678-31.40512942-10.6661017 2.69195294 3.7877118 5.84343529 8.2368644 9.27063532 11.843644-5.9827765-11.8644067 12.1315764-2.0406779 17.9572235-.7474576 6.9433412 2.0940678 12.7660235 3.0076271 20.5987765 3.0758475 8.9771294 1.2427966 40.1776941-17.0847458 34.2838588-4.6745763 2.2413176-2.6576271 4.2365647-5.5199153 6.3177882-8.3080509z" fill="#d5ae9a"/><path d="m34.0348235 41.1101695c-12.6326117-3.6898305-18.8911059-22.0737288-19.6797176-24.5444915-5.87901178 5.2974576-9.67680002 12.4724576-11.1799059 20.5728813 10.1697108 2.1125162 20.4866052 3.4402927 30.8596235 3.9716102z" fill="#000" opacity=".2"/><path d="m36.8690824 43.3050847c-11.3892598-.5480561-22.7219898-1.943007-33.90437652-4.173305.13044706 4.1851695-2.18202353 11.3927966 1.33115294 11.8080508 10.83303528 2.8029661 20.67882358 5.3686441 31.82018828 6.7271187-6.6883765-4.2029661-.6433412-12.5822034.7530353-14.3618645z" fill="#000" opacity=".2"/><path d="m32.4664941 95.1555085c2.4192.1977401 4.8374118.379661 7.2546353.5457627-14.2305882-4.4788136-19.0897412-18.520339-20.1303529-22.1745763-6.6794824-3.4110169-12.01595297-10.2182203-16.48376474-16.538983l-.24903529.0978813c3.33232941 29.5868644 11.45858823 31.3724576 29.60851763 38.0699153z" fill="#000" opacity=".2"/><path d="m101.615294 68.1610169c.337977-12.8076271-5.2297411-20.5432203-6.5964705-22.2457627-1.6839529 8.0885594 5.5380705 13.9733051 6.5964705 22.2457627z" fill="#000" opacity=".2"/><path d="m107.274918 86.2542373c-6.851436-7.5516949-7.7408474-17.9449153-11.2243768-27.3533898 4.6338348 20.0449152-1.028753 35.3737288 15.7544468 46.1851695-2.466635-3.986441-3.447953-10.4555085-.237176-14.6762712-1.476424-1.426695-2.991388-2.6902543-4.292894-4.1555085z" fill="#000" opacity=".2"/><path d="m76.0891765 96.5822034-.8568.7059322 1.4082353 1.8152542 8.9978823-5.0008474c-4.061647-.0444916-7.7289882 1.5364407-9.5493176 2.479661z" fill="#000" opacity=".2"/><path d="m25.8255529 94.5771186c.4387765.5783899 9.7005177 9.2750004 13.104 11.6864404 1.5683295 7.774153-6.9818823 6.623305 6.2940706 7.694068-4.6012235-5.057203-1.7788235-9.310593 2.1731294-11.49661l-1.1117647-4.6716102z" fill="#000" opacity=".2"/></g><path d="m67.2069176 97.0775424-11.5119529 1.779661 2.3332235 5.4398306z" stroke="#535659"/><path d="m28.1291294 127.806356c7.6074353-7.483475 15.9441882 3.855932 20.3052706-7.82161 2.0752941-.468644 4.6130824-4.363136 5.3957647-3.02839 5.3542588 5.315254 14.1149647 8.927966 13.5457412 9.509322.0535862.224342.064648.456748.0326117.685169-3.4657411 7.33517-40.6846588 1.515678-39.2793882.655509z" fill="#000" fill-rule="nonzero" opacity=".2"/><path d="m39.4068706 131.789831c-6.522353-.498306-13.1544-2.221611-19.4128941-4.64195 1.9092706 7.694068 18.3278117 9.589407 22.5317647 9.983899-2.3213647-1.542373-2.9528471-3.986441-3.1188706-5.341949z" fill="#000" fill-rule="nonzero" opacity=".2"/><path d="m32.0544 159.030508c1.7966118.593221 9.7568471 3.384323 11.8588235 7.148306.2608941-2.648729.252-5.475424.7204236-8.714407-4.0461472 1.358669-8.323668 1.891216-12.5792471 1.566101z" fill="#000" fill-rule="nonzero" opacity=".2"/><path d="m55.2472941 159.65339c-3.1282308-.306413-6.1925122-1.082343-9.0897882-2.301695-.2549647 2.562712-.9160941 6.629237-.9042353 9.699152 1.6661647-4.466949 7.5184941-6.652966 9.9940235-7.397457z" fill="#000" fill-rule="nonzero" opacity=".2"/><path d="m44.4112941 155.079661v-9.387712c-1.8736941-.566525-4.9807059.29661-6.7150588-1.444491 2.9113412-1.542373 10.0266353.705932 13.3411765.88983v.364831l-4.859153.376695c.3883765 2.740678-.8894117 6.919915.2964706 9.81483 16.3058824-16.39661-2.2650353-6.985169 15.1051765-18.173305-12.0456 4.137712-26.3117647 3.238983-37.9156235-2.619068 1.2184941 1.625424 5.4876705 6.302966 9.7153411 8.230932-.1126588 1.622458 10.2934589 14.352966 10.9694118 13.682628.3083294-.332204.0622588-1.136017.0622588-1.73517z" fill="#000" fill-rule="nonzero" opacity=".2"/><path d="m12.6504 149.174153c7.3643294-7.169068 6.3948706-5.072034 4.4470588-12.626695-1.1088 2.334322-3.6317647 7.95805-4.4470588 12.626695z" fill="#000" fill-rule="nonzero" opacity=".2"/><path d="m52.416 8.77076271c12.6177882.31144068 26.9402824 7.82457629 30.5364706 21.18389829-4.9807059-12.0512712-17.7289412-19.0572034-30.5364706-21.18389829z" fill="#fff" fill-rule="nonzero"/><path d="m106.157224 69.3029661c2.158305 5.6355932 5.632941 11.6627119 12.202729 13.7567797-6.640941-.1661017-11.666118-7.0415255-12.202729-13.7567797z" fill="#fff" fill-rule="nonzero"/><path d="m71.8911529 101.974576c4.0379295 2.651695 5.9294118 7.596187 5.2742118 13.098305-.7767529-3.336864-2.268-9.479661-5.2742118-13.098305z" fill="#fff" fill-rule="nonzero"/><path d="m70.0737882 137.330508c-.3468706 4.395763-2.096047 9.257204-6.1221176 12.558475 2.1612706-3.808475 4.1061176-8.002542 6.1221176-12.558475z" fill="#fff" fill-rule="nonzero"/></g></svg>