<svg height="139" viewBox="0 0 95 139" width="95" xmlns="http://www.w3.org/2000/svg"><g fill="none"><path d="m38.66 20.24c-.2385388-.3589037-.4175123-.7539963-.53-1.17-.7509232.9411908-1.4200251 1.9448437-2 3 .1965122.4895516.3634788.9904514.5 1.5.5593933-1.1773739 1.2397196-2.2933771 2.03-3.33z" fill="#eab27a"/><path d="m32 37.9c-.2959087-.4511888-.5663316-.9185865-.81-1.4-.18 1.14-.32 2.28-.45 3.42.24.34.5.68.76 1 .11-1 .27-2.01.5-3.02z" fill="#eab27a"/><path d="m33 33.74c-.3874863-.5032906-.6882829-1.0677066-.89-1.67-.3 1.12-.54 2.23-.74 3.36.31.37.61.75.89 1.16.21-.96.46-1.91.74-2.85z" fill="#eab27a"/><path d="m31.33 42.29c-.3096678-.2865017-.5668719-.6249281-.76-1-.18 1.84-.33 3.69-.49 5.54.39-.16.79-.31 1.2-.46-.0810752-1.3594422-.0643655-2.7229529.05-4.08z" fill="#eab27a"/><path d="m34.23 29.78c-.3303727-.7201157-.5527642-1.4850076-.66-2.27-.44 1.13-.82 2.29-1.16 3.45.3.53.62 1.06.92 1.6.29-.95.59-1.88.9-2.78z" fill="#eab27a"/><path d="m34.87 28c.38-1 .79-2.13 1.26-3.22-.2318222-.542795-.4028632-1.109578-.51-1.69-.6061959 1.1245933-1.1470923 2.2831799-1.62 3.47.275692.6532727.5160393 1.3209041.72 2z" fill="#eab27a"/><path d="m2.05 97.42c.45 37.74 48.74 48.83 73.42 29.13 18.16-14 22.68-43.45 9.7-62.06-11.67-16.25-36.48-16.59-53.73-10.62-2.1 1-4.14 2.11-6.1 3.3v.08c-.0813846.1344511-.2339625.2087839-.39.19-13.52 7.78-23.46 23.77-22.9 39.98zm9.88-20.51c.5039443-2.7058285 1.7188457-5.2288198 3.52-7.31 1.372718-.5938793 2.9475383-.4896359 4.23.28-.31 2.3-2.22 5.5-3.74 8.5-.0442806.1490962-.1609038.2657194-.31.31h-.23c-.51-.42-2.85-.37-3.47-1.78zm.72 5.7c.5809025.0196309 1.1450472.1996035 1.63.52 0 .09.23 0 .17.45-.05 2.22.24 7.43-1.72 9.35-1.6637891.3008663-3.36970477-.2291994-4.57-1.42-1.14-2 .24-6.7 2.23-8.55.29-.42.79-.35 2.26-.35z" fill="#3c5777"/><path d="m79.58 58.53c-3.9640405-3.1258572-8.5709293-5.335388-13.49-6.47 52 58.78-35.48 97.41-63.35 51.86 4.26 29.15 42.02 39.18 65.26 27.36 26.08-11.99 33.82-53.62 11.58-72.75z" fill="#2b4259"/><path d="m25.39 54.37.06.35c1.0364812-.5035026 2.0978461-.954082 3.18-1.35 3.7339771-1.8179102 7.7016339-3.110175 11.79-3.84-.2429476-1.0642989-.4166451-2.1432279-.52-3.23-5 .53-10.33 3-15.33 5.69.5350895.6775152.8242118 1.5166751.82 2.38z" fill="#2b4259"/><path d="m8.68 91.3c.00733385.0396638.00733385.0803362 0 .12 1.2313072.5676783 2.5890574.8054569 3.94.69.0423835-2.8198108.411514-5.6252027 1.1-8.36-.8750091-.2954027-1.7808685-.4899947-2.7-.58-1.34175169 2.5158153-2.13902877 5.285842-2.34 8.13z" fill="#c4c5c6"/><path d="m17 74.23c.6154445-1.3815721 1.3271969-2.7181964 2.13-4-1.1279347-.1359407-2.2642838-.1894159-3.4-.16-1.5145671 1.914042-2.4852745 4.2009044-2.81 6.62.8429906.2737154 1.6651264.6079169 2.46 1 .42-1.21 1.03-2.33 1.62-3.46z" fill="#c4c5c6"/><path d="m42.08 17.35c-.69-1.53-2.13-.43-3.33 1 .2582365.3224931.4764903.6750569.65 1.05.7600931-.8418641 1.6685371-1.536756 2.68-2.05z" fill="#eab27a"/><g fill="#000"><path d="m85.2 61.63c-10.33-12.44-28-14.29-43.38-12.35 1-6.86-4.55-4.36-9.36-3.25 1.35-9.39 3.13-20.48 10.23-28.03-5.12-12.78-16.89 24.85-13.62 29.31-1.59.86-4.55 2.35-5.68 4.59-.3016336 1.2425831-.1856603 2.5499187.33 3.72-37.52 23.38-29.02 76.83 14.86 81.92 44.67 8.17 71.35-42.86 46.62-75.91zm-53.92-15.22c-.41.15-.81.3-1.2.46.16-1.85.31-3.7.49-5.54.1931281.3750719.4503322.7134983.76 1-.1143655 1.3570471-.1310752 2.7205578-.05 4.08zm10.8-29.06c-1.0074202.4983128-1.915591 1.1760522-2.68 2-.1735097-.3749431-.3917635-.7275069-.65-1.05 1.25-1.38 2.64-2.48 3.33-.95zm-5.28 3.65c.14-.22.66-1 1.33-1.91.1124877.4160037.2914612.8110963.53 1.17-.7798596 1.0379645-1.450103 2.1539198-2 3.33-.1365212-.5095486-.3034878-1.0104484-.5-1.5.21-.39.42-.75.64-1.09zm-1.69 3c.16-.33.34-.65.51-1 .1071368.580422.2781778 1.147205.51 1.69-.32.76-.92 2.26-1.45 3.77-.2039607-.6790959-.444308-1.3467273-.72-2 .36-.76.73-1.61 1.15-2.46zm-1.54 3.48c.1072358.7849924.3296273 1.5498843.66 2.27-.31.9-.61 1.83-.9 2.78-.3-.54-.62-1.07-.92-1.6.34-1.13.72-2.29 1.16-3.42zm-1.47 4.59c.2047816.6029567.508979 1.1674119.9 1.67-.27.94-.52 1.89-.74 2.85-.28-.41-.58-.79-.89-1.16.19-1.13.43-2.24.73-3.36zm-.43 5.34.31.49c-.21 1-.37 2-.5 3-.26-.33-.52-.67-.76-1 .13-1.14.27-2.28.45-3.42.16.33.32.64.5.93zm-.58 11.3c2.8171891-1.1893395 5.7796914-1.9997402 8.81-2.41.1033549 1.0867721.2770524 2.1657011.52 3.23-4.0883661.729825-8.0560229 2.0220898-11.79 3.84-1.0821539.395918-2.1435188.8464974-3.18 1.35-.33-.78.25-1.39-.88-2.73 2.24-.93 4.27-2.33 6.52-3.28zm6.27 86.55c-44.06-6.78-45.26-58.38-12.45-77.82.1560375.0187839.3086154-.0555489.39-.19v-.08c2-1.19 4-2.28 6.1-3.3 84.3-25.55 77.23 93.31 5.96 81.39z"/><path d="m19.7 69.86c-.56-.67-2.66-.92-4.23-.28-1.83 2.55-6.39 8.45 0 9.08h.23c.1490962-.0442806.2657194-.1609038.31-.31 1.16-2.41 2.88-4.99 3.69-8.49zm-2.7 4.37c-.56 1.13-1.17 2.25-1.62 3.44-.7948736-.3920831-1.6170094-.7262846-2.46-1 .3247255-2.4190956 1.2954329-4.705958 2.81-6.62 1.1358289-.0454125 2.2734553.0081229 3.4.16-.8036325 1.2882542-1.5153987 2.6315875-2.13 4.02z"/><path d="m14.48 83.61c0-.06.11-.16-.17-.45-.67-.35-2.44-1.08-3.86-.14-1.63 1.43-3.49 6.1-2.23 8.55.66 1 2.67 1.7 4.57 1.42 1.74-1.31 1.57-6.19 1.69-9.38zm-1.48 4.06c-.3017341 1.4600914-.4392552 2.9493443-.41 4.44-1.3507789.1117999-2.70760395-.1258167-3.94-.69.25715144-2.8733873 1.05444598-5.6724001 2.35-8.25.9224013.0681697 1.830977.2633452 2.7.58-.432029 1.2632832-.6680973 2.5852657-.7 3.92z"/><path d="m32.54 12.88c-.71-1-2.3-3.92-4.26-4.29-.41.87 3.33 5.85 4.26 4.29z"/><path d="m27.85 21.32c-1.23-.08-4.45-.68-6.09.51.3.8 7.13 1.63 6.09-.51z"/><path d="m40.67 1.29c-1.57-1.24-1 4.32-1 6.29 1.01 4.75 1.55-4.2 1-6.29z"/><path d="m47.05.07c-.08 1.5-1.72 4.83-.72 7.07.97-.02 2.78-7.97.72-7.07z"/><path d="m58.09 7.58c-1.25.76-4.53 1.24-6.06 2.74.65.87 7.26-1.26 6.06-2.74z"/><path d="m59.52 17.09c-1.18.08-8.18-1.22-7.51.95 1.28-.2 7.49 1.12 7.51-.95z"/><path d="m49.48 29.24c-.58-.74-3.06-5.83-4.26-4.18.85.63 2.6 5.35 4.26 4.18z"/></g></g></svg>