<svg height="283" viewBox="0 0 91 283" width="91" xmlns="http://www.w3.org/2000/svg"><g fill="none" transform="matrix(0 1 -1 0 90.5 .5)"><path d="m120.07 40.78c-3.34.22-8-.29-11.9.35.56 2.3.35 4 .44 7.54 33.4.23 75.25-.57 110-1.69 21.33-.49 39.86 1.75 61.07-1.91-14.77-5.23-34.14-1.2-50.24-2.33-36.9-.4-72.25-1.61-109.37-1.96z" fill="#b0b0b0"/><path d="m162.77 88.09c-5.55-10.88-33.35-10.09-47.48-13.09-9.36-2.56-9.64-12.12-11.81-21.34-2.9-1.08-4.65 1.23-8.47.8 10.79 50.36 16.33 20.31 67.76 33.63z" fill="#b0b0b0"/><path d="m103.72 34.29c3.94-32.91 25.86-12.94 57.16-29.56 1.036779-.71488938 1.709022-1.84747381 1.84-3.1-46.47 13.86-56.61-17.78-67.72 32.64 2.52-.35 5.58 1.44 8.48 1.7.01077-.5677258.091376-1.1319677.24-1.68z" fill="#b0b0b0"/><path d="m11.37 49c.18-3.14.9-7.2-.85-11-5.76.25-7.82-2.54-8.24 5.05.19 5.63-1.78 10.12 8.17 8.77.5848559-.8252998.9056424-1.8085802.92-2.82z" fill="#b0b0b0"/><path d="m87 53.11c-5.24-5.68-6.22-20.11-17.64-15.56 2.0521644 5.2744711 4.5338308 10.3715864 7.42 15.24 3.05-.27 6.36 1.35 10.22.32z" fill="#68519c"/><path d="m48.38 38.49c2.45 4.36 5.38 9 8.74 13.79 2.14-.16 5.84.31 8.92-.19-2.77-4.23-5.11-9.38-7.69-14.56-3.448016-.206044-6.9060885-.1759738-10.35.09.1059667.2986083.2329511.5893357.38.87z" fill="#68519c"/><path d="m88.71 36.6c3.94 3.93 6.24 10 8.4 16 2.32-.64 5.15-.7 8-2.45-2-4.59-4-10-8.86-13.58-1.86.34-4.96-.57-7.54.03z" fill="#68519c"/><path d="m37.75 37.9c-.2225866.037847-.4429202.0879228-.66.15 2.91 3.95 6.62 8.59 9.09 14.21h8.82c-3-4.63-6.77-8.84-9.53-14.79-2.581139-.1867141-5.1755625-.0422061-7.72.43z" fill="#68519c"/><path d="m80.43 37.85c2.82 4.45 4.84 9.57 8.21 14.67h6.46c-1.83-5.38-4.35-11.67-9.68-16.14-1.8071051-.2484789-3.6477719-.0209808-5.34.66.12.27.21.55.35.81z" fill="#68519c"/><path d="m43.56 52.29c.2693514-.0247862.5366595-.0682238.8-.13-3.81-4.69-7.82-17.47-16.79-13.58 2.3 4.34 6 7.88 8.55 13.19 2.17.14 4.32.74 7.44.52z" fill="#68519c"/><path d="m33.39 51.83c.2451071-.0132492.4890145-.04332.73-.09-4.12-5.36-7.55-15.51-16.82-13.33 0 .09-.09.19-.14.28 3.21 3.06 6.17 8.09 9.26 12.57 2.2870631.5030144 4.6315991.6947483 6.97.57z" fill="#68519c"/><path d="m73.89 51c-2.89-3.89-4.41-8.2-6.84-13.51h-6.33c2.25 4.76 4.1 9.77 7.56 14.8 2.25-.07 4.36.82 6.64.42-.1956683-.6468385-.5497028-1.2346046-1.03-1.71z" fill="#68519c"/><path d="m12.4 38c1.68 1.57.86 3.45 1.28 6.46 1.45 1.53 2 4.52 4.55 6.84 1.38-.12 4 .26 6.36-.16-3.83-4.01-6.22-10.61-12.19-13.14z" fill="#68519c"/><path d="m102.25 40.16c2 2.38 2.53 5.67 4.09 9.25 1.41-2.49 0-5.6 0-9.26-2.07-.66-3.69-2.81-6.78-3.17.96046 1.0043466 1.858793 2.0663167 2.69 3.18z" fill="#68519c"/><path d="m15.78 51.2c-.22-.85-1-1.39-2.08-2.7-.46.31.05 2.23-1.16 3.3 1.0357926-.390845 2.1329362-.5940197 3.24-.6z" fill="#68519c"/><path d="m160.54 44.86c38.26-1 79.24 0 117-.47-17.67-3.3-35.33-1.38-53.58-.93-16 .11-30.28-1.37-46.53-1-6.444602-.8079066-12.954386-.962024-19.43-.46-2.837203-.2088873-5.688222-.1318327-8.51.23-3.65-.13-8.06-.11-12.64.08-8-1.38-16.88-2-25.59-.06-5.39 2.85 14 1.14 16.49 1.67.046095.0103335.093905.0103335.14 0h.11c1.176291.0811749 2.347766.2213513 3.51.42.57.42 1 .33 2.79.45 7.16.47 18.9-.13 26.24.07zm1.83-1.58h-4.2l2-.13zm8.19-.42-1.05.08-1.12-.11c.73 0 1.45.01 2.17.03zm-40.68-.6c-.233452.0458888-.463881.1060009-.69.18-1.440952-.1621565-2.889955-.2422857-4.34-.24 1.67-.02 3.35 0 5.03.06z" fill="#dedede"/><path d="m161.92 86.79c.1-4.19-9.91-5.11-11.36-6-6.61-4.68-28.11-3.55-38.31-7.58-1.81-1.47-2.46-2.6-4.51-5.1s-1.4-21.31-8.37-13.86c1.4 35.09 39.6 20.23 60 31 .63.11 1.49 2.1 2.55 1.54z" fill="#dedede"/><path d="m161.92 2.48c-5 11.57-46.36 10.47-50 14.85-1 .72-3.06 1.53-5.93 12-1.59 6-1.2 8.63-5.2 6.83-5.79-3.24 5.6-21.69 9.61-22.32 14.94-6.81 33.13-2.27 49-9.84.6-.09 1.46-2.09 2.52-1.52z" fill="#dedede"/><g fill="#000"><path d="m93.26 34.2c3.74-12.29 6.45-35.07 25.05-31.87 1.172979.33137588 2.381787.5194127 3.6.56 8.87 1.77 18.37 1 28.3-.12 2.82-.17 11.68-5.64 14.41-.72-11 13.29-32.24 11-48.73 14.81-8.81 2.66-8.23 12.28-10.32 20.92 20.54 3.76 44 .84 65.67 1.8 23.52 1.65 66.45.53 103.94 2.56 2.12-.69 12.48 3.44 3.15 4.61-21 3.6-48.61.83-77.46 2.42-28.32 2.08-88.49-.55-95.31 2.84 2.15 6.67.8 17.44 9.74 20.55 11.5 3.58 41.06 2.52 49.3 15-2 4.25-5.71 1.06-10.5.66-14.62-5.81-30.7 1.21-46.21-1.9-4.24-2.14-5.63-5.17-7.8-9.92-12.67-30.08 7.07-19.21-64.88-22.66-10.59-1.21-21.75.77-33.2-.59-2.45-2.84-3.2-14.15.86-17 24.76.07 49.76-.54 75.13-1.15 4.33-.56 10.06.13 15.26-.8zm186.44 10.87c-16.24-5.39-37.32-1.09-54.84-2.32-39.13-.34-77.34-2.54-116.69-1.62.56 2.3.35 4 .44 7.54 33.4.23 75.25-.57 110-1.69 21.39-.49 39.88 1.75 61.09-1.91zm-184.7 9.41c10.79 50.34 16.33 20.29 67.76 33.61-5.54-10.88-33.34-10.09-47.47-13.09-9.36-2.56-9.64-12.12-11.81-21.34-2.9-1.06-4.65 1.25-8.48.82zm67.72-52.85c-46.47 13.86-56.61-17.78-67.72 32.64 2.52-.35 5.58 1.44 8.48 1.7 3.65-35.28 25-14.25 57.38-31.24 1.044357-.71080526 1.724281-1.84401224 1.86-3.1zm-93.36 35.92c2.0521644 5.2744711 4.5338308 10.3715864 7.42 15.24 3-.27 6.36 1.35 10.17.32-5.19-5.68-6.17-20.11-17.59-15.56zm-3.36 14.54c-2.77-4.23-5.11-9.38-7.69-14.56-3.4347214-.204221-6.8793672-.1741513-10.31.09 2.7291693 5.077595 5.7821395 9.9743722 9.14 14.66 2.12-.16 5.86.31 8.86-.19zm39-2c-2-4.59-4-10-8.86-13.58-1.81.36-4.91-.56-7.49.05 3.94 3.93 6.24 10 8.4 16 2.38-.62 5.21-.68 8.01-2.43zm-94.48-12.09c-5.76.25-7.82-2.54-8.24 5.05.19 5.63-1.78 10.12 8.17 8.77 1.7078811-4.4439878 1.732776-9.3589394.07-13.82zm44.48 14.26c-3-4.63-6.77-8.84-9.53-14.79-2.8099796-.2185317-5.6368206-.0231124-8.39.58 2.92 3.95 6.63 8.59 9.1 14.21zm33.63.26h6.47c-1.83-5.38-4.35-11.67-9.68-16.14-1.8071051-.2484789-3.6477719-.0209808-5.34.66 2.72 4.77 5.14 10.12 8.56 15.48zm-52.52-.75c2.41.11 4.93 1 8.24.39-3.81-4.69-7.82-17.47-16.79-13.58 2.31 4.34 6.04 7.88 8.56 13.19zm-18.81-13.36c0 .09-.09.19-.14.28 3.21 3.06 6.17 8.09 9.26 12.57 2.5237607.5757634 5.1242723.7378732 7.7.48-4.12-5.36-7.55-15.51-16.82-13.33zm43.42-.92c2.25 4.76 4.1 9.77 7.56 14.8 2.25-.07 4.36.82 6.64.42-3.1352579-4.7918177-5.7723066-9.8916755-7.87-15.22zm-36.13 13.66c-3.83-4-6.22-10.62-12.19-13.14 1.68 1.57.86 3.45 1.28 6.46 1.45 1.53 2 4.52 4.55 6.84 1.38-.12 3.98.26 6.36-.16zm81.79-11c-2.07-.66-3.69-2.81-6.78-3.17 3.27 3 5 7.46 6.74 12.43 1.41-2.49-.01-5.6.04-9.26zm-93.84 11.65c1.0357926-.390845 2.1329362-.5940197 3.24-.6-.22-.85-1-1.39-2.08-2.7-.46.31.05 2.23-1.16 3.3z"/><path d="m114.65 47c3.394557-.5665086 6.863493-.5156941 10.24.15-2.81.13-6.82.77-10.24-.15z"/><path d="m138.64 47c-.78.51-2.64 1.39-4.1 0 .6-.92 2.31-.89 4.1 0z"/><path d="m130.56 47.42c-.62.23-2.93.69-4.08-.34.41-1.17 2.33-.87 4.08.34z"/><path d="m100.44 64c-1.12.65-3.61-1.36-1.55-2.85-.32-.95-1.35-1.75-.89-3.1 1.82 1.15 1.64 3.4 2.44 5.95z"/><path d="m108.21 80.3c-.39.66-3.28-.26-1.54-1-1.1-1-2.93-2-3.56-4.42 1.37-.19 3.01 3.43 5.1 5.42z"/><path d="m102.76 72.43c-2-.85-2.16-2.76-2.1-5.52.87 1.09 1.61 3.48 2.1 5.52z"/><path d="m113.21 83.76c-.45-.23-3.73.87-3.34-1.34.92.22 1.7 1.08 3.38.91-.02.15-.03.29-.04.43z"/><path d="m98.25 31.61c-.61-.67-.61-.67.65-3.05-3.36-1.71 5.1-6.99-.65 3.05z"/><path d="m103.06 14.91c.635336-1.86244 1.93482-3.4253801 3.65-4.39-.87-.1-1.09-1.63 1.47-1.2-1.32 1.15-2.97 5.12-5.12 5.59z"/><path d="m100.55 22.84c.39-1.45-.44-4.7 2.31-5.58-.57 1.38-.86 3.93-2.31 5.58z"/><path d="m113.22 6.24c-1.161735.17240019-2.293056.509103-3.36 1-.53-1.24.85-1.46 3.32-1.35.01.11.03.25.04.35z"/></g></g></svg>