<svg height="182" viewBox="0 0 151 182" width="151" xmlns="http://www.w3.org/2000/svg"><g fill="none"><g fill="#313131"><path d="m0 182c4.3-107.47 128.71-105.15 132.08 0z"/><path d="m129.12 158.24s-56.88 23.78-93 11.21c-36.12070622-12.57-4.59-55.7 14.88-51.35s46.83-5.95 47.13-6.06c-47.13-30.66-98.35 12.53-98.13070622 69.96h132.08076322c.008689-8.012492-.98571-15.99456-2.960057-23.76z" opacity=".4"/><path d="m121.46 55.06s13.11-13.45 25.15-15.58c0 0 7.08 12 3.19 22.31 0 0-17.71-6-25.86-2.12 0 0-4.6.33-2.48-4.61z"/><path d="m149.8 61.79c1.228192-3.5329608 1.50073-7.3277894.79-11-.64 8.29-3.68 8.2-13.19 5.87-12-2.68-3.34-5.19.83-7.44-20.69 8.76-3.13-3.91 2-7.7-9.88 4.39-18.81 13.54-18.81 13.54-2.12 5 2.48 4.61 2.48 4.61 8.19-3.9 25.9 2.12 25.9 2.12z" opacity=".4"/><path d="m126.22 56.87s17.24 7.46 23.51 17.95c0 0-8.73 10.91-19.72 10.92 0 0-.67-18.69-7.21-24.91 0 0-1.97-4.18 3.42-3.96z"/><path d="m130 85.74c3.741773-.1026962 7.389262-1.1965978 10.57-3.17-8 2.35-9-.52-10.18-10.24-1.76-12.14 3.66-5 7.24-1.87-15.65-16.34 2.65-4.22 7.93-.83-7.63-7.67-19.35-12.76-19.35-12.76-5.39-.22-3.42 4-3.42 4 6.55 6.18 7.21 24.87 7.21 24.87z" opacity=".4"/><path d="m130.67 59.67c-.38 9-13.18 8.57-13.46 0 .38-9.01 13.19-8.58 13.46 0z"/><path d="m124.76 62.6c-2.91-4-.82-9.66-.82-9.66-6.55 0-9.12 8.78-3.66 12.37 5.77 4 13.26-3.2 9.28-9.34 1.85 4.16-3.05 9.03-4.8 6.63z" opacity=".5"/><path d="m75.07 4.66s-7.07-7.09-15.58-3.78-51 20.3-47.69 63.27c2.92 38 27.86 44.39 46.27 48.64s48.17-.94 57.61-24.08 17.94-67.06-40.61-84.05z"/><path d="m16.05 67.22c-4.73-33 37.77-45.33 37.77-45.33-15.11.47-30.69 9.68-30.69 9.68 4.71-14.13 29.8-27.9 32-28.89-61 24.85-53.25 96.64-7 107.57 14.74 5.19 40.32 6.94 57.59-7.78-30.72 21.71-84.95-2.21-89.67-35.25z" opacity=".4"/><path d="m117.84 82.94c7.24-21.24 10.44-53.8-26.11-71.94.11.08 12.39 8.31 15.69 17.25 0 0-5.43-3.07-9-5 0 0 27.82 20.82 19.41 59.59.02.08.01.09.01.1z" opacity=".4"/></g><path d="m109.18 67.59c-2.53 28.35-81.19 27.17-83.91.7.73-29.23 82.73-28.09 83.91-.7z" fill="#eec8a1"/><path d="m91 67.81c-.16 6.79-10.3 7-10.63 0 .17-6.81 10.31-6.95 10.63 0z" fill="#272425"/><path d="m74 62.85 15.58-6.37s-6.72 9.21-15.58 6.37z" fill="#272425"/><path d="m44.26 67.81c.16 6.79 10.29 7 10.62 0-.16-6.81-10.29-6.95-10.62 0z" fill="#272425"/><path d="m61.26 62.85-15.58-6.37s6.73 9.21 15.58 6.37z" fill="#272425"/></g></svg>