<svg height="42" viewBox="0 0 110 42" width="110" xmlns="http://www.w3.org/2000/svg"><g fill="none" fill-rule="evenodd"><path d="m103.39 20.55c-23.76-.17-47.41.17-71.26-.35 8.72-5.88 19.87-3.67 30.67-5.12 15.99-2.3 27.36-4.54 40.59 5.47z" fill="#b0b0b0"/><path d="m104.34 22.37c-12.28 7.79-26.56 8.21-40.9 5.1-10.95-1.27-20.57.27-31.11-5 23.09-.75 48.61-.79 72.01-.1z" fill="#808080"/><path d="m28.4 18.38c6.6-15.11 11.54-17.82 27.8-14.82-10.15 2.17-19.92 6.66-27.8 14.82z" fill="#b0b0b0"/><path d="m57.2 39.35c-13.82.71-20.62 3.1-27.71-12.8 8.3125591 6.034596 17.7263399 10.3830765 27.71 12.8z" fill="#808080"/><path d="m12.87 16.26c4 4.72 1.73 8.2-2.86 11.44-12.54 5.1-11.29-20.19 2.86-11.44zm-8.25 6c-.71 4 4.56 4.52 6.33.73 1.52-4.88-5.95-6.62-6.33-.74z" fill="#808080"/><path d="m54.91 36.9c-8.76-2.29-19.47-5.6-25.06-13.43 4.15 1.53 9.35 2.39 13.72 5.3 2.62 4.04 7.17 5.33 11.34 8.13z" fill="#b0b0b0"/><path d="m31.12 18.26c5-7 14.73-10.77 23.41-12.36-7.6 3.73-13.78 10.98-23.41 12.36z" fill="#808080"/><g fill="#ffb859"><path d="m18.57 19.7c.2440077 1.0495744.2164744 2.1440226-.08 3.18-2.3.54-4.72-3.21.08-3.18z"/><path d="m25.24 23.15c-.9713103-.0903106-1.722522-.8912058-1.7505275-1.8663034-.0280054-.9750976.6760016-1.8177876 1.6405275-1.9636966.4734585 1.2265457.5122818 2.5783025.11 3.83z"/><path d="m21.78 19.89v2.58c-1.67 1.22-2.43-3.19 0-2.58z"/></g><path d="m15.69 18c18.31 1.57 10.09-10.45 24.42-17 49.82-.16 16.26 2.08 6.14 12.63 30.54 1.09 37-9.84 63.37 7.46.18 1.87-18.43 9.18-22.06 10.28-9.24.06-30.66-3.44-41.41-2.83 14.27 13.2 38.39 11-.81 13.23-3.19 0-5.52.32-8.43-2.28-13.86-10.35-1.33-14.58-22-15.45-19.66 22.1-20.36-27.04.78-6.04zm87.7 2.51c-15.36-9-21.91-8.55-36.21-6-12.13 2.49-23.92-1.09-35.05 5.69 23.87.52 47.5.18 71.26.35zm1 1.82c-23.26-.68-48.83-.65-72 .12 9.78 5 21 3.83 32.53 5.14 19 3.31 23.85 2.65 39.42-5.22zm-75.94-4c7.5498808-7.6077567 17.2227444-12.75616018 27.75-14.77-15.54-3.11-21.51-.26-27.8 14.82zm28.8 21c-9.9982697-2.374827-19.4200215-6.7269895-27.71-12.8 7.46 15.37 11.51 13.66 27.66 12.82zm-47.34-23.87c-8.54-3.68-12.1 8.75-4.33 12.85 7.52 2.11 12.67-10.39 4.33-12.85zm45 21.44c-8.21-4.42-14.56-11.62-25.06-13.43 5.58 7.74 15.65 10.94 25.06 13.43zm-23.79-18.64c12.15-2.47 13.49-7.45 23.41-12.36-8.3 1.69-17.72 4.7-23.41 12.36zm-12.55 1.44c-2.19-.69-4.93 3-.08 3.18.2964744-1.0359774.3240077-2.1304256.08-3.18zm6.67 3.45c.4022818-1.2516975.3634585-2.6034543-.11-3.83-1.55.18-2.88 3.26.11 3.83zm-3.46-3.26c-1.53-1-2.56 3.47 0 2.58z" fill="#000" fill-rule="nonzero"/><path d="m4.62 22.25c-.17-4.25 7.55-5.91 6.38.75-.84 2.64-7.08 4.31-6.38-.75zm2 1.59c2.44 1.15 5-4.13.62-3.34-.89.96-1.05 1.33-.66 3.34z" fill="#000" fill-rule="nonzero"/></g></svg>