<svg height="106" viewBox="0 0 90 106" width="90" xmlns="http://www.w3.org/2000/svg"><g fill="none"><g fill="#59595b"><path d="m70.4 65.12-6.53-4.12v-16l6.52-4.13 8.23 3.5 10.92-19.73-22.54 1.44-.32 8.92-5.68 3.61-12.76-7.36v-6.39l7.36-5.08-10.83-19.78-10.77 19.78 7.35 5.08v6.38l-12.81 7.37-5.68-3.61-.35-8.93-22.51-1.43 10.92 19.73 8.23-3.5 6.53 4.13v16l-6.53 4.14-8.23-3.5-10.92 19.71 22.51-1.44.35-8.91 8.49-5.39 9.95 5.75v9.79l-7.3 5.05 10.77 19.8 10.83-19.8-7.36-5.07v-9.79l9.95-5.75 8.49 5.41.32 8.91 22.5 1.44-10.88-19.73zm-19.4-10.23-6.23 3.59-6.23-3.59v-7.19l6.23-3.6 6.23 3.6z"/><path d="m22.86 70.97 8.49-5.38 9.95 5.75-9.7-8.6-12.04 7.81-.66 5.21-17.49 5.18-1.41.41 22.51-1.44z" opacity=".4"/><path d="m55.6 86.2-7.36-5.07v-9.79l9.95-5.75-12.91 4.31v11.72l6.19 5.54-6.7 18.83z" opacity=".4"/><path d="m71.33 37.34-9.77 5.86 2.31 17.78v-15.98l6.52-4.13 8.23 3.5 10.92-19.73-11.37 14.98z" opacity=".4"/><path d="m19.15 40.87 6.53 4.13v8.62l2.34-10.42-9.77-5.21-5.86 2.93-12.39-16.28 10.93 19.73z" opacity=".4"/></g><path d="m74.01 66.42 4.07-2.31 9.01 15.49z" fill="#fff" opacity=".3"/><path d="m41.47 21.28-4.24-2 7.48-16.28z" fill="#fff" opacity=".3"/><path d="m15.7 65.52-4.05-2.36-9.17 15.39z" fill="#fff" opacity=".3"/></g></svg>