<svg height="159" viewBox="0 0 200 159" width="200" xmlns="http://www.w3.org/2000/svg"><g fill="none"><path d="m150.645688 153.384758c-1.734445 7.152045-96.7669898 6.829907-102.1930253.623588-6.0236686-7.805186 102.5147933-7.754945 102.1930253-.623588z" fill="#000102" opacity=".11"/><path d="m50.6183432 35.760223c28.9467456 5.3463012 57.5384618 3.3336803 86.0710058-2.7041821-8.286982-41.62667287-79.9792898-38.89884759-86.0710058 2.7041821z" fill="#535659"/><path d="m136.911243 53.3447955c-30.804734 29.1903904-36.911243 13.5504647-45.4911247 15.3828067-22.4852071 5.8634945-28.5088757 1.1348699-40.4940828-14.499145l-.2573964.0916171c1.1834319 10.6394053 4.5059171 23.1584387 12.3461538 28.1175837 26.2278107 16.3078439 70.6745561 4.837974 73.8964501-29.0928625z" fill="#535659"/><path d="m50.4615385 37.5334572c.3609467 3.8420075-1.8461539 11.1920632 1.4792899 11.0413383 34.8343195 9.1617101 53.9852076 6.2063197 78.8639056 1.3210595 10.355029 0 5.973373-7.7726766 6.257396-14.8419702-28.778106 6.0260409-57.5857986 8.0386617-86.6005915 2.4795724z" fill="#c4374f"/><path d="m93.1153846 118.868755v.195055c20.2278104 6.20632 36.3905324-2.603698 36.5532544-6.773754-1.017751-9.407008-10.213018-22.7742382-15.476331-24.1307623-16.6183435 4.6310966-26.4408287 2.8430855-30.5473376 18.6189593 7.2721894-5.777788 10.3284024-15.5926396 12.1952663-10.7280671-4.8343195 12.6342941-19.5650888 13.2756131-6.2840237 20.3094421 17.393491-2.547546 20.931953-12.229405 28.66568-23.3002971 3.686391-.2393867-.568047 6.1117472-1.399408 7.7726761-5.349112 8.904592-13.272189 16.363997-23.7071004 18.036748z" fill="#535659"/><path d="m132.150888 140.655892c-3.124261-4.829108-3.461539-10.793085-4.257397-16.65658-14.381657 6.682138-37.1124259 8.996208-46.449704-.094572-5.7071006 4.258717-9.5207101 10.178364-13.9497042 15.840892v-1.587045c-5.0059171 2.993811 7.3047338 7.134313 9.6745563 7.335279 9.0088757-4.888215 19.3609467-12.524944 31.2011829-10.134033v.221654l-3.636094 1.300372-.168639.265985c6.68639 6.425018 15.384615 7.781543 24.112426 9.882825l-1.544379.664963c2.298817 2.565279 6.37574-5.151245 6.06213-7.890892l-.221893-.03251z" fill="#535659"/><path d="m50.4615385 49.7273978c20.0266272 27.7392936 26.4319526 17.2653903 43.0502958 16.4408364 20.3136097 8.1421004 30.4497037-4.6695167 43.7396447-16.2546468-15.443787 5.4379182-25.100591 3.8597397-34.813609 8.9696096l-.159763-.1832342 2.180473-2.5268587c-9.8786983.7979554-19.5857989.8009108-29.275148-.6265428l4.8846153 3.2509294-.1360946.2482528c-9.4714366-4.1238187-19.3486239-7.2469185-29.4704142-9.3183457z" fill="#f3d7bf"/><path d="m140.760355 45.247026c8.115385 1.1998885 13.017752 7.1786431 18.653846 12.8116171 12.547337 11.6885688 25.218935 10.4532156 36.443787 3.8745168-2.988166-2.5623235-2.736686-5.8930484-2.230769-9.2001302-8.171598 1.052119-17.565089 3.3721004-25.656805.0709294-7.911242-1.7495911-29.526627-21.7516729-27.210059-7.5569331z" fill="#c4374f"/><path d="m3.36686391 33.9869888c.02071005.0768402.04437869.1536803.06508875.2305205 14.55325444 3.8124535 29.52071004 8.2928253 44.27810654 12.5013011-.47929-1.7732342 1.0384615-5.4704275-.7869823-6.9894981-10.0591716-4.4774164-21.3017751-6.2476952-32.2781065-6.7796655 9.9289941-3.21842 26.2514793 3.0322305 33.0473373 5.7955205 1.3461538-3.8715614-5.295858-3.9484015-8.3224852-5.6152416-15.3224852-5.715725-24.5502959-6.4929926-36.00295859.8570631z" fill="#ededed"/><path d="m172.026627 68.9935874c-16.411242-4.9798328-19.680473-20.0050372-31.12426-21.3970261v2.3495354c16.426035 1.832342 8.245562 23.7081412 33.112426 30.8631412-2.387574-3.7090149-3.142012-7.586487-1.988166-11.8156505z" fill="#c4374f"/><path d="m128.068047 119.202714c-25.997041 11.3221-41.0147926-1.906227-45.1745559 1.356524 5.4053255 11.685613 46.3964499 4.749312 45.1745559-1.356524z" fill="#c4374f"/><path d="m118.230769 86.965316 6.804734 7.0722491c4.079882-2.0687733 16.707101-16.2546469 5.656805-14.5346097-4.849113 1.5042937-7.639054 5.792565-12.461539 7.4623606z" fill="#535659"/><path d="m67.2692308 143.490112c-4.6893491 7.64855-8.2633136 4.569033-12.4260355 8.883903 23.9911242 4.418308 9.1272189-2.015576 19.6360946-5.508848z" fill="#37383a"/><path d="m139.988166 148.118253c.02071.103438.038461.206877.059171.310316-1.860946.916171-6.079881 1.105316-6.044378 4.288271 16.171597 2.745558 9.801775-4.554256 1.183432-10.515279l-2.579882 4.935502 1.230769 1.85303c1.914201-1.318104 3.89645-2.23132 6.150888-.87184z" fill="#37383a"/><path d="m85.8284024 117.352639c-1.9882188-1.67775-3.5343363-3.816845-4.5029586-6.229962-13.2781065 4.412397-2.1420118 8.603141 4.5029586 6.229962z" fill="#37383a"/><path d="m152.763314 85.2157249-9.680474-5.7157249c-.393491 1.158513-.778106 2.2786059-1.2071 3.5464684 2.18639 1.6638848 4.869822 3.7592565 7.511834 5.9107807z" fill="#848687"/><path d="m71.9852071 120.603569.2721893.428531c2.3284024-1.885539 4.6420119-.106394 7.8106509-.993011-9.6863905-1.380167-8.8757396-6.797398-.9792899-10.677825-1.8431953-.993011-3.7218935-2.104238-6-2.314071 6.295858 6.055595-.887574 2.364313-5.147929 5.14829 1.4526627.670874 2.6923077-.774312 4.6360947.422621-.8698225 1.669796-3.3846154 1.391989-5.1213018 3.088383 2.5295858 0 7.3964497-1.826431 2.1094675 2.30816l.1538461.26894c1.9171598-.827509 5.4585799-1.714126 2.2662722 2.319982z" fill="#37383a"/><path d="m138.964497 82.4258364c3.426036-1.3269702 1.745562-6.1353903.221894-8.6031412-3.221894.1329925-6.360947-3.7888104-6.68935 1.4097212 5.23077-3.5642008 9.18935 2.5091264 6.467456 7.19342z" fill="#37383a"/><path d="m156.786982 87.6125465-2.168639-1.2915056-3.973373 3.7828996c2.724852 3.2863941 4.011835-.1389033 6.142012-2.491394z" fill="#e7c04b"/><path d="m133.742604 76.751487 3.550295 3.2302416c1.360947-2.3672676-1.014792-5.7571003-3.550295-3.2302416z" fill="#37383a"/><path d="m87.6242604 95.3408922-2.387574-3.2509294c.1094674 1.9623792.2071006 3.7149257.295858 5.5856878.7751479-.8570632 1.4497041-1.6254647 2.091716-2.3347584z" fill="#535659"/><path d="m88.739645 94.3419703 2.5621301-1.8707621h-3.3964497c.295858.659052.5562131 1.2383085.8343196 1.8707621z" fill="#f3d7bf"/><path d="m130.372781 77.1356877c.973373.0768402 1.434911-.6472305 1.207101-1.7023048z" fill="#848687"/><path d="m115.408284 54.922974c-4.517751.2452974-8.612426 2.0155762-12.970414 3.9543122l-.159763-.1832342 2.180473-2.5268587c-9.8786983.7979554-19.5857989.8009108-29.275148-.6265427l4.8846153 3.2509293-.1360946.2482528c-9.4714366-4.1238186-19.3486239-7.2469185-29.4704142-9.3183457 1.8136094 2.3909108 3.7514793 5.065539 5.9970414 7.6840149-4.4378698-10.0276394 26.5532544 6.8387732 33.872781 4.1996096 10.7662721 1.8589405 41.9053251-13.3317658 35.9556211-2.1012825 3.387574-3.0263197 7.724852-6.1560781 10.964497-9.593197-6.813609 2.2135873-14.502958 4.1464126-21.843195 5.012342z" fill="#d5ae9a"/><g fill="#000"><path d="m116.343195 112.254591c2.301775-5.192621 2.816568-12.8411709 2.931953-16.2132713-4.825444 10.5921193-13.890533 20.9064313-26.1597634 22.8274353v.195055c4.0769231 1.324015 9.4201184 2.015577 14.0207104 2.11606 2.899408-1.584089 7.275148-4.563123 9.2071-8.925279z" opacity=".2"/><path d="m127.93787 124.300762c-.014793-.100483-.029586-.198011-.044379-.295539-13.745562 6.333402-34.653846 8.801152-44.9999999 1.164424 10.6804734 9.871004 15.9763314 6.832862 5.6982249 13.695279 5.9881657-2.184034 12.931953-5.024164 19.772189-3.499183v.221655l-3.630177 1.294461-.168639.265985c4.857988 4.20552 10.130177 6.906747 16.751479 8.118457-12.736686-5.180799 5.535503-12.202807 6.621302-20.965539z" opacity=".2"/><path d="m70.8076923 148.951673c.8165681-.573346 2.3431953-1.35948 3.6656805-2.068773l-7.204142-3.375056-.0295858.03842c.8076923 1.031431 3.0059171 3.980911 3.5680473 5.405409z" opacity=".2"/><path d="m137.174556 147.473978c-1.606509-.682695-3.994083-1.442231-3.994083-1.442231-.192307.366469-.381656.732937-.573964 1.09645l1.230769 1.85303c1.073965-.735892 2.177515-1.347658 3.337278-1.507249z" opacity=".2"/><path d="m133.742604 83.9774164c-2.763314 1.2678624-12.071006 3.2095539-14.769231 3.7563011l6.068047 6.3038476c3.304734-2.8401302 7.665681-5.6152417 9.514793-10.3438662-.279775.0679831-.552262.1630035-.813609.2837175z" opacity=".2"/><path d="m136.686391 33.0442193c-.254438-2.8844609-1.526628-6.2063197-3.115385-9.0080297-6.147929 5.8575836-21.514793 11.5910409-27.970414 13.825316 10.445999-1.0076794 20.825152-2.6161101 31.085799-4.8172863z" opacity=".2"/><path d="m136.911243 53.3447955c-5.656805 5.3197026-11.940829 11.0383829-19.25148 14.620316-5.846154 9.4572491-20.5414198 18.1579182-26.9585796 21.6482342 27.8254436-1.3181041 43.0266276-14.3572862 46.2100596-36.2685502z" opacity=".2"/><path d="m171.511834 73.4237175c-.061597-1.4954969.112113-2.9913867.514793-4.4330855-16.411242-4.9798327-19.680473-20.0050372-31.12426-21.3970261v2.3524908c17.609467 2.9731226 3.689349 17.1057992 30.609467 23.4776208z" opacity=".2"/><path d="m105.029586 123.68013c-20.7100594-1.409721-17.0236688-5.461561-22.1301777-3.120892 3.8254438 7.125446 17.0680473 6.413197 22.5266277 6.176766-1.124261-1.066896-.775148-2.314071-.39645-3.055874z" opacity=".2"/><path d="m137.399408 37.7373792c-.058534-.9037561-.167182-1.8035755-.325444-2.695316-10.061736 2.1417162-20.235372 3.7203829-30.473372 4.7286245 12.683432 2.9967658 5.047337 11.2304833-3.106509 14.3040893 43.505917-5.5738662 32.467455-4.110948 33.905325-16.3373978z" opacity=".2"/><path d="m146.724852 41.0030855c-4.174556-1.1319145-6.804734-1.8234758-5.964497 4.2439405 3.387574.6826952 6.41716 1.8027881 9.023669 3.7001487-1.201184-2.195855-2.511835-5.0773606-3.059172-7.9440892z" opacity=".2"/><g opacity=".2" transform="translate(20.414201 36.351301)"><path d="m26.4408284 10.1576766c.3136095.0886617.6301775.1625464.8550296.2186989 3.8461538-15.08726769-24.60355031-8.49674725-27.18639054-7.68401491 8.37869822 2.25791822 17.73964494 4.8320632 26.33136094 7.46531601z"/><path d="m27.2781065 2.40273234c.0266272-.34578067.035503-.62949814.1597633-1.7732342-1.8284023-.19505576-3.6301775-.31031598-5.3816568-.36055762 1.3816568.46399628 3.331361 1.45109665 5.2218935 2.13379182z"/></g><path d="m141.87574 81.8643123 14.337278 7.7844981c-2.053255 9.8532714-13.923077-5.6418401-14.878698-5.9669331z" opacity=".2"/><path d="m79.9940828 107.744665c1.1005918-5.006431 3.5266273-10.2492933 3.0088758-15.6901669-46.9142012-4.5247026-26.4023669-43.4442379-38.5976332-43.4442379-15.1360946-5.1128253-30.7100591-8.36671-44.4053254-14.3484201 15.1982249-14.1651858 34.1508876-7.1845539 48.1745562-.916171 8.6775148-46.231171 90.9644968-44.1860408 92.3579878 4.8616171 3.328403-.295539 7.316568.2305205 10.544379 2.2667844 18.609468 12.7081785 27.026627 13.408606 44.497041 9.8000744 4.218935.9220818-2.745562 3.6203531 4.281066 12.288513-7.263314 5.254684-16.568048 9.5459108-25.914202 6.9303903-2.147929 8.1775651 2.97929 8.9636989 2.147929 12.3151116-5.621301 1.1082713-12.130177-1.7732342-16.272189-5.5531785-10.313609-7.9145353-9.207101-24.4735873-18.819527-24.3317286-.856131 6.8057892-3.090897 13.3661012-6.568047 19.2809665 12.721894 3.2361524 2.997042 3.4164313 10.881657 7.7135688 4.54142 2.8253532 9.62426 4.6990706 13.278106 8.0563941.204142 3.029275-2.786982 7.8081412-5.961538 7.3234572-21.452663-16.6063383-8.674556-10.3438662-26.571006 1.2974164 14.363905 26.1758922-.532544 16.7068212 4.733728 31.8088662.994083 3.771078.91716 10.116301 3.639053 10.116301 2.420118 4.675428 10.142012 5.893048 11.804734 12.454015 1.95858 7.645595-10.109468 5.565-14.127219 4.258717-1.701184-1.663884 1.156805-3.75039-.346154-6.277249-.863905.662008-3.16568 2.393866-4.573964 1.669796-7.837279-3.336636-18.384616-2.857863-24.346154-11.047249-10.8550299-1.01961-20.6893494 7.589442-30.7218938 11.925 2.4881657 7.155-19.2307692 4.728624-18.8491124 1.737769.8875739-4.05184 7.2751479-3.723792 9.4260355-7.220018 2.9349112-3.413476 1.1834319-3.407565 2.2544378-6.717603 4.7928995-4.681338 7.5443787-11.659014 13.5414202-16.062546-2.647929-1.82052-8.0384616 3.091338-8.3343196-2.228364-2.2189349.475818-3.9378698-.712249-2.0236686-3.041097-1.9497041-.735892-2.0384615-1.335836-.4349112-3.171134-4.1183432-1.92987 1.9940828-5.355167 4.8875739-4.749312-4.0828402-6.268383 4.0680474-3.543513 7.408284-1.306283zm-29.3757396-71.984442c28.9467456 5.3463012 57.5384618 3.3336803 86.0710058-2.7041821-8.286982-41.62667287-79.9792898-38.89884759-86.0710058 2.7041821zm86.2928998 17.5845725c-30.804734 29.1903904-36.911243 13.5504647-45.4911247 15.3828067-22.4852071 5.8634945-28.5088757 1.1348699-40.4940828-14.499145l-.2573964.0916171c1.1834319 10.6394053 4.5059171 23.1584387 12.3461538 28.1175837 26.2278107 16.3078439 70.6745561 4.837974 73.8964501-29.0928625zm-86.4497045-15.8113383c.3609467 3.8420075-1.8461539 11.1920632 1.4792899 11.0413383 34.8343195 9.1617101 53.9852076 6.2063197 78.8639056 1.3210595 10.355029 0 5.973373-7.7726766 6.257396-14.8419702-28.778106 6.0260409-57.5857986 8.0386617-86.6005915 2.4795724zm42.6538461 81.3352978v.195055c20.2278104 6.20632 36.3905324-2.603698 36.5532544-6.773754-1.017751-9.407008-10.213018-22.7742382-15.476331-24.1307623-16.6183435 4.6310966-26.4408287 2.8430855-30.5473376 18.6189593 7.2721894-5.777788 10.3284024-15.5926396 12.1952663-10.7280671-4.8343195 12.6342941-19.5650888 13.2756131-6.2840237 20.3094421 17.393491-2.547546 20.931953-12.229405 28.66568-23.3002971 3.686391-.2393867-.568047 6.1117472-1.399408 7.7726761-5.349112 8.904592-13.272189 16.363997-23.7071004 18.036748zm39.0355034 21.787137c-3.124261-4.829108-3.461539-10.793085-4.257397-16.65658-14.381657 6.682138-37.1124259 8.996208-46.449704-.094572-5.7071006 4.258717-9.5207101 10.178364-13.9497042 15.840892v-1.587045c-5.0059171 2.993811 7.3047338 7.134313 9.6745563 7.335279 9.0088757-4.888215 19.3609467-12.524944 31.2011829-10.134033v.221654l-3.636094 1.300372-.168639.265985c6.68639 6.425018 15.384615 7.781543 24.112426 9.882825l-1.544379.664963c2.298817 2.565279 6.37574-5.151245 6.06213-7.890892l-.221893-.03251zm-81.6893495-90.9284942c20.0266272 27.7392936 26.4319526 17.2653903 43.0502958 16.4408364 20.3136097 8.1421004 30.4497037-4.6695167 43.7396447-16.2546468-15.443787 5.4379182-25.100591 3.8597397-34.813609 8.9696096l-.159763-.1832342 2.180473-2.5268587c-9.8786983.7979554-19.5857989.8009108-29.275148-.6265428l4.8846153 3.2509294-.1360946.2482528c-9.4714366-4.1238187-19.3486239-7.2469185-29.4704142-9.3183457zm90.2988165-4.4803718c8.115385 1.1998885 13.017752 7.1786431 18.653846 12.8116171 12.547337 11.6885688 25.218935 10.4532156 36.443787 3.8745168-2.988166-2.5623235-2.736686-5.8930484-2.230769-9.2001302-8.171598 1.052119-17.565089 3.3721004-25.656805.0709294-7.911242-1.7495911-29.526627-21.7516729-27.210059-7.5569331zm-137.39349109-11.2600372c.02071005.0768402.04437869.1536803.06508875.2305205 14.55325444 3.8124535 29.52071004 8.2928253 44.27810654 12.5013011-.47929-1.7732342 1.0384615-5.4704275-.7869823-6.9894981-10.0591716-4.4774164-21.3017751-6.2476952-32.2781065-6.7796655 9.9289941-3.21842 26.2514793 3.0322305 33.0473373 5.7955205 1.3461538-3.8715614-5.295858-3.9484015-8.3224852-5.6152416-15.3224852-5.715725-24.5502959-6.4929926-36.00295859.8570631zm168.65976309 35.0065986c-16.411242-4.9798328-19.680473-20.0050372-31.12426-21.3970261v2.3495354c16.426035 1.832342 8.245562 23.7081412 33.112426 30.8631412-2.387574-3.7090149-3.142012-7.586487-1.988166-11.8156505zm-43.95858 50.2091266c-25.997041 11.3221-41.0147926-1.906227-45.1745559 1.356524 5.4053255 11.685613 46.3964499 4.749312 45.1745559-1.356524zm-9.837278-32.237398 6.804734 7.0722491c4.079882-2.0687733 16.707101-16.2546469 5.656805-14.5346097-4.849113 1.5042937-7.639054 5.792565-12.461539 7.4623606zm-50.9615382 56.524796c-4.6893491 7.64855-8.2633136 4.569033-12.4260355 8.883903 23.9911242 4.418308 9.1272189-2.015576 19.6360946-5.508848zm72.7189352 4.628141c.02071.103438.038461.206877.059171.310316-1.860946.916171-6.079881 1.105316-6.044378 4.288271 16.171597 2.745558 9.801775-4.554256 1.183432-10.515279l-2.579882 4.935502 1.230769 1.85303c1.914201-1.318104 3.89645-2.23132 6.150888-.87184zm-54.1597636-30.765614c-1.9882188-1.67775-3.5343363-3.816845-4.5029586-6.229962-13.2781065 4.412397-2.1420118 8.603141 4.5029586 6.229962zm66.9349116-32.1369141-9.680474-5.7157249c-.393491 1.158513-.778106 2.2786059-1.2071 3.5464684 2.18639 1.6638848 4.869822 3.7592565 7.511834 5.9107807zm-80.7692312 35.3878441.2721894.428531c2.3284024-1.885539 4.6420118-.106394 7.8106509-.993011-9.6863906-1.380167-8.8757397-6.797398-.97929-10.677825-1.8431952-.993011-3.7218935-2.104238-6-2.314071 6.295858 6.055595-.8875739 2.364313-5.147929 5.14829 1.4526628.670874 2.6923077-.774312 4.6360947.422621-.8698225 1.669796-3.3846154 1.391989-5.1213018 3.088383 2.5295858 0 7.3964497-1.826431 2.1094675 2.30816l.1538462.26894c1.908284-.827509 5.4497041-1.714126 2.2573964 2.319982zm66.9704142-38.1777326c3.426036-1.3269702 1.745562-6.1353903.221894-8.6031412-3.221894.1329925-6.360947-3.7888104-6.68935 1.4097212 5.23077-3.5642008 9.18935 2.5091264 6.467456 7.19342zm17.822485 5.1867101-2.168639-1.2915056-3.973373 3.7828996c2.724852 3.2863941 4.011835-.1389033 6.142012-2.491394zm-23.044378-10.8610595 3.550295 3.2302416c1.360947-2.3672676-1.014792-5.7571003-3.550295-3.2302416zm-46.1183436 18.5894052-2.387574-3.2509294c.1094674 1.9623792.2071006 3.7149257.295858 5.5856878.7751479-.8570632 1.4497041-1.6254647 2.091716-2.3347584zm1.1153846-.9989219 2.5621301-1.8707621h-3.3964497c.295858.659052.5562131 1.2383085.8343196 1.8707621zm41.633136-17.2062826c.973373.0768402 1.434911-.6472305 1.207101-1.7023048z"/><path d="m107.414201 60.1658364c3.526627-.2600743 3.692308 4.648829.849113 5.3640335-3.804734.8866171-5.464497-5.4054089-.849113-5.3640335z"/><path d="m74.464497 60.0653532c4.0650888-.1123049 3.6331361 5.7009479-.1449704 5.6152416-3.1893491-.2452974-3.1183432-5.98171.1449704-5.6152416z"/></g><path d="m160.215976 52.0739777c7.434912 5.1305576 17.75148 5.7039033 26.93787 4.5099256-8.733728 2.34658-19.426035 2.263829-26.93787-4.5099256z" fill="#fff"/><path d="m72.5532544 138.717156c1.6065089-4.081394 4.6656805-8.688847 9.3136095-10.875836-3.3698225 2.967212-6.2248521 6.812174-9.3136095 10.875836z" fill="#fff"/><path d="m60.091716 24.0361896c6.4023668-11.4728253 19.9822485-19.58537176 33.7633136-18.00423793-13.2130178-.09457249-25.9289941 6.92743493-33.7633136 18.00423793z" fill="#fff"/></g></svg>