<svg height="165" viewBox="0 0 137 165" width="137" xmlns="http://www.w3.org/2000/svg"><g fill="none" fill-rule="evenodd"><path d="m65.252335 159.597468c7.246396 0 13.1297462 1.072152 13.1297462 2.394937s-5.8833502 2.394937-13.1297462 2.394937c-7.2463959 0-13.1367005-1.072152-13.1367005-2.394937s5.8833503-2.394937 13.1367005-2.394937z" fill="#1d1819"/><path d="m53.6038579 109.115823s-10.8695939 20.189873-9.4509137 23.253164 2.6356852 5.569621 6.2032487 6.161393c3.5675634.591772 6.1545685-3.223418 7.1977157-4.838608s6.2032488-9.252531 6.2032488-9.252531l3.7622842.605696-2.5313705 28.982911s-1.0848731 6.043038-.2851269 6.63481 3.8387817.591772 5.702538.591772c1.8637564 0 4.3812183-5.70886 4.5689848-6.377215 5.5634518-19.556329 12.065736-46.986709 11.1755838-46.951932z" fill="#1d1819"/><path d="m110.302386 74.5981013s11.453756 7.8044303 16.224416 18.4772152c4.77066 10.6727845 2.983401 16.8829115 2.983401 16.8829115-4.980063-4.702459-9.523632-9.847604-13.574822-15.3721521-6.328427-8.7512658-7.969645-14.6202531-7.969645-14.6202531l2.33665-5.3955696z" fill="#1d1819"/><path d="m104.864112 83.2310127s.737157 10.9791139 5.139238 18.2265823c4.402081 7.247468 8.254772 10.101899 8.254772 10.101899s1.891573-12.1556965-2.872132-23.8101269c-4.763706-11.6544304-8.456447-12.1974684-8.456447-12.1974684l-2.086294 7.6582279z" fill="#1d1819"/><path d="m47.6648731 74.5981013s1.5577665.4664557 10.3480203-.3898735c8.7902538-.8563291 12.6290355 0 12.6290355 0s3.8387818-.849367 12.6290356 0c4.764203.4179275 9.4961842 1.1458373 14.1659391 2.179114l-5.8277158 19.3405063-5.3756853 13.0329109s.0625889.132279-3.1781218.89114c-3.2407106.75886-14.4858376.814557-14.4858376.814557s-8.067005-2.889241-11.3216243-3.648102l-3.247665-.75886-1.8428934-10.6170889-4.5133502-20.8443038z" fill="#1d1819"/><path d="m55.5023858 105.989873c2.8999492 1.06519 5.9459391 2.018988 8.9293401 2.784811 1.7063309.467413 3.4417694.820932 5.1948731 1.058227h.0764974c1.7469908.277127 3.5101728.43992 5.2783249.487342 3.0807614.118355 6.2588833.076582 9.3535533-.10443l1.3282741-.076582 1.0361929 4.594936-1.4882233.466456c-1.5172674.457225-3.0588978.829114-4.617665 1.113924-3.2752347.667531-6.6187238.938673-9.9585787.807595-.6119797-.03481-1.2170051-.083544-1.8289848-.160127h-.1599492-.0625888-.1599493c-.598071-.10443-1.2030964-.229747-1.7942132-.375949-3.2372782-.838957-6.3615165-2.066195-9.3048731-3.655063-1.4089495-.723697-2.7764412-1.525577-4.0960913-2.401899l-1.2935026-.870253 2.3088325-4.128481 1.2448224.459493z" fill="#1d1819"/><path d="m54.9390863 107.591139s8.9154315 3.272152 14.4649746 3.940507c5.500863.967721 14.9795939.410759 14.9795939.410759l.3824873 1.656962s-8.3451776 2.61076-15.7654314 1.705696h-.152995-.1529949c-7.3437563-1.281012-14.6040609-6.18924-14.6040609-6.18924z" fill="#fff000"/><path d="m80.7256853 79.9658228-13.1575635 24.0746832 2.364467-7.6791136-9.3744162-16.3955696z" fill="#fff000"/><path d="m47.8665482 84.4841772s-12.837665 22.7310128-14.075533 25.6202528c-1.237868 2.889241-2.9973096 9.050633-2.9973096 9.050633h1.502132c.8206091 0 3.7692385-4.657595 3.7692385-4.657595l1.4882234-1.343671s-1.237868 1.998102-1.1335533 2.520254.9805584.522152 1.5508122.522152 2.6843655-4.984811 3.7205584-5.569621c1.0361928-.58481 15.4594416-20.5658225 15.1951776-20.0715187-.2642639.4943038 0-7.964557-2.8582233-8.2778481-2.8582234-.3132911-6.1684772 2.1721519-6.1684772 2.1721519z" fill="#1d1819"/><path d="m48.2351269 85.4240506s8.2478173 7.0177216 15.5915736 9.1898735c4.6111662 1.4643929 9.486427 1.9016093 14.2841624 1.2810126 2.1836549-.2367089 13.1297462-4.8246835 13.1297462-4.8246835z" fill="#fff"/><path d="m92.9374619 84.4841772s12.8307111 22.7101268 14.0755331 25.6202528c1.244822 2.910127 2.99731 9.050633 2.99731 9.050633h-1.522995c-.827564 0-3.769239-4.657595-3.769239-4.657595l-1.502132-1.329746s1.244822 1.998101 1.140508 2.520253c-.104315.522152-.980559.522152-1.550812.522152-.570254 0-2.684366-4.984811-3.7205589-5.569621s-15.4594416-20.5658225-15.2021319-20.0715187c.2573096.4943038 0-7.9645569 2.8582233-8.2778481 2.8582234-.3132911 6.1754315 2.1721519 6.1754315 2.1721519z" fill="#1d1819"/><path d="m31.9898477 27.5905063c-5.2574619 12.1487342-6.3562436 29.7-1.856802 39.328481 7.3228934 15.664557 27.5460406 24.193038 33.7075634 26.6227849 2.1136884.6315697 4.2848244 1.0513527 6.4814214 1.2531645 2.179873.3185577 4.3862519.4165203 6.585736.2924051 6.5648731-.9189874 28.2136545-4.4835443 38.9858885-17.9968355 6.620507-8.3126582 9.652589-25.6341772 7.378528-38.6810126-2.545279-14.6202532-6.050254-25.1886076-21.509696-31.88607598-7.3368017-3.17468354-14.9795936-5.65316455-20.2579185-6.26582278-5.2783248-.61265823-13.2896954 0-21.1619797 1.39240506-16.6138578 2.85443038-22.4902538 12.3506329-28.3527411 25.9405063z" fill="#1d1819"/><path d="m35.8355838 29.2405063c-4.11 9.4962026-6.3562437 26.3303798-1.898528 35.8683545 1.0572623 2.2416461 2.3837442 4.3457964 3.9500508 6.2658227-.9733626-1.3516106-1.8295416-2.7840396-2.5591878-4.2816455-4.6315736-9.5588608-2.3783757-26.386076 1.8289848-35.8753165 5.6747208-12.8170886 10.7861421-20.8860759 25.9048223-23.42025315 6.1545685-1.01645569 14.3328426-1.99810126 20.5569543-1.26012658 6.2241117.73797469 13.9086294 3.60632913 19.6876648 6.03607593 1.366524.5704991 2.701368 1.2142583 3.998731 1.928481-2.239009-1.6523771-4.667009-3.0313274-7.232487-4.1075949-5.5634519-2.40886076-13.0462946-5.24936709-19.0756854-5.9664557-6.0293909-.71708861-13.9712183.29240506-19.9449747 1.33670886-14.673604 2.58987342-19.6598477 10.66582274-25.2163451 23.47594934z" fill="#fefefe"/><path d="m39.5770051 59.9848101s-.9666498-13.0398734 8.1504568-13.8683544 18.0951269 8.8835443 23.4290863 11.3202532c1.7038071.7867088 2.9555838 1.3297468 3.866599 1.7056962.9736041-.1462026 2.3088325-.3689874 4.1725888-.6962026 5.7303554-1.0791139 16.6277665-8.3126582 25.306751-5.2841772 8.678985 3.028481 4.868021 15.4765823 4.868021 15.4765823s-2.969493 7.1917721-13.227107 9.3360759c-7.7749238 1.6221519-18.2481218-1.7962025-22.8449238-3.5367088-4.8680203.563924-15.8141117 1.3297468-23.0048731-2.1443038-9.478731-4.5879747-10.716599-12.3088608-10.716599-12.3088608z" fill="#fbd7a3"/><g fill="#1d1819"><path d="m79.8703046 71.8689873c.49987-1.4288136 1.2590316-2.7529188 2.2392893-3.9056962 1.4604061-1.5594936 10.2437056-4.4905063 16.1340102-5.7227848 5.8903049-1.2322785 3.2893909.4177215 3.2893909.4177215l-21.6279189 9.2455697z"/><path d="m94.641269 63.5424051c1.2795939 1.5107595 1.0848731-.5917722.6954315 2.6734177s-3.4284771 7.0734177-6.585736 6.6974683c-3.1572589-.3759493-4.1725889-2.2835443-3.887462-4.4696202.2851269-2.186076.0834518-.5848101.1460406-.8702532l9.6247716-4.0310126z"/><path d="m67.5333503 69.8082278c-.2427573-1.4950641-.7590708-2.9324318-1.522995-4.2398734-1.1613705-1.7892405-9.3048731-6.2031645-14.8891878-8.4449367-5.5843147-2.2417721-3.2754822-.1879747-3.2754822-.1879747z"/><path d="m54.4383756 59.0310127c-1.5160406 1.2601265-.9666497-.7727849-1.1544162 2.5132911-.1877665 3.2860759 2.1488832 7.5607595 5.3200508 7.7417721 3.1711675.1810127 4.4716243-1.5246835 4.6037563-3.7246835s0-.5917721 0-.8772152z"/><path d="m27.4069543 108.698101c-1.3213198-1.768354-18.94355328-18.0455694-24.52786801-31.8721516-5.58431472-13.8265823-1.32827411-20.057595-1.32827411-20.057595s2.0306599 14.6132912 13.74868022 30.2569621c11.7180203 15.6436705 15.8280203 18.8949365 15.8280203 18.8949365l-3.7205584 2.78481z"/><path d="m27.6781726 107.507595 1.6898985-1.552532c.3973997-.444222 1.0759984-.490542 1.5299492-.10443l12.4551777 13.589873c.341671.487252.2372102 1.157773-.2364467 1.517722l-1.6898985 1.573418c-.3998284.445095-1.0806656.491357-1.5369036.10443l-12.4482233-13.61076c-.3416711-.487251-.2372102-1.157772.2364467-1.517721z"/><path d="m28.0606599 106.226582c1.280951-1.239656 2.7901466-2.218529 4.4438071-2.882278.0834518-.696203.6328426-1.343671 1.0083756-1.13481.4635268.370066.8649871.811927 1.1891879 1.30886.7510659 1.044304-.6954315 3.794304-3.4006599 6.265823-2.7052285 2.471519-5.5286802 3.696836-6.5022843 2.854431-.4684123-.366312-.8746723-.805936-1.2030965-1.301899-.1808121-.389874.528528-.884177 1.2170051-.905063.8026868-1.589461 1.905593-3.008042 3.247665-4.177216z"/></g><path d="m27.1218274 105.231013c2.5522335-2.339241 5.347868-3.481013 6.2588833-2.471519.9110152 1.009493-.4450762 3.668987-2.9973097 6.008228-2.5522335 2.33924-5.347868 3.481012-6.2588832 2.471519-.9110153-1.009494.4450761-3.662026 2.9973096-6.008228z" fill="#fefefe"/><path d="m26.9340609 104.994304c2.7330457-2.513291 5.6816751-3.759494 6.5787817-2.78481.8971066.974683-.598071 3.808228-3.338071 6.321519s-5.6816752 3.759493-6.5787818 2.78481c-.8971066-.974684.5980711-3.808228 3.3380711-6.321519z" fill="#1d1819"/><path d="m109.113198 111.949367c1.32132-1.761392 18.943553-18.0386075 24.527868-31.8721518s1.328274-20.0506329 1.328274-20.0506329-2.03066 14.6202531-13.741726 30.243038c-11.711066 15.6227847-15.82802 18.8949367-15.82802 18.8949367z" fill="#1d1819"/><path d="m108.84198 110.765823-1.689899-1.552532c-.3974-.444223-1.075998-.490542-1.529949-.10443l-12.4343147 13.582911c-.342455.489448-.238122 1.16222.2364467 1.524684l1.6898984 1.552531c.4015288.441586 1.0794546.48765 1.5369036.104431l12.448223-13.589874c.341671-.487251.237211-1.157772-.236446-1.517721z" fill="#1d1819"/><path d="m108.48731 109.48481c-1.280951-1.239656-2.790147-2.218529-4.443807-2.882278-.083452-.696203-.632843-1.343671-1.008376-1.13481-.462008.371685-.863233.813287-1.189188 1.30886-.751066 1.044304.730203 3.794304 3.40066 6.265823s5.52868 3.696836 6.502284 2.85443c.468413-.366312.874673-.805935 1.203097-1.301898.180812-.389874-.521574-.884178-1.217005-.905064-.800883-1.590603-1.904043-3.009511-3.247665-4.177215z" fill="#1d1819"/><path d="m109.370508 108.489241c-2.552234-2.346203-5.340914-3.481013-6.258884-2.471519-.917969 1.009493.445077 3.662025 2.99731 6.008227 2.552234 2.346203 5.347868 3.481013 6.258883 2.471519.911015-1.009493-.445076-3.668987-2.997309-6.008227z" fill="#fefefe"/><path d="m109.586091 108.252532c-2.733045-2.513291-5.681675-3.759494-6.571827-2.78481-.890152.974683.598071 3.808227 3.331117 6.321519 2.733045 2.513291 5.688629 3.759493 6.578781 2.78481.890153-.974684-.598071-3.808228-3.338071-6.321519z" fill="#1d1819"/></g></svg>