<svg height="94" viewBox="0 0 54 94" width="54" xmlns="http://www.w3.org/2000/svg"><g fill="none" fill-rule="evenodd"><path d="m30.17 66.77c.49 3.48-5.39 9.89 0 12.17 14.65 19.19-24.77 14.74-4.91-1.39.44-1.25.24-.75-.28-3-4.2-17.21-32.31-55.37-20.28-67.5 1.47 17.84 11 35.28 19.22 51.67 1.38-5.59-2.83-58.87 3.3-56.33 5 16.58-.29 38.28 3.07 54.21 6-9.75 9.72-21.23 14.85-32.66 2.86-5.2 2.11-10.83 3.31-16.84 10.83 7-12.31 51.52-17.23 57.55l.63-2.76c-2.93.44-6.45 15.38-1.68 4.86zm-.61 19.09c.71-7.77-11.26-3.19-5 2.57 1.35.78 5.99.78 5-2.57zm6.83-31.69c-.54.34-3.08 2.79-1.76 3.9.9568929-1.0989773 1.5690142-2.4553825 1.76-3.9z" fill="#b0b0b0"/><path d="m30.86 65.38c-.0335447.5373163-.2822934 1.0384187-.69 1.39-.093666-.566242.1892933-1.1281184.7-1.39z" fill="#b0b0b0"/><path d="m31.22 64.65-.36.73c.12-.24.24-.47.35-.71z" fill="#b0b0b0"/><path d="m26.26 46.72c-.72-4.89.23-40.54-1.42-30-3.07 18.05 2.27 60.65 1.42 30z" fill="#dedede"/><path d="m20.34 51.87c-4.15-8.22-8.16-17.61-12.77-26.31-2.57 4.1 7.43 18.44 9.17 23.81 4.08 11.79 9.81 16.05 3.6 2.5z" fill="#dedede"/><path d="m45.8 26.35c-3.24 9-12.81 22.39-13.52 30.13 5.62-8.08 12.82-21.83 13.52-30.13z" fill="#dedede"/><g fill="#000" fill-rule="nonzero"><path d="m21.79 49.48c1.15-9.39-2.69-53.14 6.36-49.23 5.34 15.15 1.91 32.75 3.33 49.28 5.951698-11.0922196 10.8369461-22.7244005 14.59-34.74 1.61-2.66-1.3-7.56 2-9.48 18.09 10.33-17.74 59.83-17.94 71.24 22.15 23.06-29.33 22.44-7 0-5.28-20.55-21.7-38.12-23.01-60.94-.91-2.73 3.45-14.33 6.42-8.61.65 15 8.46 28.76 15.25 42.48zm9.07 15.9.36-.73c8.65-13.81 27.18-48.89 17.23-57.55-1.08 6.11-.65 12.79-4.36 19.35-5.09 9.55-7.24 22.43-14.6 30.12-.82-8 1.88-57.11-3.44-54.18-4.16 13.66-1.13 29.27-2.25 44.13.2 3-.51 5.27.43 8.83.17.57 1.28 3.69-.73 3.14-6.96-15.95-17.5-32.83-18.8-51.44-12.34 13.51 20.3 58.13 20.62 68.8.56 1.57-.46 1.86-2.2 3-14.84 19.26 24.79 15.15 4.69-1.5-.18-3.31 2-6.61 2.36-10.58.4077066-.3515813.6564553-.8526837.69-1.39z"/><path d="m29.56 85.86c1.14 3.6-6 4.46-6.72.16-.91-4.19 7.01-7.11 6.72-.16zm-4.43-1.13c-.19.93.38 2.46 2.47 1.72.333468-1.0781638.1085318-2.2515806-.6-3.13z"/><path d="m31.25 64.69c-.11.24-.23.47-.35.71-.5107067.2618816-.793666.823758-.7 1.39-3.33 8.63-3-1.44 1.68-4.86z"/><path d="m36.39 54.17c-.1909858 1.4446175-.8031071 2.8010227-1.76 3.9-1.05-.55.28-2.92 1.76-3.9z"/></g></g></svg>