<svg height="71" viewBox="0 0 90 71" width="90" xmlns="http://www.w3.org/2000/svg"><g fill="none" transform="translate(-1)"><path d="m25.31.3c-10.1-3.24-11 20.93-13.8 26l11.49 3.18 3.39-12.07c39 .46 64.43 22.68 64.43 22.68-5.45-30.75-65.51-39.79-65.51-39.79z" fill="#32313f"/><path d="m90.82 40.09c-19.27-24.9-62.62-29.09-62.62-29.09l-1.81 6.46c38.99.41 64.43 22.63 64.43 22.63z" fill="#565668"/><path d="m13.202212 16.544569h11.12v11.94h-11.12z" fill="#272733" transform="matrix(.27026439 -.96278615 .96278615 .27026439 -7.985261 34.493681)"/><path d="m22.12 25.5c-4.61-1-9.47-3.86-10.25-.54-.59 2.13-4.1 14.61-6.95 24.77-2.46 9.02-3.41 11.61-3.92 14.19-.52 4.71 5.1 8.12 9.39 5.4 3.9-3.84 1.76-3.25 3.52-7.56 2.66-12.83 12.2-35.1 8.21-36.26z" fill="#8a5e3c"/><path d="m22.12 25.5c-2.21-.06-8.86-4.1-10.16-.85 0 0-4.82 17.18-4.85 17.27l11.49 3.23c-.15-2.26 7.31-18.83 3.52-19.65z" fill="#f0e6d0"/><g fill="#c1b49a"><path d="m22.89 29.89.31-1.13c-3.2393553-1.3967464-6.2684408-3.2377573-9-5.47-.5239926-.0940192-1.0638469.0247487-1.5.33 3.0600575 2.5932699 6.4958109 4.7073203 10.19 6.27z"/><path d="m21.47 35c-3.9437386-1.0439481-7.6690316-2.784676-11-5.14l-.3 1.14c3.3625021 2.2678558 7.0803813 3.9578009 11 5z"/><path d="m11 28.15-.32 1.12c3.8183168 1.2713236 7.8156048 1.9229086 11.84 1.93l.33-1.2c-4.024325.0318932-8.0268976-.592981-11.85-1.85z"/><path d="m19 43.61c-3.9399413-1.1660523-7.6103627-3.0998206-10.8-5.69l-.36 1.26c3.2284726 2.521013 6.9072617 4.4045259 10.84 5.55z"/><path d="m20.62 38 .38-1.37c-4.0530795.8859905-8.2696301.668429-12.21-.63l-.31 1.12c3.9083832 1.3090283 8.0836902 1.6116865 12.14.88z"/></g><path d="m13.14 49.92c-1.57 3.64-6.14-1.79-1.24-2.21.8868394.3474239 1.4056332 1.2720485 1.24 2.21z" fill="#594a42"/><path d="m9.58 62.59c-1.58 3.65-6.16-1.79-1.24-2.2.88260024.3466548 1.40046008 1.2654384 1.24 2.2z" fill="#594a42"/><path d="m22.12 25.5-.68-.19s-5.84 20.79-8.83 31.43c-1.38 5.13-2.74 13.83-11.54 8.52.43 4.48 7.63 7.11 10.76 2.74 2-3.27 2.08-7.1 5.41-17.95 2.95-13.41 8.4-22.7 4.88-24.55z" fill="#8a5e3c" opacity=".5"/><path d="m14.2 27c-1.72-3.55-3.11 5.7-5.42 13.13-2.7 11.4-8 23.15-4.45 22.13 1.14-1.1 8.76-30.93 9.87-35.26z" fill="#fff" opacity=".5"/><path d="m30.34 3.36c-6.89-2.82-11.34-1.27-12.92 7.92 0 0 2.5-9.89 12.92-7.92z" fill="#fff" opacity=".5"/></g></svg>