<svg height="160" viewBox="0 0 126 160" width="126" xmlns="http://www.w3.org/2000/svg"><g fill="none"><path d="m7.13371963 104.300592c3.16530837 10.804733 29.04123367 4.385799 29.04123367 4.385799s1.8558504-14.6153851 1.9924486-16.1917164c-22.1029907-2.1017752-33.48067293 3.4532544-31.03368227 11.8059174z" fill="#474b4f"/><path d="m5.72299065 136.804734c1.13753271-8.669823 9.20624295-14.532545 24.58766355-14.589349 0-.063906-.0235514-.130178-.0353271-.189349-.4215701-2.55858 5.4568598-28.1964502 5.4568598-28.1964502l27.1900935-.3786982s5.3414579 17.8461534 5.0753271 26.4426034c11.0149906.906509 22.7954018 2.447337 30.6992523 9.159763.4710281.4-.4309906 4.511243-.9020187 6.542012 10.8783929 9.602367 17.7742429 19.959764 17.7742429 19.959764h-23.6526728s-3.2830654-5.166864-10.1435888-10.752663c-15.2919252-14.594083-40.1268785-11.484024-40.1268785-11.484024-11.4035888-.144379-14.8161869 3.727811-15.2024299 9.181065-.471028 6.511243 3.4149533 13.588166 3.4149533 13.588166h-19.6465794s-1.85114024-6.560947-1.3565608-13.905325c-1.22231775-1.848521-3.22654205-4.667456-3.13233645-5.377515z" fill="#1f1e21"/><path d="m26.443514 142.497041h-17.60702802c-.42157009 7.216568 1.37540192 13.588166 1.37540192 13.588166h19.6465794s-3.7540935-7.133728-3.4149533-13.588166z" fill="#474b4f"/><path d="m26.5542056 150.48284.7607103-1.076923c-.0612337-.236686-.1201122-.452071-.1766355-.684024l-.9279253 1.311243-4.0037383-5.230769 1.6274019-2.305326h-.654729l-1.3118131 1.855622-1.4130841-1.855622h-.6877009l1.7734205 2.319527-3.1700186 4.501775-4.1191402-4.908876 1.3518504-1.912426h-.6617944l-1.0456822 1.484024-1.243514-1.484024h-.7065421l1.6321122 1.947929-2.939215 4.139645-1.83229904-2.175148c0 .307693.02826168.608284.0471028.906509l1.45783174 1.730178-1.12575697 1.611834c.0353271.267456.0706542.530178.10833645.781065l1.38953272-1.966864 4.1238505 4.889941-1.2199627 1.723077h.6617944l.9185047-1.297041 1.0833645 1.297041h.706542l-1.4743177-1.76568 2.9085981-4.118344 4.1709533 4.991716-.6288224.892308h.6594392l.3297196-.473373.3885982.473373h.706542l-.7748411-.925444 2.9768972-4.210651 3.1299813 4.094675c-.235514-.511243-.5275514-1.183432-.840785-1.997633zm-11.4318505 3.415385-4.1238504-4.887574 2.9250841-4.137278 4.1097196 4.906509zm7.7719627.833136-4.1709533-4.970414 3.1653084-4.48284 4.0037383 5.233136z" fill="#1f1e21"/><path d="m97.9173084 135.704142-16.1091589 9.121894c6.8299066 5.576331 10.1082617 10.726627 10.1082617 10.726627h23.6526728s-6.844037-10.27929-17.6517756-19.848521z" fill="#474b4f"/><g fill="#1f1e21"><path d="m110.112224 149.772781.386243-.918343-.390953-.473373-.49929 1.183432-5.416822-2.189349 1.648598-3.898225-.407439-.43787-1.738094 4.132545-5.6758876-2.293491 2.2868416-5.443787 2.708411 1.074556c-.343851-.348718-.693196-.697436-1.048038-1.046154l-1.43428-.568047.235514-.584616c-.138953-.134911-.280262-.267455-.42157-.4l-.32972.783432-4.3311025-1.715976v-.026036l-.7654205.435503-2.2091215 5.342012-3.6857944-1.481657.2826168-.660355-.7795514.440237v.016568h-.0117757l-.6688598.364497.4357009.175148-2.1902804 5.147929-3.8765607-1.564497c.4851589.402367.9514766.801578 1.3989533 1.197633l2.2491588.906509-.3556261.83787.4168598.4071.4427663-1.039053 3.7682243 1.519527-1.1445981 2.771597c.134243.156213.2708411.312426.3956636.473373l1.2529345-3.031953 4.2392524 1.715977-1.9524112 4.636686h.5911401l1.8652711-4.442603 5.6782434 2.293491-.904374 2.130177h.593495l.814879-1.938461 4.79271 1.938461h1.568523l-.207252-.08284 2.169084-5.157396 2.621271 1.057988c-.227664-.295069-.468673-.602762-.723028-.923077zm-14.6560371-12.236686 4.3263925 1.713609-2.2797757 5.427219-4.284-1.718343zm-5.1035888 10.918343-3.7564486-1.51716 2.1926355-5.150296 3.7046356 1.498225zm4.7503178 1.919526-4.2392523-1.715976 2.1384672-5.169231 4.2651589 1.730178zm6.1798881 2.497042-5.6758881-2.295858 2.1714392-5.152663 5.6758879 2.293491zm5.927888 2.395266-5.416823-2.191716 2.164374-5.145562 5.416822 2.189349z"/><path d="m29.399215 154.665089s-20.97723369-4.48284-24.15667294-2.603551c-3.17943926 1.87929-5.24254206 7.817752-5.24254206 7.817752h31.0878505c0-3.727811-1.6886355-5.214201-1.6886355-5.214201z"/><path d="m119.876636 152.021302c-3.648113-1.893491-28.1863182 2.60355-28.1863182 2.60355l-.5463926 5.254438h34.7618688s-2.371626-5.96213-6.029158-7.857988z"/><path d="m14.1661682 97.7822485c-2.284486 2.8094675-2.0819439 8.7692305-.2708411 12.0402365 2.0442617.693491 8.5303178.833136 8.5303178.833136l2.6189158-13.3491121c-4.0343551-.3384616-8.0027663-.175148-10.8783925.4757396z"/></g><path d="m49.1470654 104.471006 10.6640748-10.5846155-21.0196262.6201184z" fill="#3c3f42"/><path d="m36.8814953 94.4 11.2646355 11.346746 2.7390281-1.839054-9.6395888-9.0982245z" fill="#b10d28"/><path d="m31.0949159 121.183432 4.4677009.511243 27.0958879-27.6000004-4.8704299 1.2260355z" fill="#b10d28"/><path d="m63.5722991 93.5430524c-2.9580561-.0471944 7.6094579 11.6829836-5.609944 14.2983676-4.6137196.91361-16.9263925.340829-28.4971962-1.450887l-.8148785 12.757396c19.5123364 1.105325 36.5776822.975148 41.3939439-2.814201 9.072-7.143195-3.864785-22.750296-6.4719252-22.7906756z" fill="#474b4f"/><path d="m118.44471 63.9573964s-24.6536072 3.4982249-33.6596633-2.1585798l-.706542 3.112426c9.7832523 10.0497041 35.1127853 11.5810651 35.1127853 11.5810651-6.467215-5.1810651-.74658-12.5349113-.74658-12.5349113z" fill="#b10d28"/><path d="m86.1439626 63.8319527-2.9392149 1.4934911c.3085233 13.8840237 17.7106543 25.9100592 17.7106543 25.9100592.59114-7.2686391 9.776187-8.3005918 9.776187-8.3005918s-19.6277385-6.12071-24.5476264-19.1029585z" fill="#b10d28"/><path d="m49.3448972 20.1372781c-20.5886355.2011834-37.1688224 11.7467456-36.8791402 41.4982249.2755514 28.9230769 17.034729 35.6426035 37.6210094 35.4508875 20.5862803-.1917159 37.2112149-7.2591716 36.9333084-36.1798816-.2873271-29.7538462-17.0865421-40.9704142-37.6751776-40.7692308z" fill="#1f1e21"/><path d="m50.0797009 58.1822485c-32.0016448.3147929-32.4161495 4.6911243-32.357271 10.0899408.0588785 5.3988166.5440374 9.7680474 32.5456822 9.4556214 33.4053085-.3289941 32.4090842-4.695858 32.3596262-10.0923077-.0494579-5.3964497.857271-9.7798817-32.5480374-9.4532545z" fill="#f9b5ab"/><path d="m50.0797009 58.1822485c-26.8862803.2603551-31.4740934 3.3988166-32.2183177 7.5928994l64.6697944-.6343195c-.5440374-4.1846154-4.3852711-7.2331361-32.4514767-6.9585799z" fill="#d68c81"/><path d="m31.768486 63.3940828c-2.5889869.0183397-4.9116556 1.6033136-5.8836172 4.0149416-.9719615 2.4116281-.4015125 5.1742565 1.4450204 6.9980913s4.6049515 2.3491547 6.9874273 1.3307025c2.3824758-1.0184521 3.9191048-3.3798035 3.8924779-5.9816052-.0310825-3.5442062-2.9146486-6.3923268-6.4413084-6.3621302z" fill="#fff"/><path d="m31.7802617 64.5704142c-2.113135.0153893-4.0088883 1.3087572-4.80299 3.2768151-.7941017 1.9680578-.330105 4.2230763 1.17556 5.7132071s3.7563654 1.9218014 5.702267 1.0936601 3.2036401-2.7529414 3.1865462-4.8765817c-.010578-1.3916932-.5708533-2.7221587-1.5575629-3.6986883-.9867096-.9765295-2.3190211-1.5191247-3.7038203-1.5084123z" fill="#231f20"/><path d="m31.768486 63.3940828c-2.3494413.0232418-4.4958894 1.3428033-5.5863925 3.4343196l12.0253458 2.904142c-.042686-3.5345483-2.9217823-6.368711-6.4389533-6.3384616z" fill="#a46b63"/><path d="m67.2157009 63.0461538c-2.5887747.0183286-4.9113037 1.603039-5.8834131 4.0143768-.9721095 2.4113378-.4020998 5.173788 1.4439443 6.9978183 1.8460441 1.8240304 4.6040834 2.3499428 6.9866446 1.3322374 2.3825613-1.0177053 3.9198043-3.3783373 3.8941326-5.9799354-.0143055-1.7024267-.700993-3.3294082-1.908986-4.5229961s-2.8383293-1.8560002-4.5323224-1.841501z" fill="#fff"/><path d="m67.2251215 64.2224852c-2.1129119.0163451-4.0079367 1.3103126-4.8012968 3.2784384s-.3287882 4.2227502 1.1770546 5.7123902c1.5058428 1.4896399 3.7563522 1.9208826 5.7019642 1.0926105 1.945612-.8282722 3.2031014-2.7529152 3.1860163-4.8763385-.0233209-2.8984402-2.379646-5.2294114-5.2637383-5.2071006z" fill="#231f20"/><path d="m67.2157009 63.0461538c-3.5183296.0377235-6.3436918 2.9279487-6.3188411 6.4639054l11.9688224-3.1384616c-1.1302098-2.0695972-3.3009796-3.3472604-5.6499813-3.3254438z" fill="#a46b63"/><path d="m38.7985794 67.6023669c-4.1568224-6.9372781-14.448785-5.9952663-14.5524112-5.983432l-.235514-2.4236686c.4851589-.052071 11.9217196-1.1195267 16.8745794 7.1502958z" fill="#1f1e21"/><path d="m59.9265421 67.3964497-2.1007851-1.216568c4.7927103-8.3644971 16.2504673-7.5218935 16.7214953-7.4840237l-.1978317 2.4284024.0989158-1.2142012-.0965607 1.2142012c-.0942056-.0071006-10.4050093-.7431953-14.4252336 6.2721893z" fill="#1f1e21"/><path d="m49.627514 49.616568c-23.7468785.2366864-38.3770093 5.3112427-38.3770093 5.3112427l.2731962 11.1526627s14.2438879-4.3455622 38.219215-4.5798817 38.388785 3.8295858 38.388785 3.8295858l.0588785-11.1550296s-14.8138317-4.7905325-38.5630654-4.5585799z" fill="#d82035"/><path d="m29.4580935 106.390533-.8148785 12.757396c5.5651962.314793 10.9302056.530178 15.8712897.586982 1.2788411-3.853254 1.1917009-8.149112-.4309907-11.734911-4.5666168-.307692-9.6631402-.840237-14.6254205-1.609467z" fill="#1f1e21"/><path d="m26.4152523 95.7278107c-3.6834392 0-6.6674018 1.9313609-6.6674018 6.7857983 0 4.854438 2.9839626 6.788166 6.6674018 6.788166 3.6834393 0 6.669757-1.928994 6.669757-6.788166 0-4.8591711-2.9863177-6.7857983-6.669757-6.7857983z" fill="#eba297"/><path d="m24.041271 101.590533.032972.598816c.0471028 0 4.637271-.284024 8.836486-1.727811-.0423926-.201183-.0894954-.395266-.1460187-.5822481-4.1309159 1.4224851-8.6763365 1.7088761-8.7234393 1.7112431z" fill="#cc857b"/><path d="m24.8561495 105.410651c2.7613404-.209822 5.4928217-.712822 8.1487851-1.500592.0306168-.210651.0612336-.426035.0777196-.650887-2.6885506.82256-5.4593047 1.344067-8.2618318 1.555029z" fill="#cc857b"/><path d="m27.3196262 105.56213c-3.6975701.55858-6.5731963 1.881657-5.6358505 8.215385s4.0673271 6.750296 7.7719626 6.191716 6.5708411-1.893491 5.6311402-8.213018-4.0720374-6.75503-7.7672523-6.194083z" fill="#f9b5ab"/><path d="m21.7662056 109.394083c-.0678394.241813-.1205407.487659-.1577944.736095.4710281-.224853 2.6236262-1.157397 6.7380561-1.533728l-.0541682-.605917c-3.5091589.319526-5.609944 1.024852-6.5260935 1.40355z" fill="#d68c81"/><path d="m21.5919252 113.053254c.0211963.198817.0400374.395267.0706542.605918.9420561-.144379 4.8021309-.691125 7.4493085-.570415l.0282616-.608284c-2.7272523-.113609-6.5496448.418935-7.5482243.572781z" fill="#d68c81"/><path d="m22.3738318 116.579882c.0824299.217751.1695701.426035.2590654.620118.4074392.014201 1.0032897.026036 1.7663551.026036 1.208187 0 2.8261683-.033137 4.7102804-.153847l-.0376822-.605917c-3.4008225.220119-5.8666542.149113-6.6980187.11361z" fill="#d68c81"/><path d="m25.419028 93.2544379c-5.6523364.8828402-7.5128972 2.6863905-7.2349906 4.4970414.2779065 1.8106509 2.5906542 2.9751477 8.2429906 2.0946745 5.6523365-.8804733 7.5152524-2.6840236 7.2373458-4.4970414-.2779065-1.8130177-2.5906542-2.9822485-8.2453458-2.0946745z" fill="#cf8158"/><path d="m5.86429907 10.7408284c.76306542 4.1798817 14.06960743 68.1656805 17.31734583 85.2071006l5.9325981-.8-16.4247477-95.147929s-6.22463549 3.99289941-6.82519623 10.7408284z" fill="#a9a5a4"/><path d="m5.86429907 10.7408284c0 .0331361.01413084.0781065.02119626.1136095l4.38056077 3.895858 2.4658318-14.51360951-.0423926-.23668639s-6.22463549 3.99289941-6.82519623 10.7408284z" fill="#d7cfcd"/><path d="m5.88785047 10.8544379c.91614953 4.9443787 14.07196263 68.1656804 17.29614953 85.1005917l2.8968224-.4023669-15.8642243-81.0153846z" fill="#c5bfbd"/><path d="m30.3365607 120.530178c-.0447476.392899-.0706542.728994-.0777196.991715 4.9920686.721043 10.0295444 1.077795 15.0728972 1.067456 6.7168598 0 14.7855701-.639053 22.6705795-2.823669 0-.328994 0-.672189 0-1.024852-16.4035514 4.617752-33.716187 2.395267-37.6657571 1.78935z" fill="#b10d28"/><path d="m14.4770467 134.674556c-.6194018-3.40355 2.8709159-5.725444 2.8709159-5.725444s-5.2142804.418935-2.8709159 5.725444z" fill="#52575b"/><path d="m81.7634019 129.578698s4.7102803-.8071 7.1808224 1.786982c-2.0112897-5.020118-7.1808224-1.786982-7.1808224-1.786982z" fill="#52575b"/><path d="m45.9558505 23.3159763s26.3210467 1.7017752 35.6120747 21.9763314c-8.4455327-26.7976331-35.6120747-21.9763314-35.6120747-21.9763314z" fill="#6d6e71"/><path d="m37.4278879 82.5443787s10.2542803 7.2828402 26.3375327.9775148c-13.9235888 2.7171598-26.3375327-.9775148-26.3375327-.9775148z" fill="#6d6e71"/><path d="m43.3345794 87.912426s6.5378692 5.1668639 15.2895701 3.3136095c-5.7229906.2769231-15.2895701-3.3136095-15.2895701-3.3136095z" fill="#6d6e71"/><path d="m27.8989907 106.949112.3815327 12.605918s6.4978317-.033137 6.8793645-.101776c1.9712523-7.062721-.8643365-11.015384-.8643365-11.015384z" fill="#474b4f"/></g></svg>