<svg height="232" viewBox="0 0 191 232" width="191" xmlns="http://www.w3.org/2000/svg"><g fill="none" transform="translate(.2)"><path d="m175.232892 221.76c-2.088892 13.308-165.600892 12.984-174.228892 1.068-9.204-14.58 174.696-14.496 174.228892-1.068z" fill="#000" fill-opacity=".1"/><path d="m20.936 126.948c10.104 5.736 3.744 17.04-5.736 13.644-14.316-6.648-3.72-18.612 5.736-13.644z" fill="#f6b796"/><path d="m1.196 121.32c1.884 8.256 14.52 16.38 19.86 7.812.324-5.556-3.6-11.532 1.956-15.6 4.344-4.32 10.536-4.548 15.36-7.764 6.372-6.12-1.632-23.304-4.74-27.6-5.076 4.92-11.268 7.656-18 10.428-11.988 6.072-16.848 19.944-14.436 32.724z" fill="#514f52"/><path d="m21.56 127.98c0 .276.096.528.156.768-4.62-1.356-8.964 4.572-13.356 3.78-14.16-9.3 15.348-20.676 13.2-4.548z" fill="#3f3d40"/><path d="m9.572 125.64c1.284-.42 8.58-.912 7.812-2.976-1.308.696-7.896.72-7.812 2.976z" fill="#514f52"/><path d="m18.296 114.924c4.428-2.124 7.716-6.696 13.488-8.124 1.86-.792 7.488-1.272 4.26-3.756-4.752-.768-23.508 8.316-17.748 11.88z" fill="#6d696e"/><path d="m132.836 84.984c3.84-2.1 9.996.6 14.508 0 2.82-.288 5.496-2.244 8.616.312.348 2.52-9.18 3.204-11.856 5.652 16.284 11.808-24.48 4.512-11.268-5.964z" fill="#f6b796"/><path d="m80.156 81.432c15.6-2.4 30.132 2.7 46.044 1.68 8.4-1.2 16.392 6.216 12.54 13.56-2.832 3.192-12.348 4.476-18.66 5.448-40.332 11.676-49.488-15.516-39.924-20.688z" fill="#514f52"/><path d="m90.116 103.74c-1.752-3.408.6-9.132.324-13.2 1.968 8.004 14.556 8.196 19.2 13.848-6.168 3.492-15.648-1.38-19.524-.648z" fill="#3f3d40"/><path d="m138.776 95.856c3.048-6.756-4.956-17.028-13.128-12.636 2.508 6.3 5.64 10.536 2.592 17.592 4.056-.696 8.76-1.812 10.536-4.956z" fill="#3f3d40"/><path d="m131.204 93.912c1.308-3.876-2.4-8.976-3.732-11.676 3.456.888 7.476 9.9 3.732 11.676z" fill="#514f52"/><path d="m134.156 87.96c-.708-1.2-1.2-7.464.516-1.38.427652 1.4892125.736619 3.0099726.924 4.548-.816.312-.996-1.5-1.44-3.168z" fill="#514f52"/><path d="m91.508 82.716c9.744.216 37.116-.564 34.896 3.6-4.596 1.92-43.14.816-34.896-3.6z" fill="#6d696e"/><path d="m113 185.892c8.94 2.076 12.336 3.852 19.704 9.396 14.124 5.52 20.58 0 10.212-10.8-5.748-3.348-18.18-5.94-19.284-13.2z" fill="#3f3d40"/><path d="m39.86 191.616c2.688 4.272 10.8 3.984 15.156 7.008 1.728 1.284 5.58 6.528 8.052 6.552 2.952-12.696-8.676-21.156-20.196-24 .1878668.571934.471943 1.107621.84 1.584-1.62 2.76-5.004 6.144-3.852 8.856z" fill="#3f3d40"/><path d="m48.788 169.068c11.148 5.484 99.6 35.196 77.868 4.656-9.396-15.408-24.888-20.016-41.832-24.924-15.768-6-31.488 4.224-39.072 18.072.9449793.820453 1.9609721 1.555341 3.036 2.196z" fill="#514f52"/><path d="m31.4 142.008c-76.332 38.4 10.164 57.6 19.2 52.032 11.4-15.348-11.748-10.176-8.868-20.64 44.724-33.264 14.556-39.936-10.332-31.392z" fill="#514f52"/><path d="m90.512 112.68c-.612 9.744 3.228 28.344-10.332 28.716-17.004 1.896-52.8 4.308-53.472-8.652-.624-19.584-7.2-43.536 5.772-55.032 13.416-11.628 41.652-8.52 53.532 3.432 7.104 8.196 5.388 20.304 4.5 31.536z" fill="#514f52"/><path d="m50.072 124.128c9.7081263-14.763978 17.4872896-30.709448 23.148-47.4485176h9.432c.168-.0834824-2.856 10.0805176-3.444 12.3725176-5.22 17.616-16.032 36-26.28 52.344-1.56 1.872-13.416-.264-13.044-3.6 2.916-4.464 7.116-8.052 10.188-13.668z" fill="#3f3d40"/><path d="m60.02 118.032c-10.38-6-22.8-30.468-21.504-38.34 3.2309229-.039629 6.4437082.4883889 9.492 1.56.876 11.256 7.488 24.276 16.872 31.272-.564 2.004-3.168 5.208-4.86 5.508z" fill="#3f3d40"/><path d="m25.7 34.404c2.544-9.756-10.536-12.276-15.816-15.984-.096-.252-.084-.264 0 0 .144 13.332 6.996 14.244 15.816 15.984z" fill="#514f52"/><path d="m14.072 22.8c3.6 2.4 6.648 5.376 10.8 8.712.0783081.0344319.139044.0995061.168.18.156.204-.24.9-.924.456-7.2-.348-14.4-6.468-1.368-1.068-1.152-1.74-10.296-6.252-8.676-8.28z" fill="#3f3d40"/><path d="m25.712 34.32c-4.908-8.796-16.092-1.56-22.476-.588-.24-.108-.24-.12 0 0 9.12 9.36 14.964 5.544 22.476.588z" fill="#514f52"/><path d="m9.26 33.972c3.9-.744 8.604-.756 13.788-1.2.0770505-.030722.1629495-.030722.24 0 .252 0 .456.816-.348.96-1.38 1.056-7.356 5.376-8.676 3.168 1.752-.96 4.092-1.2 6.948-2.988-1.956-.408-11.676 2.664-11.952.06z" fill="#3f3d40"/><path d="m77.324 8.124c23.844 18 16.92 59.916-1.728 78.396-28.056 20.904-54.144-11.388-54.636-37.668-5.292-37.548 26.484-62.544 56.364-40.728z" fill="#514f52"/><path d="m30.32 77.448c32.4 38.064 62.772 1.104 62.028-36.072-11.748 21.696-37.068 35.424-62.028 36.072z" fill="#3f3d40"/><path d="m29 34.8c-4.404-12.432 7.812-33.18 20.28-29.016 1.332 24 14.4 24.336 30.18 29.76-12.54 4.668-45.288 11.364-50.46-.744z" fill="#6d696e"/><path d="m91.676 46.86c-.156-4.2 1.848-11.664-3.324-13.956-18.66-4.8-38.592-3.288-57.432-.672-4.128 24.168 9.756 27.768 28.728 27.876 12.684.684 28.524 1.644 32.028-13.248z" fill="#f6b796"/><path d="m26.72 42.48c9.6 7.776 22.332 5.088 34.38 6 8.52-.36 25.38 4.188 27.096-6.636z" fill="#de956f"/><path d="m19.76 40.716c17.376 3.6 36.504 3.096 54.792 3.264 23.484.396 22.104 1.092 16.128-18.384-5.376 3.36-13.704 1.2-20.328 1.812-16.92-.168-31.296 2.232-48.072-1.2-.156 1.26-3.36 13.572-2.52 14.508z" fill="#3f3d40"/><path d="m19.76 42.708c17.376 3.6 36.504 3.096 54.792 3.264 23.484.396 22.104 1.104 16.128-18.384-5.376 3.372-13.68 1.212-20.328 1.812-16.92-.168-31.296 2.244-48.072-1.2-.156 1.26-3.36 13.572-2.52 14.508z" fill="#514f52"/><path d="m94.184 40.968c-.5844424-4.588886-1.76229-9.0824552-3.504-13.368-3.9 2.88-11.784 1.512-16.8 1.764-12.204 8.076-27.168 12.168-41.94 15.252 13.596.348 68.292 5.688 62.244-3.648z" fill="#3f3d40"/><path d="m69.38 33.936c-6.78-.732-55.464-2.304-42.66-.096 13.92-.444 31.692 3.36 42.66.096z" fill="#6d696e"/><path d="m51.056 37.884c-8.196.828-18.24-.144-27.012-.696 6.156 2.568 22.26 3.72 27.012.696z" fill="#6d696e"/><path d="m62.768 41.64c-12.4744659.4412167-24.964483-.0400942-37.368-1.44 7.128 3.516 29.868 4.764 37.368 1.44z" fill="#6d696e"/><path d="m67.22 64.68c-11.82 2.52-29.82-1.968-38.88-.588 10.02 3.108 41.904 4.308 38.88.588z" fill="#6d696e"/><path d="m65.612 70.104c-6 1.668-13.584 1.2-20.196.336 2.844 3.024 20.844 2.832 20.196-.336z" fill="#6d696e"/><path d="m62.264 78.456c-4.896-.552-11.724-.576-17.196-.648 1.008 1.392 16.2 2.436 17.196.648z" fill="#6d696e"/><path d="m25.028 144.48c-.5077652-3.94303-.164037-7.9491 1.008-11.748 21 1.968 47.82 2.82 64.8.408 0 4.992 1.764 18-4.452 18.708-16.944 1.752-61.5837124 4.38-61.356-7.368z" fill="#3f3d40"/><path d="m44.276 112.092c-6.252 0-12.588-3.096-17.808-6.456 1.74 4.068 15.36 9.312 17.808 6.456z" fill="#6d696e"/><path d="m79.58 137.04c-16.452 2.58-37.932-.384-52.464-1.2 15.984 3.216 38.448 6.336 52.464 1.2z" fill="#514f52"/><path d="m73.016 143.46c-14.4 1.632-33.864-1.8-46.284-2.808 13.896 3.108 34.044 7.116 46.284 2.808z" fill="#514f52"/><path d="m38.66 146.736c-3.744.492-8.4-.276-13.008-.936 1.608 2.124 11.664 3.408 13.008.936z" fill="#514f52"/><path d="m39.704 103.272c-3.7510884-.415455-7.3604167-1.670517-10.56-3.672-1.668 1.44 10.26 6.252 10.56 3.672z" fill="#6d696e"/><path d="m64.58 101.472c-6.0223257 9.118779-11.5541774 18.552168-16.572 28.26 5.292-6.996 13.476-19.86 16.572-28.26z" fill="#514f52"/><path d="m62.84 111.876c-1.62 3.492-8.4 10.8-8.1 13.86 1.524-3.516 8.592-10.86 8.1-13.86z" fill="#514f52"/><path d="m52.304 101.472c-2.148-4.632-6.48-10.308-9.6-14.892-.36 2.22 6.816 13.644 9.6 14.892z" fill="#514f52"/><g fill="#3f3d40"><path d="m78.872 171.84c-5.88-1.128-12.696-1.092-19.728-1.608.6-18.276-4.248-18.744-.336 0-.528 0-1.044 0-1.56 0-.936-3.804-5.04-7.704-4.164-13.296-.48-1.44 1.896-5.076-.312-5.112-2.532 5.088-.96 15 4.152 18.42 3.636 1.752 17.364 2.988 21.948 1.596z"/><path d="m88.112 166.5c-8.736-.096-18.312 1.98-27.6 2.76 5.016 1.26 21.444-.564 27.6-2.76z"/><path d="m54.464 168.9c-3.936-.384-19.56-5.508-19.2-2.292 4.788.912 15.912 4.26 19.2 2.292z"/><path d="m35.708 175.32c-6.972 1.452-14.604 4.56-22.248 6.852 3.036 1.32 18.084-4.224 22.248-6.852z"/><path d="m109.676 158.4c6.18 6.792 5.028 10.428.828 17.196 6.216-3.444 5.76-13.68-.828-17.196z"/><path d="m119.684 169.872c-.276.936-3.204 3.888-2.688 5.388.192-.696 4.572-4.86 2.688-5.388z"/><path d="m11.636 176.628c-4.512 1.44-8.4-.648-11.124-4.476-1.908 4.092 10.86 9.048 11.124 4.476z"/></g><path d="m22.724 150.12c-18.216-2.616-27.816 42-10.008 9.336 1.692-3.672 13.572-4.5 10.008-9.336z" fill="#6d696e"/><path d="m116.972 162.9c-3.72-5.22-33.924-14.184-30.96-8.184 11.952 1.74 33.552 13.644 30.96 8.184z" fill="#6d696e"/><path d="m47.324 49.56c-2.952.66-2.136 6.456 2.148 4.356 1.968-1.536.876-4.56-2.148-4.356z" fill="#514f52"/><path d="m76.568 50.4c-3.288 0-3.3 5.112 0 5.112s3.3-5.112 0-5.112z" fill="#514f52"/><path d="m52.376 48.276c-.132-.576-13.056-3.012-7.416-.3 1.8-.096 6.84 2.748 7.416.3z" fill="#514f52"/><path d="m80.396 47.688c-1.2.612-8.832-.06-8.136 2.4 1.14-.372 10.032.312 8.136-2.4z" fill="#514f52"/><path d="m177.98 92.82c-1.284.504-4.572.192-5.112-2.04-1.320211-.7659631-2.531119-1.7064351-3.6-2.796l-6.396 2.508 8.724 3.432 4.8 6.264 4.8-6.264 1.596-.636c-1.617578.0555352-3.235438-.1018128-4.812-.468z" fill="#91a0ad"/><path d="m172.868 90.78c-.24-5.04 11.7-2.016 5.112 2.04 1.572665.3651407 3.186422.5224819 4.8.468l7.128-2.796-8.724-3.42-4.8-6.264-4.8 6.264-2.328.912c1.072576 1.0904272 2.287566 2.0309348 3.612 2.796z" fill="#a5b7c6"/><path d="m176.408 87.276c-6 .12-6 7.404 1.428 6.336 4.356-.984 4.044-6.012-1.428-6.336zm0 5.808c-4.452.084-4.896-6.084 1.392-4.92 3.048.936 2.964 4.5-1.392 4.92z" fill="#d5ecff"/></g></svg>