<svg height="67" viewBox="0 0 63 67" width="63" xmlns="http://www.w3.org/2000/svg"><g fill="none"><path d="m37.59 24-2.59.41c-3.86-5.8-7.76-12-12.14-18.23.37 7.51 1.45 16.09 2 24.26-6.2 3.92-13 8-19.53 12.36 7.6461033-.6886447 15.3281433-.8923858 23-.61 4.84 5.6 9.41 11.59 14.49 17.67-.33-6.6-1.65-14.36-2.15-21.69l-.06-2.38c5.32-5.23 11-10.46 16.78-16-5.79 1.21-13.22 3.07-19.8 4.21zm-5.16 13c-6.26.17-5-7.67.26-9 6.69-2.87 6.1 8.71-.26 9z" fill="#c4c5c6"/><g fill="#000"><path d="m60 17.38c-6.9 1.79-15.79 3.28-23.48 4.94-5.26-7.02-10.52-14.92-16-22.32.65 9.66 1.77 19.67 2.48 29.8-8.1428939 4.197577-15.84757071 9.1955673-23 14.92 8.86-.36 18.87-.27 28-.67 5.52 7.13 11.76 14.95 17.6 22.36-1.12-9.67-1.82-19.83-3-30 6.32-6.18 13.43-13.08 20-19.7zm-10 9.44c-2.63 2.53-6.48 6-9.4 9l.06 2.38c.45 7.09 1.75 14.23 2.15 21.69-4.4-5.25-9.63-12-14.49-17.67-7.6718253-.2882667-15.3542397-.0845157-23 .61 5.94-4 12.9-8.19 19.53-12.36-.53-7.82-1.59-15.89-2-24.26 3.93 5.6 8 12 12.14 18.23 7.36-1.07 14.67-3.05 22.37-4.65-2.43 2.31-4.87 4.68-7.36 7.03z"/><path d="m36.08 28.07c-.59-.46-2.24-1.18-3.39-.14-15.44 9.99 11.44 12.68 3.39.14zm-.25 4.17c-3.89 7-10.17-.26-2.21-3.29.7763744.0457632 1.4867775.4516509 1.9204416 1.0972414.4336641.6455904.5407765 1.456728.2895584 2.1927586z"/></g></g></svg>