<svg height="329" viewBox="0 0 33 329" width="33" xmlns="http://www.w3.org/2000/svg"><g fill="none"><path d="m10.83 248.16s-.83-169.5-10.83-248.16c0 0 16.08 11.46 18.25 25.13s10.3 200.07 6.12 224c0-.05-8.61 2.87-13.54-.97z" fill="#eef1f3"/><path d="m9.62 8.89s14.19 200.38 8.71 241.25c-2.655938.219335-5.3059302-.487329-7.5-2 0 0-.83-169.48-10.83-248.14 3.50372487 2.62477926 6.72744143 5.60386868 9.62 8.89z" fill="#fff"/><path d="m25.05 251.14s-10.19 1.65-16.35.59c0 0-3 56.18-6.61 70.46 0 0 5.71 11.75 16.17 3.12 0 0 6.3-38.21 6.79-74.17z" fill="#5c3a0d"/><path d="m25.05 251.14c0 1.44-.05 2.85-.09 4.25-11.86-4.39-14.29 4.35-16.84 28.31-2.73 27.84-1.51 53.06 11.12 35.46-.58 3.94-1 6.15-1 6.15-10.46 8.63-16.17-3.12-16.17-3.12 3.65-14.28 6.61-70.46 6.61-70.46 6.18 1.06 16.37-.59 16.37-.59z" fill="#5c3a0d" opacity=".4"/><g fill="#95601d"><path d="m16.44 265.12 4.5-2.65-4.13-3.52-4.52 2.97z"/><path d="m15.87 274.72 4.5-2.65-4.13-3.54-4.52 2.98z"/><path d="m15.31 284.31 4.49-2.65-4.13-3.53-4.51 2.97z"/><path d="m14.74 293.9 4.51-2.65-4.14-3.53-4.51 2.97z"/></g><path d="m31.66 251.44c5.05-6.49-6.44-2.7-14.21-3.06-5.6 1.18-16.3-5.38-14.09 1.62 9.37 5.31 27.32 1.41 28.3 1.44z" fill="#503109"/></g></svg>