<svg height="210" viewBox="0 0 155 210" width="155" xmlns="http://www.w3.org/2000/svg"><g fill="none"><path d="m139.37 198.92c-2.49 14.08-132.79 13.65-139.23.94-5.24-15.2 139.03-14.97 139.23-.94z" fill="#000" fill-opacity=".15"/><path d="m91.27 131.74c16.24-16 28.26 8.73 28.72 16.77h6c4.9-30.95-15.69-43.93-39.85-30.89z" fill="#000"/><path d="m127.96 148.51h-10.95v8.96h4.98v3.99l5.97.99 1-3.98 7.97-4.98-4.98-4.98z" fill="#ffaf78"/><path d="m129.79 151.82c1.18-1-1.22 10.06-1.85 10.4-.77-.58 1.43-9.44 1.85-10.4z" fill="#e77736"/><path d="m46.11 131.74c-16.24-16-28.27 8.73-28.73 16.77h-6c-4.9-30.95 15.69-43.93 39.85-30.89z" fill="#000"/><path d="m9.41 148.51h10.96v8.96h-4.98v3.99l-5.98.99-.99-3.98-7.97-4.98 4.98-4.98z" fill="#ffaf78"/><path d="m7.58 151.82c-1.18-1 1.23 10.06 1.85 10.4.78-.58-1.43-9.44-1.85-10.4z" fill="#e77736"/><path d="m106.99 144.72 5.53 7.27-15.28 8.21-.66-6.21z" fill="#f15a24"/><path d="m154.83 37.83-135.81 149.76-5.67-5.61 135.81-149.75z" fill="#4e524d"/><path d="m19.02 187.59 135.81-149.76-2.03-2.01-135.32 150.25z" fill="#333533"/><path d="m103.81 30.87s3.93-25.36 28.54-30.87013804c1-.05986196 8.19 19.46013804 8.19 19.46013804s-25.96-.07-36.73 11.41z" fill="#f7931e"/><path d="m104.3 33.5c6.83-3.47 0-6 28.83-4.6 1-.06-.44 9-.44 9s-19.69-6.1-28.39-4.4z" fill="#f15a24"/><path d="m131 69.8c-3.93 75-122.63 73-125.52 0 3.88-75 122.58-73.02 125.52 0z" fill="#232323"/><path d="m131 69.8c-3.93 75-122.63 73-125.52 0 3.88-75 122.58-73.02 125.52 0z" fill="#000"/><path d="m9 51.35c23.91 47.59 97.93 43.63 117-3.44-24-47.59-98-43.63-117 3.44z" fill="#232323"/><path d="m125.29 93c4.948698-9.5907162 6.700693-20.5126507 5-31.17-16 2.65-60.3 10-61.11 10s-45.51-5.2-63.43-7.73c-1.11841914 10.3289202.92131137 20.7542095 5.85 29.9 51.34 9.52 97.94 2.09 113.69-1z" fill="#f7931e"/><path d="m27 71c-9.23 21.65 23.65 31.66 35 15.88z" fill="#000"/><path d="m110.2 70c9.24 21.65-23.64 31.66-35 15.89z" fill="#000"/><path d="m11.7 61.77c-5.49 3.16-3.21 2.26 3.52-1 3.68-1.68 8.52-3.78 13.36-5.72l6.42-2.38 7-2.37c15.8771237-5.0254122 32.2590517-8.2883837 48.85-9.73l6.9-.47c4.55-.21 9.83-.36 14.81-.38 12.07.23 4.58-.73-2.49-.91-29.86-1.61-71.29 7.58-98.37 22.96z" fill="#515151"/><path d="m32.69 27.9c-1.3-.06-2.19 0-1.71.2 15 2.51 51.53 10.7 56.75 11.34-10.02-4.53-45.38-11.11-55.04-11.54z" fill="#515151"/><path d="m50.21 99.23c-3.08-1.49-2.11-.62 1.29 1.62l3 1.8c1.17.64 2.48 1.31 3.89 2 13.05 7 38.08 11 49.12 7.61-17.83 1.25-43.84-4.51-57.3-13.03z" fill="#515151"/><path d="m95.48 36.14c-2.48 5.59-14.88 5.63-28.28 5.8-13.41-.17-25.81-.21-28.29-5.8-.7-21.94 58.91-19.86 56.57 0z" fill="#3a393a"/><path d="m46.11 122.11s-17.27 38.89 1.66 73.72c0 0-11.85 4.19-11 6 2 4 16.94-4 16.94-4s0-24.91 3-30.88 19.93-5 23.91 0 4 30.88 4 30.88 13 6 15.94 5-9-7-9-7 14.28-38.19-2.32-73.39c3.69-.67-43.13-.33-43.13-.33z" fill="#000"/><path d="m97.06 153.32-56.92-9.46c-.8272989 5.172086-1.2386165 10.402174-1.2301326 15.64l58.3901326.79c0-2.29-.08-4.6-.24-6.97z" fill="#f7931e"/><path d="m38.8 160c13.65-.72 44-4.85 57.73-7.4-13.64.69-44 4.82-57.73 7.4z" fill="#c66300"/><path d="m107.65 165.1-12.02-4.9-1.04-7.21 17.7 4.18z" fill="#f7931e"/><path d="m50.41 122.08 46.45 28.84c-.13-1.39-.29-2.79-.49-4.2l-39.73-24.67z" fill="#4e524d"/><g fill="#f7931e"><path d="m126.64 144.42c.09-.83.16-1.76.19-2.78-1.81-.4-4.72-1.07-7.33-1.74 2.21-1.58 5-3.78 6.92-5.36-.06-.4-.13-.8-.2-1.2-2.864581 1.869133-5.591562 3.941104-8.16 6.2l-.89-.21c.29.56.55 1.11.78 1.63l.4-.26c2.695557 1.028836 5.495529 1.759846 8.35 2.18-1.84 1.06-4.84 2.74-6.87 4.07.07.4.11.74.13 1 2.332347-.964778 4.568849-2.146642 6.68-3.53z"/><path d="m10.88 145.66c.06.42.12.79.17 1.12 1.54-.44 4.1-1.21 7-2 .13-.47.29-1 .48-1.52-2.5979879.638134-5.1530747 1.439729-7.65 2.4z"/><path d="m10.53 139.83c2.5975999 1.283405 5.3136764 2.311562 8.11 3.07.1-.29.21-.58.34-.89-2.3480446-1.110468-4.754959-2.091928-7.21-2.94 3.2111525-.393847 6.3965722-.974835 9.54-1.74.26-.43.53-.86.82-1.31-3.23.41-8.67 1.49-11.55 2.18-.03.56-.04 1.1-.05 1.63z"/></g></g></svg>