<svg height="127" viewBox="0 0 124 127" width="124" xmlns="http://www.w3.org/2000/svg"><g fill="none" transform="translate(-1)"><path d="m57.71 75.69c5.4095659 2.339208 9.8951758 6.3994583 12.76 11.55.44.7 1.19 2.58 2 4.28 5.08 10.51 18.61 14 29.77 10l-2.87-10.17c-6.22 3-15.69 2.49-20-4.25l-.52-.82c-.53-.91-1-1.84-2.14-3.44-4.1563255-5.8283044-10.1788116-10.062038-17.07-12z" fill="#f6931e"/><path d="m43.93 109.55c-.54.73-13.94-2.22-23-4.32-18.59 5-4.58 26.06 23 16.16 3.8-1.55 5.97-9.31 0-11.84z" fill="#bd1e2d"/><path d="m43.93 121.39c3.8-1.55 6-9.31 0-11.84-2.7984561-.14895-5.586244-.456108-8.35-.92-1.94 2.32-5 6.43-5.36 9.6-.71 3.65-11.77 2.92-17.42-4-.18 5.03 9.77 14.15 31.13 7.16z" fill="#bd1e2d" opacity=".5"/><path d="m76.35 112.17c-1.49.12-19-13.59-35.43-25.25-12.17-9.72-22.7-13.92-20.18-17.92 2.56-4.47 18.07 11 34.59 21.91 12.87 10.28 30.57 18.73 21.02 21.26z" fill="#b59458"/><path d="m67 78.88c-12.84-11.64-27.6-10.49-39.27 0-2.91 3.5-1.39 22.8 3 28.28h33.27c4.44-5.48 6-24.78 3-28.28z" fill="#bd1e2d"/><path d="m59.51 73.67c-9.34-4-14.25-4.15-24.11 0 4.39 4.82 12 13.51 12 13.51z" fill="#fff8a1"/><path d="m46.71 121.07c7.73 2.36 20.6 13.09 9.09-4.27-8.3-13.37-10.68-8.69-14.26-3.07 0 0 1.21 6.63 5.17 7.34z" fill="#3c2415"/><path d="m47.25 119.92c-7.73 2.36-20.6 13.09-9.09-4.26 8.3-13.38 10.68-8.7 14.26-3.08 0 0-1.21 6.64-5.17 7.34z" fill="#3c2415"/><path d="m51.45 109.55c.53.73 13.94-2.22 23-4.32 18.6 5 4.58 26.06-23 16.16-3.8-1.55-5.98-9.31 0-11.84z" fill="#bd1e2d"/><path d="m49.54 87.1 11.67-12.65c-.9734691-.5215295-1.9749936-.9889076-3-1.4l-10.78 11.67-10.49-11.81c-1.0236006.4031117-2.0250174.8604254-3 1.37l29.21 32.88h.85c.5419032-.694487.9953797-1.45364 1.35-2.26z" fill="#890c1f"/><path d="m65.18 77.1c.23 1.45.56 3.8.69 5.75 0 0 1.13 8-1.77 13.48-2.53 4.54-23 9.49-33.29 10.83h33.19c4.44-5.48 6-24.78 3-28.28-.5623642-.6370014-1.1706604-1.2319285-1.82-1.78z" fill="#bd1e2d" opacity=".5"/><path d="m47.79 109.64c-11.81-.3-16.5-.83-18.78-1.73-5.15-7.68 7.38-3.47 14.39-3.63 6.41 1.47 18.61-2.78 23.25 0 3.35 6.93-16.72 4.72-18.86 5.36z" fill="#890c1f"/><path d="m44.84 106.3c-4 1.83-7.38 5.56-10.08 10.35l-1 1.85 8 2.19.1-1.69c.2330713-3.416161 1.2603234-6.730762 3-9.68.3013753-.457004.6355902-.891484 1-1.3z" fill="#890c1f"/><path d="m20.06 94.79c.34-3.79 11.42-29.14 13.19-15.48-2.1325603 5.1228966-3.7862833 10.4322177-4.94 15.86 6.42-1.22 20.08-5.93 15 6.2-6.18 5.07-25.82 6-23.25-6.58z" fill="#bd1e2d"/><path d="m33.26 79.31c-2.1246112 5.1248791-3.7748522 10.4337682-4.93 15.86 0 0-3.17.83-3.35-.3 3.45-5.55 6.8-19.27 6.8-19.27 1.4021007.6456842 2.0526815 2.276532 1.48 3.71z" fill="#bd1e2d" opacity=".5"/><path d="m67 103.55c-35-3.28-41.93-33.63-36.17-28.18.07.32 4.42 22.85 38.19 26.21 1.47.5.98 2.89-2.02 1.97z" fill="#3c2415"/><g fill="#bd1e2d"><path d="m74.8 94.79c-.34-3.79-11.42-29.14-13.19-15.48 2.1336056 5.1216201 3.7841092 10.4313538 4.93 15.86-6.41-1.22-20.07-5.93-15 6.2 6.19 5.07 25.83 6 23.26-6.58z"/><path d="m61.61 79.31c2.1336056 5.1216201 3.7841092 10.4313538 4.93 15.86 0 0 3.18.83 3.35-.3-3.45-5.55-6.79-19.27-6.79-19.27-1.4020373.6457526-2.0559218 2.2738811-1.49 3.71z" opacity=".5"/><path d="m67 104.59c2.31-.26 6-1.14 7.66-5-2.9 4-16.52 4.66-16.67-.3 1-2.28-.62-5.21-1.5-6.52-4.24-1-8.14 4.63-4.94 8.57 4.25 3.51 9.45 3.12 15.45 3.25z" opacity=".5"/><path d="m27.88 104.59c-2.31-.26-6-1.14-7.66-5 2.9 4 16.51 4.66 16.67-.3-1-2.28.62-5.21 1.49-6.52 4.25-1 8.15 4.63 4.95 8.57-4.27 3.51-9.51 3.12-15.45 3.25z" opacity=".5"/></g><path d="m47.42 85.23c.35 1.29-.88 13.07.91 16.28 5.93 4.5 10.16-2.05 6.2-7.49-2.15-4.39-3.53-12.02-7.11-8.79z" fill="#3c2415"/><path d="m47.43 85.23c-.34 1.29.89 13.07-.9 16.28-5.93 4.49-10.17-2.05-6.2-7.51 2.15-4.37 3.54-12 7.1-8.77z" fill="#3c2415"/><path d="m61.41 119.79c-.08-4-4.21-9-5.75-10.59-2.54.29-4.21.35-4.21.35-6 2.53-3.8 10.29 0 11.84 21.35 7 31.31-2.13 31.13-7.18-6.35 9.73-21.17 5.58-21.17 5.58z" fill="#bd1e2d" opacity=".5"/><path d="m48.92 106.3c4 1.83 7.39 5.56 10.09 10.35l1 1.85-8.01 2.19-.08-1.69c-.2294076-3.416843-1.2569162-6.732271-3-9.68-.3013465-.457025-.635563-.891506-1-1.3z" fill="#890c1f"/><path d="m47.26 81.24c19-.69 19.06-12.1 9.83-10.56-2.21.9-3.24 2.42-9.36 2.91-4.44.81-10.21-2.84-13.73-2.79-12.58 5.83 9.52 11.47 13.26 10.44z" fill="#f6931e"/><path d="m92.18 41.22h1.52c.55 0 1.12-.05 1.68-.07 5.530615-.4469351 10.853873-2.3062878 15.46-5.4.91-.56 1.73-1.28 2.57-1.91s1.59-1.44 2.38-2.12l8.51 12c-1.35.66-2.64 1.37-4 2s-2.73 1.15-4.16 1.56c-6.889308 2.2760077-14.247747 2.7443033-21.37 1.36-.69-.16-1.38-.3-2.08-.5-.14 0-.55-.15-1.58-.48l-.61-.21z" fill="#603913"/><path d="m90 50.88.63.11.54.1c.34.07.69.14 1 .23 1.3240832.3383355 2.6237252.7659812 3.89 1.28 6.041476 2.5174513 10.985112 7.1099971 13.94 12.95.668555 1.3165621 1.240075 2.6801884 1.71 4.08.48 1.38.77 2.78 1.13 4.21l-14.65 1.42c0-.82.07-1.71 0-2.54-.0416277-.8299089-.1452498-1.6555437-.31-2.47-.7780793-3.8676016-2.9576059-7.311396-6.12-9.67-.7367325-.5880691-1.5192158-1.1164125-2.34-1.58-.21-.13-.4-.22-.6-.32 0 0-.21-.09-.48-.26z" fill="#603913"/><path d="m94 8.22c-7.93-10.07-46.43-8.06-46.43-8.06s-41.57-1.52-46.07 38.76c-9.5 54.08 118.31 50.56 88.5-14.06-2-8.67 11.77-6.86 4-16.64z" fill="#bd1e2d"/><path d="m94 8.22c-.8686103-1.04989418-1.9227891-1.93120119-3.11-2.6 6.89 9.05-6.36 7.46-4.38 15.78 23.71 56.39-59.3 59.79-81.63 37.66 12.29 20 59.13 23.19 79.68 6.32 12-8.1 11-27.92 5.46-40.52-2.02-8.48 11.64-6.94 3.98-16.64z" fill="#bd1e2d" opacity=".5"/><path d="m83 31.21c-19.71-33.6-94.34-11.21-68.06 22.79 9 7.83 22.47.18 34.73 1 8.84.6 17.48 3.64 24.07 2.17 11.39-2.53 14.73-15.17 9.26-25.96z" fill="#fecea2"/><path d="m47.67 12.85c-16.89 0-29.78 2.51-38.67 5.15-2.05169662 2.9224747-3.69360993 6.1120932-4.88 9.48 26.42-11.19 71.05-8 87.26.81-.4-1.2-.83-2.36-1.31-3.46-.4846928-1.6328023-.1855633-3.3980361.81-4.78-8-3.16-22.25-7.2-43.21-7.2z" fill="#603913"/><path d="m57.54 9.46c-5 1.2-25.14-3.89-22.2 5.54.26 5.3-1.09 7.39 2.46 8.61 5-1.2 25.14 3.88 22.2-5.55-.26-5.3 1.09-7.38-2.46-8.6z" fill="#929497"/><path d="m37.8 21.27c-.7-.21-1-9.92 0-9.48h19.59c.78-1.36 1.23 9.75.11 9.48z" fill="#d0d2d3"/><path d="m79.25 51.77c.23 2.33-9.91 3.15-11.67.51-2.38-3.04 11.51-3.76 11.67-.51z" fill="#e5a876"/><path d="m15.89 51.77c-.23 2.33 9.91 3.15 11.67.51 2.38-3.04-11.51-3.76-11.67-.51z" fill="#e5a876"/><path d="m56.07 31.78-1.09-5.22 22.14-4.71.87 7.31z" fill="#0c0608"/><path d="m38.12 31.78 1.09-5.22-22.14-4.71-.87 7.31z" fill="#0c0608"/><path d="m38.65 37.86c.48 12.19-19.6 13.42-19.65 1.14 4.78 6.48 14.52 5.86 19.65-1.14z" fill="#3c2415"/><path d="m56.69 37.86c-.48 12.19 19.6 13.42 19.62 1.14-4.75 6.48-14.49 5.86-19.62-1.14z" fill="#3c2415"/><path d="m48.83 20.65c-2.5.28-6.2-2.76-4.13-6.46.5571172-.8786183 1.4501021-1.4903986 2.4706212-1.6926126 1.0205191-.2022139 2.079318.022824 2.9293788.6226126 3.37 1.69-1.59 9.25-3.71 2.85.37-.43.18-1.82 2.42-1.31.2970097.1803053.5094813.4720037.59.81-.13.12.43 1-1 1.28.2804776-.0321035.5290908-.1953718.67-.44 0-.16.43-.52-.48-1.24-.2166891-.0770425-.4533109-.0770425-.67 0-.4066966.1733942-.6837394.557967-.7194131.9986427-.0356738.4406758.1759027.8648035.5494131 1.1013573 1.71 1.13 4-3 .34-3.61-.9866168-.0190474-1.9229938.434278-2.52 1.22-.804382 1.3749996-.6604056 3.1067148.36 4.33.7248986.8767335 1.7676809 1.4304868 2.9 1.54z" fill="#414042"/></g></svg>