<svg height="177" viewBox="0 0 135 177" width="135" xmlns="http://www.w3.org/2000/svg"><g fill="none"><path d="m36.7105263 122.532273c1.2339474 9.758663-3.5526316 20.407059-3.4128947 26.576029.0189473.870802 3.6757895 3.606257 5.6439473 4.36111.331579 11.067232.0378948 18.547139.0378948 18.547139h22.1115789l-7.3705263-45.418957s-17.4836842-5.814024-17.01-4.065321z" fill="#1f1e21"/><path d="m38.9321053 153.573529c.3268421 11.012808.0355263 18.45722.0355263 18.45722h22.1115789l-3.0363158-18.239519z" fill="#474b4f"/><path d="m59.7126316 163.817286-.1184211-.709893-4.1423684 4.167072-5.6842105-5.724104 4.3507895-4.375308 5.4 5.442514-.1657895-.996217-4.8221053-4.850936 2.9723684-2.988649h-.8147368l-2.5697368 2.58401-2.6313158-2.643168h-.8336842l3.0528947 3.076203-4.3578947 4.346912-5.0352632-5.071003 2.4110526-2.425468h-.8147368l-2.0084211 2.020829-2.053421-2.065789h-.8336842l2.475 2.489359-4.41 4.422633v1.528637l4.6823684 4.708957-4.7794737 4.80361c0 .295788-.0142105.456697-.0142105.456697h.3860526l4.8221053-4.850935 4.8221052 4.850935h.8218421l-5.2318421-5.260307 4.7605264-4.789412 5.6842105 5.724105-4.3057895 4.327981h.826579l3.8913157-3.913877 3.8913158 3.913877h.8218421l-4.303421-4.327981zm-15.5368421 2.52012-5.0352632-5.061537 4.7605263-4.787045 5.0352632 5.061537z" fill="#1f1e21"/><path d="m89.5713158 144.927032c.0923684-2.079987-15.046579-28.667848-15.046579-28.667848l-15.1815789 8.625201 7.8157895 47.132166h25.5576315l-7.2165789-21.045963s3.9789474-3.963569 4.0713158-6.043556z" fill="#1f1e21"/><path d="m64.1107895 154.131979 3.0410526 17.884572h25.5647368l-7.1573684-20.901618z" fill="#474b4f"/><path d="m88.8489474 163.54516.7105263-.72409-.2131579-.617607-.9189474.927593-5.85-5.882647 3.7728948-3.786096-.2131579-.615241-3.9528948 3.984867-4.5710526-4.597741-.7105263.101751 4.8836842 4.91246-5.0684211 5.094666-5.4710526-5.501671 4.2892105-4.313784-.9473684.13488-3.7728947 3.764799-2.8231579-2.839572-.7247369.101752 3.1357895 3.151925-4.9736842 5.004746.1184211.709893 5.2673684-5.300535 5.4710526 5.501671-5.2815789 5.31-5.4473685-5.48274.1705264.998582 4.8623684 4.898262-3.4484211 3.469011v.066257h.7484211l3.1002631-3.121163 3.1026316 3.121163h.8242105l-3.5052631-3.535268 5.2815789-5.31 5.8523684 5.882647-2.9463157 2.962621h.8242105l2.5318421-2.548516 2.5436842 2.548516h.8242105l-2.9557894-2.962621 5.068421-5.094665 2.3210526 2.333182-.433421-1.26361zm-5.8926316 5.094666-5.85-5.882647 5.0778947-5.094666 5.8523684 5.882647z" fill="#1f1e21"/><path d="m60.9821053 171.813048s-22.246579-4.294853-25.9294737-2.479893c-3.6828948 1.81496-6.0868421 7.505936-6.0868421 7.505936h33.7618421c0-3.580227-1.7455263-5.026043-1.7455263-5.026043z" fill="#1f1e21"/><path d="m97.7707895 169.004238c-3.9339474-1.893048-30.5952632 2.498823-30.5952632 2.498823s-.0781579 1.599626-.0781579 5.33603h37.1605266s-2.555527-5.944171-6.4871055-7.834853z" fill="#1f1e21"/><path d="m5.85947368 120.736243s-6.00157894 7.023209-4.38631579 9.921939c1.61526316 2.89873 4.94763158 4.115013 4.94763158 4.115013s1.56789474 2.541417 4.18026313 2.602941c2.6123685.061524 3.886579-2.839572 3.886579-2.839572 1.1998375.171053 2.4172094-.159339 3.3655263-.913396 1.9492105-1.682446-.8857895-9.479438-.8857895-9.479438z" fill="#f9b5ab"/><path d="m0 127.847005 10.2244737 4.332714 3.3844737-8.02889-9.27236845-2.860869z" fill="#474b4f"/><path d="m14.3692105 134.754265c.0781579-.144345.1184211-.236631.1184211-.236631.2506476.038715.5045523.052192.7578947.040227l-1.4968421-2.340281z" fill="#d68c81"/><path d="m109.894737 59.0347059-22.6468423 13.305762 3.1073685 5.5821257c9.4357894-5.6412834 17.9052628-10.6957219 22.6634208-13.51873 0 0 1.278948-1.5830615.047369-3.6606818s-3.171316-1.7084759-3.171316-1.7084759z" fill="#bbb8b8"/><path d="m87.2384211 72.3404679 3.1168421 5.5821257 5.0281579-3.0052139c-.9681873-1.8983815-2.18521-3.6594227-3.6189474-5.2366444z" fill="#989697"/><path d="m100.435263 64.5860695-2.3565788 1.3842915c1.3239474 1.7416042 2.4584208 3.4997727 3.2281578 5.4117513l2.988947-1.7841979c-.994661-1.8762298-2.29993-3.5707664-3.860526-5.0118449z" fill="#989697"/><path d="m102.097895 63.6111497c1.894737 1.2517781 3.602368 2.6691979 4.815 4.425l.907105-.5395187c-.868076-1.9003564-1.941846-3.7000149-3.202105-5.3667914z" fill="#989697"/><path d="m109.894737 59.0347059-3.730263 2.1912032c1.553684 1.4671123 3.036315 3.0359759 4.189737 4.768115.985263-.5892113 1.894736-1.1216311 2.673947-1.5901605 0 0 1.278947-1.5830615.047368-3.6606818s-3.180789-1.7084759-3.180789-1.7084759z" fill="#989697"/><path d="m94.8292105 67.877607c.81 1.9238101 1.8047369 3.8570855 2.5555263 5.8424197.8952632-.531631 1.77-1.0537968 2.6242102-1.5664973-.9828944-1.8244251-2.448947-3.5068716-3.9126312-5.0189438z" fill="#e2dddb"/><path d="m85.6942105 68.2869786c-1.6128947.8779011-1.9065789 3.4453476.8478948 8.4737567 2.7544736 5.0284091 5.0731579 6.1760695 6.688421 5.2981684 1.6152632-.877901 1.8947369-3.4453476-.8478947-8.4737566-2.7426316-5.0284091-5.0755263-6.1760696-6.6884211-5.2981685z" fill="#cf8158"/><path d="m18.9994737 111.235508s-1.6578948 1.538102-.2368421 3.814492c1.4210526 2.27639 3.6331579 1.926176 3.6331579 1.926176 17.3155263-10.352606 57.87-33.0407883 67.9073684-38.9991573l-3.1334211-5.3667914z" fill="#6c3d21"/><path d="m3.07894737 121.512393 15.58421053 4.569345s7.9176316-21.845775 23.0802632-31.4884893l1.5939473-9.9503343c-30.96 11.6256819-40.25842103 36.8694786-40.25842103 36.8694786z" fill="#474b4f"/><path d="m3.07894737 121.512393 15.58421053 4.569345c1.426947-3.69733 3.1192419-7.28689 5.0636842-10.740682l-14.28157894-5.071003c-4.59710527 6.412701-6.36631579 11.24234-6.36631579 11.24234z" fill="#1f1e21"/><path d="m94.7581579 42.7710561.1326316 4.2238637c15.8826315-2.1296792 35.7631575 13.1945454 35.7631575 13.1945454s-5.613158-10.8258689 4.282106-16.2589171c-.009474 0-20.186053-9.9456016-40.1778951-1.159492z" fill="#b10d28"/><path d="m113.684211 20.9702406s-16.5789478 5.55373-20.084211 21.1453476l2.9960526 2.219599c6.1484214-9.7681284 26.3250004-12.2409225 26.3250004-12.2409225s-10.205527-2.8182754-9.236842-11.1240241z" fill="#b10d28"/><path d="m43.2213158 80.6911765s-12.526579 25.9252945-7.9957895 39.5410425c10.4021053 21.313356 39.465 8.097514 40.1234211 3.270241-.0260527-1.228115-2.7284211-42.151083-2.7284211-42.151083z" fill="#1f1e21"/><path d="m41.9210526 81.4010695 8.1355263 14.5622727 18.5636843-14.9953074h-26.5097369z" fill="#404347"/><path d="m50.6960526 97.7948663 15.7121053-12.9413503-22.3105263.3644118z" fill="#3c3f42"/><path d="m41.2105263 85.234492 6.5368421 12.9981417 3.0789474-2.3663102-7.8157895-14.739746c-.3031579.6696658-.9639474 2.1225803-1.8 4.1079145z" fill="#b10d28"/><path d="m69.7215789 81.2922193-35.1710526 27.1250137c-.09.761951-.1563158 1.516804-.2107895 2.264558l2.8421053.627073 35.5831579-27.7331554-.1444737-2.219599z" fill="#b10d28"/><path d="m52.1857895 0c-23.6652632 0-42.85184213 12.9721123-42.85184213 46.8884358 0 32.9674332 19.18421053 40.8259492 42.85184213 40.8259492s42.8518421-7.858516 42.8518421-40.8259492c0-33.9163235-19.1842105-46.8884358-42.8518421-46.8884358z" fill="#1f1e21"/><path d="m51.885 43.3697326c-36.0710526 0-36.5826316 4.9905481-36.5826316 11.1405883 0 6.1500401.511579 11.1429545 36.5826316 11.1429545 37.6578947 0 36.5778947-4.9905481 36.5778947-11.1429545 0-6.1524065 1.0752632-11.1405883-36.5778947-11.1405883z" fill="#f9b5ab"/><path d="m51.885 43.3697326c-30.3157895 0-35.5073684 3.5234358-36.3978947 8.2962834h72.8952631c-.5660526-4.7752139-4.8623684-8.2962834-36.4973684-8.2962834z" fill="#d68c81"/><path d="m28.2102632 49.4724449c-3.8479535.0013084-6.9663981 3.1187391-6.9655264 6.9632631.0008721 3.844524 3.1207304 6.9605425 6.968684 6.9601071 3.8479536-.0004355 6.9671059-3.11716 6.9671059-6.9616841.0006286-1.8469562-.73361-3.6184117-2.0409924-4.9241851-1.3073825-1.3057734-3.0806677-2.0387555-4.9292711-2.037501z" fill="#fff"/><path d="m29.0747368 50.8283422c-3.1393027 0-5.6842105 2.5426396-5.6842105 5.6791444 0 3.1365049 2.5449078 5.6791444 5.6842105 5.6791444 3.1393028 0 5.6842106-2.5426395 5.6842106-5.6791444 0-3.1365048-2.5449078-5.6791444-5.6842106-5.6791444z" fill="#231f20"/><path d="m67.9547368 49.1080348c-4.0549327 0-7.3421052 3.2842427-7.3421052 7.3355615 0 4.0513187 3.2871725 7.3355615 7.3421052 7.3355615 4.0549328 0 7.3421053-3.2842428 7.3421053-7.3355615 0-4.0513188-3.2871725-7.3355615-7.3421053-7.3355615z" fill="#fff"/><path d="m67.9547368 50.4473663c-3.3074233.0013069-5.9878039 2.6807111-5.9873679 5.9851869.0004361 3.3044757 2.6815236 5.9831738 5.9889472 5.9836094s5.9892179-2.677556 5.990526-5.9820316c0-3.3063988-2.6827569-5.9867647-5.9921053-5.9867647z" fill="#231f20"/><path d="m19.2813158 44.5221257.1989474 2.1864706c.1207894 0 12.1452631-.9891177 16.9413157 7.1273262l1.8947369-1.1145321c-5.5089474-9.3232621-18.4855263-8.2489572-19.035-8.1992647z" fill="#231f20"/><path d="m57.3821053 52.7213904 1.8947368 1.1145321c4.7960526-8.1164439 16.8157895-7.1367915 16.9389474-7.1273262l.2013158-2.1864706c-.5494737-.0496925-13.5260527-1.1263637-19.035 8.1992647z" fill="#231f20"/><path d="m8.01236842 39.2286898.19184211 12.7189172s16.42026317-4.7965107 43.98157897-4.7965107 44.0905263 4.7965107 44.0905263 4.7965107l.1894737-12.7189172s-16.981579-5.6270855-44.28-5.6270855c-27.2984211 0-44.17342108 5.6270855-44.17342108 5.6270855z" fill="#d82035"/><path d="m96.7547368 74.4867112s2.4371053 9.9692647 1.6578948 11.0412032-25.6618421-2.0492246-25.6618421-2.0492246l.6631579 10.2011631s36.5897366 10.1207081 41.9210526 1.4197861c3.848684-6.531016-2.996053-24.5268048-5.684211-27.0895187-3.431842-3.2891711-12.8960522 6.4765909-12.8960522 6.4765909z" fill="#474b4f"/><path d="m96.7547368 74.4867112s1.1842106 4.8580348 1.6389474 8.1566712c5.8902628.6933288 12.0102628-.6010428 15.7428948-5.2461097-1.494474-4.5149198-3.351316-8.301016-4.478684-9.3895187-3.438948-3.2868048-12.9031582 6.4789572-12.9031582 6.4789572z" fill="#1f1e21"/><path d="m34.38 110.090214c-.0355263.390441-.0615789.77615-.0828947 1.161858 2.6052631.806912 9.3386842 2.574546 18.7105263 2.782781 7.2632123.150868 14.5154588-.63734 21.5763158-2.345013l-.0734211-1.147661c-20.5839474 4.992915-36.3363158.752487-40.1305263-.451965z" fill="#b10d28"/><g fill="#52575b"><path d="m42.2928947 145.606163s-1.0942105 4.484158 4.8126316 3.831056c-3.2897368-.234264-4.8126316-3.831056-4.8126316-3.831056z"/><path d="m74.3684211 148.265896s5.4592105 1.351163 4.7889473-4.389506c-.8004422 2.145097-2.5810595 3.777195-4.7889473 4.389506z"/><path d="m17.3178947 23.7364572s13.0784211-19.44633688 43.6878948-19.73739303c-34.2923684-5.32183155-43.6878948 19.73739303-43.6878948 19.73739303z"/><path d="m31.3981579 69.9717914s13.2039474 9.299599 33.9157895 1.2541444c-17.9313158 3.4666444-33.9157895-1.2541444-33.9157895-1.2541444z"/><path d="m39.0078947 76.826992s8.4173685 6.6020053 19.6886842 4.2404278c-7.3728947.3478476-19.6886842-4.2404278-19.6886842-4.2404278z"/></g><path d="m110.678684 58.2230615-2.872895 1.7037433 1.141579 1.8338904.947369-.5560829c.475454-.0563317.936016.1878883 1.155789.6128743.268308.4032326.263617.9291095-.011842 1.3275-.255789.1538102-.587368.3289171-.897631.5158556l1.248158 1.9877006c.947368-.5655481 1.963421-1.1097995 2.735526-1.57123 0 0 1.387895-1.7297727.035526-3.9943315-1.352368-2.2645588-3.481579-1.8599198-3.481579-1.8599198z" fill="#cf8158"/><path d="m97.2686842 60.4118984c-3.988421 2.3970722-6.7357895 5.1845856-3.1381579 11.3014973 3.5976316 6.1169118 7.3278947 5.0142113 11.3257897 2.6029412s6.733421-5.1845856 3.135789-11.299131c-3.597631-6.1145455-7.323158-5.0094786-11.3234208-2.6053075z" fill="#f9b5ab"/><path d="m100.26 66.9405481c-2.0771053-.435401-5.3360526 1.8717514-6.9797368 3.1306284.0781579.1822059.1681579.3691444.2628947.5560829 3.7894737-2.8774332 5.6842105-3.2868049 6.5984211-3.0998664.41789.0791399.776529.3450463.973421.7217246 1.243421 2.2385295-1.6365789 4.0345589-3.2044737 5.011845l.331579.4992914c1.5939473-.9962166 4.9168417-3.0643716 3.3915787-5.8045588-.279071-.5299037-.784846-.9036693-1.373684-1.0151471z" fill="#d68c81"/><path d="m94.1542105 62.7569118c1.4214067 1.4451218 2.4840322 3.2029695 3.1026316 5.1325267l.5968421-.1845722c-.6410654-2.0276695-1.7547558-3.8743262-3.2494737-5.3880882-.1563158.1538101-.3078947.2886898-.45.4401337z" fill="#d68c81"/><path d="m108.412105 62.7308824c-.142105.6578342-.544737 1.3795588-.935526 1.6209224-.772105.473262-1.92079.205869-2.382632.0662567-.066315-1.6564171-1.035-3.7860963-2.747368-5.9157754-.248467.0109147-.496034.0369927-.741316.0780882 2.771053 3.2962701 3.294474 6.0388236 2.572105 7.3047995-.447631.7832487-1.399736 1.0979679-2.688157.9110294.679736-2.617139-2.6052636-6.2730882-3.2400005-6.9451203-.1681579.0899198-.3363158.1845722-.5044737.2815909.6252632.6838636 4.3981582 4.9692513 2.8421052 7.1415241l.504474.3691443c.055808-.0758668.107209-.1548739.153947-.236631.269317.0469242.541532.0753864.814737.0851872 1.229211.030762 2.157632-.411738 2.655-1.2849064.193832-.3492951.315449-.7339381.357632-1.1310963.386149.1076055.783605.1695534 1.18421.1845722.535805.0295507 1.068747-.0961707 1.534737-.3620454.526091-.3460617.885322-.8942781.992368-1.5144385-.066315-.1159492-.130263-.2366311-.201315-.3525803-.071053-.1159492-.108948-.2035026-.170527-.3005213z" fill="#d68c81"/></g></svg>