<svg height="64" viewBox="0 0 97 64" width="97" xmlns="http://www.w3.org/2000/svg"><g fill="none"><path d="m23.45 29.79c.4705827.9181451.8426556 1.8835235 1.11 2.88 1.1238178-.4272046 2.225234-.9111602 3.3-1.45-.5688288-.8385492-1.0291586-1.7457684-1.37-2.7-.99.48-2.01.87-3.04 1.27z" fill="#d68c63"/><path d="m52.16 45.82c-.52-.79-1-1.61-1.42-2.44-3.467032 2.3729141-7.2030913 4.3265408-11.13 5.82.4972991 1.0855187.8341547 2.237565 1 3.42 1.890717-.486444 3.7294357-1.1562868 5.49-2 .0903373-.1582932.2706535-.2424407.45-.21 2.1424492-1.0514772 4.1900611-2.2860667 6.12-3.69-.15-.31-.32-.62-.51-.9z" fill="#eab27a"/><path d="m51.56 51.56c-.6121046.4533509-1.26103.8547481-1.94 1.2-.38.3-.77.59-1.17.87 1.2955271 2.621577 3.3610473 4.7847907 5.92 6.2.15-1 .2-2.07.58-3.82-1.5279938-1.1329974-2.7034463-2.6759954-3.39-4.45z" fill="#d68c63"/><path d="m54.73 26.11c.26-.52.54-1 .84-1.52-.89-1.19-1-2.65-1.06-5.07-.51.75-1.07 1.48-1.51 2.3.4856843 1.4650286 1.0635034 2.8978864 1.73 4.29z" fill="#d68c63"/><path d="m38.73 49.5c-.9844023.31667-1.98602.5770906-3 .78-.0566777 1.0743602.117216 2.1484097.51 3.15 1.1925486-.1120833 2.3755621-.3092522 3.54-.59-.5224658-1.0515915-.8767708-2.1786186-1.05-3.34z" fill="#d68c63"/><path d="m55.75 56.6c-.0249782 1.2741006-.1184464 2.5459365-.28 3.81.715745.3294606 1.4543293.6068475 2.21.83-.0970647-1.1893173-.0736121-2.3854019.07-3.57-.6995327-.2915036-1.3693033-.649831-2-1.07z" fill="#eab27a"/><path d="m23.36 33.1c-.3431742-.9750682-.5975418-1.9791504-.76-3-3.6 1.21-7.6 2.78-12.18 3.08-.0049306.0765874-.0049306.1534126 0 .23-.15.3.4 1.19-.5 1.75 4.5704471.1779614 9.1326709-.521308 13.44-2.06z" fill="#eab27a"/><path d="m88.72 37.51c-1.1816526 2.3911385-2.5667559 4.6762245-4.14 6.83 1.0481192.5604759 1.9810993 1.3136453 2.75 2.22 1.6393117-2.3442139 3.0586699-4.8347858 4.24-7.44-1.001707-.4394952-1.956538-.978891-2.85-1.61z" fill="#eab27a"/><path d="m67.6 57.81c-2.8750039.9636807-5.9745665 1.0334121-8.89.2.1852615 1.1702889.2456005 2.3569554.18 3.54 3.114114.6209871 6.3336583.4594945 9.37-.47-.46-1.08-.26-.54-.66-3.27z" fill="#d68c63"/><path d="m84.16 45.09c-.0266182-.030909-.0500689-.0644101-.07-.1-1.2303613 1.6199237-2.5666166 3.1566172-4 4.6 1.0456126.6364315 1.9018899 1.5410471 2.48 2.62 1.5307378-1.5222365 2.9416013-3.1604429 4.22-4.9-.79-.22-1.41-.95-2.63-2.22z" fill="#d68c63"/><path d="m79.56 50.11c-2.4295054 2.3911487-5.1709746 4.4430459-8.15 6.1 1.82 2.35.1 5.87-.7.35-.6711231.3314225-1.3586791.6284734-2.06.89.3387118 1.0753548.5534379 2.1858912.64 3.31 4.6215502-1.6655445 8.8424061-4.281862 12.39-7.68-.59-.76-.9-1.48-2.12-2.97z" fill="#eab27a"/><path d="m62.43 33.94c-.3-.21-.6-.42-.89-.64-2.0061651 2.5470683-4.2569027 4.8915867-6.72 7 1.1211175.5402385 1.9269162 1.571513 2.18 2.79 2.6491167-2.4980018 5.0135203-5.2816258 7.05-8.3h-.05c-.5806878-.1614331-1.117388-.4520033-1.57-.85z" fill="#eab27a"/><path d="m55.36 42c-.3425241-.4560198-.7621828-.8486038-1.24-1.16-.92.75-1.85 1.48-2.82 2.17.69.76.78.81 2.47 2.89.89-.69 1.75-1.42 2.58-2.18l-.11-.06c-.41-.47-.51-1.16-.88-1.66z" fill="#d68c63"/><path d="m34.62 50.46c-3 .23-6.27.37-9.53-2-.0462481.7268911-.1805639 1.4454805-.4 2.14 3.0125545 2.0045899 6.5729746 3.0248477 10.19 2.92-.266178-.9967322-.354197-2.0326477-.26-3.06z" fill="#eab27a"/><path d="m56.25 23.56c.8674711-1.2831608 1.8735274-2.4669538 3-3.53-.62-1.85-.21-2.68.07-5.89-1.4248488 1.341849-2.7609972 2.7748681-4 4.29.191152 1.729426.501896 3.4435302.93 5.13z" fill="#d68c63"/><path d="m22 44.48c-.8820623-2.0495716-1.0096048-4.3453358-.36-6.48-.7718685.7899333-1.4964607 1.6247169-2.17 2.5.0109325 1.8318013.4275835 3.6384275 1.22 5.29.22-.19.31-.29 1.31-1.31z" fill="#d68c63"/><path d="m22.28 45.65c-.38.34-.77.66-1.16 1 .6823584 1.1895103 1.5576089 2.2573836 2.59 3.16.0253117-.7706852.1223982-1.537334.29-2.29-.5975987-.6157679-1.115027-1.3045524-1.54-2.05z" fill="#d68c63"/><path d="m91.18 31.43c-.5793991 1.8060333-1.2741616 3.5730014-2.08 5.29 1.0049593.4338599 1.9745639.9454099 2.9 1.53.7192304-1.6169994 1.3077792-3.2890132 1.76-5-.7817238-.7106552-1.6482941-1.3219568-2.58-1.82z" fill="#d68c63"/><path d="m60.25 17.19c.0640041.6651305.0640041 1.3348695 0 2 1.0236622-.8306282 2.1798054-1.4830716 3.42-1.93-1.7-.78.76-2 2.36-.73 1.91-3.87 7-6.51.73.64.8163703.9821008 1.2560035 2.223001 1.24 3.5.38 0 1.57-1 3.08-1.43 2.69-9.84-4.38-12.24-11.08-5.77.1875434 1.2307911.2711718 2.4751824.25 3.72z" fill="#eab27a"/><path d="m63.46 30.67c-.43.63-.88 1.25-1.34 1.86.8532068.4174757 1.6414003.9564114 2.34 1.6.35-.54.91-1.41 1.64-2.66-.56.09-.98-.02-2.64-.8z" fill="#d68c63"/><path d="m67.92 21.76c-.47 2.56-2.19 5.51-3.91 8.08.8682059.2272748 1.6723508.6515895 2.35 1.24 1.8680775-3.3119445 3.3382699-6.8330219 4.38-10.49-.8611625.5579899-1.8167572.95446-2.82 1.17z" fill="#eab27a"/><path d="m50.89 40.47c.67-4.45 1.42-9 3.27-13.18-.9593308-1.2184304-1.6418104-2.6311632-2-4.14-1.6877848 2.9580073-2.9980049 6.1159736-3.9 9.4 2.46 1.77 3.73 6.62-.36 1.41-.6500823 2.7071206-1.0451414 5.4691868-1.18 8.25 1.2991458-.7774078 2.7035952-1.363437 4.17-1.74z" fill="#eab27a"/><path d="m91.49 30.42c.9274528.3498993 1.7945683.8425019 2.57 1.46.59-3.06.46-6.1-1.16-8.61-.2544989 2.4208145-.7264032 4.8138048-1.41 7.15z" fill="#eab27a"/><path d="m37 21.2c-3.93 3.51-6.23 5.26-9.59 6.87.5493792.833405 1.0373364 1.705712 1.46 2.61 4.3256225-2.2906207 8.1503786-5.421821 11.25-9.21-1.0477816.0852825-2.102446-.0059865-3.12-.27z" fill="#eab27a"/><path d="m39.79 12.33c-1.14-.64-.6-2.92 1.28-.87.46-.65 1.71-2.44 3.2-2.24-1.27-3.17-5.7-2.22-8.83.51-.151525 1.2741109-.2150089 2.5571543-.19 3.84 1.2518134-1.071348 2.9173856-1.526262 4.54-1.24z" fill="#eab27a"/><g fill="#d68c63"><path d="m42.65 11.13c-.3646258.3585465-.6990905.7465256-1 1.16 1 2.17-.91 5.15-3.56 7.9.9142665-.1194697 1.8438955-.0024053 2.7.34.0231085-.0045808.0468915-.0045808.07 0 2-2.72 4.85-6.94 3.54-11.09-.28.56-.59.74-1.75 1.69z"/><path d="m9.53 34.87c-.1508859-.5709954-.17816015-1.1676196-.08-1.75-.31278953-.0141617-.62386059-.0542999-.93-.12-.08883116.020513-.18116884.020513-.27 0-.30612075-.0208652-.61028182-.0643168-.91-.13.05167097.6389571.05167097 1.2810429 0 1.92.83593757.1922144 1.68490303.3225674 2.54.39-.16756009-.0253372-.30461229-.1467263-.35-.31z"/><path d="m16.72 8.35c-.6066208-.30793372-1.1825518-.67291321-1.72-1.09-.95.74-1.86 1.52-2.74 2.35 1.1.19 2.59 2.22-.55.55-1.168225 1.1513247-2.26051924 2.3772329-3.27 3.67.854824.1488658 1.6901121.3937494 2.49.73 1.7617634-2.2206996 3.697907-4.2972888 5.79-6.21z"/><path d="m4.73 25.31c.36477679-1.0961665.80585529-2.1654477 1.32-3.2-.80288573.0325086-1.6065406-.041468-2.39-.22-.54363883 1.2110689-.98517364 2.4654291-1.32 3.75.7455164-.228116 1.52037455-.3460292 2.3-.35z"/><path d="m25.56 26.56c.372181-1.0154946.8201075-2.0016015 1.34-2.95-.33-.34 0 .07-1.24-1.59-.8619337 1.6157891-1.6331299 3.2783681-2.31 4.98.7497865-.0706271 1.4903378-.2180672 2.21-.44z"/></g><path d="m27.44 22.62c1.4597763-2.3790884 3.1658358-4.5979712 5.09-6.62-.58-.67-.52-.87-.45-3.09-2.2928234 2.4742703-4.2865318 5.2097456-5.94 8.15.465027.4927488.8991864 1.01374 1.3 1.56z" fill="#eab27a"/><path d="m25.1 2.58c.2419797-.48608904.5443715-.93967683.9-1.35-3.46 1.77-7 3.09-10.26 5.48.6051043.26319623 1.1759603.59899386 1.7 1 2.3039243-2.05586126 4.8818087-3.78230345 7.66-5.13z" fill="#eab27a"/><path d="m6.66 20.92c1.04055837-1.9311281 2.25206968-3.7651286 3.62-5.48-.8326759-.1741371-1.64648944-.4286632-2.43-.76-1.39671061 1.9078553-2.6215064 3.9357958-3.66 6.06.82754426-.0835182 1.66330736-.0226124 2.47.18z" fill="#eab27a"/><path d="m33.13 15.41c.33-.33.69-.67 1.06-1-.2486667-1.2576338-.1764436-2.5576501.21-3.78-.5.46-1 .93-1.46 1.42.1408423 1.1142691.2043276 2.2369564.19 3.36z" fill="#d68c63"/><path d="m6.39 32.55c-2.5-1-2.66-3.65-1.89-6.48-.76498061.2489376-1.55752656.4034169-2.36.46-.68 3.15.24 6.9 4.29 8-.06786469-.6577706-.08124357-1.3200252-.04-1.98z" fill="#eab27a"/><path d="m93.12 21.09c-.1899574-.145766-.446871-.1691218-.66-.06-8.56 33.73-33.81 44.73-39.67 28.06 11.67-7.67 24.76-28.16 19.55-38.94-13.88-11.79-30.95 25.1-27.23 34.54-10.43 6.61-26.3 5.13-20.89-9.69 43.48-19.91 14.89-51.69-3-7.88-.4117217.6245042-.7474296 1.2959201-1 2-4.22 1.59-9.01 2.78-12.72 1.58-6.28-10.25 16.58-24.27 20.03-28.8.2972635-.50639989.4136244-1.09878284.33-1.68-18.45-3.88-47.1 44.18-9.28 36.37-.14.93-.87 2.06-.89 3.83-.75 14 17.63 18.59 28.45 12.5.68 4 4.49 7.29 8.25 9.13.0806644.1742263.2737391.2665664.46.22 23.62 10.36 50.96-31.27 38.27-41.18zm-68.56 11.58c-.2857218-.9903929-.657124-1.954031-1.11-2.88 1-.4 2.05-.82 3-1.27.3408414.9542316.8011712 1.8614508 1.37 2.7-1.0617046.5376091-2.149742 1.0215522-3.26 1.45zm4.35-2c-.422758-.9042396-.9107114-1.7765399-1.46-2.61 3.5163847-1.7832398 6.7374129-4.0969836 9.55-6.86 1.017554.2640135 2.0722184.3552825 3.12.27-3.0879127 3.7840303-6.8987466 6.9149653-11.21 9.21zm15.47-21.18c1.23 3.36-1 7.8-3.54 11.09-.0231085-.0045808-.0468915-.0045808-.07 0-.8561045-.3424053-1.7857335-.4594697-2.7-.34 2.65-2.75 4.57-5.73 3.56-7.9.54-.93 1.51-1.4 2.75-2.85zm-9.13 3c.0131754-.9393848.0765994-1.877392.19-2.81 1.81-2 7.87-4.09 8.83-.51-1-.26-2.15.77-3.2 2.24-.44-.91-3.44-1.39-1.28.87-1.6226144-.286262-3.2881866.168652-4.54 1.24zm.27 2.63c1.3713536-1.0175801 2.9986114-1.6338608 4.7-1.78.78 4.21-8 10-12.41 12.36 2-3.41 4.19-7.47 7.71-10.53zm-1.12-4.49c-.3864436 1.2223499-.4586667 2.5223662-.21 3.78-.37.33-.73.67-1.06 1 .0402883-1.1234614-.0233154-2.2482424-.19-3.36.47-.49.96-.96 1.46-1.42zm-2.89 2.94.57-.62c.06.82-.31 1.75.45 3.09-1.9219167 2.0094595-3.6279047 4.2148428-5.09 6.58-.40121-.533282-.8353915-1.0409403-1.3-1.52 1.4978519-2.7060263 3.2994983-5.2323574 5.37-7.53zm-5.85 8.43c.3652571.5657995.7802333 1.0979061 1.24 1.59-.5198925.9483985-.967819 1.9345054-1.34 2.95-.7221907.2205889-1.4613715.3811349-2.21.48.6755009-1.715222 1.4467131-3.3911895 2.31-5.02zm.34-20.79c-.3626462.40918736-.671792.86282516-.92 1.35-2.7717614 1.35238494-5.3428559 3.08215273-7.64 5.14-.5240397-.40100614-1.0948957-.73680377-1.7-1 3.26-2.38 6.8-3.7 10.26-5.49zm-14.28 9c.56.66 3.72 1.06.55-.55.91-.88 1.82-1.66 2.73-2.4.5247614.41495928 1.087215.77988455 1.68 1.09-2.0540813 1.9170267-3.9533356 3.9935002-5.68 6.21-.7998879-.3362506-1.635176-.5811342-2.49-.73.99982259-1.2918443 2.0820774-2.5177317 3.24-3.67zm-6.17 8c.69601148-1.1823385 1.45372465-2.3272531 2.27-3.43.78351056.3313368 1.5973241.5858629 2.43.76-1.35151044 1.7267492-2.56207332 3.559314-3.62 5.48-.80669264-.2026124-1.64245574-.2635182-2.47-.18.5-1.07.98-1.96 1.42-2.73zm-1.89 3.68c.7834594.178532 1.58711427.2525086 2.39.22-.51414471 1.0345523-.95522321 2.1038335-1.32 3.2h-.09c-.77962545.0039708-1.5544836.121884-2.3.35.33376221-1.29138.77531168-2.5524721 1.32-3.77zm2.34 12.5c-3.85-1.32-4.48-4.48-3.84-7.86.80247344-.0565831 1.59501939-.2110624 2.36-.46-.77 2.83-.61 5.45 1.89 6.48-.03610148.6661779-.03610148 1.3338221 0 2zm1.39.38c.08-.6375.08-1.2825 0-1.92.29971818.0656832.60387925.1091348.91.13.08883116.020513.18116884.020513.27 0 .30499597.0791734.61608071.1326934.93.16.12.39-.45 1.45.46 2-.87137182-.0583856-1.73713509-.1820661-2.59-.37zm2.57.39c.33-.1.61-.83.48-2 3.7-.16 8-1.63 12.18-3.07.1437496 1.02461.3985832 2.0305324.76 3-4.3133024 1.5157559-8.870504 2.2176463-13.44 2.07zm9.53 5.36c.46-.46.9-1.18 2.17-2.5-.6510374 2.1261712-.5306298 4.4139166.34 6.46-.52.5-.36.33-1.32 1.33-.7889631-1.6523672-1.2021906-3.4589568-1.21-5.29zm4.24 9.27c-1.0323911-.9026164-1.9076416-1.9704897-2.59-3.16l1.37-1.16c.409427.742673.9099637 1.4313308 1.49 2.05-.1663753.7461198-.2634546 1.5060165-.29 2.27zm2.55 1.78c-.544381-.2990764-1.0688127-.6331094-1.57-1 .2194361-.6945195.3537519-1.4131089.4-2.14 1.85 1.58 6.06 2.58 9.53 2-.1121479 1.0073594-.0237829 2.0269546.26 3-2.993.1450006-5.9717966-.4962681-8.64-1.86zm27.51-5.68c-.37-.46-1.12-1.45-2.47-2.89 1-.69 1.9-1.42 2.82-2.17.9733034.7063043 1.7119066 1.688786 2.12 2.82l.11.06c-.85.76-1.71 1.49-2.6 2.18zm3.21-2.8c-.2411184-1.2457785-1.067465-2.2991843-2.22-2.83 2.4630973-2.1084133 4.7138349-4.4529317 6.72-7 .7659016.610063 1.6059034 1.1207841 2.5 1.52h.13c-2.0609278 3.0260039-4.4523223 5.8131691-7.13 8.31zm9.07-11.55c-.5133333.9-1.0533333 1.78-1.62 2.64-.65-.63-.41-.52-2.34-1.6.46-.61.91-1.23 1.34-1.86.8282268.4496594 1.7342489.7380934 2.67.85zm.25-.46c-.35-.49-.71-.65-2.35-1.24 1.28-2 3.24-4.93 3.91-8.08 1.0014279-.2213265 1.9560229-.6173819 2.82-1.17-1.0290189 3.6552033-2.4857575 7.1762143-4.34 10.49zm-.62-21.08c6.11-1.28 6.64 4.79 5.38 9.23-1.17.09-.65.39-3.08 1.43-.0059713-1.2741028-.4589687-2.5056894-1.28-3.48 3.17-2.61 4.88-8.54-.73-.64-.23-.64-4.41-.86-2.36.73-1.2401946.4469284-2.3963378 1.0993718-3.42 1.93.1243788-1.912181.054017-3.8320534-.21-5.73 1.5750665-1.6212315 3.5365277-2.815314 5.7-3.47zm-1 7.93c5.3 6.23-8.1 18.28-11.88 21.68.89-8.01 3.95-17.44 11.93-21.67zm-6.31-2.93.92-.91c-.05 1.11-.7 3.69-.07 5.89-1.1264726 1.0630462-2.1325289 2.2468392-3 3.53-.3928355-1.6986534-.68997-3.4180269-.89-5.15.9440044-1.1808279 1.9592266-2.3029156 3.04-3.36zm-3.88 4.49c.07 1.1-.06 3.29 1.06 5.07-.3.49-.58 1-.84 1.52-.6488816-1.3895925-1.2263018-2.811448-1.73-4.26.44-.82 1-1.55 1.51-2.3zm-6.62 14.51c2.54 4 4.16 2.1.36-1.41.9019951-3.2840264 2.2122152-6.4419927 3.9-9.4.3581896 1.5088368 1.0406692 2.9215696 2 4.14-1.85 4.13-2.6 8.73-3.27 13.18-1.4791222.3474769-2.8912116.9352844-4.18 1.74.1381402-2.7811298.5365479-5.5432001 1.19-8.25zm-11.63 19.43c-.358597-1.0106458-.5313798-2.0778342-.51-3.15 1.01398-.2029094 2.0155977-.46333 3-.78.201232 1.1572765.5612991 2.281224 1.07 3.34-1.1710018.2816889-2.3607325.4788634-3.56.59zm9.89-2.85c-1.7643723.8346271-3.6022118 1.5041496-5.49 2-.1405805-1.1877282-.4785643-2.3436329-1-3.42 3.9315227-1.4831809 7.6687766-3.4374323 11.13-5.82.6104545 1.133101 1.2779784 2.2345155 2 3.3-1.9299389 1.4039333-3.9775508 2.6385228-6.12 3.69-.2118154-.0625811-.4365955.0454863-.52.25zm8.32 8.42c0 .28-.08.55-.11.83-2.5581659-1.4162296-4.6234174-3.5791619-5.92-6.2.4-.28.79-.57 1.17-.87.67897-.3452519 1.3278954-.7466491 1.94-1.2.6881875 1.7703521 1.8635055 3.3097067 3.39 4.44-.2380826.9855361-.3952718 1.9888717-.47 3zm38.43-35.73c1.62 2.51 1.75 5.55 1.16 8.61-.7754317-.6174981-1.6425472-1.1101007-2.57-1.46.6835968-2.3361952 1.1555011-4.7291855 1.41-7.15zm-35.22 38c-.7556707-.2231525-1.494255-.5005394-2.21-.83.11-1.14.19-1.67.28-3.81.6306967.420169 1.3004673.7784964 2 1.07-.1415944 1.1746943-.165045 2.3606264-.07 3.54zm1.21.31c.0684595-1.1963357.0081128-2.3965646-.18-3.58 2.9154335.8334121 6.0149961.7636807 8.89-.2.0850776 1.1129402.3067423 2.2111879.66 3.27-3.0355067.9328194-6.2550618 1.0977485-9.37.48zm19.35-5.58c-2.7130338 2.0571441-5.7334527 3.6736588-8.95 4.79-.05848-1.1277134-.2738865-2.2417686-.64-3.31.7013209-.2615266 1.3888769-.5585775 2.06-.89-.15 3.26 3.08 4.47.7-.35 2.9855153-1.6469215 5.7282909-3.6997965 8.15-6.1.44.63 1.2 1.51 2.12 3-1.0913751 1.0179419-2.2399059 1.972825-3.44 2.86zm4.33-3.76c-.5655612-1.0879458-1.4247197-1.9956052-2.48-2.62 1.4333834-1.4433828 2.7696387-2.9800763 4-4.6.0199311.0355899.0433818.069091.07.1.7187195.9090774 1.6131703 1.6640892 2.63 2.22-1.2796274 1.7292065-2.6904614 3.357349-4.22 4.87zm7.79-10.62c-.8852286 1.7328965-1.8875519 3.4034353-3 5-.4-.73-1.31-1.31-2.75-2.22 1.5732441-2.1537755 2.9583474-4.4388615 4.14-6.83.9031234.6157143 1.8564917 1.1542838 2.85 1.61-.43.82-.84 1.64-1.24 2.41zm1.64-3.37c-.9076261-.5970962-1.8683567-1.1092627-2.87-1.53.8058384-1.7169986 1.5006009-3.4839667 2.08-5.29.9111521.5314993 1.7655923 1.1547381 2.55 1.86-.4542475 1.6973772-1.0427695 3.3559394-1.76 4.96z" fill="#000"/></g></svg>