<svg height="207" viewBox="0 0 155 207" width="155" xmlns="http://www.w3.org/2000/svg"><g fill="none"><path d="m154.37 116.93c-4.81 103.5-150.55 101.41-154.37 0 4.81-103.51 150.55-101.41 154.37 0z" fill="#000" fill-opacity=".15"/><path d="m118.89 148.49 5.54 7.27-15.28 8.21-.66-6.22z" fill="#f15a24"/><path d="m58 125.88s-17.27 38.85 1.66 73.72c0 0-11.85 4.19-11 6 2 4 16.94-4 16.94-4s0-24.91 3-30.88 19.93-5 23.91 0 4 30.88 4 30.88 12.95 6 15.94 5-9-7-9-7 14.28-38.19-2.32-73.39c3.71-.67-43.13-.33-43.13-.33z" fill="#000"/><path d="m109 157.09-56.92-9.46c-.8272989 5.172086-1.2386165 10.402174-1.2301326 15.64l58.3901326.79c-.03-2.27-.11-4.6-.24-6.97z" fill="#f7931e"/><path d="m50.71 163.73c13.65-.72 44-4.85 57.73-7.4-13.65.73-44 4.86-57.73 7.4z" fill="#c66300"/><path d="m119.56 168.87-12.03-4.9-1.03-7.21 17.7 4.18z" fill="#f7931e"/><path d="m152.39 65s-49.39 54.2-56.19 61.59c-.71.24-.5 3-4.37-1.18-4.54-4-1.34-3.44-1.07-4.67l56-61.36z" fill="#4e524d"/><path d="m95.45 127.41 56.94-62.41-2-2-56.54 63c-.3974604.417149-.3974604 1.072851 0 1.49.2142818.218868.5120875.33541.8180057.320114s.5906135-.160963.7819943-.400114z" fill="#333533"/><path d="m115.16 27.63s5.26-23.87 29-27.63c.95 0 6.62 19 6.62 19s-24.69-1.63-35.62 8.63z" fill="#f7931e"/><path d="m115.48 30.16s10.6-4.56 27.68-2.64c-3.94 0-.07 4.55-1 8.54.04 0-18.3-6.99-26.68-5.9z" fill="#f15a24"/><path d="m139.25 65.07c-3.77 70.26-116.34 68.23-119 0 3.75-70.27 116.31-68.24 119 0z" fill="#000"/><path d="m33.7 78.55c.89-47 61.19-66.46 96.89-40.62-53.26-66.66-156.41 12.39-88.22 67.75-5.6122765-7.9360165-8.6399218-17.4100668-8.67-27.13z" fill="#232323"/><path d="m139.25 65.07c-.014567-7.3248894-1.754928-14.5432769-5.08-21.07-10.5 2-53.5 14.72-53.5 14.72l-56.44-12.49c-4.2579184 9.6491822-5.1249505 20.4553626-2.46 30.66 41.82 14.4 84.94 18.25 117.2-6.72.184101-1.6937996.277568-3.3962264.28-5.1z" fill="#f7931e"/><g fill="#000"><path d="m117.9 55.85c10.81 20.93-21.31 33.27-33.79 18.39z"/><path d="m37.43 56.4c-10.3 21.17 22 32.8 34.2 17.61z"/><path d="m63.93 114.94s-27.93 8.84-24.18 21.86 39.06 4.64 39.06 4.64c49.19 12.72 45.19-16.74 15.81-26.5-11.16-1.86-30.69 0-30.69 0z"/></g><path d="m52.45 128.63c-1 .18-1.52.57-.23 1.13 9.38 2.15 21.33 7.92 29.29 11.1-3.51-7.04-21.33-12.56-29.06-12.23z" fill="#202020"/><path d="m62.53 114.94 23.25 14.65 3.72-.7-23.02-14.65z" fill="#4e524d"/><path d="m73.68 134.53c-2.28 3 7.14-1.58 10.14-2.06 5.3-1.88 14.8-2.05 19.67-3.37-6.35-4.35-24.03.64-29.81 5.43z" fill="#202020"/><path d="m44.94 86c-4-1.7-2.76-.61 1.7 2.08l4 2.14c1.52.76 3.23 1.55 5.07 2.41 13.7144382 5.9317336 28.3932076 9.320185 43.32 10l4.8.09c2 0 3.94-.09 5.66-.2s3.26-.26 4.58-.41c5.64-.79 6.5-1.47-1.77-1.16-18.65 1.55-52.11-6.36-67.36-14.95z" fill="#515151"/><path d="m39.71 46.36c-4.27 2.16-2.43 1.79 2.87 0l4.64-1.49 5.78-1.79c39.77-12.11 86-3.55 62.08-7.93-20.22-3.56-58.23 2.29-75.37 11.21z" fill="#515151"/><path d="m54.07 20.31c-2.3 0-.34.89 1.71 1.6 9.91 2.84 24.08 11.16 31.61 14.15-7.21-7.76-23.89-14.2-33.32-15.75z" fill="#515151"/><path d="m39.64 35.22c2.62 3.09 10.88.49 20-2 9-2.77 17.39-5.05 17.92-9.06-4.33-14.47-43.09-1-37.92 11.06z" fill="#3a393a"/><path d="m47.65 135.4c-2.52-7.57 12.46-18.19 15.34-20.14-22.91 6.61-36.59 28.18-5.64 28.83-3.3-1.09-7.97-3.51-9.7-8.69z" fill="#232323"/></g></svg>