<svg height="110" viewBox="0 0 118 110" width="118" xmlns="http://www.w3.org/2000/svg"><g fill="none"><path d="m112.59 107.8c.008901.05967.008901.12033 0 .18 9.41-7.71-2.35-12.78 0-.18z" fill="#d68c63"/><path d="m70.76 58.69c-25-9.38-46.66-27.1-64.2-47.41 16.44 25.99 40.52 47.48 63.16 67.86-27.26-17.41-50-45.62-68-72.59 2.4 33.63 26.77 63.69 51.71 84.68 3.55-5 10.21-11.46 16.82-11.45.4093314-2.1456365 1.4223078-4.1299602 2.92-5.72-2.04-4.43-3.69-10.5-2.41-15.37z" fill="#fff"/><path d="m32.3 43.79c10.91 12.7 25.14 23.54 37.5 35.14l.53.41c.4411573-1.9799115 1.4085061-3.8040549 2.8-5.28-2-4.43-3.65-10.5-2.37-15.37-25-9.38-46.66-27.1-64.2-47.41 7.7166589 11.4930969 16.3230615 22.3631104 25.74 32.51z" fill="#939ba3"/><path d="m31.58 58.82c7.97 9.74 17.42 18.18 27.48 26.18 2.23-1.86 6.15-4.7 10-5.26 0-.24-.74 0-.89-1.12-24.11-17.42-44.08-40.25-61.65-64.45 5.7422312 16.205216 14.2181516 31.3069656 25.06 44.65z" fill="#c4c5c6"/><path d="m78.3 75.19c-.0051667-.0230473-.0051667-.0469527 0-.07-3-4.24-7 4.3-7.32 7.46.6134128.3885201 1.2903993.6660845 2 .82.0662796-.0101597.1337204-.0101597.2 0 1.09-2.52 3.13-5.17 5.12-8.21z" fill="#eab27a"/><path d="m111 107.81c-1-2.91-.51-7.17 3-9.33-11.34-7.18-23.14-14.35-34.15-22.89-1.7655239 2.8507997-3.6781066 5.6078561-5.73 8.26 11.88 7.57 24.33 16.3 36.88 23.96z" fill="#eab27a"/><path d="m110.83 102.57c-10.53-3-37-13.48-28.31-24.74-.9534851-.6675511-1.8468763-1.4170628-2.67-2.24-1.7655239 2.8507997-3.6781066 5.6078561-5.73 8.26 11.87 7.57 24.33 16.3 36.84 24-.712598-1.679559-.759079-3.567407-.13-5.28z" fill="#d68c63"/><path d="m117.65 99.54c-11-9-25.45-17.28-38.15-25.52-.76-1.88-3.29-2-5-1-1.78-4-2.61-9.06-3-14.3-34.01-19.14-51.79-32.19-70.62-58.72l-.75 2.92c-2.6 33.25 33.37 78.08 53.01 90.08 4.71-3.6 9.91-10 16.93-12.38-.1526558.7552414-.1286991 1.5355458.07 2.28-.08.76.88 2.24 3 1.91 11.9971668 9.4304191 24.8150667 17.767074 38.3 24.91 4.74.72 6.88-5.58 6.21-10.18zm-47.44-19.76c-6.54 0-12.88 6-16.82 11.45-26.86-21.7-50.71-56.14-51.71-84.68 17.86 28.56 54 66.82 68 72.05-23.43-19.6-46.06-41.22-63.12-67.32 17.36 20.17 39 37.86 64.2 47.41-1.28 4.87.37 10.94 2.37 15.37-1.4976922 1.5900398-2.5106686 3.5743635-2.92 5.72zm2.88 3.61c-.0662796-.0101597-.1337204-.0101597-.2 0-.7203409-.1177165-1.4043497-.3981601-2-.82 0-2.55 4.64-12 7.32-7.46-.0051667.0230473-.0051667.0469527 0 .07-1.8650712 2.6346384-3.5746496 5.3759742-5.12 8.21zm37.91 24.42c-12.23-7.5-24.31-15.92-36.84-24 2.0631089-2.6439058 3.9761204-5.4015804 5.73-8.26 10.32 8.07 22.52 15.52 34.07 22.89-2.58 1.32-4.45 6.16-2.96 9.37zm5-5.32c-.33 1.62-.85 4.7-3.36 5.49-2.89-3.57 3.93-12.51 3.36-5.49z" fill="#000"/></g></svg>