<svg height="149" viewBox="0 0 131 149" width="131" xmlns="http://www.w3.org/2000/svg"><g fill="none"><path d="m121.05 2c-40.63 44.49-80.05 90.13-118.75 136.56 4.25287877.645716 7.8970277 3.384463 9.7 7.29 39-44.6 77.37-90.49 116.71-135.11-1.231704-3.84903401-4.00573-7.01417631-7.66-8.74zm-76.05 90c-5.93 7.71-45.2 56.4-36.56 43.41 12.37-14.6 24.18-31.83 36.56-43.41zm3.51-3.87c-.16.13-.09.36-.52.2-.13-.33.26-1.02.51-.21zm68.69-67.87c-.68 1.18-1.4-2.84.08-1.55.00051.5146623-.029543 1.0289008-.09 1.54zm2.92-2.92c-1.18.4-.79-2-.7-4.09 1.08-.77.88 2.02.69 4.08zm2.34-.9c-1.45.46-1-3.92-.84-5.83 1.38-.42 1.01 3.92.83 5.82z" fill="#eab27a"/><path d="m127.38 7.71c-.221979-.39546716-.469155-.77625264-.74-1.14-.51 2.24-2.23 4.34-4.06 6.17.39 1.2-.47 7.37-1.15 1.12-.4.39-.8.76-1.18 1.11-.91 1.89-.8 2.36-1 .9.8-.84 1.41 2.14 0 0-.62.6-1.24 1.24-2.39 2.45 1 .19-.39 4.51-.45.46-36.89 39.7-70.17 83.28-108.7 122 1.82856906 1.283602 3.2790427 3.034531 4.2 5.07 35.95-41 80.92-94.61 116.71-135.11-.294705-1.05457585-.710823-2.07137999-1.24-3.03z" fill="#d68c63"/><path d="m7 142.35c-1.37923825-1.006698-2.93669437-1.743012-4.59-2.17 1.36629173 3.277794 4.3404709 5.607883 7.85 6.15-.79294662-1.542302-1.90407393-2.898832-3.26-3.98z" fill="#d68c63"/><g fill="#000"><path d="m130.12 9.18c-1.560542-3.67699627-4.403455-6.66205478-8-8.4l-2-.78c-41.46 45-81.12 91.53-120.12 138.72l.12.48c-.00592744.022957-.00592744.047043 0 .07l.32 1.31c1.60591758 3.999652 5.16480671 6.88534 9.41 7.63l2.71.19c38.87-46 79.3-91.46 118.05-137.83zm-121.36 136.82c-2.90022493-.844208-5.24088494-2.992586-6.33-5.81 2.92 1 5.92 2.27 7.85 6.15-.51357471-.079877-1.02133792-.193455-1.52-.34zm98.59-110.82c-31.79 36.82-63.35 73.82-95.35 110.67-1.7748581-3.911357-5.41183311-6.656031-9.66-7.29 38.43-46.13 78.08-92.06 118.71-136.56 3.652823 1.73152223 6.415531 4.91117404 7.62 8.77-7.36 7.88-14.28 16.23-21.32 24.41z"/><path d="m122.26 10.59c-1.42-.39-.78 4-.49 5.84 1.48.45.79-3.95.49-5.84z"/><path d="m120.15 13.23c-.94-.91-1.34 2.87-.37 4.35.63-.51.28-.07.49-1.6-.02-.64 0-1.27-.12-2.75z"/><path d="m116.46 18.7c.19.29-.41 1.2.4 1.79.63.11.81-2.97-.4-1.79z"/><path d="m44.45 91.58c-7.72 8.91-48.14 57.65-34.38 43.28 11.4-14.7 25.93-29.28 34.38-43.28z"/><path d="m48.18 87.8c-.14.16-.36.08-.2.52.31.11 1.02-.32.2-.52z"/></g></g></svg>