<svg height="96" viewBox="0 0 90 96" width="90" xmlns="http://www.w3.org/2000/svg"><g fill="none"><path d="m75.77 44.1c-1.85-1.92 5.08-4.46 4.13-8 .57-4.56-.73-8.8 2.34-12.62 1.32-1.52 6.39-5.59 6.47-1.78-12.31 4.09-.96 19.54-12.94 22.4z" fill="#c1b49a"/><g fill="#9a8479"><path d="m85.83 20.77c-.0635179.7907351-.0061935 1.5865323.17 2.36.22-.12.44-.24.67-.35-.1398525-.7724937-.1567273-1.5622375-.05-2.34-.28.1-.54.21-.79.33z"/><path d="m84.11 24.65c.1813869-.2113749.3786251-.4086131.59-.59-.2166546-.8454448-.2709479-1.7243172-.16-2.59-.27.17-.53.36-.78.55-.042509.8905839.0760579 1.7815293.35 2.63z"/><path d="m82.8 26.77c.1003882-.2572787.2172985-.5078008.35-.75-.4814309-.7335598-.8206562-1.5510928-1-2.41-.1979161.2494049-.3815437.5098222-.55.78.2486088.8610177.6555613 1.6681402 1.2 2.38z"/><path d="m82.29 29.17c0-.14 0-.27 0-.4-.7250492-.5179287-1.3515867-1.1613996-1.85-1.9-.08.31-.15.63-.21.95.5548254.7081905 1.2322262 1.3110773 2 1.78.05-.14.05-.29.06-.43z"/><path d="m82.24 32.31v-.77c-.7934557-.3232059-1.5218624-.7873534-2.15-1.37v.94c.6451489.5164797 1.3717366.922017 2.15 1.2z"/><path d="m82.15 35.2c0-.25 0-.5 0-.75-.7836169-.3083013-1.505176-.7554647-2.13-1.32v.93c.6410376.4967724 1.3610877.8821513 2.13 1.14z"/><path d="m81.76 38c0-.24.1-.48.14-.73-.7337042-.3115395-1.4097974-.7442392-2-1.28 0 .29-.07.57-.12.85.6023655.4775625 1.2688906.868052 1.98 1.16z"/><path d="m81.15 39.84c-.6757676-.2804592-1.3033877-.6651296-1.86-1.14-.0911514.2320249-.1946321.459015-.31.68.5675098.4516028 1.1931018.82494 1.86 1.11.16-.21.21-.43.31-.65z"/><path d="m78.1 40.61c-.1701472.1801385-.3504406.3504156-.54.51.4198241.5971063.9213838 1.1323278 1.49 1.59.1895594-.1595844.3698528-.3298615.54-.51-.5783236-.4471022-1.0813534-.9838923-1.49-1.59z"/><path d="m76.72 44.09c.2352588-.0912055.4655748-.1946808.69-.31-.467987-.5633938-.8427318-1.1980967-1.11-1.88-.2280088.0901852-.4458786.2041478-.65.34.2668972.664402.6271918 1.2873412 1.07 1.85z"/></g><path d="m76.91 41.72s-6.53-3.14-12-3.1200951l-3 6.1700951 22 10.55 3-6.17c-3.47-4.3-10-7.43-10-7.43z" fill="#32313f"/><path d="m85.35 47.5c-2.41 3.56-5.35-.5-8.62-2.17-4.1336994-2.2561941-8.7812327-3.4034354-13.49-3.33-.35.75-.82 1.73-1.32 2.76l22 10.55 3-6.17c-.4883019-.5791591-1.012678-1.1269151-1.57-1.64z" fill="#32313f" opacity=".5"/><path d="m86.92 80.07c-16.78 30.69-59.59 8-46.19-22.18 16.78-30.69 59.59-7.98 46.19 22.18z" fill="#32313f"/><path d="m76.74 56.09c0 15.4-28.14 16.11-29.5300425 2.25-.0399575-15.41 28.1400425-16.12 29.5300425-2.25z" fill="#fff" opacity=".5"/><path d="m88.61 62.51c-4.61 29.15-43.15 29.37-50.21 3.34-1.63 41.68 58.07 35.2 50.21-3.34z" fill="#32313f" opacity=".5"/><path d="m27.24 39.1c-2.71-.88 2.7-6.37.41-9.19-1.4-4.7-4.64-7.82-3.81-13 .41-2.24 3.55-8.9 5.5-5.24-9.87 9.55 8.01 19.24-2.1 27.43z" fill="#c1b49a"/><path d="m26.15 12.1c.2996137.7887851.7177526 1.5272724 1.24 2.19.15-.22.31-.43.48-.64-.4902736-.6764574-.8715615-1.4255364-1.13-2.22-.21.22-.4.44-.59.67z" fill="#9a8479"/><path d="m26.29 16.61c.08-.28.18-.56.29-.84-.593521-.7124164-1.0480563-1.5299016-1.34-2.41-.18.29-.34.59-.49.89.3673584.8728099.8890318 1.6722575 1.54 2.36z" fill="#9a8479"/><path d="m26 19.25c-.0149435-.2964785-.0149435-.5935215 0-.89-.7978287-.4800741-1.4996982-1.1039581-2.07-1.84-.07.33-.13.66-.17 1 .6349199.7084415 1.3940818 1.2947585 2.24 1.73z" fill="#9a8479"/><path d="m26.63 21.78c-.06-.14-.1-.27-.15-.4-.9338012-.1688942-1.8286442-.5078499-2.64-1 .06.34.14.67.23 1 .8606787.4182667 1.7880737.6822697 2.74.78-.06-.1-.13-.24-.18-.38z" fill="#9a8479"/><path d="m28 24.81-.35-.73c-.9124168.0500361-1.8264929-.0616843-2.7-.33l.42.91c.8619588.1977874 1.7511426.2485014 2.63.15z" fill="#9a8479"/><path d="m29.27 27.63c-.1-.25-.2-.5-.31-.74-.8935464.0614944-1.7909021-.0367068-2.65-.29l.41.9c.8364551.1877909 1.6987839.2317527 2.55.13z" fill="#9a8479"/><path d="m30.17 30.48c-.05-.26-.12-.51-.19-.77-.8449413.0407097-1.690592-.064151-2.5-.31.1.3.19.59.27.88.7937788.1766659 1.607988.2439559 2.42.2z" fill="#9a8479"/><path d="m30.44 32.53c-.7739275.041843-1.5496835-.0357326-2.3-.23.0149931.2664559.0149931.5335441 0 .8.7552431.1628737 1.5279793.2300681 2.3.2.02-.25.01-.51 0-.77z" fill="#9a8479"/><path d="m27.87 34.68c-.0741359.2502688-.1677554.4943482-.28.73.6776745.3785741 1.4046082.6612705 2.16.84.1063421-.2381421.1998102-.4818268.28-.73-.755938-.1769704-1.4831113-.4597601-2.16-.84z" fill="#9a8479"/><path d="m28.16 38.65c.18-.21.35-.41.51-.62-.7059097-.3280736-1.3569162-.7632023-1.93-1.29-.1737838.1931145-.3310053.4005132-.47.62.5626061.5212668 1.1995654.9560168 1.89 1.29z" fill="#9a8479"/><path d="m28.55 0 1.45 7.17 5.19-4.65-3.05 6.18 5.46.13-4.94 2.21 5.68 4.39-6.62-.52 1.28 2.3-3.31-.95-.27 5-2.3-4.32-5.27 2.83 3.11-4.99-5.06.48 3.71-2.92-7.01-.22 6.6-2.48-3.1-2.97 3.1.81-.97-5.85 3.41 4.9z" fill="#f8ec32"/><path d="m28.93 7.87.23 2.13 2.24-.08-1.51 1.26 2.39 1.6-2.49.01.48 2.59-1.99-2.07-2.45 1.1.95-2.07-2.69-.58 2.61-.96-1.73-2.35 2.62 1.14z" fill="#ed2924"/><path d="m27.24 36.28s-7.7 0-13 2.55v7.28h25.97v-7.28c-5.21-2.55-12.97-2.55-12.97-2.55z" fill="#32313f"/><path d="m38 37.94c-.67 4.53-5.32 2-9.26 1.89-4.9957555-.2757512-9.9768796.7583922-14.45 3v3.25h25.92v-7.25c-.7173229-.3426067-1.4554403-.6398576-2.21-.89z" fill="#32313f" opacity=".5"/><path d="m54.48 68.44c-2 37.22-53.45 35-54.48 0 2-37.22 53.45-35.03 54.48 0z" fill="#32313f"/><path d="m33.69 50.13c7.02 14.19-18.21 27.87-26.69 16.56-9.28-14.35 18.81-29.69 26.69-16.56z" fill="#fff" opacity=".5"/><path d="m48 50.83c9 30-27.85 48-46.59 26.31 17.59 40.68 71.91 7.06 46.59-26.31z" fill="#32313f" opacity=".5"/></g></svg>