<svg height="168" viewBox="0 0 126 168" width="126" xmlns="http://www.w3.org/2000/svg"><g fill="none"><path d="m44.9966376 83.5099018c.0043032-3.6379168-1.6461304-7.0809146-4.4863759-9.3590882-2.8402456-2.2781736-6.5628899-3.1449456-10.1192505-2.3561432-1.6125397-3.3754247-5.4834004-5.0312102-9.0427814-3.8681077-3.5593809 1.1631026-5.7012361 4.7836694-5.0036231 8.4580656-3.7513874 1.1186024-6.45358918 4.3905652-6.83910448 8.281134s1.62213558 7.6279213 5.08123938 9.4590063c-.0264868.2567697-.0398749.5147188-.0401124.7728471.0009442 3.1655734 1.8983876 6.0234203 4.8179712 7.2566203 2.9195836 1.233199 6.294721.602431 8.5701187-1.601641 2.4724589 3.24431 7.0154088 4.068505 10.4726403 1.899975 3.4572316-2.16853 4.6861065-6.6130704 2.8328653-10.2457818 2.3965172-2.25976 3.7552098-5.4054262 3.7564129-8.6968864z" fill="#bed3dd"/><path d="m71.0224719 122.003815-14.348427 2.532959-.0283146 40.527349h21.3350562l-2.8526966-17.617615s3.6266292-3.619187 3.4119101-5.407574-7.5175281-20.035119-7.5175281-20.035119z" fill="#1f1e21"/><path d="m56.6504494 147.696269-.0117977 17.360786h21.3350562l-2.8055057-17.360786z" fill="#474b4f"/><path d="m76.5107865 156.006732-.162809-1.003759-1.2434831-1.244095.8895505-.956634-.120337-.744572-1.1915731 1.279439-4.62-4.611164.9579776-1.029678h-.814045l-.5662921.607911-.6087641-.607911h-.84l1.0452809 1.043815-4.247191 4.556971-4.4619101-4.453296 1.0665169-1.14749h-.8116854l-.6748315.725723-.7291011-.725723h-.8423596l1.165618 1.161627-3.0532584 3.279888v.874166l3.475618-3.732287 4.4642696 4.455653-4.4666292 4.792594-3.475618-3.470743v.841178l3.0674158 3.063114-3.0674158 3.298737v.876522l3.4992135-3.758205 4.6129214 4.615877-.9886517 1.060308h.8140449l.5969663-.638541.6394382.638541h.8423596l-1.0665169-1.060308 4.4619101-4.794951 4.315618 4.309565.4247191-.433548-4.3321348-4.323703 4.247191-4.55697zm-11.3470786 7.55411-4.62-4.611165 4.4619101-4.79495 4.62 4.61352zm4.8677528-5.221431-4.62-4.61352 4.247191-4.556971 4.62 4.611164z" fill="#1f1e21"/><path d="m82.6291011 160.37756c-3.0886517-1.823731-25.9550562 2.492903-25.9550562 2.492903s-.235955 1.453801-.235955 5.054137h31.2876404s-2.0079775-5.728022-5.0966292-7.54704z" fill="#231f20"/><path d="m40.3483146 122.003815s-8.935618 18.220813-8.4353933 20.51108c.5002248 2.290266 4.3014607 5.061206 4.3014607 5.061206l-2.8314607 17.480954h21.3374158l-.0283146-40.52735z" fill="#1f1e21"/><path d="m36.167191 147.875344-2.777191 17.181711h21.3374157l-.0117977-17.181711z" fill="#474b4f"/><path d="m49.9540449 159.046283 4.4619102-4.453296.304382.327518v-1.472651l-.2878652.287462-4.4619101-4.794951 1.0594382-1.057953h-.8423596l-.6229213.622048-.5804494-.622048h-.814045l.9721349 1.043815-4.4619102 4.455652-4.247191-4.559326.9438203-.942497h-.8423596l-.5073034.504236-.4719101-.504236h-.8116854l.861236.926003-4.2802247 4.271865-.2170787 1.345414 4.1032584 4.408527-4.3297752 4.323703.4223595.421767 4.315618-4.307209 4.4619101 4.792595-1.0004494.999046h.8423595l.5639326-.563141.5238202.563141h.814045l-.9155057-.982552 4.62-4.613521 5.1910113 5.581936v-.876522zm-14.5607865-5.18373 4.62-4.613521 4.247191 4.556971-4.62 4.601739zm9.1125843 9.785469-4.4642697-4.804375 4.62-4.613521 4.4642697 4.794951zm.5780899-9.825526 4.4666292-4.467433 4.4642697 4.794951-4.4642697 4.453296z" fill="#1f1e21"/><path d="m28.7346067 160.37756c-3.0862921 1.819018-5.0942696 7.539972-5.0942696 7.539972h31.2876404c0-3.600337-.235955-5.054138-.235955-5.054138s-22.8687641-4.309565-25.9574158-2.485834z" fill="#231f20"/><path d="m41.1835955 82.3741935s-4.8795506 21.9130435-4.8795506 30.5203925c0 12.693072 6.856854 15.99181 18.8150562 15.99181 11.9582023 0 19.9146068-3.298738 19.9146068-15.99181 0-8.607349-6.6893259-30.5203925-6.6893259-30.5203925z" fill="#1f1e21"/><path d="m34.3880899 99.1482749c-2.5435955.6927349 3.9498876-3.8901543 4.4524719-4.1422721l2.5317978-10.1813184c-6.9370787 1.8001683-23.2108989 11.6751753-22.5101124 20.0822436.9674157 11.580926 22.7625843 5.487686 35.0629213-3.409481l-4.4052809-14.5309393s-12.5905618 11.4890323-15.1317977 12.1817672z" fill="#474b4f"/><path d="m104.554045 5.44056101s5.476517 26.82109399-10.8798877 34.79461429l2.7889888 2.617784c21.5922469-7.7449649 22.0759549-34.02883588 22.0759549-34.02883588-7.918652 1.82608698-13.985056-3.38356241-13.985056-3.38356241z" fill="#b10d28"/><path d="m121.474382 28.1453015s-14.940674 17.6835905-25.1292135 11.9861992l-.1769663 3.6026928c13.7349438 7.7567462 29.6524718-2.7638709 29.6524718-2.7638709-6.77427-4.7643198-4.346292-12.8250211-4.346292-12.8250211z" fill="#b10d28"/><path d="m55.2889888.06126227c-23.5459551 0-42.6323596 12.89806453-42.6323596 46.62058903 0 32.7823843 19.0864045 40.5956803 42.6323596 40.5956803 23.545955 0 42.6323595-7.813296 42.6323595-40.5956803 0-33.7225245-19.088764-46.62058903-42.6323595-46.62058903z" fill="#1f1e21"/><path d="m21.5780899 23.178345s12.5976404-18.72269283 42.0849438-19.00308553c-33.0313483-5.11775596-42.0849438 19.00308553-42.0849438 19.00308553z" fill="#6d6e71"/><path d="m55.7089888 43.1851893c-36.5966292 0-37.1133708 4.9598878-37.1133708 11.0743338s.5167416 11.0743338 37.1133708 11.0743338c38.2034831 0 37.1110112-4.9598878 37.1110112-11.0743338s1.0901124-11.0743338-37.1110112-11.0743338z" fill="#f9b5ab"/><path d="m55.7089888 43.1851893c-30.7449439 0-36.025618 3.5013745-36.9269663 8.2468444h73.9483146c-.5639326-4.7454699-4.924382-8.2468444-37.0213483-8.2468444z" fill="#d68c81"/><path d="m34.0151366 39.2183532 2.9766139.0015437.0107622 20.7710938-2.9766139-.0015438z" fill="#1f1e21" transform="matrix(.40370498 -.91488922 .91488922 .40370498 -24.209044 62.06566)"/><path d="m63.8682864 48.1982523 20.6269186.0109327.0015791 2.9766537-20.6269186-.0109327z" fill="#1f1e21" transform="matrix(.90967154 -.41532841 .41532841 .90967154 -13.937724 35.298721)"/><path d="m11.3423596 39.0664797.188764 12.6459467s16.3398876-4.7690323 43.7555056-4.7690323 43.864045 4.7690323 43.864045 4.7690323l.188764-12.6459467s-16.894382-5.5937167-44.052809-5.5937167-43.9442696 5.5937167-43.9442696 5.5937167z" fill="#d82035"/><path d="m32.7972417 49.8388408 1.7860363.0001172.0009683 14.7801794-1.7860364-.0001172z" fill="#1f1e21" transform="matrix(.04675777 -.99890626 .99890626 .04675777 -25.050955 88.206984)"/><path d="m71.1484685 56.3367498 14.7801791.0009719.0001176 1.7860363-14.7801791-.0009718z" fill="#1f1e21" transform="matrix(.99889808 -.04693211 .04693211 .99889808 -2.599393 3.749046)"/><path d="m39.2275281 69.7282468c19.0698876 8.7487237 32.0426966.7233661 32.0426966.7233661s-15.3347191 3.5532118-32.0426966-.7233661z" fill="#6d6e71"/><path d="m44.9140449 79.3723422c10.4905618 2.8604769 18.7938203-2.8887517 18.7938203-2.8887517s-11.8638203 3.6286115-18.7938203 2.8887517z" fill="#6d6e71"/><path d="m37.8519101 96.9286957c-.1439326 3.9372793.8966292 8.0701263 3.4095506 11.2274893 4.5303371-1.687069 9.0158427-4.026816 12.6637078-6.668163l-4.4052809-14.5309393s-7.0479775 6.4419636-11.6679775 9.971613z" fill="#1f1e21"/><path d="m68.7431461 84.0494811 2.8432584 10.9565217c.5049438.2521178 6.998427 4.835007 4.457191 4.1422721-2.5412359-.6927349-15.1341573-12.1911922-15.1341573-12.1911922l-4.4052809 14.5309393c12.3003371 8.897167 34.0955056 14.990407 35.0629214 3.409482.6913483-8.4070692-15.886854-19.0478546-22.8239326-20.8480229z" fill="#474b4f"/><path d="m60.9094382 86.9570827-4.4052809 14.5309393c3.6502247 2.641347 8.1357303 4.981094 12.6637079 6.668163 2.5129213-3.157363 3.5534831-7.29021 3.4095505-11.2274893-4.6223595-3.5296494-11.6679775-9.971613-11.6679775-9.971613z" fill="#1f1e21"/><path d="m57.5517978 76.9831136c-1.8121349-.8576718-4.9998877 3.4895933-2.5671911 10.7680224l4.1646068.1672932s.2147191-10.08-1.5974157-10.9353156z" fill="#f9b5ab"/><path d="m53.0403371 77.1645442c-1.8121349.8529593-1.5974158 10.9353155-1.5974158 10.9353155l4.1646068-.1649368c2.4374157-7.2807855-.7550562-11.6256943-2.567191-10.7703787z" fill="#f9b5ab"/><path d="m53.1488764 86.6413464c-4.4288764 0-8.0224719 2.3020477-8.0224719 8.0889762 0 5.7869284 3.5912359 8.0889764 8.0224719 8.0889764s8.0224719-2.302048 8.0224719-8.0889764c0-5.7869285-3.5983146-8.0889762-8.0224719-8.0889762z" fill="#f9b5ab"/><path d="m57.4975281 86.6413464c-4.4288764 0-8.0224719 2.3020477-8.0224719 8.0889762 0 5.7869284 3.5888764 8.0889764 8.0224719 8.0889764s8.0224719-2.302048 8.0224719-8.0889764c0-5.7869285-3.5935955-8.0889762-8.0224719-8.0889762z" fill="#f9b5ab"/><path d="m36.3889888 110.634951c-.0235955.379355-.0448315.744572-.0589888 1.095652h38.6659551c-.0188764-.35108-.0471911-.706872-.0825843-1.095652z" fill="#b10d28"/><path d="m40.5842697 140.366003s-1.0311236 4.191753 4.5326966 3.581486c-3.102809-.216774-4.5326966-3.581486-4.5326966-3.581486z" fill="#52575b"/><path d="m66.0037079 144.173689s5.1391011 1.265301 4.5067415-4.104573c-.7577684 2.009651-2.4331976 3.535569-4.5067415 4.104573z" fill="#52575b"/><g fill="#bed3dd"><path d="m33.4301731 131.812847c.0111972-3.3996-1.5418173-6.615996-4.2125107-8.724264s-6.1631072-2.874776-9.4729433-2.079102c-2.0678522-2.464322-5.4582784-3.374145-8.4845815-2.276844-3.02630308 1.097302-5.04231013 3.967433-5.04508142 7.182538 0 .096606 0 .190856.01651685.285106-3.30062204 1.043809-5.65162744 3.963592-5.9639634 7.406822-.31233595 3.443229 1.4750051 6.73735 4.53407576 8.356431-.02123595.235624-.03539326.457111-.03539326.690379-.00012098 2.820668 1.69001872 5.367609 4.29134629 6.466804 2.60132758 1.099196 5.60882528.537252 7.63618178-1.426804 2.131594 2.797185 6.0068596 3.587825 9.0663511 1.849737s4.3591054-5.468562 3.0405029-8.727605c2.9049382-2.081535 4.628152-5.432792 4.6294989-9.003198z"/><path d="m87.591236 131.089481c0-2.443872-1.983932-4.425021-4.431236-4.425021-.3924092.0012-.7828746.055091-1.1608989.160224-.1299224-1.26985-.9519004-2.364058-2.1363855-2.843933s-2.5375552-.266852-3.5167359.553663c-.9791808.820515-1.424162 2.114189-1.1565415 3.36236-2.2822481.817396-3.6441578 3.156465-3.2264876 5.541467s2.4936926 4.123695 4.9182854 4.119122c.251263-.002357.5020275-.022831.750337-.061262.7200118 1.689267 2.5308806 2.63943 4.3324298 2.273227s3.0963653-1.947662 3.097795-3.783578c-.0004055-.288715-.0336523-.57645-.0991012-.857671 1.597809-.709897 2.6276795-2.292233 2.6285394-4.038598z"/><path d="m94.6368539 10.7421038c1.5668306-3.74311325-.022422-8.05943688-3.6442104-9.89747696s-8.050175-.57563927-10.1544413 2.894728c-2.1268754-1.15673702-4.7685074-.72573497-6.416101 1.04683496-1.6475937 1.77256994-1.8815196 4.43524784-.5681686 6.4672183-2.6169363 1.9880575-3.6694366 5.4233519-2.6144093 8.5332665 1.0550274 3.1099146 3.9816807 5.1990795 7.2698025 5.1894825.3856365-.0027071.7705302-.0342115 1.1514607-.0942497 1.0426779 2.4546643 3.5976092 3.9126991 6.2447517 3.5637224 2.6471426-.3489767 4.7356361-2.4191611 5.1046865-5.0599356h.1722472c3.0691629.0048796 5.7609318-2.0445111 6.5689033-5.0012647.8079714-2.9567537-.4682799-6.0874182-3.1145213-7.6399695z"/><path d="m95.6561798 112.003927c-.3514566.003352-.7007873.054886-1.0382023.153156-.2395208-1.162985-1.117101-2.090665-2.2662153-2.395591s-2.372087.065356-3.158138.956197c-.7860511.890841-.9999606 2.148995-.5523882 3.248987-1.2515458.845283-1.8778707 2.354305-1.5920916 3.835871s1.4286143 2.650292 2.9050393 2.970852 3.0020455-.268793 3.8780635-1.498111c1.4196219.758843 3.1615487.559891 4.3729251-.499449 1.2113765-1.05934 1.6386855-2.75737 1.0727148-4.262726-.5659708-1.505355-2.0067749-2.502997-3.6169882-2.504473z"/></g><path d="m44.9659551 92.0394951c-1.3331461 7.7284712 3.4897752 9.6299579 3.4897752 9.6299579l3.475618-4.9245442-3.3482022-10.1530434s-2.1566292 1.7106311-3.617191 5.4476297z" fill="#474b4f"/><path d="m62.0042697 86.5918654-2.7889888 9.4249649 2.9164045 5.6549787s4.8229213-1.9014864 3.4921348-9.6299577c-1.4605618-3.7393548-3.6195505-5.4499859-3.6195505-5.4499859z" fill="#474b4f"/></g></svg>