<svg height="42" viewBox="0 0 41 42" width="41" xmlns="http://www.w3.org/2000/svg"><g fill="none"><path d="m23.13 31.33.7-.95 1.56.32c4.6479598 1.1326266 9.0523691 3.0976708 13 5.8.122286-7.2667405-4.4473828-13.7861885-11.32-16.15l.46-1.59c2-5.36 5.25-11.28 8.26-17.07-8.15 1.68-14 7.67-17.93 14.94h-.94c-5.33-.37-10.6-3.34-14.53-6.83-2.22 7.28 4.61 13.09 10.97 16.2l-.54 1.53c-1.6031623 4.1067029-3.5500721 8.0707718-5.82 11.85 6.3184376-.1016345 12.2502011-3.0620001 16.13-8.05zm-5.56-10.24c.5-1.39 2.49-2.7 4-2.24 8.91 3.97-4.73 11.91-4 2.24z" fill="#c4c5c6"/><g fill="#000"><path d="m29.07 19.21c2.61-5.94 6.16-12.46 9.18-18.84-7.37-2.41-18.9 7.44-21 14.82-5.49-1.27-10.45-4.27-15.34-7.86-5.81 6.88 2.85 16.55 9.75 19.67-1.6 4.11-5.63 9.08-7 13.69 7.25 2.52 16.11-3.25 20-8.85 4.94 1.15 10.16 5.07 14.94 7 2.5-7.17-3.82-17.22-10.53-19.63zm-3.68 11.49-1.56-.32-.7.95c-3.8797989 4.9879999-9.8115624 7.9483655-16.13 8.05 2.27144206-3.7888462 4.2183802-7.7630085 5.82-11.88l.54-1.5c-5.6-2.7-13.28-8.52-10.97-16.23 3.93 3.49 9.2 6.46 14.53 6.83h.94c3.79-7.07 9.65-13.2 17.93-14.94-3.0471184 5.54310089-5.8041683 11.2407815-8.26 17.07l-.46 1.59c6.27 2 11.75 8.78 11.37 16.15-3.9649673-2.6972402-8.3866586-4.6522715-13.05-5.77z"/><path d="m24.37 21.15c-.4365085-1.2292597-1.5187163-2.1150526-2.81-2.3-11.05 1.77 2.93 13.15 2.81 2.3zm-3.6 3.07c-1.53-.31-2.94-3.41.21-4 2.2.13 2.74 3.59-.21 4z"/></g></g></svg>