<svg height="168" viewBox="0 0 178 168" width="178" xmlns="http://www.w3.org/2000/svg"><g fill="none" fill-rule="evenodd"><g fill="#1d1819"><path d="m92.9229804 143.369298 10.6450976-2.849257s3.02251 5.286488 4.760628 5.523926 6.282353-2.493099 6.282353-3.491736c0-.998636-4.139373-10.719628-5.486588-12.039504-1.347216-1.319876-13.6047847 5.530909-13.6047847 5.530909z"/><path d="m126.177569 103.661281 33.966588 11.173554s8.139137-3.030827 9.947059-4.280868c1.807921-1.250041 7.12698 1.103388 7.727294 3.72219s-6.798902 10.761529-6.798902 10.761529l-5.584314 5.586777-5.430745-2.793389c-6.387059-.104752-24.326667-2.660702-37.393961-3.92471-4.46047-.425992-8.495137 2.37438-8.830196 2.569917-4.572157 2.674669-18.7981959 16.508926-20.8504312 16.872066-2.0522353.363141-10.6311373-2.541983-10.9173333-5.949917-.2861961-3.407934 13.7653333-23.359711 13.7653333-23.359711l30.4065882-10.398388z"/><path d="m60.4152941 75.5947107s-18.8470588 8.8620248-36.2980392 6.892686c-17.45098039-1.9693388-24.1172549-9.0366116-24.1172549-9.0366116 9.88900805-2.8593382 20.0173482-4.813439 30.26-5.8381818 16.1596078-1.5084297 24.9688627.8240496 24.9688627.8240496z"/><path d="m51.7596078 58.017314s-11.8038431-11.5297107-23.9985882-15.2728512-19.38454901-3.0447934-19.38454901-3.0447934 10.06572551 15.5102893 27.06996081 23.7996694c17.0042353 8.2893802 21.681098 5.1957025 21.681098 5.1957025z"/><path d="m76.7843137 92.2782231c4.1229384-2.4615465 8.4016562-4.6520033 12.8090196-6.5574793 8.1042353-3.5895041 12.0272157-3.9945455 12.0272157-3.9945455s3.392471-2.0252066 12.034196-3.9945454c4.670945-1.1078083 9.409013-1.9102759 14.184157-2.4023141l-3.183059 22.7242149 2.84102 7.6119833s0 1.124339-2.792157 2.870207-12.466981 5.139835-12.466981 5.139835-9.730666 3.030826-13.0603132 3.338099c-3.3296471.307272-2.7293334-1.871571-2.7293334-1.871571l-6.4778039-6.285124z"/><path d="m94.9333333 110.588884c3.2319216-.405041 6.5615687-.984669 9.7376467-1.683016 1.832496-.382532 3.63929-.879328 5.409804-1.48748h.041883.041882c1.784452-.570237 3.530763-1.253674 5.228314-2.046157 2.966666-1.333843 5.975215-2.863223 8.809255-4.469421l1.221568-.698347 3.092314 3.610454-1.193647 1.117356c-1.234738 1.119255-2.525443 2.175117-3.867137 3.163512-2.809315 2.137586-5.853968 3.946439-9.07451 5.39124-.591007.260716-1.19132.493498-1.800941.698347l-.160549.055868h-.034902l-.16753.055867c-.614274.188554-1.242509.356157-1.870745.50281-3.436854.764534-6.949982 1.132404-10.470588 1.096405-1.6642173.019655-3.3282124-.054955-4.984-.223471l-1.6264314-.174587.2722353-4.762727 1.3960784-.174587z"/></g><path d="m95.1636863 112.278884s9.9470587-1.257024 15.5104317-3.261281c5.654117-1.717934 14.379607-6.662231 14.379607-6.662231l1.123844 1.305909s-6.722118 6.250207-14.149255 8.917893l-.153569.048884-.160549.048884c-7.545804 2.304546-16.6691764 1.319876-16.6691764 1.319876z" fill="#fff000"/><path d="m111.504784 77.0542562-4.935137 27.0819008-.167529-8.0589256-14.1073729-12.6470661z" fill="#fff000"/><path d="m91.0243137 106.936529c-8.2643638-2.882042-16.7255677-5.164564-25.3178823-6.829835-12.9346667-2.360413-15.2730981.125703-15.2730981.125703s-1.8847058 2.416281-3.0155294 3.07971c-1.1308235.66343-3.008549-.838016-3.008549-.838016s-2.9736471.209504-3.9997647-.551694c-1.0261177-.761199-2.3872941-12.2909094-.4816471-13.8621904 1.9056471-1.571281 22.2046275-2.0321901 39.5578824.2444215s11.5385882 18.6319009 11.5385882 18.6319009z" fill="#1d1819"/><path d="m121.354118 98.8985537s6.652313-13.757438 13.367451-22.7800826c6.715137-9.0226447 8.097255-10.2377686 10.198353-10.3983885 2.101098-.1606198 3.141176.488843 4.46047.1815703s1.675294-2.7933884 1.675294-2.7933884 2.394275-1.9553719 2.624628-3.261281-5.696-8.4709504-8.264785-8.3103306c-2.568784.1606198-17.569647 10.866281-29.045411 24.9100413-11.475765 14.0437603 4.984 22.4518595 4.984 22.4518595z" fill="#1d1819"/><path d="m53.365098 82.0195041c10.1215687 13.1498761 32.7659608 15.2798347 47.285177 12.3537604 2.659529-.5377273 7.678431-1.69 8.858117-2.2556612 6.031059-2.9540083 19.335686-9.9444628 25.45051-26.3486364 3.762431-10.0841322.335059-29.5819834-5.961255-41.4189669-7.050196-13.2336777-16.815765-22.55661157-33.8199999-24.12789256-11.8038432-1.08942149-29.4153726 4.96524793-39.4322353 11.34814046-21.4926275 13.7155372-18.8470589 49.0309504-2.3803138 70.4422728z" fill="#1d1819"/><path d="m109.403686 9.39140496c-4.509497-2.51059786-9.5119731-4.00723617-14.6588233-4.38561984-10.7707451-.99165289-27.3840784 4.88842976-36.4097254 10.62185948-2.8449089 1.8181827-5.3083692 4.1736159-7.2526275 6.9345868-8.3764706 11.8719008-6.8826667 29.4213636-1.8498039 42.3198347 1.9641573 5.0870588 4.6360714 9.8713539 7.9367059 14.2113637 2.6385882 3.4288842 6.3800784 5.9918181 10.6660392 7.8214876-2.79655-1.5446392-5.2592431-3.6286452-7.2456471-6.1314876-3.3019418-4.3366208-5.9739904-9.1188056-7.9367059-14.2043802-5.0328627-12.9054546-6.533647-30.4269835 1.849804-42.3268182 1.939888-2.7622942 4.4013599-5.1180935 7.245647-6.9345868 9.0256471-5.7473967 25.6459608-11.61351237 36.4167059-10.63582642 3.8628881.31203339 7.6540631 1.22137439 11.2384311 2.69561984z" fill="#fefefe"/><path d="m62.4814902 68.7928099s-3.0643922-11.3062397 5.1864314-15.6429752c8.2508235-4.3367355 23.8659608-1.0056198 27.6563137-.8240496 3.7903529.1815703 3.1830588.1257025 4.1463529.1396694.8655688-.5167768.3420393-.1466528 3.6507448-2.2975619 3.308706-2.1509091 7.357334-11.7880992 16.403922-12.2490083s10.735843 12.0604545 10.735843 12.0604545.698039 7.0253719-7.11302 12.3258265c-7.811058 5.3004545-18.023372 3.3380992-20.536313 5.5099587-4.355765 2.4372314-18.7423532 9.6930578-27.7819611 9.0785124-5.2542753-.3380252-9.9440375-3.4146356-12.3483137-8.1008265z" fill="#fbd7a3"/><path d="m71.360549 62.5914876c3.8421474-.6206287 7.7239732-.9637057 11.6153726-1.0265702 2.9974278.0187721 5.9890588.2662392 8.9488627.7402479 0 0 1.3960784 5.188719-.5654118 6.3689256-2.3232968 1.3684107-5.243777 1.1916686-7.3852549-.4469421-1.4557442-1.2197173-2.6278104-2.7426454-3.4343529-4.4624381z" fill="#1d1819"/><path d="m107.498039 58.031281s5.549412-4.4065703 8.9-6.4527273 5.374902-2.3953306 5.374902-2.3953306 2.624628 8.7852067-1.947529 9.5324381-5.423765-3.6034711-5.423765-3.6034711z" fill="#1d1819"/><path d="m116.125804 162.74843c11.266353 0 20.396706 1.075454 20.396706 2.39533s-9.130353 2.402314-20.396706 2.402314-20.3897256-1.075454-20.3897256-2.402314c0-1.326859 9.1303526-2.39533 20.3897256-2.39533z" fill="#1d1819"/></g></svg>