<svg height="186" viewBox="0 0 147 186" width="147" xmlns="http://www.w3.org/2000/svg"><g fill="none"><path d="m125.316 21.108 9.06-9.108 2.784 12.54 9.12 9.048-12.54 2.796-9.06 9.12-2.784-12.552-9.12-9.048z" fill="#4d555b"/><path d="m126.42 23.112 6.684-6.72 2.052 9.252 6.732 6.672-9.252 2.064-6.684 6.72-2.052-9.252-6.72-6.672z" fill="#8d9499"/><path d="m133.548 29.904c-.636232 2.216871-2.949129 3.498232-5.166 2.862s-3.498232-2.949129-2.862-5.166c1.56-4.932 9.156-3.168 8.028 2.304z" fill="#4d555b"/><path d="m134.376 12-4.848 16.752-4.212-7.644z" fill="#f6f6f6" opacity=".4"/><path d="m146.28 33.588-16.752-4.836 7.632-4.212z" fill="#f6f6f6" opacity=".4"/><path d="m124.68 45.504 4.848-16.752 4.212 7.632z" fill="#f6f6f6" opacity=".4"/><path d="m112.776 23.904 16.752 4.848-7.632 4.2z" fill="#f6f6f6" opacity=".4"/><path d="m28.896 42.072c-7.116 5.52-4.956 6.816-1.2 10.8l20.196 22.152 8.244-7.524c-2.712-1.284-23.736-30.3-27.24-25.428z" fill="#2c3338"/><path d="m104.676 132.768c7.584-5.7 4.092-7.512 2.4-9.6l-49.128-53.688-8.232 7.536 50.784 55.56c1.10217 1.201879 2.968195 1.287673 4.176.192z" fill="#2c3338"/><g fill="#ea400c"><path d="m28.92 54.264 2.424-.936-1.14 2.34.42.468 4.812-1.848 1.524-3.108 3.156-1.212-2.964-3.24-11.196 4.296z"/><path d="m52.272 63.264-1.116-1.212-.996 2.016z"/><path d="m39.72 52.644 2.1-.804-1.116-1.224z"/><path d="m52.824 63.864-11.196 4.308 2.964 3.24 2.436-.936-1.152 2.34 2.016 2.208 2.628-2.388 2.112-4.32 3.156-1.212z"/><path d="m36.6 46.116-1.116-1.212-.996 2.028z"/><path d="m34.14 59.976 2.436-.936-1.152 2.34.42.468 4.812-1.848 1.536-3.108 3.144-1.212-2.964-3.24-11.196 4.296z"/><path d="m39.36 65.7 2.436-.936-1.152 2.34.432.456 4.812-1.848 1.524-3.108 3.144-1.212-2.964-3.24-11.196 4.296z"/><path d="m44.94 58.356 2.1-.804-1.104-1.212z"/></g><path d="m43.670422 70.912771h18.516v2.688h-18.516z" fill="#4d555b" transform="matrix(.73810218 -.67468895 .67468895 .73810218 -34.889006 54.634113)"/><path d="m107.688 44.772c-6.264-6.468-7.32-4.176-10.872-.06l-19.8 22.572 8.4 7.356c.984-2.832 27.564-26.928 22.272-29.868z" fill="#2c3338"/><path d="m25.872 130.068c6.504 6.912 7.908 3.24 9.744 1.344l48-54.744-8.4-7.368-49.608 56.592c-1.0773213 1.227079-.9592747 3.094361.264 4.176z" fill="#2c3338"/><path d="m95.568 46.14 1.2 2.316-2.448-.888-.42.468 2.364 4.584 3.264 1.176 1.548 2.988 2.892-3.3-5.496-10.656z" fill="#ea400c"/><path d="m89.196 70.332 1.08-1.236-2.112-.768z" fill="#ea400c"/><path d="m98.376 56.688 1.032 2.004 1.08-1.236z" fill="#ea400c"/><path d="m88.656 70.944-5.508-10.656-2.892 3.312 1.2 2.316-2.46-.888-1.98 2.256 2.676 2.34 4.524 1.632 1.548 3z" fill="#ea400c"/><path d="m104.508 52.872 1.092-1.236-2.124-.768z" fill="#ea400c"/><path d="m90.468 51.96 1.2 2.316-2.46-.888-.408.468 2.364 4.584 3.264 1.176 1.536 2.988 2.904-3.3-5.508-10.656z" fill="#ea400c"/><path d="m85.356 57.78 1.2 2.316-2.448-.888-.42.468 2.364 4.584 3.264 1.176 1.548 2.988 2.892-3.3-5.496-10.656z" fill="#ea400c"/><path d="m93.264 62.508 1.032 2.004 1.092-1.236z" fill="#ea400c"/><path d="m78.984099 62.720018h2.688v18.516h-2.688z" fill="#4d555b" transform="matrix(.65947703 -.75172472 .75172472 .65947703 -26.754092 84.894786)"/><path d="m103.836 157.608c-4.8 10.884 13.2 12.996 15.9 5.352 4.668-9.492-13.104-12.264-15.9-5.352z" fill="#363d42"/><path d="m86.64 151.512s16.32 17.1 21.912 15.696c17.58-6.156-5.46-20.724-7.284-23.544z" fill="#363d42"/><path d="m124.116 181.728c.54 3.396-17.7 5.208-24.924 2.148-12.792-6.144 24.84-8.1 24.924-2.148z" fill="#363d42" opacity=".3"/><path d="m62.664 114.888c-3.288 6.264 14.832 36.084 25.2 41.388 33.684 2.904 5.436-32.112 1.296-39.54-.012 0-23.424-7.728-26.496-1.848z" fill="#363d42"/><path d="m97.332 153.6c-8.952 0-26.4-31.2-27.864-33.936-13.548-14.256 14.808 45.936 31.08 33.696-1.0624069.178163-2.1389167.2585-3.216.24z" fill="#4d555b"/><path d="m85.356 99.768s41.568 9.672 44.244 18.6c6 29.796-38.4 8.04-43.548 8.04z" fill="#363d42"/><path d="m127.764 125.532c-2.472-8.508-40.644-17.748-43.968-18.54l-.096-3.792c2.1 1.428 50.508 9.132 44.64 25.464-.089211-1.060312-.282133-2.109326-.576-3.132z" fill="#4d555b"/><path d="m115.548 104.7c2.844 3.204 17.424-2.952 19.116-6.12-4.8-1.596-5.88-9.156-8.256-9.672-4.488-.66-19.164 7.164-10.86 15.792z" fill="#ffc392"/><path d="m126.864 99.048c-2.16 6.684-10.116 5.88-17.844 5.424-12.312.684-14.4-9.708-7.752-14.172 3.696-1.668 19.116 1.596 19.2 1.404.036 0 8.28 1.164 6.396 7.344z" fill="#363d42"/><path d="m60.96 113.028c-19.896 2.004 13.668 13.488 19.704 13.2 25.452 2.304 53.376-19.728 32.304-18.42 0-.036-19.368 15.792-52.008 5.22z" fill="#4d555b"/><path d="m114.708 108.576s-21.48 15.6-54.132 5.076l-2.292 1.428c19.716 22.38 69.84-1.92 56.424-6.504z" fill="#42484e"/><path d="m55.86 82.332c-3.924 10.176 6.636 27.672 11.34 31.128 9.6 6.84 43.056-1.296 45.108-5.58 15.96-62.1-53.1-40.98-56.448-25.548z" fill="#42484e"/><path d="m111.804 73.032c-1.866265-2.1314262-4.221569-3.7784913-6.864-4.8 2.232 6.888 5.04 25.272-27.072 46.596 6.0843632.272544 12.1784927-.239669 18.132-1.524 7.896-5.304 26.244-26.124 15.804-40.272z" fill="#ea400c"/><path d="m112.344 105.348c-10.044 9.108-45.9 12.132-52.416-.06-3.396 19.608 25.08 19.428 46.704 12.36 9.684-3.912 8.928-6.924 7.92-16.8-.221387-.319182-.583581-.511458-.972-.516 0 0-.54 4.38-1.236 5.016z" fill="#ea400c"/><path d="m56.124 66.6c-7.452 28.104 70.872 31.512 54.708-5.928 0 0-47.832-5.988-54.708 5.928z" fill="#2c3338"/><path d="m58.44 65.292c-6.96 26.676 66.996 29.664 51.696-5.592 0 0-45.192-5.7-51.696 5.592z" fill="#363d42"/><path d="m98.712 76.584-18.684 2.004 1.284 6.96c6.4720326.6122611 13.0011156-.081454 19.2-2.04z" fill="#4d555b"/><path d="m58.32 64.2c-7.668 22.008 64.68 25.044 50.316-5.256 0 0-43.836-4.344-50.316 5.256z" fill="#2c3338"/><path d="m94.8 5.016c28.644 21.828 28.5 58.02.372 71.436l-14.652-61.908s.768-8.472 14.28-9.528z" fill="#4d555b"/><path d="m92.796 6.12c28.644 21.828 28.5 58.02.372 71.436l-14.616-61.956s.756-8.4 14.244-9.48z" fill="#2c3338"/><path d="m109.956 53.832 1.812-4.872-2.676-6.144v11.1z" fill="#42484e"/><path d="m52.128 64.956c.132 1.2-11.772-24.504-8.172-40.728 15.288-30.312 39.012-23.328 49.188-19.08l-10.512 3.66z" fill="#42484e"/><path d="m107.592 34.8s3.912 10.704 1.5 19.2c-9.6 29.448-77.244 5.424-50.4-12.312z" fill="#ffc392"/><path d="m107.592 34.8s3.912 10.704 1.5 19.2c-9.6 29.448-77.244 5.424-50.4-12.312z" fill="#ffc392"/><path d="m109.788 45.384c-.267927-3.2582723-.89164-6.4774366-1.86-9.6-.601595-.3719362-1.263548-.6359049-1.956-.78l-46.236 6.456c-.444.852-3.432 11.82-3.432 11.82l2.196 6.792c3.0219366 2.1021525 6.3655588 3.6989854 9.9 4.728l2.04-.48c-2.544-1.476-4.524-9.6-.456-11.172 4.944.228 9.6 5.292 14.4-2.076 0 0 9.036-.552 15.444-2.988 1.752 1.224 8.292 2.724 9.96-2.7z" fill="#eaaf83"/><path d="m82.272 49.476c.264 5.16-8.1 6.216-8.988.696-.264-5.16 8.1-6.228 8.988-.696z" fill="#2c3338"/><path d="m76.368 49.932c.18 1.704-3.6.6-1.068-.84.3.012.624.024 1.068.84z" fill="#f6f6f6"/><path d="m108.576 43.2c.408 4.668-6.456 6.432-7.416.576-.36-4.644 6.456-6.408 7.416-.576z" fill="#2c3338"/><path d="m104.688 44.4c.18 1.704-3.6.612-1.068-.84.324.072.624.084 1.068.84z" fill="#f6f6f6"/><path d="m111.288 55.2s-4.62-3.756-12.96-2.772c1.0400904 8.5126045 1.2089648 17.1091148.504 25.656 12.864-4.572 12.456-22.884 12.456-22.884z" fill="#363d42"/><path d="m58.932 56.616s32.568 16.452 52.8-7.656l-.444 6.24-41.424 14.832s-13.38-4.452-10.932-13.416z" fill="#363d42"/><path d="m57.744 55.584s7.428 17.616 25.512 19.2c0 0-12.228 6.78-25.536-3.84 0 .036-4.164-8.184.024-15.36z" fill="#42484e"/><path d="m98.328 52.416c-9.6.228-28.44 17.472-28.4640281 17.616-.0239719.144 15.3360281 12.912 28.9680281 8.04 2.7-2.112 3.348-19.62-.504-25.656z" fill="#42484e"/><path d="m98.124 46.488c5.328-1.548 9.48-6.948 11.712-9.96 0 0-7.056-20.88-23.88-27.972 0 0 8.304 10.896 12.168 37.932z" fill="#363d42"/><path d="m59.112 46.992s23.52 3.972 39.012-.504c-2.28-28.104-12.168-37.932-12.168-37.932s-19.536 6.948-26.844 38.436z" fill="#42484e"/><path d="m88.188 11.436c-.6503017-1.0290889-1.3977175-1.99349628-2.232-2.88 0 0-19.548 6.828-26.904 37.632 5.9969127.8971661 12.0454924 1.4062249 18.108 1.524-20.412-6.696 3.852-31.788 11.028-36.276z" fill="#363d42"/><path d="m93.6 2.664 1.128 2.4s-39.048 22.26-32.124 64.68c.132.792.996 4.92 14.796 6.24.84.084-6.936 1.764-13.8-1.32l-12.96-7.812c-5.04-18.396.612-50.22 32.94-66.852z" fill="#4d555b"/><path d="m97.56 78.168c-12.492 1.2-23.016-9.408-13.8-18.78-4.587794 3.2518815-8.9682979 6.7867438-13.116 10.584.072.264 15.372 12.912 28.968 8.04l.108-.132c-.7144755.1336609-1.435464.2297927-2.16.288z" fill="#363d42"/><path d="m121.896 29.112c6.072-4.608 5.256 3.852 3.6 8.952 8.304-.348 12.792 3.708 8.4 10.8 3.744 7.2-11.364 15.924-17.868 11.352 4.116-8.616-1.14-23.508 5.868-31.104z" fill="#ffc392"/><path d="m133.896 54.396c.936-.384-.084-6.384 0-6 3.132-.912.552-9.924-.3-9.036-3.288.6-3.084 3.228-3.084 3.228 2.244 13.008-1.788 13.38-12.324 9.78-8.796 18.6 16.08 4.092 15.708 2.028z" fill="#eaaf83"/><path d="m126.948 30.06c-.081878-.3837622-.232284-.7496157-.444-1.08-2.4 2.268-3.936 10.164-3.864 10.224l2.868-1.2c-.204-2.16 1.692-4.62 1.44-7.944z" fill="#eaaf83"/><path d="m61.608 97.2c1.644 2.988 64.272 10.548 69.312-38.94.36-3.6-10.056-9.48-13.728-4.356s-9.984 20.4-53.52 28.632c0-.036-7.824 4.224-2.064 14.664z" fill="#4d555b"/><path d="m140.4 60.372c-10.464 22.8-31.308 41.304-54.336 51.792-3.264 1.596-6.684 2.904-10.08 4.236s-6.888 2.4-10.416 3.384-7.068 1.86-10.62 2.76c-1.812.348-6.18 1.2-8.1 1.596-15.4752344 2.452111-31.1336634 3.560246-46.8 3.312 15.7298893 1.98076 31.6461107 1.98076 47.376 0 2.988-.468 4.344-.672 8.316-1.344 3.66-.816 7.344-1.488 10.956-2.544s7.2-2.172 10.8-3.348c31.068-11.112 62.16-37.644 66.288-70.44-.613672 3.6760914-1.753361 7.2446933-3.384 10.596zm-19.128 50.832c-1.608 2.052-3.156 4.152-4.932 6s-3.372 3.972-5.244 5.784-3.6 3.756-5.58 5.448-3.78 3.6-5.856 5.16-4.008 3.324-6.156 4.8-4.164 3.132-6.408 4.452l-3.312 2.1c-1.08.732-2.208 1.368-3.36 1.992-9.1332988 5.227373-18.795361 9.471118-28.824 12.66 10.5849909-1.566307 20.8533531-4.806816 30.42-9.6 2.4200059-1.162904 4.7790752-2.448577 7.068-3.852 2.4-1.272 4.548-2.868 6.792-4.344s4.32-3.192 6.444-4.8c4.219105-3.343201 8.171084-7.010317 11.82-10.968 1.896-1.908 3.6-3.984 5.316-6s3.288-4.26 4.8-6.432c7.783411-10.924345 13.314849-23.2884968 16.272-36.372-3.835017 9.7998461-8.75783 19.1382987-14.676 27.84-1.512 1.92-2.928 4.128-4.584 6.132z" fill="#aeaeae"/></g></svg>