<svg height="157" viewBox="0 0 131 157" width="131" xmlns="http://www.w3.org/2000/svg"><g fill="none"><path d="m74.77 149.67c-.18-2.41-10.79-2.88-14.13-1.53-46.43-2.1-5.86 16.25 6.75 3.84 4.13-.1 7.38-1.09 7.38-2.31z" fill="#000" opacity=".156087"/><g fill="#3c2415"><path d="m48.9 135.3c-5.31 2.92-3 20.61 4.57 17.16 6.28-4.38 5.35-21.53-4.57-17.16z"/><path d="m51.2 147.43c2.5005627-1.230285 4.6041696-3.139819 6.07-5.51-1.44-14-14.72-6.07-10.67 5 1.3539276.922188 3.0769512 1.113219 4.6.51z" opacity=".5"/><path d="m63.36 123.38c-5.32 2.92-3 20.6 4.57 17.16 6.28-4.38 5.34-21.54-4.57-17.16z"/><path d="m65.36 122.76c-2.63.07-4.9 3.21-4.83 6.49.89 4 6.09 6.38 10.66 5.75.97-4.33 1.25-13-5.83-12.24z" opacity=".5"/></g><path d="m44.8 80.64c-7.6353426-3.2597888-14.7062577-7.7082213-20.95-13.18-12.43-17.72-22.82-2-7 8.11 8 5.44 17.28 12.51 27.81 13.28 3.7-1.18 3.95-6.43.14-8.21z" fill="#bd1e2d"/><path d="m70.49 76.3c.34-.31.52-.45.77-.65s.47-.35.71-.5c1.4950182-.9580926 3.1807359-1.5791464 4.94-1.82 2.4167863-.2844514 4.8623286.1871889 7 1.35 1.0015559.5212141 1.9465742 1.1445241 2.82 1.86l1.27 1.08 1 1.12c1.91 2 4.07 5.3 6.76 7.39.8120837.6519838 1.8097748 1.0300562 2.85 1.08 1.86.22 4.61-.78 7.29-2.24l4.42 9.55-3 1c-1.605071.5000388-3.256948.8351051-4.93 1-1.86107.2040864-3.7430707.0993431-5.57-.31-2.505958-.5816149-4.8054031-1.8368007-6.65-3.63-2.62-2.52-4.43-5.85-6.73-9.26l-.68-.91-.7-.79c-.4532334-.4845231-.9559769-.9202342-1.5-1.3-.9373813-.7216737-2.0776429-1.1309087-3.26-1.17-.603814-.0153946-1.2058167.0725384-1.78.26-.3053962.0931176-.6029832.2101462-.89.35-.15.06-.28.14-.42.21-.0957209.0639061-.1959885.1207244-.3.17z" fill="#f6931e"/><path d="m75.12 80.64c7.632133-3.2601207 14.6997025-7.7085718 20.94-13.18 12.44-17.72 22.82-2 7 8.11-8.06 5.43-17.32 12.51-27.85 13.28-3.66-1.18-3.91-6.43-.09-8.21z" fill="#bd1e2d"/><path d="m92.15 75.18c7.69-3.54 12.85-12.18 14.79-15.82-5-1-7.07 4.94-10.88 8.1-6.31 6.28-14.67 9.62-22.82 14.54-4 8.79 6.2 7.56 11.53 4.19-1.06-4.49-3.09-6.19 7.38-11.01z" fill="#bd1e2d" opacity=".5"/><path d="m47.36 86.15c2.31-6.59-19.94-12.5-23.51-18.69-3.2-2.3-4.92-8.08-9.92-8.22 11.07 22 26.74 14.22 22.27 27.45 2.8 1.22 9.12 4.65 11.16-.54z" fill="#bd1e2d" opacity=".5"/><path d="m43.44 110.31s-4.12 16.62-2.88 26.54c1.33 10.58 14 8.4 16.5 1.38 1.23-5.13 2.88-15.08 2.88-15.08.3 8 13.37 13.8 18.83 3.62 1.22-2.76-2-15.52-1.94-16.46 0 0-17.26-3.82-33.39 0z" fill="#bd1e2d"/><path d="m94.63 114.72c-1.49.18-19.63-12.65-36.63-23.49-12.62-9.12-23.35-12.81-21-16.94 2.34-4.59 18.59 10.16 35.62 20.2 13.32 9.66 31.38 17.23 22.01 20.23z" fill="#b59458"/><path d="m79.77 82.22c-12.85-11.64-27.6-10.49-39.27 0-2.92 3.5-1.4 22.8 3 28.28h33.2c4.46-5.5 5.98-24.78 3.07-28.28z" fill="#bd1e2d"/><path d="m79.77 82.22c-.6216738-.6697775-1.2900132-1.2946749-2-1.87 1.48 25.23-19.28 25.3-36.85 24.51.5068835 2.022299 1.3814349 3.934109 2.58 5.64h33.2c4.46-5.5 5.98-24.78 3.07-28.28z" fill="#bd1e2d" opacity=".5"/><path d="m72.24 77c-9.34-4-14.25-4.15-24.11 0 4.39 4.81 12 13.51 12 13.51z" fill="#fff8a1"/><path d="m62.26 90.44 11.68-12.65c-1-.53-2-1-3-1.4l-10.79 11.68-10.49-11.82c-1 .4-2 .86-3 1.37l29.2 32.88h.87c.5349571-.697361.9848029-1.456056 1.34-2.26z" fill="#890c1f"/><path d="m60.54 113c-29.66.81-22.14-7.41-17.15-6.35 8.5937298 1.063719 17.2678456 1.324847 25.91.78 3.67-.07 7.15-1 10.2-1 1.1896099.332027 1.992119 1.441827 1.9347357 2.675569-.0573834 1.233743-.9594422 2.26426-2.1747357 2.484431-6.1977762.921327-12.4541426 1.392559-18.72 1.41z" fill="#890c1f"/><path d="m59.61 84.76c-19-.37-19.27-11.77-10-10.4 2.22.87 3.27 2.37 9.4 2.76 4.46.73 10.16-3 13.7-3 12.65 5.58-9.35 11.6-13.1 10.64z" fill="#f6931e"/><path d="m92.15 25.19c.24-.37.17-.21.87-1.26.31-.45.59-.95.88-1.42 2.7290363-4.8344936 4.1717197-10.2884567 4.19-15.84 0-1.06-.09-2.14-.14-3.2s-.3-2.12-.43-3.15l14.73-.32c-.21 1.49-.35 3-.64 4.41s-.57 2.91-1 4.32c-1.982755 6.9855553-5.725534 13.3451812-10.87 18.47-.53.49-1 1-1.59 1.44-.1.1-.43.38-1.28 1.05l-.51.38z" fill="#603913"/><path d="m98.94 32.38.45-.47.39-.38c.25-.24.51-.5.76-.72 1.022716-.9050468 2.10516-1.740266 3.24-2.5 5.462969-3.5856531 12.029211-5.0968465 18.51-4.26 1.465697.1804866 2.916232.4679198 4.34.86 1.41.38 2.74.93 4.12 1.42l-7 13c-.69-.45-1.38-1-2.1-1.44-.713845-.4259839-1.455516-.8035015-2.22-1.13-3.631836-1.5337396-7.702068-1.6726189-11.43-.39-.895181.287102-1.764861.6483537-2.6 1.08l-.6.32c-.154591.0963005-.314886.1831269-.48.26z" fill="#603913"/><path d="m106.92 11.33c-7.92-10.07-46.45-8.06-46.45-8.06s-41.6-1.53-46.07 38.73c-9.48 54.14 118.3 50.59 88.51-14-2.01-8.71 11.76-6.86 4.01-16.67z" fill="#bd1e2d"/><path d="m106.92 11.33c-.841648-1.0149686-1.857551-1.87171328-3-2.53 6.09 8.72-6.68 7.29-4.73 15.65 23 56-54.28 60.52-79 40.87 30.92 28.87 106.09 13.52 82.72-37.32-2.01-8.71 11.76-6.86 4.01-16.67z" fill="#bd1e2d" opacity=".5"/><path d="m95.89 42.31c-8.52-16.73-43.07-12.63-56.38-10.47-16.42 3.06-22.85 24.41-11 33.79 9.07 7 22.09-.36 34.06.45 8.84.6 17.48 3.65 24.06 2.18 11.37-2.52 14.74-15.12 9.26-25.95z" fill="#fecea2"/><path d="m82.92 55.24c-.53 13.59-11.89 12.5-12.14 0 .52-13.6 11.89-12.5 12.14 0z" fill="#3c2415"/><path d="m81 51.33c-.1 5.19-5.46 5.18-4.68-1.24.68-3.77 4.37-3.5 4.68 1.24z" fill="#fff"/><path d="m50.16 55.24c-.53 13.59-11.89 12.5-12.15 0 .53-13.6 11.89-12.5 12.15 0z" fill="#3c2415"/><path d="m48.18 51.33c-.09 5.19-5.46 5.18-4.67-1.24.73-3.77 4.41-3.5 4.67 1.24z" fill="#fff"/><path d="m60.57 16c-16.89 0-29.78 2.5-38.73 5.17-2.0287584 2.9193327-3.6566166 6.0976922-4.84 9.45 26.42-11.2 71.06-8 87.27.81-.4-1.2-.84-2.37-1.32-3.47-.480049-1.6330798-.18127-3.3962441.81-4.78-7.99-3.18-22.23-7.18-43.19-7.18z" fill="#603913"/><path d="m66.64 46.67-1.6-5.08 21.55-6.92 1.6 7.19z" fill="#0c0608"/><path d="m54.29 46.67-21.55-4.81 1.61-7.19 21.55 6.92z" fill="#0c0608"/><path d="m70.44 12.57c-5 1.2-25.15-3.89-22.2 5.54.25 5.3-1.09 7.38 2.45 8.6 5-1.2 25.15 3.89 22.2-5.54-.25-5.3 1.11-7.39-2.45-8.6z" fill="#929497"/><path d="m50.69 24.38c-.7-.21-1-9.92 0-9.48h19.59c.79-1.36 1.23 9.75.12 9.48z" fill="#d0d2d3"/><path d="m92.15 64.91c.22 2.33-9.91 3.15-11.67.52-2.38-3.05 11.52-3.77 11.67-.52z" fill="#e5a876"/><path d="m28.78 64.91c-.22 2.33 9.92 3.15 11.68.52 2.38-3.05-11.46-3.77-11.68-.52z" fill="#e5a876"/><path d="m79.53 106c-35-2.9-42.56-32.24-36.65-27 .07.31 4.75 22.08 38.64 25.14 1.48.44.97 2.73-1.99 1.86z" fill="#3c2415"/><path d="m63.7 109.76c4 1.83 7.39 5.56 10.08 10.35l1 1.85-8 2.2-.11-1.7c-.2294076-3.416843-1.2569162-6.732271-3-9.68-.3012534-.453937-.6354885-.8851-1-1.29z" fill="#890c1f"/><path d="m59.62 109.76c-4 1.83-7.38 5.56-10.08 10.35l-1 1.85 8 2.2.1-1.7c.2294076-3.416843 1.2569162-6.732271 3-9.68.3012534-.453937.6354885-.8851 1-1.29z" fill="#890c1f"/><path d="m105.27 55.86c4.5-15.25 20.5-3.26 12.38 8.7-12.46 13.78-22.59-9.86-12.79-6.56z" fill="#3c2415"/><path d="m14.64 55.86c-4.5-15.25-20.5-3.26-12.37 8.7 12.46 13.78 22.59-9.86 12.79-6.56z" fill="#3c2415"/><path d="m61.6 23.76c-2.5.24-6.21-2.76-4.13-6.46.5551862-.8779962 1.4464189-1.4896263 2.4653376-1.6918977 1.0189186-.2022714 2.0761998.0225479 2.9246624.6218977 3.38 1.68-1.58 9.25-3.7 2.85.37-.43.17-1.82 2.42-1.31.2993783.1777163.512672.4705433.59.81-.13.12.42 1-1 1.28.2773752-.0335752.5223247-.1968749.66-.44 0-.16.43-.52-.47-1.24-.215206-.085208-.454794-.085208-.67 0-.4017049.1753366-.6745073.5572988-.7100414.9941593s.1719532.8578894.5400414 1.0958407c1.71 1.14 4-3 .33-3.6-.9864047-.0309368-1.9249304.4252391-2.51 1.22-.804382 1.3749996-.6604056 3.1067148.36 4.33.7234821.8784692 1.7670364 1.4326325 2.9 1.54z" fill="#414042"/><path d="m50.81 139.38c-5.43 2.63-10.07-1.72-10.12-1.77 1.83 9.7 13.91 7.47 16.37.62 1.23-5.13 2.88-15.08 2.88-15.08-.33 1-5.36 14.31-9.13 16.23z" fill="#bd1e2d" opacity=".5"/><path d="m73.88 128.39c-7.79 1.11-13.94-5.24-13.94-5.24 1.17 11.85 19.32 11.85 19.06.75 0 0-2.44 3.82-5.12 4.49z" fill="#bd1e2d" opacity=".5"/></g></svg>