<svg height="75" viewBox="0 0 95 75" width="95" xmlns="http://www.w3.org/2000/svg"><g fill="none"><path d="m33.08 4c-3.6 1-6.52-2.64-2.22-3.83 3.54-.86 5.96 2.36 2.22 3.83zm-2.47-2.91c-3.08 1 2.64 3.53 3.43 1 .13-1.16-2.3-1.09-3.43-1z" fill="#68677c"/><path d="m39.26 4c-3.6 1-6.52-2.64-2.21-3.83 3.53-.86 5.95 2.36 2.21 3.83zm-2.47-2.91c-3.08 1 2.64 3.53 3.43 1 .13-1.16-2.3-1.09-3.43-1z" fill="#68677c"/><path d="m36.19 2.53c-.28-.14-4.13.54-2.44-1 .25.18 4.14-.53 2.44 1z" fill="#68677c"/><path d="m30.21 2.53c-.23-.39-7.81 1-5.62-1 .23.47 7.81-.94 5.62 1z" fill="#68677c"/><path d="m69.89 2.53c-.22-.39-7.8 1-5.62-1 .23.47 7.81-.94 5.62 1z" fill="#68677c"/><path d="m45.45 4c-3.6 1-6.52-2.64-2.21-3.83 3.53-.86 5.96 2.36 2.21 3.83zm-2.45-2.91c-3.08 1 2.64 3.53 3.43 1 .11-1.16-2.32-1.09-3.43-1z" fill="#68677c"/><path d="m42.34 2.53c-.29-.14-4.13.54-2.44-1 .29.18 4.1-.53 2.44 1z" fill="#68677c"/><path d="m51.24 4c-3.6 1-6.52-2.64-2.21-3.83 3.53-.86 5.97 2.36 2.21 3.83zm-2.47-2.91c-3.07 1 2.64 3.53 3.43 1 .13-1.16-2.29-1.09-3.43-1z" fill="#68677c"/><path d="m57.43 4c-3.61 1-6.52-2.64-2.22-3.83 3.53-.86 5.96 2.36 2.22 3.83zm-2.43-2.91c-3.07 1 2.64 3.53 3.43 1 .08-1.16-2.34-1.09-3.43-1z" fill="#68677c"/><path d="m54.36 2.53c-.29-.14-4.13.54-2.44-1 .29.18 4.13-.53 2.44 1z" fill="#68677c"/><path d="m48.37 2.53c-.28-.14-4.13.54-2.44-1 .29.18 4.14-.53 2.44 1z" fill="#68677c"/><path d="m63.62 4c-3.62.92-6.52-2.68-2.22-3.87 3.53-.82 5.96 2.4 2.22 3.87zm-2.47-2.91c-3.08 1 2.64 3.53 3.43 1 .13-1.16-2.3-1.09-3.43-1z" fill="#68677c"/><path d="m60.5 2.53c-.28-.14-4.13.54-2.44-1 .29.18 4.14-.53 2.44 1z" fill="#68677c"/><path d="m65.57 4.49c-.82-2.93 8.75-5.7 10-2.53l18.77 67.92c1.12 3.84-11.57 7.38-12.85 3.27z" fill="#f0c8a2"/><g fill="#e2b088"><path d="m71 17.93c13.86 6 8.4 13.8 2.83 22.16l-.24-1c8.31-11.79 7.34-16-5-21.49l-.23-1c.87.47 1.76.91 2.64 1.33z"/><path d="m76.77 25c1.83 3.78-1.15 7.94-3.89 11.06l-.21-.91c5.93-6.63 5.22-10.95-3.26-14l-.22-.93c2.44 1.18 5.81 2.19 7.58 4.78z"/><path d="m74.38 27c-.71-1.39-1.55-2.28-4.31-3.12l-.2-.84c5.26 1 7.58 6 2.37 10.21l-.19-.84c.86-.74 2.95-2.99 2.33-5.41z"/><path d="m76.89 6.87c-2.8 5.93-8.89 9.13 3.47 12.54l.26.95c-10.08-3.72-10.53-3.89-4.12-14.88z"/><path d="m75.89 16.91c-3.54-1.63.24-5.88 1.52-8.14l.27 1c-2.68 4.23-4.68 6.03 2.19 7.88l.22.8c-1.4823635-.2522921-2.9059021-.7742563-4.2-1.54z"/><path d="m76.48 14.12c-.35-.66.77-2.3 1.5-3.28l.27.94c-1 1.43-2.1 2.67 1.09 4l.23.84c-1.3904483-.2485543-2.5566447-1.1920789-3.09-2.5z"/><path d="m79.86 52.34c5.28-9.16-9.3-3.48 4-20.34l.28 1c-13.6 16.2 5.16 9.1-6.41 23.85l-.23-1c.81-1.13 1.6-2.31 2.36-3.51z"/><path d="m77.28 46c3.19 1.09 2.85 5.42-.31 7.68l-.21-.89c3-3.39 3.38-4.3-1.74-7.51l-.34-1.45c.7276716.875248 1.6087258 1.6105893 2.6 2.17z"/><path d="m77.77 48.68c.06 1.09.32 1.39-1.21 3.21l-.22-.89c.67-.74 1.44-2.42-.72-3.13l-.23-1c.9417274.3782212 1.7639573 1.0035304 2.38 1.81z"/><path d="m80.81 43.36c-.94-2.91 1.93-5.29 3.91-8.21l.28.85c-4.93 6.21-5.21 7.06 2.92 10.54l.26 1c-2.18-1.26-5.02-1.93-7.37-4.18z"/><path d="m87.14 43.89.21.78c-3.46-.1-7-3.25-1.86-6.75l.21.78c-2.99 2.17-3 4.53 1.44 5.19z"/><path d="m79.83 59.83c.88-3.51 5.08-10.66 9.93-6.46l.44 1.63c-5.62-6.24-9 2.94-11 8.43l-.29-1.25c.33-.82.63-1.59.92-2.35z"/><path d="m91.08 59.9c-6-10.5-8.89.93-11 7.33l-.3-1.29c1.22-5.09 5.52-17.11 11.45-7.28l.77 2.79c-.26-.38-.36-.57-.92-1.55z"/><path d="m91.6 65.14c-6.81-11-8.31-1.91-10.59 6l-.31-1.34c2.56-9.65 4.48-16.26 12.55-3.8l.39 1.42c-.7655019-.6789356-1.4500365-1.4440037-2.04-2.28z"/><path d="m82.16 74c2.45-8.84 3-15.42 12.16-4.17.0745579.302135.0745579.617865 0 .92-7.77-8.09-8.26-9.45-11.53 3.72-.2325884-.1096253-.4508792-.2473164-.65-.41z"/></g><path d="m67.17 11.41-1.01-4.41c3.4296759-.50541334 6.8021689-1.34267574 10.07-2.5l1.2 4.33c-3.3349946 1.16832449-6.7690527 2.0318596-10.26 2.58z" fill="#ef4351"/><path d="m65.57 4.49c-.27-1 .8-2.23 2.54-3.06l15.44 66.62c.86 2.54 7 2.32 10.35.26l.44 1.57c1.12 3.84-11.57 7.38-12.85 3.27z" fill="#f0c8a2" opacity=".5"/><path d="m28.84 4.49c.82-2.93-8.75-5.7-10-2.53l-18.77 67.92c-1.13 3.84 11.56 7.38 12.85 3.27z" fill="#f0c8a2"/><path d="m23.42 17.93c-13.87 6-8.4 13.8-2.83 22.16l.24-1c-8.31-11.79-7.34-16 5-21.49l.22-1c-.87.47-1.76.91-2.63 1.33z" fill="#e2b088"/><path d="m17.64 25c-1.84 3.75 1.15 7.91 3.89 11l.21-.91c-5.93-6.63-5.22-10.95 3.26-14l.21-.93c-2.43 1.24-5.84 2.25-7.57 4.84z" fill="#e2b088"/><path d="m20 27c.71-1.39 1.55-2.28 4.31-3.12l.19-.84c-5.25 1-7.57 6-2.37 10.21l.2-.84c-.83-.74-2.91-2.99-2.33-5.41z" fill="#e2b088"/><path d="m17.52 6.87c2.8 5.93 8.91 9.14-3.47 12.54l-.26.95c10.07-3.72 10.52-3.89 4.12-14.88z" fill="#e2b088"/><path d="m18.52 16.91c3.54-1.63-.25-5.91-1.52-8.14l-.27 1c2.69 4.2 4.68 6.05-2.18 7.9l-.23.8c1.4829332-.2613118 2.9060465-.7898967 4.2-1.56z" fill="#e2b088"/><path d="m17.93 14.12c.35-.66-.77-2.3-1.51-3.28l-.26.94c1 1.43 2.1 2.67-1.1 4l-.23.84c1.3950255-.2436165 2.5663719-1.1882507 3.1-2.5z" fill="#e2b088"/><path d="m14.55 52.34c-5.28-9.16 9.3-3.48-4-20.34l-.28 1c13.61 16.2-5.15 9.1 6.42 23.85l.22-1c-.81-1.13-1.61-2.31-2.36-3.51z" fill="#e2b088"/><path d="m17.13 46c-3.19 1.09-2.86 5.42.31 7.68l.21-.89c-3-3.39-3.38-4.3 1.74-7.51l.33-1.45c-.7256449.8733679-1.6030605 1.6084999-2.59 2.17z" fill="#e2b088"/><path d="m16.63 48.68c-.05 1.09-.32 1.39 1.22 3.21l.21-.92c-.66-.74-1.43-2.42.73-3.13l.23-1c-.9471874.3880285-1.772655 1.0235349-2.39 1.84z" fill="#e2b088"/><path d="m13.59 43.36c.95-2.91-1.92-5.29-3.9-8.21l-.24.85c4.93 6.21 5.21 7.06-2.92 10.54l-.27 1c2.11-1.26 4.98-1.93 7.33-4.18z" fill="#e2b088"/><path d="m7.27 43.89-.22.78c3.46-.1 7-3.25 1.87-6.75l-.21.78c2.98 2.17 3 4.53-1.44 5.19z" fill="#e2b088"/><path d="m14.57 59.83c-.88-3.51-5.08-10.66-9.93-6.46l-.43 1.63c5.62-6.24 9 2.94 11 8.43l.29-1.25c-.33-.82-.64-1.59-.93-2.35z" fill="#e2b088"/><path d="m3.33 59.9c6-10.5 8.88.93 11 7.33l.3-1.29c-1.14-5.09-5.48-17.11-11.41-7.28l-.77 2.79c.21-.38.32-.57.88-1.55z" fill="#e2b088"/><path d="m2.81 65.14c6.81-11 8.3-1.91 10.59 6l.31-1.34c-2.56-9.69-4.48-16.3-12.55-3.8l-.4 1.42c.77147659-.6758687 1.45966211-1.4412653 2.05-2.28z" fill="#e2b088"/><path d="m12.25 74c-2.45-8.83-2.95-15.41-12.17-4.16-.07969351.3014892-.07969351.6185108 0 .92 7.76-8.09 8.26-9.45 11.53 3.72.2313003-.1119598.4493272-.2494844.65-.41z" fill="#e2b088"/><path d="m27.24 11.41 1-4.37c-3.4278828-.51785917-6.7971401-1.36854639-10.06-2.54l-1.18 4.33c3.328511 1.16715681 6.7558234 2.0306789 10.24 2.58z" fill="#ef4351"/><path d="m28.84 4.49c.26-1-.8-2.23-2.54-3.06l-15.44 66.62c-.86 2.54-7 2.32-10.35.26l-.44 1.57c-1.13 3.84 11.56 7.38 12.85 3.27z" fill="#f0c8a2" opacity=".5"/></g></svg>