<svg height="133" viewBox="0 0 137 133" width="137" xmlns="http://www.w3.org/2000/svg"><g fill="none"><path d="m125.981151 63.7833037c1.176976-1.611119 9.818334-2.6151154 9.152165-3.4773712-2.718814-3.6876199-9.571168 1.1622735-9.677096.9284014.812113-1.5756838 6.016701-3.8482593 4.594914-4.7672113-2.845928-1.6276555-6.120275 3.5671403-6.120275 3.5671403l-6.390979 2.5111723 2.276271 8.8257193s2.16799 6.7444938 6.120275 6.0523268c2.867114-.5031793-2.179759-4.5120781-2.311581-6.876785-.049433-.9591119 13.144468-.5008171 12.772543-1.8662523-2.292749-4.3443516-10.432714-.9024156-10.592783-1.5874955.553179-1.618206 11.470807-2.1261101 10.969416-2.9363943-2.622303-4.1364654-10.178488-.0803197-10.79287-.3732505z" fill="#f9b5ab"/><path d="m118.281375 61.0902309.619089 8.5493251 9.135687-1.8638899-4.787938-8.8895027z" fill="#474b4f"/><path d="m107.84866 37.2919716c.258935-.4724689 6.890017.014174 6.638144-3.9333037-.056495-.7630373-6.911203 2.3434458-8.02933 1.556785-.235395-.5149911 6.155584-1.192984 5.649485-4.3065541-.407234-1.0677798-7.603265 2.4025044-8.945017 3.0710479-1.341753.6685435-2.900069 2.0009059-2.900069 2.0009059l2.688213 6.7988277-.117698.0425222s6.607543 4.1033925 6.555756 2.0788632c-.030601-1.3276376-1.355876-2.3458082-2.271563-2.8938721l.96512-.1819005s4.625515 2.4568383 5.689502.0377975c.48256-1.2756661-3.827526-1.3701599-5.093952-2.0032682-.040017-.2031617 6.54634.774849 6.560509-2.9198579.018786-.8740675-5.873155 1.1362877-7.3891.6520071z" fill="#f8aa9e"/><path d="m99.7628351 33.5287567c-1.4264949-.0921315-30.5684193 5.038881-48.3878351 19.8436945-3.3849828 3.0403374.5484708 6.8507992 5.0633505 5.182984 22.1977663-9.0454174 49.8614085-11.1573535 49.8614085-11.1573535s-.416649-8.9721847-6.5369239-13.869325z" fill="#474b4f"/><path d="m99.7628351 33.5287567c-.5202234-.0330729-4.7243815.6260213-10.717543 2.1969804 3.474433 3.7183304 6.2756357 7.904405 7.2642955 12.8275311 6.0708424-.8575311 9.9901714-1.1575488 9.9901714-1.1575488s-.416649-8.9698224-6.5369239-13.8669627z" fill="#1f1e21"/><path d="m62.8693471 64.6975311-23.6572165 6.5413321s8.1846907 21.6414388 19.328299 26.6661457c6.7558419 3.0497871 16.7130584 1.1953463 21.086701-2.5867673 5.6377148-4.8829663 4.4089519-10.5100711 2.2903952-14.5024334-3.5874227-6.7846537-19.0481787-16.1182771-19.0481787-16.1182771z" fill="#1f1e21"/><path d="m48.5149485 79.3346181 5.4211512-12.525151-14.2955499 3.9616519z" fill="#1f1e21"/><path d="m48.4160825 79.9771758 5.0633505-10.3943161-12.0734193 3.4395737z" fill="#3c3f42"/><g fill="#b10d28"><path d="m39.2121306 71.2388632s.5461168 1.4481173 1.5512543 3.6805329l6.6593299 6.8791474 1.0686941-2.4592007-8.608402-8.2871048z"/><path d="m46.0503608 84.9688099c.5767182.9449379 1.176976 1.870977 1.8219588 2.789929l8.8861684-21.3768561-3.0130584.8315453z"/><path d="m103.435 41.8134991s-15.3006873-5.3696092-31.9384192-1.5520604l-.2353952 3.0308881c12.8549312.411048 32.5339694 10.9943517 32.5339694 10.9943517s-5.6141756-9.6549023-.360155-12.4731794z"/><path d="m89.1017869 22.7588277s-11.1436082 3.6309236-17.7064261 15.2134991l2.0973712 2.1709947c5.7459965-7.3799645 23.3417869-9.4328419 23.3417869-9.4328419s-8.365945-1.0606927-7.732732-7.9516519z"/></g><path d="m40.9587629.30946714c-19.4860138-2.17099467-36.46506874 6.82245115-39.56286943 34.94380106-3.01070447 27.3346892 12.06635743 35.6170693 31.55943303 37.7809769 19.4930756 2.1639077 35.9919244-2.5820426 39.0026288-29.9190941 3.0978007-28.1189876-11.5131787-40.63468919-30.9991924-42.80568386z" fill="#1f1e21"/><path d="m9.11920962 16.45373s14.01307558-15.06467139 40.47620278-11.02033746c-28.8570962-9.44937833-40.47620278 11.02033746-40.47620278 11.02033746z" fill="#6d6e71"/><path d="m37.3454467 36.3068739c-30.28359103-3.3734281-31.17103089.7157904-31.73127144 5.81373s-.59084193 9.2863766 29.69510314 12.6598046c31.6159278 3.5222558 31.1686769-.7087033 31.7312714-5.8160923s1.9302406-9.1351865-29.6951031-12.6574423z" fill="#f9b5ab"/><path d="m37.3454467 36.3068739c-25.4462199-2.8348135-30.13058416-.4015986-31.3075601 3.4726465l61.2027491 6.8200888c-.044725-4.0112611-3.3331958-7.3327175-29.895189-10.2927353z" fill="#d68c81"/><path d="m19.4436426 39.125151c-2.449502-.2774214-4.8241841.9539217-6.0159339 3.1194403s-.9656619 4.8383677.572763 6.7712996c1.538425 1.932932 4.0859482 2.744947 6.4538038 2.0571296 2.3678555-.6878174 4.0893157-2.7398917 4.3610853-5.1986511.1811172-1.610183-.2833864-3.2265399-1.2910823-4.4926451-1.007696-1.2661052-2.4758209-2.0779716-4.0806359-2.2565733z" fill="#fff"/><path d="m17.5722509 39.8622025c-.6757386-.0748993-1.3595027-.0203879-2.0149829.1606394-1.8459427 1.1608797-2.9333823 3.2229023-2.8517665 5.4075714.0816158 2.184669 1.3198543 4.1591873 3.2472305 5.1780947.1412371.0283481.2824742.0543339.4284192.0708703 2.9764684.3300857 5.6560095-1.8238342 5.9849225-4.8109147.3289131-2.9870806-1.8173545-5.6761753-4.7938228-6.0062611z" fill="#000"/><path d="m54.0349656 42.5222025c-2.4484602-.2764494-4.8216462.9550236-6.0122888 3.1198445-1.1906427 2.164821-.9640929 4.836352.5739469 6.7681237s4.0844562 2.7430749 6.4511552 2.0553759c2.3666991-.6876989 4.0872571-2.7388699 4.3589049-5.196488.1804494-1.609803-.2843624-3.225547-1.2919922-4.4911258-1.0076297-1.2655789-2.475367-2.0771087-4.079726-2.2557303z" fill="#fff"/><path d="m52.1635739 43.2568917c-.6757386-.0748993-1.3595027-.0203879-2.0149828.1606394-1.8462873 1.1598461-2.9343525 3.2213115-2.8532132 5.4057427s1.3191158 4.1588801 3.2463231 5.177561c.1435911.0283481.2871822.0543339.4331272.0708704 2.9758183.3261716 5.6516707-1.8303924 5.9766837-4.8168207.3250129-2.9864282-1.8238894-5.671821-4.7997078-5.9979928z" fill="#000"/><path d="m25.686323 42.8434813c-3.1095704-6.9523801-12.9349656-6.2271403-13.0314776-6.2271403l-.1930241-2.378881c.4707904-.0401598 11.6049828-.8457193 15.3948454 7.6280107z" fill="#1f1e21"/><path d="m45.7443471 45.0782593-1.9043471-1.4315808c5.5412027-7.431936 16.2587457-4.1884369 16.7130584-4.0466963l-.7061855 2.2773002.3530927-1.1386501-.3530927 1.1386501c-.0965121-.0283481-9.5735224-2.8773357-14.1025258 3.2009769z" fill="#1f1e21"/><path d="m1.00749141 28.7828064-1.00749141 10.5596803s13.9612887-2.4686501 36.6510309.0614209c22.6897423 2.5300711 35.864811 8.0201599 35.864811 8.0201599l1.3182131-10.5266075s-13.4669588-6.2224156-35.9354296-8.7265009c-22.4684708-2.5040852-36.89113399.6118473-36.89113399.6118473z" fill="#d82035"/><path d="m20.6676976 58.3026643s9.3593127 7.9422025 25.5239003 3.1868028c-13.7635567 1.4552043-25.5239003-3.1868028-25.5239003-3.1868028z" fill="#6d6e71"/><path d="m40.5491753 68.536341c-5.5882818-.2220604-14.5945018-4.5191652-14.5945018-4.5191652s5.9296049 5.5727709 14.5945018 4.5191652z" fill="#6d6e71"/><path d="m60.0257732 65.2172469c-4.5596048 2.0032682-1.5889175 7.0634103 3.7357216 6.80119 26.4631272-2.1686323 56.5254472 4.3561635 56.5254472 4.3561635s2.370429-9.7257727-2.575224-16.5694849c-1.487697-.5386146-34.0475599-3.9167674-57.6859448 5.4121314z" fill="#474b4f"/><path d="m105.6689 58.8365542c2.509313 4.8286323 4.147664 10.3139964 3.636856 15.5773002 6.720533 1.0347069 10.981186 1.960746 10.981186 1.960746s2.370429-9.7257727-2.575224-16.5694849c-.543763-.1960746-5.17634-.6756306-12.042818-.9685613z" fill="#1f1e21"/><path d="m118.535601 110.793961c.600258-1.308739 2.377492-4.960924 1.520653-5.707425-7.39847-6.4940848-27.3482128-16.2080458-36.582766-19.6712429l-8.4130241 10.5903907c15.0935395 6.4539252 26.8350511 21.4217412 32.7740721 31.7735342h25.206117c-2.252732-3.382877-6.442766-9.489538-14.505052-16.985257z" fill="#1f1e21"/><path d="m118.792182 111.030195-19.5378006 4.488455c3.1965676 3.837635 6.0637146 7.939922 8.5707386 12.262931h25.215533c-2.226839-3.349805-6.358024-9.359609-14.248471-16.751386z" fill="#474b4f"/><path d="m127.184021 123.550622 1.071048-2.362345-.41665-.517353-1.233471 2.714334-7.101872-2.057603 2.528144-5.558596 2.071478.600035c-.258935-.281119-.52964-.566963-.800344-.855169l-1.021615-.295293.235395-.522078-.444897-.455932-.371924.817371-6.880602-1.993819.567303-1.247318-.729725.165364-.41665.914228-1.577148-.455933-1.195807.274032 2.523436.732327-2.52579 5.558597-6.654622-1.925311 1.438265-3.167904-.727372.165364-1.287611 2.834813-4.8915123-1.417406-.0823884.018898c.2095018.252771.4072337.505542.6120275.755951l4.1100002 1.181172-1.176976 2.598579.400172.555151 1.360584-2.993091 6.654622 1.927674-2.384553 5.244405-3.44854-.999272c.169485.257495.334261.512629.496684.765399l2.702337.781936-.941581 2.090675c.014301.026808.030016.05283.047079.077958l.47079.217336 1.009846-2.218242 6.878247 2.007993-.120051.269307h.652044l.047079-.101581.343677.101581h2.137389l-2.238609-.649645 2.384554-5.244405 7.099519 2.05524-1.744279 3.83881h.654399l1.666598-3.671083 4.488986 1.299289c-.1789-.252771-.362509-.512629-.557887-.781936zm-10.898798 3.408863-6.871185-1.991457 2.382199-5.246767 6.880601 1.993819zm2.634073-5.792469-6.871186-1.993819 2.528144-5.560959 6.887664 1.993819z" fill="#1f1e21"/><path d="m101.573024 125.249147c-4.0746907 1.835542-6.7228865 7.611475-6.7228865 7.611475h39.3580755c.941581-2.818277-1.153436-5.081404-1.153436-5.081404s-27.404708-4.367975-31.481753-2.530071z" fill="#1f1e21"/><path d="m46.3587285 99.6909414c-.1129897-.9449378 17.9324055-.3850622 17.9324055-.3850622l-13.4457732-9.3596092s-29.4243986-5.0223446-28.1744501 8.0603197c.1883161 1.9985433 3.7215979 8.8209943 9.3145876 13.3685083.2612886.214973 3.0248282-.550427 4.3289175-1.070142 7.5962028 4.724689 16.2658076 8.128827 16.2658076 8.128827l11.7226804-12.390497s-17.7746907-4.904227-17.9441753-6.3523446z" fill="#1f1e21"/><path d="m42.4582302 104.888099-6.1767697 5.433393.0400172-.014174c7.5962027 4.724689 16.2658075 8.128828 16.2658075 8.128828l11.7226804-12.390498s-12.9938144-3.588401-16.8707732-5.527886z" fill="#474b4f"/><path d="m56.5819416 103.78016-.6143815-.19135.395464 4.370337-6.3038832 1.03707-.390756-4.398686 6.2403264-1.02762-1.2570103-.399236-5.037457.829183-.2353952-2.652913c-.2142096-.082682-.4237113-.165364-.6190893-.236235l.2707044 2.995453-6.4921993 1.070143-.0282474-.307105-.0400172.035435-1.2428866 1.091403.7744502-.127567.4001718 4.398686-4.8350172.79611c.2683505.158277.5343471.316554.8026976.472469l4.0864605-.670906.2754124 3.049787.6261512.318917-.3130756-3.46556 6.4921993-1.06778.4307732 4.753038-4.6255155.763037.9415808.448845 3.7263058-.618934.2189175 2.409592c.2212715.096856.4284193.186625.6214433.266945l-.2401031-2.782842 6.2709279-1.029983.6755842-.708703-.1082818.016536-.4307732-4.755399 5.9366666-.975648.6779382-.708704-6.6805155 1.09849zm-13.603488 6.37833-.4001718-4.398685 6.4945533-1.070142.3978178 4.401047zm7.5656014 4.178988-.4307732-4.7554 6.3038831-1.037069.4307732 4.7554z" fill="#1f1e21"/><path d="m64.2040378 106.069272s-16.6542096 10.97309-17.3603952 14.195328 2.1185567 8.379237 2.1185567 8.379237 18.6550687-18.97199 19.4412887-19.749201c-1.5512543-2.341084-4.1994502-2.825364-4.1994502-2.825364z" fill="#1f1e21"/><path d="m48.5949828 88.7816341c.2369645.3275785.4794216.6527946.7273712.9756483 4.3171477-.4204973 17.9135738-2.2206039 32.5692783-8.9769094-.1553608-.2952931-.341323-.5929485-.5414089-.8953286-15.3053952 7.0326998-29.4102749 8.6083837-32.7552406 8.8965897z" fill="#b10d28"/><path d="m91.6793643 104.734547s2.3233505 5.022345 8.4130237 1.436306c-4.5454808 1.164635-8.4130237-1.436306-8.4130237-1.436306z" fill="#52575b"/><path d="m25.2908591 95.6749556s-2.6811512 4.8380814 3.2955327 5.3790584c-3.476787-1.5993071-3.2955327-5.3790584-3.2955327-5.3790584z" fill="#52575b"/></g></svg>