<svg height="58" viewBox="0 0 73 58" width="73" xmlns="http://www.w3.org/2000/svg"><g fill="none"><g fill="#c4c5c6"><path d="m13 22.21c.299078-.2137144.700922-.2137144 1 0 3.82-1.82 8.31-1.73 13.08-2.58-3.42-1.68-9.22-2.66-12.67-5.61-2.87-3.27-5.51-6.86-8.65-10.89.63 4.18 1.62 10.63.27 14.7-.63 4.02-2.67 8.17-3.92 12.77 3.07-2.44 7.08-5.42 10.89-8.39z"/><path d="m52.43 17.75c.92 1.41 4.35 3.16 4.92 5.64 1.44 3 1.49 6.56 2.45 10.43 1.1-2.95 2.16-7.49 3.86-11.12 1.24-3.35 3.34-4.7 5.68-8.28-2.27.88-5.56 3.94-8.65 3.63-3.5154337-.503216-6.9813947-1.3061413-10.36-2.4.72.68 1.41 1.42 2.1 2.1z"/><path d="m23.43 50.24c2.84.23 7.91-1.31 11.35-.11 2.42.9 5.47 3.17 8.4 5-1.13-2.92-3.22-6.26-4.5-10-.5-2.87.8-7.35 1.11-11.3-1.8593788 3.340303-4.2201688 6.3756044-7 9-1.3 2.86-5.93 5.56-9.36 7.41z"/></g><path d="m30.84 19.15c-4.53-1.65-9.69-4.09-15.19-5.55-2.8919979-4.454686-6.13923167-8.66839818-9.71-12.6-.25 0 .08-.9-1-1-1.1 4.28.34 12 .46 17.7-2.80976597 4.5730741-4.6479236 9.6756635-5.4 14.99 3.2 1.31 10.13-7.16 14.28-9.57 4.72-.28 10.72-1.36 16.12-2.27 1.05.35 1.45-1.28.44-1.7zm-9 1.2c-2.57.39-5.6.5-7.89 1.83-3.8 1.17-7.64 5.63-11.84 8.42 1-3.71 3.06-8.19 3.92-12.77 1.24-3.65.48-10.06-.27-14.7 2.42 3.19 5.46 7.17 8.6 10.87 3.27 2.86 8.12 3.52 12.67 5.61-1.74.16-3.5.49-5.19.74z" fill="#000"/><path d="m72.23 12.13c-2.84-1.37-7 3.36-10.94 4.92-3.7-1.07-8.71-2.25-13.36-3.22-1 2 6.14 7 8.48 9.78.2 4 .72 9.69 2.71 13.91 3.2-1.77 4.11-10.32 5.65-14.59.0051667-.0230473.0051667-.0469527 0-.07 2.34-2.86 6.02-6.66 7.46-10.73zm-4.59 4.64c-1 1.36-3.25 3.57-4 5.93-1.64 3.3-2.31 6.89-3.84 11.12-.74-2.81-.95-7-2.45-10.43-1-2.84-4.28-4.57-7-7.74 3.3800524 1.0886298 6.8455658 1.8914514 10.36 2.4 2.62.54 5.52-2.31 8.65-3.63-.61.79-1.16 1.58-1.72 2.35z" fill="#000"/><path d="m45.69 56.9c-1.43-3.61-3.11-8.29-6-12.1 3.44-21.83.52-14.92-7.35-2.11-22.19 11.7-12.55 9.08 2.1 8.35 2.64 1.17 9.98 8.67 11.25 5.86zm-10.63-6.73c-.0918276-.0237098-.1881724-.0237098-.28 0-2.64-1.09-7.45.17-11.35.11 2.83-1.6 7.76-4.12 9.38-7.36 2.28-1.87 5.1-5.73 7-9-.11 2.87-1.58 7.6-1.11 11.3.94 3.09 3 6.28 4.5 10-2.6169554-1.833936-5.3345419-3.5199079-8.14-5.05z" fill="#000"/></g></svg>