<svg height="172" viewBox="0 0 178 172" width="178" xmlns="http://www.w3.org/2000/svg"><g fill="none" fill-rule="evenodd"><g fill="#1d1819"><path d="m92.9229804 147.745911 10.6450976-2.841134s3.02251 5.264454 4.760628 5.501215 6.282353-2.485992 6.282353-3.481781c0-.99579-4.139373-10.689069-5.486588-12.005183-1.347216-1.316113-13.6047847 5.515142-13.6047847 5.515142l-2.5967059 7.304777z"/><path d="m126.177569 108.151093 33.966588 11.141701s8.139137-3.02915 9.947059-4.268664c1.807921-1.239515 7.12698 1.093279 7.727294 3.711579.600314 2.618299-6.798902 10.73085-6.798902 10.73085l-5.584314 5.57085-5.430745-2.785425c-6.387059-.104454-24.319686-2.653118-37.393961-3.913522-4.46047-.431741-8.495137 2.367611-8.830196 2.562591-4.572157 2.667044-18.7981959 16.461862-20.8504312 16.823967-2.0522353.362106-10.6311373-2.534737-10.9173333-5.939919-.2861961-3.405182 13.7583529-23.265263 13.7583529-23.265263z"/><path d="m60.4152941 80.1575709s-18.8470588 8.8367611-36.2980392 6.88c-17.45098039-1.9567612-24.1172549-9.0456681-24.1172549-9.0456681 9.88969622-2.8468902 20.0178545-4.7930546 30.26-5.8145749 16.1596078-1.5110931 24.9688627.8147369 24.9688627.8147369l5.1864314 7.1376518z"/><path d="m51.7596078 62.6720648s-11.8038431-11.5664778-23.9985882-15.2710931c-12.1947451-3.7046154-19.38454901-3.0361134-19.38454901-3.0361134s10.06572551 15.4730364 27.06996081 23.7387854 21.681098 5.1739272 21.681098 5.1739272z"/><path d="m76.7843137 96.7935223c4.1210595-2.4579142 8.4000033-4.6422418 12.8090196-6.5387855 8.1042353-3.5792712 12.0272157-3.9831579 12.0272157-3.9831579s3.392471-2.0194332 12.034196-3.9831578c4.670072-1.1089375 9.408423-1.9091653 14.184157-2.3954656l-3.183059 22.6594335 2.84102 7.590283s0 1.11417-2.792157 2.862024c-2.792157 1.747855-12.466981 5.125183-12.466981 5.125183s-9.730666 3.022186-13.0603132 3.321619c-3.3296471.299433-2.7293334-1.859271-2.7293334-1.859271l-6.4778039-6.267207z"/><path d="m94.9333333 115.058947c3.2319216-.41085 6.5615687-.981862 9.7376467-1.685182 1.833287-.378168 3.640287-.873604 5.409804-1.483239h.041883.041882c1.784324-.566236 3.530638-1.245401 5.228314-2.03336 2.966666-1.337004 5.975215-2.862024 8.809255-4.463644l1.221568-.696356 3.092314 3.607125-1.193647 1.107207c-1.232978 1.118103-2.52379 2.171043-3.867137 3.154494-2.807624 2.133994-5.852575 3.937867-9.07451 5.37587-.593333.257652-1.193647.494413-1.800941.696357l-.160549.055708h-.034902l-.16753.048745c-.614274.188016-1.242509.355142-1.870745.50834-3.437402.758995-6.950143 1.125775-10.470588 1.093279-1.6640951.012649-3.3277109-.061731-4.984-.222834l-1.6264314-.174089.321098-4.735222 1.3960785-.174089z"/></g><path d="m95.1636863 116.74413s9.9470587-1.253442 15.5104317-3.251984c5.654117-1.72 14.379607-6.650203 14.379607-6.650203l1.123844 1.30915s-6.722118 6.225425-14.149255 8.885506l-.153569.055709-.160549.048745c-7.545804 2.297975-16.6691764 1.309149-16.6691764 1.309149z" fill="#fff000"/><path d="m111.504784 81.6129555-4.935137 27.0116595-.167529-8.042915-14.1073729-12.6110117z" fill="#fff000"/><path d="m91.0243137 111.417004c-8.2632428-2.877447-16.7247117-5.153534-25.3178823-6.810364-12.9346667-2.360648-15.2730981.11838-15.2730981.11838s-1.8847058 2.416357-3.0155294 3.070931c-1.1308235.654575-3.008549-.828664-3.008549-.828664s-2.9736471.208907-3.9997647-.557085c-1.0261177-.765991-2.3872941-12.2489065-.4816471-13.7948174 1.9056471-1.5459109 22.2046275-2.0263967 39.5578824.2437247 17.3532549 2.2701215 11.5385882 18.5578947 11.5385882 18.5578947z" fill="#1d1819"/><path d="m121.354118 103.401943s6.652313-13.7182183 13.367451-22.7221049c6.715137-9.0038867 8.097255-10.208583 10.198353-10.3478543 2.101098-.1392712 3.141176.4804858 4.46047.1740891 1.319294-.3063968 1.675294-2.7854251 1.675294-2.7854251s2.394275-1.9497976 2.624628-3.2519838c.230353-1.3021863-5.696-8.4607288-8.264785-8.3005668-2.568784.1601619-17.569647 10.8422672-29.045411 24.8459919-11.475765 14.0037247 4.984 22.3878539 4.984 22.3878539z" fill="#1d1819"/><path d="m53.365098 86.5710121c10.1564706 13.1123887 32.7659608 15.2293119 47.285177 12.311579 2.659529-.5361943 7.678431-1.6921458 8.858117-2.2492308 6.031059-2.9525506 19.335686-9.9161133 25.45051-26.2804858 3.762431-10.0553846.335059-29.4976518-5.961255-41.2939271-7.050196-13.2307693-16.815765-22.49927129-33.8199999-24.05910934-11.8038432-1.07935223-29.4153726 4.95805668-39.4322353 11.32971664-21.4926275 13.6764372-18.8470589 48.891174-2.3803138 70.2414574z" fill="#1d1819"/><path d="m109.403686 14.142996c-4.510807-2.5003434-9.5125834-3.9925067-14.6588233-4.37311746-10.7707451-.98882591-27.3840784 4.87449396-36.4097254 10.59854256-2.8480324 1.8090278-5.312205 4.1584253-7.2526275 6.9148178-8.3764706 11.8380566-6.8826667 29.3305263-1.8498039 42.1991902 1.9642412 5.0703617 4.6361739 9.8387067 7.9367059 14.1638867 2.6385882 3.3982186 6.3521568 5.9747368 10.6660392 7.8061538-2.79655-1.5402357-5.2592431-3.6183007-7.2456471-6.1140081-3.3020435-4.3267163-5.9740734-9.0975792-7.9367059-14.1708502-5.0328627-12.8686639-6.533647-30.3402429 1.849804-42.1991902 1.9379602-2.7560719 4.3997906-5.1054975 7.245647-6.9148179 9.0256471-5.7449392 25.6459608-11.6082591 36.4167059-10.5915789 3.8625141.3089206 7.6536761 1.2133171 11.2384311 2.6809717z" fill="#fefefe"/><path d="m62.4814902 73.3750607s-3.0643922-11.2740081 5.1864314-15.5774898c8.2508235-4.3034818 23.8659608-.9957895 27.6563137-.8147369s3.1830588.1253441 4.1463529.1323077c.8655688-.5153036.3420393-.1392713 3.6507448-2.2840486 3.308706-2.1447773 7.357334-11.7614575 16.403922-12.2210526 9.046588-.4595952 10.735843 12.0469635 10.735843 12.0469635s.698039 7.0053442-7.11302 12.2906883c-7.811058 5.2853441-18.023372 3.2937652-20.536313 5.4733603-4.355765 2.4302834-18.7423532 9.6584616-27.7819611 9.0526316-5.2615143-.3247218-9.9632894-3.3881898-12.3762353-8.0638057z" fill="#fbd7a3"/><path d="m71.360549 67.191417c3.8418087-.6235253 7.7236366-.9702788 11.6153726-1.0375708 2.9975218.0228724 5.9890134.2719503 8.9488627.7451012 0 0 1.3960784 5.1669635-.5654118 6.3438056-2.3223694 1.3645745-5.2416243 1.1911627-7.3852549-.4387044-1.4567154-1.2180907-2.6288665-2.7391641-3.4343529-4.4566802l-9.1792157-1.1698785z" fill="#1d1819"/><path d="m107.498039 62.6720648s5.549412-4.4009717 8.9-6.434332 5.374902-2.388502 5.374902-2.388502 2.624628 8.7601619-1.947529 9.4982996c-4.572157.7381376-5.423765-3.5862349-5.423765-3.5862349z" fill="#1d1819"/><path d="m116.125804 167.062834c11.266353 0 20.396706 1.072389 20.396706 2.395466s-9.130353 2.395465-20.396706 2.395465-20.3897256-1.072388-20.3897256-2.395465 9.1303526-2.395466 20.3897256-2.395466z" fill="#1d1819"/><path d="m153.757098 57.9507692c.516549-2.1517409 10.268157-24.1008907 9.905177-38.9959514-.362981-14.89506071-6.75702-18.9548178-6.75702-18.9548178s3.943921 14.2195951-.621255 33.2231579c-4.565176 19.0035627-7.057176 23.6412955-7.057176 23.6412955z" fill="#1d1819"/><path d="m153.038118 56.9619433-2.177883-.7520648c-.544119-.2460395-1.18584-.0182855-1.451921.5153037l-6.058981 17.4089069c-.126362.5853387.239679 1.1640217.823687 1.3021862l2.177882.7520648c.54412.2460395 1.18584.0182855 1.451922-.5153037l6.05898-17.4089068c.12245-.584641-.241994-1.1607995-.823686-1.3021863z" fill="#1d1819"/><path d="m152.172549 55.9382996c-1.671963-.6268563-3.449782-.92481-5.235294-.8774089-.34902-.5988664-1.123843-.9818624-1.396079-.6406478-.280805.5253505-.476355 1.0917857-.579372 1.6782186-.279216 1.2604049 2.184863 3.1893118 5.584314 4.380081s6.568549 1.1907692 7.13396.0348178c.283516-.5223376.481467-1.0865479.586353-1.671255 0-.4317409-.837647-.60583-1.479843-.3551417-1.361721-1.1342872-2.927673-1.9992744-4.614039-2.548664z" fill="#1d1819"/><path d="m152.619294 54.6639676c-3.280784-1.1350607-6.282353-1.0445344-6.736078.2089069-.453726 1.2534413 1.877725 3.1893117 5.158509 4.3243725 3.280785 1.1350607 6.282353 1.0445344 6.736079-.2089069.453725-1.2534413-1.877726-3.1893118-5.15851-4.3243725z" fill="#fefefe"/><path d="m152.724 54.3575709c-3.490196-1.2186235-6.729098-1.1907693-7.168863.062672-.439764 1.2534413 2.094118 3.2589474 5.584314 4.4775709 3.490196 1.2186234 6.736078 1.1907692 7.168863-.0626721.432784-1.2534413-2.094118-3.2519838-5.584314-4.4775708z" fill="#1d1819"/></g></svg>