<svg width="120" height="125" viewBox="0 0 120 125" fill="none" xmlns="http://www.w3.org/2000/svg">
<path d="M0 88.8599C38 83.4099 82.82 63.4699 89.39 21.4299L90.05 22.1299C87.7 22.1299 71.27 22.7399 76.72 19.6599C88.41 12.2099 95.72 -2.77007 97.19 0.449926C124.43 26.4499 125.13 19.9199 105.52 22.7499L106.02 22.2099C107.51 76.4899 58.07 125.82 11.57 124.07C11.57 124.07 25.15 103.13 25.24 103.07L25.34 103.71C19.11 98.6199 8.32 96.1099 4 89.2599C5.04024 90.6265 6.28881 91.8211 7.7 92.7999C34.24 108.13 27.59 97.0899 12.82 124.86L12.12 123.72C64.66 118.11 102.71 74.5699 104.82 25.0999C104.97 23.7799 104.56 21.8999 105.46 21.6499L119 20.4699L118.75 21.2199C112.43 15.2699 102.4 6.05993 96 0.0999261H96.44C90.858 8.15879 84.0253 15.275 76.2 21.1799L76 20.3499C80 21.7999 86.84 20.0099 90.6 21.5799C89.11 33.8299 83.47 45.5199 75.17 55.2099C58.62 75.7699 20.49 87.9999 0 88.8599Z" fill="#212A55"/>
<path d="M16.15 115.85C17.5264 118.452 18.6483 121.181 19.5 124C17.2965 121.868 16.0823 118.914 16.15 115.85Z" fill="#212A55"/>
<path d="M18.37 110.72C19.772 114.768 21.5848 118.661 23.78 122.34C20.3071 119.488 18.317 115.213 18.37 110.72Z" fill="#212A55"/>
<path d="M22.72 106.15C23.48 109.7 28.64 115.34 30.38 121.35C28.37 117.72 22 110.41 22.72 106.15Z" fill="#212A55"/>
<path d="M11.56 87.29C12.56 89.81 14.11 93.58 15.76 97.29C12.9448 94.7456 11.4059 91.0816 11.56 87.29Z" fill="#212A55"/>
<path d="M16.37 87C20.6854 96.1407 25.6794 104.945 31.31 113.34C24.421 105.789 19.3154 96.7877 16.37 87Z" fill="#212A55"/>
<path d="M21.38 86.1104C27.47 94.5504 33.67 104.39 40.72 113.11C32.62 105.46 26.88 96.4704 21.38 86.1104Z" fill="#212A55"/>
<path d="M27 84.2402C33.1744 93.5594 40.495 102.066 48.79 109.56C39.4421 103.166 31.93 94.4367 27 84.2402Z" fill="#212A55"/>
<path d="M34.19 82.4297C36.28 88.5997 47.68 97.3497 53.88 103.76C46 98.9397 31.18 83.7097 34.19 82.4297Z" fill="#212A55"/>
<path d="M36.7 81.4795C43.4613 89.8541 51.3886 97.2157 60.24 103.339C50.4778 98.4345 42.3131 90.8525 36.7 81.4795Z" fill="#212A55"/>
<path d="M41.83 79C48.9187 85.2904 56.4041 91.1191 64.24 96.45C55.5584 92.3835 47.9002 86.4203 41.83 79Z" fill="#212A55"/>
<path d="M47.24 77.2598C51.9 82.9998 62.57 87.8298 69.56 92.5198C62.06 89.1898 51 84.2798 47.24 77.2598Z" fill="#212A55"/>
<path d="M51.59 74.4697C58.6896 79.9932 66.4953 84.5434 74.8 87.9997C65.8764 85.9322 57.7861 81.216 51.59 74.4697Z" fill="#212A55"/>
<path d="M55.34 73.3096C61.3238 77.8146 68.0197 81.2859 75.15 83.5796C67.5044 82.7218 60.4474 79.0632 55.34 73.3096Z" fill="#212A55"/>
<path d="M58.16 70.4297C64.49 73.6097 71.8 76.9197 78.89 79.7797C71.3315 78.3663 64.2225 75.1599 58.16 70.4297Z" fill="#212A55"/>
<path d="M62.59 66.7402C70.1406 70.1032 77.9448 72.8652 85.93 75.0002C77.5606 74.3394 69.5119 71.491 62.59 66.7402Z" fill="#212A55"/>
<path d="M67 64.8604C74.24 66.7704 82 68.8004 90.34 70.8604C82.2458 70.3846 74.3201 68.3472 67 64.8604Z" fill="#212A55"/>
<path d="M70.34 62C77 63.2 84.18 64.35 91.85 65.33C84.5182 65.9184 77.1506 64.7778 70.34 62Z" fill="#212A55"/>
<path d="M73.6 56.7002C77.29 58.5302 87.02 59.4802 93.72 59.8902C88.26 60.8202 76.48 60.3002 73.6 56.7002Z" fill="#212A55"/>
<path d="M76.3 54.16C82.43 53.69 89.55 55.23 96.3 55.04C90.27 56.7 83.27 55.35 76.3 54.16Z" fill="#212A55"/>
<path d="M78.49 51C84.28 50.91 91.04 50.82 97.49 50.75C91.2664 52.3408 84.7533 52.4265 78.49 51Z" fill="#212A55"/>
<path d="M82.59 46.3097C87.2888 45.9254 92.0111 45.9254 96.71 46.3097C92.0713 47.4409 87.2287 47.4409 82.59 46.3097Z" fill="#212A55"/>
<path d="M84.8199 42.2399C88.9799 42.0599 93.4799 41.8299 98.5899 41.4199C94.2344 43.2839 89.3659 43.5738 84.8199 42.2399Z" fill="#212A55"/>
<path d="M86.67 38.2C90.14 37.87 94.24 37.6299 98.57 37.6399C94.7736 39.1336 90.59 39.3305 86.67 38.2Z" fill="#212A55"/>
<path d="M88.89 32.6602C93.5748 32.0686 98.2886 31.7348 103.01 31.6602C98.4749 33.2376 93.6022 33.5827 88.89 32.6602Z" fill="#212A55"/>
<path d="M90 26.6795C93.9661 25.2327 98.1047 24.3115 102.31 23.9395C98.4692 25.7793 94.2586 26.7166 90 26.6795Z" fill="#212A55"/>
<path d="M89.27 22.7399C94.88 21.0399 100.85 19.1099 107.16 16.8799C101.818 20.3763 95.6457 22.398 89.27 22.7399Z" fill="#212A55"/>
<path d="M85.6 17.6397C91.19 15.2097 97.6 12.6397 103.77 10.4697C98.2544 14.052 92.0756 16.4902 85.6 17.6397Z" fill="#212A55"/>
<path d="M88.49 11.4603C92.332 8.90849 96.4774 6.8459 100.83 5.32031C97.1776 8.18585 92.9785 10.2752 88.49 11.4603Z" fill="#212A55"/>
</svg>
