<svg width="129" height="113" viewBox="0 0 129 113" fill="none" xmlns="http://www.w3.org/2000/svg">
<g clip-path="url(#clip0_1_18)">
<path d="M44.37 1.72989C31.54 -2.90011 24.46 4.24989 21.76 13.0499L27 25.2899C27 25.2899 33.19 -1.29011 44.37 1.72989Z" fill="#64D7D7"/>
<path d="M13.3099 43.2106C13.9199 65.6606 13.4399 68.5006 27.8299 86.2106C42.2199 103.921 103.08 88.2106 101.36 96.8006C100.301 101.797 101.69 106.998 105.1 110.801C105.1 110.801 105.24 111.901 97.8099 112.531C90.3799 113.161 89.8099 105.211 89.8099 105.211C89.8099 105.211 32.8099 108.331 13.5999 89.2106C-1.67009 74.0006 0.049911 19.9206 0.289911 13.3606C0.529911 6.80059 4.85991 7.80059 12.4699 8.22059L13.3099 43.2106Z" fill="#64D7D7"/>
<path d="M43.85 2.12019C45.15 31.5002 39.71 63.0002 70.67 68.5902C76.57 71.3302 105.2 72.0202 97.36 68.3402C37.47 68.3402 51.43 43.8602 45.69 2.12019C45.56 1.38019 44.38 0.840197 43.85 2.12019Z" fill="#212A55"/>
<path d="M10.63 8.22038C8.27999 68.3204 7.83998 97.0004 70.56 96.9404C80.13 96.9404 98.97 100.19 101.79 95.6604C63.26 90.4004 17.7 104.84 13.79 52.9404C12 38.4904 14.38 2.22038 10.63 8.22038Z" fill="#212A55"/>
<path d="M98.78 69.0503C87 29.0903 124.87 85.6403 128.33 81.9003C128.58 76.9003 118.71 71.3203 115.96 66.6203C110.6 61.2503 98.85 44.2203 94.29 55.0003C92.66 58.4703 96.38 72.2903 98.78 69.0603V69.0503Z" fill="#212A55"/>
<path d="M126.84 80.3698C119.84 87.5798 99.63 129.68 102.47 96.6698C103.05 94.4198 99.47 94.1098 99.66 96.7798C95.59 141.34 134.66 76.4998 126.84 80.3698Z" fill="#212A55"/>
<path d="M44.9999 0.640025C32.6699 -1.65998 25.3899 19.05 26.9999 27.28C32.4799 20.56 30.7999 8.37002 40.5599 4.12002C41.9099 2.88002 46.3199 2.83002 44.9999 0.640025Z" fill="#212A55"/>
<path d="M10.9999 8.74057C19.9999 9.74057 22.3999 18.5306 25.5499 25.9906C31.3399 32.6706 24.0399 12.3806 21.7999 11.6806C20.6699 8.52057 9.43994 4.56057 10.9999 8.74057Z" fill="#212A55"/>
<path d="M13.41 7.27024C9.84996 8.19024 0.249963 5.68023 0.399963 11.0002C-0.320037 33.5702 -1.11004 56.2702 8.12996 77.3102C22.79 106 59.85 104.48 87.74 105.15C89.14 105.33 92.74 105.6 90.74 103.74C43.57 102.2 6.63996 101.64 3.35996 46.7402C1.78996 7.74023 -0.540037 9.04023 13.36 8.67023C13.94 8.58023 14.36 7.67023 13.36 7.24023L13.41 7.27024Z" fill="#212A55"/>
<path d="M90.3399 104.25C83.1499 117.17 114.16 112.25 102.84 110.25C92.6799 109.39 93.8399 112.49 90.3399 104.25Z" fill="#212A55"/>
<path d="M97.9299 52.5104C83.2699 48.0904 84.5999 72.1304 87.9999 70.2904C89.3399 63.1604 86.4599 52.2904 97.6299 53.7304C98.0999 53.7804 98.6299 53.3004 97.9699 52.5104H97.9299Z" fill="#212A55"/>
<path d="M44.51 0.690175C35.67 -2.51983 16 6.00017 22.08 14.9302C26.67 -1.18983 38.13 4.41017 44.51 0.690175Z" fill="#212A55"/>
<path d="M99.5099 96.3604C93.8799 97.8304 84.9799 110.15 95.5099 101.08C95.9899 100.08 101.77 97.8704 99.5099 96.3604Z" fill="#212A55"/>
<path d="M18.3099 32.0001C18.4799 31.2401 17.3099 21.0501 16.9099 26.7501C17.3999 30.8401 17.3799 34.1601 17.9099 38.8701C19.0999 38.7201 18.2899 34.3601 18.3099 32.0001Z" fill="#212A55"/>
<path d="M34 78.3498C26.34 74.3998 21.38 63.3498 20.5 55.0498C16 59.5698 31.81 84.0998 34 78.3498Z" fill="#212A55"/>
<path d="M72.2099 88.21C63.1099 88 50.0499 85.65 41.9299 84C50.3699 87.75 64.1299 90.89 72.2099 88.21Z" fill="#212A55"/>
</g>
<defs>
<clipPath id="clip0_1_18">
<rect width="129" height="113" fill="white"/>
</clipPath>
</defs>
</svg>
