<svg width="45" height="47" viewBox="0 0 45 47" fill="none" xmlns="http://www.w3.org/2000/svg">
<g clip-path="url(#clip0_1_53)">
<path d="M9.99999 23.2199C8.32999 21.2199 -2.78001 16.8899 0.649987 13.5499C6.30999 9.82988 15.75 -1.33012 19.86 0.129881C30.44 13.1299 24.07 7.17988 35.62 2.75988C41.71 14.9999 41.23 31.9299 45 46.0499C44.08 48.3799 39 44.3299 36.3 43.9399C-4.23001 27.6299 -0.140014 33.8899 9.99999 23.2199ZM5.17999 30.1599L43 44.7299C40.55 31.8399 37.87 17.7299 35.36 4.47988C34.67 4.21988 34.47 4.93988 32.98 6.05988C30.26 7.42988 28.55 12.1999 25.57 10.3399C18.13 2.47988 18.57 2.16988 17.34 3.09988C23.45 7.92988 21.24 5.34988 18.52 2.16988L2.06999 15.1699C12.88 23.7699 16.73 21.1299 5.17999 30.1599Z" fill="#64D7D7"/>
<path d="M14.8599 31.3899C13.8599 28.6599 27.7199 33.9199 28.3099 35.7299C24.3099 36.3999 19.3899 33.1999 14.8599 31.3899Z" fill="#64D7D7"/>
<path d="M24 30.0596C26.84 30.9896 31.77 32.2296 34.08 35.2596C31.46 34.8896 25.42 33.0696 24 30.0596Z" fill="#64D7D7"/>
<path d="M39.43 39.9999C39.95 42.2599 33.43 39.6399 32.03 37.1399C34.19 36.3699 36.73 38.6399 39.43 39.9999Z" fill="#64D7D7"/>
</g>
<defs>
<clipPath id="clip0_1_53">
<rect width="45" height="47" fill="white"/>
</clipPath>
</defs>
</svg>
