<svg width="102" height="101" viewBox="0 0 102 101" fill="none" xmlns="http://www.w3.org/2000/svg">
<path d="M6.98677 45.4881C5.39692 45.9645 3.07917 46.6363 1.14931 47.127C1.83889 48.2561 4.02255 49.3757 4.91325 46.9507C5.13832 46.1313 5.27241 46.4171 6.32114 46.9507C6.54621 46.4743 6.76649 45.9979 6.98677 45.4881ZM1.81973 45.126C1.39353 45.3738 0.742267 44.8926 0.689591 46.1313C1.04501 45.7732 1.42245 45.4375 1.81973 45.126ZM9.1848 44.845C7.98762 45.0689 7.07776 45.3452 6.6803 47.1794C7.88227 47.9321 8.70114 46.5505 9.1848 44.845ZM3.24677 42.4009C3.04086 42.5915 2.28903 42.4009 2.18846 42.9679C2.52425 42.7491 2.87832 42.5594 3.24677 42.4009ZM2.07832 40.4953C0.545929 40.5334 -0.172381 43.5396 0.359169 45.1213C0.809309 44.3908 1.24508 43.6444 1.66649 42.8821C0.335225 41.6816 3.02649 41.9293 2.07832 40.5V40.4953ZM4.20931 38.1942C4.11832 38.4133 4.03213 38.6277 3.94114 38.8421C3.98424 38.8088 4.51579 38.7754 4.20931 38.1942ZM4.0848 38.0465C3.46706 38.2895 1.98734 38.1084 1.71917 39.4233C2.34649 39.1041 3.76396 39.4615 4.0848 38.0465ZM5.39213 36.522C5.21494 36.6792 4.83663 36.4505 4.71692 36.965C4.95574 36.8392 5.18186 36.6909 5.39213 36.522ZM10.1473 17.5654C10.2335 17.3463 10.3054 17.2653 10.3676 17.2558C10.3054 17.2558 10.2335 17.3463 10.1473 17.5654ZM17.2395 0C11.2775 11.0814 8.34199 24.0113 3.35213 35.4882C5.93804 29.5997 8.39945 23.5158 10.4538 17.2796V17.2319C10.4155 17.1795 10.5065 17.5607 10.8561 17.3796C9.57748 24.1066 5.80396 29.452 4.08959 36.0313C3.10311 35.3643 3.04086 36.4219 2.47579 37.6701C2.90199 37.4319 4.23804 37.5796 4.66903 36.7554L3.831 37.0175C6.78086 34.0399 7.70987 28.4086 9.73072 24.5449C8.44184 28.4767 6.89494 32.3201 5.10001 36.0503C9.40987 35.2357 12.9966 33.8112 14.4716 29.1423C13.7149 30.6319 12.9855 32.1358 12.2831 33.654C17.0718 32.6106 20.424 16.2124 21.7265 13.7398C24.1831 8.81368 28.1913 -4.32585 19.9259 3.36349C19.7823 3.32538 19.6338 3.24915 19.1166 3.07288C20.7592 -0.171509 18.1158 0.790849 17.2395 0Z" fill="#66C5EE"/>
<path d="M0.689577 46.1313C0.172394 46.6888 -0.124507 47.4129 1.1493 47.1271C0.959079 46.8106 0.798769 46.4773 0.670423 46.1313H0.689577ZM2.1693 42.9775C0.98169 43.7826 0.560282 44.745 0.713521 45.2595C1.47972 45.0499 1.59944 44.0208 2.18845 42.9965L2.1693 42.9775ZM1.70479 39.4377C0 39.5425 1.81014 40.7431 0 41.1528C0.608169 41.1528 1.43662 40.5906 1.70479 39.433V39.4377ZM3.92676 38.8517C3.03606 39.5997 2.54761 41.5959 1.66648 42.8774C3.00732 42.563 3.1031 40.2714 3.94113 38.8327L3.92676 38.8517ZM2.47577 37.6702C1.54197 37.856 0.914648 37.9084 0.517183 39.1852C1.13493 38.8565 2.14056 39.0756 2.47577 37.6702ZM4.7169 36.9746C4.41521 37.1128 4.43437 37.351 4.08479 38.0561C4.1662 38.0561 4.15183 37.9847 4.2093 38.2038C4.37211 37.7941 4.54451 37.3844 4.7169 36.9746ZM5.10479 36.0504C4.8031 36.26 4.99944 36.0504 4.66901 36.7555C4.95634 36.5792 4.79352 36.7555 5.10479 36.0504ZM12.2879 33.6683C10.3724 37.0938 8.89746 41.6197 6.98676 45.5025C9.14169 42.3296 10.1521 37.432 12.2879 33.6683ZM50.4445 29.3806C49.5155 30.7574 50.4445 32.544 51.1293 29.6617C51.1293 29.5092 50.3823 30.1381 50.4445 29.3806ZM56.3969 28.1086C54.7496 28.9947 51.9099 28.585 51.4837 30.8956C52.5515 30.1953 57.7569 29.7331 56.3969 28.1086ZM47.533 27.2367C47.5151 27.5396 47.4735 27.8407 47.4085 28.1371C47.327 28.099 47.8873 27.3654 47.5234 27.2367H47.533ZM45.6701 23.8589C45.817 24.4119 45.9179 24.976 45.9718 25.5455C45.9144 24.9928 46.5369 25.1881 46.4842 24.6355C46.9157 24.8569 47.2274 25.2559 47.3366 25.7265C47.8155 25.2501 47.1259 24.0495 45.6797 23.8685L45.6701 23.8589ZM44.3772 22.5869C34.5651 25.1738 25.5287 29.9237 15.5873 32.6297C13.5282 32.8155 13.7293 35.0976 12.7141 36.7936C11.4546 39.8522 10.0611 41.4863 9.19915 44.8546C48.6104 32.3248 39.1718 37.3748 44.7363 23.8208C44.2144 23.7398 44.5161 22.9871 44.3915 22.5869" fill="#66C5EE"/>
<path d="M3.67302 38.9471C2.79668 39.1853 1.40795 39.1806 1.10626 40.8147C1.66175 40.2334 3.09358 41.0576 1.86288 41.7056C1.47978 41.777 1.29781 41.8914 1.35527 42.5107C1.7671 43.8065 3.13668 39.7094 3.67302 38.9471ZM4.53499 37.0415C3.78316 37.5703 2.36091 37.0843 2.06879 38.6089C2.94513 38.1134 4.1902 38.5898 4.53499 37.0605V37.0415ZM4.95161 36.1077C4.48267 36.2714 4.0862 36.5933 3.83105 37.0176C4.43443 36.6508 4.56851 37.2463 4.94682 36.1172L4.95161 36.1077ZM12.1299 33.7065C10.0803 35.0405 6.44091 34.8357 4.81752 36.708L5.3826 36.5317C3.97471 37.5179 3.43837 40.7194 2.30344 42.7251L3.26119 42.4297C2.25555 42.6107 1.72879 43.9352 1.12541 45.15C1.34091 45.15 1.3026 45.4216 1.83414 45.15C-1.66163 48.2753 4.53978 46.3315 6.28767 45.7217C9.34767 43.0395 9.95583 37.3749 12.1539 33.7304L12.1299 33.7065ZM14.3375 33.0205C10.4491 33.5446 8.93105 42.8918 7.39865 45.4073C8.75865 45.3263 9.61583 44.4545 9.90795 42.6298C11.311 39.5855 13.035 36.4364 14.3375 33.03" fill="#66A1DF"/>
<path d="M51.4837 30.9144C48.1316 32.6724 41.0778 33.0202 40.6276 35.8596C37.3091 46.2407 34.4837 56.3455 31.5291 66.7456C32.3032 66.5478 33.0126 66.1539 33.5882 65.6022L32.233 66.1691C33.1907 64.4779 36.0353 64.5636 37.7257 63.2392C40.053 61.3669 43.7403 62.1006 44.473 59.1087C45.9431 49.5041 50.2674 40.6285 51.5891 31.5719L51.1102 33.0297C51.0625 32.3055 51.1889 31.5804 51.4789 30.9144H51.4837ZM51.6082 27.8463C51.4454 28.3561 51.3017 29.0135 51.1293 29.6567C52.2068 29.6567 52.566 29.0231 51.6082 27.8463ZM50.2817 26.3599C50.1285 26.8363 49.8029 27.813 49.664 28.2989C49.4533 28.1179 48.5099 28.2989 48.7972 27.4747C49.2378 26.8982 48.0645 26.1693 47.8395 26.8506C47.7868 27.4747 47.5713 29.328 48.5243 28.9945C49.2617 28.8658 50.8037 27.8177 50.4398 29.3756C51.8381 26.9506 49.6688 28.2036 50.2578 26.3599H50.2817ZM47.3367 25.7263C46.9296 25.9168 46.1826 26.0026 46.6519 26.2027C41.4896 28.1083 44.0564 27.5081 47.533 27.2365C47.5601 26.7254 47.4936 26.2137 47.3367 25.7263ZM45.2488 23.2441C45.1003 23.2441 44.9279 23.4156 44.722 23.8206C44.9998 23.8206 45.1147 23.8206 45.6798 23.8682C45.5696 23.4919 45.4307 23.2441 45.2488 23.2441Z" fill="#66C5EE"/>
<path d="M52.0488 29.4898C51.1629 29.404 50.9378 30.1663 50.5451 31.2382C51.2538 31.1763 51.7662 30.6046 52.0488 29.4898ZM44.722 23.8204C43.5009 27.0172 42.2271 30.9667 41.073 34.4778L50.5212 31.2525C49.7693 31.0762 49.8507 31.0667 50.2099 29.9662C51.455 26.355 47.4276 31.2573 47.6719 27.3459L47.4085 28.1368C47.9784 26.536 46.4124 27.3126 44.4922 27.6603C42.5767 27.6603 44.7603 26.8028 46.6423 26.193C46.604 25.8214 48.0167 25.6261 46.4651 24.6542C46.5178 25.2068 45.8953 25.0115 45.9527 25.5641C45.7707 24.9495 46.1443 23.506 44.7124 23.83" fill="#66A1DF"/>
<path d="M31.0502 69.7046C30.3654 70.1429 27.8178 77.2843 29.8242 76.5364C30.0541 75.8122 30.2552 75.0785 30.4611 74.3782C30.4349 74.396 30.4108 74.4168 30.3893 74.4401C30.1451 73.8446 30.758 73.0728 31.3471 71.9294C30.8682 72.2915 30.5521 71.8437 30.5713 71.0814C31.098 70.8337 31.6679 70.6907 31.0502 69.7046ZM32.64 67.1748C32.1228 67.3701 31.0885 67.3082 31.0071 68.5326C31.3902 68.2229 33.4014 68.2515 32.64 67.1748Z" fill="#66C5EE"/>
<path d="M31.8307 71.1435C31.629 71.3778 31.4673 71.6434 31.3519 71.9296L32.3096 71.5199C32.1601 71.3823 31.9999 71.2564 31.8307 71.1435ZM31.0071 68.5233C28.4738 69.0902 31.1986 69.5619 29.2544 70.4575C30.0972 70.0383 30.7437 70.2765 31.0071 68.5233ZM31.5147 66.7462C30.4659 67.094 29.6423 67.094 29.4747 68.4899C29.9535 68.1231 31.4189 68.1183 31.5147 66.7462ZM78.8369 54.4309C78.5257 54.5357 78.7603 54.7739 79.0093 55.4552C79.4882 54.9788 79.0093 54.7882 78.8369 54.4309ZM68.249 50.8292H67.9186C68.1676 51.015 68.431 51.2294 68.6848 51.4485C68.4262 51.2246 68.5651 51.0341 68.5986 50.834C68.4885 50.834 68.3736 50.834 68.249 50.834V50.8292ZM67.253 49.6572C59.5096 52.4538 52.4366 57.0083 44.7459 60.2384C42.5144 62.5633 42.5623 67.4513 41.0921 70.4623C39.9428 69.3093 39.5741 70.7624 38.4536 71.3722C37.0696 71.9725 36.9643 70.9959 36.8445 70.2002C38.2428 65.0788 36.811 67.7038 35.6857 70.1383C35.1781 71.2198 33.9426 68.7662 33.4733 70.0526C32.9944 72.9825 31.0502 70.6243 30.4612 74.3832C30.7054 74.145 30.873 74.6119 31.3806 74.2641C22.555 82.3631 69.5995 59.3237 70.3609 59.438C69.3744 58.1803 69.0775 54.5357 67.229 54.5405C69.0105 54.0212 64.8059 49.6096 67.3775 50.4814C67.3576 50.2039 67.316 49.9283 67.253 49.6572Z" fill="#66C5EE"/>
<path d="M31.1267 72.4673C30.418 73.2296 30.2408 74.0204 30.4132 74.4397C30.6718 74.0061 30.7436 73.363 31.1267 72.4673ZM44.0946 60.5045C40.2636 62.2863 35.1924 63.7727 32.2185 66.1882L33.5738 65.6212C33.0949 66.4549 31.347 66.1929 31.2608 67.665C31.5769 67.746 32.5681 66.5979 32.8267 67.6269C32.7118 68.737 30.6143 67.6793 30.6191 69.9042C30.8585 69.4802 32.2042 70.595 30.5664 71.1C30.6814 72.2243 31.098 72.4911 31.8307 71.1619C31.8738 71.0952 31.9743 71.3287 32.3478 71.5288C33.5402 72.4816 32.8938 69.1705 34.2154 69.7708C34.6033 69.9423 35.0822 70.6998 35.7095 70.1376C37.534 66.1929 37.8884 66.6265 36.8684 70.1996C37.0983 71.2715 36.8014 71.9051 38.7839 71.2C39.6698 70.5188 39.9763 69.3944 41.1016 70.4616C42.1216 67.2458 43.1847 63.8823 44.1042 60.4902" fill="#66A1DF"/>
<path d="M79.0141 55.4551C76.5191 56.7652 73.1718 58.0944 70.3656 59.4331C81.9496 82.8346 79.6558 82.0628 89.0943 85.9551C89.1758 85.9837 89.3242 85.8217 89.1566 85.7551C89.2619 82.3106 91.8048 78.3516 89.7696 75.3454C85.3831 68.8376 82.8019 62.0058 79.0141 55.4551ZM67.3774 50.5003C67.4346 50.7434 67.6707 50.9014 67.9186 50.8624C67.7318 50.7243 67.545 50.6004 67.3774 50.5003ZM72.4008 49.1807C72.4008 49.7524 74.0481 51.0387 72.4679 51.3198C72.2572 51.3198 72.238 51.2483 71.8405 50.5242C70.4039 50.5242 71.1127 51.5437 71.5053 52.3298C70.5476 51.0339 69.5563 50.1716 68.4549 50.4956C68.5731 50.5798 68.6296 50.7259 68.5986 50.8672C70.7104 51.2388 70.6242 52.406 69.7527 53.0873C67.727 53.7114 66.7214 55.1644 70.3273 54.0068C71.2084 54.0068 70.9355 55.1978 71.467 55.9124C72.9946 55.2883 73.3825 54.7023 73.78 56.3555C76.7155 55.6647 80.6183 54.6594 76.8735 51.9868L77.5152 53.3207C75.8966 52.0963 76.5574 49.4379 74.3929 49.3331C74.6659 49.7428 76.8927 53.7876 75.0538 52.3488C73.1383 47.1845 73.9907 51.5484 72.4008 49.2045" fill="#66C5EE"/>
<path d="M70.3273 53.9828C69.9394 53.9828 69.2307 54.2925 68.1484 54.6117C69.0774 55.4406 69.3935 59.9284 71.0216 59.1376C73.9811 57.2319 79.9383 56.4173 78.6501 54.5116C77.2422 55.05 74.7569 56.484 73.6076 56.2219C73.4878 55.7932 73.7225 54.7593 72.8749 55.2691C70.1214 56.8175 71.989 54.5021 70.3368 53.9685L70.3273 53.9828ZM66.7884 50.2334C66.0414 50.8242 67.4636 52.6774 67.8802 53.9733C68.4886 53.6283 69.117 53.3196 69.7622 53.049C69.2833 52.887 70.4326 52.6774 70.4997 52.2725C70.7583 51.9485 68.2394 49.8189 68.6943 51.4435C68.116 50.9527 67.4712 50.5454 66.7788 50.2334" fill="#66A1DF"/>
<path d="M65.9887 75.1353C63.647 76.5122 73.8566 78.6132 70.8206 79.809C70.4806 81.3621 74.6899 80.5808 72.0225 82.7866C71.9028 84.1205 74.5127 84.3873 75.298 85.6213C75.662 86.3692 73.167 85.0686 71.989 84.5398C72.2428 85.1544 71.2324 84.1062 70.7104 84.3778C70.3025 84.9934 70.3025 85.7917 70.7104 86.4073C71.6203 87.4793 72.3434 87.9747 71.1893 88.7513C78.0372 92.2339 81.4372 93.8061 89.6355 97.5793C86.9298 92.877 84.6456 86.8361 81.4276 82.334C76.2893 80.0377 71.2515 77.1792 65.9887 75.1353ZM94.5056 60.4951C92.4704 65.2307 92.0346 71.8004 90.7369 77.1029C91.8048 79.0896 93.1313 81.7623 94.1896 83.9252L95.0755 85.7642C95.0228 85.9929 95.7842 86.3978 95.0132 86.4597C93.7346 86.3311 94.4913 87.889 94.0172 88.8418C92.978 89.9995 93.1887 89.9995 92.0682 89.0467C91.6515 88.2844 90.6315 86.1882 90.3825 86.6979C90.2101 87.6984 91.3403 89.1086 91.1056 90.0328C88.2324 91.1667 90.0473 90.7999 90.0377 92.8913C87.5476 93.0295 90.6459 96.4359 91.1822 98.2129L91.12 98.2463C93.0355 99.1181 94.951 99.9613 96.5504 100.628C97.5082 90.4807 101.286 79.1134 101.545 69.1278L101.21 70.9048C100.697 68.8705 102.843 66.3455 101.263 64.7733C100.913 65.6261 101.152 69.466 99.8259 68.8086C99.5098 67.7366 101.741 64.3922 99.7541 64.497C99.6391 64.4446 99.5913 64.1397 99.7541 63.2821C99.6391 63.8777 99.4189 65.0544 99.3087 65.6642C97.7428 65.6642 99.0166 64.9258 98.0445 64.0492C97.3406 63.1345 97.1538 65.4165 97.058 65.8548C97.2927 63.4441 96.4498 62.0435 95.8082 61.9387C95.9087 62.5723 95.267 62.4532 95.3724 63.0868C95.1665 61.81 94.86 60.5142 94.4865 60.5142" fill="#66C5EE"/>
<path d="M90.737 77.1025C90.2581 79.6942 89.6499 82.9529 89.1519 85.7542C89.2094 85.7542 89.3147 85.9591 89.0896 85.9543C87.0305 85.0015 84.1716 83.6151 81.8586 82.5194C85.9626 89.1892 87.8877 97.0167 91.1823 98.2125C90.5933 96.7308 88.6539 93.9724 89.195 93.0196C89.7457 92.8957 90.5167 93.0196 90.0043 92.2573C88.1319 89.456 91.2877 91.3378 91.1488 89.4465C89.5254 85.2111 90.871 86.4879 92.0682 89.032C92.1975 88.4365 92.3891 89.6751 92.8919 89.7371C93.6201 89.4808 94.1371 88.8332 94.2232 88.0696C94.1322 86.8023 94.2232 86.4307 95.3677 86.3688C94.0412 83.6151 92.3508 80.1087 90.737 77.1025Z" fill="#66A1DF"/>
</svg>
