<svg width="52" height="61" viewBox="0 0 52 61" fill="none" xmlns="http://www.w3.org/2000/svg">
<path d="M43.5399 30.9998C33.0999 35.8698 23.4499 44.5798 13.6899 51.6498C15.0399 53.9498 16.6899 57.9098 19.2199 57.6498C29.068 52.106 38.3113 45.5506 46.7999 38.0898C49.0999 36.8598 47.2099 30.9198 43.5399 30.9998Z" fill="#64D7D7"/>
<path d="M35.52 16.1499C25.08 20.9999 15.43 29.7499 5.67004 36.8099C7.01004 39.1199 8.72004 43.0699 11.2 42.8099C21.051 37.2706 30.2948 30.7148 38.78 23.2499C41.08 21.9999 39.18 16.0899 35.52 16.1499Z" fill="#64D7D7"/>
<path d="M30.85 10.5804C22.13 7.51043 13.35 4.77043 4.38004 2.44043C4.00004 11.3004 2.45004 21.5604 1.17004 30.7604C10.6944 23.5065 20.602 16.7701 30.85 10.5804Z" fill="#64D7D7"/>
<path d="M17.06 10.9306C16.0945 12.5798 15.3673 14.3575 14.9 16.2106C15.11 16.4906 15.4 17.0706 16.15 15.6906C16.8273 14.2416 17.3858 12.74 17.82 11.2006C17.83 10.9206 17.74 10.7306 17.06 10.9306Z" fill="#212A55"/>
<path d="M20.15 10.06C18.78 11.23 16.25 19.83 19.95 12.89C20 12.22 22.07 9.68 20.15 10.06Z" fill="#212A55"/>
<path d="M23.82 9.66016C22.97 9.73016 20.03 13.8402 21.96 13.6602C21.52 12.6902 25 10.4402 23.82 9.66016Z" fill="#212A55"/>
<path d="M25.88 10.4598C24.67 11.4598 25.12 14.3798 26.61 10.8298C26.64 10.5298 26.6 10.2898 25.88 10.4598Z" fill="#212A55"/>
<path d="M30.13 22.2207C29.27 23.7007 25.13 31.5507 27.33 31.6607C27.33 29.6107 31.91 23.2807 30.13 22.2207Z" fill="#212A55"/>
<path d="M34.0499 19.1807C32.9999 21.2607 29 27.3207 30.83 29.4007C31.64 27.9207 35.9299 19.4707 34.0499 19.1807Z" fill="#212A55"/>
<path d="M37.0001 20.3105C36.0001 20.7105 33.2701 26.6605 36.1201 25.2005C35.5301 24.2505 39.0001 20.6205 37.0001 20.3105Z" fill="#212A55"/>
<path d="M36.39 39.0002C35.39 41.3202 34.12 43.6502 33.58 47.0002C34.11 47.4602 34.58 46.8302 35.24 45.4202C36.15 43.1302 36.45 42.3502 37.42 39.3602C37.48 39.0002 37.1 38.5902 36.39 39.0002Z" fill="#212A55"/>
<path d="M42.61 35.0605C39.22 35.2905 38.93 41.1405 37.88 44.6105C39.29 45.5805 41.52 36.1805 42.61 35.0605Z" fill="#212A55"/>
<path d="M45 34.7805C44.83 35.8905 43 38.4205 43.64 40.3105C44.36 40.0005 44.1 40.3105 44.64 38.8705C44.58 38.0705 46.74 34.7505 45 34.7805Z" fill="#212A55"/>
<path d="M34.45 8.75027C27 6.51027 1.55 -3.63973 4.41 1.38027C2 10.5103 1.71 22.1003 0 31.8803C0.79 34.5903 3.7 30.6003 5.92 29.3603C18.89 18.3903 36.3 11.5803 34.45 8.75027ZM2.08 30.0003C3.29 21.2203 4.9 11.0003 5.29 1.71027C14.25 4.00027 23 6.79027 31.76 9.85027C21.5106 16.0269 11.6028 22.7534 2.08 30.0003Z" fill="#212A55"/>
<path d="M37.6399 13.84C30.9999 13.7602 -1.49005 40.2802 4.68995 38.1202C6.36995 39.9902 7.74995 45.3902 10.6899 46.2202C15.1399 43.3602 20.8099 39.7702 25.5199 36.5302C34.4699 29.2202 49.6399 23.5502 37.6399 13.84ZM39.8699 21.0902C40.5999 25.1902 24.6299 34.3302 21.1299 37.0002C12.9999 42.2402 10.3399 47.5902 5.66995 37.3802C14.8699 31.8902 37.4699 8.26019 39.8699 21.0902Z" fill="#212A55"/>
<path d="M46.71 28C40.1 28 7.58002 54.48 13.76 52.32C15.44 54.18 16.82 59.58 19.76 60.42C24.21 57.56 29.88 53.96 34.59 50.72C43.54 43.41 58.71 37.75 46.71 28ZM48.94 35.26C49.67 39.36 33.7 48.5 30.2 51.19C22.04 56.41 19.41 61.76 14.74 51.55C23.94 46.09 46.54 22.46 48.94 35.29V35.26Z" fill="#212A55"/>
</svg>
