<svg width="103" height="119" viewBox="0 0 103 119" fill="none" xmlns="http://www.w3.org/2000/svg">
<g clip-path="url(#clip0_1_92)">
<path d="M59.43 17.2699C60.73 14.5099 65.18 0.339861 70.29 3.05986C76.68 4.89986 69 24.2899 76.83 14.5799C79.71 10.2699 85.18 5.45987 86.12 13.1399C86.12 16.0299 82.12 21.9399 86.93 19.9699C88.62 17.2599 92.09 12.9699 96.03 13.6799C112.37 19.8799 61.08 73.4599 57.38 75.0599C45.08 87.7699 32.15 91.1599 34.55 93.5799C38.05 94.5799 41.97 91.1599 46.62 92.4099C52.15 93.1899 51.43 102 47.15 104.84C34.34 112.25 19.46 112.61 5.33 116.33C-13.15 124.65 49.96 110.91 49.45 106.33C61.9 94.0999 46.45 85.4899 35.23 91.2199L36.11 93.8099C62.28 79.4699 83.16 54.8399 98.63 29.2999C109.15 12.2999 93.63 3.51986 84.63 18.3999L87.12 19.6499C92.94 2.21986 79.42 2.64986 72.92 15.1699L75.44 16.0499C77.93 7.14986 73 -4.67013 64.26 1.90987C61.42 4.14987 54.64 20.9299 59.43 17.2699Z" fill="#64D7D7"/>
<path d="M59.15 12C50.15 36.18 37.74 60 20.15 79.47L22.36 80.57C22.93 70.78 11.16 65.57 4.78996 72.07C-1.00004 78.36 1.20996 87.78 1.13996 95.1C1.43996 102.24 -4.81606e-05 111.61 2.13996 118.93C9.52996 112.04 -4.04004 72.44 11.14 71.8C16.14 71.3 19.82 75.71 19.92 81.09C28.92 84 69.06 8.58999 59.15 12Z" fill="#64D7D7"/>
<path d="M31.3799 29.1498C29.2099 24.8398 25.3799 20.5698 23.2099 15.5198C16.2899 9.32977 28.5799 32.5998 31.3799 29.1498Z" fill="#64D7D7"/>
<path d="M20.61 41.7803C15.93 39.1603 7.33002 30.8603 3.27002 32.5203C4.56002 35.0803 23.34 46.2703 20.61 41.7803Z" fill="#64D7D7"/>
<path d="M98.8099 67.0601C96.1599 66.5601 89.3499 62.6701 87.1899 65.3401C87.1899 67.0401 101.58 70.4101 98.8099 67.0601Z" fill="#64D7D7"/>
<path d="M89.48 86.5703C89.3 83.3203 74 72.5904 77.66 79.0004C81.66 80.4204 89.44 90.7103 89.48 86.5703Z" fill="#64D7D7"/>
<path d="M78 98.1394C77.57 95.0794 65.12 84.1394 71.06 92.4494C73.12 93.5294 77.18 101.859 78 98.1394Z" fill="#64D7D7"/>
<path d="M11.15 54.4094C9.38 54.0594 -1.07 50.1694 0.0900031 53.7094C1.19 54.5794 14.02 58.3094 11.15 54.4094Z" fill="#64D7D7"/>
</g>
<defs>
<clipPath id="clip0_1_92">
<rect width="103" height="119" fill="white"/>
</clipPath>
</defs>
</svg>
