<svg width="48" height="96" viewBox="0 0 48 96" fill="none" xmlns="http://www.w3.org/2000/svg">
<g clip-path="url(#clip0_1_220)">
<path d="M11.2633 0.474934C8.19797 8.59691 3.04153 17.7122 1.04549 25.9672L1.79163 24.2373C1.79163 26.452 -0.869753 28.5145 0.294603 30.4726C0.836385 29.7027 1.48747 25.7201 2.63282 26.6706C2.75639 27.6163 0.190049 30.1922 1.28312 30.8908C1.85817 31.0714 1.88668 31.2092 1.38767 32.3165C1.81064 32.0741 1.86292 29.6694 2.7754 30.1732C3.3552 30.3537 3.37421 30.4916 2.87044 31.5989C3.89223 33.0912 4.19639 30.9953 4.60985 30.2777C3.81144 32.692 4.30569 34.2793 4.89975 34.5549C4.95203 33.8896 5.54609 34.1462 5.59837 33.4809C4.43401 44.4116 14.6613 16.1296 15.3647 15.6353C16.1869 14.0718 12.7461 12.7363 11.7053 11.648C13.3259 8.59216 14.0815 9.85157 16.7809 11.9854C17.8598 11.3248 16.4055 10.4219 15.6784 9.43335C10.3651 3.14107 14.8134 3.16959 20.0316 6.96206C23.8574 9.47612 26.7564 12.9644 29.3798 17.1086C35.4962 18.7102 48.5655 25.0025 47.9144 22.3981C46.0134 21.5379 41.1326 20.4496 41.5413 19.3993C42.2304 18.753 42.0879 18.5486 41.1754 18.2825C37.3354 17.332 41.4748 16.7807 39.84 15.431C34.0514 12.7506 37.0978 13.2829 40.0871 14.4139C39.4502 13.8769 42.9386 15.5403 41.1374 12.4227C40.4673 11.6052 39.1033 11.2155 40.1203 10.4314C32.5164 5.96404 20.5401 4.03929 11.2586 0.451172" fill="#FEDD66"/>
<path d="M14.2242 76.762C12.518 70.5315 15.3933 63.9303 18.777 58.4745C15.5786 63.9161 12.6891 70.3557 14.2242 76.762ZM20.2265 38.5426C20.4024 38.1671 20.5022 38.0673 20.5687 38.0341C20.5022 38.0341 20.4024 38.1671 20.2265 38.5426ZM16.5529 12.6416C16.5529 12.6416 16.4578 12.7034 16.5529 12.7509C15.745 14.6519 15.2697 14.7469 16.9473 16.3723C34.6883 35.905 2.45228 54.777 6.70099 76.2535C4.8 61.9961 15.6974 50.4903 20.6875 38.0388L20.716 37.958C20.678 38.0246 20.8206 38.5236 21.1105 38.1244C16.9283 50.9228 4.39604 62.1291 7.64198 76.7667C4.86179 80.7446 15.8448 94.5125 20.141 94.8832C2.93703 79.7133 6.79129 66.3066 16.0063 50.9656C5.99288 68.7493 4.71921 79.9984 18.6202 92.6353C21.9992 97.4733 30.3731 96.2234 22.7311 90.7343C22.2558 90.4206 22.6598 89.8931 23.3537 89.5462C19.3616 86.1576 15.6119 82.1703 14.2242 76.762C15.0891 83.3014 28.9568 94.5505 22.4079 86.2337C5.66496 72.5798 23.6246 56.5545 28.9378 43.1382C32.0554 35.9525 33.4479 28.2297 30.7913 20.5402C30.0547 17.741 28.9663 16.5339 25.8962 15.897C22.5695 14.7327 19.8083 13.7822 16.5529 12.6416Z" fill="#FEDD66"/>
<path d="M14.3144 4.27734C10.3319 5.30863 18.6487 10.7502 16.781 11.9193C14.6946 10.275 13.3259 8.27893 11.7053 11.5819C13.1312 12.5432 14.4546 13.6484 15.6546 14.8801C15.8685 14.3764 16.3437 13.25 16.5528 12.7415C20.2645 13.73 25.1073 15.7213 29.242 17.0472C25.996 11.5106 20.5877 5.66507 14.3144 4.27734Z" fill="#FEC366"/>
</g>
<defs>
<clipPath id="clip0_1_220">
<rect width="48" height="96" fill="white"/>
</clipPath>
</defs>
</svg>
