<svg width="41" height="49" viewBox="0 0 41 49" fill="none" xmlns="http://www.w3.org/2000/svg">
<g clip-path="url(#clip0_1_123)">
<path d="M39 28.91C38.85 27.44 37.46 25.37 35.5 28.13C33.74 25.06 32.03 29.93 28.17 30.64C26.96 30.11 29.47 28.53 27.88 27.17C29.75 24.43 27.15 22.89 24.38 26.4C25.33 25.29 25.18 22.26 22.64 23.78C23.36 21.94 23.78 15.56 19.83 20.23C20.44 19.11 21.9 13.73 18.26 16.12C18.26 15.12 19.87 11.24 16.75 11.92C17.75 10.27 14.15 5.91998 12.21 9.63998C12.11 8.21998 10.4 8.06998 9.00005 9.36998C7.62005 1.88998 2.40005 18.43 8.56005 12.9C6.78005 17.35 10.09 17.62 12.8 12.9C13.04 14.25 10.18 17.73 12.44 19.07C10.61 21.88 12.33 27.23 14.77 21.12C14.72 21.92 13.77 24.2 15.77 24.26C13.02 31.39 16.77 30.77 19.69 24.36C19.2 26.02 14.69 38.36 20.07 31.87C20.24 34.45 18.72 36.54 16.55 39.39C17.4 41.81 18.96 40.24 20.89 37.91C21.0103 38.0251 21.1534 38.1136 21.31 38.17C19.5 39.52 18.82 45.62 22.79 40.69C24.28 45.76 27.67 36.52 30.22 34.24C28.07 36.07 20.22 51.06 27.7 43.89C27.31 47.89 30.75 45.29 31.96 42.36C31.5 43.44 32.41 47.02 34.43 44.94C38.94 48.7 38.64 31.86 39 28.91Z" fill="#FFDF43"/>
<path d="M39.74 25.2998C36.68 25.8198 32.03 29.0298 28.74 27.6398C24.61 19.7398 22 8.88982 19.13 -0.00018377C16.26 -0.420184 16.54 6.48982 14.13 7.57982C9.79 9.33982 3.66 5.32982 0 7.44982C5.14 16.3798 14.05 24.7398 20.19 33.4498C17.84 35.1598 11.67 36.7798 10.96 40.1498C18.27 43.7998 27.5 45.4598 35.44 48.5498C38.22 46.5998 42.62 24.2898 39.74 25.2998ZM35 46.3298C28 43.9898 20.93 41.6398 13.89 39.3298C15.32 37.3298 22.45 35.3298 22.08 32.6998C16.22 25.1798 9.35 16.6898 3.21 8.89982C8.67 9.08982 17 13.2998 18.48 4.32982C28.18 36.7498 26.37 30.7298 38.83 27.6198C37.928 33.9273 36.649 40.1752 35 46.3298Z" fill="#212A55"/>
</g>
<defs>
<clipPath id="clip0_1_123">
<rect width="41" height="49" fill="white"/>
</clipPath>
</defs>
</svg>
