<svg width="101" height="65" viewBox="0 0 101 65" fill="none" xmlns="http://www.w3.org/2000/svg">
<g clip-path="url(#clip0_1_127)">
<path d="M100.11 2.8597C83.83 2.5897 52.93 -6.5303 78.11 9.2897C38.06 24.8397 -43.39 31.8597 28.8 33.9997C23.08 43.7897 1.63999 65.5997 6.99999 64.8997L85.28 21.8497C84.83 24.1497 84.17 42.7197 87.98 35.2797C92.5 24.5697 99.71 13.2897 100.11 2.8597ZM98 6.8897C95.67 15.6997 91 24.6697 87 33.3097C85.16 30.1597 90.07 15.9897 84.61 20.2097L10.08 61.1397C41.37 20.5797 35.85 36.3397 4.56999 30.4397C101.77 6.8797 81.08 12.8497 71.1 1.8297C78.7 3.5797 101 2.1797 98 6.8897Z" fill="#64D7D7"/>
</g>
<defs>
<clipPath id="clip0_1_127">
<rect width="101" height="65" fill="white"/>
</clipPath>
</defs>
</svg>
