<svg width="80" height="200" viewBox="0 0 80 200" fill="none" xmlns="http://www.w3.org/2000/svg">
<path d="M73.5331 24.1208C65.5706 4.85906 39.7699 -5.43892 22.2314 6.44296C1.62943 19.906 -1.87291 57.0094 3.96522 77.0604C13.006 111.793 42.4722 114.996 55.604 108.843C66.507 103.533 71.9518 91.2349 75.0181 80.0456C79.8635 61.9785 80.3398 39.8094 73.5331 24.1208ZM39.9893 83.6268C30.5953 82.4644 30.8923 38.3651 39.8689 37.2644C49.4074 37.9034 49.1318 82.9799 39.9893 83.6268Z" fill="#CCE3EC"/>
<path d="M43.5184 112.709C-14.9164 111.981 -10.5579 7.74496 33.1773 0.569123C49.4716 -2.58524 68.2515 7.70738 74.7585 23.5758C86.0843 47.7181 80.1953 113.756 43.5184 112.709ZM39.2375 2.70604C1.89164 3.30738 -4.01338 62.5181 9.33512 87.7074C18.895 109.281 45.006 115.235 58.4268 105.581C80.099 89.5651 80.4334 40.749 72.313 24.6658C66.6221 11.0765 52.4549 2.77047 39.2348 2.70604H39.2375ZM39.992 84.9691C28.9231 84.8215 28.9124 36.5235 39.8234 35.9221C51.1037 35.5114 51.1358 84.8752 39.9893 84.9691H39.992ZM39.992 38.6013C32.2569 42.1181 32.7545 78.8698 39.802 82.2604C47.7164 80.0215 47.3284 41.0738 39.9893 38.6013H39.992Z" fill="#A17A51"/>
<path d="M44.7786 199.783C44.0398 199.783 43.4408 199.182 43.4408 198.44V127.219C43.4408 126.477 44.0398 125.876 44.7786 125.876C45.5174 125.876 46.1164 126.477 46.1164 127.219V198.44C46.1164 199.182 45.5174 199.783 44.7786 199.783Z" fill="#A67C52"/>
<path d="M46.2876 127.176C45.0676 126.424 43.8555 127.342 42.5552 127.903C40.8615 128.54 39.192 128.54 37.6455 127.721C32.6689 124.15 34.6408 119.168 38.5739 115.839C41.5732 112.929 41.6803 111.788 44.5619 111.34C47.8662 111.356 47.9625 112.66 51.1171 115.466C59.9786 122.148 53.2575 131.181 46.2876 127.176Z" fill="#CCE3EC"/>
<path d="M40.1926 129.699C35.002 129.769 32.107 123.823 33.9505 119.525C35.1304 116.961 35.8234 116.95 38.6301 113.86C41.0194 111.38 41.9639 109.981 45.2522 109.992C48.5057 110.362 48.7652 111.471 51.6067 114.064C62.4589 122.336 53.8435 133.068 45.6482 128.352C44.0428 128.188 41.913 130.04 40.1926 129.699ZM44.9498 112.666C42.3251 112.934 42.2475 114.277 39.2749 117.066C33.7365 121.511 36.3318 126.972 40.2943 127.02C42.1672 127.093 43.2375 125.651 45.1104 125.544C46.1244 125.544 46.5445 125.812 47.4569 126.26C52.3639 128.717 55.596 123.307 53.2334 119.549C51.8903 118.054 46.697 112.252 44.9498 112.666Z" fill="#A17A51"/>
<path d="M47.6575 116.242C55.4702 118.234 64.5351 122.215 66.1672 111.718C64.9846 99.6107 53.592 105.608 47.596 107.447L47.6575 116.242Z" fill="#E8BD67"/>
<path d="M58.903 120.15C54.9378 119.97 50.2047 118.078 46.3278 117.294L46.2502 106.489C50.5686 105.235 54.9298 103.071 59.3258 102.889C70.9271 103.788 69.485 120.105 58.903 120.15ZM48.9846 115.205C53.3886 115.973 59.0876 119.232 62.6649 116.121C66.4348 113.074 64.9739 107.009 60.6635 105.764C56.7866 104.977 52.7706 107.425 48.9365 108.421L48.9846 115.205Z" fill="#A17A51"/>
<path d="M51.2401 111.058C44.9338 108.287 61.4903 104.615 60.7385 109.16C60.3104 110.961 57.6482 109.385 55.6201 109.758C52.4174 110.166 52.7679 110.768 51.2401 111.058Z" fill="#A67C52"/>
<path d="M41.105 116.795C33.2923 118.789 24.2274 122.77 22.5953 112.274C23.7779 100.166 35.1706 106.164 41.1666 108.003L41.105 116.795Z" fill="#E8BD67"/>
<path d="M29.8595 120.698C17.3137 120 19.3311 101.968 31.0903 103.552C34.9806 104.263 38.5338 105.817 42.5097 107.042L42.4321 117.852C38.5044 118.639 33.9452 120.486 29.8595 120.698ZM29.592 106.123C24.4201 106.123 22.2716 112.599 25.4716 116.056C28.0696 119.058 31.7485 117.973 35.2963 116.913C36.206 116.66 38.9351 115.973 39.786 115.758L39.8341 108.977C36.6876 108.043 32.9097 106.309 29.584 106.123H29.592Z" fill="#A17A51"/>
<path d="M37.5278 111.605C31.5505 108.733 28.6743 111.925 28.0268 109.705C27.4462 107.944 30.3759 107.557 32.4763 107.57C36.5806 107.579 41.3324 110.067 37.5278 111.605Z" fill="#A67C52"/>
<path d="M43.3953 118.862C53.6749 120.102 53.1719 106.183 46.2207 105.337C34.4856 103.396 35.5532 119.023 43.3953 118.862Z" fill="#E8BD67"/>
<path d="M45.3672 120.201C33.3271 121.544 33.5706 104.346 43.1037 103.938C55.6709 102.373 55.1759 120.174 45.3672 120.201ZM43.3953 106.612C38.8843 106.652 38.0816 111.981 39.5077 115.23C40.7813 117.675 43.4702 117.646 45.9478 117.485C50.0789 117.031 50.689 111.758 49.113 108.668C47.9411 106.607 45.485 106.51 43.3953 106.612Z" fill="#A17A51"/>
<path d="M69.7712 61.7852C67.7164 61.6054 68.6689 59.0255 68.5485 57.5087C68.5485 56.1825 70.5632 55.6725 71.1304 57.0497C71.2803 58.4859 71.6174 61.7235 69.7712 61.7852Z" fill="white"/>
<path d="M69.8676 54.2631C67.8957 54.1262 68.6662 51.4174 68.3585 49.8174C68.1485 47.059 67.757 44.3174 67.1866 41.6107C66.7719 38.2577 64.9712 35.5436 64.7786 32.4134C65.79 30.6631 67.3605 31.9651 67.6254 33.4416C69.1184 36.8698 73.311 54.7651 69.8676 54.2631Z" fill="white"/>
<path d="M63.9224 29.5302C62.1592 29.2107 61.7605 26.2846 60.5806 24.9503C58.6756 21.5275 56 19.1973 53.7926 16.2255C54.293 10.945 60.2595 19.9436 61.1451 20.9718C62.1752 22.7946 67.5291 29.1973 63.9224 29.5302Z" fill="white"/>
<path d="M51.1973 13.847C49.6294 13.6859 45.6829 10.3839 49.2415 9.75034C50.9057 10.1423 54.4696 13.0523 51.1973 13.847Z" fill="white"/>
</svg>
