<svg width="101" height="142" viewBox="0 0 101 142" fill="none" xmlns="http://www.w3.org/2000/svg">
<path fill-rule="evenodd" clip-rule="evenodd" d="M49.3298 21.4828L48.0568 7.80181C48.0568 7.80181 50.2038 6.29081 49.8068 3.98381C49.1298 0.0658062 44.9658 0.137806 44.0008 2.55181C42.7278 5.73381 45.2718 8.12081 45.2718 8.12081L45.0338 21.6408C45.0338 21.6408 47.8578 23.4038 49.3298 21.4828Z" fill="#72AA11"/>
<path fill-rule="evenodd" clip-rule="evenodd" d="M49.5827 103.271C60.2337 102.613 63.3547 90.4619 62.7157 81.0889C62.0197 70.9249 56.4737 62.0099 46.6517 63.5469C40.9447 64.4449 35.4757 70.2759 34.7217 81.4239C33.8137 94.7099 38.9307 103.94 49.5827 103.271ZM98.6977 67.9759C103.136 92.3629 100.607 137.326 56.7027 140.829C8.69369 144.657 -0.239311 104.245 0.714689 78.1499C1.66869 52.0369 14.9367 24.5779 41.4317 21.8369C78.3397 18.0199 94.2507 43.4749 98.6977 67.9759Z" fill="#77BC13"/>
<path fill-rule="evenodd" clip-rule="evenodd" d="M25.1999 109.662C25.1179 109.326 24.3259 110.146 23.8179 109.179C22.1699 105.194 18.0259 110.86 21.8839 113.671C24.5859 115.619 28.9859 111.736 25.1999 109.662Z" fill="#469D29"/>
<path fill-rule="evenodd" clip-rule="evenodd" d="M25.8366 117.744C21.6226 116.946 21.6576 122.202 26.6656 121.853C29.9986 121.306 29.4146 115.893 25.8366 117.744Z" fill="#469D29"/>
<path fill-rule="evenodd" clip-rule="evenodd" d="M14.2238 69.3324C14.1378 69.3534 13.4848 69.8074 12.9518 70.4424C10.3238 64.9134 7.28482 69.3274 10.5708 73.3604C13.7908 77.4044 20.3628 68.9734 14.2238 69.3324Z" fill="#469D29"/>
<path fill-rule="evenodd" clip-rule="evenodd" d="M23.7605 73.4339C23.4585 72.5059 21.4595 71.5689 20.3735 73.3819C19.7025 70.6919 16.6385 72.7049 18.0725 75.7389C19.4045 78.9139 24.2705 77.0239 23.7605 73.4339Z" fill="#469D29"/>
<path fill-rule="evenodd" clip-rule="evenodd" d="M16.7028 78.7572C15.9038 79.7632 15.2058 78.9862 13.6208 78.1192C11.4068 78.7972 13.2448 82.8112 15.8868 82.9182C19.1668 83.3992 20.8408 77.9252 16.7028 78.7572Z" fill="#469D29"/>
<path fill-rule="evenodd" clip-rule="evenodd" d="M57.8542 39.4466C58.1762 45.2936 53.6982 50.2936 47.8482 50.6136C42.0052 50.9336 37.0052 46.4566 36.6832 40.6086C36.3632 34.7646 40.8412 29.7646 46.6892 29.4426C52.5322 29.1206 57.5332 33.5996 57.8542 39.4466Z" fill="white"/>
<path fill-rule="evenodd" clip-rule="evenodd" d="M50.614 39.7669C50.758 42.3649 49.275 44.5569 47.302 44.6669C45.329 44.7749 43.616 42.7579 43.473 40.1599C43.329 37.5629 44.812 35.3689 46.788 35.2589C48.758 35.1529 50.473 37.1689 50.614 39.7669Z" fill="#1E120D"/>
<path fill-rule="evenodd" clip-rule="evenodd" d="M34.5935 46.4974C34.5935 41.4004 30.4635 37.2704 25.3675 37.2704C20.2725 37.2704 16.1425 41.4004 16.1425 46.4974C16.1425 51.5924 20.2725 55.7234 25.3675 55.7234C30.4635 55.7234 34.5935 51.5924 34.5935 46.4974Z" fill="#EE9DBB"/>
<path fill-rule="evenodd" clip-rule="evenodd" d="M80.3279 43.1566C80.3279 38.0606 76.1979 33.9296 71.1019 33.9296C66.0069 33.9296 61.8769 38.0606 61.8769 43.1566C61.8769 48.2516 66.0069 52.3836 71.1019 52.3836C76.1979 52.3836 80.3279 48.2516 80.3279 43.1566Z" fill="#EE9DBB"/>
<path fill-rule="evenodd" clip-rule="evenodd" d="M29.8054 46.5443C38.5754 56.9283 60.5294 58.2373 66.0604 42.3523C69.8134 40.9273 63.7184 59.4883 44.9424 57.0163C43.0204 58.6223 23.8434 48.0343 29.8054 46.5443Z" fill="#1E120D"/>
<path fill-rule="evenodd" clip-rule="evenodd" d="M94.7722 83.43C93.8122 83.215 93.4092 84.077 93.3542 85.898C90.3042 84.439 90.3122 90.215 94.2262 90.172C96.5612 89.328 97.0682 85.128 94.7722 83.43Z" fill="#469D29"/>
<path fill-rule="evenodd" clip-rule="evenodd" d="M88.8708 88.0043C87.4518 87.4423 86.6788 89.9733 85.3368 89.4183C79.5228 94.5603 95.0408 94.1663 88.8708 88.0043Z" fill="#469D29"/>
<path fill-rule="evenodd" clip-rule="evenodd" d="M94.4314 96.2103C94.0504 94.9143 91.4494 94.3983 90.9884 96.7013C84.6494 95.6833 93.9944 106.238 94.4314 96.2103Z" fill="#469D29"/>
<path fill-rule="evenodd" clip-rule="evenodd" d="M33.9343 112.31C32.7063 111.348 31.8103 113.314 30.3383 113.369C30.5393 113.399 30.6193 113.405 30.5813 113.388C30.5963 113.393 30.6083 113.396 30.6193 113.4C28.0813 112.075 27.6983 117.001 31.1193 117.26C33.2403 117.558 36.4143 114.53 33.9343 112.31Z" fill="#469D29"/>
<path fill-rule="evenodd" clip-rule="evenodd" d="M30.6189 113.4C30.6799 113.421 30.7109 113.431 30.6189 113.4V113.4Z" fill="#469D29"/>
</svg>
