<svg width="68" height="200" viewBox="0 0 68 200" fill="none" xmlns="http://www.w3.org/2000/svg">
<g clip-path="url(#clip0_1_1193)">
<path d="M66.192 36.2243C66.192 46.1041 61.8853 56.8438 60.248 66.6409C57.64 82.2457 55.6453 105.725 37.048 110.307C27.9067 111.405 20.48 109.292 15.9493 102.523C7.86666 86.8118 21.208 48.0828 31.496 41.0868C32.2356 40.3462 32.0036 39.6983 30.8 39.1429C16.784 42.2537 6.856 43.9706 2.552 32.4673C-0.0933373 23.2096 1.36266 14.8652 8.04533 9.67424C17.7867 1.51669 31.2453 0.41122 42.7787 1.93058C62.1413 5.10548 68.44 17.498 66.192 36.502V36.2243Z" fill="#CCE3EC"/>
<path d="M32.6 111.92C23.2667 112.043 15.384 107.191 13.3733 99.5674C8.23733 83.012 19.7573 48.9907 29.7413 40.7397C14.7493 44.3391 4.048 44.2296 0.738666 30.9079C-1.016 21.8959 0.0639997 14.4513 7.176 8.66489C18.0133 -0.440584 33.632 -1.18291 45.5253 1.08144C64.032 5.16956 69.648 18.1389 67.5227 36.5955C67.4373 45.8558 63.7387 55.749 61.904 65.0013C58.9733 82.6862 56.2667 111.733 32.6 111.92ZM17.0987 101.848C21.1653 108.144 28.672 110.013 36.8187 108.985C53.8373 104.665 56.1147 83.8344 58.6853 67.9119C60.2667 57.3351 64.8 46.3231 64.9227 35.8131C66.9707 16.8545 60.36 6.50735 43.104 3.33779C30.5867 1.59413 17.504 3.0494 8.13333 11.3485C2.56 15.9466 1.776 23.3324 3.44 30.753C5.97867 41.1001 15.1147 40.9266 23.1147 39.3378C25.3333 39.0521 28.4827 38.0828 31.08 37.8371C32.9973 38.4753 33.7467 39.9973 32.8693 41.498C29.88 44.2724 27.96 45.9786 25.4213 50.7797C16.368 68.227 11.632 90.4593 17.0987 101.848Z" fill="#A17A51"/>
<path d="M33.7413 199.933C33.0049 199.933 32.408 199.335 32.408 198.598V127.757C32.408 127.02 33.0049 126.422 33.7413 126.422C34.4777 126.422 35.0747 127.02 35.0747 127.757V198.598C35.0747 199.335 34.4777 199.933 33.7413 199.933Z" fill="#A67C52"/>
<path d="M35.256 127.714C34.04 126.967 32.832 127.88 31.5227 128.438C29.8347 129.071 28.1707 129.073 26.6293 128.256C21.6693 124.705 23.6347 119.749 27.5547 116.441C30.5573 113.546 30.6667 112.417 33.536 111.963C36.8293 111.979 36.9253 113.276 40.072 116.069C48.8907 122.721 42.192 131.698 35.256 127.714Z" fill="#CCE3EC"/>
<path d="M29.1707 130.224C23.8747 130.286 21.008 124.144 23.064 119.832C24.2667 117.49 24.8213 117.522 27.4667 114.617C30.0507 112.029 30.6347 110.718 34.1093 110.611C37.56 110.972 37.656 112.08 40.6933 114.814C51.2107 122.809 42.864 133.589 34.6053 128.879C33.0107 128.721 30.8853 130.574 29.1707 130.224ZM33.9013 113.282C31.3307 113.567 31.4053 114.649 28.672 117.218C21.472 123.108 26.6053 129.007 30.96 127.228C32.5173 126.497 34.16 125.519 35.904 126.547C40.7733 129.372 44.4827 124.531 42.32 120.379C41.1173 118.793 35.528 112.82 33.9013 113.282Z" fill="#A17A51"/>
<path d="M36.6107 116.846C44.3973 118.828 53.432 122.788 55.0613 112.347C53.88 100.304 42.528 106.27 36.5493 108.101L36.6107 116.846Z" fill="#E5AAB2"/>
<path d="M47.8187 120.729C43.8187 120.523 41.528 119.298 36.6747 118.24C34.6 117.808 35.4453 116.347 35.248 112.796C35.296 109.688 35.0667 108.563 35.328 107.562C37.4613 105.613 41.0427 105.543 43.7013 104.358C57.9947 99.2684 61.2693 119.893 47.8187 120.729ZM37.952 115.805C42.28 116.563 47.8187 119.664 51.3493 116.9C55.256 114.029 54.0987 107.989 49.84 106.486C45.9173 105.474 41.8053 108.064 37.904 109.055L37.952 115.805Z" fill="#A67C52"/>
<path d="M40.1813 111.682C33.896 108.924 50.4 105.274 49.648 109.794C49.2213 111.586 46.568 110.019 44.5467 110.39C41.3547 110.796 41.704 111.394 40.1813 111.682Z" fill="#A67C52"/>
<path d="M30.08 117.389C22.2933 119.372 13.2587 123.332 11.632 112.892C12.8 100.849 24.152 106.809 30.1333 108.644L30.08 117.389Z" fill="#E5AAB2"/>
<path d="M18.872 121.274C8.83467 121.031 7.17067 107.303 16.456 104.366C21.1147 103.378 27.8747 106.377 31.2267 107.864C31.8347 109.079 31.3147 109.853 31.4453 112.921C31.2773 116.686 32.0133 118.36 30.1307 118.753C25.3333 119.794 22.952 121.049 18.872 121.274ZM18.6053 106.764C13.464 106.796 11.3093 113.212 14.5013 116.644C17.08 119.626 20.7467 118.558 24.2827 117.49C25.1867 117.239 27.9067 116.555 28.7547 116.342L28.8027 109.599C25.6933 108.678 21.7573 106.919 18.5947 106.764H18.6053Z" fill="#A67C52"/>
<path d="M26.5147 112.227C20.568 109.372 17.688 112.545 17.0453 110.336C16.4667 108.585 19.3867 108.2 21.48 108.214C25.5707 108.222 30.3067 110.702 26.5147 112.227Z" fill="#A67C52"/>
<path d="M32.3627 119.445C42.608 120.678 42.1067 106.833 35.1787 105.992C23.4827 104.061 24.5467 119.605 32.3627 119.445Z" fill="#E5AAB2"/>
<path d="M34.328 120.78C22.328 122.115 22.5653 105.004 32.072 104.598C44.6027 103.041 44.1093 120.753 34.328 120.78ZM32.3627 107.263C27.8693 107.303 27.0693 112.59 28.4907 115.829C29.76 118.262 32.44 118.232 34.9067 118.072C39.0213 117.621 39.6293 112.379 38.0613 109.308C36.8933 107.258 34.4507 107.162 32.3627 107.263Z" fill="#A67C52"/>
<path d="M26.5147 41.3885C25.4667 41.4152 24.6933 39.9653 25.592 39.0895C26.696 38.3551 29.1813 38.2884 30.8613 37.4873C33.856 36.3685 36.7301 34.9496 39.44 33.2523C40.616 32.3765 42.4587 34.2163 40.904 35.4847C40.6747 35.6262 33.28 40.3738 26.5147 41.3885Z" fill="#A17A51"/>
<path d="M55.6453 60.5394C53.3387 60.2724 54.8213 57.5541 55.072 56.0454C55.168 53.7704 57.048 52.3899 58.0267 54.6008C57.7867 56.6088 57.1893 60.6515 55.6453 60.5394Z" fill="white"/>
<path d="M57.6267 51.7303C55.4533 51.498 56.648 48.9025 56.7973 47.3645C57.9679 41.2959 58.4847 35.119 58.3387 28.9399C62.976 23.5995 60.3707 41.506 60.2347 42.6836C59.632 45.0467 59.6027 51.984 57.6267 51.7303Z" fill="white"/>
<path d="M59.24 26.2884C57.16 26.1068 58.16 23.0334 57.3733 21.514C57.0827 19.5087 52.7173 15.4259 56.9707 15.7517C59.176 16.8598 62.416 26.1923 59.2587 26.2884H59.24Z" fill="white"/>
<path d="M52.3867 15.4099C34.2533 7.93324 19.9893 16.5234 19.416 13.9519C17.0827 9.84246 38.584 9.56475 39.5147 9.79706C42.1653 9.44726 58.6053 12.5501 52.3867 15.4099Z" fill="white"/>
<path d="M11.6293 18.9773C7.14666 17.506 15.0667 13.9119 16.6213 13.4686C18.008 13.3725 18.5093 15.3832 17.2027 16.0187C15.264 16.7103 13.5627 18.3044 11.6293 18.9773Z" fill="white"/>
</g>
<defs>
<clipPath id="clip0_1_1193">
<rect width="68" height="200" fill="white"/>
</clipPath>
</defs>
</svg>
