<svg width="77" height="200" viewBox="0 0 77 200" fill="none" xmlns="http://www.w3.org/2000/svg">
<path d="M74.6258 73.3333C69.038 52.136 51.467 60.728 61.9075 50.9333C68.7947 44.0453 72.4254 34.1333 70.4871 23.9067C63.4127 -6.98401 15.9561 -4.75201 4.99697 22.0987C2.43143 27.8369 1.63838 34.2075 2.71906 40.3973C5.30176 56.5493 19.8302 51.848 14.4027 57.2267C1.83409 67.3253 -2.40626 82.0187 4.92211 95.7333C14.1113 112.96 37.7701 114.376 54.7475 109.299C69.8534 104.424 78.0026 88.3013 74.6258 73.3333ZM25.2228 29.9067C25.8966 19.624 45.4193 20.1067 45.8096 29.9067C45.1279 40.1893 25.6025 39.704 25.2228 29.9067ZM38.3636 88.04C24.394 87.4827 25.017 73.224 38.3636 72.8827C52.3359 73.4427 51.713 87.704 38.3636 88.0453V88.04Z" fill="#E5AAB2"/>
<path d="M37.099 113.125C1.42504 114.107 -13.0606 77.192 14.0873 55.7333C14.2958 54.8027 10.2212 54.0346 9.66243 53.392C3.93021 50.5146 1.6416 44.4613 1.04003 37.848C0.0775347 26.7733 4.75101 16.1013 13.491 8.79999C27.589 -3.09868 52.0445 -3.24268 65.0115 10.3707C76.5669 22.6667 73.7917 41.9333 61.6214 53.1813C61.0278 54.048 59.8301 54.392 60.0707 55.2667C61.9289 56.7573 64.7361 57.312 66.8349 58.7333C71.4442 61.968 74.5216 67.3973 75.9252 73.0266C78.8662 84.848 73.6393 99.16 64.0169 105.976C57.4131 111.272 46.0316 113.237 37.099 113.125ZM38.7486 2.67999C0.395695 3.31732 -4.98896 48.0933 14.6059 52.616C16.0443 53.0613 17.0122 54.3093 16.8384 55.9227C16.6513 57.624 14.9027 58.3813 13.6301 59.7066C4.41146 67.6053 0.262014 79.368 4.14944 90.6027C12.8601 116.872 51.6969 112.613 62.5572 103.752C78.4437 92.0187 77.3422 65.456 62.2042 59.392C60.8247 58.712 59.1456 58.2133 58.0174 56.992C56.2768 54.7147 58.0013 52.9147 60.0279 51.008C61.8994 49.032 63.8244 46.8 64.0998 46.4373C78.6924 24.3653 63.2256 2.49332 38.7486 2.67999ZM38.3663 89.3787C22.6081 88.7227 23.2524 71.976 38.3663 71.5546C54.1219 72.2106 53.4722 88.9573 38.3663 89.3787ZM38.3663 74.2213C26.188 74.696 26.7816 86.4293 38.3663 86.712C50.5312 86.2373 49.9484 74.5013 38.3663 74.2213ZM35.5109 38.8187C19.7553 38.1627 20.3997 21.416 35.5109 20.9947C51.2665 21.6507 50.6222 38.4 35.5109 38.8187ZM35.5109 23.6613C23.3353 24.136 23.9288 35.872 35.5109 36.152C47.6892 35.6773 47.093 23.9413 35.5109 23.6613Z" fill="#A67C52"/>
<path d="M40.5213 199.957C39.783 199.957 39.1844 199.36 39.1844 198.624V127.877C39.1844 127.141 39.783 126.544 40.5213 126.544C41.2596 126.544 41.8581 127.141 41.8581 127.877V198.624C41.8581 199.36 41.2596 199.957 40.5213 199.957Z" fill="#A67C52"/>
<path d="M42.0399 127.835C40.8207 127.088 39.6122 128 38.2968 128.557C36.6044 129.189 34.9361 129.189 33.3908 128.376C28.4205 124.829 30.3883 119.88 34.3185 116.573C37.3156 113.683 37.4252 112.549 40.302 112.101C43.6039 112.12 43.7002 113.416 46.8551 116.203C55.7101 122.845 48.9939 131.813 42.0399 127.835Z" fill="#E5AAB2"/>
<path d="M35.9387 130.341C30.7519 130.411 27.859 124.504 29.7011 120.235C30.8802 117.685 31.5727 117.677 34.3773 114.605C36.7648 112.144 37.7113 110.755 40.9945 110.765C44.2456 111.133 44.5049 112.232 47.347 114.811C58.1911 123.027 49.5794 133.688 41.3928 129.003C39.7887 128.84 37.6578 130.68 35.9387 130.341ZM40.6817 113.424C38.2219 113.272 34.5324 118.648 32.864 120.053C30.2065 123.363 32.9629 128.728 37.1739 127.52C39.0187 126.955 40.6924 125.483 42.6895 126.672C47.5716 129.493 51.2906 124.659 49.1223 120.512C47.9165 118.933 42.3286 112.968 40.6817 113.424Z" fill="#A67C52"/>
<path d="M43.398 116.981C51.205 118.96 60.2632 122.915 61.8968 112.488C60.7123 100.461 49.3308 106.419 43.3365 108.245L43.398 116.981Z" fill="#DBEDE7"/>
<path d="M54.6353 120.859C50.673 120.68 45.9407 118.8 42.0693 118.021L41.9918 107.285C46.3177 106.037 50.665 103.888 55.0577 103.707C66.6558 104.6 65.2147 120.813 54.6353 120.859ZM44.7429 115.941C49.141 116.704 54.8331 119.941 58.4077 116.851C62.1802 113.813 60.6963 107.819 56.4212 106.563C52.6434 105.763 48.4833 108.229 44.6948 109.208L44.7429 115.941Z" fill="#A67C52"/>
<path d="M46.978 111.824C40.6763 109.069 57.2206 105.424 56.4693 109.939C56.0416 111.728 53.3813 110.16 51.3547 110.533C48.1544 110.933 48.5046 111.536 46.978 111.824Z" fill="#A67C52"/>
<path d="M36.8504 117.523C29.0461 119.504 19.9852 123.459 18.3543 113.032C19.5387 101.005 30.9069 106.963 36.9145 108.789L36.8504 117.523Z" fill="#DBEDE7"/>
<path d="M25.6132 121.403C13.074 120.709 15.0872 102.789 26.8431 104.365C30.7332 105.069 34.2837 106.616 38.2567 107.832L38.1792 118.568C34.2543 119.357 29.6958 121.189 25.6132 121.403ZM25.3458 106.912C20.1911 106.944 18.0335 113.352 21.2338 116.779C23.8272 119.76 27.5034 118.683 31.0486 117.629C31.9577 117.379 34.6821 116.696 35.5323 116.483L35.5804 109.749C32.4523 108.829 28.506 107.067 25.3351 106.912H25.3458Z" fill="#A67C52"/>
<path d="M33.2758 112.368C27.3003 109.515 24.4261 112.688 23.7818 110.48C23.2016 108.731 26.1292 108.347 28.228 108.36C32.3293 108.368 37.0777 110.845 33.2758 112.368Z" fill="#A67C52"/>
<path d="M39.139 119.576C49.411 120.8 48.9083 106.981 41.9757 106.133C30.2358 104.213 31.3026 119.733 39.139 119.576Z" fill="#DBEDE7"/>
<path d="M41.1095 120.909C29.0782 122.243 29.3188 105.155 38.8476 104.749C51.4109 103.2 50.9163 120.883 41.1095 120.909ZM39.139 107.411C34.634 107.451 33.8319 112.731 35.2569 115.965C36.5296 118.395 39.2166 118.365 41.6896 118.205C45.815 117.755 46.4246 112.52 44.8525 109.453C43.6815 107.405 41.2325 107.309 39.139 107.411Z" fill="#A67C52"/>
<path d="M65.0196 23.6613C63.2844 23.5973 61.5011 17.8826 64.6105 18.7146C65.9099 19.448 67.4338 23.5946 65.0196 23.6613Z" fill="white"/>
<path d="M61.5867 17.0373C60.8835 16.96 60.6509 16.7013 60.06 15.9333C55.1192 9.92799 47.7614 7.42932 40.3181 7.68532C35.4842 2.96265 50.3388 5.80266 51.5847 6.77332C54.0899 7.15732 66.9767 15.8427 61.5867 17.0373Z" fill="white"/>
<path d="M30.939 9.61332C26.6292 7.68798 33.257 5.98932 35.0403 5.75465C37.23 4.83198 38.8422 6.87732 36.9119 8.09865C34.9013 8.50132 32.9255 9.04265 30.939 9.61332Z" fill="white"/>
<path d="M8.55556 34.5653C6.10385 34.2506 7.75347 30.7653 7.88448 29.2133C9.13411 24.2478 11.6493 19.6888 15.1861 15.9786C16.3678 14.216 28.4686 4.93598 27.5409 10.536C27.1746 11.32 26.4928 11.2906 25.6693 11.7173C17.0042 15.5946 10.9431 23.9066 9.91375 33.0666C9.94431 33.8512 9.34127 34.5167 8.55556 34.5653Z" fill="white"/>
<path d="M9.40308 44.8667C7.4861 44.648 7.8604 41.7867 7.41391 40.2427C6.71342 38.088 8.0636 36.0133 9.74797 37.8853C9.92176 40.048 11.8735 44.872 9.40308 44.8667Z" fill="white"/>
</svg>
