<svg width="74" height="200" viewBox="0 0 74 200" fill="none" xmlns="http://www.w3.org/2000/svg">
<g clip-path="url(#clip0_1_1088)">
<path d="M64.9821 57.0806C63.083 55.3738 59.2027 56.2193 60.001 53.6301H59.8604C67.2153 49.7701 71.4193 43.6486 72.2548 35.4003C74.9575 11.6248 44.27 -2.48614 25.7276 2.19814C-8.84818 11.2127 -0.397851 37.0066 13.7762 37.0726C17.6274 36.8719 20.5821 34.3857 24.4863 34.0106C27.3429 33.7464 30.2047 34.6156 31.0137 37.675C30.7113 44.3197 19.0092 44.0502 15.7469 48.0502C12.7232 50.7556 12.8611 57.7596 15.4657 61.2602C17.9297 64.4306 22.8525 64.4306 26.5127 65.0357C32.5918 66.5575 34.2575 73.5297 27.6108 75.0753C22.4175 75.7754 17.1049 71.8203 11.962 72.605C6.09771 73.4557 3.8114 80.317 3.57269 85.5244C2.9096 96.7292 9.89584 105.125 19.0039 108.246C25.0725 110.497 33.5918 110.642 39.6099 109.752C73.0956 105.966 80.1163 67.3157 64.9821 57.0806Z" fill="#DBEDE7"/>
<path d="M32.2258 111.613C-0.424377 111.799 -2.22531 82.1242 6.93849 73.6195C12.7736 68.354 19.614 73.2312 25.8098 73.86C32.6237 73.9445 31.4434 67.6354 26.2581 66.3435C22.6535 65.8151 18.0358 65.6195 15.1342 62.8771C11.1398 59.0515 11.1053 49.5376 15.5241 46.4993C18.9111 43.0832 29.2764 42.8005 29.6663 37.8098C28.7115 35.004 25.4491 34.9458 22.4758 35.7701C13.5269 39.7833 7.95699 39.4267 2.46666 31.8785C-7.16129 15.4399 13.5561 2.71598 27.4118 0.528396C43.8563 -2.32762 65.2606 6.82958 72.1195 23.3157C76.4136 34.8322 72.3025 48.4782 61.42 54.2959C75.6763 57.7754 75.7665 77.6248 71.04 88.3144C63.7461 105.247 48.0072 111.696 32.2258 111.613ZM13.3333 73.8547C2.88573 74.3276 3.53555 91.6777 7.76337 97.7675C14.251 108.888 29.8201 110.428 42.432 107.966C75.48 101.942 78.0925 60.0238 60.3856 56.7107C59.1682 56.2721 58.4812 55.3448 58.59 53.9551C58.5903 53.9489 58.5903 53.9427 58.59 53.9366C58.4149 53.181 58.8897 52.5548 59.7862 52.1691C66.7485 48.3144 70.2576 42.7265 71.0002 34.8058C72.8568 19.1361 57.4919 7.32892 43.6812 3.89431C30.4806 -0.0686982 9.46616 5.65917 3.58064 19.1176C0.742649 25.7992 4.97577 34.5205 12.4474 35.7199C16.1978 36.177 19.3726 33.5007 23.5235 32.7979C27.7195 32.0053 32.5706 34.0528 32.247 38.4808C31.1861 45.5033 20.5423 45.0251 16.7654 48.8771C14.2351 50.7767 14.3146 57.1519 16.2614 60.111C18.2082 63.07 23.1257 63.1704 26.7885 63.7543C37.3978 66.9405 33.7589 78.4914 23.7649 76.2378C20.2399 75.5614 16.7097 73.8864 13.3333 73.8547Z" fill="#A67C52"/>
<path d="M37.2679 199.847C36.5355 199.847 35.9417 199.255 35.9417 198.526V128.433C35.9417 127.704 36.5355 127.112 37.2679 127.112C38.0003 127.112 38.594 127.704 38.594 128.433V198.526C38.594 199.255 38.0003 199.847 37.2679 199.847Z" fill="#A67C52"/>
<path d="M38.7744 128.402C37.5649 127.662 36.3661 128.565 35.0744 129.118C33.3981 129.744 31.7431 129.744 30.2074 128.938C25.2767 125.421 27.2315 120.52 31.1277 117.244C34.1037 114.37 34.215 113.247 37.0663 112.814C40.3393 112.83 40.4348 114.114 43.5645 116.877C52.3358 123.448 45.6758 132.333 38.7744 128.402Z" fill="#DBEDE7"/>
<path d="M32.7244 130.875C27.4543 130.935 24.6057 124.859 26.6506 120.592C27.8362 118.272 28.3958 118.306 31.0323 115.429C33.6024 112.869 34.1859 111.575 37.6366 111.466C41.066 111.823 41.1721 112.922 44.1878 115.625C54.6486 123.538 46.3495 134.201 38.1325 129.54C36.5411 129.387 34.4272 131.21 32.7244 130.875ZM37.427 114.111C34.8277 114.375 34.7508 115.696 31.8014 118.441C26.3111 122.814 28.8839 128.19 32.812 128.238C34.6686 128.306 35.7295 126.89 37.5862 126.785C38.5914 126.785 39.0078 127.049 39.9123 127.487C44.7766 129.905 47.9806 124.581 45.6386 120.882C44.3178 119.419 39.1696 113.701 37.427 114.111Z" fill="#A67C52"/>
<path d="M40.1244 117.635C47.8666 119.598 56.8527 123.516 58.4733 113.186C57.2983 101.271 46.0073 107.173 40.0608 108.983L40.1244 117.635Z" fill="#E5AAB2"/>
<path d="M51.2722 121.48C47.2778 121.273 45.0127 120.061 40.1854 119.015C38.1219 118.587 38.9654 117.141 38.7691 113.627C38.8142 110.552 38.5861 109.443 38.8487 108.449C40.9705 106.523 44.53 106.452 47.177 105.279C61.3935 100.246 64.6505 120.65 51.2722 121.48ZM41.4426 116.605C45.7474 117.358 51.2563 120.425 54.7679 117.691C58.6536 114.848 57.5025 108.872 53.2667 107.387C49.3678 106.383 45.2753 108.946 41.3949 109.926L41.4426 116.605Z" fill="#A67C52"/>
<path d="M43.6733 112.526C37.4217 109.799 53.837 106.185 53.089 110.658C52.6647 112.433 50.0256 110.88 48.0151 111.247C44.8429 111.649 45.1877 112.243 43.6733 112.526Z" fill="#A67C52"/>
<path d="M33.6262 118.174C25.8841 120.135 16.8953 124.055 15.2774 113.723C16.4524 101.81 27.7434 107.709 33.6899 109.522L33.6262 118.174Z" fill="#E5AAB2"/>
<path d="M22.4785 122.016C12.4951 121.775 10.8401 108.193 20.0755 105.289C24.7118 104.312 31.4328 107.279 34.7667 108.75C35.3715 109.952 34.8543 110.719 34.9842 113.754C34.8171 117.477 35.5492 119.136 33.6766 119.524C28.9104 120.555 26.5366 121.797 22.4785 122.016ZM22.2133 107.672C17.0863 107.672 14.9565 114.045 18.1287 117.448C20.7014 120.402 24.351 119.332 27.8654 118.291C28.7672 118.042 31.4725 117.366 32.3133 117.155L32.3611 110.483C29.2472 109.561 25.4995 107.849 22.208 107.672H22.2133Z" fill="#A67C52"/>
<path d="M30.0801 113.078C24.1521 110.251 21.3035 113.392 20.6616 111.207C20.0861 109.474 22.9904 109.094 25.0725 109.107C29.1411 109.115 33.8517 111.559 30.0801 113.078Z" fill="#A67C52"/>
<path d="M35.8993 120.211C46.0869 121.432 45.5909 107.733 38.6975 106.898C27.067 104.988 28.1147 120.367 35.8993 120.211Z" fill="#E5AAB2"/>
<path d="M37.8514 121.532C25.9159 122.853 26.1546 105.923 35.6075 105.522C48.0708 103.979 47.5801 121.501 37.8514 121.532ZM35.8993 108.159C31.4274 108.198 30.6344 113.427 32.0454 116.634C33.3079 119.041 35.9735 119.012 38.4269 118.853C42.5195 118.407 43.1242 113.221 41.5646 110.18C40.4029 108.148 37.9734 108.058 35.8993 108.156V108.159Z" fill="#A67C52"/>
<path d="M61.8709 21.247C61.1866 21.247 60.81 20.7186 60.123 20.0476C56.2612 16.2827 52.3384 13.7384 47.8878 11.926C46.4741 11.3448 47.0497 9.17569 48.6119 9.39762C50.938 9.58256 67.8519 20.0793 61.8709 21.247Z" fill="white"/>
<path d="M15.7522 15.4769C9.41311 13.1493 27.4224 7.95509 28.5258 7.89696C31.08 6.84016 49.328 6.20872 44.9702 10.5205C32.9684 9.01453 27.9768 9.54558 15.7522 15.4769Z" fill="white"/>
<path d="M10.0364 19.1968C6.69182 18.3752 10.5351 15.3236 12.1079 15.0594C15.4923 15.7913 11.7339 18.782 10.0364 19.1968Z" fill="white"/>
</g>
<defs>
<clipPath id="clip0_1_1088">
<rect width="74" height="200" fill="white"/>
</clipPath>
</defs>
</svg>
