<svg width="82" height="200" viewBox="0 0 82 200" fill="none" xmlns="http://www.w3.org/2000/svg">
<g clip-path="url(#clip0_1_1151)">
<path d="M80.6254 70.6853H80.4874C80.4874 76.0311 78.3237 79.6276 73.9964 81.4747C63.883 81.064 76.8571 103.059 59.247 109.819C50.3172 112.752 39.2512 111.464 35.1432 103.571C32.7814 99.5333 32.0012 94.9093 31.9588 90.3653C31.7465 85.6773 27.7526 86.4613 24.0241 86.0107C16.5645 85.192 11.0342 83.168 7.00847 79.8773C-6.96602 65.3733 8.6299 42.9147 14.3593 28.8373C24.8096 7.26134 32.11 -2.66666 55.9006 2.80801C69.6204 8.52801 75.3153 16.096 75.2383 31.4027C75.3126 47.4213 70.6553 53.536 73.8584 56.12C80.4078 59.7867 80.6068 62.3733 80.6254 70.6853ZM33.3201 55.1573C34.0738 57.7547 39.5139 59.5067 40.8434 56.3867C41.7324 54.2533 40.2437 38.6187 39.6705 38.4907C39.0097 39.5413 32.3993 52.4747 33.3201 55.1573Z" fill="#E8BD67"/>
<path d="M50.2376 112.547C40.4188 112.603 34.6735 108.013 31.972 99.608C29.7164 93.4507 32.126 87.8213 28.0392 87.6507C18.4858 87.216 11.0076 84.936 6.16194 80.9147L6.04252 80.8053C-8.25573 65.8133 6.51223 44.0613 12.5786 29.4987C23.5995 6.28267 31.4705 -4.16799 56.2589 1.52534L56.3889 1.56801C70.4722 7.43467 76.5572 15.456 76.5572 31.0107C76.735 46.8907 72.1043 53.7413 75.0579 55.4027C82.0398 58.7333 81.9947 63.784 81.9443 72.016H81.7638C81.4321 77.2427 78.8447 80.9627 74.2591 82.8053C69.8221 82.4533 71.3161 86.712 70.9658 90.336C70.926 103.331 66.4094 112.435 50.2376 112.547ZM7.90278 78.9067C21.519 89.144 33.6678 80.008 33.3254 91.7707C33.4502 96.2027 34.8487 101.741 38.1021 105.371C42.4065 110.456 51.3707 110.752 58.2067 108.773C76.0026 102.445 61.8768 80.1413 73.7124 80.1413C78.0114 78.288 79.394 74.2747 79.1658 69.3467H79.2985C79.2799 60.84 78.1574 60.4587 72.842 56.9653C69.5806 53.744 72.5766 48.8133 72.8261 44.6987C75.5408 24.7413 74.6837 11.7947 55.484 4.06134C29.6553 -2.02399 24.1144 12.4533 14.691 31.248C8.46271 45.7707 -4.64136 65.9493 7.90278 78.9067ZM38.0464 59.3867C35.4564 59.328 32.7973 57.8747 32.0596 55.568C31.3511 53.3733 33.4979 47.4347 38.4418 37.92C38.7742 37.2567 39.5706 36.9781 40.241 37.2907C40.9098 37.6027 41.4379 37.8533 42.1305 46.624C42.4357 50.496 42.6745 55.424 42.0668 56.8853C41.4352 58.4107 40.0367 59.3173 38.2269 59.3707L38.0464 59.3867ZM34.578 54.7467C34.7823 56.1253 38.9487 57.736 39.6201 55.8773C40.0579 54.6933 39.6201 47.12 39.0893 42.5093C35.39 50.0587 34.3259 53.9413 34.578 54.7467Z" fill="#A17A51"/>
<path d="M68.8455 28.0267C67.1259 27.9627 65.255 22.632 68.3758 23.352C69.708 24.1253 71.2312 27.928 68.8455 28.0267Z" fill="white"/>
<path d="M65.8601 21.992C64.8994 21.992 64.5518 20.9867 63.9202 20.1253C57.7768 11.776 49.7228 11.2 39.8058 11.2C36.0906 6.56535 52.5437 9.18135 53.4778 9.81335C56.3636 10.6648 59.0755 12.0256 61.4867 13.832C63.0392 14.952 69.9335 21.352 65.8601 21.992Z" fill="white"/>
<path d="M33.1158 12.928C29.1936 11.2613 34.4692 9.34667 36.6612 9.46133C40.3153 11.6267 34.4745 12.664 33.1158 12.928Z" fill="white"/>
<path d="M53.6344 199.939C52.9016 199.939 52.3075 199.342 52.3075 198.605V127.859C52.3075 127.122 52.9016 126.525 53.6344 126.525C54.3672 126.525 54.9612 127.122 54.9612 127.859V198.605C54.9612 199.342 54.3672 199.939 53.6344 199.939Z" fill="#A67C52"/>
<path d="M55.1417 127.819C53.9316 127.069 52.7321 127.981 51.4397 128.539C49.7599 129.171 48.104 129.173 46.5702 128.357C41.6369 124.8 43.59 119.864 47.5016 116.557C50.4764 113.667 50.5852 112.533 53.4406 112.085C56.718 112.101 56.8135 113.397 59.9449 116.187C68.7102 122.829 62.044 131.795 55.1417 127.819Z" fill="#E8BD67"/>
<path d="M49.0939 130.323C43.8236 130.381 40.9761 124.251 43.0195 119.947C44.2057 117.608 44.7683 117.64 47.4061 114.739C49.9775 112.155 50.5561 110.845 54.0139 110.739C57.4637 111.104 57.5406 112.203 60.5632 114.936C71.0269 122.917 62.726 133.68 54.5074 128.976C52.9072 128.819 50.7922 130.667 49.0939 130.323ZM53.8016 113.403C51.1982 113.669 51.1213 115.003 48.173 117.773C42.6745 122.192 45.2539 127.619 49.1841 127.667C51.0417 127.736 52.1032 126.307 53.9608 126.2C54.9665 126.2 55.3805 126.467 56.2854 126.909C61.1577 129.349 64.3634 123.976 62.0201 120.243C60.688 118.752 55.5371 112.989 53.7936 113.403H53.8016Z" fill="#A17A51"/>
<path d="M56.4898 116.963C64.2386 118.941 73.2295 122.899 74.8509 112.469C73.6753 100.445 62.3784 106.4 56.4287 108.229L56.4898 116.963Z" fill="#F0E895"/>
<path d="M67.6434 120.843C63.6495 120.635 61.3832 119.411 56.5534 118.355C54.4889 117.923 55.3301 116.464 55.1337 112.917C55.1815 109.813 54.9533 108.693 55.216 107.691C57.339 105.747 60.9002 105.675 63.546 104.491C77.77 99.4107 81.0314 120 67.6434 120.843ZM57.8113 115.923C62.1767 116.685 67.8265 119.923 71.3745 116.832C75.1189 113.795 73.6461 107.8 69.4028 106.547C65.6531 105.747 61.5265 108.211 57.7635 109.189L57.8113 115.923Z" fill="#A17A51"/>
<path d="M60.0431 111.805C53.7883 109.053 70.2122 105.405 69.4638 109.92C69.0392 111.709 66.3988 110.144 64.3872 110.515C61.2107 110.933 61.5663 111.52 60.0431 111.805Z" fill="#A67C52"/>
<path d="M49.9908 117.507C42.2446 119.485 33.2511 123.44 31.6324 113.013C32.808 100.987 44.1048 106.944 50.0545 108.771L49.9908 117.507Z" fill="#F0E895"/>
<path d="M38.8372 121.384C28.8486 121.141 27.1927 107.432 36.4329 104.499C41.069 103.515 47.7962 106.509 51.1319 107.992C51.737 109.208 51.2195 109.979 51.3495 113.045C51.1823 116.803 51.9148 118.475 50.0412 118.869C45.2645 119.909 42.8974 121.163 38.8372 121.384ZM38.5718 106.896C33.4369 106.933 31.3139 113.333 34.4798 116.763C37.0539 119.741 40.7054 118.664 44.2216 117.611C45.1212 117.363 47.828 116.677 48.6719 116.467L48.7197 109.733C45.6254 108.813 41.7085 107.048 38.5612 106.896H38.5718Z" fill="#A17A51"/>
<path d="M46.4401 112.352C40.5091 109.496 37.659 112.669 37.0168 110.464C36.4409 108.712 39.3467 108.331 41.4299 108.344C45.5034 108.349 50.2164 110.829 46.4401 112.352Z" fill="#A67C52"/>
<path d="M52.2624 119.557C62.458 120.8 61.9591 106.963 55.0647 106.133C43.4255 104.195 44.4843 119.717 52.2624 119.557Z" fill="#F0E895"/>
<path d="M54.2182 120.891C42.2764 122.224 42.5153 105.139 51.9731 104.733C64.443 103.176 63.9547 120.864 54.2182 120.891ZM52.2624 107.392C47.7909 107.432 46.9974 112.712 48.4092 115.949C49.6724 118.379 52.3393 118.349 54.794 118.187C58.8887 117.736 59.4938 112.504 57.9334 109.435C56.7711 107.387 54.3402 107.291 52.2624 107.392Z" fill="#A17A51"/>
</g>
<defs>
<clipPath id="clip0_1_1151">
<rect width="82" height="200" fill="white"/>
</clipPath>
</defs>
</svg>
