<svg width="70" height="200" viewBox="0 0 70 200" fill="none" xmlns="http://www.w3.org/2000/svg">
<path d="M66.438 14.3693C71.7694 29.5839 48.0624 41.2744 37.317 30.8921C38.8332 33.7763 33.3753 44.2627 37.5882 43.9558C59.4432 43.1756 70.545 56.6086 68.4398 77.1964C66.8074 92.5878 56.5683 103.834 42.4856 107.997C32.2362 110.999 15.6015 110.533 9.60886 104.008C5.13506 100.328 3.83579 94.1249 4.51513 87.7139C5.57934 76.1821 14.9402 78.7178 22.431 78.2003C26.9668 78.026 32.5797 74.2679 30.0768 68.8141C25.2362 60.6996 10.9624 76.9597 3.39668 58.0988C-0.671586 46.8427 2.84133 24.4968 6.62288 16.7854C12.0472 6.606 25.169 3.21718 36.3768 1.9454C48.238 0.327712 61.4192 2.58259 66.438 14.3693Z" fill="#E8BD67"/>
<path d="M30.3144 111.009C21.545 111.269 12.9539 109.464 8.7177 104.947C3.90036 100.934 2.51844 94.2549 3.23652 87.5475C4.40405 75.6723 13.535 77.0923 21.6277 76.9649C25.4505 76.9311 30.6218 74.4343 29.1184 69.8596C26.2771 63.6047 15.4646 73.2276 7.69999 66.5124C-4.29558 57.7087 0.808476 27.7607 5.00848 17.0975C7.78265 11.2224 13.1166 6.87648 20.9974 3.99741C32.3627 -0.0780089 48.5299 -1.18074 56.0207 2.48116C64.8856 6.12225 71.7694 16.1249 67.0295 24.9675C61.414 34.9467 48.145 39.5033 38.7557 33.5501C38.6498 35.6437 37.1723 40.0286 37.2524 42.5956C58.8336 41.9766 70.855 54.1587 69.9173 74.5852C69.0288 96.4447 51.6992 111.053 30.3144 111.009ZM16.2266 79.5839C9.06124 79.4695 6.15276 81.9948 5.72656 88.6866C5.13246 96.4682 7.40294 100.65 11.4764 104.013C20.1321 110.759 39.7243 109.215 48.8347 104.091C61.1531 97.7711 68.5742 84.7594 67.2387 69.4382C66.6111 56.6034 58.2601 44.5904 37.6734 45.2796C31.4897 45.1574 36.7797 35.7868 36.2683 31.6645C35.4133 28.2601 38.6705 30.0442 39.9542 31.251C41.7801 32.3904 43.8158 33.1467 45.9391 33.4747C55.6254 35.1626 69.3956 25.134 65.2343 14.8479C60.2749 3.54228 47.8195 1.48246 34.6125 3.46946C23.5856 5.00652 12.4657 8.32251 7.49076 17.9116C2.59851 30.1691 0.395192 54.1223 6.97416 62.091C13.969 70.9519 20.9457 63.3342 28.0258 65.4721C33.321 67.3602 32.9568 74.4656 28.855 77.2432C25.1948 80.104 20.2819 79.5839 16.2266 79.5839Z" fill="#A17A51"/>
<path d="M39.4764 33.766C34.4317 32.3615 31.7815 24.0858 36.1365 26.4578C36.7074 27.316 36.4801 28.0182 38.0764 29.8388C38.7686 30.6892 39.7502 31.0351 40.4321 31.5839C41.1708 32.3589 40.6284 33.7321 39.4764 33.766Z" fill="#A17A51"/>
<path d="M35.5347 199.821C34.8214 199.821 34.2432 199.238 34.2432 198.52V129.519C34.2432 128.801 34.8214 128.218 35.5347 128.218C36.248 128.218 36.8262 128.801 36.8262 129.519V198.518C36.8269 198.863 36.6911 199.194 36.4488 199.439C36.2065 199.683 35.8777 199.821 35.5347 199.821Z" fill="#A67C52"/>
<path d="M37.0044 129.482C35.824 128.752 34.6564 129.644 33.4011 130.185C31.766 130.801 30.1542 130.804 28.6587 130.008C23.8568 126.549 25.7605 121.724 29.5575 118.499C32.4531 115.68 32.5564 114.575 35.3384 114.138C38.5258 114.153 38.6188 115.417 41.6668 118.138C50.2088 124.616 43.7229 133.36 37.0044 129.482Z" fill="#E8BD67"/>
<path d="M31.11 131.925C25.8612 131.974 23.1026 125.771 25.3214 121.542C26.4708 119.462 27.0494 119.384 29.6015 116.583C32.0295 114.081 32.9878 112.614 36.5085 112.874C39.5255 113.514 39.3937 114.323 42.1266 116.775C51.769 124.239 45.3476 132.869 39.2181 131.639C38.0867 131.49 37.1775 130.955 36.0642 130.502C34.4395 130.871 32.7863 132.12 31.11 131.925ZM35.6922 115.423C33.1996 115.698 33.2719 116.754 30.6218 119.256C23.6476 124.996 28.6225 130.744 32.8432 129.009C34.3491 128.299 35.9428 127.345 37.6295 128.346C42.3487 131.098 45.9443 126.382 43.8469 122.336C42.6819 120.788 37.2679 114.97 35.6922 115.423Z" fill="#A17A51"/>
<path d="M38.3166 118.895C45.8564 120.824 54.6103 124.684 56.186 114.512C55.0443 102.785 44.0457 108.596 38.2572 110.377L38.3166 118.895Z" fill="#CCE3EC"/>
<path d="M49.1731 122.679C45.5387 122.538 41.5273 120.879 37.9989 120.156C36.1365 120.06 37.3066 111.714 36.9657 110.395C37.1491 108.533 40.507 108.575 42.1317 107.717C45.4897 106.676 48.6177 105.204 52.1642 106.416C61.1144 110.273 57.8081 122.72 49.1731 122.679ZM39.6004 117.88C43.8494 118.624 49.3487 121.769 52.8022 118.767C56.4469 115.805 55.0133 109.958 50.883 108.736C47.2332 107.956 43.2166 110.359 39.5539 111.313C39.5642 112.934 39.59 116.224 39.6004 117.88Z" fill="#A17A51"/>
<path d="M41.7727 113.865C35.6871 111.181 51.6708 107.623 50.9424 112.026C50.5291 113.771 47.9616 112.244 46.0037 112.606C42.9118 113.001 43.2476 113.584 41.7727 113.865Z" fill="#A67C52"/>
<path d="M31.9908 119.425C24.4483 121.355 15.697 125.212 14.1188 115.043C15.2631 103.313 26.259 109.124 32.0502 110.905L31.9908 119.425Z" fill="#CCE3EC"/>
<path d="M21.1343 123.207C11.8354 123.022 9.72249 110.447 18.1483 106.947C22.0771 105.594 25.2077 107.428 28.9221 108.489C30.4874 109.202 33.3133 109.324 33.3417 110.941C33.0653 112.64 34.0546 120.785 32.3085 120.681C28.7413 121.417 24.8719 123.04 21.1343 123.207ZM20.876 109.077C15.8933 109.105 13.8088 115.355 16.9007 118.7C19.4088 121.605 22.9605 120.554 26.3856 119.529C27.2612 119.285 29.8959 118.616 30.7147 118.411C30.7147 116.752 30.7509 113.469 30.7612 111.844C27.7417 110.947 23.9265 109.233 20.8657 109.077H20.876Z" fill="#A17A51"/>
<path d="M28.5347 114.398C22.7668 111.615 19.9874 114.694 19.3727 112.557C18.8148 110.848 21.6406 110.476 23.6708 110.489C27.6229 110.494 32.2077 112.913 28.5347 114.398Z" fill="#A67C52"/>
<path d="M34.2018 121.425C44.1258 122.627 43.6531 109.142 36.9373 108.323C25.6004 106.442 26.6284 121.581 34.2018 121.425Z" fill="#CCE3EC"/>
<path d="M36.1055 122.726C24.4819 124.026 24.7118 107.363 33.9177 106.968C46.0553 105.451 45.5775 122.7 36.1055 122.726ZM34.2018 109.56C29.8469 109.602 29.0745 114.749 30.4513 117.906C31.6782 120.276 34.2742 120.247 36.6506 120.088C40.6362 119.649 41.2251 114.546 39.7063 111.553C38.5878 109.555 36.2218 109.462 34.2018 109.56Z" fill="#A17A51"/>
<path d="M37.9472 9.03513C36.3587 9.00912 36.2295 6.62941 37.8542 6.43435C41.5531 6.37974 47.2125 5.63851 48.3284 6.96751C49.4004 9.47206 46.0269 8.87128 44.4926 8.85308C42.1627 8.81147 40.1402 8.88429 37.9472 9.03513Z" fill="white"/>
<path d="M16.7897 15.6775C10.1874 13.0767 30.9007 6.72303 33.5096 6.91288C34.6306 6.72823 35.5321 8.25489 34.566 9.16256C32.652 10.0546 30.0199 9.94279 28.0207 10.723C23.5856 11.7789 20.4266 13.8908 16.7897 15.6775Z" fill="white"/>
<path d="M9.42545 33.0299C6.84243 32.7698 9.22914 27.9376 9.00184 26.2367C9.24206 19.5969 13.9638 12.697 14.638 17.7425C13.8631 19.0845 12.8583 20.2549 12.4863 21.7737C11.2155 24.8895 11.6882 33.3238 9.42545 33.0299Z" fill="white"/>
<path d="M8.16494 40.7907C6.36974 40.4578 6.92251 39.2302 7.21955 37.2562C7.61476 35.4356 7.20147 34.9857 8.48524 34.3745C10.6524 34.2081 10.0351 36.026 9.70443 38.0728C9.36605 39.7607 9.65793 40.4838 8.16494 40.7907Z" fill="white"/>
</svg>
