<svg width="73" height="200" viewBox="0 0 73 200" fill="none" xmlns="http://www.w3.org/2000/svg">
<g clip-path="url(#clip0_1_1108)">
<path d="M68.8908 42.0713C67.8289 49.9762 64.0781 57.3025 59.0079 63.7569C48.18 77.7992 37.9573 76.8111 40.7897 79.2259C47.5349 80.8481 55.9339 77.852 62.7057 80.3672C72.4293 83.4214 74.4812 96.14 67.5396 102.766C62.042 107.966 53.8342 108.716 46.497 109.863C34.0631 111.556 20.6072 110.734 10.7456 102.201C-7.93444 85.7834 6.84872 60.1453 22.2716 46.6209C24.2041 44.391 39.3271 34.1823 32.8341 36.531C23.7237 39.8943 11.1491 43.0647 4.21276 33.7596C-1.314 26.2404 1.39629 19.2259 6.99472 13.4742C35.9691 -13.1783 72.262 7.54029 68.8908 42.0713Z" fill="#F0E895"/>
<path d="M36.1018 111.886C23.214 111.834 12.633 107.839 5.47898 98.4544C-8.79186 78.111 11.4464 51.9128 29.3486 39.1413C2.6333 48.1268 -8.16008 25.0436 6.74254 11.889C37.4609 -15.0885 73.7618 7.6354 70.2048 42.2483C68.5165 55.9472 56.6666 72.5416 42.8629 78.28C55.5092 78.4306 70.5339 75.004 72.9257 91.7543C74.0963 110.568 48.1614 111.326 36.1018 111.886ZM34.0737 34.8111C39.3828 36.4967 31.4378 40.4254 29.2186 42.6262C-18.5394 79.823 4.75428 121.622 59.4804 105.889C73.207 101.775 73.1646 86.6473 63.5949 82.1532C58.5088 79.8415 51.9601 80.7503 46.2024 81.0515C43.6009 81.2153 36.7787 80.9723 39.6483 76.9009C42.2258 75.4267 45.0529 74.5231 47.4633 72.7767C57.7868 66.0819 66.2521 52.6446 67.5582 41.8943C70.4357 6.72391 34.9577 -9.85998 8.60603 13.7384C-1.52106 22.8032 2.30945 34.3302 11.8313 37.7199C18.0509 39.8943 26.6649 37.3659 34.0817 34.8111H34.0737Z" fill="#A17A51"/>
<path d="M39.8845 199.804C39.1515 199.804 38.5573 199.213 38.5573 198.483V128.402C38.5573 127.672 39.1515 127.081 39.8845 127.081C40.6176 127.081 41.2118 127.672 41.2118 128.402V198.483C41.2118 199.213 40.6176 199.804 39.8845 199.804Z" fill="#A67C52"/>
<path d="M41.3923 128.349C40.1818 127.609 38.9793 128.513 37.676 129.062C35.9956 129.691 34.3392 129.691 32.8049 128.882C27.8727 125.369 29.8371 120.476 33.7393 117.192C36.715 114.328 36.8212 113.205 39.6801 112.761C42.9585 112.777 43.0541 114.061 46.1838 116.824C54.965 123.406 48.2968 132.288 41.3923 128.349Z" fill="#F0E895"/>
<path d="M35.3346 130.832C30.0627 130.89 27.2091 124.814 29.2557 120.55C30.4423 118.23 31.0051 118.264 33.6437 115.387C36.216 112.827 36.7973 111.53 40.2562 111.424C43.6885 111.783 43.7867 112.877 46.8102 115.583C57.2798 123.495 48.971 134.159 40.7473 129.498C39.1572 129.342 37.0415 131.168 35.3346 130.832ZM40.0438 114.069C37.4397 114.333 37.3627 115.654 34.4135 118.396C28.916 122.774 31.4935 128.148 35.4249 128.196C37.2831 128.264 38.3449 126.848 40.2031 126.742C41.2065 126.742 41.6233 127.007 42.5311 127.445C47.3996 129.863 50.6062 124.539 48.2623 120.84C46.9377 119.369 41.7878 113.659 40.0438 114.069Z" fill="#A17A51"/>
<path d="M42.7382 117.593C50.4895 119.556 59.483 123.474 61.1023 113.144C59.929 101.229 48.6392 107.131 42.6771 108.941L42.7382 117.593Z" fill="#CCE3EC"/>
<path d="M53.8873 121.437C50.1523 121.295 46.0325 119.609 42.4064 118.874C40.4898 118.777 41.6949 110.299 41.3445 108.959C41.5304 107.067 44.9813 107.11 46.6536 106.238C50.1205 105.181 53.3192 103.686 56.9639 104.917C66.1698 108.83 62.772 121.48 53.8873 121.437ZM44.0654 116.563C48.4322 117.318 54.0864 120.526 57.6355 117.464C61.3784 114.457 59.9078 108.515 55.6632 107.273C51.9123 106.481 47.7845 108.922 44.0177 109.892C44.0256 111.538 44.0495 114.88 44.0654 116.563Z" fill="#A17A51"/>
<path d="M46.2953 112.483C40.0385 109.757 56.4648 106.143 55.7189 110.616C55.2942 112.391 52.6529 110.838 50.6408 111.205C47.4633 111.606 47.811 112.201 46.2953 112.483Z" fill="#A67C52"/>
<path d="M36.2398 118.132C28.4886 120.092 19.495 124.011 17.8757 113.68C19.049 101.765 30.3521 107.667 36.3009 109.477L36.2398 118.132Z" fill="#CCE3EC"/>
<path d="M25.0828 121.974C15.5264 121.786 13.3577 109.009 22.0141 105.456C26.0517 104.082 29.2717 105.945 33.0862 107.022C34.6976 107.746 37.599 107.871 37.6282 109.514C37.3468 111.239 38.3635 119.514 36.5664 119.411C32.9164 120.156 28.9345 121.797 25.0828 121.974ZM24.8173 107.62C19.6994 107.649 17.5545 113.997 20.732 117.395C23.3096 120.349 26.9596 119.279 30.4795 118.238C31.3794 117.989 34.087 117.313 34.9312 117.102C34.9312 115.416 34.9657 112.082 34.9789 110.431C31.8731 109.519 27.9524 107.773 24.8067 107.62H24.8173Z" fill="#A17A51"/>
<path d="M32.6881 113.025C26.7525 110.196 23.9068 113.339 23.2644 111.155C22.6884 109.421 25.5951 109.041 27.6789 109.041C31.751 109.059 36.4655 111.517 32.6881 113.025Z" fill="#A67C52"/>
<path d="M38.5121 120.166C48.7109 121.387 48.2118 107.688 41.3127 106.853C29.6725 104.946 30.7317 120.322 38.5121 120.166Z" fill="#CCE3EC"/>
<path d="M40.4685 121.487C28.5231 122.808 28.7593 105.878 38.2228 105.477C50.7018 103.937 50.2028 121.458 40.4685 121.487ZM38.5121 108.111C34.0392 108.153 33.2429 113.382 34.6577 116.589C35.9213 118.996 38.5891 118.967 41.0419 118.806C45.1405 118.359 45.7431 113.176 44.1823 110.135C43.0222 108.106 40.5907 108.011 38.5121 108.111Z" fill="#A17A51"/>
<path d="M61.1103 50.7265C58.2752 50.3408 61.0917 46.6711 61.8137 45.2761C65.8327 43.5931 62.9127 50.7979 61.1103 50.7265Z" fill="white"/>
<path d="M63.8949 41.1572C62.419 41.0806 62.5278 39.572 62.626 38.4993C62.9154 27.8573 58.4239 15.1493 47.5748 10.0793C46.8023 9.76486 46.0059 9.45575 45.9661 8.51783C46.2793 5.01981 52.0716 9.71466 53.1785 10.3672C60.6112 15.9841 64.3276 25.3289 65.124 34.0872C65.124 35.7649 66.1114 41.2523 63.8949 41.1572Z" fill="white"/>
<path d="M11.1013 18.9326C6.53814 17.8758 15.4972 11.9287 16.5219 11.2365C19.4151 9.42732 22.5624 8.05612 25.8606 7.16776C28.7646 5.80449 49.6825 3.9815 44.3813 8.73447C32.12 7.36327 20.732 9.55349 13.0816 17.4055C12.4126 17.9656 12.2268 18.8058 11.1013 18.9326Z" fill="white"/>
<path d="M7.20443 25.181C4.23665 24.9538 7.35839 19.5826 8.69363 19.1044C11.4729 18.9564 9.99701 21.4267 9.12898 22.6605C8.55825 23.6301 8.60868 25.0621 7.20443 25.181Z" fill="white"/>
</g>
<defs>
<clipPath id="clip0_1_1108">
<rect width="73" height="200" fill="white"/>
</clipPath>
</defs>
</svg>
