<svg width="86" height="143" viewBox="0 0 86 143" fill="none" xmlns="http://www.w3.org/2000/svg">
<g clip-path="url(#clip0_1_378)">
<g filter="url(#filter0_i_1_378)">
<path fill-rule="evenodd" clip-rule="evenodd" d="M63.9914 17.285C63.9914 17.285 67.9184 14.668 66.4634 11.032C65.0094 7.39601 60.5014 9.86801 59.9194 8.99601C59.3384 8.12401 62.5374 3.90601 58.3194 2.88801C54.1014 1.87001 51.3394 6.23301 50.0304 5.65101C48.7214 5.06901 51.0484 -1.47499 45.3764 0.270012C39.7054 2.01501 35.0514 15.831 35.0514 15.831C36.2584 17.568 45.9224 13.154 51.5304 14.228C57.1374 15.302 62.2554 18.433 63.9914 17.285Z" fill="#462E68"/>
<path fill-rule="evenodd" clip-rule="evenodd" d="M46.4777 3.57411C45.7407 5.78311 45.0937 8.86511 44.3177 12.0771C43.0747 13.9351 44.6977 2.65211 46.4777 3.57411Z" fill="#2E1A46"/>
<path fill-rule="evenodd" clip-rule="evenodd" d="M57.3293 5.68931C56.3283 6.50931 54.2453 10.1553 52.3773 12.2483C51.8843 11.5633 55.2333 5.09631 57.3293 5.68931Z" fill="#2E1A46"/>
<path fill-rule="evenodd" clip-rule="evenodd" d="M64.6843 11.6937C65.4363 11.1787 58.1353 16.7067 60.6413 13.5877C60.9883 13.4217 64.0203 10.3547 64.6843 11.6937Z" fill="#2E1A46"/>
<path fill-rule="evenodd" clip-rule="evenodd" d="M66.0378 112.092C65.4078 109.544 64.9208 106.479 64.5578 103.082C64.2618 100.4 64.0528 97.5171 63.9098 94.5011C63.7658 91.2851 63.6988 87.9351 63.6988 84.5461C63.7078 80.2891 63.8228 75.9851 64.0528 71.8331C64.1958 69.2371 64.3768 66.7081 64.5958 64.2931C64.9018 60.8481 65.2838 57.6401 65.7318 54.8061C68.3568 38.2271 72.8618 17.8691 55.9968 12.7721C43.8938 9.12611 29.5198 17.4301 19.6328 24.9891C9.7448 32.5581 1.3168 42.1501 4.8008 51.1701C8.2938 60.1891 17.0168 62.2221 22.2568 59.8931C27.4878 57.5741 34.4738 46.2251 39.1218 48.2591C40.9348 49.0501 40.4578 54.7771 39.2078 62.6521C38.8068 65.2101 38.3298 67.9961 37.8048 70.9171C37.3468 73.5511 36.8598 76.3001 36.3918 79.0771C35.7818 82.6471 35.1998 86.2841 34.7318 89.8341C34.0448 94.9981 33.5768 99.9891 33.5868 104.332C33.5868 104.551 33.5958 104.771 33.5958 104.981C33.6908 111.214 34.2838 116.377 35.4188 120.567C37.9098 129.863 43.0358 134.34 51.0528 134.941C62.6868 135.809 70.2468 126.504 66.4668 113.705C66.3138 113.19 66.1708 112.655 66.0378 112.092Z" fill="#7E649B"/>
<path fill-rule="evenodd" clip-rule="evenodd" d="M66.467 113.705C70.246 126.504 62.687 135.809 51.052 134.941C43.035 134.34 37.91 129.864 35.419 120.567C35.82 121.083 37.681 123.259 40.506 122.868C43.703 122.429 43.78 115.671 43.78 115.671C43.78 115.671 45.737 121.78 50.613 121.121C55.109 120.52 54.679 113.486 54.679 113.486C54.679 113.486 58.249 119.517 62.391 118.573C66.152 117.713 66.085 112.951 66.038 112.092C66.171 112.655 66.314 113.19 66.467 113.705Z" fill="#462E68"/>
<path fill-rule="evenodd" clip-rule="evenodd" d="M64.5578 103.082C64.9208 106.479 65.4078 109.543 66.0378 112.092C66.0848 112.951 66.1518 117.713 62.3908 118.572C58.2488 119.517 54.6798 113.485 54.6798 113.485C54.6798 113.485 55.1088 120.519 50.6138 121.121C45.7368 121.779 43.7798 115.671 43.7798 115.671C43.7798 115.671 43.7038 122.428 40.5058 122.867C37.6808 123.258 35.8198 121.082 35.4188 120.567C34.2838 116.377 33.6908 111.214 33.5958 104.981C33.5958 104.771 33.5868 104.551 33.5868 104.332C33.9108 105.134 35.6098 108.884 39.0458 108.684C42.9018 108.464 43.7038 102.29 43.7038 102.29C43.7038 102.29 44.4288 108.102 48.8668 108.102C53.3048 108.102 54.8318 102.213 54.8318 102.213C54.8318 102.213 55.9208 107.3 59.6998 107.3C63.4798 107.3 64.5008 103.091 64.5008 103.091L64.5578 103.082Z" fill="#5D3977"/>
<path fill-rule="evenodd" clip-rule="evenodd" d="M34.8361 89.8534C34.8361 89.8534 34.6841 94.3584 38.2531 94.7974C41.8131 95.2364 45.1541 89.7104 45.1541 89.7104C45.1541 89.7104 45.0871 95.8854 49.5921 96.1044C53.5441 96.2954 54.8321 90.1494 54.8321 90.1494C54.8321 90.1494 57.0851 98.7204 63.7751 94.5114L63.9091 94.5014C64.0521 97.5174 64.2621 100.4 64.5581 103.082L64.5011 103.091C64.5011 103.091 63.4801 107.3 59.7001 107.3C55.9201 107.3 54.8321 102.213 54.8321 102.213C54.8321 102.213 53.3051 108.102 48.8671 108.102C44.4291 108.102 43.7031 102.29 43.7031 102.29C43.7031 102.29 42.9011 108.464 39.0451 108.684C35.6091 108.884 33.9111 105.134 33.586 104.332C33.5771 99.9894 34.0441 94.9984 34.7321 89.8344L34.8361 89.8534Z" fill="#73488C"/>
<path fill-rule="evenodd" clip-rule="evenodd" d="M63.6989 84.5462C63.6989 87.9352 63.7659 91.2852 63.9089 94.5012L63.7759 94.5112C57.0849 98.7202 54.8319 90.1492 54.8319 90.1492C54.8319 90.1492 53.5439 96.2962 49.5929 96.1052C45.0869 95.8852 45.1539 89.7102 45.1539 89.7102C45.1539 89.7102 41.8129 95.2362 38.2529 94.7972C34.6839 94.3582 34.8359 89.8532 34.8359 89.8532L34.7319 89.8342C35.1989 86.2842 35.7819 82.6472 36.3919 79.0772L36.4309 79.0872C36.4309 79.0872 37.3749 84.0412 40.7259 83.9642C44.0659 83.8882 46.0989 80.0512 46.0989 80.0512C46.0989 80.3572 46.1659 85.5012 50.3939 85.7772C54.7559 86.0732 55.4139 80.2512 55.4139 80.2512C55.4139 80.2512 58.0299 86.2162 63.6329 84.5462H63.6989Z" fill="#85569B"/>
<path fill-rule="evenodd" clip-rule="evenodd" d="M46.0993 80.0511C46.0993 80.0511 44.0663 83.8881 40.7253 83.9641C37.3753 84.0411 36.4313 79.0871 36.4313 79.0871L36.3923 79.0771C36.8603 76.3001 37.3473 73.5511 37.8053 70.9171L37.9573 70.9461C37.9573 70.9461 39.5613 75.6041 42.4723 75.8901C45.3733 76.1861 46.8343 71.3841 46.8343 71.3841C46.8343 71.3841 47.1203 75.1641 50.7563 75.6041C54.3933 76.0431 55.4143 70.8021 55.4143 70.8021C55.4143 70.8021 56.3403 75.1551 59.0503 75.7471C62.3913 76.4721 63.8423 71.8241 63.8423 71.8241L64.0523 71.8331C63.8233 75.9851 63.7083 80.2891 63.6993 84.5461H63.6323C58.0293 86.2171 55.4143 80.2511 55.4143 80.2511C55.4143 80.2511 54.7553 86.0731 50.3943 85.7781C46.1653 85.5011 46.0993 80.3571 46.0993 80.0511Z" fill="#8D61AF"/>
<path fill-rule="evenodd" clip-rule="evenodd" d="M39.2653 62.6615C39.2653 62.6615 39.8473 67.7485 43.1973 67.7485C45.9753 67.7485 47.4163 63.6735 47.4163 63.6735C47.4163 63.6735 47.9983 67.8915 51.6343 68.1875C55.2623 68.4735 55.7013 63.8255 55.7013 63.8255C55.7013 63.8255 57.8863 68.1875 60.9403 68.3305C63.3073 68.4455 64.2713 65.5815 64.5963 64.2935C64.3763 66.7075 64.1953 69.2375 64.0523 71.8335L63.8423 71.8245C63.8423 71.8245 62.3913 76.4725 59.0503 75.7465C56.3403 75.1545 55.4143 70.8025 55.4143 70.8025C55.4143 70.8025 54.3933 76.0425 50.7563 75.6035C47.1203 75.1645 46.8343 71.3845 46.8343 71.3845C46.8343 71.3845 45.3733 76.1855 42.4723 75.8905C39.5613 75.6035 37.9573 70.9455 37.9573 70.9455L37.8053 70.9175C38.3293 67.9965 38.8073 65.2095 39.2073 62.6515L39.2653 62.6615Z" fill="#8D6EB7"/>
<path fill-rule="evenodd" clip-rule="evenodd" d="M55.9968 12.7723C72.8618 17.8693 68.3568 38.2273 65.7318 54.8063C65.2838 57.6403 64.9018 60.8483 64.5958 64.2933C64.2718 65.5823 63.3078 68.4453 60.9408 68.3303C57.8868 68.1873 55.7008 63.8253 55.7008 63.8253C55.7008 63.8253 55.2618 68.4733 51.6348 68.1873C47.9978 67.8913 47.4158 63.6733 47.4158 63.6733C47.4158 63.6733 45.9758 67.7483 43.1978 67.7483C39.8478 67.7483 39.2658 62.6613 39.2658 62.6613L39.2078 62.6513C40.4578 54.7773 40.9348 49.0503 39.1218 48.2583C34.4738 46.2253 27.4878 57.5743 22.2568 59.8933C17.0168 62.2223 8.2938 60.1893 4.8008 51.1693C1.3168 42.1503 9.7448 32.5583 19.6328 24.9893C29.5198 17.4303 43.8938 9.12631 55.9968 12.7723Z" fill="#7E649B"/>
<path fill-rule="evenodd" clip-rule="evenodd" d="M48.5397 35.7181C48.5397 39.2121 45.6747 42.0441 42.1417 42.0441C38.6067 42.0441 35.7427 39.2121 35.7427 35.7181C35.7427 32.2241 38.6067 29.3921 42.1417 29.3921C45.6747 29.3921 48.5397 32.2241 48.5397 35.7181Z" fill="#CC99CC"/>
<path fill-rule="evenodd" clip-rule="evenodd" d="M32.5788 43.7894C32.5788 43.7894 33.0368 48.1104 31.9238 48.6984C31.4928 48.9254 29.0888 46.8434 29.0888 46.8434L32.5788 43.7894Z" fill="#FCF3F0"/>
<path fill-rule="evenodd" clip-rule="evenodd" d="M37.4519 25.681C37.1349 25.237 32.1819 24.37 29.0999 28.425C26.5749 31.749 28.3929 34.987 29.9339 33.95C31.4749 32.913 30.7609 30.858 33.3489 28.21C34.8939 26.63 37.8489 26.238 37.4519 25.681Z" fill="#1E120D"/>
<path fill-rule="evenodd" clip-rule="evenodd" d="M81.1272 27.7235C80.7692 25.2185 77.6522 24.6475 75.9372 24.2635C77.4402 22.9505 79.5112 21.1275 78.4932 19.1995C75.9912 14.4585 65.3512 20.3395 62.1822 23.6345C58.8902 27.0585 60.2072 33.6425 63.5002 36.0135C66.7922 38.3845 76.4062 40.7545 78.3812 37.4625C79.1812 36.1295 78.4052 34.5595 77.1552 33.2855C79.3972 32.1375 81.5812 30.9055 81.1272 27.7235Z" fill="#462E68"/>
<path fill-rule="evenodd" clip-rule="evenodd" d="M63.2355 27.4676C62.4835 26.9486 73.8975 19.7786 73.8025 22.1826C70.2945 22.8546 66.1785 26.7436 63.2355 27.4676Z" fill="#2E1A46"/>
<path fill-rule="evenodd" clip-rule="evenodd" d="M63.2312 29.1078C63.9392 28.3298 76.5372 27.0868 75.3542 29.1718C72.0382 27.9528 65.6612 30.2508 63.2312 29.1078Z" fill="#2E1A46"/>
<path fill-rule="evenodd" clip-rule="evenodd" d="M63.7272 31.6078C63.7612 31.0398 75.0502 34.3898 72.4972 35.3888C71.1942 33.8058 64.6312 33.3418 63.7272 31.6078Z" fill="#2E1A46"/>
<path fill-rule="evenodd" clip-rule="evenodd" d="M7.80151 55.9725C7.80151 55.9725 8.41451 55.9105 9.48751 55.8025C10.0195 55.7365 10.6295 55.5545 11.3435 55.4035C12.0545 55.2455 12.8455 54.9305 13.7165 54.6755C14.5725 54.3595 15.4915 53.9885 16.4545 53.5785C17.3955 53.1125 18.4205 52.6945 19.4225 52.1375C19.9295 51.8695 20.4445 51.5985 20.9655 51.3245C21.4745 51.0255 21.9895 50.7235 22.5085 50.4195C23.5595 49.8325 24.5615 49.1275 25.5965 48.4765C26.6065 47.7895 27.6155 47.0965 28.5785 46.3755C29.5305 45.6395 30.4835 44.9335 31.3405 44.1745C32.2265 43.4465 33.0425 42.7015 33.8025 41.9795C34.5895 41.2815 35.2205 40.5195 35.8645 39.8695C36.4485 39.1735 36.9845 38.5305 37.4395 37.9475C37.8435 37.3345 38.2145 36.8055 38.4915 36.3565C38.9505 35.4105 39.2135 34.8705 39.2135 34.8705L39.2335 34.8305C39.2935 34.7065 39.4435 34.6545 39.5675 34.7145C39.6885 34.7735 39.7395 34.9175 39.6875 35.0395C39.6875 35.0395 39.4375 35.6185 38.9995 36.6325C38.7325 37.1105 38.3745 37.6725 37.9805 38.3285C37.5385 38.9485 37.0225 39.6365 36.4325 40.3625C35.7945 41.0415 35.1615 41.8415 34.3805 42.5695C33.6205 43.3205 32.8185 44.1135 31.9195 44.8525C31.0525 45.6325 30.0925 46.3555 29.1325 47.1105C28.1615 47.8495 27.1435 48.5615 26.1235 49.2665C25.0775 49.9335 24.0495 50.6275 22.9795 51.2195C22.4495 51.5225 21.9255 51.8255 21.4055 52.1225C20.8735 52.3975 20.3475 52.6695 19.8305 52.9365C18.8115 53.4985 17.7545 53.9045 16.7855 54.3485C15.7915 54.7425 14.8435 55.0965 13.9595 55.3965C13.0535 55.6445 12.2505 55.9275 11.4885 56.0575C10.7295 56.1835 10.0675 56.3405 9.52951 56.3815C8.45251 56.4405 7.83851 56.4735 7.83851 56.4735C7.69851 56.4825 7.58051 56.3755 7.57251 56.2375C7.56551 56.1025 7.66851 55.9865 7.80151 55.9725Z" fill="#1E120D"/>
<path fill-rule="evenodd" clip-rule="evenodd" d="M10.8068 50.8548C10.0978 50.7598 10.8868 47.5138 11.7618 47.1168C12.6368 46.7188 11.9998 51.0138 10.8068 50.8548Z" fill="#1E120D"/>
</g>
</g>
<defs>
<filter id="filter0_i_1_378" x="4.00024" y="-0.0249023" width="77.1873" height="139.022" filterUnits="userSpaceOnUse" color-interpolation-filters="sRGB">
<feFlood flood-opacity="0" result="BackgroundImageFix"/>
<feBlend mode="normal" in="SourceGraphic" in2="BackgroundImageFix" result="shape"/>
<feColorMatrix in="SourceAlpha" type="matrix" values="0 0 0 0 0 0 0 0 0 0 0 0 0 0 0 0 0 0 127 0" result="hardAlpha"/>
<feOffset dy="4"/>
<feGaussianBlur stdDeviation="2"/>
<feComposite in2="hardAlpha" operator="arithmetic" k2="-1" k3="1"/>
<feColorMatrix type="matrix" values="0 0 0 0 0 0 0 0 0 0 0 0 0 0 0 0 0 0 0.25 0"/>
<feBlend mode="normal" in2="shape" result="effect1_innerShadow_1_378"/>
</filter>
<clipPath id="clip0_1_378">
<rect width="86" height="143" fill="white"/>
</clipPath>
</defs>
</svg>
