<svg width="58" height="200" viewBox="0 0 58 200" fill="none" xmlns="http://www.w3.org/2000/svg">
<path d="M56.3238 56.1283C56.7495 73.0107 55.9966 94.7914 52.0005 102.535C43.9603 116.439 23.1468 115.465 16.2294 101.291C11.8421 93.5374 12.345 84.5695 12.8212 76.0535C13.0447 69.4465 13.1032 62.9278 13.7151 56.2914C13.8216 50.5321 16.1602 45.8503 13.2735 46.5321C7.08504 47.4251 3.99082 45.4545 2.12844 40.2701C-0.393765 31.3262 3.53321 21.3556 9.71633 13.3824C21.1248 -0.818184 37.4978 -3.42514 47.3578 13.5294C54.7169 26.5187 55.4246 41.5989 56.3238 56.1283Z" fill="#E5AAB2"/>
<path d="M34.0284 113.799C13.2256 112.936 9.72963 91.6845 11.5149 75.2968C11.8102 65.9171 11.8527 56.9733 13.4065 47.8503C7.0877 48.7727 3.38954 46.7968 1.16798 41.4893C-2.14175 32.2032 2.09385 21.2406 8.17587 13.1471C31.2881 -14.3048 51.9765 6.5294 55.6055 34.4652C58.0266 49.8155 58.447 67.3369 56.9571 84.0267C56.0232 101.136 52.4634 112.636 34.0284 113.799ZM13.7923 45.1203C16.6657 45.2861 16.1868 48.3717 15.6148 50.5775C15.3753 52.3235 15.221 54.3529 15.0374 56.361C14.1727 73.8716 12.7893 87.4733 15.2024 95.3984C22.181 118.035 46.243 112.866 51.2502 100.992C55.5842 89.8021 55.1479 64.7594 55.0388 57.3636C53.4904 -4.43316 26.2596 -5.22728 10.5544 14.4839C1.37018 25.3342 -2.06193 47.7273 13.0633 45.2059C13.3025 45.151 13.5469 45.1223 13.7923 45.1203Z" fill="#A67C52"/>
<path d="M32.5039 199.848C31.7692 199.848 31.1737 199.249 31.1737 198.511V127.575C31.1737 126.837 31.7692 126.238 32.5039 126.238C33.2386 126.238 33.8342 126.837 33.8342 127.575V198.511C33.8342 199.249 33.2386 199.848 32.5039 199.848Z" fill="#A67C52"/>
<path d="M34.0151 127.54C32.8019 126.791 31.5994 127.706 30.3037 128.265C28.6195 128.898 26.962 128.898 25.4216 128.083C20.4862 124.519 22.4338 119.556 26.3394 116.241C29.3219 113.342 29.431 112.206 32.2938 111.757C35.5795 111.775 35.6753 113.075 38.8148 115.869C47.6238 122.529 40.9379 131.521 34.0151 127.54Z" fill="#E5AAB2"/>
<path d="M27.9358 130.045C22.7716 130.115 19.8929 124.193 21.7261 119.912C22.902 117.356 23.5884 117.348 26.3794 114.267C28.7552 111.799 29.6971 110.406 32.9642 110.417C36.1994 110.783 36.4575 111.888 39.2857 114.473C50.0742 122.711 41.5072 133.401 33.3606 128.703C31.7749 128.54 29.6545 130.385 27.9358 130.045ZM32.6529 113.08C30.0456 113.348 29.9684 114.684 27.0099 117.463C21.5026 121.89 24.0833 127.329 28.0236 127.377C29.886 127.449 30.9502 126.013 32.8126 125.906C33.8209 125.906 34.2386 126.174 35.1459 126.618C40.0253 129.064 43.2393 123.676 40.89 119.933C39.5757 118.449 34.4116 112.668 32.6636 113.08H32.6529Z" fill="#A67C52"/>
<path d="M35.3667 116.65C43.1355 118.634 52.1494 122.599 53.775 112.144C52.5964 100.086 41.2705 106.059 35.3055 107.89L35.3667 116.65Z" fill="#DBEDE7"/>
<path d="M46.5596 120.537C42.614 120.358 37.9049 118.473 34.055 117.693L33.9805 106.925C38.2827 105.679 42.6087 103.521 46.98 103.34C58.5108 104.235 57.0768 120.492 46.5596 120.537ZM36.6996 115.607C41.0177 116.366 46.5437 119.471 50.0662 116.703C53.9639 113.826 52.8093 107.778 48.5604 106.275C44.6494 105.259 40.5441 107.853 36.6517 108.848L36.6996 115.607Z" fill="#A67C52"/>
<path d="M38.9292 111.479C32.6583 108.719 49.1217 105.061 48.3741 109.588C47.9484 111.382 45.3012 109.81 43.2845 110.182C40.0998 110.588 40.4404 111.19 38.9292 111.479Z" fill="#A67C52"/>
<path d="M28.851 117.192C21.0849 119.179 12.0683 123.144 10.4453 112.69C11.6239 100.631 22.9366 106.604 28.9149 108.436L28.851 117.192Z" fill="#DBEDE7"/>
<path d="M17.6687 121.083C5.19073 120.388 7.18348 102.42 18.8899 104.011C22.7583 104.717 26.2916 106.267 30.2451 107.487L30.1706 118.251C26.2676 119.032 21.734 120.869 17.6687 121.083ZM17.4027 106.553C12.2731 106.586 10.1261 113.011 13.3107 116.447C15.8941 119.436 19.5524 118.356 23.0776 117.299C23.9822 117.048 26.696 116.364 27.5394 116.15L27.5872 109.398C24.4771 108.476 20.5474 106.709 17.392 106.553H17.4027Z" fill="#A67C52"/>
<path d="M25.2939 112.032C19.3502 109.171 16.4901 112.35 15.8462 110.139C15.2689 108.385 18.1822 108 20.2707 108.013C24.352 108.021 29.0772 110.497 25.2939 112.032Z" fill="#A67C52"/>
<path d="M31.1284 119.251C41.3503 120.487 40.8501 106.623 33.938 105.778C22.2715 103.848 23.3304 119.412 31.1284 119.251Z" fill="#DBEDE7"/>
<path d="M33.0893 120.588C21.1168 121.925 21.3562 104.791 30.8384 104.385C43.3404 102.826 42.8482 120.559 33.0893 120.588ZM31.1284 107.053C26.6427 107.094 25.8472 112.388 27.2627 115.631C28.5291 118.067 31.2029 118.037 33.6639 117.877C37.7692 117.425 38.3758 112.176 36.8114 109.102C35.6514 107.048 33.2116 106.952 31.1284 107.053Z" fill="#A67C52"/>
<path d="M47.0917 38.0481C45.2799 37.9492 45.836 35.6123 45.5433 34.1417C45.2995 31.9568 44.8867 29.7943 44.3088 27.6738C43.7368 24.9385 42.3453 22.9011 41.7041 20.3155C42.0766 18.5535 44.1279 18.9599 44.5243 20.5481C46.2776 23.7647 50.5052 38.3262 47.0917 38.0481Z" fill="white"/>
<path d="M41.0443 18.2968C39.4347 18.2059 37.4712 14.1872 40.3472 14.2861C41.8664 14.6765 43.5213 18.0508 41.0443 18.2968Z" fill="white"/>
<path d="M16.1123 18.4652C10.6927 16.5134 24.0567 8.72993 26.4459 9.22191C31.3014 7.83688 41.9835 11.9438 37.3541 14.1872C30.7028 10.8503 25.9138 10.6257 20.0605 14.8823C18.3871 15.8182 17.9055 17.9305 16.1123 18.4652Z" fill="white"/>
<path d="M12.023 23.3262C9.13899 22.8476 11.8527 19.5963 13.2123 18.8583C15.511 18.5909 15.1784 20.8503 13.5608 22.2326C12.8983 22.9626 13.0367 23.1364 12.023 23.3262Z" fill="white"/>
<path d="M13.2655 46.5241C13.2655 46.5241 15.9261 45.861 19.8983 43.7433Z" fill="#E5AAB2"/>
<path d="M13.2655 47.8609C11.7729 47.8609 11.451 45.6551 12.9436 45.2273C12.9702 45.2273 15.5243 44.5642 19.273 42.5535C19.9232 42.2072 20.7296 42.4562 21.0742 43.1096C21.4188 43.7631 21.171 44.5735 20.5208 44.9198C16.4555 47.0909 13.6992 47.7888 13.5848 47.8182C13.4805 47.8454 13.3733 47.8597 13.2655 47.8609Z" fill="#A67C52"/>
</svg>
