<svg width="72" height="200" viewBox="0 0 72 200" fill="none" xmlns="http://www.w3.org/2000/svg">
<g clip-path="url(#clip0_1_1171)">
<path d="M67.5486 57.0962C59.0058 39.0461 44.1118 44.3794 34.0975 44.7905C47.9089 32.9539 50.2502 32.3874 54.7069 22.8432C64.3428 -4.57444 12.4581 -15.7681 2.17576 51.8683C-0.74628 72.3241 3.07708 97.0935 23.7994 105.989C41.5182 114.385 59.8835 107.128 67.0888 90.1186C71.3851 79.8419 71.8476 66.946 67.5486 57.0962ZM43.3577 86.058C31.5854 85.3386 32.1188 65.0988 43.3577 64.6798C55.1299 65.3966 54.5939 85.639 43.3577 86.058Z" fill="#DBEDE7"/>
<path d="M38.612 110.848C-15.5352 107.225 -3.49226 31.7971 19.0327 9.44928C46.0984 -15.5283 73.059 14.4559 45.9512 36.5033C44.146 38.0659 41.5603 40.2582 38.1127 43.1489C60.1857 38.8986 71.5349 51.4493 71.8377 72.5903C71.9343 92.2609 60.1752 110.485 38.612 110.848ZM39.6946 2.73518C14.7311 3.31226 3.45285 38.8116 2.65665 61.473C2.14424 78.5534 6.98453 96.2108 22.5985 103.979C39.198 112.638 58.2123 107.776 66.0587 89.2227C70.221 78.8907 70.2946 66.6008 66.3609 57.6311C58.3621 40.7378 44.9553 45.5521 34.0949 46.1133C30.2899 45.0356 35.5165 42.108 38.591 39.2991C45.2102 33.502 44.0645 35.1726 48.9521 29.8393C61.3918 15.2306 51.367 2.41898 39.6946 2.73518ZM43.3577 87.3755C29.8537 86.585 30.3688 63.8762 43.3577 63.3623C56.8616 64.1581 56.3466 86.859 43.3577 87.3755ZM43.3577 65.9974C33.3434 66.6482 33.8584 84.3847 43.3577 84.7378C53.372 84.087 52.8543 66.3505 43.3577 65.9974Z" fill="#A67C52"/>
<path d="M29.7171 49.4308C26.9422 48.7167 29.1495 46.6298 30.8207 45.5099C32.9492 43.8129 35.5507 41.8208 35.9974 41.4835C37.7948 40.2978 38.8248 42.8459 37.574 43.5916C36.5597 44.0843 31.8587 48.5639 29.7171 49.4308Z" fill="#A67C52"/>
<path d="M38.4123 199.921C37.6866 199.921 37.0984 199.331 37.0984 198.603V128.696C37.0984 127.968 37.6866 127.378 38.4123 127.378C39.1379 127.378 39.7261 127.968 39.7261 128.696V198.603C39.7261 199.331 39.1379 199.921 38.4123 199.921Z" fill="#A67C52"/>
<path d="M39.9048 128.654C38.7066 127.916 37.5162 128.817 36.226 129.368C34.5626 129.992 32.9229 129.992 31.4041 129.188C26.5401 125.692 28.4663 120.793 32.3212 117.523C35.2669 114.667 35.372 113.547 38.202 113.104C41.4473 113.12 41.5419 114.401 44.64 117.157C53.3431 123.723 46.7396 132.582 39.9048 128.654Z" fill="#DBEDE7"/>
<path d="M33.8978 131.13C28.8 131.196 25.9568 125.36 27.7647 121.144C28.9261 118.625 29.6041 118.617 32.3632 115.581C34.7098 113.149 35.6374 111.776 38.8669 111.786C42.0622 112.148 42.3145 113.236 45.1077 115.784C55.7685 123.903 47.3045 134.437 39.2558 129.805C37.6896 129.644 35.598 131.465 33.8978 131.13ZM38.5594 114.414C36.0158 114.677 35.9658 115.913 33.1253 118.585C27.3968 123.207 30.2137 128.472 33.9872 128.501C35.8266 128.569 36.8777 127.157 38.7171 127.051C39.713 127.051 40.1229 127.315 41.0216 127.752C45.7042 130.103 48.8733 125.117 46.8473 121.415C45.6858 119.855 40.1834 113.96 38.5699 114.414H38.5594Z" fill="#A67C52"/>
<path d="M41.2397 117.926C48.9127 119.884 57.8155 123.792 59.4184 113.489C58.2569 101.605 47.068 107.491 41.1793 109.296L41.2397 117.926Z" fill="#E8BD67"/>
<path d="M52.292 121.758C48.3977 121.581 43.7466 119.723 39.9416 118.951L39.8654 108.348C44.1145 107.117 48.3872 104.993 52.7045 104.814C64.0932 105.697 62.6768 121.713 52.292 121.758ZM42.5431 116.901C46.8132 117.652 52.2657 120.711 55.7501 117.982C59.6024 115.149 58.4619 109.183 54.2628 107.705C50.3974 106.704 46.3428 109.26 42.4958 110.24L42.5431 116.901Z" fill="#A17A51"/>
<path d="M44.7582 112.83C38.5647 110.111 54.8251 106.506 54.0867 110.967C53.6663 112.738 51.0517 111.188 49.0598 111.555C45.9144 111.955 46.2482 112.548 44.7582 112.83Z" fill="#A67C52"/>
<path d="M34.8044 118.464C27.1314 120.419 18.2286 124.329 16.6257 114.024C17.7872 102.14 28.9629 108.026 34.8648 109.834L34.8044 118.464Z" fill="#E8BD67"/>
<path d="M23.76 122.292C11.4385 121.61 13.4199 103.908 24.9688 105.465C28.7921 106.161 32.2791 107.689 36.1839 108.891L36.1077 119.494C32.2502 120.274 27.7726 122.084 23.76 122.292ZM23.4972 107.987C18.4178 108 16.3077 114.345 19.4505 117.736C21.9942 120.685 25.6073 119.61 29.0917 118.577C29.9851 118.329 32.6654 117.652 33.501 117.444L33.5483 110.785C30.466 109.881 26.753 108.163 23.4893 107.987H23.4972Z" fill="#A17A51"/>
<path d="M31.2911 113.37C25.4207 110.551 22.5959 113.684 21.96 111.505C21.3898 109.776 24.2672 109.397 26.3299 109.397C30.3609 109.418 35.0277 111.866 31.2911 113.37Z" fill="#A67C52"/>
<path d="M37.0511 120.493C47.1469 121.71 46.6529 108.047 39.8234 107.215C28.3034 105.312 29.3518 120.651 37.0511 120.493Z" fill="#E8BD67"/>
<path d="M38.9904 121.808C27.1655 123.125 27.4047 106.245 36.7673 105.845C49.1098 104.308 48.6131 121.779 38.9904 121.808ZM37.0511 108.469C32.6207 108.509 31.8324 113.726 33.233 116.925C34.4838 119.328 37.1247 119.296 39.5579 119.141C43.6152 118.693 44.2143 113.52 42.6666 110.487C41.5182 108.464 39.1112 108.366 37.0511 108.469Z" fill="#A17A51"/>
<path d="M17.28 23.9078C13.4777 23.3808 19.8473 16.8907 20.4753 15.6548C21.7892 14.0501 29.068 4.77471 28.8026 10.5059C19.779 19.1199 19.1326 23.6785 17.28 23.9078Z" fill="white"/>
<path d="M13.9638 30.2477C11.6304 30.1423 13.052 26.3663 14.5655 25.9447C17.3431 25.6759 15.5326 30.2003 13.9638 30.2477Z" fill="white"/>
<path d="M7.30513 54.282C3.32673 54.5059 10.6187 33.2543 11.0444 32.498C11.8721 30.1924 14.6654 31.726 13.3463 33.8156C8.146 46.6219 9.699 54.5296 7.30513 54.282Z" fill="white"/>
<path d="M6.65344 68.3109C4.23592 68.1397 5.67593 62.6113 5.36585 61.3096C5.62863 59.4651 4.77987 54.5455 7.73082 55.9842C8.98162 57.8709 7.62571 60.6825 7.96468 62.975C7.67563 64.7958 8.81607 68.0922 6.65344 68.3109Z" fill="white"/>
</g>
<defs>
<clipPath id="clip0_1_1171">
<rect width="72" height="200" fill="white"/>
</clipPath>
</defs>
</svg>
