<svg width="32" height="132" viewBox="0 0 32 132" fill="none" xmlns="http://www.w3.org/2000/svg">
<path d="M18.2667 0C16.8444 9.15556 6.66667 21.7556 18.3111 31.1111C32.1778 32.4222 20.4444 5.53333 18.2667 0Z" fill="url(#paint0_linear_1_1260)"/>
<path d="M18.4 1.46666C17.1778 9.31111 8.86667 17.0222 15.1556 25.9111C16.3778 27.8667 15.8444 22.2222 17.2222 22.1111C19.8 29.4889 19.4444 26.9111 20.9778 21.1333C31.1111 36.1333 18.6667 0.622218 18.4 1.46666V1.46666Z" fill="url(#paint1_linear_1_1260)"/>
<path d="M18.4 1.46667C17.0889 3.6889 9.51111 29.6 16.8222 18.1333C20.0667 23.3556 18.7778 14.2222 22.6 19.6222C26.6667 21.0889 18.3778 2.00001 18.4 1.46667V1.46667Z" fill="url(#paint2_linear_1_1260)"/>
<path d="M17.4222 8.26667C17.0222 9.71112 12.3556 21.7778 17.7778 15.5556C18.6667 14.7778 22.5111 16.9111 21.2667 13.0889C19.4889 10.4667 19.2444 1.00001 17.4222 8.26667V8.26667Z" fill="url(#paint3_linear_1_1260)"/>
<path d="M19.4889 29.1111C17.6889 28.6667 18.3778 31.9333 18.2667 36.0889C18.6444 47.9333 21.5333 30.8889 19.4889 29.1111V29.1111Z" fill="#825831"/>
<path d="M26.4 38.7778C22.0889 38.0222 11.1111 32.8889 11.6 41.2667C3.55556 46.1111 -6.17777 64.5556 9.51111 65.9111C10.1111 90.5333 1.46667 120 29.0667 103.933C29.6889 87.2445 33.8444 40.2889 26.4 38.7778V38.7778Z" fill="#86358F"/>
<path d="M25.2889 37.7778C20.9778 37.0222 9.91111 31.8889 10.4889 40.2667C2.44444 45.1111 -7.28889 63.5556 8.4 64.9111C9 89.5333 0.355555 118.933 27.9556 102.933C28.5778 86.1333 32.7333 39.1778 25.2889 37.7778V37.7778Z" fill="#8F579E"/>
<path d="M11.7778 35.8667C11.153 36.9954 10.7815 38.2466 10.6889 39.5333L18.6667 35.9555C15.5556 35.2889 12.5333 34.8444 11.7778 35.8667V35.8667Z" fill="#936DAB"/>
<path d="M26.8 38.4444C22.5111 42.2222 -3.17777 46.6667 0.577782 55.6889C1.93334 52.8667 38.3556 44.4444 26.8 38.4444V38.4444Z" fill="#936DAB"/>
<path d="M29.2889 49L1.24445 61.5111C4.71111 67.5556 9.04445 63.2667 19.0222 59.0889C29.0222 53.6667 29.0667 58.0444 29.2889 49V49Z" fill="#936DAB"/>
<path d="M28.7556 60.8889C24.1778 64.5556 5.04445 66.7778 8.31111 75.5556C12.9333 71.8444 31.9556 69.6889 28.7556 60.8889V60.8889Z" fill="#936DAB"/>
<path d="M28.6444 73.4889V72.6C23.9778 76.2666 4.93334 78.5555 8 87.3555C11.1111 84.4444 32.2667 80.5778 28.6444 73.4889Z" fill="#936DAB"/>
<path d="M28.7333 86.1333C28.7333 85.4667 28.7333 84.8222 28.7333 84.2222C24.5111 87.0445 3.82222 91.7778 7.62222 99.1778C9.68889 96.8667 32.2 91.8 28.7333 86.1333Z" fill="#936DAB"/>
<path d="M28.8889 98.7778V95.8444L9.33334 104.444C11.6 108.533 28.8889 105.4 28.8889 98.7778V98.7778Z" fill="#936DAB"/>
<path d="M16.1556 51.6667C17.2667 50.8 14.9556 47.7111 9.91111 49.4444C0.911109 58.3778 10.8444 57.4889 16.1556 51.6667Z" fill="white"/>
<path d="M25.0889 62.0889C25.0831 62.4995 24.9129 62.8906 24.6163 63.1747C24.3197 63.4587 23.9216 63.6119 23.5111 63.6C22.2444 63.6 20.6667 59.8889 23.6222 59.0444C24.4444 59.1111 25.3111 60 25.0889 62.0889V62.0889Z" fill="#FFF22D"/>
<path d="M24.4444 85.3333C24.4204 86.1505 23.7508 86.8004 22.9333 86.8C21.3111 86.8 20.0444 67.5778 23.3778 66.9778C25.9333 65.6889 24.2444 84.6889 24.4444 85.3333V85.3333Z" fill="#FFF22D"/>
<path d="M17.3778 129.489C22.9556 138.889 20.9778 112.267 21.2444 111.111H17.3778V129.489Z" fill="url(#paint4_linear_1_1260)"/>
<path d="M31.4 109.978C31.8889 111.378 7.17778 112.444 7.22223 109.978C6.73334 108.578 31.4667 107.511 31.4 109.978Z" fill="url(#paint5_linear_1_1260)"/>
<path d="M20 131.267C21.7778 131.689 20.1333 112.022 20.6667 111.111H20V131.267Z" fill="#F5EC4A"/>
<path d="M12.9333 114.244C13.9333 123.933 27.5778 121.578 25.6889 111.111H12.9333V114.244Z" fill="url(#paint6_linear_1_1260)"/>
<defs>
<linearGradient id="paint0_linear_1_1260" x1="18.8889" y1="31.2" x2="18.8889" y2="0" gradientUnits="userSpaceOnUse">
<stop stop-color="#D35B30"/>
<stop offset="0.07" stop-color="#D97338"/>
<stop offset="0.15" stop-color="#DF893E"/>
<stop offset="0.25" stop-color="#E39A44"/>
<stop offset="0.36" stop-color="#E6A547"/>
<stop offset="0.53" stop-color="#E8AC49"/>
<stop offset="1" stop-color="#E8AE4A"/>
</linearGradient>
<linearGradient id="paint1_linear_1_1260" x1="18.9111" y1="26.6444" x2="18.9111" y2="1.44444" gradientUnits="userSpaceOnUse">
<stop stop-color="#E0922F"/>
<stop offset="0.01" stop-color="#E19630"/>
<stop offset="0.08" stop-color="#E7B138"/>
<stop offset="0.16" stop-color="#ECC73F"/>
<stop offset="0.26" stop-color="#F0D844"/>
<stop offset="0.38" stop-color="#F3E347"/>
<stop offset="0.54" stop-color="#F5EA49"/>
<stop offset="1" stop-color="#F5EC4A"/>
</linearGradient>
<linearGradient id="paint2_linear_1_1260" x1="18.6889" y1="21.0445" x2="18.6889" y2="1.46667" gradientUnits="userSpaceOnUse">
<stop stop-color="#F5EC39"/>
<stop offset="0.07" stop-color="#F5ED44"/>
<stop offset="0.32" stop-color="#F6EF63"/>
<stop offset="0.56" stop-color="#F6F079"/>
<stop offset="0.79" stop-color="#F6F186"/>
<stop offset="1" stop-color="#F6F18B"/>
</linearGradient>
<linearGradient id="paint3_linear_1_1260" x1="18.3556" y1="17.2889" x2="18.3556" y2="5.57779" gradientUnits="userSpaceOnUse">
<stop stop-color="#F4F2AA"/>
<stop offset="0.14" stop-color="#F6F5BA"/>
<stop offset="0.51" stop-color="#FBFAE0"/>
<stop offset="0.81" stop-color="#FEFEF7"/>
<stop offset="1" stop-color="white"/>
</linearGradient>
<linearGradient id="paint4_linear_1_1260" x1="17.3778" y1="121.289" x2="21.3778" y2="121.289" gradientUnits="userSpaceOnUse">
<stop stop-color="#764682"/>
<stop offset="0.58" stop-color="#875296"/>
<stop offset="1" stop-color="#8F579E"/>
</linearGradient>
<linearGradient id="paint5_linear_1_1260" x1="7.22223" y1="109.978" x2="31.4" y2="109.978" gradientUnits="userSpaceOnUse">
<stop stop-color="#764682"/>
<stop offset="0.58" stop-color="#875296"/>
<stop offset="1" stop-color="#8F579E"/>
</linearGradient>
<linearGradient id="paint6_linear_1_1260" x1="12.9333" y1="115.733" x2="25.8667" y2="115.733" gradientUnits="userSpaceOnUse">
<stop stop-color="#764682"/>
<stop offset="0.58" stop-color="#875296"/>
<stop offset="1" stop-color="#8F579E"/>
</linearGradient>
</defs>
</svg>
