<svg width="49" height="131" viewBox="0 0 49 131" fill="none" xmlns="http://www.w3.org/2000/svg">
<g clip-path="url(#clip0_1_1342)">
<path d="M22.8222 128.111C28.4222 137.467 26.4222 110.889 26.6889 109.711H22.8222V128.111Z" fill="url(#paint0_linear_1_1342)"/>
<path d="M36.8444 108.578C37.3333 109.978 12.6 111.044 12.6667 108.578C12.1778 107.2 36.9111 106.133 36.8444 108.578Z" fill="url(#paint1_linear_1_1342)"/>
<path d="M25.4222 129.867C27.2222 130.289 25.5556 110.622 26.1111 109.711H25.4222V129.867Z" fill="#6FB353"/>
<path d="M18.3778 112.844C19.3778 122.533 33.0222 120.178 31.1333 109.711H18.3778V112.844Z" fill="url(#paint2_linear_1_1342)"/>
<path d="M20.5333 0C19.1111 9.15556 8.88889 21.7556 20.6 31.1111C34.4444 32.4222 22.7111 5.53333 20.5333 0Z" fill="url(#paint3_linear_1_1342)"/>
<path d="M20.6667 1.46666C19.4444 9.31111 11.1556 17.0222 17.4444 25.9111C18.6444 27.8667 18.1111 22.2222 19.4889 22.1111C22.0667 29.4889 21.7111 26.9111 23.2444 21.1333C33.4444 36.1333 20.9333 0.622218 20.6667 1.46666V1.46666Z" fill="url(#paint4_linear_1_1342)"/>
<path d="M20.6667 1.46667C19.3778 3.6889 11.7778 29.6 19.0889 18.1333C22.3556 23.3556 21.0444 14.2222 24.8667 19.6445C28.8889 21.0889 20.6667 2.00001 20.6667 1.46667V1.46667Z" fill="url(#paint5_linear_1_1342)"/>
<path d="M19.6889 8.26667C19.2889 9.71112 14.6222 21.7778 20 15.5556C20.8889 14.7778 24.7333 16.9111 23.4889 13.0889C21.7556 10.4667 21.5111 1.00001 19.6889 8.26667V8.26667Z" fill="url(#paint6_linear_1_1342)"/>
<path d="M21.7556 29.1111C19.9556 28.6667 20.6444 31.9333 20.5333 36.0889C20.9333 48.2889 23.7778 30.4444 21.7556 29.1111V29.1111Z" fill="#825831"/>
<path d="M43.1333 68.6667C64.4444 25.0222 -19.0444 27.4444 7.31111 58.6889C8.68889 61.1556 22.5556 51.0889 24.9556 58.9111C24.2889 62.7778 12.3333 57.8 10.2 60.0667C0.8 70.4667 5.93333 81.6889 22.6444 78.7556C28.6 78.2444 30.4667 86.3556 21.0667 86.1333C15.0444 86.4889 2.4 72.4 1.06667 96.6445C9.64444 120.444 67.2889 102.222 43.1333 68.6667V68.6667Z" fill="#ECC63E"/>
<path d="M42.0222 67.5556C63.3333 23.9111 -20.2 26.3333 6.2 57.5778C7.57778 60.0444 21.4444 49.9778 23.8444 57.8C23.1778 61.6667 11.2222 56.6889 9.08889 58.9556C-0.31111 69.3556 4.82222 80.5778 21.5333 77.6444C27.4889 77.1333 29.3556 85.2444 19.9556 85.0222C13.9333 85.3778 1.28889 71.2889 0 95.5556C8.53333 119.333 66.1778 101.178 42.0222 67.5556Z" fill="#EFD665"/>
<path d="M12.6222 35.5556C9.06667 36.5556 5.66667 36.6 2.53333 40.9778L15.8667 35C14.8667 35.0222 13.7556 35.2 12.6222 35.5556Z" fill="#EECC41"/>
<path d="M28.8889 35.2222C25.4889 38.7111 -3.82222 44.4445 2.08889 52.7111L35.5556 37.7778C33.4761 36.5921 31.2281 35.7304 28.8889 35.2222V35.2222Z" fill="#EECC41"/>
<path d="M40.4 41.7333L5.48889 57.2889C13.8444 58.0444 34.5778 50.7556 43.2667 45.9333C42.5034 44.4114 41.5392 42.9987 40.4 41.7333V41.7333Z" fill="#EECC41"/>
<path d="M11.4444 58.3778C8.87554 58.485 6.65564 60.2057 5.91111 62.6667L15 58.6222C13.8198 58.4794 12.6331 58.3978 11.4444 58.3778Z" fill="#EECC41"/>
<path d="M45.4889 55.3555C45.4785 53.9917 45.3521 52.6313 45.1111 51.2889C42.2222 54.5111 -3.31111 67.6667 5.97778 74.3111C8.68889 72.0444 47.4667 57.9111 45.4889 55.3555V55.3555Z" fill="#EECC41"/>
<path d="M42.0222 67.5556C42.8243 66.2618 43.4802 64.883 43.9778 63.4445L11.9556 77.7778C19.4 79.7778 36.4 73.3333 43.4222 69.2667C42.9941 68.6658 42.5264 68.0942 42.0222 67.5556V67.5556Z" fill="#EECC41"/>
<path d="M9.8 81.3778C6.11111 79.8667 2.53333 81.8889 1.06667 88.1555L12.7778 82.9333C11.8667 82.4889 10.8889 82 9.8 81.3778V81.3778Z" fill="#EECC41"/>
<path d="M46 74.2C35.0667 81.0667 0.4 90.7333 0.133333 97C-0.6 104.111 13.9333 92.7333 28.8 87.4222C42.4889 79.5778 49.3111 83.1333 46 74.2V74.2Z" fill="#EECC41"/>
<path d="M47.1556 85.3556L7.44444 103.133C15.1333 106.667 17.7778 104 31.2667 97.9778C44.4444 90.6222 45.5556 95.9333 47.1556 85.3556Z" fill="#EECC41"/>
<path d="M39.4667 100.444L28.6444 105.267C32.5766 104.519 36.2813 102.868 39.4667 100.444Z" fill="#EECC41"/>
<path d="M19.8444 41.5111C37.3778 42.9556 36.9111 52.6222 40.7556 54.2889C41.9333 54.8 44.0667 50.7333 35.4222 43.8667C24.5778 35.2222 15.5556 41.2 19.8444 41.5111Z" fill="white"/>
<path d="M26.6667 92.8444C22.0889 90.9333 29.8222 89.9111 31.6889 86.4222C34.3556 79.7556 33.5778 80 35.2444 81.2C33.2889 84.2444 30.6 83.4222 33.5778 80C35.9556 85.6 33.3333 92.2667 26.6667 92.8444V92.8444Z" fill="#FFFDE3"/>
<path d="M19.2222 93.4444C18.7333 93.4444 18.2889 93.2667 17.7333 91.8667C17.7333 90.5778 21.4889 89.0444 22.1778 92C22.2222 92.8667 21.3333 93.6889 19.2222 93.4444Z" fill="#FFFDE3"/>
</g>
<defs>
<linearGradient id="paint0_linear_1_1342" x1="22.8222" y1="119.911" x2="26.8222" y2="119.911" gradientUnits="userSpaceOnUse">
<stop stop-color="#C8B557"/>
<stop offset="0.16" stop-color="#D1BC5A"/>
<stop offset="0.68" stop-color="#E8D062"/>
<stop offset="1" stop-color="#F0D765"/>
</linearGradient>
<linearGradient id="paint1_linear_1_1342" x1="12.6667" y1="108.578" x2="36.8444" y2="108.578" gradientUnits="userSpaceOnUse">
<stop stop-color="#C8B557"/>
<stop offset="0.16" stop-color="#D1BC5A"/>
<stop offset="0.68" stop-color="#E8D062"/>
<stop offset="1" stop-color="#F0D765"/>
</linearGradient>
<linearGradient id="paint2_linear_1_1342" x1="18.3778" y1="114.333" x2="31.3111" y2="114.333" gradientUnits="userSpaceOnUse">
<stop stop-color="#C8B557"/>
<stop offset="0.16" stop-color="#D1BC5A"/>
<stop offset="0.68" stop-color="#E8D062"/>
<stop offset="1" stop-color="#F0D765"/>
</linearGradient>
<linearGradient id="paint3_linear_1_1342" x1="21.1556" y1="31.2" x2="21.1556" y2="0" gradientUnits="userSpaceOnUse">
<stop stop-color="#D35B30"/>
<stop offset="0.07" stop-color="#D97338"/>
<stop offset="0.15" stop-color="#DF893E"/>
<stop offset="0.25" stop-color="#E39A44"/>
<stop offset="0.36" stop-color="#E6A547"/>
<stop offset="0.53" stop-color="#E8AC49"/>
<stop offset="1" stop-color="#E8AE4A"/>
</linearGradient>
<linearGradient id="paint4_linear_1_1342" x1="21.1778" y1="26.6444" x2="21.1778" y2="1.44444" gradientUnits="userSpaceOnUse">
<stop stop-color="#E0922F"/>
<stop offset="0.01" stop-color="#E19630"/>
<stop offset="0.08" stop-color="#E7B138"/>
<stop offset="0.16" stop-color="#ECC73F"/>
<stop offset="0.26" stop-color="#F0D844"/>
<stop offset="0.38" stop-color="#F3E347"/>
<stop offset="0.54" stop-color="#F5EA49"/>
<stop offset="1" stop-color="#F5EC4A"/>
</linearGradient>
<linearGradient id="paint5_linear_1_1342" x1="20.9778" y1="21.0445" x2="20.9778" y2="1.46667" gradientUnits="userSpaceOnUse">
<stop stop-color="#F5EC39"/>
<stop offset="0.07" stop-color="#F5ED44"/>
<stop offset="0.32" stop-color="#F6EF63"/>
<stop offset="0.56" stop-color="#F6F079"/>
<stop offset="0.79" stop-color="#F6F186"/>
<stop offset="1" stop-color="#F6F18B"/>
</linearGradient>
<linearGradient id="paint6_linear_1_1342" x1="20.6222" y1="17.2889" x2="20.6222" y2="5.57779" gradientUnits="userSpaceOnUse">
<stop stop-color="#F4F2AA"/>
<stop offset="0.14" stop-color="#F6F5BA"/>
<stop offset="0.51" stop-color="#FBFAE0"/>
<stop offset="0.81" stop-color="#FEFEF7"/>
<stop offset="1" stop-color="white"/>
</linearGradient>
<clipPath id="clip0_1_1342">
<rect width="49" height="131" fill="white"/>
</clipPath>
</defs>
</svg>
