<svg width="50" height="130" viewBox="0 0 50 130" fill="none" xmlns="http://www.w3.org/2000/svg">
<path d="M24.0445 0C6.60001 28.8889 31.9111 38.6222 31.9778 21.6667C29.7556 16.0222 24.6667 3.26667 24.0445 0V0Z" fill="url(#paint0_linear_1_1422)"/>
<path d="M24.2889 1.0889C22.8444 6.53334 15.0667 14.4222 18.5333 22.7778C20.7556 27.0667 20.3111 26.7111 23.1556 23.0445C23.9333 24.0667 24.8222 26.9556 26.0444 26.0667C26.6889 26.4889 26.7111 20.2667 27.9778 21.0889C29.2444 21.9111 30.2 24.4222 31.2222 25.5333C34.6222 23.4667 23.8 5.04445 24.2889 1.0889V1.0889Z" fill="url(#paint1_linear_1_1422)"/>
<path d="M24.4 1.84445C22 5.42223 14.8889 24.8222 21.3555 20.9333C23.7555 14.0445 24.9111 22.7111 26.4222 17.5333C27.4889 15.7333 29.6667 21.4 30.1111 18.7778C29.7778 17.9111 23.6 4.44445 24.4 1.84445V1.84445Z" fill="url(#paint2_linear_1_1422)"/>
<path d="M20.9556 10.1556C20.8445 10.3778 17.7333 19.8445 21.4667 17.3556C23.4222 14.9333 25.5111 13.7778 27.3778 15.2445C23.4222 10.5778 26 -0.599991 20.9556 10.1556Z" fill="url(#paint3_linear_1_1422)"/>
<path d="M26.2222 26.6667C24.4222 26.2444 25.1111 29.5111 25 33.6667C25.4444 45.6222 28.2444 28.3333 26.2222 26.6667Z" fill="#825831"/>
<path d="M29.4667 57.5111C29.9111 60.3333 24.7778 57.8445 23.0889 56C23.4222 55.7778 28.9111 54.0889 29.4667 57.5111ZM45.0222 69.7333C65.1778 25.6222 -11.9111 22.7333 5.8 68.8889C2.22144 73.6192 0.627163 79.5579 1.35555 85.4445C6.88888 125.489 66.6889 102.889 45.0444 69.7333H45.0222ZM21.8 85.1333C17.8222 80 27.9111 79.4445 28.4667 85.7333C26.2803 86.6374 23.7898 86.4132 21.8 85.1333Z" fill="#CC2C29"/>
<path d="M28.3556 56.4C28.8 59.2222 23.6667 56.7333 21.9778 54.8889C22.3111 54.6667 27.8 52.9778 28.3556 56.4ZM43.9111 68.6222C64.0667 24.4445 -13.1111 21.6222 4.66666 67.6667C1.08811 72.397 -0.506168 78.3357 0.22222 84.2222C5.86666 124.444 65.5778 101.778 43.9333 68.6222H43.9111ZM20.6889 84.0222C16.7111 78.8889 26.8 78.3333 27.3556 84.6222C25.1692 85.5263 22.6787 85.3021 20.6889 84.0222Z" fill="#D35B4F"/>
<path d="M25 33.9556C17.8667 34.3778 10.9556 35.9778 5.86667 43.0222L26.0667 34L25 33.9556Z" fill="#D1545A"/>
<path d="M39.9333 39.4445C35.1111 34.3778 32.3778 37.3778 21.0889 42.3334C6.88888 50.3778 1.68888 46.2889 1.97777 56.4L39.9555 39.4667L39.9333 39.4445Z" fill="#D1545A"/>
<path d="M23.9333 56.3333C23.2072 55.9616 22.5466 55.4737 21.9778 54.8889C22.3111 54.6889 27.6222 53 28.3555 56.2889C28.5555 56.2889 35.4222 53.0667 41.1111 50.6C48.4 47.3556 46.4667 49.0889 43.8222 43.9333L39.3778 45.8889C25.3111 54.3778 -3.0889 59.2222 4.35555 67.0667L25.9333 57.4445C25.2439 57.1167 24.5758 56.7456 23.9333 56.3333V56.3333Z" fill="#D1545A"/>
<path d="M47.5111 55.8222C47.5079 55.1763 47.4709 54.5309 47.4 53.8889L1.13332 74.5333C0.572048 76.4705 0.265763 78.4725 0.222214 80.4889C2.44444 77.7778 51.7333 61.7778 47.5111 55.8222Z" fill="#D1545A"/>
<path d="M20.0444 81.9111C19.4444 77.7556 25.0889 81.9111 26.2222 80.5556L45.9333 71.6667C45.9333 70.0889 42.6222 70.0222 44.9111 66.5778L0.64444 86.4222C0.918486 88.1153 1.36526 89.7758 1.97777 91.3778C2.06666 90.2889 22.4444 84.4445 20.0444 81.9111V81.9111Z" fill="#D1545A"/>
<path d="M47.7778 77.0445L4.66666 96.2889C8.64443 102.8 10.8444 98.5111 22.1111 94.0667C38.5111 84.8 50.9111 86.3334 47.7778 77.0445Z" fill="#D1545A"/>
<path d="M23.1333 105.244C28.9778 101.644 47.2889 98.0445 47.5778 88.8222L14.4 103.6C17.2089 104.595 20.1548 105.15 23.1333 105.244Z" fill="#D1545A"/>
<path d="M23.2667 41.0222C38.5333 42.3111 38.1556 50.7111 41.4667 52.1333C42.5111 52.6 44.4 49.0444 36.8444 43.0222C27.3333 35.5555 19.3556 40.7111 23.2667 41.0222V41.0222Z" fill="white"/>
<path d="M29.4667 91.2667C24.3778 89.0444 33.7333 89.0444 34.0889 84.0889C34.7778 79.2889 34.0889 79.6444 36 80.2889C34.3555 83.3555 32.2889 82.1556 34.0444 79.6444C36.1132 81.5053 36.8087 84.4553 35.789 87.0443C34.7692 89.6332 32.2488 91.3165 29.4667 91.2667V91.2667Z" fill="#FFF9B2"/>
<path d="M25.5333 45.6889C29.3555 48.6667 22.5555 47.5333 18.8667 50.4667C14.4222 56.0222 15.2667 56.1111 14.0222 54.5111C16.7333 52.1111 19.0889 53.7111 15.2889 56.1111C14.6444 50.0889 19 44.4444 25.5333 45.6889V45.6889Z" fill="#FFF9B2"/>
<path d="M32.8889 47.1778C33.6922 47.4422 34.1297 48.3073 33.8667 49.1111C33.5555 50.3555 29.4222 50.8 29.4222 47.7111C29.8444 46.9111 30.9333 46.3778 32.8889 47.1778Z" fill="#FFF9B2"/>
<path d="M24.3556 127.956C29.9333 137.333 27.9556 110.733 28.2222 109.556H24.3556V127.956Z" fill="url(#paint4_linear_1_1422)"/>
<path d="M38.3778 108.444C38.8667 109.822 14.1333 110.911 14.2 108.444C13.7111 107.044 38.4444 105.978 38.3778 108.444Z" fill="url(#paint5_linear_1_1422)"/>
<path d="M26.8889 129.733C28.6889 130.133 27.0222 110.489 27.5778 109.556H26.8889V129.733Z" fill="#F5EC4A"/>
<path d="M19.9111 112.711C20.9111 122.378 34.5555 120.022 32.6667 109.556H19.9111V112.711Z" fill="url(#paint6_linear_1_1422)"/>
<defs>
<linearGradient id="paint0_linear_1_1422" x1="24.9333" y1="29.9778" x2="24.9333" y2="0" gradientUnits="userSpaceOnUse">
<stop stop-color="#D35B30"/>
<stop offset="0.07" stop-color="#D97338"/>
<stop offset="0.15" stop-color="#DF893E"/>
<stop offset="0.25" stop-color="#E39A44"/>
<stop offset="0.36" stop-color="#E6A547"/>
<stop offset="0.53" stop-color="#E8AC49"/>
<stop offset="1" stop-color="#E8AE4A"/>
</linearGradient>
<linearGradient id="paint1_linear_1_1422" x1="24.7778" y1="26.2222" x2="24.7778" y2="1.0889" gradientUnits="userSpaceOnUse">
<stop stop-color="#E0922F"/>
<stop offset="0.01" stop-color="#E19630"/>
<stop offset="0.08" stop-color="#E7B138"/>
<stop offset="0.16" stop-color="#ECC73F"/>
<stop offset="0.26" stop-color="#F0D844"/>
<stop offset="0.38" stop-color="#F3E347"/>
<stop offset="0.54" stop-color="#F5EA49"/>
<stop offset="1" stop-color="#F5EC4A"/>
</linearGradient>
<linearGradient id="paint2_linear_1_1422" x1="24.4" y1="21.4445" x2="24.4" y2="1.84445" gradientUnits="userSpaceOnUse">
<stop stop-color="#F5EC39"/>
<stop offset="0.07" stop-color="#F5ED44"/>
<stop offset="0.32" stop-color="#F6EF63"/>
<stop offset="0.56" stop-color="#F6F079"/>
<stop offset="0.79" stop-color="#F6F186"/>
<stop offset="1" stop-color="#F6F18B"/>
</linearGradient>
<linearGradient id="paint3_linear_1_1422" x1="23.4889" y1="17.7778" x2="23.4889" y2="5.62223" gradientUnits="userSpaceOnUse">
<stop stop-color="#F4F2AA"/>
<stop offset="0.14" stop-color="#F6F5BA"/>
<stop offset="0.51" stop-color="#FBFAE0"/>
<stop offset="0.81" stop-color="#FEFEF7"/>
<stop offset="1" stop-color="white"/>
</linearGradient>
<linearGradient id="paint4_linear_1_1422" x1="24.3556" y1="119.756" x2="28.3556" y2="119.756" gradientUnits="userSpaceOnUse">
<stop stop-color="#B5624F"/>
<stop offset="0.08" stop-color="#B96450"/>
<stop offset="0.64" stop-color="#D0705A"/>
<stop offset="1" stop-color="#D8745D"/>
</linearGradient>
<linearGradient id="paint5_linear_1_1422" x1="14.2" y1="108.444" x2="38.3778" y2="108.444" gradientUnits="userSpaceOnUse">
<stop stop-color="#B5624F"/>
<stop offset="0.08" stop-color="#B96450"/>
<stop offset="0.64" stop-color="#D0705A"/>
<stop offset="1" stop-color="#D8745D"/>
</linearGradient>
<linearGradient id="paint6_linear_1_1422" x1="19.9111" y1="114.2" x2="32.8444" y2="114.2" gradientUnits="userSpaceOnUse">
<stop stop-color="#B5624F"/>
<stop offset="0.08" stop-color="#B96450"/>
<stop offset="0.64" stop-color="#D0705A"/>
<stop offset="1" stop-color="#D8745D"/>
</linearGradient>
</defs>
</svg>
