<svg width="78" height="200" viewBox="0 0 78 200" fill="none" xmlns="http://www.w3.org/2000/svg">
<path d="M72.1633 19.8085C60.0786 -3.07713 28.9343 -4.47074 13 14.3032C-12.602 40.8989 8.53491 74.6011 31.0886 72.4495C19.3727 79.0692 13.5545 91.0665 17.948 103.402C20.8663 110.646 30.0141 112.011 37.3498 110.976C52.2414 108.91 61.092 94.4867 66.9765 81.1888C75.2196 62.4521 80.9502 37.8989 72.1633 19.8085ZM36.3682 48.6702C27.6608 48.1064 28.1437 32.5027 36.3682 32.2181C45.0755 32.7926 44.5874 48.4043 36.3682 48.6702Z" fill="#F0E895"/>
<path d="M33.0996 112.614C8.7949 113.013 11.578 83.625 26.7641 73.7686C18.2106 73.0585 10.9545 67.5745 5.94286 60.4707C-4.75693 45.1037 0.0318441 25.2154 12.0449 13.3963C29.2208 -6.5266 61.2857 -3.93086 73.3571 19.2074C83.781 40.8883 74.0655 69.8856 66.1939 86.0213C59.2216 100.532 49.0365 112.668 33.0996 112.614ZM31.1045 71.125C32.4018 71.1569 33.0863 73.0532 31.4547 73.8032C20.3118 79.992 14.3212 92.7899 19.9192 104.343C25.8329 113.066 41.0747 110.112 46.9937 106.051C57.399 99.7686 64.3606 84.7739 68.449 74.1543C74.3521 58.2553 78.9737 37.0133 70.9906 20.4122C62.6998 4.37499 43.2688 -1.38298 27.2151 5.53457C15.5469 10.4202 5.42552 23.0239 3.2394 35.2899C-0.549176 52.3298 12.9708 72.6064 31.1045 71.1197V71.125ZM36.3682 50C25.878 49.3378 26.4033 31.258 36.3682 30.8883C46.8557 31.5612 46.3304 49.641 36.3682 50ZM36.3682 33.5479C29.441 34.0346 29.9 47.1117 36.3682 47.3404C43.2953 46.8644 42.8363 33.7766 36.3682 33.5585V33.5479Z" fill="#A17A51"/>
<path d="M36.0975 199.888C35.3649 199.888 34.771 199.293 34.771 198.559V128C34.771 127.266 35.3649 126.67 36.0975 126.67C36.8301 126.67 37.4241 127.266 37.4241 128V198.559C37.4241 199.293 36.8301 199.888 36.0975 199.888Z" fill="#A67C52"/>
<path d="M37.6045 127.96C36.3947 127.213 35.1955 128.122 33.9061 128.678C32.2267 129.309 30.5712 129.311 29.0351 128.497C24.1031 124.96 26.0584 120.027 29.9557 116.729C32.9324 113.846 33.0386 112.715 35.8959 112.269C39.1698 112.285 39.2653 113.577 42.3959 116.359C51.1696 122.984 44.5077 131.915 37.6045 127.96Z" fill="#F0E895"/>
<path d="M31.5529 130.46C26.2812 130.519 23.4318 124.402 25.4774 120.109C26.6633 117.774 27.2231 117.808 29.8602 114.912C32.4337 112.335 33.0094 111.032 36.4716 110.923C39.9206 111.282 39.9949 112.386 43.0194 115.109C53.4831 123.074 45.1816 133.808 36.9625 129.117C35.3706 128.96 33.2561 130.795 31.5529 130.46ZM36.2567 113.585C33.6992 113.867 33.7761 114.944 31.0541 117.503C23.8908 123.37 28.998 129.247 33.3331 127.473C34.8798 126.747 36.5167 125.771 38.2492 126.795C43.0963 129.609 46.7867 124.787 44.6325 120.652C43.4386 119.072 37.8751 113.122 36.2567 113.585Z" fill="#A17A51"/>
<path d="M38.9549 117.133C46.6992 119.106 55.6904 123.053 57.3088 112.652C56.1335 100.66 44.8527 106.598 38.8912 108.423L38.9549 117.133Z" fill="#E8BD67"/>
<path d="M50.1057 121.011C46.1739 120.832 41.478 118.96 37.6364 118.181L37.5621 107.479C41.8494 106.237 46.1633 104.09 50.5223 103.91C62.0259 104.787 60.5986 120.955 50.1057 121.011ZM40.2708 116.112C44.5794 116.87 50.0872 119.955 53.6051 117.202C57.4919 114.34 56.3431 108.322 52.1008 106.83C48.2008 105.819 44.1072 108.399 40.2231 109.386L40.2708 116.112Z" fill="#A17A51"/>
<path d="M42.5021 111.992C36.2541 109.245 52.6712 105.609 51.9231 110.109C51.5039 111.896 48.8455 110.327 46.8319 110.697C43.6482 111.101 44.0408 111.702 42.5021 111.992Z" fill="#A67C52"/>
<path d="M32.4549 117.676C24.7106 119.649 15.722 123.593 14.101 113.194C15.2763 101.199 26.5704 107.141 32.5186 108.963L32.4549 117.676Z" fill="#E8BD67"/>
<path d="M21.3041 121.543C8.86652 120.851 10.8643 102.987 22.5271 104.556C26.3847 105.261 29.9079 106.803 33.8477 108.013L33.7735 118.718C29.8788 119.503 25.3553 121.33 21.3041 121.543ZM21.0388 107.104C15.9077 107.117 13.7773 113.519 16.9504 116.944C19.5265 119.918 23.1771 118.843 26.6951 117.793C27.5945 117.545 30.3033 116.862 31.1443 116.649L31.192 109.931C28.0773 109.003 24.3286 107.279 21.0335 107.101L21.0388 107.104Z" fill="#A17A51"/>
<path d="M28.9184 112.535C22.9835 109.686 20.1394 112.851 19.4973 110.652C18.9216 108.904 21.8267 108.524 23.912 108.537C27.9712 108.543 32.6804 111.016 28.9184 112.535Z" fill="#A67C52"/>
<path d="M34.7286 119.721C44.919 120.949 44.4229 107.16 37.5276 106.322C25.8939 104.399 26.9498 119.88 34.7286 119.721Z" fill="#E8BD67"/>
<path d="M36.6813 121.048C24.7425 122.378 24.9839 105.34 34.4368 104.936C46.9009 103.386 46.41 121.011 36.6813 121.048ZM34.7286 107.585C30.2529 107.628 29.4596 112.904 30.8711 116.122C32.1339 118.545 34.8029 118.516 37.257 118.356C41.3533 117.907 41.9582 112.686 40.3982 109.625C39.2362 107.58 36.806 107.484 34.7286 107.585Z" fill="#A17A51"/>
<path d="M27.8121 73.8005C26.65 73.8191 25.9549 72.1596 27.0586 71.3803C28.6053 70.766 30.7968 71.25 32.8953 70.891C35.4582 70.9309 37.708 69.2952 38.4986 70.9468C39.7933 74.3723 27.56 73.5505 27.8227 73.8005H27.8121Z" fill="#A17A51"/>
<path d="M67.6982 45.0878C65.7031 45.125 66.3239 41.2819 67.4328 40.5851C70.2504 39.3617 69.5686 45.2128 67.6982 45.0878Z" fill="white"/>
<path d="M68.2951 36.7739C66.491 36.6782 67.0561 34.3803 66.767 32.9388C66.511 30.6965 66.0165 28.488 65.2919 26.3511C64.6047 23.8271 63.1376 22.0957 62.3151 19.7527C62.4849 17.9867 64.5676 18.1569 65.1141 19.6569C67.3321 22.5798 71.8449 36.8644 68.2951 36.7739Z" fill="white"/>
<path d="M22.5749 16.8777C18.33 15.7447 25.6896 11.0585 26.8198 10.3457C32.6566 6.78458 41.1092 5.33511 47.8108 6.98936C50.4055 6.76064 66.5255 15.2952 59.3278 16.1037C48.2857 6.45479 34.5057 6.32713 22.5749 16.8777Z" fill="white"/>
<path d="M17.9931 22.9628C14.889 22.5824 18.4176 17.875 19.8025 16.9335C22.5298 16.6064 21.3943 19.242 20.1447 20.5558C19.3514 21.4681 19.4735 22.7154 17.9931 22.9628Z" fill="white"/>
</svg>
