<svg width="49" height="131" viewBox="0 0 49 131" fill="none" xmlns="http://www.w3.org/2000/svg">
<path d="M17.7778 128.467C23.3778 137.822 21.3778 111.244 21.6445 110.067H17.7778V128.467Z" fill="url(#paint0_linear_1_1448)"/>
<path d="M31.8222 108.889C32.3111 110.289 7.57779 111.356 7.64445 108.889C7.15556 107.511 31.8889 106.444 31.8222 108.889Z" fill="url(#paint1_linear_1_1448)"/>
<path d="M20.4 130.222C22.2 130.644 20.5333 110.978 21.0889 110.067H20.4V130.222Z" fill="#6FB353"/>
<path d="M13.3333 113.2C14.3333 122.889 27.9778 120.533 26.0889 110.067H13.3333V113.2Z" fill="url(#paint2_linear_1_1448)"/>
<path d="M23.5111 0C22.0889 9.15556 11.8889 21.7556 23.5111 31.1111C37.4222 32.4222 25.6889 5.53333 23.5111 0Z" fill="url(#paint3_linear_1_1448)"/>
<path d="M23.6445 1.46666C22.4222 9.31111 14.1111 17.0222 20.4 25.9111C21.6222 27.8667 21.0889 22.2222 22.4667 22.1111C25.0445 29.4889 24.6889 26.9333 26.2222 21.1333C36.4222 36.1333 23.9111 0.622218 23.6445 1.46666V1.46666Z" fill="url(#paint4_linear_1_1448)"/>
<path d="M23.6444 1.46667C22.3556 3.6889 14.7556 29.6 22.0667 18.1333C25.3111 23.3556 24.0222 14.2222 27.8444 19.6445C31.8444 21.0889 23.6222 2.00001 23.6444 1.46667V1.46667Z" fill="url(#paint5_linear_1_1448)"/>
<path d="M22.6667 8.26667C22.2222 9.71112 17.6 21.7778 23.0445 15.5556C23.9333 14.7778 27.7778 16.9111 26.5333 13.0889C24.7333 10.4667 24.4445 1.00001 22.6667 8.26667V8.26667Z" fill="url(#paint6_linear_1_1448)"/>
<path d="M24.7333 29.1111C22.9333 28.6667 23.6222 31.9333 23.5111 36.0889C24.2222 47.9111 26.6667 31.1111 24.7333 29.1111V29.1111Z" fill="#825831"/>
<path d="M47.7556 41.6667C45.5556 33.3333 24.4444 38.0222 20.7556 36.6C15.2444 37.0889 2.64444 31.4445 1.8 45.0222C-1.2 62.8 8.08889 59.9111 22.7556 58.6667C17.3556 74.0445 -6.42222 113.133 25.3778 106.867C28.2231 106.259 30.4587 104.058 31.1111 101.222C33.3333 69.8 50.6444 57.7778 47.7556 41.6667Z" fill="#ECC63E"/>
<path d="M46.6667 40.5556C44.4445 32.2889 23.2667 36.9111 19.6445 35.5556C14.1333 35.9778 1.53334 30.3333 0.688899 43.9111C-2.3111 61.6889 6.97779 58.8 21.6445 57.5556C16.2445 72.9334 -7.53332 112.022 24.2667 105.756C27.112 105.148 29.3476 102.947 30 100.111C32.1556 68.6889 49.5333 56.7333 46.6667 40.5556V40.5556Z" fill="#EFD665"/>
<path d="M7.48889 34.7778C5.31349 34.7795 3.32952 36.0216 2.37778 37.9778L9.48889 34.8222C8.71111 34.7778 8.04444 34.7778 7.48889 34.7778Z" fill="#EECC41"/>
<path d="M21.4889 35.5555C16.8667 39.2444 -2.77777 41.7555 0.333339 50.5555L33.4667 35.7778C28.3111 35.7333 24.3111 35.6667 21.4889 35.5555V35.5555Z" fill="#EECC41"/>
<path d="M46.6667 40.5555C48.0445 31 3.35557 56.9555 1.71112 56.1111C3.13334 64.2889 46.1111 42.2222 46.6667 40.5555V40.5555Z" fill="#EECC41"/>
<path d="M47.3111 48.8889C47.3111 48.4444 47.3111 47.9333 47.3111 47.2889C41.7333 50.8667 17.7778 56.8444 17.9111 66.0222C21.6 63.2444 48.5111 55.6889 47.3111 48.8889V48.8889Z" fill="#EECC41"/>
<path d="M40.4889 62.0667C34.1556 66.5111 12.5556 70 12.2444 80.2222C17.7778 76.7778 40.7111 71.1111 40.4889 62.0667V62.0667Z" fill="#EECC41"/>
<path d="M35.3557 76C31.0445 79.2222 6.06668 84.8889 8.55557 93.5111C15.0445 88.8889 35.4222 86.4444 35.3557 76Z" fill="#EECC41"/>
<path d="M31.8889 89.2222C27.4445 92.2889 -0.244438 99.7111 10.9333 104.111C20.7111 98.2 32.0889 99.1778 31.8889 89.2222Z" fill="#EECC41"/>
<path d="M29.2444 102.044L20.1111 106.133C24.2222 105.844 26.4222 106.156 29.2444 102.044Z" fill="#EECC41"/>
<path d="M6.44445 49.5333C6.11112 52.5111 7.06667 43 23.9333 42.3111C26.5111 42.3111 33.3778 40.2444 22.6445 40.2444C7.35556 40.2444 7.35556 40.2444 6.44445 49.5333V49.5333Z" fill="white"/>
<path d="M28.0444 86.1333C28.2747 85.3182 27.8104 84.4686 27 84.2222C25.7778 83.7778 23.1556 86.9111 25.7111 88.6667C26.6667 88.8889 27.6 88.2 28.0444 86.1333Z" fill="#FFFDE3"/>
<path d="M34.5111 63.8C34.621 63.4257 34.5773 63.0231 34.3896 62.6812C34.202 62.3392 33.8858 62.0861 33.5111 61.9778C31.9556 61.4667 24.9556 79.3778 27.9333 81C29.9333 82.9555 34.0667 64.4444 34.5111 63.8V63.8Z" fill="#FFFDE3"/>
<defs>
<linearGradient id="paint0_linear_1_1448" x1="17.8" y1="120.267" x2="21.8" y2="120.267" gradientUnits="userSpaceOnUse">
<stop stop-color="#C8B557"/>
<stop offset="0.16" stop-color="#D1BC5A"/>
<stop offset="0.68" stop-color="#E8D062"/>
<stop offset="1" stop-color="#F0D765"/>
</linearGradient>
<linearGradient id="paint1_linear_1_1448" x1="7.64445" y1="108.933" x2="31.8222" y2="108.933" gradientUnits="userSpaceOnUse">
<stop stop-color="#C8B557"/>
<stop offset="0.16" stop-color="#D1BC5A"/>
<stop offset="0.68" stop-color="#E8D062"/>
<stop offset="1" stop-color="#F0D765"/>
</linearGradient>
<linearGradient id="paint2_linear_1_1448" x1="13.3556" y1="114.689" x2="26.2889" y2="114.689" gradientUnits="userSpaceOnUse">
<stop stop-color="#C8B557"/>
<stop offset="0.16" stop-color="#D1BC5A"/>
<stop offset="0.68" stop-color="#E8D062"/>
<stop offset="1" stop-color="#F0D765"/>
</linearGradient>
<linearGradient id="paint3_linear_1_1448" x1="24.1333" y1="31.2" x2="24.1333" y2="0" gradientUnits="userSpaceOnUse">
<stop stop-color="#D35B30"/>
<stop offset="0.07" stop-color="#D97338"/>
<stop offset="0.15" stop-color="#DF893E"/>
<stop offset="0.25" stop-color="#E39A44"/>
<stop offset="0.36" stop-color="#E6A547"/>
<stop offset="0.53" stop-color="#E8AC49"/>
<stop offset="1" stop-color="#E8AE4A"/>
</linearGradient>
<linearGradient id="paint4_linear_1_1448" x1="24.1556" y1="26.6444" x2="24.1556" y2="1.44444" gradientUnits="userSpaceOnUse">
<stop stop-color="#E0922F"/>
<stop offset="0.01" stop-color="#E19630"/>
<stop offset="0.08" stop-color="#E7B138"/>
<stop offset="0.16" stop-color="#ECC73F"/>
<stop offset="0.26" stop-color="#F0D844"/>
<stop offset="0.38" stop-color="#F3E347"/>
<stop offset="0.54" stop-color="#F5EA49"/>
<stop offset="1" stop-color="#F5EC4A"/>
</linearGradient>
<linearGradient id="paint5_linear_1_1448" x1="23.9333" y1="21.0445" x2="23.9333" y2="1.46667" gradientUnits="userSpaceOnUse">
<stop stop-color="#F5EC39"/>
<stop offset="0.07" stop-color="#F5ED44"/>
<stop offset="0.32" stop-color="#F6EF63"/>
<stop offset="0.56" stop-color="#F6F079"/>
<stop offset="0.79" stop-color="#F6F186"/>
<stop offset="1" stop-color="#F6F18B"/>
</linearGradient>
<linearGradient id="paint6_linear_1_1448" x1="23.6" y1="17.2889" x2="23.6" y2="5.57779" gradientUnits="userSpaceOnUse">
<stop stop-color="#F4F2AA"/>
<stop offset="0.14" stop-color="#F6F5BA"/>
<stop offset="0.51" stop-color="#FBFAE0"/>
<stop offset="0.81" stop-color="#FEFEF7"/>
<stop offset="1" stop-color="white"/>
</linearGradient>
</defs>
</svg>
