<svg width="54" height="129" viewBox="0 0 54 129" fill="none" xmlns="http://www.w3.org/2000/svg">
<g clip-path="url(#clip0_1_1315)">
<path d="M35.8667 27.4445C34.0667 27 34.7556 30.2889 34.6444 34.4445C35.4 46.2889 37.7778 29.4 35.8667 27.4445V27.4445Z" fill="#825831"/>
<path d="M33.5556 0C32.4667 6.66667 26.6667 16.9778 28.2667 25.4C29.6667 30.5111 39.3778 32.7778 40.9778 24.8C39.5823 16.2481 37.0876 7.91243 33.5556 0V0Z" fill="url(#paint0_linear_1_1315)"/>
<path d="M33.6889 1.46667C31.7111 7.37779 25.4667 23.6889 29.8889 26.2667C31.9333 19.6 32.8 27.5556 34.8 26.4222C35.4444 26.8667 35.4889 20.6222 36.7333 21.4445C37.9778 22.2667 38.9556 24.7778 39.9778 25.8889C43.1778 21.1556 34.2222 5.60001 33.6889 1.46667V1.46667Z" fill="url(#paint1_linear_1_1315)"/>
<path d="M33.6889 1.46667C32.3778 3.6889 24.8 29.6 32.1111 18.1333C35.3556 23.3556 34.0444 14.2222 37.8889 19.6222C41.8889 21.0889 33.6667 2.00001 33.6889 1.46667V1.46667Z" fill="url(#paint2_linear_1_1315)"/>
<path d="M32.6889 8.26667C32.3111 9.71112 27.6444 21.7778 33.0889 15.4667C33.9778 14.6889 37.8222 16.8222 36.5556 13C34.7556 10.4667 34.5111 1 32.6889 8.26667V8.26667Z" fill="url(#paint3_linear_1_1315)"/>
<path d="M24.1778 73.7778C24.4222 73.4445 25.9556 71.9111 26.2 71.5556V73.7778C25.527 73.8308 24.8508 73.8308 24.1778 73.7778ZM53.3333 83.2C53.7778 79.1333 52.4222 71.7333 46.4667 72.7333C45.4 63.2 49 52.0445 45.9333 41.1556C38.8 34.6445 28.1556 31.5556 23.2444 43.7333C13.4667 62 -22.3111 99.2889 25.0889 94C18.4222 110.667 51.5556 112.978 46.7556 94C51.9556 93.6445 54.0444 90.0445 53.3333 83.2V83.2Z" fill="#CC2C29"/>
<path d="M23.0667 72.6667C23.3111 72.3333 24.8444 70.8 25.0889 70.4445V72.6667C24.4159 72.7196 23.7397 72.7196 23.0667 72.6667ZM52.2444 82.0889C52.6889 78.0222 51.3333 70.6222 45.3778 71.6222C44.3111 62.0889 47.9111 50.9333 44.8444 40.0445C37.7778 33.5333 27.0667 30.4445 22.2222 42.6222C12.4444 60.8889 -23.3333 98.1778 24.0667 92.8889C17.4 109.556 50.5333 111.867 45.7333 92.8889C50.8444 92.5333 52.9333 88.8889 52.2444 82.0889Z" fill="#D35B4F"/>
<path d="M41.3556 37.2222C34.1333 34.8 20.3333 42.3111 17.3333 50.5556L43.7556 38.7556C43.054 38.1046 42.2411 37.5852 41.3556 37.2222V37.2222Z" fill="#D1545A"/>
<path d="M46.1111 44.4445C46.1221 44.2446 46.1221 44.0443 46.1111 43.8445C38.3333 48.1111 9.11111 57.0222 6.31111 67.1333C9.4 63.7556 50.9556 52.3333 46.1111 44.4445Z" fill="#D1545A"/>
<path d="M45.4889 58.9778C45.4889 58.1778 45.4889 57.0667 45.4889 55.7333L0.97778 75.5556C0.574847 77.4841 0.395884 79.4527 0.444446 81.4222C1.6 79.1778 48.6222 63.4889 45.4889 58.9778V58.9778Z" fill="#D1545A"/>
<path d="M46.6667 71.5778C46.2889 71.5778 45.9111 71.5778 45.4222 71.5778C45.4222 70.3778 45.4222 68.9333 45.4222 67.4C45.3111 67.4 5.55556 85.1778 1.44444 87.0444C0.133333 86.2 2.77778 90.9333 3.86667 91.4889L48.0667 71.7778C47.6132 71.639 47.1409 71.5715 46.6667 71.5778Z" fill="#D1545A"/>
<path d="M52.1556 78.1778C52.1578 77.5182 52.0757 76.861 51.9111 76.2222L13.8667 93.2C16.0889 93.2 18.7111 93.0222 24 92.8889C24 93.4667 24 92.8889 23.8222 94.3111C25.9333 91.9556 56.0889 83.4889 52.1556 78.1778V78.1778Z" fill="#D1545A"/>
<path d="M45.6889 93.0222C45.6785 92.9784 45.6785 92.9327 45.6889 92.8889C48.7739 92.8918 51.4579 90.7776 52.1778 87.7778C49.6222 90.6 13.8889 100 27.0444 104.444C30.9556 101.511 48.8889 98.0444 45.6889 93.0222V93.0222Z" fill="#D1545A"/>
<path d="M44.4444 102.822L38.0444 105.667C40.5095 105.794 42.8873 104.737 44.4444 102.822Z" fill="#D1545A"/>
<path d="M36.7333 44.6C50.6667 43.0444 27.8444 33.4889 22.4 53.1333C18.9333 61.6222 30.0444 42.5333 36.7333 44.6Z" fill="white"/>
<path d="M5.4 74.9778C5.73333 74.6222 6.06667 74.2889 7.62222 74.6222C8.68889 75.3111 7.84445 79.3111 4.93333 78.3111C4.2 77.7778 4.02222 76.5778 5.4 74.9778V74.9778Z" fill="#FFF9B2"/>
<path d="M19.0889 56.1778C19.5778 55.5111 19.0889 56.1778 21.1556 55.8445C22.5111 56.7556 12.6222 73.2889 9.53333 71.8889C6.66667 71.5333 18.9333 56.8667 19.0889 56.1778Z" fill="#FFF9B2"/>
<path d="M42.7555 57.0667C42.7439 57.4734 42.5711 57.8588 42.2752 58.1381C41.9793 58.4173 41.5845 58.5675 41.1778 58.5556C39.9111 58.5556 38.3333 54.8444 41.1778 54C42.2222 54.0889 42.9778 54.9556 42.7555 57.0667Z" fill="#FFF9B2"/>
<path d="M42.2222 80.3111C42.2164 80.704 42.0532 81.0782 41.7692 81.3498C41.4851 81.6213 41.1039 81.7675 40.7111 81.7555C39.0889 81.7555 37.8222 62.5555 41.1556 61.9333C43.6 60.6667 41.9333 79.6444 42.2222 80.3111Z" fill="#FFF9B2"/>
<path d="M33.8 126.4C39.3778 135.778 37.4 109.178 37.6667 108H33.8V126.4Z" fill="url(#paint4_linear_1_1315)"/>
<path d="M47.8222 106.889C48.3111 108.289 23.5778 109.356 23.6444 106.889C23.1556 105.489 47.8889 104.422 47.8222 106.889Z" fill="url(#paint5_linear_1_1315)"/>
<path d="M36.4 128.178C38.2 128.578 36.5333 108.933 37.0889 108H36.4V128.178Z" fill="#F5EC4A"/>
<path d="M29.3556 111.111C30.3556 120.8 44 118.444 42.1111 107.956H29.3556V111.111Z" fill="url(#paint6_linear_1_1315)"/>
</g>
<defs>
<linearGradient id="paint0_linear_1_1315" x1="34.4667" y1="30.0222" x2="34.4667" y2="0" gradientUnits="userSpaceOnUse">
<stop stop-color="#D35B30"/>
<stop offset="0.07" stop-color="#D97338"/>
<stop offset="0.15" stop-color="#DF893E"/>
<stop offset="0.25" stop-color="#E39A44"/>
<stop offset="0.36" stop-color="#E6A547"/>
<stop offset="0.53" stop-color="#E8AC49"/>
<stop offset="1" stop-color="#E8AE4A"/>
</linearGradient>
<linearGradient id="paint1_linear_1_1315" x1="34.5111" y1="26.5333" x2="34.5111" y2="1.46667" gradientUnits="userSpaceOnUse">
<stop stop-color="#E0922F"/>
<stop offset="0.01" stop-color="#E19630"/>
<stop offset="0.08" stop-color="#E7B138"/>
<stop offset="0.16" stop-color="#ECC73F"/>
<stop offset="0.26" stop-color="#F0D844"/>
<stop offset="0.38" stop-color="#F3E347"/>
<stop offset="0.54" stop-color="#F5EA49"/>
<stop offset="1" stop-color="#F5EC4A"/>
</linearGradient>
<linearGradient id="paint2_linear_1_1315" x1="33.9778" y1="21.0445" x2="33.9778" y2="1.46667" gradientUnits="userSpaceOnUse">
<stop stop-color="#F5EC39"/>
<stop offset="0.07" stop-color="#F5ED44"/>
<stop offset="0.32" stop-color="#F6EF63"/>
<stop offset="0.56" stop-color="#F6F079"/>
<stop offset="0.79" stop-color="#F6F186"/>
<stop offset="1" stop-color="#F6F18B"/>
</linearGradient>
<linearGradient id="paint3_linear_1_1315" x1="33.6444" y1="17.2889" x2="33.6444" y2="5.57778" gradientUnits="userSpaceOnUse">
<stop stop-color="#F4F2AA"/>
<stop offset="0.14" stop-color="#F6F5BA"/>
<stop offset="0.51" stop-color="#FBFAE0"/>
<stop offset="0.81" stop-color="#FEFEF7"/>
<stop offset="1" stop-color="white"/>
</linearGradient>
<linearGradient id="paint4_linear_1_1315" x1="33.8" y1="118.2" x2="37.8" y2="118.2" gradientUnits="userSpaceOnUse">
<stop stop-color="#B5624F"/>
<stop offset="0.08" stop-color="#B96450"/>
<stop offset="0.64" stop-color="#D0705A"/>
<stop offset="1" stop-color="#D8745D"/>
</linearGradient>
<linearGradient id="paint5_linear_1_1315" x1="23.6444" y1="106.889" x2="47.8222" y2="106.889" gradientUnits="userSpaceOnUse">
<stop stop-color="#B5624F"/>
<stop offset="0.08" stop-color="#B96450"/>
<stop offset="0.64" stop-color="#D0705A"/>
<stop offset="1" stop-color="#D8745D"/>
</linearGradient>
<linearGradient id="paint6_linear_1_1315" x1="29.3556" y1="112.644" x2="42.2889" y2="112.644" gradientUnits="userSpaceOnUse">
<stop stop-color="#B5624F"/>
<stop offset="0.08" stop-color="#B96450"/>
<stop offset="0.64" stop-color="#D0705A"/>
<stop offset="1" stop-color="#D8745D"/>
</linearGradient>
<clipPath id="clip0_1_1315">
<rect width="54" height="129" fill="white"/>
</clipPath>
</defs>
</svg>
