<svg width="51" height="130" viewBox="0 0 51 130" fill="none" xmlns="http://www.w3.org/2000/svg">
<path d="M22.8222 0C5.37778 28.8889 30.6889 38.6222 30.7556 21.6667C28.5556 16.0222 23.3778 3.26667 22.8222 0Z" fill="url(#paint0_linear_1_1395)"/>
<path d="M23.0667 1.0889C21.6445 6.53334 13.8444 14.4222 17.3111 22.7778C19.5333 27.0667 19.0889 26.7111 21.9333 23.0445C22.7111 24.0667 23.6 26.9556 24.8222 26.0667C25.4667 26.5111 25.5111 20.2667 26.7556 21.0889C28 21.9111 28.9778 24.4445 30.0222 25.5333C33.4222 23.4667 22.5778 5.04445 23.0667 1.0889V1.0889Z" fill="url(#paint1_linear_1_1395)"/>
<path d="M23.1778 1.86667C20.7778 5.42222 13.6667 24.8222 20.2222 20.9333C22.6222 14.0444 23.7778 22.7111 25.2889 17.5333C26.3556 15.7333 28.5333 21.4 28.9778 18.7778C28.5556 17.9111 22.4444 4.44445 23.1778 1.86667V1.86667Z" fill="url(#paint2_linear_1_1395)"/>
<path d="M19.7333 10.1556C19.7333 10.4 16.5111 19.8445 20.2444 17.3556C22.2 14.9333 24.2889 13.8 26.1556 15.2445C22.2 10.5778 24.8 -0.599991 19.7333 10.1556V10.1556Z" fill="url(#paint3_linear_1_1395)"/>
<path d="M25.5111 28.3556C23.7111 27.9111 24.4 31.2 24.2889 35.3556C24.6667 47.2889 27.5111 30.0222 25.5111 28.3556V28.3556Z" fill="#825831"/>
<path d="M22.0889 127.978C27.5111 137.067 25.5778 111.267 25.8444 110.2H22.0889V127.978Z" fill="url(#paint4_linear_1_1395)"/>
<path d="M35.7778 109.044C36.2444 110.378 12.2667 111.422 12.3333 109.044C11.7556 107.689 35.7778 106.667 35.7778 109.044Z" fill="url(#paint5_linear_1_1395)"/>
<path d="M24.6667 129.689C26.3778 130.089 24.6667 111.022 25.3111 110.133H24.6667V129.689Z" fill="#6FB353"/>
<path d="M17.7778 113.178C18.7333 122.578 31.9778 120.289 30.1556 110.133H17.7778V113.178Z" fill="url(#paint6_linear_1_1395)"/>
<path d="M42.4444 63.7556C39.6278 61.4443 36.3099 59.8234 32.7556 59.0222C45.9556 64.5556 52.5556 36.6 38.0889 37.0222C3.46667 37.7778 5.04445 32.0667 5.86667 69.3556C3.64445 84.9111 19.0667 76.5111 27.6889 80.0667C31.8667 91.0222 14.3556 86.3333 9.04445 82.0444H9.11111C-27.3778 120 79.2222 118.133 42.4444 63.7556V63.7556Z" fill="#559A4B"/>
<path d="M41.3333 62.6444C38.5167 60.3332 35.1988 58.7123 31.6444 57.9111C44.8444 63.4444 51.4444 35.4889 36.9778 35.9111C2.44445 36.6222 3.93333 30.9556 4.66667 68.2444C2.44445 83.8 17.8667 75.4 26.4889 78.9556C30.6667 89.9111 13.1556 85.2222 7.84445 80.9333C-28.4889 118.911 78.1111 117.022 41.3333 62.6444V62.6444Z" fill="#8CBE54"/>
<path d="M25.7778 36.3556C20.6667 36.3556 2.37777 36.3556 4.62222 47.2444L29.2222 36.2667L25.7778 36.3556Z" fill="#7EB851"/>
<path d="M41.8 36.7556C38.6667 40.1556 -0.84445 50.4667 4.66666 58.8444C5.55555 56.2889 55.0889 41.9778 41.8 36.7556V36.7556Z" fill="#7EB851"/>
<path d="M31.6444 57.9111C37.2222 55.5555 45.2222 56.1333 44.5111 47.2L5.08889 64.8C4.31111 65.1333 5.08889 65.6889 4.66666 70.5333L32.4667 58.1333L31.6444 57.9111Z" fill="#7EB851"/>
<path d="M7.22222 81C6.21933 81.1132 5.27804 81.541 4.53333 82.2222L7.4 80.9333L7.22222 81Z" fill="#7EB851"/>
<path d="M41.3333 62.6444C41.6 57.8667 6.71111 76.6 6.06667 75.9778C9.11111 84.4444 39.1556 65.4444 43.4444 64.8889C42.799 64.088 42.0932 63.3377 41.3333 62.6444Z" fill="#7EB851"/>
<path d="M46.3778 69.6889L26.2 78.5778C27.6553 80.0658 27.7606 82.4097 26.4444 84.0222C29.5556 80.9111 53.3111 77.1555 46.3778 69.6889Z" fill="#7EB851"/>
<path d="M20.0222 86.0889C14.8889 83.4 -1.15556 86.6667 0.711109 95.5555L22.4444 85.8889C21.6441 86.0233 20.8338 86.0902 20.0222 86.0889Z" fill="#7EB851"/>
<path d="M48.5111 80.4889L2.06667 101.111C7.17778 107.778 12.1333 101.311 26.7333 95.6667C42.7556 86.6667 48.8889 90.6889 48.5111 80.4889Z" fill="#7EB851"/>
<path d="M40.5333 100.933C42.93 98.768 44.8259 96.1062 46.0889 93.1333L15.9333 106.667C22.4444 108.889 34.2222 105 40.5333 100.933Z" fill="#7EB851"/>
<path d="M10.8889 50.7333C10.6 53.7111 11.5333 44.0667 28.3556 43.5111C30.9778 43.3778 37.8444 41.4222 27.1111 41.4222C11.8 41.4222 11.8 41.4222 10.8889 50.7333V50.7333Z" fill="white"/>
<path d="M26.2 93.1556C21.6222 91.2444 29.3778 90.2222 31.3333 86.6667C34 80 33.2222 80.2444 34.8667 81.4444C32.9333 84.4889 30.2222 83.6667 33.2222 80.2444C35.4444 85.9111 32.8222 92.5778 26.2 93.1556V93.1556Z" fill="#EAF1D8"/>
<path d="M18.7333 93.7555C18.2444 93.7555 17.7778 93.5778 17.2444 92.1778C17.2444 90.8889 20.9778 89.3555 21.8 92.3111C21.7111 93.1778 20.8222 94 18.7333 93.7555V93.7555Z" fill="#EAF1D8"/>
<defs>
<linearGradient id="paint0_linear_1_1395" x1="23.7333" y1="30" x2="23.7333" y2="0" gradientUnits="userSpaceOnUse">
<stop stop-color="#D35B30"/>
<stop offset="0.07" stop-color="#D97338"/>
<stop offset="0.15" stop-color="#DF893E"/>
<stop offset="0.25" stop-color="#E39A44"/>
<stop offset="0.36" stop-color="#E6A547"/>
<stop offset="0.53" stop-color="#E8AC49"/>
<stop offset="1" stop-color="#E8AE4A"/>
</linearGradient>
<linearGradient id="paint1_linear_1_1395" x1="23.5556" y1="26.2222" x2="23.5556" y2="1.0889" gradientUnits="userSpaceOnUse">
<stop stop-color="#E0922F"/>
<stop offset="0.01" stop-color="#E19630"/>
<stop offset="0.08" stop-color="#E7B138"/>
<stop offset="0.16" stop-color="#ECC73F"/>
<stop offset="0.26" stop-color="#F0D844"/>
<stop offset="0.38" stop-color="#F3E347"/>
<stop offset="0.54" stop-color="#F5EA49"/>
<stop offset="1" stop-color="#F5EC4A"/>
</linearGradient>
<linearGradient id="paint2_linear_1_1395" x1="23.1778" y1="21.4444" x2="23.1778" y2="1.86667" gradientUnits="userSpaceOnUse">
<stop stop-color="#F5EC39"/>
<stop offset="0.07" stop-color="#F5ED44"/>
<stop offset="0.32" stop-color="#F6EF63"/>
<stop offset="0.56" stop-color="#F6F079"/>
<stop offset="0.79" stop-color="#F6F186"/>
<stop offset="1" stop-color="#F6F18B"/>
</linearGradient>
<linearGradient id="paint3_linear_1_1395" x1="22.2889" y1="17.7778" x2="22.2889" y2="5.62223" gradientUnits="userSpaceOnUse">
<stop stop-color="#F4F2AA"/>
<stop offset="0.14" stop-color="#F6F5BA"/>
<stop offset="0.51" stop-color="#FBFAE0"/>
<stop offset="0.81" stop-color="#FEFEF7"/>
<stop offset="1" stop-color="white"/>
</linearGradient>
<linearGradient id="paint4_linear_1_1395" x1="22.0889" y1="120.022" x2="25.9556" y2="120.022" gradientUnits="userSpaceOnUse">
<stop stop-color="#417A3B"/>
<stop offset="0.02" stop-color="#417B3B"/>
<stop offset="0.62" stop-color="#509247"/>
<stop offset="1" stop-color="#559A4B"/>
</linearGradient>
<linearGradient id="paint5_linear_1_1395" x1="12.2222" y1="109.044" x2="35.6889" y2="109.044" gradientUnits="userSpaceOnUse">
<stop stop-color="#417A3B"/>
<stop offset="0.02" stop-color="#417B3B"/>
<stop offset="0.62" stop-color="#509247"/>
<stop offset="1" stop-color="#559A4B"/>
</linearGradient>
<linearGradient id="paint6_linear_1_1395" x1="17.7778" y1="114.622" x2="30.3333" y2="114.622" gradientUnits="userSpaceOnUse">
<stop stop-color="#417A3B"/>
<stop offset="0.02" stop-color="#417B3B"/>
<stop offset="0.62" stop-color="#509247"/>
<stop offset="1" stop-color="#559A4B"/>
</linearGradient>
</defs>
</svg>
