<svg width="53" height="131" viewBox="0 0 53 131" fill="none" xmlns="http://www.w3.org/2000/svg">
<path d="M25.2667 128.889C30.7333 138.044 28.7778 112.044 29.0444 110.911H25.2667V128.889Z" fill="url(#paint0_linear_1_1285)"/>
<path d="M38.9556 109.867C39.4444 111.244 15.2889 112.289 15.3556 109.867C14.8667 108.511 39.0222 107.467 38.9556 109.867Z" fill="url(#paint1_linear_1_1285)"/>
<path d="M27.8 130.689C29.5556 131.089 27.9333 111.867 28.4667 110.978H27.8V130.689Z" fill="#6FB353"/>
<path d="M20.9111 114.044C21.8889 123.511 35.2444 121.2 33.4 110.978H20.9111V114.044Z" fill="url(#paint2_linear_1_1285)"/>
<path d="M24.4444 0C6.97778 28.8889 32.2889 38.6222 32.3778 21.6667C30.2444 16.0222 25.0889 3.26667 24.4444 0V0Z" fill="url(#paint3_linear_1_1285)"/>
<path d="M24.7778 1.0889C23.3333 6.53334 15.5333 14.4222 19.0222 22.7778C21.1333 27.0667 20.7778 26.7111 23.6222 23.0445C24.4 24.0667 25.3111 26.9556 26.5111 26.0667C27.1556 26.5111 27.2 20.2667 28.4444 21.0889C29.6889 21.9111 30.6667 24.4445 31.7111 25.5333C35.1111 23.4667 24.2667 5.04445 24.7778 1.0889V1.0889Z" fill="url(#paint4_linear_1_1285)"/>
<path d="M24.8889 1.84445C22.4667 5.42223 15.3556 24.8222 21.8444 20.9333C24.2444 14.0445 25.4 22.7111 26.8889 17.5333C27.9778 15.7333 30.1333 21.4 30.6 18.7778C30.2667 17.9111 24.0667 4.44445 24.8889 1.84445V1.84445Z" fill="url(#paint5_linear_1_1285)"/>
<path d="M21.4222 10.1556C21.4222 10.4 18.2 19.8445 21.9333 17.3556C23.9111 14.9333 25.9778 13.8 27.8444 15.2445C23.8889 10.5778 26.4889 -0.599991 21.4222 10.1556Z" fill="url(#paint6_linear_1_1285)"/>
<path d="M26.6667 26.6667C24.8667 26.2444 25.5556 29.5111 25.4444 33.6667C25.8889 45.8667 28.7111 28.0222 26.6667 26.6667Z" fill="#825831"/>
<path d="M45.8667 84.6444C43.2 84.8444 40.6667 85.2 36.0222 85.5333C82.2222 27.8889 -8.88889 25.0222 2.22222 56.7556C3.95556 69.6889 10.0222 62.0222 20.3333 57.8667C38.1111 53.4222 17.6889 84.8889 7.35556 86.7556C0.133333 88.6444 1.64444 94.4222 2.91111 101.133C5.68889 112.244 21.2222 104.889 33.8444 106.8C40.3778 105.978 44.9556 110.222 50.5556 104.578C53.0667 99.8222 53.8889 85.4 45.8667 84.6444Z" fill="#CD307B"/>
<path d="M44.7556 83.5333C42.0889 83.7333 39.5556 84.0889 34.9111 84.4222C81.1556 26.7778 -10.0222 23.9111 1.15555 55.5556C2.88889 68.4889 8.95555 60.8222 19.2667 56.6667C37.0444 52.2222 16.6222 83.6889 6.28889 85.5556C-0.933335 87.4445 0.577776 93.2222 1.84444 99.9333C4.62222 111.044 20.1556 103.689 32.7778 105.6C39.3111 104.778 43.8889 109.022 49.4889 103.378C51.9556 98.7111 52.7778 84.2889 44.7556 83.5333V83.5333Z" fill="#D676A9"/>
<path d="M29.2444 35.5555C26.6667 38.3111 -5.71111 46.4889 0.888887 53.7778L36.4444 37.9333C34.1865 36.7621 31.7558 35.9594 29.2444 35.5555V35.5555Z" fill="#D365A0"/>
<path d="M41.6 41.7111L1.8 59.4889C2.22222 69.0666 40.4444 46.2666 44.8222 45.8222C43.9273 44.3204 42.8445 42.9389 41.6 41.7111V41.7111Z" fill="#D365A0"/>
<path d="M46.9778 50.9555C40.3111 54.8222 25.8222 57.0666 24.3556 66.6222C27.9111 63.1778 52.7778 58.9778 46.9778 50.9555V50.9555Z" fill="#D365A0"/>
<path d="M47.4889 62.4C38.5778 66.5111 15.2889 74.7333 10.4444 84.4444C15.1333 80.9111 49.6222 71.4667 47.4889 62.4V62.4Z" fill="#D365A0"/>
<path d="M8.02222 85.3333C5.81783 85.5812 3.76782 86.5865 2.22222 88.1777L9.02222 85.1111L8.02222 85.3333Z" fill="#D365A0"/>
<path d="M34.9111 84.4444C37.0222 81.9111 38.8444 79.5111 40.4444 77.2222L1.02222 94.8L1.86667 100L37.0889 84.2666L34.9111 84.4444Z" fill="#D365A0"/>
<path d="M48.6889 85.1778L4.68889 104.822C13.7333 109.044 21.5333 102.222 39.5556 94.8C48.3556 89.3555 53.9111 92.8 48.6889 85.1778V85.1778Z" fill="#D365A0"/>
<path d="M50.6222 99.5555C50.6222 98.7778 50.6222 97.5333 50.6222 95.9333L28.8889 105.711C35.5556 105.867 48.2667 106.844 50.6222 99.5555Z" fill="#D365A0"/>
<path d="M22.4444 43.1111C39.9778 44.4889 39.4889 54.2222 43.3333 55.8222C44.4667 56.3111 46.6667 52.2889 38.0222 45.4222C27.1556 36.7111 18.0444 42.7111 22.4444 43.1111V43.1111Z" fill="white"/>
<path d="M33.3333 59.8667C30.6 63.8667 31.3333 57.0222 28.1778 53.5556C22.2222 49.5111 22.2222 50.2889 23.8 48.8889C26.3556 51.4667 24.8889 53.9111 22.2667 50.2444C28.2444 49.2667 34.1556 53.3333 33.3333 59.8667Z" fill="#FFF22D"/>
<path d="M32.2222 67.2889C32.123 67.6891 31.8668 68.0325 31.5114 68.2416C31.156 68.4506 30.7313 68.5077 30.3333 68.4C29.0889 68.1556 28.4222 64.1333 31.4889 63.9556C32.2889 64.2445 32.9111 65.2889 32.2222 67.2889Z" fill="#FFF22D"/>
<path d="M21.9778 98.3555C22.4667 98.3555 22.9333 98.4667 23.5556 99.8667C23.6889 101.133 19.9778 102.889 19.1111 99.9778C19.0444 99.1333 19.8667 98.2444 21.9778 98.3555V98.3555Z" fill="#FFF22D"/>
<path d="M45.2222 97.7778C46.0444 97.7778 45.2222 97.7778 46.7556 99.2222C46.8667 100.844 27.7111 103.067 26.9333 99.7555C25.5333 97.3333 44.5778 98.1111 45.2222 97.7778Z" fill="#FFF22D"/>
<defs>
<linearGradient id="paint0_linear_1_1285" x1="25.2667" y1="120.933" x2="29.1778" y2="120.933" gradientUnits="userSpaceOnUse">
<stop stop-color="#B46391"/>
<stop offset="0.06" stop-color="#B76593"/>
<stop offset="0.64" stop-color="#CE71A5"/>
<stop offset="1" stop-color="#D676AB"/>
</linearGradient>
<linearGradient id="paint1_linear_1_1285" x1="15.3333" y1="109.867" x2="38.9778" y2="109.867" gradientUnits="userSpaceOnUse">
<stop stop-color="#B46391"/>
<stop offset="0.06" stop-color="#B76593"/>
<stop offset="0.64" stop-color="#CE71A5"/>
<stop offset="1" stop-color="#D676AB"/>
</linearGradient>
<linearGradient id="paint2_linear_1_1285" x1="20.9111" y1="115.511" x2="33.5778" y2="115.511" gradientUnits="userSpaceOnUse">
<stop stop-color="#B46391"/>
<stop offset="0.06" stop-color="#B76593"/>
<stop offset="0.64" stop-color="#CE71A5"/>
<stop offset="1" stop-color="#D676AB"/>
</linearGradient>
<linearGradient id="paint3_linear_1_1285" x1="25.4222" y1="29.9778" x2="25.4222" y2="0" gradientUnits="userSpaceOnUse">
<stop stop-color="#D35B30"/>
<stop offset="0.07" stop-color="#D97338"/>
<stop offset="0.15" stop-color="#DF893E"/>
<stop offset="0.25" stop-color="#E39A44"/>
<stop offset="0.36" stop-color="#E6A547"/>
<stop offset="0.53" stop-color="#E8AC49"/>
<stop offset="1" stop-color="#E8AE4A"/>
</linearGradient>
<linearGradient id="paint4_linear_1_1285" x1="25.2444" y1="26.2222" x2="25.2444" y2="1.0889" gradientUnits="userSpaceOnUse">
<stop stop-color="#E0922F"/>
<stop offset="0.01" stop-color="#E19630"/>
<stop offset="0.08" stop-color="#E7B138"/>
<stop offset="0.16" stop-color="#ECC73F"/>
<stop offset="0.26" stop-color="#F0D844"/>
<stop offset="0.38" stop-color="#F3E347"/>
<stop offset="0.54" stop-color="#F5EA49"/>
<stop offset="1" stop-color="#F5EC4A"/>
</linearGradient>
<linearGradient id="paint5_linear_1_1285" x1="24.8889" y1="21.4445" x2="24.8889" y2="1.84445" gradientUnits="userSpaceOnUse">
<stop stop-color="#F5EC39"/>
<stop offset="0.07" stop-color="#F5ED44"/>
<stop offset="0.32" stop-color="#F6EF63"/>
<stop offset="0.56" stop-color="#F6F079"/>
<stop offset="0.79" stop-color="#F6F186"/>
<stop offset="1" stop-color="#F6F18B"/>
</linearGradient>
<linearGradient id="paint6_linear_1_1285" x1="23.9778" y1="17.7778" x2="23.9778" y2="5.62223" gradientUnits="userSpaceOnUse">
<stop stop-color="#F4F2AA"/>
<stop offset="0.14" stop-color="#F6F5BA"/>
<stop offset="0.51" stop-color="#FBFAE0"/>
<stop offset="0.81" stop-color="#FEFEF7"/>
<stop offset="1" stop-color="white"/>
</linearGradient>
</defs>
</svg>
