<svg width="52" height="129" viewBox="0 0 52 129" fill="none" xmlns="http://www.w3.org/2000/svg">
<g clip-path="url(#clip0_1_1474)">
<path d="M23.5111 0C22.4222 6.66667 16.6445 16.9778 18.2 25.4222C19.6222 30.4889 29.3111 32.7778 30.9111 24.8C29.5326 16.2469 27.0449 7.91 23.5111 0Z" fill="url(#paint0_linear_1_1474)"/>
<path d="M23.6445 1.46667C21.6667 7.37779 15.4222 23.6889 19.8445 26.2667C21.8889 19.6 22.7556 27.5556 24.7556 26.4222C25.4 26.8667 25.4445 20.6222 26.6889 21.4445C27.9333 22.2667 28.9111 24.7778 29.9333 25.8889C33.1333 21.1778 24.1778 5.60001 23.6445 1.46667V1.46667Z" fill="url(#paint1_linear_1_1474)"/>
<path d="M23.6445 1.46667C22.3333 3.6889 14.7556 29.6 22.0667 18.1333C25.3111 23.3556 24 14.2222 27.8445 19.6222C31.8222 21.0889 23.6222 2.00001 23.6445 1.46667V1.46667Z" fill="url(#paint2_linear_1_1474)"/>
<path d="M22.6444 8.26667C22.2222 9.71112 17.6 21.7778 23.0444 15.5556C23.9333 14.7778 27.7778 16.9111 26.5111 13.0889C24.7111 10.4667 24.4444 1.00001 22.6444 8.26667V8.26667Z" fill="url(#paint3_linear_1_1474)"/>
<path d="M24.9556 27.0444C23.1556 26.6 23.8222 29.8667 23.7333 34.0444C24.1556 45.9778 26.9556 28.6889 24.9556 27.0444V27.0444Z" fill="#825831"/>
<path d="M29.3111 57.9333C33.5333 63.3555 28.6222 73.7333 21.2 65.5333C19.4 60 22.8222 51.7333 29.3111 57.9333V57.9333ZM7.44445 80.5555C9.63814 83.0239 12.432 84.8839 15.5556 85.9555C4.93334 85.5778 6.24445 101 14.3111 106.467C22.1111 108.267 30.6 104.089 37.1556 98.8667C60.1111 80.9111 55.4222 30.2444 20.5778 35.9333C1.15556 38.8444 -4.71111 66.2 7.44445 80.5555V80.5555Z" fill="#518FC6"/>
<path d="M28.2 56.8222C32.4222 62.2222 27.5111 72.6222 20 64.4445C18.2889 58.8 21.7111 50.6222 28.2 56.8222V56.8222ZM6.33334 79.4445C8.52703 81.9128 11.3209 83.7728 14.4444 84.8445C3.82222 84.4445 5.13334 100 13.2 105.356C21 107.156 29.4889 102.978 36.0444 97.7556C59 79.8 54.3111 29.1333 19.4667 34.8222C1.90735e-06 37.7778 -5.82222 65.0889 6.33334 79.4445V79.4445Z" fill="#5FA7D9"/>
<path d="M8.44446 40.3555L21.4445 34.5555C16.5949 35.0207 12.0301 37.0573 8.44446 40.3555V40.3555Z" fill="#7084C0"/>
<path d="M32.8 35.5555C28.3556 39.0667 -1.75556 46.6667 0.6 55.5555L38.5778 38.6C36.8207 37.2928 34.8716 36.2658 32.8 35.5555V35.5555Z" fill="#7084C0"/>
<path d="M20.9778 56.0222C23.0222 56.0222 42.7778 49.3555 45.7778 47C43.2222 40.3333 39.7333 44.4 28.4222 49.2222C11.1111 58.8666 -2.55555 57.7778 0.444451 67.2444C2.82223 65.4666 21.6222 59.6889 20.9778 56.0222V56.0222Z" fill="#7084C0"/>
<path d="M48 52.1111L29.5111 60.3778C31.7333 64.2666 24.7556 71.4889 20.1556 64.5555C17.1111 67.6889 -3.84444 70.3333 4.44445 77.1111C4.44445 77.1111 44.9778 59.0444 49.0444 57.1111C49.7333 57 49.1333 56.4889 48 52.1111V52.1111Z" fill="#7084C0"/>
<path d="M50.1334 66C50.1334 64.9333 50.1334 63.8889 50.1334 62.8666L8.42224 81.4444C12.5556 84.5777 13.9334 85.1111 17.5778 82.9111C29.2889 76.0666 51.8 71.1111 50.1334 66V66Z" fill="#7084C0"/>
<path d="M8.48889 86.9555L13.0444 84.9333C11.3116 84.9485 9.6625 85.6806 8.48889 86.9555Z" fill="#7084C0"/>
<path d="M49.2444 74.8889L7.53333 93.4889C6.19999 93.8889 6.9111 93.3111 8.35555 98.6667C13.9778 93.9556 50.9111 85.3556 49.2444 74.8889V74.8889Z" fill="#7084C0"/>
<path d="M40 93.8667C41.2693 92.3647 42.442 90.7838 43.5111 89.1333L10.7333 103.711C17.2667 108.889 33.9556 100.333 40 93.8667Z" fill="#7084C0"/>
<path d="M21.5111 41.4667C39.0222 42.9556 38.5111 52.5778 42.3556 54.2C43.5556 54.7333 45.7333 50.7111 37.0667 43.8C26.2 35.1556 17.0889 41.1333 21.5111 41.4667Z" fill="white"/>
<path d="M28.8889 75.7556C24.3111 73.8445 32.0667 72.8222 33.9333 69.3334C36.6 62.7778 35.8222 62.9334 37.4667 64.1111C35.5333 67.1778 32.8222 66.3333 35.8222 62.9333C38.1778 68.5111 35.5556 75.1778 28.8889 75.7556V75.7556Z" fill="#FFFDE3"/>
<path d="M21.4667 76.3555C20.9778 76.3555 20.5111 76.1778 19.9778 74.7778C19.9778 73.4889 23.7111 71.9555 24.4222 74.9111C24.4445 75.7555 23.5556 76.6 21.4667 76.3555Z" fill="#FFFDE3"/>
<path d="M20.9333 126.822C26.5111 136.2 24.5333 109.6 24.8 108.422H20.9333V126.822Z" fill="url(#paint4_linear_1_1474)"/>
<path d="M34.9556 107.311C35.4445 108.711 10.7111 109.778 10.7778 107.311C10.2889 105.911 35 104.844 34.9556 107.311Z" fill="url(#paint5_linear_1_1474)"/>
<path d="M23.5333 128.6C25.3333 129.022 23.6667 109.356 24.2 108.422H23.5333V128.6Z" fill="#F5EC4A"/>
<path d="M16.4889 111.578C17.4889 121.267 31.1333 118.911 29.2444 108.422H16.4889V111.578Z" fill="url(#paint6_linear_1_1474)"/>
</g>
<defs>
<linearGradient id="paint0_linear_1_1474" x1="24.4222" y1="30.0222" x2="24.4222" y2="0" gradientUnits="userSpaceOnUse">
<stop stop-color="#D35B30"/>
<stop offset="0.07" stop-color="#D97338"/>
<stop offset="0.15" stop-color="#DF893E"/>
<stop offset="0.25" stop-color="#E39A44"/>
<stop offset="0.36" stop-color="#E6A547"/>
<stop offset="0.53" stop-color="#E8AC49"/>
<stop offset="1" stop-color="#E8AE4A"/>
</linearGradient>
<linearGradient id="paint1_linear_1_1474" x1="24.4445" y1="26.5333" x2="24.4445" y2="1.46667" gradientUnits="userSpaceOnUse">
<stop stop-color="#E0922F"/>
<stop offset="0.01" stop-color="#E19630"/>
<stop offset="0.08" stop-color="#E7B138"/>
<stop offset="0.16" stop-color="#ECC73F"/>
<stop offset="0.26" stop-color="#F0D844"/>
<stop offset="0.38" stop-color="#F3E347"/>
<stop offset="0.54" stop-color="#F5EA49"/>
<stop offset="1" stop-color="#F5EC4A"/>
</linearGradient>
<linearGradient id="paint2_linear_1_1474" x1="23.9333" y1="21.0445" x2="23.9333" y2="1.46667" gradientUnits="userSpaceOnUse">
<stop stop-color="#F5EC39"/>
<stop offset="0.07" stop-color="#F5ED44"/>
<stop offset="0.32" stop-color="#F6EF63"/>
<stop offset="0.56" stop-color="#F6F079"/>
<stop offset="0.79" stop-color="#F6F186"/>
<stop offset="1" stop-color="#F6F18B"/>
</linearGradient>
<linearGradient id="paint3_linear_1_1474" x1="23.6" y1="17.2889" x2="23.6" y2="5.57779" gradientUnits="userSpaceOnUse">
<stop stop-color="#F4F2AA"/>
<stop offset="0.14" stop-color="#F6F5BA"/>
<stop offset="0.51" stop-color="#FBFAE0"/>
<stop offset="0.81" stop-color="#FEFEF7"/>
<stop offset="1" stop-color="white"/>
</linearGradient>
<linearGradient id="paint4_linear_1_1474" x1="20.9333" y1="118.622" x2="24.9333" y2="118.622" gradientUnits="userSpaceOnUse">
<stop stop-color="#4F8AB3"/>
<stop offset="0.15" stop-color="#5290BB"/>
<stop offset="0.67" stop-color="#5CA2D2"/>
<stop offset="1" stop-color="#5FA8DA"/>
</linearGradient>
<linearGradient id="paint5_linear_1_1474" x1="10.7778" y1="107.311" x2="34.9556" y2="107.311" gradientUnits="userSpaceOnUse">
<stop stop-color="#4F8AB3"/>
<stop offset="0.15" stop-color="#5290BB"/>
<stop offset="0.67" stop-color="#5CA2D2"/>
<stop offset="1" stop-color="#5FA8DA"/>
</linearGradient>
<linearGradient id="paint6_linear_1_1474" x1="16.4889" y1="113.067" x2="29.4222" y2="113.067" gradientUnits="userSpaceOnUse">
<stop stop-color="#4F8AB3"/>
<stop offset="0.15" stop-color="#5290BB"/>
<stop offset="0.67" stop-color="#5CA2D2"/>
<stop offset="1" stop-color="#5FA8DA"/>
</linearGradient>
<clipPath id="clip0_1_1474">
<rect width="52" height="129" fill="white"/>
</clipPath>
</defs>
</svg>
