<svg width="52" height="130" viewBox="0 0 52 130" fill="none" xmlns="http://www.w3.org/2000/svg">
<g clip-path="url(#clip0_1_1370)">
<path d="M25.5555 0C24.4444 6.66667 18.6889 16.9778 20.2667 25.4C21.6667 30.4889 31.3778 32.7778 32.9778 24.8C31.5823 16.2481 29.0876 7.91243 25.5555 0V0Z" fill="url(#paint0_linear_1_1370)"/>
<path d="M25.6889 1.46667C23.7111 7.37779 17.4667 23.6889 21.8889 26.2667C23.9333 19.6 24.8222 27.5556 26.8222 26.4222C27.4444 26.8667 27.5111 20.6222 28.7333 21.4445C29.9556 22.2667 30.9556 24.7778 32 25.8889C35.1778 21.1778 26.2444 5.60001 25.6889 1.46667V1.46667Z" fill="url(#paint1_linear_1_1370)"/>
<path d="M25.6889 1.46667C24.3778 3.6889 16.8 29.6 24.1111 18.1333C27.3556 23.3556 26.0444 14.2222 29.8889 19.6222C33.8889 21.0889 25.6667 2.00001 25.6889 1.46667V1.46667Z" fill="url(#paint2_linear_1_1370)"/>
<path d="M24.7111 8.26667C24.3111 9.71112 19.6444 21.7778 25.0889 15.4667C25.9778 14.6889 29.8222 16.8222 28.5778 13C26.7778 10.4667 26.5111 1 24.7111 8.26667Z" fill="url(#paint3_linear_1_1370)"/>
<path d="M27 27.0444C25.2 26.6 25.8889 29.8667 25.7778 34.0444C26.2667 46.0222 29 28.6667 27 27.0444V27.0444Z" fill="#825831"/>
<path d="M24.6444 127.622C30.2222 136.978 28.2222 110.4 28.5111 109.222H24.6444V127.622Z" fill="url(#paint4_linear_1_1370)"/>
<path d="M38.6667 108.089C39.1555 109.489 14.4222 110.556 14.4889 108.089C14 106.711 38.7111 105.644 38.6667 108.089Z" fill="url(#paint5_linear_1_1370)"/>
<path d="M27.2444 129.4C29.0222 129.8 27.3778 110.133 27.9111 109.222H27.2444V129.4Z" fill="#F5EC4A"/>
<path d="M20.1778 112.378C21.2 122.044 34.8444 119.689 32.9556 109.222H20.1778V112.378Z" fill="url(#paint6_linear_1_1370)"/>
<path d="M23.4889 84.1333C19.2889 78.6444 24.0889 68.4222 31.5778 76.5333C33.3333 82.2222 29.9556 90.4 23.4889 84.1333ZM45.3333 61.4889C43.1116 59.0374 40.3062 57.1875 37.1778 56.1111C47.4889 55.8444 46.4 44.3111 40.2222 36.5111C22.0444 29.5778 3.73334 51.8 1.91112 69.2C-3.28888 131.978 74.5556 106.222 45.3333 61.4889V61.4889Z" fill="#518FC6"/>
<path d="M22.3778 83.0222C18.1778 77.5333 22.9778 67.3111 30.4667 75.4222C32.2889 81.0667 28.8889 89.2889 22.3778 83.0222ZM44.2222 60.3778C42.0005 57.9263 39.1951 56.0764 36.0667 55C46.3778 54.7333 45.2889 43.2 39.1111 35.4C20.9333 28.4667 2.62222 50.6889 0.8 68.0889C-4.44444 130.867 73.4444 105.111 44.2222 60.3778V60.3778Z" fill="#5FA7D9"/>
<path d="M35.4 34.1333C24.5305 34.3706 14.4537 39.8731 8.37778 48.8889L38.8667 35.2889C37.8622 34.5472 36.6486 34.1427 35.4 34.1333V34.1333Z" fill="#7084C0"/>
<path d="M43.1111 44C42.8222 43.0444 42.4 41.7778 41.8444 40.0222C36.9111 43.8444 -0.577779 54.2667 1.64444 63.5111C1.66667 62.6444 45.4667 45.6667 43.1111 44Z" fill="#7084C0"/>
<path d="M36.0667 55C39.0201 55.2481 41.8393 53.7207 43.2444 51.1111C40.2667 54.6222 -5.31111 67.0444 0.51111 75.6889L41.0444 57.6C39.5282 56.4834 37.8493 55.6065 36.0667 55V55Z" fill="#7084C0"/>
<path d="M20.7778 76.5556C20.1111 71.1111 28.8889 73.3333 30.4222 74L48.2 66.1111C45.6667 58 40.3111 65.1333 26.4667 70.2444C10.0444 79.4444 -1.86666 77.7778 2.22223 86.6667C2.62223 85.1778 23.1778 79.8 20.7778 76.5556V76.5556Z" fill="#7084C0"/>
<path d="M49.8444 71.4445L30.9333 79.8667C29.5111 80.4889 32.0444 84.8667 25.6667 85.1556C23.9778 81.3556 6.13333 91.2667 4.24445 91.8222C7.04445 99.4889 9.93333 94.0445 21.6444 89.6C38.9778 79.8445 53.3333 80.7111 49.8444 71.4445Z" fill="#7084C0"/>
<path d="M50.1333 82.9556L10.9556 100.444C15.9778 105.622 19.4889 102.044 31.6667 96.7556C46.1555 88.7111 48.5778 93.7333 50.1333 82.9556V82.9556Z" fill="#7084C0"/>
<path d="M43.7555 97.7778C43.8889 97.6222 44 97.4444 44.1333 97.3111L25.7778 105.489C32.6205 105.728 39.2128 102.901 43.7555 97.7778V97.7778Z" fill="#7084C0"/>
<path d="M36.2 43.7778C18.6889 45.1778 19.1778 54.8889 15.3556 56.5111C14.1556 57.0667 11.9778 52.9555 20.6222 46.0889C31.4889 37.4444 40.6 43.4222 36.2 43.7778Z" fill="white"/>
<path d="M29.5333 92.6C24.9556 90.6889 32.7111 89.6667 34.5556 86.1778C37.2222 79.5111 36.4444 79.7556 38.1111 80.9556C36.1556 84 33.4667 83.1778 36.4444 79.7556C38.7778 85.3556 36.1556 92.0222 29.5333 92.6V92.6Z" fill="#FFF22D"/>
<path d="M22.0444 93.2C21.5556 93.2 21.1111 93.0222 20.5556 91.6222C20.5556 90.3333 24.3111 88.8 25.1111 91.7556C25.0444 92.6 24.1556 93.4444 22.0444 93.2V93.2Z" fill="#FFF22D"/>
</g>
<defs>
<linearGradient id="paint0_linear_1_1370" x1="26.4889" y1="30.0222" x2="26.4889" y2="0" gradientUnits="userSpaceOnUse">
<stop stop-color="#D35B30"/>
<stop offset="0.07" stop-color="#D97338"/>
<stop offset="0.15" stop-color="#DF893E"/>
<stop offset="0.25" stop-color="#E39A44"/>
<stop offset="0.36" stop-color="#E6A547"/>
<stop offset="0.53" stop-color="#E8AC49"/>
<stop offset="1" stop-color="#E8AE4A"/>
</linearGradient>
<linearGradient id="paint1_linear_1_1370" x1="26.5111" y1="26.5333" x2="26.5111" y2="1.46667" gradientUnits="userSpaceOnUse">
<stop stop-color="#E0922F"/>
<stop offset="0.01" stop-color="#E19630"/>
<stop offset="0.08" stop-color="#E7B138"/>
<stop offset="0.16" stop-color="#ECC73F"/>
<stop offset="0.26" stop-color="#F0D844"/>
<stop offset="0.38" stop-color="#F3E347"/>
<stop offset="0.54" stop-color="#F5EA49"/>
<stop offset="1" stop-color="#F5EC4A"/>
</linearGradient>
<linearGradient id="paint2_linear_1_1370" x1="25.9778" y1="21.0445" x2="25.9778" y2="1.46667" gradientUnits="userSpaceOnUse">
<stop stop-color="#F5EC39"/>
<stop offset="0.07" stop-color="#F5ED44"/>
<stop offset="0.32" stop-color="#F6EF63"/>
<stop offset="0.56" stop-color="#F6F079"/>
<stop offset="0.79" stop-color="#F6F186"/>
<stop offset="1" stop-color="#F6F18B"/>
</linearGradient>
<linearGradient id="paint3_linear_1_1370" x1="25.6444" y1="17.2889" x2="25.6444" y2="5.57778" gradientUnits="userSpaceOnUse">
<stop stop-color="#F4F2AA"/>
<stop offset="0.14" stop-color="#F6F5BA"/>
<stop offset="0.51" stop-color="#FBFAE0"/>
<stop offset="0.81" stop-color="#FEFEF7"/>
<stop offset="1" stop-color="white"/>
</linearGradient>
<linearGradient id="paint4_linear_1_1370" x1="24.6444" y1="119.422" x2="28.6444" y2="119.422" gradientUnits="userSpaceOnUse">
<stop stop-color="#4F8AB3"/>
<stop offset="0.15" stop-color="#5290BB"/>
<stop offset="0.67" stop-color="#5CA2D2"/>
<stop offset="1" stop-color="#5FA8DA"/>
</linearGradient>
<linearGradient id="paint5_linear_1_1370" x1="14.4889" y1="108.089" x2="38.6667" y2="108.089" gradientUnits="userSpaceOnUse">
<stop stop-color="#4F8AB3"/>
<stop offset="0.15" stop-color="#5290BB"/>
<stop offset="0.67" stop-color="#5CA2D2"/>
<stop offset="1" stop-color="#5FA8DA"/>
</linearGradient>
<linearGradient id="paint6_linear_1_1370" x1="20.1778" y1="113.867" x2="33.1333" y2="113.867" gradientUnits="userSpaceOnUse">
<stop stop-color="#4F8AB3"/>
<stop offset="0.15" stop-color="#5290BB"/>
<stop offset="0.67" stop-color="#5CA2D2"/>
<stop offset="1" stop-color="#5FA8DA"/>
</linearGradient>
<clipPath id="clip0_1_1370">
<rect width="52" height="130" fill="white"/>
</clipPath>
</defs>
</svg>
