<svg width="81" height="113" viewBox="0 0 81 113" fill="none" xmlns="http://www.w3.org/2000/svg">
<path opacity="0.15" d="M74.5899 57.0951C59.5754 54.1049 61.726 66.621 62.9965 37.6436C63.3818 29.3577 64.2689 14.911 61.7229 8.51711C59.833 3.48086 51.5349 2.5602 45.507 3.93815C37.8517 5.3891 29.9359 10.6778 27.0279 14.1881C16.8469 25.5148 3.53485 50.2073 1.19265 65.9133C0.341951 71.0915 1.10139 75.7577 4.23447 80.8183C15.0512 97.5118 37.7199 78.8127 36.0611 88.22C33.4776 105.379 33.2727 112.423 53.3052 112.265C68.2426 111.352 62.9052 101.028 62.2117 88.6915C61.7463 79.1381 76.276 92.4431 78.5564 74.6991C79.7001 68.3965 79.7711 58.7843 74.5899 57.0951V57.0951ZM33.4056 49.7125C39.6525 40.4999 41.0689 52.1146 39.4527 54.4395C35.4071 57.015 29.5161 56.0172 33.4056 49.7125Z" fill="black"/>
<path d="M75.9242 54.5501C69.1987 52.5567 64.5954 56.7706 63.181 53.601C61.7665 50.4314 67.4304 9.37491 61.4106 3.709C55.8776 -1.49961 42.2968 0.524214 32.0307 8.66414C21.7645 16.8041 -0.536125 56.4543 3.71229 70.9678C7.96071 85.4814 18.9336 84.7716 25.6591 83.3562C32.3845 81.9407 38.4023 79.4576 38.4023 84.0659C38.4023 88.6743 34.8606 99.997 39.4639 104.598C44.0672 109.2 60.7029 109.907 63.5338 104.598C66.3648 99.2892 61.4106 85.1306 63.5338 82.2976C65.657 79.4646 72.0286 81.9417 75.9242 79.4646C79.8198 76.9876 82.6497 56.5455 75.9242 54.5501ZM41.5769 51.6634C40.1179 53.3678 34.5118 53.9366 33.1855 51.6634C31.8593 49.3901 35.619 41.5311 39.8177 42.2925C42.4712 42.7752 43.036 49.9579 41.5769 51.6634Z" fill="#D6B9DF"/>
<path d="M52.706 109.073C22.1863 108.971 45.6986 79.8266 34.2522 82.2479C21.3924 85.1113 11.3676 87.9909 4.7749 75.7871C-5.46185 59.705 22.5665 15.4717 30.8271 8.68543C37.3163 3.22536 47.8613 -1.59898 57.3103 0.680362C61.0618 1.7957 62.7115 3.49405 63.4385 5.67403C66.2776 15.5417 64.5893 29.6548 64.3085 38.5257C63.6656 51.0175 63.0147 54.0238 64.997 54.0674C69.3133 53.6172 75.8461 51.9686 78.4986 55.487C82.6253 61.0393 80.2598 73.9934 78.0119 78.0634C73.5962 85.8109 61.5688 76.1369 63.9577 87.9098C65.6712 101.973 68.0408 108.695 52.706 109.073V109.073ZM35.4568 80.6479C43.1627 80.291 35.9708 94.4375 38.2269 100.553C39.111 109.052 60.2862 109.28 62.8656 104.237C65.1541 99.8905 61.8943 89.451 62.2765 83.8793C62.5929 77.6264 72.7962 81.5625 75.8289 78.5704C77.7452 76.7037 79.4791 69.2847 79.1749 63.1331C78.7298 49.0697 67.1901 57.3374 63.545 55.1716C60.9716 54.0117 62.6598 45.2806 62.8281 37.8586C64.3987 9.98125 63.183 4.34982 58.4134 2.66566C52.416 0.434988 46.6193 1.9559 41.143 4.1156C29.1572 9.13562 23.8228 18.8147 15.9455 32.3235C4.56704 53.5574 -3.43093 75.708 15.033 82.7488C21.9764 84.7868 30.8809 80.653 35.4568 80.6479V80.6479ZM36.9645 53.9204C26.3455 54.1445 35.9313 37.9843 41.1835 42.1658C43.4639 44.4036 43.4365 49.2715 42.603 51.415C42.0342 53.0951 39.1556 53.9295 36.9645 53.9204V53.9204ZM39.2459 42.9982C35.907 42.9465 32.3511 50.2702 34.1762 51.6684C45.3802 55.855 41.2869 41.9194 39.2438 42.9982H39.2459Z" fill="#B28BBC"/>
<path d="M51.1293 106.738C49.8933 106.573 47.9739 106.869 47.403 105.972C46.5463 103.851 54.4743 105.45 51.1293 106.738ZM55.6474 106.332C52.3764 105.289 60.8804 102.378 59.0238 105.122C58.1559 105.748 56.9392 106.064 55.6474 106.335V106.332ZM43.7731 105.146C42.6943 104.873 41.4755 103.896 40.7546 103.194C39.3098 99.8885 46.7785 104.724 43.7731 105.146ZM60.926 101.756C59.7011 101.582 60.3754 100.115 60.2 99.1655C59.8522 97.7227 60.5772 96.4674 61.5779 97.7004C61.7686 98.908 62.1234 101.742 60.926 101.756ZM39.5379 99.3288C37.3072 98.8877 39.7133 91.6228 40.2649 96.1795C40.0063 97.309 40.8499 99.1371 39.5379 99.3288ZM60.2122 94.2296C59.1485 94.3229 58.2542 88.947 59.979 89.7744C60.8003 90.2023 61.4532 94.5308 60.2122 94.2296ZM40.2375 91.8083C38.8667 91.5802 39.8066 89.9508 39.8836 88.8547C39.8715 87.4494 41.0091 86.6332 41.5516 87.998C41.3498 89.2076 41.2515 91.8094 40.2416 91.8083H40.2375ZM59.1425 86.7265C57.87 86.6737 58.309 83.2791 58.5341 82.4973C59.3158 81.6578 60.1321 82.5521 59.8654 83.5447C59.6494 84.6479 60.4383 86.5703 59.1465 86.7265H59.1425ZM41.2738 84.3102C40.6106 84.1936 40.4859 83.8499 40.492 82.9495C38.7602 75.5701 44.0804 82.9881 41.2738 84.3102ZM19.4152 81.4114C16.1422 80.1947 20.8459 79.6127 22.2542 79.71C24.6015 81.2167 20.5569 81.4976 19.4152 81.4114ZM14.676 80.5881C13.7037 80.4481 9.44816 78.256 12.124 77.6152C13.0355 78.183 17.1217 79.7252 14.676 80.5881ZM26.6223 80.437C23.618 79.2274 29.9937 77.6781 30.2644 78.7062C30.9924 80.1744 27.5349 80.1014 26.6223 80.437ZM60.7921 79.5518C57.4259 78.1232 66.6101 74.4649 63.2783 77.894C62.238 78.1911 61.8294 79.2091 60.7982 79.5518H60.7921ZM34.0656 79.0388C30.4155 76.9693 40.5498 76.7138 37.2089 78.986C36.1929 78.986 35.2986 78.8715 34.0717 79.0388H34.0656ZM69.4999 77.2978C66.816 77.7825 65.7767 75.5853 68.6796 75.7769C72.7567 75.3044 72.0702 77.602 69.506 77.2978H69.4999ZM9.03549 75.7495C7.88061 75.712 5.68035 70.1901 8.34398 71.8185C8.72725 73.0849 10.7926 75.5386 9.03549 75.7495ZM74.6314 75.2345C72.8864 75.0367 75.0684 72.2302 75.4548 71.1645C78.093 69.962 75.5673 75.3936 74.6314 75.2345ZM6.6071 68.6225C5.44613 68.5607 5.51508 65.5736 5.79594 64.4258C7.12826 63.2933 7.2621 65.016 7.16983 66.2114C7.11914 66.9982 7.87148 68.4492 6.6071 68.6225V68.6225ZM77.0842 68.1095C76.1321 67.9858 76.3237 67.1533 76.49 66.2256C76.5316 64.8375 76.851 62.3969 78.1701 64.1774C78.1569 65.3698 78.1305 68.1561 77.0842 68.1095ZM7.14246 61.1133C5.67123 60.8639 6.86058 58.8907 7.00862 57.8302C7.09784 56.5546 8.44233 56.1936 8.67148 57.4307C8.27604 58.8167 8.06717 61.1457 7.14246 61.1143V61.1133ZM76.9949 60.5952C75.4537 59.8195 76.3714 58.7326 74.4915 58.472C72.7972 54.9232 80.0499 59.126 76.9949 60.5962V60.5952ZM67.4122 59.3298C64.5093 58.0279 70.2999 56.9389 71.0086 57.6801C72.0905 59.3602 68.2507 59.0692 67.4122 59.3308V59.3298ZM62.889 59.276C61.6814 59.0935 60.4261 58.3341 59.7539 57.4246C59.2702 55.3693 61.1146 56.4836 61.8416 57.2999C63.0532 57.7227 64.6593 58.5592 62.889 59.277V59.276ZM9.31432 53.8474C7.64233 53.6446 9.51103 50.692 9.7564 49.7916C12.3115 47.9756 10.3049 53.9741 9.31432 53.8474ZM59.4112 53.3617C58.2157 53.6314 58.4033 48.7665 59.254 48.8355C60.7364 48.1409 60.4423 53.7795 59.4112 53.3617ZM12.0814 46.7843C10.3881 46.6474 12.415 43.349 12.8682 42.6271C15.3858 41.4834 12.8986 46.9201 12.0814 46.7843ZM59.6494 45.7845C58.3607 45.5716 59.0968 43.9838 59.0198 42.9374C58.8413 41.4874 59.909 40.5414 60.5843 41.8474C60.4981 43.3085 60.7526 45.7784 59.6494 45.7845V45.7845ZM15.2509 39.8915C13.4522 39.708 15.7579 36.4664 16.2122 35.783C18.7795 34.7782 16.0388 39.9878 15.2509 39.8915ZM60.1605 38.2185C58.8809 38.0441 59.6109 36.3833 59.5521 35.3653C59.3777 33.967 60.4068 32.9531 61.1166 34.2874C61.0355 35.5944 61.2626 38.2256 60.1605 38.2185V38.2185ZM18.7714 33.1711C16.9098 32.9582 19.4182 29.7622 19.906 29.1224C22.5128 28.2707 19.5349 33.2248 18.7714 33.1711ZM60.6776 30.6555C59.3909 30.5034 60.1351 28.6661 60.0489 27.7009C59.8553 26.3898 60.9077 25.4144 61.5942 26.7072C61.5323 27.8712 61.8061 30.6677 60.6776 30.6555ZM22.6548 26.6596C20.7283 26.3888 23.4375 23.3135 23.9982 22.6829C26.5909 22.0461 23.5014 26.547 22.6527 26.6596H22.6548ZM61.0558 23.0824C59.7255 22.8948 60.5245 20.8446 60.3602 19.8519C60.124 18.7021 61.3032 17.964 61.8588 19.0996C61.8527 20.2504 62.2177 23.0976 61.0558 23.0824ZM26.9721 20.4248C24.9594 20.1135 27.9648 17.0362 28.6695 16.5526C31.1668 16.3184 27.7478 20.2717 26.9721 20.4248ZM61.07 15.5032C59.8938 15.564 59.6048 10.0634 61.1521 11.0286C61.9947 11.4089 62.1883 15.8083 61.07 15.5032ZM31.8948 14.6636C29.6793 14.1992 33.2829 11.3845 34.0575 11.0824C36.5295 11.2983 32.6157 14.4243 31.8948 14.6636V14.6636ZM36.0094 11.1148C32.6745 9.95892 41.8527 6.02787 38.6507 9.54219C37.6966 9.99948 37.073 10.7822 36.0134 11.1189L36.0094 11.1148ZM59.7549 8.09022C58.819 7.42812 57.8517 6.55714 56.7131 5.81291C56.1858 2.74472 62.674 7.45043 59.7549 8.09022ZM42.6426 7.48794C39.8512 6.53687 45.3802 4.50087 46.02 5.17514C47.2793 6.62204 43.4872 7.04181 42.6426 7.48794V7.48794ZM49.943 5.5503C47.1546 4.0081 52.4038 3.55892 53.3731 4.00911C55.038 5.97007 50.9508 5.26133 49.949 5.5503H49.943Z" fill="#B28BBC"/>
<path d="M37.5435 57.6456C34.0038 56.1521 43.6839 54.4274 40.7526 57.0231C39.7146 57.3697 38.6358 57.579 37.5435 57.6456ZM33.1115 56.8558C32.2385 56.7412 28.0418 54.2287 30.6841 53.6903C31.5906 54.2976 35.4892 56.145 33.1115 56.8558ZM44.4352 54.8208C42.4357 54.4953 45.4096 51.9554 45.8608 50.9475C48.4555 50.4406 45.6084 54.7437 44.4332 54.8208H44.4352ZM29.4289 51.0013C27.8177 50.983 29.3893 46.9922 30.0748 46.6494C32.1594 45.8413 30.0748 51.2923 29.4289 51.0013ZM46.5696 47.8996C45.6256 48.001 44.5224 42.7782 46.1346 43.4383C47.1729 43.7415 47.8654 48.1714 46.5696 47.8946V47.8996ZM32.7556 44.2707C30.6598 43.8925 33.9125 40.8761 34.7501 40.5506C37.1784 40.6266 33.4563 44.0365 32.7556 44.2707ZM43.8796 40.9186C42.5148 40.1906 41.5364 38.6941 39.7995 39.2548C36.9361 40.2991 37.4867 37.7126 39.8745 37.7055C42.0778 37.0312 46.3374 40.2677 43.8796 40.9186Z" fill="#B28BBC"/>
<path d="M72.0733 60.0842C67.8401 60.8426 60.2619 64.5039 56.4728 57.0535C52.6837 49.603 63.9252 15.3744 55.9658 8.93283C48.9899 3.28314 36.1382 7.29328 23.1293 31.415C10.1204 55.5366 5.85374 67.6948 13.7331 74.7518C21.6124 81.8089 34.4966 69.5899 41.3174 74.8786C48.1382 80.1673 39.1688 94.691 43.8411 99.8733C48.5133 105.056 55.9668 103.153 56.852 97.8454C57.7371 92.5374 52.053 81.0464 57.9886 75.9939C63.9242 70.9414 68.9797 74.98 72.0733 71.3207C75.1668 67.6613 76.3055 59.3267 72.0733 60.0842ZM50.0312 50.3584C48.5164 59.0733 32.855 63.999 28.1828 56.8C23.5105 49.601 29.7453 35.9888 39.0431 35.0763C45.4816 34.4446 51.547 41.6446 50.0312 50.3584Z" fill="#E5CBEE"/>
<path d="M27.8654 27.562C28.5995 32.3356 36.3916 27.9412 41.6956 21.6892C46.9995 15.4373 51.1688 23.0428 50.6 29.5655C50.0312 36.0882 54.8292 37.0616 56.8489 27.565C58.8687 18.0684 56.488 10.328 48.5163 8.99669C40.5447 7.66539 27.108 22.6373 27.8654 27.562V27.562Z" fill="#E5D6F1"/>
</svg>
