<svg width="98" height="132" viewBox="0 0 98 132" fill="none" xmlns="http://www.w3.org/2000/svg">
<path fill-rule="evenodd" clip-rule="evenodd" d="M68.1941 8.3425C53.4401 -7.24649 16.1371 2.49751 5.28009 17.2515C-5.57691 32.0055 4.44409 33.6765 6.11509 36.7385C7.78609 39.8015 7.50609 45.0905 10.5701 45.3685C13.6311 45.6475 15.0231 37.8525 18.3651 37.2955C21.7061 36.7385 21.4251 39.8015 24.4891 39.8015C27.5521 39.8015 26.4371 34.5115 31.4481 33.6765C36.4591 32.8415 40.3561 39.2445 37.2951 43.1415C34.2321 47.0385 24.7681 50.3795 26.7161 55.9465C28.6651 61.5155 32.8391 61.7935 33.6751 65.1335C34.5111 68.4745 38.1301 67.9175 39.7991 65.1335C41.4701 62.3505 43.4191 61.2375 46.4821 64.5765C49.5441 67.9175 53.7191 87.4055 42.0271 92.1375C30.3351 96.8705 20.0341 86.0135 9.73409 90.7455C-0.566907 95.4785 -0.843907 111.348 1.38209 116.079C3.61009 120.812 5.28009 116.358 7.78609 118.307C10.2911 120.256 21.9821 131.39 39.7991 131.39C57.6171 131.39 62.9061 123.318 68.1941 123.318C73.4851 123.318 77.6611 121.369 80.1661 115.801C82.6731 110.233 86.0121 113.574 88.7971 109.676C91.5801 105.779 89.6311 95.1995 91.0231 92.9725C92.4151 90.7455 92.4141 95.4775 96.0341 90.1885C99.6541 84.9005 94.0861 63.4635 86.2911 55.3895C78.4951 47.3175 70.1431 47.5955 68.1941 45.3685C66.2211 43.1115 82.9491 23.9325 68.1941 8.3425Z" fill="#98BF11"/>
<path fill-rule="evenodd" clip-rule="evenodd" d="M44.7898 12.2108C45.2048 16.3968 42.1468 20.1258 37.9608 20.5398C33.7758 20.9528 30.0488 17.8968 29.6338 13.7108C29.2198 9.5268 32.2768 5.7968 36.4628 5.3818C40.6458 4.9678 44.3758 8.0248 44.7898 12.2108Z" fill="white"/>
<path fill-rule="evenodd" clip-rule="evenodd" d="M39.6042 12.6683C39.7892 14.5283 38.7932 16.1483 37.3812 16.2893C35.9682 16.4283 34.6762 15.0343 34.4932 13.1743C34.3072 11.3153 35.3022 9.69431 36.7162 9.55431C38.1262 9.41531 39.4202 10.8093 39.6042 12.6683Z" fill="#1E120D"/>
<path fill-rule="evenodd" clip-rule="evenodd" d="M43.9138 22.3236C43.9138 22.3236 44.7388 25.2446 46.0058 25.8656C47.5188 26.6076 50.3578 25.2566 50.3198 23.8146C50.2828 22.3726 48.8048 19.8596 48.8048 19.8596C48.8048 19.8596 46.3798 21.7846 43.9138 22.3236Z" fill="white"/>
<path fill-rule="evenodd" clip-rule="evenodd" d="M22.1276 19.2904C26.3856 22.0234 33.1946 23.7454 39.4026 22.5884C45.8796 21.9414 51.4576 17.2784 54.8986 11.6124C54.7206 24.7904 26.6716 29.4144 22.1276 19.2904Z" fill="#1E120D"/>
<path fill-rule="evenodd" clip-rule="evenodd" d="M80.862 54.138C79.47 56.086 75.989 51.771 74.878 52.607C73.763 53.441 76.409 60.819 69.309 61.515C62.211 62.211 64.159 51.215 60.819 51.493C57.477 51.772 56.921 58.731 52.328 58.314C47.733 57.895 48.709 42.306 47.874 41.332C47.874 41.332 45.746 61.377 52.745 62.331C59.745 63.286 58.155 55.809 59.745 55.65C61.336 55.491 61.971 65.831 70.402 64.399C78.834 62.968 75.352 55.695 76.765 55.968C81.697 56.923 80.862 54.138 80.862 54.138Z" fill="#83A511"/>
<path fill-rule="evenodd" clip-rule="evenodd" d="M91.9968 92.4163C89.6318 91.5813 89.3528 88.2403 85.8728 89.2143C82.3928 90.1883 82.2548 98.5403 77.6608 99.7933C73.0668 101.046 69.1698 95.8953 69.1698 95.8953C69.1698 95.8953 71.0388 103.292 76.7658 103.173C82.4928 103.054 84.1908 93.6473 86.7878 92.4363C88.5768 91.6013 91.9968 92.4163 91.9968 92.4163Z" fill="#83A511"/>
<path fill-rule="evenodd" clip-rule="evenodd" d="M48.5691 104.387C42.2281 117.991 39.1471 104.69 35.2521 107.619C28.9761 128.057 18.3161 118.586 10.8101 110.424C6.8361 111.438 1.9031 113.166 1.7991 108.006C0.631096 118.158 9.0781 111.496 10.8561 113.701C17.3771 123.296 31.3391 128.828 35.8941 112.958C36.7661 109.972 37.7801 111.133 40.4581 113.204C47.0721 114.964 48.9761 104.134 48.5691 104.387Z" fill="#83A511"/>
<path fill-rule="evenodd" clip-rule="evenodd" d="M3.5124 108.184C3.2434 109.167 4.5854 110.689 6.6144 109.854C8.6424 109.019 10.4324 108.542 9.9544 107.826C9.4774 107.11 7.56839 108.064 6.25639 107.587C4.94439 107.11 3.8694 106.872 3.5124 108.184Z" fill="#C6E16A"/>
<path fill-rule="evenodd" clip-rule="evenodd" d="M14.6472 110.133C13.8522 111.724 19.3402 119.121 24.9082 118.405C30.4752 117.69 34.2122 109.418 32.9402 108.145C31.6682 106.872 27.9302 113.076 24.1922 112.917C20.4542 112.758 15.9592 107.51 14.6472 110.133Z" fill="#C6E16A"/>
<path fill-rule="evenodd" clip-rule="evenodd" d="M38.4284 105.202C38.0324 105.882 40.8154 109.019 42.9624 108.78C45.1104 108.542 48.3704 103.691 47.4164 103.214C46.4614 102.737 44.5534 105.839 42.8824 105.759C41.2124 105.68 38.9854 104.248 38.4284 105.202Z" fill="#C6E16A"/>
<path fill-rule="evenodd" clip-rule="evenodd" d="M14.3894 35.0106C13.4354 35.1266 12.5394 39.3646 10.1544 40.7376C8.57839 41.6426 9.72439 44.0356 11.2874 42.7056C14.0914 40.3196 16.8354 34.7126 14.3894 35.0106Z" fill="#C6E16A"/>
<path fill-rule="evenodd" clip-rule="evenodd" d="M20.0358 34.9505C19.5158 35.3125 23.4358 39.0665 24.9868 38.1715C26.5378 37.2775 26.7768 34.2945 29.9378 32.7435C31.7888 31.8365 29.6198 31.2165 28.8058 31.5505C26.4778 32.5045 25.7028 35.5475 24.1518 35.4285C22.6008 35.3085 21.4078 33.9965 20.0358 34.9505Z" fill="#C6E16A"/>
<path fill-rule="evenodd" clip-rule="evenodd" d="M33.3386 60.9393C32.6536 61.3753 34.2926 63.9813 34.7706 65.4133C35.2476 66.8453 37.9906 66.7253 39.0656 64.5783C40.1396 62.4303 40.0196 61.9533 39.4236 61.7143C38.8266 61.4763 37.8126 63.5643 36.7386 62.9083C35.6646 62.2513 34.6506 60.1043 33.3386 60.9393Z" fill="#C6E16A"/>
<path fill-rule="evenodd" clip-rule="evenodd" d="M49.9616 47.2191C49.1656 47.5371 49.7916 55.8691 52.4276 56.9231C55.2116 58.0361 58.7896 52.5481 57.9946 51.2761C57.1996 50.0031 54.4156 52.8661 53.1436 51.7531C51.8706 50.6391 51.9506 46.4241 49.9616 47.2191Z" fill="#C6E16A"/>
<path fill-rule="evenodd" clip-rule="evenodd" d="M64.6755 54.2982C64.0085 54.7302 65.1535 60.0242 67.5385 60.5812C69.9255 61.1382 72.3115 60.1842 73.0275 58.3552C73.7425 56.5252 73.9815 54.4582 72.7095 54.0592C71.4375 53.6612 70.7355 57.4222 69.2095 57.3202C66.8225 57.1612 66.0275 53.4232 64.6755 54.2982Z" fill="#C6E16A"/>
<path fill-rule="evenodd" clip-rule="evenodd" d="M69.9655 93.9871C69.4525 94.7791 72.8885 98.7591 76.7055 98.8781C79.1375 98.9541 83.0725 92.0541 82.2535 91.4811C81.0615 90.6461 78.1995 94.8541 76.4675 95.0011C73.6635 95.2391 71.2775 91.9591 69.9655 93.9871Z" fill="#C6E16A"/>
</svg>
