<svg width="59" height="131" viewBox="0 0 59 131" fill="none" xmlns="http://www.w3.org/2000/svg">
<g clip-path="url(#clip0_1_1525)">
<path d="M32.0444 128.2C37.6222 137.578 35.6222 110.978 35.9111 109.8H32.0444V128.2Z" fill="url(#paint0_linear_1_1525)"/>
<path d="M46.0444 108.689C46.5555 110.067 21.8222 111.156 21.8889 108.689C21.4 107.289 46.1111 106.222 46.0444 108.689Z" fill="url(#paint1_linear_1_1525)"/>
<path d="M34.6444 129.978C36.4222 130.378 34.7556 110.733 35.3111 109.8H34.6444V129.978Z" fill="#F5EC4A"/>
<path d="M27.5778 112.956C28.5778 122.622 42.2444 120.267 40.3555 109.8H27.5778V112.956Z" fill="url(#paint2_linear_1_1525)"/>
<path d="M27.8667 0C10.4222 28.8889 35.7333 38.6222 35.8 21.6667C33.5778 16.0222 28.4222 3.26667 27.8667 0V0Z" fill="url(#paint3_linear_1_1525)"/>
<path d="M28.1111 1.0889C26.6889 6.53334 18.8889 14.4222 22.3555 22.7778C24.5778 27.0667 24.1333 26.7111 26.9778 23.0445C27.7555 24.0667 28.6444 26.9556 29.8667 26.0667C30.5111 26.5111 30.5555 20.2667 31.8 21.0889C33.0444 21.9111 34.0222 24.4445 35.0667 25.5333C38.4444 23.4667 27.6222 5.04445 28.1111 1.0889V1.0889Z" fill="url(#paint4_linear_1_1525)"/>
<path d="M28.2222 1.86667C25.8222 5.42222 18.7111 24.8222 25.1778 20.9333C27.5778 14.0444 28.7333 22.7111 30.2444 17.5333C31.3111 15.7333 33.4889 21.4 33.9333 18.7778C33.6 17.9111 27.4222 4.44445 28.2222 1.86667V1.86667Z" fill="url(#paint5_linear_1_1525)"/>
<path d="M24.7778 10.1556C24.6667 10.4 21.5555 19.8445 25.2889 17.3556C27.2444 14.9333 29.3333 13.8 31.2 15.2445C27.2444 10.5778 29.8222 -0.599991 24.7778 10.1556Z" fill="url(#paint6_linear_1_1525)"/>
<path d="M30.5555 28.3555C28.7333 27.9111 29.4222 31.1778 29.3333 35.3555C29.8222 47.3555 32.5333 29.9778 30.5555 28.3555V28.3555Z" fill="#825831"/>
<path d="M24.2 61.6444C50.6666 43.8667 32.6444 112.444 21.8 70.9111C21.8273 67.672 22.6516 64.4895 24.2 61.6444ZM51.4222 46.6667C17.6222 10.0667 -15.5556 68.8889 10.4889 97.4222C44.1778 130.156 73.1333 73.3333 51.4222 46.6667Z" fill="#D35F2B"/>
<path d="M23.0889 60.5333C49.5555 42.7555 31.5333 111.333 20.6889 69.8C20.7162 66.5609 21.5405 63.3784 23.0889 60.5333V60.5333ZM50.3111 45.4667C16.5111 8.88888 -16.6445 67.8222 9.37776 96.3111C43.0667 129.044 72.0222 72.1778 50.3111 45.4667Z" fill="#E0934A"/>
<path d="M16.3555 59.4222C20.1111 60.6222 13.2889 67.5111 15.8 73.5111C20.7111 93.4889 6.66665 64.0222 16.3555 59.4222V59.4222Z" fill="#FFFDE9"/>
<path d="M20.3555 55.0444C20.7778 54.8 21.1778 54.5778 22.5778 55.3111C23.4222 56.2667 21.5111 59.8667 18.9778 58.1111C18.4222 57.4222 18.5778 56.2222 20.3555 55.0444Z" fill="#FFF22D"/>
<path d="M28.8889 34.2222C19.4958 34.45 10.899 39.5525 6.19998 47.6889L34.8889 34.8889C32.9219 34.4324 30.9081 34.2087 28.8889 34.2222V34.2222Z" fill="#DB8258"/>
<path d="M42.0444 37.7778C36.6 42.4667 -1.15556 51.3778 0.799992 61.7555L46.6667 41.3111C45.2577 39.9703 43.7079 38.7856 42.0444 37.7778V37.7778Z" fill="#DB8258"/>
<path d="M23.0889 60.5333C25.3111 55.3556 32.8667 58.8 34.8 58.3111L53.1555 50.1111C50.5778 41.6 43.9333 50 28.4444 55.6C9.99999 65.7111 -1.8889 63.8445 0.244434 73.6667C3.99999 71.1111 22.9333 66.2 23.0889 60.5333V60.5333Z" fill="#DB8258"/>
<path d="M37.3111 68.8889C40.8889 65.5556 61.6 62.9111 55.4 55.2667C51.1111 58.7111 32.7111 60.6 37.3111 68.8889Z" fill="#DB8258"/>
<path d="M20.7555 70.6222C17.1555 73.9556 -3.68891 76.6889 2.48887 84.3111C6.66665 80.7556 25.3111 78.8444 20.7555 70.6222Z" fill="#DB8258"/>
<path d="M57.7778 69.8C57.7778 68.4445 57.7778 67.1111 57.6 65.8C44.7333 70.9778 38.5556 73.7334 30.1556 82.5556C28.3333 83.9334 24.8222 80.3333 23.6667 80.9333L4.73334 89.4222C6.48889 92.4667 7.42223 94.8 9.57778 92.8222C20.1111 86.9556 59.7778 72.8 57.7778 69.8V69.8Z" fill="#DB8258"/>
<path d="M57.1556 77.7778L11.1111 98.2C15.9556 104.333 19.2889 99.5333 32.3778 94.2444C49.8222 84.7111 55.5556 88.8889 57.1556 77.7778V77.7778Z" fill="#DB8258"/>
<path d="M50.3111 94.1556C50.9111 93.3334 51.4444 92.5111 51.9778 91.6667L22.5555 104.778C30.0667 107.444 45.0222 103 50.3111 94.1556Z" fill="#DB8258"/>
<path d="M27.1778 42.9778C44.6667 44.3778 44.2222 54.0889 48.0444 55.7333C49.1778 56.2222 51.3778 52.1555 42.7555 45.3333C31.8889 36.6222 22.7111 42.6667 27.1778 42.9778Z" fill="white"/>
<path d="M32.6444 87.1333C29.7778 84.5778 39.0444 82.4889 40.4444 77.4889C49.0889 54.8444 43.6889 88.7333 32.6444 87.1333Z" fill="#FFF22D"/>
</g>
<defs>
<linearGradient id="paint0_linear_1_1525" x1="32.0444" y1="120" x2="36.0444" y2="120" gradientUnits="userSpaceOnUse">
<stop stop-color="#B5624F"/>
<stop offset="0.08" stop-color="#B96450"/>
<stop offset="0.64" stop-color="#D0705A"/>
<stop offset="1" stop-color="#D8745D"/>
</linearGradient>
<linearGradient id="paint1_linear_1_1525" x1="21.8667" y1="108.689" x2="46.0667" y2="108.689" gradientUnits="userSpaceOnUse">
<stop stop-color="#B5624F"/>
<stop offset="0.08" stop-color="#B96450"/>
<stop offset="0.64" stop-color="#D0705A"/>
<stop offset="1" stop-color="#D8745D"/>
</linearGradient>
<linearGradient id="paint2_linear_1_1525" x1="27.5778" y1="114.444" x2="40.5333" y2="114.444" gradientUnits="userSpaceOnUse">
<stop stop-color="#B5624F"/>
<stop offset="0.08" stop-color="#B96450"/>
<stop offset="0.64" stop-color="#D0705A"/>
<stop offset="1" stop-color="#D8745D"/>
</linearGradient>
<linearGradient id="paint3_linear_1_1525" x1="28.7555" y1="30" x2="28.7555" y2="0" gradientUnits="userSpaceOnUse">
<stop stop-color="#D35B30"/>
<stop offset="0.07" stop-color="#D97338"/>
<stop offset="0.15" stop-color="#DF893E"/>
<stop offset="0.25" stop-color="#E39A44"/>
<stop offset="0.36" stop-color="#E6A547"/>
<stop offset="0.53" stop-color="#E8AC49"/>
<stop offset="1" stop-color="#E8AE4A"/>
</linearGradient>
<linearGradient id="paint4_linear_1_1525" x1="28.6" y1="26.2222" x2="28.6" y2="1.0889" gradientUnits="userSpaceOnUse">
<stop stop-color="#E0922F"/>
<stop offset="0.01" stop-color="#E19630"/>
<stop offset="0.08" stop-color="#E7B138"/>
<stop offset="0.16" stop-color="#ECC73F"/>
<stop offset="0.26" stop-color="#F0D844"/>
<stop offset="0.38" stop-color="#F3E347"/>
<stop offset="0.54" stop-color="#F5EA49"/>
<stop offset="1" stop-color="#F5EC4A"/>
</linearGradient>
<linearGradient id="paint5_linear_1_1525" x1="28.2222" y1="21.4444" x2="28.2222" y2="1.86667" gradientUnits="userSpaceOnUse">
<stop stop-color="#F5EC39"/>
<stop offset="0.07" stop-color="#F5ED44"/>
<stop offset="0.32" stop-color="#F6EF63"/>
<stop offset="0.56" stop-color="#F6F079"/>
<stop offset="0.79" stop-color="#F6F186"/>
<stop offset="1" stop-color="#F6F18B"/>
</linearGradient>
<linearGradient id="paint6_linear_1_1525" x1="27.3111" y1="17.7778" x2="27.3111" y2="5.62223" gradientUnits="userSpaceOnUse">
<stop stop-color="#F4F2AA"/>
<stop offset="0.14" stop-color="#F6F5BA"/>
<stop offset="0.51" stop-color="#FBFAE0"/>
<stop offset="0.81" stop-color="#FEFEF7"/>
<stop offset="1" stop-color="white"/>
</linearGradient>
<clipPath id="clip0_1_1525">
<rect width="59" height="131" fill="white"/>
</clipPath>
</defs>
</svg>
