<svg width="77" height="114" viewBox="0 0 77 114" fill="none" xmlns="http://www.w3.org/2000/svg">
<path opacity="0.15" d="M73.5817 36.9947C70.9242 24.0943 65.0819 12.9389 58.3229 8.62659C44.2292 -0.397488 20.4015 2.46588 11.5518 13.3658C-4.29506 32.0091 -2.57034 79.3064 9.05856 98.7315C14.5774 108.445 28.8984 115.056 44.1926 112.968C53.5888 111.785 61.0038 107.135 64.0294 102.572C74.8958 86.9587 77.6548 54.9972 73.5817 36.9947V36.9947ZM31.1179 47.3287C33.5868 42.181 38.33 40.5059 42.2712 44.877C45.9691 49.1518 47.0864 57.9305 44.2991 63.8834C42.7681 67.128 39.9899 69.3799 36.0223 69.3171C26.6413 68.8061 27.9959 52.8933 31.1179 47.3287V47.3287Z" fill="black"/>
<path d="M63.8945 9.92952C54.4061 -1.9265 25.7369 -2.66161 14.258 9.92952C-3.36122 29.2532 0.048667 84.7655 14.6362 99.5407C27.4423 112.512 51.201 111.855 62.3787 101.814C75.0317 90.4436 85.1123 36.4522 63.8945 9.92952V9.92952ZM38.6971 66.765C24.8669 68.0912 28.2616 38.5206 38.6971 38.3473C50.0644 38.1577 52.5272 65.4388 38.6971 66.765Z" fill="#BBD392"/>
<path d="M40.0639 110.076C11.489 109.139 4.19164 90.2935 1.79164 60.655C-0.284916 4.65296 23.415 0.694535 38.475 0.0101248C48.6692 -0.202803 58.0634 2.89682 63.2051 8.03243C80.0304 26.3391 80.361 65.4398 69.9336 91.2101C65.4357 102.915 56.7868 109.691 40.0639 110.076ZM39.3815 1.5201C8.6398 1.3536 2.56122 27.4372 3.22129 59.0205C5.27858 87.93 11.4971 106.373 37.7186 108.492C64.4999 109.177 69.4368 93.3191 73.7632 71.9797C78.0289 47.5062 74.1425 22.4152 62.183 9.15081C57.4246 4.35993 48.9612 1.54118 39.3815 1.5201V1.5201ZM37.8119 67.566C24.2474 67.5427 27.4119 39.2091 37.8474 37.6608C51.9807 36.4887 53.2319 67.8753 37.8119 67.566ZM38.8147 39.1037C28.9886 39.8955 27.1199 64.1592 36.2545 65.8778C51.3815 68.2433 49.9529 39.2101 38.8147 39.1037V39.1037Z" fill="#94AA65"/>
<path d="M37.8809 71.1858C36.9896 71.0408 35.2223 71.3886 34.8593 70.2347C34.7022 68.7574 37.6984 69.8484 38.9587 69.7278C39.9949 70.5024 39.0601 71.3693 37.8809 71.1858ZM42.9769 69.9894C40.3731 69.5666 45.6193 66.0766 46.0117 66.9922C46.9039 68.1612 43.6563 69.7977 42.9769 69.9894ZM31.635 68.8294C30.8502 68.728 28.2758 65.8819 29.092 65.2806C29.8099 63.9696 33.8657 68.9704 31.635 68.8294ZM48.2139 64.6804C46.475 64.5039 48.6439 61.4682 48.9561 60.5769C51.563 59.2913 49.1224 64.8538 48.218 64.6804H48.2139ZM27.709 62.4497C26.4243 62.4315 25.3293 56.3042 27.6208 58.4213C27.8134 59.7374 29.2421 62.3655 27.7131 62.4487L27.709 62.4497ZM50.5166 57.5017C49.3202 57.3617 49.9376 55.9808 49.9458 55.0175C49.8109 53.5838 50.5176 52.0771 51.5123 53.5453C51.5224 54.7955 51.6036 57.5199 50.5207 57.5007L50.5166 57.5017ZM26.4375 55.0013C25.0981 55.1595 25.3161 49.0332 27.0459 50.7103C27.415 51.562 27.4494 55.2365 26.4375 55.0013ZM50.5409 49.9437C49.5371 50.0107 48.4806 44.6571 50.2428 45.5077C51.125 46.0107 51.8215 50.1901 50.5409 49.9437ZM27.0935 47.4677C25.5402 47.2527 26.9496 44.7422 27.0834 43.8307C29.2938 40.4928 28.4978 47.5214 27.0935 47.4677ZM48.3995 42.7072C47.5356 42.4852 44.7209 38.109 47.1229 38.6667C47.9473 39.3055 50.2246 42.5967 48.3995 42.7072ZM29.815 40.433C27.7942 40.0274 30.6991 37.1884 31.346 36.6205C34.0735 36.071 30.6575 40.1663 29.815 40.433ZM43.5508 37.0089C42.617 36.4634 39.6451 35.6908 40.0771 34.7884C40.5323 33.1458 46.3615 36.3052 43.5508 37.0089ZM35.5113 35.6999C31.929 33.8282 41.8139 32.8142 38.6606 35.3501C37.5828 35.3693 36.5759 35.3977 35.5113 35.6968V35.6999Z" fill="#94AA65"/>
<path d="M39.3673 106.269C38.3625 106.384 36.1612 106.168 37.5057 104.807C38.5196 104.55 39.6958 104.866 40.8578 104.723C42.912 105.576 40.6915 106.586 39.3673 106.269V106.269ZM45.4094 105.819C42.1546 104.57 50.0989 102.615 49.0819 104.787C48.3082 105.763 46.6636 105.468 45.4094 105.819ZM33.3506 105.726C32.3427 105.479 28.36 105.117 30.0532 103.58C31.0692 103.33 36.0466 104.594 33.3506 105.726ZM52.7057 103.874C49.2826 102.645 58.8431 99.3946 55.5316 102.616C54.6302 103.051 53.7906 103.598 52.7057 103.874ZM26.1982 103.321C25.2958 103.016 21.3151 101.216 23.4322 100.298C24.4269 100.427 28.652 102.662 26.1982 103.321ZM59.1584 99.9858C56.9774 99.5052 60.4431 96.9784 61.1934 96.3913C63.7769 96.4674 60.0254 99.8033 59.1584 99.9878V99.9858ZM20.0294 98.9718C19.269 98.7792 16.4066 96.0963 17.4378 95.4555C18.2743 94.6007 22.2946 98.9252 20.0294 98.9789V98.9718ZM64.1115 94.3077C62.252 94.0603 64.7615 91.1026 65.233 90.2935C67.8682 89.3951 64.9998 94.3128 64.1115 94.3077ZM15.2091 93.1579C14.2763 93.0494 11.4738 88.3853 14.0492 89.1477C14.7336 90.0938 17.0342 93.0129 15.2091 93.1579ZM67.494 87.5508C65.96 87.2862 67.3491 85.382 67.5569 84.3498C67.6877 83.0874 69.0089 82.6788 69.2431 83.9584C68.8558 85.2502 68.4167 87.5031 67.492 87.5508H67.494ZM11.6928 86.4547C10.6575 86.4101 8.70165 81.0687 11.0935 82.2894C11.6188 83.3561 13.3131 86.4223 11.6928 86.4547ZM69.67 80.3041C68.3316 80.1115 69.239 78.4578 69.3506 77.4387C69.3627 76.0192 70.4801 75.0976 71.0469 76.5191C70.8269 77.818 70.6413 80.3346 69.67 80.3041ZM9.26236 79.277C8.16021 79.2902 6.89481 73.6486 9.04639 75.0053C9.55539 76.0081 10.6626 79.3754 9.26236 79.277ZM71.0175 72.8547C69.814 72.7077 70.4304 71.3186 70.4771 70.3533C70.4071 68.8872 71.2497 67.4129 72.1318 68.9683C72.0081 70.2529 72.0761 72.8709 71.0175 72.8547V72.8547ZM7.70596 71.8611C6.56325 71.9412 5.82307 66.2033 7.74145 67.5011C8.31433 68.3782 8.93283 72.0608 7.70596 71.8611ZM71.7871 65.3211C70.5217 65.1477 71.2304 63.5356 71.1605 62.5176C70.9739 61.1072 71.9615 60.0405 72.7148 61.3759C72.6641 62.6788 72.9024 65.3353 71.7871 65.3211V65.3211ZM6.7853 64.3396C5.5848 64.4349 5.19848 58.5733 7.04284 59.9878C7.56604 60.874 7.92599 64.5485 6.7853 64.3396ZM72.1541 57.7541C70.7752 57.5026 71.6472 55.4129 71.4444 54.2965C72.6236 50.1962 73.9671 57.8352 72.1541 57.7541ZM6.30672 56.7807C5.10926 56.9196 5.04132 51.5599 6.43144 52.2616C7.43423 52.4583 7.32472 57.1538 6.30672 56.7807ZM72.2018 50.183C70.8634 49.9396 71.6157 47.8509 71.348 46.766C72.2941 42.5855 74.0948 50.2641 72.2018 50.1789V50.183ZM6.2469 49.1974C4.86693 48.95 5.73283 46.8025 5.57668 45.7095C6.85729 41.6659 7.99291 49.3191 6.2469 49.1974ZM71.7212 42.622C70.5886 42.693 69.9214 36.9744 71.7871 38.2509C72.3954 39.0438 72.9349 42.8228 71.7212 42.622ZM6.64335 41.6274C5.3597 41.46 6.10191 39.7749 6.08365 38.763C5.96604 37.3647 7.03372 36.3559 7.69785 37.7379C7.54576 38.9749 7.73537 41.6385 6.64335 41.6274ZM70.5217 35.1493C69.4276 35.1401 68.1673 29.4357 70.3331 30.9079C70.8198 31.9128 71.9351 35.1837 70.5176 35.1493H70.5217ZM7.59544 34.1079C6.31686 33.9569 7.07732 32.3559 7.18277 31.3956C7.20609 30.0988 8.17947 28.7391 8.91965 30.2894C8.70774 31.495 8.56781 34.1698 7.59544 34.1079ZM68.4319 27.8742C67.4636 27.7992 65.4074 22.6017 67.7597 23.6897C68.3823 24.6083 70.0472 27.8661 68.4309 27.8742H68.4319ZM9.2796 26.7214C7.6289 26.5338 9.40837 23.4565 9.60406 22.6443C12.1572 20.7432 10.1668 27.0215 9.2796 26.7214ZM65.2978 20.9886C64.3224 20.8152 61.4875 16.0081 64.2068 17.0758C64.8608 18.0218 67.1331 20.7858 65.2978 20.9886ZM12.0132 19.6643C10.1485 19.4504 12.6428 16.1602 13.1681 15.5984C15.7161 14.8035 12.7544 19.6846 12.0132 19.6643ZM60.9541 14.7974C59.9828 14.5237 59.2385 13.0605 58.3422 12.3913C57.1123 8.66713 63.8145 14.473 60.9541 14.7954V14.7974ZM16.3245 13.4681C13.5787 13.0626 19.7901 8.23519 20.1856 9.6537C20.9795 10.4314 16.7686 13.1974 16.3245 13.4681ZM55.3612 9.71048C54.6606 9.56143 53.7632 8.70363 52.9825 8.33659C52.0101 8.02328 51.5518 6.88868 52.7534 6.60275C53.7501 6.79844 57.7703 9.03114 55.3612 9.71048V9.71048ZM23.4819 8.55256C20.9328 7.60452 25.4084 5.94267 26.3747 5.82607C28.7483 6.93735 24.3011 8.18145 23.4819 8.55256ZM48.5678 6.42125C47.7151 6.03494 43.6532 5.89502 45.2066 4.3011C46.2753 3.82759 51.2649 5.34242 48.5678 6.42125V6.42125ZM30.5916 5.98221C27.566 4.72695 34.0887 3.20908 34.2601 4.34064C34.8867 5.84128 31.3217 5.60401 30.5916 5.98221V5.98221ZM41.1255 5.10009C40.1754 4.90541 36.1176 5.57765 37.7004 3.62379C38.7214 3.12087 43.8976 3.5812 41.1255 5.09704V5.10009Z" fill="#94AA65"/>
<path d="M56.5004 13.1978C46.9004 5.79604 31.2735 6.19249 19.6203 13.1978C4.36044 22.374 9.03572 77.6348 18.2291 93.3144C23.5209 102.339 49.8793 107.167 59.7825 93.3144C69.6857 79.462 73.0459 25.9573 56.5004 13.1978V13.1978ZM53.5964 60.5611C49.6796 75.466 31.4925 78.6224 25.6816 65.1096C19.8707 51.5968 25.4504 33.3448 36.9242 32.0551C50.0588 30.5727 57.5092 45.6581 53.5964 60.5611V60.5611Z" fill="#CDE2A3"/>
<path d="M19.9985 15.976C11.9397 22.1519 9.89656 41.2383 15.9579 43.0056C22.0192 44.7729 18.9886 31.8898 30.1024 25.07C41.2162 18.2503 52.186 20.8307 49.3004 14.7136C46.4147 8.59652 29.9554 8.34506 19.9985 15.976V15.976Z" fill="#DDEDB7"/>
</svg>
