<svg width="55" height="113" viewBox="0 0 55 113" fill="none" xmlns="http://www.w3.org/2000/svg">
<g clip-path="url(#clip0_1_1517)">
<path opacity="0.15" d="M7.51027 28.8761C16.0101 27.9372 16.1115 33.6953 16.6063 39.7151C16.7817 55.2132 14.838 63.4971 13.1812 79.4018C11.7992 91.9209 11.1452 103.152 13.9924 107.445C20.8385 116.506 45.019 113.833 48.1318 105.012C51.9787 95.0865 53.9731 50.9577 52.7574 31.7475C52.2981 23.3511 51.2203 9.86161 47.0215 7.63601C39.2446 1.92651 22.549 2.48823 12.7817 6.17492C-3.48188 11.782 -2.81065 28.8112 7.51027 28.8761V28.8761Z" fill="black"/>
<path d="M8.02738 7.11888C-0.625603 14.0411 1.30089 25.526 9.7967 24.8172C18.2925 24.1085 19.708 30.1272 18.6464 47.4717C17.5848 64.8162 11.2122 96.3245 16.1683 103.756C21.1245 111.187 44.1328 110.836 48.7351 101.987C53.3374 93.1386 57.5838 12.6276 48.7351 5.44892C39.8864 -1.72979 16.876 0.0385232 8.02738 7.11888V7.11888Z" fill="#FFAA9F"/>
<path d="M31.2294 109.761C21.3942 109.643 15.274 106.502 14.2864 101.061C11.1777 84.5962 19.1777 56.6094 18.0958 35.2679C17.7531 30.9394 17.1163 28.1704 14.9222 26.5146C10.6859 23.8723 1.52091 28.7655 1.71356 16.4431C3.78302 -1.38098 37.527 -3.03167 47.8763 3.90166C59.2831 8.02638 53.6892 87.6532 50.4973 99.0408C49.4499 105.6 42.7336 109.53 31.2294 109.761ZM11.057 24.0051C30.5196 22.2662 10.6079 84.36 15.8814 101.225C16.9876 106.985 27.6836 109.482 37.5108 107.652C49.4337 105.082 48.654 100.167 49.9103 94.111C51.1686 86.2834 52.2545 73.7643 52.7909 60.2768C53.8646 33.7693 52.4755 12.3508 49.0748 7.01852C47.0469 3.71712 37.676 0.995705 28.0264 1.71256C-2.69506 3.46972 -0.691509 26.3625 11.057 24.0051V24.0051Z" fill="#F47673"/>
<path d="M31.6157 106.541C30.6504 106.649 28.2606 106.412 29.6943 105.042C35.5894 104.3 34.2945 106.912 31.6157 106.541ZM37.5311 105.737C34.1404 104.556 43.2892 101.681 40.6945 104.622C39.8327 104.997 38.6474 105.518 37.5311 105.737ZM25.5797 105.597C24.5202 105.417 20.3072 103.562 22.8989 102.765C23.783 103.219 28.0862 104.653 25.5797 105.597ZM44.1207 102.15C42.1272 101.874 45.1204 99.0277 45.6274 98.251C48.1987 97.817 45.1093 102.093 44.1207 102.155V102.15ZM19.8875 100.917C18.6099 101.002 17.3617 94.7934 19.7374 96.9247C19.9747 98.6718 21.4418 100.764 19.8875 100.922V100.917ZM47.0935 95.3298C45.818 95.1453 46.5774 93.6893 46.6545 92.724C46.6474 91.1899 47.6218 89.9863 48.3559 91.491C48.1724 92.9247 48.0842 95.3623 47.0935 95.3349V95.3298ZM18.6119 93.4875C17.3354 93.6386 17.3475 87.6066 19.1098 89.1671C19.5447 89.8596 19.6603 93.7896 18.6119 93.4926V93.4875ZM48.1987 87.8266C46.9607 87.6705 47.635 86.1709 47.6411 85.2097C47.5397 83.706 48.4674 82.4609 49.2695 83.924C49.1549 85.2857 49.2512 87.8621 48.1987 87.8317V87.8266ZM18.7123 85.9144C17.4286 85.7237 18.1536 84.0467 18.0766 83.0206C17.8981 81.6163 18.9698 80.6743 19.6401 81.9792C19.5478 83.3329 19.8286 85.9154 18.7123 85.9144ZM48.9338 80.2829C47.6593 80.1075 48.3863 78.4862 48.3356 77.4662C48.1734 76.0467 49.1833 75.0013 49.9103 76.3509C49.8261 77.6538 50.033 80.2971 48.9338 80.2829ZM19.2649 78.3524C17.9559 78.1597 18.7468 76.4593 18.7062 75.4342C18.5714 74.034 19.6715 73.1255 20.3001 74.4477C20.1774 75.8125 20.3316 78.3777 19.2649 78.3524V78.3524ZM49.4682 72.7179C48.2079 72.5496 48.9004 70.9182 48.8264 69.9073C48.6357 68.5029 49.6264 67.4322 50.3787 68.7686C50.3199 70.0543 50.5876 72.7311 49.4682 72.7179ZM20.0294 70.8097C18.836 70.6697 19.4281 69.2604 19.4616 68.2941C19.3805 66.834 20.2413 65.3628 21.1153 66.9202C20.9744 68.1805 21.1052 70.8228 20.0294 70.8097V70.8097ZM49.8545 65.1448C48.6074 64.9805 49.2705 63.3471 49.1782 62.3402C48.9632 60.945 49.9366 59.8571 50.7103 61.1803C50.6738 62.4588 50.9901 65.1559 49.8545 65.1448ZM20.8872 63.2761C19.5356 63.123 20.4218 61.231 20.4532 59.6898C20.3397 58.7062 21.8809 58.2591 21.9904 59.5884C21.746 60.285 22.0695 63.3004 20.8872 63.2761ZM50.111 57.5656C48.7929 57.3628 49.5605 55.489 49.4094 54.4325C49.1701 53.2026 50.3331 52.4188 50.9161 53.5869C50.9049 54.8401 51.2598 57.6092 50.1141 57.5656H50.111ZM21.7572 55.7405C20.5638 55.6066 21.1589 54.181 21.1904 53.2137C21.1042 51.7658 21.9539 50.2986 22.836 51.8449C22.7123 53.0768 22.839 55.7597 21.7602 55.7435L21.7572 55.7405ZM50.2489 49.9792C48.8801 49.7278 49.7156 47.6249 49.5087 46.5217C50.6433 42.4223 52.076 50.0512 50.252 49.9874L50.2489 49.9792ZM22.543 48.2018C21.1752 47.9078 22.0705 46.2307 21.9894 45.0282C21.817 43.8114 23.0205 43.0601 23.5437 44.2799C23.4646 45.2046 23.6613 48.2464 22.543 48.2018V48.2018ZM50.257 42.4011C48.9034 42.1526 49.6933 40.0538 49.4662 38.9536C50.5359 34.8208 52.0943 42.5035 50.257 42.4011ZM23.1179 40.6449C21.8373 40.5009 22.5714 38.6454 22.471 37.6903C22.258 36.3985 23.2923 35.4059 23.999 36.6834C23.9655 37.814 24.2606 40.6591 23.1179 40.6449ZM50.1049 34.8218C48.9166 34.9486 48.8193 29.6173 50.1587 30.2956C51.2041 30.4396 51.1554 35.1889 50.106 34.8218H50.1049ZM23.2902 33.0718C22.1404 33.1732 21.9133 27.9331 23.1959 28.5425C24.292 28.5749 24.4096 33.4236 23.2902 33.0718ZM49.7419 27.2507C48.5698 27.3379 48.2322 21.7967 49.8362 22.7894C50.6444 23.2426 50.8492 27.5569 49.7419 27.2507V27.2507ZM22.0025 25.6528C21.1914 25.2593 18.0411 21.3628 20.506 21.7663C21.4337 22.182 23.9513 25.4398 22.0025 25.6528ZM13.4722 21.8789C9.58783 20.9501 15.2568 19.5762 16.5617 20.5516C17.6162 22.3514 14.4994 21.7146 13.4722 21.8789V21.8789ZM8.70063 20.5912C5.61825 19.3744 7.12598 14.3351 8.37313 17.1853C7.90874 18.4244 10.689 20.0903 8.70063 20.5912ZM49.0221 19.705C47.8773 19.705 47.127 14.1029 48.9754 15.3258C49.599 16.0021 50.2915 19.9067 49.0221 19.705ZM9.51686 13.8332C6.84613 13.5716 12.9643 7.95948 13.3577 9.96201C13.6882 10.7275 9.86869 13.6507 9.51686 13.8332ZM47.3075 12.3458C46.5977 12.1288 43.199 7.97468 45.8484 8.48166C46.7894 9.11233 49.2157 12.1014 47.3075 12.3458ZM16.6155 8.77164C13.1873 7.48292 22.4882 4.62868 19.6826 7.6411C18.6839 7.91993 17.6801 8.48064 16.6155 8.77164ZM41.7328 7.44642C40.9916 7.10878 36.2798 6.19724 38.8137 4.95719C40.0233 5.01499 44.2586 6.43856 41.7328 7.44642ZM23.8276 6.4994C20.5597 5.18128 28.5131 3.34503 27.5163 5.52906C26.7366 6.49534 25.0545 6.06036 23.8276 6.4994ZM34.3828 5.75314C33.4226 5.63147 29.0241 6.04211 31.1381 4.17443C32.219 3.87532 37.1011 4.23425 34.3828 5.75314Z" fill="#F47673"/>
<path d="M19.2426 10.3706C14.6079 13.1539 14.4071 17.9681 22.0056 19.6989C29.6041 21.4297 27.7131 36.4634 25.818 54.904C23.9229 73.3445 15.1199 100.56 29.8738 100.71C44.6276 100.86 46.2783 75.9919 46.91 54.1445C47.5417 32.2971 48.8061 16.2343 40.8487 11.5083C32.8913 6.78229 23.1503 8.02539 19.2426 10.3706V10.3706Z" fill="#FFBCB3"/>
<path d="M23.5295 11.2669C19.7313 12.8892 19.0682 18.397 28.9389 19.6968C36.1379 20.6439 31.491 38.6849 38.69 38.6515C43.1513 38.6302 46.1932 23.6046 41.164 15.6857C37.4844 9.89303 29.2735 8.80406 23.5295 11.2669V11.2669Z" fill="#FFC6C0"/>
</g>
<defs>
<clipPath id="clip0_1_1517">
<rect width="55" height="113" fill="white"/>
</clipPath>
</defs>
</svg>
