<svg width="77" height="114" viewBox="0 0 77 114" fill="none" xmlns="http://www.w3.org/2000/svg">
<path opacity="0.15" d="M65.274 52.3944C45.8317 43.7688 35.8991 54.0907 29.0317 53.5858C19.1873 51.5082 24.3554 20.583 52.4061 35.4403C56.4071 37.1376 59.4367 38.623 62.581 38.2793C72.4983 35.5772 69.785 14.9992 62.4938 9.91226C54.5982 3.59135 38.4106 1.86055 27.1843 4.71379C16.6099 7.26284 9.80024 13.5868 6.85271 20.1419C1.41292 31.4443 0.0593034 52.1825 0.870457 65.4915C1.53763 78.0228 4.24992 97.1356 12.7174 105.199C30.3802 119.463 67.1346 116.646 73.3653 92.514C77.3835 79.3176 74.7939 57.0301 65.274 52.3944V52.3944ZM42.0547 83.2091C33.6755 83.7607 33.6968 73.2086 40.6261 72.3863C51.4499 70.0573 52.9242 83.1706 42.0527 83.2091H42.0547Z" fill="black"/>
<path d="M66.5059 49.8129C45.0986 39.9614 33.5417 55.496 27.8575 49.8129C22.1734 44.1297 26.6205 31.5924 33.5417 28.5931C44.909 23.6674 57.2233 35.0337 63.8585 34.2763C71.2015 33.4367 72.763 13.7226 62.7219 6.5703C52.6808 -0.582043 23.6902 -3.61271 11.3759 13.2481C-0.938425 30.109 -0.183038 92.0598 16.6798 102.858C33.5427 113.657 57.7911 111.578 68.9688 99.0702C80.1465 86.5622 76.9749 54.6301 66.5059 49.8129ZM43.9609 80.6935C35.2461 80.8821 36.0045 74.2519 37.1412 71.4099C38.2778 68.5678 44.909 67.0529 48.5095 68.948C54.0588 71.8671 52.6758 80.5069 43.9609 80.6935V80.6935Z" fill="#D6B9DF"/>
<path d="M41.3369 110.6C30.0152 110.652 17.3815 106.051 12.616 100.148C4.50443 89.9701 2.71685 70.0248 2.31635 59.9908C1.57617 17.8616 10.513 1.77234 38.2971 0.129758C49.7151 -0.236275 62.4137 2.90492 66.8689 9.75511C72.3219 17.3516 71.675 31.9979 65.2264 34.7042C56.8025 37.6953 34.7706 15.7992 26.6895 38.4415C24.7092 44.6834 27.2441 52.0182 33.3227 50.036C45.6086 45.9042 52.4375 43.8813 63.4063 47.7252C78.6854 51.274 79.0494 81.6689 73.3085 93.6223C68.4345 105.031 54.1876 110.678 41.3369 110.6ZM40.2378 1.6091C22.073 1.9437 9.87832 9.12545 6.22813 28.5455C1.37541 50.5957 3.2877 87.9483 14.6976 100.209C32.254 115.351 72.0441 112.105 74.6621 83.1746C76.4091 71.2456 74.2829 51.7069 63.0798 49.2228C48.7021 44.146 40.762 49.9721 32.8411 51.6927C18.3721 53.8403 23.1245 21.8666 44.0684 27.0631C53.0297 28.8091 62.3397 36.2251 65.9006 32.5069C69.9341 28.4197 69.348 20.368 68.2124 16.3194C65.2933 4.48464 52.2611 1.95789 40.2378 1.6091V1.6091ZM43.601 81.455C33.1817 81.968 33.1645 68.3944 42.4035 67.5376C55.1001 65.4175 56.3767 81.4063 43.601 81.455ZM44.5896 68.8637C34.4623 68.8415 36.2195 78.8055 40.6839 79.5782C53.1736 82.3229 54.2322 68.8203 44.5896 68.8637Z" fill="#B28BBC"/>
<path d="M40.8877 106.429C37.5721 106.815 37.6674 104.425 40.912 104.908C43.9914 104.505 43.5209 106.843 40.8877 106.429ZM46.7899 106.067C43.2806 104.532 52.7113 102.942 50.1207 105.518C49.1077 105.844 47.9113 105.896 46.7858 106.067H46.7899ZM34.6956 106.024C33.6299 105.827 32.2621 105.815 31.1995 105.325C29.2446 102.712 38.1673 104.727 34.6956 106.024ZM54.1967 104.503C50.9805 103.509 59.1123 100.495 57.6532 103.195C56.7082 103.896 55.4104 104.126 54.1967 104.501V104.503ZM27.3181 104.346C26.2748 103.989 24.3777 103.578 23.7835 102.773C22.9409 100.242 30.4745 103.593 27.3181 104.346ZM61.129 101.477C58.2058 100.931 65.3521 96.3417 64.258 99.4159C63.4144 100.228 62.3214 101.022 61.128 101.477H61.129ZM20.4933 101.098C19.8109 100.975 18.9643 100.15 18.289 99.6785C17.1736 99.0965 16.8745 97.6507 18.3701 97.8159C19.164 98.5074 22.803 100.425 20.4923 101.098H20.4933ZM66.8061 96.5353C64.9425 96.4522 67.5635 93.0342 68.1931 92.4866C70.5668 92.0801 67.6892 96.4633 66.8051 96.5323L66.8061 96.5353ZM15.2015 95.7738C14.2788 95.7242 11.5716 90.8674 14.149 91.7333C14.8233 92.7756 16.9759 95.6431 15.2015 95.7738ZM70.2068 89.7916C69.0489 89.6446 69.5833 88.437 69.8854 87.5518C70.1065 86.2185 70.9065 84.2666 71.8119 86.0674C71.5787 87.346 71.1275 89.7804 70.2079 89.7936L70.2068 89.7916ZM11.9488 88.9389C10.9085 88.9277 9.11786 83.4423 11.4702 84.7503C11.9822 85.8524 13.5082 88.9338 11.9488 88.9409V88.9389ZM71.9153 82.4202C70.7158 82.2773 71.3303 80.8861 71.3577 79.9219C71.2563 78.4719 72.037 76.9815 72.9719 78.5024C72.907 79.7668 72.984 82.4425 71.9153 82.4223V82.4202ZM9.71406 81.6983C8.62103 81.7237 7.36476 76.0648 9.51127 77.4215C10.0284 78.4304 11.1032 81.7784 9.71406 81.6983ZM72.3483 74.8613C71.0139 74.618 71.7643 72.5536 71.4672 71.4636C72.3219 67.2547 74.294 74.8978 72.3483 74.8613ZM8.10899 74.2894C6.92268 74.327 6.10443 68.3579 8.19416 70.0623C8.56628 71.203 9.42103 74.3868 8.10899 74.2894ZM71.6071 67.3257C70.5637 67.3429 69.3886 61.8899 71.3212 62.9546C72.0329 63.642 72.9567 67.5041 71.6071 67.3257ZM6.98047 66.7934C5.80937 66.8725 5.24663 61.0818 7.12749 62.4334C7.67097 63.2882 8.16983 66.9941 6.98047 66.7934ZM69.4393 60.0811C68.4507 59.8681 65.8753 54.9495 68.4811 56.0932C69.0803 56.9338 71.2563 59.9107 69.4393 60.0811ZM6.27071 59.2456C5.09049 59.3642 4.80455 53.7703 6.44917 54.7842C7.21368 55.3206 7.33535 59.5589 6.26564 59.2456H6.27071ZM28.0187 55.1462C26.8193 55.055 22.9267 53.8169 25.0155 52.6337C25.9452 52.8557 30.6286 54.1029 28.0137 55.1462H28.0187ZM32.5419 55.0245C28.8634 53.2745 39.4601 51.8114 35.3871 54.3908C34.4086 54.6514 33.5224 54.8887 32.5369 55.0245H32.5419ZM64.8035 54.2367C63.8555 53.9193 62.6864 53.241 61.6025 52.801C59.5838 49.6253 68.107 53.3333 64.7985 54.2367H64.8035ZM39.7896 52.8588C37.0378 51.8063 42.3447 50.1303 43.1873 50.6768C44.5977 52.2017 40.6109 52.4643 39.7896 52.8588ZM5.94929 51.6704C4.75893 51.8732 4.91507 47.1493 5.73738 47.1543C7.19036 46.3614 7.03928 52.0699 5.94929 51.6704ZM57.7161 51.6167C56.7589 51.2486 52.8755 51.4849 54.2545 49.7662C55.2776 49.166 60.4527 50.404 57.7161 51.6167ZM47.1711 51.1817C43.7511 49.606 52.4771 48.3427 50.7463 50.7021C49.7648 51.2943 48.3665 50.8836 47.166 51.1817H47.1711ZM22.4106 50.6362C20.8603 50.5997 20.331 44.0213 22.4431 46.8461C22.4076 48.3518 24.0117 50.4121 22.4056 50.6362H22.4106ZM6.05576 44.0963C4.80253 43.9371 5.47376 42.2712 5.40684 41.2623C5.22838 39.8671 6.24638 38.8126 6.97338 40.1632C6.87908 41.4154 7.18326 44.1064 6.05576 44.0963ZM21.5985 43.1645C20.2925 42.9617 21.057 41.2735 21.0479 40.2393C20.9587 38.8126 22.1115 37.9457 22.6814 39.3014C22.4684 40.7046 22.6641 43.1797 21.5985 43.1645V43.1645ZM6.65601 36.5425C5.45449 36.4055 6.05981 34.9668 6.12065 33.9924C6.07705 32.5313 7.00886 31.1057 7.81698 32.6925C7.61621 33.9143 7.72166 36.5536 6.65601 36.5425V36.5425ZM22.9156 35.7211C21.2426 35.6025 23.1265 32.1014 23.5716 31.5143C25.9655 30.3361 23.7389 35.8377 22.9156 35.7211ZM61.3997 30.1576C59.3627 29.3333 61.7516 28.4765 62.5637 28.0101C63.7328 26.62 65.0682 26.8836 64.4831 28.3052C63.6649 29.1863 62.6033 29.9427 61.3997 30.1576ZM56.91 30.0005C56.1506 29.7845 51.8494 29.0038 53.7343 27.5954C54.9065 27.5011 59.4996 29.02 56.91 30.0005ZM7.90012 29.0687C6.51609 28.8811 7.51989 27.0174 7.673 26.0268C7.75614 24.6732 9.0114 23.9584 9.3967 25.3718C9.04689 26.5744 8.86438 29.091 7.90012 29.0687V29.0687ZM26.4056 29.0534C24.2672 28.6479 27.6446 25.6486 28.5176 25.4093C30.9044 25.6152 27.0829 28.7776 26.4056 29.0534ZM49.9128 27.127C49.2314 26.7761 45.3065 25.5371 46.7696 24.3893C47.6811 23.8002 52.4963 26.5115 49.9138 27.13L49.9128 27.127ZM32.4801 24.6752C29.4383 23.5275 36.2317 21.4387 36.1506 23.0154C36.1232 24.3488 33.421 24.1318 32.4801 24.6752V24.6752ZM66.1703 24.6306C65.6522 24.6306 65.199 23.9635 65.5326 23.3733C66.1146 15.782 68.9019 23.2294 66.1703 24.6306ZM42.9207 24.2768C41.9726 23.9148 37.7871 24.0476 39.6172 22.3199C40.695 21.9731 45.6025 23.0215 42.9207 24.2768ZM10.1054 21.8271C8.3645 21.673 10.511 18.259 11.0078 17.6811C13.495 16.6783 10.876 21.9143 10.1054 21.8271ZM65.5437 17.2218C64.6829 17.1204 62.216 12.2443 64.5937 13.0757C65.3835 13.9031 67.24 17.1842 65.5437 17.2218ZM14.0182 15.3886C11.5625 15.1969 16.4456 10.4699 16.9252 12.2666C17.2152 13.2187 14.5992 15.1341 14.0182 15.3886ZM61.4464 10.909C57.5569 8.02632 56.5744 8.45116 55.6537 7.47372C54.6874 4.1703 65.0286 10.3482 61.4464 10.909ZM19.8687 10.6048C16.4821 9.35053 25.9108 5.76016 22.5526 9.1518C21.6086 9.55433 20.9141 10.2783 19.8687 10.5997V10.6048ZM26.655 7.27195C23.7207 6.21542 29.9635 4.16726 30.1977 5.2177C30.9805 6.62302 27.4094 6.85725 26.655 7.26688V7.27195ZM52.0289 6.52366C51.0788 6.13126 47.4317 6.14242 48.5034 4.59007C49.4058 3.74444 54.8264 5.49451 52.0289 6.51859V6.52366ZM33.9929 5.44178C30.4279 3.72721 40.1232 2.55306 37.2598 5.06662C36.2408 5.2613 35.0748 5.25319 33.9929 5.44178ZM44.5744 5.19641C43.5381 4.92974 39.8393 5.56548 41.0256 3.69983C42.0111 2.99616 47.381 3.79717 44.5744 5.19641Z" fill="#B28BBC"/>
<path d="M43.313 84.2028C42.3762 84.1146 38.3792 84.3275 39.8656 82.5389C40.8471 82.1495 46.1065 82.8096 43.313 84.2028ZM47.8149 83.707C44.9759 82.84 50.8081 80.652 51.161 81.3049C52.3625 82.6515 48.5602 83.5103 47.8149 83.707ZM36.1151 82.2307C35.1295 82.0279 32.3716 79.3572 33.5853 78.694C34.5678 78.1658 34.9521 79.6005 35.6892 80.149C36.545 80.7757 37.639 81.8008 36.1151 82.2307V82.2307ZM53.9604 79.5701C52.1445 79.2324 54.507 76.7878 54.5688 75.6512C57.1909 73.8048 55.2421 79.5995 53.9625 79.5731L53.9604 79.5701ZM32.6738 75.7982C30.2809 75.348 33.7455 68.2859 33.7597 72.6205C33.1787 73.6466 34.0274 75.4423 32.6758 75.8013L32.6738 75.7982ZM55.1904 72.3234C54.2697 72.2606 54.3711 70.9678 53.8509 70.2712C53.2345 69.4479 52.4466 68.1886 54.0091 68.1572C55.1001 68.6286 56.8867 72.2859 55.1924 72.3265L55.1904 72.3234ZM35.6213 69.0636C32.2509 67.7637 41.4677 64.0203 38.2028 67.4646C37.1128 67.8743 36.6981 68.6966 35.6213 69.0667V69.0636ZM50.1673 67.0215C49.4038 66.6545 44.6758 66.039 47.1812 64.6793C48.4081 64.6357 52.7194 65.9549 50.1673 67.0215ZM39.7754 66.7802C36.5572 65.5635 44.3645 63.3328 43.4256 65.6547C42.6175 66.5906 40.9871 66.2337 39.7754 66.7802Z" fill="#B28BBC"/>
<path d="M61.0479 54.0573C48.4436 48.2423 38.9044 59.8367 26.7767 58.1941C14.6489 56.5515 13.3926 29.5229 28.4182 21.6922C43.4438 13.8616 54.6945 26.113 59.744 24.0922C64.7934 22.0714 63.0342 12.0882 56.7123 9.69426C43.7034 4.76549 22.7371 5.14775 14.3863 21.3668C6.03547 37.5858 8.33813 78.6545 17.9351 91.6633C27.5321 104.672 57.7222 104.042 63.2796 94.1951C68.837 84.3488 73.6552 59.8722 61.0479 54.0573V54.0573ZM40.695 85.8159C22.1277 83.3044 27.9042 59.714 48.3473 63.0022C64.256 65.4306 61.8337 88.0334 40.695 85.8159Z" fill="#E5CBEE"/>
<path d="M46.2291 8.68441C53.4859 9.891 52.6616 17.0221 44.5196 16.0112C36.3777 15.0003 27.2826 16.5181 21.9787 24.5992C16.6748 32.6804 13.275 29.4449 16.6717 21.7349C20.0684 14.0248 29.8631 5.96603 46.2291 8.68441V8.68441Z" fill="#E5D6F1"/>
</svg>
