<svg width="79" height="112" viewBox="0 0 79 112" fill="none" xmlns="http://www.w3.org/2000/svg">
<path opacity="0.15" d="M65.397 54.4101C77.6312 46.252 72.9934 19.0479 63.3691 10.2895C57.7924 5.25525 43.8436 2.9313 34.3785 3.41393C27.6175 3.69074 17.7569 5.2228 12.0079 11.3653C1.94654 22.0329 0.607121 46.2763 11.2626 54.3473C4.95997 59.634 0.2056 72.8649 1.03602 85.2664C2.02664 117.146 52.4672 114.84 66.6289 105.011C82.8226 94.7305 79.506 66.038 65.397 54.4101V54.4101ZM34.5468 76.0345C40.816 72.4725 48.7187 76.7371 43.8548 82.5612C37.1709 87.6046 29.2763 82.476 34.5468 76.0345ZM44.5412 36.3143C41.254 42.035 29.9567 40.0659 32.5219 32.5627C35.4157 25.8707 46.8256 30.0127 44.5412 36.3143Z" fill="black"/>
<path d="M65.6454 51.0489C79.286 43.4707 73.2236 13.1589 62.9949 6.4821C52.7663 -0.194703 24.5361 -2.5653 14.1159 8.61138C3.69559 19.7881 3.31739 44.4187 14.1159 51.0489C4.07784 57.8697 -3.31379 88.7503 12.0322 99.7384C27.3782 110.726 58.8266 109.59 70.5721 98.9799C82.3176 88.3701 80.4226 62.7954 65.6454 51.0489ZM35.144 26.6129C41.108 22.1516 49.6241 28.438 46.5123 33.8707C39.6895 41.89 27.8862 33.7642 35.144 26.6099V26.6129ZM40.8282 81.9265C30.5803 82.8948 32.818 71.5194 38.2304 71.0357C50.9361 68.8618 49.7742 81.4195 40.8282 81.9265Z" fill="#BBD392"/>
<path d="M41.1759 108.232C25.7245 108.172 11.1308 103.404 6.05604 94.1678C-1.60936 81.0737 4.19242 58.1728 12.8109 51.0803C2.23652 42.8674 4.06973 20.9662 11.4543 10.7092C14.9879 5.41948 20.5585 2.6869 26.8023 1.29273C38.3055 -1.35467 55.8598 0.448121 64.087 6.32695C75.1166 15.2719 78.9027 43.3602 66.9463 51.1432C78.7252 61.024 83.0142 81.9893 74.6168 95.351C68.5483 105.089 53.5886 108.167 41.1759 108.232V108.232ZM38.4312 1.60807C18.4383 1.894 10.5478 9.00984 7.46441 25.2147C4.35161 49.093 17.0198 49.7612 14.5407 51.6785C5.59064 58.3371 1.76808 77.7693 5.35338 88.7411C10.418 108.777 49.2702 110.667 66.0094 101.269C76.5098 95.8286 79.7524 81.5209 75.9065 68.1602C71.3721 53.3333 63.074 52.0334 65.2773 50.3868C77.8502 43.2304 72.6629 16.4948 64.3141 8.52619C59.6905 4.14292 49.0107 1.70946 38.4312 1.60807V1.60807ZM39.6287 82.7488C29.5095 82.7143 31.7301 69.6517 39.9592 70.0745C51.7219 69.0899 50.8277 82.8603 39.6287 82.7488ZM40.7237 71.566C33.5572 70.8562 32.1164 80.2636 38.274 81.1295C48.5047 82.4476 49.9861 71.0631 40.7237 71.566ZM39.3437 37.9031C29.8411 37.5341 30.0652 25.3728 38.6157 24.4177C49.8137 23.8529 51.8477 37.4763 39.3437 37.9062V37.9031ZM39.505 25.8889C32.0971 26.0583 31.8142 35.4504 38.5681 36.3417C49.8411 36.5515 47.8183 25.9822 39.505 25.892V25.8889Z" fill="#94AA65"/>
<path d="M39.1085 104.526C38.1047 104.425 33.9841 104.796 35.7473 102.934C36.886 102.611 41.8431 103.05 39.1085 104.526ZM43.656 104.504C40.5453 102.963 47.3387 102.241 47.3945 103.295C47.9095 104.922 44.4398 104.283 43.656 104.504ZM31.5628 103.882C30.5235 103.781 26.0175 103.306 28.5209 101.862C29.5988 101.916 34.199 102.531 31.5628 103.882ZM51.1977 103.755C47.7412 102.335 56.9194 100.425 54.5661 103.068C53.544 103.472 52.3486 103.53 51.1957 103.755H51.1977ZM24.1509 102.313C23.4117 102.178 22.4403 101.814 21.5744 101.531C16.9022 98.6788 27.8639 100.604 24.1509 102.313ZM58.5509 101.956C55.1714 100.765 64.3151 97.8139 61.6819 100.801C60.8028 101.149 59.6591 101.703 58.5509 101.956ZM17.11 99.5396C16.1478 99.1766 12.526 97.4975 14.2163 96.5079C15.1116 96.2767 19.5983 98.9992 17.11 99.5396ZM65.3787 98.7143C62.852 98.3523 67.8822 94.6007 68.3405 95.6025C69.18 96.6803 66.128 98.4364 65.3787 98.7143ZM11.2231 94.8613C10.1453 94.8106 7.35491 89.7378 10.1797 91.0266C10.6522 92.1672 13.1242 94.549 11.2231 94.8613ZM70.7009 93.4022C68.8758 93.312 71.3945 89.7855 71.9268 89.2876C74.3065 88.7543 71.5263 93.4336 70.7009 93.4022V93.4022ZM8.05554 88.0354C6.83273 88.0669 5.96479 82.0947 8.10218 83.8357C8.40738 85.0696 9.41017 88.08 8.05554 88.0354ZM73.7225 86.4892C72.4946 86.3391 73.1922 84.9135 73.3463 83.9543C73.3706 82.5135 74.2365 81.0889 75.0649 82.6605C74.9351 83.9391 74.6958 86.5267 73.7225 86.4892ZM7.25351 80.5181C5.85833 80.2849 6.7364 78.0461 6.62183 76.9814C8.07379 73.0484 8.88495 80.7432 7.25351 80.5181ZM74.5955 78.986C73.2439 78.7903 74.0135 76.2484 73.6647 75.28C75.1045 71.86 76.2127 79.3054 74.5955 78.986ZM8.01397 72.9835C6.77493 72.8243 7.45326 71.3906 7.60028 70.4202C7.6743 69.0625 8.6274 67.5589 9.39901 69.1954C9.13945 70.4516 8.96809 73.0362 8.01397 72.9835V72.9835ZM73.6616 71.4767C72.6173 71.4696 71.1592 65.8534 73.3574 67.2334C73.9171 68.2321 75.1116 71.5072 73.6616 71.4767ZM9.89483 65.6435C8.21676 65.4468 10.0976 62.3918 10.3298 61.5776C12.8677 59.7799 10.8784 65.7662 9.89483 65.6435ZM71.2048 64.3254C70.2994 64.1814 67.7574 59.422 70.1808 60.2179C70.9108 61.0047 72.9387 64.2554 71.2079 64.3203L71.2048 64.3254ZM12.8637 58.6767C10.8692 58.3219 13.7671 55.1584 14.2244 54.7589C16.8829 54.0258 13.6819 58.4922 12.8637 58.6767ZM67.2109 57.898C66.3754 57.5117 64.0353 55.2912 64.38 54.7041C64.9062 52.7797 69.6707 57.7946 67.215 57.896L67.2109 57.898ZM18.1362 53.388C16.8576 53.1954 17.6474 52.0263 18.0104 51.3601C15.2119 46.8309 22.5559 50.9191 18.1443 53.388H18.1362ZM61.3564 53.1609C57.2327 51.1746 63.0629 45.9193 61.4629 51.3419C62.2132 52.1094 62.4038 52.9966 61.3645 53.1609H61.3564ZM14.6695 47.7566C13.7062 47.6501 10.7364 43.1391 13.3818 43.8255C14.0672 44.8364 16.5564 47.5305 14.6695 47.7566ZM64.524 47.4524C62.4525 47.1938 65.6961 44.0689 66.3126 43.6156C68.7825 43.5376 65.2591 47.423 64.524 47.4524ZM68.5534 41.1001C67.3945 40.9541 67.9339 39.7353 68.2725 38.8572C68.5138 37.5391 69.2865 35.5974 70.2061 37.386C69.9993 38.6494 69.4599 41.0859 68.5534 41.098V41.1001ZM11.2109 41.0646C9.93742 41.0413 8.82918 34.9323 11.1187 37.0301C11.3235 38.3117 12.7339 40.9885 11.2109 41.0646ZM70.127 33.7196C68.7957 33.46 69.6261 31.7596 69.4335 30.6139C69.1486 29.4985 70.2294 28.5211 70.9007 29.7084C70.9686 30.5693 71.2981 33.7956 70.127 33.7155V33.7196ZM9.83704 33.6303C8.45706 33.7186 8.60611 27.3976 10.4272 29.4732C10.5519 30.2651 11.0021 33.8068 9.83704 33.6263V33.6303ZM69.7143 26.1698C68.6862 26.2134 67.5161 20.7249 69.4487 21.7956C70.1767 22.5094 71.0467 26.3492 69.7143 26.1657V26.1698ZM10.1331 26.0684C8.86365 25.9143 9.59369 24.3224 9.69711 23.3611C9.72753 22.043 10.7384 20.6935 11.4502 22.2641C11.1906 23.499 11.1146 26.116 10.1331 26.0653V26.0684ZM67.5983 18.9049C66.6908 18.7761 64.2522 13.9173 66.6563 14.771C67.3721 15.5974 69.3189 18.8592 67.5983 18.9049ZM12.0515 18.7508C10.3166 18.6118 12.4408 15.1746 12.9387 14.5997C15.4157 13.5868 12.8292 18.8309 12.0515 18.7508ZM63.7047 12.4359C62.9615 12.3203 62.4789 11.3054 61.7285 10.8136C60.7045 10.2296 60.1772 9.08992 61.545 8.89423C62.6502 9.29575 65.8664 12.0192 63.7047 12.4359ZM15.8994 12.2686C12.6183 11.7475 22.4525 4.41869 21.2844 8.16013C16.7065 11.06 17.178 11.7819 15.8994 12.2686V12.2686ZM57.5197 8.15912C56.5767 7.80728 55.2079 7.39157 54.125 6.80551C52.5666 3.87015 60.815 7.26787 57.5197 8.15912ZM24.8211 6.75177C21.9161 5.69524 27.9572 3.76571 28.3851 4.77965C29.2388 6.22756 25.541 6.36242 24.8211 6.75177ZM50.3085 5.8737C49.3311 5.62325 47.9623 5.57661 46.85 5.16394C44.7947 2.46685 53.7874 4.56267 50.3085 5.8737ZM32.2127 5.13352C28.6375 3.38853 38.3734 2.31983 35.4817 4.79689C34.4576 4.98852 33.2865 4.96216 32.2127 5.13352ZM42.8074 4.83948C41.7671 4.63669 40.2725 5.01185 39.2342 4.48865C37.4781 2.07141 46.3004 3.29524 42.8074 4.83948Z" fill="#94AA65"/>
<path d="M40.528 40.9074C39.6672 41.0412 37.3797 40.6712 38.8043 39.3956C39.8943 39.2202 41.0776 39.4879 42.2578 39.3013C44.2167 40.3548 41.6748 41.1264 40.528 40.9074ZM34.8013 39.5548C33.7772 39.2922 32.6598 38.261 31.8608 37.4712C30.5275 34.0765 37.7478 39.2243 34.8013 39.5548ZM46.4089 39.3297C44.0079 39.1158 48.676 35.13 49.0796 35.9229C50.2081 36.9297 47.1561 39.1797 46.4089 39.3297ZM30.2091 33.7845C27.4715 32.3852 30.4433 25.894 30.6634 31.2496C30.6218 32.2433 31.5627 33.5239 30.2091 33.7845ZM50.3004 33.1153C49.7802 33.0402 49.4122 32.658 49.5795 31.9442C48.8819 24.0374 52.9975 31.9573 50.3004 33.1153ZM31.4532 26.5814C28.3323 25.7966 36.4428 20.4978 34.9006 24.0973C32.961 25.0047 32.3191 26.33 31.4532 26.5814ZM48.0129 26.1444C47.1105 25.7388 43.3153 22.5348 46.0783 22.6068C46.9006 23.0833 50.1939 25.6739 48.0129 26.1444V26.1444ZM38.6208 22.6717C35.1044 20.8922 44.5655 19.8387 41.9536 22.3675C40.9163 22.5409 39.8426 22.3371 38.6208 22.6717Z" fill="#94AA65"/>
<path d="M39.2687 86.3624C38.0723 86.5906 36.1995 85.7287 37.8715 84.7918C39.0882 85.0179 41.9435 84.1753 41.7671 85.6212C41.4416 86.6585 40.2948 86.2154 39.2687 86.3624ZM45.4183 85.1792C42.2629 84.3771 50.4991 80.3741 48.5077 83.5568C47.6652 84.1196 46.5883 84.8882 45.4142 85.1792H45.4183ZM33.7326 84.8375C32.7622 84.6296 29.9242 82.1211 31.0963 81.3992C32.0515 80.8212 32.5159 82.2549 33.2712 82.7781C34.1473 83.3642 35.2728 84.3862 33.7326 84.8375ZM50.9848 80.2859C50.1736 80.1612 50.0479 79.4636 50.5701 78.6179C52.1458 71.933 53.7742 78.986 50.9848 80.2859ZM29.8948 78.5804C27.1957 77.3901 31.1207 70.5561 30.6096 76.1378C30.419 76.949 31.1247 78.4141 29.8948 78.5804ZM50.9402 73.023C50.2396 72.7067 46.3886 69.17 49.1486 69.3799C50.0418 69.8402 53.0472 72.6357 50.9402 73.026V73.023ZM32.2167 71.6532C29.0431 70.5429 36.9011 67.1918 37.692 67.7657C38.561 68.4329 37.8999 69.1923 36.9143 69.3302C35.0994 69.7023 33.7529 70.7731 32.2167 71.6532V71.6532ZM44.8038 68.8729C43.8852 68.4258 40.09 69.0392 41.2652 67.2283C42.2852 66.3928 47.5678 67.6096 44.8038 68.8729Z" fill="#94AA65"/>
<path d="M61.2824 54.9283C53.7042 52.799 56.1944 49.8048 59.6408 47.3693C66.0814 42.8208 72.9732 21.3425 59.361 12.2525C45.7488 3.16248 28.0647 7.33181 21.7498 11.1209C12.4814 16.6814 10.636 37.2867 16.9508 43.78C23.2657 50.2733 23.6429 52.1683 18.7192 55.9574C13.7955 59.7465 5.2601 82.2388 15.0568 93.8474C24.8535 105.456 58.8834 103.574 67.9764 91.3227C77.0695 79.0712 68.8606 57.0565 61.2824 54.9283ZM31.8548 20.7209C37.7914 15.6705 52.5676 17.9407 52.9448 28.6763C53.3219 39.4119 43.6003 44.3366 35.0102 41.1802C26.42 38.0238 25.2287 26.3625 31.8548 20.7209V20.7209ZM44.9894 87.0276C31.0984 91.0692 22.0145 78.4091 29.8299 69.4722C36.015 62.4 42.8429 64.5465 49.2844 66.8796C55.726 69.2127 58.8834 82.985 44.9894 87.0276Z" fill="#CDE2A3"/>
<path d="M23.1572 10.3625C14.1524 16.7756 14.9341 31.8378 20.9934 33.8565C27.0527 35.8753 20.3293 21.4803 29.8806 17.1843C39.432 12.8882 50.345 18.6149 51.8953 13.9001C53.4456 9.18528 34.4119 2.34624 23.1572 10.3625V10.3625Z" fill="#DDEDB7"/>
</svg>
