<svg width="74" height="115" viewBox="0 0 74 115" fill="none" xmlns="http://www.w3.org/2000/svg">
<path opacity="0.15" d="M29.0152 83.5052C21.6479 83.3886 16.0834 80.3478 12.5356 81.1042C8.18986 81.8636 3.88365 85.6588 1.87199 90.55C-2.31356 101.44 6.84031 108.591 14.892 111.379C25.6946 115.358 40.4565 114.711 50.5939 110.939C81.5425 100.751 73.9774 62.3249 61.293 54.474C75.3686 40.3052 69.6976 19.6492 58.3526 10.18C46.0799 0.384264 20.3916 2.73052 10.529 7.37438C7.35843 8.90847 4.9706 11.8783 3.30368 15.3896C-1.0806 25.0271 0.590371 37.1315 12.5752 33.6091C22.5108 30.8238 34.2826 22.9059 36.0063 38.2509C35.6758 44.2058 25.9815 44.2798 18.892 44.581C12.7425 44.1582 9.80812 47.7191 8.28923 53.9711C6.75108 61.162 8.8834 68.2819 14.021 69.7216C20.0631 70.6038 26.5463 67.4504 33.1055 69.4986C40.1453 71.1787 38.3293 84.3518 29.0152 83.5052Z" fill="black"/>
<path d="M12.7658 4.62151C2.88695 8.94395 -0.332313 29.0464 8.87124 30.114C18.0748 31.1817 31.8806 18.0775 37.1906 30.114C42.5006 42.1505 27.9871 41.7946 18.0758 42.1495C8.16452 42.5044 6.39925 67.9848 19.1374 65.8605C31.8755 63.7363 41.2292 64.0922 39.3868 74.3574C37.5445 84.6225 25.1572 80.3731 17.0132 78.6038C8.86921 76.8344 -3.5171 91.348 7.45577 101.967C18.4287 112.586 47.4568 113.296 63.0309 100.904C78.6051 88.513 74.3597 58.4263 61.6165 51.348C77.5455 36.1267 69.0497 14.0258 58.0758 6.48919C47.1019 -1.04743 24.0935 -0.33362 12.7658 4.62151V4.62151Z" fill="#90D4F7"/>
<path d="M33.2738 110.824C1.60532 110.439 -4.48441 90.1921 9.37009 79.8489C14.2755 76.3498 17.9582 78.0897 22.0809 79.0023C29.3812 80.6357 38.2025 82.2469 38.8342 72.7158C39.6535 64.4319 29.7412 65.3424 23.9171 65.9356C4.62889 71.3176 7.92015 47.3642 14.1052 42.8897C17.9582 38.8035 46.744 45.4408 34.7044 27.635C26.748 19.6755 6.44182 41.2461 2.86667 24.2646C1.7706 17.5726 5.06084 8.50695 10.962 4.72495C17.433 0.971338 29.9785 -0.259588 37.7828 0.189588C44.8327 0.427865 55.1871 2.39998 60.6766 7.565C72.3186 18.2205 75.9485 38.1049 62.8433 51.204C74.816 59.3328 77.2271 83.1209 68.7567 95.6613C62.0991 105.984 47.0512 110.8 33.2738 110.824ZM15.6028 79.2142C5.88213 80.0162 -1.22864 93.9711 8.76375 102.129C23.5217 114.373 57.8061 110.36 67.4456 94.8988C75.7671 82.544 72.8976 60.1014 62.2745 52.6469C61.5191 52.0507 59.8259 51.7556 61.7797 50.1232C63.3703 48.5254 64.7657 46.7447 65.9369 44.8182C75.2651 29.7105 65.87 7.57818 50.2989 3.75359C38.4591 0.0932639 20.9098 1.4195 12.2639 5.71456C3.51559 10.4192 0.670468 29.3982 9.72902 29.4094C18.093 29.529 28.7972 20.2129 35.5044 26.2803C37.9916 28.5242 39.7569 33.8352 38.8271 36.5384C36.6147 43.7009 24.0499 42.1435 16.7607 43.1412C9.69759 45.3881 8.22433 63.6258 16.5387 65.1305C22.602 65.1538 26.6112 63.4129 32.5691 64.2494C44.2051 65.2836 41.1774 79.3916 34.9062 81.0869C28.0976 83.1341 21.8669 79.9412 15.6028 79.2142V79.2142Z" fill="#58B1C6"/>
<path d="M33.9785 107.745C33.2859 107.955 31.8492 107.206 32.9473 106.326C33.7706 106.158 36.1726 106.03 36.8591 106.369C38.0636 108.104 34.9579 107.681 33.9785 107.745ZM28.7861 107.47C27.6403 107.203 24.5447 107.491 25.0953 105.981C25.6824 104.825 31.7326 106.289 28.781 107.47H28.7861ZM40.8733 107.245C37.6996 105.996 45.1318 104.217 44.6076 106.018C44.269 107.232 41.7747 106.921 40.8733 107.245ZM21.3417 106.093C20.2071 105.841 19.0944 105.5 18.0139 105.072C15.7812 102.175 24.7749 104.983 21.3366 106.093H21.3417ZM48.2294 105.474C44.9513 104.442 53.4948 101.291 51.5298 104.215C50.5229 104.759 49.3904 105.146 48.2243 105.474H48.2294ZM14.3303 103.293C13.3741 103.055 9.51306 100.295 12.0601 99.9158C12.928 100.482 16.6208 102.735 14.3252 103.293H14.3303ZM55.1019 102.319C51.9921 101.567 60.0185 97.1701 58.0788 100.517C57.1916 101.06 56.198 101.988 55.0968 102.319H55.1019ZM61.1369 97.7653C58.82 97.598 63.1425 93.2826 63.7366 94.259C64.7232 95.1077 61.6966 97.6628 61.1318 97.7653H61.1369ZM9.32852 97.744C7.95057 97.671 6.75108 91.6603 9.1085 93.7764C9.23828 95.0935 10.9326 97.6223 9.32852 97.744ZM65.9065 91.9189C64.1118 91.7262 66.452 88.653 66.8089 87.8448C69.4401 86.7072 66.7764 92.0385 65.9044 91.9158L65.9065 91.9189ZM8.51027 90.3422C6.82915 90.2854 8.67047 86.2246 9.34981 86.0248C11.4152 85.3404 9.14601 90.5632 8.51027 90.3422ZM29.5506 85.6274C25.438 85.8961 26.2918 84.0649 27.3341 83.9949C32.8297 83.8094 31.11 85.8535 29.5506 85.6274ZM34.7896 85.1123C32.0246 84.1379 37.3823 82.4415 38.0586 82.7265C39.6667 84.1257 35.5622 84.9389 34.7896 85.1123ZM68.6279 84.876C67.3098 84.6966 68.1868 83.0509 68.2304 82.0319C68.1503 80.6347 69.1714 79.636 69.8527 81.0007C69.7706 82.2824 69.6286 84.9156 68.6269 84.876H68.6279ZM22.8352 84.4857C21.9227 84.2829 20.8155 83.7506 19.7579 83.4514C16.855 80.441 26.3273 83.2446 22.8352 84.4857ZM12.6522 84.2494C9.24842 82.9475 18.2624 80.1521 15.836 83.1493C14.751 83.4433 13.6873 83.8108 12.6522 84.2494ZM41.1521 81.2897C39.2915 81.0149 41.8619 78.2722 42.2127 77.3191C44.9219 76.2626 42.1549 81.3343 41.1521 81.2897ZM69.2271 77.3414C68.127 77.4773 67.6454 71.9533 69.2444 72.8649C70.1427 73.3353 70.3475 77.6415 69.2271 77.3414ZM43.5957 74.2519C42.5574 74.1242 42.9174 73.0788 42.8129 72.1338C42.5027 70.7488 42.5888 68.8466 44.0459 70.1455C44.3399 71.3196 44.8449 74.2083 43.5957 74.2519ZM68.0631 69.8656C67.038 69.8393 65.4269 64.3255 67.6575 65.6324C68.2395 66.5987 69.5567 69.9062 68.0631 69.8656ZM41.7767 67.0012C40.8722 66.6737 37.3336 62.548 40.2984 63.3642C41.076 64.0547 43.7944 66.6099 41.7767 67.0012ZM18.9924 62.7974C18.0383 62.9455 16.0165 62.5511 17.3549 61.3201C18.4915 61.1173 19.5247 61.3465 20.8814 61.2502C22.8139 62.4902 20.0205 62.9881 18.9924 62.7974V62.7974ZM65.3934 62.7843C64.3937 62.5936 61.7432 57.675 64.3967 58.8299C65.0213 59.7364 67.1962 62.6149 65.3934 62.7843ZM35.7954 62.6616C35.0117 62.2834 30.6416 62.4385 32.491 60.6935C33.7463 60.3153 38.4469 61.4651 35.7954 62.6616ZM25.2504 62.3716C21.6641 60.5992 31.4284 59.6451 28.5174 62.0857C27.4984 62.2682 26.2999 62.2286 25.2484 62.3685L25.2504 62.3716ZM14.1985 60.2423C11.5257 58.8715 13.3873 53.0433 14.3262 57.0991C14.308 58.4608 15.7691 59.8621 14.1954 60.2362L14.1985 60.2423ZM61.0274 56.6408C59.9982 56.1794 59.0806 55.271 57.9643 54.8157C56.3156 51.4524 64.1635 55.8519 61.0243 56.6347L61.0274 56.6408ZM13.9308 52.7888C12.2821 52.7584 14.0768 48.6915 14.6862 48.4613C16.7982 47.6948 14.6 53.0423 13.9308 52.7888ZM57.0558 51.3247C54.0079 50.6251 61.4157 44.9531 59.2935 49.0454C58.1001 49.9214 58.1934 50.9222 57.0558 51.3247V51.3247ZM17.8994 46.6099C14.2766 44.9034 24.2984 43.2537 20.9351 45.9285C19.6089 46.0522 18.8332 46.3604 17.8994 46.6099ZM62.2674 45.8646C60.3409 45.5655 63.0674 42.7762 63.5967 41.9417C66.3232 41.2056 63.1262 45.8737 62.2674 45.8646ZM25.3843 45.6334C22.2644 44.0598 29.1034 43.3957 29.1359 44.4755C29.6185 46.111 26.1336 45.3982 25.3863 45.6334H25.3843ZM32.9361 44.9774C30.0707 43.8276 35.7752 42.4426 36.3693 42.9039C37.7574 44.4481 33.7858 44.7523 32.9382 44.9774H32.9361ZM39.7579 41.9528C37.8101 41.7683 40.6705 38.7538 41.1896 37.9985C43.688 37.5726 40.7769 41.8879 39.7579 41.9528ZM65.8821 39.2395C64.7232 39.0976 65.2616 37.8778 65.5779 36.9835C65.799 35.6654 66.5605 33.7287 67.4933 35.5062C67.2966 36.7361 66.8028 39.2263 65.8821 39.2395V39.2395ZM42.3516 35.0408C41.4776 34.9394 41.6074 34.1952 41.5546 33.3445C40.4565 26.3341 45.0385 33.967 42.3516 35.0408ZM67.3757 31.8377C66.1052 31.6187 66.8261 30.0704 66.6324 28.9723C66.306 27.637 67.2276 26.6281 68.052 27.7952C68.1787 28.8578 68.5711 31.8377 67.3757 31.8377ZM10.8099 27.9097C9.88517 28.1125 7.95362 27.0377 9.61445 26.2428C10.6766 26.4183 11.7624 26.3911 12.8145 26.1627C14.9873 27.2243 11.8522 28.1034 10.8099 27.9097ZM40.2406 27.8631C39.4294 27.5701 35.9577 23.6735 38.6497 24.0781C39.5399 24.7037 42.2319 27.5792 40.2406 27.8631ZM17.0213 26.1647C14.3212 25.3688 19.4791 23.1037 20.2588 23.5974C21.655 24.8933 18.0849 25.6973 17.0213 26.1647ZM66.5696 24.3346C65.5992 24.296 63.7782 18.9242 66.0393 20.1085C66.6973 21.0312 68.0996 24.364 66.5696 24.3346ZM7.34221 24.1156C5.24842 23.7262 6.80482 16.6743 7.85729 20.7523C7.66363 21.9285 8.7455 23.9523 7.34221 24.1156V24.1156ZM24.0662 23.3794C21.002 22.1627 27.8999 20.2879 27.762 21.8007C27.7772 23.1371 25.0314 22.8948 24.0662 23.3794ZM34.4976 23.1341C33.7158 22.6849 29.3691 22.7427 31.2246 21.0585C32.2548 20.656 37.1896 21.9549 34.4976 23.1341V23.1341ZM63.4537 17.4611C62.7207 17.2887 60.2466 14.1222 61.1764 13.6791C62.166 12.73 65.5465 17.5168 63.4537 17.4611ZM7.77212 16.6114C6.12244 16.4948 7.90292 12.9754 8.34905 12.3822C10.743 11.1452 8.52852 16.8426 7.77212 16.6114ZM58.5158 11.7414C57.5739 11.4555 56.7425 10.2834 55.7336 9.6598C54.019 6.02077 61.5577 11.2071 58.5158 11.7414ZM11.2428 9.95283C8.4545 9.24307 14.6172 5.3546 15.5196 5.81899C16.4068 6.31785 15.9739 7.18781 14.9356 7.46563C13.0679 8.12064 12.635 9.32115 11.2428 9.95283ZM52.2862 7.4849C51.3047 7.11785 49.9764 6.65144 48.9077 6.06538C47.398 3.10061 55.5541 6.63116 52.2862 7.4849ZM19.5562 5.89605C16.5569 4.70771 22.967 3.05701 23.1952 4.14092C23.8938 5.63344 20.2385 5.54016 19.5562 5.89605ZM45.1125 5.10112C44.1909 4.89123 39.5947 4.58401 42.0322 3.06208C43.2053 3.01443 47.7194 3.8124 45.1125 5.10112ZM27.0086 4.53331C23.4385 2.79846 33.1511 1.71455 30.2816 4.1977C29.2707 4.3944 28.0976 4.36703 27.0086 4.53331ZM37.6033 4.14193C36.5985 4.06487 32.2294 4.42989 34.3678 2.58046C35.5176 2.3067 40.2902 2.6048 37.6033 4.14193V4.14193Z" fill="#58B1C6"/>
<path d="M14.6243 9.7196C8.12497 13.239 8.18276 24.369 13.1034 22.7275C18.0241 21.0859 26.9944 15.782 38.1752 20.7067C49.3559 25.6314 47.838 41.168 41.9014 44.5779C35.9648 47.9878 29.0233 48.1409 22.961 48.5678C16.8986 48.9946 17.5283 58.2185 23.4679 56.9541C29.4076 55.6897 40.9696 55.9401 46.4895 68.5728C52.0094 81.2055 39.5085 88.9074 30.165 87.7718C20.8215 86.6362 15.0816 82.7822 11.9759 89.2887C8.87021 95.7951 19.9952 105.549 39.2935 102.369C58.5919 99.1878 65.7777 85.5979 64.8945 72.587C64.0114 59.5761 53.1511 57.966 53.1511 51.9026C53.1511 45.8392 70.4702 36.5637 61.3549 20.076C52.2395 3.5883 26.749 3.1523 14.6243 9.7196V9.7196Z" fill="#A2E2FC"/>
<path d="M18.7288 9.39621C12.3663 12.9379 13.0507 19.3815 21.5678 15.5924C30.0849 11.8033 40.1341 13.2685 47.1435 20.0193C54.1529 26.7701 55.981 30.7539 59.9577 29.4276C63.9344 28.1014 60.7769 15.4707 48.2842 9.39621C35.7914 3.32168 24.4129 6.23169 18.7288 9.39621V9.39621Z" fill="#B3EDFF"/>
</svg>
