<svg width="80" height="111" viewBox="0 0 80 111" fill="none" xmlns="http://www.w3.org/2000/svg">
<path opacity="0.15" d="M70.2132 63.851C87.8923 41.2401 75.2565 6.4558 44.0362 3.5103C4.45703 1.94071 -8.90976 39.5782 11.7077 45.5179C21.2824 47.0277 22.3541 38.8604 25.7823 35.853C30.5741 30.6363 38.5265 30.7833 42.0743 36.9065C46.5234 45.0495 33.5805 52.9278 27.5354 57.96C20.0058 63.6411 12.4378 68.9481 7.5455 74.6261C2.8834 79.8814 0.833205 87.1108 0.89607 93.2989C0.89607 101.176 4.09607 108.015 8.80481 108.724C22.9341 111.689 61.2763 111.312 70.4575 106.469C77.9516 102.186 77.0309 82.1831 70.0337 77.5869C64.9944 74.7275 56.4722 77.0596 50.9848 77.745C56.3688 75.0368 62.5295 72.6997 70.2132 63.851V63.851Z" fill="black"/>
<path d="M23.3944 36.729C17.5906 47.2619 0.3891 40.2728 5.34119 23.2801C10.2933 6.28747 41.8015 -7.87121 63.3944 7.35008C84.9873 22.5714 80.7399 48.7706 71.1825 60.0923C61.6251 71.414 51.3589 73.1904 50.6512 74.9607C49.9435 76.7311 65.5186 71.42 71.1825 74.9607C76.8464 78.5014 78.9696 95.8479 72.602 101.863C66.2345 107.877 14.199 107.527 8.53105 103.992C2.86312 100.457 0.389101 85.234 7.82129 74.2571C15.2535 63.2801 37.1019 52.3103 43.8274 42.0441C50.5529 31.778 32.9518 19.3856 23.3944 36.729V36.729Z" fill="#FFCE78"/>
<path d="M36.2096 107.298C8.26438 107.035 7.55969 104.938 5.41014 101.811C0.543217 93.6994 1.91102 81.4307 7.33663 73.6234C18.7972 57.528 54.8662 43.7557 41.7387 31.2599C36.7856 27.0013 30.5346 28.6976 26.6309 33.3526C24.1387 36.3782 22.7252 40.2829 19.5384 41.5138C5.44258 46.4386 0.242076 29.1549 6.14626 19.3156C13.4466 5.889 31.7483 -1.08185 45.8806 0.266697C75.2951 3.42614 87.3853 33.5615 74.8591 56.0984C68.7906 66.5866 58.1057 71.9088 52.529 74.4761C58.202 73.7055 67.5627 71.3785 72.0221 74.6201C78.2213 79.5427 79.1896 96.2038 73.4416 102.098C69.6281 106.219 51.4725 107.216 36.2096 107.298V107.298ZM35.3924 27.3136C45.4669 27.7425 49.0583 37.964 43.1774 44.2079C29.8025 59.782 5.76299 67.3197 4.164 86.4487C2.90063 106.728 12.7227 104.112 18.3359 105.093C37.0532 106.744 63.1632 105.321 69.8684 102.521C71.3285 101.942 72.6416 101.515 74.2497 98.1029C76.1174 93.3851 76.2066 88.4036 74.7901 82.5288C71.8497 66.1972 49.5805 80.3721 49.9485 74.6789C50.0915 73.7663 53.4527 72.3539 54.3703 71.8986C57.5247 70.3777 61.8177 68.1612 66.4302 63.9564C76.2654 55.1433 78.7435 44.2353 78.129 33.8768C75.146 3.05301 38.3643 -9.05548 13.2814 12.6652C-4.85197 29.7491 11.6378 48.3113 21.545 38.0746C22.7283 36.6348 24.6314 32.8355 26.5133 31.2436C29.906 27.9138 33.3067 27.3247 35.3924 27.3136V27.3136Z" fill="#D6A051"/>
<path d="M35.4583 103.635C34.4018 103.674 30.4099 103.897 32.4804 102.132C38.2771 101.503 36.384 103.828 35.4583 103.635ZM40.2613 103.594C36.5676 101.508 46.9807 101.381 43.3153 103.527C42.4677 103.55 41.2378 103.579 40.2613 103.594ZM28.1336 103.539C27.0477 103.521 22.7262 103.714 24.9305 101.94C26.0874 101.744 30.8276 102.01 28.1336 103.539ZM47.8416 103.359C44.1762 101.353 54.5022 100.964 50.9169 103.196C50.0722 103.246 48.8413 103.321 47.8416 103.359ZM20.5665 103.197C19.436 103.051 18.1594 103.179 17.1009 102.817C14.853 100.319 24.1052 101.651 20.5605 103.197H20.5665ZM55.4127 102.863C52.5736 101.418 58.0378 100.763 58.9057 101.215C60.3597 103.038 56.3171 102.639 55.4066 102.863H55.4127ZM13.0299 102.369C11.5425 102.267 7.98251 100.875 10.1118 99.8013C11.0416 99.851 11.2048 100.499 11.9044 100.568C13.7032 100.735 14.5194 101.879 13.0269 102.369H13.0299ZM62.9361 101.949C59.9602 100.727 66.197 99.3055 66.5569 100.203C67.4319 101.727 63.7605 101.68 62.9331 101.949H62.9361ZM70.1574 99.7871C68.0038 99.7466 71.7554 95.7618 72.3313 96.0234C74.0205 96.5273 71.0994 99.6553 70.1544 99.7871H70.1574ZM7.61952 97.6578C6.08339 97.6071 5.51255 91.0581 7.63777 93.8566C7.62256 95.3217 9.2185 97.4469 7.61647 97.6599L7.61952 97.6578ZM73.7447 93.2827C72.5402 93.1407 73.1931 91.7415 73.2743 90.7864C73.2023 89.3537 73.9323 87.8662 74.8905 89.3668C74.8844 90.6606 74.7587 93.3283 73.7447 93.2827ZM6.75767 90.1871C5.43954 89.9965 6.2223 88.2403 6.23954 87.2213C6.18479 85.816 7.37414 84.9805 7.89632 86.3564C7.62763 87.6665 7.8365 90.1851 6.75767 90.1871V90.1871ZM73.8867 85.7531C72.9295 85.7298 71.4776 80.5182 73.3716 81.3831C74.2091 81.9133 75.3194 85.9083 73.8867 85.7531ZM8.30494 82.7914C6.58124 82.6414 8.63346 79.3035 9.21749 78.6434C11.7087 77.6842 9.02991 82.8918 8.30494 82.7914V82.7914ZM52.3688 79.4251C48.6629 77.449 59.0132 77.0322 55.4512 79.269C54.3977 79.344 53.2023 79.4069 52.3688 79.4251ZM70.3967 79.2517C69.4061 78.758 68.3526 78.615 67.0882 78.4142C64.8251 75.5154 73.8603 77.8008 70.3967 79.2517ZM47.8527 79.0591C45.1668 78.7711 44.597 74.7945 46.5346 75.4697C47.2261 75.8682 46.6674 76.649 47.2626 77.1935C48.4499 77.6578 49.329 78.546 47.8527 79.0591ZM59.9298 78.8948C56.3465 77.1265 66.0986 76.1765 63.2048 78.613C62.1919 78.8087 60.9883 78.762 59.9298 78.8948ZM12.1508 76.3002C10.1331 75.9838 13.1384 72.9754 13.9435 72.4806C16.4631 72.3478 12.8342 76.1876 12.1508 76.3002ZM48.4307 73.1569C45.7741 72.7291 51.3569 68.651 51.6438 70.4518C51.7706 71.5843 48.9569 72.8325 48.4337 73.159L48.4307 73.1569ZM17.2611 70.7103C14.8276 70.5004 19.7016 65.8434 20.1691 67.5793C20.5219 68.5567 17.7194 70.5704 17.2611 70.7103ZM54.8438 69.1215C51.6368 68.2637 60.0048 64.1684 57.8502 67.4728C56.8433 67.997 55.875 68.8213 54.8438 69.1215ZM22.9158 65.668C19.946 65.0444 27.3914 60.0751 25.7407 63.5955C24.819 64.1826 24.0241 65.2979 22.9158 65.668ZM61.2722 65.1042C58.6867 64.7595 64.1113 60.5496 64.3982 62.248C64.673 63.3542 61.9627 64.7909 61.2722 65.1042ZM28.8717 60.9846C26.274 60.5324 31.5577 56.7808 31.9227 57.9833C32.6071 59.055 29.5389 60.6642 28.8717 60.9846ZM67.0253 60.1896C64.9488 59.632 67.9146 57.6082 68.3861 56.6662C71.4897 55.3613 68.1843 60.0619 67.0253 60.1896ZM35.0182 56.5526C32.3638 56.1866 38.1381 51.7962 38.2041 53.89C38.052 55.0287 35.8132 56.1623 35.0182 56.5526ZM71.4279 54.0573C69.6667 53.8819 71.8892 50.7539 72.2532 49.9519C74.8449 48.7706 72.2907 54.1973 71.4279 54.0573ZM40.9326 51.8206C38.5569 51.5955 43.0842 47.3866 43.6408 48.4137C44.5067 49.3425 41.6758 51.5478 40.9326 51.8206ZM74.1676 47.0084C73.0248 46.8695 73.5349 45.6832 73.7539 44.7777C73.8816 43.3197 74.6593 41.453 75.5901 43.2294C75.3965 44.4817 75.1267 47.0398 74.1676 47.0084V47.0084ZM46.1098 46.2986C44.1447 45.9945 47.0142 43.0875 47.5151 42.395C50.202 41.7471 47.0041 46.2125 46.1098 46.2976V46.2986ZM49.9171 39.78C49.3888 39.7547 48.9103 39.124 49.3199 38.4406C50.7648 31.2589 52.6963 38.1466 49.9171 39.779V39.78ZM75.3904 39.5438C74.0591 39.341 74.8834 37.4652 74.706 36.4127C74.4322 35.5509 75.4694 34.2267 76.1853 35.5428C76.237 36.3387 76.5432 39.6665 75.3904 39.5438V39.5438ZM12.5716 38.3199C11.58 38.2834 7.51001 35.6482 10.1828 35.1767C11.0984 35.9443 14.9392 37.5544 12.5716 38.3199ZM17.0269 38.2185C14.9189 37.3973 17.5855 36.43 18.3734 35.8561C19.5039 34.4518 21.111 35.3663 19.8517 36.6044C18.9371 37.3537 18.1432 37.964 17.0269 38.2256V38.2185ZM22.4474 33.1022C20.4895 32.8487 23.3082 29.7116 24.0484 29.1762C26.5376 28.8639 23.1876 33.016 22.4474 33.1063V33.1022ZM7.86895 32.7504C6.37237 32.7139 6.12192 26.2895 8.13967 28.7818C8.10317 30.2378 9.28745 32.7017 7.86895 32.7504ZM50.1655 32.3884C49.4071 32.1592 46.2983 27.7922 48.8707 28.4421C49.8279 29.1509 52.0099 32.2089 50.1655 32.3864V32.3884ZM75.0953 31.9828C74.0814 32.0518 73.0512 26.6708 74.8286 27.5499C75.6834 28.0862 76.3648 32.2343 75.0953 31.9838V31.9828ZM27.4451 27.4535C24.1579 26.321 32.8971 22.6312 30.3561 25.9245C29.3605 26.2064 28.5077 27.0855 27.4451 27.4535ZM44.7997 27.2954C43.9318 27.0632 42.8459 26.472 41.7488 26.1942C38.8935 23.1179 48.307 26.0705 44.7997 27.2954ZM8.08187 25.2847C5.96882 25.0819 9.45475 20.0406 10.0641 19.5438C12.4256 19.2893 10.2112 21.7177 9.69201 22.7357C8.99341 23.5803 9.24689 24.9481 8.08187 25.2847V25.2847ZM37.5288 25.2675C36.2056 24.9298 33.8238 25.5717 33.7468 24.3722C33.7052 22.6109 40.6598 23.8743 37.5288 25.2675ZM73.183 24.6692C72.2705 24.5679 69.9587 19.5722 72.3404 20.5121C73.04 21.377 74.857 24.6388 73.183 24.6692ZM69.5399 18.0482C68.6872 17.8099 65.1871 13.8262 67.9673 14.2966C68.7916 15.049 71.5536 17.7379 69.5399 18.0482ZM13.1648 17.3962C11.075 17.012 14.3278 14.0938 15.1531 13.6883C17.6403 13.742 13.8745 17.2016 13.1648 17.3962ZM64.233 12.6743C63.5029 12.3022 59.5049 10.3311 61.5359 9.49155C62.6106 9.47634 66.6147 12.145 64.233 12.6743ZM18.7202 12.2586C15.5881 11.416 23.7087 7.03477 21.6271 10.4538C20.6943 10.905 19.803 11.9007 18.7202 12.2616V12.2586ZM57.6768 8.90549C56.7987 8.67634 55.6834 8.08623 54.6066 7.75061C51.8629 4.65809 61.1455 7.74352 57.6768 8.90549ZM25.257 8.4624C22.5944 7.52856 27.5465 5.66595 28.4124 5.92146C29.5186 6.71335 28.3972 7.41804 27.3904 7.65327C26.6056 7.89662 26.124 8.25961 25.257 8.4624ZM50.4981 6.51665C49.5004 6.12932 45.9303 6.26924 46.9412 4.6804C47.8041 3.80942 53.2996 5.4155 50.4981 6.51665V6.51665ZM32.4601 6.16379C29.4061 4.8335 36.0342 3.49003 36.1478 4.6155C36.749 6.13845 33.1708 5.80891 32.4601 6.16379ZM43.0101 5.41956C42.0084 5.23401 37.9992 5.90422 39.5901 3.94428C40.7146 3.44744 45.7569 3.92095 43.0101 5.41956Z" fill="#D6A051"/>
<path d="M14.5478 20.3995C9.32902 26.8614 11.9409 32.4786 16.0231 32.1856C20.1052 31.8925 22.125 20.3995 38.1655 21.1569C54.2061 21.9143 56.9853 37.5757 50.1645 47.4282C43.3437 57.2806 24.1518 67.3085 15.9369 75.5944C7.72192 83.8804 8.99037 94.2875 13.2844 97.5706C17.5785 100.854 54.711 103.884 68.7288 95.1696C71.1278 91.5072 72.3911 81.0221 67.0862 81.1498C61.7812 81.2776 43.1085 86.9607 41.0796 76.8568C39.0507 66.7529 63.0639 62.2134 69.257 49.8302C75.4502 37.4469 71.7615 15.2223 53.9526 9.6649C36.1437 4.10749 21.6727 11.5782 14.5478 20.3995V20.3995Z" fill="#FFE19B"/>
<path d="M23.5648 12.9399C17.1526 16.9379 19.0314 22.9262 28.1275 19.3278C37.2236 15.7293 46.7485 16.7077 53.8928 24.5719C62.0398 33.5361 69.1516 24.4208 63.5556 17.8383C57.111 10.2611 37.7599 4.09025 23.5648 12.9399V12.9399Z" fill="#FFE8BB"/>
</svg>
