<svg width="74" height="112" viewBox="0 0 74 112" fill="none" xmlns="http://www.w3.org/2000/svg">
<path opacity="0.15" d="M7.79062 67.8418C15.598 71.5467 23.6446 68.8182 31.5067 70.5997C42.0608 72.9318 40.255 78.9059 36.1222 80.9642C30.5323 83.4413 25.8469 79.9979 20.7569 79.0499C13.6218 77.4377 6.30012 78.5277 4.62712 83.8428C3.34955 87.5802 3.26235 93.5148 4.72851 98.9404C7.46616 108.587 13.2041 108.504 20.766 110.351C39.8383 113.518 62.1521 111.613 68.1343 95.8935C71.6831 87.2669 72.7985 78.8593 71.4641 68.2484C70.362 60.8801 67.748 55.4727 64.0624 52.8253C46.9115 43.1493 21.1463 54.0978 24.62 39.6938C25.7009 36.004 28.0157 33.7673 30.8497 33.7977C41.4373 33.3729 51.9823 35.5893 60.0035 34.2712C65.0043 33.6091 66.6753 24.1582 66.0973 18.3523C65.489 11.1533 62.5698 7.83166 59.0312 6.73661C48.0137 2.83902 18.0456 1.03116 8.65247 8.2707C-1.18175 14.912 -2.10241 63.0986 7.79062 67.8418V67.8418Z" fill="black"/>
<path d="M62.3397 29.9802C67.888 27.7202 69.1605 9.4256 62.3397 5.11534C55.5189 0.805073 18.1977 -2.41622 9.67251 6.48923C1.14729 15.3947 0.768079 59.5356 9.67251 63.8935C18.577 68.2515 29.0439 63.2852 38.6591 68.6297C45.4789 72.4177 40.1739 82.838 27.4804 78.1019C18.7767 74.8573 10.8091 75.0986 7.77746 79.0621C4.74577 83.0256 5.126 99.131 11.9458 103.11C18.7655 107.088 45.857 111.256 61.0135 102.163C76.1699 93.0697 76.3595 54.9891 63.6659 49.3049C50.9724 43.6208 34.1116 47.0317 28.2388 44C22.3661 40.9683 25.7759 31.8753 30.1328 30.1698C34.4898 28.4644 57.2244 32.0639 62.3397 29.9802V29.9802Z" fill="#FFCE78"/>
<path d="M36.7103 108.366C22.8041 108.194 12.0836 105.407 9.38961 101.917C4.99518 97.0342 4.28035 85.527 6.24639 80.3772C7.73891 75.8428 13.6603 74.6332 18.9582 75.2345C26.4613 75.9189 37.9189 83.0611 40.8512 73.7724C40.4284 61.8018 12.1779 70.4902 7.39924 62.9455C1.55285 54.9607 2.01723 35.4677 2.90139 26.3878C3.95184 16.507 6.18251 7.5569 10.655 4.66919C19.0221 -0.31636 30.0213 -0.108502 41.3419 0.281865C51.9985 1.03015 60.4902 2.53484 63.5868 5.09707C69.5255 9.90519 68.835 26.694 63.3151 30.3239C58.1267 32.5921 49.3085 30.8705 42.2038 30.7447C33.0084 30.3817 27.2086 28.6743 25.8682 38.4111C25.1686 48.9947 48.3016 41.9113 62.0598 47.8317C77.6015 52.509 75.8586 87.495 65.9574 98.7995C60.0096 106.509 45.3389 108.456 36.7103 108.366V108.366ZM16.3848 76.6155C8.2986 76.8182 7.02509 80.1207 6.73815 86.6687C6.67224 97.6193 10.3133 102.404 15.1204 103.687C28.3605 108.074 50.1227 108.574 61.4839 100.949C69.2355 95.5133 72.257 82.4385 72.037 71.4393C71.5818 59.3886 68.3371 50.3584 59.5087 48.5779C45.3855 44.3883 28.8198 48.5871 25.4525 42.5379C23.3861 39.5691 24.4618 34.8664 26.7189 31.9848C29.2801 28.3762 33.0053 28.9582 36.9658 28.9734C45.9757 29.1822 61.494 31.2426 63.2086 28.4482C67.3658 23.6542 67.1143 11.2294 63.2938 6.94143C57.7526 0.660066 18.1926 -0.842596 10.7087 6.546C3.06768 12.6611 1.37541 50.7741 8.09176 61.3435C10.362 65.2512 18.6945 65.2228 24.324 65.1336C50.4624 64.6205 44.1445 81.9427 31.5422 79.9321C26.4907 78.9364 20.8776 76.2981 16.3848 76.6155V76.6155Z" fill="#D6A051"/>
<path d="M34.1308 104.972C33.124 104.871 29.0063 105.253 30.7676 103.386C31.9234 103.06 36.8674 103.499 34.1308 104.972ZM38.6763 104.935C35.1823 103.295 44.3483 102.197 42.144 104.586C41.1361 105.003 39.8504 104.788 38.6763 104.935ZM26.581 104.335C25.3643 104.049 22.6266 104.161 22.8497 102.915C23.0991 101.469 29.6147 103.197 26.581 104.335ZM46.2068 104.108C43.0636 102.938 50.3812 100.957 49.926 102.763C49.6401 103.986 47.094 103.775 46.2068 104.113V104.108ZM19.1924 102.675C18.1055 102.36 14.1886 101.278 16.1506 100.057C17.0368 100.029 21.8134 101.772 19.1924 102.679V102.675ZM53.4981 102.08C50.1997 101.038 59.015 97.6243 56.6058 100.725C55.7359 101.141 54.6307 101.8 53.4981 102.084V102.08ZM12.9962 98.5825C12.037 98.4811 9.10875 93.9184 11.7409 94.6281C12.4213 95.6309 14.8781 98.3817 12.9962 98.5825ZM60.0228 98.2895C57.6127 98.2053 62.5485 93.1102 62.8882 95.202C62.8142 96.3802 60.9455 97.8859 60.0228 98.2895ZM64.7194 92.3944C62.9359 92.2078 65.2264 89.1224 65.6167 88.3082C68.2357 87.1909 65.5518 92.5364 64.7153 92.3944H64.7194ZM9.59037 91.853C8.20228 91.7749 7.47224 85.5797 9.64309 87.8428C9.73131 89.1103 11.0778 91.8053 9.59037 91.853ZM67.6101 85.4063C66.3387 85.2339 67.1032 83.8063 67.3202 82.8492C67.4357 81.5209 68.326 80.0233 69.124 81.6324C68.9455 82.8978 68.4933 85.4824 67.6101 85.4063V85.4063ZM9.13916 84.3812C7.31407 84.1683 9.54474 80.434 10.3721 80.2241C12.1019 80.2119 10.872 81.7744 10.366 82.5277C9.90773 83.1523 10.1105 84.2494 9.13916 84.3812ZM36.8421 83.8651C34.1825 82.4334 38.8365 82.0593 39.9326 81.7683C42.3093 83.1574 37.9118 83.8854 36.8421 83.8651ZM32.3128 83.6076C31.454 83.5062 26.7767 82.9424 29.271 81.5047C30.5354 81.601 34.8923 82.3321 32.3128 83.6076ZM24.9404 81.8555C23.8829 81.7399 19.1508 80.4238 22.2139 79.5518C23.2096 79.8144 27.4935 80.6388 24.9404 81.8555ZM43.4307 80.6317C41.7638 80.3072 43.4854 78.6737 43.8504 77.7612C44.1293 76.6692 45.052 75.8418 45.6289 77.0879C45.5103 78.3706 44.2935 80.4948 43.4327 80.6317H43.4307ZM17.5802 80.0588C16.2814 79.6654 13.0175 80.4897 13.9858 78.6393C14.7848 77.7348 20.4507 78.6616 17.5823 80.0588H17.5802ZM69.1392 77.9914C67.9458 77.8535 68.547 76.4563 68.5602 75.491C68.4416 74.0492 69.2061 72.5506 70.1582 74.0563C70.1095 75.3064 70.2221 78.0127 69.1412 77.9914H69.1392ZM45.3825 73.5108C44.5237 73.5817 43.1214 68.5627 44.6809 69.0849C45.8276 69.2593 46.7828 73.747 45.3825 73.5108ZM69.4798 70.4284C68.3351 70.547 68.0015 64.9916 69.5812 65.9559C70.4411 66.4132 70.5779 70.7234 69.4798 70.4253V70.4284ZM41.9006 66.981C41.0966 66.6707 36.5267 64.0121 39.6862 63.9047C40.6707 64.3853 44.1932 66.2367 41.8976 66.98L41.9006 66.981ZM35.0586 63.9077C34.1744 63.6735 29.5752 63.5903 31.9255 61.9609C33.1534 61.82 37.6624 62.5967 35.0555 63.9067L35.0586 63.9077ZM19.9437 63.4565C18.7321 63.3967 14.7817 63.493 16.6373 61.7531C17.6461 61.5615 22.6844 61.9731 19.9407 63.4555L19.9437 63.4565ZM24.4882 63.4099C20.7944 61.314 31.2177 61.1792 27.53 63.3298C26.657 63.3389 25.4626 63.3784 24.4852 63.4089L24.4882 63.4099ZM68.5085 62.9222C67.529 62.8826 65.9736 57.7014 67.9458 58.5754C68.7224 59.1716 69.9665 63.0519 68.5055 62.9211L68.5085 62.9222ZM12.5622 61.9863C11.6649 62.0877 8.04005 58.4689 10.6357 58.3898C12.6626 60.4664 14.3295 61.4692 12.5592 61.9853L12.5622 61.9863ZM65.5133 56.0172C64.6707 55.5721 60.8826 52.4279 63.5655 52.4522C64.4842 52.8456 67.6679 55.5995 65.5103 56.0162L65.5133 56.0172ZM8.73257 55.6857C7.60304 55.7353 6.35285 49.9062 8.58555 51.4758C9.00228 52.7138 10.146 55.7323 8.73257 55.6846V55.6857ZM59.0829 52.3762C58.069 51.9777 54.8071 52.072 55.4327 50.6616C56.0735 49.4165 61.9767 51.3551 59.0829 52.3751V52.3762ZM51.6071 51.1807C50.6327 50.9404 46.8416 51.5579 48.0634 49.6953C49.1402 48.9977 54.3934 49.7926 51.6071 51.1807ZM36.4568 51.0012C35.1549 50.8816 31.7054 51.3653 32.9343 49.5483C33.8215 48.9622 39.306 49.527 36.4568 51.0012ZM41.0033 50.983C37.6968 49.3303 45.566 48.6012 44.766 50.3919C44.2641 51.5397 41.9108 50.7356 41.0033 50.981V50.983ZM28.9496 50.1465C27.7734 49.9964 23.671 48.1835 26.2545 47.3805C27.0849 47.8438 31.4875 49.1488 28.9496 50.1445V50.1465ZM7.30596 48.2464C6.1166 48.3366 5.61977 42.5024 7.49455 43.8935C8.01876 44.7909 8.47503 48.4502 7.30596 48.2464ZM23.3364 45.4246C22.216 45.3445 20.1932 40.0831 22.655 41.3201C23.1153 42.4405 24.9992 45.3658 23.3364 45.4246ZM6.75133 40.6874C5.54474 40.8334 5.52243 35.4677 6.90545 36.1673C7.91534 36.3731 7.74905 41.0646 6.75133 40.6874ZM21.4342 38.1718C20.0066 37.9691 20.9333 35.4596 20.9759 34.5379C22.8436 30.8958 22.7828 38.5429 21.4342 38.1718ZM6.80406 33.1021C5.54981 32.9399 6.22205 31.277 6.15716 30.2692C5.98276 28.871 7.00684 27.8195 7.72776 29.1721C7.62738 30.4375 7.92953 33.1173 6.80406 33.1072V33.1021ZM23.7237 31.0955C21.5407 30.6301 25.0013 27.7384 25.8925 27.5326C28.3412 27.8114 24.3888 30.7336 23.7237 31.0955ZM54.6246 27.7191C51.1833 28.1247 51.4611 25.8575 53.7709 26.1982C57.7698 25.7369 57.2172 28.0456 54.6236 27.7191H54.6246ZM48.2875 27.4687C47.1478 27.5326 42.5425 27.202 45.3095 25.7602C46.4076 25.7359 50.9075 25.9407 48.2864 27.4687H48.2875ZM30.1379 27.3967C26.5627 25.7075 36.255 24.4279 33.3987 26.9789C32.2814 27.1736 31.1255 27.1898 30.1369 27.3967H30.1379ZM60.3534 27.0844C57.9747 26.3138 61.9422 24.6783 62.6854 23.8398C65.2122 24.2433 61.5326 27.0722 60.3483 27.0844H60.3534ZM40.7234 27.0154C35.451 27.3095 36.7447 25.3566 37.9858 25.4083C39.3191 25.2745 43.1914 25.5736 40.7184 27.0154H40.7234ZM7.44081 25.5564C6.18758 25.4154 6.89126 23.8175 6.94702 22.8583C6.9166 21.381 7.94778 20.2139 8.6403 21.7227C8.42028 22.9272 8.49835 25.5655 7.44081 25.5564V25.5564ZM64.3483 21.1427C63.4672 21.0413 63.5787 20.2819 63.6649 19.4484C63.3688 12.4532 67.0028 19.8824 64.3483 21.1427ZM8.81876 18.1059C7.19645 17.9214 8.8796 14.7873 9.05095 14.0137C11.5564 12.0537 9.72117 18.4243 8.81876 18.1059ZM63.1772 13.746C62.3011 13.5239 59.4581 8.91354 62.0426 9.7612C62.8041 10.5125 65.0144 13.5868 63.1792 13.7429L63.1772 13.746ZM11.5371 11.0611C9.43726 10.6849 12.7032 7.2811 13.565 7.03775C16.0025 6.92419 12.1901 10.7579 11.5392 11.058L11.5371 11.0611ZM58.1288 8.3143C57.3622 7.87932 53.8134 7.40784 54.6297 6.14041C55.5158 4.9683 60.8826 7.5721 58.1288 8.3143ZM17.7333 6.5683C14.5506 5.44181 22.1947 3.056 21.3835 5.30493C20.6322 6.32495 18.8193 6.07045 17.7333 6.5683ZM50.8446 6.27223C49.9189 6.09884 45.3207 5.80683 47.7541 4.27172C48.9536 4.23826 53.4586 4.95512 50.8446 6.27223ZM43.3344 5.24308C42.1785 4.95512 39.2036 5.51785 39.5959 3.98883C40.1131 2.6707 46.3346 3.96449 43.3344 5.24308ZM25.1655 5.14168C21.6634 3.50315 30.8771 2.31988 28.6129 4.76956C27.5665 5.14371 26.2657 4.94092 25.1655 5.14472V5.14168ZM35.7673 4.78376C30.5729 5.19643 31.6902 3.20201 33.0651 3.2375C34.5546 3.04891 38.1876 3.37134 35.7673 4.7868V4.78376Z" fill="#D6A051"/>
<path d="M55.8839 8.71987C62.0436 10.332 61.9463 19.5194 57.778 21.7926C53.6097 24.0659 33.5285 19.3308 24.8137 23.6877C16.0989 28.0446 16.6667 48.6955 26.7088 50.9688C36.7508 53.242 52.8289 51.9077 60.5136 54.8481C68.1982 57.7886 68.8816 81.4773 61.3775 91.3216C53.8733 101.166 27.2725 102.155 18.6976 97.385C10.1227 92.6154 10.8781 83.7891 15.7197 81.8494C20.5612 79.9097 35.233 90.3746 44.7062 82.6078C54.1795 74.841 48.4953 61.1995 33.7171 60.8202C18.9389 60.441 10.0355 61.9569 8.71029 43.5802C7.38506 25.2035 10.7939 11.9452 17.9929 8.72088C25.1919 5.49655 45.4991 6.00555 55.8839 8.71987V8.71987Z" fill="#FFE19B"/>
<path d="M39.529 9.48034C37.0023 6.20328 21.1371 7.64815 16.2084 12.3092C11.2796 16.9703 8.7052 35.4991 12.6241 36.6357C16.543 37.7724 17.3653 22.1232 23.9326 17.7024C30.4999 13.2816 42.4593 13.2826 39.529 9.48034V9.48034Z" fill="#FFE8BB"/>
</svg>
