<svg width="78" height="112" viewBox="0 0 78 112" fill="none" xmlns="http://www.w3.org/2000/svg">
<path opacity="0.15" d="M57.3453 5.23501C40.2918 1.26847 8.31205 3.78609 4.61319 11.1159C0.360721 18.4264 -0.328759 38.1881 2.70698 45.7927C3.63778 48.4938 6.40584 50.7711 10.4231 51.2274C15.1095 51.778 20.3668 49.9306 21.3037 46.0188C21.9384 42.542 21.1486 38.2591 24.0292 35.4119C27.9207 31.5143 40.239 32.2799 44.3851 35.8175C49.9739 39.9118 41.5704 54.5876 36.2938 63.4981C27.6216 77.0231 11.9197 104.335 29.687 110.263C38.8307 113.524 51.6266 111.868 53.3361 107.4C55.146 104.578 57.4507 99.4373 60.0281 92.5729C81.0705 32.5952 83.4127 10.3422 57.3453 5.23501V5.23501Z" fill="black"/>
<path d="M22.1483 42.399C21.1972 47.8033 9.70318 49.3181 5.8502 43.9321C4.0535 41.1295 3.59824 37.3607 3.23119 32.0487C2.81446 23.7151 3.91966 13.5138 6.77188 8.30519C10.8388 -0.110529 58.9128 -3.02967 71.2484 8.15614C79.8669 16.0162 77.5531 33.3871 73.3351 49.4732C54.7019 114.237 52.9001 105.881 44.6426 107.782C17.4122 109.067 21.6038 92.0081 31.0933 73.0383C45.4355 48.288 57.3371 32.3224 39.8081 29.2451C20.4276 26.547 22.9615 37.313 22.1483 42.399Z" fill="#90EEF7"/>
<path d="M41.6677 108.665C15.1521 108.332 21.7336 88.5141 32.5098 68.9186C51.5851 38.6434 50.3947 33.1792 41.9932 30.5511C37.5389 29.1316 31.0426 29.2664 27.6165 30.7711C20.7825 33.9721 24.9032 42.0543 21.543 45.1691C17.4244 49.4652 8.05756 48.7828 5.17087 44.2859C1.55008 39.2071 1.65959 21.09 4.41852 12.1876C5.43956 9.09608 6.04083 6.87555 8.83728 5.28062C20.4682 -0.912537 44.1944 -0.371092 53.0837 0.940949C74.851 3.79215 80.3861 12.6013 76.8799 36.6611C73.4325 55.3176 65.9293 78.0603 59.1562 95.42C54.5681 105.644 54.5022 108.322 41.6677 108.665ZM34.8408 28.0396C70.3288 28.6479 29.5207 67.2791 25.7661 88.216C24.3607 93.53 23.8396 99.6512 27.142 102.781C33.3098 108.94 51.0071 107.894 53.1688 103.954C59.1511 95.6309 70.5843 58.2672 73.9962 43.5518C78.052 25.4712 77.7387 10.7336 66.3633 5.96807C52.3202 -0.723943 18.9321 0.898363 9.36149 6.72549C7.726 7.63195 6.93513 9.21877 5.89786 12.505C3.08722 22.2317 2.18582 44.3366 9.73361 45.8738C13.3909 47.2761 18.777 46.4031 20.7856 43.711C21.8664 42.2459 21.4953 39.7465 21.7691 37.818C22.3734 30.1141 27.4137 28.142 34.8408 28.0396V28.0396Z" fill="#58C4C1"/>
<path d="M41.1404 105.087C37.6281 103.533 46.9554 102.169 44.5311 104.636C43.5272 105.044 42.3024 104.991 41.1404 105.087ZM36.6243 104.664C35.4603 104.374 32.8281 103.948 32.9823 102.903C32.9589 101.199 39.6672 103.854 36.6243 104.664ZM48.3577 103.083C46.0063 102.837 50.3805 99.2467 50.8692 99.5934C52.5655 100.323 49.1303 102.972 48.3577 103.083ZM29.9404 101.307C28.7389 101.157 25.9526 96.6642 28.6558 97.4702C29.6545 99.2254 31.7564 100.95 29.9404 101.307ZM52.966 97.1721C51.1856 96.9967 53.4426 93.8748 53.9039 93.0728C56.524 92.0223 53.7255 97.3384 52.962 97.1721H52.966ZM27.6591 94.3858C26.3176 94.1587 27.1521 92.4979 27.2444 91.4454C27.2839 90.0948 28.4337 89.1792 28.9681 90.5947C28.6314 92.0183 28.6426 94.4162 27.6591 94.3858ZM56.2015 90.3098C54.5346 90.181 56.4885 86.9364 56.9164 86.1526C59.4461 84.9247 57.039 90.4781 56.2015 90.3098ZM29.6028 87.0773C27.944 86.9617 29.833 83.6502 30.2923 82.8969C32.7845 81.6903 30.4028 87.2598 29.6028 87.0773V87.0773ZM59.0578 83.2761C57.3797 83.0591 59.2829 80.1795 59.5151 79.2355C62.0824 77.4003 60.0728 83.3988 59.0578 83.2761ZM32.6395 80.1329C30.857 79.9625 33.1039 76.7422 33.5785 76.0183C36.1579 74.9952 33.397 80.2647 32.6395 80.1278V80.1329ZM61.6768 76.1531C60.1447 75.8936 61.5176 73.9458 61.7346 72.9247C61.8847 71.6695 63.2251 71.2822 63.4289 72.5729C62.9949 73.815 62.6299 76.0791 61.6768 76.1531V76.1531ZM36.0951 73.3749C34.2771 73.1833 36.6385 70.0289 37.1496 69.2979C39.7686 68.3721 36.8352 73.4956 36.0951 73.3749ZM64.1103 68.9653C62.6978 68.7432 63.7716 67.054 64.0089 66.0512C64.1883 64.869 65.0857 63.855 65.7752 65.1488C65.6028 66.3574 64.9782 68.9724 64.1103 68.9653V68.9653ZM39.7412 66.7174C37.8948 66.5075 40.3587 63.3379 40.8373 62.6616C43.4512 61.7663 40.5128 66.7934 39.7412 66.7174ZM66.3754 61.7187C65.0928 61.5463 65.8776 60.0872 66.129 59.127C66.2994 57.6781 67.3894 56.3792 67.9896 58.0573C67.6246 59.2933 67.3549 61.6538 66.3754 61.7187V61.7187ZM43.4431 60.1024C41.5977 59.8996 44.0636 56.7128 44.526 56.0396C47.1369 55.125 44.2299 60.1704 43.4431 60.1024ZM68.458 54.4244C67.3052 54.2844 67.8264 53.0738 68.0788 52.1541C68.2563 50.8026 69.0928 48.8771 69.9891 50.6778C69.7488 51.8591 69.3706 54.474 68.458 54.4213V54.4244ZM47.076 53.4429C45.251 53.2512 47.6682 49.9955 48.0586 49.3536C50.6471 48.3407 47.9034 53.5169 47.076 53.4429ZM70.3186 47.0642C68.9711 46.8857 69.9029 45.1519 70.0327 44.147C70.0631 42.8827 71.1095 41.8312 71.7371 43.2609C71.5526 44.432 71.2667 47.1179 70.3217 47.0642H70.3186ZM50.4241 46.6353C48.8241 46.686 50.6674 42.9354 51.2352 42.3767C53.5044 41.5331 51.3143 46.7042 50.4271 46.6353H50.4241ZM14.0702 45.0515C13.1577 45.014 9.98505 44.8223 11.1714 43.2923C12.3293 42.8867 13.7001 43.7415 14.9635 43.5782C15.948 44.2079 15.2099 45.2269 14.0702 45.0515ZM18.3186 42.692C17.9658 42.7235 17.476 42.2773 17.5764 41.7795C17.9698 40.7655 18.1067 40.1126 17.9516 38.8664C19.8223 35.995 20.1153 42.6728 18.3186 42.692V42.692ZM8.16604 41.9285C6.98885 41.9995 5.25805 36.1075 7.77161 37.9184C8.12548 39.4109 9.76299 41.8028 8.16604 41.9285ZM71.8679 39.634C70.7029 39.5235 71.2596 38.1465 71.3782 37.2137C71.3782 35.7993 72.1833 34.1202 73.1019 35.779C72.9508 36.946 72.891 39.6725 71.8679 39.634ZM52.7937 39.4515C52.0241 39.2994 51.9328 38.8431 52.163 37.8819C52.5655 30.7438 55.439 38.0593 52.7937 39.4515ZM18.6015 35.2C17.0451 35.0936 18.3987 31.4424 18.8043 30.908C21.0177 29.4743 19.4137 35.5123 18.6015 35.2ZM6.39265 34.6018C5.15767 34.7032 4.88086 28.7899 6.72015 30.2631C7.20178 31.2233 7.49988 34.8218 6.39265 34.6018ZM72.7987 32.1055C71.5435 31.9574 72.235 30.2652 72.1427 29.2715C71.9247 27.9169 72.8829 26.8279 73.6636 28.1359C73.6515 29.3202 73.9354 32.1227 72.7987 32.1055V32.1055ZM52.2066 32.0294C51.4461 31.7557 48.161 27.6533 50.7627 28.1521C51.7402 28.796 54.0956 31.8155 52.2066 32.0294ZM21.8208 28.5394C19.4583 27.8723 23.4025 25.4895 24.4033 25.3699C25.9942 25.8718 24.6385 26.9668 23.653 27.3623C22.8124 27.7749 22.7354 28.289 21.8208 28.5394ZM46.6046 27.2081C45.9009 26.7873 41.8603 26.4183 43.2352 24.945C44.3212 24.2829 49.2804 26.329 46.6046 27.2081ZM6.24157 27.0287C4.98124 26.8634 5.6616 25.1975 5.61597 24.1896C5.46591 22.7772 6.51838 21.746 7.20887 23.1179C7.07098 24.3863 7.35894 27.0358 6.24157 27.0287V27.0287ZM28.67 25.5635C25.0897 23.8195 34.8378 22.691 31.9146 25.2005C30.8418 25.3719 29.6991 25.3628 28.67 25.5635ZM39.2454 25.5159C38.3501 25.4043 37.1293 25.3638 35.9856 25.238C33.0218 22.7285 42.8885 23.7942 39.2454 25.5159ZM72.8687 24.5374C71.7412 24.6256 71.289 19.1514 72.8687 20.0649C73.7346 20.4604 74.0185 24.8223 72.8687 24.5374ZM7.10545 19.5022C5.80963 19.3531 6.60659 17.7065 6.75666 16.7503C6.84994 15.2781 8.00685 14.2206 8.54322 15.7901C8.19747 16.9977 8.07681 19.5417 7.10545 19.5022ZM71.5567 17.1032C70.6532 16.9552 68.3648 12.0639 70.6644 12.9359C71.4238 13.6619 73.2357 17.0849 71.5567 17.1032ZM9.38175 12.2981C7.37719 11.9341 10.2507 8.78481 10.8459 8.40864C13.469 7.83982 10.1371 12.0659 9.38175 12.2981ZM67.3458 10.9344C66.7161 10.5765 62.9037 8.7037 64.4793 7.80433C65.6129 7.36327 69.7346 10.5389 67.3458 10.9344ZM13.1577 8.37721C10.5062 7.64819 15.6215 5.04743 16.3303 5.671C17.7812 6.88165 13.7437 7.99293 13.1577 8.37721ZM60.7541 7.26999C59.9308 7.0895 58.8753 6.70116 57.6575 6.44058C54.6218 3.57214 64.3435 5.88089 60.7541 7.26999ZM20.2066 5.6639C16.7105 4.18659 26.1057 2.28748 23.4978 4.9876C22.4373 5.27962 21.2895 5.40636 20.2066 5.6639ZM53.3706 5.5767C52.4581 5.33032 48.1701 5.39724 50.0783 3.66948C51.2332 3.42512 56.0494 4.26973 53.3706 5.5767ZM45.8512 4.61751C44.6862 4.33158 41.7235 4.9004 42.1118 3.37037C42.6228 2.05427 48.8474 3.33386 45.8512 4.61853V4.61751ZM27.6804 4.47556C24.0129 2.49026 34.3379 1.97924 30.7455 4.25858C29.8553 4.29812 28.6335 4.39546 27.6804 4.47556ZM38.2842 4.17138C37.4091 4.14907 36.2309 4.13285 35.2545 4.13691C31.5323 1.95592 42.0063 2.0999 38.2842 4.16732V4.17138Z" fill="#58C4C1"/>
<path d="M13.4284 10.2408C7.6895 15.1777 5.85021 38.9354 12.2918 39.0804C18.7334 39.2254 13.8066 27.0986 25.1749 21.9833C36.5432 16.868 53.7823 20.8467 55.4918 33.3506C57.2013 45.8545 29.5349 82.2875 30.6685 93.2157C31.4279 100.516 44.7481 102.098 50.417 92.4674C60.7917 74.8411 77.1121 24.4472 67.0456 12.6986C58.9128 3.2132 21.5744 3.22739 13.4284 10.2408V10.2408Z" fill="#A4F8FC"/>
<path d="M16.018 11.3126C10.1615 14.5775 9.65858 26.7245 12.4804 28.144C17.469 30.6576 13.2388 19.7739 26.8784 17.5645C40.5179 15.3552 51.1318 15.3531 47.5932 11.3126C44.0545 7.27201 24.2816 6.7042 16.018 11.3126V11.3126Z" fill="#B6FFFF"/>
</svg>
