<svg width="72" height="114" viewBox="0 0 72 114" fill="none" xmlns="http://www.w3.org/2000/svg">
<path opacity="0.15" d="M61.6601 15.3744C55.5856 6.26414 41.0781 3.02358 30.5767 3.4758C7.22056 4.51408 -1.03597 28.1278 0.171638 41.5584C1.05478 53.6243 9.01321 65.1894 19.6393 67.9402C30.3212 70.1202 34.3993 66.7235 39.4822 65.7957C44.6472 65.3475 43.0168 72.144 41.6875 74.8086C38.4642 82.1354 30.9397 86.4426 23.8593 83.6299C19.7154 81.8535 17.2687 78.1972 11.7326 77.7328C1.86086 77.2208 -1.66664 87.8074 2.07278 95.8986C5.70168 104.266 14.3029 109.238 21.8761 111.646C33.9663 115.257 45.1359 112.325 53.7564 105.303C79.4021 85.4276 68.9645 22.616 61.6601 15.3744V15.3744ZM27.4903 33.5787C31.6799 25.0444 44.5691 30.1141 41.7301 38.8624C38.3222 47.5062 22.3009 43.8946 27.4852 33.5787H27.4903Z" fill="black"/>
<path d="M69.1065 32.8132C66.8332 15.1818 61.4309 6.45071 46.7997 2.63119C32.1686 -1.18833 13.8142 -0.166275 5.14094 21.524C-3.53232 43.2142 9.74119 62.0198 22.4591 64.1582C35.1769 66.2966 39.2753 60.001 43.4669 62.2317C48.5549 64.9369 42.7075 79.8591 32.6857 81.672C22.6639 83.4849 21.2596 76.1105 13.4816 75.2456C5.70368 74.3808 -0.642585 83.1615 5.15615 94.0877C10.9549 105.014 34.5838 117.456 54.4976 101.709C74.4114 85.961 71.3818 50.4426 69.1065 32.8132V32.8132ZM36.6106 41.0819C22.7531 41.9853 26.1042 25.2644 35.5714 25.2015C46.674 25.0505 47.6849 40.0304 36.6106 41.0819Z" fill="#FFA4C7"/>
<path d="M33.725 109.92C2.5311 108.753 -6.20603 79.1544 10.4165 74.6352C18.0393 73.2441 21.5831 79.4332 26.6071 80.7818C35.7184 83.0763 42.1509 75.8134 44.1483 69.0748C46.5686 58.2469 37.2992 64.0446 33.8771 64.6134C28.561 65.9316 22.454 65.456 18.453 63.7648C1.28395 55.9169 -2.63696 33.1437 6.36989 17.0332C20.0794 -9.83522 54.3861 1.33031 61.1329 9.57669C70.0556 18.7944 70.5514 37.7572 71.4153 50.3209C73.3712 94.1861 53.4969 109.56 33.725 109.92V109.92ZM12.4272 75.9443C1.35696 76.8 2.32122 89.892 7.23478 95.9463C20.8753 112.527 45.5881 112.179 58.5179 96.7899C77.3975 75.3957 68.0946 24.7361 65.0021 18.615C60.8135 7.45451 50.8779 3.28519 38.5433 1.88392C8.86823 -1.36576 1.27381 28.0862 3.44568 40.2099C6.90525 58.7508 20.1199 68.9866 40.6949 61.0393C54.958 60.2403 38.9093 94.1607 19.9354 78.7833C17.7595 77.2462 15.5045 75.9939 12.4272 75.9443V75.9443ZM35.4183 41.9001C21.6409 41.5179 25.6277 24.1856 35.8583 24.4391C48.8277 24.9359 47.835 42.1699 35.4183 41.9001ZM35.8583 25.9569C26.6213 26.1516 24.852 40.1521 34.8535 40.3711C46.4956 40.9126 46.376 26.1465 35.8583 25.9569Z" fill="#EA7AA2"/>
<path d="M32.5691 106.608C31.469 106.677 27.0806 106.547 29.433 104.918C30.598 104.87 35.2408 105.083 32.5691 106.608ZM37.0903 106.202C33.654 104.884 42.7683 102.689 40.4363 105.391C39.4254 105.829 38.2127 105.995 37.0903 106.207V106.202ZM25.1055 105.472C24.4383 105.244 20.9301 104.537 21.5465 103.417C21.9714 102.129 27.977 104.668 25.1014 105.477L25.1055 105.472ZM44.2771 103.868C41.0558 102.97 49.5323 99.0875 47.3321 102.311C46.4277 102.804 45.3539 103.581 44.2771 103.873V103.868ZM18.1427 102.512C17.1906 102.254 16.051 101.349 15.1364 100.788C13.1734 97.4195 21.3377 101.854 18.1427 102.517V102.512ZM50.6396 99.7881C48.2233 99.5346 52.8855 95.4525 53.433 96.4735C54.2948 97.4601 51.3402 99.5468 50.6396 99.7932V99.7881ZM12.0216 98.0816C10.9955 97.8788 7.46695 93.9812 10.3597 94.4679C11.0482 95.3176 14.1306 97.6345 12.0216 98.0816ZM55.9253 94.3848C53.9602 94.0725 56.8114 91.2152 57.3782 90.4963C60.0824 89.9072 56.7628 94.329 55.9253 94.3848ZM7.49027 92.0659C6.35465 91.9797 4.57823 86.7093 6.9255 87.8864C7.38482 88.8943 9.06695 92.0831 7.49027 92.0659ZM60.0175 88.0264C58.2502 87.8509 60.4839 84.6925 60.8591 83.9179C63.4436 82.762 60.8702 88.1511 60.0175 88.0223V88.0264ZM31.7002 85.4753C28.8702 84.1237 34.3435 83.2771 35.2033 83.7343C36.5914 85.4439 32.5346 85.3171 31.7002 85.4753ZM27.1638 85.3739C26.1397 85.2664 21.8426 84.6935 24.0327 83.2385C25.1288 83.3034 29.8081 84.0963 27.1638 85.3678V85.3739ZM6.22994 84.7169C4.53362 84.6489 6.34958 80.5698 7.06239 80.3934C9.08114 79.7303 6.84337 84.9491 6.22994 84.7169ZM38.9691 83.5407C36.415 83.0408 41.29 80.0345 41.9197 80.4989C43.4457 81.4996 39.6109 83.3724 38.9691 83.5407ZM20.0378 82.9323C19.0735 82.6717 17.8497 81.7156 17.0304 81.2695C14.9468 77.9011 23.2652 82.2013 20.0378 82.9293V82.9323ZM62.8819 81.0139C61.4756 80.7767 62.526 79.1574 62.7146 78.1212C62.816 76.8152 63.9019 75.8439 64.4637 77.2867C64.1838 78.6079 63.834 80.9582 62.8819 81.0139ZM13.4756 79.1503C12.3116 78.6302 11.1841 78.8309 10.163 78.7731C7.68089 76.0456 16.9737 77.4033 13.4756 79.1503ZM44.6198 78.6068C42.7612 78.4902 45.3874 75.0672 45.9592 74.5409C48.3734 74.0989 45.4218 78.6342 44.6198 78.6068ZM64.7192 73.6669C63.617 73.5371 64.054 72.3812 64.2254 71.4646C64.2943 69.9833 65.0588 68.0791 66.0221 69.8504C65.8213 71.1209 65.7301 73.6801 64.7192 73.6669ZM47.8685 71.8013C46.449 71.5376 47.5258 69.966 47.6728 68.8274C47.692 67.5285 48.85 66.6494 49.363 68.0527C49.1541 69.1427 48.8895 71.7374 47.8685 71.8013V71.8013ZM65.9349 66.1871C64.7344 66.0431 65.3448 64.6469 65.3843 63.6796C65.3062 62.2185 66.1458 60.7463 67.033 62.2935C66.9123 63.566 66.9995 66.2043 65.9349 66.1871ZM49.074 64.3498C48.3998 64.2312 48.2923 63.8773 48.2862 62.9952C46.7136 55.4748 51.832 63.2051 49.074 64.3498ZM25.4634 61.8089C24.2467 61.6061 21.4431 61.5412 21.7656 60.2616C22.088 58.982 28.4667 60.7148 25.4634 61.8089ZM29.9967 61.7075C27.3118 60.3833 32.1422 59.6309 33.2596 59.6725C34.4307 60.3975 33.3468 61.2644 32.2112 61.3303C31.4798 61.4936 30.7408 61.6202 29.9967 61.7095V61.7075ZM37.3133 59.781C34.5443 58.8684 39.9607 56.8406 40.6593 57.4104C41.9846 58.8086 38.2928 59.3653 37.3133 59.783V59.781ZM18.3729 59.347C17.6875 59.2223 16.8865 58.4436 16.1929 57.9437C15.0502 57.3232 14.7734 55.8692 16.269 56.0578C17.1156 56.8254 20.6634 58.6697 18.3729 59.349V59.347ZM66.6862 58.6444C65.4198 58.4771 66.1296 56.8385 66.0596 55.8266C65.872 54.4304 66.8566 53.3617 67.6119 54.6951C67.5592 55.9696 67.7985 58.6616 66.6862 58.6464V58.6444ZM45.4431 58.327C44.5103 57.7774 41.218 58.834 41.7372 57.1336C42.3597 55.6816 48.3866 56.9997 45.4431 58.329V58.327ZM12.9118 54.1587C11.9993 54.037 8.93716 49.6335 11.5612 50.2297C12.3116 51.1686 14.814 53.9549 12.9118 54.1587ZM67.035 51.0743C65.6611 50.8228 66.5179 48.728 66.308 47.6188C67.4467 43.5164 68.8642 51.1402 67.035 51.0743ZM9.06188 47.6492C8.0013 47.5731 5.99369 42.3087 8.40687 43.5052C8.9108 44.512 10.6953 47.6086 9.06188 47.6492ZM66.9944 43.492C65.8213 43.6259 65.6844 38.3067 67.0239 38.9648C68.0804 39.1098 68.05 43.8672 66.9944 43.4981V43.492ZM6.6923 40.4684C5.434 40.4816 4.76581 34.4669 6.84033 36.2687C7.11511 37.4337 8.00839 40.5577 6.6923 40.4684V40.4684ZM66.526 35.9321C65.3661 36.002 64.8185 30.2408 66.6619 31.562C67.2479 32.3589 67.7164 36.1328 66.526 35.9321ZM6.09509 32.9338C4.8013 32.7554 5.53539 30.98 5.51815 29.9721C5.41676 28.585 6.58178 27.7131 7.14046 29.0707C6.92652 30.3554 7.20332 32.9338 6.09813 32.9338H6.09509ZM65.5121 28.4228C64.4059 28.4177 63.3402 22.7589 65.3884 24.1207C65.9329 24.9947 66.8626 28.5425 65.5121 28.4228ZM7.41321 25.4915C5.76555 25.38 7.5795 21.9366 8.00839 21.2806C10.4135 20.0335 8.24566 25.6466 7.41321 25.4915ZM63.6312 21.09C62.6517 20.9318 60.559 15.9108 62.8606 16.9044C63.5116 17.6578 65.291 21.0809 63.6312 21.09ZM10.5514 18.6139C8.59952 18.3422 11.3625 15.2162 11.9841 14.6596C14.5564 14.1445 11.3534 18.47 10.5514 18.6139ZM59.8157 14.618C59.0796 14.4963 58.5301 13.5189 57.7879 13.0281C56.7739 12.4482 56.2497 11.2872 57.6266 11.1108C58.6933 11.5376 61.9927 14.183 59.8157 14.618ZM15.2956 12.726C12.7922 12.4421 17.9024 7.89354 18.2948 9.7237C18.5625 10.6788 15.76 12.5414 15.2956 12.726V12.726ZM53.6885 10.2114C52.7465 9.7744 49.9836 8.93993 50.1874 8.08213C50.2867 6.13942 56.6076 9.63245 53.6885 10.2114ZM21.4076 8.2981C18.087 7.18276 26.7906 4.02434 24.637 7.0469C23.5714 7.46363 22.4915 7.92091 21.4076 8.2981ZM46.6467 7.44132C45.7453 7.17465 41.1775 6.59265 43.6211 5.19442C44.7597 5.20355 49.2424 6.27427 46.6467 7.44132ZM28.6391 6.1232C25.1562 4.55057 34.307 3.14322 32.0773 5.65982C31.034 6.03194 29.7656 5.87377 28.6391 6.12827V6.1232ZM39.2175 5.96908C38.1934 5.82611 33.798 5.98124 36.0236 4.23625C37.1673 4.03955 41.8893 4.52624 39.2175 5.97415V5.96908Z" fill="#EA7AA2"/>
<path d="M36.8459 45.3688C35.8228 45.2471 32.269 45.5128 33.2657 43.7992C34.1133 43.0925 39.7214 44.0791 36.8459 45.3688ZM41.3073 44.659C38.7785 43.7962 43.2631 42.0613 44.123 41.7713C46.3841 42.7407 42.1955 44.4897 41.3093 44.657L41.3073 44.659ZM29.5871 43.4981C28.6685 43.2142 25.3012 41.1326 26.8221 40.2535C27.7062 39.9199 31.98 43.1939 29.5871 43.4981ZM47.0887 39.9848C45.3265 39.7931 47.5957 36.8304 47.831 35.9168C50.4104 34.5896 48.1645 40.0365 47.0887 39.9868V39.9848ZM24.564 37.9924C23.2114 37.9234 21.9359 31.9412 24.3146 34.0187C24.4789 35.3318 26.1701 37.8758 24.564 37.9924ZM48.7972 32.7432C47.9607 32.8324 47.1415 28.9531 47.3209 28.6783C48.7323 26.7204 50.4956 33.0119 48.7952 32.7432H48.7972ZM23.5906 30.5947C21.946 30.5561 23.6322 26.4679 24.2832 26.2469C26.3182 25.4722 24.2609 30.8492 23.5886 30.5947H23.5906ZM45.0426 26.3909C44.3399 26.2611 43.5308 25.2542 42.744 24.8416C41.7797 24.4644 41.3884 23.3206 42.597 23.0935C43.6413 23.3389 47.3422 25.8302 45.0406 26.3909H45.0426ZM27.4203 24.2758C23.8553 22.8907 34.1874 19.4312 31.1019 22.6981C29.8416 22.8776 28.6218 23.78 27.4183 24.2758H27.4203ZM38.4226 22.8451C37.3538 22.6025 36.2718 22.4228 35.182 22.3067C32.269 19.6086 42.019 21.2573 38.4206 22.8451H38.4226Z" fill="#EA7AA2"/>
<path d="M53.9927 11.6999C45.1531 4.7858 24.1889 3.42103 12.9442 18.6748C1.69963 33.9285 12.5569 56.4694 23.9151 58.0989C35.2733 59.7283 39.3422 52.2667 46.6669 55.9199C53.9917 59.5731 53.1085 74.3462 43.763 82.4334C34.4175 90.5206 21.505 85.6994 15.181 82.4071C8.85705 79.1148 6.07378 93.3161 23.0897 100.252C40.1057 107.189 58.673 95.0601 62.8413 73.2066C67.0096 51.3531 66.1387 21.1975 53.9927 11.6999ZM51.3412 35.6157C45.1775 57.0271 15.6342 45.8504 20.9442 28.5698C26.014 12.7128 56.7364 16.2819 51.3412 35.6157Z" fill="#FFBDDB"/>
<path d="M20.0399 13.3404C11.035 19.7536 9.15722 36.4583 15.2196 38.4771C21.2819 40.4958 16.3572 28.8446 24.1068 21.8058C31.8898 14.7326 42.0262 19.3845 43.5745 14.6697C45.1227 9.95487 31.2956 5.3242 20.0399 13.3404V13.3404Z" fill="#FFCCE6"/>
</svg>
