<svg width="87" height="116" viewBox="0 0 87 116" fill="none" xmlns="http://www.w3.org/2000/svg">
<g clip-path="url(#clip0_1_1684)">
<path opacity="0.101632" fill-rule="evenodd" clip-rule="evenodd" d="M56.3333 59.0823C46.802 67.9474 33.8812 47.3125 49.6757 43.4276C53.5386 42.8104 59.6531 53.1187 56.3333 59.0823ZM76.0818 27.2525C31.4779 -17.763 -14.0849 65.0276 37.1129 86.7427C24.2649 87.9923 25.1449 98.6062 30.6829 109.716L30.7466 109.825C69.3361 136.554 104.09 55.9023 76.0818 27.2525" fill="black"/>
<path fill-rule="evenodd" clip-rule="evenodd" d="M47.3482 50.1236C37.8169 58.9888 24.8961 38.3539 40.6906 34.469C44.5504 33.8517 50.668 44.1571 47.3482 50.1236ZM67.0967 18.2939C22.4928 -26.7216 -23.07 56.069 28.1278 77.784C15.2829 79.0336 16.1598 89.6506 21.6978 100.758L21.7615 100.867C60.354 127.595 95.1049 46.9497 67.0967 18.2939" fill="#2F5D96"/>
<path fill-rule="evenodd" clip-rule="evenodd" d="M44.4057 47.1897C34.8713 56.0578 21.9566 35.4229 37.748 31.535C41.6079 30.9178 47.7284 41.2231 44.4057 47.1897ZM64.1541 15.3599C19.5502 -29.6525 -26.0095 53.135 25.1853 74.8501C12.3403 76.0997 13.2173 86.7197 18.7552 97.8238L18.8189 97.9327C57.4175 124.658 92.1624 44.0158 64.1541 15.3599" fill="#3373B8"/>
<path fill-rule="evenodd" clip-rule="evenodd" d="M41.4632 44.2584C31.9227 53.1236 19.0201 32.4857 34.8055 28.6038C38.6623 27.9805 44.795 38.2919 41.4632 44.2584ZM61.2116 12.4257C60.5076 11.5361 59.7702 10.7253 59.0267 9.92347C48.9492 3.45163 26.8885 1.52127 11.4096 8.66783C-1.4596 19.9656 -4.57298 48.2795 8.66343 63.1082C31.9561 72.3485 54.8118 67.8917 71.365 43.614C71.1738 33.118 67.3321 20.0836 61.2116 12.4257" fill="#4282C2"/>
<path fill-rule="evenodd" clip-rule="evenodd" d="M38.0315 67.0246C26.4094 68.3468 16.69 66.2591 8.66376 63.1094C11.6133 66.4346 15.816 69.8233 22.2431 71.914C9.39507 73.1666 10.269 83.7836 15.816 94.8937L15.8767 94.9996C39.5123 118.406 76.1537 68.7976 71.3622 43.6152C59.8555 56.456 53.4467 66.0896 38.0315 67.0246Z" fill="#387ABC"/>
<path fill-rule="evenodd" clip-rule="evenodd" d="M59.0271 9.92435C48.4064 -2.40513 24.3824 -3.77272 11.41 8.66871C23.3355 2.43892 48.7554 2.65676 59.0271 9.92435" fill="#387ABC"/>
<path fill-rule="evenodd" clip-rule="evenodd" d="M32.49 9.613C65.184 24.448 44.613 47.842 49.302 48.448C60.972 49.966 65.463 34.165 60.963 22.783C56.382 11.185 42.987 9.076 36.303 9.073C33.642 9.073 32.046 9.409 32.49 9.613" fill="url(#paint0_linear_1_1684)"/>
</g>
<defs>
<linearGradient id="paint0_linear_1_1684" x1="46.1492" y1="48.3655" x2="49.7156" y2="9.65733" gradientUnits="userSpaceOnUse">
<stop stop-color="white" stop-opacity="0"/>
<stop offset="1" stop-color="#FEFEFE" stop-opacity="0.495547"/>
</linearGradient>
<clipPath id="clip0_1_1684">
<rect width="87" height="116" fill="white"/>
</clipPath>
</defs>
</svg>
