<svg width="87" height="116" viewBox="0 0 87 116" fill="none" xmlns="http://www.w3.org/2000/svg">
<path opacity="0.101632" fill-rule="evenodd" clip-rule="evenodd" d="M55.7753 84.5817C49.6055 90.0339 40.096 78.4154 45.8199 69.2508C46.5267 69.0027 53.7126 66.5307 57.2465 70.8271C58.4628 72.4822 59.4123 78.7694 55.7753 84.5817V84.5817ZM69.0734 44.9065C76.4414 46.026 83.8215 39.4694 80.5788 30.4832C80.2603 28.8161 79.7356 26.3895 79.0349 23.1703C43.3659 -10.5414 -5.69824 70.7606 25.1417 103.062C66.3222 145.022 112.672 70.1675 69.0734 44.9065" fill="black"/>
<path fill-rule="evenodd" clip-rule="evenodd" d="M46.7936 75.6228C40.6238 81.075 31.1143 69.4565 36.8382 60.2919C37.545 60.0437 44.7309 57.5718 48.2648 61.8682C49.4811 63.5232 50.4306 69.8105 46.7936 75.6228V75.6228ZM60.0917 35.9475C67.4597 37.067 74.8398 30.5105 71.5972 21.5243C71.2787 19.8572 70.7539 17.4306 70.0532 14.2113C34.3903 -19.5004 -14.6799 61.8017 16.16 94.1034C57.3405 136.063 103.69 61.2116 60.0917 35.9475" fill="#E9A939"/>
<path fill-rule="evenodd" clip-rule="evenodd" d="M43.8522 72.6889C37.2365 78.0503 28.2548 66.4046 33.8968 57.3579C34.6035 57.1098 41.7895 54.6409 45.3264 58.9343C46.5367 60.5893 47.4922 66.8766 43.8522 72.6889ZM57.1503 33.0136C64.5152 34.1361 71.8984 27.5766 68.6557 18.5904C68.4586 17.5889 67.9914 15.2531 67.0723 11.1261C31.1334 -22.1257 -17.5 58.8465 13.2185 91.1695C54.396 133.129 100.751 58.2777 57.1503 33.0136" fill="#FDBE3A"/>
<path fill-rule="evenodd" clip-rule="evenodd" d="M64.9047 38.8452C61.9988 34.9693 58.383 31.9649 54.2152 30.0799C61.5771 31.2024 68.9572 24.6428 65.7146 15.6597C65.5174 14.6582 65.0503 12.3164 64.1312 8.19242C64.0524 7.82632 63.9341 7.49047 63.8279 7.1395C47.9818 6.60396 30.2974 11.678 18.2278 15.2573C10.5079 22.9908 5.33915 32.2251 2.80328 42.8179C7.73548 42.0917 15.6585 51.0748 29.4996 58.8356C29.6088 57.4256 29.7605 55.6859 30.9557 54.4212C31.6655 54.1761 38.8454 51.7102 42.3853 56.0006C42.9373 57.94 44.275 57.9763 42.9585 64.9625C49.371 67.0986 59.6479 69.6704 70.3708 69.5524C72.6276 60.8416 71.302 46.4244 64.9047 38.8452" fill="#FFD25C"/>
<path fill-rule="evenodd" clip-rule="evenodd" d="M66.146 69.4623C57.319 69.0145 49.6477 67.305 42.9561 64.9632C42.4678 67.1023 41.7853 68.7694 40.9117 69.7588C36.7014 73.4259 28.0412 69.1385 29.5003 58.8362C15.6561 51.0755 7.7361 42.0923 2.8039 42.8185C-12.6995 101.298 56.9853 122.898 70.3714 69.553C69.0246 69.5561 67.6384 69.5379 66.146 69.4623" fill="#FEC747"/>
<path fill-rule="evenodd" clip-rule="evenodd" d="M63.8267 7.14104C55.2636 -8.02347 28.6461 4.24248 18.2296 15.2588C30.2962 11.6795 47.9805 6.60248 63.8267 7.14104" fill="#FEC747"/>
<path fill-rule="evenodd" clip-rule="evenodd" d="M37.171 12.52C26.842 16.354 12.517 33.046 18.169 42.655C20.362 46.372 20.194 37.981 25.771 29.596C30.556 22.393 39.583 15.193 57.976 15.652C58.501 15.664 58.999 14.08 58.261 12.493C57.526 10.912 55.567 9.33099 51.193 9.33399C47.98 9.33399 43.462 10.186 37.171 12.52" fill="url(#paint0_linear_1_1664)"/>
<defs>
<linearGradient id="paint0_linear_1_1664" x1="34.4781" y1="37.8454" x2="37.8306" y2="14.9718" gradientUnits="userSpaceOnUse">
<stop stop-color="white" stop-opacity="0"/>
<stop offset="1" stop-color="#FEFEFE" stop-opacity="0.495547"/>
</linearGradient>
</defs>
</svg>
