<svg width="89" height="119" viewBox="0 0 89 119" fill="none" xmlns="http://www.w3.org/2000/svg">
<path opacity="0.101632" fill-rule="evenodd" clip-rule="evenodd" d="M80.1534 25.2377C71.6176 16.6618 57.7462 13.0772 43.077 16.0084L28.1196 21.5169C27.6949 21.8073 27.2642 22.131 26.8547 22.3337C25.8962 23.0445 25.0013 23.6465 23.0175 26.493C22.8446 26.9286 22.6596 27.2856 22.4988 27.7726L23.0175 45.4447C23.5332 46.7394 23.9912 48.1067 26.5089 50.1909L27.0367 50.3482C27.516 50.7626 28.8628 51.1014 32.1903 51.5673C39.2186 48.3668 46.3439 40.4988 56.9696 47.3867C62.4782 54.6104 40.8808 73.8827 30.4098 82.631C25.7354 81.8566 14.7001 86.3003 15.8801 92.2112C15.9195 92.8918 16.2744 102.572 16.3654 103.739C20.4786 119.161 62.1718 112.3 74.4022 118.686C87.306 121.206 92.3019 88.1032 78.9401 86.5968C75.5154 86.5574 71.7147 86.4788 65.4266 86.2277C83.9329 69.7354 98.5748 45.6231 80.1534 25.2377" fill="black"/>
<path fill-rule="evenodd" clip-rule="evenodd" d="M71.172 16.2806C62.6362 7.70477 48.7648 4.12014 34.0956 7.05137L19.1382 12.5599C18.7135 12.8503 18.2828 13.174 17.8733 13.3766C16.9148 14.0875 16.0199 14.6895 14.0361 17.536C13.8632 17.9716 13.6782 18.3286 13.5174 18.8186L14.0361 36.4876C14.5518 37.7823 15.0098 39.1496 17.5275 41.2339L18.0553 41.3912C18.5346 41.8056 19.8814 42.1444 23.2089 42.6102C30.2372 39.4098 37.3625 31.5418 47.9882 38.4297C53.4968 45.6534 31.8994 64.9257 21.4284 73.674C16.754 72.8996 5.71874 77.3433 6.89871 83.2541C6.93814 83.9348 7.29304 93.6148 7.38404 94.7824C11.4972 110.204 53.1904 103.343 65.4208 109.729C78.3246 112.249 83.3205 79.1462 69.9587 77.6397C66.534 77.6004 62.7333 77.5218 56.4452 77.2707C74.9515 60.7814 89.5934 36.6661 71.172 16.2806" fill="#2F5D96"/>
<path fill-rule="evenodd" clip-rule="evenodd" d="M68.2318 13.3503C59.696 4.7684 45.8246 1.18983 31.1523 4.11803L16.198 9.62958C15.7733 9.91695 15.3456 10.2406 14.9301 10.4463C13.9715 11.1572 13.0797 11.7622 11.0929 14.6027C10.923 15.0383 10.738 15.3952 10.5772 15.8853L11.0929 33.5543C11.6116 34.849 12.0666 36.2163 14.5873 38.3005L15.1181 38.4578C15.5944 38.8723 16.9442 39.2171 20.2687 39.6769C27.297 36.4765 34.4223 28.6084 45.048 35.4964C50.5596 42.7261 28.9532 61.9833 18.4882 70.7467C13.8108 69.9602 2.77853 74.416 3.9585 80.3208C4.00097 80.9984 4.3498 90.6845 4.44383 91.8491C8.55703 107.274 50.2532 100.41 62.4836 106.796C75.3844 109.312 80.3803 76.2159 67.0185 74.7064C63.5938 74.6701 59.79 74.5915 53.508 74.3374C72.0083 57.8511 86.6532 33.7358 68.2318 13.3503" fill="#3373B8"/>
<path fill-rule="evenodd" clip-rule="evenodd" d="M7.63642 12.9513L8.15512 30.6233C8.84672 32.8558 10.0995 34.2654 11.24 35.064L11.6495 35.3696L12.1773 35.5238C12.6536 35.9383 14.0034 36.2831 17.3279 36.7459C24.3562 33.5394 31.4754 25.6805 42.1072 32.5624C47.8978 37.1452 30.2408 55.0805 21.3653 62.9213C29.258 66.1429 46.5086 69.6458 56.9463 65.0599C72.395 48.8913 78.6437 33.8601 69.2646 15.5467C55.9119 4.1304 26.5553 4.35727 8.19455 11.6021C8.18242 11.6233 8.16725 11.6445 8.15512 11.6687C7.98222 12.1043 7.79718 12.4612 7.63642 12.9513" fill="#4282C2"/>
<path fill-rule="evenodd" clip-rule="evenodd" d="M40.6743 67.1978C33.3154 66.747 26.9333 65.1317 21.3641 62.9204C19.4197 64.6416 17.4814 66.2903 15.5461 67.8118C10.8718 67.0284 -0.15743 71.4812 1.01647 77.386C1.0559 78.0666 1.4108 87.7526 1.5018 88.9173C5.615 104.345 47.3112 97.478 59.5416 103.864C72.4454 106.378 77.4383 73.2931 64.0764 71.7746C60.6518 71.7353 56.851 71.6596 50.566 71.4116C52.8804 69.2275 54.9946 67.1191 56.9481 65.0591C52.392 66.9558 47.4871 67.6182 40.6743 67.1978Z" fill="#387ABC"/>
<path fill-rule="evenodd" clip-rule="evenodd" d="M44.4408 6.39917C56.0524 7.89655 63.6933 11.6324 69.2656 15.5468C61.9006 3.48005 44.8321 -2.49735 28.2124 1.18407L13.2581 6.69562C12.8334 6.983 12.4027 7.30667 11.9902 7.51237C10.2794 8.66792 9.02053 10.0413 8.19546 11.6022C19.076 8.24442 32.6987 4.88365 44.4408 6.39917" fill="#387ABC"/>
<path fill-rule="evenodd" clip-rule="evenodd" d="M20.106 23.792C21.987 23.333 28.755 10.628 56.1422 15.8C56.196 12.563 43.698 9.39203 32.766 9.39203C21.168 9.39203 11.331 12.959 20.106 23.792" fill="url(#paint0_linear_1_1625)"/>
<defs>
<linearGradient id="paint0_linear_1_1625" x1="33.339" y1="17.5446" x2="34.3553" y2="14.4543" gradientUnits="userSpaceOnUse">
<stop stop-color="white" stop-opacity="0"/>
<stop offset="1" stop-color="#FEFEFE" stop-opacity="0.495547"/>
</linearGradient>
</defs>
</svg>
