<svg width="85" height="116" viewBox="0 0 85 116" fill="none" xmlns="http://www.w3.org/2000/svg">
<path opacity="0.101632" fill-rule="evenodd" clip-rule="evenodd" d="M53.376 86.6143C52.0469 86.9925 47.9503 88.2149 43.8841 85.1832L43.8871 85.1257C43.7445 83.7339 42.0209 83.4737 44.2391 78.4451C46.5696 79.5767 48.9153 80.793 51.1578 81.9518C52.2532 83.0895 54.7718 83.6976 53.376 86.6143V86.6143ZM57.4452 46.9391C57.3936 47.6804 57.2176 48.5488 56.7473 49.4625C53.4033 47.8014 51.8344 46.8907 51.182 46.4187L51.0394 46.3824C49.683 45.3688 48.9304 44.6608 48.5633 44.1767C48.891 43.9952 54.2195 42.5126 56.6866 45.0844C57.5029 46.0314 57.4725 46.57 57.4452 46.9391V46.9391ZM75.467 24.1591C65.6292 13.8598 45.4742 11.5845 32.5837 20.5464L32.5564 20.6009C22.7823 27.221 16.9955 43.3689 21.79 57.3231C22.1087 58.5182 22.5881 59.4895 22.8582 60.4789C-17.2729 128.35 108.743 136.135 78.2587 65.686C85.766 54.8028 88.2027 35.5324 75.467 24.1591" fill="black"/>
<path fill-rule="evenodd" clip-rule="evenodd" d="M44.3912 77.6557C43.0621 78.0339 38.9655 79.2533 34.8993 76.2246L34.9023 76.1671C34.7597 74.7753 33.0361 74.5151 35.2543 69.4865C37.5848 70.6181 39.9305 71.8344 42.173 72.9932C43.2684 74.1309 45.787 74.739 44.3912 77.6557V77.6557ZM48.4604 37.9805C48.4088 38.7218 48.2328 39.5901 47.7625 40.5039C44.4185 38.8428 42.8496 37.9321 42.1972 37.4601L42.0546 37.4238C40.6982 36.4102 39.9456 35.7022 39.5785 35.2181C39.9062 35.0365 45.2347 33.554 47.7018 36.1258C48.5181 37.0728 48.4877 37.6114 48.4604 37.9805V37.9805ZM66.4822 15.2004C56.6444 4.90116 36.4894 2.62588 23.5989 11.5878L23.5716 11.6423C13.8036 18.2624 8.00771 34.4133 12.8083 48.3645C13.1238 49.5596 13.6033 50.5309 13.8734 51.5202C-26.2577 119.391 99.7583 127.179 69.2739 56.7274C76.7782 45.8472 79.221 26.5708 66.4822 15.2004" fill="#28A4D5"/>
<path fill-rule="evenodd" clip-rule="evenodd" d="M41.4486 74.7218C40.1195 75.1 36.023 76.3253 31.9568 73.2906L31.9598 73.2362C31.8172 71.8444 30.0966 71.5811 32.3148 66.5525C34.6423 67.6841 36.991 68.9004 39.2304 70.0592C40.3259 71.1939 42.8445 71.8081 41.4486 74.7218ZM45.5179 35.0495C45.4663 35.7878 45.2903 36.6562 44.8199 37.5699C41.4759 35.9088 39.9101 34.9981 39.2577 34.5291L39.1121 34.4898C37.7557 33.4792 37.0031 32.7712 36.6359 32.2871C36.9637 32.1056 42.2892 30.617 44.7623 33.1918C45.5786 34.1388 45.5482 34.6804 45.5179 35.0495V35.0495ZM63.5427 12.2695C53.7079 1.96416 33.5499 -0.302041 20.6624 8.65386L20.629 8.70832C10.861 15.3284 5.06214 31.4823 9.86573 45.4305C10.1813 46.6287 10.6608 47.5999 10.9308 48.5863C-29.1972 116.463 96.8158 124.242 66.3314 53.7934C73.8387 42.9162 76.2754 23.6399 63.5427 12.2695" fill="#32B7E5"/>
<path fill-rule="evenodd" clip-rule="evenodd" d="M38.405 28.7402C40.2804 28.8703 41.2059 29.6479 41.8188 30.2591C42.5987 31.8747 42.9355 31.5207 41.8795 34.6341C38.5325 32.973 36.9667 32.0654 36.3173 31.5934L36.1747 31.557C34.8153 30.5465 34.0627 29.8355 33.6955 29.3514C34.2903 29.0276 35.7195 28.5526 38.405 28.7402V28.7402ZM6.92532 42.4978C7.24091 43.6929 7.72036 44.6702 7.99043 45.6565C5.32918 48.5158 3.32339 51.9226 2.00946 55.8318C8.61553 60.6728 17.1637 65.771 28.2911 68.0614C28.3518 66.0342 28.106 67.659 29.3714 63.6167C31.6988 64.7483 34.0475 65.9707 36.287 67.1265C37.6252 67.9979 38.317 68.7361 38.6599 69.2535C49.5719 69.8828 58.639 66.4185 66.914 58.2916C66.0886 55.6079 64.9234 53.1117 63.3879 50.8606C70.173 41.2875 73.0892 23.7055 63.2787 12.2565C51.1256 4.47151 28.7372 4.17197 12.4208 10.6105C6.14849 18.0566 3.19594 30.7159 6.92532 42.4978" fill="#4BC7F4"/>
<path fill-rule="evenodd" clip-rule="evenodd" d="M38.6599 69.2523C39.0575 70.4777 39.0119 69.9573 38.5052 71.7908C37.1791 72.166 33.0795 73.3884 29.0133 70.3567L29.0164 70.3022C28.6461 69.8968 28.3275 69.2493 28.2911 68.0602C17.1637 65.7728 8.61553 60.6716 2.00946 55.8306C-13.3541 115.463 80.6511 114.952 66.914 58.2904C59.2186 65.6457 50.895 69.9059 38.6599 69.2523" fill="#31C1F1"/>
<path fill-rule="evenodd" clip-rule="evenodd" d="M40.9328 5.86181C50.7615 6.63638 57.8439 9.21725 63.2787 12.255C54.1753 0.00417042 31.7686 -4.40116 17.722 5.72263L17.6856 5.77407C15.698 7.18099 13.9502 8.80879 12.4208 10.609C21.5455 7.5713 31.7353 5.14171 40.9328 5.86181" fill="#31C1F1"/>
<path fill-rule="evenodd" clip-rule="evenodd" d="M23.449 8.52101C11.029 15.277 13.366 33.973 18.235 34.069C27.454 34.237 21.079 25.837 31.756 15.01C36.349 10.36 50.737 9.66101 52.03 9.32501C53.071 9.07601 46.039 5.20001 36.952 5.20001C32.695 5.20001 27.988 6.04901 23.449 8.52101" fill="url(#paint0_linear_1_1703)"/>
<defs>
<linearGradient id="paint0_linear_1_1703" x1="30.2467" y1="27.9701" x2="32.8981" y2="11.1279" gradientUnits="userSpaceOnUse">
<stop stop-color="white" stop-opacity="0"/>
<stop offset="1" stop-color="#FEFEFE" stop-opacity="0.495547"/>
</linearGradient>
</defs>
</svg>
