<svg width="84" height="117" viewBox="0 0 84 117" fill="none" xmlns="http://www.w3.org/2000/svg">
<g clip-path="url(#clip0_1_1654)">
<path opacity="0.101632" fill-rule="evenodd" clip-rule="evenodd" d="M82.2633 72.5542C80.9124 64.1066 77.1603 57.2535 71.3196 52.5729L71.2679 52.5184C67.3033 49.4202 62.6222 47.4111 57.2581 46.6033C76.2708 53.4473 83.7083 13.8053 63.1535 15.1699C14.6185 19.2122 15.9481 9.20637 19.934 63.1535C19.9158 64.9478 19.9947 66.4575 20.0615 67.7041C20.1921 69.0959 20.4228 70.2245 20.781 71.3198L20.9449 71.7403L21.1513 72.0701C22.1744 85.0501 61.5506 64.5938 51.0288 84.8232C46.1899 90.1181 31.916 84.6235 26.1208 80.908L25.371 80.8293C24.9915 80.8505 25.3649 80.8263 24.3783 80.9715C-16.0665 128.041 95.9483 132.752 82.2633 72.5542" fill="black"/>
<path fill-rule="evenodd" clip-rule="evenodd" d="M73.2779 63.5953C71.927 55.1477 68.1718 48.2947 62.3311 43.614L62.2795 43.5595C58.3149 40.4613 53.6338 38.4522 48.2697 37.6444C67.2824 44.4884 74.7199 4.84948 54.165 6.21102C5.63307 10.2502 6.95664 0.250507 10.9486 54.1947C10.9274 55.9889 11.0063 57.4987 11.0731 58.7452C11.2036 60.137 11.4343 61.2656 11.7925 62.3609L11.9595 62.7814L12.1629 63.1112C13.1859 76.0912 52.5622 55.6349 42.0404 75.8643C37.1984 81.1592 22.9275 75.6646 17.1324 71.9491L16.3825 71.8705C16.0031 71.8916 16.3765 71.8674 15.3899 72.0127C-25.055 119.083 86.9568 123.793 73.2779 63.5953Z" fill="#E06036"/>
<path fill-rule="evenodd" clip-rule="evenodd" d="M70.3342 60.6613C68.9833 52.2167 65.2281 45.3606 59.3874 40.68L59.3388 40.6255C55.3711 37.5273 50.6901 35.5182 45.326 34.7134C64.3386 41.5514 71.7792 1.91546 51.2213 3.277C2.69238 7.32228 4.00988 -2.68956 8.00488 51.2637C7.98363 53.0548 8.06256 54.5646 8.12934 55.8112C8.25988 57.203 8.49059 58.3346 8.84881 59.4268L9.01577 59.8474L9.2222 60.1772C10.2422 73.1602 49.6185 52.7008 39.0967 72.9303C34.2547 78.2252 19.9899 72.7336 14.1886 69.0151L13.4388 68.9364C13.0624 68.9606 13.4327 68.9334 12.4461 69.0786C-27.9987 116.152 84.0161 120.859 70.3342 60.6613" fill="#EA6D3B"/>
<path fill-rule="evenodd" clip-rule="evenodd" d="M56.4436 37.7476L56.3951 37.6931C52.4274 34.5918 47.7463 32.5858 42.3853 31.778C54.1578 33.0881 60.897 27.7902 60.0258 12.6771C45.5576 7.86635 18.6854 9.59702 3.28828 18.1233C3.66471 25.7993 4.73632 39.6174 5.06114 48.3282C5.03989 50.1255 5.11882 51.6322 5.18561 52.8788C5.31918 54.2706 5.54989 55.4022 5.90811 56.4914L6.07203 56.915L6.27846 57.2418C6.93114 58.6729 7.85703 59.8348 8.96811 60.7213C10.0458 61.281 11.172 61.8317 12.3347 62.3733C16.6758 64.1977 42.4065 53.4597 37.4461 68.3519C45.8642 69.0085 61.3676 65.647 67.3904 57.7289C66.0395 49.2843 62.2844 42.4282 56.4436 37.7476" fill="#F48753"/>
<path fill-rule="evenodd" clip-rule="evenodd" d="M12.3338 62.3723C11.1711 61.8307 10.0479 61.2831 8.96719 60.7203C9.9538 61.5131 11.0892 62.0758 12.3338 62.3723Z" fill="#F5ADCC"/>
<path fill-rule="evenodd" clip-rule="evenodd" d="M45.6541 67.9743C42.8036 68.298 40.0714 68.4009 37.4455 68.3525C37.1207 68.9818 36.6957 69.5053 36.1554 69.9954C31.3134 75.2963 17.0486 69.8018 11.2473 66.0833L10.4975 66.0046C10.118 66.0258 10.4914 66.0016 9.50179 66.1468C-30.937 113.217 81.0748 117.928 67.3929 57.7264C61.4004 63.8866 55.8693 66.8064 45.6541 67.9743" fill="#F2753E"/>
<path fill-rule="evenodd" clip-rule="evenodd" d="M60.0261 12.6765C61.5925 -3.00239 45.3211 0.274383 32.4527 1.79326C22.1829 2.47402 0.495731 -1.71649 3.28859 18.1226C16.7095 10.4768 44.1311 7.35438 60.0261 12.6765" fill="#F2753E"/>
<path fill-rule="evenodd" clip-rule="evenodd" d="M36.54 10.055C12.42 11.324 12.42 11.324 11.775 26.057C11.547 30.782 12.231 15.659 38.667 13.226C42.369 12.86 51.231 9.91699 41.079 9.91699C39.855 9.91699 38.358 9.95899 36.54 10.055" fill="url(#paint0_linear_1_1654)"/>
</g>
<defs>
<linearGradient id="paint0_linear_1_1654" x1="26.091" y1="20.5594" x2="27.2648" y2="15.6677" gradientUnits="userSpaceOnUse">
<stop stop-color="white" stop-opacity="0"/>
<stop offset="1" stop-color="#FEFEFE" stop-opacity="0.495547"/>
</linearGradient>
<clipPath id="clip0_1_1654">
<rect width="84" height="117" fill="white"/>
</clipPath>
</defs>
</svg>
