<svg width="85" height="117" viewBox="0 0 85 117" fill="none" xmlns="http://www.w3.org/2000/svg">
<path opacity="0.101632" fill-rule="evenodd" clip-rule="evenodd" d="M77.3778 63.2081C76.6253 62.2855 75.8363 61.4052 74.9684 60.6096C75.3356 59.926 75.7604 59.0729 76.0851 58.1957L76.1185 58.0747C97.4449 0.502869 -12.6219 5.80569 21.8498 49.5744C24.9541 50.5061 24.4261 50.9538 29.3602 49.0632L29.4937 48.9361C32.1215 46.6553 42.9577 43.4881 47.3971 46.0321C47.4093 46.4193 48.9113 47.6324 47.9342 50.5091C43.9257 52.0852 30.838 49.1539 27.5334 51.7403C19.7651 57.7873 20.7938 73.0726 28.8929 77.1443C30.9866 77.8582 33.4476 78.2454 38.9704 77.359C41.7742 76.8478 50.7229 76.6088 52.14 77.7553L52.1886 77.8067C60.0206 88.1099 42.1869 90.0005 30.756 83.2669L27.3604 82.5923C14.3546 84.7945 18.433 115.616 22.6752 111.484C22.8603 111.672 23.1243 111.768 23.4126 111.826C61.7442 128.593 100.13 100.358 77.3778 63.2081" fill="black"/>
<path fill-rule="evenodd" clip-rule="evenodd" d="M68.393 54.2511C67.6405 53.3284 66.8515 52.4482 65.9836 51.6526C66.3508 50.9689 66.7756 50.1159 67.1003 49.2386L67.1337 49.1176C88.4601 -8.45416 -21.6037 -3.15134 12.865 40.6174C15.9693 41.5491 15.4413 41.9968 20.3754 40.1062L20.5089 39.9821C23.1367 37.6983 33.9698 34.5311 38.4123 37.0751C38.4245 37.4623 39.9265 38.6753 38.9494 41.5521C34.9439 43.1312 21.8532 40.1969 18.5486 42.7833C10.7803 48.8303 11.809 64.1156 19.9081 68.1872C22.0049 68.9011 24.4628 69.2883 29.9856 68.402C32.7894 67.8908 41.7381 67.6518 43.1552 68.7983L43.2038 68.8497C51.0358 79.1529 33.2021 81.0435 21.7712 74.3098L18.3756 73.6353C5.36681 75.8375 9.44819 106.659 13.6904 102.527C13.8755 102.715 14.1395 102.811 14.4278 102.869C52.7594 119.639 91.1456 91.4011 68.393 54.2511" fill="#7F3076"/>
<path fill-rule="evenodd" clip-rule="evenodd" d="M65.4502 51.3177C64.7007 50.3981 63.9117 49.5148 63.0408 48.7192C63.411 48.0356 63.8328 47.1856 64.1575 46.3053L64.1939 46.1843C85.5172 -11.3875 -24.5465 -6.08165 9.92218 37.684C13.0265 38.6157 12.5015 39.0634 17.4325 37.1728L17.566 37.0488C20.1939 34.7649 31.0331 31.5977 35.4695 34.1448C35.4877 34.5411 36.9776 35.7329 36.0096 38.6218C31.995 40.1948 18.9103 37.2666 15.6058 39.8499C7.84053 45.8999 8.86618 61.1792 16.9652 65.2569C19.062 65.9708 21.52 66.355 27.0427 65.4687C29.8496 64.9574 38.7953 64.7185 40.2124 65.868L40.2609 65.9194C48.096 76.2165 30.2562 78.1101 18.8284 71.3795L15.4328 70.7019C2.42397 72.9071 6.50535 103.729 10.7476 99.5967C10.9327 99.7812 11.1967 99.878 11.488 99.9355C49.8105 116.706 88.2027 88.4738 65.4502 51.3177" fill="#98398F"/>
<path fill-rule="evenodd" clip-rule="evenodd" d="M61.2171 43.3714L61.2505 43.2504C64.0725 35.706 65.3227 26.5705 60.6466 16.7514C50.6267 6.95037 19.7236 1.97122 1.16163 13.0578C-1.70292 20.6445 3.84411 41.4686 14.4921 34.2389L14.6256 34.1179C17.2565 31.834 28.0896 28.6638 32.5291 31.2139C32.5442 31.6102 34.0372 32.802 33.0692 35.6879C29.0516 37.2609 15.9669 34.3357 12.6654 36.916C4.89404 42.966 5.92577 58.2513 14.0248 62.329C16.1216 63.0369 18.5796 63.4241 24.1054 62.5347C26.9062 62.0326 35.8549 61.7845 37.2689 62.934L37.3175 62.9885C37.8 63.0157 39.2171 64.7672 39.2535 67.9979C49.0033 65.3026 53.8736 59.6822 62.5098 48.3838C61.7572 47.4672 60.9682 46.5839 60.0974 45.7883C60.4676 45.1047 60.8924 44.2516 61.2171 43.3714" fill="#9F559F"/>
<path fill-rule="evenodd" clip-rule="evenodd" d="M69.0166 66.1947C68.5099 58.9891 66.2401 52.9543 62.5107 48.3835C53.8745 59.6819 49.0012 65.3023 39.2544 67.9976C37.2061 74.6859 25.7783 73.2853 15.8859 68.4453L12.4903 67.7707C-0.512493 69.9729 3.56282 100.795 7.80503 96.6625C7.99013 96.85 8.25716 96.9438 8.54544 97.0073C31.0856 107.991 72.7035 100.362 69.0166 66.1947" fill="#9D4497"/>
<path fill-rule="evenodd" clip-rule="evenodd" d="M60.6466 16.752C51.3641 -2.20572 14.6438 -5.34567 1.16163 13.0584C17.6601 2.13515 51.4673 6.97213 60.6466 16.752Z" fill="#9D4497"/>
<path fill-rule="evenodd" clip-rule="evenodd" d="M27.296 11.878C49.727 13.795 47.651 31.825 48.056 37.063C66.794 36.757 51.329 8.88099 35.585 8.88099C32.765 8.878 29.939 9.772 27.296 11.878" fill="url(#paint0_linear_1_1616)"/>
<defs>
<linearGradient id="paint0_linear_1_1616" x1="39.6642" y1="35.837" x2="42.8676" y2="10.248" gradientUnits="userSpaceOnUse">
<stop stop-color="white" stop-opacity="0"/>
<stop offset="1" stop-color="#FEFEFE" stop-opacity="0.495547"/>
</linearGradient>
</defs>
</svg>
