<svg width="61" height="116" viewBox="0 0 61 116" fill="none" xmlns="http://www.w3.org/2000/svg">
<path opacity="0.101632" fill-rule="evenodd" clip-rule="evenodd" d="M58.9686 85.2937C57.4661 69.2941 55.3267 38.1603 55.9484 28.0788C55.7838 24.4662 55.6345 20.0306 48.9998 17.365L48.6372 17.3045L48.3141 17.2773C42.2067 16.5088 26.6608 10.8902 28.3004 22.2908C28.2882 22.318 28.2791 22.3725 28.2638 22.3937L28.2059 22.4269C26.4932 24.8898 25.78 25.9185 25.4905 26.3119C13.5652 31.6733 9.25585 59.4759 27.8768 57.3338C30.8878 77.2273 26.6242 107.03 34.2158 114.092C59.6177 120.555 62.8635 108.73 58.9686 85.2937" fill="black"/>
<path fill-rule="evenodd" clip-rule="evenodd" d="M49.9461 76.3351C48.4406 60.3355 46.3012 29.2016 46.9229 19.1202C46.7583 15.5046 46.612 11.072 39.9743 8.40642L39.6117 8.34591L39.2917 8.31868C33.1842 7.55016 17.6383 1.93155 19.2779 13.3322C19.2627 13.3594 19.2566 13.4139 19.2383 13.435L19.1835 13.4683C17.4707 15.9312 16.7545 16.9599 16.468 17.3532C4.5427 22.7147 0.230323 50.5173 18.8543 48.3751C21.8654 68.2687 17.6018 98.0713 25.1903 105.133C50.5953 111.596 53.8379 99.7717 49.9461 76.3351" fill="#28A4D5"/>
<path fill-rule="evenodd" clip-rule="evenodd" d="M47.1499 73.2531C45.6475 57.2566 43.508 26.1197 44.1297 16.0352C43.9652 12.4196 43.8158 7.98704 37.1812 5.31842L36.8185 5.26396L36.4955 5.2337C30.2418 4.44099 14.8848 -1.17158 16.4452 10.3531L16.3903 10.3864C14.6745 12.8523 13.9614 13.8749 13.6718 14.2652C1.75261 19.6358 -2.56587 47.4263 16.0612 45.2932C18.3865 63.4682 16.3781 93.419 20.4711 100.027C41.0456 113.358 53.5957 96.1542 47.1499 73.2531Z" fill="#32B7E5"/>
<path fill-rule="evenodd" clip-rule="evenodd" d="M41.3168 13.2928L41.3351 12.9509C41.2833 10.7513 41.5058 9.64087 39.6802 6.14021C33.2955 4.97231 23.473 4.27641 13.6901 7.16288C13.6749 7.19313 13.6658 7.24457 13.6505 7.26877L13.5957 7.30205C11.8798 9.76493 11.1667 10.7906 10.8802 11.1809C-1.04206 16.5514 -5.36054 44.342 13.2665 42.2119C13.8882 51.425 14.5343 61.0163 14.8025 67.9298C21.8486 69.0796 35.0875 69.1008 43.9256 65.1069C42.4749 49.5854 40.8292 21.9976 41.3168 13.2928Z" fill="#4BC7F4"/>
<path fill-rule="evenodd" clip-rule="evenodd" d="M14.8019 67.9286C17.3436 97.7191 12.0895 86.3608 19.6049 98.9657C50.3737 105.891 46.4545 89.7496 43.928 65.1057C37.0221 68.2736 24.2709 69.5413 14.8019 67.9286" fill="#31C1F1"/>
<path fill-rule="evenodd" clip-rule="evenodd" d="M39.6811 6.13959C38.4347 4.20318 36.5848 2.75087 34.3844 2.23349L34.0248 2.17903L33.7048 2.1518C27.5943 1.38026 12.0453 -4.23836 13.688 7.16226C20.2129 5.13205 30.9924 4.32723 39.6811 6.13959" fill="#31C1F1"/>
<path fill-rule="evenodd" clip-rule="evenodd" d="M19.967 12.775C20.126 22.486 -4.24001 21.661 13.763 29.734C15.356 30.451 37.04 13.177 34.931 10.258C34.403 9.52603 29.954 7.87903 26.042 7.87903C22.787 7.87903 19.904 9.01903 19.967 12.775" fill="url(#paint0_linear_1_1634)"/>
<defs>
<linearGradient id="paint0_linear_1_1634" x1="18.9037" y1="25.4583" x2="20.9583" y2="12.0747" gradientUnits="userSpaceOnUse">
<stop stop-color="white" stop-opacity="0"/>
<stop offset="1" stop-color="#FEFEFE" stop-opacity="0.495547"/>
</linearGradient>
</defs>
</svg>
