<svg width="83" height="117" viewBox="0 0 83 117" fill="none" xmlns="http://www.w3.org/2000/svg">
<path opacity="0.101632" fill-rule="evenodd" clip-rule="evenodd" d="M82.4354 29.2291C85.1554 11.3204 57.0447 16.4337 45.8308 16.7242C39.1917 18.7423 23.2967 10.8968 17.3831 23.3201C17.3801 23.3322 17.377 23.3412 17.374 23.3533C13.4033 42.5056 15.082 56.4054 46.8599 47.7521C46.611 48.448 46.2558 49.2347 46.0099 50.0516C39.6349 69.7001 21.0624 106.459 36.8056 115.965C67.6424 121.408 60.3172 102.628 66.1853 78.9162C68.3528 58.4629 80.7294 46.436 82.4354 29.2291" fill="black"/>
<path fill-rule="evenodd" clip-rule="evenodd" d="M73.4467 20.2702C76.1667 2.36144 48.056 7.47477 36.8421 7.76523C30.2029 9.78333 14.3079 1.93785 8.39437 14.3611C8.39133 14.3732 8.3883 14.3823 8.38526 14.3944C4.41151 33.5467 6.0933 47.4465 37.8712 38.7932C37.6222 39.4891 37.267 40.2757 37.0212 41.0927C30.6462 60.7412 12.0737 97.4997 27.8169 107.006C58.6567 112.452 51.3254 93.6692 57.1965 69.9573C59.364 49.504 71.7406 37.477 73.4467 20.2702" fill="#51A84D"/>
<path fill-rule="evenodd" clip-rule="evenodd" d="M70.506 17.3362C73.2169 -0.572523 45.1183 4.54081 33.9014 4.83127C27.2592 6.85543 11.3642 -0.996112 5.45065 11.4272L5.44154 11.4635C1.47386 30.6128 3.14958 44.5156 34.9274 35.8592C34.6815 36.5551 34.3233 37.3418 34.0774 38.1587C27.7024 57.8102 9.13297 94.5657 24.8731 104.072C55.7069 109.521 48.3848 90.7383 54.2528 67.0233C56.4203 46.573 68.7939 34.5461 70.506 17.3362" fill="#6BB755"/>
<path fill-rule="evenodd" clip-rule="evenodd" d="M67.5978 14.9015C67.5917 14.723 67.5705 14.5747 67.5613 14.4023C60.1481 7.24361 18.5042 6.32078 1.27349 15.8485C-0.60865 32.5955 5.61456 39.0249 27.1621 33.5758C28.8074 33.3791 30.4012 33.2369 31.9858 32.9283C31.7369 33.6211 31.3787 34.4078 31.1328 35.2247C26.3121 47.6178 22.6206 57.5207 19.4331 68.7367C26.9314 70.3736 40.2581 71.3358 50.6221 67.2693C52.2067 48.2895 65.1996 31.5365 67.5978 14.9015" fill="#8AC764"/>
<path fill-rule="evenodd" clip-rule="evenodd" d="M19.4325 68.7368C16.9463 80.8272 11.1268 95.2626 21.9279 101.138C50.582 106.624 46.2622 89.6984 50.6215 67.2693C43.4815 70.2708 29.1438 71.1785 19.4325 68.7368" fill="#7BC156"/>
<path fill-rule="evenodd" clip-rule="evenodd" d="M17.1645 10.0291L17.1008 10.6614L17.1645 10.0291Z" fill="#D97DB2"/>
<path fill-rule="evenodd" clip-rule="evenodd" d="M17.1646 10.029L17.1676 9.99575L2.50813 8.492L2.49902 8.52831L17.1646 10.029Z" fill="#D97DB2"/>
<path fill-rule="evenodd" clip-rule="evenodd" d="M66.1303 7.07752C62.8882 -3.99935 35.2753 3.2985 28.9489 1.93091C23.2569 3.50424 7.41962 -3.31858 2.50783 8.49353L17.1673 9.99727L17.1643 10.0306L2.49872 8.52681C2.28015 9.89742 1.72765 9.34676 1.27533 15.8489C14.4018 6.9686 61.9805 7.07752 67.5632 14.4026C67.3689 11.383 66.9591 9.00788 66.1303 7.07752" fill="#7BC156"/>
<path fill-rule="evenodd" clip-rule="evenodd" d="M38.961 6.89595C10.71 8.37195 8.05501 3.60495 9.93301 25.6219C10.407 31.1569 10.452 13.4989 41.544 10.6039C45.789 10.2109 56.208 6.73395 44.28 6.73395C42.846 6.73395 41.091 6.78495 38.961 6.89595" fill="url(#paint0_linear_1_1673)"/>
<defs>
<linearGradient id="paint0_linear_1_1673" x1="26.466" y1="19.1286" x2="27.8339" y2="13.4999" gradientUnits="userSpaceOnUse">
<stop stop-color="white" stop-opacity="0"/>
<stop offset="1" stop-color="#FEFEFE" stop-opacity="0.495547"/>
</linearGradient>
</defs>
</svg>
