<svg width="90" height="117" viewBox="0 0 90 117" fill="none" xmlns="http://www.w3.org/2000/svg">
<mask id="mask0_1_1643" style="mask-type:alpha" maskUnits="userSpaceOnUse" x="0" y="0" width="76" height="102">
<path fill-rule="evenodd" clip-rule="evenodd" d="M0.842987 0.69574H75.1997V101.872H0.842987V0.69574Z" fill="white"/>
</mask>
<g mask="url(#mask0_1_1643)">
<path opacity="0.101632" fill-rule="evenodd" clip-rule="evenodd" d="M48.3282 68.9671C48.689 68.5374 51.0269 66.5133 51.3999 66.1351C51.3696 66.5405 51.1148 68.8824 51.0876 69.3392C50.7601 69.3181 47.276 68.9217 48.3282 68.9671ZM81.6861 69.7537C81.1767 69.7144 80.6217 69.6751 79.9334 69.6872C78.39 55.7723 88.3146 37.2402 80.5581 22.8775C72.374 17.867 62.4858 11.5283 54.5898 19.8851L54.4928 20.0455L54.3048 20.2603C48.0796 29.3403 41.7785 38.3052 32.0723 51.3942C28.0303 56.2019 22.9179 62.2895 19.3944 66.1774L19.2701 66.3408C8.18111 91.6775 19.0851 99.163 47.6308 97.5745L47.6247 97.635C42.4214 114.612 53.0767 117.719 69.7178 116.875C76.9345 115.253 78.763 109.06 78.2626 99.8861C78.2232 99.8256 78.2263 99.7742 78.2293 99.7076C78.3597 99.7167 78.387 99.7167 78.4416 99.7227C90.2916 101.774 94.1214 73.091 81.6861 69.7537" fill="black"/>
<path fill-rule="evenodd" clip-rule="evenodd" d="M39.3512 60.0085C39.712 59.5788 42.0499 57.5547 42.4198 57.1765C42.3895 57.5819 42.1378 59.9237 42.1075 60.3806C41.78 60.3594 38.299 59.9631 39.3512 60.0085V60.0085ZM72.706 60.7951C72.1997 60.7558 71.6417 60.7165 70.9564 60.7286C69.41 46.8136 79.3346 28.2816 71.5811 13.9189C63.397 8.90841 53.5058 2.5697 45.6128 10.9265L45.5158 11.0869L45.3278 11.3017C39.1026 20.3816 32.7985 29.3466 23.0922 42.4355C19.0533 47.2433 13.9378 53.3309 10.4144 57.2188L10.29 57.3822C-0.798929 82.7189 10.1081 90.2013 38.6507 88.6159L38.6477 88.6764C33.4413 105.653 44.0997 108.758 60.7377 107.916C67.9545 106.295 69.7829 100.101 69.2826 90.9275C69.2432 90.867 69.2462 90.8155 69.2523 90.749C69.3797 90.7581 69.41 90.7581 69.4646 90.7641C81.3146 92.8155 85.1444 64.1324 72.706 60.7951Z" fill="#CE3A39"/>
<path fill-rule="evenodd" clip-rule="evenodd" d="M36.4108 57.0775C36.7747 56.6509 39.1126 54.6237 39.4795 54.2455C39.4522 54.6479 39.1975 56.9897 39.1671 57.4496C38.8397 57.4254 35.3586 57.0291 36.4108 57.0775ZM69.7657 57.8611C69.2593 57.8218 68.7044 57.7855 68.016 57.7976C66.4726 43.8827 76.3942 25.3476 68.6407 10.9849C60.4536 5.98045 50.5684 -0.367342 42.6724 7.9925L42.5754 8.15286L42.3874 8.36768C36.1622 17.4476 29.8581 26.4126 20.1549 39.5015C16.1129 44.3062 10.9975 50.3969 7.47701 54.2848L7.34966 54.4482C-3.73628 79.7879 7.16772 87.2703 35.7104 85.6849L35.7073 85.7454C30.504 102.722 41.1593 105.824 57.8004 104.982C65.0141 103.364 66.8486 97.1672 66.3453 87.9965C66.3028 87.936 66.3058 87.8815 66.3119 87.815C78.3591 90.1477 82.2616 61.2347 69.7657 57.8611" fill="#E4443A"/>
<path fill-rule="evenodd" clip-rule="evenodd" d="M36.2286 54.5157C35.9011 54.4915 32.4201 54.0952 33.4723 54.1436C33.8331 53.7169 36.171 51.6898 36.5439 51.3116C36.5136 51.717 36.2589 54.0588 36.2286 54.5157ZM37.6264 8.0449C32.1744 16.1022 26.2009 24.3894 17.2133 36.5676C12.1312 42.631 8.15593 47.3268 5.29045 50.5158C17.4801 67.1175 51.684 80.1005 73.9014 62.1827C73.2494 58.7698 70.1171 54.4703 65.0775 54.8667C64.6833 41.9079 70.293 25.5119 67.7004 10.8708C59.2586 7.85428 50.1072 5.97233 37.6264 8.0449" fill="#EF594D"/>
<path fill-rule="evenodd" clip-rule="evenodd" d="M5.29167 50.5149C5.03696 50.8023 4.77618 51.0898 4.53664 51.35L4.40928 51.5134C-6.67362 76.8591 4.22128 84.3355 32.77 82.7501L32.767 82.8106C27.5666 99.7844 38.219 102.895 54.86 102.048C62.0737 100.432 63.9082 94.2324 63.4049 85.0617C63.3655 85.0012 63.3685 84.9467 63.3715 84.8832C63.5019 84.8892 63.5292 84.8892 63.5838 84.8953C74.7061 84.6139 73.9632 73.7669 73.9026 62.1818C49.3534 81.8817 15.0192 64.1273 5.29167 50.5149" fill="#EE493C"/>
<path fill-rule="evenodd" clip-rule="evenodd" d="M62.7963 5.9841C53.5328 2.7981 48.4082 -3.09282 39.733 5.06128L39.6329 5.22164L39.4479 5.43344C38.793 6.35928 38.1865 7.22764 37.6286 8.04457C44.8999 6.44703 59.0818 7.09754 67.6995 10.8705C66.6806 8.78282 65.0129 7.06123 62.7963 5.9841" fill="#EE493C"/>
<path fill-rule="evenodd" clip-rule="evenodd" d="M25.907 34.115C24.368 36.2 40.493 22.919 48.008 17.549C53.741 13.46 64.298 13.706 62.537 12.884C56.822 10.244 53.018 8.729 49.871 8.729C43.052 8.72601 39.332 15.854 25.907 34.115" fill="url(#paint0_linear_1_1643)"/>
</g>
<defs>
<linearGradient id="paint0_linear_1_1643" x1="41.3626" y1="27.6303" x2="43.5283" y2="15.1351" gradientUnits="userSpaceOnUse">
<stop stop-color="white" stop-opacity="0"/>
<stop offset="1" stop-color="#FEFEFE" stop-opacity="0.495547"/>
</linearGradient>
</defs>
</svg>
