<svg width="114" height="161" viewBox="0 0 114 161" fill="none" xmlns="http://www.w3.org/2000/svg">
<path fill-rule="evenodd" clip-rule="evenodd" d="M106.66 76.792C109.904 69.596 111.548 61.988 111.548 54.176C111.548 38.948 105.496 25.9 94.14 16.52C84.456 8.212 72.992 4 60.068 4C46.548 4 34.804 7.856 25.164 15.464C24.968 15.62 24.784 15.796 24.6 15.98C13.432 25.36 7.536 38.78 7.536 54.828C7.536 61.992 8.948 69.296 11.516 75.644C11.704 76.208 11.912 76.736 12.128 77.248C6.732 85.22 4 94.724 4 105.552C4 128.336 13.956 141.3 22.324 148.176C31.932 156.044 44.52 160.04 59.744 160.04C73.992 160.04 86.224 155.696 96.076 147.128C107.288 137.4 113.212 123.852 113.212 107.952C113.212 97.172 110.524 87.42 105.404 79.484C105.844 78.608 106.268 77.708 106.66 76.792Z" fill="black" fill-opacity="0.15"/>
<path fill-rule="evenodd" clip-rule="evenodd" d="M102.66 72.792C105.904 65.596 107.548 57.988 107.548 50.176C107.548 34.948 101.496 21.9 90.14 12.52C80.456 4.212 68.992 0 56.068 0C42.548 0 30.804 3.856 21.164 11.464C20.968 11.62 20.784 11.796 20.6 11.98C9.432 21.36 3.536 34.78 3.536 50.828C3.536 57.992 4.948 65.296 7.516 71.644C7.704 72.208 7.912 72.736 8.128 73.248C2.732 81.22 0 90.724 0 101.552C0 124.336 9.956 137.3 18.324 144.176C27.932 152.044 40.52 156.04 55.744 156.04C69.992 156.04 82.224 151.696 92.076 143.128C103.288 133.4 109.212 119.852 109.212 103.952C109.212 93.172 106.524 83.42 101.404 75.484C101.844 74.608 102.268 73.708 102.66 72.792Z" fill="#FBDDDF"/>
<path fill-rule="evenodd" clip-rule="evenodd" d="M64.32 58.6472C56.088 64.4832 44.536 61.7952 41.688 58.1272C37.972 53.3432 40.524 41.1392 48.748 35.3072C56.976 29.4752 61.892 34.3032 66.372 40.6192C70.852 46.9392 72.544 52.8152 64.32 58.6472Z" fill="#D22134"/>
<path fill-rule="evenodd" clip-rule="evenodd" d="M51.9176 39.0652C51.6256 38.6172 52.0736 37.8172 52.9176 37.2772C53.7616 36.7252 54.9656 37.0972 54.9656 37.0972C54.9656 37.0972 54.8056 38.3492 53.9616 38.8932C53.1176 39.4332 52.2016 39.5092 51.9176 39.0652Z" fill="#FBB65E"/>
<path fill-rule="evenodd" clip-rule="evenodd" d="M54.3748 45.5224C54.1108 45.0944 54.5748 44.3104 55.4148 43.7744C56.2548 43.2304 57.4348 43.5504 57.4348 43.5504C57.4348 43.5504 57.2428 44.7584 56.3988 45.3024C55.5548 45.8384 54.6548 45.9384 54.3748 45.5224Z" fill="#FBB65E"/>
<path fill-rule="evenodd" clip-rule="evenodd" d="M57.8788 51.0772C57.5948 50.6292 58.0388 49.8292 58.8828 49.2852C59.7268 48.7412 60.9308 49.1132 60.9308 49.1132C60.9308 49.1132 60.7708 50.3612 59.9268 50.9052C59.0828 51.4492 58.1628 51.5252 57.8788 51.0772Z" fill="#FBB65E"/>
<path fill-rule="evenodd" clip-rule="evenodd" d="M50.984 50.9636C50.692 50.5156 51.144 49.7156 51.988 49.1676C52.832 48.6276 54.036 48.9956 54.036 48.9956C54.036 48.9956 53.876 50.2396 53.032 50.7916C52.188 51.3316 51.268 51.4116 50.984 50.9636Z" fill="#FBB65E"/>
<path fill-rule="evenodd" clip-rule="evenodd" d="M46.7616 44.698C46.4736 44.254 46.9216 43.45 47.7696 42.914C48.6136 42.366 49.8136 42.738 49.8136 42.738C49.8136 42.738 49.6496 43.986 48.8056 44.522C47.9616 45.07 47.0416 45.142 46.7616 44.698Z" fill="#FBB65E"/>
<path fill-rule="evenodd" clip-rule="evenodd" d="M43.7028 52.4756C43.4148 52.0276 43.8588 51.2236 44.7028 50.6876C45.5468 50.1436 46.7508 50.5076 46.7508 50.5076C46.7508 50.5076 46.5908 51.7596 45.7468 52.3036C44.9068 52.8476 43.9868 52.9156 43.7028 52.4756Z" fill="#FBB65E"/>
<path fill-rule="evenodd" clip-rule="evenodd" d="M46.9608 57.7996C46.6688 57.3556 47.1168 56.5556 47.9608 56.0156C48.8048 55.4676 50.0168 55.8436 50.0168 55.8436C50.0168 55.8436 49.8528 57.0916 49.0128 57.6356C48.1608 58.1756 47.2448 58.2556 46.9608 57.7996Z" fill="#FBB65E"/>
<path fill-rule="evenodd" clip-rule="evenodd" d="M63.746 54.0028C63.458 53.5588 63.906 52.7548 64.758 52.2108C65.594 51.6708 66.798 52.0388 66.798 52.0388C66.798 52.0388 66.634 53.2868 65.798 53.8308C64.954 54.3748 64.03 54.4508 63.746 54.0028Z" fill="#FBB65E"/>
<path fill-rule="evenodd" clip-rule="evenodd" d="M54.7732 57.4012C54.4892 56.9492 54.9372 56.1452 55.7852 55.6052C56.6212 55.0612 57.8332 55.4332 57.8332 55.4332C57.8332 55.4332 57.6652 56.6852 56.8252 57.2252C55.9812 57.7732 55.0692 57.8452 54.7732 57.4012Z" fill="#FBB65E"/>
<path fill-rule="evenodd" clip-rule="evenodd" d="M72.1676 37.3896C69.9756 37.0816 67.9836 37.6816 66.2316 39.1816C65.9196 38.3096 65.3956 37.2936 64.6756 36.2896C63.0236 33.9536 60.1876 33.1336 60.1876 33.1336C60.1876 33.1336 60.0236 36.0816 61.6716 38.4176C61.7556 38.5296 61.8436 38.6496 61.9276 38.7656C59.1356 38.7336 56.8436 40.4456 56.8436 40.4456C56.8436 40.4456 59.1036 42.3536 61.9516 42.4496C62.4196 42.4536 62.8876 42.4496 63.3116 42.4216C63.0676 42.9456 62.8356 43.5256 62.6396 44.1416C61.7756 46.8656 62.8356 49.6296 62.8356 49.6296C62.8356 49.6296 65.2876 47.9776 66.1516 45.2616C66.2356 44.9856 66.3076 44.7296 66.3716 44.4736C66.5636 44.7856 66.7596 45.1016 66.9836 45.4176C68.6396 47.7416 71.4756 48.5616 71.4756 48.5616C71.4756 48.5616 71.6396 45.6096 69.9836 43.2816C69.0836 42.0016 68.0756 41.0096 67.2076 40.4616C68.6316 39.2296 70.1836 38.7416 71.9396 38.9896C72.3796 39.0576 72.7876 38.7536 72.8516 38.3096C72.9156 37.8696 72.6036 37.4656 72.1676 37.3896Z" fill="#4AB86D"/>
<path fill-rule="evenodd" clip-rule="evenodd" d="M43.492 105.76C43.356 107.672 40.008 108.888 36.008 108.488C32.012 108.084 28.876 106.208 29.012 104.304C29.14 102.396 32.492 101.18 36.488 101.58C40.488 101.984 43.616 103.852 43.492 105.76Z" fill="#F4ABB5"/>
<path fill-rule="evenodd" clip-rule="evenodd" d="M79.5624 104.507C79.7424 106.411 76.6464 108.387 72.6584 108.919C68.6704 109.451 65.2984 108.343 65.1224 106.443C64.9464 104.543 68.0344 102.563 72.0224 102.031C76.0104 101.495 79.3864 102.599 79.5624 104.507Z" fill="#F4ABB5"/>
<path fill-rule="evenodd" clip-rule="evenodd" d="M64.1484 107.55C63.9844 107.258 63.7164 107.03 63.4004 106.942C63.1924 106.87 62.9524 106.858 62.7324 106.91C62.0964 107.046 61.8804 107.53 61.6724 107.966L61.5644 108.198C61.3404 108.678 61.0884 109.106 60.7964 109.502C60.3724 110.082 59.8324 110.614 59.2324 111.034C58.5044 111.562 57.6684 111.938 56.7564 112.146C55.9124 112.334 55.0164 112.358 54.1804 112.214C53.4684 112.086 52.7764 111.846 52.1364 111.49C51.5364 111.162 51.0764 110.798 50.8644 110.622L50.6804 110.474C50.3364 110.198 50.0244 109.942 49.5484 109.942C49.4524 109.942 49.3484 109.95 49.2524 109.97C49.0404 110.022 48.8324 110.134 48.6684 110.286C48.4124 110.514 48.2644 110.842 48.2564 111.182C48.2364 111.702 48.4924 112.062 49.0284 112.622C49.5044 113.122 50.0644 113.57 50.6804 113.966C51.5684 114.53 52.5884 114.942 53.6244 115.15C54.2004 115.27 54.8044 115.334 55.4084 115.334C56.0884 115.334 56.7764 115.254 57.4404 115.106L57.5084 115.09C58.7684 114.794 59.9764 114.23 61.0044 113.454C61.8484 112.81 62.5924 112.01 63.1604 111.134C63.5644 110.514 63.8724 109.858 64.0844 109.182C64.3204 108.466 64.3924 108.006 64.1484 107.55Z" fill="#3E3D3F"/>
<path fill-rule="evenodd" clip-rule="evenodd" d="M43.828 94.2136C43.828 98.1096 40.676 101.266 36.784 101.266C32.892 101.266 29.732 98.1096 29.732 94.2136C29.732 90.3176 32.892 87.1616 36.784 87.1616C40.676 87.1616 43.828 90.3176 43.828 94.2136Z" fill="#3E3D3F"/>
<path fill-rule="evenodd" clip-rule="evenodd" d="M35.3904 96.206C35.3904 97.342 34.4784 98.258 33.3384 98.258C32.2144 98.258 31.2944 97.342 31.2944 96.206C31.2944 95.078 32.2144 94.154 33.3384 94.154C34.4784 94.154 35.3904 95.078 35.3904 96.206Z" fill="#FEFEFE"/>
<path fill-rule="evenodd" clip-rule="evenodd" d="M36.7848 93.9832C36.7848 94.4512 36.4008 94.8272 35.9408 94.8272C35.4688 94.8272 35.0888 94.4512 35.0888 93.9832C35.0888 93.5152 35.4688 93.1392 35.9408 93.1392C36.4008 93.1392 36.7848 93.5152 36.7848 93.9832Z" fill="#FEFEFE"/>
<path fill-rule="evenodd" clip-rule="evenodd" d="M78.4608 95.0888C78.4608 98.9808 75.3088 102.141 71.4128 102.141C67.5248 102.141 64.3688 98.9808 64.3688 95.0888C64.3688 91.1928 67.5248 88.0368 71.4128 88.0368C75.3088 88.0368 78.4608 91.1928 78.4608 95.0888Z" fill="#3E3D3F"/>
<path fill-rule="evenodd" clip-rule="evenodd" d="M70.0272 97.0808C70.0272 98.2168 69.1112 99.1368 67.9752 99.1368C66.8432 99.1368 65.9232 98.2168 65.9232 97.0808C65.9232 95.9528 66.8432 95.0288 67.9752 95.0288C69.1112 95.0288 70.0272 95.9528 70.0272 97.0808Z" fill="#FEFEFE"/>
<path fill-rule="evenodd" clip-rule="evenodd" d="M71.414 94.8544C71.414 95.3264 71.034 95.6984 70.57 95.6984C70.106 95.6984 69.722 95.3264 69.722 94.8544C69.722 94.3864 70.106 94.0104 70.57 94.0104C71.034 94.0104 71.414 94.3864 71.414 94.8544Z" fill="#FEFEFE"/>
</svg>
