<svg width="118" height="161" viewBox="0 0 118 161" fill="none" xmlns="http://www.w3.org/2000/svg">
<path fill-rule="evenodd" clip-rule="evenodd" d="M97.024 53.52C101.588 49.48 103.972 43.396 103.972 37.528C103.972 34.308 103.496 32.788 101.932 28.272C101.236 25.92 100.116 22.496 98.552 17.748C95.804 9.396 88.74 4 80.556 4C59.304 4 40.968 12.748 26.064 29.988C11.424 46.876 4 67.068 4 89.996C4 109.028 8.436 124.96 17.144 137.296C27.564 152.388 42.344 160.04 61.068 160.04C77.94 160.04 91.7 154.104 101.956 142.412C111.972 131.052 117.052 116.08 117.052 97.92C117.052 82.016 112.24 68.868 102.804 58.896C100.98 56.908 99.052 55.116 97.024 53.52Z" fill="black" fill-opacity="0.15"/>
<path fill-rule="evenodd" clip-rule="evenodd" d="M93.024 49.52C97.588 45.48 99.972 39.396 99.972 33.528C99.972 30.308 99.496 28.788 97.932 24.272C97.236 21.92 96.116 18.496 94.552 13.748C91.804 5.396 84.74 0 76.556 0C55.304 0 36.968 8.748 22.064 25.988C7.424 42.876 0 63.068 0 85.996C0 105.028 4.436 120.96 13.144 133.296C23.564 148.388 38.344 156.04 57.068 156.04C73.94 156.04 87.7 150.104 97.956 138.412C107.972 127.052 113.052 112.08 113.052 93.92C113.052 78.016 108.24 64.868 98.804 54.896C96.98 52.908 95.052 51.116 93.024 49.52Z" fill="#D1ECF6"/>
<path fill-rule="evenodd" clip-rule="evenodd" d="M54.3016 109.446C54.4616 109.282 54.6696 109.17 54.8976 109.11C55.5256 108.95 55.9336 109.27 56.3096 109.554L56.5096 109.714C56.9176 110.034 57.3336 110.298 57.7656 110.514C58.3936 110.822 59.1016 111.042 59.8216 111.142C60.6816 111.266 61.5656 111.218 62.4456 111.002L62.4856 110.99C63.3016 110.782 64.0896 110.398 64.7576 109.89C65.3256 109.462 65.8096 108.942 66.2136 108.35C66.5896 107.782 66.8216 107.258 66.9336 107.014L67.0336 106.802C67.2296 106.342 67.4296 105.862 68.0776 105.702C68.2896 105.65 68.5216 105.658 68.7256 105.71C69.0536 105.802 69.3416 106.03 69.5096 106.326C69.7576 106.774 69.7016 107.206 69.4816 107.95C69.2936 108.602 69.0096 109.254 68.6456 109.874C68.1136 110.774 67.4056 111.594 66.5976 112.246C65.6256 113.03 64.4656 113.618 63.2296 113.934L63.1616 113.95L63.1336 113.958C61.9016 114.262 60.5976 114.31 59.3576 114.094C58.3256 113.918 57.3056 113.55 56.4176 113.042C55.7896 112.678 55.2136 112.246 54.7176 111.754C54.1816 111.218 53.9176 110.858 53.9216 110.334C53.9256 110.002 54.0616 109.678 54.3016 109.446Z" fill="#3E3D3F"/>
<path fill-rule="evenodd" clip-rule="evenodd" d="M60.4772 83.852C59.7412 83.112 59.5172 82.768 59.5212 82.364C59.5252 81.996 59.7372 81.78 59.8132 81.72C59.9292 81.596 60.0852 81.508 60.2532 81.464C60.7372 81.344 61.0172 81.56 61.5612 81.988L61.8932 82.252C62.3652 82.604 63.0972 83.136 64.0932 83.628C65.2172 84.188 66.4652 84.572 67.7132 84.748C69.2212 84.956 70.8012 84.884 72.2732 84.516L72.4172 84.48C73.8812 84.104 75.2772 83.432 76.4572 82.532C77.4532 81.772 78.3252 80.852 79.0412 79.784C79.7052 78.804 80.1092 77.884 80.2892 77.488L80.4412 77.128C80.7412 76.44 80.8812 76.128 81.3772 76.008C81.5332 75.968 81.7012 75.972 81.8652 76.012C82.1052 76.084 82.3132 76.248 82.4292 76.464C82.6012 76.768 82.6292 77.108 82.2972 78.22C82.0052 79.204 81.5892 80.16 81.0612 81.064C80.5212 81.984 79.5572 83.344 78.0412 84.564C76.6092 85.724 74.8852 86.584 73.0612 87.056L72.9172 87.096C71.0932 87.544 69.1612 87.612 67.3172 87.292C65.3932 86.964 63.8932 86.272 62.9732 85.744C62.0532 85.216 61.2172 84.584 60.4772 83.852Z" fill="#3E3D3F"/>
<path fill-rule="evenodd" clip-rule="evenodd" d="M26.032 90.4496C26.156 90.3256 26.308 90.2376 26.476 90.1976C26.964 90.0776 27.24 90.2936 27.784 90.7216L28.116 90.9816C28.588 91.3456 29.336 91.8736 30.32 92.3656C31.436 92.9136 32.688 93.3016 33.94 93.4816C35.448 93.6976 37.02 93.6176 38.5 93.2496L38.636 93.2136C40.1 92.8376 41.496 92.1656 42.672 91.2616C43.672 90.5096 44.544 89.5856 45.264 88.5176C45.904 87.5656 46.304 86.6736 46.492 86.2496L46.652 85.8816C46.956 85.1856 47.096 84.8696 47.596 84.7376C47.748 84.6976 47.92 84.7016 48.088 84.7456C48.328 84.8176 48.536 84.9856 48.644 85.1936C48.828 85.4976 48.852 85.8256 48.516 86.9536C48.232 87.9376 47.812 88.8896 47.28 89.7896C46.744 90.7176 45.78 92.0736 44.268 93.2936C42.828 94.4576 41.112 95.3176 39.288 95.7856L39.152 95.8256H39.148C37.316 96.2776 35.384 96.3496 33.544 96.0296C31.616 95.6976 30.116 95.0056 29.196 94.4736C28.28 93.9456 27.444 93.3136 26.7 92.5856C26.216 92.0976 25.964 91.7976 25.844 91.5376C25.74 91.3096 25.616 90.8576 26.032 90.4496Z" fill="#3E3D3F"/>
<path fill-rule="evenodd" clip-rule="evenodd" d="M70.188 91.4652C70.66 93.2932 74.772 93.8092 79.376 92.6172C83.972 91.4292 87.324 88.9852 86.848 87.1612C86.38 85.3332 82.268 84.8172 77.668 86.0092C73.068 87.2012 69.716 89.6412 70.188 91.4652Z" fill="#F9C9D0"/>
<path fill-rule="evenodd" clip-rule="evenodd" d="M28.8016 102.168C29.2736 103.992 33.3816 104.508 37.9856 103.316C42.5856 102.128 45.9336 99.6844 45.4656 97.8564C44.9896 96.0324 40.8816 95.5244 36.2776 96.7084C31.6776 97.9004 28.3336 100.34 28.8016 102.168Z" fill="#F9C9D0"/>
</svg>
