<svg width="120" height="161" viewBox="0 0 120 161" fill="none" xmlns="http://www.w3.org/2000/svg">
<path fill-rule="evenodd" clip-rule="evenodd" d="M100.582 101.588H99.9103C99.7023 101.588 99.4943 101.604 99.2823 101.624L97.9983 101.752C96.7503 101.9 95.5063 102.036 94.2743 102.164C107.146 84.58 113.21 69.952 113.21 56.772C113.21 39.628 106.898 25.472 94.9543 15.836C85.2223 7.98 73.0943 4 58.9103 4C51.4103 4 43.4503 5.356 35.2583 8.036C34.9543 8.136 34.6583 8.264 34.3743 8.408L14.1903 18.764C13.7343 19 13.3103 19.284 12.9303 19.624L12.5383 19.976C12.3303 20.164 12.1263 20.36 11.9383 20.5C11.7263 20.644 11.5223 20.796 11.3303 20.964C8.31833 23.572 6.15433 26.608 4.89433 29.992C4.81833 30.2 4.75033 30.416 4.69433 30.632L4.55833 31.104C4.39833 31.652 4.24233 32.196 4.11433 32.848C3.98233 33.54 3.96233 34.244 4.06633 34.944L7.82633 59.88C7.91033 60.428 8.06233 60.96 8.29033 61.468C10.4703 66.34 13.7503 68.868 15.9143 70.012L16.5423 70.38C17.1943 70.764 17.9103 71.016 18.6543 71.14L18.7183 71.148C20.5303 71.84 22.5143 72.188 24.6343 72.188H27.8823C29.2143 72.188 30.5063 71.756 31.5703 70.952L38.6143 65.624C41.0103 63.844 43.5023 62.352 45.9823 61.22C48.9983 59.86 51.8303 59.232 54.8903 59.232C56.5183 59.232 57.1663 59.584 58.1543 60.532C58.2823 60.652 58.3743 60.736 58.4223 60.792C58.3703 61.204 57.4183 67.06 47.0703 81.428C40.8063 90.116 34.2503 97.98 27.5743 104.832C26.9943 104.976 26.2623 105.144 25.3503 105.324C22.3983 105.912 20.1503 106.52 18.2583 107.244C8.98633 110.84 5.68233 118.968 5.68233 125.368V126.428C5.68233 126.752 5.71033 127.084 5.76233 127.404L8.31833 143.116L8.45833 143.844C8.49433 144.008 8.53033 144.172 8.57433 144.332C11.0903 153.28 18.3503 159.064 27.0703 159.064C31.1463 159.064 37.5383 159.024 45.8743 158.736C53.9423 158.572 60.0743 158.496 64.0263 158.496C76.2783 158.496 84.3943 158.728 89.7183 159.252C95.5143 159.672 98.1823 159.984 98.2783 159.996C98.5143 160.02 98.7583 160.036 98.9983 160.036C111.67 160.036 118.51 149.688 118.51 139.952C118.51 138.312 118.614 135.688 118.79 132.044L118.93 128.348C119.026 125.96 119.102 124.044 119.102 122.568C119.102 108.94 109.558 101.588 100.582 101.588Z" fill="black" fill-opacity="0.15"/>
<path fill-rule="evenodd" clip-rule="evenodd" d="M96.5823 97.588H95.9103C95.7023 97.588 95.4943 97.604 95.2823 97.624L93.9983 97.752C92.7503 97.9 91.5063 98.036 90.2743 98.164C103.146 80.58 109.21 65.952 109.21 52.772C109.21 35.628 102.898 21.472 90.9543 11.836C81.2223 3.98 69.0943 0 54.9103 0C47.4103 0 39.4503 1.356 31.2583 4.036C30.9543 4.136 30.6583 4.264 30.3743 4.408L10.1903 14.764C9.73433 15 9.31033 15.284 8.93033 15.624L8.53833 15.976C8.33033 16.164 8.12633 16.36 7.93833 16.5C7.72633 16.644 7.52233 16.796 7.33033 16.964C4.31833 19.572 2.15433 22.608 0.894332 25.992C0.818332 26.2 0.750332 26.416 0.694332 26.632L0.558332 27.104C0.398332 27.652 0.242332 28.196 0.114332 28.848C-0.0176676 29.54 -0.0376676 30.244 0.0663324 30.944L3.82633 55.88C3.91033 56.428 4.06233 56.96 4.29033 57.468C6.47033 62.34 9.75033 64.868 11.9143 66.012L12.5423 66.38C13.1943 66.764 13.9103 67.016 14.6543 67.14L14.7183 67.148C16.5303 67.84 18.5143 68.188 20.6343 68.188H23.8823C25.2143 68.188 26.5063 67.756 27.5703 66.952L34.6143 61.624C37.0103 59.844 39.5023 58.352 41.9823 57.22C44.9983 55.86 47.8303 55.232 50.8903 55.232C52.5183 55.232 53.1663 55.584 54.1543 56.532C54.2823 56.652 54.3743 56.736 54.4223 56.792C54.3703 57.204 53.4183 63.06 43.0703 77.428C36.8063 86.116 30.2503 93.98 23.5743 100.832C22.9943 100.976 22.2623 101.144 21.3503 101.324C18.3983 101.912 16.1503 102.52 14.2583 103.244C4.98633 106.84 1.68233 114.968 1.68233 121.368V122.428C1.68233 122.752 1.71033 123.084 1.76233 123.404L4.31833 139.116L4.45833 139.844C4.49433 140.008 4.53033 140.172 4.57433 140.332C7.09033 149.28 14.3503 155.064 23.0703 155.064C27.1463 155.064 33.5383 155.024 41.8743 154.736C49.9423 154.572 56.0743 154.496 60.0263 154.496C72.2783 154.496 80.3943 154.728 85.7183 155.252C91.5143 155.672 94.1823 155.984 94.2783 155.996C94.5143 156.02 94.7583 156.036 94.9983 156.036C107.67 156.036 114.51 145.688 114.51 135.952C114.51 134.312 114.614 131.688 114.79 128.044L114.93 124.348C115.026 121.96 115.102 120.044 115.102 118.568C115.102 104.94 105.558 97.588 96.5823 97.588Z" fill="#E4D7E9"/>
<path fill-rule="evenodd" clip-rule="evenodd" d="M69.7131 38.338C69.7131 41.606 67.0611 44.254 63.7891 44.254C60.5171 44.254 57.8731 41.606 57.8731 38.338C57.8731 35.07 60.5171 32.422 63.7891 32.422C67.0611 32.422 69.7131 35.07 69.7131 38.338Z" fill="#3E3D3F"/>
<path fill-rule="evenodd" clip-rule="evenodd" d="M62.6235 40.0096C62.6235 40.9616 61.8555 41.7376 60.9035 41.7376C59.9515 41.7376 59.1795 40.9616 59.1795 40.0096C59.1795 39.0616 59.9515 38.2896 60.9035 38.2896C61.8555 38.2896 62.6235 39.0616 62.6235 40.0096Z" fill="#FEFEFE"/>
<path fill-rule="evenodd" clip-rule="evenodd" d="M63.7895 38.1428C63.7895 38.5348 63.4695 38.8548 63.0815 38.8548C62.6895 38.8548 62.3735 38.5348 62.3735 38.1428C62.3735 37.7508 62.6895 37.4308 63.0815 37.4308C63.4695 37.4308 63.7895 37.7508 63.7895 38.1428Z" fill="#FEFEFE"/>
<path fill-rule="evenodd" clip-rule="evenodd" d="M98.8071 39.0684C98.8071 42.3404 96.1591 44.9924 92.8871 44.9924C89.6151 44.9924 86.9631 42.3404 86.9631 39.0684C86.9631 35.8044 89.6151 33.1524 92.8871 33.1524C96.1591 33.1524 98.8071 35.8044 98.8071 39.0684Z" fill="#3E3D3F"/>
<path fill-rule="evenodd" clip-rule="evenodd" d="M91.7211 40.748C91.7211 41.7 90.9491 42.476 89.9931 42.476C89.0491 42.476 88.2731 41.7 88.2731 40.748C88.2731 39.796 89.0491 39.024 89.9931 39.024C90.9491 39.024 91.7211 39.796 91.7211 40.748Z" fill="#FEFEFE"/>
<path fill-rule="evenodd" clip-rule="evenodd" d="M92.8871 38.8768C92.8871 39.2688 92.5631 39.5888 92.1751 39.5888C91.7831 39.5888 91.4671 39.2688 91.4671 38.8768C91.4671 38.4848 91.7831 38.1688 92.1751 38.1688C92.5631 38.1688 92.8871 38.4848 92.8871 38.8768Z" fill="#FEFEFE"/>
<path fill-rule="evenodd" clip-rule="evenodd" d="M77.9243 54.1584C77.1763 54.2344 76.4323 54.2424 75.7083 54.2104C74.6803 54.1584 73.6523 53.9944 72.6963 53.7464C72.4723 54.2104 72.2963 54.7304 72.1963 55.2744C71.7483 57.8144 73.0403 60.0504 75.0923 60.2624C77.1403 60.4784 79.1683 58.5904 79.6203 56.0464C79.7483 55.3024 79.7283 54.5784 79.5843 53.9264C79.0403 54.0304 78.4883 54.1144 77.9243 54.1584Z" fill="#D9574F"/>
<path fill-rule="evenodd" clip-rule="evenodd" d="M86.7443 49.5412C86.5843 49.2932 86.2963 49.1092 85.9643 49.0252C85.7403 48.9652 85.4963 48.9572 85.2563 48.9972C84.5963 49.1252 84.3563 49.5252 84.1443 49.8892L84.0323 50.0892C83.7923 50.4892 83.5323 50.8492 83.2243 51.1812C82.7763 51.6692 82.2043 52.1132 81.5763 52.4652C80.8083 52.9092 79.9283 53.2252 78.9683 53.4012C78.0843 53.5612 77.1403 53.5852 76.2563 53.4572C75.5083 53.3572 74.7803 53.1492 74.1123 52.8532C73.4683 52.5732 72.9963 52.2732 72.7683 52.1252L72.5763 51.9972C72.2203 51.7692 71.8843 51.5492 71.3883 51.5492C71.2883 51.5492 71.1803 51.5612 71.0723 51.5772C70.8523 51.6212 70.6323 51.7092 70.4603 51.8332C70.1923 52.0292 70.0363 52.3092 70.0283 52.6012C70.0043 53.0292 70.2723 53.3332 70.8403 53.8012C71.3403 54.2212 71.9283 54.6012 72.5763 54.9292C73.5163 55.4052 74.5843 55.7532 75.6683 55.9332C76.2843 56.0292 76.9163 56.0732 77.5523 56.0732C78.2763 56.0732 78.9923 56.0132 79.6843 55.8852L79.7563 55.8732C81.0843 55.6252 82.3603 55.1452 83.4363 54.4972C84.3323 53.9612 85.1163 53.2892 85.7123 52.5532C86.1283 52.0292 86.4563 51.4772 86.6843 50.9132C86.9243 50.3012 87.0043 49.9252 86.7443 49.5412Z" fill="#3E3D3F"/>
</svg>
