<svg width="97" height="116" viewBox="0 0 97 116" fill="none" xmlns="http://www.w3.org/2000/svg">
<g clip-path="url(#clip0_1_1693)">
<path opacity="0.101632" fill-rule="evenodd" clip-rule="evenodd" d="M50.8818 82.0405C21.2636 34.2263 94.0727 40.4773 58.2182 82.7304C55.6818 82.6063 53.2333 82.3703 50.8818 82.0405ZM79.7394 23.4883C25.2727 -14.3746 -9.49393 79.381 36.0939 110.128C87.9152 138.901 116.694 54.132 79.7394 23.4883" fill="black"/>
<path fill-rule="evenodd" clip-rule="evenodd" d="M41.9121 73.0819C12.2818 25.2768 85.1 31.5126 49.2455 73.7718C46.7091 73.6477 44.2606 73.4117 41.9121 73.0819ZM70.7667 14.5297C16.3 -23.3332 -18.4666 70.4224 27.1212 101.169C78.9424 129.943 107.721 45.1734 70.7667 14.5297" fill="#7F3076"/>
<path fill-rule="evenodd" clip-rule="evenodd" d="M38.9736 70.1476C9.34637 22.3394 82.1645 28.5844 46.307 70.8374C43.7706 70.7134 41.3221 70.4774 38.9736 70.1476ZM67.8282 11.5984C13.3615 -26.2705 -21.4051 67.485 24.1858 98.2346C76.0009 127.011 104.786 42.2361 67.8282 11.5984" fill="#98398F"/>
<path fill-rule="evenodd" clip-rule="evenodd" d="M43.3682 67.9023C40.8318 67.7782 38.3834 67.5483 36.0379 67.2155C38.3228 67.7691 37.95 69.1035 43.3682 67.9023Z" fill="#C9E4E2"/>
<path fill-rule="evenodd" clip-rule="evenodd" d="M15.2964 11.124C5.69336 21.1812 -0.706641 36.4002 0.026692 53.3105C8.53578 58.5842 20.1964 64.9895 36.0388 67.2164C6.39942 19.3991 79.2328 25.6562 43.3691 67.9032C57.3358 69.0923 71.0721 65.286 81.4661 55.0896C82.7237 38.6694 78.3631 20.3462 64.8903 8.66718C51.4267 4.34052 30.9903 5.84124 15.2964 11.124" fill="#9F559F"/>
<path fill-rule="evenodd" clip-rule="evenodd" d="M43.3682 67.9023C42.6106 68.1898 39.3955 68.9794 36.0379 67.2155C20.1985 64.9886 8.53485 58.5833 0.0257568 53.3127C4.63788 118.673 76.3955 113.438 81.4651 55.0918C70.753 64.7829 59.8561 69.046 43.3682 67.9023Z" fill="#9D4497"/>
<path fill-rule="evenodd" clip-rule="evenodd" d="M15.2964 11.124C29.5055 6.50387 49.0873 3.84433 64.8903 8.6672C52.0752 -2.81813 28.6752 -3.35064 15.2964 11.124" fill="#9D4497"/>
<path fill-rule="evenodd" clip-rule="evenodd" d="M40.211 11.011C73.133 24.487 63.707 50.329 63.683 54.67C84.644 48.922 66.833 9.41803 46.934 9.41803C44.702 9.41803 42.446 9.91303 40.211 11.011Z" fill="url(#paint0_linear_1_1693)"/>
</g>
<defs>
<linearGradient id="paint0_linear_1_1693" x1="55.2874" y1="54.4589" x2="59.1622" y2="10.0924" gradientUnits="userSpaceOnUse">
<stop stop-color="white" stop-opacity="0"/>
<stop offset="1" stop-color="#FEFEFE" stop-opacity="0.495547"/>
</linearGradient>
<clipPath id="clip0_1_1693">
<rect width="97" height="116" fill="white"/>
</clipPath>
</defs>
</svg>
