<svg width="121" height="161" viewBox="0 0 121 161" fill="none" xmlns="http://www.w3.org/2000/svg">
<path fill-rule="evenodd" clip-rule="evenodd" d="M120.64 106.068L120.58 103.524C120.528 101.3 120.484 99.532 120.484 98.324C120.484 87.54 113.976 80.996 106.848 79.32C106.864 78.316 106.88 77.268 106.896 76.192L106.916 74.772C106.916 70.256 106.956 66.632 106.984 63.864C107.004 62.124 107.02 60.708 107.02 59.624C107.02 57.472 107.088 52.864 107.572 46.188C108.04 39.4 108.276 34.068 108.276 30.34C108.276 21.188 103.14 13.428 94.844 10.076C84.308 5.876 76.908 4 70.852 4C67.196 4 60.24 5.204 54.704 13.276C54.636 13.368 54.552 13.512 54.464 13.664C54.352 13.816 54.244 13.976 54.144 14.14C51.84 17.948 50.008 21.104 48.54 23.64L46.708 26.78C42.68 33.464 35.776 44.74 25.956 60.22C18.516 70.488 13.184 77.764 9.584 82.308C9.54 82.36 9.332 82.66 9.292 82.72C5.532 87.82 4 94.356 4 105.272C4 111.732 4.98 117.244 6.892 121.612C10.404 129.812 17.652 134.9 25.812 134.9C30.16 134.9 36.36 134.744 47.18 134.368C48.412 134.332 49.588 134.3 50.724 134.268C50.468 137.036 50.42 138.744 50.42 140.076C50.42 147.996 54.876 157.196 67.444 159.28C70.788 159.792 74.572 160.04 79.016 160.04C84.36 160.04 88.548 159.792 92.048 159.232C101.388 157.4 107.908 149.136 107.908 139.144C107.908 137.488 107.856 135.54 107.748 133.308C115.448 130.98 120.764 123.696 120.764 114.572C120.764 113.76 120.744 112.792 120.72 111.648C120.684 110.152 120.64 108.34 120.64 106.068Z" fill="black" fill-opacity="0.15"/>
<path fill-rule="evenodd" clip-rule="evenodd" d="M116.64 102.068L116.58 99.524C116.528 97.3 116.484 95.532 116.484 94.324C116.484 83.54 109.976 76.996 102.848 75.32C102.864 74.316 102.88 73.268 102.896 72.192L102.916 70.772C102.916 66.256 102.956 62.632 102.984 59.864C103.004 58.124 103.02 56.708 103.02 55.624C103.02 53.472 103.088 48.864 103.572 42.188C104.04 35.4 104.276 30.068 104.276 26.34C104.276 17.188 99.14 9.428 90.844 6.076C80.308 1.876 72.908 0 66.852 0C63.196 0 56.24 1.204 50.704 9.276C50.636 9.368 50.552 9.512 50.464 9.664C50.352 9.816 50.244 9.976 50.144 10.14C47.84 13.948 46.008 17.104 44.54 19.64L42.708 22.78C38.68 29.464 31.776 40.74 21.956 56.22C14.516 66.488 9.184 73.764 5.584 78.308C5.54 78.36 5.332 78.66 5.292 78.72C1.532 83.82 0 90.356 0 101.272C0 107.732 0.98 113.244 2.892 117.612C6.404 125.812 13.652 130.9 21.812 130.9C26.16 130.9 32.36 130.744 43.18 130.368C44.412 130.332 45.588 130.3 46.724 130.268C46.468 133.036 46.42 134.744 46.42 136.076C46.42 143.996 50.876 153.196 63.444 155.28C66.788 155.792 70.572 156.04 75.016 156.04C80.36 156.04 84.548 155.792 88.048 155.232C97.388 153.4 103.908 145.136 103.908 135.144C103.908 133.488 103.856 131.54 103.748 129.308C111.448 126.98 116.764 119.696 116.764 110.572C116.764 109.76 116.744 108.792 116.72 107.648C116.684 106.152 116.64 104.34 116.64 102.068Z" fill="#FBE7BF"/>
<path fill-rule="evenodd" clip-rule="evenodd" d="M79.5344 78.9548C79.4744 78.8788 79.3904 78.8108 79.2944 78.7828C79.2264 78.7548 79.1544 78.7468 79.0904 78.7468C78.9104 78.7468 78.7704 78.8268 78.5264 78.9788L78.3424 79.0908C78.0784 79.2388 77.6744 79.4708 77.1544 79.6548C77.0384 79.6948 76.9304 79.7268 76.7984 79.7748C76.6384 79.6868 76.4864 79.6148 76.3224 79.5388C76.5344 79.2948 76.7224 79.0388 76.8864 78.7828C77.0664 78.4748 77.1624 78.2908 77.1944 78.1388C77.2384 77.8868 77.1544 77.6788 76.9424 77.5508C76.8504 77.5028 76.7464 77.4748 76.6384 77.4748C76.3544 77.4748 76.2184 77.6388 76.0024 77.9148L75.8664 78.0868C75.6744 78.3188 75.3704 78.6708 74.9464 79.0188C74.9264 79.0268 74.9184 79.0388 74.9064 79.0508C74.7904 79.0268 74.6744 79.0028 74.5624 78.9788C73.4104 78.7348 72.1824 78.7348 71.0144 78.9788L70.9224 78.9988C69.7664 79.2468 68.6544 79.7388 67.7344 80.4268C66.7504 81.1468 66.1064 81.9628 65.7384 82.5308C65.3864 83.0668 65.1104 83.6548 64.8984 84.2588C64.6664 84.9588 64.6744 85.1708 64.7784 85.3588C64.8544 85.5068 64.9864 85.6228 65.1424 85.6748C65.2064 85.6908 65.2744 85.6988 65.3424 85.6988C65.3864 85.6988 65.4304 85.6988 65.4744 85.6868C65.7984 85.6108 65.8984 85.4028 66.1064 84.9828L66.2104 84.7628C66.3384 84.5028 66.6144 83.9628 67.0424 83.3908C67.5104 82.7468 68.0784 82.2028 68.7144 81.7628C69.4784 81.2388 70.3664 80.8548 71.2864 80.6508L71.3784 80.6348C72.3064 80.4428 73.3024 80.4268 74.2424 80.5948C75.0144 80.7268 75.7944 81.0028 76.4864 81.3628C77.0944 81.6868 77.5384 82.0308 77.8304 82.2628L78.0384 82.4308C78.3264 82.6788 78.4904 82.8068 78.7304 82.8068C78.7824 82.8068 78.8224 82.8028 78.8744 82.7948C78.9864 82.7668 79.0824 82.7148 79.1704 82.6348C79.4504 82.3748 79.3904 82.0908 79.3224 81.9388C79.2504 81.7748 79.0904 81.5748 78.7944 81.2628C78.6064 81.0588 78.3864 80.8628 78.1504 80.6748C78.4824 80.4948 78.7824 80.2988 79.0624 80.0868C79.3464 79.8628 79.4904 79.7188 79.5704 79.5868C79.7104 79.3708 79.6904 79.1388 79.5344 78.9548Z" fill="#3E3D3F"/>
<path fill-rule="evenodd" clip-rule="evenodd" d="M48.5132 94.4976C48.6492 95.7976 46.0372 97.1376 42.6812 97.4776C39.3132 97.8216 36.4732 97.0416 36.3372 95.7416C36.1972 94.4336 38.8172 93.1016 42.1772 92.7536C45.5292 92.4136 48.3732 93.1936 48.5132 94.4976Z" fill="#EFBFA3"/>
<path fill-rule="evenodd" clip-rule="evenodd" d="M78.7476 91.412C78.8956 92.716 76.2796 94.052 72.9156 94.392C69.5476 94.732 66.7236 93.952 66.5796 92.652C66.4356 91.352 69.0516 90.012 72.4156 89.668C75.7756 89.328 78.6116 90.104 78.7476 91.412Z" fill="#EFBFA3"/>
<path fill-rule="evenodd" clip-rule="evenodd" d="M64.8256 99.0096C64.7416 98.8496 64.5976 98.7376 64.4216 98.6856C64.3056 98.6376 64.1736 98.6376 64.0616 98.6616C63.7096 98.7496 63.5856 98.9936 63.4456 99.2856L63.3616 99.4656C63.2496 99.7016 63.0696 100.062 62.7656 100.462C62.4336 100.902 62.0136 101.306 61.5456 101.63C60.9856 102.026 60.3256 102.314 59.6136 102.478C58.9416 102.622 58.2416 102.646 57.5896 102.53C57.0336 102.434 56.4976 102.254 55.9936 101.974C55.5256 101.734 55.1816 101.466 55.0016 101.322L54.8696 101.218C54.5896 100.994 54.3656 100.822 54.0216 100.894C53.9016 100.922 53.7896 100.986 53.7016 101.066C53.5656 101.186 53.4856 101.358 53.4816 101.542C53.4736 101.798 53.5776 101.998 53.9776 102.41C54.3296 102.762 54.7296 103.082 55.1616 103.346C55.8016 103.746 56.5296 104.034 57.2696 104.178C58.1576 104.358 59.1056 104.342 59.9976 104.146L60.0496 104.13C60.9576 103.926 61.8176 103.526 62.5576 102.982C63.1696 102.538 63.7016 101.974 64.1056 101.358C64.3936 100.93 64.6136 100.482 64.7656 100.002C64.9376 99.4736 64.9576 99.2376 64.8256 99.0096Z" fill="#3E3D3F"/>
<path fill-rule="evenodd" clip-rule="evenodd" d="M47.1888 84.982C47.1888 88.082 44.6128 90.594 41.4408 90.594C38.2728 90.594 35.7008 88.082 35.7008 84.982C35.7008 81.882 38.2728 79.37 41.4408 79.37C44.6128 79.37 47.1888 81.882 47.1888 84.982Z" fill="#3E3D3F"/>
<path fill-rule="evenodd" clip-rule="evenodd" d="M40.3176 86.572C40.3176 87.476 39.5656 88.204 38.6456 88.204C37.7176 88.204 36.9736 87.476 36.9736 86.572C36.9736 85.672 37.7176 84.936 38.6456 84.936C39.5656 84.936 40.3176 85.672 40.3176 86.572Z" fill="#FEFEFE"/>
<path fill-rule="evenodd" clip-rule="evenodd" d="M41.4428 84.8024C41.4428 85.1704 41.1348 85.4744 40.7628 85.4744C40.3788 85.4744 40.0668 85.1704 40.0668 84.8024C40.0668 84.4224 40.3788 84.1224 40.7628 84.1224C41.1348 84.1224 41.4428 84.4224 41.4428 84.8024Z" fill="#FEFEFE"/>
</svg>
