<svg width="112" height="161" viewBox="0 0 112 161" fill="none" xmlns="http://www.w3.org/2000/svg">
<path fill-rule="evenodd" clip-rule="evenodd" d="M102.259 76.064C102.283 76.008 102.323 75.92 102.359 75.828C106.063 68.16 107.939 60.236 107.939 52.272C107.939 36.136 100.875 22.48 88.1034 13.856C78.6514 7.316 67.4114 4 54.6914 4C48.1874 4 41.3434 4.724 34.4474 6.14C28.3434 7.288 23.4874 8.86 19.5714 10.956C8.12742 17.156 6.89142 27.172 6.89142 31.192C6.89142 37.264 7.13542 41.596 7.65142 44.788C9.02342 53.768 13.1954 58.956 17.9834 61.46C16.6634 63.708 15.6114 66.432 14.9674 69.688C14.2914 73.12 13.9754 77.432 13.9754 83.26C13.9754 89.184 16.3274 94.52 20.2754 98.14C15.3154 99.776 10.1314 104.044 7.67142 112.276C3.07142 127.148 2.79542 137.624 6.83542 144.296C8.49542 147.036 10.7114 148.704 12.6674 149.54C13.1434 149.84 13.6634 150.096 14.2194 150.308C26.7834 156.768 40.9514 160.04 56.3354 160.04C70.8914 160.04 83.2314 156.116 92.9874 148.384C105.159 138.848 111.591 124.476 111.591 106.812C111.591 94.764 108.371 84.256 102.227 76.136C102.239 76.112 102.251 76.088 102.259 76.064Z" fill="black" fill-opacity="0.15"/>
<path fill-rule="evenodd" clip-rule="evenodd" d="M98.2594 72.064C98.2834 72.008 98.3234 71.92 98.3594 71.828C102.063 64.16 103.939 56.236 103.939 48.272C103.939 32.136 96.8754 18.48 84.1034 9.856C74.6514 3.316 63.4114 0 50.6914 0C44.1874 0 37.3434 0.724 30.4474 2.14C24.3434 3.288 19.4874 4.86 15.5714 6.956C4.12742 13.156 2.89142 23.172 2.89142 27.192C2.89142 33.264 3.13542 37.596 3.65142 40.788C5.02342 49.768 9.19542 54.956 13.9834 57.46C12.6634 59.708 11.6114 62.432 10.9674 65.688C10.2914 69.12 9.97542 73.432 9.97542 79.26C9.97542 85.184 12.3274 90.52 16.2754 94.14C11.3154 95.776 6.13142 100.044 3.67142 108.276C-0.928582 123.148 -1.20458 133.624 2.83542 140.296C4.49542 143.036 6.71142 144.704 8.66742 145.54C9.14342 145.84 9.66342 146.096 10.2194 146.308C22.7834 152.768 36.9514 156.04 52.3354 156.04C66.8914 156.04 79.2314 152.116 88.9874 144.384C101.159 134.848 107.591 120.476 107.591 102.812C107.591 90.764 104.371 80.256 98.2274 72.136C98.2394 72.112 98.2514 72.088 98.2594 72.064Z" fill="#FBDDDF"/>
<path fill-rule="evenodd" clip-rule="evenodd" d="M53.5034 88.8612C53.6394 88.7292 53.8154 88.6252 54.0074 88.5812C54.5354 88.4452 54.8834 88.7172 55.1994 88.9572L55.3674 89.0932C55.7114 89.3572 56.0634 89.5852 56.4274 89.7652C56.9554 90.0252 57.5554 90.2132 58.1594 90.2932C58.8834 90.4012 59.6314 90.3612 60.3714 90.1772L60.4034 90.1652C61.0914 89.9892 61.7594 89.6692 62.3234 89.2412C62.7994 88.8772 63.2074 88.4412 63.5474 87.9372C63.8674 87.4612 64.0634 87.0212 64.1554 86.8132L64.2394 86.6332C64.4074 86.2492 64.5754 85.8412 65.1234 85.7092C65.2994 85.6612 65.4954 85.6652 65.6674 85.7172C65.9434 85.7852 66.1834 85.9772 66.3274 86.2332C66.5394 86.6132 66.4874 86.9772 66.3034 87.6012C66.1434 88.1492 65.9034 88.7052 65.5954 89.2292C65.1514 89.9852 64.5554 90.6772 63.8714 91.2252C63.0554 91.8812 62.0754 92.3812 61.0354 92.6492L60.9754 92.6612L60.9514 92.6692C59.9154 92.9252 58.8154 92.9652 57.7634 92.7812C56.8954 92.6332 56.0354 92.3252 55.2874 91.8972C54.7594 91.5892 54.2714 91.2252 53.8514 90.8052C53.4034 90.3612 53.1794 90.0492 53.1834 89.6092C53.1874 89.3332 53.3034 89.0612 53.5034 88.8612Z" fill="#3E3D3F"/>
<path fill-rule="evenodd" clip-rule="evenodd" d="M58.7106 67.2868C58.0946 66.6628 57.9026 66.3708 57.9066 66.0348C57.9106 65.7188 58.0906 65.5388 58.1506 65.4868C58.2506 65.3788 58.3826 65.3108 58.5226 65.2708C58.9346 65.1708 59.1666 65.3548 59.6266 65.7148L59.9066 65.9308C60.3026 66.2308 60.9226 66.6828 61.7626 67.0988C62.7106 67.5628 63.7626 67.8868 64.8106 68.0388C66.0866 68.2148 67.4186 68.1548 68.6586 67.8468L68.7786 67.8188C70.0106 67.5028 71.1906 66.9308 72.1866 66.1748C73.0266 65.5348 73.7586 64.7548 74.3626 63.8548C74.9226 63.0308 75.2666 62.2508 75.4186 61.9188L75.5426 61.6188C75.7986 61.0388 75.9146 60.7748 76.3346 60.6748C76.4626 60.6388 76.6066 60.6388 76.7426 60.6788C76.9466 60.7348 77.1226 60.8708 77.2226 61.0548C77.3666 61.3108 77.3906 61.6028 77.1106 62.5388C76.8626 63.3668 76.5146 64.1708 76.0666 64.9348C75.6106 65.7108 74.7946 66.8548 73.5186 67.8788C72.3106 68.8668 70.8586 69.5868 69.3226 69.9868L69.2026 70.0188C67.6626 70.3948 66.0346 70.4588 64.4786 70.1868C62.8586 69.9108 61.5906 69.3268 60.8146 68.8788C60.0426 68.4308 59.3346 67.8988 58.7106 67.2868Z" fill="#3E3D3F"/>
<path fill-rule="evenodd" clip-rule="evenodd" d="M29.6714 72.8456C29.7754 72.7456 29.9034 72.6656 30.0474 72.6336C30.4554 72.5336 30.6874 72.7136 31.1474 73.0776L31.4234 73.2936C31.8234 73.5976 32.4554 74.0536 33.2834 74.4576C34.2234 74.9296 35.2794 75.2536 36.3354 75.4056C37.6074 75.5856 38.9354 75.5176 40.1834 75.2096L40.2994 75.1776C41.5314 74.8616 42.7074 74.2896 43.6994 73.5336C44.5434 72.8976 45.2794 72.1216 45.8834 71.2176C46.4234 70.4176 46.7594 69.6616 46.9234 69.3056L47.0554 68.9936C47.3114 68.4096 47.4274 68.1456 47.8474 68.0336C47.9794 67.9976 48.1234 68.0056 48.2634 68.0416C48.4714 68.0976 48.6434 68.2376 48.7354 68.4136C48.8914 68.6736 48.9114 68.9456 48.6274 69.9016C48.3874 70.7296 48.0314 71.5336 47.5834 72.2896C47.1314 73.0736 46.3194 74.2216 45.0434 75.2496C43.8354 76.2256 42.3834 76.9496 40.8474 77.3496L40.7314 77.3816H40.7274C39.1834 77.7616 37.5554 77.8176 36.0034 77.5536C34.3754 77.2736 33.1114 76.6896 32.3394 76.2376C31.5634 75.7936 30.8594 75.2616 30.2354 74.6456C29.8274 74.2416 29.6114 73.9856 29.5114 73.7616C29.4234 73.5696 29.3234 73.1936 29.6714 72.8456Z" fill="#3E3D3F"/>
<path fill-rule="evenodd" clip-rule="evenodd" d="M66.8998 73.7048C67.2998 75.2488 70.7598 75.6768 74.6438 74.6728C78.5198 73.6728 81.3478 71.6128 80.9478 70.0768C80.5518 68.5328 77.0798 68.0968 73.2038 69.1048C69.3238 70.1088 66.4998 72.1608 66.8998 73.7048Z" fill="#F9C9D0"/>
<path fill-rule="evenodd" clip-rule="evenodd" d="M32.0054 82.7284C32.4014 84.2684 35.8654 84.7004 39.7494 83.6924C43.6254 82.6964 46.4494 80.6364 46.0534 79.0924C45.6534 77.5564 42.1854 77.1244 38.3094 78.1244C34.4294 79.1324 31.6094 81.1844 32.0054 82.7284Z" fill="#F9C9D0"/>
</svg>
