<svg width="75" height="161" viewBox="0 0 75 161" fill="none" xmlns="http://www.w3.org/2000/svg">
<path fill-rule="evenodd" clip-rule="evenodd" d="M61.396 9.016L60.288 8.776C59.764 8.664 58.8 8.388 57.54 8.036C50.552 6.084 42.612 4 36.908 4C35.336 4 30.56 4 27.852 7.628C25.708 10.444 25.104 14.1 24.704 16.524C24.68 16.68 24.656 16.828 24.632 16.972C22.748 19.312 21.796 20.492 21.32 21.068C18.524 23.776 16.648 24.816 16.012 25.112C7.216 29.148 4.08 37.384 4.08 43.748L4.044 49.896C4.024 53.052 4 56.348 4 57.028C4 65.508 9.508 74.48 19.776 75.904C19.688 88.62 19.564 97.392 19.376 103.844C18.192 137.58 18.192 139.1 18.192 139.924C18.192 146.068 20.62 151.768 25.012 155.696C28.656 158.748 32.888 160.288 37.588 160.288C38.54 160.288 42.24 160.176 45.924 160.064C49.4 159.952 52.856 159.844 53.732 159.844C64.992 159.844 73.168 150.712 73.168 138.136C73.168 133.184 73.116 126.176 73.056 116.76L73.024 112.56C72.9 101.304 72.82 92.756 72.82 87.164C72.82 61.74 73.436 43.2 74.636 32.196L74.7 31.712C74.72 31.576 74.732 31.432 74.74 31.3L74.828 30.116C74.892 29.316 74.936 28.672 74.936 28.112C74.936 19.372 69.524 11.564 61.396 9.016Z" fill="black" fill-opacity="0.15"/>
<path fill-rule="evenodd" clip-rule="evenodd" d="M57.396 5.016L56.288 4.776C55.764 4.664 54.8 4.388 53.54 4.036C46.552 2.084 38.612 0 32.908 0C31.336 0 26.56 0 23.852 3.628C21.708 6.444 21.104 10.1 20.704 12.524C20.68 12.68 20.656 12.828 20.632 12.972C18.748 15.312 17.796 16.492 17.32 17.068C14.524 19.776 12.648 20.816 12.012 21.112C3.216 25.148 0.08 33.384 0.08 39.748L0.044 45.896C0.024 49.052 0 52.348 0 53.028C0 61.508 5.508 70.48 15.776 71.904C15.688 84.62 15.564 93.392 15.376 99.844C14.192 133.58 14.192 135.1 14.192 135.924C14.192 142.068 16.62 147.768 21.012 151.696C24.656 154.748 28.888 156.288 33.588 156.288C34.54 156.288 38.24 156.176 41.924 156.064C45.4 155.952 48.856 155.844 49.732 155.844C60.992 155.844 69.168 146.712 69.168 134.136C69.168 129.184 69.116 122.176 69.056 112.76L69.024 108.56C68.9 97.304 68.82 88.756 68.82 83.164C68.82 57.74 69.436 39.2 70.636 28.196L70.7 27.712C70.72 27.576 70.732 27.432 70.74 27.3L70.828 26.116C70.892 25.316 70.936 24.672 70.936 24.112C70.936 15.372 65.524 7.564 57.396 5.016Z" fill="#FDE0CC"/>
<path fill-rule="evenodd" clip-rule="evenodd" d="M26.7028 49.4612C26.5908 51.0332 23.8388 52.0372 20.5508 51.7052C17.2668 51.3732 14.6868 49.8332 14.7988 48.2612C14.9068 46.6972 17.6628 45.7012 20.9468 46.0252C24.2388 46.3572 26.8068 47.8932 26.7028 49.4612Z" fill="#F4ABB5"/>
<path fill-rule="evenodd" clip-rule="evenodd" d="M56.3588 48.43C56.5068 49.998 53.9628 51.622 50.6828 52.054C47.4028 52.498 44.6308 51.586 44.4868 50.022C44.3428 48.458 46.8788 46.834 50.1588 46.394C53.4388 45.954 56.2148 46.862 56.3588 48.43Z" fill="#F4ABB5"/>
<path fill-rule="evenodd" clip-rule="evenodd" d="M43.6852 50.934C43.5492 50.69 43.3292 50.506 43.0732 50.43C42.8972 50.374 42.7012 50.358 42.5172 50.406C42.0012 50.518 41.8212 50.918 41.6492 51.274L41.5612 51.466C41.3812 51.858 41.1732 52.21 40.9332 52.538C40.5812 53.014 40.1372 53.45 39.6492 53.798C39.0452 54.23 38.3572 54.538 37.6092 54.71C36.9172 54.866 36.1772 54.886 35.4892 54.766C34.9052 54.662 34.3372 54.466 33.8092 54.174C33.3172 53.902 32.9412 53.602 32.7652 53.458L32.6132 53.338C32.3292 53.11 32.0732 52.898 31.6812 52.898C31.6052 52.898 31.5212 52.902 31.4412 52.922C31.2652 52.966 31.0932 53.054 30.9572 53.182C30.7492 53.37 30.6292 53.642 30.6212 53.918C30.6052 54.35 30.8132 54.642 31.2532 55.102C31.6452 55.514 32.1052 55.882 32.6132 56.206C33.3452 56.674 34.1852 57.01 35.0332 57.182C35.5092 57.278 36.0052 57.334 36.5012 57.334C37.0652 57.334 37.6252 57.266 38.1732 57.146L38.2252 57.13C39.2652 56.886 40.2572 56.426 41.1012 55.786C41.7932 55.258 42.4092 54.598 42.8732 53.878C43.2052 53.37 43.4612 52.834 43.6372 52.274C43.8292 51.682 43.8852 51.31 43.6852 50.934Z" fill="#3E3D3F"/>
<path fill-rule="evenodd" clip-rule="evenodd" d="M26.98 39.9692C26.98 43.1692 24.392 45.7652 21.188 45.7652C17.988 45.7652 15.392 43.1692 15.392 39.9692C15.392 36.7652 17.988 34.1732 21.188 34.1732C24.392 34.1732 26.98 36.7652 26.98 39.9692Z" fill="#3E3D3F"/>
<path fill-rule="evenodd" clip-rule="evenodd" d="M20.0424 41.606C20.0424 42.538 19.2944 43.294 18.3584 43.294C17.4304 43.294 16.6704 42.538 16.6704 41.606C16.6704 40.678 17.4304 39.918 18.3584 39.918C19.2944 39.918 20.0424 40.678 20.0424 41.606Z" fill="#FEFEFE"/>
<path fill-rule="evenodd" clip-rule="evenodd" d="M21.1892 39.7776C21.1892 40.1656 20.8732 40.4736 20.4972 40.4736C20.1092 40.4736 19.7932 40.1656 19.7932 39.7776C19.7932 39.3936 20.1092 39.0856 20.4972 39.0856C20.8732 39.0856 21.1892 39.3936 21.1892 39.7776Z" fill="#FEFEFE"/>
<path fill-rule="evenodd" clip-rule="evenodd" d="M55.4528 40.688C55.4528 43.888 52.8608 46.484 49.6608 46.484C46.4608 46.484 43.8648 43.888 43.8648 40.688C43.8648 37.484 46.4608 34.892 49.6608 34.892C52.8608 34.892 55.4528 37.484 55.4528 40.688Z" fill="#3E3D3F"/>
<path fill-rule="evenodd" clip-rule="evenodd" d="M48.5192 42.3244C48.5192 43.2604 47.7672 44.0164 46.8352 44.0164C45.9032 44.0164 45.1432 43.2604 45.1432 42.3244C45.1432 41.4004 45.9032 40.6404 46.8352 40.6404C47.7672 40.6404 48.5192 41.4004 48.5192 42.3244Z" fill="#FEFEFE"/>
<path fill-rule="evenodd" clip-rule="evenodd" d="M49.6596 40.4964C49.6596 40.8844 49.3516 41.1884 48.9676 41.1884C48.5836 41.1884 48.2676 40.8844 48.2676 40.4964C48.2676 40.1084 48.5836 39.8004 48.9676 39.8004C49.3516 39.8004 49.6596 40.1084 49.6596 40.4964Z" fill="#FEFEFE"/>
</svg>
