<svg width="112" height="161" viewBox="0 0 112 161" fill="none" xmlns="http://www.w3.org/2000/svg">
<path fill-rule="evenodd" clip-rule="evenodd" d="M91.26 6.068C68.628 6.068 51.512 5.76 45.5 5.244C36.224 4.42 29.172 4 24.528 4C15.12 4 8.204 10.776 5.544 22.688C4.2 29.268 4 39.16 4 44.476C4 54.032 10.652 64.192 22.988 64.192C28.312 64.192 35.172 63.804 43.28 63.04C37.948 74.968 33.304 86.232 29.432 96.624C22.812 114.64 19.596 128.504 19.596 139.02C19.596 149.796 25.76 155.98 31.3 158.084C34.74 159.56 38.868 160.08 47.072 160.08C55.952 160.08 59.652 159.284 61.852 158.596C67.504 156.868 71.988 152.872 74.552 147.208C75.604 144.716 76.244 142.076 76.616 138.712C78.14 126.32 81.544 111.408 86.76 94.34C91.856 77.18 97.784 63.456 104.288 53.644C107.728 48.664 110.452 44.732 110.912 39.168C111.044 37.676 111.1 35.896 111.1 33.02C111.1 27.292 110.516 23.168 109.204 19.616C106.052 11.26 99.176 6.068 91.26 6.068Z" fill="black" fill-opacity="0.15"/>
<path fill-rule="evenodd" clip-rule="evenodd" d="M87.26 2.068C64.628 2.068 47.512 1.76 41.5 1.244C32.224 0.42 25.172 0 20.528 0C11.12 0 4.204 6.776 1.544 18.688C0.2 25.268 0 35.16 0 40.476C0 50.032 6.652 60.192 18.988 60.192C24.312 60.192 31.172 59.804 39.28 59.04C33.948 70.968 29.304 82.232 25.432 92.624C18.812 110.64 15.596 124.504 15.596 135.02C15.596 145.796 21.76 151.98 27.3 154.084C30.74 155.56 34.868 156.08 43.072 156.08C51.952 156.08 55.652 155.284 57.852 154.596C63.504 152.868 67.988 148.872 70.552 143.208C71.604 140.716 72.244 138.076 72.616 134.712C74.14 122.32 77.544 107.408 82.76 90.34C87.856 73.18 93.784 59.456 100.288 49.644C103.728 44.664 106.452 40.732 106.912 35.168C107.044 33.676 107.1 31.896 107.1 29.02C107.1 23.292 106.516 19.168 105.204 15.616C102.052 7.26 95.176 2.068 87.26 2.068Z" fill="#FBE7BF"/>
<path fill-rule="evenodd" clip-rule="evenodd" d="M87.17 25.494C87.106 25.41 87.018 25.338 86.918 25.31C86.842 25.282 86.766 25.27 86.702 25.27C86.514 25.27 86.358 25.358 86.098 25.518L85.906 25.638C85.626 25.794 85.194 26.046 84.642 26.242C84.522 26.278 84.406 26.314 84.262 26.362C84.098 26.27 83.934 26.194 83.758 26.11C83.982 25.854 84.186 25.582 84.358 25.31C84.554 24.982 84.65 24.786 84.686 24.626C84.738 24.362 84.642 24.138 84.418 24.006C84.318 23.95 84.21 23.922 84.098 23.922C83.794 23.922 83.65 24.09 83.422 24.394L83.274 24.574C83.074 24.818 82.75 25.19 82.298 25.562C82.278 25.57 82.262 25.582 82.254 25.598C82.134 25.57 82.014 25.542 81.894 25.518C80.67 25.258 79.358 25.258 78.122 25.518L78.026 25.538C76.794 25.806 75.618 26.326 74.638 27.058C73.594 27.822 72.914 28.686 72.526 29.286C72.146 29.866 71.858 30.486 71.63 31.126C71.382 31.87 71.398 32.09 71.506 32.29C71.586 32.446 71.726 32.574 71.89 32.626C71.958 32.642 72.03 32.65 72.098 32.65C72.146 32.65 72.198 32.65 72.242 32.638C72.586 32.562 72.694 32.342 72.914 31.89L73.03 31.662C73.162 31.386 73.45 30.806 73.906 30.206C74.406 29.522 75.006 28.938 75.686 28.474C76.498 27.918 77.438 27.51 78.418 27.294L78.514 27.278C79.498 27.078 80.558 27.058 81.554 27.234C82.374 27.378 83.202 27.662 83.934 28.05C84.578 28.394 85.054 28.758 85.366 29.006L85.586 29.19C85.89 29.442 86.062 29.578 86.318 29.578C86.37 29.578 86.414 29.578 86.466 29.57C86.59 29.542 86.694 29.486 86.782 29.406C87.086 29.126 87.018 28.822 86.942 28.662C86.866 28.486 86.702 28.274 86.39 27.942C86.182 27.73 85.954 27.518 85.702 27.318C86.054 27.13 86.37 26.922 86.666 26.698C86.97 26.458 87.126 26.302 87.21 26.162C87.358 25.934 87.338 25.69 87.17 25.494Z" fill="#3E3D3F"/>
<path fill-rule="evenodd" clip-rule="evenodd" d="M54.2328 41.994C54.3728 43.378 51.6048 44.802 48.0368 45.162C44.4688 45.526 41.4488 44.698 41.3048 43.314C41.1528 41.93 43.9368 40.514 47.5008 40.15C51.0608 39.782 54.0848 40.61 54.2328 41.994Z" fill="#EFBFA3"/>
<path fill-rule="evenodd" clip-rule="evenodd" d="M86.3344 38.7204C86.4904 40.1044 83.7184 41.5204 80.1384 41.8844C76.5704 42.2484 73.5664 41.4204 73.4144 40.0324C73.2624 38.6564 76.0384 37.2364 79.6104 36.8684C83.1784 36.5044 86.1944 37.3284 86.3344 38.7204Z" fill="#EFBFA3"/>
<path fill-rule="evenodd" clip-rule="evenodd" d="M71.5528 46.7868C71.4648 46.6188 71.3088 46.4988 71.1248 46.4428C70.9968 46.3948 70.8608 46.3908 70.7408 46.4148C70.3648 46.5108 70.2328 46.7708 70.0888 47.0828L70.0008 47.2748C69.8808 47.5268 69.6848 47.9068 69.3648 48.3348C69.0128 48.7988 68.5648 49.2268 68.0688 49.5668C67.4728 49.9868 66.7808 50.2988 66.0168 50.4708C65.3048 50.6228 64.5648 50.6508 63.8688 50.5268C63.2808 50.4228 62.7088 50.2308 62.1688 49.9348C61.6768 49.6788 61.3088 49.3948 61.1248 49.2428L60.9768 49.1268C60.6848 48.8908 60.4528 48.7068 60.0848 48.7908C59.9528 48.8188 59.8328 48.8828 59.7408 48.9708C59.5928 49.0948 59.5128 49.2828 59.5048 49.4788C59.4968 49.7508 59.6168 49.9628 60.0328 50.3948C60.4088 50.7708 60.8328 51.1068 61.2928 51.3868C61.9728 51.8148 62.7448 52.1228 63.5288 52.2708C64.4688 52.4628 65.4808 52.4468 66.4288 52.2388L66.4808 52.2228C67.4488 52.0108 68.3608 51.5788 69.1448 51.0068C69.7968 50.5348 70.3568 49.9348 70.7888 49.2828C71.0888 48.8308 71.3248 48.3548 71.4888 47.8428C71.6688 47.2828 71.6928 47.0308 71.5528 46.7868Z" fill="#3E3D3F"/>
<path fill-rule="evenodd" clip-rule="evenodd" d="M52.8264 31.8884C52.8264 35.1884 50.0904 37.8564 46.7264 37.8564C43.3624 37.8564 40.6264 35.1884 40.6264 31.8884C40.6264 28.6004 43.3624 25.9324 46.7264 25.9324C50.0904 25.9324 52.8264 28.6004 52.8264 31.8884Z" fill="#3E3D3F"/>
<path fill-rule="evenodd" clip-rule="evenodd" d="M45.5296 33.58C45.5296 34.54 44.7336 35.316 43.7536 35.316C42.7696 35.316 41.9736 34.54 41.9736 33.58C41.9736 32.628 42.7696 31.844 43.7536 31.844C44.7336 31.844 45.5296 32.628 45.5296 33.58Z" fill="#FEFEFE"/>
<path fill-rule="evenodd" clip-rule="evenodd" d="M46.7248 31.7008C46.7248 32.0928 46.3968 32.4168 45.9968 32.4168C45.5928 32.4168 45.2648 32.0928 45.2648 31.7008C45.2648 31.3008 45.5928 30.9808 45.9968 30.9808C46.3968 30.9808 46.7248 31.3008 46.7248 31.7008Z" fill="#FEFEFE"/>
</svg>
