<svg width="113" height="161" viewBox="0 0 113 161" fill="none" xmlns="http://www.w3.org/2000/svg">
<path fill-rule="evenodd" clip-rule="evenodd" d="M96.028 59.364C95.344 58.768 94.648 58.192 93.94 57.644C94.76 57.08 95.544 56.448 96.296 55.756C102.848 50.08 103.828 43.168 103.828 39.564C103.828 39.508 103.848 38.264 104.452 34.216C105.156 29.544 105.472 26.32 105.472 23.764C105.472 12.68 97.264 4 86.788 4C83.492 4 78.804 4.184 73.008 4.532L68.532 4.7C65.176 4.832 62.56 4.936 60.696 4.936C58.012 4.936 53.792 4.78 47.92 4.536C42.248 4.24 37.328 4.08 33.688 4.08C25.976 4.08 20.896 9.172 19.036 11.044C14.328 15.964 11.94 21.492 11.94 27.452C11.94 29.984 11.96 33.208 11.988 37.104L12.056 49.008C12.22 58.264 12.284 65.416 12.284 69.94L12.268 71.12C12.248 72.116 12.22 73.484 12.232 74.912C12.06 77.62 12.056 79.9 12.064 82.052C12.164 84.452 12.468 86.528 13.124 88.928L13.328 89.536C13.44 89.88 13.584 90.208 13.76 90.528L13.86 90.716C14.776 92.908 16.02 94.848 17.528 96.488C14.036 98.22 9.836 101.816 7.532 109.256C6.8 111.648 6.152 114.56 5.48 118.452C4.484 124.516 4 129.2 4 132.768C4 141.616 9.08 148.98 18.004 152.992C21.544 154.532 26.256 155.92 32.424 157.228C41.392 159.12 48.356 160.04 53.708 160.04C70.36 160.04 84.108 155.212 94.512 145.744C106.528 135.056 112.62 119.656 112.62 99.992C112.62 83.272 107.02 69.364 96.424 59.744C96.296 59.608 96.164 59.48 96.028 59.364Z" fill="black" fill-opacity="0.15"/>
<path fill-rule="evenodd" clip-rule="evenodd" d="M92.028 55.364C91.344 54.768 90.648 54.192 89.94 53.644C90.76 53.08 91.544 52.448 92.296 51.756C98.848 46.08 99.828 39.168 99.828 35.564C99.828 35.508 99.848 34.264 100.452 30.216C101.156 25.544 101.472 22.32 101.472 19.764C101.472 8.68 93.264 0 82.788 0C79.492 0 74.804 0.184 69.008 0.532L64.532 0.7C61.176 0.832 58.56 0.936 56.696 0.936C54.012 0.936 49.792 0.78 43.92 0.536C38.248 0.24 33.328 0.08 29.688 0.08C21.976 0.08 16.896 5.172 15.036 7.044C10.328 11.964 7.94 17.492 7.94 23.452C7.94 25.984 7.96 29.208 7.988 33.104L8.056 45.008C8.22 54.264 8.284 61.416 8.284 65.94L8.268 67.12C8.248 68.116 8.22 69.484 8.232 70.912C8.06 73.62 8.056 75.9 8.064 78.052C8.164 80.452 8.468 82.528 9.124 84.928L9.328 85.536C9.44 85.88 9.584 86.208 9.76 86.528L9.86 86.716C10.776 88.908 12.02 90.848 13.528 92.488C10.036 94.22 5.836 97.816 3.532 105.256C2.8 107.648 2.152 110.56 1.48 114.452C0.484 120.516 0 125.2 0 128.768C0 137.616 5.08 144.98 14.004 148.992C17.544 150.532 22.256 151.92 28.424 153.228C37.392 155.12 44.356 156.04 49.708 156.04C66.36 156.04 80.108 151.212 90.512 141.744C102.528 131.056 108.62 115.656 108.62 95.992C108.62 79.272 103.02 65.364 92.424 55.744C92.296 55.608 92.164 55.48 92.028 55.364Z" fill="#D3E6E4"/>
<path fill-rule="evenodd" clip-rule="evenodd" d="M49.2332 81.9384C49.2332 85.6784 46.2012 88.7024 42.4652 88.7024C38.7252 88.7024 35.7012 85.6784 35.7012 81.9384C35.7012 78.1984 38.7252 75.1744 42.4652 75.1744C46.2012 75.1744 49.2332 78.1984 49.2332 81.9384Z" fill="#3E3D3F"/>
<path fill-rule="evenodd" clip-rule="evenodd" d="M41.1316 83.8484C41.1316 84.9364 40.2516 85.8204 39.1676 85.8204C38.0756 85.8204 37.1956 84.9364 37.1956 83.8484C37.1956 82.7644 38.0756 81.8844 39.1676 81.8844C40.2516 81.8844 41.1316 82.7644 41.1316 83.8484Z" fill="#FEFEFE"/>
<path fill-rule="evenodd" clip-rule="evenodd" d="M42.4636 81.7156C42.4636 82.1596 42.0996 82.5276 41.6556 82.5276C41.2076 82.5276 40.8436 82.1596 40.8436 81.7156C40.8436 81.2716 41.2076 80.9036 41.6556 80.9036C42.0996 80.9036 42.4636 81.2716 42.4636 81.7156Z" fill="#FEFEFE"/>
<path fill-rule="evenodd" clip-rule="evenodd" d="M82.4832 82.7744C82.4832 86.5184 79.4552 89.5424 75.7192 89.5424C71.9792 89.5424 68.9472 86.5184 68.9472 82.7744C68.9472 79.0384 71.9792 76.0104 75.7192 76.0104C79.4552 76.0104 82.4832 79.0384 82.4832 82.7744Z" fill="#3E3D3F"/>
<path fill-rule="evenodd" clip-rule="evenodd" d="M74.3856 84.6924C74.3856 85.7804 73.5016 86.6644 72.4136 86.6644C71.3296 86.6644 70.4456 85.7804 70.4456 84.6924C70.4456 83.6044 71.3296 82.7244 72.4136 82.7244C73.5016 82.7244 74.3856 83.6044 74.3856 84.6924Z" fill="#FEFEFE"/>
<path fill-rule="evenodd" clip-rule="evenodd" d="M75.7176 82.5556C75.7176 82.9996 75.3496 83.3676 74.9056 83.3676C74.4576 83.3676 74.0936 82.9996 74.0936 82.5556C74.0936 82.1076 74.4576 81.7476 74.9056 81.7476C75.3496 81.7476 75.7176 82.1076 75.7176 82.5556Z" fill="#FEFEFE"/>
<path fill-rule="evenodd" clip-rule="evenodd" d="M58.616 100.02C57.764 100.104 56.912 100.116 56.084 100.076C54.908 100.02 53.732 99.8324 52.644 99.5484C52.384 100.08 52.188 100.668 52.072 101.292C51.556 104.196 53.036 106.752 55.38 106.996C57.72 107.244 60.036 105.088 60.552 102.176C60.7 101.324 60.68 100.5 60.516 99.7564C59.892 99.8724 59.26 99.9684 58.616 100.02Z" fill="#D9574F"/>
<path fill-rule="evenodd" clip-rule="evenodd" d="M68.698 94.7432C68.514 94.4632 68.186 94.2472 67.806 94.1552C67.55 94.0872 67.27 94.0792 66.998 94.1232C66.242 94.2672 65.966 94.7232 65.726 95.1392L65.598 95.3672C65.322 95.8272 65.026 96.2392 64.674 96.6192C64.162 97.1712 63.51 97.6792 62.79 98.0872C61.914 98.5912 60.91 98.9512 59.81 99.1552C58.798 99.3352 57.722 99.3592 56.714 99.2152C55.858 99.1032 55.026 98.8672 54.262 98.5272C53.526 98.2072 52.986 97.8592 52.726 97.6912L52.506 97.5472C52.102 97.2872 51.714 97.0352 51.146 97.0352C51.034 97.0352 50.91 97.0472 50.786 97.0672C50.534 97.1192 50.282 97.2192 50.086 97.3632C49.782 97.5872 49.606 97.9072 49.594 98.2352C49.57 98.7272 49.874 99.0752 50.522 99.6112C51.094 100.091 51.766 100.523 52.506 100.899C53.582 101.443 54.798 101.839 56.042 102.043C56.742 102.159 57.466 102.207 58.194 102.207C59.018 102.207 59.838 102.143 60.63 101.991L60.714 101.979C62.23 101.695 63.686 101.151 64.918 100.407C65.942 99.7952 66.834 99.0232 67.518 98.1832C67.994 97.5872 68.37 96.9592 68.63 96.3112C68.906 95.6152 68.994 95.1792 68.698 94.7432Z" fill="#3E3D3F"/>
</svg>
