<svg width="118" height="160" viewBox="0 0 118 160" fill="none" xmlns="http://www.w3.org/2000/svg">
<path fill-rule="evenodd" clip-rule="evenodd" d="M59.944 4C43.216 4 29.492 9.896 19.128 21.548C9.088 32.944 4 47.956 4 66.16C4 81.86 8.812 94.984 18.268 105.128C20.104 107.14 22.052 108.956 24.112 110.572C19.572 114.604 17.196 120.664 17.196 126.512C17.196 129.22 17.66 130.716 18.672 133.992L19.852 137.784C20.532 139.98 21.384 142.716 22.512 146.076C22.56 146.228 22.64 146.424 22.724 146.612C25.756 154.88 32.552 160 40.528 160C61.756 160 80.128 151.276 95.16 134.044C109.776 117.096 117.196 96.872 117.196 73.916C117.196 55.092 112.736 39.156 103.948 26.548C93.476 11.584 78.672 4 59.944 4Z" fill="black" fill-opacity="0.15"/>
<path fill-rule="evenodd" clip-rule="evenodd" d="M55.944 0C39.216 0 25.492 5.896 15.128 17.548C5.088 28.944 0 43.956 0 62.16C0 77.86 4.812 90.984 14.268 101.128C16.104 103.14 18.052 104.956 20.112 106.572C15.572 110.604 13.196 116.664 13.196 122.512C13.196 125.22 13.66 126.716 14.672 129.992L15.852 133.784C16.532 135.98 17.384 138.716 18.512 142.076C18.56 142.228 18.64 142.424 18.724 142.612C21.756 150.88 28.552 156 36.528 156C57.756 156 76.128 147.276 91.16 130.044C105.776 113.096 113.196 92.872 113.196 69.916C113.196 51.092 108.736 35.156 99.948 22.548C89.476 7.584 74.672 0 55.944 0Z" fill="#FDE0CC"/>
<path fill-rule="evenodd" clip-rule="evenodd" d="M76.9164 45.8828C76.8524 45.7988 76.7644 45.7268 76.6644 45.6988C76.5924 45.6708 76.5124 45.6588 76.4484 45.6588C76.2564 45.6588 76.1044 45.7468 75.8444 45.9068L75.6524 46.0268C75.3724 46.1828 74.9444 46.4348 74.3884 46.6268C74.2684 46.6668 74.1524 46.7028 74.0084 46.7508C73.8444 46.6588 73.6804 46.5828 73.5044 46.4988C73.7324 46.2428 73.9324 45.9708 74.1084 45.6988C74.3004 45.3668 74.3964 45.1748 74.4324 45.0148C74.4844 44.7468 74.3884 44.5228 74.1644 44.3948C74.0684 44.3388 73.9564 44.3068 73.8444 44.3068C73.5404 44.3068 73.3964 44.4788 73.1684 44.7828L73.0244 44.9588C72.8204 45.2068 72.5004 45.5748 72.0444 45.9508C72.0244 45.9588 72.0124 45.9708 72.0004 45.9828C71.8804 45.9588 71.7604 45.9308 71.6404 45.9068C70.4164 45.6468 69.1084 45.6468 67.8684 45.9068L67.7724 45.9268C66.5444 46.1908 65.3644 46.7148 64.3884 47.4468C63.3444 48.2108 62.6604 49.0748 62.2724 49.6748C61.8964 50.2548 61.6004 50.8748 61.3764 51.5148C61.1324 52.2588 61.1404 52.4788 61.2524 52.6788C61.3324 52.8348 61.4724 52.9628 61.6404 53.0148C61.7044 53.0308 61.7764 53.0388 61.8484 53.0388C61.8964 53.0388 61.9444 53.0388 61.9884 53.0268C62.3324 52.9468 62.4364 52.7268 62.6604 52.2788L62.7724 52.0508C62.9084 51.7748 63.1964 51.1948 63.6564 50.5948C64.1484 49.9108 64.7524 49.3268 65.4324 48.8628C66.2404 48.3028 67.1844 47.8948 68.1644 47.6788L68.2604 47.6628C69.2444 47.4628 70.3044 47.4468 71.3004 47.6228C72.1164 47.7668 72.9484 48.0508 73.6804 48.4388C74.3284 48.7828 74.8004 49.1428 75.1124 49.3948L75.3324 49.5748C75.6364 49.8308 75.8084 49.9668 76.0644 49.9668C76.1164 49.9668 76.1644 49.9668 76.2164 49.9588C76.3324 49.9308 76.4404 49.8748 76.5284 49.7908C76.8324 49.5148 76.7644 49.2108 76.6884 49.0508C76.6164 48.8748 76.4484 48.6628 76.1324 48.3308C75.9284 48.1148 75.6964 47.9028 75.4484 47.7068C75.8004 47.5188 76.1164 47.3108 76.4164 47.0868C76.7164 46.8428 76.8724 46.6908 76.9564 46.5508C77.1084 46.3228 77.0844 46.0788 76.9164 45.8828Z" fill="#3E3D3F"/>
<path fill-rule="evenodd" clip-rule="evenodd" d="M43.9792 62.3828C44.1192 63.7668 41.3512 65.1908 37.7832 65.5468C34.2112 65.9148 31.1952 65.0868 31.0512 63.7028C30.8992 62.3188 33.6872 60.9028 37.2512 60.5388C40.8112 60.1708 43.8312 60.9988 43.9792 62.3828Z" fill="#EFBFA3"/>
<path fill-rule="evenodd" clip-rule="evenodd" d="M76.0804 59.1092C76.2404 60.4932 73.4644 61.9092 69.8884 62.2732C66.3164 62.6372 63.3164 61.8092 63.1644 60.4212C63.0084 59.0412 65.7844 57.6252 69.3564 57.2572C72.9244 56.8932 75.9404 57.7172 76.0804 59.1092Z" fill="#EFBFA3"/>
<path fill-rule="evenodd" clip-rule="evenodd" d="M61.2992 67.1756C61.2152 67.0076 61.0552 66.8876 60.8712 66.8276C60.7432 66.7836 60.6072 66.7796 60.4872 66.8036C60.1112 66.8996 59.9832 67.1596 59.8352 67.4716L59.7472 67.6596C59.6272 67.9156 59.4312 68.2916 59.1152 68.7196C58.7592 69.1876 58.3152 69.6156 57.8152 69.9556C57.2232 70.3756 56.5232 70.6876 55.7672 70.8596C55.0512 71.0116 54.3112 71.0356 53.6152 70.9156C53.0272 70.8076 52.4552 70.6156 51.9152 70.3236C51.4232 70.0676 51.0552 69.7836 50.8712 69.6316L50.7272 69.5156C50.4312 69.2796 50.1952 69.0956 49.8272 69.1796C49.7032 69.2076 49.5792 69.2716 49.4872 69.3556C49.3432 69.4836 49.2592 69.6716 49.2512 69.8676C49.2432 70.1396 49.3592 70.3516 49.7792 70.7836C50.1552 71.1596 50.5752 71.4956 51.0392 71.7756C51.7152 72.2036 52.4912 72.5076 53.2752 72.6596C54.2152 72.8516 55.2232 72.8356 56.1752 72.6276L56.2272 72.6116C57.1912 72.3996 58.1072 71.9676 58.8872 71.3956C59.5432 70.9236 60.1032 70.3236 60.5352 69.6716C60.8392 69.2196 61.0712 68.7436 61.2352 68.2316C61.4152 67.6676 61.4392 67.4196 61.2992 67.1756Z" fill="#3E3D3F"/>
<path fill-rule="evenodd" clip-rule="evenodd" d="M42.5728 52.2772C42.5728 55.5772 39.8368 58.2452 36.4728 58.2452C33.1088 58.2452 30.3728 55.5772 30.3728 52.2772C30.3728 48.9892 33.1088 46.3212 36.4728 46.3212C39.8368 46.3212 42.5728 48.9892 42.5728 52.2772Z" fill="#3E3D3F"/>
<path fill-rule="evenodd" clip-rule="evenodd" d="M35.276 53.9688C35.276 54.9288 34.476 55.7048 33.504 55.7048C32.516 55.7048 31.724 54.9288 31.724 53.9688C31.724 53.0168 32.516 52.2328 33.504 52.2328C34.476 52.2328 35.276 53.0168 35.276 53.9688Z" fill="#FEFEFE"/>
<path fill-rule="evenodd" clip-rule="evenodd" d="M36.4712 52.086C36.4712 52.482 36.1432 52.806 35.7432 52.806C35.3432 52.806 35.0112 52.482 35.0112 52.086C35.0112 51.69 35.3432 51.37 35.7432 51.37C36.1432 51.37 36.4712 51.69 36.4712 52.086Z" fill="#FEFEFE"/>
</svg>
