<svg width="72" height="115" viewBox="0 0 72 115" fill="none" xmlns="http://www.w3.org/2000/svg">
<g clip-path="url(#clip0_1_1967)">
<path opacity="0.15" d="M68.84 56.66C68.14 21.64 68.04 16.24 56.84 9.45996C50.84 5.83996 40.62 3.45996 30.84 3.45996C26.7939 3.40706 22.7587 3.89128 18.84 4.89996C13.9365 6.01755 9.53287 8.70751 6.3 12.56L5.26 13.64C0.439996 18.52 0.359996 23.26 0.159996 35.88C0.159996 38.26 0.159996 40.92 0.0199958 43.88C-0.388988 50.7164 2.08452 57.4115 6.84 62.34C13.28 68.96 24.4 72.74 37.34 72.74C41.4849 72.7499 45.6199 72.3344 49.68 71.5C49.68 74.18 49.84 76.5 49.9 78.5C50.2 87.76 50.28 90.36 50.02 91.56C45.0784 93.8854 39.6592 95.0158 34.2 94.86C30.2813 94.9263 26.3777 94.359 22.64 93.18L23.64 92.52C26.46 90.64 28.18 89.5 28.56 87.38C28.94 85.26 27.74 83.6 25.56 80.6C24.66 79.36 23.56 77.84 22.24 75.88L20.8 73.72L18.62 75.14C1.68 86.28 -4.05312e-06 95.08 1.66 100.52C4.52 110.14 18.62 114.52 31.32 114.52C44.02 114.52 55.74 110.4 62.44 103.48C67.3082 98.5266 69.8701 91.7552 69.5 84.82C69.16 73.64 68.98 64.22 68.84 56.66ZM48.84 43.76C48.84 46.28 48.96 49.18 49.06 52.52C46.4217 53.0074 43.7429 53.2418 41.06 53.22C31.18 53.22 22.56 50.74 20.1 47.22C19.26 46.02 19.24 45.22 19.58 33.06C19.58 30.58 19.74 27.64 19.82 24.16C20.34 23.74 22.46 22.88 27.48 22.88C34.28 22.88 42.24 24.46 45.62 26.48C48.54 28.24 48.54 28.24 48.9 43.76H48.84Z" fill="black"/>
<path d="M21.74 15.02L18.74 18C20.0192 16.9682 21.5405 16.2798 23.16 16C25.9014 15.328 28.7179 15.0121 31.54 15.06C38.78 15.06 46.68 16.72 50.44 19.06C54.2 21.4 54.54 23.54 54.66 27.78L55.36 51.34L58.36 48.28L57.66 24.74C57.52 20.5 57.3 18.36 53.44 16.02C49.58 13.68 41.78 12.02 34.54 12.02C31.7113 11.9732 28.8884 12.2892 26.14 12.96C24.5221 13.2614 23.0077 13.9704 21.74 15.02V15.02Z" fill="#C36117"/>
<path d="M28.54 63.42C32.9031 64.3132 37.3464 64.7555 41.8 64.74C43.62 64.74 45.48 64.74 47.28 64.5C50.1381 64.2851 52.9665 63.7758 55.72 62.98L56.3 82.6C56.4 86.28 56.3 88.06 54.56 89.78L57.56 86.74C59.28 85.02 59.4 83.24 59.3 79.56L58.7 60C54.1417 61.2541 49.4269 61.8468 44.7 61.76C40.2464 61.7755 35.8031 61.3332 31.44 60.44C22.6 58.44 15.8 54.68 12.28 49.64C9.66213 45.5274 8.51967 40.6472 9.04 35.8L9.58 18C9.44387 14.0204 10.881 10.1475 13.58 7.21997L10.62 10.22C7.93028 13.1532 6.49465 17.0222 6.62 21L6.18 38.78C5.65806 43.6273 6.80065 48.508 9.42 52.62C12.9 57.66 19.7 61.5 28.54 63.42Z" fill="#C36117"/>
<path d="M22.16 86.9199L19.16 89.9999C20.0946 89.0825 21.1275 88.271 22.24 87.5799L26.82 84.5999L29.82 81.5599L25.24 84.5399C24.1295 85.2184 23.0967 86.0165 22.16 86.9199V86.9199Z" fill="#C36117"/>
<path d="M37.76 103.44C36.78 103.44 35.76 103.44 34.86 103.44C23.28 102.74 14 98.52 11.02 92.64C9.48628 89.6731 9.48628 86.1468 11.02 83.18C11.8051 81.6632 12.8243 80.2795 14.04 79.08L11.04 82.12C5.56001 87.76 6.64001 92.86 8.00001 95.68C10.9 101.58 20.24 105.68 31.82 106.4H34.72C45.14 106.4 55.7 103.46 61.16 98.88C61.6667 98.4666 62.1267 98.0466 62.54 97.62L65.54 94.56C65.1 95 64.64 95.42 64.16 95.84C58.74 100.5 48.18 103.44 37.76 103.44V103.44Z" fill="#C36117"/>
<path d="M59.82 5.57999C69.24 11.26 69.48 19.08 69.62 23.74L71.26 78.7C71.38 83.04 71.56 89.6 65.06 95.04C59.62 99.62 49.06 102.56 38.62 102.56C37.66 102.56 36.62 102.56 35.72 102.56C24.14 101.86 14.8 97.66 12 91.76C10.3 88.3 9.03998 81.4 20 74.28L24.58 71.3L30.82 80.64L26.26 83.62C24.5673 84.508 23.1079 85.7824 22 87.34C23.1 88.42 27.78 90.98 36 91.34H38.48C47.66 91.34 55.18 88.5 57.82 86.3C60.14 84.3 60.3 82.62 60.2 78.52L59.6 58.92C55.0385 60.1564 50.3253 60.7422 45.6 60.66C41.1531 60.6746 36.7165 60.2323 32.36 59.34C23.52 57.34 16.72 53.58 13.2 48.54C10.63 44.4676 9.50307 39.6498 9.99998 34.86L10.44 17.1C10.56 11.84 12.1 4.47999 23.82 1.33999C27.5119 0.4016 31.311 -0.048903 35.12 -9.53348e-06C44.6 -9.53348e-06 54.48 2.35999 59.82 5.57999V5.57999ZM59.24 47.3L58.54 23.74C58.4 19.5 58.18 17.36 54.3 15.02C50.42 12.68 42.64 11.02 35.4 11.02C32.5763 10.9876 29.76 11.317 27.02 12C21.64 13.44 21.6 15.32 21.54 17.66L21.1 35.44C21.1 38.66 21.1 40.72 22.28 42.5C22.96 43.48 25.82 46.74 34.46 48.64C37.9946 49.3577 41.5932 49.7129 45.2 49.7C49.2656 49.811 53.3212 49.2432 57.2 48.02L59.24 47.3Z" fill="#E6954D"/>
<path d="M60.96 25.72C60.84 21.94 60.64 19.84 57.86 17.72C59.66 19.54 59.86 21.56 59.86 24.8L60.54 47.62C60.5596 48.061 60.2932 48.4646 59.88 48.62L58.6 49.12C54.7212 50.3432 50.6656 50.911 46.6 50.8C42.9928 50.8229 39.3931 50.4676 35.86 49.74C32.1762 49.0878 28.6766 47.6484 25.6 45.52C27.06 46.92 30.28 49.18 36.88 50.62C40.4146 51.3377 44.0133 51.6929 47.62 51.68C51.6856 51.791 55.7412 51.2232 59.62 50L60.9 49.5C61.3132 49.3446 61.5796 48.941 61.56 48.5L60.96 25.72Z" fill="white" fill-opacity="0.33"/>
<path d="M40.88 93.48C50.04 93.48 57.58 90.64 60.2 88.44C62.82 86.24 62.7 84.76 62.58 80.66L62 61.04L61.02 61.32L61.56 79.78C61.68 83.78 61.56 85.62 59.18 87.56C56.8 89.5 49.02 92.6 39.86 92.6C39.04 92.6 38.22 92.6 37.38 92.6C32.88 92.5317 28.4599 91.401 24.48 89.3C25.58 90.38 30.26 92.94 38.48 93.3C39.24 93.46 40 93.48 40.88 93.48V93.48Z" fill="white" fill-opacity="0.33"/>
<path d="M36.52 1.09998C32.7182 1.06272 28.9273 1.51306 25.24 2.43998C13.5 5.59998 12 12.94 11.86 18.2L11.4 36C10.9904 40.4102 11.895 44.843 14 48.74C13.9902 48.7929 13.9902 48.8471 14 48.9C14.4681 49.4687 14.9689 50.0096 15.5 50.52C12.9524 46.4396 11.8468 41.6228 12.36 36.84L12.8 19.06C12.92 13.82 14.44 6.45998 26.18 3.31997C29.8923 2.3831 33.7118 1.93928 37.54 1.99998C47.02 1.99998 56.9 4.35998 62.22 7.57998C63.1928 8.17999 64.1218 8.84833 65 9.57998C63.8304 8.51576 62.5574 7.57107 61.2 6.75998C55.86 3.47998 46 1.09998 36.52 1.09998V1.09998Z" fill="white" fill-opacity="0.33"/>
<path d="M14.32 93.74C12.6 90.28 11.36 83.38 22.32 76.26L26 73.86C26.2784 73.6663 26.3573 73.2891 26.18 73C26.09 72.8618 25.9488 72.7651 25.7874 72.7314C25.626 72.6976 25.4578 72.7295 25.32 72.82L21.32 75.44C9.99998 82.68 11.66 89.74 13.42 93.12L13.58 93.34C13.9494 93.7694 14.3505 94.1706 14.78 94.54C14.6075 94.2848 14.4537 94.0174 14.32 93.74V93.74Z" fill="white" fill-opacity="0.33"/>
</g>
<defs>
<clipPath id="clip0_1_1967">
<rect width="72" height="115" fill="white"/>
</clipPath>
</defs>
</svg>
