<svg width="65" height="116" viewBox="0 0 65 116" fill="none" xmlns="http://www.w3.org/2000/svg">
<g clip-path="url(#clip0_1_1952)">
<path opacity="0.15" d="M51.82 60.44C50.1227 59.1496 48.3458 57.9672 46.5 56.9C56.6 46.2 59.56 37.74 52.92 17.38C51.822 13.2234 49.174 9.64512 45.52 7.37999C40.4471 4.63409 34.747 3.25559 28.98 3.37999C15.22 3.37999 5.31999 9.77998 2.49999 20.5C-8.82149e-06 30.14 -4.64001 47.6 12.9 61.28C2.59999 69.76 1.99999 73.5 2.13999 81.88V82.54C2.39999 115.74 21.66 115.74 33.16 115.74H34C45.82 115.74 56.7 106.94 61.06 93.84C65.42 80.74 61.86 68 51.82 60.44V60.44ZM36.82 39.32C36.5808 42.3238 35.0481 45.0754 32.62 46.86C31.96 47.3 31.44 47.7 31 48.02L30.28 48.56L28.92 47.66L27.68 46.82C17.82 40.24 18.36 33.44 20.94 23.3C22.7055 23.016 24.4919 22.8822 26.28 22.9C28.836 22.7376 31.3976 23.1123 33.8 24C36.2614 28.7091 37.3101 34.029 36.82 39.32ZM21.6 76C23.6 74.48 27.18 71.66 28.92 70.52C44.64 78.52 47.18 80.76 40.16 95.76C38.1932 96.2101 36.1766 96.405 34.16 96.34C31.4153 96.4415 28.6696 96.1656 26 95.52C22.86 94.34 20.9 83.58 21.6 76Z" fill="black"/>
<path d="M29.7 14.98C32.8687 14.8074 36.0321 15.4044 38.92 16.72C39.74 17.24 39.9 17.52 40.4 19.1C43.58 28.88 45.32 36.66 38.4 43.62L41.4 40.58C48.26 33.62 46.52 25.84 43.4 16.06C42.9 14.48 42.74 14.2 41.92 13.68C39.0256 12.3895 35.8635 11.8133 32.7 12C29.5632 11.821 26.4306 12.4187 23.58 13.74C23.3923 13.8535 23.2179 13.9877 23.06 14.14L20 17.12C20.1621 16.9726 20.336 16.8389 20.52 16.72C23.3895 15.3913 26.5433 14.7936 29.7 14.98V14.98Z" fill="#D5BB2C"/>
<path d="M45.26 52.12L42.26 55.16C43.7786 54.0221 45.2155 52.779 46.56 51.44L49.56 48.4C48.5704 49.3879 47.5289 50.3226 46.44 51.2L45.26 52.12Z" fill="#D5BB2C"/>
<path d="M20.78 56L21.28 56.32L24.28 53.28C24.1057 53.1782 23.9387 53.0646 23.78 52.94C4.40001 40 8.86001 23.04 11.54 12.92C12.0593 10.4041 13.2716 8.0834 15.04 6.21997L12 9.25997C10.2396 11.1392 9.04095 13.4742 8.54 16C5.86 26.1 1.40001 43.04 20.78 56V56Z" fill="#D5BB2C"/>
<path d="M44.38 94.46L47.38 91.42C47.8099 90.9713 48.1675 90.4585 48.44 89.9C54.16 77.9 55.24 72.08 47.26 66.08C43.5001 63.5371 39.5482 61.2903 35.44 59.36L35.16 59.24C30.7699 62.2098 26.5991 65.4916 22.68 69.06L19.68 72.1C20.22 71.54 20.9 70.92 21.68 70.24C22.46 69.56 23.42 68.78 24.48 67.96L25.28 67.34C27.28 65.84 29.54 64.14 32.14 62.28L32.44 62.42C36.5468 64.3454 40.4985 66.5854 44.26 69.12C52.26 75.12 51.14 81.12 45.44 92.94C45.1675 93.4985 44.8099 94.0113 44.38 94.46Z" fill="#D5BB2C"/>
<path d="M25.08 103.1C12.78 98.56 11.32 81.4 11.26 74.22C11.26 65.1 12.88 63.14 13.52 62.4C13.86 62 14.24 61.6 14.66 61.16L11.68 64.2C11.24 64.64 10.86 65.04 10.52 65.44C9.88 66.18 8.22 68.16 8.28 77.26C8.28 84.44 9.78 101.6 22.1 106.14C26.7 107.86 31.94 107.86 37.48 107.86C41.6931 107.986 45.855 106.911 49.48 104.76C50.5319 104.092 51.5048 103.307 52.38 102.42L55.38 99.38C51.3652 103.14 45.9931 105.104 40.5 104.82C34.94 104.82 29.7 104.82 25.08 103.1V103.1Z" fill="#D5BB2C"/>
<path d="M54.62 56.42C71.38 69 63.56 85.3 59.34 94C56.28 100.42 50 104 41.34 104C35.82 104 30.58 104 25.96 102.28C13.64 97.68 12.2 80.52 12.14 73.34C12.14 64.24 13.76 62.26 14.4 61.52C17.6645 58.1073 21.27 55.0379 25.16 52.36L24.66 52C5.28 39.12 9.74 22.18 12.4 12C13.1138 8.49765 15.2033 5.42827 18.2 3.47999C22.809 0.98806 28.0049 -0.214188 33.24 -8.1975e-06C38.5437 -0.197426 43.8062 1.00267 48.5 3.47999C51.6127 5.41379 53.8724 8.46012 54.82 12C58.04 22 63.38 38.36 46.14 51.18C49.1 52.701 51.9355 54.4531 54.62 56.42V56.42ZM49.32 89.02C55.04 77.12 56.12 71.2 48.14 65.2C44.3839 62.6567 40.4314 60.4163 36.32 58.5L36 58.36C31.606 61.3245 27.4349 64.6066 23.52 68.18C23.2693 69.982 23.1623 71.801 23.2 73.62C23.2 83 25.86 90.5 29.48 91.86C33.2391 92.783 37.118 93.1203 40.98 92.86C44 92.86 47.8 92.2 49.32 89.02V89.02ZM23.12 15.18C20.14 26.48 18.94 35.18 30.6 42.88C31.88 43.72 33.32 44.58 34.86 45.42C36 44.6 37.22 43.76 38.5 42.88C49.7 35.1 47.96 26.48 44.28 15.18C43.78 13.6 43.62 13.32 42.8 12.8C39.9107 11.4889 36.7484 10.8921 33.58 11.06C30.4432 10.881 27.3106 11.4787 24.46 12.8C23.66 13.32 23.54 13.6 23.12 15.18V15.18Z" fill="#F7E367"/>
<path d="M52.36 68.68L52.66 69.2C57.02 74.34 55.52 80.12 50.66 90.12C49.2 93.3 45.36 94 42.4 94C38.5447 94.2595 34.6724 93.9222 30.92 93C30.6156 92.8823 30.3268 92.7278 30.06 92.54C30.5783 93.1219 31.2208 93.5798 31.94 93.88C35.6924 94.8022 39.5647 95.1395 43.42 94.88C46.38 94.88 50.22 94.2 51.74 91.04C56.98 80.1 58.32 74.2 52.36 68.68Z" fill="white" fill-opacity="0.33"/>
<path d="M14.56 75.32C14.56 66.2 16.18 64.24 16.8 63.5C20.0682 60.0834 23.6807 57.0138 27.58 54.34L27.04 54H25.82C22.19 56.5101 18.8378 59.3997 15.82 62.62C15.2 63.34 13.52 65.32 13.58 74.42C13.58 79.36 14.32 88.98 18.76 96C18.7815 96.0541 18.8158 96.1021 18.86 96.14C19.3294 96.7263 19.8372 97.2809 20.38 97.8C15.36 90.72 14.6 80.46 14.56 75.32V75.32Z" fill="white" fill-opacity="0.33"/>
<path d="M36.7 47.08C37.0392 47.2807 37.4608 47.2807 37.8 47.08L40.92 44.92C52.1 37.14 50.38 28.52 46.7 17.22C46.18 15.64 46.04 15.36 45.22 14.84H45.04C45.3047 15.3513 45.519 15.8871 45.68 16.44C49.34 27.6 51.08 36.2 40 44L36.88 46.16C36.5463 46.3797 36.1137 46.3797 35.78 46.16C34.46 45.42 33.22 44.68 32.1 43.94C30.98 43.2 30.34 42.7 29.58 42.08C30.6936 43.076 31.8766 43.9916 33.12 44.82C34.14 45.6 35.38 46.34 36.7 47.08V47.08Z" fill="white" fill-opacity="0.33"/>
<path d="M14.82 14C15.5088 10.4766 17.6031 7.38587 20.62 5.43997C25.2318 2.95912 30.4283 1.77056 35.66 1.99997C40.9635 1.80538 46.2252 3.0053 50.92 5.47997C51.38 5.77997 51.82 6.07997 52.22 6.39997C51.5408 5.72271 50.7973 5.11317 50 4.57997C45.2756 2.08815 39.9771 0.887706 34.64 1.09997C29.3983 0.883161 24.1952 2.08546 19.58 4.57997C16.5804 6.53977 14.4969 9.62538 13.8 13.14C11.8 20.76 8.78 32.22 15.64 42.94V43.04C16.26 43.84 16.96 44.64 17.64 45.44C9.48 34.28 12.72 22 14.82 14V14Z" fill="white" fill-opacity="0.33"/>
<path d="M58.2 59.32C57.52 58.72 56.8 58.12 56.02 57.52C53.7181 55.8581 51.3059 54.3546 48.8 53.02C48.7113 53.0756 48.6306 53.1428 48.56 53.22C51.518 54.7218 54.3534 56.4538 57.04 58.4L58.2 59.32Z" fill="white" fill-opacity="0.33"/>
</g>
<defs>
<clipPath id="clip0_1_1952">
<rect width="65" height="116" fill="white"/>
</clipPath>
</defs>
</svg>
