<svg width="68" height="120" viewBox="0 0 68 120" fill="none" xmlns="http://www.w3.org/2000/svg">
<path opacity="0.15" d="M55.48 57.5C55.22 57.34 54.98 57.18 54.74 57.06C62.62 48.56 65.38 42.08 62.44 24.72C60.54 13.4 52.78 7.16003 38.7 5.64003C36.5879 5.40772 34.4649 5.28755 32.34 5.28003C27.8043 5.10825 23.2948 6.04172 19.2 8.00003C19.2 7.38003 18.54 3.34003 18.54 3.34003L16 3.52003C14.32 3.72003 12.8 3.84003 11.48 3.96003C6.42 4.42003 3.36 4.70003 1.48 7.16003C-0.8 10.12 -0.12 14.38 1.74 25.74C2.4 29.74 4.44 43.38 4.44 43.38L12.7 42.5C18.2 41.94 19.04 41.86 21.3 39.34C21.62 39 22 38.56 22.52 38.04L23.44 37.12C23.44 37.12 23.06 34.56 22.96 33.92C22.3241 31.3607 22.2355 28.696 22.7 26.1C25.4459 25.0938 28.3563 24.6121 31.28 24.68C36.42 24.68 42.68 26.12 43.28 30.16C45.54 43.38 45.38 48.16 27.1 53.58L26.46 53.78L22 58.38L22.4 59.84C23.08 62.34 23.56 64.24 23.94 65.84C25.02 70.16 25.6 72.54 28.76 72.54C29.2358 72.5231 29.7101 72.4764 30.18 72.4C31.0259 72.2573 31.8821 72.1837 32.74 72.18C36.7239 72.0866 40.677 72.9005 44.3 74.56C45.42 75.24 45.48 75.28 45.84 77.8C47.22 87.32 47.5 93.8 44.76 97.02C42.76 99.36 38.66 100.44 31.92 100.44C29.7423 100.456 27.5714 100.194 25.46 99.66L31.46 93.06L19.28 82L16.28 85.04C8.9 92.46 3.06 98.38 4.52 106C6.52 116 19 119.68 29.16 119.68C48.46 119.68 56.42 110.16 57.94 108.06C67.3 98.8 66.76 84.96 64.98 72.64C64.5123 66.3327 60.9558 60.6649 55.48 57.5V57.5Z" fill="black"/>
<path d="M26.94 16C26.5337 16.2271 26.1517 16.4952 25.8 16.8C25.6239 16.9428 25.457 17.0965 25.3 17.26L22.3 20.3C24.8 17.76 29.58 16.86 34.14 16.86C35.4764 16.8583 36.8118 16.9318 38.14 17.08C41.6923 17.2213 45.1232 18.4113 48 20.5C48.92 21.38 49.12 22.24 49.5 24.5C50.46 30.2 51.38 35.58 49.1 40.34C48.2943 41.9466 47.2339 43.4122 45.96 44.68L48.94 41.64C50.1931 40.3576 51.2269 38.8778 52 37.26C54.28 32.5 53.36 27.12 52.4 21.42C52.02 19.2 51.8 18.34 50.88 17.42C48.0178 15.3323 44.5999 14.142 41.06 14C39.7318 13.8518 38.3964 13.7783 37.06 13.78C34.2763 13.7275 31.5037 14.1467 28.86 15.02C28.1908 15.286 27.548 15.6141 26.94 16V16Z" fill="#C36117"/>
<path d="M53.12 53.3L53.9 52.52L56.9 49.48C55.8184 50.5783 54.6623 51.6007 53.44 52.54L50.46 55.58C51.42 54.82 52.32 54 53.12 53.3V53.3Z" fill="#C36117"/>
<path d="M21.12 33.98L24.12 30.94L13.14 32.18L8.84 2.12L5.84 5.16L10.14 35.22L21.12 33.98Z" fill="#C36117"/>
<path d="M48.72 96L51.72 92.96C52.4404 92.2249 53.0411 91.3813 53.5 90.46C57.04 83.88 56 76.68 54.9 69.04C54.52 66.26 54.26 65.22 52.1 63.92C48.0708 62.0164 43.6554 61.0717 39.2 61.16C37.5697 61.153 35.9425 61.3003 34.34 61.6L31.4 50.86L28.4 54L31.34 64.76C32.9406 64.4447 34.5687 64.2906 36.2 64.3C40.6554 64.2117 45.0708 65.1564 49.1 67.06C51.26 68.36 51.52 69.4 51.92 72.18C53 79.82 54.04 87.02 50.5 93.62C50.0273 94.4968 49.4275 95.2988 48.72 96Z" fill="#C36117"/>
<path d="M35.66 108.8C33.9555 108.804 32.2523 108.704 30.56 108.5C21.2 107.34 14.7 103.04 13.6 97.26C12.5 91.48 16.4 87.46 19.22 84.36L22.88 80.36L20 83.38L16.32 87.38C13.4 90.5 9.54 94.76 10.6 100.3C11.66 105.84 18.2 110.3 27.56 111.54C29.2524 111.743 30.9555 111.843 32.66 111.84C38.4652 111.901 44.2264 110.828 49.62 108.68C52.2814 107.536 54.7036 105.901 56.76 103.86L59.76 100.82C57.7036 102.861 55.2814 104.496 52.62 105.64C47.2264 107.788 41.4652 108.861 35.66 108.8V108.8Z" fill="#C36117"/>
<path d="M20.68 0L21.52 5.8C26.4743 3.00997 32.0968 1.62682 37.78 1.8C39.4568 1.79717 41.1325 1.88396 42.8 2.06C49.74 2.82 55.76 5.22 59.34 8.66C62.1158 11.4208 63.8416 15.0634 64.22 18.96C65.38 25.78 66.68 33.48 62.9 41.36C60.8847 45.4003 57.9452 48.9085 54.32 51.6C55.7767 52.1251 57.1771 52.7952 58.5 53.6C63.3049 56.3723 66.405 61.364 66.76 66.9C68 75.54 69.4 85.32 64.18 95.04C61.8765 99.4399 58.0841 102.878 53.48 104.74C48.0942 106.925 42.3321 108.033 36.52 108.001C34.8155 108.003 33.1124 107.903 31.42 107.7C22.08 106.56 15.58 102.24 14.48 96.46C13.38 90.68 17.28 86.66 20.08 83.56L23.76 79.56L32 87.02L28.34 91.02C27.3295 92.0696 26.4064 93.2 25.58 94.4C27.6413 95.6536 29.9732 96.3943 32.38 96.56C33.647 96.7202 34.9229 96.8004 36.2 96.8C40.4716 96.8386 44.7123 96.0719 48.7 94.54C51.1255 93.6229 53.1269 91.8424 54.32 89.54C57.86 82.94 56.82 75.74 55.72 68.12C55.34 65.32 55.08 64.28 52.92 62.98C48.8745 61.1119 44.4548 60.1951 40 60.3C38.3693 60.2831 36.7411 60.4305 35.14 60.74L32.28 50C46.56 45.8 51.32 39.68 52.88 36.4C55.18 31.64 54.26 26.26 53.3 20.56C52.92 18.34 52.7 17.48 51.78 16.56C48.9256 14.4861 45.5247 13.2969 42 13.14C40.672 12.9904 39.3364 12.9169 38 12.92C33.42 12.92 28.66 13.82 26.16 16.36C24.38 18.16 23.74 20.88 24.16 24.66L25 30L14 31.3L9.72 1.24L20.68 0Z" fill="#E6954D"/>
<path d="M39.16 2.95997C34.064 2.81015 29.0032 3.85106 24.38 5.99996C23.9913 6.20088 23.774 6.62738 23.84 7.05997L23.94 7.69997C28.8939 4.90898 34.5167 3.52577 40.2 3.69997C41.8705 3.70168 43.5397 3.79516 45.2 3.97996C50.7258 4.40817 56.033 6.32237 60.56 9.51997C55.8932 5.74119 50.1716 3.49868 44.18 3.09996C42.5104 2.96283 40.8346 2.91609 39.16 2.95997V2.95997Z" fill="white" fill-opacity="0.33"/>
<path d="M54.2 18.56C53.9665 18.336 53.712 18.1351 53.44 17.96C54.2012 19.0405 54.632 20.3191 54.68 21.64C55.66 27.34 56.56 32.72 54.28 37.48C52.74 40.68 48.18 46.6 34.64 50.78C34.1554 50.9737 33.884 51.4912 34 52L36 59.72L36.74 59.62L34.92 52.92C34.7658 52.3788 35.0791 51.815 35.62 51.66C49.16 47.48 53.72 41.66 55.26 38.36C57.54 33.6 56.64 28.22 55.68 22.52C55.34 20.3 55.12 19.44 54.2 18.56V18.56Z" fill="white" fill-opacity="0.33"/>
<path d="M16.9 98.36C15.84 92.82 19.68 88.56 22.5 85.46L25.74 82C25.9737 81.7532 25.9737 81.3668 25.74 81.12C25.6265 80.9975 25.467 80.9279 25.3 80.9279C25.133 80.9279 24.9735 80.9975 24.86 81.12L21.48 84.6C18.66 87.68 14.82 92 15.86 97.48C16.0473 98.4154 16.3707 99.3184 16.82 100.16C16.8614 100.252 16.9229 100.334 17 100.4C17.3531 100.793 17.7269 101.167 18.12 101.52C17.5257 100.549 17.1124 99.4784 16.9 98.36V98.36Z" fill="white" fill-opacity="0.33"/>
<path d="M57.12 53.3199L56.74 53.6399C58.1951 54.1691 59.595 54.8389 60.92 55.6399C61.6514 56.0797 62.353 56.5675 63.02 57.0999C62.0967 56.2062 61.0848 55.4088 60 54.7199C59.079 54.1771 58.1159 53.7089 57.12 53.3199V53.3199Z" fill="white" fill-opacity="0.33"/>
<path d="M55.88 65.34C56.7097 66.5103 57.1631 67.9055 57.18 69.34C58.28 76.96 59.32 84.16 55.78 90.76C54.5809 93.0576 52.5816 94.8364 50.16 95.76C46.171 97.285 41.9304 98.045 37.66 98C36.3829 98.0003 35.107 97.9202 33.84 97.76C31.8849 97.568 29.9736 97.0615 28.18 96.26L28.06 96.48C30.1196 97.7371 32.4524 98.4782 34.86 98.64C36.1274 98.7935 37.4033 98.867 38.68 98.86C42.9504 98.905 47.191 98.1451 51.18 96.62C53.6079 95.6964 55.6093 93.9087 56.8 91.6C60.34 85.02 59.3 77.82 58.2 70.18C57.84 67.6 57.58 66.5 55.88 65.34V65.34Z" fill="white" fill-opacity="0.33"/>
<path d="M15.64 27.68L12.28 4.27997C12.2403 4.00372 12.3132 3.72309 12.4825 3.50118C12.6517 3.27927 12.9031 3.1347 13.18 3.09997L21.18 2.19997L20.98 1.21997L12.16 2.21997C11.8831 2.2547 11.6317 2.39927 11.4625 2.62118C11.2932 2.84309 11.2203 3.12372 11.26 3.39997L15.12 30.3L16 30.2L15.64 27.68Z" fill="white" fill-opacity="0.33"/>
</svg>
