<svg width="69" height="119" viewBox="0 0 69 119" fill="none" xmlns="http://www.w3.org/2000/svg">
<g clip-path="url(#clip0_1_1924)">
<path opacity="0.15" d="M46.76 23.26L47.02 31.46H55.28C59.56 31.46 62.5 31.32 64.4 29.34C66.3 27.36 66.4 24.14 66.1 18.04C66.1 15.14 65.86 11.54 65.9 6.94V4.42H63.36C50.78 3.94 40.54 3.6 23.06 3.6C20.28 3.6 17.88 3.6 15.76 3.5C14.14 3.5 12.72 3.5 11.48 3.5C8.04001 3.5 4.78001 3.68 2.74001 5.9C0.240006 8.44 0.580006 12.72 1.34001 22.1C2.75755 38.1384 3.1917 54.2485 2.64001 70.34V72.34L4.44001 72.98C5.05349 73.2324 5.64261 73.5403 6.20001 73.9C8.10949 75.102 10.1945 75.9994 12.38 76.56L13.82 76.9L14.86 75.84C15.3 75.4 15.72 74.94 16.12 74.52C18.42 72.02 19.68 70.66 25.72 70.66C26.86 70.66 28.16 70.66 29.58 70.82C38.04 71.48 42.7 73.84 43.84 78.02C45.34 83.52 45.84 92.78 44.84 96.02C40.4655 98.0793 35.674 99.0992 30.84 99C25.68 99 21.56 97.86 20.06 96.02C19.6473 95.5446 19.4325 94.929 19.46 94.3L20.86 92.9L24.38 89.32L13.46 77.08L9.46001 80.64C8.1311 81.7655 6.86266 82.9605 5.66001 84.22L4.00001 86C6.4373e-06 90 -1.13999 97 1.26001 103.38C4.44001 111.88 12.92 117.26 24.52 118.14C25.84 118.14 27.18 118.28 28.52 118.28C45.52 118.28 64.06 109.58 64.52 90.46C64.9 75.68 62.34 66.28 56.2 59.96C50.5 54.12 41.84 51.28 29.72 51.28C27.2392 51.2762 24.7652 51.5377 22.34 52.06H22.08C22.08 51.08 22.08 49.64 22.08 48.06C22.08 43.28 22.08 35.52 21.22 22.78C21.24 22.9 38.3 23.02 46.76 23.26V23.26Z" fill="black"/>
<path d="M55.82 12.42C46.4867 12.1134 37.1533 11.9667 27.82 11.98H21.68L18.68 15.04H24.78C34.1133 15.04 43.4467 15.1867 52.78 15.48L53.02 23.6H64.1L67.1 20.54H56L55.82 12.42Z" fill="#65B260"/>
<path d="M52.22 91.06C53.8062 89.2622 54.5741 86.8861 54.34 84.5C54.6329 79.2739 54.1271 74.0336 52.84 68.96C52.4698 66.9746 51.3624 65.2028 49.74 64C45.6841 61.4557 41.0254 60.0339 36.24 59.88C34.84 59.78 33.56 59.72 32.42 59.72C26.14 59.72 23.42 61.26 21.6 63.1L19.14 65.54C16.5882 64.6251 14.1248 63.4804 11.78 62.12C12.9 23.66 10.44 17.68 9.78 3.52L9.58 1.3L9.7 1L6.7 4L6.58 4.3L6.8 6.56C7.44 20.72 9.9 26.7 8.8 65.16C10.66 65.82 12.8 67.78 16.46 68.66L19.46 65.62H19.2C21 64.04 23.78 62.78 29.44 62.78C30.6 62.78 31.86 62.78 33.28 62.94C38.0587 63.0965 42.7103 64.5182 46.76 67.06C48.3706 68.2614 49.4702 70.025 49.84 72C51.1259 77.074 51.6384 82.313 51.36 87.54C51.4384 89.3126 51.0813 91.0773 50.32 92.68C50.016 93.1987 49.6463 93.676 49.22 94.1L52.22 91.06Z" fill="#65B260"/>
<path d="M21.28 86.92L24.28 83.88L20.6 87.16L17.6 90.2L21.28 86.92Z" fill="#65B260"/>
<path d="M34.68 107.34C33.52 107.34 32.36 107.34 31.22 107.22C16.68 106.12 11.86 98.66 10.3 94.3C8.30001 88.96 9.28001 82.58 12.3 79.46L9.30001 82.5C6.24001 85.62 5.30001 92 7.30001 97.34C8.88001 101.7 13.68 109.16 28.22 110.26C29.36 110.26 30.52 110.38 31.68 110.38C37.8476 110.425 43.9637 109.256 49.68 106.94C52.4931 105.793 55.0596 104.116 57.24 102L60.24 98.96C58.0817 101.1 55.5366 102.81 52.74 104C46.9981 106.29 40.861 107.425 34.68 107.34V107.34Z" fill="#65B260"/>
<path d="M27.44 0C38.88 0 50.66 0.18 62.1 0.6L67.64 0.8C67.64 7.42 67.52 3.16 68.02 19.66H56.94L56.7 11.54C47.38 11.24 38 11.1 28.7 11.1H22.54C23.62 23.64 24.12 36.24 23.98 48.8C27.319 48.0862 30.7257 47.7375 34.14 47.76C35.46 47.76 36.64 47.76 37.66 47.88C44.6143 48.2032 51.349 50.4159 57.14 54.28C60.7943 57.0331 63.3642 60.9835 64.4 65.44C65.963 71.5776 66.6033 77.9138 66.3 84.24C66.14 90.46 64.54 98.24 53.62 103C47.9037 105.316 41.7876 106.485 35.62 106.44C34.46 106.44 33.3 106.44 32.16 106.32C17.62 105.22 12.8 97.76 11.22 93.4C9.22001 87.88 10.28 81.24 13.62 78.26L17.62 74.62L25.16 82.98L21.46 86.26C21.0292 87.7717 21.2238 89.3931 22 90.76C23.42 93.28 27.2 94.88 32.64 95.3C33.56 95.3 34.46 95.4 35.36 95.4C40.0102 95.4388 44.6231 94.5692 48.94 92.84C54.66 90.34 55.16 87.58 55.26 83.64C55.5489 78.3786 55.0295 73.104 53.72 68C53.349 65.9986 52.2433 64.2081 50.62 62.98C46.5641 60.4357 41.9054 59.0139 37.12 58.86C35.72 58.86 34.44 58.7 33.28 58.7C24.14 58.7 22.54 61.96 20.32 64.7C16.58 63.82 14.52 61.86 12.66 61.2C13.78 22.74 11.3 16.78 10.66 2.6L10.46 0.42V0.12C16 0 21.7 0 27.44 0V0Z" fill="#85DB90"/>
<path d="M39.04 49C38.04 49 36.84 48.88 35.54 48.88C32.4746 48.8709 29.4149 49.1454 26.4 49.7V50.8C29.7383 50.0801 33.145 49.7247 36.56 49.74C37.86 49.74 39.06 49.74 40.08 49.88C47.0343 50.2032 53.769 52.4158 59.56 56.28L60.1 56.72C59.62 56.28 59.1 55.84 58.54 55.4C52.7428 51.5333 46.001 49.3206 39.04 49Z" fill="white" fill-opacity="0.33"/>
<path d="M58.12 13.5L58.28 18.78H59.26L59.1 13.52L58.12 13.5Z" fill="white" fill-opacity="0.33"/>
<path d="M13.58 95.4C11.58 89.88 12.64 83.24 15.96 80.26L19.44 77.16C19.5573 77.0436 19.6232 76.8852 19.6232 76.72C19.6232 76.5548 19.5573 76.3964 19.44 76.28C19.1932 76.0463 18.8068 76.0463 18.56 76.28L14.94 79.38C11.62 82.36 10.56 89 12.56 94.52C12.9393 95.5335 13.4218 96.5052 14 97.42C13.9939 97.4731 13.9939 97.5268 14 97.58C14.4475 98.1228 14.9284 98.6371 15.44 99.12C14.6661 97.9631 14.0412 96.7132 13.58 95.4V95.4Z" fill="white" fill-opacity="0.33"/>
<path d="M57.64 85.6C57.9288 80.3541 57.4231 75.0947 56.14 70C55.769 67.9986 54.6633 66.2081 53.04 64.98C53.04 64.98 53.04 64.98 52.94 64.98C54.0372 66.162 54.791 67.6211 55.12 69.2C56.3982 74.2819 56.9038 79.5274 56.62 84.76C56.62 88.76 56.02 91.46 50.3 93.96C45.9824 95.6867 41.3699 96.5562 36.72 96.52C35.82 96.52 34.92 96.52 34 96.52C30.8941 96.4457 27.8611 95.5634 25.2 93.96C27.02 95.84 30.42 97.04 35.02 97.4H37.74C42.3901 97.4388 47.0031 96.5691 51.32 94.84C57.04 92.32 57.54 89.56 57.64 85.6V85.6Z" fill="white" fill-opacity="0.33"/>
<path d="M63.48 1.69998C52 1.27998 40.28 1.09998 28.84 1.09998C23.1 1.09998 17.44 1.09998 11.96 1.21998L11.84 1.53998L12 3.75998C12.6 17.76 15 23.76 14 60.42C13.9858 60.8004 14.1766 61.1591 14.5 61.36C14.6731 61.4412 14.8402 61.5348 15 61.64C16.02 24.62 13.62 18.58 13 4.61998L12.88 2.39998V2.09998C18.46 1.99998 24.12 1.99998 29.86 1.99998C41.3 1.99998 53.08 2.15998 64.5 2.59998L67.62 2.71998V1.85998L63.48 1.69998Z" fill="white" fill-opacity="0.33"/>
</g>
<defs>
<clipPath id="clip0_1_1924">
<rect width="69" height="119" fill="white"/>
</clipPath>
</defs>
</svg>
