<svg width="133" height="161" viewBox="0 0 133 161" fill="none" xmlns="http://www.w3.org/2000/svg">
<path fill-rule="evenodd" clip-rule="evenodd" d="M68.356 4C48.98 4 32.884 12.484 20.508 29.228C9.556 44.064 4 61.752 4 81.796C4 101.872 9.54 119.604 20.456 134.516C32.888 151.452 49.004 160.04 68.356 160.04C87.596 160.04 104.176 151.204 116.312 134.488C127.136 119.572 132.628 101.844 132.628 81.796C132.628 61.72 127.132 44.012 116.276 29.136C104.1 12.692 87.528 4 68.356 4Z" fill="black" fill-opacity="0.15"/>
<path fill-rule="evenodd" clip-rule="evenodd" d="M64.356 0C44.98 0 28.884 8.484 16.508 25.228C5.556 40.064 0 57.752 0 77.796C0 97.872 5.54 115.604 16.456 130.516C28.888 147.452 45.004 156.04 64.356 156.04C83.596 156.04 100.176 147.204 112.312 130.488C123.136 115.572 128.628 97.844 128.628 77.796C128.628 57.72 123.132 40.012 112.276 25.136C100.1 8.692 83.528 0 64.356 0Z" fill="#D1ECF6"/>
<path fill-rule="evenodd" clip-rule="evenodd" d="M52.7348 66.8828C52.7348 71.0588 49.3508 74.4468 45.1708 74.4468C40.9948 74.4468 37.6148 71.0588 37.6148 66.8828C37.6148 62.7028 40.9948 59.3188 45.1708 59.3188C49.3508 59.3188 52.7348 62.7028 52.7348 66.8828Z" fill="#3E3D3F"/>
<path fill-rule="evenodd" clip-rule="evenodd" d="M43.684 69.0196C43.684 70.2396 42.7 71.2196 41.484 71.2196C40.268 71.2196 39.28 70.2396 39.28 69.0196C39.28 67.8036 40.268 66.8196 41.484 66.8196C42.7 66.8196 43.684 67.8036 43.684 69.0196Z" fill="#FEFEFE"/>
<path fill-rule="evenodd" clip-rule="evenodd" d="M45.1724 66.6288C45.1724 67.1288 44.7644 67.5448 44.2684 67.5448C43.7604 67.5448 43.3604 67.1288 43.3604 66.6288C43.3604 66.1328 43.7604 65.7248 44.2684 65.7248C44.7644 65.7248 45.1724 66.1328 45.1724 66.6288Z" fill="#FEFEFE"/>
<path fill-rule="evenodd" clip-rule="evenodd" d="M89.8872 67.8164C89.8872 71.9964 86.4992 75.3804 82.3232 75.3804C78.1512 75.3804 74.7672 71.9964 74.7672 67.8164C74.7672 63.6444 78.1512 60.2524 82.3232 60.2524C86.4992 60.2524 89.8872 63.6444 89.8872 67.8164Z" fill="#3E3D3F"/>
<path fill-rule="evenodd" clip-rule="evenodd" d="M80.84 69.9608C80.84 71.1768 79.856 72.1648 78.636 72.1648C77.424 72.1648 76.432 71.1768 76.432 69.9608C76.432 68.7448 77.424 67.7568 78.636 67.7568C79.856 67.7568 80.84 68.7448 80.84 69.9608Z" fill="#FEFEFE"/>
<path fill-rule="evenodd" clip-rule="evenodd" d="M82.3244 67.574C82.3244 68.07 81.9204 68.478 81.4164 68.478C80.9164 68.478 80.5124 68.07 80.5124 67.574C80.5124 67.07 80.9164 66.666 81.4164 66.666C81.9204 66.666 82.3244 67.07 82.3244 67.574Z" fill="#FEFEFE"/>
<path fill-rule="evenodd" clip-rule="evenodd" d="M63.2232 87.0896C62.2712 87.1736 61.3192 87.1936 60.3912 87.1496C59.0752 87.0856 57.7632 86.8776 56.5432 86.5536C56.2592 87.1536 56.0312 87.8136 55.9112 88.5096C55.3312 91.7496 56.9832 94.6056 59.6032 94.8816C62.2192 95.1576 64.8072 92.7456 65.3832 89.4976C65.5552 88.5416 65.5272 87.6216 65.3392 86.7856C64.6392 86.9216 63.9392 87.0256 63.2232 87.0896Z" fill="#D9574F"/>
<path fill-rule="evenodd" clip-rule="evenodd" d="M74.4848 81.1912C74.2728 80.8752 73.9088 80.6312 73.4888 80.5312C73.2008 80.4512 72.8888 80.4432 72.5848 80.4912C71.7368 80.6552 71.4328 81.1672 71.1648 81.6272L71.0168 81.8872C70.7168 82.3992 70.3808 82.8632 69.9888 83.2832C69.4168 83.9072 68.6888 84.4712 67.8888 84.9232C66.9008 85.4872 65.7808 85.8912 64.5568 86.1152C63.4248 86.3192 62.2208 86.3432 61.0968 86.1872C60.1368 86.0632 59.2128 85.7952 58.3528 85.4192C57.5368 85.0632 56.9248 84.6712 56.6368 84.4832L56.3968 84.3232C55.9368 84.0312 55.5048 83.7552 54.8728 83.7552C54.7448 83.7552 54.6088 83.7672 54.4728 83.7832C54.1928 83.8392 53.9048 83.9552 53.6848 84.1192C53.3488 84.3672 53.1488 84.7232 53.1368 85.0872C53.1128 85.6392 53.4488 86.0272 54.1768 86.6272C54.8128 87.1632 55.5608 87.6472 56.3968 88.0672C57.5928 88.6752 58.9528 89.1152 60.3448 89.3432C61.1248 89.4712 61.9368 89.5312 62.7448 89.5312C63.6688 89.5312 64.5808 89.4552 65.4728 89.2912L65.5688 89.2752C67.2568 88.9592 68.8848 88.3472 70.2608 87.5152C71.4048 86.8352 72.4008 85.9712 73.1648 85.0352C73.6968 84.3672 74.1168 83.6632 74.4128 82.9392C74.7168 82.1632 74.8168 81.6792 74.4848 81.1912Z" fill="#3E3D3F"/>
</svg>
