<svg width="46" height="118" viewBox="0 0 46 118" fill="none" xmlns="http://www.w3.org/2000/svg">
<g clip-path="url(#clip0_1_1868)">
<path opacity="0.15" d="M43.64 100L43.52 97.46L32.78 97.68C34.2025 72.7546 33.5334 47.7537 30.78 22.94H32.78L33.52 22.18C34.06 21.64 34.5 21.22 34.88 20.9C37.56 18.44 37.46 17.26 37.02 12.32C36.88 10.82 36.7 8.76002 36.5 6.06002L36.34 3.52002H33.78C28.64 3.72002 26.68 3.72002 25.5 3.72002C23.5991 3.74299 21.7017 3.88996 19.82 4.16002L13.82 4.82002L13.16 5.48002L11.68 6.96002C9.68 8.82002 9.16 9.64002 9.68 12.26L8.9 13.28C7.62 14.92 6.9 15.82 7.48 17.8C7.52765 17.9445 7.5677 18.0914 7.6 18.24C7.80059 18.9935 7.93444 19.7631 8 20.54C7.7 20.72 7.12 21.02 6.6 21.28C6.08 21.54 5 22 4 22.6L3.68 22.78L3.42 23.04C2.92 23.54 2.5 23.92 2.12 24.26C-1.34 27.3 -0.199999 29.12 2.82 34L7.1 41.14L12.58 38C14.2788 57.9542 14.5996 78.0017 13.54 98L6 98.22L5.26 98.98C4.72 99.54 4.26 99.96 3.9 100.28C1.22 102.72 1.3 103.76 1.66 108.82C1.78 110.32 1.94 112.38 2.08 115.1L2.2 117.64C2.2 117.64 17.06 117.4 21.54 117.36C35.36 117.36 40.02 117.24 42.64 114.36C44.64 112.12 44.4 109.22 44 104.8C43.88 103.4 43.74 101.8 43.64 100Z" fill="black"/>
<path d="M38.12 11.94L31 12.22L28 15.26L35.12 15L38.12 11.94Z" fill="#65B260"/>
<path d="M15.78 15.34C17.42 13.68 17.18 11.78 16.32 8.14002L18.9 4.68002V4.08002L21.1 1.78002L21.32 1.46002L18.8 4.00002L18.54 2.00002L15.54 5.10002L16 7.74002L13.32 11.18C13.32 11.64 13.52 12.06 13.6 12.46C13.7772 13.1712 13.9108 13.8925 14 14.62C14.111 15.444 14.0148 16.2826 13.72 17.06C13.5118 17.5561 13.2057 18.005 12.82 18.38L15.78 15.34Z" fill="#65B260"/>
<path d="M16.3 29.64C17.04 29.22 17.68 28.76 18.3 28.32C20.5231 51.5877 20.8709 74.9965 19.34 98.32L22.34 95.28C23.8709 71.9565 23.5231 48.5477 21.3 25.28C20.66 25.72 20.02 26.18 19.3 26.6L14.54 29.3L8.84 19.64L5.84 22.68L11.54 32.34L16.3 29.64Z" fill="#65B260"/>
<path d="M10.62 95.58L7.62 98.62L8.2 109.7L42.1 108.96L45.1 105.92L11.2 106.66L10.62 95.58Z" fill="#65B260"/>
<path d="M38.24 0L39 11.08L31.86 11.34C35.2758 38.8215 36.1195 66.5617 34.38 94.2L45.4 94L46 105.04L12 105.78L11.42 94.7L23.16 94.44C24.6907 71.1165 24.3429 47.7077 22.12 24.44C21.48 24.88 20.84 25.34 20.12 25.76L15.42 28.42L9.72 18.76L14.46 16C18.46 13.78 18.34 12 17.18 7.22L19.78 3.78L19.42 1.18L22 0.9L22.2 0.58L26.2 0.44L30.4 0V0.28L38.24 0Z" fill="#85DB90"/>
<path d="M12 19.34C11.7573 19.4741 11.5796 19.7013 11.5079 19.9692C11.4362 20.2371 11.4767 20.5226 11.62 20.76L15.62 27.46L16 27.24L12.7 21.64C12.5567 21.4026 12.5162 21.1171 12.5879 20.8492C12.6596 20.5813 12.8373 20.3541 13.08 20.22L16.88 18C20.66 15.86 20.76 14.14 19.72 9.70002C19.6709 9.39112 19.7754 9.07769 20 8.86002L22 6.12002C22.1676 5.90459 22.2398 5.63003 22.2 5.36002L22 4.20002C21.9604 3.92598 22.0339 3.64762 22.2036 3.42886C22.3734 3.2101 22.6247 3.06974 22.9 3.04002L24.4 2.88002L24.64 2.56002L28.64 2.42002L32.82 2.00002V2.28002L38.44 2.00002V1.08002L31.84 1.38002V1.10002L27.62 1.54002L23.62 1.70002L23.36 2.00002L21.86 2.16002C21.5847 2.18974 21.3334 2.3301 21.1636 2.54886C20.9939 2.76762 20.9204 3.04598 20.96 3.32002L21.12 4.50002C21.1438 4.7689 21.0731 5.03767 20.92 5.26002L18.88 8.00002C18.6846 8.24079 18.6176 8.5611 18.7 8.86002C19.72 13.32 19.64 15.02 15.86 17.18L12 19.34Z" fill="white" fill-opacity="0.33"/>
<path d="M14.98 96.66L24.7 96.44C25.2368 96.4313 25.6788 96.0153 25.72 95.48C27.1764 72.4533 26.8019 49.3474 24.6 26.38L24.22 26.66C23.9054 26.8648 23.7287 27.2259 23.76 27.6C25.8022 49.8756 26.1165 72.2759 24.7 94.6C24.6682 95.1398 24.2207 95.5609 23.68 95.56L14 95.78C13.7206 95.7852 13.455 95.9026 13.2631 96.1057C13.0712 96.3089 12.9692 96.5808 12.98 96.86L13.4 104.86H14.38L14 97.74C13.9773 97.1729 14.4134 96.6923 14.98 96.66V96.66Z" fill="white" fill-opacity="0.33"/>
<path d="M45.5 95.1L36.84 95.28V96.18L45.56 96L45.5 95.1Z" fill="white" fill-opacity="0.33"/>
</g>
<defs>
<clipPath id="clip0_1_1868">
<rect width="46" height="118" fill="white"/>
</clipPath>
</defs>
</svg>
