<svg width="66" height="115" viewBox="0 0 66 115" fill="none" xmlns="http://www.w3.org/2000/svg">
<g clip-path="url(#clip0_1_1842)">
<path opacity="0.15" d="M63.34 83.56V81.02H60.8C58.08 81.02 56 80.82 54.5 80.74C53 80.66 52.1 80.6 51.28 80.6C49.2169 80.3952 47.2022 81.311 46 83C45.68 83.36 45.26 83.82 44.72 84.38L43.94 85.14V94.9L24.94 95.12C24.94 69.62 40.94 51.84 51.6 39.96C56.08 34.96 59.6 31.02 60.9 27.68C62.7694 23.3043 62.2635 18.2756 59.56 14.36C54.02 6.36 40.76 3.5 31.1 3.5C20.58 3.5 11.82 6.38 7.1 11.38C6.6 11.84 5.94 12.54 4.94 13.56L4.28 14.22C-2.3 20.9 0.119998 28.36 2.44 35.58L3.8 40L17.5 36L18 35.48C18.52 34.94 18.98 34.52 19.34 34.18C22.02 31.62 22.02 30.48 20.82 27.08C20.6 26.42 20.3 25.58 19.94 24.48L19.78 24C22.5111 23.2241 25.3412 22.8535 28.18 22.9C32.8517 22.7764 37.4938 23.6775 41.78 25.54C40.1126 28.0027 38.1738 30.2703 36 32.3C25.12 43.8 4.72 65.18 4.72 106.44C4.72 107.32 4.72 108.06 4.6 108.72C4.23692 110.31 4.59568 111.979 5.58 113.28C6.92 114.74 9.02 114.86 11.58 114.86C13.12 114.86 15.18 114.86 17.78 114.7C22.78 114.54 30.36 114.28 41.34 114.28C44.98 114.28 47.94 114.48 50.32 114.64C52 114.64 53.46 114.84 54.7 114.84C56.9338 115.039 59.1519 114.316 60.84 112.84C63.44 110.22 63.42 105.88 63.32 94.28C63.36 91.22 63.32 87.72 63.34 83.56V83.56Z" fill="black"/>
<path d="M51.26 34.74C51.62 34.4 55.26 30.64 55.26 30.64L50.34 35.64L51.26 34.74Z" fill="#79BDE4"/>
<path d="M22.6 25.34L12 28.38L10.32 23.04C9.4 20 7.8 14.92 10.88 10C11.3777 9.21128 11.9612 8.48015 12.62 7.82001L9.62 10.82C8.96703 11.4853 8.38398 12.2158 7.88 13C4.8 18 6.4 23.04 7.36 26L9.04 31.34L19.6 28.38L22.6 25.34Z" fill="#79BDE4"/>
<path d="M50.1 95.24L53.1 92.2V77.94L50.1 80.96V95.24Z" fill="#79BDE4"/>
<path d="M17.6 103.7L16 103.86L14 103.74C13.06 82 17.26 63.24 28.62 45.38C30.6584 42.1813 32.8614 39.0905 35.22 36.12L37.06 33.84C39.38 31.0533 41.88 28.28 44.56 25.52L47.2 22.84C48.9769 21.2626 50.4658 19.3879 51.6 17.3C51.74 16.96 52 16.26 49.6 14.92C44.8686 12.8552 39.7404 11.8583 34.58 12C33.1497 11.9891 31.7201 12.0693 30.3 12.24C27.27 12.4555 24.329 13.3583 21.7 14.88C21.3096 15.1262 20.9474 15.4146 20.62 15.74L17.62 18.74C18.56 17.78 21.44 15.92 27.3 15.24C28.721 15.0792 30.1499 14.9991 31.58 15C36.7264 14.8903 41.8338 15.9145 46.54 18C49 19.34 48.74 20 48.54 20.38C47.6458 22.1027 46.4619 23.6588 45.04 24.98L42.28 27.78C30.36 40 22.2 52.1 17.18 65.04C16.24 67.46 15.42 70 14.7 72.4C14.22 74.06 13.78 75.72 13.4 77.42C13.02 79.12 12.72 80.52 12.44 82.1L12.32 82.86C11.92 85.2333 11.6 87.6333 11.36 90.06C11.2 91.92 11.06 93.8 10.98 95.7C10.9 97.6 10.86 99.32 10.86 101.16C10.86 103.02 10.86 104.88 10.98 106.78C10.98 106.78 40.62 106.38 44.98 106.38C49.96 106.38 50.98 106.54 61.18 106.9L64.18 103.86C53.92 103.5 52.96 103.34 47.96 103.34C43.62 103.36 36.34 103.48 17.6 103.7V103.7Z" fill="#79BDE4"/>
<path d="M35.12 1.27032e-06C42.1434 -0.135838 49.1037 1.34928 55.46 4.34C63.76 8.84 64.72 15.7 62.86 20.62C61.0243 24.52 58.3949 27.9941 55.14 30.82L54.24 31.72C35.34 50.86 26 71.48 26.8 91.64L54 91.32V77.04L65.06 77.42V103C54.8 102.64 53.8 102.48 48.8 102.48C44.52 102.48 14.8 102.88 14.8 102.88C13.52 72.62 22.18 48.14 46.2 23.82L47.12 22.9C49.2392 21.0488 51.0369 18.8591 52.44 16.42C52.58 16.1 52.84 15.38 50.44 14.04C45.7284 11.9757 40.6227 10.9655 35.48 11.08C34.0566 11.0796 32.6343 11.1598 31.22 11.32C24.54 12.1 21.72 14.4 21.22 15.16C20.72 15.92 21.08 16.82 21.8 19.16L23.48 24.48L12.92 27.5L11.24 22.18C10.28 19.12 8.68 14 11.76 9.08C14.62 4.5 21.1 1.3 29.56 0.320001C31.4052 0.101479 33.2619 -0.00538214 35.12 1.27032e-06V1.27032e-06Z" fill="#8FD4F9"/>
<path d="M14.3 26.22L13.66 24.22C12.7 21.1 11.1 16 14.18 11.06C17.04 6.48002 23.52 3.28002 32 2.30002C33.839 2.0898 35.689 1.98962 37.54 2.00002C44.5626 1.8507 51.5243 3.32931 57.88 6.32002C58.9353 6.89979 59.939 7.5689 60.88 8.32002C59.676 7.19762 58.3315 6.23626 56.88 5.46002C50.5176 2.46419 43.5513 0.972377 36.52 1.10002C34.6553 1.09466 32.7919 1.20152 30.94 1.42002C22.5 2.42002 16 5.60002 13.16 10.2C10.08 15.14 11.68 20.2 12.62 23.28L13.62 26.42L14.3 26.22Z" fill="white" fill-opacity="0.33"/>
<path d="M17.18 102C16.54 73.02 25.38 49.28 48.66 25.72L49.58 24.8C51.6823 22.963 53.4781 20.8025 54.9 18.4C55.02 18.12 55.22 17.56 53.7 16.54C53.957 16.7979 54.0285 17.1875 53.88 17.52C52.4689 19.9536 50.6722 22.142 48.56 24L47.64 24.92C24.12 48.72 15.34 72.7 16.18 102H16.86H17.18Z" fill="white" fill-opacity="0.33"/>
<path d="M65.08 78.48L56.46 78.18C56.1789 78.1746 55.9071 78.2812 55.7046 78.4763C55.502 78.6713 55.3853 78.9389 55.38 79.22V91.42C55.3747 91.6958 55.2601 91.9583 55.0613 92.1496C54.8625 92.3409 54.5958 92.4454 54.32 92.44L29.18 92.74V93.62L55.32 93.32C55.8944 93.32 56.36 92.8544 56.36 92.28V80.1C56.3598 79.8171 56.4748 79.5463 56.6786 79.3501C56.8824 79.1539 57.1573 79.0491 57.44 79.06L65.04 79.32L65.08 78.48Z" fill="white" fill-opacity="0.33"/>
</g>
<defs>
<clipPath id="clip0_1_1842">
<rect width="66" height="115" fill="white"/>
</clipPath>
</defs>
</svg>
