<svg width="76" height="118" viewBox="0 0 76 118" fill="none" xmlns="http://www.w3.org/2000/svg">
<g clip-path="url(#clip0_1_1938)">
<path opacity="0.15" d="M69.5 6.53998L68.84 4.93998L4.55999 3.47998L3.75999 4.27998C3.29999 4.75998 2.89999 5.09998 2.57999 5.39998C-0.240009 7.99998 -0.200009 8.81998 0.179991 17.38C0.279991 19.84 0.639991 30.12 0.639991 30.12H3.19999H9.47999H11.86C14.1805 30.4491 16.4919 29.4629 17.86 27.56C18.18 27.2 18.6 26.74 19.14 26.18L19.94 25.38V24.26C19.94 23.9 19.94 23.58 19.94 23.3H21.72C23.72 23.3 26.56 23.3 30.54 23.5L45.22 23.88C39.1377 30.6834 33.588 37.9449 28.62 45.6C25.1174 44.4064 21.4852 43.6343 17.8 43.3C11.9 43.3 11.08 47.82 9.79999 54.68C9.55999 55.92 8.53999 61.38 8.53999 61.38C8.53999 61.38 18.18 63.38 18.98 63.62L18.56 64.36C15.52 69.7 8.41999 82.22 7.45999 114.06V116.6L9.99999 116.84C12.72 117 14.78 117.18 16.28 117.3C17.78 117.42 19 117.54 19.88 117.54C21.8436 117.641 23.717 116.708 24.82 115.08C25.14 114.72 25.54 114.26 26.1 113.7L26.82 112.96V111.92C27.22 98.22 28.16 86.28 35.72 69.34C37.98 70.36 39.72 71.34 41.06 72.04C42.6555 73.1507 44.5064 73.8388 46.44 74.04C49.88 74.04 51.28 71.34 55.02 64.04L58.14 58.04L54 56C50.82 54.24 48.6 53.02 45.46 51.62C52.5088 40.8617 60.7401 30.9264 70 22C70.5 21.5 70.92 21.12 71.3 20.8C74.52 17.94 73.8 16.28 71.66 11.36C71.02 10.12 70.34 8.55998 69.5 6.53998V6.53998Z" fill="black"/>
<path d="M69.4 16.94L66.4 20C68.06 18.32 69.78 16.62 71.54 14.94L74.54 11.9C73.66 12.72 70.22 16.1 69.4 16.94Z" fill="#65B260"/>
<path d="M17.58 15.54L54.46 16.18C48.8169 22.1687 43.566 28.5152 38.74 35.18C35.98 39.0333 33.4467 42.9 31.14 46.78L34.12 43.74C40.7763 32.7299 48.6016 22.4705 57.46 13.14L20.58 12.5L17.58 15.54Z" fill="#65B260"/>
<path d="M20.78 19.2H9.69998L9.13998 0.880005L6.13998 3.92L6.69998 22.24H17.78L20.78 19.2Z" fill="#65B260"/>
<path d="M39.58 57.12L36.58 60.16C39.4853 61.243 42.3121 62.5261 45.04 64L50 66.72L53 63.68L48 60.98C45.2837 59.5046 42.4706 58.215 39.58 57.12Z" fill="#65B260"/>
<path d="M23.5 52.36L18 51.14L20.1 40.36L17.1 43.38L15.1 54.2L20.54 55.42C22.34 55.82 24.1 56.24 25.8 56.7C18.4889 71.2371 14.396 87.1789 13.8 103.44L13.64 108.96L24.72 109.64L27.7 106.6L16.56 106L16.72 100.48C16.9196 93.5012 17.8174 86.5599 19.4 79.76C19.84 77.76 20.34 75.76 20.9 73.92C22.0295 69.9795 23.3647 66.1008 24.9 62.3C26.06 59.42 27.36 56.54 28.76 53.66C27.06 53.2 25.3 52.78 23.5 52.36V52.36Z" fill="#65B260"/>
<path d="M10 0C12.86 0 67 1.32 71.46 1.4L75.46 11C64.1264 21.5606 54.1861 33.5238 45.88 46.6C48.6565 47.7193 51.3675 48.9947 54 50.42L58.92 53.12L53.84 62.8L48.92 60.1C46.1908 58.623 43.3643 57.3333 40.46 56.24C33.2957 69.8436 29.264 84.8771 28.66 100.24L28.5 105.76L17.42 105.08L17.6 99.56C18.1891 83.2979 22.2824 67.3546 29.6 52.82C27.88 52.38 26.14 51.94 24.34 51.54L18.9 50.32L20.9 39.5L26.34 40.72C29.28 41.38 32.14 42.12 34.86 42.9C41.5579 31.8692 49.4304 21.596 58.34 12.26L21.44 11.62L21.66 18.32H10.58L10 0Z" fill="#85DB90"/>
<path d="M55.42 51.52C53.32 50.38 51 49.28 48.52 48.24C48.4538 48.3578 48.3803 48.4713 48.3 48.58C51.0833 49.6986 53.801 50.974 56.44 52.4L58.32 53.44L58.44 53.18L55.42 51.52Z" fill="white" fill-opacity="0.33"/>
<path d="M72.26 2.5L12.48 1.12C12.1971 1.11979 11.9263 1.23483 11.7301 1.43861C11.5338 1.64238 11.4291 1.91731 11.44 2.2L12 17.44H13L12.46 3.06C12.4486 2.77553 12.5566 2.49924 12.7579 2.29793C12.9592 2.09662 13.2355 1.9886 13.52 2L72.62 3.36L72.26 2.5Z" fill="white" fill-opacity="0.33"/>
<path d="M31.6 54.64C31.1183 54.5231 30.6199 54.7557 30.4 55.2C23.4616 69.3757 19.5713 84.8484 18.98 100.62L18.88 104.26H19.92V101.44C20.5259 85.1803 24.6183 69.2406 31.92 54.7L31.6 54.64Z" fill="white" fill-opacity="0.33"/>
<path d="M36.8 43.3C36.5632 43.6996 36.0863 43.8887 35.64 43.76C33.14 43.04 30.54 42.38 27.86 41.76L23.46 40.78C23.1865 40.7211 22.9009 40.7749 22.6676 40.9292C22.4342 41.0835 22.2729 41.3253 22.22 41.6L20.64 49.76L21.78 50.02L23.24 42.46C23.2975 42.189 23.4607 41.9522 23.6935 41.802C23.9263 41.6518 24.2094 41.6007 24.48 41.66L28.9 42.64C31.56 43.24 34.16 43.9 36.68 44.64C37.1161 44.7772 37.5891 44.5946 37.82 44.2C44.3811 33.42 52.0638 23.3641 60.74 14.2H59.42C59.1218 14.1887 58.8347 14.3138 58.64 14.54C50.4038 23.3615 43.0862 32.9977 36.8 43.3V43.3Z" fill="white" fill-opacity="0.33"/>
</g>
<defs>
<clipPath id="clip0_1_1938">
<rect width="76" height="118" fill="white"/>
</clipPath>
</defs>
</svg>
