<svg width="85" height="121" viewBox="0 0 85 121" fill="none" xmlns="http://www.w3.org/2000/svg">
<path opacity="0.15" d="M82.1 56.12L82 53.56L62.5 53.86C62.4898 38.2289 61.3267 22.6199 59.02 7.15997L58.68 4.63997L51.54 5.33997C46.24 5.79997 43.32 6.03997 41.54 8.27997C39.76 10.52 40.04 13.66 40.88 20.28C42.3748 31.4915 43.1297 42.7893 43.14 54.1C38.66 54.2 35.14 54.36 32.44 54.48C30.24 54.58 28.44 54.66 27.24 54.66H26.08C26.08 54.24 26.24 53.74 26.34 53.3C27.5 47.44 30.2 33.72 17.96 5.07997L16.96 2.71997L14.56 3.67997C4.56 7.67997 1.4 9.07997 0.339998 11.8C-0.208867 13.7739 0.142508 15.8895 1.3 17.58C1.54 18.12 1.84 18.74 2.14 19.44C7.02236 30.5018 8.80595 42.6827 7.3 54.68H4.94L4.18 55.46C3.64 56.02 3.18 56.42 2.82 56.76C0.159997 59.2 0.239998 60.24 0.579998 65.3C0.679998 66.8 0.819998 68.84 0.939998 71.56L1.06 74.1L42.66 73.5C42.12 82.74 41.14 92.04 39.74 101.2H35.74C33.4205 100.911 31.126 101.898 29.74 103.78C29.42 104.14 29.02 104.58 28.5 105.1L27.72 105.9L28 120.6L52.66 120.74C60.82 120.74 64.66 120.36 66.8 118C68.94 115.64 68.68 112.84 68.38 108.38C68.38 107.02 68.2 105.48 68.14 103.72V101.18H58.84C60.26 91.96 61.28 82.58 61.86 73.18H67.5C74.84 73.18 78.54 73.18 80.78 70.8C83.02 68.42 82.66 65.6 82.32 60.14C82.26 58.96 82.18 57.62 82.1 56.12V56.12Z" fill="black"/>
<path d="M52.26 51.44C52.4198 37.2231 51.5576 23.0132 49.68 8.91998L48.94 3.41998L46 6.43998L46.68 12C48.5576 26.0932 49.4198 40.3031 49.26 54.52L52.26 51.44Z" fill="#D5BB2C"/>
<path d="M60.04 65.4L80.48 65.1L83.48 62.06L63.06 62.36L60.04 65.4Z" fill="#D5BB2C"/>
<path d="M12.52 55.02L15.52 52C18.4481 37.9104 16.8884 23.2575 11.06 10.1L8.86 4.95996L5.86 7.99996L8 13.16C13.8454 26.2978 15.4261 40.9372 12.52 55.02Z" fill="#D5BB2C"/>
<path d="M44.98 101.62L48 98.58C50.0654 86.6727 51.4012 74.6503 52 62.58L10 63.14L9.56 52L6.56 55.02L7.06 66.1L48.94 65.48C48.3511 77.5956 47.0287 89.6644 44.98 101.62V101.62Z" fill="#D5BB2C"/>
<path d="M36.7 98.6L33.7 101.64L34.06 112.68H66.38L69.36 109.64H37.06L36.7 98.6Z" fill="#D5BB2C"/>
<path d="M20 0L22.2 5.14C28.5557 19.5157 30.5449 35.4427 27.92 50.94L53.24 50.56C53.3686 36.3274 52.4729 22.104 50.56 8L49.8 2.54L60.8 1.38L61.54 6.9C63.4614 21.3183 64.357 35.8549 64.22 50.4L83.86 50.1L84.36 61.18L64 61.48C63.4575 73.6108 62.1953 85.6988 60.22 97.68H69.96L70.32 108.78H38L37.66 97.7H48.94C51.0064 85.7928 52.3423 73.7704 52.94 61.7L11.08 62.32L10.44 51.2L16.44 51.1C19.3807 37.026 17.8276 22.3839 12 9.24L9.74 4L20 0Z" fill="#F7E367"/>
<path d="M84 51.22L66.68 51.48V52.38L84 52.12V51.22Z" fill="white" fill-opacity="0.33"/>
<path d="M70 98.78H62.7C62.7 99.06 62.6 99.36 62.56 99.66H70V98.78Z" fill="white" fill-opacity="0.33"/>
<path d="M41.06 99.68H50.4C50.9033 99.6779 51.3329 99.3157 51.42 98.82C53.3916 87.1735 54.6606 75.4189 55.22 63.62H54.14C53.5639 75.1431 52.3151 86.6226 50.4 98C50.3129 98.4957 49.8833 98.8579 49.38 98.86H40C39.7189 98.8653 39.4513 98.982 39.2563 99.1846C39.0612 99.3871 38.9546 99.6589 38.96 99.94L39.22 107.94H40.22L40 100.76C39.9946 100.475 40.1039 100.201 40.3033 99.9975C40.5027 99.7944 40.7754 99.6799 41.06 99.68V99.68Z" fill="white" fill-opacity="0.33"/>
<path d="M14 53.16H18C18.4867 53.143 18.8992 52.7965 19 52.32C21.7074 38.4601 20.0803 24.1026 14.34 11.2L12.56 7.03999C12.34 6.49875 12.5994 5.88154 13.14 5.65999L21.3 2.37999L20.84 1.29999L12.12 4.79999C11.8618 4.90223 11.6552 5.10351 11.5462 5.35897C11.4373 5.61443 11.435 5.90286 11.54 6.15999L13.32 10.34C19.0354 23.2208 20.6686 37.5431 18 51.38C17.9044 51.8678 17.477 52.2197 16.98 52.22H12.98C12.7006 52.2252 12.435 52.3426 12.2431 52.5457C12.0512 52.7489 11.9492 53.0207 11.96 53.3L12.32 61.3H13.3L12.98 54.18C12.9906 53.6211 13.4411 53.1706 14 53.16Z" fill="white" fill-opacity="0.33"/>
<path d="M52.26 3.52002C51.9834 3.55007 51.7304 3.68969 51.5575 3.90768C51.3846 4.12567 51.3063 4.40384 51.34 4.68002L52 9.14002C53.8443 22.8947 54.7131 36.7627 54.6 50.64C54.6001 51.2067 54.1466 51.6691 53.58 51.68L30.36 52C30.36 52.3 30.36 52.6 30.22 52.9L54.54 52.54C55.1021 52.5189 55.5498 52.0624 55.56 51.5C55.6731 37.6227 54.8043 23.7547 52.96 10L52.36 5.54002C52.3205 5.26284 52.3966 4.9816 52.5706 4.76223C52.7446 4.54287 53.0011 4.40466 53.28 4.38002L61.28 3.54002L61.16 2.58002L52.26 3.52002Z" fill="white" fill-opacity="0.33"/>
</svg>
