<svg width="72" height="115" viewBox="0 0 72 115" fill="none" xmlns="http://www.w3.org/2000/svg">
<g clip-path="url(#clip0_1_1895)">
<path opacity="0.15" d="M31.7 45.24C27.7151 45.2308 23.7379 45.5923 19.82 46.32C19.82 43.58 19.66 41.22 19.6 39.18C19.2658 34.8678 19.2257 30.5377 19.48 26.22C24.4039 23.8824 29.8116 22.7446 35.26 22.9C39.1503 22.844 43.0249 23.4043 46.74 24.56H46.64C44.6307 25.8133 42.8348 27.3797 41.32 29.2L39.82 30.72L48.7 44L50.88 42.58C59.28 37.1 73.36 27.92 67.34 15.72C63.72 8.40002 52.1 3.46002 38.42 3.46002C25.48 3.46002 13.5 8.00002 5.56001 16.12C-0.679994 22.46 -0.559994 26 0.660006 58.76C0.940006 66.56 1.30001 76.26 1.64001 88C2.20001 107.52 20.92 114.46 36.78 114.46C47.3 114.46 56.92 111.6 61.26 107.2L62.02 106.44C68.96 99.4 68.98 98.44 69.34 81.22C69.34 79.06 69.34 76.6 69.5 73.82C69.9145 67.0312 67.4791 60.3772 62.78 55.46C54 46.58 39.56 45.24 31.7 45.24V45.24ZM20.62 74.16C20.62 71.62 20.48 68.7 20.4 65.36C23.0372 64.8628 25.7164 64.6217 28.4 64.64C38.26 64.64 46.88 67.14 49.32 70.64C50.5 72.84 50.14 86.76 49.62 93.96C46.9143 94.6828 44.12 95.0194 41.32 94.96C34.6 94.96 27.32 93.48 23.84 91.42C20.98 89.64 20.98 89.64 20.62 74.16V74.16Z" fill="black"/>
<path d="M49.7 22.8L46.7 25.84L52.96 35.18L57.52 32.2C59.3004 31.0577 60.9444 29.7157 62.42 28.2L65.42 25.16C63.9347 26.665 62.2919 28.006 60.52 29.16L56 32.14L49.7 22.8Z" fill="#C36117"/>
<path d="M22 17.58L19 20.62L19.6 20C22.24 17.8 29.8 14.98 39 14.98H41.4C49.6 15.42 54.28 18 55.4 19.08C55.1247 19.543 54.7884 19.9668 54.4 20.34L57.4 17.3C57.7879 16.9189 58.1241 16.4885 58.4 16.02C57.3 14.96 52.62 12.38 44.4 12.02L42 12C32.8 12 25.24 14.8 22.6 17.02L22 17.58Z" fill="#C36117"/>
<path d="M57.76 89.3C58.603 88.3171 58.9948 87.0256 58.84 85.74L59.28 68C59.28 64.8 59.28 62.74 58.1 60.94C57.44 59.98 54.58 56.7 45.92 54.8C42.3854 54.0823 38.7867 53.7271 35.18 53.74C31.1144 53.629 27.0588 54.1968 23.18 55.42L21.18 56.2L18.16 59.2L20.16 58.44C24.0352 57.1992 28.0927 56.6244 32.16 56.74C35.768 56.7225 39.3678 57.0845 42.9 57.82C51.56 59.7 54.42 62.98 55.08 63.94C56.34 65.74 56.36 67.8 56.28 71L55.84 88.78C55.8502 89.4511 55.7899 90.1215 55.66 90.78C55.5217 91.4068 55.2098 91.9821 54.76 92.44L57.76 89.3Z" fill="#C36117"/>
<path d="M45.26 103.46C35.78 103.46 25.92 101.08 20.58 97.86C11.14 92.18 10.9 84.38 10.78 79.7L9.14001 24.76C9.02001 20.76 8.84001 14.76 13.94 9.67999L10.94 12.72C5.84001 18 6.00001 23.8 6.14001 27.8L7.78001 82.74C7.92001 87.42 8.14001 95.22 17.58 100.9C22.92 104.12 32.78 106.5 42.26 106.5C46.0632 106.541 49.8554 106.083 53.54 105.14C57.042 104.355 60.2681 102.641 62.88 100.18L65.88 97.14C63.2681 99.6014 60.042 101.315 56.54 102.1C52.8554 103.043 49.0632 103.501 45.26 103.46V103.46Z" fill="#C36117"/>
<path d="M48.84 43.08C57.68 45.08 64.48 48.82 68 53.86C70.6164 57.9732 71.7587 62.8529 71.24 67.7L70.8 85.48C70.68 90.74 69.14 98.08 57.42 101.24C53.7327 102.167 49.9418 102.617 46.14 102.58C36.66 102.58 26.8 100.2 21.46 96.98C12 91.3 11.78 83.5 11.64 78.84L10 23.88C9.88 19.54 9.68 12.98 16.2 7.52C21.66 2.96 32.22 0 42.64 0H45.54C57.12 0.7 66.46 4.92 69.36 10.8C71.08 14.28 72.32 21.18 61.36 28.28L56.78 31.26L50.58 22L55.16 19.02C56.7854 18.1078 58.1863 16.8436 59.26 15.32C58.16 14.24 53.48 11.66 45.26 11.32H42.86C33.66 11.32 26.08 14.14 23.46 16.34C20.84 18.54 20.98 19.78 21.1 24L21.68 43.6C26.2414 42.3636 30.9547 41.7778 35.68 41.86C40.0972 41.8081 44.5077 42.217 48.84 43.08V43.08ZM60.16 67.08C60.16 63.86 60.16 61.8 58.98 60C58.32 59.04 55.44 55.76 46.8 53.88C43.2465 53.1549 39.6265 52.8063 36 52.84C31.9338 52.718 27.8763 53.286 24 54.52L22 55.28L22.68 78.84C22.82 83.06 23.04 85.22 26.92 87.54C30.8 89.86 38.56 91.54 45.8 91.54C48.6295 91.5804 51.4525 91.2578 54.2 90.58C59.58 89.14 59.64 87.28 59.68 84.92L60.16 67.08Z" fill="#E6954D"/>
<path d="M62.14 86.84L62.58 69.06C62.58 65.86 62.58 63.8 61.4 62C60.8649 61.2938 60.2319 60.6675 59.52 60.14C59.831 60.4446 60.1184 60.7722 60.38 61.12C61.62 62.92 61.64 64.98 61.56 68.2L61.12 86C61.12 88.36 61.12 90.22 55.64 91.66C52.8924 92.3367 50.0695 92.6593 47.24 92.62C40 92.62 32.1 90.96 28.34 88.62C27.92 88.36 27.54 88.12 27.2 87.86C27.8534 88.4978 28.5861 89.049 29.38 89.5C33.14 91.76 41.02 93.5 48.26 93.5C51.0895 93.5393 53.9124 93.2167 56.66 92.54C62 91.06 62 89.2 62.14 86.84V86.84Z" fill="white" fill-opacity="0.33"/>
<path d="M36.98 42.86C32.9053 42.8184 28.8391 43.2411 24.86 44.12C24.393 44.2478 24.072 44.6758 24.0799 45.16V45.48C28.6403 44.2358 33.3537 43.6432 38.08 43.72C42.5348 43.7006 46.9792 44.1497 51.34 45.06C56.8989 46.104 62.1418 48.4174 66.66 51.82C61.9629 47.9074 56.3342 45.2756 50.32 44.18C45.9323 43.2713 41.4608 42.8288 36.98 42.86V42.86Z" fill="white" fill-opacity="0.33"/>
<path d="M60.6 16.42C59.5413 17.8992 58.1772 19.1337 56.6 20.04L52.9 22.46C52.4264 22.7812 52.3012 23.4247 52.62 23.9L56.94 30.36L57.24 30.16L53.64 24.78C53.4815 24.5534 53.4217 24.2721 53.4745 24.0006C53.5273 23.7291 53.6881 23.4907 53.92 23.34L57.62 20.92C58.8947 20.1396 60.0586 19.1911 61.08 18.1C61.2933 17.8822 61.3931 17.5775 61.35 17.2757C61.3069 16.9739 61.1258 16.7094 60.86 16.56L60.6 16.42Z" fill="white" fill-opacity="0.33"/>
<path d="M14 80.8L12.42 25.86C12.3 21.52 12.1 14.96 18.62 9.50002C24 4.94002 34.64 2.00002 45.06 2.00002H47.96C56.36 2.46002 63.6 4.80002 67.96 8.32002C63.68 4.32002 55.96 1.62002 46.86 1.11991C45.9 1.11991 44.86 1.11991 43.98 1.11991C33.62 1.10002 23.04 4.00002 17.6 8.62002C11.08 14.08 11.28 20.62 11.4 24.98L13.04 80C12.9162 83.9577 13.8628 87.8755 15.78 91.34C15.8088 91.3961 15.8422 91.4496 15.88 91.5C16.3267 92.031 16.8006 92.5383 17.3 93.02C14.9964 89.3711 13.8464 85.1125 14 80.8V80.8Z" fill="white" fill-opacity="0.33"/>
</g>
<defs>
<clipPath id="clip0_1_1895">
<rect width="72" height="115" fill="white"/>
</clipPath>
</defs>
</svg>
