<svg width="57" height="80" viewBox="0 0 57 80" fill="none" xmlns="http://www.w3.org/2000/svg">
<path d="M29.2656 79.2764C-1.9343 79.3555 -6.22478 34.4247 7.17062 12.8006C19.1128 -5.80511 47.1789 -3.59816 54.356 15.9774L34.9994 22.143C35.0206 22.2453 35.0609 22.3426 35.1181 22.43C32.7949 19.461 27.5455 19.461 24.2436 23.7661C64.9735 18.6693 68.2259 77.9304 29.2656 79.2764V79.2764ZM20.8626 46.7263C22.3949 59.1267 28.4747 61.3337 34.5447 56.8307C42.1667 45.6475 27.931 39.8778 20.912 46.7263H20.8626Z" fill="#F07894"/>
<path d="M29.2656 69.8943C7.51663 70.2308 5.28241 34.8899 14.5752 18.5802C21.4953 6.33805 40.2785 6.27867 45.4291 18.8177L43.9264 19.3026C29.4139 -2.52934 8.49533 20.6189 11.036 41.0753C42.918 11.6723 64.7461 66.47 29.2656 69.8943V69.8943ZM11.125 43.4702C12.1136 74.3577 38.4101 73.467 44.9941 57.4839C51.1332 29.6149 19.2314 29.9712 11.1546 43.4801L11.125 43.4702Z" fill="#F2F2DA"/>
</svg>
