<svg width="58" height="85" viewBox="0 0 58 85" fill="none" xmlns="http://www.w3.org/2000/svg">
<path d="M28.4615 84.7297C15.2067 84.6894 3.5876 75.8494 0 63.0754L19.4357 57.1374C31.0714 79.1871 48.9846 46.0037 24.5368 49.2201C8.07678 53.0699 5.17033 30.0404 21.3239 29.1299C37.4676 24.8447 23.5284 14.1662 22.9649 24.1816L2.96577 27.7642C-0.197718 -16.4243 63.8036 -3.10342 46.5428 34.4246C66.6606 50.002 56.4485 84.8678 28.4615 84.7297Z" fill="#F6D394"/>
<path d="M28.4813 75.3573C20.6319 75.3573 12.1794 70.9334 8.96651 60.344L10.4791 59.8887C13.8996 71.0323 23.8942 75.0999 32.1193 73.4273C57.447 66.2325 46.1474 33.5142 20.6912 40.2736L20.4836 38.7099C20.6121 38.7099 21.4722 38.5219 22.7376 38.3734C63.2698 25.3791 14.9178 -9.269 13.7414 25.7948L12.1893 26.0719C13.7809 -11.0603 62.0241 21.1236 28.7087 38.1656C55.4401 38.7594 52.6424 75.4462 28.4813 75.3573V75.3573Z" fill="#F2F2DA"/>
</svg>
