<svg width="57" height="80" viewBox="0 0 57 80" fill="none" xmlns="http://www.w3.org/2000/svg">
<path d="M26.1353 79.2982C16.5064 79.6149 4.8707 72.2815 2.30036 63.1963L21.657 57.0307C21.5976 56.8526 21.5482 56.7536 21.5482 56.7437C23.8615 59.7127 29.1109 59.7127 32.4227 55.4176C-14.3475 59.9601 -8.10949 -9.72211 35.6949 1.15429C68.3678 11.7041 61.7344 80.1196 26.1353 79.2982V79.2982ZM27.4896 20.2746C11.6722 23.4217 23.8516 43.1655 35.8432 32.4871C33.6486 23.0655 33.3322 20.9674 27.4896 20.2746V20.2746Z" fill="#F9BB51"/>
<path d="M26.1056 69.9261C20.7277 70.2329 12.6212 65.5715 11.2768 60.356L12.7794 59.881C27.2919 81.713 48.2105 58.5548 45.6698 38.1084C15.4881 66.4227 -7.62509 16.4446 25.0083 9.40811C55.5063 4.99421 53.9838 70.599 26.1056 69.9261V69.9261ZM27.3908 10.8629C13.5505 10.952 6.63038 25.5297 13.3923 37.3364C22.2896 52.0033 42.5063 41.879 45.5017 35.6936C44.6713 22.3925 39.8075 10.7343 27.3908 10.8629V10.8629Z" fill="#F1839C"/>
</svg>
