<svg width="55" height="82" viewBox="0 0 55 82" fill="none" xmlns="http://www.w3.org/2000/svg">
<path d="M25.8129 81.7463C15.5513 82.0333 3.89584 75.5015 0.900408 65.0704L20.257 58.9048C24.765 65.5059 38.9117 58.2021 31.8532 51.2052C22.6098 45.3464 8.1962 54.5305 2.32398 45.0495C0.129308 41.0909 0.979495 39.8538 0.722462 37.8349C1.1179 24.2765 -2.24331 9.04553 2.8677 4.18628C6.60457 -1.83088 38.4569 1.27667 44.1315 0L44.7345 20.3178L20.6327 21.0403L20.8205 28.7201C66.0683 27.7799 62.5093 80.9545 25.8129 81.7463V81.7463Z" fill="#EF6D8B"/>
<path d="M25.8129 72.3741C18.9916 72.3741 11.9726 69.1973 9.80761 62.23L11.3103 61.755C34.4136 94.6514 69.7953 31.3327 10.1338 40.5663L9.41217 10.4013L44.3885 9.36218V10.9357L10.9939 11.9254L11.6266 38.6463C55.9154 32.1047 50.7056 72.3345 25.8129 72.3741V72.3741Z" fill="#AB1829"/>
</svg>
