<svg width="56" height="82" viewBox="0 0 56 82" fill="none" xmlns="http://www.w3.org/2000/svg">
<path d="M10.4989 81.0538C-25.9702 70.2565 45.2379 41.8235 33.2365 20.3973C29.0251 20.5853 28.422 20.5457 28.1057 25.4841H7.80004C8.18559 11.5299 14.7202 3.06825 27.5718 0.475328C48.5003 -3.33488 58.2181 16.5277 54.2638 32.6691C51.8912 43.8424 43.8144 52.1556 36.1923 60.5182L52.4645 60.3896L52.6227 80.7173L10.4989 81.0538Z" fill="#D6AF69"/>
<path d="M8.30422 71.7015C83.2591 11.1439 17.3004 -3.70102 18.7338 25.4842H17.1521C17.1521 16.7256 21.6205 10.6392 29.8753 9.64955C50.6356 7.67022 48.5695 34.3912 36.6768 45.802C29.2939 54.5092 21.2599 62.6414 12.6441 70.1279L52.4645 69.8112V71.3947L8.30422 71.7015Z" fill="#F7B7C6"/>
</svg>
