<svg width="67" height="117" viewBox="0 0 67 117" fill="none" xmlns="http://www.w3.org/2000/svg">
<g clip-path="url(#clip0_1_1980)">
<path opacity="0.15" d="M31.84 3.49912C23.0196 3.43599 14.5571 6.98429 8.42003 13.32C-1.25997 23.16 -0.119975 78.96 0.220025 90C0.780025 108 17.58 116.22 34 116.22C40.98 116.22 47.26 114.7 50.78 112.22C59.62 105.82 59.76 103.68 62.24 67.98C62.86 59.28 63.6 48.44 64.66 34.98C65 30.52 65.54 23.76 60.98 17.26C56.16 10.42 44.6 3.49912 31.84 3.49912V3.49912ZM19.56 86.86C18.94 66.86 19.56 40.04 22.78 23.74C24.3975 23.3086 26.0662 23.1001 27.74 23.12C35.34 23.12 42.84 26.9 44.72 29.56C45.88 31.22 45.84 32.44 43.42 62.2C42.7 71.02 41.78 82.2 40.66 96.72C39.6381 96.8445 38.6095 96.9046 37.58 96.9002C34.8883 96.8962 32.2053 96.5944 29.58 96C19.76 93.76 19.68 91.16 19.56 86.86V86.86Z" fill="black"/>
<path d="M35.88 12H35.62C32.307 11.9685 29.0259 12.6506 26 14C25.5865 14.2138 25.2087 14.4904 24.88 14.82L21.88 17.86C22.2087 17.5304 22.5865 17.2538 23 17.04C26.0382 15.6849 29.3335 15.0027 32.66 15.04H32.92L34.92 15.4C43.68 17.02 48.66 20.26 50.42 22.74C52.18 25.22 51.88 27.46 51.58 31.34L46.58 94.26C46.621 94.7817 46.4558 95.2987 46.12 95.7L49.12 92.66C49.4371 92.2486 49.5999 91.739 49.58 91.22L54.5 28.3C54.8 24.42 54.9 21.92 53.32 19.7C51.74 17.48 46.6 14 37.84 12.36L35.88 12Z" fill="#65B260"/>
<path d="M41.42 105.34C37.6927 105.329 33.9776 104.913 30.3401 104.1C20.2201 101.78 15.2801 97.46 12.9201 94.26C10.4011 90.5625 9.1453 86.1497 9.34005 81.68C8.56005 55.02 9.64005 34.56 12.9001 15.34C13.2691 12.1517 14.6744 9.17256 16.9001 6.85999L13.8001 9.99999C11.6669 12.3131 10.3346 15.2512 10.0001 18.38C6.64005 37.6 5.56005 58 6.36005 84.72C6.16827 89.1982 7.4466 93.6161 10.0001 97.3C12.3601 100.52 17.3001 104.82 27.4201 107.14C31.0576 107.953 34.7727 108.369 38.5 108.38C41.2455 108.416 43.9853 108.12 46.66 107.5C48.1791 107.145 49.6498 106.608 51.0401 105.9C51.6636 105.592 52.2591 105.231 52.82 104.82C53.08 104.62 53.36 104.42 53.6 104.2L54.32 103.54L57.32 100.5C55.1918 102.524 52.5376 103.91 49.66 104.5C46.9577 105.113 44.1906 105.395 41.42 105.34V105.34Z" fill="#65B260"/>
<path d="M63.2 12.64C67.2 18.34 66.76 24.28 66.42 28.64L61.5 91.54C61 97.94 57.38 101.88 50.46 103.54C47.7853 104.16 45.0455 104.456 42.3 104.42C38.5735 104.415 34.8584 104.006 31.22 103.2C21.08 100.88 16.14 96.56 13.8 93.34C11.2789 89.6586 10.0224 85.2576 10.22 80.8C9.44004 54.14 10.52 33.68 13.76 14.48C14.2198 9.77743 16.9854 5.61036 21.14 3.36C25.4886 1.04958 30.357 -0.107253 35.28 -2.78186e-06C46.1 -2.78186e-06 57.66 4.76 63.2 12.64V12.64ZM55.36 27.42C55.66 23.54 55.78 21.04 54.2 18.82C52.62 16.6 47.46 13.1 38.7 11.48L36.7 11.12H36.46C33.1335 11.0827 29.8383 11.7649 26.8 13.12C25.18 14.04 25 14.68 24.66 16.72C21.54 35.2 20.48 54.98 21.26 80.88C21.052 83.0445 21.5276 85.2198 22.62 87.1C23.24 87.92 25.82 90.8 33.32 92.52C36.1729 93.1272 39.0834 93.4223 42 93.4C43.8829 93.425 45.7623 93.2304 47.6 92.82C50.4 92.12 50.46 91.56 50.54 90.34L55.36 27.42Z" fill="#85DB90"/>
<path d="M36.68 1.09997C31.757 0.992722 26.8886 2.14956 22.54 4.45997C18.3854 6.71033 15.6198 10.8774 15.16 15.58C12 34.78 10.82 55.24 11.62 82C11.4875 85.9105 12.4061 89.7851 14.28 93.22L14.4 93.38C14.8539 93.9298 15.3415 94.4508 15.86 94.94C13.5998 91.3568 12.4772 87.1733 12.64 82.94C11.84 56.28 12.94 35.82 16.18 16.6C16.6462 11.9047 19.4109 7.74646 23.56 5.49997C27.8956 3.14091 32.7647 1.93569 37.7001 1.99997C46.2053 1.97757 54.4751 4.7928 61.2001 9.99997C54.347 4.20856 45.6523 1.05265 36.68 1.09997V1.09997Z" fill="white" fill-opacity="0.33"/>
<path d="M54.7601 18.9V19C55.0547 19.2811 55.3225 19.5891 55.5601 19.92C57.1401 22.14 57.0201 24.64 56.7201 28.52L51.8401 91.44C51.7401 92.68 51.7001 93.24 48.9001 93.92C47.0621 94.3293 45.1829 94.5239 43.3001 94.5C40.4272 94.4876 37.564 94.1657 34.7601 93.54C31.5287 92.9232 28.4627 91.6355 25.7601 89.76C28.6083 92.189 32.0662 93.7934 35.7601 94.4C38.5624 95.035 41.4266 95.357 44.3001 95.36C46.2155 95.3975 48.1286 95.2096 50.0001 94.8C52.8001 94.1 52.8401 93.54 52.9401 92.32L57.7801 29.4C58.0801 25.52 58.2001 23.02 56.6201 20.8C56.091 20.0836 55.465 19.4441 54.7601 18.9V18.9Z" fill="white" fill-opacity="0.33"/>
</g>
<defs>
<clipPath id="clip0_1_1980">
<rect width="67" height="117" fill="white"/>
</clipPath>
</defs>
</svg>
