<svg width="53" height="84" viewBox="0 0 53 84" fill="none" xmlns="http://www.w3.org/2000/svg">
<path d="M26.7947 83.039C2.29747 83.1673 -7.88501 53.2794 6.81532 37.1974C-4.77095 22.0061 5.9157 0.0157159 24.8769 0.0157159L25.1537 10.1796L24.8769 0.0157159C45.1331 -0.667152 52.6167 21.056 43.7787 35.3863C62.2258 52.2799 50.8175 83.0287 26.7947 83.039V83.039ZM25.9445 48.3014C19.5187 51.4585 19.6176 53.804 21.1696 59.3659C29.8989 70.935 39.073 51.2902 25.9445 48.3212V48.3014ZM25.6183 20.3335C21.4761 20.2642 21.3773 24.2922 24.4617 26.2715C25.8259 25.8558 28.0898 23.0353 26.8442 20.5315C26.4527 20.3848 26.036 20.3175 25.6183 20.3335V20.3335Z" fill="#F6D394"/>
<path d="M26.8442 73.6567C5.5005 73.0233 3.2564 43.9668 22.9689 37.5339C6.72635 32.6351 7.883 10.1004 25.124 9.38789V10.1796V9.38789C42.3848 9.17016 41.6335 32.1996 27.2099 37.2172C49.5422 41.8489 48.4449 72.5483 26.8442 73.6567V73.6567ZM25.1833 38.2465C4.91723 44.8179 7.73472 68.9261 24.4518 71.8951C49.0776 73.241 46.092 40.4633 25.1833 38.2465V38.2465ZM25.6579 10.9615C7.41837 11.9511 10.6313 33.8425 25.0548 36.5443C39.1719 32.1996 41.416 11.8818 25.6084 10.9615H25.6579Z" fill="#EF6D8B"/>
</svg>
