<svg width="61" height="80" viewBox="0 0 61 80" fill="none" xmlns="http://www.w3.org/2000/svg">
<path d="M30.3527 79.6342C-10.7331 79.7727 -9.49734 -0.785933 30.3527 0.00579787C71.656 -0.716657 70.4302 81.7224 30.3527 79.6342ZM30.3527 20.3335C16.2752 19.9079 16.9178 65.2247 33.6546 58.8512C43.0561 56.9709 43.0956 18.7896 30.3527 20.3335V20.3335Z" fill="#D6AF69"/>
<path d="M30.3527 70.262C-0.155163 69.9156 3.6608 2.50963 34.4554 9.77376C57.5192 12.5448 57.9344 72.2315 30.3527 70.262V70.262ZM30.3527 10.9614C2.41517 11.0603 5.63797 74.478 33.6052 68.4509C55.7298 67.5207 55.7694 9.45707 30.3527 10.9614Z" fill="#F9BB51"/>
</svg>
