<svg width="101" height="138" viewBox="0 0 101 138" fill="none" xmlns="http://www.w3.org/2000/svg">
<path fill-rule="evenodd" clip-rule="evenodd" d="M51.9421 88.1351C48.8681 88.1731 46.0811 86.9511 44.0961 84.9771C42.1961 83.1151 41.0231 80.5571 40.9941 77.7411C40.9751 76.3101 41.2611 74.9351 41.7771 73.6851C43.3791 69.8671 47.2171 67.1561 51.7221 67.1091C57.7061 67.0421 62.6131 71.7091 62.6701 77.5031C62.7361 83.3161 57.9351 88.0691 51.9421 88.1351ZM52.6481 32.8161C56.6951 32.7681 60.0261 36.1181 60.0641 40.3181C60.1121 44.5081 56.8571 47.9441 52.8101 47.9821C48.7631 48.0301 45.4421 44.6601 45.3941 40.4801C45.3461 36.2811 48.6011 32.8541 52.6481 32.8161ZM100.735 94.8581C100.81 91.1551 99.3371 87.2511 97.3491 84.0141C97.0201 82.4441 96.6241 80.9241 96.1611 79.4691C95.5661 77.5711 94.8681 75.7801 94.1061 74.0881C94.3451 74.0741 94.5861 74.0561 94.8291 74.0221C95.6561 73.9051 96.0311 72.9021 95.8681 72.1921C95.1361 69.0211 92.4231 66.8771 89.4211 65.8321C88.5211 64.5371 87.6151 63.3441 86.7311 62.2701C82.7421 57.4021 79.2681 54.8351 79.2681 54.8351C79.2681 54.8351 83.4831 51.1081 85.5331 43.9521C85.5891 43.9991 85.6451 44.0541 85.7001 44.0981C86.3891 44.6581 87.2121 44.4161 87.5451 43.6111C88.4121 41.5121 87.7161 39.3461 86.5961 37.4091C86.6341 36.5771 86.6361 35.7151 86.6031 34.8261C87.0871 35.1621 87.5631 35.4361 87.9941 35.6301C89.1051 36.1291 90.3781 35.3231 90.0701 34.0341C89.5811 31.9931 88.5981 30.2191 87.2681 28.6111C86.7301 27.9621 86.0201 27.1771 85.2291 26.5161C82.0251 16.2521 72.6631 9.24412 61.9651 6.94312C60.3721 2.40812 54.3561 -0.301883 51.9541 0.500117C49.5201 1.31012 52.5321 5.59512 52.5321 5.59512C52.5321 5.59512 47.9001 2.00611 45.5841 3.62712C43.7321 4.92312 45.9461 6.36412 46.9111 6.89112C46.9021 6.89312 46.8951 6.89512 46.8861 6.89712C45.4991 6.26212 41.1301 4.44512 40.2551 6.29012C39.7141 7.43412 40.9251 7.98112 42.2131 8.24512C38.7651 9.52312 35.4821 11.3851 32.5381 13.9081C28.7071 17.1981 26.2451 20.9611 24.7281 24.8431C24.7191 24.8481 24.7091 24.8481 24.6991 24.8541C21.6291 26.8151 17.4491 31.9431 19.5601 35.8991C20.1181 36.9471 20.7551 37.4191 21.4051 37.5171C21.2371 38.7181 21.2061 39.9281 21.3351 41.0871C21.4951 42.5211 22.2641 43.9371 23.3841 44.5901C24.5141 50.7561 26.5151 55.0831 26.5151 55.0831C26.5151 55.0831 18.7871 58.6291 12.1831 66.4021C11.4611 66.2981 10.6221 66.4261 10.0931 66.5251C8.51808 66.8211 6.83108 68.0401 5.83008 69.2471C5.26408 69.9271 5.20808 70.9711 5.91108 71.5501C3.30808 72.7771 1.87208 76.7731 1.78108 79.2691C1.76008 79.8161 2.20108 80.4731 2.76708 80.5651C3.34008 80.6581 3.88908 80.6721 4.42008 80.6261C3.46208 83.9311 2.90608 87.5731 2.95008 91.5811C2.96008 92.0001 2.96908 92.4301 2.96908 92.8601C2.99108 93.4341 3.04508 93.9921 3.08408 94.5591C2.89108 94.6281 2.71308 94.7611 2.58408 94.9911C0.625079 98.5061 -0.077921 103.522 1.34208 107.351C1.83008 108.664 3.30008 108.774 4.11708 107.714C4.57408 107.121 4.90208 106.485 5.15308 105.818C5.17208 105.881 5.19708 105.941 5.21608 106.004C4.58108 110.063 3.23408 115.049 6.81708 117.889C7.62708 118.53 8.60708 118.451 9.21408 117.58C9.47908 117.2 9.72408 116.76 9.94808 116.283C12.3851 120.185 15.3761 123.649 18.8501 126.561C26.0571 132.603 35.2771 136.354 45.5081 137.079C59.0311 138.027 73.3171 134.025 83.6191 125.476C83.6231 125.557 83.6261 125.641 83.6291 125.718C83.7041 126.847 84.9341 127.768 86.0031 127.08C88.2181 125.655 89.6681 122.993 90.8241 120.709C91.5081 119.355 92.5061 117.282 92.3491 115.537C93.4401 113.782 94.3901 111.917 95.2061 109.959C96.0601 110.156 96.9831 109.974 97.6451 109.253C99.4831 107.257 99.7821 104.222 99.4331 101.641C99.2091 99.9801 98.8821 98.0001 98.2671 96.1861C98.4391 96.2411 98.6131 96.2961 98.7991 96.3321C99.7801 96.5191 100.713 95.9101 100.735 94.8581Z" fill="#449A9E"/>
<path fill-rule="evenodd" clip-rule="evenodd" d="M49.0329 20.6791C49.0789 24.2511 46.2199 27.1811 42.6479 27.2271C39.0779 27.2701 36.1469 24.4141 36.1019 20.8421C36.0549 17.2721 38.9169 14.3401 42.4859 14.2951C46.0579 14.2511 48.9869 17.1091 49.0329 20.6791Z" fill="white"/>
<path fill-rule="evenodd" clip-rule="evenodd" d="M44.6111 20.6878C44.6311 22.0408 43.6691 23.1498 42.4641 23.1658C41.2571 23.1808 40.2691 22.0948 40.2511 20.7428C40.2341 19.3908 41.1961 18.2808 42.4031 18.2658C43.6051 18.2508 44.5971 19.3348 44.6111 20.6878Z" fill="#1E120D"/>
<path fill-rule="evenodd" clip-rule="evenodd" d="M76.2196 22.0086C76.2415 25.5806 73.3655 28.4926 69.7935 28.5157C66.2225 28.5366 63.3105 25.6606 63.2874 22.0896C63.2655 18.5186 66.1435 15.6056 69.7145 15.5825C73.2845 15.5606 76.1985 18.4386 76.2196 22.0086Z" fill="white"/>
<path fill-rule="evenodd" clip-rule="evenodd" d="M71.7986 21.9896C71.8096 23.3426 70.8396 24.4446 69.6336 24.4526C68.4266 24.4606 67.4456 23.3686 67.4386 22.0156C67.4296 20.6626 68.3986 19.5606 69.6066 19.5526C70.8086 19.5466 71.7916 20.6366 71.7986 21.9896Z" fill="#1E120D"/>
<path fill-rule="evenodd" clip-rule="evenodd" d="M52.3366 21.6307C52.3366 21.6307 52.3516 21.6747 52.3806 21.7587C52.4136 21.8437 52.4616 21.9687 52.5236 22.1277C52.6506 22.4447 52.8516 22.8927 53.1376 23.3707C53.2886 23.6037 53.4556 23.8467 53.6506 24.0717C53.8536 24.2887 54.0666 24.5087 54.3176 24.6697C54.5586 24.8497 54.8416 24.9517 55.1256 25.0597C55.1996 25.0827 55.2786 25.0907 55.3546 25.1097L55.4696 25.1337L55.5266 25.1467L55.5546 25.1527L55.5626 25.1547L55.5656 25.1557C55.6286 25.1627 55.4846 25.1477 55.5016 25.1487L55.5216 25.1507L56.1506 25.1967C56.3936 25.2337 56.4696 25.1777 56.6336 25.1817C56.7746 25.1897 56.9246 25.1447 57.0726 25.1077C57.2286 25.0847 57.3616 25.0297 57.4936 24.9717C57.6376 24.9317 57.7486 24.8437 57.8686 24.7697C58.3436 24.4627 58.6996 23.9677 58.9456 23.4807C59.4276 22.4887 59.5506 21.6537 59.5566 21.6937C59.5566 21.4157 59.7816 21.1907 60.0596 21.1907C60.3376 21.1907 60.5636 21.4157 60.5636 21.6937C60.5636 21.6937 60.5676 21.7557 60.5796 21.8717C60.5866 21.9827 60.6066 22.1417 60.6006 22.3437C60.5976 22.7477 60.5666 23.3287 60.3586 24.0237C60.2506 24.3697 60.1076 24.7477 59.8796 25.1237C59.6466 25.4937 59.3566 25.8887 58.9506 26.1977C58.7486 26.3527 58.5436 26.5147 58.3026 26.6197C58.0686 26.7417 57.8296 26.8617 57.5726 26.9137C57.3186 26.9837 57.0656 27.0547 56.7836 27.0647C56.5286 27.0817 56.1846 27.1247 56.0056 27.0957L55.3766 27.0417L55.3576 27.0397L55.2766 27.0297L55.2656 27.0267L55.2176 27.0167L55.1216 26.9947L54.9296 26.9497C54.8026 26.9177 54.6746 26.8927 54.5516 26.8507C54.0576 26.6747 53.5926 26.4257 53.2186 26.1057C52.8226 25.8057 52.5366 25.4327 52.2966 25.0807C52.0556 24.7257 51.8886 24.3687 51.7556 24.0357C51.4976 23.3707 51.4066 22.7977 51.3646 22.3987C51.3416 22.1977 51.3406 22.0397 51.3376 21.9277V21.7557C51.3386 21.4767 51.5656 21.2507 51.8446 21.2507C52.0656 21.2507 52.2536 21.3927 52.3216 21.5897L52.3366 21.6307Z" fill="#1E120D"/>
<path fill-rule="evenodd" clip-rule="evenodd" d="M35.3708 46.6463C34.4908 46.4073 33.6438 46.1903 33.3518 45.2433C33.1168 44.4853 33.2418 43.5643 33.4038 42.7713C33.4208 42.6913 33.4368 42.6123 33.4518 42.5343C33.4578 42.5063 33.4628 42.4753 33.4688 42.4483C33.4678 42.4483 33.4658 42.4483 33.4648 42.4473C33.4738 42.3933 33.4828 42.3373 33.4898 42.2843C33.5758 41.5903 32.4138 41.4423 32.2748 42.1193C32.2438 42.2723 32.2128 42.4263 32.1828 42.5813C31.9738 43.4103 31.4888 44.4963 30.8168 43.3863C30.0258 42.0783 30.9318 40.5503 31.3508 39.2893C31.4908 38.8713 30.9638 38.6643 30.6788 38.8973C29.0808 40.2053 28.1628 43.5393 30.1808 44.9473C30.8818 45.4383 31.4768 45.4403 31.9638 45.1743C32.0008 45.4993 32.0698 45.8223 32.1878 46.1413C32.7048 47.5333 34.0658 47.9113 35.3708 47.4653C35.7578 47.3343 35.7948 46.7613 35.3708 46.6463Z" fill="#427B83"/>
<path fill-rule="evenodd" clip-rule="evenodd" d="M81.5388 37.5209C81.3798 37.3339 81.0538 37.4389 80.9968 37.6639C80.7918 38.4789 81.0108 39.2179 81.1568 40.0339C81.3118 40.8989 81.5358 41.7229 81.1678 42.5809C80.5348 44.0539 79.6018 42.6279 79.3438 41.8639C79.0628 41.0389 77.7758 41.3759 78.0268 42.2269C78.7398 44.6479 78.4628 46.5489 76.4208 48.1319C76.0848 48.3929 76.3568 49.0419 76.7758 48.9909C79.2118 48.6969 79.9048 46.6419 79.8238 44.5389C80.4298 44.8379 81.1198 44.8109 81.8158 44.1369C83.5808 42.4299 83.0318 39.2689 81.5388 37.5209Z" fill="#427B83"/>
<path fill-rule="evenodd" clip-rule="evenodd" d="M38.615 53.6878C38.368 53.0028 38.305 52.3168 38.33 51.5898C38.345 51.1278 37.725 51.0008 37.497 51.3638C36.623 52.7498 36.506 55.3688 38.465 55.8928C38.781 55.9778 39.101 55.7368 39.102 55.4078C39.104 54.7358 38.836 54.2978 38.615 53.6878Z" fill="#427B83"/>
<path fill-rule="evenodd" clip-rule="evenodd" d="M42.3806 56.0013C42.2396 55.5823 42.1026 55.2363 41.8656 54.8593C41.5786 54.4043 41.4506 54.0503 41.4656 53.4993C41.4806 52.9373 40.6856 52.8693 40.5206 53.3713C40.3116 54.0113 40.2736 54.6553 40.4656 55.3053C40.6696 55.9933 41.1796 56.3383 41.8176 56.5653C42.1406 56.6803 42.4876 56.3203 42.3806 56.0013Z" fill="#427B83"/>
<path fill-rule="evenodd" clip-rule="evenodd" d="M77.237 63.3905C76.551 63.9315 77.271 63.2025 77.225 67.9335C73.944 63.5535 74.75 80.0765 76.992 69.7155C78.883 69.2515 79.772 67.2515 77.237 63.3905Z" fill="#427B83"/>
<path fill-rule="evenodd" clip-rule="evenodd" d="M86.6081 77.8089C86.5791 77.7599 86.5041 77.7809 86.5041 77.8369C86.4941 78.7459 86.4211 79.6549 86.3061 80.5559C86.1991 81.4089 86.0161 82.1539 86.5731 82.8799C86.8351 83.2209 87.2391 83.2219 87.5001 82.8799C88.5401 81.5209 87.3651 79.0859 86.6081 77.8089Z" fill="#427B83"/>
<path fill-rule="evenodd" clip-rule="evenodd" d="M84.8112 83.1908C84.3522 82.4248 83.3412 82.9698 83.4612 83.7598C83.6422 84.9538 83.3182 86.1148 83.5692 87.3098C83.6892 87.8798 84.4312 87.8728 84.7132 87.4588C85.5962 86.1698 85.6112 84.5288 84.8112 83.1908Z" fill="#427B83"/>
<path fill-rule="evenodd" clip-rule="evenodd" d="M17.6521 78.1693C17.0791 76.5303 16.5551 75.4533 17.3401 73.7093C17.7101 72.8863 16.7881 72.1053 16.0791 72.7353C16.0461 72.7683 16.0061 72.7923 15.9711 72.8233C16.0701 72.5133 16.1901 72.2063 16.2841 71.9193C16.6101 70.9083 16.9871 69.8923 17.3711 68.9033C17.5571 68.4223 16.8601 68.0663 16.5291 68.4143C15.2841 69.7233 14.1801 71.8393 14.0211 73.6663C13.9671 74.2863 14.1791 74.9923 14.8531 75.1773C15.0021 75.2183 15.1451 75.2203 15.2881 75.2073C15.0061 76.8083 15.1611 78.4953 16.9781 78.8433C17.3551 78.9153 17.8011 78.5943 17.6521 78.1693Z" fill="#427B83"/>
<path fill-rule="evenodd" clip-rule="evenodd" d="M27.322 81.4125C28.188 76.2935 18.012 75.8285 25.049 80.0005C24.975 80.1535 26.092 83.2015 27.322 81.4125Z" fill="#427B83"/>
<path fill-rule="evenodd" clip-rule="evenodd" d="M16.154 93.0589C15.301 94.2709 14.585 96.2269 16.114 97.1899C16.411 97.3759 16.905 97.2089 16.968 96.8419C17.061 96.3039 17.127 95.8859 17.075 95.3319C17.016 94.6989 17.028 94.1169 17.196 93.4979C17.376 92.8439 16.514 92.5469 16.154 93.0589Z" fill="#427B83"/>
<path fill-rule="evenodd" clip-rule="evenodd" d="M19.862 96.3783C19.617 95.5223 19.534 94.6043 19.195 93.7793C19.131 93.6223 18.933 93.6173 18.87 93.7793C18.286 95.2853 18.514 97.4633 19.333 98.8383C19.576 99.2473 20.232 99.0793 20.229 98.5963C20.224 97.8263 20.074 97.1153 19.862 96.3783Z" fill="#427B83"/>
<path fill-rule="evenodd" clip-rule="evenodd" d="M44.0866 112.853C41.0506 108.902 29.7736 102.872 38.9476 110.31C38.2476 111.947 44.3836 115.99 44.0866 112.853Z" fill="#427B83"/>
<path fill-rule="evenodd" clip-rule="evenodd" d="M89.0798 105.994C89.0368 107.49 88.8478 108.99 88.5998 110.465C88.4398 111.408 88.2168 112.35 87.9438 113.267C87.4158 115.048 86.5198 113.948 85.9078 112.835C85.5538 112.191 84.6098 112.642 84.7618 113.319C85.2458 115.486 84.5588 117.5 82.3688 118.393C81.7638 118.64 81.9928 119.454 82.6378 119.364C85.0218 119.029 86.1048 117.132 86.1888 115.031C87.1408 115.737 88.1848 115.727 89.0068 114.092C90.1778 111.757 90.2568 108.563 90.2428 105.994C90.2378 105.242 89.1008 105.245 89.0798 105.994Z" fill="#427B83"/>
<path fill-rule="evenodd" clip-rule="evenodd" d="M75.4089 100.395C75.2859 99.2509 75.0839 97.8649 74.4679 96.8809C74.4249 96.8119 74.3299 96.8299 74.3039 96.9019C73.9709 97.8469 74.0599 98.9079 73.9729 99.8989C73.8709 101.077 73.7209 102.185 73.8429 103.369C73.8939 103.87 74.5829 104.167 74.8639 103.645C75.4369 102.58 75.5379 101.59 75.4089 100.395Z" fill="#427B83"/>
<path fill-rule="evenodd" clip-rule="evenodd" d="M38.5114 128.588C35.5594 128.109 33.7544 125.789 33.1684 122.959C32.9934 122.118 31.8694 122.274 31.6204 122.959C30.4974 126.052 28.1844 123.591 27.9764 121.503C27.9084 120.818 27.0654 120.718 26.8124 121.345C25.3594 124.949 30.1284 127.642 32.2884 125.234C33.3894 127.807 35.1564 129.88 38.3604 129.708C38.9694 129.676 39.1764 128.696 38.5114 128.588Z" fill="#427B83"/>
<path fill-rule="evenodd" clip-rule="evenodd" d="M5.11399 91.3587C3.48799 93.2357 1.32699 95.4497 1.58799 98.1187C1.63399 98.5857 2.26399 98.8457 2.52499 98.3737C3.12999 97.2797 3.46499 96.1217 3.93699 94.9717C4.41699 93.8087 4.91199 92.6647 5.30099 91.4677C5.33499 91.3637 5.18699 91.2737 5.11399 91.3587Z" fill="#427B83"/>
<path fill-rule="evenodd" clip-rule="evenodd" d="M5.48999 102.507C4.14199 102.768 4.08499 113.402 6.44999 105.662C5.48999 105.536 8.88599 103.845 5.48999 102.507Z" fill="#427B83"/>
<path fill-rule="evenodd" clip-rule="evenodd" d="M7.2097 107.872C7.1887 107.763 7.0187 107.767 6.9937 107.872C6.7567 108.904 6.1597 110.028 6.5187 111.099C6.6347 111.447 7.0857 111.432 7.2077 111.099C7.5787 110.096 7.4107 108.897 7.2097 107.872Z" fill="#427B83"/>
<path fill-rule="evenodd" clip-rule="evenodd" d="M27.3728 28.4618C27.5118 27.7158 28.2298 27.2698 28.3598 26.5418C28.3618 26.5308 28.3588 26.5228 28.3498 26.5168C27.3428 25.8138 25.9108 27.3048 25.5798 28.1698C25.0238 29.6158 25.6508 31.1338 27.2058 31.4778C27.7428 31.5968 28.3098 31.0128 27.9638 30.4918C27.5398 29.8558 27.2298 29.2248 27.3728 28.4618Z" fill="#427B83"/>
<path fill-rule="evenodd" clip-rule="evenodd" d="M67.3884 58.5912C66.9714 58.0722 66.2354 58.7322 66.5104 59.2692C67.2544 60.7222 67.6714 62.3462 68.0484 63.9282C68.1904 64.5202 69.1634 64.5582 69.2794 63.9282C69.6594 61.8342 68.6684 60.1792 67.3884 58.5912Z" fill="#427B83"/>
</svg>
