<svg width="139" height="194" viewBox="0 0 139 194" fill="none" xmlns="http://www.w3.org/2000/svg">
<path d="M0 0H138.85V193.77H0V0Z" fill="#FFE1E3"/>
<path d="M0 0H138.85V193.77H0V0Z" fill="#FFE1E3"/>
<path d="M0 0H138.85V193.77H0V0Z" fill="#FFE1E3"/>
<path d="M36.0048 56.8896V26.3442H42.3585V37.8286H42.5524C42.8308 37.2121 43.2335 36.5857 43.7605 35.9493C44.2974 35.303 44.9934 34.7661 45.8486 34.3385C46.7136 33.901 47.7875 33.6823 49.0701 33.6823C50.7406 33.6823 52.2818 34.1198 53.6937 34.9948C55.1057 35.8598 56.2342 37.1673 57.0794 38.9173C57.9246 40.6574 58.3471 42.8399 58.3471 45.4649C58.3471 48.0203 57.9345 50.178 57.1092 51.9379C56.2939 53.6879 55.1802 55.0154 53.7683 55.9202C52.3663 56.8151 50.7953 57.2625 49.0552 57.2625C47.8223 57.2625 46.7733 57.0587 45.9082 56.651C45.0531 56.2433 44.3521 55.7313 43.8052 55.1148C43.2584 54.4884 42.8407 53.857 42.5524 53.2206H42.269V56.8896H36.0048ZM42.2243 45.4351C42.2243 46.7973 42.4132 47.9855 42.791 48.9997C43.1689 50.0139 43.7157 50.8044 44.4317 51.3712C45.1476 51.928 46.0176 52.2064 47.0417 52.2064C48.0758 52.2064 48.9508 51.923 49.6667 51.3563C50.3826 50.7796 50.9245 49.9841 51.2924 48.9699C51.6703 47.9458 51.8592 46.7675 51.8592 45.4351C51.8592 44.1127 51.6753 42.9493 51.3074 41.945C50.9395 40.9408 50.3976 40.1553 49.6817 39.5885C48.9657 39.0217 48.0858 38.7384 47.0417 38.7384C46.0076 38.7384 45.1326 39.0118 44.4167 39.5587C43.7108 40.1056 43.1689 40.8811 42.791 41.8854C42.4132 42.8896 42.2243 44.0729 42.2243 45.4351ZM72.9375 57.3371C70.6208 57.3371 68.6172 56.8449 66.9269 55.8605C65.2465 54.8662 63.9489 53.4841 63.0341 51.7142C62.1193 49.9344 61.6619 47.8712 61.6619 45.5246C61.6619 43.1581 62.1193 41.0899 63.0341 39.32C63.9489 37.5402 65.2465 36.1581 66.9269 35.1737C68.6172 34.1794 70.6208 33.6823 72.9375 33.6823C75.2543 33.6823 77.2529 34.1794 78.9333 35.1737C80.6236 36.1581 81.9261 37.5402 82.8409 39.32C83.7557 41.0899 84.2131 43.1581 84.2131 45.5246C84.2131 47.8712 83.7557 49.9344 82.8409 51.7142C81.9261 53.4841 80.6236 54.8662 78.9333 55.8605C77.2529 56.8449 75.2543 57.3371 72.9375 57.3371ZM72.9673 52.4152C74.0213 52.4152 74.9013 52.1169 75.6073 51.5203C76.3132 50.9138 76.8452 50.0885 77.2031 49.0445C77.571 48.0004 77.755 46.8122 77.755 45.4798C77.755 44.1475 77.571 42.9593 77.2031 41.9152C76.8452 40.8712 76.3132 40.0459 75.6073 39.4394C74.9013 38.8328 74.0213 38.5296 72.9673 38.5296C71.9034 38.5296 71.0085 38.8328 70.2827 39.4394C69.5668 40.0459 69.0249 40.8712 68.657 41.9152C68.299 42.9593 68.12 44.1475 68.12 45.4798C68.12 46.8122 68.299 48.0004 68.657 49.0445C69.0249 50.0885 69.5668 50.9138 70.2827 51.5203C71.0085 52.1169 71.9034 52.4152 72.9673 52.4152ZM91.5288 65.4806C90.7234 65.4806 89.9677 65.4159 89.2617 65.2867C88.5657 65.1673 87.989 65.0132 87.5316 64.8243L88.9634 60.0814C89.7092 60.3101 90.3803 60.4344 90.9769 60.4543C91.5835 60.4742 92.1055 60.335 92.543 60.0367C92.9904 59.7384 93.3533 59.2313 93.6318 58.5154L94.0046 57.5459L85.7866 33.9806H92.4684L97.2113 50.8044H97.4499L102.238 33.9806H108.964L100.06 59.3655C99.6325 60.5985 99.0508 61.6723 98.315 62.5871C97.5891 63.5118 96.6694 64.2227 95.5558 64.7199C94.4421 65.227 93.0998 65.4806 91.5288 65.4806Z" fill="#88A1B5"/>
<path d="M48.09 95.6804C45.5225 101.822 38.4669 104.726 32.32 102.17C26.37 99.5304 25.97 93.3204 28.73 87.0904C31.49 80.8604 36.36 77.0004 42.31 79.6304C48.3349 82.4694 50.9215 89.652 48.09 95.6804V95.6804Z" fill="#88A1B5"/>
<path d="M91.63 95.6804C94.1975 101.822 101.253 104.726 107.4 102.17C113.4 99.5304 113.75 93.3204 110.99 87.0904C108.23 80.8604 103.36 77.0004 97.41 79.6304C91.3851 82.4694 88.7985 89.652 91.63 95.6804Z" fill="#88A1B5"/>
<path d="M96.82 95.1801C99 98.7601 100.49 102.11 104.69 98.3201C107.69 95.6401 107.87 92.4201 105.69 88.8301C103.51 85.2401 100.29 83.3501 96.81 85.3401C91.93 88.1401 94.64 91.5901 96.82 95.1801V95.1801Z" fill="#F5FFFB"/>
<path d="M42.3401 93.8407C44.8401 90.4707 47.3401 87.8407 42.2701 85.3707C38.6601 83.6307 35.6001 84.6607 33.1101 88.0307C30.6201 91.4007 30.1101 95.1107 33.2501 97.5807C37.6801 101.001 39.8501 97.2107 42.3401 93.8407Z" fill="#F5FFFB"/>
<path d="M95.18 159.51C94.25 169.19 83.53 175.51 69.37 175.51C55.21 175.51 43.72 167.63 43.72 157.9C43.72 139.9 55.21 126.08 69.37 126.08C83.53 126.08 96.84 142.25 95.18 159.51Z" fill="#ABCBE4"/>
<path d="M103.12 119.73C101.9 131.34 87.8499 138.9 69.2899 138.9C50.7299 138.9 35.6899 129.43 35.6899 117.76C35.6899 96.2001 50.6899 79.5801 69.2899 79.5801C87.8899 79.5801 105.29 99.0001 103.12 119.73V119.73Z" fill="#ABCBE4"/>
<path d="M56.43 110C56.43 111.845 54.9346 113.34 53.09 113.34C51.2454 113.34 49.75 111.845 49.75 110C49.75 108.156 51.2454 106.66 53.09 106.66C54.9346 106.66 56.43 108.156 56.43 110V110Z" fill="#5D5256"/>
<path d="M53.9201 110.201C54.6049 110.201 55.1601 109.646 55.1601 108.961C55.1601 108.276 54.6049 107.721 53.9201 107.721C53.2352 107.721 52.6801 108.276 52.6801 108.961C52.6801 109.646 53.2352 110.201 53.9201 110.201Z" fill="#F5FFFB"/>
<path d="M88.51 110C88.51 111.845 87.0146 113.34 85.17 113.34C83.3253 113.34 81.83 111.845 81.83 110C81.83 108.156 83.3253 106.66 85.17 106.66C86.0566 106.658 86.9077 107.009 87.5346 107.636C88.1616 108.262 88.5126 109.114 88.51 110V110Z" fill="#5D5256"/>
<path d="M87.25 109.001C87.2922 109.469 87.0664 109.92 86.6669 110.167C86.2674 110.414 85.7627 110.414 85.3632 110.167C84.9637 109.92 84.7379 109.469 84.78 109.001C84.8376 108.362 85.3733 107.872 86.015 107.872C86.6568 107.872 87.1925 108.362 87.25 109.001Z" fill="#F5FFFB"/>
<path d="M69.1301 133.631C76.1441 133.631 81.8301 129.132 81.8301 123.581C81.8301 118.031 76.1441 113.531 69.1301 113.531C62.116 113.531 56.4301 118.031 56.4301 123.581C56.4301 129.132 62.116 133.631 69.1301 133.631Z" fill="#F5FFFB"/>
<path d="M52.51 159.66C52.51 149.32 59.96 140.94 69.16 140.94C78.36 140.94 85.8 149.32 85.8 159.66C85.8 170 78.35 174.36 69.16 174.36C59.97 174.36 52.51 170 52.51 159.66Z" fill="#F5FFFB"/>
<path d="M76.37 116.35C76.37 119.26 73.13 122.69 69.13 122.69C65.13 122.69 61.89 119.26 61.89 116.35C61.89 113.44 65.13 112.62 69.13 112.62C73.13 112.62 76.37 113.45 76.37 116.35Z" fill="#5D5256"/>
<path d="M80.9199 161.831C78.283 167.357 80.6186 173.974 86.1399 176.621C91.5999 179.071 96.1399 175.541 98.6699 169.831C101.2 164.121 100.91 158.411 95.4599 155.951C92.7521 154.802 89.6989 154.776 86.9721 155.879C84.2453 156.982 82.0683 159.123 80.9199 161.831V161.831Z" fill="#88A1B5"/>
<path d="M82.1999 166.07C81.3221 167.953 81.2295 170.107 81.9424 172.058C82.6553 174.01 84.1152 175.597 85.9999 176.47C89.8799 178.21 93.0499 175.75 94.8599 171.75C96.6699 167.75 96.3999 163.75 92.5199 162C90.6128 161.162 88.4498 161.12 86.5118 161.884C84.5738 162.649 83.0214 164.156 82.1999 166.07V166.07Z" fill="#F5FFFB"/>
<path d="M56.34 161.831C57.6092 164.484 57.7722 167.533 56.7932 170.307C55.8143 173.08 53.7735 175.352 51.12 176.621C45.66 179.071 41.12 175.541 38.59 169.831C36.06 164.121 36.35 158.411 41.81 156.001C47.4323 153.604 53.9336 156.212 56.34 161.831Z" fill="#88A1B5"/>
<path d="M55.07 166.071C56.8962 169.984 55.2095 174.637 51.3 176.471C47.43 178.211 44.3 175.751 42.45 171.751C40.6 167.751 40.91 163.751 44.78 162.001C46.6841 161.174 48.8385 161.139 50.7686 161.903C52.6987 162.666 54.2461 164.165 55.07 166.071V166.071Z" fill="#F5FFFB"/>
<path d="M69.13 122.69V128.19" stroke="#5D5256" stroke-width="0.25"/>
<path d="M72.93 126.53C72.93 127.45 71.23 128.19 69.13 128.19C67.03 128.19 65.33 127.45 65.33 126.53" stroke="#5D5256" stroke-width="0.25"/>
<path d="M71.81 114.06C71.81 114.35 70.61 114.59 69.13 114.59C67.65 114.59 66.45 114.35 66.45 114.06C66.45 113.77 67.65 113.53 69.13 113.53C70.61 113.53 71.81 113.77 71.81 114.06Z" fill="#F5FFFB"/>
<path d="M26.33 148.87C25.64 146.04 27.74 141.7 35.78 139.74C43.82 137.78 49.26 139.45 49.95 142.28C50.64 145.11 46.31 148 38.27 150C30.23 152 27 151.7 26.33 148.87V148.87Z" fill="#88A1B5"/>
<path d="M112 148.87C112.69 146.04 110.59 141.7 102.55 139.74C94.51 137.78 89.07 139.45 88.39 142.28C87.71 145.11 92 148 100 150C108 152 111.29 151.7 112 148.87Z" fill="#88A1B5"/>
<path d="M11.3199 101.07C11.1142 101.422 11.1142 101.858 11.3199 102.21C11.5963 102.406 11.9091 102.546 12.2399 102.62C12.7149 102.781 13.2092 102.879 13.7099 102.91C15.261 103.015 16.8167 103.035 18.3699 102.97C19.2877 103.015 20.2072 102.927 21.0999 102.71C21.5699 102.54 22.3699 102.37 22.5499 101.87C22.6599 101.59 22.2699 101.24 22.0099 101.07C21.7499 100.9 21.2599 101.07 20.8799 100.92C20.9001 100.625 20.9855 100.338 21.1299 100.08C21.3297 99.6345 21.3297 99.1251 21.1299 98.6798C20.9303 98.2287 20.6489 97.8185 20.2999 97.4698C19.9674 97.2363 19.589 97.0761 19.1899 96.9998C18.4359 96.8066 17.635 96.9727 17.0199 97.4498C16.6699 97.7898 16.1599 98.4498 16.2399 98.9598C16.4299 98.2098 14.2399 98.1798 13.8099 98.3498C13.3047 98.5713 12.8816 98.9454 12.5999 99.4198C12.4651 99.8187 12.4651 100.251 12.5999 100.65C12.6999 100.7 11.6199 100.66 11.3199 101.07V101.07Z" fill="#F5FFFB"/>
<path d="M18 158.6C18.1786 158.909 18.1786 159.29 18 159.6C17.7568 159.77 17.4811 159.89 17.19 159.95C16.7698 160.094 16.333 160.185 15.89 160.22C14.52 160.32 13.16 160.3 11.78 160.27C10.9699 160.304 10.1589 160.227 9.37 160.04C8.96 159.89 8.26 159.74 8.09 159.3C8 159.05 8.34 158.74 8.58 158.59C8.82 158.44 9.24 158.59 9.58 158.46C9.56737 158.199 9.49189 157.945 9.36 157.72C9.185 157.325 9.185 156.874 9.36 156.48C9.53612 156.084 9.78359 155.725 10.09 155.42C10.391 155.22 10.7326 155.09 11.09 155.04C11.7527 154.868 12.4575 155.012 13 155.43C13.31 155.73 13.76 156.32 13.69 156.77C13.52 156.1 15.45 156.08 15.83 156.23C16.2775 156.421 16.6523 156.75 16.9 157.17C17.0145 157.52 17.0145 157.899 16.9 158.25C16.77 158.27 17.72 158.24 18 158.6V158.6Z" fill="#F5FFFB"/>
<path d="M14.73 125.69C14.4653 126.144 14.4653 126.705 14.73 127.16C15.0812 127.418 15.4835 127.599 15.91 127.69C16.5249 127.896 17.1632 128.023 17.81 128.07C19.8073 128.2 21.81 128.227 23.81 128.15C24.9935 128.203 26.1785 128.088 27.33 127.81C27.93 127.59 28.96 127.37 29.2 126.73C29.34 126.37 28.84 125.91 28.5 125.73C28.16 125.55 27.5 125.73 27.04 125.54C27.0598 125.158 27.1731 124.787 27.37 124.46C27.6297 123.884 27.6297 123.225 27.37 122.65C27.141 122.043 26.802 121.483 26.37 121C25.9223 120.711 25.4173 120.524 24.89 120.45C23.9173 120.195 22.8816 120.41 22.09 121.03C21.63 121.47 20.98 122.33 21.09 123.03C21.33 122.03 18.51 122.03 17.95 122.24C17.2947 122.519 16.7474 123.003 16.39 123.62C16.2155 124.135 16.2155 124.694 16.39 125.21C16.51 125.21 15.12 125.16 14.73 125.69V125.69Z" fill="#F5FFFB"/>
<path d="M14.34 131.12L15 132.4C15.0444 132.491 15.1302 132.555 15.23 132.57L16.64 132.77C16.7528 132.79 16.8454 132.871 16.881 132.979C16.9166 133.088 16.8893 133.208 16.81 133.29L15.81 134.29C15.7365 134.359 15.7027 134.461 15.72 134.56L15.96 135.97C15.9824 136.085 15.9364 136.202 15.842 136.271C15.7477 136.339 15.622 136.347 15.52 136.29L14.25 135.62C14.161 135.58 14.059 135.58 13.97 135.62L12.7 136.29C12.5979 136.347 12.4723 136.339 12.3779 136.271C12.2835 136.202 12.2375 136.085 12.26 135.97L12.51 134.56C12.5223 134.461 12.4892 134.362 12.42 134.29L11.42 133.29C11.3407 133.208 11.3134 133.088 11.349 132.979C11.3846 132.871 11.4772 132.79 11.59 132.77L13.01 132.57C13.1085 132.552 13.1931 132.489 13.24 132.4L13.87 131.12C13.9269 131.049 14.0134 131.007 14.105 131.007C14.1965 131.007 14.2831 131.049 14.34 131.12V131.12Z" fill="#50B5DF"/>
<path d="M26.3199 169.36L26.9499 170.64C26.9955 170.728 27.0816 170.788 27.1799 170.8L28.5999 171.01C28.7127 171.03 28.8054 171.11 28.841 171.219C28.8765 171.328 28.8492 171.447 28.7699 171.53L27.7699 172.53C27.7007 172.602 27.6676 172.701 27.6799 172.8L27.9299 174.21C27.9469 174.325 27.8978 174.44 27.8029 174.508C27.708 174.575 27.5832 174.584 27.4799 174.53L26.2199 173.86C26.1333 173.81 26.0266 173.81 25.9399 173.86L24.6699 174.53C24.5675 174.579 24.4467 174.567 24.3551 174.501C24.2634 174.434 24.2154 174.323 24.2299 174.21L24.4699 172.8C24.4873 172.701 24.4534 172.599 24.3799 172.53L23.3799 171.53C23.3007 171.447 23.2734 171.328 23.3089 171.219C23.3445 171.11 23.4372 171.03 23.5499 171.01L24.9599 170.8C25.0597 170.792 25.1474 170.731 25.1899 170.64L25.8199 169.36C25.8783 169.28 25.9712 169.233 26.0699 169.233C26.1687 169.233 26.2616 169.28 26.3199 169.36V169.36Z" fill="#50B5DF"/>
<path d="M51.2346 19.2306V30.1396H48.9281V19.2306H51.2346ZM57.4415 21.9578V23.6624H52.5143V21.9578H57.4415ZM53.6329 19.9976H55.9021V27.6254C55.9021 27.835 55.9341 27.9983 55.998 28.1155C56.0619 28.2291 56.1507 28.309 56.2643 28.3552C56.3815 28.4014 56.5165 28.4244 56.6692 28.4244C56.7757 28.4244 56.8822 28.4156 56.9888 28.3978C57.0953 28.3765 57.177 28.3605 57.2338 28.3499L57.5907 30.0384C57.4771 30.074 57.3172 30.1148 57.1113 30.161C56.9053 30.2107 56.655 30.2409 56.3602 30.2515C55.8133 30.2728 55.3339 30.2 54.922 30.0331C54.5136 29.8662 54.1958 29.607 53.9685 29.2554C53.7413 28.9039 53.6294 28.46 53.6329 27.9237V19.9976ZM60.8586 20.9031L61.9879 18.4795H64.0866L62.462 20.9031H60.8586ZM73.1833 24.2909L71.1059 24.4188C71.0704 24.2412 70.994 24.0814 70.8768 23.9394C70.7596 23.7938 70.6052 23.6784 70.4134 23.5931C70.2252 23.5044 69.9997 23.46 69.7369 23.46C69.3853 23.46 69.0888 23.5345 68.8473 23.6837C68.6059 23.8293 68.4851 24.0246 68.4851 24.2696C68.4851 24.4649 68.5633 24.6301 68.7195 24.765C68.8758 24.8999 69.1439 25.0083 69.5238 25.0899L71.0047 25.3882C71.8001 25.5516 72.3932 25.8144 72.7838 26.1766C73.1744 26.5388 73.3697 27.0146 73.3697 27.6041C73.3697 28.1404 73.2117 28.6109 72.8956 29.0157C72.5831 29.4205 72.1535 29.7366 71.6066 29.9639C71.0633 30.1876 70.4365 30.2994 69.7263 30.2994C68.6432 30.2994 67.7802 30.074 67.1375 29.623C66.4983 29.1684 66.1236 28.5505 66.0135 27.7693L68.2454 27.6521C68.3129 27.9823 68.4763 28.2345 68.7355 28.4085C68.9947 28.5789 69.3267 28.6642 69.7316 28.6642C70.1293 28.6642 70.4489 28.5878 70.6904 28.4351C70.9354 28.2789 71.0597 28.0782 71.0633 27.8332C71.0597 27.6272 70.9727 27.4585 70.8022 27.3271C70.6318 27.1922 70.369 27.0892 70.0139 27.0182L68.597 26.7359C67.798 26.5761 67.2032 26.2991 66.8125 25.9049C66.4255 25.5107 66.2319 25.0083 66.2319 24.3975C66.2319 23.8719 66.374 23.4191 66.6581 23.0392C66.9457 22.6592 67.3488 22.3662 67.8672 22.1602C68.3892 21.9543 69 21.8513 69.6996 21.8513C70.733 21.8513 71.5462 22.0697 72.1392 22.5065C72.7358 22.9433 73.0839 23.5381 73.1833 24.2909ZM80.6034 30.2941C80.0814 30.2941 79.6162 30.2036 79.2078 30.0225C78.7994 29.8378 78.4763 29.5661 78.2383 29.2075C78.004 28.8453 77.8868 28.3943 77.8868 27.8545C77.8868 27.3999 77.9702 27.0182 78.1371 26.7093C78.304 26.4003 78.5313 26.1517 78.8189 25.9635C79.1066 25.7753 79.4333 25.6333 79.7991 25.5374C80.1684 25.4415 80.5554 25.374 80.9603 25.335C81.4361 25.2852 81.8196 25.2391 82.1108 25.1965C82.402 25.1503 82.6133 25.0828 82.7447 24.9941C82.8761 24.9053 82.9418 24.7739 82.9418 24.5999V24.5679C82.9418 24.2306 82.8353 23.9695 82.6222 23.7849C82.4127 23.6002 82.1144 23.5079 81.7273 23.5079C81.3189 23.5079 80.994 23.5985 80.7525 23.7796C80.5111 23.9571 80.3513 24.1808 80.2731 24.4507L78.1744 24.2803C78.2809 23.7831 78.4905 23.3534 78.803 22.9912C79.1155 22.6254 79.5185 22.3449 80.0121 22.1496C80.5093 21.9507 81.0846 21.8513 81.738 21.8513C82.1925 21.8513 82.6275 21.9046 83.043 22.0111C83.462 22.1176 83.8331 22.2828 84.1563 22.5065C84.483 22.7302 84.7405 23.0178 84.9287 23.3694C85.1169 23.7174 85.211 24.1347 85.211 24.6212V30.1396H83.059V29.0051H82.9951C82.8637 29.2607 82.6879 29.4862 82.4677 29.6816C82.2476 29.8733 81.983 30.0242 81.6741 30.1343C81.3651 30.2409 81.0082 30.2941 80.6034 30.2941ZM81.2532 28.7281C81.587 28.7281 81.8818 28.6624 82.1375 28.531C82.3932 28.396 82.5938 28.2149 82.7394 27.9877C82.885 27.7604 82.9578 27.5029 82.9578 27.2153V26.347C82.8868 26.3932 82.7891 26.4358 82.6648 26.4749C82.5441 26.5104 82.4074 26.5441 82.2547 26.5761C82.102 26.6045 81.9493 26.6311 81.7966 26.656C81.6439 26.6773 81.5054 26.6968 81.3811 26.7146C81.1147 26.7536 80.8821 26.8158 80.6833 26.901C80.4844 26.9862 80.3299 27.1017 80.2199 27.2472C80.1098 27.3893 80.0547 27.5669 80.0547 27.7799C80.0547 28.0889 80.1666 28.325 80.3903 28.4884C80.6176 28.6482 80.9052 28.7281 81.2532 28.7281Z" fill="#ABCBE4"/>
<path d="M120.36 16.9109C120.154 17.263 120.154 17.6987 120.36 18.0509C120.636 18.2474 120.949 18.3868 121.28 18.4609C121.756 18.6211 122.25 18.7219 122.75 18.7609C124.3 18.8809 125.85 18.8509 127.41 18.8209C128.328 18.8626 129.248 18.7717 130.14 18.5509C130.61 18.3909 131.41 18.2109 131.59 17.7209C131.7 17.4409 131.31 17.0809 131.05 16.9109C130.79 16.7409 130.3 16.9109 129.92 16.7609C129.938 16.4686 130.024 16.1845 130.17 15.9309C130.37 15.4822 130.37 14.9696 130.17 14.5209C129.969 14.0734 129.688 13.6666 129.34 13.3209C128.996 13.0946 128.607 12.9446 128.2 12.8809C127.446 12.6923 126.647 12.858 126.03 13.3309C125.68 13.6709 125.17 14.3309 125.25 14.8509C125.44 14.0909 123.25 14.0709 122.82 14.2309C122.315 14.4524 121.892 14.8266 121.61 15.3009C121.475 15.6998 121.475 16.132 121.61 16.5309C121.74 16.5509 120.66 16.5009 120.36 16.9109V16.9109Z" fill="#F5FFFB"/>
<path d="M30.1201 11.9304C29.9144 12.2826 29.9144 12.7183 30.1201 13.0704C30.3918 13.2686 30.7017 13.4082 31.0301 13.4804C31.5061 13.6397 31.9998 13.7404 32.5001 13.7804C34.0601 13.9004 35.6101 13.8704 37.1701 13.8404C38.0849 13.8766 39.0003 13.7858 39.8901 13.5704C40.3601 13.4104 41.1601 13.2304 41.3501 12.7404C41.4501 12.4604 41.0701 12.1004 40.8001 11.9304C40.5301 11.7604 40.0501 11.9304 39.6701 11.7804C39.7161 11.4978 39.8293 11.2303 40.0001 11.0004C40.2003 10.5517 40.2003 10.0391 40.0001 9.59042C39.7963 9.14465 39.5153 8.7384 39.1701 8.39042C38.822 8.14097 38.4221 7.97346 38.0001 7.90042C37.246 7.71183 36.4471 7.87752 35.8301 8.35042C35.4801 8.69042 34.9701 9.35042 35.0501 9.87042C35.2501 9.11042 33.0501 9.09042 32.6201 9.25042C32.1149 9.47191 31.6918 9.8461 31.4101 10.3204C31.2849 10.7209 31.2849 11.15 31.4101 11.5504C31.5001 11.5604 30.4301 11.5204 30.1201 11.9304V11.9304Z" fill="#F5FFFB"/>
<path d="M105.83 28.1708C106.009 28.4802 106.009 28.8614 105.83 29.1708C105.586 29.3427 105.311 29.465 105.02 29.5308C104.599 29.672 104.163 29.7593 103.72 29.7908C102.352 29.8775 100.98 29.8942 99.61 29.8408C98.8031 29.8804 97.9948 29.8029 97.21 29.6108C96.8 29.4608 96.09 29.3108 95.93 28.8708C95.83 28.6308 96.17 28.3108 96.41 28.1608C96.65 28.0108 97.07 28.1608 97.41 28.0308C97.3974 27.77 97.3219 27.5162 97.19 27.2908C97.0155 26.8994 97.0155 26.4522 97.19 26.0608C97.3585 25.6711 97.5918 25.3127 97.88 25.0008C98.181 24.8014 98.5226 24.6716 98.88 24.6208C99.5442 24.4475 100.251 24.5955 100.79 25.0208C101.194 25.3494 101.444 25.831 101.48 26.3508C101.31 25.6908 103.24 25.6608 103.62 25.8108C104.066 26.0054 104.44 26.3339 104.69 26.7508C104.805 27.1051 104.805 27.4865 104.69 27.8408C104.61 27.8508 105.56 27.8108 105.83 28.1708V28.1708Z" fill="#F5FFFB"/>
<path d="M130.54 155.261C130.719 155.57 130.719 155.951 130.54 156.261C130.298 156.437 130.022 156.559 129.73 156.621C129.313 156.763 128.879 156.85 128.44 156.881C127.069 156.973 125.693 156.989 124.32 156.931C123.513 156.97 122.705 156.893 121.92 156.701C121.51 156.551 120.8 156.401 120.64 155.961C120.55 155.721 120.88 155.401 121.12 155.251C121.36 155.101 121.78 155.251 122.12 155.121C122.107 154.863 122.032 154.613 121.9 154.391C121.725 153.996 121.725 153.546 121.9 153.151C122.08 152.755 122.327 152.393 122.63 152.081C122.931 151.882 123.273 151.752 123.63 151.701C124.294 151.528 125.001 151.676 125.54 152.101C125.943 152.431 126.192 152.912 126.23 153.431C126.06 152.771 127.99 152.741 128.37 152.891C128.818 153.083 129.192 153.412 129.44 153.831C129.555 154.185 129.555 154.567 129.44 154.921C129.33 154.941 130.27 154.901 130.54 155.261V155.261Z" fill="#F5FFFB"/>
<path d="M127.73 91.4506C127.909 91.76 127.909 92.1412 127.73 92.4506C127.488 92.6263 127.212 92.749 126.92 92.8106C126.499 92.9517 126.063 93.0391 125.62 93.0706C124.251 93.1406 122.879 93.1406 121.51 93.0706C120.703 93.1101 119.895 93.0326 119.11 92.8406C118.7 92.6906 117.99 92.5406 117.83 92.1006C117.73 91.8606 118.07 91.5406 118.31 91.3906C118.55 91.2406 118.97 91.3906 119.31 91.2606C119.297 91.0029 119.222 90.7523 119.09 90.5306C118.915 90.1357 118.915 89.6854 119.09 89.2906C119.27 88.8943 119.517 88.5323 119.82 88.2206C120.121 88.0212 120.463 87.8914 120.82 87.8406C121.484 87.6672 122.191 87.8153 122.73 88.2406C123.133 88.5707 123.382 89.0514 123.42 89.5706C123.25 88.9106 125.18 88.8806 125.56 89.0306C126.006 89.2251 126.38 89.5537 126.63 89.9706C126.745 90.3248 126.745 90.7063 126.63 91.0606C126.51 91.1306 127.46 91.0906 127.73 91.4506V91.4506Z" fill="#F5FFFB"/>
<path d="M21.79 25.5101C21.9687 25.8195 21.9687 26.2007 21.79 26.5101C21.5504 26.6892 21.2736 26.8122 20.98 26.8701C20.5631 27.0121 20.1295 27.0995 19.69 27.1301C18.3186 27.2218 16.9433 27.2385 15.57 27.1801C14.763 27.2251 13.9538 27.1476 13.17 26.9501C12.76 26.8101 12.05 26.6501 11.89 26.2101C11.8 25.9701 12.13 25.6601 12.37 25.5101C12.61 25.3601 13.03 25.5101 13.37 25.3801C13.359 25.119 13.2834 24.8648 13.15 24.6401C12.975 24.2453 12.975 23.7949 13.15 23.4001C13.3296 23.0039 13.5766 22.6419 13.88 22.3301C14.1852 22.139 14.525 22.0098 14.88 21.9501C15.5443 21.7815 16.2492 21.9291 16.79 22.3501C17.1925 22.6802 17.4419 23.161 17.48 23.6801C17.31 23.0201 19.24 23.0001 19.63 23.1401C20.0808 23.3521 20.4522 23.7024 20.69 24.1401C20.8046 24.491 20.8046 24.8692 20.69 25.2201C20.58 25.1901 21.52 25.1601 21.79 25.5101V25.5101Z" fill="#F5FFFB"/>
<path d="M112.82 53.6907C112.556 54.1486 112.556 54.7128 112.82 55.1707C113.173 55.4238 113.575 55.6009 114 55.6907C114.614 55.9009 115.253 56.032 115.9 56.0807C117.9 56.2307 119.9 56.2007 121.9 56.1507C123.084 56.2092 124.27 56.0947 125.42 55.8107C126.03 55.6007 127.06 55.3707 127.3 54.7307C127.43 54.3707 126.94 53.9107 126.6 53.7307C126.26 53.5507 125.6 53.7307 125.14 53.5407C125.161 53.1594 125.275 52.7889 125.47 52.4607C125.73 51.8853 125.73 51.2261 125.47 50.6507C125.21 50.0705 124.848 49.5421 124.4 49.0907C123.953 48.7995 123.448 48.6085 122.92 48.5307C121.947 48.2795 120.913 48.4937 120.12 49.1107C119.66 49.5507 119 50.4207 119.12 51.1107C119.37 50.1107 116.54 50.1107 115.98 50.3107C115.33 50.599 114.786 51.081 114.42 51.6907C114.25 52.2071 114.25 52.7644 114.42 53.2807C114.61 53.2207 113.22 53.1707 112.82 53.6907V53.6907Z" fill="#F5FFFB"/>
<path d="M58.1401 69.4901C57.8757 69.948 57.8757 70.5122 58.1401 70.9701C58.4962 71.2265 58.9012 71.4069 59.3301 71.5001C59.9428 71.7013 60.5772 71.8288 61.2201 71.8801C63.2201 72.0401 65.2201 72.0001 67.2201 71.9601C68.4035 72.0132 69.5886 71.8987 70.7401 71.6201C71.3401 71.4001 72.3701 71.1801 72.6101 70.5401C72.7501 70.1801 72.2501 69.7201 71.9101 69.5401C71.5701 69.3601 70.9101 69.5401 70.4501 69.3501C70.4698 68.9685 70.5832 68.5976 70.7801 68.2701C71.0351 67.6902 71.0351 67.0299 70.7801 66.4501C70.5116 65.8723 70.1463 65.3447 69.7001 64.8901C69.2544 64.5977 68.7485 64.4096 68.2201 64.3401C67.2505 64.0858 66.2179 64.3005 65.4301 64.9201C64.9701 65.3501 64.3101 66.2201 64.4301 66.9201C64.6701 65.9201 61.8501 65.9201 61.2901 66.1301C60.6327 66.4065 60.0846 66.8914 59.7301 67.5101C59.5556 68.0257 59.5556 68.5844 59.7301 69.1001C59.9201 69.0001 58.5301 69.0001 58.1401 69.4901V69.4901Z" fill="#F5FFFB"/>
<path d="M110 130.47C109.74 130.929 109.74 131.491 110 131.95C110.358 132.202 110.762 132.379 111.19 132.47C111.804 132.68 112.443 132.811 113.09 132.86C115.09 133.01 117.09 132.98 119.09 132.93C120.274 132.989 121.46 132.874 122.61 132.59C123.21 132.38 124.25 132.15 124.49 131.51C124.62 131.15 124.13 130.69 123.78 130.51C123.43 130.33 122.78 130.51 122.33 130.32C122.348 129.939 122.457 129.569 122.65 129.24C122.91 128.665 122.91 128.005 122.65 127.43C122.39 126.85 122.028 126.321 121.58 125.87C121.133 125.579 120.628 125.388 120.1 125.31C119.127 125.059 118.093 125.273 117.3 125.89C116.84 126.33 116.18 127.2 116.3 127.89C116.55 126.89 113.72 126.89 113.16 127.09C112.51 127.378 111.965 127.86 111.6 128.47C111.435 128.987 111.435 129.543 111.6 130.06C111.79 130 110.41 129.94 110 130.47V130.47Z" fill="#F5FFFB"/>
<path d="M6.88005 49.8004C6.61973 50.2594 6.61973 50.8214 6.88005 51.2804C7.23318 51.5335 7.63498 51.7106 8.06005 51.8004C8.67453 52.0095 9.31287 52.1406 9.96005 52.1904C11.9575 52.318 13.9602 52.3414 15.9601 52.2604C17.1471 52.3234 18.3369 52.2088 19.4901 51.9204C20.0901 51.7104 21.1201 51.4804 21.3601 50.8404C21.5001 50.4804 21.0001 50.0204 20.6601 49.8404C20.3201 49.6604 19.6601 49.7904 19.2001 49.6404C19.223 49.2593 19.3361 48.8892 19.5301 48.5604C19.7897 47.985 19.7897 47.3258 19.5301 46.7504C19.2702 46.1702 18.9077 45.6417 18.4601 45.1904C18.0129 44.8992 17.508 44.7081 16.9801 44.6304C16.0072 44.3807 14.9736 44.5948 14.1801 45.2104C13.5873 45.7123 13.2259 46.435 13.1801 47.2104C13.4301 46.2104 10.6101 46.2104 10.0401 46.4204C9.38884 46.7015 8.84292 47.1809 8.48005 47.7904C8.30989 48.3067 8.30989 48.864 8.48005 49.3804C8.67005 49.3304 7.28005 49.2804 6.88005 49.8004V49.8004Z" fill="#F5FFFB"/>
<path d="M104.67 12.4502L105.3 13.7302C105.342 13.8233 105.429 13.8879 105.53 13.9002L106.95 14.1102C107.061 14.129 107.153 14.2086 107.186 14.3162C107.22 14.4238 107.191 14.5412 107.11 14.6202L106.11 15.6202C106.041 15.692 106.008 15.7912 106.02 15.8902L106.26 17.3002C106.283 17.4147 106.237 17.5319 106.142 17.6005C106.048 17.6691 105.922 17.6768 105.82 17.6202L104.54 17.0002C104.45 16.9504 104.34 16.9504 104.25 17.0002L102.99 17.6602C102.888 17.7168 102.762 17.7091 102.668 17.6405C102.574 17.5719 102.528 17.4547 102.55 17.3402L102.79 15.9302C102.802 15.8312 102.769 15.732 102.7 15.6602L101.7 14.6602C101.62 14.5812 101.59 14.4638 101.624 14.3562C101.658 14.2486 101.749 14.169 101.86 14.1502L103.28 13.9402C103.38 13.9244 103.466 13.8609 103.51 13.7702L104.14 12.4902C104.189 12.3929 104.285 12.3284 104.394 12.3202C104.502 12.312 104.607 12.3614 104.67 12.4502V12.4502Z" fill="#50B5DF"/>
<path d="M9.89001 33.9201L10.48 35.1201C10.5157 35.2077 10.5961 35.2689 10.69 35.2801L12.02 35.4701C12.1271 35.4875 12.2156 35.5632 12.2493 35.6664C12.283 35.7695 12.2563 35.8829 12.18 35.9601L11.18 36.9001C11.1101 36.9629 11.0796 37.0585 11.1 37.1501L11.32 38.4701C11.3414 38.577 11.2988 38.6866 11.2108 38.751C11.1228 38.8154 11.0054 38.8229 10.91 38.7701L9.72001 38.1501C9.64085 38.0991 9.53917 38.0991 9.46001 38.1501L8.27001 38.7701C8.17458 38.8229 8.05722 38.8154 7.96922 38.751C7.88123 38.6866 7.83862 38.577 7.86001 38.4701L8.08001 37.1501C8.10045 37.0585 8.06987 36.9629 8.00001 36.9001L7.00001 35.9601C6.92376 35.8829 6.89703 35.7695 6.93071 35.6664C6.9644 35.5632 7.05288 35.4875 7.16001 35.4701L8.49001 35.2801C8.58389 35.2689 8.66431 35.2077 8.70001 35.1201L9.29001 33.9201C9.29001 33.7544 9.42432 33.6201 9.59001 33.6201C9.75569 33.6201 9.89001 33.7544 9.89001 33.9201V33.9201Z" fill="#50B5DF"/>
<path d="M130.47 36.1506L131.1 37.4406C131.143 37.5312 131.23 37.5922 131.33 37.6006L132.74 37.8106C132.857 37.8232 132.956 37.9035 132.993 38.0156C133.03 38.1278 132.997 38.2511 132.91 38.3306L131.91 39.3306C131.838 39.3966 131.804 39.4943 131.82 39.5906L132 41.0006C132.019 41.1147 131.973 41.2297 131.88 41.2991C131.788 41.3685 131.664 41.3806 131.56 41.3306L130.29 40.6606C130.203 40.6106 130.097 40.6106 130.01 40.6606L128.75 41.3306C128.645 41.3784 128.522 41.3657 128.429 41.2973C128.335 41.2289 128.286 41.1154 128.3 41.0006L128.55 39.5906C128.561 39.4948 128.528 39.3993 128.46 39.3306L127.46 38.3306C127.373 38.2511 127.34 38.1278 127.377 38.0156C127.414 37.9035 127.513 37.8232 127.63 37.8106L129.05 37.6006C129.149 37.5885 129.235 37.5286 129.28 37.4406L129.91 36.1506C129.961 36.0425 130.07 35.9736 130.19 35.9736C130.31 35.9736 130.419 36.0425 130.47 36.1506V36.1506Z" fill="#50B5DF"/>
<path d="M14.3501 72.1702L15.0001 73.4502C15.0445 73.5409 15.1303 73.6044 15.2301 73.6202L16.6401 73.8202C16.7528 73.84 16.8455 73.9203 16.8811 74.0291C16.9167 74.138 16.8894 74.2576 16.8101 74.3401L15.8101 75.3401C15.7366 75.4093 15.7028 75.5107 15.7201 75.6102L15.9201 77.0002C15.9425 77.1147 15.8965 77.2318 15.8021 77.3005C15.7077 77.3691 15.5821 77.3768 15.4801 77.3202L14.2101 76.6502C14.1211 76.6099 14.0191 76.6099 13.9301 76.6502L12.6701 77.3202C12.5668 77.374 12.442 77.3654 12.3471 77.2979C12.2522 77.2304 12.2031 77.1154 12.2201 77.0002L12.4701 75.5901C12.4824 75.4912 12.4493 75.3919 12.3801 75.3202L11.3801 74.3202C11.3008 74.2376 11.2735 74.118 11.3091 74.0091C11.3446 73.9003 11.4373 73.82 11.5501 73.8002L12.9701 73.6002C13.0686 73.5814 13.1532 73.5188 13.2001 73.4302L13.8301 72.1502C13.8906 72.0642 13.9905 72.0147 14.0955 72.0188C14.2005 72.0228 14.2964 72.0798 14.3501 72.1702V72.1702Z" fill="#50B5DF"/>
<path d="M123.1 108.57L123.73 109.86C123.773 109.951 123.86 110.012 123.96 110.02L125.37 110.23C125.487 110.243 125.586 110.323 125.623 110.435C125.66 110.547 125.627 110.671 125.54 110.75L124.54 111.75C124.467 111.819 124.433 111.921 124.45 112.02L124.69 113.43C124.705 113.542 124.657 113.654 124.565 113.721C124.473 113.787 124.353 113.799 124.25 113.75L122.98 113.08C122.893 113.03 122.787 113.03 122.7 113.08L121.44 113.75C121.337 113.804 121.212 113.795 121.117 113.728C121.022 113.66 120.973 113.545 120.99 113.43L121.24 112.02C121.252 111.921 121.219 111.822 121.15 111.75L120.15 110.75C120.063 110.671 120.03 110.547 120.067 110.435C120.104 110.323 120.203 110.243 120.32 110.23L121.74 110.02C121.838 110.008 121.925 109.948 121.97 109.86L122.6 108.57C122.658 108.49 122.751 108.443 122.85 108.443C122.949 108.443 123.042 108.49 123.1 108.57V108.57Z" fill="#50B5DF"/>
<path d="M120.28 166.001L120.92 167.281C120.964 167.372 121.05 167.435 121.15 167.451L122.56 167.651C122.673 167.671 122.765 167.751 122.801 167.86C122.837 167.969 122.809 168.088 122.73 168.171L121.73 169.171C121.653 169.238 121.619 169.341 121.64 169.441L121.88 170.851C121.902 170.965 121.856 171.083 121.762 171.151C121.668 171.22 121.542 171.228 121.44 171.171L120.17 170.501C120.081 170.461 119.979 170.461 119.89 170.501L118.62 171.171C118.518 171.228 118.392 171.22 118.298 171.151C118.204 171.083 118.158 170.965 118.18 170.851L118.42 169.441C118.44 169.343 118.41 169.242 118.34 169.171L117.34 168.171C117.261 168.088 117.233 167.969 117.269 167.86C117.305 167.751 117.397 167.671 117.51 167.651L118.93 167.451C119.029 167.432 119.113 167.37 119.16 167.281L119.79 166.001C119.846 165.921 119.938 165.874 120.035 165.874C120.132 165.874 120.224 165.921 120.28 166.001V166.001Z" fill="#50B5DF"/>
</svg>
