<svg width="131" height="182" viewBox="0 0 131 182" fill="none" xmlns="http://www.w3.org/2000/svg">
<path d="M119.93 0H10.86C4.86219 0 0 4.86219 0 10.86V170.24C0 176.238 4.86219 181.1 10.86 181.1H119.93C125.928 181.1 130.79 176.238 130.79 170.24V10.86C130.79 4.86219 125.928 0 119.93 0Z" fill="white"/>
<path d="M73.34 67.6104C71.76 -3.45964 116.07 -1.60964 103.42 31.0004C96.49 46.7904 88.71 58.8104 87 71.2804L73.34 67.6104Z" fill="#F8C4C1"/>
<path d="M77.34 66.2796C77.34 66.2796 80.34 42.9396 87.01 30.2796C93.68 17.6196 100.01 25.6096 95.01 34.6096C90.01 43.6096 83.34 61.6096 82.67 67.9396L77.34 66.2796Z" fill="#F2877F"/>
<path d="M43.93 71.9996C10.71 13.9996 44.79 -8.68038 52.69 22.1996C54.69 40.4896 52.98 56.5096 57.69 68.7596L43.93 71.9996Z" fill="#F8C4C1"/>
<path d="M46.82 68.9403C29.48 23.5203 43.76 14.3703 47.29 30.8803C47.29 42.6303 49.66 61.3303 52.29 67.8803L46.82 68.9403Z" fill="#F2877F"/>
<path d="M66 60.94C12.68 61.06 16.12 125.69 53.22 129.41C119.69 135.8 116.2 58.62 66 60.94Z" fill="#F8C4C1"/>
<path d="M59 95.6102C61.18 93.3502 72.5 94.2102 68 99.4502C64.26 106.11 57.4 100.14 59 95.6102Z" fill="#5D4365"/>
<path d="M80.77 86.7397C79.77 90.2697 76.77 90.3897 73.84 88.0697C73.04 90.7597 78.6 92.7797 80.84 90.2697C82.11 89.3797 83.07 85.2897 80.77 86.7397V86.7397Z" fill="#5D4365"/>
<path d="M51.79 90.1299C50 92.6599 47.03 91.9099 44.68 90.1299C42 95.2899 55.14 93.3399 51.79 90.1299Z" fill="#5D4365"/>
<path d="M55.09 102.62C52.25 101.08 39.09 101.41 40.79 104.39C44.42 102.06 52.7 104 55.09 102.62Z" fill="white"/>
<path d="M55.2 104.78C53.4 105.51 43.93 108.46 45.92 110.37C47.54 108.55 57.44 106 55.2 104.78Z" fill="white"/>
<path d="M56.15 109C54.86 109.26 49.4 114.43 52.07 114.89C52 112.91 57.09 110.16 56.15 109Z" fill="white"/>
<path d="M88 97.0002C85.11 94.8202 75.16 97.3002 76.4 100.25C79.1 96.2502 86.17 98.5002 88 97.0002Z" fill="white"/>
<path d="M86.9 103.88C85.46 102.37 77.31 100.93 77.63 103.5C80.6157 102.97 83.6924 103.386 86.43 104.69C86.77 104.76 87.05 104.72 86.9 103.88Z" fill="white"/>
<path d="M82.92 108.36C82.43 107.62 77.92 104.5 77.6 106.21C78.92 105.72 82.23 109.83 82.92 108.36V108.36Z" fill="white"/>
<path d="M67.5 107.14C67.16 107.47 65.32 108.46 64.5 106.85C64.37 103.1 63.11 103.54 62.83 108.54C59.24 106.54 63.27 113.17 64.31 108.38C64.74 110.07 70.27 107.92 67.5 107.14Z" fill="#5D4365"/>
<path d="M34.14 78.2893C32.14 79.5993 33.14 84.1393 35.28 78.7593C35.24 78.4093 35.13 78.1193 34.14 78.2893Z" fill="#F9E0E9"/>
<path d="M37.68 76.8097C35.32 77.5697 35.78 82.5097 38.68 77.6097C38.91 77.1797 38.66 76.5797 37.68 76.8097Z" fill="#F9E0E9"/>
<path d="M39.32 72.4697C37.32 73.1797 37.96 77.3697 40.32 73.1997C40.31 72.8697 40.27 72.5797 39.32 72.4697Z" fill="#F9E0E9"/>
<path d="M43.13 72.2293C41.03 72.9193 42.95 75.4093 44.21 72.6793C44.21 72.3093 43.84 71.7793 43.13 72.2293Z" fill="#F9E0E9"/>
<path d="M47.43 67.7393C45.08 67.8393 44.43 72.5293 48.23 69.1093C48.5 68.7293 48.5 67.9193 47.43 67.7393Z" fill="#F9E0E9"/>
<path d="M51.59 69.0599C48.72 70.1599 51 73.2099 53 70.1999C53.52 69.1099 52.84 67.9399 51.59 69.0599Z" fill="#F9E0E9"/>
<path d="M56.89 64.8897C54.07 63.2797 51.79 68.0897 56.89 66.6597C57.4 66.4597 57.81 65.7197 56.89 64.8897Z" fill="#F9E0E9"/>
<path d="M60.15 67.3692C59.23 66.3692 56.86 68.8892 59.7 69.3692C60.46 69.1392 61.28 68.4092 60.15 67.3692Z" fill="#F9E0E9"/>
<path d="M67.79 63.2693C66.32 62.1293 63.39 65.1393 67.79 64.2693C68.05 64.1493 68.26 63.9993 67.79 63.2693V63.2693Z" fill="#F9E0E9"/>
<path d="M69.51 65.3799C67.61 65.3799 67.92 69.5399 70.39 66.5199C70.69 66.1199 70.6 65.3899 69.51 65.3799Z" fill="#F9E0E9"/>
<path d="M76.56 63.8601C76 62.2701 72.17 63.9201 75.99 64.8601C76.32 64.8401 76.62 64.7701 76.56 63.8601Z" fill="#F9E0E9"/>
<path d="M79.65 66.23C77.28 65.34 75.35 69.39 79.86 67.8C80.34 67.54 80.67 66.83 79.65 66.23Z" fill="#F9E0E9"/>
<path d="M85.4801 68.2001C84.6001 65.9401 79.8001 66.4901 84.4801 69.4901C85.0001 69.7201 85.7601 69.4101 85.4801 68.2001Z" fill="#F9E0E9"/>
<path d="M90 73.2201C88.36 71.7801 85 74.4901 89.85 74.3301C90.09 74.2001 90.31 74.0001 90 73.2201Z" fill="#F9E0E9"/>
<path d="M94.15 74.7294C93.59 72.8694 89.77 72.7294 93.35 75.5294C93.67 75.6394 94 75.6594 94.15 74.7294Z" fill="#F9E0E9"/>
<path d="M95.35 80.0493C93.93 78.1793 91.1001 80.6093 94.9101 81.1193C95.2201 81.0593 95.49 80.9993 95.35 80.0493Z" fill="#F9E0E9"/>
<path d="M97.66 81.9098C97.66 82.9098 99.55 81.8398 98.15 81.2998C97.84 81.3398 97.92 81.5098 97.66 81.9098Z" fill="#F9E0E9"/>
<path d="M32.1101 83C31.7901 83.25 29.7101 85.58 31.4201 86.11C32.3401 86.2 34.0001 83.12 32.1101 83Z" fill="#F9E0E9"/>
<path d="M32.26 87.8492C31.48 89.2692 33.57 90.7192 33.47 87.6792C33.15 87.3792 32.78 87.3292 32.26 87.8492Z" fill="#F9E0E9"/>
<path d="M29.75 92.5295C28.75 90.2095 27.46 95.9695 29.64 94.9095C29.7433 94.1207 29.7801 93.3245 29.75 92.5295Z" fill="#F9E0E9"/>
<path d="M31.23 97.9998C31.28 97.9998 31.05 100.48 32.42 99.3898C32.6195 98.7779 32.5947 98.115 32.35 97.5197C32 97.3297 31.62 97.3798 31.23 97.9998Z" fill="#F9E0E9"/>
<path d="M98.5701 88.7799C97.2301 88.4399 96.9301 88.0499 97.8201 89.2199C98.6501 88.5699 97.2201 85.9699 96.9301 88.0499C98.0701 89.4199 98.3101 89.5099 98.5701 88.7799Z" fill="#F9E0E9"/>
<path d="M86.63 19.5693C85.02 20.0193 84.7 23.6293 87.35 20.2893C87.46 19.9993 87.46 19.7393 86.63 19.5693Z" fill="#F9E0E9"/>
<path d="M89.84 18.5195C87.84 19.0495 88.5 22.2695 90.61 19.2895C90.73 18.9995 90.73 18.6895 89.84 18.5195Z" fill="#F9E0E9"/>
<path d="M93.15 13.7301C91.02 13.0801 88.6 16.8301 93.29 14.8101C93.59 14.6301 93.84 14.0801 93.15 13.7301Z" fill="#F9E0E9"/>
<path d="M96.65 14.8999C94.86 14.3999 93.74 17.3799 96.96 16.0699C97.25 15.8199 97.42 15.5499 96.65 14.8999Z" fill="#F9E0E9"/>
<path d="M99.87 13.1395C99.3 12.0795 95.87 13.0595 99.53 13.9595C99.83 13.9995 100.06 13.8695 99.87 13.1395Z" fill="#F9E0E9"/>
<path d="M102.18 16.9998C101.46 15.9998 99.34 17.6998 101.92 17.9398C102.22 17.8998 102.44 17.7798 102.18 16.9998Z" fill="#F9E0E9"/>
<path d="M101.64 22.2795C100.82 20.3995 99.72 25.1395 101.58 24.1495C101.711 23.5347 101.731 22.9015 101.64 22.2795Z" fill="#F9E0E9"/>
<path d="M102.77 23.28C102.89 23.16 102.57 25.99 103.87 24.78C103.75 24.45 104.24 24.33 103.87 22.78C103.48 22.62 103.12 22.67 102.77 23.28Z" fill="#F9E0E9"/>
<path d="M32.45 22.2701C31.4 22.9801 32.51 25.7701 33.34 22.6401C33.32 22.3201 33.24 22.0601 32.45 22.2701Z" fill="#F9E0E9"/>
<path d="M36.23 19.52C36.23 20 35.23 20.46 35.7 21.73C36.74 23.07 38.3 18.86 36.23 19.52Z" fill="#F9E0E9"/>
<path d="M36.0001 14.89C34.2801 15.89 35.0001 20.06 36.9101 15.42C36.9401 15.11 36.8801 14.83 36.0001 14.89Z" fill="#F9E0E9"/>
<path d="M40.24 14.4599C38.7 14.2599 39.24 16.9499 40.81 15.4599C41 15.1499 41.1 14.8699 40.24 14.4599Z" fill="#F9E0E9"/>
<path d="M43.63 11.6197C43.25 11.6197 42.86 10.7297 41.82 11.0597C40.8 11.8897 44.12 13.3197 43.63 11.6197Z" fill="#F9E0E9"/>
<path d="M46 16.9998C45.31 15.3898 42.25 15.7298 45.43 17.7298C45.72 17.7598 46 17.7498 46 16.9998Z" fill="#F9E0E9"/>
<path d="M49.2801 18.8497C48.8801 16.6097 46.4401 19.1097 49.0701 20.2597C49.3586 19.8491 49.4365 19.3265 49.2801 18.8497Z" fill="#F9E0E9"/>
<path d="M49.77 24.1099C49.69 22.4799 46.39 23.4299 48.98 24.8999C49.26 24.9299 49.53 24.9099 49.77 24.1099Z" fill="#F9E0E9"/>
<path d="M87.5 35.74C84.58 41.62 78.23 55.88 81.42 57.74C84.69 57.36 92.81 31.48 87.5 35.74Z" fill="#F07068"/>
<path d="M47.92 58.2797C46.75 52.6697 46.36 32.3597 43.11 35.5497C40.91 39.9997 43.6 65.9997 47.92 58.2797Z" fill="#F07068"/>
<path d="M90.74 93.7099C91.47 92.7099 92.13 90.1899 89.56 89.2999L89.9 89.4199C88.8 88.9199 87.98 88.9199 85.9 89.4199C85.4492 89.4402 85.0129 89.5856 84.64 89.8399L84.74 89.7399C81.41 91.7399 83.74 97.5099 89.17 94.7399C89.6625 94.605 90.1109 94.3429 90.47 93.9799C91.06 93.3599 91.13 93.2499 90.74 93.7099V93.7099Z" fill="#F2877F"/>
<path d="M44.41 99.0502C45.14 98.0502 45.8 95.5202 43.23 94.6302L43.57 94.7402C42.47 94.2402 41.65 94.2402 39.57 94.7402C39.1205 94.7593 38.6862 94.9087 38.32 95.1702L38.42 95.0702C35.09 97.1202 37.42 102.83 42.84 100.07C43.3345 99.9331 43.7855 99.6714 44.15 99.3102C44.73 98.7002 44.8 98.5902 44.41 99.0502V99.0502Z" fill="#F2877F"/>
<path d="M35 140L34.83 138.37C36.61 132.9 42.83 142.29 38.71 147.18C39.6222 148.242 40.1163 149.6 40.1 151C40.72 153.4 38.81 160.1 34.67 157.66C34.5804 157.31 34.5334 156.951 34.53 156.59L34.84 149.9L35 140ZM36.33 155.14V155.3V156.71C38.75 156.19 39.67 150.22 36.55 148.13C36.45 149.48 36.41 151.07 36.41 152.89L36.33 155.14ZM36.53 141.61V146.29C38.53 146.81 38.73 138.4 36.9 138.23C36.5767 139.309 36.4447 140.436 36.51 141.56L36.53 141.61Z" fill="#5D4365"/>
<path d="M49 151.57L49.33 153.5C49.03 153.93 50.72 157.12 49.41 158.24C47.63 158.46 48.08 155.88 47.55 153.31L44.46 152.85C44.04 153.51 44.07 160.33 41.69 157.27L41.77 157C43.64 150.64 44.37 143.39 45.59 136.88C49.18 135.31 48.34 149.71 49 151.57V151.57ZM47.36 152.19C47.26 149.37 46.89 144.49 46.42 140.55C45.4733 145.817 44.86 149.53 44.58 151.69C45.4726 152.035 46.4232 152.205 47.38 152.19H47.36Z" fill="#5D4365"/>
<path d="M52 140L51.83 138.37C53.62 132.9 59.83 142.29 55.71 147.18C56.6428 148.235 57.1615 149.592 57.17 151C57.79 153.4 55.87 160.1 51.73 157.66C51.6443 157.31 51.6006 156.95 51.6 156.59L51.9 149.9L52 140ZM53.34 155.14V155.3V156.71C55.75 156.19 56.68 150.22 53.55 148.13C53.46 149.48 53.41 151.07 53.41 152.89L53.34 155.14ZM53.54 141.61V146.29C55.54 146.81 55.74 138.4 53.9 138.23C53.6071 139.314 53.499 140.44 53.58 141.56L53.54 141.61Z" fill="#5D4365"/>
<path d="M63.12 156.279C63.19 157.369 62.34 159.439 61.22 157.689C61.7 156.219 61.64 151.399 61.22 147.759V146.999C60.66 145.479 57.79 138.619 58.15 138.059L58.86 137.539C59.47 136.979 61.39 142.639 61.75 144.539C64.85 130.479 65.54 139.079 63.14 146.859L63.12 156.279Z" fill="#5D4365"/>
<path d="M77.76 151.64L77.92 154.97C70.45 169.66 64.59 134.54 75.63 137.52C75.74 137.9 76.3 138.37 74.8 138.81L74.14 138.74C70.81 141.03 71.48 149.84 72.31 154.24C74.41 159.24 76.82 155.24 76.21 150.11C75.9798 150.012 75.7301 149.967 75.48 149.98H74.86C74.22 150.07 72.72 148.85 74.86 148.35C75.93 148.35 78.04 148.47 78.11 149.35L77.76 151.64Z" fill="#5D4365"/>
<path d="M83.3 147.5L83.46 154.17V155.11V155.98H83.87H84.78C87.95 156.72 84.31 158.38 81.78 157.67C81.02 158 79.51 156.97 80.78 156.17H81.67L81.73 155.75L81.51 149.08L81.68 142.08C81.68 140.88 81.68 139.76 81.53 138.7H81H80.28C75.46 136.1 92.09 137.15 83.35 138.58C83.43 139.44 83.47 140.41 83.47 141.5L83.3 147.5Z" fill="#5D4365"/>
<path d="M89.12 147.42C89.05 150.27 89.04 154.87 89.69 157.42L89.33 158.27H88.46L88.05 157.8C88.97 154.02 85.85 139.29 88.58 137.04C93.35 136.95 93.43 143.04 90.85 146.69C95.92 164.69 91.72 159.63 89.5 147.46L89.12 147.42ZM89.24 138.17L89.13 138.61C89.13 139.79 89.25 144.07 89.26 145.87C90.46 144.65 92.56 139.39 89.24 138.17Z" fill="#5D4365"/>
<path d="M97.2201 140.33L97.3101 147.88C97.1622 148.437 97.1015 149.014 97.1301 149.59L97.0101 154.59C97.0101 156.03 97.3601 156.75 98.0701 156.75H99.3701C100.37 156.6 102.15 157.89 100.11 158.5C99.1981 158.232 98.2502 158.108 97.3001 158.13C93.6001 160.5 96.3001 144.97 95.7301 143.13C95.4301 141.93 95.3201 134.87 97.4401 137.99L97.2201 140.33Z" fill="#5D4365"/>
<path d="M115 145.5C113.72 143.5 109.76 143.7 107.52 144.93C103.39 149.18 117.07 151.22 115 145.5Z" fill="#F2877F"/>
<path d="M111.28 136.17C109.82 135.88 104.43 139.74 107.63 141.65C109.31 141.56 115.4 137.64 111.28 136.17Z" fill="#F2877F"/>
<path d="M109.8 154.6C104.62 151.72 105.69 160.89 110.88 157.97C111.5 156.82 111.32 155.74 109.8 154.6Z" fill="#F2877F"/>
<path d="M27.57 147.56C26.25 146.39 22.23 145.14 20.68 147.64C19.28 151.43 29.63 152.12 27.57 147.56Z" fill="#F2877F"/>
<path d="M28.85 140.43C28.69 138.34 21.1 135.61 24.22 141.21C25.36 142.59 29.44 143.83 28.85 140.43Z" fill="#F2877F"/>
<path d="M27.82 155.44C25.04 156.08 22.36 163.84 28.36 159.58C29.56 158.9 31.3 154.66 27.82 155.44Z" fill="#F2877F"/>
<path d="M117 47.7701C116.035 47.6882 115.069 47.9234 114.25 48.4401C107.11 40.7901 107.45 54.9901 114.25 53.3301C115.46 52.7401 119.72 49.6201 117 47.7701Z" fill="#F8C4C1"/>
<path d="M69.28 12.7695C68.1357 13.0173 67.0727 13.5505 66.19 14.3195C61.53 10.2195 60.06 15.9595 64.92 19.1295C65.25 19.3595 65.49 19.4695 66.57 19.3995C68.18 18.9995 72.88 14.0995 69.28 12.7695Z" fill="#F8C4C1"/>
<path d="M20.46 66.4999C20.174 65.8098 19.4874 65.3717 18.7411 65.4029C17.9947 65.4342 17.3472 65.9282 17.12 66.6399C15.38 64.9999 9.08998 67.9999 13.94 69.9999C14.1438 70.1002 14.3409 70.2138 14.53 70.3399C14.74 70.4899 14.74 70.4799 14.53 70.3399C18.07 72.9999 20.92 71.0999 20.46 66.4999Z" fill="#F8C4C1"/>
<path d="M109.17 121.61C108.37 120.97 107.44 121.54 105.97 122.8C100.7 117.71 100.14 128.88 106.34 126.8C106.92 125.81 110 124.08 109.17 121.61Z" fill="#F8C4C1"/>
<path d="M15.36 141.22C14.36 138.71 12.65 140.52 11.91 143.15C4.04001 138.68 9.07001 149.56 13.65 146.15C15.2 145.69 15.2 142.45 15.36 141.22Z" fill="#F8C4C1"/>
<path d="M77.58 168.81C76.8169 169.244 76.1392 169.814 75.58 170.49C69.58 166.32 68.76 172.49 75.37 174.74C77.87 176.08 82.51 168.38 77.58 168.81Z" fill="#F8C4C1"/>
<path d="M122.18 84.15C121.767 84.19 121.357 84.25 120.95 84.33C121.57 83.82 121.44 81.33 119.95 84.33C120.08 83.99 119.06 82.16 118.95 83.79C118.51 83.22 116.5 83.42 118.95 84.79C117.77 84.79 114.95 86.52 119.12 85.68C118.8 85.68 118 88.77 119.57 86.68C119.69 88.45 121.51 89.48 120.26 85.68C120.61 86.25 123.56 87 121.33 85.24C121.29 85.18 123.13 85 122.18 84.15V84.15Z" fill="#F2877F"/>
<path d="M117.71 6.43976C117.297 6.47186 116.886 6.52862 116.48 6.60976C117.1 6.10976 116.97 3.60976 115.48 6.60976C115.62 6.26976 114.59 4.42976 114.54 6.06976C114.1 5.49976 112.08 5.69976 114.54 7.06976C113.37 7.06976 110.54 8.79976 114.71 7.95976C114.4 7.95976 113.59 11.0598 115.16 8.95976C115.29 10.7198 117.1 11.7598 115.85 7.95976C116.2 8.53976 119.16 9.27976 116.93 7.52976C116.83 7.45976 118.66 7.22976 117.71 6.43976V6.43976Z" fill="#F2877F"/>
<path d="M68.21 40.6898C67.797 40.7219 67.3863 40.7786 66.98 40.8598C67.6 40.3598 67.47 37.8598 65.98 40.8598C66.12 40.5198 65.09 38.6798 65.04 40.3198C64.6 39.7498 62.58 39.9498 65.04 41.3198C63.87 41.3198 61.04 43.0498 65.21 42.2098C64.9 42.2098 64.09 45.3098 65.66 43.2098C65.79 44.9698 67.6 46.0098 66.35 42.2098C66.7 42.7898 69.66 43.5298 67.43 41.7798C67.33 41.7098 69.16 41.4798 68.21 40.6898Z" fill="#F2877F"/>
<path d="M13.76 104.27C13.35 104.27 12.94 104.37 12.53 104.44C13.15 103.94 13.02 101.44 11.53 104.44H11.48C11.61 104.1 10.59 102.26 10.54 103.9C10.1 103.33 8.08001 103.53 10.54 104.9C9.37001 104.9 6.54001 106.62 10.71 105.79C10.39 105.79 9.59001 108.88 11.16 106.79C11.29 108.56 13.1 109.59 11.85 105.79C12.2 106.36 15.15 107.11 12.92 105.35C12.87 105.3 14.71 105.06 13.76 104.27V104.27Z" fill="#F2877F"/>
<path d="M20.85 166.42C20.437 166.452 20.0263 166.509 19.62 166.59C20.24 166.09 20.11 163.59 18.62 166.59H18.57C18.7 166.25 17.67 164.41 17.62 166.05C17.18 165.48 15.17 165.68 17.62 167.05C16.44 167.05 13.62 168.78 17.78 167.94C17.47 167.94 16.66 171.04 18.23 168.94C18.36 170.71 20.23 171.74 18.93 167.94C19.27 168.51 22.23 169.26 20 167.5C20 167.44 21.8 167.21 20.85 166.42V166.42Z" fill="#F2877F"/>
<path d="M116.85 166.92C116.437 166.952 116.026 167.009 115.62 167.09C116.24 166.59 116.11 164.09 114.62 167.09C114.75 166.75 113.72 164.91 113.62 166.55C113.18 165.98 111.17 166.18 113.62 167.55C112.44 167.55 109.62 169.28 113.78 168.44C113.47 168.44 112.66 171.54 114.23 169.44C114.36 171.21 116.23 172.24 114.93 168.44C115.27 169.01 118.23 169.76 116 168C116 167.94 117.8 167.71 116.85 166.92V166.92Z" fill="#F2877F"/>
<path d="M8.76 22.2698C8.35 22.2698 7.94 22.3698 7.53 22.4398C8.15 21.9398 8.02 19.4398 6.53 22.4398C6.66 22.0998 5.64 20.2598 5.59 21.8998C5.15 21.3298 3.13 21.5298 5.59 22.8998C4.42 22.8998 1.59 24.6198 5.76 23.7898C5.44 23.7898 4.64 26.8798 6.21 24.7898C6.34 26.5598 8.15 27.5898 6.9 23.7898C7.25 24.3598 10.2 25.1098 7.97 23.3498C7.87 23.2998 9.71 23.0598 8.76 22.2698V22.2698Z" fill="#F2877F"/>
</svg>
