<svg width="131" height="182" viewBox="0 0 131 182" fill="none" xmlns="http://www.w3.org/2000/svg">
<path d="M119.93 0H10.86C4.86219 0 0 4.86219 0 10.86V170.24C0 176.238 4.86219 181.1 10.86 181.1H119.93C125.928 181.1 130.79 176.238 130.79 170.24V10.86C130.79 4.86219 125.928 0 119.93 0Z" fill="white"/>
<path d="M38.62 137.28L38.45 135.65C40.23 130.18 46.45 139.58 42.33 144.46C43.2631 145.539 43.7652 146.924 43.74 148.35C44.36 150.74 42.45 157.45 38.31 155.01C38.2212 154.657 38.1742 154.294 38.17 153.93L38.48 147.24L38.62 137.28ZM40 152.43V152.58V154C42.42 153.48 43.34 147.51 40.22 145.42C40.13 146.77 40.08 148.36 40.08 150.18L40 152.43ZM40.2 138.89V143.57C42.2 144.1 42.4 135.68 40.57 135.57C40.2355 136.643 40.0933 137.767 40.15 138.89H40.2Z" fill="#865625"/>
<path d="M52.66 148.9L53 150.83C52.7 151.27 54.38 154.45 53.07 155.57C51.3 155.8 51.74 153.21 51.22 150.65L48.12 150.19C47.71 150.84 47.73 157.66 45.35 154.61L45.43 154.33C47.3 147.97 48.03 140.72 49.25 134.21C52.82 132.64 52 147.05 52.66 148.9ZM51.02 149.53C50.92 146.7 50.55 141.83 50.08 137.88C49.1333 143.153 48.52 146.867 48.24 149.02C49.1174 149.37 50.0554 149.544 51 149.53H51.02Z" fill="#865625"/>
<path d="M55.68 137.28L55.51 135.65C57.3 130.18 63.51 139.58 59.4 144.46C60.329 145.541 60.8305 146.925 60.81 148.35C61.43 150.74 59.51 157.45 55.38 155.01C55.2863 154.658 55.2393 154.295 55.24 153.93L55.54 147.24L55.68 137.28ZM57 152.43V152.58V154C59.42 153.48 60.34 147.51 57.21 145.42C57.12 146.77 57.07 148.36 57.07 150.18L57 152.43ZM57.2 138.89V143.57C59.2 144.1 59.4 135.68 57.57 135.57C57.2591 136.648 57.1406 137.771 57.22 138.89H57.2Z" fill="#865625"/>
<path d="M66.76 153.61C66.84 154.71 65.98 156.77 64.86 155.02C65.34 153.55 65.28 148.73 64.86 145.09V144.28C64.31 142.76 61.43 135.9 61.8 135.35L62.5 134.83C63.11 134.26 65.03 139.93 65.39 141.83C68.5 127.77 69.18 136.37 66.78 144.15L66.76 153.61Z" fill="#865625"/>
<path d="M74.21 137.28L74 135.65C75.78 130.18 82 139.58 77.88 144.46C78.8131 145.539 79.3151 146.924 79.29 148.35C79.91 150.74 78 157.45 73.86 155.01C73.7712 154.657 73.7242 154.294 73.72 153.93L74.03 147.24L74.21 137.28ZM75.54 152.43V152.58V154C77.96 153.48 78.88 147.51 75.76 145.42C75.67 146.77 75.62 148.36 75.62 150.18L75.54 152.43ZM75.74 138.89V143.57C77.74 144.1 77.94 135.68 76.11 135.57C75.7923 136.646 75.6671 137.77 75.74 138.89Z" fill="#865625"/>
<path d="M81.08 145.68V144.48C81.08 144.38 81.08 144.33 81.08 144.33C79.6 129.94 89.16 131.91 89.27 143.27C90.82 158.92 80.91 160.52 81.08 145.68ZM82.94 141.38L82.79 144.28C82.7529 146.948 82.9975 149.613 83.52 152.23C83.7564 153.143 84.2743 153.958 85 154.56C88.94 153.21 87.21 143.03 87.21 138.75C86.68 134.62 81.9 134.6 82.94 141.38Z" fill="#865625"/>
<path d="M95.05 153.61C95.12 154.71 94.26 156.77 93.14 155.02C93.63 153.55 93.56 148.73 93.14 145.09V144.28C92.58 142.76 89.7 135.9 90.07 135.35L90.77 134.83C91.38 134.26 93.3 139.93 93.66 141.83C96.77 127.77 97.46 136.37 95.06 144.15L95.05 153.61Z" fill="#865625"/>
<path d="M12.05 122.92C11.6403 122.952 11.2329 123.009 10.83 123.09C11.44 122.59 11.32 120.09 9.82997 123.09C9.95997 122.75 8.92997 120.91 8.87997 122.55C8.43997 121.98 6.41997 122.18 8.87997 123.55C7.70997 123.55 4.87997 125.28 9.04997 124.44C8.73997 124.44 7.92997 127.54 9.49997 125.44C9.62997 127.21 11.5 128.24 10.2 124.44C10.54 125.01 13.5 125.76 11.27 124C11.17 123.94 13 123.71 12.05 122.92V122.92Z" fill="#F9A948"/>
<path d="M40.42 170.35C40.0066 170.39 39.5966 170.45 39.19 170.53C39.81 170.02 39.68 167.53 38.19 170.53C38.32 170.19 37.3 168.36 37.25 169.99C36.81 169.42 34.79 169.62 37.25 170.99C36.08 170.99 33.25 172.72 37.42 171.88C37.1 171.88 36.3 174.97 37.87 172.88C38 174.65 39.81 175.68 38.56 171.88C38.91 172.45 41.86 173.2 39.63 171.44C39.53 171.38 41.37 171.15 40.42 170.35V170.35Z" fill="#F9A948"/>
<path d="M92.42 165.35C92.0133 165.39 91.6033 165.45 91.19 165.53C91.81 165.02 91.68 162.53 90.19 165.53C90.32 165.19 89.3 163.36 89.25 164.99C88.81 164.42 86.79 164.62 89.25 165.99C88.08 165.99 85.25 167.72 89.42 166.88C89.1 166.88 88.3 169.97 89.87 167.88C90 169.65 91.81 170.68 90.56 166.88C90.91 167.45 93.86 168.2 91.63 166.44C91.53 166.38 93.37 166.15 92.42 165.35Z" fill="#F9A948"/>
<path d="M126.09 130.35C125.683 130.39 125.273 130.45 124.86 130.53C125.48 130.02 125.35 127.53 123.86 130.53C123.99 130.19 122.96 128.36 122.86 129.99C122.42 129.42 120.41 129.62 122.86 130.99C121.68 130.99 118.86 132.72 123.02 131.88C122.71 131.88 121.9 134.97 123.47 132.88C123.6 134.65 125.47 135.68 124.17 131.88C124.51 132.45 127.47 133.2 125.24 131.44C125.2 131.38 127 131.15 126.09 130.35V130.35Z" fill="#F9A948"/>
<path d="M125.42 27.6898C125.007 27.7219 124.596 27.7786 124.19 27.8598C124.81 27.3598 124.68 24.8598 123.19 27.8598C123.32 27.5198 122.3 25.6798 122.25 27.3198C121.81 26.7498 119.79 26.9498 122.25 28.3198C121.08 28.3198 118.25 30.0498 122.42 29.2098C122.1 29.2098 121.3 32.3098 122.87 30.2098C123 31.9698 124.81 33.0098 123.56 29.2098C123.91 29.7898 126.86 30.5298 124.63 28.7798C124.53 28.7098 126.37 28.4798 125.42 27.6898V27.6898Z" fill="#F9A948"/>
<path d="M16.42 11.6898C16.007 11.7219 15.5962 11.7786 15.19 11.8598C15.81 11.3598 15.68 8.85976 14.19 11.8598H14.14C14.27 11.5198 13.25 9.67976 13.2 11.3198C12.76 10.7498 10.74 10.9498 13.2 12.3198C12.03 12.3198 9.19998 14.0498 13.37 13.2098C13.05 13.2098 12.25 16.3098 13.82 14.2098C13.95 15.9698 15.76 17.0098 14.51 13.2098C14.86 13.7898 17.81 14.5298 15.58 12.7798C15.53 12.7098 17.37 12.4798 16.42 11.6898V11.6898Z" fill="#F9A948"/>
<path d="M37.12 26.9199C39.1443 25.1204 41.5841 23.8524 44.22 23.2299L48.48 28.0599L49.61 20.3899C52.2679 19.4558 55.0395 18.884 57.85 18.6899C61.43 28.8599 60.55 20.6299 61.54 17.8399C61.54 17.8399 75.74 16.9799 83.4 20.6699L81.7 26.9199L87.38 22.3799C87.38 22.3799 94.76 25.7899 97.32 29.1899L95.05 35.1899L101.58 33.1899C101.58 33.1899 106.69 34.8899 108.11 39.1899L103.85 43.7399L110.66 42.8799C110.66 42.8799 115.78 56.7999 115.49 64.4699L109.24 66.7399L116.34 69.8599C116.34 69.8599 116.06 81.7899 112.34 88.5999L105.52 86.5999L110.92 93.4099C110.92 93.4099 105.81 102.78 101.26 105.62L96.44 102.5L97.57 110.17C97.57 110.17 92.74 112.17 81.95 114.17L79.71 109L78.58 115C70.6512 115.997 62.6232 115.902 54.72 114.72L52.45 107.34L46.2 112.4C41.292 111.397 36.5889 109.571 32.29 107L34.56 99.3299L27.75 101C27.75 101 21.75 99.2899 20.08 90.7799L26.61 88.4999L18.66 86.2299C18.66 86.2299 14.4 74.0199 14.66 66.6399L25.45 64.0799L15.25 60.4299C15.25 60.4299 16.67 39.9999 31.72 30.3299L37.72 35.1599L37.12 26.9199Z" fill="#F9A948"/>
<path d="M53.87 48.2205C46 34.2505 32.71 46.9005 48.76 55.0005L53.87 48.2205Z" fill="#CD5C36"/>
<path d="M82 48.2197C89.87 34.2197 103.16 46.8997 87.11 55.0397L82 48.2197Z" fill="#CD5C36"/>
<path d="M42.51 69.0002C35.9 34.1502 100.73 31.8702 91.07 70.7002C91.07 70.7002 110.07 101.94 69.77 101.94C29.47 101.94 35.13 75.7602 42.51 69.0002V69.0002Z" fill="#FFE568"/>
<path d="M59.92 73.2902C60.92 72.2102 63.65 71.3902 66.22 71.5302C85.54 74.7502 55.38 86.8302 59.92 73.2902Z" fill="#CD5C36"/>
<path d="M70.56 24.19C68.56 20.81 68.72 33.01 70.81 32.19C72.09 30.22 70.54 27.35 70.56 24.19V24.19Z" fill="#FCC271"/>
<path d="M65.64 30.9399C65.41 29.3599 62.44 30.5899 65.07 32.6299C65.55 32.2899 65.91 32.5899 65.64 30.9399Z" fill="#FCC271"/>
<path d="M56.18 35.0897C54.84 33.7697 53.67 27.4397 50.94 28.0897C50.28 29.0497 55.78 38.7297 56.18 35.0897Z" fill="#FCC271"/>
<path d="M50.16 34.4997C49.89 32.9697 47.16 31.7297 49.49 34.8897C49.72 35.0797 49.94 35.1497 50.16 34.4997Z" fill="#FCC271"/>
<path d="M33.45 48.3297C31.35 47.3297 27.81 41.7497 25.09 42.8397C24.88 43.9397 34.32 51.4697 33.45 48.3297Z" fill="#FCC271"/>
<path d="M30.58 52C30.16 51.68 29.8 51.41 28.37 50.43C26 50.11 30.59 54.22 30.58 52Z" fill="#FCC271"/>
<path d="M36.33 61.9998C34.76 61.9998 30.14 58.2098 28.49 59.9998C29.57 61.6698 32 61.2098 34.49 62.4498C35.08 62.5798 36.85 63.6498 36.33 61.9998Z" fill="#FCC271"/>
<path d="M32.57 71.3997C31.66 70.7197 29.65 72.9697 32.57 72.4897C33 72.3997 33.31 71.8997 32.57 71.3997Z" fill="#FCC271"/>
<path d="M30.33 80.0498C28.21 80.7198 19.05 79.8798 20.05 82.6198C21.22 83.1898 33.45 81.9398 30.33 80.0498Z" fill="#FCC271"/>
<path d="M32.22 91.8398C28.22 93.0298 28.12 97.2698 33.07 92.9398C33.41 92.5798 33.31 91.8998 32.22 91.8398Z" fill="#FCC271"/>
<path d="M34.78 93.6904C33.31 93.6904 32.97 97.3704 35.49 94.6104C35.69 94.2604 35.75 94.0004 34.78 93.6904Z" fill="#FCC271"/>
<path d="M43.83 101.51C43.68 102.38 41.97 104.24 42.26 106.16C43.26 106.28 43.04 106.79 44.14 104.87C44.75 104.06 46.42 100.29 43.83 101.51Z" fill="#FCC271"/>
<path d="M52.66 102.26C51.16 104.26 53.53 105.68 54.02 102.26C53.9 101.87 53.29 101.55 52.66 102.26Z" fill="#FCC271"/>
<path d="M64.54 107C62.4 105.21 63.01 110.4 63.68 112.57C66 113.83 65 109.18 64.54 107Z" fill="#FCC271"/>
<path d="M71.77 106.43C69.68 103.54 68.77 110.22 71.84 107.95C71.9682 107.448 71.9438 106.919 71.77 106.43Z" fill="#FCC271"/>
<path d="M89.82 104.16C89.58 104.16 88.82 100.72 87.05 102.16C86.78 103.3 87.49 103.32 88.83 104.93C89.2 105.14 89.53 105.2 89.82 104.16Z" fill="#FCC271"/>
<path d="M103.42 93.1C102.33 92.04 94.61 88.19 100.82 93.52C101.74 94.07 104.2 95.18 103.42 93.1Z" fill="#FCC271"/>
<path d="M101.49 88.0003C100.59 86.2703 96.77 86.8803 100.78 88.9203C101.16 89.0003 101.48 89.0003 101.49 88.0003Z" fill="#FCC271"/>
<path d="M107.23 75.9101C104.82 75.9101 96.43 72.5401 95.85 75.4401C96.92 76.3901 109.55 78.3101 107.23 75.9101Z" fill="#FCC271"/>
<path d="M102.45 69.7202C101.01 68.7202 95.71 70.5402 102.32 70.7202C102.64 70.6502 103 70.2202 102.45 69.7202Z" fill="#FCC271"/>
<path d="M105.19 52.8896C102.77 54.3896 94.77 54.1596 94.81 56.4196C96.4 57.8496 108.79 54.7396 105.19 52.8896Z" fill="#FCC271"/>
<path d="M104.32 48.8796C102.32 48.2896 97.18 51.2396 103.41 50.2096C104.07 50.1896 105.64 49.7096 104.32 48.8796Z" fill="#FCC271"/>
<path d="M99.38 37.7503C99.32 38.0303 96.38 39.6403 98.38 40.1503C98.62 40.0003 102 37.7203 99.38 37.7503Z" fill="#FCC271"/>
<path d="M88.49 29.85C87.69 31.27 80.01 38.07 83.97 37.85C84.89 36.59 92.91 29.36 88.49 29.85Z" fill="#FCC271"/>
<path d="M79 32.7704C79.3 33.2604 77.22 35.0604 78.88 35.3804C79.67 35.3104 81.16 31.3404 79 32.7704Z" fill="#FCC271"/>
<path d="M55.14 62.3995C53.49 62.3995 49.57 66.2695 52.14 67.6495C53.46 67.1095 53.61 64.6495 56.04 65.3595C62.81 70.6195 60.57 61.4295 55.14 62.3995Z" fill="#CD5C36"/>
<path d="M78 61.6499C76.53 60.9599 71.63 65.0799 74.86 65.7499C75.97 65.1899 77.29 63.1599 79.2 65.3199C83.18 70.7799 82.66 61.3199 78 61.6499V61.6499Z" fill="#CD5C36"/>
<path d="M72.42 85.0001C70.05 86.6001 69.49 85.2001 68.42 82.6301C64.59 78.0901 69.06 87.1501 64.42 85.5701C57.29 82.0401 64.22 92.3401 68.08 86.8601C69.13 90.3101 77.51 85.4501 72.42 85.0001Z" fill="#CD5C36"/>
<path d="M88.26 72.7703C85.26 71.4303 75.81 72.0503 75.74 75.7703C78.56 75.6503 81.74 73.3303 85.4 73.9103C86.53 73.7703 89.55 74.8503 88.26 72.7703Z" fill="white"/>
<path d="M87.92 77.8205C86.57 76.7005 76.22 76.3005 79.25 78.5805C80.9 77.3805 88.15 80.4305 87.92 77.8205Z" fill="white"/>
<path d="M84.13 82.1703C83.47 81.3003 75.73 78.9503 80.44 82.0803C81.28 82.2103 84.77 84.5203 84.13 82.1703Z" fill="white"/>
<path d="M54.42 75.8504C53.42 73.0804 41.64 71.2804 44.74 74.8504C48.13 73.0004 54.64 78.4304 54.42 75.8504Z" fill="white"/>
<path d="M54.52 79.1096C53.76 78.5796 48.86 77.8596 49.2 80.1096C50.15 80.1696 54.14 80.3996 54.52 79.1096Z" fill="white"/>
<path d="M55.32 82.1699C52.32 84.7699 51.93 85.0499 53.01 84.2599C54.7 81.8699 49.35 84.1699 51.93 85.0499C53.34 83.6499 56.87 83.4599 55.32 82.1699V82.1699Z" fill="white"/>
<path d="M56.07 47.4501C52.97 46.5801 50.47 53.7601 56.75 48.4001C56.75 48.0901 56.68 47.9301 56.07 47.4501Z" fill="#FFF9BD"/>
<path d="M58.18 48.6504C56.86 48.6504 56.45 51.3504 58.75 49.6504C58.91 49.3404 59 49.0004 58.18 48.6504Z" fill="#FFF9BD"/>
<path d="M65.4 45.3602C63.24 42.6902 58.02 48.0602 65.29 46.5802C65.52 46.3102 65.56 46.1302 65.4 45.3602Z" fill="#FFF9BD"/>
<path d="M68.07 46.6596C65.77 46.1596 63.3 50.8696 68.47 48.1196C68.79 47.8396 69 47.0796 68.07 46.6596Z" fill="#FFF9BD"/>
<path d="M74.07 45.3196C72.38 43.4396 67.48 47.3196 73.84 47.0996C74.32 46.9996 74.77 46.2596 74.07 45.3196Z" fill="#FFF9BD"/>
<path d="M76.58 47.5198C74.18 46.6498 72.73 51.0798 76.81 49.2698C77.17 48.9998 77.47 48.2098 76.58 47.5198Z" fill="#FFF9BD"/>
<path d="M80.75 47.0498C80.24 45.2598 77.41 46.7698 79.68 48.1198C80.09 48.3298 80.81 48.1098 80.75 47.0498Z" fill="#FFF9BD"/>
<path d="M34.32 144C32.57 141.85 25.58 144.46 30.16 147.44C31.8 148.14 36 146.78 34.32 144Z" fill="#F9A948"/>
<path d="M33.78 136.78C32.95 134 26.08 135.93 30.91 138.49H31.05C31.76 139.27 34.52 139.44 33.78 136.78Z" fill="#F9A948"/>
<path d="M33.82 152.91C28.63 152.85 31.6 161.28 35.11 154.19C35.13 153.74 34.8 153.16 33.82 152.91Z" fill="#F9A948"/>
<path d="M106.19 141.6C100.7 142.02 99.1 146.87 107.09 146.06C109.16 145.24 109 142 106.19 141.6Z" fill="#F9A948"/>
<path d="M104.13 134.9C101.01 134.9 99.87 142.09 105.13 137.76C106 136.81 106.19 135 104.13 134.9Z" fill="#F9A948"/>
<path d="M107.29 151.2C106.97 149.67 99.57 147.06 102.72 151.51C104.18 152.93 107.47 154.41 107.29 151.2V151.2Z" fill="#F9A948"/>
<path d="M65.7 120.71C64.35 119.37 63.92 124.06 65.51 125.4C66.88 124.7 65.86 123 65.7 120.71Z" fill="#FFE568"/>
<path d="M83.54 122.69C83.62 121.42 78.06 115.11 80.04 120.39C80.62 121.26 82.49 125.31 83.54 122.69Z" fill="#FFE568"/>
<path d="M86.87 126C87.02 124.27 83.79 124.63 85.52 126.57C85.85 126.92 86.62 127.05 86.87 126Z" fill="#FFE568"/>
<path d="M107.43 117.25C105.907 115.87 104.3 114.584 102.62 113.4C98 112.88 108.31 121.65 107.43 117.25Z" fill="#FFE568"/>
<path d="M120.15 99.9999C118.92 99.5999 116.69 98.1199 114.39 98.1499C112 99.7399 121.58 102.54 120.15 99.9999Z" fill="#FFE568"/>
<path d="M124.53 100.89H124.45L124.14 100.79C124.087 100.796 124.033 100.796 123.98 100.79C122.98 99.6204 121.22 101.69 123.62 102.62C124.47 102.73 126 101.76 124.53 100.89Z" fill="#FFE568"/>
<path d="M123.68 79.5006C122.96 79.0406 118.28 77.8905 120.26 80.3805C120.8 80.3705 125.33 81.9406 123.68 79.5006Z" fill="#FFE568"/>
<path d="M122.83 58.2705C122.095 58.3038 121.363 58.3907 120.64 58.5305C118.21 60.5005 125 60.2705 122.83 58.2705Z" fill="#FFE568"/>
<path d="M127.82 56.9404C127.526 56.9789 127.307 57.2292 127.307 57.5254C127.307 57.8217 127.526 58.0719 127.82 58.1104C128.114 58.0719 128.333 57.8217 128.333 57.5254C128.333 57.2292 128.114 56.9789 127.82 56.9404Z" fill="#FFE568"/>
<path d="M120.3 40.5205C119.12 41.2305 116.36 41.8905 114.66 43.6605C114.08 46.6005 123.41 41.2605 120.3 40.5205Z" fill="#FFE568"/>
<path d="M106.7 19.3899C105.7 19.8799 101.99 27.0199 105.88 23.2899C106.33 22.4399 109.35 19.2399 106.7 19.3899Z" fill="#FFE568"/>
<path d="M113.46 13.2404C111.68 13.7604 112.86 16.6304 114.46 14.2404C114.65 13.8504 114.44 13.1704 113.46 13.2404Z" fill="#FFE568"/>
<path d="M84.48 13.4702C83.31 14.3302 82.99 20.5502 85.36 16.1002C85.7 15.2402 86.6 12.4502 84.48 13.4702V13.4702Z" fill="#FFE568"/>
<path d="M87.15 6.47052C87 6.60052 85 9.32052 87.53 9.11052C88.16 8.37052 88.12 8.71052 88.53 7.11052C88.68 6.54052 88.21 5.92052 87.15 6.47052Z" fill="#FFE568"/>
<path d="M65.76 5.53016C62.85 1.76016 63.92 12.4302 65.23 13.9002C67.66 13.1702 65.66 8.46016 65.76 5.53016V5.53016Z" fill="#FFE568"/>
<path d="M45.37 16.2503C45.04 15.3903 42.74 8.40033 41.55 11.8903C42.11 12.6103 43.83 19.2003 45.37 16.2503Z" fill="#FFE568"/>
<path d="M38.46 6.35061C38.65 7.35061 38.7 7.85061 38.46 6.35061C37.05 4.48061 37 9.47061 38.46 6.35061Z" fill="#FFE568"/>
<path d="M29.63 23.5898C29 21.8598 22.4 16.7198 27 22.4798C27.76 22.9398 29.07 25.5798 29.63 23.5898Z" fill="#FFE568"/>
<path d="M14.67 36.35C14 35.94 9.00004 31.79 9.50004 34.75C10.2 35 14.75 39.48 14.67 36.35Z" fill="#FFE568"/>
<path d="M5.80999 31.54C5.63999 30.54 3.12999 30.62 5.16999 32.18C5.47999 32.33 5.73999 32.35 5.80999 31.54Z" fill="#FFE568"/>
<path d="M8.32002 57.6105C4.85002 56.2805 1.45002 58.7605 8.16002 58.8005C8.55002 58.7505 9.00002 58.2305 8.32002 57.6105Z" fill="#FFE568"/>
<path d="M12.81 81.0605C11.4827 81.1302 10.166 81.3346 8.88002 81.6705C2.48002 83.6605 15.66 84.1905 12.81 81.0605Z" fill="#FFE568"/>
<path d="M18.49 103.18C14.49 103.18 13.65 107.63 18.97 104.34C19.18 104.06 19.31 103.78 18.49 103.18Z" fill="#FFE568"/>
<path d="M11.05 108.75C9.00001 109.46 7.72001 114.56 11.93 109.64C12.19 109.24 12.05 108.57 11.05 108.75Z" fill="#FFE568"/>
<path d="M30.82 112.47C29.97 112.96 26.77 119.47 30.34 116.12C30.87 115.21 33.79 111.77 30.82 112.47Z" fill="#FFE568"/>
<path d="M47.38 116.07C46.44 116.76 45.31 123.39 48.11 119.14C48.71 118.26 49.86 114.75 47.38 116.07Z" fill="#FFE568"/>
<path d="M64.59 164.26C64.28 163.74 63.37 163.38 62.4 164.26C60 167.75 66.82 168.15 64.59 164.26Z" fill="#FFE568"/>
<path d="M118.16 159C116.746 159 115.6 160.146 115.6 161.56C115.6 162.974 116.746 164.12 118.16 164.12C119.574 164.12 120.72 162.974 120.72 161.56C120.72 160.146 119.574 159 118.16 159Z" fill="#FFE568"/>
<path d="M10.16 164.24C7.64002 164.24 7.64002 168.15 10.16 168.15C12.68 168.15 12.68 164.24 10.16 164.24Z" fill="#FFE568"/>
<path d="M122.17 13.2806C120.25 12.2806 119.17 16.0806 122.36 15.7006C123.39 15.1706 123.41 14.1506 122.17 13.2806Z" fill="#FFE568"/>
<path d="M6.31999 21.5303C5.58545 21.5303 4.98999 22.1257 4.98999 22.8603C4.98999 23.5948 5.58545 24.1903 6.31999 24.1903C7.05453 24.1903 7.64999 23.5948 7.64999 22.8603C7.64999 22.1257 7.05453 21.5303 6.31999 21.5303Z" fill="#FFE568"/>
</svg>
