<svg width="131" height="182" viewBox="0 0 131 182" fill="none" xmlns="http://www.w3.org/2000/svg">
<path d="M119.93 0H10.86C4.86219 0 0 4.86219 0 10.86V170.24C0 176.238 4.86219 181.1 10.86 181.1H119.93C125.928 181.1 130.79 176.238 130.79 170.24V10.86C130.79 4.86219 125.928 0 119.93 0Z" fill="white"/>
<path d="M36 134.29L35.83 132.66C37.62 127.19 43.83 136.58 39.72 141.47C40.6443 142.55 41.1453 143.928 41.13 145.35C41.75 147.75 39.83 154.45 35.69 152.01C35.6042 151.66 35.5606 151.3 35.56 150.94L35.86 144.25L36 134.29ZM37.34 149.44V149.59V151C39.75 150.48 40.68 144.51 37.55 142.42C37.46 143.77 37.41 145.36 37.41 147.18L37.34 149.44ZM37.54 135.9V140.58C39.54 141.11 39.74 132.69 37.9 132.52C37.5779 133.616 37.446 134.759 37.51 135.9H37.54Z" fill="#865625"/>
<path d="M50 145.91L50.34 147.84C50.04 148.28 51.73 151.46 50.42 152.58C48.64 152.8 49.08 150.22 48.56 147.66L45.46 147.2C45.05 147.85 45.08 154.67 42.7 151.62L42.78 151.34C44.64 144.98 45.37 137.73 46.6 131.22C50.17 129.65 49.34 144.05 50 145.91ZM48.36 146.54C48.27 143.71 47.9 138.84 47.43 134.89C46.4767 140.163 45.8633 143.867 45.59 146C46.475 146.351 47.4178 146.535 48.37 146.54H48.36Z" fill="#865625"/>
<path d="M53 134.29L52.83 132.66C54.61 127.19 60.83 136.58 56.71 141.47C57.6432 142.545 58.1455 143.927 58.12 145.35C58.74 147.75 56.83 154.45 52.69 152.01C52.6004 151.66 52.5534 151.301 52.55 150.94L52.86 144.25L53 134.29ZM54.33 149.44V149.59V151C56.75 150.48 57.67 144.51 54.55 142.42C54.46 143.77 54.41 145.36 54.41 147.18L54.33 149.44ZM54.53 135.9V140.58C56.53 141.11 56.73 132.69 54.9 132.52C54.591 133.618 54.4793 134.763 54.57 135.9H54.53Z" fill="#865625"/>
<path d="M64.12 150.62C64.19 151.71 63.34 153.78 62.21 152.03C62.7 150.56 62.64 145.74 62.21 142.1V141.29C61.65 139.77 58.77 132.91 59.14 132.36L59.85 131.83C60.45 131.27 62.37 136.93 62.73 138.83C65.84 124.77 66.53 133.37 64.13 141.15L64.12 150.62Z" fill="#865625"/>
<path d="M71.56 134.29L71.39 132.66C73.18 127.19 79.39 136.58 75.28 141.47C76.2043 142.55 76.7053 143.928 76.69 145.35C77.31 147.75 75.39 154.45 71.25 152.01C71.1642 151.66 71.1206 151.3 71.12 150.94L71.42 144.25L71.56 134.29ZM72.9 149.44V149.59V151C75.31 150.48 76.24 144.51 73.11 142.42C73.02 143.77 72.97 145.36 72.97 147.18L72.9 149.44ZM73.1 135.9V140.58C75.1 141.11 75.3 132.69 73.46 132.52C73.148 133.618 73.0262 134.761 73.1 135.9Z" fill="#865625"/>
<path d="M78.44 142.68V141.49C78.44 141.38 78.44 141.33 78.44 141.33C76.97 126.95 86.53 128.92 86.64 140.27C88.17 155.93 78.26 157.53 78.44 142.68ZM80.29 138.39L80.14 141.29C80.1022 143.976 80.3503 146.657 80.88 149.29C81.1196 150.202 81.6368 151.016 82.36 151.62C86.3 150.27 84.57 140.09 84.57 135.81C84 131.63 79.25 131.61 80.29 138.39V138.39Z" fill="#865625"/>
<path d="M92.4001 150.62C92.4701 151.71 91.6201 153.78 90.5001 152.03C90.9801 150.56 90.9201 145.74 90.5001 142.1V141.29C89.9401 139.77 87.0701 132.91 87.4301 132.36L88.1401 131.83C88.7501 131.27 90.67 136.93 91.02 138.83C94.13 124.77 94.8201 133.37 92.4201 141.15L92.4001 150.62Z" fill="#865625"/>
<path d="M38.19 33.9995C38.19 33.9995 30.24 20.5595 20.92 25.9995C11.6 31.4395 19 45.8295 25.3 49.1195C31.6 52.4095 38.19 33.9995 38.19 33.9995V33.9995Z" fill="#C6A361"/>
<path d="M33.53 35.3702C33.53 35.3702 29 27.7102 23.68 30.8302C18.36 33.9502 22.59 42.0902 26.18 44.0002C29.77 45.9102 33.53 35.3702 33.53 35.3702Z" fill="#FFE9B1"/>
<path d="M91.38 36.7798C91.38 36.7798 99.38 23.3398 108.66 28.7798C117.94 34.2198 110.58 48.5298 104.27 51.7798C97.96 55.0298 91.38 36.7798 91.38 36.7798Z" fill="#C6A361"/>
<path d="M96 38.1096C96 38.1096 100.53 30.4496 105.85 33.5796C111.17 36.7096 106.94 44.8296 103.35 46.7096C99.76 48.5896 96 38.1096 96 38.1096Z" fill="#FFE9B1"/>
<path d="M59 27.7305C19.45 26.8505 6.22001 75.8104 23.53 104.53C30.31 113.46 42.01 115.46 52.61 117.14C80.07 120.72 108.72 111.57 112.03 81.3205C116.81 51.3505 98.5 27.8405 59 27.7305V27.7305Z" fill="#EAC580"/>
<path d="M64.8 71.8799C52.73 71.8799 47.24 96.8799 53.55 102.6C59.86 108.32 70.83 108.08 76.04 103.15C81.25 98.2199 76.86 71.8799 64.8 71.8799Z" fill="#FFE9B1"/>
<path d="M50.25 62.8098C47.12 65.2898 42.44 65.4898 40.39 61.1398C34.66 60.1398 43.59 68.9598 46.39 67.6498C49.4 68.5798 55.43 62.1198 50.25 62.8098Z" fill="#865625"/>
<path d="M89.69 61.7803C84.92 68.6103 82.37 61.3403 79.6 62.9403C83 74.2503 97.83 61.4103 89.69 61.7803Z" fill="#865625"/>
<path d="M59.86 79.2897C66.03 75.7397 75.41 79.0497 68.27 85.8297C63.5 89.5697 56.46 83.4697 59.86 79.2897Z" fill="#865625"/>
<path d="M70.14 92.3198C68.77 94.3198 66.28 93.7198 65.84 90.6898C63.38 80.5698 65.84 93.1698 62.12 93.3798C54.6 90.2498 61.12 99.9898 65.12 93.9598C66.28 97.9998 75.35 93.1398 70.14 92.3198Z" fill="#865625"/>
<path d="M96.19 71.2004C94.91 70.7204 92.12 70.4204 90.34 71.6804C85.88 72.2704 88.57 78.3904 92.55 78.3404C95.77 78.8704 101.07 73.7004 96.19 71.2004Z" fill="#F48B89"/>
<path d="M39.15 71.2004C37.87 70.7204 35.08 70.4204 33.31 71.6804C28.85 72.2704 31.53 78.3904 35.52 78.3404C38.74 78.8704 44 73.7004 39.15 71.2004V71.2004Z" fill="#F48B89"/>
<path d="M37.69 34.75C36.69 34.5 32.39 38.69 35.5 38.75C35.69 38 40.59 35.65 37.69 34.75Z" fill="#FFE9B1"/>
<path d="M42.5 34.4805C40.05 34.4805 39.29 39.8605 43.37 35.9705C43.68 35.5705 43.67 34.6805 42.5 34.4805Z" fill="#FFE9B1"/>
<path d="M49.91 30.9199C47.54 30.1699 45.12 34.1199 50.14 32.6399C50.74 32.4199 51 31.3499 49.91 30.9199Z" fill="#FFE9B1"/>
<path d="M55.55 31.5699C51.49 31.1399 48.79 36.9199 55.3 33.6699C56.18 33.2599 57.44 32.1499 55.55 31.5699Z" fill="#FFE9B1"/>
<path d="M63.32 31.2501C62.87 30.3401 56.96 29.9601 59.51 32.1401C60.11 31.6701 64.3 33.6801 63.32 31.2501Z" fill="#FFE9B1"/>
<path d="M66.62 33.8197C65.16 32.8197 62.98 36.0597 66.62 35.1897C67 35.0597 67.33 34.4497 66.62 33.8197Z" fill="#FFE9B1"/>
<path d="M78.84 33.1598C77.52 32.2198 74.13 33.9298 78.7 34.1598C79 34.0898 79.27 33.9298 78.84 33.1598Z" fill="#FFE9B1"/>
<path d="M82.16 35.6203C79.34 34.2303 77.16 39.9903 82.86 36.6203C82.86 36.2703 82.79 36.1203 82.16 35.6203Z" fill="#FFE9B1"/>
<path d="M89.2 35.9998C88.1 33.6798 83.81 36.5698 88.57 37.5198C89.06 37.5098 89.59 36.9998 89.2 35.9998Z" fill="#FFE9B1"/>
<path d="M93 40.5998C91.26 38.8598 87.78 42.1498 92.53 42.3398C93.08 42.2498 93.73 41.6098 93 40.5998Z" fill="#FFE9B1"/>
<path d="M99.26 44.4006C99.46 41.5206 93.76 42.2306 97.98 45.4006C98.4 45.5906 99.11 45.4506 99.26 44.4006Z" fill="#FFE9B1"/>
<path d="M99.32 48.8003C97.83 47.1803 96.15 51.1403 99.19 50.2003C99.51 49.8603 99.66 49.7003 99.32 48.8003Z" fill="#FFE9B1"/>
<path d="M99.78 121.84C98.51 122.3 93.78 129.94 98.93 128.02C101.76 127 105.44 121.09 99.78 121.84Z" fill="#EAC580"/>
<path d="M104.18 129C103.78 127.88 96.5699 130 100.43 131.94C101.8 132.51 106.56 131.89 104.18 129Z" fill="#EAC580"/>
<path d="M100.64 155.67C99.5499 152.45 92.0599 151.19 97.3299 157.96C98.8699 159 101 158.13 100.64 155.67Z" fill="#EAC580"/>
<path d="M103.56 150.88C102.72 148.39 95.76 148.94 100.81 152.46C101.62 153 104.07 153.07 103.56 150.88Z" fill="#EAC580"/>
<path d="M33.68 154.34C31.98 154.4 25.56 155.34 28.81 158.78C30.53 160.05 37.91 156.1 33.68 154.34Z" fill="#EAC580"/>
<path d="M34.76 159.26C34.76 159.26 34.78 159.22 34.76 159.26V159.26Z" fill="#EAC580"/>
<path d="M37.55 158.38C37.2837 157.927 36.7731 157.678 36.2526 157.745C35.732 157.813 35.3021 158.185 35.16 158.69C35.1646 158.733 35.1646 158.777 35.16 158.82C35.0315 158.933 34.9203 159.064 34.83 159.21C34.83 159.27 34.47 160.07 34.67 159.63C33.59 162.68 39.26 162.56 37.55 158.38V158.38Z" fill="#EAC580"/>
<path d="M34.16 129.33C33.59 126.23 24.81 125 30.16 129.51C31.26 129.75 33.69 131.39 34.16 129.33Z" fill="#EAC580"/>
<path d="M37.6 125.21C37.96 123.13 33.91 119.9 34.6 124.59C34.67 125.61 37.13 128.46 37.6 125.21Z" fill="#EAC580"/>
<path d="M98 20.1395C97.6 18.9995 95.8 18.7395 94.3 19.9995C88.12 15.3095 87.77 25.9995 94.52 25.2895C96.6746 24.5098 98.0804 22.4295 98 20.1395Z" fill="#F48B89"/>
<path d="M16.72 94.3896C16.35 93.2096 14.55 92.9896 13.05 94.2896C6.87003 89.5996 6.52003 100.29 13.27 99.5796C15.4272 98.7851 16.8225 96.6862 16.72 94.3896V94.3896Z" fill="#F48B89"/>
<path d="M28.58 9.80976C28.0669 9.56766 27.4706 9.57721 26.9656 9.83561C26.4605 10.094 26.1039 10.572 26 11.1298C19.87 10.1298 23.66 17.8098 28.16 14.7698C29.34 13.3737 29.5085 11.3843 28.58 9.80976V9.80976Z" fill="#F48B89"/>
<path d="M120.08 101.06C119.562 100.798 118.951 100.796 118.432 101.057C117.914 101.317 117.549 101.808 117.45 102.38C111.32 101.38 115.11 109.06 119.61 106.02C120.806 104.635 120.995 102.645 120.08 101.06V101.06Z" fill="#F48B89"/>
<path d="M71.8701 166.11C71.0601 165.32 69.5401 165.92 68.8701 167.6C61.8701 166.52 66.26 175.17 71.31 171.74C72.7004 170.184 72.9268 167.909 71.8701 166.11Z" fill="#F48B89"/>
<path d="M122.58 65.1601C122.45 62.3901 117.31 63.7801 120.1 66.7201C121.24 67.3701 122.25 66.7801 122.58 65.1601Z" fill="#FFE9B1"/>
<path d="M10.89 59.17C8.88998 60.06 9.39998 64.29 12.65 63.53C15.72 62.68 14.19 58 10.89 59.17Z" fill="#FFE9B1"/>
<path d="M51.68 7.2897C48.84 7.2197 48.68 12.9597 52.68 11.6997C53.5883 11.1872 54.0525 10.1394 53.8219 9.12239C53.5913 8.10536 52.7205 7.36026 51.68 7.2897V7.2897Z" fill="#FFE9B1"/>
<path d="M65.43 20.1396C64.9722 20.1881 64.6248 20.5743 64.6248 21.0346C64.6248 21.495 64.9722 21.8812 65.43 21.9296C65.8878 21.8812 66.2353 21.495 66.2353 21.0346C66.2353 20.5743 65.8878 20.1881 65.43 20.1396Z" fill="#FFE9B1"/>
<path d="M115.21 8.58982C113.62 8.85982 113.01 12.5898 116.01 12.1698C118.13 11.5798 117.81 8.49982 115.21 8.58982Z" fill="#FFE9B1"/>
<path d="M12.65 6.31971C11.82 5.39971 9.47001 7.54971 11.91 8.10971C12.54 7.99971 13.15 7.43971 12.65 6.31971V6.31971Z" fill="#FFE9B1"/>
<path d="M10.43 124C7.43001 124 8.85001 129.83 12.01 126.76C12.66 125.44 12.21 124.5 10.43 124Z" fill="#FFE9B1"/>
<path d="M22.18 141C21.6277 141 21.18 141.448 21.18 142C21.18 142.552 21.6277 143 22.18 143C22.7323 143 23.18 142.552 23.18 142C23.18 141.448 22.7323 141 22.18 141Z" fill="#FFE9B1"/>
<path d="M14.43 166.91C13.3129 166.987 12.4459 167.915 12.4459 169.035C12.4459 170.155 13.3129 171.083 14.43 171.16C15.5471 171.083 16.4141 170.155 16.4141 169.035C16.4141 167.915 15.5471 166.987 14.43 166.91V166.91Z" fill="#FFE9B1"/>
<path d="M49.93 165.489C49.4882 165.489 49.13 165.847 49.13 166.289C49.13 166.731 49.4882 167.089 49.93 167.089C50.3718 167.089 50.73 166.731 50.73 166.289C50.73 165.847 50.3718 165.489 49.93 165.489Z" fill="#FFE9B1"/>
<path d="M110.18 170.46C107.18 170.46 107.18 175.11 110.18 175.11C113.18 175.11 113.18 170.46 110.18 170.46Z" fill="#FFE9B1"/>
<path d="M126.43 151.75C125.858 151.75 125.395 152.213 125.395 152.785C125.395 153.357 125.858 153.82 126.43 153.82C127.002 153.82 127.465 153.357 127.465 152.785C127.465 152.213 127.002 151.75 126.43 151.75Z" fill="#FFE9B1"/>
<path d="M112.18 120.3C111.352 120.3 110.68 120.971 110.68 121.8C110.68 122.628 111.352 123.3 112.18 123.3C112.716 123.3 113.211 123.014 113.479 122.55C113.747 122.086 113.747 121.514 113.479 121.05C113.211 120.586 112.716 120.3 112.18 120.3Z" fill="#FFE9B1"/>
<path d="M72.68 120.13C71.7632 120.13 71.02 120.873 71.02 121.79C71.02 122.707 71.7632 123.45 72.68 123.45C73.5968 123.45 74.34 122.707 74.34 121.79C74.34 120.873 73.5968 120.13 72.68 120.13Z" fill="#FFE9B1"/>
</svg>
