<svg width="123" height="185" viewBox="0 0 123 185" fill="none" xmlns="http://www.w3.org/2000/svg">
<path d="M0 0H122.85V184.96H0V0Z" fill="white"/>
<path d="M50.54 104.14C50.54 104.14 30.38 149.42 29.89 159.87C29.4 170.32 68 182.26 75.67 176.78C83.34 171.3 88.6 114.59 88.6 114.59L50.54 104.14Z" fill="#C0E7FA"/>
<path d="M67.7801 106.2C49.6401 95.1995 56.5901 90.5295 69.6001 82.6895C73.2501 78.7795 75.1301 68.4695 82.2501 69.4895C89.0001 71.9995 82.8901 77.8495 83.6001 82.2795C84.2201 87.8995 89.5401 92.5295 90.0901 98.4795C91.7701 107.29 72.1901 108.46 67.7801 106.2V106.2Z" fill="#FFE394"/>
<path d="M55.26 91.2001C50.01 93.3401 47.26 102.2 49.04 105.38C50.82 108.56 83.63 118.32 88.35 116.58C93.07 114.84 93.08 104.39 91.09 101.15C89.1 97.9101 62 88.4601 55.26 91.2001V91.2001Z" fill="#4D93CE"/>
<path d="M57 93.0001C55.07 94.8401 51 102.79 53.53 104.49C54.15 103.18 60.49 91.5801 57 93.0001Z" fill="#3D76A5"/>
<path d="M67.36 95.9304C64.47 100.03 63.25 113.93 67.29 101.25C67.13 100.54 69.86 95.3604 67.36 95.9304Z" fill="#3D76A5"/>
<path d="M77.53 100.41C78.11 102.8 74.22 107.85 76.53 109.87C78.73 109.82 80.12 97.3304 77.53 100.41Z" fill="#3D76A5"/>
<path d="M88.29 101.9C86.22 100.14 86.72 105.65 85.56 108.13C82.34 120.12 90 106 88.29 101.9Z" fill="#3D76A5"/>
<path d="M78.91 71.8398C77.81 72.8398 73.67 76.8398 75.41 78.8398C75.86 78.4198 81.17 72.1398 78.91 71.8398Z" fill="#FFF9C5"/>
<path d="M74 80.3197C73 81.6497 75.78 82.9997 75.12 79.9997C74.82 79.8897 74.68 79.8997 74 80.3197Z" fill="#FFF9C5"/>
<path d="M51.1699 111.85C49.9999 114.67 42.9199 123.11 46.6599 124C49.7099 123.7 57.2299 108.63 51.1699 111.85Z" fill="#E9F6FD"/>
<path d="M44.29 126.05C40.98 129.05 43.98 134.48 46.29 126.59C46.2327 126.14 45.9092 125.768 45.4709 125.65C45.0326 125.532 44.5662 125.69 44.29 126.05Z" fill="#E9F6FD"/>
<path d="M57.83 127.77C56.42 126.83 49.75 128.25 52.05 130.91C53.77 131.27 54.8 129.28 57.1 130.3C60.52 137 62.43 129.91 57.83 127.77V127.77Z" fill="#4D93CE"/>
<path d="M75.81 133.05C73.47 128.3 62.57 136.17 72.67 134.05C74.85 134.77 74.67 137.05 74.95 139.44C78.21 141.29 77.87 134.68 75.81 133.05Z" fill="#4D93CE"/>
<path d="M69 143.47C62.64 151.29 58 146.08 57.19 138.59C52.81 139.03 57.72 150.35 62.92 149.94C66.52 151.09 73.59 142.91 69 143.47Z" fill="#4D93CE"/>
<path d="M50.25 132.84C48.68 131.11 43.01 132.54 46.49 136.06C48.59 138.64 55.1 136.12 50.25 132.84Z" fill="#F49189"/>
<path d="M79.66 142.66C78.7498 141.996 77.5884 141.779 76.5 142.07C76.0107 142.069 75.5593 142.333 75.32 142.76C74.07 143.99 75.32 146.37 77.81 146.28C79.38 146.83 82.14 144.69 79.66 142.66V142.66Z" fill="#F49189"/>
<path d="M52 24.17C52.11 25.17 50.42 25.29 49.21 25.17C49.15 26.25 49.21 27.66 49.07 30.38C48.88 30.6 49.32 31.13 48.07 31.64C47.88 31.49 47.59 31.88 46.88 30.7C46.6788 30.0607 46.7215 29.3695 47 28.76C47 27.76 47 27.09 47.11 25.16C45.11 25.16 42.24 25.28 39.37 25.25C39.2188 26.4577 39.1354 27.6729 39.12 28.89C39.2986 29.1992 39.4205 29.5379 39.48 29.89C39.38 30.09 39.74 30.4 38.84 31.1C38.518 31.2219 38.1605 31.209 37.8481 31.0641C37.5357 30.9192 37.2949 30.6546 37.18 30.33C36.82 29.33 37.06 27.46 37.27 25.22C36.6327 25.2406 35.9948 25.2205 35.36 25.16C34.86 25.16 33.07 24.08 35.28 23.01C35.6345 22.8764 36.0255 22.8764 36.38 23.01C36.716 23.0296 37.0502 23.0731 37.38 23.14C37.7872 20.0892 38.0176 17.0174 38.07 13.94C38.22 13.74 37.8 13.12 39.17 12.75C39.33 12.89 39.7 12.47 40.31 13.58C40.24 13.75 40.61 13.89 40.17 14.77C40.17 16.94 39.86 19.52 39.54 23.2C41.54 23.2 43.8 23.13 47.08 23.12C47.15 21.01 47.35 17.21 47.31 13.47C47.31 13.39 47.24 13.37 47.03 12.97C46.9242 12.5747 46.9139 12.16 47 11.76C47.1445 11.3514 47.498 11.0525 47.9248 10.9779C48.3517 10.9033 48.7856 11.0646 49.06 11.4C49.3465 11.9338 49.4846 12.5346 49.46 13.14C49.46 15.56 49.46 18.94 49.23 23.14C50.47 23.52 51.28 22.19 52 24.17V24.17Z" fill="#3D76A5"/>
<path d="M65 27.3498C64.9 27.5298 65.61 27.9698 64.42 28.6998C61.69 29.4898 57.42 32.2098 53.53 29.6998C52.6504 28.7803 52.3233 27.464 52.67 26.2398C53.1719 23.3636 54.8169 20.8132 57.23 19.1698C58.8 18.2698 62.4 18.5698 61.23 22.4298C60.55 24.4298 58.3 26.5198 54.74 27.0198C54.94 27.2998 54.22 27.9098 55.87 28.6198C58.23 29.8098 62.28 25.9198 65 27.3498ZM59.28 21.9298C59.41 21.3598 59.37 20.9798 59.17 20.7998C59.01 20.7998 58.91 20.5498 58.04 20.9098C56.7433 21.8933 55.7686 23.2405 55.24 24.7798C55.45 24.3198 57 25.4098 59.28 21.9298Z" fill="#3D76A5"/>
<path d="M76.19 27.2599C76.07 27.4799 76.73 27.8399 75.48 28.6499C62.85 35.9999 58.48 18.1299 69.48 11.9199C73.7 14.9199 71.14 23.4199 66.83 27.4899C67.1732 27.7602 67.5679 27.9575 67.99 28.0699C70.29 29.0699 73.7 25.5199 76.19 27.2599ZM69.45 16.2599C69.45 15.2599 69.21 14.6999 68.9 14.6299C66.57 16.2399 64.9 21.1599 65.97 25.5199C67.0119 24.3347 67.8867 23.0124 68.57 21.5899C68.59 20.9999 69.27 20.9999 69.45 16.2399V16.2599Z" fill="#3D76A5"/>
<path d="M85.4301 27.2599C85.3001 27.4799 85.9601 27.8399 84.7101 28.6499C72.0801 35.9999 67.7101 18.1299 78.7701 11.9199C82.9901 14.9199 80.4201 23.4199 76.1101 27.4899C76.4532 27.7602 76.848 27.9575 77.2701 28.0699C79.5201 29.0699 82.9401 25.5199 85.4301 27.2599ZM78.6801 16.2599C78.6301 15.2599 78.4401 14.6999 78.1301 14.6299C75.8001 16.2399 74.1301 21.1599 75.2001 25.5199C76.242 24.3347 77.1168 23.0124 77.8001 21.5899C77.8201 20.9999 78.5001 20.9999 78.6801 16.2399V16.2599Z" fill="#3D76A5"/>
<path d="M96.0001 23.5995C95.9201 23.7195 96.1401 23.8995 95.5501 24.3895C95.1451 24.4929 94.7279 24.54 94.3101 24.5295C97.5401 29.9995 81.4501 36.1095 83.4101 26.4495C83.9001 24.5195 86.1501 19.8295 89.6301 21.7395C89.9752 21.6254 90.3443 21.6047 90.7001 21.6795C91.3854 21.7772 92.0296 22.0647 92.5601 22.5095C94.0001 22.9295 95.1201 21.4595 96.0001 23.5995V23.5995ZM92.2801 26.9995C92.5664 26.6115 92.6733 26.1197 92.574 25.6479C92.4746 25.176 92.1785 24.7691 91.7601 24.5295C91.4401 24.5295 91.3801 24.5295 89.7101 24.5295C89.2401 24.3195 88.4101 24.8395 88.1601 23.5895C88.0301 23.5895 88.0901 23.4695 87.5001 23.6995C86.4547 24.4723 85.7402 25.6118 85.5001 26.8895C85.5001 27.7395 85.0601 29.2995 87.1301 29.4995C88.0193 29.5607 88.9105 29.4099 89.7301 29.0595C90.723 28.5715 91.5943 27.8677 92.2801 26.9995V26.9995Z" fill="#3D76A5"/>
<path d="M47.37 56.9199C47.2685 59.485 46.1364 61.9007 44.23 63.6199C40.4841 67.1169 35.9435 69.6498 31 70.9999C30 71.3299 25.11 71.3399 27 68.0999C27.28 68.0999 27.26 67.2999 28.75 67.8599C36.82 68.6799 55.25 53.0199 35.41 52.0999C34.2489 52.179 33.1621 51.5237 32.69 50.4599C32.3651 49.5769 32.6433 48.5851 33.38 47.9999C35.12 46.6999 37 45.9999 39.68 44.1399C40.52 43.4599 40.86 42.8899 40.68 42.4299C40.5 41.9699 39.92 41.6899 38.9 41.5299C36.33 41.2299 33.44 40.8799 29.15 40.1799C29.15 45.0699 28.52 51.1799 28.7 57.2899C28.6872 57.925 29.0582 58.5052 29.64 58.7599C30.1 59.4199 30.79 59.1499 30.29 60.9699C29.95 61.0499 30.2 61.8899 28.24 61.5799C23.08 59.5799 26.53 45.0299 26.05 39.6899C24.57 38.8399 18.15 39.4299 19.23 35.5699C23.91 34.8199 32.5 38.5699 39.33 38.5099C50.06 41.3299 41.81 45.1099 38.15 49.4099C38.69 49.7499 39.04 48.7499 43.45 50.7199C45.45 52.1499 47.12 53.5999 47.37 56.9199V56.9199Z" fill="#3D76A5"/>
<path d="M74.0001 57.8202C74.2628 58.1847 74.3634 58.6413 74.2782 59.0824C74.193 59.5235 73.9296 59.9098 73.5501 60.1502C71.5437 61.2516 69.3613 61.996 67.1001 62.3502C65.3601 62.3002 64.3201 62.8102 62.6901 60.7202C62.2236 60.0043 61.9832 59.1646 62.0001 58.3102C61.8301 58.0902 61.8101 57.6902 61.1001 58.1102C59.5401 59.1102 58.0101 60.6602 55.8301 62.4802C53.9001 64.1702 49.8301 64.5302 49.6701 60.1902C48.2601 56.6202 63.8401 39.4602 66.6101 49.9402C66.0794 50.7354 65.0154 50.9694 64.2001 50.4702C60.4201 48.5902 55.9201 53.6702 53.2601 58.0302C53.3601 58.3202 52.6101 58.3002 53.1801 60.1502C55.4801 61.2602 62.1101 49.4202 64.9801 55.2902C64.8894 56.2263 64.9846 57.1711 65.2601 58.0702C65.8401 58.7102 65.1501 59.0702 67.0601 59.2102C67.5401 59.0202 67.9601 59.3402 72.2001 57.5002C72.5001 57.5402 72.6901 56.8702 74.0001 57.8202Z" fill="#3D76A5"/>
<path d="M87.22 49.4104C88.3 50.8604 88.22 52.8904 86.89 55.5404C85.42 58.8404 81.68 62.3104 77.3 64.8404C76.97 64.8404 76.58 65.7204 75.22 64.4004C74.9084 63.6791 75.0892 62.8396 75.67 62.3104C77.43 61.1004 79.79 59.8904 81.83 57.5804C82.7673 56.5401 83.5519 55.3718 84.16 54.1104C87.16 49.3504 76.9 51.7604 74.93 55.5404C74.87 55.7104 74.93 55.6204 74.65 56.3504C74.5352 57.0692 74.5352 57.8017 74.65 58.5204C69.59 66.2504 71.52 42.4604 72.85 38.8004C73.02 38.3304 73.05 36.0004 75.18 35.9404C75.35 36.1704 76.26 35.5504 76.52 37.2804C76.3983 37.8795 76.193 38.4585 75.91 39.0004C75.1557 43.2673 74.6515 47.5747 74.4 51.9004C76.24 50.0004 79.21 48.9004 82.69 48.2704C84.19 48.1804 85.48 47.9204 87.22 49.4104V49.4104Z" fill="#3D76A5"/>
<path d="M108.74 50.9995C108.841 58.5003 108.133 65.9901 106.63 73.3395C106.2 73.9795 106.63 74.5995 104.78 74.6895C101.95 73.6895 106.58 59.6895 105.64 54.5995C105.64 54.2195 105.29 53.3095 104.29 54.2695C101.781 56.6205 99.1078 58.7894 96.29 60.7595C94.68 61.6095 92.48 62.9895 90.04 61.2495C89.1008 60.406 88.566 59.2019 88.57 57.9395C88.8289 55.127 89.9223 52.4561 91.71 50.2695C92.35 49.8795 92.17 49.3795 93.84 49.7395C94.68 50.2695 95.09 51.2295 93.84 52.6195C86.75 65.1195 100.4 54.7195 104.95 49.6195C105.76 49.1995 105.39 48.7595 107.4 49.0495C108.145 49.4336 108.649 50.1659 108.74 50.9995V50.9995Z" fill="#3D76A5"/>
<path d="M46.1901 81.6703C45.313 82.3701 44.4813 83.125 43.7001 83.9303C38.1001 77.2003 38.3501 88.9303 44.6201 87.6503C45.6401 87.1103 50.8501 80.6103 46.1901 81.6703Z" fill="#F49189"/>
<path d="M15.2701 15.8403C14.9531 16.9172 14.7026 18.0126 14.5201 19.1203C6.25005 16.8003 12.7101 26.2403 17.4001 21.6403C18.0001 20.7503 18.3601 12.0003 15.2701 15.8403Z" fill="#F49189"/>
<path d="M112 35.3002C110.948 35.6975 109.923 36.1618 108.93 36.6902C105.67 28.5602 102.29 39.8502 108.66 40.5102C109.81 40.3102 116.77 35.7202 112 35.3002V35.3002Z" fill="#F49189"/>
<path d="M106.83 114.41C106.038 115.206 105.296 116.051 104.61 116.94C98.28 110.94 99.88 122.57 105.95 120.53C106.9 119.88 111.34 112.83 106.83 114.41Z" fill="#F49189"/>
<path d="M16.05 131.8C15.2581 132.596 14.5167 133.441 13.83 134.33C7.50005 128.28 9.10005 139.95 15.17 137.92C16.13 137.27 20.56 130.21 16.05 131.8Z" fill="#F49189"/>
<path d="M91.9 168.32C90.871 168.76 89.8692 169.26 88.9 169.82C85.35 161.82 82.37 173.21 88.76 173.64C89.89 173.41 96.67 168.58 91.9 168.32Z" fill="#F49189"/>
<path d="M106.08 15.7695C102.96 15.8195 104.36 21.9195 107.69 18.7695C108.38 17.4095 108 16.3195 106.08 15.7695Z" fill="#C0E7FA"/>
<path d="M59.08 3.17969C58.3233 3.17969 57.71 3.79306 57.71 4.54969C57.71 5.30632 58.3233 5.91969 59.08 5.91969C59.8366 5.91969 60.45 5.30632 60.45 4.54969C60.45 3.79306 59.8366 3.17969 59.08 3.17969V3.17969Z" fill="#C0E7FA"/>
<path d="M24.35 27.2399C23.77 24.6499 18.49 25.6299 20.35 29.2399C21.77 30.7999 24.62 30.0499 24.35 27.2399Z" fill="#C0E7FA"/>
<path d="M8.22002 76.73C4.53002 76.05 6.70002 81.73 9.01002 78.37C9.28002 77.94 9.21002 77.22 8.22002 76.73V76.73Z" fill="#C0E7FA"/>
<path d="M63.42 73.5498C62.1774 73.5498 61.17 74.5572 61.17 75.7998C61.17 77.0424 62.1774 78.0498 63.42 78.0498C64.6627 78.0498 65.67 77.0424 65.67 75.7998C65.67 74.5572 64.6627 73.5498 63.42 73.5498Z" fill="#C0E7FA"/>
<path d="M115.33 102.81C114.502 102.81 113.83 103.481 113.83 104.31C113.83 105.138 114.502 105.81 115.33 105.81C116.159 105.81 116.83 105.138 116.83 104.31C116.83 103.481 116.159 102.81 115.33 102.81Z" fill="#C0E7FA"/>
<path d="M104.83 153.8C103.449 153.8 102.33 154.919 102.33 156.3C102.33 157.681 103.449 158.8 104.83 158.8C106.211 158.8 107.33 157.681 107.33 156.3C107.33 154.919 106.211 153.8 104.83 153.8Z" fill="#C0E7FA"/>
<path d="M43 177.43C41.48 178.58 44.43 180.75 45.1 178.3C45.0345 177.838 44.7297 177.444 44.2983 177.266C43.867 177.087 43.3733 177.149 43 177.43Z" fill="#C0E7FA"/>
<path d="M9.64002 151.769C7.20002 149.989 5.48003 155.149 9.31002 155.399C11.14 155.149 11.59 152.819 9.64002 151.769Z" fill="#C0E7FA"/>
<path d="M33.18 110.42C32.1 107.23 26.35 108.55 28.49 112.78C29.2961 113.733 30.6501 114.009 31.7649 113.448C32.8797 112.887 33.4648 111.635 33.18 110.42Z" fill="#C0E7FA"/>
</svg>
