<svg width="123" height="185" viewBox="0 0 123 185" fill="none" xmlns="http://www.w3.org/2000/svg">
<path d="M0 0H122.85V184.96H0V0Z" fill="white"/>
<path d="M75.38 106.65C75.12 95.2601 61.32 97.2101 63.38 108.12C66.76 110.4 73.39 111.92 75.38 106.65Z" fill="#FCB748"/>
<path d="M19.76 74.1298C-0.609963 16.8198 81.11 -19.8702 101.55 37.8198C126.12 111.8 40.13 122.61 19.76 74.1298V74.1298Z" fill="#FFDE4A"/>
<path d="M91.77 34.5801C92.37 27.3701 76.28 10.0001 74.84 16.0001C83 24.6101 90 41.8401 91.77 34.5801V34.5801Z" fill="#FFF479"/>
<path d="M96.31 43.4097C96.54 41.3297 92.52 34.8797 92.21 41.1497C92 43.3697 95.46 47.4297 96.31 43.4097Z" fill="#FFF479"/>
<path d="M75.16 50.7702C70.85 60.1802 59.69 63.3002 56.56 52.7702C56.42 52.2502 55.87 51.8402 54.9 52.3802C52.58 57.9002 61.18 63.0702 66 62.4202C72 63.1402 81 48.8402 75.16 50.7702Z" fill="#A13C24"/>
<path d="M90.09 48.9997C89.7576 48.7837 89.388 48.6311 89 48.5497C86.78 47.1597 79.65 50.5497 84.92 53.3297C87.38 54.6697 93.17 52.1697 90.09 48.9997Z" fill="#F49189"/>
<path d="M45.4299 53.1497C45.0899 51.2797 42.6899 49.7997 39.9999 50.9997C32.4799 53.3797 40.5599 59.5597 44.8099 54.9997C45.4514 54.6258 45.7166 53.8346 45.4299 53.1497Z" fill="#F49189"/>
<path d="M56.08 43.9998C50.56 32.4898 35.42 51.7098 50.4 42.9998C52.2 42.3498 55.25 47.6298 56.08 43.9998Z" fill="#A13C24"/>
<path d="M79.4601 37.7096C76.5801 36.4796 69.4601 43.7096 74.2801 42.8196C75.1849 41.0853 76.9457 39.9648 78.9001 39.8797C80.0524 39.9228 81.0937 40.5788 81.63 41.5996C86 47.1296 84.0001 36.9996 79.4601 37.7096V37.7096Z" fill="#A13C24"/>
<path d="M35.81 10.0995C31.09 10.5695 29.62 4.86952 24.65 8.80952C22.8 7.99952 20.56 6.17952 17.84 7.99952C15.49 8.73952 15.22 11.2795 12.59 11.8495C8.14004 12.0295 5.11004 14.2795 9.03004 15.4495C14.03 16.3495 17.03 14.3395 20.81 11.6295C22.9 14.0095 25.74 12.3595 28.4 11.9295C30 13.9295 39.84 14.2695 35.81 10.0995V10.0995Z" fill="#CBEBFB"/>
<path d="M118.91 20.2696C117.53 16.7796 113.23 16.2696 109.84 18.9296C109.485 18.8251 109.125 18.7416 108.76 18.6796C92.43 17.6096 107.9 25.3696 113.43 20.4796C115 19.0696 118.16 23.4196 118.91 20.2696V20.2696Z" fill="#CBEBFB"/>
<path d="M10.73 41.7996C9.88003 41.9996 7.30003 40.9996 6.78003 43.0496C6.87003 46.6296 15.42 43.8496 10.73 41.7996Z" fill="#CBEBFB"/>
<path d="M41.8 100.659C33.16 100.119 37.94 98.1395 31.74 95.8895C27 97.4995 20.93 92.1295 17.91 97.9995C16.58 97.9995 14.39 98.1795 11.91 98.3595C6.50004 100.969 22.55 102.709 21.3 99.1395C21.53 99.4495 22.02 99.1395 22.77 98.1395C28.51 102.469 25.38 100.229 32.2 99.2095C33.4 105.369 46.09 104.579 41.8 100.659Z" fill="#CBEBFB"/>
<path d="M115.3 95.1399C110.68 95.0599 102.24 93.6999 98.39 96.5499C98.4 99.1999 121.57 99.5199 115.3 95.1399Z" fill="#CBEBFB"/>
<path d="M121.42 61.5397C119.35 57.9097 106.42 54.4497 110.12 61.6797C114.33 56.9397 121.87 68.6297 121.42 61.5397Z" fill="#CBEBFB"/>
<path d="M43.91 111.35C40.91 112.04 30.16 109.45 31.77 113.64C33.76 115.87 50 115.26 43.91 111.35Z" fill="#CBEBFB"/>
<path d="M120.11 118.849C116.78 116.609 110.94 117.709 107.02 116.219C105.43 114.699 104.84 112.839 101.79 112.689C98.6001 112.119 97.3901 114.249 95.1101 114.449C91.3801 111.909 86.26 114.449 84.71 117.939C82.27 118.939 73.5901 115.089 74.1101 119.029C76.9001 121.379 82.9901 121.429 87.1801 121.269C88.5201 120.539 88.44 118.329 90.52 118.169C94.71 118.439 97.2 118.829 100.52 116.169C103.27 114.929 103.13 119.169 106.09 119.999C109.37 120.159 123.62 123.469 120.11 118.849V118.849Z" fill="#CBEBFB"/>
<path d="M18.41 128.999C16.69 129.049 6.51 127.689 10.09 131.439C11.84 132.229 23.26 132.459 18.41 128.999Z" fill="#CBEBFB"/>
<path d="M54.15 159.41C54.0427 161.568 53.0909 163.598 51.5 165.06C48.3259 168.006 44.4817 170.134 40.3 171.26C38.65 172.69 34 168.74 38.44 168.61C44.53 169.61 61.15 156.12 44.06 155.31C43.0782 155.385 42.1562 154.832 41.76 153.93C40.95 151.66 44.98 150.58 47.66 148.63C48.37 148.05 48.66 147.57 48.51 147.18C48.36 146.79 47.87 146.56 47.01 146.42C44.84 146.17 42.4 145.87 38.78 145.28C38.78 149.41 38.25 154.58 38.4 159.72C38.3929 160.254 38.7032 160.741 39.19 160.96C39.3 161.26 40.13 161.2 39.75 162.82C39.45 162.89 39.67 163.6 38.01 163.34C33.76 161.65 36.48 150.59 36.16 144.87C35 144.16 29.6 144.69 30.41 141.39C34.19 140.72 41.41 143.92 47.41 143.87C56.24 145.95 49.55 149.62 46.41 153.07C46.97 153.32 47.67 152.65 50.88 154.17C52.7668 155.271 53.9899 157.231 54.15 159.41V159.41Z" fill="#A13C24"/>
<path d="M71.41 155.67C71.31 155.82 71.59 156.05 70.86 156.67C70.3547 156.805 69.8326 156.865 69.31 156.85C72.81 162.37 58.47 169.91 55.74 162.74C54.62 158.98 58.21 150.86 63.52 153.37C63.9563 153.23 64.4215 153.206 64.87 153.3C65.31 153.54 64.94 152.91 67.17 154.3C68.94 154.83 70.38 153 71.41 155.67ZM66.83 159.91C67.3 159.22 67.66 158.03 66.17 156.83C65.64 156.83 66.4 156.83 63.62 156.83C63.04 156.57 62.01 157.21 61.69 155.65C61.53 155.65 61.61 155.5 60.87 155.79C59.548 156.751 58.6458 158.183 58.35 159.79C58.29 161.28 57.84 162.73 60.35 163.05C61.454 163.092 62.5545 162.901 63.58 162.49C64.8495 161.895 65.9624 161.012 66.83 159.91V159.91Z" fill="#A13C24"/>
<path d="M89.74 154.41C89.8362 160.738 89.2529 167.057 88 173.26C87.64 173.8 88 174.33 86.44 174.4C86.0851 174.32 85.778 174.099 85.5894 173.788C85.4008 173.477 85.3469 173.102 85.44 172.75C86.5139 167.719 87.0901 162.594 87.16 157.45C87.16 157.13 86.87 156.36 86.03 157.17C83.9087 159.154 81.6497 160.985 79.27 162.65C77.92 163.37 76.06 164.53 74 163.06C73.2455 162.323 72.8018 161.325 72.76 160.27C72.9855 157.896 73.9074 155.642 75.41 153.79C75.68 153.69 75.72 153.06 77.21 153.35C80.41 152.08 66.84 171.35 86.58 153.21C86.9 153.12 86.88 152.48 88.64 152.73C88.79 153 89.3 152.6 89.74 154.41V154.41Z" fill="#A13C24"/>
<path d="M58.0001 122.29C57.7501 123.55 56.6001 123.72 51.2901 123.36C51.4101 127.36 50.9801 131.97 50.7301 136.91C51.7301 137.33 55.1901 135.58 56.0701 137.91C55.9801 139.54 53.3401 139.01 50.3601 139.19C50.157 139.487 49.8201 139.665 49.4601 139.665C49.1 139.665 48.7632 139.487 48.5601 139.19C47.7301 139.19 46.7001 139.31 45.0001 139.19C42.2201 138.29 44.8901 136.26 48.4101 136.92C48.6001 132.97 49.0201 128.26 48.9601 123.37C48.2901 123.37 47.4001 123.37 45.9601 123.37C45.5501 123.5 43.8001 124.37 43.3301 122.37C43.5101 122.17 42.9901 121.72 44.4601 121.19C46.0243 120.982 47.6053 120.928 49.1801 121.03C49.3669 120.717 49.7088 120.531 50.0728 120.544C50.4367 120.556 50.7651 120.765 50.9301 121.09C52.3601 121.16 54.5601 121.2 56.8501 121.15C57.0001 121.33 57.5801 121 58.0001 122.29V122.29Z" fill="#A13C24"/>
<path d="M68.4301 130.31C68.2401 130.47 68.7301 131.02 67.3001 131.36C66.4101 131.36 65.3001 131.26 62.8901 131.24C62.9033 133.476 63.1479 135.704 63.6201 137.89C63.5201 138.1 64.0001 138.58 62.8201 139.21C60.3801 139.15 60.8201 134.37 60.5601 131.21H58.3201C57.8401 131.37 55.9401 129.73 58.3201 129H60.5601C60.6162 125.656 61.0251 122.328 61.7801 119.07C61.5501 118.88 61.4401 118.39 62.1501 117.41C62.1501 117.32 62.1501 117.27 62.4001 116.8C62.6001 116.71 62.5601 115.94 63.9301 116.34C64.0301 116.57 64.5001 116.34 64.6601 117.66C64.6601 117.88 64.7601 117.87 64.2601 118.66C63.4178 122.045 62.9583 125.513 62.8901 129C63.5901 129.51 67.5201 128 68.4301 130.31Z" fill="#A13C24"/>
<path d="M69.2001 123.79C69.2001 124.14 67.1001 125.1 67.4501 123.14C67.7369 122.365 67.7822 121.521 67.5801 120.72C67.2907 120.533 67.0888 120.238 67.0201 119.9C67.0901 119.73 66.8001 119.5 67.5101 118.82C67.7001 118.87 67.9001 118.25 68.8601 119.04C68.8101 119.48 70.2101 119.69 69.2001 123.79V123.79Z" fill="#A13C24"/>
<path d="M82.1401 127.71C81.7301 127.97 81.5501 128.71 80.0201 127.71C78.1576 127.986 76.3788 128.669 74.8101 129.71C74.2801 130.06 74.0001 130.39 73.9801 130.71C74.7301 132.04 76.1701 131.81 78.4601 133.59C80.095 135.311 80.2226 137.97 78.7601 139.84C77.3501 141.52 74.7601 145.42 71.2501 144.13C70.8201 143.63 70.2501 143.85 70.5201 142.32C70.7901 142.27 70.6301 141.32 72.2701 141.89C73.6901 142.31 75.2701 140.61 76.8301 138.61C77.2245 138.041 77.4498 137.372 77.4801 136.68C77.5034 136.186 77.3141 135.705 76.9601 135.36C75.8152 134.536 74.5681 133.863 73.2501 133.36C71.2501 132.59 69.8901 130.06 73.3701 127.97C75.4501 127.05 78.8001 124.13 82.0401 126.19C82.0701 126.4 82.6601 126.48 82.1401 127.71V127.71Z" fill="#A13C24"/>
<path d="M29.16 164.41C21.94 164.73 22.34 156.73 16.53 160.03C12.73 157.91 10.53 162.18 9.24003 163.91C2.84003 165.31 10.14 166.91 12.35 164.74C12.4834 163.04 13.6734 162.194 15.92 162.2C16.1604 162.431 16.4924 162.54 16.8227 162.497C17.1531 162.455 17.4463 162.264 17.62 161.98C20.2867 161.86 21.71 162.737 21.89 164.61C21.72 165.6 32.24 167.65 29.16 164.41V164.41Z" fill="#CBEBFB"/>
<path d="M88.66 178.94C85.81 179.26 74.02 176.65 76.06 180.03C77.75 181.09 92.68 181.76 88.66 178.94Z" fill="#CBEBFB"/>
<path d="M118.5 158.82C114.2 156.9 103.28 153.42 101.6 160.11C82.88 159.11 104.6 166.17 104.38 160.28C104.88 159.69 106 159.55 107.67 159.48C112.19 159.08 121.69 164.32 118.5 158.82V158.82Z" fill="#CBEBFB"/>
<path d="M99.66 138.39C98.08 138.24 89.5 135.96 91.06 139.29C92.29 139.87 102.64 141.46 99.66 138.39Z" fill="#CBEBFB"/>
</svg>
