<svg width="123" height="185" viewBox="0 0 123 185" fill="none" xmlns="http://www.w3.org/2000/svg">
<path d="M0 0H122.85V184.96H0V0Z" fill="white"/>
<path d="M77.15 83.4399C135.87 87.4399 112.48 45.01 96.72 53.91C103.31 35.85 80.03 8.79995 71.22 34.91C77.22 20.2 55.91 13.2599 44.59 16.67C36.13 21.38 32.59 33.54 32.67 43.04C28 35.15 22.51 45.52 22.4 51.29C14.4 50.93 7.99996 59.7199 11.25 67.5199C21.94 87.1999 63.1 82.5799 77.15 83.4399Z" fill="#BFDAF1"/>
<path d="M113.88 72.5802C115.34 70.1402 115.15 66.1502 113.88 62.4802C103.17 72.0802 95.31 74.1502 85.63 63.9402C77.88 72.8802 62.63 69.7202 58.82 58.6402C52.18 64.1202 39.59 67.2002 35.02 57.8702C28.45 62.0502 17.4 64.2202 12.91 55.7402C-2.31001 85.3002 63.53 83.7402 77.16 83.4402C90.76 83.3602 106.53 84.9402 113.88 72.5802Z" fill="#AAC9E9"/>
<path d="M60.08 48.8299C55.4 34.8299 37.74 47.2899 45.8 48.9399C47.37 47.4199 47.39 45.9399 50.56 45.5999C55.09 43.8299 58.28 54.6699 60.08 48.8299V48.8299Z" fill="#5EA0C3"/>
<path d="M80.54 43.2699C76.26 41.6199 68.86 50.7699 74.98 49.8199C76.08 47.6099 77.92 45.6699 81.18 46.8899C83.09 47.6699 83.12 49.7299 83.95 51.8899C90.28 53.1799 84.91 42.6399 80.54 43.2699Z" fill="#5EA0C3"/>
<path d="M72.49 59.7104C65.58 65.7104 65.93 62.8504 61.1 58.8604C59.67 59.7004 60.43 60.3303 61.29 62.1003C65.8 72.7603 79.19 58.8304 72.49 59.7104Z" fill="#5EA0C3"/>
<path d="M87.75 55.7403C86.17 54.5903 79.92 56.3803 82.75 59.4803C85 62.3003 93.33 58.7803 87.75 55.7403Z" fill="#F59892"/>
<path d="M43.75 54.0704C42.17 52.9304 35.92 54.7204 38.75 57.8104C41 60.6304 49.33 57.1104 43.75 54.0704Z" fill="#F59892"/>
<path d="M51.82 19.3801C48.6 17.3801 37.82 23.1401 43.43 24.9501C45.25 22.0001 55.35 22.4501 51.82 19.3801Z" fill="#F1F9FD"/>
<path d="M59 21.0001C58.61 18.4801 52.82 20.1001 57.45 22.5501C58.09 22.7901 59.05 22.5201 59 21.0001Z" fill="#F1F9FD"/>
<path d="M89.8 32.5098C89.13 30.8398 84.5 26.7498 82.64 29.2298C82 30.3398 90 35.8798 89.8 32.5098Z" fill="#F1F9FD"/>
<path d="M34.37 106.13C36.04 110.31 31.04 118.13 25.22 113.86C24.04 112.62 23.67 110.78 23.61 108.29C22.02 110.29 21.74 115.12 18.09 116.05C16.9 118.25 13.49 98.4795 17.52 102.82C17.98 102.56 16.98 114.57 19.36 112.88C20.73 110.53 21.91 107.74 23.54 104.48C23.7 104.39 23.6 103.94 24.62 104.02C24.7 104.17 25.14 103.91 25.22 104.91C25.31 106.77 24.7 110.07 26.52 112.54C27.4885 113.375 28.8706 113.53 30 112.93C31.1069 112.379 31.9874 111.459 32.49 110.33C32.8532 109.107 32.8946 107.812 32.61 106.57C32.2703 104.503 31.537 102.52 30.45 100.73C30.45 100.54 29.81 100.39 30.45 99.4096C32 98.1296 33.8 102.84 34.37 106.13Z" fill="#5EA0C3"/>
<path d="M46.1001 112.159C46.0101 112.319 46.6301 112.699 45.6001 113.339C43.2301 114.019 39.5001 116.339 36.1401 114.169C35.3808 113.37 35.0995 112.23 35.4001 111.169C35.9701 109.169 36.3001 107.249 39.4001 105.029C40.7601 104.249 43.8801 104.509 42.8801 107.859C41.874 110.125 39.7105 111.659 37.2401 111.859C37.4101 112.099 36.7901 112.639 38.2401 113.249C40.2201 114.299 43.7401 110.919 46.1001 112.159V112.159ZM41.1001 107.449C41.2201 106.959 41.1801 106.629 41.0101 106.449C40.8401 106.269 40.7901 106.239 40.0101 106.549C38.8879 107.404 38.0455 108.574 37.5901 109.909C37.8501 109.599 39.5201 110.169 41.1301 107.449H41.1001Z" fill="#5EA0C3"/>
<path d="M55.82 112.09C55.71 112.27 56.29 112.59 55.2 113.29C44.31 119.68 40.37 104.19 50.04 98.7695C53.44 101.31 52.04 107.86 47.73 112.28C49.66 114.33 53.49 110.51 55.82 112.09V112.09ZM50 102.51C50 101.63 49.79 101.16 49.52 101.09C47.7 102.09 45.95 106.92 46.97 110.55C47.8789 109.524 48.6397 108.376 49.23 107.14C49.7992 105.665 50.0613 104.089 50 102.51V102.51Z" fill="#5EA0C3"/>
<path d="M67.0001 111.49C66.5801 116.84 44.0001 116.15 59.9401 106.54C60.3926 106.416 60.8654 106.386 61.3301 106.45C61.5301 106.61 61.9901 106.28 62.4101 107.45C62.2701 107.59 62.6301 108 61.5501 108.45C61.1151 108.55 60.6593 108.508 60.2501 108.33C59.8501 108.68 58.7301 108.33 56.7501 111.33C55.3201 114.45 63.0301 113.06 65.8001 111.33C66.0001 111.28 66.2001 110.82 67.0001 111.49V111.49Z" fill="#5EA0C3"/>
<path d="M76.32 108.909C76.25 109.009 76.44 109.169 75.94 109.589C75.5871 109.678 75.2238 109.718 74.86 109.709C77.79 114.309 63.73 119.849 65.42 111.379C65.86 110.219 67.42 105.529 70.82 107.289C71.1236 107.191 71.4477 107.174 71.76 107.239C72.3536 107.323 72.9116 107.573 73.37 107.959C74.53 108.329 75.58 106.999 76.32 108.909V108.909ZM73.13 111.909C73.5767 111.185 73.374 110.237 72.67 109.759C72.4 109.759 72.34 109.759 70.9 109.759C70.74 109.599 69.9 110.079 69.55 108.939C69.44 108.939 69.49 108.839 68.98 109.039C68.0677 109.71 67.4398 110.698 67.22 111.809C67.22 112.549 66.84 113.909 68.64 114.079C69.19 113.969 68.64 114.359 70.9 113.689C71.7731 113.257 72.5359 112.631 73.13 111.859V111.909Z" fill="#5EA0C3"/>
<path d="M100.56 112.759C100.43 112.829 100.56 113.089 99.7201 113.339C99.6743 113.352 99.6258 113.352 99.5801 113.339H99.34C95.83 114.129 93.34 116.089 91.13 109.339C90.95 109.339 90.7701 109.339 89.8601 109.989C88.784 110.823 87.8224 111.794 87.0001 112.879C86.7829 113.189 86.4284 113.373 86.0501 113.373C85.6717 113.373 85.3172 113.189 85.1 112.879C84.81 112.309 84.56 111.259 84.02 109.949C83.929 109.747 83.7019 109.644 83.49 109.709C83.1128 109.786 82.7877 110.023 82.6 110.359C81.84 110.249 76.0801 122.769 77.2801 107.529C77.4201 107.369 77.13 106.899 78.2 106.619C78.32 106.759 78.87 106.359 79.1 107.529C79.1 108.429 79.03 109.529 79.1 111.819C79.3417 111.469 79.6056 111.135 79.8901 110.819C80.5001 110.339 81.69 108.019 83.59 107.549C84.4091 107.454 85.1878 107.928 85.4801 108.699C85.6301 109.079 85.4801 108.699 86.1801 110.579C86.2401 110.579 86.1801 110.989 86.6601 110.649C87.3418 109.908 88.0628 109.203 88.8201 108.539C89.5681 107.76 90.5592 107.259 91.63 107.119C92.34 107.199 92.9401 107.409 93.3301 108.939C93.5206 110.073 93.928 111.16 94.5301 112.139C95.6001 113.009 97.2101 111.739 99.5301 111.489C99.6101 111.419 101.08 111.569 100.56 112.759V112.759Z" fill="#5EA0C3"/>
<path d="M109.37 112.159C109.28 112.319 109.9 112.699 108.87 113.339C106.5 114.019 102.76 116.339 99.41 114.169C98.6452 113.373 98.3631 112.23 98.67 111.169C99.23 109.169 99.57 107.249 102.67 105.029C104.02 104.249 107.15 104.509 106.15 107.859C105.142 110.123 102.98 111.657 100.51 111.859C100.68 112.099 100.05 112.639 101.51 113.249C103.49 114.299 107 110.919 109.37 112.159ZM104.37 107.449C104.48 106.959 104.45 106.629 104.28 106.449C104.11 106.269 104.05 106.239 103.28 106.549C102.153 107.4 101.309 108.571 100.86 109.909C101.12 109.599 102.79 110.169 104.4 107.449H104.37Z" fill="#5EA0C3"/>
<path d="M43.71 146.44C46.05 153.15 38.8 163.44 30.58 157.54C28.97 155.83 28.37 153.34 28.28 149.54C26.42 151.87 25.09 159.8 20.35 160.67C17.9 162.56 14.24 134.32 19.52 141.67C19.92 142.22 19.38 159.93 22.18 156.1C23.96 153.1 25.91 148.58 28.18 144.04C28.41 143.92 28.27 143.27 29.73 143.39C29.85 143.6 30.48 143.23 30.59 144.66C30.7 147.85 29.92 152.17 32.46 155.66C33.85 156.66 34.63 157.19 37.46 156.21C39.047 155.424 40.3021 154.098 41 152.47C41.4813 150.705 41.5429 148.853 41.18 147.06C40.6989 144.095 39.646 141.253 38.08 138.69C38.08 138.4 37.15 138.2 38.01 136.79C40.32 134.69 43.25 142.87 43.71 146.44Z" fill="#5EA0C3"/>
<path d="M61.46 150.419C61.36 150.569 61.64 150.799 60.91 151.419C60.4046 151.554 59.8826 151.614 59.36 151.599C62.85 157.119 48.52 164.659 45.79 157.489C44.67 153.729 48.25 145.609 53.57 148.119C54.0027 147.979 54.4649 147.955 54.91 148.049C55.35 148.289 54.99 147.659 57.22 149.049C59 149.579 60.43 147.749 61.46 150.419V150.419ZM56.88 154.659C57.35 153.969 57.71 152.779 56.22 151.579C55.69 151.579 56.44 151.579 53.67 151.579C53.09 151.319 52.05 151.959 51.74 150.399C51.58 150.399 51.65 150.249 50.91 150.539C49.5917 151.502 48.6932 152.934 48.4 154.539C48.33 156.029 47.88 157.479 50.4 157.799C51.5072 157.841 52.611 157.651 53.64 157.239C54.9058 156.643 56.0152 155.76 56.88 154.659V154.659Z" fill="#5EA0C3"/>
<path d="M75.65 150.749C75.39 150.749 75.55 151.559 74.1 151.129C73.7225 150.92 73.2852 150.846 72.86 150.919C70.722 151.419 68.6903 152.296 66.86 153.509C65.6304 154.155 64.8241 155.393 64.73 156.779C62.54 160.849 61.47 153.779 62.32 150.269C61.75 149.829 62.2 149.609 62.73 148.269C62.95 148.129 62.73 147.549 64.24 147.649C65.62 148.129 64.75 149.939 64.76 152.099C65.0553 151.78 65.3916 151.501 65.76 151.269C68.13 150.199 71.68 147.049 75.51 148.859C75.52 149.149 76.25 149.239 75.65 150.749V150.749Z" fill="#5EA0C3"/>
<path d="M92.12 154.999C92.3107 155.716 91.9255 156.461 91.23 156.719C74.13 166.099 70.94 142.579 83.82 135.869C89.19 139.259 85.82 150.259 80.51 155.269C80.947 155.619 81.4557 155.868 82 155.999C84.76 157.239 89 152.809 92.12 154.999ZM83.72 141.249C83.65 139.989 83.42 139.309 83.03 139.249C80.03 141.109 78.11 147.869 79.37 152.819C80.6664 151.341 81.7594 149.697 82.62 147.929C83.3848 145.783 83.7574 143.517 83.72 141.239V141.249Z" fill="#5EA0C3"/>
<path d="M105.8 152.61C105.96 153.61 104.7 155.87 102.91 153.68C101.1 149.3 94.27 149 91.91 154.68C92.2278 155.6 93.0353 156.265 94 156.4C96.7022 157.045 99.5307 156.927 102.17 156.06C102.43 156.15 102.84 155.57 103.79 156.81C105.12 160.09 88.92 161.01 89.04 154.81C89.86 150.33 98.04 144.4 103.04 149.65C102.71 145.65 102.29 140.52 101.56 135.59C101.68 135.33 101.14 134.66 102.63 133.97C105.42 133.84 105.19 149.09 105.8 152.61Z" fill="#5EA0C3"/>
<path d="M39.7099 127.79C39.5899 127.9 39.9099 128.26 38.9599 128.48C38.3499 128.48 37.5099 128.41 36.0399 128.4C36.0431 129.88 36.2074 131.355 36.5299 132.8C36.4599 132.94 36.7799 133.26 35.9999 133.68C34.5399 133.62 34.6499 131.22 34.4999 128.4H32.9999C32.6799 128.51 31.4299 127.4 32.9999 126.94H34.4799C34.5226 124.728 34.794 122.526 35.2899 120.37C35.1399 120.25 35.0599 119.92 35.5399 119.27C35.5819 119.132 35.6355 118.998 35.6999 118.87C35.8299 118.81 35.8099 118.3 36.6999 118.56C36.7699 118.72 37.0799 118.56 37.1899 119.44C37.1899 119.58 37.2499 119.58 36.9199 120.13C36.3682 122.36 36.063 124.643 36.0099 126.94C36.5099 127.26 39.1099 126.22 39.7099 127.79V127.79Z" fill="#5EA0C3"/>
<path d="M48.64 128.759C48.58 128.839 48.7401 128.979 48.3101 129.329C48.0136 129.41 47.7071 129.447 47.4001 129.439C49.8601 133.439 38.1901 137.949 39.4001 130.839C39.6601 130.069 41.07 125.839 43.96 127.389C44.2218 127.317 44.4983 127.317 44.76 127.389C45.2594 127.459 45.7281 127.67 46.1101 127.999C46.8601 128.219 48.25 127.259 48.64 128.759V128.759ZM45.94 131.249C45.94 130.979 46.7201 130.679 45.5601 129.439C45.3201 129.439 45.28 129.439 44.05 129.439C43.93 129.299 43.23 129.709 42.92 128.749C42.82 128.749 42.87 128.659 42.43 128.829C41.705 129.427 41.2015 130.251 41 131.169C41 131.799 40.6801 132.939 42.2001 133.089C42.8499 133.119 43.4984 133.007 44.1 132.759C44.47 132.399 44.05 133.139 45.94 131.249Z" fill="#5EA0C3"/>
<path d="M63.91 127.79C63.79 127.9 64.11 128.26 63.16 128.48C62.55 128.48 61.7101 128.41 60.2401 128.4C60.2432 129.88 60.4075 131.355 60.73 132.8C60.66 132.94 60.9801 133.26 60.2001 133.68C58.7401 133.62 58.8501 131.22 58.7001 128.4H57.2201C56.9001 128.51 55.6401 127.4 57.2201 126.94H58.7001C58.7377 124.727 59.0092 122.525 59.51 120.37C59.36 120.25 59.2801 119.92 59.7501 119.27C59.7501 119.21 59.75 119.18 59.92 118.87C60.05 118.81 60.03 118.3 60.92 118.56C60.99 118.72 61.3 118.56 61.41 119.44C61.41 119.58 61.47 119.58 61.14 120.13C60.5834 122.359 60.2781 124.643 60.23 126.94C60.7 127.26 63.31 126.22 63.91 127.79V127.79Z" fill="#5EA0C3"/>
<path d="M77 131.14C76.93 131.29 77.42 131.54 76.63 132.14C74.57 133.03 70.56 134.37 69.82 129.97C69.54 129.64 69.64 129.1 68.6 129.69C67.386 130.456 66.291 131.396 65.35 132.48C65.17 132.66 63.9501 133.6 63.6501 132.08C63.6501 128.93 62.9201 125.33 65.1901 121.48C65.3501 121.41 65.33 121 66.27 121.21C66.71 123.15 64.27 126.46 65.09 130.58C65.9792 129.722 66.9544 128.958 68 128.3C69.21 127.58 71.21 127.2 72 131.06C72.64 131.9 74 131.75 76.07 130.82C76.2 130.86 76.39 130.44 77 131.14V131.14Z" fill="#5EA0C3"/>
<path d="M84.7 131.51C84.63 131.64 85.15 131.96 84.28 132.51C82.28 133.09 79.12 135.09 76.28 133.22C75.632 132.546 75.3919 131.578 75.65 130.68C76.0243 128.568 77.2313 126.694 79 125.48C80.15 124.82 82.79 125.04 82 127.87C81.1431 129.779 79.3154 131.07 77.23 131.24C77.38 131.45 76.85 131.9 78.06 132.42C79.9 133.27 82.4 130.56 84.7 131.51V131.51ZM80.51 127.51C80.6 127.09 80.57 126.81 80.42 126.68C80.27 126.55 80.24 126.5 79.59 126.76C79.18 127.33 78.78 126.76 77.59 129.6C78.06 129.37 79.71 129.3 80.51 127.53V127.51Z" fill="#5EA0C3"/>
<path d="M24.43 18.4605C22.86 16.9405 19.88 17.1005 18.18 18.5405C15.34 15.4805 9.11995 21.9305 13.64 23.5405C16.01 20.7705 14.08 19.3105 18.7 22.1005C20.39 19.2905 25.1 21.4505 24.43 18.4605V18.4605Z" fill="#CBEBFB"/>
<path d="M36.6299 11.3201C30.4699 5.19014 23.9399 19.7301 31.3199 12.8501C33.0999 11.7601 36.5899 14.4401 36.6299 11.3201Z" fill="#CBEBFB"/>
<path d="M113.65 33.0003C113.95 28.8103 101.98 28.1303 102.16 32.2703C103.36 34.6003 103.63 30.5903 105.8 31.7503C108.17 33.0003 108.6 31.8703 110.8 32.7503C111.14 33.3503 113.26 35.4203 113.65 33.0003Z" fill="#CBEBFB"/>
<path d="M117.3 43.2702C116.61 41.6802 106.85 39.1402 108.3 43.7602C110.22 44.1402 111.78 43.2302 114.84 44.4402C115.37 46.0002 117.81 46.5602 117.3 43.2702Z" fill="#CBEBFB"/>
<path d="M55.49 89.4002C54.878 88.2099 53.6793 87.4346 52.3427 87.3645C51.0061 87.2945 49.733 87.9403 49 89.0602C46.92 86.3302 40.85 92.3802 45.22 93.0602C47.6 89.7402 47.73 92.6102 52.67 89.8302C53.79 90.3202 55.41 91.8302 55.49 89.4002V89.4002Z" fill="#CBEBFB"/>
<path d="M64.9399 91.6197C61.7899 84.6997 55.2399 96.7697 62.5699 92.0497C63.4299 92.7597 64.7699 93.2997 64.9399 91.6197Z" fill="#CBEBFB"/>
<path d="M27.05 126.16C25.95 125.35 13.96 125.83 20.28 129.02C22.1 129.58 30.79 129.75 27.05 126.16V126.16Z" fill="#5EA0C3"/>
<path d="M100.9 127.83C100.14 125.71 90.64 124.09 91.39 127.92C92.94 128.88 102.12 131.56 100.9 127.83Z" fill="#5EA0C3"/>
<path d="M110.2 164.71C108.368 164.403 106.534 165.243 105.57 166.83C102.57 163.77 96.57 170.61 100.67 172.3C102.59 170.14 101.6 166.95 106.11 169.67C107.72 169.45 107.39 166.99 109.86 167.17C114.17 171.65 114.86 165.6 110.2 164.71Z" fill="#CBEBFB"/>
<path d="M21 176.17C19.6665 174.343 17.1591 173.836 15.22 175C14.4 172 6.97998 175.31 10.81 177.41C13.17 175.1 12.25 175.82 14.98 177.96C16.67 176.96 18.78 175.96 20.08 178.96C20 182.4 24.28 178.87 21 176.17V176.17Z" fill="#CBEBFB"/>
<path d="M31.71 171.19C30.5893 170.797 29.3492 170.953 28.3601 171.61C26.1901 169.24 21 174.24 24.9 174.45C27.03 170.99 26.5301 174.95 30.6901 173.45C31.9001 176.21 34.71 172.68 31.71 171.19V171.19Z" fill="#CBEBFB"/>
<path d="M111.92 97.8599C111.79 98.0087 111.679 98.1733 111.59 98.3499C111.548 98.3996 111.518 98.4576 111.5 98.5199C110.12 96.4399 105.14 101.29 108.88 101.44C109.76 98.8899 110.6 101.01 112.75 100.26C113.94 98.9499 114.33 99.5599 116.01 100.78C119 99.5299 113.93 95.3599 111.92 97.8599V97.8599Z" fill="#CBEBFB"/>
<path d="M10.59 121.19C9.21098 121.097 7.92974 121.905 7.42 123.19C5.48 122.77 2.59 126 3.81 128.7C3.6 128.94 3.81 128.7 3 129.17C3.24 129.36 3 129.26 3.88 128.77C5.48 129.47 4.8 126.87 6.2 125.77C8.62 125.87 8.82 124.29 11.2 123.63H11.49C11.5364 123.637 11.5836 123.637 11.63 123.63C14.12 126.21 14.31 120.57 10.59 121.19V121.19Z" fill="#CBEBFB"/>
<path d="M84 9.23033C82.81 7.62033 79.55 6.52033 77.57 8.70033C75.57 5.47033 67.57 10.8303 72.2 12.0103C75.2 7.71033 75.2 11.5203 78.5 10.9403C79.4 8.07033 84.35 12.6203 84 9.23033V9.23033Z" fill="#CBEBFB"/>
</svg>
