<svg width="123" height="185" viewBox="0 0 123 185" fill="none" xmlns="http://www.w3.org/2000/svg">
<path d="M0 0H122.85V184.96H0V0Z" fill="white"/>
<path d="M75.8 91.6905C117.8 67.5205 92.63 15.2405 49.8 29.2305C2.73 51.0005 32.29 110.47 75.8 91.6905Z" fill="#FFDE4A"/>
<path d="M75.8 91.69C87.2631 86.0248 95.1736 75.0468 96.92 62.38C87.13 69.82 76.44 82.6 63.45 82.2C45.06 79.25 27 56.31 36.22 38.46C7.99997 68.51 42 107.47 75.8 91.69V91.69Z" fill="#FFC649"/>
<path d="M56.25 52.5601C46.79 33.0301 37.31 64.5601 47.14 50.7101C51.24 46.5201 54.51 58.2001 56.25 52.5601Z" fill="#9D6528"/>
<path d="M76.65 45.4303C73.44 44.6203 65.96 52.2403 71.29 52.9103C72.88 50.5803 74.49 47.3803 78.29 48.7503C86.68 62.0603 84.42 44.6303 76.65 45.4303Z" fill="#9D6528"/>
<path d="M78.25 60C73.11 75 53.7 75.67 48.43 62.06C42 68.33 63.18 77.55 68.7 73.93C75.3 73.61 84.77 56.74 78.25 60V60Z" fill="#9D6528"/>
<path d="M64.16 10.3101C59.87 2.81005 55.29 13.6301 59.34 18.9501C63.39 24.2701 64.79 13.0001 64.16 10.3101V10.3101Z" fill="#FFDE4A"/>
<path d="M39.2 21.4296C35.08 15.7996 29.2 17.8696 34.49 24.1396C39.66 29.5096 44.75 26.8896 39.2 21.4296Z" fill="#FFDE4A"/>
<path d="M16.51 36.4502C7.72004 41.3602 31.12 46.3602 20.82 37.6202C19.4616 36.9845 18.0034 36.5887 16.51 36.4502Z" fill="#FFDE4A"/>
<path d="M18 61.0997C15 59.5297 6.46 61.2597 12.09 65.6297C14 66.2797 22.26 64.4897 18 61.0997V61.0997Z" fill="#FFDE4A"/>
<path d="M24.2001 81.6098C22.1501 80.3098 20.1301 82.0698 17.5601 83.5498H17.3601C11.7001 89.6498 21.6301 88.8498 24.2001 83.7098C24.7563 83.1203 24.7563 82.1993 24.2001 81.6098Z" fill="#FFDE4A"/>
<path d="M39.34 98.6797C38.96 101.27 36.52 103.68 37.34 106.29C37.3661 106.393 37.403 106.494 37.45 106.59C37.4459 106.633 37.4459 106.676 37.45 106.72C43 112.36 45.91 91.6897 39.34 98.6797Z" fill="#FFDE4A"/>
<path d="M68.77 110.77C66.93 98.0696 62.15 108.77 63.96 115.34C67 121.7 70.72 115.19 68.77 110.77V110.77Z" fill="#FFDE4A"/>
<path d="M96.55 104.39C94.89 102.94 86.45 91.4596 87.71 99.7196C88.63 104.2 97.78 112.73 96.55 104.39Z" fill="#FFDE4A"/>
<path d="M108.73 81.0003C107.73 78.8203 106.49 78.3803 103.6 76.6903C94.21 72.4203 107.83 88.7003 108.73 81.0003Z" fill="#FFDE4A"/>
<path d="M112.09 51.5703C110.81 50.5703 100.21 51.5103 103.93 55.1803C105.92 56.1303 118.33 54.5503 112.09 51.5703Z" fill="#FFDE4A"/>
<path d="M106.58 28.4802C105.09 27.3102 96.92 31.7202 98.89 33.9902C100.69 34.9402 109.5 30.6002 106.58 28.4802V28.4802Z" fill="#FFDE4A"/>
<path d="M86.58 13.3803C85 14.6403 77.44 24.6903 83.8 23.0003C85.46 21.7703 92.8 11.9003 86.58 13.3803Z" fill="#FFDE4A"/>
<path d="M47.58 157C47.4726 159.158 46.5208 161.188 44.93 162.65C41.7587 165.6 37.9134 167.729 33.73 168.85C32.08 170.28 27.43 166.33 31.87 166.2C37.96 167.2 54.59 153.7 37.49 152.9C36.5109 152.973 35.5925 152.42 35.2 151.52C34.39 149.25 38.42 148.17 41.09 146.22C41.8 145.64 42.09 145.16 41.95 144.77C41.81 144.38 41.31 144.15 40.44 144.01C38.27 143.75 35.84 143.46 32.22 142.87C32.22 147 31.69 152.17 31.84 157.31C31.8301 157.845 32.1413 158.333 32.63 158.55C32.74 158.85 33.57 158.79 33.18 160.41C32.89 160.48 33.1 161.19 31.45 160.93C27.19 159.24 29.91 148.18 29.6 142.46C28.44 141.75 23.03 142.28 23.84 138.98C27.63 138.31 34.84 141.51 40.84 141.46C49.67 143.54 42.98 147.21 39.84 150.66C40.4 150.91 41.11 150.24 44.31 151.76C46.203 152.855 47.4284 154.818 47.58 157V157Z" fill="#9D6528"/>
<path d="M70.05 157.75C70.4695 158.412 70.3033 159.287 69.67 159.75C67.9777 160.679 66.1371 161.309 64.23 161.61C63.17 161.61 61.82 162.02 60.51 160.23C60.43 159.88 60.24 160.39 59.89 158.23C59.75 158.05 59.72 157.7 59.13 158.06C58.13 158.7 56.31 160.36 54.68 161.75C53.05 163.14 49.62 163.48 49.48 159.82C48.3 156.82 61.48 142.32 63.78 151.17C63.5 151.22 63.51 152.17 61.78 151.62C59.78 149.81 52.09 155.13 52.47 159.78C54.65 160.55 59.95 150.78 62.47 155.68C62.3873 156.471 62.469 157.271 62.71 158.03C63.01 158.22 62.55 158.82 64.23 159.03C65.7371 158.751 67.1979 158.263 68.57 157.58C68.79 157.51 69 156.94 70.05 157.75V157.75Z" fill="#9D6528"/>
<path d="M81.21 150.65C81.99 151.52 82.13 153.73 80.94 155.82C79.7 158.61 76.54 161.53 72.84 163.67C72.57 163.67 72.23 164.41 71.08 163.3C71.14 163.07 70.48 162.7 71.46 161.54C73.3717 160.452 75.1248 159.106 76.67 157.54C77.4718 156.663 78.1452 155.677 78.67 154.61C80.86 151.18 73.46 151.89 70.88 155.82C70.88 155.96 70.88 155.89 70.64 156.51C70.5691 157.115 70.5691 157.726 70.64 158.33C66.72 164.58 67.64 146.39 69.13 141.69C69.27 141.3 69.29 139.33 71.13 139.28C71.28 139.47 72.04 138.95 72.27 140.42C72.1545 140.919 71.9799 141.403 71.75 141.86C71.1069 145.461 70.6828 149.098 70.48 152.75C72.4404 151.03 74.8862 149.961 77.48 149.69C78.8042 149.441 80.1707 149.793 81.21 150.65Z" fill="#9D6528"/>
<path d="M99.37 152C99.453 158.328 98.8563 164.648 97.59 170.85C97.23 171.39 97.59 171.92 96.03 171.99C93.73 171.33 97.41 160.06 96.75 155.04C96.75 154.72 96.46 153.95 95.62 154.76C93.4987 156.743 91.2397 158.574 88.86 160.24C87.51 160.96 85.65 162.12 83.59 160.65C82.8354 159.912 82.3918 158.914 82.35 157.86C82.5736 155.482 83.4956 153.224 85 151.37C85.27 151.27 85.31 150.639 86.8 150.929C90 149.649 76.43 168.929 96.17 150.79C96.49 150.7 96.47 150.06 98.23 150.31C98.42 150.61 98.93 150.18 99.37 152V152Z" fill="#9D6528"/>
<path d="M39.7499 128.5C40.8899 131.93 37.4499 138.63 32.0699 134.99C31.7599 134.37 30.8499 134.26 30.7199 130.31C29.7199 131.23 29.1399 136.1 26.0899 136.82C25.0899 138.61 22.2099 122.13 25.5999 125.72C26.0099 125.64 25.1399 135.52 27.1499 134.16C28.1499 132.43 29.3699 129.72 30.6599 127.16C30.7899 127.09 30.7099 126.71 31.5699 126.78C31.6399 126.9 31.9999 126.69 32.0699 127.52C32.1499 129.08 31.6399 131.86 33.1599 133.93C33.974 134.629 35.1338 134.756 36.0799 134.25C37.0095 133.791 37.7515 133.024 38.1799 132.08C38.4696 131.047 38.504 129.959 38.2799 128.91C38.0031 127.169 37.3846 125.501 36.4599 124C36.4599 123.83 35.9199 123.71 36.4599 122.89C37.7599 121.78 39.2799 125.73 39.7499 128.5V128.5Z" fill="#9D6528"/>
<path d="M49.6 133.56C49.53 133.69 50.05 134.01 49.18 134.56C47.4 135.07 43.84 137.17 41.24 135.27C40.5972 134.602 40.3574 133.642 40.61 132.75C40.9829 130.653 42.1828 128.794 43.94 127.59C45.08 126.94 47.7 127.16 46.86 129.97C46.0128 131.866 44.1999 133.15 42.13 133.32C42.27 133.52 41.75 133.97 42.95 134.48C44.82 135.31 47.31 132.61 49.6 133.56V133.56ZM45.43 129.61C45.52 129.19 45.5 128.92 45.35 128.78C45.2 128.64 45.16 128.6 44.52 128.86C44.11 129.43 43.72 128.86 42.52 131.68C43 131.43 44.63 131.37 45.43 129.61V129.61Z" fill="#9D6528"/>
<path d="M57.76 133.5C57.67 133.65 58.15 133.92 57.24 134.5C48.33 139.81 44.58 127.14 52.91 122.31C55.67 124.16 54.65 129.95 50.97 133.66C52.47 135.36 55.28 132.33 57.76 133.5ZM52.85 125.5C52.85 124.76 52.67 124.36 52.44 124.31C51.05 124.94 49.44 129.17 50.3 132.25C51.0647 131.388 51.7074 130.426 52.21 129.39C52.6664 128.131 52.8835 126.798 52.85 125.46V125.5Z" fill="#9D6528"/>
<path d="M67.15 133C66.86 137.37 47.61 137.07 61.23 128.85C61.611 128.746 62.0086 128.719 62.4 128.77C62.56 128.91 62.95 128.64 63.3 129.58C63.19 129.7 63.48 130.04 62.58 130.42C62.2152 130.502 61.8338 130.467 61.49 130.32C60.2312 130.755 59.1818 131.647 58.55 132.82C57.55 135.38 63.45 134.4 66.14 132.82C66.31 132.82 66.47 132.43 67.15 133Z" fill="#9D6528"/>
<path d="M75 130.83C74.94 130.91 75.1 131.05 74.68 131.4C74.3829 131.475 74.0765 131.509 73.77 131.5C76.21 135.44 64.62 139.96 65.85 132.9C66.11 132.13 67.51 127.9 70.38 129.47C70.6384 129.397 70.9116 129.397 71.17 129.47C71.6683 129.536 72.1369 129.744 72.52 130.07C73.2 130.29 74.58 129.34 75 130.83V130.83ZM72.32 133.31C72.32 133.03 73.09 132.74 71.94 131.5C71.7 131.5 71.66 131.5 70.44 131.5C70.32 131.37 69.62 131.77 69.32 130.82C69.22 130.82 69.26 130.73 68.83 130.9C68.0921 131.485 67.574 132.302 67.36 133.22C67.36 133.85 67.04 134.98 68.55 135.13C69.1966 135.16 69.8419 135.047 70.44 134.8C70.83 134.45 70.41 135.18 72.29 133.31H72.32Z" fill="#9D6528"/>
<path d="M95.32 134.06C95.21 134.12 95.32 134.34 94.61 134.54C94.5708 134.551 94.5293 134.551 94.49 134.54H94.29C92.04 135.15 88.86 136.71 87.4 131.2C87.25 131.2 87.1 131.2 86.33 131.74C85.4205 132.46 84.6072 133.293 83.91 134.22C83.7209 134.468 83.4269 134.613 83.115 134.613C82.8032 134.613 82.5092 134.468 82.32 134.22C82.1 133.74 82.32 134.28 81.42 131.76C81.3364 131.595 81.1485 131.512 80.97 131.56C80.6558 131.629 80.3863 131.829 80.23 132.11C78.37 133.76 74.87 141.55 75.75 129.73C75.87 129.59 75.63 129.2 76.53 128.96C76.63 129.08 77.09 128.74 77.29 129.73C77.29 130.53 77.23 131.58 77.29 133.34C77.4829 133.037 77.7039 132.752 77.95 132.49C78.68 132.06 78.46 130.91 81.05 129.75C81.34 129.94 81.67 129.2 82.65 130.75C82.74 130.99 82.8 131.13 83.23 132.32C83.23 132.32 83.23 132.67 83.63 132.38C84.2055 131.756 84.813 131.161 85.45 130.6C86.078 129.953 86.9061 129.537 87.8 129.42C87.99 129.42 88.99 129.67 89.23 130.95C89.3944 131.898 89.7335 132.806 90.23 133.63C91.13 134.36 92.48 133.29 94.42 133.08C94.56 133.12 95.57 132.68 95.32 134.06V134.06Z" fill="#9D6528"/>
<path d="M102.71 133.56C102.64 133.69 103.16 134.01 102.29 134.56C100.51 135.07 96.95 137.17 94.35 135.27C93.7052 134.603 93.4685 133.641 93.73 132.75C94.0984 130.654 95.295 128.794 97.05 127.59C98.19 126.94 100.81 127.16 99.97 129.97C99.1281 131.871 97.3122 133.157 95.24 133.32C95.38 133.52 94.86 133.97 96.06 134.48C97.94 135.31 100.42 132.61 102.71 133.56V133.56ZM98.54 129.61C98.64 129.19 98.61 128.92 98.46 128.78C98.31 128.64 98.28 128.6 97.64 128.86C97.22 129.43 96.83 128.86 95.64 131.68C96.12 131.43 97.75 131.37 98.54 129.61V129.61Z" fill="#9D6528"/>
<path d="M24.28 27.2103C21.66 25.6703 18.36 18.4303 15.28 18.8103C15.28 20.6503 24.65 31.2703 24.28 27.2103Z" fill="#FFC649"/>
<path d="M50.11 18C49.037 15.6704 48.2771 13.2091 47.85 10.68C44 -0.81995 47.42 23.85 50.11 18Z" fill="#FFC649"/>
<path d="M76.1699 7.81955C76.0699 10.1795 72.1699 15.8195 73.9299 17.8995C75.1699 17.3795 79.1699 5.42955 76.1699 7.81955V7.81955Z" fill="#FFC649"/>
<path d="M101.16 18.0996C99.16 19.3396 89.28 26.1896 92.16 27.0396C93.76 24.6596 104.63 18.6896 101.16 18.0996Z" fill="#FFC649"/>
<path d="M114 38.9004C111.53 39.9904 104.07 40.1904 103.17 43.0904C104.65 43.5204 118.29 40.3604 114 38.9004Z" fill="#FFC649"/>
<path d="M118.26 69.2602C115.17 68.2602 107.67 64.1402 105.2 66.1402C106.53 67.5302 120.5 73.1002 118.26 69.2602Z" fill="#FFC649"/>
<path d="M103.72 97.4397C102.14 95.6697 99.53 93.0897 97.49 90.8297C91 85.3897 104 103.38 103.72 97.4397Z" fill="#FFC649"/>
<path d="M83.8 117.82C82.59 114.57 80.54 105.11 77.29 104.64C77.42 106.65 83 121.37 83.8 117.82Z" fill="#FFC649"/>
<path d="M53.43 102.8C53.13 105.8 49.85 111.86 51.67 114.8C53.89 115 56.42 99.4501 53.43 102.8Z" fill="#FFC649"/>
<path d="M27.22 96.7302C25.22 98.6602 13.46 107.73 18.04 107.55C19.81 105.33 32.27 96.2002 27.22 96.7302V96.7302Z" fill="#FFC649"/>
<path d="M18.1 70.8305C17.41 70.1205 13.32 72.6705 9.60003 72.9105C2.79003 74.6805 19.62 74.5105 18.1 70.8305Z" fill="#FFC649"/>
<path d="M18.66 50.7201C17 50.4401 11.17 47.0901 10 49.6001C10.76 50.1201 20.76 53.3601 18.66 50.7201Z" fill="#FFC649"/>
<path d="M36.3799 115.52C32.5581 114.052 28.4673 113.415 24.3799 113.65C21.4799 110.49 16.0099 110.75 14.5699 115.4C1.00994 112.87 13.7099 120.29 16.8199 116.66C17.5866 113.92 19.3766 113.354 22.1899 114.96C23.3199 118.28 26.1899 116.06 29.3499 116.05C30.7299 116.21 38.5299 118.8 36.3799 115.52Z" fill="#D1EDFB"/>
<path d="M116.39 113.151C115.773 112.929 115.141 112.749 114.5 112.611C113.68 108.851 105.5 106.991 105.14 112.011C94.14 110.321 92.14 113.461 104.79 113.961C108.09 114.761 107.38 108.211 112.56 112.371C109.2 114.071 118.71 116.521 116.39 113.151Z" fill="#D1EDFB"/>
<path d="M12.73 144.15C11.73 144.22 6.72999 142.15 7.20999 145.15C7.36999 146.51 15.19 146.45 12.73 144.15Z" fill="#D1EDFB"/>
<path d="M75.83 176.65C72.97 176.23 69.51 176.65 65.38 176.31C63.89 174.36 61.38 171.75 57.89 174.14C55.03 176.06 52.44 174.55 49.23 174.93C46.53 175.35 46.06 178.45 43.6 178.48C40.02 179.32 31.33 176.48 32.32 179.56C37.93 179.66 45.32 183.56 50.14 177.36C53.71 177.36 54.85 178.36 61.14 175.03C63.08 174.95 62.14 177.55 63.61 178.53C65.42 179 80.35 179.87 75.83 176.65V176.65Z" fill="#D1EDFB"/>
<path d="M114.16 148.42C112.16 148.71 103.03 145.26 104.29 149.18C105.53 150.27 118.08 151.48 114.16 148.42Z" fill="#D1EDFB"/>
<path d="M36 12.1805C33 8.89051 31.4699 6.73051 28.2299 9.00051C23.5799 3.64051 22.59 8.29051 19.13 10.4305C16.86 10.5205 11.87 8.88051 9.19995 10.6205C9.63995 13.5205 15.66 12.2105 18.63 13.3505C22.32 14.6105 22.4 11.6505 24.75 10.3505C28.42 12.7205 27.55 11.8505 31.68 11.1305C33.34 11.1905 35.87 15.0605 36 12.1805Z" fill="#D1EDFB"/>
<path d="M40.4899 13C40.4623 13 40.4399 13.0224 40.4399 13.05C40.4399 13.0776 40.4623 13.1 40.4899 13.1C40.5078 13.1 40.5243 13.0905 40.5332 13.075C40.5422 13.0595 40.5422 13.0405 40.5332 13.025C40.5243 13.0095 40.5078 13 40.4899 13Z" fill="#D1EDFB"/>
<path d="M114.51 9.72013C113.887 7.93271 112.396 6.58532 110.556 6.1443C108.715 5.70328 106.776 6.22923 105.41 7.54013C103.85 7.81013 98.1 6.15013 97.25 8.99013C98.64 10.7701 101.03 8.94013 104.1 9.78013C106.36 10.9001 107.7 9.42013 109.58 8.40013C111.75 8.91013 113.63 12.9301 114.51 9.72013V9.72013Z" fill="#D1EDFB"/>
<path d="M117.49 17.0498C116.595 17.0498 115.87 17.7751 115.87 18.6698C115.87 19.5645 116.595 20.2898 117.49 20.2898C118.385 20.2898 119.11 19.5645 119.11 18.6698C119.11 17.7751 118.385 17.0498 117.49 17.0498Z" fill="#D1EDFB"/>
<path d="M51.16 24.0005C48.84 23.4705 49.7 28.0005 52.31 26.0005C52.4899 25.5835 52.4625 25.1061 52.2361 24.7124C52.0098 24.3187 51.6109 24.0548 51.16 24.0005Z" fill="#D1EDFB"/>
<path d="M8.91998 25.9997C8.70998 23.8497 4.74998 24.6297 5.59998 27.5197C6.42998 29.4597 9.17998 28.1897 8.91998 25.9997Z" fill="#D1EDFB"/>
<path d="M100.41 69.1506C98.55 68.4106 96.95 72.1506 100.26 72.2306C100.939 72.0476 101.422 71.4475 101.457 70.7452C101.491 70.0429 101.068 69.3987 100.41 69.1506Z" fill="#D1EDFB"/>
<path d="M113.57 97.7504C111.47 99.1804 114.19 102.95 116.72 100.92C118.84 99.0804 116 95.9304 113.57 97.7504Z" fill="#D1EDFB"/>
<path d="M59.1599 121.2C58.3499 118.58 53.3799 121.4 57.4899 123.27C58.2299 123.17 59.0899 122.74 59.1599 121.2Z" fill="#D1EDFB"/>
<path d="M8.33997 97.2305C6.02997 97.6205 7.33997 102.43 10.19 100.23C11.45 99.0005 10.35 97.2505 8.33997 97.2305Z" fill="#D1EDFB"/>
<path d="M17.4899 143.48C16.8327 143.48 16.2999 144.013 16.2999 144.67C16.2999 145.328 16.8327 145.86 17.4899 145.86C18.1471 145.86 18.6799 145.328 18.6799 144.67C18.6799 144.013 18.1471 143.48 17.4899 143.48Z" fill="#D1EDFB"/>
<path d="M14.16 170.38C13.2653 170.38 12.54 171.105 12.54 172C12.54 172.895 13.2653 173.62 14.16 173.62C15.0547 173.62 15.78 172.895 15.78 172C15.78 171.105 15.0547 170.38 14.16 170.38Z" fill="#D1EDFB"/>
<path d="M91.49 143.44C90.8107 143.44 90.26 143.991 90.26 144.67C90.26 145.35 90.8107 145.9 91.49 145.9C92.1693 145.9 92.72 145.35 92.72 144.67C92.72 143.991 92.1693 143.44 91.49 143.44Z" fill="#D1EDFB"/>
<path d="M108.49 170.5C105.27 170.5 105.27 175.5 108.49 175.5C111.71 175.5 111.72 170.5 108.49 170.5Z" fill="#D1EDFB"/>
<path d="M73.83 168C72.26 167.92 72.05 171.66 74.61 170.44C74.9998 170.062 75.1417 169.496 74.9764 168.979C74.811 168.461 74.3669 168.082 73.83 168Z" fill="#D1EDFB"/>
</svg>
