<svg width="123" height="185" viewBox="0 0 123 185" fill="none" xmlns="http://www.w3.org/2000/svg">
<path d="M0 0H122.85V184.96H0V0Z" fill="white"/>
<path d="M37.46 39.7695C37.46 39.7695 35.74 48.7695 35.67 50.3195C35.6 51.8695 24.08 45.9395 17 54.8295C9.91999 63.7195 6.99999 75.5795 24.6 81.3295C42.2 87.0795 52.6 89.0295 59.97 84.3295C67.34 79.6295 73.45 49.8795 69.79 44.9995C66.13 40.1195 37.46 39.7695 37.46 39.7695V39.7695Z" fill="#7FAADA"/>
<path d="M41.59 28.35C14.07 43.64 60.92 51.42 69.26 50.27C73.71 50.78 78.42 39.46 73.62 34.44C68.06 29.25 50.56 25.87 41.59 28.35V28.35Z" fill="#6890AC"/>
<path d="M41.89 32.1201C39.72 26.7501 35.25 43.8101 39.89 39.5601C39.729 36.9286 40.4312 34.3163 41.89 32.1201Z" fill="#9FBCDD"/>
<path d="M50.49 31.8296C48.61 29.9996 49 34.9996 48.6 37.1896C47.61 51.8996 52 36.7496 50.49 31.8296Z" fill="#9FBCDD"/>
<path d="M61.19 32.9998C58.63 31.3498 60.48 36.4998 59.85 38.8398C58.36 53.9998 64.25 37.3198 61.19 32.9998Z" fill="#9FBCDD"/>
<path d="M71.1199 35.7602C69.7999 34.7602 69.5899 35.9302 69.7199 38.4802C66.1899 53.1902 73.7899 41.8902 71.1199 35.7602Z" fill="#9FBCDD"/>
<path d="M69.58 62.1201C57.89 64.6601 44.47 73.0201 42.12 86.1201C62 90.0701 65.33 80.4501 69.58 62.1201V62.1201Z" fill="#D1EDFB"/>
<path d="M46.44 81.6501C45.95 80.1901 42.96 83.7701 45.24 84.3201C46.1642 83.7732 46.6446 82.7043 46.44 81.6501Z" fill="#799DBA"/>
<path d="M49 76.1299C46.77 76.8299 46.74 81.2899 49.59 76.9999C49.73 76.7099 49.79 76.4399 49 76.1299Z" fill="#799DBA"/>
<path d="M53.51 70.8896C51.11 71.7696 50.72 76.5197 54.51 71.7197C54.57 71.3397 54.57 70.9996 53.51 70.8896Z" fill="#799DBA"/>
<path d="M60.09 67.1299C56.53 67.7799 54.95 72.6699 60.67 67.9799C60.85 67.7099 60.9 67.4599 60.09 67.1299Z" fill="#799DBA"/>
<path d="M66.08 64.8904C63.91 64.7704 63.17 68.7204 66.57 65.8904C66.69 65.6004 66.76 65.3304 66.08 64.8904Z" fill="#799DBA"/>
<path d="M17.1 60.8896C17.03 60.8896 17 60.9996 17.1 61.0096C17.2 61.0196 17.18 60.9096 17.1 60.8896Z" fill="#B3DDF6"/>
<path d="M23.72 53.5503C21.16 52.9703 14.94 60.2803 18.42 61.0803C19.06 58.0003 26.42 54.5303 23.72 53.5503Z" fill="#B3DDF6"/>
<path d="M29 52.12C27.36 51.39 24.91 54.57 29.09 53.33C29.42 53.15 29.68 52.61 29 52.12Z" fill="#B3DDF6"/>
<path d="M63.12 48.2103C64.24 51.2103 69.96 58.8403 67.12 58.6603C50.76 64.7703 54.66 86.9403 65.06 90.1403C79.29 93.1403 104.51 77.5703 106.21 73.4103C113.65 67.1103 100.94 39.5303 93.15 33.2103C89.64 28.2503 63.33 48.0503 63.12 48.2103V48.2103Z" fill="#96BEE4"/>
<path d="M59.38 36.6602C45.38 67.1602 97.49 40.5702 96.33 33.3702C95.34 10.6202 67 27.3602 59.38 36.6602V36.6602Z" fill="#799DBA"/>
<path d="M61.93 39.4504C57 36.5704 63.65 52.6504 64.88 46.5804C63.1468 44.5881 62.1111 42.0848 61.93 39.4504V39.4504Z" fill="#9FBCDD"/>
<path d="M68.55 33.9995C65.92 33.6895 69.34 37.4395 70.34 39.3995C78.15 51.2295 73.09 37.1895 68.55 33.9995Z" fill="#9FBCDD"/>
<path d="M77.72 28.3096C74.66 28.7096 80.02 32.1396 80.72 34.6696C88.11 45.8696 82.53 29.5896 77.72 28.3096V28.3096Z" fill="#9FBCDD"/>
<path d="M87.2501 24.4102C85.6001 24.4102 86.1401 25.4702 87.8101 27.4102C94.3001 41.4702 92.9201 27.3902 87.2501 24.4102Z" fill="#9FBCDD"/>
<path d="M102.2 46.1699C94.49 55.3999 89.07 70.1699 95.2 81.9899C113.48 72.7699 110 63.2299 102.2 46.1699V46.1699Z" fill="#D1EDFB"/>
<path d="M95.9 75.7901C94.61 74.9301 94.45 79.5901 96.59 78.6301C96.9823 77.6327 96.7062 76.4964 95.9 75.7901Z" fill="#799DBA"/>
<path d="M94.5399 69.85C93.4399 70.4 95.2599 75.45 95.5399 71.28C95.4699 71.06 95.9099 69.2 94.5399 69.85Z" fill="#799DBA"/>
<path d="M94.89 63C93.55 65 96.1 69.39 96.15 63.07C96 62.62 95.54 62.33 94.89 63Z" fill="#799DBA"/>
<path d="M97.78 56.0003C95.36 58.6903 97.12 63.5203 98.78 56.3103C98.73 55.9403 98.61 55.7103 97.78 56.0003Z" fill="#799DBA"/>
<path d="M101.13 50.5002C99.34 51.7402 101.19 55.3102 102.13 50.9702C102.05 50.6902 101.94 50.4402 101.13 50.5002Z" fill="#799DBA"/>
<path d="M60 77.3799C59.9781 77.3894 59.964 77.411 59.964 77.4349C59.964 77.4587 59.9781 77.4803 60 77.4899C60.0219 77.4803 60.036 77.4587 60.036 77.4349C60.036 77.411 60.0219 77.3894 60 77.3799Z" fill="#B3DDF6"/>
<path d="M60.7199 67.5197C58.4699 68.7697 57.7199 77.5797 61.0599 76.8797C61.4199 74.8097 60.0599 72.5497 61.4499 69.7597C61.9999 68.7497 62.6799 67.2197 60.7199 67.5197V67.5197Z" fill="#B3DDF6"/>
<path d="M64 63.1504C62.62 63.2304 62.05 67.3204 64.36 64.6204C64.88 64.0604 65.38 63.4104 64 63.1504V63.1504Z" fill="#B3DDF6"/>
<path d="M68.29 56.35C67.29 55.08 66.98 52.41 65.51 50.87C56.94 50.4 55.2 41.87 60.51 35.98C61.78 33.77 67.18 31.32 64.9 30.5C54.64 36.42 51.29 51.5 65.09 52.34C65.14 53.05 66.66 58.55 68.29 56.35Z" fill="#436280"/>
<path d="M65.25 59.5801C46.51 63.3201 60.04 91.5001 59.25 83.8601C55.69 71.0001 56.37 66.5101 65.25 59.5801Z" fill="#436280"/>
<path d="M48.63 116.37C48.74 117.37 47.05 117.5 45.83 117.37C45.83 118.45 45.83 119.86 45.7 122.58C45.51 122.8 45.95 123.33 44.7 123.84C44.51 123.69 44.21 124.08 43.51 122.9C43.3015 122.268 43.33 121.582 43.59 120.97C43.59 120.02 43.59 119.3 43.7 117.37C41.7 117.37 38.83 117.49 35.96 117.46C35.8188 118.672 35.7387 119.89 35.72 121.11C35.8965 121.419 36.0151 121.758 36.07 122.11C35.98 122.31 36.34 122.62 35.44 123.32C35.118 123.442 34.7604 123.429 34.4481 123.284C34.1357 123.139 33.8949 122.875 33.78 122.55C33.41 121.55 33.65 119.68 33.86 117.44C33.2261 117.461 32.5914 117.441 31.96 117.38C31.46 117.38 29.67 116.3 31.87 115.23C32.2282 115.098 32.6219 115.098 32.98 115.23C33.3331 115.249 33.6842 115.296 34.03 115.37C34.4367 112.316 34.6671 109.241 34.72 106.16C34.87 105.96 34.44 105.34 35.81 104.97C35.98 105.11 36.34 104.69 36.96 105.8C36.89 105.97 37.26 106.11 36.82 106.99C36.82 109.17 36.51 111.75 36.19 115.42C38.19 115.42 40.45 115.35 43.73 115.34C43.79 113.23 44 109.43 43.95 105.69C43.95 105.61 43.89 105.59 43.68 105.19C43.5517 104.79 43.5209 104.365 43.59 103.95C43.7426 103.546 44.0971 103.253 44.5223 103.179C44.9475 103.105 45.3801 103.261 45.66 103.59C45.9453 104.124 46.0801 104.725 46.05 105.33C46.11 107.75 46.05 111.13 45.83 115.33C47.06 115.72 47.87 114.4 48.63 116.37V116.37Z" fill="#436280"/>
<path d="M61.59 119.55C61.49 119.73 62.2 120.17 61.01 120.9C58.28 121.69 54.01 124.41 50.12 121.9C49.2385 120.986 48.9108 119.671 49.26 118.45C49.7594 115.57 51.4046 113.016 53.82 111.37C55.38 110.47 58.98 110.78 57.82 114.63C57.13 116.63 54.89 118.72 51.32 119.22C51.52 119.5 50.8 120.12 52.46 120.82C54.82 122 58.87 118.12 61.59 119.55V119.55ZM55.87 114.13C56 113.56 55.96 113.18 55.76 113C55.6 113 55.5 112.75 54.62 113.11C53.3264 114.103 52.3556 115.456 51.83 117C52 116.52 53.56 117.61 55.87 114.13Z" fill="#436280"/>
<path d="M72.78 119.46C72.65 119.68 73.32 120.04 72.06 120.85C59.44 128.2 55.06 110.33 66.12 104.13C70.34 107.13 67.78 115.62 63.47 119.69C63.8098 119.965 64.2057 120.163 64.63 120.27C66.88 121.27 70.29 117.72 72.78 119.46V119.46ZM66.04 108.46C65.98 107.46 65.8 106.9 65.49 106.83C63.16 108.45 61.49 113.36 62.55 117.72C63.5996 116.538 64.4782 115.216 65.16 113.79C65.17 113.21 65.85 113.22 66 108.44L66.04 108.46Z" fill="#436280"/>
<path d="M82.0001 119.46C81.8801 119.68 82.5401 120.04 81.2801 120.85C68.6601 128.2 64.2801 110.33 75.3401 104.13C79.5601 107.13 77.0001 115.62 72.6901 119.69C73.0333 119.96 73.428 120.157 73.8501 120.27C76.1101 121.27 79.5201 117.72 82.0001 119.46ZM75.2601 108.46C75.2001 107.46 75.0201 106.9 74.7101 106.83C72.3801 108.45 70.7101 113.36 71.7701 117.72C72.8197 116.538 73.6982 115.216 74.3801 113.79C74.4101 113.21 75.0901 113.22 75.2701 108.44L75.2601 108.46Z" fill="#436280"/>
<path d="M92.54 115.8C92.46 115.92 92.69 116.1 92.1 116.59C91.695 116.692 91.2778 116.74 90.86 116.73C94.13 122.21 78 128.31 80 118.65C80.5 116.72 82.74 112.03 86.22 113.94C86.5689 113.827 86.9409 113.806 87.3 113.88C87.9819 113.979 88.6227 114.266 89.15 114.71C90.55 115.13 91.71 113.66 92.54 115.8V115.8ZM88.87 119.2C89.1555 118.81 89.2609 118.318 89.1596 117.846C89.0583 117.374 88.7601 116.968 88.34 116.73C88.02 116.73 87.97 116.73 86.34 116.73C85.87 116.52 85.04 117.04 84.79 115.79C84.66 115.79 84.72 115.67 84.13 115.9C83.0786 116.667 82.3625 117.809 82.13 119.09C82.13 119.94 81.69 121.5 83.76 121.7C84.6493 121.761 85.5404 121.61 86.36 121.26C87.3369 120.764 88.1936 120.061 88.87 119.2Z" fill="#436280"/>
<path d="M44.0001 149.12C43.8993 151.687 42.7629 154.104 40.8501 155.82C37.0896 159.312 32.5349 161.834 27.5801 163.17C26.5801 163.5 21.7001 163.51 23.5801 160.27C23.8701 160.27 23.8401 159.47 25.3401 160.03C33.4101 160.85 51.8301 145.19 32.0001 144.27C30.8382 144.352 29.7498 143.696 29.2801 142.63C28.9599 141.75 29.2377 140.763 29.9701 140.18C31.7101 138.9 33.5501 138.24 36.2601 136.34C37.1001 135.67 37.4401 135.09 37.2601 134.63C37.0801 134.17 36.5001 133.9 35.4701 133.73C32.9101 133.43 30.0201 133.08 25.7301 132.38C25.7301 137.27 25.1001 143.38 25.2801 149.49C25.2616 150.126 25.6345 150.709 26.2201 150.96C26.6701 151.63 27.3601 151.35 26.8701 153.17C26.5201 153.25 26.7701 154.09 24.8201 153.78C19.6501 151.78 23.1101 137.23 22.6201 131.89C21.1501 131.04 14.7301 131.63 15.8001 127.77C20.4901 127.03 29.0701 130.77 35.9101 130.71C46.6401 133.53 38.3901 137.31 34.7301 141.61C35.2601 141.95 35.6101 140.95 40.0201 142.92C42.0001 144.35 43.7001 145.8 44.0001 149.12V149.12Z" fill="#436280"/>
<path d="M70.5801 150C70.8399 150.365 70.9388 150.821 70.8537 151.261C70.7687 151.701 70.5072 152.088 70.1301 152.33C68.1224 153.43 65.9408 154.178 63.6801 154.54C61.9401 154.48 60.8901 154.99 59.2701 152.9C58.7871 152.189 58.5292 151.349 58.5301 150.49C58.3701 150.28 58.3401 149.87 57.6401 150.29C56.0801 151.34 54.5401 152.84 52.3701 154.66C50.4401 156.35 46.3701 156.66 46.2001 152.37C44.8001 148.8 60.3801 131.64 63.1501 142.12C62.6194 142.915 61.5554 143.149 60.7401 142.65C56.9601 140.77 52.4601 145.86 49.8001 150.21C49.8901 150.5 49.1401 150.48 49.7101 152.33C52.0201 153.44 58.6501 141.6 61.5101 147.47C61.4248 148.407 61.5233 149.351 61.8001 150.25C62.3701 150.89 61.6901 151.25 63.6001 151.39C64.0801 151.2 64.4901 151.52 68.7401 149.68C69.0801 149.75 69.2801 149.07 70.5801 150V150Z" fill="#436280"/>
<path d="M83.81 141.61C84.88 143.06 84.81 145.09 83.48 147.74C82.01 151.04 78.27 154.51 73.89 157.05C73.56 157 73.17 157.92 71.8 156.6C71.5008 155.877 71.68 155.045 72.25 154.51C74.02 153.3 76.38 152.09 78.42 149.78C79.3574 148.739 80.1419 147.571 80.75 146.31C83.75 141.56 73.48 143.96 71.52 147.74C71.46 147.91 71.52 147.82 71.23 148.55C71.1315 149.27 71.1315 150 71.23 150.72C66.17 158.45 68.11 134.66 69.43 131C69.61 130.53 69.63 128.2 71.76 128.14C71.94 128.37 72.84 127.75 73.11 129.49C72.9798 130.083 72.7748 130.658 72.5 131.2C71.7441 135.466 71.2432 139.774 71 144.1C72.83 142.2 75.81 141.1 79.29 140.47C80.78 140.38 82.07 140.12 83.81 141.61V141.61Z" fill="#436280"/>
<path d="M105.33 143.21C105.43 150.707 104.723 158.194 103.22 165.54C102.78 166.18 103.22 166.8 101.37 166.89C98.5401 165.89 103.17 151.89 102.22 146.8C102.22 146.42 101.87 145.51 100.88 146.47C98.3729 148.823 95.6993 150.992 92.8801 152.96C91.2701 153.81 89.0701 155.2 86.6401 153.45C85.6927 152.616 85.1559 151.411 85.1701 150.15C85.427 147.334 86.5206 144.659 88.3101 142.47C88.9501 142.08 88.7701 141.58 90.4301 141.94C91.2801 142.47 91.6901 143.43 90.4301 144.82C83.3401 157.32 97.0001 146.92 101.55 141.82C102.36 141.39 101.98 140.95 103.99 141.24C104.739 141.631 105.242 142.37 105.33 143.21V143.21Z" fill="#436280"/>
<path d="M18 38.2305C15.94 38.3105 16.23 40.2305 15 42.3905C14.312 42.3167 13.618 42.3167 12.93 42.3905H12.82C12.7234 42.3562 12.6223 42.336 12.52 42.3305H12.44C9.43998 42.6905 11.55 46.1405 14.3 46.5805C15.2191 47.1494 16.3809 47.1494 17.3 46.5805C18.01 46.3605 18.6 45.7705 18.89 44.3705C18.89 44.2405 18.89 44.1105 18.94 43.9805C19.09 43.2205 21.09 39.0005 18 38.2305V38.2305Z" fill="#F48F93"/>
<path d="M118 83.6598C116.61 82.1398 115.35 83.5798 112.89 84.0598C112.499 83.4882 112.05 82.9587 111.55 82.4798C111.55 82.4198 111.49 82.3998 111.55 82.4798C111.514 82.3826 111.464 82.2915 111.4 82.2098V82.1498C109.21 80.1498 107.92 83.9298 109.4 86.3198C109.531 87.431 110.321 88.3523 111.4 88.6498C112.02 89.0398 112.85 89.1098 114.11 88.4398L114.44 88.2198C114.9 87.6998 119.42 86.5098 118 83.6598V83.6598Z" fill="#F48F93"/>
<path d="M23.77 114.26C22.46 112.68 21.13 114.05 18.65 114.4C18.284 113.81 17.8621 113.258 17.39 112.75C17.39 112.69 17.33 112.67 17.34 112.75C17.29 112.66 17.26 112.56 17.2 112.47L17.15 112.41C15.07 110.26 13.58 114 14.9 116.41C14.9659 117.515 15.6927 118.471 16.74 118.83C17.34 119.26 18.17 119.37 19.46 118.76C19.5734 118.69 19.6902 118.627 19.81 118.57C20.44 118.14 25 117.18 23.77 114.26V114.26Z" fill="#F48F93"/>
<path d="M64.81 167.57C62.97 166.65 62.31 168.44 60.18 169.77C59.612 169.376 59.0056 169.041 58.37 168.77C58.3 168.77 58.28 168.72 58.3 168.77C58.2272 168.695 58.1468 168.628 58.06 168.57C58.06 168.57 58.01 168.57 57.99 168.57C55.22 167.44 55.37 171.47 57.57 173.19C58.0768 174.174 59.1274 174.754 60.23 174.66C60.96 174.81 61.76 174.58 62.69 173.5L62.93 173.18C63.33 172.47 67.12 169.74 64.81 167.57V167.57Z" fill="#F48F93"/>
<path d="M106.08 130C104.45 128.75 103.46 130.38 101.08 131.28C100.609 130.801 100.089 130.372 99.53 130C99.47 129.94 99.45 129.93 99.47 130C99.4163 129.91 99.3488 129.829 99.27 129.76V129.7C96.76 128.08 96.14 132.05 97.97 134.16C98.2688 135.242 99.195 136.033 100.31 136.16C101.245 136.467 102.274 136.206 102.95 135.49C103.039 135.392 103.136 135.302 103.24 135.22C103.71 134.54 107.94 132.58 106.08 130V130Z" fill="#F48F93"/>
<path d="M66.21 7.90953C64.3 7.13953 63.78 8.99953 61.77 10.4595C61.1672 10.1192 60.5346 9.83469 59.88 9.60953C59.81 9.60953 59.79 9.60953 59.81 9.60953C59.7327 9.54163 59.6489 9.48135 59.56 9.42953H59.49C56.72 8.52953 57.02 12.4295 59.43 14.0695C60.0138 15.0108 61.1069 15.508 62.2 15.3295C62.94 15.4195 63.72 15.1295 64.56 13.9795C64.6276 13.8626 64.701 13.7491 64.78 13.6395C65.12 12.9095 68.68 9.88953 66.21 7.90953V7.90953Z" fill="#F48F93"/>
<path d="M40.8399 13.32C38.5499 11.88 36.2699 16.98 40.3699 16.8C41.8099 16.36 42.3199 14.69 40.8399 13.32Z" fill="#D1EDFB"/>
<path d="M15.25 8.80983C14.19 8.71983 13.35 11.4098 15.58 11.2798C16.77 10.7498 16.81 9.42983 15.25 8.80983Z" fill="#D1EDFB"/>
<path d="M5.24999 67.6904C3.42999 67.6904 3.86999 71.6904 6.24999 69.7804C6.71999 69.1704 6.60999 68.2204 5.24999 67.6904Z" fill="#D1EDFB"/>
<path d="M31.25 95.2803C30.1178 95.2803 29.2 96.1981 29.2 97.3303C29.2 98.4625 30.1178 99.3803 31.25 99.3803C32.3821 99.3803 33.2999 98.4625 33.2999 97.3303C33.2999 96.1981 32.3821 95.2803 31.25 95.2803V95.2803Z" fill="#D1EDFB"/>
<path d="M9.90994 137.93C8.50994 137.85 7.80994 140.93 10.2399 140.79C11.6899 140.32 11.7799 138.48 9.90994 137.93Z" fill="#D1EDFB"/>
<path d="M24.2499 172.6C23.1067 172.6 22.1799 173.526 22.1799 174.67C22.1799 175.813 23.1067 176.74 24.2499 176.74C25.3932 176.74 26.3199 175.813 26.3199 174.67C26.3199 173.526 25.3932 172.6 24.2499 172.6Z" fill="#D1EDFB"/>
<path d="M79.6 164C78.78 162.68 75.98 164.74 78.11 166.16C78.9 166.53 81 165.57 79.6 164Z" fill="#D1EDFB"/>
<path d="M114.91 176.11C112.04 176.11 112.04 180.56 114.91 180.56C117.78 180.56 117.78 176.11 114.91 176.11Z" fill="#D1EDFB"/>
<path d="M119.38 138.63C116.85 137.23 115.92 142.83 119.7 141.12C119.994 140.75 120.127 140.277 120.066 139.808C120.006 139.339 119.758 138.914 119.38 138.63Z" fill="#D1EDFB"/>
<path d="M101.91 104.24C98.7899 104.24 98.7899 109.09 101.91 109.09C105.03 109.09 105 104.24 101.91 104.24Z" fill="#D1EDFB"/>
<path d="M118.69 63.0702C114.98 62.3002 117.27 69.4802 119.91 64.6702C119.85 64.2402 119.81 63.8302 118.69 63.0702Z" fill="#D1EDFB"/>
<path d="M105 29.3896C101.77 29.3896 100.94 34.7496 105 35.1497C108.2 35.1596 109 29.7896 105 29.3896V29.3896Z" fill="#D1EDFB"/>
<path d="M115.58 7C114.652 7 113.9 7.75216 113.9 8.68C113.9 9.60784 114.652 10.36 115.58 10.36C116.508 10.36 117.26 9.60784 117.26 8.68C117.26 7.75216 116.508 7 115.58 7Z" fill="#D1EDFB"/>
<path d="M74.25 15.5195C73.4216 15.5195 72.75 16.1911 72.75 17.0195C72.75 17.848 73.4216 18.5195 74.25 18.5195C75.0784 18.5195 75.75 17.848 75.75 17.0195C75.75 16.1911 75.0784 15.5195 74.25 15.5195Z" fill="#D1EDFB"/>
</svg>
