<svg width="139" height="194" viewBox="0 0 139 194" fill="none" xmlns="http://www.w3.org/2000/svg">
<g clip-path="url(#clip0_1_25034)">
<path d="M0 0H138.85V193.77H0V0Z" fill="#FFE1E3"/>
<path d="M0 0H138.85V193.77H0V0Z" fill="#FFE1E3"/>
<path d="M0 0H138.85V193.77H0V0Z" fill="#FFE1E3"/>
<path d="M55.8 113C54.4 121.77 46.47 127.8 38.08 126.46C29.69 125.12 27.08 117.46 28.51 108.65C29.94 99.8402 34.75 93.3602 43.14 94.6502C51.53 95.9402 57.2 104.22 55.8 113Z" fill="#88A1B5"/>
<path d="M110.69 98.4298C116.26 105.35 126.14 106.65 132.76 101.33C139.38 96.0098 137.76 88.0398 132.24 81.1198C126.72 74.1998 119.24 70.9398 112.61 76.2598C105.98 81.5798 105.13 91.4998 110.69 98.4298V98.4298Z" fill="#88A1B5"/>
<path d="M117.07 96.0603C121.07 99.8503 124.01 103.57 128.07 97.3903C130.93 93.0103 130.07 88.8803 126.16 85.0903C122.25 81.3003 117.51 79.9904 113.8 83.6604C108.56 88.8204 113.13 92.2703 117.07 96.0603Z" fill="#F5FFFB"/>
<path d="M47.94 112.6C49.94 107.52 52.26 103.34 45.02 101.95C39.88 100.95 36.37 103.29 34.35 108.37C32.33 113.45 32.9 118.31 37.72 120.37C44.46 123.23 45.92 117.69 47.94 112.6V112.6Z" fill="#F5FFFB"/>
<path d="M138.85 162.18V193.77H80.7749C73.8192 173.612 79.2329 153.722 94 146.37C107.479 139.659 127.001 146.705 138.504 161.722L138.85 162.18Z" fill="#88A1B5"/>
<path d="M133.23 124.91C135.58 140 120.39 154.18 97 160.39C73.61 166.6 51.46 159.71 47.56 144.99C40.34 117.81 53.75 91.8101 77.15 85.6001C100.55 79.3901 129 98.0701 133.23 124.91V124.91Z" fill="#ABCBE4"/>
<path d="M71.09 128.22C71.5449 129.925 70.9279 131.735 69.5269 132.807C68.1259 133.879 66.2169 134.001 64.6907 133.116C63.1645 132.232 62.3219 130.514 62.556 128.766C62.7901 127.017 64.0548 125.582 65.76 125.13C68.0848 124.514 70.4697 125.896 71.09 128.22Z" fill="#5D5256"/>
<path d="M69.16 127.38C69.3842 128.235 68.8761 129.112 68.0221 129.342C67.1682 129.573 66.2882 129.071 66.0514 128.219C65.8145 127.367 66.3096 126.483 67.16 126.24C67.5766 126.121 68.0235 126.174 68.3999 126.389C68.7762 126.604 69.0503 126.961 69.16 127.38V127.38Z" fill="#F5FFFB"/>
<path d="M111.55 117.48C112.005 119.184 111.388 120.995 109.987 122.067C108.586 123.139 106.677 123.261 105.151 122.376C103.625 121.491 102.782 119.774 103.016 118.026C103.25 116.277 104.515 114.842 106.22 114.39C108.545 113.773 110.93 115.156 111.55 117.48V117.48Z" fill="#5D5256"/>
<path d="M109.61 116.64C109.834 117.496 109.326 118.372 108.472 118.602C107.618 118.833 106.738 118.331 106.501 117.479C106.264 116.627 106.76 115.743 107.61 115.5C108.027 115.378 108.475 115.431 108.852 115.646C109.229 115.86 109.503 116.219 109.61 116.64V116.64Z" fill="#F5FFFB"/>
<path d="M95.0227 153.822C103.868 151.475 109.533 143.899 107.676 136.901C105.82 129.903 97.1437 126.132 88.2984 128.479C79.4531 130.826 73.7879 138.402 75.6448 145.4C77.5016 152.398 86.1775 156.169 95.0227 153.822Z" fill="#F5FFFB"/>
<path d="M132.74 176.08C136.14 182.914 135.642 188.896 132.624 193.771H93.1059C88.2206 182.091 92.1754 168.988 102.42 163.89C113.15 158.55 126.73 164 132.74 176.08Z" fill="#F5FFFB"/>
<path d="M98.37 129.6C99.37 133.26 96.37 138.68 91.37 140.02C86.37 141.36 81.09 138.11 80.12 134.44C79.15 130.77 83 128.65 88 127.31C93 125.97 97.4 125.94 98.37 129.6V129.6Z" fill="#5D5256"/>
<path d="M91.37 140.02L93.21 146.95" stroke="#5D5256" stroke-width="0.25"/>
<path d="M97.45 143.59C97.75 144.74 95.86 146.24 93.21 146.95C90.56 147.66 88.21 147.28 87.86 146.13" stroke="#5D5256" stroke-width="0.25"/>
<path d="M91.85 128.24C91.95 128.61 90.52 129.31 88.66 129.8C86.8 130.29 85.2 130.4 85.11 130.03C85.02 129.66 86.44 128.96 88.3 128.47C90.16 127.98 91.76 127.87 91.85 128.24Z" fill="#F5FFFB"/>
<path d="M41.61 179.38C41.09 174.76 45.29 168.29 58.43 166.8C71.57 165.31 79.87 169.03 80.43 173.66C80.99 178.29 73.51 182.06 60.36 183.55C47.21 185.04 42.13 184 41.61 179.38V179.38Z" fill="#ABCBE4"/>
<path d="M125.91 150.08C128.062 147.833 132.96 148.236 138.85 151.869V171.889C137.687 170.884 136.425 169.729 135.05 168.42L134.361 167.756C126.117 159.713 123.039 153.078 125.91 150.08V150.08Z" fill="#ABCBE4"/>
<path d="M25.6451 33.3398L21.6373 18.6126H25.7698L28.0517 28.5075H28.186L30.5638 18.6126H34.6196L37.0358 28.4499H37.1604L39.404 18.6126H43.5269L39.5287 33.3398H35.2044L32.6732 24.0778H32.491L29.9598 33.3398H25.6451ZM52.0483 33.6275C50.5334 33.6275 49.2294 33.3207 48.1364 32.707C47.0497 32.087 46.2123 31.2113 45.6243 30.0799C45.0362 28.9421 44.7422 27.5966 44.7422 26.0433C44.7422 24.5284 45.0362 23.1989 45.6243 22.0547C46.2123 20.9105 47.0401 20.0188 48.1076 19.3796C49.1815 18.7404 50.4407 18.4208 51.8853 18.4208C52.8569 18.4208 53.7614 18.5774 54.5987 18.8906C55.4425 19.1974 56.1775 19.6609 56.804 20.2809C57.4368 20.9009 57.929 21.6808 58.2805 22.6204C58.6321 23.5536 58.8079 24.6467 58.8079 25.8995V27.0213H46.3721V24.4901H54.9631C54.9631 23.902 54.8352 23.381 54.5795 22.9272C54.3239 22.4734 53.9691 22.1186 53.5153 21.8629C53.0678 21.6009 52.5469 21.4698 51.9524 21.4698C51.3324 21.4698 50.7827 21.6136 50.3033 21.9013C49.8302 22.1825 49.4595 22.5629 49.191 23.0423C48.9226 23.5153 48.7851 24.0426 48.7788 24.6243V27.0309C48.7788 27.7596 48.913 28.3892 49.1815 28.9197C49.4563 29.4503 49.843 29.8594 50.3416 30.147C50.8402 30.4347 51.4315 30.5785 52.1154 30.5785C52.5692 30.5785 52.9847 30.5146 53.3618 30.3867C53.739 30.2589 54.0618 30.0671 54.3302 29.8114C54.5987 29.5558 54.8033 29.2425 54.9439 28.8718L58.7216 29.1211C58.5298 30.0288 58.1367 30.8214 57.5422 31.4989C56.9542 32.1701 56.1935 32.6942 55.2603 33.0714C54.3334 33.4421 53.2628 33.6275 52.0483 33.6275ZM65.5579 13.7035V33.3398H61.4734V13.7035H65.5579ZM75.4839 33.6275C73.9754 33.6275 72.6778 33.3079 71.5912 32.6687C70.5109 32.0231 69.6799 31.1282 69.0983 29.984C68.523 28.8398 68.2353 27.5231 68.2353 26.0337C68.2353 24.5252 68.5262 23.2021 69.1079 22.0643C69.6959 20.9201 70.5301 20.0284 71.6103 19.3892C72.6906 18.7436 73.9754 18.4208 75.4647 18.4208C76.7495 18.4208 77.8745 18.6541 78.8397 19.1207C79.8049 19.5874 80.5688 20.2425 81.1313 21.0863C81.6938 21.93 82.0038 22.9208 82.0613 24.0586H78.2069C78.0983 23.3235 77.8106 22.7322 77.344 22.2848C76.8838 21.831 76.2797 21.604 75.5319 21.604C74.899 21.604 74.3461 21.7766 73.8731 22.1218C73.4065 22.4606 73.0422 22.956 72.7801 23.608C72.518 24.2599 72.387 25.0494 72.387 25.9762C72.387 26.9158 72.5148 27.7148 72.7705 28.3732C73.0326 29.0316 73.4001 29.5334 73.8731 29.8786C74.3461 30.2237 74.899 30.3963 75.5319 30.3963C75.9985 30.3963 76.4172 30.3004 76.7879 30.1087C77.165 29.9169 77.475 29.6388 77.7179 29.2745C77.9672 28.9038 78.1302 28.4595 78.2069 27.9418H82.0613C81.9974 29.0668 81.6906 30.0575 81.1409 30.9141C80.5976 31.7642 79.8465 32.429 78.8877 32.9084C77.9289 33.3878 76.7943 33.6275 75.4839 33.6275ZM91.3306 33.6275C89.8413 33.6275 88.5533 33.3111 87.4666 32.6783C86.3864 32.0391 85.5522 31.1506 84.9641 30.0128C84.3761 28.8686 84.082 27.5423 84.082 26.0337C84.082 24.5124 84.3761 23.1829 84.9641 22.0451C85.5522 20.9009 86.3864 20.0124 87.4666 19.3796C88.5533 18.7404 89.8413 18.4208 91.3306 18.4208C92.8199 18.4208 94.1047 18.7404 95.185 19.3796C96.2717 20.0124 97.109 20.9009 97.6971 22.0451C98.2851 23.1829 98.5792 24.5124 98.5792 26.0337C98.5792 27.5423 98.2851 28.8686 97.6971 30.0128C97.109 31.1506 96.2717 32.0391 95.185 32.6783C94.1047 33.3111 92.8199 33.6275 91.3306 33.6275ZM91.3498 30.4634C92.0273 30.4634 92.593 30.2717 93.0469 29.8881C93.5007 29.4982 93.8427 28.9677 94.0728 28.2965C94.3093 27.6254 94.4275 26.8615 94.4275 26.005C94.4275 25.1484 94.3093 24.3846 94.0728 23.7134C93.8427 23.0423 93.5007 22.5117 93.0469 22.1218C92.593 21.7319 92.0273 21.5369 91.3498 21.5369C90.6658 21.5369 90.0905 21.7319 89.6239 22.1218C89.1637 22.5117 88.8153 23.0423 88.5788 23.7134C88.3487 24.3846 88.2337 25.1484 88.2337 26.005C88.2337 26.8615 88.3487 27.6254 88.5788 28.2965C88.8153 28.9677 89.1637 29.4982 89.6239 29.8881C90.0905 30.2717 90.6658 30.4634 91.3498 30.4634ZM101.235 33.3398V18.6126H105.128V21.2109H105.3C105.607 20.348 106.119 19.6673 106.835 19.1687C107.55 18.6701 108.407 18.4208 109.404 18.4208C110.414 18.4208 111.274 18.6733 111.983 19.1783C112.693 19.6768 113.166 20.3544 113.402 21.2109H113.556C113.856 20.3672 114.399 19.6928 115.186 19.1879C115.978 18.6765 116.915 18.4208 117.995 18.4208C119.369 18.4208 120.485 18.8587 121.341 19.7344C122.204 20.6037 122.636 21.8374 122.636 23.4354V33.3398H118.561V24.2408C118.561 23.4226 118.343 22.8089 117.909 22.3999C117.474 21.9908 116.931 21.7862 116.279 21.7862C115.537 21.7862 114.959 22.0227 114.543 22.4957C114.128 22.9624 113.92 23.5792 113.92 24.3462V33.3398H109.96V24.1545C109.96 23.4322 109.752 22.8569 109.337 22.4286C108.928 22.0004 108.388 21.7862 107.717 21.7862C107.263 21.7862 106.854 21.9013 106.489 22.1314C106.131 22.3551 105.847 22.6715 105.636 23.0806C105.425 23.4833 105.32 23.9563 105.32 24.4996V33.3398H101.235ZM132.574 33.6275C131.059 33.6275 129.755 33.3207 128.662 32.707C127.575 32.087 126.738 31.2113 126.15 30.0799C125.562 28.9421 125.268 27.5966 125.268 26.0433C125.268 24.5284 125.562 23.1989 126.15 22.0547C126.738 20.9105 127.566 20.0188 128.633 19.3796C129.707 18.7404 130.966 18.4208 132.411 18.4208C133.382 18.4208 134.287 18.5774 135.124 18.8906C135.968 19.1974 136.703 19.6609 137.329 20.2809C137.962 20.9009 138.454 21.6808 138.806 22.6204C139.157 23.5536 139.333 24.6467 139.333 25.8995V27.0213H126.898V24.4901H135.488C135.488 23.902 135.361 23.381 135.105 22.9272C134.849 22.4734 134.494 22.1186 134.041 21.8629C133.593 21.6009 133.072 21.4698 132.478 21.4698C131.858 21.4698 131.308 21.6136 130.829 21.9013C130.356 22.1825 129.985 22.5629 129.716 23.0423C129.448 23.5153 129.311 24.0426 129.304 24.6243V27.0309C129.304 27.7596 129.438 28.3892 129.707 28.9197C129.982 29.4503 130.368 29.8594 130.867 30.147C131.366 30.4347 131.957 30.5785 132.641 30.5785C133.095 30.5785 133.51 30.5146 133.887 30.3867C134.264 30.2589 134.587 30.0671 134.856 29.8114C135.124 29.5558 135.329 29.2425 135.469 28.8718L139.247 29.1211C139.055 30.0288 138.662 30.8214 138.068 31.4989C137.48 32.1701 136.719 32.6942 135.786 33.0714C134.859 33.4421 133.788 33.6275 132.574 33.6275Z" fill="#A9CCE2"/>
<path d="M35.3891 63.3496V38.6223H40.5326V47.9192H40.6896C40.9149 47.4202 41.2409 46.9131 41.6675 46.3979C42.1022 45.8747 42.6657 45.44 43.3579 45.0939C44.0582 44.7398 44.9275 44.5627 45.9658 44.5627C47.3181 44.5627 48.5657 44.9168 49.7087 45.6252C50.8517 46.3255 51.7653 47.3839 52.4495 48.8006C53.1337 50.2092 53.4758 51.976 53.4758 54.101C53.4758 56.1697 53.1417 57.9164 52.4737 59.3411C51.8136 60.7578 50.9121 61.8323 49.7691 62.5648C48.6342 63.2892 47.3624 63.6515 45.9538 63.6515C44.9557 63.6515 44.1065 63.4864 43.4062 63.1564C42.7139 62.8264 42.1465 62.4119 41.7038 61.9128C41.2611 61.4057 40.923 60.8946 40.6896 60.3794H40.4602V63.3496H35.3891ZM40.4239 54.0769C40.4239 55.1796 40.5769 56.1415 40.8827 56.9625C41.1886 57.7836 41.6313 58.4235 42.2109 58.8823C42.7904 59.333 43.4947 59.5584 44.3238 59.5584C45.1609 59.5584 45.8693 59.329 46.4488 58.8702C47.0283 58.4033 47.467 57.7594 47.7648 56.9384C48.0707 56.1093 48.2237 55.1555 48.2237 54.0769C48.2237 53.0063 48.0747 52.0646 47.7769 51.2516C47.4791 50.4386 47.0404 49.8027 46.4609 49.3439C45.8813 48.8851 45.169 48.6557 44.3238 48.6557C43.4867 48.6557 42.7783 48.8771 42.1988 49.3198C41.6273 49.7625 41.1886 50.3903 40.8827 51.2033C40.5769 52.0163 40.4239 52.9741 40.4239 54.0769ZM62.1961 63.6998C61.0129 63.6998 59.9584 63.4945 59.0328 63.084C58.1071 62.6654 57.3746 62.0497 56.8353 61.2367C56.3041 60.4157 56.0385 59.3934 56.0385 58.1699C56.0385 57.1396 56.2276 56.2743 56.6059 55.574C56.9842 54.8738 57.4994 54.3103 58.1514 53.8837C58.8034 53.4571 59.5439 53.1351 60.373 52.9178C61.2101 52.7005 62.0875 52.5475 63.0051 52.459C64.0837 52.3463 64.953 52.2417 65.613 52.1451C66.2731 52.0404 66.752 51.8875 67.0498 51.6863C67.3476 51.485 67.4966 51.1872 67.4966 50.7928V50.7203C67.4966 49.9557 67.2551 49.3641 66.7721 48.9455C66.2972 48.5269 65.6211 48.3176 64.7437 48.3176C63.8181 48.3176 63.0816 48.5229 62.5342 48.9334C61.9869 49.3359 61.6246 49.843 61.4476 50.4547L56.6905 50.0684C56.9319 48.9415 57.4068 47.9675 58.1152 47.1465C58.8235 46.3174 59.7371 45.6815 60.8559 45.2388C61.9828 44.7881 63.2868 44.5627 64.7679 44.5627C65.7982 44.5627 66.7842 44.6834 67.726 44.9249C68.6758 45.1664 69.5169 45.5407 70.2494 46.0478C70.9899 46.5549 71.5735 47.2069 72.0001 48.0037C72.4267 48.7926 72.64 49.7383 72.64 50.8411V63.3496H67.7622V60.7779H67.6173C67.3195 61.3574 66.921 61.8685 66.422 62.3113C65.9229 62.7459 65.3233 63.088 64.623 63.3375C63.9227 63.579 63.1137 63.6998 62.1961 63.6998ZM63.6691 60.15C64.4258 60.15 65.0939 60.0011 65.6734 59.7033C66.253 59.3974 66.7077 58.9869 67.0378 58.4718C67.3678 57.9566 67.5328 57.373 67.5328 56.7211V54.753C67.3718 54.8577 67.1504 54.9542 66.8687 55.0428C66.595 55.1233 66.2851 55.1998 65.939 55.2722C65.5929 55.3366 65.2468 55.397 64.9007 55.4533C64.5546 55.5016 64.2406 55.5459 63.9589 55.5861C63.3552 55.6747 62.828 55.8155 62.3772 56.0087C61.9265 56.2019 61.5763 56.4635 61.3268 56.7935C61.0773 57.1155 60.9525 57.5179 60.9525 58.0009C60.9525 58.7012 61.2061 59.2364 61.7132 59.6067C62.2283 59.9689 62.8803 60.15 63.6691 60.15ZM76.727 63.3496V38.6223H81.8705V47.9192H82.0275C82.2528 47.4202 82.5788 46.9131 83.0054 46.3979C83.4401 45.8747 84.0035 45.44 84.6958 45.0939C85.3961 44.7398 86.2654 44.5627 87.3037 44.5627C88.656 44.5627 89.9036 44.9168 91.0466 45.6252C92.1896 46.3255 93.1032 47.3839 93.7874 48.8006C94.4716 50.2092 94.8137 51.976 94.8137 54.101C94.8137 56.1697 94.4796 57.9164 93.8115 59.3411C93.1515 60.7578 92.25 61.8323 91.107 62.5648C89.9721 63.2892 88.7003 63.6515 87.2917 63.6515C86.2936 63.6515 85.4444 63.4864 84.7441 63.1564C84.0518 62.8264 83.4844 62.4119 83.0417 61.9128C82.599 61.4057 82.2609 60.8946 82.0275 60.3794H81.7981V63.3496H76.727ZM81.7618 54.0769C81.7618 55.1796 81.9148 56.1415 82.2206 56.9625C82.5265 57.7836 82.9692 58.4235 83.5488 58.8823C84.1283 59.333 84.8326 59.5584 85.6617 59.5584C86.4988 59.5584 87.2071 59.329 87.7867 58.8702C88.3662 58.4033 88.8049 57.7594 89.1027 56.9384C89.4086 56.1093 89.5615 55.1555 89.5615 54.0769C89.5615 53.0063 89.4126 52.0646 89.1148 51.2516C88.817 50.4386 88.3783 49.8027 87.7988 49.3439C87.2192 48.8851 86.5069 48.6557 85.6617 48.6557C84.8246 48.6557 84.1162 48.8771 83.5367 49.3198C82.9652 49.7625 82.5265 50.3903 82.2206 51.2033C81.9148 52.0163 81.7618 52.9741 81.7618 54.0769ZM100.823 70.3042C100.171 70.3042 99.5597 70.2518 98.9882 70.1472C98.4248 70.0506 97.9579 69.9258 97.5876 69.7729L98.7467 65.9334C99.3504 66.1185 99.8938 66.2192 100.377 66.2353C100.868 66.2514 101.29 66.1387 101.644 65.8972C102.007 65.6557 102.3 65.2452 102.526 64.6657L102.828 63.8809L96.175 44.8042H101.584L105.424 58.4235H105.617L109.492 44.8042H114.938L107.73 65.3539C107.384 66.352 106.913 67.2213 106.317 67.9618C105.729 68.7104 104.985 69.2859 104.083 69.6884C103.182 70.0989 102.095 70.3042 100.823 70.3042Z" fill="#88A1B5"/>
<path d="M117.72 48.1806C117.799 47.3294 117.503 46.4862 116.91 45.8706C116.323 45.2641 115.649 44.7484 114.91 44.3406C114.09 43.8306 113.09 43.3406 112.22 43.7406C111.51 44.1412 111.115 44.9324 111.22 45.7406C111.351 46.5346 111.604 47.3036 111.97 48.0206C112.924 50.3401 113.328 52.8489 113.15 55.3506C114.844 54.1755 116.666 53.1959 118.58 52.4306C119.346 52.1591 120.089 51.8246 120.8 51.4306C121.456 51.0204 122.066 50.541 122.62 50.0006C123.232 49.4826 123.738 48.8509 124.11 48.1406C124.562 47.1238 124.44 45.9436 123.79 45.0406C123.11 44.158 121.97 43.7649 120.89 44.0406C119.91 44.4255 119.089 45.1303 118.56 46.0406C117.981 46.6307 117.744 47.4753 117.93 48.2806" fill="#F5FFFB"/>
<path d="M17.81 46.4806C17.7284 45.6261 18.0243 44.7786 18.62 44.1606C19.208 43.558 19.882 43.0458 20.62 42.6406C21.44 42.1306 22.44 41.6406 23.31 42.0306C24.0096 42.4408 24.4017 43.2248 24.31 44.0306C24.1772 44.8243 23.9243 45.5931 23.56 46.3106C22.5974 48.6276 22.1932 51.1385 22.38 53.6406C20.6871 52.4637 18.8653 51.484 16.95 50.7206C16.1829 50.451 15.4403 50.1165 14.73 49.7206C14.0846 49.3012 13.4876 48.8116 12.95 48.2606C12.338 47.7426 11.832 47.111 11.46 46.4006C11.0052 45.3856 11.1233 44.2055 11.77 43.3006C12.4551 42.4186 13.5975 42.026 14.68 42.3006C15.6551 42.6935 16.4739 43.3963 17.01 44.3006C17.5855 44.8926 17.8225 45.7354 17.64 46.5406" fill="#F5FFFB"/>
<path d="M43.2801 10.3104C43.2329 9.75742 43.426 9.21092 43.8101 8.81037C44.1893 8.41625 44.6239 8.07939 45.1001 7.81037C45.5793 7.39937 46.2313 7.25322 46.8401 7.42037C47.2911 7.69774 47.5346 8.21618 47.4601 8.74037C47.3827 9.25737 47.2276 9.7597 47.0001 10.2304C46.37 11.7375 46.0995 13.3706 46.2101 15.0004C45.1173 14.2365 43.9394 13.6023 42.7001 13.1104C42.2053 12.9401 41.7267 12.7259 41.2701 12.4704C40.8543 12.1991 40.4687 11.8839 40.1201 11.5304C39.71 11.2011 39.37 10.7931 39.1201 10.3304C38.8226 9.67619 38.899 8.91268 39.3201 8.33037C39.7567 7.7581 40.491 7.49895 41.1901 7.67037C41.8199 7.91536 42.3508 8.36192 42.7001 8.94037C43.0717 9.32414 43.2257 9.86885 43.1101 10.3904" fill="#F5FFFB"/>
<path d="M100.36 14.7103C100.404 14.2294 100.24 13.7526 99.91 13.4003C99.5749 13.0585 99.1907 12.7686 98.77 12.5403C98.3569 12.1783 97.7884 12.0503 97.26 12.2003C96.8595 12.4357 96.6419 12.8907 96.71 13.3503C96.785 13.8001 96.9301 14.2354 97.14 14.6403C97.6808 15.9498 97.9102 17.367 97.81 18.7803C98.764 18.1158 99.7906 17.5622 100.87 17.1303C101.305 16.9806 101.727 16.7932 102.13 16.5703C102.494 16.3365 102.829 16.0613 103.13 15.7503C103.488 15.4628 103.784 15.1056 104 14.7003C104.236 14.1377 104.16 13.4927 103.8 13.0003C103.418 12.4978 102.772 12.2732 102.16 12.4303C101.607 12.6393 101.141 13.0309 100.84 13.5403C100.512 13.871 100.376 14.3463 100.48 14.8003" fill="#F5FFFB"/>
</g>
<defs>
<clipPath id="clip0_1_25034">
<rect width="139" height="194" fill="white"/>
</clipPath>
</defs>
</svg>
