<svg width="200" height="185" viewBox="0 0 200 185" fill="none" xmlns="http://www.w3.org/2000/svg">
<path d="M134.557 51.9542C141.983 54.5288 143.881 48.6736 136.898 45.8343C129.473 43.2596 127.574 49.1103 134.557 51.9542Z" fill="#AF946C"/>
<path d="M139.3 63.2583C148.169 69.9992 151.701 64.9811 143.381 58.1316C134.512 51.3917 130.98 56.4098 139.3 63.2583Z" fill="#AF946C"/>
<path d="M143.511 77.3672C151.882 84.5539 155.777 79.9091 148.009 72.5991C139.528 65.2111 135.533 69.9645 143.511 77.3672Z" fill="#AF946C"/>
<path d="M147.898 88.0095C155.025 96.5638 159.601 92.471 153.025 83.928C145.899 75.3783 141.322 79.471 147.898 88.0095Z" fill="#AF946C"/>
<path d="M148.773 97.2695C155.899 105.824 160.474 101.731 153.899 93.1891C146.774 84.6348 142.195 88.7276 148.773 97.2695Z" fill="#AF946C"/>
<path d="M145.597 107.247C150.895 116.791 156.167 113.97 151.554 104.501C146.189 94.4776 140.629 97.4256 145.597 107.247Z" fill="#AF946C"/>
<path d="M74.9117 31.3343C79.8382 44.608 61.3721 52.1872 55.4479 39.582C50.5214 26.3117 68.9875 18.7325 74.9117 31.3343V31.3343Z" fill="#AF946C"/>
<path d="M70.9095 33.0307C73.8077 40.9029 62.896 45.2705 59.4503 37.895C56.5521 30.0194 67.4638 25.6518 70.9095 33.0307Z" fill="#D89387"/>
<path d="M140.3 31.3343C145.226 44.608 126.76 52.1872 120.836 39.582C115.911 26.3117 134.377 18.7325 140.3 31.3343V31.3343Z" fill="#AF946C"/>
<path d="M136.298 33.0307C139.196 40.9029 128.281 45.2705 124.839 37.895C121.946 30.0194 132.853 25.6518 136.298 33.0307Z" fill="#D89387"/>
<path d="M149.471 95.4305C149.471 125.236 125.308 133.012 95.5012 133.012C65.6946 133.012 41.5328 125.236 41.5328 95.4305C41.5328 65.6251 65.6957 25.0742 95.5012 25.0742C125.307 25.0742 149.471 65.624 149.471 95.4305Z" fill="#AF946C"/>
<path d="M142.479 93.3074C142.479 119.252 121.446 126.02 95.5011 126.02C69.5566 126.02 48.5294 119.252 48.5294 93.3074C48.5294 67.3628 69.5566 32.0664 95.5011 32.0664C121.446 32.0664 142.479 67.3628 142.479 93.3074V93.3074Z" fill="#F2EFD9"/>
<path d="M96.8949 82.3222C104.633 82.3222 110.906 76.9785 110.906 70.3867C110.906 63.7949 104.633 58.4512 96.8949 58.4512C89.1566 58.4512 82.8835 63.7949 82.8835 70.3867C82.8835 76.9785 89.1566 82.3222 96.8949 82.3222Z" fill="#D8BBA2"/>
<path d="M102.385 70.3712C102.054 74.2774 91.7511 74.1371 91.4117 70.4538C91.5271 66.4504 102.209 66.5715 102.385 70.3712Z" fill="#321827"/>
<path d="M88.7828 88.6613C87.6923 79.4339 73.6131 74.478 72.5939 82.8389C72.3665 92.7529 88.9694 98.6862 88.7828 88.6613Z" fill="#55412D"/>
<path d="M76.3914 90.3161C86.3801 98.255 93.4118 88.8319 84.3349 80.8466C74.586 73.1622 67.4435 82.2233 76.3914 90.3161Z" fill="#D8BBA2"/>
<path d="M77.1493 90.9208C84.5384 96.3507 91.7896 91.7534 87.0011 83.8631C86.5803 82.6086 83.6651 83.8756 83.0678 84.0373C80.0497 85.233 77.7579 88.0588 77.1493 90.9208Z" fill="#D8BBA2"/>
<path d="M86.4559 91.6497C86.5939 91.8318 86.724 92.0128 86.8711 92.2379C86.9717 92.0818 87.5113 91.9269 87.1471 91.6124C86.7138 91.0298 86.3982 90.5637 85.8552 89.9155C84.9717 88.5694 84.2251 88.997 84.9582 89.773C85.4925 90.3697 85.9926 90.9963 86.4559 91.6497Z" fill="#513D30"/>
<path d="M88.1222 90.2054L88.2296 90.3502C88.2636 90.0946 88.5826 89.7134 88.2783 89.4453C87.7579 88.8106 87.2534 87.9487 86.6131 87.5742C85.5011 87.5889 88.0701 89.8265 88.1222 90.2054Z" fill="#513D30"/>
<path d="M84.5023 93.1862C84.6358 93.2326 84.8847 93.1274 85.1448 93.081C84.9265 92.7971 82.5295 89.3084 82.7693 91.0448C83.3899 91.7228 83.9686 92.4379 84.5023 93.1862Z" fill="#513D30"/>
<path d="M106.652 90.8373C104.586 81.9459 115.872 72.5115 119.838 79.7027C123.727 88.8712 109.914 100.461 106.652 90.8373Z" fill="#55412D"/>
<path d="M118.876 88.2213C112.191 98.9995 102.434 92.6398 108.129 82.1127C114.65 71.4848 124.614 77.4645 118.876 88.2213Z" fill="#D8BBA2"/>
<path d="M118.369 89.0452C113.253 96.6425 104.874 94.7715 106.717 85.733C106.692 84.3688 109.983 84.6018 110.602 84.5645C113.808 84.716 116.844 86.5882 118.369 89.0452Z" fill="#D8BBA2"/>
<path d="M109.85 92.8727C109.782 93.0898 109.719 93.3048 109.657 93.5661C108.699 93.4349 109.421 92.6204 109.522 91.9609C109.701 91.4903 110.303 89.0197 110.785 90.1509C110.528 91.0005 110.068 91.9677 109.85 92.8727V92.8727Z" fill="#513D30"/>
<path d="M107.796 92.0682C107.778 92.1259 107.761 92.1813 107.743 92.2413C107.63 92.015 107.197 91.7605 107.394 91.4076C107.67 90.635 107.854 89.6519 108.33 89.0852C109.38 88.7232 107.715 91.696 107.796 92.0682Z" fill="#513D30"/>
<path d="M112.217 93.6556C112.104 93.7438 111.837 93.7291 111.576 93.7687C111.689 93.4294 112.767 89.3366 113.13 91.047C112.774 91.8975 112.469 92.7686 112.217 93.6556Z" fill="#513D30"/>
<path d="M135.712 110.127C137.963 124.895 120.893 141.61 117.325 128.805C114.518 114.2 132.338 96.472 135.712 110.127V110.127Z" fill="#55412D"/>
<path d="M134.788 108.663C131.621 102.864 125.512 107.192 122.626 110.918C117.414 117.386 115.172 127.576 118.241 132.231C120.241 135.252 123.99 134.946 127.595 131.809C134.389 125.817 137.537 114.196 134.788 108.663Z" fill="#D8BBA2"/>
<path d="M131.515 107.156C131.615 106.797 131.708 106.443 131.803 106.016C133.119 106.137 132.022 107.496 131.968 108.31C131.629 109.272 130.975 112.608 130.283 112.004C129.893 111.478 130.509 110.873 130.622 110.219C130.996 109.169 131.243 108.121 131.515 107.156V107.156Z" fill="#513D30"/>
<path d="M134.183 108.068C134.21 107.974 134.236 107.879 134.261 107.783C134.481 108.162 134.946 108.575 134.673 109.082C134.309 110.37 133.969 111.724 133.417 112.857C132.25 113.498 133.182 111.499 133.335 110.992C133.681 110.002 133.922 108.983 134.183 108.068V108.068Z" fill="#513D30"/>
<path d="M128.439 106.32C128.588 106.159 128.998 106.115 129.29 106.018C129.161 106.53 127.46 113.334 127.105 110.639C127.574 109.402 128.096 107.631 128.439 106.32V106.32Z" fill="#513D30"/>
<path d="M58.8948 109.623C56.6436 124.391 73.7138 141.105 77.2817 128.3C80.0905 113.696 62.2692 95.9683 58.8948 109.623V109.623Z" fill="#55412D"/>
<path d="M59.8179 108.159C62.9853 102.36 69.0939 106.689 71.9819 110.415C77.1934 116.882 79.4355 127.072 76.3654 131.727C74.3665 134.75 70.6165 134.442 67.0113 131.305C60.2194 125.314 57.0701 113.687 59.8179 108.159V108.159Z" fill="#D8BBA2"/>
<path d="M63.0916 106.653C62.9921 106.293 62.8993 105.939 62.8043 105.512C61.4887 105.633 62.5849 106.992 62.6391 107.806C62.9729 108.769 63.6312 112.104 64.3247 111.502C64.7138 110.976 64.0984 110.37 63.9853 109.715C63.6165 108.666 63.3643 107.618 63.0916 106.653V106.653Z" fill="#513D30"/>
<path d="M60.4241 107.564L60.345 107.277C60.1266 107.656 59.6662 108.064 59.9343 108.576C60.2974 109.864 60.638 111.22 61.1889 112.351C62.3574 112.992 61.4253 110.993 61.2726 110.487C60.9264 109.501 60.6855 108.483 60.4241 107.564Z" fill="#513D30"/>
<path d="M66.1686 105.817C66.0193 105.656 65.6086 105.612 65.3168 105.516C65.4469 106.027 67.1471 112.831 67.5023 110.137C67.034 108.899 66.5159 107.128 66.1686 105.817V105.817Z" fill="#513D30"/>
<path d="M84.1211 63.5743C84.0713 70.6342 78.2636 70.6286 77.8383 63.8921C77.7749 56.6399 83.7908 56.6387 84.1211 63.5743Z" fill="#E0BF36"/>
<path d="M84.0939 63.4725C84.0724 70.2078 79.2761 70.1841 78.8903 63.7678C78.8123 56.8266 83.7976 56.8447 84.0939 63.4725V63.4725Z" fill="#321827"/>
<path d="M83.8619 62.7097C83.7782 63.7719 82.5045 63.7165 82.4049 62.7425C82.3303 61.5072 83.8948 61.5819 83.8619 62.7097Z" fill="#E7EBE3"/>
<path d="M109.615 63.7617C110.075 70.8069 115.872 70.4653 115.906 63.7153C115.545 56.4664 109.54 56.8148 109.615 63.7617Z" fill="#E0BF36"/>
<path d="M109.632 63.6527C110.044 70.3756 114.836 70.0735 114.836 63.6459C114.521 56.7115 109.545 57.0136 109.632 63.6527Z" fill="#321827"/>
<path d="M109.82 62.8779C109.965 63.9333 111.232 63.8055 111.277 62.827C111.281 61.5894 109.722 61.7534 109.82 62.8779Z" fill="#E7EBE3"/>
<path d="M54.2794 58.3417C45.0034 64.5193 41.7953 59.2896 50.5249 52.9718C59.7964 46.7942 63.0091 52.0238 54.2794 58.3417Z" fill="#AF946C"/>
<path d="M59.1855 50.1932C51.7602 52.7667 49.8609 46.9126 56.8439 44.0721C64.2692 41.4986 66.1686 47.3482 59.1855 50.1932Z" fill="#AF946C"/>
<path d="M50.2262 67.74C41.8552 74.9267 37.9615 70.2819 45.7296 62.9719C54.2149 55.5839 58.2104 60.3384 50.2262 67.74V67.74Z" fill="#AF946C"/>
<path d="M45.8439 84.9404C38.7172 93.4947 34.1425 89.402 40.7172 80.859C47.8427 72.3047 52.4197 76.3975 45.8439 84.9404Z" fill="#AF946C"/>
<path d="M44.9706 98.1303C37.8439 106.685 33.2681 102.592 39.8439 94.0488C46.9695 85.4945 51.5452 89.593 44.9706 98.1303Z" fill="#AF946C"/>
<path d="M46.1787 106.795C40.8812 116.339 35.6086 113.518 40.2217 104.05C45.5882 94.0261 51.1471 96.9752 46.1787 106.795Z" fill="#AF946C"/>
<path d="M108.606 31.1378C116.412 30.3358 115.677 24.2261 108.14 24.6005C100.33 25.4025 101.069 31.5123 108.606 31.1378Z" fill="#AF946C"/>
<path d="M95.396 41.8997C107.099 41.8997 116.586 38.5494 116.586 34.4166C116.586 30.2839 107.099 26.9336 95.396 26.9336C83.693 26.9336 74.2059 30.2839 74.2059 34.4166C74.2059 38.5494 83.693 41.8997 95.396 41.8997Z" fill="#AF946C"/>
<path d="M87.3665 29.1547C79.983 26.787 81.8122 21.0099 89.0248 22.8142C96.6391 25.1332 94.7556 31.1094 87.3665 29.1547V29.1547Z" fill="#AF946C"/>
<path d="M79.7387 32.3138C72.0238 30.8568 73.2749 24.8308 80.7568 25.8398C88.4672 27.2968 87.2172 33.3229 79.7387 32.3138Z" fill="#AF946C"/>
<path d="M101.476 28.5457C108.217 24.7143 105.243 19.4439 98.5577 22.6769C91.5735 26.5084 94.6448 31.9722 101.476 28.5457Z" fill="#AF946C"/>
<path d="M115.075 36.3262C122.88 35.5242 122.146 29.4145 114.61 29.79C106.8 30.5921 107.539 36.7018 115.075 36.3262Z" fill="#AF946C"/>
<path d="M117.201 44.4934C116.762 55.7977 104.23 55.5375 103.89 44.4934C104.329 33.1902 116.862 33.4504 117.201 44.4934Z" fill="#F2EFD9"/>
<path d="M87.6335 44.4934C87.1946 55.7977 74.6607 55.5431 74.3213 44.4934C74.7602 33.1902 87.293 33.4504 87.6335 44.4934Z" fill="#F2EFD9"/>
<path d="M32.6979 69.8538C34.9604 69.9488 34.0554 68.226 34.2375 65.8606C34.1504 63.0789 34.5203 61.0212 33.8427 60.6038C30.9479 59.5167 31.7579 61.9749 31.647 64.9794C31.7647 67.7384 31.1369 69.7882 32.6979 69.8538Z" fill="#9F9FA5"/>
<path d="M31.44 69.3442H43.2307C45.4751 69.3227 45.7013 69.9947 45.5882 73.6101V82.4766H39.1651C39.0396 77.773 39.8043 76.7289 37.3722 76.9336C33.6391 77.0298 31.4468 76.3872 31.44 78.3623V97.2164H24.9117V72.5558C24.9111 71.7042 25.249 70.8874 25.8509 70.285C26.4528 69.6827 27.2695 69.3442 28.121 69.3442H31.44Z" fill="#9F9FA5"/>
<path d="M31.0249 68.7191H42.8167C45.0633 68.701 45.2907 69.3718 45.1753 72.9872V81.8548H39.1651V77.6693C39.1651 76.9196 38.5574 76.3119 37.8077 76.3119H32.3846C31.6349 76.3119 31.0271 76.9196 31.0271 77.6693V96.5935H24.4966V71.9329C24.4966 70.1605 25.9334 68.7236 27.7059 68.7236L31.0249 68.7191Z" fill="#EDECEB"/>
<path d="M27.4333 61.5636H32.0407C38.0713 61.3916 40.2398 62.3554 39.664 59.7989C39.1256 58.7333 38.1256 59.326 36.7229 59.1801H28.1301C25.7002 58.8486 26.2534 61.6518 27.4333 61.5636V61.5636Z" fill="#EDECEB"/>
<path d="M95.4117 184.572C135.867 184.572 168.662 180.955 168.662 176.494C168.662 172.033 135.867 168.416 95.4117 168.416C54.9569 168.416 22.1617 172.033 22.1617 176.494C22.1617 180.955 54.9569 184.572 95.4117 184.572Z" fill="#CCCCCC"/>
<path d="M104.145 92.8156C101.225 92.8156 98.5418 93.6821 96.4208 95.13C97.4389 83.3235 80.6052 79.3393 73.7964 87.9785C71.4989 84.1323 65.7274 84.7726 64.25 88.7058C62.578 88.5656 60.552 88.7975 59.0939 89.2873C59.9989 81.759 40.8111 82.0927 42.3936 89.5384C30.4151 88.8472 25.6584 98.1979 36.9163 101.334C37.2986 101.53 38.2138 101.428 38.3507 101.734C38.3077 103.403 39.5305 104.709 41.4513 105.654C45.2737 107.526 50.776 106.803 53.1719 105.076C53.6685 105.111 54.3789 105.911 55.0894 106.102C56.6934 106.868 57.2511 106.308 57.6425 107.757C62.75 118.277 80.5599 115.917 81.5927 104.406C85.086 105.063 89.1154 104.196 91.7998 102.304C90.724 112.443 104.299 117.742 112.521 111.342C120.853 104.638 115.474 92.9208 104.145 92.8156V92.8156Z" fill="#F9F8FD"/>
<path d="M160.455 87.8361C160.455 81.9538 154.895 77.1777 148.035 77.1777C141.836 77.1777 136.698 81.0771 135.767 86.1732C131.086 87.7004 127.758 91.5838 127.758 96.137C127.758 102.019 133.318 106.795 140.176 106.795C146.377 106.795 151.514 102.896 152.445 97.7999C157.127 96.2728 160.455 92.3893 160.455 87.8361V87.8361Z" fill="#F9F8FD"/>
<path d="M63.8438 167.127V176.786C63.8337 177.65 63.8676 177.225 63.8246 177.998C63.5667 180.672 60.4615 181.923 58.4015 180.438C56.3653 178.764 57.0961 177.396 56.9547 175.009V167.125C57.1719 162.47 63.6991 162.66 63.8438 167.127V167.127Z" fill="#F0F0F1"/>
<path d="M133.371 167.127C133.195 176.599 134.2 179.31 131.531 180.681C129.678 181.699 127.321 180.663 126.689 178.808C126.271 177.161 126.566 177.564 126.482 175.538V167.195C126.527 162.718 133.104 162.392 133.371 167.127Z" fill="#F0F0F1"/>
<path d="M62.8326 164.692C63.4809 165.336 63.845 166.212 63.8439 167.126V176.289C61.405 175.792 56.6391 174.657 56.9548 174.129C57.0091 171.944 56.8167 166.935 57.0882 166.168C57.8054 163.588 61.086 162.905 62.8326 164.692Z" fill="#D0CDC3"/>
<path d="M133.371 167.127V174.397C131.133 175.225 128.828 175.86 126.482 176.296C126.482 176.296 126.482 167.484 126.482 167.133C126.63 162.601 133.166 162.526 133.371 167.127Z" fill="#D0CDC3"/>
<path d="M166.051 98.3273C163.855 98.5886 162.335 114.544 162.146 116.436C161.228 123.017 164.378 135.06 162.645 143.645C156.386 174.56 105.219 177.934 79.3552 174.923C69.457 173.801 59.957 172.345 51.0362 168.526C37.7556 162.932 25.2443 151.91 25.8541 136.814C26.9287 125.841 30.6357 123.101 28.2703 111.264C27.6934 108.097 26.483 101.71 24.259 101.56H45.4672C74.9468 109.38 112.39 113.262 144.562 99.29C146.119 98.4053 147.945 98.6757 149.671 98.4981C155.146 98.1995 160.569 98.0965 166.051 98.3273V98.3273Z" fill="#EDECEB"/>
<path d="M166.051 98.3263C165.158 98.3263 164.335 101.291 163.675 104.887C158.231 108.409 152.476 111.423 146.481 113.893C109.664 129.178 65.2896 123.54 31.0272 112.196C30.0747 111.744 28.8699 111.738 28.2455 111.094C27.6595 107.908 26.457 101.705 24.2625 101.555H28.9593C29.5611 101.723 30.5136 102.132 31.1018 102.312C67.8597 115.085 116.17 120.75 152.699 100.531C154.129 99.841 155.39 98.8218 156.841 98.2245C159.955 98.1679 162.952 98.1985 166.051 98.3263V98.3263Z" fill="#D0CDC3"/>
<path d="M172.925 92.9045C134.365 124.513 80.603 121.811 37.3304 108.954C32.1709 107.457 23.9559 104.576 20.6822 103.153C18.0872 102.048 17.0057 98.8004 18.5623 96.3389C20.3881 93.6488 23.0555 93.7676 25.6267 95.0402C26.7523 95.4927 29.3145 96.4554 30.689 96.9316C73.336 111.742 129.181 116.954 167.489 85.28C172.63 82.3536 177.282 89.1307 172.925 92.9045V92.9045Z" fill="#EDECEB"/>
<path d="M145.603 147.312C145.059 143.835 141.051 143.27 139.481 144.597C138.068 146.493 140.732 149.138 144.119 149.327C144.585 149.391 143.932 149.241 143.909 149.236C144.909 149.366 145.778 148.296 145.603 147.312V147.312Z" fill="#D0CDC3"/>
<path d="M140.661 142.956C142.408 142.993 142.365 140.561 141.024 140.108C138.833 139.792 138.654 142.947 140.661 142.956Z" fill="#D0CDC3"/>
<path d="M144.796 143.97C146.544 144.009 146.501 141.577 145.159 141.124C142.969 140.806 142.791 143.963 144.796 143.97Z" fill="#D0CDC3"/>
<path d="M147.563 147.096C149.31 147.132 149.267 144.701 147.925 144.249C145.734 143.932 145.555 147.087 147.563 147.096Z" fill="#D0CDC3"/>
<path d="M129.914 149.335C122.507 147.744 120.024 155.819 121.183 157.791C123.348 161.23 129.5 158.922 132.25 153.255C132.721 152.451 132 153.468 131.974 153.503C132.902 151.908 131.638 149.677 129.914 149.335Z" fill="#D0CDC3"/>
<path d="M119.205 154.606C120.449 151.672 116.415 150.118 114.713 152.004C112.639 155.396 117.721 158.039 119.205 154.606Z" fill="#D0CDC3"/>
<path d="M123.756 148.379C125 145.447 120.965 143.891 119.264 145.777C117.195 149.172 122.278 151.811 123.756 148.379Z" fill="#D0CDC3"/>
<path d="M130.904 145.903C132.148 142.972 128.113 141.418 126.411 143.301C124.338 146.696 129.418 149.337 130.904 145.903Z" fill="#D0CDC3"/>
<path d="M96.2432 104.457C95.5701 117.525 74.0362 117.309 73.4796 104.457C74.1538 91.3907 95.6878 91.6068 96.2432 104.457V104.457Z" fill="#F9F8FD"/>
<path d="M75.5035 104.457C75.1358 111.54 64.5985 111.296 64.3496 104.457C64.7173 97.3756 75.2557 97.6177 75.5035 104.457Z" fill="#F9F8FD"/>
<path d="M109.315 94.0626C106.812 103.067 91.9028 99.5377 93.5012 90.5671C96.0034 81.5615 110.912 85.0909 109.315 94.0626V94.0626Z" fill="#F9F8FD"/>
<path d="M94.9095 90.877C93.5408 95.7718 86.2749 93.9098 87.1607 89.1643C88.5272 84.2763 95.7941 86.1315 94.9095 90.877Z" fill="#F9F8FD"/>
<path d="M111.133 14.2839C111.133 14.2839 108.499 11.4321 107.627 12.0701C106.43 13.914 105.459 16.4955 104.104 17.0124C102.508 17.7115 97.5169 18.5758 97.4219 16.7059C97.2715 16.0475 97.7466 14.9774 98.3733 14.3405C106.025 7.39253 96.6063 -3.89707 88.1369 1.34615C84.5171 3.6471 83.1912 8.29222 85.0509 12.1572C86.2126 14.7817 88.1493 14.8461 87.5396 16.5249C86.7568 17.9389 86.2636 17.9762 85.8427 18.6086C77.4796 28.2296 90.9242 32.5226 99.1199 32.0136C104.036 31.7296 108.611 29.448 110.958 26.6968C111.621 25.6035 112.129 24.4233 112.467 23.19C113.13 20.7602 113.333 17.4355 111.133 14.2839V14.2839Z" fill="#F1D553"/>
<path d="M81.9615 11.2159C82.9909 10.4162 84.121 9.26459 85.0927 8.28382C85.5746 8.10848 85.8224 8.65825 86.2047 8.93993C87.0577 9.71142 88.0554 10.4693 88.8382 11.13C89.1561 11.3924 89.371 11.6775 89.1776 11.9218C86.6154 13.9942 79.9604 12.4795 81.9615 11.2159V11.2159Z" fill="#DA823D"/>
<path d="M92.0328 9.38213C91.8066 11.5416 89.6573 11.2373 89.7432 9.24299C89.9717 7.08236 92.1143 7.38779 92.0328 9.38213Z" fill="#1F1D31"/>
<path d="M116.691 34.9462C120.537 34.2268 122.49 30.0243 120.393 26.9145C120.07 26.1849 119.109 25.8964 118.922 25.2992C120.246 19.479 114.472 14.9564 108.77 16.7777C104.873 18.1204 103.605 20.8501 103.128 24.2154C101.712 24.7077 100.451 25.5664 99.4751 26.7041C98.1358 26.5378 96.4842 26.0944 94.9356 26.8851C89.2636 29.5028 91.3337 37.1216 97.3586 36.8693C98.4275 36.8042 99.4582 36.4483 100.339 35.8399C102.057 37.1634 104.551 37.7946 107.087 37.3026C111.88 36.2901 111.977 33.5062 112.761 34.3059C113.914 34.9711 115.247 35.2053 116.691 34.9462V34.9462Z" fill="#F9F8FD"/>
<path d="M117.507 39.8002C116.673 36.5197 111.859 37.6803 112.364 40.7855C113.198 44.0683 118.011 42.9043 117.507 39.8002Z" fill="#F9F8FD"/>
<path d="M128.507 46.1052C128.745 41.7997 122.412 41.3292 121.833 45.3597C121.6 49.6651 127.933 50.1346 128.507 46.1052Z" fill="#F9F8FD"/>
<path d="M167.696 82.4885C167.696 75.6242 161.212 70.0586 153.216 70.0586C145.985 70.0586 139.993 74.6061 138.908 80.5495C133.448 82.3301 129.567 86.8606 129.567 92.1706C129.567 99.0348 136.051 104.599 144.046 104.599C151.277 104.599 157.269 100.053 158.354 94.1084C163.815 92.329 167.696 87.7984 167.696 82.4885Z" fill="#F9F8FD"/>
<path d="M96.3993 103.127C95.6708 117.415 72.095 117.213 71.4785 103.127C72.2059 88.8384 95.7817 89.0409 96.3993 103.127Z" fill="#F9F8FD"/>
<path d="M73.6934 103.126C73.3032 110.859 61.7647 110.633 61.483 103.126C61.8778 95.3905 73.4163 95.6202 73.6934 103.126Z" fill="#F9F8FD"/>
<path d="M34.37 40.4364C33.9333 49.5664 21.1166 49.3255 20.7953 40.4364C21.2297 31.3074 34.0498 31.5483 34.37 40.4364Z" fill="#F9F8FD"/>
<path d="M172.001 40.4362C171.671 47.072 162.403 46.8276 162.186 40.4362C162.517 33.8016 171.784 34.0494 172.001 40.4362Z" fill="#F9F8FD"/>
<path d="M184.078 99.9002C183.878 103.552 178.836 103.324 178.739 99.9002C178.938 96.2486 183.981 96.476 184.078 99.9002Z" fill="#F9F8FD"/>
<path d="M5.33937 138.752C5.13914 142.403 0.0972851 142.176 0 138.752C0.200226 135.1 5.24208 135.328 5.33937 138.752Z" fill="#F9F8FD"/>
<path d="M10.1233 101.638C9.98187 104.229 6.40834 104.041 6.34839 101.638C6.48979 99.0489 10.0678 99.2356 10.1233 101.638Z" fill="#F9F8FD"/>
<path d="M199.977 121.226C199.741 125.645 193.624 125.402 193.499 121.226C193.735 116.809 199.852 117.052 199.977 121.226Z" fill="#F9F8FD"/>
<path d="M45.8383 13.6579C45.5905 18.3784 39.0351 18.1432 38.8971 13.6579C39.1403 8.93614 45.7014 9.1737 45.8383 13.6579Z" fill="#F9F8FD"/>
<path d="M71.4932 53.0942C71.1618 59.7288 61.8948 59.4844 61.6776 53.0942C62.0136 46.4584 71.2806 46.7039 71.4932 53.0942Z" fill="#F9F8FD"/>
</svg>
