<svg width="200" height="237" viewBox="0 0 200 237" fill="none" xmlns="http://www.w3.org/2000/svg">
<path d="M91.6797 236.219C142.313 236.219 183.359 223.45 183.359 207.699C183.359 191.948 142.313 179.18 91.6797 179.18C41.0464 179.18 0 191.948 0 207.699C0 223.45 41.0464 236.219 91.6797 236.219Z" fill="#D6D6CE"/>
<path d="M20.4337 197.376C-6.69135 199.329 13.5938 207.193 9.95319 208.435C5.14069 209.833 0.878967 213.427 6.96881 215.556C18.6055 216.036 25.2735 214.775 37.4844 214.384C42.3047 214.357 44.0469 214.575 41.6446 218.63C39.7813 222.685 44.6641 223.747 47.6407 223.2C67.1719 219.427 54.3204 229.876 70.836 226.376C79.629 224.579 87.2188 219.837 95.8985 217.536C103.875 215.193 113.086 217.607 119.438 211.845C121.84 210.431 124.906 210.829 126.523 208.587C130.289 193.931 101.316 203.052 94.6602 201.212C67.0547 195.439 59.0782 194.919 35.4454 194.923C30.1133 194.47 25.6563 197.657 20.4337 197.392" fill="#C6E5FA"/>
<path d="M20.4296 197.297C17.3119 197.465 14.2124 197.881 11.1601 198.539C9.68355 198.886 8.03511 199.32 6.8359 200.281C6.16513 200.736 5.80249 201.526 5.89449 202.332C6.08419 203.132 6.48946 203.866 7.06636 204.453C7.66793 205.144 8.34761 205.757 9.01949 206.406C9.41011 206.777 10.0976 207.312 10.1914 207.879C10.2393 208.057 10.1562 208.244 9.99215 208.328C9.5579 208.522 9.10681 208.676 8.64449 208.789C7.99563 209.029 7.36395 209.314 6.75386 209.64C5.34761 210.422 2.70308 212.238 4.19527 214.078C4.57145 214.506 5.03142 214.853 5.54683 215.097C5.89671 215.277 6.25819 215.434 6.62886 215.566C7.01157 215.663 7.40647 215.702 7.80074 215.683C9.67053 215.748 11.5416 215.771 13.414 215.75C16.6718 215.715 19.9257 215.535 23.1796 215.312C26.6953 215.07 30.2109 214.8 33.7265 214.621C35.582 214.527 37.4453 214.422 39.3046 214.476C40.1718 214.504 41.5234 214.449 42.1953 215.125C42.8671 215.8 42.3711 216.797 42.0625 217.468C41.5507 218.57 40.7773 219.617 41.0859 220.902C41.5703 222.91 44.2109 223.402 45.9492 223.418C47.2968 223.418 48.6093 223.086 49.9336 222.882C51.3548 222.645 52.7902 222.503 54.2304 222.457C55.7343 222.425 57.3984 222.507 58.7148 223.316C60.2539 224.261 60.789 226.152 62.5664 226.808C64.0351 227.351 65.7187 227.238 67.2539 227.066C70.4891 226.665 73.6717 225.916 76.746 224.832C83.8554 222.406 90.5703 218.582 97.9882 217.117C104.129 215.894 110.898 216.882 116.625 213.937C117.292 213.599 117.931 213.207 118.535 212.765C118.859 212.531 119.152 212.265 119.465 212.015C119.866 211.723 120.312 211.498 120.785 211.347C122.148 210.851 123.617 210.675 124.934 210.05C125.531 209.775 126.064 209.375 126.496 208.879C126.761 208.481 126.914 208.02 126.937 207.543C127.08 206.753 127.093 205.946 126.977 205.152C126.496 202.203 123.715 200.922 121.062 200.41C117.305 199.687 113.355 200 109.574 200.336C105.793 200.672 102.019 201.254 98.2226 201.382C96.7577 201.42 95.2937 201.278 93.8632 200.961C90.1796 200.179 86.4921 199.445 82.7968 198.746C77.0195 197.652 71.2148 196.672 65.3711 196.011C60.207 195.433 55.0234 195.129 49.8281 194.988C46.8554 194.91 43.8828 194.875 40.9101 194.863C39.2031 194.863 37.4961 194.863 35.789 194.863C34.1037 194.795 32.4163 194.926 30.7617 195.254C27.3359 196.007 24.0468 197.468 20.4804 197.328C20.3125 197.328 20.125 197.476 20.3906 197.488C23.8007 197.621 26.957 196.347 30.2148 195.535C31.0823 195.315 31.963 195.152 32.8515 195.047C33.7993 194.981 34.75 194.968 35.6992 195.007H40.7304C46.2734 195.039 51.8164 195.121 57.3476 195.468C62.5351 195.797 67.6953 196.386 72.8281 197.179C79.5585 198.222 86.246 199.554 92.914 200.937C94.4094 201.306 95.9407 201.509 97.4804 201.543C99.0898 201.543 100.699 201.379 102.305 201.218C106.293 200.828 110.277 200.3 114.289 200.172C116.163 200.087 118.04 200.159 119.902 200.386C121.418 200.538 122.887 200.998 124.219 201.738C125.358 202.403 126.179 203.5 126.496 204.781C126.657 205.516 126.694 206.272 126.605 207.019C126.567 207.488 126.485 207.952 126.359 208.406C126.144 209.097 125.254 209.636 124.637 209.925C123.269 210.574 121.727 210.73 120.34 211.285C119.717 211.547 119.14 211.905 118.629 212.347C117.964 212.881 117.249 213.35 116.496 213.75C113.637 215.265 110.375 215.703 107.191 215.984C104.008 216.265 100.82 216.347 97.6953 216.992C94.1796 217.715 90.7968 219 87.4921 220.336C80.9296 222.996 74.4257 226.062 67.3086 226.879C65.7812 227.054 64.0234 227.199 62.582 226.539C61.8241 226.137 61.1804 225.55 60.7109 224.832C60.2288 224.116 59.597 223.514 58.8593 223.066C57.6093 222.382 56.0937 222.285 54.6953 222.285C53.468 222.299 52.2428 222.392 51.0273 222.562C49.5625 222.754 48.1015 223.156 46.6289 223.238C44.707 223.347 41.4531 222.793 41.4257 220.297C41.4257 218.957 42.3632 217.953 42.7539 216.73C42.9453 216.136 43.0312 215.433 42.5117 214.98C41.9336 214.476 41.0078 214.418 40.2851 214.363C38.7474 214.271 37.2056 214.271 35.6679 214.363C28.8593 214.652 22.0742 215.375 15.2578 215.535C13.5312 215.576 11.802 215.583 10.0703 215.554C9.10543 215.554 8.01949 215.632 7.07027 215.441C6.24847 215.24 5.48982 214.838 4.86324 214.269C2.73043 212.316 5.95308 210.211 7.53902 209.437C8.24745 209.092 8.98139 208.802 9.73433 208.57C9.95356 208.521 10.1642 208.439 10.3593 208.328C10.5168 208.234 10.6099 208.062 10.6015 207.879C10.5664 207.351 9.94136 206.84 9.60152 206.5C8.45308 205.363 6.81246 204.183 6.34371 202.554C5.60152 199.965 9.69918 199.039 11.4218 198.629C14.3996 197.998 17.4216 197.599 20.4609 197.433C20.6914 197.433 20.6796 197.261 20.4609 197.277L20.4296 197.297Z" fill="#6D6E70"/>
<path d="M129.449 193.345C129.523 207.251 137.375 210.493 141.523 204.54C143.172 199.13 140.91 194.774 147.344 194.555C151.145 194.348 156.516 195.282 158.898 195.516C158.898 195.841 158.844 196.54 158.75 197.341C157.914 205.27 157.484 206.516 165.094 207.138C172.125 208.22 170.172 187.763 168.18 184.263C163.84 175.79 151.332 175.423 144.504 181.79C141.379 184.266 138.41 185.368 134.715 187.145C132.117 188.513 129.836 190.43 129.449 193.345Z" fill="#B4D28B"/>
<path d="M129.258 193.297C129.244 195.52 129.498 197.736 130.016 199.898C130.386 201.484 131.024 202.996 131.902 204.367C133.137 206.223 135.156 207.715 137.488 207.441C138.542 207.296 139.53 206.844 140.328 206.14C140.793 205.739 141.21 205.286 141.57 204.789C141.775 204.427 141.907 204.029 141.961 203.617C142.062 203.16 142.148 202.703 142.219 202.242C142.445 200.73 142.441 199.168 142.809 197.68C142.932 197.085 143.188 196.527 143.559 196.047C143.985 195.55 144.545 195.187 145.172 195C146.114 194.739 147.089 194.616 148.066 194.637C149.207 194.613 150.348 194.668 151.484 194.758C153.609 194.926 155.719 195.226 157.832 195.492C158.191 195.539 158.551 195.582 158.914 195.617L158.691 195.48C158.691 196.515 158.52 197.551 158.41 198.578C158.324 199.394 158.234 200.211 158.172 201.031C158.09 202.133 157.996 203.32 158.316 204.394C158.977 206.59 161.742 206.883 163.668 207.101C164.098 207.148 164.527 207.187 164.957 207.226C165.216 207.258 165.477 207.277 165.738 207.281C166.142 207.278 166.541 207.191 166.91 207.027C167.673 206.635 168.289 206.008 168.668 205.238C169.165 204.264 169.513 203.221 169.703 202.144C169.954 200.839 170.105 199.516 170.152 198.187C170.264 195.415 170.123 192.638 169.73 189.89C169.58 188.748 169.369 187.615 169.098 186.496C168.936 185.75 168.686 185.026 168.352 184.34C167.59 182.865 166.542 181.557 165.27 180.492C164 179.456 162.552 178.661 160.996 178.148C156.075 176.591 150.715 177.306 146.375 180.101C145.655 180.59 144.969 181.126 144.32 181.707C143.4 182.467 142.411 183.14 141.367 183.719C139.352 184.89 137.199 185.808 135.094 186.805C133.23 187.683 131.387 188.879 130.238 190.629C129.706 191.434 129.36 192.348 129.227 193.305C129.227 193.422 129.59 193.504 129.617 193.402C129.898 191.379 131.148 189.754 132.742 188.547C134.547 187.191 136.687 186.387 138.711 185.422C140.74 184.497 142.665 183.357 144.453 182.023C144.809 181.746 145.129 181.433 145.477 181.152C145.824 180.871 146.141 180.637 146.488 180.402C147.192 179.925 147.931 179.503 148.699 179.14C151.76 177.696 155.181 177.195 158.527 177.699C161.772 178.136 164.728 179.791 166.797 182.328C167.498 183.191 168.048 184.167 168.422 185.215C168.717 186.128 168.947 187.061 169.109 188.008C169.581 190.579 169.829 193.186 169.852 195.801C169.883 198.344 169.766 200.988 169.012 203.437C168.531 205 167.586 206.953 165.715 207.066C165.513 207.075 165.31 207.066 165.109 207.039C164.676 206.988 164.242 206.961 163.809 206.914C163.087 206.846 162.37 206.739 161.66 206.594C160.762 206.398 159.789 206.101 159.195 205.359C158.602 204.617 158.527 203.687 158.512 202.812C158.53 201.355 158.638 199.901 158.836 198.457C158.938 197.492 159.086 196.504 159.098 195.551C159.098 195.465 158.941 195.418 158.879 195.414C154.82 195.023 150.762 194.164 146.668 194.48C145.281 194.59 143.785 194.961 142.996 196.207C142.289 197.328 142.215 198.777 142.105 200.058C142.027 200.883 141.941 201.707 141.801 202.523C141.723 202.988 141.625 203.457 141.504 203.914C141.467 204.127 141.4 204.333 141.305 204.527C141.213 204.674 141.108 204.813 140.992 204.941C140.309 205.841 139.399 206.542 138.355 206.973C137.454 207.328 136.458 207.367 135.531 207.082C134.484 206.714 133.563 206.055 132.875 205.183C131.931 204.009 131.219 202.667 130.777 201.226C130.155 199.28 129.788 197.26 129.688 195.219C129.652 194.617 129.637 194.015 129.633 193.414C129.633 193.289 129.242 193.226 129.242 193.316L129.258 193.297Z" fill="#6D6E70"/>
<path d="M42.3399 97.974C45.9024 96.9819 47.332 96.099 46.6641 94.0014C42.4414 84.5209 32.3516 73.4975 25.5469 71.8803C10.3594 70.4545 27.3125 97.685 38.2774 96.3334C40.0781 96.6459 41.6133 97.1381 42.5469 98.3881" fill="white"/>
<path d="M42.4766 98.0359C43.4226 97.7957 44.3465 97.4755 45.2383 97.0789C45.8177 96.8423 46.3244 96.4569 46.7071 95.9617C47.0026 95.4978 47.0944 94.9328 46.961 94.3992C46.8652 94.0214 46.7235 93.6567 46.5391 93.3133C46.3438 92.8914 46.1485 92.4734 45.9219 92.0594C44.0404 88.4775 41.7575 85.1213 39.1172 82.0555C36.7081 79.1309 33.9236 76.5369 30.836 74.3406C29.6091 73.4719 28.2817 72.7545 26.8829 72.2039C26.293 71.967 25.6694 71.8246 25.0352 71.782C24.4856 71.7481 23.9341 71.7612 23.3868 71.8211C21.8243 71.9969 20.3008 72.7273 19.6758 74.2703C19.0508 75.8133 19.3438 77.7391 19.8125 79.3484C20.5125 81.5664 21.5296 83.6715 22.8321 85.5984C24.2331 87.7365 25.8783 89.7042 27.7344 91.4617C29.4103 93.1246 31.3558 94.4916 33.4883 95.5047C34.4041 95.9345 35.3759 96.233 36.375 96.3914C36.843 96.4604 37.3164 96.4866 37.7891 96.4695C37.9024 96.4695 38.0118 96.4695 38.125 96.4461C38.2383 96.4226 38.2461 96.4461 38.3047 96.4461C38.3633 96.4461 38.3711 96.4461 38.3047 96.4461C38.3829 96.4461 38.4649 96.4734 38.543 96.4891C39.0731 96.579 39.5955 96.7096 40.1055 96.8797C40.9919 97.1557 41.7763 97.6886 42.3594 98.4109C42.4297 98.5047 42.793 98.4695 42.75 98.4109C42.1994 97.7156 41.4664 97.1868 40.6329 96.8836C40.1898 96.7205 39.7355 96.5899 39.2735 96.493C38.8751 96.3704 38.4597 96.3124 38.043 96.3211C37.1334 96.3928 36.2184 96.2961 35.3438 96.0359C33.2227 95.4422 31.3125 94.2078 29.6211 92.8289C27.6943 91.235 25.9681 89.4131 24.4805 87.4031C23.0265 85.5039 21.8153 83.4306 20.875 81.2312C20.1602 79.5164 19.5665 77.5906 19.75 75.7117C19.8907 74.2195 20.668 72.9226 22.0938 72.3523C22.9859 72.0283 23.9361 71.8952 24.8829 71.9617C25.1667 71.9626 25.4495 71.9941 25.7266 72.0555C26.0274 72.1375 26.3243 72.2351 26.6172 72.3406C27.2688 72.5732 27.9031 72.8512 28.5157 73.1726C31.6055 74.8445 34.293 77.2742 36.7188 79.8133C39.4884 82.7239 41.9362 85.9247 44.0196 89.3601C44.5079 90.1648 44.9766 90.9851 45.4141 91.8211C45.629 92.2351 45.8399 92.6531 46.043 93.075C46.2539 93.4558 46.4241 93.8578 46.5508 94.2742C46.7077 94.8084 46.637 95.3837 46.3555 95.8641C45.9782 96.3697 45.4666 96.7594 44.879 96.9891C44.0163 97.371 43.1224 97.6781 42.2071 97.907C42.1211 97.9305 42.1524 97.9773 42.2071 98.0164C42.294 98.0567 42.3927 98.0637 42.4844 98.0359H42.4766Z" fill="#6D6E70"/>
<path d="M170.883 163.072C172.742 161.212 179.563 164.31 177.082 168.236C183.609 173.314 176.863 174.705 177.984 177.111C179.336 181.439 171.574 182.24 169 183.111C167.359 182.544 163.336 182.72 161.547 182.13C158.617 178.533 164.223 175.439 165.344 173.189C166.762 170.556 168.301 164.572 170.477 164.31" fill="white"/>
<path d="M171.055 163.101C171.93 162.242 173.457 162.609 174.457 163.015C175.699 163.527 176.992 164.5 177.34 165.867C177.52 166.676 177.359 167.524 176.894 168.211C176.894 168.234 176.894 168.254 176.918 168.269C178.242 169.304 180.195 170.961 179.695 172.886C179.398 174.015 178.422 174.742 177.891 175.738C177.653 176.141 177.608 176.63 177.769 177.07C178.033 177.755 178.002 178.518 177.684 179.179C176.98 180.57 175.254 181.234 173.867 181.691C172.367 182.187 170.812 182.472 169.297 182.906L168.906 183.031H169.141C168.227 182.774 167.285 182.631 166.336 182.605C165.199 182.515 164.051 182.472 162.922 182.312C162.687 182.281 162.453 182.242 162.219 182.191C161.984 182.14 161.766 182.129 161.633 181.953C161.322 181.556 161.098 181.098 160.977 180.609C160.823 179.757 160.992 178.879 161.449 178.144C162.355 176.531 163.863 175.41 165.008 173.976C165.479 173.342 165.86 172.645 166.141 171.906C166.551 170.953 166.922 169.98 167.312 169.023C167.688 168.07 168.124 167.141 168.617 166.242C168.988 165.597 169.453 164.844 170.137 164.492C170.259 164.43 170.391 164.387 170.527 164.367C170.793 164.332 170.586 164.195 170.422 164.219C169.74 164.373 169.148 164.795 168.781 165.39C168.211 166.206 167.734 167.082 167.359 168.004C166.91 169.023 166.512 170.066 166.09 171.097C165.569 172.794 164.578 174.309 163.23 175.465C162.527 176.155 161.891 176.91 161.328 177.719C160.795 178.441 160.514 179.317 160.527 180.215C160.566 180.667 160.699 181.106 160.918 181.504C160.984 181.621 161.051 181.73 161.125 181.84C161.193 181.964 161.28 182.078 161.383 182.176C161.571 182.26 161.771 182.315 161.977 182.34C163.068 182.54 164.172 182.663 165.281 182.707C166.369 182.738 167.452 182.858 168.519 183.066C168.709 183.148 168.915 183.183 169.121 183.168C169.254 183.133 169.391 183.082 169.512 183.043C169.844 182.949 170.18 182.863 170.516 182.781C171.328 182.582 172.141 182.39 172.941 182.172C174.504 181.738 176.242 181.211 177.426 180.058C177.929 179.595 178.247 178.965 178.32 178.285C178.355 177.889 178.308 177.49 178.184 177.113C178.083 176.887 178.039 176.641 178.055 176.394C178.159 175.894 178.397 175.431 178.742 175.054C179.126 174.603 179.473 174.123 179.781 173.617C180.089 173.086 180.211 172.467 180.129 171.859C179.919 170.981 179.457 170.183 178.801 169.562C178.316 169.062 177.793 168.6 177.238 168.179L177.262 168.238C177.708 167.572 177.882 166.759 177.746 165.969C177.582 165.265 177.208 164.628 176.676 164.14C175.578 163.089 174.132 162.478 172.613 162.426C171.923 162.367 171.237 162.581 170.703 163.023C170.594 163.129 170.969 163.164 171.043 163.09L171.055 163.101Z" fill="#6D6E70"/>
<path d="M155.797 98.18C162.168 93.1761 165.672 85.2074 166.519 77.055C168.082 64.9456 162.351 58.555 166.129 56.4144C177.664 49.1722 189.273 43.9964 195.457 35.1331C205.051 19.8988 196.238 12.8675 182.199 19.555C170.035 25.4886 154.332 43.7738 153.156 46.2347C151.555 44.7035 149.879 43.3285 148.16 41.9144C154.289 35.6644 161.566 30.0902 167.785 23.7933C172.617 18.8988 177.789 13.6019 177.695 6.42221C177.539 -5.49576 158.945 2.32455 154.5 6.57065C145.715 14.9847 137.652 26.4339 132.437 37.2152C122.734 36.7191 110.172 41.4144 104.332 48.7855C82.0116 76.9105 102.203 95.1839 103.68 98.0277C104.601 99.7972 104.242 99.8285 102.535 101.328C100.898 102.766 77.3007 117.551 72.7147 120.129C70.1483 121.575 67.4647 122.793 65.9022 125.293C63.1249 129.743 63.7577 130.567 68.371 132.692C75.6249 136.028 93.5858 127.731 100.613 125.871C89.035 171.895 101.418 153.575 87.6366 165.868C84.121 169.844 84.3007 180.274 82.7968 186.961C83.3866 190.301 72.91 196.86 77.9686 200.801C85.3124 204.782 95.0858 197.965 98.6718 200.336C93.9218 212.836 113.351 208.149 119.062 206.196C122.773 204.907 124.379 201.836 126.875 197.891C128.828 193.243 149.637 192.707 155.574 188.344C171.094 177.942 171.094 164.649 172.617 153.641C173.922 136.235 170.332 118.129 155.797 98.18Z" fill="white"/>
<path d="M155.98 98.2192C161.027 94.2036 164.27 88.4028 165.816 82.2036C167.262 76.2497 167.297 70.0405 165.918 64.0708C165.527 62.3481 164.918 60.4966 165.02 58.7114C165.141 56.5122 167.488 55.7309 169.133 54.7388C175.211 51.0708 181.551 47.7466 187.25 43.4888C192.238 39.7661 196.418 35.2856 198.609 29.3481C199.863 25.977 200.563 21.3872 197.48 18.7505C194.645 16.3208 190.289 16.7427 186.934 17.6528C181.895 19.0239 177.473 21.9497 173.406 25.1294C169.015 28.6322 164.885 32.4496 161.047 36.5513C158.43 39.2856 155.773 42.1372 153.574 45.2388C153.344 45.5435 153.139 45.8662 152.961 46.2036H153.32C152.609 45.5317 151.884 44.8807 151.145 44.2505C150.426 43.6294 149.527 43.0786 148.895 42.3677C148.504 41.9184 148.555 41.7388 148.973 41.3208L150 40.3052C150.695 39.6294 151.398 38.9653 152.109 38.3052C154.934 35.6802 157.859 33.1606 160.742 30.5981C163.625 28.0356 166.406 25.4614 169.066 22.7309C171.293 20.4458 173.5 18.0864 175.191 15.3638C176.883 12.6411 177.945 9.63328 177.898 6.44188C177.875 4.78172 177.473 3.05516 176.277 1.83641C173.977 -0.50734 170.027 -0.159684 167.102 0.46141C163.255 1.28901 159.596 2.82276 156.309 4.98485C154.469 6.2036 152.965 7.81297 151.449 9.40672C148.913 12.078 146.522 14.8827 144.285 17.8091C139.8 23.621 135.895 29.8577 132.625 36.4302C132.406 36.8677 132.332 37.063 131.867 37.1138C131.52 37.1489 131.141 37.1138 130.789 37.1138C130.129 37.1138 129.469 37.145 128.809 37.188C127.282 37.2951 125.763 37.4986 124.262 37.7973C121.363 38.3656 118.533 39.2416 115.82 40.4106C113.094 41.5537 110.524 43.0383 108.172 44.8286C105.594 46.8325 103.602 49.313 101.738 51.977C98.1367 57.1333 95.2578 62.9341 94.1758 69.1645C92.7383 77.4341 94.8789 85.6294 99.4844 92.5552C100.656 94.3286 102.113 95.9145 103.293 97.6841C103.621 98.1802 104.074 98.8559 103.98 99.477C103.867 100.258 102.75 100.977 102.164 101.43C101.34 102.071 100.445 102.629 99.5742 103.2C92.4375 107.887 85.168 112.418 77.8789 116.872C76.5118 117.708 75.1446 118.54 73.7657 119.356C71.8555 120.485 69.7969 121.418 68.0313 122.774C66.831 123.723 65.8379 124.907 65.1133 126.254C64.6446 127.079 64.0977 128.036 64.0586 129.008C63.9844 130.887 66.3008 131.801 67.6914 132.458C71.4844 134.25 75.8946 133.489 79.8321 132.586C85.0547 131.415 90.0977 129.536 95.1407 127.754C96.9961 127.098 98.8516 126.43 100.75 125.918L100.426 125.833C98.8047 132.278 97.3008 138.758 96.1524 145.309C95.5468 148.596 95.1217 151.913 94.8789 155.247C94.7969 156.555 94.8789 157.891 94.7266 159.192C94.6648 159.814 94.3318 160.377 93.8164 160.731C92.6446 161.665 91.4141 162.485 90.2578 163.422C89.1016 164.36 87.6914 165.329 86.8594 166.594C85.418 168.786 84.9063 171.547 84.4727 174.09C83.9453 177.215 83.6719 180.403 83.2149 183.551C82.9141 185.633 82.8243 187.829 81.6328 189.606C80.4414 191.383 78.8477 193 77.6602 194.848C76.7422 196.278 75.8399 198.18 76.8555 199.797C78.0469 201.696 81.0039 202.086 83.0469 202.141C85.8282 202.223 88.5664 201.563 91.25 200.895C92.1094 200.68 98.3594 198.899 98.4219 200.504C98.4414 200.958 98.0547 201.633 97.9532 202.094C97.8439 202.575 97.7811 203.066 97.7657 203.559C97.7301 204.294 97.8638 205.028 98.1563 205.704C99.4492 208.528 103.395 208.79 106.063 208.747C109.844 208.68 113.641 207.891 117.258 206.84C119.211 206.274 121.043 205.61 122.555 204.192C123.636 203.115 124.582 201.909 125.371 200.602C126.063 199.528 126.637 198.29 127.434 197.297C128.453 196.036 130.316 195.45 131.797 194.973C134.038 194.294 136.313 193.734 138.613 193.293C143.375 192.301 148.328 191.598 152.883 189.833C155.16 188.95 157.113 187.489 158.996 185.961C161.584 183.886 163.859 181.449 165.75 178.723C168.875 174.165 170.566 168.903 171.496 163.489C172.463 158.179 172.985 152.799 173.059 147.403C173.105 133.602 169.328 120.258 162.547 108.27C160.553 104.764 158.363 101.374 155.988 98.1138C155.918 98.02 155.555 98.0434 155.598 98.1138C164.582 110.512 170.98 124.676 172.352 140.059C172.635 143.281 172.724 146.518 172.617 149.75C172.523 152.583 172.18 155.364 171.836 158.172C171.156 163.676 170.246 169.2 167.859 174.258C164.994 180.284 160.412 185.329 154.688 188.758C152.785 189.872 150.582 190.477 148.461 191.02C145.875 191.684 143.254 192.192 140.648 192.727C138.16 193.231 135.664 193.723 133.227 194.387C131.469 194.86 129.582 195.387 128.051 196.415C127.533 196.747 127.098 197.193 126.777 197.719C125.926 199.129 125.074 200.551 124.117 201.899C123.211 203.262 122.037 204.428 120.668 205.325C119.742 205.846 118.756 206.25 117.73 206.528C113.926 207.7 109.895 208.575 105.898 208.629C102.508 208.676 98 207.848 98.1719 203.551C98.2476 202.455 98.4954 201.378 98.9063 200.36C98.9063 200.336 98.8672 200.309 98.8555 200.301C97.5078 199.465 95.7305 199.727 94.2735 200.004C91.7657 200.485 89.3282 201.274 86.8086 201.692C85.3456 201.959 83.8557 202.05 82.3711 201.961C80.875 201.848 78.9375 201.508 77.7969 200.458C76.2578 199.036 76.8243 197.016 77.75 195.43C78.7696 193.68 80.1602 192.188 81.3789 190.583C81.9181 189.922 82.3783 189.201 82.75 188.434C83.0664 187.719 83.0313 186.993 83.1797 186.243C84.2774 180.75 84.1875 174.977 85.9141 169.614C86.255 168.449 86.7827 167.348 87.4766 166.352C87.9667 165.762 88.5224 165.23 89.1328 164.766C89.9883 164.036 90.8594 163.321 91.7539 162.633C92.6485 161.946 93.6055 161.372 94.4258 160.633C94.8458 160.272 95.1011 159.756 95.1328 159.204C95.2578 158.032 95.1953 156.84 95.2618 155.665C95.7227 147.461 97.6055 139.258 99.5078 131.29C99.9336 129.481 100.379 127.68 100.828 125.879C100.855 125.774 100.551 125.778 100.504 125.79C94.5977 127.352 88.9649 129.883 83.0782 131.555C79.8477 132.473 76.4922 133.301 73.1172 133.375C71.7336 133.45 70.3482 133.267 69.0313 132.836C67.6914 132.352 65.9063 131.606 64.9766 130.493C64.1016 129.465 64.543 128.204 65.0782 127.122C65.9466 125.244 67.2938 123.627 68.9844 122.434C70.9961 121.055 73.2383 119.989 75.3321 118.731C79.9571 115.95 84.5313 113.086 89.1016 110.215C93.2071 107.629 97.3399 105.067 101.352 102.34C101.766 102.059 102.188 101.782 102.582 101.469C103.277 100.922 104.535 100.153 104.352 99.1255C104.152 98.0278 103.227 97.063 102.559 96.2114C100.164 93.2716 98.165 90.0305 96.6133 86.5708C94.3449 81.301 93.5993 75.5008 94.461 69.8286C95.0759 66.0478 96.2612 62.3824 97.9766 58.9575C99.9532 54.9458 102.48 50.9223 105.523 47.6294C110.871 41.8598 119.043 38.5669 126.719 37.5395C128.625 37.2807 130.551 37.1931 132.473 37.2778C132.504 37.2778 132.598 37.2778 132.613 37.2388C136.663 28.9621 141.715 21.215 147.656 14.1723C149.109 12.438 150.619 10.7557 152.184 9.12547C153.245 7.94029 154.395 6.83811 155.625 5.8286C157.459 4.47836 159.452 3.35802 161.559 2.49266C164.017 1.38984 166.622 0.650327 169.293 0.297347C171.512 0.0473472 174.125 0.14891 175.832 1.79344C177.906 3.79344 177.73 7.23485 177.156 9.80907C176.246 13.8559 173.688 17.2739 170.945 20.2895C163.859 28.102 155.363 34.395 147.98 41.8911C147.961 41.8911 147.98 41.9419 147.98 41.9536C149.684 43.352 151.379 44.7544 152.977 46.2739C153.027 46.3247 153.289 46.3794 153.332 46.2739C153.814 45.418 154.384 44.6143 155.031 43.8755C156.184 42.4223 157.398 41.02 158.633 39.6372C162.065 35.7909 165.717 32.1468 169.57 28.7231C173.477 25.2817 177.656 21.8833 182.363 19.6098C186.301 17.7114 192.055 15.7505 196.211 18.1372C199.758 20.1802 199.668 24.6372 198.621 28.0942C196.824 34.0317 192.824 38.7466 188.023 42.5239C182.59 46.7934 176.445 50.0747 170.52 53.5903C168.977 54.5044 167.414 55.4067 165.91 56.3911C165.459 56.6585 165.097 57.0524 164.867 57.5239C164.309 58.7817 164.723 60.3716 164.992 61.6489C165.461 63.8481 165.996 66.0278 166.293 68.2583C166.673 71.3818 166.659 74.5407 166.25 77.6606C165.488 83.9341 163.152 90.1606 158.965 94.9419C157.942 96.1053 156.817 97.1758 155.605 98.1411C155.547 98.1919 155.887 98.2934 155.98 98.2192Z" fill="#6D6E70"/>
<path d="M139.531 163.001C137.144 162.555 134.73 162.267 132.305 162.142C130.236 162.034 128.161 162.124 126.109 162.411C124.31 162.667 122.55 163.148 120.871 163.845C119.294 164.516 117.823 165.414 116.504 166.509C115.14 167.655 113.937 168.981 112.93 170.45C111.803 172.105 110.849 173.871 110.082 175.72C109.12 177.973 108.361 180.308 107.812 182.696C107.133 185.724 107.004 188.853 106.211 191.86C106.009 192.632 105.76 193.389 105.465 194.13C105.26 194.776 104.942 195.381 104.523 195.915C103.922 196.474 103.216 196.908 102.445 197.192C100.836 197.895 98.9297 198.524 98.0039 200.157C97.7738 200.571 97.6178 201.022 97.543 201.489C97.543 201.595 97.9141 201.642 97.9336 201.524C98.0879 200.589 98.5697 199.739 99.293 199.126C100.003 198.563 100.793 198.109 101.637 197.778C102.449 197.465 103.238 197.097 104 196.677C104.326 196.485 104.624 196.25 104.887 195.978C105.263 195.497 105.553 194.955 105.746 194.376C106.957 191.497 107.25 188.384 107.699 185.329C108.125 182.684 108.817 180.089 109.766 177.583C110.467 175.619 111.353 173.725 112.41 171.927C113.334 170.362 114.45 168.919 115.73 167.63C116.942 166.427 118.324 165.41 119.832 164.61C121.391 163.795 123.055 163.198 124.777 162.837C126.712 162.432 128.684 162.238 130.66 162.259C132.982 162.275 135.3 162.466 137.594 162.829C138.203 162.923 138.816 163.024 139.426 163.138C139.477 163.138 139.641 163.169 139.668 163.103C139.695 163.036 139.59 163.005 139.543 162.997L139.531 163.001Z" fill="#6D6E70"/>
<path d="M12.582 167.926C13.1563 178.594 14.832 196.441 23.4062 204.516C39.6094 218.504 79.6172 220.043 97.4062 212.586C110.777 207.262 115.059 197.086 117.988 184.656C118.883 179.094 124.762 164.562 118.148 163.594C88.7812 173.41 62.2891 169.453 34.3555 165.84C26.7461 164.668 17.7578 160.395 12.8906 168.234" fill="#E0E68A"/>
<path d="M12.3906 167.876C12.8789 176.903 13.7734 186.235 17.0781 194.728C18.5977 198.634 20.7383 202.54 24.0547 205.196C27.0289 207.502 30.3073 209.386 33.7969 210.794C41.9141 214.2 50.7539 215.872 59.4922 216.63C68.2305 217.388 77.0898 217.259 85.7344 215.829C93.7227 214.513 101.941 211.923 107.863 206.126C110.949 203.114 113.215 199.396 114.863 195.431C116.512 191.466 117.52 187.353 118.477 183.196C119.324 179.497 120.516 175.884 121.121 172.13C121.449 170.464 121.519 168.758 121.328 167.071C121.148 165.864 120.668 164.638 119.574 163.985C119.074 163.685 118.359 163.388 117.785 163.575C116.147 164.12 114.5 164.627 112.844 165.099C109.672 165.997 106.467 166.76 103.23 167.388C96.984 168.583 90.6561 169.306 84.3008 169.548C71.9531 170.052 59.6133 168.907 47.3672 167.411C44.2422 167.021 41.1172 166.63 37.9922 166.216C35.3867 165.876 32.8203 165.501 30.2539 164.923C26.1953 164.005 21.582 162.681 17.4922 164.142C15.4937 164.906 13.8127 166.324 12.7227 168.165C12.6563 168.267 13.0273 168.36 13.0859 168.271C14.3086 166.318 16.0273 164.798 18.2539 164.134C20.3633 163.501 22.6211 163.63 24.7734 163.954C27.0312 164.298 29.25 164.868 31.4805 165.349C34.1211 165.923 36.8047 166.216 39.4805 166.564C51.3398 168.099 63.2344 169.579 75.2031 169.806C87.5078 170.036 99.8125 168.853 111.727 165.634C113.266 165.216 114.801 164.771 116.32 164.29L117.52 163.9C117.772 163.78 118.043 163.703 118.32 163.673C118.693 163.718 119.049 163.852 119.359 164.064C120.531 164.794 120.922 166.247 121.027 167.536C121.13 169.283 120.998 171.035 120.637 172.747C120.293 174.657 119.816 176.544 119.324 178.423C117.273 186.208 115.934 194.329 111.449 201.196C109.025 204.908 105.767 208.001 101.934 210.228C98.5054 212.162 94.824 213.608 90.9961 214.525C82.9102 216.56 74.4141 217.079 66.1016 216.833C57.1484 216.568 48.1328 215.364 39.5391 212.677C35.717 211.528 32.0353 209.956 28.5625 207.989C26.9894 207.083 25.4923 206.051 24.0859 204.903C22.5261 203.559 21.1961 201.969 20.1484 200.196C17.7461 196.321 16.3008 191.896 15.2656 187.482C14.2426 182.93 13.5468 178.312 13.1836 173.661C13.0195 171.759 12.8945 169.849 12.793 167.943C12.793 167.818 12.4023 167.782 12.4023 167.872L12.3906 167.876Z" fill="#6D6E70"/>
<path d="M126.953 162.191C124.141 188.801 11.3672 188.402 8.53906 162.387C10.6445 135.539 124.805 135.914 126.953 162.191Z" fill="#ECEC89"/>
<path d="M126.773 162.192C126.473 164.946 124.957 167.337 122.984 169.224C120.449 171.649 117.266 173.345 114.062 174.72C109.946 176.42 105.682 177.738 101.324 178.657C96.2638 179.758 91.1429 180.56 85.9883 181.059C80.4258 181.622 74.8359 181.903 69.2422 181.942C63.6484 181.981 58.0312 181.774 52.4453 181.302C47.1873 180.874 41.9567 180.159 36.7773 179.157C32.258 178.308 27.816 177.089 23.4961 175.513C20.082 174.231 16.6953 172.645 13.8203 170.376C11.6523 168.661 9.71872 166.446 9.00388 163.735C8.81731 163.13 8.75357 162.494 8.81638 161.864C8.9033 161.214 9.05778 160.576 9.27732 159.958C9.74001 158.705 10.4167 157.542 11.2773 156.52C13.3554 153.993 16.2304 152.177 19.1328 150.739C22.9451 148.916 26.9366 147.495 31.0429 146.497C35.9161 145.272 40.8623 144.359 45.8515 143.763C51.2851 143.083 56.7578 142.692 62.2304 142.536C67.8242 142.38 73.4297 142.462 79.0273 142.806C84.3512 143.115 89.6561 143.692 94.9219 144.536C99.6553 145.28 104.329 146.365 108.906 147.782C112.605 148.954 116.281 150.415 119.574 152.493C122.039 154.056 124.41 156.036 125.762 158.669C126.325 159.764 126.672 160.958 126.781 162.184C126.781 162.298 127.172 162.29 127.172 162.184C126.941 159.47 125.484 157.106 123.562 155.235C121.098 152.837 117.996 151.142 114.867 149.767C110.809 148.055 106.601 146.723 102.297 145.786C97.2415 144.649 92.1231 143.813 86.9687 143.282C81.4414 142.684 75.8828 142.368 70.3242 142.29C64.6914 142.207 59.0625 142.378 53.4375 142.806C48.1272 143.195 42.8421 143.873 37.6054 144.837C33.0191 145.654 28.5059 146.839 24.1094 148.38C20.5937 149.645 17.0781 151.216 14.0898 153.458C11.8125 155.173 9.7656 157.329 8.83591 160.063C8.6295 160.675 8.48426 161.306 8.40232 161.946C8.35482 162.608 8.44118 163.272 8.65622 163.899C9.02339 165.153 9.61646 166.328 10.4062 167.368C12.3281 169.946 15.0937 171.809 17.9297 173.286C21.6788 175.173 25.621 176.649 29.6875 177.688C34.5542 178.977 39.4995 179.948 44.4922 180.595C49.9843 181.337 55.5156 181.767 61.0547 181.977C66.7187 182.183 72.3854 182.134 78.0547 181.829C83.5335 181.551 88.9941 180.986 94.414 180.138C99.2227 179.409 103.972 178.332 108.625 176.915C112.426 175.743 116.195 174.259 119.586 172.153C122.156 170.556 124.633 168.505 126.062 165.786C126.654 164.668 127.03 163.449 127.172 162.192C127.176 162.091 126.785 162.071 126.773 162.192V162.192Z" fill="#6D6E70"/>
<path d="M121.387 160.844C118.906 180.376 16.5117 179.985 14.1367 161.005C15.8672 141.27 119.691 141.661 121.387 160.844Z" fill="#C6E5FA"/>
<path d="M121.203 160.794C120.922 162.954 119.441 164.677 117.773 165.97C115.387 167.818 112.523 169.025 109.687 170.001C105.936 171.252 102.094 172.213 98.1952 172.876C93.5976 173.704 88.953 174.259 84.2968 174.638C79.2655 175.052 74.2226 175.255 69.1757 175.286C64.1288 175.318 58.9726 175.169 53.8827 174.825C49.1405 174.501 44.4101 174.009 39.7186 173.263C35.6375 172.651 31.6023 171.765 27.6405 170.61C24.5936 169.693 21.5194 168.568 18.8202 166.845C16.9999 165.673 15.1718 164.11 14.5233 161.978C14.3667 161.537 14.3211 161.065 14.3905 160.603C14.4739 160.126 14.6156 159.662 14.8124 159.22C15.2537 158.265 15.8743 157.405 16.6405 156.685C18.621 154.759 21.2108 153.489 23.7499 152.474C27.2454 151.13 30.8515 150.093 34.5272 149.376C38.9596 148.477 43.4357 147.81 47.9374 147.376C52.8476 146.88 57.7772 146.595 62.7108 146.485C67.7785 146.363 72.8463 146.426 77.914 146.673C82.7499 146.911 87.578 147.314 92.3671 147.946C96.6336 148.477 100.865 149.259 105.039 150.29C108.382 151.073 111.63 152.221 114.723 153.712C116.836 154.782 119.019 156.165 120.308 158.216C120.803 158.992 121.109 159.874 121.199 160.79C121.199 160.9 121.59 160.997 121.59 160.88C121.394 158.775 119.98 157.064 118.383 155.802C116.094 153.982 113.336 152.782 110.601 151.806C106.884 150.522 103.072 149.533 99.1991 148.849C94.6522 147.997 90.0585 147.415 85.453 147.001C80.414 146.552 75.3593 146.31 70.3007 146.243C65.2421 146.177 60.0897 146.286 54.996 146.591C50.1796 146.884 45.3671 147.345 40.5936 148.06C36.442 148.649 32.3341 149.513 28.2968 150.646C25.1483 151.552 21.9921 152.673 19.1718 154.368C17.2421 155.54 15.2968 157.064 14.4022 159.196C14.2155 159.641 14.0843 160.107 14.0116 160.583C13.961 161.056 14.0239 161.534 14.1952 161.978C14.5271 162.941 15.0596 163.822 15.7577 164.564C17.5429 166.54 20.0155 167.849 22.4296 168.892C25.852 170.314 29.4 171.412 33.0272 172.173C37.4239 173.131 41.8692 173.851 46.3436 174.329C51.3358 174.888 56.3554 175.22 61.3788 175.38C66.5351 175.539 71.6939 175.513 76.8554 175.302C81.8358 175.095 86.8124 174.712 91.7577 174.083C96.1064 173.559 100.42 172.776 104.676 171.739C108.135 170.937 111.496 169.758 114.699 168.224C116.902 167.118 119.164 165.689 120.558 163.587C121.097 162.784 121.449 161.869 121.586 160.911C121.59 160.802 121.219 160.7 121.203 160.794Z" fill="#6D6E70"/>
<path d="M34.4374 103.603C25.1835 115.068 29.8241 140.837 47.1444 140.494C46.1522 141.626 45.1366 142.591 43.5233 142.705C30.9569 144.56 27.2421 137.533 20.2616 138.095C17.2108 138.681 17.5624 141.771 18.5819 144.572C21.0937 151.826 29.2187 153.509 35.9374 154.669C37.7069 155.38 40.5507 154.232 41.1327 155.583C41.7499 158.587 39.5038 163.837 41.2226 164.283C52.4687 165.455 63.2069 165.747 74.4491 164.787C80.1601 163.744 83.2616 164.642 81.871 158.537C81.0897 155.169 81.2812 151.783 81.3905 148.626C83.4218 146.177 88.0507 144.33 90.4374 141.927C94.7538 139.294 102.797 122.599 94.7812 123.263C92.2772 123.775 89.6093 126.915 87.7147 128.982C83.0272 134.263 78.0116 137.185 70.6757 134.767C72.6288 132.701 78.0233 129.501 79.8202 122.857C82.3515 115.693 76.871 102.205 72.4843 98.9076C66.6835 92.9428 51.0741 90.6069 43.5155 94.5873C41.6288 95.3686 40.9687 96.0366 40.2108 95.6811C31.9101 90.9584 14.5702 69.3334 5.34365 82.7592C1.04678 92.0678 12.6171 95.3725 16.8554 97.2475C22.2812 99.3647 32.6718 103.142 34.1249 103.603" fill="white"/>
<path d="M34.2579 103.543C32.3935 105.943 31.0726 108.719 30.3868 111.68C29.6198 114.856 29.3914 118.138 29.711 121.39C29.9871 124.588 30.8214 127.712 32.1759 130.621C33.4183 133.338 35.2935 135.718 37.6446 137.562C40.0557 139.374 42.953 140.424 45.9649 140.578C46.3907 140.597 46.8165 140.605 47.2384 140.597L46.9806 140.449C46.4036 141.174 45.6928 141.781 44.8868 142.238C43.9845 142.687 42.8907 142.726 41.8985 142.824C40.0278 143.015 38.1411 142.985 36.2774 142.734C33.4923 142.344 30.9181 141.328 28.379 140.168C26.336 139.238 24.254 138.262 21.9923 138.043C20.797 137.93 19.4454 137.918 18.5157 138.801C17.4923 139.75 17.5782 141.312 17.8243 142.582C18.4356 145.76 20.256 148.578 22.9024 150.441C25.4845 152.25 28.5665 153.215 31.6095 153.91C33.172 154.265 34.7774 154.504 36.3399 154.875C37.1088 155.016 37.8932 155.053 38.672 154.984C39.3087 154.961 40.3673 154.785 40.8321 155.344C41.0089 155.66 41.0878 156.021 41.0587 156.383C41.0802 156.764 41.0802 157.146 41.0587 157.527C41.0001 158.34 40.8751 159.148 40.7462 159.949C40.629 160.687 40.5001 161.426 40.4337 162.172C40.35 162.693 40.3807 163.226 40.5235 163.734C40.6461 164.075 40.9463 164.321 41.3048 164.375C41.879 164.488 42.4767 164.492 43.0782 164.551L45.0313 164.726C47.4011 164.93 49.7774 165.094 52.1602 165.219C56.9962 165.465 61.8399 165.523 66.6759 165.355C69.0925 165.275 71.5092 165.135 73.9259 164.937C75.4649 164.812 77.0235 164.547 78.5587 164.297C79.5196 164.148 80.5899 163.992 81.4102 163.426C82.2306 162.859 82.4571 161.969 82.4649 161.051C82.4586 160.34 82.3774 159.631 82.2227 158.937C81.9666 157.778 81.7801 156.604 81.6642 155.422C81.5704 154.269 81.5509 153.109 81.5665 151.957C81.5665 151.402 81.5665 150.851 81.6056 150.301C81.6446 149.75 81.504 148.933 81.797 148.531C82.3412 147.886 82.9799 147.328 83.6915 146.875C84.4532 146.324 85.254 145.82 86.0352 145.312C87.5977 144.344 89.1993 143.41 90.5274 142.148C90.8243 141.863 91.1876 141.648 91.4962 141.367C91.8434 141.053 92.1709 140.718 92.4767 140.363C93.2107 139.504 93.878 138.59 94.4727 137.629C95.8534 135.463 96.9509 133.128 97.7384 130.683C98.2931 128.926 98.9102 126.652 98.1485 124.859C97.3868 123.066 95.2423 122.82 93.6759 123.535C92.0079 124.293 90.6446 125.668 89.4024 126.976C88.1602 128.285 86.9102 129.773 85.5431 131.058C83.0196 133.402 79.9649 135.281 76.4376 135.508C74.5301 135.598 72.6228 135.327 70.8165 134.707L70.9259 134.832C71.6329 134.097 72.4376 133.461 73.2071 132.797C74.2395 131.922 75.2154 130.982 76.129 129.984C78.2697 127.62 79.7515 124.734 80.4259 121.617C81.0196 118.793 80.6524 115.789 80.0118 113.023C79.311 109.975 78.2158 107.031 76.754 104.265C76.1341 103.08 75.4168 101.949 74.6095 100.883C73.9417 100.083 73.2143 99.3345 72.4337 98.6444C70.5274 96.8045 68.0665 95.5741 65.6017 94.6678C62.6895 93.6124 59.6522 92.9414 56.5665 92.6717C53.6102 92.3586 50.624 92.481 47.7032 93.035C46.4322 93.284 45.1937 93.6772 44.0118 94.2069C43.2813 94.5389 42.5509 94.8866 41.8282 95.242C41.3009 95.5037 40.7345 95.8631 40.172 95.5311C38.4038 94.424 36.7267 93.1779 35.1563 91.8045C31.0196 88.3866 27.0196 84.742 22.4649 81.8709C18.9063 79.6248 14.2618 77.328 9.98446 78.7733C8.98344 79.1188 8.05599 79.6488 7.25009 80.3358C6.24393 81.1281 5.44059 82.1484 4.90634 83.3123C3.98446 85.6248 3.96493 88.1405 5.35165 90.2694C6.57431 92.1522 8.51571 93.4686 10.4649 94.5116C12.3165 95.4998 14.2813 96.2381 16.2149 97.0428C18.797 98.1209 21.4415 99.0662 24.0665 100.039C26.754 101.035 29.4454 102.023 32.1485 102.984C32.7892 103.211 33.4259 103.445 34.0743 103.652C34.2345 103.703 34.4649 103.609 34.211 103.531C32.3517 102.933 30.5235 102.23 28.6915 101.578C25.78 100.521 22.8777 99.4425 19.9845 98.3436C17.9298 97.5623 15.8907 96.7616 13.8634 95.9139C11.836 95.0662 9.71884 94.0701 7.94149 92.6717C6.16415 91.2733 4.74618 89.3709 4.60556 87.0506C4.55873 85.7393 4.80982 84.4345 5.33993 83.2342C5.81259 82.0897 6.84774 81.0584 7.80478 80.2967C9.45704 78.9744 11.5564 78.3418 13.6642 78.5311C15.9493 78.7108 18.129 79.6209 20.1251 80.6951C24.8126 83.2069 28.8517 86.7655 32.8868 90.1678C34.6056 91.617 36.3204 93.0819 38.1446 94.4022C38.5352 94.6834 38.9259 94.9569 39.3165 95.2147C39.6353 95.4575 39.988 95.6523 40.3634 95.7928C40.7754 95.8842 41.2065 95.829 41.5821 95.6366C42.3634 95.3084 43.1173 94.9334 43.8595 94.5584C46.2813 93.3319 49.0548 92.8631 51.7384 92.7225C54.8556 92.5716 57.9792 92.8343 61.0274 93.5037C63.9472 94.0795 66.7552 95.1215 69.3438 96.5897C70.4142 97.2552 71.4165 98.0245 72.336 98.8866C73.1189 99.5573 73.8274 100.31 74.4493 101.133C77.841 106.076 79.8553 111.833 80.2852 117.812C80.3807 120.771 79.6791 123.702 78.254 126.297C76.8712 128.84 74.8399 130.894 72.6642 132.769C71.9415 133.39 71.1837 133.992 70.5235 134.683C70.4688 134.738 70.6017 134.797 70.6329 134.808C73.8556 135.847 77.2735 136.055 80.4727 134.765C83.672 133.476 86.1329 130.988 88.4259 128.469C89.6954 127.074 90.9727 125.644 92.5001 124.527C93.5899 123.726 94.9142 123.015 96.2931 123.437C98.0313 123.969 98.1407 126.117 97.9727 127.621C97.7071 129.988 96.8009 132.308 95.7579 134.426C94.7577 136.591 93.4615 138.606 91.9063 140.414C91.2608 141.064 90.5773 141.676 89.8595 142.246C88.5274 143.418 86.961 144.336 85.4532 145.281C84.0157 146.183 82.461 147.113 81.3477 148.406C81.0977 148.699 81.1993 149.308 81.1876 149.68C81.1642 150.285 81.1446 150.89 81.1329 151.492C81.1134 152.617 81.1329 153.742 81.1954 154.867C81.27 156.024 81.4293 157.174 81.672 158.308C81.8615 159.077 81.9805 159.862 82.0274 160.652C82.0587 161.597 81.8829 162.586 81.0938 163.187C80.3048 163.789 79.1407 163.969 78.1681 164.097C76.6056 164.332 75.0196 164.613 73.4454 164.738C63.8837 165.456 54.2788 165.375 44.7306 164.496L42.9688 164.359L42.086 164.273C41.7857 164.28 41.4859 164.245 41.1954 164.168C40.8048 163.992 40.7657 163.312 40.7618 162.953C40.7618 161.512 41.1524 160.066 41.3126 158.656C41.4258 157.9 41.465 157.135 41.4298 156.371C41.3946 155.805 41.3282 155.324 40.7813 155.051C40.2419 154.832 39.658 154.745 39.0782 154.797C38.2172 154.879 37.3497 154.863 36.4923 154.75C36.1446 154.676 35.8204 154.57 35.4688 154.508C35.1173 154.445 34.6876 154.371 34.297 154.297C33.4923 154.148 32.6915 153.987 31.8946 153.812C30.3172 153.474 28.7652 153.027 27.2501 152.472C24.2696 151.347 21.4571 149.57 19.7892 146.781C18.9456 145.365 18.382 143.8 18.129 142.172C17.9181 140.765 18.1056 139.129 19.5431 138.453C20.6524 137.93 22.1056 138.137 23.2696 138.39C24.3623 138.648 25.4273 139.012 26.4493 139.476C28.7227 140.457 30.9259 141.57 33.3165 142.25C36.4806 143.112 39.7867 143.325 43.0352 142.875C43.9045 142.831 44.7537 142.597 45.5235 142.191C46.2063 141.743 46.8163 141.192 47.3321 140.558C47.4142 140.465 47.1173 140.406 47.0743 140.41C43.9765 140.494 40.9324 139.59 38.3829 137.828C35.9901 136.079 34.0649 133.767 32.7774 131.097C29.9727 125.519 29.297 118.801 30.5626 112.715C31.1868 109.422 32.5786 106.322 34.6251 103.668C34.6954 103.578 34.336 103.457 34.2657 103.547L34.2579 103.543Z" fill="#6D6E70"/>
<path d="M68.8281 101.157C70.625 104.016 67.6562 105.845 65.7617 103.263C63.9648 100.399 66.9453 98.5595 68.8281 101.157Z" fill="#272525"/>
<path d="M54.7227 112.313C56.5235 115.176 53.5508 117 51.6602 114.422C49.8594 111.559 52.8399 109.719 54.7227 112.313Z" fill="#272525"/>
<path d="M68.707 112.016C69.9883 113.891 70.5039 116.188 71.1875 118.32C71.2227 118.422 71.6016 118.445 71.5781 118.32C70.8945 116.188 70.3789 113.895 69.0977 112.02C69.0313 111.922 68.668 111.926 68.707 112V112.016Z" fill="#6D6E70"/>
<path d="M64.5 120.872C65.5631 121.363 66.7557 121.5 67.9024 121.263C69.0274 121.06 70.1836 120.556 70.8555 119.595C71.2371 119.032 71.4161 118.355 71.3633 117.677L70.9727 117.759C71.5235 118.443 72.5625 118.482 73.3594 118.314C74.3271 118.156 75.1645 117.553 75.6211 116.685C75.8592 116.114 75.8828 115.475 75.6875 114.888C75.6524 114.775 75.2735 114.853 75.2969 114.951C75.6117 115.85 75.3561 116.851 74.6485 117.49C74.0276 118.042 73.2006 118.303 72.375 118.208C71.9704 118.163 71.598 117.966 71.3321 117.658C71.2774 117.587 70.9414 117.626 70.9414 117.74C71.0149 118.831 70.48 119.874 69.5508 120.451C68.6268 121.022 67.5431 121.279 66.461 121.185C65.8785 121.151 65.3087 121.001 64.7852 120.743C64.6953 120.697 64.336 120.81 64.4649 120.872H64.5Z" fill="#6D6E70"/>
<path d="M69.0508 108.109C68.4922 107.832 64.8047 108.891 64.6406 111.57C67.1875 112.797 71.6992 114.133 69.0508 108.109Z" fill="#D97A7B"/>
<path d="M58.5936 121.45C59.8593 126.309 52.5546 128.481 50.9101 123.887C49.6288 119.047 56.9413 116.876 58.5936 121.45Z" fill="#F5E1DF"/>
<path d="M38.6212 99.2626C38.6212 99.2626 18.629 80.3759 12.5821 85.3134C12.5821 85.3134 4.52354 91.6689 38.6212 99.2626Z" fill="#D9DDEF"/>
<path d="M78.1249 140.347C78.7875 141.683 79.301 143.089 79.6561 144.538C79.9882 145.874 80.2069 147.233 80.4374 148.585C80.5819 149.417 80.7343 150.249 80.9061 151.073C80.9335 151.194 81.2968 151.179 81.2968 151.093C80.7147 148.308 80.4335 145.448 79.5155 142.745C79.2298 141.917 78.8906 141.108 78.4999 140.323C78.4491 140.222 78.0702 140.245 78.1093 140.347H78.1249Z" fill="#6D6E70"/>
<path d="M24.3008 141.128C22.9102 140.3 21.3281 139.648 20.1953 138.46C20.125 138.386 19.75 138.386 19.8477 138.492C21 139.699 22.582 140.359 24.0117 141.199C24.0951 141.245 24.1923 141.259 24.2852 141.238C24.3516 141.21 24.3711 141.171 24.2852 141.128H24.3008Z" fill="#6D6E70"/>
<path d="M18.1797 140.35C18.6944 141.15 19.3703 141.834 20.1641 142.358C20.9928 142.94 21.8667 143.455 22.7773 143.897C22.8672 143.944 23.2383 143.897 23.0547 143.8C22.166 143.365 21.3131 142.861 20.5039 142.292C19.7238 141.784 19.0585 141.119 18.5508 140.339C18.4922 140.237 18.1172 140.272 18.1602 140.366L18.1797 140.35Z" fill="#6D6E70"/>
<path d="M93.9883 130.211C94.6954 129.285 95.418 128.371 96.086 127.418C96.4493 126.895 96.8047 126.359 97.1172 125.805C97.3766 125.373 97.5751 124.908 97.7071 124.422C97.7383 124.305 97.3555 124.32 97.3165 124.422C97.1852 124.907 96.9867 125.371 96.7266 125.801C96.4141 126.359 96.0587 126.891 95.6954 127.414C95.0274 128.367 94.3047 129.281 93.5977 130.207C93.5469 130.277 93.9024 130.301 93.9883 130.207V130.211Z" fill="#6D6E70"/>
<path d="M92.1094 127.344C93.4336 126.211 95.1797 125.082 95.625 123.293C95.6562 123.172 95.2734 123.18 95.2344 123.293C94.7773 125.066 93.0547 126.18 91.7422 127.305C91.6328 127.395 92.0039 127.426 92.082 127.355L92.1094 127.344Z" fill="#6D6E70"/>
<path d="M68.4961 121.269C68.5944 122.357 68.9362 123.409 69.4961 124.347C69.9883 125.156 70.7617 125.879 71.7773 125.722C72.7031 125.578 73.2031 124.8 73.4922 123.976C73.8107 122.954 73.9907 121.894 74.0273 120.824C74.0859 119.894 74.0273 118.945 74.1562 118.019C74.1562 117.918 73.7656 117.898 73.7656 118.019C73.6797 118.722 73.7031 119.445 73.6719 120.152C73.6482 121.156 73.5358 122.156 73.3359 123.14C73.1641 123.922 72.8867 124.863 72.1992 125.347C71.3242 125.965 70.4844 125.23 69.9961 124.5C69.3663 123.533 68.9852 122.426 68.8867 121.277C68.8867 121.16 68.4961 121.172 68.4961 121.277V121.269Z" fill="#6D6E70"/>
<path d="M113.551 71.7262C112.211 75.859 108.144 74.5192 109.176 70.4879C110.547 66.3434 114.586 67.6989 113.551 71.7262Z" fill="#272525"/>
<path d="M140.832 84.1247C139.492 88.2575 135.422 86.9176 136.457 82.8864C137.809 78.7418 141.863 80.0973 140.832 84.1247Z" fill="#272525" stroke="#272525"/>
<path d="M108.484 87.4075C108.318 88.1039 108.411 88.8373 108.746 89.47C109.056 89.9221 109.532 90.2337 110.07 90.3372C111.383 90.6419 112.836 90.2044 113.977 89.5559C114.649 89.1912 115.233 88.6831 115.688 88.0677L115.297 88.0286C114.979 89.0138 114.994 90.0763 115.34 91.052C115.689 91.9188 116.29 92.6606 117.066 93.1809C118.739 94.2909 120.799 94.6533 122.75 94.1809C123.839 93.9347 124.83 93.3705 125.598 92.5599C125.66 92.4934 125.305 92.4153 125.207 92.5052C123.91 93.9075 121.906 94.4192 120.051 94.1458C118.309 93.8841 116.535 92.9153 115.801 91.2552C115.374 90.2349 115.329 89.0954 115.672 88.0442C115.699 87.9466 115.336 87.9388 115.281 88.0091C114.499 89.027 113.399 89.7543 112.156 90.0755C111.176 90.3528 109.832 90.4661 109.152 89.5325C108.715 88.9309 108.727 88.1302 108.844 87.427C108.844 87.3255 108.453 87.2903 108.453 87.4075H108.484Z" fill="#6D6E70"/>
<path d="M107.672 78.3748C105.582 82.9412 98.5585 79.9881 100.18 75.406C102.269 70.8396 109.293 73.7967 107.672 78.3748Z" fill="#F5E1DF"/>
<path d="M141.976 94.4968C139.887 99.0632 132.863 96.1062 134.484 91.5281C136.574 86.9617 143.601 89.9148 141.976 94.4968Z" fill="#F5E1DF"/>
<path d="M130.586 118.844C126.246 129.176 115.707 136.617 106.199 141.781C102.481 143.852 96.2813 147.363 98.5509 152.941C100.414 157.281 108.473 157.902 112.399 157.281C124.18 155.215 139.68 145.504 145.051 134.758" fill="white"/>
<path d="M130.395 118.805C128.84 122.353 126.686 125.606 124.027 128.422C121.329 131.303 118.33 133.886 115.082 136.129C113.484 137.258 111.844 138.321 110.168 139.332C108.629 140.262 107.043 141.125 105.48 142.004C104.171 142.727 102.914 143.54 101.719 144.438C100.497 145.31 99.4627 146.418 98.6758 147.696C97.9285 148.976 97.7033 150.496 98.0469 151.938C98.376 153.289 99.1925 154.472 100.34 155.258C101.544 156.056 102.886 156.626 104.297 156.938C105.782 157.299 107.301 157.502 108.828 157.543C110.152 157.605 111.478 157.525 112.785 157.305C114.424 156.998 116.04 156.585 117.625 156.067C121.167 154.901 124.578 153.372 127.805 151.504C131.124 149.611 134.241 147.385 137.109 144.86C139.8 142.539 142.144 139.845 144.07 136.86C144.488 136.192 144.879 135.504 145.242 134.797C145.281 134.719 144.918 134.606 144.852 134.715C143.256 137.763 141.178 140.533 138.699 142.918C136.036 145.544 133.099 147.876 129.938 149.875C126.792 151.902 123.454 153.613 119.973 154.985C118.342 155.627 116.675 156.172 114.98 156.618C112.208 157.422 109.295 157.624 106.438 157.211C104.944 157.032 103.485 156.638 102.105 156.039C100.855 155.531 99.7851 154.658 99.0352 153.535C98.2619 152.214 98.0549 150.637 98.4609 149.16C98.9206 147.754 99.7569 146.5 100.879 145.535C102.014 144.518 103.254 143.623 104.578 142.868C105.953 142.047 107.375 141.305 108.762 140.524C110.387 139.586 111.992 138.602 113.559 137.563C116.812 135.44 119.858 133.015 122.656 130.321C125.408 127.696 127.742 124.666 129.578 121.336C130.013 120.537 130.404 119.714 130.75 118.868C130.785 118.782 130.414 118.672 130.359 118.789L130.395 118.805Z" fill="#6D6E70"/>
<path d="M98.6405 152.64C99.2761 151.621 100.145 150.766 101.176 150.148C102.248 149.554 103.404 149.127 104.605 148.883C104.863 148.824 104.652 148.703 104.488 148.742C103.229 148.997 102.016 149.442 100.891 150.062C99.8237 150.7 98.9229 151.58 98.2616 152.633C98.2069 152.715 98.5741 152.742 98.6523 152.633L98.6405 152.64Z" fill="#6D6E70"/>
<path d="M101.629 155.683C103.484 153.644 106.16 152.8 108.633 151.777C108.758 151.722 108.41 151.597 108.313 151.636C105.824 152.671 103.133 153.523 101.281 155.578C101.207 155.656 101.566 155.773 101.645 155.687L101.629 155.683Z" fill="#6D6E70"/>
<path d="M100.609 127.107C100.811 125.169 101.225 123.259 101.844 121.411C102.469 119.474 103.253 117.591 104.188 115.783C104.665 114.851 105.195 113.947 105.773 113.075C105.828 112.99 105.461 112.947 105.383 113.044C104.316 114.665 103.401 116.381 102.648 118.169C101.84 120.035 101.197 121.968 100.727 123.947C100.475 124.99 100.298 126.05 100.195 127.118C100.195 127.216 100.586 127.224 100.586 127.118L100.609 127.107Z" fill="#6D6E70"/>
<path d="M139.988 38.1871C139.988 38.1871 154.711 4.398 163.391 9.98003C163.391 9.98784 172.227 13.8589 139.988 38.1871Z" fill="#D9DDEF"/>
<path d="M159.977 51.5168C159.977 51.5168 179.988 20.5637 187.645 27.4777C187.645 27.4777 195.734 32.7199 159.977 51.5168Z" fill="#D9DDEF"/>
<path d="M108.488 66.212C108.165 67.1576 108.187 68.1873 108.551 69.1182C108.973 70.0887 109.758 70.8555 110.738 71.2549C110.797 71.2823 110.949 71.3331 111.004 71.2823C111.058 71.2315 111.023 71.1924 110.957 71.1651C110.006 70.7688 109.258 70.0011 108.887 69.0401C108.578 68.1548 108.578 67.191 108.887 66.3057C108.918 66.2081 108.539 66.1143 108.496 66.2276L108.488 66.212Z" fill="#272525"/>
<path d="M138.621 83.9971C140.574 84.3213 142.824 84.626 144.5 83.3096C144.57 83.2549 144.453 83.2197 144.414 83.2158C144.322 83.2093 144.231 83.2356 144.156 83.29C142.656 84.4619 140.613 84.1299 138.875 83.8408C138.781 83.8224 138.684 83.8391 138.602 83.8877C138.559 83.9307 138.531 83.9814 138.621 83.9971V83.9971Z" fill="#272525"/>
<path d="M115.262 88.8138C115.957 87.0975 116.786 85.4387 117.742 83.8529C117.785 83.7826 117.426 83.6537 117.352 83.7631C116.398 85.3498 115.57 87.0085 114.875 88.724C114.836 88.8138 115.207 88.9271 115.266 88.8138H115.262Z" fill="#6D6E70"/>
<path d="M116.383 80.4959C116.855 80.078 120.707 80.203 121.527 82.7225C119.394 84.5428 115.348 87.0428 116.383 80.4959Z" fill="#D97A7B"/>
<path d="M85.8945 163.894C75.9062 171.628 55.3125 169.265 45.9375 167.25C27.9258 166.312 28.9062 160.66 34.8828 160.406C37.7851 160.171 41.7344 162.546 42.5312 160.218C42.6992 158.195 44.0039 156.5 46.0898 155.421C51.4141 152.542 53.1211 160.468 56.7656 161.378C61.0937 162.136 63.918 151.824 66.5312 159.949C69.6562 165.265 72.8359 155.292 75.5976 155.699C79.3359 156.042 79.7187 161.347 83.7305 158.433C87.2461 154.429 92.8789 154.187 90.4062 159.996C89.2344 161.613 86.7226 162.421 85.5859 164.054" fill="#E6F3FD"/>
<path d="M85.7148 163.84C83.3899 165.553 80.7596 166.807 77.9648 167.535C74.9098 168.368 71.7751 168.875 68.6132 169.047C65.3938 169.233 62.1658 169.212 58.9491 168.984C56.0507 168.789 53.164 168.461 50.289 168C49.1171 167.809 47.9452 167.609 46.7734 167.359C46.5156 167.309 46.2538 167.242 45.9921 167.195C45.4843 167.113 44.9413 167.129 44.4296 167.094C43.4531 167.027 42.4765 166.941 41.5038 166.828C38.8554 166.523 36.0702 166.101 33.621 164.988C32.7148 164.578 31.2773 163.848 31.207 162.695C31.1406 161.773 32.082 161.195 32.8281 160.914C33.431 160.694 34.0625 160.563 34.7031 160.523C36.2421 160.414 37.6874 160.82 39.1796 161.129C40.1757 161.332 41.8163 161.711 42.5234 160.703C42.6873 160.422 42.7835 160.106 42.8046 159.781C42.8752 159.385 42.9918 158.998 43.1523 158.629C43.4917 157.869 43.9898 157.191 44.6132 156.641C45.2617 156.056 46.0038 155.585 46.8085 155.246C47.3641 154.997 47.9696 154.879 48.5781 154.902C49.6484 154.973 50.5546 155.637 51.3124 156.363C52.1132 157.202 52.8695 158.082 53.5781 159C54.2083 159.839 54.9867 160.555 55.8749 161.113C56.6804 161.573 57.6523 161.638 58.5116 161.289C59.3875 160.893 60.1772 160.329 60.8359 159.629C61.5234 158.969 62.1562 158.246 62.8906 157.633C63.3281 157.266 64.039 156.699 64.6484 156.992C65.0161 157.212 65.3151 157.53 65.5116 157.91C65.8562 158.517 66.1327 159.16 66.3359 159.828C66.5539 160.355 66.9085 160.815 67.3632 161.16C67.6778 161.412 68.0594 161.567 68.4609 161.605C69.289 161.68 70.0234 161.16 70.582 160.621C71.3279 159.869 72.0197 159.065 72.6523 158.215C73.2098 157.432 73.8752 156.733 74.6288 156.137C74.8981 155.927 75.2255 155.806 75.5663 155.789C76.1471 155.823 76.7093 156.006 77.1991 156.32C78.8476 157.328 80.0546 159.894 82.3281 159.324C83.0053 159.161 83.6236 158.812 84.1132 158.316C84.6076 157.782 85.1576 157.301 85.7538 156.883C86.7148 156.215 87.9062 155.617 89.1054 155.617C89.978 155.575 90.732 156.221 90.8241 157.09C90.8891 157.723 90.8171 158.362 90.6132 158.965C90.5189 159.391 90.3439 159.796 90.0976 160.156C89.8317 160.466 89.536 160.748 89.2148 161C87.9648 161.996 86.3827 162.676 85.4335 164.008C85.3671 164.105 85.7343 164.215 85.7968 164.125C86.7968 162.715 88.4999 162.039 89.7851 160.941C90.0941 160.69 90.364 160.393 90.5859 160.062C90.773 159.691 90.9134 159.297 91.0038 158.891C91.1866 158.309 91.2425 157.695 91.1679 157.09C91.0194 156.224 90.3114 155.564 89.4374 155.476C88.3343 155.372 87.2266 155.624 86.2773 156.195C85.6643 156.522 85.0892 156.915 84.5624 157.367C84.2762 157.612 84.0037 157.873 83.746 158.148C83.455 158.45 83.1106 158.695 82.7304 158.871C82.2401 159.161 81.6611 159.262 81.1015 159.156C80.6308 158.999 80.2048 158.731 79.8593 158.375C79.0351 157.629 78.3398 156.738 77.3671 156.172C76.5859 155.719 75.4765 155.336 74.6093 155.762C73.7421 156.187 73.1718 156.934 72.6093 157.629C71.9179 158.473 71.2734 159.355 70.5195 160.141C69.9882 160.695 69.2265 161.449 68.3906 161.402C67.9907 161.346 67.6268 161.141 67.371 160.828C67.1546 160.607 66.9621 160.363 66.7968 160.101C66.6201 159.744 66.475 159.371 66.3632 158.988C66.0273 158.156 65.5429 157.086 64.6054 156.797C63.8827 156.574 63.2109 156.93 62.6523 157.367C61.1406 158.539 60.0312 160.371 58.1952 161.113C57.7776 161.295 57.3199 161.365 56.8671 161.316C56.3955 161.218 55.9554 161.004 55.5859 160.695C54.7177 159.973 53.9422 159.147 53.2773 158.234C51.9413 156.586 50.3359 154.57 47.9765 154.719C46.5351 154.809 45.0976 155.672 44.0702 156.648C43.4764 157.21 43.0067 157.89 42.6913 158.644C42.5375 159.021 42.4287 159.414 42.3671 159.816C42.353 160.157 42.2251 160.483 42.0038 160.742C41.5781 161.187 40.914 161.211 40.3398 161.16C39.5762 161.067 38.8194 160.925 38.0741 160.734C36.7762 160.396 35.4304 160.28 34.0937 160.391C33.0624 160.512 31.7499 160.812 31.0976 161.687C30.4999 162.469 30.8945 163.34 31.5429 163.937C32.1085 164.428 32.7496 164.823 33.4413 165.109C34.4875 165.556 35.5711 165.909 36.6796 166.164C38.2403 166.527 39.8212 166.797 41.414 166.973C42.4101 167.09 43.414 167.18 44.4179 167.25C44.9374 167.289 45.4843 167.269 45.9804 167.359C46.246 167.402 46.5077 167.469 46.7616 167.519C49.3554 168.047 51.9765 168.445 54.6054 168.746C57.7527 169.112 60.9174 169.309 64.0859 169.336C67.3542 169.378 70.6205 169.151 73.8515 168.656C76.8702 168.22 79.8104 167.351 82.582 166.078C83.8077 165.497 84.969 164.789 86.0468 163.965C86.121 163.91 85.7812 163.777 85.6874 163.851L85.7148 163.84Z" fill="#6D6E70"/>
<path d="M2.34375 141.113C12.6172 148.098 14.5234 142.598 20.9375 138.77C28.5078 135.504 26.0742 130.863 26.2148 125.602C14.8984 134.008 6.25 135.93 2.34375 141.266" fill="#216DB4"/>
<path d="M2.18747 141.165C3.62995 142.182 5.1764 143.042 6.80075 143.732C7.92599 144.209 9.12672 144.484 10.3476 144.544C12.3711 144.599 14.1562 143.763 15.7812 142.626C16.6679 142.005 17.5117 141.326 18.3789 140.673C18.8515 140.318 19.3281 139.966 19.8203 139.634C20.082 139.454 20.3476 139.279 20.6015 139.111C20.9321 138.912 21.2753 138.734 21.6289 138.579C22.9623 138.004 24.16 137.155 25.1445 136.087C25.848 135.264 26.3247 134.272 26.5273 133.208C26.9648 130.994 26.4726 128.704 26.4257 126.478C26.4257 126.181 26.4257 125.888 26.4257 125.591C26.4257 125.474 26.1054 125.552 26.0586 125.591C22.2407 128.367 18.2321 130.871 14.0625 133.083C11.1328 134.673 8.07418 136.158 5.37887 138.142C4.15448 139.014 3.07037 140.068 2.16403 141.267C2.10934 141.341 2.47262 141.372 2.55465 141.267C4.24606 138.954 6.74606 137.384 9.19528 135.986C12.582 134.052 16.0703 132.31 19.414 130.298C21.8151 128.853 24.1458 127.298 26.4062 125.634H26.039C25.9843 127.861 26.4492 130.079 26.2656 132.302C26.1992 133.338 25.8958 134.344 25.3789 135.244C24.6789 136.329 23.7206 137.224 22.5898 137.849C21.9023 138.259 21.1445 138.537 20.4648 138.954C19.9648 139.267 19.4739 139.595 18.9922 139.939C18.1015 140.572 17.2422 141.251 16.3672 141.892C14.8554 143.029 13.2148 144.15 11.289 144.341C8.61325 144.603 5.98434 143.22 3.78903 141.857C3.36715 141.595 2.95309 141.322 2.53903 141.044C2.457 140.986 2.08981 141.068 2.2109 141.15L2.18747 141.165Z" fill="#6D6E70"/>
<path d="M1.56246 116.156C0.941367 121.273 0.476523 126.703 0.632773 131.969C6.5234 127.938 12.5664 124.063 18.1445 119.723C13.2031 117.875 6.84762 116.312 1.56246 116.156Z" fill="white"/>
<path d="M1.38661 116.188C0.859645 120.273 0.542822 124.383 0.437391 128.501C0.41786 129.672 0.437391 130.844 0.437391 132.016C0.437391 132.122 0.73036 132.047 0.773329 132.016C5.37489 128.868 10.0546 125.825 14.5741 122.555C15.8358 121.637 17.0858 120.708 18.3163 119.751C18.3316 119.744 18.3414 119.728 18.3414 119.712C18.3414 119.695 18.3316 119.679 18.3163 119.672C14.1121 118.079 9.73813 116.977 5.28114 116.387C4.07802 116.231 2.87099 116.13 1.66005 116.09C1.59755 116.09 1.43739 116.09 1.40224 116.161C1.36708 116.231 1.40224 116.255 1.48817 116.255C5.90614 116.391 10.3124 117.34 14.5311 118.63C15.7004 118.986 16.8567 119.377 17.9999 119.801V119.723C13.6015 123.122 8.98427 126.212 4.37489 129.313C3.07281 130.186 1.78244 131.059 0.503798 131.934H0.839735C0.75621 127.797 0.938879 123.658 1.38661 119.544C1.5038 118.403 1.63401 117.262 1.77724 116.122C1.77724 116.04 1.38661 116.059 1.38661 116.184V116.188Z" fill="#6D6E70"/>
<path d="M14.4765 133.072C13.164 130.728 11.3828 128.646 9.58199 126.65C7.78121 124.654 5.81637 122.591 4.20308 120.341C3.29205 119.09 2.52668 117.739 1.92183 116.314C1.87887 116.208 1.50387 116.185 1.53121 116.283C2.57808 118.79 4.22652 120.97 5.98433 123.033C7.74215 125.095 9.73433 127.103 11.4804 129.251C12.4582 130.429 13.3301 131.69 14.0859 133.021C14.1445 133.122 14.5117 133.138 14.4765 133.056V133.072Z" fill="#6D6E70"/>
<path d="M25.7149 156.797C25.0781 156.938 24.543 157.488 24.1133 157.969C23.6836 158.449 23.1289 159.121 23.1485 159.785C23.1492 159.896 23.1788 160.005 23.2344 160.102C23.3516 160.293 23.4766 160.473 23.582 160.676C23.832 161.168 24.0586 161.668 24.2852 162.172C24.584 162.991 25.0026 163.761 25.5274 164.457C26.0404 165.028 26.7573 165.375 27.5235 165.422C28.1199 165.504 28.703 165.665 29.2578 165.898C29.8059 166.105 30.3408 166.345 30.8594 166.617C31.8985 167.156 32.8789 167.789 33.8633 168.43C34.3399 168.731 34.8164 169.035 35.3008 169.32C35.8169 169.62 36.3628 169.865 36.9297 170.051C39.7227 170.984 42.7227 170.789 45.5781 171.41C45.7461 171.445 45.9688 171.32 45.6953 171.266C43.2305 170.731 40.6797 170.813 38.2266 170.238C37.5838 170.092 36.9552 169.889 36.3477 169.633C35.8272 169.387 35.3258 169.102 34.8477 168.781C33.9297 168.207 33.0313 167.609 32.1133 167.055C31.1565 166.479 30.1434 166.003 29.0899 165.633C28.586 165.442 28.0616 165.311 27.5274 165.242C27.1202 165.211 26.7277 165.076 26.3867 164.852C25.7861 164.369 25.325 163.736 25.0508 163.016C24.6172 162.094 24.2695 161.121 23.7461 160.246C23.668 160.117 23.5664 160.035 23.5391 159.883C23.5194 159.741 23.5314 159.597 23.5742 159.461C23.6975 159.087 23.8867 158.737 24.1328 158.43C24.3916 158.084 24.6862 157.768 25.0117 157.484C25.2611 157.234 25.5664 157.047 25.9024 156.938C26.1485 156.883 25.836 156.762 25.7149 156.789V156.797Z" fill="#6D6E70"/>
<path d="M75.6874 172.465C78.634 172.859 81.6263 172.747 84.5351 172.133C86.0011 171.811 87.422 171.31 88.7656 170.641C89.0905 170.423 89.4478 170.258 89.8241 170.152C90.2148 170.102 90.5741 170.074 90.9491 170.059C91.7695 170.031 92.5859 170.059 93.4023 170.094C95.0018 170.174 96.6052 170.056 98.1757 169.742C99.4148 169.462 100.595 168.968 101.664 168.281C102.691 167.637 103.617 166.867 104.621 166.164C105.582 165.503 106.583 164.9 107.617 164.359C108.508 163.948 109.314 163.373 109.992 162.664C110.593 161.952 110.78 160.978 110.484 160.094C110.384 159.781 110.253 159.479 110.094 159.192C110.039 159.086 109.68 159.043 109.723 159.117C110.207 160.043 110.473 161.117 109.934 162.078C109.476 162.895 108.629 163.43 107.84 163.883C106.902 164.422 105.937 164.899 105.031 165.496C104.012 166.168 103.059 166.938 102.055 167.641C101.076 168.357 99.9949 168.92 98.8476 169.313C97.3182 169.772 95.725 169.983 94.1288 169.938C92.5898 169.938 91.0312 169.766 89.496 169.988C89.1729 170.077 88.8666 170.218 88.5898 170.406C88.246 170.586 87.8945 170.75 87.539 170.906C86.8602 171.196 86.165 171.445 85.457 171.652C82.5745 172.449 79.5691 172.704 76.5937 172.402C76.2382 172.371 75.8827 172.332 75.5273 172.289C75.457 172.289 75.4062 172.289 75.4296 172.367C75.4531 172.445 75.6171 172.469 75.6757 172.477L75.6874 172.465Z" fill="#6D6E70"/>
<path d="M86.7188 150.742C89.7657 151.078 93.1563 152.258 94.6211 155.18C95.8165 157.551 95.2149 160.324 93.7344 162.422C92.6706 163.875 91.2943 165.071 89.7071 165.922C89.6251 165.965 89.7344 166.019 89.7735 166.031C89.8585 166.066 89.9541 166.066 90.0391 166.031C92.6485 164.586 95.0001 162.207 95.5469 159.176C95.7788 157.94 95.643 156.663 95.1563 155.504C94.5968 154.264 93.6871 153.214 92.5391 152.484C90.8109 151.42 88.855 150.782 86.8321 150.621C86.7774 150.621 86.6172 150.597 86.5899 150.668C86.5626 150.738 86.6758 150.762 86.7227 150.765L86.7188 150.742Z" fill="#6D6E70"/>
</svg>
