<svg width="200" height="215" viewBox="0 0 200 215" fill="none" xmlns="http://www.w3.org/2000/svg">
<path d="M106.803 191.191C-11.7914 192.089 -10.2343 214.071 106.071 214.931C225.637 214.143 224.089 191.946 106.803 191.191Z" fill="#6E989C"/>
<path d="M153.029 199.474C148.623 200.089 149.186 196.66 147.409 191.897C146.129 187.326 144.266 184.823 147.963 183.109C152.391 182.503 151.794 185.917 153.583 190.686C154.857 195.283 156.709 197.774 153.029 199.474Z" fill="#73534B"/>
<path d="M150.466 196.89C151.509 196.568 150.346 194.605 149.706 192.156C148.411 188.542 148.22 186.102 147.346 185.493C145.706 185.325 146.957 187.579 147.631 190.016C149.077 193.768 149.103 197.088 150.466 196.89Z" fill="#FCFAFC"/>
<path d="M43.5057 199.429C39.5057 197.429 41.94 194.926 43.1657 190C44.6971 185.389 44.8314 181.743 49.2171 183.337C52.4628 185.689 49.9742 187.932 48.8742 192.712C47.3771 197.106 47.4885 200.097 43.5057 199.429Z" fill="#73534B"/>
<path d="M42.8571 195.86C43.9143 196.268 44.2171 193.288 45.24 190.468C46.0657 186.951 47.5828 185.183 46.4057 184.468C45.3543 184.043 45.0428 187.04 44.02 189.857C43.1971 193.368 41.6743 195.143 42.8571 195.86V195.86Z" fill="#FCFAFC"/>
<path d="M164.014 201.8C159.671 202.372 160.214 199.163 158.557 194.623C157.297 189.889 155.631 187.92 158.129 185.846C162.831 183.589 162.986 188.169 164.543 192.8C165.84 197.554 167.74 200.097 164.014 201.8Z" fill="#AE7E72"/>
<path d="M161.463 199.206C162.554 198.943 161.177 196.449 160.466 193.623C159.054 190.112 159.523 187.869 157.986 187.789C156.877 188.029 158.303 190.675 159.046 193.586C160.343 196.955 160.091 199.289 161.463 199.206V199.206Z" fill="#FCFAFC"/>
<path d="M56.52 207.959C52.2343 206.691 54.2115 203.754 54.5686 198.728C55.3172 194.016 54.6657 190.994 58.7343 190.971C63.02 192.248 61.04 195.171 60.6857 200.199C59.9343 204.922 60.5857 207.939 56.52 207.959Z" fill="#AE7E72"/>
<path d="M55.2658 204.546C56.38 204.766 56.1686 201.792 56.6943 198.832C56.9029 195.223 58.0943 193.223 56.8115 192.714C55.7029 192.477 55.9086 195.474 55.3829 198.429C55.1743 202.032 53.9829 204.054 55.2658 204.546Z" fill="#FCFAFC"/>
<path d="M54.8257 106.178C54.8257 106.178 98.2857 134.572 125.829 139.946C153.371 145.321 189.557 135.963 198.4 108.255C207.243 80.5462 176.231 76.2177 155.277 82.9691C134.323 89.7205 115.277 93.0148 97.7829 88.8577C80.2886 84.7005 58.9886 72.9262 45.6543 72.4062C32.32 71.8862 3.39144 81.7577 1.83144 102.195C0.620009 112.583 18.6314 109.295 25.5457 106.178C32.46 103.061 43.2172 99.0177 54.8257 106.178V106.178Z" fill="#E8E0CC"/>
<path d="M187.403 97.7149C187.131 105.715 182.86 113.732 177.274 119.535C161.054 136.678 132.537 132.869 111.577 124.609C91.1429 117.192 77.84 104.001 55.4715 94.8178C43.5743 90.0006 30.5715 87.0292 17.9201 89.4692C11.4629 90.5063 22.1858 85.4692 23.8572 84.8035C64.2372 66.7035 72.5143 98.4635 108.8 97.1092C123.943 97.6806 145.294 95.7435 156.943 91.2863C166.963 88.2863 188.543 84.0721 187.403 97.7149V97.7149Z" fill="#C4B0AF"/>
<path d="M59.4571 101.26C57.7571 101.572 55.58 100.366 53.5085 99.969C32.7457 94.429 19.3485 100.403 11.3485 100.506C10.1885 100.109 17.0828 96.8947 19.5314 96.3204C31.0571 92.3919 51.7457 92.7319 59.4571 101.26V101.26Z" fill="#FCFAFC"/>
<path d="M63.0401 103.117C62.3144 104.26 59.8544 102.749 60.9315 101.549C61.7372 100.792 63.6715 101.82 63.0401 103.117Z" fill="#FCFAFC"/>
<path d="M64.9086 104.57C64.5343 105.102 63.4429 104.696 63.8657 103.856C64.2229 103.302 65.3514 103.733 64.9086 104.57Z" fill="#FCFAFC"/>
<path d="M191.117 88.5117C194.317 90.0231 194.94 96.0946 195.28 99.466C196.263 112.395 187.6 122.932 177.389 129.295C153.674 143.923 119.257 133.917 121.531 132.915C132.591 133.555 145.169 134.84 156.134 132.7C179.429 129.055 198.886 111.177 191.117 88.5117V88.5117Z" fill="#FCFAFC"/>
<path d="M139.943 89.1262C133.634 92.5376 117.223 94.0433 108.306 93.6348C100.691 93.4576 85.4229 89.2291 81.7715 85.6348C108.823 94.6405 121.429 90.9005 139.943 89.1262Z" fill="#FCFAFC"/>
<path d="M192.423 139.688C191.183 150.062 188.174 161.865 181.651 170.831C170.946 185.537 123.463 214.931 61.58 194.151C41.8428 187.525 29.6914 175.614 22.3028 162.465C11.4285 143.12 10.8257 121.082 11.5114 109.248C16.5343 109.157 22.2828 107.648 25.5571 106.177C32.4857 103.06 43.2171 99.0167 54.8257 106.177C54.8257 106.177 98.2914 134.577 125.829 139.945C149.323 144.517 179.12 138.391 192.843 119.282C193.257 123.485 193.449 131.1 192.423 139.688V139.688Z" fill="#CDB8B7"/>
<path d="M192.423 139.689C190.571 146.998 187.649 154.286 183.143 160.323C171.823 175.466 121.626 205.712 56.2058 184.323C41.0629 179.372 30.1429 171.555 22.3058 162.463C13.1629 146.206 11.2801 128.049 11.3194 115.643C11.3194 113.283 11.4086 111.135 11.5144 109.246C16.5372 109.155 22.2858 107.646 25.5601 106.175C32.4886 103.058 43.2201 99.0148 54.8286 106.175C54.8286 106.175 98.2944 134.575 125.831 139.943C149.326 144.515 179.123 138.389 192.846 119.28C193.311 124.678 193.397 131.12 192.423 139.689Z" fill="#F7F1D9"/>
<path d="M192.951 120.605C184.094 133.16 168.983 140.305 153.809 143.088C142.157 145.128 131.446 145.088 119.866 142.451C89.7771 135.117 54.1514 112.122 49.3657 109.911C33.7143 103.208 25.52 114.9 11.3171 115.645C11.3171 113.285 11.4057 111.137 11.5114 109.248C16.5343 109.157 22.2829 107.648 25.5571 106.177C32.4857 103.06 43.2171 99.0167 54.8257 106.177C54.8257 106.177 98.2914 134.577 125.829 139.945C149.323 144.517 179.12 138.391 192.843 119.282C192.883 119.691 192.923 120.134 192.951 120.605Z" fill="#CDB8B7"/>
<path d="M35.5086 168.383C21.9286 162.514 13.5086 125.014 17.6428 115.525C18.1171 115.651 18.5886 117.614 19.2514 120.874C24.2857 147.903 27.6714 153.163 35.5086 168.383Z" fill="#FCFAFC"/>
<path d="M39.0943 171.268C38.2372 172.354 36.0029 170.843 36.6772 169.514C37.4086 168.034 40.1001 169.874 39.0943 171.268Z" fill="#FCFAFC"/>
<path d="M41.1857 172.957C40.78 173.606 39.5057 173.063 40.0057 172.126C40.2437 171.825 40.6753 171.763 40.989 171.984C41.3026 172.205 41.3889 172.632 41.1857 172.957V172.957Z" fill="#FCFAFC"/>
<path d="M185.063 107.8C169.509 142.355 126.031 132.943 99.18 119.06C79.6914 108.989 53.18 86.9574 24.3828 88.6717C27.7975 86.6664 31.8077 85.9232 35.7142 86.5717C35.4085 76.9431 43.4142 72.6917 51.48 74.1488C56.9485 66.4745 67.7485 66.2231 73.7657 72.2802C78.8657 62.6602 91.6257 61.3774 98.6714 68.6374C99.4 69.8431 102.554 67.0574 103.846 67.2088C109.966 65.6231 116.963 68.4117 120.357 73.7802C128.24 66.8431 140.146 70.0831 143.883 79.2717C151.389 76.2688 159.429 81.4431 160.154 89.186C169.406 86.9602 178.031 94.7202 176.829 104.146C179.939 104.269 182.885 105.576 185.063 107.8V107.8Z" fill="#6E989C"/>
<path d="M174.8 68.9807C172.837 75.9064 169.591 75.2492 169.823 77.1721C165.409 90.7435 153.666 101.361 138.554 105.289C121.5 109.118 97.4457 107.826 78.7571 106.309C77.18 106.384 76.1857 105.295 74.7571 104.544C40.3028 84.3835 32.52 92.3521 31.2971 86.4121C29.74 83.7149 26.8571 74.0721 26.9228 73.4292C27.2085 73.2892 25.9143 73.2864 24.0657 71.6692C22.3228 69.9864 22.1228 69.1949 21.64 67.0092C21.0943 62.1921 24.3228 56.1521 26.5657 53.9149C30.2028 52.2178 36.4143 51.0578 37.3971 57.3664C37.9685 59.7149 36.5685 62.3749 38.6143 64.4292C43.2914 70.9549 49.9828 81.7435 54.2228 80.9035C62.6114 80.7692 69.1828 79.0207 76.5743 78.4807C85.7171 77.9492 107.829 79.1607 121.503 79.9549C150.857 81.3492 148.286 79.3378 154.594 70.2864C155.469 69.4549 154.12 67.0778 154.577 63.4492C156.72 47.1064 175.983 62.9064 174.8 68.9807V68.9807Z" fill="#F5B198"/>
<path d="M35.7343 84.4904C31.8372 77.8133 32.2457 75.7476 33.2486 69.1133C33.2486 69.1133 32.6286 70.6876 30.4543 72.0018C28.4371 73.2876 26.5543 73.0904 26.9714 73.6504C32.2886 93.3961 32.4 87.7847 40.6314 90.1218C38.7268 88.5 37.076 86.6018 35.7343 84.4904V84.4904Z" fill="#DA868A"/>
<path d="M174.811 67.6661C172.074 58.1376 154.606 50.7404 157.363 61.649C158.163 70.749 168.451 72.609 171.231 72.7461C171.231 72.7461 166.611 75.6547 161.326 73.7376C165.254 77.4918 166.443 75.6461 165.723 77.629C158.386 99.1747 134.994 99.2747 116.823 99.1918C97.68 99.3604 79.7857 99.7061 61.8372 97.6204C67.76 100.078 72.8486 104.063 78.3372 106.269C93.7943 107.595 108.623 108.366 125.62 107.192C147.334 106.549 165.803 93.349 169.98 76.049C171.449 75.7575 175.266 70.7747 174.811 67.6661V67.6661Z" fill="#DA868A"/>
<path d="M156.703 70.4996C154.52 70.8796 155.609 71.0138 153.877 73.2053C148.694 80.8453 149.389 80.0853 143.943 80.6338C135.98 81.0453 124.049 81.491 119.589 79.8396C128.857 80.7338 143.589 80.6738 147.909 78.6167C149.451 78.1596 153.311 72.4738 154.514 70.4167C155.549 69.2996 154.303 69.0053 154.543 63.8281C154.814 66.2624 155.403 69.311 156.703 70.4996V70.4996Z" fill="#DA868A"/>
<path d="M38.2057 63.8115C38.2057 63.8115 37.0628 66.1715 34.3457 66.5343C35.8947 65.6831 36.9915 64.1945 37.3457 62.4629C37.6171 62.8972 37.9028 63.3486 38.2057 63.8115Z" fill="#DA868A"/>
<path d="M57.0058 49.6622C56.6086 56.3622 47.4515 55.8108 47.2915 49.6622C47.6944 42.9622 56.8572 43.5137 57.0058 49.6622Z" fill="#F5B198"/>
<path d="M50.5429 49.3005C50.6303 49.2107 50.726 49.1294 50.8286 49.0576C50.1695 48.4887 49.4544 47.9881 48.6943 47.5633C51.0658 47.3776 53.5315 49.6633 53.0458 52.349C52.6001 51.4919 52.3229 50.6862 51.4515 49.6805C50.9836 50.1147 50.5588 50.5931 50.1829 51.109C49.8956 50.4922 50.0413 49.7603 50.5429 49.3005V49.3005Z" fill="#8D4041"/>
<path d="M148.057 49.6622C147.66 56.3622 138.503 55.8108 138.343 49.6622C138.749 42.9622 147.906 43.5137 148.057 49.6622Z" fill="#F5B198"/>
<path d="M143.849 49.3005C143.761 49.2107 143.665 49.1294 143.563 49.0576C144.222 48.4887 144.937 47.9881 145.697 47.5633C143.326 47.3776 140.863 49.6633 141.346 52.349C141.794 51.4919 142.071 50.6862 142.94 49.6805C143.409 50.114 143.833 50.5925 144.209 51.109C144.496 50.4922 144.35 49.7603 143.849 49.3005V49.3005Z" fill="#8D4041"/>
<path d="M140.786 48.1948C140.786 69.1462 121.549 86.2205 97.7401 86.3776C74.2858 86.5719 53.7429 70.0005 53.9829 47.5633C54.3801 26.9176 73.0744 10.5862 96.3058 10.0205C120.111 9.48332 140.651 26.109 140.786 48.1948V48.1948Z" fill="#FFD6C7"/>
<path d="M140.786 48.1942C140.5 68.5427 124.014 83.357 103.314 86.0227C79.7144 88.6913 55.9829 74.7742 56.4001 51.7999C56.4001 32.3256 73.0258 16.1885 94.4915 13.897C118.02 11.5599 141.197 25.5056 140.786 48.1942V48.1942Z" fill="#DA868A"/>
<path d="M140.786 48.194C140.689 53.8597 139.446 60.194 136.369 64.4597C127.9 75.0854 112.654 81.9054 95.3286 81.6025C81.6144 81.334 69.8144 76.6911 61.4029 69.4111C59.5772 66.8911 58.3629 63.4311 57.4886 60.3311C51.9058 38.4368 68.3086 18.4454 91.0544 14.3911C115.569 10.1254 141.272 24.4511 140.786 48.194V48.194Z" fill="#F5B198"/>
<path d="M109.309 5.79403C109.446 -4.9774 86.7543 2.79403 100.471 6.10546C104.68 6.0426 96.3372 6.34546 96.6715 3.15975C97.3943 0.351175 105.074 0.739746 106.857 2.35403C111.531 6.37403 103.369 14.5712 99.0058 14.8083C101.829 14.9397 104.771 13.6655 106.797 11.3455C105.109 14.7597 101.194 16.2769 97.3686 16.4197C104.391 18.1512 109.837 12.2855 109.309 5.79403V5.79403Z" fill="#8D4041"/>
<path d="M92.6571 49.4969C95.0914 46.0683 98.5257 45.9654 101.206 49.4969C98.3771 48.134 95.5285 47.9997 92.6571 49.4969Z" fill="#DA868A"/>
<path d="M92.3715 49.757C94.9229 48.2113 98.72 48.1284 101.514 49.757C98.521 48.9433 95.3648 48.9433 92.3715 49.757Z" fill="#FFD6C7"/>
<path d="M92.6571 49.4965C94.8971 47.5136 98.7314 47.3907 101.206 49.4965C98.5428 48.5393 95.5485 48.3507 92.6571 49.4965Z" fill="#8D4041"/>
<path d="M85.3057 32.7031C83.9857 32.7031 80.3286 35.5602 82.0629 36.6802C83.1429 36.7002 88.8743 32.3231 85.3057 32.7031Z" fill="#8D4041"/>
<path d="M113.429 34.0624C113.2 32.3252 108.149 29.8709 108.829 32.1338C109.649 33.2624 114.203 37.1424 113.429 34.0624Z" fill="#8D4041"/>
<path d="M91.2514 40.9617C87.6285 35.0474 79.48 40.6417 82.14 45.7617C82.5057 42.0303 85.9142 37.6188 89.92 41.0417C91.4542 42.8903 92.7685 45.0903 91.2514 40.9617Z" fill="#8D4041"/>
<path d="M113.966 43.353C112.823 35.8188 102.766 38.1502 104.026 43.3102C105.834 39.6673 110.08 38.1216 112.543 42.5588C113.157 43.6502 113.909 48.733 113.966 43.353V43.353Z" fill="#8D4041"/>
<path d="M117.143 59.9452C117.143 66.6909 108.874 75.9452 98.26 76.1195C78.9972 76.2024 71.8229 55.7024 85.2343 56.1452C109.234 57.8138 99.9686 56.2109 111.146 54.3652C114.749 54.4452 117.094 56.5538 117.143 59.9452V59.9452Z" fill="#8D4041"/>
<path d="M102.909 65.2502C102.731 69.3817 94.5514 70.4074 91.3772 67.3245C89.1829 65.7645 90.4972 61.4617 93.84 62.0417C96.4114 62.4131 93.62 66.116 97.1657 65.6017C97.8457 65.4588 97.9486 65.1217 98.0029 64.6417C97.5257 60.3131 103.123 62.1874 102.909 65.2502V65.2502Z" fill="#6B2A2B"/>
<path d="M97.0485 57.7875C96.9371 62.7133 90.0028 62.1504 90.5143 57.3047C92.44 57.459 94.8171 57.6733 97.0485 57.7875Z" fill="#FCFEFE"/>
<path d="M97.0486 57.7875C97.62 59.5761 89.3343 59.2733 90.5143 57.3047C92.44 57.459 94.8171 57.6733 97.0486 57.7875Z" fill="#CACACA"/>
<path d="M105.614 57.2567C105.989 64.9282 96.9601 60.7682 99.5115 57.8282C101.577 57.8055 103.627 57.4554 105.583 56.791C105.605 56.9452 105.616 57.1009 105.614 57.2567V57.2567Z" fill="#FCFEFE"/>
<path d="M105.614 57.2578C106.137 59.6321 103.614 59.1635 101.614 59.3264C100.634 59.0978 98.92 59.5892 99.0828 58.3264C99.2 57.9206 98.7657 57.7921 99.5114 57.8321C101.577 57.8094 103.627 57.4593 105.583 56.7949C105.605 56.9482 105.615 57.1029 105.614 57.2578V57.2578Z" fill="#CACACA"/>
<path d="M109.811 70.9164C104.954 74.8735 98.6343 76.1049 92.5001 74.5421C88.3801 73.3135 87.2829 73.4821 90.1601 70.1992C94.7429 65.3421 105.446 65.4049 109.811 70.9164Z" fill="#CB497E"/>
<path d="M106.08 68.0371C103.997 71.9 94.1228 72.18 90.4171 69.9485C93.7314 66.5257 101.497 65.64 106.08 68.0371Z" fill="#F85C8D"/>
<path d="M170.466 70.7626C161.551 68.8597 151.609 61.2426 154.014 53.334C153.351 60.6083 162.514 67.3083 170.794 69.0768C179.969 71.034 187.271 64.1826 188.889 59.294C188.697 64.0683 180.757 72.9597 170.466 70.7626V70.7626Z" fill="#E89425"/>
<path d="M188.889 59.3023C188.954 56.1594 182.637 62.4194 177.351 55.7709C185.68 52.0937 185.806 41.748 179.114 36.4794C171.203 30.2223 159.903 34.7223 159.591 44.0251C160.109 47.0851 158.989 46.6909 157.263 48.3966C151.394 53.5566 154.28 59.2851 159.68 63.8023C171.929 73.4051 184.526 69.6309 188.889 59.3023V59.3023Z" fill="#FBAF3F"/>
<path d="M158.709 48.116C153.337 51.6731 154.831 58.0703 155.803 56.1331C155.497 52.6731 163.617 45.1074 158.709 48.116Z" fill="#FCCF95"/>
<path d="M176.171 35.4836C170.906 30.7321 157.674 39.275 170.294 35.8807C171.611 35.2921 177.829 36.9293 176.171 35.4836Z" fill="#FCCF95"/>
<path d="M169.751 54.8574C162.077 65.4289 182.34 68.5946 180.84 61.6488C184.431 64.8603 177.254 69.2631 171.574 67.0774C164.931 64.8003 163.714 56.8974 169.751 54.8574Z" fill="#E89425"/>
<path d="M180 62.1531C179.406 63.5446 172.986 60.7874 170.68 58.1817C166.354 52.4217 181.351 58.7788 180 62.1531Z" fill="#FCCF95"/>
<path d="M162.351 45.1578C159.28 48.1349 156.48 44.1578 154.814 40.7578C154.709 39.1206 159.617 41.7235 161.194 38.7949C162.997 39.3921 164.554 43.4721 162.351 45.1578V45.1578Z" fill="#FF6F4C"/>
<path d="M162.351 45.1578C159.277 48.135 156.48 44.1578 154.814 40.7578C156.397 42.5321 159.446 45.3064 162.351 45.1578Z" fill="#E64E29"/>
<path d="M156.829 40.8191C156.829 40.7219 160.154 40.3134 160.966 39.8477C162.071 40.1277 157.743 42.1219 156.829 40.8191Z" fill="#FFA58F"/>
<path d="M174.857 45.1177C172.354 49.3434 166.537 45.8749 168.526 41.8206C171.026 37.5949 176.857 41.0634 174.857 45.1177Z" fill="#E89425"/>
<path d="M175.349 44.1685C172.846 48.3942 167.026 44.9257 169.014 40.8714C171.517 36.6457 177.337 40.1142 175.349 44.1685Z" fill="#FCCF95"/>
<path d="M175.126 44.5945C172.729 48.683 167.083 45.5745 168.663 41.5773C170.772 37.0088 177.232 40.3059 175.126 44.5945V44.5945Z" fill="#4D4139"/>
<path d="M175.52 42.6623C174.692 43.9929 173.051 44.5697 171.573 44.0497C170.094 43.5297 169.176 42.0525 169.363 40.4965C171.463 38.2194 175.314 39.7137 175.52 42.6623Z" fill="#69584D"/>
<path d="M173.111 42.0001C172.343 43.3887 170.206 42.3544 170.883 40.8401C171.649 39.4287 173.789 40.4715 173.111 42.0001Z" fill="white"/>
<path d="M10.5972 69.163C10.6258 72.9944 8.5972 75.2516 6.64291 71.9687C5.46006 69.7373 5.34006 67.0858 5.27148 64.8516C6.78871 66.581 8.58976 68.0391 10.5972 69.163V69.163Z" fill="#388294"/>
<path d="M46.4457 33.3999C47.6686 37.1142 45.1972 40.4113 41.7772 41.7742C40.6972 42.0313 40.8857 42.2399 40.9972 43.397C41.6229 53.397 37.4372 63.1913 28.7857 68.8656C19.0314 75.0913 6.1743 69.977 1.64287 59.0085C-3.42856 47.1256 3.81716 33.7913 16.2772 33.0456C30.7943 32.897 32.5286 44.0656 34.9943 42.4228C38.6057 39.9285 33.6714 37.3656 34.6172 34.7342C36.0086 27.877 40.74 32.697 39.24 36.3828C40.1886 34.2856 44.2857 31.0685 46.4457 33.3999V33.3999Z" fill="#4CAFC7"/>
<path d="M40.8228 49.1055C39.8514 56.8198 35.7571 64.4083 28.7857 68.8655C25.5335 70.9364 21.6792 71.8532 17.8428 71.4683C13.7486 71.814 17.6114 66.8055 18.7 65.7883C20.7457 63.914 23.6543 62.7112 26.6771 61.3855C27.3375 61.8298 28.093 62.1126 28.8828 62.2112C33.74 62.9169 36.6571 58.8512 37.3114 54.7826C38.8421 53.1382 40.0351 51.2094 40.8228 49.1055Z" fill="#D4FEFF"/>
<path d="M39.2314 36.3835L39.3143 36.2464C38.9035 37.0374 38.7308 37.9306 38.8171 38.8178C38.3686 36.6206 39.4514 35.4921 39.4943 35.4492C39.4345 35.7678 39.3466 36.0805 39.2314 36.3835V36.3835Z" fill="#388294"/>
<path d="M37.7829 54.2656C38.3286 60.0971 31.64 65.1856 26.3943 61.5171C30.2514 63.1171 34.9657 62.0313 36.68 57.2313C37.2257 56.0256 36.66 55.2085 37.7829 54.2656V54.2656Z" fill="#9EDCDE"/>
<path d="M31.4544 51.2051C32.7201 52.3479 34.5972 51.9108 36.3744 52.4422C40.0515 58.2851 29.7144 66.4565 25.7144 60.0479C29.7601 64.8051 39.0515 58.1251 35.6972 52.8194C34.4258 52.6851 32.2486 52.7136 31.4544 51.2051V51.2051Z" fill="#388294"/>
<path d="M12.3143 35.5835C12.4715 36.4978 9.93432 38.0235 9.03432 37.2549C8.59432 36.4807 11.8057 34.7749 12.3143 35.5835Z" fill="#55C3DE"/>
<path d="M12.2857 35.9715C12.0171 36.5972 10.3886 37.5543 9.47998 37.4715C9.74569 36.8572 11.3743 35.8915 12.2857 35.9715Z" fill="#285C69"/>
<path d="M18.8 53.6709C19.8515 55.9138 17.6115 57.2509 16.2429 55.3395C14.6543 52.8881 17.5057 51.2481 18.8 53.6709Z" fill="#285C69"/>
<path d="M18.2315 53.2655C18.7229 54.6941 16.7029 53.9541 17.5115 52.8827C17.6686 52.8113 17.9829 52.877 18.2315 53.2655Z" fill="#D4FEFF"/>
<path d="M8.48286 58.9835C9.53143 61.2292 7.29429 62.5664 5.91143 60.6521C4.33429 58.2035 7.18572 56.5721 8.48286 58.9835Z" fill="#285C69"/>
<path d="M7.91431 58.572C8.40288 60.0006 6.38574 59.2577 7.19431 58.1891C7.34859 58.1263 7.66288 58.1891 7.91431 58.572Z" fill="#D4FEFF"/>
<path d="M16.3486 62.334C16.3829 62.8283 15.4543 63.534 14.76 63.0626C14.7743 63.034 14.7943 63.0111 15.0257 62.9511C15.3314 62.9368 15.8657 62.6026 16.3486 62.334Z" fill="#388294"/>
<path d="M17.4572 58.3317C18.4944 60.9889 14.6658 63.6974 11.8744 62.8403C9.36293 61.7374 10.0486 58.7917 13.0458 59.4574C14.1886 59.2517 14.2601 57.7717 15.2629 57.1717C16.1528 57.1221 16.9971 57.5685 17.4572 58.3317V58.3317Z" fill="#73D7F0"/>
<path d="M17.3058 58.0657C18.3458 60.7229 14.5172 63.4286 11.7143 62.5714C9.20291 61.4686 9.88577 58.5229 12.8858 59.1886C14.0115 58.9829 14.0972 57.5029 15.1029 56.9029C15.9968 56.8486 16.8463 57.2971 17.3058 58.0657V58.0657Z" fill="#388294"/>
<path d="M16.5914 60.1818C17.0343 60.7361 16.4486 61.2932 15.7571 61.7732C9.57429 65.7447 13.0857 55.4075 16.5914 60.1818Z" fill="#285C69"/>
<path d="M16.7486 60.8565C16.0143 61.7993 14.3886 62.7222 12.9714 62.7393C13.0857 61.2822 15.2 59.8879 16.7486 60.8565Z" fill="#E8A8B9"/>
<path d="M14.46 57.5488C15.4115 59.6803 12.8715 61.0374 11.6029 59.1803C12.7915 59.526 13.8572 58.8231 14.46 57.5488Z" fill="#D4FEFF"/>
<path d="M8.32287 39.3778C8.90858 39.1978 5.71715 48.3035 3.95715 41.7921C5.87715 41.8492 6.1143 35.3407 8.32287 39.3778Z" fill="#FFE397"/>
<path d="M9.64854 40.0623C9.75712 43.2708 6.52855 45.728 6.14855 44.448C6.00855 43.9023 8.28283 41.3451 8.16283 40.6394C8.28569 39.5823 8.50854 38.2851 9.64854 40.0623V40.0623Z" fill="#E8A8B9"/>
<path d="M6.25427 38.4253C4.27427 44.6539 2.25427 40.711 2.73141 37.9367C4.07713 36.9253 6.47427 37.4539 6.25427 38.4253Z" fill="#5BCBCF"/>
<path d="M178.589 118.109C159.951 139.609 124.84 131.506 102.463 120.68C89.0686 114.714 76.9086 104.437 59.9915 96.7772C66.0257 94.5544 73.5115 95.8087 78.4715 99.8287C86.3286 83.7572 107.863 83.1744 116.983 97.4658C117.22 98.0858 117.78 97.323 118.411 97.1372C128.126 92.7544 139.046 98.6458 141.386 108.326C149.579 105.286 158.712 109.244 162.097 117.3C166.837 114.249 174.146 114.572 178.589 118.109V118.109Z" fill="#B4DACF"/>
<path d="M160.74 129.531C133.766 137.143 102.857 121.971 88.1057 112.891C96.8371 102.766 108.723 104.254 117.491 111.054C126.92 103.326 140.511 109.34 141.931 120.786C149.429 119.343 157.203 123.243 160.74 129.531Z" fill="#F7F1D9"/>
</svg>
