<svg width="200" height="252" viewBox="0 0 200 252" fill="none" xmlns="http://www.w3.org/2000/svg">
<path d="M78.3218 58.2121C103.952 61.4621 122.54 95.525 105.307 119.889C109.648 122.824 114.518 125.241 119.442 127.598C107.567 114.17 116.582 82.745 140.644 88.4052C145.744 81.5459 151.162 62.9232 162.49 63.9905C165.998 64.3214 169.054 66.5564 168.915 71.7016C193.413 72.6806 168.882 96.4561 157.349 98.6851C166.436 107.7 161.063 125.386 152.21 130.811C153.621 134.904 152.187 140.938 153.494 146.23C153.882 147.8 155.322 149.085 155.422 150.721C155.6 153.673 153.388 155.33 152.852 159.073C152.485 161.618 153.988 163.92 153.494 165.498C150.371 175.465 140.5 172.257 132.292 171.281C132.699 175.72 134.855 186.955 132.934 193.769C145.581 193.267 150.898 183.29 159.919 178.991C167.314 175.464 184.159 170.943 191.401 176.422C193.719 178.173 199.186 185.949 199.754 189.27C200.729 194.959 198.033 200.157 196.542 207.904C194.82 216.841 194.988 223.26 192.687 227.178C180.063 248.673 129.064 262.248 105.307 241.314C92.3548 238.676 75.756 241.116 63.5404 240.672C60.4671 238.175 60.8668 232.206 60.9701 226.535C58.476 222.818 54.6048 220.479 51.9745 216.898C41.6452 219.61 35.4177 212.983 34.6272 204.049C39.3997 203.681 42.4731 201.613 47.4775 201.479V195.696C45.3563 194.39 40.7231 195.598 39.1242 193.769C34.0344 173.128 40.729 148.502 54.5434 140.441C54.3368 137.447 56.5359 136.866 57.1138 134.658C34.4311 125.841 23.2485 100.299 37.8443 77.486C34.3683 59.6267 9.92814 50.9321 1.86377 37.0085C-1.9012 30.5085 0.760473 18.272 7.6467 16.4486C15.4192 14.3932 24.8039 20.1073 29.491 24.1582C40.6542 33.8064 47.8293 50.0938 53.9057 63.9935C56.2889 63.5938 57.6677 62.1866 59.6871 61.4246C60.1362 40.3019 36.6093 34.8408 39.1272 12.5938C40.4626 0.812377 54.271 -4.34181 64.1871 4.88423C75.4042 15.3199 76.5045 39.0205 78.3218 58.2121V58.2121ZM60.9745 4.88423C56.6332 1.89022 44.3578 -0.0409164 42.3413 8.73902C56.6078 20.0085 70.5479 41.3169 68.0419 63.3513C64.9805 40.4995 57.8024 21.763 41.6946 11.9516C40.0479 34.2121 61.5015 38.7959 61.6123 61.4246C59.3593 63.8827 55.5539 64.7899 52.6183 66.5639C48.0254 55.495 40.3174 36.989 30.1302 27.3723C23.6527 21.248 4.00149 11.4561 2.50748 26.7285C21.3159 38.1178 40.0135 53.0444 44.9102 76.1971C39.4925 62.5534 30.7201 52.266 21.7799 42.1447C15.3263 38.2899 8.94161 31.0354 1.86975 29.9366C5.70658 42.4097 14.8069 46.51 24.3578 55.6372C30.0629 61.0878 39.9042 69.8932 39.7769 77.4815C39.7186 80.9247 35.726 84.4531 34.6362 89.0474C29.2575 111.706 43.2245 127.29 59.6886 133.383C60.4581 136.338 54.729 138.772 57.762 139.808C65.6617 140.158 70.753 137.209 77.6721 138.522C81.232 139.199 83.8263 142.47 87.3084 142.377C97.723 142.104 99.3473 127.926 109.154 124.387C103.003 117.61 100.172 130.043 93.735 128.242C96.4296 125.106 99.7694 124.401 102.087 121.818C121.388 100.306 103.488 61.769 76.3862 60.1417C74.6557 41.1537 73.7665 13.7151 60.9745 4.88423V4.88423ZM143.862 89.6941C150.039 87.269 152.994 81.1956 157.997 77.486C160.976 75.2809 164.401 74.7615 166.993 71.7046C160.636 54.7226 144.132 82.5205 143.862 89.6941V89.6941ZM145.784 91.6163C116.061 79.2944 104.329 125.992 132.292 132.092C129.846 135.001 124.421 134.937 119.442 135.305C118.507 138.227 117.181 140.755 116.229 143.658C120.603 145.163 127.219 144.534 131.006 144.943C130.009 148.443 122.335 145.266 120.726 148.155C125.816 154.742 144.912 153.883 150.924 148.797C150.871 143.282 151.235 137.35 150.281 132.736C148.323 132.485 147.006 134.431 146.427 132.098C157.877 127.696 165.856 108.546 154.78 98.0459C163.749 92.4516 175.313 89.4531 177.909 77.486C165.841 80.6297 158.287 88.275 150.281 95.4756C153.946 86.2705 166.364 80.3049 176.629 75.5654C163.368 70.0788 155.028 85.3378 145.784 91.6163V91.6163ZM84.747 144.949C75.3278 154.167 70.5254 170.687 73.1811 189.923C71.8712 190.113 71.9221 191.663 70.6123 191.851C67.5569 191.479 64.6871 190.923 60.9745 191.209C60.6527 194.684 60.3967 196.682 57.762 197.634C53.8698 199.038 50.4177 194.832 49.4087 196.35C48.5704 205.8 49.4431 210.839 53.9072 216.908C56.3263 220.202 62.5195 222.525 63.5449 226.546C64.4745 230.194 60.8862 234.646 64.1871 238.754C75.3428 238.675 93.1557 237.609 104.021 238.754C97.9581 231.032 91.5404 217.332 96.3114 204.702C94.3787 199.995 89.5464 198.188 86.6736 194.422C92.3952 194.911 94.8054 198.711 96.9536 202.773C103.654 195.766 117.269 195.676 130.364 195.064C132.778 188.685 131.835 177.134 129.722 171.291C126.639 171.161 124.284 170.303 121.37 170.005C117.091 171.999 118.009 176.381 112.374 179.643C106.626 182.971 93.3623 182.479 92.4641 177.717C91.3937 172.085 99.1931 172.502 102.744 170.005C106.924 160.908 111.783 152.491 119.449 146.877C118.455 145.729 115.593 146.45 114.958 144.949C109.431 154.64 99.7096 163.552 86.0314 162.938C102.648 158.997 114.308 150.095 117.513 132.742C115.47 130.887 116.615 136.118 113.659 135.311C113.75 132.404 116.293 131.949 116.229 128.886C113.507 126.853 112.187 134.499 109.804 132.742C109.587 129.098 113.195 129.279 113.659 126.317C99.009 127.514 99.8323 144.187 84.747 144.949V144.949ZM118.799 129.529C118.335 131.492 119.455 131.871 119.442 133.384C122.485 133.643 123.864 132.236 127.151 132.742C125.434 130.269 122.44 128.282 118.799 129.529V129.529ZM55.8383 141.736C43.2979 145.538 34.9102 178.193 41.7036 193.136C44.3383 193.2 46.9701 193.263 48.771 192.494C47.3668 184.932 48.0135 174.293 51.9835 170.005C51.012 177.251 48.3757 187.221 51.3413 194.422C53.223 195.32 55.1826 196.149 58.4087 195.706C58.4716 169.103 65.485 151.889 80.8967 141.736C72.3054 140.525 63.0733 139.543 55.8383 141.736V141.736ZM62.2635 189.281C64.7829 187.004 68.7006 191.526 71.259 189.281C68.9656 170.896 72.9955 153.931 82.8233 145.591C82.7515 144.808 82.6317 144.07 81.5389 144.306C69.2859 153.047 58.9281 167.103 62.259 189.281H62.2635ZM136.793 154.586C134.046 160.833 128.569 164.351 123.301 168.079C126.469 169.194 130.421 169.525 134.867 169.363C135.072 160.002 143.278 154.48 152.214 157.799C152.793 155.381 154.055 153.643 154.141 150.732C149.136 150.314 144.832 155.928 136.789 154.586H136.793ZM142.576 160.369C143.663 161.637 146.284 161.372 145.789 164.224C142.832 164.396 142.915 161.529 140.648 161.011C139.732 161.161 139.566 162.07 138.722 162.296C138.734 165.068 141.922 164.664 141.934 167.437C139.103 167.911 139.301 165.357 137.436 164.866V169.357C148.973 179.456 157.834 152.532 142.572 160.369H142.576ZM103.383 171.934C100.891 173.522 93.6347 173.73 95.0314 177.073C95.7934 176.491 97.8144 173.943 98.8862 175.788C98.8099 177.639 96.1467 176.904 96.3159 179.001C108.352 182.232 114.996 175.732 118.804 168.721C114.636 167.32 112.356 164.031 109.166 161.654C106.713 164.559 105.72 168.92 103.379 171.934H103.383ZM156.711 183.499C150.597 187.11 145.978 192.588 138.722 195.064C128.807 198.446 110.81 196.172 102.741 200.847C93.6093 206.137 95.8548 222.657 104.025 225.904C102.753 205.203 125.205 210.532 142.576 207.914C162.238 204.95 167.531 179.718 186.909 182.856C189.949 183.348 193.855 187.708 194.618 186.068C192.365 168.754 165.487 178.312 156.707 183.499H156.711ZM182.412 184.784C167.165 185.746 163.998 204.994 145.145 209.199C128.828 212.842 102.361 206.055 105.954 227.83C133.798 239.166 176.463 224.238 189.487 205.986C192.457 201.818 193.79 195.865 194.626 190.567C191.883 187.44 189.01 184.366 182.407 184.784H182.412ZM196.546 192.494C191.916 217.962 157.118 234.26 126.513 234.26C120.701 234.26 112.954 233.264 107.882 231.047C104.802 229.7 99.3144 223.967 98.244 224.624C102.076 230.88 104.145 238.411 109.172 242.613C126.738 257.311 163.963 248.089 180.49 236.83C196.84 225.697 193.663 208.375 197.837 191.214C197.687 190.712 197.299 190.465 196.552 190.57L196.546 192.494ZM36.5599 205.344C36.3563 208.76 40.5284 207.799 39.1287 212.411C41.6213 214.33 46.5689 216.791 50.6946 214.982C50.8443 213.766 49.9701 213.564 50.0524 212.411C47.2081 212.465 44.3638 212.535 44.2695 209.841C45.4162 209.841 48.012 211.571 48.7605 209.841C47.3713 208.875 44.765 209.125 44.2695 207.272H47.482V203.416C42.8428 203.059 41.8742 206.375 36.5599 205.344Z" fill="black"/>
<path fill-rule="evenodd" clip-rule="evenodd" d="M76.3937 60.1391C103.49 61.7708 121.395 100.308 102.094 121.816C99.7769 124.398 96.4401 125.109 93.7425 128.239C100.18 130.036 103.01 117.611 109.162 124.385C99.3548 127.923 97.7305 142.102 87.3159 142.374C83.8338 142.467 79.7665 140.44 76.2051 139.763C69.2799 138.45 65.6617 140.156 57.762 139.805C54.729 138.769 60.4566 136.335 59.6886 133.38C43.2216 127.286 29.2575 111.702 34.6317 89.0478C35.7216 84.4534 39.7216 80.9325 39.7724 77.4819C39.8982 69.8936 30.0569 61.0882 24.3533 55.6376C14.8009 46.5148 5.7006 42.4145 1.86377 29.94C8.94311 31.0388 15.3278 38.2933 21.7814 42.1481C30.7216 52.2708 39.494 62.5582 44.9102 76.1974C40.0135 53.0448 21.3159 38.1181 2.50748 26.7289C4.00449 11.4594 23.6482 21.2484 30.1347 27.3726C40.3219 36.9894 48.0299 55.4954 52.6227 66.5642C55.5584 64.7903 59.3593 63.8831 61.6168 61.425C61.506 38.7963 40.0479 34.2124 41.7066 11.9519C57.8099 21.7633 64.988 40.4998 68.0539 63.3516C70.5479 41.3172 56.6078 20.0088 42.3413 8.73937C44.3533 -0.0405717 56.6392 1.89206 60.9745 4.88458C73.7665 13.7154 74.6557 41.154 76.3937 60.1391V60.1391Z" fill="white"/>
<path fill-rule="evenodd" clip-rule="evenodd" d="M166.987 71.707C164.395 74.7639 160.97 75.2834 157.991 77.4885C152.984 81.1981 150.033 87.2714 143.856 89.6966C144.132 82.5214 160.636 54.7235 166.987 71.707V71.707Z" fill="white"/>
<path fill-rule="evenodd" clip-rule="evenodd" d="M176.624 75.5595C166.364 80.305 153.946 86.2705 150.277 95.4696C158.283 88.269 165.837 80.6193 177.904 77.4801C175.308 89.4472 163.744 92.4502 154.775 98.04C165.853 108.54 157.873 127.69 146.422 132.092C147.006 134.425 148.319 132.485 150.277 132.736C151.23 137.35 150.867 143.282 150.919 148.797C144.907 153.887 125.814 154.736 120.721 148.155C122.331 145.266 130.003 148.443 131.001 144.943C127.214 144.534 120.599 145.163 116.224 143.658C117.177 140.756 118.503 138.227 119.437 135.305C124.416 134.931 129.841 135.006 132.287 132.092C104.329 125.998 116.061 79.3005 145.784 91.6163C155.028 85.3379 163.368 70.0789 176.624 75.5595V75.5595ZM123.939 110.889C125.585 110.224 126.504 106.708 125.224 105.106C121.638 103.826 120.485 111.003 123.939 110.896V110.889ZM135.504 116.03C138.061 117.79 141.751 116.118 140.644 112.173C138.051 109.66 135.094 112.021 135.504 116.037V116.03Z" fill="white"/>
<path d="M125.224 105.114C126.504 106.715 125.584 110.232 123.939 110.897C120.485 111.003 121.638 103.826 125.224 105.114Z" fill="black"/>
<path d="M140.644 112.181C141.751 116.126 138.061 117.798 135.504 116.037C135.094 112.021 138.051 109.66 140.644 112.181Z" fill="black"/>
<path fill-rule="evenodd" clip-rule="evenodd" d="M113.659 126.316C113.195 129.279 109.587 129.098 109.804 132.742C112.19 134.499 113.507 126.852 116.229 128.885C116.293 131.948 113.75 132.403 113.659 135.31C116.618 136.117 115.47 130.887 117.513 132.742C114.308 150.095 102.65 158.996 86.0314 162.938C99.7096 163.551 109.424 154.635 114.945 144.948C115.585 146.445 118.448 145.728 119.436 146.876C111.769 152.487 106.91 160.908 102.731 170.005C99.1796 172.502 91.3802 172.084 92.4506 177.716C93.3488 182.478 106.62 182.971 112.361 179.643C117.995 176.381 117.078 171.999 121.356 170.005C124.271 170.304 126.626 171.161 129.708 171.291C131.822 177.129 132.765 188.685 130.35 195.063C117.256 195.676 103.641 195.766 96.9401 202.773C94.8054 198.71 92.3952 194.909 86.6766 194.421C89.5494 198.188 94.3817 199.995 96.3144 204.701C91.5434 217.331 97.9611 231.032 104.024 238.754C93.1587 237.608 75.3458 238.674 64.1901 238.754C60.8967 234.646 64.4775 230.194 63.5479 226.545C62.5224 222.524 56.3293 220.198 53.9102 216.908C49.4461 210.839 48.5733 205.8 49.4117 196.349C50.4206 194.831 53.8757 199.044 57.765 197.634C60.3997 196.682 60.6557 194.683 60.9775 191.209C64.6901 190.923 67.5644 191.478 70.6153 191.851C71.9251 191.662 71.8742 190.113 73.1841 189.923C70.5284 170.686 75.3308 154.167 84.75 144.948C99.8323 144.186 99.009 127.514 113.659 126.316V126.316Z" fill="white"/>
<path fill-rule="evenodd" clip-rule="evenodd" d="M127.151 132.742C123.858 132.236 122.485 133.641 119.442 133.385C119.455 131.871 118.335 131.492 118.799 129.53C122.44 128.283 125.434 130.269 127.151 132.742V132.742Z" fill="white"/>
<path fill-rule="evenodd" clip-rule="evenodd" d="M80.8922 141.736C65.4805 151.888 58.467 169.102 58.4042 195.706C55.1781 196.155 53.2185 195.323 51.3368 194.421C48.3712 187.218 51.0075 177.251 51.979 170.005C48.009 174.293 47.3623 184.932 48.7665 192.493C46.97 193.263 44.3338 193.2 41.6991 193.135C34.9057 178.192 43.2934 145.531 55.8338 141.736C63.0733 139.543 72.3054 140.525 80.8922 141.736V141.736Z" fill="#DE99BF"/>
<path fill-rule="evenodd" clip-rule="evenodd" d="M81.5345 144.311C82.6273 144.074 82.7471 144.812 82.8189 145.595C72.9911 153.935 68.9611 170.894 71.2545 189.285C68.6977 191.531 64.7785 187.008 62.259 189.285C58.9282 167.102 69.286 153.047 81.5345 144.311V144.311Z" fill="#DB8AB6"/>
<path fill-rule="evenodd" clip-rule="evenodd" d="M154.136 150.731C154.051 153.643 152.789 155.381 152.21 157.799C143.274 154.48 135.067 160.002 134.862 169.363C130.416 169.525 126.464 169.194 123.296 168.079C128.564 164.351 134.042 160.833 136.789 154.586C144.832 155.927 149.136 150.314 154.136 150.731V150.731Z" fill="white"/>
<path fill-rule="evenodd" clip-rule="evenodd" d="M137.425 169.364V164.873C139.29 165.364 139.093 167.918 141.924 167.443C141.912 164.671 138.723 165.075 138.711 162.302C139.555 162.076 139.722 161.172 140.638 161.018C142.904 161.536 142.822 164.403 145.778 164.23C146.274 161.386 143.653 161.644 142.566 160.376C157.834 152.533 148.973 179.456 137.425 169.364V169.364Z" fill="white"/>
<path fill-rule="evenodd" clip-rule="evenodd" d="M109.162 161.654C112.352 164.032 114.632 167.32 118.799 168.722C114.991 175.732 108.347 182.232 96.3114 179.002C96.1423 176.906 98.8054 177.639 98.8818 175.789C97.8099 173.943 95.789 176.491 95.027 177.073C93.6303 173.734 100.886 173.523 103.379 171.934C105.72 168.921 106.713 164.56 109.162 161.654V161.654Z" fill="white"/>
<path fill-rule="evenodd" clip-rule="evenodd" d="M194.611 186.068C193.847 187.714 189.942 183.348 186.901 182.855C167.524 179.711 162.231 204.949 142.569 207.913C125.204 210.532 102.749 205.202 104.018 225.903C95.8429 222.656 93.6018 206.143 102.734 200.846C110.802 196.171 128.799 198.451 138.714 195.063C145.97 192.587 150.59 187.11 156.704 183.499C165.487 178.312 192.365 168.753 194.611 186.068V186.068Z" fill="white"/>
<path fill-rule="evenodd" clip-rule="evenodd" d="M194.611 190.568C193.775 195.867 192.442 201.821 189.472 205.987C176.46 224.25 133.783 239.166 105.946 227.831C102.353 206.048 128.814 212.843 145.138 209.199C164 204.99 167.157 185.747 182.404 184.785C189.011 184.365 191.883 187.439 194.611 190.568V190.568ZM169.554 200.849C173.365 199.115 180.066 194.06 177.906 190.568C176.229 195.096 171.166 196.246 169.557 200.846L169.554 200.849ZM175.335 203.418C178.834 200.855 185.907 195.229 184.331 191.853C182.389 196.337 175.573 199.358 175.338 203.415L175.335 203.418ZM171.481 215.626C178.506 213.011 184.987 206.433 186.9 200.849C182.445 206.451 176.71 210.777 171.484 215.623L171.481 215.626ZM154.777 213.698C158.819 211.954 163.427 210.785 165.057 206.63C161.237 208.587 156.943 210.077 154.78 213.695L154.777 213.698ZM160.558 216.91C164.6 215.602 168.014 213.659 170.196 210.485C166.204 211.843 162.531 213.524 160.561 216.915L160.558 216.91ZM132.289 215.626C134.085 219.434 147.904 216.21 145.138 213.698C141.467 214.94 137.042 215.448 132.292 215.623L132.289 215.626ZM113.656 223.979C117.46 221.356 122.666 220.139 125.864 216.91C120.145 217.612 115.145 219.036 113.659 223.976L113.656 223.979ZM139.356 222.693C143.073 221.699 149.199 223.114 150.921 220.123C146.436 220.344 140.678 219.298 139.359 222.69L139.356 222.693ZM148.353 225.897C152.62 225.238 156.746 224.439 158.632 221.406C154.542 222.24 150.458 223.081 148.353 225.897ZM117.515 229.115C120.406 227.648 122.847 225.429 124.582 222.69C120.72 223.327 118.373 225.476 117.515 229.115ZM128.443 228.473C132.07 226.96 137.493 227.243 140.008 224.618C134.731 224.491 130.567 225.464 128.443 228.473Z" fill="#C8E6FA"/>
<path d="M177.909 190.568C180.069 194.061 173.368 199.116 169.557 200.85C171.166 196.246 176.229 195.097 177.909 190.568Z" fill="black"/>
<path fill-rule="evenodd" clip-rule="evenodd" d="M196.542 190.568C197.29 190.464 197.684 190.717 197.826 191.211C193.654 208.373 196.829 225.695 180.479 236.828C163.946 248.087 126.728 257.309 109.162 242.611C104.141 238.409 102.072 230.878 98.2335 224.622C99.3039 223.964 104.792 229.699 107.871 231.045C112.943 233.262 120.69 234.258 126.503 234.258C157.108 234.258 191.906 217.964 196.536 192.491L196.542 190.568Z" fill="white"/>
<path d="M184.334 191.852C185.91 195.227 178.837 200.853 175.338 203.416C175.573 199.359 182.389 196.338 184.334 191.852Z" fill="black"/>
<path d="M186.904 200.848C184.989 206.431 178.509 213.009 171.485 215.625C176.71 210.779 182.445 206.452 186.904 200.848Z" fill="black"/>
<path fill-rule="evenodd" clip-rule="evenodd" d="M47.482 203.416V207.272H44.2694C44.7709 209.125 47.3772 208.875 48.7604 209.841C48.0015 211.571 45.4101 209.841 44.2694 209.841C44.3593 212.535 47.2125 212.465 50.0524 212.411C49.97 213.564 50.8383 213.758 50.6946 214.981C46.5688 216.791 41.6212 214.33 39.1287 212.411C40.5284 207.799 36.3563 208.76 36.5598 205.344C41.8742 206.375 42.8428 203.059 47.482 203.416Z" fill="white"/>
<path d="M165.06 206.627C163.43 210.781 158.816 211.95 154.78 213.694C156.943 210.076 161.237 208.587 165.06 206.627Z" fill="black"/>
<path d="M170.199 210.479C168.016 213.652 164.606 215.595 160.561 216.904C162.531 213.525 166.204 211.844 170.199 210.479Z" fill="black"/>
<path d="M145.141 213.695C147.907 216.207 134.093 219.432 132.292 215.623C137.042 215.448 141.467 214.941 145.141 213.695Z" fill="black"/>
<path d="M125.867 216.914C122.669 220.143 117.463 221.36 113.659 223.983C115.145 219.035 120.145 217.612 125.867 216.914Z" fill="black"/>
<path d="M150.924 220.119C149.202 223.113 143.076 221.695 139.359 222.689C140.678 219.297 146.436 220.344 150.924 220.119Z" fill="black"/>
<path d="M158.633 221.406C156.747 224.445 152.621 225.245 148.355 225.897C150.458 223.081 154.542 222.24 158.633 221.406Z" fill="black"/>
<path d="M124.581 222.689C122.846 225.428 120.405 227.647 117.515 229.115C118.373 225.475 120.72 223.326 124.581 222.689Z" fill="black"/>
<path d="M140.002 224.618C137.487 227.243 132.067 226.96 128.437 228.473C130.567 225.464 134.731 224.491 140.002 224.618Z" fill="black"/>
<path d="M100.346 94.8857C100.735 96.6312 100.09 98.26 98.9043 98.5234C97.7186 98.7869 96.4432 97.5878 96.0599 95.8438C95.6767 94.0998 96.3159 92.4695 97.5016 92.2046C98.6872 91.9396 99.9566 93.1417 100.346 94.8857V94.8857Z" fill="black"/>
<path d="M99.2066 93.4207C99.765 93.1737 100.046 91.2395 100.633 92.3728C100.835 92.7978 100.855 93.2865 100.688 93.7265C100.522 94.1665 100.184 94.5198 99.7515 94.7051C99.6018 94.2096 99.5299 93.6782 99.1766 93.2904" fill="black"/>
<path d="M81.5405 100.327C81.9297 102.071 81.2845 103.7 80.0988 103.965C78.9132 104.23 77.6378 103.027 77.2545 101.283C76.8713 99.5394 77.5105 97.9091 78.6961 97.6457C79.8818 97.3822 81.1512 98.5813 81.5405 100.327Z" fill="black"/>
<path d="M80.4013 98.8601C80.9597 98.6131 81.2411 96.679 81.8279 97.8122C82.0301 98.2376 82.0503 98.7269 81.884 99.1675C81.7176 99.6081 81.379 99.962 80.9462 100.148C80.7965 99.6521 80.7246 99.1206 80.3713 98.7314" fill="black"/>
<path d="M85.997 109.74C86.042 110.46 86.6572 110.946 87.253 111.25C87.8953 111.583 88.5998 111.779 89.3219 111.825C90.179 111.88 91.0271 111.622 91.7081 111.099C92.4551 110.518 93.1138 109.729 93.4132 108.831C93.7485 107.83 93.6423 106.756 93.4671 105.735H93.1677C93.4612 106.5 93.8245 107.235 94.253 107.933C94.6662 108.568 95.2021 109.168 95.9207 109.452C96.7021 109.762 97.5674 109.648 98.3159 109.334C99.0449 109.035 99.8039 108.657 100.313 108.035C100.85 107.38 101.011 106.524 101.099 105.705C101.099 105.648 100.799 105.632 100.799 105.705C100.725 106.401 100.605 107.127 100.226 107.731C99.8473 108.334 99.265 108.719 98.6467 109.023C97.8982 109.394 97.0614 109.723 96.2291 109.427C95.5449 109.184 95.0315 108.626 94.6258 108.041C94.1579 107.313 93.7676 106.538 93.4611 105.729C93.4357 105.665 93.1527 105.672 93.1617 105.729C93.3114 106.574 93.4072 107.448 93.2455 108.297C93.0764 109.184 92.6048 109.906 91.9896 110.55C91.4027 111.16 90.6887 111.644 89.8249 111.725C89.1108 111.792 88.3623 111.593 87.7126 111.303C87.0629 111.012 86.3414 110.52 86.292 109.74C86.292 109.671 85.9926 109.678 85.9926 109.74H85.997Z" fill="black"/>
<path d="M95.232 101.699C95.232 101.699 91.8698 99.6035 89.1362 103.783C89.1362 103.783 90.5778 105.743 93.7605 106.383C94.8363 105.07 95.3635 103.392 95.232 101.699Z" fill="black"/>
<path d="M130.999 120.657C130.888 121.078 130.484 121.302 130.1 121.418C129.702 121.543 129.28 121.578 128.867 121.518C128.367 121.429 127.918 121.158 127.606 120.757C127.219 120.31 126.964 119.763 126.87 119.178C126.787 118.506 126.985 117.846 127.217 117.223C127.232 117.181 126.957 117.16 126.918 117.213C126.424 117.961 125.798 118.966 124.859 119.198C124.295 119.337 123.771 119.003 123.337 118.678C122.971 118.433 122.677 118.097 122.482 117.702C122.29 117.253 122.302 116.751 122.34 116.277C122.34 116.219 122.04 116.207 122.04 116.277C122.002 116.76 121.993 117.266 122.19 117.719C122.388 118.171 122.765 118.503 123.159 118.783C123.621 119.114 124.118 119.353 124.701 119.319C125.195 119.274 125.659 119.063 126.017 118.72C126.478 118.277 126.878 117.773 127.205 117.223L126.906 117.211C126.671 117.843 126.472 118.513 126.563 119.195C126.671 119.837 126.97 120.432 127.421 120.903C128.123 121.651 129.217 121.744 130.171 121.501C130.636 121.385 131.159 121.145 131.292 120.641C131.304 120.599 131.014 120.563 130.993 120.641L130.999 120.657Z" fill="black"/>
<path d="M126.331 114.412C126.331 114.412 128.726 113.486 129.967 116.487C129.967 116.487 128.807 117.561 126.698 117.582C126.172 116.612 126.04 115.477 126.331 114.412V114.412Z" fill="black"/>
<path fill-rule="evenodd" clip-rule="evenodd" d="M84.1003 108.366C84.1009 109.551 83.3877 110.619 82.2934 111.073C81.1991 111.526 79.9392 111.276 79.1016 110.438C78.264 109.6 78.0136 108.341 78.4672 107.246C78.9208 106.152 79.989 105.439 81.1736 105.439C82.79 105.439 84.1003 106.75 84.1003 108.366Z" fill="#EECAC6"/>
<path fill-rule="evenodd" clip-rule="evenodd" d="M105.478 101.714C105.478 103.331 104.169 104.642 102.552 104.643C100.935 104.645 99.6231 103.336 99.6212 101.719C99.6193 100.102 100.928 98.7896 102.545 98.7871C103.322 98.7855 104.068 99.0932 104.618 99.6422C105.168 100.191 105.478 100.937 105.478 101.714V101.714Z" fill="#EECAC6"/>
<path fill-rule="evenodd" clip-rule="evenodd" d="M123.278 113.305C123.278 114.823 122.047 116.055 120.528 116.055C119.01 116.055 117.778 114.823 117.778 113.305C117.778 111.786 119.01 110.555 120.528 110.555C121.258 110.554 121.958 110.844 122.473 111.36C122.989 111.876 123.279 112.575 123.278 113.305Z" fill="#EECAC6"/>
<path fill-rule="evenodd" clip-rule="evenodd" d="M138.772 120.992C138.772 122.646 137.432 123.986 135.778 123.986C134.125 123.986 132.784 122.646 132.784 120.992C132.784 119.339 134.125 117.998 135.778 117.998C137.432 117.998 138.772 119.339 138.772 120.992Z" fill="#EECAC6"/>
<path fill-rule="evenodd" clip-rule="evenodd" d="M119.346 149.082C119.346 149.082 124.254 154.227 135.364 154.404C135.364 154.404 131.284 162.979 121.349 167.769C121.349 167.769 117.979 167.828 115.199 164.991C115.199 164.991 111.473 161.441 110.109 160.732C110.12 160.732 114.142 152.694 119.346 149.082Z" fill="white"/>
<path d="M136.614 119.987C136.614 119.987 141.404 121.14 145.746 119.189" stroke="black" stroke-width="0.5" stroke-linecap="round"/>
<path d="M136.527 121.406C136.527 121.406 138.832 122.204 144.687 122.471" stroke="black" stroke-width="0.5" stroke-linecap="round"/>
<path d="M136.259 122.737C136.259 122.737 137.943 122.648 141.138 125.488" stroke="black" stroke-width="0.5" stroke-linecap="round"/>
<path d="M100.509 100.458C100.509 100.458 110.268 96.566 115.431 87.8145" stroke="black" stroke-width="0.5" stroke-linecap="round"/>
<path d="M101.627 101.932C101.627 101.932 106.626 100.479 117.145 93.7324" stroke="black" stroke-width="0.5" stroke-linecap="round"/>
<path d="M102.326 103.465C102.326 103.465 105.151 101.234 114.208 102.242" stroke="black" stroke-width="0.5" stroke-linecap="round"/>
<path d="M80.8098 106.814C80.8098 106.814 71.1616 110.975 61.3203 108.449" stroke="black" stroke-width="0.5" stroke-linecap="round"/>
<path d="M81.0614 108.646C81.0614 108.646 76.5045 111.158 64.2949 113.84" stroke="black" stroke-width="0.5" stroke-linecap="round"/>
<path d="M81.6542 110.225C81.6542 110.225 78.0808 110.65 72.3982 117.773" stroke="black" stroke-width="0.5" stroke-linecap="round"/>
<path d="M121.38 112.005C121.38 112.005 116.79 110.209 114.337 106.131" stroke="black" stroke-width="0.5" stroke-linecap="round"/>
<path d="M120.642 113.221C120.642 113.221 118.293 112.559 113.337 109.434" stroke="black" stroke-width="0.5" stroke-linecap="round"/>
<path d="M120.102 114.465C120.102 114.465 118.769 113.431 114.525 113.936" stroke="black" stroke-width="0.5" stroke-linecap="round"/>
</svg>
