<svg width="200" height="202" viewBox="0 0 200 202" fill="none" xmlns="http://www.w3.org/2000/svg">
<path d="M184.502 87.7742C182.626 82.4289 177.688 78.762 172.028 78.5123C170.93 74.5374 167.315 71.7841 163.191 71.7832C162.64 71.7846 162.09 71.8351 161.548 71.9342C159.116 67.4067 154.379 64.596 149.24 64.6312C144.1 64.6663 139.402 67.5416 137.032 72.1019C132.565 71.1285 127.905 72.4187 124.574 75.5511C121.244 78.6835 119.671 83.2557 120.369 87.7742H184.502Z" fill="white"/>
<path d="M120.435 83.1289C120.154 84.6628 120.132 86.2328 120.369 87.7741H184.498C183.895 86.0608 182.962 84.4825 181.751 83.1289H120.435Z" fill="#F3F3F3"/>
<path d="M63.6863 87.7749C66.0831 83.4207 65.4432 78.024 62.0946 74.3511C58.7461 70.6781 53.4314 69.5434 48.8747 71.5284C46.2474 66.188 40.286 63.3629 34.4889 64.7109C28.6918 66.0589 24.5885 71.2244 24.587 77.1762C24.587 77.5762 24.6063 77.971 24.6412 78.3607H24.587C19.0191 78.362 14.2348 82.3129 13.1805 87.7801L63.6863 87.7749Z" fill="white"/>
<path d="M15.2063 83.1289C14.196 84.5085 13.5041 86.095 13.1805 87.7741H63.6863C64.4753 86.342 64.9508 84.7587 65.0812 83.1289H15.2063Z" fill="#F3F3F3"/>
<path d="M184.502 88.5498H120.373C119.991 88.5498 119.666 88.2716 119.608 87.8943C118.883 83.2251 120.457 78.4932 123.833 75.188C127.21 71.8827 131.974 70.4106 136.627 71.2349C139.219 66.7025 144.029 63.8938 149.25 63.8635C154.471 63.8337 159.313 66.5869 161.957 71.0891C166.649 70.4947 171.108 73.2919 172.615 77.7743C178.377 78.2472 183.321 82.0653 185.236 87.5201C185.32 87.7571 185.283 88.0201 185.138 88.2253C184.993 88.4305 184.757 88.5524 184.506 88.5524L184.502 88.5498ZM121.05 87.0014H183.355C181.329 82.493 176.938 79.5093 172 79.2866C171.665 79.2718 171.377 79.0425 171.288 78.7188C170.135 74.5202 165.958 71.9038 161.677 72.6982C161.348 72.7578 161.017 72.5984 160.858 72.3033C158.561 68.0307 154.089 65.3787 149.239 65.412C144.388 65.4453 139.953 68.1583 137.715 72.462C137.553 72.7719 137.204 72.9352 136.863 72.8607C132.76 71.9659 128.476 73.0938 125.346 75.8933C122.215 78.6927 120.618 82.824 121.05 87.0014V87.0014Z" fill="#3C3C3C"/>
<path d="M63.6864 88.5497H13.1806C12.9498 88.5497 12.7311 88.4465 12.5841 88.2685C12.4371 88.0906 12.3771 87.8563 12.4206 87.6297C13.4942 82.0832 18.181 77.9636 23.8193 77.6103C23.8193 77.4645 23.8193 77.32 23.8193 77.1768C23.8227 71.001 27.994 65.6058 33.97 64.0478C39.946 62.4898 46.2205 65.1617 49.2387 70.5497C54.0896 68.7663 59.5379 70.1822 62.9068 74.1017C66.2757 78.0212 66.857 83.6204 64.3651 88.1484C64.229 88.396 63.9689 88.5497 63.6864 88.5497V88.5497ZM14.16 87.0013H63.218C65.2468 82.9217 64.5078 78.0089 61.3685 74.7069C58.2292 71.4048 53.36 70.4185 49.1832 72.2387C48.8044 72.4031 48.3632 72.2413 48.1806 71.871C45.7125 66.853 40.1113 64.1982 34.6645 65.4647C29.2177 66.7311 25.3624 71.5847 25.3612 77.1768C25.3612 77.5419 25.378 77.9174 25.4129 78.2916C25.4325 78.5087 25.3597 78.724 25.2123 78.8847C25.0649 79.0453 24.8567 79.1364 24.6387 79.1355H24.5819C19.7428 79.1407 15.4918 82.3491 14.16 87.0013V87.0013Z" fill="#3C3C3C"/>
<path d="M40.4374 51.9407C44.7595 51.9407 48.2632 48.4369 48.2632 44.1149C48.2632 39.7928 44.7595 36.2891 40.4374 36.2891C36.1153 36.2891 32.6116 39.7928 32.6116 44.1149C32.6116 48.4369 36.1153 51.9407 40.4374 51.9407Z" fill="white"/>
<path d="M40.4374 47.3111C37.004 47.3133 33.9698 45.0784 32.9536 41.7988C31.9604 45.0121 33.131 48.5006 35.8614 50.4644C38.5918 52.4281 42.2715 52.4281 45.0018 50.4644C47.7322 48.5006 48.9028 45.0121 47.9097 41.7988C46.8947 45.0743 43.8665 47.3082 40.4374 47.3111V47.3111Z" fill="#F3F3F3"/>
<path d="M40.4373 52.7139C36.9585 52.716 33.821 50.622 32.4883 47.4086C31.1555 44.1951 31.89 40.4953 34.3492 38.0346C36.8084 35.574 40.5078 34.8373 43.722 36.1681C46.9363 37.4989 49.0322 40.6351 49.0322 44.1139C49.0258 48.8589 45.1823 52.7047 40.4373 52.7139V52.7139ZM40.4373 37.0623C37.5847 37.0602 35.0119 38.777 33.9188 41.4118C32.8257 44.0466 33.4278 47.0805 35.4441 49.0983C37.4604 51.1162 40.4939 51.7204 43.1295 50.6293C45.7651 49.5381 47.4838 46.9665 47.4838 44.1139C47.4795 40.2232 44.328 37.0694 40.4373 37.0623Z" fill="#3C3C3C"/>
<path d="M23.2779 62.5235C24.3333 59.4463 22.6942 56.0962 19.6171 55.0408C16.5399 53.9855 13.1898 55.6245 12.1344 58.7017C11.079 61.7789 12.7181 65.129 15.7953 66.1843C18.8725 67.2397 22.2225 65.6007 23.2779 62.5235Z" fill="white"/>
<path d="M17.7057 63.0214C15.1235 63.0215 12.8423 61.3398 12.0786 58.873C11.3314 61.2912 12.2124 63.9163 14.2671 65.3941C16.3219 66.8719 19.0909 66.8719 21.1456 65.3941C23.2004 63.9163 24.0814 61.2912 23.3341 58.873C22.5693 61.3395 20.288 63.0209 17.7057 63.0214V63.0214Z" fill="#F3F3F3"/>
<path d="M17.7058 67.2802C14.0251 67.2802 11.0413 64.2964 11.0413 60.6157C11.0413 56.935 14.0251 53.9512 17.7058 53.9512C21.3865 53.9512 24.3703 56.935 24.3703 60.6157C24.366 64.2946 21.3847 67.2759 17.7058 67.2802ZM17.7058 55.4996C14.8802 55.4996 12.5896 57.7901 12.5896 60.6157C12.5896 63.4412 14.8802 65.7318 17.7058 65.7318C20.5313 65.7318 22.8219 63.4412 22.8219 60.6157C22.8191 57.7913 20.5302 55.5024 17.7058 55.4996Z" fill="#3C3C3C"/>
<path d="M160.086 46.0401C162.386 43.7398 162.386 40.0102 160.086 37.7099C157.786 35.4096 154.056 35.4096 151.756 37.7099C149.456 40.0102 149.456 43.7398 151.756 46.0401C154.056 48.3404 157.786 48.3404 160.086 46.0401Z" fill="white"/>
<path d="M155.921 44.2812C153.338 44.2805 151.056 42.5971 150.293 40.1289C149.547 42.5468 150.428 45.1711 152.483 46.6483C154.537 48.1255 157.305 48.1255 159.36 46.6483C161.414 45.1711 162.296 42.5468 161.55 40.1289C160.787 42.5971 158.505 44.2805 155.921 44.2812V44.2812Z" fill="#F3F3F3"/>
<path d="M155.921 48.5382C153.225 48.5403 150.793 46.9177 149.76 44.4274C148.727 41.937 149.296 39.0695 151.202 37.1625C153.108 35.2555 155.975 34.6847 158.466 35.7164C160.957 36.748 162.581 39.1789 162.581 41.875C162.576 45.5517 159.598 48.5318 155.921 48.5382ZM155.921 36.7589C153.852 36.7568 151.984 38.0019 151.191 39.9135C150.397 41.8251 150.834 44.0265 152.297 45.4908C153.759 46.9551 155.96 47.3937 157.873 46.6022C159.785 45.8106 161.032 43.9447 161.032 41.875C161.029 39.0529 158.743 36.7653 155.921 36.7589Z" fill="#3C3C3C"/>
<path d="M179.966 32.7376C183.132 31.9903 185.093 28.8178 184.346 25.6517C183.598 22.4855 180.426 20.5247 177.26 21.2719C174.094 22.0192 172.133 25.1917 172.88 28.3578C173.627 31.524 176.8 33.4848 179.966 32.7376Z" fill="white"/>
<path d="M178.612 29.403C176.03 29.403 173.748 27.722 172.983 25.2559C172.237 27.6737 173.119 30.2981 175.173 31.7753C177.227 33.2525 179.996 33.2525 182.05 31.7753C184.105 30.2981 184.986 27.6737 184.24 25.2559C183.475 27.722 181.194 29.403 178.612 29.403Z" fill="#F3F3F3"/>
<path d="M178.611 33.6613C175.916 33.6613 173.486 32.0374 172.454 29.5468C171.423 27.0563 171.993 24.1897 173.899 22.2838C175.806 20.3778 178.672 19.808 181.163 20.8399C183.653 21.8718 185.277 24.3024 185.276 26.998C185.271 30.6765 182.29 33.657 178.611 33.6613V33.6613ZM178.611 21.8819C175.786 21.8819 173.495 24.1725 173.495 26.998C173.495 29.8236 175.786 32.1142 178.611 32.1142C181.437 32.1142 183.728 29.8236 183.728 26.998C183.725 24.1737 181.436 21.8847 178.611 21.8819Z" fill="#3C3C3C"/>
<path d="M22.7736 29.7387C25.9362 28.9765 27.8821 25.7948 27.1199 22.6323C26.3577 19.4697 23.1761 17.5238 20.0135 18.2859C16.8509 19.0481 14.905 22.2298 15.6672 25.3924C16.4294 28.555 19.611 30.5009 22.7736 29.7387Z" fill="white"/>
<path d="M21.3935 26.4179C18.8113 26.418 16.53 24.7363 15.7664 22.2695C15.0191 24.6877 15.9002 27.3128 17.9549 28.7906C20.0096 30.2684 22.7787 30.2684 24.8334 28.7906C26.8881 27.3128 27.7691 24.6877 27.0219 22.2695C26.257 24.736 23.9758 26.4173 21.3935 26.4179V26.4179Z" fill="#F3F3F3"/>
<path d="M21.3935 30.6747C17.7128 30.6747 14.729 27.6909 14.729 24.0102C14.729 20.3295 17.7128 17.3457 21.3935 17.3457C25.0742 17.3457 28.058 20.3295 28.058 24.0102C28.0538 27.6892 25.0725 30.6705 21.3935 30.6747ZM21.3935 18.8941C18.568 18.8941 16.2774 21.1847 16.2774 24.0102C16.2774 26.8358 18.568 29.1263 21.3935 29.1263C24.2191 29.1263 26.5096 26.8358 26.5096 24.0102C26.5061 21.1861 24.2176 18.8976 21.3935 18.8941Z" fill="#3C3C3C"/>
<path d="M182.115 62.7485C185.171 59.6924 185.171 54.7373 182.115 51.6812C179.059 48.625 174.104 48.625 171.047 51.6812C167.991 54.7373 167.991 59.6924 171.047 62.7485C174.104 65.8047 179.059 65.8047 182.115 62.7485Z" fill="white"/>
<path d="M176.581 60.4114C173.147 60.4146 170.113 58.1799 169.097 54.9004C168.105 58.1129 169.276 61.6 172.005 63.563C174.735 65.5259 178.413 65.5259 181.143 63.563C183.873 61.6 185.044 58.1129 184.052 54.9004C183.037 58.1754 180.009 60.4089 176.581 60.4114Z" fill="#F3F3F3"/>
<path d="M176.581 65.8142C173.101 65.8147 169.965 63.7192 168.633 60.505C167.301 57.2908 168.037 53.591 170.497 51.1308C172.957 48.6707 176.657 47.9349 179.871 49.2666C183.086 50.5982 185.181 53.735 185.181 57.2142C185.175 61.9615 181.328 65.8085 176.581 65.8142V65.8142ZM176.581 50.1613C173.728 50.1607 171.156 51.8788 170.064 54.5142C168.972 57.1497 169.575 60.1835 171.592 62.2009C173.609 64.2182 176.642 64.8219 179.278 63.7303C181.914 62.6387 183.632 60.0669 183.632 57.2142C183.629 53.3209 180.474 50.1655 176.581 50.1613V50.1613Z" fill="#3C3C3C"/>
<path d="M189.489 87.7754H10.4516C5.1069 87.7754 0.77417 92.1081 0.77417 97.4528C0.77417 101.661 3.49513 105.386 7.5032 106.668C15.0926 109.092 20.9386 115.194 23.0348 122.88L30.3303 149.659C33.1738 160.098 40.5203 168.727 50.3716 173.199L48.0632 179.732C46.6054 183.039 47.4717 186.91 50.2 189.28C51.9255 190.779 54.196 191.494 56.4691 191.255C58.7422 191.016 60.814 189.843 62.1897 188.018L73.3613 173.197H126.581L137.752 188.018C139.128 189.843 141.2 191.016 143.473 191.255C145.746 191.494 148.016 190.779 149.742 189.28C152.47 186.91 153.336 183.039 151.879 179.732L149.57 173.199C159.422 168.727 166.768 160.098 169.612 149.659L176.903 122.88C178.998 115.193 184.844 109.089 192.434 106.664C196.442 105.382 199.163 101.657 199.163 97.4489C199.16 92.1073 194.831 87.7775 189.489 87.7754Z" fill="#EAADAD"/>
<path d="M192.434 106.665L192.652 106.59H7.28516L7.50322 106.665C10.5072 107.624 13.2872 109.178 15.6774 111.235H184.258C186.649 109.178 189.429 107.624 192.434 106.665V106.665Z" fill="#E69797"/>
<path d="M144.356 192.076C144.032 192.076 143.708 192.059 143.386 192.025C140.896 191.774 138.626 190.489 137.129 188.484L126.194 173.972H73.747L62.8077 188.484C60.0541 192.13 55.0089 193.14 51.0635 190.836C47.1181 188.532 45.5194 183.641 47.3419 179.452L49.4064 173.609C39.65 168.968 32.4088 160.295 29.5832 149.867L22.2877 123.083C20.2749 115.641 14.6166 109.732 7.26834 107.4C2.37365 105.824 -0.647151 100.921 0.145657 95.8402C0.938466 90.7594 5.30931 87.0102 10.4516 87H189.489C194.631 87.0121 199 90.7619 199.791 95.8421C200.583 100.922 197.562 105.824 192.668 107.4C185.32 109.732 179.662 115.641 177.649 123.083L170.354 149.862C167.528 160.29 160.287 168.963 150.53 173.604L152.595 179.446C153.811 182.231 153.544 185.44 151.884 187.984C150.224 190.529 147.395 192.068 144.357 192.077L144.356 192.076ZM73.3612 172.423H126.581C126.824 172.423 127.052 172.538 127.199 172.732L138.37 187.552C140.653 190.582 144.844 191.419 148.116 189.5C151.387 187.58 152.701 183.513 151.17 180.043L151.148 179.988L148.841 173.455C148.707 173.077 148.885 172.659 149.25 172.493C158.9 168.127 166.093 159.678 168.863 149.455L176.16 122.676C178.308 114.727 184.352 108.415 192.201 105.925C196.369 104.581 198.94 100.406 198.266 96.0798C197.591 91.7532 193.87 88.5596 189.492 88.5484H10.4516C6.07269 88.5596 2.35203 91.7532 1.67736 96.0798C1.00268 100.406 3.57432 104.581 7.74189 105.925C15.5901 108.416 21.6328 114.727 23.7806 122.676L31.0774 149.455C33.8474 159.678 41.0409 168.127 50.6903 172.493C51.0555 172.659 51.2331 173.077 51.0993 173.455L48.7922 179.988C48.7922 180.006 48.778 180.025 48.7703 180.043C47.2396 183.513 48.5532 187.58 51.8249 189.5C55.0966 191.419 59.2874 190.582 61.5703 187.552L72.7419 172.732C72.8884 172.537 73.1178 172.423 73.3612 172.423Z" fill="#3C3C3C"/>
<path d="M30.0851 92.5254H15.5651C13.9004 92.5254 12.5509 93.8749 12.5509 95.5396C12.5509 97.2043 13.9004 98.5538 15.5651 98.5538H30.0851C31.7498 98.5538 33.0993 97.2043 33.0993 95.5396C33.0993 93.8749 31.7498 92.5254 30.0851 92.5254Z" fill="#F2D2D2"/>
<path d="M99.9677 91.5716C99.9677 91.5716 132.436 92.1471 143.276 73.1381C151.235 59.1781 144.501 47.0736 140.361 41.6297C140.361 41.6297 146.978 18.3355 140.221 12.2374C134.359 6.94711 112.946 19.1329 112.946 19.1329C110.586 18.4594 106.214 17.5381 99.9677 17.5381C93.7212 17.5381 89.3509 18.4594 86.9909 19.1329C86.9909 19.1329 65.578 6.9484 59.7161 12.2374C52.9586 18.3355 59.5754 41.6297 59.5754 41.6297C55.4361 47.0748 48.7019 59.1781 56.6606 73.1381C67.5006 92.1471 99.9677 91.5716 99.9677 91.5716V91.5716Z" fill="white"/>
<path d="M104.845 17.7383C108.538 18.0467 111.258 18.6531 112.946 19.1344C112.946 19.1344 134.359 6.94989 140.221 12.2389C146.978 18.337 140.361 41.6312 140.361 41.6312C144.044 46.475 149.781 56.5886 145.394 68.5899C111.649 71.6196 105.548 37.635 104.845 17.7383V17.7383Z" fill="#F1CC9A"/>
<path d="M132.275 34.3655C129.741 31.9874 124.956 27.5913 121.178 24.6571C120.778 24.3451 120.565 23.8495 120.616 23.3445C120.667 22.8395 120.973 22.3957 121.427 22.1693C125.05 20.3629 132.326 17.1758 135.027 19.1848C137.649 21.1371 135.822 29.5074 134.714 33.6674C134.58 34.1699 134.192 34.5653 133.692 34.7084C133.192 34.8514 132.654 34.7212 132.275 34.3655Z" fill="#ECB579"/>
<path d="M95.0968 17.7383C91.4039 18.0467 88.6839 18.6531 86.9961 19.1344C86.9961 19.1344 65.5832 6.94989 59.7213 12.2389C52.9639 18.337 59.5806 41.6312 59.5806 41.6312C55.8981 46.475 50.1613 56.5886 54.5484 68.5899C88.2877 71.6196 94.3858 37.635 95.0968 17.7383Z" fill="#F1CC9A"/>
<path d="M99.9676 83.4038C99.9676 83.4038 66.4851 83.9483 53.8502 66.418C54.4987 68.7683 55.443 71.0268 56.6605 73.1393C67.4993 92.1483 99.9689 91.5728 99.9689 91.5728C99.9689 91.5728 132.436 92.1483 143.276 73.1393C144.494 71.0268 145.438 68.7683 146.086 66.418C133.452 83.9483 99.9676 83.4038 99.9676 83.4038V83.4038Z" fill="#F3F3F3"/>
<path d="M53.0877 63.105H47.6929C47.2653 63.105 46.9187 62.7584 46.9187 62.3308C46.9187 61.9033 47.2653 61.5566 47.6929 61.5566H53.0877C53.5153 61.5566 53.8619 61.9033 53.8619 62.3308C53.8619 62.7584 53.5153 63.105 53.0877 63.105Z" fill="#3C3C3C"/>
<path d="M50.2245 71.7986C49.847 71.7992 49.5241 71.5274 49.4603 71.1553C49.3965 70.7832 49.6103 70.4194 49.9665 70.2941L54.5806 68.6451C54.8448 68.5375 55.1466 68.5839 55.3663 68.7657C55.5859 68.9476 55.6878 69.2355 55.6315 69.515C55.5752 69.7946 55.3697 70.0205 55.0968 70.1031L50.4839 71.7509C50.4007 71.7812 50.313 71.7973 50.2245 71.7986V71.7986Z" fill="#3C3C3C"/>
<path d="M53.467 55.507C53.3791 55.5061 53.2919 55.4909 53.209 55.4618L48.5935 53.8141C48.3205 53.7315 48.1151 53.5055 48.0587 53.226C48.0024 52.9464 48.1043 52.6585 48.324 52.4767C48.5436 52.2948 48.8455 52.2485 49.1096 52.356L53.7225 54.0024C54.0786 54.1277 54.2925 54.4916 54.2286 54.8636C54.1648 55.2357 53.8419 55.5075 53.4644 55.507H53.467Z" fill="#3C3C3C"/>
<path d="M152.244 63.105H146.849C146.421 63.105 146.075 62.7584 146.075 62.3308C146.075 61.9033 146.421 61.5566 146.849 61.5566H152.244C152.671 61.5566 153.018 61.9033 153.018 62.3308C153.018 62.7584 152.671 63.105 152.244 63.105Z" fill="#3C3C3C"/>
<path d="M149.712 71.798C149.624 71.7974 149.537 71.7821 149.454 71.7528L144.841 70.1051C144.568 70.0225 144.363 69.7965 144.307 69.517C144.25 69.2374 144.352 68.9496 144.572 68.7677C144.791 68.5858 145.093 68.5395 145.357 68.647L149.97 70.2935C150.326 70.4187 150.54 70.7826 150.476 71.1547C150.413 71.5267 150.09 71.7985 149.712 71.798V71.798Z" fill="#3C3C3C"/>
<path d="M146.47 55.5066C146.092 55.5071 145.769 55.2353 145.706 54.8633C145.642 54.4912 145.856 54.1273 146.212 54.0021L150.825 52.3556C151.22 52.2358 151.641 52.4484 151.779 52.8383C151.917 53.2282 151.724 53.6577 151.341 53.8137L146.728 55.4614C146.645 55.4905 146.558 55.5058 146.47 55.5066Z" fill="#3C3C3C"/>
<path d="M71.569 61.7088C74.0297 61.7088 76.0245 60.5043 76.0245 59.0184C76.0245 57.5326 74.0297 56.3281 71.569 56.3281C69.1083 56.3281 67.1135 57.5326 67.1135 59.0184C67.1135 60.5043 69.1083 61.7088 71.569 61.7088Z" fill="#ECB579"/>
<path d="M127.062 61.7088C129.523 61.7088 131.517 60.5043 131.517 59.0184C131.517 57.5326 129.523 56.3281 127.062 56.3281C124.601 56.3281 122.606 57.5326 122.606 59.0184C122.606 60.5043 124.601 61.7088 127.062 61.7088Z" fill="#ECB579"/>
<path d="M67.6619 34.3655C70.1961 31.9874 74.9806 27.5913 78.7587 24.6571C79.159 24.3451 79.3713 23.8495 79.3207 23.3445C79.2701 22.8395 78.9639 22.3957 78.5096 22.1693C74.8864 20.3629 67.6103 17.1758 64.9096 19.1848C62.2877 21.1371 64.1148 29.5074 65.2232 33.6674C65.3567 34.1699 65.7446 34.5653 66.2445 34.7084C66.7444 34.8514 67.2827 34.7212 67.6619 34.3655V34.3655Z" fill="#ECB579"/>
<path d="M107.055 61.7225C101.477 58.4348 102.152 53.4219 102.152 53.4219H97.791C97.791 53.4219 98.4593 58.4348 92.8877 61.7225C92.338 62.0477 92.609 62.9161 93.2387 62.8361C95.1316 62.5961 97.7368 61.7328 99.9742 59.0825C102.206 61.7328 104.812 62.5961 106.71 62.8386C107.334 62.9161 107.605 62.0477 107.055 61.7225Z" fill="#3C3C3C"/>
<path d="M105.495 51.824C105.495 53.5737 103.021 55.6356 99.9676 55.6356C96.9147 55.6356 94.4412 53.5711 94.4412 51.824C94.4412 50.0769 96.916 49.2988 99.9676 49.2988C103.019 49.2988 105.495 50.0743 105.495 51.824Z" fill="#3C3C3C"/>
<path d="M100.221 92.3485H99.9625C99.5755 92.3485 91.4722 92.4256 82.1961 90.2398C76.6245 88.9262 71.7174 87.0669 67.6155 84.7121C62.4426 81.7443 58.5303 77.9817 55.9884 73.5237C52.4142 67.2553 51.3432 60.6953 52.8258 54.0256C54.0167 48.6385 56.6451 44.2708 58.729 41.4695C57.6703 37.4749 56.8734 33.4155 56.3432 29.3172C55.2361 20.312 56.1961 14.3727 59.1974 11.6656C61.8567 9.2656 67.4296 9.70044 75.7638 12.9559C81.1058 15.0437 85.889 17.6372 87.0903 18.3043C89.7226 17.5817 94.0155 16.7662 99.9677 16.7662C105.92 16.7662 110.214 17.5817 112.846 18.3043C114.045 17.6385 118.805 15.0553 124.148 12.965C132.495 9.70044 138.077 9.26431 140.739 11.6656C143.741 14.3753 144.701 20.3108 143.594 29.3172C143.063 33.4155 142.266 37.4749 141.208 41.4695C143.292 44.2708 145.92 48.6385 147.111 54.0256C148.587 60.6953 147.523 67.2553 143.948 73.5237C141.406 77.9817 137.497 81.7456 132.321 84.7121C128.214 87.0669 123.307 88.9262 117.741 90.2398C109.231 92.2424 101.711 92.3485 100.221 92.3485V92.3485ZM64.129 11.6708C62.3884 11.6708 61.0787 12.0501 60.2335 12.814C57.6658 15.1366 56.8516 20.7714 57.8787 29.1262C58.4138 33.2744 59.2298 37.3815 60.3213 41.4191C60.3876 41.6535 60.3398 41.9054 60.1922 42.0991C58.1703 44.7585 55.5135 49.045 54.3367 54.3572C52.9471 60.6385 53.9496 66.8282 57.3342 72.7533C59.7419 76.9701 63.4555 80.5404 68.3871 83.3675C72.3638 85.6475 77.1316 87.4514 82.5587 88.7314C91.8284 90.9159 99.8748 90.7959 99.9561 90.7959H99.9832C100.064 90.7959 108.141 90.9108 117.414 88.7211C122.834 87.4398 127.596 85.6359 131.568 83.3559C136.49 80.5301 140.204 76.9624 142.604 72.7533C145.983 66.8282 146.991 60.6385 145.601 54.3572C144.424 49.0424 141.768 44.7559 139.746 42.0991C139.598 41.9054 139.55 41.6535 139.617 41.4191C140.711 37.3762 141.529 33.2634 142.064 29.1095C143.089 20.7637 142.275 15.1288 139.708 12.814C135.252 8.79205 119.16 16.4991 113.334 19.8075C113.153 19.9101 112.939 19.9356 112.739 19.8785C110.236 19.165 105.99 18.3133 99.9742 18.3133C93.9587 18.3133 89.7135 19.165 87.2103 19.8785C87.0105 19.9356 86.7962 19.9101 86.6155 19.8075C86.3948 19.6785 81.1548 16.7211 75.2064 14.3972C70.56 12.5843 66.8271 11.6708 64.129 11.6708V11.6708Z" fill="#3C3C3C"/>
<path d="M77.0631 48.0451C77.0631 48.0451 78.7793 46.1535 81.3534 47.8954C83.8051 49.5496 84.1044 51.7406 83.5251 52.7057C82.667 54.1328 79.138 53.9819 77.4528 52.4399C75.0464 50.2309 77.0631 48.0451 77.0631 48.0451Z" fill="#3C3C3C"/>
<path d="M122.873 48.0451C122.873 48.0451 121.161 46.1535 118.581 47.8954C116.138 49.5483 115.832 51.7419 116.412 52.7057C117.27 54.1328 120.799 53.9819 122.484 52.4399C124.89 50.2309 122.873 48.0451 122.873 48.0451V48.0451Z" fill="#3C3C3C"/>
<path d="M84.1096 87.9394C83.9148 93.1949 78.089 95.1097 71.0012 94.8452C63.9135 94.5807 58.2477 92.2387 58.4425 86.9832C58.6373 81.7278 64.5509 77.4581 71.6386 77.7226C78.7264 77.9871 84.3057 82.6826 84.1096 87.9394Z" fill="white"/>
<path d="M71.2141 89.1371C65.5148 88.9255 60.7367 87.3693 59.1831 84.0352C58.737 84.9573 58.4849 85.9613 58.4425 86.9848C58.2477 92.2403 63.9135 94.5835 71.0012 94.8468C78.089 95.11 83.9148 93.1964 84.1096 87.941C84.1452 86.917 83.9695 85.8966 83.5935 84.9435C81.7935 88.1526 76.9122 89.35 71.2141 89.1371Z" fill="#F3F3F3"/>
<path d="M72.2425 95.6443C71.8271 95.6443 71.4038 95.6365 70.9729 95.621C67.1135 95.4765 63.8761 94.7307 61.6129 93.4636C58.9303 91.9617 57.5664 89.7114 57.6696 86.9565C57.7729 84.154 59.3148 81.5604 62.009 79.6533C64.658 77.7772 68.0877 76.8146 71.6671 76.9501C75.2464 77.0856 78.5961 78.2959 81.0993 80.363C83.6438 82.4662 84.9883 85.1669 84.8838 87.9759C84.7806 90.7307 83.2542 92.8791 80.4671 94.1694C78.378 95.1385 75.5535 95.6443 72.2425 95.6443V95.6443ZM71.0103 78.483C67.9883 78.483 65.1303 79.3359 62.9032 80.9127C60.6116 82.5359 59.3019 84.7011 59.2167 87.0094C59.1354 89.1772 60.1961 90.892 62.369 92.1088C64.4193 93.2572 67.4142 93.9346 71.0296 94.0701C74.6451 94.2056 77.6825 93.7501 79.8129 92.7578C82.0696 91.7062 83.2554 90.0752 83.3367 87.9075C83.5174 83.0481 78.1471 78.7372 71.6103 78.4881C71.4103 78.4907 71.209 78.4869 71.0103 78.4869V78.483Z" fill="#3C3C3C"/>
<path d="M67.6916 95.2809C67.5968 95.2809 67.5027 95.2634 67.4142 95.2293C67.2684 95.1738 63.8503 93.8164 63.6477 90.3041C63.5045 87.8409 65.3381 85.9054 65.4155 85.8241C65.7116 85.5156 66.2018 85.5055 66.5103 85.8016C66.8189 86.0977 66.829 86.5878 66.5329 86.8964C66.5148 86.9158 65.0903 88.4448 65.1935 90.2151C65.3381 92.7196 67.8658 93.7429 67.9729 93.7854C68.3198 93.9207 68.5213 94.2839 68.4525 94.6498C68.3836 95.0158 68.064 95.2809 67.6916 95.2809Z" fill="#3C3C3C"/>
<path d="M74.3225 95.5289C73.9377 95.5299 73.6105 95.2482 73.5545 94.8675C73.4984 94.4868 73.7305 94.1227 74.0993 94.0128C74.2064 93.9792 76.8089 93.147 77.1341 90.6579C77.3677 88.9044 76.0593 87.2669 76.0451 87.2515C75.7721 86.9219 75.8181 86.4334 76.1477 86.1605C76.4772 85.8876 76.9657 85.9335 77.2386 86.2631C77.3096 86.3508 78.9947 88.4166 78.6696 90.8618C78.2051 94.3457 74.6967 95.4489 74.5405 95.494C74.4698 95.5157 74.3964 95.5275 74.3225 95.5289V95.5289Z" fill="#3C3C3C"/>
<path d="M115.827 87.9394C116.022 93.1949 121.848 95.1097 128.935 94.8452C136.023 94.5807 141.689 92.2387 141.494 86.9832C141.299 81.7278 135.386 77.4581 128.298 77.7226C121.21 77.9871 115.631 82.6826 115.827 87.9394V87.9394Z" fill="white"/>
<path d="M128.723 89.1371C134.422 88.9255 139.2 87.3693 140.753 84.0352C141.2 84.9573 141.452 85.9613 141.494 86.9848C141.689 92.2403 136.023 94.5835 128.935 94.8468C121.848 95.11 116.022 93.1964 115.827 87.941C115.791 86.917 115.967 85.8966 116.343 84.9435C118.143 88.1526 123.024 89.35 128.723 89.1371V89.1371Z" fill="#F3F3F3"/>
<path d="M127.642 95.6438C119.801 95.6438 115.236 92.8825 115.053 87.9677C114.948 85.1651 116.293 82.4644 118.837 80.3548C121.341 78.2902 124.69 77.0748 128.27 76.9418C131.849 76.8089 135.279 77.769 137.928 79.6451C140.622 81.5522 142.164 84.1457 142.267 86.9483C142.461 92.1328 137.611 95.2902 128.964 95.6128C128.516 95.636 128.073 95.6438 127.642 95.6438V95.6438ZM128.907 78.4825C128.715 78.4825 128.52 78.4825 128.326 78.4928C125.085 78.6141 122.066 79.7006 119.824 81.5522C117.659 83.3419 116.515 85.5986 116.599 87.907C116.673 89.8954 118.018 94.476 128.904 94.0696C132.531 93.9341 140.941 92.9754 140.719 87.0089C140.544 82.2967 135.196 78.4851 128.903 78.4851L128.907 78.4825Z" fill="#3C3C3C"/>
<path d="M132.245 95.2814C131.872 95.2817 131.552 95.0158 131.483 94.6489C131.415 94.282 131.618 93.9186 131.967 93.7846C132.071 93.7433 134.599 92.7201 134.743 90.2156C134.847 88.4375 133.418 86.9111 133.403 86.8969C133.107 86.5879 133.117 86.0975 133.426 85.8014C133.735 85.5053 134.225 85.5157 134.521 85.8246C134.599 85.9059 136.432 87.8414 136.289 90.3046C136.087 93.8169 132.668 95.1743 132.523 95.2298C132.434 95.2638 132.34 95.2814 132.245 95.2814Z" fill="#3C3C3C"/>
<path d="M125.61 95.5286C125.534 95.5282 125.459 95.5169 125.386 95.495C125.237 95.4499 121.728 94.3518 121.257 90.8628C120.932 88.4111 122.617 86.3466 122.688 86.264C122.96 85.9341 123.448 85.8873 123.778 86.1595C124.108 86.4318 124.155 86.9199 123.883 87.2498C123.862 87.2757 122.559 88.8989 122.792 90.6589C123.125 93.1686 125.8 94.0047 125.827 94.0137C126.196 94.1236 126.428 94.4877 126.372 94.8684C126.316 95.2491 125.989 95.5309 125.604 95.5299L125.61 95.5286Z" fill="#3C3C3C"/>
<path d="M87.2929 191.302C85.628 186.557 81.2445 183.301 76.2206 183.079C75.102 179.012 71.059 176.476 66.9109 177.24C64.7505 173.224 60.5466 170.731 55.9863 170.762C51.4259 170.793 47.2564 173.343 45.151 177.388C41.1848 176.521 37.0462 177.666 34.0892 180.448C31.1321 183.229 29.7369 187.29 30.36 191.302H87.2929Z" fill="white"/>
<path d="M84.3625 186.656H30.5251C30.1782 188.18 30.1222 189.756 30.36 191.301H87.2929C86.6786 189.552 85.6769 187.964 84.3625 186.656Z" fill="#F3F3F3"/>
<path d="M87.2929 192.075H30.36C29.9778 192.075 29.6528 191.796 29.5948 191.418C28.9479 187.256 30.3448 183.036 33.348 180.082C36.3511 177.127 40.593 175.8 44.7445 176.515C47.0686 172.492 51.3519 170.004 55.9978 169.977C60.6437 169.95 64.9552 172.39 67.3251 176.386C67.6745 176.344 68.0261 176.323 68.378 176.323C72.179 176.33 75.5595 178.741 76.8051 182.332C81.9334 182.773 86.3267 186.179 88.0309 191.036C88.1148 191.274 88.0782 191.537 87.9327 191.742C87.7871 191.947 87.5509 192.069 87.2993 192.069L87.2929 192.075ZM31.0425 190.527H86.1393C84.3275 186.616 80.4874 184.042 76.1819 183.85C75.8465 183.836 75.5588 183.606 75.4696 183.283C74.5828 180.094 71.6823 177.886 68.3729 177.879C67.928 177.88 67.4841 177.921 67.0464 178C66.7162 178.06 66.3848 177.901 66.2258 177.605C64.2008 173.843 60.2622 171.509 55.9899 171.538C51.7176 171.568 47.8116 173.956 45.8387 177.746C45.6773 178.056 45.3284 178.219 44.9871 178.145C41.5768 177.4 38.0127 178.239 35.2933 180.428C32.574 182.616 30.9921 185.919 30.9909 189.409C30.9896 189.782 31.0064 190.155 31.0425 190.527V190.527Z" fill="#3C3C3C"/>
<path d="M37.4025 189.649C36.2945 189.647 35.2158 190.005 34.329 190.67C32.3966 186.475 27.8048 184.191 23.2937 185.18C18.7825 186.17 15.5683 190.166 15.569 194.785H42.5367C42.5367 191.949 40.2383 189.65 37.4025 189.649V189.649Z" fill="white"/>
<path d="M39.5934 190.141H35.2064C34.8954 190.287 34.6001 190.465 34.3251 190.671C34.2412 190.49 34.1522 190.315 34.058 190.141H16.7341C15.9682 191.569 15.5691 193.165 15.5728 194.786H42.5405C42.5405 192.797 41.3925 190.988 39.5934 190.141Z" fill="#F3F3F3"/>
<path d="M42.5381 195.559H15.5703C15.1428 195.559 14.7961 195.212 14.7961 194.785C14.7967 189.968 18.0433 185.756 22.7013 184.53C27.3593 183.304 32.2587 185.371 34.631 189.563C36.4635 188.592 38.6703 188.652 40.4472 189.721C42.2241 190.79 43.3117 192.711 43.3136 194.785C43.3136 194.99 43.2318 195.187 43.0864 195.332C42.9409 195.478 42.7436 195.559 42.5381 195.559V195.559ZM16.3755 194.01H41.6955C41.4265 192.523 40.4075 191.281 39.0017 190.727C37.5959 190.173 36.0035 190.386 34.7923 191.289C34.6056 191.427 34.3669 191.474 34.142 191.417C33.917 191.36 33.7294 191.205 33.631 190.995C31.9118 187.261 27.8939 185.154 23.8449 185.861C19.7959 186.569 16.7313 189.915 16.3807 194.01H16.3755Z" fill="#3C3C3C"/>
<path d="M103.943 195.456C105.051 195.454 106.13 195.812 107.017 196.476C108.949 192.282 113.541 189.998 118.052 190.987C122.563 191.977 125.777 195.973 125.777 200.591H98.8091C98.8091 197.755 101.108 195.456 103.943 195.456Z" fill="white"/>
<path d="M101.751 195.947H106.138C106.449 196.093 106.745 196.271 107.02 196.478C107.103 196.297 107.193 196.121 107.286 195.947H124.61C125.376 197.376 125.775 198.972 125.771 200.592H98.8037C98.804 198.604 99.952 196.795 101.751 195.947Z" fill="#F3F3F3"/>
<path d="M125.777 201.366H98.8089C98.3813 201.366 98.0347 201.019 98.0347 200.591C98.0382 197.329 100.683 194.685 103.946 194.682C104.912 194.679 105.864 194.915 106.717 195.37C109.089 191.176 113.989 189.108 118.648 190.335C123.307 191.561 126.554 195.774 126.553 200.591C126.553 200.797 126.471 200.995 126.326 201.14C126.18 201.285 125.982 201.366 125.777 201.366V201.366ZM99.6502 199.817H124.969C124.617 195.723 121.553 192.378 117.505 191.671C113.457 190.963 109.44 193.07 107.72 196.802C107.622 197.014 107.433 197.171 107.206 197.228C106.979 197.285 106.739 197.236 106.552 197.096C105.8 196.531 104.884 196.227 103.943 196.23C101.834 196.232 100.027 197.742 99.6502 199.817V199.817Z" fill="#3C3C3C"/>
<path d="M104.626 161.091C100.712 161.091 98.6902 168.036 91.8748 168.793C88.0851 169.214 85.5444 168.192 84.0348 167.201C89.237 163.464 91.192 156.643 88.7594 150.717C86.3268 144.792 80.1434 141.312 73.8157 142.308C67.488 143.304 62.6723 148.514 62.1774 154.901C61.6825 161.287 65.638 167.178 71.7367 169.136C67.9638 171.788 62.7535 176.82 63.7638 183.947C65.769 198.087 93.3483 198.975 103.178 190.564C117.639 178.193 108.541 161.091 104.626 161.091Z" fill="#F2D05F"/>
<path d="M103.178 185.916C93.4774 194.218 66.4903 193.462 63.8568 179.851C63.5981 181.202 63.5667 182.586 63.7639 183.947C65.769 198.087 93.3484 198.975 103.178 190.564C110.005 184.721 111.581 177.825 110.929 172.174C110.399 176.711 108.221 181.6 103.178 185.916Z" fill="#EEBF3C"/>
<path d="M84.8697 196.718C80.5561 196.718 76.3536 196.035 72.9097 194.731C67.1032 192.538 63.6774 188.847 62.9974 184.054C62.5213 180.699 63.3007 177.46 65.3123 174.433C66.5174 172.618 68.1355 170.915 70.1342 169.357C64.1531 166.756 60.6206 160.505 61.4772 154.039C62.3339 147.573 67.3723 142.458 73.8245 141.504C80.2767 140.549 86.58 143.987 89.2717 149.928C91.9633 155.869 90.3914 162.875 85.4194 167.096C86.8387 167.785 88.9252 168.34 91.7871 168.023C95.2968 167.636 97.4645 165.442 99.3807 163.518C101.015 161.872 102.559 160.316 104.625 160.316C106.613 160.316 109.037 163.122 110.523 167.14C111.866 170.794 112.181 174.747 111.434 178.567C110.468 183.342 107.861 187.57 103.68 191.148C100.463 193.902 95.3949 195.793 89.4116 196.463C87.9036 196.633 86.3872 196.718 84.8697 196.718V196.718ZM75.9665 142.912C69.5364 142.913 64.064 147.594 63.0672 153.947C62.0704 160.299 65.8458 166.432 71.9665 168.402C72.2462 168.492 72.451 168.732 72.4953 169.023C72.5396 169.313 72.4157 169.604 72.1755 169.773C69.7961 171.45 67.9174 173.303 66.5949 175.294C64.8 178.004 64.1032 180.872 64.5303 183.841C65.2826 189.147 69.8 191.907 73.4568 193.287C77.8929 194.965 83.6503 195.561 89.2387 194.931C94.8271 194.302 99.7329 192.495 102.675 189.978C106.586 186.631 109.022 182.69 109.916 178.267C110.609 174.729 110.317 171.069 109.071 167.686C107.67 163.894 105.587 161.88 104.626 161.88C103.206 161.88 101.943 163.152 100.481 164.624C98.4903 166.629 96.0116 169.126 91.9652 169.576C87.9187 170.027 85.1858 168.893 83.6155 167.862C83.4027 167.722 83.2724 167.486 83.267 167.231C83.2616 166.977 83.3818 166.736 83.5884 166.587C88.1948 163.28 90.1405 157.378 88.4041 151.98C86.6676 146.582 81.6459 142.922 75.9755 142.921L75.9665 142.912Z" fill="#3C3C3C"/>
<path d="M89.6773 183.943C86.3225 183.943 83.2631 182.496 82.0967 180.881C81.9148 180.658 81.8716 180.352 81.9844 180.088C82.0972 179.823 82.3475 179.643 82.6343 179.62C82.9211 179.596 83.1971 179.734 83.3509 179.977C84.2838 181.268 87.6025 182.834 91.1612 182.286C93.7973 181.881 97.3444 180.181 99.2709 174.384C99.358 174.121 99.5786 173.925 99.8495 173.869C100.12 173.814 100.401 173.907 100.584 174.113C100.768 174.32 100.828 174.609 100.741 174.872C99.8257 177.624 98.4722 179.798 96.7186 181.336C95.2219 182.661 93.3729 183.522 91.3961 183.816C90.8272 183.902 90.2526 183.945 89.6773 183.943Z" fill="#3C3C3C"/>
<path d="M79.0283 152.594C79.0283 152.594 77.867 151.32 76.1419 152.492C74.4954 153.605 74.2902 155.08 74.6799 155.729C75.2567 156.689 77.6348 156.587 78.7664 155.55C80.387 154.065 79.0283 152.594 79.0283 152.594V152.594Z" fill="#3C3C3C"/>
<path d="M67.6128 153.465C70.4657 153.745 67.8193 157.798 69.2631 158.985C70.707 160.172 73.9573 159.914 73.9083 162.75C73.8593 165.586 68.0915 167.129 62.9844 167.078C57.8773 167.026 51.6206 165.788 52.0825 162.622C52.6386 158.808 57.6941 160.87 60.4348 158.364C63.5238 155.531 64.978 153.207 67.6128 153.465Z" fill="#E48B47"/>
<path d="M72.9509 160.707C71.098 162.369 66.849 163.245 62.978 163.206C59.2283 163.169 54.858 162.49 52.9832 160.884C52.5199 161.271 52.1948 161.81 52.0799 162.626C51.618 165.791 57.8748 167.03 62.9819 167.081C68.089 167.133 73.8541 165.591 73.9057 162.753C73.9199 161.751 73.5277 161.137 72.9509 160.707V160.707Z" fill="#D57E3B"/>
<path d="M63.2257 167.854H62.9677C58.867 167.812 53.8399 167.012 52.0244 164.886C51.4442 164.239 51.1814 163.368 51.307 162.508C51.7083 159.758 54.0167 159.42 56.0477 159.122C57.4515 158.916 58.9032 158.703 59.9032 157.788C60.6077 157.143 61.2412 156.511 61.7999 155.952C63.7535 154 65.2954 152.459 67.6812 152.691C68.3857 152.761 68.9264 153.024 69.2864 153.474C69.9406 154.292 69.7948 155.472 69.6657 156.513C69.5741 157.241 69.4619 158.148 69.7483 158.383C70.1161 158.686 70.7096 158.899 71.3367 159.113C72.7638 159.611 74.7186 160.295 74.6735 162.761C74.6528 163.922 73.9264 165.551 70.5896 166.725C68.5496 167.447 65.8786 167.854 63.2257 167.854V167.854ZM67.2257 154.22C65.7341 154.22 64.6451 155.313 62.9032 157.051C62.3328 157.62 61.6864 158.267 60.9561 158.935C59.6051 160.17 57.8386 160.429 56.2799 160.658C54.178 160.966 53.0709 161.198 52.8464 162.735C52.7838 163.153 52.9176 163.576 53.209 163.882C54.4077 165.283 58.3393 166.256 62.9909 166.304H63.249C68.5109 166.304 73.1019 164.659 73.1367 162.736C73.1599 161.446 72.3212 161.096 70.8373 160.576C70.1096 160.318 69.3573 160.06 68.7728 159.583C67.8283 158.809 67.9922 157.487 68.1367 156.325C68.2232 155.624 68.3315 154.752 68.0851 154.443C67.9961 154.332 67.8115 154.261 67.538 154.234C67.427 154.225 67.3225 154.22 67.2257 154.22V154.22Z" fill="#3C3C3C"/>
<path d="M80.5445 160.678C82.2235 160.678 83.5845 159.856 83.5845 158.842C83.5845 157.828 82.2235 157.006 80.5445 157.006C78.8656 157.006 77.5045 157.828 77.5045 158.842C77.5045 159.856 78.8656 160.678 80.5445 160.678Z" fill="#EEBF3C"/>
<path d="M77.5032 148.649C79.0104 148.649 80.2322 147.724 80.2322 146.583C80.2322 145.442 79.0104 144.518 77.5032 144.518C75.996 144.518 74.7742 145.442 74.7742 146.583C74.7742 147.724 75.996 148.649 77.5032 148.649Z" fill="#F7E5B0"/>
<path d="M165.548 23.8628L165.74 23.9041C166.065 23.9733 166.297 24.26 166.297 24.5918C166.297 24.9237 166.065 25.2103 165.74 25.2796L165.548 25.3209C164.877 25.465 164.353 25.9892 164.209 26.6602L164.168 26.8538C164.098 27.1783 163.812 27.4102 163.48 27.4102C163.148 27.4102 162.861 27.1783 162.792 26.8538L162.749 26.6602C162.607 25.9917 162.087 25.4681 161.419 25.3209L161.227 25.2796C160.902 25.2103 160.67 24.9237 160.67 24.5918C160.67 24.26 160.902 23.9733 161.227 23.9041L161.419 23.8628C162.091 23.7188 162.615 23.1939 162.758 22.5222L162.801 22.3299C162.87 22.0054 163.157 21.7734 163.489 21.7734C163.821 21.7734 164.107 22.0054 164.177 22.3299L164.218 22.5222C164.36 23.1914 164.88 23.7157 165.548 23.8628V23.8628Z" fill="#E59090"/>
<path d="M191.903 72.6597L192.095 72.701C192.42 72.7702 192.652 73.0569 192.652 73.3887C192.652 73.7205 192.42 74.0072 192.095 74.0765L191.903 74.1178C191.232 74.2619 190.708 74.786 190.564 75.4571L190.523 75.6507C190.453 75.9752 190.167 76.2071 189.835 76.2071C189.503 76.2071 189.216 75.9752 189.147 75.6507L189.104 75.4571C188.96 74.786 188.436 74.2619 187.765 74.1178L187.573 74.0765C187.248 74.0072 187.016 73.7205 187.016 73.3887C187.016 73.0569 187.248 72.7702 187.573 72.701L187.765 72.6597C188.437 72.5157 188.961 71.9908 189.104 71.319L189.147 71.1268C189.216 70.8023 189.503 70.5703 189.835 70.5703C190.167 70.5703 190.453 70.8023 190.523 71.1268L190.564 71.319C190.707 71.9908 191.232 72.5157 191.903 72.6597Z" fill="#E59090"/>
<path d="M156.524 2.90405L156.782 2.95824C157.766 3.16986 157.766 4.57502 156.782 4.78663L156.524 4.84211C155.633 5.03471 154.937 5.73059 154.744 6.62147L154.689 6.87953C154.477 7.86405 153.072 7.86405 152.861 6.87953L152.806 6.62147C152.614 5.73023 151.917 5.03426 151.026 4.84211L150.768 4.78663C149.782 4.57502 149.782 3.16986 150.768 2.95824L151.026 2.90405C151.917 2.7117 152.614 2.01514 152.806 1.1234L152.861 0.86534C153.072 -0.119176 154.477 -0.119176 154.689 0.86534L154.744 1.1234C154.937 2.01478 155.633 2.71125 156.524 2.90405V2.90405Z" fill="#E59090"/>
<path d="M191.917 41.8181L192.176 41.8736C193.16 42.0852 193.16 43.4904 192.176 43.7007L191.917 43.7562C191.026 43.9485 190.329 44.6451 190.137 45.5368L190.081 45.7949C189.871 46.7794 188.466 46.7794 188.254 45.7949L188.199 45.5368C188.006 44.6451 187.31 43.9485 186.418 43.7562L186.16 43.7007C185.176 43.4904 185.176 42.0852 186.16 41.8736L186.418 41.8181C187.31 41.6258 188.006 40.9292 188.199 40.0375L188.254 39.7794C188.466 38.7949 189.871 38.7949 190.081 39.7794L190.137 40.0375C190.329 40.9292 191.026 41.6258 191.917 41.8181Z" fill="#E59090"/>
<path d="M34.9354 23.8628L34.7419 23.9041C34.4174 23.9733 34.1854 24.26 34.1854 24.5918C34.1854 24.9237 34.4174 25.2103 34.7419 25.2796L34.9354 25.3209C35.6063 25.4653 36.1304 25.9893 36.2748 26.6602L36.3161 26.8538C36.3853 27.1783 36.672 27.4102 37.0038 27.4102C37.3357 27.4102 37.6223 27.1783 37.6916 26.8538L37.7329 26.6602C37.8775 25.989 38.4021 25.4648 39.0735 25.3209L39.2658 25.2796C39.5903 25.2103 39.8222 24.9237 39.8222 24.5918C39.8222 24.26 39.5903 23.9733 39.2658 23.9041L39.0735 23.8628C38.4018 23.7187 37.877 23.1939 37.7329 22.5222L37.6916 22.3299C37.6223 22.0054 37.3357 21.7734 37.0038 21.7734C36.672 21.7734 36.3853 22.0054 36.3161 22.3299L36.2748 22.5222C36.1308 23.1936 35.6067 23.7182 34.9354 23.8628Z" fill="#E59090"/>
<path d="M13.3457 41.146L13.1522 41.1873C12.8277 41.2566 12.5957 41.5432 12.5957 41.875C12.5957 42.2069 12.8277 42.4935 13.1522 42.5628L13.3457 42.6041C14.0166 42.7485 14.5407 43.2725 14.6851 43.9434L14.7264 44.137C14.7956 44.4615 15.0823 44.6935 15.4141 44.6935C15.7459 44.6935 16.0326 44.4615 16.1019 44.137L16.1431 43.9434C16.2875 43.2725 16.8116 42.7485 17.4825 42.6041L17.676 42.5628C18.0006 42.4935 18.2325 42.2069 18.2325 41.875C18.2325 41.5432 18.0006 41.2566 17.676 41.1873L17.4825 41.146C16.8112 41.0014 16.2871 40.4768 16.1431 39.8054L16.1019 39.6131C16.0326 39.2886 15.7459 39.0566 15.4141 39.0566C15.0823 39.0566 14.7956 39.2886 14.7264 39.6131L14.6851 39.8054C14.5411 40.4768 14.017 41.0014 13.3457 41.146V41.146Z" fill="#E59090"/>
<path d="M16.1625 158.519L15.9703 158.56C15.6458 158.63 15.4138 158.916 15.4138 159.248C15.4138 159.58 15.6458 159.867 15.9703 159.936L16.1625 159.977C16.8336 160.121 17.3578 160.645 17.5019 161.316L17.5432 161.51C17.6124 161.835 17.8991 162.066 18.2309 162.066C18.5628 162.066 18.8494 161.835 18.9187 161.51L18.9613 161.316C19.1054 160.645 19.6296 160.121 20.3006 159.977L20.4929 159.936C20.8174 159.867 21.0493 159.58 21.0493 159.248C21.0493 158.916 20.8174 158.63 20.4929 158.56L20.3006 158.519C19.6315 158.373 19.1101 157.848 18.9677 157.178L18.9251 156.986C18.8559 156.662 18.5692 156.43 18.2374 156.43C17.9056 156.43 17.6189 156.662 17.5496 156.986L17.5084 157.178C17.364 157.852 16.8366 158.377 16.1625 158.519V158.519Z" fill="#E59090"/>
<path d="M43.2722 6.38842L43.0141 6.44262C42.0296 6.65423 42.0296 8.05939 43.0141 8.27101L43.2722 8.32649C44.1636 8.51864 44.8601 9.21461 45.0529 10.1058L45.1083 10.3639C45.3199 11.3484 46.7251 11.3484 46.9354 10.3639L46.9909 10.1058C47.1841 9.21389 47.8818 8.51774 48.7741 8.32649L49.0322 8.27101C50.0167 8.05939 50.0167 6.65423 49.0322 6.44262L48.7741 6.38842C47.8824 6.19608 47.1858 5.49952 46.9935 4.60778L46.938 4.34972C46.7277 3.3652 45.3225 3.3652 45.1109 4.34972L45.0554 4.60778C44.8627 5.50024 44.1649 6.19697 43.2722 6.38842Z" fill="#E59090"/>
<path d="M26.3044 168.59L26.0464 168.645C25.0619 168.857 25.0619 170.262 26.0464 170.472L26.3044 170.528C27.1962 170.72 27.8927 171.417 28.0851 172.308L28.1393 172.566C28.3509 173.551 29.756 173.551 29.9677 172.566L30.0219 172.308C30.2142 171.417 30.9108 170.72 31.8025 170.528L32.0606 170.472C33.0451 170.262 33.0451 168.857 32.0606 168.645L31.8025 168.59C30.9108 168.397 30.2142 167.701 30.0219 166.809L29.9677 166.551C29.756 165.566 28.3509 165.566 28.1393 166.551L28.0851 166.809C27.8927 167.701 27.1962 168.397 26.3044 168.59Z" fill="#E59090"/>
</svg>
