<svg width="200" height="211" viewBox="0 0 200 211" fill="none" xmlns="http://www.w3.org/2000/svg">
<g clip-path="url(#clip0_1_39235)">
<path d="M35.1385 94.9001C40.4333 106.821 23.9905 114.52 17.9905 103.564C12.6981 91.6534 29.1216 83.9518 35.1385 94.9001Z" fill="#E1F9F9"/>
<path d="M78.8954 77.4412C77.9616 97.0609 50.4116 96.5531 49.7161 77.4412C50.6499 57.8238 78.1998 58.3316 78.8954 77.4412Z" fill="#E1F9F9"/>
<path d="M39.1241 78.4605C40.5393 79.9334 41.2613 81.931 41.798 83.9021C42.4328 86.2561 42.8739 88.658 43.1169 91.0839C48.4117 92.5712 56.5802 93.5845 67.7306 91.4665C65.153 82.0923 61.1819 71.6278 54.1638 64.8263C44.7775 55.9214 28.5465 57.2981 19.6175 66.41C10.1686 76.1163 9.79318 93.5171 11.2757 106.217C12.1301 108.008 14.2842 108.383 16.4719 108.241C17.4562 107.974 18.6813 108.482 18.8786 107.279C20.6428 101.616 20.1277 96.0369 21.0688 90.2078C22.7872 76.99 33.5092 73.2427 39.1241 78.4605V78.4605Z" fill="#EFEFEF"/>
<path d="M12.5008 103.009C10.5874 103.339 7.8919 106.314 7.38408 108.107C6.29142 111.982 15.567 110.176 17.4442 109.772C19.3889 109.353 19.6368 107.803 18.7511 106.234C17.5959 104.189 14.8955 102.595 12.5008 103.009V103.009Z" fill="#D76A99"/>
<path d="M149.167 210.99C139.721 210.408 143.098 206.213 142.277 204.229C141.812 202.855 140.241 202.237 138.987 201.962C132.729 200.34 129.651 194.362 133.692 189.673C138.746 186.465 148.729 187.216 149.716 194.403C150.518 199.399 147.697 201.016 147.1 203.907C147.305 205.351 149.358 206.34 150.469 207.601C151.767 208.773 151.018 210.781 149.167 210.99V210.99Z" fill="#E6ACC2"/>
<path d="M23.0279 127.617C22.3275 141.576 2.84257 141.046 2.3877 127.617C3.08806 113.66 22.573 114.187 23.0279 127.617Z" fill="#E1F9F9"/>
<path d="M34.058 114.093C33.1891 132.288 7.65121 131.792 7.01343 114.093C7.88226 95.9003 33.4202 96.3937 34.058 114.093Z" fill="#E1F9F9"/>
<path d="M178.178 110.181H35.8389L60.7462 81.0015L132.628 73.8848L178.178 110.181Z" fill="#E1F9F9"/>
<path d="M119.673 81.139C114.883 73.0547 117.191 66.6023 117.119 59.1317C117.519 53.6709 113.073 50.5421 109.988 55.423C106.927 61.589 107.083 68.7419 106.765 75.1823C107.006 77.2449 106.563 80.6528 107.591 81.784C110.229 82.5517 115.259 83.2376 119.673 81.139Z" fill="#EFEFEF"/>
<path d="M109.861 50.4135C107.242 50.2378 102.753 53.28 101.516 55.4677C98.8449 60.2041 111.586 60.7938 114.188 60.866C116.876 60.9406 117.697 58.9839 117.037 56.6422C116.173 53.5904 113.136 50.6349 109.861 50.4135V50.4135Z" fill="#C65D90"/>
<path opacity="0.16" d="M110.912 55.5256C110.912 55.5256 106.558 51.8096 106.188 51.5039C99.42 55.3017 98.9338 59.0466 108.202 60.3631C107.48 64.1609 107.199 67.2512 106.891 70.8733L111.025 68.6664L110.912 55.5256Z" fill="#1E2728"/>
<path d="M165.723 89.1831C164.806 108.334 137.93 107.821 137.254 89.1831C138.171 70.0351 165.047 70.5477 165.723 89.1831Z" fill="#E1F9F9"/>
<path d="M181.382 100.573C180.698 114.051 161.887 113.526 161.454 100.573C162.135 87.086 180.946 87.6178 181.382 100.573Z" fill="#E1F9F9"/>
<path d="M174.263 91.6756C173.735 101.832 159.62 101.341 159.319 91.6756C159.846 81.5192 173.962 82.0126 174.263 91.6756Z" fill="#E1F9F9"/>
<path d="M145.083 71.7497C144.234 89.473 119.37 88.9724 118.751 71.7497C119.615 54.0241 144.467 54.5247 145.083 71.7497Z" fill="#E1F9F9"/>
<path d="M78.1831 76.0184C79.0351 58.2951 103.899 58.7933 104.518 76.0184C103.666 93.7416 78.8016 93.2434 78.1831 76.0184Z" fill="#E1F9F9"/>
<path d="M49.2154 210.277C58.6618 209.695 55.2852 205.5 56.1059 203.517C56.5704 202.142 58.142 201.524 59.3959 201.249C65.6534 199.627 68.7316 193.651 64.6907 188.961C59.6366 185.752 49.6534 186.503 48.6667 193.69C47.8652 198.686 50.6859 200.304 51.2828 203.194C51.0806 204.638 49.0253 205.627 47.9134 206.888C46.6161 208.06 47.3646 210.068 49.2154 210.277V210.277Z" fill="#E6ACC2"/>
<path d="M147.608 190.225C144.202 186.629 134.229 187.546 132.787 190.829C130.929 194.184 132.117 198.409 135.451 200.304C138.16 199.484 140.794 198.438 143.326 197.175C148.977 194.01 151.288 194.427 147.608 190.225V190.225Z" fill="#D76A99"/>
<path d="M65.8629 196.496C67.6295 191.663 65.4153 187.726 60.4093 187.485C54.4839 186.346 49.0976 188.517 48.5681 194.438C51.7691 197.04 57.1554 198.014 61.23 199.235C63.3094 200.262 65.0037 198.113 65.8629 196.496Z" fill="#D76A99"/>
<path d="M183.524 123.348H19.6848C19.6006 123.322 20.0266 123.399 18.8593 123.303C16.1637 122.995 14.1108 121.17 13.2805 118.696C11.4586 111.103 19.1866 109.712 19.8292 110.032H113.839C188.522 110.484 186.075 108.128 189.519 113.765C191.716 118.237 188.306 123.38 183.524 123.348V123.348Z" fill="#E6ACC2"/>
<path d="M189.466 113.684C189.295 120.165 183.1 120.646 182.616 120.499H136.648C7.48268 120.018 17.0326 122.463 12.9917 116.836C13.0728 120.454 16.0278 123.345 19.6463 123.347H183.545C185.86 123.35 188.01 122.151 189.222 120.179C190.435 118.207 190.535 115.747 189.487 113.684H189.466Z" fill="#D76A99"/>
<path d="M180.048 123.348C180.024 123.36 25.0711 123.348 23.4851 123.348C23.4418 123.225 23.4514 123.675 23.4081 124.926C23.2516 138.387 22.3828 148.147 24.4357 157.701C30.0844 188.072 62.0603 195.227 89.8557 197.059C118.159 198.539 155.788 196.539 172.597 168.419C179.865 155.579 180.2 139.194 180.048 123.348V123.348Z" fill="#E6ACC2"/>
<path d="M180.024 123.348C169.87 123.23 159.326 123.416 149.052 123.396C163.011 144.561 156.951 172.566 135.962 185.261C116.152 196.756 82.3876 195.009 63.6608 186.282C43.2998 176.982 22.9316 152.02 23.3166 129.242C23.1578 145.719 21.9737 154.571 27.81 168.099C38.366 191.579 71.6632 196.499 95.1 197.286C124.544 198.222 161.184 194.142 174.701 163.904C180.089 151.454 180.185 137.093 180.024 123.348V123.348Z" fill="#E872AA"/>
<path d="M26.2335 143.276C25.5355 157.716 6.0578 157.182 5.5957 143.276C6.28884 128.847 25.7666 129.367 26.2335 143.276Z" fill="#E1F9F9"/>
<path d="M188.9 136.253C188.27 148.768 170.794 148.286 170.395 136.253C171.025 123.728 188.501 124.226 188.9 136.253Z" fill="#E1F9F9"/>
<path d="M32.6355 161.779C32.2625 154.958 22.8449 155.406 22.6716 161.779C23.0423 168.6 32.4622 168.152 32.6355 161.779Z" fill="#E1F9F9"/>
<path d="M21.2468 152.171C21.8293 163.295 37.2805 162.761 37.6126 152.171C37.035 141.047 21.5838 141.582 21.2468 152.171V152.171Z" fill="#E1F9F9"/>
<path d="M42.6378 134.474C39.3935 151.73 12.864 147.639 14.4958 130.686C17.7401 113.422 44.2672 117.516 42.6378 134.474Z" fill="#E1F9F9"/>
<path d="M55.4105 94.5226C54.6259 110.376 32.4574 109.841 31.9231 94.5226C32.7053 78.6718 54.8738 79.2061 55.4105 94.5226Z" fill="#E1F9F9"/>
<path d="M113.023 113.437C111.389 124.929 95.3742 122.96 96.0096 111.906C97.6462 100.414 113.658 102.383 113.023 113.437Z" fill="#E1F9F9"/>
<path d="M118.481 120.311C118.056 112.522 107.302 113.009 107.095 120.311C107.521 128.099 118.275 127.615 118.481 120.311Z" fill="#E1F9F9"/>
<path d="M199.945 125.127C199.11 142.381 174.915 141.875 174.323 125.127C175.155 107.873 199.345 108.378 199.945 125.127Z" fill="#E1F9F9"/>
<path d="M196.575 138.885C196.12 130.014 184.152 130.493 183.906 138.885C184.356 147.756 196.33 147.278 196.575 138.885Z" fill="#E1F9F9"/>
<path d="M37.6608 111.574C27.591 110.13 29.3455 96.123 38.9965 96.6885C49.0663 98.123 47.3118 112.137 37.6608 111.574Z" fill="#E1F9F9"/>
<path d="M56.4766 92.0318C55.8653 104.087 39.0639 103.584 38.6836 92.0318C39.2973 79.9788 56.0964 80.4818 56.4766 92.0318Z" fill="#E1F9F9"/>
<path d="M132.628 74.241C133.155 84.3974 147.273 83.904 147.574 74.241C147.052 64.0846 132.931 64.5755 132.628 74.241Z" fill="#E1F9F9"/>
<path d="M172.082 105.934C172.031 91.0124 172.178 75.4432 171.894 60.892C171.93 55.6285 173.423 46.7211 171.083 41.8282C166.563 33.5852 149.851 36.2302 144.226 42.4371C138.132 47.7175 138.792 55.7103 136.664 62.8728C133.016 76.0112 128.404 90.0112 122.262 101.506C127.921 104.764 141.735 109.506 172.082 105.934Z" fill="#FEFFFE"/>
<path d="M170.857 41.4192C168.794 37.8212 163.897 36.6996 159.304 36.6996C152.503 36.6611 146.409 39.335 142.171 44.6756C138.392 49.4433 138.744 55.0582 137.153 60.7766C151.396 58.7574 160.582 61.9945 170.857 41.4192V41.4192Z" fill="url(#paint0_linear_1_39235)"/>
<path d="M172.082 85.9786C172.034 77.8583 172.104 69.7427 171.901 61.6248C171.771 56.4672 173.637 46.3781 170.869 41.4082C167.81 57.6874 150.424 60.9774 137.175 60.7656C134.667 71.2397 130.879 81.3649 127.09 91.4226C125.75 94.9846 123.16 100.85 121.314 104.044C128.604 108.063 141.601 109.538 172.082 105.935C172.082 102.633 172.063 99.3336 172.068 96.0676L172.082 85.9786Z" fill="#FEFFFE"/>
<path d="M154.994 10.476C158.017 6.10059 165.343 0.413464 164.197 10.0621C163.432 16.3774 160.554 22.1776 156.785 27.1307C151.028 33.4002 149.358 25.0585 150.128 20.8034C150.751 17.121 152.792 13.6794 154.994 10.476V10.476Z" fill="#FEFFFE"/>
<path d="M143.877 27.1813C134.907 18.7842 158.005 7.6217 164.14 10.3485C166.977 13.2126 156.546 13.8239 161.406 21.4677C162.176 22.5146 163.122 22.789 164.323 23.3185C165.543 24.1777 165.449 26.1921 165.045 27.5736C162.987 31.4845 156.664 29.5639 153.656 29.5712C150.279 29.316 146.636 29.5832 143.877 27.1813V27.1813Z" fill="#D76A99"/>
<path d="M165.75 30.1584L151.625 27.7348L149.923 20.1055C165.242 27.9755 157.904 17.2968 165.75 30.1584V30.1584Z" fill="url(#paint1_linear_1_39235)"/>
<path d="M161.516 23.3207C157.172 23.4868 153.372 22.1968 149.921 20.1053L148.051 11.7227C150.401 12.6914 152.89 13.2835 155.425 13.4772L161.516 23.3207Z" fill="url(#paint2_linear_1_39235)"/>
<path d="M151.011 6.35938L155.425 13.4785C152.889 13.2826 150.401 12.688 148.051 11.7168L146.881 6.47249C148.258 6.54831 149.64 6.51048 151.011 6.35938V6.35938Z" fill="url(#paint3_linear_1_39235)"/>
<path d="M145.762 1.46074C146.546 -2.90749 150.335 5.81213 151.011 6.35846C149.64 6.51197 148.258 6.55222 146.881 6.47879L145.762 1.46074Z" fill="url(#paint4_linear_1_39235)"/>
<path opacity="0.15" d="M146.315 0.371094L157.199 29.3627C157.199 29.3627 151.644 27.7574 151.622 27.7477C151.6 27.7381 151.562 27.4758 151.456 27.0017C149.569 18.5323 148.602 14.2002 146.91 6.60695C147.1 6.46014 144.91 0.575667 146.315 0.371094V0.371094Z" fill="#482D58"/>
<path d="M110.508 24.067C97.0663 30.1729 113.697 46.3486 121.042 48.9262C123.336 40.4569 124.936 31.4076 127.023 22.7313C121.394 22.0309 115.644 21.8071 110.508 24.067Z" fill="#FFC6A4"/>
<path d="M171.201 44.2377C172.419 29.2437 158.85 27.0006 147.94 25.7804C141.863 25.0584 126.262 22.1847 126.963 23.0054C126.378 25.6143 121.793 46.0981 121.208 48.7094C129.632 54.0836 148.645 57.1859 160.811 53.2196C164.756 51.8791 170.814 49.0969 171.201 44.2377Z" fill="#FEFFFE"/>
<path d="M114.802 29.0261C113.851 32.9153 111.232 32.0417 111.947 28.4196C112.898 24.5303 115.524 25.4039 114.802 29.0261Z" fill="#252525"/>
<path d="M160.289 38.4748C159.177 42.8623 155.396 41.9116 155.957 37.8659C156.862 33.0236 161.146 34.0777 160.289 38.4748Z" fill="#252525"/>
<path d="M174.852 80.9936C186.234 91.0465 176.453 100.803 166.481 95.6145C170.684 92.4545 167.658 86.0814 167.475 82.1368C168.13 71.0947 170.667 76.1031 174.852 80.9936Z" fill="#A08EDD"/>
<path d="M195.069 60.291C189.976 59.3283 184.756 57.5112 180.712 53.8578C178.195 51.6388 168.693 43.4823 169.959 39.3066C165.516 53.0732 175.528 62.8012 185.362 68.6448C187.528 70.2597 190.236 72.6087 192.202 72.2549C196.457 71.4583 198.611 62.6616 195.069 60.291V60.291Z" fill="#F4DC62"/>
<path d="M192.493 81.7608C200.39 72.4853 191.331 70.0328 184.681 67.2867C178.33 64.1339 173.172 58.8631 169.875 52.2422C169.271 75.6188 184.775 77.3204 187.336 83.3806C187.928 86.2879 191.451 83.2314 192.493 81.7608V81.7608Z" fill="#A2E7DD"/>
<path d="M181.242 55.8369C184.907 59.1895 197.949 65.7912 197.23 54.2004C196.749 46.4507 186.554 45.0547 181.928 41.1197C180.64 40.0223 179.572 38.6504 178.289 37.5481C174.197 34.0247 167.971 33.2834 165.249 28.3809C164.866 36.2052 168.655 40.8791 172.785 45.8634C175.639 49.3026 178.034 52.7948 181.242 55.8369Z" fill="#DE8F24"/>
<path d="M184.816 30.7501C190.782 37.915 191.415 48.0955 197.191 49.8452C196.578 49.6527 194.944 50.4156 193.87 50.4926C189.516 49.9318 185.909 46.4012 183.126 43.0317C179.492 38.4589 175.278 35.4577 169.473 33.8139C167.906 33.258 166.494 32.6105 165.709 31.6118C161.437 25.7754 172.207 24.264 175.593 24.7598C179.281 25.2892 182.19 27.5155 184.816 30.7501V30.7501Z" fill="#E6ACC2"/>
<path d="M179.112 72.3613C186.222 77.0159 191.776 82.3107 185.8 89.8992C180.684 95.8414 178.879 92.2746 176.599 87.194C170.871 77.5671 164.948 70.9317 170.595 60.3926C172.248 65.8005 174.729 68.9774 179.112 72.3613Z" fill="#D76999"/>
<path d="M165.998 17.0596C182.968 -2.40614 173.252 34.2341 164.053 35.861C161.93 36.1498 161.439 33.9356 160.989 32.1258C159.832 26.636 162.782 21.6011 165.998 17.0596V17.0596Z" fill="#FEFFFE"/>
<path d="M164.648 28.9673C163.1 27.9493 163.81 25.6845 164.936 23.6725C170.828 12.6328 175.045 15.415 170.551 24.8446C168.917 28.5943 168.809 30.7339 164.648 28.9673Z" fill="url(#paint5_linear_1_39235)"/>
<path d="M132.535 109.764C131.812 124.426 111.663 123.909 111.184 109.764C111.899 95.1023 132.053 95.6198 132.535 109.764Z" fill="#E1F9F9"/>
<path d="M127.249 109.747C127.776 119.904 141.894 119.41 142.195 109.747C141.668 99.5787 127.557 100.072 127.249 109.747V109.747Z" fill="#E1F9F9"/>
<path d="M31.8292 93.0621C33.2419 94.535 33.9663 96.5302 34.5006 98.5037C35.1366 100.857 35.5777 103.259 35.8195 105.685C41.1144 107.173 49.2828 108.184 60.4357 106.066C57.8556 96.6914 53.8845 86.2293 46.8689 79.4279C37.4826 70.523 21.2491 71.8996 12.3201 81.0115C2.87127 90.7083 2.49582 108.107 3.97837 120.819C4.83276 122.61 6.9868 122.985 9.17693 122.841C10.1613 122.576 11.3863 123.081 11.5837 121.878C13.3478 116.217 12.8328 110.638 13.7738 104.809C15.4922 91.5819 26.2118 87.8467 31.8292 93.0621V93.0621Z" fill="white"/>
<path d="M5.20348 117.6C3.29253 117.929 0.594571 120.902 0.0891562 122.695C-1.0035 126.57 8.27207 124.765 10.1469 124.36C12.094 123.944 12.3419 122.394 11.4562 120.825C10.3009 118.779 7.59818 117.183 5.20348 117.6Z" fill="#D76A99"/>
<path d="M99.94 61.3125L99.7812 66.9058L94.8257 69.5628L94.9845 63.9695L99.94 61.3125Z" fill="#D36693"/>
<path d="M104.739 64.248L104.578 69.8413L99.6199 72.5008L99.7811 66.9051L104.739 64.248Z" fill="#9D91DD"/>
<path d="M104.898 58.6523L104.739 64.248L99.781 66.905L99.9398 61.3118L104.898 58.6523Z" fill="#99DFC6"/>
<path d="M109.853 55.9941L109.694 61.5874L104.739 64.2468L104.898 58.6512L109.853 55.9941Z" fill="#E5AEC5"/>
<path d="M109.694 61.5879L109.533 67.1836L104.578 69.8406L104.739 64.2473L109.694 61.5879Z" fill="#F4DB68"/>
<path d="M99.781 66.9043L99.6198 72.5L94.6643 75.157L94.8256 69.5613L99.781 66.9043Z" fill="#E5AEC5"/>
<path d="M94.7919 69.5623L94.6018 75.1556L89.8196 72.1929L90.0121 66.5996L94.7919 69.5623Z" fill="#E4962D"/>
<path d="M90.0122 66.5994L89.8196 72.1927L85.0422 69.2276L85.2324 63.6367L90.0122 66.5994Z" fill="#F4DB68"/>
<path d="M85.2324 63.637L85.0422 69.2278L80.2625 66.2651L80.4526 60.6719L85.2324 63.637Z" fill="#94DAC4"/>
<path d="M85.425 58.0408L85.2324 63.6365L80.4526 60.6714L80.6452 55.0781L85.425 58.0408Z" fill="#E4962D"/>
<path d="M94.9845 63.969L94.792 69.5623L90.0122 66.5996L90.2048 61.0039L94.9845 63.969Z" fill="#94DAC4"/>
<path d="M90.2047 61.0037L90.0122 66.5994L85.2324 63.6367L85.425 58.041L90.2047 61.0037Z" fill="#D36693"/>
<path opacity="0.16" d="M89.449 71.9417C89.4851 71.6313 91.3744 65.4315 95.0519 65.8551C100.643 62.8226 103.69 66.3846 104.561 69.8479C104.118 70.0356 94.5657 74.0741 89.449 71.9417V71.9417Z" fill="#2D5156"/>
<path d="M100.092 55.6697L95.1675 58.3292L90.3877 55.3665L95.3119 52.707L100.092 55.6697Z" fill="#FEFFFE"/>
<path d="M105.016 53.0139L100.092 55.671L95.3118 52.7083L100.236 50.0488L105.016 53.0139Z" fill="#FEFFFE"/>
<path d="M100.236 50.0486L95.3118 52.7081L90.532 49.7454L95.4562 47.0859L100.236 50.0486Z" fill="#FEFFFE"/>
<path d="M90.3876 55.367L85.4634 58.0264L80.6836 55.0613L85.6078 52.4043L90.3876 55.367Z" fill="#FEFFFE"/>
<path d="M95.3119 52.7068L90.3877 55.3663L85.6079 52.4036L90.5321 49.7441L95.3119 52.7068Z" fill="#FEFFFE"/>
<path d="M104.871 58.635L99.9473 61.2945L95.1675 58.3294L100.092 55.6699L104.871 58.635Z" fill="#FEFFFE"/>
<path d="M109.796 55.9764L104.871 58.6358L100.092 55.6707L105.016 53.0137L109.796 55.9764Z" fill="#FEFFFE"/>
<path d="M95.1674 58.3299L90.2408 60.9893L85.4634 58.0266L90.3876 55.3672L95.1674 58.3299Z" fill="#FEFFFE"/>
<path d="M99.9471 61.2952L95.0229 63.9522L90.2407 60.9895L95.1673 58.3301L99.9471 61.2952Z" fill="#FEFFFE"/>
<path opacity="0.16" d="M105.016 53.0122C102.717 51.7077 96.9844 47.7968 95.3479 47.1445L80.6836 55.0603L95.0157 63.9484C94.9098 64.0567 97.7618 62.449 99.2083 61.6909C100.005 61.2552 104.984 58.591 106.277 57.869L108.443 55.1373L105.016 53.0122Z" fill="#2D5156"/>
<path opacity="0.16" d="M95.0229 63.9519L80.3899 62.6402L80.8159 55.2539L95.0229 63.9519Z" fill="#2D5156"/>
<path d="M94.722 41.675L91.9928 45.3597L86.9146 44.0649C91.5235 39.3236 89.29 40.7484 94.722 41.675V41.675Z" fill="#97DCC4"/>
<path d="M101.762 43.2329L98.9219 47.1054L91.9929 45.3605L94.7655 41.6758L101.762 43.2329Z" fill="#D06591"/>
<path d="M108.84 44.8398C108.9 52.1972 109.112 49.7279 105.837 54.4114C105.776 47.054 105.565 49.5234 108.84 44.8398Z" fill="#99DFC6"/>
<path d="M108.84 44.8401L105.853 48.8473L98.9219 47.1049L101.762 43.2324L108.84 44.8401Z" fill="#9B8FDA"/>
<path d="M91.9929 45.3594L89.0037 49.369L82.9893 47.8191L86.8304 44.1055L91.9929 45.3594Z" fill="#E2ACC3"/>
<path d="M98.9218 47.1043L95.9351 51.1115L89.0037 49.369L91.9928 45.3594L98.9218 47.1043Z" fill="#97DCC4"/>
<path d="M105.853 48.8574C105.913 56.2172 106.123 53.7479 102.85 58.4314C102.787 51.062 102.578 53.5313 105.853 48.8574Z" fill="#E5AEC5"/>
<path d="M105.853 48.8479L102.864 52.8576L95.9351 51.1127L98.9218 47.1055L105.853 48.8479Z" fill="#E1942C"/>
<path d="M89.0037 49.3684L86.0169 53.3756L79.0879 51.6331L82.9483 47.8594L89.0037 49.3684Z" fill="#9B8FDA"/>
<path d="M86.0169 53.3772L86 58.9416L79.071 57.1991L79.0879 51.6348L86.0169 53.3772Z" fill="#F1D867"/>
<path d="M95.935 51.1116L92.9458 55.1212L86.0168 53.3764L89.0036 49.3691L95.935 51.1116Z" fill="#F1D867"/>
<path d="M92.9458 55.1218L92.9314 60.6862L86 58.9413L86.0168 53.377L92.9458 55.1218Z" fill="#99DFC6"/>
<path d="M99.8773 56.8636L99.8604 62.428L92.9314 60.6855L92.9458 55.1211L99.8773 56.8636Z" fill="#D36693"/>
<path d="M102.864 52.8562L99.8775 56.8634L92.946 55.121L95.9352 51.1113L102.864 52.8562Z" fill="#E2ACC3"/>
<path d="M99.8606 62.429L102.85 58.4218L102.864 52.8574L99.8774 56.8646L99.8606 62.429Z" fill="#9D91DD"/>
<path d="M107.822 97.0969C103.793 90.2786 104.761 84.6059 105.206 78.0283C106.272 68.4567 100.963 66.6733 98.0194 71.5903C95.5236 76.4326 95.5766 82.1799 95.0206 87.1571C94.9532 90.3171 94.573 98.0548 96.1037 97.8406C98.8161 98.5578 103.596 99.1041 107.822 97.0969Z" fill="#FEFFFE"/>
<path d="M98.0049 66.3725C95.3863 66.1968 90.8978 69.2389 89.6607 71.4267C86.9892 76.1655 99.7305 76.7552 102.332 76.825C105.021 76.8996 105.841 74.9429 105.182 72.6012C104.318 69.5542 101.28 66.5939 98.0049 66.3725V66.3725Z" fill="#D76A99"/>
<path d="M29.0759 109.469C29.603 99.3122 43.7209 99.8056 44.0218 109.469C43.4947 119.615 29.3792 119.134 29.0759 109.469V109.469Z" fill="#E1F9F9"/>
<path d="M39.7112 102.566C40.2551 92.9008 55.3309 93.3653 55.6414 102.566C55.1143 112.232 40.0265 111.767 39.7112 102.566V102.566Z" fill="#E1F9F9"/>
<path d="M194.275 111.89C191.868 128.496 164.787 125.579 165.596 109.312C168.003 92.7032 195.083 95.625 194.275 111.89Z" fill="#E1F9F9"/>
</g>
<defs>
<linearGradient id="paint0_linear_1_39235" x1="137.951" y1="48.398" x2="170.246" y2="50.4355" gradientUnits="userSpaceOnUse">
<stop stop-color="#FEB6BA"/>
<stop offset="0.62" stop-color="#E998A6"/>
<stop offset="1" stop-color="#E08C9E"/>
</linearGradient>
<linearGradient id="paint1_linear_1_39235" x1="167.795" y1="24.4743" x2="153.433" y2="26.0701" gradientUnits="userSpaceOnUse">
<stop stop-color="#F3B0BB"/>
<stop offset="0.66" stop-color="#E596A6"/>
<stop offset="1" stop-color="#E0778E"/>
</linearGradient>
<linearGradient id="paint2_linear_1_39235" x1="163.511" y1="16.4338" x2="151.58" y2="17.7595" gradientUnits="userSpaceOnUse">
<stop offset="0.01" stop-color="#FFE55A"/>
<stop offset="1" stop-color="#FFB95A"/>
</linearGradient>
<linearGradient id="paint3_linear_1_39235" x1="157.734" y1="9.13205" x2="150.129" y2="9.97712" gradientUnits="userSpaceOnUse">
<stop stop-color="#EAC2D9"/>
<stop offset="1" stop-color="#9A78D1"/>
</linearGradient>
<linearGradient id="paint4_linear_1_39235" x1="151.908" y1="2.34402" x2="148.654" y2="2.70557" gradientUnits="userSpaceOnUse">
<stop stop-color="#81FCD0"/>
<stop offset="0.28" stop-color="#72F1DE"/>
<stop offset="0.56" stop-color="#68EAE8"/>
<stop offset="1" stop-color="#68C7E8"/>
</linearGradient>
<linearGradient id="paint5_linear_1_39235" x1="168.543" y1="18.2753" x2="165.741" y2="31.4211" gradientUnits="userSpaceOnUse">
<stop stop-color="#F3B0BB"/>
<stop offset="0.66" stop-color="#E596A6"/>
<stop offset="1" stop-color="#E0778E"/>
</linearGradient>
<clipPath id="clip0_1_39235">
<rect width="200" height="211" fill="white"/>
</clipPath>
</defs>
</svg>
