<svg width="200" height="224" viewBox="0 0 200 224" fill="none" xmlns="http://www.w3.org/2000/svg">
<path d="M195.334 158.147C204.161 150.783 198.984 136.288 187.43 136.288C177.534 136.288 171.735 147.335 177.115 155.456L168.116 155.492C167.329 146.457 158.575 139.635 149.932 141.043C149.397 138.034 148.419 135.804 147.032 133.835C156.333 129.043 164.101 120.876 168.023 111.824C173.319 110.518 177.029 107.678 176.063 105.547C174.737 103.222 169.594 103.295 168.545 102.165C168.502 100.039 166.825 98.2456 167.894 97.1006C173.987 86.9921 170.444 85.4234 161.428 90.6239C160.812 91.088 159.349 89.837 158.242 89.7412C157.1 89.2216 155.579 89.8068 155.299 88.5962C151.95 81.1863 147.243 80.18 145.894 89.658C145.675 90.4676 146.255 91.0401 145.291 91.4032C133.418 98.6517 132.366 111.025 120.969 120.304C107.957 105.497 93.8437 82.5785 97.7655 63.9909C114.742 74.3314 157.382 84.117 164.749 76.5129C178.116 63.4739 179.155 24.3616 160.568 15.1309C157.185 13.1863 152.979 14.4751 149.975 12.8383C144.361 10.2834 142.497 5.07537 139.281 1.51421C131.783 -4.97759 129.382 15.8118 124.762 11.7084C109.586 2.90387 109.894 -9.38364 100.214 15.6C99.4578 17.3932 98.7416 18.75 98.0026 19.2595C94.8904 21.1107 87.3696 16.7803 84.4717 15.0703C78.3683 11.7135 68.3809 6.7475 66.2296 13.7412C64.676 18.8433 68.8172 27.8219 68.4364 34.0867C68.2876 36.861 67.1602 39.0729 64.4768 40.1397C56.4288 43.3805 39.7479 42.914 46.966 53.0451C50.5196 58.3591 56.7037 62.8484 59.7681 67.7462C68.6609 83.1611 40.8248 84.7425 38.9206 93.5697C38.9206 107.295 73.6773 105.774 48.1968 136.175C46.903 133.63 43.4679 131.03 44.2775 130.14C46.4692 125.812 46.6785 121.027 45.3797 117.913C44.5423 116.109 39.0972 119.403 37.8689 120.183C36.6911 120.637 35.6596 122.238 34.8425 121.961C33.5814 120.934 32.0379 119.729 30.4515 118.594C28.6508 117.65 29.2662 117.272 29.2813 115.547C29.3544 112.036 28.5953 107.817 27.1653 107.439C24.4818 107.648 21.135 112.929 19.8034 112.79C15.1401 110.858 14.9635 110.758 13.8387 110.352C13.3343 108.364 12.3582 104.828 11.0644 104.538C10.0102 103.782 7.30147 107.398 6.4818 108.498C-0.791843 107.504 -1.22816 112.521 1.68987 114.644C14.7466 122.689 22.1186 132.261 26.2573 143.577C27.2157 145.716 30.5852 156.543 26.9862 156.039C12.8626 155.454 9.38722 164.223 13.6596 169.555C15.7933 171.774 18.2624 171.375 21.9824 171.678C22.8046 171.703 23.5562 171.716 24.391 171.731C24.4944 172.642 24.6735 173.94 24.8727 175.075C25.5158 179.323 27.7327 186.964 30.5524 191.63C35.8765 200.78 43.3317 203.517 52.0505 205.55C48.7416 214.324 45.1804 221.998 48.0354 223.204C51.5259 224.417 65.9774 210.652 68.5348 208.122C86.6785 209.991 124.941 210.79 144.805 208.326C147.846 211.186 159.65 222.198 163.655 223.121C168.555 224.084 163.518 212.876 160.701 205.111C164.197 204.021 168.056 202.397 170.9 200.089C178.605 193.421 184.308 181.365 185.478 171.567C191.884 171.315 194.557 170.911 196.716 168.036C199.173 164.773 198.406 160.864 195.334 158.147V158.147Z" fill="white"/>
<path d="M48.5499 221.908C48.5409 221.911 48.5311 221.911 48.5221 221.908C47.6117 220.357 49.8967 214.462 51.5234 210.054C52.2472 208.16 52.8828 206.594 53.188 205.789C58.053 206.823 63.7353 207.582 65.7706 207.807C58.7643 215.196 49.8689 222.447 48.5499 221.908Z" fill="#441B17"/>
<path d="M164.343 222.001C163.009 222.642 153.935 215.648 146.89 208.029C151.105 207.475 155.275 206.625 159.37 205.484C160.363 208.014 166.008 221.29 164.343 222.001V222.001Z" fill="#441B17"/>
<path d="M170.182 196.838C156.792 210.331 99.1981 207.544 78.4843 207.035C46.4541 204.777 29.8588 202.641 26.8677 171.751C42.4667 171.97 180.356 171.685 182.28 171.635C180.933 182.525 174.068 193.524 170.182 196.838Z" fill="#E48AAE"/>
<path d="M195.576 167.116C192.744 170.551 191.132 169.87 145.892 169.785C9.54358 169.532 17.9597 170.392 15.5663 169.28C12.6835 167.739 11.995 163.018 15.5511 159.603C16.8424 158.594 18.3985 157.704 21.8992 157.162C28.5448 156.13 189.569 157.462 190.013 157.537C195.743 158.481 198.235 163.959 195.576 167.116V167.116Z" fill="#E48AAE"/>
<path d="M189.382 113.678C198.179 114.144 197.687 126.339 189.382 126.581C180.58 126.117 181.085 113.922 189.382 113.678Z" fill="#A2D5E4"/>
<path d="M168.035 137.958C162.843 137.662 163.261 130.533 168.035 130.414C173.231 130.719 172.817 137.854 168.035 137.958Z" fill="#A2D5E4"/>
<path d="M120.028 110.109C109.892 109.569 110.431 95.5211 120.028 95.2285C130.164 95.7682 129.634 109.816 120.028 110.109Z" fill="#A2D5E4"/>
<path d="M175.766 148.395C175.766 142.092 180.875 136.982 187.178 136.982C197.983 136.982 202.681 150.634 194.285 157.325C190.991 155.056 186.681 155.414 178.204 155.446C176.621 153.437 175.762 150.953 175.766 148.395V148.395Z" fill="#A2D5E4"/>
<path d="M33.8564 151.308L34.3154 151.33C33.8716 143.764 42.9611 141.315 47.0292 147.58C49.1427 140.566 59.1931 137.202 65.9094 145.02C68.4996 148.284 68.2776 151.956 68.5777 155.529C69.4781 152.276 70.0305 148.004 72.497 145.383C78.0683 139.363 86.2499 142.228 89.8514 147.257C89.9876 139.005 96.7165 131.827 105.993 133.32C111.715 134.473 114 139.002 115.483 141.272C116.121 137.994 116.769 134.523 118.989 132.331C127.967 122.977 148.497 126.627 148.389 143.502C149.619 143.033 152.073 141.88 155.829 142.7C161.796 144.006 166.674 149.431 166.553 155.504C117.957 155.696 31.0216 156.135 28.666 156.031C28.9157 153.169 31.41 151.184 33.8564 151.308V151.308Z" fill="#A2D5E4"/>
<path d="M59.1376 120.83C60.4566 111.985 56.2195 108.354 49.8387 104.016C44.8198 100.432 38.8652 96.5352 40.6231 92.9185C41.5865 90.8605 44.6231 89.1733 48.154 87.3448C65.8311 79.0497 66.7088 71.708 54.8425 60.1342C51.1426 56.0787 42.2952 48.4242 49.0922 45.9022C54.0152 43.597 63.9724 43.3675 67.6168 40.2628C75.1577 33.6499 63.3847 14.1972 70.164 12.4419C73.3166 11.1607 83.1451 16.8984 88.0354 19.5213C102.598 26.0964 100.436 17.0144 105.158 6.93116C106.038 4.98664 108.151 1.20606 110.177 1.87189C112.179 2.44944 113.808 4.1821 115.924 6.2275C119.145 9.00178 126.222 17.5289 129.221 11.5516C132.028 7.23633 133.385 1.14806 137.155 1.44818C143.354 5.20354 141.382 9.20859 149.708 13.8467C122.414 15.6676 86.6306 30.167 83.2813 32.6689C78.4541 36.7042 74.2019 46.288 72.0405 52.2098C59.2813 90.2325 67.0468 116.866 63.7857 141.315C59.9296 138.727 54.9752 138.43 50.8374 140.538C50.4339 139.781 50.0077 139.042 49.5764 138.311C53.5007 132.457 57.9673 127.935 59.1376 120.83V120.83Z" fill="#E48AAE"/>
<path d="M175.758 106.373C175.337 108.167 171.859 110.157 167.99 110.913C168.754 108.434 168.99 105.822 168.681 103.246C171.604 103.428 176.141 104.752 175.758 106.373Z" fill="#E48AAE"/>
<path d="M170.076 88.5104C171.228 90.3893 168.331 95.0274 166.946 96.9089C165.834 94.5492 164.047 92.5726 161.811 91.2292C164.495 89.0854 169.251 87.3553 170.076 88.5104Z" fill="#E48AAE"/>
<path d="M149.306 83.3132C150.752 82.8719 153.37 85.5503 154.684 89.1871C151.713 88.996 148.745 89.6057 146.091 90.9526C146.192 87.6083 147.854 83.7521 149.306 83.3132V83.3132Z" fill="#E48AAE"/>
<path d="M43.0493 118.224C47.1603 116.06 45.1906 127.808 43.3016 129.846C40.9511 127.279 38.4227 124.881 35.7354 122.67C37.8442 120.704 40.3333 119.191 43.0493 118.224V118.224Z" fill="#E48AAE"/>
<path d="M26.7667 108.067C28.0479 107.641 28.8273 113.502 28.3203 117.124C25.9625 115.62 23.4801 114.322 20.9004 113.242C22.0303 111.762 25.0013 108.584 26.7667 108.067Z" fill="#E48AAE"/>
<path d="M10.908 104.992C11.7908 105.521 12.6735 107.635 12.8198 109.97C10.9753 109.335 9.07798 108.864 7.15015 108.565C8.53224 106.245 10.2725 104.5 10.908 104.992Z" fill="#E48AAE"/>
<path d="M166.267 107.512C166.674 110.539 160.215 111.714 159.274 109.124C158.358 105.928 165.645 104.581 166.267 107.512Z" fill="#E8A3B9"/>
<path d="M162.651 95.3345C164.772 97.5287 160.265 102.311 157.975 100.777C155.334 98.7393 160.404 93.3421 162.651 95.3345Z" fill="#E8A3B9"/>
<path d="M156.583 102.729C160.681 107.69 153.153 114.091 148.961 109.842C144.86 104.878 152.394 98.4796 156.583 102.729Z" fill="#E8A3B9"/>
<path d="M152.638 95.913C152.482 100.69 148.383 100.561 148.045 96.2636C147.899 91.0631 152.547 91.1867 152.638 95.913Z" fill="#E8A3B9"/>
<path d="M127.488 60.6062C126.938 65.1939 107.029 64.9417 106.479 60.7248C106.547 55.9908 127.364 56.2431 127.488 60.6062Z" fill="#E8A3B9"/>
<path d="M47.8866 177.961C44.6836 170.834 34.0808 172.718 34.7441 175.871C35.2486 176.655 36.2422 176.168 37.1477 176.087C47.6344 173.061 49.2965 185.091 42.2347 185.081C32.1666 182.37 42.4037 175.921 43.9068 180.847C43.8463 183.555 39.415 182.715 40.9863 180.314C40.3759 180.004 39.8059 181.308 39.9774 181.739C42.8425 187.52 49.0922 177.414 40.3835 177.936C34.0934 178.693 35.9245 185.109 40.4188 186.541C46.0758 188.68 49.9774 182.758 47.8866 177.961Z" fill="white"/>
<path d="M72.6911 186.42C70.9534 185.547 71.0391 187.573 72.116 188.569C76.7314 195.706 69.6394 203.479 62.7138 199.497C57.9445 196.526 59.6419 188.561 65.0542 188.125C69.768 187.807 71.995 193.303 68.5095 195.943C66.1211 197.843 62.0328 195.187 63.1022 192.276C65.5158 187.421 70.6204 193.815 65.9294 194.415C64.5095 193.785 65.2938 193.21 65.9597 192.1C65.4931 191.795 64.6986 192.536 64.5952 192.824C63.9924 196.95 70 195.129 68.4666 191.598C66.2547 186.597 60.3481 190.491 61.7301 194.735C63.9849 200.463 71.6898 198.218 71.7024 192.751C71.8562 190.188 69.937 187.754 67.536 186.95C60.2926 184.68 55.6419 193.305 59.4956 198.839C68.1639 209.363 81.6167 195.414 72.6911 186.42V186.42Z" fill="white"/>
<path d="M106.641 173.482C104.018 174.3 108.956 177.064 109.261 178.073C112.431 182.917 108.169 188.713 103.13 188.61C93.6874 187.853 97.251 176.842 105.236 178.9C110.409 180.486 107.652 184.953 103.924 185.528C100.966 186.055 99.5486 182.975 101.816 181.255C103.006 180.247 105.062 181.2 104.958 182.706C104.542 184.358 102.401 183.545 102.673 182.065C102.689 181.916 102.825 181.667 102.517 181.954C101.904 182.474 101.977 183.137 102.409 183.687C102.798 184.163 103.393 184.422 104.006 184.384C104.62 184.346 105.178 184.015 105.506 183.495C107.168 180.083 102.517 178.295 100.381 180.496C97.8841 182.902 99.4452 186.65 102.58 187.054C108.855 187.629 112.605 180.37 106.421 177.424C95.42 173.359 90.6785 188.794 102.169 190.514C114.578 191.397 114.729 174.713 106.641 173.482V173.482Z" fill="white"/>
<path d="M136.87 183.594C133.718 183.871 139.195 187.727 139.248 188.918C142.05 194.572 137.092 200.504 131.551 199.692C123.821 198.522 124.651 187.228 132.441 188.229C136.794 188.946 137.516 194.663 133.932 196.582C130.578 198.456 126.938 194.373 129.897 192.043C131.982 190.744 133.987 193.099 132.615 194.875C131.607 195.934 129.705 195.059 130.129 193.553C130.288 192.708 129.314 194.474 129.576 194.814C130.005 197.004 133.107 196.693 133.982 194.832C135.417 192.156 132.431 189.359 129.599 190.408C125.44 192.012 127.158 198.26 131.286 198.661C138.018 199.314 140.209 190.925 135.259 187.415C124.308 181.538 119.342 198.343 130.103 201.538C142.04 204.711 146.83 187.574 136.87 183.594V183.594Z" fill="white"/>
<path d="M169.231 180.962C168.726 174.276 161.344 172.763 161.665 175.451C161.879 176.16 162.169 176.226 162.926 176.513C171.148 179.204 166.061 188.917 159.261 188.417C153.778 187.752 153.286 177.691 159.829 178.665C166.931 179.227 163.468 187.562 158.88 184.382C156.689 181.792 160.938 179.391 161.697 182.458C161.781 183.091 161.445 183.139 160.537 182.264C161.17 181.323 159.622 181.603 159.392 182.291C158.888 183.26 159.922 184.599 161.158 184.4C165.211 182.526 160.714 177.605 157.879 180.112C154.212 183.784 158.964 188.435 162.895 186.417C168.26 183.514 165.178 176.887 160.051 176.665C150.81 175.598 151.523 186.909 156.595 189.731C162.169 192.47 169.763 187.28 169.231 180.962V180.962Z" fill="white"/>
<path d="M132.943 138.355C130.9 136.493 128.106 139.23 129.962 141.336C132.005 143.195 134.8 140.461 132.943 138.355Z" fill="white"/>
<path d="M125.135 148.932C122.903 148.932 122.901 152.399 125.135 152.399C127.37 152.399 127.365 148.932 125.135 148.932Z" fill="white"/>
<path d="M107.602 141.467C106.182 140.085 103.889 142.108 105.344 143.737C106.764 145.104 109.054 143.082 107.602 141.467Z" fill="white"/>
<path d="M99.0948 150.014C98.4088 148.753 96.2827 149.6 97.0191 151.126C97.579 152.357 99.8741 151.577 99.0948 150.014Z" fill="white"/>
<path d="M80.9586 147.099C79.3066 146.091 77.5361 148.545 79.2612 149.654C80.8401 150.729 82.7694 148.313 80.9586 147.099Z" fill="white"/>
<path d="M60.5827 146.395C59.8588 144.665 57.1047 145.931 58.1564 147.717C58.961 149.056 61.2485 148.012 60.5827 146.395Z" fill="white"/>
<path d="M50.8829 151.65C50.0254 150.152 47.2637 152.036 49.4377 153.224C50.1464 153.426 51.4831 152.785 50.8829 151.65Z" fill="white"/>
<path d="M40.1413 149.835C38.8802 149.787 38.6633 151.908 40.1413 152.001C41.4149 152.047 41.6142 149.926 40.1413 149.835Z" fill="white"/>
<path d="M146.825 149.479C144.974 149.479 144.971 152.356 146.825 152.356C148.679 152.356 148.679 149.479 146.825 149.479Z" fill="white"/>
<path d="M156.981 148.046C156.207 147.241 154.51 148.866 155.72 149.663C156.499 150.013 157.723 148.919 156.981 148.046Z" fill="white"/>
<path d="M186.066 142.196C184.553 140.759 182.283 142.887 183.753 144.509C185.266 145.947 187.531 143.815 186.066 142.196Z" fill="white"/>
<path d="M194.136 143.959C193.127 142.968 190.943 144.151 192.119 145.725C193.206 146.973 195.387 145.354 194.136 143.959Z" fill="white"/>
<path d="M187.682 148.43C185.781 148.43 185.778 151.386 187.682 151.386C189.586 151.386 189.586 148.43 187.682 148.43Z" fill="white"/>
<path d="M167.758 133.984C166.467 134.012 166.348 136.055 167.758 136.211C168.979 136.194 169.196 134.065 167.758 133.984Z" fill="white"/>
<path d="M192.041 118.129C192.013 117.078 190.232 116.947 190.389 118.414C190.49 119.413 192.164 119.358 192.041 118.129Z" fill="white"/>
<path d="M186.674 122.037C185.534 122.037 185.531 123.803 186.674 123.803C187.816 123.803 187.816 122.037 186.674 122.037Z" fill="white"/>
<path d="M121.117 98.3168C120.162 97.2374 118.187 98.5892 119.445 99.9889C120.389 100.922 122.212 99.7039 121.117 98.3168Z" fill="white"/>
<path d="M124.545 105.772C124.56 104.629 122.419 104.231 122.326 105.772C122.27 106.959 124.424 107.27 124.545 105.772Z" fill="white"/>
<path d="M117.317 105.572C117.08 105.59 116.896 105.787 116.896 106.025C116.896 106.263 117.08 106.46 117.317 106.478C117.554 106.46 117.737 106.263 117.737 106.025C117.737 105.787 117.554 105.59 117.317 105.572Z" fill="white"/>
<path d="M195.334 158.147C204.161 150.783 198.984 136.288 187.43 136.288C177.534 136.288 171.735 147.335 177.115 155.456L168.116 155.492C167.329 146.457 158.575 139.635 149.932 141.043C149.397 138.034 148.419 135.804 147.032 133.835C156.333 129.043 164.101 120.876 168.023 111.824C173.319 110.518 177.029 107.678 176.063 105.547C174.737 103.222 169.594 103.295 168.545 102.165C168.502 100.039 166.825 98.2456 167.894 97.1006C173.987 86.9921 170.444 85.4234 161.428 90.6239C160.812 91.088 159.349 89.837 158.242 89.7412C157.1 89.2216 155.579 89.8068 155.299 88.5962C151.95 81.1863 147.243 80.18 145.894 89.658C145.675 90.4676 146.255 91.0401 145.291 91.4032C133.418 98.6517 132.366 111.025 120.969 120.304C107.957 105.497 93.8437 82.5785 97.7655 63.9909C114.742 74.3314 157.382 84.117 164.749 76.5129C178.116 63.4739 179.155 24.3616 160.568 15.1309C157.185 13.1863 152.979 14.4751 149.975 12.8383C144.361 10.2834 142.497 5.07537 139.281 1.51421C131.783 -4.97759 129.382 15.8118 124.762 11.7084C109.586 2.90387 109.894 -9.38364 100.214 15.6C99.4578 17.3932 98.7416 18.75 98.0026 19.2595C94.8904 21.1107 87.3696 16.7803 84.4717 15.0703C78.3683 11.7135 68.3809 6.7475 66.2296 13.7412C64.676 18.8433 68.8172 27.8219 68.4364 34.0867C68.2876 36.861 67.1602 39.0729 64.4768 40.1397C56.4288 43.3805 39.7479 42.914 46.966 53.0451C50.5196 58.3591 56.7037 62.8484 59.7681 67.7462C68.6609 83.1611 40.8248 84.7425 38.9206 93.5697C38.9206 107.295 73.6773 105.774 48.1968 136.175C46.903 133.63 43.4679 131.03 44.2775 130.14C46.4692 125.812 46.6785 121.027 45.3797 117.913C44.5423 116.109 39.0972 119.403 37.8689 120.183C36.6911 120.637 35.6596 122.238 34.8425 121.961C33.5814 120.934 32.0379 119.729 30.4515 118.594C28.6508 117.65 29.2662 117.272 29.2813 115.547C29.3544 112.036 28.5953 107.817 27.1653 107.439C24.4818 107.648 21.135 112.929 19.8034 112.79C15.1401 110.858 14.9635 110.758 13.8387 110.352C13.3343 108.364 12.3582 104.828 11.0644 104.538C10.0102 103.782 7.30147 107.398 6.4818 108.498C-0.791843 107.504 -1.22816 112.521 1.68987 114.644C14.7466 122.689 22.1186 132.261 26.2573 143.577C27.2157 145.716 30.5852 156.543 26.9862 156.039C12.8626 155.454 9.38722 164.223 13.6596 169.555C15.7933 171.774 18.2624 171.375 21.9824 171.678C22.8046 171.703 23.5562 171.716 24.391 171.731C24.4944 172.642 24.6735 173.94 24.8727 175.075C25.5158 179.323 27.7327 186.964 30.5524 191.63C35.8765 200.78 43.3317 203.517 52.0505 205.55C48.7416 214.324 45.1804 221.998 48.0354 223.204C51.5259 224.417 65.9774 210.652 68.5348 208.122C86.6785 209.991 124.941 210.79 144.805 208.326C147.846 211.186 159.65 222.198 163.655 223.121C168.555 224.084 163.518 212.876 160.701 205.111C164.197 204.021 168.056 202.397 170.9 200.089C178.605 193.421 184.308 181.365 185.478 171.567C191.884 171.315 194.557 170.911 196.716 168.036C199.173 164.773 198.406 160.864 195.334 158.147V158.147ZM175.766 148.394C175.766 142.092 180.875 136.982 187.178 136.982C197.982 136.982 202.681 150.634 194.285 157.325C190.991 155.055 186.681 155.413 178.204 155.446C176.621 153.437 175.761 150.953 175.766 148.394V148.394ZM175.766 106.374C175.344 108.167 171.866 110.157 167.998 110.914C168.762 108.435 168.997 105.823 168.689 103.247C171.604 103.428 176.141 104.753 175.758 106.374H175.766ZM170.083 88.5104C171.236 90.3894 168.338 95.0274 166.953 96.9089C165.842 94.5493 164.054 92.5726 161.818 91.2292C164.494 89.0855 169.251 87.3553 170.076 88.5104H170.083ZM149.307 83.3124C150.752 82.8711 153.37 85.5495 154.684 89.1863C151.713 88.9952 148.745 89.6049 146.091 90.9518C146.192 87.6075 147.854 83.7513 149.307 83.3124V83.3124ZM139.281 98.4045C157.102 74.9064 185.284 104.046 153.682 128.084C153.178 128.208 146.116 134.112 145.445 131.956C141.319 127.802 134.22 125.428 126.615 126.911C124.545 124.541 123.551 123.381 123.019 122.747C132.759 112.891 133.551 106.12 139.289 98.4045H139.281ZM158.134 15.7462C170.103 19.5747 178.467 42.1195 168.499 64.8585C167.274 67.7059 165.337 71.2519 163.148 73.4335C161.755 74.8257 160.928 75.1157 159.339 75.489C151.521 77.0628 122.86 73.7563 100.469 63.4814C95.9118 61.2116 91.9976 53.2998 93.531 47.9909C95.1148 47.774 96.8626 48.0338 98.6533 48.7752C95.9118 46.6945 91.4024 45.4663 88.6609 50.9518C89.7644 49.3644 91.473 48.3017 93.3847 48.0136C91.4477 52.2683 93.2409 59.1939 96.4112 62.856C90.1766 85.5546 110.076 113.34 122.641 128.089C118.502 129.84 115.975 132.584 114.522 136.243C105.294 127.03 92.0102 132.621 88.3607 142.352C81.5512 137.396 71.8311 140.082 69.0467 147.847C68.4621 146.265 67.5794 144.809 66.4465 143.56C68.9887 123.557 63.6445 99.1409 68.0732 73.4638C71.821 51.3578 79.8059 37.832 84.3153 34.0489C86.333 32.5357 107.433 23.7311 123.897 19.716C130.613 18.0741 151.488 13.5672 158.134 15.7462V15.7462ZM59.1375 120.831C60.4566 111.986 56.2195 108.354 49.8387 104.016C44.8198 100.432 38.8652 96.5356 40.623 92.919C41.5865 90.861 44.623 89.1737 48.1539 87.3452C65.8311 79.0501 66.7088 71.7084 54.8425 60.1346C51.1426 56.0792 42.2952 48.4247 49.0921 45.9026C54.0152 43.5974 63.9723 43.3679 67.6167 40.2633C75.1577 33.6504 63.3847 14.1977 70.164 12.4423C73.3166 11.1611 83.1451 16.8988 88.0354 19.5218C102.598 26.0968 100.436 17.0148 105.158 6.93162C106.038 4.9871 108.151 1.20652 110.177 1.87235C112.179 2.4499 113.808 4.18256 115.924 6.22796C119.145 9.00223 126.222 17.5293 129.221 11.552C132.028 7.23679 133.385 1.14851 137.155 1.44864C143.354 5.204 141.382 9.20904 149.708 13.8471C122.414 15.6681 86.6306 30.1674 83.2813 32.6693C78.4541 36.7046 74.2018 46.2885 72.0404 52.2103C59.2813 90.233 67.0467 116.866 63.7857 141.315C59.9296 138.728 54.9752 138.431 50.8374 140.538C50.4339 139.782 50.0077 139.043 49.5764 138.311C53.5007 132.457 57.9673 127.935 59.1375 120.831V120.831ZM43.0493 118.223C47.1602 116.059 45.1905 127.807 43.3015 129.845C40.951 127.278 38.4227 124.88 35.7353 122.669C37.8441 120.703 40.3332 119.19 43.0493 118.223ZM26.7668 108.067C28.048 107.64 28.8273 113.502 28.3204 117.123C25.9625 115.62 23.4801 114.321 20.9005 113.242C22.0304 111.761 25.0013 108.584 26.7668 108.067V108.067ZM10.908 104.992C11.7908 105.522 12.6735 107.635 12.8198 109.971C10.9754 109.335 9.07798 108.865 7.15015 108.566C8.53224 106.246 10.2725 104.5 10.908 104.992ZM24.4364 134.884C17.8488 123.378 9.74788 118.538 2.12367 113.494C1.41497 112.899 1.06692 112.357 1.09971 111.729C1.50072 105.996 16.2498 112.283 18.7037 113.383C32.6003 119.212 44.106 130.75 49.4225 141.353C47.594 142.208 46.7794 144.922 45.8109 143.961C40.7668 141.439 34.681 143.628 33.4351 149.58C33.3948 151.02 31.5739 150.712 30.7542 151.648C29.8715 145.963 27.6193 140.967 24.4364 134.884V134.884ZM33.8563 151.307L34.3153 151.33C33.8715 143.764 42.961 141.315 47.0291 147.58C49.1426 140.566 59.193 137.201 65.9093 145.02C68.4995 148.283 68.2775 151.956 68.5776 155.529C69.478 152.276 70.0304 148.004 72.4969 145.383C78.0682 139.363 86.2498 142.228 89.8513 147.257C89.9875 139.005 96.7163 131.827 105.993 133.32C111.715 134.473 114 139.002 115.483 141.272C116.121 137.993 116.769 134.523 118.989 132.331C127.967 122.977 148.497 126.626 148.388 143.502C149.619 143.032 152.073 141.88 155.829 142.7C161.796 144.006 166.673 149.431 166.552 155.504C117.957 155.696 31.0215 156.135 28.6659 156.031C28.9156 153.169 31.4099 151.184 33.8563 151.307V151.307ZM48.5499 221.908C48.5409 221.911 48.5311 221.911 48.5222 221.908C47.6117 220.357 49.8967 214.463 51.5234 210.054C52.2473 208.16 52.8828 206.594 53.188 205.789C58.0531 206.823 63.7353 207.582 65.7706 207.807C58.7643 215.196 49.8689 222.447 48.5499 221.908V221.908ZM164.343 222.001C163.009 222.642 153.935 215.648 146.89 208.029C151.105 207.475 155.275 206.625 159.37 205.484C160.363 208.014 166.008 221.29 164.343 222.001V222.001ZM170.182 196.838C156.792 210.331 99.1981 207.544 78.4843 207.035C46.4541 204.778 29.8589 202.642 26.8677 171.751C42.4667 171.971 180.356 171.686 182.28 171.635C180.933 182.526 174.068 193.524 170.182 196.838ZM195.576 167.116C192.744 170.551 191.133 169.87 145.892 169.784C9.54361 169.532 17.9597 170.392 15.5663 169.28C12.6836 167.739 11.995 163.017 15.5512 159.602C16.8425 158.594 18.3986 157.703 21.8992 157.161C28.5449 156.13 189.569 157.461 190.013 157.537C195.743 158.48 198.235 163.958 195.576 167.116V167.116Z" fill="#441B17"/>
<path d="M189.594 127.735C199.559 127.206 199.029 113.395 189.594 113.107C179.629 113.637 180.161 127.45 189.594 127.735ZM189.382 113.677C198.179 114.144 197.687 126.338 189.382 126.58C180.58 126.116 181.084 113.922 189.382 113.677Z" fill="#441B17"/>
<path d="M169.115 45.6167C170.966 45.3998 170.242 36.8298 168.532 36.285C166.283 35.6419 167.185 45.8487 169.115 45.6167Z" fill="#441B17"/>
<path d="M164.038 47.9426C167.317 47.1557 165.493 35.1103 162.479 35.0801C158.989 35.3777 160.883 48.331 164.038 47.9426V47.9426Z" fill="#441B17"/>
<path d="M168.262 130.076C162.386 130.424 162.868 138.454 168.262 138.588C174.141 138.24 173.654 130.21 168.262 130.076ZM168.035 137.968C162.842 137.673 163.261 130.543 168.035 130.424C173.231 130.719 172.817 137.854 168.035 137.958V137.968Z" fill="#441B17"/>
<path d="M135.203 34.0332C133.185 34.129 133.276 36.9815 135.203 37.0597C137.221 36.9638 137.13 34.1139 135.203 34.0332Z" fill="#441B17"/>
<path d="M138.585 25.8221C128.225 28.324 130.681 43.3807 141.236 42.3467C152.547 39.8776 148.737 24.6493 138.585 25.8221V25.8221ZM146.883 34.3644C145.776 43.9482 132.984 42.9848 132.61 33.9053C133.337 23.3227 146.784 24.8789 146.883 34.3644Z" fill="#441B17"/>
<path d="M112.694 24.7295C93.2182 28.7648 97.3997 57.0624 116.774 55.5643C137.372 51.6425 132.55 22.9994 112.694 24.7295ZM114.093 53.6829C96.0757 52.0662 97.0467 26.2831 114.32 25.5971C133.09 26.8859 132.426 53.1961 114.093 53.6829Z" fill="#441B17"/>
<path d="M121.137 38.516C121.304 41.8199 125.899 41.5803 125.975 38.516C125.808 35.2171 121.216 35.4567 121.137 38.516Z" fill="#441B17"/>
<path d="M120.325 94.7246C109.243 95.2921 109.748 110.717 120.325 111.052C131.4 110.485 130.895 95.0626 120.325 94.7246V94.7246ZM120.028 110.109C109.892 109.57 110.431 95.5216 120.028 95.229C130.164 95.7687 129.634 109.817 120.028 110.109Z" fill="#441B17"/>
<path d="M122.716 36.9336C123.66 36.9336 123.902 38.5023 122.716 38.6133C121.773 38.6234 121.528 37.0446 122.716 36.9336Z" fill="white"/>
<path d="M134.678 34.5527C134.955 34.5719 135.169 34.8016 135.169 35.0786C135.169 35.3556 134.955 35.5853 134.678 35.6044C134.402 35.5853 134.188 35.3556 134.188 35.0786C134.188 34.8016 134.402 34.5719 134.678 34.5527Z" fill="white"/>
</svg>
