<svg width="200" height="148" viewBox="0 0 200 148" fill="none" xmlns="http://www.w3.org/2000/svg">
<g clip-path="url(#clip0_1_39405)">
<path fill-rule="evenodd" clip-rule="evenodd" d="M75.0888 91.2396C75.9471 91.9957 76.741 91.0468 77.327 90.4343C78.6843 89.7613 80.7486 89.7273 82.242 88.3473C84.4537 86.8086 85.6446 85.1715 87.913 84.3587C88.9187 84.0297 90.6881 83.8634 89.3724 84.8388C86.4612 87.7122 89.9244 86.4948 90.8091 85.1375C91.4329 84.559 92.3667 85.9692 91.535 86.4305C90.3289 86.8086 89.0094 88.6687 91.0359 88.2868C94.3781 85.5345 91.3837 91.421 90.8847 92.3322C89.8828 93.8067 85.3308 99.2585 84.7939 97.6706C84.2646 96.6649 81.3119 92.8842 81.8866 95.7462C83.811 98.4494 90.3251 108.317 87.051 108.725C79.0624 111.451 67.5312 113.618 59.0737 110.759C53.2552 109.856 56.068 102.82 54.8847 98.8766C54.5066 97.5609 54.1966 96.7519 52.7826 95.7273C47.6786 93.2169 45.9395 88.956 44.3743 83.2509C43.1531 80.7367 40.0378 79.4021 38.4121 77.0165C36.9565 75.0808 35.8336 71.4135 39.104 71.3454C41.7505 71.2396 45.6559 70.7329 47.7996 71.8634C48.8622 70.9379 49.9781 70.0757 51.1418 69.2812C52.7864 67.8142 55.4518 67.4437 56.775 66.1243C56.2042 65.6743 55.6408 65.8294 56.155 64.956C57.0321 62.4154 57.9584 57.9239 59.9773 57.2509C62.3478 56.6384 66.155 64.4607 67.1834 65.6554C77.7769 68.283 83.448 82.7972 75.0888 91.2396V91.2396ZM58.7183 65.8331C62.0227 66.7292 64.155 64.8615 59.8525 64.5137C59.4404 62.714 60.8393 60.733 60.0416 59.6214C58.8091 60.9069 58.6011 63.2131 58.7183 65.8331V65.8331ZM39.8979 72.7934C39.9584 74.1129 43.6786 73.8558 45.1682 74.1129C43.3006 79.2207 46.3025 77.4021 46.4839 73.7348C44.424 72.7971 42.1381 72.4703 39.8979 72.7934ZM66.9981 74.8577C66.9981 76.6687 67.6144 77.8823 69.4442 77.8823C70.3894 76.5023 68.431 73.2585 66.9981 74.8577ZM63.9735 81.0694C65.1985 81.2736 67.7883 84.6611 64.5369 84.6989C63.6144 84.4683 62.2004 82.5326 62.5633 84.4532C62.8469 85.905 64.5558 85.1677 65.6106 86.0827C67.1229 89.3795 71.5992 87.9277 69.9773 83.8898C71.38 79.8974 68.5066 77.7008 69.2439 82.3776C66.3289 83.8899 67.1871 81.3379 66.5444 79.387C65.879 78.767 63.9282 80.0335 63.9849 81.077L63.9735 81.0694ZM57.7656 82.2037C57.9735 82.9976 58.8998 83.6328 60.4121 83.5231C61.811 80.181 56.8885 78.8388 57.7769 82.2037H57.7656ZM65.8563 101.213C63.5879 101.837 60.7675 100.861 59.2703 101.776C68.0113 105.765 70.9263 96.9106 76.7713 97.2622C75.9093 98.1545 74.8204 98.8199 74.5028 100.287C75.7316 100.287 76.4764 98.6157 77.2854 98.3965C78.7448 99.043 76.2231 100.102 76.0151 100.88C75.7127 102.544 78.5293 99.9163 77.7278 101.451C73.5501 110.34 67.2968 107.75 66.0567 110.809C73.017 111.035 83.448 102.601 77.1607 95.9428C71.7694 95.629 70.0189 100.079 65.8677 101.213H65.8563Z" fill="white"/>
<path fill-rule="evenodd" clip-rule="evenodd" d="M46.0039 88.9071C46.0039 88.9071 59.7922 81.875 50.8281 68.6387C46.8848 71.9166 47.2515 70.5517 41.8148 70.2493C39.7355 69.6632 33.7619 71.5801 37.7959 77.5839C42.0795 82.0413 44.3177 85.0659 46.0039 88.9071Z" fill="#C9CBC0"/>
<path fill-rule="evenodd" clip-rule="evenodd" d="M115.554 12.5745C111.444 15.0055 119.853 13.8032 121.293 14.0376C122.752 14.0376 124.318 15.0849 125.527 14.9374C126.866 14.5178 124.832 13.4252 124.015 13.5121C127.44 9.84481 131.815 4.13215 137.837 4.40058C140.427 9.27014 140.73 15.6596 141.486 21.2172C142.125 25.5839 145.486 28.4006 146.306 32.1813C148.828 38.6917 149.448 51.5424 144.514 57.0471C143.444 57.6596 144.643 58.427 145.134 59.4894C150.049 67.4743 155.342 75.1416 156.76 85.7919C152.189 85.4138 148.015 87.5839 149.516 91.9658C152.204 92.8467 153.739 92.5972 153.372 89.5575C161.713 89.5348 159.422 89.497 160.147 92.5821C155.868 92.7787 157.391 96.4157 156.681 98.8202C152.783 102.041 151.766 107.939 152.242 115.542C110.601 115.35 127.883 117.781 129.883 107.1C131.289 103.126 128.556 100.639 130.745 99.7087C140.767 93.8713 138.155 89.5008 135.611 94.3779C124.457 105.943 102.582 104.31 113.304 99.3571C111.414 97.9129 109.406 101.505 108.333 100.529C106.008 98.1132 109.822 97.5953 111.316 96.4006C112.072 94.6615 107.94 96.8013 107.471 97.4743C108.514 91.9015 116.783 89.5045 121.369 85.7541C125.176 83.2361 131.55 75.841 130.82 72.2494C127.89 76.4951 125.716 81.463 121.202 84.4649C119.69 85.6747 117.043 87.9242 115.425 87.8675C111.936 87.0773 108.62 85.9431 105.104 85.5991C102.397 85.221 99.7429 84.9261 96.7561 84.6539C96.3062 79.8448 98.7372 75.1378 98.8242 70.7257C96.8318 71.739 97.0208 74.945 96.1777 77.1227C90.2684 78.8051 85.3233 81.4516 80.5595 84.2758C80.7448 80.911 80.0567 76.9034 78.6692 74.4875C82.9943 67.7087 90.0113 63.6066 97.1115 59.6218C98.0529 59.8562 99.1304 60.8051 100.314 60.1851C85.69 52.2229 86.3894 30.2456 96.7864 20.3855C97.9887 19.6293 98.5709 19.0017 98.949 17.289C103.679 1.13404 106.968 -4.99073 115.554 12.5745V12.5745ZM106.518 5.23234C113.985 19.0093 109.716 10.6274 103.115 15.5839C105.762 16.2872 109.338 14.8278 111.962 14.2683C110.919 10.2909 109.146 7.0433 106.692 4.47997C106.616 4.86561 106.14 4.85049 106.518 5.23234V5.23234ZM135.501 7.50077C133.376 9.98092 126.427 15.3306 132.234 17.0509C133.146 17.6142 135.592 18.6047 135.365 17.5083C134.631 16.0376 132.571 15.9356 131.172 15.0282C131.664 12.6652 138.423 6.99037 135.501 7.49321V7.50077ZM104.261 40.8089C104.987 44.3325 107.977 42.9223 107.894 40.0906C107.641 36.5934 104.62 36.5405 104.072 39.8675C103.395 39.2286 103.66 37.6482 102.756 37.221C102.295 38.7219 103.267 40.1624 104.261 40.8013V40.8089ZM124.96 37.9847C124.015 37.8524 123.255 38.6879 122.692 40.0565C122.095 39.5235 122.129 38.3628 120.998 38.3628C125.898 49.9734 127.898 38.3703 124.96 37.9771V37.9847ZM112.541 44.9488C112.514 47.0206 114.053 47.0244 114.234 48.5253C114.749 52.4308 109.698 52.9526 107.837 50.2191C107.312 49.463 107.781 48.8202 106.703 48.1473C104.722 52.6841 113.584 55.0168 114.983 50.7938C116.442 54.9752 125.512 53.4781 123.078 48.7257C122.465 48.7976 122.291 49.6709 122.212 50.4951C120.915 53.2323 116.45 52.0074 115.467 49.5613C114.389 47.6104 116.639 46.7787 116.866 44.7749C115.527 44.6123 113.353 43.9809 112.541 44.9412V44.9488Z" fill="white"/>
<path fill-rule="evenodd" clip-rule="evenodd" d="M119.913 13.6105C119.913 13.6105 115.637 35.9469 146.25 30.5708C144.847 27.9243 140.737 21.5462 141.422 20.4347C141.18 16.8279 140.907 10.7485 140.832 10.9829C139.414 6.53674 139.183 3.87133 137.709 3.72388C132.832 2.21159 124.805 11.2853 124.234 13.1227C124.544 13.8297 120.291 13.5008 119.913 13.6105V13.6105Z" fill="#C9CBC0"/>
<path fill-rule="evenodd" clip-rule="evenodd" d="M90.5405 30.3048C90.5405 30.3048 113.709 38.301 118.397 13.4806L115.554 12.5732C115.554 12.5732 111.365 1.07227 107.641 1.07227C107.641 1.07227 100.609 1.34826 97.9885 17.7566C97.9885 17.7679 90.9564 26.5808 90.5405 30.3048V30.3048Z" fill="#C9CBC0"/>
<path fill-rule="evenodd" clip-rule="evenodd" d="M116.87 12.9481C119.051 12.2184 121.784 13.7042 123.248 12.502C126.983 8.12768 134.945 0.0255985 139.164 3.96133C140.575 5.70046 140.828 9.13713 141.335 11.6324C142.185 15.708 142.042 19.8139 143.35 23.2165C146.688 28.5095 148.129 32.2071 149.074 38.6721C151.437 60.8422 141.822 54.6683 148.019 61.7988C152.654 68.7099 156.605 75.95 158.272 85.7798C162.522 85.8592 164.87 88.1277 165.047 92.3659C166.696 93.156 167.558 95.1712 167.316 98.0143C171.474 101.47 173.573 107.235 173.338 115.137C181.066 115.016 191.864 114.351 199.686 114.952C198.858 116.377 196.749 115.64 195.357 115.708C188.491 116.018 179.815 116.2 173.716 116.271C172.873 120.888 174.537 125.598 173.905 130.01C169.331 132.305 160.51 131.723 154.707 131.145C152.575 127.697 152.9 121.787 152.261 116.842C143.255 116.702 133.512 116.842 124.597 116.657C123.335 124.116 123.21 135.519 117.822 138.676C115.637 139.954 112.253 140.944 109.354 141.874C95.603 146.377 75.5879 149.368 58.7297 145.277C55.5236 144.498 52.5293 143.727 49.6938 142.831C46.6994 141.882 44.1701 140.317 41.414 139.629C37.138 134.971 36.189 127.001 34.4386 119.848C23.2174 120.044 10.9301 121.171 0 120.411C7.82231 118.26 16.9301 119.927 25.2098 118.971C27.448 118.464 34.6125 119.629 34.0907 117.958C33.7127 115.893 33.9017 113.961 31.7467 112.925C24.5747 108.506 27.4896 100.797 31.38 96.536C34.8696 93.0502 40.8696 91.277 45.3422 90.1088C44.0756 87.5908 43.9622 83.8819 41.7921 82.1504C38.5595 79.95 31.7769 71.9689 38.3894 70.071C44.707 69.5152 47.104 72.4037 51.4253 67.6664C53.0397 66.2222 54.741 67.0124 54.9527 64.6419C59.0208 49.8479 62.775 56.7024 67.8601 64.294C73.1531 66.6834 75.7694 68.4112 78.0907 73.1787C82.3289 66.6305 89.1947 62.7061 96.155 58.8763C86.4083 51.3148 85.4858 35.2014 91.8526 24.9935C93.4216 21.674 96.4802 20.3356 97.6824 17.3602C102.352 -2.37138 109.066 -6.28442 116.87 12.9481V12.9481ZM104.45 3.53789C101.425 7.07664 99.9622 14.8347 98.2382 19.3489C89.3724 24.7099 86.0681 43.6475 92.7788 53.4093C94.8847 56.4717 97.7845 58.1882 100.31 60.1844C99.1267 60.8044 98.0416 59.8555 97.1077 59.6211C89.9811 63.6059 82.9905 67.708 78.6654 74.4793C80.0454 76.8952 80.7335 80.9065 80.5558 84.2676C85.3195 81.4434 90.2646 78.7969 96.1739 77.1144C97.0057 74.9367 96.8166 71.7307 98.8204 70.7175C96.1475 89.0804 93.1493 83.1409 108.234 86.0974C110.809 86.226 114.098 88.173 116.287 87.7194C124.949 83.3337 127.074 77.7534 130.817 72.2184C129.078 86.6759 107.905 90.071 107.478 97.4358C108.469 96.7969 110.503 94.8384 111.618 96.1201C110.405 97.2241 108.371 97.5114 107.478 98.9443C107.76 99.6276 108.142 100.265 108.612 100.835C109.955 100.313 111.614 98.2562 113.316 99.3224C112.601 100.32 110.628 100.581 109.913 101.769C112.938 103.564 117.202 103.368 121.066 102.309C129.618 100.196 133.573 96.226 137.766 92.1693C138.605 96.9594 128.397 99.1182 129.977 101.364C132.953 119.67 105.561 114.88 152.257 115.508C151.728 107.889 152.904 101.666 156.964 98.57C156.616 95.9802 156.767 92.5209 160.163 92.5473C159.728 92.0407 160.095 90.7326 159.974 89.9008C158.11 89.4434 155.732 89.5039 153.388 89.5228C153.958 93.1863 151.18 92.5473 149.248 91.7912C148.817 86.9405 152.076 85.5644 156.775 85.7685C154.798 69.3375 141.785 58.1693 144.79 56.7402C147.399 53.5265 148.004 49.4887 148.219 44.2373C148.238 27.9046 141.198 26.6116 141.467 19.7496C140.14 13.5341 140.125 7.32995 137.58 4.09365C131.153 5.1636 127.599 9.48496 124.03 13.5001C124.836 13.7609 126.098 13.5644 125.921 14.8195C124.673 15.3224 123.444 14.2562 121.781 14.0634C119.312 13.7799 116.359 14.5851 114.253 13.6853C114.216 12.8347 115.516 13.3073 115.573 12.5511C113.422 9.56813 109.388 -2.24661 104.45 3.53789V3.53789ZM79.2287 83.1447C79.8828 76.1768 74.6919 68.0218 68.6049 66.0067C62.3629 62.6532 60.9263 48.4188 56.1588 64.9443C55.4896 66.1617 56.5369 65.4736 56.8355 66.3961C53.505 67.6248 50.4395 69.4777 47.8034 71.8555C45.6597 70.7212 40.9338 71.2014 38.6616 71.4207C37.0888 71.5795 36.7183 72.5171 37.1191 74.2827C37.8752 78.4868 42.5293 79.8025 44.3667 83.2468C48.1059 97.1976 52.1966 92.846 54.6692 98.1541C56.7713 107.579 52.0529 109.693 62.6087 111.655C69.2023 112.808 76.9301 111.621 83.3043 109.878C84.7335 109.088 88.741 109.269 87.8752 107.345C87.0095 103.409 85.2703 100.57 83.3724 97.8252C82.7713 97.0237 81.5199 95.9349 81.8601 94.6267C83.69 94.7628 84.4726 98.5814 85.535 97.9424C88.5331 95.2354 91.6824 92.846 92.518 87.9538C92.896 86.5549 91.104 88.6759 90.3478 88.3734C88.8582 87.519 91.8601 86.4831 91.8601 85.9991C91.5047 83.3526 89.7391 86.9103 88.4575 86.6154C87.5047 85.1749 92.4801 83.3904 87.8904 84.347C85.1909 85.2316 83.4594 87.8971 80.6276 89.3262C79.5199 90.1239 78.1172 89.7383 77.1002 90.6116C76.8091 91.3224 74.741 92.1012 75.3006 90.8649C76.8885 88.4679 78.8847 86.4755 79.2287 83.1447V83.1447ZM81.6786 85.035C86.9301 85.2052 89.38 79.8706 93.1569 85.035C93.3308 84.3318 94.6692 84.7893 95.4253 84.657C95.569 82.536 95.5198 80.2298 95.9924 78.4453C90.9878 80.1038 86.1822 82.3113 81.6635 85.0275L81.6786 85.035ZM93.9093 87.8592C113.713 88.5889 108.06 93.2921 114.234 88.8006C108.132 87.0577 100.73 85.6173 93.3459 85.7761C93.8223 86.1995 93.7996 87.0842 93.9093 87.8517V87.8592ZM79.7958 85.9689C79.5047 86.9935 78.9149 87.7231 78.6616 88.7931C80.5379 88.1291 82.2647 87.1013 83.7429 85.7685C82.344 85.6702 80.9565 86.4528 79.7958 85.9689V85.9689ZM150.745 88.7931C150.851 89.6513 150.412 89.9651 150.556 90.8611C151.255 90.7288 151.365 91.1825 152.068 91.0502C151.214 86.3394 159.83 88.1882 161.293 89.5379V92.7364H163.739C164.745 85.8668 154.102 85.7609 150.745 88.7931ZM93.9093 88.9783C93.5085 90.8989 92.344 92.0558 91.6408 93.6853C108.911 93.5303 103.834 98.1315 109.705 91.6135C105.414 89.7723 99.6975 89.3413 93.9093 88.9783ZM44.7902 91.2468C26.2646 95.9613 25.9319 108.26 33.1871 112.419C34.9905 112.922 34.5709 114.888 35.1229 116.358C37.1569 124.869 37.7694 135.791 43.1758 139.103C74.5558 154.491 116.752 140.971 119.168 135.379C122.14 130.933 122.238 122.937 123.191 116.589C123.459 115.141 123.263 114.056 124.491 113.322C127.569 110.627 130.144 106.237 128.533 100.846C127.868 101.602 125.732 101.224 125.887 102.888C125.629 107.424 122.862 110.203 119.497 111.897C98.2117 121.065 18.8469 121.727 34.9263 99.277C37.6711 95.5644 43.9093 94.9481 47.3611 93.1674C47.0813 92.0294 46.155 90.8687 44.7902 91.2392V91.2468ZM158.461 94.2713C158.061 95.6205 157.871 97.0232 157.898 98.4301C160.242 97.8933 163.316 98.0785 166.178 98.0521C166.087 96.449 166.049 94.7893 165.236 93.8933C163.062 94.0861 160.019 93.4245 158.461 94.2487V94.2713ZM48.3667 94.2713C38.2344 96.1806 26.7146 104.706 39.7089 111.02C40.1134 102.646 46.5898 100.336 53.0699 98.0369C52.0076 96.2562 49.7921 95.6513 48.3667 94.2487V94.2713ZM90.8998 94.8347C89.3875 96.5436 87.5917 97.9273 85.9849 99.5417C87.5544 102.055 88.7587 104.78 89.5614 107.632C89.9735 107.031 91.259 106.585 91.9471 105.916C92.1021 105.16 92.5558 102.702 93.293 104.585C94.2117 109.761 79.8337 112.079 76.9187 112.445C67.7921 113.931 55.1267 113.897 51.172 106.691C52.4839 106.358 52.983 108.203 54.3705 108.385C53.7467 105.621 53.8639 102.116 53.6144 98.9783C47.3081 101.103 40.9868 104.135 40.8166 111.772C62.8166 119.303 98.1172 117.394 119.293 110.457C119.671 108.362 119.198 105.731 118.352 104.245C111.962 105.417 105.588 103.02 106.121 96.7175C101.89 95.2392 96.6767 94.7439 90.8998 94.812V94.8347ZM171.448 107.447C170.692 104.502 168.975 99.8139 166.363 99.1636C163.819 98.5322 160.344 99.5757 157.52 99.7307C151.093 104.937 153.766 121.349 155.251 130.029C160.741 130.555 168.193 130.812 172.752 129.273C171.645 123.36 173.032 113.704 171.448 107.424V107.447ZM124.189 102.551C123.002 103.432 120.718 103.22 119.486 104.063C120.65 105.16 120.389 107.678 120.802 109.523C122.495 107.958 125.403 105.678 124.208 102.528L124.189 102.551Z" fill="#79647C"/>
<path fill-rule="evenodd" clip-rule="evenodd" d="M106.707 4.47852C109.161 7.04184 110.934 10.2895 111.977 14.2668C109.353 14.8226 105.777 16.2857 103.13 15.5825C104.325 13.5144 108.514 14.4483 110.658 13.3141C109.429 10.4634 107.887 7.93031 106.518 5.21954C106.14 4.84903 106.616 4.86415 106.707 4.47852V4.47852Z" fill="#79647C"/>
<path fill-rule="evenodd" clip-rule="evenodd" d="M136.442 7.6785C134.832 10.2721 132.442 12.0982 131.191 15.0207C132.609 15.9885 134.953 16.0263 135.52 17.8411C133.66 18.4838 131.603 16.3023 129.686 15.773C130.499 11.8827 133.255 9.93181 135.52 7.49324C135.84 7.43141 136.171 7.49796 136.442 7.6785V7.6785Z" fill="#79647C"/>
<path fill-rule="evenodd" clip-rule="evenodd" d="M102.756 37.2246C103.66 37.6405 103.395 39.2208 104.072 39.8711C104.911 35.6481 108.257 37.4174 107.853 40.7936C107.516 43.4136 104.752 43.7237 104.272 40.7936C103.353 40.2492 102.333 38.7067 102.756 37.2246V37.2246Z" fill="#79647C"/>
<path fill-rule="evenodd" clip-rule="evenodd" d="M123.456 42.8726C123.055 40.952 121.335 40.3509 121.01 38.3357C122.144 38.3357 122.106 39.4964 122.703 40.0295C126.76 32.7214 127.864 46.5361 123.456 42.8726V42.8726Z" fill="#79647C"/>
<path fill-rule="evenodd" clip-rule="evenodd" d="M116.87 44.7557C116.802 46.2037 115.418 46.9598 115.18 48.2944C115.35 51.6971 119.981 53.2623 122.14 50.7746C122.234 50.1356 122.681 47.6177 123.475 49.319C124.208 54.5742 115.913 54.0222 114.987 50.7746C113.588 55.009 104.726 52.6649 106.707 48.1281C107.705 48.7443 107.335 49.5799 108.015 50.4381C109.569 52.3738 112.749 52.4003 113.894 50.5364C115.898 47.1035 107.992 43.406 116.87 44.7557V44.7557ZM114.423 46.8237C115.153 46.7405 115.18 45.9655 115.558 45.508C114.919 45.4551 114.045 45.6517 113.667 45.319C113.713 46.0298 114.261 46.2339 114.423 46.8237V46.8237Z" fill="#79647C"/>
<path fill-rule="evenodd" clip-rule="evenodd" d="M113.671 45.3184C114.027 45.6511 114.915 45.4545 115.562 45.5074C114.783 47.1823 114.268 47.0764 113.671 45.3184Z" fill="#F598A3"/>
<path fill-rule="evenodd" clip-rule="evenodd" d="M60.034 59.6211C61.2136 60.7553 57.8677 65.2355 61.5463 64.7553C62 64.8271 62.3856 65.0162 62.2646 65.4888C56.8658 68.6419 58.6994 60.9368 60.034 59.6211V59.6211Z" fill="#79647C"/>
<path fill-rule="evenodd" clip-rule="evenodd" d="M46.5029 73.7228C45.8904 78.7058 43.4254 78.0102 45.1872 74.1009C34.4576 73.3674 42.9037 71.5527 46.5029 73.7228Z" fill="#79647C"/>
<path fill-rule="evenodd" clip-rule="evenodd" d="M69.4442 77.8815C67.6143 77.8815 67.0094 76.683 66.998 74.8569C68.4309 73.2576 70.3894 76.5015 69.4442 77.8815Z" fill="#79647C"/>
<path fill-rule="evenodd" clip-rule="evenodd" d="M95.9812 78.4414C94.7071 86.294 96.7638 83.776 93.157 85.0274C89.2061 79.6853 86.3177 85.5303 81.6787 85.0274C86.1889 82.3117 90.9855 80.1029 95.9812 78.4414V78.4414Z" fill="white"/>
<path fill-rule="evenodd" clip-rule="evenodd" d="M66.4348 79.1934C67.346 81.2198 66.2534 83.9987 69.2552 82.3918C68.5293 78.3881 70.7675 79.4164 70.363 82.3276C70.363 83.269 69.6069 82.9779 69.9849 83.8966C70.9452 86.2293 69.8715 87.6433 68.4726 87.8739C66.2042 88.2898 66.6087 86.1045 64.7146 85.7113C63.1759 85.9344 61.5539 83.5298 63.0662 83.7038C63.8224 84.1045 64.2647 85.1026 65.7127 84.5884C67.777 81.4618 60.4915 80.872 66.4348 79.1934ZM66.4348 85.5903C68.4046 87.5941 69.6598 87.1593 68.7827 84.354C67.8261 83.3106 66.8129 84.2293 66.4348 85.5903Z" fill="#79647C"/>
<path fill-rule="evenodd" clip-rule="evenodd" d="M60.4121 83.5233C58.8998 83.633 57.9849 82.9978 57.7656 82.2039C56.8885 78.839 61.811 80.1812 60.4121 83.5233Z" fill="#79647C"/>
<path fill-rule="evenodd" clip-rule="evenodd" d="M67.1872 83.8972C68.9339 83.6288 69.5842 85.659 68.6995 86.9218C66.7259 86.4983 66.0908 85.6174 67.1872 83.8972Z" fill="white"/>
<path fill-rule="evenodd" clip-rule="evenodd" d="M93.3459 85.7793C100.73 85.6092 108.132 87.0496 114.234 88.8039C113.1 89.56 111.871 90.2027 110.832 91.0723C106.541 88.6489 100.302 88.1763 93.8942 87.8738C93.7996 87.0837 93.8223 86.199 93.3459 85.7793V85.7793Z" fill="white"/>
<path fill-rule="evenodd" clip-rule="evenodd" d="M83.7468 85.7802C82.2686 87.1129 80.5418 88.1408 78.6655 88.8048C78.9151 87.7348 79.5048 87.0052 79.7997 85.9806C80.9566 86.4532 82.3442 85.6706 83.7468 85.7802V85.7802Z" fill="white"/>
<path fill-rule="evenodd" clip-rule="evenodd" d="M163.732 92.7444H161.286V89.5459C159.822 88.1886 151.206 86.3398 152.061 91.0582C151.365 91.1905 151.255 90.7368 150.548 90.8691C149.947 84.8313 165.475 85.6782 163.732 92.7444V92.7444Z" fill="white"/>
<path fill-rule="evenodd" clip-rule="evenodd" d="M109.716 91.6142C108.605 92.8845 107.259 93.9242 106.314 95.3949C101.539 94.0695 96.5876 93.498 91.637 93.7011C92.3288 92.0716 93.4933 90.9147 93.9054 88.9941C99.6974 89.342 105.414 89.773 109.716 91.6142Z" fill="white"/>
<path fill-rule="evenodd" clip-rule="evenodd" d="M47.4252 93.4961C36.4347 95.1142 26.9035 103.783 37.0661 111.296C50.6767 119.122 80.0528 118.43 93.7012 117.092C136.601 112.77 120.348 103.156 128.537 100.834C130.541 106.884 126.488 111.454 123.573 114.358C122.953 117.436 122.68 121.126 122.2 124.816C121.705 128.615 121.006 132.192 119.516 134.816C117.089 139.432 108.73 141.141 101.879 142.971C84.2532 147.746 63.2891 147.908 44.3099 139.704C37.1266 136.267 37.3912 124.861 35.3421 117.356C34.6464 113.315 34.533 113.058 31.4366 111.22C30.2543 110.161 29.44 108.754 29.1114 107.201C27.5084 99.2881 34.7825 94.3808 41.3685 92.4072C43.6748 91.636 46.7787 89.8061 47.4252 93.4961V93.4961Z" fill="white"/>
<path fill-rule="evenodd" clip-rule="evenodd" d="M165.236 93.8697C166.049 94.7506 166.087 96.4103 166.178 98.0285C163.316 98.0512 160.242 97.8659 157.898 98.4065C157.565 91.7185 160.907 94.3914 165.236 93.8697V93.8697ZM163.724 97.072C164.571 96.9321 164.295 94.8224 163.346 94.8035C162.9 95.4614 162.801 96.8565 163.731 97.072H163.724ZM159.943 97.072C160.276 96.7166 160.079 95.8281 160.132 95.1816C159.013 94.433 158.79 97.0871 159.966 97.072H159.943ZM162.015 97.261C161.86 96.7619 162.412 95.14 161.448 95.1892C160.48 95.0795 160.813 97.658 162.038 97.261H162.015Z" fill="white"/>
<path fill-rule="evenodd" clip-rule="evenodd" d="M53.07 98.0142C46.5898 100.313 40.1135 102.623 39.7089 110.997C26.2571 104.381 39.0964 96.018 48.0832 94.3242C49.5577 94.9405 51.9131 96.5057 53.07 98.0142Z" fill="white"/>
<path fill-rule="evenodd" clip-rule="evenodd" d="M106.144 96.6955C105.611 102.998 111.985 105.391 118.374 104.223C119.221 105.709 119.682 108.34 119.316 110.435C98.1437 117.372 62.8394 119.282 40.8394 111.75C41.0095 104.113 47.3308 101.081 53.6371 98.9564C53.8828 102.094 53.7656 105.599 54.3932 108.363C53.0057 108.174 52.5029 106.336 51.1947 106.669C56.9566 117.546 85.1191 112.718 91.7619 107.633C93.2477 107.021 94.2307 103.747 92.484 104.034C91.9471 106.533 91.1002 106.302 89.5842 107.61C88.7814 104.758 87.5771 102.034 86.0076 99.5197C87.5955 97.9054 89.4102 96.5216 90.9225 94.8127C96.6768 94.7447 101.89 95.2399 106.144 96.6955V96.6955ZM93.1569 99.5197C93.2239 99.9793 93.5947 100.335 94.0567 100.382C99.535 102.208 96.5596 106.053 94.8507 108.93C100.189 108.083 98.6125 98.2986 93.1569 99.5197ZM103.509 107.425C102.828 108.873 101.259 109.44 100.484 110.809C103.41 110.767 105.686 107.21 103.682 104.601C102.994 105.145 103.437 106.541 103.509 107.425ZM49.1191 112.128C47.3157 109.421 47.346 107.883 47.8186 105.089C45.2401 105.815 46.639 112 49.1191 112.128ZM108.59 111.565C110.771 111.75 113.531 108.393 110.858 107.236C111.444 110.019 108.983 109.762 108.59 111.565Z" fill="#BDE3DE"/>
<path fill-rule="evenodd" clip-rule="evenodd" d="M163.354 94.8125C164.303 94.8125 164.579 96.9335 163.732 97.0809C162.802 96.8579 162.9 95.4628 163.354 94.8125Z" fill="#79647C"/>
<path fill-rule="evenodd" clip-rule="evenodd" d="M159.592 95.002C159.752 95.1292 159.951 95.1961 160.155 95.191C160.514 98.7297 158.276 96.3592 159.592 95.002Z" fill="#79647C"/>
<path fill-rule="evenodd" clip-rule="evenodd" d="M161.096 95.1895C162.136 94.8871 162.076 96.1007 162.038 97.2614C160.858 97.4995 160.779 95.991 161.096 95.1895Z" fill="#79647C"/>
<path fill-rule="evenodd" clip-rule="evenodd" d="M77.1606 95.9416C83.4366 102.599 73.0018 111.034 66.0567 110.807C66.6729 108.974 69.0094 109.189 70.3856 108.539C73.7504 106.978 76.5482 104.758 77.913 101.012C77.4366 100.55 77.0321 101.768 76.0226 101.39C75.724 99.6769 78.3931 100.036 77.5349 98.365C76.5141 98.2214 76.0226 100.255 74.5103 100.255C74.8166 98.8036 75.9054 98.1382 76.7788 97.2308C72.5482 97.0229 70.5444 100.815 66.8052 102.123C64.8128 102.819 60.9829 103.087 59.2778 101.745C60.7901 100.83 63.5803 101.805 65.8638 101.182C70.0189 100.078 71.7693 95.6278 77.1606 95.9416V95.9416Z" fill="#79647C"/>
<path fill-rule="evenodd" clip-rule="evenodd" d="M172.779 129.254C168.219 130.789 160.767 130.532 155.278 130.01C153.765 121.315 151.093 104.918 157.546 99.7115C160.37 99.5565 163.845 98.513 166.389 99.1444C169.002 99.7947 170.73 104.483 171.474 107.428C173.032 113.704 171.645 123.36 172.779 129.254V129.254ZM156.593 114.384C157.512 118.505 169.104 119.235 169.928 114.245C170.363 105.182 154.631 108.15 156.578 114.384H156.593Z" fill="#FBCBC7"/>
<path fill-rule="evenodd" clip-rule="evenodd" d="M94.8507 108.93C97.2553 105.387 98.8999 101.747 93.7959 100.31C93.4178 100.196 93.312 99.9658 93.157 99.5197C98.5672 98.2985 100.189 108.049 94.8507 108.93V108.93Z" fill="#79647C"/>
<path fill-rule="evenodd" clip-rule="evenodd" d="M120.82 109.493C120.408 107.648 120.669 105.13 119.505 104.034C120.737 103.198 123.021 103.41 124.208 102.521C125.403 105.678 122.495 107.958 120.82 109.493Z" fill="white"/>
<path fill-rule="evenodd" clip-rule="evenodd" d="M103.694 104.6C105.698 107.208 103.422 110.766 100.495 110.808C105.183 106.331 102.495 107.647 103.694 104.6Z" fill="#79647C"/>
<path fill-rule="evenodd" clip-rule="evenodd" d="M47.6143 104.975C47.8634 105.044 48.0243 105.285 47.9924 105.542C46.5217 107.852 48.2154 110.483 49.1266 112.128C46.5481 111.716 45.4631 106.763 47.6143 104.975V104.975Z" fill="#79647C"/>
<path fill-rule="evenodd" clip-rule="evenodd" d="M110.847 107.236C113.531 108.393 110.771 111.751 108.578 111.565C108.983 109.762 111.444 110.019 110.847 107.236Z" fill="#79647C"/>
<path fill-rule="evenodd" clip-rule="evenodd" d="M162.601 108.739C169.35 106.902 173.38 116.032 165.951 117.499C155.134 119.435 152.805 109.684 162.601 108.739ZM157.709 113.632C157.996 117.287 168.064 117.098 168.624 114.01C169.229 110.649 164.975 109.552 162.223 110.055C160.17 110.433 157.52 111.242 157.709 113.632Z" fill="#79647C"/>
<path fill-rule="evenodd" clip-rule="evenodd" d="M162.223 110.056C167.626 108.922 171.675 114.366 165.951 116.015C157.622 118.022 154.227 111.448 162.223 110.056Z" fill="white"/>
<path fill-rule="evenodd" clip-rule="evenodd" d="M105.883 46.4374C105.641 51.0045 99.3045 50.6567 99.1948 46.4374C99.433 41.8703 105.773 42.2219 105.883 46.4374Z" fill="#FACFE2"/>
<path fill-rule="evenodd" clip-rule="evenodd" d="M131.803 47.8172C131.565 52.3843 125.229 52.0327 125.119 47.8172C125.357 43.2463 131.694 43.5979 131.803 47.8172Z" fill="#FACFE2"/>
<path fill-rule="evenodd" clip-rule="evenodd" d="M62.4462 87.0473C62.2988 90.3176 57.6636 90.1626 57.554 87.0473C57.6976 83.777 62.3328 83.932 62.4462 87.0473Z" fill="#FACFE2"/>
<path fill-rule="evenodd" clip-rule="evenodd" d="M75.1305 79.8738C74.9869 83.1479 70.3517 82.9891 70.2383 79.8738C70.3819 76.6035 75.0171 76.7471 75.1305 79.8738Z" fill="#FACFE2"/>
<path d="M72.3403 78.5674C72.3403 78.5674 73.5804 73.7395 78.1324 72.3633" stroke="#79647C"/>
<path d="M72.6843 79.8748C72.6843 79.8748 75.9244 76.7746 79.1115 76.2227" stroke="#79647C"/>
<path d="M73.1682 80.6343C75.417 80.1668 77.7499 80.3104 79.9244 81.0502" stroke="#79647C"/>
<path d="M59.7921 86.151C59.7921 86.151 55.2552 84.6387 50.1399 88.771" stroke="#79647C"/>
<path d="M59.9999 87.0469C59.9999 87.0469 54.2759 88.0828 50.8279 91.803" stroke="#79647C"/>
<path d="M60.0681 88.2188C60.0681 88.2188 56.0681 90.2868 54.9641 93.8709" stroke="#79647C"/>
<path d="M103.781 45.3344C99.0742 41.6057 93.0268 40.0069 87.0925 40.9223" stroke="#79647C"/>
<path d="M103.214 46.85C103.214 46.85 93.9735 44.0938 88.1814 46.85" stroke="#79647C"/>
<path d="M102.537 48.5059C102.537 48.5059 94.5408 49.4699 90.1287 54.0219" stroke="#79647C"/>
<path d="M128.601 46.3029C128.601 46.3029 137.425 39.4068 149.716 45.7471" stroke="#79647C"/>
<path d="M128.461 47.818C128.461 47.818 139.357 46.8502 146.389 50.8426" stroke="#79647C"/>
<path d="M128.461 49.6094C128.461 49.6094 136.045 51.4014 140.873 57.7455" stroke="#79647C"/>
</g>
<defs>
<clipPath id="clip0_1_39405">
<rect width="200" height="148" fill="white"/>
</clipPath>
</defs>
</svg>
