<svg width="200" height="173" viewBox="0 0 200 173" fill="none" xmlns="http://www.w3.org/2000/svg">
<path d="M170.934 65.9535C170.507 65.9535 170.086 65.976 169.669 66.0078C167.288 59.8977 161.858 55.4984 155.387 54.4363C148.916 53.3742 142.365 55.8071 138.156 60.8356C132.082 46.2488 113.169 43.2608 102.867 54.9283C102.611 55.3932 102.058 54.9111 101.543 54.8912C94.7681 53.4899 88.2847 57.0541 85.4847 62.8104C77.4145 60.1455 69.988 60.9733 63.4979 66.2541C53.4105 74.6435 53.2383 89.9137 62.7536 98.572C72.5655 107.489 87.7244 105.396 94.9205 94.768C104.071 108.146 123.62 106.938 131.249 93.0462C135.972 107.897 155.815 108.997 162.344 95.2237C171.497 101.018 183.091 96.3283 186.119 86.5058C189.249 76.0767 181.457 65.9614 170.934 65.9535V65.9535Z" fill="white"/>
<path d="M194.792 122.236C194.98 122.025 195.247 121.75 195.477 121.543C195.94 122.603 196.253 123.811 196.621 124.942C194.753 124.685 193.131 124.134 194.792 122.236V122.236Z" fill="#EFE681"/>
<path d="M190.362 119.691C188.483 119.609 189.671 116.392 189.964 115.529C191.304 116.497 192.539 117.601 193.65 118.823C192.625 119.264 191.531 119.741 190.362 119.691V119.691Z" fill="#DDA2C2"/>
<path d="M185.142 116.074C184.147 115.695 184.347 112.266 184.295 111.863C185.53 112.581 186.903 113.421 188.103 114.214C187.202 114.935 186.33 115.923 185.142 116.074Z" fill="#D97480"/>
<path d="M185.682 110.076C188.085 108.097 189.848 105.363 191.461 102.721C193.05 105.237 194.934 107.444 196.117 110.301C197.633 114.253 198.339 118.669 197.94 122.918C196.34 116.825 190.391 113.382 185.35 110.321C185.363 110.313 185.621 110.119 185.682 110.076V110.076Z" fill="#C9DE5F"/>
<path d="M165.886 80.6523C166.475 78.7702 170.456 79.8113 170.271 81.5795C169.871 83.651 165.481 82.5159 165.886 80.6523Z" fill="#B2C554"/>
<path d="M165.372 88.7368C161.512 88.5739 161.673 84.7699 165.209 84.5566C169.271 84.5633 169.122 88.6586 165.372 88.7368Z" fill="#B2C554"/>
<path d="M159.924 83.8029C156.918 84.3777 156.421 81.6612 159.06 80.8572C162.213 80.0969 162.84 83.0863 159.924 83.8029Z" fill="#B2C554"/>
<path d="M165.372 88.7363C169.225 88.572 169.065 84.7707 165.534 84.5561C161.469 84.5627 161.616 88.6594 165.372 88.7363ZM168.408 79.7389C165.483 79.1521 164.947 81.7521 167.568 82.5574C170.706 83.3257 171.25 80.4674 168.408 79.7389ZM159.224 80.8157C156.278 81.6329 157.033 84.2899 159.754 83.8382C162.983 83.1296 162.109 80.2064 159.224 80.8157ZM156.914 80.9151C171.086 74.6012 176.829 82.7694 181.735 83.8435C182.907 84.2541 183.987 83.7111 184.894 83.2197C188.097 81.3296 190.699 79.9614 193.573 81.9826C196.101 83.4965 195.706 85.7813 195.428 87.9323C194.405 94.8621 187.067 108.371 183.11 109.348C179.853 110.21 177.434 106.237 175.106 105.062C171.482 102.78 168.109 104.943 166.232 107.739C164.662 109.939 163.656 112.724 161.164 114.042C153.646 118.224 135.939 120.29 131.56 112.993C131.06 112.055 130.528 111.037 130.841 110.53C132.351 107.175 133.915 104.499 135.931 101.507C141.694 93.4184 148.363 84.9018 156.914 80.9151V80.9151Z" fill="#C9DE5F"/>
<path d="M152.558 70.5051C153.326 68.5184 157.417 69.9171 156.918 71.8124C156.177 73.7674 152.053 72.3594 152.558 70.5051Z" fill="#A4B34F"/>
<path d="M150.665 75.085C148.097 74.938 148.336 71.8837 150.665 71.832C153.233 71.9751 152.98 75.0334 150.665 75.085Z" fill="#A4B34F"/>
<path d="M145.244 69.6486C148.226 69.0936 148.779 71.7996 146.11 72.5943C142.923 73.3718 142.359 70.3784 145.244 69.6486V69.6486Z" fill="#A4B34F"/>
<path d="M47.849 102.918C49.0093 100.732 44.2106 97.8343 42.7973 99.5588C41.3444 101.73 46.5338 104.886 47.849 102.918V102.918ZM48.7695 98.4237C51.0212 102.102 55.5761 99.2886 53.751 95.7111C51.498 92.033 46.9351 94.8488 48.7695 98.4237ZM39.4834 93.4873C41.4702 96.7654 45.0662 94.6316 43.5894 91.4356C41.6583 87.8926 37.7748 90.1747 39.4834 93.4873ZM99.6278 44.3866C100.208 48.4131 98.2093 52.3535 96.9086 55.6793C93.4053 63.9336 88.5894 71.372 82.1841 77.1734C79.0053 80.0528 75.8026 82.1508 72.1497 84.0608C71.2543 84.8873 72.3086 86.0581 73.5616 86.0475C79.3576 86.9389 77.2371 85.9998 80.4251 87.7694C99.045 97.2078 124.221 95.9601 141.142 91.6992C136.25 97.4594 130.861 104.878 128.824 110.772C131.041 123.989 156.388 119.981 163.27 114.897C160.719 129.445 149.26 134.081 136.984 136.424C122.662 139.448 107.315 140.083 93.2079 137.395C77.2583 134.412 62.8079 126.818 52.9987 114.442C51.1033 113.293 48.9602 111.189 47.5059 110.038C40.2357 103.832 34.4146 98.1734 28.3642 91.0237C20.449 81.9932 10.5497 71.58 11.3046 58.7588C11.7483 49.2488 19.5788 41.233 25.1655 35.8237C32.6503 28.9058 41.5192 22.6171 50.8689 18.2488C59.951 14.0873 70.2848 13.3906 79.0238 15.0568H79.0079C89.7404 17.1151 99.1973 37.7402 99.6278 44.3866V44.3866Z" fill="#C9DE5F"/>
<path d="M139.54 78.9557C139.511 78.8669 139.275 78.0881 139.253 78.0352C143.346 79.0503 147.348 80.4038 151.217 82.0815C142.2 88.7159 145.158 89.0683 140.621 89.9053C140.928 86.2201 140.561 82.5099 139.54 78.9557Z" fill="#D97480"/>
<path d="M155.173 69.6678C152.11 68.9221 151.562 71.7513 154.31 72.6148C157.396 73.391 157.89 70.538 155.173 69.6678V69.6678ZM150.67 75.085C153.12 74.9725 153.054 72.0387 150.822 71.8374C148.132 71.7804 148.254 75.0387 150.665 75.085H150.67ZM145.249 69.6546C142.213 70.5089 143.13 73.2453 145.95 72.6427C149.016 71.7936 148.037 69.0638 145.244 69.6493L145.249 69.6546ZM144.02 69.2572C149.934 68.2135 156.073 68.2559 161.916 69.9062C168.936 71.7605 170.989 75.5234 174.777 76.1049C177.212 76.4254 179.444 74.5566 181.516 73.7367C185.538 71.9393 186.271 75.4294 186.177 78.1592C185.985 79.9142 186.089 80.6109 184.863 81.1142C182.807 82.3128 182.784 82.3234 181.189 81.6983C179.195 80.8731 177.185 79.5261 175.289 78.6095C172.343 77.2069 169.535 76.7062 166.298 76.7234C162.079 76.7619 157.514 78.3129 153.98 80.3579C152.788 81.2758 152.577 80.5274 151.463 80.1764C144.591 77.2294 137.32 75.3791 129.967 74.3619C134.265 71.8294 139.12 70.1433 144.014 69.2466L144.02 69.2572Z" fill="#B2C554"/>
<path d="M139.536 85.3013C139.777 91.3423 139.49 90.0297 138.42 90.4324C136.383 90.8973 133.983 91.3595 131.805 91.7026C131.673 86.4046 130.968 80.9529 128.861 76.0801C131.805 76.4655 135.218 77.043 137.965 77.7344C138.83 80.1737 139.359 82.7193 139.536 85.3013V85.3013Z" fill="#DDA2C2"/>
<path d="M121.942 88.4945C121.981 94.1422 122.154 92.57 120.312 92.9064C118.004 93.0309 114.445 93.0879 111.871 93.0071C113.339 87.4442 112.465 81.3634 110.026 76.1859C112.552 75.6945 115.405 75.4958 117.825 75.4442C118.418 75.4296 118.752 75.4349 119.204 75.4336C119.424 75.9634 119.656 76.5621 119.844 77.1091C121.134 80.8508 121.757 84.6336 121.942 88.4945Z" fill="#BCDCE3"/>
<path d="M128.988 79.6863C130.121 83.6002 130.6 87.5777 130.687 91.7393C130.808 91.9525 130.213 91.9115 130.185 91.9433C127.677 92.3009 125.38 92.5472 122.993 92.7274C123.377 86.8995 122.531 80.9035 120.415 75.4492C122.693 75.4876 125.244 75.6651 127.513 75.9181C128.212 77.0201 128.566 78.432 128.988 79.6863Z" fill="#EFE681"/>
<path d="M110.842 81.9516C111.622 85.4748 111.784 89.7662 110.679 92.9649C106.69 92.8201 102.715 92.4046 98.7813 91.7211C99.7349 88.1278 99.5151 83.7503 97.5442 80.8364C101.187 79.1423 104.961 77.3357 108.898 76.4258C109.767 78.1821 110.42 80.0377 110.842 81.9516Z" fill="#D97480"/>
<path d="M98.1973 87.0002C98.2688 88.542 98.0132 90.0466 97.7271 91.5314C92.2105 90.481 86.7218 88.8333 81.6833 86.3155C87.3337 85.6532 91.9761 83.2691 96.5575 81.3711C97.7218 83.0294 98.1098 85.0214 98.1973 87.0002Z" fill="#DDA2C2"/>
<path d="M53.7508 95.7111C55.6051 99.6025 50.7786 101.902 48.7693 98.4237C46.9018 94.5349 51.7428 92.2263 53.7508 95.7111V95.7111Z" fill="#B2C554"/>
<path d="M46.2768 99.7425C49.6384 102.066 47.7046 104.764 44.4636 102.921C40.8199 100.598 42.8901 97.6564 46.2768 99.7425Z" fill="#B2C554"/>
<path d="M40.1323 89.888C43.0157 88.5635 45.3707 93.435 42.8555 94.8919C39.98 96.2138 37.6224 91.3515 40.1323 89.888Z" fill="#B2C554"/>
<path d="M33.4846 100.316C33.5349 100.183 33.6448 99.8894 33.7018 99.7305C35.3243 101.413 37.3309 103.369 39.0369 104.97C29.8011 107.337 31.0753 107.25 33.4846 100.316V100.316Z" fill="#D97480"/>
<path d="M27.5496 21.0889C27.7456 21.2624 28.4423 21.6544 28.5125 21.8134C28.4819 22.5685 28.379 23.3189 28.2052 24.0544C27.4569 27.3577 25.2807 30.322 22.6874 32.5458C22.1655 31.3193 21.2807 29.9034 20.8635 28.763C23.3549 26.1961 24.992 22.8928 24.8437 19.3008C25.6953 19.8266 26.7033 20.5127 27.5496 21.0889V21.0889Z" fill="#DDA2C2"/>
<path d="M29.4979 95.174L30.6648 96.4852C21.3019 98.1382 20.0317 97.4309 24.0423 88.9355C25.8105 90.9514 27.7536 93.1329 29.4979 95.174Z" fill="#DDA2C2"/>
<path d="M34.172 26.037C30.4601 28.7058 26.9263 31.6139 23.5932 34.7429C23.4462 34.0105 22.5892 33.0423 23.2528 32.7813C26.315 30.1323 28.776 26.3363 29.0435 22.1602C30.7852 23.4118 32.4475 24.7509 34.2091 26.0012L34.172 26.037Z" fill="#D97480"/>
<path d="M20.9627 27.8257L20.5521 28.2734C19.7998 26.7065 18.7309 24.778 18.168 23.2138C19.4779 21.3396 20.6925 19.4124 20.817 17.1621C21.9176 17.6826 23.466 18.3038 24.2607 19.0389C24.4938 22.3979 23.0779 25.4217 20.9627 27.8257V27.8257Z" fill="#EFE681"/>
<path d="M17.8581 16.5022C18.5654 16.481 19.7866 16.6095 20.2634 17.032C20.2263 19.1406 19.0065 20.979 17.8965 22.6452C17.2621 20.9539 15.4462 16.6757 17.8581 16.5022Z" fill="#BCDCE3"/>
<path d="M194.769 124.453C195.356 124.718 195.983 124.883 196.624 124.941C196.257 123.817 195.961 122.663 195.479 121.543C194.712 122.28 193.216 123.699 194.769 124.453V124.453ZM190.361 119.691C191.479 119.753 192.613 119.267 193.656 118.824C192.544 117.601 191.309 116.497 189.969 115.529C189.536 116.826 188.555 119.531 190.361 119.691V119.691ZM185.726 110.552C190.854 113.631 196.481 117.201 197.936 122.922C198.162 120.793 198.087 118.643 197.711 116.536C196.732 109.202 193.96 106.663 191.457 102.724C189.76 105.486 187.938 108.357 185.346 110.324L185.726 110.552ZM185.078 116.067C186.119 116.106 187.495 114.707 188.103 114.213C186.897 113.418 185.55 112.593 184.295 111.862C184.342 113.402 184.266 115.519 185.078 116.067V116.067ZM9.66875 64.3878L9.75485 64.4249C9.16677 60.8487 9.27802 57.0911 10.2846 53.597C-1.53787 56.854 -0.121976 60.1639 9.66875 64.3878V64.3878ZM12.8356 47.6474L12.8807 47.7215C14.4131 45.0487 16.3363 42.5083 18.3548 40.1798C6.4714 36.0792 7.91114 38.7162 12.8356 47.6474ZM98.2038 87.7229C98.3363 84.3745 96.7072 80.9109 96.3429 81.4037C91.1297 83.8076 86.931 85.6288 81.6833 86.3189C86.7164 88.8354 92.2078 90.4818 97.727 91.5348C97.9495 90.3388 98.2105 88.9639 98.2038 87.7229V87.7229ZM32.1548 107.988C27.9164 107.581 31.4131 101.662 31.9495 99.6434C32.0741 99.1573 32.4674 98.5838 32.3469 98.3255C31.8688 97.6566 31.8025 98.0527 31.0595 98.1255C19.8277 100.418 17.8621 97.4964 22.731 87.7944C23.0052 87.4964 22.531 87.2871 22.2688 86.899C21.5416 86.0421 20.4939 84.7997 19.637 83.7202C16.5522 83.6924 13.1707 83.9321 10.1098 82.9732C4.01048 80.8633 9.5522 74.4659 11.9443 71.6209C10.0754 67.458 10.5787 66.3096 9.66875 66.1997C6.67802 64.9321 3.95617 63.7851 1.63167 61.5639C-3.63191 55.9202 6.282 52.8328 10.5482 51.7984C11.0992 51.846 11.1628 51.0037 11.3535 50.7109C11.5681 49.9441 12.1681 49.6421 11.7734 49.156C9.62504 45.4076 7.46213 41.7732 7.54955 39.1547C7.89392 34.1003 17.1628 38.1268 19.3178 38.7388C19.5297 38.7705 19.4873 38.9189 19.6489 38.7308C20.0688 38.2725 20.5231 37.7904 21.0423 37.258C21.0105 37.3388 21.7893 36.4633 21.8118 36.4752C21.9045 36.2937 22.3522 36.1719 22.0701 36.0023C21.4563 34.3148 20.727 32.6717 19.8873 31.0845C18.1456 27.5653 16.0913 23.9149 15.0992 20.1825C14.5893 18.1798 14.5085 15.8116 16.6436 14.9017C21.576 12.8699 33.1999 23.1613 35.776 24.9003C42.5509 20.2474 50.0939 15.7533 57.6727 13.8871C66.1032 11.6871 76.9747 11.9692 82.0436 14.0725C89.3284 17.3758 93.8317 25.209 96.8118 30.7785C99.7363 36.405 102.422 42.9295 101.315 48.8063C97.1456 63.2924 87.9813 77.2725 75.3204 84.4474C86.5111 86.0063 95.9032 78.6474 105.511 75.45C112.142 73.2924 118.667 73.3705 125.399 73.8474C126.181 73.9096 126.444 73.9401 127.032 73.9997C127.6 73.6288 128.14 73.2699 128.816 72.8699C140.63 65.7242 158.983 64.0898 170.073 71.5811C171.052 72.2434 172.25 73.1441 173.44 73.7149C176.428 75.503 179.226 72.1348 182.07 71.5679C187.475 70.2884 188.512 75.9666 187.883 79.6196C190.223 78.6985 192.876 79.0769 194.865 80.6156C199.934 83.8063 196.395 91.8739 195.013 95.6302C192.516 101.571 192.127 100.421 193.001 101.677C194.607 104.165 196.735 106.821 197.844 109.601C199.556 114.114 200.191 118.635 199.803 123.004C199.67 124.955 199.559 126.658 199.429 128.655C199.052 129.474 198.143 129.673 197.663 128.826C197.514 128.164 197.408 127.429 197.197 126.839C197.02 126.327 197.119 126.028 196.605 126.066C193.499 125.781 191.765 124.042 193.942 121.515C195.034 120.269 195.156 120.821 194.381 119.718C188.818 122.385 187.01 119.949 189.012 114.907C183.788 119.741 183.077 116.112 183.184 111.245C179.826 111.92 177.433 109.133 175.201 107.389C170.787 103.723 168.181 107.911 166.195 111.3C165.267 112.551 165.381 112.911 165.285 113.918C163.351 129.222 151.867 135.416 138.722 137.953C117.123 142.722 93.3615 142.292 74.0476 133.217C65.5482 129.308 57.8886 123.295 51.8608 116.08C47.9588 112.948 44.535 110.004 40.6515 106.474C40.5946 106.123 39.6555 106.576 39.2714 106.642C36.7747 107.261 34.6515 108.038 32.1548 107.988V107.988ZM32.4118 106.326C34.6409 106.282 36.8661 105.531 39.0343 104.977C37.3284 103.376 35.3257 101.421 33.6992 99.7374C33.237 101.446 30.5562 106.621 32.4118 106.319V106.326ZM128.988 79.6858C128.54 78.3083 127.744 75.7427 127.34 75.9017C124.691 75.6222 122.759 75.5043 120.414 75.4527C122.534 80.8977 123.371 86.9004 122.993 92.7308C132.852 91.7772 130.393 92.3202 130.626 89.9162C130.428 86.3321 129.952 83.0037 128.988 79.6858ZM23.5575 34.6527L23.5919 34.7533C26.9353 31.609 30.4825 28.6888 34.2105 26.0116C32.4966 24.7944 30.7668 23.4063 29.0449 22.1705C28.78 26.3891 26.2555 30.2116 23.135 32.899C22.7654 33.1639 23.0025 33.1268 23.0674 33.4129C23.2741 33.8937 23.3946 34.1719 23.5588 34.6474L23.5575 34.6527ZM21.8025 27.7003C21.576 28.0249 20.9615 28.5838 20.8343 28.8354C21.5164 30.1785 22.0926 31.3109 22.6793 32.5441C25.8356 29.8606 28.3575 26.0209 28.5072 21.7732C27.3482 20.9454 26.0568 20.0513 24.837 19.299C24.988 22.3441 23.731 25.36 21.8039 27.6951L21.8025 27.7003ZM110.776 77.9017C112.592 82.6566 113.196 88.0381 111.871 93.001C115.11 93.0845 118.51 93.0315 121.857 92.8076C122.061 91.1586 121.968 88.6593 121.857 87.1242C121.495 82.7984 120.73 79.2076 119.199 75.4328C116.144 75.4328 113.037 75.6156 110.021 76.1851C110.282 76.7003 110.561 77.356 110.776 77.9017V77.9017ZM138.683 75.9745C143.584 77.156 148.397 78.7215 153.042 80.8659C169.731 71.3825 177.739 80.8739 181.587 81.8354C183.044 82.6659 184.414 81.2249 185.723 80.6143C186.689 77.7917 186.437 72.005 182.201 73.4619C179.625 74.307 177.274 76.5321 174.613 76.0646C171.505 75.4434 169.436 73.0315 166.698 71.7109C154.91 66.0858 139.943 68.5229 129.972 74.3494C132.818 74.7282 135.885 75.3136 138.683 75.9745V75.9745ZM139.148 117.377C144.43 118.316 149.867 117.715 155.073 116.382C157.654 115.65 160.371 114.814 162.437 113.167C165.581 110.099 166.61 104.527 171.723 104.116C176.581 103.879 178.816 110.111 182.801 109.422C186.883 108.563 191.75 98.2964 192.442 96.8474C194.306 92.7215 197.694 84.3149 193.881 82.2076C192.509 81.064 190.65 80.6949 188.946 81.2275C186.657 81.8765 185.209 83.4249 183.091 83.9427C180.775 84.1441 178.164 82.1639 176.461 81.3388C173.31 79.4553 170.475 78.6672 167.086 78.5719C153.257 78.6633 144.098 90.3255 136.456 100.751C134.482 103.63 131.999 107.563 130.732 110.927C131.636 114.933 135.559 116.702 139.148 117.377V117.377ZM139.281 78.1136C140.5 81.9161 140.957 85.9221 140.625 89.9017C144.165 89.107 143.274 89.0103 144.969 87.3851C146.88 85.422 148.973 83.6441 151.218 82.0752C147.349 80.3978 143.347 79.0444 139.254 78.0288L139.281 78.1136ZM139.536 89.5772C139.801 85.5666 139.357 81.7215 137.98 77.7785C135.318 76.952 131.789 76.5215 128.861 76.0818C130.98 80.9613 131.666 86.4129 131.805 91.7043C140.34 90.2063 139.458 90.2951 139.536 89.5772V89.5772ZM100.347 91.9811C103.984 92.5109 110.927 93.2461 110.761 92.8249C111.65 89.6355 111.638 86.5388 111.09 83.2116C110.744 81.1787 110.149 79.1963 109.316 77.3096C108.82 75.9467 108.727 76.5732 107.783 76.703C104.312 77.6633 100.822 79.3043 97.5443 80.8368C99.6105 83.9851 99.6767 88.152 98.7813 91.7202C99.1085 91.7785 99.9999 91.9255 100.347 91.9811ZM22.4793 25.7944C23.7045 23.8407 24.3959 21.5374 24.2754 19.2037C24.2979 18.7176 23.9681 18.858 23.5125 18.507C22.6464 18.0014 21.7487 17.5519 20.825 17.1613C20.825 18.3533 20.2555 19.7017 19.7456 20.6977C19.2356 21.6937 18.637 22.5096 18.1562 23.2725C18.9019 24.9944 19.7456 26.6845 20.5482 28.2725C21.2701 27.5105 21.9168 26.6806 22.4793 25.7944ZM21.9125 95.5878C21.9456 98.4447 29.4423 96.6368 30.6648 96.4858C28.4926 94.0302 26.2184 91.3878 24.0423 88.9361C23.0926 91.0527 21.882 93.2156 21.9125 95.5878ZM17.7615 82.0633H18.3429C16.2529 79.3467 14.2727 76.3679 12.7284 73.2964C5.78928 81.5692 9.35087 81.9268 17.7615 82.0633ZM99.6833 46.9798C99.9588 40.9321 97.0131 35.1295 94.2794 30.001C90.739 23.4937 85.4052 16.3758 79.0078 15.0566H79.0237C65.6846 12.601 54.2409 15.6222 44.0568 21.8116C35.988 26.5798 28.3575 32.3229 21.7257 39.2394C17.5827 43.6951 13.486 48.8143 11.8741 54.8818C8.48597 69.5374 19.78 81.2209 28.8065 91.5308C35.6131 99.6659 43.9893 107.28 52.2807 114.03C53.3111 114.527 53.8303 115.539 54.4555 116.19C64.0939 127.376 77.0078 133.948 91.4237 137.033C107.352 140.363 124.128 139.511 140.397 135.657C152.583 133.148 161.368 126.594 163.275 114.892C155.352 120.588 129.765 123.451 128.911 110.312C131.92 103.352 136.339 97.3719 141.142 91.6964C121.212 96.699 96.4926 96.3057 79.7959 87.4381C78.9787 87.0672 78.6793 86.707 78.0131 86.5202C76.3285 86.4903 74.6509 86.2933 73.0052 85.9321C72.2515 85.899 71.3429 84.9573 72.0899 84.1136C72.9827 83.5348 74.1787 83.0169 75.0966 82.4222C77.0708 81.2424 78.9506 79.9112 80.7191 78.4408C93.8502 67.7454 99.8343 49.0474 99.6833 46.9798V46.9798ZM20.1019 18.3189C20.188 17.8977 20.3257 17.3772 20.2436 16.9401C19.6609 16.7189 19.0525 16.5724 18.433 16.5043C15.0741 16.0513 17.3986 21.2725 17.9032 22.6447C18.8197 21.3361 19.6595 19.8805 20.1019 18.3189V18.3189Z" fill="#5C3611"/>
<path d="M18.2569 82.0599C8.25562 82.0678 6.37615 81.036 12.7285 73.293C14.2662 76.3512 16.2569 79.3446 18.343 82.0599H18.2569Z" fill="#EFE681"/>
<path d="M18.0715 40.0785L18.3549 40.1791C16.3364 42.5036 14.4185 45.044 12.8807 47.7222C7.25557 37.7884 7.41716 36.5712 18.0715 40.0785V40.0785Z" fill="#D97480"/>
<path d="M9.617 63.4718C9.64614 63.6811 9.72163 64.24 9.75872 64.4255C-1.3234 59.7076 -0.345915 56.5632 10.2885 53.5977C9.36534 56.7672 9.2064 60.195 9.617 63.4718V63.4718Z" fill="#BCDCE3"/>
<path d="M72.1497 84.0569C72.1722 84.0383 72.1934 84.0198 72.2159 84.0039" stroke="black" stroke-linecap="round" stroke-linejoin="round"/>
<path d="M72.0899 84.1113C72.0667 84.1318 72.0454 84.1544 72.0264 84.1789" stroke="black" stroke-linecap="round" stroke-linejoin="round"/>
<path d="M71.9773 84.2461C71.955 84.2751 71.9363 84.3066 71.9216 84.3401" stroke="black" stroke-linecap="round" stroke-linejoin="round"/>
<path d="M71.8542 85.041C71.8701 85.0808 71.8847 85.1218 71.9033 85.1629" stroke="black" stroke-linecap="round" stroke-linejoin="round"/>
<path d="M71.8291 84.9238C71.8357 84.9583 71.8437 84.9914 71.8516 85.0245" stroke="black" stroke-linecap="round" stroke-linejoin="round"/>
<path d="M127.319 21.6416C116.856 21.1383 117.138 6.4522 127.319 6.08398C137.787 6.58597 137.501 21.2734 127.319 21.6416Z" fill="white" stroke="#5C3611" stroke-width="11.25"/>
<path d="M121.036 51.9898C108.305 51.3951 108.579 33.4786 121.036 33.0137C133.775 33.6084 133.494 51.5249 121.036 51.9898Z" fill="white" stroke="#5C3611" stroke-width="11.25"/>
<path d="M143.422 37.486C133.184 36.9919 133.473 22.633 143.422 22.2754C153.662 22.7694 153.377 37.1257 143.422 37.486Z" fill="white" stroke="#5C3611" stroke-width="11.25"/>
<path d="M115.616 37.85C114.339 39.4394 113.793 41.7944 114.73 43.7017C115.103 44.4474 116.236 43.9348 115.908 43.1454C115.155 41.6354 115.699 39.8341 116.716 38.5361C117.066 37.8738 116.111 37.2447 115.616 37.85Z" fill="#5C3611"/>
<path d="M139.003 25.7491C138.408 26.7313 138.097 27.8591 138.105 29.0073C138.105 29.7623 139.2 29.9054 139.393 29.1557C139.464 28.5862 139.404 28.1888 139.605 27.5663C139.738 27.0193 140.033 26.7146 140.216 26.1517C140.327 25.4802 139.375 25.1411 139.003 25.7477" fill="#5C3611"/>
<path d="M122.282 10.4952C121.54 11.5853 121.122 12.9879 121.375 14.3191C121.544 15.1363 122.771 14.931 122.657 14.0846C122.469 13.1085 122.776 12.1124 123.354 11.2409C123.87 10.5376 122.795 9.78397 122.282 10.4952Z" fill="#5C3611"/>
<path d="M170.513 111.717C171.947 111.717 173.11 113.959 173.11 116.725V137.698C173.11 155.824 159.656 161.274 151.979 161.274L114.947 161.497C114.964 161.526 114.927 161.598 115.032 161.598C111.016 161.55 102.959 161.55 98.9496 161.598C98.9752 161.598 98.9997 161.587 99.0163 161.567C99.0329 161.548 99.04 161.522 99.0357 161.497L62.0026 161.265C54.3271 161.265 40.8728 155.82 40.8728 137.689V116.729C40.8728 113.963 42.0357 111.721 43.4702 111.721L170.513 111.717Z" fill="#F1F2F3" stroke="#5C3611" stroke-width="14.07"/>
<path opacity="0.11" d="M172.465 119.776C172.536 119.346 172.753 118.953 173.079 118.664C172.596 116.453 172.044 114.272 171.87 112.027H41.4065C41.4595 115.757 41.6529 119.484 41.7946 123.211H172.641C172.349 122.09 172.289 120.921 172.465 119.776V119.776Z" fill="#5C3611"/>
<path d="M41.3243 107.164H172.653C175.122 107.165 177.123 109.167 177.123 111.636V113.878C177.123 116.347 175.122 118.349 172.653 118.349H41.3243C38.8548 118.349 36.8528 116.348 36.8528 113.878V111.636C36.8528 109.166 38.8548 107.164 41.3243 107.164Z" fill="white" stroke="#5C3611" stroke-width="14.07"/>
<path opacity="0.11" d="M93.8224 125.14C93.5575 123.651 92.3919 122.917 92.437 122.374C92.935 119.124 92.1376 116.265 91.0595 113.141C88.7879 106.905 83.8038 99.2204 78.9323 97.2244C78.3018 96.937 78.1509 96.9767 77.6171 97.3224C75.0687 98.7118 72.7018 99.9714 70.8913 102.311C70.5985 102.852 69.8992 103.252 69.9866 103.818C70.572 105.207 70.4926 107.21 69.1138 108.036C75.2833 110.893 75.7694 118.656 79.7098 123.508C80.0833 125.345 80.1191 129.948 83.0105 128.317C84.5469 127.305 83.9773 127.125 85.1376 127.371C87.0449 131.463 89.3893 130.5 89.6317 126.544C91.0237 126.962 94.1005 127.431 93.8224 125.14V125.14Z" fill="#5C3611"/>
<path d="M85.7972 124.489C79.7204 121.828 79.0555 114.025 75.3336 109.205C73.7959 107.097 71.4343 105.477 69.0621 104.713C68.5945 104.457 68.0449 104.666 68.0343 104.119C67.6925 101.868 68.5177 99.7484 70.2859 98.4239C72.2965 96.8888 74.821 97.3484 77.1204 97.0371C77.2528 97.4848 77.727 97.6874 78.1919 97.7232C85.7124 99.1205 99.2051 125.889 85.7972 124.489V124.489Z" fill="#C9DE5F"/>
<path d="M77.972 96.8695C77.8038 96.831 77.1985 97.2271 77.0952 96.9079C77.123 96.6774 76.9747 96.292 77.4012 96.2456C77.9495 95.9344 78.6383 96.488 77.972 96.8695V96.8695Z" fill="#5C3611"/>
<path d="M82.7125 126.558C83.1616 126.461 83.6278 126.069 83.9867 125.753C83.2137 125.254 82.4923 124.68 81.8331 124.039C82.0675 124.904 81.9708 126.142 82.7125 126.558ZM89.0702 126.815C89.1276 126.549 89.1687 126.28 89.1933 126.01C88.5111 126.162 87.8208 126.275 87.1258 126.349C87.7563 127.41 88.5788 128.914 89.0649 126.815H89.0702ZM93.0887 125.868C91.7523 126.106 90.1907 125.239 90.3245 125.745C90.0834 130.096 87.4238 129.82 85.9351 126.483C85.8609 126.249 85.5668 126.383 85.2887 126.28C84.9139 126.147 84.5668 126.849 84.2463 126.983C81.4265 129.102 80.9841 125.83 80.7086 124.088C80.5258 122.116 80.1192 122.185 79.49 121.133C78.5311 119.664 77.7867 118.02 77.1496 116.612C75.8039 113.599 74.6476 110.672 72.2053 108.559C70.7735 107.318 69.1139 106.593 67.3046 106.128C66.4225 105.933 66.3774 104.538 67.3271 104.321C67.2529 105.181 68.3284 105.513 68.094 104.41C71.5158 105.268 74.4483 107.467 76.2304 110.512C78.7589 114.668 79.7125 119.394 83.1178 122.688C84.7284 124.206 85.5721 124.778 87.3563 124.438C89.7576 124.264 90.9589 123.153 91.3298 121.126C92.3894 113.832 85.7854 103.459 82.0715 100.067C78.7682 96.9501 77.3867 98.1077 77.1218 97.0296C78.4808 97.0455 78.7112 95.8177 77.2079 96.276C78.5576 94.5289 83.143 98.3859 83.743 99.0892C89.3192 104.652 94.3099 115.342 93.1629 121.457C94.0635 122.963 95.9152 125.338 93.0887 125.868V125.868ZM92.9284 124.761C94.0768 124.804 93.0609 123.351 92.7496 122.884C92.4797 123.552 92.0794 124.16 91.5721 124.672C92.0184 124.761 92.4742 124.792 92.9284 124.765V124.761Z" fill="#5C3611"/>
<path d="M77.127 97.0368C75.2383 97.3123 73.2515 97.0024 71.4674 97.7587C68.7999 98.8885 67.5469 101.661 68.0913 104.413C67.8264 104.351 67.6621 104.265 67.3244 104.324C66.6078 95.4501 74.9257 96.8435 77.2131 96.2832C77.0805 96.5114 77.0493 96.7846 77.127 97.0368V97.0368Z" fill="#C9DE5F"/>
<path d="M67.7668 104.329C68.3138 104.294 68.2396 105.123 67.7403 105.123C67.3443 105.11 67.0635 104.054 67.7668 104.329Z" fill="#5C3611"/>
<path d="M83.8488 125.667C83.1299 125.184 82.4549 124.64 81.8315 124.039C82.2421 125.877 82.0739 127.526 83.9852 125.753C83.9733 125.744 83.9282 125.719 83.8488 125.667Z" fill="white"/>
<path d="M88.8383 126.093C88.3244 126.193 87.6635 126.281 87.1165 126.349C88.2979 128.481 88.8781 128.374 89.1827 126.01C89.1482 126.023 88.9151 126.076 88.8383 126.093Z" fill="white"/>
<path d="M93.4503 124.234C93.3271 123.77 93.0424 123.307 92.7483 122.885C92.4805 123.554 92.081 124.163 91.5735 124.675C92.0914 124.713 93.6689 125.099 93.4503 124.234V124.234Z" fill="white"/>
<path d="M46.3932 132.176C46.5773 143.853 52.4329 155.461 64.6952 156.71C67.0091 156.975 68.7866 156.465 68.5892 154.032C68.4316 152.993 67.6475 152.178 66.3177 152.303C58.3217 152.461 53.1283 145.681 51.629 138.695C50.8422 136.156 51.1548 132.56 50.5045 131.052C49.4621 129.383 46.3243 129.77 46.3932 132.176V132.176Z" fill="white"/>
<path opacity="0.11" d="M165.272 136.366C164.623 145.471 160.901 151.485 152.483 153.692C148.731 154.134 141.277 154.329 136.229 154.387C117.409 154.663 97.404 154.843 79.2146 153.959C79.2672 153.97 79.3212 153.974 79.3748 153.969C78.8429 153.816 78.2745 153.853 77.7669 154.073C76.8212 154.51 76.3099 155.574 76.3934 156.529C76.2106 159.396 85.392 158.588 87.0927 158.78C94.4993 158.863 101.977 159.018 109.422 159.007C151.713 158.835 154.265 159.108 160.514 154.872C166.44 150.814 168.417 145.733 169.293 139.537C169.359 138.138 170.03 136.667 169.486 135.337C168.109 133.207 165.456 134.145 165.272 136.365V136.366Z" fill="#5C3611"/>
<path d="M45.9881 42.1378C57.2186 56.2915 73.0477 44.7114 63.1788 30.0597C62.1497 28.5961 60.0464 29.7524 60.506 31.31C60.9907 32.3405 61.6371 33.0809 62.1099 34.212C63.3378 36.8345 63.9642 40.2107 62.2768 42.8928C58.4358 48.3816 51.445 44.4703 48.5298 40.5498C47.2278 38.5829 44.7828 40.4928 45.9841 42.1392" fill="#5C3611"/>
<path d="M53.8251 47.6834C54.5734 49.5522 53.8436 51.3046 53.4185 52.8953C54.2516 55.5761 55.3549 50.2768 55.2728 49.7165C55.2728 45.8953 53.6224 46.8847 53.8291 47.6887" fill="#5C3611"/>
<path d="M60.682 47.7751C61.4251 49.0731 61.7416 50.6546 62.0674 52.1102C64.2277 54.2148 62.3138 48.3632 62.0343 47.9804C61.5535 46.4069 60.3999 46.8797 60.682 47.7751" fill="#5C3611"/>
<path d="M64.159 44.7802C65.257 46.3961 67.1139 47.6027 69.1272 47.6199C69.8331 47.6133 69.8835 46.5603 69.147 46.5021C67.5179 46.5021 65.9881 45.4809 65.0729 44.1352C64.6543 43.5709 63.7696 44.1511 64.159 44.7802" fill="#5C3611"/>
<path d="M65.6185 40.8968C67.1469 41.4147 68.8132 40.8783 70.1456 40.0399C70.7443 39.6677 70.237 38.7405 69.5801 39.0756C68.5099 39.7379 67.2092 40.2531 65.9257 39.8227C65.2423 39.6465 64.9231 40.6531 65.6185 40.8968Z" fill="#5C3611"/>
<path d="M83.4727 59.8293C87.1668 64.5737 95.0846 58.6028 97.9734 56.6148C98.7231 56.0717 98.1323 54.8704 97.2396 55.13C96.4356 55.5366 95.6502 56.2624 94.9694 56.6545C93.3045 57.7419 91.9985 58.5313 90.1681 59.2757C88.5959 59.8598 86.425 60.526 85.0237 59.0744C84.3111 57.8598 82.8158 58.7499 83.4727 59.8293" fill="#5C3611"/>
<path d="M43.7483 29.3342C44.2278 26.5779 46.89 25.9793 48.9907 25.9991C49.5827 25.9991 49.7682 25.072 49.1086 24.8958C47.4794 24.8203 45.9112 25.1236 44.543 26.0455C41.9748 27.8905 42.5125 30.974 43.7483 29.3342" fill="#5C3611"/>
<path d="M78.2119 19.291C78.5854 20.4831 79.0821 22.8182 80.2742 23.7122C81.5854 24.7135 83.2185 23.5957 82.4146 22.0645C81.494 20.2844 79.7735 19.9228 78.2119 19.291V19.291Z" fill="#5C3611"/>
<path d="M53.8476 64.6109C47.7244 69.1513 44.1707 64.1169 49.7681 59.4745C55.8939 54.9341 59.4462 59.9672 53.8476 64.6109Z" fill="white"/>
<path opacity="0.85" d="M188.495 147.951C187.363 148.24 187.495 147.209 187.004 146.528C182.879 139.172 172.858 138.489 167.666 144.695C165.903 140.374 162.014 137.287 157.405 136.55C152.797 135.814 148.139 137.536 145.118 141.093C140.749 139.831 136.11 141.924 134.165 146.034C127.552 143.285 119.94 146.131 116.751 152.544C113.563 158.958 115.89 166.745 122.075 170.357C128.259 173.97 136.185 172.172 140.205 166.245C146.052 174.789 158.483 173.927 163.283 165.151C166.312 174.636 178.94 175.232 183.046 166.53C188.784 170.169 196.034 167.29 198.066 161.256C200.271 154.587 195.269 147.948 188.495 147.951V147.951Z" fill="white"/>
<path opacity="0.85" d="M188.331 138.601C187.642 138.8 187.605 138.217 187.326 137.703C184.397 132.241 177.024 131.763 173.294 136.247C170.441 129.405 161.596 128.256 157.011 133.645C154.107 132.752 150.799 134.175 149.377 136.692C149.046 137.188 149.102 137.211 148.935 137.143C149.275 136.861 149.2 137.028 149.102 137.211C145.638 135.779 141.621 136.519 139.036 138.742C134.653 142.351 134.368 149.015 138.147 152.994C142.518 157.698 150.06 156.894 153.469 151.801C157.718 158.005 166.702 157.302 170.134 151.007C172.336 157.894 181.471 158.245 184.4 152.004C188.442 154.578 193.554 152.633 195.14 148.488C196.985 143.628 193.334 138.595 188.331 138.601V138.601Z" fill="white"/>
<path opacity="0.85" d="M76.2172 138.642C75.8424 138.775 75.6874 138.398 75.5139 138.001C73.4914 134.234 68.4026 134.01 65.9126 137.032C63.9496 132.31 57.8463 131.59 54.7536 135.249C51.7232 134.514 50.6119 136.104 49.1735 137.633C46.9854 136.738 44.245 137.217 42.49 138.699C34.8993 145.793 46.2066 155.744 52.3218 147.699C55.2636 151.988 61.4291 151.422 63.743 147.157C65.2689 151.926 71.5576 152.073 73.5192 147.842C81.3324 151.849 84.6662 139.281 76.2172 138.642Z" fill="white"/>
<path opacity="0.85" d="M84.0607 149C83.1654 149.218 83.2568 148.543 82.8965 147.966C79.4872 141.609 70.927 141.014 66.5521 146.262C63.2713 138.389 53.1071 136.939 47.6938 143.113C44.1733 142.67 41.6501 143.155 39.4091 145.774C39.0658 146.192 38.7662 146.644 38.515 147.123C38.376 147.255 38.515 147.484 38.2131 147.319C34.2104 145.688 29.6038 146.605 26.5468 149.263C21.4833 153.557 21.2488 161.303 25.7521 165.904C30.8938 171.233 39.5111 170.257 43.4594 164.382C48.3932 171.586 58.8501 170.81 62.8647 163.455C65.4197 171.455 76.0462 171.906 79.4766 164.618C84.2289 167.637 90.2289 165.317 92.0303 160.396C94.0727 154.759 89.8409 148.99 84.0607 149V149Z" fill="white"/>
</svg>
