<svg width="200" height="256" viewBox="0 0 200 256" fill="none" xmlns="http://www.w3.org/2000/svg">
<g clip-path="url(#clip0_1_39539)">
<path d="M129.96 158.405C126.718 158.38 123.481 158.131 120.273 157.658C121.651 160.528 122.817 163.495 123.761 166.536C126.61 166.912 130.843 167.47 133.96 168.051C133.789 166.011 135.795 163.493 134.501 161.989C133.014 160.889 131.92 158.781 129.96 158.405V158.405Z" fill="#B55C3B"/>
<path d="M118.615 154.82C118.615 154.82 118.615 154.82 118.667 154.894C118.638 154.866 118.649 154.877 118.615 154.82Z" fill="#B55C3B"/>
<path d="M63.8689 168.147V168.357C65.9829 167.942 68.2222 167.56 70.5413 167.218C69.7037 163.924 71.7891 159.446 75.2991 158.152C73.3333 158.312 71.0427 158.414 68.792 158.375C63.8176 163.263 62.7635 162.699 63.8689 168.147V168.147Z" fill="#B55C3B"/>
<path d="M169.88 190.12C169.823 190.268 169.789 190.228 170.051 190.627C170.162 190.222 170.225 189.805 170.239 189.385C170.097 189.744 170.228 189.419 169.88 190.12Z" fill="#487AA6"/>
<path d="M162.61 183.635C163.903 182.649 167.829 184.416 169.402 185.504C168.171 182.957 165.635 180.518 161.863 178.262C161.823 180.29 159.544 182.666 162.61 183.635Z" fill="#487AA6"/>
<path d="M157.424 180.826C158.623 179.883 159.66 178.752 160.496 177.476C159.926 177.162 159.322 176.849 158.701 176.547C158.256 178.194 157.835 179.738 157.424 180.826Z" fill="#487AA6"/>
<path d="M124.171 167.801C124.61 169.077 125.111 170.747 125.618 172.604C127.687 172.883 130.746 173.311 133.157 173.744C132.746 172.684 134.935 169.185 133.009 168.958C130.199 168.467 127.311 168.052 124.131 167.664L124.171 167.801Z" fill="#487AA6"/>
<path d="M73.8973 172.192C72.1138 171.668 71.8118 168.415 70.2563 168.432C62.8488 169.52 64.1651 168.791 61.2876 174.819C64.7406 173.623 70.5753 173.868 73.8973 172.192Z" fill="#487AA6"/>
<path d="M51.6581 177.328C52.0057 176.9 52.3647 176.479 52.7293 176.063C50.6268 176.781 46.5071 177.772 45.0029 174.895C37.1396 178.085 32.0627 181.863 30.3191 185.84C34.3077 185.339 34.5071 181.852 37.7265 181.436C40.0057 182.046 40.4558 180.222 42.5869 179.231C45.8063 179.299 48.1994 178.695 51.6581 177.328V177.328Z" fill="#487AA6"/>
<path d="M159.367 187.634C160.422 187.349 161.128 186.911 159.669 186.181C160.649 186.244 161.692 187.583 159.464 188.273C160.074 189.982 157.225 191.691 159.157 193.481C159.453 187.714 166.114 189.372 159.641 185.965C159.675 186.386 158.94 186.552 159.367 187.634Z" fill="#ADD2E6"/>
<path d="M126.832 177.588C127.35 178.728 130.906 178.021 132.456 178.483C132.82 176.876 128.41 177.281 126.649 176.773C126.712 177.03 126.769 177.309 126.832 177.588Z" fill="#ADD2E6"/>
<path d="M72.3246 178.809C72.4557 178.131 72.5924 177.47 72.7349 176.814C68.7463 177.384 64.9286 178.04 61.3389 178.809C62.45 181.196 69.7833 178.564 72.3246 178.809Z" fill="#ADD2E6"/>
<path d="M48.7577 182.808C48.7899 182.614 48.8394 182.423 48.9058 182.238C48.393 182.688 47.9201 181.965 48.1252 183.15C48.1024 183.059 48.7235 183.116 48.7577 182.808V182.808Z" fill="#ADD2E6"/>
<path d="M125.618 172.604C125.59 176.997 129.698 175.72 132.763 176.592C132.849 175.982 132.997 174.945 133.157 173.743C130.9 173.344 128.205 172.957 125.618 172.604V172.604Z" fill="#3D6683"/>
<path d="M161.39 185.754C161.483 184.915 161.926 184.153 162.61 183.657C162.279 183.447 161.635 183.053 160.82 182.592C160.786 183.635 159.02 185.002 161.39 185.754V185.754Z" fill="#3D6683"/>
<path d="M72.9972 175.669C73.1568 174.99 73.4303 173.874 73.7664 172.654C69.1112 173.885 59.3619 172.962 60.8946 177.817C64.416 177.03 68.8776 176.227 72.9972 175.669V175.669Z" fill="#3D6683"/>
<path d="M49.3561 180.967C49.9579 179.662 50.7238 178.438 51.6353 177.326C49.8005 177.896 47.5099 178.711 45.6182 179.457C47.5327 180.056 46.8546 182.335 49.3561 180.967Z" fill="#3D6683"/>
<path d="M158.707 176.512C159.066 176.455 160.285 178.062 160.746 177.036C161.345 176.307 159.989 176.17 158.969 175.549C158.974 175.583 158.792 176.21 158.707 176.512V176.512Z" fill="#233651"/>
<path d="M161.869 178.244C166.889 181.805 171.407 184.763 170.063 190.643C173.681 197.315 164.404 204.398 158.963 206.939C159.124 207.238 159.254 207.553 159.35 207.879C163.436 205.84 166.535 203.617 168.564 201.27V201.304V201.275C160.957 235.412 138.758 252.085 104.951 254.193C67.1907 255.902 39.0312 238.888 31.2762 201.281L31.3047 201.31V201.275C34.3759 204.694 38.3873 207.047 43.7776 209.384C43.8266 209.004 43.9423 208.635 44.1195 208.295C38.1366 206.301 34.0397 202.09 29.3047 198.153C34.8375 218.911 39.1964 230.922 54.9742 242.318C92.2449 268.142 155.384 255.919 167.225 210.164C169.749 196.489 177.698 185.982 162.063 177.207C161.994 177.543 161.937 177.885 161.869 178.244V178.244Z" fill="#233651"/>
<path d="M31.9087 202.393C31.96 202.695 32.0283 202.991 32.0853 203.293C32.0739 203.139 32.0853 203.099 31.9087 202.393V202.393Z" fill="#233651"/>
<path d="M30.2904 185.852C35.5212 176.291 44.2277 177.55 45.1622 173.584C35.6181 177.367 29.9371 182 28.7349 186.98C29.2097 186.547 29.7315 186.169 30.2904 185.852V185.852Z" fill="#233651"/>
<path d="M123.749 166.518C124.809 169.15 131.413 167.999 133.789 169.099C133.578 168.261 134.769 168.067 133.111 167.879C129.738 167.287 127.311 166.991 123.749 166.518V166.518Z" fill="#233651"/>
<path d="M70.8831 168.336C70.5868 167.458 70.8489 166.957 68.8318 167.481C66.8489 168.301 63.8745 167.076 63.7549 169.566C65.6865 169.185 68.376 168.723 70.8831 168.336Z" fill="#233651"/>
<path d="M161.698 187.127C161.479 186.702 161.376 186.226 161.402 185.748C161.168 185.577 160.832 185.429 160.023 184.99C159.214 186.084 160.41 186.352 161.732 187.133L161.698 187.127Z" fill="#233651"/>
<path d="M72.735 176.81L72.9971 175.67C69.0997 176.194 64.6096 176.992 60.8945 177.818C61.282 178.029 60.5868 179.106 62.1196 178.65C65.4358 177.949 68.9059 177.368 72.735 176.81Z" fill="#233651"/>
<path d="M48.9117 182.217C49.0374 181.793 49.1858 181.376 49.3561 180.969L47.7322 181.539C47.8756 181.859 47.9864 182.193 48.0627 182.536C48.0627 182.536 48.678 182.336 48.9117 182.217V182.217Z" fill="#233651"/>
<path d="M126.37 175.611C126.501 177.72 130.661 176.962 132.587 177.663C133.333 175.577 128.205 176.25 126.37 175.611Z" fill="#233651"/>
<path d="M126.923 178.045C126.923 179.561 130.142 178.66 131.618 179.15C131.96 179.088 132.473 179.629 132.456 178.478C131.128 178.347 128.94 178.187 126.923 178.045V178.045Z" fill="#B5DBE7"/>
<path d="M117.744 198.546C119.453 199.27 119.117 199.23 117.14 198.66C115.704 198.66 113.339 199.082 111.265 199.23C112.359 201.862 116.028 198.409 118.621 204.13C119.932 202.516 121.992 201.706 124.051 201.993C123.972 201.228 124.037 200.455 124.245 199.714C122.171 199.652 119.761 198.347 117.744 198.546V198.546Z" fill="#B5DBE7"/>
<path d="M81.4814 199.02C81.3959 199.02 81.4301 199.02 81.0654 199.082L81.4985 199.253C81.4985 199.225 81.4985 199.253 81.5555 199.037H81.4814V199.02Z" fill="#B5DBE7"/>
<path d="M72.7805 200.968C72.7808 201.781 72.6099 202.585 72.2791 203.327C74.5013 203.703 74.3531 200.723 76.4386 199.572C75.1925 199.758 73.9369 199.872 72.6779 199.914C72.7451 200.262 72.7794 200.614 72.7805 200.968Z" fill="#B5DBE7"/>
<path d="M159.499 188.382L159.47 188.268C156.997 189.177 154.418 189.765 151.795 190.017C151.861 190.366 151.895 190.721 151.897 191.077C153.982 190.014 156.514 190.416 158.165 192.074C158.906 191.094 159.635 189.624 159.499 188.382V188.382Z" fill="#B5DBE7"/>
<path d="M159.368 187.635C159.328 187.476 159.368 187.635 159.18 187.1C159.088 187.316 158.986 187.533 158.889 187.749L159.368 187.635Z" fill="#B5DBE7"/>
<path d="M81.1054 199.013L80.5356 198.957C80.6781 198.905 80.6667 199.088 81.1054 199.013Z" fill="#B5DBE7"/>
<path d="M99.4472 203.766C99.4416 203.691 99.4416 203.614 99.4472 203.539C99.5725 203.493 98.8888 203.926 99.4472 203.766Z" fill="#B5DBE7"/>
<path d="M72.2165 179.373C72.2165 179.327 72.2507 179.207 72.3248 178.803C68.9744 179.122 66.0228 179.475 62.604 179.942C64.7635 181.031 69.208 179.287 72.2165 179.373Z" fill="#B5DBE7"/>
<path d="M48.4329 185.429C48.9058 184.911 48.4614 184.165 48.7577 182.939C48.1879 182.985 47.3503 184.449 48.4044 185.475C48.3816 185.464 48.4329 185.481 48.4329 185.429Z" fill="#B5DBE7"/>
<path d="M117.031 198.62C115.749 198.095 111.134 196.671 113.043 193.993C112.154 193.622 112.142 192.073 110.416 192.62C106.307 193.047 102.176 193.238 98.0454 193.189C99.9653 194.444 101.177 196.535 101.31 198.825C103.749 196.358 108.718 196.215 111.276 199.229C113.043 199.058 114.758 198.859 117.031 198.62V198.62Z" fill="#9BC3D6"/>
<path d="M85.9315 192.354C82.6722 195.157 78.7349 197.413 73.6751 198.052H74.2449C73.5659 198.234 72.8746 198.367 72.1765 198.45C73.0825 202.034 77.9942 197.795 81.1338 198.98C82.4215 197.413 84.0227 194.576 86.9002 194.695C86.7723 194.236 86.5128 193.824 86.1537 193.51C86.9344 193.51 86.3133 194.707 88.3702 194.809C89.0169 194.007 89.8145 193.339 90.7178 192.844C89.1566 192.712 87.8859 192.593 85.9315 192.354V192.354Z" fill="#9BC3D6"/>
<path d="M127.065 178.764C127.396 182.251 127.789 179.561 131.937 181.265C132.028 180.781 132.131 180.325 132.33 179.225C131.054 179.083 129.008 178.918 127.065 178.764V178.764Z" fill="#9BC3D6"/>
<path d="M139.185 189.674C139.367 190.044 139.544 190.415 139.709 190.774C139.73 190.439 139.774 190.105 139.84 189.776L139.185 189.674Z" fill="#9BC3D6"/>
<path d="M70.4045 180.627C70.7748 180.353 71.601 180.228 72.2164 179.373C69.1908 179.669 66.5184 179.988 63.4187 180.461C65.1053 181.567 67.9828 181.345 70.4045 180.627V180.627Z" fill="#9BC3D6"/>
<path d="M81.4016 199.002H81.4814C81.4814 198.962 81.5612 199.099 81.5896 198.934L81.4016 199.002Z" fill="#9BC3D6"/>
<path d="M48.6494 185.186C48.6095 185.345 48.0796 185.396 48.7748 185.898C48.7235 185.653 48.6779 185.413 48.6494 185.186Z" fill="#9BC3D6"/>
<path d="M161.071 208.547C159.322 208.929 159.407 211.088 158.103 212.479C159.761 213.105 160.182 210.068 161.071 208.547Z" fill="#61A3D0"/>
<path d="M146.473 214.666C118.724 223.481 62.1425 223.213 38.6382 208.398C39.5271 210.507 40.5354 212.564 41.6581 214.558C46.8547 210.364 53.8917 216.005 51.1624 221.92C51.9875 222.507 52.4737 223.46 52.4646 224.473C52.4555 225.486 51.9523 226.43 51.1168 227.002C76.7066 252.592 128.866 250.826 151.504 223.914C150.671 223.469 150.113 222.64 150.014 221.701C149.914 220.761 150.287 219.834 151.009 219.225C148.815 217.783 149.254 213.641 152.296 212.957C150.849 212.803 148.581 214.245 146.473 214.666V214.666Z" fill="#61A3D0"/>
<path d="M154.746 219.497C154.797 219.547 154.841 219.602 154.877 219.663L155.191 219.195C155.051 219.308 154.902 219.409 154.746 219.497Z" fill="#61A3D0"/>
<path d="M167.761 202.655C156.416 271.84 42.9744 270.928 32.0228 202.843C32.0228 202.991 32.0855 203.139 32.1083 203.293C32.0513 202.991 31.9829 202.723 31.9316 202.393C41.812 271.783 157.43 272.108 167.778 202.632L167.761 202.655Z" fill="#61A3D0"/>
<path d="M155.39 213.795C155.493 213.869 155.59 213.951 155.681 214.04L155.897 213.652C155.71 213.695 155.519 213.725 155.328 213.744L155.39 213.795Z" fill="#61A3D0"/>
<path d="M99.8746 245.168C80.4045 245.168 62.9173 238.701 51.1167 227.014C49.2592 228.513 47.3618 226.376 46.0797 225.39C44.5848 225.487 43.1043 225.049 41.9031 224.154C35.4301 217.664 43.4244 215.954 40.8318 213.048C39.0769 207.288 34.262 206.165 31.9373 202.41C42.7635 271.219 156.461 271.726 167.761 202.655C165.618 206.045 160.45 207.783 159.157 212.621C162.957 214.273 160.028 219.886 156.433 217.402C156.279 218.108 155.584 218.724 154.877 219.681C155.411 220.368 155.601 221.26 155.395 222.105C155.189 222.95 154.608 223.654 153.818 224.017C152.199 224.678 151.538 223.305 150.234 225.35C138.097 238.342 120.621 245.065 99.8746 245.168V245.168ZM148.387 235.253C144.815 235.162 144.729 229.84 148.387 229.664C151.96 229.749 152.04 235.071 148.387 235.253Z" fill="#487AA6"/>
<path d="M159.35 207.885C159.491 208.387 159.543 208.909 159.504 209.429C162.883 207.549 166.912 204.728 168.57 201.275V201.304V201.27C166.689 203.48 163.35 205.885 159.35 207.885V207.885Z" fill="#44738A"/>
<path d="M99.9373 218.461C59.9943 218.518 52.0228 209.498 48.1196 212.911C79.0484 223.51 122.16 223.213 152.046 212.797C150.934 211.396 150.558 211.213 148.302 212.165C135.174 216.205 117.949 218.473 99.9373 218.461V218.461Z" fill="#44738A"/>
<path d="M31.9373 202.404C34.359 206.107 39.3447 209.139 44.0399 211.241C43.3732 210.842 44.6097 209.714 43.0143 209.065C37.5727 206.557 34.8034 205.002 31.2878 201.275V201.31L31.2593 201.281C31.4563 201.663 31.6731 202.033 31.9088 202.392L31.9373 202.404Z" fill="#44738A"/>
<path d="M165.054 199.64C164.864 199.64 164.673 199.628 164.484 199.606C164.285 205.43 160.348 204.683 156.741 204.877C159.225 206.814 158.974 206.94 159.709 206.586C157.459 205.259 158.268 205.817 158.974 206.962C164.524 203.857 167.493 202.096 169.732 197.355C168.614 198.805 166.884 199.65 165.054 199.64Z" fill="#61A3D0"/>
<path d="M44.1025 208.295C45.7664 205.167 50.9743 206.665 50.1994 210.546C74.0228 218.181 108.667 219.321 135.538 214.192C139.134 212.882 151.863 212.227 150.262 208.494C149.037 208.039 148.37 209.024 147.105 210.022C144.826 211.372 142.228 211.11 140.04 209.247C139.241 210.347 138.033 211.079 136.688 211.28C135.343 211.48 133.974 211.132 132.889 210.312C131.527 213.942 129.191 212.232 126.792 212.494C124.365 214.489 121.231 213.805 118.815 211.999C117.054 215.036 112.832 216.614 110.057 213.372C109.388 214.299 108.317 214.852 107.174 214.861C106.031 214.87 104.951 214.334 104.268 213.418C101.464 216.409 97.5384 215.098 94.906 212.779C92.6268 215.674 88.8091 213.993 86.1766 213.828C84.6496 215.44 83.0427 213.788 81.3561 214.158C80.4481 214.633 79.3799 214.696 78.4228 214.329C77.4658 213.963 76.7121 213.204 76.3533 212.244C74.5014 213.634 71.0028 213.383 69.453 211.047C68.2564 212.016 65.6125 211.919 64.49 210.141C62.4216 212.113 58.1424 211.6 56.7464 208.58C54.1994 210.7 49.7094 209.503 48.8148 205.731C48.7179 205.702 48.678 205.697 48.1652 205.514C44.8903 206.602 41.3171 205.09 39.8176 201.982C35.6809 204.386 34.5527 199.332 31.0769 199.195C33.886 203.349 38.98 206.033 44.1025 208.312V208.295Z" fill="#61A3D0"/>
<path d="M95.2933 212.781L95.1224 212.553C95.0483 212.621 95.1224 212.553 94.9001 212.781H95.2933Z" fill="#233651"/>
<path d="M118.895 211.965H119.009C118.9 211.851 118.792 211.743 118.695 211.629C118.644 211.754 118.695 211.686 118.553 212.016C118.668 212.009 118.782 211.992 118.895 211.965V211.965Z" fill="#233651"/>
<path d="M40.131 202.142C40.131 202.142 40.131 202.097 40.0171 201.857C39.9547 201.905 39.8879 201.947 39.8176 201.983L40.1367 202.142H40.131Z" fill="#233651"/>
<path d="M48.8147 205.727C48.7584 205.504 48.7184 205.277 48.695 205.049L47.96 205.442C47.9941 205.442 48.4671 205.63 48.8147 205.727V205.727Z" fill="#233651"/>
<path d="M138.085 213.675C110.963 219.407 74.6494 218.404 50.1992 210.546C50.1028 210.93 49.9492 211.297 49.7434 211.635C76.7406 220.7 123.458 220.791 150.798 211.361C150.634 211.052 150.5 210.728 150.399 210.393C146.361 211.724 142.25 212.82 138.085 213.675V213.675Z" fill="#233651"/>
<path d="M123.117 197.486C121.242 196.711 117.687 196.825 116.348 194.329C115.635 194.711 114.313 194.54 113.134 194.152C112.353 196.249 115.071 197.309 117.692 198.528C120.006 197.873 124.08 201.668 125.054 197.913C124.444 197.782 124.604 197.862 123.117 197.486Z" fill="#9BC3D6"/>
<path d="M116.809 194.125C116.9 194.45 117.065 194.524 117.949 194.826C117.949 194.256 118.006 193.641 118.08 193.02C117.744 193.478 117.31 193.855 116.809 194.125Z" fill="#9BC3D6"/>
<path d="M133.818 181.156C135.094 176.187 137.35 167.839 138.513 164.159V164.21V164.164C137.778 168.876 136.866 176.193 136.205 181.828C136.847 179.905 138.803 178.745 140.798 179.104C141.715 176.825 143.117 172.267 143.801 169.988C144.123 172.102 144.16 174.251 143.909 176.375C151.385 173.173 148.866 185.953 143.208 180.364C143.732 181.754 144.712 183.782 143.151 185.606C144.615 185.657 146.114 181.765 146.074 181.777C146.073 181.79 146.073 181.803 146.074 181.817V181.777C145.808 182.901 145.438 183.998 144.969 185.053C145.698 184.58 147.584 185.748 148.467 185.247C151.192 181.315 153.635 177.194 155.778 172.916C156.866 181.116 145.715 194.757 155.778 185.743C155.548 186.645 155.235 187.525 154.843 188.369C159.499 189.013 159.829 181.839 160.923 178.404C159.094 181.059 156.308 182.728 154.416 183.828C157.527 180.728 157.989 174.586 159.806 169.292C158.889 170.694 157.761 171.999 157.368 172.107C157.624 171.27 156.604 168.523 156.513 168.278C156.256 168.802 155.658 170.039 155.373 170.688C155.373 169.743 154.04 166.82 153.909 166.814C153.436 169.144 150.336 173.851 149.727 174.449C150.65 172.324 148.268 164.586 148.205 164.386C147.804 165.392 147.33 166.367 146.786 167.304C146.501 166.797 146.319 164.763 146.296 164.398C144.587 165.429 141.048 170.141 141.031 170.21C140.114 167.931 142.353 160.392 142.992 159.48C141.892 160.05 138.484 163.156 138.462 163.235C138.509 162.182 138.654 161.134 138.895 160.107C134.547 162.688 134.997 168.506 134.177 173.116C134.444 176.027 131.846 180.198 133.607 182.295C133.59 181.971 133.641 181.817 133.818 181.156Z" fill="#B55C3B"/>
<path d="M136 183.139C135.464 184.159 136.365 185.139 137.288 186.375C137.35 185.64 135.875 184.614 136 183.139Z" fill="#B55C3B"/>
<path d="M140.49 187.212C140.353 187.44 140.211 187.668 139.789 188.289C140.53 188.568 140.621 187.588 141.385 186.848C141.242 187.007 141.157 186.694 140.49 187.212Z" fill="#B55C3B"/>
<path d="M138.353 160.415C138.508 160.275 138.674 160.147 138.849 160.033C138.61 161.061 138.465 162.108 138.416 163.161C138.382 163.196 141.362 160.312 142.946 159.406C142.302 160.432 140.097 167.418 140.986 170.136C141.134 169.97 144.16 165.703 146.251 164.324C146.319 164.603 146.313 166.233 146.741 167.23C147.292 166.297 147.766 165.321 148.16 164.312C148.222 164.512 150.604 172.25 149.681 174.375C150.279 173.68 153.185 169.572 153.863 166.74C154.564 167.941 155.059 169.25 155.328 170.614C155.618 169.999 156.137 168.905 156.467 168.204C156.501 168.358 157.55 170.979 157.322 172.033C162.735 167.475 160.991 153.646 171.852 160.386C165.675 146.278 160.576 152.945 150.564 155.691C146.24 156.946 141.806 157.787 137.322 158.204C136.699 159.767 136.189 161.372 135.795 163.007C136.359 162.392 137.544 161.121 138.353 160.415V160.415Z" fill="#F7E3CA"/>
<path d="M154.632 188.37C155.162 188.313 155.607 186.37 155.812 185.715C154.775 186.644 154.165 187.259 152.746 188.524L154.632 188.37Z" fill="#CE6A4E"/>
<path d="M152.524 185.835C154.376 182.211 155.909 177.345 155.812 172.895C153.617 177.279 151.105 181.497 148.296 185.516C149.513 186.104 150.522 187.048 151.191 188.222C151.567 187.612 151.931 187.014 152.524 185.835Z" fill="#CE6A4E"/>
<path d="M143.225 180.335C141.516 176.398 145.259 178.814 143.795 169.971C143.117 172.176 141.909 176.239 140.792 179.088C141.711 179.317 142.535 179.827 143.151 180.546L143.225 180.335Z" fill="#CE6A4E"/>
<path d="M139.789 188.291C140.068 187.895 140.325 187.484 140.558 187.06C139.433 187.2 138.299 186.866 137.43 186.137C137.254 186.826 138.359 188.604 139.789 188.291V188.291Z" fill="#CE6A4E"/>
<path d="M146.097 181.766V181.806C146.095 181.792 146.095 181.779 146.097 181.766C145.613 182.957 145.022 184.101 144.33 185.184C145.498 185.15 145.96 182.062 146.097 181.766Z" fill="#CE6A4E"/>
<path d="M135.994 183.076C136.832 177.332 137.704 169.298 138.524 164.164V164.209V164.158C137.236 168.266 134.957 176.745 133.55 182.221C134.36 182.853 135.106 183.563 135.778 184.341C135.874 183.923 135.946 183.501 135.994 183.076V183.076Z" fill="#CE6A4E"/>
<path d="M139.185 189.674C140.205 189.89 139.658 189.634 140.325 188.341C139.92 188.301 139.066 188.232 138.37 188.158C138.553 188.454 138.672 188.745 139.185 189.674Z" fill="#88ACBC"/>
<path d="M155.687 188.238C154.359 188.409 153.407 188.483 151.373 188.62C150.234 191.783 164.889 187.748 159.658 186.176C161.237 186.854 159.863 187.823 157.852 187.942C156.986 188.033 157.162 188.062 155.687 188.238Z" fill="#88ACBC"/>
<path d="M81.9999 194.359C82.2051 194.27 82.3968 194.153 82.5697 194.012C82.3703 194.012 82.1709 194.052 81.9714 194.057L81.9999 194.359Z" fill="#9BC3D6"/>
<path d="M81.6353 158.228C91.151 162.518 84.9117 177.362 74.7977 172.729C74.2849 174.575 73.8347 176.444 73.4302 178.456C74.9743 178.376 73.0256 181.031 74.7179 181.493C80.3134 185.977 78.7977 181.122 84.0798 183.031C89.0769 165.715 103.499 157.174 113.538 177.06C117.402 171.088 126.291 174.752 125.145 181.487C127.783 181.156 124.934 175.892 124.855 173.903C122.712 168.074 121.179 156.461 116.308 156.94C114.752 156.758 113.385 155.977 112.051 156.08C107.305 159.208 102.296 162.262 96.2108 160.336C87.0142 156.877 89.0313 154.553 80.6154 157.846C81.0769 158.005 80.7521 157.886 81.6353 158.228V158.228Z" fill="#B55C3B"/>
<path d="M118.689 189.88C118.998 188.738 119.428 187.632 119.972 186.581C118.817 186.76 117.636 186.625 116.553 186.188C116.37 187.527 118.291 188.239 118.689 189.88Z" fill="#B55C3B"/>
<path d="M73.7663 172.649C73.1964 174.62 72.6267 176.962 72.1936 179.526C74.0056 178.569 73.7264 176.415 74.3987 174.301C74.5526 173.162 75.356 172.831 73.8973 172.176C73.8859 172.227 73.8574 172.33 73.7663 172.649V172.649Z" fill="#502C20"/>
<path d="M84.1082 183.031C85.5804 183.681 86.7168 184.913 87.2461 186.433C87.7754 187.953 87.6501 189.624 86.9002 191.048C95.014 191.606 103.157 191.606 111.271 191.048C110.997 188.541 114.068 185.948 116.752 187.452C116.245 185.213 112.097 183.732 112.638 180.353C112.67 179.197 112.989 178.067 113.567 177.065C112.998 175.9 112.365 174.768 111.669 173.675C101.607 158.085 88.6381 167.048 84.1082 183.031V183.031Z" fill="#F7E3CA"/>
<path d="M103.704 193.087C106.376 193.019 109.066 192.762 111.681 192.517C111.943 189.743 104.234 191.999 98.718 191.48C94.6439 192.136 87.567 189.657 85.9487 192.375C88.9117 193.213 91.5556 192.272 94.7977 192.045C98.0741 193.03 100.114 193.492 103.704 193.087Z" fill="#88ACBC"/>
<path d="M121.413 186.176C119.094 192.603 128.923 198.626 134.518 192.871C138.12 187.019 132.45 178.398 124.741 182.854C124.062 184.321 122.882 185.499 121.413 186.176V186.176Z" fill="#B55C3B"/>
<path d="M64.45 183.993C60.5355 180.688 52.9914 180.426 57.4586 187.156C55.9771 185.948 55.5612 182.637 57.9543 181.617C57.4771 182.9 57.7563 184.343 58.678 185.355C61.3218 182.768 62.9686 186.05 64.45 183.993Z" fill="#E4CF37"/>
<path d="M56.4101 181.943C59.6694 178.114 63.9087 185.977 66.8204 181.886C60.1594 181.396 58.7976 176.98 61.9258 172.199C60.6381 173.584 58.5925 174.131 56.2278 174.074C54.0227 177.795 48.8204 182.621 52.1139 187.749C53.4755 187.1 54.988 186.832 56.4899 186.974C55.5213 185.874 54.9913 183.476 56.4101 181.943Z" fill="#E4CF37"/>
<path d="M49.4984 182.649C50.1879 179.276 53.4072 176.922 55.4243 173.771C52.2676 177.464 46.1879 183.652 50.826 188.546C49.4832 186.898 48.9917 184.714 49.4984 182.649V182.649Z" fill="#E4CF37"/>
<path d="M73.1907 179.487C72.6777 179.926 72.1309 180.324 71.5554 180.677C72.2314 180.747 72.8992 180.88 73.5497 181.076C73.5621 180.457 73.5431 179.837 73.4927 179.219L73.1907 179.487Z" fill="#E4CF37"/>
<path d="M73.4416 178.461C72.5528 179.342 71.5272 180.073 70.4045 180.626C71.3618 180.763 72.3419 180.37 73.4929 179.202C73.7664 179.549 72.9914 181.105 74.1025 181.23C73.9373 180.888 74.5983 178.529 73.4416 178.461V178.461Z" fill="#A27534"/>
<path d="M53.715 174.865C52.4215 176.068 45.2364 177.709 45.5839 173.908C44.9002 177.327 52.8318 176.569 54.2221 174.375C54.0729 174.558 53.9027 174.723 53.715 174.865Z" fill="#B55C3B"/>
<path d="M46.0284 174.672C48.7215 176.155 52.0851 175.549 54.0911 173.219C52.5799 172.323 51.4796 170.871 51.0256 169.174C50.1424 170.581 44.5241 173.088 46.0284 174.672ZM46.8147 173.117C48.0541 172.012 49.3553 170.979 50.7122 170.023C50.017 171.225 47.8632 173.077 46.1538 173.778L46.8147 173.117Z" fill="#B55C3B"/>
<path d="M45.0713 173.755C43.7208 178.472 56.1824 176.974 54.7579 173.527C54.1482 176.427 44.5015 177.766 45.6411 173.783C46.3761 172.284 50.718 170.638 50.8775 168.535C49.8918 169.572 45.51 172.78 45.0713 173.755V173.755Z" fill="#502C20"/>
<path d="M56.114 184.854C56.9915 177.339 62.2621 184.501 64.8604 183.549C62.9459 182.98 61.0085 180.621 58.3818 180.9C56.0114 180.837 53.698 186.33 57.3903 187.139C56.7301 186.535 56.2825 185.733 56.114 184.854V184.854Z" fill="#A27534"/>
<path d="M57.8575 181.902C57.8837 181.807 57.916 181.714 57.9543 181.623C56.017 182.558 55.4643 185.378 57.4985 187.173C59.5441 184.518 57.3332 185.315 57.8575 181.902Z" fill="#D0B53A"/>
<path d="M64.8376 192.233C66.3418 196.9 75.7663 196.29 77.6809 192.262C73.5954 187.099 78.5926 185.72 76.7749 184.068C73.6239 180.866 66.5185 180.473 64.8091 185.977C66.8376 188.262 64.547 189.869 64.8376 192.233V192.233Z" fill="#B55C3B"/>
<path d="M51.1681 183.065C51.6012 179.777 54.5356 177.082 56.3362 173.994C56.0365 173.948 55.7411 173.878 55.453 173.783C52.5356 177.686 46.4559 183.003 50.8262 188.547C51.2403 188.258 51.6745 187.999 52.1254 187.772C51.2221 186.381 50.88 184.699 51.1681 183.065Z" fill="#D0B53A"/>
<path d="M54.7463 173.527C53.8631 172.918 53.9428 174.097 51.5782 174.98C50.5639 175.191 46.1822 176.468 45.6579 173.772C44.6494 177.208 53.5098 176.998 54.7463 173.527Z" fill="#944B33"/>
<path d="M47.0029 173.366C47.8861 172.797 49.8063 171.56 50.7237 170.027C49.3448 171.064 47.4701 172.307 46.1653 173.805C46.2052 173.788 46.2622 173.788 47.0029 173.366Z" fill="#DB9D89"/>
<path d="M62.2165 164.101C57.5783 158.016 48.6723 164.101 52.1994 170.552C56.7008 177.777 66.6666 170.631 62.2165 164.101ZM52.5926 166.307C52.4672 166.62 52.3817 166.985 52.2165 167.577C51.4245 165.07 53.9658 161.725 57.3447 161.976C55.6923 162.911 53.6182 163.594 52.5926 166.307V166.307ZM56.5812 167.19C56.4672 168.62 53.527 168.329 54.4387 166.375C54.7436 165.922 55.3206 165.739 55.8308 165.933C56.341 166.128 56.6497 166.649 56.5755 167.19H56.5812ZM63.0883 168.54C62.6268 172.95 55.9772 175.235 52.906 171.144H52.9401L52.9117 171.11C58.0968 175.099 65.0427 168.438 60.9401 163.053L60.9743 163.082V163.047C62.5817 164.389 63.3794 166.468 63.0826 168.54H63.0883Z" fill="#E4CF37"/>
<path d="M51.0198 169.139C51.1224 171.732 54.3418 172.461 54.9344 174.268C50.6381 178.188 46.1594 182.667 50.376 188.883C50.4899 188.803 50.4045 188.849 50.678 188.649C46.4443 183.043 51.903 178.04 55.3959 173.789C57.6804 174.512 60.1772 173.913 61.8859 172.233C57.8062 177.612 62.2392 183.271 67.8062 181.316C53.3275 180.541 67.0996 170.775 62.98 164.262C59.4871 158.085 49.3902 161.407 51.0198 169.139V169.139ZM60.8261 172.393C54.507 176.581 48.074 168.085 53.3674 163.105C59.829 157.544 67.2933 167.578 60.8261 172.393Z" fill="#A27534"/>
<path d="M55.4187 165.811C54.0683 165.691 53.7948 168.363 55.6467 168.118C56.7236 168.038 56.98 165.947 55.4187 165.811ZM55.0085 167.115C54.262 167.115 54.8717 165.623 55.413 166.711C55.3959 166.853 55.3789 166.95 55.0085 167.127V167.115Z" fill="#51402E"/>
<path d="M60.9685 163.07V163.104L60.9343 163.076C64.8375 168.369 58.5583 175.156 52.9058 171.133L52.9343 171.167H52.9001C57.9657 177.424 67.4813 169.15 60.9685 163.07Z" fill="#D0B53A"/>
<path d="M53.2137 165.06C53.886 163.921 55.812 162.673 57.3618 161.983C55.0484 161.818 51.2536 164.017 52.2336 167.584C52.5413 166.616 52.3191 166.599 53.2137 165.06Z" fill="#F7F1D8"/>
<path d="M55.0085 166.318C54.2621 166.318 54.8718 167.817 55.4131 166.723C55.396 166.598 55.3789 166.472 55.0085 166.318Z" fill="white"/>
<path d="M135.613 189.601C135.92 197.213 120.433 197.208 120.997 186.929C117.009 197.236 118.843 194.843 125.721 196.336C128.245 196.148 130.177 194.182 133.054 195.914C134.15 193.577 136.309 191.915 138.849 191.453C137.859 189.142 136.555 186.98 134.974 185.025C135.422 186.508 135.638 188.052 135.613 189.601V189.601Z" fill="#A15139"/>
<path d="M73.4072 196.403C75.1166 195.708 80.8773 195.993 80.9229 193.981C79.696 193.747 78.567 193.152 77.6807 192.272C75.5839 196.135 65.9144 197.583 64.5753 191.326C62.9913 192.01 64.2448 194.204 64.2676 195.885C67.8802 193.788 69.6693 197.263 73.4072 196.403V196.403Z" fill="#A15139"/>
<path d="M65.111 184.797C65.111 185.105 64.0626 185.253 64.8261 185.976C64.8945 185.686 64.7919 186.068 65.111 184.797Z" fill="#A15139"/>
<path d="M118.695 189.907C119.595 191.258 116.365 194.694 118.969 195.036C118.969 193.697 119.464 189.127 121.402 186.152C119.897 186.181 119.088 188.033 118.695 189.907Z" fill="#502C20"/>
<path d="M81.9716 194.056C81.6205 194.067 81.2692 194.042 80.9231 193.982C80.8946 194.079 81.2251 194.74 80.4331 194.871L80.6097 194.831C80.8035 194.609 82.0513 194.763 81.9716 194.056V194.056Z" fill="#502C20"/>
<path d="M65.111 184.798C68.1139 180.661 74.0227 180.809 77.3845 184.695C77.6094 184.435 77.8512 184.189 78.1082 183.96C73.903 179.516 67.658 179.254 63.7036 184.94C63.9881 185.122 64.2518 185.334 64.4899 185.573C64.6894 185.305 64.9002 185.043 65.111 184.798Z" fill="#502C20"/>
<path d="M119.658 195.225C118.815 194.877 117.504 195.105 116.809 194.125C114.461 194.832 124.786 199.789 126.496 196.438C124.198 196.149 121.915 195.744 119.658 195.225V195.225Z" fill="#88ACBC"/>
<path d="M113.031 194C110.627 196.507 117.914 199.328 118.815 199.031C117.516 198.034 111.977 197.123 113.185 194.08L113.031 194Z" fill="#DBEEF6"/>
<path d="M81.1452 198.98C81.1011 199.016 81.0509 199.043 80.9971 199.06C81.0882 199.003 81.527 199.214 81.6124 198.764L81.1452 198.98Z" fill="#DBEEF6"/>
<path d="M87.2136 194.626C87.0266 194.122 86.6476 193.712 86.1594 193.487C86.3133 193.367 86.6267 194.575 87.2136 194.661C87.225 194.672 87.1794 194.672 87.2136 194.626Z" fill="#DBEEF6"/>
<path d="M74.1594 198.079L74.2563 198.051C73.5367 198.081 72.8194 198.154 72.1082 198.267C72.3646 198.683 73.658 198.131 74.1594 198.079Z" fill="#DBEEF6"/>
<path d="M73.6523 198.067C76.5982 197.201 81.3389 197.036 83.4871 193.822C82.7178 193.891 81.9714 194.478 80.6039 194.819C77.8062 195.583 74.3361 196.483 70.7976 196.62C71.7435 197.27 71.5839 198.745 73.6523 198.067Z" fill="#88ACBC"/>
<path d="M64.2564 195.879C64.2165 195.879 64.2564 195.879 64.1538 195.879V195.987L64.3134 195.913H64.2621C64.2621 195.913 64.2507 195.885 64.2564 195.879V195.879Z" fill="#88ACBC"/>
<path d="M182.171 32.6312L179.892 33.5315C184.837 31.7708 189.829 29.6796 190.347 29.3662C190.376 29.3662 190.347 29.3662 190.393 29.332L182.171 32.6312Z" fill="#B55C3B"/>
<path d="M198.085 12.3698C197.026 12.2958 196.769 14.3356 195.806 15.0479C199.726 6.22168 197.943 8.4553 193.59 12.1077C189.031 15.4638 178.598 20.8656 173.647 23.31C174.085 22.5808 174.466 21.8188 174.786 21.0308C174.074 21.0308 173.88 20.1647 173.504 21.1049C163.487 29.9368 147.504 31.6291 140.456 44.1248C132.025 38.9045 122.696 35.3008 112.946 33.498C121.635 20.1248 97.6068 -4.71849 99.5726 0.81427C104.991 15.7146 85.5783 14.649 89.1965 27.5949C88.1139 24.951 88.9344 20.4382 89.6979 17.2644V17.2074C87.4472 21.1163 82.7407 27.5949 85.6751 30.1989C85.6458 28.299 86.0349 26.4159 86.8147 24.6832C87.0028 24.2217 87.2079 23.7658 87.4301 23.3214C87.0313 26.951 88.5697 31.2017 92.8945 32.404C82.6381 15.31 105.259 18.102 101.271 2.39262C112.632 14.4724 122.017 32.1932 102.866 41.2872C102.906 41.2872 103.1 41.196 103.402 41.0479C106.496 39.8171 110.074 37.555 112.256 34.4724C113.202 34.6262 114.798 34.9225 116.427 35.2986C125.048 36.7915 133.806 42.0564 141.145 45.2302C147.578 33.4467 162.051 30.7174 172.558 23.5037L172.49 23.6519C171.036 26.5666 169.139 29.2384 166.866 31.5721C167.681 30.9054 168.461 29.9596 169.584 28.9909L169.538 28.9453C171.681 25.0992 176.98 22.7687 180.809 20.894C185.88 17.2416 193.259 14.0564 197.499 9.40686C197.077 10.8769 196.234 13.5208 195.789 14.9681C196.359 15.8342 196.832 14.8029 197.926 12.8997C201.345 25.7089 198.593 39.1106 196.838 52.82C195.185 63.498 192.536 74.4097 186.091 83.0935C188.69 79.9269 191.095 76.6065 193.293 73.1505V73.1846V73.1562C190.627 84.0564 183.607 97.122 172.638 100.364C172.313 102.997 178.621 102.25 180.125 101.014C179.037 103.492 174.667 105.384 171.151 105.754C176.387 107.076 183.003 106.934 187.818 101.276C188.689 109.971 186.148 127.635 173.612 133.333C174.501 133.965 176.028 135.498 179.419 135.777H179.652C161.863 152.552 135.869 158.638 112.701 152.518C108.199 155.242 104.108 157.925 98.5982 157.395C94.2677 156.489 92.1424 155.487 87.8974 152.683C87.225 152.404 87.527 152.381 86.2848 152.683C62.5583 158.951 37.6467 151.47 20.6381 135.789L20.6039 135.754C22.5811 135.977 26.2677 133.891 26.6381 133.287C14.9572 127.84 11.715 112.626 12.3931 101.777L12.4216 101.276C15.9999 106.125 24.1025 107.464 29.0996 105.743C25.5897 105.498 20.8489 103.15 20.0854 100.974C20.5583 102.113 29.8347 102.814 27.0142 100.347C16.319 96.8656 9.35036 84.3926 6.58113 73.1562V73.1846V73.1562C8.78421 76.6099 11.1951 79.9265 13.8005 83.0878C1.20791 66.5921 -1.64109 22.9966 2.01133 12.9111C2.9572 14.3128 3.35606 15.8627 4.06831 15.1505C4.11389 13.8342 2.92871 11.5892 2.45577 9.57211C8.62671 14.9225 18.6324 20.82 27.3504 25.1106C28.9595 27.509 30.875 29.687 33.0484 31.5892C30.7225 29.2235 28.7979 26.4945 27.3504 23.5094C36.7407 29.8456 49.527 32.9567 57.1965 42.5351C57.457 42.2698 57.7349 42.0224 58.0284 41.7943C49.8404 30.9282 35.6182 29.5835 26.2108 20.6547C26.0227 20.7288 25.641 20.8542 25.1623 21.0194C25.4804 21.8085 25.8615 22.5707 26.3019 23.2986C1.13953 11.7032 -0.888955 2.34703 4.03982 15.0878C-0.142516 5.97666 -0.353342 23.0194 0.250646 36.6262C1.28768 51.2359 2.60962 58.2787 5.5384 68.7117C5.48711 68.7516 4.9686 68.7117 4.75207 69.0365C6.51845 81.6006 12.8034 95.7658 25.339 100.991C22.1595 101.367 19.2022 99.1903 18.0512 98.2559C18.5523 101.407 20.6031 104.096 23.5099 105.413C18.8375 105.509 14.1139 102.626 11.5783 98.1305C11.0085 102.051 9.45292 124.74 24.6039 133.458C22.3247 135.356 18.6666 134.518 16.1652 132.757C28.074 146.336 49.6581 156.689 70.0341 155.977C68.0284 158.153 61.0997 162.923 63.0085 164.256C64.8346 162.189 66.7749 160.226 68.8204 158.376C71.6694 154.649 76.6495 156.039 81.4415 154.854C80.772 155.735 80.1573 156.656 79.6011 157.612C79.8689 157.452 80.5014 158.273 80.8945 157.458C81.6865 156.45 82.4957 154.222 84.5298 154.233C85.8233 154.193 86.9914 152.934 88.3133 154.307C107.208 166.843 112.917 145.891 119.031 157.43C122.689 164.911 124.61 171.925 126.376 180.222C126.946 181.766 125.168 180.484 124.826 182.871C131.008 179.173 135.783 184.655 138.558 190.678C138.963 191.247 138.615 191.663 139.755 191.35C138.986 188.159 136.103 183.851 132.792 181.709C134.461 174.432 134.422 165.578 137.402 158.222H137.322C137.675 157.331 138.098 156.47 138.587 155.646C141.575 155.311 144.543 154.811 147.476 154.148C147.96 154.039 148.843 153.8 149.897 153.538C150.513 153.344 151.863 152.968 152.912 152.632C152.912 152.74 152.912 152.672 152.849 152.968C155.705 151.581 158.894 151.027 162.051 151.367C166.746 151.834 170.387 155.481 171.949 160.421C158.598 151.566 160.285 179.162 154.467 183.783C156.655 182.433 158.678 181.441 160.974 178.358C160.29 181.659 159.237 184.872 157.835 187.937C159.356 189.743 163.971 172.957 161.447 174.991C161.254 176.98 158.94 179.652 157.396 180.814C160.553 173.481 161.481 151.059 173.504 162.945C171.567 154.746 167.111 149.715 158.689 150.472C160.199 149.642 161.918 149.271 163.635 149.407C163.339 149.247 163.008 149.071 162.496 148.769C177.31 141.002 179.875 136.985 184.103 132.746C180.849 134.381 179.675 135.732 175.675 133.464C192.547 122.917 188.456 100.45 188.781 97.9653C186.501 102.301 181.857 105.43 176.763 105.435C182 102.387 181.499 100.507 182.222 98.2274C180.763 99.2929 178.353 101.578 174.672 100.991C189.339 96.1989 197.772 67.9824 194.376 68.7516C199.214 55.5721 202.085 16.4838 198.085 12.3698V12.3698ZM135.328 161.367C133.533 159.629 131.687 157.948 129.265 155.965C132.008 156.041 134.753 155.961 137.487 155.726C136.582 157.529 135.862 159.419 135.339 161.367H135.328ZM118.695 154.985C118.67 154.931 118.64 154.879 118.604 154.831C122.433 155.885 127.39 154.626 130.57 158.387H130.513C136.211 162.871 134.826 162.467 133.932 168.045C133.248 172.415 132.912 176.461 131.926 181.281C127.424 180.598 127.464 180.809 127.339 180.176C130.513 180.809 129.755 180.33 127.464 180.809C125.516 171.652 123.316 162.626 118.695 154.985V154.985Z" fill="#502C20"/>
<path d="M190.342 29.3775C190.342 29.3775 190.347 29.3718 190.342 29.3775V29.3775Z" fill="#F7E3CA"/>
<path d="M188.034 44.8772C189.441 38.3415 189.88 32.0794 190.353 29.3672C183.003 33.0823 166.661 36.5866 160.216 45.2304C162.244 45.7107 164.379 45.2454 166.023 43.9655C167.687 44.5752 163.743 48.9284 162.205 49.7148C164.894 50.5239 167.988 51.2874 171.174 49.5837C171.481 49.2931 172.347 50.0566 171.675 50.5011C169.083 52.7518 165.681 54.8829 161.988 55.2589C163.601 56.8316 166.883 57.5039 168.957 58.4783C169.271 59.7262 161.983 60.1877 158.746 59.4811C160.091 61.7148 159.886 65.1165 160.49 67.9712C162.869 72.5602 164.858 77.3404 166.439 82.2618C179.054 77.3501 185.134 59.2247 188.034 44.8772V44.8772Z" fill="#F7E3CA"/>
<path d="M189.875 44.5004C190.325 39.6742 190.803 34.9563 190.416 29.4805C190.416 35.3437 190.159 41.4463 189.573 47.4634C189.612 47.0588 189.658 46.6657 189.698 46.244C189.743 45.6571 189.818 45.0816 189.875 44.5004V44.5004Z" fill="#F7E3CA"/>
<path d="M190.416 29.4803C190.416 29.4348 190.416 29.3835 190.416 29.3379C190.39 29.3457 190.367 29.3593 190.347 29.3778C188.723 45.053 183.373 75.2752 166.951 82.0501C165.966 82.2496 166.906 83.1328 167.117 84.3692C168.017 86.2211 167.248 88.9789 170.045 87.6741C190.137 81.7026 190.017 42.6826 190.416 29.4803V29.4803Z" fill="#F2D4B4"/>
<path d="M180.821 20.9053C179.39 21.9879 176.986 23.213 175.499 24.8939C177.043 24.3059 178.637 23.8596 180.262 23.5606C178.855 24.8768 174.826 28.8426 173.863 31.0592C175.39 30.5919 181.271 28.78 181.749 28.5691H181.715H181.755C180.484 29.3954 178.581 32.0791 177.92 33.4694C181.738 32.0734 185.818 30.6204 190.41 29.2814H190.376H190.416C190.781 34.4096 190.319 40.5293 189.687 46.2045C189.84 45.9766 192.416 43.7942 192.462 43.5264C192.234 44.7743 192.131 51.1788 192.131 51.4409C193.778 49.7828 195.744 42.8939 195.613 42.9338C195.715 44.3583 196.142 49.686 196.182 49.9538C196.932 48.0935 197.504 46.1666 197.892 44.1988C197.894 44.2291 197.894 44.2596 197.892 44.2899C197.892 44.2558 197.892 44.233 197.892 44.1988C197.889 44.2291 197.889 44.2596 197.892 44.2899C199.67 32.9566 200.604 23.0877 197.846 12.9509C196.94 14.6603 196.262 15.9766 195.778 14.9566C196.063 13.7771 197.276 10.8028 197.425 9.35547C193.123 14.3583 186.353 16.7971 180.764 20.9224L180.821 20.9053Z" fill="#3F2822"/>
<path d="M9.62396 29.4009C11.8405 30.4436 15.4017 31.851 20.0228 33.5319C18.4274 32.9109 11.1852 30.0049 9.54419 29.3496C9.56128 29.3724 9.56128 29.3382 9.62396 29.4009V29.4009Z" fill="#B55C3B"/>
<path d="M39.7719 64.4778C39.9485 62.7267 40.4509 61.0242 41.2534 59.4579C42.1366 59.663 29.7263 60.5234 31.2363 58.153C33.6693 57.7628 35.9666 56.7718 37.9201 55.2698C34.638 54.9564 30.9685 52.9906 28.1765 50.4379C27.0369 48.1587 31.43 52.2043 37.732 49.7143C37.4073 49.6117 31.9828 45.247 33.9771 43.965C35.5685 45.3025 37.7145 45.7752 39.7206 45.2299C33.4528 36.8653 18.1879 33.4693 9.62378 29.418C11.544 47.0191 16.4956 75.4977 33.8004 82.4094C35.2591 75.6801 39.9315 71.0932 39.7719 64.4778V64.4778Z" fill="#F7E3CA"/>
<path d="M9.49277 29.5781C9.1167 34.5012 9.60673 40.7348 10.2335 46.2562C10.2848 46.7405 10.3361 47.1964 10.3817 47.6579C9.78337 41.92 9.49847 35.9542 9.49277 29.5781Z" fill="#F7E3CA"/>
<path d="M10.5071 49.0029L10.3875 47.8633C10.4273 48.2564 10.4672 48.6382 10.5071 49.0029Z" fill="#F7E3CA"/>
<path d="M11.8973 44.8764C10.6267 39.2239 10.3532 34.0501 9.50415 29.3379C9.78335 49.2068 11.47 84.0387 31.5098 88.0843C32.9344 87.9419 32.9628 83.8051 33.7891 82.3863C21.0483 77.7197 14.8147 59.3721 11.8973 44.8764V44.8764Z" fill="#F2D4B4"/>
<path d="M2.03405 44.3356C2.03127 44.3072 2.03127 44.2786 2.03405 44.2502C2.43129 46.2156 3.00336 48.1416 3.74345 50.0052C3.84032 48.7345 4.08533 45.4809 4.27337 42.9852C4.67792 44.6946 5.95428 49.2929 7.77764 51.4866C7.77764 49.8285 7.62949 44.7573 7.44146 43.5949C7.44146 43.7601 10.1024 46.0735 10.2278 46.273C9.65798 40.8542 9.08818 35.3841 9.48704 29.3499C13.9942 30.649 17.6637 31.9083 21.9885 33.5094C21.3674 32.0906 19.1395 29.1448 18.148 28.6148H18.1993H18.1537C19.7833 29.2245 25.8973 31.0251 26.0511 31.0878C25.1281 28.8086 19.7036 23.6063 19.6409 23.6006C21.2663 23.906 22.8635 24.3462 24.4158 24.9168C23.1053 23.3784 21.1395 22.404 19.0825 20.9282L19.1509 20.9624L19.0882 20.9168L19.1623 20.9624C14.2107 17.5436 6.12522 13.4411 2.45 9.56641C2.69502 11.4752 4.58106 14.1875 3.78904 15.3214C3.52123 15.4354 2.90015 14.5579 2.00556 12.9111C-0.547147 23.1675 0.199291 33.122 2.00556 44.2502C3.81183 55.3784 2.02835 44.3071 2.03405 44.3356V44.3356Z" fill="#3F2822"/>
<path d="M17.9545 32.063C15.7778 31.3166 12.4274 30.1599 9.49292 29.3223H9.53281H9.49292C19.7892 34.0801 31.869 35.9718 39.7208 45.2083C37.6938 45.7056 35.5507 45.2434 33.9089 43.9547C32.3818 44.6043 35.7664 48.553 37.7322 49.6926C34.9915 50.5473 31.9089 51.2824 28.7636 49.573C28.4958 49.3166 27.624 49.932 28.1938 50.4163C30.8889 52.7468 34.0684 54.8436 37.9374 55.2482C36.0101 56.7554 33.7249 57.737 31.3049 58.0972C31.0894 58.1928 30.9629 58.4192 30.9946 58.6528C31.0263 58.8864 31.2085 59.071 31.4416 59.1057C34.4103 59.6357 37.7094 60.2453 41.2707 59.4419C39.9336 61.9983 39.4485 64.9151 39.8861 67.7667C40.9516 65.6641 45.8519 58.0288 48.6382 55.4191C46.2735 57.2938 42.5755 61.9832 40.661 64.5075C40.9543 62.0791 41.8841 59.7714 43.3562 57.818C40.5072 59.0374 37.3961 59.1114 33.869 58.5701C35.8975 57.9718 38.9117 55.9946 40.7465 54.2225C37.5556 54.6556 34.2906 53.7097 31.1681 51.516C33.8861 51.9263 37.2194 51.2425 40.1482 49.8066C38.1096 49.0931 36.3632 47.7272 35.1795 45.9206C36.718 46.5815 39.1681 46.422 41.2935 45.8408C36.171 38.3878 26.6268 35.0374 17.9545 32.063Z" fill="#502C20"/>
<path d="M12.4272 101.795C14.5013 111.111 19.8688 120.627 27.6922 126.496C23.7777 119.658 34.4443 115.402 32.7577 108.291C33.5157 93.2478 38.8739 78.8001 48.1081 66.9006C49.0255 65.0373 48.1423 61.8293 50.5013 60.2282C51.9689 58.878 53.9915 58.3068 55.9486 58.6897C58.4386 56.5277 61.0923 54.5617 63.8859 52.8094C58.074 54.7296 52.4899 47.8635 57.1965 42.553C56.9568 42.1818 56.6942 41.8259 56.4101 41.4874C47.903 32.2453 37.3275 30.1541 27.3503 23.5045C28.8003 26.4899 30.7246 29.2204 33.0483 31.59C30.8699 29.6928 28.9538 27.5142 27.3503 25.1114C24.5013 23.6812 22.0227 22.4561 19.0711 20.9062L19.1338 20.9518L19.0654 20.9176C20.5469 22.0572 22.8318 23.1114 24.3987 24.9062C22.8495 24.326 21.2515 23.8855 19.6238 23.59C19.8973 23.9034 24.7064 28.2282 26.0341 31.0772C25.6751 30.9461 20.2392 29.3678 18.1366 28.6043H18.1822H18.1309C19.2363 28.9803 21.6523 33.0487 22.1822 33.6185C30.1993 36.4675 36.0113 38.9062 41.3104 45.8065C39.5213 46.2282 37.5213 46.6897 35.1965 45.8863C36.3864 47.6872 38.1306 49.0513 40.1651 49.7723C37.544 50.9689 34.5526 51.9547 31.1851 51.4817C33.7834 53.288 37.2136 54.7296 40.7634 54.1883C38.7919 55.9547 36.7748 57.5216 33.8859 58.5359C36.8831 59.0088 40.1936 59.1057 43.3731 57.7837C41.8786 59.7244 40.9462 62.0385 40.6779 64.4732C42.6836 61.9034 45.8517 57.6983 48.6552 55.3849C39.2705 64.7068 36.1765 77.3735 31.5099 88.0516C23.96 86.7353 18.6779 80.0459 15.8688 73.0601C8.84888 55.6413 13.1851 47.6299 7.43578 43.5444C7.63521 44.8208 7.74347 49.6071 7.77196 51.4362C5.92581 49.2538 4.72353 44.855 4.27338 42.986C4.09675 45.2652 3.85743 48.5245 3.74347 50.006C2.99628 48.1449 2.42401 46.2182 2.03407 44.251C2.03129 44.2794 2.03129 44.308 2.03407 44.3364C2.03407 44.3364 2.03407 44.2795 2.03407 44.251C3.54404 57.9262 5.83464 72.1712 13.8802 83.1C11.2721 79.9408 8.8611 76.624 6.66085 73.1684V73.1968V73.1684C9.41299 84.2168 16.3475 97.1456 27.4358 100.399C28.5355 102.781 21.7378 102.359 20.1651 100.969C20.9514 103.197 25.6409 105.442 29.1794 105.738C23.846 107.174 16.9514 106.695 12.5013 101.271C8.05116 95.8464 12.4728 101.482 12.5013 101.801L12.4272 101.795Z" fill="#B55C3B"/>
<path d="M67.0426 50.3809C66.7363 50.8104 66.389 51.2092 66.0056 51.5717C66.4899 51.2925 66.98 51.0019 67.4757 50.7683C67.3234 50.6483 67.1788 50.5189 67.0426 50.3809Z" fill="#B55C3B"/>
<path d="M55.9488 58.6894C62.53 60.2621 62.4388 67.8518 57.6069 70.8262C58.3704 70.1937 60.2849 71.2307 61.0257 69.9487C61.6113 68.72 62.756 67.8514 64.0969 67.6182C73.3904 67.7606 66.6553 80.5527 61.2479 73.6923C60.8661 73.6923 60.6781 73.6923 59.755 73.7891C56.5926 74.1424 55.1966 75.4985 51.9886 76.678C51.2479 76.6267 51.151 76.2393 51.7664 75.1453C48.5357 73.2934 50.4274 71.4358 49.8177 68.8774C49.2328 68.1152 48.8118 67.2403 48.5812 66.3076C39.7498 77.4454 34.3348 90.9035 32.9915 105.054C32.3191 108.82 33.5613 111.652 31.4018 114.883C29.2422 118.114 26.3875 120.496 26.7978 124.188C28.7693 130.387 41.0428 134.359 45.3562 136.154C74.416 144.593 79.755 127.994 94.1083 125.385C105.231 118.034 124.006 137.573 133.425 137.732C146.473 140.855 168.331 133.47 174.707 123.601C176.746 117.726 167.328 115.271 168.513 109.681C165.88 62.1766 122.752 33.4643 78.057 46.433C77.6411 47.1965 75.6012 46.49 75.5043 47.8233C75.1639 49.5416 73.9525 50.9582 72.3079 51.5611C70.6633 52.164 68.8233 51.866 67.453 50.7749C63.3403 52.9843 59.4825 55.6384 55.9488 58.6894V58.6894ZM143.556 131.054C141.031 132.547 137.333 129.914 133.966 131.271C129.977 132.786 128.627 129.561 135.482 127.715C138.074 126.991 144.205 126.957 143.556 131.054ZM133.02 73.4472C137.083 65.7492 150.302 74.9515 146.94 76.6837C143.111 74.923 138.991 72.6951 134.029 74.2507C133.618 74.2165 132.878 74.0398 133.02 73.4472V73.4472ZM131.909 102.604C140.604 95.3675 149.1 104.046 151.237 109.561C147.293 103.362 138.547 99.8461 131.014 103.122H131.066H131.014C131.054 103.077 131.425 102.889 131.909 102.604V102.604ZM120.274 123.117C121.18 118.285 125.345 112.57 130.564 110.148C128.695 110.484 121.521 113.658 120.359 114.45C132.484 102.017 150.94 108.068 156.211 123.823C141.641 112.461 134.182 110.467 120.205 123.658C106.228 136.849 120.228 123.379 120.274 123.117V123.117ZM56.775 100.37C61.5898 98.2564 66.9687 102.473 67.9374 103.105H67.8804L67.9317 103.134C60.9744 100.051 51.6696 102.952 47.4188 110.006V109.954L47.3847 110.006C47.8034 108.901 48.4022 107.872 49.1567 106.963C50.3932 105.065 53.0314 101.681 56.775 100.37V100.37ZM37.6069 92.7407C37.6725 89.8479 39.9645 87.4987 42.8547 87.3618C43.2935 79.3846 53.9146 85.7834 47.567 89.9373C51.6867 98.3817 38.1767 101.618 37.6069 92.7407ZM68.2678 131.197C66.3761 132.729 63.9545 129.96 61.1396 131.06C56.4217 133.271 51.7664 130.353 58.2906 127.761C59.8291 126.86 68.7978 127.886 68.2678 131.197ZM71.3562 109.493C72.9801 109.943 78.2565 113.709 78.5983 114.439C75.6415 112.831 72.5441 111.496 69.3448 110.45C74.1653 112.889 78.0741 118.051 78.7636 123.647C65.8405 110.746 55.8405 112.689 42.7351 123.818C44.775 117.977 49.4245 111.795 56.114 109.573C60.3362 106.9 66.4217 107.202 71.3562 109.493Z" fill="#CE6A4E"/>
<path d="M186.325 107.037C183.983 113.875 179.761 120.712 173.686 125.595C134.41 155.407 116.325 124.655 105.772 125.367C106.218 125.846 106.525 126.437 106.661 127.077V127.214C106.696 127.402 106.715 127.592 106.718 127.783C106.666 128.798 106.08 129.681 104.61 129.738C100.621 128.074 99.9428 132.644 100.37 136.296C104.929 138.296 115.122 141.464 112.946 131.738C117.555 141.253 105.897 140.513 99.9143 137.253C94.8488 139.835 82.2961 142.325 86.8944 131.732C84.6437 141.31 95.3161 138.336 99.4756 136.131C99.4756 131.441 99.9998 128.724 94.9172 129.698H94.9799C94.8449 129.686 94.7113 129.661 94.581 129.624L94.4841 129.59C94.3413 129.544 94.2038 129.482 94.0739 129.407C93.9912 129.364 93.9129 129.312 93.8403 129.253C93.5055 129.003 93.2744 128.638 93.1907 128.228C93.0227 127.189 93.3566 126.132 94.091 125.379C84.1309 127.242 76.7747 136.718 66.2106 137.846C42.5639 141.464 17.3616 125.424 12.3987 101.789C11.7149 112.456 14.8374 127.732 26.6437 133.299C25.5041 134.142 23.7377 135.698 20.6095 135.766C42.8317 148.564 66.4215 153.43 86.4727 148.741C88.1138 149.926 94.6494 154.518 100.61 154.233C106.798 153.914 113.27 148.917 113.84 148.501C137.316 154.997 163.151 144.963 179.407 135.755C176.04 135.493 174.592 134.011 173.601 133.31C187.1 126.837 188.313 109.071 187.846 101.84C187.428 103.597 186.92 105.332 186.325 107.037V107.037ZM104.473 144.365C101.088 148.507 97.7719 147.214 95.3047 143.835C98.1295 145.827 101.876 145.921 104.798 144.074C104.689 144.159 104.798 144.063 104.473 144.365V144.365Z" fill="#F7E3CA"/>
<path d="M100.177 131.334C99.9532 131.403 99.7106 131.374 99.51 131.254C99.3333 131.351 99.8404 136.616 99.339 136.382C93.641 138.223 85.1396 141.51 86.9345 131.727C82.4045 141.619 94.0797 140.166 100.097 137.311C105.407 139.978 117.538 142.126 112.986 131.733C114.883 141.533 105.675 138.126 100.41 136.337C100.41 135.299 100.41 132.16 100.41 131.26C100.335 131.293 100.257 131.318 100.177 131.334Z" fill="#502C20"/>
<path d="M100.638 123.754C98.4102 123.754 93.943 123.72 93.2307 127.059C94.1823 129.68 96.7692 127.013 98.7293 129.002C98.9743 129.173 99.225 130.534 100.439 129.919C101.971 126.569 104.872 129.919 106.581 127.07C106.387 124.683 102.832 123.645 100.638 123.754V123.754ZM99.9145 126.779C94.1823 126.683 94.3988 124.341 99.9145 124.267C105.647 124.369 105.413 126.705 99.9145 126.779Z" fill="#512D21"/>
<path d="M94.8604 129.674L94.6553 129.629L94.8604 129.674Z" fill="#512D21"/>
<path d="M94.5127 129.584L94.6096 129.618L94.5127 129.584Z" fill="#512D21"/>
<path d="M93.1794 127.988C93.1794 128.068 93.1794 128.148 93.2193 128.222C93.2022 128.148 93.2193 128.205 93.1794 127.988V127.988Z" fill="#512D21"/>
<path d="M93.1738 127.584V127.755C93.1709 127.698 93.1709 127.641 93.1738 127.584Z" fill="#512D21"/>
<path d="M93.168 127.754V127.851C93.168 127.851 93.1794 127.845 93.168 127.754Z" fill="#512D21"/>
<path d="M98.9743 130.633C98.2222 129.248 96.792 129.333 94.9458 129.692C96.0512 129.635 98.319 128.741 99.2307 131.066C99.1295 130.931 99.0435 130.786 98.9743 130.633Z" fill="#512D21"/>
<path d="M104.165 129.612C103.487 129.288 101.464 129.214 100.815 130.866C101.384 129.544 102.963 129.065 104.644 129.726C104.477 129.734 104.311 129.695 104.165 129.612Z" fill="#512D21"/>
<path d="M93.8688 129.247C93.8688 129.247 93.8688 129.247 93.8232 129.207L93.8688 129.247Z" fill="#512D21"/>
<path d="M93.6581 129.053L93.6125 129.002C93.6263 129.02 93.6416 129.037 93.6581 129.053Z" fill="#512D21"/>
<path d="M94.1082 129.407C94.1082 129.407 94.1082 129.407 94.0569 129.373L94.1082 129.407Z" fill="#512D21"/>
<path d="M99.9599 131.378C99.8574 131.378 99.9599 131.378 99.7263 131.338L99.9599 131.378Z" fill="#512D21"/>
<path d="M106.644 127.064C105.687 129.668 103.111 126.996 101.151 128.99C100.912 129.161 100.65 130.517 99.4132 129.908C97.8804 126.551 94.9744 129.908 93.265 127.059C92.8718 130.027 94.7408 129.594 97.6126 129.543C98.5471 129.543 98.8149 131.167 99.9716 131.395C100.929 131.395 100.957 129.868 102.313 129.543C103.453 129.03 106.94 131.087 106.695 127.195C106.695 127.15 106.695 127.104 106.695 127.059L106.644 127.064Z" fill="#3F2822"/>
<path d="M99.9144 124.268C94.1822 124.37 94.3987 126.706 99.9144 126.78C105.647 126.684 105.413 124.342 99.9144 124.268Z" fill="#BC9183"/>
<path d="M103.521 145.098C101.278 146.554 98.358 146.426 96.2507 144.779C97.041 146.114 98.469 146.94 100.02 146.961C101.57 146.982 103.02 146.194 103.846 144.882C103.743 144.961 103.634 145.034 103.521 145.098V145.098Z" fill="#F2D4B4"/>
<path d="M104.786 144.062C102.188 145.543 98.6154 146.255 95.2935 143.822C96.4523 145.232 98.1683 146.067 99.9931 146.109C101.818 146.151 103.57 145.395 104.792 144.039L104.786 144.062Z" fill="#502C20"/>
<path d="M129.914 150.603C124.487 150.59 119.084 149.886 113.835 148.506C113.168 148.979 105.516 154.9 98.7635 154.204C92.678 153.595 86.7521 148.928 86.1424 148.506C64.5811 154.632 38.9059 146.227 20.6153 135.794L20.6438 135.823H20.6096C40.3304 153.902 64.4102 157.811 87.8461 152.694C92.6609 155.72 96.7464 158.153 102.387 157.253C106.342 156.221 108.342 155.338 112.33 152.666C113.008 152.387 112.735 152.387 113.966 152.706C140.387 159.6 164.952 149.424 179.601 135.766H179.538C167.453 142.29 148.969 150.689 129.914 150.603V150.603Z" fill="#F2D4B4"/>
<path d="M88.7178 38.4953C90.1765 39.3329 92.0796 40.1534 95.5953 41.1107C92.8799 40.3682 90.3698 39.0157 88.2562 37.1562C88.3987 37.6406 87.299 37.8115 88.7178 38.4953V38.4953Z" fill="#984832"/>
<path d="M103.202 41.1955C105.413 41.1955 109.681 40.147 116.427 35.3037C115.362 35.4576 112.946 33.6969 111.869 35.0131C109.59 37.8621 106.957 39.5316 103.379 41.0815L103.504 41.0302L103.379 41.0815C103.29 41.1283 103.199 41.1702 103.105 41.2068L103.202 41.1955Z" fill="#984832"/>
<path d="M143.726 129.982C142.091 124.284 126.171 129.737 131.647 131.691C135.168 130.728 137.949 131.019 142.404 131.515C143.231 131.361 144.006 131.184 143.726 129.982V129.982Z" fill="#E2A08F"/>
<path d="M133.009 73.7311C133.869 74.5459 134.023 74.3009 136.097 73.8507C140.308 72.8878 143.812 75.6399 147.128 76.6542C148.507 71.4861 134.889 67.5145 133.009 73.7311V73.7311Z" fill="#512D21"/>
<path d="M132.991 102.096C138.353 99.8164 145.806 101.851 149.783 106.962C146 100.665 138.182 97.0985 132.171 102.466C132.434 102.321 132.709 102.197 132.991 102.096Z" fill="#9C4933"/>
<path d="M131.054 103.093H131.003C137.971 99.9761 147.259 102.922 151.516 109.965C148.723 102.836 138.41 98.3293 131.003 103.087L131.054 103.093Z" fill="#542E1B"/>
<path d="M120.228 123.646C134.781 110.045 141.704 112.768 156.234 123.811C150.878 107.931 132.633 102.09 120.382 114.438C122.256 113.384 127.271 110.99 130.587 110.136C125.732 112.301 120.957 118.25 120.217 123.634L120.228 123.646Z" fill="#502C20"/>
<path d="M64.2961 127.977C62.3645 126.268 51.2534 128.649 56.4614 131.789C58.9571 132.313 61.1964 130.199 64.2791 131.043C70.0853 133.208 69.0882 129.094 64.2961 127.977V127.977Z" fill="#E2A08F"/>
<path d="M53.6752 75.6461C53.0144 75.6189 52.3673 75.4498 51.7777 75.1504C50.8034 77.1504 51.9601 77.0763 54.376 75.5777C54.1448 75.6208 53.9103 75.6437 53.6752 75.6461Z" fill="#512D21"/>
<path d="M57.7036 71.6168C57.6687 72.848 57.0986 74.0028 56.1423 74.7792C57.7726 74.1124 59.5099 73.7456 61.2705 73.6966C60.6935 72.7376 60.5388 71.5827 60.8432 70.5057C60.6836 70.6538 57.1452 69.9701 57.7036 71.6168Z" fill="#512D21"/>
<path d="M49.1795 106.946C52.9345 102.188 60.5755 99.3105 66.8035 102.484C60.4217 96.6609 52.3476 101.47 49.1396 106.963L49.1795 106.946Z" fill="#9C4933"/>
<path d="M65.9485 102.097C59.5098 99.4306 50.3645 102.747 47.4072 109.989L47.4414 109.938V109.989C51.2933 103.584 60.3816 99.7326 67.9542 103.117L67.903 103.089H67.9599C67.3145 102.71 66.6422 102.378 65.9485 102.097V102.097Z" fill="#542E1B"/>
<path d="M64.0283 107.691C61.2609 107.526 58.5062 108.18 56.1081 109.571C50.1423 111.469 44.8488 117.526 42.7349 123.816C56.4671 112.728 64.7406 110.38 78.752 123.645C78.1138 118.603 74.5639 113.013 69.3332 110.449C71.4243 110.967 76.8431 113.44 78.5867 114.437C75.9371 111.457 69.1565 107.691 64.0283 107.691V107.691Z" fill="#502C20"/>
<path d="M86.7976 24.6882C84.6494 35.2922 98.6209 43.7708 106.142 34.3007C110.758 28.1925 111.271 13.1611 103.105 8.63122C103.96 19.2124 91.3959 17.1782 93.4927 31.4232C88.5981 22.6426 92.752 19.5942 100.684 13.6341C100.951 13.1839 104.393 7.93606 101.362 8.16968C98.4101 19.4004 84.1366 17.4688 92.8774 32.4147C88.8887 31.0586 87.1793 28.2438 87.413 23.3321C87.2876 23.6056 87.1509 23.8335 86.7919 24.7224C86.7958 24.7114 86.7977 24.6998 86.7976 24.6882V24.6882Z" fill="#CE6A4E"/>
<path d="M103.362 41.082H103.402C103.402 41.082 103.373 41.025 103.362 41.082Z" fill="#B55C3B"/>
<path d="M103.487 41.0312L103.362 41.0825" stroke="#B55C3B" stroke-linecap="round" stroke-linejoin="round"/>
<path d="M85.6864 30.199C91.6408 36.2959 84.3303 36.6036 96.3816 41.3443C92.6836 40.2845 90.1651 39.5209 87.977 38.0338C86.7536 41.0262 83.558 42.7081 80.3987 42.0224C80.4232 43.7932 79.5423 45.454 78.0625 46.4269C127.795 32.803 167.048 66.2446 168.923 112.951C171.419 116.871 177.772 120.359 173.664 125.595C181.088 119.413 186.092 110.809 187.795 101.299C183.476 106.643 176.108 107.27 171.128 105.777C174.815 105.276 178.701 103.783 180.102 101.037C179.094 102.467 170.478 102.592 173.082 100.256C183.618 96.7745 190.513 84.3016 193.27 73.1791V73.2076C193.27 73.2076 193.27 73.2076 193.27 73.1734C191.074 76.6309 188.669 79.9514 186.068 83.1164C192.906 73.6805 194.968 63.9198 196.815 52.8429C197.174 50.2047 197.555 47.3956 197.892 44.2617V44.3529C197.893 44.3225 197.893 44.292 197.892 44.2617C197.507 46.2303 196.935 48.1575 196.182 50.0167C196.182 49.6805 195.795 45.1449 195.612 42.9967C195.453 43.5665 194.245 48.9682 192.131 51.5038C192.131 51.2588 192.228 44.9511 192.461 43.5893C192 44.6036 189.515 45.5893 189.612 46.8771C188.336 58.0338 186.82 70.1192 180.621 79.5893C179.555 82.1078 169.681 90.3757 167.949 87.3728C165.88 80.0452 163.612 73.8742 160.068 67.2645V67.2987C158.929 64.9568 155.031 58.4326 151.914 55.595L151.983 55.6406L151.926 55.5893C154.045 57.1392 157.339 61.0993 159.06 63.4697C158.636 61.424 157.764 59.4975 156.507 57.8286C159.356 59.0138 162.478 59.1164 165.988 58.5694C163.823 57.9312 161.071 56.0907 159.111 54.2332C162.313 54.6264 165.544 53.7147 168.672 51.5209C166.114 51.9825 162.49 51.2076 159.704 49.8115C161.724 49.0706 163.461 47.7157 164.672 45.9369C163.128 46.5922 160.684 46.4326 158.558 45.8514C163.037 39.6463 169.384 36.4611 177.704 33.6121C178.416 33.0423 180.011 29.6235 181.721 28.6435H181.681H181.715C181.111 28.917 175.664 30.5694 173.829 31.1335C174.849 28.8543 178.718 25.0651 180.228 23.6349C178.618 23.9267 177.036 24.3537 175.498 24.9113C176.792 23.3728 178.798 22.3756 180.82 20.9227L180.752 20.9625L180.815 20.917C176.78 23.0993 172.376 24.3699 169.544 28.9682L169.59 29.0138C168.786 29.6577 168.006 30.6264 166.872 31.595C169.147 29.2633 171.044 26.5911 172.496 23.6748L172.564 23.5266C163.168 29.9825 146.353 34.4041 141.145 45.2645C106.387 28.313 121.413 38.5409 102.872 41.3158C122.456 31.9084 112.119 14.0737 101.27 2.39844C101.73 4.28364 101.765 6.24733 101.373 8.14773C101.801 8.19896 102.225 8.28665 102.638 8.40983C102.676 7.74941 102.676 7.08735 102.638 6.42693C103.128 6.96824 102.433 8.17052 103.561 8.86567C106.718 10.6435 108.49 15.0936 109.094 18.1876C113.55 41.84 86.1138 45.7432 86.7747 24.6719C86.7762 24.6814 86.7762 24.691 86.7747 24.7004C86.7747 24.7004 86.7747 24.7004 86.7747 24.6662C85.9992 26.4048 85.6271 28.2963 85.6864 30.199V30.199Z" fill="#B55C3B"/>
<path d="M102.148 10.8253C100.405 17.9649 86.1482 17.4863 93.4929 31.4236C91.3162 15.4692 105.459 20.6999 102.661 6.44922C102.745 7.92661 102.572 9.40738 102.148 10.8253V10.8253Z" fill="#E2A092"/>
<path d="M93.151 40.2443C94.201 40.686 95.2829 41.0479 96.3874 41.3269C93.3688 40.3824 90.629 38.7092 88.4102 36.4551C87.8689 37.777 91.6125 39.5092 93.151 40.2443V40.2443Z" fill="#502C20"/>
<path d="M160.171 64.9574C160.015 63.0711 159.533 61.2261 158.746 59.5044C158.376 59.7437 170.034 60.4731 168.678 58.1597C166.246 57.7804 163.947 56.8013 161.989 55.3107C165.236 55.0201 168.826 53.0315 171.675 50.5529C172.011 50.399 172.085 49.4133 171.174 49.6355C169.009 50.9232 165.362 50.9346 162.205 49.7665C163.111 49.1967 167.709 45.4873 165.954 44.0058C164.362 45.3366 162.223 45.8124 160.217 45.2822C166.878 36.815 180.729 33.7494 190.416 29.3848H190.376H190.41C179.014 33.4303 166.519 35.4474 158.593 45.8805C160.376 46.3078 162.376 46.7694 164.707 45.966C163.49 47.7398 161.755 49.0933 159.738 49.8406C162.37 51.0258 165.282 52.0343 168.707 51.55C166.125 53.3506 162.741 54.7637 159.145 54.2623C161.151 56.0343 163.048 57.5956 166.023 58.5984C163.014 59.0714 159.755 59.1682 156.541 57.8577C157.732 59.6241 158.45 60.6041 159.094 63.4987C157.356 61.2195 154.598 57.6469 151.96 55.6184L152.017 55.6697L151.949 55.6241C154.855 58.3021 158.786 64.5757 160.103 67.3278C160.197 66.5413 160.219 65.748 160.171 64.9574Z" fill="#502C20"/>
<path d="M68.8033 158.404C72.3646 158.803 75.6409 157.595 79.5782 157.647C80.1252 156.685 80.7402 155.763 81.4187 154.889C77.4301 156.085 72.0284 154.439 68.7976 158.41L68.8033 158.404Z" fill="#944A37"/>
<path d="M87.7493 155.976C98.0399 163.264 103.983 161.646 112.348 155.976C114.543 156.575 116.769 157.06 119.014 157.429C112.684 145.993 106.131 166.899 88.2963 154.307C86.7294 152.905 82.1368 154.233 80.8889 157.458C82.6211 157.201 85.7037 156.489 87.7493 155.976V155.976Z" fill="#944A37"/>
<path d="M120.228 157.635C123.653 158.148 127.112 158.394 130.575 158.37C127.652 154.854 123.367 155.874 118.61 154.814C119.02 155.498 119.544 156.29 120.228 157.635V157.635Z" fill="#944A37"/>
<path d="M144.484 157.201C150.559 156.012 156.457 154.051 162.034 151.367C158.878 151.049 155.695 151.602 152.832 152.968C152.832 152.968 152.832 152.888 152.9 152.632C151.812 152.979 151.311 153.11 149.886 153.538C149.316 153.674 148.65 153.868 147.464 154.147C144.527 154.81 141.556 155.31 138.564 155.646C138.085 156.473 137.666 157.334 137.311 158.221C139.717 158.001 142.112 157.661 144.484 157.201V157.201Z" fill="#DAB491"/>
<path d="M148.387 230.363C145.801 230.432 145.595 234.352 148.387 234.546C150.963 234.477 151.179 230.58 148.387 230.363ZM148.387 233.64C147.522 233.64 146.82 232.938 146.82 232.073C146.82 231.207 147.522 230.506 148.387 230.506C149.174 230.601 149.766 231.269 149.766 232.061C149.766 232.854 149.174 233.521 148.387 233.617V233.64Z" fill="#C3DDF4"/>
<path d="M78.4101 172.882C88.564 172.244 87.6067 158.449 78.4101 158.227C68.2449 158.859 69.2078 172.648 78.4101 172.882ZM76.7748 159.742C82.8318 160.096 82.3133 168.42 76.7748 168.58C70.7178 168.232 71.2249 159.907 76.7748 159.742Z" fill="#C3DDF4"/>
<path d="M140.029 186.409C144.467 186.193 144.268 179.93 140.029 179.748C135.613 179.959 135.789 186.227 140.029 186.409ZM139.362 180.443C142.023 180.517 142.211 184.54 139.362 184.762C136.695 184.688 136.479 180.671 139.362 180.443Z" fill="#C3DDF4"/>
<path d="M145.744 176.428C142.895 176.508 142.678 180.781 145.744 181.02C148.57 180.941 148.803 176.667 145.744 176.428ZM145.63 180.086C143.812 180.086 143.35 177.066 145.63 176.855C147.442 176.838 147.909 179.869 145.63 180.086Z" fill="#C3DDF4"/>
<path d="M115.026 187.715C111.037 187.806 111.037 193.715 115.026 193.88C119.003 193.789 119.043 187.874 115.026 187.715ZM114.33 191.703C112.444 191.703 111.96 188.558 114.33 188.336C116.239 188.319 116.707 191.453 114.33 191.703Z" fill="#C3DDF4"/>
<path d="M118.957 174.723C111.162 175.218 111.949 185.794 118.957 185.971C126.758 185.475 125.972 174.928 118.957 174.723ZM116.957 182.102C113.214 182.01 113.134 176.432 116.957 176.244C120.701 176.335 120.798 181.919 116.957 182.102Z" fill="#C3DDF4"/>
<path d="M48.2962 202C48.2962 201.937 48.2962 202 48.2962 201.76C45.5099 204.21 40.0113 201.863 40.4443 197.641C38.6381 199.92 34.0455 198.376 34.5241 194.991C27.1908 196.176 27.4244 185.202 34.4215 186.353C34.5932 184.991 35.4525 183.814 36.6967 183.235C37.9409 182.657 39.3952 182.758 40.5469 183.504C39.7948 178.661 47.4928 179.982 44.9572 184.37C47.2705 185.116 49.4301 187.829 49.2876 190.581C50.0455 190.444 50.4272 190.803 51.3218 189.47C55.8802 185.088 62.2506 190.968 59.0939 195.886C60.9002 197.27 61.2079 198.735 64.2905 197.407C65.0629 196.387 66.3403 195.883 67.601 196.102C71.6751 197.31 69.7492 199.584 69.8802 202.21C72.3646 207.378 65.0654 210.393 61.8403 206.302C60.0968 208.262 56.1423 207.817 55.1224 204.911C53.4699 206.439 50.8983 206.363 49.3389 204.74C49.3863 206.547 50.5474 208.135 52.2543 208.728C53.9612 209.321 55.857 208.795 57.0141 207.407C57.4484 208.991 58.7324 210.2 60.3401 210.537C61.9478 210.874 63.6092 210.284 64.6438 209.008C65.356 210.78 67.7948 211.857 69.601 210.005C70.2617 211.275 71.4953 212.147 72.9125 212.346C74.3297 212.545 75.7558 212.046 76.7406 211.008C77.1281 213.715 79.6808 214.592 81.9315 213.008C82.5685 213.627 83.4522 213.923 84.3334 213.812C85.2146 213.701 85.9976 213.196 86.4614 212.438C87.7331 213.529 89.4065 214.031 91.0684 213.82C92.7303 213.61 94.2256 212.706 95.1851 211.333C95.9772 213.053 97.6245 214.222 99.5098 214.402C101.395 214.581 103.233 213.744 104.336 212.205C104.788 213.388 105.942 214.152 107.207 214.105C108.472 214.059 109.568 213.212 109.932 212C112.211 216.296 118.273 214.473 118.234 209.794C120.182 213.635 124.501 213.709 127.316 211.19C129.026 213.179 132.444 211.72 132.336 208.871C134.045 211.202 138.404 211.282 139.84 208.085C141.926 210.854 146.763 210.775 148.581 207.384C149.352 207.772 150.24 207.857 151.071 207.624C150.205 219.173 165.692 209.185 155.225 205.105C155.886 204.688 156.418 204.097 156.763 203.396C159.704 205.726 164.775 202.923 163.544 198.752C169.242 199.737 171.555 194.284 168.991 190.022C170.427 188.41 169.219 184.928 166.547 184.968C168.798 185.715 168.496 189.527 165.709 189.641C169.293 191.635 167.151 197.35 162.929 196.108C158.94 194.968 160.313 188.763 164.439 189.27C163.914 188.926 163.532 188.404 163.362 187.8C163.151 187.971 163.783 188.689 163.157 188.843C161.836 189.35 160.772 190.363 160.202 191.657C159.631 192.952 159.602 194.421 160.12 195.737C159.909 195.549 158.929 196.102 158.843 195.396C158.651 193.645 157.478 192.156 155.821 191.56C154.164 190.964 152.311 191.365 151.048 192.592C152.513 183.703 139.584 183.43 140.45 192.022C137.274 191.932 134.41 193.921 133.385 196.928C129.316 194.079 123.561 197.829 124.923 202.871C122.287 202.063 119.462 203.349 118.342 205.869C117.772 202.125 115.59 200.957 111.738 201.059C109.521 196.592 103.191 196.621 100.575 200.775C101.544 192.911 93.0369 190.279 88.4899 195.561C85.7321 194.757 82.1822 197.088 82.0797 200.302C83.3389 200.142 83.0882 198.25 84.2563 197.299C85.5554 195.532 87.356 197.076 88.6153 195.931C92.4102 189.783 100.712 195.624 97.1167 201.213C98.1757 201.735 98.9585 202.688 99.2648 203.829C99.356 203.726 99.4415 203.629 99.5099 203.561C99.4415 203.658 99.6808 203.834 99.2648 203.834C99.3636 204.245 99.3829 204.67 99.3218 205.088C100.026 205.105 100.696 205.395 101.191 205.897C97.7435 197.965 108.809 194.786 110.165 202.558C120.991 197.641 116.479 216.267 109.134 207.293C108.957 210.666 103.8 212.461 101.726 209.094C100.946 210.803 97.9258 211.464 96.7292 209.185C94.9059 211.584 90.3589 211.532 88.752 208.421C87.1965 210.427 83.6523 211.27 81.2136 209.27C79.8062 211.35 78.3646 209.521 76.5355 210.062C75.7871 210.457 74.9018 210.499 74.1196 210.176C71.2705 209.151 72.2506 204.581 75.4301 204.792C74.1309 202.484 76.5697 199.065 79.6295 200.131C80.8831 200.49 80.6609 201.527 82.0569 200.33C79.356 198.319 74.7406 200.267 74.6837 204C73.6694 203.686 71.9201 204.079 70.6495 204.837C75.1509 199.487 68.507 192.871 63.3446 197.527C64.1196 195.92 62.8318 193.185 63.0141 191.709C68.6723 188.262 61.3503 181.646 58.376 187.151C58.0056 189.43 54.8888 185.538 50.0911 190.239C50.1252 188.296 48.0797 186.45 47.1851 184.974C49.2022 180.313 41.9087 177.464 40.4215 182.649C34.9344 180.404 34.5982 186.74 33.8973 185.43C33.891 185.532 33.891 185.635 33.8973 185.737C24.564 186.307 25.5384 199.185 34.1537 199.076C35.1509 201.703 38.1423 203.122 40.5241 200.706C41.0426 204.512 45.7036 206.735 48.9913 204.125C48.5922 203.483 48.3538 202.754 48.2962 202V202ZM156.347 208.649C156.262 211.891 151.413 212.034 151.219 208.649C151.293 205.413 156.125 205.27 156.347 208.649ZM129.504 196.404C131.031 196.803 132.353 197.048 134.37 197.698C134.215 196.173 134.901 194.686 136.162 193.815C137.422 192.945 139.057 192.83 140.427 193.515C140.677 192.912 141.102 192.398 141.647 192.039C139.367 188.541 144.051 184.21 147.43 187.111C149.259 188.222 148 190.119 149.094 191.339C150.279 191.635 150.017 194.245 151.658 192.809C157.664 188.883 161.048 198.814 154.735 200.045C147.994 198.626 150.536 200.615 146.422 203.105C144.564 204.416 143.003 202.119 141.362 203.02C139.803 204.348 137.473 204.207 136.085 202.7C132.661 210.256 119.721 198.404 129.504 196.404V196.404ZM121.766 203.498C125.356 203.584 125.441 208.945 121.766 209.122C118.171 209.037 118.085 203.675 121.766 203.498ZM60.7064 185.567C62.6609 185.567 63.168 188.826 60.7064 189.054C58.7463 189.071 58.2449 185.8 60.7064 185.567Z" fill="#C3DDF4"/>
<path d="M162.45 185.687C162.769 183.863 164.159 183.823 165.681 184.838C163.823 182.216 160.057 186.097 163.459 187.749C163.476 187.043 162.581 186.838 162.45 185.687V185.687Z" fill="#C3DDF4"/>
<path d="M46.9971 212.416C50.2563 212.33 50.4159 207.447 46.9971 207.242C43.7321 207.328 43.5896 212.211 46.9971 212.416ZM45.9999 208.006C48.4329 208.342 45.96 211.994 44.8603 209.117C44.9116 208.741 45.1566 208.211 45.9999 208.006Z" fill="#C3DDF4"/>
<path d="M45.6239 213.811C37.2364 214.489 39.3561 226.233 47.0769 224.523C48.2165 229.652 54.7863 224.848 50.2336 222.199C52.4216 218.956 49.8974 213.674 45.6239 213.811V213.811ZM44.1994 221.652C39.641 221.435 39.8575 215.013 44.1994 214.814C48.7521 215.025 48.547 221.452 44.1994 221.652ZM48.0057 224.797C46.0626 224.541 48.0399 221.629 48.8889 223.919C48.8264 224.375 48.4624 224.729 48.0057 224.78V224.797Z" fill="#C3DDF4"/>
<path d="M81.8519 183.27C74.9516 183.634 75.4872 193.19 81.8519 193.361C88.7408 192.99 88.2108 183.44 81.8519 183.27ZM80.7977 190.489C76.5128 190.284 76.7009 184.221 80.7977 184.056C85.0883 184.261 84.9003 190.312 80.7977 190.489Z" fill="#C3DDF4"/>
<path d="M158.194 217.328C163.766 215.715 156.695 209.864 155.977 215.738C153.271 210.291 146.952 216.718 152.45 219.231C145.823 224.183 159.288 224.895 153.345 219.294C154.972 218.905 156.078 217.396 155.96 215.727C156.427 216.371 156.877 217.18 158.194 217.328V217.328ZM153.635 220.918C153.589 221.628 152.999 222.18 152.288 222.18C151.576 222.18 150.986 221.628 150.94 220.918C150.986 220.207 151.576 219.655 152.288 219.655C152.999 219.655 153.589 220.207 153.635 220.918ZM152.496 218.069C149.989 218 149.783 214.217 152.496 214.006C155.014 214.091 155.219 217.869 152.507 218.086L152.496 218.069ZM157.681 213.556C158.354 213.601 158.877 214.16 158.877 214.835C158.877 215.51 158.354 216.069 157.681 216.114C157.045 216.026 156.572 215.481 156.575 214.839C156.578 214.196 157.055 213.655 157.692 213.573L157.681 213.556Z" fill="#C3DDF4"/>
<path d="M148.387 229.664C144.815 229.75 144.729 235.071 148.387 235.254C151.954 235.163 152.04 229.841 148.387 229.664ZM150.479 232.456C150.405 235.037 146.49 235.248 146.291 232.456C146.365 229.875 150.262 229.664 150.479 232.479V232.456Z" fill="#492B25"/>
<path d="M79.5611 157.617C68.2563 156.563 67.0255 172.916 78.4215 173.572C87.9885 173.298 89.6808 159.668 79.5611 157.617ZM78.4215 158.227C88.581 158.859 87.6181 172.66 78.4215 172.882C68.2506 172.244 69.2078 158.449 78.4101 158.227H78.4215Z" fill="#492B25"/>
<path d="M143.909 176.37C141.151 178.473 143.909 183.27 147.413 181.208C150.735 179.139 147.242 173.892 143.909 176.37ZM145.744 181.02C142.895 180.94 142.678 176.666 145.744 176.427C148.57 176.507 148.803 180.78 145.744 181.02Z" fill="#492B25"/>
<path d="M77.3845 184.695C72.9743 190.581 80.9743 197.72 86.2962 191.948C90.9686 185.977 82.4102 178.945 77.3845 184.695ZM86.8945 188.313C86.5241 195.213 76.9743 194.677 76.8033 188.313C77.168 181.424 86.7235 181.948 86.8945 188.313Z" fill="#492B25"/>
<path d="M118.074 193.019C121.06 188.78 114.484 184.392 111.664 189.059C109.567 192.74 114.883 196.899 118.074 193.019ZM115.026 193.88C111.037 193.788 111.037 187.874 115.026 187.714C118.997 187.805 119.043 193.731 115.026 193.88Z" fill="#492B25"/>
<path d="M118.957 174.021C110.182 174.517 110.9 186.973 119.447 186.648C127.59 185.868 126.809 174.158 118.957 174.021ZM124.581 180.346C124.085 188.141 113.515 187.361 113.339 180.346C113.835 172.546 124.404 173.338 124.581 180.346Z" fill="#492B25"/>
<path d="M31.0712 199.184C34.6666 199.372 35.7321 204.568 40.017 201.856C41.225 205.207 45.2079 207.172 48.6951 205.047C48.8603 208.5 53.5042 211.218 56.7464 208.574C57.4459 209.945 58.7329 210.921 60.2411 211.225C61.7494 211.529 63.3141 211.128 64.49 210.135C65.0249 210.917 65.8504 211.453 66.7825 211.623C67.7147 211.794 68.6762 211.584 69.4529 211.041C71.0508 213.241 74.1081 213.771 76.3532 212.238C77.8062 215.469 79.8518 214.135 82.3361 214.152C83.761 214.92 85.5263 214.614 86.6096 213.412C89.2747 215.261 92.8906 214.888 95.1224 212.534C96.98 215.412 101.624 216.204 104.268 213.395C104.954 214.307 106.032 214.84 107.174 214.831C108.315 214.822 109.385 214.272 110.057 213.349C112.279 216.289 117.601 215.463 118.695 211.64C120.598 213.981 124.803 214.557 127.276 212.078C128.872 213.463 132.211 212.887 132.889 210.318C133.976 211.132 135.343 211.478 136.687 211.278C138.03 211.078 139.238 210.348 140.04 209.252C146.023 213.651 146.923 208.152 150.262 208.5C150.059 210.256 150.841 211.981 152.296 212.984C149.647 213.554 148.473 217.355 151.008 219.252C146.142 224.791 158.536 226.272 154.746 219.514C155.553 219.048 156.162 218.302 156.456 217.417C160.444 220.164 163.424 212.922 158.125 212.472C159.213 211.385 159.698 209.835 159.424 208.323C159.15 206.81 158.151 205.529 156.752 204.893C160.216 204.944 164.627 204.95 164.496 199.623C169.214 200.164 172.94 194.454 169.84 190.272C170.645 189.017 170.669 187.414 169.903 186.135C169.134 184.858 167.685 184.152 166.205 184.335C165.532 183.452 164.383 183.079 163.32 183.397C162.257 183.715 161.502 184.658 161.424 185.765C161.253 186.392 161.863 187.583 162.792 188.306C160.716 189.226 159.325 191.225 159.185 193.491C158.171 191.127 154.786 189.634 151.92 191.093C151.96 187.246 147.527 183.377 143.191 185.594C146 182.13 141.544 176.933 137.493 180.004C134.131 182.528 137.088 188.432 141.424 186.842C140.267 188.041 139.65 189.661 139.715 191.326C137.242 191.395 134.08 193.298 133.048 195.885C129.111 193.85 123.601 196.62 124.074 201.947C122.011 201.63 119.937 202.446 118.644 204.084C117.946 202.059 116.154 200.61 114.028 200.352C113.174 199.885 112.541 201.212 111.801 199.811C110.63 198.165 108.805 197.107 106.796 196.909C104.787 196.712 102.79 197.394 101.322 198.779C100.587 191.685 92.6894 189.919 88.2165 194.751C85.5954 194.181 82.0512 196.204 81.527 199.224C74.6894 196.91 75.829 203.343 72.319 203.298C74.5982 198.933 69.225 193.001 64.1823 195.947C63.0427 190.58 64.8717 192.654 65.7207 188.46C65.8404 184.226 59.3333 182.358 57.5327 187.132C55.8233 186.699 52.5413 186.939 50.4387 188.842C49.9834 187.312 49.0852 185.952 47.8575 184.933C48.9173 182.756 47.1224 178.905 43.8689 179.024C42.1691 179.082 40.6476 180.094 39.9373 181.64C37.8233 180.739 34.2393 182.266 33.6695 184.944C25.641 185.252 23.7207 196.215 31.0712 199.184V199.184ZM48.8375 204.118C45.9885 206.489 40.9059 204.688 40.4216 200.642C37.7036 203.303 35.4073 201.264 33.7834 199.019C24.5982 198.489 25.3789 185.913 33.7834 185.674C33.7738 185.571 33.7738 185.468 33.7834 185.366C33.8974 185.742 34.1424 186.13 34.3988 184.853C35.3561 182.466 37.8176 181.474 40.3076 182.574C41.8689 177.446 49.3675 180.084 46.9515 185.167C48.5831 186.365 49.6715 188.163 49.9771 190.164C51.9767 188.031 54.9903 187.176 57.8119 187.942C58.2848 187.845 57.8119 188.044 58.262 187.075C61.829 180.99 68.5185 189.155 62.5811 191.816C63.4477 193.57 63.6774 195.57 63.2307 197.474C68.4387 192.836 75.0484 199.463 70.5356 204.785C72.0227 204.141 72.4387 203.645 74.5697 203.947C74.792 200.244 78.7749 198.289 81.9771 200.249C82.4672 196.42 85.3276 195.121 88.7521 195.372C93.3105 189.64 101.681 193.811 100.473 200.722C104.131 195.697 109.157 197.303 112.04 201.189C114.661 200.335 118.028 202.454 118.239 205.816C119.293 203.697 121.658 201.879 124.82 202.819C123.521 198.09 128.957 193.873 133.282 196.876C134.31 193.871 137.173 191.884 140.348 191.97C139.669 183.093 152.587 183.993 150.946 192.54C158.655 187.657 157.818 196.66 160.12 195.691C158.268 189.924 163.675 189.742 163.362 187.754C160.895 186.774 162.222 182.546 165.134 184.283C165.869 185.235 168.553 184.819 169.231 186.506C170.268 187.942 169.185 188.939 168.997 190.42C172.057 194.278 168.427 199.97 163.544 198.717C164.621 202.363 160.211 205.987 156.763 203.36C156.422 204.064 155.888 204.656 155.225 205.07C165.937 209.805 149.675 218.665 151.071 207.588C150.467 207.913 149.436 207.503 148.501 207.474C146.82 210.54 142.194 211.019 139.84 208.044C139.169 209.425 137.833 210.361 136.307 210.521C134.78 210.681 133.279 210.042 132.336 208.83C132.188 212.073 129.362 212.819 127.06 211.155C124.672 214.004 119.937 213.286 118.234 209.754C118.234 214.591 112.205 216.147 109.932 211.959C109.568 213.171 108.473 214.018 107.207 214.064C105.942 214.111 104.788 213.347 104.336 212.164C102.268 215.338 96.8432 215.11 95.1851 211.292C94.2268 212.667 92.7312 213.571 91.0688 213.782C89.4063 213.993 87.7324 213.49 86.4615 212.397C85.3504 214.107 83.4985 214.107 81.6979 212.967C80.188 214.677 76.8945 213.605 76.7407 210.967C75.7523 211.998 74.3286 212.491 72.9143 212.293C71.4999 212.094 70.2672 211.228 69.6011 209.964C68.8954 210.712 67.854 211.044 66.8459 210.841C65.8378 210.638 65.0054 209.93 64.6438 208.967C62.735 211.588 57.9259 210.922 57.0142 207.366C53.2193 210.91 50.0056 207.936 48.8888 204.056L48.8375 204.118ZM155.96 215.731C156.101 217.406 154.985 218.928 153.345 219.298C159.242 225.087 145.761 224.004 152.45 219.235C146.974 216.722 153.265 210.261 155.977 215.742C155.88 213.286 159.151 212.027 160.211 214.682C160.877 217.332 157.265 218.392 155.96 215.731V215.731ZM155.897 213.674C155.835 213.759 155.897 213.714 155.681 214.061C155.624 213.993 155.647 214.061 155.339 213.765C155.527 213.746 155.713 213.716 155.897 213.674V213.674ZM140.028 179.771C144.467 179.981 144.268 186.249 140.028 186.432C135.612 186.192 135.789 179.93 140.028 179.748V179.771Z" fill="#492B25"/>
<path d="M43.7379 209.48C43.265 212.899 48.9345 215.013 50.1994 210.546C51.02 206.42 44.5527 204.705 43.7379 209.48V209.48ZM44.4103 209.828C44.4957 206.568 49.3789 206.409 49.5841 209.828C49.4986 213.104 44.6154 213.235 44.4103 209.828Z" fill="#492B25"/>
<path d="M41.6525 214.575C36.9459 218.729 40.5755 226.188 46.53 225.333C46.8204 226.236 47.5076 226.957 48.3958 227.29C49.284 227.623 50.2758 227.532 51.0884 227.042C54 224.763 51.4416 223.527 51.3961 221.344C53.624 215.549 46.3305 210.558 41.6525 214.575V214.575ZM50.3932 221.886C50.3932 221.886 50.3533 221.971 50.2337 222.199C54.7921 224.809 48.2109 229.658 47.077 224.524C41.6297 225.994 37.7949 218.957 41.9488 215.219C46.5983 211.048 53.2251 216.672 50.3932 221.886V221.886Z" fill="#492B25"/>
<path d="M148.388 230.506C147.522 230.506 146.821 231.207 146.821 232.073C146.821 232.938 147.522 233.64 148.388 233.64C149.253 233.64 149.954 232.938 149.954 232.073C149.954 231.207 149.253 230.506 148.388 230.506Z" fill="white"/>
<path d="M152.291 219.572C151.58 219.618 151.028 220.208 151.028 220.92C151.028 221.632 151.58 222.221 152.291 222.267C153.001 222.221 153.553 221.632 153.553 220.92C153.553 220.208 153.001 219.618 152.291 219.572Z" fill="white"/>
<path d="M157.692 216.131C158.366 216.086 158.889 215.526 158.889 214.851C158.889 214.177 158.366 213.617 157.692 213.572C157.019 213.617 156.496 214.177 156.496 214.851C156.496 215.526 157.019 216.086 157.692 216.131Z" fill="white"/>
<path d="M152.507 214.021C150 214.09 149.795 217.873 152.507 218.084C155.014 218.016 155.219 214.244 152.507 214.021Z" fill="white"/>
<path d="M116.957 176.244C113.219 176.335 113.128 181.942 116.957 182.102C120.701 182.011 120.798 176.432 116.957 176.244Z" fill="white"/>
<path d="M114.33 188.336C112.444 188.336 111.96 191.476 114.33 191.703C116.239 191.721 116.701 188.558 114.33 188.336Z" fill="white"/>
<path d="M139.362 184.762C142.023 184.688 142.211 180.671 139.362 180.443C136.695 180.517 136.479 184.54 139.362 184.762Z" fill="white"/>
<path d="M145.63 176.854C144.775 176.904 144.107 177.612 144.107 178.469C144.107 179.325 144.775 180.033 145.63 180.084C147.442 180.101 147.909 177.064 145.63 176.854Z" fill="white"/>
<path d="M78.4102 199.925C76.0969 199.954 74.1083 202.364 75.339 204.769C71.6353 204.541 71.2934 210.193 75.1225 210.375C76.8319 209.179 79.2137 211.458 81.1225 209.236C83.0883 210.843 86.7578 210.877 88.661 208.387C90.0741 211.065 94.433 211.954 96.6382 209.15C97.4929 210.894 100.575 211.316 101.635 209.059C103.453 212.011 108.707 211.207 109.043 207.259C116.934 216.279 120.439 197.236 110.074 202.524C108.33 194.239 97.6182 198.603 101.1 205.863C100.605 205.361 99.9351 205.071 99.2308 205.053C99.4986 203.749 98.5413 201.851 97.0256 201.179C100.046 196.763 94.6894 191.15 90.0969 194.176C87.4815 197.726 87.2479 195.105 84.1652 197.264C82.0513 200.506 82.5527 201.378 78.4102 199.925V199.925Z" fill="white"/>
<path d="M129.037 203.583C130.61 205.863 134.912 205.863 136.086 202.7C137.314 203.991 139.261 204.284 140.815 203.412C141.954 202.609 141.539 202.364 143.18 203.207C146.678 204.791 148.165 200.928 150.074 199.743C151.755 198.917 153.066 200.489 155.311 199.92C162.148 196.284 156.097 189.538 150.444 193.116C150.564 192.062 148.479 191.726 148.735 190.524C149.088 183.452 138.479 185.914 141.664 192.039C141.12 192.399 140.696 192.913 140.444 193.515C137.954 192.033 133.801 194.364 134.388 197.697C125.356 193.469 123.436 202.187 129.037 203.583V203.583Z" fill="white"/>
<path d="M121.766 209.116C125.356 209.031 125.442 203.669 121.766 203.492C118.171 203.583 118.085 208.945 121.766 209.116Z" fill="white"/>
<path d="M164.262 189.065C164.352 189.143 164.447 189.216 164.547 189.281C160.461 188.791 159.122 194.78 163.037 196.119C166.98 197.595 169.533 191.652 165.818 189.652C174.558 186.478 157.208 179.555 164.262 189.065Z" fill="white"/>
<path d="M46 210.256C48.433 209.926 45.9601 206.268 44.8604 209.145C44.9116 209.499 45.1566 210.023 46 210.256Z" fill="white"/>
<path d="M44.1994 214.814C39.641 215.037 39.8575 221.458 44.1994 221.652C48.7521 221.418 48.547 214.997 44.1994 214.814Z" fill="white"/>
<path d="M48.0056 223.02C46.0683 223.282 48.0056 226.182 48.8888 223.903C48.834 223.44 48.4688 223.074 48.0056 223.02Z" fill="white"/>
<path d="M151.208 208.649C151.293 211.891 156.142 212.034 156.336 208.649C156.262 205.413 151.413 205.265 151.208 208.649Z" fill="white"/>
<path d="M76.7748 168.58C82.8318 168.232 82.3133 159.907 76.7748 159.742C70.7178 160.113 71.2249 168.42 76.7748 168.58Z" fill="white"/>
<path d="M49.3731 204.734C50.9268 206.379 53.5166 206.463 55.1737 204.922C55.6797 206.209 56.8015 207.155 58.1563 207.435C59.5112 207.715 60.916 207.293 61.8916 206.312C64.5013 210.363 73.3332 207.087 69.5611 201.663C71.4757 199.68 69.7093 195.44 66.3816 196.113C64.6722 196.027 64.9343 198.323 63.2135 197.748C61.2762 198.004 60.7121 197.469 59.1224 195.896C61.9714 191.606 57.0654 186.05 52.393 188.688C50.9628 189.338 51.1566 190.745 49.3161 190.591C49.3273 187.815 47.5947 185.33 44.9856 184.38C47.5155 180.164 39.8175 178.523 40.5754 183.514C38.5013 181.976 34.7235 183.361 34.45 186.363C27.0768 185.4 27.6124 196.363 34.5526 195.002C34.0967 197.953 38.1936 200.215 40.4728 197.651C40.205 201.503 44.9059 204.489 48.3247 201.771C48.2726 202.858 48.649 203.922 49.3731 204.734Z" fill="white"/>
<path d="M60.7064 189.054C62.6665 189.054 63.1679 185.8 60.7064 185.566C58.7463 185.549 58.2448 188.826 60.7064 189.054Z" fill="white"/>
<path d="M80.7977 184.045C76.5071 184.25 76.7065 190.313 80.7977 190.478C85.0883 190.313 84.9002 184.227 80.7977 184.045Z" fill="white"/>
<path d="M72.8204 30.5411C65.0369 23.3502 55.4643 34.5297 62.7862 41.2476C62.6039 41.0881 62.0569 41.5667 61.8518 41.0083C61.8005 41.0596 61.8176 41.0083 61.8176 41.2248C49.282 43.504 60.5298 59.3445 66.9458 49.202C68.0542 50.815 70.0989 51.4958 71.953 50.8694C73.8071 50.2429 75.0199 48.4616 74.923 46.5069C75.0427 46.5069 75.3162 46.3701 75.3902 46.826C75.3965 46.7235 75.3965 46.6208 75.3902 46.5183C76.7264 46.4842 77.9759 45.8491 78.7908 44.7897C79.6058 43.7304 79.8993 42.3598 79.5897 41.0596C92.0683 43.8459 88.7065 24.6949 78.2278 30.9171C76.6668 29.7111 74.5334 29.5627 72.8204 30.5411V30.5411ZM59.829 48.6151C56.0911 48.524 56.0056 42.9456 59.829 42.7576C63.5441 42.8488 63.6352 48.4328 59.829 48.6151ZM78.0626 31.561C84.9002 26.2676 87.8461 39.4072 79.6238 37.7775C78.5358 39.8883 76.0973 40.9231 73.8233 40.2391C73.7553 41.7777 72.9545 43.1908 71.6694 44.0397C74.4729 49.92 64.0227 49.9941 66.8546 44.0397C64.5412 42.9912 65.4814 40.5468 64.1652 39.2134C54.3931 33.8231 68.1196 23.9428 70.7407 33.8003C71.5726 31.3388 75.3105 29.5781 78.0626 31.561Z" fill="#C3DDF4"/>
<path d="M43.2649 88.0734C38.6495 87.7429 36.5355 93.9765 40.3133 96.5805C44.9743 99.7486 49.9999 93.703 46.4671 89.5833C53.7093 86.3127 42.3589 80.3982 43.7435 88.0962L43.2649 88.0734ZM43.6751 86.307C43.6751 85.4888 44.3384 84.8255 45.1566 84.8255C45.9748 84.8255 46.6381 85.4888 46.6381 86.307C46.6552 87.8511 43.9657 88.4779 43.6751 86.307ZM43.772 91.7543C43.6865 94.8654 39.0312 95.0078 38.8318 91.7543C38.9116 88.6375 43.5726 88.5007 43.772 91.7372V91.7543Z" fill="#C3DDF4"/>
<path d="M65.8289 70.9621C65.7491 73.8111 61.2135 73.7485 61.5554 70.5747C60.4158 73.7257 64.8374 76.6088 67.2534 73.7598C69.9599 70.8311 65.4813 66.3126 62.4272 69.2299C63.3958 68.3752 65.8346 69.0476 65.8289 70.9621V70.9621Z" fill="#C3DDF4"/>
<path d="M54.8149 70.9628C54.7351 73.9143 50.0114 73.6864 50.5755 70.4671C48.9915 76.3816 58.6439 76.2562 56.7123 70.2676C59.7721 69.128 61.5157 65.2021 59.6639 62.0853C54.3704 54.4158 44.9459 63.7491 51.2251 69.3616C52.2963 68.2847 54.7522 68.9457 54.8149 70.9628ZM49.4872 64.2562C49.7038 59.4756 56.473 59.6978 56.6439 64.2562C56.4103 69.0368 49.6525 68.8089 49.4872 64.2562Z" fill="#C3DDF4"/>
<path d="M57.2022 42.5291C51.6694 48.5177 61.0711 58.1188 67.0426 50.3809C69.5954 53.2641 75.4586 51.5205 75.5897 47.1958C77.9771 47.1958 80.5697 44.7513 80.3817 42.0106C88.319 43.5604 91.8746 32.4778 84.0455 29.3496C81.8746 28.0846 79.8518 30.0277 77.6637 29.7314C76.1785 28.9885 74.4337 28.9716 72.9344 29.6858C71.7698 28.6485 70.3463 27.9456 68.8147 27.6516C65.5374 27.1028 62.2606 28.6298 60.5729 31.4923C58.8852 34.3548 59.1354 37.9612 61.2022 40.5633C59.6807 40.7329 58.266 41.4281 57.2022 42.5291V42.5291ZM74.6723 29.9023C75.7264 29.5091 77.2193 30.5975 78.4387 30.7741C89.6352 25.1673 91.2079 44.1872 79.5783 41.059C80.2449 43.4522 78.2677 46.5804 75.3788 46.5177V46.8254C75.3161 46.7114 75.3788 46.4208 74.9116 46.5063C75.0178 48.4655 73.8053 50.2553 71.9465 50.8833C70.0877 51.5113 68.0381 50.8236 66.9344 49.2015C59.5726 59.6459 49.9372 42.7798 61.8062 41.2242C61.8062 41.2242 61.7549 41.1502 61.8404 41.0077C61.8404 41.2356 62.262 41.2812 62.7748 41.247C55.2706 34.0106 65.4358 23.7884 72.6267 30.3582C73.0996 30.6715 73.658 29.9536 74.6723 29.9023V29.9023Z" fill="#492B25"/>
<path d="M48.3703 92.7407C48.3339 91.7549 48.0582 90.7927 47.5669 89.9373C54.0683 85.2592 42.8775 79.7948 42.8547 87.3618C29.0598 91.1339 45.7834 106.12 48.3703 92.7407ZM43.7436 88.0911C42.5356 80.3703 53.6524 86.3817 46.4672 89.5783C49.7777 93.3048 45.5099 99.2934 40.7692 96.8661C36.0911 94.5869 38.6495 87.3048 43.7322 88.0854L43.7436 88.0911Z" fill="#492B25"/>
<path d="M60.6609 71.618C60.8318 76.8544 68.564 76.8772 68.7236 71.618C68.4899 66.3245 60.9116 66.3416 60.6609 71.618V71.618ZM62.4102 69.2305C65.6352 66.2448 70.188 71.1109 66.8375 74.1593C63.8803 76.957 59.225 72.1365 62.4102 69.2305V69.2305Z" fill="#492B25"/>
<path d="M50.3077 69.4184C47.6183 73.7033 54.1995 78.8771 57.3562 73.1905C57.7003 72.3902 57.7684 71.4982 57.5499 70.6549C60.3126 69.2848 61.7083 66.1417 60.8718 63.1734C56.9801 52.8999 43.4416 61.6862 50.3077 69.4184ZM51.2251 69.3615C44.171 62.1193 56.6268 54.5466 60.1539 63.1506C61.5442 66.6036 58.6952 68.917 56.8149 70.558C58.1197 77.407 47.1567 75.2703 51.2251 69.3615Z" fill="#492B25"/>
<path d="M59.8289 42.7344C56.091 42.8255 55.9999 48.4324 59.8289 48.5919C63.5497 48.5236 63.6352 42.9452 59.8289 42.7344Z" fill="white"/>
<path d="M72.3646 31.652C71.6271 32.1955 71.055 32.9333 70.7122 33.783C66.8376 22.8884 54.5926 35.6349 64.735 39.3671C64.4602 41.1944 65.2776 43.014 66.8262 44.0223C64.0227 49.9255 74.4729 49.9881 71.641 44.0223C72.9199 43.1677 73.7187 41.7581 73.7948 40.2218C75.5612 40.9055 78.6723 39.8913 79.5954 37.7602C80.7207 38.1095 81.9415 37.9623 82.9515 37.3557C87.7777 33.971 81.8917 27.6064 78.0341 31.5437C76.3058 30.3969 74.048 30.4401 72.3646 31.652Z" fill="white"/>
<path d="M41.2992 89.2871C38.1881 89.3669 38.0513 94.0222 41.2992 94.2216C44.4445 94.1418 44.5528 89.458 41.2992 89.2871Z" fill="white"/>
<path d="M45.1566 87.7892C46.7008 87.7892 47.3275 85.1169 45.1566 84.8263C43.6124 84.8092 42.9857 87.4986 45.1566 87.7892Z" fill="white"/>
<path d="M61.5385 70.5758C61.0712 73.3792 65.5612 74.1428 65.812 70.9633C65.812 68.8265 62.3419 67.6755 61.5385 70.5758Z" fill="white"/>
<path d="M56.6438 64.2565C56.4272 59.4759 49.6523 59.6981 49.4871 64.2565C49.7036 69.0429 56.4728 68.8092 56.6438 64.2565Z" fill="white"/>
<path d="M50.5812 70.456C49.886 72.8149 53.8177 74.3477 54.735 71.5386C55.6182 69.0485 51.3618 67.4873 50.5812 70.456Z" fill="white"/>
</g>
<defs>
<clipPath id="clip0_1_39539">
<rect width="200" height="256" fill="white"/>
</clipPath>
</defs>
</svg>
