<svg width="174" height="172" viewBox="0 0 174 172" fill="none" xmlns="http://www.w3.org/2000/svg">
<path d="M173.332 85.9991C167.806 202.044 4.176 199.145 0 85.9991C5.568 -30.1009 169.17 -27.2019 173.332 85.9991Z" fill="#FEFEFE"/>
<path d="M43.9452 84.6943C34.5074 94.1821 49.5132 58.1453 38.7252 70.0189C38.5024 70.6153 37.528 70.2963 37.8064 69.2282C40.2007 61.0998 48.678 61.2247 44.1957 75.9972C44.0844 70.3518 56.8212 53.3876 55.0533 71.836H55.3178C55.7076 66.676 65.5629 56.6889 65.6604 70.5876C65.9805 72.6266 59.7026 90.964 68.7645 79.2985L68.8898 79.576C69.21 80.3805 69.0986 80.0892 69.7668 81.8647C69.0568 84.3198 61.2895 90.104 60.4264 81.726C65.4237 63.9156 58.4637 59.2134 54.0789 84.6111C53.9119 85.804 50.8495 87.094 50.8495 84.0702C55.0394 66.8008 51.8935 55.9398 43.9452 84.6943V84.6943Z" fill="#606593"/>
<path d="M75.9472 75.9696C79.3437 79.0767 71.9243 92.6148 67.3585 82.3503C65.2427 75.5396 74.3185 68.0216 80.9584 78.1058L80.7357 79.9367C79.3809 78.3424 77.8117 76.942 76.0725 75.7755L75.9472 75.9696ZM71.9243 83.4738C73.7617 84.8609 76.2673 71.2258 70.8246 77.329C70.5323 78.2306 68.5557 83.0022 71.9243 83.4738Z" fill="#606593"/>
<path d="M90.0069 83.0577C83.4367 87.4826 78.4534 87.6213 79.8454 73.9306C78.1054 74.0416 72.1476 71.7113 80.2073 71.8222C79.6365 63.9851 92.7353 56.259 85.6082 72.1552C92.958 71.6003 89.6729 75.3455 84.2162 74.3468C83.9657 74.6797 83.9378 74.749 82.7407 76.261C82.4484 79.9506 81.6132 87.5103 90.0626 79.7426L90.0069 83.0577ZM85.8309 66.579C85.3437 63.2916 83.1862 68.4793 82.6711 71.85H83.4645C84.5601 70.2463 85.3613 68.4617 85.8309 66.579Z" fill="#606593"/>
<path d="M93.4869 78.0377C109.049 60.0886 91.2597 91.6728 103.064 79.938L103.287 83.3919C100.029 86.8319 91.552 87.678 96.7303 77.358H96.4658C95.0738 76.5535 91.4546 88.4548 89.0603 85.1535C89.1856 83.5167 87.0698 60.1857 97.4123 61.2815C100.781 64.5135 95.9368 72.4754 93.2363 77.9267L93.4869 78.0377ZM94.6562 69.8815C95.7837 68.0644 97.6072 58.3548 93.2642 67.8425C92.7061 69.7686 92.3287 71.7421 92.1367 73.7377C91.9418 74.7641 91.8026 75.7767 91.7051 76.7615C91.9557 76.1096 92.248 75.5686 94.6562 69.8815Z" fill="#606593"/>
<path d="M107.393 85.9985C98.8319 86.7475 103.008 67.2727 111.235 75.0404C112.098 77.454 109.759 81.0882 105.959 81.9066C107.351 83.7098 108.98 83.7237 113.726 79.9785L115.397 81.6846C113.504 83.1133 112.543 85.4021 107.393 85.9985ZM105.653 79.7843C106.46 80.575 111.917 75.4843 107.393 75.8311C106.213 76.7971 105.567 78.2655 105.653 79.7843Z" fill="#606593"/>
<path d="M112.85 83.225C112.932 80.0734 113.481 76.9512 114.478 73.9592C114.604 73.8205 114.478 73.3072 115.258 73.113C115.6 73.0694 115.946 73.0694 116.288 73.113C117.151 74.1534 116.511 73.6124 116.594 77.1634H116.733C116.288 77.1634 120.909 69.5205 121.661 74.9163C121.466 76.4282 119.587 82.3234 125.837 77.5934L125.642 80.6311C123.484 82.254 118.78 83.8492 118.543 77.7182H118.32C117.401 79.466 114.743 91.6169 112.85 83.225V83.225Z" fill="#606593"/>
<path d="M124.486 69.3537C124.486 67.7586 124.653 66.3992 124.904 63.5695C126.296 60.7954 131.279 60.4486 126.992 69.3815C126.95 69.7005 125.001 72.1279 124.486 69.3537V69.3537Z" fill="#606593"/>
<path d="M132.031 81.0759C134.176 79.0585 136.086 76.8064 137.724 74.3623C138.601 72.4482 144.141 72.4065 139.798 76.873C139.937 78.9675 140.773 79.1617 140.383 82.7543C141.26 82.0885 141.97 82.2133 144.976 80.2298V83.2259C142.429 84.5159 134.857 89.2598 132.448 83.6698C130.848 84.1969 129.943 82.352 132.031 81.0759V81.0759ZM133.632 82.7543C135.901 85.2372 138.42 83.5865 137.237 78.9675L133.632 82.7543Z" fill="#606593"/>
<path d="M75.4325 90.6739C92.916 88.3575 88.4338 120.094 70.4491 113.311C69.3355 112.396 69.6974 91.6172 76.4069 96.2223C75.5021 96.9714 74.124 101.604 73.9291 104.226C69.5443 130.22 100.377 84.4736 69.8506 95.9033C65.6746 104.351 64.032 90.2578 75.4325 90.6739Z" fill="#606593"/>
<path d="M101.923 109.981C100.976 111.466 96.5913 115.752 94.7817 111.133C84.3278 120.842 85.8173 94.9591 98.0112 101.895C99.2779 100.951 94.2528 113.172 99.4032 109.26C100.097 108.614 100.722 107.898 101.268 107.124L101.923 109.981ZM90.7867 108.955C90.7867 111.507 93.4037 111.41 94.0579 107.041L95.0323 102.879C93.4733 103.115 91.2321 104.586 90.7449 108.955H90.7867Z" fill="#606593"/>
<path d="M105.973 113.408L106.265 111.84C99.0966 119.192 97.6906 97.7889 104.873 101.104C105.472 100.993 100.697 112.048 105.249 110.314C106.989 109.413 106.975 97.0815 110.998 101.354C110.511 104.128 109.815 107.873 109.189 111.993C111.084 110.744 112.677 109.09 113.852 107.152L114.478 110.037C113.567 111.292 112.441 112.377 111.151 113.241C110.469 113.893 108.604 114.073 108.646 117.583C108.646 117.902 108.562 118.138 108.548 118.318C110.135 126.322 93.8766 129.054 102.98 116.39C103.906 115.326 104.906 114.33 105.973 113.408V113.408ZM105.973 116.542C104.199 118.063 103.025 120.162 102.66 122.465C104.623 123.991 105.792 119.885 106.015 116.515L105.973 116.542Z" fill="#606593"/>
<path d="M83.5204 159.876C115.244 169.669 160.526 128.972 159.176 101.688C147.288 140.998 122.496 152.58 87.5433 157.518C85.8451 157.962 81.6691 157.171 83.5204 159.876V159.876Z" fill="#F7D7BA"/>
<path d="M36.1924 137.003C45.5605 153.273 78.9129 162.192 54.1074 147.059C49.8757 146.116 36.5682 130.386 36.1924 137.003V137.003Z" fill="#F7D7BA"/>
<path d="M25.4319 125.822C29.4548 125.822 27.6174 117.929 23.2604 122.091C22.3974 123.797 23.0377 125.087 25.4319 125.822Z" fill="#F7D7BA"/>
<path d="M18.0964 109.497C24.8894 112.493 15.0758 87.5667 15.4238 84.196C10.4822 73.5986 17.2055 62.7099 16.8993 52.9863C5.42923 61.1563 11.3313 102.839 18.0964 109.497V109.497Z" fill="#F7D7BA"/>
<path d="M34.9674 35.4392C88.2671 -8.9479 147.831 16.2002 162.502 78.4392C162.127 55.6492 145.798 31.6108 126.199 19.8898C73.3727 -10.0992 13.5863 38.574 34.9674 35.4392V35.4392Z" fill="#F7D7BA"/>
<path d="M24.8335 43.1803C26.2255 43.4022 27.2695 41.377 25.9193 39.9761C23.7339 38.3948 21.9243 42.5422 24.8335 43.1803Z" fill="#F7D7BA"/>
<path d="M160.706 90.729C161.575 91.2666 162.68 91.2469 163.529 90.6786C164.379 90.1103 164.816 89.0989 164.645 88.0935C163.991 84.7506 157.476 87.1781 160.706 90.729Z" fill="#F7D7BA"/>
<path d="M72.9267 41.6134C71.9669 41.4479 70.9824 41.7063 70.2289 42.3213C69.4754 42.9364 69.0274 43.8474 69.0012 44.8176C59.8419 40.6563 64.8252 53.7505 72.5369 51.7531C74.9868 49.6586 76.8382 43.7773 72.9267 41.6134V41.6134Z" fill="#F1ABB1"/>
<path d="M104.567 41.336C104.414 41.6134 104.288 41.8769 104.149 42.1544C99.3469 37.2718 98.5813 46.5653 103.565 49.2702C108.952 50.9624 112.752 35.746 104.567 41.336V41.336Z" fill="#F1ABB1"/>
<path d="M58.2965 105.502C55.3177 102.575 52.7285 105.502 52.5197 110.107C39.4628 103.698 59.0204 131.773 58.2965 105.502Z" fill="#F1ABB1"/>
<path d="M132.769 106.653C131.896 107.633 131.165 108.73 130.598 109.912C123.29 101.063 124.347 116.016 131.767 117.847C136.416 116.89 141.288 102.644 132.769 106.653Z" fill="#F1ABB1"/>
<path d="M99.9874 133.562C98.0247 134.409 97.0503 134.672 96.6466 138.237C79.0517 129.276 100.433 158.544 103.133 137.446C103.259 135.241 102.549 133.798 99.9874 133.562Z" fill="#F1ABB1"/>
<path d="M83.84 24.9673C83.6451 23.497 80.9168 21.458 79.497 25.1615C70.9919 20.6673 81.1952 40.2254 83.84 24.9673Z" fill="#F1ABB1"/>
<path d="M44.6971 42.7087C44.1181 43.3127 43.7349 44.0764 43.5974 44.9004C36.5539 45.4968 47.5089 56.4133 48.3163 44.9975C48.5375 44.0604 48.139 43.0865 47.3234 42.5707C46.5077 42.0549 45.4538 42.1103 44.6971 42.7087V42.7087Z" fill="#F1ABB1"/>
<path d="M128.064 42.8615C127.39 43.6241 126.913 44.5379 126.672 45.5247C121.299 40.8363 121.674 50.0882 127.799 51.295C131.224 51.6834 134.286 40.0318 128.064 42.8615Z" fill="#F1ABB1"/>
<path d="M37.1383 96.9582C35.8855 95.9318 33.7697 94.6002 32.6282 98.1373C21.0607 95.8347 40.4791 112.73 37.1383 96.9582Z" fill="#F1ABB1"/>
<path d="M70.9919 130.013C69.2798 129.195 66.8159 130.152 66.9412 133.425C53.3414 130.276 76.5599 149.058 70.9919 130.013Z" fill="#F1ABB1"/>
<path d="M152.062 93.9194C151.242 93.0247 149.988 92.6624 148.815 92.981C147.641 93.2996 146.746 94.2456 146.494 95.4314C138.574 93.3923 147.719 107.277 151.492 97.2069C152.458 96.3945 152.698 95.008 152.062 93.9194V93.9194Z" fill="#F1ABB1"/>
<path d="M128.983 129.292C127.688 126.615 126.352 130.429 124.013 129.417C115.536 124.701 126.783 141.914 128.983 129.292Z" fill="#F1ABB1"/>
<path d="M86.7488 45.5938C86.0415 45.8863 85.6151 46.6113 85.7048 47.3692C80.7214 44.0125 85.6213 52.9176 87.5979 48.0073C87.6953 47.1612 88.6001 46.0515 86.7488 45.5938V45.5938Z" fill="#F1ABB1"/>
<path d="M103.244 27.8794C102.645 26.742 100.836 27.3662 100.78 29.7381C95.059 23.2326 101.81 40.2246 103.244 27.8794Z" fill="#F1ABB1"/>
<path d="M62.0412 30.8338C60.3012 30.3067 62.0412 33.927 59.9115 33.608C59.6331 33.3999 58.4081 33.0531 58.9788 34.8425C61.0251 37.7554 65.1176 33.4693 62.0412 30.8338Z" fill="#F1ABB1"/>
<path d="M46.339 122.772C45.5456 122.064 44.5434 122.605 44.3067 124.838C35.4258 118.236 47.564 134.909 46.339 122.772V122.772Z" fill="#F1ABB1"/>
<path d="M81.8217 119.804C80.8613 119.193 79.6224 120.719 80.0261 122.814C73.6925 117.279 83.7149 134.174 81.8217 119.804Z" fill="#F1ABB1"/>
</svg>
