<svg width="145" height="114" viewBox="0 0 145 114" fill="none" xmlns="http://www.w3.org/2000/svg">
<path fill-rule="evenodd" clip-rule="evenodd" d="M137.176 21.7993C122.516 0.144323 86.5585 5.39463 73.4302 26.4654C63.2633 -9.61579 17.0178 -5.91537 4.28401 22.287C-8.66978 64.4038 35.084 101.941 71.6757 113.452C103.113 100.615 160.914 61.4707 137.176 21.7993" fill="#FADADA"/>
<path fill-rule="evenodd" clip-rule="evenodd" d="M67.5145 43.0879C67.5738 41.3899 67.3697 38.9969 67.9124 37.3699C73.6283 35.0767 70.4021 47.13 67.6145 51.2347C67.4476 48.5228 67.4193 45.804 67.5145 43.0879V43.0879ZM64.2952 56.7764C56.1869 67.4617 58.2572 49.3404 58.8448 43.6107C59.96 43.6906 62.0855 43.796 64.1235 43.0314C64.1593 47.6135 64.349 50.3847 64.6097 56.3053C64.5035 56.4609 64.4034 56.6228 64.2952 56.7764V56.7764ZM49.1855 52.6971C48.0393 56.2267 44.2903 54.36 45.4593 49.9514C46.0834 50.8097 46.9076 52.1041 49.2779 52.1743C49.2531 52.3658 49.2221 52.5442 49.1855 52.6971V52.6971ZM46.9269 47.9056C47.8055 48.3051 48.4545 47.9945 49.1821 49.8667C47.8579 49.8419 46.6159 49.3232 46.9269 47.9056ZM84.7607 50.4192C86.4648 48.4195 88.0586 50.8566 83.4186 52.7206C83.7462 51.8616 84.2117 51.0639 84.7607 50.4192ZM109.677 44.6936C107.469 45.9789 104.613 66.0358 97.8131 55.9932C98.6428 49.5271 106.809 45.9431 94.571 46.6127C89.1414 44.6543 92.8676 51.3332 90.2966 55.0723C88.0669 58.8815 82.6731 61.4302 82.9972 54.2863C98.2717 49.4837 81.2214 37.2527 78.7386 59.5338C78.3897 60.14 77.6579 61.4715 75.9483 60.6422C79.98 44.8968 73.0345 47.6101 68.2352 58.7024C68.0538 57.6003 67.9538 56.4623 67.8814 55.374C79.9262 34.2288 66.1917 25.5522 64.2759 40.4076C62.8738 39.9668 62.2738 40.6198 59.3 40.7279C61.9228 33.0453 59.4393 28.4474 56.2076 40.4476C49.649 36.9076 47.4572 39.1774 55.6855 42.9487C55.4876 44.1087 55.3386 45.2818 55.2331 46.4652C54.469 47.1369 54.2793 47.7031 52.2021 49.0856C48.2124 39.663 38.1524 49.4038 43.6248 56.3865C37.2207 69.5564 38.72 49.7407 41.6593 44.157C43.1972 33.6756 34.1428 38.0663 32.4559 46.9557C31.829 34.9376 25.14 41.5029 23.9469 48.3106C24.2138 46.8083 23.1207 35.3536 19.5303 41.9789C17.2352 45.0228 15.4172 50.7209 20.5924 43.9179C21.2179 46.6664 19.6221 65.4206 24.2821 58.378C24.5041 55.6963 28.6138 41.0138 28.9931 45.1117C29.5669 46.209 27.1021 62.0185 32.0759 56.6146C32.0386 55.0592 38.051 38.5719 38.4234 43.0837C29.4131 70.7743 44.8241 68.1774 45.4869 57.7525C49.0924 59.3479 52.4393 55.8024 52.4648 51.5192C53.3993 51.1356 54.2793 50.5976 55.0172 49.9611C53.729 57.6946 57.3628 69.6666 65.1235 60.014C71.4048 74.6972 66.9662 56.3452 74.8621 52.0531C71.1841 57.1463 73.0331 72.7478 81.76 60.5664C87.8138 66.104 96.0331 55.4484 93.9848 48.3657C95.229 48.7157 96.4614 48.872 97.7372 48.912C86.24 70.0565 111.651 62.9374 110.428 47.6101C116.309 50.995 117.983 55.5641 109.952 57.8111C114.101 66.6908 126.735 48.4766 109.677 44.6936" fill="#EFA2A2"/>
<path fill-rule="evenodd" clip-rule="evenodd" d="M106.434 40.7015C103.633 36.461 97.4368 42.8926 103.426 44.1601C102.6 47.1441 107.087 45.9215 106.434 40.7015Z" fill="#EFA2A2"/>
<path fill-rule="evenodd" clip-rule="evenodd" d="M84.3585 97.1086C84.1205 95.3631 86.9474 94.0178 89.4219 95.7998C88.1805 97.6439 86.2129 99.0263 84.3585 97.1086ZM71.6516 81.7765C68.2405 90.9911 65.0729 85.9509 72.0729 80.5214C71.9516 80.9444 71.8171 81.3639 71.6516 81.7765ZM63.2047 79.8333C62.8695 80.58 62.4978 81.2874 62.0971 81.9618C58.6529 82.0252 55.0343 83.1418 52.5143 84.9555C52.2461 64.5542 70.5316 63.0285 63.2047 79.8333V79.8333ZM51.0323 90.6095C51.2371 89.9144 51.4336 89.2201 51.6233 88.5271C55.3074 85.9695 55.5626 85.5706 60.1495 84.6806C57.7605 87.4704 54.6674 89.4343 51.0323 90.6095ZM92.6867 75.8587C90.026 73.8852 92.4509 80.2501 89.1654 84.173C81.9295 89.2015 85.5426 79.8657 85.106 75.9069C81.6943 76.1308 80.8357 81.6415 81.6267 85.5093C69.2619 104.753 80.3557 63.3191 73.3971 76.6089C73.2771 76.7625 73.1205 76.6412 72.8743 77.5601C70.7564 77.3122 67.8392 79.5998 66.0378 82.4158C65.9378 82.3896 65.8398 82.3579 65.7385 82.3331C72.6316 68.6783 62.1316 60.5934 53.3185 72.5013C48.6785 55.06 50.686 75.931 50.1178 81.8426C49.8136 85.8999 43.5847 98.186 49.9529 94.1659C55.6233 93.3448 61.0185 89.579 64.3929 84.598C64.5598 84.6214 64.7233 84.662 64.8888 84.6924C62.6633 89.6389 68.3957 93.2443 71.7178 87.9781C71.7936 97.0301 80.8909 94.7294 82.864 87.6847C85.1205 90.0308 89.364 88.8915 91.2978 84.9314C91.3405 86.5515 91.3667 89.8793 90.595 93.2002C64.3612 90.7465 103.145 120.091 92.6867 75.8587" fill="#EFA2A2"/>
<path fill-rule="evenodd" clip-rule="evenodd" d="M21.1413 18.9103C21.1158 19.7156 21.1655 20.4912 21.2875 21.2482C21.0558 20.5367 21.0062 19.7115 21.1413 18.9103ZM23.1289 15.8829C23.0772 16.0462 23.0558 16.0062 22.9241 16.6847C22.5668 16.6647 22.2096 16.7681 21.9096 16.9726C22.2275 16.5146 22.6351 16.1371 23.1289 15.8829V15.8829ZM27.1862 17.8371C26.9489 17.5885 26.6882 17.366 26.3979 17.1834C26.3137 16.8734 26.4248 17.1449 26.0965 16.04C26.5862 16.4739 26.9351 17.1214 27.1862 17.8371ZM26.5275 12.6323C21.8427 10.7228 18.242 15.1755 17.9489 19.542C-0.279359 16.9113 15.3531 36.9992 26.7655 34.3437C32.9806 35.6125 32.6289 13.0904 26.5275 12.6323" fill="#F6BD2A"/>
<path fill-rule="evenodd" clip-rule="evenodd" d="M42.1021 16.6783C41.7407 18.4789 41.3663 20.2781 40.9249 22.0608C40.9814 21.0407 41.1118 19.426 42.1021 16.6783ZM45.8207 26.7711C45.9214 26.9116 46.0394 27.037 46.1745 27.1417C45.518 27.4221 44.849 27.6728 44.1876 27.8739C44.7304 27.5027 45.2725 27.1321 45.8207 26.7711ZM56.1704 19.4536C54.2869 16.6893 50.4194 17.0454 47.3538 18.1262C42.6125 -1.00896 32.0883 30.3841 40.5214 31.5819C47.3097 31.3925 59.3704 25.6524 56.1704 19.4536Z" fill="#90CFD5"/>
<path fill-rule="evenodd" clip-rule="evenodd" d="M131.409 27.0262C110.56 3.16075 80.1301 23.1129 86.1459 25.0761C97.4094 15.2505 117.331 15.4048 127.922 26.8195C140.156 40.3427 129.215 60.3452 118.014 70.9684C130.805 73.9834 141.487 34.8238 131.409 27.0262" fill="#FDECEC"/>
<path fill-rule="evenodd" clip-rule="evenodd" d="M116.627 74.4072C115.552 73.305 112.567 75.6946 115.416 77.0537C116.903 77.2073 117.934 75.9715 116.627 74.4072Z" fill="#FDECEC"/>
<path fill-rule="evenodd" clip-rule="evenodd" d="M112.169 80.662C111.575 77.6532 106.356 81.7084 111.025 82.5219C111.456 82.3414 111.863 82.1279 112.169 80.662Z" fill="#FDECEC"/>
<path fill-rule="evenodd" clip-rule="evenodd" d="M28.7488 32.2885C-8.09952 21.6246 28.206 21.2237 16.457 18.8789C-7.97124 21.9676 33.7136 41.1669 28.7488 32.2885Z" fill="#F6BD2A"/>
<path fill-rule="evenodd" clip-rule="evenodd" d="M39.9158 13.3475C34.4393 23.1324 42.242 45.4225 40.4965 16.7607C44.0096 11.8824 44.2055 16.4101 46.262 18.6708C50.4482 16.4927 43.4137 9.93296 39.9158 13.3475" fill="#F6BD2A"/>
<path fill-rule="evenodd" clip-rule="evenodd" d="M23.7842 15.0293C25.4904 19.0714 28.0752 19.7327 27.609 27.4711C33.6152 27.7156 27.9635 15.2545 23.7842 15.0293" fill="white"/>
<path fill-rule="evenodd" clip-rule="evenodd" d="M53.0005 19.4746C50.8653 19.5442 55.4267 22.4924 50.3205 23.8322C38.7094 30.6076 60.486 25.1706 53.0005 19.4746Z" fill="white"/>
<path fill-rule="evenodd" clip-rule="evenodd" d="M137.308 22.19C119.538 0.273323 89.3278 6.3585 74.154 24.6609C66.9622 3.67893 41.2091 -5.67271 20.9374 3.54736C-33.966 36.5116 31.8553 108 72.736 113.15C-62.0598 58.6529 28.6319 -47.9507 74.4402 25.5536C111.057 -14.3672 165.101 26.7391 133.173 67.7738C119.082 84.3637 95.8057 98.4938 82.3767 110.586C110.377 91.2396 162.89 58.7162 137.308 22.19" fill="#EFA3A2"/>
<path fill-rule="evenodd" clip-rule="evenodd" d="M54.1578 95.0332C52.9385 96.1167 50.773 97.3098 47.813 96.9103C47.3833 98.4181 55.2102 96.9309 54.1578 95.0332Z" fill="#EFA3A2"/>
<path fill-rule="evenodd" clip-rule="evenodd" d="M56.7535 95.9082C56.3584 97.4725 51.2184 97.5084 51.1729 98.957C51.9329 99.2787 58.6301 97.5249 56.7535 95.9082Z" fill="#EFA3A2"/>
<path fill-rule="evenodd" clip-rule="evenodd" d="M95.2213 76.1211C95.0888 76.7018 97.0482 79.5425 97.204 81.7475C98.8868 80.7687 97.313 77.7144 95.2213 76.1211Z" fill="#EFA3A2"/>
<path fill-rule="evenodd" clip-rule="evenodd" d="M98.7447 75.7559C98.2999 76.7016 100.822 79.0595 99.513 81.8665C101.33 83.6699 101.137 77.0598 98.7447 75.7559Z" fill="#EFA3A2"/>
<path fill-rule="evenodd" clip-rule="evenodd" d="M117.773 45.3906C118.778 46.4631 119.8 46.8868 122.26 50.7284C122.405 48.9519 120.599 46.2035 117.773 45.3906Z" fill="#EFA3A2"/>
<path fill-rule="evenodd" clip-rule="evenodd" d="M122.062 45.584C122.064 45.3697 123.105 51.1305 124.321 50.8432C124.686 49.553 124.089 47.1869 122.062 45.584Z" fill="#EFA3A2"/>
<path fill-rule="evenodd" clip-rule="evenodd" d="M21.6342 62.0217C19.8645 62.3565 18.3549 58.1945 17.0135 58.0547C16.4907 59.0969 21.1521 64.2783 21.6342 62.0217Z" fill="#EFA3A2"/>
<path fill-rule="evenodd" clip-rule="evenodd" d="M20.4912 64.6294C18.6429 65.2128 17.6181 61.2541 16.3146 61.0605C15.2684 62.5236 20.8898 67.3152 20.4912 64.6294Z" fill="#EFA3A2"/>
<path fill-rule="evenodd" clip-rule="evenodd" d="M71.916 32.2949C71.9346 32.3652 74.3008 35.7866 75.3195 36.3556C75.4505 35.093 74.2526 33.063 71.916 32.2949Z" fill="#EFA3A2"/>
<path fill-rule="evenodd" clip-rule="evenodd" d="M74.753 31.3184C74.3937 32.2917 77.9537 33.5068 77.7861 36.6024C80.1889 37.8361 77.602 31.5409 74.753 31.3184" fill="#EFA3A2"/>
<path fill-rule="evenodd" clip-rule="evenodd" d="M88.2045 64.5137C87.4742 64.8994 88.4728 64.8505 84.4873 65.7742C84.8266 66.4899 89.7563 65.9017 88.2045 64.5137Z" fill="#EFA3A2"/>
<path fill-rule="evenodd" clip-rule="evenodd" d="M89.856 66.6328C90.687 66.7899 90.3746 67.1508 89.856 66.6328C87.5091 67.0509 85.5043 69.1863 89.856 66.6328Z" fill="#EFA3A2"/>
</svg>
