<svg width="175" height="142" viewBox="0 0 175 142" fill="none" xmlns="http://www.w3.org/2000/svg">
<g clip-path="url(#clip0_3_23505)">
<path d="M167.16 21.051C142 -18.999 98.6198 8.89096 86.9998 17.441C75.4298 8.89096 31.9998 -18.999 6.88984 21.051C-20.4902 64.721 39.3798 141.121 86.9998 141.251H87.1198C134.67 141.121 194.54 64.721 167.16 21.051V21.051Z" fill="#9CD392"/>
<path d="M21.0996 53.4012C21.3396 44.3012 40.7096 36.1112 42.3796 49.8912C50.3796 46.9612 56.2196 44.2412 57.0096 55.2812C86.6896 44.0012 49.8896 98.4212 67.1996 90.9312C73.3896 86.6512 70.8596 79.6112 74.3296 73.7512C78.6896 64.1312 89.2596 68.0812 88.7096 76.8912C93.7096 76.5812 96.1896 63.8912 98.1296 71.4012C105.41 66.8712 105.97 68.6912 107.58 75.0012C123.19 56.5012 115.01 82.0012 115.47 90.0012C120.31 86.8612 123.86 83.3512 123.55 77.4112C132.38 81.0212 102.55 115.811 114.3 70.9612C107.17 75.5312 106.3 82.4412 103.18 89.6812C95.4996 92.3712 106.09 74.6812 103.76 71.2412C94.7596 74.4512 97.1596 84.3812 92.3696 91.0912C85.9096 92.6312 93.1296 81.0912 92.7396 77.7612C84.1096 78.4112 83.2696 97.7612 72.8196 88.7612C69.1896 94.5912 60.8196 99.6012 58.5796 89.6712C57.7296 78.1512 66.2296 68.4412 65.4496 56.7712C62.6296 56.1812 56.8296 56.6012 56.9796 60.5312C55.6396 70.5312 51.6896 87.2212 44.2996 88.4612C32.8396 81.0012 67.2296 44.9412 47.1996 50.7612C40.6396 51.6112 42.7296 57.4712 41.3896 62.7612C39.8996 72.2012 33.6296 94.6712 24.4496 89.8612C18.7296 78.2212 35.4496 59.1112 38.5796 51.4212C40.7496 37.0012 24.8396 48.3212 21.0996 53.4012V53.4012ZM37.8396 58.2412C31.8396 66.7712 26.9296 75.7912 25.9096 86.3512L27.1796 86.8612C34.5896 78.9012 35.8996 68.4612 37.8396 58.2412ZM85.1296 79.5512C80.1296 78.5512 81.5296 74.6312 81.6996 71.4512C69.8496 77.4212 76.1196 101.501 85.1296 79.5512ZM52.3796 65.0012C48.3796 68.6712 44.1996 80.0612 45.6396 83.2812C48.9996 77.5412 50.6196 71.4412 52.3796 65.0012ZM85.2896 71.7612C83.4196 72.8612 82.2896 77.4312 86.0496 77.1912C86.4796 75.3212 87.6396 73.4312 85.2896 71.7212V71.7612Z" fill="white"/>
<path d="M95.3496 37.5005C98.1096 28.9805 110.41 23.7905 109.35 36.1905C107.7 42.7805 103.62 47.1905 100.54 53.6605C98.8396 55.6605 99.5396 60.0905 96.4096 59.8805C67.2296 33.8705 87.4896 17.6905 95.3496 37.5005ZM94.3496 45.3405C92.2196 43.5105 94.0096 40.2605 92.5196 37.2705C91.0996 32.9705 84.8896 27.2705 83.6896 34.8705C83.1696 43.4505 91.3196 48.9905 96.3096 55.8705C99.3096 48.0205 104.89 42.1205 107.14 33.8705C102.89 23.6505 96.6596 43.0005 94.3596 45.3405H94.3496Z" fill="#E9AD28"/>
<path d="M138.51 75.2514C146.18 73.1614 151.51 73.2514 154.1 75.8314C127.86 74.7314 145.81 82.7714 135.62 92.8314C129.46 97.0114 124.16 90.5414 128.71 84.5114C131.45 79.5114 136.28 78.5114 134.05 71.9814C131.45 73.2314 129.68 75.9014 126.69 76.2814C126.27 75.1014 126.39 74.7814 128.03 73.5914C136.77 68.8414 129.1 65.8414 134.11 60.2114C144.57 54.7714 134.41 69.5514 138.51 75.2514V75.2514ZM135.18 80.2514C132.64 82.7214 129.82 85.5114 128.69 89.0014C131.84 97.0014 137.33 85.2514 135.18 80.3014V80.2514Z" fill="white"/>
<path d="M79.23 97.2713C88.76 95.4713 87.23 110.781 83.69 115.641C82.15 116.981 73.69 118.931 74.5 115.261C77.58 114.771 77.12 99.2613 74.5 99.0713C73.46 97.0013 76.82 97.1713 79.23 97.2713V97.2713ZM78.56 114.271C85.8 116.501 86.37 95.8713 78.56 99.9113C78.61 104.661 78.92 109.401 78.56 114.301V114.271Z" fill="white"/>
<path d="M102.35 114.281C101.35 121.891 96.9396 100.931 92.3496 116.171C91.6196 116.491 91.5596 116.771 90.3496 116.101C95.1896 91.4207 95.8096 93.2907 102.35 114.281V114.281ZM94.8296 108.411C95.7021 108.867 96.7477 108.845 97.5996 108.351C97.1296 106.891 96.6596 105.461 95.9896 103.351C95.4896 105.521 95.1596 107.001 94.8296 108.411Z" fill="white"/>
<path d="M75.2796 38.1513C71.2096 39.5513 55.1396 38.7513 53.8896 36.5713C56.4396 33.8613 74.8296 35.8313 75.2796 38.1513Z" fill="#E9AD28"/>
<path d="M111.93 102.082C112.76 101.472 113.93 95.4916 116.38 97.9016C116.03 100.302 113.38 102.442 113.32 105.662C112.05 108.662 115.05 115.022 111.32 114.722C109.84 112.002 111.82 107.722 110.32 104.152C106.08 98.8316 105.71 95.2616 111.93 102.082V102.082Z" fill="white"/>
<path d="M76.7094 32.1715C75.7094 33.8915 75.0794 32.9515 72.5694 31.6815C42.7994 21.0015 68.7094 23.3815 76.7094 32.1715Z" fill="#E9AD28"/>
<path d="M115.27 42.3512C118.39 39.5312 124.93 40.5412 129.49 39.1812C146.23 37.5012 117.48 45.9312 115.27 42.3512V42.3512Z" fill="#E9AD28"/>
<path d="M115.23 35.7908C109.4 35.6708 126.85 25.8608 128.59 27.2308C127.81 31.1408 119.17 34.2908 115.23 35.7908Z" fill="#E9AD28"/>
<path d="M75.3394 44C75.9694 47 71.0094 47.41 68.2494 48.25C66.5194 48.68 62.4994 48.86 64.7294 46.25C67.9194 45.42 71.5594 45.21 75.3394 44Z" fill="#E9AD28"/>
<path d="M119.7 47.8104C122.24 46.7204 126.19 47.1104 129.44 47.7004C132.55 51.1304 121.46 49.5804 119.7 47.8104Z" fill="#E9AD28"/>
<path d="M124.48 68.5202C124.18 66.8802 125.29 60.8902 128.18 62.4502C129.8 64.2702 126.43 67.8402 124.48 68.5202Z" fill="white"/>
<path d="M147.76 70.4008C147.33 71.1675 146.563 71.6851 145.691 71.7955C144.819 71.906 143.947 71.5962 143.34 70.9608C143.22 69.1408 146.12 69.0008 147.76 70.4008Z" fill="white"/>
<path d="M22.3797 77.2394C21.9997 81.9994 17.7997 77.9994 21.2497 75.7894C21.8397 75.7394 22.3397 76.1294 22.3797 77.2394Z" fill="white"/>
<path d="M116.34 109.78C113.91 109.78 115.45 104.2 117.56 107.17C117.8 108.36 117.87 109.13 116.34 109.78Z" fill="white"/>
<path d="M25.1795 69.7702C24.3895 74.1202 20.3795 70.6802 24.1195 68.4202C24.5995 68.4102 25.1195 68.7002 25.1795 69.7702Z" fill="white"/>
<path d="M85.1398 52.5802C84.6898 55.4802 79.9898 51.0802 83.2598 50.2402C84.2034 50.7017 84.8925 51.5594 85.1398 52.5802Z" fill="white"/>
<path d="M74.5193 63.1396C74.0993 66.8796 70.5193 65.1396 72.8693 61.8696C73.8393 61.1396 74.7393 61.9996 74.5193 63.1396Z" fill="white"/>
<path d="M60.4497 98.4603C60.3997 101.22 55.3397 97.8303 58.5797 96.8203C59.422 97.0504 60.1116 97.6552 60.4497 98.4603Z" fill="white"/>
<path d="M67.8592 110.19C67.8592 111.79 63.8592 112.19 64.6492 109.56C65.1193 109.109 65.779 108.916 66.4177 109.041C67.0564 109.167 67.5942 109.595 67.8592 110.19V110.19Z" fill="white"/>
</g>
<defs>
<clipPath id="clip0_3_23505">
<rect width="175" height="142" fill="white"/>
</clipPath>
</defs>
</svg>
