<svg width="175" height="95" viewBox="0 0 175 95" fill="none" xmlns="http://www.w3.org/2000/svg">
<path d="M39.8799 18.1012C41.7899 19.7912 42.8799 4.30117 39.8799 6.02117V5.70117H44.0999V6.00117C41.9999 5.15117 42.8599 10.1012 42.6899 11.5012H48.3499C47.8099 10.0012 49.7199 5.64117 46.9299 6.00117V5.70117H51.1799V6.00117C49.2499 4.30117 48.1799 19.8112 51.1799 18.0812V18.4012H46.9299V18.1012C49.1899 19.1012 48.1299 13.3112 48.3499 11.9812H42.6899C43.2399 13.4512 41.2799 18.5712 44.0999 18.1012V18.4212H39.8799V18.1012Z" fill="black"/>
<path d="M51.6299 18.1015C52.5099 19.8315 56.6299 5.32153 56.6299 5.55153H57.7999C58.0699 6.62153 60.6499 18.4315 62.4599 18.1015V18.4215H58.9999V18.1015H60.5199C60.0199 17.9515 59.5199 16.1015 59.1999 15.0015H54.0699C54.1599 15.6015 51.9199 18.5315 54.7799 18.1315V18.4515H51.6299V18.1015ZM59.0799 14.4915C58.8199 13.4915 56.8099 7.91153 56.7599 6.94153H56.6399C56.7099 7.02153 54.3799 13.9415 54.2099 14.4915H59.0799Z" fill="black"/>
<path d="M62.9297 18.1014C64.8397 19.7914 65.9297 4.30137 62.9297 6.02137V5.70137C75.4497 3.51137 76.9997 14.8414 65.7397 14.1814C66.1997 15.2414 64.4697 18.5214 67.3197 18.1014V18.4214H62.9297V18.1014ZM65.4397 6.20137C65.9597 6.34137 65.6697 12.8814 65.7397 13.7214C74.1497 15.1514 73.7397 4.63137 65.3497 6.18137L65.4397 6.20137Z" fill="black"/>
<path d="M74.0703 18.1014C75.9803 19.7914 77.0703 4.30137 74.0703 6.02137V5.70137C86.5903 3.51137 88.1503 14.8414 76.8803 14.1814C77.3403 15.2414 75.6103 18.5214 78.4503 18.1014V18.4214H74.0703V18.1014ZM76.5803 6.20137C77.1003 6.34137 76.8103 12.8814 76.8803 13.7214C85.2903 15.1514 84.8803 4.63137 76.4903 6.18137L76.5803 6.20137Z" fill="black"/>
<path d="M87.5903 18.1012C89.5303 18.9012 89.2203 15.4312 89.1703 13.8412C88.0203 12.6212 86.1704 5.84117 84.1104 6.02117V5.70117H87.3103V6.00117H86.2504C86.8104 6.28117 89.7804 12.1512 90.1404 13.0012H90.2104C89.7504 12.0012 96.0904 5.50117 92.0104 5.92117V5.70117H95.2504V6.00117C94.0804 5.10117 90.9303 13.0012 90.4203 13.5512C90.9403 14.7012 89.0504 18.5512 92.0004 18.0812V18.4012H87.5903V18.1012Z" fill="black"/>
<path d="M91.9395 93.5823C93.6295 95.0623 94.5895 81.3523 91.9395 82.9223V82.6423C105.149 80.5423 103.879 96.1423 91.9395 93.8623V93.5823ZM95.9995 93.4423C102.079 92.9423 101.209 81.4423 94.1294 83.0623C94.4694 83.7923 94.6994 92.5123 94.1294 93.4023L95.9995 93.4423Z" fill="black"/>
<path d="M109.28 93.5817C110.06 95.0917 113.71 82.2517 113.71 82.5017H114.71C114.94 83.5017 117.23 93.9017 118.81 93.5817V93.8617H115.81V93.5817H117.15C116.57 93.1817 116.47 92.2917 115.98 90.8617H111.43C111.5 91.3817 109.53 93.9717 112.05 93.6217V93.9017H109.27L109.28 93.5817ZM115.85 90.3917C115.62 89.4717 113.85 84.5917 113.85 83.7416H113.74C113.74 83.8716 111.81 89.7417 111.6 90.3917H115.85Z" fill="black"/>
<path d="M128.73 93.5816C130.49 94.1116 130.14 91.5816 130.12 89.8216C129.19 88.9116 127.5 82.8216 125.66 82.9216V82.6416H128.48V82.9216H127.55C128.04 83.1716 130.67 88.3516 130.98 89.1216H131C130.56 88.2716 136.18 82.5216 132.59 82.8816V82.6016H135.44V82.8816C134.44 82.0916 131.64 89.0516 131.19 89.5416C131.64 90.5416 129.98 93.9816 132.57 93.5416V93.8216H128.69L128.73 93.5816Z" fill="black"/>
<path d="M61.4697 88.3711H91.6597V89.3711H61.4697V88.3711Z" fill="black"/>
<path d="M135.14 88.3711H173.6V89.3711H135.14V88.3711Z" fill="black"/>
<path d="M125.18 30.001C128.73 29.571 139.02 10.111 128.55 19.821C122.26 7.49098 123.3 29.101 125.18 30.001Z" fill="#EC8B9A"/>
<path d="M62.8401 76.1204C40.4101 105.85 60.0001 44.6504 65.0001 36.8804C72.0901 19.4804 58.2002 19.8104 50.5602 34.1504C46.3979 40.8337 42.6637 47.7743 39.3801 54.9304C40.7301 50.4604 49.2101 26.2904 34.1001 36.1704C24.3201 50.3204 28.3501 48.5604 22.6401 59.0004C55.8601 -29.1296 -15.9099 28.2004 3.34015 57.2104C10.7701 58.0404 4.57015 44.8204 8.26015 35.7304C13.2601 19.7304 25.8401 9.47038 25.4501 17.7904C26.1101 30.1604 3.45015 78.6204 19.1401 77.7904C19.3301 77.7004 19.7101 77.5104 19.8001 77.3204C20.2201 69.7504 30.3401 44.7104 36.2601 37.0204C35.5001 44.4204 21.1001 79.3104 32.0001 82.2704C35.5301 81.8704 34.7701 80.2704 35.4401 77.3704C40.2001 53.2504 54.8101 28.8104 59.0501 26.7604C63.9801 23.0804 43.5301 64.7604 46.2901 79.5604C48.2501 99.5104 67.8901 82.3904 62.8401 76.1204Z" fill="black"/>
<path d="M144.2 56.0008C143.94 32.0608 121.8 55.3308 126.68 69.1408C109.68 90.4808 121.9 57.1408 123.96 51.0808C117.89 44.3508 113.44 50.5708 107.02 61.8608C106.85 60.4208 107.02 59.8608 112.02 45.8608C137.37 48.5608 153.19 26.1608 140.13 8.65081C125.67 -9.46919 99.0801 3.83081 99.0001 21.5708C101.59 23.9608 105.62 6.18081 111.37 5.65081C149.07 -10.2592 154.66 47.0208 112.92 43.3908C117.56 30.4508 123.53 17.7908 112.11 21.1608C112.11 21.1608 112.4 21.8008 106.61 42.6008C104.94 42.2708 103.61 42.0508 99.0901 40.8408C103.6 27.7108 92.5701 26.6008 92.7201 38.1908C92.6401 38.1908 92.4401 38.8008 91.2001 38.5708C90.5411 38.333 89.8368 38.2476 89.1401 38.3208C85.2901 36.7608 64.7601 37.5008 69.3901 42.6208C75.9901 40.1208 83.3901 38.8908 91.9901 41.6208C91.9001 41.7408 90.4301 47.5408 88.4201 56.1108C87.2822 56.8305 86.0764 57.4367 84.8201 57.9208C91.5501 32.4808 64.0001 55.7108 81.3001 60.7708C66.3701 91.3208 65.3001 55.6008 77.8601 46.7708C52.6101 34.3308 64.7101 104.281 83.9101 60.7708C85.2229 60.5233 86.4907 60.0783 87.6701 59.4508C84.4001 69.1208 91.4801 79.4508 99.6701 71.2608C104.31 82.8008 109.67 53.4408 117.09 50.1508C105.09 81.1508 117.78 85.8008 127.48 71.2208C133.65 81.2808 149.07 66.4608 143.01 66.2208C135.34 79.7208 125.43 68.9408 134.5 59.2708C137.66 58.5708 142.46 59.9208 144.2 56.0008V56.0008ZM134.93 56.0908C135.11 55.8808 136.93 52.0008 139.76 49.6708C143.7 49.1008 143.29 59.6108 134.93 56.0708V56.0908ZM78.9301 56.3408C78.5427 55.0595 78.5427 53.6922 78.9301 52.4108C82.8701 45.7008 85.1701 51.5008 82.0801 58.3308C80.7715 58.2487 79.6021 57.4856 79.0001 56.3208L78.9301 56.3408ZM100.09 65.5508C85.7101 89.0008 96.7801 44.1908 98.2801 43.2508C99.6701 43.5908 101.28 44.1508 105.94 45.0608C104.41 50.5308 102.5 57.2608 100.11 65.5308L100.09 65.5508Z" fill="black"/>
<path d="M169.55 48.6908C171.08 43.6908 166.37 39.5108 165.55 48.9808C162.79 52.0708 166.83 49.5508 167.48 51.2508C171.21 58.3308 169 77.1208 159.03 68.6208C159.19 67.6208 160.28 66.9608 159.63 64.9008C168.38 63.6108 154.56 58.3208 157.11 68.5508C142.61 85.2008 156.37 50.3108 158.25 46.9708C158.61 43.6208 154.59 44.1308 152.83 42.6708C151.5 40.7308 156.49 27.0508 147.83 31.4208C138.29 43.3508 152.06 43.5408 149.33 48.8108C139.77 68.9808 146.69 85.9408 158.15 70.2708C176.63 83.1908 178.72 55.5008 169.55 48.6908V48.6908ZM168.13 45.6908C168.23 45.4008 168.6 45.1208 168.79 45.2108C168.98 45.3008 169.17 45.5908 169.36 45.8708C168.79 46.1608 168.6 46.3508 168.23 46.5408C168.23 46.2308 168 46.0008 168.13 45.6708V45.6908ZM149.4 39.5208C150.34 36.6808 152.67 36.7208 151.29 41.3108C149.78 40.9408 149.21 40.0008 149.4 39.5208ZM159.06 65.2408C158.83 65.7108 158.57 66.2408 158.26 66.7408C158.282 66.1444 158.577 65.5911 159.06 65.2408Z" fill="black"/>
<path d="M161 40.2516C157.24 44.9016 164.57 45.3216 163.52 37.6016C163.566 37.1148 163.324 36.6459 162.9 36.4016C161.28 33.0016 154.48 39.0516 161 40.2516Z" fill="black"/>
</svg>
