<svg width="178" height="81" viewBox="0 0 178 81" fill="none" xmlns="http://www.w3.org/2000/svg">
<path d="M40.7897 23.2201C35.9097 22.9201 32.5097 26.1501 27.4797 29.9801C28.6097 6.98005 19.1697 13.2401 11.1197 30.2301C12.8897 26.0001 18.9397 -4.76994 6.62969 8.00006C-0.820306 30.5501 -7.73031 91.6801 19.9297 31.6301C20.6997 39.3601 22.3297 47.3101 33.5597 36.4201C31.5597 41.6301 41.1597 56.8101 43.8097 44.7501C38.5297 39.2901 49.9997 26.5301 40.7897 23.2201V23.2201Z" fill="black"/>
<path d="M111.129 35.9387L110.849 35.8787C114.729 24.9887 104.569 14.8787 104.169 36.4787C102.699 36.5887 102.849 36.6687 99.5792 36.8887C100.019 32.7087 101.579 29.0287 100.779 23.2487C100.779 22.4987 101.019 22.9187 100.139 21.7687C99.1392 19.5787 93.6292 18.6487 94.2092 22.8487C84.6592 25.3887 75.3492 29.9987 66.2592 34.6087C65.5692 32.6087 65.2592 30.1887 61.8492 28.2387C53.5692 11.4987 35.2792 60.5287 55.6392 55.6787C61.9992 51.9987 67.0992 46.1987 66.4092 37.5187C67.8192 40.6087 73.6892 39.5187 77.3392 36.6887C75.6392 38.8887 68.7792 71.9187 79.5292 52.1587C84.2692 41.3587 77.2492 34.1587 93.8392 28.4987C92.8992 30.8987 93.7692 35.7687 91.4192 38.6087C84.7792 38.5287 79.9492 46.4887 91.1792 45.6787C90.7992 55.8587 96.2892 60.6787 98.3292 43.6187C99.2592 43.4387 101.329 43.0487 103.239 42.5387C103.159 46.6687 99.9592 51.3087 102.859 55.8587C103.269 57.0287 105.859 56.1287 105.369 54.7687C107.861 50.0999 109.484 45.0174 110.159 39.7687C110.139 38.8987 113.409 37.7987 111.129 35.9387ZM54.2892 40.9987L54.5492 40.2487C57.5492 42.7487 57.1892 38.2487 61.1792 32.9187C62.5492 38.8487 59.0692 45.8087 53.2792 50.2087C52.1992 47.6687 52.9992 44.5787 54.2892 40.9987Z" fill="black"/>
<path d="M158.21 67.0685C150.94 59.9185 148.21 53.4785 145.1 40.2885C149.39 37.8385 153.01 19.4285 140.76 26.2885C143.01 22.8185 135.19 16.1385 134.16 22.1885C129.88 23.5177 125.691 25.1244 121.62 26.9985C119.5 26.3885 116.84 25.7085 115.85 30.5585C98.3803 85.3685 150.28 30.8385 118.41 48.4785C118.58 47.4785 118.61 47.1685 119.04 45.2885C119.84 45.1685 122.95 45.4585 124.42 42.8685C125.25 42.0885 126.16 42.4085 126.49 39.9785C127.31 37.6585 123.4 37.7885 120.87 38.7685C121.61 32.4785 125.87 32.5585 133.58 28.3085C134.3 29.9785 127.71 58.6185 135.3 56.2185C137.8 57.1185 138.23 47.6585 138.78 44.0785C138.42 48.2485 152.79 75.7985 158.21 67.0685V67.0685ZM139.91 36.5385C140.98 34.7785 141.09 32.5385 144.04 29.8785C143.939 32.4997 143.303 35.0724 142.17 37.4385C141.73 37.3485 142.42 36.9585 139.75 37.0285C139.81 36.8685 139.86 36.7085 139.91 36.5385Z" fill="black"/>
<path d="M176.469 7.47965C176.335 7.29866 176.177 7.13712 175.999 6.99965C162.839 -3.58035 153.129 13.6297 160.999 28.5597C161.399 28.8697 158.579 39.0597 162.929 34.9597C166.369 38.2897 158.219 63.9597 154.219 50.0797C170.539 24.3097 142.589 44.2697 152.219 57.5697C152.569 58.8897 154.219 60.4497 157.079 61.0497C183.569 61.7997 171.489 31.7797 165.229 14.8697C165.049 14.8697 167.879 5.76965 170.029 9.72965C170.369 11.8597 167.029 15.7297 170.519 18.1497C173.879 20.2097 179.129 11.5997 176.469 7.47965V7.47965Z" fill="black"/>
<path d="M32.6592 16.0489C32.1492 16.0489 34.0792 19.3389 31.4492 18.2189C32.8692 15.7189 30.5292 10.0089 32.3592 8.07889C34.0092 8.30889 32.0292 8.74889 32.7592 12.3389C35.8792 13.3389 34.9192 10.5489 34.8492 7.89889C37.2492 7.83889 34.9292 8.83889 35.8492 18.1789C35.4392 17.9489 33.8492 18.8289 34.9492 17.3789C35.6892 16.6389 34.7392 9.53889 32.7392 14.6489C32.7292 15.0989 32.6992 15.5689 32.6592 16.0489V16.0489Z" fill="black"/>
<path d="M42.2494 13.9191C40.7594 13.6791 41.0894 17.1591 41.2494 18.1891C41.3694 18.0991 39.0794 18.1891 39.8994 17.5691C41.1894 17.3291 39.7994 13.3391 42.8394 8.28906C44.3094 10.5491 43.7194 14.5691 46.3694 17.8491C46.5594 18.1691 44.1194 18.4791 44.6994 17.7091C44.5494 17.1091 44.3094 13.6791 42.2494 13.9191V13.9191ZM43.1394 13.5091C43.1394 13.5091 43.2294 13.5091 43.2094 13.3991C42.8186 12.2284 42.5242 11.0278 42.3294 9.80906C42.2894 10.6791 40.2994 14.0991 43.1394 13.5091V13.5091Z" fill="black"/>
<path d="M52.4102 7.77932C57.6602 10.6293 48.3102 13.7793 51.6802 17.9193C50.2202 19.0393 49.6802 18.9193 50.2502 14.0193C49.5502 12.1293 50.8402 13.6693 50.1702 8.47932C49.0902 8.40932 49.5602 7.46932 52.4102 7.77932V7.77932ZM51.1502 12.1793C50.8602 13.8693 54.0002 11.9993 53.2002 9.36932C53.1102 9.57932 50.4302 5.56932 51.2002 12.1793H51.1502Z" fill="black"/>
<path d="M60.3493 7.77932C65.5893 10.6293 56.2493 13.7793 59.6193 17.9193C58.1593 19.0393 57.6193 18.9193 58.1893 14.0193C57.4893 12.1293 58.7793 13.6693 58.1093 8.47932C56.9993 8.40932 57.4993 7.46932 60.3493 7.77932V7.77932ZM59.0893 12.1793C58.7993 13.8693 61.9493 12.0193 61.0893 9.36932C60.9993 9.57932 58.3293 5.56932 59.0893 12.1793Z" fill="black"/>
<path d="M69.6297 8.69016C68.7197 10.9802 67.6297 13.1902 67.8797 17.0102C67.9997 17.1702 67.9897 17.0102 68.3997 17.3102C69.3997 17.9502 67.8397 18.3102 66.3997 17.7702C67.6897 17.0302 67.2297 10.9402 65.3397 8.68016C63.9697 7.91016 68.9597 8.08016 66.7897 8.68016C66.5897 10.0902 66.4297 9.08016 67.5197 11.9502C68.3997 11.6102 67.7597 8.15016 69.0297 8.09016C69.6497 7.87016 71.5297 8.19016 69.6297 8.69016Z" fill="black"/>
<path d="M121.21 68.9094C121.74 69.1794 117.21 74.2094 115.84 71.8094C116.57 72.8094 117.84 64.5794 116.17 62.5094C117.76 60.9994 123.42 61.8694 121.21 68.9094V68.9094ZM120.9 65.5994C121.06 64.7394 119.62 61.7794 117.9 62.8594C117.629 65.6374 117.552 68.4308 117.67 71.2194C117.56 72.3294 121.3 70.4394 120.9 65.5994Z" fill="black"/>
<path d="M127.239 67.6886C125.759 67.4486 126.079 70.9286 126.239 71.9586C126.349 71.8686 124.059 71.9586 124.879 71.3486C126.179 71.0986 124.789 67.1086 127.819 62.0586C129.289 64.3286 128.699 68.3386 131.349 71.6286C131.539 71.9386 129.109 72.2486 129.679 71.4886C129.539 70.8886 129.299 67.4486 127.239 67.6886V67.6886ZM128.139 67.2786C128.139 67.2786 128.229 67.2786 128.209 67.1686C127.811 66.0028 127.513 64.8051 127.319 63.5886C127.289 64.4486 125.289 67.8686 128.139 67.2786Z" fill="black"/>
<path d="M138.749 62.4593C137.839 64.7493 136.749 66.9593 136.999 70.7893C137.119 70.9393 137.099 70.7893 137.519 71.0793C138.519 71.7193 136.959 72.0793 135.519 71.5393C136.799 70.7993 136.339 64.7093 134.459 62.4493C133.089 61.6793 138.069 61.8493 135.909 62.4493C135.699 63.8593 135.539 62.8493 136.639 65.7193C137.519 65.3793 136.879 61.9293 138.149 61.8593C138.769 61.6493 140.639 61.9993 138.749 62.4593V62.4593Z" fill="black"/>
<path d="M76.4694 14.5593C76.6894 14.1993 75.7294 10.4293 77.6194 11.9993C95.6794 15.4493 127.839 14.7993 148.079 12.9993C156.859 8.73932 149.259 -4.13068 141.519 3.41932C137.799 9.68932 146.689 13.2493 146.089 4.81932C148.729 6.86932 145.579 13.1793 141.029 9.87932C133.999 -11.0007 168.349 6.39932 145.139 14.9993C132.459 15.0993 88.1194 15.8193 76.4694 14.5593V14.5593ZM77.6294 13.1693V13.9993H81.1194C79.9317 13.8377 78.7627 13.5597 77.6294 13.1693Z" fill="black"/>
<path d="M73.7291 13.41C73.6691 15.52 78.0191 13.87 74.8891 12.25C74.5191 12.31 74.1691 12.36 73.7291 13.41Z" fill="black"/>
<path d="M134.749 14.8185C135.939 13.8985 126.829 13.3685 131.749 7.81852C131.929 7.81852 133.749 6.91852 134.219 8.87852C134.219 10.8085 131.809 7.17852 133.079 10.0885C140.419 4.56852 120.669 8.73852 134.749 14.8185Z" fill="black"/>
<path d="M135.451 14.8602C134.221 13.0002 139.691 8.0402 138.831 12.9402C138.621 12.6102 137.211 11.0302 138.271 13.3602C144.001 13.0502 134.081 6.1502 135.451 14.8602Z" fill="black"/>
<path d="M131.141 14.2188C130.651 13.8487 130.651 15.0687 127.761 12.2188C125.869 13.5355 123.615 14.2342 121.311 14.2188H131.141Z" fill="black"/>
<path d="M109.25 65.5687C108.85 66.4987 110.37 69.5087 107.8 68.1287C85.5499 64.4687 38.6099 66.0687 13.9999 66.5787C3.25986 69.8087 10.7999 84.7087 19.1699 76.7187C22.8899 70.4387 13.9999 66.8787 14.5999 75.3187C11.2699 72.4687 16.7699 66.2087 20.4599 71.3187C21.9999 93.8187 -7.35014 68.3687 17.8499 64.9987C29.0599 65.5587 99.3299 64.0487 109.25 65.5687ZM107.79 66.9987V66.0987H102.63C104.368 66.2858 106.091 66.5865 107.79 66.9987Z" fill="black"/>
<path d="M112 66.7284C112.06 64.6184 107.72 66.2584 110.85 67.8784C111.19 67.8284 111.54 67.7784 112 66.7284Z" fill="black"/>
<path d="M25.9394 65.3184C24.7494 66.2284 33.8594 66.7584 28.9394 72.3184C28.7694 72.3184 26.9394 73.2184 26.4794 71.2484C26.4794 69.3284 28.8894 72.9484 27.6094 70.0384C20.2694 75.5684 39.9994 71.3884 25.9394 65.3184V65.3184Z" fill="black"/>
<path d="M25.24 65.2695C26.46 67.1395 21 72.0895 21.86 67.1995C22.07 67.5195 23.47 69.1095 22.42 66.7795C16.69 67.0795 26.61 73.9995 25.24 65.2695Z" fill="black"/>
<path d="M29.54 65.9089C30.15 66.1089 30.08 65.5189 33.54 67.9089C36.5354 66.5413 39.7977 65.8581 43.09 65.9089H29.54Z" fill="black"/>
</svg>
