<svg width="200" height="159" viewBox="0 0 200 159" fill="none" xmlns="http://www.w3.org/2000/svg">
<path d="M151.275 42.2143C149.199 42.5592 147.106 42.7948 145.013 42.9378C145.712 39.0782 146.194 35.1826 146.456 31.2694C149.958 26.491 150.963 14.6459 143.882 18.0783C142.971 21.8724 143.705 26.3564 143.039 30.5038C135.005 40.0775 143.14 15.4367 136.422 21.4938C135.579 25.3048 135.309 30.7478 130.979 31.3283C132.887 22.2426 123.95 12.7026 117.005 20.56C118.566 15.9667 113.764 14.015 113.714 20.4927C112.237 23.2185 112.237 31.2862 108.178 32.6323C111.992 22.4277 103.587 13.4597 95.9162 21.8724C90.8529 14.1327 92.6925 40.8683 87.6799 39.4634C84.1693 35.4253 87.7305 29.427 87.1567 24.8842C83.7811 21.6789 83.7811 27.408 83.2157 30.9161C82.1873 28.4304 79.761 26.8046 77.0639 26.7938C75.5533 26.1292 73.0217 26.9958 72.0427 28.7035C70.7263 28.7035 69.4098 28.7035 68.1018 28.7035C68.2115 24.3962 71.7305 -4.56028 65.8993 4.20575C65.8993 11.9538 65.5027 20.9218 64.7769 28.9812C61.6802 29.29 58.6112 29.8299 55.5955 30.5964C55.3845 23.9756 56.7179 15.7143 54.7516 9.30385C47.2917 7.50353 40.0259 16.6397 52.22 12.7194C52.4731 18.9953 52.3972 25.2796 52.144 31.5554C42.3719 34.3569 39.9668 38.2183 41.1736 46.917C41.0976 53.5715 45.0976 67.4272 51.3001 57.6012C54.6757 49.9456 54.6757 42.4583 55.4689 34.0456C58.4286 33.221 61.4515 32.6414 64.5069 32.3126C63.1567 37.0153 61.2495 71.1456 68.355 63.0273C65.0976 52.5535 66.5322 42.677 67.798 32.0938C68.8107 32.0434 69.8318 32.0181 70.8529 32.0181C68.5406 43.2238 78.4816 51.2664 83.3255 38.6978C84.0343 44.5867 90.1862 44.5026 92.4647 39.4045C92.1778 44.6035 91.6714 49.7886 90.9457 54.9596C89.7221 56.9618 93.663 59.3258 94.0934 56.1542C95.4294 46.7858 96.0809 37.3331 96.0427 27.8707C100.212 16.7491 108.507 22.9745 104.802 32.2116C91.1904 25.5908 95.452 49.3315 106.296 36.2161C108.828 36.6451 110.684 35.5431 112.11 33.6923C111.638 37.2929 107.047 68.9751 113.494 59.9062C112.836 49.4997 114.979 38.8745 116.077 28.2577C120.051 16.5388 128.954 20.5937 127.705 30.7815C112.439 23.0754 121.722 48.5912 129.823 34.6092C132.075 34.8238 134.309 34.0498 135.941 32.4892C136.473 34.6934 139.95 36.9732 142.515 35.5094C142.254 37.621 141.891 40.2458 141.41 43.0808C136.549 43.5099 130.574 41.3983 125.182 42.3742C108.979 50.4756 137.95 76.9335 144.304 46.2188C146.777 46.4038 158.102 45.1756 151.275 42.2143V42.2143ZM50.8529 46.2104C47.5617 68.4619 44.0343 51.0981 44.2031 40.9861C44.7094 37.1583 48.5744 36.6031 51.933 35.2065C51.7937 38.892 51.4386 42.5662 50.8698 46.2104H50.8529ZM78.7432 40.2542C73.7811 44.6708 73.0723 34.7438 74.5238 31.16C80.625 27.3659 82.2031 36.3254 78.76 40.2542H78.7432ZM101.368 36.4096C98.8698 34.9121 99.1848 34.2391 102.313 34.3905C102.617 34.4954 102.902 34.6488 103.157 34.8448C103.03 34.9878 102.904 35.1392 102.768 35.2738C102.365 35.717 101.898 36.0995 101.385 36.4096H101.368ZM126.355 33.9531C125.477 35.8038 124.375 35.8712 123.047 34.155C122.482 33.3137 122.608 32.8931 123.444 32.8762C124.051 32.5986 125.19 33.1538 126.431 33.8353C126.407 33.8721 126.387 33.9116 126.372 33.9531H126.355ZM130.262 57.3992C126.524 56.6337 121.992 50.2905 124.887 46.5216C129.022 43.7118 135.452 46.875 140.76 46.2777C139.46 52.1077 136.785 58.9977 130.279 57.3992H130.262Z" fill="#FEB39E"/>
<path d="M46.7099 68.9829C41.2837 65.1131 39.7057 74.2577 37.0897 77.9508C35.0981 74.6615 32.2542 66.2235 27.0559 70.127C21.9926 73.0883 25.2415 82.948 24.0432 88.1639C24.1698 95.1127 19.8998 111.778 31.0559 104.989C33.8323 99.1761 32.2205 91.8318 33.0812 85.5643C34.1023 88.8537 39.4272 91.2513 41.0897 86.3383C41.5707 85.497 42.0432 84.7062 42.5074 83.8818C42.9884 90.4353 41.3006 98.1834 43.0812 105.014C44.0332 106.158 45.5519 106.667 47.0033 106.328C48.4547 105.989 49.5893 104.862 49.9335 103.416C49.3597 92.3786 52.9209 68.0407 46.7099 68.9829Z" fill="#FEB39E"/>
<path d="M65.3166 67.8055C63.3595 66.5717 60.8374 66.6894 59.0044 68.0999C51.0297 71.9698 51.6457 87.752 52.4052 94.2298C53.8145 104.518 63.5107 108.119 68.6584 99.2774C74.2618 89.9645 71.7301 72.5671 65.3166 67.8055ZM61.9411 95.7104L61.3926 96.5517C61.9073 97.1069 61.8398 97.0733 61.1985 96.4423C58.1267 90.6544 59.7639 83.5372 61.0128 76.7229C61.2835 76.4959 61.5245 76.2359 61.7301 75.949C61.8145 75.8901 61.8736 75.8312 61.9495 75.7723C64.7681 81.4256 64.4558 89.4682 61.9242 95.7104H61.9411Z" fill="#FEB39E"/>
<path d="M87.3854 67.5871C64.3474 66.9393 69.7567 77.5562 77.0563 75.9998C77.9002 88.6189 74.4656 104.073 78.2883 105.991C88.5246 110.803 83.3516 79.1882 84.6596 75.2763C90.9381 76.5551 94.0689 68.563 87.3854 67.5871Z" fill="#FEB39E"/>
<path d="M92.887 70.9267C92.6591 81.022 91.5283 91.5126 91.1992 102.054C98.9376 112.082 99.233 95.3825 99.5115 90.3853C101.272 90.5283 103.042 90.5283 104.803 90.3853C105.233 94.3813 102.22 101.179 104.929 104.443C113.225 108.33 111.68 95.1048 112.431 90.1413C112.237 81.4174 114.701 71.5072 111.132 66.9728C101.849 62.8506 106.161 77.8336 105.123 82.7802C103.384 82.9821 101.63 83.0244 99.8828 82.9064C100.077 78.902 100.246 74.8975 100.499 70.9267C100.803 66.0474 93.1908 66.0642 92.887 70.9267Z" fill="#FEB39E"/>
<path d="M122.491 71.2046C128.221 72.4413 133.849 71.4822 131.402 65.6102C128.103 63.0864 119.309 62.7919 116.474 65.728C113.191 72.2983 114.845 80.5427 113.824 88.2992C112.719 103.257 113.419 106.933 128.06 102.601C133.79 97.0484 127.115 94.0619 121.081 96.4427C121.191 93.8264 121.385 90.6295 121.47 87.2561C133.09 88.7367 133.824 77.5983 121.883 79.6846C122.086 77.4721 122.195 74.2248 122.491 71.2046V71.2046Z" fill="#FEB39E"/>
<path d="M149.42 86.0536C155.934 77.4306 149.791 59.0404 137.529 64.1806C130.137 62.7504 133.723 78.4822 132.846 82.209C132.846 89.1999 131.107 95.6693 131.512 102.98C132.154 106.547 137.023 106.909 138.635 104.116C139.656 100.532 138.829 96.5442 139.614 92.5819L140.635 92.2706C143.099 96.0899 142.685 103.661 146.804 106.101C156.93 107.245 148.635 93.339 147.276 88.5858C148.089 87.8297 148.809 86.9796 149.42 86.0536ZM143.816 73.4345C145.377 76.5809 144.213 82.5371 140.365 84.1776C140.5 80.2909 140.196 76.3622 140.365 72.4671C140.888 72.0518 141.273 71.4888 141.47 70.8518C141.754 70.8166 142.037 70.9274 142.221 71.1463C142.887 71.7941 143.428 72.5583 143.816 73.4009V73.4345Z" fill="#FEB39E"/>
<path d="M159.217 73.081C160.905 67.781 170.778 53.8917 161.242 54.102C156.128 55.7845 154.669 66.6369 152.247 70.6834C151.901 74.4859 157.209 76.8415 159.217 73.081Z" fill="#FEB39E"/>
<path d="M177.215 79.8013C175.756 75.595 168.11 75.2248 171.528 69.8323C171.629 69.5993 171.782 69.3922 171.975 69.2266C172.262 68.9321 172.237 68.9573 171.907 69.3023C184.178 69.1508 169.334 51.9132 163.722 68.7891C160.523 82.2494 170.709 78.632 171.747 87.0783C172.802 91.2005 168.422 98.1158 165.275 93.2027C163.587 90.0564 165.891 86.0351 162.237 84.7396C152.853 82.8888 157.629 98.1999 162.118 100.783C174.819 108.573 183.713 89.5012 177.215 79.8013V79.8013Z" fill="#FEB39E"/>
<path d="M148.398 136.891C141.993 137.774 135.588 138.716 129.183 139.616C130.704 136.297 131.632 132.738 131.926 129.1C142.204 107.017 127.706 105.747 128.66 128.099C120.685 141.358 122.39 129.176 123.85 122.269C126.019 116.145 120.862 113.655 120.618 121.68C120.221 126.324 111.225 141.349 110.432 129.572C109.487 126.408 112.491 122.412 109.749 120.023C106.221 110.769 97.1831 118.559 96.3308 124.76C95.0987 130.573 83.892 150.191 86.854 133.004C89.144 124.659 92.0753 116.503 95.6219 108.607C93.7569 98.8316 87.4025 121.1 86.5586 122.909C84.027 115.27 75.9848 117.07 72.9637 123.237C70.8163 125.356 69.0973 127.866 67.9004 130.632C64.0776 134.291 57.9173 136.764 52.4911 138.085C47.0903 145.413 65.1493 137.311 66.6768 135.713C66.5755 146.515 77.6472 146.178 82.5839 139.44C84.2717 146.069 92.0607 142.182 94.1789 137.757C97.3097 145.287 106.204 140.5 108.272 134.888C110.466 139.692 116.711 136.941 119.141 132.752C119.563 136.798 123.504 139.187 127.065 135.923C126.553 137.374 125.924 138.781 125.183 140.13C117.073 141.812 108.305 141.181 99.3097 143.335C93.4953 144.698 90.5333 152.126 95.546 156.475C106.44 163.996 122.213 151.596 127.242 143.133C131.327 142.039 158.12 140.912 148.398 136.891V136.891ZM81.0903 135.772C75.7823 143.924 67.8329 142.704 70.7612 132.407C72.8872 130.225 74.5694 127.654 75.7148 124.835C84.7358 113.798 85.0818 130.783 81.0903 135.772ZM104.778 134.661C103.225 138.279 97.5038 140.449 97.3434 134.922C97.3856 130.253 101.099 126.055 101.251 121.302C108.77 113.646 107.175 131.557 104.778 134.661ZM109.048 154.12C101.453 158.25 90.0692 152.025 100.407 146.464C108.002 144.824 114.888 145.27 122.888 143.772C119.386 148.494 114.575 152.091 109.048 154.12V154.12Z" fill="#FEB39E"/>
<path d="M197.231 31.5806C194.696 29.88 191.814 28.7596 188.793 28.2996C202.455 10.7339 182.278 -3.66865 176.978 21.2329C165.442 6.21627 151.755 17.3631 167.535 28.5267C151.037 30.9748 154.523 45.9326 169.341 40.3045C164.227 58.9134 184.649 57.3571 184.008 41.4402C191.24 44.9399 205.35 39.1856 197.231 31.5806V31.5806Z" fill="#59D1D3"/>
<path d="M178.397 27.3914C176.608 27.0381 173.857 28.6786 174.676 31.3117C174.672 31.365 174.672 31.4184 174.676 31.4716C177.115 39.1608 185.781 30.1424 178.397 27.3914Z" fill="#F46487"/>
<path d="M45.8233 129.445C42.6553 128.324 39.3469 127.644 35.9921 127.426C44.4309 113.823 26.3043 105.755 22.9288 123.262C10.2706 108.321 -4.48892 121.781 12.9372 132.019C-2.13449 138.034 3.89926 155.836 18.4731 144.79C22.9372 162.457 38.6334 158.662 33.9921 141.105C48.49 145.539 53.6039 133.391 45.8233 129.445Z" fill="#59D1D3"/>
<path d="M28.7927 134.703C28.709 134.085 28.4548 133.503 28.0585 133.02L27.9741 132.936C27.0796 132.036 24.1851 130.059 23.1977 132.701C20.396 134.812 23.5015 139.868 26.8855 138.27C28.2997 137.694 29.1012 136.195 28.7927 134.703V134.703Z" fill="#F46487"/>
<path d="M26.2701 19.6685C16.5148 15.3191 15.1309 29.1075 18.0929 35.6947C17.4651 35.1079 16.7746 34.5916 16.0338 34.1551C4.72582 26.6594 -5.90709 35.0721 3.84818 45.3104C10.0507 51.317 17.0465 51.0226 24.5908 54.4466C31.3419 59.6456 30.6161 49.3989 30.9621 45.1001C31.5106 36.334 33.1731 25.5742 26.2701 19.6685V19.6685Z" fill="#F46487"/>
<path d="M42.4223 0.479132C38.2029 -1.61563 36.6417 3.54977 36.1016 8.38707L35.916 8.23564C26.3548 -9.06928 19.781 8.10104 30.5151 11.8868C33.0468 12.2906 35.9413 17.7252 38.6924 15.7061C41.9835 12.8963 48.1016 3.36469 42.4223 0.479132V0.479132Z" fill="#F46487"/>
<path d="M174.008 118.383C170.185 120.679 167.679 125.037 166.21 129.252C166.143 129.025 166.067 128.798 165.983 128.562C166.759 119.762 158.143 109.735 153.603 120.427C151.442 129.605 158.21 143.436 162.379 146.826C166.75 148.349 181.316 135.149 182.75 132.659C187.476 125.264 182.835 113.731 174.008 118.383V118.383Z" fill="#F46487"/>
<path d="M194.878 101.289C192.169 99.6062 190.093 101.693 188.599 104.57C189.19 101.777 186.565 94.6343 182.928 99.438C181.241 104.124 183.274 108.919 185.738 113.142C185.786 113.476 185.998 113.764 186.304 113.908C189.08 118.484 200.565 103.081 194.878 101.289V101.289Z" fill="#F46487"/>
</svg>
