<svg width="200" height="173" viewBox="0 0 200 173" fill="none" xmlns="http://www.w3.org/2000/svg">
<path d="M50.8678 50.965C50.562 48.7218 51.6942 41.1065 54.8512 43.3662C55.7521 47.1739 53.5702 50.4932 53.1983 54.6733C48.7851 69.2583 55.2066 70.4916 56.2314 60.0123C57.1074 54.6402 62.0992 33.756 67.8016 39.244C68.595 47.2567 63.5785 55.0955 63.5785 63.7372C68.4545 69.3907 67.9421 56.1964 69.5124 53.4151C72.5454 51.0478 74.5537 35.1136 79.9173 37.2492C81.5702 43.9788 70.6777 67.8759 83.6942 64.1842C86.9256 58.9528 79.9669 62.5287 81.2149 58.0092C82.1074 51.0312 84.0661 44.2519 84.0992 36.8187C81.8595 28.0859 74.3802 33.5822 71.8264 38.7143C70.1735 30.1305 60.2562 35.2046 57.9835 40.6181C46.9917 30.1388 43.5454 60.9146 50.8678 50.965V50.965Z" fill="#59D1D3"/>
<path d="M93.4546 60.9229C100.893 63.1082 104.198 53.8043 104.579 47.2071C105.871 46.729 107.089 46.0714 108.198 45.2536C108.587 49.3923 103.157 63.2489 109.446 60.567C112.612 54.9962 111.223 47.3726 116.413 42.4227C116.763 45.9882 116.668 49.5833 116.132 53.1255C112.826 59.9379 118.198 64.714 119.537 55.7991C120.157 52.4881 126.306 36.7609 128.347 42.6544C128.612 48.0348 126.818 50.932 127.298 56.0475C127.174 60.3683 134.107 62.4211 135.182 57.405C134.967 55.824 132.769 55.1038 131.388 56.5772C131.223 51.5114 132.835 46.3297 132.215 40.6182C129.942 34.4183 122.529 37.7707 120.479 42.7786C120.141 36.6201 115.818 36.4711 112.562 40.4444C113.141 38.615 112.289 34.4266 109.306 36.1897C108.066 38.673 107.331 41.8433 104.149 43.0104C103.722 41.1698 102.724 39.5121 101.298 38.2756C101.099 37.0257 99.9835 35.6103 97.9339 36.7112C94.2562 36.2311 91.0083 39.4924 91.2728 42.6958C88.091 48.0514 86.3058 57.7775 93.4546 60.9229V60.9229ZM100.066 50.4022C97.0083 63.9194 89.6034 55.2528 93.8596 46.5532C95.848 47.7474 98.1607 48.2859 100.471 48.0928C100.331 48.9122 100.19 49.6655 100.041 50.4022H100.066ZM97.1819 43.6726C96.709 43.5454 96.2636 43.3321 95.8678 43.0435C96.5147 42.2563 97.2851 41.5798 98.1488 41.0403C99.1882 41.7258 99.9272 42.7827 100.215 43.9954C99.1848 44.057 98.1517 43.9479 97.1571 43.6726H97.1819Z" fill="#59D1D3"/>
<path d="M140.19 40.7914C142.091 38.8048 148.223 32.34 142.983 31.3633C140.496 32.1993 132.901 43.4981 140.19 40.7914Z" fill="#59D1D3"/>
<path d="M143.108 46.6017C144.079 47.8042 145.363 48.715 146.818 49.2339C154.405 51.1377 151.967 61.8488 144.744 58.4799C143.48 57.9087 142.901 57.1886 143.009 56.1456C145.215 48.6048 137.116 53.4472 139.546 58.2978C150.455 74.0251 164.728 49.6809 146.984 44.7972C146.397 44.135 146.521 43.0258 147.628 42.198C150.934 39.334 152.43 43.092 155.265 44.524C160.38 43.6963 155.141 38.142 152.166 37.5461C147.025 35.6753 140.364 41.6186 143.108 46.6017V46.6017Z" fill="#59D1D3"/>
<path d="M172.603 85.1344C171.777 90.4651 165.876 104.578 161.801 93.536C167.587 82.9491 172.487 67.942 166.165 56.5521C155.421 55.5919 154.851 88.0646 157.463 93.0973C141.653 110.149 152.231 79.1663 144.454 84.8198C141.702 82.1048 133.876 82.3366 133.843 87.4272C133.347 88.5059 132.911 89.6113 132.537 90.7382C131.347 93.4947 124.735 105.82 122.62 97.5755C121.868 93.5857 126.215 85.0847 121.231 84.6625C119.578 85.093 119.702 85.838 119.198 87.3196C114.843 104.189 100.116 103.651 107.446 89.5628C121.314 86.6492 105.843 79.4394 103.074 88.942C100.033 94.9929 98.4048 104.611 89.8511 98.635C113.14 81.6992 83.1238 73.0989 84.066 96.1517C83.1459 96.2109 82.2224 96.1915 81.3056 96.0938C86.099 78.8848 73.38 77.8833 64.3635 88.4868C65.1486 86.6574 63.7271 82.5104 61.0081 85.0847C59.818 87.2617 60.4296 90.0512 59.8346 92.758C59.0081 97.8652 57.1073 102.832 52.1982 105.174C55.0908 90.523 45.7271 84.1576 34.9833 78.264C29.9337 73.4465 36.1651 66.6755 42.1734 68.0579C50.4379 68.389 53.6279 84.0169 56.223 75.8636C49.6114 57.5123 24.9007 62.2636 30.1073 78.2061C31.8676 82.2538 36.0742 83.3381 39.8594 85.7635C47.1073 89.778 50.9255 97.9148 47.7602 105.952C42.4709 104.992 39.066 99.0158 34.0577 96.1766C18.5949 88.5695 13.8428 101.607 22.3139 112.574C29.6197 121.423 44.347 119.875 50.3222 109.834C53.2569 109.369 55.9698 107.987 58.0742 105.886C57.0329 112.69 55.807 119.464 54.3965 126.207C53.8759 128.691 57.7023 129.8 58.256 127.275C60.3332 117.342 62.0136 107.351 63.2974 97.3023C67.5949 87.2037 82.3965 78.264 77.256 95.6468C58.4461 95.5144 68.4213 116.754 79.6527 100.059C81.6887 100.426 83.7738 100.426 85.8098 100.059C89.2974 105.331 98.7519 106.151 102.43 100.059C105.917 107.508 115.033 103.27 118.57 97.6582C119.719 106.764 128.57 105.745 132.182 99.1896C134.33 105.116 143.132 107.55 146.14 100.489C149.901 103.908 156.256 101.16 159.231 97.3106C170.107 115.058 182.363 76.0125 172.603 85.1344V85.1344ZM41.9503 112.624C17.5536 123.07 15.2065 80.4327 39.4709 105.903C41.1873 107.607 43.3048 108.851 45.6279 109.52C44.6042 110.773 43.3572 111.826 41.9503 112.624ZM70.8098 102.112C70.9255 100.688 73.6858 99.4627 75.2065 99.4959C74.1162 100.885 72.5489 101.817 70.8098 102.112ZM91.9172 86.7319C98.3965 84.05 90.9172 94.6452 87.9751 95.117C87.5508 91.7922 89.0881 88.5223 91.9172 86.7319ZM136.107 98.1549C135.412 96.4677 135.353 94.5847 135.942 92.8573C136.873 90.9725 137.701 89.0382 138.421 87.063C140.851 86.2849 143.545 88.7185 143.562 91.7729C143.562 92.4103 143.562 93.0477 143.644 93.685C143.909 99.1399 139.669 103.949 136.107 98.1549V98.1549ZM164.306 62.2222C166.669 70.4997 163.719 79.3649 160.388 87.0548C159.81 79.3484 159.909 69.2084 164.306 62.2222Z" fill="#59D1D3"/>
<path d="M123.43 75.4326C122.321 75.1124 121.127 75.3199 120.19 75.9955C117.347 76.5418 117.562 81.6159 121.438 81.3841C124.719 83.1721 127.934 77.0467 123.43 75.4326Z" fill="#59D1D3"/>
<path d="M140.207 134.666L129.224 136.885C129.511 133.604 129.574 130.307 129.414 127.018C136.67 108.377 124.604 111.638 125.414 126.43C124.645 128.185 120.323 136.363 118.868 131.62C118.108 127.722 122.761 115.107 117.629 116.075C115.819 116.721 116.405 117.383 115.926 119.593C114.951 125.76 113.893 131.761 109.918 136.405C108.166 132.134 113.182 117.929 106.967 121.605C105.686 120.206 102.835 118.947 100.414 120.23C97.174 119.808 96.1162 125.305 94.9261 128.102C94.2973 129.579 93.8075 131.112 93.4633 132.68C93.2897 133.897 89.0418 143.076 87.736 138.756C87.9588 137.781 88.0642 136.783 88.0501 135.784C88.5625 128.218 90.8682 119.957 93.6947 112.226C89.3972 103.626 85.4302 126.621 84.9426 128.731C83.743 127.65 82.2449 126.958 80.6451 126.745C79.2649 125.727 77.1079 125.089 75.8517 127.672C74.4881 128.591 71.5129 131.057 72.7029 133.681C68.1823 146.644 77.422 155.948 85.7608 143.54C88.5872 145.386 92.4963 142.944 94.3806 139.923C97.5542 145.411 104.191 143.565 106.901 138.532C109.422 142.53 114.091 139.236 115.678 135.221C117.769 138.474 122.835 137.704 125.372 134.253C125.372 135.411 125.265 136.57 125.157 137.729C76.7608 147.348 123.372 192.51 128.769 141.04C131.893 140.312 149.405 138.3 140.207 134.666V134.666ZM81.1244 143.201C73.1244 151.056 75.2897 134.195 78.5294 130.784C78.8683 130.709 79.2163 130.684 79.5625 130.71C79.7771 130.786 80.0044 130.82 80.2319 130.809C82.1007 131.302 83.5368 132.801 83.9509 134.691C83.7353 136.06 83.6413 137.445 83.6699 138.83C83.1181 140.441 82.2529 141.926 81.1244 143.201ZM105.091 129.17C105.918 138.863 96.0005 144.128 97.5872 133.003C97.8187 132.299 98.0418 131.587 98.2649 130.875C98.6203 129.874 99.017 128.872 99.4385 127.887C101.695 121.315 105.596 123.55 105.075 129.129L105.091 129.17ZM114.182 161.287C108.034 162.048 105.653 153.796 109.422 149.384C113.157 144.459 118.645 143.225 124.662 141.934C123.257 148.631 122.1 159.275 114.166 161.246L114.182 161.287Z" fill="#59D1D3"/>
<path d="M154.545 20.9085C165.644 25.4031 159 11.3396 151.397 13.6656C152.752 -1.23389 129.992 4.65142 147.33 15.3211C147.19 15.5032 145.868 16.1075 146.661 17.2332C143.835 19.5841 139.388 19.9648 135.239 19.2943C141.413 7.10156 128.694 2.01917 131.165 18.4666C128.433 17.7906 125.752 16.9249 123.14 15.8757C128.653 3.71606 113.768 -0.753795 118.694 14.0712C116.187 13.0275 113.621 12.1347 111.008 11.3976C114.049 -0.157814 104.025 -2.4838 107.777 10.7602C104.471 9.40271 91.2477 13.4752 95.6775 16.1903C99.6196 13.4007 103.686 11.5383 108.512 12.8793V12.9289C103.454 25.4114 114.198 27.5222 111.653 13.6905C114.297 14.5182 116.925 15.6688 119.396 16.7035C109.876 28.292 122.52 33.3827 122.264 17.8789C125.234 19.015 128.27 19.9686 131.355 20.7346C131.386 20.7849 131.422 20.8321 131.463 20.8753C131.252 21.0952 131.179 21.4132 131.273 21.7031C129.62 36.6026 139.917 33.5317 134.801 21.4217C139.76 22.1832 145.545 21.5955 149.149 17.8044C149.232 17.7799 149.312 17.7466 149.388 17.7051C151.074 18.7646 152.785 19.8655 154.545 20.9085ZM119.934 11.2155C119.289 1.50597 124.735 10.9506 121.256 15.1225L121.066 15.048C120.59 13.8018 120.211 12.5204 119.934 11.2155ZM109.306 4.71764C109.742 6.24936 109.784 7.86663 109.43 9.41927C109.248 9.2951 108.471 3.24424 109.306 4.71764ZM109.653 20.6932C109.653 21.0823 109.595 21.1319 109.454 20.8174C109.241 20.5963 109.191 20.2638 109.33 19.9896C109.33 19.4847 109.43 14.9238 109.744 14.5182C109.917 15.5032 110.339 19.3192 109.653 20.6932V20.6932ZM118.744 24.8899C116.975 26.7772 118.537 19.6585 120.116 18.806C120.16 18.8357 120.207 18.8607 120.256 18.8805C120.228 20.9531 119.719 22.9907 118.768 24.832L118.744 24.8899ZM133.149 12.333C134.851 6.48903 135.917 16.8856 133.149 18.897C133.173 17.0015 133.165 14.841 133.173 12.2998L133.149 12.333ZM133.058 22.4977C133.978 24.4933 134.267 26.7234 133.884 28.888C132.703 26.9765 132.402 24.6476 133.058 22.4977ZM156.306 16.5545C156.977 16.8907 157.547 17.3991 157.958 18.0279C158.719 18.7894 158.168 19.3192 156.306 19.6172C154.727 18.6818 152.603 17.3408 150.446 15.9999L150.496 15.9171C152.432 15.2698 154.555 15.5026 156.306 16.5545V16.5545ZM145.562 10.9837C136.562 4.75903 153.165 5.504 149.041 14.2947C148.238 12.8793 147.04 11.7289 145.595 10.9837H145.562Z" fill="#FEB39E"/>
<path d="M166.719 38.5728C180.992 38.2003 174.339 21.5874 165.818 33.0517C165.322 29.9559 158.38 23.2015 157.124 29.2772C157.273 33.2255 161.926 36.0068 164.711 38.1175C164.76 41.4674 163.903 44.7681 162.231 47.6698C163.843 53.1661 167.273 40.5097 166.719 38.5728V38.5728ZM168.422 33.0434C176.017 26.678 173.38 38.0099 166.595 36.5945C166.595 36.3351 166.562 36.0785 166.496 35.8247C167.038 34.8322 167.684 33.8999 168.422 33.0434ZM159.223 28.9709C162.273 29.0951 163.802 32.4723 164.405 35.4356L164.355 35.5184C162.289 33.5897 158.843 31.6611 159.223 28.9709V28.9709Z" fill="#FEB39E"/>
<path d="M166.059 24.8314C166.364 24.8314 166.059 24.881 166.885 24.5251C167.298 24.2105 168.389 22.5054 166.678 21.7521C165.546 20.974 163.53 24.1692 166.059 24.8314V24.8314Z" fill="#FEB39E"/>
<path d="M158.835 9.53493C159.034 9.48434 159.224 9.40337 159.397 9.29489C160.13 9.25922 160.738 8.7153 160.856 7.9902C160.973 7.26511 160.569 6.55636 159.885 6.29015C159.68 6.15826 159.443 6.08393 159.199 6.07493C157.472 5.52862 155.373 9.68393 158.835 9.53493V9.53493Z" fill="#FEB39E"/>
<path d="M55.5626 26.156C61.4717 35.4765 65.2485 34.6322 57.8931 25.8911C57.6452 25.0055 56.9345 24.3764 56.2403 22.9112C70.3725 7.12603 49.8188 1.38971 53.4055 20.9743C38.0171 10.3956 37.1411 31.7765 55.5626 26.156ZM55.67 12.9617C61.4551 5.3712 59.1245 18.2013 55.4551 20.726C54.7208 18.1782 54.7959 15.4648 55.67 12.9617V12.9617ZM46.4717 24.3764C45.3064 24.1611 44.3312 23.739 44.1907 22.1745C44.4717 17.0425 52.2568 21.86 54.232 24.5999C51.6948 24.6164 48.9262 24.8978 46.4717 24.3764V24.3764Z" fill="#FEB39E"/>
<path d="M46.5208 12.8056C48.0332 12.7477 50.0994 11.6302 49.1985 9.06419C49.0056 8.11118 48.3112 7.33824 47.3853 7.04575C46.4594 6.75326 45.4479 6.98733 44.744 7.65701C44.258 8.02967 43.9398 8.58058 43.8597 9.18835C43.6488 10.0315 43.8248 10.925 44.3396 11.6248C44.8544 12.3246 45.6543 12.7576 46.5208 12.8056V12.8056Z" fill="#FEB39E"/>
<path d="M25.6201 129.129C23.5357 128.183 21.5895 126.958 19.835 125.487C30.2317 124.535 20.7027 116.2 14.6945 119.759C13.2364 117.592 12.0486 115.254 11.1573 112.798C22.1573 121.282 17.1655 106.879 9.50439 105.828C9.45894 105.784 9.40909 105.745 9.35563 105.712C8.93455 102.776 8.86519 99.7996 9.14902 96.8469C17.6118 109.495 17.9341 96.4661 10.9837 90.8953C10.9619 90.4992 10.7142 90.1511 10.3474 90.0014C10.8287 88.1244 11.4136 86.2757 12.0994 84.4637C18.0746 95.539 20.4879 83.0731 15.0994 77.7341C16.2399 75.5074 17.4879 73.3304 18.8184 71.2114C18.1325 74.4645 22.1242 83.2221 24.9341 78.926C26.2978 75.1267 24.3887 66.5098 23.1655 64.7798C24.554 63.7699 22.6945 61.2701 21.3143 63.952C7.26472 58.8034 4.78538 72.511 17.7771 69.1503C16.3226 71.4018 14.9507 73.7278 13.6945 76.1117C1.00025 71.9729 -4.00801 89.6371 11.4548 80.7554C10.0548 83.9251 8.94823 87.2168 8.14902 90.5891C-2.41297 94.1567 -2.59479 105.406 7.06637 97.9064C6.89437 100.671 7.01627 103.445 7.43001 106.184C-7.73528 122.416 5.6862 123.484 8.49612 111.092C9.55606 114.83 11.232 118.363 13.4548 121.547C6.28951 132.515 15.835 135.437 16.4217 125.106C17.5457 126.72 27.4796 134.096 25.6201 129.129V129.129ZM18.8515 121.042C26.5705 122.648 19.9672 124.858 16.3308 121.911C16.1821 121.729 16.025 121.555 15.8846 121.373C16.8046 120.948 17.8391 120.841 18.8267 121.067L18.8515 121.042ZM14.7193 111.515C15.0049 111.747 15.2482 112.027 15.4383 112.342C15.7275 112.549 15.7275 112.773 15.4383 113.005C15.3391 113.452 15.1325 113.501 14.8102 113.137C12.8432 112.02 11.9589 110.952 10.587 108.419C12.1244 109.204 13.5075 110.261 14.6697 111.539L14.7193 111.515ZM14.2565 99.835C12.3639 98.9245 11.4052 97.1448 10.5705 94.6864C10.5551 94.5546 10.5188 94.4261 10.4631 94.3057C10.3737 93.8683 10.3102 93.4261 10.273 92.9813C11.2399 93.8256 13.992 98.5603 14.2069 99.8599L14.2565 99.835ZM16.2565 86.7317C13.9093 86.6407 13.8846 82.9572 13.9672 80.1097L14.1242 79.7621C15.4465 81.9473 16.6779 84.2071 16.2069 86.7566L16.2565 86.7317ZM22.868 76.6497C19.835 76.1531 21.0829 69.9367 21.6779 66.8905L21.9011 66.576C22.4713 68.7033 24.4217 74.6135 22.8432 76.6746L22.868 76.6497ZM15.43 67.5445C6.0829 67.3375 16.1738 62.7601 20.1821 65.6075C19.9507 65.9303 19.7275 66.2614 19.5044 66.5925C18.1649 67.0622 16.7799 67.3895 15.3722 67.5693L15.43 67.5445ZM3.86802 81.0699C4.56224 77.7589 8.49612 77.4361 12.0003 77.6265C11.9791 77.7747 11.9791 77.9252 12.0003 78.0735C10.4383 79.075 5.92587 82.0798 3.86802 81.0699V81.0699ZM4.89282 96.9876C-1.35512 101.126 4.5953 93.6766 7.63662 92.973C7.50439 93.7262 7.38868 94.4795 7.28951 95.241L4.89282 96.9876ZM2.56224 117.118C3.47362 114.436 4.87482 111.946 6.69447 109.776C6.13249 112.491 5.28125 116.034 2.56224 117.118V117.118ZM7.43827 108.957C7.5705 108.816 7.71926 108.675 7.85149 108.526C7.85149 108.684 7.90935 108.841 7.9424 108.99C7.77885 108.942 7.6067 108.931 7.43827 108.957V108.957ZM14.3226 126.555C12.3722 131.927 12.6697 126.555 14.3887 124.13C14.4812 124.938 14.4534 125.755 14.306 126.555H14.3226Z" fill="#FEB39E"/>
<path d="M76.5127 155.84C76.4113 155.838 76.3105 155.855 76.2152 155.89C75.3887 154.234 67.6119 148.308 69.3061 152.91C71.6374 154.097 73.6583 155.815 75.2069 157.926C65.9425 179.34 84.0416 174.357 79.1078 161.237C90.7689 169.076 97.9177 153.034 76.5127 155.84V155.84ZM77.7937 167.768C77.7736 168.251 77.5999 168.715 77.2978 169.092C77.0113 170.196 76.4604 170.13 75.645 168.894C72.9755 167.445 76.3474 162.975 76.5788 160.227C77.6868 162.575 78.108 165.19 77.7937 167.768ZM87.1243 161.08C84.1491 162.818 80.8268 160.302 78.3226 157.876C80.0168 158.224 91.1739 156.742 87.1243 161.08Z" fill="#FEB39E"/>
<path d="M87.6528 168.514C86.8759 167.396 84.4875 166.685 83.9007 169.259C83.8015 169.797 83.6776 171.287 84.9503 171.833C85.8418 172.083 86.7963 171.78 87.3822 171.063C87.9681 170.345 88.0743 169.348 87.6528 168.522V168.514Z" fill="#FEB39E"/>
<path d="M96.8763 150.318L96.7027 150.376C96.0664 150.376 95.3226 150.823 95.5126 152.239C95.5622 152.479 95.5126 152.388 95.7358 152.785C96.6945 155.26 101.339 150.906 96.8763 150.318V150.318ZM97.43 151.883V152.015C97.4713 151.966 97.5209 151.924 97.4713 151.883H97.43Z" fill="#FEB39E"/>
<path d="M59.256 160.433C57.7767 160.914 57.6031 165.772 60.2312 164.489C64.0411 164.721 63.1403 158.794 59.256 160.433ZM60.7271 162.495C60.731 162.47 60.731 162.445 60.7271 162.42C60.7232 162.395 60.7767 162.42 60.8676 162.263C60.8439 162.352 60.7985 162.435 60.7353 162.503L60.7271 162.495Z" fill="#FEB39E"/>
<path d="M63.4718 138.234C62.9355 138.255 62.4374 138.518 62.1165 138.948C61.7956 139.379 61.6862 139.932 61.8189 140.453C61.7445 144.856 68.356 139.575 63.4718 138.234ZM63.0916 141.463L63.3478 141.396C63.2661 141.431 63.1798 141.453 63.0916 141.463Z" fill="#FEB39E"/>
<path d="M22.0172 155.806C24.5957 153.819 20.1742 149.598 19.0585 153.935C17.8023 155.343 20.0337 157.213 22.0172 155.806Z" fill="#FEB39E"/>
<path d="M14.3471 139.169C13.8181 138.838 12.6942 139.351 12.9586 140.527C12.8673 140.916 13.0059 141.323 13.3156 141.575C13.6254 141.827 14.0517 141.88 14.4132 141.71C15.8264 142.182 17.1239 139.004 14.3471 139.169ZM14.9008 140.585C14.8979 140.634 14.8979 140.684 14.9008 140.734C14.898 140.683 14.8897 140.633 14.876 140.585H14.9008Z" fill="#FEB39E"/>
<path d="M22.5619 165.426C21.8015 164.681 20.7189 164.822 20.2974 166.841C20.223 172.453 28.1982 167.156 22.5619 165.426Z" fill="#FEB39E"/>
<path d="M74.3807 117.217C78.6038 116.563 73.9261 110.048 73.4468 115.867C73.3228 116.422 73.3228 116.761 74.3807 117.217ZM74.2236 115.255H74.2732H74.3807H74.2236Z" fill="#FEB39E"/>
<path d="M186.777 113.401C204.851 115.694 203.479 98.1786 187.446 110.81C188.432 107.776 189.236 104.686 189.851 101.556C189.941 101.506 190.02 101.438 190.083 101.357C205.884 96.0927 199.512 83.8171 190.76 95.7864C191.306 91.001 191.306 86.169 190.76 81.3836C200.727 70.6228 193.083 60.0193 189.017 72.6839C188.276 70.0804 187.33 67.5396 186.19 65.0851C191.868 51.8411 180.562 41.5853 180.942 56.2034C178.736 52.4785 171.504 51.4769 173.074 57.4864C174.901 61.0705 180.256 65.3666 184.413 65.9294C185.928 69.2647 187.091 72.7491 187.884 76.326C171.496 63.7193 173.603 81.5739 188.388 81.2925C188.421 81.5923 188.581 81.8636 188.826 82.0375C189.26 86.1081 189.29 90.2116 188.917 94.2882C180.703 79.3059 174.653 94.4951 187.95 101.01C187.435 103.634 186.787 106.231 186.008 108.79C175.636 89.9839 169.281 105.074 184.554 113.128C183.471 116.091 182.174 119.212 180.554 122.581C175.215 99.4699 165.355 116.224 178.231 125.685C178.377 125.883 178.588 126.024 178.826 126.082C177.501 128.697 176.034 131.236 174.43 133.689C171.612 114.883 163.041 128.267 170.959 138.391C162.289 146.337 166.826 146.983 172.397 139.79C181.488 147.628 190.43 133.557 175.397 135.816C177.337 132.949 179.093 129.96 180.653 126.868C200.347 132.77 196.959 118.218 182.703 122.68C184.099 119.733 185.38 116.72 186.488 113.641C186.597 113.578 186.695 113.497 186.777 113.401V113.401ZM197.736 108.112C197.248 111.1 193.05 111.803 189.545 111.671C191.612 110.256 194.769 108.501 197.752 108.095L197.736 108.112ZM193.388 95.8361C193.855 95.1323 194.426 94.5042 195.083 93.9737C195.43 93.3197 195.909 93.2452 196.521 93.7584C197.826 93.8743 197.826 94.4731 196.521 95.5547C195.182 97.2102 193.025 97.8227 191.008 98.6422C191.843 97.6737 192.612 96.7466 193.388 95.8361V95.8361ZM193.587 69.1246C193.706 72.6252 192.562 76.0516 190.364 78.7761L190.141 77.518C190.545 74.9933 191.265 69.3729 193.62 69.1246H193.587ZM184.132 51.1624C185.737 54.8116 186.046 58.9012 185.008 62.7509C184.86 62.4694 184.703 62.1963 184.554 61.9231C183.942 59.1916 180.909 53.7532 184.165 51.1624H184.132ZM176.033 58.2479C174.639 57.2049 174.915 56.2254 176.86 55.3094C177.437 55.6062 177.964 55.9916 178.422 56.4517C180.039 58.1039 181.404 59.9867 182.471 62.039C182.587 62.4943 182.686 62.933 182.76 63.3469C180.275 61.996 178.007 60.277 176.033 58.2479ZM178.926 73.9752C182.231 73.7186 185.686 76.3674 187.636 79.2728C185.364 79.4632 177.818 76.6654 178.917 73.9917L178.926 73.9752ZM182.959 93.8412C182.616 93.3256 182.339 92.7695 182.132 92.1857C182.876 90.3647 183.579 89.9011 184.256 90.7785C186.38 92.5416 187.562 95.596 188.132 98.7912C186.037 97.5877 184.26 95.8988 182.95 93.8661L182.959 93.8412ZM177.826 104.378C177.077 103.705 177.044 103.126 177.727 102.64C178 101.937 178.372 101.904 178.835 102.524C181.314 104.089 183.545 107.342 184.562 110.636C182.04 108.877 179.771 106.78 177.818 104.403L177.826 104.378ZM173.876 113.144C177.703 114.071 177.711 120.594 178.95 123.822C175.722 121.234 173.851 117.311 173.868 113.169L173.876 113.144ZM169.744 129.037C169.701 128.486 169.688 127.934 169.703 127.382C170.033 126.554 170.355 126.496 170.661 127.175C172.893 129.476 172.496 133.275 172.314 136.694C170.859 134.391 169.97 131.776 169.719 129.062L169.744 129.037ZM181.265 138.018L181.141 139.276C180.808 139.479 180.445 139.627 180.066 139.715C178.678 140.038 175.149 140.377 173.942 138.432C174.048 138.3 174.119 138.144 174.149 137.977C175.703 138.101 179.099 137.042 181.24 138.043L181.265 138.018ZM192.24 125.817C188.723 126.467 185.099 126.234 181.694 125.138C185.306 123.814 191.504 122.374 192.24 125.817Z" fill="#FEB39E"/>
<path d="M137.852 111.365C137.604 111.002 137.182 110.799 136.745 110.831C136.307 110.864 135.92 111.127 135.728 111.522C133.133 113.716 140.422 114.833 137.852 111.365Z" fill="#FEB39E"/>
<path d="M135.017 125.289C134.48 125.718 134.22 126.407 134.339 127.085C134.934 132.763 140.868 123.021 135.017 125.289Z" fill="#FEB39E"/>
<path d="M108.066 111.068C106.289 110.513 105.983 115.165 109.107 114.172C110.603 113.675 110.173 110.977 108.066 111.068Z" fill="#FEB39E"/>
<path d="M98.207 68.5117C97.9012 68.6773 97.521 68.5117 97.1904 69.7947C97.1989 69.9034 97.2154 70.0113 97.24 70.1176C97.3557 70.41 97.3722 70.4431 97.2896 70.2169C97.9921 72.6753 102.48 69.1077 98.207 68.5117Z" fill="#FEB39E"/>
<path d="M107.438 77.4031C108.735 76.9809 108.611 73.3305 106.396 74.2576C105.025 74.3983 105.264 77.9908 107.438 77.4031Z" fill="#FEB39E"/>
<path d="M126.232 66.0459C127.157 63.3888 121.975 63.1736 122.876 66.8737C123.413 68.3388 125.356 68.1981 126.141 66.2942C126.173 66.231 126.198 66.1643 126.215 66.0956C126.232 66.0851 126.239 66.0643 126.232 66.0459V66.0459Z" fill="#FEB39E"/>
<path d="M143.289 72.4446C143.083 72.1384 142.942 72.039 142.132 72.1301C141.942 72.1301 140.289 72.3122 140.62 73.7856C140.033 77.9906 146.802 75.3666 143.289 72.4446V72.4446Z" fill="#FEB39E"/>
<path d="M84.4386 76.5914C84.6908 76.9429 85.0601 77.1925 85.48 77.295C85.7692 77.4274 85.48 77.3447 86.4634 77.2453C90.6122 73.835 81.5048 72.4858 84.4386 76.5914Z" fill="#FEB39E"/>
<path d="M72.9502 67.3787C72.9518 67.5545 72.974 67.7295 73.0163 67.9002C75.3965 75.441 77.2477 61.1126 72.9502 67.3787Z" fill="#FEB39E"/>
<path d="M67.2735 74.6797C66.4966 74.8535 65.5462 75.1846 65.414 76.9477C64.1164 81.5997 72.0007 75.9379 67.2735 74.6797Z" fill="#FEB39E"/>
<path d="M59.5539 70.839C63.8515 70.2348 58.4713 63.9108 58.5787 69.4567C58.5599 70.0837 58.9576 70.6475 59.5539 70.839Z" fill="#FEB39E"/>
<path d="M54.6363 84.7036C53.5537 84.3394 51.8264 86.475 54.0165 87.071C54.6318 87.1524 55.2115 86.7624 55.3689 86.1611C55.5263 85.5598 55.2124 84.9351 54.6363 84.7036Z" fill="#FEB39E"/>
<path d="M42.9753 74.6624C42.6375 74.9902 42.5241 75.4865 42.6861 75.9288C42.6861 77.3029 45.4464 77.4933 45.1654 75.3329C45.0591 74.8719 44.7153 74.5028 44.2636 74.3645C43.8119 74.2262 43.3208 74.3398 42.9753 74.6624V74.6624Z" fill="#FEB39E"/>
<path d="M124.099 32.3809C124.347 30.9489 121.017 29.7238 121.05 32.3809C120.017 35.1621 124.67 35.3773 124.099 32.3809Z" fill="#FEB39E"/>
<path d="M70.1907 28.3165C69.935 28.7815 70.0789 29.3652 70.5212 29.6575C74.6865 33.4403 74.4717 25.08 70.1907 28.3165Z" fill="#FEB39E"/>
<path d="M69.3063 9.55222C70.9592 9.89988 72.0666 5.09892 68.7939 7.00275C67.6121 7.25935 67.6699 9.21284 69.3063 9.55222Z" fill="#FEB39E"/>
<path d="M47.4879 146.511C66.8846 136.404 55.3392 121.108 44.7772 140.154C40.959 117.449 29.0747 121.629 36.9507 139.964C32.7606 138.308 19.7854 136.098 23.8598 144.376C28.5788 148.639 35.24 147 41.1325 145.766L41.1904 145.824C23.4053 149.533 26.2648 164.035 34.7028 160.045C37.4383 157.736 38.4962 154.143 41.8515 151.768C40.4383 171.542 56.8598 171.998 49.5292 152.753C64.6697 159.755 66.4135 144.856 47.4879 146.511V146.511Z" fill="#F46487"/>
<path d="M44.6284 143.888C44.5064 143.15 43.9644 142.552 43.2428 142.359C42.5212 142.167 41.7539 142.415 41.2813 142.994C36.2317 147.182 46.9259 150.965 44.6284 143.888Z" fill="#FDE7DC"/>
<path d="M157.628 151.643C156.607 151.463 155.574 151.361 154.537 151.337C166.843 136.032 150.885 135.361 148.356 148.853C144.595 132.39 136.24 142.662 142.628 151.453C130.951 151.146 133.215 160.185 142.951 158.075C138.281 169.349 144.604 172.593 149.099 161.518C154.058 169.44 161.256 165.384 155.868 158.058C163.802 160.276 166.182 152.678 157.628 151.643V151.643Z" fill="#F46487"/>
<path d="M151.488 153.622C151.366 152.884 150.824 152.286 150.102 152.094C149.381 151.901 148.614 152.149 148.141 152.728C143.124 156.917 153.827 160.7 151.488 153.622Z" fill="#FDE7DC"/>
<path d="M168.125 115.719C165.273 113.981 161.819 115.67 158.645 117.259C163.149 105.745 153.645 103.552 152.538 116.638C146.753 108.493 138.604 114.155 147.116 119.891C138.513 122.855 144.232 128.79 150.554 125.189C146.819 135.759 155.745 136.488 156.43 126.017C161.265 138.913 171.381 127.167 159.422 122.052C162.604 122.731 171.323 120.446 168.125 115.719V115.719Z" fill="#F46487"/>
<path d="M157.38 119.427C157.259 118.689 156.716 118.091 155.995 117.898C155.273 117.706 154.506 117.954 154.033 118.533C149.025 122.722 159.719 126.504 157.38 119.427Z" fill="#FDE7DC"/>
<path d="M105.199 20.2964C104.224 17.6476 101.562 15.7355 97.8765 14.378L96.9261 13.9641C110.761 2.87224 96.9261 -7.91336 90.1823 8.16984C89.7132 8.92479 89.3174 9.72309 89.0005 10.5538C85.1989 -6.82901 71.6451 -0.206999 81.4881 13.3102C68.1162 12.5818 71.7609 25.892 82.7113 21.8857C82.2485 23.3674 81.4716 27.7296 83.265 28.9298C86.8187 34.2523 90.9344 27.7379 90.9592 23.3011C91.0748 22.5788 91.1218 21.8471 91.0997 21.1159C91.0997 20.9007 91.0997 20.6772 91.0997 20.4619C91.3685 20.7856 91.6864 21.065 92.0418 21.2897C93.6947 27.324 104.967 31.9015 105.843 23.7067C106.455 22.879 106.414 21.5877 105.199 20.2964V20.2964Z" fill="#F46487"/>
<path d="M90.6782 13.7575C90.5434 13.0391 90.01 12.4615 89.3055 12.271C88.601 12.0804 87.8498 12.3107 87.3724 12.8635C82.3228 17.0519 93.017 20.8347 90.6782 13.7575V13.7575Z" fill="#FDE7DC"/>
<path d="M23.1408 56.9736C25.2234 62.892 31.6367 53.5798 32.3557 50.7324C37.8433 64.8042 50.4631 56.6508 38.1408 47.1896C51.116 48.3898 49.4714 36.3709 38.2647 39.9882C48.3061 23.549 30.4879 26.3137 31.8102 39.9882C27.43 20.8257 15.4631 30.6263 25.0829 40.9897C11.959 41.4864 15.992 52.8597 26.9507 47.3965C24.4751 49.9644 23.1067 53.4042 23.1408 56.9736V56.9736Z" fill="#F46487"/>
<path d="M34.2397 43.2575C34.105 42.5391 33.5715 41.9615 32.867 41.771C32.1625 41.5804 31.4113 41.8107 30.9339 42.3635C25.8843 46.5519 36.5785 50.3347 34.2397 43.2575V43.2575Z" fill="#FDE7DC"/>
</svg>
