<svg width="193" height="153" viewBox="0 0 193 153" fill="none" xmlns="http://www.w3.org/2000/svg">
<path fill-rule="evenodd" clip-rule="evenodd" d="M105.6 113.367C104.504 117.569 103.122 124.438 103.234 130.98C87.309 113.136 64.07 98.5932 56.296 74.6232C50.007 48.5232 77.38 27.2842 92.439 54.8692C92.914 55.9852 93.015 58.1482 95.152 57.2352C106.901 33.4262 136.443 21.9662 137.993 39.0162C135.213 66.8432 111.544 86.4902 105.6 113.367V113.367ZM118.84 97.5642C121.734 91.2242 125.933 84.1422 129.619 77.7672C169.922 11.0762 111.748 16.6752 94.149 49.7122C66.017 11.0602 34.029 64.4452 56.924 91.6232C72.455 111.801 90.219 129.31 108.591 145.754C119.297 152.744 109.896 136.62 110.658 131.601C110.596 119.378 113.832 108.574 118.84 97.5642" fill="#FF8DA7"/>
<path fill-rule="evenodd" clip-rule="evenodd" d="M149.51 33.1787C149.224 32.4167 147.924 32.8327 148.114 33.6117C153.531 55.8027 131.993 72.0127 129.604 92.8507C129.513 93.6467 130.772 93.9287 131.034 93.1607C137.443 74.3307 157.323 53.9987 149.51 33.1787" fill="#FF8DA7"/>
<path fill-rule="evenodd" clip-rule="evenodd" d="M69.5313 116.342C60.9733 109.693 34.9213 71.2939 47.6323 95.1739C59.5273 112.381 90.9363 146.064 96.0883 143.668C86.9643 135.588 78.0993 125.362 69.5313 116.342" fill="#FF8DA7"/>
<path fill-rule="evenodd" clip-rule="evenodd" d="M104.429 148.689C99.1419 149.89 112.989 155.941 107.379 150.115C106.455 149.523 105.802 149.241 104.429 148.689Z" fill="#FF8DA7"/>
<path fill-rule="evenodd" clip-rule="evenodd" d="M145.676 26.171C148.775 24.997 142.264 20.715 139.418 20.786C137.441 22.793 143.577 24.999 145.676 26.171Z" fill="#FF8DA7"/>
<path fill-rule="evenodd" clip-rule="evenodd" d="M78.2354 28.5933C75.7874 26.1323 76.8014 18.4763 75.5964 14.9043C74.8474 14.9083 73.7494 14.6883 72.3024 15.3473C71.9564 17.9943 75.3644 26.1183 73.4674 28.4463C72.2304 29.2263 65.9224 -2.96875 70.5894 2.07625C70.5944 2.93525 70.6464 3.83725 70.7424 4.78125L71.7414 12.1183L71.8444 13.4683C71.8794 13.8063 71.9344 14.1133 72.0094 14.3883L75.4624 13.7693L74.1184 2.03225L74.0224 1.08825C76.4574 -0.510748 80.3354 28.9293 78.2354 28.5933" fill="#1D262D"/>
<path fill-rule="evenodd" clip-rule="evenodd" d="M87.1403 15.762C86.8143 13.082 85.9833 8.34002 85.8963 5.53202C85.1643 6.02302 83.6373 18.612 83.7283 19.523C84.5093 19.683 86.0923 19.992 87.6753 19.654C87.6193 19.176 87.4413 17.878 87.1403 15.762ZM89.1503 27.438C87.4653 27.981 87.9933 22.846 87.8053 21.866C87.1113 21.522 85.8373 21.243 83.5683 21.131C82.8893 22.333 83.1023 24.741 82.0563 27.353C81.1193 27.393 80.5823 27.175 80.4453 26.7C82.4483 22.325 82.3983 -1.78898 87.0463 0.715017C87.1783 6.85902 92.2893 26.126 89.1503 27.438" fill="#1D262D"/>
<path fill-rule="evenodd" clip-rule="evenodd" d="M94.4222 13.1616C96.2632 11.4646 97.1932 9.43856 97.2112 7.08256V7.06556C97.2212 5.71756 97.0642 4.77356 96.7402 4.23156C96.2992 3.44256 95.8672 3.06156 94.0872 1.76756C94.0392 3.70856 94.4452 10.4866 94.4222 13.1616V13.1616ZM92.6342 26.3846C92.7672 19.8276 93.3402 6.00956 92.0742 0.680564C99.0482 -3.38144 101.962 11.9426 94.4972 14.9026L94.6932 26.1196C94.8542 27.0856 92.9342 28.7946 92.6342 26.3846Z" fill="#1D262D"/>
<path fill-rule="evenodd" clip-rule="evenodd" d="M103.423 13.3475C105.602 11.5975 107.271 7.66049 106.091 4.51549C105.681 3.71049 105.265 3.31249 103.537 1.95049C103.413 3.88749 103.552 10.6765 103.423 13.3475ZM101.115 26.4905C101.506 19.9425 102.624 6.15949 101.569 0.783487C108.698 -3.00051 111.005 12.4275 103.429 15.0905L103.182 26.3055C103.305 27.2785 101.319 28.9105 101.115 26.4905" fill="#1D262D"/>
<path fill-rule="evenodd" clip-rule="evenodd" d="M111.706 27.7387L112.529 20.8237C114.039 17.4757 108.936 1.72066 111.871 0.847656C113.464 2.62666 113.161 6.82866 113.802 10.6147C113.77 10.1107 116.164 -2.58034 117.663 2.68666C117.278 5.47666 115.102 11.1817 114.91 13.8617L114.689 15.0937L114.638 15.6367L113.942 25.1577L113.898 26.9547C114.241 27.6637 112.585 30.1177 111.706 27.7387" fill="#1D262D"/>
<path fill-rule="evenodd" clip-rule="evenodd" d="M61.7838 73.1117C61.7698 69.5187 61.6188 60.9507 61.7238 57.3107L62.5758 56.8337C64.7738 58.4737 66.0308 69.0747 66.8168 72.1557C67.6718 68.2327 69.2428 61.7957 69.4748 57.3857V57.2067C72.2338 50.7237 73.0618 87.9027 69.9548 79.6377C69.9468 78.4037 69.8118 65.7007 69.8338 65.2117C69.6148 66.5727 68.2498 71.6497 67.9518 73.8587V74.0527C67.8488 74.3887 67.9438 74.8337 67.5338 76.0087C65.0398 79.7367 64.7968 64.8357 63.2478 62.5387C63.2078 64.1717 63.1878 65.4007 63.1878 66.2267L63.4418 78.8017C63.4418 79.2397 63.2878 79.6237 62.9788 79.9517C62.2448 79.8717 61.6668 79.6217 61.6348 78.0697L61.7838 73.1117Z" fill="#1D262D"/>
<path fill-rule="evenodd" clip-rule="evenodd" d="M78.8312 59.6184C77.2502 55.8634 75.0742 59.5514 75.1942 63.4934C75.1362 64.3774 75.1042 65.4714 75.0752 67.1824C76.6972 91.6774 83.1202 72.8934 78.8312 59.6184ZM81.5422 70.8114L81.2722 74.6804V74.8134C80.1592 86.6444 72.5182 79.9954 73.6562 65.4954C72.7172 51.8524 82.9392 53.4224 81.5422 70.8114Z" fill="#1D262D"/>
<path fill-rule="evenodd" clip-rule="evenodd" d="M86.5444 62.284L86.4844 66.226C86.5944 69.302 86.8504 75.657 87.0074 78.757C87.0904 80.037 85.4514 81.378 85.1414 78.712L85.3794 73.828C85.0504 69.839 85.2144 63.071 84.7224 58.774L83.0654 58.938C78.4134 57.566 91.9444 55.234 87.7384 58.565L86.6484 58.506C86.5094 58.506 86.4044 58.511 86.3354 58.52C86.4754 59.695 86.5444 60.95 86.5444 62.284" fill="#1D262D"/>
<path fill-rule="evenodd" clip-rule="evenodd" d="M95.6693 80.5041C93.8173 78.2661 95.3313 71.8771 94.6233 68.7061C93.5863 68.6841 93.8443 68.2921 91.8013 68.7951C91.2653 70.8651 93.4593 77.9951 91.6513 79.9671C90.5213 80.1961 87.9793 53.0831 91.5023 57.4301C91.4333 58.1571 91.3983 58.9241 91.3983 59.7311L91.6073 66.0181L91.5773 67.1671C91.5773 67.4561 91.5973 67.7201 91.6373 67.9591L94.6083 67.7351C94.6073 66.9921 94.4753 57.8211 94.4893 56.8931C96.6413 55.7581 97.4473 80.6991 95.6693 80.5041Z" fill="#1D262D"/>
<path fill-rule="evenodd" clip-rule="evenodd" d="M101.837 68.8399L101.075 68.8109C100.776 68.8109 100.567 68.8849 100.448 69.0339V78.4729C101.456 78.4899 103.586 77.9599 103.898 79.2939C103.51 80.1169 100.486 80.8039 98.9247 79.7729C98.5127 76.5229 99.2177 61.2849 98.3867 58.2219C98.7257 57.6639 98.9797 57.3059 99.1487 57.1469L101.419 56.8779C102.042 56.5649 104.013 58.6309 101.434 58.7889L100.553 58.7599C100.403 58.7599 100.293 58.7649 100.224 58.7749L100.463 63.8219C100.474 64.3339 100.347 65.9159 100.314 67.3169C100.923 66.6669 104.19 67.4929 101.837 68.8399" fill="#1D262D"/>
<path fill-rule="evenodd" clip-rule="evenodd" d="M107.139 58.1909L106.975 64.4339C106.975 65.0609 106.985 65.5289 107.004 65.8369C107.353 65.5089 107.697 65.1159 108.035 64.6579L108.513 62.0139C108.642 61.3969 108.396 58.7389 107.139 58.1909ZM105.452 79.1439C105.451 79.1829 105.557 63.3009 105.57 61.3779C106.27 60.4909 103.351 54.0889 108.886 57.9079C110.26 59.7329 110.723 62.0629 109.484 65.2859C109.447 65.3769 109.344 65.6119 108.812 66.9579C108.765 69.7699 110.709 75.1449 111.963 78.9059C112.072 79.9199 111.451 81.2179 110.111 79.5329V79.4279C110.191 77.4879 108.085 70.6469 107.079 67.2119C106.638 67.6249 108.402 84.7089 105.452 79.1439Z" fill="#1D262D"/>
<path fill-rule="evenodd" clip-rule="evenodd" d="M113.814 63.8973C113.2 64.0273 114.286 55.9923 116.483 56.7923C116.859 58.7543 116.091 62.4923 113.814 63.8973Z" fill="#1D262D"/>
<path fill-rule="evenodd" clip-rule="evenodd" d="M118.25 79.6837C124.778 78.4727 123.921 73.2747 119.603 65.3827C117.69 62.2927 118.592 53.6337 123.836 57.6407L123.312 58.2967C122.805 58.2967 122.407 58.1987 122.118 57.9987C117.192 60.6687 124.057 68.0557 124.735 73.5547C125.582 76.7107 122.621 83.4407 118.25 79.6837Z" fill="#1D262D"/>
<path fill-rule="evenodd" clip-rule="evenodd" d="M83.7238 106.411V109.339C88.3448 106.763 90.4948 90.1335 82.9918 89.6995C82.9308 92.7095 83.7588 102.878 83.7238 106.411ZM89.3538 99.7805L89.4288 100.423C89.4538 103.157 86.0408 114.392 81.5878 110.07C83.1048 107.555 81.5728 99.9655 81.6928 96.3755L81.7828 93.0305C79.1678 82.1095 91.7778 89.6045 89.4288 99.4975C89.3788 99.5865 89.3538 99.6815 89.3538 99.7805" fill="#1D262D"/>
<path fill-rule="evenodd" clip-rule="evenodd" d="M95.9393 101.042C95.7823 98.9874 95.2183 94.6383 95.2523 92.3133C94.6303 92.6693 92.8913 103.141 92.9083 104.111C93.5643 104.276 94.8973 104.595 96.2523 104.365C96.2233 103.957 96.1193 102.85 95.9393 101.042V101.042ZM97.2233 111.026C95.7713 111.417 96.4093 107.125 96.2833 106.247C95.7063 105.93 94.6353 105.647 92.7133 105.471C92.0743 106.543 92.1463 108.688 91.2053 110.697C90.4093 110.697 89.9603 110.493 89.8613 110.085C91.9593 106.267 92.0613 86.7984 96.4023 88.2664C96.1023 94.1904 99.9833 106.034 97.2233 111.026" fill="#1D262D"/>
<path fill-rule="evenodd" clip-rule="evenodd" d="M101.867 110.668L102.016 104.754C103.054 103.815 96.3553 82.2131 100.793 89.4081C101.396 91.3231 101.708 93.4091 102.285 96.0171C103.974 81.6501 105.752 89.6511 103.48 98.6751L103.39 99.7351V100.198L103.554 108.308L103.659 109.831C104.006 110.404 102.8 112.61 101.867 110.668Z" fill="#1D262D"/>
<path fill-rule="evenodd" clip-rule="evenodd" d="M52.2866 118.97C55.2506 115.013 51.2476 104.713 44.7396 108.221C44.8386 99.0355 36.8386 95.8055 32.7676 103.96C28.3966 93.2935 16.1146 105.994 22.9206 112.41C9.69056 116.231 13.5856 133.894 27.3816 128.359C29.1666 137.243 39.0336 138.693 41.3386 130.631C48.5656 134.877 55.7096 128.21 50.4846 121.287C51.2356 120.624 51.8416 119.831 52.2866 118.97" fill="#FF4D54"/>
<path fill-rule="evenodd" clip-rule="evenodd" d="M38.491 115.155C42.32 109.349 39.215 105.725 34.244 112.02C33.871 111.336 33.899 110.579 33.025 109.185C30.203 106.511 28.989 112.604 30.35 115.229C24.22 115.167 22.878 120.137 30.014 120.014C27.651 124.733 33.302 131.053 33.939 122.923C34.49 123.474 35.114 123.898 35.827 124.119C37.824 130.196 42.366 125.442 39.397 120.698C46.304 122.114 44.841 115.697 38.491 115.155" fill="white"/>
<path fill-rule="evenodd" clip-rule="evenodd" d="M34.5119 116.041C31.0729 116.031 30.1939 121.751 34.5119 122.182C37.9509 122.192 38.8299 116.471 34.5119 116.041Z" fill="#FFC711"/>
<path fill-rule="evenodd" clip-rule="evenodd" d="M40.5991 85.6279C41.0421 81.7119 37.3721 80.2069 33.4431 78.8449C41.3011 74.9909 40.0381 66.0399 30.8681 70.7999C31.1771 61.4329 21.6211 63.9339 21.2011 71.4389C12.1461 67.8599 9.8931 78.0599 16.9731 82.0089C11.4111 86.1329 14.1501 94.8789 21.2331 89.9399C22.4841 98.8399 34.2521 96.3549 34.3171 88.1679C36.6671 88.4199 39.8161 88.3509 40.5991 85.6279" fill="#FF4D54"/>
<path fill-rule="evenodd" clip-rule="evenodd" d="M28.749 82.952C28.682 82.411 28.538 81.868 28.36 81.326C31.633 82.635 34.414 78.514 28.489 77.681C29.706 76.05 27.706 72.274 25.714 75.624C24.865 74.055 21.84 74.735 23.874 77.572C22.148 77.401 18.364 80.821 22.796 80.842C21.304 82.266 20.849 88.702 24.696 85.408C25.229 84.79 25.617 84.042 25.967 83.27C26.385 84.253 28.509 85.154 28.749 82.952" fill="white"/>
<path fill-rule="evenodd" clip-rule="evenodd" d="M27.9151 78.0121C26.2151 76.1771 23.3701 78.8131 25.0691 80.6481C26.7691 82.4831 29.6151 79.8471 27.9151 78.0121Z" fill="#FFC711"/>
<path fill-rule="evenodd" clip-rule="evenodd" d="M156.813 60.55C151.8 59.663 144.723 68.11 150.7 72.174C142.521 76.312 143.211 84.872 152.379 84.77C144.853 93.564 161.831 98.657 164.395 89.669C173.889 99.756 187.716 88.086 176.543 78.414C183.559 72.763 180.463 63.337 172.188 64.961C172.724 56.388 163.32 53.49 159.697 61.094C158.764 60.729 157.783 60.552 156.813 60.55" fill="#FF4D54"/>
<path fill-rule="evenodd" clip-rule="evenodd" d="M159.724 74.5655C152.809 73.8125 151.005 78.2305 158.875 79.7755C158.438 80.4205 157.751 80.7415 156.911 82.1555C155.819 85.8355 161.701 84.2395 163.509 81.7735C166.234 87.2385 171.276 86.1285 167.919 79.8855C173.433 79.7595 176.029 71.9555 168.713 75.0655C168.953 74.3245 169.044 73.5755 168.915 72.8395C173.451 68.1945 166.896 66.5365 164.241 71.2275C162.345 64.4365 157.306 68.6695 159.724 74.5655" fill="white"/>
<path fill-rule="evenodd" clip-rule="evenodd" d="M162.329 77.7001C163.891 80.7641 169.381 78.9321 167.79 74.8941C166.229 71.8311 160.739 73.6631 162.329 77.7001Z" fill="#FFC711"/>
<path fill-rule="evenodd" clip-rule="evenodd" d="M137.821 93.1484C134.062 94.5834 134.508 98.4904 135.057 102.612C128 97.3524 120.708 102.649 129.077 108.579C120.88 112.304 126.97 120.04 134.062 116.886C135.034 126.532 145.112 124.021 145.397 115.817C151.609 118.899 158.093 112.426 150.504 108.404C157.851 103.225 150.262 93.8934 142.95 97.5754C142.101 95.3694 140.601 92.6004 137.821 93.1484" fill="#FF4D54"/>
<path fill-rule="evenodd" clip-rule="evenodd" d="M140.855 104.913C140.404 105.22 139.986 105.596 139.586 106.002C138.924 101.834 134.419 102.41 136.285 107.552C134.309 107.22 131.849 110.657 135.724 110.961C134.714 112.433 136.702 114.813 138.296 111.707C138.724 113.135 143.764 115.153 141.697 111.172C143.646 111.849 149.579 109.313 144.891 107.396C144.098 107.205 143.255 107.201 142.409 107.242C143.093 106.421 142.923 104.121 140.855 104.913" fill="white"/>
<path fill-rule="evenodd" clip-rule="evenodd" d="M136.84 107.911C135.985 110.261 139.629 111.588 140.485 109.238C141.34 106.887 137.696 105.56 136.84 107.911Z" fill="#FFC711"/>
<path fill-rule="evenodd" clip-rule="evenodd" d="M42.5533 48.3927C40.2063 43.5167 31.5533 52.2887 31.4973 55.5777C30.1803 58.6577 31.4013 70.3937 35.9663 67.9267C41.8203 65.5867 42.5533 53.5967 42.5533 48.3927" fill="#6FC8A6"/>
<path fill-rule="evenodd" clip-rule="evenodd" d="M36.9065 53.2812C34.9825 55.3133 31.0805 68.5483 35.0375 66.5253C35.5075 63.4493 38.8285 54.9892 36.9065 53.2812" fill="#5E9F7E"/>
<path fill-rule="evenodd" clip-rule="evenodd" d="M13.8022 100.843C10.5302 98.2821 3.67618 97.1531 0.744177 101.044C-3.63182 106.168 12.5362 114.913 16.8592 111.889C21.5932 110.07 16.4452 102.657 13.8022 100.843" fill="#6FC8A6"/>
<path fill-rule="evenodd" clip-rule="evenodd" d="M19.6887 110.086C18.4657 106.777 3.73073 99.8862 3.99973 103.374C7.17673 104.784 19.4207 112.29 19.6887 110.086Z" fill="#5E9F7E"/>
<path fill-rule="evenodd" clip-rule="evenodd" d="M169.079 36.9902C160.378 38.0702 163.223 53.7242 171.132 55.8462C176.056 51.6712 176.626 40.0542 169.079 36.9902Z" fill="#6FC8A6"/>
<path fill-rule="evenodd" clip-rule="evenodd" d="M168.661 40.1406C166.733 40.3366 167.768 46.7936 168.07 49.4266C172.452 64.6616 170.824 43.8526 168.661 40.1406Z" fill="#5E9F7E"/>
<path fill-rule="evenodd" clip-rule="evenodd" d="M190.534 43.9143C186.079 45.6993 179.412 46.7063 177.278 51.9213C176.18 55.6923 175.449 63.2013 178.764 63.4393C185.476 69.0523 197.146 43.2153 190.534 43.9143Z" fill="#6FC8A6"/>
<path fill-rule="evenodd" clip-rule="evenodd" d="M189.55 47.8496C185.133 48.1056 174.022 61.4646 179.4 62.5756C181.883 57.8676 188.817 51.9466 189.55 47.8496Z" fill="#5E9F7E"/>
</svg>
