<svg width="214" height="76" viewBox="0 0 214 76" fill="none" xmlns="http://www.w3.org/2000/svg">
<path d="M49.8104 22.7697C46.8104 21.4697 41.2504 25.5397 38.0304 28.4697C37.5504 25.6497 41.5304 21.7197 41.3204 16.5197C36.5304 0.089674 5.47039 53.6797 3.77039 56.7497C8.50039 39.9997 20.1204 23.3397 26.5704 5.18967C27.0004 -10.4303 4.62039 13.5797 4.32039 19.9997C9.74039 16.5597 14.0004 2.56967 23.3404 1.99967C23.0604 8.70967 -14.2896 75.4097 6.08039 55.8797C15.0804 38.6697 51.5504 -10.8703 31.5604 33.4097C27.3804 35.8497 9.79039 62.0497 27.3304 49.9997C34.4404 40.9297 34.7104 27.7097 48.0004 24.0897C48.046 24.1295 48.0686 24.1896 48.0604 24.2497C42.6504 31.1397 29.5104 67.6097 39.8204 63.9997C37.3704 44.8097 52.4304 35.0697 49.8104 22.7697V22.7697ZM30.3004 37.2397C21.2204 58.0497 15.8204 52.4697 30.3004 36.9697C30.3004 36.9997 30.3604 37.1297 30.3004 37.2397Z" fill="black"/>
<path d="M213.371 32.309C209.261 37.789 203.511 45.309 196.651 49.409C195.851 41.409 191.201 32.589 195.651 23.599C192.711 21.359 190.881 30.879 190.651 34.099C189.061 37.739 165.891 63.849 168.651 50.899C170.831 44.229 175.221 37.779 167.451 32.799C186.001 2.86897 157.111 18.599 164.301 36.679C131.101 70.449 137.361 41.679 147.211 40.089C148.991 38.659 153.911 36.739 154.501 32.359C152.461 21.499 137.831 37.999 136.401 43.999C134.861 45.939 123.001 57.789 124.081 49.409C142.351 2.99897 91.1806 80.619 110.271 37.679C117.881 38.879 139.451 -2.56103 120.081 9.26897C99.0806 52.529 74.3206 73.269 95.0806 20.639C96.4706 20.889 102.271 17.809 95.6306 18.719C108.541 -4.51103 96.8206 0.718973 91.5706 19.539C87.3006 18.689 81.0006 22.359 90.8606 21.239C89.3606 24.889 87.9906 28.589 86.7306 32.309C81.7862 38.4252 75.591 43.4134 68.5606 46.939C83.3306 21.469 54.7506 39.309 65.2706 48.939C40.8806 74.249 67.1406 19.559 70.5306 31.839C71.0006 31.609 72.0806 31.779 71.6506 29.319C60.0706 15.699 25.2106 91.539 85.5106 35.999C75.5106 63.559 95.6606 53.999 105.511 39.119C94.1506 69.449 116.361 43.759 124.271 37.319C115.961 55.469 120.521 59.809 135.361 47.549C135.2 48.4024 135.136 49.2712 135.171 50.139C138.511 64.299 161.171 42.729 165.341 37.919C166.881 39.399 168.231 39.919 166.031 44.269C157.031 71.829 185.911 45.659 190.631 36.919C191.241 52.019 195.491 49.349 183.261 60.259C176.211 77.989 198.411 64.099 196.261 53.159C198.361 47.999 215.391 38.809 213.371 32.309V32.309ZM170.671 38.389L170.611 38.449L170.561 38.389H170.671ZM111.471 34.779C111.471 34.719 111.531 34.669 111.531 34.609C115.531 27.369 118.531 17.229 124.531 10.219C124.781 9.84897 124.531 10.119 125.241 9.44897C125.276 9.46045 125.315 9.46045 125.351 9.44897C129.451 14.669 115.811 32.669 111.161 36.309C111.101 36.309 111.051 36.359 110.991 36.419C111.145 36.0043 111.272 35.5801 111.371 35.149C111.311 34.999 111.361 34.889 111.471 34.779V34.779ZM97.1706 10.999V11.109L97.0606 10.999C97.0964 10.9875 97.1349 10.9875 97.1706 10.999ZM65.4906 46.889C62.5606 46.229 68.0006 32.579 71.3006 36.139C70.6806 38.249 69.3006 45.999 65.4906 46.889ZM148.001 33.789C149.001 32.979 148.951 31.709 151.891 30.389C151.92 30.4197 151.959 30.4406 152.001 30.449C154.881 33.309 148.871 37.919 144.111 39.929C144.014 40.0356 143.875 40.0941 143.731 40.089C144.931 37.8464 146.362 35.735 148.001 33.789V33.789ZM166.471 26.609C167.591 23.729 167.791 19.099 171.631 17.509C172.571 20.589 169.521 28.659 166.531 31.209C166.07 29.7116 166.06 28.1122 166.501 26.609H166.471ZM191.191 56.859C186.971 74.169 175.701 64.759 191.471 54.729C191.277 55.4217 191.193 56.1403 191.221 56.859H191.191ZM192.841 57.859V58.129L192.781 58.239C192.711 58.389 192.931 58.369 192.561 58.849C192.671 58.349 192.841 57.849 192.891 57.369H193.001C192.921 57.519 192.921 57.689 192.871 57.849L192.841 57.859Z" fill="black"/>
<path d="M46.1201 12.1405C47.5401 13.3805 48.3901 1.72055 46.1201 3.05055V2.81055H49.3001V3.05055C47.6701 2.44055 48.3601 5.97055 48.2301 7.17055H52.4901C52.0801 6.43055 53.4901 2.68055 51.4201 3.05055V2.81055H54.6201V3.05055C53.1801 1.79055 52.3101 13.4705 54.6201 12.1405V12.3805H51.4201V12.1405C53.1301 12.8305 52.3201 8.62055 52.4901 7.53055H48.2301C48.6601 8.32055 47.1501 12.5305 49.3001 12.1405V12.3805H46.1201V12.1405Z" fill="black"/>
<path d="M55 12.1395C55.84 13.0295 58.5 3.13945 58.78 2.68945H59.65C59.85 3.49945 61.82 12.4695 63.15 12.1395V12.3795H60.54V12.1395H61.68C61.19 11.7995 61.1 11.0295 60.68 9.80945H56.8C56.86 10.2595 55.18 12.4695 57.33 12.1695V12.4095H55V12.1395ZM60.6 9.41945C60.48 8.84945 58.93 4.58945 58.86 3.73945H58.77C58.77 3.92945 57.2 8.60945 56.95 9.41945H60.6Z" fill="black"/>
<path d="M63.46 12.1391C64.89 13.3791 65.74 1.71908 63.46 3.04908V2.80908C71.63 0.999076 74.94 9.29908 65.58 9.17908C65.85 9.54908 64.74 12.6391 66.76 12.1791V12.4191H63.46V12.1391ZM65.35 3.13908C65.75 3.29908 65.53 7.97908 65.58 8.79908C71.47 9.99908 72 2.13908 65.29 3.16908L65.35 3.13908Z" fill="black"/>
<path d="M71.8506 12.1391C73.2706 13.3791 74.1206 1.71908 71.8506 3.04908V2.80908C80.0006 0.999076 83.3206 9.29908 74.0006 9.17908C74.2806 9.54908 73.1606 12.6391 75.1906 12.1791V12.4191H71.8906L71.8506 12.1391ZM73.7306 3.13908C74.1306 3.29908 73.9106 7.97908 73.9606 8.79908C79.8606 9.95908 80.3706 2.09908 73.6706 3.12908L73.7306 3.13908Z" fill="black"/>
<path d="M82.0009 12.1405C83.5009 12.6005 83.2109 10.4205 83.1909 8.93055C82.4009 8.17055 80.9709 2.93055 79.3809 3.05055V2.81055H81.7909V3.05055H81.0009C81.4509 3.34055 83.5409 7.44055 83.9309 8.35055C83.5409 7.67055 88.3209 2.78055 85.2909 3.03055V2.81055H87.7309V3.05055C86.7309 2.48055 84.6409 8.05055 84.0909 8.73055C84.4309 9.23055 83.0909 12.6605 85.2809 12.1405V12.3805H82.0009V12.1405Z" fill="black"/>
<path d="M85 75.1297C86.71 76.6397 87.69 62.6997 85 64.2997V63.9997C98.42 61.8497 97.13 77.7197 85 75.3997V75.1297ZM89.11 74.9997C95.3 74.4997 94.41 62.7997 87.21 64.4597C87.55 65.1997 87.79 74.0697 87.21 74.9697L89.11 74.9997Z" fill="black"/>
<path d="M102.591 75.13C103.381 76.68 107.081 63.65 107.091 63.88H108.091C108.331 64.88 110.661 75.46 112.261 75.13V75.42H109.201V75.13H110.571C109.981 74.72 109.871 73.81 109.381 72.36H104.751C104.831 72.89 102.821 75.52 105.381 75.16V75.45H102.561L102.591 75.13ZM109.271 71.9C109.031 70.96 107.271 66 107.191 65.13H107.081C107.081 65.26 105.081 71.21 104.911 71.9H109.271Z" fill="black"/>
<path d="M122.36 75.13C124.15 75.68 123.8 73.13 123.77 71.31C122.83 70.38 121.11 64.15 119.24 64.31V64H122.11V64.28H121.11C121.61 64.54 124.28 69.81 124.6 70.59H124.66C124.25 69.66 129.93 63.87 126.28 64.25V64H129.18V64.28C128.18 63.48 125.31 70.55 124.85 71.05C125.31 72.05 123.62 75.56 126.26 75.11V75.4H122.26L122.36 75.13Z" fill="black"/>
<path d="M45.0205 69.8301H83.8205V70.8301H45.0205V69.8301Z" fill="black"/>
<path d="M128.11 69.8301H166.91V70.8301H128.11V69.8301Z" fill="black"/>
<path d="M200.831 37.4406C204.441 37.0106 214.901 17.2106 204.261 27.0906C197.861 14.5806 198.911 36.5606 200.831 37.4406Z" fill="#EC8B9A"/>
<path d="M186.681 17.1803C186.331 14.9703 184.511 15.5903 183.401 16.6903C175.691 8.72033 183.001 38.3903 186.681 17.1803Z" fill="black"/>
</svg>
