<svg width="202" height="92" viewBox="0 0 202 92" fill="none" xmlns="http://www.w3.org/2000/svg">
<path d="M47.1696 54.1803C43.1696 54.4203 53.6196 31.1803 53.6896 25.8203C52.4596 23.4303 34.7396 59.7503 34.1796 45.4703H34.2496C34.0196 39.4003 36.0696 32.6703 35.0396 25.4703C31.5996 27.7903 21.7396 61.0003 5.08958 53.1403C-8.92042 46.3203 18.6396 17.0003 17.7996 38.3403C17.1396 39.2403 15.1296 39.6603 14.9196 37.0803C13.7896 27.1903 -4.85042 51.8903 11.6096 50.7603C21.2696 52.7603 35.6796 5.00029 39.8996 12.4603C40.8996 19.9303 36.8996 31.3403 39.1096 39.2403C55.5796 15.4103 76.2096 -16.3897 47.1696 54.1803V54.1803Z" fill="black"/>
<path d="M78.4791 33.4009C77.3991 36.6209 77.6391 43.0009 72.5391 47.0009C42.2391 61.1609 72.8291 1.55093 78.4791 33.4009ZM74.0791 29.1709C67.2191 24.8909 62.4991 36.5809 63.6091 43.8909C69.1391 51.2009 77.6891 35.7009 74.0791 29.1709V29.1709Z" fill="black"/>
<path d="M97.5897 25.9301C98.2297 29.0901 93.3197 27.3101 91.3497 29.9301C90.0097 29.6601 87.3497 54.9301 83.0197 46.7601C81.9097 43.6201 92.3597 28.0801 83.2097 27.6601C79.8797 24.2701 93.5597 23.0001 97.5897 25.9301V25.9301Z" fill="black"/>
<path d="M101.23 48.0003C95.3297 53.7203 104.1 16.0903 107.54 26.3503C107.33 27.5303 102.22 41.0403 114.14 33.4303C115.03 32.2503 116.23 19.8403 119.95 26.2503C119.1 28.9703 111.12 66.0503 111.36 39.1203C103.58 38.1603 105.12 39.2103 101.23 48.0003Z" fill="black"/>
<path d="M123.719 48.4109C118.909 48.6409 124.549 37.5909 125.809 30.7409C127.129 24.6409 127.389 23.5809 135.539 24.3709C136.969 24.4609 142.059 23.8409 139.539 27.4709C137.299 29.2109 129.889 24.2709 128.959 33.6009C129.009 34.4009 128.649 35.3209 131.499 35.0009C133.779 33.7809 138.689 38.4509 132.799 38.9409C131.579 39.1609 127.659 37.9409 126.659 41.3109C125.219 46.3109 129.009 43.0409 134.389 45.3109C136.159 49.8609 129.599 48.0009 123.719 48.4109V48.4109Z" fill="black"/>
<path d="M158.839 26.9297C161.899 32.4297 157.839 36.0597 153.389 41.6097C153.129 43.6097 157.789 50.3597 151.609 47.7097C145.169 33.1897 148.389 49.3697 141.279 47.4897C142.689 40.2597 144.999 14.8997 158.839 26.9297V26.9297ZM155.309 29.3997C151.639 23.6397 144.819 34.9697 149.199 37.9097C152.299 37.9997 157.909 33.9097 155.309 29.3997Z" fill="black"/>
<path d="M185.23 14.17C189 15.4299 187 31.0499 183 23.8099C183.83 21.8599 185 18.9699 182.42 16.7299C171.91 14.8399 176.17 28.49 182.75 34.32C200.11 62.6999 146 67.0699 166 39.8499C170 34.7599 182 40.22 176 46.56C171.62 36 160 45.45 167.82 53.82C175.65 58.5199 187.69 47.72 180.17 37.25C172.27 31.2 166.65 7.45995 185.23 14.17V14.17Z" fill="black"/>
<path d="M101.7 10.4107H101.76C101.82 10.4107 101.76 10.6107 101.76 10.6807C101.76 10.7507 101.69 10.7807 101.69 10.8107C101.69 11.0907 99.7798 13.8107 98.8298 16.3507V16.5507C98.6607 16.9875 98.2815 17.3086 97.8228 17.4036C97.3641 17.4986 96.8886 17.3544 96.5598 17.0207V16.9207C96.6617 16.4697 96.6617 16.0017 96.5598 15.5507C96.6398 15.4607 96.6398 15.4907 96.5598 15.2507C96.5271 14.7496 96.5506 14.2465 96.6298 13.7507C96.5698 13.4507 96.8399 13.3807 96.7299 12.7507C96.7235 12.7278 96.7235 12.7036 96.7299 12.6807C96.8199 12.4507 96.8198 12.5207 96.8898 11.6807C97.0182 10.9454 97.1987 10.2203 97.4298 9.51066C97.5947 8.82148 97.6952 8.11845 97.7299 7.41066C97.6699 7.35066 97.7298 7.29066 97.5898 7.31066C96.8898 7.80066 96.8698 7.73066 95.7898 9.44066C95.7898 9.64066 95.7898 9.44066 95.4898 10.0707C95.5598 10.5407 94.9298 11.1607 94.8898 12.3107C94.6053 13.0418 94.5023 13.831 94.5898 14.6107C94.6066 14.6218 94.6167 14.6406 94.6167 14.6607C94.6167 14.6808 94.6066 14.6995 94.5898 14.7107C94.3098 15.5007 92.3198 16.4007 92.1898 14.5107C92.1748 14.3109 92.1748 14.1104 92.1898 13.9107C92.1298 13.9107 92.2498 13.7607 92.1898 13.5807L92.0898 13.4807V12.8107V12.7407V12.4407C92.0898 12.4407 92.0898 12.5307 92.1898 12.4407C92.2898 12.3507 92.1898 12.4407 92.1898 12.1007C92.1898 12.0307 92.1298 12.1007 92.1898 11.8707C92.2498 11.6407 92.0498 11.8207 92.1898 11.7007C92.1298 11.7007 92.0898 11.5707 92.1898 11.2607V11.0607C92.1298 10.9307 92.2498 10.9707 92.1898 10.7307C92.1056 10.3329 92.1659 9.91804 92.3598 9.56066C92.3777 9.32767 92.3777 9.09365 92.3598 8.86066C92.3598 8.86066 92.3598 8.86066 92.3598 8.80066C92.3598 8.74066 92.3598 8.70066 92.4298 8.66066C92.436 8.05176 92.5234 7.44641 92.6898 6.86066C92.6898 6.86066 92.6898 6.86066 92.6898 6.79066C92.672 6.75972 92.672 6.7216 92.6898 6.69066C92.8185 6.06107 92.9855 5.43992 93.1898 4.83066V4.77066C93.1898 4.77066 93.0498 4.68066 93.2598 4.57066V4.50066C93.2453 4.46892 93.2453 4.43241 93.2598 4.40066C93.2598 4.40066 93.2598 4.34066 93.3198 4.34066C93.2876 4.30411 93.2667 4.25892 93.2598 4.21066C93.5796 2.86851 94.0249 1.55941 94.5898 0.300662V0.170662C94.6126 0.16304 94.6371 0.16304 94.6599 0.170662C94.7899 0.0206619 95.5898 -0.119338 95.2598 0.440662C95.1598 0.990662 94.9298 1.44066 94.6898 2.91066C94.4998 3.04066 94.6898 3.38066 94.4598 3.84066C94.4484 3.88663 94.4484 3.9347 94.4598 3.98066V4.08066C94.4598 4.12066 94.3798 4.08066 94.4598 4.34066C94.3542 4.69738 94.3069 5.06885 94.3198 5.44066C94.3198 5.51066 94.2198 5.54066 94.1898 5.61066C94.1598 5.68066 94.1898 5.61066 94.1898 5.68066C94.2898 6.52066 94.0799 6.88066 94.0499 8.78066C94.0499 8.85066 94.0498 8.86066 93.9898 9.05066C94.1598 9.53066 93.9298 10.5807 94.2898 11.3107C94.1798 10.6407 98.7298 3.52066 99.5898 8.01066L99.4598 8.21066C99.4898 8.94066 98.9998 9.72066 98.9998 11.0007C98.8528 11.3385 98.7746 11.7022 98.7698 12.0707C98.7698 12.2707 98.7698 12.1407 98.6398 12.9007C98.5073 13.6396 98.4503 14.3902 98.4698 15.1407C98.4698 15.2007 98.4698 15.3007 98.5398 15.3407C99.6198 14.4207 99.9098 12.3407 101.7 10.4107V10.4107ZM97.5898 9.47066C97.5898 9.47066 97.5898 9.41066 97.5898 9.37066C97.5898 9.33066 97.5898 9.37066 97.4898 9.44066L97.5598 9.51066L97.5898 9.47066V9.47066Z" fill="#EC8B9A"/>
<path d="M110.3 11.6106V11.7406C109.723 12.7064 109.208 13.7085 108.76 14.7406V14.9106C108.25 15.3306 107.55 17.7706 105.69 17.3806C105.38 17.5006 105.09 16.8006 104.79 16.4406C105 16.0906 104.95 16.3406 104.72 15.5706C104.72 15.5706 104.72 15.5106 104.72 15.4706C104.72 15.4306 104.88 15.2506 104.66 15.1406V15.0006C104.94 14.6106 104.66 14.5306 104.99 13.4606C105.021 13.4117 105.021 13.3494 104.99 13.3006C104.99 13.3006 105.06 13.2306 105.06 13.2006C105.074 13.1549 105.074 13.1062 105.06 13.0606C105.06 13.0606 105.06 13.0006 105.06 12.9606V12.9006C105.171 12.7521 105.25 12.5816 105.29 12.4006C105.29 12.4006 105.2 12.4006 105.22 12.2606C105.24 12.1206 105.14 12.1306 105.46 11.5306C105.4 10.9406 105.96 10.1606 106.26 8.83056C106.329 8.59943 106.42 8.37515 106.53 8.16056C105.573 9.18848 104.672 10.2667 103.83 11.3906C103.418 11.8737 102.906 12.2625 102.33 12.5306C101.97 12.5806 101.73 12.8006 101.33 11.9006C101.43 11.7606 101.43 11.9006 101.47 11.5306C101.47 11.5306 101.47 11.4706 101.4 11.4706C101.377 11.4629 101.353 11.4629 101.33 11.4706C101.33 11.4706 101.33 11.4206 101.33 11.4106C101.379 11.3194 101.468 11.2565 101.57 11.2406V11.1706C101.57 11.1106 101.66 11.1706 101.57 10.9406C101.551 10.9467 101.53 10.9467 101.51 10.9406L101.41 11.1406C101.41 11.1406 101.41 11.1406 101.41 11.0706C101.387 11.0782 101.363 11.0782 101.34 11.0706C101.317 11.0629 101.34 10.9506 101.48 10.8706C101.48 10.8706 101.48 10.8006 101.48 10.7706V10.6706L101.62 10.6006C101.62 10.6006 101.62 10.5006 101.62 10.4706C101.695 10.3488 101.743 10.2124 101.76 10.0706C101.83 10.0706 101.76 10.0006 102.02 9.93056L102.09 10.0006C102.255 9.7217 102.399 9.43088 102.52 9.13056C102.62 9.13056 102.52 9.13056 102.89 8.90056C102.89 8.76056 102.96 8.90056 103.32 8.33056C103.25 8.33056 103.17 8.33056 103.32 8.10056V8.00056C103.62 7.76056 103.46 7.51056 104.46 7.00056C104.58 6.87056 104.55 7.06056 105.19 6.77056H105.26C105.26 6.77056 106.17 6.16056 106.76 6.91056V7.18056C106.67 7.32335 106.514 7.41003 106.345 7.41003C106.176 7.41003 106.02 7.32335 105.93 7.18056C105.5 7.18056 105.7 7.05056 104.93 7.71056C104.891 7.71056 104.86 7.7419 104.86 7.78056C104.217 8.53394 103.647 9.34772 103.16 10.2106C103.09 10.2806 103.09 10.3406 103.03 10.4106C102.972 10.4857 102.938 10.576 102.93 10.6706V10.7406C102.93 10.8406 102.86 10.9706 102.86 11.0706C102.86 11.1706 102.65 11.6006 102.93 11.4706C104.01 10.3906 105.53 8.70056 107.1 7.01056C107.267 6.70173 107.571 6.49112 107.919 6.44369C108.267 6.39626 108.617 6.5177 108.86 6.77056C108.756 7.01323 108.712 7.2772 108.73 7.54056C108.686 7.744 108.63 7.94442 108.56 8.14056L108.5 8.21056C108.5 8.21056 108.74 8.32056 108.5 8.41056C108.412 8.7604 108.278 9.09678 108.1 9.41056V9.48056C108.1 9.48056 108.1 9.48056 108.16 9.61056C108.22 9.74056 108.26 9.55056 107.86 9.95056V10.0506C107.847 10.081 107.847 10.1154 107.861 10.1457C107.874 10.1759 107.899 10.1994 107.93 10.2106C107.93 10.3606 107.48 10.7806 107.66 11.3106C107.57 11.6306 107.66 11.3106 107.36 11.9806C107.358 12.0608 107.338 12.1396 107.3 12.2106C107.188 12.6034 107.108 13.0047 107.06 13.4106C107.12 13.3506 107.06 13.4106 107.23 13.1806C107.213 13.3305 107.169 13.4762 107.1 13.6106V13.8406C106.91 14.1306 107.1 14.2306 106.94 14.9106C106.917 14.9331 106.905 14.9637 106.905 14.9956C106.905 15.0275 106.917 15.058 106.94 15.0806C107.01 15.2006 106.94 15.1806 107.04 15.7106C107.02 15.9 107.02 16.0911 107.04 16.2806C107.24 16.3606 107.11 16.3506 107.47 15.9806C108.28 14.9406 108.94 13.6806 110.3 11.6106V11.6106Z" fill="#EC8B9A"/>
<path d="M117.48 11.0715C117.351 11.555 117.251 12.0459 117.18 12.5415C117.125 12.6087 117.1 12.6953 117.11 12.7815C117.01 13.3715 112.85 15.4515 114.91 11.0715C114.917 10.9158 114.99 10.7705 115.11 10.6715C115.11 10.7415 115.11 10.7715 115.18 10.8115C115.18 16.6315 118.13 8.00148 114.81 9.87148C113.962 11.3336 113.291 12.8912 112.81 14.5115C112.205 16.7482 111.969 19.0687 112.11 21.3815C112.02 21.5215 111.46 22.5715 110.64 22.0815C110.64 22.0815 110.64 22.0215 110.57 21.9815C110.622 21.9556 110.669 21.9218 110.71 21.8815V21.7815C110.65 21.7815 110.61 21.7815 110.61 21.7815C110.61 21.7815 110.55 21.7815 110.55 21.7115C110.55 21.6415 110.55 21.6415 110.61 21.6115C110.57 21.4136 110.57 21.2094 110.61 21.0115C110.51 20.8415 110.54 20.6115 110.48 20.4715C110.381 19.6654 110.358 18.8519 110.41 18.0415C110.443 17.9545 110.443 17.8584 110.41 17.7715C110.43 17.5028 110.406 17.2327 110.34 16.9715C110.228 15.531 110.195 14.0856 110.24 12.6415C110.255 12.5186 110.255 12.3944 110.24 12.2715L110.34 11.7015C110.454 9.4204 110.881 7.16584 111.61 5.00148C111.61 4.93148 111.61 4.83148 111.71 4.80148C111.84 4.60148 112.03 4.38148 112.84 4.27148C112.98 6.50148 112.03 9.01149 111.94 12.4715C112.07 12.5315 111.94 12.7915 111.94 13.4715C111.86 13.5315 111.94 13.8015 111.77 14.1715C111.744 14.2318 111.71 14.2889 111.67 14.3415C111.78 14.8115 111.67 14.8015 111.54 16.0715H111.64C111.821 15.7711 111.902 15.4208 111.87 15.0715C112.12 14.3515 112.38 13.6015 112.87 12.3715C112.87 12.3015 112.97 12.2315 113.04 12.1315C113.04 11.3615 116.37 5.90148 117.41 10.2015C117.53 10.3415 117.42 10.3915 117.48 11.0715V11.0715Z" fill="#EC8B9A"/>
<path d="M126.42 11.0715C126.29 11.555 126.19 12.0459 126.12 12.5415C126.065 12.6087 126.04 12.6953 126.05 12.7815C125.95 13.3715 121.79 15.4515 123.85 11.0715C123.857 10.9158 123.929 10.7705 124.05 10.6715C124.05 10.7415 124.05 10.7715 124.12 10.8115C124.37 17.0515 126.97 6.90148 123.52 10.2115C122.809 11.5919 122.216 13.0305 121.75 14.5115C121.144 16.7482 120.908 19.0687 121.05 21.3815C120.96 21.5215 120.4 22.5715 119.58 22.0815C119.58 22.0815 119.58 22.0215 119.51 21.9815C119.561 21.9556 119.608 21.9218 119.65 21.8815V21.7815C119.59 21.7815 119.55 21.7815 119.55 21.7815C119.55 21.7815 119.49 21.7815 119.49 21.7115C119.49 21.6415 119.49 21.6415 119.55 21.6115C119.509 21.4136 119.509 21.2094 119.55 21.0115C119.45 20.8415 119.48 20.6115 119.42 20.4715C119.321 19.6654 119.297 18.8519 119.35 18.0415C119.383 17.9545 119.383 17.8584 119.35 17.7715C119.369 17.5028 119.345 17.2327 119.28 16.9715C119.168 15.531 119.134 14.0856 119.18 12.6415C119.195 12.5186 119.195 12.3944 119.18 12.2715L119.28 11.7015C119.393 9.4204 119.821 7.16584 120.55 5.00148C120.55 4.93148 120.55 4.83148 120.65 4.80148C120.78 4.60148 120.97 4.38148 121.78 4.27148C121.92 6.50148 120.97 9.01149 120.88 12.4715C121.01 12.5315 120.88 12.7915 120.88 13.4715C120.8 13.5315 120.88 13.8015 120.71 14.1715C120.683 14.2318 120.65 14.2889 120.61 14.3415C120.72 14.8115 120.61 14.8015 120.48 16.0715H120.58C120.761 15.7711 120.841 15.4208 120.81 15.0715C121.06 14.3515 121.32 13.6015 121.81 12.3715C121.81 12.3015 121.91 12.2315 121.98 12.1315C121.98 11.3615 125.31 5.90148 126.35 10.2015C126.47 10.3415 126.36 10.3915 126.42 11.0715V11.0715Z" fill="#EC8B9A"/>
<path d="M133.59 16.4106C133.52 16.5106 133.52 16.6506 133.46 16.7506C133.257 17.5831 133.01 18.4043 132.72 19.2106C132.72 19.6006 132.62 19.4506 132.32 20.3706V20.4406C132.39 20.4406 132.32 20.4406 132.49 20.3406C132.49 20.4506 132.36 20.3406 132.22 20.7106C132.157 20.7742 132.112 20.8536 132.09 20.9406L131.99 21.0806C131.99 21.0206 132.12 20.9806 132.15 20.9106C132.162 20.8784 132.162 20.8428 132.15 20.8106L132.28 20.6106C132.28 20.6106 132.45 20.5206 132.38 20.7106C132.199 21.1799 131.873 21.5794 131.45 21.8506H131.52V21.9206C131.52 21.9906 131.12 22.0906 131.12 22.3506C130.94 22.4606 131.12 22.4606 130.45 22.9206C130.37 23.0406 130.45 22.9706 129.99 23.2906C129.29 23.6606 128.79 23.7806 127.12 23.2906C127.05 23.2906 126.99 23.2306 126.99 23.1306C126.99 23.0306 126.66 22.9506 126.85 22.5906C126.662 21.7194 126.696 20.8149 126.95 19.9606L127.12 19.5606C127.24 17.2806 132.28 16.7406 132.22 13.6206C132.38 12.6906 132.71 11.3606 132.86 9.72056C132.763 9.79977 132.673 9.88672 132.59 9.98056C132.54 10.1606 132.59 9.98056 132.26 10.6206C132.042 11.19 131.749 11.728 131.39 12.2206C131.39 12.3906 131.23 12.3106 130.95 12.9906C130.95 13.1006 130.85 13.0806 130.59 13.5506C130.59 13.5506 130.59 13.5506 130.52 13.5506C129.94 14.5506 127.8 14.7506 127.59 12.0506C127.59 12.0506 127.59 11.9906 127.69 11.8506C127.812 10.5619 128.101 9.29467 128.55 8.08056C128.588 8.03038 128.588 7.96074 128.55 7.91056C128.88 7.64358 129.315 7.54454 129.728 7.64239C130.141 7.74024 130.485 8.02394 130.66 8.41056C130.695 8.46176 130.695 8.52936 130.66 8.58056C130.485 8.83638 130.379 9.13228 130.35 9.44056C130.014 10.3487 129.779 11.2911 129.65 12.2506C129.577 12.3938 129.532 12.5502 129.52 12.7106C129.536 12.9057 129.58 13.0976 129.65 13.2806C129.72 13.2806 129.82 13.2806 129.85 13.1806C130.546 12.4257 131.172 11.609 131.72 10.7406C131.78 10.3106 132.14 10.2106 132.59 9.21056C132.779 8.86443 132.989 8.53045 133.22 8.21056C133.16 7.85056 133.11 8.13056 133.36 7.35056C133.36 7.35056 133.27 7.28056 133.42 7.08056C133.55 7.33056 133.82 7.08056 134.19 7.01056C134.415 6.91469 134.675 6.96008 134.855 7.12642C135.034 7.29277 135.099 7.54899 135.02 7.78056C134.941 8.08564 134.888 8.39669 134.86 8.71056C134.896 9.10341 134.862 9.49949 134.76 9.88056C134.725 9.93176 134.725 9.99936 134.76 10.0506C134.763 10.2818 134.705 10.5098 134.59 10.7106C134.48 10.8906 134.65 10.8506 134.43 11.5206C134.43 11.7106 134.43 11.5706 134.36 12.1206C134.27 12.2206 134.36 12.2206 134.13 12.7206C134.091 12.7922 134.091 12.8789 134.13 12.9506C134.151 12.9067 134.186 12.8713 134.23 12.8506H134.29C134.35 12.8506 134.37 13.0006 134.13 13.1106C134.13 13.1106 134.13 13.1106 134.19 13.1806C134.228 13.1806 134.26 13.2119 134.26 13.2506C134.15 13.2506 134.17 13.6006 133.96 13.9806C133.9 14.0306 133.72 14.1906 133.89 14.5506C133.858 14.5871 133.837 14.6323 133.83 14.6806C133.7 15.0506 133.83 14.8206 133.53 15.5106V15.8106L133.59 16.4106ZM131.39 19.0106C131.453 18.5367 131.553 18.0686 131.69 17.6106C131.69 17.4806 131.83 17.2006 131.92 16.4106C131.92 16.3606 131.83 16.3406 131.92 16.2706C132.01 16.2006 131.92 16.2706 131.92 16.2006C131.81 15.9806 131.87 15.9706 131.42 16.3006C131.081 16.5949 130.696 16.8314 130.28 17.0006C130.038 17.1099 129.821 17.2663 129.64 17.4606C129.498 17.5605 129.376 17.686 129.28 17.8306C128.762 18.3641 128.294 18.9431 127.88 19.5606C127.723 20.0234 127.665 20.514 127.71 21.0006C127.71 21.0006 127.6 21.0506 127.71 21.2306C127.82 21.4106 127.71 21.2306 127.71 21.7706C127.83 21.8706 127.71 21.7706 127.81 22.2006V22.3706C127.908 22.6184 128.121 22.8022 128.381 22.8621C128.641 22.922 128.913 22.8504 129.11 22.6706C129.11 22.6706 129.11 22.6706 129.11 22.6006C129.246 22.5666 129.38 22.5232 129.51 22.4706C129.51 22.4206 129.75 22.3606 129.88 22.1706C129.96 22.1706 129.95 22.0606 130.14 21.8706C130.33 21.6806 130.14 21.7206 130.41 21.4306L130.81 20.8306H130.88H130.81C131.054 20.238 131.248 19.6258 131.39 19.0006V19.0106ZM131.79 21.6206C131.86 21.6206 131.89 21.4806 131.92 21.4106V21.3506C131.92 21.3506 131.68 21.5506 131.79 21.6206Z" fill="#EC8B9A"/>
<path d="M22.8299 22.6513C21.9342 24.0817 21.2599 25.6393 20.8299 27.2713C19.5199 25.5813 2.3999 16.4513 13.7699 18.6913C15.6199 19.5013 17.5899 24.8013 19.7699 21.6913C19.6199 17.2013 27.5299 16.5513 22.8299 22.6513Z" fill="#EC8B9A"/>
<path d="M25.1902 17.0011C23.0202 13.5511 18.2702 16.4011 16.8902 19.6111C13.5802 13.8511 2.89019 14.1011 7.89019 22.2011C12.4502 26.2011 19.1502 25.8911 19.6902 33.3311C21.2302 35.3811 26.0002 20.2111 25.1902 17.0011ZM21.9102 22.6111C21.0226 24.0457 20.3488 25.6021 19.9102 27.2311C18.6002 25.5411 1.4802 16.4111 12.8502 18.6511C14.7002 19.4611 16.6702 24.7611 18.8502 21.6511C18.7102 17.2011 26.6102 16.5511 21.9102 22.6511V22.6111Z" fill="black"/>
<path d="M164.48 15.3898C163.805 16.0742 163.232 16.8522 162.78 17.6998C159.68 15.1098 154.17 7.01985 162.43 14.9398C162.76 13.0898 168 11.5398 164.48 15.3898V15.3898Z" fill="#EC8B9A"/>
<path d="M166.48 12.5607C165.7 10.3807 162.71 11.3807 161.55 12.9907C161.14 10.9907 155.63 7.25067 155.91 12.6607C157.53 15.5907 161.69 16.7807 161.64 21.1207C163 20.4207 165.53 16.2207 166.48 12.5607ZM164 15.2707C163.325 15.956 162.755 16.7379 162.31 17.5907C159.2 15.0007 153.69 6.91067 161.95 14.8207C162.25 13.0007 167.47 11.4307 164 15.2707Z" fill="black"/>
<path d="M52 68.92C53.72 67.59 59.71 69.63 63.56 69.56L63.87 69.26C71.87 70.56 82.07 71.45 91.35 72.26C93.2 71.44 99.1 73.6 103.43 73.05C132.43 74.65 166.07 80.45 193.5 64.69C192.84 63.51 199.96 58.49 198.75 55.44C204.05 50.62 201.31 33.05 193.45 31.25C194 31.59 194.24 31.39 194.45 32.25C224.87 99.56 38.71 45 11.75 62.78C13.4051 62.5036 15.0744 62.32 16.75 62.23C12 63 -5.46 68.87 10.86 67C8.8719 67.6033 6.95165 68.4109 5.13 69.41C13.59 66 9.72 67.36 4 70.6C4.25 70.6 10.14 67.6 11.53 67.83C9.76 67.93 1.43 72.18 8.07 69.19C6.39 69.3 -1.8 76.5 4.73 72.47C3.73 73.37 1.9 74 0 77.63C0.606722 76.4871 1.38208 75.442 2.3 74.53C1.46068 75.3884 0.762086 76.3738 0.23 77.45C1.00099 76.6544 1.71919 75.8092 2.38 74.92C1.86651 75.4949 1.40472 76.114 1 76.77C14.4 65.86 35.11 68.48 52 68.92V68.92Z" fill="#202020"/>
<path d="M164 25.8411C164 25.1611 163.16 24.0611 162.55 24.3211C160.93 23.8011 159.78 26.5411 162.1 27.2511C161.11 30.0011 164 29.7911 164 25.8411V25.8411Z" fill="black"/>
<path d="M25.9004 81.0013L26.0004 81.7313L25.7404 82.3313C25.3404 83.2113 24.5004 86.7813 22.2004 85.6413C21.9204 85.4713 21.7504 85.0113 21.6704 84.3413C21.5562 83.9379 21.499 83.5206 21.5004 83.1013C21.5004 83.1013 21.5004 83.1013 21.6704 83.0013C21.6704 83.0013 21.7304 82.9013 21.7704 82.8713C21.751 82.6251 21.751 82.3776 21.7704 82.1313V82.0013C21.7704 82.0013 21.7704 81.9313 21.7704 81.9013V81.8313C21.7704 81.8313 21.7704 81.7613 21.8404 81.7313C21.8541 81.6891 21.8541 81.6436 21.8404 81.6013V81.5313C21.8314 81.4574 21.8573 81.3835 21.9104 81.3313C21.9104 81.3313 21.9104 81.1313 21.7704 81.2313C21.6304 81.3313 21.7704 81.3013 21.6104 81.5013C21.6104 81.3213 21.5504 81.2113 21.7104 80.6313C21.718 80.6086 21.718 80.584 21.7104 80.5613C21.7704 80.5613 21.7104 80.6713 21.8804 80.6613C21.9246 80.6339 21.9482 80.5828 21.9404 80.5313C21.9404 80.5313 21.9404 80.5313 21.9404 80.3013C21.9922 80.2484 22.0179 80.1751 22.0104 80.1013C21.8504 80.0013 22.3904 79.3113 22.0104 79.4613C22.0104 79.4613 21.9304 79.4613 22.0104 79.1613H22.0704C22.1304 79.1613 22.1404 78.9913 22.1704 78.9213C22.2004 78.8513 22.1704 78.7913 22.1704 78.7213L22.0004 78.9013V78.9713V78.9013C22.0733 78.7312 22.1269 78.5534 22.1604 78.3713C21.9004 78.5413 21.9304 78.7913 21.5004 79.4413V79.5113C21.5004 79.5113 21.5004 79.6013 21.1404 80.2413C20.7919 80.6727 20.3846 81.0531 19.9304 81.3713C19.7541 81.5817 19.5269 81.7435 19.2704 81.8413C19.2474 81.8469 19.2234 81.8469 19.2004 81.8413C18.5704 81.8413 17.8104 82.5213 17.3004 80.7413C17.3004 80.6813 17.3004 80.7413 17.3004 80.4413C17.1904 79.6413 17.1404 76.9213 19.3004 76.0113C19.5949 75.8058 19.9416 75.6879 20.3004 75.6713C20.4204 75.5313 20.6604 75.4813 21.5004 75.2413C21.5199 75.2475 21.5409 75.2475 21.5604 75.2413C21.7304 75.3313 21.6904 75.2413 22.1004 75.4113C22.1004 75.4113 22.2804 75.5013 22.1004 75.6413C22.2237 75.9132 22.1717 76.2325 21.9684 76.451C21.7651 76.6696 21.4504 76.7446 21.1704 76.6413C20.9304 76.6413 20.4004 76.0113 19.7004 76.9113C19.3751 77.341 19.1373 77.8302 19.0004 78.3513C19.0004 78.6013 18.6404 79.0513 18.9004 79.7513C18.9498 80.0587 18.9699 80.3701 18.9604 80.6813C20.3304 80.6813 22.2904 76.6813 23.5304 73.6813C23.7003 72.6195 24.0166 71.5863 24.4704 70.6113C24.4704 70.6113 24.4704 70.4913 24.7004 70.3713C25.1608 70.1986 25.6486 70.1105 26.1404 70.1113V70.1713C26.1788 70.6294 26.1314 71.0907 26.0004 71.5313C25.9058 71.8708 25.7923 72.2046 25.6604 72.5313C25.6004 72.7613 25.7304 72.6813 25.5304 73.1013C25.4204 73.2313 25.4804 73.4613 25.1604 73.9313C25.1604 74.0113 24.9704 73.9313 25.1604 74.2013C25.1167 74.2966 25.1167 74.4061 25.1604 74.5013C25.0929 74.7067 24.9915 74.8994 24.8604 75.0713C24.8604 75.0713 24.8604 75.0713 24.9204 75.1313C24.9804 75.1913 24.8604 75.3313 24.7604 75.3713V75.4313H24.8204L25.0204 75.2313C25.1404 75.6213 24.5604 75.6413 24.4604 76.4313C24.5204 76.4313 24.5104 76.4313 24.5604 76.5013V76.5713C24.5604 76.5713 24.5604 76.5713 24.7004 76.6713C24.6004 76.7713 24.7004 76.6713 24.5304 76.9313C24.4704 76.9313 24.4404 77.0113 24.5304 77.1013C24.3504 77.1913 24.2204 77.3013 23.9704 77.8013C23.9704 77.9413 23.9704 77.8013 23.8304 78.2013C23.8304 78.2013 23.8304 78.3713 23.9704 78.2713C24.1104 78.1713 24.0204 78.2713 23.9704 78.4413C23.9004 78.4413 24.2104 78.3413 24.0704 78.0313V77.9313C24.1013 77.9135 24.1395 77.9135 24.1704 77.9313C24.1704 77.9313 24.2404 77.9313 24.1704 77.9913C24.1004 78.0513 23.8804 78.5413 23.8704 79.1313C23.8704 79.1313 23.6904 79.2513 23.8004 79.4013C23.7004 79.6113 23.4304 79.6413 23.4704 80.2013C23.4704 80.3813 23.4704 80.2813 23.3004 80.6713V80.8013C23.3004 80.8313 23.1804 81.1013 23.4304 81.0013C23.4804 81.0013 23.4304 81.0013 23.5304 81.0713C23.6304 81.1413 23.4204 81.0713 23.2704 81.3013V81.3713C23.2704 81.5013 23.1404 81.5713 23.1104 81.7013C23.0874 81.7069 23.0634 81.7069 23.0404 81.7013C23.0099 81.6382 23.0099 81.5645 23.0404 81.5013C23.0404 81.3713 23.1904 81.3413 23.0404 81.0313C22.9704 80.9613 23.2204 80.6013 23.0404 80.0313C23.1504 80.2413 22.5004 80.9613 22.9004 81.2613C23.3004 81.5613 22.9004 81.2613 22.7004 81.5913C22.7004 81.7113 22.8504 81.6913 22.7604 81.9213C22.7004 81.9213 22.6604 82.0213 22.6304 82.0213L22.5004 82.1613V82.2213C22.5004 82.2813 22.5004 82.2213 22.5704 82.2213L22.7304 82.0613V82.1213V82.1913C22.7304 82.5013 22.7904 82.4413 22.5304 83.0013C22.5121 83.1775 22.5121 83.3551 22.5304 83.5313C22.5499 83.5375 22.5709 83.5375 22.5904 83.5313L22.7604 83.3313V83.6013C22.7916 83.8621 22.8452 84.1197 22.9204 84.3713C22.9204 84.4613 22.9204 84.3213 23.1204 84.4713C23.1009 84.4775 23.0799 84.4775 23.0604 84.4713C23.0409 84.4652 23.0604 84.6313 23.3004 84.4713C23.3504 84.5613 23.2104 84.6413 23.6004 84.6013V84.5313L23.4604 84.4713C23.4604 84.4713 23.4004 84.4713 23.4004 84.4013C23.4004 84.3313 23.4004 84.4013 23.4004 84.4013C24.0904 84.6613 24.4004 84.1313 24.9704 82.9313C25.1204 82.8213 24.9704 82.7213 25.3404 82.1213C25.7104 81.5213 25.3404 82.1213 25.3404 82.0513C25.3404 81.9813 25.4304 82.0513 25.4804 81.8513C25.5304 81.6513 25.4804 81.5813 25.6104 81.4813C25.7404 81.3813 25.6104 81.4213 25.6104 81.3813C25.6104 81.3413 25.4904 81.2813 25.7104 81.1513C25.7606 81.0598 25.7816 80.9551 25.7704 80.8513L25.9004 81.0013ZM21.8304 81.0013H21.7704C21.7704 81.0813 21.7204 81.0013 21.7004 81.2013V81.3013C21.7759 81.1955 21.8208 81.071 21.8304 80.9413V81.0013Z" fill="#EC8B9A"/>
<path d="M34.9999 79.9998V80.1298C34.4185 81.0934 33.904 82.0957 33.4599 83.1298V83.2998C32.9499 83.7198 32.2499 86.1598 30.3899 85.7698C30.0799 85.8898 29.7799 85.1898 29.4899 84.8298C29.6899 84.4898 29.6499 84.7298 29.4199 83.9698C29.4199 83.9698 29.4199 83.8998 29.4199 83.8698C29.4199 83.8398 29.5799 83.6398 29.3599 83.5298V83.3998C29.6399 83.0098 29.3599 82.9298 29.6899 81.8598C29.7207 81.8109 29.7207 81.7487 29.6899 81.6998C29.6899 81.6998 29.7599 81.6298 29.7599 81.5998C29.7738 81.5542 29.7738 81.5054 29.7599 81.4598C29.7599 81.4598 29.7599 81.3998 29.7599 81.3598V81.2998C29.8711 81.1513 29.9495 80.9809 29.9899 80.7998C29.9899 80.7998 29.8999 80.7998 29.9199 80.6598C29.9399 80.5198 29.8399 80.5398 30.1599 79.9298C30.0999 79.3398 30.6599 78.5598 30.9599 77.2298C31.0284 76.9998 31.1153 76.7758 31.2199 76.5598C30.2581 77.5867 29.3565 78.6685 28.5199 79.7998C28.0895 80.2541 27.5728 80.6179 26.9999 80.8698C26.6399 80.8698 26.3999 81.1398 25.9999 80.2398C25.5999 79.3398 26.0899 80.2398 26.1299 79.8798C26.1299 79.8798 26.1299 79.8098 26.0699 79.8098H26.0099C26.0099 79.8098 26.0099 79.7498 26.0099 79.7398C26.0529 79.6479 26.1394 79.5839 26.2399 79.5698V79.4998C26.2399 79.4398 26.3299 79.4998 26.2399 79.2698C26.2172 79.2774 26.1926 79.2774 26.1699 79.2698L26.0699 79.4698C26.0699 79.4698 26.0699 79.4698 26.0699 79.4098C26.0699 79.3498 26.0099 79.4098 26.0099 79.4098C26.0099 79.4098 26.0099 79.2998 26.1399 79.2098C26.2699 79.1198 26.1399 79.1398 26.1399 79.1098V79.0098L26.1999 78.9998C26.1999 78.9998 26.1999 78.8998 26.1999 78.8698C26.2742 78.7486 26.3188 78.6115 26.3299 78.4698C26.4099 78.4698 26.3299 78.3998 26.5999 78.3398L26.6699 78.3998C26.8371 78.1222 26.9809 77.8312 27.0999 77.5298C27.1999 77.5298 27.0999 77.5298 27.4699 77.2998C27.4699 77.1598 27.5399 77.2998 27.8999 76.7298C27.8299 76.7298 27.7499 76.7298 27.8999 76.4998V76.3698C28.1999 76.1298 28.0399 75.8798 29.0399 75.3698C29.1499 75.2398 29.1299 75.4298 29.7699 75.1398C29.7929 75.1453 29.8169 75.1453 29.8399 75.1398C29.8399 75.2798 30.7499 74.5298 31.3399 75.2698V75.5398C31.2503 75.6826 31.0935 75.7693 30.9249 75.7693C30.7563 75.7693 30.5995 75.6826 30.5099 75.5398C30.0799 75.5398 30.2699 75.4098 29.5099 76.0698C29.4712 76.0698 29.4399 76.1011 29.4399 76.1398C28.793 76.8906 28.2234 77.7047 27.7399 78.5698C27.6699 78.6398 27.6699 78.7098 27.5999 78.7698C27.5379 78.8464 27.5028 78.9413 27.4999 79.0398V79.0998C27.4999 79.1998 27.4399 79.3398 27.4399 79.4398C27.4399 79.5398 27.2299 79.9598 27.4999 79.8398C28.5899 78.7598 30.1099 77.0598 31.6699 75.3698C31.8392 75.0607 32.1451 74.8504 32.4943 74.803C32.8435 74.7557 33.1944 74.877 33.4399 75.1298C33.336 75.3725 33.2914 75.6365 33.3099 75.8998C33.2662 76.1033 33.2094 76.3037 33.1399 76.4998L33.0699 76.5698C33.0699 76.5698 33.3199 76.6798 33.0699 76.7698C32.9866 77.121 32.8518 77.458 32.6699 77.7698V77.8298C32.6699 77.8298 32.7299 77.8298 32.7399 77.9598C32.7499 78.0898 32.8399 77.8998 32.4399 78.2998V78.3998C32.4399 78.4298 32.4399 78.5298 32.4999 78.5698C32.5599 78.6098 32.0599 79.1298 32.2399 79.6698C32.1499 79.9898 32.2399 79.6698 31.9399 80.3398C31.9395 80.4217 31.9151 80.5016 31.8699 80.5698C31.7681 80.9646 31.6912 81.3654 31.6399 81.7698C31.6999 81.7098 31.6399 81.7698 31.8099 81.5398C31.7848 81.688 31.7411 81.8325 31.6799 81.9698C31.6799 81.9698 31.6299 81.9698 31.6799 82.1998C31.4799 82.4898 31.6799 82.5898 31.5099 83.2698C31.4716 83.32 31.4716 83.3896 31.5099 83.4398C31.5899 83.5698 31.5099 83.5398 31.6099 84.0698C31.5918 84.2594 31.5918 84.4502 31.6099 84.6398C31.8099 84.7198 31.6799 84.7098 32.0399 84.3398C33.1005 82.9449 34.0884 81.4964 34.9999 79.9998V79.9998Z" fill="#EC8B9A"/>
<path d="M40.4499 84.7702C40.3799 84.8702 40.3799 85.0102 40.3099 85.1102C40.1162 85.9441 39.8724 86.7656 39.5799 87.5702C39.5799 87.9602 39.4799 87.8102 39.1799 88.7402V88.8002C39.2499 88.8002 39.1799 88.8002 39.3499 88.7002C39.3499 88.8102 39.2199 88.7002 39.0799 89.0602C39.0105 89.123 38.9646 89.2077 38.9499 89.3002L38.8499 89.4302C38.8499 89.3702 38.9899 89.3302 39.0199 89.2702C39.0345 89.2384 39.0345 89.2019 39.0199 89.1702L39.1499 88.9702C39.1499 88.9702 39.3199 88.8802 39.2499 89.0702C39.1799 89.2602 38.8599 89.7602 38.3199 90.2002H38.3799V90.2702C38.3799 90.3402 37.9899 90.4402 37.9799 90.7002C37.7999 90.8102 37.9799 90.8102 37.3199 91.2702C37.2399 91.3902 37.3199 91.2702 36.8499 91.6402C36.1599 92.0102 35.6499 92.1302 33.9899 91.6402C33.9199 91.6402 33.8499 91.5802 33.8499 91.4802C33.8499 91.3802 33.5299 91.3002 33.7199 90.9402C33.5321 90.069 33.5664 89.1646 33.8199 88.3102L33.9899 87.9102C34.1099 85.6302 39.1499 85.0902 39.0899 81.9702C39.3666 80.6818 39.5769 79.3801 39.7199 78.0702C39.5899 78.1802 39.7199 78.0702 39.4599 78.3402C39.4599 78.5102 39.4599 78.3402 39.1199 78.9702C38.9126 79.5425 38.6229 80.0815 38.2599 80.5702C38.2599 80.7402 38.0999 80.6602 37.8199 81.3402C37.8199 81.4602 37.7199 81.4302 37.4599 81.9002C37.4599 81.9002 37.4599 81.9002 37.3899 81.9002C36.8099 82.9002 34.6699 83.1102 34.4499 80.4002C34.4499 80.4002 34.4499 80.3502 34.5499 80.2002C34.6817 78.9121 34.9739 77.6457 35.4199 76.4302C35.4503 76.3776 35.4503 76.3128 35.4199 76.2602C35.7481 75.9932 36.1818 75.8941 36.5933 75.9921C37.0048 76.09 37.3473 76.374 37.5199 76.7602C37.5425 76.7827 37.5552 76.8133 37.5552 76.8452C37.5552 76.8771 37.5425 76.9077 37.5199 76.9302C37.3573 77.191 37.2549 77.4848 37.2199 77.7902C36.8856 78.6987 36.6509 79.6409 36.5199 80.6002C36.4467 80.7434 36.4025 80.8998 36.3899 81.0602C36.4062 81.2553 36.45 81.4472 36.5199 81.6302C36.5899 81.6302 36.6899 81.6302 36.7199 81.5302C37.4109 80.7746 38.0365 79.9616 38.5899 79.1002C38.5899 78.6602 39.0099 78.5602 39.4599 77.5602C39.6489 77.214 39.8593 76.8801 40.0899 76.5602C40.0199 76.2002 39.9799 76.4802 40.2199 75.7002C40.2199 75.6502 40.1399 75.6302 40.2899 75.4302C40.4199 75.6802 40.6799 75.4302 41.0599 75.3602C41.285 75.2643 41.5453 75.3097 41.7246 75.476C41.9039 75.6424 41.9687 75.8986 41.8899 76.1302C41.8053 76.434 41.7517 76.7456 41.7299 77.0602C41.766 77.453 41.7321 77.8491 41.6299 78.2302C41.5916 78.2804 41.5916 78.35 41.6299 78.4002C41.6328 78.6345 41.5742 78.8655 41.4599 79.0702C41.3399 79.2402 41.5099 79.2002 41.2899 79.8702C41.2851 80.0714 41.265 80.272 41.2299 80.4702C41.1399 80.5802 41.2299 80.5802 40.9899 81.0702C40.9899 81.0702 40.9199 81.1602 40.9899 81.3002C41.0142 81.2588 41.0486 81.2244 41.0899 81.2002H41.1599C41.2299 81.2002 41.2399 81.3502 40.9899 81.4602C40.9899 81.4602 40.9899 81.4602 41.0599 81.5302C41.0966 81.5345 41.1256 81.5635 41.1299 81.6002C41.0199 81.6502 41.0399 81.9502 40.8299 82.3302C40.7699 82.3302 40.5899 82.5402 40.7599 82.9002C40.7254 82.9365 40.7012 82.9814 40.6899 83.0302C40.6107 83.3172 40.5104 83.5979 40.3899 83.8702C40.3556 83.9672 40.3556 84.0731 40.3899 84.1702L40.4499 84.7702ZM38.2499 87.3702C38.3128 86.8963 38.4131 86.4282 38.5499 85.9702C38.5499 85.8402 38.6799 85.5602 38.7799 84.7702V84.7102C38.7799 84.7102 38.6799 84.6402 38.7799 84.5702C38.8799 84.5002 38.7799 84.5702 38.7799 84.5002C38.6799 84.2802 38.7799 84.2702 38.2799 84.6002C37.945 84.8949 37.563 85.1315 37.1499 85.3002C36.9082 85.4095 36.6907 85.5659 36.5099 85.7602C36.3628 85.8572 36.2369 85.983 36.1399 86.1302C35.6288 86.6694 35.1607 87.2478 34.7399 87.8602C34.595 88.3255 34.5407 88.8144 34.5799 89.3002C34.5799 89.3002 34.4699 89.3002 34.5799 89.5302C34.6899 89.7602 34.5799 89.5302 34.5799 90.0702C34.6899 90.1702 34.5799 90.0702 34.6799 90.5002V90.6702C34.6799 90.7402 35.2999 91.5902 35.9799 90.9702C35.9799 90.9702 35.9799 90.9702 35.9799 90.9002C36.1162 90.8662 36.2498 90.8228 36.3799 90.7702C36.3799 90.7702 36.6199 90.6602 36.7499 90.4702C36.8299 90.4702 36.8199 90.3702 37.0099 90.1702C37.1999 89.9702 37.0099 90.0302 37.2799 89.7302L37.6799 89.1302H37.7499H37.6799C37.9115 88.5578 38.102 87.9696 38.2499 87.3702V87.3702ZM38.6499 89.9802C38.7079 89.9243 38.7524 89.8558 38.7799 89.7802V89.7102C38.6899 89.7302 38.5399 89.9102 38.6499 90.0002V89.9802Z" fill="#EC8B9A"/>
</svg>
