<svg width="148" height="107" viewBox="0 0 148 107" fill="none" xmlns="http://www.w3.org/2000/svg">
<g clip-path="url(#clip0_3_23690)">
<path d="M54.8106 79.5699C40.4806 89.6199 55.7206 34.7999 51.3606 27.2299C39.2406 3.68992 27.8806 50.7099 28.6806 59.8499C25.4606 32.1999 20.9206 35.9999 11.0006 56.8199C8.92057 42.4999 16.1806 23.7599 2.90057 20.4199C-5.55943 37.7999 5.93057 103.81 20.2706 49.9999C28.2706 96.5699 36.3206 37.4099 42.0506 28.3099C42.4706 44.5899 34.9306 60.4899 40.8506 77.1499C43.6606 89.4599 60.5806 91.9199 54.8106 79.5699Z" fill="black"/>
<path d="M76.5397 51.1207C68.6097 59.4407 71.7797 34.7707 72.0797 30.2207C74.2697 29.7807 79.7897 27.4007 72.3897 28.5507C71.1697 27.7507 72.6897 24.1107 69.1597 23.2207C66.9197 23.4507 70.1597 31.8707 64.1597 28.5507C63.0297 29.7707 64.6597 30.2407 67.3797 30.5507C67.4997 32.7807 67.0897 36.3307 66.9697 40.0107C65.5697 40.0107 61.9697 42.1607 59.9697 40.6207C59.7897 40.4607 61.0797 37.5507 58.5397 36.7107C42.9497 49.4707 68.3697 71.9407 62.5397 42.2907C63.3797 42.1507 64.1997 42.1207 66.8097 41.7607C64.9997 45.5507 72.2197 63.6007 76.7897 51.3107C76.7297 51.2507 76.5997 51.1207 76.5397 51.1207V51.1207ZM62.8997 48.1707C58.1197 65.6007 55.1897 35.1707 62.4097 44.8207C62.7871 45.8954 62.9535 47.0329 62.8997 48.1707Z" fill="black"/>
<path d="M77.7207 37.731C77.9107 33.571 78.0907 24.461 78.7207 20.361C85.5707 19.361 80.0907 40.171 81.7207 46.161C82.3207 42.931 89.0607 27.341 91.5207 39.771C92.3207 42.551 89.0207 50.381 93.6907 51.991C87.6107 56.661 86.2907 43.711 87.3007 37.111C83.3807 46.941 77.9107 64.831 77.7207 37.731V37.731Z" fill="black"/>
<path d="M94.1515 37.4598C92.5715 25.5498 111.022 24.4598 98.7415 36.7798C98.5315 41.1098 98.4815 49.5598 104.822 38.7798C103.442 48.9998 94.9015 48.7798 94.1515 37.4598ZM101.102 28.9998C99.6515 28.7398 99.3015 30.8498 98.8015 34.7598C100.302 34.7198 104.002 30.9998 101.102 28.9998Z" fill="black"/>
<path d="M105.681 26.5408C106.481 23.7308 110.031 27.4008 109.681 33.3008C109.961 32.5308 115.951 24.3908 115.331 29.5208C108.881 34.8508 111.071 38.1508 110.331 46.0808C104.901 46.1708 104.761 32.1508 105.681 26.5408Z" fill="black"/>
<path d="M125.84 36.0914C125.36 47.7914 109.52 38.2914 117.9 34.7314C112.83 40.7314 130.72 45.2314 116.04 22.2014C112.04 15.7414 129.21 9.31143 122.55 20.0314C125.17 12.7714 116.15 15.0314 119.18 21.8514C121.74 26.5114 125.33 29.6114 125.84 36.0914Z" fill="black"/>
<path d="M57.4115 13.2508C52.0815 23.8008 73.1215 9.90076 55.8015 9.40076C46.1715 13.4008 53.8015 23.4508 62.0015 21.2608C78.0015 18.2608 97.2415 -11.1692 111.841 7.06076C117.091 16.5208 104.671 24.9908 96.8415 18.4308C90.8415 13.2208 98.7715 3.53076 104.061 11.4308C105.871 13.1708 102.471 17.3608 101.061 14.0208C105.211 14.4708 97.9715 10.5708 100.941 16.0208C113.241 15.1108 96.4315 -0.109237 93.8315 12.7908C94.0315 29.3808 120.141 20.0608 112.831 6.85076C99.2815 -13.3492 75.6115 17.2308 63.8115 20.0008C56.6015 23.4408 46.6815 14.8908 56.1515 10.1808C67.7615 8.13076 57.0715 22.8008 57.4115 13.2508V13.2508Z" fill="black"/>
<path d="M80.2502 10.1106C94.0002 -3.22935 64.8602 0.320649 78.8902 6.49065C82.4102 2.78065 75.2502 5.28065 78.5102 5.21065L77.6202 5.67065C71.2402 0.840649 89.2702 -1.87935 80.2502 10.1106Z" fill="black"/>
<path d="M51.9998 22.7498C53.4998 29.7498 40.7098 19.2298 57.6198 20.4498C53.5398 17.0598 42.0898 22.3698 50.7298 26.0498C54.5198 27.1798 53.3098 20.3698 51.9998 22.7498V22.7498Z" fill="black"/>
<path d="M97.6209 19.6402C83.5209 8.64021 85.0709 29.6402 93.3009 21.5002C93.9609 19.2702 88.4709 20.4402 91.1409 20.9102C94.9409 22.4502 87.0509 23.9902 87.8209 19.0802C89.1009 13.3402 96.7309 21.4302 97.6209 19.6402V19.6402Z" fill="black"/>
<path d="M34.4909 78.6705C33.3335 78.2687 32.0872 78.196 30.8909 78.4605C34.2809 74.3305 26.8909 67.0905 24.8009 76.5205C21.9209 72.0205 12.8009 76.7605 21.0609 81.7105C16.0609 83.0205 17.3109 93.2505 24.8509 86.8505C24.2309 91.7905 34.6209 94.1905 30.9309 84.8505C33.6409 86.3405 39.8209 81.5505 34.4909 78.6705V78.6705ZM27.7409 74.3905C30.6809 72.5105 29.7409 78.5005 27.2309 79.3105C26.4912 77.7002 26.6866 75.8149 27.7409 74.3905ZM20.0009 78.2505C19.0709 75.1305 24.6009 77.5005 24.5209 80.2505C22.7627 80.4548 21.0322 79.689 20.0009 78.2505ZM21.2609 86.8505C17.7409 86.8505 22.1709 82.2405 24.5709 83.1705C24.2166 84.9202 22.9298 86.3339 21.2209 86.8505H21.2609ZM29.0009 89.3305C27.1909 89.5005 26.3909 86.2205 27.3109 84.0205C27.8909 84.0905 31.1509 87.7605 29.0009 89.3305ZM33.8109 82.7305C32.1284 83.2637 30.2892 82.8469 29.0009 81.6405C29.0009 80.6305 36.7209 79.2805 33.8109 82.7305Z" fill="#EC8B9A"/>
<path d="M132.14 89.8703C131.095 89.8209 130.058 90.0596 129.14 90.5603C130.96 86.3503 123.14 82.1403 123.67 90.4003C120.45 87.5203 113.67 92.9903 121.83 95.5603C117.93 97.6303 121.63 105.92 126.17 98.9003C126.89 103.05 135.81 102.82 130.7 95.8203C133.19 96.4503 137.17 91.1003 132.14 89.8703ZM125.57 88.0003C127.35 85.9203 128.38 90.3703 126.32 92.1703C125.33 91.0204 125.042 89.4233 125.57 88.0003ZM120.08 93.0003C118.66 90.8103 123.3 91.0003 124.28 93.5803C122.879 94.1663 121.27 93.9441 120.08 93.0003ZM123.16 99.7803C120.59 100.5 122.59 95.7803 125.01 95.9603C125.128 97.4688 124.42 98.9231 123.16 99.7603V99.7803ZM130.16 99.9703C128.78 100.3 127.16 98.1603 127.5 95.9703C128 96.1303 131.6 97.8503 130.16 100V99.9703ZM132.55 93.3903C131.289 94.2433 129.662 94.3392 128.31 93.6403C127.91 93.1103 134.08 89.6203 132.55 93.3703V93.3903Z" fill="#EC8B9A"/>
<path d="M112.131 94.2701C113.591 94.5901 114.221 96.1901 112.711 97.5101C102.641 100.3 108.161 85.1101 116.081 91.8901C122.181 97.8901 113.321 104.01 106.491 101.78C92.5813 97.8901 66.8113 67.2601 58.3913 92.0001C58.2213 108.89 85.0013 100 73.0013 89.8201C67.3013 86.2101 64.3813 99.8201 69.8713 95.0301C69.5213 94.5601 67.1113 96.8501 69.2813 93.4601C73.2813 93.2801 69.4313 100.1 66.1013 95.6401C64.0013 89.5701 74.1813 86.0001 76.5513 92.4601C79.2013 103.1 64.2613 105.11 59.2613 98.2401C51.5513 68.7801 88.8313 86.6401 98.0513 96.8101C108.421 106.28 124.421 98.9301 113.351 91.3401C102.111 89.3101 112.461 103.51 112.131 94.2701V94.2701Z" fill="black"/>
<path d="M90.0013 91.2311C78.0013 82.4811 100.001 77.621 93.4213 87.631C91.7913 88.951 88.7013 86.291 91.6613 85.351C92.6013 85.231 92.9613 87.8611 91.6613 86.4811L92.5313 86.931C98.8713 82.471 81.3113 79.4611 90.0013 91.2311Z" fill="black"/>
<path d="M117.352 103.46C115.042 107.73 125.162 105.33 118.152 101.09C116.532 100.16 108.152 103.39 113.572 100.62C117.932 97.9504 125.842 104.3 118.572 106.62C114.922 107.75 116.102 101.16 117.352 103.46Z" fill="black"/>
<path d="M73.2012 100.461C86.8512 89.7606 85.3512 110.161 77.3912 102.251C76.7412 100.091 82.0612 101.251 79.4812 101.691C75.4012 104.011 85.2412 103.691 82.0912 98.8706C80.0012 95.9006 74.2212 101.921 73.2012 100.461V100.461Z" fill="black"/>
<path d="M125.331 24.5703C139.831 24.5703 151.701 48.3503 145.211 64.8903C139.931 94.7803 36.2107 58.8103 57.5607 101.89C51.1607 101.89 44.4707 98.2603 44.4707 91.3203C44.4707 50.4703 158.001 57.2003 125.331 24.5703V24.5703Z" fill="black"/>
<path d="M108.131 63.7106C105.481 54.4606 114.211 51.1706 117.351 63.6406C116.611 66.9906 115.151 73.5506 110.061 74.8206C107.751 73.4006 108.781 69.6906 108.201 65.8206H108.131V63.7106ZM114.881 61.9106C111.511 51.8306 109.791 60.5706 112.071 72.3606C112.821 70.4606 115.671 69.6206 114.881 61.9106Z" fill="white"/>
<path d="M126 62.2301C126.12 62.7001 126.36 65.3901 127.16 73.0301C127.122 73.084 127.089 73.1408 127.06 73.2001C127.06 73.2701 126.99 73.2701 126.99 73.3401C126.1 73.5601 126.78 73.6001 124.99 73.1001C124.45 72.2001 124.26 70.7401 123.93 68.3201C119.36 66.9901 122.03 69.2001 119.08 72.1901C120.26 69.1901 117.63 57.6501 123.58 56.0801C123.655 56.0851 123.727 56.1092 123.79 56.1501C125.38 57.0001 125.33 58.7801 126 62.2301V62.2301ZM121.92 67.4401C124.47 68.4401 123.3 62.9101 122.13 57.5501C122.64 56.4101 117.9 67.1701 121.92 67.4001V67.4401Z" fill="white"/>
<path d="M132.25 65.5405C129.33 63.9205 128.46 59.4805 130 55.1305C134.63 53.5605 130 62.0305 133.41 63.8805C134.74 62.2505 135.26 59.0105 135.88 55.5805C136.99 54.8105 137.45 60.5805 134.75 64.9005C134.75 64.9005 134.75 64.9005 134.68 64.9005C134.61 64.9005 134.4 64.9705 134.26 65.0405C134.54 67.2205 134.88 66.8705 134.86 74.5405C132.29 75.0305 131.86 71.9805 132.22 66.6905H132.15C132.18 66.3505 132.22 65.9205 132.25 65.5405V65.5405Z" fill="white"/>
<path d="M37.2514 16.4104C32.7764 19.3815 29.1429 23.4559 26.7014 28.2404C17.8014 19.9804 8.78137 4.15035 27.4514 17.2404C42.0614 -2.47965 46.4914 12.2504 37.2514 16.4104V16.4104Z" fill="#EC8B9A"/>
<path d="M43.181 10.0816C37.491 -3.91844 28.531 10.5016 23.391 13.0816C18.441 6.08156 8.93102 7.08156 11.681 16.3216C15.211 22.7416 22.681 33.7316 26.451 31.4816C30.051 20.7616 43.161 18.7516 43.181 10.0816V10.0816ZM35.251 16.4116C30.7761 19.3827 27.1425 23.4571 24.701 28.2416C15.801 19.9816 6.78102 4.15156 25.451 17.2416C40.061 -2.47844 44.491 12.2516 35.251 16.4116V16.4116Z" fill="black"/>
<path d="M114.341 22.931C114.31 22.7306 114.211 22.5469 114.061 22.411C112.911 17.841 107.381 24.131 113.131 24.521C113.337 25.0508 113.449 25.6127 113.461 26.181C114.301 26.001 115.191 26.531 114.341 22.931V22.931Z" fill="black"/>
</g>
<defs>
<clipPath id="clip0_3_23690">
<rect width="148" height="107" fill="white"/>
</clipPath>
</defs>
</svg>
