<svg width="181" height="152" viewBox="0 0 181 152" fill="none" xmlns="http://www.w3.org/2000/svg">
<g clip-path="url(#clip0_3_22358)">
<path fill-rule="evenodd" clip-rule="evenodd" d="M84.3096 45.3811C81.3096 54.1111 75.3096 47.2311 81.5796 46.7111C82.2406 45.8406 82.7821 44.8854 83.1896 43.8711C81.6996 43.0211 80.1896 43.5011 78.6596 43.3011C78.3896 46.9811 72.0896 43.0211 76.6596 41.4611C78.6596 41.7211 78.9896 42.4611 81.9996 41.9811C81.2496 40.5411 80.5396 39.0611 79.3996 36.6711C71.6896 35.1811 84.6496 28.4811 80.7496 36.5311C81.8496 38.4111 82.5596 40.5311 84.2196 42.1311C86.7196 40.3211 85.0996 34.9811 88.4396 33.5711C90.4396 33.6911 90.8696 37.3411 88.0896 38.0011C87.1431 39.2189 86.5111 40.6511 86.2496 42.1711C87.0196 42.3111 88.9696 43.1711 90.3896 42.5711C94.9196 39.1611 93.9696 48.9311 90.2096 44.2411C89.2096 44.2411 88.1196 43.9011 85.5996 43.8811C85.4896 46.8211 90.4496 49.3211 89.3096 52.8811C88.2296 53.2111 86.0296 52.4211 86.9796 50.4511L84.3096 45.3811Z" fill="#FFC711"/>
<path d="M116.45 96.5614C116.45 92.5614 112.94 88.5614 112.12 83.4414C112.9 80.5214 114.45 77.1714 112.12 74.1714C107 68.8514 101 68.7414 95.8501 62.5414C88.3101 59.6914 78.2101 64.7414 75.6201 73.0014C71.2001 72.4614 63.9301 74.0014 67.0401 80.9114C47.2701 103.011 90.0401 124.811 100.42 108.781C108.38 109.431 119.62 108.181 116.45 96.5614V96.5614Z" fill="#FF4D54"/>
<path fill-rule="evenodd" clip-rule="evenodd" d="M101.54 92.3299C102.2 70.3399 71.0003 73.5899 75.9003 94.9999C77.6303 107.08 103.21 104.92 101.54 92.3299Z" fill="#FFC711"/>
<path fill-rule="evenodd" clip-rule="evenodd" d="M95.4304 70.191C94.4304 67.191 90.9104 72.751 92.1404 74.921C94.2804 75.931 94.6004 72.341 95.4304 70.191Z" fill="#3F3029"/>
<path fill-rule="evenodd" clip-rule="evenodd" d="M100.74 100.271C100.52 101.141 103.19 107.521 104.23 103.691C103.54 102.931 102 95.1814 100.74 100.271Z" fill="#3F3029"/>
<path fill-rule="evenodd" clip-rule="evenodd" d="M87.9295 72.3306H87.7695C88.2995 66.3806 83.9795 71.4506 86.9195 75.4406C87.7795 74.9406 87.6095 74.2406 87.9295 72.3306V72.3306Z" fill="#3F3029"/>
<path fill-rule="evenodd" clip-rule="evenodd" d="M103.16 82.39C103.66 82.64 109.26 80.71 106.28 79.5C105.46 79.53 99.9997 80.58 103.16 82.39Z" fill="#3F3029"/>
<path fill-rule="evenodd" clip-rule="evenodd" d="M98.8495 78.0015C101.369 78.2515 106.279 72.6215 99.1995 76.0015C98.1695 75.9115 95.9995 77.2715 98.8495 78.0015Z" fill="#3F3029"/>
<path fill-rule="evenodd" clip-rule="evenodd" d="M107.279 96.8602H107.8C113 94.1502 98.2395 92.7002 107.279 96.8602Z" fill="#3F3029"/>
<path fill-rule="evenodd" clip-rule="evenodd" d="M79.59 103.64C79.48 101.03 73.52 105.3 76.92 106.38C78.0971 105.799 79.0395 104.832 79.59 103.64Z" fill="#3F3029"/>
<path fill-rule="evenodd" clip-rule="evenodd" d="M107 87.2018C103.21 86.3218 103.14 91.0918 108.41 88.4518C108.76 87.6518 109.09 86.9018 107 87.2018Z" fill="#3F3029"/>
<path fill-rule="evenodd" clip-rule="evenodd" d="M96.0001 104.571C94.6601 101.281 92.0001 108.931 95.2101 107.631C95.4101 107.001 95.6601 106.051 96.0001 104.571Z" fill="#3F3029"/>
<path fill-rule="evenodd" clip-rule="evenodd" d="M74.4097 82.4607C74.1297 81.5707 72.0497 79.0407 70.4097 80.3107C70.3197 81.7107 72.6797 82.8707 74.4097 82.4607Z" fill="#3F3029"/>
<path fill-rule="evenodd" clip-rule="evenodd" d="M76.7402 79.7514C76.5802 79.2714 74.0002 75.2914 73.4502 77.8614C73.8902 78.1014 75.5102 81.4014 76.7402 79.7514Z" fill="#3F3029"/>
<path fill-rule="evenodd" clip-rule="evenodd" d="M73.7198 95.3617C73.7198 94.6917 69.6398 95.0717 69.9298 96.8917C70.9298 97.5917 72.5598 96.9817 73.6898 95.5517C73.7047 95.4893 73.7147 95.4257 73.7198 95.3617Z" fill="#3F3029"/>
<path fill-rule="evenodd" clip-rule="evenodd" d="M78.6299 74.5703C80.8399 77.7403 80.5099 77.8703 80.8099 77.0503C77.7199 75.0503 78.5199 77.5703 80.5099 77.8703C80.4299 76.4203 80.0799 75.1203 78.6299 74.5703V74.5703Z" fill="#3F3029"/>
<path fill-rule="evenodd" clip-rule="evenodd" d="M70.5395 89.5708C73.5395 89.7308 72.7195 87.2508 68.9995 88.2908C68.3795 88.7008 68.9995 89.6308 70.5395 89.5708Z" fill="#3F3029"/>
<path fill-rule="evenodd" clip-rule="evenodd" d="M86.8903 105.242C86.5003 103.842 81.9803 105.962 84.4103 107.102C84.7803 106.632 86.0703 106.762 86.8903 105.242Z" fill="#3F3029"/>
<path fill-rule="evenodd" clip-rule="evenodd" d="M77.2602 100.211C77.1502 99.9013 77.1402 99.8013 77.1002 99.7913C74.0502 98.3213 72.3602 103.491 77.2602 100.211Z" fill="#3F3029"/>
<path d="M98.9995 85.9012C91.9995 71.0312 70.6095 83.5912 79.6595 97.9012C84.1295 103.711 101.229 101.281 99.5695 92.3512H99.6695C99.8131 90.1788 99.5865 87.9978 98.9995 85.9012V85.9012Z" fill="#3F3029"/>
<path fill-rule="evenodd" clip-rule="evenodd" d="M81.7404 90.3608C87.6504 113.421 108.74 79.3608 85.6104 84.4308C83.2304 85.2608 81.7204 87.0008 81.7404 90.3608V90.3608Z" fill="#FFC711"/>
<path d="M45.4502 21.7406L42.4002 10.7406C42.0702 9.50061 41.7502 8.26061 41.4502 7.03061L42.1302 6.37061C42.7002 6.25061 43.7602 7.60061 45.2802 10.3706C46.5202 12.6606 47.5902 14.7406 48.4702 16.5906C49.3502 18.4406 49.8402 19.4506 49.9202 19.5906C49.9202 18.9506 49.8302 17.7806 49.7602 16.1106C49.6902 14.4406 49.6302 13.1106 49.5802 12.2106C49.4529 9.83066 49.1656 7.46198 48.7202 5.12061V4.95061C48.6928 4.70787 48.7609 4.46398 48.9102 4.27061C49.047 4.08271 49.245 3.94834 49.4702 3.89061C49.6545 3.84981 49.8474 3.88985 50.0002 4.00061C50.165 4.09906 50.2865 4.25626 50.3402 4.44061C50.9469 6.72061 51.9469 10.1139 53.3402 14.6206C54.7335 19.1273 55.7335 22.5206 56.3402 24.8006C56.4804 25.2158 56.4804 25.6655 56.3402 26.0806C56.1902 26.4806 56.0002 26.7106 55.7802 26.7706C55.3102 26.9006 54.9802 26.5806 54.7802 25.8306L51.4502 13.8306L51.0002 12.3506C51.0702 13.1206 51.1202 14.4806 51.1602 16.4406C51.1629 17.9304 51.243 19.4191 51.4002 20.9006L51.4502 21.0806C51.4608 21.2682 51.4808 21.4551 51.5102 21.6406C51.5102 21.9306 51.5702 22.1706 51.5802 22.3606C51.5902 22.5506 51.5802 22.7706 51.5802 23.0206C51.5762 23.444 51.2896 23.8125 50.8802 23.9206C50.2002 24.1006 49.6202 23.3106 49.1502 21.5306C48.3547 19.0724 47.2598 16.7214 45.8902 14.5306C45.0369 13.0639 44.4769 12.0639 44.2102 11.5306C44.5802 13.0706 44.8702 14.2306 45.0802 15.0006L48.4502 26.6906C48.5594 27.0904 48.5092 27.517 48.3102 27.8806C47.9245 28.0335 47.4852 27.9519 47.1802 27.6706C46.8805 27.3249 46.674 26.9084 46.5802 26.4606L45.4502 21.7406Z" fill="#3F3029"/>
<path d="M63.8401 15.3702L64.2401 19.1002V19.2302C64.2196 19.8236 64.2665 20.4174 64.3801 21.0002C64.49 21.622 64.49 22.2584 64.3801 22.8802C64.2615 23.4988 64.0127 24.0851 63.6501 24.6002C63.3515 25.0843 62.8669 25.4243 62.3101 25.5402C61.7753 25.6328 61.2252 25.5298 60.7601 25.2502C60.2398 24.949 59.787 24.5439 59.4301 24.0602C59.0051 23.4641 58.6336 22.8317 58.3201 22.1702C57.979 21.4633 57.6753 20.7389 57.4101 20.0002C57.1601 19.2802 56.9301 18.5102 56.7101 17.7002C56.4222 16.7333 56.1852 15.7519 56.0001 14.7602C55.8801 14.0602 55.7701 13.4602 55.6701 12.9702C55.5701 12.4802 55.4901 12.0302 55.4101 11.6302C55.3701 11.4302 55.3301 11.2102 55.2901 10.9702C55.2901 10.7202 55.2001 10.4702 55.1501 10.1902C55.0901 9.6302 55.0001 9.1202 55.0001 8.6702C55.0001 8.2202 54.9001 7.7302 54.8701 7.2102C54.8454 6.74053 54.8454 6.26988 54.8701 5.8002C54.8841 5.38764 54.9276 4.97659 55.0001 4.5702C55.0865 4.2026 55.2245 3.84909 55.4101 3.5202C55.7092 2.93438 56.2634 2.52061 56.9101 2.4002C57.4539 2.29221 58.0155 2.31275 58.5501 2.4602C59.0524 2.63007 59.4986 2.93444 59.8401 3.3402C60.1951 3.75641 60.5289 4.19029 60.8401 4.6402C61.2212 5.20973 61.5145 5.83338 61.7101 6.4902C61.9901 7.3002 62.2101 7.9502 62.3701 8.4902C62.6242 9.19999 62.8346 9.92468 63.0001 10.6602C63.2667 11.9469 63.4667 12.9469 63.6001 13.6602L63.8401 15.3702ZM59.3801 5.1602C59.1469 4.76287 58.8295 4.42152 58.4501 4.1602C58.1835 3.96089 57.8506 3.87141 57.5201 3.9102C57.2522 3.94783 57.0144 4.10145 56.8701 4.3302C56.7024 4.61573 56.5936 4.93195 56.5501 5.2602C56.4809 5.67068 56.4341 6.08463 56.4101 6.5002C56.3812 6.99311 56.3812 7.48729 56.4101 7.9802C56.4101 8.5402 56.5001 9.0402 56.5401 9.4902C56.5801 9.9402 56.6501 10.4202 56.7201 10.9602C56.8601 11.8402 56.9601 12.5302 57.0401 13.0302V13.1602C57.2755 14.5653 57.6096 15.9521 58.0401 17.3102C58.5001 18.7802 58.9201 19.9702 59.3101 20.8902C59.6312 21.71 60.0654 22.4808 60.6001 23.1802C61.0701 23.7902 61.5401 24.0502 61.9801 23.9702C62.4201 23.8902 62.6301 23.4802 62.7701 22.7002C62.965 21.7601 63.0423 20.7994 63.0001 19.8402C62.8501 17.8402 62.7101 16.5002 62.5701 15.7102C62.4301 14.9202 62.3401 14.3602 62.2701 14.0002C62.2001 13.6402 62.1001 13.1202 61.9501 12.4302C61.8001 11.7402 61.6501 11.1102 61.4901 10.5202C61.3301 9.9302 61.1301 9.2702 60.9201 8.5202C60.7252 7.87662 60.4914 7.24546 60.2201 6.6302C59.9676 6.125 59.6871 5.63424 59.3801 5.1602Z" fill="#3F3029"/>
<path d="M67.81 6.56053L68.22 10.3505L69.32 17.0805L70.22 22.3205C70.34 23.3205 70.11 23.7905 69.55 23.8605C69.2413 23.9097 68.9345 23.7623 68.78 23.4905C68.5778 23.1928 68.454 22.8488 68.42 22.4905L68.07 17.7805C67.94 16.7805 67.68 15.2505 67.3 13.2305C66.92 11.2105 66.65 9.69053 66.53 8.68053L66.25 6.10053C66.1938 5.17349 65.9878 4.26168 65.64 3.40053L64.07 3.75053C63.8274 3.79157 63.5782 3.74172 63.37 3.61053C63.1691 3.50807 63.0309 3.31391 63 3.09053C63 2.85053 63.18 2.63053 63.62 2.40053C64.1567 2.14539 64.7202 1.95086 65.3 1.82053C66.2689 1.57705 67.2503 1.38677 68.24 1.25053C68.4804 1.2202 68.7239 1.27314 68.93 1.40053C69.1442 1.52778 69.2825 1.75196 69.3 2.00053C69.3362 2.21761 69.2698 2.43924 69.12 2.60053C68.9565 2.76501 68.7408 2.86753 68.51 2.89053L67.46 2.96053L67.16 3.01053C67.4433 4.18069 67.6603 5.36591 67.81 6.56053V6.56053Z" fill="#3F3029"/>
<path d="M78.52 23.2813C78.02 23.2813 77.75 23.0113 77.7 22.3613C77.4067 18.6146 77.05 15.1613 76.63 12.0013C76.1346 11.952 75.6354 11.952 75.14 12.0013C74.7157 12.0229 74.3003 12.1319 73.92 12.3213C74 13.4213 74.21 15.0713 74.55 17.2713C74.89 19.4713 75.1 21.1379 75.18 22.2713C75.1905 22.4633 75.1453 22.6543 75.05 22.8213C74.9593 22.9869 74.7886 23.093 74.6 23.1013C74.07 23.1513 73.54 21.5013 73.03 18.1013C72.3633 13.5479 71.77 8.02128 71.25 1.52128C71.25 1.16128 71.37 0.971283 71.71 0.941283C71.9157 0.932392 72.1208 0.96999 72.31 1.05128C72.4891 1.10558 72.6511 1.20552 72.78 1.34128C72.78 2.05128 72.78 2.79128 72.85 3.57128L73.52 9.57128L73.58 10.6813C73.5965 10.9378 73.6367 11.1922 73.7 11.4413L76.55 11.0013L75.69 1.33128L75.63 0.591283C76.2661 0.460301 76.891 0.859158 77.04 1.49128C77.2022 2.31934 77.3024 3.15833 77.34 4.00128C77.44 5.33128 77.75 8.16128 78.27 12.4713C78.79 16.7813 79.14 20.0213 79.27 22.1713C79.292 22.4323 79.2251 22.6931 79.08 22.9113C78.9645 23.1182 78.7557 23.2562 78.52 23.2813Z" fill="#3F3029"/>
<path d="M83.8707 11.7501H83.1307C82.9065 11.7342 82.6868 11.8185 82.5307 11.9801L82.8507 21.1101L84.4907 21.0001C85.6207 21.0001 86.1907 21.2001 86.2107 21.7201V21.8201C86.0727 22.1079 85.8345 22.3355 85.5407 22.4601C85.272 22.6016 84.9812 22.6963 84.6807 22.7401C84.434 22.7401 84.1007 22.7601 83.6807 22.8001H82.7507C82.0207 22.8001 81.5607 22.6901 81.3807 22.4101C81.289 22.2489 81.244 22.0654 81.2507 21.8801L80.6907 4.70006C80.6513 4.19629 80.5642 3.6974 80.4307 3.21006C80.3039 2.71488 80.2203 2.20966 80.1807 1.70006V1.60006C80.3705 1.21674 80.6055 0.857515 80.8807 0.530056L83.0607 0.190056C83.3902 0.181478 83.7156 0.264564 84.0007 0.430056C84.2699 0.553708 84.4502 0.814491 84.4707 1.11006C84.4707 1.70006 84.0607 2.01006 83.1607 2.04006H82.3107H81.9907L82.3907 6.91006V8.64006V10.3001L82.8107 10.1801C83.1351 10.0766 83.4709 10.0128 83.8107 9.99006C84.0346 9.98307 84.2527 10.0617 84.4207 10.2101C84.5954 10.3577 84.7005 10.5716 84.7107 10.8001C84.7173 11.0267 84.6468 11.2488 84.5107 11.4301C84.3736 11.6476 84.127 11.771 83.8707 11.7501V11.7501Z" fill="#3F3029"/>
<path d="M87.5301 21.63L87.7401 4.27V0.63C87.7232 0.453243 87.7771 0.277004 87.8901 0.14C87.9901 0.04 88.2401 0 88.6501 0C89.0807 0.00535968 89.5046 0.107911 89.8901 0.3C90.3125 0.485144 90.6908 0.757815 91.0001 1.1C91.2814 1.45748 91.5197 1.84683 91.7101 2.26C92.0939 3.09733 92.2885 4.00894 92.2801 4.93C92.2316 6.06848 91.981 7.18927 91.5401 8.24C91.4801 8.37 91.3601 8.66 91.1801 9.09L90.8801 9.85C90.9664 11.7983 91.3301 13.7243 91.9601 15.57C92.2101 16.36 92.5601 17.44 92.9601 18.82C93.3601 20.2 93.7001 21.06 93.8101 21.43V21.5C93.8101 22.17 93.7301 22.56 93.5801 22.67C93.4322 22.7702 93.2586 22.8258 93.0801 22.83C92.7201 22.83 92.3601 22.56 92.0201 22.03V21.93C91.7248 19.154 91.1176 16.4201 90.2101 13.78C89.7001 12.12 89.3501 10.89 89.1501 10.09L89.0901 21.75C89.0986 21.9913 89.0397 22.2303 88.9201 22.44C88.7868 22.6229 88.5645 22.7188 88.3401 22.69C88.1077 22.7079 87.8798 22.6197 87.7201 22.45C87.5793 22.2862 87.5044 22.0759 87.5101 21.86L87.5301 21.63ZM89.2701 1.36L89.0801 7.36V8.72C89.4477 8.37151 89.7824 7.98989 90.0801 7.58L90.5501 5.03C90.5664 4.8771 90.5664 4.7229 90.5501 4.57C90.5346 3.98339 90.4405 3.40152 90.2701 2.84C90.0901 2 89.7301 1.45 89.2701 1.36V1.36Z" fill="#3F3029"/>
<path d="M96.0699 7.00085C95.8999 7.00085 95.8199 6.77085 95.8299 6.44085C95.907 5.76493 96.0374 5.09618 96.2199 4.44085C96.4626 3.41288 96.7973 2.40883 97.2199 1.44085C97.6599 0.440846 98.0999 -0.0291537 98.5199 -0.00915372C98.9399 0.0108463 99.0499 0.220846 99.0299 0.660846C98.9728 1.59504 98.7877 2.51697 98.4799 3.40085C98.2137 4.31806 97.8198 5.19329 97.3099 6.00085C96.8499 6.68085 96.4399 7.00085 96.0699 7.00085V7.00085Z" fill="#3F3029"/>
<path d="M99.5699 22.4216C99.5699 21.8916 99.8499 21.6516 100.29 21.6816C100.588 21.7278 100.876 21.826 101.14 21.9716C101.424 22.1303 101.737 22.2322 102.06 22.2716C102.408 22.2556 102.734 22.0963 102.96 21.8316C103.31 21.4899 103.589 21.082 103.78 20.6316C104.176 19.7724 104.426 18.8531 104.52 17.9116C104.577 17.0118 104.499 16.1086 104.29 15.2316C104.085 14.299 103.801 13.3856 103.44 12.5016C103.09 11.6416 102.74 10.7916 102.38 9.93159C101.588 8.20687 101.221 6.31738 101.31 4.42159C101.328 3.06254 101.947 1.78128 103 0.921585C103.536 0.503321 104.213 0.306498 104.89 0.371585C105.25 0.405935 105.594 0.533458 105.89 0.741585C106.19 0.940812 106.418 1.23199 106.54 1.57158L105.98 2.16158C105.574 2.15566 105.18 2.02662 104.85 1.79158C104.473 1.80635 104.115 1.96359 103.85 2.23158C103.32 2.76784 103.003 3.47887 102.96 4.23158C102.893 5.0537 102.936 5.88112 103.09 6.69159C103.222 7.4352 103.434 8.16261 103.72 8.86158C103.99 9.51158 104.28 10.2216 104.58 10.9716C104.88 11.7216 105.19 12.4616 105.46 13.1616C106.083 14.7955 106.329 16.5492 106.18 18.2916C106.115 19.5817 105.708 20.8312 105 21.9116C104.653 22.4456 104.178 22.8853 103.62 23.1916C103.061 23.5088 102.42 23.6483 101.78 23.5916C101.203 23.5771 100.637 23.4263 100.13 23.1516C99.7299 22.9016 99.5499 22.6616 99.5699 22.4216V22.4216Z" fill="#3F3029"/>
<path d="M119.52 14.0802V14.7002C119.212 16.3791 118.587 17.9841 117.68 19.4302C116.838 21.101 115.568 22.5191 114 23.5402C113.369 23.9371 112.622 24.1097 111.88 24.0302C111.518 23.987 111.173 23.8491 110.88 23.6302C110.62 23.4447 110.491 23.1245 110.55 22.8102C111.05 22.4302 111.43 21.3102 111.71 19.4702C111.87 18.3836 112.02 16.7536 112.16 14.5802C112.3 12.4069 112.45 10.7869 112.61 9.72024L113.18 6.53024C113.256 5.82557 113.256 5.11491 113.18 4.41024C113.115 3.77862 113.115 3.14186 113.18 2.51024C113.28 1.83024 114.08 1.61024 115.58 1.83024L116.02 1.90024C118.02 2.19357 119.297 3.5269 119.85 5.90024C120.26 8.07109 120.26 10.2994 119.85 12.4702L119.65 13.8302C119.584 13.8994 119.539 13.9862 119.52 14.0802V14.0802ZM113.18 19.6202L112.76 22.4202C113.621 22.0171 114.385 21.4339 115 20.7102C115.681 19.9283 116.241 19.0485 116.66 18.1002C117.472 16.2985 118.034 14.3942 118.33 12.4402C118.683 10.671 118.683 8.84948 118.33 7.08024C118.118 5.94273 117.517 4.91428 116.63 4.17024C116.131 3.81506 115.549 3.59152 114.94 3.52024C114.667 5.28024 114.387 7.9469 114.1 11.5202C113.814 15.0936 113.507 17.7936 113.18 19.6202V19.6202Z" fill="#3F3029"/>
<path d="M125.051 26.3214C124.451 26.2014 124.211 25.8914 124.321 25.3914L125.111 21.6114C124.707 21.2649 124.242 20.9969 123.741 20.8214C123.135 20.5703 122.518 20.3501 121.891 20.1614C121.553 20.5726 121.283 21.0351 121.091 21.5314L120.291 23.3814C120.075 23.8995 119.781 24.3816 119.421 24.8114C118.661 24.6514 118.281 24.3714 118.271 23.9614C118.611 23.6414 119.451 21.8014 120.771 18.4514C122.091 15.1014 123.171 12.4514 123.961 10.5914C124.624 8.98147 125.389 7.41502 126.251 5.90141C126.971 4.65141 127.541 4.07141 127.951 4.16141C128.281 4.21412 128.586 4.3719 128.821 4.61141C128.681 5.30141 128.471 7.20141 128.211 10.3214C127.951 13.4414 127.721 15.4314 127.531 16.3214C127.341 17.2114 127.131 18.7214 126.901 20.8314C126.671 22.9414 126.441 24.5214 126.221 25.5514C126.206 25.8274 126.061 26.08 125.83 26.232C125.599 26.3839 125.31 26.4171 125.051 26.3214V26.3214ZM125.831 16.6214C126.021 14.8714 126.211 13.2114 126.401 11.6214C126.591 10.0314 126.731 9.08141 126.791 8.76141C126.826 8.5722 126.873 8.38523 126.931 8.20141C126.557 8.45474 125.754 10.0947 124.521 13.1214C123.291 16.1214 122.521 18.0714 122.351 18.9014C122.962 19.236 123.614 19.4914 124.291 19.6614C124.674 19.7531 125.066 19.8033 125.461 19.8114C125.521 19.4314 125.641 18.3614 125.831 16.6214Z" fill="#3F3029"/>
<path d="M129.19 27.0608L130.86 21.5908C131.068 20.7533 131.208 19.9006 131.28 19.0408C131.364 18.1271 131.518 17.2211 131.74 16.3308C131.953 15.5074 132.064 14.6611 132.07 13.8108C132.105 12.8736 132.081 11.9352 132 11.0008C131.796 9.19247 131.904 7.36246 132.32 5.59081C132.376 5.438 132.51 5.32712 132.67 5.30081C132.847 5.25129 133.034 5.25129 133.21 5.30081C133.39 5.34748 133.52 5.61748 133.6 6.11081C133.691 6.73648 133.728 7.36882 133.71 8.00081C133.71 8.73081 133.66 9.45081 133.61 10.1708C133.56 10.8908 133.52 11.5808 133.46 12.2508C133.4 12.9208 133.38 13.3508 133.38 13.5508C133.46 13.3908 133.62 13.0108 133.84 12.4008C134.06 11.7908 134.31 11.1608 134.56 10.5208C134.81 9.88081 135.09 9.23081 135.39 8.59081C136.07 7.13081 136.66 6.47081 137.17 6.59081C137.68 6.71081 137.9 6.90081 137.84 7.11081C137.318 8.69667 136.649 10.2301 135.84 11.6908C135.025 13.1655 134.355 14.7162 133.84 16.3208L133.49 17.3208L133.37 17.7608L131.37 25.3608L131.08 26.8108L130.9 27.4508C130.841 27.689 130.67 27.8832 130.44 27.9708C130.228 28.07 129.987 28.0912 129.76 28.0308C129.555 27.9831 129.377 27.8529 129.27 27.6708C129.14 27.4952 129.109 27.2642 129.19 27.0608V27.0608Z" fill="#3F3029"/>
<path d="M50.8406 124.36L48.9106 127.661L45.8006 133.72L43.4106 138.48C42.9406 139.32 42.4106 139.601 41.9606 139.321C41.681 139.176 41.5213 138.873 41.5606 138.56C41.5752 138.207 41.6784 137.863 41.8606 137.56L44.3806 133.56C44.8806 132.67 45.5706 131.291 46.4606 129.441C47.3506 127.591 48.0406 126.21 48.5406 125.32L49.8506 123.09C50.3726 122.31 50.7612 121.448 51.0006 120.54L49.5306 119.89C49.3177 119.775 49.1489 119.592 49.0506 119.371C48.9403 119.168 48.9403 118.923 49.0506 118.721C49.1606 118.511 49.4706 118.45 49.9606 118.54C50.541 118.652 51.1077 118.827 51.6506 119.06C52.7506 119.53 53.6506 119.96 54.3606 120.35C54.5681 120.472 54.7299 120.658 54.8206 120.88C54.9259 121.091 54.9259 121.34 54.8206 121.551C54.7201 121.749 54.5303 121.887 54.3106 121.92C54.0853 121.96 53.8532 121.914 53.6606 121.79L52.7706 121.231C52.6826 121.174 52.5888 121.127 52.4906 121.09C52.0063 122.212 51.4553 123.304 50.8406 124.36V124.36Z" fill="#3F3029"/>
<path d="M51.4897 144.131C51.0297 143.931 50.9297 143.531 51.1897 142.931C52.6764 139.478 53.9731 136.248 55.0797 133.241C54.6671 132.96 54.2285 132.719 53.7697 132.521C53.383 132.345 52.9645 132.25 52.5397 132.241C52.0997 133.248 51.5164 134.808 50.7897 136.921C50.0631 139.035 49.4664 140.611 48.9997 141.651C48.9189 141.824 48.7905 141.969 48.6297 142.071C48.4678 142.16 48.2717 142.16 48.1097 142.071C47.6097 141.871 47.9097 140.161 49.0297 136.941C50.5431 132.588 52.5864 127.418 55.1597 121.431C55.1936 121.289 55.2926 121.172 55.4267 121.115C55.5608 121.058 55.714 121.068 55.8397 121.141C56.0277 121.223 56.1925 121.35 56.3197 121.511C56.4523 121.645 56.5486 121.81 56.5997 121.991C56.2597 122.611 55.9397 123.271 55.5997 123.991L53.3797 129.661L52.9097 130.661C52.8088 130.895 52.7253 131.135 52.6597 131.381L55.3897 132.321L59.1297 123.321L59.4297 122.601C60.0581 122.781 60.43 123.428 60.2697 124.061C60.0245 124.861 59.7238 125.643 59.3697 126.401C58.8364 127.635 57.7997 130.278 56.2597 134.331C54.7197 138.385 53.5197 141.408 52.6597 143.401C52.5584 143.643 52.3788 143.844 52.1497 143.971C51.9671 144.125 51.7227 144.185 51.4897 144.131V144.131Z" fill="#3F3029"/>
<path d="M61.8303 135.81L61.1403 135.55C60.9383 135.452 60.7022 135.452 60.5003 135.55L57.6803 144.24L59.2703 144.66C60.3503 145.01 60.8003 145.43 60.6403 145.93V146.02C60.4114 146.244 60.1099 146.379 59.7903 146.4C59.4925 146.452 59.188 146.452 58.8903 146.4C58.6436 146.34 58.3336 146.25 57.9603 146.13L57.0803 145.84C56.3803 145.62 56.0003 145.34 55.9203 145.01C55.8781 144.832 55.8781 144.648 55.9203 144.47L61.2303 128.11C61.3625 127.619 61.4528 127.117 61.5003 126.61C61.5447 126.103 61.6351 125.601 61.7703 125.11V125.01C62.0751 124.721 62.4104 124.466 62.7703 124.25L64.9403 124.68C65.24 124.784 65.5061 124.967 65.7103 125.21C65.9529 125.394 66.0661 125.703 66.0003 126C65.8203 126.56 65.3003 126.7 64.4503 126.42L63.6503 126.13L63.3403 126.05L62.0503 130.77C61.9303 131.143 61.7303 131.683 61.4503 132.39C61.1703 133.09 60.9803 133.61 60.8703 133.94H61.3203C61.6583 133.942 61.9945 133.99 62.3203 134.08C62.5341 134.152 62.7128 134.302 62.8203 134.5C62.9373 134.692 62.9629 134.927 62.8903 135.14C62.8212 135.357 62.6801 135.544 62.4903 135.67C62.3106 135.83 62.0595 135.883 61.8303 135.81V135.81Z" fill="#3F3029"/>
<path d="M68.3204 140.742L70.3204 128.892V128.722C70.5204 127.722 70.8104 127.042 71.1804 126.822C71.3796 126.716 71.6087 126.681 71.8304 126.722C73.0716 126.891 74.1722 127.606 74.8304 128.672C75.4473 129.787 75.629 131.091 75.3404 132.332C75.1404 133.284 74.7229 134.177 74.1204 134.942C73.5934 135.703 72.8855 136.322 72.0604 136.742C73.0672 137.682 73.7647 138.906 74.0604 140.252C74.3205 141.572 74.3205 142.931 74.0604 144.252C73.8877 145.011 73.5459 145.722 73.0604 146.332C72.6561 146.913 72.1864 147.447 71.6604 147.922C71.188 148.315 70.6401 148.608 70.0504 148.782C69.4009 148.974 68.7145 149.005 68.0504 148.872H67.9304C67.0304 148.702 66.6204 148.372 66.7104 147.872L68.3204 140.742ZM71.3204 146.502C72.007 145.87 72.4672 145.03 72.6304 144.112C72.8001 143.256 72.8805 142.384 72.8704 141.512C72.8746 140.918 72.8006 140.326 72.6504 139.752C72.538 139.368 72.3731 139.001 72.1604 138.662C71.9954 138.374 71.7703 138.125 71.5004 137.932L70.5004 137.742C70.0804 140.432 69.5004 143.662 68.8104 147.412C69.7184 147.445 70.6028 147.118 71.2704 146.502H71.3204ZM72.5404 128.502C72.2604 128.502 72.0604 128.772 71.9304 129.502C71.8004 130.232 71.6104 131.292 71.3604 132.792C71.1104 134.292 70.9304 135.372 70.8004 136.042C71.4343 135.954 71.9956 135.587 72.3304 135.042C72.7173 134.524 73.0714 133.983 73.3904 133.422C73.6804 132.892 73.8704 132.572 73.9504 132.422L74.1504 131.422C74.2497 130.807 74.1405 130.177 73.8404 129.632C73.5964 129.069 73.0919 128.662 72.4904 128.542L72.5404 128.502Z" fill="#3F3029"/>
<path d="M80.2298 139.48L79.4998 139.38C79.2811 139.334 79.0532 139.389 78.8798 139.53L77.8798 148.61L79.5298 148.7C80.6498 148.82 81.1798 149.14 81.1298 149.7V149.8C80.9491 150.067 80.6799 150.262 80.3698 150.35C80.084 150.452 79.7829 150.502 79.4798 150.5C79.2298 150.5 78.9098 150.5 78.4798 150.43L77.5598 150.33C76.8298 150.25 76.3898 150.06 76.2498 149.75C76.1858 149.578 76.1652 149.393 76.1898 149.21L78.0198 132.11C78.0654 131.605 78.0654 131.096 78.0198 130.59C77.968 130.062 77.9613 129.53 77.9998 129V128.9C78.2434 128.535 78.5286 128.2 78.8498 127.9H81.0598C81.3766 127.941 81.6769 128.065 81.9298 128.26C82.1864 128.42 82.3329 128.709 82.3098 129.01C82.2398 129.59 81.7698 129.84 80.8798 129.74L80.0298 129.62H79.7098L79.4298 134.5C79.4298 134.9 79.2998 135.5 79.1698 136.21C79.0398 136.92 78.9598 137.51 78.9298 137.85L79.3698 137.8C79.6991 137.737 80.0353 137.717 80.3698 137.74C80.593 137.765 80.7975 137.877 80.9398 138.05C81.0945 138.214 81.1711 138.436 81.1498 138.66C81.1246 138.888 81.0222 139.099 80.8598 139.26C80.705 139.442 80.4641 139.526 80.2298 139.48V139.48Z" fill="#3F3029"/>
<path d="M83 150.271C83 149.744 83.23 149.484 83.69 149.491C83.9926 149.522 84.2872 149.606 84.56 149.741C84.8487 149.891 85.1653 149.98 85.49 150.001C85.8342 149.969 86.1496 149.795 86.36 149.521C86.6968 149.167 86.9587 148.749 87.13 148.291C87.4823 147.413 87.6916 146.485 87.75 145.541C87.7591 144.639 87.6413 143.74 87.4 142.871C87.1425 141.948 86.808 141.048 86.4 140.181C86.02 139.341 85.62 138.501 85.22 137.661C84.3571 135.974 83.908 134.106 83.91 132.211C83.865 130.842 84.4422 129.526 85.48 128.631C85.9924 128.189 86.6543 127.96 87.33 127.991C87.6868 128.01 88.0321 128.124 88.33 128.321C88.6434 128.502 88.8865 128.784 89.02 129.121L88.49 129.741C88.0854 129.749 87.6879 129.634 87.35 129.411C86.9647 129.435 86.6048 129.611 86.35 129.901C85.8335 130.471 85.5452 131.212 85.54 131.981C85.5171 132.802 85.6011 133.622 85.79 134.421C85.9542 135.161 86.1955 135.881 86.51 136.571L87.51 138.641C87.86 139.381 88.18 140.101 88.51 140.781C89.218 142.382 89.5597 144.121 89.51 145.871C89.4674 147.158 89.0918 148.412 88.42 149.511C88.1014 150.059 87.6512 150.52 87.11 150.851C86.5658 151.192 85.932 151.363 85.29 151.341C84.7095 151.344 84.1356 151.218 83.61 150.971C83.18 150.741 83 150.511 83 150.271V150.271Z" fill="#3F3029"/>
<path d="M94.8603 133.44L94.9703 137.25L95.5403 144.04L96.0303 149.34C96.0303 150.34 95.8103 150.8 95.2403 150.83C94.93 150.847 94.6393 150.678 94.5003 150.4C94.3313 150.093 94.2355 149.751 94.2203 149.4V144.67C94.2203 143.67 94.0303 142.12 93.8103 140.08C93.5903 138.04 93.4403 136.5 93.4003 135.48L93.3203 132.89C93.3382 131.961 93.203 131.035 92.9203 130.15L91.3303 130.38C91.0856 130.395 90.843 130.328 90.6403 130.19C90.446 130.065 90.3263 129.851 90.3203 129.62C90.3203 129.39 90.5403 129.18 91.0003 128.99C91.5557 128.778 92.1324 128.628 92.7203 128.54C93.7133 128.372 94.7148 128.259 95.7203 128.2C95.9583 128.189 96.1923 128.264 96.3803 128.41C96.5787 128.538 96.702 128.755 96.7103 128.99C96.728 129.214 96.639 129.433 96.4703 129.58C96.2957 129.725 96.0771 129.806 95.8503 129.81H94.7903H94.4903C94.6811 131.012 94.8046 132.224 94.8603 133.44V133.44Z" fill="#3F3029"/>
<path d="M103.26 143.261L101.07 132.001C100.84 130.741 100.62 129.481 100.42 128.221L101.15 127.621C101.73 127.554 102.673 128.977 103.98 131.891C105.04 134.271 105.98 136.421 106.67 138.331C107.36 140.241 107.81 141.331 107.88 141.451C107.88 140.801 107.94 139.641 108 137.961C108.06 136.281 108.1 134.961 108.11 134.061C108.174 131.68 108.074 129.298 107.81 126.931V126.761C107.797 126.517 107.884 126.279 108.05 126.101C108.199 125.923 108.403 125.8 108.63 125.751C108.834 125.709 109.047 125.76 109.21 125.891C109.367 126.002 109.475 126.171 109.51 126.361C109.937 128.681 110.667 132.141 111.7 136.741C112.733 141.341 113.467 144.801 113.9 147.121C113.983 147.553 113.931 148 113.75 148.401C113.57 148.781 113.36 149.001 113.13 149.041C112.66 149.131 112.35 148.791 112.21 148.041L109.8 135.801L109.53 134.321C109.53 135.101 109.53 136.461 109.36 138.421C109.25 139.905 109.217 141.393 109.26 142.881V143.071V143.621V144.351C109.245 144.569 109.218 144.786 109.18 145.001C109.127 145.418 108.82 145.757 108.41 145.851C107.72 145.981 107.21 145.141 106.87 143.331C106.274 140.802 105.368 138.356 104.17 136.051C103.44 134.521 102.96 133.491 102.73 132.941C102.98 134.501 103.18 135.671 103.32 136.461L105.78 148.381C105.851 148.79 105.766 149.212 105.54 149.561C105.143 149.68 104.713 149.564 104.43 149.261C104.189 148.881 104.041 148.449 104 148.001L103.26 143.261Z" fill="#3F3029"/>
<path d="M121.931 136.401L122.811 140.051V140.171C122.858 140.769 122.976 141.36 123.161 141.931C123.353 142.528 123.431 143.155 123.391 143.781C123.364 144.413 123.197 145.032 122.901 145.591C122.667 146.11 122.229 146.508 121.691 146.691C121.174 146.85 120.618 146.821 120.121 146.611C119.565 146.385 119.064 146.045 118.651 145.611C118.143 145.081 117.691 144.502 117.301 143.881C116.865 143.218 116.468 142.53 116.111 141.821C115.771 141.131 115.441 140.401 115.111 139.631C114.621 138.441 114.271 137.511 114.061 136.831C113.851 136.151 113.671 135.571 113.511 135.091C113.351 134.611 113.201 134.181 113.071 133.801L112.871 133.161C112.804 132.921 112.724 132.671 112.631 132.411C112.471 131.861 112.341 131.411 112.221 130.931C112.101 130.451 112.001 130.011 111.911 129.491C111.82 129.032 111.757 128.568 111.721 128.101C111.686 127.688 111.686 127.274 111.721 126.861C111.755 126.484 111.842 126.114 111.981 125.761C112.205 125.149 112.694 124.672 113.311 124.461C113.837 124.279 114.399 124.225 114.951 124.301C115.471 124.404 115.952 124.65 116.341 125.011C116.781 125.401 117.181 125.781 117.541 126.161C117.986 126.684 118.356 127.266 118.641 127.891C119.021 128.651 119.321 129.271 119.551 129.741C119.863 130.433 120.141 131.141 120.381 131.861C120.811 133.111 121.141 134.091 121.381 134.791L121.931 136.401ZM116.181 126.851C115.901 126.48 115.542 126.176 115.131 125.961C114.83 125.78 114.467 125.733 114.131 125.831C113.87 125.903 113.654 126.086 113.541 126.331C113.407 126.647 113.339 126.988 113.341 127.331V128.581C113.378 129.072 113.451 129.56 113.561 130.041C113.671 130.591 113.781 131.041 113.881 131.531C113.981 132.021 114.111 132.431 114.251 132.951L114.841 134.951V135.071C115.272 136.439 115.797 137.775 116.411 139.071C117.061 140.471 117.631 141.601 118.131 142.461C118.557 143.231 119.088 143.938 119.711 144.561C120.261 145.101 120.711 145.301 121.191 145.171C121.671 145.041 121.771 144.601 121.801 143.811C121.823 142.863 121.729 141.916 121.521 140.991C121.121 139.061 120.801 137.711 120.571 136.991C120.341 136.271 120.161 135.681 120.041 135.331C119.921 134.981 119.761 134.481 119.521 133.821C119.281 133.161 119.061 132.551 118.821 131.981C118.581 131.411 118.311 130.791 118.001 130.111C117.723 129.5 117.409 128.905 117.061 128.331C116.795 127.822 116.501 127.328 116.181 126.851Z" fill="#3F3029"/>
<path d="M125.48 137.49L120.48 127.16C119.94 126 119.41 124.84 118.9 123.67L119.45 122.9C120.004 122.687 121.277 123.827 123.27 126.32C124.89 128.36 126.3 130.213 127.5 131.88C128.69 133.55 129.35 134.45 129.5 134.59C129.36 133.96 129.1 132.82 128.74 131.18C128.38 129.54 128.08 128.28 127.87 127.38C127.327 125.061 126.625 122.783 125.77 120.56L125.7 120.4C125.628 120.167 125.653 119.914 125.77 119.7C125.867 119.49 126.033 119.321 126.24 119.22C126.43 119.13 126.651 119.13 126.84 119.22C127.017 119.291 127.16 119.427 127.24 119.6C128.254 121.74 129.837 124.903 131.99 129.09C134.14 133.28 135.73 136.45 136.73 138.58C136.925 138.976 136.989 139.425 136.91 139.86C136.83 140.28 136.68 140.54 136.47 140.63C136.04 140.84 135.65 140.63 135.32 139.88L129.93 128.65L129.3 127.29C129.5 128.03 129.79 129.37 130.17 131.29C130.43 132.756 130.763 134.208 131.17 135.64L131.25 135.81C131.29 135.989 131.34 136.166 131.4 136.34C131.476 136.57 131.539 136.803 131.59 137.04C131.634 137.255 131.664 137.472 131.68 137.69C131.747 138.104 131.53 138.512 131.15 138.69C130.52 138.99 129.81 138.3 129.03 136.63C127.808 134.342 126.314 132.21 124.58 130.28C123.48 128.98 122.76 128.1 122.4 127.63C123.03 129.07 123.52 130.16 123.86 130.88L129.24 141.8C129.423 142.174 129.448 142.607 129.31 143C128.961 143.217 128.519 143.217 128.17 143C127.815 142.709 127.536 142.334 127.36 141.91L125.48 137.49Z" fill="#3F3029"/>
<path fill-rule="evenodd" clip-rule="evenodd" d="M43.6397 102.53L40.0797 99.0002C34.5297 99.8202 39.3697 91.4302 40.5397 98.0002L44.1897 101.21C45.5397 100.05 42.6897 94.7002 46.1897 94.5402C47.8897 94.1202 48.5697 97.9202 45.8397 98.0502C45.7001 99.2928 45.7405 100.549 45.9597 101.78C47.5799 101.577 49.1647 101.154 50.6697 100.52C51.2497 96.3802 59.6097 101.17 46.2697 103.21C47.9297 104.92 50.0197 106.5 51.7697 108.89C51.2097 110.79 47.7697 110.96 48.4797 107.41C48.1297 106.81 47.1397 105.11 45.4797 104.74C44.3497 106.32 47.1597 110.83 43.8797 111.05C40.7697 110.25 44.8797 107.14 43.7697 104.05C42.5597 104.05 41.6897 104.92 40.5697 105.32C41.2297 109.64 33.3997 105.43 38.7797 103.89C40.2497 104.5 41.4797 103.81 43.6397 102.53V102.53Z" fill="#FFC711"/>
<path fill-rule="evenodd" clip-rule="evenodd" d="M57.5899 46.2502C60.6799 35.9702 68.2599 39.8302 64.5899 49.3902C70.7599 49.3002 78.5899 50.6602 66.9599 55.9702C72.8599 58.9702 74.4599 63.7902 64.3199 62.1202C66.3199 65.8802 67.3199 74.0502 59.6899 66.9802C58.6899 75.0402 54.0199 73.9002 53.1599 64.8502C51.1599 67.1202 45.8199 70.2002 47.1099 63.1202C37.6599 64.2702 38.4299 58.0102 47.2199 54.9802C45.5699 53.7902 42.3199 55.7502 39.9899 53.2502C38.3499 50.1102 41.8499 49.1802 45.8399 49.7202C43.5699 44.8702 44.7499 40.9902 51.8399 46.3802C48.1699 33.6902 55.9999 30.3402 57.5899 46.2502V46.2502ZM56.3999 50.8002C56.6199 48.8002 54.5899 45.9502 53.9899 50.7102C52.0699 49.8502 48.7399 47.6102 51.6699 53.1402C50.1199 53.5502 47.1699 56.8402 52.4799 57.2402C51.0599 59.9902 52.9199 66.0302 56.0599 59.4802C57.3399 61.0702 61.0599 63.4802 59.2899 57.4802C62.0899 58.0202 66.3399 55.2202 59.3499 54.0902C61.8199 51.3302 62.7499 48.4502 56.3999 50.8002Z" fill="#FFA495"/>
<path fill-rule="evenodd" clip-rule="evenodd" d="M57.9097 55.2402C57.7597 59.1102 51.0897 55.9202 55.6497 53.2402C56.4697 53.3902 57.6197 53.3802 57.9097 55.2402Z" fill="#FFC711"/>
<path fill-rule="evenodd" clip-rule="evenodd" d="M13.4496 95.1305C13.8517 96.7066 14.3698 98.2508 14.9996 99.7505C19.6896 93.1005 27.5896 99.0005 16.9296 103.32C16.8836 104.796 17.4607 106.222 18.5196 107.25C20.2196 102.67 30.2996 102.25 20.4696 110.25C21.0945 111.714 21.998 113.042 23.1296 114.16C27.1296 107.61 30.6796 111.23 26.3596 117.75C26.9222 118.828 27.8899 119.637 29.0496 120C29.8496 111.57 37.4396 114.32 32.0496 122.16C33.0712 123.31 34.3636 124.187 35.8096 124.71C37.3096 119.24 42.9796 117.09 39.8796 126.58C45.2296 126.66 46.2696 130.05 38.6196 128.58C36.6896 129.46 32.3296 131.8 29.9296 129.27C28.8296 126.82 31.0296 126.43 33.6896 126.47C32.8338 125.324 31.668 124.446 30.3296 123.94C27.7696 128.34 16.1296 123.63 26.7796 121.4C25.9296 120.57 25.3896 120.03 24.7796 119.4C18.9396 122.52 8.30958 113.68 21.7096 116.08L18.5596 111.44C12.1496 113.78 2.12958 103.58 16.2196 108.25C16.2896 107.25 15.4296 106.25 14.7196 104.25C8.80958 104.97 0.579578 95.0905 12.7196 99.3405C12.7196 98.0405 11.9796 97.0605 11.7196 95.8205C4.09958 97.1005 1.09958 84.5405 11.5296 92.6705C12.5296 88.7905 9.32958 82.6705 14.5296 79.4805C20.7496 79.6305 13.6996 88.3405 13.5296 92.2705C22.2896 85.8105 25.3896 94.9005 13.4496 95.1305V95.1305Z" fill="#6FC8A6"/>
<path fill-rule="evenodd" clip-rule="evenodd" d="M24.8398 138.421C24.8998 140.031 27.1498 141.421 29.2698 141.501C28.3998 147.431 36.2698 147.591 33.8698 140.561C39.8698 140.191 38.7398 134.411 33.4898 136.091C34.0698 130.501 27.4898 130.911 28.6298 136.781C27.1098 136.471 24.9998 136.411 24.8398 138.421V138.421ZM30.1498 138.821C30.3398 138.691 30.0798 138.241 31.0898 137.591C31.377 137.424 31.7248 137.397 32.0344 137.518C32.3441 137.638 32.5817 137.894 32.6798 138.211C32.8498 138.721 32.8198 138.331 32.5098 139.281C32.1498 140.051 30.3198 140.781 30.1498 138.821Z" fill="#FFA53B"/>
<path fill-rule="evenodd" clip-rule="evenodd" d="M24.6403 63.9406C25.5803 64.4406 24.8703 64.8006 27.4203 65.3206C25.2103 69.4706 31.7803 72.7906 32.2103 66.3206C36.3003 67.5606 38.2903 59.9706 32.2103 61.5006C34.5603 56.4206 28.7803 55.0206 28.2103 61.1706C26.4503 59.6106 22.0003 60.8106 24.6403 63.9406ZM28.7503 62.2706C29.2003 62.2706 29.7003 61.6906 30.4903 62.8806C33.1003 65.4806 26.2403 66.2506 28.7503 62.2706Z" fill="#FFA53B"/>
<path fill-rule="evenodd" clip-rule="evenodd" d="M29.0998 20.8005C29.9898 21.0005 31.5298 20.2005 32.4598 18.9205C34.2398 23.4205 41.0598 21.9805 36.1598 16.9805C41.5998 16.5405 38.9598 9.27049 34.2198 12.3605C32.1498 7.36049 25.5198 10.6005 30.0398 15.2605C28.5398 15.7605 26.1998 19.7105 29.0998 20.8005V20.8005ZM31.2798 15.6405C31.1498 14.0605 35.1398 13.7005 33.9498 16.3205C33.9998 17.7605 31.1998 18.2305 31.2798 15.6405Z" fill="#FFA53B"/>
<path fill-rule="evenodd" clip-rule="evenodd" d="M13.4495 59.7614C13.8499 58.1848 14.368 56.6405 14.9995 55.1414C19.6895 61.7914 27.5895 55.8914 16.9295 51.5614C16.8863 50.0896 17.4632 48.6673 18.5195 47.6414C20.2195 52.2214 30.2995 52.6414 20.4695 44.6414C21.0942 43.175 21.9976 41.8437 23.1295 40.7214C27.1295 47.2714 30.6795 43.6514 26.3595 37.1414C26.9272 36.0485 27.9113 35.2302 29.0895 34.8714C29.8895 43.3014 37.4795 40.5514 32.0895 32.7014C33.1142 31.5576 34.4058 30.685 35.8495 30.1614C37.3495 35.6314 43.0195 37.7814 39.9195 28.2914C45.2795 28.2114 46.3095 24.8214 38.6595 26.2914C36.7295 25.4014 32.3695 23.0714 29.9695 25.5914C28.8695 28.0514 31.0695 28.4314 33.7295 28.3914C32.8688 29.5767 31.6799 30.4841 30.3095 31.0014C27.7395 26.6014 16.1095 31.3014 26.7595 33.5414C25.9095 34.3714 25.3695 34.9114 24.7595 35.4914C18.9995 32.3214 8.31948 41.1514 21.7195 38.7614L18.5695 43.4014C12.1595 41.0614 2.13948 51.2614 16.2295 46.5914C16.2995 47.5914 15.4395 48.5914 14.7295 50.5914C8.81948 49.8714 0.589481 59.7514 12.7295 55.5014C12.7295 56.7914 11.9895 57.7814 11.7295 59.0214C4.10948 57.7414 1.09948 70.3014 11.5395 62.1714C12.5395 66.0514 9.33948 72.1714 14.5395 75.3614C20.7595 75.2114 13.7095 66.5014 13.5395 62.5714C22.2895 69.0814 25.3895 60.0014 13.4495 59.7614V59.7614Z" fill="#6FC8A6"/>
<path fill-rule="evenodd" clip-rule="evenodd" d="M9.15997 80.5299C8.46997 80.1199 8.68997 79.7199 6.92997 79.4199C8.71997 76.3299 3.45997 73.3399 3.06997 78.6199C0.00996733 77.5499 -1.93003 83.6799 3.06997 82.4899C1.21997 86.4899 5.80997 87.7599 6.29997 82.7599C7.49997 83.8299 11.31 83.2999 9.15997 80.5299ZM5.85997 81.8699C5.77997 81.8699 5.18997 82.3299 4.45997 81.3799C2.37997 79.5299 7.77997 78.3399 5.85997 81.8699V81.8699Z" fill="#FFA53B"/>
<path d="M37.16 74.7812C33.79 73.7812 31.6 76.9112 30.98 80.1712C18.56 72.1712 23.3 89.2312 32.98 90.8012C36.5 93.5812 42 74.8412 37.16 74.7812Z" fill="#FF7595"/>
<path fill-rule="evenodd" clip-rule="evenodd" d="M136.35 102.53L139.91 99.0002C145.47 99.8202 140.63 91.4302 139.45 98.0002L135.81 101.21C134.46 100.05 137.3 94.7002 133.81 94.5402C132.11 94.1202 131.43 97.9202 134.16 98.0502C134.301 99.2932 134.257 100.55 134.03 101.78C132.413 101.576 130.832 101.152 129.33 100.52C128.75 96.3802 120.39 101.17 133.73 103.21C132.07 104.92 129.98 106.5 128.22 108.89C128.79 110.79 132.28 110.96 131.52 107.41C131.87 106.81 132.86 105.11 134.52 104.74C135.65 106.32 132.84 110.83 136.12 111.05C139.23 110.25 135.12 107.14 136.23 104.05C137.44 104.05 138.31 104.92 139.43 105.32C138.77 109.64 146.6 105.43 141.22 103.89C139.74 104.5 138.52 103.81 136.35 102.53V102.53Z" fill="#FFC711"/>
<path fill-rule="evenodd" clip-rule="evenodd" d="M123 43.8117C123.61 31.6017 132.15 33.4317 128.16 46.3817C131.63 43.8117 137.76 40.7217 134.16 49.7217C142.4 48.5517 143.16 54.9517 132.78 54.9817C139.16 56.7417 144.51 63.7917 132.89 63.1217C133.71 68.0217 131.26 69.3017 126.89 64.8517C126.76 69.6817 122.28 78.1417 120.36 66.9817C115.99 71.5917 111.76 70.2017 115.73 62.1217C109.64 63.4417 103.99 60.8217 113.09 55.9717C104.92 52.8417 104.64 49.0517 115.46 49.3917C112.01 41.0417 118.81 35.0117 122.46 46.2517C122.946 45.5377 123.139 44.6642 123 43.8117V43.8117ZM123 50.5717C120.23 49.3017 116.34 49.3617 120.69 54.1317C118.35 53.9117 113.2 57.4117 120.75 57.5217C120.06 58.6417 119.93 64.2817 123.98 59.5217C125.41 63.8017 129.33 63.2517 127.56 57.2817C129.56 56.9017 133.26 55.5217 128.37 53.1817C128.64 51.5717 131.85 47.6517 126.05 50.7517C126.18 48.7517 123.97 46.0517 123.64 50.8417C123.414 50.7853 123.198 50.6942 123 50.5717V50.5717Z" fill="#FFA495"/>
<path fill-rule="evenodd" clip-rule="evenodd" d="M122.09 55.2402C122.24 59.1102 128.91 55.9202 124.35 53.2402C123.53 53.3902 122.38 53.3802 122.09 55.2402Z" fill="#FFC711"/>
<path fill-rule="evenodd" clip-rule="evenodd" d="M166.55 95.1305C166.148 96.7066 165.63 98.2508 165 99.7505C160.31 93.1005 152.41 99.0005 163.07 103.32C163.111 104.795 162.535 106.219 161.48 107.25C159.78 102.67 149.7 102.25 159.48 110.25C158.855 111.714 157.951 113.042 156.82 114.16C152.82 107.61 149.27 111.23 153.59 117.75C153.051 118.808 152.122 119.614 151 120C150.2 111.57 142.61 114.32 148 122.16C146.978 123.31 145.686 124.187 144.24 124.71C142.74 119.24 137.07 117.09 140.17 126.58C134.81 126.66 133.77 130.05 141.43 128.58C143.36 129.46 147.72 131.8 150.12 129.27C151.22 126.82 149.02 126.43 146.36 126.47C147.216 125.324 148.381 124.446 149.72 123.94C152.28 128.34 163.92 123.63 153.27 121.4L155.27 119.4C161.11 122.52 171.74 113.68 158.34 116.08L161.49 111.44C167.9 113.78 177.92 103.58 163.83 108.25C163.76 107.25 164.62 106.25 165.33 104.25C171.24 104.97 179.47 95.0905 167.33 99.3405C167.33 98.0405 168.08 97.0605 168.33 95.8205C175.95 97.1005 178.95 84.5405 168.52 92.6705C167.52 88.7905 170.72 82.6705 165.52 79.4805C159.3 79.6305 166.35 88.3405 166.52 92.2705C157.71 85.8105 154.61 94.9005 166.55 95.1305V95.1305Z" fill="#6FC8A6"/>
<path fill-rule="evenodd" clip-rule="evenodd" d="M151.37 136.78C152.55 131.07 146.01 130.27 146.51 136.09C141.2 134.35 140.24 140.21 146.13 140.56C143.64 145.78 150.78 149.35 150.73 141.5C154.9 141.71 157.51 135.76 151.37 136.78V136.78ZM148.25 140.05C147.931 139.869 147.668 139.602 147.49 139.28C147.4 139.15 147.25 139.121 147.32 138.211C147.422 137.895 147.66 137.643 147.968 137.522C148.276 137.402 148.623 137.427 148.91 137.59C149.93 137.93 150.53 140.4 148.25 140.05Z" fill="#FFA53B"/>
<path fill-rule="evenodd" clip-rule="evenodd" d="M155.49 60.7303C154.77 60.2203 153.11 60.3503 151.81 61.1403C151.92 56.4703 145.3 55.1403 147.81 61.4703C142.81 59.8203 142.43 67.2503 147.81 66.2903C147.81 71.6103 154.81 71.0203 152.61 65.2903C154 65.3103 157.68 63.0003 155.49 60.7303V60.7303ZM151.62 64.4804C151.13 65.8204 147.52 64.9903 149.51 62.8803C150 61.5703 152.66 62.2204 151.62 64.4804Z" fill="#FFA53B"/>
<path fill-rule="evenodd" clip-rule="evenodd" d="M152.07 17.6807C151.676 16.6537 150.947 15.7902 150 15.2307C153.83 12.0707 148.89 6.3907 145.81 12.3307C142.41 9.4907 137.43 15.9407 143.88 16.9507C139.67 20.7607 144.47 24.5907 147.58 18.8907C148.58 21.1407 153.46 21.6607 152.07 17.6807ZM147.47 17.6107C147.03 17.4507 146.32 17.7807 146.05 16.3207C144.73 12.4107 151.42 15.0707 147.47 17.6107Z" fill="#FFA53B"/>
<path fill-rule="evenodd" clip-rule="evenodd" d="M166.55 59.7612C166.149 58.1846 165.631 56.6403 165 55.1412C160.31 61.7912 152.41 55.8912 163.07 51.5612C163.109 50.09 162.533 48.6692 161.48 47.6412C159.78 52.2212 149.7 52.6412 159.48 44.6412C158.855 43.1748 157.952 41.8435 156.82 40.7212C152.82 47.2712 149.27 43.6512 153.59 37.1412C153.053 36.0802 152.124 35.2697 151 34.8812C150.2 43.3112 142.61 40.5612 148 32.7112C146.975 31.5674 145.683 30.6948 144.24 30.1712C142.74 35.6412 137.07 37.7912 140.17 28.3012C134.81 28.2212 133.77 24.8312 141.43 26.3012C143.36 25.4112 147.72 23.0812 150.12 25.6012C151.22 28.0612 149.02 28.4412 146.36 28.4012C147.198 29.5691 148.354 30.4715 149.69 31.0012C152.25 26.6012 163.89 31.3012 153.24 33.5412L155.24 35.4912C161.08 32.3712 171.71 41.2012 158.31 38.8112L161.46 43.4512C167.87 41.1112 177.89 51.3112 163.8 46.6412C163.73 47.6412 164.59 48.6412 165.3 50.6412C171.21 49.9212 179.44 59.8012 167.3 55.5512C167.3 56.8412 168.05 57.8312 168.3 59.0712C175.92 57.7912 178.92 70.3512 168.49 62.2212C167.49 66.1012 170.69 72.2212 165.49 75.4112C159.27 75.2612 166.32 66.5512 166.49 62.6212C157.71 69.0812 154.61 60.0012 166.55 59.7612V59.7612Z" fill="#6FC8A6"/>
<path fill-rule="evenodd" clip-rule="evenodd" d="M170.73 83.1114C171.721 83.5169 172.85 83.3926 173.73 82.7814C173.58 86.4814 178.96 87.5514 176.95 82.5114C180.65 83.8614 181.46 77.9314 176.95 78.6414C176.95 74.5414 171.38 74.6414 173.09 79.4414C172 79.4914 169.06 81.0814 170.73 83.1114V83.1114ZM173.84 80.1114C174.24 79.0414 177.14 79.7114 175.54 81.4014C175.42 82.1914 173.1 82.3013 173.84 80.0913V80.1114Z" fill="#FFA53B"/>
<path d="M142.84 74.7812C146.21 73.7812 148.4 76.9112 149.02 80.1712C161.44 72.1712 156.7 89.2312 147.02 90.8012C143.5 93.5812 138 74.8412 142.84 74.7812Z" fill="#FF7595"/>
</g>
<defs>
<clipPath id="clip0_3_22358">
<rect width="181" height="152" fill="white"/>
</clipPath>
</defs>
</svg>
