<svg width="216" height="80" viewBox="0 0 216 80" fill="none" xmlns="http://www.w3.org/2000/svg">
<g clip-path="url(#clip0_3_23656)">
<path d="M54.4701 44.7805C54.4701 44.5405 54.6401 44.5405 54.4701 43.5405C54.2801 43.4205 54.1501 43.9705 53.0601 43.9005C51.6901 44.0005 48.2501 45.4805 46.4601 44.0705C46.4601 43.8105 46.2801 43.4605 46.2801 43.1905C45.9901 42.5505 45.6701 42.8605 45.2801 41.3405C44.7101 40.6505 44.1901 38.9705 42.4701 37.6405C40.4164 36.3809 37.9744 35.9117 35.6001 36.3205L35.4201 36.5905C33.7201 36.9605 34.6101 35.5905 32.4201 37.8205C32.4201 37.9105 32.4201 38.0005 32.3301 38.0005C32.2401 38.0005 32.2601 38.5805 32.0701 39.3205C32.1901 41.4905 31.3101 40.1505 32.6801 44.3205C32.6899 44.4139 32.7663 44.4861 32.8601 44.4905C33.0774 44.8221 33.3438 45.1188 33.6501 45.3705L33.7101 45.4805C33.7101 45.5605 33.7101 45.6305 33.6501 45.7205C33.5691 45.765 33.4812 45.7954 33.3901 45.8105H33.4801V46.0805C33.3059 46.3068 33.2713 46.6109 33.3901 46.8705V47.0005C33.0801 47.2205 33.4501 47.3505 32.9501 48.5805C32.2801 48.9405 30.3501 61.8605 26.3401 63.2905C26.1279 62.5658 25.8639 61.8573 25.5501 61.1705C25.4401 60.7705 25.6201 60.1705 25.3801 58.3505C24.5901 55.4605 26.2901 51.2605 26.3801 47.2605H26.3001V47.0005C26.42 46.947 26.5368 46.8869 26.6501 46.8205C26.8101 46.4805 26.5001 46.5905 27.0901 45.3205C26.6301 44.3705 27.3501 45.0505 27.6201 42.7705C28.0701 41.6205 29.1501 39.8505 27.7901 37.4005C28.0001 37.2405 27.7001 36.7605 27.0901 36.3405C24.0001 34.8105 18.3301 42.3405 16.1701 48.4105C16.1701 48.6005 16.0501 48.5705 16.0001 49.2905C16.0001 49.3705 15.8201 49.4605 15.7301 49.5505C15.3901 50.6205 14.2001 53.2705 13.2701 55.7105C13.2701 55.8905 13.0901 56.0705 13.0001 56.2405C12.7101 52.3105 13.3401 42.1805 5.52008 54.0405C5.52008 54.0405 5.40008 54.2005 5.34008 54.0405C5.42289 53.3935 5.39243 52.7371 5.25008 52.1005C5.14804 51.3919 5.00108 50.6905 4.81008 50.0005C4.73008 50.0005 4.73008 49.9105 4.73008 49.8205C4.99008 49.3805 4.55008 48.9405 4.90008 48.5905C4.90008 48.5005 4.90008 48.3305 4.81008 48.3305C4.64008 48.1505 4.81008 48.0605 4.81008 47.8905C5.04008 47.7005 4.71008 47.8905 4.64008 47.4505C4.90008 46.8605 4.44008 45.3105 4.64008 44.1905C4.73008 44.0105 4.81008 43.9305 4.55008 43.7505C4.55855 43.3392 4.58859 42.9287 4.64008 42.5205C4.37008 42.2505 4.55008 42.0805 4.55008 41.9005C4.47008 40.9505 5.55008 37.6105 3.49008 35.6505C2.46213 35.2198 1.32344 35.1287 0.24008 35.3905C-0.0299205 35.3905 -0.0299205 35.4705 0.0600795 35.6505C0.53008 40.0005 -2.16992 60.2105 6.22008 56.4905C6.31008 56.4005 6.40008 56.3105 6.49008 56.4005C7.29008 55.8505 7.06008 56.2505 9.13008 51.2905H9.30008C10.0901 52.9905 9.95008 55.8305 11.2401 58.4205C15.3801 59.5305 15.0401 54.2805 18.1101 48.2105C18.2001 48.1205 18.2801 47.9505 18.3701 47.8605C19.3732 44.8692 21.0614 42.1537 23.3001 39.9305C23.3901 40.4905 23.1601 41.0705 22.2501 45.7405H22.1601C22.2101 45.8305 22.2401 45.8005 22.0701 46.0105C21.9001 46.2205 21.6601 48.2305 21.2801 50.9405C21.1001 51.1205 21.0101 51.3805 21.1901 51.5605C20.6901 53.5605 21.3401 55.6705 21.2801 58.8605L21.3701 58.9505C21.5401 58.9505 21.4501 59.0405 21.4501 59.1305C21.7891 59.987 22.0566 60.87 22.2501 61.7705C22.2501 61.8605 23.2501 63.0205 23.0401 63.8805C23.2501 64.3705 22.9701 63.9605 24.2701 65.1105C25.8401 65.8605 28.2701 66.6505 29.6401 62.8205C30.1401 62.0305 30.1701 60.6205 30.8701 58.6905C31.5157 55.995 32.4061 53.3641 33.5301 50.8305C33.6237 51.3631 33.6237 51.9079 33.5301 52.4405V52.6105C34.4601 56.7305 37.1801 64.5305 44.5301 60.5405C46.5451 58.4551 47.8143 55.7621 48.1401 52.8805C47.7701 49.8105 48.5501 50.6205 47.6101 46.2705C48.8401 45.4005 50.8801 45.8005 54.4801 44.8605L54.4701 44.7805ZM26.3001 46.2705C26.3001 46.2705 26.3001 46.3605 26.3801 46.3605L26.2101 46.5405C26.2101 46.5167 26.2006 46.4938 26.1837 46.4769C26.1668 46.46 26.144 46.4505 26.1201 46.4505L26.3001 46.2705ZM3.58008 47.5105H3.49008V47.4205C3.49008 47.4205 3.61008 47.3205 3.58008 47.5105ZM33.5401 38.4105L33.2701 38.7605H33.0001V38.5805C33.0001 38.3605 33.3201 38.4305 33.6101 37.4405C33.7058 37.2712 33.8636 37.1457 34.0501 37.0905C34.2178 37.0112 34.4123 37.0112 34.5801 37.0905V37.1705L34.5001 37.0905C34.0001 37.5605 33.7801 38.1705 33.5201 38.4405L33.5401 38.4105ZM34.5401 48.0905V48.2705H34.4301L34.4901 48.1105C34.4901 48.1105 34.4601 48.1205 34.4901 48.1205L34.5401 48.0905ZM34.6201 49.4105C34.5001 49.4105 34.7501 50.3205 34.0901 49.9405C34.0901 49.5705 34.0901 49.8105 34.4501 48.8005C34.4501 48.7105 34.5401 48.7105 34.6201 48.6205V49.4105ZM36.3801 51.7005C36.2101 51.7005 36.1901 51.7505 36.2101 51.3505C36.3001 51.2605 36.3001 51.2605 36.3801 51.2605C36.4397 51.3278 36.4683 51.4171 36.4587 51.5066C36.4492 51.596 36.4025 51.6773 36.3301 51.7305L36.3801 51.7005ZM37.7001 42.1905C37.7701 42.5605 37.5701 42.1905 37.3501 43.2505C36.9401 42.9805 36.9601 44.7105 35.8601 44.5705C35.9093 44.4333 35.9494 44.293 35.9801 44.1505C36.0262 44.1408 36.0739 44.1408 36.1201 44.1505C36.2401 43.9205 36.4001 44.0905 36.5601 43.2705C36.3501 43.1905 36.3701 42.9405 36.0601 43.8405C36.1073 43.6544 36.1275 43.4624 36.1201 43.2705C36.2101 43.1805 35.8601 43.0905 35.9401 42.8305C36.0301 42.7405 35.6801 42.5605 35.5901 42.7405C35.5001 42.9205 35.4401 42.8205 34.8001 43.3505C31.9001 37.7405 41.4101 35.2305 44.2201 43.0905C44.4298 43.4263 44.6073 43.7813 44.7501 44.1505C44.6801 45.3505 42.7501 44.5905 40.8701 45.0305C42.3201 43.4605 43.7601 40.4405 39.2901 40.3605V40.4505L39.1101 40.8005C38.6401 40.8005 39.1101 41.2905 38.1101 41.9505C38.0255 42.1253 37.8439 42.2318 37.6501 42.2205L37.7001 42.1905ZM39.6401 40.8705L39.5001 41.0005C39.4201 41.0005 39.4201 40.9105 39.4201 40.9105C39.4431 40.9107 39.4652 40.9009 39.4805 40.8837C39.4958 40.8664 39.503 40.8434 39.5001 40.8205L39.6401 40.8705ZM38.5801 43.2505H38.5001V43.1605C38.5301 43.1905 38.5301 43.1905 38.5301 43.2805L38.5801 43.2505ZM45.5801 50.0305C42.3601 73.0305 30.4001 44.4305 44.8701 46.6805C44.7801 47.1505 45.3801 47.8605 45.3101 48.8805C45.3513 49.264 45.442 49.6404 45.5801 50.0005V50.0305Z" fill="black"/>
<path d="M59.2207 54.5509L59.4007 54.7209V54.5509L59.3107 54.4609C59.3107 54.4848 59.3012 54.5077 59.2843 54.5246C59.2675 54.5415 59.2446 54.5509 59.2207 54.5509V54.5509Z" fill="black"/>
<path d="M59.4906 50.4118C59.1964 51.5308 59.1352 52.6982 59.3106 53.8418C59.5706 53.6918 59.7606 53.4318 59.4006 52.5218C59.1506 51.8618 59.5106 52.2218 59.6606 50.5218H59.7506L59.5806 50.3418L59.4906 50.4118Z" fill="black"/>
<path d="M59.661 44.6916C59.561 44.8416 59.261 45.0416 59.491 46.0116C59.491 45.9216 59.661 45.9216 59.661 45.8316C59.661 45.7416 59.941 45.6916 59.931 44.6016C59.841 44.6016 59.661 44.6016 59.661 44.6916V44.6916Z" fill="black"/>
<path d="M59.5802 43.9004C59.4302 44.0104 59.5002 43.9004 59.4902 44.3404L59.5802 44.2504V43.9004Z" fill="black"/>
<path d="M59.4005 47.2409C59.2805 47.2409 59.7105 46.8109 59.3105 46.7109V47.3309C59.3344 47.3309 59.3573 47.3215 59.3742 47.3046C59.3911 47.2877 59.4005 47.2648 59.4005 47.2409V47.2409Z" fill="black"/>
<path d="M108.18 45.6617C108.35 45.7417 107.73 46.1717 107.91 46.5417C108.09 46.9117 108.1 46.6417 107.74 47.0617V47.5117C107.15 47.6217 108 47.4417 106.94 48.6517C106.67 48.7317 106.94 48.9917 106.59 49.5317C104.7 54.7517 97.5898 64.8917 97.2598 45.8317C97.7298 44.1317 98.6198 45.1817 102.1 43.5417C102.46 42.8417 102.19 43.2917 103.16 42.0517C103.766 41.186 104.156 40.1885 104.3 39.1417L104.57 38.6117C105.04 38.4417 104.72 37.4617 105.09 36.5017C105.157 36.433 105.19 36.3375 105.18 36.2417L105.01 36.1517L104.92 35.9717V35.4417L104.65 35.1817V34.8317H104.92C104.928 34.6213 104.898 34.4111 104.83 34.2117C104.25 33.8117 104.83 33.2117 103.77 31.7517C103.68 31.5617 103.63 31.5017 103.16 30.6917C102.827 30.2623 102.364 29.9533 101.84 29.8117C101.187 29.7663 100.531 29.8305 99.8998 30.0017C99.4298 30.4417 98.2598 29.8917 97.0798 30.6217C97.0798 30.6217 97.2598 30.8317 97.0798 30.9717C97.0299 30.928 96.9979 30.8675 96.9898 30.8017C97.0798 30.7117 97.0798 30.7117 97.0798 30.6217C97.0798 30.8317 95.7798 30.8717 96.0798 31.6217C95.7998 31.9017 96.0798 31.6217 95.4698 32.4117C95.4098 32.5817 95.0898 33.6017 94.8498 34.4117C94.8754 34.779 94.7489 35.1406 94.4998 35.4117C94.5495 35.4117 94.5898 35.452 94.5898 35.5017C94.3498 36.2017 93.5898 36.4117 94.0598 38.1417C94.1055 38.0944 94.165 38.0629 94.2298 38.0517C94.1798 38.5117 94.3898 38.1817 93.7898 39.2917V39.3817C93.7667 39.3819 93.7447 39.3721 93.7293 39.3549C93.714 39.3376 93.7069 39.3146 93.7098 39.2917C93.0798 40.2917 93.5098 42.1517 93.1798 44.4817C89.7498 47.9817 90.3998 53.1917 86.8398 57.6017C86.5798 57.5117 86.6598 57.2517 86.5798 57.0717C86.4998 56.8917 86.5798 56.9817 86.4898 56.9017C86.2152 55.0037 86.0682 53.0894 86.0498 51.1717C85.8598 47.9417 86.5198 42.9517 86.2198 38.5817C88.2998 32.5817 77.1298 31.5817 73.8098 46.7717C72.8998 45.7017 73.2198 43.9717 72.0498 40.7717C71.9098 40.6217 72.3398 40.5417 72.1398 40.0717C71.8498 38.0117 71.6798 34.6417 71.2598 31.7117C71.7998 30.3117 71.0998 31.3517 71.4298 28.3617C71.3698 28.2217 71.3598 28.3617 71.3398 27.6617C71.4498 26.7417 71.3398 26.3017 71.5198 24.5717C71.5198 23.0317 71.7998 20.7217 72.0498 18.0617C72.4198 17.6017 71.9498 16.3217 70.2898 17.3517C69.9098 19.7417 69.1198 21.0117 68.7598 25.6717L68.5298 25.2817C67.829 25.1087 67.0934 25.1399 66.4098 25.3717C66.3398 25.1717 65.7498 26.8317 65.0898 25.9817C64.3898 26.5717 64.1898 26.4417 62.3598 27.2217H62.5398C62.5398 27.3017 62.4498 27.3917 62.4498 27.4817L62.1898 27.2217V27.3017C61.8098 27.6417 60.9098 27.9817 61.1898 26.0717C60.9598 25.6917 60.5498 25.3117 59.3398 25.0117C59.3398 25.0117 59.1598 25.1917 59.0798 25.0117C58.4198 25.0117 58.6798 24.5917 56.5198 25.6317C56.6339 26.1874 56.5066 26.7653 56.1698 27.2217C56.1469 27.2188 56.1239 27.226 56.1066 27.2413C56.0894 27.2566 56.0796 27.2786 56.0798 27.3017C56.2998 27.3017 56.6998 27.3617 56.1698 27.8317C56.1606 27.9 56.129 27.9634 56.0798 28.0117C56.0098 28.1217 56.6298 28.2217 56.4398 28.5417L56.2598 28.6217C55.7398 28.6217 56.4998 29.6217 55.4698 29.9417C53.7241 30.8265 51.8952 31.5367 50.0098 32.0617V32.3217C50.6498 32.4217 50.7498 33.9917 53.7098 33.1117C54.2528 32.7604 54.8463 32.494 55.4698 32.3217C55.4698 36.0217 55.1698 36.2517 55.1098 40.9517C55.1098 41.0817 54.9398 40.9517 55.1098 41.5717C55.1098 41.7417 55.1098 41.9217 54.8498 42.0117C55.3498 42.6917 54.4498 46.0117 54.5898 47.7317C54.3745 48.1454 54.3745 48.638 54.5898 49.0517C54.4251 50.8995 54.4519 52.7594 54.6698 54.6017C54.6495 55.0732 54.7001 55.5452 54.8198 56.0017C55.1698 56.3517 54.5798 56.2517 55.1698 57.3217C54.8798 58.5417 55.2998 58.0617 55.3498 60.4917C54.9898 61.4917 55.8698 62.1517 57.1098 63.8317C57.1998 63.8317 57.1998 63.9217 57.2898 63.9217C63.2898 67.0217 65.1898 59.9217 65.9198 53.2717C65.6798 52.6617 66.0398 53.0417 65.9998 51.4217C65.9198 51.4217 65.9998 51.3317 65.9998 51.2417L66.0898 51.0717C66.0898 51.0717 65.9198 50.9517 66.0898 50.7117C66.4398 50.7117 66.4398 50.5417 66.4398 50.3617C66.4398 50.3617 66.0598 50.2217 66.4398 49.8317C66.7116 48.7235 67.0659 47.6371 67.4998 46.5817C67.7239 46.1798 67.8921 45.7491 67.9998 45.3017C68.0779 45.1123 68.1859 44.9368 68.3198 44.7817C68.4953 45.2597 68.5933 45.7627 68.6098 46.2717C68.6998 46.4917 68.7898 46.5517 68.6098 47.2717C68.5599 47.5402 68.664 47.8142 68.8798 47.9817C68.8082 48.2172 68.841 48.472 68.9698 48.6817C68.9698 48.7417 68.7898 48.8317 68.9698 49.1217C68.9822 49.3636 69.0399 49.601 69.1398 49.8217C69.1489 49.89 69.1806 49.9534 69.2298 50.0017C69.1498 50.1017 69.1298 50.1617 68.9698 49.9117C68.9698 50.1417 69.1298 51.6417 69.2298 52.6417L69.4998 52.9117C69.4998 52.9917 69.5798 53.0817 69.5798 53.1717C69.5798 53.2617 69.4098 53.1717 69.5798 53.7917C69.6267 54.3248 69.717 54.8532 69.8498 55.3717C70.0439 55.6388 70.1925 55.9362 70.2898 56.2517C70.0798 59.0017 75.9998 59.0017 76.2198 55.6117C75.4898 53.6117 75.8198 49.2917 76.4798 45.2217C76.4798 44.8217 76.8098 45.0117 76.7398 43.6317V43.4617C77.5498 41.8517 78.1998 38.0117 81.0598 36.3217C82.0598 36.5217 81.7898 40.1917 81.4998 41.6117C81.4998 41.5417 81.3898 41.8617 81.5898 42.1317C81.2298 43.0017 81.1398 46.1317 81.0598 47.8617C81.2254 48.7642 81.2254 49.6892 81.0598 50.5917C81.3976 51.2011 81.4905 51.9162 81.3198 52.5917C81.3198 52.8017 81.1498 52.5917 81.3198 53.3017C81.6198 54.3017 81.0298 53.4517 81.7598 57.3017C81.9318 57.5288 81.9663 57.8317 81.8498 58.0917V58.1817C82.0565 58.2789 82.1915 58.4834 82.1998 58.7117L81.9998 59.0017C81.8998 59.7717 82.7398 60.5817 82.3498 61.8217V62.0017C82.6198 62.0017 83.2898 64.1817 87.0998 62.5317C88.8298 57.8917 90.5998 52.1417 93.1798 45.8817C93.1154 46.5069 93.1731 47.1386 93.3498 47.7417C93.7098 47.3517 93.4798 45.9417 93.7098 44.8317C93.9598 45.5417 94.8798 49.3917 93.7898 51.0917H93.7098C93.7364 51.7364 93.7063 52.3823 93.6198 53.0217L93.5298 53.1117L93.9998 55.0817C94.069 55.0099 94.1021 54.9107 94.0898 54.8117C94.2472 55.0621 94.4245 55.2995 94.6198 55.5217V55.0817C94.7898 55.2517 94.7898 55.2517 94.7898 55.3417C94.859 55.4135 94.8921 55.5127 94.8798 55.6117C94.7855 55.6118 94.6939 55.5801 94.6198 55.5217C94.6198 55.2517 94.5298 56.6517 94.8798 56.1317C95.0698 56.0717 95.1398 55.7117 95.4098 56.3117C95.5698 56.6517 95.4098 56.4417 96.0298 56.9317C96.641 57.5009 97.1725 58.1501 97.6098 58.8617C97.7398 58.9317 97.6998 58.8617 98.2298 59.3917L98.1398 59.4817C97.6862 59.5419 97.2497 59.2865 97.0798 58.8617C96.9898 58.8617 96.9098 58.7717 96.7298 58.6917C96.1498 58.8117 96.2898 58.7517 97.5198 59.8317C97.5198 59.8814 97.5601 59.9217 97.6098 59.9217V60.1017C97.5198 60.1017 97.6098 60.1817 97.6098 60.1817C98.9019 60.4085 100.23 60.3193 101.48 59.9217C102.15 59.4417 102.93 59.5117 104.21 58.3317C105.051 56.9216 105.787 55.4509 106.41 53.9317C106.5 53.9317 106.5 53.7617 106.59 53.7617C106.69 53.0217 106.84 53.4417 107.74 50.9417C108.01 50.3217 107.74 50.8117 108.62 48.5617C108.445 47.5119 108.325 46.4539 108.26 45.3917C108.18 45.3917 108.18 45.5717 108.18 45.6617V45.6617ZM56.1798 46.1017V46.2717L56.0898 46.3617C56.0898 46.2717 56.0898 46.2717 55.9998 46.2717C56.1398 46.2717 56.1398 46.1017 56.2298 46.1017H56.1798ZM56.0898 61.9417C55.9998 62.0217 55.7598 61.3817 56.2698 61.8617C56.2298 61.8617 56.2298 61.9417 56.1398 61.9417H56.0898ZM56.5798 55.0017C56.5798 54.8217 56.4998 54.8217 56.4998 54.8217C56.4998 54.8217 56.4998 54.7317 56.5798 54.7317V55.0017ZM56.3198 51.8317H56.4998V51.9217L56.3198 51.8317ZM56.5798 47.8317C56.5198 47.8317 56.5798 47.8317 56.4998 47.6517C56.5598 47.6117 56.5598 47.5817 56.5798 47.7717V47.8317ZM56.5798 45.1917L56.4998 45.0017C56.5798 45.0017 56.5798 45.0017 56.5798 44.9117L56.6698 45.0017C56.6846 45.0311 56.6822 45.0663 56.6634 45.0935C56.6446 45.1206 56.6125 45.1352 56.5798 45.1317V45.1917ZM56.8498 44.0017C56.6898 44.0017 56.7598 44.4117 56.2298 44.5317C56.0598 44.2017 56.6098 43.6917 56.8498 44.0017ZM57.1098 41.1917H56.9398C56.9398 41.0917 56.8698 41.0517 57.1098 41.0117V41.1917ZM56.7598 40.1317H56.6698C56.6185 40.0849 56.5864 40.0208 56.5798 39.9517C56.6798 39.7517 56.6698 39.8317 56.6698 39.3417C56.8298 39.2717 56.9198 39.1117 57.1998 39.4317C57.1998 39.7617 57.1098 40.0017 56.7598 40.1117V40.1317ZM56.9398 35.4617L56.8498 35.3817C56.9498 35.4617 56.8498 35.1617 57.2898 35.3817C57.1998 35.4417 57.1098 35.4417 56.9398 35.4417V35.4617ZM62.3098 28.0017H62.4798V28.0917L62.1298 28.4417C62.0785 28.3949 62.0464 28.3308 62.0398 28.2617C62.1298 28.0517 62.2198 28.0017 62.3098 28.0017ZM59.2198 38.3017L59.3098 38.1217C59.4798 38.2617 59.4698 38.2917 59.3998 39.1217H59.4898C59.3098 39.0117 59.7098 40.1217 59.1398 40.0017C58.9198 39.7717 59.1998 40.0017 59.1398 39.3917C58.9298 39.0017 58.8498 39.0017 59.2198 38.2617V38.3017ZM68.7298 28.5317C68.7298 28.5317 68.5598 28.5817 68.7298 28.9717C68.8998 29.3617 68.1398 29.2717 68.7298 29.8517C68.2398 30.8517 68.3398 32.8017 68.2898 35.0417C67.9932 36.6717 67.9932 38.3418 68.2898 39.9717C68.1798 39.9717 68.2898 40.1617 68.1198 40.5017C68.2462 40.9635 68.3332 41.4352 68.3798 41.9117L68.4698 42.0017V42.3517C68.2898 42.6217 68.4698 42.3517 68.1998 43.0617C67.7198 43.5817 67.9998 43.0017 66.7998 45.7017C66.4298 46.2417 65.9498 47.6317 64.8598 50.0117C64.7698 50.1017 64.7698 50.3617 64.7698 50.5417C64.7114 50.6158 64.6797 50.7074 64.6798 50.8017C64.3298 51.0717 64.3298 51.1617 64.3298 51.4217C63.9698 51.0217 61.0898 66.6717 59.2198 59.2517C59.3698 59.2517 58.8898 58.4017 59.5798 57.7617C59.7398 57.3917 59.8598 57.7617 59.8398 56.5317L59.6598 56.6117C59.5798 56.6117 59.5798 56.7017 59.5798 56.7917C59.3537 57.2028 59.1597 57.6307 58.9998 58.0717C58.9498 57.9117 58.6398 57.7717 58.9998 56.7517C59.0495 56.7517 59.0898 56.7114 59.0898 56.6617C58.7598 56.3717 58.6898 56.1717 58.8198 54.8117C58.8198 54.8117 58.7398 54.6417 58.6498 54.6417C58.1698 54.1917 58.9698 52.9917 58.5598 51.9117C58.553 51.7599 58.5839 51.6087 58.6498 51.4717C58.5598 51.3717 58.9498 51.3317 58.5598 50.9417C58.4922 48.3698 58.7272 45.7988 59.2598 43.2817C59.3281 43.2726 59.3914 43.2409 59.4398 43.1917C59.7598 43.4117 60.4398 42.8317 59.6998 41.9617C59.5798 42.0217 59.7798 42.0717 59.5298 42.5717C59.4498 43.2117 58.5298 42.9017 58.9998 41.4317C58.9998 41.1717 59.1798 41.0817 59.3498 40.9917C59.4181 41.0009 59.4814 41.0325 59.5298 41.0817C59.5298 41.0217 59.5298 40.9417 59.4398 40.9017C59.5087 40.8338 59.542 40.7377 59.5298 40.6417C59.9498 40.5217 59.6898 39.5817 59.9698 38.7017C59.7598 38.5317 60.6998 38.1817 59.8798 37.7017L59.7898 37.6117H59.8798C59.9779 37.081 60.0181 36.5411 59.9998 36.0017C60.2526 35.2657 60.3112 34.4769 60.1698 33.7117V33.4517C60.4398 33.1017 60.4398 32.6617 60.6098 32.3917C60.9498 32.2217 60.3798 30.0017 61.3198 30.0117C61.7698 30.1617 61.4698 30.0117 62.1098 29.3117C62.4498 29.6517 62.4398 28.9217 63.1098 29.4017V29.4917C63.1098 29.4317 63.2798 29.6417 63.4598 29.3117H63.2798C63.1998 29.2217 63.1998 29.2217 63.1998 29.1317C63.4598 28.6917 63.8998 28.6917 64.3398 28.6917C64.3398 28.8717 64.3398 28.8317 64.5198 28.9617C64.6998 28.8217 65.1998 27.8217 66.0998 27.9017C66.7045 27.755 67.2939 27.5507 67.8598 27.2917C68.0798 27.1617 68.0498 27.2917 68.6898 27.1417C68.8398 27.1417 68.3398 27.8417 68.6898 28.4317L68.7298 28.5317ZM81.9398 42.1317L81.7598 42.0017C81.8498 41.9117 81.9398 41.9117 81.9398 41.8217C82.009 41.8935 82.0421 41.9927 82.0298 42.0917C82.0298 42.0917 81.9398 42.0517 81.9398 42.1317ZM93.7398 53.4917V53.2317C93.7398 53.4017 93.8198 53.4017 93.8198 53.4017C93.8198 53.4017 93.8198 53.4917 93.7398 53.4917V53.4917ZM93.6498 42.7517C93.4998 42.7517 93.5398 42.4917 93.8198 42.4917C93.8198 42.5717 93.7398 42.8417 93.6498 42.7517ZM94.1798 41.1717L93.9098 41.8717H93.7398C93.7398 41.5617 93.7898 41.6917 93.5598 41.1717C93.5598 40.9017 93.5598 41.1217 93.6498 40.5517L93.9998 40.2017L94.0898 40.2917C94.0957 40.4268 94.1572 40.5535 94.2598 40.6417C94.2598 40.9017 94.2598 41.0817 94.1798 41.1717V41.1717ZM95.0598 53.7617C95.1498 53.7617 95.1498 53.7617 95.1498 53.8417C95.1498 53.9217 95.0598 53.8417 95.0598 53.7617ZM95.4098 55.0817C95.4343 54.8707 95.4032 54.657 95.3198 54.4617C95.3898 54.4617 95.3798 54.3917 95.4098 54.8117L95.5898 55.0817H95.4098ZM96.4098 56.4017L96.1098 56.0017C96.1698 56.0617 96.0098 55.7817 96.3798 55.8217C96.2798 55.9117 96.5698 55.9017 96.3798 56.4017H96.4098ZM102.41 35.8017C102.59 35.8017 102.59 35.8017 102.68 35.8817C102.675 35.979 102.597 36.0567 102.5 36.0617L102.41 35.9717V35.8017ZM101.97 34.3917C102.071 34.5517 102.132 34.7333 102.15 34.9217H102.24L102.15 35.0017C101.97 34.9217 101.71 34.8317 101.71 34.5617C101.8 34.4817 101.8 34.4817 101.8 34.3917H101.97ZM101.09 33.3917C101.41 33.2817 101.28 33.2617 101.71 33.6517C101.71 33.7417 101.62 33.7417 101.62 33.8317C101.45 33.7417 101.27 33.7417 101.09 33.5617V33.3917ZM100.74 32.9517L101.01 33.3017V33.3917C100.74 33.3917 100.48 33.2117 100.48 33.0417C100.551 33.0376 100.622 33.0241 100.69 33.0017L100.74 32.9517ZM97.7398 30.3917C97.8298 30.3917 97.8298 30.3917 97.8298 30.4817L97.7398 30.5717C97.7398 30.5717 97.5298 30.4817 97.6998 30.4217L97.7398 30.3917ZM97.2098 39.9017H97.1198C97.1279 39.8359 97.1599 39.7754 97.2098 39.7317C97.3498 39.6217 97.2798 39.7317 97.2998 39.2917C97.3741 39.2488 97.4266 39.1761 97.4438 39.092C97.461 39.0078 97.4413 38.9204 97.3898 38.8517C97.3898 38.3317 97.3898 38.7317 97.6498 37.3517C98.0198 36.9817 97.8698 36.1817 98.7098 34.5317C98.8519 34.0491 99.09 33.6001 99.4098 33.2117C99.3498 33.1317 99.6098 32.9717 99.9398 33.1217C99.9398 33.3417 100.31 33.1217 100.47 33.5617C100.531 33.745 100.655 33.9009 100.82 34.0017C101.169 34.5493 101.436 35.1458 101.61 35.7717L101.79 36.0317C102.05 36.2117 102.05 36.3817 102.14 36.5617C102.14 37.2617 102.32 37.9717 102.4 38.7617C102 40.8717 100.31 44.7117 97.1698 39.9317L97.2098 39.9017ZM97.3898 58.1317C97.3898 58.1078 97.3803 58.0849 97.3634 58.0681C97.3465 58.0512 97.3236 58.0417 97.2998 58.0417L97.3898 57.9517C97.4698 57.9517 97.4698 58.0417 97.5598 58.0417C97.4298 58.1617 97.4298 58.1617 97.3498 58.1617L97.3898 58.1317ZM98.5298 59.5417V59.3617C98.5795 59.3617 98.6198 59.402 98.6198 59.4517C98.585 59.4258 98.5368 59.4284 98.505 59.4578C98.4731 59.4871 98.4668 59.535 98.4898 59.5717L98.5298 59.5417ZM99.5898 60.0717C99.3061 60.1784 98.9934 60.1784 98.7098 60.0717C98.7098 60.022 98.6695 59.9817 98.6198 59.9817C98.6798 59.9817 98.6198 59.6717 99.6198 59.8917C99.6198 59.9156 99.6293 59.9385 99.6461 59.9553C99.663 59.9722 99.6859 59.9817 99.7098 59.9817L99.5898 60.0717Z" fill="black"/>
<path d="M123.229 39.0007C122.688 38.8333 122.114 38.8058 121.559 38.9207C117.869 39.9207 116.559 43.1507 114.779 48.1607C114.599 48.2507 114.689 48.5107 114.599 48.6907C114.509 48.8707 114.429 48.8007 114.159 48.9507C113.944 49.9573 113.608 50.9344 113.159 51.8607H113.079C113.061 51.6506 113.088 51.4391 113.159 51.2407C113.159 51.0607 113.269 50.5907 113.339 49.7507C113.339 49.6607 113.339 49.6607 113.519 49.4807C113.419 49.4807 113.519 49.4807 113.249 49.3107C113.249 49.2207 113.339 49.2207 113.429 49.1307H113.519C113.534 48.9493 113.503 48.7672 113.429 48.6007C113.329 48.4107 113.349 48.3107 113.599 47.7207C113.305 46.8372 113.507 45.8636 114.129 45.1707C114.129 45.1707 114.219 45.0807 114.129 45.0807V45.0007C114.061 44.9317 113.965 44.8985 113.869 44.9107L113.599 45.3507C113.602 45.3736 113.595 45.3966 113.58 45.4138C113.564 45.4311 113.542 45.4408 113.519 45.4407L113.429 45.3507C113.46 45.1409 113.517 44.936 113.599 44.7407L113.689 44.8307C113.756 44.8384 113.819 44.8663 113.869 44.9107C114.141 44.4132 114.346 43.8819 114.479 43.3307C114.394 43.1018 114.337 42.8634 114.309 42.6207C114.219 42.6207 114.209 42.4607 113.959 42.6207C114.039 42.6207 114.039 42.7107 114.039 42.7107C114.189 43.1507 114.429 43.0007 113.519 43.5907C113.409 43.0007 113.059 43.1907 113.869 42.1007H113.999V41.8307C113.119 41.7807 113.909 41.3407 113.199 38.9307C112.904 38.0555 111.985 37.5547 111.089 37.7807C110.84 37.9039 110.548 37.9039 110.299 37.7807C110.169 37.8407 110.109 37.6307 109.769 38.0507C109.899 38.1607 108.709 37.8007 108.449 38.2207C108.779 38.5607 108.379 39.7007 108.799 40.7807C108.76 41.1698 108.822 41.5626 108.979 41.9207C109.159 42.2907 108.569 42.8307 109.149 43.5907L109.239 43.6807H109.149C108.619 44.1707 109.369 45.6007 109.069 46.6807C109.849 48.6807 108.499 49.3907 109.589 52.1407C109.769 52.0607 109.949 52.0607 110.119 51.8807C110.289 51.7007 110.119 51.7907 110.389 51.7907C110.969 52.6907 109.209 54.5107 109.949 55.8407C109.439 57.8407 111.159 56.7407 110.649 59.5407C110.539 59.8407 110.509 60.1507 110.829 61.0407C111.969 61.4607 111.129 62.5807 113.729 62.3607C113.955 62.1171 114.277 61.9854 114.609 62.0007C114.771 61.9398 114.898 61.8123 114.959 61.6507C115.049 61.6507 115.049 61.5607 115.049 61.4807C115.154 61.3172 115.308 61.1912 115.489 61.1207C115.989 60.9507 116.149 59.4007 116.109 58.3907C115.877 56.8466 115.73 55.2909 115.669 53.7307C115.78 52.4831 115.987 51.2461 116.289 50.0307C116.454 48.0815 116.958 46.1761 117.779 44.4007C116.829 41.2307 123.999 41.0007 123.229 39.0007V39.0007ZM109.849 46.5807H109.669L109.759 46.4907H109.849V46.5807ZM110.549 56.7907C110.552 56.8136 110.545 56.8366 110.53 56.8538C110.514 56.8711 110.492 56.8808 110.469 56.8807V56.7907L110.549 56.7007V56.7907ZM111.609 60.9307H111.349C111.259 60.8407 111.259 60.7507 111.259 60.5807C111.279 60.5807 111.559 60.4007 111.609 60.8907V60.9307ZM112.929 44.0007H112.749V43.4807H112.929V44.0007Z" fill="black"/>
<path d="M138.37 51.5605C137.927 46.7287 134.943 42.4989 130.54 40.4605C130.28 40.2005 130.38 40.4105 129.75 39.9305C129.63 39.8405 129.63 39.8705 129.75 39.5805C129.87 39.2905 129.75 39.4105 129.57 39.3205C129.18 38.9905 129.34 39.2205 129.04 38.1705C128.971 38.1027 128.938 38.0065 128.95 37.9105C129.24 37.1405 128.57 37.2305 128.51 35.7105C128.51 35.6405 128.34 35.5605 128.51 35.0905C129.05 33.8405 128.34 29.3005 133.97 30.6005H134.32C134.48 30.6605 134.47 30.7605 135.03 30.6005C134.93 29.6005 134.6 28.7005 132.39 28.3105C132.26 28.5213 131.992 28.5993 131.77 28.4905C129.61 28.2305 126.9 29.5505 125.7 33.1505C125.7 33.3505 125.36 33.2505 125.26 33.5905C125.306 33.6398 125.334 33.7033 125.34 33.7705C124.95 33.9205 125.34 34.4705 124.82 35.2705C124.54 35.4705 124.66 35.5405 124.64 36.4105C124.9 37.0389 125.107 37.6878 125.26 38.3505C126.16 41.3505 129.26 43.9205 132.65 46.7105H132.56V46.8005C125.56 45.0305 122.68 58.3405 129.56 63.2705C130.56 62.5505 132.56 63.7305 134.31 61.9405C134.71 62.0105 134.57 61.2405 135.81 60.9405C136.01 60.6905 135.81 60.4905 136.52 59.8805C136.61 59.6905 136.79 59.3205 137.22 58.5605C137.35 58.4305 137.1 57.8405 137.48 57.2405C137.466 57.1444 137.499 57.0475 137.57 56.9805C137.78 55.3805 138.86 54.0005 138.37 51.5605V51.5605ZM133.44 43.3705H133.53V43.4605H133.36C133.36 43.4605 133.36 43.3705 133.44 43.3705V43.3705ZM134.06 56.0005C133.974 56.5394 133.762 57.0501 133.44 57.4905C133.477 57.7301 133.45 57.9754 133.36 58.2005C133.348 58.3809 133.375 58.5617 133.44 58.7305C133.24 59.7305 133.49 59.3805 132.12 60.4905C132.12 60.6605 131.86 60.7505 131.6 60.8405C131.51 60.8405 131.48 61.0105 131.24 60.8405C131.11 60.8405 131.15 60.8405 130.98 61.0205C130.683 61.0437 130.385 61.0133 130.1 60.9305C129.816 60.8278 129.569 60.6434 129.39 60.4006C129.31 60.4006 129.22 60.2205 129.22 60.1405C126.96 57.4305 125.44 46.6205 132.92 48.3405C132.92 48.2505 133 48.2505 133 48.1605C133 48.0705 133.18 47.9905 133.18 48.0705C134.111 49.7304 134.509 51.6367 134.32 53.5305C134.17 53.8305 134.26 53.8805 134.24 54.7605C134.43 55.0005 134.8 55.1205 134.06 56.0005V56.0005ZM136.35 47.4605C136.22 47.4605 136.24 47.1205 136.53 47.3705L136.35 47.4605Z" fill="black"/>
<path d="M175.09 50.5914C175.34 51.0114 174.8 51.4714 174.82 52.2614C174.53 52.2614 175.03 53.0714 174.38 53.7614C174.32 53.7614 174.38 53.7614 174.3 53.9314L174.21 53.8414C173.96 54.5346 173.753 55.2426 173.59 55.9614V56.0514C173.08 57.0514 172.59 60.8014 170.07 59.9214C170.07 59.9711 170.11 60.0114 170.16 60.0114C170.165 60.1032 170.238 60.1764 170.33 60.1814L170.77 60.3614V60.5414C171 60.3614 169.99 60.9514 169.89 60.1814C169.758 60.3353 169.535 60.3732 169.36 60.2714C169.36 60.1814 169.28 60.1814 169.28 60.1014C169.28 60.0214 169.36 60.1014 169.36 60.0114C169.428 60.0023 169.492 59.9706 169.54 59.9214C169.42 59.8114 169.3 59.8614 168.92 59.6614C168.633 59.0148 168.399 58.3459 168.22 57.6614C168.244 57.4243 168.213 57.1849 168.13 56.9614C167.83 57.0314 168.2 56.9614 167.78 57.4814C167.713 57.4737 167.65 57.4458 167.6 57.4014C167.512 56.9357 167.455 56.4647 167.43 55.9914C167.43 55.4814 167.73 55.9914 167.6 53.8714C167.44 53.8714 167.6 53.7114 167.43 53.4314C167.298 53.5654 167.181 53.7129 167.08 53.8714V53.9614C166.99 53.9614 166.99 53.8714 166.9 53.8714C166.9 53.6314 166.68 53.7714 167.08 53.3514C167.38 53.1914 167.53 52.8214 167.08 52.2014L167.43 51.5014V51.3214C167.34 51.3214 167.34 51.3214 167.34 51.4114C166.94 51.2614 167.02 51.3414 166.9 50.1814C167.152 49.5457 167.271 48.865 167.25 48.1814C167.61 48.8114 167.42 50.9414 167.78 52.5814C167.72 52.1314 169.01 51.0114 168.57 50.6514C168.23 50.6514 168.33 50.9814 168.13 50.1214C167.85 49.8914 168.4 49.3214 168.31 48.5314C168.06 48.1614 168.36 47.3314 168.84 46.3314C168.75 46.1714 168.7 46.2114 168.84 45.8914C168.84 45.8014 168.92 45.7214 168.92 45.6314C168.47 44.5514 169.43 45.1214 169.1 42.4614C169.031 42.3938 168.936 42.3607 168.84 42.3714V42.6314C168.931 42.7951 168.989 42.9753 169.01 43.1614L168.75 43.6914H168.66C168.66 43.6914 168.76 43.4714 168.57 43.2514C167.77 43.6514 168.17 41.2514 169.57 40.1714C169.28 39.8114 169.19 39.8414 169.75 39.0214C169.48 39.0814 169.54 38.5414 169.13 38.4114C168.8 36.9714 169.76 38.0814 170.13 35.2414C170.023 35.4476 169.873 35.6283 169.69 35.7714H169.51V35.5914C169.78 35.5014 169.78 35.2414 169.87 34.9814C169.47 34.4114 169.92 34.9814 170.22 33.3014H170.31C170.17 33.1114 170.21 33.3014 170.13 32.5114C170.13 32.4014 169.74 32.4014 170.13 31.8114C170.32 31.5414 170.37 31.6014 170.57 30.2214C170.93 28.0914 171.74 25.4414 171.19 21.9414C169.54 22.0614 170.29 21.7814 167.58 22.6514C167.45 22.7014 167.35 22.6514 167.05 23.2714C166.61 23.7314 166.31 25.0414 165.82 31.3714C165.47 32.5514 162 48.6914 156.75 49.8514C156.05 47.2614 154.75 43.2414 157.1 39.9114C156.88 36.8614 165.54 42.4814 162.65 35.8614C162.19 35.6843 161.719 35.5374 161.24 35.4214C161.172 35.4123 161.108 35.3806 161.06 35.3314C161.036 35.3314 161.013 35.3409 160.996 35.3578C160.979 35.3746 160.97 35.3975 160.97 35.4214C159.914 35.6327 158.9 36.018 157.97 36.5614C157.384 36.5587 156.808 36.7104 156.3 37.0014C156.03 37.2614 155.68 37.1814 155.42 37.4414C155.16 37.7014 154.42 37.1314 153.13 39.2914C152.3 41.8414 150.27 44.6614 152.07 49.1514C152.039 49.4182 152.07 49.6884 152.16 49.9414C152.86 51.4114 153.87 54.2614 157.62 52.8514C157.686 52.8433 157.746 52.8113 157.79 52.7614C158.24 52.7014 158.07 52.6914 159.38 51.5314C160.1 51.2614 160.95 50.2314 162.02 48.5314C161.93 48.1614 162.45 48.1914 162.72 46.6014C162.72 46.6514 162.55 46.3914 162.72 46.3314C162.89 46.2714 162.79 46.1414 163.16 45.2814C163.55 45.2814 163.09 44.1414 164.04 43.5214C164.028 43.9924 163.971 44.4612 163.87 44.9214V45.0014C163.87 44.9114 163.96 44.9114 163.96 44.8214L164.22 44.4714C164.22 44.6514 164.22 44.9114 164.31 45.0014C164.31 45.2914 164.31 45.0014 164.13 45.7014C164.066 45.6951 164.006 45.6669 163.96 45.6214C163.96 45.4314 163.64 45.9714 164.04 46.4114C164.72 46.2114 164.24 47.4114 164.31 48.6114C164.38 48.6114 164.13 48.7014 164.48 49.2314C164.497 49.3713 164.43 49.5081 164.31 49.5814C164.25 49.5814 164.09 49.6614 163.87 49.3114C163.861 49.3797 163.829 49.4431 163.78 49.4914C163.9 50.0414 163.45 50.3414 163.87 51.7814C163.955 51.5334 164.072 51.298 164.22 51.0814C164.34 51.0814 164.66 50.8714 164.57 51.3414C164.5 51.5114 164.57 51.3414 164.48 52.0414C164.48 52.1114 164.66 52.1914 164.48 52.6614V52.8414C164.62 52.9614 164.58 52.7814 164.66 53.2814C164.74 53.7814 165.06 53.7714 164.75 55.5714C164.07 63.0514 172.81 69.6314 175.67 52.2214L175.14 50.2814L175.09 50.5914ZM164.17 51.0014C164.11 50.8314 163.85 50.8414 164.08 50.2014H164.26C164.28 50.4713 164.249 50.7426 164.17 51.0014Z" fill="black"/>
<path d="M215.68 44.0012C215.68 43.9212 215.29 43.7712 215.68 43.1212C215.405 41.4357 215.284 39.7286 215.32 38.0212C215.56 37.3212 215.13 35.6312 212.86 36.0212C212.36 35.5512 211.93 37.2912 210.86 36.2012L210.69 36.3712C210.675 36.5526 210.706 36.7349 210.78 36.9012C210.87 38.8412 210.1 40.7912 208.66 43.9012C208.58 44.4212 208.14 44.7812 207.96 45.3012C207.86 45.4812 207.87 45.3612 207.87 45.7412C207.01 47.2012 205.51 50.5912 204 52.1712C203.91 52.3512 203.65 52.3512 203.47 52.4412C203.224 51.9684 203.046 51.4635 202.94 50.9412C202.892 49.8512 202.952 48.7592 203.12 47.6812C203.14 45.8751 203.344 44.0757 203.73 42.3112C203.736 41.5275 203.886 40.7514 204.17 40.0212C204.28 39.5912 204.17 39.8612 203.82 39.0212C203.805 38.9301 203.775 38.8422 203.73 38.7612C203.23 38.3912 199.99 36.2012 198.36 38.2312C198.26 41.1312 197.23 45.0912 197.75 48.6212C197.58 48.8112 197.43 48.8412 197.75 49.5512C196.56 51.6812 195.09 55.9712 192.93 59.1812C192.93 59.1812 192.56 60.1812 191.88 59.9812C191.46 58.9812 191.82 58.9212 191 56.8112C191 56.8112 190.83 56.7612 191 56.3712C191.17 55.9812 190.74 54.9312 190.91 53.5512C190.75 53.2312 190.59 53.3212 190.91 52.2312V51.7912H190.82C190.729 52.011 190.611 52.2191 190.47 52.4112C190.432 51.8795 190.462 51.3452 190.56 50.8212C190.465 49.5861 190.675 48.3465 191.17 47.2112C191.11 47.2112 191.38 47.0812 191.17 46.8612L191 46.8012C190.64 46.4712 190.76 46.1712 191.27 43.9012C191.27 43.8412 190.93 43.7312 191.09 43.1912C191.343 42.9336 191.553 42.6364 191.71 42.3112C191.71 42.2012 191.8 42.0912 191.53 41.9612L191.44 41.7812C191.56 41.4212 192.44 39.9912 192.06 38.7012C192.23 38.1264 192.347 37.5373 192.41 36.9412C192.1 36.5112 192.26 36.1012 192.41 34.9412C192.06 34.0512 188.76 33.2612 187.83 35.5512C185.26 38.8612 181.6 43.9512 178.68 47.3512C177.97 47.7612 178.23 46.3512 178.59 44.5312L178.5 44.4412V44.3612C178.59 44.1812 178.59 44.0012 178.77 43.8312C179.38 41.8312 180.49 40.2112 182.2 37.4012C182.205 37.3039 182.283 37.2262 182.38 37.2212C184.72 34.2212 183.78 37.4512 186.95 35.8212C186.95 34.1612 184.53 33.8912 182.64 34.8212C182.5 35.0212 181.49 35.1212 180.79 35.4312C179.7 36.0812 179.66 35.7712 178.24 38.1612C178.48 38.1612 177.7 39.0012 178.33 39.1612C178.353 39.161 178.375 39.1708 178.391 39.188C178.406 39.2053 178.413 39.2283 178.41 39.2512C178.024 39.681 177.688 40.1542 177.41 40.6612C177.1 40.8712 177.2 40.8212 176.53 41.2712C176.336 42.058 176.068 42.8247 175.73 43.5612L175.56 43.3912C175.24 43.3912 175.35 43.2912 174.94 43.7412C175.06 44.0112 174.67 43.9712 174.85 45.1512C174.758 45.1996 174.671 45.2566 174.59 45.3212V45.5912C174.88 45.9012 174.59 45.7012 174.41 46.3812L174.5 46.2912C174.5 46.2415 174.54 46.2012 174.59 46.2012C174.636 46.2484 174.695 46.28 174.76 46.2912C174.76 46.3812 174.85 46.3812 174.85 46.4712L175.03 45.9412C175.096 45.9331 175.156 45.901 175.2 45.8512C175.37 46.1212 175.2 45.9812 175.2 46.6412L175.12 46.7312C174.85 46.7312 174.68 47.0012 174.59 47.1712C174.5 47.3412 174.52 47.1712 174.5 47.3512C174.548 47.302 174.612 47.2703 174.68 47.2612L174.76 47.1712C174.85 47.1712 174.85 47.2612 174.94 47.3512C174.87 47.1812 175.12 47.9512 174.76 48.3512C174.76 48.3751 174.77 48.3979 174.787 48.4148C174.803 48.4317 174.826 48.4412 174.85 48.4412C174.85 48.4412 176.2 50.9912 177.85 50.1112C179.35 49.4712 179.05 49.5312 181.37 47.1112C183.103 44.152 185.013 41.3002 187.09 38.5712H187.18V38.6612C186.996 39.0483 186.904 39.4726 186.91 39.9012C186.279 43.0414 185.811 46.2123 185.51 49.4012C185.6 50.1212 185.81 49.5512 185.33 51.0812V51.2512C185.43 51.3912 185.58 51.2512 185.42 51.8712C185.42 51.9612 185.33 52.0512 185.33 52.1312C185.33 52.2112 185.58 52.3012 185.24 53.1312C185.01 53.7212 185.68 53.3612 185.15 56.6512V57.0112C185.47 57.2612 185.55 57.0112 185.51 57.8912C185.573 57.9623 185.602 58.057 185.59 58.1512C186.45 59.2112 185.97 62.3612 188.85 62.9012C189.57 62.9912 190.39 63.9012 192.64 61.9012C193.98 61.2712 194.7 58.3812 195.89 56.4412C195.89 56.2612 195.98 56.1812 195.98 56.0012C196.53 54.6212 197.03 52.8012 197.82 50.2312C197.98 52.6012 202.66 58.2312 205.82 53.2312C207.51 50.5312 208.22 47.2312 210.31 43.0212V43.0012C210.68 46.0012 210.31 49.3912 210.31 53.2112C212.6 65.1112 196.08 55.8512 199.75 77.3312C199.918 77.7057 200.156 78.0451 200.45 78.3312C200.45 78.5912 200.72 78.6812 200.89 78.7712C202.83 78.7712 204.01 81.0012 208.47 78.8612C208.853 78.5816 209.191 78.2443 209.47 77.8612H209.56C209.94 77.6312 210.02 77.7112 211.06 76.3612C210.53 76.0012 212.01 75.8212 211.85 75.0412L211.76 74.9512L211.67 75.0412C211.59 75.0412 211.5 75.0412 211.5 74.9512C211.63 74.3812 214.25 73.3612 213.17 71.7012L212.91 72.2312C212.99 72.5212 213.14 72.4712 212.64 72.9312H212.55L212.47 72.8412L212.64 72.4912C212.692 72.2698 212.783 72.0596 212.91 71.8712C212.91 71.5112 213.3 71.7212 213.52 70.8712H213.43C213.345 70.9934 213.222 71.0846 213.08 71.1312V70.9512C212.97 70.6912 213.67 69.6812 213.61 67.8712H213.52C213.52 67.8481 213.53 67.8261 213.547 67.8108C213.564 67.7954 213.587 67.7883 213.61 67.7912C213.787 67.0383 213.904 66.2726 213.96 65.5012C214.54 64.0512 214.02 62.8812 214.75 60.3912V59.1312C214.58 58.5712 214.49 58.8312 215.02 56.1312C215.43 55.5812 214.25 55.4212 215.11 54.2812C215.221 53.6303 215.368 52.986 215.55 52.3512C215.545 52.2539 215.467 52.1762 215.37 52.1712C215.28 52.0812 215.19 52.0812 215.19 52.0012C215.19 51.9212 215.74 51.8112 215.46 51.2912C215.37 51.2912 215.28 51.2912 215.28 51.3812C215.212 51.4596 215.155 51.5471 215.11 51.6412C214.94 51.5012 215.05 51.6412 215.02 51.0312C215.23 50.7712 215.02 50.6212 215.37 49.4412C215.376 48.9131 215.346 48.3852 215.28 47.8612C215.6 47.1612 215.42 47.7112 215.37 45.7412C215.68 45.6712 215.79 45.0012 215.68 44.0012V44.0012ZM210.48 60.3812C210.11 63.7312 210.55 67.2712 209.34 71.8312H209.51V71.9112H209.34L208.55 73.5012C208.27 73.5012 208.46 74.0012 208.02 74.6412C207.74 74.7112 208.15 75.0312 207.49 75.4412C207.268 75.7741 206.965 76.0457 206.61 76.2312C206.39 76.3812 206.35 76.3112 205.61 76.5812C205.61 76.6712 205.52 76.6712 205.52 76.7612C204.86 77.9012 202.19 77.2012 201.65 75.1712C201.68 74.8811 201.581 74.5926 201.38 74.3812C201.391 73.9055 201.334 73.4307 201.21 72.9712C201.21 72.8412 201.04 72.9712 201.21 72.3512C201.224 72.173 201.194 71.9942 201.12 71.8312C201.47 71.2312 199.23 70.1812 204.03 63.9912C204.212 63.6012 204.483 63.2588 204.82 62.9912C204.98 62.6112 205.52 62.3912 206.31 61.7612C206.334 61.7612 206.357 61.7517 206.374 61.7348C206.391 61.7179 206.4 61.6951 206.4 61.6712C207.353 61.1197 208.265 60.5014 209.13 59.8212C209.13 59.9912 210.02 58.7412 210.28 59.2912C210.28 59.3812 210.36 59.4712 210.36 59.5612C210.36 59.6512 210.41 59.5612 210.45 59.8212C210.45 59.9112 210.16 59.8912 210.36 60.1712C210.48 60.1812 210.57 60.3612 210.48 60.3612V60.3812ZM212.48 73.5912C212.485 73.7992 212.383 73.9952 212.21 74.1112C211.95 73.9512 211.96 74.1112 212.39 73.4112H212.48V73.5912Z" fill="black"/>
<path d="M71.2099 5.00075C71.2099 5.16075 73.5499 4.21075 73.4799 5.14075C72.0099 5.74075 73.3699 8.94075 73.4799 11.5107C75.6199 11.1607 76.8799 11.9207 75.4799 7.28075C75.323 6.52901 75.2194 5.76711 75.1699 5.00075C75.1699 5.00075 75.0499 4.85075 74.8499 5.00075C73.1099 4.76075 76.6799 3.42075 78.1999 3.79075C75.9799 5.55075 77.8599 9.32075 78.0999 13.2107C78.0999 13.2907 78.1699 13.2107 78.1799 13.5707C77.6499 14.9607 81.8699 18.5707 77.0399 17.3307C77.0399 17.3307 77.0399 17.2607 77.0399 17.2307C78.0399 10.4307 70.2599 10.0207 75.7299 17.5907C72.9299 18.6607 72.4699 20.3507 72.2799 15.1907C72.1599 14.6407 72.0299 13.4507 71.7999 12.3307C71.7999 11.8607 71.3599 10.9007 71.2399 9.67075V9.57075C71.2399 9.47075 71.0899 9.49075 71.0399 8.89075C71.7999 6.72075 67.5399 5.39075 71.2099 5.00075V5.00075ZM73.3599 17.2407C75.1999 18.6607 73.0799 13.9607 72.5099 7.55075C72.4107 7.11453 72.3637 6.66806 72.3699 6.22075C72.2899 6.09075 72.4699 5.99075 72.2399 5.55075C70.0099 4.79075 72.5999 12.5507 73.3899 17.2407H73.3599ZM77.6899 16.5307C78.9899 19.7307 75.2599 -2.08925 76.0699 7.53075C76.6399 9.83075 76.7899 11.9707 77.4199 14.9907C77.3599 15.3607 77.6099 15.7507 77.6999 16.3807C77.6692 16.4019 77.6501 16.4361 77.6481 16.4733C77.6462 16.5105 77.6616 16.5465 77.6899 16.5707V16.5307Z" fill="black"/>
<path d="M101.501 14.2213C101.223 14.2503 100.942 14.2126 100.681 14.1113C101.821 13.5913 99.3708 6.73134 98.0708 10.5413C97.6608 12.1413 100.121 15.4013 96.4508 14.6413C95.2908 14.6413 96.3608 14.0313 96.5808 3.70134C96.5477 3.28023 96.5918 2.85662 96.7108 2.45134C95.2208 1.32134 98.1208 1.36134 99.9708 1.88134C100.091 2.27134 99.6008 2.18134 99.0908 2.37134C99.1898 3.30555 99.34 4.23362 99.5408 5.15134C99.7392 6.45282 100.026 7.73917 100.401 9.00134V9.13134C100.481 9.13134 100.531 9.54134 100.571 9.89134C100.693 10.2685 100.793 10.6525 100.871 11.0413C100.371 11.5413 103.551 14.5913 101.731 14.2113C101.655 14.2242 101.578 14.2275 101.501 14.2213ZM96.0008 14.2813C96.0008 14.2813 96.2608 14.1313 96.8508 13.8213C96.8524 13.8811 96.882 13.9367 96.9308 13.9713C97.9308 14.1013 97.3808 12.9713 97.5408 10.9713C97.5028 8.12658 97.7002 5.28356 98.1308 2.47134C97.2908 1.38134 97.0708 4.07134 97.1308 5.52134C96.9408 6.60134 97.0508 8.26134 96.9008 10.5213C96.9078 10.6145 96.9078 10.7081 96.9008 10.8013C96.8228 11.7998 96.8228 12.8029 96.9008 13.8013C96.5895 13.9392 96.2887 14.0997 96.0008 14.2813V14.2813ZM98.6608 3.13134C98.6769 3.10349 98.6769 3.06918 98.6608 3.04134H98.6008C98.4808 3.96134 98.3408 5.56134 98.2308 7.61134C99.4208 11.0013 100.001 7.41134 98.6608 3.13134Z" fill="black"/>
<path d="M120.41 0.000959238C122.41 -0.309041 124.16 3.33096 122.41 6.28096C122.21 7.17096 120.8 7.28096 120.41 8.74096V8.81096C120.77 9.81096 119.93 12.151 121.07 13.291C122.81 13.181 120.37 14.571 118.07 13.871C119.23 12.241 117.77 11.191 118.26 4.63096C117.9 4.17096 119.43 0.410959 117.26 0.790959C117.232 0.791218 117.205 0.776072 117.191 0.751272C117.176 0.726473 117.176 0.695823 117.19 0.670959C117.6 0.000959158 118.52 0.120959 120.41 0.000959238V0.000959238ZM119.67 0.650959C118.58 0.580959 119.15 2.82096 118.98 4.65096C118.79 5.65096 119.06 5.79096 118.81 7.65096C118.65 12.111 120.81 21.041 119.67 0.700959V0.650959ZM120.39 6.83096C123.24 9.90096 122.22 -3.90904 120.53 2.53096C120.37 3.65096 120.47 3.86096 120.36 6.83096H120.39Z" fill="black"/>
<path d="M143.151 1.17182C145.151 1.06182 146.561 4.85182 144.551 7.62182C144.271 8.49182 142.861 8.43182 142.311 9.88182V9.94182C142.571 11.0218 141.511 13.2218 142.541 14.4618C144.281 14.5318 141.711 15.6718 139.541 14.7518C140.851 13.2418 139.491 12.0618 140.621 5.57182C140.311 5.08182 142.201 1.49182 139.961 1.65182C139.891 1.65182 139.871 1.58182 139.961 1.52182C140.371 0.841823 141.261 1.09182 143.151 1.17182V1.17182ZM142.351 1.74182C141.281 1.58182 141.621 3.86182 141.271 5.67182C141.001 6.60182 141.271 6.82182 140.821 8.61182C140.221 13.0318 141.481 22.1318 142.351 1.77182V1.74182ZM142.471 8.00182C145.001 11.3318 145.341 -2.50818 143.021 3.74182C142.761 4.84182 142.831 5.05182 142.441 7.99182L142.471 8.00182Z" fill="black"/>
<path d="M165.311 12.62C165.201 13.38 164.861 15.2 164.621 17.18C164.632 17.2021 164.632 17.2279 164.621 17.25C164.531 17.48 164.561 17.33 164.511 17.98C164.644 18.1084 164.827 18.1707 165.011 18.15C165.061 18.15 165.771 18.57 165.011 18.78C164.149 18.6936 163.296 18.533 162.461 18.3C162.281 18.16 161.961 18.38 161.461 17.82C161.511 17.66 161.461 17.77 161.621 17.5C162.841 19.2 164.491 8.42999 162.151 5.37999C161.861 5.31999 162.091 5.37999 161.651 4.99999C161.211 4.61999 161.741 4.85999 161.791 4.77999C164.431 4.88999 165.031 3.88999 165.721 8.77999C165.75 8.98924 165.814 9.19208 165.911 9.37999C167.751 8.14999 165.911 5.37999 168.781 6.04999C168.986 6.02914 169.191 6.09026 169.351 6.21999C170.101 7.27999 168.041 6.21999 167.491 7.48999C167.379 7.63999 167.281 7.80078 167.201 7.96999C167.011 8.23999 167.001 8.54999 166.481 9.39999C166.379 9.66317 166.222 9.90174 166.021 10.1C165.881 10.16 165.841 10.38 165.761 10.48C165.616 10.8783 165.512 11.2905 165.451 11.71C165.401 12 165.381 12.29 165.311 12.62V12.62ZM163.631 17.9C164.811 16.81 163.381 17.23 165.351 9.89999C165.248 9.29945 165.111 8.70518 164.941 8.11999C164.746 7.2583 164.596 6.38715 164.491 5.50999C164.211 5.52465 163.93 5.49082 163.661 5.40999C163.591 5.40999 163.491 5.46999 163.421 5.47999C163.291 5.74999 163.341 5.47999 163.421 6.47999C163.421 7.86999 164.581 9.33999 164.031 11.48C164.191 11.84 162.251 16.9 163.631 17.9Z" fill="black"/>
<path d="M61.3691 28.7206C94.3949 11.6219 133.439 10.6193 167.299 26.0006L166.219 28.7006C119.439 8.61058 93.2291 20.6006 61.3691 28.7206V28.7206Z" fill="black"/>
<path d="M123.699 29.2404C126.599 25.3804 117.409 21.6404 119.239 28.9204C122.769 28.5504 120.769 33.6504 123.699 29.2404Z" fill="black"/>
</g>
<defs>
<clipPath id="clip0_3_23656">
<rect width="216" height="80" fill="white"/>
</clipPath>
</defs>
</svg>
