<svg width="178" height="149" viewBox="0 0 178 149" fill="none" xmlns="http://www.w3.org/2000/svg">
<path fill-rule="evenodd" clip-rule="evenodd" d="M149.29 44.2903C149.633 43.7893 150.263 42.4413 150.472 40.9863C150.331 41.4813 149.188 43.0773 149.29 44.2903Z" fill="#FFB0D3"/>
<path fill-rule="evenodd" clip-rule="evenodd" d="M138.838 53.1134C139.171 52.3704 139.659 50.4104 139.069 49.0664C139.238 49.7144 138.285 51.8954 138.838 53.1134Z" fill="#FFB0D3"/>
<path fill-rule="evenodd" clip-rule="evenodd" d="M130.216 45.0668C130.997 46.9008 133.487 48.9468 136.096 49.4718C139.31 47.9678 136.166 36.0548 129.389 35.7698C134.132 38.3198 138.406 42.7668 136.176 49.0328C132.674 47.4148 130.4 45.9398 129.879 41.2978C130.117 41.4308 130.189 41.6588 131.715 41.5028C131.54 41.2038 131.738 41.4078 130.707 41.2128C130.445 41.2298 130.695 41.0878 129.858 41.1758C129.818 40.9358 129.795 40.6928 129.761 40.4508C130.15 40.5018 129.761 40.4508 130.94 40.2788C130.751 39.9908 130.974 40.1528 129.711 40.0748C129.584 39.0998 129.485 38.1198 129.435 37.1388C130.464 39.5528 132.05 41.7538 133.634 44.8468C133.232 44.9608 131.816 43.4418 130.879 44.2088C131.521 44.5328 132.299 44.8398 133.725 45.0068C134.015 45.5268 134.301 46.0488 134.604 46.5598C131.357 45.2658 130.318 45.6458 134.78 46.8638C137.089 50.6528 134.987 46.5048 133.66 44.2168C133.873 38.8608 132.938 38.7168 133.528 43.9788C133.318 43.6008 133.108 43.2228 132.9 42.8448C133.029 41.9418 132.867 40.5588 132.657 38.2618C132.53 39.1528 132.331 40.6178 132.794 42.6528C132.518 42.1538 132.4 41.9268 131.661 40.6908C131.689 39.9608 131.57 39.6818 131.389 38.0138C131.372 38.0158 131.318 37.7168 131.206 37.1188C130.974 37.3638 131.171 37.1148 131.068 38.0888C131.109 38.4428 131.085 38.6418 131.262 40.0218C130.498 38.7328 129.753 37.3888 129.386 36.0708C129.314 36.0628 129.553 35.6448 129.173 35.7548C129.168 35.7748 129.131 35.7708 129.154 35.8858C128.706 38.6788 129.128 42.4478 130.216 45.0668" fill="#FFB0D3"/>
<path fill-rule="evenodd" clip-rule="evenodd" d="M134.532 45.1034C134.66 44.0494 134.636 42.2014 134.469 40.1914C134.279 40.8234 134.016 43.6894 134.532 45.1034Z" fill="#FFB0D3"/>
<path fill-rule="evenodd" clip-rule="evenodd" d="M135.191 46.3397C135.054 45.6047 135.463 43.8187 135.558 42.2617C135.469 42.9327 134.599 44.8667 135.191 46.3397Z" fill="#FFB0D3"/>
<path fill-rule="evenodd" clip-rule="evenodd" d="M132.511 43.1119C132.688 42.9309 131.604 42.3319 130.48 42.7159C130.766 42.9359 130.754 42.9469 132.511 43.1119Z" fill="#FFB0D3"/>
<path fill-rule="evenodd" clip-rule="evenodd" d="M140.226 52.8508C141.154 53.0568 141.049 53.3398 143.401 53.7678C142.129 54.1288 139.851 54.3648 137.401 54.8058C138.366 54.1838 139.303 53.5268 140.226 52.8508ZM142.186 51.3718C143.412 51.7378 144.971 52.0288 147.108 52.0588C146.057 52.7908 145.018 53.2748 143.889 53.6228C142.97 53.3488 142.857 53.5528 140.563 52.5958C141.108 52.1928 141.654 51.7918 142.186 51.3718ZM144.311 49.6368C145.393 49.8958 147.236 50.1438 149.325 50.1078C148.969 50.4568 148.568 50.9658 147.432 51.8168C146.346 51.8048 145.118 51.5628 142.488 51.1388C143.103 50.6478 143.712 50.1488 144.311 49.6368V49.6368ZM144.31 43.7958C144.31 43.7928 144.308 43.7908 144.309 43.7888C144.929 43.3548 145.56 42.9408 146.219 42.5748C146.17 43.6338 144.897 46.2248 145.452 47.7768C145.807 46.6308 146.176 44.6358 146.534 42.4028C147.123 42.0898 147.724 41.7998 148.358 41.5638C148.246 42.6688 147.397 44.1948 147.382 46.1638C147.824 45.2518 148.385 43.4698 148.6 41.4628C149.678 41.0878 151.475 40.5998 153.506 40.0178C151.542 41.9038 149.719 43.9338 147.843 45.9108C147.854 45.9688 147.51 45.8688 147.598 46.1698C146.735 47.0258 145.994 47.9168 144.331 49.3628C144.282 49.3778 144.244 49.4098 144.227 49.4548C143.872 49.7528 143.51 50.0428 143.139 50.3238C143.705 48.2438 144.029 45.9318 144.31 43.7958V43.7958ZM153.772 39.9378C153.796 39.9308 153.82 39.9238 153.844 39.9158C153.476 41.2588 153.13 42.5738 152.722 43.8378C152.022 43.9198 151.583 44.1838 149.885 44.3798C150.773 43.4288 152.262 41.8238 153.772 39.9378ZM151.049 47.7458C149.782 47.8088 149.15 47.5548 146.115 48.0508C146.784 47.4408 147.45 46.8278 148.096 46.1918C149.014 46.0888 150.057 46.3428 151.743 46.0418C150.937 45.8298 150.696 45.9548 148.462 45.8228C148.755 45.5308 149.049 45.2398 149.337 44.9418C150.135 44.6838 151.032 44.7218 152.643 44.0788C152.217 45.3618 151.712 46.5888 151.049 47.7458ZM149.504 49.9158C147.864 49.7708 146.243 49.6148 144.612 49.3718C145.107 48.9458 145.602 48.5198 146.085 48.0798C146.357 48.5728 148.45 47.9998 150.957 47.9098C150.544 48.6088 150.062 49.2778 149.504 49.9158ZM156.873 57.3618C168.051 61.7878 177.365 52.9358 168.205 44.9728C163.129 41.6768 157.576 49.4628 161.852 53.0168C166.771 56.7268 169.703 47.3588 163.832 49.8628C163.668 50.1438 163.652 50.3738 164.405 50.4788C162.188 56.3628 158.952 46.7948 163.823 45.4668C169.402 43.1928 173.362 51.5418 169.38 55.5588C165.317 59.9578 160.302 56.4278 155.073 56.6078C152.058 55.5398 148.355 54.5938 144.443 54.6428C149.887 53.5638 155.595 42.8518 153.911 39.6738C146.366 40.1538 135.726 47.1838 136.143 54.7538C137.776 52.3038 138.393 48.4558 141.413 46.0718C139.416 53.2608 141.36 51.3138 141.555 45.9468C142.165 45.4558 142.289 45.2418 144.005 44.0078C143.669 45.4328 142.939 48.0888 142.964 50.4528C142.684 50.6618 142.393 50.8598 142.106 51.0628C142.087 51.0708 142.074 51.0798 142.059 51.0958C141.396 51.5638 140.723 52.0198 140.051 52.4788C140.08 52.4178 139.101 52.5788 139.664 52.7438C138.635 53.4518 137.618 54.1738 136.665 54.9758C136.379 55.3098 135.076 54.8428 134.761 56.0688C129.51 57.1228 116.313 66.1488 118.416 68.4488C136.259 44.1868 176.475 57.4118 167.715 81.8688C165.2 89.7168 153.427 92.5388 151.559 83.8168C150.844 78.3888 159.278 74.7338 162.341 80.1708C162.987 80.8898 162.923 81.6288 162.148 82.3878C161.992 83.8748 161.174 84.3308 159.697 83.7568C157.995 85.9218 164.863 84.1818 163.591 80.9628C163.171 77.1628 158.24 76.0508 155.1 77.1608C145.92 80.9788 152.901 93.5828 161.435 89.4558C175.964 82.6528 169.973 62.0868 156.873 57.3618" fill="#FFB0D3"/>
<path fill-rule="evenodd" clip-rule="evenodd" d="M174.586 59.3563C173.999 59.2653 174.817 59.5283 172.164 59.0673C172.828 57.8923 176.95 58.9503 174.586 59.3563ZM172.09 62.4663C172.12 62.6013 172.149 62.7353 172.178 62.8703C172.082 62.7763 171.983 62.6843 171.898 62.5863C171.317 62.1463 171.382 62.1063 172.09 62.4663V62.4663ZM177.265 58.9413C176.123 56.9113 173.509 57.2673 170.989 58.7813C170.694 58.5003 169.042 58.4503 170.02 59.4173C169.769 59.6033 169.934 60.4953 170.845 59.8613C172.835 60.9603 174.753 62.2953 175.592 64.4543C174.755 64.4133 173.889 64.0923 173.139 63.6203C173.026 58.4193 167.497 61.0123 172.398 64.0623C172.401 64.5103 172.347 64.9693 172.294 65.3323C172.274 65.6443 172.208 65.9473 172.092 66.2393C171.896 67.3423 171.533 67.5863 171.005 66.9713C168.369 66.1033 170.47 60.7283 169.169 60.0983C166.307 63.2503 172.072 73.6063 173.128 64.5413C178.719 67.3103 175.903 61.7853 172.727 60.0283C174.963 60.4343 177.594 60.5713 177.265 58.9413" fill="#FFB0D3"/>
<path fill-rule="evenodd" clip-rule="evenodd" d="M141.004 60.3732C140.417 60.2822 141.235 60.5452 138.582 60.0842C139.246 58.9092 143.368 59.9662 141.004 60.3732ZM138.508 63.4832C138.538 63.6172 138.567 63.7522 138.596 63.8872C138.5 63.7932 138.401 63.7002 138.316 63.6032C137.735 63.1632 137.8 63.1232 138.508 63.4832V63.4832ZM140.941 58.5332C139.678 58.5702 138.489 59.1372 137.407 59.7982C137.112 59.5162 135.46 59.4672 136.438 60.4342C136.187 60.6202 136.352 61.5122 137.263 60.8782C139.253 61.9762 141.171 63.3112 142.01 65.4702C141.173 65.4302 140.307 65.1082 139.556 64.6372C139.444 59.4362 133.915 62.0292 138.816 65.0792C138.819 65.5262 138.765 65.9862 138.712 66.3492C138.692 66.6612 138.626 66.9642 138.51 67.2562C138.314 68.3592 137.951 68.6032 137.423 67.9882C134.787 67.1192 136.888 61.7442 135.587 61.1152C132.725 64.2662 138.49 74.6222 139.546 65.5582C145.137 68.3272 142.321 62.8012 139.145 61.0452C143.293 62.3302 145.783 59.1072 140.941 58.5332" fill="#FFB0D3"/>
<path fill-rule="evenodd" clip-rule="evenodd" d="M25.5092 66.951C24.9932 66.338 24.3982 65.232 24.1192 63.5C26.0362 64.437 28.2982 66.069 29.4782 68.914C28.0672 68.46 26.6482 68.255 25.5092 66.951V66.951ZM18.8812 76.725C17.3812 75.304 15.3732 73.019 15.9072 69.891C17.7902 70.775 18.7562 74.266 18.8812 76.725ZM6.65017 83.161C6.08617 85.109 5.09217 86.857 3.60317 88.237C2.91517 85.782 3.16317 80.233 6.92917 78.855C7.00617 79.993 7.15617 81.229 6.65017 83.161V83.161ZM6.14617 69.25C4.94417 68.714 4.20317 67.559 3.35217 66.564C5.74017 65.383 10.5412 65.1 12.2172 68.636C10.1612 68.675 8.34317 70.228 6.14617 69.25V69.25ZM20.8342 58.195C20.2132 57.033 20.1322 55.805 20.1652 54.559C22.2502 55.1 24.6442 56.947 25.3572 60.057C24.2462 59.658 21.8642 60.116 20.8342 58.195V58.195ZM28.5132 65.297C27.4102 64.139 25.9072 63.032 24.2982 62.592C25.5042 62.073 33.1272 57.972 26.2292 60.193C28.6622 56.709 19.9122 48.818 18.3252 53.533C17.0582 56.085 18.3412 61.115 22.1352 61.701C22.0302 61.83 21.9402 61.967 21.8662 62.11C18.9642 63.582 16.3262 65.35 14.0002 67.479C13.7182 67.578 13.5332 67.777 13.4382 68.02C13.3442 68.111 13.2492 68.201 13.1562 68.292C11.8852 64.185 5.85217 62.803 1.95417 65.317C-4.56183 64.311 6.98617 74.349 10.8232 70.872C9.35317 72.692 8.06117 74.72 6.96017 76.973C2.17717 76.278 -1.31483 86.073 3.30217 88.769C5.88617 92.068 11.2052 79.967 7.98917 77.901C9.41217 74.963 11.1682 72.557 13.1842 70.501C12.1512 72.911 18.6042 82.755 20.1132 78.162C21.0922 74.712 19.7212 69.095 16.2952 67.722C17.9672 66.408 19.7602 65.227 21.6462 64.108C22.3522 67.664 25.8572 71.217 30.0482 70.555C32.2332 70.56 29.8032 66.322 28.5132 65.297" fill="#FFB0D3"/>
<path fill-rule="evenodd" clip-rule="evenodd" d="M134.031 16.8378C133.841 13.8638 126.933 23.8918 125.812 19.5248C131.446 15.3538 139.028 13.2018 126.146 16.3218C124.618 17.1198 124.021 16.7678 124.356 15.2648C124.489 12.1508 129.384 14.4878 132.192 14.2698C133.627 13.1878 129.901 11.8298 128.276 10.4978C127.42 9.9658 126.6 9.3828 125.815 8.7488C125.56 6.3288 125.957 5.5198 127.005 6.3218C129.959 6.3348 133.139 15.1428 134.121 12.6038C128.204 0.2578 116.079 4.6088 129.745 12.8888C121.246 10.9058 117.931 18.2438 126.3 17.6108C118.557 26.2358 132.539 20.4288 134.031 16.8378" fill="#E62575"/>
<path fill-rule="evenodd" clip-rule="evenodd" d="M151.326 13.0529C151.086 13.2499 149.876 13.2859 148.823 13.2449C147.776 12.8749 145.566 12.2939 143.535 12.8999C144.095 10.8049 148.982 10.5779 151.112 10.7889C151.434 10.8279 151.757 10.8659 152.079 10.9049C151.828 11.6209 151.577 12.3369 151.326 13.0529V13.0529ZM153.578 10.5349C151.972 8.05593 139.703 10.9069 143.457 12.9949C143.67 14.5809 146.413 14.0949 148.895 14.4639C152.338 15.9599 149.957 18.4259 146.182 15.7699C144.535 14.8739 140.887 11.6799 142.054 14.3149C145.244 17.6719 156.847 21.2699 150.759 14.3239C152.171 14.2399 154.815 12.8959 153.578 10.5349" fill="#E62575"/>
<path fill-rule="evenodd" clip-rule="evenodd" d="M135.224 14.5633C136.621 14.2983 140.745 13.7903 141.034 16.8173C139.767 19.2093 136.107 16.8763 135.224 14.5633ZM134.925 21.3023C134.628 22.0623 134.878 22.1053 133.779 23.8583C133.453 24.7073 133.03 24.7393 132.51 23.9543C131.075 22.8783 132.717 19.5573 135.039 18.5873C135.166 19.4903 135.141 20.3873 134.925 21.3023ZM143.116 17.1903C140.573 18.2333 149.306 21.0063 148.282 24.5153C147.035 26.3553 144.051 23.6903 142.822 21.6613C142.503 19.5153 139.77 18.7763 142.069 22.5623C144.811 34.3713 136.351 25.0013 139.121 18.8183C141.979 19.2303 143.861 15.2473 139.722 13.6783C142.384 12.4233 143.297 -1.00568 138.809 6.06232C137.318 -7.99468 132.901 5.96932 136.053 12.1363C138.708 15.7713 134.534 3.13432 137.027 2.75232C138.856 4.40632 137.339 9.02632 137.413 12.1893C137.358 12.8993 138.42 12.8693 138.503 12.1893C138.419 11.5443 139.809 4.29132 140.886 5.95232C141.932 7.97032 139.494 11.3493 139.207 13.5003C138.518 13.4313 136.052 12.6643 134.784 13.9303C133.48 13.9223 134.404 15.8023 135.47 17.0133C135.187 16.9913 134.884 17.1833 134.855 17.4993C123.789 25.2623 137.557 31.4413 135.925 17.4493C136.54 17.8333 136.641 18.1933 138.284 18.6693C134.78 29.0203 145.699 33.8853 143.721 24.5173C153.166 30.5263 149.219 19.2713 143.116 17.1903Z" fill="#E62575"/>
<path fill-rule="evenodd" clip-rule="evenodd" d="M46.4635 39.7098C45.9665 32.7998 42.0335 20.2698 43.6385 36.6938C40.6015 36.6648 36.3835 36.9668 32.4975 37.1728C32.8905 22.4318 24.9755 22.8868 27.1245 37.5618C25.2715 37.5858 21.4515 38.5708 27.1625 38.7768C27.4185 41.0718 26.8565 44.5838 27.8835 47.6918C27.9065 47.6908 27.9295 47.6908 27.9525 47.6898C35.3145 52.1218 32.6915 43.9138 32.6035 38.7818C35.4875 38.7088 40.0895 38.6538 43.8205 38.4348C44.5935 57.7208 50.7915 57.1888 46.4635 39.7098" fill="#FDE46B"/>
<path fill-rule="evenodd" clip-rule="evenodd" d="M67.4765 36.2437C64.0885 35.9097 64.2585 38.6877 64.5805 42.2427C55.7395 53.1217 52.2285 30.4367 61.5685 33.8017C62.1195 33.3247 62.6685 33.5037 61.7095 32.4257C49.0495 27.4817 48.0595 57.5767 64.7945 44.3017C65.0345 46.1857 65.3735 48.0637 65.7615 49.8837C65.6285 50.6237 66.0245 52.4147 67.7445 51.7197C74.2395 49.7887 67.6605 39.9437 67.4765 36.2437Z" fill="#FDE46B"/>
<path fill-rule="evenodd" clip-rule="evenodd" d="M85.6863 38.2092C84.9933 41.4022 82.4133 43.6252 79.3883 43.9342C79.2113 41.2642 78.9473 38.6072 78.5383 34.9942C80.8533 33.7122 87.4653 33.2112 85.6863 38.2092ZM82.2793 32.7452C80.7273 32.6912 79.3883 32.9702 78.3203 33.6812C71.6193 17.4082 74.9703 63.2362 74.7373 65.4372C83.2023 73.5562 79.4213 48.9412 79.4883 45.4422C86.6603 45.3862 92.2593 32.5852 82.2793 32.7452" fill="#FDE46B"/>
<path fill-rule="evenodd" clip-rule="evenodd" d="M101.243 43.6661C100.905 43.8271 99.4692 44.3071 98.4092 44.4511C98.2222 41.9601 98.0133 39.4591 97.6473 36.9891C101.902 36.2871 106.158 40.6491 101.243 43.6661V43.6661ZM103.071 36.9821C101.349 35.8361 99.4243 35.8041 97.5243 36.1581C91.9593 13.0671 95.0142 57.3261 94.8222 60.2271C102.54 71.0101 98.1963 49.1241 98.5113 45.8181C102.715 45.9011 108.254 40.8271 103.071 36.9821" fill="#FDE46B"/>
<path fill-rule="evenodd" clip-rule="evenodd" d="M121.141 31.6674C118.174 30.8714 116.105 35.4814 114.813 38.1164C112.284 36.5854 109.053 32.7034 105.724 30.6484C105.31 32.8274 111.937 36.6504 114.421 38.9794C113.285 43.6654 100.031 63.0494 111.905 57.1804C114.905 49.3534 121.391 40.0744 121.141 31.6674Z" fill="#FDE46B"/>
<path fill-rule="evenodd" clip-rule="evenodd" d="M122.805 85.9862C116.795 95.6672 131.942 92.2422 123.93 85.6882C123.534 85.5882 123.092 85.6862 122.805 85.9862Z" fill="#232323"/>
<path fill-rule="evenodd" clip-rule="evenodd" d="M110.757 83.0394C112.453 77.9574 115.442 84.3373 113.23 87.6973C111.957 86.9963 110.843 85.3664 110.757 83.0394ZM102.694 92.1023C105.72 88.4953 105.849 95.0414 101.962 96.1334C101.887 94.7494 102.074 93.2733 102.694 92.1023ZM90.061 79.3024C97.845 62.6414 98.076 84.0754 88.608 84.9264C88.911 83.0264 89.382 81.1454 90.061 79.3024ZM68.459 96.4974C67.273 95.5334 66.99 93.8713 66.975 92.2273C67.527 93.7623 69.11 95.2754 71.332 95.8854C70.755 96.9774 69.843 97.6234 68.459 96.4974ZM71.334 89.9783C72.118 90.6673 72.245 91.7783 72.165 92.7833C71.775 92.6873 71.382 92.5534 70.981 92.3454C70.344 92.0624 69.91 91.5883 69.68 90.9213C69.805 89.3733 70.356 89.0593 71.334 89.9783ZM36.733 77.2654C41.831 72.9424 40.087 83.2214 36.568 85.7034C35.966 83.2414 35.736 79.6214 36.733 77.2654ZM123.518 99.4984C123.27 94.0214 111.735 107.976 118.192 91.6364C118.876 91.1744 119.521 90.5244 120.096 89.6374C120.078 89.6264 120.06 89.6154 120.042 89.6054C120.669 86.5594 116.803 88.6643 114.366 88.1003C117.975 68.4793 98.585 82.4154 111.756 91.3684C111.003 92.9084 110.129 94.3814 109.502 95.9734C108.286 96.6374 102.308 100.732 102.078 97.2113C117.31 85.5543 90.058 84.9764 97.576 102.496C86.507 106.035 100.703 83.1544 88.225 90.1334C88.21 89.1254 88.256 88.1193 88.34 87.1163C113.16 76.3893 89.406 53.2474 82.28 84.4934C81.432 84.1704 80.615 83.7684 79.805 83.3454C86.048 63.3174 81.627 64.2334 77.615 82.2324C75.166 80.0574 65.944 81.6433 67.736 85.7813C70.264 82.6323 73.288 82.1003 77.189 84.2553C76.703 86.7423 76.328 89.3154 76.093 91.9044C75.883 92.0554 75.671 92.1893 75.455 92.3083C75.62 88.0483 69.265 84.5013 66.978 89.0053C65.822 88.3953 65.59 89.6353 65.289 91.9373C70.414 56.1393 52.811 62.9614 49.134 77.6124C47.797 84.0464 51.913 89.1784 50.708 95.9314C47.492 93.6224 48.398 83.3104 43.409 84.3474C40.721 84.9054 39.556 88.1874 39.24 91.3454C38.605 90.3994 38.037 89.4354 37.569 88.4544C42.699 84.3844 45.107 71.3094 35.695 70.5804C27.825 72.9264 27.026 86.1443 30.025 92.5033C24.781 95.6133 20.672 110.885 26.983 108.815C25.828 103.448 26.964 98.8043 31.187 94.8523C43.19 117.79 55.331 106.872 40.793 93.4804C40.874 91.9584 41.148 90.4804 41.784 88.9994C41.988 88.4534 42.246 87.9334 42.555 87.4384C44.303 86.9754 45.253 87.4413 45.403 88.8393C46.014 92.8783 52.382 104.668 52.584 93.3103C51.508 85.1753 48.782 72.5204 58.958 69.6794C63.143 70.3764 55.639 91.9654 57.503 95.4384C55.817 104.706 65.406 126.106 72.794 111.904C69.936 102.69 66.804 118.607 65.24 94.8014C65.571 100.923 73.8 102.776 75.278 95.8054C75.476 95.7494 75.668 95.6804 75.86 95.6084C74.144 105.726 81.248 117.142 89.759 107.499C92.236 103.341 86.082 98.8794 83.301 103.848C80.112 104.832 78.801 96.7494 78.753 93.5914C79.088 93.1564 79.378 92.8124 78.762 91.7354C78.806 90.1434 79.054 87.7634 79.443 85.3633C79.997 85.5873 79.373 85.4543 81.919 86.4604C78.701 104.853 91.602 105.209 88.266 91.0264C94.715 88.1784 90.266 95.4494 89.979 99.8604C88.736 106.097 95.966 108.708 100.078 104.56C105.519 106.553 108.869 100.924 110.197 95.7724C111.278 94.7384 112.189 93.4294 112.917 91.9824C113.712 92.3214 114.536 92.5033 115.353 92.5053C109.091 101.56 118.267 108.003 123.518 99.4984" fill="#232323"/>
<path fill-rule="evenodd" clip-rule="evenodd" d="M133.451 100.126C147.074 122.461 109.976 119.833 133.36 99.9869C133.389 100.034 133.422 100.079 133.451 100.126ZM130.422 89.0369C132.147 81.0379 138.431 85.7029 130.933 91.4499C130.586 90.7179 130.376 89.9279 130.422 89.0369ZM144.245 88.1259C148.451 79.8939 136.768 70.2159 133.894 79.2669C147.668 76.2909 141.947 91.2809 133.63 95.0689C133.245 94.6069 132.94 94.2649 131.767 92.8129C147.409 79.1999 121.984 78.5659 128.489 93.4609C128.291 93.6489 128.286 93.9789 128.954 94.2229C129.564 95.1559 130.286 96.0439 131.013 96.9209C96.4853 123.45 155.812 131.969 135.79 97.9649C138.814 95.6709 142.613 92.3309 144.245 88.1259" fill="#232323"/>
<path fill-rule="evenodd" clip-rule="evenodd" d="M71.4778 133.112C70.1968 136.628 67.2578 139.025 62.8908 140.273C62.2178 136.6 62.1328 131.628 62.0018 126.889C65.1508 126.804 72.2278 127.547 71.4778 133.112ZM70.3728 125.389C67.9148 124.21 64.0758 123.901 61.4608 125.186C59.2838 124.09 58.8578 144.763 61.8878 143.35C70.2338 144.456 80.7438 130.865 70.3728 125.389Z" fill="#232323"/>
<path fill-rule="evenodd" clip-rule="evenodd" d="M86.9022 133.879C85.4962 134.085 83.9522 134.196 82.5292 134.569C84.5842 124.506 85.9882 124.615 90.1372 133.471C89.0682 133.538 88.0012 133.718 86.9022 133.879V133.879ZM94.9992 136.927C94.7762 136.243 94.5292 135.565 94.2782 134.889C94.2472 134.726 94.1932 134.57 94.1142 134.426C79.1792 100.065 74.9952 164.13 82.0452 137.184C84.5202 137.684 87.7992 136.61 91.3012 136.873C91.8112 138.732 92.2352 140.623 92.9152 142.401C96.5332 146.925 96.9332 140.383 94.9992 136.927Z" fill="#232323"/>
<path fill-rule="evenodd" clip-rule="evenodd" d="M111.413 124.711C109.401 125.453 109.205 128.735 107.361 131.07C104.703 129.641 102.097 127.715 99.8994 124.47C94.3274 123.184 103.084 134.12 105.985 134.67C103.277 144.357 109.527 147.848 108.959 135.631C109.949 135.184 110.483 133.801 109.809 132.794C110.538 131.091 113.735 126.829 111.413 124.711" fill="#232323"/>
<path fill-rule="evenodd" clip-rule="evenodd" d="M51.6447 136.11C50.3367 136.444 49.0307 136.781 47.7237 137.117C43.7407 130.951 39.5427 130.589 45.6707 137.639C44.5357 137.928 43.4007 138.219 42.2637 138.502C41.4217 134.239 36.6167 131.003 40.4377 138.933C39.7277 139.092 39.0147 139.236 38.2977 139.357C38.0667 139.188 37.7797 139.109 37.4997 139.218C37.0787 137.963 36.7257 136.69 36.4397 135.396C34.9567 130.934 33.8487 136.788 35.6967 139.677C34.9607 139.727 34.2227 139.737 33.4827 139.701C32.8787 133.478 29.1537 130.799 31.4737 139.419C30.6667 139.234 29.9027 138.968 29.1827 138.625C29.7747 132.823 26.4347 127.429 27.2377 137.456C26.4217 136.853 25.6767 136.149 24.9987 135.373C24.9687 133.437 25.7807 130.997 26.7077 128.494C24.8007 126.276 23.7407 130.856 23.3147 133.098C19.4987 123.478 17.5088 127.766 22.0547 134.56C15.0577 134.958 16.5477 137.174 23.7237 136.768C24.3287 137.454 24.9877 138.079 25.6907 138.645C16.0097 140.63 21.0337 142.758 27.5967 140.08C27.8387 140.397 28.2497 140.521 28.6117 140.449C29.0107 140.628 29.4227 140.784 29.8447 140.921C23.9017 144.972 27.3677 146.216 32.2637 141.445C33.2847 141.567 34.3097 141.601 35.3327 141.553C28.1027 149.985 34.0577 147.409 38.0317 141.274C38.6817 141.174 39.9717 140.947 41.3877 140.62C41.6027 140.721 41.8447 140.709 42.0697 140.603C30.8657 156.743 47.1487 142.253 42.2907 140.461C42.3227 140.435 42.3557 140.413 42.3857 140.383C43.7717 140.055 45.1547 139.713 46.5347 139.356C43.4117 148.923 45.6077 153.173 48.6227 139.209C48.7647 139.074 48.8877 138.913 48.9487 138.728C49.7947 138.704 54.8947 137.33 51.6447 136.11" fill="#C5DF5D"/>
<path fill-rule="evenodd" clip-rule="evenodd" d="M156.046 132.836C154.725 132.37 153.354 132.193 151.993 132.296C156.488 125.672 154.68 120.995 150.733 130.834C150.532 129.973 149.722 124.072 147.341 126.23C147.54 128.297 149.206 130.271 149.049 133.109C148.371 133.886 147.626 134.589 146.81 135.193C147.76 126.464 144.41 128.849 144.866 136.361C144.145 136.704 143.381 136.971 142.575 137.155C144.797 129.893 141.57 129.744 140.565 137.438C139.825 137.474 139.087 137.462 138.352 137.412C139.549 136.161 139.899 128.141 137.608 133.133C137.323 134.426 136.97 135.699 136.548 136.955C136.268 136.846 135.982 136.924 135.751 137.094C135.034 136.972 134.32 136.828 133.61 136.669C136.392 132.357 134.529 128.356 131.785 136.236C130.647 135.956 129.512 135.666 128.376 135.377C134.185 128.956 130.778 128.146 126.323 134.855C123.164 133.1 117.491 134.769 125.101 136.466C125.163 136.654 125.29 136.818 125.435 136.954C126.394 144.247 131.684 152.569 127.511 137.088C128.888 137.443 130.268 137.781 131.651 138.11C131.683 138.144 131.721 138.169 131.758 138.198C128.652 137.391 133.306 145.996 135.812 145.876C137.134 143.789 133.021 141.325 131.978 138.34C132.202 138.445 132.443 138.458 132.657 138.359C133.764 138.613 134.888 138.841 136.018 139.013C139.704 144.818 146.049 147.996 138.715 139.289C139.739 139.337 140.763 139.304 141.784 139.181C144.626 142.429 151.425 144.183 144.201 138.656C144.623 138.519 145.034 138.363 145.433 138.185C145.796 138.258 146.208 138.135 146.451 137.817C152.553 140.387 158.426 138.544 148.355 136.381C149.058 135.816 149.718 135.19 150.324 134.505C151.256 133.365 158.266 136.107 156.046 132.836" fill="#C5DF5D"/>
</svg>
