<svg width="189" height="144" viewBox="0 0 189 144" fill="none" xmlns="http://www.w3.org/2000/svg">
<g clip-path="url(#clip0_3_22303)">
<path d="M58.7296 77.72C58.7296 73.42 58.5396 63.99 58.6596 59.72L59.6596 59.18C62.1896 61.08 63.5896 73.1 64.4996 76.67C65.4996 72.26 67.2996 64.67 67.4996 59.81V59.6C70.4996 55.46 69.4996 66.82 69.8196 70.53C69.5396 76.67 71.9296 88.53 68.1396 85.98C67.7696 83.77 68.0096 70.12 67.9096 68.74C67.6496 70.32 66.0396 76.35 65.7596 78.61V78.84C63.3296 89.14 61.9996 68.92 60.3996 65.65C60.3996 67.51 60.3296 68.92 60.3296 69.86L60.6196 84.22C60.621 84.7091 60.4308 85.1794 60.0896 85.53C59.2496 85.44 58.5896 85.15 58.5596 83.38L58.7296 77.72Z" fill="#3F3029"/>
<path d="M81.2792 75.0986L80.9992 79.5086V79.6586C79.9992 92.6586 71.0892 86.4686 72.2992 69.0286C71.2692 53.2786 82.8492 55.3486 81.2792 75.0986ZM78.1892 62.3186C76.3892 57.9986 73.8992 62.2386 73.9992 66.7386C73.9392 67.4886 73.8792 69.5986 73.8592 70.9486C75.7492 98.9086 83.0792 77.5886 78.1892 62.3186V62.3186Z" fill="#3F3029"/>
<path d="M86.9998 65.36L86.9298 69.86C87.0498 73.38 87.3498 80.64 87.5298 84.17C87.6198 85.57 85.6598 87.25 85.3898 84.11L85.6698 78.54C85.2898 74.11 85.4798 66.06 84.9198 61.35L83.0198 61.54C77.7198 59.97 93.1598 57.31 88.3598 61.11L87.1198 61.05H86.7598C86.925 62.4807 87.0052 63.9199 86.9998 65.36V65.36Z" fill="#3F3029"/>
<path d="M97.4095 86.1588C95.2895 83.5488 97.0295 76.2588 96.2195 72.6888C95.1555 72.4448 94.0464 72.4793 92.9995 72.7888C92.6195 74.8588 94.9995 88.5388 92.1795 84.7088C91.4895 80.1988 88.7695 55.4288 92.6595 59.8188C92.5795 60.6488 92.5395 61.5188 92.5395 62.4388L92.7795 69.6188V70.9388C92.7806 71.2402 92.804 71.541 92.8495 71.8388L96.2395 71.5788L96.1095 60.1288V59.1988C98.5995 57.9988 99.3995 86.6088 97.4095 86.1588V86.1588Z" fill="#3F3029"/>
<path d="M104.46 72.8496H103.59C103.323 72.8234 103.058 72.9189 102.87 73.1096V83.8396C104.36 83.8396 106.34 83.2596 106.81 84.7796C106.2 85.7796 102.81 86.4496 101.13 85.3296C100.66 81.6396 101.47 64.2396 100.52 60.7196C100.762 60.2783 101.054 59.8657 101.39 59.4896L103.98 59.1896C104.69 58.8296 106.98 61.1896 103.98 61.3696H102.98H102.6L102.88 67.1396C102.88 67.7096 102.76 69.3096 102.71 71.1396C103.41 70.3596 107.14 71.3096 104.46 72.8496V72.8496Z" fill="#3F3029"/>
<path d="M108.579 84.609C108.579 84.609 108.689 68.109 108.709 64.709C108.709 64.919 108.709 62.149 108.709 59.979C108.239 58.619 111.089 58.789 112.489 60.359C114.109 62.359 114.489 65.449 113.179 68.789C113.119 68.919 112.649 70.079 112.409 70.699C112.319 73.889 114.689 80.349 116.009 84.339C116.129 85.489 115.419 86.979 113.889 85.049V84.929C113.979 82.639 111.579 74.929 110.429 70.989C109.939 71.429 111.999 90.999 108.579 84.609ZM110.509 60.689L110.319 67.819V69.419C110.743 68.9997 111.134 68.5484 111.489 68.069L112.039 65.069C112.219 64.349 111.939 61.309 110.509 60.689V60.689Z" fill="#3F3029"/>
<path d="M118.13 67.1999C117.47 66.8999 118.66 58.3199 121.18 59.0899C121.61 61.3299 120.73 65.5999 118.13 67.1999Z" fill="#3F3029"/>
<path d="M123.189 85.2188C132.009 83.7288 128.309 76.0888 124.189 67.5688C122.409 64.0788 124.399 55.7488 129.519 60.0588L128.919 60.8088C128.442 60.8322 127.969 60.7139 127.559 60.4688C121.949 63.6988 129.299 71.2588 130.419 77.3088C131.779 81.5688 128.519 89.4588 123.189 85.2188V85.2188Z" fill="#3F3029"/>
<path d="M90.1996 106.779L90.2896 107.519C90.3496 110.749 86.2896 123.429 81.2896 118.519C83.0496 115.519 81.2896 107.049 81.4096 102.889L81.5096 99.0687C79.8896 93.8087 81.5096 91.1887 87.3796 94.4687C90.4596 97.6487 90.0796 101.579 90.2396 106.469C90.2 106.567 90.1862 106.674 90.1996 106.779V106.779ZM83.7696 114.349V117.699C89.0796 114.699 91.4796 95.6987 82.9396 95.2687C82.8696 98.7487 83.8196 110.389 83.7696 114.349V114.349Z" fill="#3F3029"/>
<path d="M99.1893 119.619C97.5293 120.079 98.2593 115.119 98.1093 114.169C96.8217 113.616 95.4403 113.314 94.0393 113.279C93.3293 114.419 93.4393 116.759 92.3193 119.279C91.4093 119.279 90.8993 119.039 90.7793 118.579C92.8993 114.419 93.8493 91.0491 98.2493 93.6691C98.1093 99.5991 102.289 118.279 99.1893 119.619V119.619ZM97.7193 108.219C97.5393 105.879 96.8993 100.909 96.9393 98.2191C96.2093 98.6591 94.2093 110.799 94.2593 111.689C95.4997 112.044 96.7995 112.143 98.0793 111.979C98.0493 111.549 97.9293 110.289 97.7193 108.219V108.219Z" fill="#3F3029"/>
<path d="M104.49 119.21L104.66 112.46C105.93 111.02 98.5197 89.2701 102.91 94.0301C103.68 95.7701 104.25 99.1801 104.97 102.49C104.89 102 106.06 89.4901 107.97 94.4901C107.85 97.2201 106.26 102.93 106.32 105.49L106.22 106.7V107.23L106.41 116.49L106.53 118.23C106.93 118.91 105.56 121.43 104.49 119.21V119.21Z" fill="#3F3029"/>
<path d="M73.6791 35.449C75.9691 37.259 63.8591 38.149 69.2691 35.559C70.7491 35.459 71.9991 34.869 73.6791 35.449Z" fill="#3F3029"/>
<path d="M82.0599 46.7C80.3499 44.6999 81.7499 38.7799 81.0599 35.7599C80.4299 35.8399 81.1499 35.3499 78.4399 35.8399C77.9999 37.7599 79.9999 44.3799 78.3399 46.1999C77.3399 46.3399 74.9199 21.4299 78.1999 25.2999C78.1399 25.9699 78.0999 26.6899 78.0999 27.4299L78.2999 33.2699V34.33C78.2836 34.5763 78.2836 34.8235 78.2999 35.0699L81.0599 34.8599C81.0599 34.1799 80.9399 25.6899 80.9499 24.7999C82.9999 23.8899 83.7099 46.7099 82.0599 46.7V46.7Z" fill="#3F3029"/>
<path d="M90.9999 46.2587C89.6499 46.6187 90.2399 42.6387 90.1199 41.8287C89.0731 41.3783 87.9493 41.1338 86.8099 41.1087C86.2199 42.1087 86.2899 44.1087 85.4199 45.9587C84.6799 45.9587 84.2599 45.7687 84.1699 45.3887C86.1699 41.8187 86.0499 24.1687 90.2399 25.1487C89.9999 30.6387 93.5799 41.4387 90.9999 46.2587V46.2587ZM89.8399 36.9987C89.6899 34.9987 89.1799 31.2487 89.1999 28.8987C88.6299 29.2487 87.0299 38.8087 87.0199 39.8987C88.0309 40.182 89.0883 40.2602 90.1299 40.1287C90.0999 39.6987 89.9999 38.6787 89.8399 36.9987V36.9987Z" fill="#3F3029"/>
<path d="M93.9994 45.4695C94.0594 40.2795 94.4294 29.5195 93.3994 25.2195C98.7994 22.0095 101.339 33.8495 95.3994 36.4095L95.6194 45.2495C95.8294 45.8195 94.2694 47.4095 93.9994 45.4695ZM95.3394 34.9995C96.8694 33.6895 98.1894 30.3595 97.1094 27.9995C96.7594 27.3795 96.4094 27.0795 94.9994 26.0695C94.9994 27.5495 95.3294 32.7395 95.3394 34.9995Z" fill="#3F3029"/>
<path d="M100.86 45.4695C100.93 40.2795 101.3 29.5195 100.27 25.2195C105.67 22.0095 108.21 33.8495 102.27 36.4095L102.49 45.2495C102.69 45.8195 101.12 47.4095 100.86 45.4695ZM102.19 34.9995C103.72 33.6895 105.05 30.3595 103.97 27.9995C103.61 27.3795 103.27 27.0795 101.86 26.0695C101.84 27.5495 102.19 32.7395 102.19 34.9995Z" fill="#3F3029"/>
<path d="M109.47 45.9294L109.61 40.4394C110.61 40.0594 104.36 19.4894 108.47 26.2094C109.03 27.9794 109.32 29.9194 109.86 32.3394C111.41 19.0494 113.08 26.4494 110.97 34.7994L110.88 35.7994V36.2294L111.03 43.7494L111.13 45.1594C111.45 45.6794 110.33 47.7294 109.47 45.9294Z" fill="#3F3029"/>
<path d="M120.65 35.449C122.93 37.259 110.82 38.149 116.23 35.559C117.72 35.459 119 34.869 120.65 35.449Z" fill="#3F3029"/>
<path fill-rule="evenodd" clip-rule="evenodd" d="M73.9992 137.369C72.9092 139.929 66.8192 142.829 62.4092 141.669C57.0692 140.509 39.8992 134.469 58.6892 134.529C64.2692 133.999 68.3792 134.459 73.9992 137.369V137.369Z" fill="#568329"/>
<path fill-rule="evenodd" clip-rule="evenodd" d="M68.7596 114.589C70.6796 115.279 82.8996 133.779 75.7596 132.759C72.6796 132.879 56.9396 103.349 68.6796 114.609L68.7596 114.589Z" fill="#568329"/>
<path fill-rule="evenodd" clip-rule="evenodd" d="M80.5995 135C77.3595 140.72 50.4395 124 54.9195 119.92C60.3595 128.17 69.8495 133.47 80.5995 135Z" fill="#568329"/>
<path fill-rule="evenodd" clip-rule="evenodd" d="M45.4095 102.259C44.8423 100.604 44.7013 98.8332 44.9995 97.1094C52.8195 99.6794 63.6995 118.299 50.4595 121.939C44.0095 121.489 32.0695 111.329 37.4595 104.129C44.3195 110.919 34.3095 94.0994 45.4095 102.259V102.259Z" fill="#FF4D54"/>
<path d="M32.2698 35.0798C33.0898 31.6298 37.3698 25.6998 38.9598 23.5098C35.0298 24.8498 32.9098 30.1998 30.9598 33.8898C28.7421 38.108 27.5886 42.8041 27.5997 47.5698C29.8698 46.9398 30.0898 38.3398 32.2698 35.0798V35.0798Z" fill="#568329"/>
<path d="M23.05 39.4103C23.7224 40.913 24.7318 42.2407 26 43.2903C26.11 43.0403 26.21 42.7803 26.33 42.5303C26.56 37.3403 28.06 29.9103 28.25 24.8203C25.61 25.0903 22.67 32.4903 22.25 37.1903C22.4523 37.9519 22.72 38.6947 23.05 39.4103Z" fill="#568329"/>
<path d="M42.4593 32.75C37.3493 33.75 32.9693 39.97 30.5693 44.75C31.4593 48.21 45.9993 33.05 42.4593 32.75Z" fill="#568329"/>
<path fill-rule="evenodd" clip-rule="evenodd" d="M53.5496 16.9995C55.0653 16.4074 56.7044 16.2012 58.3196 16.3995C56.6396 24.0795 36.9996 35.1695 35.5596 21.3995C36.9096 15.8095 44.0696 5.19949 51.4996 9.71949C45.3196 16.3995 60.7496 6.22949 53.5496 16.9995V16.9995Z" fill="#FF4D54"/>
<path fill-rule="evenodd" clip-rule="evenodd" d="M15.6299 78.9004C16.4799 83.9904 22.6299 95.8504 29.4899 95.4504C27.2099 89.0904 22.0599 83.1904 15.6299 78.9004V78.9004Z" fill="#639C3B"/>
<path fill-rule="evenodd" clip-rule="evenodd" d="M36.47 73.7285C33.66 79.4985 34 87.4585 37.16 93.9985C40.85 89.1185 40.25 79.9985 36.47 73.7285Z" fill="#639C3B"/>
<path fill-rule="evenodd" clip-rule="evenodd" d="M27.4892 74.1387C25.6692 77.9187 31.6692 101.239 37.2592 99.9387C31.6592 92.6787 30.0492 82.9987 27.4892 74.1387Z" fill="#639C3B"/>
<path fill-rule="evenodd" clip-rule="evenodd" d="M32.1794 52.6386C31.1794 53.4586 30.6994 55.0986 29.8994 56.7486C27.4294 51.1486 25.7394 46.7485 23.1794 57.3485C16.6194 45.5085 14.0494 67.2085 24.0194 73.2085C32.9394 81.8685 40.3294 58.4886 32.1794 52.6386V52.6386Z" fill="#FF7E95"/>
<path d="M53.8896 130.089C51.7841 129.691 49.7038 129.17 47.6596 128.529C47.6596 120.279 40.7896 118.709 44.6596 127.529C41.7187 126.412 38.8812 125.04 36.1796 123.429C36.4596 113.619 30.5996 111.589 33.5096 121.749C31.2142 120.19 29.0105 118.501 26.9096 116.689C28.5096 112.529 24.2596 105.329 23.9996 114.069C22.9996 113.069 21.9996 112.139 20.9996 111.139C24.8296 106.319 18.3696 101.509 18.1996 108.029C16.702 106.231 15.3384 104.326 14.1196 102.329C19.8496 98.3285 14.2596 91.5485 12.9896 100.329L12.8096 99.9985C12.8363 99.9485 12.8363 99.8885 12.8096 99.8385H12.7496C11.6773 97.7044 10.8262 95.466 10.2096 93.1585C14.1096 92.6185 17.6796 83.8385 10.3496 88.5185C12.2596 76.3485 5.46963 81.8085 8.34963 89.3485C8.33963 89.4583 8.33963 89.5688 8.34963 89.6785C0.139627 82.3885 2.81963 94.6785 8.94963 92.3185C8.8233 92.4931 8.79332 92.7196 8.86987 92.921C8.94642 93.1225 9.11923 93.2719 9.32963 93.3185C9.70005 95.0453 10.2049 96.7405 10.8396 98.3885C3.47963 95.0485 6.76963 102.439 12.6396 102.279C14.1292 105.012 15.8951 107.585 17.9096 109.959C17.7096 110.179 17.8196 110.139 17.3196 110.439C6.91963 104.249 12.3196 115.759 18.8796 111.069L19.2896 111.529V111.589C19.3428 111.806 19.5124 111.975 19.7296 112.029C20.7296 113.099 21.7296 114.159 22.7996 115.219C15.1396 113.579 17.0396 120.999 24.9496 117.329C26.6096 118.889 28.4296 120.469 30.3696 121.989C20.1596 120.279 27.5396 129.489 34.1796 124.729C36.9874 126.62 40.0082 128.174 43.1796 129.359L43.0396 129.429C28.9696 128.249 39.5796 137.989 45.7696 130.209C47.1296 130.209 53.9996 132.419 53.8896 130.089V130.089Z" fill="#7FBA54"/>
<path d="M43.5794 56.6002C43.9428 54.6514 44.4169 52.725 44.9994 50.8302C52.2394 50.9102 54.2594 44.4302 45.9094 48.0602C46.9033 45.3244 48.1417 42.6838 49.6094 40.1702C57.9994 40.4402 60.9394 34.9002 51.1294 37.6802C52.5236 35.5437 54.0499 33.4963 55.6994 31.5502C59.5694 32.9902 66.1794 28.9702 58.0894 28.8302C58.9594 27.8802 59.8494 26.9502 60.7594 26.0602C64.9394 29.5202 69.8094 23.6102 63.6194 23.4402C65.2577 22.0274 67.0029 20.7436 68.8394 19.6002C72.6094 24.8502 78.8394 19.6002 70.6794 18.5202L70.9794 18.3602C71.034 18.3637 71.0878 18.3457 71.1294 18.3102V18.2602C73.0873 17.2341 75.1489 16.4195 77.2794 15.8302C77.8194 19.4502 85.9494 22.5802 81.5694 15.9002C92.5694 17.5402 87.9494 11.3202 80.7794 14.0202H80.4994C87.1494 6.42016 75.9094 8.82016 78.0694 14.6102C77.9064 14.5041 77.7022 14.4836 77.5214 14.5551C77.3406 14.6266 77.2057 14.7813 77.1594 14.9702C75.5641 15.3312 73.9993 15.816 72.4794 16.4202C75.4794 9.57016 68.6894 12.7002 68.8994 18.1302C66.3988 19.5494 64.0528 21.2251 61.8994 23.1302C61.7061 22.987 61.5514 22.798 61.4494 22.5802C66.9594 13.2902 56.5494 17.7502 60.8894 24.0302L60.4694 24.4202H60.3994C60.1985 24.4656 60.0447 24.6273 60.0094 24.8302C59.0094 25.7502 58.0094 26.7102 57.0894 27.7002C58.6794 21.1202 51.6394 21.8102 55.1694 29.7002C53.7394 31.2502 52.2894 32.9502 50.9194 34.7702C52.3794 25.3002 43.9194 32.2302 48.4194 38.3302C46.7069 40.9384 45.3041 43.7373 44.2394 46.6702L44.1694 46.5402C45.0794 33.4602 36.2494 43.5402 43.4794 49.0802C43.4194 50.2702 41.4394 56.4902 43.5794 56.6002V56.6002Z" fill="#7FBA54"/>
<path d="M8.77964 71.0989C9.10729 69.4199 9.5517 67.7659 10.1096 66.1489C10.1096 65.8889 10.1596 65.6389 10.1696 65.3789C13.8896 57.5089 5.29964 55.3789 4.79964 63.4889C-4.67036 58.3789 1.58964 72.2789 8.77964 71.0989Z" fill="#FF688D"/>
<path d="M62.8696 93.5091C61.5496 92.4191 59.8696 92.5091 58.8696 95.0691C53.1196 86.2191 53.0696 100.269 58.7596 102.249C61.8196 105.309 64.4796 95.9991 62.8696 93.5091Z" fill="#FF688D"/>
<path fill-rule="evenodd" clip-rule="evenodd" d="M114.79 137.369C115.88 139.929 121.97 142.829 126.38 141.669C131.71 140.509 148.88 134.469 130.1 134.529C124.5 133.999 120.39 134.459 114.79 137.369V137.369Z" fill="#568329"/>
<path fill-rule="evenodd" clip-rule="evenodd" d="M120 114.589C118.08 115.279 105.85 133.779 113 132.759C116.09 132.879 131.83 103.349 120.08 114.609L120 114.589Z" fill="#568329"/>
<path fill-rule="evenodd" clip-rule="evenodd" d="M108.17 135C113.17 139.24 132.23 128.5 134.93 119.82C128.32 125.78 121.29 133.8 108.17 135Z" fill="#568329"/>
<path fill-rule="evenodd" clip-rule="evenodd" d="M143.37 102.259C143.944 100.606 144.092 98.8349 143.8 97.1094C135.98 99.6794 125.1 118.309 138.33 121.939C144.78 121.489 156.73 111.319 151.33 104.129C144.46 110.919 154.46 94.0994 143.37 102.259V102.259Z" fill="#FF4D54"/>
<path d="M156.5 35.0798C155.69 31.6298 151.41 25.6998 149.81 23.5098C153.75 24.8498 155.86 30.1998 157.81 33.8898C160.025 38.108 161.172 42.8052 161.15 47.5698C158.9 46.9398 158.68 38.3398 156.5 35.0798Z" fill="#568329"/>
<path d="M165.72 39.4103C165.06 40.9099 164.065 42.2375 162.81 43.2903L162.48 42.5303C162.25 37.3403 160.75 29.9103 160.56 24.8203C163.19 25.0903 166.14 32.4903 166.56 37.1903C166.344 37.9532 166.063 38.6959 165.72 39.4103Z" fill="#568329"/>
<path d="M146.32 32.75C151.43 33.75 155.8 39.97 158.2 44.75C157.32 48.21 142.81 33 146.32 32.75Z" fill="#568329"/>
<path fill-rule="evenodd" clip-rule="evenodd" d="M135.229 16.9995C133.71 16.4077 132.068 16.2016 130.449 16.3995C132.139 24.0795 151.769 35.1695 153.219 21.3995C151.859 15.8095 144.699 5.19949 137.279 9.71949C143.449 16.3995 127.999 6.22949 135.229 16.9995Z" fill="#FF4D54"/>
<path fill-rule="evenodd" clip-rule="evenodd" d="M173.14 78.9004C172.3 83.9904 166.14 95.8504 159.29 95.4504C161.56 89.0904 166.72 83.1904 173.14 78.9004Z" fill="#639C3B"/>
<path fill-rule="evenodd" clip-rule="evenodd" d="M152.31 73.7285C155.11 79.5085 154.83 87.4585 151.61 93.9785C147.93 89.1285 148.52 79.9985 152.31 73.7285Z" fill="#639C3B"/>
<path fill-rule="evenodd" clip-rule="evenodd" d="M161.28 74.1387C163.1 77.9187 157.11 101.249 151.51 99.9387C157.12 92.6787 158.72 82.9987 161.28 74.1387Z" fill="#639C3B"/>
<path fill-rule="evenodd" clip-rule="evenodd" d="M156.59 52.6386C157.59 53.4586 158.08 55.0986 158.88 56.7486C161.35 51.1486 163.04 46.7485 165.59 57.3485C172.15 45.5085 174.73 67.2085 164.75 73.2085C155.84 81.8685 148.45 58.4886 156.59 52.6386V52.6386Z" fill="#FF7E95"/>
<path d="M134.89 130.09C136.995 129.691 139.075 129.17 141.12 128.53C141.07 120.28 147.99 118.71 144.12 127.53C147.061 126.414 149.898 125.042 152.6 123.43C152.32 113.62 158.19 111.59 155.27 121.75C157.558 120.216 159.752 118.547 161.84 116.75C160.24 112.59 164.49 105.39 164.74 114.13C165.74 113.13 166.74 112.2 167.74 111.2C163.91 106.38 170.37 101.57 170.53 108.09C172.031 106.295 173.394 104.39 174.61 102.39C168.88 98.3902 174.48 91.6102 175.75 100.39C175.81 100.28 175.87 100.17 175.92 100.06C175.97 99.9502 175.92 99.9902 176.03 99.8502C177.105 97.7163 177.96 95.478 178.58 93.1702C174.67 92.6302 171.11 83.8502 178.43 88.5302C176.53 76.3602 183.32 81.8203 180.48 89.3603V89.6903C188.69 82.4003 186 94.6903 179.87 92.3303C179.996 92.5048 180.026 92.7313 179.95 92.9328C179.873 93.1342 179.7 93.2836 179.49 93.3303C179.119 95.057 178.614 96.7522 177.98 98.4003C185.35 95.0603 182.06 102.45 176.18 102.29C174.693 105.026 172.927 107.599 170.91 109.97L171.08 110.16C171.205 110.277 171.346 110.375 171.5 110.45C181.9 104.26 176.5 115.77 169.95 111.08C169.81 111.23 169.67 111.38 169.54 111.54C169.41 111.7 169.54 111.54 169.54 111.6C169.493 111.821 169.321 111.994 169.1 112.04C168.1 113.11 167.1 114.17 166.04 115.23C173.69 113.59 171.79 121.01 163.89 117.34C162.23 118.9 160.41 120.48 158.46 122C168.68 120.29 161.3 129.5 154.65 124.74C151.841 126.63 148.82 128.184 145.65 129.37L145.79 129.44C159.86 128.26 149.25 138 143.05 130.22C141.64 130.21 134.79 132.42 134.89 130.09V130.09Z" fill="#7FBA54"/>
<path d="M145.19 56.5991C144.848 54.6504 144.39 52.7237 143.82 50.8291C136.58 50.9091 134.57 44.4291 142.92 48.0591C141.918 45.3269 140.68 42.6869 139.22 40.1691C130.82 40.4391 127.88 34.8991 137.7 37.6791C136.283 35.5382 134.747 33.4783 133.1 31.5091C129.22 32.9491 122.61 28.9291 130.71 28.7891C129.83 27.8391 128.94 26.9091 128.03 26.0191C123.86 29.4791 119.03 23.5791 125.18 23.3991C123.554 21.9883 121.823 20.7045 120 19.5591C116.23 24.8091 110 19.5591 118.17 18.4791L117.86 18.3191C117.786 18.3104 117.719 18.2748 117.67 18.2191C115.711 17.1948 113.65 16.3803 111.52 15.7891C110.97 19.4091 102.85 22.5491 107.22 15.8591C96.22 17.4991 100.85 11.2791 108.02 13.9791H108.32C101.68 6.37915 112.91 8.77915 110.76 14.5691C110.923 14.4631 111.127 14.4426 111.308 14.5141C111.489 14.5856 111.624 14.7403 111.67 14.9291C113.265 15.2916 114.83 15.7764 116.35 16.3791C113.35 9.52914 120.13 12.6591 119.92 18.0891C122.42 19.5088 124.766 21.1844 126.92 23.0891C127.111 22.9431 127.265 22.7549 127.37 22.5391C121.85 13.2491 132.27 17.7091 127.93 23.9891L128.35 24.3791H128.41C128.611 24.428 128.766 24.5872 128.81 24.7891C129.81 25.7091 130.76 26.6691 131.73 27.6591C130.13 21.0791 137.18 21.7691 133.65 29.6591C135.08 31.2091 136.52 32.9091 137.9 34.7291C136.44 25.2591 144.9 32.1891 140.4 38.2891C142.113 40.8955 143.513 43.6948 144.57 46.6291C144.599 46.5892 144.623 46.5455 144.64 46.4991C143.73 33.4191 152.57 43.4991 145.33 49.0391C145.35 50.2691 147.34 56.4891 145.19 56.5991V56.5991Z" fill="#7FBA54"/>
<path d="M180 71.0989C179.677 69.4189 179.232 67.7645 178.67 66.1489L178.61 65.3789C174.9 57.5089 183.48 55.3789 183.98 63.4889C193.44 58.3789 187.18 72.2789 180 71.0989Z" fill="#FF688D"/>
<path d="M125.859 98.6397C126.169 99.8597 127.759 104.64 130.069 102.25C136.149 99.3998 135.669 86.5197 129.959 95.0697C127.919 90.5097 123.719 93.9997 125.859 98.6397V98.6397Z" fill="#FF688D"/>
<path d="M100.22 0.999477C98.6799 -1.72052 94.4899 1.99948 93.8799 4.34948C84.6599 -4.80052 87.2399 12.4395 93.7699 15.1895C94.4299 15.9595 95.9699 15.9995 96.1899 14.7495C97.4799 9.90948 101.35 6.22948 100.22 0.999477Z" fill="#FF688D"/>
<path d="M102.17 127.33C100.68 124.33 97.9801 129.58 96.9001 131.53C95.9001 123.85 93.26 122.16 90.99 130.71C88.72 139.26 90.99 130.71 90.99 130.66C90.4151 129.46 89.937 128.217 89.56 126.94C88.75 124.13 85.6501 130.52 86.7501 132.7C85.0301 139.7 93.65 147.7 99.31 141.7C103 138.58 102.22 132.29 102.17 127.33V127.33Z" fill="#FF688D"/>
</g>
<defs>
<clipPath id="clip0_3_22303">
<rect width="189" height="144" fill="white"/>
</clipPath>
</defs>
</svg>
