<svg width="174" height="172" viewBox="0 0 174 172" fill="none" xmlns="http://www.w3.org/2000/svg">
<path d="M173.332 85.9991C167.806 202.044 4.176 199.145 0 85.9991C5.568 -30.1009 169.17 -27.2019 173.332 85.9991Z" fill="#FEFEFE"/>
<path d="M40.2844 84.875C30.8467 94.3211 45.936 58.3398 35.0644 70.1995C34.8556 70.8098 33.8673 70.4769 34.1457 69.4088C36.54 61.2805 45.0173 61.4053 40.535 76.1917C40.4237 70.5324 53.1604 53.5821 51.3926 72.0305H51.6571C52.0468 66.8705 61.9022 56.8834 61.9996 70.7821C62.3198 72.8211 56.0419 91.1585 65.1038 79.493C65.1381 79.5887 65.18 79.6815 65.2291 79.7705C65.5492 80.5888 65.4379 80.2837 66.106 82.0592C65.3961 84.5143 57.6288 90.2985 56.7657 81.9205C61.8048 64.1656 54.7473 59.4772 50.4182 84.9027C50.2512 86.0817 47.1888 87.3856 47.1888 84.3479C51.3787 66.9814 48.2467 56.1205 40.2844 84.875V84.875Z" fill="#606593"/>
<path d="M72.286 76.1499C75.6825 79.2709 68.2632 92.7951 63.6974 82.5306C61.5816 75.7338 70.6574 68.2019 77.2972 78.2861L77.0606 80.117C75.7058 78.5226 74.1366 77.1223 72.3974 75.9557L72.286 76.1499ZM68.2075 83.6541C70.0449 84.9719 72.5505 71.4061 67.1078 77.5093C66.8155 78.4109 64.8945 83.2241 68.2075 83.6541Z" fill="#606593"/>
<path d="M86.3038 83.2257C79.7336 87.6505 74.7502 87.7892 76.1422 74.0986C74.4022 74.2096 68.4445 71.8792 76.5041 71.9902C75.9334 64.1531 89.0321 56.427 81.9051 72.3231C89.2549 71.7683 85.9697 75.5134 80.5131 74.5147C80.2625 74.8476 80.2347 74.917 79.0376 76.4289C78.7453 80.1186 77.9101 87.6783 86.3595 79.9105L86.3038 83.2257ZM82.1278 66.8163C81.6406 63.5289 79.4969 68.7167 78.968 72.0873L79.7614 72.1567C80.8712 70.5357 81.6733 68.7256 82.1278 66.8163V66.8163Z" fill="#606593"/>
<path d="M89.8256 78.2312C105.388 60.2683 87.5984 91.8525 99.4026 80.1177L99.6253 83.5716C96.368 87.0254 87.8907 87.8577 93.069 77.5377H92.8045C91.4125 76.7332 87.8072 88.6345 85.399 85.3332C85.5382 83.6964 83.4085 60.3654 93.751 61.4612C97.1197 64.707 92.2755 72.6551 89.575 78.1064L89.8256 78.2312ZM90.9949 70.0612C92.0806 68.3551 93.9877 58.479 89.6029 68.0222C89.0523 69.95 88.675 71.9229 88.4754 73.9174C88.2805 74.9438 88.1413 75.9564 88.0438 76.9412C88.3083 76.2893 88.5867 75.7483 90.9949 70.0612Z" fill="#606593"/>
<path d="M103.732 86.1506C95.1291 86.9274 99.4026 67.4525 107.588 75.2203C108.437 77.6338 106.112 81.268 102.298 82.1557C103.69 83.959 105.319 83.9728 110.065 80.2277L111.75 81.8367C109.843 83.2932 108.882 85.5819 103.732 86.1506V86.1506ZM101.992 79.9641C102.799 80.7548 108.27 75.6641 103.746 76.0109C102.556 76.9698 101.903 78.4417 101.992 79.9641Z" fill="#606593"/>
<path d="M109.188 83.4475C109.278 80.2965 109.826 77.1753 110.817 74.1817C112.348 72.3507 113.601 73.0026 112.933 77.3858H113.072C112.627 77.3858 117.248 69.7291 118 75.1249C117.805 76.6368 115.926 82.532 122.176 77.802L121.981 80.8397C119.809 82.4626 115.104 84.0717 114.882 77.9268H114.673C113.74 79.6468 111.082 91.7978 109.188 83.4475V83.4475Z" fill="#606593"/>
<path d="M120.825 69.5073C120.825 67.9122 120.992 66.5528 121.243 63.7231C122.635 60.9489 127.618 60.6022 123.331 69.5489C123.289 69.8818 121.34 72.2538 120.825 69.5073V69.5073Z" fill="#606593"/>
<path d="M128.37 81.2556C130.515 79.2382 132.425 76.9861 134.063 74.542C134.94 72.6278 140.48 72.5862 136.137 77.0527C136.276 79.1472 137.112 79.3414 136.722 82.934C137.599 82.2682 138.309 82.393 141.315 80.4095V83.3501C138.754 84.6401 131.182 89.3978 128.787 83.794C127.145 84.3765 126.282 82.5317 128.37 81.2556V81.2556ZM129.998 82.934C132.267 85.4307 134.787 83.7662 133.604 79.1611L129.998 82.934Z" fill="#606593"/>
<path d="M71.7856 90.8542C89.2552 88.5516 84.773 120.275 66.8162 113.492C65.7026 112.576 66.0645 91.7974 72.774 96.4026C71.8692 97.1516 70.4911 101.798 70.2962 104.406C65.9114 130.4 96.7442 84.6539 66.2176 96.0836C62.0138 104.531 60.3295 90.4381 71.7856 90.8542V90.8542Z" fill="#606593"/>
<path d="M98.261 110.162C97.3144 111.647 92.9296 115.933 91.12 111.314C81.4735 120.76 81.1255 96.5133 94.1407 101.715C95.5327 103.574 92.1501 107.263 93.9736 110.426C95.7554 109.677 95.3656 110.037 97.6346 107.305L98.261 110.162ZM87.125 109.15C87.125 111.688 89.728 111.591 90.3823 107.222L91.3567 103.06C89.8115 103.296 87.5704 104.767 87.0972 109.15H87.125Z" fill="#606593"/>
<path d="M102.312 113.603L102.604 112.036C95.4354 119.373 94.0295 97.9704 101.212 101.286C101.811 101.175 97.0362 112.23 101.588 110.496C103.328 109.608 103.314 97.2769 107.337 101.549C106.85 104.323 106.154 108.068 105.527 112.174C107.427 110.93 109.021 109.276 110.191 107.333L110.817 110.219C109.912 111.474 108.79 112.559 107.504 113.423C106.808 114.075 104.943 114.255 104.985 117.764C104.985 118.083 104.901 118.319 104.887 118.499C106.474 126.503 90.2154 129.236 99.3191 116.585C100.237 115.515 101.237 114.517 102.312 113.603ZM102.312 116.724C100.533 118.242 99.3535 120.342 98.985 122.647C100.962 124.173 102.075 120.067 102.368 116.724H102.312Z" fill="#606593"/>
<path d="M40.7021 25.6191C38.1282 26.8605 35.7429 28.4575 33.6168 30.363C36.3173 21.444 25.0699 28.5598 28.9257 35.1485C26.8888 37.5797 25.0281 40.1524 23.3577 42.8469C21.395 32.0553 16.3977 47.8682 18.8477 50.9337C17.1555 54.4296 15.6409 58.0082 14.3097 61.6559C15.479 49.3524 6.23614 60.0191 12.7089 65.4149C12.6537 65.6259 12.6837 65.85 12.7925 66.0391C11.766 69.2844 11.2358 72.6652 11.2195 76.0679C12.18 74.764 12.4445 69.7704 13.8086 66.3582C24.6523 64.7214 25.8216 53.0698 15.7853 60.8098C17.2091 57.3133 18.8215 53.8961 20.6155 50.573C26.1835 51.4608 33.6168 41.5153 23.4691 45.5795C25.4259 42.3311 27.6565 39.2545 30.1368 36.383C34.4659 40.7246 46.9521 31.1675 34.0344 32.402C34.6051 30.9733 42.5117 27.5333 40.7021 25.6191V25.6191ZM13.1126 61.1843C13.0013 62.2385 12.9038 63.3066 12.8064 64.3608C11.845 62.5339 11.48 60.4536 11.7624 58.4101C11.7624 57.4669 12.2774 57.4391 13.4189 58.3269V58.9511C13.3931 59.7039 13.2905 60.4522 13.1126 61.1843V61.1843ZM15.8966 62.5714C21.3811 56.8704 24.6801 61.4062 14.5046 64.4024C14.9349 63.7645 15.4093 63.1573 15.9245 62.5853L15.8966 62.5714ZM19.488 48.9778C19.3918 46.9614 19.6461 44.9435 20.2397 43.0133C20.2038 42.7362 20.3031 42.4587 20.5068 42.2667C20.7105 42.0746 20.9941 41.9913 21.2697 42.0424C22.1745 41.5291 22.3694 41.8343 21.8265 42.944C21.1491 44.9931 20.3686 47.0069 19.488 48.9778V48.9778ZM25.2509 46.5088C25.8239 46.2875 26.4225 46.1384 27.0326 46.0649C26.6429 47.882 23.5665 48.4369 21.5621 48.8391C22.5794 47.757 23.8594 46.9544 25.2787 46.5088H25.2509ZM31.668 27.7414C33.9648 28.0327 31.9603 29.933 29.747 33.7891C29.4825 31.7779 29.6357 28.754 31.668 27.7414ZM37.584 33.8446C37.7649 35.8559 33.408 36.494 31.32 35.2317C31.32 35.2317 31.32 35.2317 31.32 35.1485C33.2669 34.2023 35.4197 33.7542 37.584 33.8446Z" fill="#F1ABB1"/>
<path d="M47.8433 22.4692C51.017 15.5337 40.9529 18.0166 40.8833 25.1185C39.3521 32.0124 57.9353 25.7289 47.8433 22.4692Z" fill="#BD9AB4"/>
<path d="M132.379 143.105C134.953 141.864 137.338 140.267 139.464 138.361C136.764 147.28 148.011 140.164 144.155 133.576C146.189 131.142 148.049 128.569 149.723 125.877C151.686 136.669 156.683 120.856 154.233 117.79C155.925 114.294 157.44 110.716 158.771 107.068C157.602 119.372 166.845 108.705 160.372 103.309C160.428 103.097 160.393 102.87 160.275 102.685C161.313 99.4422 161.848 96.0602 161.861 92.6562C160.901 93.9601 160.636 98.9537 159.272 102.366C148.415 104.003 147.259 115.654 157.296 107.845C155.866 111.339 154.254 114.756 152.465 118.082C146.897 117.208 139.478 127.126 149.681 123.075C147.734 126.326 145.508 129.403 143.028 132.272C138.685 127.93 126.212 137.473 139.13 136.239C138.476 137.751 130.569 141.191 132.379 143.105V143.105ZM159.954 107.526C160.08 106.472 160.177 105.418 160.275 104.363C161.236 106.19 161.601 108.271 161.319 110.314C161.319 111.257 160.803 111.285 159.662 110.314C159.662 110.106 159.662 109.898 159.662 109.69C159.695 108.961 159.793 108.237 159.954 107.526V107.526ZM157.17 106.139C151.686 111.854 148.387 107.318 158.562 104.322C158.14 104.957 157.67 105.56 157.156 106.125L157.17 106.139ZM153.565 119.76C153.667 121.776 153.418 123.794 152.827 125.725C152.857 126 152.756 126.274 152.554 126.465C152.352 126.655 152.072 126.741 151.797 126.696C150.892 127.209 150.698 126.904 151.24 125.794C151.728 123.727 152.855 121.771 153.551 119.746L153.565 119.76ZM147.816 122.229C147.243 122.449 146.644 122.598 146.034 122.673C146.424 120.856 149.5 120.301 151.505 119.816C150.5 120.921 149.224 121.748 147.802 122.215L147.816 122.229ZM141.427 140.955C139.13 140.664 141.121 138.763 143.348 134.893C143.598 136.946 143.445 139.97 141.413 140.941L141.427 140.955ZM135.525 134.893C135.344 132.882 139.701 132.244 141.789 133.506V133.589C139.836 134.533 137.679 134.977 135.511 134.879L135.525 134.893Z" fill="#F1ABB1"/>
<path d="M125.28 146.255C122.106 153.191 132.24 150.708 132.24 143.606C133.73 136.712 115.146 142.996 125.28 146.255V146.255Z" fill="#BD9AB4"/>
<path d="M115.174 15.6323C112.812 14.0244 110.241 12.7457 107.532 11.8317C116.636 9.76492 104.873 3.50911 101.031 10.1394C97.9004 9.56848 94.7325 9.22082 91.5519 9.09911C100.001 2.16363 83.6871 5.50653 82.2672 9.18234C78.3857 9.44953 74.5203 9.91249 70.6858 10.5694C82.4203 5.20137 67.7487 3.0375 66.6072 11.0272C66.4123 11.152 66.3706 11.0272 66.1061 11.4156C51.2395 16.0901 57.2808 15.2578 66.2731 12.4836C72.4536 20.6952 84.1464 16.6449 72.036 11.4849C75.7904 10.9966 79.5679 10.7049 83.353 10.6111C85.3157 15.8404 97.6767 17.4217 89.1298 10.6111C92.9258 10.7018 96.7072 11.1148 100.433 11.8456C98.7903 17.7407 113.295 23.844 105.834 13.2327C107.476 12.983 114.395 18.1569 115.174 15.6323V15.6323ZM70.5048 9.29331L67.5816 10.5972C68.7018 8.86299 70.3367 7.51993 72.2587 6.75492C73.0661 6.25557 73.3584 6.75492 73.1496 8.14202L72.565 8.40557C71.9081 8.76602 71.2183 9.06327 70.5048 9.29331V9.29331ZM70.6719 12.4836C78.3557 14.4117 76.0311 19.5162 68.3751 12.1369C69.1473 12.2038 69.9144 12.3197 70.6719 12.4836ZM84.3274 8.87718C86.0306 7.78464 87.9163 7.00481 89.8954 6.5746C90.1209 6.39093 90.4233 6.33084 90.7023 6.41425C90.9813 6.49765 91.2005 6.71367 91.2874 6.99073C92.1922 7.51782 92.0112 7.83686 90.7863 7.92008C88.6983 8.44718 86.4293 8.43331 84.3274 8.8217V8.87718ZM89.3107 12.6362C89.7952 13.0423 90.2255 13.5085 90.5914 14.0233C88.7957 14.5781 86.8051 12.1923 85.3992 10.6943C86.8442 10.9774 88.1914 11.6271 89.3107 12.5807V12.6362ZM108.799 8.91879C110.038 10.6111 106.989 10.4723 102.563 10.3059C104.247 8.96041 106.961 7.60105 108.813 8.86331L108.799 8.91879ZM106.418 17.0472C104.637 18.0459 102.326 15.133 102.089 12.3172C103.175 12.9414 105.709 14.9527 106.432 16.9917L106.418 17.0472Z" fill="#F1ABB1"/>
<path d="M121.438 20.2643C128.899 19.7649 122.023 12.0665 115.717 15.5898C108.882 17.3514 123.401 30.6259 121.438 20.2643Z" fill="#BD9AB4"/>
<path d="M57.9072 153.08C60.2652 154.697 62.8371 155.981 65.5493 156.894C56.4317 158.947 68.208 165.217 72.0499 158.586C75.1809 159.157 78.3488 159.505 81.5295 159.627C73.0661 166.562 89.3943 163.206 90.8002 159.544C94.0853 159.308 97.8576 158.933 102.396 158.156C90.661 163.525 105.333 165.688 106.474 157.685C106.669 157.574 106.711 157.685 106.975 157.31C121.828 152.608 115.801 153.524 106.808 156.242C100.614 148.031 88.9349 152.081 101.045 157.241C97.2907 157.725 93.5132 158.012 89.7283 158.101C87.7656 152.886 75.4047 151.304 83.9515 158.101C80.1555 158.01 76.3741 157.597 72.6485 156.866C74.2911 150.971 59.7864 144.868 67.2475 155.479C65.5911 155.729 58.6867 150.569 57.9072 153.08V153.08ZM102.577 159.419L105.5 158.129C104.379 159.863 102.745 161.206 100.823 161.971C100.015 162.47 99.7229 161.971 99.9317 160.584L100.516 160.334C101.172 159.965 101.862 159.658 102.577 159.419V159.419ZM102.409 156.298C94.7256 154.37 97.0503 149.265 104.706 156.631C103.934 156.575 103.166 156.464 102.409 156.298ZM88.7539 159.904C87.0477 160.991 85.163 161.77 83.1859 162.207C82.9604 162.39 82.658 162.451 82.379 162.367C82.1 162.284 81.8808 162.068 81.7939 161.791C80.8891 161.264 81.0701 160.945 82.2951 160.861C84.3831 160.279 86.652 160.293 88.7539 159.904V159.904ZM83.7567 156.145C83.2769 155.738 82.8513 155.272 82.4899 154.758C84.2717 154.203 86.2762 156.589 87.6821 158.087H87.5986C86.1748 157.771 84.8537 157.103 83.7567 156.145ZM64.2687 159.849C63.0298 158.156 66.0783 158.309 70.4909 158.462C68.8344 159.766 66.12 161.125 64.2687 159.849ZM66.6351 151.734C68.4307 150.736 70.8111 153.648 70.9781 156.464C69.1591 155.271 67.6666 153.645 66.6351 151.734Z" fill="#F1ABB1"/>
<path d="M51.6433 148.419C44.1821 148.919 51.0447 156.617 57.3505 153.094C64.1991 151.374 49.6805 138.099 51.6433 148.419Z" fill="#BD9AB4"/>
<path d="M160.595 74.7627C160.818 71.9183 160.645 69.0568 160.08 66.2598C166.428 73.0982 165.968 59.8376 158.312 59.8098C157.251 56.8215 155.981 53.9108 154.512 51.0988C164.827 54.8995 153.705 42.5266 149.793 43.1369C147.64 39.9094 145.317 36.7979 142.833 33.8156C153.357 41.2643 147.928 27.5182 140.397 30.5282C140.202 30.4172 140.258 30.334 139.813 30.2924C128.315 19.8059 132.115 24.5498 138.978 30.9721C134.941 39.8911 144.142 48.6576 142.722 35.4247C145.028 38.4192 147.17 41.5354 149.139 44.7598C145.576 49.0598 150.378 60.5311 152.007 49.7534C153.827 53.0754 155.359 56.5465 156.586 60.1288C150.629 61.6547 152.563 77.2179 157.978 65.4969C159.05 66.8008 158.02 75.3453 160.595 74.7627ZM143.794 33.025L141.219 31.1524C143.285 31.2569 145.266 32.0039 146.884 33.2885C147.719 33.7324 147.469 34.2317 146.118 34.745L145.603 34.3843C144.958 33.9892 144.353 33.534 143.794 33.025ZM141.163 34.6756C143.321 42.2908 137.725 42.8179 140.314 32.5256C140.643 33.2231 140.927 33.9413 141.163 34.6756ZM151.116 44.6627C152.913 45.62 154.533 46.8774 155.904 48.3801C156.164 48.4913 156.354 48.7203 156.415 48.9953C156.475 49.2704 156.399 49.5578 156.21 49.7672C156.21 50.8214 155.835 50.8214 155.153 49.7672C153.721 48.1539 152.374 46.4687 151.116 44.7182V44.6627ZM150.336 50.9185C150.237 51.5198 150.064 52.1067 149.821 52.6663C148.429 51.4179 149.515 48.505 150.127 46.5353C150.569 47.9551 150.641 49.4634 150.336 50.9185ZM163.296 65.8853C161.904 67.7301 161.25 65.0392 159.036 61.183C160.943 61.9876 163.477 63.6521 163.296 65.8853ZM155.055 67.9659C153.301 66.9256 154.679 63.4717 157.004 61.8627C156.878 64.0278 156.208 66.1266 155.055 67.9659Z" fill="#F1ABB1"/>
<path d="M159.704 82.4895C163.88 88.676 167.124 78.8969 160.901 75.2211C155.904 70.186 151.728 89.3556 159.704 82.4895Z" fill="#BD9AB4"/>
<path d="M12.5282 93.9601C12.305 96.8045 12.4783 99.666 13.0432 102.463C6.69569 95.6107 7.15505 108.885 14.8111 108.913C15.8792 111.899 17.1584 114.805 18.6391 117.61C8.35217 113.809 19.4047 126.224 23.3023 125.586C25.4639 128.807 27.7868 131.918 30.2623 134.907C19.7387 127.445 25.1675 141.205 32.6982 138.195C32.8931 138.306 32.8375 138.389 33.2829 138.43C44.7808 148.917 40.9807 144.173 34.1181 137.751C38.1549 128.818 28.9538 120.065 30.3736 133.298C28.0677 130.299 25.9255 127.178 23.9565 123.949C27.52 119.663 22.7176 108.192 21.089 118.969C19.2682 115.647 17.7361 112.176 16.5093 108.594C22.4531 107.068 20.5183 91.5049 15.0477 103.226C14.0315 101.922 15.0616 93.3775 12.5282 93.9601V93.9601ZM29.2322 135.684C30.0813 136.322 30.9443 136.946 31.8074 137.57C29.7424 137.472 27.7607 136.729 26.1419 135.448C25.3067 134.99 25.5573 134.505 26.9075 133.978L27.4226 134.352C28.0643 134.742 28.6699 135.187 29.2322 135.684V135.684ZM31.8631 133.992C29.7055 126.377 35.3013 125.849 32.7122 136.142C32.4038 135.442 32.1388 134.724 31.9187 133.992H31.8631ZM21.9103 123.991C20.1105 123.06 18.4895 121.82 17.1218 120.329C16.8621 120.218 16.672 119.989 16.6113 119.714C16.5506 119.439 16.6266 119.151 16.8155 118.942C16.8155 117.901 17.1775 117.901 17.8735 118.942C19.4882 120.398 20.5739 122.368 21.9659 123.991H21.9103ZM22.6898 117.804C22.7911 117.199 22.964 116.608 23.2048 116.043C24.5968 117.305 23.4971 120.204 22.8986 122.188C22.465 120.765 22.4123 119.254 22.7455 117.804H22.6898ZM9.74417 102.824C11.1362 100.993 11.7904 103.67 14.0037 107.54C12.1384 106.721 9.59105 105.057 9.74417 102.824ZM18.0962 100.826C19.8501 101.867 18.472 105.307 16.1474 106.929H16.0778C16.2243 104.758 16.9186 102.659 18.0962 100.826Z" fill="#F1ABB1"/>
<path d="M13.3774 86.2359C9.20139 80.0494 5.95804 89.8284 12.1803 93.5043C17.1219 98.4839 21.4092 79.3697 13.3774 86.2359Z" fill="#BD9AB4"/>
</svg>
