<svg width="186" height="93" viewBox="0 0 186 93" fill="none" xmlns="http://www.w3.org/2000/svg">
<path d="M46.8004 60.1294C80.1004 -7.0006 48.3404 21.3494 27.7104 58.9994C27.6404 58.9994 27.6404 59.2194 27.4904 59.2194C27.3404 59.2194 27.3404 59.2894 27.2004 59.4394C27.6204 54.7694 29.4104 52.1094 30.4904 45.9094C30.6061 45.8022 30.7039 45.6773 30.7804 45.5394L30.8504 45.6194C49.0004 -0.670609 17.0904 43.4794 8.55042 57.2794C7.52042 51.6294 23.6004 21.9994 15.8604 24.1494C15.7204 24.0694 15.5004 24.0694 15.3504 23.9994C11.2404 23.3394 -8.36958 79.5594 4.09042 70.8794C8.77042 60.2194 16.7304 50.1994 24.7104 39.2094C7.71042 103.489 33.8804 48.9194 52.0604 28.7594C49.6004 37.3494 20.9004 93.1594 41.9004 84.7594C36.4104 79.4494 44.5704 67.7894 46.8004 60.1294V60.1294ZM24.4204 36.1294C19.6804 42.4094 14.7804 50.7794 9.21042 57.1994C13.8204 50.5694 19.0004 42.6794 24.4904 35.5594C24.5704 35.5594 24.6404 35.6294 24.6404 35.7794C24.5774 35.9054 24.5038 36.0259 24.4204 36.1394V36.1294ZM26.6104 61.7294C26.5707 61.77 26.546 61.8229 26.5404 61.8794C26.0504 61.4694 25.8404 61.5994 26.5404 59.8794C26.6104 59.8794 26.6904 59.7294 26.7604 59.7294C27.2904 60.4894 27.4004 60.0494 26.6104 61.7394V61.7294ZM39.6104 67.7994C39.1628 69.241 38.4693 70.5942 37.5604 71.7994C39.7004 65.1294 43.3204 52.9994 46.9404 45.9994C47.3504 47.3694 45.9404 46.9294 45.9904 49.9994C43.6304 55.3594 42.5704 60.7194 39.5604 67.8094L39.6104 67.7994Z" fill="black"/>
<path d="M146 54.0602C142.46 54.9702 128.42 78.4302 128.8 60.6802C130.73 54.4302 138.68 52.6802 141.17 45.4302C135.26 18.1802 106.97 96.5202 112.79 58.0802C112.87 58.0102 112.87 57.9402 112.94 57.8602C117.31 32.4202 100.19 61.0002 94.9403 64.5902C95.3089 62.7341 95.7966 60.9037 96.4003 59.1102C96.8403 46.7002 109.08 36.8802 112.17 23.1602C121.25 0.650236 101.29 14.8402 97.9003 28.7702C94.5003 29.8502 94.7103 31.3302 89.9003 32.4102C89.7203 29.1802 103.16 9.93024 93.9803 12.4102C87.9803 18.3202 88.0803 26.1202 83.3103 33.7202C79.7403 34.4002 71.5203 43.6502 82.5203 36.4802H82.5903C81.0003 41.5502 78.9003 47.3402 77.0703 53.6402C75.0003 54.6402 69.3803 60.9102 67.4903 58.3002C70.0603 54.1302 70.8803 47.1202 67.3503 42.9402C63.6703 27.2802 35.9303 77.5202 56.6303 72.2402C67.3603 63.2402 61.7003 64.8802 76.5003 56.8402C73.5003 66.6602 82.2403 73.6402 89.5003 61.8402C91.5003 80.1302 101.5 58.7202 107.5 53.0202C102.84 66.9202 107.4 82.3402 121.79 62.3402C122 80.4502 145.35 63.7902 146 54.0602V54.0602ZM133 48.9402C142.55 36.1502 139 50.3102 130.08 54.5702C130.871 52.6042 131.848 50.7188 133 48.9402ZM57.0003 69.0502C53.6203 68.9102 54.6403 65.0502 56.9203 60.1302C56.9203 60.0602 56.9203 59.9802 57.0003 59.9802C57.6303 61.3202 59.9303 62.2702 62.4803 62.6202C61.241 65.2018 59.3527 67.4174 57.0003 69.0502ZM67.1303 52.2302C68.0603 56.5002 59.7103 65.4502 59.4503 55.5202C60.9203 54.2502 68.2203 39.7702 67.1303 52.2302ZM107.94 20.4202C109.121 18.2655 110.543 16.2525 112.18 14.4202C112.45 15.6102 111.8 17.5702 111.37 20.2002C108.37 27.2002 104.75 37.4002 98.8703 45.2002C100.924 36.617 103.968 28.3013 107.94 20.4202V20.4202ZM103.18 20.2002L103.26 19.8302C103.429 19.6907 103.627 19.5915 103.84 19.5402L103.99 19.6102C103.99 19.6902 103.84 19.8302 103.84 19.9802L103.48 20.3402C103.4 20.3402 103.33 20.4902 103.18 20.6402L103.11 20.2002H103.18ZM102.45 21.7302C102.45 21.5102 102.67 21.4402 102.82 21.3002C102.72 21.4602 103.39 21.3002 103.11 22.1002C102.52 22.3202 102.38 22.3902 103.11 22.6102C102.162 23.6486 101.549 24.9484 101.35 26.3402C99.6503 29.1002 99.0003 32.0002 97.4103 36.0702C96.9903 36.5402 97.2003 38.0702 96.0903 39.2102C95.7703 38.4302 95.9603 39.0702 96.2303 37.2102H96.1603C97.7203 33.2502 99.7003 27.4502 102.45 21.7302V21.7302ZM86.5803 30.4402C88.4103 27.0602 89.4903 21.5402 92.7303 17.4402C92.9503 18.1102 91.6603 18.1502 92.2103 20.0002C89.8103 23.4302 89.7903 27.7802 85.7803 33.0902C86.0703 32.1902 86.2203 31.3102 86.5803 30.4402V30.4402ZM91.7703 49.7502C91.2603 52.9002 88.6503 65.2802 82.7103 64.7502H82.5603C82.0803 64.2402 81.3803 64.4102 81.1003 61.9702L81.0003 61.7402C83.5803 51.1702 83.8003 35.2202 96.8603 31.5002C95.1303 36.4502 92.6103 44.1602 91.7703 49.7502Z" fill="black"/>
<path d="M182.461 38.3399C178.461 45.7799 192.001 35.3399 181.871 30.9199C167.871 31.2899 172.871 47.2899 177.561 57.2799H177.121L177.781 58.0799C177.674 58.4901 177.601 58.9081 177.561 59.3299C177.331 69.1599 159.431 76.0399 169.561 55.0099C169.181 47.3099 157.871 80.7399 154.351 65.3199C154.211 61.5499 160.071 55.1599 154.051 52.4499C153.911 52.4499 153.831 52.3799 153.691 52.3799C153.171 52.1999 150.571 51.0099 149.521 50.5499C149.451 50.5499 149.371 50.4799 149.301 50.4799C170.171 19.4799 125.731 37.6599 150.301 56.5499C149.601 57.3399 149.201 59.2099 148.691 61.2999C145.451 71.5899 155.911 78.0199 163.611 67.2999C164.611 75.0899 177.781 74.1999 180.871 66.9799C188.391 57.4499 179.271 51.3099 177.511 39.9799C176.101 36.9199 185.001 31.2799 182.461 38.3399V38.3399ZM147.281 47.5499C146.57 45.6968 146.521 43.6553 147.141 41.7699C151.451 33.8999 150.901 44.4599 147.281 47.5499ZM151.741 56.4699C151.601 56.6899 151.381 57.5699 152.041 57.5699C150.511 59.8699 151.461 62.1699 148.671 65.9799C148.791 63.7899 150.201 60.2999 151.231 56.7699C151.46 56.5344 151.703 56.3139 151.961 56.1099C152.471 56.3299 151.891 56.1099 151.741 56.4699Z" fill="black"/>
<path d="M27.85 0.230469V16.6005H27V8.60047H18.82V16.6005H18V0.230469H18.84V7.85047H27V0.230469H27.85Z" fill="#EC8B9A"/>
<path d="M36.46 0L41.46 16.58H40.53L39.21 12.15H32.51L31.21 16.58H30.29L35.2 0H36.46ZM32.7 11.38H38.94L35.83 0.86L32.7 11.38Z" fill="#EC8B9A"/>
<path d="M44.6496 16.5994H43.8096V0.22941C56.0996 -1.88059 55.5596 11.4294 44.6496 9.66941V16.5994ZM48.0596 8.87941C55.6496 7.60941 51.2396 -0.94059 44.6496 0.99941V8.87941H48.0596Z" fill="#EC8B9A"/>
<path d="M56.4103 16.5994H55.5703V0.22941C67.8603 -1.88059 67.3203 11.4294 56.4103 9.66941V16.5994ZM59.8203 8.87941C67.4103 7.60941 63.0003 -0.94059 56.4103 0.99941V8.87941H59.8203Z" fill="#EC8B9A"/>
<path d="M71.6003 16.6005H70.7603V11.6705L65.8203 0.230469H66.7203L71.1803 10.6205L75.6303 0.230469H76.5303L71.6003 11.6705V16.6005Z" fill="#EC8B9A"/>
<path d="M116.31 93.0008H112.21V76.6308C125.63 73.5908 125.16 92.9308 116.31 93.0008ZM116.2 92.2008C124.99 91.8508 122.78 74.3708 113.05 77.4208V92.2108L116.2 92.2008Z" fill="#EC8B9A"/>
<path d="M130.44 76.4202L135.39 93.0002H134.47L133.15 88.5702H126.45L125.15 93.0002H124.22L129.22 76.4102L130.44 76.4202ZM126.68 87.7802H132.92L129.81 77.2602L126.68 87.7802Z" fill="#EC8B9A"/>
<path d="M141.44 92.9994H140.6V88.0694L135.67 76.6294H136.57L141 86.9994L145.45 76.6094H146.36L141.42 88.0494L141.44 92.9994Z" fill="#EC8B9A"/>
<path d="M167.23 31.4207C166.82 29.6907 163.72 29.1107 162.92 31.9107C162.68 32.3407 162.51 33.0207 163.3 34.1807C163.242 34.9377 163.265 35.6988 163.37 36.4507C160.58 44.0007 169 36.8207 167.23 31.4207Z" fill="black"/>
</svg>
