<svg width="173" height="146" viewBox="0 0 173 146" fill="none" xmlns="http://www.w3.org/2000/svg">
<path fill-rule="evenodd" clip-rule="evenodd" d="M62.3456 48.376C65.9006 47.918 71.5306 48.019 74.1406 46.996C76.2666 44.673 57.5326 47.406 62.3456 48.376" fill="#232323"/>
<path fill-rule="evenodd" clip-rule="evenodd" d="M50.2195 73.6086C36.5805 84.0096 49.5645 36.1446 38.1395 38.3816C34.4205 38.2476 31.6475 48.8516 31.1035 48.8856C31.1025 35.0016 26.4425 39.2726 24.3905 48.2196C23.3445 49.2306 24.9065 40.1206 23.3295 38.8466C21.6635 37.5066 17.7555 37.2696 18.4275 39.2876C20.1405 48.9916 15.3455 77.5436 22.8235 70.5656C24.8825 65.4556 24.1335 54.8006 26.2245 47.6706C30.2925 33.8696 29.6685 45.9376 30.0765 52.0766C31.2845 54.4036 33.9895 42.2896 37.0705 40.5966C41.3375 37.7226 36.1435 62.3616 39.8435 72.4366C42.2485 82.3166 53.0525 75.3976 50.2195 73.6086" fill="#232323"/>
<path fill-rule="evenodd" clip-rule="evenodd" d="M132.651 74.9063C131.274 83.3573 128.304 73.8023 131.507 70.2143C132.206 71.5643 132.651 73.0363 132.651 74.9063V74.9063ZM113.271 58.4703C113.782 51.4093 118.098 55.7193 114.782 60.4623C114.08 60.4163 113.514 59.8733 113.271 58.4703ZM104.259 57.5803C106.864 58.1213 102.998 63.8453 98.9036 66.9783C98.8736 64.6423 102.46 57.6903 104.259 57.5803V57.5803ZM57.5486 59.1443C53.4636 58.3333 57.8296 54.0053 58.2226 59.0673C57.9926 59.1143 57.7666 59.1473 57.5486 59.1443ZM136.919 62.5643C135.799 63.4463 134.438 64.5173 133.129 65.8183C128.097 59.7273 127.291 51.8603 134.702 52.8493C131.425 41.5173 118.005 53.7523 127.09 63.8203C126.173 68.6943 119.474 78.5203 118.734 72.5993C118.972 68.5383 122.775 62.2463 123.498 59.9693C122.503 54.4983 119.705 56.9363 116.339 59.9803C121.621 42.3183 102.127 54.6463 113.926 61.8033C113.869 61.8883 113.813 61.9733 113.753 62.0593H113.618C113.618 62.0593 113.482 62.3333 113.237 62.7923C112.852 63.3263 112.595 63.8203 112.438 64.2393C109.32 70.9863 97.8826 82.8483 98.6736 68.7233C104.996 64.6993 106.804 59.5043 106.072 56.6113C102.814 46.7663 92.6056 61.1443 94.8466 69.1143C88.3366 76.0623 91.5216 64.4523 90.9136 58.0003C89.2066 47.9163 79.7046 56.8583 79.4906 59.1033C78.5496 59.7863 83.9916 34.2413 76.8316 39.1783C75.3776 41.8863 76.4136 56.2073 76.0476 63.7273L75.8636 63.5883C75.8636 63.5883 72.7986 72.0533 67.5296 72.1053C63.8266 72.1423 71.9866 47.3453 71.7806 41.6323C71.7186 39.9133 67.1446 35.4773 66.5306 40.6763C65.9006 45.9983 64.9516 50.9153 64.1236 55.2393C63.6816 55.4273 61.7616 57.5143 59.2026 58.7543C57.5446 50.9503 50.5676 60.3193 58.2836 59.9483C58.9326 69.1973 49.3166 75.9623 50.9286 63.1603C50.6766 57.4923 60.4016 52.6813 54.2906 52.5803C37.0646 59.5163 57.4836 87.2853 59.3106 59.6753C61.1046 59.0523 62.8316 57.7873 63.7876 56.9983C58.5826 75.6893 68.8446 77.8493 75.6876 67.5233C73.9806 73.0483 77.3136 78.1653 79.3686 73.9413C79.6986 71.4093 78.7536 67.5973 79.6706 62.8663C81.5906 54.4243 86.9146 52.5843 86.1566 58.2633C85.7406 66.5433 86.2696 76.7053 95.1786 70.9213C98.9746 83.3053 109.27 73.5523 113.861 63.8133C114.297 63.1803 114.743 62.5423 115.172 61.8963C116.239 61.9253 118.136 60.9573 118.566 60.5543C111.252 77.0223 121.915 81.9353 127.786 64.8423C128.813 66.2923 129.818 67.5273 130.649 68.7763C121.753 84.9983 141.815 82.8693 133.841 67.0863C134.482 66.3233 142.021 59.7993 136.919 62.5643" fill="#232323"/>
<path fill-rule="evenodd" clip-rule="evenodd" d="M119.326 51.347C119.718 51.347 120.082 51.237 120.395 51.049C118.839 58.272 122.96 51.888 121.565 48.595C119.148 44.333 114.739 50.525 119.326 51.347Z" fill="#232323"/>
<path fill-rule="evenodd" clip-rule="evenodd" d="M91.0993 143.752C75.1393 140.21 93.7203 121.879 104.304 124.398C101.258 136.433 96.5653 143.694 91.0993 143.752ZM113.179 124.71C111.827 124.215 110.399 123.843 108.939 123.573C110.816 117.589 113.896 97.9497 106.103 104.995C105.95 110.385 104.448 122.712 97.0883 119.74C94.8953 117.915 98.1783 111.274 97.6553 105.918C92.0323 95.8217 92.5733 113.897 92.1383 115.94C91.0923 117.266 88.7243 119.891 87.3603 120.078C84.1663 118.332 92.7493 108.889 85.7363 107.772C83.7543 107.503 84.2283 108.097 83.5343 110.553C75.5313 132.253 70.9303 106.69 83.2943 105.824C84.6043 106.404 85.0583 106.122 84.6903 105.256C68.3533 97.7997 66.1493 133.442 82.9303 116.425C84.1773 121.7 87.9643 123.656 92.2473 118.255C92.1273 121.287 98.2083 123.68 103.349 120.203C107.515 116.287 105.044 119.031 104.619 123.103C98.5543 122.895 92.4543 124.522 88.6753 127.992C81.6053 134.482 80.8873 145.972 91.7733 145.974C100.826 145.976 105.88 135.569 108.655 124.724C110.231 125.213 119.873 128.281 113.179 124.71" fill="#232323"/>
<path fill-rule="evenodd" clip-rule="evenodd" d="M61.9973 119.439C57.8623 119.366 61.6323 104.643 60.2323 93.8316C59.9623 91.7456 61.3473 90.3426 63.8133 87.1056C64.7893 85.8276 66.2973 83.9166 68.6353 84.5486C77.4043 86.9226 65.0483 119.494 61.9973 119.439V119.439ZM68.6353 83.2076C64.3683 83.1586 61.3653 88.0606 60.1733 88.7116C60.2603 83.4636 55.0403 79.1756 54.1123 82.2406C59.9263 105.483 51.4883 122.649 60.5473 121.978C67.2763 121.033 80.7363 83.2546 68.6353 83.2076Z" fill="#232323"/>
<path fill-rule="evenodd" clip-rule="evenodd" d="M171.115 39.423C170.975 36.305 167.609 31.757 163.272 32.625C167.287 28.504 172.5 34.155 171.115 39.423ZM171.984 34.111C167.881 26.539 162.682 30.124 158.871 36.125C157.404 37.929 155.523 41.288 155.066 44.228C154.872 44.406 154.865 45.526 155.446 44.741C156.375 44.266 156.469 42.886 157.374 41.13C166.001 25.743 177.025 37.892 160.541 59.196C160.451 59.287 160.395 59.355 160.353 59.412C160.228 59.534 159.906 59.461 159.567 60.399C153.092 58.347 134.375 37.67 145.712 33.829C137.686 37.509 154.827 60.886 153.935 54.831C150.247 52.757 137.364 30.286 149.734 35.91C161.833 52.995 152.759 26.577 143.488 31.526C129.751 38.229 152.651 65.224 161.192 62.032C164.045 59.926 164.982 54.875 167.383 50.861C169.851 46.427 174.29 40.194 171.984 34.111" fill="#75D5C7"/>
<path fill-rule="evenodd" clip-rule="evenodd" d="M37.4324 92.3453C36.6394 92.1923 34.6144 91.7863 33.1174 92.9053C34.9614 88.2503 41.0414 90.9593 41.7634 95.7693C40.9444 94.0653 39.5154 92.8423 37.4324 92.3453ZM43.2524 98.7423C43.4254 88.3093 32.1094 84.7543 30.7304 97.2253C30.1944 99.0893 29.7454 102.365 30.3784 105.073C30.2814 105.283 30.6534 106.192 30.8594 105.361C31.4524 104.662 31.0634 103.512 31.2044 101.784C33.4014 85.6603 45.9694 93.7403 39.8614 115.356C39.8194 115.46 39.7964 115.533 39.7814 115.594C39.7214 115.736 39.4344 115.784 39.4764 116.658C33.7994 117.245 11.3594 106.772 19.2944 99.7993C15.1484 104.877 31.1614 117.017 33.6224 114.379C30.3854 114.075 10.8084 99.7503 23.3964 100.189C36.8994 109.104 25.8634 94.5303 18.5784 97.4183C4.59738 105.779 33.9784 123.423 41.3444 117.434C42.8994 114.95 42.0324 110.246 42.5954 106.295C42.9324 104.763 43.2044 101.414 43.2524 98.7423" fill="#E62575"/>
<path fill-rule="evenodd" clip-rule="evenodd" d="M142.713 112.844C142.472 113.476 142.062 113.996 141.584 114.454C142.312 113.308 142.505 109.575 139.947 108.649C142.089 108.177 143.633 110.14 142.713 112.844V112.844ZM142.147 108.09C141.036 107.74 139.361 107.803 136.789 108.88C135.608 109.25 133.582 110.17 132.227 111.604C132.06 111.624 131.725 112.16 132.255 111.951C132.823 112.022 133.065 111.595 134.396 110.815C145.337 106.149 142.564 116.997 130.005 120.615C129.932 120.63 129.883 120.644 129.844 120.657C129.745 120.678 129.608 120.531 129.144 120.883C127.302 119.059 123.813 101.929 131.091 103.507C127.223 103.126 125.561 115.053 128.26 116.797C127.421 115.297 127.63 98.9526 132.37 105.896C132.066 109.326 133.96 113.706 134.061 106.072C127.32 90.2406 119.873 117.993 129.397 122.199C131.554 122.033 133.202 120.197 136.024 118.812C139.471 117.643 147.229 112.558 142.147 108.09" fill="#E62575"/>
<path fill-rule="evenodd" clip-rule="evenodd" d="M150.765 91.5392C150.472 91.5102 149.973 91.2452 149.136 91.6752C149.664 90.6462 151.881 90.2642 152.313 92.9262C152.042 92.2662 151.539 91.7682 150.765 91.5392ZM152.003 91.1652C150.401 90.1462 148.97 89.6522 148.155 93.2712C147.973 93.8452 147.73 94.8322 147.877 96.1702C147.83 96.2522 147.96 96.5842 148.043 96.2742C148.634 88.9992 154.146 91.4142 151.214 100.201C151.194 100.244 151.181 100.277 151.175 100.3C151.153 100.354 151.04 100.359 151.047 100.681C149.504 100.659 141.035 97.3502 143.848 93.9672C142.635 95.7742 146.674 100.012 148.898 99.7102C147.596 98.5482 144.237 97.9482 143.909 94.5262C143.932 94.3372 144.317 93.7522 145.338 94.1892C145.852 94.4662 145.702 94.3452 146.63 94.9622C146.739 95.1062 148.441 96.3672 147.319 94.5092C138.951 88.2702 141.906 103.102 151.712 101.015C152.274 100.336 152.123 98.7572 152.417 96.8682C152.595 95.5152 153.448 93.1222 152.003 91.1652" fill="#C5DF5D"/>
<path fill-rule="evenodd" clip-rule="evenodd" d="M9.86424 87.5925C10.0832 87.0735 10.1332 85.0135 8.45824 84.5005C9.54624 84.1335 11.3802 85.4115 9.86424 87.5925ZM9.62724 83.9975C8.53724 84.0745 8.99524 83.6765 6.63824 84.9465C6.10524 85.2265 5.23924 85.7595 4.40424 86.8135C4.31224 86.8395 4.17224 87.1675 4.44924 87.0045C9.98024 82.2435 12.2052 87.8345 3.94624 92.0275C3.90124 92.0435 3.86824 92.0575 3.84824 92.0705C3.79424 92.0935 3.71024 92.0175 3.48924 92.2505C2.40724 91.1515 -1.29376 82.8455 3.08524 82.4155C0.822242 83.0485 0.909241 88.6085 2.64224 90.0505C2.53324 88.3085 0.564241 85.5215 2.73524 82.8565C2.88424 82.7385 3.57124 82.5925 3.98924 83.6215C4.16024 84.1785 4.13824 83.9865 4.36524 85.0785C4.34124 85.2585 4.66724 87.3505 5.17424 85.2395C3.59724 74.9015 -4.72576 87.5965 3.74724 92.9605C4.63124 92.8275 5.63524 91.6225 7.19324 90.4615C8.73924 89.5795 12.8792 86.3245 9.62724 83.9975" fill="#75D5C7"/>
<path fill-rule="evenodd" clip-rule="evenodd" d="M28.7622 21.0983C29.3112 19.7713 28.8292 15.8443 25.9942 15.3473C28.9282 14.1523 31.0632 18.0313 28.7622 21.0983ZM28.1852 14.3623C26.9632 14.2003 25.2282 14.5723 22.7452 16.1663C21.5812 16.7683 19.6382 18.0983 18.4892 19.8403C18.3192 19.8913 18.0682 20.5123 18.5812 20.1963C19.1872 20.1673 19.3612 19.6773 20.6052 18.6203C30.5462 11.8823 30.9552 23.0173 17.8232 29.6383C17.7492 29.6663 17.7002 29.6903 17.6622 29.7123C17.5612 29.7493 17.3982 29.6273 16.9712 30.0713C14.3912 28.0033 8.12321 11.2383 15.8232 11.6093C11.7212 11.9203 12.1732 24.6543 15.3052 25.9783C14.1562 24.5693 11.3832 7.49626 17.5942 13.8653C18.4452 14.7013 17.7312 17.9073 19.2402 18.6043C19.7332 17.9303 20.0612 16.5293 19.7272 14.9843C19.3292 10.7813 13.8902 7.02626 10.9432 12.6373C9.3522 18.9953 10.9162 28.3103 17.4782 31.4003C19.6962 30.8333 21.0782 28.6173 23.7652 26.6573C27.1032 24.8883 34.3382 17.9293 28.1852 14.3623" fill="#C5DF5D"/>
<path fill-rule="evenodd" clip-rule="evenodd" d="M38.973 1.19005C38.679 1.11505 38.213 0.769045 37.297 1.07805C37.979 0.114045 40.275 0.0680454 40.334 2.79605C40.154 2.10005 39.712 1.53605 38.973 1.19005V1.19005ZM40.288 1.00005C38.962 -0.606955 37.03 -0.405955 36.055 2.54905C35.782 3.10405 35.384 4.06905 35.327 5.45105C35.267 5.52705 35.348 5.88505 35.48 5.58205C37.198 -1.71796 42.427 1.58305 38.098 10.059C38.064 10.111 38.067 10.124 38.061 10.146C38.029 10.196 37.903 10.184 37.854 10.521C36.29 10.262 28.195 5.59905 31.572 2.59405C30.062 4.24405 33.515 9.16905 35.821 9.20505C34.676 7.82405 31.355 6.69805 31.548 3.17105C31.6 2.98305 32.082 2.44805 33.052 3.04805C33.531 3.40905 33.397 3.26305 34.246 4.03205C34.248 4.03605 34.481 4.28205 34.958 4.76705C35.297 4.62705 35.42 4.74005 35.015 3.67805C27.472 -3.94595 28.196 11.577 38.479 10.962C39.155 10.359 39.244 8.73205 39.833 6.85805C40.221 5.51105 41.456 3.21105 40.288 1.00005" fill="#E62575"/>
<path fill-rule="evenodd" clip-rule="evenodd" d="M130.732 16.98C130.701 16.563 138.914 7.29805 135.89 8.49205C123.669 7.01405 104.435 7.35905 94.4841 7.24805V7.30205C42.7581 7.84705 53.3581 6.61905 59.7791 17.009C57.4621 18.594 55.1461 20.18 52.8301 21.766C65.1551 28.839 81.2951 23.45 94.6891 24.029V24.059C94.7821 24.053 94.8801 24.048 94.9781 24.042C95.2751 24.056 95.5571 24.072 95.8221 24.087C95.8221 24.059 95.8231 24.029 95.8231 24.001C108.711 23.331 124.937 28.884 137.681 21.737C135.365 20.151 133.048 18.565 130.732 16.98" fill="#FDE46B"/>
<path fill-rule="evenodd" clip-rule="evenodd" d="M75.1863 9.8879C75.1373 9.8929 74.6133 9.6599 74.5583 10.3439C74.4913 10.3329 74.4613 10.4119 74.4783 10.6069C74.4553 10.7579 74.4333 10.9079 74.4143 11.0589C74.3973 12.1329 74.4133 12.8449 74.4783 14.8629C73.5623 14.9679 72.1723 15.1479 70.0943 15.4269C70.4333 13.1409 68.8273 5.3149 68.6153 13.2479C67.8863 16.8479 70.1323 26.0249 70.1453 16.5399C71.2753 16.7829 72.5043 16.6669 74.4813 16.4629C76.1623 25.1699 77.5463 12.2839 75.1863 9.8879" fill="white"/>
<path fill-rule="evenodd" clip-rule="evenodd" d="M83.1297 16.6882C83.5357 15.4692 84.0187 13.9092 84.5697 11.8242C85.2707 12.5022 86.1357 14.6832 86.5197 16.0702C85.4307 16.2152 84.1907 16.3012 83.1297 16.6882V16.6882ZM87.5557 14.1282C83.3427 5.9822 83.4237 12.5892 81.2377 18.1012C79.9967 21.3892 81.7807 21.2712 82.7947 17.7552C83.6847 17.9702 85.3217 17.9512 87.0317 17.7902C89.1677 24.8592 90.4797 18.3142 87.5557 14.1282" fill="white"/>
<path fill-rule="evenodd" clip-rule="evenodd" d="M97.3199 16.0465C96.2959 16.2895 95.2749 15.8715 94.2829 16.0185C92.0029 9.49249 101.429 12.1575 97.3199 16.0465ZM97.9409 10.8105C90.4949 8.81749 93.0719 13.2415 93.0059 18.7865C92.8189 22.5585 94.5109 21.9395 94.3219 17.9185C99.1389 19.1495 103.081 14.1475 97.9409 10.8105Z" fill="white"/>
<path fill-rule="evenodd" clip-rule="evenodd" d="M105.163 16.0388C105.369 15.2908 104.07 11.4848 106.08 11.6558C111.839 13.3478 109.567 16.5268 105.163 16.0388ZM108.086 10.7578C103.837 8.98184 103.19 11.4908 103.831 16.3778C103.517 16.7728 103.568 17.4028 103.966 17.6968C103.729 20.4798 105.864 23.7548 105.379 17.8468C111.424 18.4728 113.684 13.2818 108.086 10.7578" fill="white"/>
<path fill-rule="evenodd" clip-rule="evenodd" d="M120.183 15.242C122.536 12.176 122.541 7.83096 118.895 14.158C115.64 10.775 111.264 10.185 118.247 16.017C118.019 17.208 118.003 16.939 117.663 19.764C117.481 20.236 117.551 20.439 117.844 20.406C117.884 24.924 120.527 19.688 120.012 15.952C120.147 15.731 120.216 15.475 120.183 15.242" fill="white"/>
</svg>
