<svg width="183" height="97" viewBox="0 0 183 97" fill="none" xmlns="http://www.w3.org/2000/svg">
<g clip-path="url(#clip0_3_23050)">
<path d="M63.3804 81.7011C61.2904 68.7911 58.4604 54.7011 55.7304 41.3711C35.4704 44.2311 17.9404 51.2811 0.000433447 60.5211C-0.539567 60.8011 11.9104 68.9211 15.7704 73.7711C16.3104 76.6511 16.3104 81.5911 15.9504 96.1511C31.0994 89.3844 47.0319 84.5304 63.3804 81.7011Z" fill="#FFC219"/>
<path d="M61.2204 63.8096C60.2204 58.8096 60.2204 49.8096 58.9804 46.3496C50.6404 54.3496 41.0804 62.4796 33.4804 71.6696C33.3604 71.8396 33.2104 72.3396 33.9204 72.6096C34.0256 72.6717 34.1405 72.7156 34.2604 72.7396C72.1304 84.4796 63.3604 86.2196 61.2204 63.8096V63.8096Z" fill="#F282AA"/>
<path d="M118.761 81.7011C120.861 68.7911 123.681 54.7011 126.411 41.3711C146.671 44.2311 164.201 51.2811 182.131 60.5211C182.661 60.8011 170.221 68.9211 166.351 73.7711C165.811 76.6511 165.811 81.5911 166.171 96.1511C151.028 89.386 135.102 84.532 118.761 81.7011V81.7011Z" fill="#FFC219"/>
<path d="M118.76 81.7C129.26 78.46 138.49 76.43 147.89 72.7C148.007 72.6767 148.119 72.6327 148.22 72.57C148.56 72.43 148.96 72.35 148.66 71.63C140.771 62.5806 132.17 54.1771 122.94 46.5C122.4 54.52 118.55 76.58 118.76 81.7V81.7Z" fill="#F282AA"/>
<path d="M163.891 40.7895C124.621 12.3695 56.0005 13.0695 18.7705 39.3695C22.1905 47.8795 29.2805 65.7995 33.6505 72.4595C55.0005 62.7795 78.5605 56.9995 103.001 59.6495C166.071 64.5495 137.451 90.9295 163.891 40.7895V40.7895Z" fill="#FFD970"/>
<path d="M64.3811 14.1897C64.7911 13.8497 65.0011 13.6897 65.3811 13.3597L63.1811 6.24969H61.7511L61.3311 4.96969C63.4811 4.22969 64.5711 3.89969 66.7511 3.29969L67.1111 4.66969C66.6011 4.99969 66.3511 5.16969 65.8511 5.50969C66.1211 6.50969 66.2511 6.96969 66.5311 7.94969C68.2911 7.45969 69.171 7.23969 70.951 6.82969L70.3911 4.35969L68.8911 4.22969C68.7611 3.69969 68.7011 3.43969 68.5711 2.91969C70.7611 2.35969 71.8611 2.10969 74.0711 1.67969L74.3711 2.99969L73.1411 3.70969C73.7111 6.62969 74.0011 8.08969 74.5711 11.0097L75.8611 11.2497C75.9611 11.7797 76.0111 12.0497 76.1011 12.5797C74.1011 12.9297 73.1611 13.1397 71.2211 13.5797L70.9011 12.2697C71.3611 11.9597 71.6011 11.8097 72.0711 11.5097C71.8111 10.3397 71.6711 9.74969 71.4111 8.57969C69.6711 8.96969 68.8011 9.18969 67.0711 9.66969C67.4011 10.8297 67.5611 11.4097 67.8811 12.5697L69.2811 12.6797C69.4111 13.1997 69.4811 13.4597 69.6211 13.9797C67.6811 14.4897 66.7111 14.7697 64.8011 15.3997L64.3811 14.1897Z" fill="#963C85"/>
<path d="M88.3606 11.2909C86.3606 11.3609 85.3006 11.4309 83.2706 11.6209L83.1406 10.2809L84.3206 9.75094C84.1306 9.30094 84.0306 9.08094 83.8306 8.63094C82.3606 8.76094 81.6306 8.84094 80.1606 9.03094C80.0606 9.50094 80.0106 9.74094 79.9006 10.2109L81.2206 10.4909L81.3806 11.8309C79.4606 12.0509 78.4906 12.2009 76.5806 12.5309L76.3506 11.2109L77.4506 10.5709C78.2806 6.66094 78.7706 4.70094 79.9106 0.810937C81.0606 0.650937 81.6406 0.580937 82.7906 0.460938C84.6806 4.05094 85.5506 5.87094 87.1406 9.55094L88.3106 9.94094L88.3606 11.2909ZM81.4706 3.39094C81.0706 4.94094 80.8906 5.72094 80.5406 7.27094C81.5406 7.15094 82.0906 7.09094 83.1306 6.99094C82.4806 5.55094 82.1506 4.83094 81.4706 3.39094V3.39094Z" fill="#963C85"/>
<path d="M88.6306 9.9302L89.8406 9.4202C89.7806 6.4202 89.7506 4.9602 89.7006 1.9802L88.3506 1.5402C88.3506 1.0102 88.3506 0.740198 88.3506 0.200198C90.0006 0.110198 90.8006 0.090198 92.4606 0.070198C100.151 -0.879802 100.401 8.1402 92.4006 7.3502V9.4102L93.6206 9.9002V11.2502C91.6206 11.2002 90.6906 11.2502 88.7406 11.2502L88.6306 9.9302ZM93.3206 5.5102C96.4806 5.5102 96.4006 1.3302 92.4506 1.9702V5.5002L93.3206 5.5102Z" fill="#963C85"/>
<path d="M98.7711 10.1707L100.001 9.8107C100.281 6.8107 100.431 5.3707 100.711 2.4007L99.4211 1.8107L99.5611 0.470703C101.221 0.580703 102.061 0.650703 103.721 0.820703C111.481 0.820703 110.721 9.7607 102.811 8.0507L102.561 10.0507L103.711 10.6807L103.521 12.0107C101.581 11.7407 100.611 11.6407 98.6611 11.4807L98.7711 10.1707ZM103.941 6.3307C107.011 6.7707 107.481 2.5407 103.481 2.7107C103.301 4.1107 103.221 4.8107 103.041 6.2107L103.941 6.3307Z" fill="#963C85"/>
<path d="M111.151 12.09L112.461 11.91L112.951 9.91C112.261 7.51 111.881 6.3 111.041 3.91L110.001 3.27L110.241 2C112.241 2.36 113.241 2.57 115.291 3L114.941 4.38L113.941 4.48C114.311 5.97 114.491 6.72 114.821 8.21C115.821 7.08 116.401 6.53 117.501 5.43L116.641 4.83L116.991 3.53C118.901 4.01 119.861 4.28 121.751 4.86L121.311 6.22C120.781 6.22 120.521 6.22 119.991 6.22C118.111 7.91 117.201 8.77 115.441 10.54C115.231 11.34 115.121 11.73 114.901 12.54C115.331 12.85 115.541 13.01 115.961 13.33L115.591 14.62C113.691 14.07 112.731 13.83 110.811 13.39L111.151 12.09Z" fill="#963C85"/>
<path d="M69.4806 71.6106L67.6406 70.8706V68.7906L73.2706 68.6706C83.5606 66.9506 86.3806 78.6706 80.2706 84.4106C77.6106 86.8606 70.9006 85.6906 67.6506 85.9406V83.8606L69.4906 83.1206L69.4806 71.6106ZM75.3106 83.0006C81.5506 82.8706 80.4306 69.3606 73.3106 71.6106V83.0006H75.3106Z" fill="#963C85"/>
<path d="M102.261 85.9399H94.4707V83.8599L96.3107 83.1999L95.7207 81.4099H90.2807L89.6707 83.1699L91.5807 83.8599V85.9399H84.1807V83.8599L86.0007 83.1699L91.3907 68.7399L95.3107 68.6699L100.581 83.1699L102.291 83.8599L102.261 85.9399ZM93.0807 72.9999L91.1407 78.8099H94.9107L93.0807 72.9999Z" fill="#963C85"/>
<path d="M104.541 83.8599L106.381 83.1199V79.9999L101.901 71.5699L100.301 70.9099V68.7899L107.241 68.6699V70.8699L105.991 71.3899L108.441 76.6599L111.041 71.4099L109.691 70.8699V68.7899L116.311 68.6699V70.8699L114.621 71.5299L110.181 79.9399V83.1199L112.021 83.8599V85.9399H104.541V83.8599Z" fill="#963C85"/>
<path d="M45.1008 41.2211C40.1908 33.6411 39.1008 49.2211 40.7208 52.8411C40.7908 53.0011 40.8508 53.2111 40.9308 53.3811C44.8108 55.8711 42.2908 65.2111 38.3308 58.0411C34.5808 50.6311 35.9608 37.4411 29.3308 45.5311C25.9108 41.5311 35.7308 35.1211 37.5108 41.3811C37.9608 34.4911 46.6308 31.8211 48.3008 39.2311C60.4608 23.4911 56.3008 52.5911 59.8108 49.6811C61.5508 48.1211 63.0708 42.3811 63.6708 46.9911C63.6708 50.5011 58.7308 56.4911 55.4108 52.5611C53.3008 49.3711 55.9108 42.8911 53.3108 39.3311C50.5208 38.7211 49.3108 46.3311 49.9908 50.4711C50.2708 52.9511 52.5308 54.1011 50.3308 56.7011C45.5908 60.8111 46.8108 43.9211 45.1008 41.2211V41.2211Z" fill="#963C85"/>
<path d="M73.2711 37.4604C63.7011 38.6704 64.0011 51.2304 71.8711 47.0004C63.0311 41.1004 77.8711 32.8104 75.5111 44.8004C82.3611 39.3504 79.3911 48.8004 74.3011 47.6804C59.5211 62.7704 57.0011 29.9104 73.2711 37.4604ZM73.5311 44.2104C73.8411 43.8804 73.9711 39.9804 72.5311 41.5504C72.3811 42.7504 72.4711 42.9304 73.5311 44.2104V44.2104Z" fill="#963C85"/>
<path d="M79.1009 35.1206C79.7009 31.3106 82.4709 27.7006 84.1009 32.5106C83.6309 33.4206 83.3909 33.8706 82.9409 34.7806C87.6409 33.5806 87.4409 38.1606 82.5509 37.3206C80.8809 55.5806 87.6809 38.4606 88.6109 43.0306C83.1909 55.1606 76.7309 48.5606 78.6809 37.8006C77.2009 38.3406 76.1409 37.3706 77.4509 35.3106C77.8309 35.2706 78.4209 35.2106 79.1009 35.1206V35.1206Z" fill="#963C85"/>
<path d="M95.8811 45.2993C98.9811 34.7093 93.7611 36.2993 91.6911 43.7593C92.5811 45.5493 90.7911 51.5693 88.1411 48.7593C86.8011 42.8393 87.5411 39.5693 89.3711 33.1593C93.4711 20.0793 98.3111 28.9593 92.8111 35.1093L92.3311 37.3093C93.7411 33.7693 102.871 33.0993 101.181 39.5393C97.5311 51.5393 101.591 42.9493 104.751 42.8793C105.481 47.4993 95.2811 53.1893 95.8811 45.2993V45.2993Z" fill="#963C85"/>
<path d="M116.7 44.4603C115.7 55.5503 93.8805 50.1403 106.79 37.4003C116.56 31.7603 118.69 43.2303 107.31 43.9003C106.44 50.1303 116.32 45.2303 116.7 44.4603ZM107.78 41.8303C109.11 41.0503 111.78 40.4703 111.12 38.8303C109.67 37.6903 108.55 39.4603 107.78 41.8303Z" fill="#963C85"/>
<path d="M128.131 43.2903C127.131 45.8903 123.051 49.7803 125.131 50.1803C127.281 49.7803 131.551 45.6003 129.591 49.8703C122.081 58.8703 117.961 49.7103 123.961 43.3103C123.046 43.3444 122.134 43.1913 121.281 42.8603C116.281 60.5403 112.061 49.3203 118.491 40.5203C115.061 35.5803 122.621 34.8803 122.381 40.1103C124.411 41.5003 128.601 38.4303 128.131 43.2903Z" fill="#963C85"/>
<path d="M142.051 34.43C149.741 40.73 126.291 43.84 137.551 38.43C135.851 36.09 138.831 33.2 142.051 34.43Z" fill="#963C85"/>
<path d="M146.481 53.6594C150.851 66.6594 127.951 57.4194 138.981 51.1694C142.121 50.6494 137.691 55.3794 142.841 57.8594C135.651 36.2494 161.581 51.1294 146.481 53.6594V53.6594ZM145.931 51.9994C147.931 51.4194 149.201 49.3694 145.761 48.8894C145.443 49.9129 145.503 51.0167 145.931 51.9994Z" fill="#963C85"/>
<path d="M49.5303 12.4305C33.9303 4.06052 32.3003 15.8405 48.9603 13.0905C49.3403 13.2705 49.6503 13.2905 49.5303 12.4305Z" fill="#ADCA3C"/>
<path d="M37.6608 16.2105C21.1508 11.5305 22.7808 22.6505 36.5108 17.0605C37.2108 17.2605 38.5808 17.2905 37.6608 16.2105Z" fill="#ADCA3C"/>
<path d="M28.1207 20.9995C10.0007 18.9995 12.8807 31.1795 26.5407 21.9995C26.4407 21.9395 29.0607 22.2895 28.1207 20.9995V20.9995Z" fill="#ADCA3C"/>
<path d="M31.3607 21.7411C31.3044 21.6157 31.1998 21.5183 31.0707 21.4711C30.9307 19.9811 29.2907 21.8111 28.3607 23.2011C19.6007 36.0611 32.0007 31.0011 31.3607 21.7411Z" fill="#ADCA3C"/>
<path d="M40.2608 16.4404L40.1508 16.6604C38.3408 16.8104 32.1508 28.5604 37.5708 26.0504C39.6108 24.1304 42.7108 16.3404 40.2608 16.4404Z" fill="#ADCA3C"/>
<path d="M50.2502 12.6008C40.1802 23.9008 50.8802 26.4308 51.2502 13.6008C51.7202 13.0008 50.8602 12.1108 50.2502 12.6008Z" fill="#ADCA3C"/>
<path d="M55.2704 11.5605C43.3304 13.4705 23.7204 19.9405 18.1504 28.3105C26.2404 26.0005 33.0004 20.1705 41.2104 17.0005C45.3804 14.3505 54.4904 14.4605 55.2704 11.5605V11.5605Z" fill="#C7DB7A"/>
<path d="M37.0801 12.9297C35.9201 12.9297 35.7601 14.7297 36.9201 14.7297C38.0801 14.7297 38.2401 12.9297 37.0801 12.9297Z" fill="#EE548A"/>
<path d="M25.7005 17.8994C24.1005 16.8294 23.1205 20.5294 25.8005 19.5494C26.1205 19.1394 26.2805 18.8894 25.7005 17.8994Z" fill="#EE548A"/>
<path d="M32.8705 21.3809C32.2688 21.4367 31.8086 21.9416 31.8086 22.5459C31.8086 23.1502 32.2688 23.6551 32.8705 23.7109C33.4723 23.6551 33.9325 23.1502 33.9325 22.5459C33.9325 21.9416 33.4723 21.4367 32.8705 21.3809Z" fill="#EE548A"/>
<path d="M24.7405 27.9102C23.4405 27.9102 23.5105 29.9102 24.8105 29.9102C26.1105 29.9102 26.0005 27.9102 24.7405 27.9102Z" fill="#EE548A"/>
<path d="M43.9402 17.8711C41.6802 18.0311 43.0202 22.6411 45.2902 19.6111C45.4902 19.0011 45.1902 18.2111 43.9402 17.8711Z" fill="#EE548A"/>
<path d="M18.0008 29.321C17.1208 28.201 15.0008 31.271 17.7008 31.011C18.3308 30.621 18.3108 30.211 18.0008 29.321Z" fill="#EE548A"/>
<path d="M128.66 13.1599L128.79 13.0899C154 14.0699 132.88 4.32986 128.66 13.1599Z" fill="#ADCA3C"/>
<path d="M140.251 17.1901L141.251 17.0601C142.941 19.2601 157.191 19.1101 150.441 15.4401C148.431 14.3901 138.191 15.4301 140.251 17.1901Z" fill="#ADCA3C"/>
<path d="M149.72 21.8996C150.22 21.9696 150.72 22.0096 151.21 22.0396C152.28 24.0396 162.66 27.1696 162.54 24.0396C161.7 20.3896 148.31 19.3996 149.72 21.8996V21.8996Z" fill="#ADCA3C"/>
<path d="M146.75 24.3197C146.75 27.0197 152.42 35.1197 152.47 28.5897C151.47 25.8797 147.65 19.1897 146.68 21.4697C146 21.9997 146.34 22.9997 146.75 24.3197Z" fill="#ADCA3C"/>
<path d="M136.57 16.7204C139.11 33.0804 147.45 25.6204 137.57 16.6604C137.39 16.2504 137.16 16.0004 136.57 16.7204Z" fill="#ADCA3C"/>
<path d="M126.49 13.6012C125.6 16.0112 130.2 26.4712 131.93 20.6612C131.85 18.2512 127.29 10.0012 126.49 13.6012V13.6012Z" fill="#ADCA3C"/>
<path d="M122.49 11.5605C134.42 13.4705 154.04 19.9405 159.61 28.3105C151.52 26.0005 144.75 20.1705 136.55 17.0005C132.37 14.3505 123.26 14.4605 122.49 11.5605V11.5605Z" fill="#C7DB7A"/>
<path d="M140.681 12.9297C141.831 12.9297 141.991 14.7297 140.831 14.7297C139.671 14.7297 139.511 12.9297 140.681 12.9297Z" fill="#EE548A"/>
<path d="M152.05 17.8994C153.65 16.8294 154.63 20.5294 151.95 19.5494C151.63 19.1394 151.47 18.8894 152.05 17.8994Z" fill="#EE548A"/>
<path d="M144.88 21.3809C145.482 21.4367 145.942 21.9416 145.942 22.5459C145.942 23.1502 145.482 23.6551 144.88 23.7109C144.279 23.6551 143.818 23.1502 143.818 22.5459C143.818 21.9416 144.279 21.4367 144.88 21.3809Z" fill="#EE548A"/>
<path d="M153 27.9102C154.3 27.9102 154.23 29.9102 152.93 29.9102C151.63 29.9102 151.71 27.9102 153 27.9102Z" fill="#EE548A"/>
<path d="M133.81 17.8711C136.07 18.0311 134.73 22.6411 132.46 19.6111C132.26 19.0011 132.56 18.2111 133.81 17.8711Z" fill="#EE548A"/>
<path d="M159.74 29.321C160.62 28.201 162.74 31.271 160.04 31.011C159.42 30.621 159.44 30.211 159.74 29.321Z" fill="#EE548A"/>
</g>
<defs>
<clipPath id="clip0_3_23050">
<rect width="183" height="97" fill="white"/>
</clipPath>
</defs>
</svg>
