<svg width="163" height="181" viewBox="0 0 163 181" fill="none" xmlns="http://www.w3.org/2000/svg">
<path d="M9.48633 127.916V45.1129L81.2202 3.73047L152.954 45.1129V127.916L81.2202 169.299L9.48633 127.916Z" fill="#FF6D92"/>
<path d="M81.2199 7.4478L149.725 46.9715V126.045L81.2845 165.568L12.8435 126.045V46.9715L81.2199 7.4478ZM81.2199 0L6.32227 43.2411V129.723L81.2199 172.965L156.182 129.723V43.2411L81.2199 0Z" fill="white"/>
<path d="M53.0697 44.3133C60.4045 38.7242 55.8202 63.249 56.9824 66.3856C50.6807 70.258 53.7412 60.0221 53.1084 57.3502H49.3636C49.1828 61.9066 50.8486 69.7158 45.4895 66.3856V50.0573C45.4895 44.5198 44.5081 42.6095 49.3636 44.3133V53.4778H53.0568L53.0697 44.3133Z" fill="white"/>
<path d="M70.1266 66.9149C69.8887 66.9164 69.6881 66.7382 69.6617 66.5019L68.861 62.294H63.6957L62.9209 66.5019C62.8563 66.8504 59.2535 67.5474 59.0469 66.4244C59.6925 65.9985 62.9855 42.5966 64.5996 43.8874C67.7118 43.8874 69.0677 43.7713 68.8998 44.7781L73.5873 66.4503C73.781 67.1989 71.0692 66.8375 70.1266 66.9149ZM66.2525 48.844L64.4059 58.9121H68.0992L66.2525 48.844Z" fill="white"/>
<path d="M76.1843 44.3126C81.0914 43.0218 89.1751 43.0218 87.7159 50.1211C88.4262 58.4983 86.515 59.5309 80.097 59.1566C79.4772 61.6349 82.2277 68.3082 76.9591 66.9013C74.8025 69.0053 76.7525 43.8867 76.1843 44.3126V44.3126ZM82.641 55.3875C84.7846 54.2516 84.9266 45.8099 80.0583 47.6428V55.3875H82.641Z" fill="white"/>
<path d="M90.5944 44.3126C95.5015 43.0218 103.585 43.0218 102.126 50.1211C102.836 58.4983 100.925 59.5309 94.5072 59.1566C93.8873 61.6349 96.6379 68.3082 91.3692 66.9013C89.2127 69.0053 91.1626 43.8867 90.5944 44.3126V44.3126ZM97.0511 55.3875C99.2077 54.2516 99.3368 45.8099 94.4684 47.6428V55.3875H97.0511Z" fill="white"/>
<path d="M117.339 43.8873C119.057 43.3194 112.264 57.2985 112.523 57.3631C112.2 60.5642 114.305 70.0385 108.649 66.3985C108.649 66.3985 108.649 57.647 108.649 57.3631C108.455 54.7815 98.6665 40.1699 107.357 44.3391L110.586 52.613L113.814 44.3391C113.827 43.6808 116.513 43.8873 117.339 43.8873V43.8873Z" fill="white"/>
<path d="M125.553 92.7816C125.257 92.8106 124.997 92.9916 124.868 93.2592C124.557 93.795 124.18 94.2894 123.745 94.7307C117.288 99.1065 122.285 91.4005 122.234 86.6504C121.369 85.3596 118.502 87.8509 116.965 85.9018C119.38 82.6619 111.671 79.4479 113.853 86.573C113.998 86.8205 114.196 87.0322 114.434 87.1926C113.763 89.3559 112.761 91.4023 111.464 93.2592C110.302 95.4665 103.936 99.0677 103.212 93.2592C103.381 93.3097 103.554 93.3443 103.729 93.3625C118.76 92.7945 103.148 74.3364 99.0413 93.6723C98.7842 94.0616 98.4948 94.4286 98.1761 94.7694C88.8656 101.649 103.341 81.0097 91.7194 85.734C103.923 73.0327 86.8769 66.3723 82.4089 93.6723C82.1538 94.082 81.8551 94.4628 81.5179 94.8082C76.43 99.6357 76.6624 90.768 79.5679 85.1918C82.4347 85.876 84.1651 83.2944 80.149 83.6945C81.4404 82.3005 81.4404 76.9567 77.6955 79.1252C76.915 80.5927 76.2542 82.1208 75.7198 83.6945C74.9579 83.1395 72.7497 85.5016 75.2032 85.1918C74.2534 87.9345 73.5448 90.7548 73.0854 93.6206C72.401 94.1111 71.5875 95.815 68.7982 95.5826C76.7657 85.8501 60.3399 78.2475 57.9897 93.6336C57.726 94.0561 57.4187 94.4498 57.0728 94.8082C48.4338 101.636 55.3037 80.3127 58.984 75.4465C62.0316 73.0843 54.9034 72.8649 52.127 76.5049C48.8083 80.9194 45.7607 86.9473 42.442 93.2076C50.3579 53.6323 11.2949 85.5404 31.6335 84.9595C26.1711 82.378 37.8965 69.8703 38.2839 78.3249C36.8892 82.4296 33.338 95.4277 26.7264 95.6214C24.6215 94.4984 24.8281 91.6458 27.4108 89.374C31.9692 85.0499 11.0624 91.4521 27.6949 98.3191C34.0483 99.7002 36.7342 90.4195 39.3169 82.0811C37.0183 104.683 40.4404 103.147 52.3078 80.545C49.596 84.4174 44.1078 106.477 58.3771 95.5052C59.222 97.0131 60.6961 98.0653 62.3971 98.3749C64.0982 98.6845 65.8487 98.2192 67.1711 97.1058C69.1982 97.4469 71.2785 96.9838 72.9692 95.815L73.2275 95.5955C74.1831 98.3707 79.0256 99.9584 82.1119 96.37C86.4895 103.521 85.521 91.607 89.3692 88.3284C94.315 86.2761 90.2344 89.8387 90.2861 95.8279C91.5774 99.5453 96.6524 99.4292 99.4546 95.5826C101.727 99.7131 109.14 99.6486 112.523 94.2918C113.85 92.2637 114.959 90.1002 115.829 87.8379C116.216 87.8379 116.552 87.9412 116.849 88.0057C119.432 88.2768 115.558 91.6974 115.725 95.0663C115.842 99.0806 123.318 99.9196 125.927 94.2789C126.082 93.8659 126.844 93.156 125.553 92.7816V92.7816ZM103.729 90.2646C105.808 83.346 111.774 88.4188 103.393 91.8265C103.427 91.2867 103.558 90.7576 103.781 90.2646H103.729ZM67.0032 91.2714C66.8308 92.2071 66.567 93.1237 66.2155 94.0079C65.7377 93.8401 62.9613 94.8082 64.7176 96.4345C57.1116 99.3904 67.6102 77.0341 67.0549 91.2714H67.0032ZM90.8801 84.327C90.0602 85.3981 89.1438 86.3919 88.1424 87.2958C89.3305 85.592 91.2933 75.5755 94.5991 77.3697C93.8874 79.9239 92.637 82.2961 90.9317 84.327H90.8801Z" fill="white"/>
<path d="M131.13 76.1567C131.388 73.9882 126.223 73.175 127.889 77.7315C128.534 78.2994 125.913 80.4163 127.308 81.2037C128.134 80.9197 131.052 78.7383 131.13 76.1567V76.1567Z" fill="white"/>
<path d="M140.918 92.2134C138.955 91.4519 142.726 78.0149 135.391 87.4247C134.81 88.354 134.797 88.3411 133.648 90.1224C133.415 90.458 133.235 90.742 133.105 90.9743C132.535 91.1113 131.984 91.3195 131.465 91.5939C124.66 95.3113 142.339 105.16 140.918 92.2134V92.2134ZM136.527 96.3569C133.699 99.2998 132.008 93.3622 136.037 89.0381C135.882 90.4967 138.025 93.4526 136.527 96.3569Z" fill="white"/>
<path d="M61.3086 107.134C68.3076 105.534 74.067 106.463 72.8402 113.588C72.4012 121.526 73.925 125.205 71.7814 128.716C70.1026 130.51 61.838 130.149 61.3086 129.258V107.134ZM67.8815 125.915C69.9089 125.915 68.7467 120.365 69.0308 115.356C69.0308 110.761 69.8314 110.413 65.2343 110.477V125.967L67.8815 125.915Z" fill="white"/>
<path d="M85.6883 129.736C85.5752 129.743 85.464 129.705 85.3792 129.629C85.2944 129.554 85.243 129.449 85.2363 129.336L84.4228 125.128H79.2574L78.4697 129.336C78.4697 129.684 74.8152 130.381 74.5957 129.245C75.2672 128.819 78.5472 105.469 80.1614 106.682C83.2864 106.618 84.6294 106.566 84.4744 107.573C85.1847 110.865 89.1233 129.09 89.1491 129.245C89.3944 130.033 86.6439 129.658 85.6883 129.736V129.736ZM81.8143 111.665L79.9806 121.72H83.6609L81.8143 111.665Z" fill="white"/>
<path d="M101.494 106.683C103.198 106.115 96.4187 120.094 96.677 120.172C96.3412 123.373 98.459 132.834 92.803 129.207C92.803 129.207 92.803 120.469 92.803 120.172C92.6093 117.59 82.8338 102.978 91.5116 107.148L94.74 115.422L97.9425 107.135C97.9683 106.502 100.59 106.709 101.494 106.683V106.683Z" fill="white"/>
<path d="M34.6027 114.169C31.6068 120.313 22.1542 116.337 24.7368 109.664C27.7457 103.52 37.1853 107.495 34.6027 114.169Z" fill="#905AC6"/>
<path d="M48.8212 115.667C45.8252 121.811 36.4501 117.835 39.0328 111.162C41.9641 105.018 51.4038 108.993 48.8212 115.667Z" fill="#905AC6"/>
<path d="M56.052 124.896C54.1537 129.143 46.5736 126.987 48.4977 121.437C50.396 117.19 57.9761 119.346 56.052 124.896Z" fill="#905AC6"/>
<path d="M33.7754 124.316C31.8771 128.563 24.297 126.42 26.234 120.87C28.1193 116.61 35.7124 118.753 33.7754 124.316Z" fill="#905AC6"/>
<path d="M51.946 124.702C50.4093 123.411 49.5441 129.116 47.62 132.02C46.729 130.562 45.7605 129.142 44.7403 127.748C45.2181 114.84 42.4159 108.709 43.8235 126.457C41.4474 123.385 31.4266 114.608 30.626 111.742C28.4566 113.033 34.7712 118.558 39.4588 123.243C36.3932 122.353 33.2806 121.633 30.1353 121.087C27.7721 122.469 36.1788 122.998 40.7759 124.547C45.4743 129.529 48.9414 135.541 50.9 142.101C52.6433 140.811 49.7378 136.19 48.2528 133.066C49.1309 131.065 50.7967 127.916 51.946 124.702V124.702Z" fill="#30495D"/>
<path d="M127.837 114.169C130.846 120.313 140.285 116.337 137.703 109.664C134.707 103.52 125.267 107.495 127.837 114.169Z" fill="#905AC6"/>
<path d="M113.62 115.667C116.616 121.811 126.068 117.835 123.485 111.162C120.49 105.018 111.037 108.993 113.62 115.667Z" fill="#905AC6"/>
<path d="M106.402 124.896C108.3 129.143 115.88 126.987 113.943 121.437C112.058 117.19 104.464 119.346 106.402 124.896Z" fill="#905AC6"/>
<path d="M128.664 124.316C130.562 128.563 138.142 126.42 136.218 120.87C134.32 116.61 126.74 118.753 128.664 124.316Z" fill="#905AC6"/>
<path d="M110.521 124.702C112.071 123.411 112.936 129.116 114.847 132.02C115.738 130.562 116.72 129.142 117.74 127.748C117.262 114.84 120.064 108.709 118.644 126.457C121.02 123.385 131.041 114.608 131.854 111.742C134.024 113.033 127.709 118.558 123.022 123.243C125.023 122.417 129.272 121.797 132.332 121.087C134.695 122.469 126.289 122.998 121.704 124.547C117.006 129.529 113.539 135.541 111.58 142.101C109.837 140.811 112.743 136.19 114.163 133.066C113.324 131.065 111.645 127.916 110.521 124.702V124.702Z" fill="#30495D"/>
<path d="M56.3618 145.343L55.2513 144.697C53.4434 147.756 49.918 150.261 46.3152 152.248C46.9867 146.827 36.7335 144.504 32.924 144.917C35.9716 148.789 38.6834 152.326 43.5646 153.655C41.8472 154.443 40.375 155.204 37.547 156.327C36.4106 151.267 32.0588 149.112 26.9709 147.989C28.4965 152.159 31.7637 155.457 35.9199 157.024C34.1895 157.721 32.4075 158.315 30.5867 158.999C29.7344 154.339 23.0453 151.022 18.3706 151.022C21.1857 154.688 23.9879 157.721 28.1977 159.709C26.4157 160.277 24.5949 160.806 22.7354 161.297C22.4771 156.637 13.541 156.043 10.2739 155.553C13.3602 158.586 16.2657 161.077 20.6046 161.852C19.21 162.2 17.8154 162.536 16.3949 162.846C10.416 161.477 5.08275 165.053 0.240234 168.254C4.2563 170.203 15.8913 169.377 17.7895 163.852C19.4424 163.465 21.0824 163.091 22.6837 162.665C20.5272 166.537 21.6119 171.365 23.4068 175.082C25.9895 170.371 24.9565 166.679 23.6651 162.368C26.2478 161.671 28.7401 160.901 31.142 160.058C28.4818 164.291 30.3284 169.093 32.6787 173.094C34.8869 168.009 36.8755 163.84 32.8078 159.49C34.8481 158.758 36.8282 157.979 38.748 157.153C36.8755 160.522 38.9546 166.602 40.4783 169.403C42.17 166.111 44.3524 159.309 40.8399 156.263C42.8544 155.372 45.1917 154.288 47.4903 152.984C45.902 157.399 47.4257 162.02 48.6654 166.382C53.1593 163.091 56.2198 154.249 50.667 150.983C52.9434 149.527 54.8845 147.605 56.3618 145.343V145.343Z" fill="#30495D"/>
<path d="M106.078 145.343L107.202 144.697C108.997 147.756 112.522 150.261 116.138 152.248C115.453 146.827 125.719 144.504 129.516 144.917C126.481 148.789 123.757 152.326 118.888 153.655C120.593 154.443 122.065 155.204 124.906 156.327C126.042 151.267 130.381 149.112 135.482 147.989C133.952 152.16 130.68 155.459 126.52 157.024C128.263 157.721 130.032 158.315 131.853 158.999C132.718 154.391 139.395 151.1 144.031 151.125C141.228 154.791 138.413 157.825 134.203 159.812C135.986 160.38 137.819 160.909 139.666 161.4C139.924 156.74 148.86 156.146 152.127 155.656C149.041 158.689 146.135 161.181 141.797 161.955C143.191 162.303 144.586 162.639 146.019 162.949C151.998 161.581 157.318 165.156 162.161 168.357C158.145 170.306 146.523 169.48 144.612 163.956C142.972 163.568 141.332 163.194 139.73 162.768C141.874 166.641 140.789 171.468 139.007 175.185C136.425 170.474 137.445 166.783 138.736 162.471C136.153 161.774 133.665 161.004 131.272 160.161C133.932 164.395 132.086 169.196 129.723 173.198C127.514 168.112 125.539 163.943 129.593 159.593C127.566 158.857 125.577 158.083 123.666 157.257C125.539 160.625 123.46 166.705 121.923 169.506C120.244 166.215 118.049 159.412 121.574 156.366C119.56 155.475 117.209 154.391 114.911 153.087C116.512 157.502 114.988 162.123 113.736 166.486C109.242 163.194 106.181 154.352 111.734 151.087C109.464 149.593 107.536 147.635 106.078 145.343V145.343Z" fill="#30495D"/>
<path d="M118.656 149.86C128.483 144.994 118.088 129.905 107.512 139.805C101.83 128.291 88.9551 139.909 97.465 148.157L96.8064 147.666C83.3119 150.648 91.0729 167.17 100.68 158.496C101.339 169.777 106.698 166.447 112.225 161.839C122.775 162.433 128.134 156.185 118.656 149.86V149.86Z" fill="#A0C3EA"/>
<path d="M111.037 150.416C110.895 155.811 102.747 156.25 102.295 150.416C102.421 148.095 104.341 146.277 106.666 146.277C108.991 146.277 110.911 148.095 111.037 150.416V150.416Z" fill="#30495D"/>
<path d="M105.796 147.331C105.266 146.827 101.676 141.483 104.104 142.038C103.833 142.464 107.126 145.859 105.796 147.331Z" fill="#30495D"/>
<path d="M104.89 149.24C103.237 148.117 102.424 146.659 99.8539 144.503C99.8539 144.503 99.2728 143.419 100.538 143.69C101.119 144.774 106.181 147.356 104.89 149.24Z" fill="#30495D"/>
<path d="M98.3312 152.183C95.7485 151.822 104.788 148.091 103.819 150.505C102.077 151.221 100.275 151.783 98.4345 152.183H98.3312Z" fill="#30495D"/>
<path d="M99.1958 155.577C97.517 154.48 102.708 151.976 104.891 151.137C106.401 152.311 101.378 153.602 99.1958 155.577Z" fill="#30495D"/>
<path d="M106.492 160.612C105.472 159.115 105.782 155.449 106.247 151.913C107.564 151.022 107.474 158.134 106.492 160.612Z" fill="#30495D"/>
<path d="M110.922 158.262C110.199 157.307 108.107 154.209 108.262 151.809C109.295 152.312 111.775 156.184 110.922 158.262Z" fill="#30495D"/>
<path d="M115.441 153.603C114.602 152.518 107.964 152.183 109.695 150.453C110.056 150.75 116.849 151.615 115.441 153.603Z" fill="#30495D"/>
<path d="M109.359 150.015C108.067 148.918 110.65 147.808 112.703 146.646C114.537 147.15 111.063 148.789 109.359 150.015Z" fill="#30495D"/>
<path d="M108.325 148.44C107.034 147.511 109.462 145.033 110.185 142.735C112.122 141.741 109.926 146.917 108.325 148.44Z" fill="#30495D"/>
<path d="M107.19 147.936C106.375 146.194 106.496 144.159 107.513 142.527C108.171 143.276 108.352 146.348 107.19 147.936Z" fill="#30495D"/>
<path d="M104.736 141.87C104.736 143.909 100.643 142.244 103.626 140.76C103.974 140.811 104.31 140.863 104.736 141.87Z" fill="#30495D"/>
<path d="M101.341 144.102C101.341 146.142 97.247 144.477 100.243 142.992C100.592 143.044 100.927 143.095 101.341 144.102Z" fill="#30495D"/>
<path d="M99.4284 151.654C99.4284 153.693 95.3349 152.028 98.3308 150.557C98.6794 150.608 99.0152 150.647 99.4284 151.654Z" fill="#30495D"/>
<path d="M100.242 155.05C100.242 157.089 96.1485 155.424 99.1315 153.939C99.4802 153.991 99.8159 154.043 100.242 155.05Z" fill="#30495D"/>
<path d="M107.474 160.509C107.474 162.549 103.393 160.897 106.376 159.412C106.712 159.464 107.047 159.515 107.474 160.509Z" fill="#30495D"/>
<path d="M112.148 157.734C112.148 159.773 108.055 158.108 111.038 156.637C111.348 156.688 111.722 156.727 112.148 157.734Z" fill="#30495D"/>
<path d="M116.514 153.345C116.514 155.385 112.42 153.72 115.403 152.248C115.79 152.313 116.126 152.313 116.514 153.345Z" fill="#30495D"/>
<path d="M114.355 146.789C114.355 148.828 110.262 147.163 113.245 145.691C113.593 145.743 113.929 145.782 114.355 146.789Z" fill="#30495D"/>
<path d="M112.148 142.619C112.148 144.658 108.055 143.006 111.038 141.521C111.348 141.573 111.722 141.612 112.148 142.619Z" fill="#30495D"/>
<path d="M108.57 142.619C108.57 144.671 104.477 142.993 107.46 141.521C107.821 141.573 108.144 141.625 108.57 142.619Z" fill="#30495D"/>
<path d="M43.7963 149.86C33.9563 144.994 44.3645 129.905 54.9277 139.805C60.6096 128.291 73.4842 139.909 64.9872 148.157L65.6329 147.666C79.1403 150.648 71.3664 167.17 61.7589 158.496C61.1003 169.777 55.7283 166.447 50.2143 161.839C39.664 162.433 34.2663 156.185 43.7963 149.86V149.86Z" fill="#A0C3EA"/>
<path d="M51.4023 150.416C51.5444 155.811 59.6927 156.25 60.1447 150.416C60.0185 148.095 58.0989 146.277 55.7735 146.277C53.4482 146.277 51.5286 148.095 51.4023 150.416Z" fill="#30495D"/>
<path d="M56.6469 147.331C57.1892 146.827 60.7662 141.483 58.3514 142.038C58.6226 142.464 55.3168 145.859 56.6469 147.331Z" fill="#30495D"/>
<path d="M57.5117 149.24C59.1775 148.117 59.9781 146.659 62.5479 144.503C62.5479 144.503 63.129 143.419 61.8635 143.69C61.334 144.774 56.3236 147.356 57.5117 149.24Z" fill="#30495D"/>
<path d="M64.1235 152.183C66.6287 151.822 57.6668 148.091 58.6224 150.505C60.3776 151.222 62.1925 151.784 64.0461 152.183H64.1235Z" fill="#30495D"/>
<path d="M63.2446 155.577C64.9362 154.48 59.7321 151.976 57.5498 151.137C56.0518 152.311 61.0751 153.602 63.2446 155.577Z" fill="#30495D"/>
<path d="M55.9491 160.612C56.9693 159.115 56.6723 155.449 56.1945 151.913C54.8902 151.022 55.0065 158.134 55.9491 160.612Z" fill="#30495D"/>
<path d="M51.5184 158.262C52.2416 157.307 54.3464 154.209 54.1915 151.809C53.1584 152.312 50.6532 156.184 51.5184 158.262Z" fill="#30495D"/>
<path d="M47.0003 153.603C47.8397 152.518 54.4901 152.183 52.7468 150.453C52.3852 150.75 45.5928 151.615 47.0003 153.603Z" fill="#30495D"/>
<path d="M53.0813 150.015C54.3727 148.918 51.79 147.808 49.7367 146.646C47.903 147.15 51.3767 148.789 53.0813 150.015Z" fill="#30495D"/>
<path d="M54.128 148.44C55.3418 147.511 52.9787 145.033 52.2685 142.735C50.3185 141.741 52.5267 146.917 54.128 148.44Z" fill="#30495D"/>
<path d="M55.2504 147.936C56.0801 146.197 55.9582 144.155 54.9276 142.527C54.2819 143.276 54.0882 146.348 55.2504 147.936Z" fill="#30495D"/>
<path d="M57.7168 141.87C57.7168 143.909 61.8103 142.244 58.8144 140.76C58.4658 140.811 58.13 140.863 57.7168 141.87Z" fill="#30495D"/>
<path d="M61.1016 144.102C61.1016 146.142 65.1951 144.477 62.2121 142.992C61.8635 143.044 61.5277 143.095 61.1016 144.102Z" fill="#30495D"/>
<path d="M63.0117 151.654C63.0117 153.693 67.1053 152.028 64.1223 150.557C63.7736 150.608 63.4379 150.647 63.0117 151.654Z" fill="#30495D"/>
<path d="M62.2754 155.048C62.2754 157.087 66.356 155.422 63.373 153.938C62.9598 153.989 62.6241 154.041 62.2754 155.048V155.048Z" fill="#30495D"/>
<path d="M54.9805 160.509C54.9805 162.549 59.074 160.897 56.091 159.412C55.7294 159.464 55.4066 159.515 54.9805 160.509Z" fill="#30495D"/>
<path d="M50.3047 157.734C50.3047 159.773 54.3853 158.108 51.4023 156.637C51.0537 156.688 50.7179 156.727 50.3047 157.734Z" fill="#30495D"/>
<path d="M45.9023 153.345C45.9023 155.385 49.983 153.72 47 152.248C46.6513 152.313 46.3156 152.313 45.9023 153.345Z" fill="#30495D"/>
<path d="M48.0723 146.787C48.0723 148.826 52.1658 147.161 49.1699 145.689C48.8471 145.741 48.5113 145.78 48.0723 146.787Z" fill="#30495D"/>
<path d="M50.3047 142.619C50.3047 144.658 54.3853 143.006 51.4023 141.521C51.0537 141.573 50.7179 141.612 50.3047 142.619Z" fill="#30495D"/>
<path d="M53.8828 142.619C53.8828 144.671 57.9764 142.993 54.9804 141.521C54.6318 141.573 54.296 141.625 53.8828 142.619Z" fill="#30495D"/>
<path d="M82.2656 180.426C86.23 178.967 83.557 172.113 82.2656 169.764C98.0587 182.672 100.758 167.776 85.5069 163.065L87.1211 163.581C105.678 167.273 105.084 154.545 87.8184 158.031C103.314 147.975 92.3252 139.495 85.8943 153.384C93.397 136.074 75.5636 134.642 78.2237 151.861C71.3926 135.816 58.2467 148.221 72.7226 155.733C55.8061 153.151 59.3831 169.377 73.4329 164.872C59.5122 175.972 72.2319 182.943 78.8048 170.177C77.9913 173.301 76.3255 182.607 82.2656 180.426V180.426Z" fill="#905AC6"/>
<path d="M85.3143 161.154C87.3288 154.881 76.8302 152.841 75.8488 159.695C75.0998 164.859 83.713 166.395 85.3143 161.154Z" fill="#FF6D92"/>
</svg>
