<svg width="174" height="172" viewBox="0 0 174 172" fill="none" xmlns="http://www.w3.org/2000/svg">
<path d="M173.332 85.9991C167.806 202.044 4.176 199.145 0 85.9991C5.568 -30.1009 169.17 -27.2019 173.332 85.9991Z" fill="#FEFEFE"/>
<path d="M69.3776 68.549C68.9878 70.8238 66.3291 79.0355 73.5536 72.0584C73.832 72.7658 73.5536 72.1971 74.3192 74.0697C73.303 75.4568 62.5985 82.4893 66.4961 68.8264C65.2573 68.9651 63.8653 69.1177 61.304 69.3674C61.1091 69.8529 60.775 71.2677 59.3273 75.1238C59.0705 75.7032 58.728 76.2409 58.3112 76.719C58.1024 77.1074 55.8752 77.4819 56.1814 75.748C56.4287 74.6701 56.7591 73.6127 57.1697 72.5855C57.5595 71.5313 57.9075 70.5326 58.1998 69.5755C57.4064 69.3535 55.736 69.8945 54.7894 67.5364C54.5945 66.8845 54.7894 65.858 56.0561 67.3284H59.0489C59.7032 64.6235 64.6169 56.0651 54.5667 61.8632C53.8568 57.4245 67.6097 52.6529 61.9861 67.2313L67.0112 66.94C68.2083 65.858 67.8325 58.2568 71.9528 58.7838C72.8158 61.2113 71.563 61.128 69.9761 66.8429C70.6899 66.7156 71.4102 66.6276 72.1337 66.5793C72.8854 66.3158 73.9712 68.0358 72.1337 68.1745L71.4795 68.2439H70.7278C70.5329 68.3826 70.5608 68.3826 69.3776 68.549V68.549Z" fill="#606593"/>
<path d="M85.1488 73.6254C84.3832 74.2774 81.4322 78.6883 79.5112 74.5409C71.897 81.8093 71.6743 63.569 81.3765 66.787C84.1605 65.9686 77.7155 79.2709 84.6616 71.3783L85.1488 73.6254ZM76.3235 72.8209C76.3235 74.8461 78.3837 74.7628 78.8987 71.309L79.6643 67.9799C78.1749 68.2574 76.5602 69.8525 76.3235 72.8209Z" fill="#606593"/>
<path d="M88.6288 74.208C89.2134 73.8751 91.023 74.9571 94.336 71.7113L94.4474 73.9861C92.7904 76.0048 89.9992 76.6987 87.5848 75.6922C88.8794 86.0954 76.0173 88.0513 84.8008 73.348C85.3437 71.7667 84.9957 64.9284 90.4384 66.1767C92.3733 66.9951 94.0994 71.5725 88.5174 73.9861L88.6288 74.208ZM83.6454 80.658C84.8426 83.9593 85.1488 78.4387 85.121 75.9419C84.3771 77.4244 83.8789 79.017 83.6454 80.658ZM87.3342 73.1954C87.7139 73.0193 88.0694 72.7956 88.3922 72.5296C88.6748 72.299 88.9315 72.0386 89.1578 71.7529C89.2552 71.7529 89.464 71.4338 89.7981 70.8374C91.5938 67.9661 87.543 65.4416 87.3342 73.1954V73.1954Z" fill="#606593"/>
<path d="M97.4403 74.208C98.025 73.8751 99.8346 74.9571 103.148 71.7113L103.259 73.9861C101.599 76.0008 98.8111 76.6939 96.3963 75.6922C97.6909 86.0954 84.8288 88.0513 93.6123 73.348C94.1552 71.7667 93.8072 64.9284 99.1803 66.1767C101.296 66.9951 103.008 71.5725 97.4403 73.9861V74.208ZM92.457 80.658C93.6541 83.9593 93.9603 78.4387 93.9325 75.9419C93.2079 77.4277 92.7285 79.0202 92.5126 80.658H92.457ZM96.1318 73.1954C96.5176 73.0227 96.8782 72.7987 97.2037 72.5296C97.4863 72.299 97.743 72.0386 97.9693 71.7529C98.0528 71.7529 98.2755 71.4338 98.6096 70.8374C100.461 67.9661 96.4102 65.4416 96.1875 73.1954H96.1318Z" fill="#606593"/>
<path d="M106.084 76.2893L106.307 75.0548C100.655 80.9083 99.5277 63.958 105.235 66.5657C104.664 67.2177 102.618 80.2287 106.627 71.2541C106.836 70.0335 107.796 63.6806 110.093 66.7738C109.801 68.4799 109.355 70.7964 108.701 75.0964C110.205 74.114 111.466 72.8051 112.39 71.268L112.891 73.5567C112.173 74.5484 111.282 75.4035 110.26 76.0812C108.897 76.645 108.081 78.0486 108.27 79.5074V80.0899C109.522 86.4151 96.6881 88.5651 103.913 78.578C104.577 77.7615 105.303 76.9964 106.084 76.2893V76.2893ZM106.084 78.7583C104.692 79.9652 103.766 81.6185 103.467 83.4328C105.012 84.6951 105.889 81.4493 106.112 78.8138L106.084 78.7583Z" fill="#606593"/>
<path d="M30.2344 103.518C24.6664 107.277 29.4967 99.1486 29.1765 90.6319C29.1765 89.2448 27.7845 89.7719 26.1141 91.9357C25.9471 92.4074 25.1676 92.1438 25.3903 91.3116C26.6988 85.999 34.2156 83.6825 30.4432 96.6657C30.304 92.338 40.3543 78.7167 39.004 93.3367H39.2268C40.0063 87.178 49.4997 81.8238 46.9106 95.2093C47.4674 94.918 43.4863 105.127 48.3026 101.299C48.8983 100.667 49.4255 99.9739 49.8756 99.2319C49.8756 99.2319 49.8756 99.3151 49.973 99.4538C50.2236 100.092 50.14 99.8561 50.669 101.257C50.2653 103.227 43.4584 107.554 43.2914 101.146C46.7992 90.3406 42.6093 80.728 38.2802 103.504C38.1549 104.433 35.7328 105.46 35.7328 103.074C38.7674 90.507 36.9439 79.7987 30.2344 103.518V103.518Z" fill="#606593"/>
<path d="M55.5127 96.623C58.5334 99.744 50.7521 111.049 48.5527 100.049C48.6363 94.9308 54.4131 91.1718 59.4799 98.3153L59.2851 99.7024C58.205 98.4677 56.9699 97.3768 55.6102 96.4566L55.5127 96.623ZM52.339 102.56C53.731 103.6 55.7633 92.8501 51.462 97.705C51.0197 98.5611 50.8087 99.5171 50.8495 100.479C51.0027 100.84 50.6268 102.421 52.339 102.56V102.56Z" fill="#606593"/>
<path d="M66.6079 102.228C62.0004 105.765 57.2676 105.529 58.59 95.0152C56.9474 95.0152 52.7297 93.2119 58.8684 93.3645C58.3255 87.2752 68.7516 81.0748 63.1418 93.6142C68.9047 93.1703 66.2877 96.1526 62.0004 95.3481C61.7916 95.6116 61.7777 95.6671 60.8311 96.86C60.5945 99.7729 59.9402 105.751 66.6079 99.6342V102.228ZM63.3228 89.2587C62.8495 87.6219 61.8612 88.4403 60.8172 93.42H61.4436C62.3073 92.1519 62.9432 90.7439 63.3228 89.2587V89.2587Z" fill="#606593"/>
<path d="M69.3637 98.2749C81.7386 84.0155 67.4845 109.177 76.9223 99.759L77.1032 102.533C74.18 105.626 67.9021 105.307 71.925 97.7755H71.7162C70.7975 96.749 68.1109 106.098 65.8698 103.934C65.7445 102.547 64.7979 81.9765 73.0386 85.5413C74.18 89.1894 71.6466 93.3368 69.1549 98.1916L69.3637 98.2749ZM70.2824 91.8249C71.6744 89.3419 71.5352 84.0987 69.1827 90.2158C68.7499 91.7405 68.4518 93.3 68.2919 94.8765C68.1387 95.681 68.0274 96.4716 67.9439 97.2484C68.2083 96.7352 68.6677 95.7087 70.2824 91.8249Z" fill="#606593"/>
<path d="M80.3464 104.53C75.4465 105.155 74.9036 93.3504 81.9472 94.571C82.6432 95.1952 84.4249 95.6114 83.1721 98.3439C82.5318 98.8017 83.0747 99.953 79.2049 101.326C80.402 102.963 82.142 102.353 85.3436 99.8004L86.666 101.187C85.2044 102.353 83.8681 104.281 80.3464 104.53V104.53ZM78.9544 99.6478C79.5947 100.272 83.9099 96.2494 80.3464 96.5268C79.409 97.285 78.8959 98.4469 78.9683 99.6478H78.9544Z" fill="#606593"/>
<path d="M84.6475 102.394C84.752 99.9075 85.1825 97.4453 85.9281 95.0701C87.1391 93.683 88.1135 94.1407 87.6124 97.5946H87.6959C87.4315 97.1646 91.2038 91.7411 91.5796 95.8191C91.4265 97.012 89.951 101.673 94.8508 97.9414L94.6977 100.341C92.9855 101.617 89.2689 102.879 89.1297 98.0385H88.9627C88.2249 99.3978 86.1647 108.983 84.6475 102.394V102.394Z" fill="#606593"/>
<path d="M93.8486 91.3802C93.9322 89.4799 93.8486 90.1596 94.1688 86.8167C95.9784 83.9454 98.8042 85.6238 95.8114 91.408C95.7974 91.6854 94.2523 93.5441 93.8486 91.3802Z" fill="#606593"/>
<path d="M99.8065 100.661C101.503 99.0748 103.007 97.2965 104.289 95.3623C105.277 93.6146 109.216 94.2249 105.945 97.3459C106.043 98.9965 106.711 99.1491 106.405 101.993C107.254 101.396 108.061 101.341 110.024 99.9953V102.326C110.024 102.145 102.41 107.597 100.141 102.672C98.8321 103.13 98.1501 101.674 99.8065 100.661V100.661ZM101.087 102.048C102.883 104.018 104.873 102.7 103.871 99.0659L101.087 102.048Z" fill="#606593"/>
<path d="M118.864 86.7336C132.408 84.542 129.276 110.037 114.91 104.627L114.701 104.53C114.632 104.086 113.616 87.982 119.615 91.1168C118.502 93.0549 117.837 95.2156 117.666 97.442C114.033 117.902 138.797 82.0452 114.451 90.881C111.75 97.3588 108.799 87.1359 118.864 86.7336V86.7336Z" fill="#606593"/>
<path d="M139.771 101.993C139.005 102.631 136.054 107.056 134.203 102.894C126.588 110.163 126.366 91.9364 136.068 95.1545C138.852 94.3361 132.407 107.638 139.353 99.7319L139.771 101.993ZM130.945 101.258C130.945 103.269 133.006 103.186 133.521 99.7458L134.286 96.4167C132.797 96.6248 131.224 98.2061 130.945 101.258Z" fill="#606593"/>
<path d="M142.973 104.696L143.195 103.462C137.544 109.329 136.416 92.3648 142.124 94.9725C141.553 95.6384 139.521 108.649 143.516 99.6748C143.724 98.4403 144.671 92.1013 146.968 95.1806C146.689 96.9006 146.23 99.2032 145.576 103.503C147.073 102.519 148.333 101.216 149.265 99.6887L149.752 101.964C149.05 102.968 148.162 103.83 147.135 104.502C145.772 105.066 144.956 106.469 145.144 107.928C145.131 108.117 145.131 108.307 145.144 108.497C146.397 114.822 133.549 116.986 140.787 106.985C141.456 106.168 142.187 105.402 142.973 104.696V104.696ZM142.973 107.179C141.574 108.376 140.642 110.026 140.342 111.84C141.901 113.06 142.792 109.814 143.015 107.179H142.973Z" fill="#606593"/>
<path d="M60.6074 125.226C62.9548 126.826 65.5124 128.096 68.2077 128.999C59.0901 131.052 70.8665 137.322 74.7084 130.692C77.8404 131.256 81.0078 131.603 84.1879 131.732C75.7245 138.667 92.0527 135.311 93.4586 131.649C96.7437 131.413 100.516 131.038 105.054 130.262C93.3194 135.63 107.991 137.793 109.133 129.79C109.327 129.679 109.369 129.79 109.634 129.415C124.486 124.713 118.459 125.629 109.453 128.347C103.272 120.136 91.5933 124.186 103.704 129.346C99.9491 129.83 96.1716 130.117 92.3868 130.206C90.4241 124.991 78.0631 123.409 86.61 130.206C82.8242 130.121 79.0523 129.717 75.3348 128.999C76.9913 123.104 62.4866 117.001 69.9477 127.612C68.2913 127.876 61.3869 122.716 60.6074 125.226V125.226ZM105.277 131.565C106.251 131.149 107.225 130.705 108.2 130.275C107.08 132.01 105.445 133.353 103.523 134.118C102.715 134.617 102.423 134.118 102.632 132.731L103.203 132.481C103.865 132.114 104.559 131.807 105.277 131.565V131.565ZM105.11 128.444C97.4119 126.516 99.7505 121.412 107.406 128.777C106.634 128.722 105.866 128.611 105.11 128.444ZM91.4541 132.051C89.7465 133.135 87.8623 133.914 85.8861 134.353C85.6606 134.537 85.3582 134.597 85.0792 134.514C84.8002 134.43 84.581 134.214 84.4941 133.937C83.5893 133.41 83.7564 133.091 84.9953 133.008C87.0833 132.425 89.3383 132.439 91.4541 132.051V132.051ZM86.4569 128.292C85.9807 127.881 85.5555 127.416 85.1901 126.905C86.9719 126.35 88.9764 128.736 90.3823 130.234H90.2988C88.875 129.918 87.5539 129.25 86.4569 128.292ZM66.9689 131.995C65.73 130.303 68.7785 130.456 73.1911 130.608C71.5346 131.912 68.8202 133.272 66.9689 131.995ZM69.3353 123.881C71.117 122.882 73.4277 125.795 73.6783 128.611C71.8593 127.418 70.3668 125.792 69.3353 123.881Z" fill="#BD9AB4"/>
<path d="M54.2878 120.677C46.8267 121.177 53.6892 128.875 59.995 125.352C66.8993 123.521 52.3668 110.246 54.2878 120.677Z" fill="#F7D7BA"/>
<path d="M108.283 47.0503C105.931 45.435 103.363 44.1558 100.655 43.2496C109.759 41.1829 97.9963 34.927 94.1544 41.5435C91.0231 40.9771 87.8552 40.634 84.6749 40.517C93.1244 33.4983 76.8101 36.9245 75.3903 40.6003C71.5035 40.8605 67.6331 41.3235 63.7949 41.9874C75.5434 36.6193 60.8717 34.4416 59.7303 42.4451C59.5354 42.5561 59.4936 42.4451 59.2291 42.8335C44.3626 47.5219 50.4039 46.6064 59.3962 43.9016C65.5767 52.0993 77.2695 48.0629 65.1591 42.9029C68.9127 42.4071 72.6906 42.1154 76.476 42.029C78.4248 47.2583 90.7997 48.8258 82.2528 42.029C86.0484 42.1161 89.8297 42.5244 93.5559 43.2496C91.9133 49.1587 106.404 55.2619 98.9568 44.6367C100.599 44.387 107.518 49.5609 108.283 47.0503V47.0503ZM63.6279 40.7112L60.7047 42.0012C61.833 40.2611 63.4847 38.921 65.4236 38.1729C66.2309 37.6735 66.5232 38.1729 66.3005 39.56L65.7298 39.8235C65.0596 40.1864 64.3556 40.4837 63.6279 40.7112V40.7112ZM63.781 43.8461C71.4787 45.7741 69.1541 50.8648 61.4981 43.4993C62.2666 43.5585 63.0297 43.6744 63.781 43.8461ZM77.4504 40.2258C79.1581 39.1449 81.0426 38.3703 83.0184 37.937C83.2421 37.753 83.5426 37.691 83.8211 37.7715C84.0997 37.852 84.3203 38.0646 84.4104 38.3393C85.3013 38.8803 85.1343 39.1854 83.9093 39.2825C81.8213 39.8651 79.5523 39.8512 77.4504 40.2258ZM82.4338 43.9987C82.9146 44.4043 83.3404 44.8706 83.7005 45.3858C81.9187 45.9545 79.9282 43.5548 78.5223 42.0567H78.5919C80.0167 42.37 81.3385 43.0381 82.4338 43.9987ZM101.922 40.2812C103.161 41.9735 100.112 41.8209 95.6856 41.6683C97.4396 40.3645 100.084 39.0051 101.936 40.2258L101.922 40.2812ZM99.5415 48.3958C97.7597 49.3945 95.449 46.4816 95.2123 43.6658C96.2981 44.387 98.8315 46.3706 99.5554 48.3958H99.5415Z" fill="#BD9AB4"/>
<path d="M114.561 51.6685C122.022 51.183 115.146 43.4846 108.84 47.0078C102.005 48.7556 116.524 62.044 114.561 51.6685V51.6685Z" fill="#F7D7BA"/>
<path d="M108.172 16.1445C108.979 16.5745 110.58 17.0323 112.71 17.8507C111.902 17.4207 110.302 16.9629 108.172 16.1445Z" fill="#F7D7BA"/>
<path d="M90.3266 11.1648C58.589 1.38575 13.3072 42.0832 14.6574 69.3535C26.5869 30.057 51.3923 18.5303 86.3037 13.5367C88.0437 13.0928 92.2058 13.8696 90.3266 11.1648V11.1648Z" fill="#F7D7BA"/>
<path d="M137.641 34.0529C128.273 17.7823 94.9068 8.84936 119.712 23.9965C124 24.9674 137.321 40.7248 137.641 34.0529Z" fill="#F7D7BA"/>
<path d="M148.443 45.2188C144.434 45.2188 146.271 53.1113 150.614 48.95C151.491 47.2578 150.851 45.9678 148.443 45.2188Z" fill="#F7D7BA"/>
<path d="M155.792 61.558C148.985 58.5618 158.799 83.488 158.451 86.8447C163.393 97.456 156.683 108.331 157.059 118.068C168.432 109.898 162.544 68.216 155.792 61.558V61.558Z" fill="#F7D7BA"/>
<path d="M138.922 135.602C85.6223 179.989 26.0447 154.854 11.373 92.6016C11.7489 115.392 28.077 139.43 47.6764 151.137C100.517 181.154 160.303 132.481 138.922 135.602Z" fill="#F7D7BA"/>
<path d="M149.055 127.876C147.663 127.654 146.619 129.666 147.955 131.067C150.155 132.662 151.95 128.514 149.055 127.876V127.876Z" fill="#F7D7BA"/>
<path d="M13.1681 80.3255C12.2988 79.7879 11.194 79.8076 10.3446 80.3759C9.49511 80.9442 9.05853 81.9556 9.22875 82.961C9.89691 86.3039 16.3975 83.8764 13.1681 80.3255V80.3255Z" fill="#F7D7BA"/>
</svg>
