<svg width="211" height="166" viewBox="0 0 211 166" fill="none" xmlns="http://www.w3.org/2000/svg">
<path fill-rule="evenodd" clip-rule="evenodd" d="M81.3196 13.8266C92.0796 11.4666 85.1686 11.6346 78.8276 13.3716C79.8126 6.59158 74.5545 -0.628419 72.5865 0.0435811C74.1555 3.57258 76.6776 10.7526 75.4336 15.0496C72.6606 16.8946 70.7845 18.7076 67.3655 21.4186C69.7265 13.5916 66.6246 0.744581 61.8516 0.868581C66.1666 8.41358 65.0116 18.4696 62.3686 25.2216C38.6316 41.0786 38.0296 10.4256 55.1606 17.3056C35.6946 7.66558 37.8806 45.6436 61.7846 27.6386C60.7286 30.4986 61.6905 39.9736 64.7005 39.5096C65.3025 34.8036 65.3745 27.1396 66.8805 23.7406C69.3585 21.7596 71.7626 19.4366 75.0796 16.9866C73.2426 23.6716 69.3106 36.2406 75.4346 38.6846C75.8036 28.9046 77.6356 24.8486 78.7576 14.8686C79.5546 14.4946 80.3916 14.1376 81.3196 13.8266" fill="#232323"/>
<path fill-rule="evenodd" clip-rule="evenodd" d="M113.691 28.7447C112.333 37.7827 105.465 37.6707 108.552 30.9597C109.153 29.6547 111.821 26.9177 114.008 24.8007C113.992 26.2777 113.846 27.7127 113.691 28.7447V28.7447ZM117.676 28.5677C118.08 26.1477 117.768 23.8687 117.045 21.9517L117.047 21.9487L117.041 21.9407C112.602 12.0487 106.938 18.0737 105.564 22.0997C106.603 18.0327 106.241 13.9077 101.928 17.3717C100.818 21.9337 101.812 23.1507 101.378 29.6607C97.3857 34.7847 93.5537 38.0847 95.9017 29.8447C97.3457 25.1727 98.8367 23.7267 93.9687 22.0887C92.6627 22.0777 92.5127 22.0457 92.2097 23.8127C83.5257 49.3337 78.2167 18.9347 93.2647 19.9717C77.6137 10.1777 72.5097 49.2417 91.2637 31.1657C92.9237 37.2947 96.5667 38.6317 101.275 32.0707C101.007 44.2507 98.0197 54.5367 91.6897 58.2917C104.44 58.0897 103.503 42.8707 105.226 28.5107C106.422 19.8227 112.37 13.7017 113.927 22.6907C94.6067 39.6627 115.861 44.6297 117.676 28.5677" fill="#232323"/>
<path fill-rule="evenodd" clip-rule="evenodd" d="M132.89 27.6199C131.532 36.6579 124.663 36.5459 127.751 29.8349C128.352 28.5299 131.019 25.7929 133.207 23.6749C133.19 25.1529 133.044 26.5879 132.89 27.6199ZM136.874 27.4429C137.279 25.0229 136.967 22.7439 136.243 20.8269L136.246 20.8239L136.239 20.8159C129.108 6.88186 123.936 24.1609 124.899 20.0889C126.994 10.8659 119.35 15.7799 120.67 19.9109C120.901 32.8099 120.375 49.9369 111.518 57.1849C123.807 56.1699 122.64 41.5819 124.424 27.3859C125.619 18.7069 131.568 12.5709 133.125 21.5659C113.805 38.5379 135.06 43.5049 136.874 27.4429" fill="#232323"/>
<path fill-rule="evenodd" clip-rule="evenodd" d="M137.108 54.8718C122.003 51.5138 139.584 34.1788 149.61 36.5488C146.726 47.9428 142.283 54.8168 137.108 54.8718ZM158.011 36.8448C156.732 36.3758 155.38 36.0238 153.998 35.7678C155.781 30.1278 158.677 11.5088 151.311 18.1958C151.006 22.9008 150.36 33.9318 143.244 32.4148C140.943 31.5318 142.71 26.7448 143.288 21.8998C144.391 16.1498 138.058 13.1088 138.681 21.9238C135.787 34.2338 141.968 37.8678 150.586 30.8808C151.394 29.7878 150.332 33.0008 149.907 35.3228C107.952 39.6388 142.626 81.2488 153.728 36.8568C154.978 37.2468 164.441 40.2658 158.011 36.8448" fill="#232323"/>
<path fill-rule="evenodd" clip-rule="evenodd" d="M106.264 163.36C91.3297 160.04 108.712 142.902 118.624 145.245C115.774 156.509 111.38 163.305 106.264 163.36ZM126.931 145.537C125.665 145.073 124.329 144.725 122.963 144.472C124.744 138.898 127.559 120.437 120.305 127.118C120.434 132.734 117.71 144.878 111.491 140.384C110.407 138.231 112.468 133.262 112.49 128.68C107.669 117.872 107.43 135.039 107.237 137.328C104.71 140.582 100.762 143.786 102.59 137.288C104.005 132.57 105.542 130.813 100.668 129.589C99.2887 129.739 99.8337 130.217 99.1827 132.285C90.9397 153.438 87.6927 126.32 100.413 127.737C86.3077 119.014 81.8467 153.974 98.6177 137.782C99.7847 142.718 103.329 144.55 107.338 139.495C113.544 150.467 122.892 132.317 118.918 144.032C77.4387 148.299 111.719 189.438 122.697 145.549C123.932 145.935 133.287 148.919 126.931 145.537" fill="#232323"/>
<path fill-rule="evenodd" clip-rule="evenodd" d="M79.0249 140.603C75.1539 140.535 78.6829 126.753 77.3739 116.635C77.1209 114.682 78.4169 113.369 80.7239 110.339C81.6369 109.142 83.0499 107.353 85.2389 107.945C93.4459 110.168 81.8799 140.654 79.0249 140.603ZM85.2389 106.69C81.2539 106.627 78.4019 111.31 77.2899 111.837C77.2919 108.246 74.3909 103.496 71.6719 105.322C76.8679 127.532 69.4969 143.381 77.4309 142.997C83.5569 142.99 96.7459 106.736 85.2389 106.69" fill="#232323"/>
<path fill-rule="evenodd" clip-rule="evenodd" d="M54.9635 127.265C54.0715 124.913 53.4295 121.732 55.3705 118.681C61.7115 107.946 43.6415 108.508 49.0565 118.301C49.4305 117.965 49.8045 117.629 50.1785 117.292C46.7385 112.085 37.2905 117.902 42.9215 122.439C47.1445 124.445 52.2475 123.144 55.0165 127.925C55.3145 127.767 55.0535 127.252 54.5805 126.139C52.1075 121.781 46.7665 123.046 43.0435 120.592C41.3175 116.143 47.4575 116.048 49.7305 118.559C50.8925 116.969 47.9835 112.29 52.5235 112.029C59.9035 113.075 48.7835 124.96 54.9635 127.265" fill="#75D5C7"/>
<path fill-rule="evenodd" clip-rule="evenodd" d="M173.065 22.9784C174.15 20.6814 175.773 18.0814 178.981 17.0594C196.628 12.2954 174.877 -0.429554 176.305 12.2674C182.164 3.11345 159.023 1.28645 171.035 15.6234C172.34 17.7264 173.035 19.4464 172.887 22.2524C172.667 23.1524 172.415 24.4944 173.364 22.6154C175.934 17.1414 169.659 13.0514 169.258 8.06445C170.913 4.38145 176.46 7.82045 175.605 11.4214C176.159 11.4584 176.711 11.4964 177.264 11.5334C178.192 6.32145 186.734 8.36245 183.315 13.7654C179.893 15.8504 171.123 18.4014 173.065 22.9784" fill="#75D5C7"/>
<path fill-rule="evenodd" clip-rule="evenodd" d="M153.618 145.905C155.012 142.015 157.524 137.854 162.184 136.22C183.646 129.723 159.86 110.183 155.973 128.493C156.797 128.481 157.619 128.469 158.442 128.457C159.532 119.762 145.859 115 143.592 124.591C143.867 131.134 151.294 134.753 152.847 141.101C153.397 142.882 153.291 144.504 152.972 146.776C153.379 146.988 153.618 146.231 154.18 144.789C158.053 134.846 137.033 123.202 151.04 121.686C157.612 122.658 154.069 129.843 157.713 129.515C160.925 119.855 171.139 122.719 167.837 130.65C163.025 134.428 150.099 139.199 153.618 145.905Z" fill="#75D5C7"/>
<path fill-rule="evenodd" clip-rule="evenodd" d="M176.916 84.6671C185.275 85.7941 199.258 83.9481 202.478 76.8281C191.734 84.5131 184.108 82.1821 176.916 84.6671Z" fill="#FFB0D3"/>
<path fill-rule="evenodd" clip-rule="evenodd" d="M202.114 77.4628C203.591 74.6988 205.728 71.4368 209.635 69.9978C209.037 65.5458 197.773 76.2188 202.114 77.4628Z" fill="#FFB0D3"/>
<path fill-rule="evenodd" clip-rule="evenodd" d="M201.449 77.2587C203.673 83.4597 213.742 72.4217 209.162 70.1777C208.738 74.1067 205.54 76.8147 201.449 77.2587Z" fill="#FFB0D3"/>
<path fill-rule="evenodd" clip-rule="evenodd" d="M193.432 82.6778C191.378 87.0418 201.266 93.1358 202.238 88.9208C199.426 88.4038 193.822 87.6398 194.286 82.7928C194.24 82.5028 194.098 82.3298 193.432 82.6778Z" fill="#FFB0D3"/>
<path fill-rule="evenodd" clip-rule="evenodd" d="M193.758 83.0848C197.773 83.9438 200.633 85.0188 201.414 90.0038C204.972 94.0749 202.763 85.4308 200.854 83.9268C199.806 82.3988 194.257 80.8368 193.758 83.0848Z" fill="#FFB0D3"/>
<path fill-rule="evenodd" clip-rule="evenodd" d="M192.033 71.6934C183.907 80.8574 195.479 86.8384 192.621 81.5004C188.021 79.6944 194.325 71.9114 192.033 71.6934Z" fill="#FFB0D3"/>
<path fill-rule="evenodd" clip-rule="evenodd" d="M191.419 72.4393C192.748 75.3863 192.957 78.7833 191.442 82.3333C196.897 85.3563 195.049 67.9733 191.419 72.4393Z" fill="#FFB0D3"/>
<path fill-rule="evenodd" clip-rule="evenodd" d="M179.512 84.6465C174.504 87.8485 182.894 98.2475 182.965 92.7775C180.021 91.3735 180.162 87.0145 179.512 84.6465Z" fill="#FFB0D3"/>
<path fill-rule="evenodd" clip-rule="evenodd" d="M179.442 84.8604C182.421 86.4414 184.335 89.4744 181.425 93.2814C187.689 95.3604 184.975 81.2694 179.442 84.8604" fill="#FFB0D3"/>
<path fill-rule="evenodd" clip-rule="evenodd" d="M183.325 84.3209C181.495 82.2379 178.764 77.2019 180.218 74.9849C176.677 74.0779 180.28 84.6539 183.325 84.3209Z" fill="#FFB0D3"/>
<path fill-rule="evenodd" clip-rule="evenodd" d="M179.104 75.4026C182.621 78.5686 183.141 79.7196 182.072 85.0756C187.858 86.1886 183.37 71.9046 179.104 75.4026Z" fill="#FFB0D3"/>
<path fill-rule="evenodd" clip-rule="evenodd" d="M33.4272 83.9806C25.0682 85.1076 11.0852 83.2606 7.86523 76.1406C18.6092 83.8266 26.2352 81.4956 33.4272 83.9806Z" fill="#FFB0D3"/>
<path fill-rule="evenodd" clip-rule="evenodd" d="M8.22901 76.7753C6.75201 74.0113 4.61501 70.7493 0.708008 69.3103C1.30601 64.8583 12.57 75.5313 8.22901 76.7753Z" fill="#FFB0D3"/>
<path fill-rule="evenodd" clip-rule="evenodd" d="M8.89359 76.5712C6.66959 82.7732 -3.39941 71.7342 1.18059 69.4902C1.60459 73.4192 4.80259 76.1272 8.89359 76.5712Z" fill="#FFB0D3"/>
<path fill-rule="evenodd" clip-rule="evenodd" d="M16.9105 81.9903C18.9645 86.3543 9.07649 92.4483 8.10449 88.2333C10.9165 87.7163 16.5205 86.9523 16.0565 82.1053C16.1025 81.8153 16.2445 81.6423 16.9105 81.9903Z" fill="#FFB0D3"/>
<path fill-rule="evenodd" clip-rule="evenodd" d="M16.584 82.3971C12.569 83.2561 9.70901 84.3321 8.92801 89.3161C5.37101 93.3871 7.57901 84.7431 9.48801 83.2391C10.536 81.7121 16.085 80.1491 16.584 82.3971Z" fill="#FFB0D3"/>
<path fill-rule="evenodd" clip-rule="evenodd" d="M18.3093 71.0059C26.4353 80.1689 14.8633 86.1499 17.7213 80.8119C22.3213 79.0059 16.0173 71.2229 18.3093 71.0059Z" fill="#FFB0D3"/>
<path fill-rule="evenodd" clip-rule="evenodd" d="M18.9241 71.7518C17.5951 74.6988 17.3861 78.0948 18.9011 81.6458C13.4461 84.6688 15.2951 67.2858 18.9241 71.7518Z" fill="#FFB0D3"/>
<path fill-rule="evenodd" clip-rule="evenodd" d="M30.83 83.959C35.838 87.162 27.448 97.56 27.377 92.09C30.321 90.686 30.18 86.327 30.83 83.959Z" fill="#FFB0D3"/>
<path fill-rule="evenodd" clip-rule="evenodd" d="M30.9005 84.1729C27.9215 85.7539 26.0075 88.7859 28.9175 92.5939C22.6535 94.6719 25.3675 80.5819 30.9005 84.1729" fill="#FFB0D3"/>
<path fill-rule="evenodd" clip-rule="evenodd" d="M27.0176 83.6334C28.8476 81.5504 31.5786 76.5144 30.1246 74.2974C33.6656 73.3904 30.0616 83.9664 27.0176 83.6334Z" fill="#FFB0D3"/>
<path fill-rule="evenodd" clip-rule="evenodd" d="M31.2386 74.7151C27.7216 77.8811 27.2016 79.0321 28.2706 84.3881C22.4846 85.5011 26.9736 71.2171 31.2386 74.7151Z" fill="#FFB0D3"/>
<path fill-rule="evenodd" clip-rule="evenodd" d="M75.8502 98.5121C61.8572 109.502 73.7542 61.6331 64.3642 60.4521C59.4032 58.4171 56.3242 70.1911 55.2442 71.7021C55.0622 61.0481 52.0602 57.2451 48.0432 70.4401C46.2142 73.7941 50.5802 57.4921 42.4482 59.8541C39.6512 61.3821 42.8432 75.8361 41.9092 81.9491C42.4522 87.8541 38.9362 98.5331 45.8332 95.7021C48.6062 90.9121 47.5652 78.5241 49.5882 71.7971C50.5962 65.4111 53.9512 59.8681 53.8382 67.7701C52.4752 90.9451 61.4732 52.3241 63.4312 64.8881C64.0732 72.9211 60.1932 98.8061 68.5862 102.54C72.7112 104.988 78.5322 98.2861 75.8502 98.5121" fill="#232323"/>
<path fill-rule="evenodd" clip-rule="evenodd" d="M165.025 99.9159C163.46 109.194 160.385 98.3769 163.787 94.8399C164.544 96.3009 165.025 97.8929 165.025 99.9159ZM144.059 82.1359C144.672 74.2929 149.281 79.3389 145.694 84.2909C144.934 84.2409 144.322 83.6529 144.059 82.1359ZM134.311 81.1729C137.129 81.7579 132.947 87.9499 128.518 91.3399C128.549 88.5879 132.338 81.3789 134.311 81.1729ZM83.7796 82.8649C79.2906 81.9719 84.1096 77.3129 84.5086 82.7819C84.2596 82.8329 84.0146 82.8679 83.7796 82.8649ZM169.641 86.5639C168.43 87.5189 166.958 88.6779 165.542 90.0849C160.048 83.3819 159.217 75.0279 167.244 76.0549C164.027 64.0169 149.038 76.5599 159.009 87.9229C157.991 93.0969 151.097 103.543 149.962 97.6659C150.026 93.4149 154.335 86.2329 155.124 83.7569C153.991 77.6349 150.945 80.6759 147.379 83.7699C153.109 64.6399 131.99 77.9969 144.769 85.7409C144.706 85.8339 144.646 85.9249 144.581 86.0189H144.435C144.435 86.0189 144.288 86.3149 144.022 86.8119C143.607 87.3899 143.329 87.9239 143.159 88.3759C139.616 95.9069 127.444 108.417 128.269 93.2279C135.469 88.6269 137.163 82.8499 136.171 79.7239C132.198 69.8599 121.783 85.3299 124.129 93.6499C117.073 101.169 120.542 88.6089 119.872 81.6109C118.004 70.7739 107.804 80.3069 107.517 82.8199C106.628 83.3999 112.268 54.9539 104.519 61.5229C103.127 65.1399 104.176 79.8949 103.793 87.8229L103.593 87.6719C89.2986 110.624 93.6506 87.5909 98.2576 70.4109C101.009 70.6929 104.438 68.1969 98.5696 68.8429C99.8126 64.9459 99.0266 60.1369 94.7666 60.3569C92.4576 62.4639 93.4816 66.6649 92.5466 69.5329C88.4796 69.5289 85.2216 71.8419 92.3106 70.9499C91.8456 73.6639 91.3516 76.2379 90.8916 78.6399C90.4146 78.8429 88.3366 81.1029 85.5696 82.4429C83.6486 73.9399 76.2516 84.1859 84.5746 83.7339C85.3396 92.2859 76.2386 101.112 76.3746 88.9599C75.9086 80.6589 87.1376 75.8699 80.2546 75.7649C61.6446 83.1539 83.6616 113.4 85.6856 83.4389C87.6266 82.7659 89.4946 81.3979 90.5296 80.5429C84.8806 100.931 96.0976 103.017 103.403 91.9289C100.795 100.776 108.442 104.19 107.358 95.4379C105.753 81.2299 114.929 74.7149 114.693 80.4529C114.583 88.6889 113.79 102.423 124.488 95.6049C128.61 109.044 139.735 98.4239 144.698 87.9159C145.169 87.2319 145.652 86.5409 146.117 85.8429C147.309 85.8969 149.509 84.6989 149.788 84.3909C141.856 102.351 153.452 107.447 159.762 89.0289C160.873 90.5969 161.96 91.9329 162.859 93.2849C153.238 110.929 174.954 108.481 166.313 91.4559C166.996 90.6439 175.224 83.5099 169.641 86.5639" fill="#232323"/>
<path fill-rule="evenodd" clip-rule="evenodd" d="M150.611 74.4299C151.034 74.4299 151.429 74.3109 151.767 74.1069C150.084 81.9209 154.543 75.0149 153.033 71.4529C150.419 66.8419 145.648 73.5409 150.611 74.4299" fill="#232323"/>
</svg>
