<svg width="193" height="97" viewBox="0 0 193 97" fill="none" xmlns="http://www.w3.org/2000/svg">
<g clip-path="url(#clip0_3_23631)">
<path d="M56.7197 8.73953H58.4397V2.42953H56.7197V0.519531H63.7197V2.42953H61.9197V4.56953H67.6597V2.42953H65.8897V0.519531H72.8897V2.42953H71.0597V8.73953H72.8497V10.7995H65.8497V8.73953H67.5797V6.47953H61.8797V8.73953H63.6797V10.7995H56.6797L56.7197 8.73953Z" fill="black"/>
<path d="M73.8506 8.74H75.9406L81.0906 0.56L83.2606 0L88.2606 8.74H89.5806V10.8H83.4206V8.74H84.2206L83.8506 8H79.4306L79.0006 8.74H80.0006V10.8H73.8506V8.74ZM82.8506 6.13L81.8106 4.05L80.5606 6.13H82.8506Z" fill="black"/>
<path d="M103.55 3.2704C103.48 6.0504 99.3498 6.6204 95.7498 6.4104V8.7404H97.6098V10.8004H90.6098V8.7404H92.2698V2.4304H90.5898V0.520399C93.8898 1.0904 102.61 -1.3096 103.55 3.2704V3.2704ZM97.2999 4.6704C102.37 4.6704 99.3698 1.5804 95.7498 2.4304V4.6704H97.2999Z" fill="black"/>
<path d="M117.841 3.2704C117.771 6.0504 113.641 6.6204 110.051 6.4104V8.7404H111.911V10.8004H104.911V8.7404H106.581V2.4304H104.851V0.520399C108.181 1.0904 116.911 -1.3096 117.841 3.2704V3.2704ZM111.591 4.6704C116.661 4.6704 113.661 1.5804 110.051 2.4304V4.6704H111.591Z" fill="black"/>
<path d="M118.671 0.529297H124.841V2.4393H124.271L126.831 4.9993L129.221 2.4593H128.221V0.529297H134.391V2.4393H132.391L128.231 6.8993V8.7393H130.001V10.7993H123.001V8.7393H124.731V7.0793L120.001 2.4393H118.641L118.671 0.529297Z" fill="black"/>
<path d="M71.7998 94.58H73.5298V88.28H71.7998V86.37C92.9798 84.12 89.7998 99.37 71.7998 96.64V94.58ZM79.5098 94.58C85.1398 94.15 82.6998 86.73 76.9698 88.28V94.58H79.5098Z" fill="black"/>
<path d="M87.3506 94.5896H89.4506L94.6006 86.4196L96.7606 85.8496L101.761 94.5896H103.071V96.6496H96.9206V94.5896H97.7206L97.3606 93.8796H92.9406L92.5206 94.5896H93.5206V96.6496H87.3506V94.5896ZM96.3506 91.9796L95.2806 89.9096L94.0706 91.9996L96.3506 91.9796Z" fill="black"/>
<path d="M103.59 86.3906H109.76V88.3006H109.19L111.75 90.8406L114.14 88.3006H113.14V86.3906H119.31V88.3006H117.31L113.15 92.7506V94.5906H114.95V96.6506H107.95V94.5906H109.68V92.9306L105 88.3006H103.64L103.59 86.3906Z" fill="black"/>
<path d="M134.74 6.43001C132.84 6.43001 134.44 2.67001 135.74 5.43001C135.54 5.79001 135.92 6.12001 134.74 6.43001Z" fill="black"/>
<path d="M184.1 5.42969C184.1 5.10969 184.19 4.80969 185.1 4.42969C185.652 4.42969 186.1 4.8774 186.1 5.42969C186.1 5.98197 185.652 6.42969 185.1 6.42969C184.78 6.37969 184.48 6.32969 184.1 5.42969ZM177.8 5.42969C177.8 5.10969 177.89 4.80969 178.8 4.42969C179.352 4.42969 179.8 4.8774 179.8 5.42969C179.8 5.98197 179.352 6.42969 178.8 6.42969C178.49 6.37969 178.18 6.33969 177.8 5.42969ZM171.51 5.42969C171.51 5.10969 171.6 4.80969 172.51 4.42969C173.062 4.42969 173.51 4.8774 173.51 5.42969C173.51 5.98197 173.062 6.42969 172.51 6.42969C172.19 6.37969 171.89 6.32969 171.51 5.42969ZM165.21 5.42969C165.21 5.10969 165.3 4.80969 166.21 4.42969C166.762 4.42969 167.21 4.8774 167.21 5.42969C167.21 5.98197 166.762 6.42969 166.21 6.42969C165.89 6.37969 165.59 6.32969 165.21 5.42969ZM158.92 5.42969C158.92 5.10969 159.01 4.80969 159.92 4.42969C160.472 4.42969 160.92 4.8774 160.92 5.42969C160.92 5.98197 160.472 6.42969 159.92 6.42969C159.6 6.37969 159.3 6.32969 158.92 5.42969ZM152.62 5.42969C152.62 5.10969 152.71 4.80969 153.62 4.42969C154.172 4.42969 154.62 4.8774 154.62 5.42969C154.62 5.98197 154.172 6.42969 153.62 6.42969C153.3 6.37969 153 6.32969 152.62 5.42969ZM146.33 5.42969C146.33 5.10969 146.42 4.80969 147.33 4.42969C147.882 4.42969 148.33 4.8774 148.33 5.42969C148.33 5.98197 147.882 6.42969 147.33 6.42969C147 6.37969 146.7 6.33969 146.33 5.42969ZM140.03 5.42969C140.03 5.10969 140.12 4.80969 141.03 4.42969C141.582 4.42969 142.03 4.8774 142.03 5.42969C142.03 5.98197 141.582 6.42969 141.03 6.42969C140.71 6.37969 140.41 6.32969 140 5.42969H140.03Z" fill="black"/>
<path d="M191.4 6.42918C189.47 6.29918 191.07 2.90918 192.4 5.42918C192.2 5.78918 192.58 6.11918 191.4 6.42918Z" fill="black"/>
<path d="M5.59025 6.42936C3.50025 6.42936 5.45025 2.58936 6.59025 5.42936C6.45025 5.54936 6.81025 6.09936 5.59025 6.42936Z" fill="black"/>
<path d="M47.2204 5.42969C47.2204 5.10969 47.3104 4.80969 48.2204 4.42969C48.7727 4.42969 49.2204 4.8774 49.2204 5.42969C49.2204 5.98197 48.7727 6.42969 48.2204 6.42969C47.9004 6.37969 47.6004 6.32969 47.2204 5.42969ZM41.1304 5.42969C41.1304 5.10969 41.2204 4.80969 42.1304 4.42969C42.6827 4.42969 43.1304 4.8774 43.1304 5.42969C43.1304 5.98197 42.6827 6.42969 42.1304 6.42969C41.8104 6.37969 41.5104 6.32969 41.1304 5.42969ZM35.0004 5.42969C35.0004 5.10969 35.0904 4.80969 36.0004 4.42969C36.5527 4.42969 37.0004 4.8774 37.0004 5.42969C37.0004 5.98197 36.5527 6.42969 36.0004 6.42969C35.7204 6.37969 35.4204 6.32969 35.0004 5.42969ZM29.0004 5.42969C29.0004 5.10969 29.0904 4.80969 30.0004 4.42969C30.5527 4.42969 31.0004 4.8774 31.0004 5.42969C31.0004 5.98197 30.5527 6.42969 30.0004 6.42969C29.6304 6.37969 29.3304 6.32969 29.0004 5.42969ZM22.9104 5.42969C22.9104 5.10969 23.0004 4.80969 23.9104 4.42969C24.4627 4.42969 24.9104 4.8774 24.9104 5.42969C24.9104 5.98197 24.4627 6.42969 23.9104 6.42969C23.5404 6.37969 23.2404 6.32969 22.8604 5.42969H22.9104ZM16.8204 5.42969C16.8204 5.10969 16.9104 4.80969 17.8204 4.42969C18.3727 4.42969 18.8204 4.8774 18.8204 5.42969C18.8204 5.98197 18.3727 6.42969 17.8204 6.42969C17.4604 6.37969 17.1504 6.33969 16.7704 5.42969H16.8204ZM10.7404 5.42969C10.7404 5.10969 10.8304 4.80969 11.7404 4.42969C12.2927 4.42969 12.7404 4.8774 12.7404 5.42969C12.7404 5.98197 12.2927 6.42969 11.7404 6.42969C11.3704 6.37969 11.0604 6.33969 10.6904 5.42969H10.7404Z" fill="black"/>
<path d="M54.3105 6.43077C52.3805 6.29077 54.0005 2.91077 55.3105 5.43077C55.1205 5.80077 55.5005 6.13077 54.3105 6.43077Z" fill="black"/>
<path d="M5.59994 92.7007C4.11994 92.6407 4.59994 89.5607 6.51994 91.3107C6.49994 91.6507 6.99994 92.2607 5.59994 92.7007Z" fill="black"/>
<path d="M59.3804 91.6992C59.3804 91.3792 59.4704 91.0692 60.3804 90.6992C60.9327 90.6992 61.3804 91.1469 61.3804 91.6992C61.3804 92.2515 60.9327 92.6992 60.3804 92.6992C60.0604 92.6492 59.7604 92.5992 59.3804 91.6992ZM53.2904 91.6992C53.2904 91.3792 53.3804 91.0692 54.2904 90.6992C54.8427 90.6992 55.2904 91.1469 55.2904 91.6992C55.2904 92.2515 54.8427 92.6992 54.2904 92.6992C54.0004 92.6492 53.6704 92.5992 53.2904 91.6992ZM47.2004 91.6992C47.2004 91.3792 47.2904 91.0692 48.2004 90.6992C48.7527 90.6992 49.2004 91.1469 49.2004 91.6992C49.2004 92.2515 48.7527 92.6992 48.2004 92.6992C47.8804 92.6492 47.5804 92.5992 47.2004 91.6992ZM41.1204 91.6992C41.1204 91.3792 41.2004 91.0692 42.1204 90.6992C42.6727 90.6992 43.1204 91.1469 43.1204 91.6992C43.1204 92.2515 42.6727 92.6992 42.1204 92.6992C41.8004 92.6492 41.4904 92.6092 41.1204 91.6992ZM35.0004 91.6992C35.0004 91.3792 35.0904 91.0692 36.0004 90.6992C36.5527 90.6992 37.0004 91.1469 37.0004 91.6992C37.0004 92.2515 36.5527 92.6992 36.0004 92.6992C35.7104 92.6492 35.4104 92.5992 35.0004 91.6992ZM28.9104 91.6992C28.9104 91.3792 29.0004 91.0692 29.9104 90.6992C30.4627 90.6992 30.9104 91.1469 30.9104 91.6992C30.9104 92.2515 30.4627 92.6992 29.9104 92.6992C29.6204 92.6492 29.3204 92.5992 28.9404 91.6992H28.9104ZM22.8304 91.6992C22.8304 91.3792 22.9204 91.0692 23.8304 90.6992C24.3827 90.6992 24.8304 91.1469 24.8304 91.6992C24.8304 92.2515 24.3827 92.6992 23.8304 92.6992C23.5404 92.6492 23.2404 92.6092 22.8604 91.6992H22.8304ZM16.7404 91.6992C16.7404 91.3792 16.8304 91.0692 17.7404 90.6992C18.2927 90.6992 18.7404 91.1469 18.7404 91.6992C18.7404 92.2515 18.2927 92.6992 17.7404 92.6992C17.4504 92.6492 17.1504 92.5992 16.7704 91.6992H16.7404ZM10.6504 91.6992C10.6504 91.3792 10.7404 91.0692 11.6504 90.6992C12.2027 90.6992 12.6504 91.1469 12.6504 91.6992C12.6504 92.2515 12.2027 92.6992 11.6504 92.6992C11.3604 92.6492 11.0604 92.5992 10.6804 91.6992H10.6504Z" fill="black"/>
<path d="M66.4602 92.6991C64.9902 92.6191 65.4602 89.5591 67.3902 91.3091C67.3502 91.6491 67.8602 92.2691 66.4602 92.6991Z" fill="black"/>
<path d="M121.72 92.6991C119.89 92.6191 121.29 89.1191 122.72 91.6991C122.57 91.8191 122.92 92.3591 121.72 92.6991Z" fill="black"/>
<path d="M184.06 91.6992C184.06 91.3792 184.15 91.0692 185.06 90.6992C185.612 90.6992 186.06 91.1469 186.06 91.6992C186.06 92.2515 185.612 92.6992 185.06 92.6992C184.74 92.6492 184.44 92.5992 184.06 91.6992ZM177.73 91.6992C177.73 91.3792 177.81 91.0692 178.73 90.6992C179.282 90.6992 179.73 91.1469 179.73 91.6992C179.73 92.2515 179.282 92.6992 178.73 92.6992C178.41 92.6492 178.1 92.6092 177.73 91.6992ZM171.39 91.6992C171.39 91.3792 171.48 91.0692 172.39 90.6992C172.942 90.6992 173.39 91.1469 173.39 91.6992C173.39 92.2515 172.942 92.6992 172.39 92.6992C172.07 92.6492 171.77 92.5992 171.39 91.6992ZM165.06 91.6992C165.06 91.3792 165.15 91.0692 166.06 90.6992C166.612 90.6992 167.06 91.1469 167.06 91.6992C167.06 92.2515 166.612 92.6992 166.06 92.6992C165.74 92.6492 165.44 92.5992 165.06 91.6992ZM158.72 91.6992C158.72 91.3792 158.81 91.0692 159.72 90.6992C160.272 90.6992 160.72 91.1469 160.72 91.6992C160.72 92.2515 160.272 92.6992 159.72 92.6992C159.4 92.6492 159.1 92.5992 158.72 91.6992ZM152.39 91.6992C152.39 91.3792 152.48 91.0692 153.39 90.6992C153.942 90.6992 154.39 91.1469 154.39 91.6992C154.39 92.2515 153.942 92.6992 153.39 92.6992C153.07 92.6492 152.77 92.5992 152.39 91.6992ZM146.06 91.6992C146.06 91.3792 146.14 91.0692 147.06 90.6992C147.612 90.6992 148.06 91.1469 148.06 91.6992C148.06 92.2515 147.612 92.6992 147.06 92.6992C146.73 92.6492 146.43 92.5992 146.06 91.6992ZM139.72 91.6992C139.72 91.3792 139.81 91.0692 140.72 90.6992C141.272 90.6992 141.72 91.1469 141.72 91.6992C141.72 92.2515 141.272 92.6992 140.72 92.6992C140.4 92.6492 140.1 92.5992 139.72 91.6992ZM133.39 91.6992C133.39 91.3792 133.47 91.0692 134.39 90.6992C134.942 90.6992 135.39 91.1469 135.39 91.6992C135.39 92.2515 134.942 92.6992 134.39 92.6992C134.07 92.6492 133.76 92.6092 133.39 91.6992ZM127.05 91.6992C127.05 91.3792 127.14 91.0692 128.05 90.6992C128.602 90.6992 129.05 91.1469 129.05 91.6992C129.05 92.2515 128.602 92.6992 128.05 92.6992C127.73 92.6492 127.43 92.5992 127.05 91.6992Z" fill="black"/>
<path d="M191.4 92.7007C189.92 92.6407 190.4 89.5607 192.32 91.3107C192.29 91.6507 192.79 92.2607 191.4 92.7007Z" fill="black"/>
<path d="M47.4301 64.311C39.9201 80.171 41.2101 60.811 44.0901 53.971C46.8301 42.231 56.0901 35.841 54.8901 23.231C46.5001 15.561 31.8301 45.741 27.4501 50.701C44.7001 9.75097 14.8601 41.611 10.0001 58.721C32.6501 -22.549 -17.2299 38.901 6.64014 39.581C1.12014 33.581 7.90014 18.181 11.8801 20.231C13.3501 27.851 10.9701 31.611 10.4201 37.711C8.34014 53.181 1.67014 70.231 6.50014 71.491C14.6501 61.491 17.5001 43.391 28.7101 34.341C12.0801 89.891 42.8301 23.921 51.3601 25.461C48.5301 38.931 36.1901 52.001 37.2701 67.181C36.3401 78.001 52.7101 70.861 47.4301 64.311V64.311ZM10.2301 56.131C10.2672 55.8909 10.3206 55.6537 10.3901 55.421L10.2301 56.211V56.131Z" fill="black"/>
<path d="M188.21 38.3601C185.84 34.3601 182.32 31.2101 178.62 28.3601C184.27 21.0601 185.4 4.64015 172.06 12.6101C158.3 11.4901 170.19 27.1701 177.23 29.8201C170.9 32.3301 165.23 43.0201 154.47 38.9601C155.41 34.9601 149.57 33.1701 146.47 37.1601V37.1001C146.186 37.4626 145.849 37.7795 145.47 38.0401C143.76 31.2201 111.66 33.4102 106.29 33.7402C111.29 14.5202 97.4699 20.6801 95.4199 35.0101C92.4799 35.5201 89.4199 35.7201 84.8999 36.4701C85.0899 32.9302 88.6599 26.4701 84.2699 28.2101C81.7699 28.7901 81.8499 34.1501 80.3399 37.4201C75.7499 37.0001 66.9999 42.0001 79.5599 40.5101C78.7999 43.9801 78.1199 47.5101 77.5599 50.9701C76.6399 54.4602 71.2399 58.7401 66.7599 57.7801C71.6099 42.5001 59.6199 34.3101 54.0499 49.4301C47.2799 64.0201 58.5499 75.4301 65.8199 60.4301C68.5699 60.6501 73.7199 60.2101 76.7399 57.2101C74.2099 81.5701 83.7399 74.9201 91.8399 58.3701C92.5499 88.0401 98.3399 50.8101 108.56 51.9801C106.5 80.2201 110.4 81.4701 126.63 58.4801C128.92 71.7201 144 61.0601 147 52.8001C152.06 52.4301 156.81 50.2301 151.85 55.6301C137.2 81.0301 165.71 63.1701 170.85 53.6301C173.3 56.6301 175.07 58.0101 175.76 60.4801C155.43 70.1501 181.76 85.2401 180.56 61.4301C190.36 58.9101 194.26 47.0001 188.21 38.3601V38.3601ZM60.3999 64.3101C59.9299 64.3101 54.8999 63.9901 57.8099 55.5001C59.4591 57.376 61.5099 58.856 63.8099 59.8302C63.1992 61.6591 62.0001 63.2344 60.3999 64.3101ZM64.5699 57.3901C62.7799 56.9501 60.8399 55.6501 58.8299 52.6701C61.3499 46.1401 62.3699 44.4102 63.5499 44.4902L62.4499 43.8601C66.1499 45.2301 65.5199 52.5001 64.5699 57.3901ZM172.81 15.0001C172.87 15.1101 175.2 16.1901 173.57 16.1001C173.66 15.8501 172.32 16.1101 172.81 15.0001V15.0001ZM174.89 25.6102C171.65 24.4502 163 14.2101 171 14.2101C169.14 19.6201 180.77 18.7501 174.11 13.4901C188.77 9.49015 175.11 26.0801 178.4 28.2001C177.22 27.3201 176.05 26.4701 174.89 25.6301V25.6102ZM151.31 37.1001C151.66 37.1001 152.08 37.2201 152.24 38.4101C150.943 37.7079 149.334 37.9802 148.34 39.0701C149.023 38.0394 150.094 37.3289 151.31 37.1001ZM146.9 48.1901C146.837 48.2488 146.807 48.335 146.82 48.4201C144.47 47.4201 146.07 42.1301 148.19 39.2701C149.39 39.6601 150.59 40.0501 151.8 40.3901C150.695 43.2868 149.03 45.9372 146.9 48.1901V48.1901ZM104.52 24.9101C104.605 24.9233 104.691 24.8933 104.75 24.8301C105.86 27.4001 105.18 30.5401 103.49 34.0101L100.42 34.3501C101.75 29.4901 103.22 25.3701 104.52 24.9101V24.9101ZM99.6799 37.2101L101.9 36.8901C101.9 36.8901 98.8999 41.4801 98.5399 42.0501C98.8899 40.4801 99.2799 38.8401 99.6799 37.2101ZM91.3099 54.7101C74.1999 88.4601 82.6599 51.0001 84.1699 39.7701L91.4499 38.5401C91.8357 38.6929 92.2744 38.6198 92.5899 38.3501L94.5899 38.0101C93.4822 42.9148 92.7137 47.8899 92.2899 52.9002C91.9999 53.5102 91.6699 54.1101 91.3099 54.7101V54.7101ZM135.42 61.5602C131.63 61.7802 129.86 58.8701 131.25 52.1201C150.78 41.3901 127.89 34.4202 126.6 53.5602C124.6 57.8402 114.08 74.0502 112.48 68.6602C118.7 39.8902 103.19 47.7101 96.1799 60.7701C96.0038 56.9557 96.2418 53.1333 96.8899 49.3701C99.1899 45.7701 102.32 40.9701 104.82 36.4801C117.97 34.7901 132.11 34.1301 145.38 38.3401C143.59 40.0101 139.88 49.3401 144.49 52.2601C142.49 56.2159 139.324 59.4622 135.42 61.5602V61.5602ZM131.8 49.4401C132.1 47.7601 133.96 43.8101 136.29 43.2301C138.65 44.4501 135.18 47.4701 131.8 49.4401ZM173.32 48.1101C173.17 47.1101 173.44 42.8701 176.68 41.3801C179.26 42.3601 175.68 46.2201 173.32 48.1101ZM175.53 66.8201C171.97 78.1701 166.74 66.1401 176.08 63.1301C175.976 64.3707 175.792 65.6032 175.53 66.8201ZM180.09 59.0001C177.89 54.3601 175.84 53.4201 174.09 50.0001C192.29 36.1001 165.25 35.4201 169.32 51.2701C167.48 54.0001 152.17 70.6301 151.86 65.0001C153.67 56.0701 169.86 42.5701 149.1 48.8701C151.302 46.6471 152.977 43.9575 154 41.0001C162.94 43.3601 172.39 38.6201 177.52 30.1501C183.72 35.0801 191.11 43.1501 188.37 50.9801C187.87 51.8201 187.08 53.4001 185.76 55.5001C184.53 57.0001 182.34 58.0701 180.09 59.0001V59.0001Z" fill="black"/>
<path d="M163.93 43.6101C164.44 45.2801 163.83 47.0601 163.23 48.7001C166.19 50.4801 167.45 37.7201 163.93 43.6101Z" fill="black"/>
</g>
<defs>
<clipPath id="clip0_3_23631">
<rect width="193" height="97" fill="white"/>
</clipPath>
</defs>
</svg>
