<svg width="200" height="188" viewBox="0 0 200 188" fill="none" xmlns="http://www.w3.org/2000/svg">
<g clip-path="url(#clip0_3_23292)">
<path fill-rule="evenodd" clip-rule="evenodd" d="M160.741 30.7917C162.661 26.7917 168.741 28.8617 170.321 32.9117C172.411 29.5817 178.411 27.5817 181.661 31.0217C187.371 40.2717 178.041 51.0217 179.551 60.8017C179.491 63.8717 178.321 64.6117 175.211 63.5617C167.281 57.1517 149.021 52.9917 149.151 41.5617C149.791 41.0117 149.681 40.1017 150.151 39.4817C152.875 38.5515 155.796 38.3515 158.621 38.9017C161.161 38.7317 158.551 33.1817 160.741 30.7917Z" fill="#DE748D"/>
<path fill-rule="evenodd" clip-rule="evenodd" d="M175.861 123.921C174.721 118.001 169.561 115.271 167.451 109.181C159.681 93.3313 167.511 85.7613 180.151 96.0313C186.541 103.591 200.401 89.3613 199.151 108.211C197.421 117.761 185.631 117.081 181.151 125.021C180.151 127.001 175.731 127.321 175.861 123.921V123.921Z" fill="#DE748D"/>
<path fill-rule="evenodd" clip-rule="evenodd" d="M19.6505 94.0009C21.5805 94.3909 20.9105 99.7009 23.8905 97.5409C36.8905 90.4009 30.4105 115.151 25.6205 119.181C21.3905 126.251 20.5005 131.891 13.1705 124.011C1.68049 117.531 -8.19951 89.4309 10.2705 99.8009C10.6105 98.9809 10.8805 98.3409 11.1405 97.7009C11.8805 93.7009 13.1405 93.0009 18.1405 93.9109C18.5905 94.5209 19.1605 93.5109 19.6505 94.0009V94.0009Z" fill="#DE748D"/>
<path fill-rule="evenodd" clip-rule="evenodd" d="M19.2 57.0913C5.52 25.4013 28.48 14.5113 29.8 36.4013C31.27 37.4013 31.36 35.7413 34.12 35.6913C36.7 34.0313 38.84 34.1913 41.12 36.2013C56 44.5013 28.84 53.4413 25.49 59.7313C25.05 60.1913 24.42 60.3813 23.98 60.8413C20.33 61.8613 19.8 61.4413 19.2 57.0913V57.0913Z" fill="#DE748D"/>
<path fill-rule="evenodd" clip-rule="evenodd" d="M161.46 158.001C179.07 169.001 134.09 178.371 136.74 168.231C135.69 135.981 148.81 136.051 150.74 149.231C151.89 149.171 152.74 148.231 153.86 148.471C166 149.131 156.32 158.001 161.46 158.001Z" fill="#DE748D"/>
<path fill-rule="evenodd" clip-rule="evenodd" d="M52.8106 170.49C47.7506 169.95 42.8106 171.2 36.8106 170.55C29.6906 167.9 23.0006 159.64 34.0506 157C38.8506 155.9 43.0506 157.93 44.3106 151.26C60.0906 142.14 56.9506 159.32 59.2406 167.75C59.9706 169.35 58.7106 169.95 57.7506 170.7C56.9906 171.04 56.2306 170.59 55.4806 170.7C54.8006 170.62 54.1406 170.3 53.4806 170.59C53.255 170.675 53.0019 170.637 52.8106 170.49V170.49Z" fill="#DE748D"/>
<path fill-rule="evenodd" clip-rule="evenodd" d="M57.6406 170.43C58.0306 169.43 59.2906 168.99 59.2406 167.75C62.0606 168.5 65.7306 170.82 68.8806 172.51C74.7206 172.51 80.6006 175.24 86.5206 176.84C94.2773 178.011 102.153 178.169 109.951 177.31C114.641 174.17 120.451 175.19 125.531 173.6C128.921 172.13 133.451 171.14 136.741 168.26C136.851 170.2 138.191 171.4 140.481 172.04C135.941 172.53 131.321 175.81 126.121 176.88C122.121 179.67 116.721 180.44 111.641 180.58C102.221 181.58 91.4406 182.83 81.6906 179.58C73.3606 178.9 63.8506 176.75 57.6406 170.43V170.43Z" fill="#FE91AA"/>
<path fill-rule="evenodd" clip-rule="evenodd" d="M89.8103 11.1604C88.7003 0.840367 105.54 -2.93963 108.92 6.66037C112.17 20.3904 91.0003 26.0004 89.8103 11.1604Z" fill="#DE748D"/>
<path fill-rule="evenodd" clip-rule="evenodd" d="M152.271 31.4212C150.271 30.4212 149.271 27.7412 146.161 27.2112C142.081 34.2912 128.901 35.4812 122.161 33.9212C110.781 30.8012 122.681 23.3512 128.391 22.1912C129.641 21.0312 135.541 22.4512 135.721 20.1912C138.231 18.7312 141.031 23.4712 144.101 24.3712C147.081 26.8412 153.141 26.7012 152.271 31.4212V31.4212Z" fill="#FFAEC0"/>
<path fill-rule="evenodd" clip-rule="evenodd" d="M42.5801 27.6098C45.0001 20.8398 43.8801 9.31977 52.3401 4.24977C71.0001 -6.78023 61.4501 7.53977 59.2401 16.9998C58.0801 19.8198 51.8301 20.8998 49.1601 23.6298C46.4901 24.8398 46.0001 28.5098 42.5801 27.6098Z" fill="#FFAEC0"/>
<path fill-rule="evenodd" clip-rule="evenodd" d="M138.401 16.9005C140.341 15.2905 136.821 9.57054 137.401 6.18054C137.991 -4.54946 146.201 0.660542 149.401 6.99054C154.041 12.9005 151.121 19.7405 153.321 26.0805C150.801 26.7205 148.921 22.7905 146.011 21.4605C143.581 19.1905 139.921 19.5605 138.401 16.9005V16.9005Z" fill="#FFAEC0"/>
<path fill-rule="evenodd" clip-rule="evenodd" d="M125.531 173.601C121.731 175.901 115.211 175.321 109.961 177.321C113.961 152.471 139.961 147.861 122.891 173.661C123.911 174.271 124.711 173.461 125.531 173.601V173.601Z" fill="#FFADBF"/>
<path fill-rule="evenodd" clip-rule="evenodd" d="M138.4 16.9008C143.56 18.6008 148.53 22.5808 153.29 26.0808C155.14 26.6708 158.56 32.6808 160.74 30.7908C159.47 32.4108 162.46 42.0108 158.69 38.9108C159.51 36.4808 154.27 34.1608 152.27 31.4208C152.02 28.2208 147.74 26.8708 144.48 25.9008C141.42 24.0808 139.34 20.9008 135.67 20.2008C106.07 10.6008 118 5.48081 138.4 16.9008V16.9008Z" fill="#FE92AB"/>
<path fill-rule="evenodd" clip-rule="evenodd" d="M27.1807 135.641C39.6207 104.831 47.4107 133.771 34.7207 146.871C31.6707 144.781 27.8407 139.801 27.1807 135.641Z" fill="#FFAEC0"/>
<path fill-rule="evenodd" clip-rule="evenodd" d="M182.26 67.71C200 45.7 202 72.1 186.86 80.8C184.48 84.63 187.41 90.44 186.45 95.58C183.71 94.22 185.69 89.47 184.96 86.13C185.35 79.21 182.26 74.1 182.26 67.71Z" fill="#FFAFC0"/>
<path fill-rule="evenodd" clip-rule="evenodd" d="M70.0009 16.4511C73.9409 18.1011 88.4909 25.8011 78.6909 29.7111C70.3909 30.7611 64.4009 26.1211 57.1309 22.7811C59.3209 20.0011 65.8209 16.3111 70.0009 16.4511V16.4511Z" fill="#FFAEC0"/>
<path fill-rule="evenodd" clip-rule="evenodd" d="M27.1809 135.64C29.0409 139.37 32.0009 143.07 34.7209 146.87C36.9009 148.87 39.1309 152.79 42.2809 154.22C43.2809 153.51 43.2009 151.96 44.2809 151.22C44.3809 158.38 39.2809 157.22 34.0209 156.96C34.6609 156.16 35.7409 156.82 36.5709 156.13C31.8909 150.31 24.3609 145 22.2109 136.8C20.0909 132.41 17.3309 127.63 13.2109 123.98C21.2109 131.24 20.6109 124.98 25.6609 119.15C20.7309 126.64 23.5209 128.73 27.1809 135.64V135.64Z" fill="#FE93AB"/>
<path fill-rule="evenodd" clip-rule="evenodd" d="M70.0006 16.4514C60.1106 20.3714 47.8506 26.5814 41.1006 36.2014C38.8106 35.5314 36.5306 34.7314 34.1006 35.6914C35.9592 33.2794 38.1356 31.1299 40.5706 29.3014C41.0006 28.8214 41.6806 28.6514 42.0606 28.1214L42.5706 27.6114C47.6406 24.7314 53.0606 19.6114 59.2206 17.0114C64.8806 14.8714 71.3506 10.1314 78.3506 10.6714C82.5906 14.4914 72.8506 14.8414 70.0006 16.4514V16.4514Z" fill="#FE90AA"/>
<path fill-rule="evenodd" clip-rule="evenodd" d="M86.5207 176.84C81.1407 176.05 74.8507 174.14 68.8807 172.51C72.0907 172.69 65.7107 162.12 66.7607 158.61C68.7607 152.74 79.3807 163.13 81.1007 167.79C84.0907 171.66 80.4207 176 86.5207 176.84Z" fill="#FFAEC0"/>
<path fill-rule="evenodd" clip-rule="evenodd" d="M182.261 67.7108C186.001 76.0008 185.001 86.5208 186.451 95.5808C186.451 96.2708 186.531 96.9708 186.581 97.9208C188.801 97.5408 191.501 96.4508 194.461 97.7308C187.881 96.3608 183.621 104.151 180.151 96.0308C182.641 97.2508 181.151 86.7808 180.611 84.3408C179.308 81.4984 178.774 78.3642 179.061 75.2508C178.274 71.2078 176.98 67.2802 175.211 63.5608C177.321 63.6708 179.131 63.3308 179.551 60.8008C180.721 62.9904 181.63 65.3096 182.261 67.7108V67.7108Z" fill="#FE92AA"/>
<path fill-rule="evenodd" clip-rule="evenodd" d="M19.2004 57.0898C20.4704 59.7198 20.2004 61.0898 23.9604 60.8498C21.9004 63.2198 20.5104 67.5098 19.7104 71.4898C19.5404 75.7798 19.0004 79.9998 17.0704 83.9098C17.5104 86.3198 14.5404 91.8198 18.0704 93.9098C15.6504 93.9098 12.0004 94.1798 11.0704 97.6998C11.0204 93.8598 11.9104 89.0698 11.6804 84.3398C12.0104 83.8398 11.6804 83.1798 12.0704 82.6898C12.0704 82.3598 12.0704 82.0398 12.0704 81.6898C11.7104 76.8698 12.4104 72.2998 15.3004 68.2598C16.0004 64.7598 18.6204 61.1898 19.2004 57.0898V57.0898Z" fill="#FE92AB"/>
<path fill-rule="evenodd" clip-rule="evenodd" d="M22.2101 136.8C24.0601 141 28.0001 145.44 30.8701 149.61C28.2101 145.91 22.6301 149.7 18.4001 147.93C14.4001 146.81 3.93006 140.7 8.02006 136.54C12.4301 134.72 17.8901 138.18 22.2101 136.8V136.8Z" fill="#FFAEC0"/>
<path fill-rule="evenodd" clip-rule="evenodd" d="M178.351 131.361C177.541 134.181 180.631 131.881 183.351 132.201C199.041 131.791 187.251 142.561 179.821 144.941C176.331 147.161 173.751 144.051 169.961 145.321C169.531 142.401 173.691 139.511 175.081 136.071C176.521 134.541 175.631 131.271 178.351 131.361Z" fill="#FFAEC0"/>
<path fill-rule="evenodd" clip-rule="evenodd" d="M165 144.72C165.83 143.09 166.26 142.09 164.8 141.09C159.19 137.09 159.23 132.75 158.68 125.6C159.24 115.94 173.31 130.25 171.93 134.97C169.2 137.72 168.46 143.7 165 144.72Z" fill="#FFAEC0"/>
<path fill-rule="evenodd" clip-rule="evenodd" d="M165 144.72C167.43 141.79 169.63 137.3 172 132.98C173.06 130.44 175 127.63 175.82 123.92C177.07 126.28 178.45 126.56 181.15 125.02C179.912 126.99 178.956 129.124 178.31 131.36C175.8 135.08 173.23 140.87 169.89 145.36C168.24 149.07 158.25 156.48 161.42 158.07C160.472 158.268 159.491 158.233 158.56 157.97C160.67 152.18 160.18 149.83 153.85 148.58C159.19 146.84 158.15 153.82 165 144.72V144.72Z" fill="#FE92AB"/>
<path fill-rule="evenodd" clip-rule="evenodd" d="M91.1702 169.8C89.1702 160.16 103.78 157.93 104.93 167.94C105.53 177 91.2602 178.69 91.1702 169.8Z" fill="#DE758E"/>
<path fill-rule="evenodd" clip-rule="evenodd" d="M179.06 75.2513C179.6 78.2513 180.83 81.1913 180.61 84.3413C159.94 81.8313 154.68 61.7513 179.06 75.2513Z" fill="#FFAEC0"/>
<path fill-rule="evenodd" clip-rule="evenodd" d="M15.3802 68.2796C13.9302 72.0896 13.1502 77.0496 12.1502 81.7096C0.860215 76.7996 0.340216 51.5896 15.3802 68.2796Z" fill="#FFAFC0"/>
<path fill-rule="evenodd" clip-rule="evenodd" d="M17.0703 83.9113C18.0203 80.4913 17.9803 75.3013 19.7103 71.4913C39.8303 62.4613 30.7003 84.0813 17.0703 83.9113Z" fill="#FFAEC0"/>
<path fill-rule="evenodd" clip-rule="evenodd" d="M57.6398 170.431C64.2098 175.431 72.9398 177.761 81.6398 179.551C78.9698 180.191 75.9198 178.011 72.7198 178.881C63.5998 187.401 42.6498 184.061 62.0098 175.641C65.0098 173.641 54.7098 170.951 52.7598 170.491L53.3098 170.371C53.7988 170.077 54.4108 170.077 54.8998 170.371L57.6398 170.431Z" fill="#FFAEC0"/>
<path fill-rule="evenodd" clip-rule="evenodd" d="M111.641 180.581C116.331 179.901 120.971 178.141 126.121 176.881C138.181 186.781 134.331 188.791 120.701 185.791C116.831 185.131 116.001 180.501 111.641 180.581Z" fill="#FFAEC0"/>
<path fill-rule="evenodd" clip-rule="evenodd" d="M160.63 100.211C162.54 105.211 165.55 110.441 167.9 116.011C174.36 133.081 153.54 102.401 160.63 100.211Z" fill="#FFB7C7"/>
<path fill-rule="evenodd" clip-rule="evenodd" d="M29.8506 171.531C32.3206 172.341 33.7206 174.401 37.0106 173.271C39.3406 172.381 53.4306 171.661 48.7906 175.721C43.9406 175.621 31.8606 177.861 29.8506 171.531V171.531Z" fill="#FFB6C7"/>
<path fill-rule="evenodd" clip-rule="evenodd" d="M149.551 53.6699C153.851 57.6699 169.011 60.8799 168.211 64.8899C161.791 62.6099 153.341 60.6199 149.551 53.6699Z" fill="#FFB6C6"/>
<path fill-rule="evenodd" clip-rule="evenodd" d="M1.84077 118.24C5.67077 121.86 11.6508 125.51 15.1608 130.01C12.7408 133.24 -0.279228 121.2 1.84077 118.24V118.24Z" fill="#FFBBCA"/>
<path fill-rule="evenodd" clip-rule="evenodd" d="M25.9103 124.931C24.3703 122.241 29.9103 116.491 31.4303 112.931C32.3303 112.061 31.3003 109.021 33.9103 108.521C34.7303 109.121 35.4303 109.681 34.5903 112.001C32.5903 116.681 30.1803 121.521 25.9103 124.931V124.931Z" fill="#FFBCCB"/>
<path fill-rule="evenodd" clip-rule="evenodd" d="M10.6103 38.6914C13.3503 40.0614 12.0103 44.2014 13.3603 47.4814C14.1603 50.7014 17.4703 60.9914 12.5503 54.7414C9.7303 50.0614 10.5503 44.6814 10.6103 38.6914Z" fill="#FFC1CF"/>
<path fill-rule="evenodd" clip-rule="evenodd" d="M90.2402 21.8711C93.6502 22.5911 97.0302 23.2411 100.95 22.1011C117.57 15.6511 99.6302 31.8911 90.2402 21.8711V21.8711Z" fill="#FFB7C7"/>
<path fill-rule="evenodd" clip-rule="evenodd" d="M134.221 150.18C134.581 153.43 135.771 164.78 131.221 163.48C130.361 160.43 131.801 152.83 134.221 150.18Z" fill="#FFBECD"/>
<path fill-rule="evenodd" clip-rule="evenodd" d="M145.41 175.281C147.01 176.831 157.87 170.941 155.63 175.881C152.67 179.521 131.83 175.771 145.41 175.281Z" fill="#FFB6C7"/>
<path fill-rule="evenodd" clip-rule="evenodd" d="M29.1308 61.31C25.4608 58.38 48.0008 46.84 38.5008 56.05C34.3808 56.92 32.8508 58.94 29.1308 61.31V61.31Z" fill="#FFBAC9"/>
<path fill-rule="evenodd" clip-rule="evenodd" d="M192.69 119.8C196.51 119.66 189.16 124.88 187.09 125.27C183.28 123.46 189.81 119.74 192.69 119.8Z" fill="#FFC0CE"/>
<path fill-rule="evenodd" clip-rule="evenodd" d="M158.671 38.8999C156.351 38.3699 152.891 39.8999 150.191 39.4799C152.921 37.8199 155.781 38.0599 158.671 38.8999Z" fill="#FE92AB"/>
<path fill-rule="evenodd" clip-rule="evenodd" d="M150.17 39.5C150.06 40.3 150.44 41.35 149.17 41.58C149.03 40.7449 149.43 39.9117 150.17 39.5Z" fill="#FE92AB"/>
<path fill-rule="evenodd" clip-rule="evenodd" d="M19.6504 94.0002C19.1304 94.1402 18.5804 94.8802 18.1104 93.9202C18.6304 93.7802 19.1804 93.2002 19.6504 94.0002Z" fill="#FE92AB"/>
<path fill-rule="evenodd" clip-rule="evenodd" d="M42.0808 28.1211C41.9552 28.8353 41.3148 29.3425 40.5908 29.3011C40.8263 28.6591 41.4019 28.2033 42.0808 28.1211Z" fill="#FFAEC0"/>
<path fill-rule="evenodd" clip-rule="evenodd" d="M24 60.8406C24.2002 60.1758 24.8157 59.7233 25.51 59.7306C25.2909 60.3818 24.687 60.8258 24 60.8406Z" fill="#FE92AB"/>
<path fill-rule="evenodd" clip-rule="evenodd" d="M12.1406 82.6914C12.1406 83.2814 12.2906 83.8914 11.7506 84.3414C11.5495 83.7623 11.7015 83.1192 12.1406 82.6914Z" fill="#FFAFC0"/>
<path fill-rule="evenodd" clip-rule="evenodd" d="M55.0002 170.391H53.4102C53.5749 170.108 53.8777 169.934 54.2052 169.934C54.5326 169.934 54.8354 170.108 55.0002 170.391Z" fill="#FE91AA"/>
<path d="M58.5402 107.52L61.8002 92.1301L55.6202 107.52H51.1602V93.6301L46.8602 107.52H44.2602L51.5502 85.1701C48.0402 85.9401 45.1102 91.0501 46.7702 94.7301C37.1302 92.9701 49.3502 80.7301 56.1002 83.5701V102.31L63.2302 83.5701H68.3402L63.2302 107.57L58.5402 107.52Z" fill="#DE768E"/>
<path d="M79.8902 95.7098C81.0502 96.3998 82.7602 95.4698 84.2502 94.4098L84.3802 95.0898C83.1866 96.5096 81.5835 97.526 79.7902 97.9998C79.3602 107.17 70.2102 111.29 67.5802 104.47C64.9102 92.5898 79.0002 85.5698 79.8902 95.7098V95.7098ZM77.3802 98.2798C75.7102 98.1598 75.5302 95.6698 77.4502 94.5398C75.1602 88.7898 70.7302 99.5398 71.8302 103.09C73.7502 107.16 77.1302 102.72 77.3802 98.2798V98.2798Z" fill="#DE768E"/>
<path d="M90.001 86.1094C90.001 86.1094 89.511 88.3194 88.891 91.2494H90.841L90.581 92.5494H88.581C86.581 101.799 86.321 103.309 86.371 103.289C86.371 105.639 90.371 103.999 92.291 101.689H93.391C80.651 115.069 80.491 103.369 83.891 92.5494H82.881L83.141 91.2494H84.221L85.221 86.7594L90.001 86.1094Z" fill="#DE768E"/>
<path d="M104.39 102.31C103.39 105.89 108.19 104.21 110.14 101.69H111.25C108.86 104.69 101.94 111.05 99.6 104.93C98.35 102.14 104.6 91.1902 97.52 94.3702L94.72 107.52H90L94.76 85.4002L99.57 84.7402L97.81 93.0002C100.42 90.4702 106.14 90.8302 105.72 96.1202L104.39 102.31Z" fill="#DE768E"/>
<path d="M114.541 105.171C116.131 105.171 118.861 103.291 120.001 100.881H121.471C111.771 115.801 101.861 102.811 111.131 92.411C122.401 86.281 120.911 100.671 111.971 100.981C111.471 102.551 112.451 105.401 114.541 105.171V105.171ZM116.231 92.681C114.411 92.681 112.911 96.361 112.231 99.421C115.201 99.511 119.491 94.921 116.231 92.681Z" fill="#DE768E"/>
<path d="M126.74 91.2509L126.38 92.8809C135.59 86.5209 132.38 101.021 128.23 93.7209C127.384 93.763 126.585 94.1197 125.99 94.7209L123.29 107.481H118.6L122.05 91.2109L126.74 91.2509Z" fill="#DE768E"/>
<path d="M137.54 83.1797C141.44 83.9497 139.18 88.5797 135.68 90.7997C135.504 90.7131 135.392 90.5354 135.39 90.3397L136.99 88.0597C135.49 86.9997 133.92 83.7497 137.54 83.1797V83.1797Z" fill="#DE768E"/>
<path d="M151.56 90.6699C151.36 95.3999 153.85 98.3599 153.94 101.86C153.22 112.63 135.14 106.17 144.53 99.0899C145.603 96.7111 146.379 94.2088 146.84 91.6399L151.56 90.6699ZM144.89 103.13C144.481 103.125 144.08 103.023 143.72 102.83C143.82 106.48 148.96 106.73 149.19 101.73C149.19 100.05 147.83 97.9199 147.66 93.9199C147.14 95.5099 146.66 97.5899 145.97 99.2199C146.75 99.4799 147.04 100.07 147.04 101.04C147.035 101.603 146.804 102.141 146.401 102.533C145.997 102.926 145.453 103.141 144.89 103.13Z" fill="#DE768E"/>
<path d="M99.0892 125.171L99.1692 125.851C99.1692 128.851 95.5292 140.731 90.8292 136.121C92.6192 132.121 90.3492 123.001 91.0292 117.991C88.1692 106.641 101.579 113.881 99.1692 124.871C99.1172 124.962 99.0896 125.066 99.0892 125.171V125.171ZM93.0892 132.171V135.291C98.0092 132.551 100.289 114.861 92.3092 114.401C92.2592 117.651 93.1392 128.461 93.0992 132.221L93.0892 132.171Z" fill="#DE768E"/>
<path d="M107.459 137.131C105.919 137.561 106.589 132.941 106.459 132.051C105.255 131.538 103.966 131.257 102.659 131.221C101.999 132.281 102.099 134.471 101.059 136.781C100.209 136.781 99.7389 136.571 99.6289 136.131C101.769 132.211 102.159 110.911 106.629 112.921C106.269 119.221 110.399 131.821 107.459 137.131ZM106.099 126.511C105.929 124.331 105.329 119.701 105.359 117.231C104.689 117.661 102.839 128.841 102.869 129.781C104.026 130.107 105.236 130.199 106.429 130.051C106.399 129.611 106.289 128.441 106.099 126.511V126.511Z" fill="#DE768E"/>
<path d="M112.399 136.751L112.559 130.461C113.739 129.121 106.839 108.851 110.929 113.291C111.649 114.901 112.179 118.091 112.849 121.171C114.639 105.891 116.539 114.391 114.119 123.991L114.019 125.121V125.621L114.199 134.241L114.309 135.861C114.679 136.471 113.389 138.821 112.399 136.751V136.751Z" fill="#DE768E"/>
<path d="M86.1105 77.9307C84.1105 75.5507 85.7505 68.7507 85.0005 65.3807C84.0098 65.1479 82.9754 65.1789 82.0005 65.4707C81.4305 67.6807 83.7605 75.2607 81.8405 77.3607C80.6405 77.8407 77.9505 48.5307 81.6805 53.3607C81.6105 54.1407 81.5705 54.9507 81.5705 55.8107L81.7905 62.5007V63.7207C81.7884 64.0018 81.8085 64.2827 81.8505 64.5607L85.0005 64.3507C85.0005 63.5507 84.8505 53.7907 84.8705 52.8107C87.1705 51.4907 88.0005 78.4007 86.1105 77.9307Z" fill="#DE768E"/>
<path d="M96.3905 77.4216C94.8505 77.8516 95.5205 73.2316 95.3905 72.3416C94.1871 71.8291 92.8981 71.5475 91.5905 71.5116C90.9405 72.5716 91.0405 74.7516 89.9905 77.0716C89.1405 77.0716 88.6705 76.8616 88.5605 76.4216C90.7005 72.5016 91.1005 51.2016 95.5605 53.2116C95.2005 59.5116 99.3305 72.1116 96.3905 77.4216V77.4216ZM95.0005 66.8016C94.8305 64.6116 94.2305 59.9916 94.2705 57.5216C93.5905 57.9516 91.7405 69.1316 91.7705 70.0716C92.9273 70.3984 94.1378 70.4902 95.3305 70.3416C95.3239 69.9016 95.2139 68.7216 95.0005 66.8016V66.8016Z" fill="#DE768E"/>
<path d="M99.8109 76.521C99.8809 70.581 100.311 58.151 99.1309 53.291C105.401 49.571 108.131 63.401 101.411 66.131L101.671 76.261C101.821 77.131 100.101 78.691 99.8109 76.521V76.521ZM101.331 64.521C103.231 62.851 104.571 59.221 103.331 56.441C102.921 55.731 102.531 55.441 100.911 54.231C100.921 56.001 101.341 62.141 101.331 64.551V64.521Z" fill="#DE768E"/>
<path d="M107.67 76.521C107.75 70.581 108.17 58.151 106.99 53.291C113.26 49.571 115.99 63.401 109.28 66.131L109.53 76.261C109.68 77.131 108 78.691 107.67 76.521ZM109.2 64.521C111.09 62.851 112.43 59.221 111.2 56.441C110.8 55.731 110.4 55.441 108.79 54.231C108.79 56.001 109.2 62.141 109.2 64.551V64.521Z" fill="#DE768E"/>
<path d="M117.54 77.001L117.7 70.711C118.88 69.361 111.98 49.101 116.07 53.541C116.78 55.151 117.31 58.341 117.98 61.421C119.78 46.131 121.67 54.641 119.25 64.241L119.16 65.371V65.861L119.33 74.491L119.45 76.111C119.81 76.761 118.53 79.111 117.54 77.001V77.001Z" fill="#DE768E"/>
</g>
<defs>
<clipPath id="clip0_3_23292">
<rect width="200" height="188" fill="white"/>
</clipPath>
</defs>
</svg>
