<svg width="200" height="186" viewBox="0 0 200 186" fill="none" xmlns="http://www.w3.org/2000/svg">
<path d="M98.1165 43.2926C134.378 -12.2513 209.411 23.6067 187.528 87.1028C165.644 150.599 97.9665 185.672 97.9665 185.672C97.9665 185.672 30.2887 150.621 8.40534 87.1028C-13.478 23.5844 61.5553 -12.2513 97.8165 43.2926H98.1165Z" fill="#B4E0D9"/>
<path d="M52.2772 152.03C60.2995 148.527 62.0661 134.861 56.1161 129.977C56.6711 128.252 56.7989 126.417 56.4883 124.631C56.0217 121.123 53.3272 116.573 50.0439 114.462C48.5589 113.421 46.8424 112.759 45.0439 112.535C42.5495 103.664 27.7939 101.225 22.6328 107.524C20.9115 106.967 19.0811 106.839 17.2995 107.15H17.2217C26.8161 125.038 39.6606 140.051 52.2772 152.03Z" fill="#A4CCC6"/>
<path d="M173.889 110.425C171.006 90.0711 165.506 94.0751 163.333 110.542C158.139 101.32 153.333 104.277 156 113.477C139.578 101.12 138.572 107.908 148.633 121.023C138.456 118.188 137.144 123.685 145.522 128.301C125.217 131.192 129.211 136.705 145.639 138.882C136.439 144.089 139.389 148.906 148.567 146.233C147.85 147.241 147.144 148.277 146.461 149.313C160.128 135.886 173.756 118.907 182.939 98.636C179.713 102.4 176.692 106.336 173.889 110.425V110.425Z" fill="#A4CCC6"/>
<path d="M152.089 47.0352C153.453 47.4781 154.904 47.5813 156.317 47.3359C159.555 46.7427 162.435 44.9066 164.344 42.2182C165.164 41.0372 165.687 39.6749 165.867 38.2476C170.267 37.2786 173.589 30.3621 172.439 25.3389C158.856 15.0922 140 12.4582 122.844 20.7056C122.428 24.2586 123.522 27.5164 125.594 29.2706C125.152 30.6377 125.049 32.0924 125.294 33.5085C125.887 36.7532 127.718 39.6382 130.4 41.5499C131.575 42.373 132.933 42.8967 134.356 43.0758C136.194 49.9923 148.028 52.0695 152.089 47.0352V47.0352Z" fill="#A4CCC6"/>
<path d="M141.817 19.8242C126.395 19.8242 110.045 27.7097 98.1112 45.9979H97.8223C62.3668 -8.78303 -15.3499 29.2579 16.4501 97.4542C40.5557 152.074 97.9056 181.544 97.9668 181.644C97.9668 181.644 162.45 148.231 183.306 87.7421C196.95 48.1419 171.039 19.8187 141.817 19.8242V19.8242ZM178.661 86.1327C164.983 126.785 126.811 159.564 97.9668 176.025C73.7056 162.989 39.7279 132.271 26.6668 106.871C-16.0666 35.857 60.4445 -5.25237 93.7168 51.9009C97.0945 57.9208 99.4779 56.562 102.217 51.9009C134.228 -1.81638 197.517 32.343 178.661 86.1327V86.1327Z" fill="#A4CCC6"/>
<path d="M143.983 15.8203C127.799 15.8203 110.649 24.1012 98.116 43.2915H97.816C60.6715 -14.0678 -20.3173 25.5714 12.0215 96.4073C37.0493 154.323 97.8938 185.509 97.966 185.643C97.966 185.643 165.644 150.592 187.527 87.0739C201.849 45.5413 174.655 15.8147 143.983 15.8203V15.8203ZM182.649 85.4311C168.26 128.083 128.388 162.365 97.966 179.751C71.7938 165.573 36.716 133.641 22.8993 106.799C-21.7173 31.2238 59.1493 -7.79723 93.5049 46.1205L97.9493 52.6806L102.394 46.1205C135.455 -4.62298 202.672 28.0718 182.649 85.4144V85.4311Z" fill="white"/>
<path d="M79.0442 68.7138H84.3497C84.2053 76.1315 85.4942 74.6112 85.0719 65.5507C85.0719 64.1083 85.2386 63.4289 84.7053 63.1895C83.8164 63.479 84.6053 67.2881 84.3497 68.0065H79.0442C79.3275 62.226 77.933 60.4997 78.3219 70.028C78.2386 76.655 79.4775 71.8379 79.0442 68.7138Z" fill="white"/>
<path d="M87.3666 73.5078C87.7944 73.4465 87.7944 73.363 87.8388 73.285L88.7555 70.8459H93.4555L94.3666 73.285C94.7444 73.5913 94.5944 73.5133 94.8388 73.5078C95.0184 73.4265 95.1037 73.2189 95.0332 73.0344L91.4499 63.4838C90.9777 63.0105 90.7944 63.4838 90.7444 63.4838L87.161 73.0678C87.1166 73.2448 87.2025 73.4286 87.3666 73.5078V73.5078ZM91.111 64.5976L93.1888 70.1664H89.0166L91.111 64.5976Z" fill="white"/>
<path d="M98.0498 72.9514V69.12C106.033 70.2728 104.789 60.9672 97.3275 63.5511C97.5164 63.8853 96.7387 76.1869 98.0498 72.9514ZM98.0498 63.9187C101.611 62.933 105.444 66.7978 100.6 68.3738H98.0498V63.9187Z" fill="white"/>
<path d="M106.666 72.9514V69.12C114.65 70.2728 113.405 60.9672 105.944 63.5511C106.111 63.8853 105.327 76.1869 106.666 72.9514ZM106.666 63.9187C110.227 62.933 114.061 66.7922 109.216 68.3738H106.666V63.9187Z" fill="white"/>
<path d="M117.183 68.5631C116.839 73.809 118.216 76.2705 117.894 68.5353C117.839 68.4406 122.033 63.3841 121.266 63.3228C121.195 63.2579 121.098 63.2273 121.003 63.2391C120.907 63.2508 120.82 63.3037 120.766 63.3841L117.522 67.8392L114.3 63.3841C114.245 63.3035 114.158 63.2505 114.061 63.2388C113.964 63.2271 113.867 63.2577 113.794 63.3228C113.648 63.4481 113.617 63.6625 113.722 63.824L117.183 68.5631Z" fill="white"/>
<path d="M74.3661 78.6271C75.5717 78.2595 76.3884 78.5937 76.4939 80.2476C75.8328 90.7282 70.6661 98.714 70.2439 99.6328C70.9272 106.789 81.9106 79.1227 88.4717 80.1418C91.1217 83.149 75.405 101.521 87.9995 103.191C89.7772 103.102 89.0217 102.573 88.0884 102.696C79.0995 101.582 91.8495 84.6192 90.8161 79.5459C88.2495 74.2388 77.2383 89.7035 75.2939 93.017C81.8828 77.7639 76.3606 69.9285 66.2272 87.7377C65.605 88.7958 65.5439 88.2222 65.8217 87.3925C75.6717 63.3795 41.0717 77.001 47.2161 93.0727C53.0828 102.462 66.6606 86.2509 56.6606 85.6773C52.8828 86.9303 64.6828 84.5134 55.9439 94.1252C50.1995 98.0568 45.2717 91.6137 49.5939 83.9342C57.9272 71.5212 75.9939 67.3446 58.0328 100.942C60.6106 106.327 65.7995 83.5332 74.3661 78.6271V78.6271Z" fill="white"/>
<path d="M131.667 93.6074C131.011 94.9495 129.083 98.8532 127.806 98.8198C125.583 97.8174 130.722 91.4188 130.233 89.6423C128.805 89.7884 127.368 89.8312 125.933 89.7704C127.6 89.13 128.561 85.3153 126.378 85.6272C125.028 88.2446 124.333 92.3599 122.533 95.6901C120.117 98.9089 115.906 101.977 117.25 94.8269C119.178 94.7211 122.806 93.0672 123.272 90.4498C122.595 85.8889 117.511 89.8929 115.661 93.9972C114.711 95.5565 113.689 98.1571 112.172 98.9646C108.589 99.9002 115.128 89.1857 114.911 89.3917C113.856 89.0186 110.645 90.9844 109.15 92.3265C108.225 93.1623 107.381 94.0833 106.628 95.0776C109.183 89.8595 113.233 82.2135 114.6 80.8101C111.55 79.5181 108.439 87.1642 105.539 93.702L105.111 94.6655C103.778 97.1547 100.256 101.348 100.25 96.7761C100.25 96.7761 100.683 94.4037 100.967 93.5907C102.606 92.099 104.004 90.3612 105.111 88.4395H106.917C107.861 87.4649 105.878 87.8046 105.483 87.7545C111.011 77.2182 103.933 80.0193 101.339 87.7545C99.6001 87.4204 97.6612 88.6121 101.028 88.4395C100.214 90.2294 99.5757 92.0944 99.1223 94.0083C97.7778 95.8461 96.0778 100.869 93.5223 98.0513C97.7723 94.6209 98.3278 85.3432 91.7778 89.8205C87.3334 92.8222 86.1223 102.807 92.9334 98.5469C93.4427 99.1044 94.175 99.4029 94.9278 99.36C96.3501 99.3043 97.8112 97.6893 98.7667 96.1245C98.4945 98.9089 99.3223 100.786 102.9 98.7363C102.933 98.792 103.15 98.5581 103.456 98.1794C103.145 98.7808 102.839 99.3433 102.533 99.8501C102.866 99.7003 103.231 99.6371 103.595 99.6663C106.572 98.4356 108.006 91.5135 111.533 91.6972C111.595 93.5183 106.633 99.1651 111.256 99.7554C112.283 99.8556 113.906 98.2852 115.017 96.609C114.983 98.1738 115.817 99.4324 118.072 99.7554C119.215 99.7289 120.306 99.2716 121.128 98.4746C121.161 98.46 121.191 98.4392 121.217 98.4133C121.249 98.3845 121.279 98.3528 121.306 98.3186C122.489 97.2185 123.356 95.8204 123.817 94.2701C124.456 92.9168 124.989 91.5413 125.361 90.5167C132.122 89.9598 120.917 98.7864 127.539 99.5995C128.689 100.012 133.272 93.0004 131.667 93.6074V93.6074ZM119.333 91.3798C124.917 85.2207 122.367 94.3647 117.467 94.3146C117.991 93.2725 118.612 92.2824 119.322 91.3575L119.333 91.3798ZM105.445 83.2326C107.378 80.5205 106.939 83.2938 106.35 84.6081C105.886 85.6957 105.367 86.7588 104.795 87.7935H103.222C103.828 86.2056 104.568 84.6724 105.433 83.2103L105.445 83.2326ZM102.922 88.4784H104.389C103.497 89.9769 102.441 91.3704 101.239 92.6328C101.667 91.5135 102.256 89.9876 102.911 88.4562L102.922 88.4784ZM92.0834 96.6257C92.0978 97.1741 92.2716 97.7063 92.5834 98.1571C91.839 98.7808 91.0556 99.0927 90.4667 98.9368C89.3556 98.5915 89.6278 96.4085 90.839 93.8468C91.9945 91.3798 93.9223 89.3917 95.2834 89.7593C96.9501 90.021 95.2834 95.1611 94.0723 96.5644C94.289 94.5485 91.8334 95.3616 92.0723 96.6034L92.0834 96.6257Z" fill="white"/>
<path d="M135.05 82.6468C138.838 82.5132 139.038 74.2935 135.422 78.6206C135.3 79.9515 136.838 80.0963 137.355 79.5895C137.572 81.2435 134.355 82.4185 135.05 82.6468Z" fill="white"/>
<path d="M139.189 99.041C144.744 96.535 136.444 88.3822 141.933 87.9534C140.611 84.3615 136.606 93.3831 135.639 95.3544C133.194 96.0171 134.628 101.057 138.472 99.442C141.994 100.506 143.861 96.3234 145.017 93.7283C143.939 92.7037 142.544 100.049 139.189 99.041V99.041ZM136.356 96.7578C136.348 97.7 136.816 98.5822 137.6 99.1023C135.861 99.7483 135.406 97.7323 136.356 96.7578ZM138.133 98.8183C137.254 98.3556 136.738 97.4097 136.822 96.4181C136.856 95.3878 136.167 95.4157 136.167 95.4157C136.917 94.0457 138.256 91.3281 139.094 89.6408C138.922 91.885 140.461 97.3091 138.133 98.8183V98.8183Z" fill="white"/>
<path d="M92.2493 107.736C92.6326 106.978 94.2493 104.506 94.9882 104.522C95.5882 103.119 92.0604 105.28 90.9104 106.956C82.4049 101.209 61.8549 108.766 71.2604 117.381C73.4826 118.962 77.9271 118.105 78.8326 114.596C79.216 113.533 78.516 113.483 78.3271 113.75C77.8993 117.96 70.2215 118.985 70.4493 113.861C71.5604 106.187 84.0382 103.743 90.0382 107.914C85.1437 113.377 82.816 121.931 78.1993 126.363C77.2049 125.807 74.6493 124.492 73.466 124.052C61.9993 121.229 66.7715 135.474 78.466 127.488C94.3771 135.725 107.36 120.215 92.2493 107.736V107.736ZM71.4437 128.897C67.6437 128.708 68.1715 123.328 72.6882 124.899C74.2967 125.513 75.8679 126.222 77.3937 127.021C75.683 128.308 73.581 128.963 71.4437 128.875V128.897ZM79.2215 126.959C83.6993 122.877 87.3882 115.309 91.5215 108.95C102.688 118.511 94.9993 134.544 79.1993 126.937L79.2215 126.959Z" fill="white"/>
<path d="M123.416 122.659C122.644 124.948 119.366 128.979 116.972 129.185C118.611 125.399 119.261 120.181 121.894 117.881C117.594 116.823 117.45 124.363 113.288 127.476C108.944 130.065 114.577 118.71 116.222 117.881C112.922 117.134 112.333 120.108 111.15 122.436C111.101 122.497 111.058 122.562 111.022 122.631L110.816 123.043C110.005 124.652 108.211 127.899 107.022 127.838C105.438 126.462 108.972 120.86 109.611 120.13C106.216 119.251 106.144 123.11 104.294 125.198C100.405 130.528 99.5884 126.312 101.822 123.032C103.3 120.754 106.822 116.171 108.611 119.351C110.322 114.534 96.4829 119.496 99.5218 127.799C100.733 130.088 103.966 127.019 105.216 124.625C104.283 127.905 105.744 128.712 106.772 128.651C108.183 128.534 109.605 126.384 110.622 124.513C108.25 130.01 114.294 130.205 117.488 122.815C116.988 124.435 115.994 127.777 114.811 129.837C94.2551 133.145 107.444 147.351 116.477 130.149C120.961 128.528 121.772 127.214 123.888 122.909C124.166 122.319 123.7 122.096 123.416 122.659V122.659ZM113.544 132.026C112.111 133.991 108.811 137.862 106.072 137.862C103.333 137.862 104.577 134.181 107.738 132.805C109.511 132.026 112.183 131.402 114.216 130.873L113.544 132.026Z" fill="white"/>
<path d="M176.3 125.387C172.411 135.968 167.678 131.474 166.544 129.447C165.661 122.764 174.816 109.867 177.166 108.53C182.878 107.294 176.622 123.951 176.3 125.387V125.387Z" fill="#CA8095"/>
<path opacity="0.1" d="M176.695 124.358C176.384 124.703 181.695 110.435 178.395 108.637L168.95 131.614C171.795 132.995 173.889 131.709 176.695 124.358V124.358Z" fill="black"/>
<path d="M159.999 141.744C163.888 131.163 168.621 135.657 169.755 137.684C170.638 144.367 161.483 157.27 159.133 158.601C153.416 159.826 159.671 143.18 159.999 141.744V141.744Z" fill="#CA8095"/>
<path opacity="0.1" d="M159.6 142.781C159.9 142.447 154.6 156.703 157.9 158.496L167.344 135.519C164.494 134.138 162.389 135.43 159.6 142.781V142.781Z" fill="black"/>
<path d="M176.306 141.739C165.75 137.841 170.233 133.096 172.256 131.96C178.922 131.075 191.789 140.252 193.122 142.608C194.356 148.333 177.739 142.062 176.306 141.739Z" fill="#CA8095"/>
<path opacity="0.1" d="M177.339 142.134C177 141.822 191.178 147.146 193.017 143.838L170.095 134.371C168.717 137.228 170 139.339 177.339 142.134Z" fill="black"/>
<path d="M160 125.394C170.555 129.292 166.072 134.037 164.05 135.173C157.383 136.058 144.511 126.881 143.183 124.525C141.933 118.801 158.555 125.071 160 125.394V125.394Z" fill="#CA8095"/>
<path opacity="0.1" d="M160 125.393C160.184 125.56 145.306 119.908 143.289 123.294L166.211 132.761C167.133 130.494 167.584 128.528 160 125.393V125.393Z" fill="black"/>
<path d="M179.677 133.563C169.189 138.575 168.911 130.979 170.233 129.03C174.544 124.229 192.188 120.565 192.766 122.837C195.283 126.306 180.844 132.805 179.677 133.563Z" fill="#CA8095"/>
<path opacity="0.1" d="M180.689 133.096C180.233 133.124 194.022 126.792 192.978 123.184L170.089 132.74C171.111 135.753 173.533 136.332 180.689 133.096V133.096Z" fill="black"/>
<path d="M156.611 133.568C167.105 128.556 167.383 136.158 166.055 138.101C161.744 142.902 144.099 146.566 143.516 144.294C141.011 140.825 155.449 134.326 156.611 133.568Z" fill="#CA8095"/>
<path opacity="0.1" d="M155.6 134.019C156.067 134.019 142.267 140.312 143.317 143.932L166.2 134.375C165.161 131.379 162.778 130.8 155.6 134.019V134.019Z" fill="black"/>
<path d="M168.15 145.13C163.15 134.611 170.728 134.332 172.672 135.663C177.461 139.985 181.117 157.671 178.85 158.256C175.389 160.768 168.889 146.294 168.15 145.13Z" fill="#CA8095"/>
<path opacity="0.1" d="M168.6 146.137C168.6 145.686 174.883 159.503 178.483 158.456L168.955 135.518C165.966 136.559 165.389 138.959 168.6 146.137Z" fill="black"/>
<path d="M168.145 122.009C173.145 132.523 165.561 132.801 163.622 131.476C158.833 127.154 155.178 109.467 157.439 108.888C160.906 106.366 167.389 120.845 168.145 122.009V122.009Z" fill="#CA8095"/>
<path opacity="0.1" d="M168.145 122.007C168.145 122.252 161.617 107.706 157.806 108.675L167.339 131.619C169.595 130.672 171.3 129.603 168.145 122.007V122.007Z" fill="black"/>
<path d="M173.25 121.261C173.955 134.66 165.611 131.636 164.222 129.253C161.011 122.57 165.283 100.851 167.944 101.965C172.116 101.353 173.116 119.958 173.25 121.261V121.261Z" fill="#ED96AF"/>
<path opacity="0.1" d="M173.233 120.287C173.078 120.777 172.406 102.807 168.145 101.943V131.135C171.695 131.33 173.4 129.325 173.233 120.287Z" fill="black"/>
<path d="M163.039 145.871C162.339 132.472 170.678 135.496 172.066 137.88C175.283 144.562 171.011 166.281 168.35 165.167C164.178 165.796 163.178 147.174 163.039 145.871V145.871Z" fill="#ED96AF"/>
<path opacity="0.1" d="M163.039 145.87C163.15 145.697 163.711 164.002 168.145 165.188V136.002C165.328 136.002 163.039 136.381 163.039 145.87Z" fill="black"/>
<path d="M180.422 138.664C167.055 139.366 170.072 131.007 172.45 129.614C179.117 126.39 200.755 130.673 199.672 133.34C200.3 137.55 181.722 138.547 180.422 138.664V138.664Z" fill="#ED96AF"/>
<path opacity="0.1" d="M181.722 138.664C181.272 138.481 198.828 137.812 199.694 133.58H170.556C170.306 137.295 172.839 138.898 181.722 138.664V138.664Z" fill="black"/>
<path d="M155.872 128.451C169.239 127.743 166.217 136.108 163.844 137.5C157.178 140.719 135.511 136.436 136.622 133.769C135.994 129.587 154.572 128.584 155.872 128.451Z" fill="#ED96AF"/>
<path opacity="0.1" d="M155.872 128.451C156.05 128.557 137.772 129.125 136.6 133.569H165.716C165.716 130.74 165.338 128.451 155.872 128.451Z" fill="black"/>
<path d="M180.439 128.485C171.489 138.414 167.85 130.478 168.378 127.872C170.922 120.632 188.006 109.495 189.878 110.787C194.622 112.669 181.306 127.349 180.439 128.485Z" fill="#FFA1BC"/>
<path opacity="0.1" d="M181.339 127.527C180.922 127.633 192.756 114.963 190.456 111.193L169.861 131.837C172.311 134.677 175.228 134.003 181.339 127.527Z" fill="black"/>
<path d="M155.855 138.665C164.805 128.736 168.444 136.671 167.917 139.278C165.367 146.517 148.289 157.655 146.417 156.363C141.667 154.464 155 139.779 155.855 138.665Z" fill="#FFA1BC"/>
<path opacity="0.1" d="M154.956 139.594C155.378 139.483 143.533 152.158 145.839 155.928L166.428 135.289C163.983 132.46 161.067 133.129 154.956 139.594Z" fill="black"/>
<path d="M173.216 145.904C163.31 136.932 171.227 133.285 173.827 133.814C181.049 136.37 192.16 153.488 190.871 155.365C188.994 160.104 174.349 146.756 173.216 145.904Z" fill="#FFA1BC"/>
<path opacity="0.1" d="M174.161 146.789C174.061 146.371 186.683 158.233 190.456 155.927L169.861 135.289C167.039 137.739 167.711 140.669 174.161 146.789V146.789Z" fill="black"/>
<path d="M163.078 121.245C172.983 130.216 165.067 133.864 162.467 133.335C155.244 130.784 144.133 113.66 145.422 111.783C147.3 107.027 161.944 120.376 163.078 121.245V121.245Z" fill="#FFA1BC"/>
<path opacity="0.1" d="M163.078 121.244C163.078 121.423 149.972 108.965 145.855 111.22L166.444 131.864C168.422 129.848 169.772 127.955 163.078 121.244V121.244Z" fill="black"/>
<path opacity="0.1" d="M179.655 133.569C178.8 149.363 157.033 148.327 156.639 133.569C157.494 117.771 179.255 118.806 179.655 133.569Z" fill="black"/>
<path d="M178.389 133.568C177.583 147.691 158.239 146.627 157.905 133.568C158.711 119.446 178.05 120.504 178.389 133.568Z" fill="#FCF8F0"/>
<path d="M176.172 133.569C175.522 144.668 160.367 143.732 160.122 133.569C160.767 122.465 175.928 123.406 176.172 133.569Z" fill="#F8E7CE"/>
<path d="M173.489 127.566C181.822 143.215 154.194 142.101 162.805 127.566C157.444 132.417 160.766 141.099 167.55 141.589C175.355 142.285 178.95 132.339 173.489 127.566V127.566Z" fill="#E6D2B5"/>
<path d="M172.222 130.901C171.994 136.392 164.211 136.125 164.044 130.901C164.288 125.416 172.072 125.683 172.222 130.901Z" fill="#FCF8F0"/>
<path d="M164.85 21.0117C132.539 33.5917 152.528 5.26848 158.6 6.05926C165.944 6.19291 170.111 17.7205 164.85 21.0117Z" fill="#D691A5"/>
<path opacity="0.1" d="M165.583 10.5801C174.044 24.5468 149.144 26.0281 147.25 22.2747L165.583 10.5801Z" fill="black"/>
<path d="M129.617 23.5231C161.928 10.943 141.939 39.2662 135.867 38.4754C128.522 38.3418 124.356 26.8143 129.617 23.5231V23.5231Z" fill="#D691A5"/>
<path opacity="0.1" d="M128.889 33.9696C120.427 20.0029 145.333 18.5215 147.222 22.2749L128.889 33.9696Z" fill="black"/>
<path d="M148.489 39.9224C135.933 7.53948 164.195 27.5707 163.406 33.663C163.272 41.0195 151.767 45.2017 148.489 39.9224Z" fill="#D691A5"/>
<path opacity="0.1" d="M158.889 40.6526C145 49.1452 143.494 24.1799 147.222 22.2754L158.889 40.6526Z" fill="black"/>
<path d="M145.978 4.61066C158.533 36.9936 130.272 16.9624 131.061 10.8701C131.195 3.50803 142.7 -0.668617 145.978 4.61066V4.61066Z" fill="#D691A5"/>
<path opacity="0.1" d="M135.556 3.89857C149.489 -4.58281 150.967 20.3824 147.222 22.2758L135.556 3.89857Z" fill="black"/>
<path opacity="0.1" d="M162.605 7.44458C156.36 3.49069 153.088 8.87021 148.91 14.6841C147.627 7.67291 146.916 1.3968 139.577 2.28782C139.705 5.65063 140.15 8.99381 140.905 12.2728C138.263 10.1964 135.43 8.3765 132.444 6.83758C128.505 13.097 133.871 16.377 139.666 20.5593C132.677 21.8457 126.41 22.564 127.299 29.9149C130.654 29.7894 133.989 29.3457 137.26 28.5896C135.189 31.2362 133.374 34.0742 131.838 37.0654C138.083 41.0137 141.355 35.6342 145.533 29.8258C146.81 36.837 147.527 43.1131 154.866 42.2221C154.738 38.8593 154.293 35.5161 153.538 32.2372C156.18 34.3135 159.013 36.1334 161.999 37.6724C165.938 31.413 160.571 28.1329 154.777 23.9451C161.766 22.6643 168.033 21.9459 167.138 14.595C163.785 14.7209 160.452 15.1647 157.183 15.9204C159.254 13.2738 161.069 10.4357 162.605 7.44458V7.44458Z" fill="black"/>
<path d="M159.161 8.47555C144.638 41.4933 138.655 5.52406 143.844 2.03795C149.405 -3.05756 160.555 2.27184 159.161 8.47555Z" fill="#EDB2C3"/>
<path opacity="0.1" d="M152.1 0.322266C168.495 4.34298 151.206 23.7115 147.233 22.2636L152.1 0.322266Z" fill="black"/>
<path d="M135.306 36.0573C149.828 3.03948 155.811 39.0088 150.622 42.4949C145.061 47.5904 133.889 42.261 135.306 36.0573Z" fill="#EDB2C3"/>
<path opacity="0.1" d="M142.361 44.2109C125.966 40.1902 143.261 20.8217 147.233 22.264L142.361 44.2109Z" fill="black"/>
<path d="M160.989 34.2208C128.05 19.6638 163.939 13.6717 167.411 18.8674C172.5 24.4474 167.178 35.6408 160.989 34.2208Z" fill="#EDB2C3"/>
<path opacity="0.1" d="M169.122 27.1476C165.117 43.5813 145.789 26.2454 147.233 22.2637L169.122 27.1476Z" fill="black"/>
<path d="M133.477 10.3074C166.416 24.8699 130.555 30.862 127.055 25.6663C121.966 20.0863 127.288 8.90957 133.477 10.3074V10.3074Z" fill="#EDB2C3"/>
<path opacity="0.1" d="M125.344 17.3852C129.349 0.951519 148.677 18.2874 147.233 22.2636L125.344 17.3852Z" fill="black"/>
<path d="M156.444 24.3196C152.839 36.9219 135.717 31.9433 138.022 20.2153C141.628 7.61299 158.75 12.5916 156.444 24.3196Z" fill="#B4E0D9"/>
<path d="M154.811 23.946C151.85 34.3263 137.777 30.1998 139.655 20.6047C142.611 10.2076 156.711 14.3341 154.811 23.946Z" fill="#81A19C"/>
<path d="M154.228 23.8224C151.561 33.3396 138.483 29.6196 140.239 20.7039C142.9 11.1923 155.983 14.9123 154.228 23.8224Z" fill="#9DC4BE"/>
<path d="M149.555 17.3361C149.367 17.9334 148.754 18.2872 148.144 18.1509C147.534 18.0147 147.129 17.4337 147.211 16.8127C147.399 16.2154 148.012 15.8616 148.622 15.9979C149.232 16.1341 149.637 16.7151 149.555 17.3361Z" fill="#D9F5F0"/>
<path d="M143.189 23.1564C143 23.7537 142.388 24.1075 141.778 23.9713C141.167 23.835 140.762 23.2541 140.845 22.633C141.033 22.0357 141.646 21.6819 142.256 21.8182C142.866 21.9544 143.271 22.5354 143.189 23.1564V23.1564Z" fill="#D9F5F0"/>
<path d="M150.594 26.3804C150.452 27.0294 149.811 27.4395 149.164 27.2965C148.517 27.1535 148.107 26.5114 148.25 25.8625C148.393 25.2135 149.033 24.8034 149.681 24.9464C150.328 25.0894 150.737 25.7314 150.594 26.3804Z" fill="#D9F5F0"/>
<path d="M149.656 20.9787C149.467 21.576 148.854 21.9297 148.244 21.7935C147.634 21.6573 147.229 21.0763 147.311 20.4552C147.5 19.8579 148.113 19.5042 148.723 19.6404C149.333 19.7766 149.738 20.3576 149.656 20.9787Z" fill="#D9F5F0"/>
<path d="M142.634 20.1266C142.395 21.3685 140.062 19.8371 142.078 19.2969C142.317 19.3748 142.512 19.4528 142.634 20.1266Z" fill="#D9F5F0"/>
<path d="M148.055 27.7614C147.816 29.0088 145.489 27.4774 147.533 26.9316C147.739 27.0096 147.933 27.0876 148.055 27.7614Z" fill="#D9F5F0"/>
<path d="M152.722 25.7341C152.483 26.9815 150.15 25.45 152.194 24.9043C152.405 24.9878 152.6 25.0602 152.722 25.7341Z" fill="#D9F5F0"/>
<path d="M151.739 18.8727C151.5 20.1202 149.172 18.5887 151.211 18.043C151.422 18.1265 151.617 18.1989 151.739 18.8727Z" fill="#D9F5F0"/>
<path d="M145.883 22.2748C145.089 24.4411 142.25 21.4283 145.094 21.0273C145.615 21.2083 145.942 21.7256 145.883 22.2748Z" fill="#D9F5F0"/>
<path d="M148.556 23.9469C147.756 26.1188 144.917 23.1005 147.767 22.7051C148.285 22.8856 148.612 23.3997 148.556 23.9469Z" fill="#D9F5F0"/>
<path d="M146.755 18.8841C146.344 20.8109 143.022 20.5882 143.333 18.1212C143.739 16.1888 147.061 16.4115 146.755 18.8841Z" fill="#D9F5F0"/>
<path d="M146.484 26.1743C146.078 28.1011 142.75 27.8783 143.062 25.4113C143.473 23.4511 146.795 23.6738 146.484 26.1743Z" fill="#D9F5F0"/>
<path d="M153.716 22.9388C153.311 24.8656 149.989 24.6429 150.294 22.1759C150.705 20.2435 154.028 20.4662 153.716 22.9388Z" fill="#D9F5F0"/>
<path d="M49.7052 133.948C8.67191 149.848 35.1941 113.31 42.1886 115.276C51.2163 115.833 56.2275 129.839 49.7052 133.948Z" fill="#D9C387"/>
<path opacity="0.06" d="M50.6224 120.91C61.289 138.591 29.5112 140.061 27.7168 135.517L50.6224 120.91Z" fill="black"/>
<path d="M5.72782 137.084C46.7556 121.185 20.2334 157.722 13.2389 155.739C4.21115 155.177 -0.799962 141.199 5.72782 137.084V137.084Z" fill="#D9C387"/>
<path opacity="0.06" d="M4.80503 150.125C-5.86163 132.439 25.9161 130.969 27.7161 135.518L4.80503 150.125Z" fill="black"/>
<path d="M29.2771 157.56C13.4215 116.428 49.866 143.014 47.8882 150.025C47.3271 159.074 33.3826 164.098 29.2771 157.56Z" fill="#D9C387"/>
<path opacity="0.06" d="M42.2884 158.478C24.644 169.17 23.1773 137.316 27.7162 135.518L42.2884 158.478Z" fill="black"/>
<path d="M26.15 113.476C42.0111 154.602 5.56112 128.016 7.5389 121.005C8.10001 111.933 22.05 106.921 26.15 113.476Z" fill="#D9C387"/>
<path opacity="0.06" d="M13.1445 112.552C30.7834 101.86 32.2501 133.714 27.7168 135.518L13.1445 112.552Z" fill="black"/>
<path opacity="0.06" d="M46.8993 117.013C39.0659 112.062 35.0159 118.823 29.8104 126.079C28.2104 117.169 27.2159 109.445 18.1437 110.609C18.3036 114.805 18.8616 118.976 19.8104 123.066C16.5135 120.476 12.9792 118.205 9.25483 116.283C4.31594 124.141 11.0604 128.195 18.2993 133.419C9.43816 135.017 1.70483 136.014 2.86594 145.113C7.05204 144.953 11.2134 144.394 15.2937 143.443C12.7098 146.748 10.4442 150.29 8.52705 154.024C16.3659 158.974 20.4104 152.214 25.6215 144.958C27.2159 153.84 28.2104 161.592 37.2882 160.433C37.1287 156.235 36.5706 152.062 35.6215 147.97C38.9184 150.56 42.4527 152.831 46.177 154.753C51.1159 146.901 44.3771 142.841 37.1326 137.618C46.0215 136.019 53.7271 135.023 52.5715 125.923C48.3835 126.083 44.2203 126.642 40.1382 127.594C42.7201 124.289 44.9839 120.746 46.8993 117.013V117.013Z" fill="black"/>
<path d="M42.6052 118.304C24.1829 160.043 16.9218 113.493 23.6829 110.085C30.7774 104.076 44.3441 110.586 42.6052 118.304Z" fill="#F7E1A3"/>
<path opacity="0.06" d="M33.7946 108.125C39.6168 109.423 43.5612 113.983 42.6057 118.305C41.6501 122.626 33.539 136.816 27.7168 135.518L33.7946 108.125Z" fill="black"/>
<path d="M12.8277 152.726C31.2444 110.988 38.5055 157.538 31.7444 160.94C24.6499 166.955 11.111 160.445 12.8277 152.726Z" fill="#F7E1A3"/>
<path opacity="0.06" d="M21.6667 162.906C15.8111 161.609 11.8667 157.042 12.8278 152.726C13.7889 148.41 21.8889 134.21 27.7167 135.518L21.6667 162.906Z" fill="black"/>
<path d="M44.8831 150.442C3.24425 131.981 49.6831 124.697 53.0831 131.474C59.0776 138.586 52.5831 152.185 44.8831 150.442V150.442Z" fill="#F7E1A3"/>
<path opacity="0.06" d="M55.0391 141.61C53.7446 147.446 49.2002 151.4 44.8835 150.442C40.5668 149.484 26.4168 141.354 27.7168 135.518L55.0391 141.61Z" fill="black"/>
<path d="M10.5553 120.594C52.2219 139.055 5.75528 146.334 2.35528 139.528C-3.65028 132.445 2.84417 118.851 10.5553 120.594V120.594Z" fill="#F7E1A3"/>
<path opacity="0.06" d="M0.388672 129.426C1.66645 123.584 6.23312 119.63 10.5553 120.594C14.8776 121.557 29.022 129.677 27.7276 135.518L0.388672 129.426Z" fill="black"/>
<path opacity="0.06" d="M40.8552 138.448C35.8552 156.24 11.3052 149.586 14.5774 132.589C19.5552 114.791 44.1218 121.446 40.8552 138.448Z" fill="black"/>
<path d="M39.2106 138.108C34.8495 153.701 13.3439 147.809 16.2161 132.979C20.555 117.364 42.0828 123.251 39.2106 138.108Z" fill="#B4E0D9"/>
<path d="M37.1723 137.623C33.4946 150.542 15.889 145.486 18.2834 133.407C21.9334 120.487 39.5446 125.544 37.1723 137.623Z" fill="#7BA8A1"/>
<path d="M36.4446 137.461C33.1112 149.339 16.7946 144.74 18.9835 133.563C22.3224 121.69 38.6335 126.29 36.4446 137.461Z" fill="#A4CCC6"/>
<path d="M30.6166 129.358C30.2944 130.895 27.4999 130.923 27.6888 128.707C28.0111 127.175 30.8055 127.147 30.6166 129.358Z" fill="#D9F5F0"/>
<path d="M22.6663 136.62C22.3496 138.157 19.5496 138.179 19.744 135.968C20.0607 134.437 22.8607 134.409 22.6663 136.62Z" fill="#D9F5F0"/>
<path d="M31.9055 140.653C31.5889 142.185 28.7889 142.213 28.9833 140.002C29.3 138.465 32.1 138.442 31.9055 140.653Z" fill="#D9F5F0"/>
<path d="M30.7387 133.909C30.4165 135.441 27.622 135.468 27.8109 133.258C28.1331 131.721 30.9276 131.693 30.7387 133.909Z" fill="#D9F5F0"/>
<path d="M21.9715 132.839C21.3104 134.643 18.9437 132.137 21.3159 131.803C21.7483 131.953 22.02 132.382 21.9715 132.839Z" fill="#D9F5F0"/>
<path d="M28.7441 142.374C28.0775 144.178 25.7163 141.672 28.0886 141.338C28.5209 141.488 28.7927 141.918 28.7441 142.374Z" fill="#D9F5F0"/>
<path d="M34.5664 139.844C33.8997 141.649 31.5386 139.137 33.9108 138.809C34.3445 138.957 34.6171 139.388 34.5664 139.844Z" fill="#D9F5F0"/>
<path d="M33.3328 131.28C32.6717 133.084 30.305 130.578 32.6772 130.244C33.1096 130.394 33.3813 130.824 33.3328 131.28Z" fill="#D9F5F0"/>
<path d="M26.0273 135.502C25.8597 136.186 25.1785 136.611 24.4924 136.46C23.8063 136.309 23.3656 135.637 23.4995 134.945C23.6671 134.261 24.3483 133.836 25.0345 133.988C25.7206 134.139 26.1612 134.811 26.0273 135.502Z" fill="#D9F5F0"/>
<path d="M29.3665 137.578C29.1737 138.234 28.5076 138.629 27.841 138.483C27.1744 138.336 26.7343 137.698 26.8332 137.021C27.026 136.365 27.6921 135.97 28.3587 136.116C29.0253 136.263 29.4653 136.901 29.3665 137.578Z" fill="#D9F5F0"/>
<path d="M27.1161 131.292C26.4605 133.92 22.4327 133.246 22.8438 130.339C23.4994 127.711 27.5327 128.385 27.1161 131.292Z" fill="#D9F5F0"/>
<path d="M26.7772 140.335C26.1216 142.958 22.0939 142.289 22.505 139.377C23.1605 136.776 27.2216 137.444 26.7772 140.335V140.335Z" fill="#D9F5F0"/>
<path d="M35.8104 136.354C35.1548 138.977 31.1271 138.309 31.5382 135.402C32.2215 132.773 36.2215 133.441 35.8104 136.354Z" fill="#D9F5F0"/>
</svg>
