<svg width="164" height="76" viewBox="0 0 164 76" fill="none" xmlns="http://www.w3.org/2000/svg">
<path d="M37.6101 15.7109C34.3501 8.41088 28.6101 19.1209 24.5301 23.6009C26.4301 17.7409 29.8701 -2.99912 18.4501 9.36088C18.4501 9.41088 18.3901 9.41088 18.3901 9.46088C15.6025 13.0971 13.3061 17.0848 11.5601 21.3209C11.0601 23.0409 9.51012 24.8809 8.12012 27.7809C9.26012 24.6009 9.86012 -0.389115 0.870117 10.2609C14.0001 2.88088 -5.73988 52.2809 6.00012 41.8709C4.29012 34.2809 23.7401 -1.45912 24.0001 9.56088C22.3901 17.4709 13.3701 37.7209 20.0001 37.9409C24.2301 29.9409 24.0001 23.4909 31.4401 17.3009C42.1601 3.58088 27.3601 45.6109 36.3501 44.6809C37.4401 39.9709 36.3501 34.5309 38.1601 28.4109C39.2801 25.2309 40.2401 20.1409 37.6101 15.7109V15.7109Z" fill="black"/>
<path d="M134.38 31.6417C141.27 23.0017 121.24 44.2617 121.73 37.1017C123.48 33.9017 125.73 26.8217 119.4 27.2517C128.92 16.6417 109.58 23.7517 117 29.0217C114.66 30.4017 101.11 45.1117 103.68 34.0217C103.68 33.0217 104.19 32.2417 106.32 31.5817C114.43 26.7217 103.01 19.7717 100.32 31.2717C75.6499 60.2717 99.6899 23.5317 80.3799 36.3417C76.7199 33.5417 90.5899 5.52169 82.6099 8.27169C76.1399 14.3817 78.1199 23.5117 76.5199 32.3817C59.4199 48.4417 64.3099 41.2417 66.7299 26.4517C66.7299 25.4017 74.6199 25.5017 71.3799 23.9617C63.5799 27.3217 70.7799 15.2517 65.5499 15.0317C63.5499 18.5617 65.0999 25.0317 60.2099 26.6617C60.4899 28.0717 63.0899 26.5117 62.3199 28.8017C59.1599 31.1917 52.3199 31.4017 49.5199 32.7417C55.0799 36.5717 41.7199 47.9417 44.4099 36.4217C58.4099 14.5817 35.6799 29.7017 42.7999 43.1717C44.0499 45.1717 47.0999 43.4017 49.5199 40.9017C49.8899 40.9017 49.8899 39.6317 50.5199 38.9917C51.8799 37.1617 50.9799 32.3317 55.7599 31.9017C57.0299 31.9017 58.2999 31.0517 59.7599 30.7917C60.4745 30.5392 61.2022 30.3255 61.9399 30.1517C61.6099 33.1517 58.1999 44.6917 63.9999 44.0717C63.3699 44.4917 71.7799 39.4117 76.2299 33.9817C75.4684 36.5892 75.0548 39.2858 74.9999 42.0017C78.4799 54.0017 76.9499 36.5917 86.6399 34.8017H86.7499C87.9999 35.8017 86.6099 38.1817 86.4799 41.4717C88.3099 50.9217 97.1199 35.8517 99.8899 33.2417C100.11 49.8617 110.89 34.3617 118.01 29.4017C125.66 26.6117 110.61 44.8517 121.62 41.1817C124.03 39.1817 125.39 38.7617 128.94 36.4417C130.989 35.1302 132.824 33.5113 134.38 31.6417V31.6417ZM105.32 28.3117C107.32 23.3917 110.51 29.0417 105 31.0117C104.91 31.0117 104.7 31.2217 104.68 30.8517C105.1 30.2117 105 29.1517 105.32 28.3117V28.3117ZM82.1799 16.0817C81.5399 10.5117 86.1799 6.42169 82.0799 16.7717C82.1617 16.5514 82.1958 16.3162 82.1799 16.0817ZM120.77 22.9117C120.83 22.9117 120.88 23.0717 120.99 23.1717C118.34 28.4817 115.3 25.0017 120.77 22.9117Z" fill="black"/>
<path d="M149 11.691C149.15 11.901 147.15 12.061 148.68 12.691C167.42 5.40096 137 -6.49904 138.11 13.811C138.11 22.811 144.49 29.171 145.81 38.521C144.87 47.411 126.81 46.281 134.27 39.611C133.286 39.1845 132.142 39.3839 131.36 40.1183C130.577 40.8526 130.306 41.9816 130.67 42.991C134.67 49.511 150.61 48.891 150.31 38.611C148.91 27.861 140.46 20.491 142.37 8.67096C145.82 -1.47904 160 5.92096 149 11.691V11.691Z" fill="black"/>
<path d="M91.1797 16.2105C92.5197 17.3705 93.3097 6.46047 91.1797 7.70047V7.48047H94.1797V7.70047C92.6597 7.13047 93.2997 10.4405 93.1797 11.5605H97.1797C96.7897 10.8705 98.1797 7.36047 96.1797 7.70047V7.48047H99.1797V7.70047C97.8397 6.53047 97.0197 17.4605 99.1797 16.2105V16.4305H96.1797V16.2105C97.8297 16.7205 96.9897 13.2105 97.1797 11.9005H93.1797C93.5897 12.5705 92.1797 16.5605 94.1797 16.2105V16.4305H91.1797V16.2105Z" fill="black"/>
<path d="M99.46 16.2111C100.25 17.0411 102.73 7.84109 103 7.37109H103.81C104.13 8.37109 105.58 15.9811 107.08 16.2111V16.4311H104.68V16.2111H105.75C105.29 15.8911 105.21 15.2111 104.82 14.0311H101.18C101.24 14.4511 99.67 16.5211 101.68 16.2411V16.4611H99.46V16.2111ZM104.71 13.6711C104.59 13.1411 103.14 9.15109 103.07 8.35109H103C103 8.53109 101.53 12.9111 101.29 13.6711H104.71Z" fill="black"/>
<path d="M107.42 16.2112C108.76 17.3712 109.55 6.46118 107.42 7.70118V7.48118C115.06 5.74118 118.16 13.5612 109.42 13.4812C109.68 13.8312 108.64 16.7212 110.53 16.2512V16.4712H107.44L107.42 16.2112ZM109.19 7.83118C109.56 8.03118 109.35 12.2012 109.4 13.1212C114.92 14.2112 115.4 6.85118 109.13 7.82118L109.19 7.83118Z" fill="black"/>
<path d="M115.271 16.2112C116.601 17.3712 117.401 6.46118 115.271 7.70118V7.48118C122.911 5.74118 126.011 13.5612 117.271 13.4812C117.531 13.8312 116.491 16.7212 118.381 16.2512V16.4712H115.291L115.271 16.2112ZM117.001 7.83118C117.371 8.03118 117.161 12.2012 117.211 13.1212C122.731 14.2112 123.211 6.85118 116.931 7.82118L117.001 7.83118Z" fill="black"/>
<path d="M124.8 16.2105C126.2 16.6405 125.92 14.6005 125.9 13.2105C124.9 12.0005 124.07 7.99047 122.34 7.70047V7.48047H124.6V7.70047H123.85C124.34 8.05047 126.1 11.5805 126.59 12.6505C126.22 12.0205 130.69 7.44047 127.86 7.65047V7.48047H130.14V7.70047C129.36 7.09047 127.26 12.2805 126.74 13.0205C127.06 13.4905 125.84 16.7005 127.85 16.2105V16.4305H124.75L124.8 16.2105Z" fill="black"/>
<path d="M17.21 75.0817C18.78 76.4517 19.67 63.7117 17.21 65.2017V64.9417C29.46 62.9417 28.29 77.4617 17.21 75.3417V75.0817ZM21 75.0017C26.5 74.5817 25.95 63.8817 19.27 65.3817C19.58 66.0417 19.8 74.1617 19.27 74.9717H21V75.0017Z" fill="black"/>
<path d="M26.0703 75.0806C26.9803 76.0806 29.8803 65.3305 30.1803 64.8105H31.1203C31.3403 65.6905 33.4703 75.4106 34.9203 75.0806V75.3405H32.1303V75.0806H33.3803C32.8403 74.7106 32.7403 73.8806 32.2903 72.5506H28.0703C28.1403 73.0406 26.3103 75.4405 28.6503 75.1105V75.3706H26.0703V75.0806ZM32.1603 72.0806C32.0003 71.5206 30.3203 66.8005 30.2703 66.0005H30.1703C30.1703 66.1605 28.4103 71.4505 28.1703 72.1805L32.1603 72.0806Z" fill="black"/>
<path d="M36.8803 75.0814C38.5103 75.5814 38.1903 73.2114 38.1703 71.5914C37.3003 70.7514 35.7403 65.0614 34.0303 65.2014V64.9414H36.6503V65.2014H35.7803C36.2703 65.5414 38.5403 70.0014 39.0003 71.0014C38.6003 70.2114 43.8103 64.8714 40.4803 65.2114V64.9514H43.1203V65.2114C42.0403 64.5914 39.7703 70.6614 39.1803 71.3914C39.5403 71.9314 38.1803 75.6614 40.4603 75.0914V75.3514H36.8603L36.8803 75.0814Z" fill="black"/>
<path d="M56.2596 7.64155C55.3638 9.07193 54.6895 10.6295 54.2596 12.2616C52.9496 10.5716 35.8296 1.44156 47.1996 3.68156C49.0496 4.48156 51.0196 9.79155 53.1996 6.68155C53.0496 2.19156 60.9996 1.54155 56.2596 7.64155Z" fill="#EC8B9A"/>
<path d="M58.6103 2.00109C56.4503 -1.44891 51.7003 1.40109 50.3103 4.61109C47.0103 -1.14891 36.3103 -0.898913 41.3103 7.19109C45.8703 11.1911 52.5703 10.8911 53.1103 18.3311C54.6603 20.3711 59.4203 5.20109 58.6103 2.00109ZM55.3403 7.64109C54.4527 9.07573 53.7789 10.6321 53.3403 12.2611C52.0003 10.5711 34.8903 1.44109 46.2603 3.68109C48.1103 4.48109 50.0803 9.79109 52.2603 6.68109C52.1403 2.19109 60.0003 1.54109 55.3403 7.64109Z" fill="black"/>
<path d="M38.2301 1.35156C36.6801 0.35156 32.2301 1.79156 37.8601 2.67156C38.3801 2.67156 38.9601 2.13156 38.2301 1.35156V1.35156Z" fill="black"/>
<path d="M36.9403 4.55076C37.6803 4.65076 37.7903 5.03076 36.9403 4.55076C34.4603 3.99076 34.7803 8.33076 36.9403 4.55076Z" fill="black"/>
<path d="M37.7404 7.15159C38.4704 6.91159 38.7404 7.15159 37.7404 7.15159C35.7404 8.15159 38.2804 11.2516 37.7404 7.15159Z" fill="black"/>
<path d="M61.4098 1.82088C62.4698 2.08088 65.4098 -1.17912 61.0398 0.500876C61.0798 0.480876 59.7698 1.43088 61.4098 1.82088Z" fill="black"/>
<path d="M61.6697 4.46108C62.3997 5.28108 66.5897 4.16108 62.0397 3.13108C61.5297 3.06108 60.9997 3.60108 61.6697 4.46108Z" fill="black"/>
<path d="M60.6804 7.26038C61.0604 8.45038 65.4104 9.36038 61.6804 6.26038C61.6804 6.26038 60.2304 5.63038 60.6804 7.26038Z" fill="black"/>
<path d="M37.6 57.2316C38.67 55.9916 42.71 57.4016 46.2 57.3816L46.44 57.0716C52.83 58.0716 58.75 58.5216 66.91 59.3716C68.1 58.5016 72.66 60.6316 75.91 60.0916C98.6516 63.1924 121.648 63.9931 144.55 62.4816C143.55 61.7316 152.96 60.0516 151.87 58.7216C157.59 58.8816 165.3 50.7216 163.7 44.1816C163.57 44.7516 163.86 44.9616 163.2 45.4616C155.92 74.6216 28.83 34.2716 6.78 52.5616C8.05693 52.2229 9.35713 51.9789 10.67 51.8316C7.2 52.7116 -5.91 59.0816 6.88 56.6816C5.46198 57.3312 4.12044 58.1361 2.88 59.0816C2.88 59.4416 5.62 56.9116 6.8 57.0816C5.12041 57.8688 3.57491 58.9148 2.22 60.1816C3.22 59.8616 5.22 57.9116 7.53 57.4616C6.91 57.2516 -0.15 62.2216 5.17 58.8416C3.25 59.8416 -1.2 65.2816 3.29 61.8416C1.90386 62.9726 0.781096 64.3922 0 66.0016C0.466929 65.1421 1.02335 64.3343 1.66 63.5916C1.09641 64.3031 0.607191 65.0705 0.2 65.8816C1.03 65.1316 0.44 65.7316 1.82 63.9316C1.4525 64.3975 1.11833 64.8887 0.82 65.4016C10.31 56.7016 24.15 57.2716 37.6 57.2316V57.2316Z" fill="#202020"/>
<path d="M135.13 16.5913C135.13 15.9013 134.3 14.8013 133.68 15.0613C132.06 14.5413 130.91 17.2813 133.23 17.9913C132.24 20.7513 135.16 20.5313 135.13 16.5913V16.5913Z" fill="black"/>
</svg>
