<svg width="161" height="158" viewBox="0 0 161 158" fill="none" xmlns="http://www.w3.org/2000/svg">
<path fill-rule="evenodd" clip-rule="evenodd" d="M93.4619 16.8028C93.4619 16.8028 92.9339 16.7288 91.9429 16.5898C90.2229 16.4098 88.5579 16.2328 85.3739 16.1068C83.7249 16.1018 81.6109 16.0918 78.9249 16.2548C77.0409 16.4518 76.0639 16.4478 72.2989 17.0648C71.5199 17.2138 70.7239 17.3658 69.9129 17.5208C68.5749 17.8178 65.8539 18.4188 62.3809 19.5808C62.1549 19.6588 61.4619 19.9008 60.1059 20.3738C59.3649 20.6718 59.0179 20.8158 57.1659 21.5678C56.2949 21.9528 55.4279 22.3708 54.5449 22.7748C52.8879 23.5798 51.0939 24.5088 48.3589 26.1648C47.9499 26.4438 47.0549 27.0058 45.5049 28.0608C45.3529 28.1748 44.2539 28.9748 43.0209 29.8828C36.2109 35.1318 29.5199 42.7708 25.1909 50.9918C24.9679 51.4308 24.4599 52.4608 23.8049 53.7478C23.6109 54.2018 23.1479 55.1578 22.4159 56.8858C22.2979 57.2048 22.0869 57.6818 21.3279 59.6908C19.8129 64.0618 18.3579 69.5998 17.8079 74.8308C17.7289 75.7088 17.6509 76.5748 17.5739 77.4258C17.5129 78.2478 17.4949 78.9638 17.4069 80.8648C17.4029 81.8978 17.3999 84.5028 17.5869 87.1988C17.6929 88.1868 17.7459 89.0268 17.9979 91.0248C18.3499 93.5268 18.8229 96.2588 19.8179 100.035C19.9939 100.621 20.4879 102.275 20.7819 103.27C20.6629 102.949 20.2859 101.948 19.6049 100.1C18.9259 97.9678 17.9509 94.8508 17.2999 91.1338C17.1259 90.2808 17.0339 89.4938 16.7119 87.2828C16.5459 85.3908 16.3969 84.4068 16.2939 80.8618C16.3109 79.4778 16.2699 77.8008 16.5079 74.7038C16.9259 70.0328 17.9099 64.6288 19.7729 59.1438C20.1189 58.1518 19.9989 58.5188 20.8429 56.2488C21.0889 55.6108 21.5929 54.4678 22.2209 53.0068C22.5719 52.2848 22.9299 51.5478 23.6189 50.1628C27.8159 42.1848 34.2189 34.3088 41.9459 28.4738C42.5459 28.0238 43.2369 27.5398 44.5179 26.6298C45.2649 26.1258 45.0619 26.2738 47.4779 24.7278C49.0589 23.8388 50.9599 22.6798 53.8729 21.3478C54.7849 20.9508 55.6819 20.5438 56.5809 20.1698C57.1709 19.9488 57.8719 19.6788 59.6169 19.0248C60.4429 18.7598 59.9999 18.9018 61.9609 18.2728C64.0279 17.6788 64.7889 17.3408 69.6959 16.4008C70.5259 16.2718 71.3399 16.1448 72.1379 16.0208C73.1699 15.8768 75.8529 15.5648 78.8859 15.4628C80.5649 15.4368 82.7849 15.4408 85.3989 15.6188C86.2569 15.7018 86.0269 15.6828 87.6619 15.8508C88.7719 15.9648 89.4239 16.0598 91.9589 16.4858C92.9389 16.6928 93.4619 16.8028 93.4619 16.8028" fill="#C5DF5D"/>
<path fill-rule="evenodd" clip-rule="evenodd" d="M39.3913 19.1475C38.8453 23.6045 40.7793 29.7725 44.9563 26.9055C47.1473 25.5805 50.7963 13.3045 44.5393 12.4375C43.6473 12.6375 43.1313 12.7255 41.8013 13.9645C40.7813 15.1735 39.8153 16.6895 39.3913 19.1475Z" fill="#C5DF5D"/>
<path fill-rule="evenodd" clip-rule="evenodd" d="M30.5982 26.2533C30.6312 31.2063 34.4162 37.3343 37.8392 32.2653C40.3622 29.8613 38.9952 12.2403 31.8492 21.2923C31.3462 22.2973 30.5752 24.1293 30.5982 26.2533Z" fill="#C5DF5D"/>
<path fill-rule="evenodd" clip-rule="evenodd" d="M22.122 35.7219C31.307 58.6619 34.507 20.6499 23.342 29.0099C22.79 29.9599 22.418 30.5189 22.04 32.6359C21.934 33.6079 21.957 34.6579 22.122 35.7219Z" fill="#C5DF5D"/>
<path fill-rule="evenodd" clip-rule="evenodd" d="M15.665 49.7992C17.87 55.1802 24.43 57.7172 23.589 50.3202C23.877 47.2892 16.945 36.5532 14.99 45.6472C14.966 46.5352 14.92 47.5842 15.665 49.7992" fill="#C5DF5D"/>
<path fill-rule="evenodd" clip-rule="evenodd" d="M53.636 13.3602C52.272 17.3552 53.291 23.7382 57.808 20.6692C60.336 18.9112 62.979 10.4402 59.903 8.71521C59.364 8.33421 57.525 8.48121 56.125 9.63621C55.386 10.3602 54.625 11.0962 53.636 13.3602" fill="#C5DF5D"/>
<path fill-rule="evenodd" clip-rule="evenodd" d="M14.1675 59.1683C16.0795 63.2923 23.7875 64.7103 18.8305 56.0043C15.3895 50.9533 11.2915 53.5443 14.1675 59.1683Z" fill="#C5DF5D"/>
<path fill-rule="evenodd" clip-rule="evenodd" d="M63.5253 12.1246C62.1713 14.7196 62.2043 20.3426 66.2273 17.8216C70.4443 15.5736 70.5373 2.83264 63.5253 12.1246" fill="#C5DF5D"/>
<path fill-rule="evenodd" clip-rule="evenodd" d="M12.6749 68.3492C14.2119 70.1512 18.1249 72.4852 18.1289 68.6742C18.3909 64.7302 8.03591 59.4392 12.6749 68.3492Z" fill="#C5DF5D"/>
<path fill-rule="evenodd" clip-rule="evenodd" d="M72.8921 11.0547C67.1911 24.3067 84.5821 9.23666 75.2921 8.97266C74.4631 9.32566 73.5881 10.0597 72.8921 11.0547Z" fill="#C5DF5D"/>
<path fill-rule="evenodd" clip-rule="evenodd" d="M13.2757 76.2796C16.1257 79.5976 20.9687 76.3166 13.8377 72.5346C11.8267 72.0926 11.2067 73.6776 13.2757 76.2796Z" fill="#C5DF5D"/>
<path fill-rule="evenodd" clip-rule="evenodd" d="M83.5276 12.0563C77.8676 22.1713 92.2806 11.5253 85.5426 10.7383C84.8896 10.9213 84.1596 11.3753 83.5276 12.0563Z" fill="#C5DF5D"/>
<path fill-rule="evenodd" clip-rule="evenodd" d="M50.7842 35.6784C47.2692 34.2114 41.4602 30.7084 45.5082 27.7114C46.2762 27.3694 47.3002 27.0954 49.0482 27.2524C52.0322 27.6464 58.0462 30.9074 57.0542 35.3504C56.7002 35.8554 56.5082 36.2044 55.2762 36.4394C54.2372 36.4544 53.3112 36.5914 50.7842 35.6784" fill="#C5DF5D"/>
<path fill-rule="evenodd" clip-rule="evenodd" d="M44.3554 40.8745C40.2494 40.0155 33.4593 36.4315 38.7953 33.3195C41.2153 30.7095 56.1293 37.3115 48.4633 41.0415C47.6213 41.2055 46.4104 41.2785 44.3554 40.8745Z" fill="#C5DF5D"/>
<path fill-rule="evenodd" clip-rule="evenodd" d="M38.1507 47.8093C34.1237 48.1663 24.4297 43.6513 33.5307 40.4313C36.7717 39.3423 46.6837 42.5503 43.3097 46.6623C42.6277 47.1363 42.3477 47.3513 40.7137 47.6573C39.9657 47.7843 39.1077 47.8413 38.1507 47.8093" fill="#C5DF5D"/>
<path fill-rule="evenodd" clip-rule="evenodd" d="M30.642 56.8374C25.571 58.0324 18.733 55.2184 25.262 51.1964C26.973 49.3824 39.496 50.7334 33.971 55.6464C33.297 56.0414 32.633 56.4074 30.642 56.8374" fill="#C5DF5D"/>
<path fill-rule="evenodd" clip-rule="evenodd" d="M60.0392 28.6193C56.7782 26.7173 52.4132 21.4983 57.7662 20.5673C61.6362 19.4413 70.9102 29.6373 63.5302 29.9993C62.6342 29.8503 61.9082 29.6863 60.0392 28.6193Z" fill="#C5DF5D"/>
<path fill-rule="evenodd" clip-rule="evenodd" d="M26.0472 62.9973C22.7902 64.6963 15.1512 62.3853 23.1412 58.4273C27.7492 56.9193 32.7992 60.3543 26.0472 62.9973Z" fill="#C5DF5D"/>
<path fill-rule="evenodd" clip-rule="evenodd" d="M66.7839 24.1736C64.4359 22.4456 61.6159 17.6856 66.2399 17.8746C70.4209 17.6496 75.5949 29.6076 66.7839 24.1736Z" fill="#C5DF5D"/>
<path fill-rule="evenodd" clip-rule="evenodd" d="M23.3837 70.3143C21.5617 71.1293 16.8337 72.3113 18.1587 68.6813C18.9367 65.4913 31.1377 64.8293 23.3837 70.3143" fill="#C5DF5D"/>
<path fill-rule="evenodd" clip-rule="evenodd" d="M74.3208 21.8488C66.0598 10.4168 84.7598 20.7108 76.6588 23.3638C75.9528 23.1758 75.1288 22.6648 74.3208 21.8488Z" fill="#C5DF5D"/>
<path fill-rule="evenodd" clip-rule="evenodd" d="M20.9669 76.8133C19.1959 78.6963 12.9069 77.5053 19.5309 73.7293C22.0659 72.8043 24.2249 74.3163 20.9669 76.8133Z" fill="#C5DF5D"/>
<path fill-rule="evenodd" clip-rule="evenodd" d="M83.3655 19.7641C78.5205 9.42008 91.3045 20.4871 85.0255 21.1831C84.4895 20.9671 83.8995 20.4761 83.3655 19.7641Z" fill="#C5DF5D"/>
<path fill-rule="evenodd" clip-rule="evenodd" d="M132.006 122.973C132.351 122.532 132.15 122.79 132.949 121.763C133.489 121.009 133.292 121.281 134.699 119.317C135.009 118.854 136.722 116.254 137.938 114.086C138.66 112.744 139.506 111.192 140.627 108.727C140.843 108.272 140.926 108.033 141.942 105.612C142.112 105.103 142.249 104.859 143.153 102.212C143.397 101.424 143.646 100.621 143.899 99.8037C144.069 99.1797 144.277 98.3977 144.732 96.6417C146.17 90.1227 146.964 82.7677 146.165 75.0477C146.097 74.4427 145.952 73.1607 145.666 71.2167C144.466 63.5097 141.503 54.9637 137.143 47.7417C136.467 46.6077 136.72 47.0427 135.066 44.4837C131.323 38.9887 125.975 33.2187 120.115 28.8387C119.295 28.2537 118.993 28.0387 117.447 26.9487C116.729 26.4837 116.023 26.0267 115.33 25.5787C114.889 25.2947 115.126 25.4377 112.22 23.7477C111.789 23.5347 111.507 23.3547 109.214 22.2027C107.824 21.5497 106.036 20.7317 103.713 19.8147C101.707 19.1137 101.56 18.9777 97.8729 17.8787C97.5539 17.7977 96.2909 17.4707 94.9609 17.1257C94.6059 17.0377 94.6299 17.0537 93.4619 16.8027C94.0179 16.8807 93.6919 16.8337 94.9829 17.0217C95.8989 17.1987 95.5629 17.1317 97.9449 17.5927C98.4949 17.7237 101.539 18.4537 103.921 19.2277C104.499 19.4237 105.092 19.6427 105.709 19.8627C107.923 20.6817 109.105 21.1097 112.694 22.8487C113.155 23.1127 112.88 22.9057 115.919 24.5957C116.64 25.0267 117.375 25.4657 118.122 25.9127C118.674 26.2747 119.361 26.7327 120.894 27.7677C126.388 31.6987 132.181 37.2197 136.512 43.4877C136.672 43.6967 136.806 43.9247 136.955 44.1427C137.362 44.7797 137.842 45.4697 138.671 46.8207C142.86 53.6617 146.168 62.3577 147.427 70.9437C147.56 71.6867 147.635 72.5307 147.827 74.0987C147.853 74.3607 147.896 74.6217 147.907 74.8847C148.482 81.6427 147.956 89.7147 146.011 96.9617C145.727 97.9487 145.621 98.3137 145.075 100.162C144.789 100.985 144.507 101.794 144.231 102.587C144.053 103.089 144.158 102.83 142.878 105.996C142.2 107.515 140.916 110.264 139.436 112.768C139.104 113.331 138.789 113.881 138.471 114.402C137.286 116.18 137.245 116.385 134.937 119.49C134.73 119.745 133.902 120.762 133.031 121.829C132.795 122.109 132.805 122.081 132.006 122.973" fill="#C5DF5D"/>
<path fill-rule="evenodd" clip-rule="evenodd" d="M156.998 74.963C155.469 73.488 148.435 70.267 147.441 75.031C147.594 75.897 147.181 75.797 148.309 77.875C153.327 86.645 167.3 86.178 156.998 74.963" fill="#C5DF5D"/>
<path fill-rule="evenodd" clip-rule="evenodd" d="M155.235 63.8022C153.522 62.5712 146.033 60.4692 145.798 65.3072C145.565 71.2412 165.763 78.2642 157.908 65.9762C157.279 65.3042 156.693 64.7672 155.235 63.8022" fill="#C5DF5D"/>
<path fill-rule="evenodd" clip-rule="evenodd" d="M151.31 51.7406C131.002 47.5606 149.974 67.5756 156.831 58.1136C156.815 57.2026 156.833 56.6816 155.888 55.1346C155.301 54.2266 153.479 52.5996 151.31 51.7406" fill="#C5DF5D"/>
<path fill-rule="evenodd" clip-rule="evenodd" d="M142.341 39.0993C138.114 38.5433 132.033 41.0263 136.074 44.6933C137.993 46.9453 152.38 48.4933 146.94 41.1193C146.037 40.5423 145.788 39.9743 143.044 39.2223C142.814 39.1743 142.579 39.1333 142.341 39.0993" fill="#C5DF5D"/>
<path fill-rule="evenodd" clip-rule="evenodd" d="M154.897 90.2016C153.77 87.9246 145.235 84.0346 146.626 90.6356C148.205 98.1706 162.438 102.944 154.897 90.2016" fill="#C5DF5D"/>
<path fill-rule="evenodd" clip-rule="evenodd" d="M134.974 33.1035C133.444 33.1555 128.625 33.9735 129.849 37.1075C133.534 41.8955 147.202 35.1065 134.974 33.1035Z" fill="#C5DF5D"/>
<path fill-rule="evenodd" clip-rule="evenodd" d="M151.028 99.3943C150.225 98.1483 147.463 95.1253 145.193 96.8003C144.759 97.2063 144.45 98.3223 145.041 100.071C145.348 102.395 151.959 109.39 152.116 102.123C151.923 101.32 151.833 100.784 151.028 99.3943" fill="#C5DF5D"/>
<path fill-rule="evenodd" clip-rule="evenodd" d="M127.753 27.2313C120.816 28.7403 123.39 33.9283 129.945 31.5483C133.657 30.3533 132.419 26.5413 127.753 27.2313Z" fill="#C5DF5D"/>
<path fill-rule="evenodd" clip-rule="evenodd" d="M147.265 108.037C145.778 103.729 138.683 103.452 143.801 111.432C146.399 114.863 149.02 112.089 147.265 108.037Z" fill="#C5DF5D"/>
<path fill-rule="evenodd" clip-rule="evenodd" d="M120.585 23.7945C113.791 25.9145 121.127 30.6445 124.095 24.9125C124.022 23.8465 122.377 23.3385 120.585 23.7945Z" fill="#C5DF5D"/>
<path fill-rule="evenodd" clip-rule="evenodd" d="M141.078 116.736C140.894 114.508 136.077 111.908 137.413 117.31C138.355 120.597 142.07 122.05 141.078 116.736Z" fill="#C5DF5D"/>
<path fill-rule="evenodd" clip-rule="evenodd" d="M136.989 76.59C140.118 72.489 152.255 72.016 143.443 81.012C137.567 85.453 129.345 83.102 136.989 76.59Z" fill="#C5DF5D"/>
<path fill-rule="evenodd" clip-rule="evenodd" d="M135.698 68.4202C136.829 67.2492 142.49 61.5582 144.826 65.5472C148.573 72.4582 126.395 81.5102 135.698 68.4202Z" fill="#C5DF5D"/>
<path fill-rule="evenodd" clip-rule="evenodd" d="M132.813 59.5471C144.899 43.3781 144.482 68.2641 131.874 65.7791C131.45 65.3291 131.146 65.0691 131.161 63.8101C131.356 62.7451 131.404 61.9041 132.813 59.5471Z" fill="#C5DF5D"/>
<path fill-rule="evenodd" clip-rule="evenodd" d="M128.751 48.542C129.978 45.044 134.103 39.451 136.165 44.633C137.786 47.135 131.587 59.01 128.173 52.641C128.094 51.712 127.991 50.853 128.751 48.542Z" fill="#C5DF5D"/>
<path fill-rule="evenodd" clip-rule="evenodd" d="M138.48 88.1194C140.267 86.7164 149.437 84.5683 146.385 90.6003C143.721 96.0433 127.592 95.4084 138.48 88.1194Z" fill="#C5DF5D"/>
<path fill-rule="evenodd" clip-rule="evenodd" d="M125.727 41.4855C126.18 40.0655 127.217 35.3825 130.22 36.7665C134.642 40.3385 124.723 52.6135 125.727 41.4855Z" fill="#C5DF5D"/>
<path fill-rule="evenodd" clip-rule="evenodd" d="M138.97 96.1705C140.356 95.7155 144.085 94.3945 145.338 96.8385C145.501 97.3855 145.203 98.5435 143.79 99.6925C142.527 101.225 133.217 102.51 136.762 97.4845C137.344 97.0185 137.633 96.7595 138.97 96.1705" fill="#C5DF5D"/>
<path fill-rule="evenodd" clip-rule="evenodd" d="M120.713 35.537C121.831 26.316 128.531 33.003 123.53 38.738C122.287 39.948 120.387 38.589 120.713 35.537" fill="#C5DF5D"/>
<path fill-rule="evenodd" clip-rule="evenodd" d="M137.209 103.863C139.885 102.636 146.453 105.036 139.376 107.974C135.46 109.033 131.258 105.671 137.209 103.863Z" fill="#C5DF5D"/>
<path fill-rule="evenodd" clip-rule="evenodd" d="M116.287 30.194C115.611 28.109 118.839 23.704 119.756 29.177C119.854 31 119.077 32.625 118.139 32.882C117.212 33.117 116.412 31.98 116.287 30.194" fill="#C5DF5D"/>
<path fill-rule="evenodd" clip-rule="evenodd" d="M134.48 112.747C136.53 111.973 141.084 114.986 135.662 116.164C133.844 116.348 132.185 115.65 131.883 114.725C131.604 113.809 132.703 112.958 134.48 112.747Z" fill="#C5DF5D"/>
<path fill-rule="evenodd" clip-rule="evenodd" d="M20.7822 103.27C20.9162 103.582 21.3432 104.564 22.1172 106.37C23.0722 108.371 24.4962 111.292 26.5012 114.45C26.9422 115.187 27.4012 115.823 28.6392 117.648C29.7682 119.138 30.3092 119.96 32.5642 122.624C33.0962 123.193 33.6112 123.797 34.8992 125.155C35.5032 125.758 36.1182 126.373 36.7432 126.996C40.0732 130.15 44.2952 133.47 49.1572 136.351C50.0442 136.862 49.7222 136.667 51.7912 137.806C52.5812 138.217 52.3392 138.088 54.8692 139.321C55.9072 139.766 55.5722 139.622 57.7012 140.545C65.9262 143.817 75.3872 145.687 84.9212 145.297C85.6802 145.262 84.5782 145.313 87.9952 145.1C88.8712 145.023 88.6242 145.035 91.4012 144.724C93.1462 144.428 95.2952 144.132 98.3212 143.355C99.2572 143.099 100.19 142.863 101.105 142.6C101.691 142.411 102.391 142.189 104.126 141.629C104.921 141.329 104.494 141.49 106.38 140.779C108.338 139.984 109.11 139.756 113.478 137.527C114.2 137.126 114.908 136.732 115.602 136.347C116.497 135.838 118.762 134.448 121.205 132.717C122.545 131.73 124.278 130.387 126.247 128.695C127.345 127.692 129.068 126.127 130.976 124.11C131.648 123.369 132.006 122.973 132.006 122.973C132.006 122.973 131.676 123.393 131.056 124.181C130.412 124.937 129.782 125.703 128.168 127.425C127.804 127.797 128.187 127.41 126.58 129.055C125.366 130.196 123.801 131.643 121.685 133.353C120.14 134.5 119.41 135.164 116.151 137.254C115.459 137.671 114.753 138.097 114.034 138.53C112.818 139.223 110.342 140.603 106.899 142.057C106.673 142.148 105.977 142.432 104.618 142.984C103.849 143.257 103.485 143.379 101.554 144.053C100.625 144.343 99.6762 144.605 98.7212 144.886C97.1152 145.311 95.3252 145.77 91.6472 146.395C91.2772 146.435 90.5502 146.557 88.1572 146.836C87.4062 146.894 86.5742 146.968 85.0002 147.07C75.9882 147.514 65.8642 145.849 57.0292 142.187C56.3532 141.891 55.3622 141.455 54.1322 140.902C53.2942 140.468 52.5962 140.151 50.9952 139.298C50.6952 139.119 50.2182 138.876 48.3162 137.765C44.2142 135.233 39.5672 131.753 35.8302 127.922C34.8292 126.874 33.6782 125.702 31.7162 123.337C31.0702 122.513 29.4392 120.426 27.9172 118.143C27.3952 117.283 26.9212 116.575 25.8982 114.812C24.6482 112.6 23.3722 110.105 21.9122 106.457C21.7062 105.88 21.1262 104.251 20.7822 103.27" fill="#C5DF5D"/>
<path fill-rule="evenodd" clip-rule="evenodd" d="M49.8695 148.907C51.9615 148.358 58.1515 143.753 54.5975 140.591C52.9655 138.245 37.0205 142.608 42.1505 148.518C43.6775 149.709 46.9635 149.98 49.8695 148.907Z" fill="#C5DF5D"/>
<path fill-rule="evenodd" clip-rule="evenodd" d="M60.3972 152.977C66.0602 149.838 67.7512 141.847 59.6452 144.091C56.0372 144.252 44.9152 153.998 56.1472 154.331C57.0732 154.213 58.7082 153.895 60.3972 152.977Z" fill="#C5DF5D"/>
<path fill-rule="evenodd" clip-rule="evenodd" d="M72.8279 155.594C74.7769 154.082 78.3649 149.406 75.4509 146.573C74.9119 146.231 73.8189 145.869 72.3039 146.327C64.1529 147.699 57.8669 163.866 72.8279 155.594" fill="#C5DF5D"/>
<path fill-rule="evenodd" clip-rule="evenodd" d="M88.2669 154.15C89.4049 153.069 92.3959 146.315 88.1669 145.618C85.7799 144.71 76.4009 154.162 81.8779 157.264C82.5999 157.399 82.7569 157.432 84.2219 157.114C85.5999 156.708 87.0789 155.622 88.2669 154.15Z" fill="#C5DF5D"/>
<path fill-rule="evenodd" clip-rule="evenodd" d="M37.7366 139.481C39.6656 139.158 44.7276 137.278 43.7806 133.67C43.2896 133.02 42.9106 132.307 40.9836 131.982C37.6036 130.242 23.1606 136.56 35.0196 139.588C35.8756 139.667 36.7976 139.637 37.7366 139.481Z" fill="#C5DF5D"/>
<path fill-rule="evenodd" clip-rule="evenodd" d="M97.1355 150.758C98.6205 148.235 98.8705 142.618 94.7245 144.932C90.3985 146.965 89.6585 159.683 97.1355 150.758Z" fill="#C5DF5D"/>
<path fill-rule="evenodd" clip-rule="evenodd" d="M31.6928 131.544C34.2988 131.98 40.8568 127.207 33.6438 125.944C27.8778 124.91 22.3178 130.896 31.6928 131.544" fill="#C5DF5D"/>
<path fill-rule="evenodd" clip-rule="evenodd" d="M105.828 147.457C106.23 146.348 107.294 142.132 104.345 142.096C103.313 142.466 102.545 143.079 101.629 145.017C99.4816 149.71 102.831 153.143 105.828 147.457Z" fill="#C5DF5D"/>
<path fill-rule="evenodd" clip-rule="evenodd" d="M26.0815 123.961C28.3855 124.106 32.8485 122.582 29.9905 120.128C28.6695 119.16 21.7175 117.898 22.3035 122.005C22.6605 122.662 24.3695 123.98 26.0815 123.961" fill="#C5DF5D"/>
<path fill-rule="evenodd" clip-rule="evenodd" d="M112.388 142.974C112.808 141.593 112.396 137.644 110.097 139.437C107.888 140.827 108.784 150.267 112.388 142.974Z" fill="#C5DF5D"/>
<path fill-rule="evenodd" clip-rule="evenodd" d="M21.6368 114.245C22.9508 114.503 26.3898 114.252 25.3528 112.118C23.7068 109.199 14.6068 111.324 21.6368 114.245Z" fill="#C5DF5D"/>
<path fill-rule="evenodd" clip-rule="evenodd" d="M58.4751 130.77C58.7491 132.412 59.5111 140.315 55.0161 139.683C51.2901 139.358 48.8221 125.926 55.6971 125.596C56.1241 125.737 56.5241 126.037 56.8761 126.495C57.5691 127.434 58.1581 128.865 58.4751 130.77" fill="#C5DF5D"/>
<path fill-rule="evenodd" clip-rule="evenodd" d="M66.2029 133.759C68.2569 138.963 66.3629 147.393 60.8739 140.643C56.9889 137.121 61.1159 121.341 66.2029 133.759Z" fill="#C5DF5D"/>
<path fill-rule="evenodd" clip-rule="evenodd" d="M75.3146 135.674C76.1346 137.401 78.8116 143.035 75.6046 145.062C75.0196 145.261 73.8856 145.347 72.5736 144.529C69.5206 143.856 65.2366 129.691 72.4606 132.132C73.4856 133.096 73.5966 132.76 75.3146 135.674" fill="#C5DF5D"/>
<path fill-rule="evenodd" clip-rule="evenodd" d="M86.8649 137.661C87.9769 139.039 91.9309 144.277 88.2139 146.103C84.6269 147.136 77.7059 139.039 81.9409 135.04C82.4429 134.881 82.5559 134.837 83.6009 135.101C84.5959 135.513 85.7349 136.34 86.8649 137.661" fill="#C5DF5D"/>
<path fill-rule="evenodd" clip-rule="evenodd" d="M47.7263 126.287C47.6253 127.999 47.1903 133.586 43.7663 133.687C43.0253 133.397 42.2023 133.207 41.4193 131.439C40.3053 129.164 40.8433 120.326 46.0943 121.172C46.6803 121.609 47.2303 122.208 47.5483 123.968C47.6803 124.644 47.7423 125.425 47.7263 126.287" fill="#C5DF5D"/>
<path fill-rule="evenodd" clip-rule="evenodd" d="M94.4893 138.561C96.7453 140.405 99.3233 145.303 94.7153 144.879C90.6293 144.895 85.8133 132.759 94.4893 138.561Z" fill="#C5DF5D"/>
<path fill-rule="evenodd" clip-rule="evenodd" d="M40.5015 122.7C40.6885 125.151 36.1525 131.932 35.0135 124.672C34.7235 122.19 37.9265 115.6 40.2835 119.474C40.4995 120.153 40.7215 120.976 40.5015 122.7" fill="#C5DF5D"/>
<path fill-rule="evenodd" clip-rule="evenodd" d="M102.163 137.204C103.176 138.086 106.411 140.095 104.418 142.298C103.414 142.633 102.356 142.625 100.575 141.577C97.0071 139.199 96.8691 134.087 102.163 137.204" fill="#C5DF5D"/>
<path fill-rule="evenodd" clip-rule="evenodd" d="M34.7229 117.337C34.2259 119.218 31.6609 123.511 30.0149 120.108C29.4449 118.317 30.8039 112.35 34.4329 113.699C34.8349 113.975 35.2639 115.702 34.7229 117.337Z" fill="#C5DF5D"/>
<path fill-rule="evenodd" clip-rule="evenodd" d="M109.008 136.046C110.238 136.587 113.2 139.296 110.379 140.03C107.865 140.942 101.917 133.626 109.008 136.046Z" fill="#C5DF5D"/>
<path fill-rule="evenodd" clip-rule="evenodd" d="M28.3967 110.54C27.8777 111.676 25.8997 114.51 24.6007 112.529C23.0617 109.758 30.3207 103.6 28.3967 110.54Z" fill="#C5DF5D"/>
<path fill-rule="evenodd" clip-rule="evenodd" d="M98.0778 15.1272C100.08 21.0772 91.3268 24.4132 88.8458 18.4782C86.8438 12.5282 95.5968 9.19224 98.0778 15.1272" fill="#E62575"/>
<path fill-rule="evenodd" clip-rule="evenodd" d="M116.568 10.3361C115.868 13.9741 111.983 16.4191 108.384 18.2311C108.18 17.7901 107.917 17.3931 107.608 17.0441C108.075 16.1911 108.496 15.3081 108.857 14.3991C109.618 12.7361 114.626 5.37809 116.568 10.3361ZM105.926 15.8151C105.133 15.4631 104.246 15.3191 103.354 15.4261C99.3834 1.06609 111.13 -4.36691 107.151 13.3101C106.698 14.1371 106.292 14.9811 105.926 15.8151ZM104.572 32.4041C103.034 34.6471 101.981 27.9711 102.811 25.0831C103.146 25.1611 103.49 25.2051 103.839 25.2121C104.191 26.8791 105.044 29.7401 104.572 32.4041V32.4041ZM91.3564 30.1091C91.5254 26.2121 95.8644 24.2651 99.8224 22.9861C100.083 23.3871 100.398 23.7411 100.753 24.0431C99.7754 26.3471 93.4994 34.4291 91.3564 30.1091V30.1091ZM118.276 8.84609C116.604 5.81409 112.517 6.23509 110.126 9.10309C108.579 -9.77991 96.9944 4.81509 101.463 16.0591C99.6944 17.0861 98.7444 19.1211 99.0944 21.1361C83.2294 25.1001 89.5754 41.6591 100.51 28.1321C101.61 39.9491 109.605 35.0091 105.791 24.8441C107.714 24.0591 108.886 22.1791 108.843 20.1941C112.671 18.4011 119.45 14.3301 118.276 8.84609" fill="#E62575"/>
<path fill-rule="evenodd" clip-rule="evenodd" d="M118.171 24.3421C120.173 30.2921 111.42 33.6281 108.939 27.6931C106.937 21.7431 115.691 18.4071 118.171 24.3421Z" fill="#E62575"/>
<path fill-rule="evenodd" clip-rule="evenodd" d="M137.169 120.11C139.171 126.06 130.418 129.396 127.937 123.461C125.935 117.511 134.688 114.175 137.169 120.11Z" fill="#E62575"/>
<path fill-rule="evenodd" clip-rule="evenodd" d="M150.489 64.2015C152.491 70.1515 143.738 73.4875 141.257 67.5525C139.255 61.6025 148.009 58.2665 150.489 64.2015Z" fill="#E62575"/>
<path fill-rule="evenodd" clip-rule="evenodd" d="M151.072 78.8377C153.074 84.7887 144.321 88.1237 141.84 82.1897C139.838 76.2387 148.592 72.9037 151.072 78.8377Z" fill="#E62575"/>
<path fill-rule="evenodd" clip-rule="evenodd" d="M142.832 45.6565C144.834 51.6065 136.081 54.9425 133.6 49.0075C131.598 43.0575 140.352 39.7215 142.832 45.6565Z" fill="#E62575"/>
<path fill-rule="evenodd" clip-rule="evenodd" d="M137.353 135.012C136.702 137.915 131.706 134.54 129.77 132.703C130.076 132.018 130.226 131.264 130.193 130.496C132.142 130.803 136.5 131.997 137.353 135.012ZM130.612 140.887C128.15 141.257 127.424 138.092 126.444 135.478C127.031 135.303 127.365 135.223 128.302 134.581C128.878 135.874 130.673 138.434 130.612 140.887V140.887ZM119.595 119.753C120.89 115.548 123.438 122.69 124.443 125.869C124.111 126.002 124.076 125.791 122.654 126.56C121.396 124.809 119.957 122.918 119.595 119.753ZM120.624 129.166C110.041 128.649 111.44 120.21 121.239 127.926C120.977 128.308 120.77 128.726 120.624 129.166ZM135.453 130.079C133.678 129.148 131.629 128.671 129.586 128.339C128.923 127.13 127.798 126.286 126.518 125.953C125.15 115.908 114.903 111.821 118.745 124.037C107.005 118.423 110.354 132.038 120.396 131.172C120.542 132.825 121.993 135.063 124.399 135.535C125.117 143.174 135.83 146.945 131.477 136.517C139.119 141.216 142.615 134.244 135.453 130.079Z" fill="#E62575"/>
<path fill-rule="evenodd" clip-rule="evenodd" d="M119.962 135.602C121.964 141.552 113.211 144.888 110.73 138.953C108.728 133.003 117.482 129.667 119.962 135.602Z" fill="#E62575"/>
<path fill-rule="evenodd" clip-rule="evenodd" d="M67.8444 141.494C69.8464 147.445 61.0934 150.78 58.6124 144.846C56.6104 138.895 65.3644 135.56 67.8444 141.494Z" fill="#E62575"/>
<path fill-rule="evenodd" clip-rule="evenodd" d="M87.4625 143.455C89.4645 149.405 80.7115 152.741 78.2305 146.806C76.2285 140.856 84.9825 137.521 87.4625 143.455Z" fill="#E62575"/>
<path fill-rule="evenodd" clip-rule="evenodd" d="M53.5944 136.477C55.5964 142.427 46.8434 145.763 44.3624 139.828C42.3604 133.878 51.1134 130.542 53.5944 136.477Z" fill="#E62575"/>
<path fill-rule="evenodd" clip-rule="evenodd" d="M26.192 102.522C28.194 108.472 19.441 111.808 16.96 105.873C14.958 99.9228 23.712 96.5868 26.192 102.522Z" fill="#E62575"/>
<path fill-rule="evenodd" clip-rule="evenodd" d="M33.9766 96.2669C30.5336 98.1189 26.4326 96.2409 22.3306 95.3719C23.0956 94.2819 23.4086 92.8969 23.1206 91.5349C23.8556 91.3999 24.5806 91.2209 25.2906 90.9959C27.7446 90.0319 37.5396 92.1559 33.9766 96.2669ZM11.9836 101.788C10.1706 103.688 3.64464 107.497 2.18164 102.956C3.23564 98.2249 10.0356 97.0659 14.3716 95.4719C14.8986 96.1829 15.6026 96.7279 16.3966 97.0649C15.0646 98.7629 13.5946 100.353 11.9836 101.788V101.788ZM5.23264 92.2069C4.61664 91.8179 3.80664 91.5429 3.02764 90.0769C6.15764 88.6079 9.79664 89.3089 13.4736 91.7279C13.3766 92.2979 13.3786 92.8889 13.4936 93.4769C11.1536 93.6849 8.20864 93.5909 5.23264 92.2069V92.2069ZM24.8236 85.9059C32.3826 79.6499 32.4606 87.2529 24.7636 89.0929C23.9236 89.2309 23.0876 89.4129 22.2616 89.6219C22.1316 89.4469 21.9916 89.2829 21.8416 89.1279C22.7436 87.9739 23.7336 86.8879 24.8236 85.9059ZM32.1286 89.5599C31.2886 89.2499 30.4366 89.0499 29.5796 88.9379C39.1676 79.4029 23.8356 80.0479 20.1956 88.0099C18.6716 87.3809 15.7646 87.5369 14.2026 89.8619C5.19864 83.3229 -6.99536 91.1439 8.58964 95.3079C-12.3724 106.33 10.6256 112.929 18.5936 97.4489C18.9056 97.3859 19.0796 97.4969 20.5586 96.9129C30.2736 101.528 44.6486 97.1899 32.1286 89.5599" fill="#E62575"/>
<path fill-rule="evenodd" clip-rule="evenodd" d="M21.7448 79.8831C23.7468 85.8331 14.9938 89.1691 12.5128 83.2341C10.5108 77.2841 19.2648 73.9481 21.7448 79.8831Z" fill="#E62575"/>
<path fill-rule="evenodd" clip-rule="evenodd" d="M29.6481 47.8675C31.6501 53.8175 22.8971 57.1535 20.4161 51.2185C18.4141 45.2685 27.1671 41.9325 29.6481 47.8675Z" fill="#E62575"/>
<path fill-rule="evenodd" clip-rule="evenodd" d="M36.485 37.4862C38.487 43.4362 29.734 46.7722 27.253 40.8372C25.251 34.8872 34.005 31.5522 36.485 37.4862Z" fill="#E62575"/>
<path fill-rule="evenodd" clip-rule="evenodd" d="M52.4166 22.7811C54.4186 28.7311 45.6656 32.0671 43.1846 26.1321C41.1826 20.1821 49.9366 16.8471 52.4166 22.7811Z" fill="#E62575"/>
<path fill-rule="evenodd" clip-rule="evenodd" d="M53.1923 96.5124C45.9643 98.1774 43.3863 86.0304 43.1293 80.3834C45.4943 84.2444 54.9373 93.1914 53.1923 96.5124ZM84.5653 55.1744C88.1433 57.9824 89.6073 54.0714 85.0023 51.9844C111.026 44.3014 110.528 61.5204 84.7214 60.4634C84.7884 58.7604 84.9913 56.7584 84.5653 55.1744V55.1744ZM97.8783 71.1024C102.657 71.5094 97.9673 76.5204 95.5333 78.8564C94.2143 76.4614 95.4763 71.5164 97.8783 71.1024ZM104.57 70.1664C103.975 65.7424 108.97 64.9234 106.016 71.4194C105.38 71.2494 104.831 70.8904 104.57 70.1664ZM52.7713 85.2504C50.5653 82.5854 47.4193 79.3314 43.9523 77.4274C45.2223 75.5114 48.0663 75.6194 49.9583 77.7144C57.7363 86.7614 51.6273 75.2824 54.7803 71.6754C55.6743 70.8954 56.2993 71.5314 56.3183 72.9464C61.3923 105.613 69.7723 75.5854 62.6873 84.4104C58.7243 80.3734 61.2053 72.0564 56.1673 68.4274C57.1713 67.9594 57.4623 62.9384 55.4813 66.4864C53.9163 68.9704 50.5643 69.7084 47.5573 67.9614C43.4443 62.1044 72.9954 63.9514 74.7234 63.4374C74.2034 67.8414 74.1213 98.8164 81.6503 85.5824C81.7153 83.4874 80.4253 82.5724 79.0073 85.1404C77.1343 78.3554 77.6574 70.9274 77.8754 63.4024C78.6504 63.3904 79.4253 63.3714 80.2003 63.3534C79.3063 67.5054 82.2564 96.9904 87.5854 83.3544C86.7144 80.1744 86.0424 76.9474 85.5704 73.6884C96.7204 58.8454 84.1303 83.1214 93.6163 81.5774C98.9823 86.4004 104.758 79.3534 107.484 74.3534C115.897 72.5424 101.657 84.5334 107.934 87.1824C112.26 88.1194 115.75 80.3984 109.468 84.0454C109.912 79.7234 118.74 71.2784 108.812 71.4654C113.581 56.6464 94.7703 67.1034 104.769 73.8554C103.102 75.9644 100.366 80.6164 96.5144 79.8784C109.395 66.0274 88.5243 67.7054 92.6613 80.1584C88.1343 78.4354 97.0833 58.2204 85.2683 71.3494C85.0323 69.5114 84.8123 66.1664 84.7483 63.1934C93.8943 63.9934 117.925 57.7854 101.861 48.3584C96.2814 46.1054 79.2743 46.7724 82.6223 53.6294C82.3163 53.6954 82.1674 53.7584 81.7654 54.4514C81.7634 54.4474 81.7623 54.4434 81.7603 54.4394C81.0603 56.4004 80.6524 58.4794 80.4174 60.5924C79.5934 60.6074 78.7694 60.6204 77.9444 60.6284C79.0954 45.8944 74.2293 48.4114 74.8163 60.6474C30.5883 58.6714 44.7513 73.5434 52.3183 70.8824C51.6333 72.2914 51.2963 73.8524 51.2683 75.4324C49.0903 73.2014 43.7103 72.5554 41.4553 76.1904C30.7283 71.7994 37.0253 94.0924 36.5993 87.1294C36.7393 83.8234 34.8843 74.2194 40.6923 77.7194C37.3343 110.588 71.5313 104.934 52.7713 85.2504" fill="#232323"/>
<path fill-rule="evenodd" clip-rule="evenodd" d="M63.9366 68.7311C65.1936 67.0561 69.4776 66.2931 69.2396 69.9751C68.3276 70.7181 67.3726 71.3921 66.1416 71.5691C66.6566 70.6761 65.3696 69.7151 63.9526 71.0661C63.4206 70.5461 63.3446 69.7071 63.9366 68.7311ZM68.2356 77.2811C66.6626 78.8841 64.9286 77.7401 65.3266 74.4081C66.3266 74.2541 66.6326 74.5681 69.0856 73.4871C69.0006 74.7601 68.8626 76.2321 68.2356 77.2811V77.2811ZM67.3286 80.5421C71.1646 79.7301 71.2566 75.7381 71.7046 71.8231C72.9766 71.1781 75.3846 66.3211 71.5026 68.2811C69.4026 59.8251 55.0606 68.5391 62.8966 73.8791C62.5816 76.9221 63.9536 80.7961 67.3286 80.5421Z" fill="#232323"/>
<path fill-rule="evenodd" clip-rule="evenodd" d="M113.188 69.3761C115.198 72.7631 117.922 66.0621 113.577 65.6621C113.46 65.7791 112.843 65.7671 112.885 67.1321C112.98 67.5681 113.219 68.1761 113.188 69.3761Z" fill="#232323"/>
<path fill-rule="evenodd" clip-rule="evenodd" d="M118.388 74.6932C119.441 65.6412 127.787 71.2282 118.575 77.6732C118.378 76.7662 118.419 75.5622 118.388 74.6932ZM120.559 79.7442C120.248 79.5462 119.952 79.3972 119.687 79.2382C135.63 65.6352 110.347 63.0322 115.859 80.5642C114.787 81.1012 113.716 84.4322 116.727 81.6792C133.819 94.0732 112.047 106.695 107.564 95.0462C109.098 88.2902 114.984 91.4212 117.202 96.3772C126.373 91.7792 109.784 82.0632 104.878 89.8872C101.104 93.8432 103.03 99.7582 107.714 102.549C124.888 110.716 135.391 88.8742 120.559 79.7442Z" fill="#232323"/>
<path fill-rule="evenodd" clip-rule="evenodd" d="M64.3205 97.0681C60.7295 97.5881 61.4275 91.7971 65.3675 92.0441C65.5905 93.0451 65.9145 94.0091 66.3205 94.9451C65.8685 95.8761 65.2375 96.7241 64.3205 97.0681ZM70.9055 96.8941C70.3665 96.1061 69.8485 95.2961 69.3825 94.4581C73.0045 88.4131 64.7255 79.3681 65.1485 90.7691C56.4975 90.8261 60.7725 104.68 67.6905 97.6241C75.6675 113.882 80.8795 108.799 70.9055 96.8941" fill="#232323"/>
<path fill-rule="evenodd" clip-rule="evenodd" d="M98.3967 108.242C94.2717 111.941 93.3447 104.1 93.7507 100.297C94.6897 102.269 98.0127 105.174 98.3967 108.242V108.242ZM74.9617 96.8228C74.5417 96.2178 74.6617 95.4148 74.9917 94.8158C75.2257 94.4148 75.5467 94.1048 75.9567 93.8858C76.6557 93.4528 77.2777 93.5528 77.8197 94.1828C77.7177 94.5458 78.0467 94.9018 78.3827 94.9318C78.4817 96.1018 76.7997 98.5098 74.9617 96.8228V96.8228ZM95.8307 96.8808C94.9747 95.8058 94.0717 94.7508 93.2807 93.6328C93.0997 93.4508 93.5087 93.1208 92.6397 92.3248C93.1037 89.1748 87.4227 86.3998 89.4527 92.6368C88.8837 93.9518 87.4267 94.3788 86.5837 92.1058C86.9467 89.8488 82.8297 88.9558 84.2237 92.9848C83.5367 100.824 81.2767 91.9358 78.8567 92.9288C69.2087 88.5598 73.0367 106.167 80.0227 97.1758C81.6067 99.5978 85.9807 100.426 86.6337 96.1378C87.6087 96.7088 88.7577 96.8448 89.9227 96.2538C84.0277 121.802 115.187 116.346 95.8307 96.8808" fill="#232323"/>
</svg>
