<svg width="199" height="96" viewBox="0 0 199 96" fill="none" xmlns="http://www.w3.org/2000/svg">
<g clip-path="url(#clip0_3_23810)">
<path d="M23.2199 0.210672C23.2199 0.380672 25.8499 -0.129328 25.5799 0.840672C24.0299 0.970672 24.5799 4.56067 24.2199 7.58067C26.3499 7.49067 27.7699 9.14067 27.2199 3.51067C27.2278 2.67036 27.2947 1.83164 27.4199 1.00067C27.4199 1.00067 27.3299 0.810672 27.0899 0.900672C25.2999 0.260672 29.3599 -0.399328 30.8899 0.310672C28.1699 1.70067 29.3599 6.09067 28.7899 10.2507C28.7899 10.3407 28.8499 10.2507 28.7899 10.6507C27.9299 12.0007 31.6299 16.7207 26.7899 14.3907C26.7899 14.3907 26.7899 14.3207 26.7899 14.2907C27.0447 12.3441 27.0782 10.3748 26.8899 8.42067C23.5599 7.06067 23.3099 12.1907 25.3199 14.4207C22.1299 14.9607 21.3199 16.6507 22.1899 11.1507C22.1899 10.5307 22.2899 9.24067 22.2799 8.01067C22.3799 7.52067 22.1199 6.40067 22.2799 5.08067V5.00067C22.2799 4.88067 22.1399 4.88067 22.2199 4.23067C23.4799 2.11067 19.2599 -0.199328 23.2199 0.210672V0.210672ZM22.8799 13.6207C24.5299 15.5007 23.2899 10.0907 24.0499 3.18067C24.0372 2.69725 24.0808 2.214 24.1799 1.74067C24.1299 1.59067 24.3299 1.52067 24.1799 1.01067C21.9999 -0.269328 23.0799 8.48067 22.9199 13.6207H22.8799ZM27.6199 13.7907C28.3099 17.4507 29.0099 -6.41933 27.8199 3.95067C27.9299 6.49067 27.6399 8.79067 27.6499 12.1207C27.5099 12.5007 27.6499 12.9707 27.6499 13.6607C27.6145 13.6939 27.6026 13.7453 27.6199 13.7907V13.7907Z" fill="black"/>
<path d="M37.1291 14.8208C36.8278 14.8206 36.5303 14.7522 36.2591 14.6208C37.4491 14.0608 35.6491 6.34083 33.8191 10.5208C33.2191 12.1908 35.5291 15.9508 31.6591 14.7508C30.4391 14.4508 31.3991 15.4108 32.9191 3.01083C32.9366 2.55581 33.0278 2.10664 33.1891 1.68083C31.7091 0.32083 34.8191 0.68083 36.7591 1.41083C36.8391 1.83083 36.3291 1.69083 35.7591 1.84083C35.8191 2.78083 35.7591 3.11083 35.9591 4.84083C36.0436 6.241 36.2207 7.63404 36.4891 9.01083V9.14083C36.5691 9.14083 36.5891 9.60083 36.5891 9.98083C36.684 10.3959 36.7508 10.8168 36.7891 11.2408C36.2091 11.7408 39.3091 15.3308 37.3891 14.7508C37.3065 14.7871 37.2188 14.8107 37.1291 14.8208V14.8208ZM31.2191 14.3208C31.2191 14.3208 31.5191 14.1908 32.2191 13.9208C32.2135 13.9855 32.2396 14.0489 32.2891 14.0908C33.3591 14.3308 32.8691 13.0908 33.2891 10.8808C33.5414 7.81842 34.0431 4.78168 34.7891 1.80083C34.0091 0.54083 33.4991 3.41083 33.3891 4.97083C33.0691 6.12083 33.0191 7.97083 32.6291 10.3108C32.6291 10.4108 32.6291 10.5408 32.5591 10.6108C32.3766 11.6581 32.2763 12.718 32.2591 13.7808C31.9006 13.9369 31.5531 14.1174 31.2191 14.3208V14.3208ZM35.2191 2.61083C35.2325 2.57883 35.2325 2.54283 35.2191 2.51083H35.1491C34.9291 3.51083 34.6191 5.19083 34.2891 7.38083C35.2291 11.2008 36.1591 7.34083 35.2191 2.61083Z" fill="black"/>
<path d="M41.2596 0.309743C43.4196 -0.0302566 45.3196 3.88974 43.4696 7.07974C43.2496 8.07974 41.7396 8.13974 41.2996 9.74974V9.81974C41.6996 10.9497 40.7896 13.4097 42.0296 14.6497C43.9096 14.5297 41.2696 16.0397 38.7996 15.2897C40.0496 13.6797 38.5196 13.6597 38.9596 5.28974C38.5796 4.79974 40.2196 0.739743 37.8296 1.15974C37.7596 1.15974 37.7296 1.08974 37.7596 1.01974C38.2296 0.259743 39.2196 0.429743 41.2596 0.309743V0.309743ZM40.4596 1.00974C39.2896 0.949743 39.9096 3.35974 39.7296 5.34974C39.5296 6.34974 39.8196 6.57974 39.5596 8.54974C39.3996 13.3597 41.7296 22.9997 40.4596 0.999743V1.00974ZM41.2596 7.67974C44.3496 10.9897 43.2596 -3.91026 41.3996 3.03974C41.2396 4.25974 41.3296 4.46974 41.2296 7.67974H41.2596Z" fill="black"/>
<path d="M48.2001 0.309743C50.3601 -0.0302566 52.2601 3.88974 50.4001 7.07974C50.1901 8.07974 48.6701 8.13974 48.2301 9.74974V9.81974C48.6301 10.9497 47.7301 13.4097 48.9701 14.6497C50.8501 14.5297 48.2101 16.0397 45.7301 15.2897C46.9901 13.6797 45.4501 13.6597 45.9001 5.28974C45.5201 4.79974 47.1601 0.739743 44.7701 1.15974C44.7001 1.15974 44.6701 1.08974 44.7001 1.01974C45.1701 0.259743 46.1601 0.429743 48.2001 0.309743V0.309743ZM47.4001 1.00974C46.2301 0.949743 46.8501 3.35974 46.6701 5.34974C46.4701 6.34974 46.7601 6.57974 46.5001 8.54974C46.3401 13.3597 48.6701 22.9997 47.4001 0.999743V1.00974ZM48.2001 7.67974C51.2901 10.9997 50.1501 -3.91026 48.3401 2.99974C48.2039 4.54247 48.1471 6.09119 48.1701 7.63974L48.2001 7.67974Z" fill="black"/>
<path d="M56.4695 9.00128C56.5195 9.82128 56.5395 11.8213 56.7095 14.0013C56.7171 14.024 56.7171 14.0486 56.7095 14.0713C56.7095 14.3313 56.6595 14.1613 56.7095 14.8713C56.883 14.9693 57.0893 14.991 57.2795 14.9313C57.4696 14.8715 58.1695 15.2113 57.3695 15.6013C56.4378 15.6806 55.5011 15.6806 54.5695 15.6013C54.3595 15.5013 54.0595 15.7913 53.4395 15.3013C53.4395 15.1313 53.4395 15.2513 53.5395 14.9413C55.1895 16.4713 54.6595 4.72128 51.5395 1.99128C51.2295 1.99128 51.4795 2.04128 50.9395 1.69128C50.9395 1.62128 50.9995 1.52128 51.0395 1.42128C53.8495 0.981277 54.2895 -0.198723 56.0395 4.83128C56.1141 5.04876 56.2258 5.25173 56.3695 5.43128C58.0595 3.74128 55.4995 1.19128 58.7095 1.29128C58.9209 1.23554 59.1454 1.26049 59.3395 1.36128C60.3395 2.36128 57.9495 1.59128 57.6395 3.09128C57.5581 3.27581 57.4912 3.46638 57.4395 3.66128C57.2995 3.98128 57.3495 4.31128 56.9695 5.33128C56.9209 5.62858 56.8083 5.91177 56.6395 6.16128C56.5095 6.26128 56.5095 6.49128 56.4395 6.63128C56.3742 7.08148 56.3508 7.53675 56.3695 7.99128C56.4395 8.28128 56.4695 8.58128 56.4695 9.00128V9.00128ZM55.8095 14.9413C56.8095 13.5413 55.4095 14.2713 55.9395 6.13128C55.7114 5.51485 55.4442 4.91363 55.1395 4.33128C54.7613 3.45872 54.4275 2.56758 54.1395 1.66128C53.8449 1.73112 53.5413 1.75474 53.2395 1.73128L52.9995 1.81128C52.9095 2.12128 52.9195 1.81128 53.1695 2.88128C53.4695 4.35128 54.9995 5.65128 54.8695 8.05128C55.1195 8.35128 54.1395 14.1213 55.8095 14.8913V14.9413Z" fill="black"/>
<path d="M132.889 95.2601C131.737 95.5082 130.566 95.6654 129.389 95.7301C129.331 95.6648 129.305 95.5766 129.319 95.4901C131.669 94.1901 130.149 90.0201 130.519 82.3501C130.519 82.2901 130.459 82.2501 130.389 82.2501C127.389 81.9301 133.639 79.4401 135.159 83.7201C135.588 84.4733 135.819 85.3233 135.829 86.1901C135.851 88.2742 135.533 90.3479 134.889 92.3301C134.656 93.1672 134.295 93.9633 133.819 94.6901C133.649 95.0473 133.285 95.2708 132.889 95.2601ZM131.619 82.0001C131.529 82.0601 131.509 81.9401 131.159 82.1301C131.079 82.2401 131.159 82.4201 131.259 82.7301C131.337 83.0825 131.337 83.4477 131.259 83.8001C131.319 84.7201 131.159 85.3401 131.159 87.0001C131.159 87.0801 131.229 87.0601 131.159 87.4701C131.205 87.8922 131.205 88.318 131.159 88.7401C131.209 89.4101 131.159 90.4501 131.159 91.8001C131.229 100.18 133.069 87.9601 131.589 82.0301L131.619 82.0001ZM135.089 87.1301C135.539 86.9001 132.379 76.3801 132.589 86.9001C132.536 87.1978 132.536 87.5024 132.589 87.8001C132.529 88.5601 132.649 88.8001 132.589 89.9701C132.589 90.0401 132.529 90.0401 132.589 90.3701C132.61 90.6464 132.61 90.9239 132.589 91.2001C132.589 91.4101 132.529 91.3201 132.589 91.7001C132.189 96.9801 134.589 93.8501 134.989 87.1301H135.089Z" fill="black"/>
<path d="M142.729 95.0904C142.427 95.0996 142.127 95.0307 141.859 94.8904C143.059 94.3404 141.259 86.6204 139.429 90.7904C138.819 92.4704 141.129 96.2204 137.259 95.0304C136.039 94.7204 136.999 95.6904 138.529 83.2904C138.532 82.8314 138.62 82.377 138.789 81.9504C137.309 80.5904 140.419 80.9504 142.359 81.6804C142.449 82.1104 141.929 81.9704 141.359 82.1204C141.419 83.0504 141.359 83.3904 141.559 85.1204C141.643 86.5211 141.824 87.9144 142.099 89.2904V89.4304C142.179 89.4304 142.189 89.8904 142.199 90.2604C142.209 90.6304 142.389 90.8104 142.399 91.5304C141.819 92.0204 144.919 95.6204 142.999 95.0304C142.913 95.0637 142.822 95.0839 142.729 95.0904V95.0904ZM136.829 94.5904C137.171 94.4794 137.505 94.3458 137.829 94.1904C137.825 94.2548 137.851 94.3175 137.899 94.3604C138.969 94.6004 138.489 93.3604 138.899 91.1604C139.151 88.1012 139.653 85.0677 140.399 82.0904C139.609 80.8304 139.099 83.6904 138.999 85.2604C138.669 86.4004 138.629 88.2004 138.229 90.5904C138.215 90.6923 138.192 90.7927 138.159 90.8904C137.987 91.939 137.887 92.9981 137.859 94.0604C137.505 94.2144 137.161 94.3915 136.829 94.5904V94.5904ZM140.829 82.8904C140.844 82.8586 140.844 82.8221 140.829 82.7904H140.759C140.529 83.7904 140.219 85.4604 139.889 87.6604C140.829 91.4704 141.769 87.6204 140.829 82.8904V82.8904Z" fill="black"/>
<path d="M148.2 89.2203C148.2 90.0503 148.27 92.0403 148.44 94.2203C148.446 94.2432 148.446 94.2674 148.44 94.2903C148.39 94.5503 148.39 94.3903 148.44 95.0903C148.61 95.1967 148.819 95.2223 149.01 95.1603C149.07 95.1603 149.9 95.4303 149.11 95.8203C148.178 95.9056 147.241 95.9056 146.31 95.8203C146.1 95.7103 145.8 96.0103 145.18 95.5203C145.18 95.3403 145.18 95.4603 145.28 95.1503C146.93 96.6803 146.4 84.9403 143.28 82.2103C142.96 82.2103 143.22 82.2103 142.68 81.9103C142.68 81.8503 142.74 81.7503 142.78 81.6503C145.59 81.2103 146.02 80.0303 147.78 85.0503C147.854 85.2678 147.966 85.4708 148.11 85.6503C149.79 83.9603 147.23 81.4103 150.45 81.5103C150.662 81.4647 150.883 81.4893 151.08 81.5803C152.08 82.5803 149.68 81.8103 149.38 83.3203C149.293 83.4993 149.226 83.6871 149.18 83.8803C149.03 84.2103 149.08 84.5403 148.71 85.5503C148.664 85.8483 148.551 86.1321 148.38 86.3803C148.25 86.4803 148.25 86.7203 148.18 86.8503C148.115 87.3039 148.091 87.7625 148.11 88.2203C148.17 88.5603 148.2 88.8603 148.2 89.2203V89.2203ZM147.53 95.1603C148.53 93.7603 147.13 94.5003 147.67 86.3503C147.437 85.7357 147.17 85.1348 146.87 84.5503C146.491 83.6782 146.157 82.787 145.87 81.8803C145.577 81.9621 145.271 81.9859 144.97 81.9503L144.74 82.0803C144.65 82.3903 144.66 82.0803 144.91 83.1503C145.2 84.6203 146.74 85.9303 146.61 88.3203C146.85 88.6303 145.87 94.3903 147.53 95.1603V95.1603Z" fill="black"/>
<path d="M49.3696 70.1011C41.5496 86.5611 42.8796 66.3211 45.8896 59.3311C49.3996 48.0311 55.3296 41.9211 57.8896 29.7911C52.5596 14.2111 32.2396 51.2211 28.5596 55.9311C46.5596 13.1811 15.3896 46.5611 10.3696 64.2811C32.8296 -15.9489 -13.0904 37.3311 3.82958 43.8711C10.6296 45.7011 5.07958 43.2611 3.97958 38.9711C3.90958 34.3311 8.41958 24.3611 11.5196 23.7311C17.6396 32.1711 -2.70042 84.0011 8.23958 77.0011C13.6396 64.6111 19.8096 48.2911 29.8696 38.9111C31.4496 46.6811 18.9996 56.6211 26.2596 61.9111C37.0896 54.6511 40.1696 34.6011 53.4596 29.6311C50.4596 43.7911 37.6596 57.2711 38.7796 73.0911C37.9996 84.5111 54.9996 76.6911 49.3696 70.1011V70.1011ZM10.6196 61.5811C10.6565 61.3312 10.71 61.084 10.7796 60.8411L10.6196 61.6611V61.5811Z" fill="black"/>
<path d="M197.89 55.9311C195.08 55.5311 193.29 63.9311 187.56 64.5311C185.27 59.7011 183.14 58.7111 181.34 55.1111C200.34 40.6311 172.11 39.9111 176.34 56.4311C174.4 59.3111 158.45 76.6911 158.13 70.8411C160.01 61.5411 176.87 47.4811 155.26 54.0411C160.85 50.1211 164.84 33.1511 152.47 41.8411V41.7611C150.96 42.2811 144.84 54.0411 150.47 57.5511C148.394 61.6818 145.084 65.0647 141 67.2311C137 67.8411 135.2 63.6311 136.66 57.4011C156.99 46.2611 133.17 38.8911 131.81 58.9111C129.73 63.3211 118.81 80.2411 117.1 74.6311C123.58 44.6311 107.4 52.8611 100.1 66.4111C99.9123 62.4397 100.157 58.4596 100.83 54.5411C102.83 51.4511 105.94 46.6911 108.1 42.8511C130.27 38.5711 163.32 33.0711 182.71 37.4411C186.2 36.0811 184.47 34.5811 183.42 33.5111C164.11 29.3111 133.86 33.8311 110.53 38.3711C115.94 17.2911 100.77 25.6311 99.08 40.3111L96 40.7911C93.46 39.9811 91.76 40.6111 88.36 41.1011C88.56 37.4211 92.27 30.6611 87.7 32.5011C85.11 33.1111 85.14 38.7311 83.61 42.1411C76.49 42.7011 65.61 41.9111 65.49 32.8311C65.49 32.8311 63.14 31.8311 61.49 32.8311C61.78 43.2511 71.27 46.5011 82.66 46.1711C81.94 49.5011 81.29 52.8411 80.76 56.1711C79.76 59.8011 74.18 64.2611 69.52 63.2611C74.44 48.2611 62.84 38.7411 56.59 53.7211C49 69.4611 60.68 82.0011 68.53 66.0011C71.4 66.2411 76.77 65.7811 79.91 62.6511C77.3 87.9311 87.1 81.2611 95.65 63.8611C95.73 64.8611 94.99 79.2011 99.25 75.3411C101.8 68.8711 105.12 58.4711 113.06 57.2111C111 86.4711 114.84 88.1111 131.88 64.0011C134.26 78.0011 149.94 66.6611 153.13 58.1511C166.42 56.0211 158.13 58.2711 154.65 67.1511C150.45 86.4511 173.79 65.3811 177.94 59.0011C180.5 62.0811 182.33 63.5611 183.06 66.1411C161.87 76.2211 189.31 91.9411 188.06 67.1411C192.26 65.5011 199.82 60.7911 197.89 55.9311ZM137.27 54.3711C140.99 43.6211 147.03 49.4811 137.27 54.6211V54.3711ZM62.88 70.1011C62.39 70.1011 57.15 69.7711 60.18 60.9311C61.8814 62.8876 64.0095 64.4272 66.4 65.4311C65.7793 67.3362 64.5405 68.9797 62.88 70.1011V70.1011ZM67.22 62.8911C65.36 62.4311 63.33 61.0911 61.22 57.9811C63.85 51.1811 64.91 49.3711 66.14 49.4611L65 48.8011C69 50.4211 68.15 57.8111 67.22 62.8911V62.8911ZM102.61 46.8911C102.85 45.8211 103.1 44.7311 103.37 43.6311L104.92 43.3711L102.61 46.8911ZM108.84 29.0311C108.931 29.0415 109.022 29.0123 109.09 28.9511C110.33 31.6711 109.35 35.5411 107.58 38.8711L104.42 39.4211C105.84 34.1411 107.44 29.5611 108.84 29.0611V29.0311ZM95.08 60.1111C92.44 63.9111 88.4 73.2111 85.83 74.6111C80.92 71.3411 87.62 49.6111 87.4 45.8811C90.28 45.5911 93.66 45.1411 98.15 44.4711C97.2259 49.0099 96.5581 53.5972 96.15 58.2111C95.81 58.8511 95.45 59.4811 95.08 60.1111V60.1111ZM151.93 49.2111C159.32 33.0811 160.7 46.5211 152.93 53.5511C152.16 52.6911 151.25 53.4211 151.93 49.2111ZM180.52 53.2111C179.96 52.2711 181.81 45.4511 184.63 46.5311C185.93 48.9011 182.78 51.0011 180.52 53.2211V53.2111ZM182.81 72.7111C179.1 84.5411 173.66 72.0011 183.39 68.8611C183.28 70.159 183.086 71.4483 182.81 72.7211V72.7111Z" fill="black"/>
<path d="M170.879 44.601C172.259 47.101 175.229 43.121 174.149 40.521C174.069 34.891 165.859 39.841 171.149 42.671C171.199 43.051 170.849 43.001 170.879 44.601Z" fill="black"/>
</g>
<defs>
<clipPath id="clip0_3_23810">
<rect width="199" height="96" fill="white"/>
</clipPath>
</defs>
</svg>
