<svg width="159" height="83" viewBox="0 0 159 83" fill="none" xmlns="http://www.w3.org/2000/svg">
<g clip-path="url(#clip0_3_23734)">
<path d="M59.7207 5.28016C59.6307 6.54016 59.7207 8.28016 59.6107 10.3802C59.5507 10.3802 59.6107 10.5302 59.0307 11.0002H58.4107C57.6507 10.5302 57.8707 9.61016 57.7007 7.88016C57.6407 7.80016 57.7007 7.69016 57.3207 7.50016C57.0607 7.50016 57.3807 7.26016 56.1307 7.50016C53.7707 7.88016 52.1307 5.50016 51.5007 10.8702L51.1407 11.0002H50.3907L50.1707 10.7402C49.8938 9.43547 49.8363 8.09374 50.0007 6.77016L49.9107 6.57016C49.9247 6.44024 49.955 6.31258 50.0007 6.19016C49.9489 5.6514 49.9489 5.10892 50.0007 4.57016V4.28016C49.7682 3.01143 49.8402 1.70565 50.2107 0.470156L50.5007 0.250156H51.2107L51.5907 0.490156L51.8107 0.910156C51.8801 2.06912 51.8801 3.2312 51.8107 4.39016C51.8107 5.86016 54.3107 5.57016 56.0207 5.45016C56.3511 5.51196 56.6902 5.51196 57.0207 5.45016C58.4007 4.69016 57.4407 3.12016 57.7507 0.820156C57.9224 0.563339 58.1392 0.339734 58.3907 0.160156H59.0407L59.3007 0.290156C59.5907 0.470156 59.5507 2.29016 59.6407 3.60016C59.5695 4.16055 59.5966 4.72906 59.7207 5.28016V5.28016Z" fill="black"/>
<path d="M71.2404 9.91V10.44L71.0904 10.75L70.4204 11.06H70.1104C69.1104 9.18 66.6804 9.19 64.3704 9.51C63.9904 9.81 63.9504 9.51 63.5504 10.51C63.2781 10.7359 62.9908 10.943 62.6904 11.13C62.492 11.088 62.2978 11.0277 62.1104 10.95L61.8704 10.71L61.6904 10.22C61.8236 9.97523 61.8859 9.69821 61.8704 9.42C62.2404 8.67 62.6104 7.78 63.4204 6.17C63.7104 5.3 64.2604 4.26 64.8804 2.89C64.9374 2.54304 65.0937 2.22002 65.3304 1.96C65.6604 1.44 65.1704 1.32 66.4104 0.32C66.5204 0.32 66.2304 0.25 67.0804 0.25C68.0104 0.95 68.6204 3.47 69.3804 5.25C69.5455 5.53584 69.6732 5.84167 69.7604 6.16C70.1004 6.66 69.9704 6.64 70.4404 7.91C70.7113 8.37796 70.9007 8.88856 71.0004 9.42L71.2404 9.91ZM66.2404 7.56C66.4071 7.60752 66.5838 7.60752 66.7504 7.56C66.7504 7.56 68.3004 7.84 67.9004 6.61C67.7062 6.21191 67.5488 5.79684 67.4304 5.37C67.2604 5.21 66.9004 3.73 66.2604 4.5C66.1865 4.78041 66.0497 5.04032 65.8604 5.26L65.7304 5.54C65.7204 6.07 64.2504 7.44 66.2104 7.56H66.2404Z" fill="black"/>
<path d="M73.3206 6.08025V5.37025C73.1706 4.13025 73.3206 3.19025 73.3206 1.25025C73.4195 0.939307 73.5537 0.640701 73.7206 0.360252C76.3006 0.0702524 82.1806 -1.16975 83.1106 3.60025C83.1106 4.50025 83.2006 6.11025 81.8206 7.16025C81.7306 7.23025 81.8206 7.16025 81.6206 7.41025L81.2906 7.56025C81.1906 7.65025 81.2906 7.56025 81.0306 7.83025C80.5206 7.97025 80.7206 7.91025 79.4506 8.32025C78.8843 8.29065 78.3169 8.29065 77.7506 8.32025L77.5506 8.25025C76.8364 8.20209 76.1196 8.2938 75.4406 8.52025C75.2506 8.70025 75.3006 8.83025 75.1306 9.72025V10.2903L74.8006 10.8303L74.5106 10.9603L73.8306 10.8503L73.5406 10.5603C73.3389 9.81121 73.2579 9.0348 73.3006 8.26025C73.2306 7.85025 73.2706 7.15025 73.3206 6.08025V6.08025ZM77.1906 6.43025C77.5006 6.37025 77.9906 6.43025 79.2506 6.34025C79.3606 6.34025 79.5506 6.23025 80.1006 6.03025C80.2473 5.91745 80.4009 5.81392 80.5606 5.72025C80.7207 5.54107 80.8678 5.35058 81.0006 5.15025C81.6606 3.80025 80.6106 1.53025 78.0606 2.07025C77.7386 1.94715 77.3825 1.94715 77.0606 2.07025C75.3906 1.56025 74.7706 3.07025 75.2606 5.75025C75.4306 5.91025 75.1406 6.16025 75.9706 6.37025C76.378 6.33011 76.7891 6.35033 77.1906 6.43025V6.43025Z" fill="black"/>
<path d="M85.1698 6.08025V5.37025C85.0098 4.13025 85.1698 3.19025 85.1198 1.25025C85.2257 0.942 85.3596 0.64409 85.5198 0.360252C88.1498 0.0702524 93.9998 -1.16975 94.9998 3.60025C94.9998 4.50025 95.0898 6.11025 93.7198 7.16025C93.6198 7.23025 93.7198 7.16025 93.5198 7.41025L93.1798 7.56025C93.0798 7.65025 93.1798 7.56025 92.9198 7.83025C92.4098 7.97025 92.6198 7.91025 91.3498 8.32025C90.7802 8.29073 90.2094 8.29073 89.6398 8.32025L89.4398 8.25025C88.7289 8.20263 88.0155 8.29434 87.3398 8.52025C87.1498 8.70025 87.1998 8.83025 87.0298 9.72025V10.2903L86.6898 10.8303L86.4098 10.9603L85.7198 10.8503L85.4298 10.5603C85.2281 9.81121 85.1471 9.0348 85.1898 8.26025C85.0798 7.85025 85.1198 7.15025 85.1698 6.08025V6.08025ZM89.0498 6.43025C89.3498 6.37025 89.8398 6.43025 91.1098 6.34025L91.9998 6.00025C92.1465 5.88745 92.3002 5.78392 92.4598 5.69025C92.5944 5.52175 92.718 5.34471 92.8298 5.16025C93.4898 3.81025 92.4398 1.54025 89.8898 2.08025C89.5678 1.95715 89.2118 1.95715 88.8898 2.08025C87.2298 1.57025 86.5998 3.08025 87.0898 5.76025C87.2598 5.92025 86.9698 6.17025 87.7998 6.38025C88.2166 6.33472 88.6379 6.35158 89.0498 6.43025Z" fill="black"/>
<path d="M96.5506 0.210156C96.8369 0.195003 97.1238 0.225381 97.4006 0.300156C97.8486 0.748729 98.1903 1.29206 98.4006 1.89016C98.5183 2.08235 98.606 2.29144 98.6606 2.51016C98.8895 2.86378 99.0901 3.23494 99.2606 3.62016C99.5506 3.89016 99.6305 4.45016 100.351 5.52016C101.251 6.07016 101.161 4.88016 102.121 3.75016L102.231 3.50016C102.465 2.95705 102.778 2.45158 103.161 2.00016C103.389 1.24587 103.873 0.595027 104.531 0.160156H104.801L105.481 0.490156L105.641 0.840156C105.396 1.87741 104.936 2.85173 104.291 3.70016C104.219 3.88349 104.122 4.05534 104.001 4.21016C103.901 4.27016 103.921 4.64016 103.441 5.14016C103.325 5.45493 103.171 5.75394 102.981 6.03016C102.721 6.59016 102.701 6.57016 101.891 8.03016C101.431 8.80016 102.031 9.14016 101.271 10.8402C100.954 10.9697 100.613 11.031 100.271 11.0202L99.9806 10.9102C99.673 8.97367 99.03 7.10568 98.0806 5.39016C98.0806 5.39016 98.0806 5.39016 98.0806 5.33016L97.8805 5.08016C97.8257 4.86312 97.7416 4.65454 97.6305 4.46016C97.0284 3.45823 96.5036 2.41187 96.0605 1.33016L96.2005 0.650156L96.5506 0.210156Z" fill="black"/>
<path d="M76.4703 76.8999C76.9403 75.2099 75.6203 72.9699 77.1303 71.1799C78.4103 70.8799 80.0203 71.2599 82.1303 71.0999C83.7966 71.4391 85.2461 72.4574 86.1303 73.9099C86.1669 74.0112 86.197 74.1147 86.2203 74.2199C86.411 74.5253 86.5401 74.865 86.6003 75.2199C86.8283 75.9295 86.9099 76.6779 86.8403 77.4199C86.7403 77.4199 86.8403 78.1799 86.4003 78.6999C86.2514 79.1148 86.0674 79.5163 85.8503 79.8999C85.8503 79.9799 85.6203 79.8999 85.4303 80.4499C85.4303 80.5099 85.4303 80.3699 85.0003 80.9199L84.6903 81.0899C84.6003 81.1499 84.6903 81.0899 84.4703 81.3199C82.0708 82.4615 79.3392 82.6959 76.7803 81.9799C76.3503 81.4999 76.5503 80.3599 76.3903 78.8999C76.4859 78.6973 76.4859 78.4625 76.3903 78.2599C76.3903 78.1699 76.6303 78.1099 76.3903 77.6099C76.4334 77.3754 76.4601 77.1381 76.4703 76.8999V76.8999ZM80.0603 80.3299C80.8309 80.33 81.6002 80.2664 82.3603 80.1399C82.7889 80.0125 83.1942 79.8166 83.5603 79.5599L83.7803 79.3799C83.7803 79.3799 84.1203 79.0499 84.4203 78.6299C84.4903 78.5499 84.2903 78.7399 84.7103 78.0499C84.9883 77.2973 85.0336 76.4785 84.8403 75.6999C84.8403 75.6299 84.7503 75.7599 84.6203 75.1899C84.5603 75.0999 84.6203 75.1899 84.3303 74.5499C84.1603 74.3399 84.1003 74.3599 83.5603 73.7799C83.2782 73.518 82.934 73.3322 82.5603 73.2399C81.7903 72.7899 80.6903 73.0199 79.1203 72.9999C78.1203 73.2499 78.4803 75.4799 78.5203 76.9999C78.4203 77.1299 78.5203 77.4299 78.4403 78.4099L78.5203 78.6099C78.5603 79.0499 78.1003 80.7699 80.0603 80.3299V80.3299Z" fill="black"/>
<path d="M96.8505 81.0702V81.6002L96.7005 81.9102L96.0305 82.2202H95.7206C94.7206 80.3402 92.2905 80.3402 89.9905 80.6702C89.6005 80.9702 89.5605 80.6702 89.1705 81.6702C88.8962 81.8979 88.6054 82.1051 88.3006 82.2902C88.1053 82.2484 87.9144 82.1881 87.7306 82.1102L87.4806 81.8702L87.3105 81.3801C87.4295 81.1342 87.4878 80.8633 87.4806 80.5901C87.8606 79.8401 88.2205 78.9402 89.0305 77.3302C89.3205 76.4602 89.8705 75.4302 90.5005 74.0502C90.553 73.7038 90.706 73.3804 90.9406 73.1202C91.2706 72.6002 90.7905 72.4902 92.0205 71.4802C92.1305 71.4802 91.8406 71.4102 92.6906 71.4102C93.6206 72.1102 94.2405 74.6302 94.9905 76.4102C95.1644 76.688 95.2927 76.9918 95.3706 77.3102C95.7106 77.8102 95.5805 77.8002 96.0605 79.0702C96.3507 79.5473 96.5538 80.0721 96.6606 80.6202L96.8505 81.0702ZM91.8505 78.7202C92.0169 78.7699 92.1942 78.7699 92.3605 78.7202C92.3605 78.7202 93.9106 79.0002 93.5106 77.7202C93.3054 77.3222 93.1348 76.9073 93.0005 76.4802C92.8305 76.3302 92.4605 74.8502 91.8205 75.6202C91.7449 75.8969 91.6082 76.1532 91.4205 76.3702L91.2906 76.6602C91.3306 77.2202 89.8605 78.6002 91.8205 78.7202H91.8505Z" fill="black"/>
<path d="M96.47 71.3612C96.753 71.3461 97.0366 71.3765 97.31 71.4512C97.7579 71.9037 98.0995 72.4503 98.31 73.0512C98.4294 73.2438 98.5204 73.4526 98.58 73.6712C98.808 74.0219 99.0086 74.3896 99.18 74.7712C99.46 75.0412 99.54 75.6112 100.26 76.6812C101.16 77.2212 101.07 76.0312 102.04 74.9112L102.15 74.6712C102.359 74.1481 102.635 73.654 102.97 73.2012C103.215 72.4606 103.701 71.8234 104.35 71.3912H104.61L105.3 71.7212L105.45 72.0812C105.212 73.1178 104.751 74.0902 104.1 74.9312C104.1 74.9312 104.16 74.9312 103.82 75.4412C103.72 75.5012 103.73 75.8812 103.26 76.3712C103.147 76.6868 102.992 76.9861 102.8 77.2612C102.472 77.9467 102.108 78.6143 101.71 79.2612C101.25 80.0312 101.85 80.3712 101.09 82.0812C100.773 82.2091 100.432 82.267 100.09 82.2512L99.8 82.1412C99.5333 80.1865 98.9239 78.2942 98 76.5512C98 76.5512 98 76.5512 98 76.4812L97.8 76.2412C97.759 76.0215 97.6776 75.8113 97.56 75.6212C97.56 75.6212 97.56 75.6212 97.56 75.5712C96.958 74.5742 96.4364 73.5309 96 72.4512L96.14 71.8012L96.47 71.3612Z" fill="black"/>
<path d="M37.2102 33.4495V33.2495C52.5102 3.36947 37.2902 -1.22053 22.3002 30.5595C22.2102 30.6195 22.2502 30.7395 21.9202 31.0395C32.8102 -12.4905 6.92019 6.10947 6.82019 41.4295C6.82019 41.4847 6.77542 41.5295 6.72019 41.5295L6.62019 41.4295C6.62019 41.0495 6.43019 40.7595 6.43019 40.3695C6.18019 39.7595 6.14019 37.9695 5.66019 35.6595C3.92019 35.8495 11.9402 3.59947 3.16019 10.7495C2.97019 11.4195 2.78019 11.9995 2.58019 12.6695H2.49019C-0.129811 26.3495 -2.29981 43.5395 4.80019 58.1695C9.00019 60.2395 9.77019 53.5295 9.00019 47.7795C9.68019 40.7795 10.0002 34.3795 11.3102 25.5595C13.0002 21.9395 13.2702 16.9995 17.2102 10.0695C22.3502 2.32947 12.2802 39.0695 21.1502 37.4895C21.5102 37.2895 21.5802 37.6195 22.2102 36.8095C24.8842 28.421 29.1259 20.6162 34.7102 13.8095C35.842 12.2146 37.6648 11.253 39.6202 11.2195C39.7102 11.1195 39.9102 11.3095 39.8102 11.5095C39.4853 13.7918 38.9702 16.043 38.2702 18.2395C36.9202 20.7195 36.5702 21.5295 35.4802 27.0895C35.1929 27.4835 35.0262 27.9525 35.0002 28.4395C34.9302 29.3195 34.6402 29.5495 34.4202 31.3295C34.3302 31.5195 34.3302 31.6195 34.2302 31.7195C34.2902 32.1295 33.8702 31.7195 33.8502 33.7195C33.7502 33.8095 33.7502 33.9995 33.7502 34.1995C33.3475 35.0182 33.0936 35.9019 33.0002 36.8095C32.7702 37.1895 33.0602 37.1195 32.4202 38.8095C32.2125 39.5688 32.0522 40.3403 31.9402 41.1195C31.9901 41.3737 31.9901 41.6352 31.9402 41.8895C31.9402 43.9395 30.9402 46.0095 30.8802 49.3895C30.7002 49.9595 30.8802 49.7595 30.2102 53.8195C30.1105 54 30.1105 54.219 30.2102 54.3995C30.1102 54.5895 30.2102 54.7795 30.1102 55.0695C30.4402 56.8395 30.5602 64.1595 34.9202 60.6495C35.1255 60.2671 35.196 59.8268 35.1202 59.3995L35.0202 59.2995C34.5502 59.2995 34.8602 60.1795 33.9602 59.8795C33.8702 59.8795 33.8702 59.6895 33.7702 59.5895C33.8902 58.7695 32.9302 59.4795 33.0002 54.1095C33.0902 52.0495 34.0002 48.4795 34.1502 45.2595C35.1502 43.2595 35.6602 40.1695 36.4602 36.6995C36.4802 35.8095 37.0002 35.1895 37.2102 33.4495V33.4495Z" fill="black"/>
<path d="M61.3606 44.8806C61.5206 44.6206 61.5206 44.6506 61.6506 43.5306C61.4706 43.3906 61.2206 43.9806 60.0106 43.9206C57.5206 43.9206 52.3406 47.2406 52.0106 41.1306L51.9106 41.0306C51.4716 40.1896 51.0875 39.3211 50.7606 38.4306C50.4706 38.1606 50.2406 37.8706 49.5106 37.0906C47.386 35.682 44.7943 35.1615 42.2906 35.6406L42.0106 35.9306C40.5106 36.0206 40.3306 35.4506 38.5406 37.2806C38.5406 37.3806 38.5406 37.4706 38.4506 37.4706C38.3606 37.4706 38.2906 38.1006 37.8706 38.9106C37.8706 41.0006 36.6306 39.8006 37.8706 44.5906C37.9706 44.9706 38.3506 45.2606 38.5406 45.5906C38.6513 46.0298 38.9271 46.4095 39.3106 46.6506L39.2206 46.8406C39.0206 46.9406 38.8306 46.9406 38.7306 47.0306C38.6306 47.1206 38.6406 47.0306 38.6406 47.1306H38.7306C38.7306 47.2706 39.1706 47.0306 39.3106 47.3206H39.2206L38.5406 47.6106C37.4106 49.1806 37.9806 49.2106 37.1006 53.4806C37.8106 55.1706 37.1006 58.6406 39.2206 61.2706C40.3706 62.4606 44.2206 64.7206 47.7806 62.1406C49.5292 60.6929 50.9016 58.8436 51.7806 56.7506C51.7591 56.5941 51.8341 56.4401 51.9706 56.3606C52.1806 56.0406 52.3306 56.0506 53.0306 53.7706C54.2306 48.1706 50.8906 45.9306 61.3006 45.0106L61.3606 44.8806ZM38.8506 50.0006C38.7506 50.0006 38.8506 51.0006 38.1806 50.5706C38.3078 50.128 38.4999 49.7068 38.7506 49.3206C38.7506 49.2306 38.8506 49.2306 38.9506 49.1306L38.8506 50.0006ZM38.9506 48.7506H38.7506V48.6506C38.8506 48.6506 38.8506 48.5506 38.9506 48.5506V48.7506ZM39.2406 38.3606H39.0006V38.1606C39.2506 38.1606 39.5706 37.1606 40.4406 36.5306C40.6242 36.444 40.8369 36.444 41.0206 36.5306V36.6306L40.9206 36.5306C40.3406 37.0006 40.2406 37.3006 39.2406 38.3406V38.3606ZM40.4906 52.3006C40.4906 52.4106 39.9806 52.8006 40.2906 52.1106C40.3906 52.0206 40.3906 52.0206 40.4906 52.0206C40.5906 52.0206 40.4906 52.1906 40.4906 52.2806V52.3006ZM50.7806 49.0006C50.6706 49.1006 50.5006 49.0906 50.6806 49.3906C50.6806 49.7806 50.6806 49.3906 50.7806 50.6406C50.6778 50.6456 50.5956 50.7278 50.5906 50.8306L50.4906 50.9306C44.9406 74.0006 34.0006 47.6706 50.0006 46.6106C50.7406 46.7206 50.5206 47.5206 50.7806 49.0006ZM44.1406 43.2306V43.1406C44.2406 43.1406 44.2406 43.1406 44.2406 43.2306H44.1406ZM45.5806 40.6406C45.6574 40.6333 45.7287 40.5976 45.7806 40.5406V40.6406L45.6806 40.7306C45.6567 40.7334 45.6327 40.7265 45.6139 40.7115C45.5951 40.6964 45.5831 40.6745 45.5806 40.6506V40.6406ZM50.7806 44.4806C50.1006 45.2906 48.3706 44.7506 46.4506 45.1606C47.6306 43.7706 50.6206 41.0406 46.1606 39.9606C45.9806 39.8206 46.0606 39.7806 45.4906 40.0606V40.1506L45.3006 40.5406C44.6906 40.5406 45.3006 41.0806 43.9506 41.7906C43.8573 41.9693 43.6722 42.0811 43.4706 42.0806C43.3354 42.4444 43.1393 42.7826 42.8906 43.0806V43.2706C42.4206 43.0206 41.7806 45.7706 40.7706 44.4306V44.3306H41.0606C41.1786 44.2613 41.3138 44.2267 41.4506 44.2306C41.7272 43.9897 41.9547 43.6977 42.1206 43.3706C42.1206 43.2706 42.1206 43.2706 42.0306 43.2706C41.6306 42.6006 41.6706 44.5206 40.8706 43.9506C40.767 43.9504 40.6659 43.9818 40.5806 44.0406C40.4906 44.0406 40.3906 43.9506 40.2906 43.8506C40.0506 42.5406 39.2906 40.7306 41.3506 38.2706C43.3506 37.2706 48.5506 37.1406 49.8206 41.2706C49.7306 41.4906 50.4206 41.9706 50.3906 43.1006C50.5444 43.2946 50.6444 43.5256 50.6806 43.7706L50.8706 44.2506L50.7806 44.4806Z" fill="black"/>
<path d="M66.5504 47H66.4604L66.3604 47.68C66.5504 47.48 66.3604 47.61 66.6504 47.1C66.6504 47.0448 66.6056 47 66.5504 47V47Z" fill="black"/>
<path d="M66.0005 51.0002C65.8105 51.2402 65.4605 52.1202 65.2305 54.7602C65.5405 54.5802 65.4605 54.7602 65.6105 54.0802L65.7105 53.8902C65.7026 53.6829 65.6367 53.4819 65.5205 53.3102C65.4205 53.3102 65.5205 53.2202 65.5205 53.2202C65.6705 52.3202 65.8205 52.6402 66.1905 51.1002H66.2905L66.0905 50.9102L66.0005 51.0002Z" fill="black"/>
<path d="M67.2303 44.7795C66.9303 45.0795 66.9003 44.9795 66.7503 45.9395C66.7043 45.9712 66.6768 46.0235 66.6768 46.0795C66.6768 46.1354 66.7043 46.1877 66.7503 46.2195C66.7503 46.1295 66.9403 46.1295 66.9403 46.0295C67.2246 45.6992 67.4237 45.3044 67.5203 44.8795C67.5699 44.8258 67.5699 44.7431 67.5203 44.6895C67.4203 44.6895 67.2303 44.6895 67.2303 44.7795V44.7795Z" fill="black"/>
<path d="M67.2303 43.9199C67.0603 44.0399 67.2303 43.9199 67.0303 44.3999L67.1303 44.2999L67.2303 43.9199Z" fill="black"/>
<path d="M65 55.5609L65.1 55.7509L65.2 55.5609L65.1 55.4609C65.1 55.5162 65.0552 55.5609 65 55.5609Z" fill="black"/>
<path d="M137.45 40.001C137.56 39.901 137.8 40.151 138.31 39.231C138.34 39.0653 138.308 38.8943 138.22 38.751C133 37.421 129.96 42.901 127.06 48.561C126.87 48.661 126.96 48.951 126.77 49.141C126.77 49.251 126.58 49.261 126.29 49.431C126.29 50.201 125.39 50.921 124.94 52.311C124.917 52.4287 124.849 52.5328 124.75 52.601H124.65C124.656 52.3638 124.725 52.1325 124.85 51.931C124.85 51.551 125.14 51.261 125.14 50.931C125.33 50.851 124.88 50.711 125.33 50.251C125.33 50.161 125.33 50.161 125.52 49.971C125.42 49.971 125.52 49.971 125.23 49.771C125.23 49.681 125.33 49.681 125.52 49.581H125.62C125.5 49.0509 125.601 48.4949 125.9 48.041C125.9 47.851 125.6 47.911 126 47.181C126.35 46.831 125.5 46.981 127 45.251C127 45.251 127.1 45.161 127 45.161V45.061C126.925 44.9834 126.817 44.9463 126.71 44.961L126.33 45.451C126.33 45.541 126.23 45.541 126.23 45.541L126.14 45.451C126.247 45.214 126.374 44.9865 126.52 44.771V44.871C126.592 44.8787 126.659 44.9104 126.71 44.961C127.121 44.4329 127.458 43.8508 127.71 43.231C127.61 43.231 127.93 42.231 127.23 42.461C127.32 42.461 127.32 42.561 127.32 42.561C127.65 42.881 127.41 43.011 126.65 43.561C126.59 43.331 126.51 43.461 126.55 42.981C126.59 42.501 126.55 42.711 127.23 41.931H127.32L127.42 41.641C126.53 41.771 127.32 40.571 127.03 38.081C126.58 37.701 126.38 37.081 124.92 37.211C124.645 37.3437 124.325 37.3437 124.05 37.211C123.91 37.281 123.85 37.041 123.47 37.501C122.954 37.4583 122.436 37.492 121.93 37.601V37.691C122.32 38.081 121.61 39.311 121.93 40.481C122.01 40.571 121.64 40.771 121.93 41.731C121.93 42.231 121.72 41.941 121.65 42.981C121.49 43.131 121.82 43.221 121.84 43.661H121.74C121.47 44.111 121.54 44.171 121.26 45.491C121.15 45.761 121.8 46.111 121.17 46.831V46.931C121.37 47.301 120.7 48.291 121.45 49.041C121.296 49.1815 121.168 49.3472 121.07 49.531C120.85 50.701 120.42 50.051 120.59 52.701C120.49 52.801 120.68 52.891 120.78 52.891C121.015 52.8252 121.241 52.7276 121.45 52.601C121.51 52.501 121.45 52.511 121.74 52.511C121.84 52.601 121.93 52.701 121.84 52.801C121.77 53.731 120.09 55.571 120.59 56.931C120.68 56.931 120.68 56.931 120.59 57.031C120.59 57.311 120.59 57.091 120.3 57.611C119.79 59.831 121.87 57.431 120.68 60.971C120.59 61.071 120.59 61.071 120.59 61.161C120.511 61.6411 120.511 62.1309 120.59 62.611C120.71 62.671 121.01 62.611 121.17 63.181C121.67 63.751 121.34 64.111 123.57 64.051C123.857 63.7857 124.24 63.6485 124.63 63.671C124.8 63.5924 124.936 63.4534 125.01 63.281C125.11 63.281 125.11 63.181 125.11 63.091C125.279 62.9279 125.475 62.7959 125.69 62.701C126.38 62.561 126.38 61.251 126.84 60.111C126.94 60.011 126.84 59.821 126.84 59.721C126.84 58.831 126.94 59.351 126.84 57.611C126.991 56.617 127.088 55.6155 127.13 54.611C127.31 53.611 127.73 52.971 128.28 50.961C130 47.241 130.81 39.891 137.45 40.001V40.001ZM125.71 43.471H125.9L125.81 44.041H125.62L125.71 43.471ZM121 58.001C121 58.0562 120.955 58.101 120.9 58.101V58.001L121 57.901V58.001ZM121.38 62.521H121.1V62.101C121.27 62.101 121.17 62.051 121.48 62.291L121.38 62.521ZM122 46.801H121.81L121.9 46.711H122V46.801Z" fill="black"/>
<path d="M150.05 22.7301C149.22 22.2301 149.94 21.9701 147.84 21.5801C147.698 21.8112 147.402 21.8939 147.16 21.7701C144.33 21.2601 141.05 23.9601 139.16 27.5401C138.592 28.4308 138.17 29.4064 137.91 30.4301C138.096 31.1214 138.223 31.8273 138.29 32.5401C138.68 35.7501 141.71 38.6701 144.93 41.6801H144.84V41.7801C137.54 40.5401 133.2 51.1601 137.43 58.7801C137.28 59.2601 138.24 58.8301 138.68 59.7801C140.02 58.9601 141.52 60.3701 144.16 58.3301C144.55 58.2401 144.64 57.9501 145.03 57.6601C145.11 57.5801 145.03 57.4401 145.89 57.1801C146.41 56.4901 146.94 55.9301 147.89 54.5801C147.913 54.3743 147.981 54.1761 148.09 54.0001V53.5201L148.18 53.4301C148.18 53.3301 148.28 53.2401 148.37 53.1401C148.46 53.0401 148.37 52.9501 148.57 52.8501C148.574 52.5823 148.639 52.3188 148.76 52.0801C148.92 51.3101 150 50.5201 150.2 48.5201C150.7 43.7101 149.49 37.5201 143.66 34.8601C143.41 34.5901 143.46 34.8101 142.89 34.2901C142.76 34.1701 142.74 34.2101 142.99 33.9001C142.99 33.7101 142.99 33.7101 142.8 33.6101C142.61 33.5101 142.51 33.5201 142.6 33.4201C142.493 33.0759 142.43 32.7199 142.41 32.3601C142.31 32.2701 142.41 32.1701 142.41 32.0701C142.479 31.9556 142.514 31.8237 142.51 31.6901C142.63 31.1501 142.05 31.1201 142.31 29.6901C142.8 27.4701 143.79 22.5201 149.14 24.1101H149.53C149.69 24.1801 149.69 24.2801 150.3 24.1101C150.37 24.0307 150.403 23.9252 150.39 23.8201C150.48 23.6601 150.48 23.6001 150.05 22.7301V22.7301ZM148.9 42.2601C148.99 42.2601 149.09 42.2601 149.09 42.3601L148.9 42.4501C148.85 42.4701 148.71 42.3301 148.9 42.2601V42.2601ZM146.39 38.0001H146.49V38.0901H146.3C146.3 38.0662 146.31 38.0433 146.326 38.0264C146.343 38.0096 146.366 38.0001 146.39 38.0001ZM145.39 43.1001C146.067 45.0299 146.164 47.1156 145.67 49.1001C145.41 49.3901 145.48 49.4701 145.29 50.4501C145.29 50.5101 145.56 50.4501 145.58 51.0201C145.469 51.3562 145.228 51.6336 144.91 51.7901C144.91 51.8901 144.81 52.0801 144.81 52.1801C144.408 52.8198 144.054 53.4882 143.75 54.1801C143.54 55.4401 144.29 55.1801 142.02 56.6801C142.23 56.6801 141.23 57.3201 141.02 57.0601C140.84 57.0601 140.95 57.0601 140.63 57.2601C140.293 57.2942 139.953 57.2602 139.63 57.1601C139.34 57.0601 139.15 56.7701 138.96 56.5801C136.96 53.0101 136.81 43.0601 143.86 43.1201C144.09 43.2201 143.86 43.3201 144.92 43.4001C144.92 43.3101 145.02 43.3101 145.02 43.2101C145.24 43.1301 145.34 43.0001 145.34 43.1301L145.39 43.1001Z" fill="black"/>
<path d="M158.23 14.8812C133.07 7.88118 107.88 13.7012 83.8704 22.0912C84.0604 20.7712 84.8704 18.0912 85.4104 15.7312C85.9604 15.3012 85.5404 13.8012 83.6804 14.9612C83.6036 14.9685 83.5323 15.0041 83.4804 15.0612V15.4412C82.4127 17.9763 81.4912 20.5706 80.7204 23.2112C80.0704 23.5312 79.8504 23.3912 77.9004 23.7212C77.6304 24.0812 77.2004 24.1912 76.9004 24.6012L76.4903 24.7512C76.4316 24.6373 76.3879 24.5163 76.3604 24.3912C75.5004 24.9912 75.3604 24.9012 73.1804 25.7412H73.3704C73.3533 25.8324 73.3035 25.9142 73.2304 25.9712H73.1604L73.0004 25.7412V25.8312C73.0004 25.6412 72.5404 26.5612 71.9404 26.1212L72.0404 25.9312C72.2004 25.6412 71.6703 25.6212 72.1303 24.4912C71.9103 24.0912 71.5603 23.6312 70.3103 23.3312C70.2503 23.3312 70.1103 23.5212 70.0203 23.3312C69.3003 23.3312 69.6103 22.8412 67.1303 24.0012C66.8503 24.7212 67.3304 24.3512 66.4604 25.7412C66.4348 25.7383 66.4093 25.7465 66.3901 25.7637C66.371 25.7809 66.3602 25.8055 66.3604 25.8312C66.6204 25.8312 67.0104 25.9112 66.3604 26.4112C66.3604 26.5112 66.1703 26.6012 66.1703 26.6012C66.6103 27.1912 66.8404 26.7712 65.9804 27.6612L65.8803 27.8512C65.7403 27.8512 66.1504 28.4412 65.2104 28.7212C63.1644 29.6654 61.0396 30.4284 58.8604 31.0012V31.2812C59.5004 31.5012 59.4904 33.0912 62.7104 32.1512C66.6504 30.0912 63.1904 36.4312 62.9004 40.7112C62.8204 40.8612 62.8104 40.7112 62.8004 41.3912C62.8015 41.6204 62.6437 41.8197 62.4203 41.8712C62.7603 43.0312 61.3304 46.7012 60.8804 48.9812C60.7628 49.1702 60.801 49.4167 60.9704 49.5612L60.8804 49.7512C60.8756 50.2161 60.777 50.6753 60.5904 51.1012C60.6041 51.4901 60.4681 51.8695 60.2104 52.1612C60.2104 52.4512 60.4904 52.5412 60.4004 52.7412C60.4004 53.2312 60.1904 53.4812 60.1104 54.9512C60.011 55.1635 60.011 55.4089 60.1104 55.6212C59.9953 56.0929 59.9315 56.5757 59.9203 57.0612C60.0488 57.1902 60.0846 57.385 60.0103 57.5512C59.9403 57.9212 59.7504 57.6712 60.1104 58.5512C59.9994 58.7937 59.9349 59.0549 59.9203 59.3212C59.5603 60.4112 60.2604 59.5812 59.7204 62.0112C59.1704 63.0112 59.9604 63.7812 61.0704 65.6712C61.1704 65.6712 61.1703 65.7612 61.2603 65.7612C66.1503 68.7612 70.1803 63.0712 71.5603 57.0112L71.9404 56.0112C71.9404 55.8112 72.0403 55.7212 72.1303 55.5312C72.2203 55.3412 71.7403 55.3312 72.5203 54.0812V54.0012C72.4403 53.4212 72.6404 53.8212 73.0004 52.0712C72.9004 52.0712 73.0004 51.9812 73.0004 51.8812L73.0903 51.6912C73.0003 51.6912 73.0004 51.5912 73.0004 51.5012L73.1904 51.3012C73.5804 51.3012 73.5804 51.1112 73.5804 50.9212C73.5804 50.9212 73.2803 50.7712 73.6703 50.3412C74.0303 49.3412 74.2104 49.2612 75.4004 46.7812L75.8803 46.0112C76.0867 45.9005 76.2023 45.6731 76.1703 45.4412C76.3429 45.1947 76.5406 44.9668 76.7604 44.7612C76.7606 45.0204 76.7908 45.2788 76.8503 45.5312C77.1203 45.6912 76.6503 45.9712 76.8503 46.5312C76.9503 46.6812 76.8503 46.5312 76.8503 47.1112C76.7103 47.5912 76.4503 47.5112 76.8503 48.3612V48.4612C76.8503 48.5212 76.4203 48.6612 76.8503 48.9412C76.8503 48.9412 76.4804 49.2712 76.7504 49.6112C76.7504 49.7012 76.6303 49.8612 76.8503 50.6112C76.7603 50.7312 76.7403 50.7912 76.5603 50.5212V51.3812L76.4604 51.5812L76.3704 53.5012L76.6504 53.7912C76.6504 54.0612 76.5403 54.0412 76.5603 54.7912C76.5104 55.3668 76.5104 55.9456 76.5603 56.5212C76.3603 59.9312 81.1704 61.2912 83.4804 57.1012C83.5265 57.0673 83.5537 57.0134 83.5537 56.9562C83.5537 56.8989 83.5265 56.8451 83.4804 56.8112C83.3304 55.8112 83.0403 54.4412 84.3503 50.1712C84.2003 48.3812 85.6504 46.5412 86.0804 43.7312C86.6204 42.9712 86.1703 43.6812 86.9503 41.9012C87.7703 40.5312 89.4004 37.2812 92.1404 35.7412C92.0704 35.8512 92.5303 35.4712 92.5303 36.0312C92.6903 37.1712 91.9604 40.4512 91.6604 42.0912C90.9438 44.1191 90.428 46.2125 90.1204 48.3412C90.152 49.3626 89.9891 50.3806 89.6404 51.3412C89.6491 51.4147 89.6847 51.4823 89.7403 51.5312C90.0203 51.8012 89.5403 53.2112 89.4503 54.3212C89.5803 55.4012 89.0604 54.4112 89.2504 58.6512C89.426 58.9234 89.3885 59.2812 89.1604 59.5112V59.6112C89.431 60.9106 89.431 62.2518 89.1604 63.5512L89.0603 63.8412C89.9603 65.5112 94.3403 65.8412 95.6003 62.4912C95.6003 62.3012 95.5103 62.1112 95.6003 61.9212C97.1203 57.0212 100.96 52.1412 103.88 45.9212C103.893 45.8679 103.921 45.8193 103.96 45.7812C103.96 45.9412 103.96 45.7812 103.78 46.1112C103.78 46.8112 103.45 46.4812 103.68 48.2312C103.98 47.7712 103.68 48.2312 104.17 47.0712C104.242 46.3952 104.369 45.7262 104.55 45.0712C104.69 44.5712 105.01 45.9812 104.55 46.8112C104.45 48.0012 104.96 50.4412 103.55 51.9012H103.45C103.28 52.6612 103.45 52.3312 103.07 54.0212L102.87 54.1212L103.07 56.2312C103.142 56.1525 103.175 56.0464 103.16 55.9412C103.334 56.189 103.494 56.446 103.64 56.7112L103.74 56.2312C103.93 56.4212 103.93 56.4212 103.84 56.5212C103.91 56.6005 103.943 56.7061 103.93 56.8112C103.825 56.8112 103.723 56.776 103.64 56.7112C103.64 56.4312 103.38 57.9312 103.84 57.3912C104.04 57.3112 104.11 56.9212 104.41 57.5812C104.41 57.9412 104.33 57.7212 104.99 58.2512C105.23 58.6212 105.17 58.2512 105.76 59.3112C105.76 59.6212 105.93 59.4512 106.34 60.3712C106.49 60.4312 106.41 60.4412 106.91 60.9512L106.82 61.0412C106.24 61.0412 105.95 60.9512 105.76 60.3712C105.66 60.3712 105.57 60.2712 105.38 60.1812C105.19 60.0912 104.69 60.1812 105.18 60.4612C105.18 60.8912 105.32 60.4012 106.05 61.4612C106.05 61.5512 106.15 61.5512 106.15 61.5512V61.7512C106.05 61.7512 106.15 61.8412 106.15 61.8412C107.563 62.0851 109.014 61.9856 110.38 61.5512C110.47 61.3612 110.76 61.3612 111.05 61.2612C113.66 60.4412 114.76 58.4512 116.82 55.0112C116.92 55.0112 116.92 54.8212 117.01 54.8212C117.33 53.9612 117.16 54.8212 120.19 49.1412C120.126 47.9871 120.16 46.8297 120.29 45.6812C120.19 45.6812 120.19 45.8712 120.19 45.9712C120.081 46.2562 119.918 46.5177 119.71 46.7412C119.61 46.8412 119.71 46.8412 119.71 46.9312C119.83 47.2212 119.93 47.0512 119.42 47.5112L119.32 47.9912C118.89 47.8512 119.23 48.5912 118.32 49.2412C118.01 49.3312 118.32 49.6312 117.83 50.2412C114.45 56.4012 105.61 66.7312 108.22 46.2412C109.07 44.3412 110.8 45.3212 113.99 43.7412C114.43 42.9312 114.08 43.4712 115.33 42.1112C116.26 40.997 116.978 39.7229 117.45 38.3512C118.07 38.2312 117.88 37.1212 118.45 36.0512C118.55 35.9512 118.64 35.8512 118.64 35.7612L118.45 35.6612L118.36 35.4712L118.45 34.8912L118.26 34.6012V34.0012H118.55L118.64 33.8112C118.24 33.0012 118.7 32.4712 117.87 30.6312C117.655 30.2732 117.494 29.8858 117.39 29.4812C117.093 28.9845 116.611 28.6252 116.05 28.4812C115.338 28.4177 114.62 28.482 113.93 28.6712C113.37 29.1412 112.19 28.5412 110.76 29.3412C110.803 29.3773 110.828 29.4303 110.828 29.4862C110.828 29.542 110.803 29.5951 110.76 29.6312C110.76 29.6864 110.716 29.7312 110.66 29.7312C110.657 29.5944 110.692 29.4594 110.76 29.3412C110.328 29.5348 109.911 29.7587 109.51 30.0112C109.41 30.2112 109.51 30.3012 109.51 30.4012C109.235 30.6706 108.978 30.9579 108.74 31.2612C108.366 31.8631 108.074 32.5121 107.87 33.1912C107.6 33.2912 107.81 34.0112 107.1 34.6312C107.156 34.6312 107.2 34.6759 107.2 34.7312C106.53 35.7312 106.65 35.1812 105.95 37.4212C105.87 37.4212 105.95 37.5612 106.14 37.6112C106.193 37.5629 106.259 37.5316 106.33 37.5212C106.24 38.0412 106.47 37.6412 105.66 38.8612V39.0012C105.605 39.0012 105.56 38.9564 105.56 38.9012C105.15 39.4512 104.95 40.4212 104.56 42.3712C104.443 43.1302 104.256 43.8768 104 44.6012C99.6304 48.2212 99.3104 54.2512 94.7204 58.9212C94.4304 58.8312 94.6203 58.5412 94.5303 58.3412C94.5109 56.1853 94.6681 54.0314 95.0004 51.9012C95.1768 51.1098 95.3037 50.3083 95.3803 49.5012C95.3512 48.4354 95.5812 47.3785 96.0504 46.4212C95.9404 44.1912 97.4203 41.4212 97.3103 38.1412L97.6904 37.5712C99.2804 29.7512 87.0204 33.5712 82.4004 47.0912C81.5404 45.9812 82.1503 44.0412 81.5303 40.5512C81.4303 40.3812 81.7104 40.3212 81.7204 39.7812C81.6104 37.5512 82.3204 34.0912 82.1104 30.7812C82.1104 30.6912 82.1103 30.5912 82.2003 30.5912C82.3003 30.4012 82.4903 30.3012 82.5903 30.1112C82.5103 28.8812 82.4604 29.5012 82.9704 26.9412C82.9704 26.7812 82.7804 26.9412 82.9704 26.1712C82.9277 26.1351 82.9031 26.082 82.9031 26.0262C82.9031 25.9703 82.9277 25.9173 82.9704 25.8812C82.9665 25.7444 83.0011 25.6092 83.0704 25.4912C83.2904 25.3012 83.3003 25.2812 83.4503 24.2812C128.14 7.90118 134.94 16.6012 158.23 14.8812V14.8812ZM60.4004 63.6412C60.3004 63.7212 60.0304 63.0212 60.5904 63.5412C60.4904 63.5412 60.4904 63.6412 60.4004 63.6412ZM62.0004 56.0012C62.0004 55.8012 61.9104 55.8012 61.9104 55.8012C61.9104 55.8012 61.9104 55.7112 62.0004 55.7112V56.0012ZM62.4804 52.6312L62.2904 52.5312H62.4804V52.6312ZM63.0604 46.5712C63.0604 46.4712 63.0604 46.4712 62.9604 46.4712C63.0604 46.4712 63.0604 46.2812 63.1604 46.2812V46.4712L63.0604 46.5712ZM63.2504 48.1112C63.1804 48.1112 63.1904 48.1112 63.1604 47.9212C63.2604 48.0012 63.2603 47.9412 63.2803 48.1512L63.2504 48.1112ZM92.1404 41.9012C92.1404 41.9012 92.0404 41.9012 92.0404 41.9912L91.8503 41.8012C92.0403 41.7012 92.1404 41.7012 92.1404 41.6112C92.2404 41.7012 92.1404 41.8012 92.1404 41.9012V41.9012ZM103.14 54.4012V54.1112C103.14 54.3012 103.23 54.3012 103.23 54.3012C103.23 54.3012 103.2 54.4012 103.11 54.4012H103.14ZM115.8 35.1612C115.796 35.2659 115.715 35.3513 115.61 35.3612L115.52 35.2612L115.61 35.0712C115.8 35.0712 115.8 35.0712 115.8 35.1612V35.1612ZM115.42 34.1012H115.52L115.42 34.2012C115.23 34.1012 114.94 34.0112 115.03 33.7212C115.13 33.6212 115.13 33.6212 115.13 33.5312H115.32C115.402 33.7095 115.436 33.9058 115.42 34.1012V34.1012ZM114.55 32.4712C114.7 32.3012 115.19 32.4012 115.03 32.9512C114.84 32.8512 114.65 32.8512 114.55 32.6612V32.4712ZM114.27 31.9912L114.46 32.3712V32.4712C114.17 32.4712 113.88 32.2812 113.88 32.0812C114.012 32.0658 114.143 32.0391 114.27 32.0012V31.9912ZM111.38 29.2012C111.48 29.2012 111.48 29.2012 111.48 29.2912L111.38 29.3912C111.38 29.3912 111.2 29.2612 111.38 29.2012ZM109.17 39.4012C109.243 39.3886 109.309 39.3536 109.36 39.3012V38.9112C109.3 38.9112 109.78 38.7712 109.55 38.4312C109.61 37.7612 109.48 38.2712 110.13 36.8912V36.8012C110.6 36.4012 110.23 36.2812 111.57 33.9112C112.001 33.4008 112.389 32.8556 112.73 32.2812C112.66 32.1912 112.95 32.0112 113.3 32.1812C113.69 32.5212 113.64 32.1812 114.17 33.1812C114.34 33.6212 114.46 34.0912 114.84 35.4012C115.13 35.5912 115.03 35.7812 115.13 35.9712C115.03 36.7412 115.13 37.5112 115.03 38.3812C115.46 38.9612 111.5 44.7512 110.51 41.1712C110.45 40.7512 109.91 40.5912 109.17 39.6312H109.07C109.066 39.543 109.103 39.4578 109.17 39.4012V39.4012ZM107.24 60.8512C107.266 60.8483 107.291 60.8565 107.311 60.8737C107.33 60.8909 107.341 60.9155 107.34 60.9412C107.285 60.9412 107.24 60.9859 107.24 61.0412V60.8512ZM107.34 61.4212C107.34 61.4212 107.55 61.2312 108.34 61.4212C108.34 61.4764 108.385 61.5212 108.44 61.5212C108.39 61.5912 108.07 61.8412 107.38 61.6212C107.38 61.5659 107.336 61.5212 107.28 61.5212L107.34 61.4212ZM106.28 59.3112C106.38 59.3112 106.28 59.4012 106.38 59.4012C106.28 59.5012 106.28 59.5012 106.19 59.5012C106.19 59.4459 106.146 59.4012 106.09 59.4012L106.28 59.3112ZM104.45 54.6912C104.55 54.6912 104.55 54.6912 104.55 54.7912C104.495 54.7912 104.45 54.7464 104.45 54.6912ZM104.65 56.1312V55.4612C104.74 55.4612 104.74 55.5612 104.74 55.6512L104.65 55.8412L104.84 56.1312H104.65ZM105.65 57.4812C105.599 57.5336 105.533 57.5686 105.46 57.5812L105.26 57.0912C105.26 57.1712 105.26 56.8812 105.65 56.9012C105.51 57.0912 105.51 57.1912 105.61 57.4812H105.65ZM105 40.8412C105 40.6512 105.1 40.2612 105.19 40.2612L105.67 39.8812C105.67 40.1212 105.67 39.9612 105.87 40.3612C105.728 40.8282 105.533 41.2777 105.29 41.7012H105.1C105.114 41.4406 105.08 41.1797 105 40.9312V40.8412ZM105 42.3812H105.1C105 42.4712 104.9 42.7612 104.81 42.6712C104.72 42.5812 104.71 42.6712 104.71 42.5712C104.71 42.4712 104.93 42.3812 105 42.3812ZM68.0004 38.6312C67.7504 38.5112 68.0903 39.6312 67.4203 39.6312C67.3103 39.5512 67.2403 39.5212 67.5203 39.3412V38.9512C67.3303 38.6412 67.3104 38.6212 67.9004 37.6112C67.9004 37.6112 68.3204 37.6812 67.9004 38.2812V38.6712L68.0004 38.6312ZM66.0004 34.4912C66.0739 34.4999 66.1415 34.5355 66.1904 34.5912C66.0904 34.6812 66.0004 34.6812 65.8004 34.6812L65.7104 34.5912C65.7804 34.5912 65.7804 34.4912 66.0004 34.4912ZM65.9004 37.7612V37.8612C65.8451 37.8612 65.8004 37.8164 65.8004 37.7612H65.9004ZM64.8204 39.3012V38.9112C64.9904 38.8412 65.0904 38.6712 65.4004 39.0112C65.2504 39.3512 65.5004 39.1012 64.7304 39.7812C64.6747 39.7323 64.6391 39.6647 64.6303 39.5912C64.7303 39.4912 64.7304 39.4012 64.8204 39.3012V39.3012ZM65.0004 40.7412V40.9312H64.8103C64.8403 40.8312 64.7504 40.7912 65.0004 40.7412ZM63.4704 44.4912C63.3604 44.2212 63.9903 43.7012 64.2403 44.0112C64.0903 44.0112 64.0704 44.4212 63.4704 44.5912V44.4912ZM63.7504 45.2612L63.6604 45.1712C63.7504 45.1712 63.7504 45.1712 63.7504 45.0712L63.8503 45.1712C63.8603 45.2612 63.7603 45.2612 63.7603 45.2612H63.7504ZM80.0004 27.0012V27.0912C79.9004 27.0912 79.9003 27.1912 79.8103 27.2812C79.7961 27.3864 79.8291 27.4925 79.9004 27.5712V27.7712C79.9004 27.8512 79.2004 27.9612 79.7104 28.3412V28.5412C78.9004 29.6912 79.0503 31.7412 78.2703 33.9212C78.2573 34.0281 78.2942 34.135 78.3704 34.2112C78.3704 34.3112 78.2703 34.3112 78.2703 34.4012C77.8133 36.0989 77.5549 37.8439 77.5004 39.6012C77.4004 39.6912 77.4003 39.8912 77.3103 39.9812C77.2203 40.0712 77.3104 40.0812 77.2104 40.1712C77.3079 40.8331 77.3414 41.5028 77.3103 42.1712C77.0966 42.3624 76.9612 42.626 76.9304 42.9112C76.7975 42.9455 76.6672 42.989 76.5404 43.0412C76.2904 43.6312 76.5403 42.8212 74.8103 45.8312C73.6688 47.5251 72.6399 49.2922 71.7304 51.1212C71.6655 51.2039 71.6303 51.306 71.6303 51.4112C71.1503 51.7012 71.1504 51.7912 71.1504 52.0812C71.2504 52.0812 71.2504 52.0812 71.1504 52.1812C70.0004 52.8212 67.8004 61.8712 64.8204 63.0012C64.6434 62.2185 64.4196 61.4471 64.1504 60.6912C64.1666 60.0663 64.404 59.4674 64.8204 59.0012C65.0604 58.5512 65.1404 59.0012 65.3004 57.6512L65.1104 57.7512C65.0104 57.7512 65.0104 57.8412 65.0104 57.9412C64.6904 58.4912 64.7304 58.2412 64.1504 59.2912L64.0504 59.3812C63.9604 59.3812 64.0504 59.2912 64.0504 59.2912C64.1904 59.1312 63.7203 58.9312 64.3403 57.9412C64.3956 57.9412 64.4404 57.8964 64.4404 57.8412C64.4404 57.7712 64.3404 57.9812 64.1504 57.5612L64.2504 57.3612C64.255 56.8423 64.3187 56.3256 64.4404 55.8212C64.4404 55.8212 64.4403 55.6312 64.3403 55.6312C64.1915 54.7672 64.3621 53.8786 64.8204 53.1312C64.5204 52.9812 65.1604 52.1312 64.8204 51.5912C65.0304 50.5912 65.6103 47.5912 65.8803 46.0112C66.3499 45.1296 66.706 44.1921 66.9404 43.2212C67.0112 43.2107 67.0774 43.1794 67.1303 43.1312C67.4203 43.3412 68.3704 42.7412 67.6104 41.7812C67.4204 41.8312 67.8104 41.9712 67.3204 42.4512C67.4104 42.7612 66.6804 43.1412 66.7504 42.3612V41.8012C66.9504 41.6512 66.5903 41.3012 67.4203 40.7412C67.4936 40.7508 67.561 40.7863 67.6104 40.8412C67.6104 40.7712 67.6103 40.6812 67.5203 40.6512C67.7103 40.5512 67.7104 40.4512 67.7104 40.3612C68.0321 40.121 68.2417 39.7597 68.2904 39.3612C68.4204 39.2812 68.1804 39.1712 68.2904 38.6812C68.3106 38.5073 68.3761 38.3418 68.4804 38.2012C68.6246 37.935 68.7849 37.6779 68.9604 37.4312C68.9296 37.2453 68.7572 37.1171 68.5704 37.1412L68.4804 37.0512H68.5704C68.7931 36.4594 68.9539 35.8461 69.0504 35.2212C69.5301 34.4813 69.7353 33.5967 69.6303 32.7212C69.8466 32.2174 70.1041 31.7324 70.4004 31.2712C70.4704 30.9312 70.5704 30.8312 70.7904 29.7412C70.9119 29.4957 71.0058 29.2374 71.0704 28.9712C71.0704 28.9712 71.0704 28.9112 71.0704 28.8812L71.5704 28.6912C71.7204 28.6912 71.8703 28.9812 72.0203 28.5212L73.4903 28.0012H73.5804V28.1012C73.5804 28.0412 73.7604 28.2712 73.9604 27.9112H73.7703L75.0004 27.4212C75.0004 27.5612 75.0004 27.5612 75.1904 27.5612C76.1904 26.7712 77.1903 26.6712 80.1303 25.5612C80.0857 25.9303 79.9774 26.289 79.8103 26.6212C79.8334 26.7643 79.8997 26.8969 80.0004 27.0012V27.0012Z" fill="black"/>
<path d="M136.07 27.6506C135.53 26.9206 137.43 25.8906 135.91 21.2906C135.62 21.0706 135.91 21.1406 135.14 21.1406C134.995 21.0431 134.824 20.994 134.65 21.0006C134.22 21.2806 133.02 21.0006 132.65 21.3506C131.76 21.4406 130.24 22.7106 132.11 24.8606C132.102 25.0151 132.169 25.1641 132.29 25.2606H132.35C132.463 25.4247 132.566 25.5949 132.66 25.7706C132.59 25.7706 132.51 25.7706 132.5 25.7706C132.49 25.7706 132.66 25.9006 132.75 25.9506C133.11 26.9506 132.75 27.2606 132.45 29.7006C132.454 29.7805 132.454 29.8606 132.45 29.9406C132.872 30.3297 133.507 30.3754 133.98 30.0506C134.423 30.1552 134.886 30.138 135.32 30.0006C135.303 29.9384 135.303 29.8728 135.32 29.8106C135.81 29.0906 135.86 29.4306 136.07 27.6506V27.6506ZM135.45 25.5306C135.26 21.7506 136.11 21.4406 135.45 26.8106C135.279 26.4011 135.279 25.9401 135.45 25.5306Z" fill="black"/>
<path d="M132.771 26.9102C132.501 26.8202 132.361 26.9102 132.371 27.2102C132.561 27.2102 132.721 27.4802 132.861 27.2802C132.721 27.2402 132.891 27.0002 132.771 26.9102Z" fill="black"/>
</g>
<defs>
<clipPath id="clip0_3_23734">
<rect width="159" height="83" fill="white"/>
</clipPath>
</defs>
</svg>
