<svg width="250" height="138" viewBox="0 0 250 138" fill="none" xmlns="http://www.w3.org/2000/svg">
<g clip-path="url(#clip0_3_21754)">
<path fill-rule="evenodd" clip-rule="evenodd" d="M127.228 105.794C122.116 110.845 122.336 107.88 126.799 104.591C125.577 104.158 123.698 104.908 122.837 103.596C123.506 102.605 124.84 103.395 126.31 103.255C123.165 99.6446 124.816 98.8061 127.585 102.798C128.278 97.5505 130.016 96.0822 128.738 102.798C130.193 101.807 131.218 99.2755 133.145 99.3718C133.438 101.049 130.661 101.895 129.808 103.492C136.31 103.797 135.529 105.734 129.259 104.735C129.439 105.939 133.666 109.072 131.33 109.742L128.386 105.806C128.101 107.243 128.354 108.518 127.781 109.617C125.97 109.517 127.404 107.271 127.228 105.794V105.794Z" fill="#EE4779" stroke="#EE4779" stroke-width="3" stroke-linecap="round" stroke-linejoin="round"/>
<path fill-rule="evenodd" clip-rule="evenodd" d="M76.5229 56.0424C71.4067 61.0931 71.631 58.1325 76.0902 54.8389C74.8882 54.4057 72.9932 55.1559 72.1318 53.8441C72.8009 52.8492 74.135 53.6435 75.6054 53.5031C72.4604 49.8926 74.111 49.0502 76.8794 53.0457C77.5725 47.7985 79.3113 46.3303 78.0333 53.0457C79.4876 52.0549 80.5132 49.5195 82.4403 49.6198C82.7328 51.2967 79.9564 52.1431 79.103 53.7398C85.6054 54.0446 84.8241 55.9823 78.5541 54.9834C78.7344 56.1868 82.9612 59.3199 80.6254 59.9899L77.6807 56.0545C77.3963 57.4906 77.6487 58.7663 77.0757 59.8655C75.2689 59.7732 76.7192 57.5227 76.5229 56.0424V56.0424Z" fill="#EE4779" stroke="#EE4779" stroke-width="3" stroke-linecap="round" stroke-linejoin="round"/>
<path fill-rule="evenodd" clip-rule="evenodd" d="M193.406 110.576C191.623 114.226 192.677 115.297 193.826 118.431C190.329 117.384 191.487 111.807 192.873 109.003C192.713 106.773 192.368 104.189 194.015 102.099C191.342 98.7856 177.989 84.2916 181.346 84.0469C184.299 89.0093 187.757 93.394 191.663 97.9231L195.409 95.6726C194.231 94.0679 197.204 86.847 197.933 90.0924C196.428 91.5399 195.877 93.7182 196.511 95.7087C197.897 95.123 200.193 96.4589 201.451 94.79C203.229 92.038 209.507 93.9877 207.837 95.5923C205.681 94.3126 203.43 93.5504 201.551 96.17C207.472 98.9581 206.358 100.286 200.85 97.0807C197.969 95.9414 194.944 96.5311 192.596 98.8739C194.511 101.281 196.915 103.427 199.271 105.762C201.013 104.546 203.205 104.17 205.253 104.735C206.815 103.243 211.306 101.59 211.887 104.763C210.253 103.989 208.35 103.423 206.779 105.108C207.408 105.649 212.588 108.718 210.104 108.879C207.364 106.705 203.742 104.065 200.253 106.592C201.366 108.197 208.025 112.168 206.551 113.344C205.646 112.905 204.83 112.301 204.147 111.563C202.064 113.809 203.766 116.706 205.297 118.784C202.612 119.79 201.182 112.622 203.229 110.76C200.251 108.286 197.44 105.617 194.816 102.769C191.763 107.238 195.389 112.245 197.929 115.723C196.402 116.192 194.135 111.843 193.406 110.576V110.576Z" fill="#3AA448"/>
<path fill-rule="evenodd" clip-rule="evenodd" d="M207.436 115.487C206.262 114.36 207.837 111.56 209.652 112.659C211.983 113.907 209.231 117.232 207.436 115.487Z" fill="#EE4779"/>
<path fill-rule="evenodd" clip-rule="evenodd" d="M208.694 97.7276C208.307 97.1947 208.24 96.4928 208.52 95.8964C208.801 95.3 209.383 94.904 210.04 94.8633C213.237 95.1361 211.294 100.291 208.694 97.7276Z" fill="#EE4779"/>
<path fill-rule="evenodd" clip-rule="evenodd" d="M205.369 119.788C206.819 118.335 209.279 119.387 208.217 121.497C206.386 123.643 203.75 122.03 205.369 119.788Z" fill="#EE4779"/>
<path fill-rule="evenodd" clip-rule="evenodd" d="M213.606 111.071C212.211 112.747 210.128 111.123 211.342 109.237C212.876 107.131 215.573 109.41 213.586 111.051L213.606 111.071Z" fill="#EE4779"/>
<path fill-rule="evenodd" clip-rule="evenodd" d="M198.065 88.7218C196.863 87.1854 198.75 85.1114 200.365 86.351C201.947 88.1522 199.88 90.2904 198.065 88.7218Z" fill="#EE4779"/>
<path fill-rule="evenodd" clip-rule="evenodd" d="M200.269 118.372C198.715 119.977 196.371 117.883 198.31 116.053C199.808 114.733 202.132 116.872 200.269 118.372Z" fill="#EE4779"/>
<path fill-rule="evenodd" clip-rule="evenodd" d="M212.893 106.385C211.351 105.029 213.51 102.477 215.173 103.978C216.347 105.394 214.472 108.041 212.893 106.385Z" fill="#EE4779"/>
<path fill-rule="evenodd" clip-rule="evenodd" d="M193.763 119.37C195.077 118.094 197.525 119.214 196.275 121.167C194.88 123.289 192.244 121.047 193.763 119.37Z" fill="#EE4779"/>
<path fill-rule="evenodd" clip-rule="evenodd" d="M208.117 101.064C206.206 102.669 204.311 100.88 205.958 99.0264C207.043 98.0917 209.676 99.4516 208.117 101.064Z" fill="#EE4779"/>
<path fill-rule="evenodd" clip-rule="evenodd" d="M93.2056 37.5091C93.3939 34.1313 94.3435 29.9632 97.3643 27.7207C100.241 30.1277 101.627 33.2969 102.292 36.8512C106.014 35.7199 109.592 35.772 112.929 38.7005C111.29 41.4554 108.575 43.3986 105.441 44.0601C106.799 46.8923 107.476 50.948 105.545 54.0891C101.976 54.5224 98.3739 51.0764 97.2281 47.7829C95.3531 50.5469 92.0558 53.5315 88.3379 54.0771C86.4869 51.4695 87.6367 46.4109 90.6976 44.4733C73.9989 37.9183 88.2297 34.7571 93.2056 37.5091V37.5091Z" fill="#F06370"/>
<path fill-rule="evenodd" clip-rule="evenodd" d="M96.5544 50.6074C96.5825 54.9961 99.0023 59.084 102.652 61.8159C97.9607 67.0391 93.0769 53.0786 96.5544 50.6074Z" fill="#048C45"/>
<path fill-rule="evenodd" clip-rule="evenodd" d="M96.555 38.8049C98.7666 38.7768 98.438 41.7294 96.4549 41.8176C94.7401 41.7213 94.5077 38.8169 96.555 38.8049Z" fill="#005033"/>
<path fill-rule="evenodd" clip-rule="evenodd" d="M98.5304 40.3328C98.3942 38.676 101.094 38.4955 101.443 40.06C101.924 42.0417 98.6105 42.5231 98.5304 40.3328Z" fill="#005033"/>
<path fill-rule="evenodd" clip-rule="evenodd" d="M98.1096 44.444C96.4309 44.3437 96.2867 41.9688 98.2298 41.8164C99.7923 41.8525 99.9966 44.3798 98.1096 44.444Z" fill="#005033"/>
<path opacity="0.9" fill-rule="evenodd" clip-rule="evenodd" d="M50.4814 23.379C46.7955 15.3116 57.9173 12.6399 59.2715 20.5709C66.7955 18.4648 70.0888 27.0777 63.2378 29.5288C63.8267 36.4529 56.2787 37.853 53.967 31.8957C46.7354 34.5394 42.7009 25.0599 50.4814 23.379Z" fill="#F59698"/>
<path fill-rule="evenodd" clip-rule="evenodd" d="M48.9783 22.9028C45.4287 24.4714 39.9439 22.0283 39.8838 17.9766C43.0529 18.1089 47.1674 19.9262 48.9783 22.9028Z" fill="#005033"/>
<path fill-rule="evenodd" clip-rule="evenodd" d="M61.0699 18.9021C60.3528 16.2504 62.5002 11.3401 64.5034 11.0312C65.0924 13.5987 64.1989 17.9674 61.0699 18.9021V18.9021Z" fill="#005033"/>
<path fill-rule="evenodd" clip-rule="evenodd" d="M54.2114 24.3393C57.076 22.0808 60.7138 25.4024 58.0215 28.1664C55.5736 30.4491 51.9037 26.6541 54.2114 24.3393Z" fill="#005033"/>
<path fill-rule="evenodd" clip-rule="evenodd" d="M59.3231 103.632L53.9826 109.296C54.9642 113.204 58.4377 115.835 59.0227 120.063C59.6477 123 56.3945 125.66 54.0908 123.164C52.0114 119.955 52.4882 115.582 52.1437 111.699C37.8728 135.239 21.8111 110.76 47.7366 113.44C50.1084 112.674 50.7294 109.926 52.4962 107.932C38.9265 111.731 38.4618 100.82 44.3512 101.827C47.957 102.521 50.7254 104.695 54.5275 105.626C56.4986 103.387 58.5579 101.149 60.8336 98.8058C46.4105 100.611 47.2318 89.3544 53.4457 91.1837C56.8312 92.1706 58.5379 95.4441 62.0996 96.4951C64.6597 97.0567 68.7462 87.3847 70.3047 91.3121C71.739 93.0291 68.1533 94.2687 67.2438 95.6085C65.6413 97.8149 59.9802 100.876 62.2879 103.07C70.2687 113.978 63.9826 118.447 60.7695 114.427C58.7222 111.122 59.6196 107.487 59.3231 103.632V103.632Z" fill="#93C03D"/>
<path fill-rule="evenodd" clip-rule="evenodd" d="M217.184 81.577C221.843 85.2917 221.887 80.1288 225.521 78.5642C231.078 78.2353 225.838 84.6258 222.745 84.337C225.79 86.6557 229.091 82.8126 232.661 83.4384C236.719 83.8395 234.996 88.3205 231.823 88.6535C227.817 88.5251 224.612 86.0379 220.605 84.8505C225.157 90.3624 219.66 96.0269 218.294 91.6502C218.049 83.2739 222.2 85.9697 213.823 80.7345C217.292 89.5601 210.617 93.0863 210.012 87.5543C212.881 79.1299 214.383 81.6171 207.561 75.9206L208.514 75.2266C218.358 83.3782 214.091 79.0577 220.229 75.2907C227.044 74.7973 220.718 81.7334 217.184 81.577V81.577Z" fill="#93C03D"/>
<path d="M146.395 16.1179C151.539 21.8264 149.6 28.2089 151.971 29.962C153.895 28.6542 146.963 11.1354 146.395 16.1179Z" fill="#036635"/>
<path d="M152.388 14.0076C152.104 19.7563 151.034 29.7292 152.501 29.653C153.743 27.2861 152.533 22.9977 153.061 20.0612C152.905 18.4846 154.287 11.6809 152.388 14.0197V14.0076Z" fill="#036635"/>
<path d="M158.253 14.4909C154.876 17.1185 150.95 29.9036 152.837 29.6508C153.862 28.8967 153.598 26.6582 154.147 25.3664C155.293 17.8085 161.142 13.9533 158.253 14.4909V14.4909Z" fill="#036635"/>
<path fill-rule="evenodd" clip-rule="evenodd" d="M152.816 12.4926C150.813 12.3321 150.669 9.19103 152.933 9.13086C154.924 9.25522 155.348 12.4084 152.816 12.4926Z" fill="#005033"/>
<path fill-rule="evenodd" clip-rule="evenodd" d="M160.337 14.0408C158.089 13.768 158.169 10.5908 160.829 10.992C162.432 11.4052 162.564 14.1812 160.337 14.0408Z" fill="#005033"/>
<path fill-rule="evenodd" clip-rule="evenodd" d="M144.864 14.7862C144.086 14.6973 143.486 14.0584 143.446 13.2752C143.405 12.4921 143.935 11.7942 144.7 11.625C146.703 11.6611 146.9 14.6337 144.864 14.7862Z" fill="#005033"/>
<path fill-rule="evenodd" clip-rule="evenodd" d="M141.619 29.4062C140.641 20.1795 148.963 18.5427 152.007 27.0313C154.904 18.1696 165.084 18.2739 162.62 28.6079C171.983 24.0707 171.983 36.1497 165.024 39.3189C160.733 41.3247 156.547 41.3849 151.843 41.9947C134.119 44.506 130.609 25.1539 141.619 29.4062V29.4062Z" fill="#EC93BD" stroke="#EC93BD" stroke-width="2"/>
<path fill-rule="evenodd" clip-rule="evenodd" d="M152.044 59.0436C152.821 55.377 152.993 51.6823 153.306 48.0558C157.312 46.1663 153.526 59.8419 153.818 61.2661C156.475 56.5845 161.615 55.1925 159.876 58.9193C158.013 60.9772 155.649 62.1807 153.846 64.5195C151.555 67.3276 151.735 79.0336 148.694 75.4231C151.979 63.316 152.46 61.9841 145.794 54.2377C144.191 51.4897 147.741 51.6101 149.203 53.4033C150.85 55.02 151.086 56.8051 152.044 59.0436ZM151.559 62.3291C152.42 59.6173 149.287 51.8748 146.114 52.8055C146.751 56.059 151.09 58.3616 151.559 62.3291ZM153.454 63.6329L153.646 63.7573C154.94 61.7194 160.233 59.3445 159.479 57.4069C156.403 57.6395 154.864 61.0294 153.446 63.6329H153.454Z" fill="#048C45"/>
<path fill-rule="evenodd" clip-rule="evenodd" d="M163.374 39.201C165.273 37.6967 164.76 33.4363 161.912 33.5326C159.508 33.5045 158.106 36.1682 156.231 36.3407C155.63 33.9337 154.804 31.258 151.731 32.0443C148.346 33.2839 149.904 35.1372 150.245 37.4158C149.319 37.817 148.466 36.3608 147.112 36.3126C143.831 35.39 141.427 38.1981 143.634 40.5168C149.96 42.4344 156.864 40.4647 163.374 39.201Z" fill="#F8C1CC"/>
<path fill-rule="evenodd" clip-rule="evenodd" d="M154.432 39.4264C155.633 39.4264 158.947 38.1989 159.347 40.2649C158.987 42.8283 156.226 49.2349 153.843 49.0263C151.499 48.3764 150.637 45.9373 149.179 43.9796C146.415 40.1806 151.751 39.4666 154.432 39.4264Z" fill="#036635"/>
<path fill-rule="evenodd" clip-rule="evenodd" d="M120.02 53.9487C121.138 49.5359 120.533 45.091 118.554 40.8869C119.731 38.5762 120.881 43.5345 121.626 44.8263C121.999 43.9798 121.683 37.822 123.67 40.4897C123.698 42.7884 123.041 45.0309 122.989 47.3777C124.094 46.2223 125.176 45.2194 126.719 44.9707L127.063 45.9576C122.788 48.1198 121.582 53.2427 120.653 57.7237C120.725 58.8951 118.317 66.4971 117.764 62.5376C119.239 58.3856 119.868 55.6617 117.159 52.1555C116.394 51.4134 115.885 49.7485 117.636 50.5148C118.521 51.5941 119.318 52.7424 120.02 53.9487V53.9487Z" fill="#036635"/>
<path opacity="0.5" fill-rule="evenodd" clip-rule="evenodd" d="M125.801 21.2305C137.889 37.5899 113.61 37.277 125.461 25.4948C126.298 24.0105 125.977 23.0156 125.801 21.2305Z" fill="#EC93BD"/>
<path fill-rule="evenodd" clip-rule="evenodd" d="M124.724 20.6562C126.859 27.0347 119.339 27.3035 121.635 33.337C116.587 30.1357 121.731 23.7211 124.724 20.6562V20.6562Z" fill="#EC93BD"/>
<path fill-rule="evenodd" clip-rule="evenodd" d="M122.673 33.1289C128.009 33.2693 127.917 34.3324 125.273 38.7452C122.304 44.9391 120.866 37.4254 119.968 34.3324C119.912 32.9363 121.327 33.1971 122.669 33.177C122.667 33.1609 122.668 33.1445 122.673 33.1289V33.1289Z" fill="#036635"/>
<path fill-rule="evenodd" clip-rule="evenodd" d="M148.374 85.2188C161.491 92.4999 183.094 120.641 181.491 131.441C176.134 110.432 161.996 98.2164 148.374 85.2188Z" fill="#93C03D"/>
<path opacity="0.6" fill-rule="evenodd" clip-rule="evenodd" d="M158.494 105.016C155.253 102.581 158.862 97.9717 161.955 100.102C164.82 102.324 161.458 107.11 158.494 105.016Z" fill="#F59698"/>
<path opacity="0.6" fill-rule="evenodd" clip-rule="evenodd" d="M156.202 98.6138C154.027 101.542 149.896 98.6138 151.627 95.2841C154.279 91.5172 158.298 94.7907 156.202 98.6138Z" fill="#F59698"/>
<path opacity="0.6" fill-rule="evenodd" clip-rule="evenodd" d="M173.005 109.228C169.7 106.821 172.665 102.027 176.11 104.583C178.895 106.709 175.501 110.757 173.005 109.228Z" fill="#F59698"/>
<path opacity="0.6" fill-rule="evenodd" clip-rule="evenodd" d="M174.039 125.244C176.843 121.85 180.449 126.68 178.065 129.404C175.69 132.32 172.116 127.843 174.039 125.244V125.244Z" fill="#F59698"/>
<path opacity="0.6" fill-rule="evenodd" clip-rule="evenodd" d="M157.476 91.3976C154.532 89.456 157.1 85.4925 159.94 86.5435C163.29 88.2124 160.702 93.596 157.476 91.3976Z" fill="#F59698"/>
<path opacity="0.6" fill-rule="evenodd" clip-rule="evenodd" d="M170.838 112.236C173.691 114.463 170.886 119.012 167.705 116.894C165.141 114.92 167.697 110.11 170.838 112.236Z" fill="#F59698"/>
<path opacity="0.6" fill-rule="evenodd" clip-rule="evenodd" d="M180.525 114.295C178.121 117.577 174.067 113.228 176.467 110.255C178.887 107.913 182.737 111.583 180.525 114.295Z" fill="#F59698"/>
<path opacity="0.6" fill-rule="evenodd" clip-rule="evenodd" d="M167.119 95.9895C164.776 99.1747 160.781 95.484 162.552 92.716C165.317 89.2058 169.071 93.2496 167.119 95.9895Z" fill="#F59698"/>
<path opacity="0.6" fill-rule="evenodd" clip-rule="evenodd" d="M164.135 110.954C161.583 108.912 164.103 104.724 167.088 106.365C169.668 108.395 167.172 112.924 164.135 110.954Z" fill="#F59698"/>
<path opacity="0.6" fill-rule="evenodd" clip-rule="evenodd" d="M168.321 102.73C165.497 100.6 168.437 95.7621 171.683 98.7187C173.878 100.235 170.969 104.752 168.321 102.73Z" fill="#F59698"/>
<path opacity="0.6" fill-rule="evenodd" clip-rule="evenodd" d="M175.357 122.27C172.32 125.512 169.079 121.408 171.247 118.692C173.57 116.337 177.16 119.582 175.357 122.27Z" fill="#F59698"/>
<path opacity="0.6" fill-rule="evenodd" clip-rule="evenodd" d="M180.657 133.149C182.46 130.562 186.342 133.149 185.064 135.921C183.197 139.704 178.373 136.483 180.657 133.149Z" fill="#F59698"/>
<path opacity="0.6" fill-rule="evenodd" clip-rule="evenodd" d="M180.69 120.412C177.857 118.406 180.269 114.126 183.342 115.899C186.186 118.065 183.302 122.149 180.69 120.412Z" fill="#F59698"/>
<path opacity="0.6" fill-rule="evenodd" clip-rule="evenodd" d="M185.432 123.09C188.165 125.095 185.889 128.822 182.961 127.41C180.625 125.633 182.632 121.236 185.432 123.09Z" fill="#F59698"/>
<path opacity="0.6" fill-rule="evenodd" clip-rule="evenodd" d="M95.1525 123.635C92.348 116.916 78.57 103.051 89.5115 98.7911C109.227 92.192 98.4338 123.479 95.1525 123.635Z" fill="#93C03D"/>
<path fill-rule="evenodd" clip-rule="evenodd" d="M94.1274 104.885C95.2572 113.165 98.8028 110.902 97.7852 112.908C96.8197 112.804 96.2387 112.005 95.4174 111.46C94.6963 114.641 98.0737 116.386 96.8277 117.686L95.782 116.402C95.7019 122.861 94.6442 117.096 94.7524 114.18C94.4879 115.215 92.1642 118.24 93.0937 115.102C94.1714 112.836 94.6121 110.69 93.7508 108.082C93.1858 109.241 92.7051 110.405 91.8437 111.408C91.6457 111.278 91.5095 111.073 91.4671 110.84C91.4247 110.607 91.4797 110.367 91.6193 110.176C95.0448 104.428 89.9887 101.515 92.2163 100.271C93.4325 103.043 95.598 105.288 98.3221 106.602C98.2339 108.247 95.0408 105.679 94.1274 104.885V104.885Z" fill="#3AA448"/>
<path opacity="0.6" fill-rule="evenodd" clip-rule="evenodd" d="M203.009 30.9769C202.973 36.9061 198.875 38.9119 194.151 37.913C181.571 35.823 190.465 25.3566 194.303 19.6842C200.638 8.17883 202.252 26.8008 203.009 30.9769Z" fill="#93C03D"/>
<path fill-rule="evenodd" clip-rule="evenodd" d="M194.712 24.3949L196.675 27.4879C196.895 25.8391 197.36 23.8975 196.591 22.0481C195.613 21.0011 196.43 19.3643 197.392 21.6229C197.732 20.7684 197.568 19.6572 197.456 18.3213C199.459 18.0806 197.857 22.8464 198.117 24.2746C198.698 23.9576 199.619 21.7833 200.473 22.8384C199.271 24.4872 197.504 26.148 197.432 28.6914C197.797 28.4747 200.236 25.8311 199.94 27.6724C198.882 28.7315 196.807 29.9871 196.895 32.0852C197.184 31.8525 199.643 29.6301 199.251 31.4674C197.516 32.4462 196.046 34.1512 194.8 35.9684C194.453 35.6277 194.399 35.0875 194.672 34.6847C196.154 32.374 192.336 31.1104 193.041 28.908C194.219 29.8467 194.844 31.1264 195.649 32.4342C197.596 27.6804 192.881 25.3457 194.712 24.3949V24.3949Z" fill="#3AA448"/>
<path fill-rule="evenodd" clip-rule="evenodd" d="M81.066 131.779C78.8064 131.995 77.2519 130.615 76.3545 127.595C78.3377 127.506 80.6373 129.548 81.066 131.779Z" fill="#F8C1CC"/>
<path fill-rule="evenodd" clip-rule="evenodd" d="M74.9197 128.156C75.7811 130.796 75.721 132.015 74.5752 134.631C72.7282 132.469 72.8805 129.681 74.9197 128.156Z" fill="#F8C1CC"/>
<path fill-rule="evenodd" clip-rule="evenodd" d="M81.483 121.352C80.3289 123.455 78.5254 125.127 76.3428 126.117C77.132 123.47 78.6104 121.973 81.483 121.352Z" fill="#F8C1CC"/>
<path fill-rule="evenodd" clip-rule="evenodd" d="M71.2139 120.248C72.3597 122.029 74.0825 123.425 74.5151 125.684C72.4799 125.255 71.3821 123.485 71.2139 120.248Z" fill="#F8C1CC"/>
<path fill-rule="evenodd" clip-rule="evenodd" d="M72.7042 127.107C71.2699 128.447 69.7996 128.844 68.0127 128.375C69.8556 126.795 70.1121 126.73 72.7042 127.107Z" fill="#F8C1CC"/>
<path fill-rule="evenodd" clip-rule="evenodd" d="M100.161 11.5284C97.9011 11.7451 96.3467 10.3651 95.4492 7.34432C97.4364 7.26007 99.7361 9.30199 100.161 11.5284Z" fill="#F8C1CC"/>
<path fill-rule="evenodd" clip-rule="evenodd" d="M94.0346 7.90625C94.896 10.5499 94.8359 11.7654 93.6901 14.381C91.8311 12.2188 91.9793 9.43067 94.0346 7.90625Z" fill="#F8C1CC"/>
<path fill-rule="evenodd" clip-rule="evenodd" d="M100.582 1.10352C99.4287 3.20741 97.6249 4.8798 95.4414 5.86933C96.2307 3.20962 97.709 1.72532 100.582 1.10352V1.10352Z" fill="#F8C1CC"/>
<path fill-rule="evenodd" clip-rule="evenodd" d="M90.3125 0C91.4583 1.78116 93.1851 3.17721 93.6138 5.43977C91.5785 5.00651 90.4808 3.23738 90.3125 0Z" fill="#F8C1CC"/>
<path fill-rule="evenodd" clip-rule="evenodd" d="M91.8028 6.86057C90.3685 8.20046 88.8982 8.59761 87.1113 8.12825C88.9423 6.55168 89.2067 6.48348 91.8028 6.86057V6.86057Z" fill="#F8C1CC"/>
<path fill-rule="evenodd" clip-rule="evenodd" d="M18.0937 84.8613C18.0296 87.0517 18.919 89.1618 18.0296 91.304C16.2467 89.0134 16.2227 86.0889 18.0937 84.8613Z" fill="#F8C1CC"/>
<path fill-rule="evenodd" clip-rule="evenodd" d="M19.1426 93.3906C20.8396 94.4099 22.0609 96.0644 22.536 97.9879C20.1682 97.5908 19.2307 96.3352 19.1426 93.3906Z" fill="#F8C1CC"/>
<path fill-rule="evenodd" clip-rule="evenodd" d="M19.7998 92.1593C21.4024 90.5145 23.2774 90.2618 25.8094 90.7873C23.7782 92.3919 21.791 92.2917 19.7998 92.1593Z" fill="#F8C1CC"/>
<path fill-rule="evenodd" clip-rule="evenodd" d="M17.6843 93.2422C17.8685 95.7334 17.556 95.8297 16.1939 97.3822C12.5801 101.009 16.27 93.8319 17.6843 93.2422Z" fill="#F8C1CC"/>
<path fill-rule="evenodd" clip-rule="evenodd" d="M11.5586 91.43C13.5217 90.1823 14.9801 91.0729 16.8511 92.1561C14.8238 92.1159 13.2213 92.3005 11.5586 91.43Z" fill="#F8C1CC"/>
<path fill-rule="evenodd" clip-rule="evenodd" d="M218.514 22.9545C217.812 21.4541 217.865 20.1864 218.886 18.9629C219.583 20.0982 219.479 21.2616 218.514 22.9545Z" fill="#F8C1CC"/>
<path fill-rule="evenodd" clip-rule="evenodd" d="M223.294 14.8984C222.641 16.4148 221.924 16.8601 220.061 16.824C221.062 15.8492 221.996 15.1752 223.294 14.8984V14.8984Z" fill="#F8C1CC"/>
<path fill-rule="evenodd" clip-rule="evenodd" d="M222.693 20.4033C221.347 20.2228 220.629 19.4405 220.177 18.2852C221.415 18.3534 221.908 18.7625 222.693 20.4033Z" fill="#F8C1CC"/>
<path fill-rule="evenodd" clip-rule="evenodd" d="M214.776 19.2282C216.155 18.0849 217.02 17.76 218.166 17.8964C217.273 18.7978 216.043 19.2813 214.776 19.2282Z" fill="#F8C1CC"/>
<path fill-rule="evenodd" clip-rule="evenodd" d="M218.694 17.0253C217.616 15.9863 217.324 14.3696 217.632 13.6074C218.69 14.5461 219.335 15.3164 218.694 17.0253Z" fill="#F8C1CC"/>
<path opacity="0.7" d="M139.656 124.76C142.348 124.76 142.48 120.496 139.656 120.439C136.968 120.455 136.835 124.712 139.656 124.76Z" fill="#DDDB1F"/>
<path opacity="0.7" d="M2.06759 26.9533C4.75989 26.9533 4.87207 22.689 2.06759 22.6328C-0.624721 22.6408 -0.752926 26.8972 2.06759 26.9533Z" fill="#DDDB1F"/>
<path opacity="0.7" d="M247.677 26.9533C250.365 26.9533 250.481 22.689 247.677 22.6328C244.984 22.6408 244.852 26.8972 247.677 26.9533Z" fill="#DDDB1F"/>
<path d="M175.562 45.5348C180.477 30.9726 210.91 54.4687 230.389 38.2617C230.389 38.2617 226.856 54.228 212.713 59.8924C212.713 59.8924 225.91 62.4719 237.3 57.2407C237.3 57.2407 226.371 83.6252 191.808 78.1253L175.562 45.5348Z" fill="#F3A3C3"/>
<path d="M195.273 51.0119C195.673 39.9679 178.662 49.6359 175.561 45.536C175.561 45.536 173.422 52.1432 176.034 57.3583C176.034 57.3663 191.731 57.9079 195.273 51.0119V51.0119Z" fill="#D13678"/>
<path d="M68.7506 45.5348C63.8347 30.9726 33.402 54.4687 13.9229 38.2617C13.9229 38.2617 17.4565 54.228 31.5952 59.8924C31.5952 59.8924 18.398 62.4719 7.00781 57.2407C7.00781 57.2407 17.9413 83.6252 52.5046 78.1253L68.7506 45.5348Z" fill="#F3A3C3"/>
<path d="M49.0392 51.0119C48.6385 39.9679 65.6498 49.6359 68.7507 45.536C68.7507 45.536 70.8902 52.1432 68.278 57.3583C68.278 57.3663 52.5809 57.9079 49.0392 51.0119V51.0119Z" fill="#D13678"/>
<path d="M195.401 89.9486L195.273 51.0117C194.187 53.523 184.949 59.5645 122.18 60.8081C59.4117 59.5645 50.1729 53.523 49.0872 51.0117L48.959 89.9486C80.6938 103.187 168.514 101.839 195.401 89.9486V89.9486Z" fill="#EB81A8"/>
<path d="M72.9574 85.383C72.04 83.8265 73.5263 80.1679 73.3581 78.3627C72.8293 78.1575 72.2562 78.0939 71.6954 78.1781C71.3389 79.2573 71.5792 86.3538 70.3933 84.2758C70.3413 82.1898 70.83 68.7869 72.4847 71.4787C72.3845 71.8799 72.2964 72.3452 72.2283 72.8186L71.8276 76.5294L71.7155 77.2033C71.6917 77.3586 71.681 77.5156 71.6834 77.6727L73.4422 77.793L74.2435 71.8879L74.3116 71.4145C75.8781 71.7275 74.3316 75.727 74.4198 77.7088C73.6185 81.3875 74.5199 84.0592 72.9574 85.383V85.383Z" fill="white"/>
<path d="M80.2932 86.0368C79.3517 86.1411 80.1369 83.5576 80.0809 83.1564C79.7403 82.8756 78.8028 82.6028 78.0376 82.4424C77.661 82.8435 77.4086 84.4482 76.7756 85.411C76.3068 85.3548 76.0584 85.2024 76.0264 84.9537C77.3244 83.008 79.4719 70.7244 81.439 72.5738C81.0504 75.5384 81.8637 86.1772 80.2932 86.0368ZM80.2531 80.0635C80.3092 78.6514 80.2892 76.2324 80.4735 74.8724C80.0728 75.0449 78.2579 81.2589 78.2499 81.6561C78.863 81.9273 79.5269 82.0641 80.197 82.0573C80.2091 81.8005 80.2291 81.1426 80.2531 80.0635V80.0635Z" fill="white"/>
<path d="M83.6982 85.9048C84.0708 82.6313 85.0164 75.6591 84.6277 72.9793C88.5981 71.3747 88.8505 79.2174 85.1726 80.2324L84.7439 85.8687C84.7479 86.4384 83.7343 87.1003 83.6982 85.9048ZM85.2167 79.3538C86.4587 78.4873 87.28 76.5056 86.8192 74.9811C86.699 74.6281 86.2824 74.2029 85.6173 73.6172C85.4651 74.6161 85.3369 78.1263 85.2167 79.3538V79.3538Z" fill="white"/>
<path d="M89.4355 86.4658C89.7561 83.1843 90.5814 76.1961 90.1447 73.5203C94.087 71.8475 94.4716 79.6862 90.8138 80.7653L90.4812 86.4097C90.4972 86.9753 89.4956 87.6573 89.4355 86.4658V86.4658ZM90.8418 79.8868C91.7862 79.1863 92.3822 78.1113 92.4764 76.9382C92.5564 76.454 92.5137 75.9574 92.3522 75.494C92.224 75.141 91.7993 74.7278 91.1142 74.1542C91.0101 75.1571 90.946 78.6552 90.8418 79.8868V79.8868Z" fill="white"/>
<path d="M96.294 87.2916L96.6185 83.7975C97.2755 81.7075 94.5311 73.7243 96.0335 73.7363C96.9069 74.7473 96.7747 76.9457 97.1273 78.6346C97.1593 78.1853 98.1008 72.0595 98.9783 74.5347C98.838 75.9227 97.7763 78.9475 97.7283 80.2553L97.6321 80.8811L97.6121 81.1539L97.3837 85.9678V86.8704C97.568 87.2194 96.7667 88.4791 96.294 87.2916V87.2916Z" fill="white"/>
<path d="M104.167 83.8426C104.231 81.8368 104.351 76.385 104.487 74.4714L104.968 74.2147C106.25 75.2617 106.739 81.5961 107.135 83.3973C107.744 81.0465 108.826 77.2114 109.042 74.7001V74.6158C110.645 72.5338 109.944 78.1621 110.032 79.9112C109.727 83.8025 110.797 88.8732 108.99 88.5723C108.485 87.5413 109.191 80.2281 109.074 79.3696C108.91 80.192 107.933 83.3572 107.764 84.4524V84.5687C107.707 84.9615 107.609 85.3474 107.472 85.72C105.953 88.0147 106.038 78.7398 105.24 77.6366C105.176 78.6034 105.14 79.3295 105.12 79.8189L104.988 87.2806C104.978 87.5357 104.871 87.7772 104.687 87.9545C104.255 87.8903 103.918 87.7299 103.934 86.8072L104.167 83.8426Z" fill="white"/>
<path d="M117.167 82.8558L116.971 85.1464V85.2267C115.989 92.7324 111.707 87.4331 112.564 79.6104C112.235 71.2181 118.141 72.7946 117.167 82.8558ZM115.665 76.1885C114.563 73.8978 113.509 76.1243 113.473 78.451C113.437 78.8522 113.389 79.9353 113.369 80.6414C114.335 96.034 117.993 82.8758 115.665 76.1885V76.1885Z" fill="white"/>
<path d="M121.439 77.8247L121.407 80.1635C121.471 81.9888 121.627 85.7798 121.719 87.597C121.787 88.5919 120.653 88.9088 120.613 87.573L120.754 84.6725C120.553 82.2656 120.649 78.1456 120.353 75.7427L119.391 75.8189C116.735 74.9243 124.688 73.6606 122.164 75.5982L121.515 75.5621H121.331C121.412 76.3134 121.448 77.069 121.439 77.8247V77.8247Z" fill="white"/>
<path d="M128.249 88.5392C127.096 87.1512 127.981 83.296 127.512 81.547C126.957 81.4297 126.382 81.4587 125.842 81.6312C125.557 82.9791 126.915 87.1953 125.866 88.2584C125.245 88.7879 123.406 72.1116 125.549 74.8917C125.517 75.3209 125.501 75.7782 125.509 76.2556L125.697 79.9824V80.6684C125.698 80.8244 125.711 80.9801 125.737 81.1338L127.496 80.9733C127.496 80.3675 127.32 75.1524 127.316 74.5547C128.919 74.6109 128.025 78.807 128.434 80.7486C128.265 84.4915 129.592 86.9787 128.249 88.5392Z" fill="white"/>
<path d="M133.086 81.4746H132.633C132.494 81.4624 132.358 81.5158 132.264 81.6191L132.453 87.2153C133.15 87.1752 134.404 86.8984 134.512 87.6365C134.111 88.3104 132.372 88.499 131.575 88.0176C131.271 86.1361 131.387 77.0659 130.834 75.2486C130.952 75.0153 131.096 74.796 131.263 74.5947L132.601 74.3901C133.266 74.2657 134.023 75.4371 132.649 75.5254H132.124C132.06 75.5218 131.996 75.5218 131.932 75.5254L132.172 78.514C132.192 78.843 132.14 79.9783 132.172 80.5921C132.613 80.1749 134.404 80.6523 133.086 81.4746Z" fill="white"/>
<path d="M136.815 87.4521C136.815 87.2635 136.443 78.7508 136.367 76.9255C136.579 76.4121 135.189 72.6371 138.23 74.7633C139.151 75.8344 139.407 77.3588 138.799 79.1199C138.77 79.1921 138.558 79.8019 138.45 80.1308C138.486 81.8358 139.908 85.1413 140.661 87.1191C140.758 87.7168 140.429 88.5031 139.584 87.5443V87.4841C139.584 86.2807 138.073 82.2048 137.432 80.3314C137.18 80.5561 138.722 90.6614 136.815 87.4521V87.4521ZM137.216 74.9839L137.3 78.6866C137.32 79.0597 137.336 79.3365 137.36 79.5211C137.573 79.2957 137.765 79.0513 137.933 78.7909L138.141 77.2104C138.174 76.733 137.961 75.2888 137.204 74.9839H137.216Z" fill="white"/>
<path d="M142.577 78.0813C142.132 77.9168 142.717 73.2673 143.883 73.7728C144.231 74.9442 143.787 77.287 142.577 78.0813Z" fill="white"/>
<path d="M147.195 87.1603C147.195 86.7391 147.432 86.5105 148.109 86.7391C151.55 86.6589 148.91 80.7217 147.187 78.3508C145.845 76.3891 146.687 71.7437 149.471 73.8618L149.195 74.263C148.948 74.2967 148.696 74.2548 148.473 74.1426C145.601 75.9679 150.212 80.2684 150.689 82.9682C151.522 85.2067 149.788 89.1541 147.195 87.1603Z" fill="white"/>
<path d="M160.818 79.3966L160.902 79.7697C161.267 81.5428 159.352 88.3706 156.896 85.9556C157.653 84.3108 156.211 79.882 156.094 77.8682L155.938 75.8904C155.113 73.5115 154.864 72.0593 158.342 72.9619C160.433 74.2256 160.485 76.6647 160.842 79.2241C160.818 79.2782 160.81 79.338 160.818 79.3966V79.3966ZM157.917 83.665L158.102 85.39C160.838 83.336 160.674 73.4955 156.435 73.8485C156.591 75.6738 157.729 81.6511 157.917 83.665V83.665Z" fill="white"/>
<path d="M167.532 85.2979C166.646 85.6269 166.779 82.931 166.626 82.5539C166.226 82.3654 165.256 82.3253 164.471 82.3574C164.207 82.8468 164.347 84.4394 163.97 85.5466C163.501 85.6068 163.221 85.5185 163.133 85.2859C163.934 83.0714 163.017 70.6354 165.372 71.9552C165.721 74.9319 169.09 85.0452 167.532 85.2979ZM166.041 79.5131C165.757 78.1291 165.148 75.7863 164.996 74.4224C164.647 74.6912 164.399 81.1579 164.487 81.543C165.147 81.6536 165.824 81.6207 166.47 81.4467C166.422 81.21 166.266 80.5642 166.041 79.5131Z" fill="white"/>
<path d="M171.607 84.5244L171.206 81.0383C171.447 78.9522 167.092 71.6792 168.546 71.3181C169.608 72.1204 169.936 74.3068 170.633 75.8833C170.569 75.434 170.233 69.2481 171.591 71.4705C171.743 72.8546 171.33 76.0318 171.555 77.3275L171.591 77.9573L171.631 78.2301L172.404 82.9799L172.592 83.8665C172.841 84.1914 172.316 85.5875 171.607 84.5244V84.5244Z" fill="white"/>
</g>
<defs>
<clipPath id="clip0_3_21754">
<rect width="250" height="138" fill="white"/>
</clipPath>
</defs>
</svg>
