<svg width="152" height="75" viewBox="0 0 152 75" fill="none" xmlns="http://www.w3.org/2000/svg">
<g clip-path="url(#clip0_3_23887)">
<path d="M95.2095 4.34074C95.2095 4.49074 97.5395 3.76074 97.3995 4.65074C95.9295 5.12074 96.9995 8.32074 96.8895 10.8307C98.9895 10.6507 100.16 11.4907 99.1195 6.83074C99.0386 6.07022 99.0185 5.30445 99.0595 4.54074C99.0595 4.54074 98.9595 4.38074 98.7495 4.48074C97.0795 4.12074 100.65 3.10074 102.09 3.57074C99.8095 5.10074 101.33 8.91074 101.26 12.7007C101.26 12.7807 101.32 12.7007 101.26 13.0507C100.63 14.3607 104.45 18.1907 99.8595 16.6107C99.8595 16.6107 99.8595 16.5507 99.8595 16.5207C101.32 9.99074 93.8595 9.00074 98.5495 16.7607C95.7495 17.5807 95.1795 19.1907 95.3995 14.1707C95.3295 13.6207 95.2895 12.4507 95.1595 11.3507C95.1595 10.9007 94.8395 9.93074 94.8195 8.72074C94.8152 8.69424 94.8152 8.66723 94.8195 8.64074C94.8195 8.53074 94.6795 8.54074 94.6795 7.96074C95.6495 6.00074 91.6195 4.39074 95.2095 4.34074V4.34074ZM96.3295 16.3407C98.0095 17.8507 96.3295 13.1307 96.2695 6.87074C96.2265 6.43847 96.2265 6.003 96.2695 5.57074C96.1995 5.44074 96.3795 5.35074 96.1895 4.91074C93.9995 4.10074 95.9995 12.0007 96.3595 16.3707L96.3295 16.3407ZM100.59 15.9907C101.59 19.1907 99.6995 -2.25926 99.7295 7.15074C100.1 9.42074 100.08 11.5107 100.44 14.4907C100.35 14.8407 100.56 15.2407 100.6 15.8607C100.569 15.9014 100.565 15.9561 100.59 16.0007V15.9907Z" fill="black"/>
<path d="M112.199 15.5906C111.93 15.6342 111.654 15.6067 111.399 15.5106C112.499 14.9806 109.969 8.35055 108.789 12.0906C108.419 13.6606 110.889 16.7706 107.289 16.0906C106.169 16.1406 107.219 14.9006 107.189 5.44055C107.14 5.0319 107.17 4.61752 107.279 4.22055C105.809 3.16055 108.629 3.13055 110.449 3.61055C110.569 3.98055 110.099 3.90055 109.599 4.10055C109.749 4.93055 109.729 5.24055 110.099 6.80055C110.323 8.04323 110.63 9.26936 111.019 10.4706V10.5906C111.019 10.6206 111.159 11.0006 111.199 11.3306C111.331 11.6929 111.438 12.0637 111.519 12.4406C111.049 12.9506 114.209 15.8406 112.419 15.5206C112.352 15.5598 112.277 15.5837 112.199 15.5906V15.5906ZM106.859 15.7706C106.859 15.7706 107.109 15.6206 107.679 15.3106C107.681 15.3677 107.711 15.4203 107.759 15.4506C108.759 15.5606 108.169 14.4506 108.289 12.4506C108.194 9.68483 108.321 6.91592 108.669 4.17055C107.839 3.17055 107.669 5.74055 107.759 7.17055C107.589 8.24055 107.759 9.85055 107.629 12.0406C107.636 12.1304 107.636 12.2207 107.629 12.3106C107.588 13.2677 107.611 14.2266 107.699 15.1806C107.408 15.36 107.127 15.557 106.859 15.7706V15.7706ZM109.199 4.86055C109.216 4.83651 109.216 4.80459 109.199 4.78055H109.139C109.049 5.68055 108.939 7.24055 108.879 9.24055C110.219 12.7206 110.419 8.52055 109.199 4.86055V4.86055Z" fill="black"/>
<path d="M117.349 1.8102C119.249 1.2802 121.349 4.5902 120.039 7.6402C119.949 8.5302 118.599 8.7702 118.379 10.2602V10.3202C118.849 11.3202 118.309 13.6202 119.549 14.5702C121.209 14.2602 119.009 15.8902 116.719 15.4802C117.639 13.7802 116.109 12.9302 115.809 6.5402C115.419 6.1302 116.449 2.3202 114.359 2.9502C114.332 2.95225 114.305 2.93987 114.289 2.91747C114.272 2.89507 114.269 2.86584 114.279 2.8402C114.629 2.0802 115.539 2.1302 117.349 1.8102V1.8102ZM116.709 2.5202C115.579 2.7502 116.529 4.8802 116.509 6.5202C116.439 7.4602 116.719 7.6202 116.699 9.4102C117.059 13.7402 120.169 22.1202 116.699 2.5902L116.709 2.5202ZM118.129 8.4102C121.239 11.0502 118.649 -2.1698 117.759 4.2502C117.759 5.3502 117.859 5.5302 118.099 8.4102H118.129Z" fill="black"/>
<path d="M126.549 0.720354C128.439 0.190354 130.549 3.50035 129.239 6.55035C129.149 7.44035 127.799 7.68035 127.579 9.17035V9.23035C128.059 10.2304 127.519 12.5304 128.749 13.4904C130.419 13.1804 128.219 14.8104 125.919 14.4004C126.849 12.6904 125.319 11.8504 125.019 5.45035C124.619 5.05035 125.659 1.24035 123.569 1.86035C123.499 1.86035 123.469 1.86035 123.489 1.75035C123.829 1.00035 124.739 1.00035 126.549 0.720354V0.720354ZM125.909 1.44035C124.779 1.67035 125.729 3.79035 125.709 5.44035C125.639 6.37035 125.919 6.53035 125.899 8.32035C126.259 12.6504 129.369 21.0304 125.899 1.51035L125.909 1.44035ZM127.329 7.33035C130.439 9.96035 127.849 -3.25965 126.959 3.16035C126.959 4.26035 127.049 4.44035 127.299 7.33035H127.329Z" fill="black"/>
<path d="M137.86 7.22979C137.98 7.96979 138.22 9.74979 138.59 11.6598C138.593 11.6762 138.593 11.6933 138.59 11.7098C138.59 11.9498 138.59 11.8098 138.7 12.4298C138.865 12.5021 139.054 12.5021 139.22 12.4298C139.27 12.4298 140.04 12.5898 139.38 13.0198C138.555 13.2054 137.715 13.3158 136.87 13.3498C136.67 13.2698 136.43 13.5698 135.82 13.1998C135.82 13.0398 135.82 13.1998 135.88 12.8598C137.51 14.0498 135.8 3.59979 132.71 1.47979C132.43 1.47979 132.71 1.52979 132.14 1.27979C132.14 1.20979 132.14 1.11979 132.2 1.02979C134.75 0.299791 135 -0.810209 137.11 3.49979C137.204 3.68882 137.329 3.86109 137.48 4.00979C138.8 2.30979 136.24 0.299791 139.13 0.0597912C139.313 -0.0121179 139.516 -0.0121179 139.7 0.0597912C140.7 0.809791 138.47 0.409791 138.36 1.78979C138.304 1.96263 138.264 2.13997 138.24 2.31979C138.15 2.62979 138.24 2.91979 138 3.85979C137.988 4.13529 137.916 4.40493 137.79 4.64979C137.68 4.74979 137.71 4.95979 137.66 5.07979C137.651 5.49502 137.681 5.91016 137.75 6.31979C137.76 6.63979 137.82 6.89979 137.86 7.22979V7.22979ZM137.86 12.6198C138.63 11.2598 137.43 12.0698 137.04 4.71979C136.771 4.19204 136.47 3.6811 136.14 3.18979C135.717 2.45193 135.336 1.69071 135 0.909791C134.743 1.0041 134.473 1.05807 134.2 1.06979C134.131 1.11308 134.064 1.1598 134 1.20979C134 1.49979 133.93 1.20979 134.27 2.14979C134.69 3.42979 136.2 4.43979 136.34 6.59979C136.63 7.24979 136.32 12.1098 137.89 12.6198H137.86Z" fill="black"/>
<path d="M114.669 74.1798C113.675 74.5501 112.651 74.8377 111.609 75.0398C111.549 74.9916 111.515 74.9171 111.519 74.8398C113.519 73.2798 111.519 69.5298 110.919 62.9598C110.901 62.9055 110.846 62.872 110.789 62.8798C107.999 62.8798 113.629 60.0898 115.239 63.5898C115.715 64.2081 116.025 64.9379 116.139 65.7098C116.449 67.5637 116.449 69.456 116.139 71.3098C116.036 72.0848 115.817 72.8399 115.489 73.5498C115.376 73.9116 115.048 74.1635 114.669 74.1798V74.1798ZM111.869 62.5198C111.789 62.5898 111.759 62.5198 111.459 62.6998C111.459 62.8098 111.509 62.9498 111.629 63.2198C111.741 63.5405 111.779 63.8825 111.739 64.2198C111.909 65.0298 111.839 65.5998 112.049 67.0898C112.049 67.1598 112.119 67.0898 112.109 67.5098C112.211 67.8757 112.275 68.251 112.299 68.6298C112.439 69.2298 112.539 70.1598 112.719 71.3698C113.849 78.8298 113.939 67.6898 111.869 62.5898V62.5198ZM115.609 66.6598C115.989 66.3998 111.829 57.4098 113.349 66.7698C113.34 67.0441 113.377 67.318 113.459 67.5798C113.509 68.2598 113.639 68.4298 113.769 69.5098V69.8698C113.826 70.1128 113.859 70.3606 113.869 70.6098C113.869 70.7998 113.869 70.7198 113.969 71.0498C114.279 75.8098 116.029 72.7198 115.529 66.6698L115.609 66.6598Z" fill="black"/>
<path d="M123.44 72.7802C123.172 72.8244 122.897 72.8004 122.64 72.7102C123.72 72.1602 121.04 65.5903 119.94 69.3603C119.62 70.9403 122.15 73.9902 118.54 73.4202C117.42 73.4903 118.45 72.2302 118.19 62.7802C118.139 62.3694 118.163 61.9527 118.26 61.5502C116.76 60.5502 119.58 60.4303 121.41 60.8603C121.54 61.2303 121.06 61.1602 120.57 61.3702C120.74 62.2002 120.73 62.5102 121.13 64.0602C121.382 65.2979 121.716 66.5172 122.13 67.7102V67.8303C122.2 67.8303 122.27 68.2302 122.32 68.5602C122.455 68.9234 122.568 69.294 122.66 69.6702C122.2 70.1802 125.43 73.0002 123.66 72.6702C123.595 72.7217 123.52 72.7592 123.44 72.7802V72.7802ZM118.1 73.0902C118.1 73.0902 118.35 72.9303 118.91 72.6103C118.92 72.6673 118.952 72.718 119 72.7502C120 72.8302 119.38 71.7502 119.45 69.7502C119.29 66.9861 119.357 64.2134 119.65 61.4602C118.78 60.4602 118.65 63.0502 118.8 64.4602C118.65 65.5302 118.8 67.1402 118.8 69.3202V69.6002C118.769 70.5588 118.812 71.5184 118.93 72.4703C118.638 72.6561 118.361 72.8634 118.1 73.0902V73.0902ZM120.19 62.0902C120.202 62.0614 120.202 62.0291 120.19 62.0002H120.13C120.05 62.9002 119.99 64.4602 119.97 66.4602C121.4 70.0002 121.49 65.7503 120.19 62.1303V62.0902Z" fill="black"/>
<path d="M127.57 66.8499C127.72 67.5799 127.99 69.3599 128.41 71.2599C128.41 71.4999 128.41 71.3599 128.54 71.9699C128.704 72.0504 128.896 72.0504 129.06 71.9699C129.11 71.9699 129.89 72.0999 129.23 72.5499C128.41 72.7517 127.573 72.8789 126.73 72.9299C126.53 72.8699 126.3 73.1699 125.73 72.8099C125.711 72.6974 125.711 72.5824 125.73 72.4699C127.4 73.6299 125.45 63.2099 122.31 61.1699C122.03 61.1699 122.31 61.1699 121.74 60.9799C121.74 60.9099 121.74 60.8199 121.8 60.7299C124.26 59.9799 124.49 58.8699 126.69 63.1299C126.789 63.313 126.918 63.4785 127.07 63.6199C128.36 61.8999 125.75 59.9499 128.63 59.6199C128.813 59.546 129.017 59.546 129.2 59.6199C130.2 60.3399 127.98 59.9999 127.9 61.3799C127.854 61.5539 127.82 61.731 127.8 61.9099C127.71 62.2199 127.8 62.5099 127.59 63.4599C127.586 63.7341 127.521 64.0039 127.4 64.2499C127.29 64.3499 127.32 64.5599 127.28 64.6899C127.278 65.1025 127.315 65.5143 127.39 65.9199C127.46 66.2599 127.53 66.5199 127.57 66.8499V66.8499ZM127.73 72.2399C128.47 70.8599 127.29 71.6999 126.73 64.3599C126.453 63.8352 126.139 63.3306 125.79 62.8499C125.331 62.1228 124.91 61.3717 124.53 60.5999C124.275 60.7027 124.005 60.7602 123.73 60.7699L123.54 60.9199C123.54 61.2099 123.47 60.9199 123.83 61.8499C124.28 63.1299 125.83 64.0999 126 66.2499C126.35 66.8999 126.15 71.7599 127.73 72.2399V72.2399Z" fill="black"/>
<path d="M43.7598 56.0901C55.3798 79.8901 135.46 40.8501 134.95 64.2701C145 37.9401 45.4598 76.8801 45.0898 53.4301C44.5198 52.9001 44.0598 53.8801 43.7598 56.0901V56.0901Z" fill="black"/>
<path d="M58.7298 20.0003C56.2998 -0.369678 39.3998 28.7603 37.8098 37.3703C36.9098 29.4403 38.3398 19.4403 39.1698 10.0703C31.6098 -5.16968 26.2398 18.0703 25.0398 25.0703L24.7198 24.7503C24.5198 8.40032 9.42978 -2.81968 1.18978 17.6403C-2.06022 27.1203 1.02978 57.6403 14.4898 43.9403C14.1298 35.0103 10.8798 47.1503 6.86978 45.0803C-12.1302 10.3503 30.4698 -18.4897 16.3398 52.9403C30.1098 46.4903 23.5098 17.7403 32.3398 7.60032C32.4198 7.60032 32.4998 7.68032 32.5798 7.68032C30.1498 14.0903 29.0798 53.1703 39.9298 46.6803C36.5398 39.6803 45.8498 17.0103 54.0598 14.9003C51.0598 23.1603 41.1398 51.9003 53.8998 57.6903C53.5598 48.0703 54.3598 33.0003 58.7298 20.0003Z" fill="black"/>
<path d="M119.72 44.7998C117.1 49.2598 112.72 50.3498 113.89 38.9698C125.56 32.3898 115.82 18.8298 108.89 34.4198C104 48.2698 118.45 60.1298 121.75 41.6098C120.84 42.2398 120.36 43.8398 119.72 44.7998ZM114 35.8598C114.51 22.6498 123.39 32.2998 114 36.4198V35.8598Z" fill="black"/>
<path d="M145.589 39.0494C131.809 22.9894 147.409 16.0494 144.589 28.0494C153.379 20.8394 136.529 16.0494 135.809 27.9794C133.369 25.8694 130.249 31.6994 128.059 34.5194C122.869 2.32938 117.699 56.0694 129.499 50.2094C128.499 43.2594 128.339 33.9994 135.879 29.1194C155.389 63.6094 131.809 53.0694 138.599 46.9694C124.629 52.7294 158.739 66.8594 145.589 39.0494Z" fill="black"/>
<path d="M141.08 14.7094C130.99 14.7094 112.53 18.9694 92.4697 20.5594C92.8997 17.7594 93.8097 11.0594 88.1897 11.1894C87.7438 14.4097 87.4601 17.6505 87.3397 20.8994C85.3397 20.9994 83.4097 21.0794 81.4397 21.1194C81.9097 16.5694 76.1897 10.0594 76.2997 21.1194C56.2997 21.0694 64.2997 16.4694 59.8597 14.1194C57.7997 19.6094 62.4597 23.7594 75.1797 24.1194C76.2697 25.3394 75.2697 27.0394 75.3897 29.8594C73.5097 29.6294 68.2597 32.8594 66.0697 30.6594C65.9897 29.3594 67.4297 26.9094 64.2397 25.6594C43.7697 44.2994 77.6797 69.3594 69.4297 32.8394C70.5197 32.6194 72.9097 32.5694 75.2697 32.0694C72.3497 38.1794 79.1197 68.8694 87.7097 50.9994C76.4197 61.1394 81.7097 29.2894 81.6397 23.8594C83.4797 23.7727 85.3397 23.6527 87.2197 23.4994C85.9597 43.6594 86.5697 70.6094 99.2197 32.7094C99.2197 37.2694 97.2197 58.8494 107.45 51.8694C101.99 50.8694 105.45 39.9794 104.58 34.1394C101.27 22.6494 93.4897 37.9394 91.9997 44.3994C91.7497 39.0594 91.8097 29.4794 92.2497 23.0494C112.25 21.8194 155.42 8.66937 149.01 25.1594C152.71 26.6894 152.47 13.9994 141.08 14.7094V14.7094ZM69.8297 40.3294C62.9997 62.9094 60.4397 22.9394 69.1897 35.9994C69.6842 37.3869 69.9017 38.8581 69.8297 40.3294Z" fill="black"/>
<path d="M132.86 24.7699C134.07 24.3099 134.16 17.6999 131.7 21.4199C131.23 21.9999 130.34 24.7299 132.86 24.7699Z" fill="black"/>
</g>
<defs>
<clipPath id="clip0_3_23887">
<rect width="152" height="75" fill="white"/>
</clipPath>
</defs>
</svg>
