<svg width="212" height="99" viewBox="0 0 212 99" fill="none" xmlns="http://www.w3.org/2000/svg">
<path d="M191.22 31.4302C173.59 26.5302 154.42 28.4302 135.98 27.7802C98.9002 27.6002 63.7702 25.0702 27.0502 32.8502C21.9402 34.3002 41.3302 46.8502 41.9302 49.9502C41.1402 57.5102 32.9302 64.3502 30.6602 71.9502C30.4702 72.4002 33.2602 72.3802 36.9402 72.1402C200.1 58.0902 201.76 91.3602 178.05 49.0002C181.49 43.3902 189.13 37.5602 191.22 31.4302Z" fill="#F8B9CF"/>
<path d="M65.4894 41.6501C63.8394 33.2801 57.6294 46.7101 57.5694 50.4101V50.9701C58.7694 53.5201 57.7694 59.4101 53.6594 56.7501C52.1994 51.9501 55.6594 41.9901 55.3994 40.4801C55.4694 37.6101 53.5294 38.0401 51.2994 39.5701C48.8294 35.4701 59.9094 32.4201 59.0994 39.1001C61.8794 33.2201 69.5394 33.8001 68.8594 40.8601C82.6794 30.5701 73.5594 52.5901 75.9994 53.7801C77.6794 53.7801 81.5494 47.1501 80.8794 52.0501C74.5594 62.4101 68.4494 56.0501 73.0694 46.4601C75.2794 35.9301 66.2794 47.3901 66.7394 53.3101C67.8994 55.1801 64.3894 59.6301 62.7394 56.3901C61.9994 52.4801 65.5294 46.7501 65.4894 41.6501V41.6501Z" fill="#963C85"/>
<path d="M91.8185 44.7288C82.8685 44.4288 80.2685 56.2188 89.0585 53.5788C81.4785 46.7888 96.8085 40.9388 93.0585 51.9988C100.488 47.5988 96.4585 56.3388 91.4385 54.5688C73.9985 66.5088 77.6085 35.2288 91.8185 44.7288V44.7288ZM91.1385 51.1688C91.4985 50.8988 92.1385 47.1688 90.5485 48.5088C90.2285 49.6188 90.2785 49.8088 91.1385 51.1688V51.1688Z" fill="#963C85"/>
<path d="M97.5304 43.1394C98.4304 39.5894 101.1 36.3194 102.31 40.9994L101.11 43.1094C105.63 42.2194 105.11 46.6094 100.58 45.5194C97.7004 62.9494 105.58 46.8994 106.24 51.2594C100.71 62.1894 93.5604 56.6394 96.8604 45.6594C95.0604 45.9994 94.6704 45.1194 95.9504 43.1694C96.3304 43.1694 96.8904 43.1694 97.5304 43.1394V43.1394Z" fill="#963C85"/>
<path d="M113.629 53.4002C116.239 43.1502 111.359 44.8202 109.349 52.0002C110.349 53.8602 108.349 59.4902 105.639 56.7502C104.449 52.1502 105.509 49.5602 106.179 45.2702C108.999 30.9102 116.289 34.1602 110.399 43.7002L109.999 45.8102C112.109 41.8102 120.359 41.6302 118.439 48.8102C115.539 59.3702 120.089 50.1602 122.439 50.5002C123.629 54.9202 113.399 61.1102 113.629 53.4002V53.4002Z" fill="#963C85"/>
<path d="M134.3 50.2398C137.7 55.7298 118.66 62.6798 120.91 50.3698C124.61 35.5698 140.91 46.6298 125 51.1698C125.08 57.4098 134.15 50.9998 134.3 50.2398ZM125.21 49.1498C126.29 48.3198 128.81 47.3498 128.01 45.8098C126.48 44.9998 125.66 46.7998 125.21 49.1498V49.1498Z" fill="#963C85"/>
<path d="M144.789 46.5091C141.869 56.0991 143.019 54.5091 147.699 50.2391C148.239 60.3491 135.049 58.9191 140.919 47.5991C140.075 47.8458 139.19 47.9139 138.319 47.7991C137.319 50.1491 137.679 54.2491 137.609 56.2591C131.609 61.8491 133.829 47.7391 135.209 46.1891C131.129 42.2991 137.819 40.0491 138.729 44.9891C140.999 45.8791 143.859 41.8391 144.789 46.5091Z" fill="#963C85"/>
<path d="M154.209 34.1992C162.599 37.6792 143.589 47.7092 151.709 39.3292C149.649 37.7892 151.099 34.2792 154.209 34.1992Z" fill="#963C85"/>
<path d="M164.79 49.4995C174.57 60.3895 147.72 58.8495 157.79 50.0295C159.52 50.0295 158.08 54.4695 163.33 54.6295C148.57 38.8895 176.53 41.0895 164.79 49.4995ZM163.65 48.2995C164.65 47.5095 165.65 44.4795 162.27 45.6595C162.386 46.6806 162.878 47.6218 163.65 48.2995Z" fill="#963C85"/>
<path d="M79.6584 22.7095L80.9984 22.1695V13.6895L79.6484 13.1495V11.6095L85.2384 11.5195V13.1495L83.7984 13.6895V16.5795H88.5284V13.6895L87.0884 13.1495V11.6095L92.6784 11.5195V13.1495L91.3284 13.6895V22.1695L92.6784 22.7095V24.2495H87.0984V22.7095L88.5384 22.1695V18.7395H83.8084V22.1695L85.2484 22.7095V24.2495H79.6584V22.7095Z" fill="#963C85"/>
<path d="M106.559 24.2495H100.819V22.7095L102.169 22.2295L101.739 20.9095H97.7385L97.2885 22.2095L98.6985 22.7095V24.2495H93.2285V22.7095L94.5485 22.2095L98.5485 11.5795L101.439 11.5195L105.319 22.2095L106.589 22.7095L106.559 24.2495ZM99.7885 14.6995L98.3585 18.9995H101.139L99.7885 14.6995Z" fill="#963C85"/>
<path d="M106.92 22.7097L108.27 22.1697V13.6897L106.92 13.1497V11.6097L111.07 11.5197C119.25 10.2997 119.12 20.6897 111.07 19.8297V22.1697L112.42 22.7097V24.2497H106.92V22.7097ZM112.03 17.7097C115.38 17.7097 115.03 12.8997 111.03 13.7097V17.7097H112.03Z" fill="#963C85"/>
<path d="M118.16 22.7097L119.52 22.1697V13.6897L118.16 13.1497V11.6097L122.32 11.5197C130.49 10.2997 130.37 20.6897 122.32 19.8297V22.1697L123.67 22.7097V24.2497H118.16V22.7097ZM123.27 17.7097C126.62 17.7097 126.27 12.8997 122.27 13.7097V17.7097H123.27Z" fill="#963C85"/>
<path d="M131.999 22.7095L133.349 22.1695V19.8395L130.049 13.6295L128.879 13.1495V11.6095L133.979 11.5195V13.1495L133.059 13.5295L134.869 17.4095L136.779 13.5395L135.779 13.1495V11.6095L140.649 11.5195V13.1495L139.409 13.6295L136.139 19.8295V22.1695L137.489 22.7095V24.2495H131.999V22.7095Z" fill="#963C85"/>
<path d="M86.9188 75.8305L85.0488 75.0805V73.0005L90.7788 72.8805C101.239 71.1305 104.109 83.0605 97.8788 88.8805C95.1788 91.3605 88.3488 90.1805 85.0488 90.4405V88.2905L86.9188 87.5405V75.8305ZM92.8488 87.4205C99.1888 87.2905 98.0588 73.5405 90.7788 75.8305V87.4205H92.8488Z" fill="#963C85"/>
<path d="M120.259 90.4099H112.329V88.2898L114.199 87.6098L113.599 85.7999H108.069L107.449 87.5898L109.389 88.2898V90.4099H101.869V88.2898L103.689 87.5898L109.169 72.9099L113.169 72.8398L118.529 87.5898L120.279 88.2898L120.259 90.4099ZM110.909 77.2198L108.909 83.1298H112.749L110.909 77.2198Z" fill="#963C85"/>
<path d="M122.57 88.2889L124.44 87.5389V84.3289L119.88 75.7489L118.26 75.0789V72.9989L125.26 72.8789V75.1189L124 75.5989L126.53 80.9989L129.18 75.6689L127.81 75.1189V72.9989L134.53 72.8789V75.1189L132.81 75.7889L128.3 84.2989V87.5389L130.17 88.2889V90.4089H122.57V88.2889Z" fill="#963C85"/>
<path d="M48.6305 19.4201C68.5005 6.29014 55.0005 -4.74986 46.5105 15.8501C49.6305 -10.7299 33.3905 0.540138 43.5105 17.5201C30.3805 0.880138 23.6805 14.0001 39.7005 19.8701C28.1805 22.0101 28.1005 33.1301 41.7005 23.7801C31.9005 44.7801 52.4305 35.9801 46.7605 21.6501C62.8005 39.7001 73.3805 19.4401 48.6305 19.4201V19.4201Z" fill="#EE548A"/>
<path d="M172.39 27.5097C182.57 32.6297 186.49 23.7097 173.39 25.5097C185.83 19.7697 176.92 14.7797 171.75 24.6197C175.47 14.3697 167.7 14.0897 169.57 23.5697C165.45 19.0197 160.37 22.2497 168.38 25.6397C156.32 27.1797 165.67 34.1097 170.82 27.3297C167.36 40.0997 179.46 38.3597 172.39 27.5097Z" fill="#963C85"/>
<path d="M37.6503 56.54C56.2403 48.12 46.6503 34.21 34.8003 53.74C36.6103 27.63 11.3103 29.07 28.6103 51.21C5.49032 37.48 6.52032 62.74 29.0003 59.5C11.4903 71.68 18.1803 87.55 31.2203 63.87C27.2203 93.87 41.8703 78.57 35.5103 60.54C58.7403 84.76 63.0003 57.64 37.6503 56.54Z" fill="#963C85"/>
<path d="M189.08 64.5098C207.08 73.4598 212.37 57.2798 189.42 60.5098C210.7 45.2598 193.42 26.6498 187.42 54.1298C183.23 27.6098 164.42 44.3798 181.31 59.7498C160.93 54.0198 152.62 69.3098 179.36 64.2498C153.74 80.3098 174.87 81.8298 184.67 65.4298C180.77 98.6798 204.46 84.8598 189.08 64.5098Z" fill="#EE548A"/>
<path d="M7.91029 17.7195C7.67138 17.4579 7.28887 17.3846 6.97018 17.5394C6.65148 17.6941 6.4725 18.04 6.53029 18.3895C7.19029 27.8495 9.80029 42.3895 21.2103 44.5195C21.2503 24.6795 13.2903 23.8395 7.91029 17.7195V17.7195Z" fill="#ADCA3C"/>
<path d="M20.67 61.4206C12.36 56.0006 0.78 66.3607 0 73.3707C6.54 72.6507 19.71 69.3706 20.84 62.1006C20.9185 61.9909 20.9449 61.8523 20.9122 61.7213C20.8795 61.5904 20.7909 61.4805 20.67 61.4206V61.4206Z" fill="#ADCA3C"/>
<path d="M165.45 80.3004C164.67 78.4904 162.91 78.4704 160.53 78.3804C165.62 73.5904 160.62 69.3804 157.76 77.0104C157.39 69.8004 149.66 72.5304 155 78.0704C150.07 76.2104 146.4 81.5304 154.23 81.2104C146.73 85.6004 151.55 90.5004 156.85 82.5204C157.85 91.6904 166.08 88.7004 159.14 81.6504C161.65 82.2604 165.35 82.2504 165.45 80.3004Z" fill="#963C85"/>
<path d="M180.77 77.7593C180.765 77.5326 180.61 77.337 180.39 77.2793C172.46 79.2793 173.33 93.1193 176.82 98.7093C180.756 92.4834 182.169 84.9908 180.77 77.7593Z" fill="#ADCA3C"/>
<path d="M211.901 78.6197C209.341 73.7397 201.261 67.4497 195.721 70.3297C196.261 75.7397 206.741 83.7797 211.901 78.6197Z" fill="#ADCA3C"/>
<path d="M194.939 19.4297C189.149 19.4297 182.819 37.6697 187.679 42.2397C196.329 39.7497 194.929 26.7197 194.939 19.4297V19.4297Z" fill="#ADCA3C"/>
<path d="M210.411 47.2207C206.481 47.9207 195.681 52.2207 198.841 56.6307C203.871 58.3007 213.101 51.2607 210.411 47.2207Z" fill="#ADCA3C"/>
<path d="M170.7 24.8406C169.37 25.8406 171 28.9806 173.01 26.7606C173.72 25.4506 172.51 24.0006 170.7 24.8406V24.8406Z" fill="#FFC219"/>
<path d="M157.549 78.2611C154.969 78.1111 155.759 83.1811 158.739 80.7711C159.399 79.7311 159.059 78.8611 157.549 78.2611Z" fill="#FFC219"/>
<path d="M35.8899 57.1693C35.8736 56.4784 35.6192 55.8143 35.1699 55.2893C34.3999 54.9393 35.0099 54.2893 32.7099 54.5093C32.3118 54.5406 31.9321 54.6904 31.6199 54.9393C30.8773 55.363 30.4106 56.1446 30.3899 56.9993C29.4799 60.3493 35.9999 61.5293 35.8899 57.1693Z" fill="#FFC219"/>
<path d="M47.7001 17.9392L47.5801 17.7992C47.3571 17.4002 47.0041 17.0897 46.5801 16.9192C45.8401 16.7292 44.29 16.2592 43.69 18.2292C43.14 19.3066 43.5314 20.6261 44.5801 21.2292C44.8801 21.2292 44.8801 21.7792 46.2901 21.3192C46.9959 21.1532 47.5792 20.6586 47.8584 19.9894C48.1375 19.3201 48.0787 18.5576 47.7001 17.9392Z" fill="#FFC219"/>
<path d="M188.301 61.0898C188.137 60.6619 187.885 60.2734 187.561 59.9498C187.271 59.5098 187.561 59.8698 186.691 59.1898C186.391 59.0034 186.044 58.9063 185.691 58.9098H185.371C184.723 58.7298 184.028 58.8662 183.497 59.2777C182.965 59.6892 182.659 60.3276 182.671 60.9998C182.44 62.3495 183.181 63.6777 184.451 64.1898C185.401 64.6828 186.553 64.5676 187.387 63.8961C188.221 63.2245 188.58 62.1236 188.301 61.0898V61.0898Z" fill="#FFC219"/>
<path d="M50.2907 81.9995C48.0807 78.2395 46.0007 71.8695 40.6607 70.6895C36.3207 76.4195 44.8007 86.0895 50.2907 81.9995Z" fill="#ADCA3C"/>
</svg>
