<svg width="200" height="132" viewBox="0 0 200 132" fill="none" xmlns="http://www.w3.org/2000/svg">
<g clip-path="url(#clip0_3_22698)">
<path d="M111.55 131.679C90.6782 107.12 62.3211 93.1496 15.1211 98.0015C55.3211 88.1978 93.7568 107.213 111.55 129.774C111.628 130.395 113.193 130.509 111.55 131.679Z" fill="#607D8B"/>
<path d="M26.807 97.0367C26.6213 96.737 17.3141 90.665 20.2213 90.0371C20.657 90.2369 29.8284 96.5658 26.807 97.0367Z" fill="#607D8B"/>
<path d="M27.5646 104.672C25.5789 104.272 28.9004 101.454 31.0146 98.7352C33.0075 95.8811 35.0646 94.5825 34.1718 97.2011C32.1432 99.3203 28.6575 104.393 27.5646 104.672Z" fill="#607D8B"/>
<path d="M41.8144 96.8314C40.8787 96.7529 38.5073 88.9827 38.5716 88.1693C39.7287 86.6852 40.2216 89.2753 41.0144 91.5514C41.7787 94.9477 43.4787 95.8681 41.8144 96.8314V96.8314Z" fill="#607D8B"/>
<path d="M43.2782 103.096C40.6496 102.718 48.9925 96.4746 49.6567 96.2891C50.9353 96.5531 50.0353 97.7803 48.9996 98.4296C46.2425 100.606 44.2853 102.832 43.2782 103.096Z" fill="#607D8B"/>
<path d="M57.3429 98.7646C56.4429 99.2783 54.7286 87.9335 57.3429 91.3226C57.05 92.2431 59.0215 98.6576 57.3429 98.7646V98.7646Z" fill="#607D8B"/>
<path d="M14.6853 102.545C10.6068 105.492 5.83535 100.819 8.76392 96.8944C15.3354 91.6644 22.2354 97.3511 14.6853 102.545Z" fill="#F4511E"/>
<path d="M9.46406 100.02C9.98549 101.076 6.27121 103.231 5.24264 101.818C4.82121 101.098 8.72835 99.1782 9.46406 100.02Z" fill="#607D8B"/>
<path d="M16.6854 92.6556C13.7139 91.0502 13.6568 86.8333 16.1425 85.4562C24.9354 81.96 27.4782 99.1771 16.6854 92.6556Z" fill="#FF8A65"/>
<path d="M16.8647 86.8565C16.1076 87.7698 12.629 85.2582 13.5004 83.7456C13.9861 83.0677 17.3147 85.8576 16.8647 86.8565Z" fill="#607D8B"/>
<path d="M30.0004 107.682C28.479 110.693 24.2861 110.871 22.8147 108.396C19.0361 99.7478 36.2218 96.7153 30.0004 107.682Z" fill="#FF8A65"/>
<path d="M24.164 107.669C25.0997 108.382 22.6854 111.95 21.1425 111.115C20.4497 110.651 23.1497 107.248 24.164 107.669Z" fill="#607D8B"/>
<path d="M35.0002 88.3759C32.5717 84.1376 37.4074 79.8922 41.0717 82.9389C46.0145 89.7244 39.4645 96.6598 35.0002 88.3759Z" fill="#F4511E"/>
<path d="M38.1001 83.4801C36.9858 83.8939 35.243 79.9696 36.7572 79.0991C37.5144 78.7352 38.993 82.8165 38.1001 83.4801Z" fill="#607D8B"/>
<path d="M52.7574 89.6028C51.8645 86.8059 54.4074 83.8377 57.0431 84.6867C64.5216 88.2115 55.6002 100.177 52.7574 89.6028Z" fill="#FF8A65"/>
<path d="M56.4289 85.9707C55.3861 86.0991 54.6718 82.3603 56.1575 81.9179C56.8718 81.7752 57.3146 85.6211 56.4289 85.9707Z" fill="#607D8B"/>
<path d="M59.5715 106.206C55.9572 105.285 67.5644 101.44 67.6001 101.111C71.8929 101.675 59.8929 105.992 59.5715 106.206V106.206Z" fill="#607D8B"/>
<path d="M60.2004 108.703C57.7076 110.659 53.829 108.939 54.1004 105.964C55.7861 98.1863 68.7576 102.689 60.2004 108.703Z" fill="#F4511E"/>
<path d="M55.5146 106.549C56.0003 107.483 52.7432 109.453 51.8075 108.218C51.4289 107.59 54.8503 105.835 55.5146 106.549Z" fill="#607D8B"/>
<path d="M75.536 111.793C73.3503 110.894 76.6074 109.816 79.286 108.611C82.1931 107.697 83.3074 105.757 83.8003 107.897C83.686 108.554 75.9146 111.643 75.536 111.793V111.793Z" fill="#607D8B"/>
<path d="M76.107 114.005C73.7641 115.817 70.1784 114.176 70.557 111.343C72.3856 104.408 83.7784 108.661 76.107 114.005Z" fill="#FF8A65"/>
<path d="M71.8354 112.021C72.1783 112.935 69.5354 114.59 68.4497 113.541C68.1283 112.999 71.0069 111.479 71.8354 112.021Z" fill="#607D8B"/>
<path d="M76.5855 104.885C75.7855 105.363 73.514 97.3932 72.6712 95.5666C71.9569 94.3822 73.8069 93.6045 74.1998 95.5666C74.9998 99.177 78.5712 104.357 76.5855 104.885V104.885Z" fill="#607D8B"/>
<path d="M69.9996 95.4097C68.2424 92.7768 70.2496 89.038 73.1996 89.5446C80.8067 91.8136 75.321 104.393 69.9996 95.4097Z" fill="#F4511E"/>
<path d="M72.4785 90.9092C71.5142 91.323 69.7928 87.9196 71.0999 87.0848C71.757 86.7494 73.2428 90.3027 72.4785 90.9092Z" fill="#607D8B"/>
<path d="M95.5218 115.832C94.5932 115.725 92.236 108.454 92.2789 107.612C93.4146 106.092 93.9646 108.725 94.8075 111.015C95.5646 114.162 97.1432 114.876 95.5218 115.832Z" fill="#607D8B"/>
<path d="M90.2003 108.24C88.7289 106.021 90.4432 102.782 93.0574 103.339C99.286 105.508 94.5717 115.64 90.2003 108.24Z" fill="#FF8A65"/>
<path d="M92.3074 104.458C91.5503 104.758 90.0717 102.182 91.1432 101.248C91.6932 101.005 92.8574 103.745 92.3074 104.458Z" fill="#607D8B"/>
<path d="M44.7145 105.971C42.9288 108.382 39.1502 107.947 38.2859 105.493C36.5002 97.3373 51.6788 97.4086 44.7145 105.971Z" fill="#FF8A65"/>
<path d="M39.6289 105.114C40.3432 105.892 37.7075 108.682 36.486 107.697C35.9432 107.19 38.8003 104.6 39.6289 105.114Z" fill="#607D8B"/>
<path d="M93.243 131.678C91.0359 131.385 95.3859 127.047 99.5287 122.795C124.064 99.5697 153.229 92.5701 185.957 96.7014C187.5 97.1009 190.543 96.7014 189.443 98.4638C141.2 91.7353 111.429 110.037 93.243 131.678V131.678Z" fill="#607D8B"/>
<path d="M177.986 97.0367C175.321 96.6585 183.95 90.2012 184.571 90.0371C185.836 90.2797 184.95 91.5498 183.857 92.2276C181.057 94.4752 178.971 96.7798 177.986 97.0367V97.0367Z" fill="#607D8B"/>
<path d="M177.229 104.672C176.929 105.1 171.414 97.993 170.507 97.0583C169.593 95.9881 171.307 95.1319 172.293 96.9727C174.414 100.212 179.6 103.844 177.229 104.672Z" fill="#607D8B"/>
<path d="M162.979 96.8313C161.829 96.6315 162.457 95.4685 162.922 94.0629C164.265 90.3954 165.2 85.6292 166.243 88.7615C165.479 90.1885 164.093 96.9098 162.979 96.8313V96.8313Z" fill="#607D8B"/>
<path d="M161.514 103.095C161.3 103.352 156.886 99.3065 155.228 97.9722C153.464 96.8306 155.107 95.3536 157.05 97.6511C159.614 100.362 163.821 101.975 161.514 103.095V103.095Z" fill="#607D8B"/>
<path d="M147.45 98.7644C146.142 98.6859 147.135 95.7391 147.285 93.0563C147.057 90.4662 148.878 89.8954 148.842 91.9789C148.235 94.5618 148.878 98.3791 147.45 98.7644V98.7644Z" fill="#607D8B"/>
<path d="M190.107 102.545C194.186 105.492 198.95 100.819 196.029 96.8944C189.457 91.6644 182.557 97.3511 190.107 102.545Z" fill="#FF8A65"/>
<path d="M195.328 100.02C194.8 101.076 198.521 103.231 199.55 101.818C200 101.098 196.064 99.1782 195.328 100.02Z" fill="#607D8B"/>
<path d="M188.107 92.6556C191.079 91.0502 191.136 86.8333 188.65 85.4562C179.85 81.96 177.314 99.1771 188.107 92.6556Z" fill="#F4511E"/>
<path d="M187.928 86.8565C188.686 87.7698 192.164 85.2582 191.293 83.7456C190.807 83.0677 187.478 85.8576 187.928 86.8565Z" fill="#607D8B"/>
<path d="M174.822 107.682C176.343 110.693 180.536 110.871 182.008 108.396C185.758 99.7478 168.572 96.7153 174.822 107.682Z" fill="#FF8A65"/>
<path d="M180.628 107.669C179.693 108.382 182.107 111.95 183.65 111.115C184.335 110.651 181.643 107.248 180.628 107.669Z" fill="#607D8B"/>
<path d="M169.771 88.3759C172.193 84.1376 167.364 79.8922 163.7 82.9389C158.771 89.7244 165.328 96.6598 169.771 88.3759Z" fill="#FF8A65"/>
<path d="M166.693 83.4801C167.807 83.8939 169.55 79.9696 168.036 79.0991C167.279 78.7352 165.8 82.8165 166.693 83.4801Z" fill="#607D8B"/>
<path d="M152.036 89.6028C152.929 86.8059 150.386 83.8377 147.75 84.6867C140.272 88.2115 149.193 100.177 152.036 89.6028Z" fill="#FF8A65"/>
<path d="M148.378 85.9707C149.421 86.0991 150.135 82.3603 148.65 81.9179C147.921 81.7752 147.471 85.6211 148.378 85.9707Z" fill="#607D8B"/>
<path d="M145.222 106.206C144.278 105.886 143.359 105.497 142.472 105.043C137.836 103.274 133.8 100.984 137.757 101.362C140.45 102.996 148.179 104.801 145.222 106.206Z" fill="#607D8B"/>
<path d="M144.593 108.703C147.085 110.659 150.964 108.939 150.693 105.964C149.007 98.1863 136.035 102.689 144.593 108.703Z" fill="#FF8A65"/>
<path d="M149.285 106.549C148.8 107.483 152.064 109.453 153 108.218C153.371 107.59 149.935 105.835 149.285 106.549Z" fill="#607D8B"/>
<path d="M129.286 111.792C128.343 111.264 117.336 107.454 122.143 107.09C123.922 108.338 132.336 110.429 129.286 111.792Z" fill="#607D8B"/>
<path d="M128.686 114.005C131.029 115.817 134.615 114.176 134.236 111.343C132.408 104.408 121.015 108.661 128.686 114.005Z" fill="#FF8A65"/>
<path d="M132.957 112.021C132.614 112.935 135.257 114.59 136.343 113.541C136.657 112.999 133.786 111.479 132.957 112.021Z" fill="#607D8B"/>
<path d="M128.207 104.887C126.607 103.139 132.257 90.5308 132.186 95.3969C131.157 97.4518 129.286 105.001 128.207 104.887Z" fill="#607D8B"/>
<path d="M134.822 95.4097C136.579 92.7768 134.572 89.038 131.622 89.5446C123.979 91.8136 129.472 104.393 134.822 95.4097Z" fill="#F4511E"/>
<path d="M132.314 90.9092C133.278 91.323 135 87.9196 133.692 87.0848C133.035 86.7494 131.55 90.3027 132.314 90.9092Z" fill="#607D8B"/>
<path d="M109.286 115.831C107.965 115.575 108.972 114.09 109.636 112.043C110.822 108.639 111.679 105.464 112.536 108.204C111.736 109.631 110.372 115.888 109.286 115.831Z" fill="#607D8B"/>
<path d="M114.593 108.24C116.064 106.021 114.35 102.782 111.736 103.339C105.521 105.508 110.221 115.64 114.593 108.24Z" fill="#F4511E"/>
<path d="M112.486 104.458C113.243 104.758 114.722 102.182 113.643 101.248C113.1 101.005 111.914 103.745 112.486 104.458Z" fill="#607D8B"/>
<path d="M160.079 105.971C161.865 108.382 165.643 107.947 166.507 105.493C168.293 97.3373 153.107 97.4086 160.079 105.971Z" fill="#F4511E"/>
<path d="M165.164 105.114C164.45 105.892 167.078 108.682 168.307 107.697C168.85 107.19 165.993 104.6 165.164 105.114Z" fill="#607D8B"/>
<path d="M15.0858 41.6759C7.22861 35.9678 12.5715 52.3358 15.5215 55.2327C19.7215 56.7025 21.1072 63.7948 16.0358 62.5961C10.1858 58.7289 4.60718 39.4498 1.8429 50.5449C-3.36425 48.8325 3.68575 38.2867 7.90718 44.3445C5.80004 37.1023 12.6358 32.386 17.2429 38.5293C17.0786 36.1177 17.45 33.4134 20.5143 32.015C26.9429 30.1884 28.8143 42.6106 32.3643 43.9877C34.9429 43.5953 31.9358 34.234 35.35 38.3795C36.8929 41.1122 36.4358 46.0712 33.2072 48.3687C26.6786 51.0158 27.1215 38.8932 22 36.5458C18.7858 37.3806 21.5929 46.378 24.8643 50.2952C26.5215 51.1086 27.7215 54.0625 25.6786 55.8392C21.2643 57.202 18.7 44.6584 15.0858 41.6759V41.6759Z" fill="#607D8B"/>
<path d="M42.5853 26.4708C32.4996 32.8924 39.7281 43.4667 44.9424 36.46C33.5781 33.9198 45.4853 20.1918 47.7996 32.7211C49.5638 31.9006 49.7424 29.4104 50.1567 29.0251C53.3424 30.6876 51.1424 35.4468 47.7138 36.0961C46.8781 42.5177 38.1138 45.4788 34.9067 40.527C29.8924 34.5549 35.9781 24.3588 42.5853 26.4708V26.4708ZM45.5781 33.0137C45.321 32.1789 45.3781 30.1596 43.721 30.1596C43.121 31.0729 44.071 32.4714 45.5781 33.0137Z" fill="#607D8B"/>
<path d="M48.4576 21.7399C47.7433 17.1377 49.2147 13.4417 52.3576 17.4588L52.0862 20.1416C57.0862 17.0378 57.1504 22.168 52.6219 22.8173C57.2719 40.9405 58.3362 23.7377 60.6504 25.5643C62.079 27.8404 60.5647 30.9728 58.7504 33.306C53.5004 40.1129 49.8576 29.6242 48.9004 24.6011C47.0719 25.8997 46.4362 24.7224 46.8647 22.4605C47.2504 22.3107 47.8147 22.061 48.4576 21.7399V21.7399Z" fill="#607D8B"/>
<path d="M69.6212 26.0223C68.9712 13.9924 64.4212 17.717 64.6212 25.9081C66.0498 28.0487 66.3855 33.0433 62.664 32.501C59.1926 28.12 59.7569 24.1386 59.0498 18.8729C58.1855 1.08498 66.364 7.38531 63.064 16.7323L63.2783 19.1155C65.4212 12.2372 73.9926 12.5868 73.3497 21.4701C73.4212 31.6448 76.7926 17.8525 78.0855 20.2856C80.4783 25.1233 71.6855 34.0564 69.6212 26.0223V26.0223Z" fill="#607D8B"/>
<path d="M91.3286 18.1008C96.0429 23.8089 76.2858 34.4046 76.6786 20.6552C78.0644 3.94468 98.1072 12.7637 81.3143 20.7979C82.9643 27.9045 91.2786 18.6859 91.3286 18.1008ZM81.1715 18.5503C82.1143 17.6798 83.5572 16.6096 83.9572 15.5536C84.1644 12.3927 80.4858 15.4608 81.1715 18.5503Z" fill="#607D8B"/>
<path d="M103.043 13.6419C101.05 22.204 100.185 24.4302 106.064 17.8587C106.428 17.5519 106.778 17.2594 106.957 18.7435C104.171 30.6163 93.7569 25.4291 98.8069 15.0332C97.8906 15.353 96.9167 15.4746 95.9497 15.39C94.9926 18.2868 95.4855 22.4466 95.6212 24.6656C89.1426 31.6866 90.9926 15.2901 92.4212 13.7418C87.5426 9.11818 95.2783 7.06326 96.264 12.2362C99.2069 12.9498 101.743 8.70435 103.043 13.6419V13.6419Z" fill="#607D8B"/>
<path d="M115.343 0.71303C119.885 1.54071 115.785 8.24773 112.693 9.32514C107.828 10.4739 108.893 8.34762 112.128 6.17141C109.835 4.1807 112.143 0.370543 115.343 0.71303V0.71303Z" fill="#607D8B"/>
<path d="M125.829 19.3425C132.422 27.5978 118.743 30.2378 115.179 23.8733C113.879 21.9254 117.643 16.8452 118.793 19.2426C119.386 20.6696 118.522 23.7805 123.279 24.6867C109.929 4.7083 140.35 12.2858 125.829 19.3425V19.3425ZM124.8 17.8369C126.943 16.4099 127.129 14.1766 123.779 14.6975C123.721 15.8338 124.085 16.9513 124.8 17.8369Z" fill="#607D8B"/>
<path d="M156.479 17.7665C157.108 21.5124 151.729 24.8017 148.7 30.6097C161.329 40.6703 173.093 14.4273 152.858 15.8614C150.8 15.7901 149.965 14.5057 151.9 13.8279C180.908 8.96888 166.486 49.0041 146.815 34.0489C145.329 34.9194 142.529 32.365 143.829 30.6526C141.222 26.9708 140.972 23.7743 145.258 27.8484C148.143 24.2595 151.836 18.0234 156.479 17.7665Z" fill="#607D8B"/>
<path d="M180 36.3462C181.858 35.0833 183.229 38.9505 182.322 40.3633C181.494 40.8633 180.633 41.3044 179.743 41.6833C171.629 51.0232 178.529 46.4281 182.6 47.3914C181.886 51.9935 168.693 51.9079 172.186 45.6005C153.55 47.8837 168.9 24.9086 179.4 35.4757C179.641 35.736 179.843 36.0291 180 36.3462V36.3462ZM174.415 42.0971C175.657 40.4092 177.049 38.8355 178.572 37.3951C168.308 33.0854 163.836 47.8409 174.415 42.0971Z" fill="#607D8B"/>
<path d="M189.5 47.5193C187.985 49.3387 183.635 50.2592 182.528 52.8992C183.071 55.0825 185.5 54.9255 187.435 53.8695C192.385 50.7229 199.678 45.871 196.343 53.6912C195.264 54.8114 190.357 57.7439 186.343 59.9558C204.271 58.6429 190.135 64.9504 182.614 61.9536C170.05 70.2161 166.143 45.6427 181.9 58.3861C182.7 57.8937 183.521 57.38 184.3 56.8163C178.285 57.6583 174.585 49.3102 181.907 47.5407L187.978 42.6816C190.293 43.1383 192.2 45.1932 189.5 47.5193V47.5193ZM178.828 60.02C176.935 58.7714 175.15 57.2302 174.65 57.3586C172.935 58.6501 175.8 61.7396 178.828 60.02Z" fill="#607D8B"/>
<path d="M83.6571 68.2257C74.1394 67.156 64.6848 70.7056 58.2285 77.7725C58.6787 74.0997 59.7791 70.5361 61.4785 67.2482C56.4454 65.9914 51.2053 65.797 46.0928 66.6774C56.1115 55.7445 70.7634 50.2619 85.5071 51.9291C84.8928 57.347 84.2761 62.7792 83.6571 68.2257Z" fill="#4DB6AC"/>
<path d="M58.2286 78.4856C56.3143 76.502 59.4786 70.48 60.4429 67.7329C54.5286 65.5924 47.2572 68.5178 45.3857 66.5985C56.7572 51.0011 88.2429 47.7046 86.1 53.1131C85.6929 56.6806 84.4572 67.6259 84.3786 68.3038C72.5215 69.5025 66.8143 70.1232 58.2286 78.4856V78.4856ZM52.5143 65.4354C66.9215 66.0348 60.8715 66.5556 59.25 75.6958C65.6345 69.6984 74.2765 66.7058 83.0072 67.4689L84.7 52.5636C71.139 51.2542 57.699 56.0484 48.0357 65.6423C49.5301 65.4788 51.0325 65.4002 52.5357 65.4069L52.5143 65.4354Z" fill="#607D8B"/>
<path d="M121.136 68.2262C130.654 67.1565 140.108 70.7061 146.565 77.773C146.115 74.1002 145.014 70.5366 143.315 67.2487C148.348 65.9919 153.588 65.7975 158.7 66.6779C148.687 55.7345 134.035 50.241 119.286 51.901C119.9 57.338 120.517 62.7797 121.136 68.2262V68.2262Z" fill="#4DB6AC"/>
<path d="M146.565 78.4862C118.657 55.3041 121.679 85.2503 118.586 52.0862C127.4 46.7205 156.407 57.7229 159.007 67.2983C154.35 66.9629 148.965 66.4635 144.35 67.7121C145.272 70.4591 148.572 76.4883 146.565 78.4862ZM124.472 67.3197C132.294 67.3241 139.82 70.3098 145.515 75.6678C145.265 73.0635 143.407 69.8455 142.657 66.9272C146.279 65.1506 152.186 65.2933 156.75 65.6643C147.091 56.0462 133.641 51.2327 120.065 52.5357L121.757 67.441C122.665 67.3625 123.572 67.3197 124.472 67.3197V67.3197Z" fill="#607D8B"/>
<path d="M135 46.6481C130.929 25.9063 102.393 49.7305 102.393 49.7305C102.393 49.7305 73.8644 25.9063 69.7929 46.6481C65.7572 67.2187 102.393 91.6566 102.393 91.6566C102.393 91.6566 139.036 67.2187 135 46.6481V46.6481Z" fill="#FF8A65"/>
<path d="M102.393 92.3709C50.9642 58.7074 64.4856 17.5376 102.393 48.8109C107.893 44.1588 131.95 27.2914 135.7 46.5134C139.9 63.9374 110.714 87.5048 102.393 92.3709V92.3709ZM78.8213 38.8574C73.107 38.4436 69.8713 44.7225 70.2499 50.6018C70.9642 68.6181 98.7499 88.1541 102.428 90.7798C106.371 88.0542 138.007 65.5 134.336 46.7703C131.321 30.8161 112.536 43.0101 104.864 48.7253C102.907 49.8669 103.543 50.6018 101.95 50.2451C101.221 49.6743 87.9785 38.9145 78.7928 38.8717L78.8213 38.8574Z" fill="#607D8B"/>
</g>
<defs>
<clipPath id="clip0_3_22698">
<rect width="200" height="132" fill="white"/>
</clipPath>
</defs>
</svg>
