<svg width="138" height="128" viewBox="0 0 138 128" fill="none" xmlns="http://www.w3.org/2000/svg">
<path fill-rule="evenodd" clip-rule="evenodd" d="M122.313 70.4745C116.501 46.5257 86.0196 51.7092 66.5885 50.6484C27.2678 50.7628 -0.19284 65.5259 18.2596 102.622C29.7134 118.3 54.2161 114.986 71.561 115.743C105.846 115.749 133.31 105.185 122.313 70.4745Z" fill="#90CFD5"/>
<path fill-rule="evenodd" clip-rule="evenodd" d="M108.969 73.9363C108.782 73.3185 110.209 69.6518 112.41 71.3877C111.857 72.9844 111.149 73.4976 108.969 73.9363ZM92.6139 75.4215C90.7987 81.2545 87.3442 79.3285 93.1725 72.8624C93.0187 73.7214 92.867 74.5811 92.6139 75.4215ZM64.4491 73.6126C64.4905 70.9626 63.0849 65.8315 65.058 62.2668C65.5208 62.7786 65.3842 63.4963 66.2036 65.4017C66.1601 65.8907 66.1215 65.4506 66.2801 66.8152C66.0863 69.1786 65.5022 71.5137 64.4491 73.6126ZM44.1132 70.9792C44.587 53.5006 50.5518 67.7024 44.358 75.1218C44.1442 73.7035 44.1263 72.2232 44.1132 70.9792ZM27.1442 63.9861C32.7277 57.0764 33.2139 65.2074 26.2394 65.0545C26.5284 64.6873 26.8277 64.3278 27.1442 63.9861ZM35.6105 72.8211C35.7684 72.9782 35.9256 73.1352 36.0836 73.2916C35.5939 73.7476 35.0663 74.0452 34.5049 74.196C34.7863 73.6277 35.1649 73.1304 35.6105 72.8211ZM55.7346 71.8602C56.6511 70.5066 57.307 73.1414 53.7484 74.1444C54.1732 73.2372 54.8374 72.4533 55.7346 71.8602ZM71.4698 73.6953C71.5739 73.2613 71.9746 73.2413 72.3505 73.3095C72.4953 73.5492 72.6332 73.7972 72.7546 74.0562C72.2194 74.2945 71.2705 74.5253 71.4698 73.6953ZM116.574 76.8701C114.866 80.4555 110.018 80.0091 109.139 75.139C124.317 69.4975 101.202 63.6252 106.816 77.9261C106.723 79.2135 105.666 82.0756 103.08 80.1007C102.404 76.0449 103.057 70.7091 104.608 65.5608C114.295 67.6046 120.246 62.0333 105.361 63.0948C108.011 57.5634 106.141 53.2692 102.322 62.7C97.9167 61.2294 88.6863 61.0661 101.58 64.9181C100.608 68.5469 99.6249 73.2606 99.7532 78.6569C91.9236 89.409 99.3794 63.5129 94.3477 70.8903C94.3229 70.8889 94.298 70.8841 94.2725 70.8841C91.1463 69.6084 86.5146 75.128 86.9346 79.3086C85.1263 82.7989 80.2491 84.7511 80.5449 78.681C82.9311 70.7718 86.5711 72.868 77.1746 70.032C75.6015 68.8142 75.5856 70.2807 74.2932 72.7309C73.618 72.8583 75.0194 71.4627 71.9677 71.6976C69.436 71.1631 68.4849 77.6464 73.3511 75.9133C74.3698 80.906 67.3794 82.9911 65.4608 77.3206C77.5015 53.0901 55.996 51.7172 62.3222 76.7764C60.4001 79.5607 52.6291 82.7135 53.2456 75.9181C66.0042 73.5134 55.0174 63.0989 50.4608 74.4199C49.5718 76.3493 48.7111 82.9208 45.3801 78.2491C59.9318 55.3977 35.0877 50.9609 41.9456 77.7325C40.1146 79.8066 33.6774 80.8977 34.0256 75.7425C41.1194 75.5957 39.4215 65.3555 32.3201 72.1709C28.2091 89.3656 17.7601 77.3364 25.1849 66.5389C41.3146 67.1375 33.3718 49.2057 23.2567 64.0619C22.1842 62.5216 18.4849 61.611 22.4746 65.2357C19.4284 70.1856 17.5925 77.7918 22.058 82.066C21.4111 82.8919 20.758 83.7137 20.0787 84.5114C19.596 84.603 14.8222 79.2383 17.4677 83.3617C19.4918 85.1492 19.9829 86.4739 22.5105 82.4572C25.9574 85.2512 30.6629 83.6214 32.5656 80.3053C34.7401 83.124 39.3139 83.4409 43.0456 80.4486C44.1856 83.0545 49.3256 84.8151 51.3332 80.9824C54.4525 84.53 59.798 83.7164 63.5649 79.6523C67.2815 86.5035 77.8636 82.5613 75.2725 74.5391C75.9898 73.8117 76.5298 72.9596 76.8622 72.0159C77.7236 72.6592 78.6808 73.0849 79.7125 73.3446C73.6077 81.7953 81.8001 90.817 88.278 81.6906C89.7932 82.8265 91.6601 81.8359 92.8015 80.4665C92.447 84.4211 97.458 86.675 100.503 82.3078C101.475 86.4601 108.857 87.5533 109.044 80.9756C115.185 86.25 122.486 75.3374 116.574 76.8701" fill="white"/>
<path fill-rule="evenodd" clip-rule="evenodd" d="M71.1551 100.809C69.733 100.248 70.1054 98.1778 70.6475 96.8021C71.5523 97.6253 72.242 98.1585 74.5434 97.7893C74.1682 99.729 72.8213 101.466 71.1551 100.809ZM73.5116 94.0379C73.9096 94.3285 74.1944 94.7294 74.3785 95.1937C73.9447 95.3294 73.5606 95.0002 73.2268 94.1921C73.3502 94.1625 73.4392 94.1047 73.5116 94.0379ZM102.332 106.453C92.1282 106.806 105.216 74.7608 90.8503 93.4764C90.3778 85.3179 84.0606 88.9839 82.3392 94.7012C82.3227 92.643 83.9571 83.8727 76.4282 93.7589C75.9503 93.1134 75.2785 92.5892 74.3744 92.2648C69.9792 89.8532 65.3344 97.8147 68.0958 102.201C67.8875 103.837 66.5771 109.419 63.0309 106.262C63.0413 106.212 63.0454 106.168 63.0592 106.116C68.8406 83.5951 61.4751 82.8574 54.8102 96.3799C54.8592 79.3939 44.6337 93.0191 45.0868 102.558C44.9103 93.6197 42.0606 80.4574 36.0771 95.1338C47.5958 85.8255 36.9951 107.013 45.5316 109.379C48.0654 105.928 46.093 94.6461 51.1358 91.4664C52.8813 88.8736 49.5675 111.41 55.1358 105.237C55.8647 102.883 58.6606 88.7979 62.6351 91.795C54.9923 118.99 69.4309 113.484 70.4661 103.917C74.4068 105.187 77.7289 100.133 77.3227 96.1877C78.0344 95.6063 78.7137 94.9375 79.3447 94.2569C80.6909 121.288 82.6061 95.7902 86.5461 92.282C89.9923 109.659 85.8558 108.592 95.2661 91.7034C95.5109 91.8398 95.4778 91.773 95.8909 92.136C90.8399 113.48 108.072 110.524 102.332 106.453" fill="white"/>
<path fill-rule="evenodd" clip-rule="evenodd" d="M134.954 87.6071C134.743 90.0359 132.522 90.7537 130.449 90.9156C130.659 88.672 130.688 86.4003 130.579 84.1416C132.635 84.6451 135.19 84.8834 134.954 87.6071ZM133.616 96.7934C133.204 99.4399 130.582 100.397 128.232 100.371C129.148 98.1249 129.766 95.7726 130.147 93.3685C131.477 93.0572 133.907 94.0594 133.616 96.7934ZM130.163 106.751C129.315 107.736 127.848 109.538 124.079 107.287C125.07 106.084 126.436 104.269 127.618 101.759C128.51 102.859 131.158 103.069 130.163 106.751ZM120.185 114.702C118.928 114.571 117.841 114.108 116.915 113.331C118.795 112.193 120.553 110.877 122.141 109.358C123.917 112.862 123.27 114.647 120.185 114.702ZM127.563 66.8532C132.055 64.7439 134.986 71.974 129.157 73.2318C128.731 71.0833 128.208 68.9424 127.563 66.8532ZM123.968 58.5237C127.815 56.8313 131.599 61.8763 126.901 64.8714C126.108 62.6499 125.144 60.5138 123.968 58.5237V58.5237ZM117.994 51.5148C120.665 49.5158 127.37 51.7993 122.865 56.801C121.508 54.8357 119.906 53.0475 117.994 51.5148ZM135.075 77.2477C135.564 79.3369 134.881 82.2996 130.41 81.7699C130.186 79.9665 130.369 80.3213 129.537 75.2749C131.552 75.4822 134.015 75.1564 135.075 77.2477V77.2477ZM110.144 118.703C109.876 118.568 109.646 118.435 109.434 118.3C109.311 117.864 109.099 117.443 108.756 117.062C110.976 116.305 113.142 115.393 115.197 114.3C116.97 116.96 113.94 120.123 110.144 118.703V118.703ZM106.804 120.934C105.157 123.205 100.641 123.086 99.0843 119.497C101.028 119.141 103.394 118.669 106.667 117.732C106.917 118.359 107.236 118.878 106.804 120.934ZM93.7629 124.007C91.516 124.585 89.6174 122.944 88.867 120.978C91.5249 120.697 94.1691 120.335 96.7946 119.898C96.7415 121.738 95.6739 123.515 93.7629 124.007V124.007ZM83.0387 125.426C81.0932 125.306 79.8442 123.478 79.9118 121.673C82.2718 121.554 84.6305 121.391 86.9822 121.171C86.6898 123.256 85.5298 125.579 83.0387 125.426V125.426ZM72.8422 126.25C71.3477 126.263 69.1015 124.469 68.767 121.925C71.5367 121.941 74.3201 121.905 77.1056 121.807C76.8649 124.052 75.3849 126.338 72.8422 126.25V126.25ZM66.8801 122.076C66.3105 125.172 62.0794 126.851 59.7739 122.738C59.8036 122.383 59.7808 122.03 59.6891 121.69C61.1746 121.752 63.9746 121.873 66.9436 121.908C66.9229 121.966 66.8925 122.008 66.8801 122.076ZM56.878 124.388C54.7808 126.446 48.6311 125.627 49.7815 120.93C52.4436 121.231 55.116 121.45 57.7849 121.601C57.7801 122.273 57.778 122.699 56.878 124.388ZM39.6353 119.282C42.2146 119.846 44.8249 120.288 47.4511 120.64C46.8077 125.437 37.6967 123.354 39.6353 119.282ZM30.1939 116.863C30.2187 116.774 30.2249 116.686 30.216 116.6C32.0387 117.263 34.2684 117.979 37.478 118.788C36.1842 124.19 28.7001 122.074 30.1939 116.863V116.863ZM23.7849 118.388C21.0622 117.677 20.8353 114.95 21.9553 112.896C24.2022 114.13 26.5311 115.187 28.8284 116.079C27.6574 117.554 25.8422 118.924 23.7849 118.388V118.388ZM19.4925 112.444C17.6408 116.8 10.5987 112.884 15.3291 108.424C16.9222 109.761 18.6594 110.963 20.4753 112.046C20.1332 111.946 19.7443 112.037 19.4925 112.444ZM8.34149 107.369C6.76149 105.554 7.79804 103.065 9.88011 102.334C10.9601 104.041 12.2739 105.609 13.7643 107.039C12.1408 108.38 10.0249 109.305 8.34149 107.369ZM4.19391 98.6429C3.46839 96.7941 4.85391 94.8488 6.66011 94.4638C7.17115 96.5633 7.86425 98.5692 8.77598 100.409C7.07253 100.927 4.90149 100.446 4.19391 98.6429ZM2.58632 89.9278C2.7346 88.0445 4.10977 86.9734 5.56149 86.0503C5.62287 88.2388 5.84632 90.4141 6.23735 92.5226C5.57115 92.9339 2.28632 92.7789 2.58632 89.9278ZM1.65115 81.0928C1.80287 79.775 3.50632 78.1294 5.96218 78.2871C5.6946 80.3096 5.54977 82.394 5.53942 84.4853C4.30218 84.4577 2.01046 83.6146 1.65115 81.0928V81.0928ZM3.55804 71.0027C4.40563 69.8813 6.6877 69.5596 8.05666 69.4115C7.43735 71.1294 6.81184 73.2759 6.23942 76.4376C4.17184 75.7488 1.02149 74.358 3.55804 71.0027V71.0027ZM7.45184 61.5574C9.0877 60.3753 10.3836 60.2004 12.2132 60.6116C12.3249 60.7156 12.436 60.821 12.5553 60.9181C11.0539 62.9364 9.76218 65.2041 8.70632 67.7335C7.78494 67.3705 8.68425 67.7266 6.41873 66.7829C5.01115 64.2294 5.35597 62.4866 7.45184 61.5574ZM13.4132 52.8718C15.6167 50.7723 18.8994 51.2448 21.2091 52.9945C18.3953 54.7751 15.8477 56.9305 13.6663 59.5322C11.4905 57.8659 11.536 54.6614 13.4132 52.8718V52.8718ZM31.7594 48.2704C28.6022 49.2286 25.5905 50.4644 22.8056 52.0356C21.4229 46.1405 28.5284 43.9149 31.7594 48.2704ZM36.6353 43.4024C38.0449 42.9375 40.5691 43.6077 41.8884 46.1192C39.2725 46.4657 36.6932 46.9465 34.1877 47.5837C34.2174 45.8071 34.7242 44.0975 36.6353 43.4024V43.4024ZM47.1918 41.816C49.2118 41.9283 50.7401 43.5643 51.3387 45.3932C48.8456 45.4579 46.3422 45.615 43.8608 45.8808C43.5518 43.8219 44.8705 41.6865 47.1918 41.816ZM55.876 41.2223C56.8174 40.9343 60.267 43.4699 58.9532 45.4538C57.0374 45.378 55.096 45.3442 53.1401 45.3622C53.4691 43.6786 53.927 41.5687 55.876 41.2223V41.2223ZM116.373 49.5434C116.17 49.75 116.131 49.996 116.185 50.2205C114.511 49.1142 112.335 48.0355 109.085 46.85C110.631 44.0231 118.477 44.6843 116.373 49.5434ZM100.898 44.6988C102.126 41.4475 107.114 41.8305 107.488 46.3072C105.355 45.6398 103.146 45.1169 100.898 44.6988ZM98.2498 44.2635C95.6794 43.8825 93.0753 43.6235 90.4794 43.4534C90.9539 39.5608 98.9718 38.4772 98.2498 44.2635ZM86.3518 43.255C83.2877 43.1434 80.276 43.1131 77.3877 43.1076C78.6132 38.8272 86.5711 38.792 86.3518 43.255ZM134.142 82.8872C138.282 81.298 138.332 74.4669 132.536 73.3261C135.061 71.2052 134.947 65.2199 129.897 64.5194C132.2 61.6483 130.722 56.5027 125.631 56.1789C128.89 52.9449 123.775 47.5533 118.794 48.8532C119.05 44.1856 113.975 40.9398 108.899 44.1601C107.839 41.1423 103.801 38.7211 100.074 42.0592C99.0436 36.9356 91.5939 36.9873 88.4401 41.7561C86.9691 35.7081 74.9794 36.7207 75.5401 43.9397C115.41 48.9537 130.557 51.572 127.598 94.9894C121.622 130.25 37.6539 120.541 24.3539 111.629C3.43736 102.914 2.96632 72.0573 18.4022 57.7674C32.1608 44.7553 50.7815 50.0352 60.4794 45.812C62.8463 40.5741 53.5767 36.0195 51.7656 43.2956C50.1877 39.4919 43.8836 38.6605 42.1615 43.9645C40.1698 40.2365 32.5374 40.9226 32.356 46.89C28.8884 41.557 20.8939 44.5845 20.8422 50.6758C15.298 47.3942 7.65597 52.4847 11.0925 59.2195C6.58632 57.9727 1.08701 63.6425 5.49322 68.1785C1.90494 68.7096 -1.49092 74.2423 3.34908 76.9632C-0.595749 77.8242 -1.63299 83.9721 3.41529 85.8513C1.2346 87.3274 -0.742646 92.6156 3.93322 94.3522C1.28632 96.7872 2.47115 102.072 7.37873 102.254C4.37666 104.868 6.71666 111.187 12.2146 110.143C10.6022 114.139 15.3594 118.265 19.8015 115.317C19.5974 119.003 24.6525 121.673 28.3698 118.745C28.7422 123.458 34.9836 125.211 37.8691 121.762C38.8725 124.976 44.8801 126.4 48.218 123.562C49.1029 126.812 55.9842 129.164 58.9842 124.855C60.5491 127.278 65.4925 128.683 68.2091 124.952C70.1263 128.963 77.0056 128.805 78.6829 123.534C79.7918 127.788 86.4574 128.502 88.4787 123.36C90.6146 126.55 96.6636 126.729 98.4594 121.734C100.693 125.281 107.604 125.647 109.422 120.156C111.614 121.927 117.922 121.174 117.98 116.28C121.313 117.733 127.775 114.979 125.408 109.55C129.115 111.32 135.625 106.557 130.893 101.555C134.379 100.854 137.858 96.0453 133.787 92.1445C137.094 91.0954 138.839 84.5693 134.142 82.8872" fill="#59BEC6"/>
<path fill-rule="evenodd" clip-rule="evenodd" d="M65.5973 21.4933C65.5559 22.6768 65.4415 23.2299 66.0091 25.4156C65.4642 24.6028 65.2084 24.0882 65.5973 21.4933ZM74.2863 20.9264C71.3242 2.65505 63.0008 15.8566 62.1787 24.4677C63.1953 33.4522 77.938 30.3938 74.2863 20.9264Z" fill="#F6BD2A"/>
<path fill-rule="evenodd" clip-rule="evenodd" d="M71.8979 34.3248C71.0614 32.8046 68.5324 32.8287 65.6393 33.5575C54.8096 48.468 75.5462 67.7299 71.8979 34.3248Z" fill="#EFA2A2"/>
<path fill-rule="evenodd" clip-rule="evenodd" d="M67.6782 23.3232C66.8569 25.1604 64.6196 33.2969 68.201 33.9334C67.7327 32.316 70.5479 21.4524 67.6782 23.3232Z" fill="#90CFD5"/>
<path fill-rule="evenodd" clip-rule="evenodd" d="M70.7559 19.8854C63.7117 15.4623 61.7828 30.5878 68.7614 27.4343C71.1317 27.3461 73.0635 22.8012 70.7559 19.8854Z" fill="#F6BD2A"/>
<path fill-rule="evenodd" clip-rule="evenodd" d="M71.389 38.5395C70.9414 37.8754 60.3048 32.6906 65.7614 37.1494C67.0069 37.4298 71.5614 41.892 71.389 38.5395Z" fill="#F6BD2A"/>
<path fill-rule="evenodd" clip-rule="evenodd" d="M70.8105 43.8637C67.245 41.2523 60.5829 39.6997 69.9353 45.3585C70.4843 45.6616 71.3809 45.1925 70.8105 43.8637Z" fill="#F6BD2A"/>
<path fill-rule="evenodd" clip-rule="evenodd" d="M70.3605 49.2292C69.9191 49.1755 61.0557 43.7846 65.3929 48.1443C66.3371 48.8062 71.1398 52.7237 70.3605 49.2292Z" fill="#F6BD2A"/>
<path fill-rule="evenodd" clip-rule="evenodd" d="M69.3874 13.9141C68.1867 14.2116 63.9833 18.0361 65.3564 19.6445C64.9709 17.8652 71.1461 15.3083 69.3874 13.9141Z" fill="white"/>
<path fill-rule="evenodd" clip-rule="evenodd" d="M48.1178 25.5283C48.0765 26.7117 47.962 27.2648 48.5296 29.4512C47.9847 28.6384 47.7289 28.1238 48.1178 25.5283ZM56.8068 24.9621C53.8447 6.69 45.5213 19.8915 44.6992 28.5034C45.7158 37.4872 60.4585 34.4294 56.8068 24.9621Z" fill="#F6BD2A"/>
<path fill-rule="evenodd" clip-rule="evenodd" d="M54.4178 38.3619C53.5812 36.8417 51.0523 36.8658 48.1585 37.5946C37.3295 52.5044 58.0661 71.7663 54.4178 38.3619" fill="#EFA2A2"/>
<path fill-rule="evenodd" clip-rule="evenodd" d="M50.1988 27.3602C49.3774 29.1973 47.1401 37.3338 50.7215 37.9703C50.2532 36.3536 53.0684 25.49 50.1988 27.3602Z" fill="#90CFD5"/>
<path fill-rule="evenodd" clip-rule="evenodd" d="M53.2764 23.9244C46.2322 19.5014 44.3033 34.6269 51.2819 31.4727C53.6515 31.3852 55.584 26.8403 53.2764 23.9244Z" fill="#F6BD2A"/>
<path fill-rule="evenodd" clip-rule="evenodd" d="M53.9085 42.576C53.4609 41.912 42.8243 36.7278 48.2809 41.1867C49.5264 41.467 54.0816 45.9293 53.9085 42.576" fill="#F6BD2A"/>
<path fill-rule="evenodd" clip-rule="evenodd" d="M53.331 47.9006C49.7655 45.2892 43.1034 43.7373 52.4559 49.3954C53.0048 49.6991 53.9014 49.23 53.331 47.9006Z" fill="#F6BD2A"/>
<path fill-rule="evenodd" clip-rule="evenodd" d="M52.88 53.2667C52.4387 53.2123 43.5752 47.8215 47.9125 52.1818C48.8566 52.8438 53.6594 56.7612 52.88 53.2667Z" fill="#F6BD2A"/>
<path fill-rule="evenodd" clip-rule="evenodd" d="M51.9084 17.9512C50.7077 18.2487 46.5042 22.0739 47.8767 23.6823C47.4918 21.903 53.667 19.3461 51.9084 17.9512Z" fill="white"/>
<path fill-rule="evenodd" clip-rule="evenodd" d="M83.0387 25.5283C82.9981 26.7117 82.8829 27.2648 83.4505 29.4512C82.9056 28.6384 82.6498 28.1238 83.0387 25.5283ZM91.7277 24.9621C88.7656 6.69 80.4422 19.8915 79.6201 28.5034C80.6367 37.4872 95.3794 34.4294 91.7277 24.9621Z" fill="#F6BD2A"/>
<path fill-rule="evenodd" clip-rule="evenodd" d="M89.3397 38.3619C88.5032 36.8417 85.9735 36.8658 83.0804 37.5946C72.2515 52.5044 92.9873 71.7663 89.3397 38.3619Z" fill="#EFA2A2"/>
<path fill-rule="evenodd" clip-rule="evenodd" d="M85.1199 27.3602C84.2978 29.1973 82.0612 37.3338 85.6426 37.9703C85.1743 36.3536 87.9895 25.49 85.1199 27.3602Z" fill="#90CFD5"/>
<path fill-rule="evenodd" clip-rule="evenodd" d="M88.1978 23.9244C81.1537 19.5014 79.2254 34.6269 86.204 31.4727C88.5737 31.3852 90.5054 26.8403 88.1978 23.9244Z" fill="#F6BD2A"/>
<path fill-rule="evenodd" clip-rule="evenodd" d="M88.8304 42.576C88.3828 41.912 77.7462 36.7278 83.2028 41.1867C84.4483 41.467 89.0035 45.9293 88.8304 42.576" fill="#F6BD2A"/>
<path fill-rule="evenodd" clip-rule="evenodd" d="M88.2531 47.9006C84.6875 45.2892 78.0255 43.7373 87.3772 49.3954C87.9269 49.6991 88.8234 49.23 88.2531 47.9006Z" fill="#F6BD2A"/>
<path fill-rule="evenodd" clip-rule="evenodd" d="M87.8019 53.2667C87.3605 53.2123 78.4971 47.8215 82.8343 52.1818C83.7785 52.8438 88.5812 56.7612 87.8019 53.2667Z" fill="#F6BD2A"/>
<path fill-rule="evenodd" clip-rule="evenodd" d="M86.8293 17.9512C85.6279 18.2487 81.4252 22.0739 82.7976 23.6823C82.4121 21.903 88.5879 19.3461 86.8293 17.9512Z" fill="white"/>
<path fill-rule="evenodd" clip-rule="evenodd" d="M21.1313 86.9857C19.6258 87.4265 17.2989 84.1925 15.9762 84.0547C15.8748 85.0218 20.7348 89.0591 21.1313 86.9857Z" fill="white"/>
<path fill-rule="evenodd" clip-rule="evenodd" d="M86.5936 68.5489C86.3998 67.1898 81.3453 64.546 80.7012 66.3763C82.4874 65.166 85.2357 69.2866 86.5936 68.5489Z" fill="white"/>
<path fill-rule="evenodd" clip-rule="evenodd" d="M87.9101 67.3074C87.9315 67.025 85.6011 63.41 85.0273 64.8758C86.0508 64.7222 86.0136 67.6394 87.9101 67.3074Z" fill="white"/>
<path fill-rule="evenodd" clip-rule="evenodd" d="M118.981 82.1191C119.379 83.4245 115.718 84.7023 115.938 85.9601C116.715 86.1661 120.696 82.7281 118.981 82.1191Z" fill="white"/>
<path fill-rule="evenodd" clip-rule="evenodd" d="M122.324 83.47C123.159 84.6355 116.21 87.6422 120.328 86.7109C121.137 86.7178 124.114 83.3963 122.324 83.47Z" fill="white"/>
<path fill-rule="evenodd" clip-rule="evenodd" d="M106.534 107.862C106.629 107.964 104.383 102.239 105.536 106.522C105.779 106.039 105.305 108.691 106.534 107.862Z" fill="white"/>
<path fill-rule="evenodd" clip-rule="evenodd" d="M107.016 103.846C107.145 104.452 109.181 106.638 109.499 108.763C111.015 107.853 109.166 104.974 107.016 103.846Z" fill="white"/>
<path fill-rule="evenodd" clip-rule="evenodd" d="M73.0517 108.969C73.2855 110.769 69.4855 111.914 68.96 113.183C70.1924 113.899 75.2875 109.62 73.0517 108.969Z" fill="white"/>
<path fill-rule="evenodd" clip-rule="evenodd" d="M75.8504 110.352C76.287 111.948 72.9484 112.208 72.667 113.508C73.5925 114.433 78.0856 110.707 75.8504 110.352Z" fill="white"/>
<path fill-rule="evenodd" clip-rule="evenodd" d="M40.8438 109.487C39.3776 109.703 39.4307 104.902 37.9086 105.628C37.501 106.326 39.9521 111.31 40.8438 109.487Z" fill="white"/>
<path fill-rule="evenodd" clip-rule="evenodd" d="M37.5939 109.316C37.8815 108.251 35.285 102.608 36.8698 109.515C37.0112 109.766 37.1815 109.875 37.5939 109.316Z" fill="white"/>
<path fill-rule="evenodd" clip-rule="evenodd" d="M60.1587 57.0932C59.4291 56.87 57.5118 60.7757 58.867 60.7847C57.9829 59.6646 61.0463 58.0824 60.1587 57.0932Z" fill="white"/>
<path fill-rule="evenodd" clip-rule="evenodd" d="M58.7648 55.3518C58.4007 55.3228 55.6483 58.2573 57.0966 58.5039C56.669 57.4954 59.3773 57.0635 58.7648 55.3518Z" fill="white"/>
<path fill-rule="evenodd" clip-rule="evenodd" d="M40.6804 22.6411C36.5783 21.6209 26.6149 24.5189 40.6804 24.0422C41.2032 23.9954 41.6197 23.3396 40.6804 22.6411Z" fill="#F6BD2A"/>
<path fill-rule="evenodd" clip-rule="evenodd" d="M46.7211 13.7128C45.8411 13.7692 35.3232 7.43402 40.0445 12.2641C41.4073 12.829 47.0439 16.5108 46.7211 13.7128Z" fill="#F6BD2A"/>
<path fill-rule="evenodd" clip-rule="evenodd" d="M61.4903 7.89409C61.3676 7.36093 56.4448 -1.97486 57.8759 4.36794C58.5662 5.08502 60.2338 10.562 61.4903 7.89409" fill="#F6BD2A"/>
<path fill-rule="evenodd" clip-rule="evenodd" d="M76.5748 0.0352792C73.1135 -0.803034 72.5535 13.6949 76.2355 1.46186C76.3079 1.32203 77.2486 1.28069 76.5748 0.0352792" fill="#F6BD2A"/>
<path fill-rule="evenodd" clip-rule="evenodd" d="M90.67 4.72078C87.3259 1.47499 83.5011 18.7827 89.7493 5.68378C89.8576 5.59285 90.6438 5.87252 90.67 4.72078Z" fill="#F6BD2A"/>
<path fill-rule="evenodd" clip-rule="evenodd" d="M103.241 14.6952C102.2 14.0567 93.3944 20.8052 99.3496 18.1979C99.7909 17.1289 105.425 16.4979 103.241 14.6952" fill="#F6BD2A"/>
<path fill-rule="evenodd" clip-rule="evenodd" d="M106.2 25.3837C99.2729 24.7361 94.2998 27.6582 106.2 26.7379C106.695 26.5919 106.989 26.3473 106.2 25.3837Z" fill="#F6BD2A"/>
</svg>
