<svg width="162" height="76" viewBox="0 0 162 76" fill="none" xmlns="http://www.w3.org/2000/svg">
<path d="M32.32 30C28.51 29 24.61 34.82 20.93 35.43C21.66 14.17 14.6 25.49 7.57 37.92C15.86 -8.08 0 26.84 0 49.41C2.44 71.1 15.53 27.61 16.54 36C17.74 46.15 19.08 43.57 27.29 38.89C25.46 44.23 35.68 57.27 32.86 42.17C32.26 38.51 37.33 33 32.32 30Z" fill="black"/>
<path d="M95.1396 54.9306V54.8906H95.0996L95.1396 54.9306Z" fill="black"/>
<path d="M103.51 33.5198C101.01 32.0898 103.17 28.7698 103.51 24.5198C99.0803 11.5198 97.5103 24.0198 96.7503 32.8398C84.8203 38.6198 91.0003 27.9998 90.7303 19.4598L91.6703 19.0898C90.7403 18.0898 91.1803 18.5598 93.6703 16.9498C93.8403 15.9498 92.2803 16.7498 90.3803 17.0398C89.8803 14.4298 83.7803 12.1498 85.2203 18.5098C75.1847 21.5257 65.541 25.7182 56.4903 30.9998C41.0003 -8.38019 21.8603 76.1298 50.8403 49.0498C54.9371 45.3433 57.0646 39.9341 56.5903 34.4298C60.4803 36.1598 63.7803 33.4298 68.8703 30.8898C68.9403 31.7598 58.3903 68.2198 67.8703 53.1098C73.9203 41.3698 67.1903 27.6498 84.7103 23.1098C83.3003 26.1898 85.0803 33.9198 80.8303 36.3498C72.5103 37.4298 69.7603 42.8598 81.5803 42.5798C81.8303 45.2098 80.4803 50.2098 83.9903 53.0898C87.7603 52.6298 83.5303 35.0398 95.7903 39.4698C95.7903 43.4698 91.9303 50.4698 95.1603 54.9198C99.4703 50.1798 99.0803 40.1498 103.51 33.5198V33.5198ZM53.2003 32.2698C40.3503 71.8498 36.2003 31.1798 46.1203 37.0298C46.2203 34.6998 52.9303 19.4098 53.2003 32.2698Z" fill="black"/>
<path d="M150.71 67.4398C141.18 61.8198 139.18 48.1698 135.78 37.0698C140.88 32.5698 145.41 13.6698 130.98 22.5598C129.88 20.5598 133.46 13.3398 125.24 14.5598C125.18 15.3598 125.63 15.8498 125.38 17.7498C121.76 18.5598 116.89 21.7498 112.28 22.6198C111.39 22.3298 108.71 20.9098 107.66 24.4898C103.39 35.9998 95.3799 68.2298 119.23 46.8298C124.3 33.6398 102.23 58.6298 108.72 42.3798C112.28 42.1298 125.4 34.0298 110.37 36.4498C111.92 26.7898 115.58 27.6798 124.74 22.9298C124.8 28.6198 119.15 57.1498 125.42 54.5298C128.05 55.3998 127.94 39.1498 129.2 37.1198C132.76 45.1198 134.3 56.7398 142.61 64.2798C144.1 65.4398 152.9 73.4098 150.71 67.4398V67.4398ZM135 33.5998C134.12 36.3598 133.17 33.6898 129.56 34.8098C129 29.2098 142 13.1298 135 33.5998Z" fill="black"/>
<path d="M161.35 17.13C146.06 7.28995 148.28 26.75 150.22 38.64C153.69 34 152.96 50.08 148.92 52.79C145.04 58.42 140.57 52.13 148.08 41.35C147.08 41.21 145.83 41.76 144.74 44.07C142.93 49.07 138.52 50.07 144.17 57.29C164.68 64.05 158.92 37.29 152.17 22.79C153.95 15.51 157.68 13.65 157.52 24.43C157.52 24.43 157.61 24.48 157.65 24.48C159 25.44 163 20.8 161.35 17.13V17.13ZM144.65 57.29C144.518 57.3123 144.383 57.3123 144.25 57.29C144.378 57.2254 144.498 57.1484 144.61 57.06H144.83C144.92 57.25 144.78 57.29 144.65 57.29Z" fill="black"/>
<path d="M20.4502 0.0996094V0.399609H19.5202V5.39961H22.7102V0.399609H21.7602V0.0996094H26.7602V0.399609H25.7602V10.9996H26.7602V11.2996H21.7602V10.9996H22.7102V5.77961H19.5202V10.9996H20.4502V11.2996H15.4502V10.9996H16.3902V0.399609H15.4502V0.0996094H20.4502Z" fill="black"/>
<path d="M32.8602 7.55H29.6902L28.4502 11H29.6502V11.3H27.2002V11H28.0002L32.0002 0H33.3202L37.3202 11H38.0602V11.3H32.8902V11H34.0002L32.8602 7.55ZM29.8602 7.19H32.7602L31.3402 3L29.8602 7.19Z" fill="black"/>
<path d="M43.17 0.100396C49.63 -0.429604 49.49 7.2704 42.63 6.7104V11.0004H44.63V11.3004H38.46V11.0004H39.46V0.400396H38.46V0.100396H43.17ZM42.63 6.4104C44.79 7.2504 46.05 0.130396 42.63 0.410396V6.4104Z" fill="black"/>
<path d="M53.3204 0.100396C59.7904 -0.429604 59.6503 7.2704 52.7803 6.7104V11.0004H54.7803V11.3004H48.6104V11.0004H49.6104V0.400396H48.6104V0.100396H53.3204ZM52.7803 6.4104C54.9503 7.2504 56.2103 0.130396 52.7803 0.410396V6.4104Z" fill="black"/>
<path d="M67.1601 0.349609H65.5401V0.0996094H68.7001V0.349609H67.6401L65.2201 5.69961V10.9996H66.2201V11.2996H61.1201V10.9996H62.1201V5.99961L59.3801 0.349609H58.6201V0.0996094H63.7501V0.349609H62.7501L64.9301 5.34961L67.1601 0.349609Z" fill="black"/>
<path d="M107.37 75.5107H102.84V75.2007H103.9V64.6007H102.84V64.2907C117.29 61.8607 116.77 75.4607 107.37 75.5107ZM107.63 75.2007C111.51 75.9807 112.21 63.3607 107.02 64.6007V75.2007H107.63Z" fill="black"/>
<path d="M120.34 71.7392H117.17L115.94 75.1992H117.14V75.5092H114.69V75.1992H115.44L119.53 64.1992H120.84L124.84 75.1992H125.58V75.5092H120.34V75.1992H121.47L120.34 71.7392ZM117.34 71.3892H120.24L118.84 67.1892L117.34 71.3892Z" fill="black"/>
<path d="M134.34 64.5493H132.72V64.2893H135.88V64.5493H134.82L132.4 69.8993V75.1993H133.4V75.5093H128.3V75.1993H129.3V70.1993L126.58 64.5393H125.82V64.2793H130.95V64.5393H129.95L132.13 69.5393L134.34 64.5493Z" fill="black"/>
<path d="M145.08 20.8409C145.94 18.8409 145.56 15.0309 142.87 15.1109C140.59 14.3609 139.87 20.6809 144.12 19.3309C144.25 19.5509 143.72 21.8209 145.07 20.8509L145.08 20.8409Z" fill="black"/>
</svg>
