<svg width="194" height="192" viewBox="0 0 194 192" fill="none" xmlns="http://www.w3.org/2000/svg">
<path d="M183.593 91.6458C183.593 98.1571 174.642 104.585 171.953 110.776C171.579 144.168 178.425 132.383 151.375 146.95C149.311 148.926 147.62 153.308 146.331 157.162C138.571 182.373 119.684 155.632 105.467 174.874C101.975 177.656 99.1202 179.59 95.0323 179.201C88.2007 178.199 82.6717 169.197 76.0619 167.235C43.0126 169.531 54.5833 170.185 41.128 146.95C39.4374 145.155 35.6683 143.514 32.2456 142.331C6.92859 135.75 28.9199 118.595 17.8757 106.352C14.1204 101.468 9.21501 97.2528 8.91016 91.6458C8.91016 85.1345 17.8619 78.7067 20.5502 72.5154C20.9243 39.1241 14.0789 50.9084 41.128 36.3415C43.1927 34.3658 44.8833 29.9832 46.1859 26.1293C53.932 0.877146 72.8332 27.618 87.0367 8.34845C90.5287 5.56584 93.3833 3.63193 97.4712 4.00758C104.303 5.02323 109.832 14.025 116.442 15.9867C149.491 13.6771 137.92 13.0232 151.375 36.2719C153.066 38.0667 156.918 39.7084 160.272 40.8911C185.686 47.5415 163.584 64.6963 174.6 76.9398C178.397 81.8232 183.288 86.0389 183.593 91.6458V91.6458Z" fill="#FEFEFE"/>
<path d="M60.7218 29.6484C56.8141 29.6624 58.5878 37.565 62.8697 33.391C63.7427 31.6658 63.0914 30.3997 60.7218 29.6484Z" fill="#BD9AB4"/>
<path d="M97.1946 21.3147C95.8089 19.6312 92.6634 24.0973 96.7928 23.6521C97.3471 23.1929 97.6519 22.8869 97.1946 21.3147Z" fill="#BD9AB4"/>
<path d="M130.534 28.7441C128.844 28.8557 127.53 30.2646 127.53 31.965C127.53 33.6655 128.844 35.0743 130.534 35.1859C132.224 35.0743 133.538 33.6655 133.538 31.965C133.538 30.2646 132.224 28.8557 130.534 28.7441Z" fill="#BD9AB4"/>
<path d="M155.949 54.6777C154.801 54.6777 153.87 55.6121 153.87 56.7647C153.87 57.9173 154.801 58.8516 155.949 58.8516C157.097 58.8516 158.027 57.9173 158.027 56.7647C158.027 55.6121 157.097 54.6777 155.949 54.6777Z" fill="#BD9AB4"/>
<path d="M164.97 88.0977C163.168 88.213 161.765 89.7141 161.765 91.5272C161.765 93.3403 163.168 94.8415 164.97 94.9568C166.772 94.8415 168.175 93.3403 168.175 91.5272C168.175 89.7141 166.772 88.213 164.97 88.0977Z" fill="#BD9AB4"/>
<path d="M155.741 124.549C153.232 124.549 155.256 129.627 157.126 125.94C157.029 125.495 156.96 125.091 155.741 124.549Z" fill="#BD9AB4"/>
<path d="M130.423 147.923C126.1 145.14 122.109 155.408 130.423 153.599C131.376 152.972 131.949 151.905 131.949 150.761C131.949 149.617 131.376 148.55 130.423 147.923V147.923Z" fill="#BD9AB4"/>
<path d="M95.864 158.33C94.7466 158.33 93.8408 159.24 93.8408 160.361C93.8408 161.483 94.7466 162.393 95.864 162.393C96.9813 162.393 97.8871 161.483 97.8871 160.361C97.8871 159.24 96.9813 158.33 95.864 158.33Z" fill="#BD9AB4"/>
<path d="M61.2628 147.479C56.9948 147.479 56.981 154.129 61.2628 154.129C65.5447 154.129 65.5308 147.479 61.2628 147.479Z" fill="#BD9AB4"/>
<path d="M37.2485 123.826C36.0706 121.531 32.1629 125.872 36.7219 125.844C37.096 125.51 37.4148 125.218 37.2485 123.826Z" fill="#BD9AB4"/>
<path d="M27.5899 87.6517C22.4904 87.29 23.7791 97.7943 30.0426 93.5926C31.6639 92.2987 31.1096 87.9856 27.5899 87.6517Z" fill="#BD9AB4"/>
<path d="M35.5712 55.0547C32.5088 55.0547 34.8645 61.3295 37.2618 56.7521C37.1648 56.2234 37.0816 55.7225 35.5712 55.0547Z" fill="#BD9AB4"/>
<path d="M51.8807 90.5468C44.6611 96.8216 51.7144 79.7224 50.4949 74.185C50.4949 72.3485 48.8182 73.072 46.6427 75.8268C46.4209 76.439 45.4509 76.105 45.7281 75.0337C48.1115 66.8807 56.5505 67.0198 52.0885 81.8372C51.9777 76.1607 64.6569 59.1589 62.8971 77.6633H63.1604C63.5484 72.4737 73.3592 62.4563 73.4562 76.3972C73.7749 78.4424 67.5254 96.8355 76.5464 85.1346C76.5805 85.2306 76.6222 85.3236 76.6711 85.4129C76.9898 86.2337 76.8789 85.9276 77.5441 87.7085C76.8374 90.1711 69.1051 95.9729 68.2459 87.5694C73.2622 69.7607 66.2367 65.0581 61.9271 90.5607C61.7608 91.7433 58.7122 93.0511 58.7122 90.0042C62.9248 72.5989 59.7931 61.705 51.8807 90.5468V90.5468Z" fill="#606593"/>
<path d="M83.739 81.795C87.1202 84.9255 79.7343 98.4907 75.1892 88.195C73.0829 81.3776 82.1177 73.8229 88.7276 83.9376L88.4782 85.7742C87.1443 84.1657 85.5854 82.7598 83.8499 81.6002L83.739 81.795ZM79.7343 89.322C81.5634 90.7133 84.0577 77.0368 78.6257 83.1585C78.3486 84.0629 76.367 88.8629 79.7343 89.322Z" fill="#606593"/>
<path d="M97.7342 88.918C91.1936 93.3423 86.2189 93.4815 87.6184 79.7493C85.8863 79.8606 79.9554 77.5232 87.9787 77.6345C87.4106 69.7736 100.45 62.0241 93.3553 77.9684C100.672 77.4119 97.4016 81.1684 91.9696 80.1667C91.7063 80.5006 91.6924 80.5702 90.5007 82.0867C90.2097 85.7876 89.3783 93.3702 97.7896 85.5789L97.7342 88.918ZM93.577 72.431C93.092 69.1337 90.9442 74.3371 90.4314 77.718H91.2213C92.3119 76.1095 93.1095 74.3194 93.577 72.431V72.431Z" fill="#606593"/>
<path d="M101.157 83.8816C116.649 65.8642 98.9397 97.5442 110.691 85.7738L110.912 89.2381C107.67 92.7025 99.2307 93.5372 104.386 83.1998H104.122C102.737 82.3929 99.1337 94.3303 96.7503 91.019C96.875 89.3772 94.7687 65.9755 105.065 67.0746C108.418 70.3303 103.596 78.3025 100.907 83.7703L101.157 83.8816ZM102.307 75.6868C103.388 73.9755 105.286 64.0694 100.921 73.6416C100.366 75.5735 99.99 77.553 99.7989 79.5546C99.6049 80.5842 99.4663 81.5998 99.3555 82.5877C99.6742 81.9338 99.9652 81.3912 102.349 75.6868H102.307Z" fill="#606593"/>
<path d="M115.014 91.827C106.45 92.62 110.704 73.0722 118.838 80.8635C119.698 83.2844 117.37 86.9296 113.587 87.82C114.972 89.6287 116.594 89.6427 121.319 85.8861L122.982 87.5974C121.125 88.9609 120.169 91.2566 115.014 91.827V91.827ZM113.282 85.6357C114.085 86.4148 119.517 81.3087 115.014 81.6566C113.844 82.6328 113.211 84.1119 113.309 85.6357H113.282Z" fill="#606593"/>
<path d="M120.46 89.1133C120.557 85.9536 121.103 82.8241 122.081 79.8194C123.606 77.9829 124.853 78.6368 124.201 83.0333H124.34C123.897 83.0333 128.497 75.3533 129.245 80.7655C129.051 82.282 127.181 88.195 133.403 83.4646L133.209 86.4977C131.061 88.1394 126.377 89.7394 126.141 83.5759H125.934C124.991 85.3011 122.358 97.489 120.46 89.1133V89.1133Z" fill="#606593"/>
<path d="M132.059 75.1297C132.059 73.5297 132.225 72.1663 132.474 69.328C133.86 66.5454 138.821 66.1976 134.539 75.1715C134.511 75.5054 132.571 77.9123 132.059 75.1297V75.1297Z" fill="#606593"/>
<path d="M139.569 86.9144C141.705 84.891 143.606 82.632 145.237 80.1805C146.11 78.2605 151.625 78.2188 147.302 82.6988C147.44 84.7997 148.272 84.9944 147.884 88.5979C148.743 87.944 149.449 88.0553 152.443 86.0657V89.0431C149.893 90.337 142.368 95.1092 139.971 89.4883C138.35 90.0449 137.491 88.1944 139.569 86.9144ZM141.177 88.5979C143.449 91.1023 145.957 89.4327 144.78 84.8136L141.177 88.5979Z" fill="#606593"/>
<path d="M83.2263 96.5421C100.631 94.2325 96.1689 126.052 78.2654 119.248C77.1569 118.344 77.5171 97.4882 84.1963 102.107C83.2956 102.859 81.9237 107.519 81.7297 110.135C77.3647 136.208 108.058 90.3229 77.6696 101.787C73.4431 110.26 71.8357 96.1247 83.2263 96.5421V96.5421Z" fill="#606593"/>
<path d="M109.596 115.909C108.64 117.398 104.289 121.697 102.488 117.064C92.843 126.608 92.5382 102.219 105.495 107.436C106.88 109.3 103.513 113.001 105.328 116.173C107.088 115.422 106.714 115.784 108.973 113.043L109.596 115.909ZM98.5106 114.893C98.5106 117.439 101.102 117.342 101.767 112.959L102.723 108.786C101.157 109.022 98.954 110.497 98.469 114.893H98.5106Z" fill="#606593"/>
<path d="M113.628 119.359L113.919 117.787C106.769 125.147 105.383 103.679 112.533 107.004C113.129 106.907 108.376 117.982 112.894 116.243C114.64 115.352 114.626 102.983 118.631 107.269C118.146 110.051 117.453 113.808 116.815 117.926C118.715 116.684 120.307 115.023 121.471 113.07L122.095 115.964C121.186 117.225 120.065 118.317 118.783 119.192C118.104 119.832 116.247 120.013 116.289 123.533C116.289 123.853 116.206 124.103 116.192 124.27C117.771 132.298 101.586 135.039 110.649 122.35C111.568 121.282 112.564 120.282 113.628 119.359V119.359ZM113.628 122.434C111.866 123.962 110.698 126.066 110.33 128.375C112.242 129.961 113.393 125.843 113.628 122.434Z" fill="#606593"/>
<path d="M69.8401 111.568C68.5655 109.58 66.1973 108.594 63.8954 109.092C69.563 98.6847 58.3525 95.0256 57.9091 107.339C52.2277 90.156 46.1444 109.815 53.5995 111.68C39.5484 113.196 48.2507 125.676 57.0777 118.024C55.692 127.457 67.0271 127.93 63.3134 116.633C66.3204 120.389 72.2097 116.507 69.8401 111.568V111.568ZM57.5627 113.168C55.5534 111.582 59.4611 107.297 61.4704 110.817C61.6994 111.831 61.2534 112.879 60.3647 113.414C59.476 113.948 58.3457 113.849 57.5627 113.168Z" fill="#F1ABB1"/>
<path d="M151.042 111.568C149.768 109.58 147.4 108.594 145.098 109.092C150.765 98.6847 139.555 95.0256 139.111 107.339C133.43 90.156 127.347 109.815 134.802 111.68C120.751 113.196 129.467 125.676 138.28 118.024C136.894 127.457 148.229 127.93 144.516 116.633C147.564 120.389 153.454 116.507 151.042 111.568V111.568ZM138.765 113.168C136.756 111.582 140.663 107.297 142.673 110.817C142.879 111.816 142.436 112.836 141.567 113.365C140.699 113.893 139.592 113.814 138.807 113.168H138.765Z" fill="#F1ABB1"/>
<path d="M71.2398 0C68.8367 0 66.8887 1.95593 66.8887 4.3687C66.8887 6.78146 68.8367 8.73739 71.2398 8.73739C73.6429 8.73739 75.591 6.78146 75.591 4.3687C75.591 1.95593 73.6429 0 71.2398 0Z" fill="#FEFEFE"/>
<path d="M6.06931 66.2123V66.1149V66.2262C5.88644 65.0814 4.99238 64.1838 3.85217 64.0001H3.96303C-5.33512 63.7358 4.43417 76.5219 6.06931 66.2123Z" fill="#FEFEFE"/>
<path d="M36.4443 162.017C36.3562 161.002 36.0838 160.012 35.6406 159.096L34.823 158.038C34.3674 157.537 33.7896 157.163 33.1463 156.953C28.1577 154.004 21.4508 163.91 29.1138 166.539C30.6845 167.252 32.5047 167.136 33.9732 166.23C35.4417 165.324 36.3673 163.746 36.4443 162.017V162.017Z" fill="#FEFEFE"/>
<path d="M123.426 183.723C118.354 183.723 118.354 191.639 123.426 191.639C128.498 191.639 128.511 183.723 123.426 183.723Z" fill="#FEFEFE"/>
<path d="M188.969 112.432C186.237 112.432 184.022 114.655 184.022 117.399C184.022 120.142 186.237 122.366 188.969 122.366C191.702 122.366 193.916 120.142 193.916 117.399C193.916 114.655 191.702 112.432 188.969 112.432Z" fill="#FEFEFE"/>
<path d="M161.769 19.0195C159.748 19.0195 158.11 20.664 158.11 22.6926C158.11 24.7211 159.748 26.3656 161.769 26.3656C163.789 26.3656 165.427 24.7211 165.427 22.6926C165.427 20.664 163.789 19.0195 161.769 19.0195Z" fill="#FEFEFE"/>
</svg>
