<svg width="175" height="152" viewBox="0 0 175 152" fill="none" xmlns="http://www.w3.org/2000/svg">
<g clip-path="url(#clip0_3_23554)">
<path d="M169.94 50.2293C166.41 45.0341 163.355 39.5319 160.81 33.7893C152.37 14.3993 125.86 -20.1107 49.0603 15.3193C-53.2197 62.4993 36.1703 131.369 36.1703 131.369C36.1703 131.369 113.05 183.649 152.77 120.779C179.72 78.1193 175.46 58.4593 169.94 50.2293V50.2293Z" fill="#E9AD28"/>
<path d="M157.13 76.0886C160.25 81.6986 156.8 87.3886 149.85 88.2486C153.14 99.8486 138.73 109.339 135.17 95.0386C124.77 97.9386 124.5 89.3586 124.89 80.9886C124.27 80.4086 123.61 80.6286 122.89 80.5386C121.1 88.7586 115.1 108.129 105.69 94.6386C93.0001 106.929 96.8701 84.9986 96.2701 77.8286C90.9001 79.1486 88.3601 111.829 85.4701 96.0486C86.4701 85.1286 83.4001 72.8586 86.6401 63.8286C90.2501 67.7486 88.0601 78.2386 88.8301 84.2286C94.0001 73.9986 99.5301 70.5586 98.9301 85.4186C98.9301 88.8086 97.0801 98.8986 102.71 94.1486C103.818 93.039 104.483 91.5634 104.58 89.9986C103.83 65.7586 119.86 71.6686 108.33 90.9986C111.33 104.559 118.95 86.9186 119.97 81.9086C120.84 78.6486 121.07 68.4786 123.53 77.5486C129.32 78.0586 127.53 81.2486 128.02 87.2286C128.77 96.6686 136.2 91.6886 138.32 86.3286C139.32 86.3286 139.21 87.2386 139.62 87.7386C141.37 87.0486 142.9 85.9886 144.94 85.8086C126.61 70.2486 153.94 62.2186 149.94 77.7086C146.2 83.0686 147.83 77.2786 147.72 73.4686C145.95 69.4686 139.72 73.8086 141.27 77.3386C147.63 88.5586 159.08 89.6386 154.43 75.7186C161.98 68.7886 157.03 58.3686 147.36 56.9586C158.35 52.5686 163.57 69.1786 157.13 76.0886V76.0886ZM147.78 92.9986C148.42 85.3686 139.73 87.9986 137.97 93.8186C137.3 102.609 147.8 100.209 147.78 92.9986ZM107.64 86.8186C109.938 83.9195 110.825 80.1478 110.06 76.5286C107.92 79.5886 107.6 83.1386 107.64 86.7686V86.8186Z" fill="#380511"/>
<path d="M41.4499 84.229C43.9299 77.859 43.8799 66.859 49.3199 65.489C55.4499 77.489 46.4699 102.859 55.1399 108.429C56.5699 104.899 60.1399 106.299 57.5099 110.679C43.6499 118.819 49.0799 77.679 48.1199 72.319C43.9699 78.179 44.8799 99.909 39.7899 97.319C37.3199 88.129 39.3799 75.079 31.2699 67.749C32.7099 74.199 36.3499 114.589 29.6699 107.749C31.0299 93.619 28.8399 78.749 28.6699 64.6487C37.9999 64.579 39.2999 76.609 41.4499 84.229V84.229Z" fill="#380511"/>
<path d="M69.2301 47.6789C67.5901 48.4389 66.7001 49.1189 66.1501 51.6789C64.0001 58.1989 57.5801 60.8289 51.6601 60.5589C37.8501 60.9289 44.8001 39.2789 53.4601 48.9289C56.6401 53.4189 47.0601 56.9989 52.1801 51.2789C50.0001 42.5189 42.0001 54.3389 47.9401 57.7289C52.8301 60.4889 63.5901 57.4089 64.4101 49.6489C49.4101 49.0489 63.4101 32.4289 67.1801 46.3689C71.4601 43.1789 68.6901 36.9989 70.0001 32.0589C74.1201 28.7789 72.2701 39.3389 72.6401 42.0589C88.0801 32.6489 76.4901 54.1189 83.5201 54.4389C84.5201 51.0889 86.3701 48.4389 90.2801 47.7489C90.616 45.8792 90.5718 43.9611 90.1501 42.1089C86.4901 40.8389 84.3701 53.0189 83.7301 44.5789C92.6201 29.7989 93.8101 47.2589 93.5101 54.0289C93.5101 56.9189 89.3301 55.4189 86.6201 56.2789C75.8701 60.5889 78.5201 49.9989 79.0001 42.4389C70.2701 38.1789 73.8601 55.5789 69.9001 56.1689C67.0601 55.0789 69.2801 50.8289 69.2301 47.6789V47.6789ZM64.6601 47.3089C64.8701 45.1989 63.6601 41.9789 61.1401 42.8889C58.0001 44.9989 59.3601 48.1489 64.6601 47.3089ZM86.3401 53.8089C87.5601 54.2889 91.6601 53.5189 90.0601 50.8089C88.7901 49.7089 87.1501 51.7789 86.3401 53.8089Z" fill="white"/>
<path d="M73.9101 71.0885C68.6001 71.6285 63.9701 69.6885 73.9101 68.5185C75.4801 64.5185 78.4801 60.7985 79.9101 67.8085C80.9101 68.2485 85.9101 66.5085 84.0101 69.6685C82.5001 70.0485 80.6301 69.7285 80.1001 71.3285C79.2601 74.3285 80.1901 77.1385 77.8501 80.3285C76.4801 86.0585 78.0201 94.0885 78.3001 100.528C74.0801 110.528 73.8301 86.7485 74.0901 83.9285C69.3601 84.0885 71.3801 88.3685 70.7501 92.1085C69.2501 101.818 57.2901 100.938 56.7501 91.1085C53.7501 77.1085 64.9801 68.1985 70.2601 81.8585C75.8801 81.8685 73.3801 75.6885 73.9101 71.0885V71.0885ZM59.6801 80.5085C55.8701 98.3985 69.5101 102.168 67.9001 85.0885C64.3301 84.9985 61.8201 83.5085 59.6801 80.5085ZM67.1401 82.2385C66.6701 80.6685 65.4401 76.5185 62.5801 78.5285C61.5501 80.3485 64.5601 82.1185 67.1401 82.2385Z" fill="#380511"/>
<path d="M93.1005 119.998C93.3905 117.928 93.7505 107.928 97.0005 111.838C96.5582 115.205 96.3876 118.603 96.4905 121.998C97.9605 122.678 98.1805 120.758 99.3005 120.998C102.301 124.578 106.301 124.458 108.301 120.578C93.2005 113.238 113.731 103.738 111.041 118.998C120.761 122.078 130.701 107.518 121.041 103.248C121.041 102.698 120.621 102.508 121.511 101.918C130.791 102.368 124.951 118.298 119.201 120.098C116.301 121.558 113.421 120.318 110.441 121.648C108.561 123.048 108.211 125.068 105.441 125.478C102.041 126.128 99.8405 123.118 96.3805 125.978C98.1805 150.888 80.1505 139.928 85.9505 135.588C87.1805 135.588 86.7005 136.318 87.5805 137.888C94.4705 142.328 93.0505 128.248 92.8505 124.328C90.7605 122.328 88.5305 119.968 87.4905 116.688C86.6005 115.258 86.4005 108.628 89.6505 111.168C89.9305 114.288 90.4105 116.998 93.1005 119.998V119.998ZM109.001 118.578C109.311 116.918 110.001 112.108 106.121 112.688C102.231 113.808 105.741 117.898 109.001 118.578Z" fill="white"/>
<path d="M132.691 59.8189C128.431 77.0189 115.231 55.2389 129.341 55.0089C129.541 54.1489 129.781 53.4289 127.661 53.0789C122.311 52.7189 122.891 34.3089 126.661 41.4289C127.251 43.7689 125.921 48.7189 129.561 50.0789C133.931 28.7889 133.751 47.5789 132.451 56.4389C137.861 62.2389 148.751 54.5089 145.691 46.6589C136.321 51.7089 135.091 39.8889 145.691 43.4689C148.891 31.1089 142.691 25.5489 131.171 30.5689C131.471 24.7989 146.491 26.3089 147.541 32.2789C149.001 43.9389 150.711 63.6889 132.691 59.8189ZM129.581 59.9189C129.831 55.5389 124.581 56.6789 125.271 61.4489C125.341 64.8089 129.831 63.9989 129.581 59.9189ZM144.581 45.2089C142.651 44.5589 141.211 44.1089 139.851 45.6689C141.501 46.8989 142.861 46.5289 144.601 45.2089H144.581Z" fill="white"/>
<path d="M29.7505 44.7579C44.1305 57.0479 21.8605 64.5479 26.7005 46.1779C6.33055 41.5579 5.49055 75.1779 20.3805 77.1779C16.0405 79.7079 12.2605 75.6379 10.1805 71.4979C3.96055 59.9479 10.1105 42.8879 23.8605 43.4979C30.0005 44.9979 30.0005 37.9979 34.8905 34.9979C40.2005 30.4879 52.3005 29.1479 54.5205 35.2279C44.7806 30.6579 34.2805 33.9379 29.7505 44.7579V44.7579ZM28.6405 46.7579C27.6885 49.1829 27.7498 51.8885 28.8105 54.2679C33.3905 59.2779 34.1305 48.1279 28.6405 46.7079V46.7579Z" fill="white"/>
<path d="M67.7902 114.28C67.5102 111.95 67.4602 97.1097 71.0202 105.28C70.4702 109.46 73.4202 138.47 67.5302 128.96C47.0702 143.91 54.7502 107.7 67.7902 114.28V114.28ZM67.7402 121.47C67.2902 105.98 51.3502 127.79 60.1102 129.63C63.3402 129.53 67.6802 125.2 67.7402 121.47Z" fill="white"/>
<path d="M113.891 42.5996C127.541 30.2696 123.891 65.5296 114.351 52.6696C113.981 54.5696 115.951 67.1596 111.351 62.4896C111.151 58.6796 108.301 35.4496 113.891 42.5996ZM118.191 53.2596C120.381 51.2596 122.191 42.8296 118.191 42.5196C111.731 45.1196 114.381 48.9996 118.191 53.2596Z" fill="white"/>
<path d="M82.9105 128.048C66.3705 136.268 72.5005 117.738 83.4605 120.378C84.4605 116.648 81.3605 109.068 77.0805 114.758C76.1905 116.758 74.9905 122.758 73.6805 117.458C73.4505 112.838 80.1105 106.978 84.0605 112.098C86.7205 113.798 88.1305 133.998 82.9105 128.048V128.048ZM74.7305 127.308C78.3905 128.238 80.6605 126.118 83.2405 124.938C81.5205 119.288 77.0005 124.098 74.7305 127.308Z" fill="white"/>
<path d="M100.761 42.7388C112.611 33.9088 110.541 65.5288 100.911 53.5288C100.681 55.6788 101.291 65.3388 97.7307 58.8188C97.1707 56.7688 96.3807 32.2888 100.761 42.7388ZM105.161 53.7388C105.741 51.0788 107.711 45.2688 104.561 43.3888C97.3407 46.6588 101.241 50.7488 105.161 53.7288V53.7388Z" fill="white"/>
<path d="M137.891 72.4391C137.771 74.4991 135.831 81.2591 132.891 78.7791C134.001 77.2991 136.701 64.9991 137.891 72.4391Z" fill="#380511"/>
<path d="M161.72 77.46C161.21 81.55 159.27 78.07 159.17 75.05C160.31 73.82 161.77 75.47 161.72 77.46Z" fill="#380511"/>
<path d="M140.83 105.14C142.45 103.8 143.93 103.35 145.77 104.02C144.77 106 143 106.46 140.83 105.14Z" fill="white"/>
<path d="M119.43 30.6886C117.32 30.4486 116.71 25.6286 120.12 28.3086C120.64 29.2786 121.53 30.3386 119.43 30.6886Z" fill="#380511"/>
<path d="M19.3198 80.3089C18.9998 81.7789 15.0398 81.8889 15.3198 79.5289C16.2698 78.8789 17.8098 78.9989 19.3198 80.3089Z" fill="white"/>
<path d="M153.46 47.2402C154.09 48.5202 153.2 51.0302 151.22 50.5602C150.45 49.6502 151.85 48.0002 153.46 47.2402Z" fill="white"/>
<path d="M125.25 30.3297C125.15 32.8697 120.25 29.3297 123.51 28.4297C124.418 28.658 125.102 29.4053 125.25 30.3297Z" fill="white"/>
<path d="M19.1806 51.0987C19.1806 51.8187 16.2406 54.4487 15.6006 52.3387C16.0606 51.4087 17.4006 49.7487 19.1806 51.0987Z" fill="#380511"/>
<path d="M149.92 100.759C150.03 99.629 151.51 96.759 153.25 98.139C153.26 99.519 152 100.619 149.92 100.759Z" fill="white"/>
<path d="M13.4806 55.8086C14.2906 56.6886 13.9106 60.0986 12.0606 59.6886C11.2106 58.3786 11.8206 56.9986 13.4806 55.8086Z" fill="white"/>
<path d="M35.9999 104.66C35.6399 108.14 32.1499 105.76 35.2699 103.59C35.5999 103.63 35.8799 103.69 35.9999 104.66Z" fill="white"/>
<path d="M50.4304 122.279C49.9804 125.449 46.8504 123.089 49.6304 121.089C50.1004 121.069 50.4704 121.379 50.4304 122.279Z" fill="#380511"/>
<path d="M26.0002 79.1094C25.8102 80.8994 21.0902 80.7094 24.2902 78.4994C24.7602 78.4894 25.5902 77.8494 26.0002 79.1094Z" fill="#380511"/>
</g>
<defs>
<clipPath id="clip0_3_23554">
<rect width="175" height="152" fill="white"/>
</clipPath>
</defs>
</svg>
