<svg width="181" height="89" viewBox="0 0 181 89" fill="none" xmlns="http://www.w3.org/2000/svg">
<path d="M87.2899 7.12915C78.8999 -1.46085 65.7999 6.21915 72.1499 20.3591C75.8599 26.9991 84.0799 30.0491 85.7899 34.8091C85.3299 32.3891 88.1099 29.9091 91.3199 27.3591C113.32 13.9591 94.9899 -3.64085 86.0799 10.4691" fill="#EC8B9A"/>
<path d="M71.3496 3.65962C71.3496 2.40962 73.4796 2.73962 74.7296 2.65962C74.5696 -0.340379 77.6296 -1.34038 76.6696 2.55962C83.9896 2.31962 86.4296 5.55962 76.3896 4.45962C74.4996 10.0696 76.1996 17.3296 76.8496 21.1896C71.3196 20.1896 73.8496 9.90962 74.3996 4.54962C73.6396 3.99962 72.5696 5.72962 71.3496 3.65962V3.65962Z" fill="black"/>
<path d="M81.6598 18.7804L81.7998 19.0504C78.3698 24.7004 77.9298 0.790391 80.4998 0.150391C82.7498 3.42039 79.7198 10.5204 81.0598 16.4604C84.1298 10.6904 89.2198 5.38039 87.0598 17.9904C87.3698 22.1104 83.9098 16.7604 85.8998 12.4904C84.3798 14.4304 83.3098 16.6004 81.8998 18.6404L81.6598 18.7804Z" fill="black"/>
<path d="M91.31 13.6888C91.14 13.6966 90.9741 13.6353 90.8501 13.5188C91.9801 19.9288 91.7301 16.4588 95.2501 15.7688C96.1101 17.4088 94.6101 18.8388 92.4601 19.6188C87.6901 19.8988 87.83 4.69879 93.7 6.99879C95.81 8.79879 95.07 12.6088 91.31 13.6888V13.6888ZM91.1701 11.1788C91.1701 11.1788 91.1701 11.1788 91.2601 11.2388C91.7501 11.1288 93.5501 10.4788 92.7301 8.83879C91.9935 9.45039 91.4513 10.2636 91.1701 11.1788Z" fill="black"/>
<path d="M83.7902 34.8104C52.3102 9.80041 74.0502 -5.81959 86.0002 5.33041C96.8702 -1.39959 105 10.1104 98.0002 20.1204C93.4502 26.0004 87.0002 27.2204 83.7902 34.8104V34.8104ZM76.9402 3.56041C60.1502 7.67041 74.7402 25.1804 83.3002 31.0004C111.3 10.0004 94.0102 -1.65959 83.7802 10.4604C83.1602 10.3604 82.8702 8.46041 84.4802 6.75041C83.9402 5.65041 81.1702 3.94041 76.9402 3.56041V3.56041Z" fill="black"/>
<path d="M48.9999 32.7098C42.6399 40.4798 40.2899 17.9998 53.9999 27.6098L53.9199 28.6098C40.9199 22.7898 44.9199 36.7498 47.4899 31.9798L48.9999 32.7098Z" fill="black"/>
<path d="M124.149 38.6797C125.979 37.5297 129.039 33.8197 130.149 32.6797L131.949 34.4697C130.949 35.0297 127.259 38.4697 124.639 39.5897L124.149 38.6797Z" fill="black"/>
<path d="M14.3398 40.9987C12.2586 40.2587 10.216 39.4143 8.21978 38.4687C16.4698 32.7087 11.2198 20.9187 0.569782 26.6287C0.309782 29.6287 -1.79022 68.2487 4.15978 65.2887C15.1598 74.6587 24.6398 48.2787 14.3398 40.9987V40.9987ZM4.55978 35.2887C2.32978 22.6587 14.9698 27.1187 6.55978 37.1387C4.99978 38.9987 4.14978 39.2487 4.55978 35.2887ZM12.4098 60.4487C6.13978 71.1287 4.69978 62.3887 4.99978 54.3187C5.85978 50.4987 0.439783 35.6287 11.4198 41.5487C14.9998 45.9287 15.1998 54.1687 12.4098 60.4487V60.4487Z" fill="black"/>
<path d="M49.0902 53.259C47.1702 45.489 35.2602 38.479 42.3202 28.789C43.8002 27.509 46.6102 26.949 47.3202 30.029C47.4202 41.729 54.6402 21.169 39.7302 27.629C25.8602 38.709 54.4002 53.129 42.1902 64.629C42.1202 64.629 42.1102 64.759 41.7902 64.629C41.1102 64.209 40.2002 64.029 39.7902 63.429C47.2302 61.149 37.9602 54.589 37.1202 62.479C36.1202 62.619 35.1202 62.759 34.2302 62.929C26.9002 64.539 26.6402 48.359 33.0002 46.199C31.5902 45.059 28.0002 49.669 28.4502 44.029C29.2302 37.819 24.6802 34.399 33.4502 31.429C31.1102 30.379 23.8202 29.859 20.2002 32.289C20.2502 32.289 20.1202 32.589 20.4702 32.629C31.2902 38.289 13.0002 72.189 37.8102 64.109C42.7202 69.049 53.7702 64.849 49.0902 53.259V53.259ZM39.1702 61.379C38.8502 58.539 44.3502 60.669 39.2802 62.109C39.2121 61.8715 39.1752 61.6261 39.1702 61.379Z" fill="black"/>
<path d="M77.8993 50.9989C79.6993 54.4489 77.2593 66.0989 83.8993 65.1089C84.0293 56.6289 80.4893 42.9089 90.5593 35.8889C93.6793 42.0389 87.1593 64.9589 93.4893 66.8889C99.4193 60.1489 93.2393 39.8889 102.209 33.0189C103.629 40.5889 96.9993 79.1289 114.999 61.4989C132.789 71.0489 122.509 42.8289 127.339 37.8189C127.439 37.7289 127.449 37.6989 127.469 36.8889C127.239 36.8889 127.369 36.8889 126.609 36.8189C125.909 43.1689 110.459 8.51886 112.979 56.9189C104.929 69.3589 106.669 53.4289 106.639 47.2689H106.769C109.959 29.9489 101.619 20.0789 96.2593 45.1389C96.9593 26.1389 84.3893 35.1389 82.1493 49.7989C81.1993 26.2689 73.0693 25.7789 77.8993 50.9989V50.9989ZM122.829 41.2789C123.689 41.3989 123.999 66.2789 118.139 59.2289C117.319 57.6389 113.519 35.7989 122.829 41.2789ZM120.569 34.9989C120.699 34.9989 120.769 35.1289 120.899 35.1989C121.359 36.0489 123.899 39.9289 119.299 39.1989C118.239 38.4589 119.209 37.6189 120.429 35.1989C120.429 34.9989 120.499 34.9989 120.569 34.9989ZM115.999 33.4289V33.3589C116.399 32.7289 118.169 30.9089 119.799 33.0889V33.6889C118.989 33.6889 119.399 33.3989 117.329 32.8889C116.999 33.0889 116.599 33.3589 116.199 33.5589H115.999V33.4289Z" fill="black"/>
<path d="M174.61 69.8894C170.51 68.4194 166.51 68.7494 161.05 68.4994C160.85 62.6994 160.69 54.5894 160.77 47.2694H160.9C164.09 29.9494 155.75 20.0794 150.38 45.1394C151.09 26.1394 138.51 35.1394 136.27 49.7994C134.05 45.5294 136.85 36.7994 133.27 32.4894C127.27 27.5594 132.27 65.8694 136.86 65.4394C139.56 65.4394 138.13 61.6294 137.4 57.0594C137.29 35.4694 149.06 25.2594 145.03 55.5594C144.55 59.0394 144.79 71.2994 149.64 65.2394C150.48 54.8894 149.42 42.2394 156.1 32.6894C157.49 43.5294 155.8 56.0094 156.52 68.4494C116.44 69.0794 72.7095 79.6794 65.3695 70.4494C55.7195 61.3594 59.5595 36.4994 62.4195 28.5994C64.4995 27.3894 65.3495 31.7794 67.7795 28.0794C62.6295 24.5494 56.5595 28.0794 50.2695 26.9494C50.2695 28.9494 54.7295 28.6894 56.4595 29.8794C55.6695 36.2694 54.6095 43.7294 54.8195 51.3394C54.3395 77.2994 68.2995 80.6794 92.9395 77.4294C115.34 75.8094 134.44 73.6094 156.81 72.8694C159 103.829 195.06 81.9994 174.61 69.8894V69.8894ZM168 84.5094C162.54 84.1094 161.77 77.2194 161.34 72.8294C179.05 70.5894 181.73 83.1494 168 84.5094V84.5094Z" fill="black"/>
</svg>
