<svg width="175" height="174" viewBox="0 0 175 174" fill="none" xmlns="http://www.w3.org/2000/svg">
<g clip-path="url(#clip0_3_23225)">
<path d="M175.002 86.7359C170.845 98.2617 165.204 100.572 170.041 112.725C170.872 123.694 153.91 124.292 156.46 138.017C155.698 141.442 155.587 142.736 152.635 144.796C129.63 150.629 140.8 159.273 128.716 163.714C113.139 162.558 113.818 165.105 105.032 172.427C99.2529 176.297 92.7395 167.959 86.1291 169.045C59.4658 181.086 70.594 158.869 46.2866 163.727C41.7134 163.379 40.189 158.577 37.9717 153.983C35.6157 147.19 28.2709 147.692 22.4365 144.81C15.5074 141.163 20.9537 129.498 14.1216 124.974C-3.65858 114.144 10.4353 109.968 6.00063 98.4148C4.00504 94.4754 0.388032 91.2042 0 86.7359C4.22677 75.1962 9.7978 72.8159 4.97512 60.7333C4.14362 49.7644 21.1061 49.1658 18.5424 35.4407C19.3046 32.0164 19.4154 30.7218 22.3811 28.6617C45.372 22.8292 34.2022 14.1849 46.2866 9.74438C61.8633 10.9137 61.1981 8.35238 69.9704 1.03046C75.7631 -2.78362 82.2765 5.56838 88.8869 4.42694C115.536 -7.62778 104.408 14.5885 128.716 9.74438C133.303 10.0785 134.813 14.8948 137.031 19.4884C139.386 26.2674 146.731 25.7663 152.58 28.6477C159.509 32.2948 154.062 43.9597 160.894 48.4837C178.605 59.2439 164.511 63.5173 168.946 75.0292C171.011 78.9825 174.614 82.2537 175.002 86.7359V86.7359Z" fill="#FEFEFE"/>
<path d="M70.3028 70.7272C69.9009 73.024 67.2678 81.2507 74.4603 74.2489C74.7513 74.9589 74.4603 74.3881 75.2225 76.2673C74.2108 77.6593 63.5677 84.7168 67.448 71.0195L62.362 71.5485C62.168 72.0357 61.8354 73.4555 60.3803 77.3253C60.1216 77.9019 59.786 78.4405 59.3825 78.9261C59.1608 79.3158 56.9434 79.6917 57.2622 77.9517C57.5037 76.8702 57.8281 75.8092 58.2323 74.7779C58.6341 73.72 58.9667 72.7177 59.2578 71.7573C58.4678 71.5345 56.8049 72.0774 55.8625 69.711C55.6685 69.0568 55.8625 68.0267 57.1236 69.5022H60.1031C60.7545 66.7878 65.6464 58.1992 55.6408 64.0317C54.9478 59.5633 68.6398 54.7749 63.0272 69.4048C64.1775 69.4048 65.494 69.2517 68.03 69.1264C69.2219 68.0267 68.8477 60.3985 72.9497 60.9275C73.8089 63.3635 72.5617 63.28 70.9819 69.015C71.6799 68.9083 72.383 68.8386 73.0883 68.8062C73.8367 68.5417 74.9176 70.2678 73.1715 70.407L72.5201 70.4766L71.7579 70.5601L70.3028 70.7272Z" fill="#606593"/>
<path d="M85.9898 75.8228C85.2414 76.4771 82.2896 80.9175 80.4465 76.7415C72.866 84.0356 72.6443 65.7308 82.3035 68.9603C85.0751 68.1529 78.6726 81.4883 85.574 73.5678L85.9898 75.8228ZM77.2036 75.0294C77.2036 77.0478 79.2547 76.9643 79.7674 73.4982L80.5435 70.1574C79.0606 70.4358 77.4946 72.0366 77.2036 75.0294Z" fill="#606593"/>
<path d="M89.4684 76.4059C90.0366 76.0718 91.8382 77.1576 95.1364 73.9003L95.2473 76.1832C93.6121 78.2289 90.8309 78.9486 88.4152 77.951C89.7178 88.391 76.8989 90.3537 85.7128 75.5985C86.2533 74.0117 85.9068 67.163 91.2561 68.4158C93.1963 69.2232 94.9147 73.8168 89.3437 76.2528L89.4684 76.4059ZM84.5348 82.8926C85.7128 86.1917 86.0315 80.6515 85.99 78.1598C85.2572 79.6495 84.7659 81.2473 84.5348 82.8926ZM88.1934 75.3897C88.5706 75.2091 88.9282 74.9899 89.2605 74.7355C89.5354 74.4921 89.7903 74.2267 90.0227 73.9421C90.1059 73.9421 90.3137 73.6358 90.6463 73.0233C92.4202 70.0862 88.3736 67.6085 88.1657 75.3897H88.1934Z" fill="#606593"/>
<path d="M98.2826 76.4059C98.8646 76.0718 100.666 77.1576 103.964 73.9003L104.075 76.1832C102.44 78.2289 99.6589 78.9486 97.2432 77.951C98.5459 88.391 85.727 90.3537 94.4716 75.5985C94.9982 74.0117 94.6517 67.163 100.015 68.4158C101.941 69.2232 103.673 73.8168 98.1024 76.2528L98.2826 76.4059ZM93.3213 82.8926C94.5131 86.1917 94.818 80.6515 94.7903 78.1598C94.0454 79.6458 93.5491 81.2447 93.3213 82.8926ZM97.0076 75.3897C97.3848 75.2091 97.7424 74.9899 98.0747 74.7355C98.3488 74.4956 98.5994 74.2299 98.8231 73.9421C98.9201 73.9421 99.1279 73.6219 99.4605 73.0233C101.248 70.0862 97.2016 67.6085 97.0076 75.3897V75.3897Z" fill="#606593"/>
<path d="M106.833 78.5511L107.055 77.3123C101.428 83.1865 100.306 66.1763 105.988 68.7932C105.42 69.4614 103.396 82.5044 107.374 73.4982C107.581 72.2732 108.524 65.9118 110.81 69.002C110.533 70.7142 110.076 73.0388 109.425 77.354C110.913 76.3625 112.163 75.05 113.083 73.5121L113.582 75.8089C112.876 76.8105 111.993 77.6738 110.977 78.3563C110.436 78.8713 108.953 79.0105 108.995 81.7806C108.958 81.9735 108.934 82.1689 108.926 82.3652C110.159 88.7127 97.3818 90.8843 104.574 80.8479C105.267 80.0249 106.022 79.257 106.833 78.5511V78.5511ZM106.833 81.0289C105.437 82.234 104.51 83.8953 104.214 85.7199C105.766 86.931 106.708 83.6876 106.875 81.0289H106.833Z" fill="#606593"/>
<path d="M31.3331 105.792C25.7898 109.565 30.5986 101.394 30.266 92.8607C30.266 91.4687 28.8802 91.9838 27.231 94.1553C27.0509 94.6286 26.2748 94.3641 26.4965 93.5289C27.7992 88.1975 35.2827 85.8729 31.5271 98.902C31.4024 94.559 41.3942 80.8895 40.0638 95.5612H40.2716C41.0477 89.3668 50.499 83.9937 47.9214 97.4265C48.4757 97.1342 44.5123 107.379 49.3072 103.537C49.8912 102.896 50.4154 102.201 50.8732 101.463C50.8963 101.539 50.924 101.614 50.9564 101.686C51.2197 102.326 51.1227 102.09 51.6631 103.496C51.2613 105.472 44.4846 109.815 44.3183 103.398C47.8105 92.5406 43.6392 82.894 39.3154 105.751C39.1907 106.683 36.7794 107.713 36.7794 105.319C39.8143 92.7633 38.0128 82.017 31.3331 105.792V105.792Z" fill="#606593"/>
<path d="M56.4858 98.9006C59.493 102.033 51.7462 113.391 49.5566 102.339C49.6398 97.2023 55.391 93.43 60.4492 100.599L60.2552 101.991C59.1609 100.789 57.9227 99.7275 56.5689 98.831L56.4858 98.9006ZM53.3261 104.858C54.7119 105.902 56.7352 95.1143 52.453 99.9863C52.018 100.847 51.8082 101.805 51.8433 102.77C51.9957 103.146 51.6354 104.719 53.3261 104.858V104.858Z" fill="#606593"/>
<path d="M67.5449 104.538C62.944 108.088 58.2044 107.837 59.5903 97.2861C57.9688 97.2861 53.7698 95.4904 59.8813 95.6296C59.327 89.5187 69.7207 83.2965 64.1219 95.8802C69.8731 95.4347 67.2677 98.4275 62.9855 97.6202C62.7915 97.8846 62.7638 97.9403 61.8214 99.1374C61.5997 102.075 60.9345 108.06 67.5865 101.921L67.5449 104.538ZM64.2605 91.5093C63.8032 89.8667 62.8747 90.688 61.7799 95.6853H62.4035C63.2573 94.4111 63.8855 92.9983 64.2605 91.5093Z" fill="#606593"/>
<path d="M70.2889 100.558C82.6089 86.2479 68.4042 111.499 77.814 102.047L77.9803 104.831C75.0839 107.935 68.82 107.615 72.825 100.057H72.6171C71.7025 99.0265 69.0417 108.409 66.7967 106.237C66.6858 104.845 65.7434 84.2017 73.9475 87.7791C75.07 91.4401 72.5617 95.6021 70.0811 100.474L70.2889 100.558ZM71.1897 94.0849C72.5756 91.5932 72.4508 86.3314 70.1088 92.4701C69.6943 94.0008 69.4206 95.5664 69.2911 97.1473C69.1387 97.9546 69.0278 98.7481 68.9447 99.5276C69.0833 99.0125 69.5822 97.9268 71.1897 94.0849V94.0849Z" fill="#606593"/>
<path d="M81.2094 106.835C76.3312 107.462 75.7908 95.6157 82.8169 96.8546C83.5098 97.467 85.2837 97.8846 84.0226 100.627C83.3851 101.086 83.9256 102.242 80.0868 103.62C81.2648 105.262 83.0109 104.664 86.1845 102.088L87.5703 103.48C86.0598 104.65 84.7155 106.585 81.2094 106.835V106.835ZM79.8235 101.935C80.4472 102.562 84.7432 98.525 81.2094 98.8034C80.2756 99.5627 79.7688 100.731 79.8512 101.935H79.8235Z" fill="#606593"/>
<path d="M85.4912 104.692C85.5945 102.195 86.0279 99.7236 86.78 97.3419C87.9857 95.9499 88.9419 96.4093 88.443 99.8893H88.5539C88.3044 99.4438 92.0462 94.015 92.4342 98.0936C92.2818 99.3046 90.7989 103.968 95.6909 100.223L95.5385 102.631C93.8339 103.912 90.1337 105.179 89.9951 100.321H89.8288C89.0666 101.685 87.0018 111.359 85.4912 104.692V104.692Z" fill="#606593"/>
<path d="M94.6514 93.6385C94.7345 91.7315 94.6514 92.4275 94.984 89.0589C96.7717 86.1774 99.5849 87.8757 96.6192 93.6664C96.5915 93.9448 95.0533 95.824 94.6514 93.6385Z" fill="#606593"/>
<path d="M100.583 103.008C102.277 101.417 103.779 99.6324 105.059 97.6903C106.029 95.9364 109.951 96.5628 106.695 99.6809C106.805 101.337 107.457 101.49 107.152 104.344C108.386 103.737 109.588 103.068 110.755 102.34V104.678C110.755 104.497 103.175 109.968 100.916 105.026C99.6269 105.43 98.9478 103.968 100.583 103.008ZM101.858 104.4C103.646 106.376 105.628 105.054 104.63 101.407L101.858 104.4Z" fill="#606593"/>
<path d="M119.555 88.9763C133.039 86.7769 129.921 112.362 115.633 106.933C115.065 107.866 114.428 89.7975 120.317 93.3889C119.196 95.3237 118.527 97.4896 118.363 99.7225C114.746 120.241 139.414 84.2713 115.162 93.1523C112.474 99.639 109.48 89.3799 119.555 88.9763Z" fill="#606593"/>
<path d="M140.384 104.288C139.622 104.942 136.67 109.369 134.757 105.193C127.191 112.487 126.955 94.1959 136.614 97.4254C139.386 96.6041 132.984 109.953 139.885 102.019L140.384 104.288ZM131.653 103.481C131.653 105.499 133.704 105.429 134.217 101.963L134.979 98.6225C133.441 98.9009 131.875 100.488 131.653 103.481Z" fill="#606593"/>
<path d="M143.557 107.016L143.793 105.763C138.166 111.651 137.03 94.6273 142.726 97.2443C142.158 97.9124 140.12 110.969 144.112 101.963C144.32 100.724 145.262 94.3628 147.562 97.4531C147.271 99.1792 146.814 101.49 146.177 105.805C147.674 104.826 148.93 103.517 149.849 101.977L150.334 104.26C149.635 105.268 148.751 106.133 147.729 106.807C146.372 107.373 145.56 108.782 145.747 110.246C145.747 110.496 145.747 110.691 145.678 110.83C146.925 117.164 134.148 119.335 141.34 109.299C142.029 108.491 142.77 107.728 143.557 107.016V107.016ZM143.557 109.494C142.191 110.697 141.284 112.341 140.994 114.143C142.49 115.396 143.377 112.139 143.599 109.494H143.557Z" fill="#606593"/>
<path d="M88.9423 122.762C88.3624 123.598 88.3624 124.709 88.9423 125.546C86.0598 124.529 83.1218 129.916 89.261 128.176C84.0365 132.714 91.7555 132.603 91.6585 129.137C93.3631 133.188 98.7262 130.529 93.5571 126.715C96.5644 126.464 96.5505 120.924 91.9634 124.515C92.5455 123.513 91.4645 120.771 88.9423 122.762V122.762ZM91.6169 127.313C91.3814 128.469 88.7344 127.313 90.3143 126.005C90.9518 125.907 91.4645 126.172 91.6169 127.313Z" fill="#F1ABB1"/>
<path d="M137.197 121.772C140.19 120.923 139.719 115.48 136.144 121.104C136.021 121.194 135.953 121.342 135.964 121.494C135.401 121.589 134.845 121.724 134.301 121.898C134.301 121.772 134.398 121.633 134.453 121.494C137.502 116.831 132.97 116.385 131.945 122.747C131.432 122.942 130.337 123.345 128.619 124.027C132.208 120.213 127.649 116.093 126.221 125.016C125.071 125.489 124.725 125.642 122.521 126.644C126.762 121.744 121.024 120.241 119.569 128.036C118.308 128.677 117.061 129.331 115.841 130.041C121.496 124.389 113.763 122.566 113.957 131.168C112.64 132.003 111.337 132.88 110.09 133.813C114.885 125.739 105.697 129.762 106.515 136.806C105.609 137.64 104.748 138.523 103.937 139.451C107.249 130.862 99.7797 135.971 102.08 142.068C101.17 143.721 100.693 145.579 100.694 147.469C101.803 147.789 101.72 144.893 103.217 142.722C108.095 145.506 116.645 137.154 105.198 139.938C105.973 139.034 106.806 138.183 107.693 137.391C109.772 140.467 120.664 133.994 112.682 133.59C113.513 133.047 114.331 132.546 115.135 132.059L115.356 132.171C115.634 132.532 115.356 132.171 116.507 132.699C119.181 135.191 127.205 130.848 120.359 129.206L121.884 128.468C123.186 130.514 133.954 129.164 126.665 126.296L128.563 125.517C129.284 126.477 136.213 127.229 132.721 123.86L133.109 123.707C133.677 123.707 133.428 123.707 134.495 123.317C135.811 124.918 142.865 124.25 137.197 121.772V121.772Z" fill="#BD9AB4"/>
<path d="M41.2002 121.772C38.2069 120.923 38.678 115.48 42.2535 121.104C42.3761 121.194 42.4441 121.342 42.4336 121.494C42.9968 121.589 43.5525 121.724 44.0966 121.898C44.0375 121.766 43.9866 121.631 43.9442 121.494C40.8954 116.831 45.427 116.385 46.4525 122.747C46.9514 122.942 48.0601 123.345 49.7785 124.027C46.1892 120.213 50.7486 116.093 52.176 125.016C53.3262 125.489 53.6727 125.642 55.8623 126.644C51.6217 121.744 57.3728 120.241 58.828 128.036C60.0891 128.677 61.3363 129.331 62.5558 130.041C56.8878 124.389 64.6346 122.566 64.4406 131.168C65.8264 132.003 67.0598 132.88 68.307 133.813C63.4982 125.739 72.7001 129.762 71.8686 136.806C72.7582 137.615 73.596 138.48 74.3769 139.395C71.0787 130.806 78.5344 135.915 76.2478 142.012C77.1533 143.667 77.6299 145.524 77.6336 147.413C76.525 147.733 76.6081 144.838 75.1114 142.666C70.2333 145.45 61.6828 137.098 73.1297 139.882C72.3661 139.004 71.5468 138.176 70.6768 137.404C68.598 140.481 57.7054 134.008 65.674 133.604C64.8563 133.061 64.0387 132.56 63.221 132.073L63.0132 132.184C62.736 132.546 63.0132 132.184 61.8629 132.713C59.2853 135.191 51.2059 130.806 58.0519 129.206L56.5275 128.468C55.211 130.514 44.4569 129.164 51.7464 126.296L49.8478 125.517C49.1272 126.477 42.198 127.229 45.7596 123.86L45.3716 123.707C44.8034 123.707 45.0528 123.707 43.9858 123.317C42.5168 124.918 35.4906 124.25 41.2002 121.772V121.772Z" fill="#BD9AB4"/>
<path d="M87.3069 163.589C89.864 163.09 91.8491 161.058 92.2959 158.48C101.054 168.836 108.676 158.243 96.5365 153.037C116.742 154.109 98.449 139.911 93.8896 146.815C98.1302 131.698 81.7775 135.526 85.9627 147.776C76.5391 142.361 72.1044 154.179 84.8402 154.736C79.5047 156.476 81.4865 164.09 87.3069 163.589V163.589ZM90.7161 150.337C93.1551 148.945 95.9684 154.61 91.6584 155.348C90.4912 155.23 89.5405 154.354 89.3228 153.196C89.105 152.038 89.6721 150.874 90.7161 150.337V150.337Z" fill="#F7D7BA"/>
<path d="M89.427 51.5049C90.0151 50.671 90.0151 49.5549 89.427 48.7209C92.3095 49.7232 95.2336 44.3501 89.1082 46.0761C94.3328 41.5382 86.6137 41.6496 86.6969 45.1157C85.0062 41.0649 79.643 43.7237 84.8122 47.5377C81.8049 47.7883 81.8188 53.3285 86.4059 49.7371C85.8238 50.7393 86.8493 53.4677 89.427 51.5049V51.5049ZM86.7523 46.9253C86.9879 45.7699 89.6349 46.9253 88.055 48.2337C87.4037 48.3312 86.9325 48.0667 86.7523 46.9253Z" fill="#F1ABB1"/>
<path d="M41.2002 52.4644C38.2068 53.3135 38.678 58.7562 42.2534 53.1325C42.376 53.0422 42.444 52.8951 42.4336 52.7428C42.9967 52.6479 43.5524 52.513 44.0966 52.3391C44.0966 52.4783 43.9857 52.6036 43.9441 52.7428C40.8953 57.4199 45.427 57.8514 46.4525 51.49C46.9514 51.2951 48.06 50.8914 49.7785 50.2093C46.1892 54.0234 50.7485 58.1437 52.1759 49.221C53.3262 48.7477 53.6726 48.5946 55.8622 47.5924C51.6216 52.4922 57.3728 53.9956 58.8279 46.2004C60.089 45.5601 61.3363 44.8919 62.5558 44.182C56.8878 49.8474 64.6345 51.657 64.4405 43.0545C65.8263 42.2332 67.0597 41.3562 68.307 40.4097C63.4981 48.4833 72.7 44.4604 71.8685 37.4169C72.7637 36.6036 73.6018 35.7292 74.3769 34.7999C71.0786 43.3885 78.5344 38.2799 76.2478 32.1829C77.1516 30.5322 77.6281 28.6798 77.6336 26.7959C76.5249 26.4757 76.6081 29.3711 75.1114 31.5426C70.2333 28.7586 61.6827 37.1106 73.1296 34.3266C72.3704 35.2176 71.5508 36.0548 70.6767 36.8322C68.598 33.7559 57.7054 40.2287 65.6739 40.6324C64.8563 41.1753 64.0386 41.6764 63.221 42.1775C63.1517 42.1775 63.221 42.1775 63.0131 42.0522C62.7359 41.6903 63.0131 42.0522 61.8629 41.5233C59.2852 39.0455 51.2059 43.4303 58.0518 45.0311L56.5274 45.7689C55.2109 43.7226 44.4569 45.0729 51.7463 47.9404L49.8062 48.7199C49.0855 47.7594 42.1564 47.0077 45.718 50.3764L45.33 50.5295C44.7618 50.5295 45.0112 50.5295 43.9441 50.9193C42.5167 49.3185 35.4906 49.9866 41.2002 52.4644V52.4644Z" fill="#BD9AB4"/>
<path d="M137.197 52.4644C140.19 53.3135 139.719 58.7562 136.144 53.1325C136.021 53.0422 135.953 52.8951 135.964 52.7428C135.401 52.6479 134.845 52.513 134.301 52.3391L134.453 52.7428C137.502 57.4199 132.97 57.8514 131.945 51.49C131.432 51.2951 130.337 50.8914 128.619 50.2093C132.208 54.0234 127.649 58.1437 126.221 49.221C125.071 48.7477 124.725 48.5946 122.521 47.5924C126.762 52.4922 121.024 53.9956 119.569 46.2004C118.308 45.5601 117.061 44.8919 115.841 44.182C121.496 49.8474 113.763 51.657 113.957 43.0545C112.64 42.2332 111.337 41.3562 110.09 40.4097C114.885 48.4833 105.697 44.4604 106.515 37.4169C105.605 36.5964 104.744 35.7225 103.937 34.7999C107.249 43.3885 99.7797 38.2799 102.08 32.1829C101.172 30.534 100.695 28.6804 100.694 26.7959C101.803 26.4757 101.72 29.3711 103.217 31.5426C108.095 28.7586 116.645 37.1106 105.198 34.3266C105.969 35.2334 106.803 36.0846 107.693 36.874C109.771 33.7977 120.664 40.2705 112.682 40.6741C113.513 41.217 114.331 41.7181 115.135 42.2193C115.202 42.1672 115.277 42.125 115.356 42.094C115.634 41.7321 115.356 42.094 116.507 41.565C119.084 39.0873 127.164 43.4721 120.318 45.0729L121.842 45.8106C123.145 43.7644 133.913 45.1146 126.623 47.9821L128.522 48.7617C129.242 47.8012 136.172 47.0495 132.679 50.4181L133.067 50.5713C133.635 50.5713 133.386 50.5713 134.453 50.961C135.811 49.3185 142.865 49.9866 137.197 52.4644V52.4644Z" fill="#BD9AB4"/>
<path d="M86.6146 38.3074C89.1683 37.8076 91.1485 35.7742 91.5898 33.1988C100.362 43.5692 107.97 32.976 95.8442 27.756C116.05 28.8418 97.7567 14.6295 93.1835 21.5338C97.4241 6.41668 81.0852 10.2447 85.2565 22.4943C75.8468 17.0794 71.3983 28.8975 84.1479 29.4543C78.8263 31.1943 80.7942 38.8085 86.6146 38.3074ZM90.0792 25.0556C92.5183 23.6636 95.3315 29.329 91.0216 30.0528C89.8508 29.9455 88.8927 29.0715 88.6739 27.9112C88.4551 26.7509 89.0286 25.5856 90.0792 25.0556Z" fill="#F7D7BA"/>
</g>
<defs>
<clipPath id="clip0_3_23225">
<rect width="175" height="174" fill="white"/>
</clipPath>
</defs>
</svg>
