<svg width="198" height="172" viewBox="0 0 198 172" fill="none" xmlns="http://www.w3.org/2000/svg">
<g clip-path="url(#clip0_3_22848)">
<path d="M189.33 51.7657C204.381 40.9101 197.391 24.8843 182.113 21.8974C187.917 9.11587 172.195 0 162.804 7.38557C158.051 -5.03551 141.907 -0.184488 138.639 10.1767C126.897 0.412877 116.886 14.8114 118.02 26.1717C111.216 22.536 103.855 30.2914 104.031 37.0478C102.81 35.7639 101.15 34.9878 99.3811 34.8747C97.6352 33.9619 95.5409 34.0165 93.845 35.0189C93.3914 29.5808 86.3707 22.7317 80.0718 26.1511C81.2677 13.6167 70.278 0.927847 59.4532 10.1561C55.7934 -0.709758 39.8965 -4.65443 35.2573 7.38557C24.9584 -0.31838 10.3914 9.84713 15.8965 21.9386C-1.62925 25.5846 -4.59832 42.5374 8.68003 51.8069C-2.66018 58.6251 -3.92822 78.5853 10.9996 79.7801C5.83467 93.7975 1.06147 109.628 21.68 105.704C19.0512 116.116 26.0512 127.878 37.3398 125.489C38.0718 135.788 46.3192 147.53 57.6594 143.822C59.1439 150.743 65.9068 158.931 74.1543 157.551C76.3192 169.261 90.4223 176.347 98.9996 167.006C108.195 176.78 121.68 168.674 123.897 157.551C131.474 159.044 138.814 151.227 140.391 143.822C151.299 147.663 159.979 136.025 160.711 125.489C172.33 127.961 178.814 115.941 176.371 105.704C198.515 109.947 191.01 91.2845 186.989 79.7389C202.68 78.4514 199.886 57.8114 189.33 51.7657V51.7657ZM189.33 70.799C186.484 74.548 181.525 69.2541 178.278 72.313C175.464 75.4028 178.897 77.8129 180.412 81.2838C188.061 97.6392 190.505 105.199 171.319 98.525C164.855 101.883 174.907 112.203 168.36 117.27C166.876 118.835 163.876 119.649 161.969 118.526C148.845 104.107 155.783 131.689 147.422 134.872C145.888 135.931 143.915 136.122 142.206 135.376C139.412 130.536 136.237 127.662 132.979 133.09C132.33 139.269 132.762 146.335 125.536 149.095C114.742 138.456 117.453 151.268 114.969 158.54C109.948 167.17 100.536 162.917 104.051 152.978C103.357 150.879 101.127 149.701 98.9996 150.31C91.4738 149.651 95.2573 155.46 94.6388 159.951C91.6903 166.13 83.5357 162.361 82.3295 156.655C80.9068 152.535 83.546 146.355 78.4635 145.15C75.2986 143.884 74.6594 148.24 72.4841 149.105C60.9274 144.913 69.2986 130.968 61.1439 130.154C57.7316 129.475 57.9274 134.377 55.2058 135.696C42.1233 136.725 48.1543 119.072 43.113 114.983C37.9584 111.976 37.2573 121.245 32.0099 118.763C20.8244 114.644 35.1027 96.6402 24.8553 98.8855C21.2577 100.998 16.9254 101.467 12.9584 100.173C6.04085 92.3453 33.814 66.4011 11.9274 72.2306C9.24704 72.1379 8.12332 70.7784 7.8759 67.7092C7.77281 64.3413 9.57693 61.9827 12.1646 59.5211C34.7522 45.3183 0.896521 48.9025 8.71095 34.3494C10.2883 32.0629 12.8347 31.1875 15.9274 30.4356C41.4017 28.9216 15.4945 17.3142 26.4223 14.0905C33.0202 12.9266 37.4326 27.2016 42.4635 18.5398C41.0718 1.30893 52.2573 6.24234 56.2367 17.5099C56.4842 25.4095 65.2883 25.7494 61.5769 16.4799C68.4429 3.09072 78.5254 22.1034 75.8759 30.724C73.7213 36.399 79.68 40.0965 79.7522 31.548C84.9068 26.1408 89.845 33.3813 90.1646 39.2931C88.2264 43.2584 88.8244 58.7075 94.4945 52.1777C94.8965 48.1609 92.6697 41.7753 98.1439 39.6124C101.237 41.2809 101.34 46.822 105 46.5027C109.824 69.7484 103.33 18.6943 118.319 31.5892C118.072 38.8708 124.309 37.8512 122.185 30.7652C119.67 20.1259 130.433 3.87348 136.494 16.5211C132.907 24.7607 141.195 26.4189 141.824 17.5511C143.237 12.0512 150.464 3.13192 155.288 9.71324C156.505 14.0184 153.226 19.817 158.989 21.3825C164.144 21.5781 165.835 12.113 172.701 14.3068C180.247 18.0455 159.814 29.2924 179.484 29.9825C182.383 30.2109 185.185 31.1253 187.659 32.65C201.288 49.4998 160.907 43.8249 187.433 61.0146C189.845 63.8572 191.165 66.947 189.34 70.799H189.33Z" fill="#FEB39E"/>
<path d="M167.247 19.8369C138.69 -2.82182 109.515 29.5595 96.5151 53.1657C96.1413 53.3164 95.7764 53.4884 95.4223 53.6807C52.8862 -34.4204 -20.9076 33.9882 25.144 102.448C35.7831 122.718 86.8347 159.322 97.0409 158.065C99.2056 158.619 101.504 158.246 103.381 157.035C136.793 136.931 174.123 112.799 182.33 71.6325C185.907 53.7219 182.814 31.5885 167.247 19.8369V19.8369Z" fill="#F46487"/>
<path d="M67.8859 74.8364C70.7107 74.2802 69.8241 69.8 70.2055 66.4424C70.8962 66.5351 72.0509 66.5866 73.8138 66.7823C73.0096 68.7598 74.9066 78.7811 77.8653 71.8599C78.5973 65.9274 75.9272 46.5028 73.9787 63.3835C73.0406 63.4865 72.1024 63.538 70.1127 63.7439C69.5973 62.5389 70.6282 58.8723 68.5767 57.7291C65.7107 60.0877 64.1952 74.7952 67.8859 74.8364V74.8364Z" fill="#FCE6DB"/>
<path d="M80.443 70.0371C79.9378 72.818 82.7213 77.154 82.6079 70.2843H85.9894C91.144 81.4283 90.9275 64.3519 86.845 58.7284C81.2368 53.5787 80.1028 63.6 80.3708 68.3583C80.443 68.5952 79.5667 68.8115 80.443 70.0371ZM85.5976 66.731V67.1945C84.9584 67.3078 84.5667 67.3799 82.8553 67.7404C82.9378 67.0503 83.0203 66.4426 83.1234 65.8659C83.711 62.6216 84.2471 61.7461 84.4327 61.571C85.1131 62.7143 85.3502 64.2901 85.5976 66.731V66.731Z" fill="#FCE6DB"/>
<path d="M93.9379 71.6335C95.7111 75.815 98.4637 71.7365 97.6905 67.6785C107.67 65.3921 101.959 50.5918 94.5977 58.821C92.3916 61.6637 94.1132 67.0709 93.9379 71.6335ZM97.7936 61.5092C97.9792 60.8191 98.5153 60.057 98.8246 60.0364C99.7833 60.5101 99.9483 62.6833 97.6081 63.9501C97.5572 63.1318 97.6196 62.3104 97.7936 61.5092Z" fill="#FCE6DB"/>
<path d="M104.557 63.0758C105.206 64.94 103.041 71.1196 106.618 71.82C108.618 71.6964 108.557 69.2142 108.423 66.6703C117.701 65.8257 114.402 52.179 106.113 57.2978C105.886 57.3882 105.71 57.5722 105.629 57.8025C104.701 58.9766 104.443 60.7687 104.557 63.0758V63.0758ZM109.196 59.9036C110.505 59.9036 110.99 62.8698 108.278 63.3951C108.278 63.0346 108.216 62.6844 108.185 62.3651C108.159 61.8209 108.214 61.2757 108.35 60.7481C108.465 60.3381 108.785 60.0178 109.196 59.9036Z" fill="#FCE6DB"/>
<path d="M123.185 57.6161C121.597 58.6461 123.649 60.3352 122.463 62.4054C122.267 63.0851 119.803 63.4353 119.453 61.705C118.515 60.6133 121.175 58.3062 118.989 57.4102C115.144 58.3886 116.319 65.4334 120.525 66.1543C118.01 73.8274 125.876 77.6794 123.236 65.8145C126.226 65.2171 128.597 56.442 123.185 57.6161V57.6161Z" fill="#FCE6DB"/>
<path d="M62.3498 89.9459C63.3808 74.4968 59.6385 71.4791 52.7519 86.8561C51.1334 86.4339 43.4736 72.2825 43.7931 82.9115C42.7622 87.9067 42.9272 94.1378 43.1127 99.8849C47.4942 107.537 47.556 91.0789 46.9169 87.5256C49.2777 91.5527 54.8344 95.2913 57.3705 88.8748C55.6076 102.614 63.5251 106.549 62.3498 89.9459Z" fill="#FCE6DB"/>
<path d="M78.1437 80.6562C75.0509 77.0617 66.8035 76.6291 67.0715 83.2414C57.1025 113.779 90.2056 101.492 78.1437 80.6562ZM75.0818 92.6962C70.1128 106.085 67.2777 87.804 69.9272 83.3547C75.154 80.8004 76.9788 87.9997 75.0818 92.6962Z" fill="#FCE6DB"/>
<path d="M95.5869 79.626C97.958 72.8078 69.8859 81.9227 87.0817 81.6858C83.4116 106.291 94.1642 102.748 89.6797 81.4078C91.1848 80.8413 93.7725 81.8197 95.5869 79.626V79.626Z" fill="#FCE6DB"/>
<path d="M105.896 92.8192C106.546 104.148 112.69 101.059 109.783 90.2649C110.597 80.0891 110.247 71.4788 106.298 87.4532C104.432 87.3631 102.566 87.6359 100.804 88.2565C101.113 85.5478 100.804 72.9516 97.4118 82.8905C94.7314 90.1001 98.6798 107.321 100.896 92.8295C102.551 93.1137 104.243 93.1103 105.896 92.8192V92.8192Z" fill="#FCE6DB"/>
<path d="M119.865 79.1839C118.834 79.0809 110.68 79.7503 114.37 82.5415C113.721 86.4655 113.04 91.677 114.587 96.3221C111.927 99.484 121.329 99.8445 123.205 97.2799C124.453 93.7678 121.144 95.0347 117.164 96.1264C117.541 94.4692 117.583 92.7534 117.288 91.0797C124.102 92.1096 126.144 84.9 117.113 87.9899C117.271 86.226 117.288 84.4523 117.164 82.6857C118.814 82.0162 123.02 84.0246 124.669 81.1202C124.381 79.5031 122.144 78.9264 119.865 79.1839V79.1839Z" fill="#FCE6DB"/>
<path d="M137.814 91.5221C137.061 90.5952 136.432 89.8536 135.824 89.1944C142.556 85.2395 138.072 74.8577 130.474 77.8651C129.845 77.1338 128.68 77.8651 128.587 79.925V79.9868C128.174 81.2123 128.009 82.5078 128.102 83.7976C127.785 87.5602 127.962 91.3483 128.628 95.0651C128.656 96.0364 129.449 96.8108 130.422 96.816C133.278 96.5482 132.608 93.067 132.7 89.9875H132.979C134.113 91.7178 135.206 96.6821 138.443 97.331C140.917 96.9396 139.896 93.273 137.814 91.5221ZM135.752 84.2095C135.36 85.5691 134.247 86.2179 132.391 86.1355C132.226 84.7142 131.989 83.3135 131.69 81.9437C132.201 81.3038 132.94 80.8866 133.752 80.7798C135.202 81.2394 136.067 82.7226 135.752 84.2095V84.2095Z" fill="#FCE6DB"/>
<path d="M143.062 82.1183C143.556 81.4591 150.103 72.0454 144.278 74.9911C143.814 75.7326 138.546 83.9309 143.062 82.1183Z" fill="#FCE6DB"/>
<path d="M150.824 79.2037C147.113 78.0399 143.608 84.4461 145.422 88.123C146.165 90.6979 153.855 89.153 150.577 94.3027C148.216 97.0526 146.031 93.077 143.175 92.5827C140.474 93.3036 141.938 96.1463 144.422 97.4749C155 102.954 159.412 88.0303 147.804 85.9189C148.093 80.553 150.546 80.8516 154.66 84.889L155.01 84.9817C156.732 83.2823 153.196 79.6878 150.824 79.2037Z" fill="#FCE6DB"/>
<path d="M79.2981 105.107C75.6589 100.987 76.03 112.162 75.9682 114.376C75.7319 117.078 75.663 119.792 75.762 122.503C73.2878 128.682 86.7826 124.13 88.329 120.721C95.2053 114.057 88.195 101.523 79.2981 105.107ZM84.5661 119.475C83.1304 120.61 81.406 121.324 79.5867 121.534C80.0083 117.774 80.1668 113.988 80.061 110.205C84.5043 102.707 90.6898 115.973 84.5661 119.475V119.475Z" fill="#FCE6DB"/>
<path d="M103.061 116.828C104.515 99.6798 94.7414 102.553 93.2259 117.168C92.6486 126.901 95.6589 125.006 95.6486 116.911C96.8987 117.459 98.2806 117.634 99.628 117.415C98.3393 125.778 104.154 127.519 103.061 116.828V116.828ZM99.5043 108.239C99.6589 108.239 99.5043 108.239 99.896 108.465C100.133 109.701 99.7414 112.132 99.762 113.944C99.4012 114.058 98.2568 114.233 96.1125 114.707C96.6074 112.997 98.3702 108.475 99.5043 108.239V108.239Z" fill="#FCE6DB"/>
<path d="M114.669 105.426C111.896 106.178 114.824 110.225 112.319 113.15C108.814 115.622 109.082 110.143 108.195 107.434C103.597 106.775 105.865 116.426 109.783 116.91C106.69 128.754 115.102 128.548 113.288 116.776C116.463 115.818 119.618 106.373 114.669 105.426V105.426Z" fill="#FCE6DB"/>
<path d="M49.2779 70.0372C50.2168 69.741 51.0087 69.1007 51.4943 68.2451C61.3913 54.1349 47.3706 45.8851 47.4531 60.0056C38.35 48.12 29.6799 52.7033 41.8552 63.4456C42.082 63.8575 42.3294 64.2695 42.5768 64.6609C39.6181 63.4146 31.1335 65.1656 35.1438 70.0681C39.2675 72.0147 44.5047 71.7572 49.2779 70.0372Z" fill="#FCE6DB"/>
<path d="M157.226 65.6709C154.251 64.3918 150.954 64.0574 147.783 64.713C168.298 51.7873 146.597 41.8689 142.267 60.5932C142.049 59.3325 141.704 58.0971 141.236 56.9061C142.061 50.5307 138.607 44.8043 134.731 50.6543C134.249 55.7196 135.647 60.7854 138.659 64.8881C137.597 71.284 164.288 74.4253 157.226 65.6709V65.6709ZM138.288 52.7245C138.151 52.7042 138.012 52.7042 137.875 52.7245C137.844 51.88 138.061 51.8903 138.288 52.7245Z" fill="#FCE6DB"/>
<path d="M64.8758 111.235C64.7542 111.201 64.6301 111.177 64.5047 111.163C63.9583 111.163 63.2882 110.637 62.2366 111.884C59.2985 114.541 63.6799 118.928 65.8345 114.242C66.1931 113.736 66.2931 113.091 66.1047 112.5C65.9163 111.909 65.4613 111.441 64.8758 111.235V111.235Z" fill="#FCE6DB"/>
<path d="M131.289 111.39C130.773 111.001 130.166 110.753 129.526 110.669C125.68 108.908 122.876 115.819 126.969 118.033C130.66 120.083 135.185 115.242 131.289 111.39Z" fill="#FCE6DB"/>
<path d="M68.2782 27.211C67.9792 26.8814 68.4534 27.0874 66.7215 25.6764L66.3503 25.388C46.2266 9.06345 35.474 25.0275 43.0307 32.9581C60.8555 33.092 65.5565 32.0311 75.1854 44.9569C75.2679 45.41 75.5668 46.3576 76.2885 45.3791C77.3194 44.1741 76.2885 42.0215 75.3916 39.7454C74.1671 35.0141 71.7132 30.6901 68.2782 27.211V27.211Z" fill="#59D1D3"/>
<path d="M28.1335 31.2089C31.4221 31.8887 29.649 25.3795 26.3397 28.7577C25.9892 29.87 26.0407 31.1059 28.1335 31.2089Z" fill="#59D1D3"/>
<path d="M31.2368 40.4257C31.505 40.5651 31.7887 40.6722 32.0821 40.745C34.4429 41.9088 37.5976 38.3144 34.2058 36.0382C31.6079 34.2873 28.2574 38.1702 31.2368 40.4257Z" fill="#59D1D3"/>
<path d="M24.3504 40.3955C24.8074 39.9238 24.9214 39.2175 24.6359 38.6263C24.3504 38.0351 23.726 37.6847 23.0721 37.7485C20.6494 37.1615 21.3298 42.0434 24.3504 40.3955Z" fill="#59D1D3"/>
<path d="M24.4326 73.703C22.3708 67.0908 26.3708 60.5507 24.4326 53.6192C23.2058 50.9104 20.8759 49.5818 17.9893 51.7653C12.5564 59.3353 18.4533 70.2424 21.3605 78.3789C21.4223 78.5746 21.3605 78.3789 21.5461 78.7703C22.0821 82.7974 35.5976 96.5368 30.6182 87.0098C30.5667 86.742 31.8553 88.9564 32.1337 87.6999C28.3772 83.7935 25.7205 78.965 24.4326 73.703Z" fill="#59D1D3"/>
<path d="M36.3296 97.0721C31.8863 92.6125 31.9275 105.446 35.5461 99.2247C35.9894 99.0393 36.7213 98.6994 36.3296 97.0721Z" fill="#59D1D3"/>
<path d="M47.7315 111.131C47.1852 110.73 46.9068 110.627 45.3913 110.956C38.8346 113.953 47.9377 122.08 49.1542 113.706C49.0305 112.975 50.0202 112.367 47.7315 111.131V111.131Z" fill="#59D1D3"/>
<path d="M130.556 24.3694C130.134 24.6989 129.711 25.0388 129.299 25.3993L128.917 25.6877C128.294 26.0853 127.76 26.6079 127.35 27.2223C123.921 30.7058 121.468 35.0282 120.237 39.7567C120.01 40.8793 118.03 43.5983 119.34 45.3904C119.34 45.7921 120.165 46.235 120.443 44.9682C134.989 25.7701 142.092 36.43 153.67 32.2278C160.113 13.9567 138.711 16.892 130.556 24.3694Z" fill="#59D1D3"/>
<path d="M167.041 31.29C167.195 31.2804 167.347 31.2527 167.495 31.2076C174.484 28.6122 161.495 25.7489 167.041 31.29Z" fill="#59D1D3"/>
<path d="M163.546 40.7444C166.866 40.1264 165.608 34.0086 161.423 36.0376C160.201 36.6683 159.686 38.1439 160.252 39.3966C160.817 40.6493 162.264 41.2413 163.546 40.7444V40.7444Z" fill="#59D1D3"/>
<path d="M171.278 40.3947C172.494 42.0735 176.133 38.3349 172.659 37.7375C172.587 37.7375 172.597 37.7375 172.659 37.7375H172.608C171.929 37.6104 171.248 37.9481 170.94 38.565C170.631 39.182 170.769 39.9286 171.278 40.3947Z" fill="#59D1D3"/>
<path d="M177.629 51.7665C166.01 46.7713 172.804 65.9179 171.629 71.4177C172.567 77.5974 159.453 92.3255 165.01 86.9698C160.258 95.8273 173.587 82.984 173.99 78.8951C174.119 78.7088 174.21 78.4988 174.258 78.2771C177.093 71.0676 183.041 58.4405 177.629 51.7665Z" fill="#59D1D3"/>
<path d="M160.134 96.2481C159.402 96.4541 158.298 98.4418 160.134 99.2246C161.443 104.292 165.927 96.2378 160.134 96.2481Z" fill="#59D1D3"/>
<path d="M150.185 110.936C149.427 110.629 148.567 110.705 147.876 111.142C147.349 111.295 146.904 111.652 146.641 112.133C146.378 112.614 146.318 113.181 146.474 113.707C147.453 121.637 157.051 114.459 150.185 110.936V110.936Z" fill="#59D1D3"/>
<path d="M99.7211 132.574C96.4113 132.456 93.1183 133.094 90.0922 134.439C89.1705 134.576 88.263 134.797 87.3809 135.098C84.4221 135.994 78.5974 137.611 77.7417 141.463C77.5039 142.262 77.6679 143.126 78.1818 143.783C78.6957 144.439 79.4959 144.807 80.3293 144.769C83.7108 145.294 88.7726 144.295 92.8345 142.596C92.9891 145.562 92.7108 149.208 94.319 152.555C94.3912 152.905 94.4221 153.132 95.1335 153.678C98.5871 157.53 101.319 153.204 101.855 148.878C102.635 146.56 102.879 144.095 102.566 141.669C127.69 153.709 115.896 132.059 99.7211 132.574V132.574Z" fill="#59D1D3"/>
</g>
<defs>
<clipPath id="clip0_3_22848">
<rect width="198" height="172" fill="white"/>
</clipPath>
</defs>
</svg>
