<svg width="217" height="84" viewBox="0 0 217 84" fill="none" xmlns="http://www.w3.org/2000/svg">
<g clip-path="url(#clip0_3_23756)">
<path d="M109.07 62.4388C105.92 52.7988 100.43 62.1888 96.6695 65.8388C79.8895 58.6288 88.4695 79.2788 100.1 82.6288C103.58 87.7588 111.54 65.9288 109.07 62.4388ZM106.07 69.4388C105.42 73.4388 102.31 76.1588 100.8 79.6388C95.9995 77.3288 83.6995 66.8388 94.0595 67.8388C96.5895 68.6388 97.9595 69.7088 99.8295 67.5888C104.49 58.8988 107.46 61.7488 106.09 69.3888L106.07 69.4388Z" fill="#EC8B9A"/>
<path d="M113.39 65.9988C116.7 58.8688 140.95 58.8388 131.95 65.2988C125.41 64.6888 119.09 62.5488 113.39 65.9988V65.9988Z" fill="#EC8B9A"/>
<path d="M84.9996 65.7087C78.9996 63.7887 74.0596 63.0087 66.8096 64.6287C33.7996 71.6487 68.8396 52.4487 84.9996 65.7087Z" fill="#EC8B9A"/>
<path d="M82.9301 66.1496C78.819 67.543 74.9964 69.6746 71.6501 72.4396C69.5601 73.9996 60.3601 84.6096 59.3701 78.0696C60.6301 72.7996 79.3101 65.4696 82.9301 66.1496Z" fill="#EC8B9A"/>
<path d="M114.42 70.1395C132.42 61.1395 150.61 76.5695 140.34 76.6995C133.35 71.3595 122.88 67.9995 114.42 70.1395Z" fill="#EC8B9A"/>
<path d="M115.49 62.0695C116.1 55.7495 131.49 40.7595 129.34 51.6795C126.25 52.9395 116.57 59.7995 115.49 62.0695V62.0695Z" fill="#EC8B9A"/>
<path d="M88.1296 61.1201C86.1532 57.6471 82.9672 55.0235 79.1796 53.7501C56.6596 49.0801 81.4496 40.2901 88.1296 61.1201Z" fill="#EC8B9A"/>
<path d="M105.37 55.5C105.094 55.5 104.87 55.7239 104.87 56C104.87 56.2761 105.094 56.5 105.37 56.5C105.646 56.5 105.87 56.2761 105.87 56C105.87 55.7239 105.646 55.5 105.37 55.5Z" fill="black"/>
<path d="M108.37 56.1191C107.818 56.1191 107.37 56.5669 107.37 57.1191C107.37 57.6714 107.818 58.1191 108.37 58.1191C108.922 58.1191 109.37 57.6714 109.37 57.1191C109.37 56.5669 108.922 56.1191 108.37 56.1191Z" fill="black"/>
<path d="M102.71 56.709C102.38 57.549 104.59 56.999 102.71 56.709V56.709Z" fill="black"/>
<path d="M108 52.2891C107.448 52.2891 107 52.7368 107 53.2891C107 53.8413 107.448 54.2891 108 54.2891C108.552 54.2891 109 53.8413 109 53.2891C109 52.7368 108.552 52.2891 108 52.2891Z" fill="black"/>
<path d="M83.3301 69.9193C82.5901 68.7493 80.33 71.3393 82.89 71.5693C83.31 71.2593 83.3701 71.0893 83.3301 69.9193Z" fill="black"/>
<path d="M78.7902 71.8691C78.4702 72.7191 80.6702 72.1891 78.7902 71.8691V71.8691Z" fill="black"/>
<path d="M79.46 72.1191C79.13 72.9991 81.34 72.4391 79.46 72.1191V72.1191Z" fill="black"/>
<path d="M60.0002 74.7092C59.6402 75.3792 59.7902 75.1092 60.0002 74.7092C59.8302 73.5892 58.0902 75.3592 60.0002 74.7092Z" fill="black"/>
<path d="M58.7094 76.789C58.3494 77.469 58.4994 77.199 58.7094 76.789C58.5794 75.679 56.8394 77.439 58.7094 76.789Z" fill="black"/>
<path d="M53.6296 61.6086C53.6296 62.3286 53.6296 62.0386 53.6296 61.6086C52.9296 60.8086 52.2596 63.1286 53.6296 61.6086Z" fill="black"/>
<path d="M53.1102 63.1293C53.5202 63.7693 53.1102 63.9793 53.1102 63.1293C52.8002 62.6393 51.3202 63.7893 53.1102 63.1293Z" fill="black"/>
<path d="M140.509 67.0597C139.439 66.4697 139.819 70.2597 140.509 67.0597V67.0597Z" fill="black"/>
<path d="M142.62 70.1798C142.7 70.7498 142.44 70.8598 142.62 70.1798C142.16 69.0998 140.37 70.4898 142.62 70.1798Z" fill="black"/>
<path d="M132.13 58.8184C131.54 59.7684 134 59.8584 132.13 58.8184V58.8184Z" fill="black"/>
<path d="M134.34 60.4687C134.55 61.2187 134.47 60.9187 134.34 60.4687C133.59 59.8287 133.54 62.1887 134.34 60.4687Z" fill="black"/>
<path d="M129.4 46.2684C129.295 46.0868 129.086 45.9921 128.88 46.0328C128.675 46.0735 128.518 46.2406 128.49 46.4484C128.17 46.7984 129 48.2984 129.4 46.2684Z" fill="black"/>
<path d="M80.7595 47.4285C80.7595 47.5085 79.4695 47.0085 79.7095 48.3085C79.4195 49.1885 81.5695 48.9985 80.7595 47.4285Z" fill="black"/>
<path d="M81.2697 49.1895C80.3797 49.5795 82.3797 50.7795 81.2697 49.1895V49.1895Z" fill="black"/>
<path d="M92.1201 61C91.844 61 91.6201 61.2239 91.6201 61.5C91.6201 61.7761 91.844 62 92.1201 62C92.3963 62 92.6201 61.7761 92.6201 61.5C92.6201 61.2239 92.3963 61 92.1201 61Z" fill="black"/>
<path d="M93.8701 62.1191C93.594 62.1191 93.3701 62.343 93.3701 62.6191C93.3701 62.8953 93.594 63.1191 93.8701 63.1191C94.1463 63.1191 94.3701 62.8953 94.3701 62.6191C94.3701 62.343 94.1463 62.1191 93.8701 62.1191Z" fill="black"/>
<path d="M139.44 29.7394C137.21 29.3094 135.63 34.9394 131.04 35.2394C129.48 31.7294 127.86 30.9494 126.57 28.3394C141.94 18.9994 119.85 17.2694 122.66 29.1094C120.5 31.2794 109.36 42.6794 108.45 39.0094C110.12 32.0094 123.05 22.7094 106.21 27.1594C110.15 24.7694 114.27 12.2494 103.94 18.5594V18.4994C102.94 19.0194 97.9398 26.6494 102.48 29.6694C100.851 32.6554 98.373 35.0914 95.3598 36.6694C93.9598 37.0394 91.1598 35.9294 91.5298 32.0694C91.5104 31.3264 91.5843 30.584 91.7498 29.8594C107.22 21.5594 88.5498 16.9594 88.0298 31.0994C85.913 35.3192 83.2464 39.24 80.0998 42.7594C74.7898 49.7594 82.8098 10.5294 64.0998 38.4094C63.6327 35.6352 63.5017 32.8149 63.7098 30.0094C82.3998 -0.000610352 57.2598 3.46939 60.3498 32.9994C49.6098 60.5194 52.2198 34.5994 52.4598 23.7294C54.2299 23.1926 56.0296 22.7585 57.8498 22.4294C61.5498 22.1094 57.6698 19.2694 52.6598 21.8294C52.3398 19.4294 54.9698 14.1894 51.2998 15.8994C49.2998 16.7594 50.0698 19.6094 48.9998 23.1194C44.9998 23.4894 39.4098 28.1194 48.7498 25.0294C48.4898 27.7694 48.3098 30.5094 48.2598 33.2494C47.7698 36.0894 44.1998 39.5694 40.4498 39.6294C37.4498 12.6294 27.4498 39.1294 23.8698 49.8894H23.9298C20.8798 48.1494 27.4798 37.7394 22.9298 37.3694C18.3798 36.7894 14.5698 43.0094 11.7498 47.6694C11.2698 46.3894 12.2698 41.0194 8.74977 41.8694C6.74977 42.0494 5.13977 44.4594 3.74977 47.2494C3.06977 46.6294 3.15977 39.2494 0.00976562 42.2994C0.00976562 44.8994 0.249766 50.2994 2.19977 53.8294C4.96977 55.1094 4.63977 45.7094 8.24977 43.8294C10.0198 67.0694 12.7198 41.8294 21.6498 38.9794C20.8098 43.2594 18.5198 49.6094 20.6498 55.1294C20.85 55.3266 21.0793 55.4919 21.3298 55.6194C21.5527 55.609 21.7758 55.6361 21.9898 55.6994C22.1498 55.5994 22.0998 55.8794 22.8098 55.4494C24.5798 53.4494 27.6898 46.4494 29.0198 42.7794C30.1498 49.6294 38.4098 49.6394 40.0198 41.6694C42.2898 41.2694 45.7498 40.7894 48.2798 37.8794C48.9798 55.4994 55.6698 49.8794 60.4298 37.0394C63.6198 57.7894 64.4998 32.8094 72.8598 30.8294C74.7598 48.0394 74.0498 55.3494 88.2298 34.6694C90.5598 43.9094 101.55 36.6694 104.52 30.0494C106.47 30.1394 112.3 28.2194 109.61 30.8294C95.6598 49.9594 118.01 39.2894 123.79 30.9394C125.68 33.1894 127.04 34.3094 127.51 36.1494C111.69 41.7994 130.81 54.9294 131.29 37.0594C134.14 36.2494 140.5 33.5494 139.44 29.7394V29.7394ZM95.6298 23.1794C97.3298 24.1794 95.2498 25.9594 92.1198 27.8794C92.3098 26.6494 93.6398 23.8494 95.6298 23.1794ZM68.1598 11.4594C68.2333 11.4655 68.3061 11.4401 68.3598 11.3894C70.1698 15.8994 67.3598 19.4794 64.4698 24.5194C65.2198 18.9994 66.5398 12.1394 68.1598 11.4594ZM36.3098 45.2994C35.9498 45.3594 31.9498 45.9094 33.0298 39.2994C34.6299 40.4004 36.4416 41.1564 38.3498 41.5194C38.1016 42.9686 37.385 44.2965 36.3098 45.2994ZM38.6498 39.6794C37.0098 39.5094 35.9998 39.2894 33.4398 37.1394C34.5398 32.0294 35.1498 30.6294 36.1198 30.5094L35.1198 30.2194C37.9998 30.5094 38.8098 35.3594 38.6498 39.6794ZM103.54 23.7694C108.83 12.8694 110.92 21.0994 104.35 26.8194C103.75 26.2594 103 26.6194 103.54 23.7694ZM126 26.3994C126.82 20.3194 133.25 22.3194 126 26.9794C125.963 26.7878 125.963 26.591 126 26.3994ZM127.14 40.8094C125.49 47.6794 119.01 41.3494 127.72 38.1194C127.581 39.0303 127.373 39.9295 127.1 40.8094H127.14Z" fill="black"/>
<path d="M216.83 43.8996C213.72 43.8996 207.55 51.4096 202.04 52.0296C202.59 48.5196 211.34 38.4296 205.18 39.2296H204.57C201.37 41.2296 197.45 45.5596 193.84 47.2296C188.43 47.9196 195.84 37.1196 195.93 37.2296C195.53 37.0296 196.11 35.5296 193.08 35.7596C192.479 36.2803 191.905 36.831 191.36 37.4096C189.01 39.4796 184.36 45.4996 180.82 46.6696C177.72 45.9896 183.82 37.0496 180.32 37.2196C179.14 36.9196 178.91 37.6496 176.66 39.5396C173.39 40.4396 175.6 35.9896 177.66 33.0696C180.53 27.3896 180.86 41.1896 182.61 33.6596C178.38 17.9496 158.69 59.7496 161.8 31.8396C186.75 10.0396 167.95 1.73962 158.8 28.2796C145 21.5196 142.15 49.9996 157.45 36.2096C159.26 46.9096 164.6 46.1096 171.34 38.9496C171.54 41.7396 173.63 43.2796 177.42 41.4896C175.54 51.9996 183.99 48.4896 189.32 42.2196C186.32 52.5896 194.86 50.4996 200.95 44.7196C200.022 47.7541 198.862 50.7128 197.48 53.5696C187.69 56.3996 176.05 64.9596 183.48 69.9296C189.39 74.0396 198.11 62.7596 200.9 54.4296C205.5 52.0996 214.81 50.1096 216.83 43.8996V43.8996ZM171.83 13.4496H171.9C172.036 13.4246 172.175 13.4246 172.31 13.4496C172.55 19.3296 167.31 23.0796 162.71 28.5596C165 21.4196 169.65 14.3896 171.86 13.4496H171.83ZM157.59 33.6696C151.08 41.3096 147.59 35.0396 155.29 28.7796C157 28.9996 158.35 29.7096 157.59 33.6696ZM192.91 61.5696C175.91 78.8996 183.46 57.3396 196.32 55.7296C195.296 57.7399 194.158 59.6898 192.91 61.5696V61.5696Z" fill="black"/>
<path d="M95.06 5.3382C94.97 6.6082 95.06 8.3382 94.95 10.4882C94.88 10.4882 94.95 10.6482 94.36 11.1182H93.74C93 10.6882 93.19 9.7482 93 7.9982C92.93 7.9282 93 7.8182 92.62 7.6182C92.35 7.6182 92.62 7.3782 91.41 7.6182C89 7.9982 87.35 5.6182 86.75 10.9982L86.39 11.1282L85.63 11.0582L85.4 10.7882C85.114 9.47492 85.0464 8.12347 85.2 6.7882L85.11 6.5882C85.1335 6.46009 85.1635 6.33325 85.2 6.2082C85.1542 5.6625 85.1542 5.11391 85.2 4.5682V4.3282C84.9816 3.04295 85.0673 1.72442 85.45 0.478203L85.74 0.248203H86.46L86.84 0.498203L87.06 0.918203C87.1347 2.09035 87.1347 3.26606 87.06 4.4382C87.06 5.9282 89.59 5.6382 91.32 5.5082C91.6506 5.56887 91.9894 5.56887 92.32 5.5082C93.63 5.0282 92.79 3.0682 93.06 0.828203C93.2309 0.564641 93.4517 0.337039 93.71 0.158203H94.36L94.63 0.298203C95 0.568203 95 2.4482 95 3.7282C94.9344 4.26465 94.9546 4.80813 95.06 5.3382V5.3382Z" fill="black"/>
<path d="M106.71 9.99852V10.5385L106.56 10.8485L105.89 11.1685H105.57C104.57 9.25852 102.1 9.26852 99.77 9.59852C99.38 9.89852 99.34 9.59852 98.94 10.5985C98.6721 10.8374 98.3806 11.0485 98.07 11.2285C97.8715 11.1865 97.6774 11.1262 97.49 11.0485L97.24 10.7985L97 10.3085C97.1331 10.0637 97.1955 9.78673 97.18 9.50852C97.56 8.74852 97.93 7.83852 98.75 6.20852C99.03 5.32852 99.6 4.28852 100.23 2.89852C100.282 2.54895 100.435 2.22218 100.67 1.95852C101.01 1.42852 100.52 1.31852 101.77 0.298516C101.88 0.298516 101.59 0.228516 102.44 0.228516C103.38 0.938516 104.01 3.48852 104.77 5.22852C104.944 5.51363 105.072 5.82401 105.15 6.14852C105.5 6.64852 105.37 6.63852 105.85 7.91852C106.139 8.40356 106.342 8.93464 106.45 9.48852L106.71 9.99852ZM101.62 7.62852C101.795 7.66187 101.975 7.64452 102.14 7.57852C102.14 7.57852 103.71 7.85852 103.3 6.57852C103.109 6.17211 102.952 5.75069 102.83 5.31852C102.66 5.16852 102.29 3.67852 101.65 4.44852C101.578 4.72985 101.441 4.99028 101.25 5.20852L101.12 5.50852C101.13 6.13852 99.65 7.51852 101.62 7.64852V7.62852Z" fill="black"/>
<path d="M108.82 6.14913V5.42913C108.66 4.17913 108.82 3.21913 108.82 1.25913C108.922 0.949175 109.056 0.650845 109.22 0.369129C111.9 0.0691295 117.85 -1.19087 118.79 3.63913C118.79 4.54913 118.88 6.16913 117.49 7.23913C117.39 7.30913 117.49 7.23913 117.29 7.48913L116.95 7.64913C116.85 7.72913 116.95 7.64913 116.68 7.90913C116.17 8.05913 116.38 7.99913 115.09 8.40913C115.09 8.40913 114.32 8.40913 113.37 8.40913L113.17 8.33913C112.449 8.29116 111.726 8.38284 111.04 8.60913C110.85 8.78913 110.9 8.91913 110.73 9.81913V10.3991L110.4 10.9391L110.11 11.0691L109.41 10.9591L109.12 10.6691C108.919 9.90983 108.838 9.12357 108.88 8.33913C108.73 7.93913 108.77 7.22913 108.82 6.14913V6.14913ZM112.74 6.49913C113.05 6.43913 113.54 6.49913 114.82 6.40913L115.67 6.09913C115.815 5.97934 115.973 5.87541 116.14 5.78913C116.278 5.61739 116.405 5.43703 116.52 5.24913C117.18 3.88913 116.12 1.59913 113.52 2.13913C113.197 2.02393 112.844 2.02393 112.52 2.13913C110.84 1.62913 110.2 3.13913 110.7 5.85913C110.87 6.01913 110.58 6.27913 111.42 6.48913C111.858 6.42434 112.303 6.42772 112.74 6.49913V6.49913Z" fill="black"/>
<path d="M120.809 6.14913V5.42913C120.649 4.17913 120.809 3.21913 120.809 1.25913C120.911 0.949175 121.045 0.650845 121.209 0.369129C123.889 0.0691295 129.839 -1.19087 130.779 3.63913C130.779 4.54913 130.869 6.16913 129.479 7.23913C129.379 7.30913 129.479 7.23913 129.279 7.48913L128.939 7.64913C128.839 7.72913 128.939 7.64913 128.669 7.90913C128.159 8.05913 128.369 7.99913 127.079 8.40913C127.079 8.40913 126.309 8.40913 125.359 8.40913L125.149 8.33913C124.432 8.29145 123.712 8.38313 123.029 8.60913C122.839 8.78913 122.889 8.91913 122.719 9.81913V10.3991L122.389 10.9391L122.099 11.0691L121.399 10.9591L121.109 10.6691C120.908 9.90977 120.823 9.124 120.859 8.33913C120.719 7.93913 120.759 7.22913 120.809 6.14913V6.14913ZM124.729 6.49913C125.039 6.43913 125.529 6.49913 126.809 6.40913C126.919 6.40913 127.109 6.29913 127.659 6.09913C127.805 5.97934 127.962 5.87541 128.129 5.78913C128.145 5.7964 128.164 5.7964 128.179 5.78913C128.317 5.61739 128.444 5.43703 128.559 5.24913C129.219 3.89913 128.159 1.59913 125.559 2.13913C125.236 2.02475 124.883 2.02475 124.559 2.13913C122.879 1.62913 122.239 3.13913 122.739 5.85913C122.909 6.01913 122.619 6.27913 123.459 6.48913C123.881 6.42928 124.309 6.43266 124.729 6.49913V6.49913Z" fill="black"/>
<path d="M132.32 0.208203C132.606 0.19305 132.893 0.223428 133.17 0.298203C133.64 0.748406 134.002 1.29871 134.23 1.9082C134.347 2.10542 134.438 2.31725 134.5 2.5382C134.726 2.89707 134.926 3.27132 135.1 3.6582C135.88 3.9682 135.88 8.1382 137.99 3.7882C140.1 -0.561797 137.99 3.7882 138.12 3.5182C138.339 2.97204 138.636 2.46016 139 1.9982C139.239 1.24397 139.73 0.594549 140.39 0.158203H140.66L141.35 0.488203L141.51 0.848203C141.265 1.89822 140.798 2.8836 140.14 3.7382C140.081 3.92985 139.982 4.10697 139.85 4.2582C139.75 4.3182 139.77 4.6982 139.29 5.1982C139.17 5.51296 139.013 5.81186 138.82 6.0882C138.491 6.77505 138.124 7.44278 137.72 8.0882C137.25 8.8682 137.86 9.2082 137.09 10.9282C136.772 11.0555 136.432 11.1167 136.09 11.1082L135.8 10.9982C135.487 9.03987 134.834 7.15139 133.87 5.4182C133.87 5.4182 133.87 5.4182 133.87 5.3482L133.67 5.1082C133.618 4.88723 133.533 4.67502 133.42 4.4782C132.811 3.46663 132.279 2.41026 131.83 1.3182L132 0.658203L132.32 0.208203Z" fill="black"/>
<path d="M121.33 17.2287C120.76 16.4087 118.53 16.9287 119.88 19.4387C115.09 23.2987 124.39 22.3487 121.33 17.2287Z" fill="black"/>
</g>
<defs>
<clipPath id="clip0_3_23756">
<rect width="217" height="84" fill="white"/>
</clipPath>
</defs>
</svg>
