<svg width="191" height="145" viewBox="0 0 191 145" fill="none" xmlns="http://www.w3.org/2000/svg">
<g clip-path="url(#clip0_3_21710)">
<path fill-rule="evenodd" clip-rule="evenodd" d="M70.3665 2.31447C70.1765 2.02647 68.2955 0.852469 65.3725 2.84647C66.2125 5.55347 66.6575 7.05147 66.5375 7.58547C62.4315 8.10947 63.4985 8.41147 62.6585 8.77747L62.1435 8.68947C63.5075 1.67947 55.5205 1.98347 58.2335 7.67547C57.6665 12.0765 59.2355 14.5405 59.2725 17.5245C62.1835 20.0055 61.5935 17.9725 63.6025 17.9535L64.1045 17.0215L62.9265 13.1515C65.7065 10.0805 66.3515 12.2025 67.8015 10.9295C66.6655 13.0645 68.3315 16.7325 68.7095 17.0575C69.5865 17.0855 70.4285 17.0535 71.2365 16.9595C74.1805 11.2025 69.5985 7.88247 70.3665 2.31447" fill="#401070"/>
<path fill-rule="evenodd" clip-rule="evenodd" d="M78.625 9.93691C78.757 7.28391 79.109 6.37091 78.987 6.03391C80.886 8.97691 79.993 7.95591 80.606 9.43991C79.875 10.6239 78.863 9.66391 78.625 9.93691ZM78.039 0.389913L76.572 1.00991C74.089 5.95491 74.001 11.4109 72.332 15.4699C74.635 18.0989 75.763 16.1319 76.916 16.1189C78.014 13.0889 80.061 13.3649 81.272 13.5799L81.9 13.2019L82.252 13.3509C82.861 16.2779 83.867 15.4509 84.533 15.9309L84.521 15.7669L86.026 15.6489L87.291 14.7149L87.525 14.1099C84.692 8.58491 81.923 -0.694087 78.039 0.389913Z" fill="#401070"/>
<path fill-rule="evenodd" clip-rule="evenodd" d="M95.689 6.79188C94.197 7.00988 93.689 7.08188 93.188 7.31388L92.355 7.14588L92.012 6.65588L92.155 3.98588C93.746 4.16788 95.811 4.14188 96.328 4.62188C96.186 5.40288 95.972 6.12688 95.689 6.79188ZM100.647 2.91488C96.632 -1.47912 95.878 0.794883 91.798 0.160883L91.8 0.324883C88.661 0.134883 89.417 -0.0421166 88.637 0.00888336L87.635 0.683883C87.444 3.14588 88.032 6.98188 87.543 10.1899C88.136 12.1689 87.325 14.1309 87.746 15.1879C89.724 16.2859 91.285 15.6079 92.077 15.1549C92.376 14.4809 92.593 13.8129 92.729 13.1479L92.219 12.3209L92.71 10.6429C94.761 11.2519 96.455 10.7409 97.545 10.7819C103.119 6.10488 100.302 6.47888 100.647 2.91488" fill="#401070"/>
<path fill-rule="evenodd" clip-rule="evenodd" d="M111.659 7.43556C110.155 7.53156 109.642 7.56056 109.123 7.75256L108.307 7.51656L108.005 7.00056L108.366 4.35156C109.936 4.66256 111.996 4.80356 112.472 5.32356C112.267 6.09156 111.996 6.79456 111.659 7.43556V7.43556ZM116.915 3.97356C113.271 -0.731437 112.335 1.47356 108.321 0.509562L108.309 0.672563C105.195 0.228563 105.964 0.113563 105.181 0.101562L104.129 0.692563C103.738 3.13156 104.012 7.00156 103.264 10.1606C103.693 12.1816 102.726 14.0696 103.059 15.1576C104.942 16.4136 106.553 15.8646 107.379 15.4766C107.732 14.8296 108.003 14.1806 108.192 13.5296L107.751 12.6636L108.376 11.0316C110.372 11.8056 112.101 11.4336 113.185 11.5626C119.12 7.35556 116.282 7.49756 116.915 3.97356" fill="#401070"/>
<path fill-rule="evenodd" clip-rule="evenodd" d="M132.483 3.6137C128.586 1.8417 127.418 6.2707 125.51 6.7757C125.141 1.8887 122.046 1.7557 119.683 1.0957C119.3 1.5297 118.991 1.9997 118.755 2.5057C119.438 4.2227 122.383 9.5817 122.789 10.4927C122.074 13.1047 121.359 16.5627 122.6 17.7627C124.639 17.8377 125.73 17.7207 125.933 17.6407C127.185 9.9197 129.305 9.5707 133.674 4.8487L132.483 3.6137Z" fill="#401070"/>
<path fill-rule="evenodd" clip-rule="evenodd" d="M40.8005 92.7058C45.8885 92.1978 47.8705 98.2298 46.7125 104.213C46.8215 104.432 46.9925 104.6 47.2275 104.717C47.1285 104.577 47.5895 104.847 47.9055 103.37L47.5675 103.206C47.6985 102.412 48.3195 102.308 47.9055 100.314C48.5425 98.9518 48.5725 97.2208 49.2525 94.0628C50.0905 93.3678 52.2995 92.6228 55.0125 93.3728C56.0535 95.5878 54.9975 100.363 55.6915 103.71L55.5155 103.873C55.6045 104.745 55.7755 105.396 55.5155 107.771C50.2975 112.281 51.4915 99.7448 51.9565 96.9318C51.3085 98.6698 49.9225 103.423 49.7675 107.607C49.3855 107.661 49.6915 108.124 47.9055 108.438V108.614L46.3845 108.438C45.9705 108.119 45.5765 107.725 45.2015 107.257C45.1495 103.885 43.7755 101.554 43.5045 96.7678L43.0015 97.6098C43.6105 99.9008 42.7385 103.743 44.0085 107.093C43.3785 107.623 41.8255 109.705 39.2675 107.421C38.9445 105.389 40.0485 104.259 39.1035 101.169L39.6065 99.4718C39.4255 98.9388 38.7025 96.1108 39.4435 93.5488L40.8005 92.7058Z" fill="#401070"/>
<path fill-rule="evenodd" clip-rule="evenodd" d="M64.5996 96.896L62.4816 98.523C58.7226 106.417 75.0176 104.59 64.5996 96.896ZM63.1366 92.823C66.4746 92.431 71.4156 93.781 72.5836 99.179C73.3666 117.487 46.2596 104.98 63.1366 92.823" fill="#401070"/>
<path fill-rule="evenodd" clip-rule="evenodd" d="M76.3643 92.6934C77.1293 93.1364 81.7303 93.0254 86.2323 93.0444C86.7243 93.9394 87.1423 94.3914 86.5723 96.6724L85.7183 97.0244L82.7793 96.4984C83.0023 99.6224 82.7543 103.171 82.9433 107.22C81.5673 107.681 82.4823 109.898 78.0963 108.262L77.9213 107.571C78.3423 106.354 78.2973 104.077 78.0963 101.859L78.4483 101.343C78.2583 100.796 78.2353 100.702 77.9213 99.2724L78.6123 97.5394C78.1603 96.8744 77.2253 97.4594 75.6743 97.7144C75.1193 96.8504 73.1823 94.7624 76.3643 92.6934Z" fill="#401070"/>
<path fill-rule="evenodd" clip-rule="evenodd" d="M99.9404 92.752C100.737 92.869 101.408 93.259 101.954 93.922C100.237 99.273 104.174 103.336 100.28 108.496C99.4684 108.449 98.6334 108.337 97.7754 108.157C97.4594 107.772 96.4504 103.87 97.9394 101.965C96.2914 102.966 96.0224 100.766 92.7534 103.311L93.2454 107.326L92.5884 108.157C90.6074 107.828 90.8374 109.934 88.3984 106.986C88.8774 104.041 87.7594 101.343 89.0774 97.1059C87.0264 92.3369 95.0444 90.834 92.7534 98.78L93.2454 98.956C94.1364 98.739 93.1364 98.261 97.2714 98.452C97.4824 97.945 97.3034 96.396 96.9444 93.583C97.4164 93.135 98.3944 93.084 99.9404 92.752" fill="#401070"/>
<path fill-rule="evenodd" clip-rule="evenodd" d="M105.43 92.6816C108.864 93.7196 110.942 91.6616 115.286 93.7006C115.034 94.5816 116.206 94.7566 114.784 96.9306L113.589 97.0946C113.237 96.7196 109.606 96.9006 108.146 96.7546L108.661 98.4636C110.771 98.8396 113.104 96.9796 115.122 98.9676C114.783 100.38 115.509 99.4096 114.093 102.21C112.934 102.347 111.095 102.492 109.164 101.696C108.664 102.242 108.384 102.921 108.322 103.733C108.746 104.334 113.426 104.133 115.122 103.908L115.638 104.247C115.575 105.798 116.632 104.874 115.286 108.322C112.534 108.524 109.717 107.634 105.594 108.672C102.651 107.503 104.271 99.6666 104.061 94.0386C104.388 93.5476 104.845 93.0946 105.43 92.6816" fill="#401070"/>
<path fill-rule="evenodd" clip-rule="evenodd" d="M122.862 96.2642C122.691 96.7712 122.461 97.2902 122.172 97.8212C122.461 98.1182 122.201 98.7322 123.214 99.5532C124.124 99.3502 125.579 99.5212 127.194 98.6872C127.131 97.9962 126.07 96.1782 122.862 96.2642V96.2642ZM118.543 92.6352C122.255 92.4212 138.176 92.5202 128.915 102.316C130.216 104.514 130.883 104.082 131.853 107.841C130.306 108.227 131.145 108.739 127.194 108.017C126.115 106.37 125.822 106.988 124.42 103.006L123.389 102.831C122.654 103.039 122.325 104.998 123.038 107.327C122.194 107.223 121.327 110.361 118.016 107.502C117.945 103.911 118.393 99.6032 118.016 94.8822L118.367 94.3682L118.016 92.9862L118.543 92.6352Z" fill="#401070"/>
<path fill-rule="evenodd" clip-rule="evenodd" d="M134.427 91.6738L136.37 91.9318C136.433 92.2278 136.476 92.5708 136.499 92.9608C135.639 94.2878 137.27 94.1668 135.727 97.0938C135.459 97.0058 135.144 97.4078 134.169 97.0938C133.973 96.1248 133.151 93.9498 134.427 91.6738" fill="#401070"/>
<path fill-rule="evenodd" clip-rule="evenodd" d="M144.647 92.5527C147.923 93.9647 146.061 91.6437 151.121 95.7007C150.855 96.3887 150.469 97.0517 149.961 97.6917C149.236 97.9567 148.46 98.1247 147.632 98.1957C146.865 98.0057 145.428 96.2697 143.149 97.1997C155.033 98.4347 153.315 115.759 137.682 105.489C138.446 104.97 136.92 105.028 141.334 103.158C141.887 103.495 144.519 105.769 146.801 104.001C146.801 103.643 146.637 103.307 146.309 102.994C141.109 104.55 133.052 95.4297 144.647 92.5527" fill="#401070"/>
<path fill-rule="evenodd" clip-rule="evenodd" d="M79.8465 119.305C80.4125 121.918 78.1325 123.852 80.8885 126.821L82.9845 126.129C83.9095 123.733 87.2565 119.672 79.8465 119.305V119.305ZM76.1005 115.219C93.9315 111.132 92.6645 134.711 74.8135 129.946C74.9645 127.707 75.3815 126.291 74.8135 123.343C75.7155 121.563 73.8495 118.882 76.1005 115.219Z" fill="#401070"/>
<path fill-rule="evenodd" clip-rule="evenodd" d="M96.3877 120.418C96.4827 120.764 96.0587 121.646 95.7207 124.28C95.9787 124.027 96.9127 125.063 97.7337 123.941C97.2397 122.414 98.0497 123.501 96.3877 120.418ZM95.8837 114.717C99.8417 113.939 101.876 123.409 104.266 129.139L103.986 129.724L102.651 130.555H101.141V130.719C100.514 130.189 99.4467 130.935 99.0687 127.968L98.7287 127.792L98.0737 128.12C96.8827 127.81 94.8637 127.375 93.5317 130.31C92.3817 130.232 91.1017 132.105 89.0127 129.303C90.9957 125.388 91.5107 119.955 94.3737 115.22L95.8837 114.717Z" fill="#401070"/>
<path fill-rule="evenodd" clip-rule="evenodd" d="M103.446 114.822C105.887 115.076 108.959 114.69 110.142 119.446C111.369 118.715 114.16 112.716 117.868 116.179C114.351 121.566 112.319 122.264 112.378 130.087C112.191 130.2 111.135 130.497 109.112 130.765C107.687 129.79 107.814 126.26 108.082 123.566C107.529 122.736 103.728 117.945 102.767 116.367C102.916 115.829 103.141 115.313 103.446 114.822" fill="#401070"/>
<path fill-rule="evenodd" clip-rule="evenodd" d="M121.276 47.7166C127.449 34.6026 117.89 21.4646 105.821 33.7666C104.035 15.9596 89.4358 25.9706 89.4438 38.9366C83.3048 25.2206 70.2438 27.5906 73.9978 43.8766C60.4078 44.7186 55.0728 62.0956 67.3108 67.2156C62.9138 78.8606 79.8278 84.7656 89.6248 79.4966C93.1978 91.6876 112.049 86.2446 113.711 74.2036C130.45 81.4296 136.646 51.0306 121.276 47.7166" fill="#FF4056"/>
<path fill-rule="evenodd" clip-rule="evenodd" d="M108.737 51.9262C117.287 46.6402 111.341 36.1482 102.434 44.3482C101.224 36.2002 94.1069 42.4742 91.7709 49.2172C90.0119 44.9762 77.7619 43.6332 83.1049 52.2682C76.6579 52.6912 73.4399 64.6782 83.9619 63.4182C85.7039 67.7492 91.5079 67.7892 96.2119 63.8292C97.8659 73.6972 109.572 74.5102 106.04 63.0982C116.468 66.7152 120.396 54.7592 108.737 51.9262Z" fill="white"/>
<path fill-rule="evenodd" clip-rule="evenodd" d="M91.255 56.341C91.002 55.849 89.604 54.477 87.24 53.543C87.261 53.544 87.266 53.546 87.272 53.548C84.736 54.78 89.622 60.943 91.255 56.341Z" fill="#FFA427"/>
<path fill-rule="evenodd" clip-rule="evenodd" d="M97.8774 56.5571C97.7124 56.3381 98.2414 55.7591 97.0244 54.7411C91.3674 45.6901 94.5344 64.4041 97.8774 56.5571Z" fill="#FFA427"/>
<path fill-rule="evenodd" clip-rule="evenodd" d="M103.443 52.0427C101.598 47.7247 96.6019 58.3197 102.989 55.9137C103.345 55.2247 103.676 54.5847 103.443 52.0427Z" fill="#FFA427"/>
<path fill-rule="evenodd" clip-rule="evenodd" d="M108.644 55.4601C108.118 54.3441 99.8196 57.1871 104.805 59.2941C105.548 58.6761 108.035 58.9311 108.644 55.4601Z" fill="#FFA427"/>
<path fill-rule="evenodd" clip-rule="evenodd" d="M95.4042 60.9451C96.0952 60.2991 94.7942 57.7761 92.6022 59.9791C92.5832 59.9831 92.5642 59.9871 92.5452 59.9911C92.5472 59.9941 92.5502 59.9971 92.5522 60.0011C91.3812 60.3111 92.6622 63.0541 95.4042 60.9451Z" fill="#FFA427"/>
<path fill-rule="evenodd" clip-rule="evenodd" d="M103.334 59.6868C101.216 54.1598 96.8143 63.7018 103.334 62.2348C103.676 61.7688 103.998 61.3328 103.334 59.6868Z" fill="#FFA427"/>
<path fill-rule="evenodd" clip-rule="evenodd" d="M88.1985 58.9864C87.8945 58.6314 86.8075 57.5494 84.1195 58.7184C84.3735 58.6504 82.4195 59.4724 84.1305 60.3424C83.6015 60.3014 88.8675 62.2914 88.1985 58.9864Z" fill="#FFA427"/>
<path fill-rule="evenodd" clip-rule="evenodd" d="M42.4712 75.7304C44.6592 77.4004 46.9482 79.0374 49.0632 80.7804C54.8682 75.1644 49.9542 24.4814 40.5062 56.6254C21.6802 43.2514 32.9202 70.0854 42.4712 75.7304Z" fill="#FF86C9"/>
<path fill-rule="evenodd" clip-rule="evenodd" d="M148.045 75.7304C145.857 77.4004 143.568 79.0374 141.453 80.7804C135.648 75.1644 140.562 24.4814 150.01 56.6254C168.836 43.2514 157.596 70.0854 148.045 75.7304" fill="#FF86C9"/>
<path fill-rule="evenodd" clip-rule="evenodd" d="M27.0366 104.289C31.1796 102.712 32.4746 115.558 26.3396 114.915C25.6456 112.294 25.0506 108.744 27.0366 104.289ZM17.8936 65.2964C25.1026 63.8864 21.2656 83.1744 13.5776 67.5724C14.8896 66.6374 16.3176 65.8514 17.8936 65.2964ZM71.8436 137.613C55.7956 144.956 37.2246 134.89 28.2886 119.647C46.6556 108.909 19.8226 85.6954 21.5506 113.702C5.63562 107.146 -1.63338 85.1354 10.1236 70.7524C27.2596 96.3664 34.3536 50.7074 12.1686 63.1374C7.70262 36.5454 28.6096 11.4214 50.1286 8.35041C21.2806 1.18941 2.05862 46.1854 8.21162 66.1684C-7.54038 82.2374 0.394617 113.261 23.2736 119.269C43.6036 158.825 82.5086 141.513 71.8436 137.613Z" fill="#FFBBD6"/>
<path fill-rule="evenodd" clip-rule="evenodd" d="M38.4549 19.0332C29.5359 22.3302 15.7539 39.9632 19.3559 48.7872C26.4839 22.8232 43.8359 21.4422 38.4549 19.0332Z" fill="#FFBBD6"/>
<path fill-rule="evenodd" clip-rule="evenodd" d="M46.1179 16.9121C47.1829 15.1451 40.5749 16.6501 45.7639 18.8991C46.4159 18.7321 46.8499 18.4171 46.1179 16.9121" fill="#FFBBD6"/>
<path fill-rule="evenodd" clip-rule="evenodd" d="M53.2125 14.1058C51.7625 12.4778 49.1725 14.9568 51.4555 15.5558C52.7035 15.0228 53.7065 15.4538 53.2125 14.1058Z" fill="#FFBBD6"/>
<path fill-rule="evenodd" clip-rule="evenodd" d="M59.0578 134.832C50.8058 133.978 41.9768 125.748 35.2588 121.314C37.7448 128.455 52.4988 138.531 59.0578 134.832Z" fill="#FFBBD6"/>
<path fill-rule="evenodd" clip-rule="evenodd" d="M66.9506 134.469C64.9686 132.803 61.2006 135.893 66.9516 135.966C67.3456 135.769 67.6436 135.511 66.9506 134.469Z" fill="#FFBBD6"/>
<path fill-rule="evenodd" clip-rule="evenodd" d="M71.8497 133.203C72.3647 134.322 71.8497 134.562 71.8497 133.203C70.3957 131.815 67.5687 135.555 71.8497 133.203Z" fill="#FFBBD6"/>
<path fill-rule="evenodd" clip-rule="evenodd" d="M164.822 111.859C164.696 112.893 164.465 113.911 164.176 114.916C154.274 114.087 164.877 93.2086 164.822 111.859ZM176.937 67.5726C176.222 69.1516 172.491 75.5586 169.389 73.3726C168.379 66.8296 168.845 62.0536 176.937 67.5726ZM117.053 140.395C134.583 153.1 158.947 137.467 167.242 119.271C190.697 112.16 198 83.4696 182.304 66.1696C191.601 43.4826 158.246 -5.58242 141.161 10.1876C165.111 8.59058 182.045 41.2846 178.347 63.1376C155.869 51.2456 163.823 96.2696 180.392 70.7526C191.765 84.0296 185.652 106.648 168.965 113.703C169.645 84.1146 144.46 111.087 162.226 119.648C137.78 155.787 115.617 130.537 117.053 140.395" fill="#FFBBD6"/>
<path fill-rule="evenodd" clip-rule="evenodd" d="M152.061 19.0332C160.98 22.3302 174.762 39.9632 171.16 48.7872C164.032 22.8232 146.68 21.4422 152.061 19.0332Z" fill="#FFBBD6"/>
<path fill-rule="evenodd" clip-rule="evenodd" d="M144.398 16.9121C143.333 15.1451 149.941 16.6501 144.752 18.8991C144.1 18.7321 143.666 18.4171 144.398 16.9121" fill="#FFBBD6"/>
<path fill-rule="evenodd" clip-rule="evenodd" d="M137.303 14.1058C138.753 12.4778 141.343 14.9568 139.06 15.5558C137.812 15.0228 136.809 15.4538 137.303 14.1058Z" fill="#FFBBD6"/>
<path fill-rule="evenodd" clip-rule="evenodd" d="M131.458 134.832C139.711 133.978 148.539 125.748 155.257 121.314C152.771 128.455 138.017 138.531 131.458 134.832Z" fill="#FFBBD6"/>
<path fill-rule="evenodd" clip-rule="evenodd" d="M123.566 134.469C125.548 132.803 129.316 135.893 123.565 135.966C123.171 135.769 122.873 135.511 123.566 134.469Z" fill="#FFBBD6"/>
<path fill-rule="evenodd" clip-rule="evenodd" d="M118.666 133.203C118.151 134.322 118.666 134.562 118.666 133.203C120.12 131.815 122.947 135.555 118.666 133.203Z" fill="#FFBBD6"/>
</g>
<defs>
<clipPath id="clip0_3_21710">
<rect width="191" height="145" fill="white"/>
</clipPath>
</defs>
</svg>
