<svg width="164" height="140" viewBox="0 0 164 140" fill="none" xmlns="http://www.w3.org/2000/svg">
<path fill-rule="evenodd" clip-rule="evenodd" d="M53.8837 109.645C51.9687 112.534 49.8787 117.142 48.0967 120.817C48.6097 123.871 55.3167 109.589 53.8837 109.645Z" fill="#C5DF5D"/>
<path fill-rule="evenodd" clip-rule="evenodd" d="M70.0768 113.389C68.6598 118.29 56.6318 142.907 62.8978 139.187C65.5718 131.77 69.0608 120.962 70.0768 113.389Z" fill="#C5DF5D"/>
<path fill-rule="evenodd" clip-rule="evenodd" d="M85.7514 113.988C85.4624 116.805 86.0674 121.19 86.3104 124.654C87.8104 125.439 87.3704 114.226 85.7514 113.988Z" fill="#C5DF5D"/>
<path fill-rule="evenodd" clip-rule="evenodd" d="M94.6748 113.795C94.8038 114.937 95.6828 116.973 96.9818 118.438C98.2468 118.801 95.9048 113.8 94.6748 113.795Z" fill="#C5DF5D"/>
<path fill-rule="evenodd" clip-rule="evenodd" d="M108.909 111.48C111.954 119.317 117.826 127.237 124.074 133.847C123.918 133.399 123.762 132.95 123.605 132.501C123.189 135.949 129.444 133.834 123.888 129.533C118.841 123.907 115.763 119.911 111.445 113.193C110.733 112.596 109.875 109.694 108.909 111.48Z" fill="#C5DF5D"/>
<path fill-rule="evenodd" clip-rule="evenodd" d="M121.294 106.789C123.306 110.666 132.331 114.948 123.844 107.119C123.44 106.968 121.337 104.983 121.294 106.789Z" fill="#C5DF5D"/>
<path fill-rule="evenodd" clip-rule="evenodd" d="M135.661 100.872C139.913 107.767 146.514 114.018 153.119 119.445C157.649 118.56 149.817 113.57 147.79 111.093C144.198 108.424 138.344 99.2256 135.661 100.872" fill="#C5DF5D"/>
<path fill-rule="evenodd" clip-rule="evenodd" d="M151.434 94.5053C152.223 95.5973 157.642 99.4253 158.442 96.5833C157.105 96.3283 152.898 93.7033 151.434 94.5053Z" fill="#C5DF5D"/>
<path fill-rule="evenodd" clip-rule="evenodd" d="M45.1126 108.764C42.2726 110.96 21.9926 132.67 28.5726 130.108C32.4546 122.584 42.3646 116.253 45.1126 108.764Z" fill="#C5DF5D"/>
<path fill-rule="evenodd" clip-rule="evenodd" d="M36.0833 104.891C34.8963 105.945 25.4593 110.958 28.2853 112.326C30.3743 110.569 35.4763 107.687 36.0833 104.891Z" fill="#C5DF5D"/>
<path fill-rule="evenodd" clip-rule="evenodd" d="M27.1969 99.6582C20.1169 103.437 0.704898 109.094 3.1559 112.708C8.2489 113.908 12.5619 107.933 18.0769 106.191C21.3339 104.123 30.1909 101.208 27.1969 99.6582Z" fill="#C5DF5D"/>
<path fill-rule="evenodd" clip-rule="evenodd" d="M14.6986 92.377C12.1636 93.609 9.42164 94.755 6.62464 95.21C7.03964 95.676 7.45464 96.141 7.86964 96.606C7.92564 94.356 4.90864 95.121 5.82164 97.296C6.37964 98.565 18.6496 92.973 14.6986 92.377" fill="#C5DF5D"/>
<path fill-rule="evenodd" clip-rule="evenodd" d="M39.779 27.036C37.758 33.559 37.538 25.329 39.812 22.523C39.933 24.039 39.984 25.556 39.779 27.036ZM85.367 23.585C85.334 23.56 86.072 22.556 86.7 21.713C86.457 22.835 86.029 24.057 85.367 23.585ZM100.379 26.691C100.709 24.84 102.283 23.216 103.817 21.162C103.658 22.503 102.477 26.076 100.379 26.691ZM118.331 39.412C115.022 42.615 115.874 34.66 118.522 32.964C118.885 35.209 119.257 37.634 118.331 39.412ZM35.858 32.847C46.968 39.995 47.335 21.829 45.434 14.699C46.381 13.64 47.25 12.764 48.984 10.997C47.566 18.579 52.926 33.754 61.188 24.775C64.952 25.928 67.729 21.256 69.794 17.909C69.293 20.81 69.131 29.905 74.137 27.566C72.524 33.605 75.46 47.827 80.782 37.385C80.877 30.811 80.562 23.724 82.012 16.742C84.789 12.416 87.624 11.412 87.094 16.807C75.471 28.232 90.228 31.628 89.601 18.374C89.776 18.203 89.947 18.028 90.122 17.857C89.5 24.23 89.114 32.021 89.1 39.061C88.897 40.11 89.469 41.458 90.725 42.031C98.951 45.254 94.099 25.489 95.538 21.602C97.089 19.404 101.33 10.781 103.983 16.615C87.351 32.879 107.917 34.911 107.261 17.989C107.66 17.691 108.062 17.398 108.466 17.106C106.857 27.039 111.261 26.293 119.025 23.312C118.399 24.765 118.158 26.28 118.132 28.975C99.995 49.709 131.955 53.139 123.798 28.676C125.733 27.894 127.796 23.3 123.169 25.171C121.614 16.608 121.352 20.106 114.764 20.863C116.056 16.859 116.176 4.53196 109.604 13.034C108.571 13.372 107.536 13.909 106.527 14.584C103.547 8.74496 98.345 12.975 95.768 17.405C96.603 10.677 94.16 1.68896 90.865 13.271C90.395 13.463 90.206 13.643 89.258 14.444C89.663 10.722 85.727 8.82196 82.845 12.129C84.323 -3.40204 74.518 14.088 75.2 19.764C74.757 17.416 76.226 12.896 73.839 10.582C69.915 11.722 68.413 16.143 64.587 19.153C64.628 15.537 67.932 13.594 70.314 10.488C65.661 3.31096 56.737 16.209 59.202 22.214C52.891 26.472 57.953 -8.79804 50.036 6.08796C48.307 7.87596 46.676 9.78396 45.063 11.71C41.417 -12.869 37.01 7.17995 39.425 18.152C36.452 21.122 32.258 28.658 35.858 32.847" fill="#232323"/>
<path fill-rule="evenodd" clip-rule="evenodd" d="M49.6732 70.7586C50.8202 70.1256 52.2352 69.1096 52.8312 67.8606C56.7412 69.8486 60.7432 66.4216 61.6532 61.4816C61.9862 57.1206 59.0122 65.2176 56.6942 65.6236C53.2912 66.0336 57.1602 59.1366 58.1272 57.8986C59.2412 56.0686 61.8992 56.3866 62.2052 53.6896C57.2272 44.0516 46.0062 60.3906 50.9322 66.1326C44.6182 71.9356 46.7022 65.7556 47.9162 60.7636C49.0752 52.2256 41.1622 54.7396 37.7082 59.1656C36.5382 49.4976 29.1392 53.2196 27.0912 60.7236C23.8822 43.3366 18.9672 52.0296 21.9472 63.3476C22.6692 73.6756 32.0752 73.0796 28.1152 64.0846C28.5892 62.5306 30.1442 56.5996 32.7982 55.2676C27.3842 74.5796 41.6712 76.5546 38.1112 61.5556C38.7842 60.3466 39.9172 58.8156 42.2852 57.8366C38.9182 63.7086 41.1292 74.2336 49.6732 70.7586" fill="#232323"/>
<path fill-rule="evenodd" clip-rule="evenodd" d="M65.4407 66.8929C70.6487 76.4389 75.7177 65.7719 76.1787 60.1419C65.8187 75.8219 72.3617 57.7699 72.7937 50.3939C78.2837 52.2079 79.7827 48.7109 73.0867 48.9489C75.7597 37.1249 66.8457 39.6429 66.0007 49.1459C63.7927 49.0839 60.6337 50.6209 65.7377 50.7689C65.1967 55.4039 63.4617 61.7769 65.4407 66.8929Z" fill="#232323"/>
<path fill-rule="evenodd" clip-rule="evenodd" d="M85.4231 67.0006C82.4961 74.1276 92.9541 79.4646 94.7031 72.8336C94.2091 70.0286 90.3031 72.9796 90.3301 69.8496C90.4441 62.9796 92.9111 51.2216 83.3931 60.6246C82.3171 56.3186 88.5431 43.9666 83.9091 42.1876C83.9451 42.1726 83.9831 42.1566 84.0191 42.1426C78.2471 42.3506 77.1571 54.1326 76.5251 58.5656C76.4111 58.9226 76.1001 58.9116 76.4431 59.6136C74.1361 77.6876 86.7441 79.8286 83.4271 63.1076C83.9771 61.6696 89.1491 56.5586 89.2281 60.2566C87.9391 63.1896 86.1501 63.6226 85.4231 67.0006Z" fill="#232323"/>
<path fill-rule="evenodd" clip-rule="evenodd" d="M100.585 56.9954C102.541 58.2104 101.511 62.3014 99.555 64.2704C99.51 63.0744 98.88 58.1814 100.585 56.9954V56.9954ZM108.473 65.2774C101.215 91.0314 130.336 69.7634 114.891 71.6674C114.333 68.2174 122.129 55.5994 114.011 57.4474C114.006 57.4354 114.001 57.4234 113.995 57.4114C113.943 57.4514 113.9 57.4924 113.85 57.5324C112.992 58.2124 111.976 59.0584 110.337 58.8094C115.144 44.5714 101.114 50.3744 107.021 59.7784C105.907 62.7844 104.352 66.2404 101.132 68.3524C101.016 69.0454 100.872 69.1114 100.701 68.5544C100.472 68.1584 100.303 67.7364 100.194 67.2884C99.943 66.5244 99.774 65.7314 99.65 64.9304C109.951 59.5684 98.659 46.5074 94.269 58.6694C90.429 78.5304 103.525 79.3704 109.168 61.7024C109.405 61.8384 109.641 61.9774 109.892 62.0864C109.355 63.0484 108.893 64.0954 108.473 65.2774" fill="#232323"/>
<path fill-rule="evenodd" clip-rule="evenodd" d="M124.358 52.8242C121.392 51.8432 121.122 57.0632 122.662 59.7642C127.516 63.2262 127.862 54.8322 124.358 52.8242Z" fill="#232323"/>
<path fill-rule="evenodd" clip-rule="evenodd" d="M133.634 56.0394C133.614 56.7414 133.501 57.4814 133.331 58.2314C132.634 57.6984 133.402 53.5444 133.634 56.0394ZM140.329 64.1434C139.26 62.7214 137.141 61.0524 134.992 59.8114C141.753 41.6014 119.313 52.8874 130.802 64.5244C123.909 72.8104 127.926 71.2164 131.558 65.1594C135.36 67.0984 138.284 73.6924 132.45 74.8524C129.988 74.5024 127.242 73.7024 126.481 76.7024C125.841 79.6364 127.556 81.4404 130.915 81.9124C140.336 83.4034 146.29 71.4924 140.329 64.1434Z" fill="#232323"/>
<path fill-rule="evenodd" clip-rule="evenodd" d="M58.4274 101.616C51.5364 107.013 50.7954 101.278 53.4754 95.5146C53.8904 93.2746 58.1204 93.2966 55.5664 91.2216C46.1044 86.0476 41.5964 103.965 49.6924 107.728C52.6934 109.767 61.9484 103.889 58.4274 101.616Z" fill="#232323"/>
<path fill-rule="evenodd" clip-rule="evenodd" d="M109.578 115.866C102.903 118.433 107.934 110.4 110.824 107.248C111.308 110.533 111.51 114.46 109.578 115.866ZM111.374 96.4779C105.663 78.4589 106.814 95.4099 99.8347 99.7539C98.6577 98.9249 99.3047 96.4249 99.8077 94.2409C102.539 77.6519 90.9377 88.3159 92.5327 98.4379C91.7247 99.5149 90.4237 101.704 89.0077 102.601C86.2567 75.4319 85.3317 101.916 76.0507 98.1789C74.5997 91.2129 77.5557 89.6569 82.2507 87.5139C73.1587 77.8539 66.3557 92.7839 69.5557 100.556C67.0307 102.861 63.6757 100.41 64.2437 96.7939C64.3907 92.8739 65.9287 88.7189 67.4477 84.6599C69.1717 81.9609 67.0107 78.8949 63.8527 79.3499C52.1047 84.5579 57.2467 109.721 71.2857 103.078C75.1157 106.091 79.9607 102.531 83.0737 98.6499C82.4487 106.396 88.7397 110.759 93.5187 102.688C100.223 111.647 106.007 101.928 107.573 94.1519C108.18 95.7699 108.718 97.4139 109.172 99.0809C87.9007 125.405 121.009 128.514 113.32 103.895C114.506 101.558 116.813 100.018 119.446 98.5399C121.168 93.5049 114.302 92.4699 111.374 96.4779" fill="#232323"/>
<path fill-rule="evenodd" clip-rule="evenodd" d="M160.911 28.0339C160.257 28.4389 159.283 30.0109 157.308 29.7209C157.907 27.7319 159.907 25.0279 162.93 24.0459C162.662 25.6339 162.13 26.8979 160.911 28.0339V28.0339ZM155.711 39.8729C153.536 39.8799 150.088 38.5699 149.981 35.3289C152.238 35.9129 155.443 36.0809 155.711 39.8729ZM137.521 37.0969C139.41 38.0379 141.175 39.9699 139.401 42.8489C138.028 41.6309 137.058 39.9239 137.521 37.0969ZM137.781 31.7419C137.551 30.9049 137.651 30.0639 137.539 29.2439C138.983 30.3879 140.587 32.2969 139.582 35.0069C138.834 34.0139 138.14 33.0459 137.781 31.7419V31.7419ZM147.903 27.1889C148.327 28.6949 149.355 30.6939 147.728 33.1689C146.663 31.8839 147.154 29.0169 147.903 27.1889ZM163.336 23.7649C163.335 23.7629 163.332 23.7639 163.33 23.7629C162.621 20.4889 154.683 27.3799 156.215 30.0549C154.178 31.7029 152.081 32.8509 149.915 33.6559C151.356 32.2459 150.444 23.1699 147.499 25.7249C145.609 27.8959 144.686 32.4439 146.706 34.6109C145.043 34.9949 143.338 35.2399 141.586 35.4089C142.213 32.7319 141.119 28.9059 137.685 27.8569C135.048 27.9899 137.193 34.0119 139.141 35.6039C138.266 35.6599 136.92 35.7339 134.872 35.8329C134.127 36.3759 135.303 36.6429 136.92 36.6869C134.214 38.1229 137.201 47.0209 140.387 44.2229C142.048 42.8449 143.067 38.8819 140.408 36.9899C140.529 36.9319 140.641 36.8639 140.744 36.7849C143.368 36.7069 145.9 36.3179 148.329 35.5579C148.536 35.5689 148.711 35.5039 148.849 35.3819C148.96 35.3449 149.07 35.3079 149.181 35.2689C148.711 38.5819 152.528 41.7429 156.3 41.2539C160.374 44.1449 156.15 33.1969 151.757 34.1919C153.445 33.3729 155.076 32.3419 156.645 31.0799C159.828 33.1419 165.616 27.5129 163.336 23.7649" fill="#75D5C7"/>
<path fill-rule="evenodd" clip-rule="evenodd" d="M26.7697 37.1426C32.2617 41.0376 20.8607 49.6496 24.6557 43.3776C26.9327 42.1586 25.9187 38.7476 26.7697 37.1426Z" fill="#75D5C7"/>
<path fill-rule="evenodd" clip-rule="evenodd" d="M11.3593 39.8239C10.7993 40.0979 9.53928 40.4929 8.19128 40.5479C8.25728 37.8649 10.8773 36.2269 13.9223 36.0039C13.9443 37.6889 12.8883 39.0759 11.3593 39.8239V39.8239ZM4.81628 30.1389C3.45928 29.3769 1.28528 27.3019 0.972278 24.7199C3.23328 25.6629 5.43028 27.0009 6.59328 30.3949C5.98128 30.5179 5.42828 30.5009 4.81628 30.1389V30.1389ZM16.1743 33.8439C15.4013 32.6049 14.8003 30.2879 16.0003 27.8639C16.7493 29.6919 17.2393 32.5579 16.1743 33.8439ZM24.1523 32.6999C24.5343 31.3639 25.4943 30.7309 26.3643 29.9189C26.3403 31.2989 26.0583 33.7379 24.3213 35.6809C24.1233 35.0279 23.9163 34.1369 24.1523 32.6999ZM29.0313 36.5079C27.5763 36.4349 26.1543 36.3699 24.7603 36.2799C26.1823 35.5409 29.1053 28.3909 26.2173 28.5319C23.4183 29.2789 21.6163 32.5159 22.3173 36.0839C20.5653 35.9149 18.8593 35.6699 17.1963 35.2859C19.2153 33.1189 18.2943 28.5709 16.4043 26.3999C14.3003 23.8019 12.0473 32.0219 13.9883 34.3309C11.8213 33.5249 9.72428 32.3779 7.68728 30.7299C9.10128 28.2449 1.96328 21.1619 0.572278 24.4369C-1.75672 27.5869 3.53428 33.7759 7.25728 31.7549C8.82728 33.0159 10.4583 34.0479 12.1463 34.8669C8.94328 33.3699 2.70228 44.7349 7.60228 41.9279C10.8533 42.3829 14.9843 39.9769 14.7223 35.9439C14.8323 35.9829 14.9423 36.0189 15.0523 36.0559C15.1923 36.1779 15.3673 36.2439 15.5743 36.2329C18.0023 36.9929 20.5353 37.3819 23.1593 37.4599C23.2613 37.5389 23.3733 37.6069 23.4943 37.6649C20.8053 38.3839 21.9383 46.8879 25.1023 44.6649C23.4783 41.8419 22.8423 39.5819 26.7853 37.3759C26.8243 37.1679 29.9173 37.6729 29.0313 36.5079" fill="#75D5C7"/>
</svg>
