<svg width="177" height="147" viewBox="0 0 177 147" fill="none" xmlns="http://www.w3.org/2000/svg">
<path fill-rule="evenodd" clip-rule="evenodd" d="M134.002 27.9797C125.626 4.06871 93.4244 3.69171 79.5214 21.5257C66.6914 -7.73729 32.7154 -5.93829 19.9904 19.5017C10.3114 37.1227 7.92036 73.8887 25.5264 81.6977C26.9124 82.0967 28.9784 82.6587 28.8484 80.2487C10.5684 71.6927 13.7804 43.6547 19.5594 27.2447C29.8584 -2.99929 63.5944 -5.02529 76.5764 21.3737C77.7134 22.9397 77.3114 25.8607 79.7304 25.6177C91.2124 8.78071 117.329 5.95071 129.106 22.5247C142.49 42.7277 130.463 61.7377 124.633 76.4447C133.881 63.4397 140.242 44.3517 134.002 27.9797" fill="#E62575"/>
<path fill-rule="evenodd" clip-rule="evenodd" d="M15.9325 78.1705C16.6365 79.0845 16.2225 79.4615 14.6935 79.2995C12.2485 79.9465 12.5755 78.5805 12.0215 75.6515C12.7605 75.7685 13.4735 76.0665 14.1525 76.5285C14.8485 76.9475 15.4425 77.4955 15.9325 78.1705V78.1705ZM56.7985 57.9325C57.8325 57.2755 59.0515 56.7035 60.3185 56.3345C54.7135 60.5235 61.2945 65.7135 66.9675 64.3155C63.1495 74.5785 48.4095 65.8615 56.7985 57.9325V57.9325ZM66.9865 60.7065C66.1485 60.8545 65.2955 60.9525 64.4505 60.9505C63.1415 61.2505 62.3465 60.6915 62.0675 59.2735C62.4055 59.1515 62.7435 59.0305 63.0805 58.9095C64.9605 58.0435 66.4615 59.1345 66.9865 60.7065ZM46.1975 46.8315C44.3595 57.5415 33.7375 47.5125 45.1145 44.3805C45.6545 45.0865 46.0395 45.9005 46.1975 46.8315ZM92.6725 43.5255C92.1435 41.0455 93.9965 35.4255 95.6815 40.5995C96.1925 43.5105 93.9485 45.8525 92.3935 48.5445C92.4465 46.8725 92.5285 45.1995 92.6725 43.5255ZM121.381 57.6915C121.946 57.4805 122.509 57.2695 123.074 57.0585C123.004 57.3895 122.935 57.7205 122.866 58.0515C122.823 59.2425 122.317 60.2905 121.829 62.1885C120.688 61.0525 120.276 58.9535 121.381 57.6915ZM56.1975 72.0575C56.1965 72.0525 56.1955 72.0485 56.1945 72.0455C62.6175 74.4765 70.5965 71.0195 70.8285 63.2175C71.3165 62.9885 71.7775 62.7265 72.2005 62.4305C72.2585 74.7245 76.8215 85.5145 85.7705 70.3845C85.3365 76.5575 90.1865 88.0825 94.6555 78.4575C94.5235 72.4645 92.5915 66.1525 92.5485 59.3075C93.2395 59.0245 93.9555 58.8205 94.6395 58.8645C95.5145 58.6425 96.1605 59.0035 96.5765 59.9475C97.5975 60.3765 97.9395 61.0485 97.6035 61.9635C96.1505 85.7815 107.196 81.6125 102.141 73.4655C105.004 79.0045 117.456 79.8025 118.385 72.4015C120.052 70.7185 121.369 68.5105 122.354 66.5105C123.821 66.6975 125.298 66.3765 126.781 66.2485C119.47 75.2375 125.168 83.6165 133.981 77.6095C137.016 74.5665 132.006 70.2055 129.044 73.3605C130.491 66.3195 134.724 61.2175 123.957 63.0215C131.282 43.5655 109.835 57.9095 120.422 65.8925C119.5 67.5075 119.03 68.6095 116.645 70.6355C105.749 77.7215 100.574 61.0605 111.688 61.4645C112.054 61.6095 112.419 61.7545 112.785 61.8995C113.196 61.9465 113.152 62.1055 112.652 62.3735C101.582 72.6255 113.213 68.2835 115.785 62.3515C114.423 54.4365 99.2025 59.6135 100.363 67.7355C100.73 61.7935 100.674 53.3555 92.4625 57.4905C92.4185 56.4505 92.3905 55.4105 92.3695 54.3715C104.633 42.4515 98.1165 29.2625 89.5055 35.1305C85.6965 42.0105 86.3935 49.6105 85.4265 57.6785C85.1185 58.5955 82.5175 59.9395 82.4535 61.9405C83.2925 62.3525 83.6875 61.8145 85.3515 60.6775C85.3435 61.9545 85.3705 63.2315 85.4195 64.5075C83.4045 66.0635 81.0095 69.0905 78.8815 71.7475C78.8735 71.7535 78.8685 71.7575 78.8625 71.7635C78.7885 71.6375 78.6905 71.4985 78.5525 71.3375C76.9365 65.2815 77.6395 57.9085 77.5565 50.8475C86.2515 52.1495 86.5625 49.2245 77.5865 47.6925C79.3285 29.9605 72.8365 26.6615 72.7005 46.0045C64.6985 42.7465 54.9795 37.7015 45.5545 40.9685C37.9955 35.1495 22.0585 40.9205 24.7745 51.8995C25.3415 56.6075 30.8885 54.3875 27.6555 53.2365C23.1655 44.1345 34.9905 38.1985 42.5895 42.3085C25.1785 54.1185 54.0095 60.3445 47.9815 43.8465C56.0895 42.8285 64.4615 47.1825 72.5645 49.6805C72.4825 52.3465 72.2895 56.0595 72.2085 59.5415C71.6435 59.5985 71.0935 59.7055 70.5475 59.8405C70.0995 57.9265 68.3745 55.5855 65.4145 55.3225C56.4675 45.4945 42.8345 64.2445 54.6215 71.2755C46.5095 73.5825 48.5485 61.9345 47.0215 56.9515C43.5275 51.3785 36.7245 56.9185 36.7585 61.9905C32.7745 57.3615 25.2975 59.1745 24.7035 65.8125C15.9905 54.8055 7.7035 60.6285 9.2545 73.1575C-19.2445 87.8955 27.1975 118.72 26.9465 89.8955C25.9985 85.7445 18.8285 82.1635 17.2925 87.4205C16.6805 89.8925 20.5265 91.7755 16.9485 93.4715C5.4645 98.4445 0.124496 81.3245 9.5445 75.9565C13.0925 90.3165 25.2655 75.4745 11.8395 73.0075C13.6475 46.1305 28.1645 80.5835 32.8505 86.3275C38.5875 85.6575 27.3645 72.0875 26.9885 69.5635C29.8435 51.7165 33.6185 68.0255 37.1385 74.8575C46.0575 79.6635 43.0195 67.7825 38.4775 63.9355C38.2755 61.6075 40.6475 56.0765 43.8815 58.7085C44.4185 60.8595 43.8135 64.9155 44.7825 67.9685C45.2345 73.3765 54.5505 78.8925 56.1975 72.0575" fill="#232323"/>
<path fill-rule="evenodd" clip-rule="evenodd" d="M131.118 60.3955C131.119 60.3815 131.12 60.3675 131.121 60.3405C131.149 60.1625 131.147 60.1855 131.118 60.3955ZM131.026 59.1835C131.018 59.1985 131.096 59.8335 131.087 59.7535C131.097 59.8445 131.104 59.8965 131.111 59.9565C131.104 60.1295 131.106 59.9715 131.114 60.4245C130.074 64.4785 137.46 65.5715 136.45 60.0485C136.289 55.1665 128.477 52.8885 131.026 59.1835" fill="#232323"/>
<path fill-rule="evenodd" clip-rule="evenodd" d="M142.52 77.0315C141.453 74.7565 143.305 73.1675 145.124 70.8575C145.664 71.6825 145.083 78.2185 142.52 77.0315ZM141.866 54.1015C143.788 52.7745 144.231 55.1295 142.121 57.2985C141.391 56.3325 140.833 55.1095 141.866 54.1015ZM164.662 76.0675C168.763 64.9345 157.092 57.3695 147.719 63.1145C146.694 61.9595 145.57 60.8935 144.466 59.8095C155.993 44.0765 131.376 48.6155 138.517 61.5325C132.825 66.4445 133.726 69.5655 140.506 64.2785C141.254 65.1275 142.046 65.9465 142.776 66.8015C124.169 85.9405 158.886 88.8745 150.121 66.9355C160.41 62.4625 162.096 70.5745 159.997 78.6255C161.089 80.3445 161.857 79.4275 164.319 79.4545C169.402 79.5715 173.278 83.7855 173.827 88.8295C174.208 108.627 120.683 112.463 135.45 87.3575C137.163 85.2435 137.542 80.7765 134.579 84.6655C119.942 109.524 154.812 109.063 167.731 101.215C181.879 93.2995 178.944 77.9725 164.662 76.0675" fill="#232323"/>
<path fill-rule="evenodd" clip-rule="evenodd" d="M86.2191 96.8407C84.4121 96.4777 84.0961 94.8067 84.4851 93.2177C84.8691 92.9487 85.1091 92.8017 84.9691 91.9127C86.1981 89.0327 90.6751 88.9547 92.3831 92.1087C91.2741 94.6517 88.6821 97.3357 86.2191 96.8407V96.8407ZM76.8941 101.884C76.8251 102.572 76.7251 103.256 76.5931 103.935C75.7541 106.988 74.2411 106.552 72.0531 102.626C72.6451 100.15 74.8831 98.2277 77.5081 96.4247C77.3291 98.2487 77.1241 100.072 76.8941 101.884V101.884ZM94.1881 96.5407C94.4571 98.7247 100.015 103.846 99.9171 98.9417C98.4501 96.1287 95.6311 93.9247 95.9221 89.8107C95.8821 88.3847 94.2591 88.0167 93.4251 88.7157C90.2071 85.0957 83.1261 86.6457 81.4881 91.5187C80.9771 91.6307 80.4671 91.7887 79.9641 91.9897C80.3421 79.5927 68.5091 73.4367 61.5321 85.0027C55.2181 73.5117 45.2831 90.6447 51.5751 88.4587C53.6801 84.3247 58.0701 82.4067 58.0931 89.2937C57.9531 95.6727 56.4751 123.186 65.7421 112.408C65.1951 104.284 63.8321 96.5637 62.6231 88.2797C69.4681 74.9827 78.1201 81.3157 77.7651 93.1217C59.5441 105.767 80.2691 119.678 79.8521 95.1967C80.2251 95.0477 80.6011 94.9097 80.9791 94.7787C81.0831 101.941 90.7841 102.077 94.1881 96.5407" fill="#232323"/>
<path fill-rule="evenodd" clip-rule="evenodd" d="M109.362 118.182C109.036 124.107 104.072 126.257 98.7076 126.869C78.8966 127.782 100.427 107.689 109.325 109.683C109.526 112.571 109.629 115.426 109.362 118.182ZM115.181 107.445C114.716 103.201 113.955 98.3976 113.555 93.3606C116.595 83.1286 108.125 85.9146 108.745 94.9036C108.048 95.5886 107.139 96.7726 105.019 97.4166C104.224 97.0086 103.43 96.6006 102.636 96.1936L102.499 95.0786C105.776 74.9356 91.7226 107.017 108.631 99.0416C108.677 101.764 108.919 104.521 109.142 107.266C104.656 107.537 99.5326 109.156 95.3176 112.137C67.1106 134.779 123.982 144.118 115.457 110.081C133.342 113.457 131.23 128.048 121.534 120.449C120.696 120.72 120.139 121.038 121.282 122.39C123.712 124.886 128.259 125.247 130.835 121.89C134.441 113.708 121.981 108.311 115.181 107.445" fill="#232323"/>
<path fill-rule="evenodd" clip-rule="evenodd" d="M36.3622 107.623C33.8642 107.013 32.3622 106.163 28.7892 105.84C32.5372 104.6 37.9872 103.895 42.7732 102.695C40.5792 104.27 38.4542 105.927 36.3622 107.623ZM31.9262 111.329C28.3962 110.506 24.6382 110.097 20.2732 110.292C22.6592 108.449 25.0442 107.189 27.6582 106.237C30.2532 106.698 32.1262 106.927 35.5972 108.261C34.3652 109.274 33.1282 110.281 31.9262 111.329V111.329ZM27.1332 115.66C24.0382 115.057 19.1742 114.786 15.2882 115.141C16.4362 113.851 17.4042 112.595 19.5402 110.9C23.1232 110.895 26.8812 111.382 31.2442 111.915C29.8542 113.142 28.4812 114.387 27.1332 115.66ZM27.8202 129.394C27.8192 129.4 27.8252 129.403 27.8252 129.41C26.4162 130.504 24.9802 131.552 23.4742 132.491C27.4662 110.299 23.0522 124.039 22.7542 132.931C21.4062 133.733 20.0272 134.487 18.5642 135.117C22.9112 115.682 18.0492 128.379 18.0072 135.381C15.0022 136.616 10.3832 138.025 6.64018 139.355C11.0382 134.692 15.0852 129.704 19.2642 124.836C19.2322 124.7 20.0532 124.895 19.8102 124.197C21.9692 121.759 24.1772 119.084 27.1172 116.308C27.2322 116.264 27.3182 116.187 27.3512 116.077C28.1522 115.334 28.9702 114.61 29.8092 113.909C28.7222 118.866 28.2302 124.339 27.8202 129.394ZM6.02318 139.575C5.96818 139.595 5.91318 139.612 5.85818 139.633C6.56618 136.433 7.22418 133.303 8.03718 130.28C9.93218 129.897 11.8592 129.062 14.6422 128.673C12.0522 131.711 8.58418 135.958 6.02318 139.575V139.575ZM11.5112 120.897C15.1242 120.839 18.6922 120.503 22.9972 119.681C21.5232 121.169 20.0562 122.663 18.6382 124.205C11.1542 124.429 5.38318 125.355 17.8202 125.114C17.1662 125.836 16.5082 126.555 15.8652 127.288C13.7812 128 11.2002 128.252 8.19518 129.706C9.04418 126.639 10.0892 123.694 11.5112 120.897V120.897ZM14.8902 115.611C18.7642 115.762 22.5932 115.938 26.4562 116.317C25.3432 117.379 24.2282 118.438 23.1442 119.53C20.7692 118.438 15.6232 120.386 11.7072 120.502C12.5962 118.809 13.6512 117.179 14.8902 115.611V115.611ZM47.6692 98.9121C39.4052 101.672 29.4202 101.426 21.5812 106.317C9.86918 114.019 4.33618 127.988 5.01918 141.343C5.32718 141.432 5.57218 141.537 5.72818 140.212C23.8242 138.071 47.7732 120.275 45.7412 102.669C41.9952 109.23 40.8802 118.241 34.3672 123.703C38.8322 101.855 33.1122 115.723 34.0462 124.014C32.5612 125.411 30.8792 127.034 28.5132 128.858C29.3482 124.597 30.6332 118.208 30.2042 113.584C30.8412 113.06 31.5012 112.559 32.1512 112.048C32.1942 112.029 32.2242 112.002 32.2562 111.966C33.7612 110.788 35.2922 109.636 36.8182 108.478C36.7562 108.624 39.0392 108.131 37.6942 107.81C40.0312 106.026 42.3392 104.206 44.4842 102.21C45.2662 102.073 51.2732 100.182 47.6692 98.9121" fill="#C5DF5D"/>
<path fill-rule="evenodd" clip-rule="evenodd" d="M16.0537 128.812C14.8777 130.447 14.1407 134.059 13.5527 136.682C14.1647 135.473 16.8907 130.648 16.0537 128.812Z" fill="#C5DF5D"/>
<path fill-rule="evenodd" clip-rule="evenodd" d="M39.5959 106.844C38.2929 109.421 38.9579 112.72 39.0319 116.425C39.7479 115.772 40.7669 108.892 39.5959 106.844Z" fill="#C5DF5D"/>
<path fill-rule="evenodd" clip-rule="evenodd" d="M60.8119 124.75C58.3309 119.597 52.1159 116.022 46.4669 115.081C46.3369 115.262 47.1259 113.16 46.0069 113.555C43.5799 119.525 43.1839 128.344 46.2669 134.428C46.6539 139.195 66.6709 149.376 62.9549 145.861C46.6619 137.137 43.7509 131.438 46.3319 116.124C55.0299 119.04 60.6699 123.838 62.0459 133.572C61.2639 133.05 58.6579 132.47 57.7259 133.605C58.5489 133.603 60.3819 134.271 62.1099 133.856C62.2319 134.417 62.3139 134.987 62.4219 135.551C60.0279 135.505 58.1499 136.837 62.5839 136.429C62.9969 138.708 63.3439 141 63.5789 143.301C60.5759 137.205 56.3309 131.937 52.8009 125.669C60.4689 129.231 62.3609 126.24 52.5689 125.303C51.8249 124.115 51.0909 122.919 50.3179 121.753C62.1499 125.483 58.1619 122.701 49.8679 121.062C48.8949 119.614 47.8959 118.188 46.8519 116.804C46.7879 116.719 46.6689 116.804 46.7179 116.895C48.5889 120.388 50.7039 123.774 52.8119 127.152C53.6019 145.896 54.8389 134.278 53.1519 127.698C53.6899 128.562 54.2289 129.424 54.7599 130.289C54.6879 132.739 55.2319 137.79 55.8689 141.038C56.1269 138.326 56.2529 134.228 55.0329 130.729C55.7709 131.938 56.6059 133.248 57.9259 135.21C58.0519 137.484 58.6039 140.202 59.4159 143.555C60.0889 142.32 59.3479 139.557 58.9429 136.736C60.8899 139.677 62.7999 142.749 63.8189 145.806C63.9879 145.816 63.4739 146.827 64.3549 146.522C64.3669 146.478 64.4539 146.48 64.3849 146.213C65.1119 139.592 63.6779 130.78 60.8119 124.75" fill="#C5DF5D"/>
<path fill-rule="evenodd" clip-rule="evenodd" d="M50.6612 125.17C50.4032 128.188 50.9132 133.02 51.3862 136.713C51.7972 134.608 52.0232 127.311 50.6612 125.17" fill="#C5DF5D"/>
<path fill-rule="evenodd" clip-rule="evenodd" d="M48.5813 131.975C48.9443 129.676 50.5033 124.979 48.9673 122.344C49.4523 124.651 48.4983 129.376 48.5813 131.975Z" fill="#C5DF5D"/>
<path fill-rule="evenodd" clip-rule="evenodd" d="M55.6424 129.617C54.9884 130.967 63.2814 131.075 59.0474 129.768C57.8314 129.715 57.7304 129.546 55.6424 129.617Z" fill="#C5DF5D"/>
<path fill-rule="evenodd" clip-rule="evenodd" d="M166.027 134.831C166.002 134.783 165.964 134.739 165.937 134.691C162.188 121.73 152.42 108.712 138.096 112.169C138.04 112.384 138.019 110.146 137.12 110.915C137.01 117.372 139.797 125.677 144.856 130.234C146.754 134.534 169.961 136.853 164.337 134.841C146.108 132.527 141.546 128.52 138.343 113.188C147.378 112.712 154.604 115.357 159.223 123.773C158.593 123.534 155.588 123.969 155.217 125.356C155.982 125.057 157.926 125.02 159.384 124.015C159.7 124.493 159.98 124.994 160.284 125.479C158.04 126.295 156.771 128.209 160.75 126.237C161.951 128.209 163.097 130.215 164.141 132.272C159.092 127.623 153.35 124.333 147.788 119.743C156.199 120.303 156.883 116.842 147.44 119.485C146.321 118.648 145.21 117.799 144.072 116.992C156.415 116.213 151.708 115.058 143.406 116.51C141.98 115.514 140.54 114.545 139.072 113.634C138.982 113.578 138.902 113.699 138.98 113.766C141.975 116.343 145.157 118.733 148.33 121.118C155.795 138.267 152.774 127.017 148.841 121.504C149.653 122.114 150.464 122.723 151.268 123.336C157.506 138.153 157.476 132.107 151.68 123.648C152.8 124.507 154.048 125.425 155.979 126.776C156.983 128.944 158.548 131.44 160.361 134.002C160.606 133.725 160.52 133.976 160.185 132.834C159.324 130.801 158.927 130.288 157.473 127.831C160.34 129.866 163.218 132.038 165.263 134.515C165.424 134.465 165.31 135.588 166.02 134.989C166.045 134.941 166.056 134.888 166.027 134.831" fill="#FDE46B"/>
<path fill-rule="evenodd" clip-rule="evenodd" d="M150.624 130.436C149.582 127.531 147.915 122.983 145.915 119.91C145.677 121.959 148.985 128.228 150.624 130.436Z" fill="#FDE46B"/>
<path fill-rule="evenodd" clip-rule="evenodd" d="M143.211 117.908C143.736 119.614 145.366 124.786 146.127 127.122C145.702 124.689 145.35 120.626 143.211 117.908Z" fill="#FDE46B"/>
<path fill-rule="evenodd" clip-rule="evenodd" d="M151.849 122.393C151.743 123.16 156.245 122.709 156.583 121.307C155.508 120.99 154.375 121.431 151.849 122.393Z" fill="#FDE46B"/>
</svg>
