<svg width="198" height="191" viewBox="0 0 198 191" fill="none" xmlns="http://www.w3.org/2000/svg">
<g clip-path="url(#clip0_3_22778)">
<path d="M102.601 183.06C99.0009 186 95.2109 194.82 89.1909 189C62.2909 163 43.9209 122.69 34.7209 94.1595C16.9909 38.1595 34.0709 -11.1005 66.2009 2.15952C16.4609 40.0995 73.4909 152.46 102.601 183.06Z" fill="#FFBDE1"/>
<path d="M176.661 53.8895C172.351 100.469 125.181 155.89 106.601 178.63C220.521 38.1595 137.891 4.40949 107.521 37.1995C134.521 -4.70051 178.201 7.11949 176.661 53.8895V53.8895Z" fill="#FFBDE1"/>
<path d="M165.13 67.7295C160.2 109.929 131.13 145.559 106.6 178.629C105.29 180.119 103.95 181.629 102.6 183.059C66.4701 141.269 31.6001 60.6795 54.0501 15.7595C56.5001 10.8395 60.6201 5.16945 66.2001 2.18945C86.4001 12.9995 88.5501 38.8795 90.8301 59.6495C91.1901 62.1395 91.7101 65.6494 91.9401 69.0894C91.8935 69.5174 91.9959 69.9483 92.2301 70.3094C95.6901 59.2294 100.78 47.3095 107.44 37.3095C107.47 37.2719 107.497 37.2317 107.52 37.1895C137.85 9.59945 167.41 33.4695 165.13 67.7295V67.7295Z" fill="#FF99CC"/>
<path d="M74.0005 88.0792C73.9205 79.6692 83.8505 78.2992 85.8405 86.6492C89.0661 83.8543 91.8212 80.5589 94.0005 76.8892C87.8805 73.9992 86.2605 74.2492 79.3905 76.9992C74.3905 74.3492 84.9605 70.0892 87.6005 70.7092C90.6005 70.0792 94.6005 74.4892 96.4605 72.1992C96.5605 66.1992 102.76 61.7692 100.39 72.0692C99.1505 79.0692 106.94 71.3292 110.7 71.5292C115.43 76.7092 101.18 79.1692 98.7005 78.9092C96.0005 90.3092 90.1105 106.999 95.2105 112.589C108.53 105.919 116.21 61.0392 120.7 67.1792C121.1 77.1792 115.7 88.6792 115.35 99.7492C117.74 96.2292 126.26 88.5692 127.88 98.0992C128.99 101.779 121.79 114.549 131.46 108.099C132.46 107.099 134.54 106.529 134.73 104.659C127.58 77.4092 158.04 78.4792 140.73 104.759C145.13 106.419 150.49 103.099 154.13 99.6092C143.51 86.4592 166.7 81.2192 160.89 97.9092C163.12 99.1692 171.05 95.1692 169.42 101.179C164.35 105.389 147.14 123.789 166.92 114.759C173.34 123.639 137.92 126.969 162.3 102.159C160.65 102.519 158.43 100.159 156.66 102.789C151.66 107.469 145.05 111.079 137.85 108.159C136.95 108.629 136.77 109.079 135.14 110.399C129.39 115.719 121.23 115.529 122.46 106.259C122.19 104.209 125.46 99.1992 123 97.7492C118.89 100.439 116.58 105.859 115.13 111.159C108.62 124.979 110.73 99.0592 111.77 95.0892C95.0005 131.839 83.6905 116.999 92.5305 86.0692C91.0805 87.7592 87.5305 89.5292 86.1505 92.2592C86.1505 99.6792 77.3005 115.909 69.9305 104.689C67.1905 109.389 58.2205 120.799 54.0105 110.689C51.0105 100.689 61.4305 81.8992 56.4905 79.2292C48.0505 89.5492 46.4905 103.579 42.4905 116.349C41.4905 119.769 37.2605 118.999 38.4905 113.569C40.6005 88.2692 38.6505 59.4592 25.7605 99.2992C22.7605 107.129 24.5305 115.009 20.2905 122.229C12.0205 126.549 30.9205 52.8292 9.88047 82.4992C3.55047 91.4192 1.09047 112.499 11.9505 93.0692C12.0543 92.497 12.3845 91.9909 12.8663 91.6653C13.3481 91.3397 13.9409 91.2221 14.5105 91.3392C17.8305 93.6992 11.3905 102.209 8.51047 104.239C-17.3095 113.159 24.2105 37.2392 24.3005 89.7192C36.6005 62.7992 43.6005 76.9992 43.3005 97.8192C45.3005 92.0292 53.5805 65.7292 61.3005 78.0392C64.5905 84.1792 49.0505 124.909 64.7405 105.119C71.0005 99.4492 68.2205 85.5192 74.0005 88.0792V88.0792ZM74.4005 89.5792C69.4705 104.509 77.8405 111.709 81.7605 93.0592C78.8211 93.6321 75.8518 92.2205 74.4405 89.5792H74.4005ZM137.72 101.579C140.06 98.4992 143.26 93.0392 141.27 88.5792C138.07 90.6692 136.82 97.1492 137.76 101.589L137.72 101.579ZM80.2905 89.0992C84.0805 89.9592 80.1505 81.6392 78.1905 86.6192C78.0686 87.2396 78.2356 87.8817 78.6441 88.3642C79.0527 88.8466 79.6585 89.1171 80.2905 89.0992V89.0992ZM156.77 96.1892C157.29 95.6292 159.09 91.0492 156.27 91.5192C155 92.4292 155 94.8992 156.77 96.1892Z" fill="black"/>
<path d="M177.9 40.2596C161.09 60.8496 157.18 26.4096 164.07 28.5696C166.58 32.0496 163.55 36.7396 166.47 41.6696C174.47 48.1496 177.72 22.2796 182.7 29.5396C183.44 35.8496 181.6 43.1296 180.77 50.1796C193.31 48.0596 195.5 53.5696 180.01 54.7496C175.64 73.8096 158.57 80.0096 157.58 66.2496C162.84 49.2396 179.7 58.6996 177.9 40.2596V40.2596ZM175.16 55.8896C171.241 57.3355 167.61 59.4689 164.44 62.1896C154.36 75.0696 174.25 69.2496 175.16 55.8896Z" fill="black"/>
<path d="M143 139.089C130 152.819 124.52 124.879 131.93 126.619C133.69 130.409 132.29 145.749 140.6 135.209C142.97 132.789 141.73 127.649 145.48 126.139C150.11 127.139 146.26 140.979 146.48 144.309C144.21 149.869 157.59 144.569 159.7 148.309C161.29 153.889 148.44 149.219 145.25 151.309C143.16 157.579 139.25 166.149 130.97 165.619C114.74 161.409 131.63 147.389 141.13 147.559C143.05 146.339 142.42 141.999 143 139.089ZM140.83 151.729C137.15 152.519 133.06 153.499 129.99 156.579C126.36 159.639 130.8 163.579 135.17 160.479C137.71 158.699 139.76 155.189 140.86 151.729H140.83Z" fill="black"/>
<path d="M193.461 112.268C193.191 106.268 189.961 100.728 185.571 95.9684C183.651 90.7384 175.241 106.208 174.101 98.2484C175.721 95.4584 180.371 93.7184 181.881 90.6484C179.221 85.9284 178.161 79.1284 182.331 74.5584C195.331 64.1284 196.261 83.5584 187.401 90.8784C187.091 93.2484 192.141 96.4484 193.671 99.8784C206.821 119.818 181.781 138.268 174.381 116.458C173.591 115.288 174.991 111.678 177.381 113.568C181.701 126.198 191.201 124.168 193.461 112.268V112.268ZM184.901 87.5984C186.837 85.2583 188.343 82.5938 189.351 79.7284C189.531 69.0984 180.001 82.0884 184.901 87.5984Z" fill="black"/>
<path d="M43.0005 37.5594C42.3405 40.9794 43.3805 77.0894 37.7605 63.3294C37.8105 59.1594 38.4205 53.4294 38.2305 48.7694C34.6105 48.6894 27.3805 47.5794 24.0505 48.4694C22.8505 52.8494 25.5605 66.4094 20.1105 64.7194C17.4505 58.8094 20.8205 49.4194 20.4005 42.4594C21.6305 37.9994 19.7705 23.9994 24.9205 26.5894C27.6605 43.5094 16.7805 46.2894 38.6205 44.0294C39.3905 38.4594 38.5505 32.0294 40.6205 26.4894C45.3705 24.2594 42.8405 34.5494 43.0005 37.5594V37.5594Z" fill="black"/>
<path d="M78.2102 64.0598C73.2102 73.7598 74.0202 52.2298 71.4002 50.7598C68.1102 51.6198 62.0702 47.1398 62.0402 53.7598C60.2302 57.5498 61.2302 67.3698 56.5402 65.8698C55.0002 58.3098 59.8902 48.4398 61.1102 40.3698C72.4002 0.339762 76.5702 52.6998 78.2102 64.0598ZM68.6602 30.8498C66.2202 35.7098 65.1402 40.9598 63.8302 46.1498C66.3962 46.7187 69.0395 46.8539 71.6502 46.5498C70.8902 41.2898 70.5602 35.9998 68.6602 30.8498V30.8498Z" fill="black"/>
<path d="M107.881 158.219C108.721 160.219 106.271 164.159 104.181 160.979C102.931 156.859 104.101 151.849 102.691 147.699C100.341 147.699 96.6908 147.269 94.0708 147.939C93.2308 152.079 92.8508 156.619 91.9508 161.339C91.5408 162.339 90.5808 163.689 88.9508 162.549C88.8308 116.349 105.811 107.349 107.881 158.219ZM98.5708 128.219C96.9208 132.309 90.3208 146.779 99.3808 143.789C106.001 145.499 99.9408 131.149 98.5708 128.179V128.219Z" fill="black"/>
<path d="M53.8904 148.999C52.2104 131.719 59.8904 113.309 72.7204 133.999C78.5404 149.059 69.3404 160.519 55.2204 162.159C52.5604 159.619 54.5304 153.149 53.8904 148.999ZM57.7804 157.599C79.5604 151.799 68.1904 124.429 60.1304 130.179C56.8804 138.339 58.3104 148.409 57.7804 157.639V157.599Z" fill="black"/>
<path d="M128.141 52.3084C126.001 13.9984 146.701 24.5684 145.601 36.6484C144.901 44.7284 139.321 48.4084 132.311 50.1884C133.121 69.2084 127.141 72.2284 128.141 52.3084V52.3084ZM132.461 45.5884C135.412 45.4434 138.119 43.9026 139.751 41.4384C146.591 25.5484 129.711 25.1184 132.461 45.5884Z" fill="black"/>
<path d="M95.2401 52.999C94.7601 11.539 113 24.259 113.31 34.919C113.42 42.179 107.91 46.989 99.9001 47.069C98.4301 52.069 100.7 59.199 97.9001 64.439C93.2801 66.289 95.8301 55.719 95.2401 52.999V52.999ZM100.09 41.249C100.02 42.999 100.42 43.119 102.7 42.759C119 37.469 100.31 14.999 100.09 41.229V41.249Z" fill="black"/>
<path d="M176.81 83.7788C176.22 93.4788 169.87 93.8588 172.87 82.1888C169.3 73.2088 176.87 75.4788 176.81 83.7788Z" fill="black"/>
</g>
<defs>
<clipPath id="clip0_3_22778">
<rect width="198" height="191" fill="white"/>
</clipPath>
</defs>
</svg>
