<svg width="160" height="154" viewBox="0 0 160 154" fill="none" xmlns="http://www.w3.org/2000/svg">
<path d="M146.64 11.0009C145.79 10.6009 149.77 9.34087 149.71 6.94087C149.08 7.42087 147.07 7.66087 147.14 5.66087C151.74 0.000872493 151.78 10.7209 146.64 11.0009Z" fill="#4D4876"/>
<path d="M84.7396 37.59C72.4196 37 87.6496 15.4499 87.9996 7.72995C85.8996 -1.62005 69.8896 19.9999 67.1896 24.7599C68.0196 20.6999 74.8896 6.75995 68.9296 4.51995C63.6096 1.28995 54.0796 20.8099 54.6096 17.2999C55.6544 14.653 56.3763 11.8897 56.7596 9.06995C59.2296 -10.5801 24.1796 5.13995 29.2696 23.6399C35.6496 38.2099 56.4496 16.5699 42.4396 14.9999C40.4396 15.2499 41.4396 15.9999 42.2296 15.8699C47.8596 15.2899 45.8196 22.8699 41.4796 26.1999C35.9996 29.8399 29.9196 26.9999 30.9996 18.7699C33.4896 1.51995 72.5596 -17.74 44.2796 35.27C47.4996 40.39 52.7096 22.1699 54.5696 20.3899C55.1196 18.3299 70.9996 -6.23005 68.3196 12.2399C67.0026 19.7489 64.3471 26.9602 60.4796 33.5299C61.2396 42.9199 77.8196 3.89995 84.9196 7.87995C86.6596 14.1099 68.0096 36.16 84.0796 38.25C85.9996 38.13 85.7396 37.56 84.7396 37.59V37.59Z" fill="#4D4876"/>
<path d="M142.13 25.5409C141.26 27.3209 138.69 32.5409 137 32.4609C134.08 31.1809 140.86 22.5609 140.23 20.2809C138.33 20.4756 136.418 20.5324 134.51 20.4509C136.59 19.4509 138.03 15.2409 135.4 14.9109C133.21 17.7309 132.4 23.8009 130 28.3709C126.88 32.7109 121 36.2409 123 27.1609C126.82 27.6409 134.44 20.3909 129.63 18.9109C126.29 18.2909 122.57 21.9909 120.96 25.9109C120.09 27.0109 119.48 29.5009 117.96 31.0109C110.2 38.4009 119.41 20.0109 119.87 20.0109C118.46 19.5209 114.19 22.1209 112.21 23.9109C110.978 25.0154 109.853 26.2342 108.85 27.5509C112.25 20.6309 117.63 10.4909 119.45 8.63091C115.16 7.22091 111.28 16.9809 107.45 25.5609C107.412 25.6149 107.379 25.6718 107.35 25.7309C107.323 25.8262 107.289 25.9197 107.25 26.0109L106.98 26.6209C105.36 29.9309 100.36 36.0209 100.32 29.8209C100.32 29.8209 100.9 26.6809 101.32 25.6009C103.5 23.6263 105.356 21.3216 106.82 18.7709H109.23C110.4 17.2809 107.77 18.0409 107.32 17.8609C114.8 3.36091 104.87 8.30091 101.82 17.8609C99.4401 17.4509 97.0301 19.0909 101.4 18.7709C100.307 21.1634 99.4565 23.6592 98.8601 26.2209C97.0701 28.9409 94.5501 35.0509 91.4201 31.5209C96.4201 27.5209 98.1201 15.8609 90.2401 19.8509C83.7101 22.8509 80.8801 38.0409 90.6401 32.1809C91.3159 32.9215 92.2893 33.3182 93.2901 33.2609C95.0501 33.2609 97.1001 31.0809 98.4101 28.9609C98.0601 32.6309 99.1601 35.1109 103.89 32.4309C104.17 32.1509 104.43 31.8809 104.67 31.6009C104.24 32.4209 103.82 33.1909 103.39 33.8809C103.831 33.6781 104.316 33.592 104.8 33.6309C109.65 30.7709 109.57 24.4909 114.99 22.9509C116.76 24.1909 108.27 32.9509 114.99 33.7609C116.77 33.6209 118.75 31.6109 120.13 29.3509C120.06 31.6209 121.13 33.4609 124.06 33.7609C125.556 33.723 126.974 33.0894 128 32.0009C128.086 32.0053 128.17 31.9725 128.23 31.9109C128.43 31.7009 128.63 31.4609 128.83 31.2109C130.212 29.8637 131.21 28.1722 131.72 26.3109C132.57 24.5209 133.28 22.7309 133.72 21.4309C142.56 20.7809 127.92 32.5609 136.61 33.4809C138.56 33.6109 144 25.0709 142.13 25.5409V25.5409ZM125.74 22.5409C133.86 14.2309 128.64 27.1809 123.25 26.4309C123.959 25.0669 124.793 23.7714 125.74 22.5609V22.5409ZM107.27 11.7409C109.84 8.14091 109.27 11.8209 108.47 13.5609C107.855 15.0033 107.164 16.4119 106.4 17.7809H104.33C105.139 15.6951 106.123 13.6813 107.27 11.7609V11.7409ZM103.92 18.7409H105.86C104.678 20.7284 103.276 22.5767 101.68 24.2509C102.26 22.7709 103.05 20.7409 103.92 18.7109V18.7409ZM89.5101 29.5209C89.5312 30.2375 89.7605 30.9325 90.1701 31.5209C89.435 32.2654 88.4003 32.6336 87.3601 32.5209C85.8701 32.0609 86.2401 29.1709 87.8501 25.7709C89.4601 22.3709 91.9501 19.8509 93.7301 20.3509C95.9601 20.6409 93.5901 27.8209 92.1201 29.3509C92.2901 26.6209 89.2001 28.1109 89.5101 29.5209V29.5209Z" fill="#4D4876"/>
<path d="M152.15 32.7509C159.15 28.5309 150.06 22.0909 154.47 18.0109C154.89 17.821 155.371 17.821 155.79 18.0109C154.05 13.2809 148.68 25.2509 147.43 27.8209C144.2 28.6409 146.18 35.4109 151.2 33.2409C155.88 34.6509 158.36 29.1009 159.89 25.6709C157.89 25.5309 156.15 34.2209 152.15 32.7509ZM148.38 29.7509C148.374 30.9833 148.981 32.1381 150 32.8309C147.71 33.6509 147.2 30.8009 148.38 29.7209V29.7509ZM150.74 32.4909C149.566 31.8651 148.88 30.5965 149 29.2709C149 27.9009 148.13 27.9409 148.13 27.9409C149.13 26.1209 150.91 22.5209 152.02 20.2809C151.89 23.3809 153.72 30.5309 150.74 32.4609V32.4909Z" fill="#4D4876"/>
<path d="M115.45 54.5407H115.35C113.95 54.6307 115.23 38.5407 114.81 37.8907C130.51 33.5107 131.59 56.8507 115.45 54.5407ZM118.63 53.3407C130.57 52.0007 126.72 36.5907 116 38.5107V53.3407H118.63Z" fill="#4D4876"/>
<path d="M140.35 50.09H132.49L131 54.15C130.93 54.28 130.93 54.42 130.22 54.52C129.913 54.3908 129.759 54.0445 129.87 53.73L135.87 37.73C135.96 37.73 136.27 36.94 137.06 37.73L143.06 53.73C143.185 54.0366 143.043 54.3872 142.74 54.52C142.33 54.52 142.58 54.66 141.95 54.15L140.35 50.09ZM132.93 48.88H139.93L136.46 39.62L132.93 48.88Z" fill="#4D4876"/>
<path d="M149.7 46.2698L143.91 38.3598C143.735 38.0904 143.791 37.733 144.04 37.5298C144.157 37.42 144.316 37.3668 144.475 37.3841C144.635 37.4014 144.779 37.4875 144.87 37.6198L150.27 45.0398L155.69 37.6198C155.781 37.4875 155.925 37.4014 156.084 37.3841C156.244 37.3668 156.403 37.42 156.52 37.5298C157.8 37.6198 150.78 46.0798 150.88 46.2198C151.42 58.9998 149.11 54.9998 149.7 46.2698V46.2698Z" fill="#4D4876"/>
<path d="M81.8204 62.2491C78.0404 59.0291 74.4504 59.2491 69.2304 60.7891C80.9004 45.1591 61.1204 35.3391 54.0904 53.5091C53.1704 52.1691 52.0904 50.6191 50.4104 48.5891C39.8204 40.5891 30.6804 54.5191 40.4104 63.2991C20.0304 70.0791 27.4104 88.5291 40.5604 83.1091C40.2604 84.9191 40.0604 86.1091 39.4204 90.2991C39.0103 91.8084 39.0103 93.3998 39.4204 94.9091C45.5804 108.049 57.8404 99.9091 57.4204 87.0591C69.9704 105.479 87.8404 90.2291 72.3504 77.7591C79.8304 77.9991 88.7504 69.5391 81.8204 62.2491V62.2491Z" fill="#CB93B6"/>
<path d="M71.1099 66.4905C69.1099 64.8905 66.9899 64.5805 63.7299 65.6405C70.2899 57.3605 59.5699 50.0605 54.8399 61.3705C54.2999 60.5705 53.7799 59.8505 52.6799 58.4805C52.2433 58.0177 51.6962 57.6736 51.0899 57.4805C45.7399 55.4005 41.4999 62.2705 46.7899 67.1305C39.7899 67.9005 34.7899 81.5705 46.8799 78.7505C46.6999 79.8405 46.5099 80.9705 46.2099 82.9705C45.9699 83.8579 45.9699 84.7931 46.2099 85.6805C49.6699 93.1005 57.0499 88.8205 56.7799 81.0705C62.0199 90.3705 75.5499 84.9005 65.5499 75.6105C69.5499 75.7805 75.2499 71.0005 71.1099 66.4905V66.4905Z" fill="#BE5C84"/>
<path d="M122.36 82.2904C120.36 79.6004 117.36 79.0104 113.61 79.4004C124 70.5404 112 59.7704 103.9 72.0004C103.43 70.9004 102.99 69.9004 102 68.0004C101.59 67.3185 101.011 66.7536 100.32 66.3604C94.1696 62.4504 87.5196 69.9404 92.6996 77.0004C81.6896 77.0004 75.9996 91.7004 89.9096 91.0904C89.4096 92.3604 88.9096 93.6904 88.0396 96.0904C87.5264 97.1039 87.295 98.2368 87.3696 99.3704C89.7896 109.37 99.6996 105.83 101.37 96.4304C106.29 109.99 122.85 104.79 113.37 91.9904C118.41 93.1904 126.21 88.6104 122.36 82.2904V82.2904Z" fill="#CB93B6"/>
<path d="M114.11 83.7401C113.04 82.4301 111.47 81.7401 108.98 82.0501C114.59 77.6401 108.77 70.0501 103.29 77.7101C103.03 77.1101 102.9 76.8201 102.17 75.3401C101.927 74.9278 101.583 74.5838 101.17 74.3401C98.2303 72.2701 93.4703 75.7501 96.7103 80.5801C91.8003 80.0001 86.0003 89.0001 95.0803 88.9001C94.9403 89.2601 94.8003 89.5901 93.9903 91.8101C93.6848 92.4018 93.5465 93.0657 93.5903 93.7301C94.7903 98.6301 100.59 98.5201 101.79 92.0001C103.79 99.0001 114.61 97.8901 108.79 89.4001C111.39 90.0801 116.44 87.7001 114.11 83.7401V83.7401Z" fill="#BE5C84"/>
<path d="M86.5395 117.581C85.4695 114.971 83.7595 113.801 80.2795 113.081C90.4795 108.841 84.2795 96.9006 74.3895 104.751C74.2895 103.751 74.1795 102.841 73.8795 101.041C73.7388 100.398 73.4358 99.8026 72.9995 99.3106C69.1695 94.6506 61.8395 99.0506 64.2495 105.901C56.8495 103.081 46.4595 113.081 58.4795 116.461C57.7695 117.361 57.0295 118.291 55.7495 119.951C55.0889 120.634 54.6198 121.479 54.3895 122.401C53.7895 130.871 62.6295 130.701 66.2895 123.551C66.2895 134.551 81.2895 136.551 76.9695 123.021C80.3795 125.191 87.9995 123.731 86.5395 117.581V117.581Z" fill="#CB93B6"/>
<path d="M79.6499 116.679C79.0215 115.18 77.6181 114.15 75.9999 113.999C81.2899 112.239 79.2499 104.199 72.5199 109.079C72.5199 108.529 72.4399 108.259 72.2199 106.889C72.1272 106.513 71.9376 106.169 71.6699 105.889C69.9299 103.529 64.9399 105.269 66.5099 109.769C62.6299 108.039 55.8899 113.879 63.1099 116.009C62.8999 116.269 62.4299 116.859 61.4999 118.069C61.1062 118.468 60.8265 118.966 60.6899 119.509C60.4199 123.589 65.0199 125.229 67.6899 120.189C67.3599 125.879 76.3399 128.489 73.9899 119.879C75.7599 120.999 80.4299 120.669 79.6499 116.679V116.679Z" fill="#BE5C84"/>
<path d="M34.4203 100C33.5103 100.32 32.5903 100.67 31.6803 101C15.0503 105.34 9.10031 122.11 9.07031 136.9C15.9903 139.84 30.5303 125.98 32.4103 120.9C35.0003 115 39.0003 100.16 34.4203 100V100Z" fill="#948DC0"/>
<path d="M33.48 95.1892C33.09 94.5292 32.68 93.8592 32.25 93.1892C27.1 81.6692 12.13 78.1591 0.5 81.0691C0.79 88.1691 11.68 95.7791 18.05 97.0691C23.26 97.7091 33.4 98.8992 33.48 95.1892V95.1892Z" fill="#948DC0"/>
<path d="M34.6304 53.1995C34.7004 52.2595 34.7404 51.2995 34.7604 50.3295C37.2204 33.6895 24.4704 21.9195 11.1304 16.1895C5.61038 21.6495 13.1304 40.8795 17.3904 44.2595C21.5904 48.3895 33.1904 57.2295 34.6304 53.1995V53.1995Z" fill="#948DC0"/>
<path d="M30.43 57.1193C29.88 56.7693 29.31 56.4193 28.73 56.1193C20.52 49.4793 7.73 52.3594 0 59.1193C5 68.2093 28.76 65.6793 30.43 57.1193Z" fill="#948DC0"/>
<path d="M78.2699 57.4795C78.8699 57.5595 79.4899 57.6195 80.1099 57.6795C89.4199 59.9995 99.2399 52.5295 103 43.7995C95.1499 38.3395 76.5499 49.2595 78.2699 57.4795Z" fill="#948DC0"/>
<path d="M121.83 78.4691C122.46 78.5491 123.11 78.6191 123.75 78.6791C133.61 81.1191 143.8 73.2591 147.7 64.1291C139.51 58.2591 119.8 70.2291 121.83 78.4691V78.4691Z" fill="#948DC0"/>
<path d="M124.88 84.5499C125.11 84.9799 125.37 85.4099 125.63 85.8399C128.46 92.8399 138.44 96.2899 145.81 93.8399C144.77 86.1599 129.89 79.5599 124.88 84.5499V84.5499Z" fill="#948DC0"/>
<path d="M100.41 106C100.33 106.48 100.26 107 100.2 107.48C98.0798 114.59 103.82 123.71 111.05 126.31C115 119.56 107.46 105.14 100.41 106Z" fill="#948DC0"/>
<path d="M79.5801 131.999C79.7801 132.446 79.9901 132.896 80.2101 133.349C82.3701 140.559 92.0501 144.959 99.5601 143.249C99.2401 135.459 85.0501 127.499 79.5801 131.999Z" fill="#948DC0"/>
<path d="M76.9001 135.539C76.7201 135.889 76.5401 136.239 76.3701 136.609C72.9801 141.449 74.9601 149.679 79.8001 153.609C84.3301 149.599 82.6301 136.999 76.9001 135.539Z" fill="#948DC0"/>
<path d="M50.6997 122C50.2797 122 49.8497 122 49.4297 122.08C43.1997 121.53 36.6197 127.76 35.7197 134.21C41.8697 136.3 52.6397 127.63 50.6997 122Z" fill="#948DC0"/>
<path d="M144.71 68.6594C143.82 68.3394 143.92 68.2194 141.2 68.0294C148.92 63.1194 142.27 65.6094 136.37 69.2294C140.94 61.4494 139.37 60.9393 135.2 69.8393L126 74.6594C127 72.2694 128.87 70.1594 130.36 66.3794C128.63 66.8894 126.54 71.5994 124.9 75.2494C116.46 79.6994 122.56 78.3794 129.15 74.3194C132.56 76.4194 147.66 78.6094 129.91 73.9194C132.69 72.4794 136.52 70.4694 140.18 68.5494C140.63 68.5194 143.63 69.7094 144.71 68.6594V68.6594Z" fill="#4D4876"/>
<path d="M100.85 44.0695C98.1998 45.1995 94.7498 47.7495 91.0698 49.4095C93.2298 45.2995 94.6798 36.5295 89.9998 49.9995C87.5098 51.3195 84.6098 52.8195 81.3398 54.5695C81.4498 52.7895 83.3398 50.5095 83.5898 48.3095C81.9798 49.3095 80.5898 51.8695 80.7698 54.8695C73.4898 59.0795 81.3298 55.9495 85.2698 53.5595C85.7498 53.5595 92.1698 58.3295 92.8198 55.6495C90.4898 54.9995 89.1798 54.2495 86.0598 53.1595L90.0598 51.0595C90.0888 51.0702 90.1207 51.0702 90.1498 51.0595L95.2398 48.4295C96.0698 48.0595 99.2398 49.8195 99.7398 48.6395C99.0598 48.0395 98.7398 47.8495 96.7398 47.6395C97.2298 46.9995 101.09 46.1095 100.85 44.0695V44.0695Z" fill="#4D4876"/>
<path d="M145 92.6903C144.19 92.3503 142.51 91.7503 140.27 90.8403C140.57 90.4303 144.03 90.2003 144.34 88.5203C143.08 88.7503 143.16 88.5203 139.57 90.5203C137.57 89.6603 135.48 88.6903 132.72 87.2803C136.23 86.7803 145.79 80.5903 132.02 86.9303C130.13 86.2603 128.27 84.4903 124.72 83.5703C125.47 84.2603 125.33 84.2103 127.91 85.5703C127.91 86.5703 128.65 91.4103 130.47 91.4503C129.88 89.4688 129.114 87.5444 128.18 85.7003C130.41 86.8803 132.75 88.2203 135.94 89.7003C135.74 89.7003 138.45 96.4803 138.44 93.5303C138.01 92.5803 138.21 93.2503 136.84 90.1403C138.77 90.7303 142.48 93.7603 145 92.6903V92.6903Z" fill="#4D4876"/>
<path d="M37.14 109.659C36.6545 107.585 35.9367 105.573 35 103.659C35.82 103.399 37.7 98.4094 35.42 100.659C34.89 101.449 34.22 102.409 33.09 104.049C32.86 103.959 32.79 103.779 32.37 104.139C23.5 104.769 10.58 107.139 32.42 104.999C31.01 106.999 28.73 110.289 26.75 113.109C22.42 113.729 16.68 113.779 12.13 115.549C16.25 115.659 20.87 114.609 26.05 114.099C23.57 117.619 21.08 121.139 18.58 124.659C15.4381 124.873 12.4072 125.908 9.79004 127.659C11.84 127.359 14.49 126.279 17.9 125.659C16.7 127.789 13.33 131.069 12.59 134.129C15.83 131.129 18.25 126.999 21.59 122.709C22.8 125.119 22.12 129.499 23.59 132.499C24.54 129.589 23.76 125.649 22.14 121.939C23.96 119.439 27.14 115.119 29.33 111.939C30.24 115.229 31.06 119.009 31.98 123.219C34.61 124.989 30.82 113.729 29.9 111.129C31.1 109.419 33.03 106.659 34.72 104.209C35.29 105.709 35.52 108.269 36.87 110.819C37.16 110.559 37.13 110.669 37.14 109.659V109.659Z" fill="#4D4876"/>
<path d="M51.2097 122.239C51.2097 122.149 50.4097 122.239 50.6497 122.789C50.6497 122.789 50.6497 122.859 50.7097 122.879H50.5497C50.1497 123.179 50.6397 122.809 48.8597 124.069C49.1097 123.829 43.9397 122.409 46.4497 123.799C46.7297 123.919 46.9397 123.959 48.2597 124.499C47.3897 125.109 46.6397 125.649 45.1597 126.729C44.1597 126.319 42.0697 125.019 40.3497 125.729C41.2897 126.319 41.7297 126.429 44.4697 127.259C43.3997 128.039 41.9197 129.129 40.0697 130.579C39.4897 129.409 34.1897 130.819 39.7097 130.889C37.1797 132.639 36.0997 134.889 41.5097 130.519C41.1097 132.029 42.5097 134.749 42.2897 129.939C43.5297 129.039 45.0397 127.939 47.1597 126.409C47.3397 126.059 46.2697 131.469 47.7797 129.529C47.8878 128.335 47.8878 127.134 47.7797 125.939C48.2297 125.269 52.2397 123.609 51.2097 122.239V122.239Z" fill="#4D4876"/>
<path d="M82.0002 141.999C80.842 141.032 79.608 140.159 78.3102 139.389C78.5802 138.269 76.6302 130.389 77.3102 137.919C76.4302 138.759 76.4702 138.799 74.6602 142.039C74.7202 142.159 74.4602 142.609 75.0402 142.329C75.7502 141.669 75.8902 141.229 77.4402 138.949C77.5702 139.889 77.8102 141.669 78.1302 143.749C77.1788 145.163 76.3009 146.625 75.5002 148.129C75.8302 148.919 76.9802 146.779 78.3202 144.869C78.4702 145.869 78.5102 146.139 78.9502 148.769C77.6802 149.119 76.7202 152.529 79.0502 149.309C79.7302 152.899 80.0502 151.079 79.2802 146.759C81.0902 148.309 83.3602 148.169 79.1702 145.899C79.0002 144.549 78.8602 143.569 78.4902 140.489C78.4802 140.219 81.1902 142.769 82.0002 141.999V141.999Z" fill="#4D4876"/>
<path d="M111.09 120.051C109.885 119.252 108.585 118.607 107.22 118.131C106.22 116.131 105.22 114.131 103.85 111.211C106.01 111.301 108.42 113.661 111.02 113.911C109.69 112.441 106.75 111.111 103.58 110.661C102.93 109.451 102.12 107.311 100.86 105.311C100.14 105.521 101.03 106.951 101.86 108.721C101.31 109.781 99.6802 122.981 102.25 109.561C103.07 111.331 104.17 113.651 105.44 116.261C104.5 118.701 104.65 127.111 105.87 117.131C107.11 120.761 113.8 131.371 107.35 118.381C107 118.621 114 122.711 111.09 120.051V120.051Z" fill="#4D4876"/>
<path d="M96.4695 140.49C95.6195 140.09 94.1495 139.4 92.1995 138.37C92.8295 137.97 96.6696 138.45 97.2996 136.86C95.3793 136.667 93.4505 137.133 91.8295 138.18C91.2495 137.87 90.1395 137.29 88.8295 136.56C88.7695 136.5 88.8295 136.56 88.6795 136.47C87.5795 135.85 86.4896 135.21 85.4096 134.54C86.6796 133.54 90.9395 133.82 91.8495 132.01C89.3914 132.249 87.0086 132.991 84.8495 134.19C83.6395 133.19 75.5895 128.19 81.7895 133.03C81.8479 134.773 82.144 136.498 82.6695 138.16C83.8395 138.72 82.7895 136.46 82.2895 133.42C83.8995 134.61 85.9995 136.04 88.5395 137.57C89.1095 139.04 89.6295 140.95 90.4695 143.31C92.1595 143.72 90.1596 140.31 89.5496 138.16C91.2496 139.08 91.7495 139.46 94.8195 140.9C95.2595 141.23 95.2095 143.38 96.3195 144.06C96.5395 143.23 96.4095 143.06 95.6695 141.31C97.1795 142.49 100.15 142 96.4695 140.49V140.49Z" fill="#4D4876"/>
<path d="M34.0995 52.5396C32.7695 50.5396 31.3395 48.2796 29.3595 45.2196C33.5495 35.9196 32.4695 23.2196 28.9895 44.6496C26.9895 41.4996 24.3095 37.5596 21.7295 33.6996C21.6795 33.6996 26.4995 22.6196 23.9795 24.0196L23.8995 24.2296C23.6995 24.2796 23.8295 24.2296 23.7995 24.5196C22.7685 27.3423 21.9594 30.2411 21.3795 33.1896C19.6995 30.7196 18.6295 29.1096 16.3795 25.5996C17.0795 24.2696 18.9895 21.5996 19.0095 19.5996C17.6895 20.5996 16.7695 22.9096 16.2495 25.4296C15.4495 24.5696 14.3895 21.5296 12.7995 21.0596C13.7395 23.7896 15.7995 26.3696 17.7395 29.8496C13.2995 28.4396 6.02946 28.8496 18.1995 30.6296C19.6795 33.1596 21.4095 36.0896 23.4195 39.3396C13.1195 39.2196 12.7795 38.9896 13.9495 39.2496C20.5895 39.1796 16.1195 37.8896 12.7795 38.9896C16.6266 39.3549 20.4519 39.9224 24.2395 40.6896C25.5095 42.7496 27.5795 46.0696 29.4595 48.9396C24.7295 48.5896 16.5595 48.3096 30.4595 50.4296C30.4695 51.2396 35.9995 58.2096 34.0995 52.5396V52.5396Z" fill="#4D4876"/>
<path d="M32.5702 94.4003C31.0249 93.6871 29.4388 93.0661 27.8202 92.5403C26.7602 89.2903 17.6202 74.6203 26.3402 92.0403C23.4302 91.1203 20.4802 90.3403 17.6002 89.3003C16.9902 86.5203 6.68016 71.3003 16.3302 88.8103C11.9867 87.0744 7.75524 85.0706 3.66016 82.8103C4.39016 84.1603 7.52016 85.5103 10.0002 87.0003C5.53016 87.3403 1.16016 88.5203 10.9402 87.7203C10.9902 87.7203 11.0202 87.8003 11.3502 87.7203C13.2502 88.7203 15.4302 89.7203 18.3502 90.9303C13.9702 91.9303 4.64016 96.1103 20.1902 91.6503C22.6002 92.5703 25.5602 93.5603 28.7902 94.7203C25.2602 96.0503 18.6302 100.64 29.9302 95.1603C30.3802 95.8303 35.5902 96.9103 32.5702 94.4003V94.4003Z" fill="#4D4876"/>
<path d="M30.9999 57.6897C28.7813 57.5077 26.553 57.4743 24.3299 57.5897C22.9399 56.0697 21.1699 53.8097 18.0299 52.6797C18.8199 53.9397 21.3099 55.2897 22.9499 57.6097C20.8099 57.6097 18.2199 57.6097 15.0999 57.8197C13.6199 56.2297 2.77988 49.9797 13.7399 57.8797C11.0699 58.2697 6.42988 57.6197 3.62988 59.1497C5.44545 59.3294 7.27432 59.3294 9.08988 59.1497C8.70988 59.8197 5.60988 61.3997 5.76988 63.1497C7.36628 62.0068 8.80823 60.6623 10.0599 59.1497C12.8299 59.0097 15.8699 58.8697 19.4799 58.8097C15.3099 64.0497 15.0199 68.9897 20.1299 58.8097H23.7999C24.1399 59.0097 24.0399 59.1897 24.6899 58.8097C25.3399 58.4297 31.9999 60.0897 30.9999 57.6897V57.6897Z" fill="#4D4876"/>
<path d="M59.7802 70.2891C58.9802 63.6991 50.1102 65.6791 50.7802 72.8091C50.8502 73.4091 50.9102 73.7291 51.8402 74.8891C52.3059 75.9698 53.2493 76.771 54.3911 77.0555C55.5329 77.34 56.742 77.075 57.6602 76.3391C58.4117 76.1182 59.0469 75.6122 59.4302 74.9291C59.5202 74.5191 59.9102 75.0191 59.9902 72.9891C60.2809 72.0969 60.2053 71.1257 59.7802 70.2891V70.2891ZM56.9202 73.5091C56.8172 73.6507 56.6999 73.7814 56.5702 73.8991C56.2555 73.6994 55.9918 73.4289 55.8002 73.1091C56.0929 72.6102 56.6782 72.3622 57.2402 72.4991L57.3602 72.5591C57.2704 72.8991 57.1214 73.2207 56.9202 73.5091V73.5091ZM54.0802 68.9991C54.8187 68.4821 55.7395 68.2973 56.6202 68.4891C55.7478 68.4861 54.8839 68.6596 54.0802 68.9991ZM53.3502 68.5591C54.3502 67.6691 55.8102 66.1691 57.6902 68.1991C56.5402 67.7491 54.2502 67.2591 52.9702 69.5491C52.7402 69.6791 52.5202 69.8291 52.3202 69.9691C52.6068 69.4602 52.9525 68.9869 53.3502 68.5591Z" fill="white"/>
<path d="M105.87 87.1592C106.347 86.384 106.469 85.4409 106.203 84.5702C105.937 83.6994 105.309 82.9851 104.48 82.6092C101.4 79.9792 94.6198 85.6092 99.7098 88.8392C99.9644 89.5342 100.556 90.0516 101.278 90.2115C102.001 90.3714 102.756 90.1519 103.28 89.6292C104.147 89.7493 104.971 89.2181 105.22 88.3792C105.514 88.0186 105.734 87.6042 105.87 87.1592ZM101.48 86.4092C101.583 86.1338 101.803 85.918 102.08 85.8192C101.739 86.264 101.537 86.7999 101.5 87.3592C101.358 87.0599 101.35 86.7142 101.48 86.4092ZM103 87.7592C102.7 87.6192 103.72 85.7592 103.64 87.2792C103.452 87.4703 103.236 87.6321 103 87.7592ZM104.69 85.5692V85.6892C104.354 85.2164 103.913 84.8293 103.4 84.5592C103.5 84.5137 103.603 84.4769 103.71 84.4492C104.155 84.6851 104.49 85.0877 104.64 85.5692H104.69ZM98.9998 84.9992C99.4438 84.0063 100.316 83.27 101.37 82.9992C100.839 83.3538 100.408 83.8394 100.12 84.4092C99.6116 85.219 99.4495 86.1988 99.6698 87.1292C99.6311 87.29 99.6076 87.454 99.5998 87.6192C98.8572 86.9657 98.6156 85.9107 98.9998 84.9992V84.9992Z" fill="white"/>
<path d="M72.8598 116.12C72.8598 109.77 62.1498 113.41 67.8598 118.79C69.0598 120.23 71.9598 119.33 72.6498 117.01C72.8012 116.739 72.874 116.431 72.8598 116.12ZM68.6398 115.06C69.0498 114.67 68.8598 114.53 69.9898 114.3C69.4364 114.494 68.9689 114.876 68.6698 115.38C68.645 115.275 68.6349 115.168 68.6398 115.06Z" fill="white"/>
<path d="M108.88 58.21C109.04 58.41 109.05 58.41 108.88 58.21C108.82 58.1001 108.73 58.0098 108.62 57.95C107.99 57.66 108.09 57.25 105.44 57.64C105.82 49.72 95.9699 64.82 108.71 60.17C108.829 60.0783 108.928 59.9625 109 59.83C109.173 59.4233 109.193 59.3733 109.06 59.68C109.325 59.2027 109.252 58.6093 108.88 58.21V58.21Z" fill="#CB93B6"/>
<path d="M24.1899 5.58008C22.9999 6.00008 22.2899 6.78008 20.9999 9.36008C20.9999 8.15008 16.8899 5.36008 17.1399 8.88008C17.168 8.94425 17.2088 9.00208 17.2599 9.05008C17.2599 9.05008 17.4799 9.30008 17.3499 9.12008C17.2199 8.94008 17.8099 9.69008 17.5999 9.45008C17.6545 9.52452 17.7183 9.59173 17.7899 9.65008C17.9399 9.92008 17.8599 9.77008 18.1299 10.3001C19.3599 16.7301 28.7599 8.77008 24.1899 5.58008V5.58008Z" fill="#CB93B6"/>
<path d="M7.56022 72.879C7.93022 71.199 5.34022 66.789 3.46022 70.699C3.3679 71.026 3.3679 71.3721 3.46022 71.699C3.46022 71.989 3.46022 71.929 3.68022 72.929C0.620219 72.669 1.07022 76.129 5.83022 75.929C6.94022 75.629 8.06022 75.129 7.56022 72.879V72.879Z" fill="#CB93B6"/>
<path d="M63.24 136.48C62.57 136.28 62.66 135.48 60.68 136.08C59.8037 136.368 59.0108 136.866 58.37 137.53C58.12 137.72 57.85 137.89 57.6 138.07C57.6 136.43 53.94 133.23 53.44 137.07C53.38 138.67 53.44 145.73 57.76 143.48L57.21 143.71C59.21 142.79 61.47 142.26 63.4 139.46C63.9558 138.526 63.8926 137.349 63.24 136.48V136.48Z" fill="#CB93B6"/>
<path d="M131.85 109.64H131.61C131.307 109.467 130.958 109.39 130.61 109.42H130.77C129.28 109.28 128.4 109.86 126.04 111.42C126.2 110.2 123.55 106.21 122.49 109.59V109.79V109.9C122.484 109.99 122.484 110.081 122.49 110.17C122.03 116.76 127.22 117.62 131.96 111.48C131.83 111.57 131.96 111.95 132.2 110.48C132.25 110 132.32 110.32 131.85 109.64Z" fill="#CB93B6"/>
<path d="M139.47 1.26074C138.36 -0.679261 136.52 0.540739 134.34 3.26074L134.2 3.14074C134.27 2.33074 131.09 0.230739 131.04 2.72074C131.04 2.43074 131.04 2.92074 131.1 3.02074L131.21 3.30074C131.42 3.48074 131.14 3.85074 132.12 4.64074C132.53 9.52074 139.82 6.09074 139.47 1.26074V1.26074Z" fill="#CB93B6"/>
</svg>
