<svg width="141" height="77" viewBox="0 0 141 77" fill="none" xmlns="http://www.w3.org/2000/svg">
<path d="M28.77 44.1809C25.05 44.1009 22 50.7209 18.66 52.0009C19.66 29.3209 13.32 41.5509 6.86 56.1709C5.69 53.0009 14.86 28.9309 6.45 31.4409C2.65454 44.8725 0.488973 58.712 0 72.6609C3.81 87.1509 11.34 53.2909 14.52 51.5509C15.78 61.0409 14.93 63.9409 24.21 54.5509C22.41 60.4009 31.21 72.0509 29.07 56.7609C28.37 53.2209 33.29 47.0709 28.77 44.1809Z" fill="black"/>
<path d="M50.9997 41.4703C39.9997 -1.21975 18.6197 95.2803 45.8597 58.0003C49.4458 53.257 51.2637 47.4107 50.9997 41.4703ZM47.9997 40.9103C36.3697 83.9103 32.7297 45.4703 41.7297 47.6603C41.5997 46.3103 47.7897 28.2803 48.0697 40.9103H47.9997Z" fill="black"/>
<path d="M64.3097 34.7801C64.9997 21.5101 70.0897 22.4401 81.7297 11.8701C80.9497 11.3301 81.0897 11.6901 83.4697 9.58008C76.6097 12.0001 50.0997 28.0001 50.4497 35.4601C54.5797 36.3401 57.3097 32.4001 61.7897 28.6401C57.2597 41.8901 54.8097 74.6501 64.3097 34.7801V34.7801Z" fill="black"/>
<path d="M89.2295 30.0604C86.4295 31.9104 92.3395 13.7405 84.3495 21.2405C84.5395 25.2405 84.4095 36.3405 76.4495 34.7505C76.0995 30.8005 81.2895 21.1405 75.2195 18.9205C71.3095 18.6105 72.9495 34.6404 70.6195 39.1404C66.6195 41.2904 56.1295 51.5905 69.4695 45.3605C70.7395 46.3605 68.8095 50.9904 71.1595 53.5704C75.9695 56.1504 70.3295 38.4104 82.4295 37.5704C82.5995 40.4404 78.9795 47.6505 81.9395 50.7205C85.5195 45.6605 85.4495 36.7904 89.2295 30.0604Z" fill="black"/>
<path d="M131.39 38.7293C124.14 37.3293 119.17 28.0793 118.03 20.4793C122.24 17.7093 125.22 3.31929 113.21 11.7293C112.33 9.88929 114.91 4.78929 108.08 6.91929C108.219 7.68429 108.273 8.46241 108.24 9.23929C104 12.5393 96.5702 13.9993 92.7902 18.4093C89.3002 28.8393 81.7902 57.0993 103.17 32.3293C106.59 24.8493 95.9702 35.0693 92.9202 37.4793C93.3502 30.6493 93.7002 33.7093 100.11 27.3593C103.47 23.0393 99.8102 25.1293 95.2602 27.0493C95.6602 20.5893 101.46 16.8993 107.75 13.1393C108.12 15.8193 103.23 38.3993 108.46 36.3693C111.53 34.7493 110.2 27.8293 111.85 22.5193C113.27 27.4493 125.29 45.2393 131.39 38.7293V38.7293ZM116.85 18.8493C116.19 20.9393 115.01 19.2593 112.09 20.7893C111.23 17.2693 122.53 3.36929 116.85 18.8493Z" fill="black"/>
<path d="M139.69 6.38959C129 0.999588 126.8 7.35959 130.38 20.1096C133.07 16.8596 134.07 27.5296 127.32 31.4896C122.75 30.9096 125.57 26.6096 128.55 22.1096C127.34 22.5796 127.37 21.6796 125.66 24.3596C125.26 26.6596 119.66 29.5096 125.39 33.2996C127.74 34.6796 133.49 32.9296 136.39 29.4496C143.98 21.6996 129.1 15.2396 132.95 6.85959C133.95 6.07959 137.95 4.59959 135.73 9.54959C135.31 11.9996 141.53 10.5396 139.69 6.38959V6.38959ZM125.82 33.2096C125.704 33.2302 125.586 33.2302 125.47 33.2096C125.581 33.1475 125.685 33.0737 125.78 32.9896H125.98C126.06 33.1296 125.94 33.1896 125.82 33.2096V33.2096Z" fill="black"/>
<path d="M11.3399 10.7107C11.2299 12.5107 11.3399 13.8907 11.2099 16.5207C11.1399 16.5207 11.2799 16.6907 10.5599 17.2207L9.84993 17.2707C8.99993 17.0007 9.19993 15.2307 8.99993 13.7107C8.92993 13.6307 8.99993 13.5007 8.56993 13.2907C8.26993 13.2907 8.62993 13.0107 7.20993 13.2907C4.72993 13.6807 2.66993 11.0507 1.99993 17.1007L1.58993 17.2507L0.729929 17.1707L0.479929 16.8707C0.15438 15.4042 0.0699405 13.8944 0.229929 12.4007L0.129929 12.1807C0.154945 12.0356 0.188334 11.892 0.229929 11.7507C0.178357 11.1351 0.178357 10.5163 0.229929 9.9007V9.5807C-0.0162623 8.12866 0.0796106 6.6392 0.509929 5.2307L0.839929 5.0007H1.64993L2.07993 5.2807L2.32993 5.7607C2.41176 7.09278 2.41176 8.42863 2.32993 9.7607C2.18993 11.2307 4.99993 11.2107 7.16993 11.0007C7.55845 11.0488 7.95141 11.0488 8.33993 11.0007C9.73993 10.7707 8.90993 7.7407 9.16993 5.7307C9.3639 5.43419 9.61147 5.17646 9.89993 4.9707L10.6299 5.0207L10.9299 5.1707C11.3799 5.9207 11.1699 7.6107 11.3099 8.9307C11.2331 9.52233 11.2432 10.122 11.3399 10.7107V10.7107Z" fill="black"/>
<path d="M24.4598 16.0007L24.4098 16.6007L24.2298 16.9607L23.4698 17.3107H23.1198C22.0298 15.1707 19.2098 15.1707 16.5798 15.5407C16.1498 15.8807 16.0998 15.5407 15.6498 16.6507C15.3319 16.9085 14.9979 17.1456 14.6498 17.3607C14.4237 17.3161 14.2026 17.2491 13.9898 17.1607L13.7098 16.8807L13.5098 16.3207C13.6586 16.045 13.7278 15.7334 13.7098 15.4207C14.1698 14.4807 14.7098 13.2107 15.4798 11.7107C15.7998 10.7107 16.4798 9.5407 17.1398 7.9707C17.2079 7.57683 17.3845 7.20976 17.6498 6.9107C18.0298 6.3207 17.4798 6.1907 18.8898 5.0407C19.0098 5.0407 18.6798 4.9707 19.6398 4.9707C20.8398 6.0307 21.3798 8.6207 22.2698 10.6207C22.4564 10.9337 22.601 11.2699 22.6998 11.6207C23.0898 12.1807 22.9398 12.1707 23.4798 13.6207C23.8007 14.17 24.0303 14.7678 24.1598 15.3907L24.4598 16.0007ZM18.7298 13.3207C18.9238 13.3619 19.1257 13.3445 19.3098 13.2707C19.3098 13.2707 21.0798 13.5907 20.6198 12.1907C20.4069 11.7317 20.2297 11.2569 20.0898 10.7707C19.8998 10.6007 19.4798 8.9207 18.7598 9.7707C18.6783 10.0883 18.5243 10.3827 18.3098 10.6307L18.1498 10.9607C18.1698 11.6107 16.4998 13.1707 18.7298 13.3107V13.3207Z" fill="black"/>
<path d="M26.8297 11.6206V10.8106C26.6497 9.40061 26.8897 8.33061 26.7797 6.12061C26.8967 5.77172 27.0509 5.43645 27.2397 5.12061C30.4097 4.69061 36.9997 3.49061 37.9997 8.79061C37.9997 9.79061 38.0997 11.6506 36.5397 12.8606C36.4297 12.9306 36.5397 12.8606 36.3097 13.1306L35.9297 13.3106L35.6297 13.6106C35.0497 13.7706 35.2897 13.7106 33.8397 14.1706C33.4897 14.1706 32.7297 14.1706 31.8997 14.1706L31.6697 14.1006C30.8577 14.0367 30.0411 14.1387 29.2697 14.4006C29.244 14.4046 29.2238 14.4249 29.2197 14.4506C28.9997 14.6506 29.0597 14.8106 28.8697 15.8206L28.8197 16.4706L28.4397 17.0806L28.1097 17.2306L27.3297 17.1006L26.9997 16.7906C26.6597 16.2206 26.8197 15.3506 26.7197 14.1706C26.7297 13.6406 26.7797 12.8406 26.8297 11.6206V11.6206ZM31.2397 12.0206C31.5897 11.9506 32.1497 12.0206 33.5897 11.9206C33.5897 11.9206 34.0097 11.7706 34.5897 11.5706C34.7584 11.4423 34.9355 11.3253 35.1197 11.2206C35.1473 11.2206 35.1697 11.1982 35.1697 11.1706C35.1697 11.0906 35.1697 11.2506 35.5997 10.5606C36.3497 9.03061 35.1497 6.44061 32.2397 7.05061C31.866 6.9093 31.4535 6.9093 31.0797 7.05061C28.7397 6.56061 28.6897 8.13061 29.0797 11.2406C29.2697 11.4306 28.9397 11.7206 29.8897 11.9506C30.3401 11.9128 30.7934 11.9296 31.2397 12.0006V12.0206Z" fill="black"/>
<path d="M40.3305 11.6209V10.8109C40.1505 9.40092 40.3905 8.33092 40.3305 6.12092C40.4452 5.77282 40.596 5.43766 40.7805 5.12092C43.9805 4.70092 50.5505 3.50092 51.5605 8.80092C51.5605 9.80092 51.6605 11.6609 50.1005 12.8709C49.9905 12.9409 50.1005 12.8709 49.8705 13.1409L49.4905 13.3209L49.1905 13.6209C48.6105 13.7809 48.8405 13.7209 47.4005 14.1809C47.0505 14.1809 46.2905 14.1809 45.4005 14.1809L45.1805 14.1109C44.3684 14.047 43.5518 14.149 42.7805 14.4109C42.7715 14.4264 42.7715 14.4454 42.7805 14.4609C42.5605 14.6609 42.6205 14.8209 42.4205 15.8309L42.3705 16.4809L42.0005 17.0909L41.6705 17.2409L40.8905 17.1109L40.5605 16.7809C40.2205 16.2109 40.3805 15.3409 40.2805 14.1609C40.2305 13.6409 40.2805 12.8409 40.3305 11.6209V11.6209ZM44.7405 12.0209C45.0905 11.9509 45.6505 12.0209 47.0905 11.9209L48.0905 11.5709C48.2592 11.4426 48.4362 11.3257 48.6205 11.2209C48.6462 11.2169 48.6664 11.1967 48.6705 11.1709C48.6705 11.0909 48.6705 11.2509 49.1005 10.5609C49.8505 9.03092 48.6505 6.44092 45.7405 7.05092C45.3666 6.91052 44.9544 6.91052 44.5805 7.05092C42.2405 6.56092 42.1905 8.13092 42.5805 11.2409C42.7705 11.4309 42.4405 11.7209 43.3805 11.9509C43.8342 11.9131 44.2908 11.9299 44.7405 12.0009V12.0209Z" fill="black"/>
<path d="M53.2898 4.93018C53.6263 4.91289 53.9634 4.94661 54.2898 5.03018C54.817 5.54072 55.2235 6.16251 55.4798 6.85018C55.6174 7.06914 55.7187 7.3089 55.7798 7.56018C56.0323 7.9449 56.2531 8.34957 56.4398 8.77018C56.4451 8.78642 56.4451 8.80395 56.4398 8.82018C56.8498 9.27018 56.9798 10.0202 57.6798 10.9902C58.7398 11.6002 58.7598 9.93018 59.6798 8.99018C59.6798 8.99018 59.6798 8.99018 59.6798 8.94018L59.8098 8.66018C60.0631 8.06025 60.4034 7.50091 60.8198 7.00018C61.2898 6.29018 60.8198 6.11018 62.3798 4.93018H62.6798L63.4698 5.31018L63.6398 5.71018C63.3578 6.88262 62.8332 7.98294 62.0998 8.94018C62.0998 8.94018 62.1698 8.94018 61.7698 9.53018C61.6218 9.91686 61.4087 10.2754 61.1398 10.5902C61.0114 10.947 60.833 11.2837 60.6098 11.5902C60.4798 11.9402 60.0098 12.7102 59.3798 13.8302C58.8498 14.8302 59.4998 15.4102 58.6698 17.0402C58.3277 17.1815 57.9598 17.2497 57.5898 17.2402L57.2598 17.1102C56.8698 15.5802 56.4198 12.8002 55.0898 10.8302C55.0898 10.8302 55.0898 10.7802 55.0898 10.7502L54.8598 10.4702C54.8072 10.2241 54.7161 9.98785 54.5898 9.77018C53.9056 8.6296 53.3073 7.43964 52.7998 6.21018L52.9498 5.48018L53.2898 4.93018Z" fill="black"/>
<path d="M72.6497 69.0001C73.1097 67.3501 71.8097 65.1601 73.2997 63.4101C74.5397 63.1201 76.1197 63.4901 78.1897 63.3201C79.8526 63.6348 81.3053 64.6372 82.1897 66.0801C82.212 66.1823 82.2421 66.2826 82.2797 66.3801C82.4531 66.6667 82.5749 66.9815 82.6397 67.3101C82.8678 68.0024 82.9495 68.7346 82.8797 69.4601C82.7797 69.4601 82.8797 70.2101 82.4497 70.7101C82.3029 71.1146 82.1223 71.506 81.9097 71.8801C81.9097 71.9701 81.6897 71.8801 81.4997 72.4201C81.4997 72.4901 81.4997 72.3401 81.0797 72.8801L80.7797 73.0501C80.6897 73.1101 80.7797 73.0501 80.5597 73.2701C78.2179 74.3897 75.5491 74.6207 73.0497 73.9201C72.6197 73.4501 72.8097 72.3401 72.6597 70.9201C72.755 70.7209 72.755 70.4893 72.6597 70.2901C72.6597 70.2101 72.8997 70.1401 72.6597 69.6601C72.67 69.4401 72.6666 69.2197 72.6497 69.0001V69.0001ZM76.1597 72.3601C76.9136 72.3494 77.6657 72.2826 78.4097 72.1601C78.8293 72.0428 79.2252 71.8533 79.5797 71.6001L79.7997 71.4301C79.7997 71.4301 80.1297 71.1001 80.4297 70.6901C80.4897 70.6201 80.2997 70.8001 80.7097 70.1301C80.9855 69.3944 81.0309 68.5922 80.8397 67.8301C80.8397 67.7601 80.7497 67.8301 80.6197 67.3301C80.5597 67.2401 80.6197 67.3301 80.3397 66.7001C80.1697 66.4901 80.1197 66.5201 79.5797 65.9501C79.2977 65.6921 78.9529 65.5128 78.5797 65.4301C77.8297 64.9801 76.7497 65.2001 75.2197 65.1901C74.2197 65.4301 74.5897 67.6101 74.6397 69.0701C74.5397 69.2001 74.6397 69.4901 74.5497 70.4501L74.6397 70.6501C74.6897 71.0501 74.2397 72.7301 76.1597 72.3101V72.3601Z" fill="black"/>
<path d="M99.58 73.0001V73.5201L99.43 73.8301L98.78 74.1301H98.48C97.54 72.2901 95.12 72.3001 92.87 72.6101C92.49 72.9101 92.45 72.6101 92.07 73.6101C91.7987 73.8266 91.5149 74.0269 91.22 74.2101C91.0245 74.1881 90.8347 74.1305 90.66 74.0401L90.42 73.8001L90.25 73.3301C90.3721 73.0888 90.4306 72.8203 90.42 72.5501C90.79 71.8101 91.14 70.9401 91.94 69.3601C92.21 68.5101 92.76 67.5001 93.37 66.1501C93.4217 65.8114 93.5711 65.4951 93.8 65.2401C93.9315 64.589 94.3118 64.015 94.86 63.6401C94.97 63.6401 94.68 63.5801 95.51 63.5801C96.42 64.2601 97.03 66.7201 97.77 68.4301C97.9305 68.7087 98.0517 69.0082 98.13 69.3201C98.47 69.8101 98.34 69.7901 98.81 71.0301C99.0882 71.5001 99.2844 72.0142 99.39 72.5501L99.58 73.0001ZM94.66 70.7101C94.823 70.7596 94.997 70.7596 95.16 70.7101C95.16 70.7101 96.68 70.9901 96.28 69.7801C96.0946 69.3908 95.944 68.9859 95.83 68.5701C95.66 68.4201 95.31 66.9801 94.68 67.7201C94.6049 67.989 94.4718 68.2382 94.29 68.4501L94.16 68.7301C94.18 69.2701 92.75 70.6101 94.66 70.7301V70.7101Z" fill="black"/>
<path d="M105.71 63.5292C105.986 63.514 106.263 63.5444 106.53 63.6192C106.978 64.0561 107.32 64.5897 107.53 65.1792C107.647 65.3683 107.734 65.574 107.79 65.7892C108.012 66.1345 108.209 66.4954 108.38 66.8692C108.66 67.1292 108.73 67.6892 109.44 68.7292C110.32 69.2692 110.23 68.0992 111.17 66.9992L111.27 66.7592C111.475 66.2488 111.748 65.7679 112.08 65.3292C112.309 64.5996 112.782 63.9711 113.42 63.5492H113.68L114.35 63.8792L114.5 64.2192C114.268 65.2371 113.817 66.1925 113.18 67.0192C113.12 67.2027 113.025 67.3727 112.9 67.5192C112.8 67.5792 112.82 67.9392 112.36 68.4292C112.244 68.7347 112.09 69.0238 111.9 69.2892C111.583 69.9521 111.229 70.5964 110.84 71.2192C110.39 71.9792 110.98 72.3092 110.23 73.9692C109.935 74.092 109.619 74.1532 109.3 74.1492L109.02 74.0392C108.718 72.1449 108.088 70.3176 107.16 68.6392C107.16 68.6392 107.16 68.6392 107.16 68.5792L106.96 68.3392C106.917 68.1232 106.835 67.9166 106.72 67.7292C106.131 66.7526 105.616 65.733 105.18 64.6792L105.31 64.0492L105.71 63.5292Z" fill="black"/>
<path d="M126.86 5.53018C128.19 4.22018 127.34 -4.24982 123.38 2.72018C123.84 2.42018 124.47 13.8102 126.86 5.53018Z" fill="black"/>
</svg>
