<svg width="176" height="162" viewBox="0 0 176 162" fill="none" xmlns="http://www.w3.org/2000/svg">
<g clip-path="url(#clip0_3_22946)">
<path d="M57.7998 57.0802L59.0598 56.5802V48.6702L57.7998 48.1702V46.7402L62.9998 46.6602V48.1702L61.6598 48.6702V51.3602H66.0598V48.6702L64.7198 48.1702V46.7402L69.9298 46.6602V48.1702L68.6698 48.6702V56.5802L69.9298 57.0802V58.5102H64.7298V57.0802L66.0698 56.5802V53.3802H61.6698V56.5802L63.0098 57.0802V58.5102H57.7998V57.0802Z" fill="#963C85"/>
<path d="M82.8602 58.5102H77.5102V57.0802L78.7702 56.6302L78.3702 55.4002H74.6402L74.2202 56.6102L75.5302 57.0802V58.5102H70.4502V57.0802L71.6802 56.6102L75.3802 46.7102L78.0702 46.6602L81.6802 56.6602L82.8602 57.1302V58.5102ZM76.5602 49.6202L75.2302 53.6202H77.8202L76.5602 49.6202Z" fill="#963C85"/>
<path d="M83.2002 57.0801L84.4602 56.5801V48.6701L83.2002 48.1701V46.7401L87.0702 46.6601C94.6902 45.5201 94.5502 55.1701 87.0702 54.3901V56.5801L88.3302 57.0801V58.5101H83.2002V57.0801ZM88.0002 52.4201C91.0002 52.4901 90.7802 47.8701 87.1102 48.6701V52.4201H88.0002Z" fill="#963C85"/>
<path d="M93.6797 57.0801L94.9397 56.5801V48.6701L93.6797 48.1701V46.7401L97.5497 46.6601C105.17 45.5201 105.03 55.1701 97.5497 54.3901V56.5801L98.8097 57.0801V58.5101H93.6797V57.0801ZM98.4397 52.4201C101.44 52.4901 101.22 47.8701 97.5497 48.6701V52.4201H98.4397Z" fill="#963C85"/>
<path d="M106.6 57.0802L107.86 56.5802V54.4102L104.78 48.6202L103.69 48.1702V46.7402L108.45 46.6602V48.1702L107.59 48.5202L109.27 52.1402L111.05 48.5402L110.13 48.1702V46.7402L114.67 46.6602V48.1702L113.51 48.6202L110.51 54.3902V56.5802L111.77 57.0802V58.5102H106.6V57.0802Z" fill="#963C85"/>
<path d="M63.1902 97.1193L61.4102 96.4093V94.4093L66.8802 94.2893C77.1702 92.5493 79.6802 104.769 73.2302 109.869C70.6802 111.869 64.3202 110.869 61.4102 111.059V109.059L63.1902 108.339V97.1193ZM68.8602 108.179C74.8602 108.069 73.8602 94.9493 66.8602 97.1193V108.179H68.8602Z" fill="#963C85"/>
<path d="M95.57 111H88V109L89.79 108.35L89.22 106.62H83.93L83.34 108.33L85.2 109V111H78V109L79.74 108.33L84.97 94.3298L88.78 94.2598L93.89 108.34L95.56 109.01L95.57 111ZM86.65 98.4498L84.77 104.09H88.43L86.65 98.4498Z" fill="#963C85"/>
<path d="M99.9996 109.001L101.79 108.281V105.211L97.3996 97.051L95.8496 96.411V94.411L102.58 94.291V96.431L101.37 96.931L103.75 102.041L106.27 96.951L105 96.411V94.411L111.42 94.291V96.431L109.78 97.071L105.48 105.231V108.321L107.26 109.041V111.041H99.9996V109.001Z" fill="#963C85"/>
<path d="M46.5901 70.5195C45.1401 63.1895 39.6801 74.8995 39.5901 78.2495V78.7395C40.6501 80.9995 39.7701 86.1895 36.1401 83.8495C34.8501 79.6295 37.8601 70.9995 37.6701 69.4795C37.7301 66.9495 36.0101 67.3295 34.0501 68.6795C31.8701 65.1595 41.5801 62.3295 40.9301 68.2695C43.3201 63.1695 50.1101 63.5495 49.5401 69.8195C62.5401 60.1695 52.6201 82.8895 56.3601 81.0895C58.2101 80.0895 60.6901 75.7795 60.1801 79.7695C54.6801 88.6795 49.2601 83.3595 53.2501 75.0395C55.4601 65.6195 47.3801 75.1695 47.7301 80.8095C49.0301 82.4695 44.5301 87.1595 44.0801 82.4895C44.0801 80.4495 46.5101 74.2795 46.5901 70.5195Z" fill="#963C85"/>
<path d="M69.8197 73.2309C63.0297 72.6009 58.8197 83.0909 67.3797 81.0409C60.7797 75.4809 74.0697 69.5209 70.8797 79.6509C77.2897 75.8409 74.0097 83.4409 69.4497 81.9209C54.1997 92.4209 57.1997 64.9109 69.8197 73.2309ZM69.2197 78.9209C69.5297 78.6809 70.1197 75.4409 68.6997 76.5709C68.4197 77.5609 68.4597 77.7209 69.2197 78.9209Z" fill="#963C85"/>
<path d="M74.8605 71.8404C75.6405 68.9504 77.8605 65.6504 79.0705 69.9504L78.0005 71.8104C81.7605 70.9904 81.8205 74.8104 77.5405 73.9304C75.0605 89.1404 81.5405 75.4304 82.5405 79.0004C77.6205 88.5404 71.3905 83.9104 74.2605 74.0604C72.8005 74.1604 72.2105 74.0604 73.4605 71.8604C73.8005 71.8604 74.2905 71.8604 74.8605 71.8404V71.8404Z" fill="#963C85"/>
<path d="M89.0598 80.8896C91.3198 72.1896 87.1798 73.0696 85.2798 79.6496C86.1198 81.2996 84.3798 86.2696 82.0098 83.8496C80.9498 79.7696 81.8998 77.4096 82.5298 73.5596C84.8498 61.3896 91.4598 63.6496 86.2098 72.3296L85.8198 74.1896C87.5898 70.7496 95.2098 70.4796 93.1998 77.1896C90.6298 86.2496 95.0598 77.7196 96.7598 78.3396C97.8998 82.0996 88.9298 87.7396 89.0598 80.8896Z" fill="#963C85"/>
<path d="M107.29 78.1C110.09 83.83 91.8801 88.9101 95.8501 76.8301C100.66 65.4601 111.98 75.58 99.0901 78.92C99.0801 84.33 107.15 78.89 107.29 78.1V78.1ZM99.2901 77.1C100.29 76.36 102.47 75.51 101.76 74.1C100.33 73.51 99.8201 74.86 99.2701 77.14L99.2901 77.1Z" fill="#963C85"/>
<path d="M116.55 74.8101C116.34 77.0201 113.41 82.6001 116.25 80.7401C117.82 79.8301 119.25 76.5701 119.47 79.0001C117.02 87.9101 108.77 84.2601 113.13 75.7701C112.384 75.9843 111.601 76.0455 110.83 75.9501C110.26 90.8001 103.96 83.8501 108.09 74.5301C104.74 71.6601 110.09 68.7301 111.19 73.4701C113.2 74.2501 115.72 70.6801 116.55 74.8101V74.8101Z" fill="#963C85"/>
<path d="M124.85 64.0006C132.26 66.8206 115.63 76.0006 122.65 68.5306C120.9 67.4006 122.1 63.8906 124.85 64.0006Z" fill="#963C85"/>
<path d="M134.18 77.4507C142.81 87.7307 118.31 84.7907 128.35 77.9907C129.4 78.5607 128.6 81.7807 132.89 81.9907C119.9 68.2607 144.48 69.8807 134.18 77.4507V77.4507ZM133.18 76.3907C134.11 75.6907 134.94 73.0207 131.97 74.0607C132.073 74.9575 132.5 75.7859 133.17 76.3907H133.18Z" fill="#963C85"/>
<path d="M15.5502 75.0892C34.6902 69.9692 22.6602 62.8292 15.2402 74.0892C15.1495 74.4641 15.086 74.8451 15.0502 75.2292C14.6202 73.1692 10.4902 65.2292 8.9502 69.8592C9.1502 72.7092 14.3702 78.3192 15.1902 76.9192C15.351 76.2859 15.351 75.6225 15.1902 74.9892C15.2863 75.08 15.421 75.1174 15.5502 75.0892V75.0892Z" fill="#ADCA3C"/>
<path d="M15.5397 61.8892C6.45972 50.7492 12.1697 67.9992 16.5897 68.1492C17.1797 66.7192 16.5397 64.1292 15.5397 61.8892V61.8892Z" fill="#ADCA3C"/>
<path d="M27.2496 56.9984C23.9696 55.5384 18.6696 59.0584 17.3496 62.6984C18.6896 64.9984 28.7796 59.9984 27.2496 56.9984Z" fill="#ADCA3C"/>
<path d="M19.7998 51.5699C13.3498 36.9299 15.2698 60.3899 19.4898 57.5699C20.3698 55.8799 20.0998 53.2699 19.7998 51.5699Z" fill="#ADCA3C"/>
<path d="M23.6005 37.2682C20.6005 35.9282 21.6705 50.2682 23.1305 48.7882C25.4605 46.4782 26.3605 39.5882 23.6005 37.2682V37.2682Z" fill="#ADCA3C"/>
<path d="M32.8701 44.669C31.9401 41.109 21.8701 48.759 22.2301 50.269C25.2801 49.539 32.5601 48.429 32.8701 44.669Z" fill="#ADCA3C"/>
<path d="M30.0803 37.5586C20.7003 48.7486 12.2603 68.9086 15.2303 81.5586C14.8303 66.3986 22.9203 48.9686 30.0803 37.5586Z" fill="#C7DB7A"/>
<path d="M63.9997 15.3686C76.2497 30.9386 78.0697 17.0686 64.7597 14.7086C64.3772 14.7723 63.9997 14.8625 63.6297 14.9786C65.3597 13.7686 71.0397 6.83855 66.1597 7.25855C63.5597 8.44855 60.5097 16.0286 62.1597 15.7786C62.7858 15.665 63.3736 15.3969 63.8697 14.9986C63.8584 15.1348 63.9057 15.2694 63.9997 15.3686Z" fill="#ADCA3C"/>
<path d="M76.0701 10.1495C77.1098 8.98761 77.7815 7.54335 78.0001 5.99954C77.1201 0.0895357 69.3501 12.3495 70.7001 13.6195C72.2901 13.5695 74.4101 11.9995 76.0701 10.1495V10.1495Z" fill="#ADCA3C"/>
<path d="M85.1498 18.9983C85.1498 15.4183 79.8698 11.9383 76.0098 12.1583C74.6398 14.2083 82.5998 21.5583 85.1498 18.9983Z" fill="#ADCA3C"/>
<path d="M87.2398 9.99996C97.9998 -1.41004 77.4598 9.06996 81.5998 12.08C83.4998 12.21 85.7898 10.94 87.2398 9.99996Z" fill="#ADCA3C"/>
<path d="M101.88 7.83976C101.88 4.59976 89.3397 11.0598 91.1097 11.9498C93.9997 13.1698 100.86 11.3098 101.88 7.83976Z" fill="#ADCA3C"/>
<path d="M98.7396 19.2784C101.64 17.0184 90.6096 10.7384 89.3896 11.7084C91.3196 14.2584 94.9996 20.3084 98.7396 19.2784Z" fill="#ADCA3C"/>
<path d="M104.13 13.8983C90.2404 9.70831 68.1304 9.89831 57.9404 17.6183C71.7604 11.2283 90.9404 11.8883 104.13 13.8983Z" fill="#C7DB7A"/>
<path d="M137.93 126.3C119.23 119.89 125.09 132.51 137.64 127.3C137.74 127.3 138.36 126.5 138.44 126.45C137.39 128.45 137.06 138.24 140.72 133.88C141.85 131.48 140.47 123.81 139.27 124.97C138.774 125.397 138.395 125.945 138.17 126.56C138.129 126.444 138.042 126.35 137.93 126.3V126.3Z" fill="#ADCA3C"/>
<path d="M130.58 137.268C132.01 151.568 136.77 133.948 133.19 131.488C131.91 132.338 131 134.858 130.58 137.268Z" fill="#ADCA3C"/>
<path d="M118.16 134.779C120.1 137.839 126.42 137.779 129.55 135.549C129.77 132.929 118.47 131.399 118.16 134.779V134.779Z" fill="#ADCA3C"/>
<path d="M121.29 143.468C119.04 148.618 122.53 152.218 124.98 145.318C125.54 143.918 127.05 137.608 124.9 138.648C123.22 139.568 122 141.888 121.29 143.468Z" fill="#ADCA3C"/>
<path d="M110.17 153.23C111.91 155.76 118.86 144.23 116.98 143.92C113.85 144.5 109.14 149.76 110.17 153.23Z" fill="#ADCA3C"/>
<path d="M106.59 141.919C105.38 145.399 118.06 144.669 118.59 143.189C115.62 142.099 109 138.999 106.59 141.919Z" fill="#ADCA3C"/>
<path d="M105 149.369C119 145.369 137.59 132.889 141.79 121.119C133.61 133.999 117.21 143.859 105 149.369Z" fill="#C7DB7A"/>
<path d="M69.8996 149.589C67.2496 129.959 58.6396 140.979 68.8996 149.769C69.2603 149.911 69.6314 150.024 70.0096 150.109C67.9196 150.379 59.8896 152.999 63.6896 155.459C66.5096 155.869 73.0096 151.179 71.6896 150.189C71.0852 149.929 70.4222 149.836 69.7696 149.919C69.8563 149.831 69.9032 149.712 69.8996 149.589V149.589Z" fill="#ADCA3C"/>
<path d="M56.8101 147.93C44.6101 155.54 62.4701 152.04 63.1501 147.68C61.8101 146.91 59.1501 147.22 56.8101 147.93Z" fill="#ADCA3C"/>
<path d="M53.4804 135.699C51.6204 138.759 54.4804 144.469 57.8804 146.239C60.3404 145.199 56.6504 134.559 53.4804 135.699Z" fill="#ADCA3C"/>
<path d="M47.1097 142.389C31.7697 146.939 55.2897 147.999 53.0297 143.459C51.4597 142.379 48.8397 142.309 47.1097 142.389Z" fill="#ADCA3C"/>
<path d="M33.4102 136.809C31.7002 139.629 46.0602 140.379 44.7702 138.739C42.7802 136.129 36.0602 134.369 33.4102 136.809Z" fill="#ADCA3C"/>
<path d="M41.9203 128.549C38.2803 129.019 44.5803 140.039 46.1303 139.819C45.7903 136.699 45.6103 129.339 41.9203 128.549Z" fill="#ADCA3C"/>
<path d="M34.5498 130.449C44.2898 141.119 63.9398 152.269 76.2298 150.709C60.9998 149.199 44.8798 138.859 34.5498 130.449V130.449Z" fill="#C7DB7A"/>
<path d="M146.09 48.1186C133.09 63.0286 147.02 62.2586 146.88 48.7486C146.94 48.6586 146.41 47.7486 146.4 47.6786C147.91 49.1586 155.77 53.4586 154.46 48.7386C152.8 46.4086 144.79 44.8086 145.35 46.3586C145.548 46.9888 145.91 47.5548 146.4 47.9986C146.284 47.9942 146.172 48.0376 146.09 48.1186V48.1186Z" fill="#ADCA3C"/>
<path d="M153.46 59.0697C154.801 59.8941 156.357 60.2981 157.93 60.2297C163.57 58.2297 150.09 52.8997 149.09 54.4597C149.4 55.9997 151.38 57.7697 153.46 59.0697V59.0697Z" fill="#ADCA3C"/>
<path d="M146.44 69.6191C150 68.9391 152.33 63.2991 151.44 59.3691C149.27 58.2491 143.34 67.9391 146.44 69.6191Z" fill="#ADCA3C"/>
<path d="M155.67 69.9985C169.09 78.4885 154.48 60.1285 152.58 64.8385C152.8 66.7485 154.47 68.7685 155.67 69.9985Z" fill="#ADCA3C"/>
<path d="M160.49 83.999C163.67 83.409 155.01 72.269 154.49 74.169C153.8 77.289 156.89 83.649 160.49 83.999Z" fill="#ADCA3C"/>
<path d="M148.66 83.0002C151.42 85.4402 155.56 73.4402 154.37 72.4102C152.22 74.8102 147 79.5102 148.66 83.0002Z" fill="#ADCA3C"/>
<path d="M154.94 87.3188C156.49 72.8388 152.25 51.3888 142.74 42.5488C151.58 54.9288 154.49 74.0788 154.94 87.3188Z" fill="#C7DB7A"/>
<path d="M24.3304 27.8394C20.9304 26.4894 16.3904 28.8394 15.1504 32.6394C17.0004 33.4394 26.5004 31.2694 24.3304 27.8394Z" fill="#ADCA3C"/>
<path d="M32.4501 18.1798C32.0201 14.7298 26.5201 8.91976 22.4501 10.3598C22.2801 12.9998 29.8301 20.7298 32.4501 18.1798Z" fill="#ADCA3C"/>
<path d="M36.0899 6.26966C31.0899 -5.02034 29.3699 8.64966 34.8499 11.2697C36.4799 11.3797 36.8199 8.04966 36.0899 6.26966Z" fill="#ADCA3C"/>
<path d="M63.58 25.1292C60.8634 22.6533 56.8334 22.2817 53.71 24.2192C54.66 26.8092 62 28.1092 63.58 25.1292Z" fill="#ADCA3C"/>
<path d="M123.05 23.9994C126.36 16.6694 120.33 21.2594 118.54 24.7794C116.64 29.9994 121.54 26.6894 123.05 23.9994Z" fill="#ADCA3C"/>
<path d="M128.42 28.09C126.72 20.82 123.34 30.04 125.21 34.59C126.84 35.88 128.3 30.23 128.42 28.09V28.09Z" fill="#ADCA3C"/>
<path d="M120.64 -0.000822634C118.08 -0.520823 116.75 4.99918 117.88 7.52918C119.56 12.2792 122 3.17918 120.64 -0.000822634V-0.000822634Z" fill="#ADCA3C"/>
<path d="M140.53 16.6889C138.01 15.8489 136.66 22.2389 138.29 24.4289C140.64 25.3489 141.42 19.0689 140.53 16.6889V16.6889Z" fill="#ADCA3C"/>
<path d="M146.56 18.58C145.33 16.88 141.46 20.48 141.49 22.79C142.6 24.47 146 20.65 146.56 18.58Z" fill="#ADCA3C"/>
<path d="M53.3102 15.9997C52.4695 15.4288 51.5303 15.0186 50.5402 14.7897C56.8902 10.2997 51.2202 1.70973 46.6802 10.3697C45.4902 0.899727 35.1802 6.83973 40.0002 13.3697C34.3102 12.1497 32.5102 19.3697 39.7302 18.9497C34.6302 27.1397 44.9402 29.6997 46.2402 20.5797C48.7002 24.0597 59.0002 20.7797 53.3102 15.9997V15.9997Z" fill="#EE548A"/>
<path d="M44.9201 14.2793C42.0501 14.2793 43.2101 19.8893 46.4001 16.9993C47.0601 15.7993 46.6201 14.8593 44.9201 14.2793Z" fill="#963C85"/>
<path d="M34.2603 27.4084C40.0303 24.0784 34.5603 18.2884 31.2603 25.4084C30.0003 16.8384 19.0003 22.8584 28.8003 28.1684C20.0203 32.0484 26.8703 40.6684 30.5703 31.2784C35.0003 39.4984 43.5603 30.9984 34.2603 27.4084Z" fill="#F48EB2"/>
<path d="M31.0001 27C29.0801 27 29.3601 30 31.2601 30C33.1601 30 32.8401 27 31.0001 27Z" fill="#963C85"/>
<path d="M51.6396 32.4896C55.5496 31.8596 54.9396 26.4896 49.9296 28.8696C49.8196 21.3196 43.1396 24.7996 46.5996 30.7996C39.0596 31.2296 40.8396 39.1996 47.8196 33.2796C47.7096 39.2196 55.6396 37.4096 51.6396 32.4896Z" fill="#FFC219"/>
<path d="M48.78 29.2598C48.0606 29.321 47.5078 29.9228 47.5078 30.6448C47.5078 31.3668 48.0606 31.9686 48.78 32.0298C49.4994 31.9686 50.0522 31.3668 50.0522 30.6448C50.0522 29.9228 49.4994 29.321 48.78 29.2598V29.2598Z" fill="#963C85"/>
<path d="M133.79 14.2992C133.195 14.0646 132.574 13.9034 131.94 13.8192C141.94 7.90915 132.34 2.02915 128.06 11.7692C127.26 -3.46084 117.13 7.62915 125.81 13.9292C119.63 13.2892 118.15 20.5492 125.41 17.7492C122.74 25.0292 131.02 24.4592 129.41 17.5992C132.18 20.5292 140.32 17.7092 133.79 14.2992Z" fill="#EE548A"/>
<path d="M128.31 13.3594C125.84 13.3594 126.96 18.1894 129.6 15.6494C130.15 14.6094 129.78 13.8194 128.31 13.3594Z" fill="#963C85"/>
<path d="M119.72 13.3884C119.3 12.2184 117.08 11.9284 115.53 12.8484C119.79 7.94838 113.28 3.69838 111.23 10.9784C105.58 3.47838 100.67 12.7484 109.12 15.7184C100.07 18.6284 104.37 26.8484 111.21 19.2584C112.08 29.6484 119.88 22.4384 115.32 17.0384C116.78 17.3584 120.17 15.9984 119.72 13.3884V13.3884Z" fill="#F48EB2"/>
<path d="M114.37 15.7692C113.2 11.5592 107.37 18.1992 113.37 17.6492C114.037 17.2668 114.426 16.536 114.37 15.7692Z" fill="#963C85"/>
<path d="M142 32.4891C150.44 28.0491 143.27 20.6891 138.36 28.5591C133.65 18.6091 124.65 30.4791 135.03 32.5591C127.03 37.4291 133.88 44.8691 137.96 36.5591C142.62 42.6791 149.34 36.1891 142 32.4891Z" fill="#FFC219"/>
<path d="M140.35 32.4301C138.52 26.9601 134.35 36.1701 139.78 33.4301V33.4901L139.84 33.4101C140.135 33.165 140.319 32.8119 140.35 32.4301V32.4301Z" fill="#963C85"/>
<path d="M164.41 94.2988C167.85 93.9288 171.41 87.5488 169.08 85.2988C167.17 86.8688 160.88 91.8288 164.41 94.2988Z" fill="#ADCA3C"/>
<path d="M100.65 152.479C101.06 155.919 107.48 159.399 109.65 157.029C108.11 155.139 103.06 148.919 100.65 152.479Z" fill="#ADCA3C"/>
<path d="M162.84 106.819C165.1 109.509 172.84 111.379 175.49 107.949C174.2 105.659 163.65 103.259 162.84 106.819Z" fill="#ADCA3C"/>
<path d="M166.26 118.798C176.43 125.478 170.78 113.218 164.59 113.928C163.2 114.728 164.58 117.528 166.26 118.798Z" fill="#ADCA3C"/>
<path d="M132.92 117.899C136.546 118.481 140.123 116.615 141.72 113.309C139.5 111.619 132.5 114.639 132.92 117.899Z" fill="#ADCA3C"/>
<path d="M73.7901 161.498C77.3307 160.502 79.7802 157.277 79.7901 153.598C77.0701 152.998 72.0001 158.728 73.7901 161.498Z" fill="#ADCA3C"/>
<path d="M23.4905 106.299C17.0005 111.699 25.3005 109.769 28.0805 107.399C31.7405 103.619 25.8705 104.649 23.4905 106.299Z" fill="#ADCA3C"/>
<path d="M20.4698 100.25C18.7898 107.89 26.1198 100.11 26.2098 95.8298C25.3198 93.9998 21.5298 98.3898 20.4698 100.25Z" fill="#ADCA3C"/>
<path d="M15.1301 128.879C17.3001 130.479 20.8801 125.979 20.9401 123.219C21.1201 118.159 15.0901 126.329 15.1301 128.879V128.879Z" fill="#ADCA3C"/>
<path d="M4.58984 105.17C6.47984 107.04 10.4998 101.89 9.99984 99.1697C8.23984 97.1697 4.86984 102.77 4.58984 105.17Z" fill="#ADCA3C"/>
<path d="M0 100.819C0.35 102.889 5.42 101.359 6.41 99.2794C6.24 97.1694 1.43 99.2394 0 100.819Z" fill="#ADCA3C"/>
<path d="M146.51 119.999C147.532 120.036 148.552 119.87 149.51 119.509C146.62 126.719 156.06 130.899 155.15 121.129C161.31 128.429 166.68 117.829 159.15 114.989C164.43 113.109 162.25 105.859 156.34 110.159C156.43 101.219 146.08 103.379 149.99 112.329C145.91 110.769 139.1 119.159 146.51 119.999V119.999Z" fill="#EE548A"/>
<path d="M154.49 116.87C156.93 115.35 152.88 111.24 151.77 115.39C151.87 116.76 152.75 117.3 154.49 116.87Z" fill="#963C85"/>
<path d="M81.9297 150.998C82.9359 151.11 83.9541 151.029 84.9297 150.758C81.4297 157.688 90.4797 162.658 90.4097 152.858C95.7797 160.548 102.25 150.638 94.8597 147.068C100.28 145.648 98.7197 138.238 92.4697 142.018C93.3097 133.018 82.8097 134.418 85.9597 143.638C82.1097 141.768 74.6097 149.548 81.9297 150.998Z" fill="#EE548A"/>
<path d="M90.1399 148.579C92.6999 147.279 89.0099 142.829 87.5499 146.869C87.5399 148.239 88.3699 148.869 90.1399 148.579Z" fill="#963C85"/>
<path d="M156.3 100.058C153.3 106.248 161.06 107.748 159.88 100.058C166.12 106.768 171.2 95.3285 160.48 96.4185C165.8 88.6185 155.4 84.6485 157.3 94.7685C149.16 90.2985 146.51 102.148 156.3 100.058Z" fill="#F48EB2"/>
<path d="M159.3 98.5784C160.91 97.5784 159.07 95.2084 157.47 96.2384C155.87 97.2684 157.71 99.6084 159.3 98.5784Z" fill="#963C85"/>
<path d="M139 105.24C136.18 107.75 139.26 112.24 142.41 107.35C146.58 113.62 150.32 107.09 144.16 103.92C150.28 99.3996 144.38 93.8296 141.78 102.5C138.66 97.5496 132.88 103.22 139 105.24V105.24Z" fill="#FFC219"/>
<path d="M143.11 106.4C143.753 105.98 143.935 105.118 143.515 104.475C143.095 103.831 142.233 103.65 141.59 104.07C141.174 104.341 140.934 104.814 140.961 105.311C140.988 105.807 141.278 106.251 141.721 106.476C142.164 106.7 142.694 106.671 143.11 106.4V106.4Z" fill="#963C85"/>
<path d="M73.3303 138.839C71.1703 142.149 75.5703 145.329 77.1603 140.009C82.8003 145.009 84.7403 137.719 77.9703 136.239C82.7203 130.369 75.6203 126.329 75.3103 135.479C71.0803 131.479 66.9403 138.439 73.3303 138.839Z" fill="#FFC219"/>
<path d="M77.6397 138.89C78.1617 138.321 78.1236 137.437 77.5547 136.915C76.9859 136.393 76.1017 136.431 75.5798 137C75.0578 137.569 75.0959 138.453 75.6648 138.975C76.2336 139.497 77.1178 139.459 77.6397 138.89Z" fill="#963C85"/>
<path d="M98.4001 134.608C94.4601 134.958 94.6701 140.378 99.8401 138.348C99.3901 145.948 106.33 142.868 103.31 136.668C110.86 136.778 109.67 128.668 102.31 134.098C102.81 128.188 94.7701 129.408 98.4001 134.608Z" fill="#F48EB2"/>
<path d="M101 137.999C101.74 138.012 102.362 137.443 102.412 136.704C102.463 135.965 101.925 135.316 101.19 135.229C100.45 135.215 99.8284 135.785 99.7777 136.523C99.727 137.262 100.265 137.911 101 137.999Z" fill="#963C85"/>
<path d="M9.58976 110.29C10.0083 110.756 10.4817 111.169 10.9998 111.52C-0.880242 112.52 5.57976 121.92 13.5898 115.07C7.58976 129.19 21.5898 123.54 16.5898 114.12C21.8498 117.42 26.3798 111.54 18.5898 110.87C24.2798 105.3 16.2998 102.58 14.9798 109.27C13.4998 105.09 5.30976 104.58 9.58976 110.29Z" fill="#EE548A"/>
<path d="M14.1001 113.539C16.3101 114.629 17.4401 109.799 13.9401 110.909C13.0001 111.599 13.0001 112.469 14.1001 113.539Z" fill="#963C85"/>
<path d="M21.8297 117.279C21.6897 118.519 23.5597 119.759 25.3497 119.609C19.4597 122.069 23.2997 128.799 28.3497 123.179C30.1297 132.469 38.6197 126.179 32.3497 119.849C41.7097 121.219 41.6097 111.929 32.0297 115.749C35.7997 105.749 25.6097 109.259 27.3597 115.939C26.2097 114.999 22.5797 114.719 21.8297 117.279V117.279Z" fill="#F48EB2"/>
<path d="M27.6898 117.498C26.8798 121.788 35.0698 118.408 29.3998 116.238C28.6354 116.296 27.9712 116.785 27.6898 117.498Z" fill="#963C85"/>
<path d="M10.1798 90.3199C0.44979 90.6299 3.92979 100.32 11.7198 95.4499C11.5698 106.51 24.9198 99.6699 16.4798 93.2899C25.9898 92.4699 22.8198 82.7299 15.5898 88.4399C14.1498 80.9999 5.14979 83.6999 10.1798 90.3199V90.3199Z" fill="#FFC219"/>
<path d="M11.6698 91.1197C10.9098 96.8397 18.7398 90.4097 12.6698 90.4297H12.7298H12.6398C12.2304 90.5053 11.8754 90.7578 11.6698 91.1197Z" fill="#963C85"/>
</g>
<defs>
<clipPath id="clip0_3_22946">
<rect width="176" height="162" fill="white"/>
</clipPath>
</defs>
</svg>
