<svg width="174" height="172" viewBox="0 0 174 172" fill="none" xmlns="http://www.w3.org/2000/svg">
<path d="M173.332 85.9991C167.806 202.044 4.176 199.145 0 85.9991C5.568 -30.1009 169.17 -27.2019 173.332 85.9991Z" fill="#FEFEFE"/>
<path d="M42.0937 85.666C34.7996 91.9218 41.9127 74.9021 40.7434 69.3537C40.7434 67.5228 39.0452 68.2441 36.8737 70.9905C36.651 71.6008 35.6626 71.2679 35.955 70.1999C38.3353 62.0715 46.8265 62.2102 42.3442 76.9828C42.2329 71.3234 54.9558 54.3731 53.1879 72.8215H53.4663C53.8422 67.6476 63.7114 57.6605 63.795 71.5592C64.1151 73.5983 57.8511 91.9357 66.913 80.2841L67.0244 80.5476C67.3446 81.366 67.2332 81.0608 67.9153 82.8363C67.2054 85.2915 59.438 91.0757 58.575 82.6976C63.6001 64.9428 56.5566 60.2544 52.2135 85.6799C52.0604 86.8589 48.9841 88.1628 48.9841 85.125C53.1879 67.7724 50.1116 56.8699 42.0937 85.666Z" fill="#606593"/>
<path d="M74.0956 76.9409C77.4782 80.0619 70.0727 93.5861 65.507 83.3216C63.3911 76.5248 72.467 68.9929 79.1068 79.0771L78.8563 80.908C77.5085 79.3069 75.9383 77.9056 74.1931 76.7467L74.0956 76.9409ZM70.0727 84.4451C71.8963 85.7629 74.4019 72.1971 68.9591 78.3003C68.6668 79.2019 66.6902 83.9874 70.0727 84.4451Z" fill="#606593"/>
<path d="M88.141 84.0443C81.5847 88.4552 76.5596 88.5939 77.9516 74.9033C76.2116 75.0143 70.2677 72.6839 78.3135 72.7949C77.7567 64.9578 90.8415 57.2317 83.7284 73.1278C91.0781 72.573 87.793 76.3181 82.3364 75.3194C82.0719 75.6523 82.058 75.7217 80.8469 77.2336C80.5546 80.9233 79.7194 88.483 88.1688 80.7152L88.141 84.0443ZM83.965 67.6072C83.4778 64.3197 81.3202 69.5075 80.7912 72.8781L81.5986 72.9475C82.7065 71.3238 83.5128 69.5149 83.9789 67.6072H83.965Z" fill="#606593"/>
<path d="M91.6347 79.0637C107.183 61.0314 89.3936 92.6433 101.212 80.9085L101.42 84.3624C98.1771 87.8162 89.6859 88.6485 94.8781 78.3424H94.5996C93.2076 77.5379 89.6024 89.4391 87.2081 86.1379C87.3334 84.5011 85.2036 61.1701 95.5601 62.2659C98.9288 65.5117 94.0846 73.4598 91.3841 78.9111L91.6347 79.0637ZM92.79 70.8937C93.8758 69.1875 95.7828 59.3114 91.398 68.8546C90.8319 70.7794 90.4497 72.7533 90.2566 74.7498C90.0756 75.7762 89.9225 76.7888 89.8251 77.7737C90.1035 77.0801 90.3958 76.5392 92.79 70.8521V70.8937Z" fill="#606593"/>
<path d="M105.528 86.9426C96.925 87.7332 101.198 68.2445 109.383 76.0123C110.246 78.4258 107.908 82.06 104.094 82.9477C105.486 84.751 107.114 84.7648 111.861 81.0197L113.546 82.7258C111.652 84.0852 110.678 86.3739 105.528 86.9426ZM103.801 80.77C104.595 81.5468 110.066 76.4561 105.542 76.8029C104.353 77.7676 103.704 79.2452 103.801 80.77Z" fill="#606593"/>
<path d="M110.983 84.2385C111.082 81.0885 111.63 77.9685 112.612 74.9727C114.143 73.1417 115.396 73.7936 114.742 78.1769H114.881C114.436 78.1769 119.057 70.5201 119.809 75.9159C119.6 77.4278 117.735 83.323 123.985 78.6069L123.79 81.6446C121.577 83.2259 116.927 84.8627 116.649 78.7178H116.44C115.535 80.4517 112.89 92.6027 110.983 84.2385V84.2385Z" fill="#606593"/>
<path d="M122.635 70.2966C122.635 68.7015 122.802 67.3421 123.038 64.5263C124.43 61.7521 129.428 61.3915 125.126 70.3383C125.099 70.7405 123.136 73.0431 122.635 70.2966V70.2966Z" fill="#606593"/>
<path d="M130.165 82.0466C132.314 80.033 134.225 77.7804 135.859 75.333C136.736 73.4189 142.29 73.3772 137.947 77.8437C138.086 79.9382 138.907 80.1324 138.531 83.725C139.394 83.073 140.104 83.184 143.111 81.2005V84.1411C140.55 85.4311 132.991 90.1888 130.583 84.585C128.954 85.1676 128.063 83.3227 130.165 82.0466V82.0466ZM131.794 83.725C134.063 86.2218 136.596 84.5572 135.399 79.9521L131.794 83.725Z" fill="#606593"/>
<path d="M73.5806 91.6452C91.0502 89.3426 86.5818 121.066 68.5833 114.297C67.4836 113.381 67.8455 92.5885 74.541 97.1936C73.6502 97.9426 72.2582 102.589 72.0633 105.197C67.6785 131.205 98.5113 85.4449 67.9986 96.8746C63.8087 105.322 62.1383 91.2291 73.5806 91.6452V91.6452Z" fill="#606593"/>
<path d="M100.07 110.968C99.1097 112.452 94.7249 116.738 92.9292 112.119C82.4753 121.829 83.9508 95.9454 96.1448 102.881C97.4254 101.938 92.4003 114.158 97.5367 110.26C98.2314 109.606 98.8608 108.886 99.416 108.11L100.07 110.968ZM88.9342 109.955C88.9342 112.507 91.5372 112.396 92.1915 108.027L93.1659 103.866C91.6068 104.032 89.3657 105.558 88.8924 109.941L88.9342 109.955Z" fill="#606593"/>
<path d="M104.121 114.392L104.399 112.825C97.2305 120.162 95.8385 98.7595 103.007 102.075C103.606 101.978 98.8313 113.019 103.369 111.285C105.123 110.397 105.109 98.0659 109.118 102.338C108.645 105.112 107.949 108.858 107.309 112.963C109.221 111.746 110.834 110.115 112.027 108.192L112.654 110.966C111.74 112.223 110.615 113.312 109.327 114.184C108.645 114.822 106.766 115.002 106.807 118.512C106.767 118.755 106.739 119.001 106.724 119.247C108.297 127.25 92.0384 129.983 101.156 117.333C102.064 116.275 103.056 115.292 104.121 114.392V114.392ZM104.121 117.513C102.363 119.047 101.205 121.149 100.85 123.45C102.757 124.962 103.884 120.856 104.163 117.513H104.121Z" fill="#606593"/>
<path d="M147.134 43.9565C147.691 46.3978 148.332 48.7836 148.777 51.2249C143.989 45.2881 141.928 54.4152 149.292 55.5526C149.445 58.5147 149.347 61.4843 149 64.43C145.478 57.98 143.515 65.1513 148.373 68.8826C147.886 71.804 147.245 74.6978 146.452 77.552C143.668 67.7313 139.381 76.4145 145.06 81.8797C139.98 92.7407 143.153 88.4823 145.882 82.1294C145.882 82.1294 146.021 82.1294 146.23 81.7826C152.675 81.5468 152.897 69.8813 147.037 78.6894C147.972 75.7966 148.753 72.8564 149.376 69.8813C152.647 69.0213 156.489 56.8703 150.475 62.71C150.729 60.2403 150.808 57.7559 150.712 55.2752C154.888 55.0532 154.122 42.5 150.099 50.0597C149.612 49.2413 149.111 43.2352 147.134 43.9565V43.9565ZM148.944 77.4687L149.209 77.0526C150.35 77.0526 150.684 77.3161 150.197 77.8987C149.167 79.4245 149.473 79.5355 146.703 81.089C147.121 80.3539 147.817 79.1749 148.944 77.4687V77.4687ZM145.617 80.2429C145.617 79.7852 140.982 74.0842 144.378 74.6945C145.227 76.6781 145.603 76.5949 145.562 80.3123L145.617 80.2429ZM151.366 63.4174C151.57 62.4927 151.835 62.3956 152.16 63.1261C152.352 63.2263 152.485 63.4115 152.518 63.625C152.551 63.8386 152.48 64.055 152.327 64.2081C151.823 65.7181 151.002 67.1037 149.918 68.2723C150.406 66.7465 150.628 64.9987 151.31 63.4868L151.366 63.4174ZM148.332 65.5258C148.519 66.0587 148.636 66.6135 148.68 67.1765V67.2458C147.677 65.9836 146.035 64.1803 146.661 62.8626C147.401 63.6391 147.953 64.5737 148.276 65.5952L148.332 65.5258ZM150.795 54.0961C151.297 53.4442 150.239 49.0471 152.522 49.4216C152.995 50.4481 152.424 52.4316 150.795 54.0961ZM148.011 52.3761C148.434 52.9372 148.811 53.5309 149.139 54.1516C146.285 54.7065 144.211 47.6878 148.053 52.3484L148.011 52.3761Z" fill="#F7D7BA"/>
<path d="M145.046 38.3796C145.909 33.3028 151.603 37.5196 148.053 43.3177C145.951 48.4222 137.335 35.8135 145.046 38.3796Z" fill="#BD9AB4"/>
<path d="M99.4023 13.6767C101.532 15.0638 103.676 16.2428 105.722 17.6577C98.1356 16.8254 103.147 24.7319 109.146 20.3486C111.362 22.3341 113.402 24.506 115.243 26.8402C107.754 24.7873 112.543 31.3899 117.958 30.4328C119.682 32.8409 121.281 35.3364 122.746 37.9093C113.587 32.9157 117.178 42.1815 124.82 41.9735C128.927 53.2367 128.147 47.9796 125.572 41.5712C125.572 41.5712 125.655 41.4602 125.572 41.0857C129.943 36.9244 122.05 27.8528 123.943 38.3115C122.816 36.1477 121.424 33.6231 119.35 30.4328C121.048 27.5199 115.174 16.1873 115.035 24.5931C113.473 22.6758 111.78 20.8683 109.968 19.1835C112.752 15.9515 103.119 7.64283 105.792 15.9238C104.915 15.6741 100.293 11.7764 99.4023 13.6767V13.6767ZM124.458 36.1338C124.458 35.9673 124.458 35.8148 124.347 35.6483C125.154 34.8438 125.586 34.8022 125.642 35.5512C126.003 37.3683 126.296 37.2296 125.433 40.2812C125.28 39.4212 124.876 38.0896 124.431 36.1338H124.458ZM124.124 40.4893C123.331 39.8373 118.32 40.2257 118.668 37.4515C120.811 37.4515 121.674 38.0619 124.096 40.4893H124.124ZM116.246 24.5377C115.717 23.7193 115.828 23.4696 116.594 23.7748C116.802 23.708 117.03 23.7449 117.206 23.874C117.382 24.0031 117.486 24.2086 117.484 24.4267C118.199 25.847 118.603 27.4026 118.668 28.9902C117.888 27.4922 116.816 26.0773 116.218 24.5377H116.246ZM115.536 28.1719C116.033 28.4295 116.499 28.7412 116.928 29.1012C115.327 28.9348 112.877 28.8099 112.39 27.4367C113.482 27.4324 114.559 27.6843 115.536 28.1719ZM109.132 18.2402C109.021 17.4219 105.151 15.0638 107.031 13.7322C108.158 14.1344 109.16 15.9377 109.174 18.2402H109.132ZM105.959 18.9615C106.662 19.0514 107.357 19.2046 108.033 19.4193V19.4886C106.432 21.8744 99.987 18.379 106 18.9615H105.959Z" fill="#F7D7BA"/>
<path d="M93.9739 11.2072C90.8836 6.69918 98.47 6.44951 99.5419 12.5943C101.727 17.6711 86.5963 14.8414 93.9739 11.2072Z" fill="#BD9AB4"/>
<path d="M44.1685 25.8964C46.6184 25.3277 49.0126 24.7035 51.4625 24.2596C45.5048 29.0174 54.6641 31.0842 55.8056 23.7464C58.7781 23.5939 61.7583 23.6913 64.7144 24.0377C58.2416 27.5471 65.4382 29.5029 69.1966 24.6619C72.1468 25.1465 75.0695 25.7855 77.9523 26.5761C68.0969 29.3503 76.8248 33.6087 82.3093 27.9632C93.1947 33.04 88.9213 29.8635 82.5598 27.1587C82.5598 27.1587 82.5598 27.02 82.2118 26.798C81.9613 20.3758 70.2545 20.1677 79.0937 25.9935C76.1889 25.0681 73.2387 24.2903 70.2545 23.6632C69.3219 20.4174 57.0723 16.6445 63.0022 22.5951C60.5192 22.3423 58.0213 22.2635 55.5272 22.3593C55.3045 18.198 42.7069 18.9609 50.3072 22.9696C49.4859 23.4274 43.4446 23.9267 44.1685 25.8964V25.8964ZM77.7992 24.1348L77.3816 23.8712C77.3816 22.7338 77.66 22.4148 78.2307 22.8864C79.7758 23.9267 79.8733 23.6216 81.4323 26.3819C80.7363 25.8964 79.5113 25.2029 77.7992 24.1348V24.1348ZM80.5832 27.45C80.1238 27.45 74.4027 32.069 75.0152 28.6845C77.0057 27.7413 76.9222 27.4083 80.6528 27.45H80.5832ZM63.7678 21.7213C62.8213 21.5271 62.7238 21.2635 63.4755 20.9445C63.5715 20.7481 63.758 20.6111 63.9746 20.5779C64.1913 20.5447 64.4105 20.6195 64.5613 20.778C66.0739 21.2789 67.4636 22.0919 68.6398 23.1638C66.9926 22.7647 65.3665 22.2833 63.7678 21.7213ZM65.8837 24.7451C66.4251 24.5679 66.9859 24.4561 67.5541 24.4122C66.3013 25.4248 64.4777 27.0616 63.1553 26.4235C63.928 25.6686 64.8602 25.0952 65.8837 24.7451V24.7451ZM54.2883 22.1929C53.6341 21.6935 49.2214 22.7477 49.5973 20.4867C50.6969 20.0429 52.6736 20.6116 54.2883 22.1929ZM52.5622 24.9671C53.1243 24.5335 53.7254 24.1527 54.3579 23.8296C54.9565 26.7425 47.9269 28.8093 52.5901 24.9671H52.5622Z" fill="#F7D7BA"/>
<path d="M38.5722 27.9777C33.4775 27.1038 37.7092 21.4445 43.5277 24.9816C48.7199 27.0622 35.997 35.6622 38.5722 27.9777Z" fill="#BD9AB4"/>
<path d="M13.7807 73.5158C15.1727 71.4074 16.3559 69.2713 17.7758 67.2322C16.9545 74.7919 24.875 69.7984 20.4762 63.8061C22.4757 61.6052 24.6547 59.5731 26.9908 57.7306C24.9306 65.1932 31.5566 60.4216 30.5961 54.9564C33.0128 53.2423 35.5171 51.6543 38.099 50.1987C33.0878 59.3258 42.3863 55.7471 42.1775 48.118C53.4806 44.04 48.2049 44.8029 41.7878 47.369C41.6263 47.3083 41.4481 47.3083 41.2866 47.369C37.1106 43.0135 28.007 50.8784 38.5026 48.9919C35.799 50.3764 33.1693 51.8997 30.6239 53.5555C27.7007 51.8493 16.3281 57.7168 24.7636 57.8555C22.8328 59.4242 21.0141 61.1252 19.3209 62.9461C16.0775 60.2551 7.73944 69.7845 16.0497 67.1074C15.7852 67.9674 11.8737 72.5587 13.7807 73.5158V73.5158ZM36.3172 48.548L35.83 48.6451C35.0226 47.8545 34.9948 47.4245 35.7326 47.3551C37.5561 47.0084 37.4169 46.7171 40.4793 47.5632C39.6162 47.7158 38.2799 48.0626 36.3172 48.548ZM40.6881 48.8809C40.0338 49.6439 40.354 54.6929 37.6953 54.2906C37.6953 52.1268 38.2521 51.3222 40.6881 48.8532V48.8809ZM24.6801 56.718C23.8588 57.2451 23.6082 57.1342 23.9145 56.3713C23.8538 56.164 23.8934 55.9404 24.0216 55.7664C24.1499 55.5924 24.3521 55.4878 24.5687 55.4835C25.9955 54.7771 27.5564 54.38 29.1484 54.3184C27.7005 55.1844 26.2091 55.9761 24.6801 56.6903V56.718ZM28.3271 57.37C28.5791 56.8709 28.8924 56.405 29.2598 55.9829C29.0927 57.5919 28.9674 60.0193 27.5894 60.5048C27.5807 59.4073 27.8335 58.3234 28.3271 57.3422V57.37ZM18.3604 63.7506C17.553 63.8477 15.1727 67.7039 13.8364 65.8313C14.2401 64.7216 16.0497 63.7229 18.3604 63.7229V63.7506ZM19.0842 66.8993C19.1791 66.1976 19.3375 65.5058 19.5575 64.8326C22.0074 66.4555 18.4996 72.8638 19.0842 66.8716V66.8993Z" fill="#F7D7BA"/>
<path d="M11.3033 78.8698C6.79324 81.9492 6.52876 74.3756 12.6953 73.3214C17.79 71.1298 14.9504 86.2214 11.3033 78.8698Z" fill="#BD9AB4"/>
<path d="M26.0445 128.499C25.4877 126.058 24.8474 123.672 24.402 121.23C29.1905 127.153 31.2506 118.04 23.8869 116.903C23.7336 113.941 23.8313 110.971 24.1793 108.025C27.701 114.461 29.6637 107.29 24.8057 103.559C25.2929 100.642 25.9341 97.7529 26.7266 94.9034C29.5106 104.71 33.798 96.0269 28.1186 90.5618C33.2133 79.7147 30.0396 83.9592 27.3113 90.3121C27.3113 90.3121 27.1721 90.3121 26.9633 90.6589C20.5183 90.8947 20.2956 102.574 26.142 93.7521C25.4181 96.0824 24.5969 98.8427 23.8034 102.56C20.5322 103.42 16.6903 115.585 22.7177 109.731C22.464 112.201 22.3849 114.686 22.481 117.166C18.305 117.388 19.0706 129.941 23.0935 122.382C23.5668 123.2 24.0679 129.206 26.0445 128.499V128.499ZM24.2767 94.9727L24.0122 95.3889C22.8847 95.3889 22.5506 95.1253 23.0239 94.5566C24.0679 93.0169 23.7617 92.906 26.5317 91.3663C26.0585 92.0876 25.3485 93.2805 24.2767 94.9727ZM27.6036 92.1986C27.6036 92.6563 32.2529 98.3434 28.8425 97.7469C27.9516 95.7079 27.5757 95.8605 27.6036 92.1431V92.1986ZM21.8546 108.969C21.6597 109.912 21.3953 110.009 21.0751 109.26C20.8838 109.164 20.7488 108.984 20.7105 108.774C20.6722 108.564 20.735 108.349 20.8802 108.192C21.3839 106.689 22.1997 105.309 23.2745 104.141C22.7733 105.695 22.5367 107.457 21.8546 108.969V108.969ZM24.8892 106.805C24.711 106.27 24.5988 105.716 24.5551 105.154C25.5713 106.402 27.2138 108.206 26.5874 109.523C25.8218 108.757 25.2411 107.828 24.8892 106.805ZM22.3836 118.331C21.8685 118.983 22.9265 123.394 20.6575 123.006C20.1842 122.063 20.7549 120.01 22.3836 118.373V118.331ZM25.1676 120.065C24.7355 119.506 24.3579 118.907 24.0401 118.276C26.8937 117.749 28.9677 124.754 25.1258 120.107L25.1676 120.065Z" fill="#F7D7BA"/>
<path d="M28.1322 134.062C27.2692 139.139 21.5759 134.936 25.1255 129.124C27.2135 124.019 35.8439 136.628 28.1322 134.062Z" fill="#BD9AB4"/>
<path d="M73.7761 158.78C71.6463 157.393 69.5026 156.2 67.4564 154.799C75.0428 155.617 70.0316 147.711 64.0182 152.094C61.8078 150.118 59.7682 147.961 57.9212 145.644C65.4102 147.697 60.6217 141.094 55.1372 142.038C53.4247 139.631 51.8493 137.13 50.4183 134.547C59.5777 139.541 55.9863 130.275 48.3303 130.483C44.2378 119.234 45.0034 124.477 47.5786 130.885V131.385C43.2078 135.546 51.1004 144.618 49.2073 134.159C50.3348 136.309 51.7268 138.847 53.8009 142.038C52.0887 144.937 57.9769 156.269 58.1161 147.863C59.6832 149.794 61.3907 151.606 63.2247 153.287C60.5242 156.519 70.0873 164.828 67.4007 156.547C68.2081 156.741 72.8852 160.666 73.7761 158.78V158.78ZM48.7201 136.309C48.7201 136.475 48.7201 136.642 48.8175 136.794C48.0241 137.599 47.5926 137.64 47.523 136.891C47.175 135.074 46.8826 135.227 47.7457 132.175C47.9406 133.021 48.2886 134.353 48.7201 136.309V136.309ZM49.0542 131.967C49.8198 132.605 54.8866 132.286 54.483 134.949C52.3671 134.949 51.5041 134.381 49.082 131.967H49.0542ZM56.9329 147.919C57.4618 148.723 57.3366 148.973 56.5849 148.668C56.3751 148.734 56.1464 148.697 55.9682 148.568C55.79 148.44 55.6831 148.235 55.6801 148.016C54.9754 146.597 54.5771 145.048 54.5108 143.466C55.2903 144.964 56.3622 146.365 56.9607 147.919H56.9329ZM57.5732 144.285C57.0743 144.03 56.6071 143.718 56.1812 143.355C57.782 143.522 60.218 143.647 60.7052 145.034C59.6265 145 58.5677 144.735 57.601 144.257L57.5732 144.285ZM63.9764 154.202C64.0738 155.021 67.9575 157.393 66.0644 158.724C65.0065 158.308 64.0321 156.505 64.0321 154.202H63.9764ZM67.1362 153.481C66.4367 153.393 65.747 153.239 65.0761 153.023C66.8161 150.582 73.1775 154.078 67.1641 153.481H67.1362Z" fill="#F7D7BA"/>
<path d="M79.2051 161.236C82.2953 165.744 74.695 165.994 73.6371 159.849C71.4517 154.772 86.5827 157.602 79.2051 161.236Z" fill="#BD9AB4"/>
<path d="M129.01 146.56C126.56 147.114 124.166 147.753 121.716 148.183C127.66 143.425 118.515 141.372 117.373 148.696C114.401 148.853 111.421 148.76 108.464 148.418C114.923 144.895 107.727 142.87 103.982 147.794C101.054 147.309 98.1542 146.665 95.2961 145.866C105.138 143.092 96.4236 138.834 90.9391 144.479C80.0537 139.416 84.3271 142.579 90.6886 145.284C90.6886 145.284 90.6886 145.436 91.0366 145.644C91.2871 152.066 102.994 152.274 94.1407 146.449C97.0552 147.37 100.015 148.143 103.008 148.765C103.857 152.025 116.065 155.853 110.19 149.861C112.669 150.109 115.162 150.183 117.652 150.083C117.888 154.244 130.486 153.495 122.886 149.486C123.693 149.029 129.72 148.529 129.01 146.56V146.56ZM95.3796 148.307L95.7833 148.571C95.7833 149.708 95.5188 149.958 94.9481 149.556C93.403 148.515 93.2916 148.834 91.7465 146.074C92.4703 146.546 93.6675 147.239 95.3796 148.307V148.307ZM92.5956 144.992C93.055 144.992 98.7622 140.373 98.1636 143.758C96.1591 144.659 96.2566 145.034 92.526 144.992H92.5956ZM109.481 150.721C110.427 150.929 110.525 151.179 109.773 151.498C109.672 151.692 109.485 151.827 109.268 151.862C109.052 151.898 108.831 151.829 108.673 151.678C107.162 151.177 105.776 150.359 104.609 149.278C106.126 149.805 107.894 150.041 109.411 150.721H109.481ZM107.351 147.697C106.817 147.887 106.26 148.003 105.694 148.044C106.947 147.031 108.757 145.394 110.079 146.033C109.289 146.796 108.331 147.366 107.281 147.697H107.351ZM118.932 150.208C119.573 150.707 123.999 149.653 123.609 151.928C122.496 152.399 120.505 151.831 118.863 150.208H118.932ZM120.658 147.434C120.096 147.867 119.495 148.248 118.863 148.571C118.222 145.714 125.28 143.647 120.589 147.461L120.658 147.434Z" fill="#F7D7BA"/>
<path d="M134.592 144.465C139.701 145.339 135.469 151.012 129.651 147.461C124.514 145.38 137.167 136.794 134.592 144.465Z" fill="#BD9AB4"/>
<path d="M159.398 98.9961C158.006 101.118 156.808 103.254 155.402 105.294C156.224 97.72 148.289 102.727 152.618 108.706C150.644 110.912 148.483 112.944 146.16 114.781C148.22 107.319 141.594 112.09 142.54 117.555C140.119 119.257 137.61 120.831 135.024 122.272C140.035 113.144 130.75 116.723 130.959 124.338C119.656 128.5 124.918 127.654 131.349 125.087C131.349 125.087 131.474 125.171 131.85 125.087C136.026 129.457 145.13 121.578 134.634 123.478C137.347 122.085 139.986 120.552 142.54 118.887C145.45 120.593 156.822 114.726 148.387 114.601C150.322 113.027 152.145 111.322 153.843 109.496C157.073 112.271 165.411 102.658 157.101 105.335C157.393 104.475 161.291 99.87 159.398 98.9961V98.9961ZM136.861 123.964L137.334 123.853C138.156 124.644 138.183 125.074 137.446 125.143C135.608 125.504 135.761 125.795 132.699 124.935C133.548 124.727 134.884 124.38 136.861 123.936V123.964ZM132.49 123.631C133.13 122.868 132.81 117.819 135.483 118.221C135.483 120.33 134.912 121.19 132.49 123.603V123.631ZM148.498 115.78C149.306 115.253 149.556 115.364 149.25 116.127C149.317 116.334 149.28 116.561 149.15 116.737C149.021 116.913 148.814 117.016 148.596 117.014C147.174 117.723 145.618 118.125 144.03 118.194C145.476 117.304 146.968 116.489 148.498 115.752V115.78ZM144.851 115.128C144.597 115.626 144.284 116.091 143.918 116.515C144.099 114.92 144.211 112.479 145.603 111.993C145.583 113.08 145.326 114.15 144.851 115.128V115.128ZM154.804 108.747C155.625 108.636 158.006 104.78 159.342 106.653C158.924 107.721 157.115 108.72 154.804 108.734V108.747ZM154.094 105.585C153.992 106.285 153.834 106.977 153.621 107.652C151.171 106.001 154.679 99.5787 154.094 105.571V105.585Z" fill="#F7D7BA"/>
<path d="M161.876 93.5866C166.386 90.5073 166.637 98.067 160.484 99.135C155.375 101.257 158.215 86.2212 161.876 93.5866Z" fill="#BD9AB4"/>
</svg>
