<svg width="205" height="159" viewBox="0 0 205 159" fill="none" xmlns="http://www.w3.org/2000/svg">
<path d="M101.05 26.4196C77.7503 45.2796 75.9403 37.4196 53.5303 32.6996C68.0703 17.8696 88.2903 7.1496 101.72 26.2096" fill="#209BAA"/>
<path d="M89.3096 16.6406C79.9496 21.1806 67.1796 22.5406 60.3096 31.5606C65.3696 31.2906 70.2096 33.5106 75.1096 35.5606C81.7196 36.6706 86.4596 34.3506 92.8996 32.6106C95.4196 30.1706 97.7596 27.2806 101.08 26.4006L101.75 26.1906C99.1096 22.1206 94.2696 18.0006 89.3096 16.6406V16.6406Z" fill="#007096"/>
<path d="M92.4804 26.3195C95.0923 26.2243 97.7075 26.3414 100.3 26.6695C100.54 26.5795 100.79 26.4895 101.05 26.4195L101.72 26.2095C101.53 25.9195 101.34 25.6295 101.13 25.3495C90.5704 24.4595 78.9504 24.8295 68.4404 29.1495C76.3115 27.2469 84.3827 26.2968 92.4804 26.3195V26.3195Z" fill="#001A4F"/>
<path d="M103.06 26.4196C126.36 45.2796 128.17 37.4196 150.58 32.6996C136 17.8696 115.82 7.1496 102.39 26.2096" fill="#209BAA"/>
<path d="M114.8 16.6406C124.16 21.1806 136.92 22.5406 143.8 31.5606C138.8 31.2906 133.91 33.5106 129.01 35.5606C122.4 36.6706 117.66 34.3506 111.22 32.6106C108.69 30.1706 106.36 27.2806 103.04 26.4006L102.37 26.1906C105 22.1206 109.84 18.0006 114.8 16.6406V16.6406Z" fill="#007096"/>
<path d="M111.63 26.3195C109.018 26.2241 106.403 26.3412 103.81 26.6695C103.56 26.5795 103.32 26.4895 103.06 26.4195L102.39 26.2095C102.57 25.9195 102.77 25.6295 102.98 25.3495C113.54 24.4595 125.16 24.8295 135.67 29.1495C127.798 27.2475 119.727 26.2973 111.63 26.3195V26.3195Z" fill="#001A4F"/>
<path d="M116.69 32.6799C120.95 27.0599 111.69 24.8899 108.69 22.4699C124.69 21.6199 127.69 10.0699 114.23 5.76988C109.35 5.92988 109.23 10.3399 104.89 12.9099C105.71 -9.37012 85.3798 0.849879 96.6498 16.1299C77.2798 -0.540121 76.7598 28.5599 93.9998 23.0899C74.7598 36.6499 100.39 50.5199 101.62 28.1799C103.24 36.8699 111.32 38.0499 116.69 32.6799Z" fill="#ED746B"/>
<path d="M104.47 16.8301C99.3001 14.4901 93.3801 18.6301 98.6501 23.8301C102.78 27.6801 109.23 21.8901 105.42 17.3901" fill="#001A4F"/>
<path d="M103.471 17.9987C89.6007 16.8687 107.471 30.1587 104.091 18.3787Z" fill="#FFE4B3"/>
<path d="M96.7408 31.999H96.6808C94.4408 29.359 99.1308 20.399 101.851 20.709C98.517 23.4978 96.6359 27.6539 96.7408 31.999Z" fill="#FFE4B3"/>
<path d="M109.301 27.8788C109.781 25.1488 104.121 22.4588 101.991 22.1288C101.281 20.2488 111.181 24.4388 109.821 27.7488C109.786 27.8304 109.719 27.8944 109.636 27.9264C109.554 27.9583 109.461 27.9556 109.381 27.9188C109.351 27.9117 109.324 27.898 109.301 27.8788Z" fill="#FFE4B3"/>
<path d="M102.111 20.2583C103.321 17.8383 101.551 13.7283 100.221 10.7383C102.911 12.7383 104.441 19.2383 102.151 20.2883L102.111 20.2583Z" fill="#FFE4B3"/>
<path d="M103.36 21.0787C103.72 19.6787 111.83 14.0787 112.11 16.1787C109.37 16.5187 106.13 19.5987 103.36 21.0787Z" fill="#FFE4B3"/>
<path d="M91 20.0798V19.9998C91.18 18.3098 99.06 17.9998 100.59 19.0598C101.3 19.3398 100.59 21.3098 100.18 19.5998C98.68 18.5298 92.51 19.5498 91 20.0798Z" fill="#FFE4B3"/>
<path d="M110.21 25.9993C103.5 25.8993 112.21 31.6593 110.51 26.1893Z" fill="#FFE4B3"/>
<path d="M112.261 14.7398C105.551 14.6298 114.261 20.3998 112.571 14.9198Z" fill="#FFE4B3"/>
<path d="M101.58 10.0892C94.8705 9.98918 103.58 15.7592 101.88 10.2792Z" fill="#FFE4B3"/>
<path d="M92.3004 18.5189C85.5804 18.4189 94.3004 24.1789 92.6104 18.7089Z" fill="#FFE4B3"/>
<path d="M97.6501 30.1087C90.9501 30.0087 99.6501 35.7687 97.9601 30.2987Z" fill="#FFE4B3"/>
<path d="M76.3796 53.7496C68.8496 53.8596 63.4796 63.9196 64.4596 71.6096C56.3896 77.1396 58.6197 70.1096 59.3797 64.2096C60.5297 56.2096 62.3797 43.1196 62.3797 43.0096C61.1986 42.3408 59.7843 42.2215 58.5078 42.6828C57.2314 43.1442 56.2202 44.1402 55.7397 45.4096L44.8396 69.9996L46.5396 44.9996C47.5396 44.9996 49.1396 43.3096 47.5396 41.9396C23.1297 37.3596 28.5396 54.3896 35.6297 51.3596C33.5297 48.4996 35.0496 43.8696 40.7596 44.0096C33.9196 66.9996 29.1696 72.7596 25.4496 74.1796C25.4389 72.3715 25.7785 70.5785 26.4496 68.8996C11.3696 62.9996 25.6496 103 40.9996 51.1096L40.7596 56.6196L39.0996 77.4696C40.5696 78.4696 44.3096 78.4096 45.3596 75.3096L55.6196 51.1996C54.6596 60.8296 45.9996 89.3196 64.9996 73.7096C74.9996 90.5796 94.4696 55.5696 76.3796 53.7496V53.7496ZM73.4097 73.9996C67.7497 73.2296 70.8396 59.1496 75.7796 57.6496C84.6096 54.9996 78.2597 74.9296 73.4097 73.9996Z" fill="#001A4F"/>
<path d="M152.07 53.9299C149.9 53.9299 147.88 55.2499 145.99 59.0699C149.73 50.1799 136.22 54.7299 138.99 58.7799C139.53 58.3599 140.45 57.5599 140.4 59.3999L138.4 68.9199C135.72 72.3899 126.33 77.5299 124.29 70.4999C154.12 52.7099 116.35 44.2099 118.46 71.5899C108.66 78.5899 114.35 65.9599 114.91 60.9199C116.64 52.3599 108.03 51.9999 104.24 58.2199C104.48 56.5599 106.73 47.4699 106.76 45.7299C106.28 41.6399 95.7605 46.1899 99.2005 48.8999C103.09 44.9499 95.2005 71.8999 95.8305 71.7899C84.9505 79.6799 92.8305 60.7899 92.8305 56.8999C94.5705 57.0599 97.1505 57.0099 96.8305 54.1699H93.4205L94.7405 47.9999C91.0305 45.5299 87.7405 50.2499 87.7405 54.2099C86.9628 54.0157 86.1395 54.2244 85.5481 54.7655C84.9567 55.3066 84.676 56.1081 84.8005 56.8999H87.1605C85.1605 66.8499 78.5205 85.6999 95.1005 75.0099L94.5505 77.6099C101.85 81.4599 102.02 65.2399 103.44 61.7499C118.32 48.4599 94.3605 92.3899 119 73.6099C122.44 80.8599 132.2 78.2599 137.5 72.9799L136.5 77.4699C137.94 78.4699 141.98 78.2499 142.67 75.1199L143.23 72.2499C145.12 59.4899 151.83 56.0299 150.34 61.8899C155.16 63.6499 158.09 54.5899 152.07 53.9299V53.9299ZM130.42 57.4199C134.42 59.7599 128.74 65.6699 124.11 68.4799C124.25 65.1899 125.76 57.4199 130.42 57.4199Z" fill="#001A4F"/>
<path d="M157.1 52.9996C158.43 51.0696 159.27 50.1996 158.72 48.0696C155.08 35.1796 173.37 44.9596 158.09 54.2196C157.795 54.1947 157.522 54.0505 157.335 53.8203C157.149 53.5901 157.064 53.2938 157.1 52.9996V52.9996Z" fill="#001A4F"/>
<path d="M163.74 71.8691C164.08 69.8091 166.74 66.8691 169.62 68.8691C164.85 80.4491 183.62 72.6191 170.62 66.8191C168.428 65.3278 167.267 62.7264 167.62 60.0991C169.62 47.2591 189.85 56.5791 178.26 62.0991C177.582 62.0559 176.928 61.8276 176.37 61.4391C179.83 50.5791 165.52 60.0591 176.49 64.9191C177.979 65.6379 179.158 66.8701 179.81 68.3891C183.22 79.1191 162.73 81.9191 163.74 71.8691V71.8691Z" fill="#001A4F"/>
<path d="M81.6304 83.0906C61.3704 82.3606 62.0004 98.4106 70.8504 95.7506C66.4104 89.1406 77.9204 82.3106 85.2604 86.6606C94.9004 94.2706 86.8504 122.121 74.3304 115.801C78.0904 111.941 80.7204 92.8006 82.2404 87.4706C73.7404 82.3106 73.6104 105.991 71.7404 109.591C71.466 110.925 70.9906 112.209 70.3304 113.401C57.5804 108.201 60.2604 125.871 72.4004 117.641C92.6904 130.001 107.59 83.0906 81.6304 83.0906V83.0906ZM66.3304 116.231C62.5704 115.691 66.3304 111.861 69.1504 114.961C68.4187 115.745 67.4026 116.203 66.3304 116.231Z" fill="#001A4F"/>
<path d="M137.83 117.12C137.159 117.125 136.49 117.189 135.83 117.31C136.02 116.46 136.21 115.62 136.4 114.82L140.4 96.1696C132.82 91.7296 132.63 108.95 131.17 112.6C121.44 119.95 128.58 102.48 128.85 98.2096C130.52 93.3596 118.63 96.1496 121.33 100.41C121.87 99.9796 122.81 99.1996 122.75 101.02C122.04 104.54 120.51 109.74 120.14 113.37C108.62 121.92 117.82 99.8696 117.62 96.1696C115.841 95.2137 113.648 95.5213 112.2 96.9296C92.4903 86.6196 89.6203 134.84 108.53 114.93C109.02 122.3 116.15 119.85 120.23 115.93C121.04 121.26 127.82 120.33 130.84 115.82C130.51 116.95 130.23 117.99 129.95 119.03C98.6503 132.16 129.26 151.66 135.03 120.72C136.674 120.502 138.342 120.55 139.97 120.86C140.61 119 139.76 117.12 137.83 117.12V117.12ZM108.65 111.9C96.6503 123.9 100.84 94.4596 111.28 99.2796L108.65 111.9ZM121.4 133.27C115.71 130.84 123.72 124.16 128.98 122.27C126.58 130 124.65 133.27 121.4 133.27V133.27Z" fill="#001A4F"/>
<path d="M14 82.9993C18.81 97.0793 31.76 104.299 39.65 116.699L40.77 116.289C33.68 104.289 20.16 97.0893 15.1 82.5293L14 82.9993Z" fill="#ED746B"/>
<path d="M11.0596 98.4707L10.0596 99.1307C14.9696 105.761 25.5896 105.931 32.9996 107.921L32.3896 106.921C32.4355 106.909 32.4836 106.909 32.5296 106.921C26.2596 104.411 15.6896 104.791 11.0596 98.4707V98.4707Z" fill="#ED746B"/>
<path d="M13.5 97.4396L14 98.5696C9.64999 112.18 -7.37001 90.5696 3.76999 92.6796C3.18999 85.5296 13.64 94.9996 13.5 97.4396Z" fill="#F6D77D"/>
<path d="M16.2197 85.2602L15.6597 85.5102C9.27969 87.6702 2.6497 72.1002 9.9997 75.3302C10.5097 73.2502 12.7497 73.1402 13.5097 75.1402C17.9997 71.4002 18.6197 85.0002 16.2197 85.2602V85.2602Z" fill="#F6D77D"/>
<path d="M12.2998 95.0898C13.0298 95.9498 14.0798 97.3598 13.4998 97.4398L13.9998 98.5698C12.9998 103.03 8.34984 104.38 4.33984 101.4C4.84224 100.684 5.72778 100.344 6.57984 100.54C6.93984 98.5998 8.57984 96.6599 10.5798 98.0499C10.7298 96.9999 11.2798 95.5098 12.2998 95.0898Z" fill="#001A4F"/>
<path d="M17.57 82.0004C17.43 83.7704 16.98 85.1704 16.22 85.2604L15.66 85.5104C12.52 85.7504 10.37 84.7104 9.04004 82.5104C10.23 81.6304 13.7 79.5904 14.81 82.5104C15.85 81.5404 16.9 81.4804 17.57 82.0004Z" fill="#001A4F"/>
<path d="M22.5998 96.4295C20.0298 93.1595 22.2398 87.9095 23.7698 84.6895C26.5098 88.9995 27.6998 93.8195 23.0698 96.9995" fill="#ED746B"/>
<path d="M23.0499 105.051C18.2799 105.331 13.0499 108.551 10.1699 112.231C14.2399 111.781 22.9999 109.941 23.8799 105.231" fill="#ED746B"/>
<path d="M43.5996 109.41C48.4096 106.9 55.5996 96.9699 47.5996 93.8499C45.1696 94.7499 44.7796 93.4099 42.5096 92.6699C38.7796 97.1399 38.5696 103.75 42.5096 109.36" fill="#209BAA"/>
<path d="M42.7402 108.761C66.0502 87.7608 60.7402 134.471 43.4602 110.301Z" fill="#209BAA"/>
<path d="M43.8597 109.82C47.5597 111.7 54.5197 121.16 50.0897 124.49C36.4797 128.05 37.1697 118.75 41.8597 109.49" fill="#209BAA"/>
<path d="M43.4899 109.79C39.9799 139.07 11.4899 107.53 42.5599 108.34Z" fill="#209BAA"/>
<path d="M42.9999 110.001C34.3999 113.471 25.8999 111.271 29.4099 100.191C38.1799 93.9905 42.2099 100.191 42.8999 108.981" fill="#209BAA"/>
<path d="M42.8897 106.25C39.5297 106.52 39.1697 112.25 43.4297 112.25C46.7897 112 47.1397 106.27 42.8897 106.25Z" fill="#001A4F"/>
<path d="M190.11 82.9993C185.3 97.0793 172.35 104.299 164.46 116.699L163.34 116.289C170.43 104.289 183.95 97.0893 189.01 82.5293L190.11 82.9993Z" fill="#ED746B"/>
<path d="M193.05 98.4707L194.05 99.1307C189.14 105.761 178.52 105.931 171.11 107.921L171.72 106.921C171.674 106.909 171.626 106.909 171.58 106.921C177.84 104.411 188.41 104.791 193.05 98.4707V98.4707Z" fill="#ED746B"/>
<path d="M190.61 97.4396L190.16 98.5696C194.51 112.18 211.53 90.5696 200.39 92.6796C200.92 85.5296 190.47 94.9996 190.61 97.4396Z" fill="#F6D77D"/>
<path d="M187.89 85.2602L188.45 85.5102C194.83 87.6702 201.45 72.1002 194.16 75.3302C193.65 73.2502 191.4 73.1402 190.65 75.1402C186.08 71.4002 185.49 85.0002 187.89 85.2602V85.2602Z" fill="#F6D77D"/>
<path d="M191.81 95.0898C191.08 95.9498 190.03 97.3598 190.61 97.4398L190.16 98.5698C191.21 103.03 195.81 104.38 199.82 101.4C199.316 100.681 198.425 100.34 197.57 100.54C197.21 98.5998 195.57 96.6599 193.57 98.0499C193.38 96.9999 192.82 95.5098 191.81 95.0898V95.0898Z" fill="#001A4F"/>
<path d="M186.54 82.0004C186.68 83.7704 187.13 85.1704 187.89 85.2604L188.45 85.5104C191.59 85.7504 193.74 84.7104 195.07 82.5104C193.88 81.6304 190.41 79.5904 189.3 82.5104C188.26 81.5404 187.21 81.4804 186.54 82.0004Z" fill="#001A4F"/>
<path d="M181.51 96.4295C184.08 93.1595 181.87 87.9095 180.34 84.6895C177.6 88.9995 176.41 93.8195 181 96.9995" fill="#ED746B"/>
<path d="M181.06 105.051C185.83 105.331 191.11 108.551 193.94 112.231C189.87 111.781 181.11 109.941 180.23 105.231" fill="#ED746B"/>
<path d="M160.51 109.41C155.7 106.9 148.51 96.9699 156.51 93.8499C158.94 94.7499 159.33 93.4099 161.59 92.6699C165.33 97.1399 165.59 103.75 161.59 109.36" fill="#209BAA"/>
<path d="M161.37 108.761C138.06 87.7608 143.37 134.471 160.65 110.301Z" fill="#209BAA"/>
<path d="M160.25 109.82C156.55 111.7 149.58 121.16 154.02 124.49C167.63 128.05 166.94 118.75 162.25 109.49" fill="#209BAA"/>
<path d="M160.62 109.79C164.12 139.07 192.62 107.53 161.55 108.34Z" fill="#209BAA"/>
<path d="M161.11 110.001C169.71 113.471 178.21 111.271 174.7 100.191C165.92 93.9905 161.9 100.191 161.2 108.981" fill="#209BAA"/>
<path d="M161.22 106.25C164.58 106.52 164.94 112.25 160.68 112.25C157.32 112 157 106.27 161.22 106.25Z" fill="#001A4F"/>
<path d="M158.21 140.029H45.9004L52.2304 149.249L45.9004 158.479H158.21L151.88 149.249L158.21 140.029Z" fill="#007096"/>
<path d="M70.0001 144.73C71.0001 144.73 71.4601 144.98 71.4701 145.62C71.4701 145.95 70.9101 146.11 70.4701 145.72C70.1901 145.72 69.4701 145.72 69.0001 145.78C69.0001 147.91 69.1701 150.71 69.1801 153.85C69.8858 153.9 70.5943 153.9 71.3001 153.85C73.2401 155.29 64.2001 155.59 66.2401 153.85H68.0301C68.0301 150.4 68.0301 150.15 67.8901 145.85C67.8901 145.85 64.6401 146.34 66.0201 144.94C67.1601 144.88 68.2501 144.73 70.0001 144.73V144.73Z" fill="white"/>
<path d="M77.9997 154C79.3597 153.87 82.2097 154.07 82.7497 154.05C82.6831 153.582 82.6831 153.107 82.7497 152.64C82.8197 152.32 83.7497 152.26 83.7497 152.64C83.7497 153.02 83.8197 154.04 83.7497 154.64C83.3797 155.27 79.4597 154.7 77.5097 154.98C77.0797 154.98 76.9497 154.5 76.9497 154.21C75.8697 138 78.2497 146.38 77.9997 154Z" fill="white"/>
<path d="M91.7003 148.001C91.9432 148.751 92.0779 149.532 92.1003 150.321C92.7603 153.771 87.4803 156.871 84.8603 153.321C84.21 152.517 83.8568 151.514 83.8603 150.481C83.7403 148.981 83.6003 148.171 84.6203 146.691C85.3191 145.891 86.2369 145.314 87.2603 145.031C88.3903 143.661 91.1403 146.141 91.7003 148.001V148.001ZM85.5503 147.201C84.611 148.937 84.7229 151.053 85.8403 152.681C86.498 153.479 87.533 153.863 88.5521 153.687C89.5712 153.511 90.4178 152.803 90.7703 151.831C90.9732 151.118 91.0041 150.367 90.8603 149.641C90.5003 147.641 89.8603 146.201 88.1603 145.801C87.1847 146.007 86.2829 146.474 85.5503 147.151V147.201Z" fill="white"/>
<path d="M96.7601 153.23C97.2001 151.62 98.2801 142.16 99.6101 145.36C98.4401 147.01 98.4001 156.24 96.2401 154.44C94.4401 151.82 93.9001 147.83 92.6901 145.34C92.3801 144.69 93.4401 143.98 93.6901 144.84C94.7801 146.93 95.3901 151 96.7601 153.23V153.23Z" fill="white"/>
<path d="M107.59 145.859C106.85 145.859 103.19 145.779 102.59 145.859C102.59 146.159 102.68 148.189 102.69 148.979C104.293 149.067 105.901 149.033 107.5 148.879C108.33 148.819 108.71 149.449 107.86 149.879C106.152 150.098 104.428 150.158 102.71 150.059C102.71 150.249 102.78 153.589 102.82 153.919C104.34 153.989 107.61 153.699 108.07 153.699C110.32 154.639 104.22 155.699 101.78 154.599C101.638 153.943 101.584 153.27 101.62 152.599C101.62 152.019 101.62 150.419 101.62 150.259C101.62 148.649 101.51 146.129 101.51 145.919H101.27C100.47 145.919 100.52 145.019 101.14 144.849C101.37 144.849 101.59 144.789 101.77 144.779C102.4 144.689 106.39 144.719 107.65 144.779C108.38 144.749 108.37 145.799 107.59 145.859V145.859Z" fill="white"/>
<path d="M115.47 147.6C115.995 148.709 116.702 149.722 117.56 150.6C118.05 149.05 118.56 146.16 118.93 144.9C119.02 144.35 120.06 144.77 120 145.29C119.43 147.2 118.8 151.13 117.59 153.94C116.59 155.8 113.28 154.84 113.94 151.94C114.13 151.07 115.16 151.57 115.08 152.16C115 152.75 115 153.88 115.76 153.97C116.52 154.06 116.92 152.46 117.15 151.64C116.28 151.11 111.27 144.18 114.15 144.88C114.49 145.67 115 146.67 115.47 147.6Z" fill="white"/>
<path d="M128.81 148.001C129.052 148.752 129.189 149.532 129.22 150.321C129.87 153.771 124.6 156.871 121.97 153.321C121.32 152.517 120.967 151.514 120.97 150.481C120.85 148.981 120.71 148.171 121.74 146.691C122.435 145.891 123.35 145.314 124.37 145.031C125.51 143.661 128.26 146.141 128.81 148.001ZM122.67 147.201C121.723 148.934 121.832 151.053 122.95 152.681C123.61 153.478 124.646 153.861 125.666 153.686C126.686 153.51 127.535 152.803 127.89 151.831C128.09 151.117 128.118 150.367 127.97 149.641C127.61 147.641 126.97 146.201 125.27 145.801C124.297 146.005 123.398 146.472 122.67 147.151V147.201Z" fill="white"/>
<path d="M138.19 145.18C138.19 147.12 138.59 150.56 137.89 152.39C132 161.78 128.3 144 131.8 145C130.8 149.67 134.45 159.4 137.2 150.25C137.75 148.34 135.88 143.6 138.19 145.18V145.18Z" fill="white"/>
</svg>
