<svg width="139" height="165" viewBox="0 0 139 165" fill="none" xmlns="http://www.w3.org/2000/svg">
<g clip-path="url(#clip0_3_21926)">
<path d="M133 117.429C131.332 116.773 129.621 116.232 127.88 115.809C141.56 111.879 134.68 103.439 126.96 114.549C124.77 100.319 118.03 105.989 124.69 114.419C110.47 106.019 112.49 124.069 124.42 116.359L124.8 116.439C123.44 136.909 132.88 127.999 126.7 116.869C134.88 127.539 141.3 122.709 133 117.429Z" fill="#ED746B"/>
<path d="M128.499 115.76C128.419 118.5 123.599 119.42 123.239 115.55C123.319 112.8 128.139 111.88 128.499 115.76Z" fill="#46506F"/>
<path d="M127.18 115.7C127.18 118.11 122.29 116.04 125.92 114.34C126.34 114.42 126.73 114.49 127.18 115.7Z" fill="#FFD291"/>
<path d="M14 116.439C15.36 136.909 5.91996 127.999 12.1 116.869C1.09996 130.509 -3.31004 118.599 10.92 115.809C-2.76004 111.879 4.11996 103.439 11.84 114.549C14.03 100.319 20.77 105.989 14.11 114.419C28.33 106.019 26.31 124.069 14.38 116.359" fill="#ED746B"/>
<path d="M10.2998 115.76C10.3798 118.5 15.1998 119.42 15.5598 115.55C15.4798 112.8 10.6598 111.88 10.2998 115.76Z" fill="#46506F"/>
<path d="M11.6094 115.7C11.6094 118.11 16.5094 116.04 12.8794 114.34C12.4594 114.42 12.0694 114.49 11.6094 115.7Z" fill="#FFD291"/>
<path d="M114.32 73.2103C107.42 81.4503 112.45 65.1203 112.91 60.5003C112.38 52.7703 104.99 55.5803 101.61 60.6903C101.21 53.3003 93.8198 55.4303 90.6898 60.5503C93.1898 50.0003 81.1898 59.8003 77.9998 62.9003C75.9998 59.2003 69.6298 60.6103 71.5498 65.6803C72.2135 66.0399 72.955 66.2321 73.7098 66.2403C74.5098 68.5403 73.1398 73.4603 70.7598 75.0303C61.0598 80.5303 65.7598 54.3303 75.5498 59.7503C76.2598 60.0303 77.0598 59.5103 77.1498 58.4303C68.7798 49.3003 57.8198 64.0903 59.5898 73.5203C51.5498 79.0003 53.7698 72.0003 54.5398 66.1103C55.6798 58.1103 57.5398 45.0203 57.5398 44.9203C56.3609 44.2481 54.9465 44.1269 53.6704 44.5888C52.3944 45.0507 51.3853 46.0492 50.9098 47.3203L39.9998 71.9403L41.6998 46.9403C42.6998 46.9403 44.2998 45.2503 42.6998 43.8803C18.2798 39.2903 23.6998 56.3203 30.7898 53.2903C28.6798 50.4403 30.2098 45.8103 35.9198 45.9503C29.0398 68.9503 24.2898 74.7103 20.5698 76.1203C20.5651 74.316 20.9045 72.5274 21.5698 70.8503C6.51982 64.9003 20.8098 104.94 36.1798 53.0003L35.9998 58.5203L34.2998 79.3803C35.7698 80.3803 39.5098 80.3203 40.5598 77.2103L50.8298 53.1103C49.8298 62.7403 41.1698 91.2303 60.1898 75.6203C65.1898 86.4103 79.4798 75.0703 78.6898 65.1603C80.5198 64.6303 84.9698 57.6303 85.0898 61.3003L81.1798 79.3803C88.6498 83.7403 88.8398 67.2903 90.1798 63.6103C101.06 53.4803 92.1798 76.2603 92.3398 79.3803C99.8798 83.7803 100.02 67.0003 101.43 63.3803C102.43 61.7703 107.99 59.3803 106.65 63.9903C97.8398 91.6903 121.58 75.8903 114.32 73.2103Z" fill="#001A4F"/>
<path d="M77.7897 137.939C75.6597 150.259 79.0897 161.069 91.0797 164.249C88.0797 150.749 93.6897 143.599 78.9397 138.779" fill="#209BAA"/>
<path d="M83.6297 129.999C82.2082 129.565 80.8816 128.866 79.7197 127.939L80.3897 127.189C85.4697 131.439 98.2497 131.369 106.19 129.279L106.5 129.399L106.18 130.249H106.1C99.3697 131.709 91.1097 132.759 83.6297 129.999V129.999Z" fill="#001A4F"/>
<path d="M99.1196 131.101C106.12 121.481 113.61 121.801 122.46 124.101C114.38 131.971 109.46 138.101 98.8496 131.241" fill="#007096"/>
<path d="M90.94 131.399L90.25 130.679C91.78 129.229 93.86 128.039 96.12 125.859L96.85 126.539C95.34 128.149 93.17 129.429 90.94 131.399V131.399Z" fill="#001A4F"/>
<path d="M96.4193 136.85C95.6493 135.25 94.7993 134.32 93.3193 131.68L94.2293 131.26C94.6593 132.26 96.3093 134.43 97.3293 136.44L96.4193 136.85Z" fill="#001A4F"/>
<path d="M94.0001 128.33C93.6301 120.84 102 116.5 107.65 113.77C105.92 118.64 99.8001 130.77 94.4601 127.93" fill="#007096"/>
<path d="M95.4397 133.709C94.0497 140.619 99.9897 144.169 105.07 147.219C106.77 142.169 100.97 133.479 95.9097 133.979" fill="#007096"/>
<path d="M23.7095 129.679L23.1895 128.829C41.6395 132.829 51.0494 136.339 68.8195 126.959L69.2694 127.849C48.3494 138.339 39.5295 133.229 23.7095 129.679V129.679Z" fill="#209BAA"/>
<path d="M29.9098 130.3C26.8598 125.12 21.6598 125.71 16.3398 126.01C18.9698 129.77 25.3398 131.48 29.7598 130.72" fill="#209BAA"/>
<path d="M33.61 131.849C28.6098 131.461 23.7536 133.633 20.71 137.619C25.03 138.059 32.17 136.329 33.63 132.049" fill="#209BAA"/>
<path d="M39.1393 133C33.6493 133.24 32.1393 138.38 29.7793 142.35C33.9593 141.21 39.2193 137.93 39.6193 133.26" fill="#209BAA"/>
<path d="M44.7901 133.549C40.1601 135.059 38.9601 140.349 37.5801 144.419C41.5801 143.709 45.8801 137.999 45.1001 133.749" fill="#209BAA"/>
<path d="M51.6895 132.92C47.3695 134.92 46.9095 140.69 47.6895 144.77C50.6895 142.27 54.6895 137.01 52.1395 132.98" fill="#209BAA"/>
<path d="M27.4894 119.861C26.2794 123.861 29.9194 129.281 32.8894 131.691C34.5594 128.071 30.0794 121.691 27.8894 119.811" fill="#209BAA"/>
<path d="M39 133.149C35.84 130.369 34 125.899 33 121.949C35.63 123.949 40.37 129.469 39 133.259" fill="#209BAA"/>
<path d="M44.8698 133.86C41.5598 130.51 41.1498 125.86 40.5898 121.48C43.0798 122.99 48.2798 131.28 45.0098 133.72" fill="#209BAA"/>
<path d="M50.8194 133.199C48.0394 129.479 45.8994 125.949 45.6494 121.199C48.6994 124.199 52.2294 128.739 50.7294 133.199" fill="#209BAA"/>
<path d="M53.6698 149.42L53.0498 148.64C57.9298 144.77 63.0498 140.52 66.6998 134.93L67.5398 135.48C63.7598 141.19 58.6198 145.5 53.6698 149.42V149.42Z" fill="#001A4F"/>
<path d="M57.1601 153.77L56.3301 153.21C58.7201 149.67 59.8001 146.08 60.9601 141.76L61.9601 142.01C60.7401 146.43 59.6401 150.1 57.1601 153.77V153.77Z" fill="#001A4F"/>
<path d="M54.3492 148.169C52.7792 146.539 44.7892 149.819 47.8292 151.979C46.0192 154.859 49.4492 154.539 50.9692 153.399C51.4492 156.799 55.3192 151.069 54.4192 148.399" fill="#ED746B"/>
<path d="M58.9994 149.75C56.6194 149.17 51.5394 155.86 55.1594 156.25C54.9694 159.65 57.8194 157.7 58.5894 155.97C60.6594 158.64 61.2594 151.85 59.1994 149.97" fill="#ED746B"/>
<path d="M55.17 143.409L55.04 142.409C57.0948 141.955 59.1959 141.743 61.3 141.779L61.18 142.779C59.1581 142.733 57.1385 142.945 55.17 143.409Z" fill="#001A4F"/>
<path d="M57.9997 142.18C57.5597 140.92 52.3997 140.36 53.1197 142.61C51.2597 143.79 53.3597 144.56 54.5597 144.31C54.0497 146.2 57.4897 144.52 57.9597 142.37" fill="#ED746B"/>
<path d="M50.5294 17.3597L50.4794 17.3097C65.7294 7.07969 55.7194 -3.84031 39.9994 1.31969C31.4194 2.58969 28.1894 14.6797 37.7294 12.7897C33.9994 6.87969 43.1194 0.699692 49.7094 2.69969C56.1494 4.99969 51.3994 15.5697 45.9094 17.2597L48.6394 4.50969C43.3894 2.16969 41.8494 7.26969 41.5594 10.5797L36.9994 32.2297C36.2271 31.8046 35.5 31.302 34.8294 30.7297C27.6294 35.5397 43.1094 38.6497 48.8294 35.3497C57.6194 31.6497 62.4994 17.9297 50.5294 17.3597V17.3597ZM42.4294 33.7397L45.4294 19.6597C57.0794 17.5197 49.9994 34.5197 42.4294 33.7397Z" fill="#001A4F"/>
<path d="M87.5194 12.4202C80.9994 12.3902 77.1194 18.3002 80.9994 24.1502C83.1694 26.7202 86.5494 27.1502 87.1794 29.3902C87.5894 35.8902 77.2994 34.3202 81.5294 27.5702C79.7794 25.9202 75.6994 27.8002 75.6294 30.7302C72.7994 32.3702 66.4694 34.6502 65.1994 29.1702C94.7194 11.6802 57.9894 2.83016 59.3194 29.6402C58.3879 30.0913 57.3484 30.2715 56.3194 30.1602C55.9694 31.5702 57.9094 33.7102 60.0894 32.6602C63.0894 38.5002 70.8694 37.3202 76.0894 33.6602C80.4994 40.3802 94.4694 35.6602 91.7094 27.1302C90.6194 23.6202 86.4294 23.4502 84.7094 20.8702C81.6294 14.4702 91.7594 12.6502 88.2494 20.1802C88.8051 20.5657 89.4547 20.7937 90.1294 20.8402C95.4594 20.3502 94.1894 11.6102 87.5194 12.4202V12.4202ZM71.3794 16.0902C75.3794 18.4302 69.6994 24.3402 65.0694 27.1502C65.2094 23.8502 66.7194 16.0902 71.3794 16.0902V16.0902Z" fill="#001A4F"/>
<path d="M104.189 15.5691C105.929 15.7291 108.509 15.6791 108.189 12.8391H104.799L106.119 6.62915C102.409 4.15915 99.0694 8.87915 99.1194 12.8391C98.3366 12.6487 97.5106 12.8654 96.9221 13.4156C96.3337 13.9657 96.062 14.7754 96.1994 15.5691H98.5594C87.4494 51.6991 112.609 31.4891 105.079 29.9991C97.6294 39.4191 104.059 17.3091 104.189 15.5691V15.5691Z" fill="#001A4F"/>
<path d="M21.4297 90.9994C21.5598 90.7049 21.8858 90.5499 22.1963 90.635C22.5067 90.7202 22.7081 91.0197 22.6697 91.3394C23.1297 93.4794 24.4197 97.3394 24.8597 99.1094C25.0927 100.076 25.428 101.014 25.8597 101.909C26.2497 102.519 25.0897 103.219 24.6297 102.559C24.1457 101.616 23.8085 100.604 23.6297 99.5594C23.3397 98.3394 22.2197 95.1794 21.8397 93.5594C20.8397 96.8594 20.3097 99.5594 19.3797 102.319C17.1697 103.569 15.8497 95.4294 15.2297 93.9394C14.3297 98.0494 13.8397 100.459 13.2297 102.299C12.9097 103.219 11.7997 103.079 11.9697 102.089C13.0497 98.8294 13.5197 94.6294 14.5597 91.3294C14.6397 90.6194 15.5597 90.2094 15.8697 91.1494C16.3597 92.7994 17.2097 97.0494 18.6197 100.149C19.3167 97.0309 20.2562 93.9716 21.4297 90.9994V90.9994Z" fill="#001A4F"/>
<path d="M35.7201 94.5203C36.0048 95.4039 36.1663 96.3226 36.2001 97.2503C36.9201 101.47 30.7601 104.86 27.6801 100.72C26.9009 99.7846 26.4699 98.6079 26.4601 97.3903C26.3201 95.6203 26.1501 94.6703 27.3601 92.9403C28.1728 91.9863 29.247 91.2911 30.4501 90.9403C31.8401 89.4803 35.0701 92.4003 35.7201 94.5203ZM28.5001 93.5803C27.3901 94.9603 27.5001 98.5803 28.8401 100.02C29.9501 101.87 33.6901 101.71 34.6301 99.0203C34.8694 98.1844 34.9071 97.3036 34.7401 96.4503C34.3101 94.1303 33.5301 92.4503 31.5601 91.9303C30.4108 92.1965 29.354 92.7663 28.5001 93.5803V93.5803Z" fill="#001A4F"/>
<path d="M45.5098 90.7794C46.3398 92.7794 43.7698 91.6695 41.7698 91.9795C42.1998 94.6995 41.7698 100.229 41.7698 102.249C38.9098 104.249 41.5198 94.2495 40.5098 91.9695C39.9598 91.7095 35.1798 92.8595 37.0198 90.6895C38.5998 90.7895 44.4798 90.7394 45.5098 90.7794Z" fill="#001A4F"/>
<path d="M57 102C57 102.9 55.69 103 55.69 102.1C55.69 100.94 55.57 99.7898 55.44 98.6498C54.23 98.6498 50.52 98.7798 48.94 98.6498C48.94 98.9898 48.99 99.2998 49.01 99.6498C49.22 105.31 47.16 102.76 47.58 98.5998C46.58 99.1798 44.99 97.2398 47.45 97.3098C46.79 86.3698 49.31 91.1998 48.81 97.3098C50.98 97.4398 52 97.3698 55.33 97.3098C55 80.8998 57.41 99.9998 57 102V102Z" fill="#001A4F"/>
<path d="M66.5299 92.0706C65.6599 92.0706 61.3599 91.9706 60.6399 92.0706C60.6399 92.4306 60.7499 94.8106 60.7599 95.7406C62.6437 95.8363 64.5319 95.7962 66.4099 95.6206C67.4099 95.5506 67.8299 96.2806 66.8299 96.8106C64.8399 97.0566 62.8319 97.1235 60.8299 97.0106C60.8299 97.2406 60.9199 101.161 60.9699 101.551C62.7499 101.641 66.5899 101.301 67.1399 101.301C70.0199 102.411 62.4199 103.661 59.7399 102.301C59.5745 101.526 59.514 100.732 59.5599 99.9406C59.5599 99.2606 59.4899 97.3706 59.4899 97.1906C59.4899 95.3006 59.3699 92.3406 59.3699 92.0906H59.0799C58.1499 92.0906 58.1999 91.0306 58.9299 90.8306L59.6699 90.7406C60.4099 90.6406 65.0999 90.6806 66.5799 90.7406C67.4599 90.7606 67.4399 92.0006 66.5299 92.0706V92.0706Z" fill="#001A4F"/>
<path d="M75.7401 91.4591C79.8401 93.4591 77.8601 97.7191 73.4301 97.1491C83.3601 105.969 76.3401 102.719 71.9501 97.5091C71.6468 97.3874 71.3318 97.2969 71.0101 97.239C71.0101 98.499 71.1001 100.089 71.1801 102.559C68.2501 102.999 70.2501 92.5591 69.6701 92.1491C69.49 92.1902 69.313 92.2437 69.1401 92.309C68.7401 92.479 68.3301 91.2391 68.7901 91.0491C69.4483 90.7979 70.1458 90.6659 70.8501 90.6591C72.5199 90.5475 74.193 90.8212 75.7401 91.4591ZM71.0001 95.9291C72.8101 96.1791 76.2701 96.5891 76.7501 94.8591C77.0701 92.7691 73.1201 91.749 71.0601 91.919C71.0001 93.089 71.0001 94.1291 71.0001 95.9291V95.9291Z" fill="#001A4F"/>
<path d="M81.4893 89.6404C81.8593 90.1804 81.1293 90.5604 80.7693 90.1704C80.6293 89.8804 78.4793 88.3304 80.5493 88.4304C80.7693 88.7504 81.2693 89.3204 81.4893 89.6404Z" fill="#001A4F"/>
<path d="M89.9394 94.58C89.9394 95.08 88.9394 95.1 88.8294 94.72C88.6894 93.72 88.3194 92.48 87.2794 92.09C86.5576 91.6635 85.6611 91.6635 84.9394 92.09C83.8394 94.91 89.5294 95.94 90.4394 98.96C91.3794 102.54 85.4394 104.24 82.8794 100.68C81.4094 98.97 82.6894 95.35 84.1194 100.19C91.1194 104.19 89.7494 97.08 84.3594 95.03C81.3594 91.77 86.0894 89.13 88.6394 91.94C88.6394 91.82 88.5794 91.33 88.5794 91.21C88.5094 90.65 89.6994 90.8 89.7494 91.21C89.8194 91.83 89.7794 93.72 89.9394 94.58V94.58Z" fill="#001A4F"/>
<path d="M107.6 95.8894C107.68 101.889 101.02 103.029 98.0998 102.679C97.6185 102.647 97.248 102.242 97.2598 101.759C97.4824 98.6457 97.459 95.5194 97.1898 92.4094C97.1098 92.4094 96.9198 92.5294 96.8398 92.5494C95.9498 92.9694 95.5998 91.7094 96.3098 91.2994C97.9886 90.8132 99.7327 90.5906 101.48 90.6394C105.35 90.9994 107.55 92.2094 107.6 95.8894V95.8894ZM98.4998 92.1194C98.8115 95.1964 98.8584 98.2944 98.6398 101.379C107.66 102.179 109.73 90.1594 98.4998 92.1194Z" fill="#001A4F"/>
<path d="M113.72 91.2894C114.412 93.2788 115.213 95.2284 116.12 97.1293C116.45 97.1293 116.76 97.1293 117.12 97.0693C118.31 97.0693 118.31 98.2894 117 98.4094H116.52C116.93 99.4794 117.46 100.529 117.87 101.599C118.43 103.249 116.87 102.909 116.56 101.889C116.154 100.699 115.687 99.5312 115.16 98.3893C114.43 98.3893 111.51 98.3893 111.16 98.3893C110.68 99.6293 109.97 100.799 109.52 102.279C109.3 102.949 107.91 102.909 108.39 101.649C108.7 100.519 109.133 99.4258 109.68 98.3893C108.45 98.3193 108.47 97.2794 109.44 97.2994H110.15C110.85 95.6994 111.53 92.9793 112.24 91.3893C112.72 90.4193 113.5 90.4694 113.72 91.2894V91.2894ZM113.07 93.1393C112.6 94.4493 112.07 96.2993 111.71 97.1393C111.97 97.1393 114.24 97.0693 114.71 97.1393C114.074 95.8445 113.526 94.5081 113.07 93.1393Z" fill="#001A4F"/>
<path d="M121.59 94.1096C122.194 95.4077 123.008 96.597 124 97.6296C124.58 95.8096 125.22 92.4096 125.61 90.9296C125.71 90.2896 126.94 90.7796 126.87 91.3896C126.06 94.1296 125.52 98.0997 124.03 101.55C122.74 103.99 118.92 102.28 119.75 99.2597C119.97 98.2597 121.18 98.8197 121.09 99.5097C121 100.2 120.99 101.51 121.89 101.64C122.79 101.77 123.25 99.8696 123.52 98.8996C122.52 98.2796 116.61 90.1296 119.99 90.9596C120.43 91.8496 121 92.9996 121.59 94.1096V94.1096Z" fill="#001A4F"/>
<path d="M22.6496 40.4006C22.9996 44.6606 21.1496 52.4006 16.7796 54.2906C10.2996 58.1606 -7.00035 48.8106 3.07965 47.4506C0.629647 44.4506 2.42965 41.5306 5.80965 43.9706C3.11965 38.1806 9.30965 38.9706 11.4996 43.1806C9.32965 34.9306 15.4996 34.6806 16.4996 41.7806C16.5096 34.3006 22.2196 32.2806 22.6496 40.4006V40.4006Z" fill="#ED746B"/>
<path d="M7.99964 49.1698C6.79964 46.4398 10.2396 46.1098 11.8396 47.0398C11.9896 44.9498 14.9796 44.0398 15.8396 45.8198C15.2796 42.0498 19.9996 41.7298 22.5296 43.8198C22.0096 47.9498 20.1496 52.8198 16.7796 54.3298C13.4196 55.6298 8.26964 55.1098 4.18964 53.3998C3.56964 50.8798 5.21964 47.5998 7.99964 49.1698V49.1698Z" fill="#FFAE65"/>
<path d="M22.0695 46.2904C21.2095 49.7104 19.4795 53.1004 16.7795 54.2904C14.0795 55.4804 10.7795 55.2104 7.66945 54.4604C7.06945 53.4004 8.56945 52.5604 9.60945 51.8304C9.99945 50.3604 11.5395 48.1004 13.9995 49.6804C13.9995 48.0404 17.3495 45.1904 19.5295 46.6804C19.7985 46.271 20.2285 45.9948 20.7127 45.9204C21.1969 45.8461 21.69 45.9805 22.0695 46.2904Z" fill="#001A4F"/>
<path d="M15.0001 51.3398C14.5501 53.0998 29.5901 73.0398 29.6701 68.4298C23.6801 64.2698 20.1901 56.1798 15.0001 51.3398V51.3398Z" fill="#001A4F"/>
<path d="M22.8093 62.6288C18.3172 64.3017 13.3275 64.0002 9.06934 61.7988C11.8793 57.9288 19.9993 57.5888 22.4193 61.8588" fill="#001A4F"/>
<path d="M116.15 40.4006C115.8 44.6606 117.65 52.4006 122.02 54.2906C128.5 58.1606 145.79 48.8106 135.72 47.4506C138.17 44.4506 136.37 41.5306 132.99 43.9706C135.68 38.1806 129.49 38.9706 127.3 43.1806C129.47 34.9306 123.3 34.6806 122.3 41.7806C122.29 34.3006 116.57 32.2806 116.15 40.4006V40.4006Z" fill="#ED746B"/>
<path d="M130.83 49.1688C132 46.4388 128.59 46.1088 127 46.9988C126.85 44.9088 123.86 43.9988 123 45.7788C123.56 42.0088 118.84 41.6888 116.31 43.7788C116.83 47.9088 118.69 52.7788 122.06 54.2888C125.42 55.5888 130.57 55.0688 134.65 53.3588C135.23 50.8788 133.58 47.5988 130.83 49.1688Z" fill="#FFAE65"/>
<path d="M116.729 46.289C117.589 49.709 119.319 53.099 122.019 54.289C124.719 55.479 128.019 55.209 131.129 54.459C131.729 53.399 130.229 52.559 129.189 51.829C128.779 50.359 127.259 48.099 124.759 49.679C124.759 48.039 121.409 45.189 119.229 46.679C118.96 46.282 118.538 46.0145 118.064 45.9406C117.59 45.8667 117.107 45.9929 116.729 46.289V46.289Z" fill="#001A4F"/>
<path d="M123.839 51.3398C124.289 53.0998 109.249 73.0398 109.159 68.4298C115.119 64.2698 118.609 56.1798 123.839 51.3398Z" fill="#001A4F"/>
<path d="M116 62.6288C120.492 64.3017 125.482 64.0002 129.74 61.7988C126.93 57.9288 118.81 57.5888 116.39 61.8588" fill="#001A4F"/>
<path d="M87.9994 119.43C87.5277 119.244 87.0262 119.146 86.5194 119.14C91.3894 115.33 83.7494 113.49 81.1994 112.37C79.3394 110.37 77.5594 105.45 74.6594 109.54C73.7894 103.48 68.3394 109.17 66.1394 110.79C63.4794 111.4 58.3194 110.49 60.4094 115.05C54.9094 112.74 56.8194 120.19 57.2394 123.05C56.4394 125.63 53.0994 129.74 58.0894 130.12C53.2294 133.93 60.8594 135.77 63.4094 136.89C65.2694 138.89 67.0594 143.81 69.9594 139.72C70.8194 145.78 76.2694 140.09 78.4794 138.46C81.1394 137.85 86.2894 138.77 84.1994 134.21C89.6994 136.52 87.7894 129.06 87.3694 126.21C87.7194 124.25 90.9394 120.9 87.9994 119.43V119.43Z" fill="#ED746B"/>
<path d="M81.8199 121.3C81.3999 120.37 79.7299 119.71 78.8999 120.54H78.8399C81.2199 119.13 79.0799 116.77 77.0299 118.31C78.1999 116.31 75.4999 114.72 74.9499 116.52C75.9499 114.29 71.5599 113.78 71.8599 116.94C71.2499 115.07 67.8599 115.84 68.7599 117.94C67.7599 115.53 64.8299 117.36 65.2999 118.88C63.8099 119.09 62.4699 121.18 64.2199 122.24C61.9099 122.6 61.4399 125.66 63.7899 126.32C63.1986 126.535 62.7666 127.048 62.6566 127.667C62.5466 128.287 62.7753 128.918 63.2566 129.322C63.7379 129.727 64.3986 129.845 64.9899 129.63C63.5599 130.97 65.9299 132.27 67.2199 131.88C66.4499 133.14 69.7199 134.47 70.3699 132.82C70.4899 135.48 74.3699 134.46 74.2499 132.16C75.0899 133.46 78.3799 133.1 77.5499 130.49C79.6499 130.83 81.9799 129.26 79.4699 126.73C81.9299 126.88 82.1099 124.73 80.5999 123.36C81.4599 123 82.2999 122.38 81.8199 121.3V121.3Z" fill="#F6D77D"/>
<path d="M76.4701 124.75C76.2601 128.63 67.6501 128.66 67.5801 124.12C67.7901 120.24 76.4001 120.21 76.4701 124.75Z" fill="#001A4F"/>
</g>
<defs>
<clipPath id="clip0_3_21926">
<rect width="139" height="165" fill="white"/>
</clipPath>
</defs>
</svg>
