<svg width="191" height="185" viewBox="0 0 191 185" fill="none" xmlns="http://www.w3.org/2000/svg">
<g clip-path="url(#clip0_3_21884)">
<path d="M110.142 154.829C107.052 151.239 99.1415 150.659 95.3015 155.309C67.4915 142.159 78.1815 179.709 95.3015 184.199V184.259V184.199C106.442 178.179 118.472 165.509 110.142 154.829V154.829Z" fill="#EB7692"/>
<path d="M190.431 82.1592C192.341 75.8892 180.151 79.3192 168.211 78.4892H34.4508C-6.8892 79.6092 -4.8492 71.8092 9.4508 100.229C6.0008 116.999 -10.8092 125.369 10.9208 123.799H188.001C196.651 123.479 179.211 104.719 181.171 100.189C181.621 99.3292 190.391 82.2392 190.431 82.1592V82.1592Z" fill="#5A2866"/>
<path d="M44.8007 104.529C45.7207 107.309 43.2007 107.399 39.8007 106.719L39.6907 106.589C39.5307 103.689 39.7507 100.149 39.6907 96.3187L39.5407 96.2187H39.3807C34.4507 101.589 35.9407 104.219 29.5807 96.2187H29.4207C28.9907 99.0987 29.8907 102.919 29.2407 106.719C27.6395 106.882 26.0291 106.935 24.4207 106.879C24.4207 99.8187 20.4707 76.8787 33.9407 93.6887C35.1207 95.2587 37.3307 90.0487 39.7707 88.1987C40.9607 88.4987 43.0507 87.9487 44.9507 88.5287C44.7207 93.3687 45.1207 98.5087 44.8007 104.529V104.529Z" fill="white"/>
<path d="M68.5213 97.3477C69.5213 111.218 43.4013 111.108 48.5213 93.8977C50.9113 85.6277 68.3713 84.8677 68.5213 97.3477ZM62.2213 100.708C66.4813 95.4477 56.3013 86.7077 53.1113 96.7077C52.0013 100.998 58.5613 105.748 62.2213 100.708Z" fill="white"/>
<path d="M84.7204 90.2892C84.5504 90.2392 85.0504 91.9792 84.3904 92.6792C83.1704 92.8192 81.3104 92.4892 79.3904 92.7592C78.9104 96.8192 79.2204 101.759 79.2104 106.759L79.0804 106.889C77.3749 106.943 75.6678 106.882 73.9704 106.709C73.9704 102.399 74.2104 97.7892 73.8204 92.6392C72.4904 91.7892 66.9204 95.2292 68.6804 88.3592C69.3004 89.1592 86.5504 85.9992 84.7204 90.2892V90.2892Z" fill="white"/>
<path d="M104.521 104.498C104.351 104.618 105.041 106.028 104.281 106.818C103.131 106.818 101.611 106.938 99.6407 106.818C98.9307 105.118 99.6407 102.618 99.2007 99.818C97.5107 99.728 95.2908 99.728 92.8308 99.818C92.3608 101.478 92.9407 103.998 92.6707 106.628C85.0007 108.048 87.8708 106.218 87.4108 88.488C88.6208 87.968 90.4108 88.248 92.4108 88.258C93.2808 89.958 92.1708 92.568 92.7208 95.258L92.8507 95.358C94.6607 95.178 96.6308 95.518 99.2308 95.208C99.7308 93.468 99.2307 91.358 99.4607 88.448L99.6608 88.218C100.761 88.218 102.481 88.158 104.341 88.218C105.101 92.998 104.311 98.338 104.521 104.498V104.498Z" fill="white"/>
<path d="M123.22 104.448C123.07 104.688 123.42 106.018 122.84 106.798C118.4 106.798 113.6 107.248 108.39 106.798C108.17 101.098 108.11 94.9381 108.46 88.3681L108.59 88.2681C112.65 88.4181 117.82 88.0481 122.71 88.4281C123.98 94.3281 120.07 92.6081 113.65 92.7581L113.52 92.8881C113.312 93.7125 113.339 94.5787 113.6 95.3881C116.23 96.7881 123.85 92.0881 122.29 99.0781C120.71 100.698 116.67 99.0781 113.57 99.7281C113.292 100.617 113.292 101.569 113.57 102.458C115.1 103.308 124 100.378 123.22 104.448Z" fill="white"/>
<path d="M143.48 106.77C134.48 108.49 138.91 103.67 131.87 100.77L131.66 100.93C131.29 102.33 131.89 104.45 131.66 106.71C129.903 107.052 128.097 107.052 126.34 106.71C126.49 101.05 125.96 94.7095 126.62 88.2895C133.47 86.6895 151.2 90.2895 138.8 100.08C139.89 101.89 141.8 104.08 143.6 106.58L143.48 106.77ZM135.66 96.8395C138.41 96.8995 138.71 90.4695 131.56 92.6795C131.56 93.6795 131.64 94.9395 131.71 96.6795C133.006 96.971 134.344 97.0252 135.66 96.8395Z" fill="white"/>
<path d="M149.23 91.2379C149.017 92.8424 148.548 94.4023 147.84 95.8579C145.04 96.2979 145.84 96.1079 145.52 92.4979C142.52 90.5479 148.71 85.6979 149.23 91.2379V91.2379Z" fill="white"/>
<path d="M167.42 101.098C167.77 107.488 156.08 110.028 151.09 104.098V103.918C151.916 102.87 152.801 101.868 153.74 100.918C154.47 101.808 163.35 105.228 161.8 100.248C157.32 99.2485 145.91 97.3285 154.36 88.9185C157.64 87.2685 162.69 87.2185 166.1 89.9185C165.74 90.6385 164.52 94.3485 162.47 92.7285C162.16 92.1985 154.15 91.2385 157.67 94.7285C160.77 95.3585 167.39 95.6985 167.42 101.098Z" fill="white"/>
<path d="M143.931 56.7293V56.3193L143.601 55.9993H143.151C140.911 59.2293 139.301 62.9993 136.001 64.0993L135.781 63.9893C136.611 58.6593 138.971 53.8393 139.341 49.3893C134.991 47.3093 136.101 54.7993 134.521 56.2493C133.151 59.5993 130.181 63.7193 127.931 62.1393C127.101 57.2593 131.221 52.5393 129.931 49.1393C126.691 48.0193 127.391 52.2993 126.601 53.3993C126.104 54.5743 125.673 55.7761 125.311 56.9993C124.091 59.3993 122.311 60.9993 120.141 60.6793L120.071 60.5293C125.411 50.4093 118.201 45.6793 112.731 50.9293H112.661C112.819 50.5293 112.881 50.0976 112.841 49.6693C112.138 48.8431 110.905 48.7278 110.061 49.4093C109.321 52.1593 108.521 54.8993 107.751 57.6093C106.541 59.6793 104.851 60.9993 102.911 60.7093L102.841 60.5593C108.181 50.4393 100.971 45.7093 95.5011 50.9593H95.4311C95.5892 50.5593 95.6509 50.1276 95.6111 49.6993C94.9083 48.8731 93.675 48.7578 92.8311 49.4393C92.1011 52.1493 91.3111 54.8593 90.5511 57.5393C89.1411 60.1993 87.2911 63.0293 85.3811 62.1793C84.5711 57.7693 88.5511 53.1093 85.9011 52.4693C82.1811 53.5793 82.5711 61.2493 78.4611 62.4693C72.0311 62.5893 79.6811 51.1893 81.4611 51.4693C84.9711 49.4693 89.4011 54.4693 89.2111 50.8093C83.0011 47.2993 78.7211 48.8993 76.1711 51.9993C74.1711 52.8893 72.4711 54.6393 70.7111 54.3193L70.6011 54.1693C71.5181 49.5848 72.8193 45.0855 74.4911 40.7193C69.4911 35.5693 68.3411 55.4093 67.3411 54.3193C65.6222 54.1944 63.9202 53.8962 62.2611 53.4293L62.0011 53.0993C63.0011 48.2693 64.5211 43.6293 65.6311 39.4693L65.5211 39.1293C62.8211 37.1993 61.0511 41.6793 58.7411 40.9793C41.4911 37.5993 46.0911 53.9793 54.7411 48.6193C55.1508 48.415 55.4101 47.9971 55.4111 47.5393C52.6811 46.5393 47.5211 48.4193 50.8511 43.7293C54.4011 41.2493 58.9311 44.5393 61.7811 41.9493H61.8611C60.7011 46.0993 59.7611 49.6493 58.7811 52.9493C36.0311 57.5293 57.3511 75.5693 61.0811 55.5393C63.3611 55.5393 65.0811 56.2093 66.4911 56.3593L66.7111 56.6893C66.3211 59.5793 65.1511 61.6893 64.7111 63.8393L64.8511 64.0993C69.9511 66.2193 68.2411 57.9793 70.1211 56.3593C71.6249 56.1696 73.0818 55.7088 74.4211 54.9993C71.6111 61.7893 74.5111 70.4493 82.4211 60.3993L82.5311 60.4793C82.6011 66.9393 86.5911 64.6593 89.3811 61.5593C88.1357 65.9474 87.3383 70.4504 87.0011 74.9993C87.8375 75.4214 88.8329 75.3798 89.6311 74.8893C90.6311 70.7693 91.0011 66.7293 92.1111 63.3293H92.3011C95.3011 66.2493 99.5411 64.4493 101.561 62.2193C103.449 62.6188 105.416 62.116 106.881 60.8593C105.518 65.471 104.624 70.2082 104.211 74.9993C105.047 75.4234 106.044 75.3817 106.841 74.8893C107.841 70.7693 108.211 66.7293 109.321 63.3293H109.511C112.511 66.2493 116.751 64.4493 118.771 62.2193C120.941 62.6594 123.183 61.9398 124.691 60.3193C124.141 67.3893 130.841 65.3193 134.081 60.3193C133.291 68.6293 126.181 66.2393 125.081 71.3193C125.631 80.9593 135.231 71.9093 134.711 67.5093C138.411 64.2093 142.541 61.3093 143.931 56.7293V56.7293ZM54.2611 62.4293C47.3711 61.9493 55.2611 54.3193 57.8911 55.4293L58.1111 55.6893C57.6111 58.6593 56.3711 61.6593 54.2611 62.4293ZM100.761 57.8393C100.679 58.0832 100.554 58.3102 100.391 58.5093C97.9811 58.7693 98.6811 60.1793 98.9811 61.1393C89.5311 66.8993 94.2211 55.3593 94.6111 53.9893C101.281 46.7393 102.791 53.9993 100.761 57.8393V57.8393ZM117.991 57.8393C117.671 58.5893 117.631 58.4293 117.621 58.5093C115.221 58.7693 115.911 60.1793 116.211 61.1393C106.761 66.8993 111.451 55.3593 111.841 53.9893C118.511 46.7393 120.001 53.9993 118.001 57.8393H117.991ZM131.781 68.5093C131.401 71.5093 129.131 74.1893 127.671 72.5093C127.471 69.7393 130.491 68.7993 131.671 67.9593L131.851 68.0693L131.781 68.5093Z" fill="#5A2866"/>
<path d="M119.701 139C86.9606 137.47 57.4906 145.63 57.3906 125.5C60.1806 106.39 75.0006 113.28 96.8506 112C117.851 112.65 130.921 107.92 133.201 125.5C133.179 132.947 127.147 138.978 119.701 139V139Z" fill="#EB7692"/>
<path d="M86.2013 126C86.0813 132.48 79.0013 134.09 72.1013 132.72C72.2513 128.22 71.8613 123.43 72.3013 118.32C77.2513 118.25 86.1313 116.48 86.2013 126V126ZM81.5213 127.76C82.8613 125.2 81.6413 120.21 76.2813 121.9C76.2813 124.06 76.1413 126.61 76.3813 129.36L76.5013 129.46C77.8813 129.33 80.4113 129.92 81.5213 127.8V127.76Z" fill="white"/>
<path d="M104.7 132.47L104.77 132.76L104.62 132.99C103.292 133.145 101.953 133.172 100.62 133.07C100.24 132.67 100.19 131.74 99.6199 130.75C97.3804 130.496 95.1193 130.496 92.8798 130.75C92.4698 133.03 91.4598 133.24 88.2498 133.13C88.2498 133.04 88.1898 133.29 87.8398 132.78C89.3598 128.31 91.9398 123.61 94.0298 118.54C95.527 118.14 97.1027 118.14 98.5998 118.54C100.24 122.65 102.47 127.38 104.7 132.47V132.47ZM97.8598 126.7C97.6298 125.99 97.2898 124.84 96.7098 123.25C95.6298 122.6 94.8998 125.19 94.5998 126.94C95.0898 126.93 97.1198 127.67 97.8598 126.7Z" fill="white"/>
<path d="M118.661 118.479C115.781 122.769 111.721 126.819 112.661 133.069C111.352 133.142 110.04 133.142 108.731 133.069L108.641 133.009C108.591 131.459 108.541 129.519 108.521 127.229C106.961 124.599 104.701 121.749 103.031 118.349L103.151 118.269C104.771 118.269 105.671 118.269 107.641 118.379C108.491 119.579 109.401 121.379 110.641 123.209H110.771C111.641 121.899 112.561 120.209 113.841 118.209C115.433 118.154 117.026 118.204 118.611 118.359L118.661 118.479Z" fill="white"/>
<path d="M66.5807 172.879C60.7721 170.555 55.2165 167.643 50.0007 164.189C50.3607 158.529 46.3407 154.099 43.6307 152.289C43.2048 155.147 43.6949 158.067 45.0307 160.629C40.6281 157.241 36.5716 153.426 32.9207 149.239C35.1907 143.429 31.7607 138.169 29.5707 135.609C28.3899 138.508 28.273 141.732 29.2407 144.709C27.6473 142.609 26.1673 140.456 24.8007 138.249H24.9107C24.4454 136.886 23.6798 135.646 22.6707 134.619C10.075 111.647 8.43119 84.2415 18.1907 59.929C23.7707 58.209 26.0307 53.049 26.8507 49.929C25.0654 50.3302 23.37 51.0592 21.8507 52.079C24.0594 47.9052 26.615 43.9245 29.4907 40.179C35.0007 39.999 38.9007 35.999 40.6607 32.999C38.6883 32.847 36.7063 33.1233 34.8507 33.809C42.314 25.8594 51.1527 19.3244 60.9407 14.519L60.0707 12.709C53.4857 15.9324 47.3032 19.9198 41.6507 24.589C42.8573 21.6954 43.3412 18.5515 43.0607 15.429C37.6107 19.849 36.0007 24.429 37.1607 28.569C32.7759 32.7335 28.8348 37.3415 25.4007 42.319C25.9032 38.9874 25.5593 35.5828 24.4007 32.419C20.5307 37.499 20.2207 43.729 22.4007 46.979C19.2348 52.2563 16.637 57.8542 14.6507 63.679C14.5907 59.679 12.5407 56.179 11.0207 53.829C8.40068 59.199 10.3107 66.169 13.1507 68.479C7.22716 89.6283 9.31001 112.219 19.0007 131.929C16.8803 130.849 14.5781 130.171 12.2107 129.929C14.3107 134.719 18.7707 137.819 22.4907 138.339C25.5091 143.318 29.0236 147.978 32.9807 152.249C30.2429 151.543 27.3964 151.36 24.5907 151.709C29.0707 156.709 33.9307 157.969 37.5907 156.889C42.0458 161.038 46.9108 164.723 52.1107 167.889C47.7207 166.799 43.6607 168.479 41.2607 169.379C47.5207 173.219 52.5107 173.039 56.0907 170.189C59.2602 171.913 62.5217 173.462 65.8607 174.829L66.5807 172.879Z" fill="#5A2866"/>
<path d="M75.4406 10.82L70.2606 10.48L73.0006 5.66H67.4306L69.6806 1C41.8606 3.26 61.4406 33.17 75.4406 10.82V10.82Z" fill="#EB7692"/>
<path d="M76.2615 3.45898L74.0215 4.75898Z" fill="#5A2866"/>
<path d="M76.7 4.20963L74 4.75963C74.69 2.99963 78.76 0.999628 76.7 4.20963Z" fill="#5A2866"/>
<path d="M72.8105 1.08984L70.9805 2.92984Z" fill="#5A2866"/>
<path d="M73.43 1.69951L71 2.92951C71.17 0.999509 74.59 -1.89049 73.43 1.69951Z" fill="#5A2866"/>
<path d="M76.6506 7.60938L74.1406 8.28938Z" fill="#5A2866"/>
<path d="M76.8706 8.43869L74.1406 8.28869C75.2406 6.75869 79.6906 5.90869 76.8706 8.43869Z" fill="#5A2866"/>
<path d="M10.9199 46.8099C10.9199 43.2499 16.8299 42.3399 17.2499 46.8099C17.2899 50.3599 11.3399 51.2699 10.9199 46.8099Z" fill="#EB7692"/>
<path d="M15.4199 146.56C15.4199 143 21.3299 142.09 21.7499 146.56C21.7899 150.11 15.8399 151 15.4199 146.56Z" fill="#EB7692"/>
<path d="M31.4199 164.81C31.4199 161.25 37.3299 160.34 37.7499 164.81C37.7899 168.36 31.8399 169.27 31.4199 164.81Z" fill="#EB7692"/>
<path d="M26.6699 26.5599C26.6699 22.9999 32.5799 22.0899 32.9999 26.5599C32.9999 30.1099 27.0899 30.9999 26.6699 26.5599Z" fill="#EB7692"/>
<path d="M175.691 68.479C178.531 66.169 180.441 59.199 177.821 53.829C176.301 56.179 174.251 59.659 174.191 63.679C172.203 57.8611 169.605 52.27 166.441 46.999C168.621 43.749 168.311 37.519 164.441 32.439C163.279 35.602 162.935 39.0074 163.441 42.339C160.014 37.3555 156.079 32.7408 151.701 28.569C152.861 24.399 151.251 19.849 145.801 15.429C145.52 18.5515 146.004 21.6954 147.211 24.589C141.558 19.9198 135.375 15.9324 128.791 12.709L127.931 14.519C137.704 19.3165 146.535 25.8337 154.001 33.759C152.144 33.0929 150.166 32.8337 148.201 32.999C149.961 35.999 153.851 40.059 159.461 40.239C162.336 43.9845 164.892 47.9652 167.101 52.139C165.581 51.1198 163.886 50.3908 162.101 49.989C162.911 53.079 165.171 58.239 170.751 59.989C180.52 84.2999 178.876 111.71 166.271 134.679C165.261 135.706 164.496 136.946 164.031 138.309H164.141C162.767 140.516 161.287 142.669 159.701 144.769C160.677 141.794 160.564 138.568 159.381 135.669C157.181 138.229 153.751 143.489 156.031 149.299C152.374 153.484 148.314 157.299 143.911 160.689C145.246 158.127 145.736 155.207 145.311 152.349C142.611 154.159 138.581 158.589 138.941 164.249C133.71 167.708 128.137 170.62 122.311 172.939L123.041 174.799C126.38 173.432 129.641 171.883 132.811 170.159C136.391 173.009 141.381 173.159 147.651 169.349C145.241 168.449 141.181 166.779 136.791 167.859C141.99 164.693 146.855 161.008 151.311 156.859C155.001 157.939 159.861 156.659 164.311 151.679C161.505 151.33 158.658 151.513 155.921 152.219C159.878 147.948 163.392 143.288 166.411 138.309C170.141 137.789 174.591 134.689 176.691 129.899C174.323 130.141 172.021 130.819 169.901 131.899C179.564 112.19 181.625 89.6117 175.691 68.479V68.479Z" fill="#5A2866"/>
<path d="M113.42 10.82L118.6 10.48L115.85 5.66H121.43L119.18 1C147 3.26 127.42 33.17 113.42 10.82V10.82Z" fill="#EB7692"/>
<path d="M112.602 3.45898L114.842 4.75898Z" fill="#5A2866"/>
<path d="M112.161 4.20963L114.841 4.75963C114.171 2.99963 110.101 0.999628 112.161 4.20963Z" fill="#5A2866"/>
<path d="M116.051 1.08984L117.881 2.92984Z" fill="#5A2866"/>
<path d="M115.431 1.69951L117.881 2.92951C117.691 0.999509 114.271 -1.89049 115.431 1.69951Z" fill="#5A2866"/>
<path d="M112.221 7.60938L114.721 8.28938Z" fill="#5A2866"/>
<path d="M112.001 8.43869L114.731 8.28869C113.621 6.75869 109.171 5.90869 112.001 8.43869Z" fill="#5A2866"/>
<path d="M179.25 46.8099C179.25 43.2499 173.34 42.3399 172.92 46.8099C172.89 50.3599 178.83 51.2699 179.25 46.8099Z" fill="#EB7692"/>
<path d="M174.75 146.56C174.75 143 168.84 142.09 168.42 146.56C168.39 150.11 174.33 151 174.75 146.56Z" fill="#EB7692"/>
<path d="M158.75 164.81C158.75 161.25 152.84 160.34 152.42 164.81C152.39 168.36 158.33 169.27 158.75 164.81Z" fill="#EB7692"/>
<path d="M163.5 26.5599C163.5 22.9999 157.59 22.0899 157.17 26.5599C157.14 30.1099 163.08 30.9999 163.5 26.5599Z" fill="#EB7692"/>
</g>
<defs>
<clipPath id="clip0_3_21884">
<rect width="191" height="185" fill="white"/>
</clipPath>
</defs>
</svg>
