<svg width="173" height="191" viewBox="0 0 173 191" fill="none" xmlns="http://www.w3.org/2000/svg">
<path d="M86.1388 169.757C-25.7174 164.388 -23.0965 7.36836 86.1388 3.27734C197.995 8.59437 195.374 165.627 86.1388 169.757Z" fill="#905AC6"/>
<path d="M47.3949 72.6709C51.2681 71.7288 54.5215 81.7047 48.389 80.3367C47.679 80.3367 47.6531 80.5432 47.6144 78.7493C47.4466 73.2387 42.4502 77.8718 43.9349 81.6014L50.7904 83.8857C56.3806 98.3397 40.0231 98.8043 40.0231 91.2547C38.7966 86.3506 45.071 87.1637 43.8962 90.7643C45.8844 94.3391 48.531 90.0545 47.5757 86.8926C45.8973 86.0022 39.5196 85.1762 40.0231 83.4598C39.6228 75.4197 39.6745 71.8966 47.3949 72.6709V72.6709Z" fill="white"/>
<path d="M54.4181 73.1351C59.3241 71.8446 67.4189 71.8446 65.9471 78.9296C66.6572 87.3052 64.7594 88.3506 58.3429 87.9634C57.7103 90.4284 60.4602 97.1005 55.1927 95.7067C53.0367 97.8232 54.9991 72.7221 54.4181 73.1351ZM60.8733 84.195C63.0294 83.0723 63.1714 74.6192 58.2912 76.4518V84.195H60.8733Z" fill="white"/>
<path d="M80.3298 76.0123C80.8462 76.7995 73.1387 76.4253 72.661 76.5027V82.2714C82.0598 80.9809 79.9683 87.6272 72.661 86.143V91.9634C77.3604 91.7827 82.6407 91.2665 79.7488 95.7576C77.8381 95.3962 68.9169 96.4932 68.8266 95.3059C69.5625 93.2539 66.8513 69.4951 70.9181 72.7085C77.1409 73.186 81.4013 70.7082 80.3298 76.0123V76.0123Z" fill="white"/>
<path d="M94.4796 79.9356C94.4151 80.4777 90.2708 81.0584 90.6065 79.5743C91.8072 75.8188 87.0303 75.7027 86.7334 77.7288C87.3402 80.5035 85.3261 91.9248 87.8953 91.9248C88.9798 91.8344 90.4774 92.3894 90.4774 90.4148C90.4774 88.4403 89.8964 87.8337 92.8013 88.0144C96.584 87.8208 93.9761 96.5707 90.1288 95.7577C79.1033 98.571 83.2734 80.9164 83.4025 74.5412C87.1465 69.921 96.4937 72.7215 94.4796 79.9356V79.9356Z" fill="white"/>
<path d="M100.819 72.6705C101.761 72.4899 101.077 81.8592 101.271 88.6087V95.255C100.276 96.4165 96.2613 95.4615 97.3974 94.7517C98.5077 88.8281 94.2473 69.6894 100.819 72.6705V72.6705Z" fill="white"/>
<path d="M114.994 95.7191C114.759 95.7273 114.556 95.5531 114.529 95.319L113.729 91.1118H108.565L107.79 95.319C107.713 95.6674 104.124 96.3643 103.917 95.2287C103.917 95.2287 108.397 74.4897 108.694 73.1346C108.139 72.7345 112.786 72.0634 113.69 73.1346L118.48 95.2803C118.648 96.0159 115.937 95.6416 114.994 95.7191V95.7191ZM111.121 77.6515L109.314 87.7564H113.006L111.121 77.6515Z" fill="white"/>
<path d="M124.961 91.926C134.928 90.3902 133.753 96.5461 129.428 95.7202C125.064 95.475 120.971 96.3138 121.036 95.204C121.1 94.0941 121.036 75.7426 121.036 73.368C127.956 66.9928 123.941 89.1384 124.961 91.926V91.926Z" fill="white"/>
<path d="M57.3745 51.467C57.7489 50.2668 58.0975 49.1698 58.4073 48.1632C56.1222 70.7606 59.5305 69.2377 71.3952 46.6275C68.697 50.4604 63.2617 72.5544 77.4632 61.5977C78.3004 63.1157 79.7735 64.1792 81.4783 64.4965C83.183 64.8139 84.9403 64.3517 86.2681 63.2367C88.2407 63.5479 90.2573 63.0856 91.897 61.9462C96.6739 71.1993 94.8019 54.874 100.379 53.5964C102.29 55.5064 98.0424 59.8426 99.2043 63.4432C104.072 67.56 102.277 60.5395 105.569 55.5064C110.488 50.3442 106.86 56.2291 106.783 61.8687C108.487 66.2308 114.051 65.1338 116.84 60.3846L117.098 59.8168C117.434 59.4296 116.388 58.2552 115.807 59.3522C115.488 59.8821 115.111 60.3755 114.684 60.8234C105.066 68.3989 121.23 43.285 105.453 53.4157C104.162 50.8346 102.613 49.4408 97.9262 53.0673C95.0085 48.3955 93.343 54.2545 92.1811 59.5974C91.5097 60.0749 90.6705 61.83 87.869 61.5977C95.8347 51.8541 79.3997 44.2529 77.0629 59.6361C76.795 60.059 76.4834 60.4526 76.1334 60.8105C67.5092 67.6375 74.3776 46.3306 78.0441 41.4524C81.091 39.0778 73.9773 38.8713 71.2016 42.5106C67.8836 46.9243 64.8367 52.9382 61.5188 59.1973C69.4329 19.6293 30.3788 51.5315 50.6998 50.9637C45.2387 48.3826 56.9743 35.8643 57.3616 44.3174C55.9543 48.4213 52.404 61.4171 45.7422 61.6235C43.6378 60.6556 43.8056 57.6616 46.4781 55.4935C50.3512 52.3704 35.9432 54.9514 41.7529 61.5977C48.8665 68.7344 54.4955 62.0623 57.3745 51.467V51.467ZM81.4783 57.4164C82.4982 51.8154 88.7727 49.9829 85.274 60.0878C84.7963 59.9329 82.0205 60.9008 83.7764 62.514C81.6332 63.7271 80.3164 61.1331 81.4783 57.4164Z" fill="white"/>
<path d="M121.953 42.2404C122.224 40.0723 117.047 39.2464 118.712 43.802C119.358 44.3698 116.737 46.4863 118.144 47.2864C118.971 47.0025 121.888 44.8602 121.953 42.2404Z" fill="white"/>
<path d="M131.687 58.3076C129.738 57.5462 133.508 44.1117 126.162 53.5197C125.581 54.436 125.581 54.4231 124.432 56.2041C124.199 56.5568 124.019 56.8407 123.89 57.0558C123.323 57.2043 122.773 57.4119 122.25 57.6753C115.588 61.947 133.224 70.9033 131.687 58.3076V58.3076ZM127.311 62.4503C124.483 65.3798 122.792 59.4433 126.82 55.12C126.691 56.5912 128.847 59.5466 127.362 62.4503H127.311Z" fill="white"/>
<path d="M81.3364 103.244C73.2803 93.9651 46.0393 110.69 64.8369 113.336C58.3817 107.116 72.9705 97.1527 79.7226 105.593C84.2413 112.046 78.1992 127.326 68.0387 121.17C71.0081 116.653 71.7956 109.697 75.5138 104.535C74.9328 103.567 73.2287 104.135 70.8015 105.451C68.2969 108.716 67.4061 114.575 64.9014 119.492C52.998 111.245 50.3255 132.501 66.5023 123.17C78.7543 132.178 93.1108 114.046 81.3364 103.244V103.244ZM61.6996 123.054C57.2068 125.816 55.167 117.466 63.5458 121.583C63.0359 122.192 62.4079 122.693 61.6996 123.054Z" fill="white"/>
<path d="M117.085 126.55C115.949 126.331 115.794 126.382 113.445 126.795C113.638 126.124 113.909 124.808 114.439 122.833C114.206 121.117 119.964 110.225 113.006 112.509C112.311 115.408 111.352 118.238 110.14 120.962C100.934 130.46 113.638 109.102 104.975 112.509C103.899 115.096 103.074 117.779 102.51 120.523C102.233 120.99 101.904 121.423 101.528 121.814C93.3947 127.492 103.865 113.645 97.6552 113.49C97.4212 113.191 97.1425 112.93 96.8289 112.715C87.7916 106.198 79.5676 133.958 94.2468 122.704C94.6083 125.982 99.7467 126.718 102.406 123.091C103.194 125.26 106.912 127.324 110.475 123.091C110.282 124.021 110.023 125.092 109.455 127.453C94.505 131.325 108.164 145.147 113.032 128.266C113.205 128.248 113.378 128.218 113.548 128.176C114.219 127.66 118.428 129.054 117.085 126.55V126.55ZM95.3313 117.671C95.3313 118.807 90.0251 127.195 90.3091 120.355C89.8444 117.8 96.9451 108.637 95.3313 117.671ZM108.242 131.299C107.196 136.139 100.495 134.706 108.978 129.376C108.758 130.035 108.513 130.68 108.255 131.299H108.242Z" fill="white"/>
<path d="M135.702 112.188C133.998 109.452 129.608 104.651 126.936 103.154C126.963 103.041 127.035 102.945 127.134 102.886C127.234 102.828 127.354 102.813 127.465 102.844C129.815 103.605 136.334 109.284 135.702 112.188V112.188Z" fill="#FBDA8A"/>
<path d="M139.433 112.419C138.4 110.419 144.3 101.579 146.456 101.488C145.036 104.134 141.201 108.302 139.433 112.419V112.419Z" fill="#FBDA8A"/>
<path d="M137.82 111.979C136.09 111.979 139.369 97.6803 141.693 100.494C138.143 103.307 138.866 109.773 137.82 111.979Z" fill="#FBDA8A"/>
<path d="M135.973 109.593C127.4 91.0995 137.019 105.115 136.063 109.593H135.973Z" fill="#FBDA8A"/>
<path d="M126.123 160.582C125.916 153.549 129.57 143.431 129.57 134.913C131.803 96.081 131.984 156.956 126.123 160.582Z" fill="#30495D"/>
<path d="M128.795 148.168C134.204 140.27 137.548 131.675 137.535 122.021C141.279 126.319 135.095 146.129 128.795 148.168Z" fill="#30495D"/>
<path d="M130.796 125.982C127.594 125.169 127.633 118.626 128.214 116.174C133.197 116.174 132.939 123.594 130.796 125.775" fill="#A0C3EA"/>
<path d="M135.56 116.82C135.379 112.948 131.686 109.993 128.588 108.199C130.107 107.911 131.679 108.231 132.965 109.09C132.655 103.927 137.38 103.489 138.038 108.586C137.341 104.715 143.035 104.315 141.718 109.128C142.609 107.152 144.766 106.074 146.882 106.547C141.937 107.567 139.73 123.324 136.45 119.298C136.392 119.166 136.353 119.027 136.334 118.885" fill="#FF6D92"/>
<path d="M137.858 127.571C133.262 126.009 136.567 118.924 133.739 115.04C135.54 115.028 137.173 116.096 137.883 117.75C138.924 115.574 140.823 113.928 143.125 113.207C139.704 116.717 143.125 125.596 137.858 127.571" fill="#A0C3EA"/>
<path d="M128.847 103.32C129.001 106.159 122.598 104.042 127.129 101.797C127.659 101.861 128.175 101.952 128.847 103.32Z" fill="#FBDA8A"/>
<path d="M134.075 99.681C134.217 102.52 127.827 100.365 132.345 98.1582C132.888 98.2227 133.391 98.2743 134.075 99.681Z" fill="#FBDA8A"/>
<path d="M143.022 99.4884C143.177 102.328 136.774 100.211 141.305 97.9785C141.835 98.0818 142.338 98.0818 143.022 99.4884Z" fill="#FBDA8A"/>
<path d="M148.38 100.933C148.535 103.772 142.131 101.643 146.663 99.4102C147.179 99.4747 147.708 99.5263 148.38 100.933Z" fill="#FBDA8A"/>
<path d="M129.492 142.553C129.492 136.707 126.406 131.274 121.358 127.066C122.353 128.357 127.026 143.947 129.492 142.553Z" fill="#30495D"/>
<path d="M133.881 141.314C136.56 138.057 140.249 135.786 144.365 134.861C143.642 140.295 138.658 144.308 133.442 142.359" fill="#30495D"/>
<path d="M36.5759 112.186C37.5184 109.295 44.8128 104.262 44.8257 102.791C42.4631 103.617 35.9692 109.282 36.5759 112.186Z" fill="#FBDA8A"/>
<path d="M32.8054 112.42H32.9345C32.0953 105.528 18.307 91.2679 32.8054 112.42Z" fill="#FBDA8A"/>
<path d="M34.4708 111.979C36.1879 111.979 32.9215 97.6803 30.5977 100.494C34.148 103.307 33.425 109.773 34.4708 111.979Z" fill="#FBDA8A"/>
<path d="M36.3176 109.593C44.8772 91.0995 35.2847 105.115 36.2272 109.593H36.3176Z" fill="#FBDA8A"/>
<path d="M46.168 160.582C46.3617 153.549 42.721 143.431 42.708 134.913C40.4874 96.081 40.2938 156.956 46.168 160.582Z" fill="#30495D"/>
<path d="M43.4954 148.168C38.0731 140.257 34.7422 131.675 34.7551 122.021C30.9852 126.306 37.1822 146.129 43.4954 148.168Z" fill="#30495D"/>
<path d="M41.4944 125.982C44.6962 125.169 44.6575 118.626 44.0765 116.174C39.0931 116.174 39.3513 123.594 41.4944 125.775" fill="#A0C3EA"/>
<path d="M36.7822 116.82C36.963 112.948 40.6553 109.993 43.7538 108.199C42.2387 107.913 40.6719 108.233 39.3901 109.09C39.6871 103.927 34.9747 103.489 34.3034 108.586C35.0135 104.715 29.3071 104.315 30.6368 109.128C29.7459 107.152 27.5886 106.074 25.4727 106.547C30.4174 107.567 32.625 123.324 35.9043 119.298C35.9566 119.164 35.9955 119.026 36.0205 118.885" fill="#FF6D92"/>
<path d="M34.4198 127.571C39.0288 126.009 35.7109 118.924 38.5512 115.04C36.7477 115.03 35.1122 116.096 34.394 117.75C33.3612 115.568 31.4594 113.92 29.1523 113.207C32.5736 116.717 29.2169 125.596 34.4198 127.571" fill="#A0C3EA"/>
<path d="M43.4442 103.32C43.2893 106.159 49.6928 104.042 45.1613 101.797C44.6319 101.861 44.1155 101.952 43.4442 103.32Z" fill="#FBDA8A"/>
<path d="M38.2152 99.681C38.0732 102.52 44.4639 100.365 39.9323 98.1582C39.403 98.2227 38.8995 98.2743 38.2152 99.681Z" fill="#FBDA8A"/>
<path d="M29.2684 99.4884C29.1135 102.328 35.5171 100.211 30.9855 97.9785C30.4562 98.0818 29.9397 98.0818 29.2684 99.4884Z" fill="#FBDA8A"/>
<path d="M23.91 100.933C23.7551 103.772 30.1458 101.643 25.6271 99.4102C25.0978 99.4747 24.5297 99.5263 23.91 100.933Z" fill="#FBDA8A"/>
<path d="M42.7988 142.553C42.7988 136.707 45.8844 131.274 50.9324 127.066C49.9383 128.357 45.2647 143.947 42.7988 142.553Z" fill="#30495D"/>
<path d="M38.4091 141.314C35.7264 138.061 32.0389 135.792 27.9258 134.861C28.6488 140.295 33.6322 144.308 38.848 142.359" fill="#30495D"/>
<path d="M86.1388 6.4527C193.747 11.6149 191.062 162.608 86.1388 166.48C-21.4698 161.318 -18.7715 10.3243 86.1388 6.4527V6.4527ZM86.1388 0C-30.0552 5.4977 -27.3182 168.803 86.1388 172.932C202.397 167.448 199.609 4.12973 86.1388 0V0Z" fill="white"/>
<path d="M139.046 155.782C155.546 147.161 137.587 141.741 129.66 149.445C121.126 133.959 110.411 143.573 120.3 155.24C103.813 151.187 112.141 167.397 123.592 164.054C120.21 176.056 136.412 179.734 134.424 164.983C145.889 174.417 149.762 161.228 139.046 155.782Z" fill="#A0C3EA"/>
<path d="M132.604 158.995C130.112 160.659 135.586 164.337 134.889 159.382C134.528 159.008 134.192 158.646 132.604 158.995Z" fill="#30495D"/>
<path d="M133.43 150.993C130.938 152.658 136.412 156.323 135.715 151.38C135.354 150.993 135.018 150.645 133.43 150.993Z" fill="#30495D"/>
<path d="M125.877 152.348C123.399 154 128.86 157.678 128.163 152.735C127.814 152.348 127.452 151.987 125.877 152.348V152.348Z" fill="#30495D"/>
<path d="M126.394 161.395C123.902 163.06 129.363 166.738 128.679 161.782C128.305 161.408 127.969 161.047 126.394 161.395V161.395Z" fill="#30495D"/>
<path d="M123.321 157.072C120.829 158.737 126.303 162.415 125.606 157.473C125.231 157.085 124.896 156.724 123.321 157.072Z" fill="#30495D"/>
<path d="M129.621 155.704C127.13 157.368 132.604 161.046 131.907 156.091C131.545 155.716 131.197 155.355 129.621 155.704Z" fill="#30495D"/>
<path d="M50.777 141.649C47.9367 142.114 43.6375 146.205 42.6305 149.392C31.9277 140.604 18.3072 148.579 33.2317 155.729C20.6956 163.175 28.5064 173.448 37.8536 164.93C36.1881 180.714 52.3391 175.035 48.6855 164.001C62.887 166.711 66.334 150.812 51.9905 155.187C55.1923 152.051 59.6723 140.229 50.777 141.649Z" fill="#A0C3EA"/>
<path d="M39.6741 158.995C42.1658 160.659 36.7047 164.337 37.4019 159.382C37.7634 159.008 38.099 158.646 39.6741 158.995Z" fill="#30495D"/>
<path d="M38.8481 150.993C41.3398 152.658 35.8658 156.323 36.5759 151.38C36.9373 150.993 37.273 150.645 38.8481 150.993Z" fill="#30495D"/>
<path d="M46.478 152.348C48.9569 154 43.4957 157.678 44.1929 152.735C44.4898 152.348 44.8255 151.987 46.478 152.348Z" fill="#30495D"/>
<path d="M45.8967 161.395C48.3885 163.06 42.9273 166.738 43.6116 161.782C43.9731 161.408 44.3217 161.047 45.8967 161.395Z" fill="#30495D"/>
<path d="M48.9693 157.072C51.4481 158.737 45.9869 162.415 46.6841 157.473C47.0456 157.085 47.3942 156.724 48.9693 157.072Z" fill="#30495D"/>
<path d="M42.6695 155.704C45.1483 157.368 39.6871 161.046 40.3843 156.091C40.7458 155.716 41.0815 155.355 42.6695 155.704Z" fill="#30495D"/>
<path d="M85.0539 164.48C76.3006 161.989 61.97 148.387 73.8734 141.25C77.9015 142.05 78.0952 139.276 81.284 137.766C88.785 143.65 91.0314 154.194 86.771 164.054" fill="#FBE085"/>
<path d="M86.2035 163.176C42.308 137.739 66.4505 209.519 85.558 165.834Z" fill="#FBE085"/>
<path d="M84.7831 165.189C79.2833 169.938 72.0018 185.528 79.4769 190.38C102.716 191.464 98.0422 177.049 87.83 164.027" fill="#FBE085"/>
<path d="M85.3516 165.034C86.9266 175.539 102.884 191.438 108.668 176.378C120.61 161.02 96.7773 159.691 86.3457 162.453" fill="#FBE085"/>
<path d="M86.1902 165.19C101.308 167.939 113.431 161.396 104.407 145.328C87.8685 138.359 84.486 149.897 86.0094 163.564" fill="#FBE085"/>
<path d="M85.2096 159.279C91.1614 158.749 92.6719 167.654 86.307 168.88C80.3037 169.396 78.7544 160.505 85.2096 159.279Z" fill="#30495D"/>
</svg>
