<svg width="180" height="195" viewBox="0 0 180 195" fill="none" xmlns="http://www.w3.org/2000/svg">
<g clip-path="url(#clip0_3_21272)">
<path d="M139.61 99.4293C138.83 99.0593 142.5 97.8993 142.43 95.6993C141.85 96.1293 140 96.3593 140.07 94.5193C144.2 89.2693 144.39 99.1293 139.61 99.4293V99.4293Z" fill="#4D4876"/>
<path d="M82.66 123.89C71 123.32 86.07 102.68 85.6 95.9997C83.14 88.4297 68.73 108.09 66.5 112.08C67.33 108.08 73.78 95.0797 67.86 93.4097C63.1 90.7897 54.49 108.41 54.92 105.22C55.8941 102.784 56.5658 100.239 56.92 97.6397C59.18 79.6397 27.34 93.7697 31.53 110.84C37.05 124.56 56.79 104.78 43.74 103.13C41.91 103.35 42.86 104 43.55 103.93C49.61 103.13 45.99 112.61 41.11 114.44C36.11 116.27 30.86 112.08 34.06 103.2C37.76 93.0697 56.81 82.3997 54.71 97.5597C53.84 103.77 48.71 116.73 45.42 121.76C48.67 128.23 56.21 97.7597 65.88 94.3697C68.99 93.5897 67.88 99.8197 66.74 104.55C65.3586 110.029 63.2072 115.285 60.35 120.16C61.05 128.81 76.71 92.2597 82.9 96.6297C84.02 102.83 67.49 122.63 82.07 124.5C83.84 124.39 83.58 123.86 82.66 123.89V123.89Z" fill="#4D4876"/>
<path d="M135.459 112.8C134.659 114.44 132.299 119.21 130.739 119.17C128.059 118.09 134.329 109.86 133.739 107.97C131.991 108.144 130.234 108.194 128.479 108.12C130.259 107.12 131.729 103.76 129.479 103.03C127.309 105.03 126.649 110.61 124.619 114.86C121.679 118.72 116.339 123.55 117.839 114.29C122.339 114.8 129.389 105.91 122.339 106.68C119.589 107.42 117.059 110.3 115.889 113.24C115.119 114.35 114.709 116.05 113.419 117.53C106.029 125.02 114.419 107.79 114.989 107.66C113.689 107.2 109.759 109.6 107.989 111.24C106.856 112.261 105.822 113.386 104.899 114.6C108.019 108.23 112.979 98.9 114.649 97.18C110.539 96.1 107.079 104.93 103.649 112.72C103.605 112.782 103.568 112.849 103.539 112.92C102.539 115.86 97.1591 122.72 97.0591 116.69C97.0591 116.69 97.5891 113.79 97.9391 112.8C99.9432 110.984 101.651 108.865 102.999 106.52H105.209C106.299 105.14 103.869 105.84 103.459 105.68C110.359 92.29 101.079 97.04 98.3891 105.68C96.1191 105.3 94.1091 106.83 98.0091 106.52C97.0051 108.72 96.2245 111.014 95.6791 113.37C94.0191 115.88 91.6791 121.5 88.8291 118.25C94.4691 113.64 94.2491 102.1 86.1291 108.68C80.7091 113.08 80.6591 123.68 88.1291 118.86C88.7522 119.541 89.6472 119.908 90.5691 119.86C92.2791 119.74 94.1191 117.86 95.2791 115.91C94.9691 119.28 95.9791 121.55 100.279 119.1C100.549 118.83 100.799 118.56 101.029 118.3C100.629 119.07 100.229 119.79 99.8191 120.43C100.227 120.249 100.674 120.173 101.119 120.21C105.359 117.91 106.669 110 110.889 110.56C110.199 113.44 105.329 119.71 110.489 120.32C112.009 120.24 113.929 118.32 115.229 116.32C115.131 117.338 115.465 118.351 116.149 119.112C116.834 119.872 117.806 120.311 118.829 120.32C120.217 120.244 121.535 119.689 122.559 118.75C122.605 118.738 122.647 118.714 122.679 118.68L122.779 118.57C124.268 117.156 125.361 115.377 125.949 113.41C126.709 111.79 127.339 110.2 127.749 109.04C135.809 108.51 122.469 119.36 130.409 120.13C132.169 120.23 137.199 112.37 135.459 112.8V112.8ZM120.369 110.06C128.139 102.38 122.539 114.64 118.089 113.64C118.736 112.378 119.5 111.18 120.369 110.06ZM103.369 100.12C105.729 96.8 105.199 100.19 104.479 101.79C103.911 103.119 103.274 104.418 102.569 105.68H100.669C101.412 103.753 102.319 101.893 103.379 100.12H103.369ZM100.289 106.52H102.079C100.992 108.347 99.7004 110.045 98.2291 111.58C98.7691 110.25 99.4991 108.38 100.299 106.52H100.289ZM86.9991 116.46C87.0132 117.13 87.2254 117.781 87.6091 118.33C86.9446 119.042 85.99 119.411 85.0191 119.33C83.6491 118.91 84.0191 116.24 85.4691 113.12C86.9191 110 89.2491 107.67 90.8791 108.12C92.9591 108.54 90.7191 114.97 89.3991 116.43C89.5991 113.79 86.7491 115.17 86.9991 116.46V116.46Z" fill="#4D4876"/>
<path d="M144.68 119.43C151.09 115.55 142.76 109.62 146.81 105.87C147.199 105.699 147.641 105.699 148.03 105.87C146.33 101.6 141.51 112.54 140.34 114.87C137.34 115.62 139.34 121.87 143.8 119.87C148.11 121.16 150.4 116.06 151.8 112.87C150 112.79 148.37 120.79 144.68 119.43ZM141.21 116.65C141.201 117.801 141.777 118.878 142.74 119.51C140.59 120.27 140.13 117.64 141.21 116.65ZM143.39 119.17C142.309 118.606 141.676 117.444 141.79 116.23C141.79 114.98 140.99 115.01 140.99 115.01C141.9 113.34 143.54 110.01 144.57 108.01C144.44 110.82 146.13 117.4 143.39 119.17Z" fill="#4D4876"/>
<path d="M73.2992 142.719H73.2092C71.9192 142.799 73.0992 128.049 72.7092 127.399C87.2092 123.389 88.0792 144.849 73.2992 142.719ZM76.2292 141.609C87.2292 140.329 83.6492 126.219 73.8192 127.969V141.609H76.2292Z" fill="#4D4876"/>
<path d="M96.2092 138.619H88.9992L87.5992 142.359C87.5292 142.479 87.5192 142.609 86.8692 142.699C86.5895 142.576 86.4506 142.259 86.5492 141.969L91.9992 127.269C92.0792 127.269 92.3592 126.549 93.0892 127.269L98.5892 141.969C98.708 142.251 98.579 142.576 98.2992 142.699C97.9192 142.699 98.1492 142.829 97.5792 142.359L96.2092 138.619ZM89.3892 137.509H95.7992L92.6092 128.999L89.3892 137.509Z" fill="#4D4876"/>
<path d="M104.819 135.11L99.4891 127.84C99.3237 127.587 99.3755 127.251 99.6091 127.06C99.7211 126.964 99.8676 126.92 100.014 126.937C100.16 126.954 100.292 127.031 100.379 127.15L105.379 133.98L110.379 127.15C110.466 127.031 110.599 126.954 110.745 126.937C110.89 126.92 111.037 126.964 111.149 127.06C112.329 127.15 105.859 134.95 105.969 135.06C106.389 147.08 104.269 142.88 104.819 135.11Z" fill="#4D4876"/>
<path d="M74.3396 84.7586H68.3396C68.5596 85.8886 68.2497 91.9286 67.5297 89.4686C67.9397 87.4086 66.5296 76.7586 68.3396 78.9686V83.9686H74.3396C74.4396 83.4886 73.8897 76.8186 75.1497 79.0486V89.4686C74.6497 91.9986 73.9996 86.2486 74.3396 84.7586Z" fill="#4D4876"/>
<path d="M84.5594 87.1498H79.2894L78.2894 89.8798C78.2394 89.9598 78.2394 90.0598 77.7694 90.1298C77.5639 90.0423 77.4596 89.812 77.5294 89.5998L81.5294 78.8698C81.5894 78.8698 81.7894 78.3498 82.3194 78.8698L86.3194 89.5998C86.397 89.8068 86.3008 90.0386 86.0994 90.1298C85.8294 90.1298 85.9994 90.2198 85.5694 89.8798L84.5594 87.1498ZM79.5594 86.3398H84.2294L81.8994 80.1298L79.5594 86.3398Z" fill="#4D4876"/>
<path d="M88.9094 78.9992C96.9094 75.9992 98.7694 86.4392 89.7194 85.2292C89.3994 98.1292 88.5194 80.6492 88.9094 78.9992ZM92.5794 84.4192C97.6694 82.9392 94.0194 78.2892 89.7194 79.4192V84.4192H92.5794Z" fill="#4D4876"/>
<path d="M98.5493 78.9992C106.549 75.9992 108.409 86.4392 99.3593 85.2292C98.9993 98.1292 98.1593 80.6492 98.5493 78.9992ZM102.219 84.4192C107.309 82.9392 103.659 78.2892 99.3593 79.4192V84.4192H102.219Z" fill="#4D4876"/>
<path d="M111.19 84.5891L107.31 79.2891C107.192 79.1087 107.227 78.8695 107.39 78.7291C107.47 78.6577 107.576 78.6235 107.683 78.635C107.79 78.6464 107.886 78.7024 107.95 78.7891L111.57 83.7891L115.21 78.7891C115.273 78.7024 115.37 78.6464 115.476 78.635C115.583 78.6235 115.69 78.6577 115.77 78.7291C116.59 78.8391 112.06 84.2691 111.99 84.5591C112.33 93.5091 110.78 89.8391 111.19 84.5891V84.5891Z" fill="#4D4876"/>
<path d="M90.1092 34.6294C89.657 34.3069 89.1787 34.0226 88.6792 33.7794C105.479 19.7794 91.6792 7.07944 75.7892 15.9694C73.5092 -17.5706 48.1492 9.12944 52.1792 28.6694C50.7392 49.0794 59.9992 56.9994 78.1392 51.8894C90.0792 51.4894 100.299 44.2894 90.1092 34.6294V34.6294Z" fill="#CB93B6"/>
<path d="M76.5498 39.6793C76.2658 39.4822 75.9684 39.3051 75.6598 39.1493C85.4398 31.4493 78.3998 22.1493 67.6598 28.0593C66.2998 7.53925 50.4398 23.4593 52.9298 35.9993C51.7798 47.6093 57.7998 53.8493 68.6998 50.4993C75.5998 50.3293 83.1998 45.9993 76.5498 39.6793V39.6793Z" fill="#BE5C84"/>
<path d="M111.55 38.0002C111.922 37.8457 112.307 37.7252 112.7 37.6402C103.1 25.2802 114.89 18.0302 124.82 27.0802C131.82 3.86022 145.66 26.4302 139.53 40.0102C137.53 54.1902 129.15 59.0102 117.53 52.4102C109.27 50.2302 102.45 43.4402 111.55 38.0002Z" fill="#CB93B6"/>
<path d="M120.999 45.6485C121.216 45.559 121.44 45.4888 121.669 45.4385C116.759 39.9285 121.809 33.2585 128.669 39.2985C132.389 26.5485 140.869 37.9985 137.219 46.8085C136.269 64.2185 110.999 50.7785 120.999 45.6485V45.6485Z" fill="#BE5C84"/>
<path d="M39.7992 28.2487C39.4219 28.2744 39.0473 28.3313 38.6792 28.4187C41.6292 13.9987 28.6192 12.7387 23.9992 24.5687C8.36925 7.92866 6.10925 32.7187 16.9992 41.6587C23.7192 51.6587 33.2092 53.9787 40.1392 43.6587C45.9992 38.3487 50.5092 29.2087 39.7992 28.2487V28.2487Z" fill="#CB93B6"/>
<path d="M35.9998 36.6494C35.7599 36.6608 35.5219 36.6977 35.2898 36.7594C37.3498 29.6294 29.6498 25.6394 26.0698 34.3394C16.8798 24.3394 14.3098 38.6694 21.6498 45.0894C30.5598 60.5794 47.4598 36.7894 35.9998 36.6494Z" fill="#BE5C84"/>
<path d="M158.769 141.239C133.819 184.469 82.4891 192.999 46.9991 161.839C11.9991 129.229 17.0991 77.3487 52.2391 50.6387C50.4091 42.8587 31.4391 66.3287 30.6991 68.5487C31.4991 66.6487 33.0191 48.6987 28.3591 54.2287C28.5691 62.0487 26.3591 71.5487 24.8991 80.0087C-1.56086 151.249 75.8091 210.919 135.999 171.629C144.429 166.759 165.549 144.529 158.769 141.239Z" fill="#4D4876"/>
<path d="M164.249 98.8392C159.439 58.3292 128.079 43.5492 142.249 58.5592C161.249 78.8692 164.679 108.209 159.249 135.409C159.369 136.079 158.249 139.189 160.439 139.669C166.489 134.789 165.239 104.099 164.249 98.8392V98.8392Z" fill="#4D4876"/>
<path d="M63.9992 60.1286C56.1151 57.9216 47.6553 59.4112 40.9992 64.1786C31.5292 73.8286 67.3092 67.4986 63.9992 60.1286V60.1286Z" fill="#948DC0"/>
<path d="M48.1591 77.54C42.2954 76.769 36.3471 78.0783 31.3491 81.24C16.9991 91 66.7391 81.72 48.1591 77.54Z" fill="#948DC0"/>
<path d="M19.4091 60.8498C-1.59089 37.7398 12.2291 74.9398 23.5991 72.0498C24.3691 70.8098 23.1191 67.9598 22.3391 65.6498C21.765 63.8364 20.7596 62.1893 19.4091 60.8498V60.8498Z" fill="#948DC0"/>
<path d="M5.81955 76.9997C-9.00045 70.8297 8.24955 93.8397 15.5895 92.9997C25.1095 92.5897 10.2795 76.8497 5.81955 76.9997Z" fill="#948DC0"/>
<path d="M137.879 66.47C138.789 66.08 142.339 65.47 141.989 63.35C137.529 58.61 126.419 57.03 121.439 62.28C125.876 66.3336 132.044 67.9054 137.879 66.47V66.47Z" fill="#948DC0"/>
<path d="M150.6 60.1292C156.71 64.2792 158.3 41.6992 155.78 38.3392C149.53 38.1592 146.32 56.5192 150.6 60.1292Z" fill="#948DC0"/>
<path d="M148 82.5192C149 82.0892 154.34 80.4392 151.21 78.2292C147.21 72.4292 136.96 74.6092 131.1 77.6692C133.29 82.1292 142.71 84.0792 148 82.5192V82.5192Z" fill="#948DC0"/>
<path d="M161.239 78.2C161.239 78.33 161.239 78.3 161.419 78.38C167.999 77 175.219 66.55 172.349 60C165.939 63.1 160.769 69.85 161.139 77.58C161.083 77.7915 161.119 78.0169 161.239 78.2V78.2Z" fill="#948DC0"/>
<path d="M179.63 130.64C174.24 130.21 168 132.3 164.86 137.83C162.63 143.37 182.57 135 179.63 130.64Z" fill="#948DC0"/>
<path d="M152.47 132.239C134.25 121.619 153.18 145.739 157.27 138.299C157.53 136.219 154.91 134.199 152.47 132.239Z" fill="#948DC0"/>
<path d="M153.82 144.07C152.992 143.832 152.111 143.86 151.3 144.15C150.355 144.022 149.399 143.998 148.45 144.08C148.27 143.99 148.33 143.86 148.02 144.08C110.25 153.73 150.89 158.05 153.82 144.07V144.07Z" fill="#948DC0"/>
<path d="M161.83 145.75C161.42 145.35 160.31 145.95 160.89 146.94C160.46 152.56 164.12 158.55 169.12 161.4C176.55 166.4 174.19 158.4 171.88 154.71C169.41 150.89 165.47 148.69 161.83 145.75V145.75Z" fill="#948DC0"/>
<path d="M157.85 48.0601C156.44 49.2801 155.12 51.0001 153 53.0001C153.26 50.7701 153.62 48.1501 154.17 45.0001C157.17 42.2401 157.48 42.0901 156.5 42.6101C154.97 44.3501 156.56 43.9401 157.5 42.1001C156.336 42.7184 155.26 43.4884 154.3 44.3901C155.41 37.9201 153.7 42.5001 153.06 47.1401C152.22 46.6401 151.5 45.4801 150.51 43.8801C150.367 45.5225 151.412 47.0344 153 47.4801C152.57 49.9601 152.09 53.3001 151.77 56.7501C150.56 55.9101 149.36 52.3301 147.6 51.5401C148.41 53.8685 149.825 55.9393 151.7 57.5401C151.7 58.1101 151.44 59.7001 151.43 61.9501C152.81 63.2301 152.22 58.2801 152.93 53.7101C154.43 52.7401 157.35 50.4701 157.85 48.0601Z" fill="#4D4876"/>
<path d="M173 65.0004C172.12 64.8504 171.58 65.1304 169.77 65.6304C173.41 60.6304 169.77 63.9404 166.83 68.5504C167.22 65.1804 164.43 57.9704 166.55 68.9604C165.02 71.2504 164.35 72.1904 162.42 75.5404C162.57 73.8244 162.493 72.096 162.19 70.4004C161.525 72.1233 161.568 74.0391 162.31 75.7304C161.75 75.8704 160.36 80.2904 161.61 78.5104C162.75 76.5104 162.97 75.8504 164.71 73.0804C167.98 73.7304 176.27 70.0804 164.97 72.6504C165.97 71.0404 167.43 68.8004 169.3 66.2604C169.59 66.1704 172.35 66.2404 173 65.0004V65.0004Z" fill="#4D4876"/>
<path d="M152.609 79.6305C151.449 79.3281 150.27 79.1075 149.079 78.9706C148.079 76.5506 142.189 70.2505 148.409 78.8805C147.329 78.7305 145.769 78.5205 143.579 78.3205C142.309 77.3205 141.139 75.4905 139.679 74.0605C140.146 75.7959 141.249 77.2918 142.769 78.2505C140.175 77.9601 137.559 77.9299 134.959 78.1606C135.059 78.4906 134.909 78.3406 135.959 78.5106C137.009 78.6806 137.809 78.5905 139.629 78.7005C138.629 79.4605 136.629 80.0006 135.429 81.8706C135.919 81.6406 136.119 81.3206 140.489 78.8706C140.555 78.8553 140.614 78.8204 140.659 78.7705C141.819 78.8705 143.309 78.9505 146.259 79.3605C146.259 79.7705 143.439 81.7006 143.659 82.9706C144.884 81.9254 145.994 80.752 146.969 79.4706C148.489 79.6806 149.909 80.0006 152.489 80.4706C152.779 80.3806 152.939 80.2505 152.609 79.6305V79.6305Z" fill="#4D4876"/>
<path d="M141.92 63.3501C140.953 63.0172 139.942 62.8285 138.92 62.7901C138.537 61.3352 137.633 60.0717 136.38 59.2401C136.16 58.9601 135.71 59.1201 136.06 59.5301C136.735 60.6387 137.483 61.701 138.3 62.7101C137.86 62.6501 138.05 62.6601 137.21 62.5801C137.145 62.5034 137.05 62.4592 136.95 62.4592C136.849 62.4592 136.754 62.5034 136.69 62.5801C135.69 62.4701 134.79 62.3601 133.84 62.2801C133.23 61.2801 132.14 58.3901 129.92 58.4301C130.52 59.5301 131.74 60.1101 133.18 62.2301C131.06 62.2301 128.1 61.5701 125.18 62.1701C126.798 62.4666 128.436 62.6471 130.08 62.7101C129.49 63.2501 127.67 63.7101 126.71 64.9401C128.06 64.6301 128.77 63.9401 131.14 62.8101C132.2 62.9201 133.25 62.9801 135.77 63.3401C135.26 64.0301 133.36 64.6301 132.58 66.1501C133.88 65.8501 134.58 65.0001 136.73 63.4701C137.44 63.0501 141.81 65.2601 141.92 63.3501V63.3501Z" fill="#4D4876"/>
<path d="M177.859 132.09C176.649 131.73 175.059 132.96 172.739 133.9C173.319 130.84 173.579 130.51 172.949 131.6C174.049 130.54 174.019 130.76 173.579 130.51C172.979 133.2 173.169 133.51 174.019 130.76C172.964 131.741 172.19 132.988 171.779 134.37C170.379 135.07 168.439 136.1 166.329 137.37C166.329 136.76 167.129 136.67 167.629 133.84C167.329 134.23 166.629 134.62 165.549 137.84C164.789 138.34 164.039 138.84 163.329 139.41L163.169 139.52H163.109C163.339 141.31 166.939 137.52 168.789 136.77C168.789 137.13 175.989 138.48 174.289 136.77C173.789 136.68 173.479 136.88 169.209 136.53C170.109 136.03 169.729 136.16 171.909 135.03C172.729 134.61 173.559 134.2 174.389 133.82C174.509 134.29 176.979 135.36 177.559 134.18C176.759 133.94 176.219 133.97 174.649 133.69C175.793 133.32 176.876 132.781 177.859 132.09V132.09Z" fill="#4D4876"/>
<path d="M154.67 143.68C154.67 143.68 154.27 142.87 153.74 143.77C153.648 143.75 153.553 143.781 153.49 143.85C152.43 144.38 151.49 144.85 149.25 145.85C144.61 144.85 144.25 144.56 145.35 145.23C148.62 145.75 148.35 145.02 144.27 144.56C145.466 145.28 146.728 145.883 148.04 146.36C146.89 146.82 145.66 147.36 143.49 148.09C141.68 148.09 139.69 146.87 137.33 146.67C138.662 147.593 140.149 148.27 141.72 148.67C140.18 149.44 137.04 149.52 135.01 151.04C136.614 150.984 138.201 150.691 139.72 150.17C139.46 150.69 137.01 152.24 137.45 153.77C138.45 153.08 138.14 152.97 140.67 149.91C142.38 149.4 144.85 148.64 147.33 147.64C146.307 149.067 145.366 150.549 144.51 152.08C144.479 152.14 144.459 152.204 144.45 152.27C144.74 153.86 147.81 149.43 147.39 147.59C149.15 146.56 153.05 146.15 154.67 143.68V143.68Z" fill="#4D4876"/>
<path d="M157.829 138.921C156.829 138.131 156.089 137.791 154.249 136.531C154.24 136.446 154.212 136.365 154.169 136.291C154.379 136.431 151.939 125.971 153.349 135.931C152.429 135.311 151.099 134.471 149.549 133.391C149.879 131.821 148.469 127.771 148.969 132.951C146.059 130.631 147.969 133.461 150.669 134.951C150.039 135.081 148.039 134.341 147.439 135.171C148.269 135.171 149.099 135.961 151.229 135.341L154.399 137.551C153.819 137.751 151.699 137.401 150.399 138.431C151.996 138.658 153.623 138.538 155.169 138.081C155.769 138.501 156.169 138.821 157.309 139.571C157.699 139.851 158.219 139.281 157.829 138.921V138.921Z" fill="#4D4876"/>
<path d="M174.58 158.001C173.18 157.421 173.81 157.491 169.86 157.141C169.35 156.511 168.71 155.711 167.66 154.371C167.58 154.371 167.77 154.051 167.38 154.021C167.04 153.581 166.2 152.541 165.03 150.901C167.62 152.901 177.13 154.291 164.73 150.491C163.56 149.331 162.61 146.681 160.6 145.291C161.128 146.5 161.799 147.642 162.6 148.691C162.6 149.571 161.53 154.101 163.15 154.691C163.41 153.541 163.09 153.561 163.15 149.461C164.15 150.991 165.49 152.831 167.15 154.991C166.52 157.351 167.78 167.631 167.88 155.931C167.7 155.621 173.23 163.211 172.06 159.651C171.72 159.271 171.06 158.651 170.3 157.591C171 157.531 173 159.071 174.58 158.001V158.001Z" fill="#4D4876"/>
<path d="M61.209 61.7208C59.159 61.2908 54.149 62.9708 50.539 63.7208C53.839 60.8008 57.879 54.1708 49.609 63.9608C46.899 64.7108 44.929 65.2408 41.189 66.4808C41.559 65.0708 43.619 63.2508 44.119 61.4808C42.5711 62.9006 41.4024 64.6846 40.719 66.6708C37.719 67.6708 38.089 68.5908 44.109 66.2508C46.337 67.7879 48.8779 68.8124 51.549 69.2508C51.669 69.3708 51.889 68.4208 51.379 68.6208C49.085 67.9364 46.8399 67.0978 44.659 66.1108C46.2723 65.6108 47.889 65.1408 49.509 64.7008C49.619 64.7008 49.599 64.7008 49.799 64.6208C51.5056 64.1608 53.2323 63.7308 54.979 63.3308C56.359 63.7808 59.159 65.1208 61.199 65.1108C59.999 64.0008 58.139 63.4008 55.499 63.1408C57.4302 62.7879 59.3373 62.3136 61.209 61.7208V61.7208Z" fill="#4D4876"/>
<path d="M49.9397 79.5306C48.0597 79.3806 45.4397 80.3806 42.0297 80.9706C45.4497 77.3606 47.3897 71.9706 41.1197 81.1606C38.5297 81.7106 34.9697 82.4806 31.3297 83.1606C33.7197 80.7206 37.7697 73.5706 30.6797 83.2806C26.3397 83.9206 27.5097 84.9406 35.0297 83.2806C35.8797 83.8706 40.3197 87.0206 40.9297 85.3706H40.8597C39.5197 84.6306 37.9797 84.2606 35.7897 83.0806C37.1797 82.8006 38.6097 82.5106 40.8997 82.0206C41.0045 82.0299 41.1087 81.9976 41.1897 81.9306L45.9397 80.9306C45.9397 80.9306 48.8097 84.1106 49.6797 82.6306C49.0497 81.9006 48.3397 81.8306 46.6797 80.7706C47.2397 80.3806 49.4597 80.8206 49.9397 79.5306V79.5306Z" fill="#4D4876"/>
<path d="M24.1196 72.1301C22.8896 70.3501 21.6196 68.6101 20.3296 66.8801C20.8396 66.8001 22.6596 58.7301 20.9296 61.2901C20.6796 62.9101 20.6496 62.1001 19.9296 66.3501C18.3396 64.2001 16.2596 61.5201 14.0096 58.6901C14.0696 58.6901 14.1396 58.2601 13.4896 58.0301C13.0596 57.7201 11.8696 55.4901 10.7796 55.3301C11.2584 56.1341 11.7895 56.9057 12.3696 57.6401C11.2096 57.0701 6.07955 56.5801 13.1196 58.6401C13.1196 58.6401 13.1196 58.7201 13.2396 58.7901C14.3096 60.1501 15.5196 61.7901 17.1096 64.0101C13.7096 63.3701 6.10955 63.3301 17.7296 64.8801C18.8696 66.4801 19.9962 68.0867 21.1096 69.7001C17.7796 68.8801 10.2696 67.9601 21.7496 70.6301C21.8296 70.6001 23.8396 74.4401 24.1196 72.1301V72.1301Z" fill="#4D4876"/>
<path d="M17.0694 56.5809C17.0694 55.3609 14.9094 61.9609 16.6494 60.6809C16.7094 59.6309 17.5094 58.6309 17.0694 56.5809Z" fill="#4D4876"/>
<path d="M17.9994 91.9991C16.9094 90.9991 15.1794 89.4591 12.9994 87.4291C14.0894 82.4891 12.7794 72.8791 12.4994 86.9691C11.0894 85.6791 8.70941 83.4891 6.49941 81.4091C6.49941 80.4091 7.23941 78.3191 6.27941 75.8691C5.99941 77.0491 5.99941 76.8891 6.16941 80.9991C1.76941 76.4991 0.299405 76.4091 7.9994 83.7491C7.5294 83.7491 4.5494 83.5191 3.1394 84.5591C4.0694 85.2191 4.1394 84.4491 8.7094 84.4491C9.9994 85.7591 11.9994 87.6891 14.0494 89.6191C13.3994 89.8491 10.4594 89.0191 8.92941 90.3491C10.2094 90.6991 10.3294 90.3491 14.7894 90.3491C14.6594 90.3591 19.8394 95.1491 17.9994 91.9991V91.9991Z" fill="#4D4876"/>
<path d="M26.1899 41.8497C23.4899 36.8497 21.2499 32.3197 17.8599 26.6797C16.0599 25.6897 29.5199 51.9997 26.1899 41.8497V41.8497Z" fill="white"/>
<path d="M32.6596 24.1504C30.9996 29.1504 29.9996 35.6004 29.1396 42.3104C31.6696 38.6504 32.0796 30.5104 32.6596 24.1504V24.1504Z" fill="white"/>
<path d="M42.2293 35.6602C39.7593 38.2702 34.1093 41.0402 32.7793 44.9002C34.7393 41.9202 40.8093 39.2102 42.2293 35.6602V35.6602Z" fill="white"/>
<path d="M63.26 11.9199C62.05 18.6999 61.38 26.7499 60 34.9999C61.51 40.4899 64 17.6599 63.26 11.9199V11.9199Z" fill="white"/>
<path d="M85.2194 23.8485C85.158 23.6804 85.02 23.5517 84.848 23.5023C84.6759 23.4528 84.4906 23.4886 84.3494 23.5985C79.1594 26.8285 73.0894 31.8485 67.8594 36.2485C73.5494 33.8285 80.7394 29.3885 85.2194 23.8485V23.8485Z" fill="white"/>
<path d="M84.7798 41.2793C79.5127 42.0262 74.3824 43.5353 69.5498 45.7593C73.5798 44.9393 81.2998 44.6893 84.7798 41.2793Z" fill="white"/>
<path d="M125.29 48.5694C115.89 44.7694 110 44.0194 126.8 50.1294C127.91 50.1894 126.63 48.6794 125.29 48.5694Z" fill="white"/>
<path d="M129.229 44.9089C129.229 44.4389 116.419 29.7889 118.919 33.9589C120.139 35.1589 132.379 51.9389 129.229 44.9089Z" fill="white"/>
<path d="M134.269 30.1601C133.839 24.1601 131.949 39.7601 132.699 43.2501C135.269 41.3801 133.909 34.7201 134.269 30.1601Z" fill="white"/>
<path d="M100.239 60.6091C98.7891 58.7091 96.0391 59.6091 93.6791 61.1891C92.3691 58.1891 87.6791 56.2591 89.2991 62.3991C89.2991 62.7191 89.2991 62.3991 89.4391 63.3991C89.1091 69.2791 95.8591 67.4491 99.5691 63.8591C100.069 63.1591 99.4791 63.9991 100.149 63.0791C100.636 62.3364 100.67 61.3852 100.239 60.6091Z" fill="#CB93B6"/>
<path d="M20.6799 129.439C19.7996 128.731 18.6477 128.457 17.5426 128.691C16.4376 128.926 15.4966 129.645 14.9799 130.649C4.35987 123.079 14.9799 145.869 20.7099 134.199C21.8105 132.8 21.798 130.825 20.6799 129.439Z" fill="#CB93B6"/>
<path d="M63.2597 154.879C61.3797 153.289 59.6697 153.699 56.4997 155.489C51.2697 141.749 47.4397 170.989 63.4997 158.179C64.1097 157.129 63.9997 156.239 63.2597 154.879Z" fill="#CB93B6"/>
<path d="M153.169 174.549C152.819 173.639 152.929 172.079 150.289 172.249C148.714 172.535 147.228 173.186 145.949 174.149C145.729 173.387 145.057 172.844 144.267 172.788C143.476 172.732 142.734 173.176 142.409 173.899C140.409 178.459 148.139 181.329 152.459 176.319C152.915 175.843 153.169 175.209 153.169 174.549V174.549Z" fill="#CB93B6"/>
<path d="M157.689 92.3288C156.449 90.9388 154.429 90.6688 153.009 93.3288C152.489 92.3288 149.729 89.3288 148.899 92.2788V92.3388V92.4988C149.579 93.9888 149.819 99.4388 153.539 98.8988C155.459 98.1388 158.919 95.8388 157.689 92.3288V92.3288Z" fill="#CB93B6"/>
<path d="M85.8094 188.129C85.2322 187.42 84.2913 187.118 83.4094 187.359C82.0194 187.649 82.4094 187.659 79.6894 189.139C80.0394 187.599 77.6094 183.139 76.0094 186.559C75.5538 188.634 75.6679 190.793 76.3394 192.809C76.7294 193.319 76.7694 193.369 76.4394 192.949L76.7694 193.379C79.0594 195.079 83.9594 193.869 85.9294 190.709C86.4161 189.904 86.3687 188.885 85.8094 188.129V188.129Z" fill="#CB93B6"/>
<path d="M125.1 159.789C122.95 159.329 121.94 160.459 120.1 163.969C119.43 162.739 114.86 162.129 116.77 165.319C118.72 171.209 128.28 165.929 125.1 159.789Z" fill="#CB93B6"/>
</g>
<defs>
<clipPath id="clip0_3_21272">
<rect width="180" height="195" fill="white"/>
</clipPath>
</defs>
</svg>
