<svg width="169" height="181" viewBox="0 0 169 181" fill="none" xmlns="http://www.w3.org/2000/svg">
<path d="M67.0001 56.7885C64.1701 53.9885 65.3001 45.6785 63.8701 41.7885C62.6337 41.6492 61.3824 41.8353 60.2401 42.3285C59.9001 45.2485 63.7901 54.1485 61.7401 56.7485C60.4301 57.7485 52.9001 22.2485 58.1401 27.7485C58.1401 28.6985 58.2301 29.6885 58.3501 30.7485L59.5701 38.8185L59.7101 40.3085C59.7481 40.6462 59.8116 40.9805 59.9001 41.3085L63.7001 40.5685L62.0001 27.5785L61.8801 26.5785C65.4301 26.5085 64.2901 35.4485 65.6201 39.6285C66.1101 47.8385 69.5701 53.1085 67.0001 56.7885V56.7885Z" fill="#3F3029"/>
<path d="M78.9408 55.4287C76.9408 56.0087 77.6908 50.1187 77.4208 49.2887C75.9256 48.7431 74.3423 48.4786 72.7508 48.5087C72.0108 49.8387 72.2608 52.5087 71.1208 55.3787C70.1208 55.3787 69.5008 55.1887 69.3408 54.6687C71.4808 49.8587 71.4108 22.9987 76.4508 25.9987C76.6808 32.6087 82.3908 54.7087 78.9408 55.4287V55.4287ZM76.6508 42.5687C76.2808 39.6887 75.3108 34.2287 75.2108 31.2987C74.4108 31.8287 72.8008 45.8187 72.9108 46.7387C74.3394 47.0862 75.8253 47.1271 77.2708 46.8587C77.2008 46.3287 77.0008 44.8987 76.6508 42.5687Z" fill="#3F3029"/>
<path d="M82.7107 54.2786C82.8907 47.0586 83.5907 31.7686 82.2207 25.9386C90.5707 21.6686 92.6407 38.7086 84.8207 41.6286L85.0007 53.9986C85.1507 55.0586 83.0007 56.9386 82.7107 54.2786ZM84.7107 39.7086C87.1407 37.5886 88.7107 33.3086 87.3107 29.8786C86.8207 29.0086 86.3107 28.5786 84.3907 27.1486C84.3707 29.3286 84.7907 36.9186 84.7507 39.7086H84.7107Z" fill="#3F3029"/>
<path d="M92 54.47C92.55 47.27 94 32.04 93 26.14C101.56 22.31 102.75 39.43 94.78 41.95L94.28 54.3C94.4 55.38 92.18 57.14 92 54.47V54.47ZM94.79 40C97.33 38 99.11 33.82 97.9 30.31C97.46 29.42 97.01 28.97 95.13 27.43C95 29.64 95 37.24 94.79 40Z" fill="#3F3029"/>
<path d="M103.591 56.0688L104.671 48.4688C106.411 44.9388 101.211 27.0587 104.461 26.4688C106.171 28.4688 105.731 33.0887 106.341 37.2787C106.261 36.8887 109.341 22.6188 110.801 28.6388C110.301 31.7088 107.801 37.9388 107.481 40.8888L107.201 42.2388L107.131 42.8288L106.131 53.3088L106.041 55.3088C106.391 56.0488 104.501 58.7088 103.591 56.0688Z" fill="#3F3029"/>
<path fill-rule="evenodd" clip-rule="evenodd" d="M77.8 150.078C78.25 142.278 86.12 133.498 89.28 145.748C99.09 134.398 102.71 149.158 99.55 158.248C108.04 155.968 109.94 161.528 103.42 167.658C109.56 175.238 93.15 180.928 85.24 179.378C81.06 181.788 73.3 179.588 71.87 173.698C60.15 172.588 55.08 159.698 71.12 161.828C63.7 154.658 63.08 134.698 77.8 150.078V150.078Z" fill="#FF6F86"/>
<path fill-rule="evenodd" clip-rule="evenodd" d="M81.0503 160.699C78.6203 161.079 80.4603 165.699 83.3303 164.889C85.4003 163.819 82.7703 161.139 81.0503 160.699Z" fill="#FFDDA6"/>
<path fill-rule="evenodd" clip-rule="evenodd" d="M78 166.529C77.51 165.529 73.69 162.529 73.54 165.739C73.91 167.109 76.39 168.879 78 166.529Z" fill="#FFDDA6"/>
<path fill-rule="evenodd" clip-rule="evenodd" d="M94.4503 163.588C94.4503 160.428 90.7803 161.538 91.6403 165.118C92.6903 165.928 94.1503 165.128 94.4503 163.588Z" fill="#FFDDA6"/>
<path fill-rule="evenodd" clip-rule="evenodd" d="M83.6007 168.67C83.6007 167.74 80.5007 165.67 80.1807 168.21C80.3207 169.71 82.8007 170.72 83.6007 168.67Z" fill="#FFDDA6"/>
<path fill-rule="evenodd" clip-rule="evenodd" d="M86.9308 165.68C84.0508 165.36 86.7408 170.86 88.7808 167.92C89.0008 166.76 88.3408 166.2 86.9308 165.68Z" fill="#FFDDA6"/>
<path fill-rule="evenodd" clip-rule="evenodd" d="M87.7606 158.8C87.7606 156.64 83.8506 156.89 85.4206 160.01C86.1806 160.39 87.2806 161 87.7606 158.8Z" fill="#FFDDA6"/>
<path fill-rule="evenodd" clip-rule="evenodd" d="M90.9405 163.189C90.6705 159.949 86.4405 162.869 89.7405 164.859C90.1205 164.769 90.4605 164.639 90.9405 163.189Z" fill="#FFDDA6"/>
<path fill-rule="evenodd" clip-rule="evenodd" d="M37.6799 111.489C44.5799 108.959 35.0699 124.489 53.4399 127.309C53.8199 127.719 55.8499 127.529 54.4399 129.169C49.7099 129.469 41.1399 127.749 38.0099 122.769C37.1419 120.978 36.51 119.082 36.1299 117.129C34.7499 116.019 34.5699 119.129 35.3999 121.389C31.5399 118.549 26.6199 115.809 25.5199 109.949C26.0999 101.889 23.5999 100.769 23.9799 110.949C18.0699 105.069 17.3399 92.9489 14.3499 86.8289C13.0099 93.1989 16.4199 98.8289 18.5699 105.439C13.6499 100.439 14.1199 105.669 19.7499 107.679C20.7278 109.722 21.9501 111.64 23.3899 113.389C25.3899 114.689 26.7399 116.849 28.9899 118.839C19.0899 116.839 27.4699 121.779 33.5599 122.189C36.0699 123.779 37.7499 125.509 40.7799 127.729C37.1199 126.669 32.1799 135.729 28.3899 130.439C25.8599 130.499 14.9599 131.049 17.5799 125.659C21.1499 124.659 24.8899 125.509 29.0699 123.659C26.6099 121.039 10.5099 127.249 11.8599 119.959C3.85994 118.199 4.38994 110.179 15.3999 114.269C17.0899 115.139 18.3999 114.479 21.4699 115.039C19.2799 112.899 16.7299 111.639 14.8299 109.799C11.3099 111.039 -6.57006 100.309 5.02994 100.069C3.88994 98.3789 0.369941 89.4888 6.31994 92.3188C8.57994 94.3988 9.00994 98.2289 12.4699 100.069C12.1399 98.5189 -0.920059 68.2488 11.1799 77.7088C11.3599 77.7088 11.4299 77.7089 11.4699 77.6489C14.4699 61.7589 23.3299 60.2589 19.1399 79.4089C34.3699 65.9189 12.9999 99.2889 21.5999 100.689C23.7099 99.0389 22.4599 95.9589 24.5399 93.2589C28.2999 88.6489 31.0299 88.7789 29.7399 96.4389C36.0699 96.0289 31.1399 102.259 27.8299 104.829C27.5401 108.287 29.1331 111.633 31.9999 113.589C30.0499 107.409 35.5099 99.4988 37.6799 111.489V111.489Z" fill="#6FC8A6"/>
<path fill-rule="evenodd" clip-rule="evenodd" d="M57.68 144.309C67.87 138.189 66.61 152.189 53.85 154.539C48.23 168.029 26.54 165.749 40.85 156.609C30.36 157.759 18.9 147.989 37.59 147.789C33.97 142.539 30.51 128.329 41.44 138.719C44.44 130.719 45.96 127.789 51.07 138.249C55.65 130.539 58.56 137.049 57.68 144.309V144.309Z" fill="#FF6F86"/>
<path fill-rule="evenodd" clip-rule="evenodd" d="M40.1105 150C38.7005 151.56 43.0305 154.76 44.1105 151.62C44.2305 150.08 41.8105 149.59 40.1105 150Z" fill="#FFDDA6"/>
<path fill-rule="evenodd" clip-rule="evenodd" d="M54.8805 145.84C53.8105 143.84 49.8805 147.13 53.3705 147.99C54.5205 147.84 55.1205 147.2 54.8805 145.84Z" fill="#FFDDA6"/>
<path fill-rule="evenodd" clip-rule="evenodd" d="M47.0008 154.209C46.7308 154.289 43.1908 154.839 44.8208 156.649C45.7308 156.779 46.5308 157.249 47.5308 155.479C47.5808 155.229 47.6508 154.999 47.0008 154.209Z" fill="#FFDDA6"/>
<path fill-rule="evenodd" clip-rule="evenodd" d="M45.7204 148.46C47.8904 147.39 44.0804 144.18 43.8604 147.86C44.2552 148.482 45.0367 148.734 45.7204 148.46Z" fill="#FFDDA6"/>
<path fill-rule="evenodd" clip-rule="evenodd" d="M53.3901 149.37C52.3301 146.89 48.8201 150.82 52.7901 151.11C53.1301 150.89 53.4601 150.69 53.3901 149.37Z" fill="#FFDDA6"/>
<path fill-rule="evenodd" clip-rule="evenodd" d="M51.1 143.249C49.86 141.109 47.1 145.129 50.64 144.889C50.92 144.659 51.19 144.429 51.1 143.249Z" fill="#FFDDA6"/>
<path fill-rule="evenodd" clip-rule="evenodd" d="M47.9301 149.709C46.0501 149.499 45.8601 153.769 48.2401 151.709C48.3601 151.279 48.5001 150.999 47.9301 149.709Z" fill="#FFDDA6"/>
<path fill-rule="evenodd" clip-rule="evenodd" d="M35.4104 45.3391C30.8004 43.8191 25.7404 43.3391 21.9804 38.8191C20.0404 39.3891 18.7304 41.4191 17.1304 44.1791C41.1304 46.9991 36.7304 57.7491 14.8804 47.9291C12.8304 50.6591 11.4804 53.4991 11.2704 55.5691C26.0004 51.6791 36.0004 62.8991 10.6404 58.9991C9.15041 62.5691 10.8004 66.9991 9.64041 71.6491C7.30041 69.5891 7.94041 63.1591 8.32041 58.6491C-1.09959 51.5591 -4.82959 34.1991 9.66041 51.9991C11.0419 50.1677 12.2284 48.197 13.2004 46.1191C11.8304 44.1191 11.2004 41.6191 9.94041 39.4991C7.21041 24.7291 15.3704 27.9991 16.5704 41.1491C24.3004 35.2591 18.0604 29.5391 22.2904 21.5091C18.8604 11.7591 35.1404 20.1591 23.3404 22.6491C22.5391 24.7787 22.2547 27.0681 22.5104 29.3291C24.8204 26.5891 28.0004 24.7491 32.0004 22.5791C31.7404 17.9391 40.7304 18.7191 37.0004 24.3891C31.9404 24.6491 25.0704 26.6491 23.3804 33.3891C25.2704 31.7791 44.3004 26.3891 46.6404 29.1491C48.0204 32.7491 42.1904 36.1491 40.2104 31.6791C36.3304 31.6791 30.2104 32.5791 26.1504 35.0091C31.5404 35.2891 37.4204 34.6491 43.5304 36.3791C46.6904 31.8291 53.3204 40.5691 46.9104 41.6191C44.8404 41.0691 43.9104 40.8191 43.4004 38.2791C37.4004 36.2791 30.6204 37.9891 23.5204 37.0891C25.8404 41.5091 30.0504 42.1791 35.0304 43.8791C41.5804 36.5191 44.3204 52.1091 35.4104 45.3391V45.3391ZM16.4104 46.1091C20.3604 48.5291 26.4104 51.9191 32.0104 49.8291C27.3504 48.0891 22.3704 45.6291 16.4504 46.1091H16.4104ZM14.0304 44.3491C17.1004 41.5691 14.0304 35.6891 11.5904 31.9691C10.0504 35.4091 12.3104 40.2191 14.0704 44.3491H14.0304ZM8.41041 56.3491C10.1204 53.4391 5.94041 48.7391 2.49041 47.4291C3.20041 50.6391 6.00041 53.2591 8.45041 56.3991L8.41041 56.3491ZM13.4104 57.0391C16.5837 57.9347 19.9133 58.1325 23.1704 57.6191C20.4604 56.6491 16.3504 55.4191 13.4004 57.0891L13.4104 57.0391Z" fill="#FFDDA6"/>
<path fill-rule="evenodd" clip-rule="evenodd" d="M130.461 111.488C123.561 108.958 133.071 124.488 114.701 127.308C114.331 127.718 112.291 127.528 113.701 129.168C118.441 129.468 127.001 127.748 130.141 122.768C130.999 120.974 131.631 119.079 132.021 117.128C133.401 116.018 133.581 119.128 132.741 121.388C136.611 118.548 141.531 115.808 142.621 109.948C142.051 101.888 144.551 100.768 144.171 110.948C150.071 105.068 150.811 92.9484 153.801 86.8284C155.141 93.1984 151.731 98.8284 149.581 105.438C154.491 100.438 154.031 105.668 148.401 107.678C147.419 109.72 146.197 111.637 144.761 113.388C142.761 114.688 141.411 116.848 139.161 118.838C149.051 116.838 140.671 121.778 134.591 122.188C132.081 123.778 130.401 125.508 127.371 127.728C131.031 126.668 135.971 135.728 139.761 130.438C142.291 130.498 153.181 131.048 150.571 125.658C147.001 124.658 143.251 125.508 139.081 123.658C141.541 121.038 157.641 127.248 156.291 119.958C164.291 118.198 163.761 110.178 152.741 114.268C151.051 115.138 149.741 114.478 146.681 115.038C148.861 112.898 151.411 111.638 153.321 109.798C156.831 111.038 174.721 100.298 163.121 100.068C164.281 98.3984 167.811 89.5084 161.861 92.3384C159.601 94.4184 159.171 98.2484 155.701 100.088C156.031 98.5384 169.091 68.2684 156.991 77.7284C156.892 77.7175 156.795 77.6974 156.701 77.6684C153.701 61.7784 144.851 60.2784 149.031 79.4284C133.811 65.9384 155.211 99.3084 146.571 100.708C144.471 99.0584 145.721 95.9784 143.641 93.2784C139.881 88.6684 137.141 88.7984 138.431 96.4584C132.111 96.0484 137.031 102.288 140.351 104.848C140.625 108.308 139.027 111.651 136.161 113.608C138.101 107.408 132.631 99.4984 130.461 111.488V111.488Z" fill="#6FC8A6"/>
<path fill-rule="evenodd" clip-rule="evenodd" d="M110.57 143.76C109.45 139.68 111.57 129.37 117.1 138.25C120.76 131.32 122.94 127.44 126.73 138.72C136.39 129.2 135.4 140.29 130.57 147.79C147.29 147.45 140.39 157.41 127.31 156.61C141.51 165.34 120.53 168.4 114.31 154.54C104.91 153.84 97.5104 138.13 110.48 144.31C110.534 144.131 110.564 143.947 110.57 143.76Z" fill="#FF6F86"/>
<path fill-rule="evenodd" clip-rule="evenodd" d="M124.27 150.728C122.62 153.508 129.63 153.498 128.03 149.968C126.728 149.598 125.326 149.881 124.27 150.728Z" fill="#FFDDA6"/>
<path fill-rule="evenodd" clip-rule="evenodd" d="M114.001 147.73C117.251 149.12 116.391 143.32 113.311 145.84C113.091 146.25 113.081 147 114.001 147.73Z" fill="#FFDDA6"/>
<path fill-rule="evenodd" clip-rule="evenodd" d="M120.63 155.479C120.78 157.809 127.63 156.129 121.16 154.209C120.59 154.629 120.47 155.059 120.63 155.479Z" fill="#FFDDA6"/>
<path fill-rule="evenodd" clip-rule="evenodd" d="M124.29 147.86C125.29 145.81 120.04 145.44 122.42 148.46C123.107 148.727 123.887 148.477 124.29 147.86Z" fill="#FFDDA6"/>
<path fill-rule="evenodd" clip-rule="evenodd" d="M115.36 151.11C117.49 152.11 117.86 146.31 114.75 149.37C114.64 149.8 114.5 150.19 115.36 151.11Z" fill="#FFDDA6"/>
<path fill-rule="evenodd" clip-rule="evenodd" d="M117.51 144.89C119.73 145.94 119.93 141.07 117.05 143.25C116.93 143.61 116.82 144 117.51 144.89Z" fill="#FFDDA6"/>
<path fill-rule="evenodd" clip-rule="evenodd" d="M119.91 151.67C120.91 153.56 123.24 150.6 120.22 149.67C119.716 150.21 119.594 151.003 119.91 151.67Z" fill="#FFDDA6"/>
<path fill-rule="evenodd" clip-rule="evenodd" d="M128.59 46.9999C123.72 45.0799 130.02 38.8199 133.1 43.8899C136.71 42.6099 142.26 41.7199 144.61 37.0999C138.77 38.0199 131.42 36.2199 124.73 38.2899C124.09 40.8599 124 40.8199 121.41 41.5799L121.22 41.6299C115.52 41.6299 119.94 31.7699 124.6 36.3899C130 34.7999 135.57 35.2299 142 34.9999C137.656 32.7575 132.829 31.6141 127.94 31.6699C126.37 36.6199 118.45 31.7299 122.48 28.4399C130.183 28.4292 137.793 30.1158 144.77 33.3799C144.07 29.6099 139.16 25.3799 134.36 24.3799C133.36 24.9099 130.81 25.1699 130.36 22.9799C129.17 19.6099 136.25 17.7799 136.23 22.5899C139.23 24.3599 142.94 26.0499 145.69 29.3399C145.994 27.0797 145.712 24.7794 144.87 22.6599C133.81 21.2499 148.16 10.8499 145.92 21.5199C149.76 27.6799 144.2 35.7699 151.64 41.1599C151.98 31.3499 160.64 21.9499 158.26 39.4699C156.98 41.5899 156.37 44.0399 155.01 46.0899C155.959 48.175 157.122 50.1556 158.48 51.9999C170.61 35.6699 171.39 48.8399 159.85 58.6699C160.76 69.1699 158.46 81.4999 157.5 58.9999C153.02 59.2499 147 60.9999 141.92 58.6199C141.33 54.8099 153.29 53.6199 156.92 55.6199C156.71 53.5499 155.36 50.7099 153.3 47.9799C135.5 56.9799 123.57 48.3899 151.05 44.2299C149.75 42.5699 149.34 40.1199 146.2 38.8699C143.26 42.6599 138.05 43.8699 132.78 45.3899C131.879 46.777 130.188 47.4269 128.59 46.9999V46.9999ZM150.88 45.9999C146.51 45.9999 140.82 47.8099 136.1 49.8499C139.66 51.8499 147.74 49.0499 151.7 46.1299C151.433 46.0557 151.158 46.0121 150.88 45.9999ZM156.39 38.9399C156.79 36.7999 157.63 35.4899 156.52 31.9399C154.86 34.4899 150.72 40.7099 154.08 44.3199C154.62 42.2999 155.7 40.6899 156.39 38.9199V38.9399ZM160.45 55.6799C161.66 53.2199 164.98 51.0799 165.62 47.4999C163 48.5999 158.01 52.2799 159.69 56.4199C159.971 56.1951 160.225 55.9402 160.45 55.6599V55.6799ZM153.88 56.4799C151.79 56.4799 147.75 56.1099 144.99 57.6899C147.64 57.9799 151.22 58.3399 154.74 57.1099C154.727 56.903 154.625 56.7121 154.46 56.5871C154.294 56.4622 154.083 56.4157 153.88 56.4599V56.4799Z" fill="#FFDDA6"/>
<path d="M43.74 87.899C43.74 83.519 43.53 71.659 43.67 67.499L44.77 66.879C47.63 69.009 49.24 82.779 50.24 86.659C51.38 81.449 53.39 73.189 53.67 67.589V67.359C57.67 60.289 56.1 93.829 56.67 94.799C55.44 102.009 53.44 95.309 54.17 88.009C54.11 81.429 54.08 80.869 54.09 77.699C53.8 79.479 51.98 86.299 51.66 88.859V89.109C51.566 89.9685 51.3851 90.8161 51.12 91.639C47.95 96.639 47.47 76.699 45.58 74.249C45.53 76.349 45.51 77.939 45.51 79.009L45.84 95.239C45.8443 95.7954 45.6286 96.3309 45.24 96.729C44.29 96.629 43.54 96.299 43.5 94.299L43.74 87.899Z" fill="#3F3029"/>
<path d="M69.2501 84.9285L68.9101 89.9285V90.0985C67.7101 105.099 57.5801 97.1685 59.0701 78.0985C58.2901 58.9985 71.1701 63.9985 69.2501 84.9285ZM65.7501 70.4785C63.3801 65.4785 60.9801 70.6585 61.0601 75.4785C60.9901 76.3285 60.9301 78.7085 60.9101 80.2385C63.1101 112.049 71.2501 87.6885 65.7501 70.4785Z" fill="#3F3029"/>
<path d="M75.71 73.9189L75.64 78.9989C75.78 82.9989 76.11 91.1989 76.31 95.1789C76.51 97.1089 74 98.1789 73.9 95.1189L74.21 88.8089C73.78 83.6489 73.99 74.7189 73.36 69.3789L71.22 69.5889C65.32 67.6989 82.75 64.8689 77.22 69.1089L75.85 68.9989H75.44C75.6276 70.6321 75.7178 72.275 75.71 73.9189V73.9189Z" fill="#3F3029"/>
<path d="M87.4896 97.4386C85.0296 94.3386 87.1096 86.2586 86.1396 82.2086C84.9368 81.9332 83.6835 81.9711 82.4996 82.3186C81.8296 85.1686 84.6396 94.4186 82.3096 96.7486C80.8896 97.5886 77.5696 61.6286 82.1196 67.6486C82.0196 68.6454 81.9729 69.6469 81.9796 70.6486L82.2496 78.7686V80.2486C82.2501 80.5836 82.2769 80.9179 82.3296 81.2486L86.1296 80.9986L85.9996 67.9986V66.9986C89.5296 67.3286 87.3496 75.9986 88.1896 80.3186C87.6696 88.4886 90.4696 94.0986 87.4896 97.4386V97.4386Z" fill="#3F3029"/>
<path d="M95.4602 82.3787H94.4602C94.1603 82.3484 93.8627 82.4549 93.6502 82.6687V94.8187C95.1802 94.8187 97.9302 94.2587 98.1102 95.8787C97.4302 97.2387 93.3402 97.6287 91.6902 96.4987C91.1602 92.3587 92.0702 72.6587 90.9902 68.6687C91.2685 68.1713 91.6042 67.7081 91.9902 67.2887L94.9202 66.9387C95.8502 66.6487 98.2802 69.2287 94.9202 69.4087H93.7802C93.6405 69.396 93.4999 69.396 93.3602 69.4087L93.6602 75.9187C93.6602 76.5687 93.5302 78.3787 93.4702 80.4387C94.5302 79.5187 98.3902 80.6787 95.4602 82.3787V82.3787Z" fill="#3F3029"/>
<path d="M100.12 95.6891C100.12 95.6891 100.25 76.5991 100.27 73.0491C100.87 72.4891 97.9901 63.049 104.56 68.269C106.39 70.549 106.87 74.0191 105.33 77.7891C105.26 77.9491 104.73 79.249 104.46 79.949C104.38 83.679 107.03 90.809 108.53 95.379C108.67 96.689 107.87 98.3791 106.14 96.1891V96.0491C106.25 93.4691 103.46 84.519 102.23 80.279C101.66 80.769 103.93 102.859 100.12 95.6891ZM102.3 68.629L102.09 76.6891V78.5091C102.591 78.0473 103.049 77.542 103.46 76.9991L104.08 73.589C104.24 72.769 103.93 69.339 102.3 68.629V68.629Z" fill="#3F3029"/>
<path d="M110.92 75.9979C110.17 75.6579 111.53 65.9979 114.37 66.8279C114.94 69.2279 113.72 74.3779 110.92 75.9979Z" fill="#3F3029"/>
<path d="M116.65 96.3779C127.22 94.7379 121.65 85.0679 117.65 75.6879C115.77 71.7979 118.91 63.0779 123.89 67.9179L123.21 68.7679C122.669 68.7978 122.132 68.6617 121.67 68.3779C115.24 72.3179 124 81.1779 124.91 87.4279C126.36 92.2479 122.67 101.168 116.65 96.3779V96.3779Z" fill="#3F3029"/>
<path d="M79.3399 117.999L79.43 118.829C79.82 122.709 74.09 137.079 69.31 131.279C71.31 127.939 69.3099 118.079 69.4499 113.599L69.56 109.279C68.03 103.609 68.79 100.589 75.8 103.739C79.71 107.169 79.25 112.029 79.43 117.629C79.371 117.743 79.3401 117.87 79.3399 117.999V117.999ZM72.07 126.559V130.339C78.17 126.969 80.63 105.249 71.12 104.979C71.05 108.999 72.13 122.149 72.07 126.579V126.559Z" fill="#3F3029"/>
<path d="M89.5004 132.538C87.5004 133.018 88.5004 127.198 88.2804 126.368C86.8232 125.75 85.2629 125.41 83.6804 125.368C82.8804 126.658 83.0004 129.308 81.6804 132.118C80.6804 132.118 80.0704 131.858 79.9404 131.328C82.3004 126.658 83.5304 99.958 88.3904 103.158C88.3604 109.888 93.0004 131.998 89.5004 132.538V132.538ZM87.8404 119.648C87.6104 116.768 86.9104 111.298 86.9504 108.378C86.1304 108.868 83.8604 122.688 83.9504 123.608C85.3503 124.025 86.8234 124.138 88.2704 123.938C88.2104 123.408 88.0704 121.998 87.8404 119.648Z" fill="#3F3029"/>
<path d="M95.5004 132.069L95.6904 124.439C96.9904 120.749 89.7904 103.679 92.9304 102.689C94.8504 104.469 94.9304 109.089 96.0404 113.159C95.9104 112.779 97.3404 98.3195 99.4404 104.159C99.3104 107.239 97.5104 113.689 97.5804 116.639L97.4604 117.999V118.599L97.6804 128.999L97.8104 130.999C98.2604 131.729 96.7004 134.579 95.5004 132.069V132.069Z" fill="#3F3029"/>
<path fill-rule="evenodd" clip-rule="evenodd" d="M111.06 13.9992C106.68 10.5192 97.2201 9.75922 91.2601 12.6592C92.1501 11.3592 94.0001 8.99922 95.4301 6.81922C95.9262 7.0742 96.5062 7.11045 97.0301 6.91922C104 5.23922 92.7501 -3.60078 94.5401 5.99922C92.8201 8.08922 90.6801 10.4192 88.6301 13.3192C89.5501 9.31922 89.0001 1.31922 84.3401 0.0192215C84.2504 0.00923184 84.1598 0.00923184 84.0701 0.0192215C83.9837 0.00921782 83.8965 0.00921782 83.8101 0.0192215C79.0001 1.69922 78.6701 8.46922 79.5201 13.3092C78.0001 11.1492 75.8101 8.65922 73.6101 5.99922C75.7801 -3.24078 63.8701 4.90922 71.1201 6.92922C71.6411 7.11753 72.2168 7.08132 72.7101 6.82922C74.0901 8.82922 74.9101 9.89922 76.8901 12.6892C56.1701 4.68922 45.2701 25.3492 71.1401 17.9492C74.6354 17.3688 78.2111 17.4878 81.6601 18.2992C81.8157 18.4079 82.0169 18.4268 82.1901 18.3492C83.0101 19.0992 84.9701 20.2892 86.6201 18.2792C92.5501 15.0492 116.83 25.2492 111.06 13.9992ZM69.7301 16.3492C42.9201 22.7692 66.5801 5.68922 78.0601 14.4192C78.4401 14.9592 78.8301 15.4992 79.2401 15.9992C76.0848 15.3909 72.8322 15.5106 69.7301 16.3492ZM83.2901 17.2292C80.4601 13.3692 79.2901 5.76922 84.0701 1.81922C88.2701 4.81922 87.9701 13.0592 84.8901 17.2792C84.4064 17.6247 83.7514 17.6043 83.2901 17.2292ZM107.79 18.2292C102.17 18.1692 95.4401 14.3992 88.9001 15.9992C89.3101 15.4992 89.7001 14.9992 90.0801 14.4192C96.0001 8.99922 118.65 14.6592 107.79 18.2292V18.2292Z" fill="#6FC8A6"/>
</svg>
