<svg width="184" height="180" viewBox="0 0 184 180" fill="none" xmlns="http://www.w3.org/2000/svg">
<g clip-path="url(#clip0_3_21857)">
<path d="M9.14952 89.5508C9.39952 86.2408 7.06952 67.7208 1.69952 71.8408C-3.31048 78.7208 3.83952 88.0008 9.14952 89.5508V89.5508Z" fill="#5A2866"/>
<path d="M68.6298 169.721C58.7614 165.529 49.6131 159.813 41.5198 152.781C46.8898 136.121 28.3798 129.681 36.9798 148.561C31.6923 143.326 27.0493 137.478 23.1498 131.141C25.8898 127.211 29.1498 120.661 24.8198 115.321C20.5398 113.721 19.2998 119.681 19.8198 125.241C16.5633 118.907 14.1205 112.187 12.5498 105.241C16.5498 102.561 22.4498 97.2408 20.0998 90.5808C16.2198 87.1608 12.6598 94.1708 11.5898 100.161C10.375 92.5225 10.3244 84.7442 11.4398 77.0908C15.1498 76.3508 20.6498 74.2208 23.4398 69.3608C26.3298 58.5608 16.0298 66.0408 12.1998 72.7608C13.8637 64.8144 16.8017 57.1893 20.8998 50.1808C25.2928 50.8071 29.7685 49.9295 33.5998 47.6908C41.3098 39.1608 30.5998 40.6908 24.1098 45.1108C27.2822 40.5494 30.8855 36.3032 34.8698 32.4308C50.6198 41.3608 61.4098 22.1008 37.9198 29.5508C44.505 23.7051 51.7668 18.6692 59.5498 14.5508C49.0993 17.5912 39.6213 23.3021 32.0498 31.1208C46.3798 6.30078 20.3898 20.5008 28.2798 35.2808C22.9379 41.7265 18.6545 48.9803 15.5898 56.7708C17.3498 48.7708 17.2098 35.4708 10.8598 44.2408C7.10982 50.2408 10.5798 58.2408 14.0598 60.9308C8.17399 78.2474 7.7204 96.9492 12.7598 114.531C8.85982 106.751 -1.07018 95.3408 1.14982 108.841C3.32982 115.361 9.68982 118.001 13.8898 118.081C16.3751 125.373 19.9015 132.268 24.3598 138.551C17.2798 132.621 6.73982 128.981 14.2498 140.081C17.9956 143.475 23.2193 144.713 28.0898 143.361C33.3448 149.601 39.5269 154.997 46.4198 159.361C39.2598 156.601 27.1498 154.531 33.1198 161.591C38.1236 165.885 45.4725 166.02 50.6298 161.911C56.3476 165.121 62.379 167.738 68.6298 169.721Z" fill="#5A2866"/>
<path d="M49.5796 18.1101C46.4996 11.8401 72.9996 -6.68992 64.4896 9.00008C70.2296 8.00008 72.8096 10.5401 67.1896 14.5801C83.7696 20.6001 50.5796 24.1301 49.5796 18.1101Z" fill="#EB7692"/>
<path d="M71.1499 0.00034852C67.9499 -0.209651 70.1499 5.00035 72.2799 1.67035C72.3455 0.916511 71.874 0.219775 71.1499 0.00034852Z" fill="#5A2866"/>
<path d="M76.6601 13.8011C73.4601 13.5911 75.6601 18.8011 77.8001 15.4811C77.8541 14.725 77.3828 14.0303 76.6601 13.8011Z" fill="#5A2866"/>
<path d="M77.1699 5.75035C73.9699 5.54035 76.1699 10.7503 78.3099 7.43035C78.3715 6.67215 77.8972 5.97324 77.1699 5.75035Z" fill="#5A2866"/>
<path d="M182.2 71.8401C177 68.0001 174.29 85.4901 174.75 89.5501C180.06 88.0001 187.2 78.7201 182.2 71.8401Z" fill="#5A2866"/>
<path d="M171.13 114.54C176.172 96.9521 175.722 78.2441 169.84 60.9195C173.06 58.3095 176.49 51.3895 173.56 45.1795C166.78 34.3595 166.56 48.7095 168.38 56.9695C165.314 49.0923 161.003 41.7588 155.61 35.2495C163.5 20.4695 137.51 6.24953 151.85 31.0895C144.273 23.2727 134.792 17.5622 124.34 14.5195C132.126 18.638 139.391 23.6739 145.98 29.5195C122.48 22.0695 133.28 41.3295 149.03 32.3995C153.002 36.2808 156.588 40.5373 159.74 45.1095C153.28 40.6695 142.54 39.1095 150.25 47.6895C154.092 49.9484 158.587 50.8368 163 50.2095C167.109 57.2362 170.054 64.8818 171.72 72.8495C168.34 66.6795 159.83 59.5695 159.92 67.3595C160.85 73.1995 168.49 76.3595 172.48 77.1295C173.614 84.8392 173.556 92.6773 172.31 100.37C171.39 94.9995 168.63 88.4995 164.54 89.9995C160.19 95.3695 167.12 102.68 171.31 105.38C169.742 112.295 167.306 118.985 164.06 125.29C164.59 119.73 163.36 113.77 159.06 115.37C154.76 120.71 157.99 127.26 160.73 131.19C156.826 137.535 152.176 143.39 146.88 148.63C155.52 129.51 136.97 136.32 142.36 152.83C134.265 159.86 125.117 165.576 115.25 169.77C121.498 167.796 127.529 165.193 133.25 162C138.404 166.107 145.749 165.972 150.75 161.68C156.75 154.62 144.62 156.68 137.46 159.45C144.349 155.081 150.53 149.685 155.79 143.45C160.661 144.802 165.884 143.564 169.63 140.17C177.13 129.07 166.63 132.71 159.51 138.64C163.991 132.335 167.525 125.408 170 118.08C174.21 118 180.57 115.36 182.74 108.84C185 95.3395 175 106.75 171.13 114.54V114.54Z" fill="#5A2866"/>
<path d="M112.75 -0.000212025C112.028 0.225027 111.557 0.916208 111.61 1.66979C113.71 4.99979 116 -0.200212 112.75 -0.000212025Z" fill="#5A2866"/>
<path d="M107.239 13.8011C106.512 14.024 106.038 14.7229 106.099 15.4811C108.189 18.8211 110.439 13.5911 107.239 13.8011Z" fill="#5A2866"/>
<path d="M106.72 5.75033C105.995 5.97378 105.524 6.67392 105.59 7.43033C107.68 10.7703 109.92 5.54033 106.72 5.75033Z" fill="#5A2866"/>
<path d="M134.31 18.1096C137.39 11.8396 110.87 -6.69039 119.41 8.97961C113.67 7.97961 111.09 10.5196 116.71 14.5596C100.13 20.5996 133.31 24.1296 134.31 18.1096Z" fill="#EB7692"/>
<path d="M137.86 103.83H45.7197L52.4897 121.33L45.7197 136.64H137.86L131.09 121.33L137.86 103.83Z" fill="#5A2866"/>
<path d="M81.5098 120.58C81.6198 129.46 70.8698 131.39 62.5798 129.58C62.7898 123.73 62.2598 117.02 62.8598 110.24C69.7898 110.19 81.3198 107.67 81.5098 120.58V120.58ZM75.2398 123C76.6298 120.26 76.3798 112.89 68.2398 115.13C68.2398 118.02 68.0598 121.45 68.3798 125.13L68.5498 125.27C70.3398 125 73.7398 125.78 75.2398 123Z" fill="white"/>
<path d="M106.349 129.22L106.429 129.6L106.239 129.91C104.45 130.119 102.646 130.156 100.849 130.02C100.349 129.47 100.279 128.23 99.4995 126.91C97.0295 126.76 93.7295 126.31 90.4995 126.85C89.3995 130.66 89.4095 129.85 84.2795 130.04C84.2795 129.93 84.2095 130.26 83.7295 129.58C85.8095 123.52 89.2495 117.25 92.0395 110.46C94.0508 109.922 96.1682 109.922 98.1795 110.46C100.389 116.12 103.459 122.59 106.349 129.22V129.22ZM97.1595 121.46C96.6995 120.02 96.4295 119.08 95.6195 116.84C94.1295 115.97 93.0195 119.93 92.7895 121.84C93.4495 121.77 96.1695 122.77 97.1595 121.46Z" fill="white"/>
<path d="M125.09 110.431C121.09 116.221 115.82 121.781 117.09 130.021C115.33 130.098 113.568 130.078 111.81 129.961L111.7 129.881C111.62 127.481 111.56 125.281 111.53 122.121C109.44 118.601 106.32 114.651 104.16 110.211L104.33 110.101C106.58 110.101 107.75 110.031 110.33 110.241C111.48 111.861 112.69 114.241 114.4 116.731H114.57C115.74 114.971 116.98 112.731 118.69 110.081C120.44 110.201 122.45 109.841 125.1 110.271L125.09 110.431Z" fill="white"/>
<path d="M65.999 57.0007C65.859 57.1007 66.439 58.2807 65.809 58.9407C64.809 58.9407 63.569 59.0407 61.929 58.9407C61.339 57.5107 61.929 55.4207 61.559 53.1107C60.399 53.0107 58.369 53.0407 56.229 53.1107C55.839 54.5007 56.329 56.6007 56.099 58.8007C49.339 60.4207 52.249 56.4607 51.699 43.6407C52.789 43.1907 53.999 43.4507 55.889 43.4407C56.619 45.0707 55.679 46.6707 56.139 49.2907L56.249 49.3807C57.559 49.2507 59.499 49.5007 61.579 49.2507C61.999 47.7907 61.579 46.0307 61.779 43.5907L61.949 43.4007C62.859 43.4007 64.299 43.3507 65.849 43.4007C66.499 47.0607 65.829 52.0007 65.999 57.0007V57.0007Z" fill="#EB7692"/>
<path d="M85.9997 58.3504L86.0597 58.6604L85.9097 58.8904C84.5062 59.0603 83.0892 59.0904 81.6797 58.9804C81.2897 58.5504 81.2297 57.5804 80.6197 56.5404C78.2643 56.2664 75.8851 56.2664 73.5297 56.5404C73.0197 58.8804 72.3197 59.1704 68.6497 59.0404C68.6497 58.9504 68.5897 59.2104 68.2197 58.6704C69.8197 53.9704 72.5397 49.0204 74.7297 43.6704C76.309 43.2505 77.9705 43.2505 79.5497 43.6704C81.3297 48.0004 83.6797 53.0004 85.9997 58.3504V58.3504ZM78.7897 52.2704C78.5497 51.5204 78.1897 50.2704 77.5797 48.6404C76.4497 47.9504 75.6697 50.6404 75.3597 52.5304C75.9097 52.5204 77.9997 53.2904 78.8197 52.2704H78.7897Z" fill="#EB7692"/>
<path d="M102.249 48.9194C102.709 53.4294 97.719 55.2095 92.969 54.8095C92.659 55.6495 92.969 57.1295 92.669 58.8095C91.2887 59.0605 89.8709 59.0162 88.509 58.6795C88.509 54.0595 88.019 48.6795 88.679 43.3995C92.659 43.7995 101.649 41.2494 102.249 48.9194ZM95.799 50.9995C98.989 50.6595 98.729 45.8795 92.889 47.1995C92.7407 48.4647 92.7777 49.7449 92.999 50.9995C93.9243 51.1722 94.8736 51.1722 95.799 50.9995Z" fill="#EB7692"/>
<path d="M118.259 48.9194C118.719 53.4294 113.729 55.2095 108.979 54.8095C108.669 55.6495 108.979 57.1295 108.679 58.8095C107.298 59.0605 105.881 59.0162 104.519 58.6795C104.519 54.0595 104.029 48.6795 104.689 43.3995C108.669 43.7995 117.659 41.2494 118.259 48.9194V48.9194ZM111.809 50.9995C114.999 50.6595 114.739 45.8795 108.899 47.1995C108.747 48.4642 108.781 49.7444 108.999 50.9995C109.927 51.1734 110.88 51.1734 111.809 50.9995Z" fill="#EB7692"/>
<path d="M134.25 43.6196C131.09 48.2896 127.05 52.2596 127.97 58.9796C126.591 59.0573 125.209 59.0573 123.83 58.9796L123.74 58.9096C123.68 57.2796 123.63 55.2396 123.61 52.8296C121.97 50.0696 119.52 46.9696 117.83 43.4796L117.96 43.3996C119.66 43.3996 120.6 43.3396 122.68 43.5096C123.58 44.7796 124.54 46.6096 125.88 48.5996H126.01C126.93 47.2196 127.9 45.4696 129.24 43.3796C130.908 43.3203 132.578 43.3704 134.24 43.5296L134.25 43.6196Z" fill="#EB7692"/>
<path d="M55.1298 75.0896C55.7798 72.2296 54.7598 69.6296 52.7398 69.2596C48.2598 68.6396 45.6598 72.8196 43.6098 75.1296C43.9598 73.0096 44.9698 71.2196 44.7398 69.7796C41.8898 67.7796 40.3598 72.7796 38.2198 73.1496C23.7898 78.1496 29.7198 84.8596 33.9098 84.0396C34.3998 83.2496 34.1998 83.1196 34.2798 83.1196L34.0798 82.5996C27.4798 78.2296 39.9698 75.5996 41.0798 73.1896H41.1598C39.2798 80.7596 36.6798 87.8996 35.3298 94.6596C38.0798 96.9996 38.4998 93.2496 38.9998 92.1096C40.3298 84.3796 46.3998 68.3596 52.0598 72.2696C52.3498 80.4196 48.1498 87.8796 47.2898 95.0596C52.6598 96.3596 51.0998 87.6396 52.7498 85.4096C53.2898 78.7096 60.4998 69.7196 63.4298 71.7096C64.9798 77.7796 54.0498 101.87 65.4298 96.4396C59.8898 90.4396 66.2698 81.9796 66.8198 75.7896C68.9098 63.5896 57.2998 70.5796 55.1298 75.0896V75.0896Z" fill="#5A2866"/>
<path d="M156.439 85.7994L156.099 85.4294L155.649 85.3294C154.109 87.8594 152.209 90.8094 149.739 90.1694C146.259 71.4094 143.999 75.0894 138.999 85.4594L138.669 85.6494C132.309 98.4494 127.849 90.2194 134.199 83.2894C134.199 80.3694 130.989 79.3694 130.139 77.3594C130.629 71.9094 125.749 75.6994 127.619 77.9094C128.759 81.2394 125.749 84.3094 125.289 87.1794C121.049 94.6094 113.389 93.7094 114.449 87.8194L114.639 87.6694C118.159 88.5194 121.759 87.6694 123.359 85.3194C127.709 74.6594 112.729 78.8594 112.009 84.5394C111.839 85.1294 111.719 85.6794 111.609 86.1994C109.839 88.8394 108.409 92.9994 105.939 92.4194C109.389 78.4194 106.449 74.4194 98.8393 83.0094H98.7693C100.139 78.2094 101.209 73.9494 102.379 69.8194C97.8093 64.4594 95.8493 86.7494 94.9793 85.9294C84.6593 102.929 87.4293 84.2294 89.7193 79.1294C92.1893 78.5994 96.5893 79.1294 94.5493 76.5594C92.4693 76.6194 91.3793 77.1294 90.3993 76.6394C90.7593 74.5294 91.6793 72.5194 91.7993 71.3294C91.1093 70.0894 89.7993 70.5194 89.3093 70.5794C87.9993 72.5794 88.0593 75.2394 87.3093 76.5194C85.0593 76.5194 83.9493 76.4394 84.4693 78.1794C85.3593 78.8294 86.4093 78.5594 86.6693 79.0094C85.8785 81.4543 85.2866 83.9591 84.8993 86.4994C83.2293 88.8494 82.0693 91.3194 79.4793 90.8994V90.6394C84.8893 80.2494 76.8493 76.8094 71.7893 80.3794C61.4293 89.1094 69.5593 99.9194 77.6093 92.9194C77.7772 92.6467 78.0413 92.4469 78.3493 92.3594C81.0993 93.0694 83.3493 91.4594 84.6993 89.4594C84.6993 96.8194 89.5593 96.1594 93.3893 91.6194L93.4993 91.6894C93.1693 93.2694 93.0393 93.4294 93.1493 94.0694C98.9393 96.5294 96.8693 78.8094 104.219 81.3994C105.219 82.8294 104.079 84.4794 103.959 85.6994C99.8593 99.0494 107.869 95.4894 111.359 89.6994C112.019 98.6294 125.289 94.3494 126.859 86.6194C127.839 84.5555 128.629 82.4066 129.219 80.1994L129.519 80.1194C131.229 81.4194 131.519 82.7094 131.029 83.5494C121.129 98.2794 137.889 96.3894 139.729 86.5994C141.249 83.9894 142.099 80.9794 143.959 79.7194C144.499 82.9894 146.159 85.4794 146.599 88.0694C144.869 89.0694 145.539 90.0694 146.069 90.7394C144.639 94.6894 141.209 90.3394 141.939 88.6694L141.719 88.4494C137.189 89.2194 141.919 95.1294 144.039 94.4494C149.599 92.6894 154.629 91.0394 156.189 86.8894C156.411 86.5723 156.501 86.1814 156.439 85.7994V85.7994ZM118.819 80.9094C125.669 80.9994 117.609 88.1994 115.009 86.0194L114.819 85.8394C115.288 83.6511 116.775 81.8189 118.819 80.9094ZM76.9993 89.0594C76.0793 88.8794 75.4893 89.1194 75.2993 89.4094C75.7993 95.4094 69.0293 92.5994 70.2993 88.9494C72.5593 76.6794 81.4193 80.5894 76.9993 89.0594Z" fill="#5A2866"/>
<path d="M103.87 157.69C101.62 155.18 95.7998 154.43 92.6998 158.06C72.1398 148.2 79.6998 176.35 92.6998 179.8C100.68 175.69 110.25 165.53 103.87 157.69Z" fill="#EB7692"/>
</g>
<defs>
<clipPath id="clip0_3_21857">
<rect width="184" height="180" fill="white"/>
</clipPath>
</defs>
</svg>
