<svg width="150" height="118" viewBox="0 0 150 118" fill="none" xmlns="http://www.w3.org/2000/svg">
<path d="M37.0806 0.798567C26.6506 5.10857 25.3506 17.8486 20.1306 29.4886C21.0006 -8.73143 11.2206 4.89857 4.48061 25.3586C3.62061 18.9386 9.22061 -2.59143 2.26061 0.568567C-0.419387 11.5686 -1.19939 46.9186 2.63061 46.3286C9.25061 39.2386 7.23061 21.3286 15.2406 11.6686C17.6406 25.1486 12.6506 43.8586 18.8306 48.4986C23.3106 41.8986 27.5906 12.5586 35.5606 6.49857C36.5606 25.2986 30.0306 48.0986 36.5606 50.1786C37.9106 49.9986 40.0006 48.4586 38.0006 46.3286C37.4706 29.4086 43.4906 2.79857 37.0806 0.798567V0.798567Z" fill="black"/>
<path d="M84.3405 9.48867L84.2305 9.38867C84.2303 9.41702 84.2422 9.4441 84.2632 9.46317C84.2842 9.48224 84.3123 9.49151 84.3405 9.48867Z" fill="black"/>
<path d="M138.881 25.9988C138.926 24.4974 139.766 23.133 141.086 22.4163C142.406 21.6995 144.008 21.7386 145.291 22.5188L145.181 22.6288C144.611 24.0788 146.361 26.9488 148.881 25.0188C153.291 15.5288 134.881 15.0988 134.231 25.2888C131.771 22.0988 125.841 26.8888 123.891 30.1288C123.561 0.94883 108.191 65.9188 103.791 36.7588C128.931 31.9788 97.3514 7.96883 99.7914 40.7588C92.3414 53.7588 96.3514 35.7588 96.2914 30.1788C93.7214 17.4388 83.2313 36.6388 80.7413 40.7988C79.4613 32.9388 80.3713 21.9488 81.0913 13.0488C84.5213 15.1388 88.9214 10.0488 81.4014 8.73883C83.2414 4.73883 77.4014 -3.08117 77.0714 8.21883C74.4313 8.09883 74.0713 8.08883 70.4213 8.08883C72.9413 0.518831 66.5314 -2.00117 65.8714 8.29883C56.7014 7.22883 54.2014 13.9988 65.1114 12.7488C64.4614 16.5388 63.8214 20.9388 63.3614 25.3888C61.6914 25.0788 57.7813 25.9688 55.0113 25.3888C52.7513 20.7588 42.3213 20.3888 46.5313 27.8888C33.4513 55.4388 60.0013 56.1788 56.4213 30.1388C58.6231 30.1398 60.8221 29.9828 63.0014 29.6688C62.1214 36.5088 62.3614 52.3588 70.8913 51.8688C76.6313 50.1988 69.4213 47.0688 67.8913 44.3588C65.7813 34.5888 68.8114 23.3588 69.7914 12.5388C72.2314 12.5388 74.6414 12.5388 76.7914 12.6288C75.1714 18.2188 75.1513 60.8388 82.5213 46.8688L82.2013 46.2188L82.7413 45.8988C86.1113 41.1088 88.6114 36.0088 92.1914 31.4388C89.5214 40.5588 90.5714 57.4388 101.251 44.6388C107.521 53.3788 116.121 45.1788 119.771 35.5388C119.971 37.8888 118.981 54.4488 124.461 46.4388C123.279 38.4578 127.237 30.5944 134.351 26.7888C135.711 31.2888 154.661 46.4788 140.621 44.7888C141.121 39.6288 135.621 36.2788 136.161 45.2388C143.161 59.4788 157.881 40.4688 144.161 32.2388C141.431 29.9988 139.421 28.3488 138.881 25.9988V25.9988ZM108.241 27.8488C110.021 29.5988 107.501 32.7388 104.771 32.4088C104.661 32.2988 104.661 32.2988 104.551 32.2988C105.292 30.4722 106.581 28.9207 108.241 27.8588V27.8488ZM50.3314 43.6088L48.2714 44.6088C46.0014 41.8688 48.4014 33.9088 50.3314 29.9988C50.3393 29.9143 50.3785 29.8359 50.4413 29.7788C50.8674 29.9054 51.3073 29.9793 51.7514 29.9988C52.1114 33.5788 53.8614 39.4688 50.3314 43.6088Z" fill="black"/>
<path d="M70.58 85.6292C69.2077 85.9281 67.8129 86.1121 66.41 86.1792C66.3444 86.1057 66.315 86.0066 66.33 85.9092C68.97 84.6192 67.41 80.7192 67.76 70.2692C67.76 70.1892 67.68 70.1492 67.6 70.1492C64 69.7692 71.46 66.7992 73.27 71.8992C73.7878 72.7893 74.0636 73.7994 74.07 74.8292C74.1197 77.305 73.7581 79.7718 73 82.1292C72.7085 83.1457 72.267 84.113 71.69 84.9992C71.4753 85.4084 71.0415 85.6547 70.58 85.6292V85.6292ZM73.2 75.9992C73.73 75.7292 69.97 63.2092 70.2 75.7292C70.1312 76.0825 70.1312 76.4458 70.2 76.7992C70.13 77.6992 70.27 77.9492 70.2 79.3792C70.2 79.4592 70.12 79.4592 70.2 79.8492C70.2266 80.182 70.2266 80.5164 70.2 80.8492C70.15 81.0792 70.13 80.9792 70.2 81.4392C69.71 87.4392 72.44 84.6492 73.06 75.9992H73.2Z" fill="black"/>
<path d="M82.2804 85.4285C81.9329 85.4283 81.5902 85.3461 81.2804 85.1885C82.7604 84.6985 80.4504 75.2485 78.3904 80.3085C77.6004 82.3085 80.5104 86.7585 75.8004 85.3085C74.3104 86.2185 76.5404 78.7785 77.3104 71.3085C78.3104 70.5685 74.6904 66.9285 81.8804 69.3985C81.7404 69.8985 81.9904 69.6985 80.6904 69.9185C80.7086 71.1252 80.7887 72.3301 80.9304 73.5285C81.0143 75.2087 81.2249 76.8801 81.5604 78.5285V78.6885C81.6504 78.9085 81.6604 78.6885 81.6804 79.6885C81.7885 80.187 81.8686 80.6911 81.9204 81.1985C81.2204 81.7885 84.9204 86.0685 82.6304 85.3685C82.5183 85.4093 82.3997 85.4296 82.2804 85.4285V85.4285ZM80.0004 70.8985C80.0171 70.8603 80.0171 70.8168 80.0004 70.7785H79.9004C79.7404 71.4685 79.4004 73.0785 78.9004 76.5785C78.1604 77.7785 81.8604 82.3285 80.0004 70.8985Z" fill="black"/>
<path d="M88.7912 78.4399C88.7912 78.8699 88.7912 80.2899 89.0712 84.3599C89.0803 84.3857 89.0803 84.414 89.0712 84.4399C89.0712 84.7499 89.0112 84.5499 89.0712 85.4399C89.2718 85.564 89.517 85.5933 89.7412 85.5199C89.8112 85.5199 90.8012 85.8499 89.8612 86.3099C88.7534 86.4102 87.6389 86.4102 86.5312 86.3099C86.2712 86.1799 85.9212 86.5399 85.1812 85.9499C85.1812 85.7499 85.1812 85.8899 85.3012 85.5199C87.1912 87.5199 86.7712 73.7199 82.9212 70.1199C82.5512 70.1199 82.8512 70.1799 82.2012 69.7599C82.2012 69.6799 82.2812 69.5599 82.3212 69.4499C85.5512 69.1899 85.9612 66.9399 88.3212 73.4499C88.4071 73.7113 88.5392 73.9551 88.7112 74.1699C89.3282 72.971 89.7052 71.6632 89.8212 70.3199C88.7112 69.6899 89.1712 69.5799 91.4912 69.2499C91.7451 69.1749 92.0184 69.2036 92.2512 69.3299C93.4612 70.4599 90.5812 69.5999 90.2512 71.3899C90.1518 71.6058 90.0715 71.83 90.0112 72.0599C89.8412 72.4499 89.9012 72.8499 89.4612 74.0599C89.4018 74.4182 89.2653 74.7594 89.0612 75.0599C88.9012 75.1799 88.9012 75.4599 88.8212 75.6199C88.7444 76.1562 88.7176 76.6986 88.7412 77.2399C88.7512 77.6499 88.7912 77.9999 88.7912 78.4399V78.4399Z" fill="black"/>
<path d="M92.1613 0.2093C92.1613 0.3793 94.8013 -0.1307 94.5313 0.8393C92.9813 0.9693 93.5313 4.5593 93.1613 7.5793C95.2913 7.4893 96.7213 9.1393 96.1613 3.5093C96.1729 2.66877 96.2431 1.83007 96.3713 0.9993C96.3713 0.9993 96.2813 0.7893 96.0013 0.8793C94.2513 0.2593 98.3113 -0.4007 99.8413 0.3093C97.1213 1.6993 98.3113 6.0893 97.7313 10.2493C97.7313 10.3393 97.8013 10.2493 97.7313 10.6493C96.8813 11.9993 100.591 16.7193 95.7313 14.3893C95.7313 14.3893 95.7313 14.3193 95.7313 14.2893C95.9815 12.3423 96.015 10.3737 95.8313 8.4193C92.5013 7.0593 92.2513 12.1893 94.2613 14.4193C91.0713 14.9593 90.2613 16.6493 91.1213 11.1493C91.1213 10.5293 91.2313 9.2393 91.2213 8.0093C91.3213 7.5193 91.0613 6.3993 91.2213 5.0793V4.9993C91.2213 4.8793 91.0813 4.8793 91.1513 4.2293C92.4313 2.1093 88.2013 -0.2007 92.1613 0.2093V0.2093Z" fill="black"/>
<path d="M106.071 14.8194C105.773 14.8176 105.479 14.7493 105.211 14.6194C106.421 13.9694 104.591 6.39938 102.771 10.5194C102.131 12.0394 104.561 15.9494 100.601 14.7494C99.3607 15.3294 101.061 10.3894 101.871 3.00938C101.811 1.00938 101.941 -0.0806213 105.711 1.40938C105.591 1.81938 105.811 1.65938 104.711 1.83938C104.711 2.57938 104.711 3.37938 104.911 4.83938C104.99 6.24002 105.167 7.63341 105.441 9.00938V9.13938C105.521 9.32938 105.531 9.13938 105.541 9.97938C105.635 10.3945 105.702 10.8155 105.741 11.2394C105.161 11.7394 108.271 15.3294 106.341 14.7494C106.255 14.7862 106.164 14.8098 106.071 14.8194V14.8194ZM104.171 2.60938C104.184 2.57738 104.184 2.54138 104.171 2.50938H104.101C103.881 3.50938 103.561 5.18938 103.241 7.37938C102.761 8.78938 105.711 11.7194 104.171 2.60938V2.60938Z" fill="black"/>
<path d="M110.211 0.309743C112.371 -0.0302566 114.271 3.88974 112.411 7.07974C112.201 8.07974 110.681 8.13974 110.241 9.74974V9.81974C110.641 10.9497 109.741 13.4097 110.981 14.6497C112.861 14.5297 110.221 16.0397 107.741 15.2897C108.941 14.0897 107.481 12.7397 107.911 5.28974C107.531 4.79974 109.171 0.739743 106.781 1.15974C106.711 1.15974 106.681 1.08974 106.711 1.01974C107.181 0.259743 108.171 0.429743 110.211 0.309743V0.309743ZM110.211 7.67974C113.291 10.9897 112.211 -3.91026 110.341 3.03974C110.181 4.25974 110.281 4.46974 110.181 7.67974H110.211Z" fill="black"/>
<path d="M117.151 0.309743C119.311 -0.0302566 121.211 3.88974 119.351 7.07974C119.141 8.07974 117.621 8.13974 117.181 9.74974V9.81974C117.581 10.9497 116.671 13.4097 117.921 14.6497C119.801 14.5297 117.161 16.0397 114.681 15.2897C115.881 14.0897 114.411 12.7397 114.851 5.28974C114.471 4.79974 116.111 0.739743 113.711 1.15974C113.651 1.15974 113.611 1.08974 113.651 1.01974C114.121 0.259743 115.111 0.429743 117.151 0.309743V0.309743ZM117.151 7.67974C120.231 10.9897 119.101 -3.91026 117.281 3.03974C117.121 4.25974 117.221 4.46974 117.121 7.67974H117.151Z" fill="black"/>
<path d="M125.42 8.99885C125.42 9.81885 125.49 11.8188 125.66 13.9988C125.668 14.0216 125.668 14.0461 125.66 14.0688V14.8688C125.834 14.9669 126.04 14.9886 126.23 14.9288C126.29 14.9288 127.13 15.2088 126.33 15.5988C125.399 15.6781 124.462 15.6781 123.53 15.5988C123.32 15.4988 123.02 15.7888 122.4 15.2988C122.4 15.1288 122.4 15.2488 122.5 14.9388C124.15 16.4688 123.62 4.71885 120.5 1.98885C120.18 1.98885 120.44 2.03885 119.9 1.68885C119.9 1.61885 119.96 1.51885 120 1.41885C122.81 0.988847 123.24 -0.201153 125 4.82885C125.075 5.04633 125.187 5.24931 125.33 5.42885C127.02 3.73885 124.45 1.18885 127.67 1.28885C127.882 1.23311 128.106 1.25807 128.3 1.35885C129.3 2.35885 126.9 1.58885 126.6 3.08885C126.519 3.27338 126.452 3.46395 126.4 3.65885C126.25 3.97885 126.31 4.30885 125.93 5.32885C125.882 5.62615 125.769 5.90934 125.6 6.15885C125.47 6.25885 125.47 6.48885 125.4 6.62885C125.335 7.07905 125.312 7.53433 125.33 7.98885C125.39 8.27885 125.42 8.57885 125.42 8.99885V8.99885Z" fill="black"/>
<path d="M80.2703 106.369C80.6903 107.189 84.1203 115.669 81.0003 113.729C77.3603 93.8486 109 87.3086 105.81 66.9986C103.28 44.9986 64.2403 60.4686 78.9003 66.8986C86.7203 68.0486 84.1703 60.2286 79.1003 58.4286C61.7703 49.0786 47.1503 62.6986 54.4903 78.5186C59.4903 88.0286 72.4903 94.2786 78.6303 103.459C79.9603 104.789 79.8203 108.099 82.5203 106.639C81.7903 90.7486 52.1203 86.6386 55.9203 67.7686C58.2103 51.4886 82.3603 60.6786 79.8503 63.9286C77.0103 59.2586 100.05 55.0386 101.85 63.9286C111.41 84.7786 65.1003 98.3786 80.6203 116.809C90.4603 120.509 81.8403 97.2286 80.2703 106.369V106.369Z" fill="#EC8B9A"/>
<path d="M132.791 17.4595C132.331 16.8126 131.6 16.4116 130.807 16.3706C130.014 16.3297 129.246 16.6534 128.721 17.2495C127.641 17.5395 127.721 22.3795 130.721 20.0595C131.001 23.1495 134.001 23.1495 132.791 17.4595V17.4595Z" fill="black"/>
</svg>
