<svg width="200" height="193" viewBox="0 0 200 193" fill="none" xmlns="http://www.w3.org/2000/svg">
<g clip-path="url(#clip0_3_22051)">
<path fill-rule="evenodd" clip-rule="evenodd" d="M28.546 98.9083C31.3179 98.4307 31.5908 102.925 28.2944 102.503C18.7337 96.6908 29.0919 65.2452 37.8978 76.4179C39.9575 79.9829 40.5077 83.8593 42.448 87.7569C46.4991 74.2601 53.6377 60.6482 57.1814 83.5778C60.2518 79.7399 64.8573 65.3518 70.8829 72.064C72.9597 74.2303 73.8168 76.4606 73.5183 79.71C72.7337 88.3369 69.4202 95.936 67.7699 104.554C67.3946 109.522 64.6015 124.883 71.7571 122.716C74.6271 119.829 74.6271 114.913 75.9064 111.079C76.9511 107.028 77.578 104.026 76.5162 99.9019C75.3563 93.113 83.0109 83.8635 85.6335 87.71C74.077 96.7889 85.207 119.437 90.6313 98.9083C89.4499 98.9638 88.2812 98.6444 87.2923 97.9957C80.3371 90.3966 97.1644 77.0362 92.1537 97.2793C94.0556 97.2452 97.3563 94.3966 97.416 92.4606C97.8978 87.3049 99.0322 82.8785 100.218 77.7868C98.0855 77.3603 95.0322 78.5075 92.9682 76.9808C94.0343 75.7825 98.2774 76.887 100.491 76.162C100.542 74.7761 107.97 58.4947 108.469 64.1493C107.232 67.6154 106.299 71.1825 105.68 74.8102C108.422 74.3412 111.224 73.1258 114.188 72.2516C115.314 68.5928 124.486 48.1919 124.452 62.0554C123.889 65.8934 121.007 68.371 119.292 71.7953C117.659 77.9446 115.429 84.2516 115.092 90.8102C118.209 86.435 126.179 81.2452 125.672 90.8657C125.638 96.4435 119.309 108.124 123.365 110.972C126.431 109.181 127.651 105.083 128.154 101.475C127.203 98.58 126.371 94.8145 127.693 91.484C128.947 84.9382 137.378 81.6461 136.623 88.4094C135.629 90.9936 134.853 93.1557 133.105 95.8038C131.693 97.5821 131.126 98.6866 132.12 101.032C134.678 103.94 140.994 94.4734 141.928 92.1066C136.047 84.1023 150.759 78.4009 143.697 90.9936C149.838 92.951 147.659 97.6375 145.958 102.576C143.476 109.292 143.757 124.904 150.704 110.925C151.198 109.979 151.923 109.441 151.437 111.326C149.676 116.23 144.542 120.925 141.335 114.874C139.629 108.576 141.386 102.367 144.38 96.7932C144.845 95.4669 145.484 94.9552 145.032 93.0704C144.555 92.6098 143.83 92.7122 143.198 92.4179C139.821 95.9787 135.331 106.013 128.981 102.192C125.203 122.542 111.638 108.695 122.056 90.452C122.422 89.1727 123.1 87.8166 121.569 86.8316C117.574 88.3753 114.938 91.8166 114.891 96.3156C114.256 97.4755 113.791 97.7697 112.452 97.9659C110.294 99.0362 111.173 95.6802 110.977 94.1279C108.819 99.9531 106.286 105.723 102.806 111.284C96.1793 113.139 97.5567 99.0959 97.3435 95.3433C95.9789 96.5032 94.0727 97.9275 92.0471 98.6098C90.0045 104.286 86.1494 112.529 78.7422 105.795C77.4629 112.081 73.868 131.62 65.0066 120.222C61.4501 109.181 63.0023 98.1578 66.175 87.2452C67.3648 82.4222 68.9767 78.1365 69.1089 72.9638C66.384 67.7399 58.9981 84.7505 58.0684 86.4861C57.642 91.5736 58.1836 96.8785 57.5055 102.418C56.8872 121.122 49.2411 122.908 50.9384 104.84C52.2603 89.6034 57.7017 92.2303 51.6804 75.9232C49.3094 69.1727 45.0023 85.0149 44.1068 87.3902C42.9298 90.9126 43.8851 93.8849 44.3797 97.7143C45.006 103.246 45.2412 108.815 45.0833 114.38C44.3243 133.825 38.5332 127.655 37.7315 112.819C37.3946 108.038 38.384 104.03 39.3946 99.1727C38.5418 93.1301 38.5418 87.42 36.9725 81.3049C33.0535 63.8849 21.0919 94.4776 28.546 98.9083V98.9083ZM103.386 108.175C106.613 102.42 109.256 96.3574 111.275 90.0768C111.275 84.8827 112.631 79.1599 113.629 73.8465C110.907 74.9494 108.102 75.8377 105.241 76.5032C103.109 86.7377 102.593 97.3475 102.533 108.06L103.386 108.175ZM90.8317 97.6972C91.3264 95.9446 93.3136 87.5693 90.0642 87.8891C85.8552 89.4627 84.8616 98.081 90.8317 97.6972ZM54.1964 94.5842H54.0045C51.9874 100.469 50.7379 108.038 52.3285 114.367C53.56 107.844 54.1839 101.222 54.1921 94.5842H54.1964ZM39.804 104.226C38.2987 109.65 38.8062 115.945 40.5503 121.535C41.949 116.443 40.1068 109.736 39.804 104.226ZM134.371 86.1407C132.589 88.7889 131.011 92.516 131.386 96.2047C133.339 93.7271 135.527 90.2942 135.689 86.6994C135.301 86.4009 134.972 86.0938 134.371 86.1407ZM120.439 68.435C124.955 64.4648 123.889 52.8273 121.966 60.4606C121.659 63.2324 119.911 65.6461 120.439 68.4222V68.435ZM142.456 90.678C143.493 89.2154 144.857 86.9893 144.614 84.9296C141.659 84.0597 141.314 88.4606 142.456 90.6652V90.678Z" fill="#FF8E63"/>
<path fill-rule="evenodd" clip-rule="evenodd" d="M171.501 86.2559C167.164 86.6823 163.326 90.7164 161.663 95.0021C159.766 100.78 169.177 102.367 168.635 109.399C167.096 115.889 159.992 124.725 154.166 125.983C147.54 126.836 146.968 125.864 146.917 119.407C144.951 119.868 146.294 126.136 146.802 127.65C156.324 135.753 174.789 118.819 171.812 108.26C169.565 97.0064 156.84 102.627 171.356 88.0128C171.749 89.8635 173.36 86.7804 171.501 86.2559Z" fill="#FF8E63"/>
<path fill-rule="evenodd" clip-rule="evenodd" d="M152.039 89.1251C153.166 87.6323 153.507 85.6887 152.956 83.9012C154.35 81.8927 156.235 84.7115 155.655 86.6987C155.182 87.8458 153.412 91.2317 152.039 89.1251Z" fill="#FF8E63"/>
<path d="M65.9018 41.002H68.6566V45.7312H72.921V41.002H75.7142V53.3047H72.921V48.1875H68.6566V53.3047H65.8848L65.9018 41.002Z" fill="#6F6A3B"/>
<path d="M84.6658 41.002H88.0048L91.8428 53.2962H88.9004L88.1456 50.3708H84.3929L83.6466 53.3047H80.8193L84.6658 41.002ZM84.9686 48.2045H87.5912C87.2159 46.7205 86.7682 45.0318 86.3119 43.1128H86.2351C85.9366 44.422 85.4206 46.5712 84.9686 48.1875V48.2045Z" fill="#6F6A3B"/>
<path d="M96.96 41.001C110.18 39.372 107.442 50.2249 99.7318 49.1033V53.3038H96.96V41.001ZM101.088 46.9072C105.109 46.4807 103.335 42.3528 99.7318 43.1929V46.9072H101.088Z" fill="#6F6A3B"/>
<path d="M111.971 41.001C125.19 39.372 122.453 50.2249 114.743 49.1033V53.3038H111.971V41.001ZM116.099 46.9072C120.12 46.4807 118.346 42.3528 114.743 43.1929V46.9072H116.099Z" fill="#6F6A3B"/>
<path d="M128.9 48.9209L125.186 41.002H128.171C128.857 42.7631 129.539 44.5371 130.264 46.5457H130.341C130.768 45.3687 131.962 42.3197 132.473 41.002H135.377L131.659 48.9209V53.3047H128.887L128.9 48.9209Z" fill="#6F6A3B"/>
<path d="M77.8467 129.735C94.32 127.232 93.045 147.415 77.8467 144.596V129.735ZM81.8382 141.884C87.9192 142.196 87.3307 131.262 81.1985 132.447V141.884H81.8382Z" fill="#6F6A3B"/>
<path d="M99.4072 129.734H103.441L108.094 144.596H104.537L103.625 141.061H99.0917L98.1791 144.596H94.7676L99.4072 129.734ZM99.774 138.442H102.942C102.482 136.613 101.923 134.502 101.39 132.289H101.301C100.93 133.952 100.303 136.523 99.7868 138.442H99.774Z" fill="#6F6A3B"/>
<path d="M116.418 139.308L111.928 129.734H115.527C116.38 131.867 117.177 133.999 118.056 136.434H118.149C118.691 135.005 120.103 131.346 120.746 129.734H124.256L119.766 139.308V144.596H116.418V139.308Z" fill="#6F6A3B"/>
<path d="M21.5653 64.8168C18.06 63.1921 14.1751 70.3605 12.5845 73.2177C16.0983 59.0897 6.36273 72.3093 9.95335 77.3968C9.42883 78.5524 9.34354 80.1899 8.29023 81.2944C7.80836 66.416 -1.54346 73.8317 7.54823 84.8722C7.31369 85.8189 7.24119 86.7784 6.88298 87.836C2.20921 73.7123 -1.27906 85.5631 6.39684 93.0044C6.52477 95.6697 6.49919 96.5098 6.2945 97.0641C-1.65859 84.3008 -1.57757 99.2731 6.77211 101.286C6.64844 102.066 8.23906 109.294 6.00452 104.757C-3.33877 99.7464 3.1687 111.115 8.56315 111.938C8.78572 112.471 8.91552 113.038 8.94695 113.614C-0.102092 109.009 5.71454 118.194 11.0024 118.953C11.6719 120.173 13.9875 125.636 15.2071 124.54C11.2156 118.932 16.0344 115.832 15.9533 111.546C14.512 107.802 10.9512 113.785 12.1154 116.732C10.9725 117.836 10.4608 114.262 10.3798 113.239C9.1687 110.8 18.9469 102.071 10.9683 103.857C9.21987 104.041 9.87232 109.657 8.86593 106.646C8.84839 106.672 8.8284 106.697 8.80622 106.719C8.48549 105.242 8.35224 103.73 8.40964 102.22C13.5269 99.4181 16.7039 89.9255 8.0429 97.239C7.79101 95.7934 7.76368 94.3176 7.96187 92.8637C16.1452 91.7934 18.8062 82.416 8.07701 89.4735C8.30729 88.1942 8.46507 87.0513 8.75505 85.9042C21.318 83.6142 22.2774 75.9341 9.28384 83.0215C9.68469 81.9213 10.1794 80.5567 10.7167 79.1153C13.1943 77.9597 21.706 78.4202 20.1623 73.4309C17.9533 73.0044 15.045 74.5098 12.6015 75.9085C9.7316 76.0279 23.4075 68.0194 21.5653 64.8168V64.8168Z" fill="#81CA9F"/>
<path fill-rule="evenodd" clip-rule="evenodd" d="M20.7851 167.944C25.0879 164.707 27.8682 168.869 22.0303 171.462C23.8427 176.323 19.348 177.377 18.525 172.221C12.9813 172.856 11.7019 170.311 17.4418 168.669C13.8043 162.089 19.1348 161.62 20.7851 167.944V167.944ZM19.4717 168.993C18.316 168.775 17.8341 171.522 19.8981 170.997C21.1433 170.694 21.0751 168.814 19.4717 168.993Z" fill="#FF9CB3"/>
<path fill-rule="evenodd" clip-rule="evenodd" d="M54.4818 142.963C53.4242 136.827 58.3198 137.957 58.3198 143.39C63.4712 140.26 65.0149 146.46 58.9338 146.473C59.6801 149.944 55.1854 153.083 55.7867 146.839C51.7057 147.424 49.0405 142.925 54.4818 142.963ZM57.3645 145.739C58.2174 145.662 57.9104 144.055 56.7249 144.178C55.9445 144.562 56.324 145.59 57.3645 145.739Z" fill="#FF9CB3"/>
<path fill-rule="evenodd" clip-rule="evenodd" d="M44.4438 185.134C49.5014 182.218 50.414 188.316 44.8703 187.795C45.4588 192.32 41.4929 195.591 41.2583 188.994C36.64 189.847 35.2029 183.855 41.1219 185.19C40.5121 180.61 44.8532 179.105 44.4438 185.134V185.134ZM42.4609 186.077C41.3351 186.324 42.2093 188.345 43.4502 187.518C43.8895 186.9 43.3436 186.299 42.4609 186.077Z" fill="#FF9CB3"/>
<path fill-rule="evenodd" clip-rule="evenodd" d="M39.48 6.04604C38.3798 5.368 37.1773 4.68996 35.5056 5.1164C37.19 -2.20982 31.9278 -1.20769 32.0941 5.34242C27.0621 3.41065 25.5397 8.16544 31.8638 9.05244C31.4374 14.2209 36.0728 13.9949 35.4459 8.81363C36.2903 8.22515 41.1602 8.03325 39.48 6.04604V6.04604ZM34.6144 7.7518C33.3905 8.72408 31.3265 6.63453 33.6421 5.97355C34.2561 5.54284 35.6378 6.91171 34.6144 7.74753V7.7518Z" fill="#FF9CB3"/>
<path fill-rule="evenodd" clip-rule="evenodd" d="M62.1876 54.2159C66.0256 55.8704 62.5075 58.4504 59.4584 58.1093C60.3113 62.3097 56.0469 63.5293 56.3156 57.7425C50.5203 57.9131 51.5053 51.4611 56.9254 54.6594C56.678 50.2031 61.7996 47.1626 60.7633 54.2329C61.3134 54.2159 61.7527 54.1988 62.1876 54.2159ZM58.9339 55.9216C58.7377 54.9067 56.8316 55.6956 57.5608 56.8555C58.1663 57.3118 58.8955 56.7148 58.9339 55.9301V55.9216Z" fill="#FF9CB3"/>
<path fill-rule="evenodd" clip-rule="evenodd" d="M6.22629 11.663C6.57597 7.25786 10.1154 9.17258 9.50561 13.1939C14.3798 11.6758 15.1645 17.5095 9.37342 16.9977C9.46723 22.6011 5.27107 21.4796 5.75721 15.7994C0.426721 16.4306 0.972563 10.2643 6.20924 13.1385C6.21777 12.6011 6.23482 12.1321 6.22629 11.663V11.663ZM7.07917 15.1598C7.27533 16.5756 9.91073 14.8442 8.20071 14.0809C7.59612 14.0823 7.09808 14.556 7.06638 15.1598H7.07917Z" fill="#FF9CB3"/>
<path d="M31.6673 139.586C31.5393 139.04 31.066 136.371 29.7653 137.424C29.663 138.213 29.9018 139.39 29.3688 140.567C29.0617 138.349 28.6523 135.688 27.3389 133.467C26.5244 133.893 26.1491 133.68 25.7227 132.575C22.8869 133.62 25.3602 139.326 24.4434 141.228C23.228 138.477 22.3112 134.968 20.405 132.243C20.1619 132.243 19.953 131.936 19.2963 131.974C19.1939 132.358 19.0106 133.36 18.0169 133.377C17.7227 134.823 16.9892 134.285 15.8848 134.588C15.7824 137.292 19.4626 140.464 20.8314 142.631C18.469 141.3 16.3325 138.84 13.0745 138.852C13.1214 139.705 13.2024 141.552 11.5223 140.75C10.7291 143.505 14.0169 144.942 15.3261 147.104C9.78241 146.49 13.7099 148.439 11.9146 149.607C17.0916 155.45 32.1747 154.298 31.808 144.017L31.8549 144.051C32.0852 142.565 32.0215 141.048 31.6673 139.586Z" fill="#FF599F"/>
<path d="M82.0902 179.956C66.4271 179.256 75.6936 174.259 66.7384 165.03C61.732 162.374 69.4207 176.165 70.909 177.666C55.6936 173.154 61.7832 167.798 55.0923 158.476C49.3695 155.883 58.7981 170.502 59.523 172.16C46.265 167.171 51.9196 161.926 46.3802 152.19C41.9495 149.154 45.1563 162.425 47.0625 164.084C36.039 158.25 40.9687 147.453 36.4015 138.647C30.3077 135.333 36.2267 157.163 39.1648 158.327C29.0454 151.418 23.6808 155.367 30.6787 159.218C35.1563 161.35 39.9495 162.118 44.909 163.623C47.7532 166.054 50.8087 168.226 54.039 170.114C34.2181 162.894 38.2096 176.297 57.1179 171.909C59.378 173.342 62.1115 174.387 64.6147 176.105C62.8365 176.851 58.7 175.197 58.2181 178.237C59.5913 180.834 68.8791 179.184 71.7576 178.702C72.7171 179.376 83.6765 181.627 82.0902 179.956V179.956Z" fill="#7ABB6F"/>
<path fill-rule="evenodd" clip-rule="evenodd" d="M23.3392 146.921C28.5204 150.162 26.6952 149.479 27.3562 143.982C28.4948 144.69 28.1707 147.121 29.4884 147.68C29.8807 146.904 29.6121 145.266 30.4991 144.183C31.885 145.752 31.2112 149.727 30.2603 151.799C27.6462 152.46 23.949 154.021 21.4287 151.688C30.2773 151.245 22.6014 150.861 23.3392 146.921V146.921Z" fill="#FFD44D"/>
<path fill-rule="evenodd" clip-rule="evenodd" d="M24.7936 30.3954C17.9109 34.7237 19.3863 33.0393 18.542 26.2461C24.7979 20.0414 28.3927 21.3804 24.7936 30.3954Z" fill="#E16B72"/>
<path fill-rule="evenodd" clip-rule="evenodd" d="M17.3564 40.3151C19.4034 32.5156 17.2242 31.7139 26.7125 29.6798C43.1944 27.1808 22.6827 40.1147 17.3564 40.3151Z" fill="#FF7272"/>
<path fill-rule="evenodd" clip-rule="evenodd" d="M14.546 20.5586C20.4053 22.8059 20.5972 36.2814 17.369 40.5117C9.93194 38.2516 12.1324 25.2835 14.546 20.5586Z" fill="#FF848D"/>
<path fill-rule="evenodd" clip-rule="evenodd" d="M15.083 57.5088C15.5094 44.5536 29.97 38.0248 28.3367 41.5984C24.9935 47.1932 20.6822 53.9353 15.083 57.5088Z" fill="#20BA79"/>
<path fill-rule="evenodd" clip-rule="evenodd" d="M12.8279 52.8779C9.60824 47.5474 8.21805 41.2702 8.66581 34.767C8.056 27.3171 12.0347 36.4344 12.5336 39.6497C12.9728 43.7776 14.0304 52.2083 12.8279 52.8779V52.8779Z" fill="#20BA79"/>
<path fill-rule="evenodd" clip-rule="evenodd" d="M17.1514 40.4767C16.5416 46.5791 14.3796 53.8498 15.8167 60.6899C12.1664 62.2038 15.096 38.7795 17.1514 40.4767Z" fill="#20976D"/>
<path fill-rule="evenodd" clip-rule="evenodd" d="M26.9893 26.5752C27.5053 25.1595 31.13 25.8204 29.1513 28.055C28.4221 28.8396 25.8251 28.4004 26.9893 26.5752Z" fill="#FFBD31"/>
<path fill-rule="evenodd" clip-rule="evenodd" d="M20.6185 22.894C19.2752 24.5614 17.1132 22.8172 18.6569 21.2096C19.5865 20.5358 21.3691 21.5379 20.6185 22.894Z" fill="#FFBD31"/>
<path fill-rule="evenodd" clip-rule="evenodd" d="M47.335 25.734C41.5227 24.3438 39.3095 16.5698 46.3713 15.0218C42.9598 7.74251 49.9619 6.32247 55.4843 10.0965C56.8446 1.27769 67.5141 2.13057 64.5845 11.3843C69.2028 10.3054 77.9534 15.9771 71.028 19.815C76.9982 25.0474 73.0792 31.1668 65.7871 27.7596C67.5738 33.7041 61.5227 37.7468 57.0962 32.621C51.8681 35.8022 45.4672 32.7617 47.4928 25.8875C47.382 25.7766 47.3606 25.7425 47.335 25.734Z" fill="#F44D90"/>
<path fill-rule="evenodd" clip-rule="evenodd" d="M41.6977 34.1577C41.6636 28.857 36.154 24.8272 34.751 28.1875C35.7403 31.4626 38.5506 33.5692 41.4972 35.3347C40.4311 37.7355 42.299 42.84 42.9343 37.0404C45.348 36.985 48.1028 37.1854 50.7595 35.9999C52.1881 32.7504 46.0687 33.6587 43.4418 34.7632C43.4717 32.5543 44.7211 30.2686 46.5975 28.4263C47.0068 24.8016 41.5058 32.1918 41.6977 34.1577V34.1577Z" fill="#489077"/>
<path fill-rule="evenodd" clip-rule="evenodd" d="M57.8294 18.6814C55.1812 18.5364 55.0575 22.1483 58.2302 22.5961C61.2622 22.7539 61.049 18.2507 57.8294 18.6814Z" fill="#4C549A"/>
<path fill-rule="evenodd" clip-rule="evenodd" d="M85.3732 156.771C87.8935 151.197 91.7698 152.28 93.9404 158.076C98.4052 157.73 102.589 161.33 97.9916 164.715C100.785 166.92 98.87 172.895 94.6355 171.419C94.2815 175.355 89.1259 178.242 86.047 174.123C82.7464 175.79 79.7186 176.353 79.1984 171.138C73.4372 170.963 74.2304 162.609 79.9361 162.796C75.3903 158.072 80.0299 151.833 85.3732 156.771V156.771Z" fill="#F44D90"/>
<path fill-rule="evenodd" clip-rule="evenodd" d="M100.55 177.18C98.7038 176.259 98.0343 173.671 96.2859 172.511C94.9043 173.219 96.9213 175.863 98.1026 176.958C87.9405 177.432 91.0279 186.553 100.043 178.886C100.764 179.509 105.727 181.82 102.004 178.374C103.787 176.31 103.535 173.257 103.928 170.272C100.337 167.492 99.787 174.494 100.55 177.18Z" fill="#489077"/>
<path fill-rule="evenodd" clip-rule="evenodd" d="M85.5694 166.28C84.1962 163.431 90.0427 161.555 90.7549 165.239C91.079 167.568 86.5161 169.175 85.5566 166.288L85.5694 166.28Z" fill="#4C549A"/>
<path d="M32.5721 61.4919C34.8237 52.7883 40.3802 45.752 35.8301 47.8885C36.7853 44.6433 35.8301 45.9396 33.4335 46.6091C30.6574 39.7008 27.4932 61.6923 32.5721 61.4919Z" fill="#FFB631"/>
<path d="M33.2324 63.0228C33.7015 65.381 50.0042 55.8032 46.388 53.4791C47.0789 51.8074 45.9616 51.6624 44.2217 51.9396C44.4733 49.381 42.0341 51.5558 40.6652 51.5729C42.8187 43.6923 31.9573 60.9801 33.2324 63.0228Z" fill="#FFB631"/>
<path d="M39.7997 50.7449C39.3733 50.9198 39.1132 51.0648 38.1323 51.568C38.401 48.6511 35.6377 51.3249 34.8829 52.907C34.61 42.246 29.8893 59.3036 32.3242 62.1863C34.9298 63.2609 34.9554 60.5402 36.1622 58.2673C36.0215 57.1799 42.4735 50.9368 39.7997 50.7449Z" fill="#FFD731"/>
<path d="M50.2302 63.832C50.3837 62.9791 49.1172 63.1838 48.4988 62.3864C50.9253 60.9151 49.1897 59.5974 46.1406 60.5058C49.4796 54.6422 44.7248 58.1987 42.0468 60.3949C40.5415 61.4055 38.4178 62.1945 36.6268 63.38C31.3218 66.5228 49.9999 66.3053 50.2302 63.832V63.832Z" fill="#FFB631"/>
<path d="M47.1431 60.7077C47.5354 59.633 45.8638 59.5349 44.7764 59.471C47.851 57.1298 44.7764 56.9123 42.6442 58.1917C50.0003 49.9401 36.1367 61.1767 35.1986 62.9934H35.1559C33.5482 64.5712 37.2583 64.5968 38.5205 64.3537C40.8659 64.8143 47.4374 64.3281 45.9363 61.8292C46.4474 61.5929 46.8701 61.2001 47.1431 60.7077V60.7077Z" fill="#FFD731"/>
<path fill-rule="evenodd" clip-rule="evenodd" d="M37.2452 64.5331C37.3073 64.3572 37.2866 64.1627 37.1889 64.0037C37.0912 63.8448 36.927 63.7385 36.742 63.7144V63.6845H36.6951C36.5036 63.6315 36.3053 63.6071 36.1066 63.612C36.7506 62.8103 35.7314 62.2303 34.6312 62.6355C35.0235 62.1664 33.9531 60.3412 33.4286 61.7186C33.3305 61.7186 33.2324 61.7186 33.1258 61.7186C32.4478 58.7335 29.4755 62.9553 31.6546 64.8231C30.2474 66.0811 28.9467 67.7101 26.7719 68.4777C21.2921 70.6994 29.386 71.1643 33.032 65.4926L33.339 65.5395C34.0086 66.7591 36.7889 65.6717 37.2452 64.5331V64.5331Z" fill="#478163"/>
<path d="M182.201 135.475C182.939 126.217 187.097 118.656 183.007 121.509C183.395 118.17 182.615 119.611 180.448 120.677C176.474 114.366 177.233 136.571 182.201 135.475Z" fill="#FFB631"/>
<path d="M183.118 136.886C184.001 139.12 198.359 126.822 194.384 125.172C194.773 123.402 193.66 123.466 191.984 124.037C191.873 121.538 189.711 124.007 188.419 124.302C189.131 116.148 181.51 135.091 183.118 136.886Z" fill="#FFB631"/>
<path d="M187.416 123.615C187.011 123.862 186.802 124.041 185.924 124.719C185.647 121.798 183.408 124.949 182.96 126.612C180.828 115.789 178.973 134.873 182.393 136.263C183.864 136.263 184.619 135.73 184.585 133.789C184.086 132.25 190.103 123.214 187.416 123.615V123.615Z" fill="#FFD731"/>
<path d="M200 134.664C200 133.811 198.789 134.237 198.038 133.547C200.171 131.67 198.226 130.681 195.386 132.11C197.471 126.523 194.188 129.171 191.731 132.348C190.145 133.99 188.32 134.933 186.529 136.613C181.863 140.668 200.205 137.142 200 134.664V134.664Z" fill="#FFB631"/>
<path d="M196.406 132.131C196.602 131.009 194.93 131.206 193.847 131.333C196.465 128.489 193.421 128.809 191.502 130.438C199.322 119.09 176.657 142.075 188.516 137.261C190.905 137.299 197.293 135.666 195.369 133.47C195.85 133.147 196.214 132.677 196.406 132.131Z" fill="#FFD731"/>
<path fill-rule="evenodd" clip-rule="evenodd" d="M187.335 137.646C187.335 137.398 187.293 136.942 186.696 136.929C186.696 136.929 186.696 136.908 186.67 136.904H186.627C186.428 136.887 186.227 136.898 186.03 136.938C186.529 136.038 185.421 135.658 184.406 136.238C184.691 135.646 183.352 134.106 183.062 135.548L182.764 135.586C181.6 132.793 179.382 137.403 181.864 138.904C180.7 140.392 179.706 142.221 177.702 143.36C172.7 146.516 180.751 145.543 183.335 139.317H183.647C184.546 140.405 187.088 138.84 187.335 137.646Z" fill="#478163"/>
<path d="M134.214 13.6753C135.216 10.0633 143.638 12.7926 146.512 13.6753C134.295 5.73072 150.461 8.78402 151.284 14.9546C152.457 15.4407 153.638 16.5793 155.161 16.6604C145.352 5.45353 157.259 4.48978 158.146 18.767C158.96 19.2957 159.668 19.9482 160.649 20.4727C154.423 6.94607 165.084 13.2531 164.525 23.9226C166.231 25.9567 166.836 26.5537 167.37 26.8181C164.444 12.1358 174.619 22.9802 169.903 30.2297C170.521 30.7158 174.291 37.0868 172.828 32.2424C176.239 22.1913 179.225 34.912 175.868 39.2318C176.063 39.7741 176.352 40.2778 176.721 40.7201C180.133 31.283 182.244 41.7819 178.854 46.025C179.169 47.4152 181.263 52.7286 179.591 52.9759C179.868 45.7265 163.54 44.3021 172.419 41.7435C173.971 42.0932 175.34 43.6881 176.461 45.155C178.167 45.364 176.035 42.2126 175.412 41.4407C174.653 38.8523 161.34 39.0399 168.67 34.9589C170.039 33.9994 173.288 38.477 172.022 35.59C172.052 35.5921 172.082 35.5921 172.112 35.59C171.34 34.2907 170.407 33.0943 169.335 32.0292C163.647 33.445 154.866 28.6859 166.205 28.1401C165.402 26.9111 164.414 25.8135 163.276 24.8864C156.517 29.6838 148.218 24.639 160.879 22.4855C159.839 21.7051 158.943 20.9802 157.949 20.3533C147.288 27.2275 141.195 22.3192 155.596 18.6092C154.555 18.0761 153.259 17.4194 151.881 16.7286C149.301 17.5815 143.352 23.7265 141.101 19.0186C142.538 17.1209 145.489 16.3576 148.316 15.671C150.534 13.7904 135.067 17.2702 134.214 13.6753V13.6753Z" fill="#81CA9F"/>
<path fill-rule="evenodd" clip-rule="evenodd" d="M188.913 47.2906C190.418 41.5507 194.094 42.975 192.158 48.8854C197.702 49.3119 197.791 52.0581 191.778 52.5827C192.073 57.3076 187.399 58.1264 188.188 52.5102C183.616 51.9174 182.115 46.3439 188.734 48.8172C188.802 48.2287 188.861 47.7596 188.913 47.2906V47.2906ZM189.706 49.7255C187.919 50.7191 190.67 52.7916 191.493 50.8428C191.407 50.1818 190.985 49.2095 189.702 49.7255H189.706Z" fill="#FF9CB3"/>
<path fill-rule="evenodd" clip-rule="evenodd" d="M182.623 8.12324C186.461 9.77356 182.947 12.3535 179.898 12.0166C180.751 16.2128 176.487 17.4324 176.751 11.6456C170.956 11.8205 171.941 5.36844 177.361 8.56247C177.114 4.11045 182.235 1.06994 181.199 8.13604C181.749 8.10192 182.188 8.10192 182.623 8.12324ZM179.369 9.829C179.173 8.81407 177.271 9.60299 177.996 10.7629C178.606 11.2149 179.331 10.6307 179.369 9.83753V9.829Z" fill="#FF9CB3"/>
<path fill-rule="evenodd" clip-rule="evenodd" d="M142.819 62.5457C143.169 58.1363 146.704 60.0553 146.098 64.0766C150.973 62.5585 151.753 68.3922 145.966 67.8804C146.056 73.4711 141.864 72.3623 142.35 66.6821C137.011 67.3133 137.561 61.1384 142.802 64.0212C142.806 63.4838 142.828 63.0148 142.819 62.5457V62.5457ZM143.672 66.0382C143.864 67.4583 146.499 65.7269 144.793 64.9636C144.19 64.9628 143.691 65.4352 143.659 66.0382H143.672Z" fill="#FF9CB3"/>
<path fill-rule="evenodd" clip-rule="evenodd" d="M181.139 106.68C182.192 107.107 183.698 107.359 185.045 107.896C184.346 112.587 188.939 113.776 188.627 108.13C193.237 107.934 195.207 102.506 188.401 104.408C188.734 98.5014 183.425 96.173 184.99 104.182C184.005 103.683 179.105 104.902 181.139 106.68ZM185.604 105.755C185.8 105.452 185.975 104.766 186.849 105.056C189.8 105.947 185.425 108.74 185.604 105.755Z" fill="#FF9CB3"/>
<path fill-rule="evenodd" clip-rule="evenodd" d="M143.518 178.506C142.46 172.37 147.356 173.5 147.377 178.933C152.529 175.802 154.072 182.003 147.991 182.016C148.738 185.491 144.243 188.626 144.844 182.382C140.725 182.967 138.089 178.472 143.518 178.506ZM146.401 181.282C147.254 181.205 146.947 179.602 145.761 179.721C144.989 180.127 145.36 181.133 146.401 181.282Z" fill="#FF9CB3"/>
<path fill-rule="evenodd" clip-rule="evenodd" d="M185.778 162.87C190.84 159.953 191.748 166.051 186.23 165.531C186.814 170.055 182.853 173.331 182.614 166.729C178 167.582 176.563 161.612 182.482 162.925C181.838 158.35 186.192 156.853 185.778 162.87V162.87ZM183.795 163.812C182.665 164.06 183.539 166.081 184.784 165.254C185.224 164.635 184.678 164.034 183.795 163.812Z" fill="#FF9CB3"/>
<path d="M156.597 59.3247C153.186 58.5272 153.821 57.6658 157.429 57.1925C155.391 56.975 152.943 56.6808 150.87 55.5422C151.22 54.7831 151.032 54.4462 150.017 54.088C150.951 51.4526 156.086 53.5635 157.902 52.6594C155.425 51.653 152.086 50.894 149.561 49.2223C149.54 49.0006 149.267 48.8215 149.28 48.2159C149.629 48.1136 150.559 47.9174 150.525 47.0219C151.838 46.7916 151.288 45.8449 151.629 45.0006C154.261 45.1115 156.998 48.0795 159.079 49.346C157.8 47.2138 155.476 45.3417 155.395 42.3567C156.133 42.2586 157.864 42.5997 157.101 40.8812C159.6 40.0752 161.011 43.039 163.028 44.1776C163.118 43.4953 162.056 39.9643 164.585 41.6189C164.683 41.4483 164.926 41.6189 165.216 40.975C170.759 45.7085 170.086 59.3545 160.687 59.3417C160.696 59.3577 160.707 59.3721 160.721 59.3844C159.356 59.636 157.955 59.6157 156.597 59.3247V59.3247Z" fill="#FF599F"/>
<path d="M198.098 102.096C196.277 88.5952 192.75 95.9556 184.269 90.156C178.175 84.6123 193.77 90.6251 195.083 92.1005C189.842 78.8809 185.595 84.4588 176.422 79.3756C172.921 74.2029 187.51 81.5291 189.13 82.173C183.365 69.9897 178.136 76.3863 169.582 71.5803C168.111 67.8319 179.023 70.1133 180.733 71.4779C174.814 62.301 165.497 66.9023 156.921 64.0536C152.294 58.672 173.339 61.9214 174.832 64.7317C169.318 58.2072 169.714 52.1944 173.288 55.0387C177.454 59.2605 177.838 64.7743 180.286 69.721C182.802 72.0025 184.669 74.4886 186.806 77.3244C178.605 60.4033 191.028 61.8319 188.699 79.9854C190.192 81.93 191.373 84.3308 193.143 86.4758C193.386 85.4865 193.015 84.0835 193.053 82.7104C195.808 74.4715 197.032 90.4971 196.115 92.7573C196.661 93.2605 199.817 103.376 198.098 102.096V102.096Z" fill="#7ABB6F"/>
<path fill-rule="evenodd" clip-rule="evenodd" d="M163.063 51.4874C166.069 55.9821 165.621 54.5322 160.504 55.2486C161.19 56.2721 163.404 55.9011 163.954 57.1036C163.254 57.4874 161.749 57.287 160.781 58.1314C162.107 59.3169 165.941 58.6388 167.745 57.7049C168.171 55.5727 169.736 51.4021 167.267 49.6836C167.532 57.5258 166.674 50.8819 163.063 51.4874V51.4874Z" fill="#FFD44D"/>
<path fill-rule="evenodd" clip-rule="evenodd" d="M129.463 156.873C129.036 165.303 131.13 162.591 136.384 159.858C137.906 151.21 135.348 149.252 129.463 156.873Z" fill="#E16B72"/>
<path fill-rule="evenodd" clip-rule="evenodd" d="M124.896 168.4C130.371 162.579 132.35 164.213 129.071 154.865C122.58 139.496 122.286 163.752 124.896 168.4V168.4Z" fill="#FF7272"/>
<path fill-rule="evenodd" clip-rule="evenodd" d="M143.207 160.468C138.226 156.63 126.64 163.525 124.729 168.485C130.538 173.645 140.431 165.005 143.207 160.468Z" fill="#FF848D"/>
<path fill-rule="evenodd" clip-rule="evenodd" d="M111.429 179.325C121.663 172.659 120.537 157.674 118.252 159.431C114.943 165.359 111.625 172.608 111.429 179.325Z" fill="#20BA79"/>
<path fill-rule="evenodd" clip-rule="evenodd" d="M116.542 178.834C122.764 178.796 128.87 176.702 134.158 172.911C140.777 169.563 131.122 170.877 127.975 172.164C124.226 174.066 117.783 176.57 116.542 178.834Z" fill="#20BA79"/>
<path fill-rule="evenodd" clip-rule="evenodd" d="M124.861 168.656C119.923 172.417 114.947 177.991 108.315 180.383C108.989 184.268 127.403 169.475 124.861 168.656V168.656Z" fill="#20976D"/>
<path fill-rule="evenodd" clip-rule="evenodd" d="M131.574 153.005C132.508 151.82 130.056 149.087 129.182 151.935C128.892 152.963 130.623 154.946 131.574 153.005Z" fill="#FFBD31"/>
<path fill-rule="evenodd" clip-rule="evenodd" d="M138.039 156.502C137.715 157.125 138.064 158.396 139.024 158.587C141.779 158.323 139.97 154.315 138.039 156.502Z" fill="#FFBD31"/>
<path fill-rule="evenodd" clip-rule="evenodd" d="M159.646 160.34C155.808 164.558 149.603 161.999 150.073 155.892C144.576 154.882 144.235 148.575 150.38 147.023C144.499 143.078 147.928 137.086 154.678 139.449C154.618 133.086 162.755 135.811 164.307 140.707C170.482 134.366 175.923 142.063 169.203 147.176C173.893 149.308 177.028 155.705 169.015 156.4C170.861 162.157 163.493 164.413 159.646 160.34V160.34Z" fill="#F44D90"/>
<path fill-rule="evenodd" clip-rule="evenodd" d="M165.263 170.178C163.775 166.873 159.549 167.35 156.734 169.073C157.792 167.572 159.19 165.99 159.37 163.76C159.327 158.156 157.438 167.623 155.378 168.101C153.485 160.131 147.041 160.707 153.954 169.653C149.941 173.538 154.38 171.47 156.286 169.884C157.711 170.967 164.726 172.805 165.263 170.178V170.178Z" fill="#489077"/>
<path fill-rule="evenodd" clip-rule="evenodd" d="M161.194 149.155C162.388 150.861 159.488 153.027 157.783 150.511C156.473 148.323 160.162 146.472 161.194 149.155Z" fill="#4C549A"/>
<path fill-rule="evenodd" clip-rule="evenodd" d="M98.0817 6.50158C102.994 1.93442 107.766 8.01971 103.199 12.7447C108.64 12.4973 110.022 20.6466 103.937 21.0858C103.446 25.3502 101.229 26.3395 97.088 24.0709C94.4271 27.7468 89.1264 26.0112 88.5124 21.3673C84.7213 22.6125 81.9921 17.6572 85.1563 14.6636C80.4654 11.2521 84.9516 7.65723 89.2075 8.02397C90.9601 3.4099 94.6318 0.164696 97.7746 6.71907C97.8855 6.64231 97.9921 6.57834 98.0817 6.50158V6.50158Z" fill="#F44D90"/>
<path fill-rule="evenodd" clip-rule="evenodd" d="M82.5971 27.1289C84.4393 26.2078 85.1131 23.6193 86.8615 22.4594C88.2432 23.1673 86.2261 25.8112 85.0449 26.9072C95.2069 27.3805 92.1152 36.5021 83.1046 28.8304C82.3839 29.4573 77.4202 31.7686 81.143 28.323C79.3605 26.259 79.6121 23.2057 79.2197 20.2206C82.8103 17.436 83.3818 24.4424 82.5971 27.1289V27.1289Z" fill="#489077"/>
<path fill-rule="evenodd" clip-rule="evenodd" d="M97.5779 16.2293C98.934 13.3807 93.1046 11.5129 92.3924 15.1888C92.0683 17.5171 96.6312 19.1248 97.5907 16.2378L97.5779 16.2293Z" fill="#4C549A"/>
<path d="M130.491 22.0079C123.864 15.8544 115.442 12.9503 120.422 12.2979C118 10.2638 119.518 10.5111 121.753 9.93541C120.346 2.55801 134.904 19.5644 130.491 22.0079Z" fill="#FFB631"/>
<path d="M130.755 23.6542C131.586 25.9527 112.648 26.5198 114.529 22.6947C113.096 21.748 113.902 20.8951 115.522 20.2341C113.91 18.3237 117.173 18.6691 118.324 18.0081C112.264 12.5284 130.729 21.2448 130.755 23.6542V23.6542Z" fill="#FFB631"/>
<path d="M118.601 16.8348C119.07 16.7452 119.352 16.7367 120.452 16.6343C118.652 14.3188 122.422 15.0821 123.91 16.0117C118.367 6.86034 131.565 18.7111 131.045 22.4595C129.377 24.9328 127.561 22.1055 125.215 20.9158C124.571 20.0416 116.61 18.4893 118.601 16.8348Z" fill="#FFD731"/>
<path d="M116.866 33.4881C116.315 32.7674 117.33 32.5584 117.544 31.3559C114.614 31.4199 115.612 29.2919 118.52 28.4987C112.439 25.2962 118.682 25.825 122.072 26.2173C123.855 26.1874 126.008 25.7909 128.077 25.7909C134.124 25.6373 118.507 35.4199 116.866 33.4881V33.4881Z" fill="#FFB631"/>
<path d="M117.782 29.1934C116.874 28.4983 118.234 27.509 119.113 26.8736C115.275 26.558 117.723 24.72 120.226 24.622C106.81 21.59 138.989 23.1081 127.028 27.607C125.283 29.2787 119.484 32.3704 119.42 29.4748C118.858 29.557 118.285 29.4584 117.782 29.1934V29.1934Z" fill="#FFD731"/>
<path fill-rule="evenodd" clip-rule="evenodd" d="M128.184 27.086C128.045 26.9646 127.965 26.7889 127.965 26.6042C127.965 26.4194 128.045 26.2438 128.184 26.1223V26.0882H128.226C128.361 25.9407 128.516 25.8129 128.687 25.7086C127.71 25.3845 128.261 24.344 129.403 24.0924C128.819 23.9133 128.738 21.7939 129.924 22.6766C130.005 22.6169 130.086 22.5572 130.171 22.5018C129.131 19.6148 133.902 21.5551 133.05 24.3056C135.348 24.8088 137.847 25.3035 140.534 24.4421C143.297 26.8472 134.005 26.7577 132.248 25.6148C132.163 25.683 132.09 25.7513 132.018 25.8195C132.107 27.2268 129.173 27.7939 128.184 27.086V27.086Z" fill="#478163"/>
</g>
<defs>
<clipPath id="clip0_3_22051">
<rect width="200" height="193" fill="white"/>
</clipPath>
</defs>
</svg>
