<svg height="108" viewBox="0 0 191 108" width="191" xmlns="http://www.w3.org/2000/svg" xmlns:xlink="http://www.w3.org/1999/xlink"><mask id="a" fill="#fff"><path d="m.01967952.03040225h20.22535088v13.32672145h-20.22535088z" fill="#fff" fill-rule="evenodd"/></mask><g fill="none" fill-rule="evenodd"><path d="m117.832647 51.2431478c-2.545135-17.7256782-43.0783439-10.6199719-46.84869 2.7956034-4.4052853 22.731057 50.505613 18.5371843 46.84869-2.7956034" fill="#814f9a"/><path d="m94.7881899 69.0515903c.2532741 1.4368568.575304 2.8603835.9649205 4.2666043.1555192.5615061.7970065.9635173 1.3702058.7780636.573667-.1856876.9448082-.7687091.7782975-1.3704397-.3898504-1.4059869-.7114126-2.8297474-.9649205-4.2666043-.1014968-.575304-.8353602-.9511225-1.3704397-.7780636-.6185687.200421-.8868101.7539757-.7780636 1.3704397" fill="#814f9a"/><path d="m121.252198 88.2513564c-5.171422 20.7850796-26.6749295 22.9553316-39.8683346 15.1679136-9.8659962-6.227081-14.0219831-18.8900838-13.8507951-29.9920483 19.0147334 2.4483162 40.4831617 1.1052385 53.9345187-5.9265669 1.002572 6.9069224 1.514967 13.9847989-.215389 20.7507016" fill="#f092b2"/><path d="m62.1822732 59.0113424c-12.029233-16.6990178-37.6587933-2.3744154-30.6384472 11.1913003 8.5792797 19.8028531 42.4193171 9.4183816 30.6384472-11.1913003" fill="#f092b2"/><path d="m126.439219 59.0113424c12.028999-16.6990178 37.658559-2.3741815 30.638447 11.1913003-8.579514 19.8028531-42.419551 9.4181478-30.638447-11.1913003" fill="#f092b2"/><g fill="#814f9a"><path d="m54.2444107 65.1332554c-6.2974743-2.3709074-12.6990178-4.4628157-19.1819458-6.2649673-6.4829279-1.8019177-13.0460711-3.3152479-19.6634705-4.5334424-3.7214687-.6852199-7.4597755-1.2738541-11.21047709-1.7745557-.2986436-.0399907-.55706268.2846118-.55706268.5570627 0 .3339569.25748363.5168381.55706268.5568288 6.61973809.8840037 13.20018709 2.0678204 19.71515439 3.5362488 6.5278297 1.4714687 12.9906454 3.2319925 19.3627221 5.2750234 3.5909729 1.1515435 7.1527128 2.3933583 10.6817119 3.7221702.2818054.1059402.6108513-.118101.6852198-.3891487.0858279-.3126754-.1064078-.578812-.3889148-.6852198"/><path d="m50.1623012 66.4939429c-6.4101964-.9822263-12.8673994-1.6513096-19.3435454-1.991347-6.4642188-.3393358-12.945042-.3552386-19.4106641-.0460711-3.62394764.1730589-7.24275026.4492516-10.85102903.825304-.29934518.0313377-.55706267.2336296-.55706267.5570627 0 .2768943.25608045.5884004.55706267.5570627 6.41931712-.6690833 12.87114123-1.0191768 19.32530403-1.044668 6.4158092-.0252572 12.8325538.2677737 19.21913.8786249 3.6000936.3440131 7.1898971.7904584 10.7644996 1.3381665.2970065.0456034.599158-.0750701.6852198-.3889148.0724977-.263798-.0898036-.6393826-.3889149-.6852199"/><path d="m49.362956 68.8846586c-4.6260524 1.9464452-9.2523386 3.8928905-13.8788587 5.8393358-4.6082788 1.9387278-9.2165575 3.8776894-13.8250702 5.8166511-2.5998597 1.0937792-5.1999532 2.1877923-7.7998129 3.2818054-.277362.116464-.4763798.368101-.3893826.684986.0717961.2612254.4062208.5065481.6852198.3891487 4.6262863-1.9464453 9.2528064-3.8928906 13.8790927-5.8393358l13.8248363-5.8166511c2.6000935-1.0937792 5.200187-2.1877923 7.8002806-3.2815716.2768943-.1166978.4761459-.3683349.3891487-.6852198-.0720299-.2612254-.4064546-.5065482-.6854537-.3891487"/><path d="m136.900281 60.7398503c6.45159-1.7930308 12.981524-3.3019177 19.566417-4.5173059 6.572731-1.2135173 13.198784-2.1347053 19.853835-2.758419 3.745323-.351029 7.499299-.6075772 11.257484-.7722171.714219-.0311038.718194-1.145463 0-1.1138915-6.727082.2944341-13.440833.8868101-20.115295 1.7785314-6.668148.8905519-13.296539 2.0692235-19.86015 3.5449018-3.688727.8292797-7.35594 1.7518709-10.998596 2.7640318-.689664.191768-.396867 1.267072.296305 1.0743685"/><path d="m140.697123 62.4778531c6.430543-.4059869 12.880496-.4927502 19.319692-.2565481 6.426567.2357343 12.843779.7867165 19.214453 1.6651075 3.577408.493218 7.140785 1.0876988 10.685219 1.7797007.294902.0575304.601029-.0834893.68522-.3889149.07507-.2733863-.09261-.6272217-.389149-.6852198-6.353835-1.2408793-12.769878-2.1658092-19.215622-2.7696445-6.433816-.6026661-12.898269-.8840038-19.360383-.8409729-3.649205.0240879-7.297474.1524789-10.93943.3823667-.712114.0451356-.717025 1.1594948 0 1.1141253"/><path d="m140.704677 64.827783c4.434986 2.3498597 8.869972 4.6999532 13.304958 7.0498129l13.253274 7.022217c2.492517 1.3206268 4.985033 2.6414874 7.477549 3.9621141.633069.3353602 1.19668-.6258185.562208-.9621141-4.434752-2.3496258-8.869738-4.6997194-13.304724-7.049579-4.417914-2.340739-8.835594-4.6814781-13.253508-7.0222171-2.492516-1.3208606-4.985033-2.6414873-7.477549-3.9621141-.633302-.3353601-1.196679.6258185-.562208.9618803"/></g><path d="m121.252198 88.2513564c-6.20159 24.6433586-34.7488304 22.7034616-45.0144992 10.8655285 6.4492516-6.065014 18.5056127-7.8648269 24.0259592.5420955 3.581384-8.6087465 12.243685-14.0184753 20.98854-11.407624" fill="#e76698"/><path d="m142.389663 55.5030636c-33.199018-14.4688962-12.715154-36.5463049-1.30028-29.0198784 13.134705-8.2008887 23.018007 9.5135641 14.413236 19.1265201-3.90435 4.0640786-8.536482 7.0949486-13.011225 9.8928906.034144-.0009355-.004444.0025725-.101731.0004677" fill="#f2a7c9"/><path d="m147.250094 23.2894995c-1.88494-.0126286-4.309869.5378859-6.228485 1.8636577-14.820393-6.4029467-23.382834 12.9335827-13.135407 22.6082787 4.404116 3.6716558 9.602198 6.5601029 14.467727 8.8573433 29.925164-15.114593 14.850327-33.9969597 4.896165-33.3292797m0 2.2280169c9.446211.1531805 12.931711 11.1120206 8.40318 17.9506548-3.290926 4.8699719-8.809401 7.4766136-13.272919 10.9218896-31.698316-14.5888681-11.072965-34.3592142-1.216323-26.4992984 1.543732-1.4155753 3.551216-2.3666979 6.086062-2.373246" fill="#814f9a"/><path d="m48.4889383 57.0526193c-32.4988307-16.1057063-10.8498597-37.121609.1202058-29.0484098 13.8662301-7.6480355 22.7011225 11.2006549 13.0395229 20.2656689-4.1106174 3.5626754-8.5673527 6.2855472-13.0140318 8.7878859l-.0215155-1.1138915v1.1138915c-.0264265 0-.0984565-.0030403-.1241814-.005145" fill="#f2a7c9"/><path d="m42.9200655 25.073971c-11.9193171.383536-15.7455566 13.8540692-9.7088401 22.0577643 3.6494388 4.6955098 14.2780637 11.0986903 15.604537 11.0348456 33.7528064-15.8769878 12.6330683-39.380028-.2093078-31.4943873-1.481057-.8917212-3.4740411-1.5942469-5.6863891-1.5982226m0 2.2280168c1.7392423-.0184752 4.0240879.6775024 5.6943405 2.1115529 16.7011225-9.0404584 22.0811506 16.0409261 6.8056595 22.0771749-2.5025725 1.2441534-4.0605706 2.6929373-6.3231993 4.3879794-27.6601964-12.6737605-14.3540692-29.1442937-6.1768007-28.5767072" fill="#814f9a"/><path d="m117.66478 77.6680075c-1.344481 8.974275-11.192703 8.0926099-14.267072 1.6784378-2.003976 10.0626754-12.8617866 8.76029-15.915809 1.143826-5.424696 11.5516838-16.2441534 3.2116464-14.8241347-6.3872778 14.6686155.777362 30.3189897.8482226 44.3833017-4.5898036.787185 2.6143592 1.039523 5.4513564.623714 8.1548176" fill="#fefefe"/><g fill="#814f9a"><path d="m129.428531 60.7341441c-.457904.4270346-.927736.8409728-1.409962 1.2404116-.222638.1845182-.447849.3657624-.675398.5442001-.043031.0336764-.259588.2001871-.024322.0201123-.063143.0481759-.126052.0963517-.189195.1442937-.147802.1120206-.296539.2231057-.445744.3325538-1.018709.7469598-2.077175 1.4384939-3.165341 2.0795136-1.116698.6580917-2.2645 1.2633302-3.434285 1.8213283-.609448.2906923-1.224509.568522-1.845182.8344247-.044902.0194107-.31174.1321329-.046773.02058-.052385.022217-.104537.0439663-.157156.0659495-.15739.0657156-.315014.1307296-.473106.1948082-.31782.1290926-.636576.255145-.956501.3781572-5.228952 2.0128625-10.73246 3.2775959-16.269878 4.078812-.179374.0257249-.3589808.051216-.538354.0762394-.0898036.0126287-.1796072.0247896-.2691768.0371843-.3044902.0418616.241347-.0313377-.063377.0084191-.3592143.0467727-.7186623.0930776-1.0785781.1368101-.6887278.0837231-1.3783911.1601964-2.0687559.2298877-1.4324135.1447615-2.8678672.2605239-4.3049579.3484565-2.7443873.1681479-5.4943873.2369037-8.2436857.2102433-2.5930776-.0250234-5.1859214-.1347054-7.7712816-.3367634-1.205332-.0940131-2.4087932-.2086061-3.6101496-.3456501-.5537886-.063377-1.1071095-.1328344-1.6599626-.2048644-.255145-.0332086.2680075.0371843.0140318.0018709-.070159-.0095884-.1405519-.0191768-.2107109-.028999-.1389149-.0191768-.2782975-.0388213-.4174463-.0586997-.2740879-.0392891-.547942-.0802152-.8215622-.1220767-1.9265669-.2967727-3.8454162-.659261-5.7357343-1.1375117-.8016838-.2027596-1.5982226-.4268008-2.3840037-.6838167-.333957-.1092142-.6660431-.224275-.994855-.3470533-.1606642-.059869-.3201591-.121609-.4789523-.1854537-.0638447-.025725-.1274556-.0521516-.1913003-.0781104-.0841908-.0341441-.2326941-.118101.1169317.0495791-.0477081-.0229187-.0977549-.0418616-.1461646-.0629093-.2626287-.1150608-.5222171-.2371375-.7773621-.3678672-.5177736-.2656688-1.2324602-.1522451-1.5240879.3996726-.2691768.5095884-.1538821 1.2401778.3996726 1.524088 2.957203 1.5173058 6.3547708 2.2200654 9.6019644 2.7878858 4.8309168.8447147 9.7399439 1.2607577 14.6398504 1.3898504 5.6199719.1478016 11.2581852-.0940131 16.8384003-.7869505 5.7139846-.7090739 11.3961646-1.8531337 16.8388686-3.7581852 5.092609-1.7829747 9.995322-4.2188962 14.159494-7.6847521.461179-.3837699.910898-.78087 1.349626-1.190131.440131-.4106641.415108-1.1604303 0-1.5755378-.438728-.4387278-1.134237-.4115997-1.575538 0"/><path d="m37.0641254 12.0293499c-.0030403-.4611787.022217-.9207203.0806828-1.3783911-.0397568.296305-.0795135.5923761-.1192703.8884472.0935454-.6920019.2652011-1.3688026.532507-2.01473341-.1122544.26613658-.2247427.53203931-.3367633.79840971.2228718-.52666041.5056127-1.02221701.8519644-1.47778295-.1742282.2256782-.3484565.45088868-.5226847.67633302.3285781-.42446212.7062675-.80449018 1.1290926-1.13517306-.2256782.17422825-.4511226.3484565-.676333.52268475.4391955-.33769878.9174462-.61599626 1.4268007-.83325538-.2661366.11225444-.5320393.22474275-.7981759.33699719.5523855-.23082319 1.1307297-.38657623 1.7235735-.46842843-.2958373.03975678-.5921422.07974742-.8884472.11927034.628391-.08208606 1.2623948-.08044901 1.8900842.00350795-.2960711-.03999064-.5921422-.07974742-.8882133-.11950421.6155286.08652947 1.2156221.25140319 1.7885875.4929841-.2663704-.11225444-.5322732-.22450888-.7984097-.33676333.5336763.22988775 1.0348456.52338634 1.4950888.87815716-.2254443-.17399439-.4511225-.3484565-.6765668-.52245089.4457436.34915809.8440131.75046773 1.1913002 1.19761459-.1739943-.22521047-.3484565-.45088868-.5226847-.67633302.3662301.47988775.6662769 1.00210477.9031805 1.55706267-.1122544-.2661366-.2245089-.5322731-.3369972-.79840972.1569224.37535082.2836764.76075772.3837699 1.15505142.2041628.8044902.8250702 1.5816184 1.5357811 1.9974275.7165575.4193171 1.772217.5968195 2.575304.3369972.8086998-.2616931 1.589102-.7628625 1.9974275-1.5357811.4251637-.8051917.5640786-1.6793732.3367634-2.57553787-.4773153-1.88189897-1.4955566-3.73339569-2.9387278-5.04887745-.6700187-.61085126-1.4275024-1.18802619-2.2471937-1.5888681-.8103367-.39639851-1.6721234-.75374182-2.5638447-.92142189-1.7878858-.33652947-3.6798409-.34331151-5.4120673.28180542-.8451824.30495791-1.7001871.66861553-2.4289055 1.20533209-.4660898.34354537-.9415342.6943405-1.3554724 1.10289991-.4251637.41908325-.7892891.90972871-1.1417213 1.3868101-.6297942.85219831-1.0703929 1.86997194-1.3814312 2.87628625-.3571095 1.15575304-.4997662 2.41043034-.4922825 3.61763334.0053788.8603835.3690365 1.7535079.9789523 2.3631899.5795135.5797474 1.5306361 1.0163704 2.3631899.9789522.8643592-.0388213 1.7607577-.3224976 2.3631899-.9789522.5982226-.6515435.984565-1.4595417.9789523-2.3631899"/><path d="m20.1255847 8.57518709c-.7221703-3.87581852-3.5603368-7.39148737-7.5077175-8.27338634-1.7764266-.3971001-3.68942941-.3797942-5.42867169.19387278-.851029.28040224-1.7116464.64569691-2.46304958 1.14218896-.7525725.49766136-1.49672591 1.07717493-2.08652947 1.76753976-.41276894.48339569-.81361085.99158091-1.14522918 1.53601496-.34027128.55869972-.58840038 1.17422825-.8292797 1.77923293-.41417213 1.03999065-.57764266 2.18124415-.6419551 3.29209546-.047942.825304.40668849 1.7913938.97895229 2.3634237.57951356.5795136 1.53040225 1.0161366 2.36295603.9787184.86435922-.0385874 1.76075772-.3224976 2.3631899-.9787184.61973807-.6751637.92563143-1.4422357.97895229-2.3634237.0121609-.20837235.0313377-.41604307.05799813-.62347993-.03999064.29630496-.07974742.59237605-.11950421.88868103.0869972-.63891489.25-1.26216092.49672592-1.85827879-.11225445.26637044-.22474276.53227316-.33676334.7986436.22614594-.53414406.51590272-1.03578111.86763331-1.49695978-.17422825.22521048-.3484565.45088868-.52245089.67633302.35126286-.45369504.75654817-.85921422 1.20884004-1.21234799-.22521048.17422825-.45088869.3484565-.67633303.52268476.47287185-.36365763.98783911-.66393826 1.53624883-.89897101-.26590271.11225445-.53227315.22450889-.79840972.3369972.57600561-.24204865 1.17820393-.40785781 1.79677267-.49462114-.29630495.03975678-.59214218.07951356-.88844714.11927034.61646399-.0818522 1.23854074-.08395697 1.85523854-.00210477-.296305-.03975678-.592376-.07951356-.8884471-.11927034.5687558.07998129 1.1227783.23035547 1.652245.45322731-.2661365-.11225444-.5320392-.22474275-.7984097-.33699719.493218.21188026.9553321.48292797 1.3809635.80986903-.2254443-.17422825-.4506548-.3484565-.6760991-.52268475.431478.33746492.8159495.72591207 1.1527128 1.15785781-.1739944-.22521047-.3482226-.45088868-.5224509-.67633302.3903181.50912068.7065014 1.06594949.9576707 1.65575304-.1124883-.26613657-.2247427-.53203929-.3369972-.79840973.2630964.63143125.4487839 1.28858747.5741347 1.9604771.1459308.7836763.8704397 1.6080449 1.536015 1.9974275.7160898.4190832 1.7719832.5965856 2.575304.3367633.8086997-.2616932 1.5886343-.7628625 1.9971937-1.5357811.1122544-.2661366.2247427-.5322731.3369972-.7984097.159261-.59237607.159261-1.18451826 0-1.77689431" mask="url(#a)" transform="translate(130.464149)"/></g><g fill="#956dac" transform="translate(24.290154 50.982226)"><path d="m10.5680075 4.33479888c-1.07530404 0-1.07694108 1.67118802 0 1.67118802 1.075304 0 1.0769411-1.67118802 0-1.67118802"/><path d="m9.3553087 16.8681946c-1.07553789 0-1.07694107 1.6709541 0 1.6709541 1.0750702 0 1.0767072-1.6709541 0-1.6709541"/><path d="m11.2179841 22.0321562c1.075304 0 1.0769411-1.671188 0-1.671188-1.075304 0-1.0769411 1.671188 0 1.671188"/><path d="m11.5758653 28.2903882c-1.4595416-1.3994387-2.22076708 2.761927.1311974 1.1295604-.046305-.1036015.3905519-.3503275-.1311974-1.1295604"/><path d="m17.8406221 19.1459775c-1.075304 0-1.0769411 1.6709542 0 1.6709542 1.075304 0 1.076941-1.6709542 0-1.6709542"/><path d="m19.8341674 16.1695744c-1.0750701 0-1.076941 1.6709541 0 1.6709541 1.0753041 0 1.0769411-1.6709541 0-1.6709541"/><path d="m27.6567119 16.8171656c-1.075304 0-1.0769411 1.671188 0 1.671188 1.075304 0 1.076941-1.671188 0-1.671188"/><path d="m27.2860617 6.97114125c-1.075304 0-1.076941 1.67118803 0 1.67118803 1.0753041 0 1.0769411-1.67118803 0-1.67118803"/><path d="m37.8457671 14.202058c-1.0750702 0-1.0767072 1.671188 0 1.671188 1.075304 0 1.076941-1.671188 0-1.671188"/><path d="m42.7658092 7.14459775c-1.0750702 0-1.0767072 1.67118803 0 1.67118803 1.0755379 0 1.0771749-1.67118803 0-1.67118803"/><path d="m37.5045603 7.88603835c-1.075304 0-1.076941 1.67118803 0 1.67118803 1.0753041 0 1.0769411-1.67118803 0-1.67118803"/><path d="m36.6093078 4.30500468c-1.6038354-1.46655753-2.3566418 2.82553788.1730589.91323667-.042797-.13914874.3070627-.24345183-.1730589-.91323667"/><path d="m28.6467493 22.1937325c-1.0750702 0-1.0769411 1.6709541 0 1.6709541 1.075304 0 1.0769411-1.6709541 0-1.6709541"/><path d="m17.9164406 26.8612956c2.2406455.0596352-.2677736-3.4911132-.8061272-.6136576.1501403.0399906-.1945744.3643592.8061272.6136576"/><path d="m28.5247895 27.2269411c-1.0755379 0-1.076941 1.671188 0 1.671188 1.0750702 0 1.0767072-1.671188 0-1.671188"/><path d="m23.4458138 23.2026193c-1.075304 0-1.076941 1.671188 0 1.671188 1.0753041 0 1.0769411-1.671188 0-1.671188"/><path d="m15.0605239 18.0780636c-.7167914 0-.7179608 1.1141254 0 1.1141254.7165575 0 .7177268-1.1141254 0-1.1141254"/><path d="m22.2481759 27.1571562c-.7170253 0-.7181946 1.1141254 0 1.1141254.7165575 0 .7179607-1.1141254 0-1.1141254"/><path d="m33.9751403 23.0904818c-.7165575 0-.7179607 1.1141253 0 1.1141253.7167914 0 .7179607-1.1141253 0-1.1141253"/><path d="m15.7794668 11.6742049c-1.1220767-.9913471-1.6223106 1.8985032.1152947.6089803-.0009355-.1326005.171188-.2495323-.1152947-.6089803"/><path d="m4.61980823 23.4013096c-1.12254443-.9911132-1.62231057 1.8987372.11506081.6089804-.00070159-.1326006.17118802-.2492984-.11506081-.6089804"/><path d="m10.3599626 10.9212348c-.71679141 0-.71819459 1.1141253 0 1.1141253.7165575 0 .7177268-1.1141253 0-1.1141253"/><path d="m7.72511693 21.5207905c.71655753 0 .71796071-1.1138915 0-1.1138915-.71679139 0-.71796071 1.1138915 0 1.1138915"/><path d="m33.1077409 13.1878157c-.7167914 0-.7179607 1.1141254 0 1.1141254.7167914 0 .7179607-1.1141254 0-1.1141254"/><path d="m15.422521 5.71651076c-.7167913 0-.7181945 1.11412535 0 1.11412535.7165576 0 .7177269-1.11412535 0-1.11412535"/><path d="m32.8747895 6.66760992c-.7165575 0-.7179607 1.11389148 0 1.11389148.7167914 0 .7179607-1.11389148 0-1.11389148"/><path d="m39.453812 3.62385407c-.7167914 0-.7179607 1.11412535 0 1.11412535.7167914 0 .7181945-1.11412535 0-1.11412535"/><path d="m42.0616932 1.25930776c.7167914 0 .7177268-1.11389148 0-1.11389148-.7167914 0-.7179607 1.11389148 0 1.11389148"/><path d="m43.1814546 14.2186155c-.7167914 0-.7179607 1.1141254 0 1.1141254.7165576 0 .7177269-1.1141254 0-1.1141254"/><path d="m19.91616 12.7049111c-.7167914 0-.7179607 1.1141254 0 1.1141254.7167914 0 .7179607-1.1141254 0-1.1141254"/><path d="m5.04710009 17.6122778c-.71679139 0-.71796071 1.1141254 0 1.1141254.7167914 0 .71796071-1.1141254 0-1.1141254"/><path d="m19.6115061 8.7222638c-.7167914 0-.7179607 1.11412535 0 1.11412535.7167914 0 .7179607-1.11412535 0-1.11412535"/><path d="m.62266137 18.0780636c-.7167914 0-.71819458 1.1141254 0 1.1141254.71679139 0 .71796071-1.1141254 0-1.1141254"/><path d="m5.34422357 9.56499065c-.71679139 0-.71796071 1.11412535 0 1.11412535.71655753 0 .71796071-1.11412535 0-1.11412535"/></g><g fill="#956dac" transform="translate(120.641885 50.982226)"><path d="m33.1623246 6.99684284c1.075304 0 1.0769411 1.67118803 0 1.67118803-1.075304 0-1.0769411-1.67118803 0-1.67118803"/><path d="m34.8187792 13.7623246c1.0753041 0 1.0769411 1.671188 0 1.671188-1.075304 0-1.076941-1.671188 0-1.671188"/><path d="m32.2903648 24.0286717c-1.075304 0-1.076941-1.6709542 0-1.6709542 1.075304 0 1.0769411 1.6709542 0 1.6709542"/><path d="m32.7089804 28.2903882c1.4595416-1.3994387 2.2210009 2.761927-.1309636 1.1295604.0460711-.1036015-.3907857-.3503275.1309636-1.1295604"/><path d="m26.4444574 19.1459775c1.0750702 0 1.0767072 1.6709542 0 1.6709542-1.075304 0-1.076941-1.6709542 0-1.6709542"/><path d="m23.0086763 16.8349626c1.0753041 0 1.0769411 1.671188 0 1.671188-1.075304 0-1.076941-1.671188 0-1.671188"/><path d="m16.6281338 16.8171656c1.075304 0 1.076941 1.671188 0 1.671188-1.0753041 0-1.0767072-1.671188 0-1.671188"/><path d="m17.5535547 4.64186155c1.075304 0 1.0769411 1.67118803 0 1.67118803-1.075304 0-1.076941-1.67118803 0-1.67118803"/><path d="m6.99361553 16.0876988c1.07530402 0 1.07694106 1.671188 0 1.671188-1.07530402 0-1.07694107-1.671188 0-1.671188"/><path d="m1.51905987 7.14459775c1.07530402 0 1.0767072 1.67118803 0 1.67118803-1.07530402 0-1.07694107-1.67118803 0-1.67118803"/><path d="m6.7803087 7.88603835c1.07530402 0 1.07694107 1.67118803 0 1.67118803-1.07530402 0-1.07694107-1.67118803 0-1.67118803"/><path d="m7.67556127 4.30500468c1.60383536-1.46655753 2.35687563 2.82553788-.17305893.91323667.04279701-.13914874-.30706268-.24345183.17305893-.91323667"/><path d="m15.6380964 22.1937325c1.075304 0 1.076941 1.6709541 0 1.6709541-1.0753041 0-1.0769411-1.6709541 0-1.6709541"/><path d="m26.3686389 26.8612956c-2.2406454.0596352.2675398-3.4911132.8061272-.6136576-.1503741.0399906.1943405.3643592-.8061272.6136576"/><path d="m15.76029 27.2269411c1.075304 0 1.0769411 1.671188 0 1.671188-1.075304 0-1.0769411-1.671188 0-1.671188"/><path d="m20.8390552 23.2026193c1.0755379 0 1.0771749 1.671188 0 1.671188-1.0750702 0-1.0769411-1.671188 0-1.671188"/><path d="m29.6683115 14.8614125c.7165575 0 .7177269 1.1141254 0 1.1141254-.7167914 0-.7181946-1.1141254 0-1.1141254"/><path d="m22.036927 27.1571562c.7167914 0 .7179607 1.1141254 0 1.1141254-.7165575 0-.7179607-1.1141254 0-1.1141254"/><path d="m10.3097287 23.0904818c.7167914 0 .7179607 1.1141253 0 1.1141253-.71655751 0-.71796069-1.1141253 0-1.1141253"/><path d="m28.5056127 11.6742049c1.1220767-.9913471 1.6223106 1.8985032-.1152946.6089803.0007015-.1326005-.1711881-.2495323.1152946-.6089803"/><path d="m39.6652947 23.4013096c1.1223105-.9911132 1.6223105 1.8987372-.1152947.6089804.0007016-.1326006-.1709542-.2492984.1152947-.6089804"/><path d="m33.9251169 10.9212348c.7167914 0 .7179607 1.1141253 0 1.1141253-.7165575 0-.7179607-1.1141253 0-1.1141253"/><path d="m35.3397334 18.3041628c-.7165575 0-.7179607-1.1141254 0-1.1141254.7167914 0 .7179607 1.1141254 0 1.1141254"/><path d="m11.1773386 13.1878157c.7165576 0 .7179607 1.1141254 0 1.1141254-.7167914 0-.7179607-1.1141254 0-1.1141254"/><path d="m27.3228251 2.86723573c.7165575 0 .7179607 1.11412536 0 1.11412536-.7167914 0-.7179607-1.11412536 0-1.11412536"/><path d="m13.1252105 4.19824602c.7165575 0 .7177268 1.11412536 0 1.11412536-.7167914 0-.7181946-1.11412536 0-1.11412536"/><path d="m4.83105706 3.62385407c.7167914 0 .71796071 1.11412535 0 1.11412535-.71655753 0-.71796071-1.11412535 0-1.11412535"/><path d="m2.22338634 1.25930776c-.71679139 0-.71796071-1.11389148 0-1.11389148.71655753 0 .71796071 1.11389148 0 1.11389148"/><path d="m.59113658 12.07355c.71679139 0 .71796071 1.1141254 0 1.1141254-.71655753 0-.71796072-1.1141254 0-1.1141254"/><path d="m24.3687091 12.7049111c.7167914 0 .7181945 1.1141254 0 1.1141254-.7165576 0-.7177269-1.1141254 0-1.1141254"/><path d="m39.2379794 17.6122778c.7165576 0 .7177269 1.1141254 0 1.1141254-.7167914 0-.7181946-1.1141254 0-1.1141254"/><path d="m26.1153648 7.83498597c.7167914 0 .7179607 1.11412535 0 1.11412535-.7165575 0-.7179607-1.11412535 0-1.11412535"/><path d="m43.6624415 18.0780636c.7165576 0 .7179607 1.1141254 0 1.1141254-.7167914 0-.7179607-1.1141254 0-1.1141254"/><path d="m37.6098457 6.23746492c.7165575 0 .7177268 1.11412535 0 1.11412535-.7167914 0-.7181946-1.11412535 0-1.11412535"/></g><path d="m173.334097 33.6381899c-.433349-1.1482694-1.903882-1.9275023-3.51029-.8912535-.083489-3.6169317-5.006314-2.6833489-5.01941.6931712.217025 2.3564078 1.323199 7.2988774 4.885874 4.9784845 2.027362-.6889616 4.379794-2.2476613 3.643826-4.7804022" fill="#f6e093"/><path d="m20.3826239 27.4354537c-2.4864359-1.4541628-5.8243685.0888681-6.5799812 3.2385407-4.27689434-5.0792797-10.34494859 1.0876988-7.74929845 6.068522 2.06244153 4.5654817 7.14733395 6.044434 11.75467725 7.2869504 1.5640786-.4275023 2.6075772-3.5991581 3.6328344-5.1973807 2.0755379-3.5364827 3.0558934-9.0135641-1.058232-11.3966324" fill="#d8c6e1"/><path d="m165.146586 87.004841c-.829046-1.6166979-2.878625-2.2128157-4.705099-.7415809-.484097-4.556595-6.451122-3.0783443-6.474742.9695977.148269 3.9562676 2.955332 9.9532273 7.282974 6.3220299 2.497428-1.1496725 5.125819-3.4459775 3.896867-6.5500467" fill="#80cde7"/></g></svg>