<svg height="96" viewBox="0 0 209 96" width="209" xmlns="http://www.w3.org/2000/svg"><g fill="none" fill-rule="evenodd"><path d="m49.3681542 62.0060746c-8.936623-13.0161366-44.33231991-5.8751169-31.9176801 12.6071095 11.3346586 13.8463517 40.4714687 3.3054256 31.9176801-12.6071095" fill="#f092b2"/><g fill="#814f9a"><path d="m15.9140382 10.9015377c1.96913 1.7581852 4.1709542 3.3019176 6.5965856 4.3606174 1.3009822.5675865 2.6082788 1.0961178 3.9843312 1.4513564 1.3634237.3514967 2.7764265.5575304 4.1777362.6725912 1.0079513.0825538 2.023854.0781103 3.0301683-.0250234 1.3089336-.1342376 2.6246493-.3210945 3.8849392-.710711 2.4892423-.7698784 4.7675398-2.0608045 6.662769-3.8538353 2.1826473-2.0647802 3.6898971-4.80425634 4.5261927-7.67118805.2913938-.99859682.1145931-2.22521048-.4078578-3.11810103-.4913471-.83956969-1.4536951-1.64008419-2.4183817-1.85968195-1.036015-.23596819-2.1987839-.18498596-3.1183349.40785782-.8947614.57694106-1.5570627 1.38049579-1.8599158 2.41861552-.1597287.54770814-.3477549 1.08606174-.5671188 1.61295604.1358747-.3222638.2717493-.6445276.4078578-.9667914-.4396632 1.04069224-1.0011693 2.02338635-1.6915341 2.91838167.2111786-.27291862.4221235-.5460711.6328344-.81898971-.6127222.78554724-1.3168849 1.49181478-2.1024322 2.10500468l.8189897-.63283443c-.8412067.64943873-1.7616931 1.18334893-2.7385407 1.60079514.3222638-.13610852.6445276-.27198317.9665576-.40785781-1.1550515.48690364-2.3711413.80542563-3.6124883.97333957.3585126-.04817587.7172591-.09635174 1.0757717-.1445276-1.4550982.19036483-2.9279701.17352666-4.3821328-.01707203.3585126.04817586.7172591.09635173 1.0757717.1445276-1.7291861-.2333957-3.4162769-.71000936-5.0233863-1.38774556.3222638.13587465.6445276.27198316.9665575.40785781-1.7034612-.72544434-3.3035547-1.67235734-4.7687091-2.80425631.2729187.2109448.5460711.42188961.8189898.63283442-.4155754-.32319925-.8194575-.66043031-1.212348-1.01099158-.8021516-.71632367-1.7626287-1.1854537-2.861319-1.1854537-.9925164 0-2.178204.44106642-2.8615529 1.1854537-.7079046.77128157-1.2333957 1.78367633-1.1852198 2.86155285.0463049 1.03765201.3849392 2.14663234 1.1852198 2.86131904"/><path d="m16.4884068 45.9259062c3.1400842 2.4855005 6.7261459 4.3875117 10.5898035 5.4719364 3.8012161 1.0668849 7.8786249 1.318522 11.7350328.3891487 2.1700187-.5226847 4.2633302-1.4448082 6.1047708-2.7062675.5811506-.3980355.8982694-1.2027596.4840973-1.8454163-.3727783-.5781104-1.2231057-.9104303-1.8456502-.4840973-.7829747.5362489-1.6061739 1.0114594-2.4663236 1.4130028-.0937793.0439664-.1880262.0869972-.2827409.1290927-.0921422.0411599-.441768.1641721-.0846586.0390552-.2212348.0776426-.436623.1758652-.6569223.2570159-.4253976.1566884-.8571095.296071-1.2930309.4195509-.4345182.1225445-.8734799.2287185-1.3157156.3187559-.213985.0434986-.4284378.0830215-.6435922.1192703-.1148269.0191768-.2296538.0374182-.3447146.0542563-.0432648.0065482-.0865295.0126287-.1295604.018943-.309869.0453695.323667-.0385875.0126286-.0025725-.8994387.1045369-1.801216.1583255-2.7067352.1487371-.4543966-.0046772-.9087933-.0240879-1.3620206-.0570627-.2200655-.0159027-.4398971-.0350795-.6594949-.0575304-.1171655-.0121609-.2343311-.0250233-.3514967-.0385874-.0439663-.0053789-.0879326-.0105239-.1316651-.0159027-.2076707-.025725-.0785781-.0119271.0512161.008419-.9099626-.1421889-1.8115061-.3007483-2.7055659-.5254911-.9115997-.2291861-1.8105707-.5077175-2.6931712-.8306828-.210711-.0769411-.4202526-.1566885-.6288588-.2387746-.097521-.0381197-.1945743-.0771749-.2916277-.116464-.0554256-.0224509-.1108512-.0451356-.166043-.0680542-.1889616-.0781104-.0928438-.0074837.0327409.0144995-.1994855-.0348457-.429841-.1868569-.6152947-.2710477-.217493-.0989242-.4340505-.200421-.648971-.3047241-.9363891-.4539289-1.8486904-.9581384-2.7312909-1.5093545-.4370908-.2731525-.8669317-.5577643-1.2888213-.8538354-.2156221-.1513096-.4289056-.3056595-.6400842-.4628157-.0935454-.0694574-.1861553-.1400842-.279233-.2104771-.1945743-.1471.0500468.0493452.0659495.0512161-.0565949-.0065481-.1637044-.1286248-.2053321-.1613657-.2918615-.2310571-.5659494-.3952292-.953695-.3952292-.3309167 0-.7261459.1471001-.9539289.3952292-.4471469.4869036-.590739 1.4398971 0 1.9076239"/><path d="m19.9835658 23.7467902c-.3180542.1342376.0084191-.0023386.0619738-.0243218.0802152-.0327409.1606642-.0652479.2411132-.097521.1770346-.0710945.3547708-.1407858.5327409-.2088401.3564079-.1361085.7149205-.2666043 1.0755379-.3907857.6884939-.2376053 1.3842376-.4536951 2.0858279-.6485033 1.4370907-.3987371 2.8992048-.7069691 4.3744153-.9242283.0858279-.0126286.1716557-.0240879.2574836-.0369504.2153882-.0320393-.3376988.0420954.0023387-.0004677.1721234-.0215154.3442469-.0432647.5163704-.0631431.3790926-.0437325.7588868-.0813845 1.1391487-.1129561.7605239-.063377 1.5229187-.1028999 2.2857811-.118101 1.4738073-.0292329 2.9492517.03087 4.4155753.1819457.2067353.0215155.4137044.0444341.6202058.0694575.0860618.0105238.1721235.0215154.2579514.0320393.154116.0201122.1377456.0177736-.0491113-.0070159.0514499.0070159.1031338.0142656.1545837.0215154.4120674.058232.8229654.1239476 1.2326941.196913.8367633.1487371 1.6674462.3290458 2.4911132.5374182.6831151.1725912 1.4953227-.2217026 1.6594949-.9422358.1594948-.7004209-.2102433-1.474275-.9422358-1.659261-6.0891019-1.5395229-12.5551917-1.5009354-18.6307296.0881665-1.7607577.460711-3.4681946 1.0699252-5.143826 1.7773621-.2883536.1218428-.5413939.5205799-.619972.8061272-.0891019.3229654-.0488774.7528063.1358747 1.0395229.1856875.2878859.4621141.5416277.8061272.6199719.3786249.0860618.6856876.0130964 1.0395229-.1361085"/><path d="m47.85307 27.2244797c-12.4466791-18.51637049-34.6478017 1.0346117-24.4939195 17.4104303 13.3889148 18.4420018 33.630028-.3526661 24.4939195-17.4104303"/></g><path d="m47.9638277 24.8921363c-4.8891487-7.3337231-13.6587932.4857344-9.6849859 6.8842376 5.4260991 7.3788588 13.2471936-.400608 9.6849859-6.8842376" fill="#fefefe"/><path d="m36.730853 29.5344656c-2.6138915-3.8145463-9.0329747-.7874181-7.053087 3.6492049 2.756782 5.0065482 9.8019177.9078578 7.053087-3.6492049" fill="#fefefe"/><path d="m43.1104835 39.1041335c-2.6136576-3.8147801-9.0329747-.7874181-7.053087 3.6492049 2.756782 5.0065482 9.8019177.9076239 7.053087-3.6492049" fill="#fefefe"/><path d="m156.778257 62.0060746c8.936623-13.0161366 44.33232-5.8751169 31.917914 12.6071095-11.334892 13.8463517-40.471702 3.3054256-31.917914-12.6071095" fill="#f092b2"/><path d="m184.509571 5.17864242c-.39289.35079514-.796772.68779233-1.212348 1.01099158.272919-.2109448.545838-.42165575.81899-.63260056-1.465154 1.13166511-3.065248 2.07857811-4.768709 2.80402245.32203-.13587465.644294-.27198316.966558-.40785781-1.60711.6777362-3.293967 1.15434986-5.023387 1.38774556.358513-.04817587.717026-.09635173 1.075772-.1445276-1.454163.19059869-2.927035.20743686-4.382133.01707203l1.075772.14476146c-1.241581-.1681478-2.457437-.48666978-3.612488-.97357343.322263.13610851.644293.27198316.966557.40785781-.976847-.41744621-1.897334-.95135641-2.738541-1.60079514.273153.21094481.546072.42188962.81899.63283443-.785313-.6131899-1.48971-1.31945744-2.102432-2.10500468.210945.27291862.421656.5460711.632601.81898971-.690131-.89499532-1.251637-1.87768943-1.691301-2.91838166l.408092.96679139c-.219598-.52689429-.407624-1.06501403-.567587-1.61295603-.287885-.98666979-.967726-1.89663237-1.859682-2.41861553-.464452-.29560337-.966089-.45579981-1.504443-.48012161-.537886-.12043966-1.076006-.09635173-1.613658.0722638-.979186.31688494-1.923994.92376052-2.418615 1.85968194-.504677.95533209-.717727 2.05636109-.407858 3.11810103.778999 2.67025257 2.118335 5.13306834 4.02362 7.16627694 1.793733 1.9139382 4.05449 3.2340972 6.496726 4.1326005.912535.335594 1.861319.570159 2.822966.7109448 1.337465.1957437 2.657857.3479888 4.010056.2960711 2.46796-.0947147 4.965622-.5710945 7.265902-1.4787184 1.489009-.5874649 2.944341-1.2434518 4.307297-2.0853602 1.394995-.8617867 2.713985-1.8741814 3.936155-2.965622.394762-.366464.673527-.8005145.836764-1.30238544.253274-.48222638.369504-1.00187091.348456-1.55893358 0-.99251637-.440832-2.17820393-1.18522-2.86155286-.771281-.70790458-1.783676-1.23362956-2.861553-1.18521983-.358512.04817587-.717025.09635173-1.075771.1445276-.685454.19223573-1.280636.53905519-1.785548 1.04069223" fill="#814f9a"/><path d="m187.750427 44.0182355c-.045369.036015-.091206.0715622-.136576.1075772-.09869.0785781-.0587.1204396.066417-.0502807-.053788.0734332-.169317.1290926-.243451.1847521-.198551.1492049-.398971.2958373-.601497.4398971-.371375.2642657-.749299.5194107-1.132835.7656689-.774555.4969598-1.572497.957203-2.390552 1.3788587-.411131.2118803-.827642.4141722-1.248363.6064079-.203928.0928438-.409728.1819457-.61506.2719832-.167447.0729653.243218-.1007952.074368-.0313377-.055425.0229186-.110617.0458372-.165809.0685219-.124649.0512161-.249298.1014968-.374649.1506081-.861553.3388681-1.739944.635173-2.631197.8856408-.886577.2488307-1.786717.4513564-2.695043.602666-.218662.0364827-.438026.0687559-.65739.1000936-.183582.0264265.278999-.0346118.095183-.0130964-.043967.005145-.087933.0112255-.131899.0163705-.131665.0161365-.26333.0308699-.395463.0446679-.452994.0470065-.90739.0806828-1.362489.1000935-.919317.0397568-1.84144.0215154-2.758185-.0603368-.217493-.0194106-.434284-.0437324-.651076-.0692235-.246024-.0287652.28204.0411599-.03087-.0037418-.129326-.0187091-.258886-.0385875-.387979-.0598691-.445042-.0734331-.887278-.1627689-1.325772-.2684752-.496258-.1195042-.987605-.2600561-1.471936-.4218896-.250234-.0834892-.498597-.1728251-.744855-.2677736-.109916-.0420954-.218896-.0862956-.32811-.1300281-.217026-.0869972.050046.02058.077408.0336763-.066183-.0318054-.135874-.0586997-.203227-.0884003-.976614-.4317119-1.908559-.9565014-2.789523-1.5598691-.583723-.3999064-1.521983-.1286248-1.84565.4838635-.361787.6852198-.138915 1.4188493.484097 1.8454162 3.298878 2.2595884 7.292563 3.3250702 11.272685 3.2836764 4.003976-.0418616 7.943405-1.1304958 11.532039-2.869972 2.008653-.9735734 3.876053-2.1842843 5.624883-3.568522.252573-.1999532.39523-.6478016.39523-.9539289 0-.3306828-.147101-.725912-.39523-.953695-.589803-.5413938-1.314546-.4693639-1.907624 0" fill="#814f9a"/><path d="m187.524562 21.4173c-5.78812-2.4438727-12.141253-3.4602432-18.401543-2.8068288-1.810571.1889617-3.608045.494855-5.373246.9413003-.684051.1730589-1.163003.9761459-.942002 1.659261.228952.7076707.926099 1.1274556 1.659261.9420019.73971-.1868569 1.485032-.3517306 2.235266-.4908793.340973-.0631432.682881-.1213752 1.025725-.1744622.171188-.0266604.342844-.0514499.5145-.0760056.3529-.0507483-.300047.0369504.053788-.0072497.103368-.0128625.206502-.0259589.309636-.0383536 1.480823-.1768008 2.972638-.26029 4.463985-.2516371 1.492282.0084191 2.981057.1134238 4.461646.3007484.252339.0320393-.007484-.0028064-.049345-.0067821.103134.0095884.206501.029233.308933.0442002.171656.0252573.343078.0519177.514266.0795136.37652.0610383.752105.1279233 1.126754.2008887.731759.1421889 1.459308.3075304 2.18101.4953227.805426.2095416 1.603368.4471469 2.392189.7130496.394294.1326005.786249.2726847 1.175632.419551.194808.0734331.388915.1485032.58232.2252104.080449.0322732.160898.0645463.241113.0970534.060804.0245556.489008.2032273.158559.0636108.349158.147334.656689.2413471 1.039289.1358747.31291-.0860618.652012-.3281104.806127-.6197381.304958-.5769411.210244-1.5526193-.483863-1.8456502" fill="#814f9a"/><path d="m158.293341 27.2244797c12.446913-18.51637049 34.648036 1.0346117 24.49392 17.4104303-13.388681 18.4420018-33.629794-.3526661-24.49392-17.4104303" fill="#814f9a"/><path d="m158.182584 24.8921363c4.889148-7.3337231 13.658793.4859682 9.685219 6.8842376-5.426333 7.3788588-13.247193-.400608-9.685219-6.8842376" fill="#fefefe"/><path d="m169.415675 29.5344656c2.613892-3.8145463 9.032975-.787652 7.053087 3.6492049-2.756782 5.0065482-9.801917.9078578-7.053087-3.6492049" fill="#fefefe"/><path d="m163.035928 39.1041335c2.613657-3.8145463 9.032975-.787652 7.053087 3.6492049-2.756782 5.0065482-9.801918.9076239-7.053087-3.6492049" fill="#fefefe"/><path d="m120.599773 89.3785957c-22.1709546 15.3669313-47.4618807-1.457203-42.7242755-26.7892891 9.0561273 8.1503742 23.4462115 5.0095884 26.6363425-6.3940599 3.089336 10.8435454 15.543499 13.7995791 24.352432 8.1295604 2.535781 9.2535079-.908325 19.2086061-8.264499 25.0537886" fill="#f092b2"/><path d="m95.4022515 94.0908033c-2.5717961-.7193639-5.0086529-1.8346585-7.2121141-3.3634237 6.7822731-14.5916745 5.7640318-4.1487372 7.2121141 3.3634237" fill="#fefefe"/><path d="m120.599773 89.3785957c-1.727783 1.3709073-3.967961 2.6922357-6.420721 3.641955 1.53204-8.8044901.768475-14.8393358 6.420721-3.641955" fill="#fefefe"/><path d="m114.625521 81.4699427c-4.607577.6375117-8.155052 3.9967259-8.310337 8.6583255-8.2050981-11.22942-12.0194105-9.5986903-23.6478015-4.8079981 9.4876052 13.3760524 32.1384475 12.8297474 42.0058465-.1145931-2.581151-2.6765669-6.281338-4.2663704-10.047708-3.7357343" fill="#e76698"/><path d="m92.9203058 66.8338342c-5.2640318 21.7093078-6.8877456 13.8713751-10.2967727-1.1690833 3.1927034 1.429841 6.8706735 1.8257718 10.2967727 1.1690833" fill="#fefefe"/><path d="m126.292312 65.7097463c-4.602198 22.1838166-6.275257 16.1054724-10.287652 1.106174 3.408092.6744621 7.086296.2967726 10.287652-1.106174" fill="#fefefe"/><path d="m69.0389447 49.5309109c.941768 4.3985033 2.8659962 8.5909729 5.8468194 11.9822264 2.4913471 2.8344247 5.7427503 5.0070159 9.345884 6.1445276 3.2972404 1.0406922 6.9244622 1.1658091 10.2588868.2163236 3.4833957-.9922825 6.4611791-3.1251169 8.6323671-6.0058465 2.54116-3.371609 3.663704-7.6241815 3.909962-11.7864827.034378-.5811506.050281-1.1634706.050984-1.7455566.000934-.7057998-.621143-1.381899-1.348926-1.3491581-.731525.0329747-1.347755.5926099-1.348924 1.3491581-.001637 1.1606641-.065014 2.3210944-.208372 3.4733395-.008419.0671188-.017774.1340038-.025725.2013564.055191-.4539289.025491-.1922357.011225-.0928437-.018709.1318989-.038821.2633302-.059635.3947614-.043265.268943-.090739.5371843-.142891.8047241-.099392.5074836-.215388 1.0112254-.349392 1.5105238-.126286.4693639-.268475.9342844-.427736 1.3935922-.077175.2228718-.158325.4445743-.243919.6646398-.042096.1087465-.085127.2165575-.129093.3243686-.021983.0535547-.045603.1064078-.066417.1601964.173527-.4466791.066417-.1583255.022451-.0579981-.356174.8124415-.771516 1.5989242-1.247895 2.3472872-.237372.373246-.491581.734565-.756782 1.0881665-.185454.2471936.215855-.27058.019176-.0254911-.065014.0811506-.12956.1620673-.19551.2422825-.141721.1718896-.287184.3409729-.436155.5065482-.5486434.6099158-1.1466322 1.1753975-1.7876518 1.686623-.0900374.0720299-.3709074.2694106.0397568-.0285314-.0797474.0577643-.1569224.1190365-.2362021.1772685-.1709541.1255847-.3449485.2474275-.5215154.3655285-.3231993.2163237-.6552853.4200188-.994855.6101497-.3514967.1964453-.7109448.3788588-1.0771749.5460711-.0731993.0332086-.1463985.0659495-.2200655.0982226-.0442002.0191768-.0888681.0374182-.1328345.0570627.4366231-.1955098.2441535-.1017306.1445276-.0617399-.193405.0778765-.3872778.154116-.5834892.2252105-.7390084.2675397-1.4988307.4768475-2.2701123.6276894-.1735266.0339102-.3477549.065014-.5224508.0930776-.0954163.0152012-.1910665.0287652-.2864827.0432648-.2198317.0334424.3875117-.0488775.1669784-.0222171-.0640785.0077175-.1281571.0161366-.1922357.0236202-.3854069.0451357-.7726847.0762395-1.1604303.0933115-.7998129.0350796-1.6021983.0114594-2.3985033-.0687558-.0984565-.0098223-.196913-.02058-.2951356-.0322732-.128391-.0149672-.5271282-.0825537.0144995.0042096-.1964453-.0315716-.3935921-.058232-.5898035-.0923761-.4113658-.0713283-.8201591-.1580916-1.2254444-.2586529-.7911599-.1966791-1.5682881-.4476146-2.3255379-.7488307-.095884-.0381197-.1908325-.0795136-.2869504-.1169317.4873714.1894294.1021983.0425631-.0107577-.0072498-.2065014-.090739-.4113658-.1856875-.6143592-.2839102-.3788588-.1835828-.7514032-.3797942-1.1171656-.5881665-.7652011-.4356875-1.4918148-.92797-2.1955098-1.4567352-.1847521-.1386811.2806361.2217025.0998597.076941-.0430309-.034144-.0862956-.0678204-.1293265-.1019644-.0717961-.0570627-.1433583-.1145931-.2142189-.1728251-.1859214-.1522451-.3692703-.3077643-.549579-.4665575-.3376988-.2970066-.6655753-.6052386-.982928-.9239944-.3376988-.3386343-.6634705-.6889617-.9770814-1.0498129-.1403181-.1611319-.2780636-.3248363-.4134705-.4901778-.0743686-.090739-.1480356-.1824134-.221001-.2743218-.0367165-.0465388-.0724976-.0933115-.1092142-.1393826.2934986.3673995.094247.1220767.0306361.0381198-.6000935-.7925632-1.1463985-1.6253508-1.6382133-2.4892423-.2504677-.4398971-.4869036-.8882133-.7093077-1.3430776-.1134238-.2324603-.2233396-.4665576-.3297475-.7022919-.0537885-.1192704-.1066417-.2385407-.1583255-.3585126-.0383536-.0886343-.1340037-.327175.0327409.0802151-.0250234-.0612722-.0509822-.1220767-.0760056-.1828812-.424696-1.0322731-.782507-2.0919083-1.0778765-3.1679139-.1520113-.5542563-.2867166-1.1131899-.4069224-1.6751637-.1480355-.6908326-.9939195-1.157624-1.6594949-.9422358-.7282507.2357344-1.1005612.9190833-.9420018 1.6594949" fill="#814f9a"/><path d="m137.374562 48.8135816c-.23971 1.1276894-.540458 2.2422825-.912067 3.333957-.176801.5191768-.369271 1.0327409-.578111 1.5399906-.020814.0507484-.042797.1012629-.063377.1522451.165108-.4078578.071563-.1690832.033209-.080449-.051684.1202058-.104303.23971-.157858.3589804-.114827.2549111-.233863.5081852-.357109.7595884-.448784.9139382-.954397 1.8000467-1.517306 2.6485032-.265201.3996726-.543265.79116-.833489 1.1728251-.060103.0790458-.212348.2647334.066417-.0853601-.036483.0463049-.072498.0930776-.108981.1391487-.072965.0921422-.146398.1835828-.220767.2745557-.147567.1803087-.297942.3582787-.451122.5336763-.609682.6978484-1.265201 1.3559401-1.962582 1.9660898-.166745.1459308-.335828.289289-.507484.4296071-.07086.0579981-.142189.1155285-.213985.1725912-.043031.0343779-.086529.0678204-.129326.1021983-.17189.1372778.310337-.2347989.056361-.0439663-.361085.2717493-.728017.5343779-1.105473.7822731-.708138.4649205-1.446913.8840038-2.210477 1.2509355-.187792.0902713-.376987.1772685-.567586.2609916-.047241.0210477-.094949.0411599-.142423.0622077-.206735.0912067.340739-.1407858.131665-.0554257-.111553.0456034-.222872.0916745-.334892.1356408-.381198.1503742-.767072.2878859-1.157624.4120674-.78391.2497661-1.584893.4455098-2.395931.5839569-.179841.0306361-.360617.0549579-.540926.0834893.542095-.0860618.142657-.0191768.014266-.0042096-.114593.013798-.22942.0259589-.344247.0369505-.391955.0381197-.78508.0626753-1.178672.0731992-.795136.0215154-1.591908-.0144995-2.381665-.1094481-.048176-.0056127-.096118-.0121609-.14406-.0177736-.220767-.0266604.386342.0554256.166745.022217-.095651-.0147334-.191301-.0282974-.286951-.0434986-.190598-.0308699-.380496-.0647801-.570159-.1024322-.393592-.0783442-.784378-.1718896-1.17072-.2806361-.370674-.104303-.737372-.2226379-1.099158-.3547708-.181011-.0661833-.359916-.1368101-.538588-.20884-.099626-.0402245-.292329-.1337699.144294.0617399-.043966-.0196445-.088634-.0378858-.132834-.0572965-.088401-.0385875-.176333-.0781104-.264032-.1183349-.7203-.3313845-1.413471-.7205332-2.070861-1.1634705-.162769-.1094481-.323199-.2224041-.481291-.3384004-.079279-.058232-.156688-.1195042-.236436-.1770346.417213.3016838.097989.0755379.000936-.0023387-.324135-.2600561-.637044-.5339101-.938026-.8199251-.293967-.2797007-.576474-.5713284-.847054-.8737138-.137278-.1534144-.271281-.3094013-.402245-.4684284-.066183-.0799813-.131197-.1606642-.195743-.2420486-.026895-.0339102-.053321-.068522-.080449-.1024322-.071329-.0900374.240879.3189897.06782.0862956-.525491-.7069692-.999766-1.446913-1.411834-2.2259121-.210711-.3987371-.405986-.8054256-.586061-1.21913-.023153-.0523854-.044201-.106174-.068055-.1583256.189898.4139383.085594.2050983.047007.1089804-.043499-.1080449-.087231-.2156221-.129327-.3241347-.092609-.2385407-.180542-.4789523-.263797-.7207671-.322732-.9394294-.574837-1.9027128-.764266-2.8776894-.049813-.256782-.095183-.5142657-.136576-.7726848-.021048-.1311973-.040926-.2628624-.059869-.3942937-.014266-.0996258-.044201-.3610851.011459.0926099-.010992-.0895697-.023386-.1786716-.034144-.2680075-.067119-.5514499-.116464-1.1050046-.149205-1.659261-.034378-.5809167-.050047-1.1627689-.050748-1.7446211-.000702-.7057998-.619738-1.3816651-1.348925-1.3491581-.730121.0327409-1.349859.5928438-1.348925 1.3491581.00538 4.3426099.893359 8.8264733 3.266839 12.5240879 1.97334 3.0741347 4.851965 5.4101965 8.283677 6.6648738 3.244387 1.1859214 6.856875 1.2602899 10.196445.4420018 3.616932-.8861085 6.94434-2.861319 9.565482-5.4922825 3.083723-3.0956501 5.183582-7.0720299 6.32811-11.2689429.15131-.5542563.28508-1.1129561.404584-1.6749299.146164-.6884939-.202994-1.4911132-.942236-1.659261-.677502-.1543498-1.502572.203929-1.659261.9420019" fill="#814f9a"/><path d="m123.594885 34.8063085c-3.09261-4.1403181-8.962348-5.6992517-15.003508-5.6124883-18.6241816.8596819-34.5376522 9.0292329-15.1204398 22.8959307 7.8538358 6.3552386 15.2376048 7.308232 22.1265198 1.4338167 5.332788-4.5203461 11.787652-13.28087 7.997428-18.7172591" fill="#814f9a"/><path d="m95.4022515 94.0908033c-2.5717961-.7193639-5.0086529-1.8346585-7.2121141-3.3634237 6.7822731-14.5916745 5.7640318-4.1487372 7.2121141 3.3634237" fill="#fefefe"/><path d="m120.599773 89.3785957c-1.727783 1.3709073-3.967961 2.6922357-6.420721 3.641955 1.53204-8.8044901.768475-14.8393358 6.420721-3.641955" fill="#fefefe"/><g fill="#814f9a"><path d="m81.5847819 53.8322673c-4.5434986 1.8110384-9.1202058 3.5381197-13.7282507 5.1782039-4.607811 1.6396165-9.2467259 3.1931712-13.9127689 4.6590272-4.6662769 1.4660898-9.3599158 2.8449485-14.0778766 4.1347053-4.7177268 1.2902245-9.4597754 2.4920486-14.2226379 3.6043031-4.7406455 1.1073433-9.5018709 2.1260524-14.2806361 3.0551918-.6057063.1178671-1.2118803.2340972-1.8180543.349158-.3580449.0678204-.56197381.4990646-.47100094.8297475.10313377.374883.47053321.5388213.82951357.470767 4.80542567-.9113657 9.59401307-1.9118334 14.36178667-3.0023386 4.7680075-1.0909729 9.515435-2.2708138 14.2390085-3.5395229 4.7238073-1.2687091 9.4237605-2.6260524 14.0963517-4.0706268 4.6728251-1.4448082 9.3187558-2.9770814 13.9340505-4.595884 4.5937792-1.611319 9.157624-3.308232 13.6877923-5.0902713.5743686-.225912 1.1480356-.4532273 1.7212348-.6817118.3381665-.1349392.5753041-.4506548.4712348-.8295136-.0884003-.3215622-.4894761-.6068756-.8297474-.4712348"/><path d="m79.6380326 49.7497135c-8.5781104 1.0163705-17.1435921 2.1389149-25.6938728 3.3671656-8.5329747 1.2261459-17.0509822 2.5584658-25.5512161 3.9969598-4.7598222.8056595-9.5142656 1.6445276-14.2623947 2.5161365-.3587465.0657157-.56174.5004678-.4712348.8297475.1036015.3767539.4700655.5371843.8297474.4712348 8.4368569-1.5488775 16.8924228-2.9939196 25.3650608-4.3334893 8.455566-1.3367633 16.9275024-2.5696913 25.4137044-3.6952759 4.7857811-.6344715 9.5760056-1.2357344 14.3702058-1.8035548.3615529-.0430308.6744621-.2794667.6744621-.6744621 0-.3313844-.3103367-.7177268-.6744621-.6744621"/><path d="m81.2032571 45.3513038c-7.0734331-1.7195978-14.1938728-3.2436857-21.3519644-4.5673527-2.034378-.3762862-4.0717961-.7359682-6.1117868-1.0802151-.3587464-.0605707-.7263797.0947147-.8295135.4712348-.089102.3234331.1096819.7684752.4710009.8295135 7.1779701 1.2111787 14.32203 2.6202058 21.4216558 4.2284846 2.0177736.4569691 4.0318054.9305426 6.0420954 1.4190833.8430776.2048643 1.2029934-1.0954163.3585126-1.3007484"/><path d="m124.893131 55.1328987c4.543498 1.8110384 9.120206 3.5383536 13.728251 5.178204 4.607811 1.6398503 9.246725 3.193405 13.912768 4.659261 4.666277 1.4660898 9.359916 2.8447146 14.077877 4.1347053 4.717727 1.2902245 9.459775 2.4918148 14.222638 3.6043031 4.740645 1.1073433 9.501871 2.1258185 14.280636 3.0551917.605706.1178672 1.21188.2340973 1.818054.3489243.357578.0678204.727549-.0998597.829514-.471001.090739-.3295135-.111319-.7614593-.471001-.8297474-4.805426-.9115996-9.593779-1.9118335-14.361787-3.0025725-4.767773-1.090739-9.515201-2.2708138-14.239008-3.5395229-4.723574-1.2687091-9.423527-2.6258185-14.096352-4.0706268-4.672825-1.4445743-9.318522-2.9768475-13.93405-4.595884-4.59378-1.611319-9.15739-3.308232-13.687793-5.0900374-.574368-.225912-1.148035-.4534612-1.721235-.6819457-.3384-.1349392-.740645.1475678-.829513.4712348-.105473.3840037.131197.6941066.471001.8295135"/><path d="m127.198533 51.0985442c8.501169 1.0074836 16.98971 2.1192703 25.46305 3.3374649 8.490411 1.221001 16.965622 2.5472404 25.423059 3.9784846 4.760056.8056595 9.514265 1.6445276 14.262862 2.5163704.357811.0654818.727081-.0984565.829514-.4712348.090037-.3276426-.110852-.7633302-.471001-.8297474-8.479186-1.5563611-16.977549-3.0081852-25.492751-4.3531338-8.532273-1.3477549-17.081618-2.5876988-25.644761-3.7233395-4.785781-.6349392-9.575772-1.2357344-14.369972-1.8037886-.362254-.042797-.674462.340739-.674462.6744621 0 .4001403.311038.6314312.674462.6744621"/><path d="m125.991868 46.6519352c7.073433-1.7193639 14.193873-3.2436857 21.351964-4.5673526 2.034378-.3760524 4.071563-.7359682 6.111787-1.0799813.359448-.0608045.560571-.5042096.471001-.8297475-.104771-.3807296-.46913-.5318054-.829747-.4710009-7.17797 1.2109448-14.32203 2.6202058-21.421656 4.2284846-2.017774.4569691-4.031806.9303087-6.042096 1.4188494-.843077.2050982-.485968 1.5060804.358747 1.3007483"/></g><g fill="#956dac" transform="translate(20.901012 31.988652)"><path d="m3.28412067 33.5733396c-1.30191768 0-1.30425631 2.0233863 0 2.0233863 1.30168382 0 1.30402245-2.0233863 0-2.0233863"/><path d="m11.3199719 27.793218c-1.3019176 0-1.3042563 2.0231524 0 2.0231524 1.3019177 0 1.3040225-2.0231524 0-2.0231524"/><path d="m13.5755847 34.0458606c1.3019176 0 1.3042563-2.0231525 0-2.0231525-1.3019177 0-1.3042564 2.0231525 0 2.0231525"/><path d="m14.0089336 41.6235734c-1.7673059-1.6948082-2.6894294 3.344247.1585594 1.3676333-.0872311-.1389148.5007016-.2539756-.1585594-1.3676333"/><path d="m22.7394294 30.8946445c-1.3019177 0-1.3040225 2.0233864 0 2.0233864 1.3019177 0 1.3042563-2.0233864 0-2.0233864"/><path d="m24.0083255 26.9472872c-1.3019176 0-1.3042563 2.0231525 0 2.0231525 1.3019177 0 1.3040225-2.0231525 0-2.0231525"/><path d="m31.762348 28.0750234c-1.3019177 0-1.3040225 2.0231525 0 2.0231525 1.3019177 0 1.3040224-2.0231525 0-2.0231525"/><path d="m33.0311272 15.8097521c-1.3019177 0-1.3040224 2.0231525 0 2.0231525 1.3019177 0 1.3042563-2.0231525 0-2.0231525"/><path d="m48.6800982 14.2588167c-1.3019177 0-1.3042563 2.0233863 0 2.0233863 1.3019177 0 1.3040225-2.0233863 0-2.0233863"/><path d="m57.843826 11.4392189c-1.3019177 0-1.3040224 2.0233863 0 2.0233863 1.3019177 0 1.3042563-2.0233863 0-2.0233863"/><path d="m51.3586763 8.9015435c-1.3019176 0-1.3040224 2.0233863 0 2.0233863 1.3019177 0 1.3042563-2.0233863 0-2.0233863"/><path d="m44.3200655 12.5813611c-1.9415342-1.7759589-2.8540692 3.421188.2095416 1.1059401-.0909729-.1492048.412769-.116464-.2095416-1.1059401"/><path d="m63.7650842 29.202783c-1.3019177 0-1.3042563 2.0233863 0 2.0233863 1.3019177 0 1.3040224-2.0233863 0-2.0233863"/><path d="m63.4831618 27.9836763c2.7132835.0724977-.3241347-4.2268475-.9761459-.7429841.1819457.0486436-.2352666.4413003.9761459.7429841"/><path d="m69.6863658 25.678391c-1.3019177 0-1.3042564 2.0231525 0 2.0231525 1.3019176 0 1.3040224-2.0231525 0-2.0231525"/><path d="m65.5978718 20.4619036c-1.3019176 0-1.3040224 2.0233864 0 2.0233864 1.3019177 0 1.3042564-2.0233864 0-2.0233864"/><path d="m164.98992 33.5733396c-1.301917 0-1.304022 2.0233863 0 2.0233863 1.301918 0 1.304257-2.0233863 0-2.0233863"/><path d="m156.954069 27.793218c-1.301917 0-1.304256 2.0231524 0 2.0231524 1.301918 0 1.304023-2.0231524 0-2.0231524"/><path d="m154.69834 32.0226146c-1.301918 0-1.304257 2.0231525 0 2.0231525 1.301917 0 1.304022-2.0231525 0-2.0231525"/><path d="m155.69558 41.6235734c-1.76754-1.6948082-2.689196 3.3444809.158326 1.3676333-.086998-.1389148.500701-.2537418-.158326-1.3676333"/><path d="m145.534495 30.8946445c-1.301918 0-1.304256 2.0233864 0 2.0233864 1.301918 0 1.304022-2.0233864 0-2.0233864"/><path d="m144.265716 26.9472872c-1.301918 0-1.304257 2.0231525 0 2.0231525 1.301917 0 1.304022-2.0231525 0-2.0231525"/><path d="m136.511693 28.0750234c-1.301918 0-1.304256 2.0231525 0 2.0231525 1.301918 0 1.304023-2.0231525 0-2.0231525"/><path d="m135.242797 15.8097521c-1.301684 0-1.304022 2.0231525 0 2.0231525 1.301918 0 1.304022-2.0231525 0-2.0231525"/><path d="m119.593943 14.2588167c-1.301918 0-1.304256 2.0233863 0 2.0233863 1.301918 0 1.304022-2.0233863 0-2.0233863"/><path d="m110.430098 11.4392189c-1.301917 0-1.304022 2.0233863 0 2.0233863 1.301918 0 1.304023-2.0233863 0-2.0233863"/><path d="m116.915131 8.9015435c-1.301684 0-1.304022 2.0233863 0 2.0233863 1.301918 0 1.304256-2.0233863 0-2.0233863"/><path d="m125.525468 12.5813611c-1.941768-1.7759589-2.853836 3.421188.209541 1.1059401-.090973-.1492048.412769-.1162301-.209541-1.1059401"/><path d="m104.50884 29.202783c-1.301918 0-1.304022 2.0233863 0 2.0233863 1.301918 0 1.304022-2.0233863 0-2.0233863"/><path d="m105.506057 26.2566417c-1.942002-1.7759588-2.853835 3.421188.209542 1.1059402-.090739-.1494388.412769-.1166979-.209542-1.1059402"/><path d="m98.5875585 25.678391c-1.3019177 0-1.3040225 2.0231525 0 2.0231525 1.3019176 0 1.3040224-2.0231525 0-2.0231525"/><path d="m102.676052 20.4619036c-1.301917 0-1.304022 2.0233864 0 2.0233864 1.301918 0 1.304023-2.0233864 0-2.0233864"/><path d="m18.228087 29.2582788c-.8678672 0-.8695042 1.3489242 0 1.3489242.8678672 0 .8692703-1.3489242 0-1.3489242"/><path d="m9.82315248 38.3376052c-1.35874649-1.2004209-1.96445276 2.2986436.13961646.7371376-.00116931-.1601965.20696916-.3019177-.13961646-.7371376"/><path d="m14.1395697 36.1663938c-.8678672 0-.8692704 1.3489243 0 1.3489243.8678672 0 .8695042-1.3489243 0-1.3489243"/><path d="m9.34616464 33.4267072c.86786716 0 .86950416-1.3489242 0-1.3489242-.86786717 0-.86927035 1.3489242 0 1.3489242"/><path d="m40.080145 23.3370206c-.8678672 0-.8695042 1.3489242 0 1.3489242.8678672 0 .8695042-1.3489242 0-1.3489242"/><path d="m39.7981993 15.442072c-.8678672 0-.8692704 1.3489243 0 1.3489243.8678671 0 .8695042-1.3489243 0-1.3489243"/><path d="m55.5882133 5.00921422c-.8678672 0-.8695042 1.34892423 0 1.34892423.8678671 0 .8695042-1.34892423 0-1.34892423"/><path d="m63.0601964 1.56475678c.8678672 0 .8692704-1.34892423 0-1.34892423-.8678671 0-.8692703 1.34892423 0 1.34892423"/><path d="m60.522521 14.737044c-.8678671 0-.8692703 1.3489242 0 1.3489242.8678672 0 .8695043-1.3489242 0-1.3489242"/><path d="m106.623644 16.1468428c-.868101 0-.869505 1.3491581 0 1.3491581.867867 0 .86927-1.3491581 0-1.3491581"/><path d="m107.751403 6.13709074c-.867867 0-.869504 1.34892423 0 1.34892423.867867 0 .869504-1.34892423 0-1.34892423"/><path d="m107.187418 2.41068756c.867867 0 .869504-1.34892423 0-1.34892423-.867867 0-.869504 1.34892423 0 1.34892423"/><path d="m113.954607 13.8911132c-.867867 0-.869504 1.3489242 0 1.3489242.867867 0 .869504-1.3489242 0-1.3489242"/><path d="m125.93805 10.64855c-.867868 0-.869505 1.3489243 0 1.3489243.867867 0 .86927-1.3489243 0-1.3489243"/><path d="m128.193779 23.9008887c-.868101 0-.869504 1.3489242 0 1.3489242.867867 0 .869271-1.3489242 0-1.3489242"/><path d="m129.03971 15.7239008c-.868101 0-.869504 1.3489243 0 1.3489243.867867 0 .86927-1.3489243 0-1.3489243"/><path d="m141.023036 23.618826c-.867868 0-.869271 1.3489242 0 1.3489242.867867 0 .86927-1.3489242 0-1.3489242"/><path d="m139.190388 39.2678204c-.868101 0-.869504 1.3491581 0 1.3491581.867867 0 .869271-1.3491581 0-1.3491581"/><path d="m148.07217 35.0384004c-.868101 0-.86927 1.3489242 0 1.3489242.867867 0 .869504-1.3489242 0-1.3489242"/><path d="m151.737699 27.8484799c-.868101 0-.869504 1.3489242 0 1.3489242.867867 0 .86927-1.3489242 0-1.3489242"/><path d="m159.632647 37.1532273c-.867867 0-.869504 1.3489242 0 1.3489242.867867 0 .869271-1.3489242 0-1.3489242"/><path d="m160.760524 32.0778765c-.867867 0-.86927 1.3489242 0 1.3489242.867867 0 .869504-1.3489242 0-1.3489242"/><path d="m163.950912 25.0204163c.001871-.0577643.013096-.1152947 0-.1732928-.003508.0318054.023854.028999 0 .1732928m-.21305.3040224c-.034144.0142657-.068521.0289991-.102899.0432648.055191-.0149673.100561-.046305.146398-.077175-.014499.0114593-.028999.0226848-.043499.0339102m.366231-.5100561c.015435-2.0486436-3.164874.7822732-.463284.7659027.098223-.0790458.362956-.3318522.463284-.7659027"/><path d="m169.501286 31.3728718c-.867867 0-.86927 1.3491581 0 1.3491581.868101 0 .869504-1.3491581 0-1.3491581"/><path d="m170.629139 37.1532273c-.867867 0-.86927 1.3489242 0 1.3489242.868101 0 .869505-1.3489242 0-1.3489242"/><path d="m2.57897568 40.9596819c-.8676333 0-.86927035 1.3489243 0 1.3489243.86810103 0 .86950421-1.3489243 0-1.3489243"/><path d="m6.1036015 28.6941768c-.86810103 0-.86927035 1.3489242 0 1.3489242.86786716 0 .86927034-1.3489242 0-1.3489242"/><path d="m.74632834 29.2582788c-.86786716 0-.86950421 1.3489242 0 1.3489242.86786717 0 .86950421-1.3489242 0-1.3489242"/><path d="m1.31031338 23.7597521c-.86810103 0-.86950421 1.3489242 0 1.3489242.86786716 0 .86927034-1.3489242 0-1.3489242"/></g><path d="m207.724983 30.7961588c-1.173994-2.313377-4.292329-2.8608513-6.521749-.8634238-.797942-6.2399438-8.750702-4.0933115-8.880028 1.2139851-.383069 4.1503741 2.500467 7.6784378 5.212114 10.7434518 1.339803.4684284 3.65739-1.3414406 5.232928-2.0287652 3.367165-1.6211413 6.813611-5.179841 4.956735-9.0652479" fill="#f092b2"/><path d="m13.5859045 47.5549521c-1.1003275-.950421-3.0355473-.827175-3.97404121.9908793-1.70837231-3.2738541-6.03624883-.5423293-4.84892423 2.7883536 1.19691301 3.0079513 5.67422824 7.1127222 7.86131904 2.8021515 1.640318-1.7579513 2.9906454-4.5809167.9616464-6.5813844" fill="#80cde7"/><path d="m10.2198848 20.4507893c-1.24532273-1.0762395-3.43592142-.9363892-4.49836295 1.121609-2.1202058-3.8531338-6.88821328-.398971-5.45860617 3.2539756 1.5645463 3.5488775 6.46983161 7.8779233 8.95088868 2.9742751 1.76052384-1.9085594 3.30823194-5.1099158 1.00608044-7.3498597" fill="#fbdbc0"/></g></svg>