<svg height="94" viewBox="0 0 238 94" width="238" xmlns="http://www.w3.org/2000/svg"><g fill="none" fill-rule="evenodd"><path d="m146.685884 28.8564781c-18.068054 2.0467727-37.175164 2.6826473-54.9359213 5.9791861-3.8362956 1.5280637 2.4038821 5.2097755 3.7871843 6.7420487 7.9855 6.4890084 19.217259 10.434986 28.132834 9.409261 7.078345.1800748 29.422358-21.9950889 23.015903-22.1304958" fill="#814f9a"/><path d="m200.661071 29.5722405c-8.182413-14.4745089-42.511459-10.2015903-40.897801 7.7107109 3.47521 22.9253976 52.723573 16.4773153 40.897801-7.7107109" fill="#f092b2"/><path d="m78.4237934 34.34703c-8.1821796-14.474275-42.5119271-10.2013564-40.8978017 7.7107109 3.4749766 22.9253976 52.7235734 16.4775492 40.8978017-7.7107109" fill="#f092b2"/><g fill="#814f9a"><path d="m66.4810197 45.6642891c.9183817 5.3376988 4.2605239 9.8594481 8.1412536 13.4810571 1.996492 1.862956 4.1648737 3.5399906 6.3830682 5.1297942 1.9174463 1.3737137 3.8739477 2.6765669 5.9270347 3.8388681 3.8068288 2.1552853 7.8538353 3.9045837 12.0196445 5.2373714 4.1417213 1.3248363 8.4073903 2.2109448 12.7247423 2.7151543 4.201591.4911132 8.450889.5809168 12.668616.2570159 4.192236-.3222638 8.365295-1.0289991 12.413237-2.1716557 3.943639-1.1131899 7.788119-2.6400842 11.398737-4.5809168 3.537652-1.9015435 6.858045-4.2312909 9.825304-6.9401309 2.981758-2.7224042 5.597287-5.8650609 7.723105-9.2986436 2.207203-3.5652479 3.881666-7.4756782 4.986904-11.518943.281104-1.027362.52362-2.0647801.733396-3.1089803.143124-.7137512-.204865-1.4567353-.942002-1.659261-.665108-.1828812-1.515435.2245089-1.659495.9420018-.414406 2.063377-.963049 4.0986904-1.66043 6.0846586-.172825.4920487-.354303.9805893-.544902 1.4658559-.087231.2221703-.176333.4438728-.267306.6646399-.032273.0781104-.138447.3299813-.047708.1169317-.05449.1274556-.109214.2544434-.164406.3814313-.400374.9158091-.833022 1.8173526-1.297474 2.7022918-.920487 1.7537418-1.965856 3.4413003-3.126053 5.046305-.134003.1849859-.26941.3692703-.40622.5521515-.068289.0909729-.137044.1819458-.206034.2731525-.034144.0453695-.069224.0902713-.103602.1358746.075538-.0989242.081619-.104303.001871-.0028063-.304958.3872778-.61319.7717493-.930075 1.1494387-.619036.7387746-1.26333 1.4565014-1.93101 2.1515435-1.333021 1.3884472-2.758185 2.6873246-4.259354 3.8912535-.176801.1417213-.355239.2820393-.533911.4216558-.120439.0942469.034612-.0266605.048878-.0374182-.044902.0343779-.089804.0689897-.135173.1031338-.120206.0916745-.240879.1828812-.362021.2733863-.379092.2832086-.762161.5605707-1.149672.83232-.79233.5556595-1.601965 1.0869972-2.426333 1.5940131-1.660898 1.0215154-3.382601 1.9443405-5.149439 2.7694106-.453695.2116464-.91043.4169785-1.369738.6162301-.106174.0458373-.212816.0912068-.319224.1365763-.142656.0612722.03812-.0156689.055426-.0229186-.053321.022217-.106876.0446679-.160197.0668849-.232226.095884-.46492.1910664-.698316.2843779-.937558.3744154-1.885407.7231057-2.841674 1.0460711-1.89406.6400842-3.82203 1.1800749-5.771516 1.6234799-.983863.2238073-1.973105.4228251-2.966791.5975211-.489242.0862956-.979654.1662769-1.470767.2408793-.256081.0388213-.512395.0755379-.768475.111319-.059168.0084191-.118569.0166043-.177736.0245556.019176-.0028063.221468-.0292329.062207-.0086529-.138681.0177736-.277128.0357811-.415809.0528531-4.079747.5072498-8.207905.6183349-12.309869.3486904-1.036015-.0680543-2.070393-.1606642-3.101964-.277362-.263331-.0297007-.526661-.0612723-.789757-.0940131-.121609-.015435-.242984-.0311039-.364593-.0467727-.018242-.0023386-.220066-.0294668-.063377-.0084191.15622.0212816-.097521-.0133302-.124182-.0173059-.526193-.0739008-1.051684-.1529467-1.576239-.2387745-2.063611-.3386343-4.111319-.7747896-6.133302-1.3084659-2.03087-.536015-4.0357815-1.1704864-6.0044438-1.9029467-.5030403-.1870907-1.0039757-.3807296-1.5021048-.580449-.2301216-.0926099-.4595416-.186623-.6884939-.2811038-.0572966-.0238541-.1145931-.047942-.1718896-.0715622.022217.0091206.1800748.0762394.0367165.0152011-.133536-.0563611-.2663704-.1134238-.3992048-.1707203-.9691301-.419551-1.9275024-.8636576-2.8737138-1.3318522-4.0979888-2.0289991-8.0767072-4.6480356-11.5643124-7.4094949-2.0509823-1.6237137-4.0126287-3.3774555-5.7378391-5.3484565-.849392-.9702993-1.4901778-1.8023854-2.1983162-2.9055192-.3344247-.5215154-.6485033-1.0561272-.9375585-1.6036014-.2609916-.4946212-.5912067-1.1948083-.734565-1.5577643-.4581385-1.1604303-.7986436-2.3578111-1.01029-3.5874649-.1234799-.7186623-1.0065482-1.121609-1.659261-.9422358-.7598222.2088401-1.0659495.9387278-.9420019 1.659261"/><path d="m66.3419178 21.6651778c-3.1580917-10.3472872-13.9988307-3.9773152-11.1244154 4.7364359 4.1468663 9.7188962 13.4415342 3.6770346 11.1244154-4.7364359"/><path d="m183.795496 21.6651778c-3.157858-10.3472872-13.998831-3.9773152-11.124415 4.7364359 4.146866 9.7188962 13.441534 3.6772685 11.124415-4.7364359"/><path d="m70.7903509 38.4357578c-4.7179607 1.7560804-9.397334 3.6141253-14.0416277 5.5561272-4.6772685 1.955566-9.3203929 3.9920487-13.9340505 6.0928438-4.583957 2.0865295-9.1391487 4.2352666-13.6744621 6.4253976-4.5577643 2.2011225-9.0949486 4.4441066-13.6211413 6.7093077-4.5056127 2.2549112-9.00023384 4.5315716-13.49368566 6.8108045-.56127222.2846118-1.12301217.5696913-1.68428438.854537-.77455566.3928905-.09260992 1.5568288.68077642 1.1646398 4.4929841-2.2794668 8.98596822-4.5586997 13.48877452-6.818522 4.4833957-2.2502338 8.9763798-4.481057 13.4885407-6.6735266 4.5304023-2.2011226 9.0799813-4.3634238 13.6566885-6.4665576 4.5535547-2.0928437 9.1342376-4.1267539 13.7488307-6.0816183 4.6223106-1.9583723 9.2806361-3.8337231 13.9761459-5.6096819.5886343-.222638 1.178204-.4434051 1.7680075-.6630029.3412068-.1269878.573667-.4565014.471001-.8297474-.0900375-.3281104-.486436-.5986903-.8295136-.4710009"/><path d="m71.3060431 43.4985267c-3.6910664 2.2366698-7.3496258 4.527362-10.9728718 6.8723106-3.6082788 2.3348924-7.1817119 4.7231057-10.7195978 7.1634705-3.5526192 2.450421-7.0689897 4.9536951-10.5474742 7.5084191-3.4808232 2.556595-6.9235267 5.1651076-10.3281104 7.8220299-3.4022451 2.6555192-6.765435 5.3610852-10.0874649 8.1162302-.4066885.337231-.8124416.6749298-1.2177269 1.013564-.2799345.2336296-.2415809.7125819 0 .9536951.2766604.2771281.6732928.2343311.953695 0 3.2984098-2.7549111 6.637044-5.4618803 10.0152012-8.1185688 3.3615528-2.6440598 6.7630963-5.2369036 10.2015902-7.7794668 3.4410665-2.544434 6.9193172-5.0383536 10.4335828-7.4805893 3.5289991-2.4527596 7.094247-4.8531338 10.6943405-7.2006548 3.5998597-2.3475211 7.2343312-4.6419551 10.9020113-6.8821328.4508886-.2754912.9020112-.549813 1.3536015-.823667.7415809-.4490178.0643124-1.6162301-.6807765-1.1646399"/><path d="m73.9555052 45.999088c-3.0610383 2.854537-6.090739 5.7427502-9.0874649 8.6646399-2.9969598 2.9218896-5.9611786 5.8772217-8.8919551 8.8650608-2.9438728 3.0011693-5.8540692 6.0353133-8.7301216 9.1017305-2.8631899 3.0528532-5.6924696 6.1375117-8.4869036 9.2532741-2.7946679 3.1162302-5.5544902 6.2630964-8.2785314 9.4405987-.3362956.3919551-.6716557.7843779-1.006782 1.1772685-.2362021.2768943-.2717493.6819457 0 .953695.2420486.2420487.7163237.2782975.9539289 0 2.7158559-3.1845182 5.4665575-6.3395697 8.2525725-9.4632834 2.786015-3.1234799 5.6068756-6.2160898 8.4616464-9.2766604 2.8673994-3.0741347 5.7694107-6.1162302 8.7048644-9.1253508 2.9225912-2.9962582 5.8788587-5.9595417 8.8676333-8.8896165 2.9887745-2.9303087 6.0102899-5.8269411 9.0636108-8.6896632.376754-.3531338.7537418-.7057998 1.1314312-1.0577643.6363424-.5933115-.3192235-1.5456034-.9539289-.9539289"/><path d="m166.071431 39.7363892c4.717961 1.7560805 9.397568 3.6141254 14.041628 5.5563611 4.611085 1.9279701 9.186389 3.9403648 13.734565 6.0123948 4.583255 2.0879326 9.138447 4.2376052 13.673293 6.4284378 4.516838 2.1821796 9.013564 4.405753 13.499532 6.650608 4.505847 2.2549111 9.000234 4.5315716 13.493686 6.8108045.561506.2846118 1.123012.5696913 1.684284.8545369.772451.3919551 1.456034-.7715154.68101-1.1648737-4.492984-2.2794668-8.985968-4.5586997-13.488774-6.818522-4.52362-2.2703461-9.057297-4.5210477-13.61015-6.7324602-4.530636-2.200421-9.080449-4.3617867-13.657624-6.463985-4.594714-2.1101497-9.217493-4.1608981-13.874415-6.130262-4.648503-1.9660898-9.329514-3.8550046-14.050281-5.6405519-.588868-.222638-1.17797-.4436389-1.768241-.6632366-.341441-.1269879-.739008.1419551-.829514.4710009-.103601.3774556.128391.7022919.471001.8297474"/><path d="m165.233499 44.6632835c3.675631 2.2273153 7.318756 4.5079514 10.927268 6.8426099 3.608045 2.3344247 7.182414 4.7221703 10.720066 7.1620674 3.523152 2.4293732 7.010524 4.9106642 10.460711 7.4424696 3.447848 2.5301684 6.85898 5.1103835 10.230121 7.7420486 3.387746 2.6442938 6.736436 5.339102 10.044434 8.0823199.406689.3369972.812676.6751637 1.217727 1.0135641.279701.2333957.680309.2738541.954163 0 .23971-.23971.28087-.71913 0-.953695-3.312676-2.7668382-6.665575-5.4850328-10.058232-8.1527128-3.394995-2.6693172-6.828578-5.2902245-10.300047-7.8592143-3.469364-2.5671188-6.976614-5.0830215-10.52058-7.5465388-3.528765-2.4532273-7.093779-4.8543031-10.693171-7.202058-3.615061-2.3580449-7.264967-4.6625351-10.948082-6.9120673-.450889-.2754911-.901778-.5498129-1.353602-.8234331-.744153-.4511226-1.423059.7149204-.680776 1.1646398"/><path d="m162.310884 46.9530403c3.061038 2.8545369 6.090739 5.7427502 9.087465 8.6646398 2.99696 2.9218897 5.961179 5.8772217 8.892189 8.8650608 2.943873 3.0011694 5.854069 6.0353134 8.729888 9.1014968 2.863423 3.0528531 5.692703 6.1375117 8.487137 9.2535079 2.794668 3.1159963 5.55449 6.2630964 8.278532 9.4405987.336295.3917212.671655.7841441 1.006782 1.1770346.236436.277362.710477.243218.953695 0 .274789-.2747895.237137-.6758653 0-.953695-2.715856-3.184986-5.466792-6.3398036-8.252573-9.4632835-2.786015-3.1237137-5.606642-6.2160898-8.461646-9.2768943-2.8674-3.0741347-5.769411-6.1162301-8.704865-9.1255846-2.922825-2.9957905-5.878858-5.9593078-8.867633-8.8893826-2.988774-2.9303087-6.01029-5.8269411-9.063611-8.6896632-.376754-.3529-.753975-.705566-1.131431-1.0577643-.634471-.5914406-1.590505.3601497-.953929.9539289"/><path d="m43.990842 16.4194809c.147334-.4080917.3033209-.8129093.4714687-1.2130496-.090739.2146866-.181478.4296071-.2719832.6442937.3982694-.9370907.8599158-1.8573433 1.4796539-2.6697848-.1405519.1821796-.2811038.3641253-.4218896.5460711.2902245-.3741815.6134237-.7202994.9880729-1.0116932-.1821796.1407858-.3641253.2813377-.5460711.4218896.2553789-.1945743.529233-.3592142.8246025-.4864359-.2146866.0905052-.4296071.1812442-.6442938.2719832.2918616-.1218429.5961179-.2029935.9094949-.2464921-.2392423.0322732-.4782507.0645463-.717493.0963518.4436389-.0568289.8896165-.0378859 1.3318522.0208138-.2392423-.0322731-.4780168-.0640786-.7172591-.0963517 1.5028064.207203 2.926333.7235734 4.4555659.797942 2.1709542.1054724 4.2476614-.8781572 5.693639-2.4717025 1.1110851-1.22497666 1.9487839-2.65107582 2.6279233-4.15084196-.3227316.32273153-.6452292.64546305-.9679608.96772685.1658092-.1150608.3405052-.21188026.5259589-.29139383-.2146866.09073901-.4293733.18147802-.6442938.27198317.2385407-.09728719.4859682-.16159963.7408794-.19855005-.2392423.03227315-.4782507.06407858-.7172591.09635173.3910196-.05144995.784144-.03811974 1.1746959.0121609-.2392423-.03227315-.4782507-.06454631-.7172591-.09635173 1.5944808.21749298 3.0537886.9590739 4.5919083 1.38914873.5708607.15996259 1.1417213.24275024 1.7319926.31337699.5645463.06735267 1.0771749.00374182 1.6447614-.08606174.498363-.0792797.988073-.28040224 1.4239944-.52712815.6927035-.39242283 1.1604303-.92165576 1.6204397-1.55121609.9183816-1.25724977 1.1449953-2.97193639 1.2731524-4.47287185.0561273-.65388213-.3409728-1.45860617-.7902245-1.90762394-.4679607-.46796072-1.2355004-.8203929-1.9076239-.79022451-.6976146.03133769-1.421188.26028999-1.9073901.79022451-.5072498.5523854-.7263798 1.15972871-.7902245 1.90762394-.0196445.22942002-.0439663.45837231-.0746024.68685688.0320392-.23900842.0640785-.47801684.0963517-.71725912-.0830215.5862956-.2062676 1.16861553-.4331151 1.71772684.090739-.21492048.181478-.42984097.2719832-.64452759-.1131899.2640318-.2497661.51473339-.4251637.7429841.1407858-.18194575.2811038-.36389149.4218896-.54583723-.1162301.14569691-.2453227.27689429-.3919551.39218896.1819457-.14055192.3641254-.28110384.5460711-.42165576-.1379794.10383536-.2850795.18942938-.4436389.25795136.2149205-.09050514.4296071-.18124415.6445276-.27198316-.1835828.07507016-.3725445.12347989-.5687559.15177736.2390085-.03227315.4782507-.06431244.7172592-.09635173-.3241348.04139383-.648971.02712816-.9721703-.01637044.2390084.03227315.4782507.06431244.7172591.09635173-1.4427034-.2065014-2.7829747-.86903648-4.1700187-1.28437792-1.8959308-.56805426-4.0933115-.74345183-5.8341908.38072965-.47942.30963517-.8863424.6758653-1.1269879 1.19831618-.0781103.17048644-.1585594.33980356-.241347.50818522-.152479.31057063-.3126754.61739944-.4824603.91861553-.2885874.51169317-.6052385 1.00678204-.9618802 1.47357344.140318-.18194575.2811038-.36389149.4216557-.5460711-.3638915.46959776-.7682413.90598691-1.2359682 1.27385407.1819458-.14055192.3641254-.28110383.5458373-.42188962-.3180543.2455566-.6601965.45392891-1.0297007.61272217.2149205-.09050514.4296071-.18101029.6445276-.27174929-.3409729.14218896-.6959775.23830683-1.0617399.28858746.2387745-.03203929.4777829-.06407858.7170252-.09635173-.4925163.06361085-.9880729.04420019-1.47942-.02128157.2390084.03203929.4782507.06431244.7172591.09635173-1.5114593-.20884004-2.9473807-.7455566-4.4873713-.79653882-1.1089804-.0364827-2.1424229.23877455-3.1337699.71258185-1.1159963.53367633-1.9448083 1.4782507-2.6711881 2.44667918-.9955565 1.3285781-1.6288587 2.9333489-2.1877923 4.4815247-.2268475.6283911-.0551917 1.5198784.2717493 2.0790459.3274088.5594013.9693639 1.0933115 1.6124883 1.2399439.6905987.1569223 1.4656221.1230121 2.0785781-.2719832.6166979-.3978017.9904116-.921188 1.2399439-1.6124883"/><path d="m200.500501 14.9850094c-.516839-1.4317119-1.097521-2.9017773-1.961647-4.166043-.71188-1.04186156-1.554724-2.00537887-2.663938-2.63961647-.954864-.5460711-2.029701-.81875585-3.126988-.83723106-.8529-.01426567-1.717493.14826941-2.547474.33536015-.725211.16300281-1.442938.36131899-2.180075.46304958.239008-.03180543.478017-.06407858.717025-.09611787-.491113.06548176-.986903.08489242-1.479186.02128157.238775.03227316.478017.06431244.717025.09635173-.365762-.0505145-.721001-.1463985-1.06174-.28858746.214687.09073901.429607.18124415.644294.2717493-.369504-.15879327-.711412-.36716558-1.029701-.61272217.181946.14055191.364126.2813377.546072.42188961-.467961-.36786716-.872077-.80425631-1.235969-1.27385407.140318.18217961.281104.36412536.421656.5460711-.690832-.90364827-1.233629-1.91253508-1.706034-2.94457437-.420252-.91721235-1.461412-1.41697848-2.367867-1.7282507-.510991-.17516371-1.073901-.23433115-1.608746-.26028999-1.669785-.08091675-3.294668.54677268-4.838634 1.09448082-.747896.26543499-1.507016.53086997-2.295604.64359214.238775-.03227315.478017-.06407857.717025-.09635173-.323199.0434986-.648035.05776427-.97217.01613658.239009.03227315.478251.06431244.717259.09635173-.196211-.02829747-.385173-.0767072-.568756-.1515435.214921.09073901.429841.18124415.644528.27198316-.158559-.06852198-.305659-.15411599-.443639-.25795135.181946.14055191.364125.28110383.546071.42165575-.146632-.11529467-.275725-.24649205-.391955-.39218896.140786.18194574.281338.36389149.422124.54583723-.175398-.2282507-.311974-.47895229-.425164-.7429841.090505.21468662.181244.42960711.271983.64429373-.227081-.54887745-.350327-1.13119738-.433115-1.71749298.032039.23900842.064312.4782507.096352.71702526-.030636-.2282507-.054958-.457203-.074603-.68662301-.062207-.72754912-.25912-1.37675398-.790224-1.90762395-.467961-.46796071-1.235501-.82039289-1.907624-.79022451-.697849.03110383-1.421188.26028999-1.90739.79022451-.460477.50140318-.850562 1.202058-.790225 1.90762395.123714 1.44831618.343078 2.96796071 1.11319 4.23643592.664172 1.09377923 1.735734 2.00023386 3.008185 2.27993451 1.931712.42446212 3.757016-.22076707 5.554257-.85944808.850093-.30215154 1.713049-.59985968 2.610617-.72240411-.239242.03203929-.478251.06431244-.717493.09635173.390786-.05004678.783676-.06337699 1.17493-.01192704-.239242-.03227315-.478251-.06431244-.717493-.09635173.255145.03695042.502339.10126286.740879.19855005-.214686-.09050515-.429607-.18124415-.644293-.27198316.185453.07951356.360149.17633302.525958.29139382l-.96796-.96772684c.635173 1.40177736 1.405519 2.68685687 2.388447 3.87394758.662067.7995791 1.511693 1.54116 2.453929 1.9869037 1.036716.4906454 2.087699.7761927 3.24579.7682413.862021-.0058466 1.731759-.1634705 2.571329-.3533676.703928-.1590271 1.401543-.3524322 2.117867-.4511226-.239243.0320393-.478251.0640786-.717493.0963518.442469-.0586997.888213-.0776427 1.331852-.0208139-.239242-.0320393-.478251-.0640785-.717259-.0963517.313377.0432647.617399.1246492.909495.2464921-.214921-.0907391-.429607-.1814781-.644528-.2719832.29537.1269878.569224.2918615.824836.4864359-.181945-.1405519-.363891-.2813377-.546071-.4218896.374416.2913938.697849.6375117.987839 1.0116932-.140552-.1819458-.281103-.3641254-.421889-.5460711.619972.8124415 1.081384 1.7324602 1.479654 2.6697848-.090506-.2146866-.181245-.4296071-.271984-.6445276.168148.4003742.324135.8051918.471469 1.2132835.242283.6709541.608045 1.2422825 1.239944 1.6122544.57811.3384004 1.430543.4817587 2.078578.2719832.652947-.2111787 1.282741-.6157624 1.612488-1.23971.324135-.6134238.516605-1.4013097.271984-2.0790459"/></g><g fill="#956dac" transform="translate(140.199518 22.556338)"><path d="m71.2912067 28.6788587c-1.3019176 0-1.3042563 2.0231525 0 2.0231525 1.3016839 0 1.3040225-2.0231525 0-2.0231525"/><path d="m49.8700889 14.6728718c-1.3016838 0-1.3040225 2.0231525 0 2.0231525 1.3019176 0 1.3042563-2.0231525 0-2.0231525"/><path d="m48.716768 9.07041628c-1.3016838 0-1.3040224 2.02338632 0 2.02338632 1.3019177 0 1.3040225-2.02338632 0-2.02338632"/><path d="m63.2551216 22.8987371c-1.3016838 0-1.3040224 2.0231525 0 2.0231525 1.3019177 0 1.3040225-2.0231525 0-2.0231525"/><path d="m59.6302385 12.6825304c-1.3019176 0-1.3042563 2.0233863 0 2.0233863 1.3016839 0 1.3037886-2.0233863 0-2.0233863"/><path d="m60.999392 27.1281572c-1.3016839 0-1.3040225 2.0231524 0 2.0231524 1.3019176 0 1.3040224-2.0231524 0-2.0231524"/><path d="m61.9967259 36.729116c-1.7675397-1.6948082-2.6891955 3.344247.1585594 1.3676333-.087231-.1389149.5004677-.2537418-.1585594-1.3676333"/><path d="m54.9664406 23.0341674c-1.3019177 0-1.3042563 2.0233864 0 2.0233864 1.3016838 0 1.3040224-2.0233864 0-2.0233864"/><path d="m50.5668849 22.0528064c-1.3019176 0-1.3040224 2.0231524 0 2.0231524 1.3016839 0 1.3040225-2.0231524 0-2.0231524"/><path d="m42.8128391 23.1805659c-1.3019177 0-1.3042563 2.0231525 0 2.0231525 1.3019177 0 1.3040225-2.0231525 0-2.0231525"/><path d="m41.5439663 10.9150608c-1.3016838 0-1.3040224 2.0233863 0 2.0233863 1.3019177 0 1.3040225-2.0233863 0-2.0233863"/><path d="m28.6915108 16.3528531c-1.3019177 0-1.3040225 2.0231525 0 2.0231525 1.3019176 0 1.3040224-2.0231525 0-2.0231525"/><path d="m25.8949719 9.36435921c-1.3016838 0-1.3040224 2.02315249 0 2.02315249 1.3019177 0 1.3042564-2.02315249 0-2.02315249"/><path d="m15.248246 8.35717961c-1.3019177 0-1.3040224 2.02338629 0 2.02338629 1.3016838 0 1.3040225-2.02338629 0-2.02338629"/><path d="m23.2162769 4.00696913c-1.3016838 0-1.3040225 2.02338634 0 2.02338634 1.3019177 0 1.3040224-2.02338634 0-2.02338634"/><path d="m31.826754 7.68688026c-1.9420019-1.77595884-2.8538354 3.42118804.2095416 1.10594013-.0909729-.14920486.4125351-.11623012-.2095416-1.10594013"/><path d="m7.02008887 23.6492049c-1.30168382 0-1.30402245 2.0233863 0 2.0233863 1.30191768 0 1.30402245-2.0233863 0-2.0233863"/><path d="m8.01744621 20.703087c-1.94153414-1.7761927-2.85406922 3.4209542.20954163 1.1059401-.09097287-.1494387.41276894-.116464-.20954163-1.1059401"/><path d="m1.09883068 20.1248129c-1.30168381 0-1.30402245 2.0231525 0 2.0231525 1.30191768 0 1.30402245-2.0231525 0-2.0231525"/><path d="m5.18755847 14.9083255c-1.30215155 0-1.30425632 2.0233864 0 2.0233864 1.30168381 0 1.30378858-2.0233864 0-2.0233864"/><path d="m13.2542563 14.053508c-.868101 0-.8695042 1.349158 0 1.349158.8678672 0 .8695042-1.349158 0-1.349158"/><path d="m9.76845182 6.18594481c-.86810102 0-.86950421 1.34892423 0 1.34892423.86786718 0 .86950418-1.34892423 0-1.34892423"/><path d="m15.19116 4.84055192c.868101 0 .8695042-1.34892423 0-1.34892423-.8678672 0-.8695042 1.34892423 0 1.34892423"/><path d="m20.255753 8.99665575c-.8678671 0-.8695042 1.34892425 0 1.34892425.8678672 0 .8695042-1.34892425 0-1.34892425"/><path d="m18.443101.09864359c-.8678671 0-.8695042 1.34915809 0 1.34915809.8681011 0 .8695042-1.34915809 0-1.34915809"/><path d="m32.2392189 5.75409261c-.8678672 0-.8695042 1.34915809 0 1.34915809.8678672 0 .8692703-1.34915809 0-1.34915809"/><path d="m34.4949486 19.0064312c-.8681011 0-.8695043 1.3489243 0 1.3489243.8678671 0 .8695042-1.3489243 0-1.3489243"/><path d="m35.3406455 10.82942c-.8678672 0-.8692704 1.3489242 0 1.3489242.868101 0 .8695042-1.3489242 0-1.3489242"/><path d="m44.0287652 15.2641487c-.868101 0-.8695042 1.3489243 0 1.3489243.8678672 0 .8695042-1.3489243 0-1.3489243"/><path d="m45.4915575 34.373363c-.868101 0-.8695042 1.3489242 0 1.3489242.8678672 0 .8692704-1.3489242 0-1.3489242"/><path d="m48.4575538 29.759565c-.868101 0-.8695042 1.3491581 0 1.3491581.8678672 0 .8692703-1.3491581 0-1.3491581"/><path d="m84.232507 12.194247c-.868101 0-.8695042 1.3489242 0 1.3489242.8678672 0 .8692704-1.3489242 0-1.3489242"/><path d="m54.3733396 30.1439429c-.8681011 0-.8695042 1.3489243 0 1.3489243.8678671 0 .8695042-1.3489243 0-1.3489243"/><path d="m60.0162067 20.8117867c-.868101 0-.8695042 1.3489242 0 1.3489242.8678672 0 .8692704-1.3489242 0-1.3489242"/><path d="m76.1585126 13.1829046c-.868101 0-.8695042 1.3489242 0 1.3489242.8678672 0 .8692704-1.3489242 0-1.3489242"/><path d="m65.9338167 32.2587699c-.8681011 0-.8695043 1.3489242 0 1.3489242.8678671 0 .8692703-1.3489242 0-1.3489242"/><path d="m67.0615529 27.1834191c-.8678672 0-.8692704 1.3489242 0 1.3489242.868101 0 .8695042-1.3489242 0-1.3489242"/><path d="m70.252058 20.1259588c.0018709-.0577642.0130963-.1152946 0-.1732928-.003508.0318055.0238541.0289991 0 .1732928m-.2130496.3040225c-.0343779.0142657-.068522.0289991-.1028999.0432647.0551918-.0147334.1005613-.0463049.1461647-.0771749-.0142657.0114593-.0287652.0226847-.0432648.0339102m.3659963-.5098223c.0156688-2.0488774-3.1646399.7822732-.4628157.7656689.0979887-.0790459.3627221-.3320861.4628157-.7656689"/><path d="m81.9256314 23.1001871c.0021048-.0577643.0130964-.1155285 0-.1732928-.0035079.0318054.0238541.0287652 0 .1732928m-.2128157.3040224c-.0343779.0142657-.0687558.0287652-.1031338.0432648.0554257-.0149673.1005613-.0465388.1463985-.077175-.0144995.0112255-.028999.0224509-.0432647.0339102m.3659963-.5100561c.015435-2.0486436-3.1648737.782507-.4630496.7659027.0979888-.0792797.362956-.332086.4630496-.7659027"/><path d="m85.0562909 28.5377222c.0021048-.0577643.0130964-.1155286 0-.1732928-.0032741.0318054.024088.028999 0 .1732928m-.2128157.3040224c-.0343779.0142657-.068522.0289991-.1031338.0432648.0554257-.0147334.1005613-.0465389.1463985-.077175-.0142656.0112255-.028999.0226848-.0432647.0339102m.3659963-.5100561c.0156688-2.0488775-3.1646399.782507-.4630496.7659027.0982226-.0792797.362956-.3318522.4630496-.7659027"/><path d="m75.8024322 26.4784144c-.8678672 0-.8695042 1.3489242 0 1.3489242.868101 0 .8695042-1.3489242 0-1.3489242"/><path d="m75.0049345 20.2682413c-.8678671 0-.8695042 1.3491581 0 1.3491581.868101 0 .8695042-1.3491581 0-1.3491581"/><path d="m76.930449 32.2587699c-.868101 0-.8695042 1.3489242 0 1.3489242.8678672 0 .8692704-1.3489242 0-1.3489242"/><path d="m73.6867166 39.052666c-.8678672 0-.8692704 1.3489243 0 1.3489243.868101 0 .8695042-1.3489243 0-1.3489243"/></g><g fill="#956dac" transform="translate(11.574635 25.596562)"><path d="m13.970463 28.7624649c1.3019177 0 1.3040225 2.0233864 0 2.0233864-1.3019176 0-1.3040224-2.0233864 0-2.0233864"/><path d="m35.3913471 14.7564546c1.3019176 0 1.3042563 2.0233864 0 2.0233864-1.3019177 0-1.3040225-2.0233864 0-2.0233864"/><path d="m36.5449018 9.15402245c1.3016838 0 1.3040224 2.02338635 0 2.02338635-1.3019177 0-1.3042563-2.02338635 0-2.02338635"/><path d="m22.0063143 22.9823199c1.3019177 0 1.3042563 2.0231525 0 2.0231525-1.3016838 0-1.3040224-2.0231525 0-2.0231525"/><path d="m25.6314312 12.7661132c1.3019177 0 1.3040225 2.0233863 0 2.0233863-1.3016838 0-1.3037885-2.0233863 0-2.0233863"/><path d="m24.262044 27.2117399c1.3019176 0 1.3042563 2.0231525 0 2.0231525-1.3016839 0-1.3037886-2.0231525 0-2.0231525"/><path d="m23.2649205 36.8126988c1.7677736-1.6945744 2.6889616 3.3442469-.1585594 1.3676333.087231-.1389149-.5004677-.253508.1585594-1.3676333"/><path d="m30.2952292 23.1179841c1.3019177 0 1.3040224 2.0231525 0 2.0231525-1.3016838 0-1.3040225-2.0231525 0-2.0231525"/><path d="m34.6947848 22.1364125c1.3019177 0 1.3040225 2.0231525 0 2.0231525-1.3019176 0-1.3040224-2.0231525 0-2.0231525"/><path d="m42.4488073 23.2641487c1.3016838 0 1.3040224 2.0233864 0 2.0233864-1.3019177 0-1.3040225-2.0233864 0-2.0233864"/><path d="m43.7174696 10.9988775c1.3019177 0 1.3042563 2.0231524 0 2.0231524-1.3016838 0-1.3037886-2.0231524 0-2.0231524"/><path d="m56.5701356 16.4364359c1.3016839 0 1.3040225 2.0231525 0 2.0231525-1.3019176 0-1.3040224-2.0231525 0-2.0231525"/><path d="m59.366464 9.447942c1.3019177 0 1.3042563 2.0233863 0 2.0233863-1.3016838 0-1.3040225-2.0233863 0-2.0233863"/><path d="m70.0134004 8.44099626c1.3019177 0 1.3040224 2.02315244 0 2.02315244-1.3019177 0-1.3042563-2.02315244 0-2.02315244"/><path d="m62.0453695 4.09078578c1.3016838 0 1.3040225 2.02315248 0 2.02315248-1.3019177 0-1.3042563-2.02315248 0-2.02315248"/><path d="m53.4349158 7.77069691c1.9420019-1.7761927 2.8536015 3.42118799-.2095416 1.10570627.090739-.14920486-.4125351-.11646398.2095416-1.10570627"/><path d="m78.2415575 23.7330215c1.3016838 0 1.3040225 2.0231525 0 2.0231525-1.3019176 0-1.3042563-2.0231525 0-2.0231525"/><path d="m77.2442236 20.7866698c1.941768-1.7759589 2.8538353 3.421188-.2095417 1.1059401.0909729-.1492048-.4127689-.1166978.2095417-1.1059401"/><path d="m84.1626052 20.2083957c1.3019177 0 1.3042564 2.0233863 0 2.0233863-1.3016838 0-1.3037885-2.0233863 0-2.0233863"/><path d="m80.0741113 14.9919317c1.3019177 0 1.3040225 2.0233864 0 2.0233864-1.3016838 0-1.3037886-2.0233864 0-2.0233864"/><path d="m72.0074135 14.1373246c.868101 0 .8692703 1.3489242 0 1.3489242-.8681011 0-.8695042-1.3489242 0-1.3489242"/><path d="m75.493218 6.26955098c.8678671 0 .8695042 1.34892423 0 1.34892423-.8678672 0-.8695042-1.34892423 0-1.34892423"/><path d="m70.070276 4.92436857c-.8678672 0-.8692704-1.34915809 0-1.34915809.868101 0 .8695042 1.34915809 0 1.34915809"/><path d="m65.0058934 9.08023854c.8678671 0 .8695042 1.34915806 0 1.34915806-.8681011 0-.8695043-1.34915806 0-1.34915806"/><path d="m66.8183349.18224977c.868101 0 .8695042 1.34915809 0 1.34915809-.8678672 0-.8692704-1.34915809 0-1.34915809"/><path d="m53.0224509 5.8376754c.8678672 0 .8695042 1.34915809 0 1.34915809-.868101 0-.8695042-1.34915809 0-1.34915809"/><path d="m50.7667212 19.090014c.8678672 0 .8695042 1.3491581 0 1.3491581-.868101 0-.8695042-1.3491581 0-1.3491581"/><path d="m49.9207905 10.9130028c.868101 0 .8695042 1.3491581 0 1.3491581-.8681011 0-.8692704-1.3491581 0-1.3491581"/><path d="m41.2329046 15.3477315c.868101 0 .8692703 1.3489243 0 1.3489243-.868101 0-.8695042-1.3489243 0-1.3489243"/><path d="m39.7701123 34.4569457c.868101 0 .8695042 1.3491581 0 1.3491581-.8678672 0-.8695043-1.3491581 0-1.3491581"/><path d="m36.804116 29.8433817c.868101 0 .8695042 1.3489242 0 1.3489242-.8678672 0-.8692703-1.3489242 0-1.3489242"/><path d="m1.02918616 12.2778297c.86810102 0 .86927034 1.3489243 0 1.3489243-.86786717 0-.86950421-1.3489243 0-1.3489243"/><path d="m30.8883302 30.2275257c.8678672 0 .8692704 1.3491581 0 1.3491581-.868101 0-.8695042-1.3491581 0-1.3491581"/><path d="m25.245463 20.8953695c.8681011 0 .8695043 1.3491581 0 1.3491581-.868101 0-.8692703-1.3491581 0-1.3491581"/><path d="m9.10318054 13.2664874c.86810103 0 .86950421 1.3489242 0 1.3489242-.86786716 0-.86927034-1.3489242 0-1.3489242"/><path d="m19.3278531 32.3423527c.8678672 0 .8695042 1.3489242 0 1.3489242-.868101 0-.8695042-1.3489242 0-1.3489242"/><path d="m18.1998597 27.2670019c.868101 0 .8695042 1.3491581 0 1.3491581-.8678672 0-.8692704-1.3491581 0-1.3491581"/><path d="m14.997942 20.1229888c.0039757-.0287652.0077175-.0577643.0116932-.0867634-.0130964.0579982-.0021048.1157624 0 .1735267-.0039757-.0287652-.0077175-.0577643-.0116932-.0867633m.1810103.3568756c.0460711.0306361.0914406.0622076.1463985.076941-.0215154-.0168381-.0425631.0002339-.1463985-.076941m-.2425164-.2254444c.0699252.724275 1.8086997.9745089 1.29116-.5734331-.2261459-.6279233-1.7254444-.6145931-1.29116.5734331"/><path d="m3.32441534 23.097217c.00374182-.028999.00748363-.0577642.01169317-.0867633-.01333021.0577643-.00210477.1155285 0 .1732928-.00420954-.0287652-.00795135-.0577643-.01169317-.0865295m.18101029.3568756c.0460711.0304023.09120674.0622077.1463985.0769411-.02151543-.0168382-.04256314.0002338-.1463985-.0769411m-.24251637-.2254443c.06992516.724275 1.80823199.9745089 1.29115996-.573667-.22614593-.6279233-1.72544434-.6143592-1.29115996.573667"/><path d="m.19352198 28.5347521c.00397568-.0287652.0077175-.0577643.01169317-.0867633-.01309635.0579981-.0018709.1155285 0 .1732928-.00397567-.0287652-.00771749-.0577643-.01169317-.0865295m.18124416.3568756c.04583723.0306361.09120673.0622077.14616464.0769411-.02128157-.0170721-.04232928.0002338-.14616464-.0769411m-.24275024-.2254444c.06992517.7245089 1.80869972.9745089 1.29115997-.5734331-.22591207-.6281571-1.72544434-.6143592-1.29115997.5734331"/><path d="m9.45900374 26.5619972c.86810106 0 .86950426 1.3489242 0 1.3489242-.86786716 0-.86950421-1.3489242 0-1.3489242"/><path d="m10.2565014 20.3518241c.868101 0 .8695042 1.3489243 0 1.3489243-.86786716 0-.86927034-1.3489243 0-1.3489243"/><path d="m8.33124415 32.3423527c.86810103 0 .86927035 1.3489242 0 1.3489242-.86810103 0-.86950421-1.3489242 0-1.3489242"/><path d="m11.5747194 39.1362722c.868101 0 .8695042 1.3491581 0 1.3491581-.8678672 0-.8692704-1.3491581 0-1.3491581"/></g><path d="m176.410066 67.2290459c-.546305-1.0551918-2.04841-1.6382133-3.475912-.4602432-.489243-3.4686623-5.1174-2.0144995-4.748363 1.2336295.474976 2.2411132 2.097053 6.8688027 5.260523 4.2350328 1.871376-.8914874 3.957671-2.6562208 2.963752-5.0084191" fill="#f092b2"/><path d="m30.2417775 28.6509355c-1.4817587-.1742282-3.0547241 1.0444341-2.8054257 3.1288588-3.5498129-1.8131432-5.371609 3.2025257-2.441768 5.2170252 2.3119738 1.5657156 8.6506081 2.7076707 8.1405519-1.5023386.4125351-2.5982226.3671656-6.131899-2.8933582-6.8435454" fill="#d6da2c"/><path d="m35.3673621 14.5058467c-.4141721-1.0509823-1.0610383-2.0030403-3.0678204-1.2511694-3.0308699-8.88096348-8.2530402 7.4745089-.8369972 5.1223106 1.9228251-.3683349 4.2516371-1.4833957 3.9048176-3.8711412" fill="#d8c6e1"/><path d="m214.116193 20.3254912c-.468662-1.3173527-2.145931-2.1330683-3.7942-1.0579981.083957-3.6777363-4.920721-3.2184285-5.397802.1143592-.352432 2.4829279 1.269177 8.4123012 4.64289 6.2167914 2.379795-.7605239 5.255145-2.1725912 4.549112-5.2731525" fill="#80cde7"/></g></svg>