<svg height="136" viewBox="0 0 112 136" width="112" xmlns="http://www.w3.org/2000/svg"><g fill="none"><path d="m2 17.78s18.48-16.76 33.78-9.02c-4.24-9.56-19.6-16.76-33.78 9.02z" fill="#000"/><path d="m102 37.44s-8.2-20.68-25.32-20.16c7.88-6.86 24.18-9.28 25.32 20.16z" fill="#000"/><path d="m40.28 58.7c-.98 34.08-36.16 33.52-39.28 2.92-1.62-37.08 38.18-36.62 39.28-2.92z" fill="#fff"/><path d="m1.1 59.44c3.58 13.02 28.2 23.14 40.16-.78-1.9 37.34-39.4 32.82-40.16.78z" fill="#cecece"/><path d="m20.74 85.82c-26.74-.72-28.44-51.82-.32-53.64 28.56 1.82 26.66 52.92.32 53.64zm-.32-51.3c-26.14 2.22-22.32 48.94.52 48.96 25.42-2.14 22.46-48.4-.52-48.96z" fill="#000"/><path d="m22.78 49.28c-12.24.62-11.52 26.98.78 27.16 12.22-.62 11.5-26.96-.78-27.16z" fill="#040095"/><path d="m14.76 65.42c2 14.24 16.5 13.18 17-1.44-4.72 4.76-11.76 6.78-17 1.44z" fill="#0066d6"/><path d="m23.14 54c-8 .1-8.44 18.76.54 19.08 8.04-.12 8.46-18.78-.54-19.08z" fill="#000"/><path d="m18.54 54.74c-4.48.32-1.68 9.72 2.7 4.32.76-2.14.06-3.66-2.7-4.32z" fill="#fff"/><path d="m28.4 65.16c1.16.46 1.22 1.12 0 0-.62 0 0 0-1.04 1.32-.06-.04 1.18 2.52 1.04-1.32z" fill="#fff"/><g fill="#000"><path d="m5.06 128.56c-2.72-4.1 1-15.12 8.4-15.44-7.62 5.44-8.38 15.36-8.4 15.44z"/><path d="m89.6 95.62c-3.7422808-4.3727006-8.5018674-7.7586691-13.86-9.86 4.02-2.24 14.12 5.08 13.86 9.86z"/><path d="m32.38 125.26c-8.9114848.031488-17.718082-1.922497-25.78-5.72l1.1-2c14.0416247 6.564475 30.1397863 7.177533 44.64 1.7 20-8.6 29.72-30.22 29.82-30.44l2.14.94c-.42.92-10.2 22.68-31.08 31.66-6.6420401 2.586027-13.71238 3.895601-20.84 3.86z"/><path d="m43.68 135.8c-2.9026762-.156375-5.7057524-1.111497-8.1-2.76.16 0 18.1 3.42 26.18-6.84-.64 6.9-11.44 9.92-18.08 9.6z"/><path d="m94.52 65.82c-9.72 3.02-21.16.62-23 .56 22.8 9.54 36.6-1.7 40-12.62-4.244998 5.7204216-10.198201 9.9436938-17 12.06z"/></g></g></svg>