<svg height="112" viewBox="0 0 143 112" width="143" xmlns="http://www.w3.org/2000/svg"><g fill="none"><g fill="#000"><path d="m12.62 22.16s4-6 15.56-8.56 16.7-13.6 16.7-13.6c-7.98 4.52-33.7 7.08-32.26 22.16z"/><path d="m16.86 38c4.22 3.56 29.06-5.36 28.6-9.44-2.18 13-23.8 14.56-28.6 9.44z"/><path d="m129.18 22.16s-4-6-15.54-8.56-16.72-13.6-16.72-13.6c7.98 4.52 33.72 7.08 32.26 22.16z"/><path d="m124.96 38c-4.24 3.46-28.96-5.46-28.62-9.54 2.18 13.1 23.8 14.66 28.62 9.54z"/></g><path d="m124.12 44.6c.32.24 3.8 2.5 5.34 9.42 9.92 26.4 20.54-11.86-5.34-9.42z" fill="#ecfaff"/><path d="m130.88 50.32c-1.092563-2.6885096-3.272571-4.7885839-6-5.78h-.72c4.7.78 7.1 27.36 16 15.58-4.56.62-6.6-4.12-9.28-9.8z" fill="#c8d7db"/><path d="m136 63.86c-7.3 1.14-7.74-19.26-14.26-19.84l2.26-.3c8.44-3.44 28.54 15.48 12 20.14zm-9.54-18.44c3.58 1.72 3.76 16.86 9.54 16.7 10.86-2.12-1.42-18.44-9.62-16.7z" fill="#96a1a4"/><path d="m122.2 72.52c-15.44-15.56-35.1-18.8-59.2-16.34-57.12 5.44-56.72 70.84-20.28 49.82 12-12.9 31.56-18.1 31.52-16.28h1.1c13.58-2.58 26 14.78 38.84 20.24 17.82 4.04 26.42-15.96 8.02-37.44z" fill="#5b0000"/><path d="m86.22 74.62c-25.4-8.82-33.22 17.38-42.52 30.58 6.74-9.36 31.74-18.36 30.54-15.56h1.1c6.82-1.76 21.86 6.46 32.48 17.26-7.32-10.72-11.1-28.64-21.6-32.28z" fill="#250000"/><path d="m118.34 111.62c-11 .38-33.42-25.62-42.92-20.82h-1.18c-2.44 0-10.52.3-20.18 7.1-48.7 42.26-48.28-28.1-8.18-38.96 79.8-24.48 108.48 49.38 72.46 52.68zm-42.34-23.16c7.8453437.2310934 15.406679 2.9876841 21.56 7.86 49.42 45.44 45.86-46-24.6-39.7-72.96-.32-66.38 85.18-18.22 37.96 9.84-6.16 15.46-5.9 19.58-6h1.68z" fill="#000"/><path d="m59.14 107.36c5.84-6.66 23.88-9.36 30.86-.4-14.26-6.7-30.68.32-30.86.4z" fill="#000"/><path d="m18 44.3c-.3.26-3.78 2.5-5.34 9.42-9.96 26.42-20.66-11.86 5.34-9.42z" fill="#ecfaff"/><path d="m11.2 50c1.0774123-2.6987305 3.2629225-4.8041054 6-5.78h.72c-4.7.8-7.08 27.36-16 15.6 4.56.62 6.6-4.18 9.28-9.82z" fill="#c8d7db"/><path d="m4.22 63.32c-12.58-8 6-23.78 16.2-19.58-6.68.74-6.64 20.4-14.26 19.84-.65291584-.0309867-1.30196588-.1179728-1.94-.26zm1.12-14c-3.12 3.32-6.34 11.6.82 12.52 5.4.7 5.42-13.56 9.54-16.7-3.8437504.0834351-7.52595723 1.5620047-10.36 4.16z" fill="#96a1a4"/></g></svg>