<svg height="108" viewBox="0 0 107 108" width="107" xmlns="http://www.w3.org/2000/svg"><g fill="none"><path d="m34.32 30.98c-2.04 29.66-33.48 26.68-33.36-.88 2.06-29.66 33.48-26.68 33.36.88z" fill="#fff"/><path d="m2.1 32.96c2.66 9.74 22 16.88 31.04-.58-1.48 27.92-30.66 23.84-31.04.58z" fill="#cecece"/><path d="m17.42 53.44c-25.12-1.94-21.42-46.14.84-45.8 24.34 2.36 21.26 45.42-.84 45.8zm.46-43.44c-19.24.32-22 39.3-.46 41.12 21.02-1.3 20.1-40.54.46-41.12z" fill="#000"/><path d="m19.84 22.4c-10.3.1-10.72 22.3-.3 23.02 10.3-.12 10.74-22.3.3-23.02z" fill="#040095"/><path d="m12.5 35.78c1.1 12 13.4 11.82 14.44-.64-4.16 3.88-10.2 5.32-14.44.64z" fill="#0066d6"/><path d="m20 26.36c-6.64-.2-7.9 15.38-.2 16.18 6.62.2 7.9-15.38.2-16.18z" fill="#000"/><path d="m16 26.86c-4.28 0-.58 9.48 2.42 2.46-.08-.8-.18-1.56-2.42-2.46z" fill="#fff"/><path d="m24 36c.96.44.98 1 0 0-.54 0 0 0-.94 1.08 0-.02.94 2.22.94-1.08z" fill="#fff"/><path d="m2 1.58c16.98-1.72 28 28.88 44.5 23.02-23.68-5.38-12.3-31.16-44.5-23.02z" fill="#000"/><path d="m72.44 30.98c2 29.66 33.48 26.68 33.36-.88-2.04-29.66-33.48-26.68-33.36.88z" fill="#fff"/><path d="m73.42 31.44c2.74 10.28 22.94 18 32.3-.62-1.5 29.46-31.88 25.4-32.3.62z" fill="#cecece"/><path d="m89.36 53.44c-24.44-1.44-22.9-44.7-.84-45.8 24.88.96 23.48 45.22.84 45.8zm-.46-43.44c-21.26 1.36-18.94 40.6.46 41.12 21.24-1.4 18.92-40.62-.46-41.12z" fill="#000"/><path d="m87.22 22.4c-10.3.1-10.72 22.3-.3 23.02 10.3-.12 10.72-22.3.3-23.02z" fill="#040095"/><path d="m79.86 35.78c1.12 12 13.4 11.82 14.46-.64-4.18 3.88-10.2 5.32-14.46.64z" fill="#0066d6"/><path d="m87.36 26.36c-6.64-.2-8 15.38-.2 16.18 6.64.2 7.9-15.38.2-16.18z" fill="#000"/><path d="m83.44 26.86c-4.3 0-.6 9.48 2.42 2.46-.14-.8-.26-1.56-2.42-2.46z" fill="#fff"/><path d="m91.42 36c.98.44 1 1 0 0-.52 0 0 0-.92 1.08-.06 0 .92 2.2.92-1.08z" fill="#fff"/><path d="m104.72 1.58c-16.94-1.72-28 28.88-44.46 23.02 23.74-5.38 12.3-31.16 44.46-23.02z" fill="#000"/><path d="m90.72 68.48c-8.16-.88-13.7 4-20.24 7.56-5.3334242 2.5746841-11.141787 4.0182631-17.06 4.24-5.9419349-.2225276-11.7723974-1.6801432-17.12-4.28-33.84-25.64-43.82 22.2-14.76 30.14 13.8 3.7 26.46-16.04 36.46-10.14 43 32 56.1-22.24 32.72-27.52z" fill="#fff"/><path d="m7.74 72.84c-1.18755926 2.5862392-1.97650863 5.3374472-2.34 8.16 5.24 3 21.64 10.84 46.88 8.12 12 1.22 35.02 2.24 49.3-9.28-.353864-2.0241703-.986549-3.9895327-1.88-5.84-7.5153212 5.9007716-16.5111916 9.616758-26 10.74-22.4-1.4-48.64 4.54-65.96-11.9z" fill="#d8d8d8"/><path d="m4.76 90s6 16.14 20.5 16.14c10.52-.8 21.24-12.38 30.12-10.78 20.36 9.9 41.44 20.64 46.94-10.28-13.66 29.04-33.86 6.7-49.12 5.84-24.2 9.56-35.54 14.08-48.44-.92z" fill="#d8d8d8"/><g fill="#848484"><path d="m15.3 104.9c-3.6248191-12.2936205-2.5483886-25.4959337 3.02-37.04l2 1.12c-5.1646631 11.0292271-6.1524427 23.5576829-2.78 35.26z"/><path d="m35.72 103.02c-6.78-11.68-2.14-27.28-2-28l2.22.68c0 .14-4.52 15.3 1.74 26z"/><path d="m63.82 90.84c-3.5261248.0387085-7.0499634-.1953226-10.54-.7-11.14 4.18-48.92-5.4-48.92-9.12l1.4-1.88c3.44 6.44 43.88 11.7 47.3 8.66h.22.22c6.9896526.9617128 14.0733585 1.0289207 21.08.2 9.4054381-.7165401 18.4880271-3.7463599 26.44-8.82l1.38 1.88c.94 1.64-26.56 11.6-38.58 9.78z"/><path d="m91.46 104.9-2.24-.66c3.3765849-11.7054473 2.3741041-24.2400134-2.82-35.26l2-1.12c5.5929894 11.5358977 6.6840441 24.7426519 3.06 37.04z"/><path d="m71.04 103.02-2-1.18c6.28-10.78 1.78-26 1.74-26l2.24-.68c.18.58 4.8 16.18-1.98 27.86z"/><path d="m51.835123 79.979205h2.34v14.88h-2.34z" transform="matrix(.99956502 -.02949179 .02949179 .99956502 -2.555093 1.601241)"/></g><path d="m82 107.68c-12.8 1-22.8-16.88-34.94-9.68-52 38.94-60.22-57.42-10.22-23.02 19.62 6 13.54 5.84 33.14 0 37.62-27.96 46.02 29.7 12.02 32.7zm-28.78-14c6.54 0 13.48 6.76 21.28 10 37.12 11.42 34.88-56.12-3.46-26.66-5.4839852 2.6261696-11.4447927 4.1095669-17.52 4.36l-.16-1.16v1.16c-6.0800929-.2894408-12.0451079-1.7637098-17.56-4.34-37.8-28.18-40 33.82-6 27.48 8.7-2.16 14.08-9.54 23.4-10.84z" fill="#777"/></g></svg>