<svg height="84" viewBox="0 0 229 84" width="229" xmlns="http://www.w3.org/2000/svg"><g fill="none" fill-rule="evenodd"><path d="m129.061109 40.0395613c-2.133537-9.0313377-28.972405-5.0191768-29.690833 1.7570159-2.7231057 14.381899 32.956735 10.2383069 29.690833-1.7570159" fill="#814f9a"/><path d="m207.011974 20.7120356c-12.446913-18.51637042-34.648036 1.0348457-24.49392 17.4104303 13.388915 18.4422358 33.629794-.352666 24.49392-17.4104303" fill="#814f9a"/><path d="m207.745884 53.7361002c-8.936623-13.0161366-44.33232-5.8748831-31.91768 12.6073433 11.334892 13.8461178 40.471235 3.3054256 31.91768-12.6073433" fill="#f092b2"/><g fill="#fefefe"><path d="m209.569387 19.6002723c-3.543264-11.47310572-19.880028-6.6211413-18.785547 3.7443873 2.532039 13.9901777 22.02058 9.3788587 18.785547-3.7443873"/><path d="m200.054747 39.427494c.142891-5.0144995-5.673059-5.1260524-8.224742-8.371609-4.481057-9.9017774-12.488775-2.6169317-10.81595 3.2902245 1.799579 7.2574836 17.046305 14.4085594 19.040692 5.0813845"/><path d="m206.964453 34.1865913c.012395.2815715.123012.6983162.599158 1.1265201.939195.6398503.737137 2.0785781-.341908 2.434986-.264032.0986903-.626287.3327876-.886109.91768-.318054 1.0909729-1.749065 1.3433115-2.421422.4272685-.787184-.7011225-3.376286-.7806361-2.301216-2.7296539.26333-.366464.329747-.8388681.177269-1.2637979-.282741-.7939663.432413-2.0268943 1.70767-1.7687091.429841.1372778.899673.0542563 1.256548-.2217025.898738-.6955098 2.204631-.0586997 2.21001 1.0774088"/><path d="m187.344364 20.2164323c.001403.2946679.147802.5699251.391487.7357343.613424.4181478.481525 1.357811-.223339 1.590739-.157624.0687558-.303789.1239476-.579046.5998597-.207905.7125818-1.142657.8774555-1.581852.278999-.174462-.2378391-.454397-.3744153-.749299-.3652946-.521749.0081852-1.147568-.6307297-.754209-1.4181478.172357-.2392423.215622-.547942.115996-.8255379-.146165-.4651544.187558-1.2212348 1.115528-1.1555192.28087.0898036.587933.0357811.821095-.1447615.586763-.4543966 1.440131-.0383536 1.443639.703929"/></g><path d="m57.3257951 20.7120356c-12.446913-18.51637042-34.6480355 1.0348457-24.4939195 17.4104303 13.3889149 18.4422358 33.6297942-.352666 24.4939195-17.4104303" fill="#814f9a"/><path d="m58.0598223 53.7361002c-8.9368569-13.0161366-44.33232-5.8748831-31.917914 12.6073433 11.3348924 13.8461178 40.4714687 3.3054256 31.917914-12.6073433" fill="#f092b2"/><path d="m59.8833255 19.6002723c-3.5432647-11.47310572-19.880028-6.6211413-18.7855472 3.7443873 2.5322731 13.9901777 22.0203461 9.3788587 18.7855472-3.7443873" fill="#fefefe"/><path d="m50.3686857 39.427494c.1428905-5.0144995-5.6730589-5.1260524-8.2247428-8.371609-4.481057-9.9017774-12.4887745-2.6169317-10.8159494 3.2902245 1.799579 7.2577175 17.0463049 14.4083256 19.0406922 5.0813845" fill="#fefefe"/><path d="m57.278391 34.1865913c.0123948.2815715.1230122.6983162.5991581 1.1265201.9389617.6398503.7369037 2.0785781-.3419083 2.434986-.2640318.0986903-.6262863.3327876-.8861085.91768-.3182881 1.0909729-1.7490646 1.3433115-2.4214219.4272685-.267072-.3636576-.6957437-.5727315-1.1468662-.5589336-.8966324.0311039-1.8061273-1.1036015-1.1545838-2.1707203.2635641-.366464.3297475-.8388681.1775024-1.2637979-.2827409-.7939663.4321796-2.0268943 1.7076707-1.7687091.429841.1372778.8996726.0542563 1.2565482-.2217025.8985032-.6955098 2.2046305-.0586997 2.2100093 1.0774088" fill="#fefefe"/><path d="m37.6583022 20.2164323c.0014031.2946679.1478016.5699251.3912535.7357343.6136576.4181478.4815247 1.357811-.2231057 1.590739-.157624.0687558-.3040225.1239476-.5790459.5998597-.2079046.7125818-1.1426567.8774555-1.5818522.278999-.1744621-.2378391-.4546305-.3744153-.7492984-.3652946-.5217493.0081852-1.1475678-.6307297-.7542095-1.4181478.1721234-.2392423.215622-.547942.1159962-.8255379-.1461646-.4651544.1875585-1.2212348 1.1155286-1.1555192.2808699.0898036.5879326.0357811.8208606-.1447615.5869972-.4543966 1.4401309-.0383536 1.4438728.703929" fill="#fefefe"/><g fill="#814f9a"><path d="m113.456665 46.3954547c-.027596 4.2165575.001871 8.4335828.089804 12.6494387.025023 1.1990178.054958 2.3978017.089102 3.5965856.020346.7043967.60594 1.3821329 1.348924 1.3486904.713517-.0318054 1.370673-.5933115 1.348924-1.3486904-.12044-4.2151543-.18405-8.4317119-.188728-12.6482694-.001403-1.1992516.001871-2.3985033.009823-3.5977549.004677-.7057998-.623714-1.3814312-1.348925-1.3489242-.734799.0329747-1.344013.5926099-1.348924 1.3489242"/><path d="m88.0253976 48.4371759c2.474275 4.1651076 5.6980823 7.8302152 9.5884003 10.7221703 3.4520581 2.5657156 7.4527601 4.4396632 11.6410201 5.4256314 4.163938.9798878 8.476379 1.0909729 12.688026.3589804 4.12956-.7177269 8.131899-2.3194575 11.630028-4.626754 3.830917-2.5266604 7.06478-5.8571094 9.566417-9.6987839.309401-.4749766.606408-.9581385.892657-1.4471469.356641-.6096819.159962-1.5056127-.483864-1.8456501-.646866-.3419083-1.46492-.1669785-1.84565.4836295-.580215.9922826-1.206969 1.9567353-1.882834 2.8861086-.161834.2224041-.327175.4424696-.493686.6611319-.161366.2125818.164406-.2079046.051216-.0661834-.038587.0484097-.076473.0977549-.114827.1466324-.091908.1166978-.184518.2326941-.278063.3479887-.355005.4380262-.721235.8671656-1.098691 1.286015-.707904.7857811-1.45463 1.5364827-2.237839 2.2469598-.402245.3648269-.814078.7193639-1.235033 1.0626754-.090972.0741347-.182179.1478017-.274088.2207671-.054957.0439663-.110149.0874649-.165341.1309635-.033676.0264265-.224041.172825-.029467.0236202.194575-.1487372.003976-.0030402-.030168.0229186-.05566.0425631-.111319.0846586-.167446.126754-.111553.0839569-.223808.1672123-.33653.2495322-1.655285 1.2100094-3.433115 2.2514032-5.299813 3.099392-.215856.0982226-.434518.1903648-.651076.2867166.444107-.1973808-.010523.0035079-.11506.0460711-.125117.0509822-.250468.101029-.376287.1503741-.460243.1800749-.924929.3486904-1.393592.5056128-.953929.3194574-1.924228.5905051-2.905753.811506-.478484.1078111-.959308.2039289-1.442469.2876521-.241114.0420954-.483162.0811506-.725445.1169317-.109915.0163704-.220299.0308699-.330449.0472404.510056-.0762395-.01637.0009354-.137979.0156688-.983162.1176333-1.97217.1863892-2.962348.2060337-1.002806.0196445-2.006782-.0112254-3.006782-.0923761-.490646-.0399906-.978251-.0986903-1.467025-.155753.507249.0594013.009822.0007016-.107344-.0163704-.111085-.0166043-.221702-.0334425-.33232-.0509823-.266136-.0420954-.531571-.0876987-.796538-.1370439-1.984332-.3695042-3.930777-.9396633-5.802152-1.6959776-.106408-.0430308-.212348-.0869972-.318522-.1309635-.245557-.1012629.311974.1344715.068288.0285313-.063377-.027362-.126988-.0544901-.190131-.0818522-.232694-.1017305-.463985-.2057998-.694106-.3131431-.483864-.2254443-.961881-.4635173-1.433349-.7137511-.914173-.4852667-1.804257-1.0166043-2.66581-1.5900375-.4574364-.3044901-.9071558-.6211412-1.3482222-.9487839-.0965856-.0720299-.1927035-.1440598-.2885875-.2172591-.0713283-.0542563-.2815715-.2254443.0434986.0346118-.037652-.0299345-.0762394-.0591675-.1143592-.0888681-.2291861-.1796071-.4562675-.3620206-.6805426-.5477081-.8559401-.7081385-1.6756314-1.4597755-2.4560336-2.2502339-.7869504-.7967727-1.5339102-1.6326006-2.2394762-2.5018709-.0979887-.1206735-.1952759-.2422825-.2916277-.3643592-.0638447-.0806829-.3297474-.4473808-.0774088-.0968195-.1838166-.2553788-.3807296-.5021048-.5661833-.756782-.3447147-.4735735-.6782039-.9553321-1.0002339-1.4448083-.3283442-.4990645-.6442937-1.0063143-.9494855-1.5201122-.3603835-.6066417-1.2303554-.8807297-1.8456501-.4840973-.6106174.393826-.8695042 1.1966791-.4838634 1.8456501"/><path d="m199.25863 8.30721803c.427034-.1028999.857811-.18405051 1.293264-.24415341-.358746.04817586-.717259.09635173-1.075771.14452759 1.168615-.15294668 2.34869-.14499532 3.516604.00912068l-1.075538-.1445276c1.252105.17282507 2.472872.51075772 3.639149.99789523-.322264-.13610851-.644528-.27198316-.966792-.40785781 1.138915.48316183 2.211647 1.10383536 3.195276 1.85453699-.272918-.210711-.546071-.4216558-.818989-.6326006.910664.703695 1.73246 1.5116932 2.441768 2.4186155-.210945-.2731525-.42189-.5460711-.632835-.8192235.45276.5867633.854537 1.2079045 1.200655 1.8631899.462582.8753507 1.479888 1.6012628 2.418615 1.8596819.537886.1686155 1.075772.1927035 1.613424.0722638.538822-.0245557 1.040225-.1845182 1.504678-.4803555.864125-.5570627 1.624649-1.3865762 1.859681-2.4183816.247896-1.0884004.118335-2.1223106-.407857-3.11833494-.706268-1.33676333-1.649205-2.58302151-2.689196-3.67563143-1.033208-1.08606174-2.251403-2.03718428-3.519177-2.83161833-2.60477-1.6323667-5.607109-2.51379794-8.660664-2.72240412-1.660898-.11318989-3.374181.08138447-4.987839.47100094-.969832.23409729-1.92072 1.00888681-2.418615 1.85968194-.295604.46445276-.4558.96608981-.480122 1.50467727-.12044.53765201-.096352 1.07553789.072264 1.61365763.316885.97918615.92376 1.92399438 1.859682 2.41838166.981057.51824135 2.026426.67165575 3.118335.40785781"/><path d="m48.6704397.50293833c-5.9925164-1.446913-12.5074837.4667914-16.8807297 4.79022451-.6948082.6873246-1.2862488 1.45720299-1.8753508 2.23573433-.4137044.54677269-.7806361 1.12652011-1.1007951 1.73269411-.5037418.95369502-.6990178 2.06127222-.4078578 3.11833492.2584191.9387278.9840973 1.9557998 1.8596819 2.4183816.9389617.4962582 2.0769411.7450889 3.118101.4080917.9791862-.3168849 1.9239944-.9237605 2.4186156-1.8596819.3461178-.6552853.7478952-1.2764266 1.2004209-1.8631899-.2107109.2731524-.4216557.5460711-.6326005.8192235.7093077-.9069223 1.5311038-1.7149204 2.441768-2.41861549-.2729186.21094479-.5460711.42188959-.8189897.63260059.9833957-.75070162 2.056361-1.37137514 3.1950421-1.85453698-.3222638.13587465-.6442938.2717493-.9665576.40785781 1.1660431-.48713751 2.387044-.82507015 3.6391488-.99789523l-1.0755379.1445276c1.1679139-.154116 2.3479888-.16206735 3.5166043-.00912067l-1.0755379-.1445276c.434986.0601029.8659963.14125351 1.2930309.24415342 1.0406922.25140318 2.1835828.13914873 3.1183349-.40785782.8393358-.49134705 1.6398503-1.45369504 1.8596819-2.41838166.2359682-1.03601497.1847521-2.19878391-.4080917-3.11833489-.5612722-.87067353-1.3847053-1.61014967-2.4183816-1.85968195"/><path d="m74.5247895 53.1094163c-4.7008887-1.0802151-9.470767-1.8430776-14.2675397-2.342376-4.7806361-.4974275-9.5869972-.7282507-14.3926567-.758653-4.8318522-.0304022-9.6634706.1414874-14.4852666.4483162-4.8435454.3084659-9.6777362.7530403-14.5032741 1.27058-4.7981759.5142657-9.58840039 1.1007951-14.37698785 1.6990178-.60827877.0760056-1.21655753.1522451-1.82460244.2284846-.36155285.0451356-.67446211.2775958-.67446211.6744621 0 .3292797.31057063.7200654.67446211.6744621 4.78531338-.5998597 9.57132839-1.1957437 14.36459309-1.7273153 4.8014499-.5322731 9.6106174-1.0004677 14.4296071-1.3421422 4.799579-.3400374 9.6092142-.554724 14.421188-.5781103 4.7850795-.0233864 9.5727316.1431244 14.3398036.5647801 4.7507016.4202526 9.4780168 1.1005613 14.143826 2.0921422.5986904.1272217 1.1962114.26029 1.792797.3971001.8449485.1943405 1.2055659-1.1059401.3585126-1.3007484"/><path d="m71.6763096 56.5136264c-4.0867633.0531566-8.1716557.2138208-12.2495322.4851024-4.0977549.2724509-8.1882601.6552853-12.2652012 1.1475678-4.0778765.4922825-8.1431244 1.0902713-12.1894293 1.7974743-4.0453695.7069691-8.0717961 1.5226847-12.0734331 2.4457437-3.9822264.9190832-7.9398971 1.9441066-11.8671656 3.075304-.4957905.1431244-.9908794.287652-1.48550049.4335828-.83068288.2450888-.47708139 1.5472404.35851263 1.3005145 3.92001866-1.1566885 7.86997196-2.2100094 11.84611786-3.1557531 3.9567353-.9408325 7.9382601-1.7764265 11.9394294-2.5058465 4.0002338-.7291862 8.0201122-1.3540693 12.0537886-1.866464 4.0542563-.5149673 8.1223105-.9218896 12.1983161-1.2195978 4.0563611-.2963049 8.1204397-.484565 12.1868569-.5636108.5156689-.0100562 1.0313377-.0182414 1.5472404-.0247896.8671656-.0114593.8697381-1.3603835 0-1.3492277"/><path d="m72.1475678 60.9356324c-3.6138915.7867166-7.2006548 1.6976146-10.751637 2.7324603-3.5339102 1.0299345-7.032507 2.1817119-10.4873714 3.4518241-3.493218 1.2843779-6.9422357 2.6898971-10.3398036 4.2093078-3.3603835 1.5028063-6.6693171 3.1206735-9.9186155 4.8505613-3.2647334 1.7378391-6.4693639 3.5886342-9.6057062 5.5491113-.3847054.2404116-.7680075.4826941-1.1506081.7263798-.7303555.4649205-.0544902 1.6326005.6807764 1.1646398 3.1052386-1.9768475 6.2778298-3.847521 9.5116932-5.6059401 3.2340973-1.7581852 6.5287652-3.4052853 9.8758185-4.9373246 3.3101029-1.5152011 6.6721235-2.9155753 10.078812-4.1994855 3.4445744-1.2981759 6.9335828-2.4784846 10.4590739-3.5371843s7.0874649-1.9962582 10.6777362-2.8089336c.4424696-.1000935.8851731-.1980823 1.3285781-.2946679.3559401-.0776427.5636109-.4922825.4710009-.8295136-.101029-.3678671-.4726379-.5488774-.8297474-.4712348"/><path d="m154.596071 54.4102816c4.652245-1.0689897 9.37044-1.8295135 14.118569-2.3157156 4.758419-.4873714 9.541628-.7116464 14.324135-.7380729 4.808465-.0264266 9.616697.1468662 14.414873.453695 4.819925.3079981 9.630496.7511693 14.432648 1.2659027 4.798175.5142657 9.5884 1.101029 14.376987 1.6992516.608279.0760057 1.216324.1520113 1.824603.2282507.36202.0453696.674462-.3426099.674462-.6744621 0-.4020112-.311272-.6288587-.674462-.6742282-4.808934-.6028999-9.618335-1.2015903-14.435454-1.7350328-4.824836-.5346117-9.657624-1.0037418-14.500468-1.3444808-4.822731-.3395697-9.655986-.5514499-14.491113-.5692236-4.808232-.0175397-9.618802.1569224-14.408091.5909729-4.775258.4326474-9.531572 1.1185688-14.222405 2.1152947-.59869.1272217-1.196211.2600561-1.792797.3971001-.84565.1943405-.487839 1.4950888.358513 1.3007483"/><path d="m157.086015 57.8627372c4.086763.0528531 8.171656.2137512 12.249532.4847989 4.058232.2701122 8.108981.6480355 12.1471 1.133536 4.037185.4852666 8.061039 1.0816183 12.066184 1.7839102 4.025491.7055659 8.032039 1.5189429 12.014265 2.4387278 3.962582.9155753 7.900842 1.9363891 11.809168 3.0619738.495556.1428905.990645.2874181 1.4855.4333489.834191.2462582 1.190599-1.0551918.358513-1.3007484-3.919785-1.1566884-7.869972-2.2100093-11.845884-3.155753-3.995323-.9501871-8.016137-1.7930309-12.056829-2.5271281-4.041394-.7345651-8.102666-1.3585127-12.177035-1.8783911-4.073667-.5196445-8.161365-.9300748-12.257249-1.2303554-4.076006-.2988775-8.159963-.4883069-12.246025-.5680543-.515668-.0100561-1.031337-.0182413-1.54724-.0250902-.868335-.0109248-.868803 1.3377656 0 1.3492249"/><path d="m156.256057 62.2362639c3.59682.7832086 7.166745 1.6889616 10.701356 2.7179607 3.534378 1.0287652 7.033209 2.1791394 10.488541 3.4483162 3.417213 1.255145 6.791862 2.6258185 10.114593 4.112956 3.359916 1.5037418 6.668382 3.1227783 9.916979 4.8536015 3.24883 1.7308232 6.438026 3.5734331 9.559401 5.5245557.384705.2404116.768241.4826941 1.150842.7263797.734565.467493 1.411833-.6994855.680776-1.1648737-3.119972-1.986202-6.307764-3.8650608-9.557764-5.6309635-3.234565-1.7572497-6.529701-3.4031805-9.877222-4.9342844-3.384705-1.5477081-6.822497-2.9812909-10.30449-4.2949017-3.444106-1.2995791-6.932881-2.4805894-10.458138-3.5406923-3.541862-1.0647801-7.12044-2.0074836-10.727783-2.8239008-.44247-.1000936-.885173-.1980823-1.328344-.2949018-.355707-.0774088-.729654.1066417-.829748.4712348-.09261.3369972.113424.7518709.471001.8295136"/></g><g fill="#956dac" transform="translate(123.947544 33.380628)"><path d="m71.2520346 28.6880028c-1.3019177 0-1.3042563 2.0231525 0 2.0231525 1.3019177 0 1.3040225-2.0231525 0-2.0231525"/><path d="m49.8310337 14.6820159c-1.3019177 0-1.3040225 2.0233863 0 2.0233863 1.3019177 0 1.3042563-2.0233863 0-2.0233863"/><path d="m48.6775959 9.07956034c-1.3019177 0-1.3040225 2.02338636 0 2.02338636 1.3019177 0 1.3042563-2.02338636 0-2.02338636"/><path d="m63.2160664 22.9078812c-1.3019177 0-1.3042563 2.0231525 0 2.0231525 1.3019177 0 1.3040225-2.0231525 0-2.0231525"/><path d="m59.5909495 12.6916511c-1.3019177 0-1.3040225 2.0233863 0 2.0233863 1.3019177 0 1.3040224-2.0233863 0-2.0233863"/><path d="m60.9603368 27.1372778c-1.3019177 0-1.3042564 2.0231525 0 2.0231525 1.3019176 0 1.3040224-2.0231525 0-2.0231525"/><path d="m61.9575538 36.7382601c-1.7675398-1.6945744-2.6891955 3.3444808.1583255 1.3673994-.0869972-.138681.5009355-.2537418-.1583255-1.3673994"/><path d="m54.9271515 23.0435454c-1.3019176 0-1.3040224 2.0231524 0 2.0231524 1.3019177 0 1.3042564-2.0231524 0-2.0231524"/><path d="m50.5277128 22.0619504c-1.3019177 0-1.3042563 2.0231525 0 2.0231525 1.3019177 0 1.3040225-2.0231525 0-2.0231525"/><path d="m42.7735734 23.18971c-1.3019176 0-1.3040224 2.0233864 0 2.0233864 1.3019177 0 1.3042563-2.0233864 0-2.0233864"/><path d="m41.5049111 10.9244387c-1.3019176 0-1.3040224 2.0231525 0 2.0231525 1.3019177 0 1.3040225-2.0231525 0-2.0231525"/><path d="m28.652362 16.3619972c-1.3019177 0-1.3042563 2.0231525 0 2.0231525 1.3019177 0 1.3040225-2.0231525 0-2.0231525"/><path d="m25.8559167 9.37347989c-1.3019176 0-1.3042563 2.02338631 0 2.02338631 1.3019177 0 1.3040225-2.02338631 0-2.02338631"/><path d="m15.2090973 8.36655753c-1.3019177 0-1.3040225 2.02315247 0 2.02315247 1.3019177 0 1.3040224-2.02315247 0-2.02315247"/><path d="m23.1771048 4.01632367c-1.3019177 0-1.3040225 2.02315248 0 2.02315248 1.3019177 0 1.3042563-2.02315248 0-2.02315248"/><path d="m31.7875819 7.69602432c-1.9420019-1.77595884-2.8538354 3.42118798.2095416 1.10594013-.0909729-.14920486.4125351-.11646398-.2095416-1.10594013"/><path d="m6.98105706 23.6585594c-1.30191768 0-1.30425631 2.0231525 0 2.0231525 1.30168382 0 1.30402245-2.0231525 0-2.0231525"/><path d="m7.97827409 20.7122077c-1.94200187-1.7759589-2.85383536 3.421188.20954163 1.1059401-.09073901-.1492049.41276894-.1166978-.20954163-1.1059401"/><path d="m1.05977549 20.133957c-1.30191768 0-1.30425631 2.0233863 0 2.0233863 1.30168382 0 1.30402245-2.0233863 0-2.0233863"/><path d="m5.14826941 14.9174696c-1.30191768 0-1.30402245 2.0233863 0 2.0233863 1.30191768 0 1.30402245-2.0233863 0-2.0233863"/><path d="m13.2152011 14.0626286c-.868101 0-.8695042 1.3491581 0 1.3491581.8678672 0 .8692704-1.3491581 0-1.3491581"/><path d="m9.7292797 6.19508887c-.86786716 0-.86950421 1.34892423 0 1.34892423.8678672 0 .8692703-1.34892423 0-1.34892423"/><path d="m15.1521048 4.84992984c.8678671 0 .8695042-1.34915809 0-1.34915809-.8678672 0-.8692704 1.34915809 0 1.34915809"/><path d="m20.2166043 9.00579981c-.8678672 0-.8695042 1.34915809 0 1.34915809.8678672 0 .8692703-1.34915809 0-1.34915809"/><path d="m18.4039289.10778765c-.8676333 0-.8692703 1.34915809 0 1.34915809.868101 0 .8695042-1.34915809 0-1.34915809"/><path d="m32.1999298 5.76321328c-.8678671 0-.8692703 1.34892423 0 1.34892423.8681011 0 .8695043-1.34892423 0-1.34892423"/><path d="m34.4556595 19.0155519c-.8678672 0-.8692704 1.3489242 0 1.3489242.868101 0 .8695042-1.3489242 0-1.3489242"/><path d="m35.3017072 10.8385641c-.8678672 0-.8695042 1.3489242 0 1.3489242.8678672 0 .8692703-1.3489242 0-1.3489242"/><path d="m43.9894761 15.2732928c-.8678671 0-.8692703 1.3489242 0 1.3489242.8678672 0 .8695043-1.3489242 0-1.3489242"/><path d="m45.4523854 34.3824836c-.868101 0-.8695042 1.3491581 0 1.3491581.8678672 0 .8692704-1.3491581 0-1.3491581"/><path d="m48.4183817 29.7689429c-.8681011 0-.8695042 1.3489243 0 1.3489243.8678671 0 .8692703-1.3489243 0-1.3489243"/><path d="m84.1933115 12.2033676c-.868101 0-.8695042 1.3489243 0 1.3489243.8678672 0 .8692704-1.3489243 0-1.3489243"/><path d="m54.3341674 30.1532975c-.868101 0-.8692703 1.3489242 0 1.3489242.8678672 0 .8695043-1.3489242 0-1.3489242"/><path d="m59.9770346 20.8209308c-.868101 0-.8695042 1.3491581 0 1.3491581.8678672 0 .8692704-1.3491581 0-1.3491581"/><path d="m76.1193171 13.1920486c-.8678671 0-.8695042 1.3489243 0 1.3489243.8678672 0 .8692704-1.3489243 0-1.3489243"/><path d="m65.8947615 32.2678906c-.8681011 0-.8695043 1.3489242 0 1.3489242.8678671 0 .8692703-1.3489242 0-1.3489242"/><path d="m67.022521 27.1925631c-.8678671 0-.8692703 1.3489243 0 1.3489243.8678672 0 .8692704-1.3489243 0-1.3489243"/><path d="m70.2127923 20.1350795c.0021048-.0577643.0130964-.1152947 0-.1732928-.0035079.0318054.024088.0289991 0 .1732928m-.2130495.3040225c-.0341441.0142656-.068522.028999-.1026661.0432647.0549579-.0147334.1003274-.046305.1463985-.0769411-.0144995.0112255-.0292329.0224509-.0437324.0336764m.3662301-.5100562c.0156688-2.0486436-3.1648737.7822732-.4630496.7659028.0979888-.0790459.362956-.3318522.4630496-.7659028"/><path d="m81.8864359 23.1093078c.0018709-.0577643.0130964-.1155286 0-.1732928-.0035079.0318054.024088.028999 0 .1732928m-.2130496.3040224c-.034144.0142657-.0685219.0287652-.1028999.0432647.0551918-.0149672.1005613-.0465388.1463985-.0771749-.0144995.0112255-.028999.0224509-.0434986.0339102m.3662302-.5100561c.0156688-2.0486436-3.1648737.7822731-.4630496.7659027.0979888-.0790458.3627222-.3318522.4630496-.7659027"/><path d="m85.0172123 28.5468662c.001871-.0577642.0130964-.1152946 0-.1732928-.0035079.0318055.024088.0289991 0 .1732928m-.2130495.3040225c-.0341441.0142656-.068522.028999-.1028999.0432647.0551917-.0149672.1005612-.0463049.1463985-.0771749-.0144996.0114593-.0289991.0224509-.0434986.0339102m.3662301-.5098223c.0156688-2.0488774-3.1648737.7820393-.4632835.7656689.0982227-.0790459.3629561-.3320861.4632835-.7656689"/><path d="m75.763377 26.4875351c-.8678672 0-.8695042 1.3491581 0 1.3491581.8678672 0 .8695042-1.3491581 0-1.3491581"/><path d="m74.9658793 20.277362c-.868101 0-.8695042 1.3489242 0 1.3489242.8678672 0 .8692704-1.3489242 0-1.3489242"/><path d="m76.8911366 32.2678906c-.8678672 0-.8692704 1.3489242 0 1.3489242.8678671 0 .8695042-1.3489242 0-1.3489242"/><path d="m73.6476614 39.0618101c-.8678672 0-.8692704 1.3491581 0 1.3491581.8678671 0 .8695042-1.3491581 0-1.3491581"/></g><g fill="#956dac" transform="translate(22.684682 33.380628)"><path d="m13.9388213 28.6880028c1.3019177 0 1.3042563 2.0231525 0 2.0231525-1.3016838 0-1.3040224-2.0231525 0-2.0231525"/><path d="m35.3598223 14.6820159c1.3019176 0 1.3040224 2.0233863 0 2.0233863-1.3019177 0-1.3042564-2.0233863 0-2.0233863"/><path d="m36.5132834 9.07956034c1.3019177 0 1.3042564 2.02338636 0 2.02338636-1.3019176 0-1.3040224-2.02338636 0-2.02338636"/><path d="m21.9749065 22.9078812c1.3016838 0 1.3040224 2.0231525 0 2.0231525-1.3019177 0-1.3040225-2.0231525 0-2.0231525"/><path d="m25.5999065 12.6916511c1.3019176 0 1.3042563 2.0233863 0 2.0233863-1.3019177 0-1.3040225-2.0233863 0-2.0233863"/><path d="m24.2306361 27.1372778c1.3019177 0 1.3040225 2.0231525 0 2.0231525-1.3019177 0-1.3040224-2.0231525 0-2.0231525"/><path d="m23.2333022 36.7382601c1.7675397-1.6945744 2.6891955 3.3444808-.1583256 1.3673994.0869972-.138681-.5009354-.253508.1583256-1.3673994"/><path d="m30.2637044 23.0435454c1.3019177 0 1.3042563 2.0231524 0 2.0231524-1.3019177 0-1.3040225-2.0231524 0-2.0231524"/><path d="m34.6632601 22.0619504c1.3019176 0 1.3040224 2.0231525 0 2.0231525-1.3019177 0-1.3042564-2.0231525 0-2.0231525"/><path d="m42.4172825 23.18971c1.3019177 0 1.3040225 2.0233864 0 2.0233864-1.3019177 0-1.3042563-2.0233864 0-2.0233864"/><path d="m43.6859448 10.9244387c1.3019177 0 1.3042563 2.0231525 0 2.0231525-1.3019177 0-1.3040224-2.0231525 0-2.0231525"/><path d="m56.5385173 16.3619972c1.3019177 0 1.3042563 2.0231525 0 2.0231525-1.3019177 0-1.3040224-2.0231525 0-2.0231525"/><path d="m59.3350561 9.37347989c1.3019177 0 1.3040225 2.02338631 0 2.02338631-1.3019177 0-1.3042563-2.02338631 0-2.02338631"/><path d="m69.981899 8.36655753c1.3019177 0 1.3040224 2.02315247 0 2.02315247-1.3019177 0-1.3042563-2.02315247 0-2.02315247"/><path d="m62.0137512 4.01632367c1.3019176 0 1.3042563 2.02315248 0 2.02315248-1.3019177 0-1.3042563-2.02315248 0-2.02315248"/><path d="m53.4032741 7.69602432c1.9420019-1.77595884 2.8538353 3.42118798-.2093078 1.10594013.090739-.14920486-.4127689-.11646398.2093078-1.10594013"/><path d="m78.2099392 23.6585594c1.3019177 0 1.3040224 2.0231525 0 2.0231525-1.3019177 0-1.3042563-2.0231525 0-2.0231525"/><path d="m77.2125819 20.7122077c1.9420018-1.7759589 2.8538353 3.421188-.2095417 1.1059401.0909729-.1492049-.4125351-.1166978.2095417-1.1059401"/><path d="m84.1311974 20.133957c1.3019177 0 1.3040224 2.0233863 0 2.0233863-1.3019177 0-1.3040225-2.0233863 0-2.0233863"/><path d="m80.0425865 14.9174696c1.3021516 0 1.3042563 2.0233863 0 2.0233863-1.3016838 0-1.3040224-2.0233863 0-2.0233863"/><path d="m71.9756548 14.0626286c.868101 0 .8695042 1.3491581 0 1.3491581-.8678671 0-.8692703-1.3491581 0-1.3491581"/><path d="m75.4615762 6.19508887c.8681011 0 .8695042 1.34892423 0 1.34892423-.8678671 0-.8692703-1.34892423 0-1.34892423"/><path d="m70.0387512 4.84992984c-.8678672 0-.8695042-1.34915809 0-1.34915809.8678671 0 .8695042 1.34915809 0 1.34915809"/><path d="m64.9743686 9.00579981c.8678671 0 .8692703 1.34915809 0 1.34915809-.8678672 0-.8695042-1.34915809 0-1.34915809"/><path d="m66.786927.10778765c.8678672 0 .8692704 1.34915809 0 1.34915809-.8678671 0-.8695042-1.34915809 0-1.34915809"/><path d="m52.9909261 5.76321328c.8678672 0 .8692703 1.34892423 0 1.34892423-.8678672 0-.8695042-1.34892423 0-1.34892423"/><path d="m50.7351964 19.0155519c.8678672 0 .8692704 1.3489242 0 1.3489242-.8678671 0-.8695042-1.3489242 0-1.3489242"/><path d="m49.8892657 10.8385641c.8678671 0 .8692703 1.3489242 0 1.3489242-.8678672 0-.8692704-1.3489242 0-1.3489242"/><path d="m41.2013798 15.2732928c.8678672 0 .8692703 1.3489242 0 1.3489242-.8678672 0-.8695042-1.3489242 0-1.3489242"/><path d="m39.7384939 34.3824836c.868101 0 .8695042 1.3491581 0 1.3491581-.8678671 0-.8692703-1.3491581 0-1.3491581"/><path d="m36.7725912 29.7689429c.868101 0 .8692704 1.3489243 0 1.3489243-.8678672 0-.8692703-1.3489243 0-1.3489243"/><path d="m.99754443 12.2033676c.86810103 0 .86950421 1.3489243 0 1.3489243-.86786716 0-.86927034-1.3489243 0-1.3489243"/><path d="m30.8567119 30.1532975c.868101 0 .8695042 1.3489242 0 1.3489242-.8678672 0-.8695042-1.3489242 0-1.3489242"/><path d="m25.2138213 20.8209308c.8681011 0 .8695042 1.3491581 0 1.3491581-.8678671 0-.8692703-1.3491581 0-1.3491581"/><path d="m9.07153882 13.1920486c.86810103 0 .86950421 1.3489243 0 1.3489243-.86786716 0-.86927034-1.3489243 0-1.3489243"/><path d="m19.2962114 32.2678906c.868101 0 .8695042 1.3489242 0 1.3489242-.8678672 0-.8692703-1.3489242 0-1.3489242"/><path d="m18.1684752 27.1925631c.8678672 0 .8692704 1.3489243 0 1.3489243-.8678672 0-.8695042-1.3489243 0-1.3489243"/><path d="m14.9664406 20.0485267c.0039757-.0287652.0077175-.0577643.0116932-.0867634-.0130964.0579982-.0018709.1155286 0 .1732928-.0039757-.0285313-.0077175-.0577642-.0116932-.0865294m.1810103.3568755c.0460711.0306362.0914406.0622077.1463985.0769411-.0215154-.0168382-.0425632.0002339-.1463985-.0769411m-.2425164-.2254443c.0699252.724275 1.8084659.9745089 1.29116-.5734331-.2259121-.6281572-1.7254444-.6145931-1.29116.5734331"/><path d="m3.29279701 23.0227549c.00397567-.0289991.00771749-.0577643.01169317-.0867633-.01309635.0577642-.00187091.1155285 0 .1732928-.00397568-.0287652-.0077175-.0577643-.01169317-.0865295m.18124415.3566417c.04583723.0306361.09120674.0622077.14616464.077175-.02151544-.0170721-.04279701.0002338-.14616464-.077175m-.24275023-.2252104c.07015902.724275 1.80846585.9745088 1.29115996-.573667-.22614593-.6279233-1.72544434-.6143592-1.29115996.573667"/><path d="m.16202058 28.4603134c.00397568-.0287652.00771749-.0577643.01169317-.0867634-.01309635.0579982-.00187091.1155286 0 .1732928-.00397568-.0287652-.00771749-.0577642-.01169317-.0865294m.18101029.3566417c.04607109.03087.0914406.0622077.1463985.0771749-.02151543-.017072-.04256314.0002339-.1463985-.0771749m-.24228251-.2252105c.06992517.724275 1.808232.9745089 1.2909261-.573667-.22614593-.6276894-1.72544434-.6143592-1.2909261.573667"/><path d="m9.42747895 26.4875351c.86786715 0 .86950425 1.3491581 0 1.3491581-.86786716 0-.86927034-1.3491581 0-1.3491581"/><path d="m10.2250935 20.277362c.8678672 0 .8692704 1.3489242 0 1.3489242-.86786712 0-.86950416-1.3489242 0-1.3489242"/><path d="m8.29971936 32.2678906c.86786717 0 .86927035 1.3489242 0 1.3489242-.86786716 0-.86950421-1.3489242 0-1.3489242"/><path d="m11.543218 39.0618101c.8678671 0 .8692703 1.3491581 0 1.3491581-.8678672 0-.8692704-1.3491581 0-1.3491581"/></g><path d="m21.7318522 26.6344397c-.4953227.015435-2.3781572-.3395697-2.553087 2.4031806-2.9974275-1.8126754-4.7949018 2.693405-2.0442002 4.4595416 1.6078111.7920954 6.3412067 2.7266137 6.4579046-.6817119.5313377-2.1812441.9560337-5.2355004-1.8606174-6.1810103" fill="#f092b2"/><path d="m18.4083022 41.0193322c-.7172592-.5537886-2.6700188-.412769-3.1917681 1.3500935-9.06969126-4.2853134-.0514499 12.4410664 3.5430309 3.7743218.8227315-1.3386342 1.5194107-3.8299813-.3512628-5.1244153" fill="#80cde7"/><path d="m224.989312 41.88603c-.613891-1.9833957-3.161131-2.9693639-5.301216-1.5696913.190599-5.0996258-6.501871-4.6466324-7.47521-.352666-.87044 3.9539289 1.577643 12.321796 6.567353 9.1230121 3.327876-.9740411 7.216089-3.1393826 6.209073-7.2006548" fill="#7dc6b6"/></g></svg>