<svg height="98" viewBox="0 0 203 98" width="203" xmlns="http://www.w3.org/2000/svg"><g fill="none" fill-rule="evenodd"><path d="m133.210945 29.7857811c-2.923761-21.34611786-52.1073434-12.9770814-56.7259122 3.3849392-5.801216 26.9277362 60.8159492 23.0652479 56.7259122-3.3849392" fill="#814f9a"/><path d="m105.308115 51.3487138c.306829 1.73971.696679 3.4637511 1.168148 5.1662768.188494.6796072.965388 1.1665108 1.659495.9420019.694808-.2247427 1.143826-.9305425.942002-1.6594948-.471469-1.7022919-.861319-3.4260992-1.168148-5.1658092-.122778-.6966791-1.011459-1.1517774-1.659495-.9422357-.749065.2422825-1.073667.9130028-.942002 1.659261" fill="#814f9a"/><path d="m137.351286 74.5964219c-6.561506 25.8709071-32.905987 27.2249771-47.8122073 18.6447614-12.6017306-7.5696913-17.5100561-23.830449-17.2322264-36.5942469 23.8793265 3.0514499 49.3643597 1.1449953 65.3051917-7.1760992 1.214219 8.3631899 1.834659 16.933349-.260758 25.1255847" fill="#f092b2"/><path d="m65.8279 39.1916978c-14.6499064-20.2747895-45.626754-2.7801683-37.0977549 13.5505145 10.3180543 23.9151076 51.3762863 11.5053789 37.0977549-13.5505145" fill="#f092b2"/><path d="m53.6836764 23.4035313c-5.8550046-7.7174929-13.5699251 2.3131432-9.6321328 8.5652479 6.3718428 8.6103836 13.4749766-2.097521 9.6321328-8.5652479" fill="#814f9a"/><path d="m143.632016 39.1916978c14.649906-20.2747895 45.626754-2.7799345 37.097755 13.5505145-10.318054 23.9151076-51.376286 11.5053789-37.097755-13.5505145" fill="#f092b2"/><path d="m152.933583 21.3009121c5.220767-8.1601965 13.711412 1.2231057 10.284846 7.7696445-5.66464 9.0912067-13.599626-1.0161366-10.284846-7.7696445" fill="#814f9a"/><path d="m90.3913238 57.9149439c-6.4113658 20.4681945-10.1534144 14.4782507-14.7121142-.7553789 4.856174.6295604 9.8112723.7553789 14.7121142.7553789" fill="#fefefe"/><path d="m134.428672 63.355449c-2.132367 10.6237138-11.385407-5.1784378-13.426099-8.0212816 4.680776-.9990645 10.000467-2.7074368 14.514031-4.8381665.162068 4.3075304-.197614 8.6330683-1.087932 12.8594481" fill="#fefefe"/><g fill="#814f9a"><path d="m147.251661 41.2778531c-.549112.5144996-1.112723 1.0130964-1.691067 1.4941534-.291628.2422826-.586529.4803555-.885173.7142189-.052385.0413939-.313611.2413471-.027596.0226848-.050514.0385875-.100561.0771749-.151076.1157624-.177502.1349392-.35594.2684752-.535313.400608-1.248831.9193172-2.548644 1.7691768-3.884939 2.5558934-1.343779.7913938-2.724977 1.5187091-4.132835 2.190131-.733161.3493919-1.473807.6833489-2.220767 1.0035079-.055191.0233864-.376754.159261-.054256.0238541-.094481.0395229-.189195.0792797-.283676.1185687-.189664.078812-.380028.1566885-.570393.2336296-.382835.1545837-.767306.3058934-1.152713.4534612-6.371141 2.4403648-13.076941 3.9646866-19.821562 4.9260991-.180075.025725-.360384.0509823-.540692.0757718-.108045.0149672-.216324.0297006-.324603.044434.34986-.0474742-.017072.0018709-.074368.0093546-.46913.061506-.938494.1204396-1.408326.1765669-.829981.099158-1.660898.1901309-2.492516.2726847-1.725912.1718896-3.455099.3089336-5.186156.4130028-3.3381662.2008887-6.6838163.2811038-10.0278294.2460243-3.1637044-.0336763-6.3269411-.1702525-9.4808232-.4200187-1.4291394-.1131899-2.8566417-.2497661-4.28087-.4132366-.6913003-.0790459-1.3840037-.157624-2.0727315-.2565482.4508887.0645463-.1244153-.0177736-.2301216-.0322732-.1665108-.0233863-.3327877-.0467727-.4990646-.0708606-.3271749-.0472404-.6543498-.0961179-.981057-.1466324-2.3166511-.3585126-4.6241815-.7958372-6.8963985-1.3753508-.9464453-.2411131-1.8872779-.5077174-2.8152479-.8140785-.4087933-.1349392-.815014-.2775959-1.217493-.4305426-.1716558-.0652479-.3428438-.1323667-.5128625-.2015903-.1183349-.0481758-.4665575-.2210009.0107577.0060805-.0982226-.0465388-.2004209-.0860618-.299579-.1304958-.3037886-.1358747-.6038354-.2806361-.8982694-.4359214-.6237138-.328812-1.4953228-.1789055-1.8456502.4840973-.3290458.623246-.1824134 1.4939195.4838635 1.8454162 1.5488774.816885 3.2301216 1.3945276 4.9083255 1.8797942 2.1503742.6223106 4.3456501 1.0876988 6.549579 1.4745089 5.8500936 1.0268943 11.7970066 1.5311039 17.731291 1.6910664 6.8009822.1838167 13.6237141-.1007951 20.3781571-.9265668 6.957671-.8505613 13.880028-2.2301217 20.509121-4.539523 6.164172-2.1473339 12.101964-5.0851263 17.141487-9.2759588.578344-.4812909 1.142189-.9796539 1.691066-1.4941534.531806-.498363.503508-1.4043499 0-1.907624-.530168-.5304022-1.374649-.4997661-1.907623 0"/><path d="m65.7529936 46.6043031c-3.8138448-1.4361553-7.6587933-2.7881198-11.5327409-4.0533209-3.8557063-1.2591206-7.7390084-2.4324134-11.6466324-3.5194106-3.9260991-1.0919084-7.8765201-2.0965856-11.8472872-3.0128625-3.9710009-.9162769-7.9618802-1.7439196-11.9695977-2.4824603s-8.0318055-1.3875117-12.06852201-1.9462114c-.51449953-.0713283-1.02923293-.1407858-1.54420019-.2095416-.36178671-.0481759-.67446211.3444808-.67446211.6744621 0 .4045837.31150608.6260524.67446211.6744621 3.99836296.5336764 7.9847989 1.1594949 11.9550982 1.8713751 3.9922825.715856 7.9688962 1.5201123 11.9253976 2.4123013 3.9567353.8921889 7.8935921 1.8718428 11.8070627 2.93826 3.9132366 1.0664172 7.8028531 2.2195978 11.6648737 3.4586062 3.8622544 1.2387745 7.696913 2.563377 11.5 3.972638.4663236.172825.9324135.3470533 1.3980355.5224508.3409729.1283911.7394762-.1426566.8297475-.4710009.1038353-.3786249-.1290927-.7008887-.4712348-.8297474"/><path d="m60.8103369 48.2518475c-3.8863424-.5956501-7.7871843-1.097521-11.6980824-1.5004677-3.8900841-.4003742-7.7899906-.703695-11.695042-.909261-3.9249299-.2065014-7.854537-.3143124-11.7846118-.323667-3.9106642-.0093545-7.8213284.0790459-11.7273153.265435-3.90622075.1863892-7.80753038.4702994-11.69948548.8524322-.48643592.047942-.97263798.0972872-1.45884004.1480355-.36225444.037652-.67446211.2829748-.67446211.6742283 0 .335594.30986903.7125818.67446211.6744621 7.77923293-.8112722 15.59775492-1.2343311 23.41908322-1.2647334 7.7820393-.0301684 15.5652479.3267072 23.31174 1.0694574 4.3388681.4162769 8.6655753.9543967 12.9740411 1.614827.3594481.0551918.7249767-.0909729.8295136-.471001.0879327-.3192235-.1087465-.7743217-.4710009-.8297474"/><path d="m59.8424463 51.146609c-5.6024322 2.3571094-11.2050982 4.7144527-16.8077642 7.0715622-5.5846586 2.3496258-11.1693172 4.6992516-16.7539757 7.0491113l-9.4275024 3.9663237c-.335594.1410196-.5764733.4459775-.4710009.8297474.0867633.3161834.4918148.6131899.8295136.4710009 5.602666-2.3573433 11.205332-4.7144527 16.8079981-7.0715622 5.5846586-2.3496258 11.1693171-4.6994855 16.7539757-7.0491113 3.1424228-1.3220299 6.2850795-2.6440599 9.4272684-3.9663237.3355941-.1412535.5767072-.4459775.4712348-.8295135-.0867633-.3164172-.4918147-.6131899-.8297474-.4712348"/><path d="m137.578531 41.2847053c3.896399-1.0830215 7.816418-2.0811506 11.756782-2.991347 3.96001-.9146399 7.940131-1.7411132 11.936623-2.4787184 3.976848-.7340973 7.970066-1.3804958 11.975679-1.9382601 4.004677-.5577643 8.022217-1.0224509 12.047708-1.3999065 4.02666-.3774555 8.061506-.666043 12.100795-.8648269.514733-.0252573 1.029701-.0491113 1.544668-.0715622.864593-.0378859.869504-1.387044 0-1.3489242-4.060337.1777362-8.11623.4441066-12.16464.8016838-4.06782.3592142-8.127923.8094013-12.175631 1.3498597-4.049112.5404583-8.086296 1.1662769-12.107344 1.8842376-4.000701.7142189-7.9855 1.5175397-11.950655 2.4090271-3.965154.8912535-7.910196 1.8706735-11.831618 2.9377923-.497427.1354069-.994153.272217-1.490879.4101965-.835126.2322263-.48059 1.534144.358512 1.3007483"/><path d="m142.175865 43.3891487c3.899673-.246492 7.804958-.3966323 11.711881-.4480823 3.887277-.0512161 7.775959-.0056127 11.661132.1365763 3.904817.1428905 7.805659.3833021 11.698316.720767 3.85173.3341909 7.695977.7607577 11.525959 1.2878859 3.870907.532507 7.72825 1.1620674 11.567352 1.8879794.477549.0902713.954631.1821796 1.431712.2754911.356876.0696913.727783-.1012628.829514-.4712348.091206-.3306828-.111787-.7593545-.471001-.8295135-3.834659-.7490646-7.687793-1.4036483-11.555192-1.9602432-3.907858-.5624416-7.82928-1.0304023-11.76029-1.3978017-3.890318-.3636577-7.789523-.630262-11.692937-.7993452-3.903649-.1690833-7.811273-.2406455-11.718429-.2146866-3.926567.0264265-7.852432.1515435-11.772685.3755846-.485266.0278298-.970299.0570627-1.455332.0876988-.363657.0231525-.674462.2934986-.674462.6744621 0 .3472872.309168.6976146.674462.6744621"/><path d="m142.184986 46.234565c5.371141 2.845884 10.742049 5.6915342 16.112722 8.5374182l16.061272 8.51029c3.012629 1.5961178 6.025024 3.1922357 9.037652 4.7883536.766605.4062207 1.449018-.7577175.680777-1.1646399-5.370907-2.845884-10.741815-5.6915341-16.112956-8.5374181-5.353368-2.8367634-10.707203-5.6735267-16.060805-8.5100562-3.012628-1.5963517-6.025257-3.1924696-9.037885-4.7885874-.766371-.4062208-1.448784.7577175-.680777 1.1646398"/></g><path d="m137.351286 74.5964219c-7.62956 30.1405521-42.4183813 27.2457901-54.5046769 13.1564546 8.3730121-7.6599626 22.4473809-9.3026193 29.0912069.6562208 4.401777-10.4604771 14.726146-16.9611787 25.41347-13.8126754" fill="#e76698"/><path d="m39.5662302 17.5163938c1.3381665-1.5895697 2.6732928-3.1847521 4.0731993-4.7205332.9111319-.9995323 1.851029-1.9978952 2.9242282-2.82694105-.2731524.21071095-.5460711.42165575-.8189897.63260055.4352199-.3330215.8959308-.63587464 1.4008419-.85266603-.3222638.13610851-.6445276.27198313-.9665575.40809163.2946679-.1234798.6000935-.21375113.9169785-.25654813-.3585126.04817586-.7172591.09635173-1.0757718.14452763.2649673-.0329748.5306361-.0313377.7956034.0037418l-1.0757717-.14452762c.3255378.04653882.6391487.14148742.9424695.26753972-.3222637-.1361085-.6445275-.27198312-.9667913-.40785777.7004209.29747427 1.3302151.73924227 1.9305425 1.20159027-.2731525-.2109448-.5460711-.4216558-.8189897-.6326006 1.743218 1.3507952 3.3353602 2.8980356 4.9894762 4.3540693.8110383.7137511 1.755145 1.1852198 2.8615528 1.1852198.9925164 0 2.1782039-.4408326 2.861319-1.1852198.7081384-.7712816 1.2336296-1.7836764 1.1854537-2.8615529-.046305-1.0332086-.3821328-2.15434985-1.1854537-2.86131898-1.4113658-1.24228251-2.7846118-2.5313377-4.2266137-3.73807297-.7609915-.6368101-1.5388213-1.26449953-2.364593-1.81548175-.7188962-.47942002-1.5072498-.82834425-2.3196913-1.12371376-.2074369-.07553788-.4200187-.13306828-.6375117-.17165575-.546305-.09681946-1.1393826-.20860617-1.7053321-.18615528-1.2701123.05028063-2.159261.34448082-3.2949018.86178671-.8157156.37160898-1.51029.95159027-2.2095416 1.50116932-.5972872.46959775-1.1508419.99204864-1.6847521 1.53203929-1.8624883 1.88400374-3.5491113 3.94457437-5.2532741 5.96959777-.3945276.366464-.6737605.8005145-.8367633 1.3023854-.253508.4822264-.3695043 1.0018709-.3484565 1.5589336 0 .9925163.4408325 2.1782039 1.1852198 2.8615528.7710477.7079046 1.7836763 1.2333957 2.8615528 1.1852199 1.0187091-.0456034 2.178204-.3734799 2.861319-1.1852199" fill="#814f9a"/><path d="m170.727526 7.43264733c-1.939897-1.45088868-3.872077-2.92352666-5.893592-4.25982226-1.443171-.95392891-3.01029-1.87090739-4.688027-2.3362956-.569925-.15785781-1.18709-.22240412-1.764499-.28250702-.228952-.02385407-.457905-.03227315-.687325-.01192703-1.219831.10921422-2.114593.32857811-3.209775.90364827-1.279935.67188961-2.334425 1.78391019-3.217961 2.90879326-1.483396 1.88844715-2.829981 3.87137512-4.224041 5.82507015-.295603.4644528-.4558.9658559-.480122 1.5046773-.120673.537652-.096351 1.0755379.072264 1.6136576.258419.9384939.984331 1.9557998 1.859682 2.4183817.938962.4960243 2.076941.744855 3.118335.4078578.322264-.1358747.644528-.2719832.966558-.4078578.608044-.3599158 1.091908-.8437793 1.45159-1.4518242 1.155285-1.6188026 2.257951-3.2804022 3.473573-4.85500464-.210711.27315247-.421889.54607109-.6326.81922354.56174-.72497659 1.15622-1.44808229 1.883068-2.01496723-.273152.21094481-.546071.42188962-.81899.63283442.281104-.2160898.581619-.40388213.908794-.54186155-.32203.13587465-.644294.2717493-.966558.40785781.244855-.10056127.498363-.17025257.76029-.20673526l-1.075772.14452759c.296773-.03811974.594247-.03250701.890786.00608045l-1.075772-.1445276c.503274.0703929.987372.22988775 1.454865.42609916-.32203-.13610851-.644294-.27198316-.966558-.40809167.931244.39663236 1.802386.92680075 2.649205 1.47778298 1.222638.7956034 2.403882 1.6543499 3.578812 2.5184752.852666.6272217 1.700889 1.2607577 2.548877 1.8949953.464687.2956034.96609.4557998 1.504678.4803555.537886.1202058 1.075538.0961179 1.613657-.0724977.938728-.258419 1.9558-.9843311 2.418382-1.8596819.496258-.9391955.745089-2.0769411.407858-3.1183349-.135875-.3222638-.271983-.64429373-.407858-.96655753-.359682-.6080449-.843545-1.09190833-1.451824-1.45182414" fill="#814f9a"/><g fill="#956dac"><path d="m30.7860618 37.8603368c-1.3019176 0-1.3042563 2.0233863 0 2.0233863 1.3016839 0 1.3040225-2.0233863 0-2.0233863"/><path d="m29.3173294 53.036015c-1.3019177 0-1.3040225 2.0233863 0 2.0233863 1.3019177 0 1.3040224-2.0233863 0-2.0233863"/><path d="m31.5728486 59.2886576c1.3019176 0 1.3042563-2.0231525 0-2.0231525-1.3016839 0-1.3040225 2.0231525 0 2.0231525"/><path d="m32.0063144 66.8666043c-1.7675397-1.6950421-2.6891955 3.344247.1585594 1.3673994-.087231-.138681.5004677-.2537418-.1585594-1.3673994"/><path d="m39.591581 55.7941768c-1.3016838 0-1.3037886 2.0231525 0 2.0231525 1.3019177 0 1.3042563-2.0231525 0-2.0231525"/><path d="m42.0055661 52.1900842c-1.3016839 0-1.3037886 2.0233863 0 2.0233863 1.3019176 0 1.3042563-2.0233863 0-2.0233863"/><path d="m51.4775024 52.9743452c-1.3021515 0-1.3042563 2.0233863 0 2.0233863 1.3016839 0 1.3037886-2.0233863 0-2.0233863"/><path d="m51.0285081 41.0525725c-1.3019177 0-1.3040225 2.0233863 0 2.0233863 1.3019176 0 1.3040224-2.0233863 0-2.0233863"/><path d="m63.8147101 49.8078344c-1.3019177 0-1.3040224 2.0233864 0 2.0233864 1.3016838 0 1.3040225-2.0233864 0-2.0233864"/><path d="m69.7720534 41.2625585c-1.3019177 0-1.3040224 2.0233863 0 2.0233863 1.3019177 0 1.3040225-2.0233863 0-2.0233863"/><path d="m63.4013331 42.1603368c-1.3016838 0-1.3037886 2.0233863 0 2.0233863 1.3019177 0 1.3040225-2.0233863 0-2.0233863"/><path d="m62.3174229 37.824275c-1.941768-1.7759588-2.8538353 3.4209542.2095417 1.1059402-.0909729-.1494388.4127689-.1162302-.2095417-1.1059402"/><path d="m52.6762864 59.4843779c-1.3019177 0-1.3040225 2.0231525 0 2.0231525 1.3019176 0 1.3040224-2.0231525 0-2.0231525"/><path d="m39.6833724 65.1359214c2.7132835.0727315-.3241347-4.2270814-.9761459-.7429841.1819457.0486436-.2352666.4413003.9761459.7429841"/><path d="m52.5282742 65.5789991c-1.3019177 0-1.3040225 2.0231524 0 2.0231524 1.3019177 0 1.3040224-2.0231524 0-2.0231524"/><path d="m46.378625 60.7059869c-1.3019177 0-1.3040225 2.0233863 0 2.0233863 1.3016838 0 1.3040224-2.0233863 0-2.0233863"/><path d="m36.2254444 54.5010758c-.868101 0-.8695042 1.3491581 0 1.3491581.8678672 0 .8695043-1.3491581 0-1.3491581"/><path d="m44.9284145 65.494247c-.868101 0-.8695042 1.3491581 0 1.3491581.8678672 0 .8695042-1.3491581 0-1.3491581"/><path d="m59.1278532 60.5703461c-.8678671 0-.8692703 1.3489242 0 1.3489242.8681011 0 .8695042-1.3489242 0-1.3489242"/><path d="m37.0960478 46.7470533c-1.3589803-1.2001871-1.9642189 2.2988775.1396165.7371375-.0009355-.1601964.2069691-.3019176-.1396165-.7371375"/><path d="m23.583349 60.9467025c-1.3587465-1.2004209-1.9642189 2.2988775.1398504.7371375-.0011694-.1604303.2069691-.3019176-.1398504-.7371375"/><path d="m30.5339337 45.8354537c-.868101 0-.8695042 1.3489242 0 1.3489242.8678672 0 .8692703-1.3489242 0-1.3489242"/><path d="m27.3436624 58.6697381c.8678672 0 .8692704-1.3491581 0-1.3491581-.868101 0-.8695042 1.3491581 0 1.3491581"/><path d="m58.0775258 48.5798176c-.8678671 0-.8695042 1.3491581 0 1.3491581.8681011 0 .8695042-1.3491581 0-1.3491581"/><path d="m36.6637045 39.5333723c-.8678672 0-.8695042 1.3489242 0 1.3489242.868101 0 .8692703-1.3489242 0-1.3489242"/><path d="m57.795697 40.684869c-.868101 0-.8695042 1.3489243 0 1.3489243.8678672 0 .8692704-1.3489243 0-1.3489243"/><path d="m65.7616699 36.9994621c-.8678672 0-.8695042 1.3489242 0 1.3489242.8678672 0 .8695042-1.3489242 0-1.3489242"/><path d="m68.9192705 34.1364593c.8678671 0 .8692703-1.3489242 0-1.3489242-.8681011 0-.8695043 1.3489242 0 1.3489242"/><path d="m70.2749533 49.8281572c-.8678671 0-.8692703 1.3489242 0 1.3489242.8678672 0 .8695042-1.3489242 0-1.3489242"/><path d="m42.1049112 47.995159c-.8678671 0-.8695042 1.3489243 0 1.3489243.8678672 0 .8695042-1.3489243 0-1.3489243"/><path d="m24.1010993 53.9369738c-.8681011 0-.8695042 1.3491581 0 1.3491581.8678671 0 .8692703-1.3491581 0-1.3491581"/><path d="m41.7358514 43.1728718c-.8678672 0-.8692704 1.3489243 0 1.3489243.868101 0 .8695042-1.3489243 0-1.3489243"/><path d="m18.7437092 54.5010758c-.8678672 0-.8695042 1.3491581 0 1.3491581.8678671 0 .8695042-1.3491581 0-1.3491581"/><path d="m24.4607812 44.1931478c-.868101 0-.8695042 1.3489242 0 1.3489242.8678672 0 .8692704-1.3489242 0-1.3489242"/><path d="m177.535828 37.9700889c1.301684 0 1.304022 2.0233863 0 2.0233863-1.301918 0-1.304256-2.0233863 0-2.0233863"/><path d="m179.541464 46.161927c1.301918 0 1.304256 2.0231525 0 2.0231525-1.301684 0-1.304022-2.0231525 0-2.0231525"/><path d="m176.480005 58.5927736c-1.301684 0-1.304023-2.0233863 0-2.0233863 1.301917 0 1.304256 2.0233863 0 2.0233863"/><path d="m176.986787 63.7528531c1.767773-1.6945743 2.689195 3.3444809-.15856 1.3676333.087231-.1389148-.500233-.2537418.15856-1.3676333"/><path d="m169.40152 52.6804256c1.301918 0 1.304023 2.0233864 0 2.0233864-1.301917 0-1.304022-2.0233864 0-2.0233864"/><path d="m165.241558 49.8822732c1.301917 0 1.304022 2.0233863 0 2.0233863-1.301918 0-1.304023-2.0233863 0-2.0233863"/><path d="m157.515833 49.8608045c1.301917 0 1.304022 2.0231525 0 2.0231525-1.301918 0-1.304023-2.0231525 0-2.0231525"/><path d="m158.636272 35.1186155c1.301918 0 1.304023 2.0233864 0 2.0233864-1.301917 0-1.304022-2.0233864 0-2.0233864"/><path d="m145.85007 48.9774322c1.301918 0 1.304023 2.0233863 0 2.0233863-1.301917 0-1.304022-2.0233863 0-2.0233863"/><path d="m139.221282 38.1490178c1.301683 0 1.304022 2.0233863 0 2.0233863-1.301918 0-1.304257-2.0233863 0-2.0233863"/><path d="m145.591768 39.0467961c1.301918 0 1.304023 2.0233863 0 2.0233863-1.301918 0-1.304022-2.0233863 0-2.0233863"/><path d="m146.675678 34.7106174c1.942002-1.775725 2.853836 3.421188-.209541 1.1059401.090973-.1492048-.412535-.116464.209541-1.1059401"/><path d="m156.317049 56.3706268c1.301917 0 1.304022 2.0233863 0 2.0233863-1.301918 0-1.304257-2.0233863 0-2.0233863"/><path d="m169.309729 62.0223807c-2.713284.0724977.324368-4.2270814.976146-.7429841-.181946.0484098.2355.4413003-.976146.7429841"/><path d="m156.464827 62.4652245c1.301918 0 1.304256 2.0233864 0 2.0233864-1.301684 0-1.304022-2.0233864 0-2.0233864"/><path d="m162.614476 57.5924696c1.301918 0 1.304257 2.0231525 0 2.0231525-1.301684 0-1.304022-2.0231525 0-2.0231525"/><path d="m173.305052 47.4927035c.867867 0 .869504 1.3489242 0 1.3489242-.867868 0-.869505-1.3489242 0-1.3489242"/><path d="m164.064921 62.3807297c.867867 0 .86927 1.3489242 0 1.3489242-.868101 0-.869505-1.3489242 0-1.3489242"/><path d="m149.865248 57.4565716c.867867 0 .869504 1.3491581 0 1.3491581-.867867 0-.869504-1.3491581 0-1.3491581"/><path d="m171.897287 43.6335126c1.358747-1.2004209 1.964219 2.2988775-.139616.7371375.000935-.1604303-.206969-.3019176.139616-.7371375"/><path d="m185.409752 57.8329514c1.358747-1.2001871 1.964453 2.2988774-.139616.7373713.000935-.1601964-.206969-.3021515.139616-.7373713"/><path d="m178.459401 42.721913c.868101 0 .869505 1.3489242 0 1.3489242-.867867 0-.869504-1.3489242 0-1.3489242"/><path d="m180.172264 51.6611553c-.867867 0-.869504-1.3489242 0-1.3489242.868101 0 .869504 1.3489242 0 1.3489242"/><path d="m150.915809 45.4662769c.867867 0 .869271 1.3489242 0 1.3489242-.868101 0-.869504-1.3489242 0-1.3489242"/><path d="m170.465108 32.9697615c.867867 0 .869504 1.3489242 0 1.3489242-.867867 0-.869505-1.3489242 0-1.3489242"/><path d="m153.274322 34.5814546c.867867 0 .86927 1.3489243 0 1.3489243-.868101 0-.869504-1.3489243 0-1.3489243"/><path d="m143.231431 33.8859214c.868101 0 .869505 1.3489243 0 1.3489243-.867867 0-.86927-1.3489243 0-1.3489243"/><path d="m140.074065 31.0229186c-.868101 0-.869505-1.3489242 0-1.3489242.867867 0 .869504 1.3489242 0 1.3489242"/><path d="m138.097638 44.1170019c.868101 0 .869504 1.3489242 0 1.3489242-.867867 0-.86927-1.3489242 0-1.3489242"/><path d="m166.888424 44.8815014c.867867 0 .869504 1.3489242 0 1.3489242-.868101 0-.869504-1.3489242 0-1.3489242"/><path d="m184.892236 50.8234331c.867867 0 .86927 1.3489242 0 1.3489242-.868101 0-.869504-1.3489242 0-1.3489242"/><path d="m169.003227 38.9848924c.868101 0 .869505 1.3489243 0 1.3489243-.867867 0-.869504-1.3489243 0-1.3489243"/><path d="m190.249626 51.3875351c.867867 0 .869504 1.3489242 0 1.3489242-.868101 0-.869504-1.3489242 0-1.3489242"/><path d="m182.920837 37.0505145c.868101 0 .869505 1.3489242 0 1.3489242-.867867 0-.869504-1.3489242 0-1.3489242"/></g><path d="m198.443756 6.50413938c-1.173994-2.31337699-4.292329-2.86085126-6.521749-.86342376-.797942-6.23994387-8.750936-4.0933115-8.879795 1.21398503-.383302 4.15037415 2.500234 7.67843775 5.211881 10.74345185 1.339569.4684284 3.65739-1.3414406 5.232928-2.0287652 3.366931-1.6211413 6.813844-5.179841 4.956735-9.06524792" fill="#f092b2"/><path d="m48.8072499 74.5598924c-2.3496258-.8720767-5.1260524.8500936-5.3412068 3.840739-4.7890552-3.9693639-9.1368101 2.9045838-5.7015902 6.8814313 2.6066417 3.4186155 7.0477081 3.9268007 11.2252104 4.3400374 1.2967727-.5771749 1.7441535-3.4833957 2.4204865-5.0636109 1.3260056-3.4492516 1.4209541-8.474275-2.6028999-9.9985968" fill="#d8c6e1"/><path d="m15.2891956 52.7014266c-1.1003274-.950421-3.0353134-.827175-3.9740411.9908793-1.70860622-3.2738541-6.03624887-.5420954-4.84892427 2.7883536 1.196913 3.0077175 5.67422827 7.1127222 7.86131897 2.8021515 1.6400842-1.7577175 2.9906455-4.5809167.9616464-6.5813844" fill="#80cde7"/></g></svg>