<svg height="127" viewBox="0 0 133 127" width="133" xmlns="http://www.w3.org/2000/svg"><g fill="none"><path d="m132.36 94c-.256518-10.5982506-1.719278-21.1328045-4.36-31.4-6.12258 4.1261379-12.776578 7.4026768-19.78 9.74 0 4.76.36 14.18.58 21.74-21.42-3.46.78 35.12 2.44 4.3-.16-5.82-.5-17.72-.66-24.3 5.61044-1.9713308 10.978311-4.5747482 16-7.76 1.721202 7.6321722 2.824771 15.390599 3.3 23.2-14.04.1.12 26.14 2.48 4.48z" fill="#000"/><path d="m67.76 89.48c12.36 22.12-8.56 34.76-22.54 16.62-16.26-23.48 8.66-38.58 22.54-16.62z" fill="#5b0000"/><path d="m57.56 109.74c11.26-5.12 8.14-20.14.88-29.24-18.98-8.58-23.86 16-10.78 28.44 3.0174438 1.723644 6.6449465 2.016776 9.9.8z" fill="#250000"/><g fill="#000"><path d="m60.32 116.12c-17.48.94-33.08-35.54-9.04-38.7 17.5-.94 33.1 35.54 9.04 38.7zm-9.04-36.36c-19.52 2.16-6.58 34.82 9.06 34 19.52-2.14 6.58-34.78-9.06-34z"/><path d="m56.62 123.34c2.18 1.82 18.64 2 20.62-6.72 1.64 10.16-15 12.12-20.62 6.72z"/><path d="m7.36 15.66c-2.2-10.18 16.64-20.3 23.76-13.38-10.175311-2.26586929-20.4219634 3.50434153-23.76 13.38z"/><path d="m97.84 15.66c-3.363745-9.89363955-13.6424971-15.66250295-23.84-13.38 9.34-7.08 25.6 4.06 23.84 13.38z"/></g><path d="m103.12 48.66c-1.12 30.26-37.12 29.74-40.3 2.8-1.8-33.08 39.34-32.66 40.3-2.8z" fill="#fff"/><path d="m63.24 50.18c3.36 10.82 28 18.36 38.96-.64-1.82 30.46-38.32 26.46-38.96.64z" fill="#cecece"/><path d="m82.98 72.9c-28.28-1.24-28-46.36-.42-47.88 28.62.98 28.46 46.74.42 47.88zm-.14-45.56c-26.2 1.54-23.68 42.7.14 43.24 26.2-1.54 23.68-42.7-.14-43.24z" fill="#000"/><path d="m82.52 30.72c-12.4.62-11.7 23.4.72 23.58 12.38-.62 11.7-23.4-.72-23.58z" fill="#040095"/><path d="m74.38 44.76c1.82 12.14 16.52 11.54 17.18-1.3-4.78 4.16-11.9 5.92-17.18 1.3z" fill="#0066d6"/><path d="m82.86 34.78c-8 .12-8.72 16 .52 16.58 7.92-.12 8.72-16.1-.52-16.58z" fill="#000"/><g fill="#fff"><path d="m78.22 35.46c-6 1.26.88 9.34 3 2.4-.14-.88-.86-2.08-3-2.4z"/><path d="m88.16 44.48c1.18.4 1.22 1 0 0 .8 2.1.18 2.14 1.22 1-1.18-1.06-3.56.12-1.22-1z"/><path d="m41.34 48.66c-1.06 30.26-37.14 29.74-40.32 2.8-1.8-33.08 39.34-32.66 40.32-2.8z"/></g><path d="m1.74 50.76c3.36 10.82 28 18.36 38.96-.64-1.82 30.44-38.32 26.36-38.96.64z" fill="#cecece"/><path d="m21.18 72.9c-28.26-1.24-28-46.36-.42-47.88 28.64.98 28.48 46.74.42 47.88zm-.12-45.56c-26.22 1.54-23.7 42.7.12 43.24 26.22-1.54 23.7-42.7-.12-43.24z" fill="#000"/><path d="m20.72 30.72c-12.38.62-11.7 23.4.72 23.58 12.38-.62 11.7-23.4-.72-23.58z" fill="#040095"/><path d="m12.58 44.76c1.84 12.14 16.52 11.54 17.18-1.3-4.78 4.16-11.88 5.92-17.18 1.3z" fill="#0066d6"/><path d="m21.08 34.78c-8 .12-8.72 16 .5 16.58 7.92-.12 8.72-16.1-.5-16.58z" fill="#000"/><path d="m16.42 35.46c-6 1.26.88 9.34 3 2.4-.14-.88-.84-2.08-3-2.4z" fill="#fff"/><path d="m26.36 44.48c1.18.4 1.24 1 0 0 .82 2.1.18 2.14 1.24 1-1.2-1.06-3.6.12-1.24-1z" fill="#fff"/></g></svg>