<svg height="76" viewBox="0 0 202 76" width="202" xmlns="http://www.w3.org/2000/svg"><g fill="none" fill-rule="evenodd"><path d="m120.967236 26.3374649c-3.09261-4.140318-8.962348-5.6992516-15.003274-5.6124883-18.6244156.859682-34.5378861 9.0292329-15.1206738 22.8959308 7.8540692 6.3552385 15.2376048 7.308232 22.1265198 1.4338166 5.332788-4.5205799 11.787652-13.2808699 7.997428-18.7172591" fill="#814f9a"/><path d="m46.0065951 20.5131431c-12.446913-18.51637042-34.6480356 1.0346118-24.4939196 17.4104303 13.3889149 18.4420019 33.6297942-.3528999 24.4939196-17.4104303" fill="#814f9a"/><path d="m46.1173528 18.1806595c-4.8891488-7.3337231-13.6590272.4859682-9.6852199 6.8844715 5.4260992 7.3786248 13.2471937-.4008419 9.6852199-6.8844715" fill="#fefefe"/><path d="m34.8841442 22.8231057c-2.6136577-3.8147802-9.0329748-.787652-7.053087 3.6492049 2.756782 5.0065481 9.8019176.9073901 7.053087-3.6492049" fill="#fefefe"/><path d="m41.2640085 32.3926567c-2.6138915-3.8145463-9.0329747-.7874182-7.053087 3.6492049 2.7567821 5.0065481 9.8019177.9076239 7.053087-3.6492049" fill="#fefefe"/><path d="m20.3575539 15.4288821c.4590739-.9104303 1.0044434-1.7715154 1.6269878-2.5788119-.2109448.2729186-.4221234.5458372-.6330683.8189897.8601497-1.1036015 1.8543031-2.0919084 2.9574369-2.9518242-.2729186.2109448-.5458372.4218897-.8187558.6328345 1.1543498-.890552 2.4141721-1.63143129 3.755145-2.20369508-.3222638.13587465-.6445276.27198316-.9667914.40785781 1.3159494-.55355473 2.6943405-.93826006 4.1089803-1.13166511-.3585126.04817587-.7170252.09635173-1.0757717.1445276.1445276-.01894294.2888213-.03624883.4338166-.05168382.5570627.02081384 1.0769411-.09518241 1.5591675-.34869037.501637-.1630028.9356875-.44200187 1.3021515-.83652946.702058-.702058 1.2305893-1.8536015 1.1854537-2.86155286-.0470065-1.04653882-.3907858-2.13213283-1.1854537-2.86155285-.7415809-.68101029-1.8147802-1.297942-2.861319-1.18521983-1.4188494.15271282-2.825304.3657624-4.1873246.79840973-1.3255379.42118803-2.6295603.97497661-3.8519644 1.63868101-1.23971.67282507-2.3713752 1.51590271-3.4618803 2.40739008-.8334892.68124416-1.6017306 1.44223574-2.2885875 2.27128157-.9824602 1.18615529-1.8921889 2.42890552-2.5867633 3.80636108-.4911132.974275-.7043966 2.0413938-.4078578 3.1183349.2586529.9384939.9843311 1.9557998 1.8596819 2.4183817.9391955.4962582 2.0769411.7450888 3.1183349.4078578.9677269-.3131431 1.945276-.921188 2.4183817-1.859682" fill="#814f9a"/><path d="m46.7404819 53.5370907c-8.936623-13.0161365-44.33231996-5.874883-31.9176801 12.6073434 11.3348924 13.8461178 40.4714687 3.3051917 31.9176801-12.6073434" fill="#f092b2"/><path d="m158.01768 20.5131431c12.446913-18.51637042 34.648036 1.0346118 24.49392 17.4104303-13.388915 18.4420019-33.629794-.3528999-24.49392-17.4104303" fill="#814f9a"/><path d="m157.906922 18.1806595c4.889149-7.3337231 13.659028.4859682 9.68522 6.8844715-5.426099 7.3786248-13.247193-.4008419-9.68522-6.8844715" fill="#fefefe"/><path d="m169.140131 22.8231057c2.613658-3.8147802 9.032975-.7874181 7.053087 3.6492049-2.756782 5.0065481-9.801918.9073901-7.053087-3.6492049" fill="#fefefe"/><path d="m162.760267 32.3926567c2.613891-3.8145463 9.032974-.7874182 7.053087 3.6492049-2.756782 5.0065481-9.801918.9076239-7.053087-3.6492049" fill="#fefefe"/><path d="m190.655215 11.3440365c-.639382-1.2680075-1.462815-2.38751171-2.340271-3.50093547-.666043-.84541628-1.416511-1.62418148-2.233863-2.32460243-1.063845-.91183349-2.201825-1.76987839-3.419785-2.46819458-1.207671-.69223573-2.508419-1.25350795-3.822732-1.70673526-1.478718-.50982227-3.007483-.75467727-4.559635-.92165576-.557297-.0210477-1.076941.09518242-1.559167.3484565-.501637.16323667-.935922.44200188-1.302386.83676333-.702058.70182414-1.230355 1.85336764-1.185454 2.86155286.047007 1.04653882.390786 2.13189897 1.185454 2.86131899.272919.21094481.545837.42188961.81899.63283442.631197.36599626 1.311974.55028064 2.042563.55238541.144761.01566885.289055.03297474.433583.05168382-.358513-.04817587-.717259-.09635174-1.075772-.1445276 1.41464.19363891 2.793031.57834425 4.10898 1.13189897-.322263-.13587465-.644527-.27198316-.966791-.40785781 1.340973.5722638 2.600795 1.31314311 3.755379 2.20346121-.272919-.210711-.546071-.4216558-.81899-.6326006 1.103134.8599158 2.097287 1.8482226 2.957437 2.9515903-.210945-.2729186-.42189-.5458373-.632834-.8189897.62231.8075304 1.16768 1.6686155 1.626754 2.5790458.254443.4714687.60173.8500936 1.042329 1.1354069.390786.3578111.849626.5991581 1.376052.7242751.537886.1686155 1.076006.1927034 1.613658.0722637.538821-.0243217 1.040224-.1845182 1.504677-.4801216.864125-.5572965 1.624649-1.3865762 1.859682-2.4186155.048176-.3585126.096352-.7170252.144528-1.0757717-.002105-.7303555-.186389-1.4111319-.552386-2.0423293" fill="#814f9a"/><path d="m157.28377 53.5370907c8.936623-13.0161365 44.33232-5.874883 31.91768 12.6073434-11.334892 13.8461178-40.471469 3.3051917-31.91768-12.6073434" fill="#f092b2"/><g fill="#814f9a"><path d="m66.4142424 41.0660664c.9282039 4.3730122 2.837231 8.5364827 5.7869504 11.9165108 2.4859682 2.8484565 5.7340973 5.0346118 9.3379327 6.191768 3.2832086 1.0542563 6.8971001 1.1987839 10.2287184.2743218 3.4981291-.971001 6.4890084-3.0998597 8.6732931-5.97942 2.567586-3.385407 3.699719-7.6651076 3.960711-11.8512629.036248-.5837231.054256-1.1683817.057077-1.7532741.003493-.7055659-.623027-1.3811974-1.348939-1.3486904-.733863.0327409-1.344948.5923761-1.348924 1.3486904-.005847 1.1655753-.073199 2.3306829-.220066 3.4871375-.012628.0998597-.055893.361319.012629-.0898035-.010056.0664172-.018475.1333021-.028297.1999532-.019177.1321328-.039523.2640318-.060805.3959308-.045603.2804022-.095884.5601029-.15131.8391019-.099158.4978953-.214219.9925164-.346585 1.4826941-.132367.4892423-.281806.9742751-.44972 1.4527596-.071796.2043967-.146866.407624-.225444.609682-.042095.1085126-.086062.2165575-.12956.3248363-.038588.095884-.143359.3049579.046772-.1085127-.032039.0694575-.060336.1410197-.091206.2111787-.3641256.8292797-.7895232 1.6321328-1.2782978 2.3947615-.2289523.3573433-.4733395.7034612-.7275491 1.0430308-.0629092.083957-.2093077.2457905.0834893-.1073433-.0332086.0399907-.0640786.0818522-.0965856.1225445-.0643125.0811506-.1297942.1615996-.1957437.241347-.1419551.171188-.287652.3393358-.4370908.5044434-.5381197.5944808-1.123246 1.1463985-1.75 1.6466324-.0385874.03087-.0774088.0610383-.1159962.0916745-.1709542.1365762.292797-.221001.1171656-.0907391-.078812.0584659-.1566885.1181011-.2359682.1758653-.1709542.1246492-.3449486.2457905-.5210477.3629561-.3231993.2146866-.6548176.4165107-.9939196.6050047-.3507951.1948082-.7100093.3751169-1.0755379.5404583-.0876988.0397568-.1760991.077175-.2637979.1162301-.1716558.0762395.2093077-.0905051.1896632-.0797474-.0409261.0224509-.0898035.0371843-.1330683.0547241-.1927034.0781103-.3868101.152245-.5823199.2224041-.7373714.2640318-1.4953227.4698316-2.2644995.6173994-.1887278.0362488-.3781572.0689897-.5682882.0982227-.128391.0196445-.5236202.0626753.0250234-.0007016-.095884.0112254-.1913002.0243218-.2871842.0353133-.4003742.0453695-.8028532.0755379-1.205566.090739-.7974743.0299346-1.5970533.0011694-2.3905519-.0834892-.0816184-.0086529-.1632367-.0180075-.244855-.0278297-.0488775-.0058466-.0979888-.0130964-.1468663-.0184753.4922826.0537886.2726848.0378859.1625351.0215155-.2125818-.0311039-.4249298-.0640786-.6363423-.1021983-.3933583-.0708607-.784378-.1550515-1.1718897-.2523387-.8044901-.202058-1.5949485-.4604771-2.3641253-.77058-.1143592-.046071-.4876053-.2174929-.0107577-.0018709-.0937793-.0425631-.1896633-.0816183-.2839102-.1237137-.205566-.0916745-.409261-.1868569-.611319-.2857811-.3769879-.1842844-.7476614-.3814313-1.1115529-.5902713-.7633302-.4382601-1.4740411-.9398971-2.1840505-1.4579046.4111319.2998129.0657156.0498129-.0278297-.0250234-.085594-.0685219-.1709542-.1377455-.2553789-.2076707-.1702526-.1407858-.3384004-.2843779-.5039757-.4305425-.3498597-.3089336-.6891955-.6297942-1.0173059-.9616464-.3210944-.3250702-.6316651-.6606642-.9312441-1.0058466-.1522451-.1751637-.30145-.3528999-.4478485-.5329748-.073667-.090739-.1468662-.1819457-.21913-.273854-.0612722-.0781104-.2034612-.27058.0666511.0874649-.0472404-.0626754-.0954163-.125117-.1428906-.1877924-.5818522-.7733863-1.1127221-1.5851262-1.5919083-2.4260991-.2593545-.4550982-.5032741-.9190833-.7324602-1.3900842-.1122545-.2310571-.221001-.4637512-.3260057-.6980823-.044434-.0986904-.0879326-.1976146-.1309635-.2967727-.025725-.059869-.0509822-.1199719-.076941-.1796071.1859214.426333.0488774.1150608.0100561.0198784-.4193171-1.0245557-.7724509-2.0760056-1.063377-3.1440599-.1496726-.5493452-.2822732-1.1033676-.4003742-1.6601964-.1468662-.6913003-.994855-1.1573901-1.6594948-.9422358-.7294201.2362021-1.0991581.9186156-.9420019 1.659261"/><path d="m134.748948 40.3489242c-.237372 1.1181011-.535314 2.2233396-.903415 3.3056595-.178671.525725-.373713 1.0460711-.58536 1.5594013-.03695.0898036-.141487.3241347.03508-.0806828-.026193.0596351-.051216.1199719-.076941.1798409-.043031.0989243-.086764.1978485-.130964.2965388-.113658.2537419-.231759.5056128-.354069.7553789-.445042.9094949-.946679 1.7913938-1.504911 2.6363424-.263097.3987371-.538822.7888213-.827175 1.1697848-.035547.0470066-.071562.0935454-.10711.1405519.270113-.357811.127924-.1655753.066418-.0874649-.072264.0919083-.14523.1831151-.21913.2738541-.158326.1950421-.320159.3872778-.485501.5767072-.606876.695276-1.258887 1.3514967-1.952292 1.9604771-.152245.133536-.306361.2649672-.462348.393826-.084658.0699251-.169785.1391487-.255612.2076707-.042564.0341441-.085828.0680543-.128625.1019645-.248363.1978484.232928-.1753976.05753-.0437325-.345884.2593545-.695042.5133302-1.054958.7530402-.718428.477783-1.468194.9078578-2.243919 1.2848457-.186857.090739-.374883.1784378-.564547.2628625-.094481.0420954-.190131.0811506-.284144.1239476.486436-.2200655.061039-.0266605-.058232.0208138-.379326.1517774-.763798.2909261-1.152245.4167446-.780168.2530403-1.577409.4529935-2.384939.595884-.19551.034378-.391254.0647802-.587699.0935454-.11015.0161366-.329747.0320393.162769-.0215154-.049111.0053788-.097989.0123947-.146866.0184752-.097989.0116932-.195978.0226847-.293966.0329747-.406221.0420954-.814079.0696913-1.222638.0820861-.791862.0240879-1.585361-.0084191-2.372311-.1000936-.079747-.0093545-.159495-.0205799-.239242-.0297006.548409.0624415.153414.0203461.025023.0004677-.2058-.0315715-.411132-.0673526-.615528-.1071094-.376754-.0734331-.750702-.1608981-1.120674-.2623948-.385173-.1057063-.766137-.2263798-1.141721-.3622544-.180309-.0652479-.359448-.1340038-.537184-.2062676-.036951-.0149672-.073901-.0304022-.111086-.0453695-.146398-.0594013.359682.1550515.16768.0706268-.102666-.0453695-.205565-.0895697-.30753-.1361085-.718428-.3278766-1.410196-.7135173-2.066417-1.1527129-.162301-.1087464-.322498-.220767-.480356-.3358278-.079279-.0579982-.15739-.1173995-.236202-.1758653-.175397-.1304958.288354.2273152.1174.090739-.045136-.036015-.090505-.0710945-.135407-.1071095-.316651-.2539756-.623246-.5208138-.917914-.8000467-.293966-.2780636-.576473-.5682882-.847053-.8692704-.137278-.1527128-.271516-.308232-.402713-.4665575-.066184-.0797474-.131431-.1601965-.195744-.2411132-.032507-.0406922-.063611-.0827877-.096586-.1227783.307297.3709074.118803.1545837.051918.0659495-.529467-.7029935-.999766-1.4497194-1.410664-2.227783-.210945-.3994387-.406455-.8070627-.586763-1.2212348-.022919-.0526193-.044201-.1064078-.068055-.1585594.189897.4137044.085361.2043966.046773.1087465-.043499-.1082788-.087465-.2163237-.129794-.3250702-.085594-.2205332-.167212-.4424696-.244855-.666043-.333723-.9602432-.593779-1.9452759-.789289-2.9427034-.050515-.2577175-.096586-.5163705-.138681-.7754912-.021282-.1318989-.041628-.2637979-.061039-.3956969-.009588-.0666511-.018007-.133536-.028297-.1999532.072264.4752105.017306.1279233.00421.022217-.068756-.5535547-.119739-1.1094481-.15435-1.6665107-.036483-.5837231-.054257-1.1681478-.057297-1.7530403-.003508-.7055659-.617867-1.3816651-1.348924-1.3489242-.7277831.032507-1.3526661.5928438-1.348941 1.3489242.0222337 4.3550047.912786 8.851029 3.290475 12.5612723 1.975211 3.0823199 4.860851 5.4270346 8.305426 6.6730589 3.235968 1.1704864 6.83536 1.2312909 10.159495.4064546 3.619504-.8982694 6.94738-2.8830683 9.569223-5.5208138 3.076707-3.0956502 5.177502-7.0652479 6.319691-11.2584191.149673-.5493452.282274-1.1033676.400608-1.6604303.146165-.6882601-.202993-1.4908793-.942235-1.659261-.677503-.154116-1.502573.2041628-1.659261.9422357"/><path d="m82.917727 43.6268943c-4.3987372-2.1321328-9.1651076-3.2785313-14.0152012-3.7577175-4.8309167-.4773152-9.703695-.3037886-14.5327408.1040692-2.7132835.2291862-5.4190833.5355473-8.1232461.8538354-.3615528.0423293-.6742282.2794668-.6742282.6744621 0 .3313845.3101029.7172591.6742282.6742282 4.7553789-.5594013 9.5229186-1.0834892 14.3124416-1.2135173 4.7497661-.1288587 9.5397567.125117 14.1786716 1.2097755 2.5846586.6040693 5.1092142 1.4611787 7.4992984 2.6195042.3276427.1587933.7289523.0895697.9228251-.2418147.1728251-.2958373.0871922-.7633303-.2420486-.9228251"/><path d="m79.0114594 44.882203c-5.8491581-.5413938-11.7165575.5018709-17.2736202 2.299579-5.7041628 1.8451825-11.1354069 4.434986-16.511927 7.0619738-2.9429374 1.4377924-5.8769879 2.8959308-8.8559402 4.2588869-.3311506.1515435-.4127689.6307296-.2420486.922825.1990178.3402713.5905051.3940599.9228251.2420487 5.3267072-2.4375585 10.5126286-5.1697849 15.8550046-7.5739009 5.2906923-2.3807296 10.7820393-4.467493 16.52058-5.4522918 3.1620674-.5425632 6.388681-.7060337 9.5851263-.4101965.3631899.0336764.6744621-.3341908.6744621-.6744621 0-.3926567-.3101029-.6407858-.6744621-.6744621"/><path d="m77.738915 49.5137979c-6.4391955 2.3379327-12.7497662 5.0329748-18.8896165 8.0715622-6.1192703 3.0280637-12.0692236 6.3982695-17.8124415 10.0900375-3.2104771 2.0638447-6.3554724 4.2287184-9.4307764 6.4887745-.2930309.2156221-.4394294.5851263-.2418148.9228251.1690832.2890552.6276894.45884.9225912.2420486 5.4735734-4.0229186 11.169551-7.741347 17.0558933-11.1314312 5.8861086-3.3900842 11.9604771-6.4532273 18.1863892-9.1690833 3.4768475-1.5168381 7.0030402-2.9195509 10.568522-4.213985.3421422-.1241815.5729654-.4583723.4710009-.8297474-.090739-.3299813-.4857343-.595884-.8297474-.471001"/><path d="m118.344715 44.7916511c4.231291-2.0509823 8.86927-3.1499065 13.535781-3.5930777 4.799579-.4555659 9.637512-.2761927 14.433349.1323667 2.679139.2280169 5.351029.53087 8.021281.8449486.362255.042797.674229-.3405052.674229-.6744621 0-.3999065-.311039-.6316651-.674229-.6744621-4.823199-.5675866-9.658793-1.0982227-14.517306-1.2188962-4.833255-.1199719-9.713517.171188-14.430308 1.286015-2.66464.630028-5.259121 1.5383536-7.723574 2.7329279-.327642.1587933-.415575.6255847-.242048.9225912.195743.3346586.593779.4015435.922825.2420487"/><path d="m121.570042 46.2311506c5.760758-.5332086 11.492049.4922825 16.963284 2.2668382 5.593779 1.8143124 10.913704 4.3559401 16.187324 6.9328812 2.927736 1.4305425 5.84682 2.8804958 8.810103 4.2366698.331151.1513096.726146.0940131.922825-.2420487.169785-.2902245.090973-.77058-.242048-.9228251-5.373013-2.45884-10.603602-5.2174929-15.995323-7.6368101-5.397334-2.4218896-10.992517-4.5661833-16.849392-5.5502806-3.235968-.5437325-6.525725-.7359682-9.796773-.4333489-.362722.0334424-.674462.2860149-.674462.6744621 0 .3386342.309635.7081384.674462.6744621"/><path d="m122.484144 50.8145463c6.363658 2.3103368 12.595183 4.9756782 18.661366 7.9819925 6.086062 3.0163705 12.004677 6.3709074 17.718662 10.0437325 3.210477 2.0636108 6.355239 4.2284845 9.430543 6.4887745.293732.215856.752572.0491114.922825-.2420486.199953-.3423761.052385-.7062675-.242049-.9228251-5.501637-4.0434986-11.22825-7.7794668-17.146866-11.1838166-5.918382-3.404116-12.026894-6.477783-18.287886-9.2006548-3.521281-1.5311039-7.088634-2.9553321-10.698082-4.2659028-.342376-.1244153-.738541.1398504-.829748.471001-.1029.3753508.127456.7048643.471235.8297474"/></g><g fill="#956dac"><path d="m21.1882835 53.5759121c-1.3019176 0-1.3042563 2.0233863 0 2.0233863 1.3019177 0 1.3042564-2.0233863 0-2.0233863"/><path d="m29.2242517 47.7956735c-1.3019176 0-1.3042563 2.0233864 0 2.0233864 1.3019177 0 1.3042564-2.0233864 0-2.0233864"/><path d="m31.4798645 54.0484331c1.3019176 0 1.3042563-2.0233863 0-2.0233863-1.3019177 0-1.3040225 2.0233863 0 2.0233863"/><path d="m31.9132368 61.6261693c-1.7675398-1.6948082-2.6891955 3.3444808.1585594 1.3673995-.0872311-.1386811.5007016-.2537419-.1585594-1.3673995"/><path d="m40.6437092 50.897217c-1.3019177 0-1.3040225 2.0233864 0 2.0233864 1.3019177 0 1.3042563-2.0233864 0-2.0233864"/><path d="m41.9126053 46.9497428c-1.3019176 0-1.3040224 2.0233863 0 2.0233863 1.3019177 0 1.3042564-2.0233863 0-2.0233863"/><path d="m49.6666278 48.0776193c-1.3019177 0-1.3042563 2.0233863 0 2.0233863 1.3019177 0 1.3040224-2.0233863 0-2.0233863"/><path d="m50.935407 35.8122311c-1.3019177 0-1.3042563 2.0233863 0 2.0233863 1.3019177 0 1.3040225-2.0233863 0-2.0233863"/><path d="m66.5844014 34.2614125c-1.3019177 0-1.3042563 2.0233864 0 2.0233864 1.3019177 0 1.3042563-2.0233864 0-2.0233864"/><path d="m75.7481058 31.4417914c-1.3019177 0-1.3040224 2.0233863 0 2.0233863 1.3019177 0 1.3042563-2.0233863 0-2.0233863"/><path d="m69.2629795 28.9041394c-1.3019177 0-1.3040224 2.0233863 0 2.0233863 1.3019177 0 1.3040225-2.0233863 0-2.0233863"/><path d="m62.2243453 32.5839336c-1.941768-1.7759589-2.8538354 3.421188.2095416 1.1057063-.0909729-.1489711.412769-.1162302-.2095416-1.1057063"/><path d="m81.6692705 49.2054958c-1.3019177 0-1.3040225 2.0233863 0 2.0233863 1.3019176 0 1.3042563-2.0233863 0-2.0233863"/><path d="m81.3874416 47.9862722c2.7130496.0724977-.3239008-4.2270814-.9761459-.7429841.1821796.0486436-.2355005.4413003.9761459.7429841"/><path d="m87.5905286 45.6809635c-1.3019176 0-1.3040224 2.0233864 0 2.0233864 1.3019177 0 1.3042564-2.0233864 0-2.0233864"/><path d="m83.5021516 40.4644995c-1.3019176 0-1.3042563 2.0233864 0 2.0233864 1.3019177 0 1.3040225-2.0233864 0-2.0233864"/><path d="m182.894224 53.5759121c-1.301918 0-1.304023 2.0233863 0 2.0233863 1.301917 0 1.304256-2.0233863 0-2.0233863"/><path d="m174.858255 47.7956735c-1.301683 0-1.304022 2.0233864 0 2.0233864 1.301918 0 1.304023-2.0233864 0-2.0233864"/><path d="m172.602526 52.0250935c-1.301684 0-1.304023 2.0233864 0 2.0233864 1.301918 0 1.304022-2.0233864 0-2.0233864"/><path d="m173.59986 61.6261693c-1.76754-1.6950421-2.68943 3.3444808.158325 1.3673995-.087231-.1386811.500936-.2537419-.158325-1.3673995"/><path d="m163.438681 50.897217c-1.301918 0-1.304022 2.0233864 0 2.0233864 1.301918 0 1.304256-2.0233864 0-2.0233864"/><path d="m162.169902 46.9497428c-1.301918 0-1.304023 2.0233863 0 2.0233863 1.301918 0 1.304256-2.0233863 0-2.0233863"/><path d="m154.415973 48.0776193c-1.301918 0-1.304256 2.0233863 0 2.0233863 1.301918 0 1.304022-2.0233863 0-2.0233863"/><path d="m153.147194 35.8122311c-1.301918 0-1.304257 2.0233863 0 2.0233863 1.301917 0 1.304022-2.0233863 0-2.0233863"/><path d="m137.498106 34.2614125c-1.301918 0-1.304023 2.0233864 0 2.0233864 1.301917 0 1.304256-2.0233864 0-2.0233864"/><path d="m128.334261 31.4417914c-1.301918 0-1.304022 2.0233863 0 2.0233863 1.301918 0 1.304256-2.0233863 0-2.0233863"/><path d="m134.819528 28.9041394c-1.301918 0-1.304257 2.0233863 0 2.0233863 1.301684 0 1.304022-2.0233863 0-2.0233863"/><path d="m143.429888 32.5839336c-1.942236-1.7759589-2.853602 3.421188.209308 1.1057063-.090739-.1489711.412769-.1162302-.209308-1.1057063"/><path d="m122.413003 49.2054958c-1.301918 0-1.304023 2.0233863 0 2.0233863 1.301918 0 1.304256-2.0233863 0-2.0233863"/><path d="m123.41036 46.2592376c-1.941534-1.7761927-2.854069 3.421188.209542 1.1057063-.090973-.1492049.412769-.116464-.209542-1.1057063"/><path d="m116.491862 45.6809635c-1.301918 0-1.304023 2.0233864 0 2.0233864 1.301917 0 1.304022-2.0233864 0-2.0233864"/><path d="m120.580473 40.4644995c-1.302152 0-1.304257 2.0233864 0 2.0233864 1.301917 0 1.304022-2.0233864 0-2.0233864"/><path d="m36.1322499 49.2607577c-.8678672 0-.8692704 1.3489242 0 1.3489242.8678671 0 .8695042-1.3489242 0-1.3489242"/><path d="m27.7273154 58.3400842c-1.3587465-1.2001871-1.9644528 2.2988774.1396164.7373714-.0009354-.1604303.207203-.3021516-.1396164-.7373714"/><path d="m32.0439664 56.1688494c-.868101 0-.8695042 1.3489242 0 1.3489242.8678672 0 .8692704-1.3489242 0-1.3489242"/><path d="m27.2504678 53.4293031c.8678672 0 .8695042-1.3489242 0-1.3489242-.8678671 0-.8695042 1.3489242 0 1.3489242"/><path d="m57.9844248 43.3394761c-.8678672 0-.8692703 1.3489243 0 1.3489243.868101 0 .8695042-1.3489243 0-1.3489243"/><path d="m57.702596 35.4446445c-.868101 0-.8695042 1.3489243 0 1.3489243.8678672 0 .8692703-1.3489243 0-1.3489243"/><path d="m73.4924931 25.0118101c-.8678672 0-.8695042 1.3489242 0 1.3489242.8678672 0 .8695042-1.3489242 0-1.3489242"/><path d="m80.9644763 21.5673527c.8678671 0 .8692703-1.3489243 0-1.3489243-.8678672 0-.8695043 1.3489243 0 1.3489243"/><path d="m78.4268009 34.7396399c-.8678672 0-.8695043 1.3489242 0 1.3489242.8678671 0 .8695042-1.3489242 0-1.3489242"/><path d="m124.52783 36.1494387c-.867867 0-.86927 1.3489243 0 1.3489243.867867 0 .86927-1.3489243 0-1.3489243"/><path d="m125.655683 26.1396866c-.867867 0-.86927 1.3489243 0 1.3489243.867867 0 .869504-1.3489243 0-1.3489243"/><path d="m125.091698 22.4132834c.867867 0 .869504-1.3489242 0-1.3489242-.867867 0-.869504 1.3489242 0 1.3489242"/><path d="m131.85877 33.8935921c-.867867 0-.86927 1.3489243 0 1.3489243.867867 0 .869504-1.3489243 0-1.3489243"/><path d="m143.842236 30.6511459c-.867867 0-.869504 1.3489243 0 1.3489243.867867 0 .869504-1.3489243 0-1.3489243"/><path d="m146.097965 43.9034846c-.867867 0-.86927 1.3489242 0 1.3489242.867868 0 .869505-1.3489242 0-1.3489242"/><path d="m146.943873 35.7264733c-.867867 0-.86927 1.3489243 0 1.3489243.867867 0 .86927-1.3489243 0-1.3489243"/><path d="m158.927339 43.6214219c-.867867 0-.869271 1.3489242 0 1.3489242.867867 0 .869504-1.3489242 0-1.3489242"/><path d="m157.094668 59.2703929c-.868101 0-.869504 1.3489242 0 1.3489242.867867 0 .86927-1.3489242 0-1.3489242"/><path d="m165.97645 55.0411132c-.868101 0-.869504 1.3489242 0 1.3489242.867867 0 .869504-1.3489242 0-1.3489242"/><path d="m169.642002 47.8509588c-.867867 0-.869504 1.3489243 0 1.3489243.867867 0 .86927-1.3489243 0-1.3489243"/><path d="m177.536951 57.1557063c-.867868 0-.869505 1.3489242 0 1.3489242.867867 0 .86927-1.3489242 0-1.3489242"/><path d="m178.664687 52.0803555c-.867867 0-.869271 1.3489242 0 1.3489242.867867 0 .869504-1.3489242 0-1.3489242"/><path d="m181.855192 45.0230122c.001871-.0577643.013096-.1155286 0-.1732928-.003508.0318054.023854.028999 0 .1732928m-.21305.3040224c-.034144.0142657-.068756.0287652-.1029.0432647.055192-.0149672.100562-.0463049.146399-.076941-.0145.0112254-.028999.022217-.043499.0336763m.365997-.5098223c.015902-2.0488774-3.164874.7820393-.46305.7656689.097989-.0792797.36319-.3320861.46305-.7656689"/><path d="m187.405683 51.3754677c-.867867 0-.869504 1.3489243 0 1.3489243.867867 0 .86927-1.3489243 0-1.3489243"/><path d="m188.533536 57.1557063c-.868101 0-.86927 1.3489242 0 1.3489242.867867 0 .86927-1.3489242 0-1.3489242"/><path d="m20.4833724 60.9622544c-.8678671 0-.8695042 1.3489243 0 1.3489243.8678672 0 .8692704-1.3489243 0-1.3489243"/><path d="m24.0078813 48.6967727c-.8678672 0-.8692703 1.3489242 0 1.3489242.8678672 0 .8692703-1.3489242 0-1.3489242"/><path d="m18.6504912 49.2607577c-.8678671 0-.8692703 1.3489242 0 1.3489242.8678672 0 .8695042-1.3489242 0-1.3489242"/><path d="m19.2146166 43.7624415c-.8681011 0-.8695042 1.3489243 0 1.3489243.8678671 0 .8692703-1.3489243 0-1.3489243"/></g><path d="m165.399345 2.669855c-.463517-.34144059-1.568054-.78133769-2.35594.58746493-5.316183-3.9763798-2.019644 7.72263797 1.611553 3.52128157.926099-1.0364827 2.060805-2.62698784.744387-4.1087465" fill="#d6da2c"/><path d="m9.54363902 30.3131431c-1.47731525-.2144527-3.0837231.9618803-2.89101964 3.0537886-3.50163705-1.9101964-5.46000936 3.0579981-2.58395697 5.1522451 2.27034612 1.6290926 8.57951359 2.9429373 8.18381669-1.2822732.4829279-2.5874649.5334424-6.1234798-2.70884008-6.9237605" fill="#d8c6e1"/><path d="m10.3321329 15.8613424c-1.20252568-1.0388214-3.31782035-.904116-4.34354533 1.0830215-2.04724041-3.7200655-6.65084191-.3854069-5.27057998 3.1417212 2.85056127 5.0739009 6.42820393 7.2462582 9.40855941 1.8910197 1.3040224-1.6889617 2.0972872-4.284378.2055659-6.1157624" fill="#c0e1db"/><path d="m201.50566 39.8837231c-.639149-1.8622544-2.744855-2.8189897-4.931946-1.5236202.165809-5.0318054-6.516371-4.2644995-7.108513.1024322-.379092 4.2951356 1.6471 11.0437324 6.84682 7.8433115 2.837231-.8250702 6.07811-2.9621141 5.193639-6.4221235" fill="#7dc6b6"/></g></svg>