<svg width="176" height="182" viewBox="0 0 176 182" fill="none" xmlns="http://www.w3.org/2000/svg">
<path d="M62.8389 121.848C63.1469 122.702 63.7839 124.487 64.1549 125.53L65.9259 124.9C65.7999 124.543 65.5899 123.948 65.3659 123.332C68.4599 119.209 69.5659 125.593 69.4189 127.091C59.5279 124.116 61.0749 136.142 69.4189 132.306V133.111H68.8309V134.238H72.4779V133.111H71.7009C71.7849 132.642 71.9529 131.711 72.1139 130.409C72.8839 125.341 72.6739 116.444 64.6239 121.225L64.0569 119.629L62.2859 120.259C62.4399 120.7 62.6079 121.183 62.8389 121.848V121.848ZM66.4999 131.718C64.4839 131.627 64.1269 128.638 66.2409 128.064C67.217 128.045 68.0369 128.794 68.1059 129.768C68.175 130.742 67.4689 131.599 66.4999 131.718Z" fill="white"/>
<path d="M74.6621 135.47L62.8601 136.576L62.2791 139.537L75.243 139.285L74.6621 135.47Z" fill="white"/>
<path d="M38.2199 130.5L37.6179 134.126L40.0469 134.273V132.383L42.8959 132.271C42.8959 132.271 42.9379 135.96 39.1649 136.184C29.8549 135.855 32.6689 122.184 40.1519 123.584L38.8849 125.236L40.8939 127.063L45.4369 121.673L42.9729 119.902L41.7619 121.484C40.453 120.936 39.0436 120.669 37.6249 120.7C31.8359 121.106 29.1479 128.162 30.7439 133.818C36.5749 145.837 47.5019 136.492 45.5419 130.374L38.2199 130.5Z" fill="white"/>
<path d="M92.904 135.967L91.805 136.037L89.992 121.491L91.686 121.26L91.147 118.789L85.631 119.811L85.855 122.065L87.192 121.883L87.913 135.505L81.221 120.287L78.512 120.434L77.623 137.325L76.041 137.619L76.265 139.873L82.096 139.068L81.557 136.597L80.577 136.779L80.556 124.389L85.939 138.893L92.12 138.571L92.113 138.543L93.226 138.48L92.904 135.967Z" fill="white"/>
<path d="M98.567 119.398L94.71 119.3L94.78 122.303L96.18 122.233L96.572 136.282L94.598 136.373L94.353 139.523L97.258 139.432C110.915 140.3 115.843 119.594 98.567 119.398V119.398ZM100.513 122.156C100.809 122.137 101.106 122.137 101.402 122.156V135.75C101.11 135.84 100.813 135.914 100.513 135.974V122.156ZM102.459 135.358L101.969 122.177C110.488 122.842 108.5 133.552 102.459 135.358Z" fill="white"/>
<path d="M51.576 137.192L50.631 137.157V132.53C51.9406 132.433 53.2285 132.143 54.453 131.669L56.938 137.059H55.979L56.021 139.796L60.921 139.6L60.69 137.22L59.423 137.171L55.832 131.004C63.777 124.571 55.874 119.314 49.091 120.182H46.123L46.438 123.283L47.425 123.227C47.425 123.528 47.796 136.786 47.803 137.101H46.83L46.872 139.838L51.8 139.6L51.576 137.192ZM56.287 126.51C56.287 131.025 50.631 130.675 50.631 130.675V123.017C50.631 123.017 56.28 122.268 56.287 126.51Z" fill="white"/>
<path d="M132.419 120.581L133.819 124.48L135.688 123.78L135.1 122.128C138.369 117.76 139.517 124.522 139.391 126.104C128.947 122.94 130.508 135.68 139.391 131.627V132.474H138.761V133.671H142.611V132.474H141.785C141.869 131.998 142.03 131.137 142.219 129.618C143.031 124.249 142.814 114.841 134.295 119.895L133.693 118.208L131.817 118.873L132.419 120.581ZM136.297 131.025C134.05 130.906 133.875 127.735 136.024 127.154C137.041 127.16 137.882 127.949 137.953 128.963C138.025 129.978 137.303 130.876 136.297 131.025Z" fill="white"/>
<path d="M132.44 136.163L131.817 139.299L145.537 139.04L144.921 135.001L132.44 136.163Z" fill="white"/>
<path d="M129.801 136.17L128.31 123.017L129.423 123.262L129.997 120.665L123.984 119.335L123.41 121.932L124.11 122.093L119.987 128.057L116.592 121.757L117.565 121.645L117.25 119.006L111.139 119.706L111.447 122.345L112.413 122.233L110.866 135.96L109.977 135.855L109.662 138.494L115.773 139.229L116.088 136.59L114.394 136.387L114.646 127.133L120.512 135.533L126.112 128.113C126.147 130.913 126.196 134.567 126.217 136.618L124.817 136.8L125.167 139.432L131.271 138.62L130.921 135.981L129.801 136.17ZM120.323 134.14L114.723 125.866L114.8 123.22L120.33 132.131L126.077 124.585V126.762L120.323 134.14Z" fill="white"/>
<path d="M88.3049 24.149C115.605 0.754972 93.8209 -5.02003 88.3049 5.82997C83.0199 -2.71003 73.9899 -0.57503 74.7809 6.89397C75.9779 14.097 87.4019 23.4 88.3049 24.149Z" fill="white"/>
<path d="M116.627 16.68C133.679 2.31598 120.827 -2.38102 116.627 4.90598C113.344 -0.526016 107.1 0.754984 108.003 5.93498C109.067 10.548 116.018 16.141 116.627 16.68Z" fill="white"/>
<path d="M59.178 16.897C76.223 2.53995 63.378 -2.16405 59.178 5.12995C55.888 -0.309047 49.623 0.999953 50.554 6.15195C51.618 10.8 58.569 16.4 59.178 16.897Z" fill="white"/>
<path d="M97.1109 157.954C94.0309 157.471 90.5659 159.571 88.2839 163.323C83.0199 154.79 73.9899 156.925 74.7809 164.387C75.9779 171.597 87.3809 180.865 88.3049 181.649C90.1319 180.2 111.083 161.58 97.1109 157.954Z" fill="white"/>
<path d="M122.283 158.955C120.302 158.647 118.083 159.991 116.613 162.406C113.344 156.967 107.079 158.255 108.003 163.435C109.067 168.041 116.018 173.641 116.627 174.173C117.705 173.382 131.264 161.216 122.283 158.955Z" fill="white"/>
<path d="M64.834 159.2C62.853 158.885 60.634 160.229 59.157 162.644C55.888 157.212 49.623 158.493 50.554 163.673C51.618 168.286 58.569 173.879 59.178 174.418C60.256 173.599 73.815 161.44 64.834 159.2Z" fill="white"/>
<path d="M90.454 47.9489C91.504 40.6619 91.098 29.0489 80.297 35.4959L79.52 33.3259L77.126 34.1799C77.868 36.2799 78.869 39.0799 79.674 41.3199L82.068 40.4659C81.942 40.1019 81.508 38.8839 81.312 38.3659C85.652 32.6679 86.912 41.6279 86.814 43.4549C73.591 39.3599 75.222 55.7189 86.814 50.5319V51.6239H86.009V53.1639H90.951V51.6239H89.894C90.069 50.5949 90.209 49.8809 90.454 47.9489V47.9489ZM82.859 49.7059C79.905 49.5729 79.807 45.3939 82.509 44.7499C85.764 44.7709 85.736 49.4259 82.859 49.7059Z" fill="white"/>
<path d="M93.912 54.809L77.917 56.3L77.126 60.311L94.703 59.975L93.912 54.809Z" fill="white"/>
<path d="M98.728 58.442L96.481 58.855L96.803 62.054L105.063 60.906L104.3 57.406L102.921 57.658L102.886 40.109L110.509 60.661L119.266 60.199V60.164L120.834 60.08L120.379 56.517L118.818 56.615L116.256 36.007L118.657 35.678L117.887 32.171L110.075 33.627L110.397 36.819L112.287 36.56L113.309 55.859L103.831 34.299L99.995 34.502L98.728 58.442Z" fill="white"/>
<path d="M28.686 36.9029L28.714 39.6329L34.167 39.5769L33.957 56.9649L32.354 57.0139L32.123 60.4859L41.538 60.3669L41.146 56.7269L38.913 56.8039L39.655 39.5209L45.465 39.4649L45.437 36.7419L39.774 36.7979L39.816 35.7199L45.549 35.6359L45.675 32.7869L28.882 32.4089L28.721 36.0629L34.209 35.8109L34.195 36.8539L28.686 36.9029Z" fill="white"/>
<path d="M57.071 60.654L59.374 60.591L58.919 56.3L56.931 56.447L56.7 48.978L65.898 49.524V56.762L62.902 57V60.871L69.678 60.675H69.937L72.947 60.591L72.457 56.3L69.902 56.489V35.489L71.617 35.454L71.274 32.731L63.994 33.186V35.636L65.905 35.587V42.804L56.511 43.385L56.245 35.454L58.009 35.412L57.638 32.689L49.938 33.144V35.594L51.8 35.552L51.1 56.853L49.364 57V60.871L56.7 60.64L57.071 60.654ZM65.877 43.742V44.771L56.553 45.471V44.715L65.877 43.742Z" fill="white"/>
<path d="M133.658 60.913L133.203 56.643L131.229 56.79L130.83 45.072L139.384 57.189L137.165 57.357L137.13 61.2L147.119 60.913L146.664 56.643L144.039 56.839L135.163 44.274L143.514 36.224L145.32 36.392L145.236 33.662L136.997 33.172L136.689 35.587L138.313 35.741L133.14 41.404L130.585 37.785L130.522 35.951L132.272 35.916L131.908 33.207L124.278 33.662L124.25 36.098L126.126 36.056L125.433 57.224L123.704 57.357L123.676 61.2L130.991 60.99L131.369 61.004V60.983L133.658 60.913Z" fill="white"/>
<path d="M0 156.183H15.89V150.149H6.034V29.812H15.89V23.778H0V156.183Z" fill="white"/>
<path d="M159.915 23.778V29.812H169.771V150.149H159.915V156.183H175.805V23.778H159.915Z" fill="white"/>
<path d="M17.29 82.4099H41.629V88.4229H17.29V82.4099Z" fill="white"/>
<path d="M17.29 92.322H41.629V98.335H17.29V92.322Z" fill="white"/>
<path d="M134.176 82.4099H158.515V88.4229H134.176V82.4099Z" fill="white"/>
<path d="M134.176 92.322H158.515V98.335H134.176V92.322Z" fill="white"/>
<path d="M98.0771 103.235L73.0941 104.026L72.9541 109.43L99.2111 109.241L98.0771 103.235Z" fill="white"/>
<path d="M85.617 102.36H86.1C102.837 102.556 102.2 75.718 88.109 73.527L87.962 68.9H81.935L82.306 73.905C69.335 78.7 70.945 102.346 85.617 102.36V102.36ZM82.698 79.127L82.978 82.886L88.34 82.284L88.235 78.392C96.761 83.292 95.872 96.284 86.086 97.355C75.558 95.892 76.58 83.726 82.698 79.127V79.127Z" fill="white"/>
<path d="M52.857 106.994L52.542 110.809L65.072 110.648L65.135 105.965L63.196 106.126L62.454 95.4999C68.467 92.6229 68.894 82.4729 68.642 76.9289H70.329V72.5119L61.292 72.4419V76.8519H63.945C65.541 99.0629 53.823 94.7299 52.297 76.8519H54.467V72.4349L45.5 72.4629V76.8729H47.264C47.523 82.9419 49.084 94.6039 57.113 96.1089L56.063 106.7L52.857 106.994Z" fill="white"/>
<path d="M103.558 104.033L103.418 109.444L129.724 109.248L128.59 103.235L103.558 104.033Z" fill="white"/>
<path d="M118.748 77.363H121.884C123.767 103.571 109.984 98.685 108.101 77.405H110.663L110.705 72.183L100.016 72.092L99.967 77.321H102.067C102.382 107.974 129.787 108.415 127.456 77.377H129.458L129.5 72.155L118.804 72.064L118.748 77.363Z" fill="white"/>
</svg>
