<svg width="148" height="76" viewBox="0 0 148 76" fill="none" xmlns="http://www.w3.org/2000/svg">
<path d="M24.2198 11.8095C24.3898 10.2595 25.9998 3.12947 26.5698 0.579468H31.5098C32.4635 4.27624 33.1981 8.0261 33.7098 11.8095H33.8298C34.1836 9.06982 34.6911 6.3522 35.3498 3.66947H34.0498V0.579468H40.8398V3.66947H39.5298L35.9998 17.1795H30.3698C29.8098 14.8495 28.7598 11.1795 28.3698 8.57947H28.2698C28.1398 9.99947 26.6398 15.6295 26.2698 17.1795H20.7298L17.5898 3.66947H16.2598V0.579468H24.0998V3.66947H22.7198L23.3398 7.12947C23.5998 8.26947 23.9998 11.1295 24.0998 11.8095H24.2198Z" fill="white"/>
<path d="M40.9998 8.78951C40.9998 -2.87049 57.6398 -2.41049 57.7798 7.97951C59.3798 20.4295 40.5898 20.9795 40.9998 8.78951ZM51.9198 8.95951C52.0398 5.95951 50.2998 2.45951 48.1898 4.24951C43.5098 9.8895 51.1098 19.8495 51.8698 8.95951H51.9198Z" fill="white"/>
<path d="M58.7498 0.579514C66.8098 -0.870486 79.7998 3.05951 69.5998 8.90951C72.4598 8.23951 73.2598 17.1295 73.8298 12.3595H75.4198C76.4198 17.1195 70.9798 19.2495 67.9798 15.6595C66.5798 13.9095 68.5398 10.0695 64.9798 10.3595V14.0395H66.4298V17.1795H58.7498V14.0395H60.0798V3.68951H58.7498V0.579514ZM64.9998 3.66951V7.66951C69.0598 8.45951 69.6598 3.12951 64.9998 3.66951V3.66951Z" fill="white"/>
<path d="M76.2498 0.579468H83.7498V3.70947H82.4898V14.0195H85.5498V11.0195H89.5498V17.1995H76.2498V14.0195H77.5498V3.70947H76.2498V0.579468Z" fill="white"/>
<path d="M90.7297 17.1795V14.0195H92.1997V3.70953H90.7297V0.579529C113.69 -2.51047 111.77 20.7995 90.7297 17.1795ZM97.9997 3.70953H97.0997V14.0195H97.9997C102.33 14.1295 103.09 4.06953 97.9997 3.70953Z" fill="white"/>
<path d="M114 0.719482L111.09 4.12948H109.62L111.71 0.729482L114 0.719482Z" fill="white"/>
<path d="M114.94 17.1795V11.1795H119.35C119.35 13.1795 121.35 13.5095 122.35 13.5595C128.76 11.4995 117.75 11.3195 115.76 7.44953C112.92 0.309528 123.13 -2.07047 125.87 2.55953L126.11 0.559528H130.19V6.55953H125.89C125.51 1.73953 117.89 4.61953 123.08 6.63953C138.72 10.4795 126.41 22.4695 119.36 15.3695L119.1 17.1995L114.94 17.1795Z" fill="white"/>
<path d="M24.0997 60.1294C21.9497 60.4694 20.2397 60.7894 18.9697 61.0594C20.7497 55.6494 21.2897 50.0594 15.9697 53.0594C13.3697 56.9794 11.8497 59.4194 8.42975 61.7494C-0.370254 64.9994 7.65975 49.9394 9.06975 48.4394C13.4497 42.0494 16.2697 47.8794 13.5997 49.9594C14.1197 51.3194 16.5997 51.1394 16.8997 50.7394C16.7997 32.9994 -4.45025 54.8094 0.849746 62.2594C1.51107 63.395 2.68109 64.1402 3.98975 64.2594C9.64975 64.1594 12.9197 58.9594 15.5697 55.4994C15.1713 57.8194 14.6099 60.1084 13.8897 62.3494C7.99975 64.0294 0.929746 66.9994 0.739746 72.4194C0.81596 73.9868 1.888 75.3288 3.39975 75.7494C11.4797 76.7494 16.7897 68.2494 18.6297 62.1594C21.0797 61.6194 22.8697 61.3694 24.0997 61.1594C24.7397 60.8694 24.5497 60.6594 24.6399 60.5694C24.6433 60.4332 24.5835 60.3029 24.4778 60.2168C24.3721 60.1307 24.2325 60.0984 24.0997 60.1294V60.1294ZM2.31975 73.7594C-0.000253677 67.4594 8.70975 65.3094 13.4497 63.4994C11.8197 69.1294 6.79975 75.1894 2.31975 73.7594Z" fill="white"/>
<path d="M146.64 55.4895C145.898 56.8249 145.012 58.0756 144 59.2195C144.72 56.0295 142.49 53.2195 141.27 51.6695L141.34 51.5195C142.47 49.6795 141.98 49.3995 141.74 48.7795C138.28 47.3595 138.62 51.7795 139.38 52.5495C138.69 53.9895 138.23 54.6995 137.98 55.2895C137.98 55.2895 137.91 55.3495 137.92 55.3795C136.6 58.2195 134.82 60.9395 133.04 62.1595C132.55 57.6295 137.69 51.7695 138.61 47.7995C142.4 47.5795 144.36 47.3495 146.27 46.0995C147.03 44.7395 145.33 44.5395 145.47 45.1495C143.8 46.8995 140.47 46.0695 139.15 46.2795C139.431 45.523 139.537 44.7127 139.46 43.9095C138.79 42.0495 136.46 42.6495 136.57 43.2395C136.501 44.2054 136.257 45.1507 135.85 46.0295C133 45.7895 130.85 45.5895 129.05 46.2495C125.88 47.5695 128.05 51.3695 128.4 49.5295C129.51 46.9895 133.81 48.1195 135.13 47.7995C134.07 50.3795 132.86 53.0895 131.9 55.5695C123.84 68.7795 127.58 58.8995 129.41 53.8395C129.58 51.2195 128.54 50.7795 127.61 50.6395C123.85 51.8995 124.18 53.4095 123.61 53.4695C124.69 50.6195 120.95 50.1095 120.77 51.2295C120.554 52.9365 120.046 54.5939 119.27 56.1295C117.27 58.5195 115.45 62.4395 112.61 62.2095C110.88 61.0895 112.21 58.7395 112.07 58.3395C122.22 54.3395 117.14 46.7195 111.66 52.7695C111.12 53.6295 110.66 54.4195 110.3 55.1595C110.13 55.2195 109.98 55.3295 109.98 55.3995C108.67 58.2395 106.88 60.9495 105.11 62.1795C104.64 56.9495 113.83 49.0095 103.11 51.2995C103.231 50.6734 103.291 50.0371 103.29 49.3995C101 44.7995 99.2098 51.7695 101.79 52.0295C101.15 53.9195 100.73 54.7695 100.51 55.2995C100.51 55.2995 100.45 55.3695 100.45 55.3995C99.1498 58.2495 97.3498 60.9495 95.5798 62.1795C94.5198 59.5395 103.03 48.6595 95.8398 51.2495C95.9698 53.3595 94.6098 54.6095 94.3198 55.8395C92.9198 58.3195 91.7398 62.0795 89.6298 62.2095C86.9198 58.8195 91.7998 52.2895 93.4898 51.6895C93.6826 51.6896 93.8528 51.8153 93.9098 51.9995C93.3898 52.4695 93.5598 52.5795 93.4898 52.6995C93.7998 53.9095 94.6998 53.2795 94.8298 53.2095C95.8298 51.2095 93.7198 50.6895 93.0798 50.6095C89.8898 50.6095 87.4698 53.4595 86.4298 56.4495C84.5698 59.5795 82.3498 61.8995 80.1398 62.4495C83.6898 59.4495 85.8798 52.8695 82.0698 50.9795C79.0098 50.2595 78.6698 51.5795 77.3298 52.7095C77.3782 52.4349 77.3782 52.154 77.3298 51.8795C76.6598 50.0095 74.3298 50.6295 74.4398 51.2095C74.1569 52.6121 73.752 53.9873 73.2298 55.3195C73.2298 55.3195 73.1698 55.3895 73.2298 55.4095C71.9098 58.2495 70.1298 60.9695 68.3498 62.1895C66.9998 58.5395 80.3998 39.9795 71.8398 43.2395C70.9198 48.0495 67.9298 52.8595 66.9898 55.9495C65.3098 58.9495 64.4998 62.0195 62.3798 62.1895C59.6698 58.7995 64.5398 52.2695 66.2398 51.6695C66.4311 51.6673 66.5997 51.7948 66.6498 51.9795C66.1398 52.4495 66.3098 52.5595 66.2398 52.6795C66.5498 53.9095 67.4998 53.2395 67.6098 53.1595C68.5298 51.1595 66.4598 50.6795 65.8298 50.5895C62.8298 50.5895 60.4498 53.1895 59.3298 56.0195C51.6398 68.5495 55.3298 58.8395 57.1198 53.8395C57.2898 51.2195 56.2498 50.7795 55.3098 50.6395C51.5598 51.8995 51.8798 53.4095 51.3098 53.4695C52.3998 50.6195 48.6598 50.1095 48.4798 51.2295C48.318 52.6144 47.9366 53.9646 47.3498 55.2295C47.2398 55.2895 47.1598 55.3595 47.1598 55.4095C45.8598 58.2595 44.0598 60.9595 42.2898 62.1895C41.2298 59.5495 49.7398 48.6695 42.5498 51.2595C42.6798 53.3695 41.3198 54.6195 41.0298 55.8495C39.6298 58.3295 38.4498 62.0895 36.3398 62.2195C33.6298 58.8295 38.5098 52.2995 40.1998 51.6995C40.3926 51.6996 40.5628 51.8253 40.6198 52.0095C40.0998 52.4795 40.2698 52.5895 40.1998 52.7095C40.5098 53.9195 41.4098 53.2895 41.5398 53.2195C42.5398 51.2195 40.4298 50.6995 39.7898 50.6195C36.4998 50.6195 34.0198 53.6195 33.0398 56.7595C32.0548 58.8302 30.6321 60.6624 28.8698 62.1295C28.3998 56.8995 37.5798 48.9595 26.8698 51.2495C26.9969 50.6243 27.0573 49.9874 27.0498 49.3495C24.7698 44.7495 22.9798 51.7195 25.5598 51.9795C24.7798 54.2595 24.3298 55.0395 24.1698 55.5595C24.0598 56.4595 24.9298 56.0295 24.9598 55.8895C26.0298 53.6495 26.2698 52.8195 26.5098 52.3095C29.3898 52.6195 28.5098 52.1795 29.0898 52.2095C27.3798 56.0295 24.2498 63.1295 27.9998 63.4795C30.002 62.6989 31.6395 61.197 32.5898 59.2695C32.5198 61.0995 33.1098 62.6395 34.5198 63.1895C37.2498 64.3395 38.7498 61.7795 39.6198 60.5095C39.5198 62.7895 40.4398 63.3795 41.4498 63.5095C42.984 62.9697 44.3005 61.9446 45.1998 60.5895C45.0947 61.1344 45.0947 61.6945 45.1998 62.2395C48.0098 66.9095 48.6998 57.0595 50.1998 56.4695C51.6198 54.4195 53.1498 52.5995 54.4498 51.9795C55.9998 54.6195 48.8198 62.1795 53.9998 63.4795C56.0178 62.6863 57.6659 61.1667 58.6198 59.2195C58.5398 61.0695 59.1198 62.6395 60.5498 63.2195C63.2398 64.3595 64.7498 61.8395 65.6198 60.5895C65.5598 62.8395 66.4498 63.4195 67.4498 63.5095C68.6568 63.1089 69.7273 62.3779 70.5398 61.3995C69.1198 64.4695 67.8498 67.3995 67.7398 70.1795C69.0898 72.7695 70.4698 71.0895 70.2798 69.6695C72.1598 64.4795 74.9098 59.8495 76.5298 55.5395C77.5298 53.6395 79.1498 51.7995 80.2598 51.9795C83.0398 55.2095 78.0598 61.9795 76.3998 62.4995C76.2013 62.4739 76.0407 62.3254 75.9998 62.1295C76.2756 62.0133 76.4508 61.7386 76.4398 61.4395C76.1098 60.1995 75.2298 60.8695 75.0698 60.9495C74.1498 62.9495 76.2198 63.4395 76.8498 63.5195H77.2398C80.7098 64.4095 83.9998 61.6595 85.9298 59.0995C85.8298 60.9895 86.4098 62.5995 87.8598 63.1595C90.5898 64.3095 92.0898 61.7495 92.9598 60.4795C92.8598 62.7595 93.7798 63.3495 94.7898 63.4795C98.2998 62.3795 99.7898 58.3895 101.11 56.0495C101.19 56.0495 101.25 55.9595 101.26 55.9195C102.33 53.6795 102.57 52.8495 102.81 52.3395C105.69 52.6495 104.81 52.2095 105.38 52.2395C103.67 56.0295 100.54 63.1595 104.3 63.4795C106.281 62.7089 107.906 61.23 108.86 59.3295C108.09 64.5695 113.86 64.0695 117.62 60.2695C117.458 60.9036 117.434 61.5652 117.55 62.2095C120.36 66.8795 121.05 57.0295 122.55 56.4395C123.97 54.3895 125.5 52.5695 126.8 51.9495C128.38 54.6195 121.16 62.1795 126.34 63.4795C128.113 62.8251 129.598 61.5639 130.53 59.9195C130.53 60.0395 130.46 60.1695 130.44 60.2795C130.2 63.5295 131.6 63.2095 132.24 63.4795C135.91 62.3295 137.38 58.0395 138.74 55.7595C138.79 55.7595 138.84 55.6895 138.84 55.6695C140.08 53.3195 139.76 53.9795 140 53.4995C142 57.1095 141.71 61.7695 138.84 62.5695C136.46 61.9995 137.93 59.7495 138.07 59.3995C139.43 61.0595 140.07 58.2295 138.82 58.3995C133.54 60.3995 138.69 65.2595 141.03 62.9895C144.77 61.3895 149.06 54.1295 146.64 55.4895V55.4895ZM112.64 56.7695C113.85 54.2795 114.95 52.0795 116.51 51.6695C118.03 54.1095 113.93 56.7795 112.44 57.2895C112.46 57.1295 112.53 56.9595 112.61 56.7695H112.64Z" fill="white"/>
<path d="M54.5999 26.8995V29.5395C57.2499 30.2895 57.9199 26.4795 54.5999 26.8995Z" fill="white"/>
<path d="M54.5999 31.5295V34.5995C55.5999 34.5995 57.0199 34.9595 57.4399 33.0795C57.5099 32.0195 56.1699 31.2895 54.5999 31.5295V31.5295Z" fill="white"/>
<path d="M118.81 21.2695H28.6497L34.4797 30.7895L28.6497 39.9695H118.81L113 30.4495L118.81 21.2695ZM49.9297 36.8895V34.5995H50.9297V26.8395H49.9297V24.5695C54.1097 24.1195 65.4297 24.5095 59.0997 30.3095C67.1397 36.5995 54.1297 37.5295 49.9297 36.8895ZM72.6697 28.4595H69.6697V26.8995H66.7997V29.3295H70.1497V31.6695H66.7997V34.5395H69.6197V32.9095H72.6197V36.9095H61.9997V34.5395H63.1097V26.8995H61.9997V24.5695H72.6697V28.4595ZM76.8197 35.5295L76.6297 36.8895H73.5497V32.4495H76.8197C76.8197 33.9295 78.2997 34.1695 79.0397 34.2095C83.8397 32.6795 75.3997 32.5295 74.0397 29.4995C72.2697 24.4495 79.3497 22.5995 81.6197 26.0495L81.7997 24.5695H84.7997V28.9895H81.6697C82.0097 26.8595 77.3097 26.2795 78.4997 28.4695C79.7697 29.6095 84.2197 29.7495 85.0997 32.6895C86.0597 37.2795 79.1497 38.4195 76.8197 35.5295V35.5295ZM97.7097 29.1295H95.1197V26.8995H93.6397V34.5395H95.0997V36.8895H88.5397V34.5395H89.9997V26.8995H88.4697V29.1295H85.8797V24.5695H97.7097V29.1295Z" fill="white"/>
</svg>
