<svg width="137" height="169" viewBox="0 0 137 169" fill="none" xmlns="http://www.w3.org/2000/svg">
<path d="M106.218 107.333C114.499 106.99 114.093 100.214 111.181 103.567C107.107 106.22 105.161 102.937 104.734 95.4401C102.963 81.2161 114.436 49.7651 102.697 54.7701C102.235 59.5161 100.303 71.3741 95.865 78.5701C92.239 84.6741 87.801 85.1781 88.809 78.0801C88.935 70.7161 96.852 52.7051 86.1 53.4191C83.797 53.5731 85.477 57.1011 84.588 60.6991C83.2117 61.8113 81.7049 62.7516 80.101 63.4991C76.93 49.5761 65.212 66.4671 78.519 65.5501C78.68 84.2331 63.42 91.9401 66.269 70.0371C67.116 58.5081 80.556 55.1831 70.308 54.1051C61.418 52.5511 56.938 69.1481 60.935 80.0611C69.706 94.0611 82.089 79.6341 80.29 65.0811C81.6841 64.5636 83.0192 63.8996 84.273 63.1001C78.253 92.3881 94.073 88.6501 100.135 76.6031C99.785 80.6001 95.004 107.305 106.218 107.333ZM77.252 64.1361C69.664 62.6941 77.952 55.2251 78.414 64.0031C78.0318 64.0845 77.6427 64.1291 77.252 64.1361Z" fill="white"/>
<path d="M39.2001 82.5461C33.8171 82.1261 39.2001 66.6071 39.1301 58.6551C39.0881 54.2241 32.8931 50.9061 32.6131 56.6601C31.8571 72.3611 27.4191 85.1151 39.2911 85.2411C46.3471 85.3181 49.8541 76.0291 49.5951 77.4431C48.8951 81.3981 48.1321 85.2341 47.3761 88.8671C40.5021 89.3431 33.9711 91.5691 29.6451 95.5381C19.9081 104.484 18.9141 120.311 33.9151 120.311C45.2131 120.311 51.0091 106.101 54.2151 90.6731C56.8659 90.7793 59.4752 91.3675 61.9151 92.4091C67.9491 112.359 78.7151 105.009 73.0661 96.8891C78.7781 96.5111 80.7661 90.5891 76.3351 88.8041C72.9121 87.7051 66.9901 89.8471 63.6931 91.1071C60.7555 90.0429 57.7 89.3378 54.5931 89.0071C56.7001 77.8001 57.5471 66.2501 58.1561 59.1661C58.4851 55.3371 51.2051 51.9561 50.7361 55.6661C50.0571 61.0981 49.8051 83.4001 39.2001 82.5461V82.5461ZM32.9841 117.252C22.1971 117.364 22.9321 104.967 30.2961 97.7641C34.4961 93.6761 40.8381 91.5411 46.9561 90.8411C43.7151 106.017 39.8441 117.182 33.0121 117.252H32.9841Z" fill="white"/>
<path d="M27.6149 48.47C39.5639 47.574 40.2149 27.645 40.9849 17.425C41.0339 13.659 43.9529 2.27 40.6559 2.025C32.8999 -1.587 15.2389 19 27.9999 22.654C28.8189 22.738 29.8619 22.094 28.9869 21.499C17.6749 17.824 34.7059 1.192 37.1699 5C35.6999 12.609 35.8119 35.884 29.7079 43.255C25.0739 48.785 14.6859 42.387 15.0079 36.255C14.6299 25.755 28.8609 22.92 29.0079 32.559C29.6449 34.442 30.4079 29.892 29.6029 29.122C13.0479 12.777 3.43691 51.522 27.6149 48.47V48.47Z" fill="white"/>
<path d="M63.5111 47.434C67.1021 47.483 69.6081 44.788 71.2671 41.89C78.0151 55.575 88.5221 41.946 86.8071 31.516C88.0398 31.0604 89.2145 30.4613 90.3071 29.731C85.1971 56.723 104.797 49.926 104.272 30.123C105.306 29.8855 106.326 29.5863 107.324 29.227C100.429 44.011 112.966 56.891 122.416 37.809L121.142 37.669C120.54 39.237 113.666 50.388 110.74 42.086C126.644 27.078 116.011 17.054 108.29 27.708C106.997 28.2505 105.663 28.6882 104.3 29.017C103.446 15.255 91.7001 30.333 102.739 30.417C102.739 38.271 96.9711 51.375 93.1631 44.466C91.7631 39.426 95.8301 29.416 96.4251 26.693C94.8991 20.75 91.2941 22.682 90.8251 27.603C89.5526 28.688 88.1399 29.5968 86.6251 30.305C84.0841 19.476 75.1031 32.643 85.3931 31.908C82.1101 60.608 66.8781 38.145 81.8441 24.908C82.2711 24.068 81.8441 23.599 80.5701 23.193C72.2891 21.205 70.0001 31.537 70.7281 39.293C67.3121 47.189 60.3751 49.8 60.5501 38.236C64.3161 31.334 80.2901 0.856028 69.1041 0.799977C58.4011 0.744028 48.9231 47.224 63.5111 47.434V47.434ZM116.221 27.134C119.189 28.863 113.75 36.633 110.327 40.252C108.941 36.5 113.246 27.134 116.2 27.148L116.221 27.134ZM101.794 29.234C96.6351 26.924 103.299 21.254 102.788 29.234C102.458 29.2728 102.125 29.2798 101.794 29.255V29.234ZM84.4411 30.788C78.5471 29.591 85.0641 23.935 85.3441 30.683C85.0481 30.7553 84.7456 30.7975 84.4411 30.809V30.788ZM69.5451 5.98688C74.7601 6.07803 65.4011 24.95 60.7111 34.085C61.6001 22.248 66.2971 5.93103 69.5451 5.98688V5.98688Z" fill="white"/>
<path d="M51.926 139.715C52.885 133.254 52.577 122.404 42.63 128.319L41.93 126.338L39.739 127.122C40.39 128.949 41.335 131.609 42.07 133.653L44.261 132.869C44.142 132.533 43.75 131.42 43.561 130.923C47.425 125.799 48.748 133.779 48.594 135.585C36.47 131.84 38.031 146.785 48.594 142.06V143.061H47.894V144.461H52.409V143.061H51.415C51.576 142.137 51.702 141.5 51.926 139.715V139.715ZM44.975 141.325C42.273 141.199 42.175 137.377 44.66 136.789C45.8437 136.809 46.8153 137.732 46.8973 138.913C46.9793 140.094 46.1445 141.141 44.975 141.325V141.325Z" fill="white"/>
<path d="M55.0899 145.987L40.4529 147.352L39.7319 151.034L55.8179 150.719L55.0899 145.987Z" fill="white"/>
<path d="M9.73691 150.817C20.3979 150.817 18.9629 139.617 18.9629 139.617L9.86291 139.82L9.09991 144.3L12.1099 144.482V142.137L15.6099 141.99C15.6099 141.99 15.6659 146.575 10.9899 146.848C-0.651093 146.4 3.12891 129.467 12.2779 131.252L10.7029 133.303L13.1949 135.571L18.8369 128.9L15.7849 126.702L14.2799 128.669C12.6561 127.968 10.9035 127.615 9.13491 127.633C-3.19909 128.788 -2.90509 150.901 9.73691 150.817V150.817Z" fill="white"/>
<path d="M77.7349 146.603L76.3699 146.687L74.1229 128.641L76.2229 128.347L75.5579 125.281L68.7049 126.555L68.9919 129.355L70.6509 129.124L71.5399 146.029L63.2379 127.143L59.8779 127.325L58.7719 148.29L56.8049 148.654L57.0849 151.454L64.3229 150.446L63.6509 147.38L62.4399 147.604L62.4119 132.232L69.0899 150.236L76.7619 149.83L76.7549 149.802L78.1339 149.725L77.7349 146.603Z" fill="white"/>
<path d="M79.8561 147.1L79.5481 151.013L83.1601 150.901C100.415 151.776 105.966 126.184 84.7631 126.037L79.9821 125.925L80.0661 129.649L81.8301 129.572L82.3131 146.995L79.8561 147.1ZM96.1241 136.95C96.0681 142.277 92.2251 144.769 89.5931 145.847L88.9841 129.488C91.6091 129.719 96.1801 131 96.1241 136.95V136.95ZM87.1781 129.46C87.5441 129.439 87.9111 129.439 88.2771 129.46V146.33C87.9159 146.442 87.549 146.536 87.1781 146.61V129.46Z" fill="white"/>
<path d="M31.962 151.3L38.087 151.055L37.8 148.122L36.225 148.066L31.78 140.408C41.615 132.414 31.955 125.925 23.38 126.975H19.677L20.076 130.818L21.294 130.755C21.294 130.993 21.763 147.681 21.77 147.975L20.559 147.933L20.615 151.335L26.74 151.09L26.446 148.136L25.27 148.094V142.354C26.8985 142.233 28.5002 141.873 30.023 141.283L33.103 147.975L31.913 147.933L31.962 151.3ZM25.27 140.037V130.538C35.987 129.642 33.25 140.996 25.27 140.037Z" fill="white"/>
<path d="M120.834 125.106L118.51 125.932C119.21 127.899 120.211 130.706 120.981 132.848L123.298 132.015C123.172 131.665 122.752 130.489 122.598 129.964C126.798 124.448 128.051 133.121 127.918 134.864C115.094 130.902 116.718 146.764 127.918 141.717V142.767H127.141V144.3H131.922V142.809H130.9C131.075 141.822 131.208 141.129 131.446 139.26C132.454 132.421 132.146 120.927 121.611 127.199L120.834 125.106ZM124.061 140.968C121.205 140.835 121.107 136.768 123.725 136.173C126.833 136.187 126.882 140.681 124.061 140.968Z" fill="white"/>
<path d="M118.51 151.244L135.534 150.915L134.771 145.91L119.273 147.352L118.51 151.244Z" fill="white"/>
<path d="M116.452 132.764C116.507 130.883 115.578 129.109 114.002 128.081L115.507 126.443L111.594 124.7L110.642 126.66C108.425 126.143 106.148 125.931 103.873 126.03H100.1L100.506 129.957L101.745 129.887L102.193 145.987L101.059 146.057V148.052L102.249 148.01V148.71L101.038 148.787V150.985L109.2 150.6L108.948 148.192L105.749 148.395V147.8L108.752 147.681L108.521 145.511L105.721 145.686V141.675C105.721 141.675 116.452 141.185 116.452 132.764V132.764ZM109.116 129.782L108.269 131.518L109.935 132.491L111.482 130.811C116.641 137.223 107.373 139.988 105.77 139.337V129.635C106.886 129.515 108.015 129.564 109.116 129.782Z" fill="white"/>
<path d="M0 158.496H136.654V168.723H0V158.496Z" fill="white"/>
</svg>
