<svg width="173" height="174" viewBox="0 0 173 174" fill="none" xmlns="http://www.w3.org/2000/svg">
<path d="M81.4727 104.076C78.0842 102.842 74.5584 102.024 70.9727 101.64C73.4577 88.7601 74.4308 75.4251 75.1308 67.2631C75.5088 62.8531 67.1158 58.9541 66.5768 63.2521C65.7928 69.4961 65.5057 95.2001 53.3187 94.2131C47.1167 93.7231 53.3187 75.8451 53.2347 66.6751C53.1857 61.6001 46.0457 57.7501 45.7237 64.4001C44.8487 82.4881 39.7387 97.1881 53.4237 97.3351C61.5507 97.4191 65.5967 86.7231 65.3237 88.3541C64.4487 92.8831 63.6087 97.3001 62.7057 101.5C54.7817 102.053 47.2568 104.615 42.2727 109.2C31.0728 119.504 29.9107 137.746 47.1727 137.753C60.1927 137.753 66.8777 121.373 70.5387 103.586C73.5826 103.719 76.5775 104.399 79.3797 105.595C86.5267 128.884 98.7417 119.791 92.2247 110.754C98.6297 110.348 100.996 103.796 96.3197 101.549C92.5257 100.009 85.3437 102.599 81.4727 104.076ZM46.1507 134.176C33.7187 134.309 34.5657 120.022 43.0497 111.72C47.8657 107.009 55.2017 104.545 62.2577 103.74C58.5057 121.254 54.0187 134.12 46.1507 134.204V134.176Z" fill="white"/>
<path d="M130.515 122.78C138.915 122.78 139.433 115.906 137.361 117.6C128.387 124.964 126.707 109.851 130.97 82.5231C132.244 74.3611 133.245 67.2981 132.797 64.9461C132.265 62.1461 126.196 59.7101 126.245 63.1891C126.35 70.1891 120.204 94.1291 112.56 95.0531C106.778 95.7531 114.142 74.9001 113.89 66.4371C113.687 59.5701 105.742 59.7731 105.931 61.7961C106.058 64.2139 105.945 66.6384 105.595 69.0341C104.011 70.305 102.276 71.3748 100.429 72.2191C96.7678 56.1611 83.2298 75.6001 98.6018 74.5991C99.1198 84.5811 92.0988 100.1 85.8898 93.4991C81.3048 86.7301 84.9798 70.0421 93.0578 64.6591C96.1588 59.9061 83.7898 61.1591 82.6418 63.3571C77.7418 66.4721 74.9418 81.2561 77.8538 90.0691C86.9538 108.101 102.935 91.6301 100.639 74.0321C102.245 73.4524 103.785 72.7014 105.231 71.7921C98.3148 105.721 116.536 101.094 123.501 87.4231C123.053 92.2111 117.649 122.752 130.515 122.78ZM97.1388 72.9891C88.4518 71.5471 97.8388 62.4891 98.4828 72.8491C98.0409 72.9427 97.5904 72.9896 97.1388 72.9891Z" fill="white"/>
<path d="M39.9277 54.9432C53.7667 53.8932 54.4877 30.7932 55.3277 19.0472C55.4117 14.6232 58.6737 1.86217 55.0407 1.42817C47.5227 -1.49783 33.6417 11.6972 35.4407 20.6782C35.2027 23.8142 41.7407 27.0202 41.7407 24.0312C28.5877 19.9642 47.0607 1.07817 50.9107 4.72517C49.1047 14.2312 49.4057 49.7002 38.4577 51.2262C27.6427 52.2272 21.6087 40.7262 28.0837 33.0262C32.2837 27.4892 42.1467 29.3232 41.6287 36.9042C42.1117 38.0102 42.7977 35.0842 42.6437 33.9432C42.2377 31.2342 38.8847 28.4342 33.9287 28.3432C17.6117 28.7002 19.5297 58.4432 39.9277 54.9432Z" fill="white"/>
<path d="M147.756 42.4971C147.056 44.3311 139.181 57.1481 135.765 47.5861C154.056 30.3801 141.911 18.6621 132.965 31.0101C131.471 31.6334 129.931 32.139 128.359 32.5221C127.421 16.6671 113.792 33.9991 126.553 34.1111C126.616 43.5191 119.329 58.8771 115.395 49.8261C114.191 43.8481 118.566 32.8721 119.273 29.8831C117.656 22.9811 113.309 25.1861 112.819 30.8631C111.361 32.1133 109.741 33.161 108.003 33.9781C105.119 21.4901 94.6676 36.6521 106.603 35.8261C102.76 68.9991 85.2876 42.9801 102.564 27.6221C102.984 26.6701 102.41 26.1171 100.8 25.7111C91.4336 23.6601 88.8996 35.4621 89.6906 44.3591C85.7566 53.4241 77.7136 56.5251 77.9306 43.1411C82.2216 35.1891 100.632 0.0701109 87.7446 5.54251e-05C75.4106 -0.0628891 64.4906 53.5081 81.3046 53.7461C85.4346 53.8021 88.3046 50.6941 90.2366 47.3621C97.9366 63.1191 110.152 47.4531 108.15 35.3991C109.584 34.8763 110.952 34.1854 112.224 33.3411C106.33 64.3371 128.863 56.7911 128.324 33.7961C129.509 33.5188 130.677 33.1753 131.824 32.7671C123.879 49.8821 138.334 64.6171 149.219 42.6511L147.756 42.4971ZM88.2556 5.97795C94.2616 6.08311 83.4746 27.8321 78.0706 38.3601C79.1276 24.7171 84.5106 5.91511 88.2556 5.97795ZM105.406 34.5801C98.5876 33.2501 106.106 26.6281 106.449 34.4611C106.107 34.5409 105.757 34.5809 105.406 34.5801ZM142.03 30.3801C145.453 32.3681 139.181 41.3351 135.24 45.5001C133.637 40.9081 138.733 30.2961 142.044 30.3661L142.03 30.3801ZM125.405 32.8091C119.49 30.3521 127.057 23.4011 126.553 32.8091C126.175 32.8354 125.796 32.8308 125.419 32.7951L125.405 32.8091Z" fill="white"/>
<path d="M59.8221 159.877C61.0331 151.68 60.1791 140.123 49.1121 146.78L48.2791 144.456L45.7661 145.38C46.5501 147.578 47.6071 150.546 48.4541 152.905L50.9811 152.002L50.1831 149.769C54.9011 143.7 56.0911 153.388 55.9861 155.138C42.0351 150.826 43.7361 168.067 55.9861 162.6V163.748H55.1391V165.365H60.3471V163.748H59.2271C59.4161 162.67 59.5631 161.914 59.8221 159.877ZM51.8141 161.732C48.6641 161.732 48.3631 156.181 52.2061 156.573C54.9571 157.189 54.5791 161.48 51.8141 161.732Z" fill="white"/>
<path d="M46.5991 168.676L45.7661 172.918L64.3091 172.561L63.4691 167.108L46.5991 168.676Z" fill="white"/>
<path d="M11.361 159.996L10.479 165.183L13.979 165.393V162.691L18.046 162.523C18.046 162.523 18.109 167.801 12.712 168.123C-0.777 167.57 3.535 148.089 14.112 150.126L12.299 152.485L15.169 155.096L21.665 147.396L18.165 144.862L16.429 147.123C14.557 146.318 12.5376 145.913 10.5 145.933C3.346 146.311 0 153.696 0 160.437C0 167.178 4.879 172.68 11.179 172.68C23.457 172.68 21.805 159.765 21.805 159.765L11.361 159.996Z" fill="white"/>
<path d="M89.5651 167.815L87.9901 167.913L85.4071 147.109L87.8291 146.773L87.0521 143.245L79.1631 144.708L79.4851 147.935L81.3961 147.669L82.4251 167.15L72.8561 145.387L68.9851 145.597L67.7111 169.754L65.4431 170.174L65.7651 173.401L74.1021 172.246L73.3321 168.711L71.9391 168.97L71.9111 151.253L79.6041 172.001L88.4451 171.532L88.4381 171.497L90.0271 171.406L89.5651 167.815Z" fill="white"/>
<path d="M97.6641 144.113L92.1551 143.987L92.2531 148.285L94.2831 148.187L94.8431 168.27L92.0431 168.403L91.6931 172.911L95.8511 172.785C116.011 173.639 121.856 144.169 97.6641 144.113ZM100.464 148.061C100.886 148.037 101.309 148.037 101.731 148.061V167.507C100.961 167.738 100.464 167.829 100.464 167.829V148.061ZM103.264 166.961L102.564 148.11C114.618 149.062 112.112 164.189 103.236 166.94L103.264 166.961Z" fill="white"/>
<path d="M41.734 169.502L36.603 160.675C47.887 151.526 36.946 143.98 26.957 145.191H22.666L23.121 149.622L24.521 149.552C24.521 149.888 25.06 169.012 25.067 169.39L23.667 169.341L23.723 173.268L30.779 172.967L30.443 169.558L29.092 169.516V162.88C30.9654 162.738 32.8075 162.321 34.559 161.641L38.115 169.341L36.715 169.292L36.778 173.219L43.834 172.932L43.498 169.523L41.734 169.502ZM29.134 160.248V149.293C41.279 148.229 38.479 161.284 29.106 160.248H29.134Z" fill="white"/>
<path d="M153.41 146.381C153.879 147.69 154.943 150.679 155.405 151.981L158.079 150.98L157.232 148.614C162.23 142.216 163.483 152.415 163.371 154.298C148.671 149.72 150.365 167.976 163.371 162.201V163.412H162.475V165.127H167.991V163.412H166.808C167.004 162.278 167.158 161.48 167.431 159.324C168.712 150.476 167.837 138.443 156.098 145.422L155.237 143L152.556 143.98L153.41 146.381ZM158.954 161.319C155.517 161.179 155.706 156.321 158.569 155.789C162.188 155.789 162.181 161.053 158.954 161.319Z" fill="white"/>
<path d="M138.714 169.053L139.219 172.78L147.979 171.63L147.473 167.895L145.819 168.109L143.683 149.458L145.289 149.807L146.092 146.135L137.469 144.248L136.666 147.919L137.71 148.149L131.793 156.611L126.919 147.682L128.316 147.515L127.866 143.78L119.091 144.803L119.54 148.546L120.929 148.379L118.705 167.84L117.429 167.689L116.979 171.424L125.747 172.471L126.204 168.728L123.796 168.442L124.157 155.326L132.571 167.221L140.6 156.706C140.657 160.623 140.721 165.849 140.761 168.76L138.714 169.053ZM131.841 164.78L123.979 153.415L124.081 149.78L131.857 162.021L139.94 151.655C139.94 151.655 139.94 152.861 139.979 154.644L131.841 164.78Z" fill="white"/>
<path d="M171.295 167.01L153.438 168.676L152.556 173.163L172.184 172.785L171.295 167.01Z" fill="white"/>
</svg>
