<svg width="163" height="79" viewBox="0 0 163 79" fill="none" xmlns="http://www.w3.org/2000/svg">
<g clip-path="url(#clip0_1_4285)">
<path d="M35.8796 23.869V19.529H37.8096V4.85898H35.8796V0.558983C44.4496 -0.301017 65.1896 0.498983 53.2196 11.429C56.8796 11.979 58.7996 17.489 56.8096 20.749C54.3796 25.899 40.3696 23.249 35.8796 23.869ZM44.7096 4.99898V9.99898C50.5996 11.139 50.3596 3.99898 44.7096 4.99898ZM50.0796 16.699C50.3296 14.129 47.1496 13.459 44.7096 13.769V19.569C46.8596 19.579 49.6996 19.999 50.0796 16.659V16.699Z" fill="white"/>
<path d="M58.7795 0.55896H78.8795V7.92896H73.1195V4.99896H67.7795V9.59896H74.1195V13.999H67.7795V19.429H73.1195V16.329H78.8795V23.869H58.7795V19.429H60.8795V4.99896H58.7795V0.55896Z" fill="white"/>
<path d="M80.5496 23.869V15.459H86.7496C86.7496 18.259 89.5496 18.729 90.9496 18.799C100.24 16.109 84.7196 15.519 81.9496 10.639C77.1496 0.418961 92.0996 -3.33104 95.8796 3.35896L96.2196 0.558961H102V8.92896H95.9996C95.2996 2.00896 84.9996 6.18896 91.7396 8.92896C114.16 14.409 96.8596 31.319 86.8296 21.309L86.4596 23.879L80.5496 23.869Z" fill="white"/>
<path d="M126.25 0.55896V9.22896H121.35V4.99896H118.55V19.429H121.32V23.869H108.91V19.429H111.65V4.99896H108.78V9.22896H103.88V0.55896H126.25Z" fill="white"/>
<path d="M13.2396 48.379C-6.35037 59.199 -2.59037 19.469 13.9996 32.229L14.5996 30.169H18.8596V38.609H13.7596C7.52963 25.129 2.25963 51.869 13.2396 44.229V42.999H11.4996V39.999H20.9996V42.999H19.8596V50.159H14.1296L13.2396 48.379Z" fill="white"/>
<path d="M22.1497 30.1689C25.0197 30.4689 33.0797 29.2889 37.1497 31.2989C38.9164 32.3564 39.8162 34.4194 39.3894 36.4337C38.9626 38.448 37.3034 39.9688 35.2597 40.2189C39.0397 39.6089 39.5597 50.2189 40.3597 44.3689H42.2797C43.3797 50.3689 37.0297 52.4689 33.4197 48.5189C31.5197 46.3989 33.9997 41.5989 29.6597 41.9989V46.3989H31.4097V50.1789H22.1497V46.3989H23.7597V33.9189H22.1497V30.1689ZM29.6597 33.8889V38.7589C34.8197 39.6389 35.1497 33.1289 29.6597 33.8889Z" fill="white"/>
<path d="M65.6895 50.1789H54.2095V46.4289H56.9295L56.3295 44.4889H50.4595L49.8595 46.4289H52.0895V50.1789H42.9995V46.4289H44.9995L48.7995 33.8589H47.6195V30.1689H58.6195L63.6895 46.4289H65.6895V50.1789ZM51.5195 41.0489H55.2695L53.3795 34.8589L51.5195 41.0489Z" fill="white"/>
<path d="M88.7796 33.8589H86.8896V50.1789H80.7296L73.4296 39.2689V46.4889H75.6396V50.1789H66.8396V46.4889H68.5296V33.8589H66.8696V30.1689H75.0896L82.0896 40.6789V33.8589H80.0896V30.1689H88.7096L88.7796 33.8589Z" fill="white"/>
<path d="M90.2197 50.179V46.379H91.9997V33.999H90.2197V30.169C105.75 28.169 115.48 35.959 106.68 47.759C103.23 51.269 94.5097 49.939 90.2197 50.179V50.179ZM98.9997 33.999H97.8697V46.379H98.9997C104.28 46.569 105.1 34.189 98.9997 33.999Z" fill="white"/>
<path d="M130.72 35.2089C130.49 36.4889 130.09 38.3789 129.89 39.0389L126.89 50.1789H120.89C120.1 46.9789 117.29 38.5189 117.08 35.1789H117V46.4889H118.64V50.1789H110.88V46.4889H112.42V33.8589H110.91V30.1689H121.76L124.65 40.8789L127.4 30.1689H138.31V33.8589H136.74V46.4589H138.31V50.1789H129.26V46.4589H130.9C130.9 45.2089 130.9 36.0389 130.9 35.2089H130.72Z" fill="white"/>
<path d="M162.15 50.1789H150.66V46.4289H153.38L152.78 44.4889H146.91L146.31 46.4289H148.54V50.1789H139.44V46.4289H141.38L145.25 33.8589H144.08V30.1689H155.08L160.15 46.4289H162.15V50.1789ZM148 41.0489H151.75L149.86 34.8589L148 41.0489Z" fill="white"/>
<path d="M111.59 64.5289H110.86V66.9989C112.34 67.5589 114.19 65.0689 111.59 64.5289Z" fill="white"/>
<path d="M131.26 64.559H130.71V70.929H131.26C133.69 70.999 134.62 64.999 131.26 64.559Z" fill="white"/>
<path d="M147.12 56.999H14.6697L21.0497 67.779L14.6697 78.139H147.12L140.74 67.359L147.12 56.999ZM30.0497 64.559H29.1397V70.929H30.0497V72.879H25.1697V70.929H26.0897V64.559H25.1697V62.619H30.0497V64.559ZM42.0497 64.559H41.0497V72.929H37.8997L34.1597 67.339V70.999H35.2897V72.889H30.7797V70.999H31.6397V64.509H30.7897V62.619H34.9997L38.6197 67.999V64.499H37.6197V62.619H41.9997L42.0497 64.559ZM56.1597 66.489H53.9997V64.559H52.7397V70.929H53.9997V72.879H48.4997V70.929H49.6997V64.559H48.4397V66.439H46.2797V62.619H56.1397L56.1597 66.489ZM67.2797 64.609H66.4297V70.989H67.2797V72.929H62.4897V70.939H63.3597V68.729H60.5597V70.939H61.4797V72.879H56.7197V70.939H57.5297V64.559H56.7197V62.619H61.4797V64.559H60.5597V66.769H63.3597V64.559H62.4897V62.619H67.2597L67.2797 64.609ZM76.8697 65.919H74.3097V64.559H71.9997V66.559H74.7897V68.559H71.9997V70.949H74.3497V69.559H76.8897V72.879H67.9997V70.929H68.9297V64.559H67.9997V62.619H76.8597L76.8697 65.919ZM95.9497 64.579H95.1497L92.9597 72.929H89.4597C88.9997 70.999 88.5797 69.809 88.2097 67.619H88.1497C88.1497 68.269 87.1497 71.829 86.8997 72.929H83.4897L81.5597 64.579H80.7297V62.619H85.5797V64.529H84.7297L85.1097 66.669C85.2697 67.379 85.5197 69.129 85.5797 69.559H85.6497C85.7397 68.739 86.7297 64.279 87.1097 62.619H90.1097C90.7033 64.9032 91.1608 67.2206 91.4797 69.559H91.5497C91.7679 67.8759 92.0817 66.2065 92.4897 64.559H91.6797V62.619H95.8797L95.9497 64.579ZM101.28 73.199C95.0497 73.689 94.1197 63.579 100.2 62.469C107.94 60.649 108.64 73.349 101.26 73.149L101.28 73.199ZM117.34 70.759C117.7 73.109 113.34 74.129 112.46 71.319C112.12 70.139 112.72 68.689 110.88 68.719V70.989H111.78V72.929H107V70.939H107.83V64.539H107V62.619C111.51 61.749 120.14 63.999 113.71 67.769C115.04 66.969 115.97 72.619 116.33 69.899H117.33L117.34 70.759ZM126.07 72.929H117.85V70.929H118.66V64.559H117.85V62.619H122.49V64.559H121.71V70.929H123.61V69.069H126.07V72.929ZM131.23 72.929H126.81V70.929H127.72V64.559H126.81V62.619C138.72 60.569 140.09 72.159 131.21 72.879L131.23 72.929Z" fill="white"/>
<path d="M101.14 64.5989C99.4997 64.3389 98.9398 70.7189 101.26 70.8389C102.88 71.0489 103.51 64.8289 101.14 64.5989Z" fill="white"/>
</g>
<defs>
<clipPath id="clip0_1_4285">
<rect width="163" height="79" fill="white"/>
</clipPath>
</defs>
</svg>
