<svg width="200" height="201" viewBox="0 0 200 201" fill="none" xmlns="http://www.w3.org/2000/svg">
<g clip-path="url(#clip0_1_4098)">
<path d="M167.133 84.2025C165.333 41.6558 107.26 38.9758 100 79.0092C97.1934 59.8358 77.5734 46.4025 58.0534 51.5358C34.72 57.4692 25.6267 85.4292 39.1467 103.943L99.9334 168.303L159.267 105.889C164.362 99.8126 167.148 92.1324 167.133 84.2025V84.2025Z" fill="#30B7E9"/>
<path d="M99.9132 169.629C98.9599 169.403 98.8932 169.116 98.8665 169.129C96.1132 166.123 38.2532 105.129 37.9265 104.516C9.56654 57.6559 81.1732 24.2359 99.9999 73.2892C103.9 60.8025 115.793 50.8692 129.02 49.3759C168.073 46.5225 177.407 89.6759 159.633 107.449L100.913 169.169C100.78 169.163 101.26 169.243 99.9132 169.629V169.629ZM40.2532 103.189L99.9132 166.356L158.287 105.023C189.693 59.6292 115.507 26.5092 101.54 77.7892C101.28 79.0359 101.313 80.7559 99.3532 80.2225C84.8865 25.6692 12.8332 58.5492 40.2532 103.189V103.189Z" fill="#541C0A"/>
<path d="M33.7733 80.8024C30.9866 80.0158 33.5399 77.7091 33.9733 77.3024L55.7933 54.0958C58.7866 51.4291 57.3533 51.2224 60.0466 50.5358C63.82 51.4491 56.4 56.7758 51.44 62.6224C42.82 71.3824 35.3733 80.5824 33.7733 80.8024V80.8024Z" fill="white"/>
<path d="M33.9998 92.0024C29.8865 91.0824 37.0798 86.0024 42.1798 80.0691C54.3265 67.5358 68.9798 51.1891 70.5798 50.3024C76.3065 50.1291 65.9998 58.1491 59.4732 65.6758L34.9932 91.5891C34.7197 91.8374 34.3687 91.9835 33.9998 92.0024V92.0024Z" fill="white"/>
<path d="M36.9532 100.156C31.6198 99.8291 46.5398 87.7091 56.6465 76.1224C63.8398 68.5424 71.0865 60.9091 75.1465 56.6224C77.3665 54.7957 78.7998 51.0757 80.6398 53.7557C80.6398 56.1891 74.8598 60.1557 66.6998 69.4091L41.5798 95.8824C38.2932 98.9757 39.2332 99.1757 36.9532 100.156V100.156Z" fill="white"/>
<path d="M41.4133 106.776C35.8933 106.509 52.0133 93.3691 62.8533 81.0291L81.9466 61.0291C84.2066 59.1758 85.6733 55.4025 87.5133 58.1025C87.48 60.5758 82.18 64.0291 74.2733 72.9425L45.5 103.089C42.56 105.796 43.7 105.789 41.4133 106.776V106.776Z" fill="white"/>
<path d="M46.9666 113.096C41.4133 112.882 57.8133 99.3491 68.8866 86.6691C76.6666 78.4624 84.4466 70.2491 88.7533 65.6957C91.06 63.7891 92.5333 59.9624 94.3866 62.6691C94.3866 65.1491 88.9466 68.7224 80.9333 77.8424L51.12 109.309C48.14 112.082 49.2666 112.096 46.9666 113.096V113.096Z" fill="white"/>
<path d="M52.5933 118.722C47.1266 118.462 62.9066 105.449 73.5466 93.1825C80.9599 85.3091 88.3733 77.4291 92.5266 73.0291C94.7799 71.1491 96.2266 67.3625 98.0799 70.0491C98.0799 72.5225 92.7466 76.0491 84.9066 85.0091L55.4399 116.302C53.3333 118.156 54.8866 117.709 52.5933 118.722V118.722Z" fill="white"/>
<path d="M58.22 124.349C57.6862 124.349 57.2035 124.032 56.993 123.541C56.7826 123.051 56.885 122.482 57.2533 122.096L124.867 50.7625C125.188 50.3936 125.687 50.2307 126.164 50.3383C126.642 50.4458 127.022 50.8064 127.155 51.2776C127.287 51.7488 127.151 52.2549 126.8 52.5958L59.1866 123.936C58.9346 124.2 58.5852 124.349 58.22 124.349V124.349Z" fill="white"/>
<path d="M62.7533 130.669C56.8267 130.669 76.3133 114.202 90.9267 97.7491L132 54.5024C134.76 52.1091 134.96 49.8891 137.293 50.8691C139.08 52.5424 132.927 56.8691 127.053 63.5824L63.7667 130.202C63.58 130.202 64.2267 130.202 62.7533 130.669V130.669Z" fill="white"/>
<path d="M68.3799 136.296C62.4333 136.296 82.0399 119.782 96.9266 103.096L143.093 54.6824C144.647 53.5024 144.427 51.9224 146.747 52.7758C148.747 54.3424 140.947 60.1824 133.36 68.7758L69.3999 135.829C69.1933 135.849 69.8799 135.842 68.3799 136.296V136.296Z" fill="white"/>
<path d="M74 141.923C73.4662 141.923 72.9835 141.605 72.7731 141.115C72.5626 140.624 72.665 140.055 73.0333 139.669L151.227 57.4091C151.735 56.8752 152.579 56.8543 153.113 57.3624C153.647 57.8705 153.668 58.7152 153.16 59.2491L74.9733 141.536C74.7152 141.792 74.3636 141.932 74 141.923V141.923Z" fill="white"/>
<path d="M80 147.649C79.4691 147.647 78.9898 147.33 78.78 146.843C78.5701 146.355 78.6697 145.789 79.0334 145.402L157.593 62.2491C157.915 61.8802 158.413 61.7173 158.891 61.8248C159.369 61.9323 159.749 62.2929 159.881 62.7642C160.014 63.2354 159.878 63.7414 159.527 64.0824L80.96 147.236C80.7096 147.498 80.363 147.648 80 147.649V147.649Z" fill="white"/>
<path d="M85.4666 153.382C84.9356 153.381 84.4564 153.064 84.2465 152.576C84.0367 152.088 84.1362 151.523 84.4999 151.136L161.92 69.1357C162.247 68.7892 162.735 68.6437 163.199 68.754C163.663 68.8644 164.032 69.2138 164.169 69.6707C164.305 70.1276 164.187 70.6225 163.86 70.9691L86.4399 152.969C86.1863 153.235 85.8341 153.385 85.4666 153.382V153.382Z" fill="white"/>
<path d="M91.1999 159.109C85.3332 159.109 104.28 143.056 118.613 126.829L161.76 81.1757C164.2 79.0824 164.293 77.0424 166.607 77.9891C167.78 79.7824 165.593 80.6557 164.773 81.8691L92.2199 158.642C91.9999 158.662 92.6665 158.669 91.1999 159.109V159.109Z" fill="white"/>
<path d="M96.1666 164.969C95.6344 164.969 95.1528 164.654 94.9412 164.166C94.7297 163.678 94.8287 163.11 95.1933 162.722L165.487 87.9758C165.808 87.6072 166.304 87.4437 166.782 87.5497C167.259 87.6558 167.64 88.0144 167.774 88.4843C167.909 88.9541 167.775 89.46 167.427 89.8025L97.1333 164.549C96.8824 164.816 96.5328 164.968 96.1666 164.969V164.969Z" fill="white"/>
<path d="M99.9132 169.629C98.9599 169.403 98.8932 169.116 98.8665 169.129C96.1132 166.123 38.2532 105.129 37.9265 104.516C9.56654 57.6559 81.1732 24.2359 99.9999 73.2892C103.9 60.8025 115.793 50.8692 129.02 49.3759C168.073 46.5225 177.407 89.6759 159.633 107.449L100.913 169.169C100.78 169.163 101.26 169.243 99.9132 169.629V169.629ZM40.2532 103.189L99.9132 166.356L158.287 105.023C189.693 59.6292 115.507 26.5092 101.54 77.7892C101.28 79.0359 101.313 80.7559 99.3532 80.2225C84.8865 25.6692 12.8332 58.5492 40.2532 103.189V103.189Z" fill="#541C0A"/>
<path d="M99.9998 18.8692C97.6198 18.4292 99.0198 14.2358 98.6665 8.86915C99.0531 3.64915 97.5598 1.88915 99.9998 0.922485C102.38 1.36249 100.973 5.58915 101.333 10.9558C100.913 16.1158 102.406 17.8825 99.9998 18.8692Z" fill="#541C0A"/>
<path d="M99.9998 200.716C97.6198 200.276 99.0198 196.083 98.6665 190.716C99.0531 185.503 97.5598 183.736 99.9998 182.769C102.38 183.209 100.973 187.403 101.333 192.803C100.913 197.989 102.406 199.749 99.9998 200.716Z" fill="#541C0A"/>
<path d="M198.553 102.129H192.46C186.413 102.183 178.687 102.716 183.247 99.4625C184.093 99.9559 205.48 97.7159 198.553 102.129Z" fill="#541C0A"/>
<path d="M16.6666 102.129H10.5866C4.54659 102.183 -3.18675 102.716 1.37325 99.4625C2.22659 99.9559 23.6133 97.7159 16.6666 102.129Z" fill="#541C0A"/>
<path d="M158.853 43.2424C155.333 42.2024 160 39.1824 163.333 35.5358C167.247 31.9758 170.167 27.1291 170.98 31.4024C170.353 32.6291 160.04 43.0758 158.853 43.2424Z" fill="#541C0A"/>
<path d="M30.2533 171.842C26.6999 170.769 31.3666 167.783 34.7266 164.149C38.6399 160.589 41.5599 155.743 42.3666 160.016C41.7533 161.229 31.4333 171.676 30.2533 171.842Z" fill="#541C0A"/>
<path d="M169.68 171.843C168.607 171.889 164.74 167.229 160.827 163.536C158.46 160.689 157.02 161.156 157.913 158.736C159.913 157.403 161.653 161.083 165.58 164.516C168.973 168.329 173.173 170.489 169.68 171.843V171.843Z" fill="#541C0A"/>
<path d="M41.08 43.2425C40.0067 43.2891 36.14 38.6291 32.2267 34.9358C29.86 32.0891 28.4133 32.5558 29.3067 30.1358C31.3067 28.8025 33.0533 32.4825 36.98 35.9158C40.3733 39.7291 44.5733 41.8891 41.08 43.2425Z" fill="#541C0A"/>
<path d="M132.38 25.4158C128.633 25.5425 136.14 13.1358 136.973 9.78914C137.64 7.64914 140.633 8.96913 139.267 11.2158C137.107 15.3491 134.233 25.5358 132.38 25.4158Z" fill="#541C0A"/>
<path d="M61.5867 192.943C57.84 193.069 65.34 180.663 66.18 177.309C66.8467 175.176 69.84 176.496 68.4734 178.736C66.3067 182.869 63.44 193.029 61.5867 192.943V192.943Z" fill="#541C0A"/>
<path d="M190.78 140.502C190.227 140.502 187.993 139.409 184.64 138.022C178.693 135.629 171.84 133.116 177.213 132.022C178.627 133.276 197.073 138.262 190.78 140.502Z" fill="#541C0A"/>
<path d="M23.2532 69.7091C22.6998 69.7091 20.4665 68.6158 17.1198 67.2291C11.1732 64.8691 4.31316 62.3225 9.69316 61.1958C11.0998 62.4825 29.5532 67.4691 23.2532 69.7091Z" fill="#541C0A"/>
<path d="M177.133 70.8091C172.907 68.8091 179.333 67.2491 184.207 65.1624C189.433 63.4758 190.753 61.2891 192.553 63.2158C193.86 65.5358 178.207 70.0758 177.133 70.8091Z" fill="#541C0A"/>
<path d="M8.61323 139.203C4.49323 137.269 10.5132 135.729 15.2066 133.756C20.4266 132.089 23.5266 128.956 24.1199 132.303C24.0999 134.003 9.67323 138.603 8.61323 139.203V139.203Z" fill="#541C0A"/>
<path d="M137.047 193.483C135.187 193.343 133.92 187.129 131.427 181.856C129.28 178.363 130.02 174.896 132.6 177.643C133.333 181.143 140.887 193.416 137.047 193.483Z" fill="#541C0A"/>
<path d="M68.6665 24.9624C66.8065 24.8291 65.5465 18.6091 63.0532 13.3358C60.8998 9.84243 61.6465 6.37576 64.2198 9.12909C64.8998 12.6224 72.4932 24.9024 68.6665 24.9624V24.9624Z" fill="#541C0A"/>
<path d="M156.127 131.303L148.5 140.269L155.707 149.383H128.467V131.289L156.127 131.303Z" fill="#E34023"/>
<path d="M155.707 150.716C119.913 149.616 128.113 156.676 127.133 134.116C127.58 131.449 125.953 131.156 128.467 129.956C160.613 130.822 162.707 125.889 150.227 140.302C150.667 141.962 160.147 149.829 155.707 150.716V150.716ZM129.8 148.049H152.953C144.533 137.762 146.547 141.382 153.24 132.636H129.8V148.049Z" fill="#541C0A"/>
<path d="M137.733 131.289H128.313L137.733 134.369V131.289Z" fill="#E34023"/>
<path d="M137.733 135.702C137.513 135.776 131.787 133.802 128.94 132.896C121.813 129.489 134.593 129.796 137.7 129.956C139.107 129.536 140.373 135.309 137.733 135.702Z" fill="#541C0A"/>
<path d="M18.2998 101.222L25.9198 110.189L18.7131 119.302H45.9531V101.209L18.2998 101.222Z" fill="#E34023"/>
<path d="M45.9533 120.636C14.4266 119.749 12.3933 124.869 24.1933 110.203C20.6199 105.149 11.7333 99.0358 21.5266 99.8625H45.7533C48.1066 99.4758 47.0866 103.863 47.2866 110.763C46.8666 116.969 48.4533 119.763 45.9533 120.636V120.636ZM21.4666 117.969H44.6199V102.543H21.1799C29.9399 112.536 27.8799 108.936 21.4666 117.969Z" fill="#541C0A"/>
<path d="M29.752 121.999L36.5677 101.208L137.743 134.375L130.928 155.166L29.752 121.999Z" fill="#E34023"/>
<path d="M130.92 156.489C130.107 156.456 104.307 147.736 77.6398 139.096L29.3932 123.283C26.5198 124.123 32.8665 109.243 34.8332 102.189C35.6998 98.4425 37.4998 100.363 39.0465 100.609L137.887 133.003C137.887 132.749 139.927 134.156 138.553 136.183C136.1 142.156 132.933 156.769 130.92 156.489V156.489ZM31.4265 121.156L130.093 153.483L136.093 135.223L37.4132 102.869L31.4265 121.156Z" fill="#541C0A"/>
<path d="M45.9798 101.209H36.5598L45.9798 104.289V101.209Z" fill="#E34023"/>
<path d="M45.9999 105.622C45.8332 105.716 39.7932 103.622 37.2065 102.816C30.0799 99.4091 42.8599 99.7091 45.9665 99.8758C47.3332 99.4825 48.6199 105.229 45.9999 105.622Z" fill="#541C0A"/>
<path d="M147.627 77.8825C159.52 86.3625 142.007 89.2758 133.42 84.7025C128.433 82.2025 126 78.2025 121.853 75.4758C116 71.2625 105.407 72.0558 101.713 79.3158C91.9399 101.982 134.013 107.796 146.053 99.7692C154.7 96.4692 164 76.3892 147.627 77.8825Z" fill="#924A0C"/>
<path d="M130.933 104.509C82.3 102.876 97.92 62.9358 120.593 73.3825C125.967 75.9825 128.207 80.3358 133.093 83.1692C138.173 87.0625 157.873 86.7092 147.24 79.0292C146.828 78.8576 146.539 78.4802 146.48 78.0382C146.421 77.5962 146.601 77.1561 146.953 76.8825C159.867 74.0625 159.833 87.5025 153.827 94.7958C148.033 101.916 140.207 104.329 130.933 104.509V104.509ZM112.267 74.0558C101.5 74.7225 98.72 86.6092 104.607 93.6092C109.94 99.6092 122.453 101.609 129.847 102.096C153.233 103.362 161.22 80.5025 151.18 79.1225C158.1 89.1625 140.453 89.7892 132.693 85.6758C125.387 82.2892 123.647 74.2025 112.267 74.0558V74.0558Z" fill="#541C0A"/>
<path d="M145.333 92.5424C124.667 92.0491 109.833 69.2624 101.66 83.0691C96.0999 83.4224 104.807 75.2958 107.373 76.2424C117.253 76.0491 122.813 83.3691 131.473 86.5091C140.94 91.3424 155.76 92.5091 151.473 80.6158C144.64 76.7291 151.3 75.7691 153.6 79.4224C157.247 84.9758 152.213 93.2358 145.333 92.5424Z" fill="#541C0A"/>
<path d="M143.14 95.7825C128.973 96.7892 102.033 77.4692 102.26 90.5692C99.2998 93.4225 99.6932 86.6959 101.273 85.5759C105.94 80.4292 117.046 86.1825 124.673 88.9092C134.386 92.8159 150.713 97.3692 155.013 87.1225C161.333 83.2359 154.373 97.4559 143.14 95.7825Z" fill="#541C0A"/>
<path d="M142.667 100.969C142.387 100.969 142.107 100.969 141.82 100.936C133.06 100.509 110.413 84.5492 105.593 94.8292C105.273 95.2225 104.42 96.0225 103.507 94.9892C105.753 79.7292 133.393 97.7759 141.967 98.5292C144.109 98.612 146.226 98.0449 148.04 96.9025C153.667 97.4225 144.927 101.676 142.667 100.969Z" fill="#541C0A"/>
<path d="M136.667 104.089C123.74 100.756 118.74 92.4025 110 99.8358C108.667 90.8558 122.967 94.9025 129 98.5558C131.587 100.529 141.147 101.783 136.667 104.089Z" fill="#541C0A"/>
<path d="M54.5066 77.8824C42.6066 86.3624 60.1266 89.2758 68.7133 84.7024C73.7 82.2158 76.12 78.1758 80.28 75.4758C85.88 71.4758 96.1466 71.9291 100.06 78.7091C111.207 101.569 68.3733 107.996 56.06 99.7691C47.4333 96.4691 38.1533 76.3891 54.5066 77.8824V77.8824Z" fill="#924A0C"/>
<path d="M71.1999 104.509C44.7133 104.976 36.9799 77.4225 51.6999 76.6025C54.1199 76.3758 57.0333 76.6025 54.9666 78.9958C44.4599 86.5758 62.5733 86.8691 67.9999 83.7291C75.6333 80.0425 78.0599 71.2425 90.4866 71.6625C103.06 72.8891 106.353 86.7891 99.4666 95.0825C92.6666 102.449 79.3333 104.129 71.1999 104.509ZM50.9599 79.1158C45.7466 79.5825 46.2933 85.8691 47.9333 89.4558C55.3733 105.989 80.9066 104.676 96.0266 95.1291C106.693 85.3958 97.5866 70.0091 83.8666 75.0091C75.7466 78.3425 74.2199 85.4758 64.3999 87.4558C52.5999 89.7625 46.3199 85.4825 50.9599 79.1158V79.1158Z" fill="#541C0A"/>
<path d="M56.7866 92.5425C46.4132 93.6625 43.7599 76.4358 53.3532 77.2758C54.0732 78.1225 53.8599 79.0292 52.1199 79.5425C48.6866 81.4825 49.5132 84.0158 50.7866 87.0092C54.5466 93.3758 63.8732 88.8425 69.9732 86.8025C80.0466 83.2825 93.4399 68.9825 101.747 80.7491C102.333 81.6158 102.607 82.1492 101.687 83.0892C100.353 83.6958 99.8199 81.9692 98.6266 80.6358C96.1999 78.1358 93.5199 78.2825 90.0132 79.2492C78.5132 83.8425 70.3666 92.1025 56.7866 92.5425V92.5425Z" fill="#541C0A"/>
<path d="M58.9933 95.7824C41.66 95.5958 43.92 81.3424 47.2666 87.7224C59.0333 105.976 93.3933 74.8158 101.227 86.0691C103.053 87.9558 101.94 93.7491 99.74 89.9558C100.413 77.9025 65.56 98.7158 58.9933 95.7824V95.7824Z" fill="#541C0A"/>
<path d="M59.4265 100.969C57.9332 101.249 49.0198 98.8358 53.4665 96.7225C55.6265 97.4225 57.6398 98.8692 60.1332 98.5292C69.1865 97.3425 97.8865 79.7025 98.1332 95.4025C88.4398 84.7358 72.2665 99.6692 60.2665 100.942C59.9998 100.962 59.7065 100.969 59.4265 100.969V100.969Z" fill="#541C0A"/>
<path d="M65.4865 104.089C61.6732 102.176 67.7265 101.156 69.6999 100.176C74.4932 98.0558 79.0999 95.4024 83.8665 94.4758C86.8532 92.8358 95.9532 97.4291 91.5665 99.9624C85.3332 91.5358 74.2799 102.556 65.4865 104.089Z" fill="#541C0A"/>
<path d="M44.9465 121.396C31.1932 124.062 41.0732 101.129 48.5199 111.916L49.2732 110.802L51.8132 111.622L50.1865 116.656L47.1332 115.669C46.0399 106.489 37.7265 121.316 45.7465 118.916L45.9999 118.202L44.9599 117.862L45.5465 116.042L51.2132 117.869L50.6265 119.696L49.9599 119.476L48.5865 123.742L45.1732 122.636L44.9465 121.396Z" fill="white"/>
<path d="M53.76 112.249C55.44 112.989 60.2267 113.782 62.4267 115.729C63.3254 116.681 63.5069 118.104 62.8757 119.251C62.2444 120.398 60.945 121.006 59.66 120.756C61.96 121.002 60.3267 127.509 61.9 124.216L63.0467 124.582C62.5667 128.529 57.9 128.336 56.8933 125.029C56.4867 123.422 58.54 121.289 56 120.729L55.1467 123.396L56.1867 123.736L55.46 125.989L49.9133 124.202L50.6667 121.929L51.62 122.236L54 114.796L53.0467 114.489L53.76 112.249ZM57.52 115.909L56.58 118.816C59.38 120.316 60.9933 116.549 57.52 115.909Z" fill="white"/>
<path d="M75.86 132.556L69.0133 130.343L69.7333 128.109L71.36 128.629V127.356L67.8733 126.203L67.14 127.243L68.4733 127.676L67.7533 129.909L62.3267 128.203L63.0467 125.969L64.2067 126.343L68.9267 119.596L68.26 119.369L68.9733 117.169L75.5267 119.283L75.42 129.949L76.6133 130.336L75.86 132.556ZM69.1933 124.383L71.4267 125.103L71.4933 121.056L69.1933 124.383Z" fill="white"/>
<path d="M92.76 127.262L91.6266 126.902L88.4933 136.629L84.82 135.442L82.5667 127.536L81.18 131.836L82.5133 132.262L81.8066 134.462L76.5667 132.776L77.2733 130.569L78.28 130.896L80.6666 123.369L79.68 123.049L80.3867 120.849L85.2867 122.429L87.4667 130.049L88.76 125.982L87.6 125.602L88.3066 123.402L93.4466 125.062L92.76 127.262Z" fill="white"/>
<path d="M90.4731 137.269L91.2065 134.996L92.2665 135.342L94.6665 127.929L93.6065 127.589L94.3331 125.336C111.566 128.476 104.786 144.742 90.4731 137.269V137.269ZM98.7998 129.269L98.1331 129.062L95.7465 136.469L96.4131 136.676C99.5531 137.802 102.393 130.642 98.7998 129.269V129.269Z" fill="white"/>
<path d="M106.613 129.302C122.06 132.476 115.367 140.909 108.8 137.769L107.947 140.436L108.987 140.776L108.26 143.029L102.767 141.256L103.493 139.002L104.447 139.309L106.847 131.869L105.893 131.556L106.613 129.302ZM110.353 132.962L109.393 135.929C112.233 137.436 113.86 133.609 110.353 132.962Z" fill="white"/>
<path d="M127.053 149.069L120.213 146.869L120.933 144.636L122.553 145.156V143.883L119.06 142.749L118.327 143.796L119.66 144.223L118.94 146.463L113.513 144.709L114.233 142.476L115.393 142.849L120.113 136.103L119.447 135.876L120.153 133.669L126.707 135.789L126.6 146.456L127.793 146.843L127.053 149.069ZM120.387 140.903L122.627 141.623L122.687 137.569L120.387 140.903Z" fill="white"/>
<path d="M70.5798 45.8158V42.9291H71.8665V33.1491H70.5798V30.2758C76.2865 29.7024 90.1198 30.2758 82.1332 37.5224C84.5798 37.8958 85.8532 41.5624 84.5332 43.7358C82.9132 47.1691 73.5732 45.4024 70.5798 45.8158V45.8158ZM76.4665 33.2091V36.5424C80.3865 37.3291 80.2265 32.5558 76.4665 33.2091ZM80.0465 41.0158C80.2065 39.3024 78.0865 38.8491 76.4665 39.0558V42.9291C77.8998 42.9624 79.7865 43.2091 80.0465 41.0158Z" fill="#541B0D"/>
<path d="M85.8467 30.2759H99.2467V35.1892H95.4V33.1892H91.8467V36.2625H96.0667V39.2159H91.8467V42.8692H95.4V40.8025H99.2467V45.8292H85.8467V42.8692H87.2467V33.2092H85.8467V30.2759Z" fill="#541B0D"/>
<path d="M100.353 45.8159V40.2025H104.493C104.493 42.0692 106.353 42.3759 107.293 42.4225C113.48 40.6359 103.14 40.2359 101.293 36.9825C98.1066 30.1692 108.08 27.6492 110.627 32.1359L110.847 30.2625H114.673V35.8425H110.673C110.213 31.2292 103.34 34.0159 107.84 35.8425C122.787 39.5025 111.253 50.7759 104.567 44.0959L104.32 45.8092L100.353 45.8159Z" fill="#541B0D"/>
<path d="M130.827 30.2759V36.0559H127.56V33.2092H125.693V42.8692H127.533V45.8292H119.267V42.8692H121.093V33.2092H119.18V36.0559H115.913V30.2759H130.827Z" fill="#541B0D"/>
</g>
<defs>
<clipPath id="clip0_1_4098">
<rect width="200" height="201" fill="white"/>
</clipPath>
</defs>
</svg>
