<svg width="200" height="55" viewBox="0 0 200 55" fill="none" xmlns="http://www.w3.org/2000/svg">
<path d="M199.702 44.6902C199.308 45.4505 167.388 56.7649 131.335 54.596C109.575 53.2871 80.3657 43.2705 61.1275 43.481C18.766 43.9492 0.993113 56.6181 0.138542 53.5115C-1.50412 47.5558 12.3186 31.4325 12.3186 31.4325C12.3186 31.4325 -1.09692 20.5987 0.138542 16.3965C0.796437 14.1361 20.982 -0.193505 64.4128 0.00871128C82.8144 0.098739 110.849 10.6735 131.828 13.1805C160.882 16.6431 199.219 6.67076 199.702 7.57519C201.756 11.427 187.176 26.9464 187.176 26.9464C187.176 26.9464 201.345 41.5392 199.702 44.6902V44.6902Z" fill="#7F99C5"/>
<path d="M176.673 29.6486C174.862 27.5848 175.127 31.9824 174.957 33.0433C174.839 33.8632 174.623 34.8065 173.796 34.9574C170.718 36.0184 178.615 19.0668 167.447 27.3397C168.544 23.7663 164.573 25.3452 164.698 27.8411C164.679 28.6347 164.925 29.4394 165.456 29.8785C165.468 30.5045 165.377 31.0862 165.367 31.668C165.18 32.1851 165.077 32.7289 165.061 33.2788C164.842 34.4161 164.334 35.4781 163.587 36.3632C162.001 38.4311 157.892 39.5059 157.673 35.6804C161.093 36.2566 164.424 33.6887 164.406 30.186C164.569 25.1153 154.364 24.4076 152.9 32.8065C152.812 32.9395 152.744 33.0846 152.698 33.2372C152.283 34.6403 152.346 37.686 150.684 37.8965C148.18 38.107 154.184 28.8411 149.723 27.5253C147.806 27.0447 146.101 27.9727 145.098 29.3065C145.158 28.5336 145.699 26.1887 145.547 25.2594C145.427 22.9366 140.503 22.7954 140.537 25.4283C140.515 25.5835 139.906 29.6624 139.359 33.3231C138.899 34.1652 138.6 35.7317 138.421 36.2663C138.105 37.1444 137.7 38.0932 136.802 38.0835C135.356 38.3065 137.403 32.0461 137.513 30.8522C139.255 31.4824 140.272 27.7718 138.147 28.1555C138.262 27.5821 138.402 27.0225 138.485 26.6001C138.544 26.3743 138.594 26.1555 138.637 25.945C139.684 22.6541 133.612 24.1292 133.222 26.884C133.185 26.9783 133.156 27.0757 133.136 27.1749C133.031 27.5225 133.049 27.686 132.979 27.9283C132.078 27.7344 131.679 28.5765 131.572 29.2414C131.492 29.541 131.479 29.8542 131.532 30.1596C131.59 30.5419 132.021 30.643 132.345 30.625C132.345 30.625 132.046 32.0017 131.747 33.3771C131.515 33.6871 131.315 34.0198 131.151 34.3702C130.808 34.9242 130.1 35.1638 129.565 35.215C131.08 31.3799 131.41 27.4325 125.99 26.7123C122.449 26.2164 119.745 28.5447 118.447 31.8854C117.938 32.7303 117.478 33.9879 117.212 34.4505C116.808 35.1763 116.26 35.974 115.442 35.8231C112.97 35.463 120.813 27.8757 116.906 25.5336C114.934 24.4685 112.603 25.2566 111.314 26.6901C111.303 23.4644 107.633 22.7649 105.266 24.8203C104.943 23.1887 102.374 22.6361 101.36 23.4242C100.564 24.2552 100.461 25.2344 99.4765 27.5419C99.3934 27.7898 99.3048 28.0336 99.2147 28.2746C98.7507 29.2234 98.3602 30.4907 97.8809 31.0184C97.5361 31.6375 96.6344 32.197 96.1136 31.6139C95.8906 30.4837 96.5721 29.463 96.9751 28.2137C97.3242 26.9671 100.306 20.7178 100.231 19.1818C100.45 17.7704 96.9945 16.4297 95.91 17.6181C95.2632 18.2026 94.248 21.463 93.8782 22.2206C93.5485 20.5848 92.0776 19.8314 90.4682 20.0599C88.5541 20.2178 86.8671 21.9727 85.6746 24.1901C85.4843 24.3193 85.3321 24.4972 85.2341 24.7053C84.5859 26.0128 84.0915 29.0281 82.4266 28.9353C79.9336 28.6984 87.3962 20.7303 83.3768 18.5862C81.3283 17.6347 79.1095 18.5239 77.8574 19.9713C77.7106 17.3743 73.5748 16.9588 73.1649 19.3231C73.0638 19.7649 72.7923 20.5488 72.4516 21.4934C71.0527 21.4353 71.4114 25.4547 70.0707 26.5779C67.9931 27.8009 69.1649 24.3854 69.3269 23.179C69.32 21.8023 71.4682 17.0184 69.0721 16.9186C67.507 16.6167 66.2632 17.4463 65.4446 18.4948C64.1524 14.2898 59.2923 16.0336 57.4751 21.2829C56.8089 21.7788 56.6552 24.2746 56.4543 25.0225C56.2507 25.8258 55.9391 26.7427 55.1012 26.8078C51.9294 27.5447 61.5333 11.4976 49.5735 18.5682C51.0319 15.1264 46.9211 16.2871 46.7868 18.7843C46.6829 19.5641 46.8574 20.4089 47.3297 20.8882C47.3006 21.2427 47.2383 21.5807 47.1787 21.9117C46.9878 22.1333 46.8719 22.4097 46.8477 22.7012C46.6538 24.5336 46.7771 25.445 46.0347 26.9824C44.9433 28.1153 44.8034 26.2621 45.1483 25.1818C45.6275 23.276 44.8103 22.1846 42.5832 22.5835C41.2327 22.8868 39.971 22.8148 40.5056 24.3383C41.507 27.4547 38.7507 30.215 38.802 24.8078C38.8602 22.4436 38.8491 20.6098 39.633 18.6029C40.4433 17.2178 41.2037 18.125 41.0181 20.6458C41.1718 22.8383 44.651 21.6846 45.392 19.7566C47.3879 14.7441 42.3449 12.4159 37.705 14.7137C35.8394 15.697 34.8408 17.5031 34.3131 19.5779C33.4474 22.7137 32.4654 34.9062 39.0139 31.6929C39.8082 31.2005 40.4312 30.4749 40.7978 29.6153C41.5915 31.1389 43.5181 31.1998 45.0236 30.6375C47.187 29.7566 48.0361 27.2774 48.3131 24.9353C48.3352 24.5481 48.3791 24.1624 48.4447 23.7801C48.6133 23.5828 48.7087 23.3333 48.7147 23.0738L48.9571 20.9713C51.6649 18.5876 51.1621 21.2483 50.4488 23.7552C49.9765 25.6638 49.0333 28.7331 50.9613 29.9103C53.2092 30.7317 55.9474 29.8148 57.079 27.8078C57.9627 30.5558 60.3615 31.963 63.8311 28.6001C64.6122 30.0627 67.7244 30.7594 70.0638 29.0959C70.0486 29.2414 70.0608 29.3885 70.0998 29.5294C70.6704 31.1098 73.4821 30.776 74.5582 29.5973C75.6663 28.6555 76.8297 24.0391 77.5748 22.1181V22.0932C79.169 20.9491 79.5984 22.2317 78.9239 23.5765C77.989 25.9186 75.9599 29.0655 77.6344 30.999C79.4959 32.3425 82.2272 32.0835 83.8671 30.6209C83.9862 33.945 88.0859 34.8217 90.5859 32.5142C91.3892 34.6347 94.91 35.2441 97.0776 34.0585C97.0386 34.3745 97.1053 34.6945 97.2674 34.9685C98.4294 36.2594 100.823 35.8189 101.877 34.5281C103.123 32.8549 104.1 29.4547 104.957 27.5433L104.977 27.4463C107.537 25.7497 105.334 30.3868 104.576 32.3619C103.846 34.2732 102.688 36.409 105.428 37.071C106.952 37.5502 107.968 36.8397 108.436 35.697C108.68 35.0502 111.068 29.1029 111.206 28.5821C113.137 27.7649 112.688 29.5904 111.931 30.9076C110.727 33.1887 108.607 36.9519 111.338 38.1693C113.45 39.0793 115.844 38.7386 117.274 37.1181C117.345 37.035 117.413 36.9519 117.483 36.8674C117.557 37.7605 117.937 38.6007 118.56 39.2455C121.486 41.7317 126.194 41.0613 128.416 37.445C129.333 37.3806 130.224 37.1128 131.025 36.661C130.633 38.5198 130.435 41.0267 134.26 41.197C135.835 41.2781 137.36 40.6366 138.403 39.4547C138.161 41.776 141.609 42.4131 143.328 39.3896C144.06 37.5225 144.306 34.0156 144.679 32.0308C145.957 30.6458 146.716 31.6707 146.32 33.0807C145.841 35.5835 144.309 39.1195 146.338 40.7608C148.795 41.9311 151.97 40.6984 153 38.2829C153.087 38.1118 153.164 37.9361 153.231 37.7566C155.17 42.3729 162.031 41.9394 165.324 36.8771C166.09 35.5516 166.73 34.1943 166.835 32.6624C166.999 32.4406 167.078 32.1673 167.057 31.8923L167.082 29.7774C169.528 27.125 169.298 29.8231 168.853 32.3923C168.576 34.3411 167.934 37.6347 170.1 38.4976C172.511 38.999 175.133 37.7441 175.96 35.499C176.601 33.6818 176.982 31.7815 176.673 29.6486V29.6486ZM159.033 29.6929C160.644 29.7469 159.785 34.5571 157.767 33.938C157.904 33.0752 157.834 30.0641 159.033 29.6915V29.6929ZM62.4959 26.5793C60.9724 26.9394 62.6953 17.5932 64.5942 20.7344C64.266 21.6472 63.9419 26.4491 62.4945 26.5779L62.4959 26.5793ZM89.6427 30.3092C88.0832 30.3868 91.4585 21.5087 92.7965 24.9519C92.3117 25.7801 91.0859 30.4796 89.6372 30.3078L89.6427 30.3092ZM123.194 37.9588C121.922 37.704 122.536 35.8078 123.014 34.0738C123.27 35.0253 124.047 36.0128 124.862 36.4574C124.442 37.4699 124.021 38.0045 123.194 37.9588ZM125.737 34.2524C124.729 33.4463 124.722 31.5599 125.46 30.4602C127.65 28.8716 126.159 33.2566 125.737 34.2497V34.2524Z" fill="white"/>
</svg>
