<svg width="200" height="166" viewBox="0 0 200 166" fill="none" xmlns="http://www.w3.org/2000/svg">
<g clip-path="url(#clip0_1_3938)">
<path opacity="0.153204" d="M197.63 118.957C193.441 108.336 180.976 102.18 169.668 106.953C167.142 95.8009 160.597 95.7346 156.573 89.3934C179.322 50.3649 146.37 46.2275 140.341 59.1991C138.582 58.561 136.712 58.2838 134.844 58.3839C108.095 22.6967 95.0332 -14.0474 69.1043 10.7299C63.5071 7.04266 55.3507 8.95261 53.0806 16.1137C38.6446 16.9526 39.2417 35.9242 54.2607 38.5829L6.71092 130.929C-0.715624 145.351 10.5024 162.341 26.692 161.166L134.659 153.327C136.915 159.711 137.668 161.791 139.038 165.611C164.408 158.919 209.602 150.024 197.63 118.957V118.957Z" fill="black"/>
<path d="M1.71083 128.066C65.9336 6.63505 62.1137 -6.5403 89.1658 2.14216C98.3459 6.0379 111.265 30.673 133.028 60.0332C167.299 111.374 190.588 127.962 165.322 145.934C151.919 151.332 132.621 149.175 88.1516 153.483C37.545 155.128 -9.66831 171.976 1.71083 128.066V128.066Z" fill="white"/>
<path d="M191.209 128.218C193.104 108.554 173.588 100.616 162.062 109.057C157.071 74.6635 107.943 89.8104 128.014 135.981C131.246 145.545 136.009 158.791 136.047 158.9C149.687 154.607 188 148.815 191.209 128.218Z" fill="#FF4749"/>
<path d="M134.038 162.754C92.4502 68.4408 163.118 80.8247 164.678 104.071C201.171 95.0664 208.948 146.156 159.877 155.588C147.99 159.014 139.099 161.374 134.038 162.754V162.754ZM142.507 93.9195C113.403 98.2607 132.171 137.152 138.062 155.057C223.047 138.782 179.535 92.9716 158.848 115.246C160.28 102.664 154.374 93.2654 142.507 93.9195V93.9195Z" fill="white"/>
<path d="M154.294 56.4502C147.725 49.0806 137.659 54.0806 137.18 61.0901C119.431 51.7251 109.844 78.2796 147.393 87.7867C150.336 81.1517 161 64.801 154.294 56.4502V56.4502Z" fill="#FF4749"/>
<path d="M148.943 91.8436C96.0948 75.0995 124.469 50.4644 135.351 56.2985C142.417 43.4692 160.332 50.891 159.668 63.109C159.848 73.4597 152.223 84.1611 148.943 91.8436V91.8436ZM130.46 61.853C113.659 69.5545 135.389 80.5308 145.829 83.7251C165.545 51.0237 138.147 49.0805 139.668 67.5829C136.526 65.2796 135.545 62.2843 130.469 61.853H130.46Z" fill="white"/>
<path d="M62.4408 10.5688C56.673 6.52136 49.8815 11.9906 50.9526 17.2038C43.4692 13.6446 36.9668 23.5735 43.2559 29.3081C47.6967 33.7536 59.327 33.782 63.455 34.5593C64.3223 29.1896 68.872 15.3839 62.4408 10.5688Z" fill="#FF4749"/>
<path d="M65.9905 38.0853C23.5118 36.218 37.9952 12.0569 48.0995 13.2701C51.2464 3.04265 65.4739 4.45971 68.0568 13.1659C70.9431 21.0569 67.0094 31.0663 65.9905 38.0853ZM47.3649 19.6303C36.4123 26.0379 52.8862 31.109 60.9099 31.0047C68.1516 6.49763 50.2748 8.09952 55.0142 22.8199C52.981 22.0142 49.9052 19.6825 47.3649 19.6303V19.6303Z" fill="white"/>
<path d="M99.2891 30.9858C98.8768 27.436 93.3886 26.019 91.5071 29.0616C80.09 19.2038 82.8057 37.7773 89.6777 41.8578C92.417 39.8104 99.7298 36.019 99.2891 30.9858Z" fill="#FF4749"/>
<path d="M79.4977 23.7772C78.7299 22.5829 75.3887 22.8626 75.3413 25.199C67.4455 23.7772 73.692 31.782 78.2607 31.6398C78.9384 29.7867 81.1043 26.2891 79.4977 23.7772Z" fill="#FF4749"/>
<path d="M124.17 86.071C124.644 84.7298 122.351 82.2796 120.497 83.6729C116.73 76.5924 114.303 86.4502 117.246 89.9526C119.109 89.3459 123.194 88.8862 124.17 86.071Z" fill="#FF4749"/>
<path d="M53.0095 17.4266C52.7251 21.0853 47.1469 17.8152 51.2559 15.91C51.8152 15.9052 52.6066 16.2085 53.0095 17.4266Z" fill="#DA010A"/>
<path d="M54.635 11.0759C54.3506 14.7347 48.7724 11.4645 52.8814 9.55457C53.4454 9.55457 54.2511 9.85788 54.635 11.0759Z" fill="#DA010A"/>
<path d="M61.0188 9.4028C60.7297 13.0616 55.1515 9.79142 59.2653 7.88147C59.8245 7.88147 60.6302 8.18479 61.0188 9.4028Z" fill="#DA010A"/>
<path d="M66.7156 11.8484C66.4265 15.5071 60.8483 12.237 64.9621 10.327C65.5213 10.3365 66.3507 10.6398 66.7156 11.8484V11.8484Z" fill="#DA010A"/>
<path d="M70.1657 8.12797C69.8814 11.7867 64.3032 8.5166 68.4122 6.61138C68.9761 6.60664 69.7818 6.90996 70.1657 8.12797Z" fill="#DA010A"/>
<path d="M74.7346 4.88156C74.4502 8.54032 68.872 5.27018 72.981 3.36023C73.545 3.36023 74.3507 3.66355 74.7346 4.88156Z" fill="#DA010A"/>
<path d="M80.0947 3.70144C79.8103 7.3602 74.2321 4.08532 78.3411 2.18011C78.8814 2.17537 79.6871 2.47869 80.0947 3.70144V3.70144Z" fill="#DA010A"/>
<path d="M85.7392 4.57353C85.4548 8.23229 79.8766 4.96215 83.9857 3.05694C84.5449 3.0522 85.3506 3.35552 85.7392 4.57353V4.57353Z" fill="#DA010A"/>
<path d="M91.0757 6.8246C90.7866 10.4834 85.2084 7.20849 89.3222 5.30328C89.8814 5.29854 90.6871 5.60186 91.0757 6.8246Z" fill="#DA010A"/>
<path d="M94.6777 11.1564C94.3886 14.8152 88.8104 11.5403 92.9194 9.63506C93.4834 9.63032 94.3128 9.9526 94.6777 11.1564Z" fill="#DA010A"/>
<path d="M97.8435 15.1944C97.5591 18.8531 91.9809 15.583 96.0899 13.6778C96.6539 13.673 97.4596 13.9764 97.8435 15.1944V15.1944Z" fill="#DA010A"/>
<path d="M101.057 19.8199C100.772 23.4787 95.1943 20.2085 99.3033 18.2986C99.8625 18.2986 100.668 18.6019 101.057 19.8199Z" fill="#DA010A"/>
<path d="M104.265 24.4455C103.976 28.1043 98.398 24.8341 102.507 22.9242C103.076 22.9242 103.881 23.2228 104.265 24.4455Z" fill="#DA010A"/>
<path d="M107.478 29.0711C107.194 32.7298 101.616 29.455 105.725 27.5497C106.289 27.545 107.109 27.8483 107.478 29.0711Z" fill="#DA010A"/>
<path d="M110.692 33.6967C110.408 37.3554 104.825 34.0806 108.938 32.1753C109.479 32.1706 110.303 32.4739 110.692 33.6967Z" fill="#DA010A"/>
<path d="M113.9 38.3175C113.616 41.9763 108.038 38.7062 112.147 36.801C112.711 36.7962 113.516 37.0995 113.9 38.3175Z" fill="#DA010A"/>
<path d="M117.114 42.9432C116.829 46.602 111.251 43.3318 115.36 41.4219C115.919 41.4219 116.73 41.7062 117.114 42.9432Z" fill="#DA010A"/>
<path d="M120.327 47.5687C120.038 51.2275 114.46 47.9526 118.573 46.0474C119.133 46.0474 119.938 46.3507 120.327 47.5687Z" fill="#DA010A"/>
<path d="M123.535 52.1944C123.251 55.8531 117.673 52.5782 121.782 50.673C122.346 50.6683 123.151 50.9716 123.535 52.1944Z" fill="#DA010A"/>
<path d="M126.749 56.82C126.464 60.4787 120.886 57.2039 124.995 55.2986C125.554 55.2939 126.36 55.5972 126.749 56.82Z" fill="#DA010A"/>
<path d="M132.365 59.0948C132.08 62.7535 126.502 59.4834 130.611 57.5782C131.175 57.5734 131.981 57.8768 132.365 59.0948Z" fill="#DA010A"/>
<path d="M138.564 61.0995C138.28 64.7583 132.701 61.4834 136.81 59.5782C137.374 59.5734 138.18 59.8768 138.564 61.0995Z" fill="#DA010A"/>
<path d="M141.649 55.9242C141.365 59.5829 135.787 56.308 139.896 54.4028C140.455 54.4171 141.265 54.7204 141.649 55.9242Z" fill="#DA010A"/>
<path d="M146.351 53.0426C146.062 56.7014 140.483 53.4313 144.597 51.5261C145.156 51.5213 145.971 51.8246 146.351 53.0426Z" fill="#DA010A"/>
<path d="M151.815 53.3791C151.531 57.0379 145.953 53.763 150.062 51.8578C150.621 51.8578 151.427 52.1564 151.815 53.3791Z" fill="#DA010A"/>
<path d="M155.711 56.3981C155.427 60.0522 149.848 56.782 153.957 54.8768C154.502 54.8673 155.327 55.1706 155.711 56.3981Z" fill="#DA010A"/>
<path d="M158 61.0284C157.716 64.6872 152.137 61.4123 156.246 59.5071C156.81 59.5071 157.616 59.8057 158 61.0284Z" fill="#DA010A"/>
<path d="M158.071 66.3507C157.782 70.0095 152.204 66.7393 156.318 64.8341C156.872 64.8341 157.682 65.1374 158.071 66.3507Z" fill="#DA010A"/>
<path d="M156.431 71.9147C156.147 75.5735 150.569 72.3033 154.678 70.3981C155.242 70.3934 156.047 70.6967 156.431 71.9147Z" fill="#DA010A"/>
<path d="M154.398 76.9148C154.114 80.5735 148.535 77.3034 152.644 75.3934C153.208 75.3934 154.028 75.6967 154.398 76.9148Z" fill="#DA010A"/>
<path d="M151.701 81.8578C151.417 85.5166 145.839 82.2417 149.948 80.3365C150.507 80.3317 151.317 80.6351 151.701 81.8578Z" fill="#DA010A"/>
<path d="M149.464 88.5783C149.175 92.237 143.597 88.9622 147.706 87.0569C148.27 87.0522 149.076 87.3555 149.464 88.5783Z" fill="#DA010A"/>
<path d="M153.479 92.5024C153.189 96.1612 147.611 92.891 151.725 90.9811C152.284 90.9953 153.08 91.2844 153.479 92.5024Z" fill="#DA010A"/>
<path d="M158.512 95.5592C158.227 99.218 152.649 95.9431 156.758 94.0379C157.346 94.0332 158.128 94.3365 158.512 95.5592Z" fill="#DA010A"/>
<path d="M161.753 100.284C161.469 103.943 155.891 100.673 160 98.7678C160.559 98.763 161.365 99.0521 161.753 100.284Z" fill="#DA010A"/>
<path d="M163.299 105.46C163.009 109.114 157.431 105.844 161.54 103.938C162.085 103.934 162.91 104.237 163.299 105.46Z" fill="#DA010A"/>
<path d="M162.891 110.716C162.602 114.374 157.024 111.1 161.133 109.194C161.697 109.19 162.502 109.479 162.891 110.716Z" fill="#DA010A"/>
<path d="M168.597 107.014C168.313 110.673 162.735 107.403 166.844 105.493C167.408 105.493 168.213 105.796 168.597 107.014Z" fill="#DA010A"/>
<path d="M175.232 105.791C174.948 109.45 169.37 106.18 173.479 104.275C174.038 104.265 174.848 104.573 175.232 105.791Z" fill="#DA010A"/>
<path d="M181.668 106.976C181.379 110.635 175.801 107.365 179.91 105.46C180.474 105.455 181.28 105.758 181.668 106.976Z" fill="#DA010A"/>
<path d="M186.374 110.161C186.09 113.82 180.512 110.55 184.621 108.64C185.18 108.64 185.99 108.943 186.374 110.161Z" fill="#DA010A"/>
<path d="M190.014 115.024C189.725 118.682 184.147 115.408 188.261 113.502C188.82 113.498 189.626 113.801 190.014 115.024Z" fill="#DA010A"/>
<path d="M192.478 120.379C192.194 124.038 186.616 120.768 190.725 118.858C191.284 118.872 192.09 119.175 192.478 120.379Z" fill="#DA010A"/>
<path d="M192.891 126.336C192.602 129.995 187.024 126.725 191.133 124.82C191.711 124.815 192.516 125.118 192.891 126.336Z" fill="#DA010A"/>
<path d="M191.943 132.01C191.659 135.668 186.076 132.393 190.189 130.488C190.749 130.483 191.554 130.806 191.943 132.01Z" fill="#DA010A"/>
<path d="M188.99 136.754C188.706 140.412 183.128 137.142 187.237 135.232C187.796 135.232 188.625 135.545 188.99 136.754Z" fill="#DA010A"/>
<path d="M184.706 141.01C184.422 144.668 178.843 141.393 182.952 139.488C183.516 139.483 184.322 139.81 184.706 141.01Z" fill="#DA010A"/>
<path d="M179.914 144.872C179.63 148.531 174.052 145.256 178.161 143.351C178.725 143.351 179.531 143.649 179.914 144.872Z" fill="#DA010A"/>
<path d="M174.099 147.867C173.815 151.526 168.237 148.256 172.346 146.346C172.91 146.327 173.715 146.63 174.099 147.867Z" fill="#DA010A"/>
<path d="M167.346 149.976C167.057 153.635 161.479 150.365 165.588 148.455C166.152 148.455 166.957 148.758 167.346 149.976Z" fill="#DA010A"/>
<path d="M160.317 152.455C160.033 156.114 154.455 152.839 158.564 150.934C159.128 150.929 159.933 151.232 160.317 152.455Z" fill="#DA010A"/>
<path d="M153.308 154.374C153.024 158.033 147.445 154.763 151.554 152.858C152.133 152.853 152.924 153.156 153.308 154.374Z" fill="#DA010A"/>
<path d="M145.626 156.573C145.336 160.232 139.758 156.957 143.872 155.052C144.431 155.047 145.237 155.351 145.626 156.573Z" fill="#DA010A"/>
<path d="M138.739 158.711C138.455 162.37 132.877 159.095 136.986 157.19C137.55 157.185 138.355 157.488 138.739 158.711Z" fill="#DA010A"/>
<path d="M135.725 153.081C135.436 156.739 129.858 153.469 133.967 151.559C134.531 151.536 135.336 151.839 135.725 153.081Z" fill="#DA010A"/>
<path d="M133.355 146.825C133.071 150.483 127.493 147.213 131.602 145.303C132.166 145.303 132.972 145.607 133.355 146.825Z" fill="#DA010A"/>
<path d="M127.014 147.01C126.725 150.668 121.147 147.398 125.261 145.493C125.829 145.498 126.635 145.791 127.014 147.01Z" fill="#DA010A"/>
<path d="M120.493 147.479C120.209 151.137 114.63 147.863 118.739 145.957C119.303 145.972 120.109 146.256 120.493 147.479Z" fill="#DA010A"/>
<path d="M113.967 147.943C113.682 151.602 108.1 148.332 112.213 146.427C112.796 146.445 113.578 146.725 113.967 147.943Z" fill="#DA010A"/>
<path d="M107.436 148.412C107.152 152.071 101.573 148.801 105.682 146.891C106.246 146.891 107.052 147.194 107.436 148.412Z" fill="#DA010A"/>
<path d="M100.91 148.881C100.625 152.54 95.0473 149.265 99.1563 147.36C99.7155 147.355 100.526 147.659 100.91 148.881Z" fill="#DA010A"/>
<path d="M94.3838 149.346C94.0947 153.005 88.5165 149.735 92.6303 147.825C93.1895 147.825 93.9952 148.128 94.3838 149.346Z" fill="#DA010A"/>
<path d="M87.853 149.815C87.5686 153.474 81.9904 150.199 86.0994 148.294C86.6634 148.289 87.4691 148.592 87.853 149.815Z" fill="#DA010A"/>
<path d="M81.3269 150.28C81.0378 153.938 75.4597 150.668 79.5734 148.758C80.1326 148.758 80.9383 149.062 81.3269 150.28V150.28Z" fill="#DA010A"/>
<path d="M74.7961 150.749C74.5117 154.408 68.9335 151.133 73.0425 149.227C73.6065 149.223 74.4075 149.526 74.7961 150.749Z" fill="#DA010A"/>
<path d="M68.27 151.213C67.9856 154.872 62.4074 151.602 66.5164 149.697C67.0757 149.692 67.8861 149.995 68.27 151.213V151.213Z" fill="#DA010A"/>
<path d="M61.7439 151.682C61.4548 155.341 55.8766 152.066 59.9856 150.161C60.5495 150.161 61.3552 150.46 61.7439 151.682Z" fill="#DA010A"/>
<path d="M55.2131 152.133C54.9287 155.791 49.3505 152.521 53.4595 150.616C54.0282 150.626 54.8292 150.929 55.2131 152.133Z" fill="#DA010A"/>
<path d="M48.6871 152.607C48.398 156.265 42.8198 152.995 46.9335 151.085C47.4927 151.095 48.2984 151.398 48.6871 152.607Z" fill="#DA010A"/>
<path d="M42.1799 153.081C41.8955 156.739 36.3173 153.464 40.4263 151.559C40.9666 151.559 41.7723 151.863 42.1799 153.081Z" fill="#DA010A"/>
<path d="M35.6303 153.554C35.346 157.213 29.7678 153.943 33.8768 152.033C34.436 152.028 35.2417 152.332 35.6303 153.554Z" fill="#DA010A"/>
<path d="M28.6491 153.81C28.36 157.469 22.7818 154.194 26.8908 152.289C27.4548 152.289 28.2605 152.607 28.6491 153.81Z" fill="#DA010A"/>
<path d="M22.1706 153.872C21.8862 157.531 16.308 154.261 20.417 152.351C20.9763 152.351 21.8009 152.654 22.1706 153.872Z" fill="#DA010A"/>
<path d="M15.4644 152.393C15.1753 156.052 9.5971 152.777 13.7108 150.872C14.2701 150.867 15.0758 151.185 15.4644 152.393Z" fill="#DA010A"/>
<path d="M10.1848 149.09C9.9004 152.749 4.3222 149.474 8.43121 147.569C9.00467 147.569 9.80088 147.867 10.1848 149.09Z" fill="#DA010A"/>
<path d="M6.59713 144.905C6.30803 148.564 0.729826 145.294 4.83883 143.384C5.40281 143.384 6.2085 143.687 6.59713 144.905Z" fill="#DA010A"/>
<path d="M5.17525 139.564C4.88615 143.223 -0.692049 139.953 3.41696 138.047C3.98094 138.043 4.78662 138.346 5.17525 139.564Z" fill="#DA010A"/>
<path d="M5.78657 133.602C5.50221 137.261 -0.0759912 133.986 4.03301 132.081C4.59226 132.076 5.39794 132.379 5.78657 133.602Z" fill="#DA010A"/>
<path d="M8.14692 128.592C7.86256 132.251 2.28436 128.976 6.39337 127.071C6.95735 127.066 7.76303 127.37 8.14692 128.592Z" fill="#DA010A"/>
<path d="M10.3222 123.697C10.0331 127.356 4.45492 124.081 8.56393 122.175C9.12791 122.19 9.95255 122.493 10.3222 123.697Z" fill="#DA010A"/>
<path d="M13.0378 118.64C12.7534 122.299 7.17523 119.024 11.2842 117.118C11.8482 117.114 12.6492 117.417 13.0378 118.64Z" fill="#DA010A"/>
<path d="M15.7534 113.564C15.469 117.223 9.89081 113.948 13.9998 112.043C14.5638 112.043 15.3695 112.322 15.7534 113.564Z" fill="#DA010A"/>
<path d="M18.4832 108.488C18.1941 112.147 12.6159 108.872 16.7296 106.967C17.2794 106.967 18.0851 107.27 18.4832 108.488Z" fill="#DA010A"/>
<path d="M21.1894 103.412C20.905 107.071 15.3268 103.801 19.4358 101.891C19.9951 101.896 20.8055 102.194 21.1894 103.412Z" fill="#DA010A"/>
<path d="M23.9099 98.3365C23.6208 101.995 18.0426 98.7251 22.1516 96.8152C22.7156 96.8152 23.5212 97.1185 23.9099 98.3365Z" fill="#DA010A"/>
<path d="M26.6254 93.2607C26.3411 96.9195 20.7629 93.6493 24.8719 91.7394C25.4311 91.7394 26.2368 92.0427 26.6254 93.2607Z" fill="#DA010A"/>
<path d="M29.341 88.1849C29.0567 91.8437 23.4785 88.5735 27.5875 86.6636C28.1514 86.6636 28.9571 86.9669 29.341 88.1849Z" fill="#DA010A"/>
<path d="M32.0616 83.109C31.7725 86.7678 26.1943 83.4977 30.308 81.5925C30.8673 81.5877 31.6729 81.891 32.0616 83.109Z" fill="#DA010A"/>
<path d="M34.777 78.0332C34.4927 81.692 28.9145 78.4219 33.0235 76.5167C33.5827 76.5119 34.3932 76.8152 34.777 78.0332Z" fill="#DA010A"/>
<path d="M37.4975 72.9573C37.2084 76.6161 31.6302 73.3459 35.7392 71.4407C36.3032 71.436 37.1089 71.7393 37.4975 72.9573Z" fill="#DA010A"/>
<path d="M40.2132 67.8863C39.9288 71.5451 34.3459 68.2702 38.4596 66.365C39.0189 66.3507 39.8103 66.6635 40.2132 67.8863Z" fill="#DA010A"/>
<path d="M42.9289 62.8104C42.6445 66.4692 37.0663 63.1943 41.1753 61.2891C41.7393 61.2844 42.545 61.6114 42.9289 62.8104Z" fill="#DA010A"/>
<path d="M45.6492 57.7346C45.3601 61.3934 39.7819 58.1185 43.8957 56.2133C44.4549 56.2086 45.2606 56.5119 45.6492 57.7346Z" fill="#DA010A"/>
<path d="M48.3649 52.6588C48.0806 56.3176 42.5024 53.0427 46.6114 51.1375C47.1706 51.1328 47.9811 51.4361 48.3649 52.6588Z" fill="#DA010A"/>
<path d="M51.0805 47.5829C50.7962 51.2417 45.218 47.9668 49.327 46.0616C49.8909 46.0568 50.7108 46.3602 51.0805 47.5829Z" fill="#DA010A"/>
<path d="M53.8008 42.5072C53.5165 46.1659 47.9335 42.8911 52.0473 40.9858C52.6065 40.9858 53.4122 41.2844 53.8008 42.5072Z" fill="#DA010A"/>
<path d="M56.3979 37.6825C56.1135 41.3413 50.5353 38.0664 54.6443 36.1612C55.1846 36.1564 55.9903 36.4598 56.3979 37.6825Z" fill="#DA010A"/>
<path d="M58.2227 33.2891C57.9336 36.9479 52.3554 33.6777 56.4691 31.7678C57.0284 31.7536 57.8199 32.0711 58.2227 33.2891Z" fill="#DA010A"/>
<path d="M52.3554 32.0663C52.0711 35.7203 46.4929 32.4502 50.6019 30.545C51.1848 30.5402 51.9715 30.8436 52.3554 32.0663Z" fill="#DA010A"/>
<path d="M45.8436 29.9289C45.5545 33.5877 39.9763 30.3175 44.09 28.4076C44.6492 28.4076 45.4549 28.7109 45.8436 29.9289Z" fill="#DA010A"/>
<path d="M42.436 25.2512C42.1469 28.91 36.5687 25.6398 40.6777 23.7299C41.2322 23.7299 42.0474 24.0332 42.436 25.2512Z" fill="#DA010A"/>
<path d="M43.0047 19.7915C42.7156 23.4503 37.1374 20.1754 41.2511 18.2702C41.8104 18.2655 42.6161 18.5688 43.0047 19.7915Z" fill="#DA010A"/>
<path d="M47.9714 16.7914C47.687 20.4502 42.1088 17.18 46.2178 15.2748C46.7818 15.2701 47.5875 15.5734 47.9714 16.7914Z" fill="#DA010A"/>
<path d="M71.5639 63.0853C67.1184 62.9669 69.4407 85.0853 63.6587 75.9526C69.1374 78.5119 64.4549 58.6541 71.5639 63.0853V63.0853Z" fill="#231F20"/>
<path d="M70.8293 69.1659C78.071 67 73.8767 58.2654 65.9952 62.7157C62.2559 64.8294 64.5734 68.9621 61.6113 66.0095C61.4265 52.4124 88.2037 64.1375 71.9336 69.8863C69.9194 70.2086 67.3459 69.6683 70.8293 69.1659Z" fill="#231F20"/>
<path d="M62.7107 79.3459C65.2652 87.616 82.8529 72.8814 71.9098 69.9715C67.8719 70.2938 64.7155 74.2369 68.488 69.1089C93.8387 68.507 61.1941 97.3364 62.7107 79.3459Z" fill="#231F20"/>
<path d="M99.8625 82.365C92.8862 86.1564 98.7156 53.9289 100.81 58.1375C101.758 62.4645 95.5971 94.9716 103.242 74.3128L104.28 74.6351C103.924 78.6209 102.251 81.7109 99.8625 82.365Z" fill="#231F20"/>
<path d="M89.801 66.5829C91.9953 62.1611 110.355 68.398 109.18 60.744C105.815 64.6871 89.6778 58.1421 89.801 66.5829Z" fill="#231F20"/>
<path d="M87.5449 79.8389C90.9004 75.3365 95.5591 68.5924 93.2795 67.8768C99.1705 89.4266 88.6729 93.2654 83.9999 87.4313C83.5686 86.436 83.3127 85.6825 84.0947 85.7488C96.3696 90.9052 88.834 70.1754 91.4786 66.6019C101.099 63.2844 89.7203 79.3223 88.2511 80.1896L87.5449 79.8389Z" fill="#231F20"/>
<path d="M84.7061 66.635C70.8388 73.8104 81.9621 95.3506 92.1706 74.5165C91.891 74.1895 91.6161 73.8625 91.3365 73.5402C82.3317 90.5592 78.654 73.4454 85.6967 69.6729C87.3602 71.9431 82.6587 78.327 80.2322 78.7108L80.417 79.981C84.782 79.289 93.7488 68.7203 84.7061 66.635V66.635Z" fill="#231F20"/>
<path d="M87.4645 107.028C87.8199 111.512 83.8815 119.825 88.2559 119.175C89.8483 115.858 89.2038 105.54 93.2844 105.872C90.8483 126.787 99.9194 116.73 100.218 111.19L99.6351 110.668C100.313 111.493 95.763 120.758 95.2654 116.052C96.891 107.374 95.3649 99.9384 89.8626 107.479C89.8436 106.682 87.7441 103.062 87.4645 107.028V107.028Z" fill="#231F20"/>
<path d="M98.7866 114.332C100.649 120.227 104.995 118.777 106.673 114.626C107.085 115.545 108.213 118.682 109.787 116.346C107.938 112.374 109.185 99.4028 108.706 92.6493C105.388 79.782 104.763 94.7583 105.644 99.8388C100.73 99.0521 97.4738 108.569 98.7866 114.332ZM104.436 101.929C104.722 101.531 105.2 101.319 105.687 101.374C108.436 126.066 97.0804 114.72 104.436 101.929Z" fill="#231F20"/>
<path d="M61.7772 115.796C70.7819 87.0568 49.8862 111.251 67.1184 106.791C61.5118 127.251 74.2559 120.725 72.8056 114.763C72.1801 115.237 71.6255 118.246 70.1564 119.062C62.7393 121.46 74.8483 102.37 67.3838 104.881C64.2274 108.559 60.5165 105.142 63.3886 104.275C65.308 105.687 59.6208 118.578 61.7772 115.796V115.796Z" fill="#231F20"/>
<path d="M80.9951 108.232C70.2416 102.393 69.0425 129.142 80.2416 115.991C82.8672 123.488 86.8766 116.673 87.8245 115.043L87.2226 114.038C87.2747 114.123 82.9572 120.72 82.9003 117.545C82.5212 113.995 85.9667 110.815 81.7582 109.706C72.7913 129.45 73.1942 107.37 80.9951 108.232V108.232Z" fill="#231F20"/>
<path d="M134.246 103.654C123.493 97.8152 122.294 124.564 133.488 111.417C136.246 119.043 140.782 112.27 140.597 108.142C140.673 108.171 136.403 116.464 136.133 112.948C135.753 109.398 139.194 106.218 134.99 105.109C126.066 124.872 126.445 102.792 134.246 103.654Z" fill="#231F20"/>
<path d="M112.18 103.104C112.488 106.621 114.673 128.36 107.062 132.294C119.071 132.024 112.749 110.782 116.938 102.948C121.275 95.3649 123.768 111.848 118.758 114.403C113.853 114.611 122.687 104.033 123.474 103.592L122.659 102.73C121.772 103.246 110.128 117.147 119.9 116.099C129.483 113.455 121.488 91.8531 115.772 102.877C114.275 106.602 116.189 102.114 114.986 99.9431C113.464 99.7061 112.043 99.8578 112.18 103.104V103.104Z" fill="#231F20"/>
<path d="M57.8199 116.365C66.0237 102.976 53.8246 103.569 48.3649 108.445C47.4976 109.498 50.0616 114.791 50.9715 110.929C48.4218 106.071 64.417 103.246 57.3459 115.071C39.3744 134.028 37.2274 101.076 46.1232 87.7725C54.654 70.7108 56.0474 93.8151 49.1848 101.806C53.2701 106.716 59.2322 76.4312 51.3744 76.0142C28.2227 84.417 31.9431 143.995 57.6729 116.621L57.8199 116.365Z" fill="#231F20"/>
</g>
<defs>
<clipPath id="clip0_1_3938">
<rect width="200" height="166" fill="white"/>
</clipPath>
</defs>
</svg>
