<svg width="157" height="174" viewBox="0 0 157 174" fill="none" xmlns="http://www.w3.org/2000/svg">
<g clip-path="url(#clip0_1_4525)">
<path d="M73.567 104.076C70.1784 102.842 66.6526 102.024 63.067 101.64C65.552 88.76 66.525 75.425 67.225 67.263C67.603 62.853 59.21 58.954 58.671 63.252C57.887 69.496 57.6 95.2 45.413 94.213C39.211 93.723 45.413 75.845 45.329 66.675C45.28 61.6 38.14 57.75 37.818 64.4C36.943 82.488 31.833 97.188 45.518 97.335C53.645 97.419 57.691 86.723 57.418 88.354C56.543 92.883 55.703 97.3 54.8 101.5C46.876 102.053 39.351 104.615 34.367 109.2C23.167 119.504 22.005 137.746 39.267 137.753C52.287 137.753 58.972 121.373 62.633 103.586C65.6768 103.719 68.6718 104.399 71.474 105.595C78.621 128.884 90.836 119.791 84.319 110.754C90.724 110.348 93.09 103.796 88.414 101.549C84.62 100.009 77.438 102.599 73.567 104.076ZM38.245 134.176C25.813 134.309 26.66 120.022 35.144 111.72C39.96 107.009 47.296 104.545 54.352 103.74C50.6 121.254 46.113 134.12 38.245 134.204V134.176Z" fill="white"/>
<path d="M122.609 122.78C131.009 122.78 131.527 115.906 129.455 117.6C120.481 124.964 118.801 109.851 123.064 82.523C124.338 74.361 125.339 67.298 124.891 64.946C124.359 62.146 118.29 59.71 118.339 63.189C118.444 70.189 112.298 94.129 104.654 95.053C98.872 95.753 106.236 74.9 105.984 66.437C105.781 59.57 97.836 59.773 98.025 61.796C98.1518 64.2138 98.0392 66.6383 97.689 69.034C96.1051 70.3049 94.3699 71.3747 92.523 72.219C88.862 56.161 75.324 75.6 90.696 74.599C91.214 84.581 84.193 100.1 77.984 93.499C73.399 86.73 77.074 70.042 85.152 64.659C88.253 59.906 75.884 61.159 74.736 63.357C69.836 66.472 67.036 81.256 69.948 90.069C79.048 108.101 95.029 91.63 92.733 74.032C94.3396 73.4522 95.8792 72.7012 97.325 71.792C90.409 105.721 108.63 101.094 115.595 87.423C115.147 92.211 109.743 122.752 122.609 122.78V122.78ZM89.233 72.989C80.546 71.547 89.933 62.489 90.577 72.849C90.1352 72.9425 89.6847 72.9895 89.233 72.989Z" fill="white"/>
<path d="M32.0219 54.943C45.8609 53.893 46.5819 30.793 47.4219 19.047C47.5059 14.623 50.7679 1.86204 47.1349 1.42804C39.6169 -1.49796 25.7359 11.697 27.5349 20.678C27.2969 23.814 33.8349 27.02 33.8349 24.031C20.6819 19.964 39.1549 1.07804 43.0049 4.72504C41.1989 14.231 41.4999 49.7 30.5519 51.226C19.7369 52.227 13.703 40.726 20.1779 33.026C24.3779 27.489 34.2409 29.323 33.7229 36.904C34.2059 38.01 34.8919 35.084 34.7379 33.943C34.3319 31.234 30.9789 28.434 26.0229 28.343C9.70595 28.7 11.6239 58.443 32.0219 54.943V54.943Z" fill="white"/>
<path d="M139.85 42.497C139.15 44.331 131.275 57.148 127.859 47.586C146.15 30.38 134.005 18.662 125.059 31.01C123.565 31.6333 122.025 32.1388 120.453 32.522C119.515 16.667 105.886 33.999 118.647 34.111C118.71 43.519 111.423 58.877 107.489 49.826C106.285 43.848 110.66 32.872 111.367 29.883C109.75 22.981 105.403 25.186 104.913 30.863C103.455 32.1131 101.835 33.1609 100.097 33.978C97.2128 21.49 86.7618 36.652 98.6968 35.826C94.8538 68.999 77.3818 42.98 94.6578 27.622C95.0778 26.67 94.5038 26.117 92.8938 25.711C83.5278 23.66 80.9938 35.462 81.7848 44.359C77.8508 53.424 69.8078 56.525 70.0248 43.141C74.3158 35.189 92.7258 0.0699889 79.8388 -6.66452e-05C67.5048 -0.0630111 56.5848 53.508 73.3988 53.746C77.5288 53.802 80.3988 50.694 82.3308 47.362C90.0308 63.119 102.246 47.453 100.244 35.399C101.678 34.8761 103.046 34.1853 104.318 33.341C98.4238 64.337 120.957 56.791 120.418 33.796C121.603 33.5187 122.771 33.1752 123.918 32.767C115.973 49.882 130.428 64.617 141.313 42.651L139.85 42.497ZM80.3498 5.97783C86.3558 6.08299 75.5688 27.832 70.1648 38.36C71.2218 24.717 76.6048 5.91499 80.3498 5.97783ZM97.4998 34.58C90.6818 33.25 98.1998 26.628 98.5428 34.461C98.2009 34.5408 97.8509 34.5808 97.4998 34.58ZM134.124 30.38C137.547 32.368 131.275 41.335 127.334 45.5C125.731 40.908 130.827 30.296 134.138 30.366L134.124 30.38ZM117.499 32.809C111.584 30.352 119.151 23.401 118.647 32.809C118.269 32.8353 117.89 32.8306 117.513 32.795L117.499 32.809Z" fill="white"/>
<path d="M60.0431 160.097C61.2541 151.9 60.4001 140.343 49.3331 147L48.5001 144.676L45.9871 145.6C46.7711 147.798 47.8281 150.766 48.6751 153.125L51.2021 152.222L50.4041 149.989C55.1221 143.92 56.3121 153.608 56.2071 155.358C42.2561 151.046 43.9571 168.287 56.2071 162.82V163.968H55.3601V165.585H60.5681V163.968H59.4481C59.6371 162.89 59.7841 162.134 60.0431 160.097V160.097ZM52.0351 161.952C48.8851 161.952 48.5841 156.401 52.4271 156.793C55.1781 157.409 54.8001 161.7 52.0351 161.952Z" fill="white"/>
<path d="M46.8201 168.896L45.9871 173.138L64.5301 172.781L63.6901 167.328L46.8201 168.896Z" fill="white"/>
<path d="M11.5819 160.216L10.6999 165.403L14.1999 165.613V162.911L18.2669 162.743C18.2669 162.743 18.3299 168.021 12.9329 168.343C-0.556053 167.79 3.75595 148.309 14.3329 150.346L12.5199 152.705L15.3899 155.316L21.8859 147.616L18.3859 145.082L16.6499 147.343C14.7779 146.538 12.7585 146.133 10.7209 146.153C3.56695 146.531 0.220947 153.916 0.220947 160.657C0.220947 167.398 5.09995 172.9 11.3999 172.9C23.6779 172.9 22.0259 159.985 22.0259 159.985L11.5819 160.216Z" fill="white"/>
<path d="M89.7861 168.035L88.2111 168.133L85.6281 147.329L88.0501 146.993L87.2731 143.465L79.3841 144.928L79.7061 148.155L81.6171 147.889L82.6461 167.37L73.0771 145.607L69.2061 145.817L67.9321 169.974L65.6641 170.394L65.9861 173.621L74.3231 172.466L73.5531 168.931L72.1601 169.19L72.1321 151.473L79.8251 172.221L88.6661 171.752L88.6591 171.717L90.2481 171.626L89.7861 168.035Z" fill="white"/>
<path d="M97.8851 144.333L92.3761 144.207L92.4741 148.505L94.5041 148.407L95.0641 168.49L92.2641 168.623L91.9141 173.131L96.0721 173.005C116.232 173.859 122.077 144.389 97.8851 144.333V144.333ZM100.685 148.281C101.107 148.257 101.53 148.257 101.952 148.281V167.727C101.182 167.958 100.685 168.049 100.685 168.049V148.281ZM103.485 167.181L102.785 148.33C114.839 149.282 112.333 164.409 103.457 167.16L103.485 167.181Z" fill="white"/>
<path d="M41.955 169.722L36.824 160.895C48.108 151.746 37.167 144.2 27.178 145.411H22.887L23.342 149.842L24.742 149.772C24.742 150.108 25.281 169.232 25.288 169.61L23.888 169.561L23.944 173.488L31 173.187L30.664 169.778L29.313 169.736V163.1C31.1863 162.958 33.0285 162.541 34.78 161.861L38.336 169.561L36.936 169.512L36.999 173.439L44.055 173.152L43.719 169.743L41.955 169.722ZM29.355 160.468V149.513C41.5 148.449 38.7 161.504 29.327 160.468H29.355Z" fill="white"/>
<path d="M137.631 146.601C138.1 147.91 139.164 150.899 139.626 152.201L142.3 151.2L141.453 148.834C146.451 142.436 147.704 152.635 147.592 154.518C132.892 149.94 134.586 168.196 147.592 162.421V163.632H146.696V165.347H152.212V163.632H151.029C151.225 162.498 151.379 161.7 151.652 159.544C152.933 150.696 152.058 138.663 140.319 145.642L139.458 143.22L136.777 144.2L137.631 146.601ZM143.175 161.539C139.738 161.399 139.927 156.541 142.79 156.009C146.409 156.009 146.402 161.273 143.175 161.539Z" fill="white"/>
<path d="M155.516 167.23L137.659 168.896L136.777 173.383L156.405 173.005L155.516 167.23Z" fill="white"/>
<path d="M131.583 146.685L133.319 144.802L128.811 142.758L127.712 145.019C125.154 144.434 122.528 144.198 119.907 144.319H115.518L115.987 148.841L117.422 148.764L117.933 167.293L116.624 167.377V169.673L118.024 169.624V170.401L116.624 170.492V173.033L126.074 172.676L125.78 169.876L122.098 170.107V169.407L125.598 169.274L125.325 166.768L122.133 166.971V162.4C126.025 163.135 140.809 155.911 131.583 146.685V146.685ZM122.098 159.656V148.456C123.383 148.32 124.68 148.377 125.948 148.624L124.982 150.626L126.893 151.753L128.678 149.814C134.6 157.241 123.995 160.391 122.098 159.656V159.656Z" fill="white"/>
</g>
<defs>
<clipPath id="clip0_1_4525">
<rect width="157" height="174" fill="white"/>
</clipPath>
</defs>
</svg>
