<svg width="147" height="169" viewBox="0 0 147 169" fill="none" xmlns="http://www.w3.org/2000/svg">
<g clip-path="url(#clip0_1_4648)">
<path d="M112.185 107.333C120.466 106.99 120.06 100.214 117.148 103.567C113.074 106.22 111.128 102.937 110.701 95.4402C108.93 81.2162 120.403 49.7652 108.664 54.7702C108.202 59.5162 106.27 71.3742 101.832 78.5702C98.2056 84.6742 93.7676 85.1782 94.7756 78.0802C94.9016 70.7162 102.819 52.7052 92.0666 53.4192C89.7636 53.5732 91.4436 57.1012 90.5546 60.6992C89.1783 61.8114 87.6715 62.7517 86.0676 63.4992C82.8966 49.5762 71.1786 66.4672 84.4856 65.5502C84.6466 84.2332 69.3866 91.9402 72.2356 70.0372C73.0826 58.5082 86.5226 55.1832 76.2746 54.1052C67.3846 52.5512 62.9046 69.1482 66.9016 80.0612C75.6726 94.0612 88.0556 79.6342 86.2566 65.0812C87.6506 64.5637 88.9858 63.8997 90.2396 63.1002C84.2196 92.3882 100.04 88.6502 106.102 76.6032C105.752 80.6002 100.971 107.305 112.185 107.333ZM83.2186 64.1362C75.6306 62.6942 83.9186 55.2252 84.3806 64.0032C83.9984 64.0847 83.6093 64.1292 83.2186 64.1362Z" fill="white"/>
<path d="M45.1664 82.5462C39.7834 82.1262 45.1664 66.6072 45.0964 58.6552C45.0544 54.2242 38.8594 50.9062 38.5794 56.6602C37.8234 72.3612 33.3854 85.1152 45.2574 85.2412C52.3134 85.3182 55.8204 76.0292 55.5614 77.4432C54.8614 81.3982 54.0984 85.2342 53.3424 88.8672C46.4684 89.3432 39.9374 91.5692 35.6114 95.5382C25.8744 104.484 24.8804 120.311 39.8814 120.311C51.1794 120.311 56.9754 106.101 60.1814 90.6732C62.8322 90.7794 65.4415 91.3676 67.8814 92.4092C73.9154 112.359 84.6814 105.009 79.0324 96.8892C84.7444 96.5112 86.7324 90.5892 82.3014 88.8042C78.8784 87.7052 72.9564 89.8472 69.6594 91.1072C66.7218 90.043 63.6663 89.3379 60.5594 89.0072C62.6664 77.8002 63.5134 66.2502 64.1224 59.1662C64.4514 55.3372 57.1714 51.9562 56.7024 55.6662C56.0234 61.0982 55.7714 83.4002 45.1664 82.5462ZM38.9504 117.252C28.1634 117.364 28.8984 104.967 36.2624 97.7642C40.4624 93.6762 46.8044 91.5412 52.9224 90.8412C49.6814 106.017 45.8104 117.182 38.9784 117.252H38.9504Z" fill="white"/>
<path d="M33.5815 48.4701C45.5305 47.5741 46.1815 27.6451 46.9515 17.4251C47.0005 13.6591 49.9195 2.27013 46.6225 2.02513C38.8665 -1.58687 21.2055 19.0001 33.9665 22.6541C34.7855 22.7381 35.8285 22.0941 34.9535 21.4991C23.6415 17.8241 40.6725 1.19213 43.1365 5.00013C41.6665 12.6091 41.7785 35.8841 35.6745 43.2551C31.0405 48.7851 20.6525 42.3871 20.9745 36.2551C20.5965 25.7551 34.8275 22.9201 34.9745 32.5591C35.6115 34.4421 36.3745 29.8921 35.5695 29.1221C19.0145 12.7771 9.40346 51.5221 33.5815 48.4701Z" fill="white"/>
<path d="M69.4774 47.4342C73.0684 47.4832 75.5744 44.7881 77.2334 41.8901C83.9814 55.5751 94.4884 41.9461 92.7734 31.5161C94.0061 31.0606 95.1808 30.4614 96.2734 29.7311C91.1634 56.7232 110.763 49.9261 110.238 30.1231C111.273 29.8856 112.292 29.5864 113.29 29.2271C106.395 44.0112 118.932 56.8912 128.382 37.8092L127.108 37.6692C126.506 39.2372 119.632 50.3882 116.706 42.0862C132.61 27.0782 121.977 17.0541 114.256 27.7081C112.964 28.2506 111.629 28.6883 110.266 29.0171C109.412 15.2551 97.6664 30.3332 108.705 30.4172C108.705 38.2712 102.937 51.3751 99.1294 44.4661C97.7294 39.4261 101.796 29.4161 102.391 26.6931C100.865 20.7501 97.2604 22.6821 96.7914 27.6031C95.5189 28.6881 94.1062 29.5969 92.5914 30.3051C90.0504 19.4761 81.0694 32.6431 91.3594 31.9081C88.0764 60.6082 72.8444 38.1452 87.8104 24.9081C88.2374 24.0681 87.8104 23.5991 86.5364 23.1931C78.2554 21.2051 75.9664 31.5371 76.6944 39.2931C73.2784 47.1891 66.3414 49.8001 66.5164 38.2361C70.2824 31.3341 86.2564 0.85615 75.0704 0.800099C64.3674 0.74415 54.8894 47.2242 69.4774 47.4342ZM122.187 27.1341C125.155 28.8631 119.716 36.6332 116.293 40.2522C114.907 36.5002 119.212 27.1341 122.166 27.1481L122.187 27.1341ZM107.76 29.2341C102.601 26.9241 109.265 21.2541 108.754 29.2341C108.424 29.2729 108.092 29.2799 107.76 29.2551V29.2341ZM90.4074 30.7881C84.5134 29.5911 91.0304 23.9351 91.3104 30.6831C91.0144 30.7554 90.7119 30.7976 90.4074 30.8092V30.7881ZM75.5114 5.98701C80.7264 6.07815 71.3674 24.9502 66.6774 34.0852C67.5664 22.2482 72.2634 5.93115 75.5114 5.98701Z" fill="white"/>
<path d="M51.926 139.409C52.885 132.948 52.577 122.098 42.63 128.013L41.93 126.032L39.739 126.816C40.39 128.643 41.335 131.303 42.07 133.347L44.261 132.563C44.142 132.227 43.75 131.114 43.561 130.617C47.425 125.493 48.748 133.473 48.594 135.279C36.47 131.534 38.031 146.479 48.594 141.754V142.755H47.894V144.155H52.409V142.755H51.415C51.576 141.831 51.702 141.194 51.926 139.409ZM44.975 141.019C42.273 140.893 42.175 137.071 44.66 136.483C45.8437 136.503 46.8153 137.426 46.8973 138.607C46.9793 139.788 46.1445 140.835 44.975 141.019Z" fill="white"/>
<path d="M55.0899 145.681L40.4529 147.046L39.7319 150.728L55.8179 150.413L55.0899 145.681Z" fill="white"/>
<path d="M9.73691 150.511C20.3979 150.511 18.9629 139.311 18.9629 139.311L9.86291 139.514L9.09991 143.994L12.1099 144.176V141.831L15.6099 141.684C15.6099 141.684 15.6659 146.269 10.9899 146.542C-0.651093 146.094 3.12891 129.161 12.2779 130.946L10.7029 132.997L13.1949 135.265L18.8369 128.594L15.7849 126.396L14.2799 128.363C12.6561 127.662 10.9035 127.309 9.13491 127.327C-3.19909 128.482 -2.90509 150.595 9.73691 150.511Z" fill="white"/>
<path d="M77.7349 146.297L76.3699 146.381L74.1229 128.335L76.2229 128.041L75.5579 124.975L68.7049 126.249L68.9919 129.049L70.6509 128.818L71.5399 145.723L63.2379 126.837L59.8779 127.019L58.7719 147.984L56.8049 148.348L57.0849 151.148L64.3229 150.14L63.6509 147.074L62.4399 147.298L62.4119 131.926L69.0899 149.93L76.7619 149.524L76.7549 149.496L78.1339 149.419L77.7349 146.297Z" fill="white"/>
<path d="M79.8561 146.794L79.5481 150.707L83.1601 150.595C100.415 151.47 105.966 125.878 84.7631 125.731L79.9821 125.619L80.0661 129.343L81.8301 129.266L82.3131 146.689L79.8561 146.794ZM96.1241 136.644C96.0681 141.971 92.2251 144.463 89.5931 145.541L88.9841 129.182C91.6091 129.413 96.1801 130.694 96.1241 136.644ZM87.1781 129.154C87.5441 129.133 87.9111 129.133 88.2771 129.154V146.024C87.9159 146.136 87.549 146.23 87.1781 146.304V129.154Z" fill="white"/>
<path d="M31.962 150.994L38.087 150.749L37.8 147.816L36.225 147.76L31.78 140.102C41.615 132.108 31.955 125.619 23.38 126.669H19.677L20.076 130.512L21.294 130.449C21.294 130.687 21.763 147.375 21.77 147.669L20.559 147.627L20.615 151.029L26.74 150.784L26.446 147.83L25.27 147.788V142.048C26.8985 141.927 28.5002 141.567 30.023 140.977L33.103 147.669L31.913 147.627L31.962 150.994ZM25.27 139.731V130.232C35.987 129.336 33.25 140.69 25.27 139.731Z" fill="white"/>
<path d="M132.324 124.8L130 125.626C130.7 127.593 131.701 130.4 132.471 132.542L134.788 131.709C134.662 131.359 134.242 130.183 134.088 129.658C138.288 124.142 139.541 132.815 139.408 134.558C126.584 130.596 128.208 146.458 139.408 141.411V142.461H138.631V143.994H143.412V142.503H142.39C142.565 141.516 142.698 140.823 142.936 138.954C143.944 132.115 143.636 120.621 133.101 126.893L132.324 124.8ZM135.551 140.662C132.695 140.529 132.597 136.462 135.215 135.867C138.323 135.881 138.372 140.375 135.551 140.662Z" fill="white"/>
<path d="M130 150.938L147.024 150.609L146.261 145.604L130.763 147.046L130 150.938Z" fill="white"/>
<path d="M118.949 148.003L119.39 151.293L127.027 150.278L126.586 146.981L125.144 147.17L123.282 130.706L124.682 131.014L125.382 127.773L117.864 126.107L117.164 129.348L118.074 129.551L112.915 137.02L108.666 129.138L109.884 128.991L109.492 125.694L101.841 126.597L102.233 129.901L103.444 129.754L101.505 146.932L100.392 146.799L100 150.096L107.644 151.02L108.043 147.716L105.943 147.464L106.258 135.886L113.594 146.386L120.594 137.104C120.643 140.562 120.699 145.175 120.734 147.744L118.949 148.003ZM113.293 144.629L106.293 134.276L106.384 130.965L113.307 142.116L120.503 132.673C120.503 132.673 120.503 133.772 120.538 135.396L113.293 144.629Z" fill="white"/>
<path d="M147 158.19H0V168.417H147V158.19Z" fill="white"/>
</g>
<defs>
<clipPath id="clip0_1_4648">
<rect width="147" height="169" fill="white"/>
</clipPath>
</defs>
</svg>
