<svg width="200" height="173" viewBox="0 0 200 173" fill="none" xmlns="http://www.w3.org/2000/svg">
<g clip-path="url(#clip0_1_4421)">
<path d="M199.76 163.31C197.55 159.4 191.64 125.39 185.59 125.87C185.643 125.519 185.667 125.165 185.66 124.81L184.46 90.61C185.448 90.5915 186.42 90.3595 187.31 89.93C189.022 90.7904 191.041 90.7901 192.753 89.9291C194.465 89.068 195.669 87.4478 196 85.56C199.33 83.22 199 76.56 194.12 75.14C194.059 74.9225 193.986 74.7088 193.9 74.5C199.25 72.97 198.97 69.44 198.9 63C199.13 56.61 198.9 52.28 191.96 52.21C197.46 45.3 197.04 33.64 189.69 27.84C207.26 13.72 182.69 1.10997 169.92 7.61997C171.47 -4.96003 148.22 -0.720026 154.01 11.26C150.241 8.9061 145.903 7.62032 141.46 7.53997C138 5.99997 130.54 5.62997 126.81 7.72997C124.156 6.22919 120.803 6.90667 118.94 9.31997C118.823 9.30975 118.706 9.30975 118.59 9.31997C116.91 4.31997 100.03 7.25997 98.7899 11.39C89.5599 4.19997 77.1899 5.84997 72.9399 11.08C66.0999 3.53997 55.8099 4.27997 48.8199 9.37997C38.5599 4.78997 31.9999 3.72997 31.3999 16.89C28.2599 15.05 23.9099 11.6 19.2999 13.48C18.4099 -1.44003 -2.38009 10.8 0.229915 17.55C0.859915 19.35 10.1699 52.73 10.9999 54.74C-1.09009 57 5.80991 69.42 5.05991 89C6.70991 110.59 3.84992 127.68 10.5799 129C5.89992 131.58 3.62991 141.54 2.73991 149.24C-8.53539e-05 170.46 15.3699 175.48 31.9999 169.71C34.7399 173.35 45.3399 171.54 48.9199 169.19C50.8783 171.402 54.1259 171.926 56.6799 170.44C62.2699 173.55 75.0999 171.81 74.8299 163.04C76.8899 175.04 83.8299 171.69 92.1599 170.49C96.0899 171.37 100.16 173.72 103.46 168.8C106.05 173.07 114.08 172.67 118.46 170.8C121.29 172.8 127.95 171.33 131.61 170.8C135.767 170.348 139.709 168.725 142.98 166.12C143.4 172.72 157.2 174.26 160.68 170.44C166.27 173.55 179.09 171.81 178.82 163.04C180.4 170.28 182.64 172.95 189.82 171.45C196.7 171 200.5 169.92 199.76 163.31V163.31Z" fill="white"/>
<path d="M25.7399 123.32V122.84C46.9999 128 55.7599 99.3799 38.2099 90.5799C56.7799 67.8899 30.1299 57.6599 22.8599 57.4199L9.91992 61.2599L12.3399 123.32H25.7399ZM36.3499 107.11C36.6099 110.11 25.6399 114.56 25.6399 114.56L24.8499 99.6599C32.4299 99.9299 36.0899 104.11 36.3499 107.11ZM33.1399 77.9299C33.3399 80.2099 27.0899 83.2999 24.0499 84.6699L23.4399 70.6699C29.7999 71.4399 32.9099 75.1699 33.1399 77.9299Z" fill="#6FA4E2"/>
<path d="M177.78 69.6599L192.87 68.6399V58.1099L144.13 60.7699L148.12 71.6499L162.41 70.6899L165.49 123.59L179.72 125.02L177.78 69.6599Z" fill="#6FA4E2"/>
<path d="M92.25 123.93L94.34 113.08H70.61L69.16 98.7199L87.02 96.2699L87.79 90.3699L68.44 91.5599L66.22 69.5499H90.02L89.88 59.9199L64.94 56.8099L51.28 61.3399L57.53 123.93H92.25Z" fill="#6FA4E2"/>
<path d="M133.65 119.14C138.55 114.38 140.11 106.07 138.32 99.6499C134.57 85.5999 120.4 87.9199 113 80.7799C102.08 67.6399 126.2 59.9999 134.76 74.1599C136.413 71.4533 138.08 68.7399 139.76 66.0199C118 40.9999 86.1 68.6899 104 87.1499C107.24 90.5099 124.32 97.3099 127.26 100.15C133.48 112.41 112.87 121.15 100.93 107.55C100.263 111.09 99.62 114.633 99 118.18C102.4 122.48 123.42 129.35 133.65 119.14V119.14Z" fill="#6FA4E2"/>
<path d="M87.2499 40.8499L97.6999 51.2299L104.49 47.4099L88.5799 33.6799C92.3299 33.6799 96.4099 32.2499 98.0299 26.3399C101.36 14.2299 86.0299 12.4099 86.0299 12.4099L85.8799 13.0199V12.4099L78.1899 13.8999V51.8999L87.7399 50.6299L87.2499 40.8499ZM86.2499 20.0499C94.4799 21.7899 92.6299 26.1699 86.6599 28.2399L86.2499 20.0499Z" fill="#6FA4E2"/>
<path d="M141.49 50.9999V50.7999C166.58 49.5499 161.39 9.70993 138.1 13.5299L138 12.4299H130.48L132.57 51.8799L141.49 50.9999ZM150.49 32.3999C150.71 35.5699 141.34 40.2599 141.34 40.2599L140.67 24.5499C147.1 24.7999 150.23 29.2099 150.45 32.3799L150.49 32.3999Z" fill="#6FA4E2"/>
<path d="M129.12 52.11V43.24L114.81 44.23L113.52 12.46L104.14 14.01L107.5 50.12L129.12 52.11Z" fill="#6FA4E2"/>
<path d="M61.78 11.51C54.18 10.51 48.38 17.78 48 18.28C30.08 57.8 77.3 63.48 75.22 32.9C74.59 26 72.35 14 61.78 11.51V11.51ZM64.16 42.83C56.23 49.47 49.53 40.62 52.01 28.83C61.2 8.12997 73.61 33.66 64.16 42.83Z" fill="#6FA4E2"/>
<path d="M186.47 49.36C197.71 30.93 177.96 31.25 173.29 25.53C169.04 17.53 182.29 14.67 187.13 22.44L190.13 17.56C176.71 2.13997 157.47 20.18 169.33 30.65C171.83 32.76 181.33 36.47 182.82 38.16C186.06 45.63 173.97 50.32 166.92 42.42C166.54 44.54 166.15 46.66 165.77 48.78C167.23 51.11 180.43 55.51 186.47 49.36V49.36Z" fill="#6FA4E2"/>
<path d="M38.0999 12.0499L33.9099 41.1199L27.0799 20.9699L21.9899 18.7799L19.0199 38.1299L12.8599 12.0499L5.93994 15.8999L16.3899 52.2299L21.9899 50.7099L25.4399 30.5799L31.2799 49.6899L37.1599 50.7099L45.2999 14.2099L38.0999 12.0499Z" fill="#6FA4E2"/>
<path d="M159.03 6.80992L159.93 10.9099L161.81 10.5999V12.8099L163.89 10.2699V5.91992L159.03 6.80992Z" fill="#6FA4E2"/>
<path d="M62.3399 34.9299L66.9699 32.6599L61.6599 30.5799L59.9999 25.4399L57.7499 30.1899L52.4099 29.6699L56.3099 33.2199L53.4099 39.3299L59.6499 36.2599L63.0299 39.3299L62.3399 34.9299Z" fill="#6FA4E2"/>
<path d="M154.08 92.9199L158.7 90.6399L153.4 88.5699L151.74 83.4299L149.48 88.1799L144.14 87.6499L148.04 91.1999L145.15 97.3099L151.39 94.2399L154.77 97.3099L154.08 92.9199Z" fill="#6FA4E2"/>
<path d="M84.72 81.04L88.54 79.17L84.16 77.45L82.79 73.21L80.92 77.13L76.51 76.7L79.74 79.63L77.34 84.67L82.5 82.14L85.29 84.67L84.72 81.04Z" fill="#6FA4E2"/>
<path d="M125.09 18.2699L127.74 16.9599L124.69 15.7699L123.74 12.8099L122.44 15.5399L119.37 15.2399L121.62 17.2799L119.95 20.7899L123.54 19.0299L125.48 20.7899L125.09 18.2699Z" fill="#6FA4E2"/>
<path d="M143.59 126L146.24 124.7L143.19 123.5L142.24 120.55L140.94 123.28L137.87 122.98L140.12 125.02L138.45 128.53L142.04 126.77L143.98 128.53L143.59 126Z" fill="#6FA4E2"/>
<path d="M46.8299 59.5699L49.4899 58.2699L46.4399 57.0699L45.4799 54.1199L44.1899 56.8499L41.1199 56.5499L43.3599 58.5899L41.6899 62.0999L45.2799 60.3299L47.2299 62.0999L46.8299 59.5699Z" fill="#6FA4E2"/>
<path d="M189.68 82.1499L192.34 80.8399L189.29 79.6399L188.33 76.6899L187.03 79.4199L183.97 79.1199L186.21 81.1599L184.54 84.6699L188.13 82.9099L190.07 84.6699L189.68 82.1499Z" fill="#6FA4E2"/>
<path d="M51.18 125.75L53.84 124.44L50.79 123.25L49.84 120.3L48.54 123.03L45.47 122.72L47.71 124.77L46.05 128.28L49.63 126.51L51.58 128.28L51.18 125.75Z" fill="#6FA4E2"/>
<path d="M44.4899 156.38L53.5699 165.38L59.4699 162.06L45.6399 150.15C48.8999 150.15 52.4399 148.9 53.8499 143.77C56.7499 133.25 43.4099 131.67 43.4099 131.67L43.2799 132.19V131.67L36.6199 133V166L44.9099 164.9L44.4899 156.38ZM43.5799 138.3C50.3999 139.65 49.3699 143.58 43.9399 145.42L43.5799 138.3Z" fill="#6FA4E2"/>
<path d="M129.76 165.18V165C151.62 163.92 146.92 129.21 126.76 132.61L126.67 131.61H120.14L122 165.94L129.76 165.18ZM137.55 149C137.74 151.75 129.55 155.83 129.55 155.83L129 142.19C134.64 142.43 137.36 146.27 137.55 149Z" fill="#6FA4E2"/>
<path d="M174.72 154.23L182.41 153.89L185.94 165.94L194.05 164.94L184.34 131.63L179.48 132.07L172.02 132.77L164.64 165.93L172.41 164.93L174.72 154.23ZM178.02 138.88L180.72 148.11L175.93 148.6L178.02 138.88Z" fill="#6FA4E2"/>
<path d="M70.6899 154.23L78.3799 153.89L81.8999 165.94L89.9999 165L80.2899 131.69L75.4299 132.13L67.9699 132.83L60.5999 165.94L68.3699 164.94L70.6899 154.23ZM73.9999 138.88L76.6999 148.11L71.9099 148.6L73.9999 138.88Z" fill="#6FA4E2"/>
<path d="M18.9 165.94C18.9 165.94 28.75 165.7 30.51 163.65C37.51 158.65 32.75 152.32 32.75 152.32L20.89 150.39L21.31 154.24H29.74C29.7491 155.607 29.4339 156.958 28.82 158.18C4.13003 171 13 128.4 27.13 143.41L30.51 138.19C30.51 138.19 14.51 125.48 10.87 138.86C7.23003 152.24 6.19003 165.94 18.9 165.94V165.94Z" fill="#6FA4E2"/>
<path d="M109.41 152.48L98.28 131.03L91.26 133.3L92.32 164.38L98.28 165.94V144.77L108.71 165.94H115.1V131.03L110.42 133.3L109.41 152.48Z" fill="#6FA4E2"/>
<path d="M156.26 166.56V149.56C160.08 150.21 165.26 149.74 167.07 143.17C170.07 132.29 156.26 130.65 156.26 130.65L147.38 131.57L149 165.61L156.26 166.56ZM156.26 137.49C164.96 139.38 161.13 143.49 156.26 145.11V137.49Z" fill="#6FA4E2"/>
</g>
<defs>
<clipPath id="clip0_1_4421">
<rect width="200" height="173" fill="white"/>
</clipPath>
</defs>
</svg>
