<svg width="151" height="184" viewBox="0 0 151 184" fill="none" xmlns="http://www.w3.org/2000/svg">
<path d="M73.6232 130.816L71.8592 130.872L71.6002 134.701L82.0022 134.575L81.5682 130.557L79.1042 130.634L79.9232 111.552L86.3352 111.496L86.3072 108.486L80.0492 108.542L80.0982 107.359L86.4332 107.261L86.5662 104.118L68.0232 103.698L67.8482 107.737L73.9032 107.45L73.8892 108.605L67.8062 108.661L67.8342 111.671L73.8542 111.615L73.6232 130.816Z" fill="white"/>
<path d="M138.373 123.417L121.86 124.698L120.95 128.142L139.136 127.134L138.373 123.417Z" fill="white"/>
<path d="M139.885 133.553L139.283 129.066L121.202 130.333L120.95 133.553H139.885Z" fill="white"/>
<path d="M142.601 117.523L137.001 113.169L135.027 115.71L136.693 117.005C130.12 121.527 126.396 115.997 125.997 112.931L138.73 111.3C139.255 104.09 129.889 98.763 122.343 105.476C113.67 117.376 128.643 127.876 139.29 119.007L140.634 120.05L142.601 117.523ZM130.582 105.049C133.431 104.671 134.719 108.283 134.719 108.283L127.642 109.291C127.642 109.291 126.732 105.56 130.582 105.049V105.049Z" fill="white"/>
<path d="M105.592 130.837L105.55 135.1L113.04 134.883H113.32L116.645 134.792L116.141 130.046L113.341 130.256V107.058L115.238 107.009L114.86 104.006L106.817 104.503V107.212L108.917 107.163V115.178L98.55 115.815L98.249 107.058L100.195 107.016L99.789 104.013L91.319 104.51V107.219L93.419 107.17L92.649 130.69L90.731 130.837V135.107L98.858 134.876H99.278L101.826 134.806L101.322 130.06L99.124 130.228L98.844 122.01L109.001 122.612V130.606L105.592 130.837ZM98.592 118.104V117.264L108.875 116.2V117.341L98.592 118.104Z" fill="white"/>
<path d="M75.863 48.601C79.4253 47.021 82.9042 45.2593 86.286 43.323C99.201 62.3 127.95 44.1 105.655 27.517C113.544 18.256 109.897 6.58 98.655 4.578L97.486 0L90.92 3.031L93.02 6.412C83.654 13.664 91.683 23.212 98.403 27.874C95.7213 30.2326 92.8872 32.412 89.919 34.398C89.4153 33.0385 88.9853 31.6528 88.631 30.247L91.956 28.7L88.932 22.141L75.492 28.336L78.523 34.902L81.694 33.439C82.1524 35.1739 82.7565 36.8669 83.5 38.5C79.552 40.887 75.905 42.875 73.427 44.191L75.863 48.601ZM94.105 13.398C94.28 12.3102 94.7663 11.2964 95.505 10.479L97.192 13.223L100.524 11.69L99.789 8.89C106.019 11.753 107.405 18.543 102.134 24.094C97.85 19.978 93.468 16.401 94.105 13.398V13.398ZM102.176 31.5C113.306 40.824 99.033 51.674 92.376 39.515C95.8897 37.1605 99.1712 34.4767 102.176 31.5V31.5Z" fill="white"/>
<path d="M124.128 8.39997L124.289 10.304L114.223 11.403L114.769 16.38L124.723 15.295L127.495 47.131L124.569 47.516L124.779 53.9L141.978 51.982L140.606 45.402L136.532 45.941L134.761 14.203L145.373 13.048L144.834 8.07097L134.481 9.19797L134.369 7.22397L144.841 6.03397L144.547 0.797974L113.761 3.14297L114.139 9.85597L124.128 8.39997Z" fill="white"/>
<path d="M65.4331 36.0081L39.6241 38.0031L38.2031 43.3861L66.6231 41.8111L65.4331 36.0081Z" fill="white"/>
<path d="M67.7921 51.849L66.8541 44.828L38.6021 46.809L38.2031 51.849H67.7921Z" fill="white"/>
<path d="M52.7699 34.146C60.2879 34.146 64.7399 31.129 66.8609 29.141L68.9609 30.765L72.0339 26.796L63.2629 19.999L60.1829 23.968L62.7869 25.977C52.2799 32.9 47.0159 24.892 46.0499 19.6L65.9649 17.073C66.2379 1.77798 46.7499 -1.19002 38.9379 9.79998C33.8699 17.717 36.3759 34.545 52.7699 34.146V34.146ZM53.2599 7.30098C57.7049 6.70598 59.7209 12.355 59.7209 12.355L48.6679 13.93C48.6679 13.93 47.2399 8.09898 53.2599 7.30098V7.30098Z" fill="white"/>
<path d="M2.60806 44.422L1.78906 52.367H9.48906C46.7011 54.467 37.7691 21.448 18.6801 22.421C31.9031 19.635 32.0501 1.80602 11.9951 2.80002H11.9601C10.4831 2.80002 9.16006 2.80002 8.17306 2.83502L2.22306 2.89802L2.53806 9.89802L6.09406 9.49202L5.12806 44.492L2.60806 44.422ZM13.3461 8.61702C27.7381 5.92902 24.8681 22.323 13.3461 20.601V8.61702ZM13.3461 25.354C32.0571 24.199 33.5971 47.362 13.3461 44.954V25.354Z" fill="white"/>
<path d="M36.3621 136.157L46.3721 135.695L46.3651 135.66L48.1641 135.569L47.6741 131.495L45.8891 131.593L43.1241 108.045L45.8611 107.681L45.0141 103.677L36.0751 105.28L36.4181 108.927L38.5811 108.64L39.6031 130.697L28.9421 106.001L24.5601 106.204L22.9291 133.525L20.3601 133.987L20.7031 137.641L30.1461 136.388L29.2991 132.391L27.7241 132.671L27.8221 112.623L36.3621 136.157Z" fill="white"/>
<path d="M9.81816 132.958L9.56616 135.877L17.5392 136.57L17.7982 133.651L16.7972 133.567H16.8252L16.2022 118.125L17.7492 118.048L17.6092 115.122L9.60816 115.521L9.75516 118.447L11.2672 118.37V133.084L9.81816 132.958Z" fill="white"/>
<path d="M12.8631 114.023C17.8821 113.372 15.4671 107.884 12.9121 108.115C9.50307 108.178 9.30007 113.729 12.8631 114.023Z" fill="white"/>
<path d="M15.8381 103.838C15.8381 101.213 12.9121 100.905 12.9121 100.905C5.73008 102.963 14.4661 111.146 15.8381 103.838Z" fill="white"/>
<path d="M150.623 161.798C150.623 148.806 137.897 146.685 130.96 146.489L124.051 146.328L124.17 151.718L126.718 151.599L127.418 176.799L123.869 176.96L123.435 182.616L128.65 182.455C133.193 182.413 150.623 181.041 150.623 161.798V161.798ZM134.453 151.438C134.985 151.405 135.518 151.405 136.049 151.438V175.833C135.525 175.996 134.992 176.129 134.453 176.232V151.438ZM137.953 175.126L137.05 151.473C152.163 152.733 149.23 171.542 137.946 175.126H137.953Z" fill="white"/>
<path d="M93.783 178.36L87.245 167.118C101.595 155.428 87.84 145.887 74.953 147.385H69.479L70.067 153.034L71.852 152.943C71.852 153.643 72.552 177.506 72.552 178.227L70.781 178.164L70.851 183.169L79.846 182.798L79.426 178.458L77.697 178.402V170.002C80.0957 169.828 82.4549 169.297 84.697 168.427L89.233 178.227L87.483 178.164L87.553 183.169L96.548 182.798L96.128 178.458L93.783 178.36ZM77.69 166.6V152.6C93.104 151.2 89.863 167.825 77.69 166.6Z" fill="white"/>
<path d="M41.3601 177.373L41.2341 182.112L64.2711 181.944L63.2771 176.68L41.3601 177.373Z" fill="white"/>
<path d="M52.35 175.91H52.763C67.281 176.169 66.987 152.649 54.527 150.64L54.408 146.573H49.123L49.445 150.969C38.098 155.092 39.47 175.91 52.35 175.91V175.91ZM49.788 155.533L50.033 158.83L54.744 158.298L54.646 154.889C62.122 159.089 61.296 170.639 52.763 171.521C43.572 170.268 44.398 159.6 49.781 155.533H49.788Z" fill="white"/>
<path d="M120.992 171.262L111.311 172.312L111.822 177.03L114.202 176.771L114.167 178.584C114.167 178.584 106.95 178.122 106.81 177.8C106.67 177.478 107.391 159.796 107.65 152.789L111.094 152.544L110.758 147.805L99.124 148.638L99.46 153.37L102.302 153.167L100.391 182.385L120.39 182C120.39 182 120.124 178.619 119.858 176.19L121.503 176.015L120.992 171.262Z" fill="white"/>
<path d="M26.681 152.845L29.593 153.195L29.166 169.113L19.072 154.637L9.48205 167.405C9.41905 162.652 9.33505 156.296 9.29305 152.768L11.659 152.453L11.05 147.917L0.550049 149.317L1.15905 153.853L3.13305 153.587L5.70205 176.232L3.78405 175.805L2.79705 180.271L13.15 182.574L14.144 178.108L12.891 177.828L19.989 167.559L25.827 178.402L24.154 178.598L24.686 183.141L35.1861 181.895L34.647 177.352L32.981 177.548L35.655 153.923L37.181 154.105L37.727 149.569L27.227 148.302L26.681 152.845ZM19.45 160.545L9.55905 173.53C9.55905 173.53 9.55905 172.032 9.51005 169.792L19.45 157.094L29.11 171.332L28.984 175.889L19.45 160.545Z" fill="white"/>
<path d="M55.2761 80.311C56.2561 73.668 55.9761 62.524 45.7281 68.6L45.0281 66.563L42.7671 67.368C43.4671 69.251 44.4191 71.995 45.1681 74.081L47.4221 73.269C47.2961 72.933 46.8901 71.792 46.7221 71.281C50.7961 65.926 52.0141 74.347 51.8881 76.069C39.4631 72.212 41.0101 87.591 51.8881 82.719V83.741H51.1041V85.183H55.7451V83.734H54.7511C54.9121 82.796 55.0451 82.124 55.2761 80.311V80.311ZM48.1501 81.963C45.3501 81.83 45.2871 77.91 47.8281 77.308C49.0604 77.303 50.085 78.2553 50.17 79.4846C50.255 80.714 49.3713 81.7983 48.1501 81.963V81.963Z" fill="white"/>
<path d="M58.5311 86.751L43.4881 88.158L42.7461 91.931L59.2731 91.616L58.5311 86.751Z" fill="white"/>
<path d="M21.4171 80.206L12.0791 80.416L11.3161 85.036L14.4101 85.225V82.817L18.0501 82.67C18.0501 82.67 18.1131 87.374 13.3041 87.654C1.29213 87.185 5.11413 69.797 14.5501 71.617L12.9331 73.717L15.4951 76.048L21.2911 69.174L18.1551 66.92L16.6081 68.936C14.938 68.2258 13.1378 67.8729 11.3231 67.9C3.23813 68.376 -0.226873 79.485 3.39213 86.534C12.8281 99.134 23.4681 86.947 21.4171 80.206V80.206Z" fill="white"/>
<path d="M74.5051 69.426L75.4291 86.793L66.8961 67.396L63.4451 67.578L62.3041 89.117L60.2881 89.488L60.5751 92.365L68.0091 91.329L67.3231 88.179L66.0771 88.417L66.0491 72.625L72.9091 91.119L80.7841 90.699V90.671L82.1981 90.587L81.7851 87.381L80.3851 87.472L78.0821 68.929L80.2381 68.635L79.5521 65.485L72.5171 66.787L72.8041 69.664L74.5051 69.426Z" fill="white"/>
<path d="M83.9621 87.899L83.6541 91.91L87.3571 91.805C105.214 92.652 110.681 66.367 89.0021 66.269L84.1021 66.157L84.1861 69.986L85.9921 69.902L86.4891 87.801L83.9621 87.899ZM100.65 77.462C100.594 82.943 96.6461 85.498 93.9441 86.604L93.3141 69.804C96.0441 70.042 100.734 71.344 100.65 77.462ZM91.4591 69.762C91.8368 69.7406 92.2154 69.7406 92.5931 69.762V87.094C92.22 87.2064 91.8415 87.2998 91.4591 87.374V69.762Z" fill="white"/>
<path d="M25.9811 67.2H22.1521L22.5581 71.1481L23.8111 71.085C23.8111 71.323 24.2941 88.473 24.3011 88.767L23.0621 88.725L23.1111 92.225L29.4111 91.9661L29.1101 88.935L27.8991 88.9V83.006C29.5615 82.8767 31.1959 82.5041 32.7501 81.9001L35.9141 88.774L34.6961 88.732L34.7451 92.232L41.0451 91.973L40.7441 88.942L39.1341 88.886L34.5561 81.018C44.6851 72.8 34.7661 66.143 25.9811 67.2V67.2ZM27.8991 80.6191V70.8821C38.8681 69.9511 36.1381 81.613 27.8991 80.64V80.6191Z" fill="white"/>
<path d="M144.652 79.331C145.702 72.079 145.296 60.55 134.551 66.941L133.781 64.785L131.394 65.639C132.136 67.739 133.13 70.539 133.928 72.737L136.315 71.883C136.189 71.526 135.755 70.315 135.559 69.783C139.878 64.113 141.159 73.031 141.033 74.851C127.88 70.777 129.497 87.052 141.033 81.851V82.936H140.235V84.462H145.135V82.936H144.078C144.274 81.97 144.407 81.249 144.652 79.331V79.331ZM137.099 81.081C134.159 80.948 134.061 76.79 136.756 76.181C139.99 76.167 139.955 80.801 137.099 81.081Z" fill="white"/>
<path d="M131.394 91.637L148.887 91.301L148.096 86.156L132.178 87.64L131.394 91.637Z" fill="white"/>
<path d="M124.121 77.413C124.163 80.913 124.226 85.645 124.254 88.256L122.504 88.487L122.952 91.847L130.75 90.804L130.302 87.451L128.839 87.647L126.942 70.847L128.342 71.162L129.042 67.851L121.377 66.157L120.642 69.461L121.566 69.671L116.316 77.273L112.018 69.3L113.257 69.153L112.858 65.793L105.067 66.71L105.459 70.077L106.698 69.93L104.717 87.43L103.583 87.29L103.184 90.657L110.975 91.595L111.381 88.228L109.218 87.969L109.54 76.174L117.016 86.905L124.121 77.413ZM109.582 74.508L109.673 71.134L116.75 82.495L124.079 72.877L124.114 75.677L116.75 85.057L109.582 74.508Z" fill="white"/>
</svg>
