<svg width="200" height="171" viewBox="0 0 200 171" fill="none" xmlns="http://www.w3.org/2000/svg">
<g clip-path="url(#clip0_1_4391)">
<path d="M199.005 68.6567C198.647 63.0746 201.373 51.4229 192.04 52.2487C197.602 45.3333 197.184 33.592 189.771 27.791C207.443 13.7114 182.806 1.0348 170.02 7.61191C171.562 -4.97515 148.259 -0.696548 154.149 11.3234C150.36 8.93718 145.99 7.63306 141.513 7.55221C138.129 5.98007 130.667 5.64176 126.945 7.75121C124.294 6.2435 120.937 6.91824 119.075 9.3333H118.687C117.085 4.35818 99.9205 7.34325 98.8956 11.4328C89.6718 4.19897 77.1842 5.85072 73.025 11.1243C66.1593 3.59201 55.8509 4.32833 48.8459 9.46266C38.5275 4.80594 32.0101 3.69151 31.423 16.9154C28.3185 15.0447 23.8708 11.5522 19.2638 13.4726C18.3981 -1.45277 -2.36804 10.7661 0.219022 17.4527C0.885688 19.3433 10.1693 52.6069 11.0349 54.7363C-1.31332 56.7164 5.97027 71.6418 5.23395 93.393C7.03494 114.219 2.76629 130.726 13.8608 129.363C7.54241 131.095 5.07474 140.398 4.06977 148.945C1.3633 168.159 14.9255 173.642 30.7464 168.428C33.8409 171.612 42.229 169.841 46.0698 168.04C47.9483 169.809 50.7361 170.207 53.0349 169.035C56.8658 171.433 69.2638 170.09 69.4827 164.06C71.0548 172.577 78.7464 169.97 84.9951 169.035C88.418 169.851 91.7215 171.672 95.0946 167.96C97.7116 171.134 104.418 170.786 108.358 169.532C111.085 170.915 116.707 169.751 120.04 169.264C122.502 168.976 124.894 168.255 127.105 167.134C130.289 174.05 144.736 167.413 143.751 160.428C145.358 160.96 147.112 160.823 148.617 160.05C148.567 169.184 156.786 169.9 163.99 170.05C168.448 170.219 177.722 170.308 178.398 164.08C179.861 172.547 187.632 169.93 193.632 169.124C201.921 165.542 195.781 158.567 193.453 147.602C189.363 135.572 190.299 130.497 185.144 127.98C186.786 128.368 184.398 91.6517 184.667 90.6467C185.667 90.6366 186.652 90.4055 187.552 89.9701C189.258 90.8024 191.256 90.7831 192.945 89.9179C194.635 89.0527 195.818 87.4426 196.139 85.5721C199.473 83.2537 199.125 76.6169 194.269 75.194C194.269 75.194 194.269 75.0746 194.02 74.4975C196.892 74.0422 199.007 71.5649 199.005 68.6567V68.6567Z" fill="white"/>
<path d="M25.7415 123.453V122.965C47.0151 128.129 55.8211 99.4825 38.239 90.6666C56.8161 67.9602 30.1594 57.7114 22.8858 57.4626L9.95044 61.3134L12.3783 123.453H25.7415ZM36.3584 107.224C36.6171 110.209 25.632 114.677 25.632 114.677L24.846 99.7512C32.438 100.03 36.0997 104.209 36.3584 107.224ZM33.1544 78C33.3534 80.2786 27.0947 83.383 24.0499 84.7562L23.433 70.6965C29.8509 71.5024 32.9156 75.2437 33.1544 78V78Z" fill="#D986C5"/>
<path d="M177.98 69.7213L193.085 68.6964V58.1492L144.289 60.8158L148.279 71.7114L162.587 70.7561L165.672 123.731L179.93 125.154L177.98 69.7213Z" fill="#D986C5"/>
<path d="M92.3384 124.06L94.4279 113.204H70.6667L69.214 98.8158L87.0946 96.3581L87.8707 90.4576L68.4976 91.6417L66.2687 69.6019H90.1095L89.9602 59.9701L64.9851 56.8457L51.3135 61.383L57.5722 124.06H92.3384Z" fill="#D986C5"/>
<path d="M133.791 119.274C138.697 114.507 140.259 106.179 138.468 99.7412C134.707 85.6815 120.557 87.9999 113.085 80.8357C102.139 67.6716 126.338 59.9402 134.906 74.2089L139.881 66.0596C118.169 40.9651 86.1493 68.7263 104.139 87.2138C107.373 90.577 124.488 97.383 127.423 100.229C133.652 112.507 113.015 121.254 101.065 107.642L99.0747 118.279C102.488 122.617 123.542 129.492 133.791 119.274V119.274Z" fill="#D986C5"/>
<path d="M87.3235 40.8756L97.8011 51.2637L104.597 47.4428L88.6767 33.6915C92.4379 33.6915 96.5175 32.2587 98.1394 26.3383C101.473 14.2189 86.1095 12.408 86.1095 12.408L85.9503 13.005V12.408L78.2588 13.9303V51.9005L87.811 50.6269L87.3235 40.8756ZM86.3284 20.0398C94.5573 21.801 92.7563 26.1493 86.7364 28.2488L86.3284 20.0398Z" fill="#D986C5"/>
<path d="M141.642 51.0149V50.8159C166.756 49.5721 161.542 9.67158 138.249 13.4925L138.149 12.3979H130.617L132.706 51.9004L141.642 51.0149ZM150.597 32.388C150.816 35.5621 141.433 40.2586 141.433 40.2586L140.756 24.5273C147.264 24.8059 150.388 29.2139 150.617 32.388H150.597Z" fill="#D986C5"/>
<path d="M129.254 52.1492V43.2637L114.926 44.2587L113.642 12.4478L104.239 13.99L107.612 50.1492L129.254 52.1492Z" fill="#D986C5"/>
<path d="M61.821 11.4925C54.209 10.4378 48.408 17.7711 48.02 18.2687C30.1095 57.8507 77.3732 63.5323 75.2837 32.9055C74.6269 26.0099 72.408 13.9303 61.821 11.4925V11.4925ZM64.1991 42.8458C56.2687 49.5025 49.5523 40.6468 52.0399 28.8557C61.2439 8.10945 73.6319 33.6716 64.1991 42.8458Z" fill="#D986C5"/>
<path d="M186.677 49.393C196.836 33.4726 182.309 31.6716 174.08 26.2089C168.01 18.2487 182.318 14.1591 187.343 22.4278L190.328 17.5522C176.896 2.1094 157.622 20.1791 169.503 30.6567C172 32.7761 181.562 36.4776 183.005 38.179C186.259 45.6616 174.149 50.3482 167.085 42.4477C166.707 44.5671 166.318 46.6965 165.93 48.8159C167.413 51.1442 180.637 55.5522 186.677 49.393Z" fill="#D986C5"/>
<path d="M38.1096 12.0298L33.9106 41.1343L27.0847 20.9651L21.9802 18.7661L19.0051 38.1492L12.8459 12.0298L5.90063 15.8905L16.3683 52.2586L21.9802 50.7363L25.433 30.577L31.2738 49.7313L37.1643 50.7363L45.3235 14.1989L38.1096 12.0298Z" fill="#D986C5"/>
<path d="M159.204 6.78603L160.1 10.8855L161.99 10.587V12.796L164.08 10.2487V5.8905L159.204 6.78603Z" fill="#D986C5"/>
<path d="M62.3882 34.9452L67.0151 32.6666L61.7116 30.587L60.04 25.4427L57.7813 30.199L52.438 29.6716L56.3484 33.2238L53.443 39.3432L59.6917 36.2686L63.0748 39.3432L62.3882 34.9452Z" fill="#D986C5"/>
<path d="M154.249 93.0049L158.876 90.7263L153.572 88.6467L151.901 83.5024L149.642 88.2587L144.299 87.7412L148.209 91.2935L145.304 97.4029L151.552 94.3383L154.935 97.4029L154.249 93.0049Z" fill="#D986C5"/>
<path d="M84.7961 81.1144L88.6169 79.2338L84.2388 77.5223L82.8558 73.2736L80.9951 77.2039L76.5771 76.7661L79.811 79.7014L77.413 84.7561L82.5672 82.2089L85.3632 84.7561L84.7961 81.1144Z" fill="#D986C5"/>
<path d="M125.214 18.2587L127.881 16.9453L124.826 15.7512L123.871 12.796L122.567 15.5323L119.493 15.2239L121.741 17.2736L120.07 20.7861L123.662 19.0149L125.612 20.7861L125.214 18.2587Z" fill="#D986C5"/>
<path d="M166.03 134.468L168.687 133.154L165.632 131.96L164.677 129.005L163.383 131.741L160.309 131.433L162.557 133.482L160.886 136.995L164.478 135.234L166.418 136.995L166.03 134.468Z" fill="#D986C5"/>
<path d="M46.8559 59.6219L49.5126 58.3084L46.4679 57.1144L45.5027 54.1592L44.2091 56.8855L41.1345 56.587L43.3833 58.6268L41.7116 62.1492L45.3037 60.3781L47.2539 62.1492L46.8559 59.6219Z" fill="#D986C5"/>
<path d="M189.901 82.2189L192.557 80.9154L189.503 79.7214L188.547 76.7562L187.254 79.4925L184.179 79.194L186.418 81.2338L184.756 84.7562L188.348 82.9851L190.289 84.7562L189.901 82.2189Z" fill="#D986C5"/>
<path d="M57.0649 134.468L59.7316 133.154L56.6768 131.96L55.7216 129.005L54.4181 131.741L51.3435 131.433L53.5923 133.482L51.9306 136.995L55.5226 135.234L57.4629 136.995L57.0649 134.468Z" fill="#D986C5"/>
<path d="M42.0897 155.761L50.239 163.851L55.5424 160.866L43.1245 150.159C58.2091 146.985 48.1693 132.647 41.1345 133.572L41.0151 134.04V133.572L35.0449 134.726V164.348L42.4877 163.353L42.0897 155.761ZM41.2738 139.532C47.3136 140.716 46.5375 144.259 41.5922 145.92L41.2738 139.532Z" fill="#D986C5"/>
<path d="M118.13 163.662V163.502C137.831 162.507 133.443 131.353 115.483 134.428L115.403 133.572H109.542L111.174 164.348L118.13 163.662ZM125.095 149.154C125.264 151.622 117.95 155.274 117.95 155.274L117.433 143.025C122.508 143.284 124.945 146.677 125.125 149.154H125.095Z" fill="#D986C5"/>
<path d="M174.527 153.821L181.433 153.522L184.597 164.348L191.891 163.473L183.164 133.622L178.806 134.02L172.109 134.637L165.473 164.418L172.438 163.542L174.527 153.821ZM177.512 140.05L179.94 148.328L175.642 148.776L177.512 140.05Z" fill="#D986C5"/>
<path d="M65.612 153.821L72.5175 153.522L75.6817 164.348L82.9752 163.473L74.2489 133.622L69.8807 134.02L63.1842 134.637L56.5474 164.418L63.5125 163.542L65.612 153.821ZM68.5971 140.05L71.015 148.328L66.7165 148.776L68.5971 140.05Z" fill="#D986C5"/>
<path d="M19.1144 164.348C19.1144 164.348 27.9602 164.129 29.5423 162.289C31.2295 161.264 32.407 159.576 32.7858 157.639C33.1645 155.701 32.7095 153.694 31.5324 152.109L20.8955 150.388L21.2637 153.841H28.8557C28.8696 155.071 28.5863 156.286 28.0299 157.383C5.97017 168.895 13.6518 130.706 26.4975 144.109L29.5423 139.423C29.5423 139.423 15.204 128.02 11.9005 140.03C8.59704 152.04 7.70151 164.348 19.1144 164.348V164.348Z" fill="#D986C5"/>
<path d="M132.279 164.348L137.542 161.98L139.891 144.886L145.732 154.876L152.09 144.129L154.985 162.716L162.438 164.348L156.547 134.886H150.657L145.732 148.726L141.353 134.219L134.438 133.104L132.279 164.348Z" fill="#D986C5"/>
<path d="M100.378 152.259L90.3883 133.005L84.0798 135.045L85.0351 162.945L90.3883 164.348V145.333L99.7515 164.348H105.483V133.005L101.284 135.045L100.378 152.259Z" fill="#D986C5"/>
</g>
<defs>
<clipPath id="clip0_1_4391">
<rect width="200" height="171" fill="white"/>
</clipPath>
</defs>
</svg>
