<svg width="150" height="78" viewBox="0 0 150 78" fill="none" xmlns="http://www.w3.org/2000/svg">
<path d="M31.2581 23.9593V19.7093H33.1581V5.31761H31.2581V1.10094C34.7831 1.45928 45.2247 0.0759434 49.2247 2.37594C52.3164 4.04261 52.6247 10.1426 48.2664 11.7593C51.7914 12.3176 53.6497 17.2926 51.9581 20.5759C49.8997 26.0509 35.8331 23.3426 31.2581 23.9593V23.9593ZM39.9247 5.41761V10.3176C46.0331 11.3759 45.2164 4.36761 39.9247 5.41761ZM45.1914 16.8926C45.4331 14.2509 42.2414 13.7509 39.9247 14.0176V19.7093C42.0081 19.7676 44.9247 20.0926 45.1914 16.8926Z" fill="white"/>
<path d="M53.7332 1.10095H73.4498V8.32595H67.7915V5.41762H62.5665V9.92595H68.7748V14.276H62.5665V19.6093H67.7915V16.5676H73.4498V23.9593H53.7332V19.6093H55.8332V5.44262H53.7332V1.10095Z" fill="white"/>
<path d="M75.0913 23.9593V15.7176H81.1746C81.1746 18.4593 83.9246 18.9176 85.2913 18.9843C94.3746 16.3509 79.3246 15.7843 76.4996 11.0676C71.6663 0.984252 86.4413 -2.74908 90.133 3.87592L90.4663 1.13425H96.0913V9.34259H90.1663C89.0913 2.00092 78.8496 7.23425 86.758 9.61759C107.816 14.9759 90.608 31.2843 81.1746 21.4759L80.8163 23.9759L75.0913 23.9593Z" fill="white"/>
<path d="M119.933 1.10095V9.60095H115.125V5.43429H112.375V19.601H115.091V23.9593H102.925V19.6093H105.608V5.44262H102.791V9.60929H97.9915V1.10095H119.933Z" fill="white"/>
<path d="M14.2247 48.0426C9.72475 53.0426 1.02475 48.3092 0.891415 41.1676C-0.191918 31.1676 10.7497 26.7009 14.9664 32.1926L15.5581 30.1676H19.7247V38.5009H14.7247C8.59975 25.2259 3.44142 51.5426 14.2164 44.0092V42.7509H12.4997V39.7092H21.8331V42.7176H20.7247V49.7509H15.0997L14.2247 48.0426Z" fill="white"/>
<path d="M22.9663 30.1342C45.6246 27.9509 41.008 39.1675 35.833 40.0009C39.7913 39.5925 39.9996 49.8675 40.833 44.0759H42.7163C43.833 50.6009 36.6663 51.9675 33.7413 47.7092C32.3746 45.4092 34.383 41.3259 30.333 41.7175V46.0759H32.0496V49.7842H22.9663V46.0759H24.5413V33.8175H22.9663V30.1342ZM30.333 33.7842V38.5675C35.5663 39.4092 35.5913 32.9759 30.333 33.7842Z" fill="white"/>
<path d="M65.6997 49.7843H54.4247V46.1009H57.0913L56.4997 44.1843H50.7413L50.1497 46.1009H52.3413V49.7843H43.3997V46.1009H45.3163L49.108 33.7593H47.958V30.1343H58.7913L63.7913 46.1009H65.758L65.6997 49.7843ZM51.783 40.8176H55.4663L53.608 34.7093L51.783 40.8176Z" fill="white"/>
<path d="M88.3331 33.7593H86.4997V49.7843H80.4497L73.2831 39.0759V46.1593H75.4497V49.7843H66.8164V46.1593H68.4831V33.7593H66.8164V30.1343H74.9164L81.8331 40.4509V33.7843H79.8914V30.1343H88.3331V33.7593Z" fill="white"/>
<path d="M89.7581 49.7842V46.0426H91.4997V33.8759H89.7581V30.1342C104.816 28.2926 114.275 35.2509 106.208 47.1426C102.908 50.8676 94.1664 49.5676 89.7581 49.7842ZM98.3331 33.8759H97.2664V46.0426H98.3331C103.641 46.2342 104.308 34.0259 98.3331 33.8759Z" fill="white"/>
<path d="M110 30.1342C134.941 27.4676 128.333 43.3926 117.333 41.7176V46.0759H119.05V49.7842H110V46.0759H111.566V33.8176H110V30.1342ZM117.333 33.7842V38.6759C122.641 39.5092 122.641 32.9842 117.333 33.7842Z" fill="white"/>
<path d="M150 49.7843H138.725V46.1009H141.4L140.808 44.1843H135.041L134.45 46.1009H136.666V49.7843H127.708V46.1009H129.616L133.408 33.7593H132.258V30.1343H143.091L148.091 46.1009H150V49.7843ZM136.083 40.8176H139.766L137.908 34.7093L136.083 40.8176Z" fill="white"/>
<path d="M105.558 63.876H104.833V66.326C106.291 66.8343 108.108 64.3843 105.558 63.876V63.876Z" fill="white"/>
<path d="M124.858 63.876H124.308V70.126H124.858C127.4 70.1843 128.033 64.3093 124.858 63.876V63.876Z" fill="white"/>
<path d="M140.417 56.4426H10.4165L16.6748 67.026L10.4498 77.2093H140.45L134.167 66.6426L140.417 56.4426ZM25.5415 63.876H24.6415V70.126H25.5415V72.0426H20.7582V70.126H21.6665V63.876H20.7582V61.9843H25.5415V63.876ZM37.2915 63.876H36.3415V72.0926H33.2415L29.5748 66.601V70.2343H30.6832V72.0926H26.2582V70.201H27.0915V63.876H26.2582V61.9843H30.4248L33.9665 67.276V63.8426H32.9582V61.9843H37.2915V63.876ZM51.1415 65.7676H49.0165V63.876H47.8082V70.126H49.0082V72.0426H43.6415V70.126H44.8248V63.876H43.5832V65.7176H41.4665V61.9676H51.1415V65.7676ZM62.0582 63.876H61.2248V70.1343H62.0582V72.0426H57.3748V70.151H58.2082V67.976H55.4832V70.151H56.3748V72.0593H51.7082V70.151H52.5415V63.876H51.7082V61.9843H56.3748V63.876H55.4832V66.0426H58.2248V63.876H57.3915V61.9843H62.0748L62.0582 63.876ZM71.4582 65.151H68.9582V63.876H66.6665V65.876H69.3998V67.7926H66.6665V70.1426H68.9665V68.801H71.4665V72.0593H62.7748V70.1426H63.6832V63.876H62.7748V61.9843H71.4582V65.151ZM90.1915 63.876H89.3582L87.2082 72.076H83.8332C83.3832 70.1843 82.9998 69.0093 82.6082 66.8593H82.5582C82.4665 67.6926 81.5582 71.151 81.3248 72.076H77.9915L76.0832 63.876H75.2498V61.9843H79.9998V63.876H79.1665L79.5415 65.976C79.6915 66.6676 79.9415 68.3843 79.9998 68.8176H80.0665C80.1665 67.9093 81.1332 63.6093 81.4915 62.001H84.4915C85.0737 64.2389 85.5217 66.5096 85.8332 68.801H85.8998C86.1267 67.1426 86.4466 65.4984 86.8582 63.876H86.0248V61.9843H90.1915V63.876ZM95.4165 72.3343C89.0332 72.6926 88.5332 62.7343 94.4498 61.7926C102.033 60.1843 102.608 72.576 95.4165 72.3176V72.3343ZM111.175 69.9426C111.508 72.1093 107.883 73.176 106.583 71.0093C105.867 69.8843 106.925 67.8176 104.833 67.9426V70.1676H105.717V72.076H101.058V70.151H101.892V63.876H101.058V61.9843C105.475 61.151 113.967 63.326 107.642 67.0426C109.133 66.376 109.808 71.801 110.208 69.1343H111.175V69.9426ZM119.75 72.076H111.667V70.1593H112.5V63.876H111.667V61.9843H116.217V63.876H115.458V70.126H117.317V68.2926H119.742L119.75 72.076ZM124.8 72.076H120.467V70.1593H121.358V63.876H120.467V61.9843C133.142 60.101 132.758 71.851 124.8 72.0593V72.076Z" fill="white"/>
<path d="M95.2998 63.9259C93.5415 63.7842 93.2415 69.9009 95.4165 70.0592C97.1581 70.1676 97.4998 64.1759 95.2998 63.9259V63.9259Z" fill="white"/>
</svg>
