<svg width="164" height="83" viewBox="0 0 164 83" fill="none" xmlns="http://www.w3.org/2000/svg">
<path fill-rule="evenodd" clip-rule="evenodd" d="M59.3074 0.194458V8.61246H55.7994V0.194458H52.7134V19.8375H55.7994V11.4195H59.3074V19.8375H62.4494V0.194458H59.3074Z" fill="white"/>
<path fill-rule="evenodd" clip-rule="evenodd" d="M67.0202 0.194458L63.8772 19.8375H66.7112L67.2442 16.2735H71.0332L71.5662 19.8375H74.6812L71.5382 0.194458H67.0202ZM69.1242 3.67346L70.6122 13.6075H67.6372L69.1242 3.67346Z" fill="white"/>
<path fill-rule="evenodd" clip-rule="evenodd" d="M79.1956 3.00013C83.6736 1.70713 83.2506 11.0961 79.1956 9.65013V3.00013ZM79.1956 12.4571C84.2996 13.0951 85.7736 9.46213 85.2576 5.04913C85.4636 -0.484866 79.8626 0.0961336 76.1096 0.194134V19.8371H79.1956V12.4571Z" fill="white"/>
<path fill-rule="evenodd" clip-rule="evenodd" d="M89.7718 3.00013C94.2498 1.70713 93.8268 11.0961 89.7718 9.65013V3.00013ZM89.7718 12.4571C94.8758 13.0951 96.3498 9.46213 95.8338 5.04913C96.0398 -0.484866 90.4388 0.0961336 86.6858 0.194134V19.8371H89.7718V12.4571Z" fill="white"/>
<path fill-rule="evenodd" clip-rule="evenodd" d="M100.096 19.8371H103.183V13.3271L107.083 0.194092H104.137L101.78 9.14609L99.4226 0.194092H96.1956L100.096 13.3271V19.8371Z" fill="white"/>
<path fill-rule="evenodd" clip-rule="evenodd" d="M70.6268 72.3478C70.3418 77.6768 71.9168 80.7618 67.3148 80.1268V66.0958C71.6648 65.8548 70.4818 67.6258 70.6268 72.3478V72.3478ZM64.2288 63.2898V82.9328C71.4518 83.0768 74.5418 83.5378 73.7128 73.5038C74.0098 64.2038 73.5638 62.7648 64.2288 63.2898" fill="white"/>
<path fill-rule="evenodd" clip-rule="evenodd" d="M78.593 76.7033L80.08 66.7693L81.568 76.7033H78.593ZM77.976 63.2903L74.833 82.9323H77.667L78.2 79.3693H81.989L82.522 82.9323H85.636L82.493 63.2903H77.976Z" fill="white"/>
<path fill-rule="evenodd" clip-rule="evenodd" d="M90.2634 72.2414L87.9064 63.2904H84.6794L88.5794 76.4234V82.9324H91.6664V76.4234L95.5674 63.2904H92.6204L90.2634 72.2414Z" fill="white"/>
<path fill-rule="evenodd" clip-rule="evenodd" d="M50.7522 23.5607C49.8612 24.1437 49.8622 22.8097 49.8102 22.9057C50.4312 20.8777 51.1182 23.1057 50.7522 23.5607ZM66.4482 25.1137C68.9812 23.7447 72.8772 24.6927 72.0892 28.1067C66.7332 40.2627 58.7872 39.8727 60.5042 33.6157C60.5882 33.5207 60.6702 33.4297 60.7452 33.3487C60.8452 33.0627 60.8522 32.8477 60.8212 32.6657C61.6372 30.5967 63.3932 28.0197 66.4482 25.1137V25.1137ZM105.263 27.1647C105.263 27.2057 105.222 27.2057 105.222 27.2467C104.914 27.8257 103.946 29.7207 102.354 32.1077C86.3772 53.2067 95.5482 14.0547 105.263 27.1647V27.1647ZM109.071 21.9217C118.297 -1.6193 130.565 2.0297 109.604 22.2907C109.358 22.5367 108.907 22.2497 109.071 21.9217ZM49.6462 25.3627C49.7692 25.4447 49.8102 25.6497 49.7282 25.7717C48.6892 28.4487 44.7292 31.3407 45.3052 33.4717C45.6732 33.7577 46.2062 33.6757 46.4932 33.3077C48.3352 30.8507 50.0972 28.5157 51.2022 26.5087C51.2842 26.3457 51.4892 26.3047 51.6122 26.3867C52.4722 26.7137 53.3322 27.0417 53.8642 27.4107C55.9612 27.0947 48.6962 38.3737 50.5882 39.2057C53.0312 41.5697 56.7042 37.9107 59.1042 35.2127C58.8692 39.4527 61.0432 42.2067 67.0932 37.6077C68.4302 38.1897 67.4932 38.9727 67.9122 38.9587C69.6132 40.6647 71.0852 40.1737 72.8792 38.4577C72.7712 38.6697 72.7072 38.7917 72.7042 38.7957C72.4992 39.2057 72.6632 39.6967 73.0722 39.9017C73.4412 40.1067 73.9732 39.9427 74.1782 39.5337C76.6782 34.7987 84.5402 21.5937 88.8152 24.5747C88.5632 29.5097 84.5682 33.5417 83.9852 37.4967C83.5882 42.4897 88.7022 39.2147 91.9402 35.6837C92.0132 40.3257 95.3432 42.6937 103.337 34.6187C102.95 53.3937 122.655 16.0597 133.357 25.5267C133.685 25.8537 134.217 25.8127 134.504 25.4857C134.791 25.1177 134.75 24.6247 134.422 24.2977C123.399 12.0497 97.7572 57.2067 106.778 27.8607L106.819 27.8197C106.86 27.7387 106.982 27.5337 107.023 27.4107L107.065 27.3697C114.536 19.3467 129.191 6.1897 119.777 3.6167C114.665 4.2717 108.648 20.4837 105.795 24.3797C98.8612 20.0117 93.6962 26.6427 92.3082 32.5487C89.5602 36.1777 84.3602 41.0717 85.9732 36.5017C89.2752 30.7967 95.1962 15.9107 81.9192 25.5677C81.6732 25.8127 81.2632 25.5267 81.4272 25.1987C81.5912 24.8307 81.7542 24.5017 81.8772 24.2157C82.0822 23.8067 81.9192 23.3147 81.5092 23.1107C81.0992 22.9467 80.6082 23.1107 80.4032 23.5197C80.2432 23.8857 77.8772 28.5867 75.8102 32.6787C74.2152 33.8347 73.1062 36.5567 72.2942 36.7067C70.3632 38.5287 69.9112 38.4907 69.3452 38.1817C69.2222 37.9767 69.2222 37.3217 69.6322 36.2157C70.0012 35.2737 70.6152 34.1267 71.3522 33.0207C71.3932 32.9397 71.4342 32.8167 71.4752 32.7347C71.4752 32.6937 71.4752 32.6527 71.5162 32.6117C77.3342 25.8927 70.8782 19.5167 64.0812 24.7417C62.0102 26.3147 60.4022 29.2787 59.6152 32.1767C59.5402 32.2177 59.4752 32.2667 59.4342 32.3247C55.5462 36.9997 50.7272 40.9137 52.2962 36.7167C54.6352 30.9567 58.8152 26.7907 52.3492 24.9127C52.1852 24.8307 52.1042 24.6657 52.1852 24.5017C53.7712 17.0347 44.7742 21.6877 49.6462 25.3627" fill="white"/>
<path fill-rule="evenodd" clip-rule="evenodd" d="M138.159 56.9514C138.364 56.7464 138.732 56.9104 138.732 57.1964C138.652 61.3684 134.44 60.7234 138.159 56.9514ZM82.748 44.2963C81.857 44.8793 81.859 43.5454 81.806 43.6404C82.427 41.6124 83.114 43.8423 82.748 44.2963ZM61.595 54.4483C61.713 54.2583 61.83 54.0673 61.942 53.8793C62.048 53.6673 62.062 53.4334 62.003 53.2224C62.849 51.1844 64.597 48.6704 67.564 45.8484C70.097 44.4804 73.993 45.4283 73.205 48.8424C67.877 60.9344 59.988 60.6103 61.595 54.4483V54.4483ZM48.468 58.9983C44.062 59.0553 47.065 56.8303 48.509 58.7123C48.672 58.7943 48.632 58.9983 48.468 58.9983ZM38.925 64.0364C37.901 66.1254 36.796 68.2133 35.813 69.9743C35.69 70.1793 35.403 70.0154 35.526 69.8104C36.304 68.1724 37.369 66.1253 38.638 63.8723C38.762 63.7083 39.048 63.8314 38.925 64.0364ZM15.254 70.0774C9.34605 69.9674 4.67005 66.8593 3.69005 60.6423C1.22305 47.6493 19.723 38.7453 25.414 51.4373C26.719 55.8353 23.561 60.7433 18.847 59.8873C18.397 59.8463 17.946 60.1334 17.906 60.5834C17.824 61.0344 18.151 61.4433 18.601 61.5253C20.702 61.8833 22.48 61.4124 23.875 60.4384C24.393 61.7044 25.577 62.1853 27.108 62.1553C24.352 66.4733 20.762 69.6354 15.254 70.0774V70.0774ZM45.047 16.6253C44.494 19.8194 40.79 21.8683 38.546 20.5703C38.342 20.4483 38.301 20.1613 38.506 19.9973C40.813 18.6663 41.312 15.4203 40.021 13.9363C37.492 11.1393 33.339 15.9604 35.106 19.1384C35.188 19.3424 35.065 19.5473 34.861 19.5883C31.953 19.9353 26.901 19.4304 25.523 17.6634C29.223 11.6374 47.004 3.99235 45.047 16.6253V16.6253ZM36.704 18.7274C35.397 15.5814 38.851 13.2414 39.12 16.2294C38.901 17.7944 37.613 19.1264 36.704 18.7274ZM93.437 52.2413C100.074 36.8783 110.972 50.5903 93.764 52.6913C93.519 52.6913 93.355 52.4453 93.437 52.2413ZM131.156 41.4293C131.033 41.5933 130.909 41.7573 130.787 41.9203C129.661 41.6523 131.366 40.7423 131.156 41.4293ZM131.729 39.1364C132.63 37.4974 134.432 34.4674 135.906 33.1154C136.07 32.9924 136.357 33.1563 136.275 33.4023C135.455 35.2043 133.531 37.9884 132.589 39.3404C131.826 39.7674 131.706 39.1584 131.729 39.1364V39.1364ZM163.387 45.3194C158.004 38.3104 145.714 49.9283 139.961 52.3643C139.797 51.1353 139.511 48.7194 140.248 46.5084C140.903 44.4194 142.173 44.1733 141.394 43.3533C140.78 42.6573 140.125 43.3124 139.593 44.0914C138.118 46.0154 133.449 52.0363 132.63 52.9783C132.503 53.1413 132.451 53.3303 132.449 53.5163C126.73 57.8593 122.424 65.0414 126.978 49.7434C126.978 49.7024 126.978 49.7024 127.019 49.6614C129.108 46.9994 131.36 43.9683 133.326 41.1833C133.659 40.6803 143.644 41.9433 143.196 40.2413C142.963 38.2983 135.042 40.3654 134.759 39.0954C135.333 38.2344 135.865 37.4154 136.316 36.7194C138.404 33.2794 138.404 32.2554 138.159 31.5994C136.268 29.5024 134.527 32.2884 132.712 34.3854C131.811 35.7364 130.787 37.4154 129.763 39.3404C129.296 39.9044 121.898 38.7043 122.186 40.2413C122.363 42.2593 128.262 40.3073 128.739 41.3883C127.551 43.8463 126.446 46.4674 125.545 48.8424C125.545 48.8834 125.545 48.8834 125.504 48.9244C123.701 51.2584 122.391 52.8553 122.268 52.9783C122.181 53.1633 122.137 53.3213 122.119 53.4623C119.34 57.0703 114.334 61.7324 115.921 57.2374C119.222 51.5334 125.145 36.6433 111.867 46.3033C111.621 46.5483 111.211 46.2623 111.375 45.9333C111.539 45.5653 111.702 45.2374 111.826 44.9514C112.03 44.5414 111.867 44.0503 111.457 43.8463C111.047 43.6813 110.556 43.8463 110.351 44.2553C110.197 44.6073 107.993 48.9883 105.982 52.9693C105.978 52.9723 105.972 52.9743 105.969 52.9783C103.446 57.2343 91.513 63.4293 92.741 54.6163C92.782 54.4523 92.905 54.3713 93.068 54.3713C116.357 52.0193 98.508 31.6253 91.832 52.8323C91.658 52.8713 91.507 52.9523 91.43 53.0603C87.542 57.7353 82.722 61.6484 84.292 57.4524C86.631 51.6914 90.81 47.5264 84.345 45.6474C84.181 45.5654 84.099 45.4014 84.181 45.2374C85.767 37.7694 76.769 42.4234 81.642 46.0974C81.765 46.1804 81.806 46.3854 81.724 46.5084C80.846 48.7654 77.9 51.1783 77.344 53.1563C75.522 54.0873 74.291 57.2783 73.41 57.4423C71.479 59.2643 71.027 59.2254 70.461 58.9174C70.338 58.7124 70.338 58.0564 70.748 56.9514C71.117 56.0094 71.731 54.8623 72.468 53.7563C72.509 53.6753 72.55 53.5523 72.591 53.4703C72.591 53.4293 72.591 53.3884 72.632 53.3474C78.45 46.6284 71.994 40.2523 65.197 45.4763C63.155 47.0283 61.566 49.9303 60.767 52.7913C60.667 52.8593 60.576 52.9463 60.508 53.0603C59.101 55.7743 55.249 60.2303 53.628 58.7943C64.149 51.3733 58.852 37.6894 49.123 46.8354C50.799 44.3124 50.367 42.5464 48.795 43.7224C48.14 45.1154 47.526 46.4264 46.911 47.6544C46.911 47.6954 46.911 47.6954 46.87 47.6954V47.7364C44.029 51.4244 35.712 58.8673 29.509 60.1443C35.928 48.7153 45.077 29.4224 44.69 28.7624C44.321 28.5564 43.829 28.6804 43.584 29.0494C43.052 29.9084 42.56 30.7684 42.069 31.5884C40.062 34.7004 37.4 37.8944 34.164 39.6554C31.257 41.1714 29.25 40.8443 28.677 40.8443C18.269 40.2533 18.898 26.7673 24.049 19.5883C24.171 19.4653 24.294 19.4244 24.458 19.4654C28.349 20.9804 32.117 22.0453 36.13 21.0213C36.212 20.9803 36.335 21.0214 36.417 21.0624C53.061 29.9804 50.055 -9.25865 23.762 17.1724C23.68 17.2944 23.516 17.3354 23.393 17.2944C16.93 14.2394 6.31105 10.8134 2.13805 16.7624C-4.42995 24.1704 5.46705 36.7554 13.834 28.5194C17.295 24.7644 14.785 18.6594 10.001 18.6864C7.59405 20.4184 11.156 20.1704 12.178 20.9984C17.258 25.3024 9.79305 31.8754 5.14505 28.6694C-4.26095 21.5054 6.04805 8.41835 22.451 19.0974C14.259 30.1844 20.335 49.8384 36.99 39.7784C37.236 39.5734 37.604 39.9013 37.482 40.1873C33.851 46.0503 31.657 54.0574 28.195 60.3194C26.968 60.3894 25.859 60.1533 24.936 59.5253C28.043 56.2883 28.343 50.1563 24.625 47.0163C15.389 39.1943 0.909047 46.6983 1.94105 59.5163C2.59705 71.8524 18.001 75.7734 25.219 67.0744C26.072 65.9514 27.183 64.1834 28.439 62.0214C33.062 61.2234 39.643 57.1403 41.915 55.0253C42.038 54.9033 42.242 55.0664 42.16 55.2304C28.043 74.4544 28.966 91.2174 46.706 51.8723C46.706 51.8313 46.747 51.8313 46.747 51.8313C55.705 38.5683 64.536 49.5083 51.13 58.2623H51.007C42.336 51.8743 42.243 63.4604 50.966 60.1044C51.007 60.0634 51.048 60.0634 51.089 60.1044C54.839 61.9424 57.915 59.5263 60.205 56.4903C60.183 60.4113 62.422 62.7413 68.209 58.3433C69.547 58.9263 68.609 59.7074 69.028 59.6944C71.933 62.6074 74.161 59.1423 78.487 54.0443C78.488 54.0443 78.488 54.0444 78.489 54.0434C80.331 51.5864 82.093 49.2514 83.198 47.2444C83.28 47.0814 83.485 47.0403 83.608 47.1223C84.468 47.4493 85.328 47.7773 85.86 48.1453C87.957 47.8283 80.692 59.1093 82.584 59.9403C84.988 62.2663 88.581 58.7633 90.982 56.0803C91.154 62.7553 98.817 61.2093 103.534 57.8043C103.002 58.8533 102.66 59.5223 102.652 59.5313C102.447 59.9403 102.611 60.4313 103.02 60.6373C103.389 60.8423 103.921 60.6783 104.126 60.2673C106.626 55.5343 114.488 42.3283 118.763 45.3093C118.511 50.2453 114.516 54.2773 113.933 58.2313C113.445 64.3773 121.304 58.0003 123.739 54.0323C123.823 54.0723 123.886 54.1643 123.866 54.2893C121.811 65.4633 129.624 59.5493 133.506 54.2883C133.638 54.2373 133.763 54.1654 133.859 54.0434C134.309 53.5114 135.948 51.4633 137.545 49.4153C137.708 49.1693 138.118 49.2923 138.118 49.6203C138.077 51.3403 138.364 52.6504 138.528 54.0844C138.528 54.2074 138.528 54.2893 138.446 54.3713C129.456 61.1323 141.3 66.5143 140.288 55.0663C140.288 54.9443 140.329 54.8623 140.411 54.7803C144.626 51.4523 157.198 41.5714 161.872 45.9743C162.076 46.3443 162.486 46.5483 162.896 46.4263C163.346 46.2623 163.592 45.7294 163.387 45.3194" fill="white"/>
</svg>
