<svg width="200" height="132" viewBox="0 0 200 132" fill="none" xmlns="http://www.w3.org/2000/svg">
<path d="M198.271 107.112C194.949 104.178 191.136 101.238 187.598 98.1215C188.921 95.3178 195.178 81.0234 191.019 81.1028C189.617 80.2617 188.187 81.4206 186.472 82.1636C169.681 90.0714 151.798 95.4113 133.421 98.0047C89.9627 103.229 36.6916 96.8365 4.40192 87.514C-3.65883 83.3645 1.52808 96.8972 3.02808 99.8365C4.36921 102.36 6.65425 104.178 5.29444 107.042C4.01874 111.22 -2.13079 117.033 2.19164 119.042C18.8225 127.453 87.5514 126.285 93.0141 125.958C103.079 126.103 213.734 117.977 198.271 107.112Z" fill="#E8BD3D"/>
<path d="M54.8084 38.4672C54.4859 35.7382 38.3738 17.299 41.1682 24.4111C46.0888 28.5186 50.3691 35.4111 54.8084 38.4672V38.4672Z" fill="black"/>
<path d="M104.126 1.48596C99.3459 -4.06545 101.986 29.7196 103.561 28.0327C104.72 19.771 104.126 10.271 104.126 1.48596V1.48596Z" fill="black"/>
<path d="M167.972 17.0327C160.294 21.7056 145.752 42.1963 148.855 43.4439C152.318 39.5794 154.556 33.757 158.262 29.757" fill="black"/>
<path d="M143.841 57.6074C139.832 53.4018 140.617 62.5607 140.687 64.7943C139.173 66.7663 133.678 69.4672 134.145 64.8504C134.22 61.7616 136.29 60.0467 135.949 57.2009C131.776 53.5327 129.341 65.6121 130.64 67.8551C129.928 68.0015 129.196 68.0221 128.477 67.9158C130.346 60.556 124.22 52.4953 116.794 55.7196C116.794 55.2056 116.897 53.6448 115.986 53.1261C111.023 49.8551 112.748 66.8878 112.15 68.5467C111.313 68.257 110.477 67.8971 109.64 67.514C110.804 59.3831 104.075 49.9766 96.5141 56.4579C96.1777 55.7663 95.701 54.0747 94.3225 54.1214C89.9534 53.8411 95.6636 67.0467 94.8926 68.9953C91.1543 76.1028 88.4207 70.3598 88.1403 65.4906C88.4954 61.5841 87.8412 50.5373 84.6076 58.3971C79.173 57.1542 75.0842 62.8784 75.2618 68.2102C73.6649 68.6379 72.0317 68.9164 70.3833 69.042C69.2618 61.3364 69.944 52.9813 73.3085 45.6401C73.5281 41.785 69.3506 43.3037 68.7618 46.271C65.4907 53.6028 65.6029 61.313 66.4861 68.9626C64.5686 68.6592 62.67 68.2473 60.7992 67.7289C59.6076 63.2336 55.4347 44.542 51.3786 50.4392C50.8412 51.771 51.8926 52.6728 52.3132 54.2429C56.444 63.8971 58.1029 73.1214 57.4534 83.4439C62.6496 90.3364 61.9066 73.3644 61.3599 71.1635C63.1683 71.8679 65.0765 72.2826 67.0141 72.3925C67.7945 76.1308 68.5421 81.0093 71.1076 84.2943C72.1636 86.5373 75.6449 85.5934 74.6076 83.0654C72.8412 80.0654 71.5375 76.056 70.8692 72.3177C72.593 72.1512 74.2941 71.8019 75.944 71.2756C78.2431 75.3598 83.7758 73.3457 85.4674 69.6074C86.9861 73.7616 91.8973 76.7009 95.0094 72.4112C95.2384 76.3691 94.1309 80.4859 93.8926 84.6869C98.43 90.5233 98.5655 78.1682 98.8552 75.6635C102.519 77.4859 107.224 75.0046 108.668 71.2616C109.728 71.8029 110.838 72.241 111.981 72.57C112.206 77.6682 110.692 84.0607 112.514 85.9392C117.682 88.3971 115.07 76.4158 115.846 74.1822C119.43 76.6355 124.491 75.1588 126.911 71.5373C129.21 72.0513 131.584 72.07 133.668 70.9112C135.879 71.7289 138.659 71.1261 140.678 69.6728C140.571 70.7681 140.382 71.8537 140.112 72.9205C129.794 69.1822 116.995 78.7523 126.64 85.9485C141.949 92.2803 147.537 67.514 143.841 57.6074V57.6074ZM84.4487 67.4719C79.0889 78.2663 75.9627 62.514 84.173 61.6168C84.1554 63.3709 84.312 65.1225 84.6403 66.8457C84.5795 67.056 84.5141 67.2663 84.4487 67.4719V67.4719ZM104.827 71.4299C103.561 73.0841 101.346 73.6355 99.8599 72.5607C98.6216 68.9392 103.229 68.6261 105.645 69.8971C105.453 70.4469 105.177 70.9639 104.827 71.4299ZM99.3085 66.1168C99.0759 66.2441 98.8526 66.3878 98.6403 66.5467C98.5072 64.8697 98.2872 63.2008 97.9814 61.5467C101.29 53.813 106.08 60.9158 106.112 65.9672C103.893 65.1542 101.64 64.8271 99.3085 66.1168V66.1168ZM121.028 71.3738C113.706 71.8831 116.117 65.9158 122.953 70.2476C122.406 70.7655 121.748 71.1509 121.028 71.3738ZM124.72 66.8457C122.285 65.9112 119.266 64.9766 116.257 65.556C116.383 63.9018 116.523 62.2383 116.626 60.5841C121.248 55.8878 125.869 61.9906 124.729 66.8457H124.72ZM134.79 81.7102C121.813 87.5841 126.196 71.6214 139.126 75.8785C138.239 78.1809 136.739 80.1974 134.79 81.7102Z" fill="black"/>
<path d="M43.458 71.5094C43.458 71.1543 43.0421 70.7337 42.5889 71.6589C40.9347 73.9486 37.7244 74.1075 35.215 72.7804C36.8319 72.5561 38.6683 70.2944 37.4534 68.5094C35.6449 65.6122 31.3506 67.715 32.3132 71.1449C29.215 70.4019 23.902 67.7944 26.1216 63.6169C26.2337 63.3832 26.1963 63.0234 25.7197 62.743C19.972 66.5328 29.0842 72.7758 33.2805 72.8692C35.9814 75.7991 42.0795 75.5842 43.458 71.5094V71.5094ZM36.715 68.4113C37.8552 70.7477 35.4627 71.4113 33.6917 71.3599C32.4861 69.243 34.5421 67.2757 36.7197 68.4113H36.715Z" fill="#020201"/>
<path d="M170.991 67.1869C169.869 70.4579 166.252 74.986 162.43 74.3131C163.262 72.9346 163.477 70.5 162.033 69.2523C158.561 67.4766 157.075 74.0607 160.631 74.8364C157.037 77.4907 155.229 73.4906 153.453 73.0561C153.724 76.4159 159.407 77.9252 161.64 75.3411C168.603 77.8878 174.766 64.757 170.991 67.1869V67.1869ZM159.654 71.972C159.547 71.2103 160.388 69.5841 161.64 70.1028C162.112 71.3416 162.036 72.7227 161.43 73.9019C160.566 73.4953 159.734 73.0701 159.654 71.972V71.972Z" fill="#020201"/>
<path d="M27.3224 59.4907L26.8177 58.4579C27.9346 57.8318 28.4673 56.3505 25.9533 56.6869C25.6402 55.6916 24.6168 54.8178 23.9813 56.743C23.0467 56.5187 21.3271 57.5234 23.4065 58.3505C23.2824 58.8243 23.2335 59.3147 23.2617 59.8037C23.4018 61.1355 24.4766 60.3879 25.4252 59.5514C25.7243 59.9019 27.4346 60.9206 27.3224 59.4907Z" fill="#020201"/>
<path d="M176.168 57.9159C175.586 58.4268 175.009 58.9439 174.439 59.4673C173.612 58.8318 171.967 58.9252 173.121 60.715L172.677 61.1542C172.388 61.2056 172.21 61.2337 172.056 61.771C171.799 61.986 171.874 62.4673 172.467 62.4393C173.035 62.5112 173.61 62.5112 174.177 62.4393C174.934 63.472 176.551 65.4953 176.659 62.1822C177.883 62.3131 180.14 61.014 176.902 60.4346C176.883 59.9439 177.878 57.3131 176.168 57.9159Z" fill="#020201"/>
<path d="M79.9065 21.6168C79.6543 21.3467 79.3703 21.1082 79.0607 20.9066C82.285 10.6262 66.6401 6.42058 67.6261 9.19629C73.6214 10.2383 79.3411 13.7524 78.2616 20.4673C76.7242 19.6355 73.4906 19.8832 73.8457 22.2851C73.8177 25.3739 78.1541 24.6682 78.5887 22.0374C80.9485 23.9066 80.4906 27.4486 79.285 30.0281C81.9579 29.8411 81.8971 23.2337 79.9065 21.6168V21.6168ZM76.028 23.4066C75.614 23.4801 75.1929 23.3216 74.93 22.9935C74.667 22.6653 74.6043 22.2198 74.7663 21.8318C75.6168 20.8271 76.7663 20.8972 77.7803 21.4767C77.3878 22.3225 77.1027 23.2991 76.0093 23.4066H76.028Z" fill="#020201"/>
<path d="M136.958 5.71497C130.841 5.78973 125.967 11.5514 126.126 17.8271C122.294 18.8131 120.654 25.5467 123.093 28.1075C123.135 25.0234 122.355 20.3224 126.364 18.8224C126.484 19.1331 126.663 19.4173 126.892 19.6589C126.537 22.7523 131.248 24.986 131.864 21.0935C132.257 18.6542 129.528 17.4533 127.191 17.6309C128.037 5.88319 138.603 7.50001 136.958 5.71497V5.71497ZM127.934 18.5047C129.252 18.4626 130.561 18.972 131.061 20.1168C131.458 22.9206 127.995 22.5654 127.888 19.9907C127.949 19.9037 127.949 19.7879 127.888 19.7009C127.879 19.3016 127.894 18.9021 127.934 18.5047V18.5047Z" fill="#020201"/>
<path d="M145.93 2.85516C145.033 2.64488 144.131 2.46731 143.22 2.34582C143.322 1.19628 141.949 0.0981535 141.668 2.18694C140.925 2.13322 140.178 2.13322 139.435 2.18694C137.804 2.73834 139.818 4.01871 140.808 4.89722C139.79 7.0047 139.575 9.10283 142.738 6.4346C143.378 7.28974 145.075 7.30843 144.093 5.50002C144.505 4.986 147.402 3.94395 145.93 2.85516V2.85516Z" fill="#020201"/>
<path d="M66.2896 4.85051C65.626 4.7477 64.9625 4.65892 64.2989 4.58415C64.0559 2.77574 62.9391 1.68228 62.0559 4.38789C59.9298 4.0748 58.4858 4.66826 60.9485 6.83649C60.3316 7.68695 60.0606 9.99069 62.3503 8.23836C62.7242 8.38789 63.8176 10.2056 64.4905 9.11219C65.1073 8.89723 64.8737 7.88789 64.7569 6.92527C65.1401 6.66826 67.7569 5.81312 66.2896 4.85051V4.85051Z" fill="#020201"/>
<path d="M192.154 107.369C190.103 102.098 185.29 102.159 179.855 101.294C179.817 100.952 179.759 100.612 179.682 100.276C180.351 95.7289 174.229 95.6027 174.963 99.5747C174.701 101.364 176.084 102.631 177.766 103.509C172.537 123.369 166.126 108.023 169.224 97.2009C172.851 96.8784 192.907 91.0794 182.495 88.5607C178.565 90.2523 174.435 91.9999 170.159 92.8177C174.15 78.0887 166.622 84.7523 165.523 93.5794C161.29 94.2055 156.715 93.8831 152.164 93.7289C151.051 93.8971 149.664 93.542 149.206 94.9579C149.065 99.4672 163.215 97.785 164.953 97.8037C164.542 101.799 163.757 107.173 165.701 111.224C157.43 122.439 161.262 110.192 161.36 105.107C159.056 98.5186 153.953 104.71 152.65 108.378C152.159 98.8784 147.299 102.514 148.444 109.36C147.322 113.378 142.453 118.135 139.883 113.472C143.22 113.14 146.724 110.561 146.154 106.888C144.061 98.6495 135.201 105.224 135.5 110.818C134.07 111.248 134.598 114.388 133.664 116.117C132.575 118.519 130.706 116.827 131.252 114.341C130.958 111.575 138.042 102.724 132.832 103.449C130.879 103.981 128.542 104.85 126.196 105.364C126.023 104.659 125.64 103.257 124.486 103.028C121.654 102.36 120.551 107.402 124.234 107.374C123.654 111.206 123.238 113.701 121.542 117.435C117.523 120.238 123.201 99.8037 118.397 103.692C113.64 99.1168 107.229 107.089 107.182 112.28L106.851 112.201C107.785 107.061 102.561 100.64 97.2337 103.696C90.7197 94.1635 95.9299 115.846 95.1309 118.014C84.5141 115.584 93.5982 91.1214 91.8598 87.8177C87.5421 84.7663 86.5141 101.542 86.3412 103.019C82.6729 102.649 75.6589 111.023 78.8365 115.075C78.1402 116.72 75.0982 118.668 74.5561 116.112C74.4673 112.439 76.8038 109.57 77.1215 105.804C77.8038 98.7383 70.3879 100.294 68.3458 104.612C68.5514 102.678 66.5655 100.836 65.3458 103.107C65.1589 103.734 65.0047 104.378 64.8785 105.033C64.5234 106.519 62.4907 116.785 61.1683 113.659C59.2991 111.192 65.0187 92.3598 58.7664 99.813C52.6916 97.6168 45.729 112.374 50.7617 115.439C47.5561 120.397 41.6589 119.645 42.7337 113.654C43.3505 109.416 54.687 98.5093 48 98.7756C44.9907 99.9345 41.9253 101.355 38.6542 101.935C36.1449 102.023 37.4346 104.598 36.7337 106.271C35.3318 109.397 33.4627 111.201 30.8972 113.201C30.2524 97.0046 29.7944 103.481 20.0374 100.813C14.1122 104.734 24.7664 107.079 27.7243 104.963C31.6028 118.406 18.7571 120.21 13.9159 112.285C8.73369 101.649 15 81.9626 29.243 87.3644C30.7898 87.2523 31.3552 85.1682 29.9767 83.813C6.29911 74.771 -0.527996 110.785 13.7991 119.159C18.9393 122.547 26.972 121.939 29.9299 116.037C34.715 115.766 39.743 107.822 39.9206 104.678L40.1542 104.748C40.1963 104.635 40.243 104.523 40.2757 104.406C41.2572 104.486 42.245 104.428 43.2103 104.234C32.229 117.346 44.6122 128.322 52.9393 116.098C54.5982 116.061 56.2103 114.86 57.3178 113.131C57.986 117.07 61.8505 120.35 64.0748 115.808C64.486 117.935 68.1309 117.678 68.2243 115.187C68.2991 113.061 68.4673 110.855 68.4813 108.645C68.9486 106.64 69.7757 104.818 71.5514 103.827C72.3318 103.206 73.0141 103.36 73.6028 104.294C73.4964 104.761 73.359 105.22 73.1916 105.668C66.3552 119.486 75.8692 122.729 80.0234 115.981C82.5281 116.874 85.4673 115.093 86.944 112.757C88.0608 116.757 90.6169 120.495 94.8598 120.963C94.7384 123.878 93.3318 127.075 93.2103 130.346C97.243 135.486 98.5514 123.178 98.8692 121C102.22 121.304 104.841 118.547 106.084 115.21C106.463 115.304 106.827 115.42 107.192 115.547C108.089 120.724 114.575 120.173 116.935 116.308C121.678 126.953 125.379 111.808 126.182 107.383C127.291 107.375 128.397 107.296 129.495 107.145C122.537 119.22 134.603 124.963 136.551 115.014C139.822 119.617 146.056 117.649 148.565 113.575C147.977 117.528 151.542 121.22 153.079 116.547C153.622 113.944 154.117 110.836 155.248 108.336C155.776 107.192 157.14 104.766 157.888 104.799C157.818 107.528 155.916 110.266 156.084 113.252C156.397 122.43 164.374 117.981 166.958 113.051C173.967 119.444 178.846 110.388 179.78 104.336C182.608 104.748 192.664 108.248 186.36 111.29C184.215 111.505 181.435 109.421 180.752 112.463C181.701 118.551 195.425 114.528 192.154 107.369V107.369ZM56.9533 108.075C56.505 109.6 55.8677 111.063 55.0561 112.43C54.486 113.511 53.5405 113.744 52.2197 113.131C52.0888 112.57 52.1081 111.985 52.2757 111.435C52.9299 108.85 54.9159 104.986 57.5234 103.364C57.2081 104.917 57.0174 106.492 56.9533 108.075V108.075ZM85.458 110.374C79.0047 118.995 81.6355 107.935 86.187 106.477C86.187 107 86.2103 107.528 86.2384 108.051C86.0652 108.852 85.8035 109.631 85.458 110.374ZM99.0982 118L99.1402 117.005C99.7617 115.864 101.159 115.266 102.584 115.042C101.911 116.589 100.734 117.827 99.0982 118ZM103.271 112.005C101.766 112.266 100.771 112.36 99.1776 113.463C99.1485 111.337 98.9011 109.22 98.4393 107.145C101.374 104.491 103.561 109.28 103.271 112.005V112.005ZM116.444 112.5C108.43 124.304 109.766 107.902 117.173 106C116.883 108.168 116.608 110.332 116.425 112.5H116.444ZM140.407 108.486C140.729 107.975 141.15 107.533 141.645 107.187C141.816 106.954 142.102 106.836 142.388 106.878C143.154 107.19 143.631 107.96 143.57 108.785C143.234 110.35 141.388 110.897 139.523 111.075C139.586 110.152 139.883 109.261 140.388 108.486H140.407ZM178.234 100.771C177.299 100.364 176.579 99.799 176.365 98.9859C177.28 97.1308 178.584 99.0981 178.215 100.771H178.234Z" fill="black"/>
</svg>
