<svg width="200" height="123" viewBox="0 0 200 123" fill="none" xmlns="http://www.w3.org/2000/svg">
<g clip-path="url(#clip0_1_3611)">
<path d="M38.7246 60.8258C52.1665 61.0303 60.6943 45.9268 65.472 34.9293C66.717 31.5379 61.9695 29.0026 59.9771 32.4041C59.3483 34.2702 59.3559 35.8611 57.7624 37.4546C55.217 40.2803 51.8129 41.3864 47.8811 40.8258C34.8432 38.8056 43.722 13.9899 53.5882 9.0076C65.4039 1.73487 76.8836 15.5278 57.4645 21.8485C51.9468 32.9773 79.8129 21.5 70.0276 8.73487C66.7902 5.12881 59.8483 5.17932 54.9619 6.15154C45.4392 7.7576 38.7372 16.1263 36.2119 25.1919C31.5958 43.2399 47.265 49.2576 58.3584 39.0177C55.4569 47.9697 49.1715 59.1137 38.2978 58.7374C30.116 59.0253 26.7801 49.7096 34.0857 44.6566C37.116 40.5354 31.2624 37.543 28.6286 41.5303C21.9417 50.4899 27.1791 61.1717 38.7246 60.8258V60.8258Z" fill="#44338B"/>
<path d="M69.9493 35.3965C69.316 36.8514 68.6028 38.2702 67.813 39.6465C67.9468 42.2626 70.5302 37.1742 71.2221 35.8586C73.2145 36.5152 75.616 36.6742 77.9493 36.3636C75.2524 53.1566 82.4494 53.9975 89.0554 42.4242C88.9468 50.6162 94.4999 54.9116 99.914 44.096C99.8509 47.2803 101.957 51.8308 106.518 50.9141V50.8712H106.73L106.816 50.8283C108.194 50.6818 109.954 48.9748 110.818 47.5909C110.841 47.6212 111.116 47.1768 111.51 46.4722L111.336 47.101C109.795 51.2626 116.161 53.5354 117.091 48.4849L117.134 48.4419C118.507 44.5833 122.649 33.9621 128.72 31.6616C128.639 34.8308 122.659 47.2222 127.141 50.5732C129.275 51.8586 131.803 50.7248 133.679 48.904C134.184 48.7323 137.358 44.4621 139.144 41.3283C138.869 45.7071 139.869 50.4773 144.563 50.452L144.649 50.4091C148.437 49.9293 151.624 43.9015 153.848 39.25C153.512 49.1641 160.366 56.7828 167.05 44.702C167.487 44.0227 170.813 35.798 167.303 38.3889V38.4318C166.111 41.0707 163.677 47.1414 159.808 47.1212L159.679 46.9924L159.593 46.8207C158.124 43.4066 158.965 39.2222 159.167 35.1515C163.04 27.7719 166.235 20.0559 168.712 12.0985C173.293 0.482328 158.959 -0.101006 154.798 28.0303C154.711 27.8938 154.611 27.7661 154.5 27.649C150.222 22.6288 142.126 29.7273 140.444 35.101C140.057 36.0752 139.766 37.0851 139.576 38.1162H139.55H139.507C138.735 39.1667 132.3 47.4924 130.328 46.197C131.124 40.8561 141.661 27.2576 131.715 24.6465C131.347 24.5989 130.976 24.5845 130.606 24.6035C124.588 24.8561 120.972 34.3864 118.596 40.1919C118.596 40.1919 120.75 28.4091 120.808 28.0707C120.962 24.7879 116.977 25.399 116.821 27.2753C116.596 28.0833 115.131 33.4015 113.755 38.3864C113.648 38.4306 113.544 38.4804 113.442 38.5354V38.5783C113.032 39.3568 112.576 40.1106 112.078 40.8359C110.692 42.8838 109.098 46.0429 106.371 47.2677H106.159L106.03 47.2248C105.828 47.2248 105.303 47.1768 105.05 46.7551C104.134 43.2197 106.24 39.7626 107.083 36.0227C107.235 32.7626 102.326 31.9293 101.217 35.0859V35.1717C101.01 36.6162 96.9822 48.4646 93.2827 47.3232L93.0706 47.1515C90.4872 44.3434 97.2928 25.6364 102.611 31.7778L102.654 31.8611C104.644 34.0354 108.485 32.1515 107.598 29.0606C104.725 23.7374 97.5175 23.9899 94.0074 28.8384C91.695 31.8412 90.1152 35.3423 89.3938 39.0631C87.3382 42.2929 85.5327 46.6389 81.5276 48.0051L81.3584 47.9621L81.2297 47.8763C79.4367 45.5278 81.4014 38.4621 83.7423 35.4444C86.861 33.0505 87.2776 28.8157 82.7322 29.0227C79.515 29.8636 76.419 31.1136 73.01 30.9242C75.5049 20.3081 57.7044 27.8636 69.9493 35.3965V35.3965ZM163.03 16.2525C164.177 13.4015 164.709 9.58586 167.141 7.20202L167.184 7.1591H167.227L167.27 7.11617H167.313V7.07071L167.356 7.02778L167.525 7.1995C167.977 8.66162 167.684 10.2298 167.141 12.0126C165.612 16.7364 163.464 21.2369 160.752 25.3965C161.437 22.5227 162.106 19.3485 163.025 16.2525H163.03ZM151.894 29.6061H152.235C153.111 29.8712 153.684 31.0985 154.237 32.1162C154.237 32.7121 154.007 33.5808 154.025 34.6414C153.954 35.1058 153.925 35.5758 153.939 36.0455C153.874 36.101 153.078 37.6338 153 37.75C151.682 39.7702 148.581 46.1717 144.568 47.4167L144.485 47.3763H144.313L143.972 47.2045L143.8 47.0354C142.187 42.9293 146.278 31.5657 151.889 29.6061H151.894ZM71.6084 27.7298C72.1817 28.5505 72.0175 29.4394 71.7802 30.7121C70.8029 30.399 69.318 29.8662 68.8408 28.5404L68.8837 28.2879C68.9973 28.0152 69.1362 27.6465 69.8635 27.4773L69.9493 27.4343H70.0756V27.3914C70.5226 27.3586 71.1286 27.2424 71.6034 27.7298H71.6084Z" fill="#44338B"/>
<path d="M177.295 89.2323L172.826 94.8561C172.957 92.8359 172.684 90.9546 171.972 88.7222C171.841 88.465 171.74 88.1928 171.674 87.9116L171.631 87.8712C171.025 85.7046 171.03 83.1061 172.356 80.8434H172.399V80.8864C174.449 76.904 168.922 73.9419 166.692 77.649C166.561 78.0328 166.305 78.4899 166.136 79.053C164.639 82.0202 162.482 85.9015 160.727 88.9773L160.641 89.0631C160.052 89.9882 159.625 91.0071 159.379 92.0758C154.46 101.747 148.952 100.157 150.086 86.6793L150.129 86.6364C152.376 82.1288 154.634 77.5455 156.518 72.5379L172.778 72.0328C174.507 71.803 176.765 72.5379 176.002 70.7702C175.295 70.394 175.457 70.644 174.629 70.548L157.497 69.9823C157.914 67.5152 163.995 56.851 158.348 55.798L158.305 55.7548C152.934 55.697 149.129 64.9293 147.745 69.6439C146.775 69.8965 129.058 68.3636 129.109 69.7929C126.987 73.9445 131.548 73.4419 134.601 73.2576L146.805 72.8384C145.187 78.8738 144.616 84.6061 144.919 89.3687C143.816 90.8384 137.742 98.5707 135.828 97.3283C136.621 91.9849 147.162 78.3889 137.215 75.7778C136.847 75.7302 136.476 75.7159 136.106 75.7349C130.088 76 126.472 85.5152 124.096 91.3232C124.096 91.3232 126.187 79.8788 126.303 79.202C126.571 76.1338 122.601 76.303 122.318 78.3838C122.098 79.1894 120.654 84.4318 119.288 89.3864L119.217 89.4167C117.045 91.5808 114.891 93.4571 112.048 95.1338C106.715 98.3939 98.2954 99.1566 98.6641 89.9066C108.048 101.5 121.616 79.3359 107.783 76.9015C102.427 76.995 97.9115 81.9091 95.6615 86.9293C95.2402 87.8635 94.8932 88.8295 94.6237 89.8182C92.4671 93.0732 90.6792 97.702 86.5277 99.1061L86.3585 99.0631L86.2297 98.9798C84.4393 96.6288 86.4014 89.5657 88.7423 86.548C91.861 84.1541 92.2777 79.9167 87.7322 80.1263C84.5125 80.9672 81.4191 82.2147 78.0075 82.0278C80.5075 71.4091 62.7019 78.9672 74.9418 86.5C74.5151 87.4773 74.0378 88.495 73.4469 89.6111L73.3661 89.6515V89.6945C72.9554 90.4726 72.5001 91.2264 72.0024 91.952C70.6136 93.9975 69.0227 97.1591 66.2954 98.3838H66.0833L65.9545 98.3409C65.7524 98.3409 65.2272 98.2929 64.9747 97.8712C64.0555 94.3359 66.1641 90.8763 67.0075 87.1389C67.159 83.8788 62.2499 83.0455 61.1413 86.202V86.2879C60.9519 87.7071 56.9191 99.5682 53.2196 98.4268L53.0075 98.2551C50.4242 95.4445 57.2297 76.7399 62.5479 82.8788L62.5908 82.9647C64.5807 85.1389 68.4216 83.2551 67.5353 80.1642C64.505 74.6894 57.2272 75.1136 53.6464 80.3005C51.5315 83.1649 50.0665 86.456 49.3535 89.9445C47.7474 92.2803 45.8383 94.8384 43.3408 96.2955C53.3434 84.3738 42.207 65.4672 31.1186 87.8207C31.6237 84.7702 32.5656 81.4899 32.6161 78.1616C32.0631 75.1313 27.9494 75.5758 27.4898 78.1414C26.1742 83.6768 25.2171 88.2424 23.9545 93.5278C20.8838 100.851 15.909 107.7 14.3282 115.932C12.5025 121.874 15.7929 125.71 21.0959 119.674C25.5858 114.336 28.8939 97.2172 30.1868 92.25C31.6186 90.0076 36.2853 81.3636 40.6211 80.7929V80.8359C40.707 80.8359 40.5934 80.8232 40.9191 80.8788C45.3383 82.3939 38.01 102.886 32.6969 98.3838C32.1464 98.3308 31.3686 93.2147 30.606 96.1465C30.5504 107.167 43.7019 99.1187 48.9848 93.1162C48.6868 101.583 54.3888 106.159 59.8711 95.1869C59.808 98.3712 61.9141 102.919 66.4747 102.005V101.965H66.6868L66.7727 101.922C68.1514 101.773 69.9115 100.066 70.7752 98.6844C70.856 98.798 74.6691 91.9823 74.5631 89.9621C75.2373 88.8939 75.9216 87.5581 76.2297 86.9697C78.2221 87.6263 80.6262 87.7879 82.9595 87.4748C80.2575 104.268 87.4696 105.096 94.0706 93.4823C93.8661 103.836 106.116 108.104 118.417 92.5404L116.861 98.1844C115.308 102.371 121.677 104.631 122.603 99.5707L122.646 99.5278C124.02 95.6692 128.162 85.048 134.232 82.7475C134.149 85.9167 128.172 98.3056 132.654 101.657C134.785 102.944 137.313 101.811 139.192 99.9899C139.745 99.8005 143.485 94.7046 145.119 91.5505C146.311 100.702 151.111 105.25 158.018 99.2727C158.27 99.2374 158.846 98.3864 159.495 97.1919C160.598 100.793 163.977 103.194 169.515 100.573C172.313 98.4445 172.225 97.1793 176.013 92.8738C177.677 90.9091 179.843 88.4672 177.295 89.2323V89.2323ZM155.129 63.9344C155.912 62.1869 156.465 59.702 158.258 58.3106H158.3V58.2702H158.386L158.429 58.2273V58.1844H158.513C159.879 60.7349 156.581 67.5278 155.576 69.8965L153.146 69.8535C153.699 67.846 154.361 65.87 155.129 63.9344ZM152.424 72.6642L154.212 72.6238C153.662 73.5758 153.02 74.6844 152.295 75.8586C152.009 76.3131 151.711 76.7677 151.401 77.2222C151.624 75.8561 152.05 74.3182 152.424 72.6642V72.6642ZM101.263 82.6313C111.644 73.7753 109.288 94.7904 98.7929 88.3813C99.0984 86.3182 99.7474 84.447 101.263 82.6313ZM21.0631 107.126C19.9848 111.104 19.0631 117.157 16.1211 120.288H16.0807L16.0378 120.331L16.0807 120.374V120.417H15.9949C13.9545 117.26 19.0908 107.129 21.7449 104.146C21.6136 104.563 21.2525 106.313 21.0706 107.121L21.0631 107.126ZM76.7802 81.8182C75.803 81.5051 74.3181 80.9722 73.8408 79.6465L73.8838 79.3939C73.9974 79.1237 74.1363 78.7551 74.8636 78.5859L74.9494 78.5429H75.0782V78.5C75.5277 78.4697 76.1338 78.3535 76.6085 78.8409C77.1817 79.6616 77.0201 80.5556 76.7802 81.8182V81.8182ZM168.447 95.8308C168.151 99.0934 160.348 100.571 161.447 92.9344C161.889 91.745 162.204 90.649 162.204 89.9217C163.066 87.5488 164.156 85.2654 165.46 83.1035C165.445 85.4312 166.001 87.7269 167.078 89.7904L167.121 89.8333V89.8738C167.909 91.5354 168.874 93.6137 168.434 95.8359L168.447 95.8308Z" fill="#44338B"/>
<path d="M4.20449 8.9142C8.28529 6.64147 13.6565 9.84602 13.9696 10.0354C15.3156 -9.50752 40.9898 2.28036 26.6969 21.591C24.3307 25.8233 24.8333 29.0632 24.8408 29.4698C19.9015 25.4748 12.2828 27.9698 7.37368 25.7576C-0.532888 22.6516 -2.83339 13.096 4.20449 8.9142V8.9142Z" fill="#E46482"/>
<path d="M184.889 58.9571C187.952 59.447 189.434 63.3258 189.52 63.5556C198.651 53.8486 206.502 70.9243 191.311 74.8511C188.424 76.0809 187.371 77.9268 187.204 78.1516C186.55 74.4647 181.179 72.0127 179.629 69.0607C176.768 64.2981 179.48 58.2299 184.889 58.9571V58.9571Z" fill="#E46482"/>
</g>
<defs>
<clipPath id="clip0_1_3611">
<rect width="200" height="123" fill="white"/>
</clipPath>
</defs>
</svg>
