<svg width="200" height="60" viewBox="0 0 200 60" fill="none" xmlns="http://www.w3.org/2000/svg">
<g clip-path="url(#clip0_1_4370)">
<path fill-rule="evenodd" clip-rule="evenodd" d="M4.26905 24.6102C4.42749 24.6084 4.49365 24.6199 4.81453 24.5108C5.32167 24.3348 5.57506 23.9602 5.57506 23.3867V12.5554H12.5203V23.3867V23.7007C12.8715 24.4532 13.3875 24.7652 14.2397 24.5442C14.7577 24.2796 15.0172 23.9434 15.0172 23.5354V1.24543C15.0172 1.12417 14.9844 1.00291 14.9179 0.881464C13.6441 -0.926162 12.2258 1.00863 12.5205 1.68146C12.5203 3.13675 12.5203 10.2952 12.5203 10.3068H5.57506V1.42751C5.57506 1.3501 5.56438 1.2235 5.54246 1.04676C5.20194 0.0839427 3.89899 -0.194227 3.209 0.750292C2.85494 1.71063 3.17983 3.47212 3.0782 7.83189C3.0784 13.2788 3.0784 20.4662 3.0784 22.7858C3.12053 23.6916 2.98688 22.8769 3.14455 23.8828C3.41967 24.368 3.79508 24.6102 4.26905 24.6102Z" fill="white"/>
<path fill-rule="evenodd" clip-rule="evenodd" d="M21.5818 7.36345C22.3867 11.1892 22.7997 13.1341 22.8208 13.2008H20.3579C20.8651 10.7648 21.2733 8.81893 21.5818 7.36345ZM16.8691 24.6102C17.2656 24.6327 17.7335 24.4508 18.0763 23.9322C18.1532 23.6241 18.7545 20.7962 19.8784 15.4494H23.2851C23.7919 17.8635 24.0458 19.0769 24.0458 19.0874C24.6626 22.0529 25.0098 23.6622 25.0872 23.9156C25.4546 24.4906 25.9551 24.749 26.7244 24.5442C27.1787 24.2994 27.5238 23.9188 27.4851 23.4361C27.4998 23.4449 22.899 1.65534 22.8052 1.12951C22.5375 0.0317031 20.9823 -0.131119 20.4077 0.96421C18.9943 8.32989 16.1856 19.5663 15.7444 23.8828C16.0199 24.368 16.3951 24.6102 16.8691 24.6102" fill="white"/>
<path fill-rule="evenodd" clip-rule="evenodd" d="M30.6431 2.63418C31.9028 2.34438 34.3349 2.17164 35.7861 3.21283C35.9513 3.32341 36.2212 3.56611 36.5966 3.94095C37.6798 5.16345 37.8128 6.61092 37.1919 8.12417C37.0592 8.46602 36.7892 8.86278 36.3814 9.31483C35.9293 9.70091 35.5985 9.93752 35.3892 10.0262C34.2624 10.6794 31.7593 10.442 30.6431 10.2243V2.63418ZM29.3371 24.6102C29.4958 24.6084 29.5619 24.6199 29.8826 24.511C30.39 24.3348 30.6431 23.9602 30.6431 23.3869V12.6222C31.4988 12.7537 35.3261 12.8992 36.5465 12.0102C36.9438 11.834 37.4338 11.4975 38.0186 11.0016C38.3713 10.682 38.6411 10.3842 38.8287 10.1089C40.2064 8.15696 40.5011 5.72512 39.2752 3.54419C39.066 3.14686 38.7019 2.68947 38.1839 2.17145C36.7162 0.732177 34.6155 0.0378015 32.76 0.170881C31.5366 0.126839 30.6491 0.198145 30.0979 0.385561C29.7884 0.186705 29.2826 0.0948082 28.7913 0.319403C28.3619 0.550862 28.1465 0.859536 28.1465 1.24543V23.5354C28.1465 23.613 28.1686 23.7282 28.2125 23.8828C28.488 24.3682 28.8632 24.6102 29.3371 24.6102V24.6102Z" fill="white"/>
<path fill-rule="evenodd" clip-rule="evenodd" d="M43.1939 2.63418C44.4534 2.34438 46.8854 2.17164 48.3367 3.21283C48.5018 3.32341 48.7718 3.56611 49.1472 3.94095C50.2303 5.16345 50.3634 6.61092 49.7424 8.12417C49.6097 8.46602 49.3397 8.86278 48.9319 9.31483C48.4799 9.70091 48.1491 9.93752 47.9399 10.0262C46.8129 10.6794 44.31 10.442 43.1939 10.2243V2.63418ZM41.8877 24.6102C42.0463 24.6084 42.1125 24.6199 42.4332 24.511C42.9405 24.3348 43.1939 23.9602 43.1939 23.3869V12.6222C44.0494 12.7537 47.8766 12.899 49.0972 12.0102C49.4945 11.834 49.9843 11.4975 50.5691 11.0016C50.9218 10.682 51.1918 10.3842 51.3792 10.1089C52.7569 8.15696 53.0516 5.72512 51.8257 3.54419C51.6166 3.14686 51.2524 2.68947 50.7344 2.17145C49.2667 0.732177 47.1662 0.0378015 45.3106 0.170881C44.0871 0.126839 43.1998 0.198145 42.6486 0.385561C42.3392 0.186705 41.8332 0.0948082 41.3418 0.319403C40.9125 0.550862 40.697 0.859536 40.697 1.24543V23.5354C40.697 23.613 40.7193 23.7282 40.7632 23.8828C41.0385 24.3682 41.4137 24.6102 41.8877 24.6102V24.6102Z" fill="white"/>
<path fill-rule="evenodd" clip-rule="evenodd" d="M58.0099 11.5968V23.486C58.0099 23.5962 58.0267 23.6954 58.0599 23.7835C58.2566 24.4185 58.9554 24.798 59.6967 24.5274C60.2366 24.3736 60.5071 24.0094 60.5071 23.4361V11.6134C61.0803 10.1116 65.1014 2.28242 65.1699 1.09672C64.9285 0.295765 63.9651 -0.0165322 63.3018 0.30282C61.5712 2.63895 59.9773 7.33828 59.2505 8.50473L55.6459 0.914831C55.3272 0.286042 54.8118 0.0330388 54.0086 0.236852C53.4805 0.518835 53.1846 0.949721 53.2477 1.49348C53.164 1.35697 58.1054 11.7665 58.0099 11.5968" fill="white"/>
<path fill-rule="evenodd" clip-rule="evenodd" d="M6.03666 54.7305C4.01988 60.7684 0.640476 58.2022 1.59815 56.2536C2.78004 54.7059 5.08814 54.3398 6.68681 53.0961C6.46431 53.7152 6.24715 54.2601 6.03666 54.7305V54.7305ZM149.616 38.3503C151.049 35.185 153.143 31.2353 155.188 30.9959C157.932 32.8775 151.551 38.8931 149.319 39.0931C149.393 38.87 149.492 38.6227 149.616 38.3503V38.3503ZM199.853 36.6416C199.762 36.2111 198.926 35.806 198.645 36.4931C197.723 38.2845 196.32 40.1919 194.857 41.8788C195.747 37.9368 193.578 34.1196 190.92 30.9959L191.031 30.7728C195.331 23.6735 184.162 25.9293 188.208 32.2584C187.631 33.5227 186.88 34.7112 186.207 36.1438C186.161 36.1995 186.121 36.2641 186.091 36.3442C185.062 38.9968 179.955 47.0182 178.681 46.0233C177.877 44.0777 181.465 38.1257 181.831 36.9537C183.61 33.1312 185.604 29.198 187.094 25.4239C190.919 25.2317 195.548 24.9116 198.126 22.9722C199.239 22.2828 197.234 19.9564 196.974 21.5983C196.269 23.6014 188.978 23.2145 187.873 23.2327C188.16 22.1682 188.609 20.83 188.32 19.8155C187.989 17.6138 184.026 17.5676 184.159 18.8496C184.384 19.8536 183.585 21.4018 183.119 22.8611C165.073 20.3396 172.058 31.602 172.384 27.9127C172.732 24.8216 180.413 25.5869 182.079 25.4239C180.503 29.1991 178.579 33.5614 177.092 37.4738C176.642 38.8277 169.577 49.9278 169.793 44.8441C170.972 41.1326 173.543 37.9966 173.834 34.1158C174.117 31.9617 173.552 29.5148 171.233 29.5097C168.903 29.6902 167.095 31.8582 165.513 33.5961C166.852 28.5783 161.088 29.0958 161.428 30.3642C161.921 31.9772 160.244 34.3991 159.619 36.1818C159.571 36.2512 159.499 36.4309 159.383 36.7103C159.309 36.875 159.234 37.0412 159.158 37.2098C155.816 44.4571 146.277 51.4704 148.836 40.5789C152.165 39.7068 155.213 37.2952 156.673 34.2269C159.127 28.5574 153.506 28.6578 150.332 30.7436C147.701 32.5095 146.297 34.9074 145.072 37.9635C143.378 40.8214 141.059 44.9303 138.807 46.1135C135.807 46.5253 143.82 35.1145 143.363 33.4037C144.081 29.4062 141.021 28.7009 138.252 30.5326C137.59 30.6658 136.658 30.8153 135.947 30.4386C136.117 29.8733 136.209 28.3976 136.207 27.6897C134.596 22.063 128.986 28.8695 134.052 31.4788C133.634 32.9043 132.847 34.6285 132.231 36.1532C132.188 36.2071 132.15 36.2685 132.121 36.3442C130.647 39.7406 127.092 45.2245 125.101 46.1135C121.802 46.3947 131.751 33.6264 129.561 31.1146C129.19 29.1594 125.357 29.0904 125.473 30.3642C125.917 32.4046 123.952 34.8668 123.281 36.9758C121.787 39.6857 118.841 46.9936 116.521 46.1503C112.569 43.8462 119.503 30.7459 122.093 30.9959C122.365 30.9959 122.563 31.144 122.687 31.4412C121.308 32.2965 122.67 34.324 124.024 33.1875C125.244 31.4967 123.479 29.4104 121.498 29.4359C116.939 29.2923 113.864 33.3225 112.202 37.3976C109.952 41.1291 106.799 45.6365 102.852 46.4845C106.969 43.4279 111.742 32.4815 105.638 29.9556C102.832 28.7915 100.655 30.2868 98.8033 32.4439C98.8525 31.9242 98.8409 31.5282 98.7663 31.2557C98.4407 29.038 94.4738 29.0159 94.6064 30.2899C94.7505 32.5267 92.9446 35.3976 92.0674 37.8948C90.3716 40.8067 87.8351 45.1459 85.7661 46.1135C82.438 45.3392 98.6449 20.7654 94.4458 18.7457C93.8439 17.7982 90.682 17.6918 90.8546 18.8496C89.8933 24.8288 85.8738 31.2046 83.8712 37.1615C82.4824 39.8363 79.439 47.0533 77.2227 46.1503C73.2706 43.8466 80.2046 30.7457 82.7942 30.9959C83.0666 30.9959 83.2647 31.144 83.3882 31.4412C81.9614 32.3339 83.4698 34.3659 84.7627 33.1499C85.8933 31.4004 84.1696 29.4313 82.2001 29.4359C77.4738 29.3068 74.4073 33.5429 72.749 37.7789C72.2574 39.2205 65.0693 50.1585 65.6607 44.6252C66.9005 41.0536 69.3478 37.9042 69.6458 34.1158C69.9288 31.9617 69.3642 29.5148 67.0456 29.5097C64.7148 29.6902 62.9072 31.8582 61.3255 33.5961C62.6635 28.5778 56.8994 29.0962 57.2399 30.3642C57.7335 31.9785 56.0552 34.4012 55.4298 36.185C55.3976 36.2319 55.3682 36.2834 55.3455 36.3442C55.3213 36.413 55.2902 36.4895 55.2607 36.564C55.1455 36.8208 55.0281 37.0824 54.9076 37.3492C53.3356 40.3116 50.4226 45.1185 48.3251 46.1135C45.0266 46.3947 54.9751 33.6264 52.7848 31.1146C52.4138 29.1594 48.5808 29.0904 48.6969 30.3642C49.1408 32.4046 47.1762 34.8668 46.5053 36.9758C45.0113 39.6857 42.0649 46.9936 39.7451 46.1503C35.7928 43.8462 42.7267 30.7459 45.3164 30.9959C45.5888 30.9959 45.7869 31.144 45.9106 31.4412C44.532 32.2963 45.8944 34.324 47.2481 33.1875C48.4677 31.4967 46.7032 29.4104 44.7223 29.4359C39.9228 29.3112 36.8414 33.6601 35.2001 37.9667C33.5064 40.8235 31.1871 44.9312 28.9362 46.1135C25.9366 46.5253 33.9495 35.1145 33.4921 33.4037C34.2105 29.4062 31.1505 28.7009 28.3816 30.5326C27.7198 30.666 26.7877 30.8153 26.0761 30.4386C26.2462 29.8733 26.3381 28.3976 26.3362 27.6897C24.7253 22.0632 19.115 28.8691 24.1819 31.4788C23.7488 32.9526 22.941 34.7032 22.311 36.2765C22.2881 36.3198 22.2675 36.3665 22.2504 36.4187C20.4084 40.5476 16.9042 45.6744 13.1871 48.4161C16.1165 40.9621 23.752 29.0275 16.7972 29.3812C16.2847 29.4487 15.3297 29.658 15.4155 30.2155C15.7747 31.8083 14.3819 34.2391 13.6327 36.3442L13.5957 36.4931C12.0439 39.1978 8.96059 47.0317 6.57546 46.1503C2.62332 43.8462 9.55735 30.7459 12.1471 30.9959C12.4193 30.9959 12.6174 31.144 12.7411 31.4412C11.3143 32.3339 12.8226 34.3659 14.1156 33.1499C15.2456 31.4002 13.5225 29.4313 11.5528 29.4359C4.40082 28.9976 -0.642842 40.9932 1.58366 45.4281C2.83399 48.3049 7.09138 48.8311 9.17565 46.4845C8.50168 48.0382 7.76536 49.8624 7.20711 51.425C5.03552 53.4029 -0.0615261 54.2409 6.49714e-05 57.1451C1.05325 61.5354 8.32284 60.3863 9.54667 56.6254C10.2203 54.8807 11.3236 52.4628 12.0725 50.6077C16.9867 47.8655 20.736 42.2594 23.251 37.2397C23.2796 37.2052 23.3059 37.1676 23.3272 37.1246C24.0544 35.7177 24.8973 33.528 25.5564 31.9612C26.6302 32.2601 28.1226 32.2557 29.2706 31.813C28.0304 35.4203 21.3968 47.2805 27.7106 48.0077C30.6128 47.6306 32.5183 44.3583 34.2065 42.0258C34.0304 44.2052 34.7295 46.7343 37.108 47.5991C40.2977 49.1053 42.9217 46.4023 44.4624 43.7362C44.255 45.7636 44.886 48.0828 47.0996 48.0077C49.4403 47.8039 51.1625 45.3211 52.6241 43.4437C52.3764 44.2319 52.2407 45.5959 52.4853 46.1877C52.7732 47.8512 55.2155 48.9619 56.0176 47.3034C55.903 46.8769 55.752 46.447 55.9955 45.6674C56.7634 43.1497 58.4921 40.4153 59.6912 37.8674C61.3133 35.72 63.3663 32.5154 65.8199 31.4044C68.634 31.0534 63.482 38.5202 63.548 39.5928C62.3633 42.2594 61.536 47.7598 65.1514 48.0077C68.0794 47.6214 69.989 44.3173 71.6881 41.9631C71.4969 44.156 72.1846 46.7278 74.5858 47.5991C77.7114 49.092 80.3633 46.4409 81.9026 43.8107C81.7429 45.8088 82.3421 48.0881 84.5404 48.0077C86.3724 47.9206 87.9 46.1207 89.1497 44.6487C87.3017 49.185 84.5368 54.8637 84.9484 57.6281C85.2906 59.2113 87.2925 60.3366 88.454 58.8956C88.3091 58.1396 88.5091 56.8416 88.9356 55.912C91.5354 49.222 95.1114 43.0166 97.6149 36.5299C98.8921 34.4891 100.783 31.1116 103.001 31.4044C107.019 33.3673 100.094 46.7936 97.4288 46.5589C97.1564 46.5589 96.9459 46.4107 96.7978 46.1135C98.3181 45.3213 96.7962 43.1814 95.4603 44.4048C94.3145 46.1011 96.0573 48.1427 98.0237 48.1188H98.5802C104.79 48.9339 108.083 45.6658 111.009 41.7339C110.754 43.9997 111.4 46.6908 113.884 47.5991C117.074 49.1053 119.698 46.4023 121.238 43.7362C121.031 45.7636 121.662 48.0828 123.875 48.0077C127.978 47.5198 131.946 39.3625 133.036 37.3225C133.102 37.2708 133.157 37.206 133.198 37.1246C133.925 35.7177 134.768 33.528 135.427 31.9612C136.501 32.2601 137.993 32.2557 139.141 31.813C137.901 35.4203 131.267 47.2805 137.581 48.0077C140.484 47.6304 142.39 44.3572 144.078 42.0243C144.039 51.4369 153.55 48.0283 156.98 42.8218C156.689 43.7118 156.348 45.3911 156.673 46.1877C156.961 47.8513 159.404 48.9619 160.206 47.3034C160.091 46.8769 159.94 46.447 160.183 45.6674C160.951 43.1497 162.68 40.4153 163.879 37.8674C165.501 35.72 167.554 32.5154 170.008 31.4044C172.822 31.0536 167.67 38.52 167.736 39.5928C166.551 42.2595 165.724 47.7598 169.339 48.0077C171.973 47.7093 173.78 44.8553 175.363 42.7299C175.311 42.9753 175.271 43.2002 175.244 43.402C175.002 45.2306 175.412 48.0881 177.845 48.0077C182.012 47.5553 186.224 38.817 187.204 36.9125C187.257 36.8685 187.308 36.8176 187.354 36.753C187.785 35.8771 188.515 34.6069 189.025 33.6329C191.241 37.8599 192.331 45.1617 187.354 46.7076C185.138 46.6283 185.003 43.564 186.239 42.1389C187.284 44.2544 189.925 41.2679 187.317 40.6533C181.374 41.8176 184.49 51.0226 190.511 47.2649L190.548 47.2279H190.586C194.797 45.3451 199.214 39.1394 199.853 36.6416" fill="white"/>
<path fill-rule="evenodd" clip-rule="evenodd" d="M71.6292 14.6823C73.8149 17.2238 76.6351 19.1994 78.2908 19.3955C83.4431 18.2449 92.1011 8.19287 85.8172 4.18639H85.8153C83.4919 2.57666 80.0486 4.09602 78.2908 5.57571C70.3552 -0.416663 64.993 7.84282 71.6292 14.6823Z" fill="white"/>
</g>
<defs>
<clipPath id="clip0_1_4370">
<rect width="200" height="60" fill="white"/>
</clipPath>
</defs>
</svg>
