<svg width="200" height="55" viewBox="0 0 200 55" fill="none" xmlns="http://www.w3.org/2000/svg">
<path d="M199.683 44.7713C199.288 45.5305 167.392 56.8413 131.366 54.6687C109.621 53.3616 80.4309 43.3507 61.2082 43.5643C18.8763 44.0314 1.11647 56.6917 0.254669 53.5824C-1.38564 47.6392 12.4321 31.5221 12.4321 31.5221C12.4321 31.5221 -0.975264 20.6965 0.255876 16.4973C0.917313 14.2427 21.0887 -0.0808098 64.4876 0.120759C82.8763 0.207663 110.892 10.7798 131.856 13.2771C160.89 16.74 199.199 6.77013 199.683 7.67658C201.734 11.5257 187.166 27.0333 187.166 27.0333C187.166 27.0333 201.328 41.6235 199.683 44.7713V44.7713Z" fill="#DF3A40"/>
<path d="M43.8394 23.6066C43.6065 26.8655 39.3204 28.8063 36.5383 27.3748C32.5624 24.2064 35.2915 15.9494 37.7537 13.3036C43.8225 5.68019 51.8394 13.708 42.4743 17.4702C41.7501 17.9011 41.6608 18.7061 41.9915 19.3277C43.3192 21.621 48.187 17.294 48.5721 15.4991C51.1997 6.35973 37.1249 8.98134 34.3379 14.2101C26.7857 25.3809 35.7863 34.7073 43.5256 26.3223C40.4659 42.7882 24.8787 38.1908 32.0301 29.9264C32.2933 28.478 30.4972 27.434 29.3035 28.7363C24.041 36.7242 33.6608 41.3084 39.7187 36.3935C43.003 33.778 44.6674 29.9228 46.0869 26.1775C48.589 20.9101 43.726 21.2191 43.8394 23.6066V23.6066Z" fill="white"/>
<path d="M175.992 32.6771C175.546 32.2667 174.024 35.8998 173.842 36.006C173.713 34.8087 173.292 33.732 172.671 32.6747L172.646 32.6578C172.123 31.4677 171.949 30.4249 172.394 29.1213H172.414V29.1418C173.063 26.5335 169.31 26.0169 169.155 28.7797C168.628 30.4912 167.969 32.4405 167.331 34.1714C167.196 34.2332 167.095 34.3529 167.057 34.4973C164.894 41.8153 161.919 40.1702 161.655 33.7393C162.5 31.3832 163.359 28.729 163.934 26.2836L173.378 24.7435C173.906 24.5443 173.557 24.006 173.289 24.0652L164.264 24.9451C164.617 22.7471 166.41 17.8889 163.765 17.8322L163.741 17.8141C160.677 18.4067 159.792 23.4086 159.395 25.411L150.905 26.2631C149.457 26.4442 149.735 28.5468 151.183 28.3826L159.137 27.0609C158.849 29.7296 158.786 32.6457 159.237 35.3096C159.14 35.3002 159.049 35.3571 159.015 35.4484H158.993C157.849 37.1056 156.346 39.5196 154.756 39.9252C154.876 36.939 157.545 33.9565 156.774 30.7423C153.365 25.003 149.26 34.0012 148.601 37.2384C148.517 36.7556 149.666 30.7399 149.015 30.3005C146.735 28.5395 146.948 33.6801 146.133 36.4067C144.782 36.6952 143.713 38.5878 142.196 39.2166C139.082 41.1478 135.086 41.0332 135.316 36.6433C136.281 38.3488 138.535 38.5999 140.33 37.7936C147.751 31.3265 137.236 25.4001 133.375 36.2752C132.732 35.8479 131.727 38.2462 131.19 38.5745C127.961 42.274 126.996 40.9885 128.49 36.9704C129.024 35.3699 130.17 34.6095 131.275 33.277C131.97 29.6777 126.688 32.525 124.83 31.8117C126.502 26.5093 117.398 29.6391 123.066 33.8829C122.891 34.1907 122.526 34.8244 122.221 35.2637C122.068 35.1436 121.851 35.1487 121.703 35.2758V35.2963C121.071 35.9783 118.867 38.8606 117.358 38.9475H117.378C117.279 38.8968 116.991 38.8944 116.835 38.5854C116.353 36.4695 121.38 31.5051 116.779 31.7972C115.514 32.4949 114.809 35.2975 113.77 36.0978C111.867 38.5383 109.826 38.9052 111.248 35.0694C116.69 24.8666 116.623 34.041 119.381 31.1309C120.822 28.3102 115.663 26.3923 113.687 28.2197C110.359 30.5492 110.187 34.5311 106.163 35.7357C108.945 33.825 111.331 27.3434 106.81 26.2172C104.577 25.9662 102.233 29.0573 101.034 30.3102C101.63 28.7556 102.425 27.3856 102.765 25.6572C102.8 24.3102 100.841 23.93 100.289 25.1309C98.6434 28.2402 97.0055 34.2414 93.364 34L93.3145 33.9239C92.8739 30.9789 94.1268 27.8286 96.2016 25.5824C98.4599 22.3235 100.655 19.5281 102.153 15.7405C102.558 14.5588 101.719 13.388 99.9808 13.9433C96.1703 15.5281 94.0254 21.2432 92.8184 24.1243C90.8667 20.3343 85.2735 24.5625 84.3694 27.3989C84.3269 27.4179 84.2894 27.4464 84.2596 27.4822H84.2379C73.7369 36.3355 82.6941 26.0109 83.014 23.5787C83.9337 19.0428 78.4056 17.7007 73.7092 26.863C73.7369 26.3802 76.0737 21.1068 75.7333 20.2909C73.9627 17.8093 72.9162 22.9596 71.5269 25.423C71.4082 25.4265 71.2962 25.4784 71.2167 25.5667V25.5884C70.8546 26.029 68.0484 30.9209 66.8039 29.4737C66.4974 28.1183 67.3314 26.035 67.9433 24.7375C68.6108 23.1985 66.8341 22.029 65.6863 22.8763C64.7532 24.0519 62.4624 31.1816 60.6989 29.1587C59.9554 26.9547 62.8836 20.7097 65.1878 21.2372C65.8601 21.5256 66.1799 22.525 67.119 22.4731C71.2143 21.3446 65.9421 17.2529 63.5378 18.8304C58.8691 20.9499 59.9035 28.1002 55.2686 30.0483C52.8172 24.9849 60.3018 21.376 55.8842 20.4659C53.9856 20.8413 52.5239 21.7658 50.705 21.691C51.5366 16.1617 43.0465 20.6868 49.2686 24.0024C47.6826 27.1406 48.4177 27.5631 49.9204 24.2076C51.0258 24.4888 52.1793 24.5246 53.3 24.3126C52.1884 30.6578 55.3278 34.5456 58.8715 27.1672C58.5094 32.2836 62.6687 31.9215 64.303 27.9952C64.128 29.8431 65.4123 31.9083 67.4412 31.5787V31.557C68.157 31.5112 68.7351 31.0996 69.3483 30.4345C69.2276 32.1835 71.7623 32.7664 72.3115 30.8364L72.3368 30.8183C73.9458 27.8672 76.6627 23.965 79.405 23.4182C72.6905 36.4224 80.0592 34.3452 83.7659 29.0018C82.2873 37.2842 88.5637 33.872 91.2095 29.5341C90.7943 31.8889 90.4961 36.5902 94.2668 35.7526C89.1057 41.4013 86.8184 48.933 92.9898 44.7652C98.2596 39.9626 98.6193 29.5462 106.402 27.8527V27.8733C109.211 29.4098 100.729 40.6409 100.437 34.3223C100.544 34.1328 100.13 33.79 99.9723 34.1436C98.3887 40.0821 107.488 36.8075 109.448 34.5274C107.842 39.6644 111.862 41.1841 114.53 36.8207C114.122 38.6312 115.133 40.8437 117.185 40.7725V40.7507C119.259 40.7749 120.88 37.9903 121.92 36.2921C122.678 35.9903 123.089 34.8666 123.667 34.1895C124.72 34.6319 125.857 34.8379 126.998 34.793C124.538 43.7984 129.112 43.8032 133.19 36.8847C132.274 40.4309 134.421 43.5353 137.924 43.1213C141.356 42.478 143.904 39.7163 145.994 37.038C145.477 39.825 145.149 40.8026 145.149 41.6367C145.336 43.4991 148.053 43.4351 148.136 41.4303L148.157 41.4074C149.066 38.1243 150.82 33.7501 153.358 32.5962C149.796 46.6083 156.418 43.6632 159.359 35.9867C160.355 41.6536 165.13 43.2975 167.223 37.9107C168.012 40.6868 172.044 40.6807 173.378 38.2788C173.772 37.038 176.668 32.997 175.992 32.6771V32.6771ZM162.534 22.758C162.92 21.5063 162.932 20.1472 163.885 19.0887H163.907V19.0682L163.949 19.0622L163.967 19.038V19.0163H164.01C164.864 20.5407 163.628 23.7079 163.311 25.0356L162.104 25.1732C162.221 24.3331 162.357 23.4798 162.534 22.758ZM161.738 28.3802C161.811 27.7562 161.859 27.1249 161.917 26.6107L162.804 26.4731C162.465 27.2879 162.127 28.1122 161.704 28.9451C161.702 28.7562 161.713 28.5674 161.738 28.3802V28.3802ZM136.015 33.895C136.523 32.7133 138.791 30.9668 139.936 32.6216C140.528 35.2613 137.901 37.7236 135.38 35.8805C135.474 35.1866 135.689 34.5146 136.016 33.895H136.015ZM96.2149 22.9716C97.6247 20.2873 98.647 17.0247 101.021 15.1261H101.043L101.067 15.1092H101.089V15.0887L101.113 15.0718L101.181 15.1732C101.131 18.0386 97.0767 22.2692 96.0061 23.4243C96.0876 23.279 96.1578 23.1276 96.2161 22.9716H96.2149ZM50.1425 21.032C50.1417 21.2266 50.1215 21.4207 50.0821 21.6113C49.3579 21.5027 47.65 20.478 49.154 20.006V19.9843C49.7285 19.7731 50.2922 20.3211 50.1425 21.032ZM91.912 26.7954C91.7913 27.0223 91.6863 27.5691 91.5812 27.971C87.364 33.2879 82.6012 35.1442 87.4014 27.3917C88.3863 26.1919 91.5692 22.6735 92.1268 26.0748C92.0315 26.3754 91.9735 26.5987 91.912 26.7954V26.7954ZM94.3332 38.2197C93.1998 40.4381 92.3441 43.1297 90.303 44.7109H90.2825L90.2572 44.7278L90.2729 44.7532V44.7737L90.2306 44.7652C89.5752 42.7471 93.5028 38.2329 94.7351 37.3687C94.5529 37.7151 94.4322 37.9807 94.3332 38.2221V38.2197ZM124.401 30.9414C124.33 31.1756 124.371 31.1985 124.22 31.6415C123.698 31.4086 122.806 30.9475 122.9 30.2788C122.923 30.1509 123.152 29.9517 123.476 29.9095L123.54 29.9155V29.895C124.08 29.7924 124.569 30.2776 124.401 30.9439V30.9414ZM171.737 37.1116C171.205 39.1877 168.228 38.9125 168.048 36.5552C167.744 34.7254 168.724 32.6337 169.179 30.834C169.401 32.0193 169.82 33.0537 170.584 34.0157C171.143 34.8413 171.902 35.9083 171.737 37.1141V37.1116Z" fill="white"/>
</svg>
