<svg width="164" height="200" viewBox="0 0 164 200" fill="none" xmlns="http://www.w3.org/2000/svg">
<path d="M81.8638 8.67297C-4.51221 12.7602 -2.37598 134.185 81.8638 137.283C167.924 133.215 166.556 12.098 81.8638 8.67297V8.67297ZM125.008 112.921C67.8202 168.994 -12.5994 89.831 39.7548 31.9427C96.842 -21.5995 174.785 55.4087 125.008 112.921Z" fill="white"/>
<path d="M81.8637 16.9945C6.93179 20.4931 8.18519 126.057 81.8637 128.962C156.787 125.466 155.542 19.891 81.8637 16.9945V16.9945Z" fill="white"/>
<path d="M158.414 176.736L163.728 177.744L132.529 125.507C179.381 79.1172 147.796 1.32425 82.5204 0C15.079 0.384196 -15.1962 80.1744 31.1989 125.507L0 177.744L5.31335 176.736L34.248 128.292C34.9428 128.888 35.6512 129.477 36.3706 130.049L8.89101 176.057L28.2371 172.384L34.1717 191.147L62.6703 143.411C63.5786 143.658 64.4986 143.889 65.4305 144.104L35.2589 194.621L36.8937 199.777L69.6458 144.943C77.7393 146.288 85.9992 146.288 94.0926 144.943L126.839 199.777L128.474 194.621L98.297 144.104C99.2234 143.891 100.144 143.66 101.057 143.411L129.567 191.147L135.501 172.384L154.847 176.057L127.357 130.049C128.076 129.477 128.785 128.888 129.48 128.292L158.414 176.736ZM127.793 125.477C52.861 184.785 -32.3052 80.1308 38.1063 18.6403C112.016 -35.8937 193.411 63.9401 127.793 125.477Z" fill="white"/>
<path d="M72.5641 101.801C73.0301 99.5777 74.4715 89.8283 67.793 93.7847L67.4061 92.6948L66.2126 93.1308L67.4824 96.673L68.6759 96.248L68.2971 95.1907C70.2045 92.5422 71.1582 96.4877 71.0219 97.7275C64.2862 95.7357 65.5042 103.837 71.0219 101.245V101.79H70.6241V102.556H73.0764V101.79L72.5641 101.801ZM69.0655 100.853C67.8039 100.796 67.3952 98.8638 68.8938 98.4005C70.3816 98.4469 70.6105 100.455 69.0655 100.853Z" fill="#0076A3"/>
<path d="M74.9592 105.962L66.2126 106.131L66.6077 104.131L74.5669 103.39L74.9592 105.962Z" fill="#0076A3"/>
<path d="M54.8557 94.0871L51.7903 97.7247L50.4333 96.4931L53.1963 92.8937L54.8557 94.0871Z" fill="#0076A3"/>
<path d="M54.9238 99.9237L49.981 100.035L49.5777 102.488L51.2126 102.589V101.313L53.12 101.234C48.4878 110.651 41.9483 93.2861 52.3298 95.6076L53.0627 94.3542C46.981 90.6567 42.5178 98.4414 45.5968 103.651C51.1963 110.025 55.951 102.725 54.9238 99.9237Z" fill="#0076A3"/>
<path d="M86.0545 93.7983L82.1199 94.346L81.9673 92.8228L85.6921 92.1307L86.0545 93.7983Z" fill="#0076A3"/>
<path d="M79.5833 105.815L75.6487 106.36L75.4961 104.839L79.2182 104.147L79.5833 105.815Z" fill="#0076A3"/>
<path d="M87.0928 105.42L82.1746 105.7L82.3408 104.008L86.8776 103.722L87.0928 105.42Z" fill="#0076A3"/>
<path d="M76.5122 105.657L77.1689 93.2398L78.9945 93.1444L83.5095 103.411L82.9836 93.4496L84.8392 93.3515L86.346 105.48L82.1743 105.7L78.5476 95.9101L78.564 105.891L76.5122 105.657Z" fill="#0076A3"/>
<path d="M89.8256 106.063L87.8638 106.12L88.0273 103.995L90.891 103.864L89.8256 106.063Z" fill="#0076A3"/>
<path d="M89.0464 92.5913L89.4197 106.054C100.18 106.643 102.044 91.1907 89.0464 92.5913ZM92.011 103.717V94.4033C99.9429 94.3488 96.8557 103.428 92.011 103.717Z" fill="#0076A3"/>
<path d="M90.6949 92.5368L88.0955 92.4768L88.1418 94.5041L90.9647 94.3733L90.6949 92.5368Z" fill="#0076A3"/>
<path d="M92.6104 94.1035V104.262L93.3488 104.005L92.9782 94.1035H92.6104Z" fill="#0076A3"/>
<path d="M64.0328 96.6512C63.8965 92.9019 58.6513 92.8992 56.1309 93.1335C56.2017 95.7411 56.4197 103.54 56.4878 106.046L58.3488 105.986V101.406C58.3488 101.406 64.0328 101.142 64.0328 96.6512V96.6512ZM58.3434 100.155V94.9782C64.3516 94.5504 62.4197 100.749 58.3543 100.155H58.3434Z" fill="#0076A3"/>
<path d="M57.338 93.049L55.3135 93.0436L55.5287 95.1362L58.3544 94.9891L57.338 93.049Z" fill="#0076A3"/>
<path d="M59.1499 106.155L55.8202 106.289L55.793 104.439L58.9919 104.548L59.1499 106.155Z" fill="#0076A3"/>
<path d="M65.3215 106.155L61.9918 106.289L61.9646 104.439L65.1635 104.548L65.3215 106.155Z" fill="#0076A3"/>
<path d="M61.7575 100.131L65.1526 105.967L63.2043 105.744L60.7139 100.343L61.7575 100.131Z" fill="#0076A3"/>
<path d="M115.766 101.665C116.259 99.3079 117.777 88.9918 110.714 93.1771L110.308 92.0354L109.044 92.4877C109.414 93.5177 109.948 95.0218 110.387 96.2452L111.649 95.7929C111.559 95.5368 111.406 95.1144 111.251 94.6757C113.275 91.8719 114.278 96.0381 114.145 97.3596C107.06 95.2398 108.262 103.826 114.145 101.084V101.659H113.722V102.477H116.324V101.659L115.766 101.665ZM112.063 100.662C110.635 100.561 110.352 98.5504 111.88 98.0518C112.561 98.0636 113.12 98.5939 113.168 99.2733C113.215 99.9526 112.735 100.556 112.063 100.662V100.662Z" fill="#0076A3"/>
<path d="M118.303 106.068L109.044 106.245L109.461 104.131L117.886 103.346L118.303 106.068Z" fill="#0076A3"/>
<path d="M107.927 96.1989C107.788 92.3706 102.433 92.3679 99.8557 92.6049C99.9293 95.267 100.15 103.232 100.221 105.785L102.128 105.725V101.049C102.128 101.049 107.927 100.779 107.927 96.1989V96.1989ZM102.12 99.7711V94.4986C108.21 94.0491 106.313 100.368 102.12 99.7711Z" fill="#0076A3"/>
<path d="M101.084 92.5205L99.0164 92.515L99.2343 94.6485L102.12 94.4987L101.084 92.5205Z" fill="#0076A3"/>
<path d="M103.995 105.894L99.5342 106.063L99.5315 104.864L103.856 104.589L103.995 105.894Z" fill="#0076A3"/>
<path d="M103.752 104.316L99.5369 104.477V103.392L103.624 103.134L103.752 104.316Z" fill="#0076A3"/>
<path d="M105.286 91.7983L103.477 95.5204L104.381 96.0518L107.411 92.7629L105.286 91.7983Z" fill="#0076A3"/>
<path d="M48.3678 50.4823L53.3542 50.3215L53.5749 52.3842L48.2397 52.4496L48.3678 50.4823Z" fill="#0076A3"/>
<path d="M46.2883 39.0906L55.7811 38.9994L55.7959 40.5443L46.3032 40.6355L46.2883 39.0906Z" fill="#0076A3"/>
<path d="M46.4007 36.5396L46.3108 38.6104L49.4198 38.466L49.2617 51.7221L52.0247 51.8393L52.5996 38.4169L55.8476 38.3679L55.9157 36.7521L46.4007 36.5396Z" fill="#0076A3"/>
<path d="M82.6923 50.4823L87.6786 50.3215L87.8994 52.3842L82.5642 52.4496L82.6923 50.4823Z" fill="#0076A3"/>
<path d="M80.6108 39.0908L90.1036 38.9997L90.1184 40.5446L80.6257 40.6357L80.6108 39.0908Z" fill="#0076A3"/>
<path d="M80.7249 36.5396L80.635 38.6104L83.744 38.466L83.586 51.7221L86.3489 51.8393L86.9238 38.4169L90.1718 38.3679L90.2399 36.7521L80.7249 36.5396Z" fill="#0076A3"/>
<path d="M117.218 48.5641L107.886 49.0818L108.352 47.3161L116.829 46.6594L117.218 48.5641Z" fill="#0076A3"/>
<path d="M117.605 51.8611H107.886L108.017 50.2071L117.294 49.5559L117.605 51.8611Z" fill="#0076A3"/>
<path d="M115.108 42.7063L116.118 41.4032L119 43.6362L117.99 44.9393L115.108 42.7063Z" fill="#0076A3"/>
<path d="M116.719 42.7384C113.771 45.6158 110.809 43.7711 110.471 41.2752L117.011 40.4578C117.264 36.7003 112.537 34.2262 108.755 37.3188C103.305 44.7112 113.828 48.8801 117.801 43.8583L116.719 42.7384ZM112.831 37.2316C114.292 37.0354 114.954 38.891 114.954 38.891L111.322 39.4087C111.322 39.4087 110.856 37.4932 112.831 37.2316V37.2316Z" fill="#0076A3"/>
<path d="M67.3951 52.466L57.188 52.5423L57.2425 50.4414L66.9537 50.1335L67.3951 52.466Z" fill="#0076A3"/>
<path d="M60.6785 36.7848L61.0845 42.2235L63.1717 41.9892L63.0218 36.793L60.6785 36.7848Z" fill="#0076A3"/>
<path d="M62.7686 38.5558C56.5016 37.8855 55.3871 48.9101 61.507 49.7548C68.7141 50.9237 68.8803 39.1362 62.7686 38.5558ZM62.2917 40.2752C65.7877 40.7112 66.7168 47.0409 62.6814 47.7711C57.5152 48.1226 58.8558 40.4877 62.2917 40.2752Z" fill="#0076A3"/>
<path d="M105.678 52.4932L99.9863 52.6567L100.005 50.4632L105.42 50.0599L105.678 52.4932Z" fill="#0076A3"/>
<path d="M98.0056 52.4932L92.3135 52.6567L92.3326 50.4632L97.7494 50.0599L98.0056 52.4932Z" fill="#0076A3"/>
<path d="M104.946 38.2371L100.608 38.3433L100.624 36.9537L104.749 36.6948L104.946 38.2371Z" fill="#0076A3"/>
<path d="M97.2153 38.2397L92.6431 38.346L92.6594 36.9564L97.0082 36.6975L97.2153 38.2397Z" fill="#0076A3"/>
<path d="M93.7439 37.2888L93.2507 52.3951L96.7003 52.5477L96.1826 37.2888H93.7439Z" fill="#0076A3"/>
<path d="M101.692 37.485V52.5477H103.973V37.2888L101.692 37.485Z" fill="#0076A3"/>
<path d="M94.9756 42.8419L102.965 42.3514L102.831 42.8419L95.4742 43.5939L94.9756 42.8419Z" fill="#0076A3"/>
<path d="M95.5532 43.9918L102.831 43.4578L102.556 46.2915L95.3188 45.8583L95.5532 43.9918Z" fill="#0076A3"/>
<path d="M98.7304 72.782C102.733 68.1499 100.91 62.0354 95.1473 61.0109L94.5506 58.6594L91.1691 60.218L92.2372 61.9537C87.5587 65.5232 91.4198 70.5477 95.0001 72.97C93.6216 74.1787 92.1653 75.2955 90.6405 76.3134C90.3808 75.617 90.1607 74.9065 89.9811 74.1853L91.6977 73.3924L90.15 70.0273L83.2535 73.2071L84.8067 76.5777L86.4416 75.8256C86.6794 76.7144 86.9902 77.582 87.3707 78.4196C85.3435 79.6458 83.4743 80.6649 82.1936 81.3406L83.4443 83.6077C85.2725 82.7963 87.0578 81.8913 88.7931 80.8965C95.5506 90.654 110.082 81.1989 98.7304 72.782V72.782ZM92.8067 65.5341C92.8948 64.9777 93.1428 64.4589 93.5206 64.0409L94.3843 65.4469L96.0928 64.6594L95.7195 63.2153C98.8203 64.6621 99.6677 68.0627 96.9184 71.0164C94.8503 69.0491 92.4852 67.03 92.8067 65.5341V65.5341ZM99.1255 78.8856C98.1064 82.4115 94.0655 82.842 91.9211 78.9319C93.7225 77.7236 95.4049 76.3469 96.9456 74.8202C98.3653 76.2562 99.3353 77.5368 99.1255 78.891V78.8856Z" fill="#0076A3"/>
<path d="M108.439 83.0436L116.668 81.9591L117.371 85.3379L108.545 86.3215L108.439 83.0436Z" fill="#0076A3"/>
<path d="M103.135 64.5015L118.841 62.7925L119.119 65.3469L103.413 67.0559L103.135 64.5015Z" fill="#0076A3"/>
<path d="M102.894 60.2724L103.085 63.7193L108.21 62.97L110.123 84.9509L114.717 84.6948L113.469 62.3678L118.839 61.7547L118.689 59.0708L102.894 60.2724Z" fill="#0076A3"/>
<path d="M78.7003 80.1144L64.1172 80.9264L64.8447 78.1634L78.0872 77.1389L78.7003 80.1144Z" fill="#0076A3"/>
<path d="M79.3025 85.2671H64.1172L64.3215 82.6812L78.8175 81.6676L79.3025 85.2671Z" fill="#0076A3"/>
<path d="M75.1726 70.8267L76.745 68.7903L81.2439 72.2642L79.6715 74.3005L75.1726 70.8267Z" fill="#0076A3"/>
<path d="M77.9293 71.0136C73.2617 75.3733 68.9184 73.0136 68.1637 68.7275L78.3816 67.4305C78.4797 59.2725 68.1964 58.3706 64.5397 63.6403C58.6977 75.7793 73.9348 79.782 79.616 72.7384L77.9293 71.0136ZM71.8421 62.3978C74.1255 62.0927 75.1582 64.9918 75.1582 64.9918L69.4852 65.8093C69.4852 65.8093 68.7549 62.8175 71.8421 62.3978V62.3978Z" fill="#0076A3"/>
<path d="M54.0953 70.1499C54.0953 70.1499 58.7847 69.8148 58.7847 64.4551C58.7847 59.0954 47.7329 60.1853 47.7329 60.1853L47.0354 85.3625C69.2752 87.7548 63.8147 69.4279 54.0953 70.1499V70.1499ZM51.3705 63.0818C58.9237 61.7194 57.0109 70.2099 51.3705 69.2344V63.0818ZM51.3705 81.7439V71.6622C61.237 71.1663 61.4223 83.06 51.3596 81.7439H51.3705Z" fill="#0076A3"/>
<path d="M49.3816 85.5232L45.4307 85.5341L45.8503 81.4578L51.3598 81.7439L49.3816 85.5232Z" fill="#0076A3"/>
<path d="M50.6704 60.1035L45.6514 60.1526L45.8149 63.7575L51.2426 63.1362L50.6704 60.1035Z" fill="#0076A3"/>
<path d="M81.842 113.292C72.0327 102.24 67.9455 116.232 81.6077 125.891C100.853 109.962 85.5886 106.054 81.842 113.292Z" fill="#0076A3"/>
<path d="M100.518 112.406C98.3571 108.665 93.9783 109.376 94.5969 113.057C95.3162 116.251 99.9374 120.098 100.365 120.501C112.501 110.55 103.251 107.643 100.518 112.406Z" fill="#0076A3"/>
<path d="M61.8203 112.406C59.6622 108.665 55.2808 109.376 55.902 113.057C56.6214 116.251 61.2399 120.098 61.6677 120.501C73.8066 110.55 64.556 107.643 61.8203 112.406Z" fill="#0076A3"/>
<path d="M82.1063 27.9646H82.0191C81.9919 27.8556 81.9973 27.891 81.951 27.6921C81.9499 27.6821 81.9499 27.6721 81.951 27.6621C82.06 27.7221 82.1771 27.6839 82.4387 27.7139L82.218 27.7983C82.2807 27.831 82.4442 27.9182 82.6567 28.0436C82.5613 28.0136 82.4823 28.0109 82.1063 27.9646V27.9646Z" fill="#CC7779"/>
<path d="M82.1961 27.3897L81.9018 27.4333C81.8944 27.4103 81.8898 27.3865 81.8882 27.3624L82.1961 27.3897Z" fill="#CC7779"/>
<path d="M82.2508 28.9918C81.9483 28.7847 82.1172 28.9046 81.5532 28.5013C81.1985 28.2415 80.8591 27.9613 80.5369 27.6621C81.0001 27.7493 80.7031 27.6049 82.1254 28.0354L82.06 28.0926C82.1481 28.3866 82.2119 28.6874 82.2508 28.9918Z" fill="#E99695"/>
<path d="M82.0163 26.5367L81.8419 26.752V26.7901L81.5122 26.9073C81.5558 26.8773 81.504 26.8991 82.0163 26.5367V26.5367Z" fill="#E99695"/>
<path d="M82.6486 28.0245C82.5587 28.0245 82.3761 28 82.0192 27.9537C82.0204 27.9646 82.0204 27.9755 82.0192 27.9864C81.6895 27.8692 80.8666 27.5967 80.2317 27.3161C80.5777 27.3161 80.3707 27.297 81.2535 27.3161C81.4578 27.3161 81.2535 27.3161 82.1854 27.3815L81.8911 27.4251C81.8911 27.4959 81.9156 27.5668 81.932 27.6349C82.041 27.6948 82.1581 27.6567 82.4197 27.6867L82.199 27.7711C82.2726 27.812 82.436 27.8992 82.6486 28.0245V28.0245Z" fill="#E99695"/>
<path d="M82.1962 27.3897C81.6921 27.4632 80.8583 27.594 80.0164 27.6376C80.609 27.3271 81.2206 27.0541 81.8474 26.8202C81.847 27.0028 81.8625 27.1852 81.8937 27.3651L82.1962 27.3897Z" fill="#E99695"/>
<path d="M82.128 28.0272C81.7054 28.4055 81.2494 28.7448 80.7656 29.0408C80.7656 28.7684 80.7656 28.5095 80.7656 28.2725C81.211 28.1479 81.6672 28.0658 82.128 28.0272Z" fill="#E99695"/>
<path d="M81.1716 27.248C81.1716 27.248 80.9945 27.1826 80.801 27.1036C80.801 27.0545 80.801 27.0082 80.801 26.9564C80.8882 27.0218 80.9618 27.0654 81.1716 27.248Z" fill="#E99695"/>
<path d="M82.4304 27.6948C81.8664 27.9073 81.8854 27.91 80.7955 28.2588C80.7955 28.1362 80.7955 28.0163 80.7955 27.891C80.7628 27.861 80.7519 27.8583 80.6157 27.7302L80.4822 27.7057C81.1305 27.6557 81.7816 27.6521 82.4304 27.6948V27.6948Z" fill="#E99695"/>
<path d="M82.6485 28.0245C81.7709 27.9379 80.8986 27.8042 80.0354 27.624C80.1335 27.5776 80.158 27.5558 80.4605 27.4087L80.2398 27.3161C80.2398 27.2806 80.5586 27.3815 80.7847 27.2479C80.7847 27.2043 80.7847 27.1635 80.7847 27.1199C81.4236 27.3838 82.0459 27.6859 82.6485 28.0245V28.0245Z" fill="#E99695"/>
<path d="M92.3134 22.7112C90.0763 21.8937 83.0682 24.2098 81.327 26.6022C81.2289 26.6212 80.8556 26.1962 79.654 26.6567C78.2344 24.5422 71.2807 21.8964 68.9156 22.673C67.703 24.3924 67.387 30.94 68.7221 33.0708C70.9592 33.9101 78.0464 31.5449 79.7521 29.2289C79.8693 29.1853 80.1581 29.6921 81.515 29.1144C82.6921 31.2697 89.8965 33.9128 92.1172 33.1117C93.357 31.3351 93.6213 24.8093 92.3134 22.7112V22.7112ZM73.9047 24.436C75.6676 25.1417 77.3951 25.5477 79.4932 26.7629C79.4246 26.8153 79.3608 26.8737 79.3025 26.9373C79.2426 26.812 76.1799 26.0027 73.8338 24.4087L73.9047 24.436ZM70.6567 25.5504C73.5893 25.6 76.4986 26.0801 79.2916 26.9755C79.1461 27.1392 79.0514 27.3419 79.0191 27.5586C76.5014 27.1008 73.5069 26.5504 70.5396 25.564L70.6567 25.5504ZM73.8693 29.3106C72.6699 29.5178 71.4601 29.6588 70.2453 29.733C72.5586 28.7493 75.8393 27.9564 78.9919 27.7112C78.9823 27.9205 78.9914 28.1302 79.0191 28.3379C77.8992 28.5722 76.5259 28.8828 73.8693 29.3106ZM78.6894 29.346C78.5205 29.3706 76.2644 30.6103 74.5777 30.6022C75.5477 30.0845 76.4115 29.2643 79.0137 28.3733C79.077 28.6175 79.214 28.8363 79.406 29C79.09 29.1553 79.3406 29.0354 78.6894 29.346V29.346ZM88.7712 25.5558C89.3757 25.5249 89.9814 25.5249 90.5859 25.5558C90.139 25.733 86.3543 26.733 82.0109 27.3324C81.9294 27.1178 81.7909 26.9294 81.6104 26.7875C83.9444 26.1012 86.3501 25.6879 88.7793 25.5558H88.7712ZM81.6485 26.4905C83.0654 25.673 85.3134 25.0082 87.327 24.3106C85.8039 25.3351 84.8502 25.5504 81.5859 26.7629C81.5219 26.7138 81.4545 26.6691 81.3842 26.6294L81.6485 26.4905ZM86.2616 30.4905C84.6513 30.3079 84.0818 29.9864 81.7821 28.8719C81.9541 28.6796 82.0559 28.4347 82.0709 28.1771C82.7957 28.4142 84.1799 29.0218 86.3461 30.4932L86.2616 30.4905ZM90.5777 29.7275C87.7103 29.3893 84.8697 28.8531 82.0763 28.1226C82.0898 27.9118 82.0844 27.7003 82.06 27.4905C84.8638 27.8419 87.6513 28.3651 90.7085 29.7357L90.5777 29.7275Z" fill="#0076A3"/>
</svg>
