<svg width="200" height="201" viewBox="0 0 200 201" fill="none" xmlns="http://www.w3.org/2000/svg">
<g clip-path="url(#clip0_1_4069)">
<path fill-rule="evenodd" clip-rule="evenodd" d="M53.4999 129C59.4649 108.84 75.1649 107.725 72.2449 125.18C72.7449 125.38 73.2449 125.21 73.7999 125.18C74.0349 122.27 75.2999 118.68 78.4799 117.355C82.2999 114.355 85.6349 124.67 80.3599 119.005C77.9799 120.08 78.0249 124.505 77.7249 127.045C79.7699 126.045 81.6349 124.12 83.0449 121.72C83.4349 119.835 87.1649 112.295 87.4399 117.765C86.0799 123.11 85.0099 128.125 86.2799 133.8C90.2799 131.145 91.4649 125.8 92.7799 121.1C86.7399 113.225 98.1249 106.34 94.6499 120.17C102.02 123.315 97.0899 129.365 97.9299 135.3C100.205 137.05 101.11 131.545 101.735 129.725C101.125 125.875 101.325 121.48 103.975 118.255C106.02 115.375 109.53 115.895 109.615 119.53C109.005 122.905 106.935 125.605 104.92 128.53C106.265 134.715 111.57 124.175 112.57 122.03C112.385 115.605 116.1 118.465 115.96 123.87L116.535 124.22C118.345 122.045 120.625 119.015 124.215 119.4C128.445 119.815 120.76 130.365 122.715 132.53C127.775 127.675 131.215 120.905 132.465 113.595C124.275 112.32 108.06 114.79 107.135 104.095C107.24 103.845 107.255 102.91 108.135 103.12C112.135 112.97 124.4 110.045 133.215 111.12C134.655 106.515 139.94 103.245 137.145 111.44C141.085 111.635 152.645 115.775 150.525 119.815C147.025 116.47 141.465 114.17 136.335 113.785C134.185 118.97 127.455 150.205 132.835 146.97C141.79 135.605 134.335 137.245 137.48 128.3C138.335 124.64 142.33 122.44 143.385 127.195C143.645 130.3 142.12 132.89 141.2 136.085C142.2 137.54 143.34 138.85 144.395 140.33C148.22 135.72 151.895 130.83 154.075 124.88C161.36 123.205 146.775 139.845 145.835 141.835C157.565 170.76 124.19 181.185 141.3 145.47C140.539 144.039 139.664 142.671 138.685 141.38C136.5 145.655 130.5 155.085 127.06 146.5C126.38 140.4 127.82 134.43 128.8 128.31C120.47 141.875 116.88 130.485 121.275 121.67C118.67 123.06 116.565 126.25 115.95 129.555C113.675 132.02 112.705 127.835 112.57 125.305C110.665 128.305 106.52 137.88 102.415 131.695C101.015 134.84 99.1699 144.03 94.9149 137.035C93.4149 132.4 95.1599 128.365 95.8649 123.47C95.6199 122.775 94.8149 122.635 94.0999 122.215C90.9749 136.11 81.3899 144.16 82.3599 124.815C80.1149 127.125 76.3599 132.98 73.9699 127.075C73.1907 126.996 72.4038 127.09 71.6649 127.35C62.4399 150.88 50.5099 136.165 67.4249 126.75C68.3299 125.25 67.9799 122.845 68.2549 120.75C67.8599 105.08 55.6149 124.785 55.0299 130.175C52.3149 141.05 63.8299 165.855 66.0299 170.455C55.2949 175.875 45.7949 117.61 46.9549 113.59C46.8849 111.475 47.1549 108.305 50.6449 109.795C51.4349 116.01 52.0199 122.585 53.2549 128.97L53.4999 129ZM142.62 147.225C139.385 149.975 133.72 168.63 141.39 166.19C144.845 160.46 145.74 153.31 142.605 147.21L142.62 147.225ZM66.8499 129.045C64.2699 130.045 59.7349 135.33 60.6349 137.715C62.5699 136.635 65.4349 132.645 66.8499 129.045ZM104.785 125.85C106.285 124.15 108.525 121.195 107.52 118.38C105.815 117.15 104.365 124.35 104.785 125.85ZM140.115 133.38C140.835 131.485 143.07 127.805 140.945 125.825C140.545 128 139.25 130.74 140.115 133.38ZM93.5049 118.88C93.6499 117.88 95.3999 113.67 93.3499 113.38C92.2839 115.075 92.3431 117.245 93.4999 118.88H93.5049Z" fill="#68482D"/>
<path fill-rule="evenodd" clip-rule="evenodd" d="M76.9198 80.8499C78.6833 79.0064 80.303 77.0306 81.7648 74.9399C72.6248 61.0549 97.1648 55.8699 84.8398 73.8049C94.2848 81.8449 86.9898 83.6549 89.7048 91.6349C92.8498 89.8199 92.9148 84.7549 94.6398 81.5199C87.2248 76.6199 101.45 61.4399 104.365 70.6699C113.025 67.1049 98.8648 87.0149 102.76 90.2349C108.715 86.9249 107.455 81.2749 108.345 77.0549C109.375 70.3699 113.99 68.3849 112.955 76.8799C115.695 74.4249 124.76 70.7499 123.725 77.9799C122.11 82.2699 116.61 85.4199 116.35 90.7499C117.135 92.2849 123.38 85.8499 124.095 83.9199C124.565 78.8799 131.04 72.4899 134.9 78.2949C136.135 72.0599 140.79 37.3699 149.205 44.4349C151.385 48.8899 148.97 53.8049 147.905 58.5749C146.43 66.2999 141.905 71.1849 139.245 78.1099C138.785 85.5799 137.175 113.7 148.435 97.9599C148.06 104.46 140.845 106.255 137.76 100.755C134.505 95.5699 135.155 89.5799 134.96 83.5399C132.635 87.0399 123.96 97.0399 123.32 86.9599C120.61 89.6549 115.565 97.9949 113.775 89.1049C113.66 83.8999 117.58 80.4249 120.56 76.2749C118.685 73.8949 113.44 78.3049 112.56 80.3249C111.94 82.3549 112.285 89.8249 108.355 86.4349C99.8849 99.7349 98.8548 87.2549 100.915 78.9999C99.4848 79.9999 98.1148 81.1049 96.3398 81.3549C90.1898 104.05 82.0548 89.9699 85.5148 78.0499C84.8268 77.376 84.0673 76.7792 83.2498 76.2699C81.4298 78.6349 77.9648 81.0499 77.2498 84.0399C78.1898 90.1149 78.0598 96.7049 75.3748 102.67C73.5948 110.17 56.1548 112.865 59.7698 102.04C72.2698 80.8949 76.5798 92.4399 70.4448 69.5799C44.0948 107.365 38.4448 74.8349 53.5198 50.6449C63.6848 34.4099 77.7198 39.2349 74.0198 52.0549C70.8148 58.9199 76.0848 42.3949 68.2598 42.6449C54.4798 46.8749 43.0648 91.6449 57.1248 82.4699C73.8698 66.8999 66.7198 67.2149 70.0148 58.3499C73.7548 54.4649 76.6198 79.4999 76.9198 80.8499V80.8499ZM73.6199 87.2449C70.0049 90.0399 52.9498 108.745 66.0748 106.49C73.7898 103.805 74.2049 94.2299 73.6199 87.2449ZM148.09 45.1549C142.52 52.6549 140.975 64.0799 139.59 73.4599C145.105 65.9299 150.195 49.9099 148.09 45.1549V45.1549ZM103 72.0899C102.7 65.1599 94.4698 74.5899 96.7048 78.4299C98.5798 79.4299 103.765 74.1899 103 72.0899ZM128.305 88.2349C130.924 85.8306 133.159 83.04 134.935 79.9599C134.775 79.2699 134.145 79.4599 133.81 79.2399C133.575 78.7399 133.445 78.2399 132.98 77.9699C130 78.3649 126.525 86.1099 128.285 88.2349H128.305ZM83.4448 72.7349C84.9448 70.2699 87.4448 67.3849 86.8098 64.3299C81.8248 61.0999 80.9999 69.8099 83.4249 72.7349H83.4448Z" fill="#68482D"/>
<path fill-rule="evenodd" clip-rule="evenodd" d="M154.375 175.645C156.118 174.138 157.681 172.435 159.035 170.57C153.62 163.18 157.65 154.375 160.88 167.52C162.325 166.52 163.155 163.565 164.18 161.705C155.86 154.6 162.395 143.94 165.385 158.515C166.14 157.695 167.295 155.205 167.965 153.015C160.535 143.41 166.615 138.695 169.155 149.665C169.92 149.14 171.19 144.855 171.565 143.755C163.565 138.455 166.54 130.665 172.51 139.81C173.565 138.46 173.71 135.465 174.29 133.44C166.94 130.38 166.935 122.34 174.88 130.265C175.38 129.545 175.18 128.765 175.545 128.05C165.85 118.255 168.945 109.095 175.385 122.34C173.93 107.46 180.12 105.84 178.615 121.59C187.685 115.375 182.285 125.59 177.555 127.825C177.47 128.62 177.395 129.325 177.3 130.23C186.935 125.605 183.03 133.04 176.405 134.53C176.005 136.295 175.6 138.1 175.18 139.97C183.825 137.155 180.61 144.755 173.855 144.71C173.17 146.16 172.685 147.71 172.11 149.3C181.84 148.77 178.725 155.2 170.355 154.015C169.447 155.578 168.714 157.236 168.17 158.96C179.795 157.735 174.4 165.855 166.17 163.11C165.315 164.54 164.42 166.55 163.435 168.45C174.995 168.75 170.035 176.295 161.235 171.52C159.875 173.274 158.423 174.955 156.885 176.555C160.805 176.52 168.1 180.97 159.62 181.145C156.995 181.365 155.75 178.955 153.41 179.495C150.005 181.46 145.635 187.095 142.175 184.695C145.035 182.315 149.335 180.195 152.37 177.295C146.7 168.1 153.67 163.43 154.375 175.645Z" fill="#7490A1"/>
<path fill-rule="evenodd" clip-rule="evenodd" d="M27.14 53.68C28.06 53.76 27.935 51.99 29.2 51.35C31.045 51.14 29.7 53.165 29.145 54.485C33.645 53.445 24.965 60.395 24.7 61.885C22.5 69.5 22.145 78.2449 21.895 86.5599C23.235 83.6649 24.18 79.7099 25.785 76.5049C25.785 75.2099 26.905 65.365 28.47 69.865C30.585 66.6 31.405 67.865 29.705 71.69C31.4 69.525 35.39 67.1549 31.66 72.3949C34.25 71.9799 33.115 73.705 30.995 75.135C17.735 83.815 22.245 112.265 26.415 121.895C27.415 115.355 26.475 108.525 25.915 101.585C26.175 98.1099 27.77 99.7649 27.99 103.215C28.065 100.395 31.78 93.5999 30.155 101.96C31.655 98.8149 34.155 98.1949 31.715 103.21C36.95 101.8 30.03 108.21 29.095 109.82C27.78 117.105 28.665 124.345 29.95 131.71C21.205 123.535 21.605 107.91 14.265 97.94C12 96.15 2.64002 88.0849 10.605 92.5599C9.29002 90.5599 6.26003 82.56 11.21 89.8C9.21002 85.165 9.11002 81.175 12.87 88.8C12.79 82.915 14.005 85.605 14.91 89.8C16.955 84.3 16.295 94.745 16.595 97.23C17.66 100.145 18.85 102.46 20.12 105.51C20.12 97.28 19.06 88.7949 19.9 80.2549C17.77 72.0049 18.76 69.255 11.9 65.615C11.265 64.91 11.9 64.455 12.87 64.405C12.59 63.17 10.215 57.79 14.085 61.55C13.425 60.6 13.38 56.375 15.28 60.595C16.255 55.24 17.015 58.13 17.43 62.165C17.773 66.3143 18.711 70.3927 20.215 74.275C21.15 70.035 21.97 64.855 22.715 59.94C22.555 57.51 20.855 44.535 23.795 52.095C24.665 46.905 26.37 46.52 25.47 52.705C27.97 47.295 29.97 47.8 27.145 53.705C27.1726 53.7302 27.1947 53.7608 27.21 53.795C27.21 53.795 27.21 53.85 27.18 53.88L27.14 53.68Z" fill="#F2B065"/>
<path fill-rule="evenodd" clip-rule="evenodd" d="M59.405 182.44C61.1417 183.976 62.9791 185.394 64.905 186.685C63.195 171.59 69.515 178.04 67.905 188.775C69.96 190.6 73.78 191.435 75.405 194.15C71.69 195.38 68.485 190.335 64.72 191.195C52.345 195.07 48.915 185.93 62.645 188.505C60.95 186.875 59.205 185.825 57.205 184.07C45.12 189 38.5 175.73 54.42 181.545C52.42 179.38 50.245 176.98 48.15 174.335C36.35 177.835 32.72 165.76 45.875 171.89C45.375 170.07 42.875 167.795 41.58 165.755C27.645 166.14 27.38 157.255 38.895 161.935C34.945 153.73 32.15 157.685 27.34 153.76C25.62 152.785 23.295 148.955 27.005 148.995C29.505 149.97 31.03 151.495 33.505 153.205C26.005 140.205 32.22 132.36 35.705 150.635C41.155 139.43 44.205 150.71 37.265 155.32C37.72 156.645 40.135 160.25 41.265 161.355C44.37 148.32 48.62 157.96 43.955 165.03C45.0794 166.799 46.3866 168.445 47.855 169.94C48.195 155.22 55.04 166.04 50.655 173.52C52.2275 175.454 53.9227 177.284 55.73 179C56 163.295 61.72 174.5 59.405 182.44V182.44Z" fill="#7490A1"/>
<path fill-rule="evenodd" clip-rule="evenodd" d="M161 68.78C160.265 67.84 151.975 66.355 157.5 65.375C156.84 64.555 156.685 62.905 158.9 64.175C158.875 62.58 157.065 62.535 159.77 60.715C163.415 64.425 164.92 70.88 168.985 74.98C166.73 68.815 166.015 61.785 162.3 56.305C160 53.68 155.3 56.655 153.13 53.865C153.215 53.365 153.755 53.17 154.985 53.025C153.72 52.185 152.36 49.27 155.9 50.86C155.125 49.42 152.26 46.47 156.59 47.44C157.035 40.09 160.175 53.695 162.325 53.9C162.625 48.53 158.73 43.16 157 37.745C156.06 34.42 156.965 30.035 159.875 35.095C160.84 31.625 162.775 30.095 163.19 35.825C164.645 33.77 167.69 32.17 165.815 37.105C170.065 38.21 162.055 42.705 162.815 45.93C163.62 51.3 165.285 56.26 167.04 61.385C168.295 58.92 164.54 44.3 168.445 49.98C169.3 47.045 171.78 44.245 170.47 50.48C172.11 47.08 174.115 46.585 172.515 51.855C176.015 49.855 175.405 52.52 172.585 54.815C170.32 57.225 168.585 59.87 168.525 63.28C168.845 69.58 171.635 74.735 173.13 80.945C173.75 78.72 174.725 75.995 174.515 73.36C174.2 71.86 172.095 67.295 174.015 66.045C174.735 66.16 174.745 67.14 175.015 68.2C175.015 63.44 176.26 60.27 176.925 68.06C177.805 67.215 177.35 65.775 178.25 64.405C179.97 63.54 179.08 66.44 178.875 67.905C183.47 63.58 180.26 68.405 179.28 71.085C185.57 66.56 179.845 73.055 177.24 75.225C176.03 77.625 175.665 80.68 174.74 83.365C172.79 87.54 175.98 93.805 172.74 97.325C171.3 93.325 172.24 88.255 171.175 83.65C169.25 79.11 167.305 74.505 163.63 71.15C159.875 70.855 151.34 67.67 161 68.78V68.78Z" fill="#F2B065"/>
<path d="M136.87 9.61002C135.67 8.74502 133.775 9.21002 132.01 9.05502C133.205 -0.129981 122.48 0.555019 125.705 9.84502C118.705 9.96002 118.875 17.38 126.705 16.2C127.24 25.425 136.47 22.745 133.125 14.7C135.74 15.11 140 12.155 136.87 9.61002V9.61002Z" fill="#F29FA1"/>
<path d="M26.835 171.855C26.025 169.925 23.96 170 21.885 170.76C20.195 165.26 14.32 166.76 16.885 172.855C11.68 173.215 12.18 180.855 18.42 177.855C20.15 184.39 26.565 181.275 23.515 175.855C24.725 175.27 27.365 174 26.835 171.855Z" fill="#F29FA1"/>
<path fill-rule="evenodd" clip-rule="evenodd" d="M72.3599 4.65997C72.6149 2.80997 75.9399 -2.79503 77.5349 1.71497C77.7799 5.64497 77.0049 10.275 74.5599 13.625C69.4049 10.145 64.5449 -2.93003 72.3599 4.65997Z" fill="#F27482"/>
<path fill-rule="evenodd" clip-rule="evenodd" d="M185.59 94.1349C191.18 83.3649 189.795 102.83 185.255 102.635C181.075 100.5 178.09 85.4999 185.59 94.1349Z" fill="#F27482"/>
<path fill-rule="evenodd" clip-rule="evenodd" d="M166.905 14.67C170.365 6.21997 174.035 10.67 170.045 17.17C166.545 26.01 164.77 19.29 162.6 14.45C162.14 8.11997 164.91 10.84 166.905 14.67V14.67Z" fill="#F27482"/>
<path fill-rule="evenodd" clip-rule="evenodd" d="M34.8298 33.465C32.4548 32.28 24.9248 19.465 33.2648 24.54C33.9248 22.71 36.7648 18.04 38.0348 23.005C37.3298 26.635 36.5848 30.155 34.8298 33.465Z" fill="#F27482"/>
<path fill-rule="evenodd" clip-rule="evenodd" d="M7.59483 130.13C7.94983 119.755 14.5948 130.415 11.2048 135.43C8.33983 137.085 -0.165168 127.745 7.59483 130.13V130.13Z" fill="#F27482"/>
<path fill-rule="evenodd" clip-rule="evenodd" d="M21.2348 53.6799V53.8649C21.2348 53.8349 21.2698 53.8049 21.2348 53.7799C21.1998 53.7549 21.1948 53.7199 21.1748 53.6899L21.2348 53.6799Z" fill="#F27482"/>
<path fill-rule="evenodd" clip-rule="evenodd" d="M131.065 12.825C131.035 14.165 129.97 14.68 128.535 13.99C126.25 12.43 130.715 9.45003 131.065 12.825Z" fill="#FFC482"/>
<path d="M118.96 31C118.81 28.42 116.335 28.5 114.03 29.36C111.365 22.765 106.08 25.59 108.405 32.065C101.935 34.065 104.905 39.965 110.405 37.22C111.93 43.44 119.28 41.22 116.405 34.775C117.75 34.105 119.04 32.89 118.96 31V31Z" fill="#F29FA1"/>
<path fill-rule="evenodd" clip-rule="evenodd" d="M113.555 33.295C113.715 35.47 110.055 35.365 110.555 32.94C110.97 31.725 113.43 31.585 113.555 33.295Z" fill="#FFC482"/>
<path d="M137.55 189.795C136.415 188.41 134.79 188.53 132.66 189.34C130.215 182.055 123.37 186.215 128.025 192.13C124.11 194.23 124.025 199.995 129.86 197.485C131.695 203.935 137.64 200.625 135.33 194.94C136.76 194.125 139.42 191.545 137.55 189.795V189.795Z" fill="#F29FA1"/>
<path fill-rule="evenodd" clip-rule="evenodd" d="M133.41 194.34C133.33 196.16 129.965 195.49 130.41 193.5C131 191.82 133.46 192.5 133.41 194.34Z" fill="#FFC482"/>
<path d="M192.43 40.08C191.368 40.1336 190.342 40.4797 189.465 41.08C188.225 33.68 181.68 37.77 184.265 43.135C178.54 44.635 178.145 50.855 185.125 48.28C187.42 55.025 193.84 52.23 191.03 45.565C193.625 45.255 196.74 40.63 192.43 40.08V40.08Z" fill="#F29FA1"/>
<path fill-rule="evenodd" clip-rule="evenodd" d="M188.8 44.775C188.985 46.55 185.25 46.055 186.57 43.705C187.27 42.69 188.95 42.95 188.8 44.775Z" fill="#FFC482"/>
<path d="M12.5949 37.41C11.7749 37.125 10.9849 37.135 9.68492 37.11C8.05992 29.815 2.63992 32.445 4.31992 39.04C-2.55008 38.34 -0.595084 46.075 5.77492 44.12C5.87492 50.75 13.0149 48.955 10.0799 42.68C12.7149 42.685 16.2499 39 12.5949 37.41Z" fill="#F29FA1"/>
<path fill-rule="evenodd" clip-rule="evenodd" d="M7.14987 41.8849C5.72987 41.9449 4.92487 39.4849 6.90487 39.1249C8.46487 39.1099 9.25487 41.4999 7.14987 41.8849Z" fill="#FFC482"/>
<path d="M199.62 120.19C198.62 118.25 197.015 118.325 194.83 119.01C193.515 113.9 188.935 114.51 189.635 120.665C184.765 121.29 185.77 127.235 191.07 126.33C192.045 131.455 198.07 131.37 196.145 125.075C197.78 124.415 200.825 122.78 199.62 120.19Z" fill="#F29FA1"/>
<path fill-rule="evenodd" clip-rule="evenodd" d="M194.255 122.3C194.23 124.105 191.39 124.3 191.795 121.985C191.967 121.391 192.546 121.011 193.16 121.089C193.773 121.168 194.238 121.682 194.255 122.3Z" fill="#FFC482"/>
<path fill-rule="evenodd" clip-rule="evenodd" d="M22.2299 174.415C22.0299 177.035 18.4799 176.585 19.0099 173.83C19.5699 172.26 22.1599 172.605 22.2299 174.415Z" fill="#FFC482"/>
</g>
<defs>
<clipPath id="clip0_1_4069">
<rect width="200" height="201" fill="white"/>
</clipPath>
</defs>
</svg>
