<svg width="200" height="58" viewBox="0 0 200 58" fill="none" xmlns="http://www.w3.org/2000/svg">
<path d="M24.7864 37.882L36.4231 43.8649C36.218 41.8478 35.3206 37.9461 34.6667 35.2709C31.4018 36.0743 28.1083 36.9447 24.7864 37.882V37.882Z" fill="#FCCAC3"/>
<path d="M176.662 37.194L164.667 42.4119C165 40.4077 165.949 37.2111 166.765 34.5829C170.658 35.5273 173.282 36.1427 176.662 37.194Z" fill="#FCCAC3"/>
<path d="M24.7863 37.882C24.7863 37.882 22.4744 35.4418 20.0171 30.7367C4.76923 37.7922 0 54.1256 0 54.1256C4.32479 48.3307 16.0128 47.2581 16.0128 47.2581C12.9786 49.8991 11.4444 57.8649 11.4444 57.8649C20.5897 44.5871 36.4359 43.8692 36.4359 43.8692L24.7863 37.882Z" fill="#FCCAC3"/>
<path d="M199.936 51.6855C199.936 51.6855 194.487 36.9077 179.774 29.0743L176.662 37.194L164.667 42.4119C164.667 42.4119 180.432 44.1214 188.718 57.9632C188.718 57.9632 188.863 48.6726 186 45.8436C186 45.8436 195.077 46.5957 199.936 51.6855V51.6855Z" fill="#FCCAC3"/>
<path d="M14.9573 14.7709C14.9573 14.7709 88.9872 -15.9043 185.65 13.8777L176.662 37.1939C176.662 37.1939 105.953 14.6897 24.7863 37.882C24.7863 37.882 17.1368 29.8563 14.9573 14.7709V14.7709Z" fill="#FCCAC3"/>
<path opacity="0.8" d="M24.7864 37.882L36.4231 43.8649C36.218 41.8478 35.3206 37.9461 34.6667 35.2709C31.4018 36.0743 28.1083 36.9447 24.7864 37.882V37.882Z" fill="#FCCAC3"/>
<path opacity="0.8" d="M176.662 37.194L164.667 42.4119C165 40.4077 165.949 37.2111 166.765 34.5829C170.658 35.5273 173.282 36.1427 176.662 37.194V37.194Z" fill="#FCCAC3"/>
<path opacity="0.3" d="M24.7863 37.882C24.7863 37.882 22.4744 35.4418 20.0171 30.7367C4.76923 37.7922 0 54.1256 0 54.1256C4.32479 48.3307 16.0128 47.2581 16.0128 47.2581C12.9786 49.8991 11.4444 57.8649 11.4444 57.8649C20.5897 44.5871 36.4359 43.8692 36.4359 43.8692L24.7863 37.882Z" fill="#FCCAC3"/>
<path opacity="0.3" d="M199.936 51.6855C199.936 51.6855 194.487 36.9077 179.774 29.0743L176.662 37.194L164.667 42.4119C164.667 42.4119 180.432 44.1213 188.718 57.9632C188.718 57.9632 188.863 48.6726 186 45.8436C186 45.8436 195.077 46.5957 199.936 51.6855V51.6855Z" fill="#FCCAC3"/>
<path d="M34.923 24.0572L34.4016 22.023L38.2136 21.0443L39.2777 25.1982C37.3162 29.5315 30.111 29.9802 28.0213 24.6426C25.2991 17.429 33.2991 14.0358 36.9486 16.758L35.8674 20.4717C31.5384 18.1341 30.6281 24.9375 34.923 24.0572V24.0572Z" fill="#A86D85"/>
<path d="M47.4573 25.4631L44.7522 21.8905L44.5941 21.9204L45.3633 25.8691L41.1753 26.6853L38.8291 14.664C44.812 12.3435 52.1197 13.2623 48.6582 20.4161L52.3035 24.5229L47.4573 25.4631ZM44.4659 18.7324C45.8035 18.3947 45.2308 16.3264 43.6112 16.9375L43.9829 18.8264L44.4659 18.7324Z" fill="#A86D85"/>
<path d="M64.1794 22.8306L59.4785 23.5058L58.893 21.8092L56.7819 22.1127L56.705 23.8904L52.0042 24.5656L53.5811 11.9802L59.1067 11.1853C59.1324 11.2494 64.1794 22.8306 64.1794 22.8306V22.8306ZM58.0084 19.1169L56.9913 16.0827L56.8717 19.2836L58.0084 19.1169Z" fill="#A86D85"/>
<path d="M68.9188 16.9161L69.4273 22.3221L65.1795 22.7196L64.0256 10.523L68.7649 10.0743L72.0555 15.2025L71.5427 9.80076L75.7906 9.39905L76.9444 21.5999L72.2051 22.0273L68.9188 16.9161Z" fill="#A86D85"/>
<path d="M83.7008 21.429C81.0769 21.5572 78.7735 21.4888 78.7735 21.4888L78.2051 9.25374C93.7435 5.74519 92.3888 21.5059 83.7008 21.429V21.429ZM83.517 17.5828C86.5085 17.4332 85.7136 11.8136 82.6282 12.7195L82.8632 17.617L83.517 17.5828Z" fill="#A86D85"/>
<path d="M101.893 12.7238C102.004 16.0486 98.9658 17.4631 96.0128 16.9588L96.0384 20.899L91.7649 20.9247L91.6794 8.6768C95.0982 8.44603 101.974 7.47167 101.893 12.7238V12.7238ZM96.6453 13.7195C98.1965 13.5101 97.7264 11.446 95.9786 11.7965V13.7238L96.6453 13.7195Z" fill="#A86D85"/>
<path d="M113.816 21.2067L109.06 21.0656L108.782 19.305L106.645 19.2409L106.265 20.9802L101.509 20.8391L105.231 8.69385L110.812 8.86051C110.829 8.92889 113.816 21.2067 113.816 21.2067V21.2067ZM108.372 16.5058L107.893 13.3391L107.222 16.4716L108.372 16.5058Z" fill="#A86D85"/>
<path d="M121.235 21.7152L119.526 17.5614H119.363L119.09 21.5785L114.816 21.2836L115.649 9.06139C122.06 8.37335 128.842 11.1298 123.654 17.1511L126.111 22.0571L121.235 21.7152ZM120.085 14.4503C121.47 14.4503 121.449 12.3135 119.726 12.4973L119.594 14.4161L120.085 14.4503Z" fill="#A86D85"/>
<path d="M131.295 19.0913L136.192 19.5999L135.833 23.0913L126.688 22.1426L127.97 9.95459L136.752 10.8606L136.393 14.3435L131.82 13.8691L131.731 14.7238L135.974 15.1512L135.615 18.6298L131.367 18.2025L131.295 19.0913Z" fill="#A86D85"/>
<path d="M142.184 18.4588L141.423 23.8306L137.179 23.2323L138.889 11.0999L143.59 11.7665L145.632 17.5358L146.393 12.164L150.62 12.7622L148.91 24.8905L144.209 24.2238L142.184 18.4588Z" fill="#A86D85"/>
<path d="M162.594 14.8947L161.88 18.8563L158.812 18.305L157.355 26.399L153.154 25.6554L154.611 17.5358L151.543 16.9802L152.256 13.0187L162.594 14.8947Z" fill="#A86D85"/>
<path d="M166.508 24.3051C157.692 18.0273 168.158 12.0273 172.491 18.6897L170.414 20.9546C169.987 19.5871 166.107 18.9717 168.611 20.835C170.265 21.7709 171.978 23.8734 170.889 26.2025C168.389 31.1427 161.487 26.929 161.192 25.2581L163.248 22.9888C163.085 22.8991 165.551 25.6555 166.508 24.3051V24.3051Z" fill="#A86D85"/>
</svg>
