<svg width="200" height="119" viewBox="0 0 200 119" fill="none" xmlns="http://www.w3.org/2000/svg">
<path opacity="0.153204" d="M195.285 69.2308L195.063 69.0181C214.887 19.0769 125.312 4.94571 71.724 20.0634C67.2534 -1.00452 38.5158 -1.6561 32.4117 15.991C8.81898 3.94571 -9.09052 36.0272 11.0181 52.19C-36.5747 114.33 85.4751 131.195 140.014 108.674C145.647 112.466 157.262 112.412 164.181 113.199C164.747 109.67 166.389 100.421 166.661 96.7466C167.566 96.2127 168.471 95.6697 169.353 95.1222C172.262 98.5158 174.041 100.552 176.208 103.036C185.244 96.6335 209.647 84.7919 195.285 69.2308V69.2308Z" fill="black"/>
<path d="M198.366 49.5702C202.403 117.729 14.1266 142.421 0.96826 77.2806C-3.06794 9.12218 185.213 -15.5701 198.366 49.5702V49.5702Z" fill="white"/>
<path d="M66.0089 10.4073C54.018 -3.10857 36.2352 4.9231 34.7284 18.1448C8.00441 -0.0768986 -11.9006 42.905 31.3302 58.0091C39.8596 61.8281 52.0904 67.0226 52.199 67.0588C57.8551 55.1267 77.9637 25.5204 66.0089 10.4073Z" fill="#FF4749"/>
<path d="M53.5927 70.9729C-36.724 39.8552 16.2081 -0.321248 32.9231 13.095C50.5701 -17.6742 89.4389 10.448 64.7556 49.3575C59.5927 59.5883 55.8778 66.5928 53.5927 70.9729V70.9729ZM21.1945 16.6245C-13.5883 33.3665 29.733 56.2217 50.8009 63.1629C92.9185 -4.23528 34.8688 -3.89138 36.9593 24.3982C32.0678 20.362 30.7692 16.3937 21.1945 16.6245V16.6245Z" fill="white"/>
<path d="M196.167 73.0045C193.878 64.1312 183.43 63.991 180.059 69.5792C175.213 58.638 159.941 65.5068 163.276 76.2987C164.52 82.9955 174.461 92.4661 177.172 95.9774C182.434 91.7376 198.14 82.7692 196.167 73.0045V73.0045Z" fill="#FF4749"/>
<path d="M176.724 100.1C140.072 63.7602 173.832 55.3349 180.588 64.7421C191.113 57.6019 202.76 69.6878 198.511 79.3168C195.068 88.6516 183.185 94.7557 176.724 100.1V100.1ZM171.416 67.0679C158.145 71.0544 172.145 85.62 177.624 91.8281C207.538 73.3078 186.018 60.0996 179.335 76.1584C177.552 72.715 177.556 66.8553 171.416 67.086V67.0679Z" fill="white"/>
<path d="M160.181 81.9593C153.846 77.9322 147.149 83.9458 148.416 89.3304C130.81 87.3304 134.792 108.937 162.145 106.977C162.846 101.358 167.091 86.7059 160.181 81.9593V81.9593Z" fill="#FF4749"/>
<path d="M164.706 110.258C120.507 109.864 135.425 84.3258 145.529 85.5973C148.244 74.6244 163.421 75.7783 166.081 85.0543C168.982 93.0814 165.43 103.376 164.706 110.258V110.258ZM144.615 91.7285C132.905 99.3846 151.213 104.109 159.602 103.706C166.471 76.6968 147.086 79.9819 152.489 94.5701C150.149 93.7104 147.652 91.6742 144.615 91.7285Z" fill="white"/>
<path d="M15.6245 46.9186C15.5928 50.4208 10.0634 47.6652 13.8552 45.5611C14.3937 45.5475 15.181 45.7828 15.6245 46.9186Z" fill="#DA010A"/>
<path d="M11.6019 42.8733C11.5657 46.3755 6.04085 43.6199 9.83271 41.5158C10.3666 41.4977 11.154 41.7375 11.6019 42.8733V42.8733Z" fill="#DA010A"/>
<path d="M8.76917 38.2172C8.73298 41.7195 3.20809 38.9683 6.99994 36.8824C7.53388 36.8462 8.32121 37.1041 8.76917 38.2172Z" fill="#DA010A"/>
<path d="M7.23979 33.0951C7.2036 36.5973 1.67871 33.8462 5.46604 31.7376C6.0226 31.724 6.80993 31.9593 7.23979 33.0951Z" fill="#DA010A"/>
<path d="M7.3936 27.4842C7.3574 30.9865 1.83252 28.2354 5.61985 26.1268C6.15831 26.1132 6.94564 26.3485 7.3936 27.4842Z" fill="#DA010A"/>
<path d="M9.50216 22.4661C9.47048 25.9729 3.94107 23.2172 7.73293 21.1358C8.27139 21.095 9.04967 21.3303 9.50216 22.4661Z" fill="#DA010A"/>
<path d="M12.8417 18.4344C12.8055 21.9367 7.2806 19.1856 11.0725 17.077C11.6064 17.0634 12.3937 17.2987 12.8417 18.4344Z" fill="#DA010A"/>
<path d="M17.5746 15.0498C17.5384 18.5566 12.0135 15.801 15.8054 13.715C16.3393 13.6788 17.1266 13.9141 17.5746 15.0498Z" fill="#DA010A"/>
<path d="M23.4162 13.3846C23.3845 16.8869 17.8551 14.1312 21.647 12.0498C22.1719 12.009 22.9728 12.2488 23.4162 13.3846Z" fill="#DA010A"/>
<path d="M29.4118 14.1222C29.3756 17.629 23.8507 14.8733 27.6425 12.7919C28.1855 12.7512 28.9593 12.9865 29.4118 14.1222V14.1222Z" fill="#DA010A"/>
<path d="M33.8326 15.9321C33.7964 19.4389 28.2715 16.6832 32.0588 14.5746C32.5792 14.5611 33.3846 14.7964 33.8326 15.9321Z" fill="#DA010A"/>
<path d="M36.9323 19.7874C36.8961 23.2942 31.3712 20.5385 35.163 18.4525C35.697 18.4163 36.4843 18.6516 36.9323 19.7874Z" fill="#DA010A"/>
<path d="M38.0905 12.7014C38.0543 16.2036 32.5294 13.448 36.3212 11.3665C36.8552 11.3122 37.6425 11.5611 38.0905 12.7014Z" fill="#DA010A"/>
<path d="M41.2128 8.0815C41.1766 11.5838 35.6517 8.8281 39.4435 6.74665C39.9775 6.70593 40.7648 6.94575 41.2128 8.0815Z" fill="#DA010A"/>
<path d="M45.8507 4.7602C45.8145 8.26698 40.2896 5.51133 44.0815 3.42988C44.6154 3.38916 45.4028 3.61993 45.8507 4.7602Z" fill="#DA010A"/>
<path d="M51.258 3.27604C51.2264 6.78735 45.7015 4.02717 49.4888 1.9412C50.0228 1.905 50.8101 2.14029 51.258 3.27604Z" fill="#DA010A"/>
<path d="M57.2985 3.83258C57.2669 7.33485 51.7375 4.58371 55.5293 2.47512C56.0633 2.46154 56.8551 2.71494 57.2985 3.83258Z" fill="#DA010A"/>
<path d="M62.3348 5.88242C62.2986 9.38469 56.7738 6.63355 60.5656 4.54758C61.086 4.52496 61.8869 4.76025 62.3348 5.88242Z" fill="#DA010A"/>
<path d="M66.4208 8.86427C66.3846 12.3665 60.8597 9.61088 64.6516 7.52943C65.1855 7.4887 65.9728 7.724 66.4208 8.86427Z" fill="#DA010A"/>
<path d="M69.3756 13.6561C69.3394 17.1584 63.8145 14.4027 67.6064 12.3213C68.1403 12.2806 68.9277 12.5159 69.3756 13.6561Z" fill="#DA010A"/>
<path d="M71.0407 19.2127C71.0091 22.715 65.4796 19.9593 69.2715 17.8552C69.8009 17.8371 70.5882 18.0996 71.0407 19.2127Z" fill="#DA010A"/>
<path d="M76.2533 19.1448C76.2171 22.647 70.6922 19.8914 74.4841 17.7873C75.018 17.7692 75.8053 18.0045 76.2533 19.1448Z" fill="#DA010A"/>
<path d="M81.3349 18.0995C81.3032 21.6063 75.7738 18.8507 79.5657 16.7421C80.0906 16.7104 80.887 16.9457 81.3349 18.0995Z" fill="#DA010A"/>
<path d="M86.9004 17.1945C86.8687 20.7013 81.3393 17.9457 85.1311 15.8371C85.6696 15.8009 86.4569 16.0362 86.9004 17.1945Z" fill="#DA010A"/>
<path d="M92.5385 16.3801C92.5023 19.8869 86.9774 17.1313 90.7692 15.0498C91.3032 15.0091 92.0905 15.2444 92.5385 16.3801Z" fill="#DA010A"/>
<path d="M98.2218 15.5838C98.1856 19.086 92.6607 16.3349 96.4526 14.2489C96.9865 14.2127 97.7738 14.448 98.2218 15.5838Z" fill="#DA010A"/>
<path d="M104.62 15.1086C104.584 18.6108 99.0589 15.8597 102.851 13.7737C103.385 13.7375 104.172 13.9728 104.62 15.1086Z" fill="#DA010A"/>
<path d="M111.312 14.6742C111.281 18.1765 105.751 15.4208 109.543 13.3394C110.054 13.2986 110.86 13.5339 111.312 14.6742Z" fill="#DA010A"/>
<path d="M117.195 14.5022C117.163 18.0045 111.633 15.2534 115.425 13.1674C115.955 13.1222 116.742 13.3665 117.195 14.5022Z" fill="#DA010A"/>
<path d="M123.312 14.2579C123.281 17.7647 117.751 15.009 121.543 12.9004C122.077 12.8869 122.864 13.1222 123.312 14.2579Z" fill="#DA010A"/>
<path d="M129.181 14.4028C129.145 17.905 123.62 15.1494 127.412 13.0679C127.946 13.0272 128.733 13.267 129.181 14.4028Z" fill="#DA010A"/>
<path d="M134.806 14.9955C134.769 18.5023 129.244 15.7466 133.036 13.6652C133.57 13.6244 134.358 13.8597 134.806 14.9955Z" fill="#DA010A"/>
<path d="M140.724 15.3846C140.688 18.8869 135.163 16.1357 138.955 14.0271C139.471 13.9909 140.272 14.2262 140.724 15.3846Z" fill="#DA010A"/>
<path d="M146.471 16.1358C146.434 19.6381 140.91 16.8824 144.701 14.801C145.249 14.7603 146.023 15.0001 146.471 16.1358Z" fill="#DA010A"/>
<path d="M152.231 17.1945C152.199 20.6968 146.67 17.9457 150.461 15.8371C150.995 15.8009 151.787 16.0362 152.231 17.1945Z" fill="#DA010A"/>
<path d="M157.81 18.5521C157.778 22.0589 152.249 19.3032 156.041 17.2173C156.561 17.1946 157.362 17.4073 157.81 18.5521Z" fill="#DA010A"/>
<path d="M163.145 20.362C163.109 23.8642 157.584 21.1086 161.376 19.0045C161.91 19.0045 162.697 19.2217 163.145 20.362Z" fill="#DA010A"/>
<path d="M168.326 22.1992C168.294 25.7014 162.765 22.9458 166.557 20.8417C167.091 20.8145 167.873 21.0589 168.326 22.1992Z" fill="#DA010A"/>
<path d="M173.48 24.1946C173.448 27.6968 167.919 24.9412 171.71 22.8597C172.244 22.819 173.036 23.0769 173.48 24.1946Z" fill="#DA010A"/>
<path d="M178.647 26.6336C178.611 30.1358 173.086 27.3802 176.878 25.2761C177.412 25.258 178.199 25.4933 178.647 26.6336Z" fill="#DA010A"/>
<path d="M182.597 29.9276C182.561 33.4299 177.036 30.6742 180.828 28.5702C181.362 28.5521 182.149 28.7873 182.597 29.9276Z" fill="#DA010A"/>
<path d="M186.697 33.5566C186.661 37.0589 181.136 34.3032 184.928 32.1992C185.462 32.1811 186.249 32.4209 186.697 33.5566V33.5566Z" fill="#DA010A"/>
<path d="M190.597 37.2172C190.561 40.7194 185.036 37.9638 188.828 35.8597C189.362 35.8416 190.149 36.0769 190.597 37.2172Z" fill="#DA010A"/>
<path d="M193.823 42.3032C193.792 45.8054 188.262 43.0498 192.054 40.9683C192.588 40.9276 193.375 41.1765 193.823 42.3032Z" fill="#DA010A"/>
<path d="M196.063 46.9638C196.027 50.4661 190.502 47.715 194.294 45.6064C194.828 45.5928 195.615 45.8281 196.063 46.9638V46.9638Z" fill="#DA010A"/>
<path d="M197.041 52.1132C197.004 55.6154 191.48 52.8598 195.271 50.7557C195.805 50.7376 196.593 50.9729 197.041 52.1132V52.1132Z" fill="#DA010A"/>
<path d="M195.928 57.1448C195.891 60.647 190.367 57.8914 194.158 55.7873C194.674 55.7692 195.475 56.0045 195.928 57.1448V57.1448Z" fill="#DA010A"/>
<path d="M193.882 62.1991C193.851 65.7014 188.321 62.9458 192.113 60.8417C192.647 60.8236 193.434 61.086 193.882 62.1991Z" fill="#DA010A"/>
<path d="M191.769 66.5158C191.733 70.0181 186.208 67.2624 190 65.1584C190.534 65.1222 191.321 65.3575 191.769 66.5158Z" fill="#DA010A"/>
<path d="M196.109 69.8371C196.072 73.3394 190.547 70.5883 194.339 68.4797C194.873 68.4661 195.661 68.7014 196.109 69.8371Z" fill="#DA010A"/>
<path d="M197.968 74.3982C197.932 77.9005 192.407 75.1494 196.199 73.0634C196.733 73.0272 197.52 73.2625 197.968 74.3982Z" fill="#DA010A"/>
<path d="M196.679 78.9412C196.643 82.4434 191.118 79.6878 194.91 77.5837C195.444 77.5656 196.231 77.8009 196.679 78.9412Z" fill="#DA010A"/>
<path d="M193.665 83.0589C193.629 86.5611 188.104 83.81 191.896 81.724C192.412 81.6878 193.213 81.9231 193.665 83.0589Z" fill="#DA010A"/>
<path d="M190.045 87.2625C190.009 90.7647 184.484 88.0091 188.276 85.9276C188.796 85.8869 189.593 86.1222 190.045 87.2625Z" fill="#DA010A"/>
<path d="M184.615 91.4028C184.579 94.905 179.054 92.1494 182.846 90.0679C183.385 90.0453 184.163 90.267 184.615 91.4028Z" fill="#DA010A"/>
<path d="M179.018 95.3575C178.986 98.8598 173.457 96.1041 177.249 94.0001C177.783 93.982 178.57 94.2218 179.018 95.3575Z" fill="#DA010A"/>
<path d="M175.009 91.172C174.973 94.6787 169.448 91.9231 173.24 89.8145C173.756 89.8009 174.561 90.0453 175.009 91.172Z" fill="#DA010A"/>
<path d="M171.195 86.552C171.159 90.0543 165.634 87.3032 169.425 85.2172C169.959 85.181 170.747 85.4163 171.195 86.552Z" fill="#DA010A"/>
<path d="M166.149 89.2534C166.113 92.7557 160.588 90 164.38 87.9186C164.914 87.8779 165.701 88.1132 166.149 89.2534Z" fill="#DA010A"/>
<path d="M165.498 94.4706C165.462 97.9729 159.937 95.2172 163.724 93.1358C164.254 93.095 165.05 93.3303 165.498 94.4706Z" fill="#DA010A"/>
<path d="M164.706 100.195C164.674 103.701 159.145 100.946 162.937 98.8371C163.484 98.8235 164.253 99.0588 164.706 100.195Z" fill="#DA010A"/>
<path d="M163.425 106.032C163.389 109.539 157.864 106.783 161.656 104.674C162.19 104.661 162.977 104.896 163.425 106.032Z" fill="#DA010A"/>
<path d="M157.783 106.389C157.747 109.891 152.222 107.136 156.014 105.032C156.561 105.014 157.335 105.253 157.783 106.389Z" fill="#DA010A"/>
<path d="M152.199 105.71C152.163 109.213 146.638 106.457 150.425 104.353C150.964 104.335 151.751 104.575 152.199 105.71Z" fill="#DA010A"/>
<path d="M146.579 104.072C146.543 107.575 141.018 104.819 144.81 102.738C145.344 102.688 146.154 102.923 146.579 104.072Z" fill="#DA010A"/>
<path d="M141.122 101.923C141.091 105.425 135.561 102.674 139.353 100.588C139.887 100.552 140.674 100.787 141.122 101.923Z" fill="#DA010A"/>
<path d="M135.493 104.036C135.461 107.538 129.932 104.783 133.724 102.701C134.258 102.661 135.045 102.9 135.493 104.036Z" fill="#DA010A"/>
<path d="M130.195 105.575C130.163 109.077 124.633 106.326 128.425 104.24C128.959 104.204 129.751 104.439 130.195 105.575Z" fill="#DA010A"/>
<path d="M124.796 106.95C124.76 110.452 119.235 107.697 123.027 105.593C123.561 105.575 124.348 105.81 124.796 106.95Z" fill="#DA010A"/>
<path d="M119.072 108.186C119.036 111.688 113.511 108.932 117.303 106.828C117.837 106.81 118.624 107.045 119.072 108.186Z" fill="#DA010A"/>
<path d="M113.765 108.928C113.729 112.434 108.204 109.679 111.996 107.597C112.529 107.557 113.317 107.792 113.765 108.928Z" fill="#DA010A"/>
<path d="M107.769 109.873C107.738 113.376 102.208 110.62 106 108.539C106.534 108.498 107.326 108.738 107.769 109.873Z" fill="#DA010A"/>
<path d="M101.394 110.665C101.357 114.172 95.8326 111.416 99.6245 109.33C100.158 109.294 100.946 109.529 101.394 110.665Z" fill="#DA010A"/>
<path d="M95.4977 111.235C95.4615 114.742 89.9366 111.986 93.7285 109.905C94.2624 109.864 95.0497 110.1 95.4977 111.235Z" fill="#DA010A"/>
<path d="M89.1403 111.824C89.1041 115.326 83.5792 112.57 87.371 110.489C87.905 110.448 88.6878 110.683 89.1403 111.824Z" fill="#DA010A"/>
<path d="M83.6788 112C83.6426 115.502 78.1177 112.747 81.905 110.643C82.4435 110.624 83.2308 110.86 83.6788 112Z" fill="#DA010A"/>
<path d="M77.7783 111.833C77.7466 115.339 72.2172 112.584 76.0091 110.502C76.543 110.462 77.3348 110.697 77.7783 111.833Z" fill="#DA010A"/>
<path d="M71.6425 111.593C71.6063 115.095 66.0814 112.344 69.8732 110.235C70.4072 110.222 71.1945 110.457 71.6425 111.593Z" fill="#DA010A"/>
<path d="M65.5341 111.38C65.4979 114.887 59.973 112.131 63.7648 110.05C64.2988 110.009 65.0861 110.244 65.5341 111.38Z" fill="#DA010A"/>
<path d="M59.3619 110.348C59.3257 113.855 53.8009 111.1 57.5927 109.018C58.1267 108.977 58.914 109.213 59.3619 110.348Z" fill="#DA010A"/>
<path d="M53.0226 109.24C52.9864 112.742 47.4615 109.986 51.2534 107.905C51.7873 107.864 52.5746 108.104 53.0226 109.24Z" fill="#DA010A"/>
<path d="M47.0588 107.846C47.0271 111.348 41.4977 108.593 45.2896 106.489C45.819 106.471 46.6063 106.71 47.0588 107.846Z" fill="#DA010A"/>
<path d="M41.4933 106.217C41.4571 109.719 35.9322 106.964 39.7241 104.86C40.2716 104.842 41.0453 105.077 41.4933 106.217Z" fill="#DA010A"/>
<path d="M36.068 104.308C36.0318 107.814 30.5069 105.059 34.2988 102.977C34.8418 102.937 35.62 103.167 36.068 104.308Z" fill="#DA010A"/>
<path d="M30.8688 102.715C30.8326 106.217 25.3077 103.462 29.0996 101.38C29.6335 101.33 30.4208 101.57 30.8688 102.715Z" fill="#DA010A"/>
<path d="M26 100.566C25.9683 104.072 20.4389 101.317 24.2307 99.2354C24.7647 99.1946 25.5565 99.4299 26 100.566Z" fill="#DA010A"/>
<path d="M21.5429 97.5204C21.5113 101.027 15.9818 98.2715 19.7737 96.1629C20.3076 96.1493 21.0995 96.3801 21.5429 97.5204Z" fill="#DA010A"/>
<path d="M17.1945 94.3259C17.1583 97.8281 11.6334 95.077 15.4252 92.9684C15.9365 92.9548 16.742 93.2127 17.1945 94.3259Z" fill="#DA010A"/>
<path d="M12.8644 90.7783C12.8282 94.2806 7.3033 91.5249 11.0952 89.4209C11.6291 89.4028 12.4164 89.6381 12.8644 90.7783Z" fill="#DA010A"/>
<path d="M9.52479 86.4253C9.48859 89.9321 3.9637 87.1765 7.75556 85.0679C8.2895 85.0679 9.07683 85.2986 9.52479 86.4253Z" fill="#DA010A"/>
<path d="M6.98646 81.7919C6.95026 85.2941 1.42537 82.5385 5.21723 80.457C5.75117 80.4163 6.5385 80.6516 6.98646 81.7919Z" fill="#DA010A"/>
<path d="M5.5702 76.6381C5.534 80.1403 0.00911427 77.3847 3.80097 75.2806C4.33491 75.2625 5.12224 75.4978 5.5702 76.6381Z" fill="#DA010A"/>
<path d="M5.52943 71.4118C5.49323 74.914 -0.0316572 72.1584 3.7602 70.0769C4.29413 70.0362 5.08146 70.2715 5.52943 71.4118Z" fill="#DA010A"/>
<path d="M6.26234 66.5159C6.22614 70.0182 0.701253 67.2625 4.49311 65.1584C5.02704 65.1222 5.81438 65.362 6.26234 66.5159Z" fill="#DA010A"/>
<path d="M8.27593 61.3666C8.23973 64.8688 2.71484 62.1177 6.50217 60.0091C7.04063 59.9955 7.82796 60.2308 8.27593 61.3666Z" fill="#DA010A"/>
<path d="M10.9729 56.8733C10.9368 60.3756 5.41186 57.6199 9.19919 55.5158C9.73765 55.4977 10.525 55.733 10.9729 56.8733V56.8733Z" fill="#DA010A"/>
<path d="M13.5747 52.7556C13.543 56.2624 8.01358 53.5068 11.8054 51.4253C12.3213 51.3846 13.1222 51.6199 13.5747 52.7556Z" fill="#DA010A"/>
<path d="M183.991 54.0317C184.552 50.4525 179.57 47.5792 176.91 50.0362C176.529 45.6788 169.964 44.0996 168.199 49.3982C166.946 53.3665 170.76 59.4842 171.647 62.0679C174.833 60.8145 183.195 59.0136 183.991 54.0317V54.0317Z" fill="#FF4749"/>
<path d="M161.489 41.1765C160.679 39.5611 156.407 39.9231 156.308 42.5747C146.566 40.4253 153.991 50.4977 159.389 50.6561C160.344 48.5566 163.348 44.1357 161.489 41.1765Z" fill="#FF4749"/>
<path d="M153.946 29.4389C154.131 28.466 152.842 26.5339 151.109 27.6606C148.615 22.6244 146.154 29.3303 148.719 32.4977C150.471 31.8688 152.869 31.7918 153.946 29.4389Z" fill="#FF4749"/>
<path d="M136.158 37.1945C135.959 45.9049 138.072 49.5022 141.715 43.4163C141.941 45.3031 141.231 53.7194 145.765 52.0135C146.846 51.4344 146.873 50.5248 146.453 50.6561C142.163 56.4479 144.466 28.4841 141.575 38.5158C141.471 40.7782 140.955 43.4932 139.887 45.0995C136.502 49.1674 140.661 34.3348 136.158 37.1945Z" fill="#231F20"/>
<path d="M131.461 37.7421C127.751 38.1946 128.661 48.3666 133.014 47.2082C135.511 47.3485 136.855 37.7059 132.986 38.9503C131.131 42.9186 138.416 39.5747 137.629 38.1132C136.905 37.1675 135.909 41.0679 133.525 40.3349C132.95 39.8055 133.461 38.8371 134.095 39.2942C136.905 43.819 131.452 50.8326 131.194 42.7512C130.624 39.8191 134.928 37.7195 131.461 37.7421V37.7421Z" fill="#231F20"/>
<path d="M97.3485 41.991C93.3576 42.4887 94.3937 53.362 99.0046 52.0724C101.842 52.0996 102.941 41.8416 98.9729 43.2805C97.163 47.4977 103.923 43.9457 104 42.7647C103.661 41.2398 102.339 44.4208 100.335 44.8778C98.9277 45.0271 99.1811 42.9593 100.154 43.6425C103.226 48.7421 97.0634 55.9864 97.0815 46.9774C96.629 44.0633 101.005 41.9593 97.3485 41.991Z" fill="#231F20"/>
<path d="M122.525 40.4163C121.982 54.2534 127.339 45.1176 125.896 39.0271C131.145 35.5972 128.104 59.733 124.706 58.914C116.778 61.4208 119.244 50.1855 125.656 49.3439C127.683 48.8371 131.67 48.5429 132.109 49.7963C127.407 48.362 117.869 51.7194 121 57.8054C125.873 61.7782 126.57 49.4887 126.357 45.8461C119.873 56.2715 118.86 33.7692 122.525 40.4163Z" fill="#231F20"/>
<path d="M76.543 44.7964C71.4977 43.8191 76.543 35.2942 80.2986 35.4888C83.466 38.8779 83.5656 61.1765 72.8235 54.7557C66.6832 48.3892 77.2262 42.5069 77.7737 48.8734C70.6968 40.8145 69.8597 59.1901 78.4796 53.1584C83.9502 24.8869 71.4344 41.629 76.543 44.7964V44.7964Z" fill="#231F20"/>
<path d="M90.665 49.9502C90.665 49.9502 97.4524 32.6696 92.2578 33.371C87.8324 33.9683 86.6152 53.733 92.656 52.9592C95.8234 52.561 96.2442 47.2262 96.2442 47.2262L95.5971 47.1629C90.4026 63.8009 89.1944 36.9864 92.76 35.4887C96.0723 35.9592 88.7238 49.4977 90.665 49.9502Z" fill="#231F20"/>
<path d="M103.068 41.4751C101.258 63.8236 114.67 41.0724 105.964 41.3032C104.394 46.0453 111.439 42.1675 111.765 41.6607L111.688 41.1313C111.611 40.9231 108.701 43.8462 106.742 42.991C106.045 41.8733 107.194 40.9322 107.52 41.9729C108.986 44.7512 106.67 53.8009 104.584 49.5747C103.66 46.2579 106.674 40.3122 103.068 41.4751V41.4751Z" fill="#231F20"/>
<path d="M112.95 39.9005C104.855 42.5249 112.145 57.5702 116.444 45.5657H115.91C110.407 57.2218 111.339 36.4933 113.575 43.3756C113.004 45.1243 112.08 46.737 110.86 48.1132L111.072 48.905C116.127 43.439 114.48 40.0363 112.95 39.9005Z" fill="#231F20"/>
<path d="M72.3983 77.5249C71.6788 92.0407 73.3938 86.9095 75.2399 77.3258C78.3304 72.7692 75.4842 83.0045 77.5476 85.1991C80.4345 87.4615 82.4842 79.8733 82.0137 79.9547L81.5612 79.6018C82.1042 79.7647 79.5431 86.6651 78.6562 84.181C79.1087 78.6832 78.4254 71.3394 74.1947 77.7376C74.163 77.3439 72.5205 74.5204 72.3983 77.5249V77.5249Z" fill="#231F20"/>
<path d="M128.733 68.6335C129.208 71.9547 126.529 80.2308 130.344 78.2127C130.629 75.2715 130.878 65.9955 133.511 67.6425C132.285 83.6335 139.249 76.7511 139.362 71.3213L138.86 70.9276C139.493 71.3439 136.344 79.2036 135.602 75.733C136.339 68.9909 135.004 62.1584 130.706 68.8688C130.674 68.4344 128.855 65.3032 128.733 68.6335V68.6335Z" fill="#231F20"/>
<path d="M122.624 66C111.226 73.5792 124.774 91.5792 129.986 70.3801L129.308 70.4751C121.652 91.3891 118.14 70.7149 123.787 68.6335C124.719 69.5385 122.498 73.5747 120.113 75.6109L120.321 76.4887C126.819 71.181 124.615 66.1991 122.624 66V66Z" fill="#231F20"/>
<path d="M81.1268 82.353C82.8326 86.3168 85.7331 85.6562 86.9593 82.172C87.1449 82.6245 88.3937 85.0815 89.3394 83.2851C87.6019 80.086 88.0498 67.9005 87.077 64.1132C82.9458 58.5792 85.4525 68.7557 85.4706 71.353C81.8553 71.0408 79.8507 77.9593 81.1268 82.353V82.353ZM84.6697 72.9231C84.8672 72.6196 85.2134 72.4465 85.5747 72.4706C88.9096 89.9412 79.905 83.1041 84.6697 72.9141V72.9231Z" fill="#231F20"/>
<path d="M149.054 65.6336C147.593 62.1946 142.385 64.991 143.846 69.3711C145.575 74.6336 151.484 75.9729 149.276 80.5069C145.077 78.8417 155.525 66.534 149.312 73.3983C144.683 78.8734 149.873 85.1268 151.312 78.8734C151.054 71.7422 142.154 69.1946 149.054 65.6336V65.6336Z" fill="#231F20"/>
<path d="M138.642 59.629C136.276 87.6833 145.203 76.3711 146.108 72.0589L145.348 71.6064C145.384 73.4842 141.222 79.7286 140.891 75.4707C140.534 71.62 143.33 53.2082 138.642 59.629V59.629Z" fill="#231F20"/>
<path d="M137.032 64.1992C138.127 63.6833 144.914 63.0815 142.461 62.0996C141.86 62.3847 134.991 63.5657 137.032 64.1992Z" fill="#231F20"/>
<path d="M53.9096 85.2851C59.0589 63.534 44.9639 82.5295 57.3983 78.3711C54.2987 92.2489 62.6878 89.5928 62.0272 84.0091C61.5747 84.0091 61.8462 84.8688 60.9774 86.4254C56.0408 91.6607 59.8915 78.4209 59.5023 77.3756C58.5159 75.2037 52.7512 81.0544 54.2851 76.6652C56.2127 75.8779 52.7376 86.1946 53.9096 85.2851V85.2851Z" fill="#231F20"/>
<path d="M111.394 78.3122C116.543 56.5611 102.443 75.5611 114.878 71.4027C111.796 85.2805 120.172 82.6335 119.511 77.0362C119.059 77.0362 119.33 77.8959 118.457 79.4525C113.525 84.6878 117.376 71.4525 116.982 70.4027C115.995 68.2262 110.231 74.0814 111.765 69.6923C113.697 68.905 110.217 79.2217 111.394 78.3122V78.3122Z" fill="#231F20"/>
<path d="M67.7059 78.733C59.5611 75.0181 59.905 94.7013 67.534 84.4932C69.7285 89.8054 72.5113 84.6923 73.0815 83.3936L72.5883 82.6832C67.181 91.4434 72.1901 79.8506 68.1901 79.7466C62.8959 94.6877 61.7828 78.6153 67.7059 78.733V78.733Z" fill="#231F20"/>
<path d="M106.738 72.6878C98.5928 68.9774 98.9367 88.6561 106.57 78.448C108.968 83.9095 112 78.7104 111.661 75.6788C111.724 75.6018 109.158 81.7647 108.633 79.5747C108.068 76.9774 110.647 74.2579 107.226 73.6923C101.946 88.638 100.814 72.5656 106.738 72.6878V72.6878Z" fill="#231F20"/>
<path d="M90.4389 73.3892C91.1719 77.4978 93.1538 91.7059 88.2805 95.181C96.8778 94.2308 91.0769 79.1222 94.1629 72.5973C96.7149 67.9684 99.2986 78.5475 96.0317 81.3122C92.1403 82.3982 97.9864 73.6878 98.7873 73.1674L98.1403 72.5702C97.8371 73.2082 93.4977 77.819 93.8326 81.0362C101.118 90.3711 101.176 63.3892 93.276 72.5204C91.7737 76.2489 93.7692 72.2127 92.104 70.8462C91.1312 71.0996 90.1402 70.9865 90.4389 73.3892V73.3892Z" fill="#231F20"/>
<path d="M51.0181 85.905C56.2941 75.8869 47.6968 76.5249 43.6516 80.5385C43.0045 81.1493 45.3167 85.1493 45.7013 82.2398C43.6697 79.2489 54.5294 75.629 50.9412 84.3167C37.6108 102.018 34.9683 72.6154 41.9638 63.3484C46.5927 54.181 48.2489 70.0588 43.9185 75.6018C47.8326 78.7149 49.9502 52.7964 42.9502 56.8462C26.6968 69.4389 35.2941 106.009 50.9231 86.0996L51.0181 85.905Z" fill="#231F20"/>
</svg>
