<svg width="180" height="177" viewBox="0 0 180 177" fill="none" xmlns="http://www.w3.org/2000/svg">
<g clip-path="url(#clip0_1_3833)">
<path opacity="0.153204" d="M135.527 29.3218C136.702 13.0454 117.929 1.11261 104.49 10.6355C90.8028 -7.00129 63.405 7.99243 69.0751 29.2927L68.2831 29.6716C47.8769 23.5012 30.5413 38.1111 30.7745 55.228C-7.97792 53.0173 -10.7813 105.325 26.0665 113.634C36.6874 169.216 100.059 194.598 146.162 163.318C196.196 128.535 188.515 54.5041 135.527 29.3218V29.3218Z" fill="black"/>
<path d="M177.393 75.2795C200.554 176.912 58.872 213.814 27.9857 116.816C4.82948 15.1832 146.512 -21.7181 177.393 75.2795Z" fill="white"/>
<path d="M71.9076 32.7131C50.175 21.6257 31.7705 40.2877 36.357 57.8176C-3.57119 47.1286 -13.4488 111.292 52.716 109.708C65.2367 110.301 82.3002 110.796 82.4022 110.801C83.612 93.0038 94.4468 45.8459 71.9076 32.7131Z" fill="#FF4749"/>
<path d="M86.4496 115.456C73.9435 114.528 46.7449 115.776 29.5405 111.219C-17.7582 99.5581 -1.12714 47.5708 31.1876 51.9047C37.0179 7.03527 101.638 17.1218 89.8264 83.1748C88.3445 98.6787 87.193 108.61 86.4496 115.456V115.456ZM22.5587 61.3742C6.72926 66.4466 5.77211 87.329 16.3834 95.1659C35.5069 108.323 52.3955 104.222 78.3503 106.142C80.2354 80.4297 85.9297 64.5614 76.6498 44.1746C59.3239 19.8815 31.4305 41.7842 42.8337 65.2805C35.2494 62.7103 32.7181 59.4842 22.5587 61.3742V61.3742Z" fill="white"/>
<path d="M131.324 22.1844C127.923 6.46678 110.48 5.05292 103.664 14.6196C88.3929 -12.4916 58.3666 16.5193 83.0824 43.2417C88.0334 49.9321 95.9335 60.1157 96.021 60.2469C105.563 53.3865 134.015 39.1459 131.324 22.1844V22.1844Z" fill="#FF4749"/>
<path d="M94.9812 66.2911C35.3027 -0.364395 96.3659 -9.46947 104.902 7.31223C138.427 -7.00614 147.6 36.2988 115.465 52.721C105.743 59.3141 99.9661 63.0213 94.9812 66.2911ZM86.6681 9.0419C65.0034 17.3016 88.7476 42.9503 97.0267 54.1154C153.387 23.3846 114.362 -1.71024 102.026 24.3563C99.8592 17.0684 97.5854 6.5057 86.6681 9.0419V9.0419Z" fill="white"/>
<path d="M38.7619 58.1238C39.2477 62.2293 32.3631 59.8631 36.4783 56.8314C37.1002 56.705 38.0622 56.8459 38.7619 58.1238Z" fill="#DA010A"/>
<path d="M31.9696 56.6952C32.4555 60.8056 25.5708 58.4346 29.6909 55.4077C30.3128 55.2765 31.27 55.432 31.9696 56.6952Z" fill="#DA010A"/>
<path d="M25.2648 56.6418C25.7507 60.7522 18.866 58.3812 22.9861 55.3543C23.5886 55.2231 24.5506 55.3883 25.2648 56.6418Z" fill="#DA010A"/>
<path d="M18.244 58.9595C18.7299 63.0699 11.8501 60.6988 15.9653 57.6719C16.5872 57.5456 17.5444 57.6962 18.244 58.9595Z" fill="#DA010A"/>
<path d="M12.6713 63.0407C13.1571 67.1511 6.2773 64.7801 10.3926 61.7532C11.0145 61.622 11.9716 61.7774 12.6713 63.0407Z" fill="#DA010A"/>
<path d="M9.12931 68.2831C9.61517 72.3887 2.73049 70.0225 6.85061 66.9907C7.46766 66.8644 8.42966 67.0199 9.12931 68.2831Z" fill="#DA010A"/>
<path d="M7.18082 74.1766C7.66668 78.287 0.78201 75.9159 4.89727 72.889C5.51917 72.7578 6.48118 72.9133 7.18082 74.1766V74.1766Z" fill="#DA010A"/>
<path d="M6.51041 80.6532C6.99627 84.7636 0.111597 82.3926 4.23171 79.3656C4.85848 79.2393 5.8302 79.3948 6.51041 80.6532Z" fill="#DA010A"/>
<path d="M7.63756 87.2268C8.12343 91.3372 1.24361 88.9662 5.35887 85.9393C5.98077 85.8081 6.93792 85.9636 7.63756 87.2268Z" fill="#DA010A"/>
<path d="M10.9269 93.548C11.4128 97.6584 4.5281 95.2873 8.64822 92.2604C9.26526 92.1341 10.2273 92.2847 10.9269 93.548Z" fill="#DA010A"/>
<path d="M15.873 98.5281C16.3588 102.639 9.47415 100.268 13.5894 97.2406C14.2113 97.1094 15.1733 97.2649 15.873 98.5281Z" fill="#DA010A"/>
<path d="M21.2419 102.114C21.7277 106.224 14.843 103.853 18.9632 100.826C19.5802 100.7 20.5422 100.851 21.2419 102.114Z" fill="#DA010A"/>
<path d="M27.7863 104.708C28.2722 108.819 21.3875 106.448 25.5076 103.421C26.1246 103.29 27.0866 103.445 27.7863 104.708Z" fill="#DA010A"/>
<path d="M32.2465 108.833C32.7324 112.944 25.8477 110.573 29.9629 107.546C30.6091 107.405 31.5469 107.56 32.2465 108.833Z" fill="#DA010A"/>
<path d="M33.7672 115.208C34.2531 119.318 27.3684 116.947 31.4837 113.92C32.1056 113.789 33.0627 113.944 33.7672 115.208Z" fill="#DA010A"/>
<path d="M35.9538 121.849C36.4396 125.96 29.555 123.589 33.6751 120.562C34.3067 120.431 35.2638 120.586 35.9538 121.849Z" fill="#DA010A"/>
<path d="M38.1061 127.568C38.592 131.678 31.7073 129.307 35.8226 126.281C36.4396 126.149 37.4113 126.324 38.1061 127.568Z" fill="#DA010A"/>
<path d="M40.6713 133.126C41.1572 137.237 34.2725 134.866 38.3877 131.839C39.0097 131.712 39.9717 131.868 40.6713 133.126Z" fill="#DA010A"/>
<path d="M43.8539 138.519C44.3398 142.63 37.4551 140.259 41.5752 137.232C42.1971 137.106 43.1543 137.256 43.8539 138.519Z" fill="#DA010A"/>
<path d="M47.5463 143.33C48.0322 147.44 41.1475 145.069 45.2676 142.042C45.8895 141.921 46.8467 142.076 47.5463 143.33Z" fill="#DA010A"/>
<path d="M51.8656 148.295C52.3515 152.405 45.4668 150.034 49.5869 147.007C50.2088 146.876 51.166 147.032 51.8656 148.295Z" fill="#DA010A"/>
<path d="M57.2248 152.609C57.7106 156.72 50.826 154.349 54.9461 151.322C55.5631 151.196 56.5251 151.346 57.2248 152.609Z" fill="#DA010A"/>
<path d="M63.3805 156.705C63.8664 160.811 56.9817 158.445 61.1018 155.413C61.7043 155.287 62.676 155.442 63.3805 156.705Z" fill="#DA010A"/>
<path d="M69.0944 160.529C69.5803 164.639 62.6956 162.268 66.8108 159.241C67.4327 159.11 68.3948 159.266 69.0944 160.529Z" fill="#DA010A"/>
<path d="M74.507 163.172C74.9929 167.283 68.1082 164.912 72.2234 161.885C72.8453 161.753 73.8025 161.909 74.507 163.172Z" fill="#DA010A"/>
<path d="M80.2499 165.417C80.7358 169.527 73.8511 167.156 77.9664 164.129C78.5883 164.003 79.5503 164.153 80.2499 165.417Z" fill="#DA010A"/>
<path d="M86.4835 167.185C86.9694 171.296 80.0896 168.925 84.2048 165.898C84.817 165.771 85.7742 165.922 86.4835 167.185Z" fill="#DA010A"/>
<path d="M93.475 168.381C93.9609 172.491 87.0762 170.12 91.1963 167.093C91.8279 166.962 92.7997 167.137 93.475 168.381V168.381Z" fill="#DA010A"/>
<path d="M100.85 169.819C101.336 173.929 94.4517 171.558 98.5669 168.531C99.1888 168.405 100.146 168.555 100.85 169.819Z" fill="#DA010A"/>
<path d="M107.822 169.911C108.308 174.021 101.424 171.65 105.544 168.624C106.161 168.492 107.123 168.648 107.822 169.911Z" fill="#DA010A"/>
<path d="M115.242 169.231C115.727 173.341 108.843 170.97 112.963 167.943C113.585 167.812 114.542 167.968 115.242 169.231Z" fill="#DA010A"/>
<path d="M122.923 167.53C123.409 171.641 116.524 169.27 120.639 166.243C121.252 166.112 122.214 166.267 122.923 167.53V167.53Z" fill="#DA010A"/>
<path d="M37.9943 51.55C38.4802 55.6604 31.5955 53.2894 35.7107 50.2624C36.3326 50.1313 37.2898 50.2867 37.9943 51.55Z" fill="#DA010A"/>
<path d="M38.8348 44.5681C39.3207 48.6785 32.4409 46.3075 36.5561 43.2806C37.178 43.1542 38.1352 43.3049 38.8348 44.5681Z" fill="#DA010A"/>
<path d="M41.891 38.6211C42.3769 42.7315 35.4922 40.3605 39.6075 37.3336C40.2294 37.2024 41.1914 37.3579 41.891 38.6211Z" fill="#DA010A"/>
<path d="M46.4872 34.0103C46.9731 38.1207 40.0884 35.7497 44.2037 32.7227C44.8256 32.5527 45.7876 32.7276 46.4872 34.0103Z" fill="#DA010A"/>
<path d="M53.2504 31.2361C53.7363 35.3465 46.8516 32.9755 50.9717 29.9486C51.5887 29.8174 52.5508 29.9729 53.2504 31.2361Z" fill="#DA010A"/>
<path d="M60.684 30.0457C61.1699 34.1512 54.2852 31.7851 58.4053 28.7533C59.0223 28.627 59.9844 28.7824 60.684 30.0457Z" fill="#DA010A"/>
<path d="M68.3412 30.5024C68.8271 34.6128 61.9424 32.2418 66.0625 29.2149C66.6844 29.0886 67.6416 29.2392 68.3412 30.5024Z" fill="#DA010A"/>
<path d="M75.3717 31.2361C75.8576 35.3465 68.9729 32.9755 73.0882 29.9486C73.7101 29.8174 74.6721 29.9729 75.3717 31.2361Z" fill="#DA010A"/>
<path d="M75.4689 24.6769C75.9548 28.7873 69.0701 26.4163 73.1902 23.3893C73.8073 23.263 74.7693 23.4136 75.4689 24.6769V24.6769Z" fill="#DA010A"/>
<path d="M74.9782 18.0497C75.464 22.1601 68.5794 19.7891 72.6946 16.7622C73.3165 16.631 74.2737 16.7865 74.9782 18.0497Z" fill="#DA010A"/>
<path d="M77.0673 11.7432C77.5532 15.8487 70.6685 13.4826 74.7837 10.4557C75.4056 10.3245 76.3677 10.48 77.0673 11.7432Z" fill="#DA010A"/>
<path d="M81.7753 6.98185C82.2612 11.0923 75.3765 8.72124 79.4917 5.69432C80.1137 5.56314 81.0757 5.71861 81.7753 6.98185V6.98185Z" fill="#DA010A"/>
<path d="M87.9897 3.96457C88.4755 8.07497 81.5908 5.70882 85.711 2.67703C86.328 2.55071 87.29 2.70618 87.9897 3.96457V3.96457Z" fill="#DA010A"/>
<path d="M95.0395 3.93058C95.5253 8.03612 88.6407 5.66997 92.7559 2.63819C93.3778 2.51186 94.3398 2.66734 95.0395 3.93058V3.93058Z" fill="#DA010A"/>
<path d="M100.923 7.03038C101.409 11.1408 94.5244 8.76977 98.6397 5.74284C99.2616 5.61652 100.219 5.76714 100.923 7.03038Z" fill="#DA010A"/>
<path d="M105.014 12.1708C105.5 16.2764 98.6203 13.9102 102.736 10.8784C103.357 10.7521 104.315 10.9076 105.014 12.1708Z" fill="#DA010A"/>
<path d="M111.646 9.7755C112.132 13.8859 105.247 11.5149 109.367 8.48796C109.985 8.36164 110.947 8.51225 111.646 9.7755Z" fill="#DA010A"/>
<path d="M118.832 8.32768C119.318 12.4381 112.433 10.0671 116.553 7.04014C117.171 6.90896 118.133 7.06444 118.832 8.32768Z" fill="#DA010A"/>
<path d="M125.177 10.4071C125.663 14.5175 118.779 12.1465 122.894 9.11961C123.516 8.98843 124.478 9.1439 125.177 10.4071V10.4071Z" fill="#DA010A"/>
<path d="M129.725 14.9645C130.211 19.0749 123.326 16.7039 127.442 13.677C128.078 13.5458 129.035 13.7013 129.725 14.9645Z" fill="#DA010A"/>
<path d="M132.64 21.339C133.126 25.4446 126.241 23.0784 130.362 20.0466C130.969 19.9203 131.926 20.0758 132.64 21.339Z" fill="#DA010A"/>
<path d="M132.742 28.6658C133.228 32.7762 126.344 30.4052 130.459 27.3783C131.081 27.2422 132.043 27.3977 132.742 28.6658Z" fill="#DA010A"/>
<path d="M138.83 31.892C139.316 36.0024 132.431 33.6314 136.547 30.6045C137.169 30.4733 138.126 30.6094 138.83 31.892Z" fill="#DA010A"/>
<path d="M144.787 35.1813C145.273 39.2917 138.388 36.9207 142.503 33.8938C143.111 33.7626 144.073 33.9181 144.787 35.1813Z" fill="#DA010A"/>
<path d="M150.379 39.2673C150.865 43.3777 143.98 41.0067 148.101 37.9798C148.718 37.8535 149.68 38.0041 150.379 39.2673Z" fill="#DA010A"/>
<path d="M155.476 43.6838C155.962 47.7894 149.077 45.4232 153.192 42.3914C153.79 42.27 154.747 42.4206 155.476 43.6838Z" fill="#DA010A"/>
<path d="M160.15 48.1733C160.636 52.2837 153.751 49.9126 157.871 46.8857C158.488 46.7545 159.45 46.91 160.15 48.1733Z" fill="#DA010A"/>
<path d="M163.575 53.5761C164.061 57.6865 157.177 55.3155 161.292 52.2886C161.914 52.1574 162.871 52.3128 163.575 53.5761Z" fill="#DA010A"/>
<path d="M166.937 58.7602C167.423 62.8657 160.539 60.4995 164.654 57.4678C165.276 57.3317 166.238 57.4969 166.937 58.7602Z" fill="#DA010A"/>
<path d="M170.12 64.8529C170.606 68.9633 163.721 66.5923 167.841 63.5654C168.463 63.439 169.42 63.5896 170.12 64.8529Z" fill="#DA010A"/>
<path d="M172.841 70.6882C173.327 74.7986 166.442 72.4275 170.562 69.4006C171.179 69.2694 172.141 69.4249 172.841 70.6882Z" fill="#DA010A"/>
<path d="M174.911 76.9412C175.396 81.0516 168.517 78.6806 172.632 75.6537C173.234 75.5225 174.191 75.678 174.911 76.9412Z" fill="#DA010A"/>
<path d="M176.854 83.9376C177.34 88.048 170.455 85.6818 174.575 82.6501C175.178 82.5237 176.14 82.6792 176.854 83.9376Z" fill="#DA010A"/>
<path d="M177.792 90.8902C178.278 95.0006 171.393 92.6296 175.513 89.6027C176.13 89.4764 177.092 89.627 177.792 90.8902Z" fill="#DA010A"/>
<path d="M177.971 98.4503C178.457 102.561 171.573 100.19 175.693 97.1628C176.31 97.0316 177.272 97.1725 177.971 98.4503Z" fill="#DA010A"/>
<path d="M177.928 105.209C178.414 109.319 171.529 106.948 175.649 103.921C176.266 103.79 177.228 103.945 177.928 105.209Z" fill="#DA010A"/>
<path d="M176.038 112.234C176.524 116.345 169.644 113.974 173.759 110.947C174.381 110.825 175.338 110.981 176.038 112.234Z" fill="#DA010A"/>
<path d="M174.395 118.74C174.881 122.85 167.997 120.479 172.117 117.452C172.734 117.326 173.696 117.477 174.395 118.74Z" fill="#DA010A"/>
<path d="M171.291 126.193C171.777 130.303 164.892 127.932 169.007 124.906C169.629 124.779 170.591 124.93 171.291 126.193Z" fill="#DA010A"/>
<path d="M168.22 132.932C168.706 137.042 161.821 134.671 165.941 131.645C166.558 131.513 167.52 131.669 168.22 132.932Z" fill="#DA010A"/>
<path d="M164.498 139.297C164.984 143.407 158.1 141.041 162.22 138.009C162.842 137.883 163.799 138.038 164.498 139.297Z" fill="#DA010A"/>
<path d="M160.466 144.262C160.952 148.373 154.072 146.002 158.187 142.975C158.809 142.844 159.766 142.999 160.466 144.262Z" fill="#DA010A"/>
<path d="M155.559 149.315C156.044 153.426 149.16 151.055 153.275 148.028C153.897 147.897 154.859 148.052 155.559 149.315Z" fill="#DA010A"/>
<path d="M149.947 154.247C150.433 158.357 143.548 155.986 147.668 152.959C148.285 152.833 149.247 152.984 149.947 154.247Z" fill="#DA010A"/>
<path d="M143.84 158.391C144.325 162.502 137.441 160.131 141.561 157.104C142.178 156.963 143.14 157.113 143.84 158.391Z" fill="#DA010A"/>
<path d="M137.295 161.889C137.781 166 130.896 163.629 135.016 160.602C135.633 160.471 136.595 160.626 137.295 161.889Z" fill="#DA010A"/>
<path d="M129.949 165.145C130.435 169.25 123.55 166.884 127.665 163.852C128.268 163.736 129.239 163.882 129.949 165.145Z" fill="#DA010A"/>
<path d="M158.323 66.3202C157.643 63.2447 152.26 62.3944 150.875 65.5088C139.035 57.7836 143.961 74.7402 150.778 77.5874C153.047 75.3475 159.363 70.9359 158.323 66.3202Z" fill="#FF4749"/>
<path d="M97.255 144.423C94.5487 142.115 89.593 144.797 90.278 148.285C75.1774 148.961 89.9962 160.515 97.6097 158.848C98.2122 155.564 101.006 147.639 97.255 144.423Z" fill="#FF4749"/>
<path d="M139.34 44.1017C138.155 43.6158 135.342 44.6945 136.289 47.2064C128.671 49.4899 137.781 53.7752 141.765 51.5791C141.541 49.6648 141.872 45.603 139.34 44.1017Z" fill="#FF4749"/>
<path d="M100.151 68.6815C95.5692 69.4832 102.536 91.7211 94.7092 83.5343C100.851 85.0259 91.8912 65.6157 100.151 68.6815Z" fill="#231F20"/>
<path d="M100.646 75.0803C107.628 71.3538 101.516 63.2787 94.3303 69.4638C90.9292 72.4081 94.1553 76.1784 90.5162 73.7539C87.499 59.834 117.428 66.3056 101.919 75.5905C99.9274 76.3436 97.1726 76.3387 100.646 75.0803Z" fill="#231F20"/>
<path d="M94.4226 87.2221C102.682 96.6332 113.575 68.7107 98.5913 77.5048C96.8373 80.5512 96.4438 77.3056 98.2269 75.5322C124.114 69.5901 96.6236 106.025 94.4226 87.2221Z" fill="#231F20"/>
<path d="M133.194 82.5966C126.825 87.9411 126.11 53.6441 129.142 57.5213C131.013 61.7677 131.465 96.4194 134.997 73.6228L136.134 73.7394C136.59 77.9129 135.517 81.4306 133.194 82.5966Z" fill="#231F20"/>
<path d="M119.585 68.5066C120.922 63.5071 141.07 66.0773 138.272 58.4833C135.614 63.2156 117.715 59.8437 119.585 68.5066Z" fill="#231F20"/>
<path d="M120.008 82.5675C122.51 77.2473 125.897 69.3958 123.409 69.0897C134.098 90.3559 123.584 96.0696 117.943 91.0993C117.098 89.9137 116.709 88.9712 118.4 89.5396C129.502 91.1916 121.743 76.8295 120.931 68.9488C129.759 60.3296 122.933 81.693 120.805 82.7813L120.008 82.5675Z" fill="#231F20"/>
<path d="M114.367 69.5999C101.618 79.803 117.511 99.6699 123.667 76.1396L122.608 75.3087C116.908 94.6509 109.567 77.8498 116.014 72.515C118.196 74.4973 114.698 82.0282 112.283 82.9271C112.434 83.3498 112.584 83.7725 112.74 84.1952C117.093 82.5967 124.08 69.8379 114.367 69.5999Z" fill="#231F20"/>
<path d="M129.837 107.225C131.897 112.57 132.266 122.467 134.492 125.299C139.38 127.408 131.577 95.0785 138.413 113.323C139.258 110.354 140.473 102.925 141.702 106.875C142.474 111.515 146.235 134.205 152.284 123.011C145.613 131.314 144.666 88.5776 138.238 111.399C136.022 102.566 134.351 108.338 134.351 111.977C133.646 109.64 132.908 104.407 129.837 107.225V107.225Z" fill="#231F20"/>
<path d="M106.273 116.733C107.643 121.106 105.549 130.206 109.853 128.448C110.849 124.658 107.516 116.204 111.797 114.066C114.644 135.638 121.174 122.812 120.29 117.681L119.576 117.312C120.431 117.899 117.982 128.001 116.335 123.764C115.975 114.761 112.778 107.803 108.819 116.588C108.619 115.791 105.646 112.788 106.273 116.733V116.733Z" fill="#231F20"/>
<path d="M120.902 125.97C124.123 131.236 128.282 128.846 129.069 124.323C129.706 125.134 131.572 127.913 132.65 125.246C129.4 121.252 127.495 103.635 125.119 99.597C118.167 93.7667 124.463 107.483 124.634 110.092C119.522 110.422 118.196 120.572 120.902 125.97V125.97ZM123.895 112.419C124.108 111.955 124.545 111.634 125.051 111.569C133.476 135.099 119.245 126.762 123.895 112.419Z" fill="#231F20"/>
<path d="M81.9019 131.669C84.5401 101.166 68.7399 130.182 85.3321 121.519C84.1806 141.493 94.8647 134.914 93.2176 128.258C92.2459 129.23 90.0644 138.16 88.1209 130.25C90.317 106.584 80.7212 129.225 80.59 119.95C83.4032 119.799 80.284 135.036 81.9019 131.669V131.669Z" fill="#231F20"/>
<path d="M99.9079 119.522C87.4455 116.524 92.4547 142.955 100.88 127.296C105.252 133.933 107.798 126.485 108.449 124.478L107.599 123.642C101.254 137.781 106.452 119.192 101.006 120.727C96.3416 142.285 91.6871 120.591 99.9079 119.522Z" fill="#231F20"/>
<path d="M153.717 102.031C141.085 99.8448 147.799 125.897 155.214 109.747C160.009 116.063 162.064 108.488 162.584 106.443L161.68 105.661C156.273 120.178 160.247 101.288 154.917 103.192C151.638 125.003 145.589 103.659 153.717 102.031Z" fill="#231F20"/>
<path d="M77.9664 133.175C83.4129 117.715 70.5959 121.917 66.4612 127.728C65.8198 128.992 69.5853 133.496 69.7019 129.526C70.523 115.796 88.5971 130.454 68.7933 139.899C52.9736 139.967 57.3707 107.244 62.1759 101.589C66.4077 95.8947 69.9497 115.353 65.7907 121.024C68.2492 125.105 70.7951 109.139 68.3269 103.28C61.8261 80.8767 50.2819 110.49 52.3274 123.38C54.5867 151.307 74.0018 144.845 77.8741 133.471L77.9664 133.175Z" fill="#231F20"/>
</g>
<defs>
<clipPath id="clip0_1_3833">
<rect width="180" height="177" fill="white"/>
</clipPath>
</defs>
</svg>
