<svg width="172" height="135" viewBox="0 0 172 135" fill="none" xmlns="http://www.w3.org/2000/svg">
<path d="M54.28 108.43C54.735 109.704 55.68 112.329 56.177 113.75L58.732 112.84C58.543 112.308 58.116 111.118 57.927 110.579C62.687 104.461 63.884 114.233 63.779 116.004C49.716 111.643 51.396 129.052 63.779 123.536V124.698H62.925V126.336H68.189V124.698H67.055C67.244 123.62 67.391 122.857 67.657 120.799C68.868 112.448 68.07 100.884 56.842 107.541L56.016 105.231L53.468 106.148C53.65 106.694 54.028 107.737 54.28 108.43V108.43ZM59.572 122.682C56.373 122.521 56.352 118.09 59.201 117.404C62.652 117.404 62.645 122.423 59.572 122.682Z" fill="white"/>
<path d="M54.308 129.696L53.468 133.973L72.179 133.616L71.339 128.107L54.308 129.696Z" fill="white"/>
<path d="M18.734 120.925L17.866 126.168L21.366 126.378V123.648L25.475 123.48C25.475 123.48 25.538 128.807 20.092 129.129C6.46999 128.576 10.824 108.906 21.492 110.964L19.665 113.344L22.563 115.983L29.15 108.199L25.601 105.644L23.851 107.926C21.9616 107.112 19.9231 106.702 17.866 106.722C10.649 107.1 7.23999 114.555 7.23999 121.366C7.23999 128.177 12.168 133.7 18.573 133.7C30.97 133.7 29.304 120.666 29.304 120.666L18.734 120.925Z" fill="white"/>
<path d="M97.6799 128.821L96.0909 128.919L93.4799 107.919L95.9229 107.583L95.1459 104.013L87.1799 105.497L87.5089 108.752L89.4339 108.479L90.4769 128.156L80.8169 106.183L76.9039 106.386L75.6159 130.781L73.3269 131.208L73.6559 134.463L82.0769 133.294L81.2999 129.724L79.8859 129.99L79.8579 112.098L87.6209 133.049L96.5459 132.58V132.538L98.1489 132.447L97.6799 128.821Z" fill="white"/>
<path d="M105.856 104.895L100.256 104.769L100.354 109.102L102.405 109.011L102.965 129.311L100.109 129.444L99.759 133.994L103.959 133.868C124.35 134.701 130.279 104.951 105.856 104.895V104.895ZM108.656 108.878C109.083 108.852 109.51 108.852 109.937 108.878V128.478C109.153 128.709 108.656 128.8 108.656 128.8V108.878ZM111.456 127.939L110.756 108.906C122.95 109.9 120.444 125.16 111.477 127.939H111.456Z" fill="white"/>
<path d="M49.394 130.522L44.214 121.618C55.61 112.378 44.557 104.762 34.477 105.987H30.144L30.606 110.46L32.006 110.39C32.006 110.733 32.552 130.039 32.566 130.424L31.166 130.375L31.222 134.33L38.348 134.043L38.012 130.606L36.647 130.557V123.9C38.5398 123.757 40.401 123.335 42.17 122.647L45.761 130.431L44.361 130.389L44.417 134.344L51.55 134.022L51.214 130.585L49.394 130.522ZM36.647 121.184V110.124C48.96 109.046 46.132 122.227 36.647 121.184Z" fill="white"/>
<path d="M160.141 120.288C161.422 111.356 160.547 99.2111 148.696 106.253L147.821 103.81L145.119 104.776C145.959 107.114 147.1 110.327 147.996 112.819L150.691 111.853C150.495 111.286 150.047 110.033 149.844 109.459C154.891 102.998 156.144 113.302 156.039 115.199C141.227 110.558 142.865 129.01 156.039 123.172V124.404H155.15V126.133H160.715V124.404H159.518C159.707 123.27 159.861 122.458 160.141 120.288V120.288ZM151.58 122.269C148.08 122.129 148.297 117.222 151.188 116.669C154.94 116.676 154.716 122.101 151.58 122.269Z" fill="white"/>
<path d="M146.008 129.689L145.119 134.218L164.929 133.84L164.04 128.009L146.008 129.689Z" fill="white"/>
<path d="M139.876 107.268L141.626 105.364L137.076 103.306L135.97 105.588C133.388 104.988 130.736 104.741 128.088 104.853H123.657L124.133 109.424L125.575 109.347L126.093 128.051L124.777 128.135V130.452L126.177 130.403V131.194L124.777 131.285V133.847L134.325 133.49L134.024 130.69L130.307 130.928V130.228L133.807 130.095L133.534 127.561L130.314 127.771V123.102C134.248 123.9 149.193 116.592 139.876 107.268V107.268ZM130.3 120.4V109.081C131.598 108.941 132.91 108.998 134.192 109.249L133.212 111.265L135.144 112.406L136.943 110.446C142.942 117.922 132.246 121.1 130.3 120.4V120.4Z" fill="white"/>
<path d="M73.95 5.03302C74.454 6.43302 75.609 9.68803 76.113 11.088L79.018 10.052C78.808 9.45702 78.318 8.07802 78.101 7.48302C83.589 0.483024 84.877 11.683 84.772 13.657C68.84 8.66602 70.555 28.511 84.772 22.239V23.562H83.799V25.424H89.791V23.583H88.503C88.72 22.351 88.888 21.483 89.203 19.138C90.603 9.52703 89.637 -3.54898 76.883 4.03202L75.924 1.40002L73.012 2.43602L73.95 5.03302ZM79.977 21.266C76.302 21.266 76.071 14.966 80.341 15.316C83.666 15.932 83.085 21.133 79.97 21.266H79.977Z" fill="white"/>
<path d="M73.012 34.125L94.334 33.719L93.375 27.447L73.971 29.253L73.012 34.125Z" fill="white"/>
<path d="M96.882 36.232L106.899 34.839L105.975 30.597L104.302 30.912L104.26 9.625L113.5 34.552L124.126 33.992L124.119 33.95L126.03 33.838L125.477 29.519L123.58 29.638L120.479 4.648L123.384 4.249L122.453 0L112.975 1.764L113.367 5.635L115.663 5.313L116.895 28.728L105.401 2.576L100.753 2.828L99.213 31.85L96.49 32.361L96.882 36.232Z" fill="white"/>
<path d="M14.2749 5.73999L14.3029 9.03699L20.9179 8.97399L20.6659 30.065L18.7199 30.128L18.4399 34.328L29.8569 34.188L29.3879 29.778L26.6789 29.869L27.5749 8.91099L34.6169 8.84099L34.5889 5.54399L27.7149 5.60699L27.7709 4.30499L34.7219 4.19999L34.8689 0.741987L14.5059 0.286987L14.3169 4.71799L20.9669 4.40999L20.9529 5.66999L14.2749 5.73999Z" fill="white"/>
<path d="M48.7009 34.538L51.5009 34.454L50.9549 29.246L48.5259 29.4L48.2179 20.377L59.3759 21.042V29.813L55.7499 30.1V34.776L63.9679 34.538H64.2829L67.9369 34.433L67.3839 29.225L64.2829 29.456V3.96905L66.3829 3.92005L65.9209 0.623047L57.0869 1.16905V4.14405L59.4039 4.08805V12.894L48.0149 13.594L47.6579 3.97605L49.7579 3.92705L49.3519 0.630047L40.0489 1.17605V4.15105L42.3309 4.09505L41.4909 29.925L39.3909 30.086L39.3489 34.776L48.2739 34.524L48.7009 34.538ZM59.3759 14V15.246L48.0499 16.1V15.183L59.3759 14Z" fill="white"/>
<path d="M138.805 34.9651V34.9371L141.577 34.8531L141.031 29.6801L138.63 29.8551L138.147 15.6451L148.521 30.3381L145.833 30.5341L145.791 35.2031L157.901 34.8531L157.348 29.6801L154.17 29.9111L143.404 14.6791L153.526 4.91406L155.717 5.11706L155.619 1.79906L145.623 1.21106L145.252 4.13706L147.226 4.32606L140.947 11.1931L137.846 6.80406L137.769 4.57806L139.897 4.52906L139.456 1.25306L130.202 1.79906L130.167 4.75306L132.442 4.70406L131.602 30.3801L129.509 30.5341L129.467 35.2031L138.336 34.9441L138.805 34.9651Z" fill="white"/>
<path d="M0.449951 60.928H29.969V68.222H0.449951V60.928Z" fill="white"/>
<path d="M0.449951 72.947H29.969V80.241H0.449951V72.947Z" fill="white"/>
<path d="M142.207 60.928H171.726V68.222H142.207V60.928Z" fill="white"/>
<path d="M142.207 72.947H171.726V80.241H142.207V72.947Z" fill="white"/>
<path d="M98.429 86.177L68.126 87.143L67.958 93.688L99.801 93.457L98.429 86.177Z" fill="white"/>
<path d="M83.316 85.1201H83.883C104.246 85.3301 103.343 52.7661 86.319 50.1551L86.158 44.5551H78.85L79.298 50.6311C63.576 56.4341 65.473 85.0781 83.316 85.1201ZM79.774 56.9381L80.11 61.5021L86.62 60.8021L86.487 56.0841C96.784 62.0061 95.86 77.7141 83.883 79.0791C71.038 77.1681 72.354 62.5731 79.774 56.9381V56.9381Z" fill="white"/>
<path d="M64.85 48.944L53.86 48.86L53.818 54.208H57.031C58.97 81.018 44.83 76.104 42.905 54.25H45.537L45.579 48.895L34.617 48.86L34.575 54.208H36.7169C37.0319 61.6 38.95 75.754 48.659 77.567L47.469 90.412L43.584 90.734L43.206 95.361L58.396 95.165L58.4799 89.488L56.128 89.684L55.225 76.825C62.526 73.325 63.03 61.012 62.729 54.285H64.7729L64.85 48.944Z" fill="white"/>
<path d="M135.431 86.177L105.072 87.143L104.904 93.709L136.81 93.471L135.431 86.177Z" fill="white"/>
<path d="M113.745 48.566L100.774 48.461L100.725 54.761H103.252C103.602 91.798 136.81 92.659 134.052 54.831H136.481L136.53 48.496L123.559 48.391L123.51 54.691H127.311C129.635 86.191 112.947 80.871 110.595 54.74H113.703L113.745 48.566Z" fill="white"/>
</svg>
