<svg width="200" height="67" viewBox="0 0 200 67" fill="none" xmlns="http://www.w3.org/2000/svg">
<g clip-path="url(#clip0_1_4270)">
<path d="M33.1288 46.3179C33.3987 43.9008 21.7852 43.686 24.2822 47.0173C26.1227 48.3057 29.0552 47.9437 31.6441 47.8946C30.8834 52.1891 29.1901 58.5695 23.4355 58.2075C15.3374 55.5204 21.1779 37.7413 24.8159 34.1707C27.9816 30.1216 32.4969 28.913 32.227 34.8824C32.546 36.0541 30.8036 37.9498 32.1104 38.9192C35.049 37.8701 34.638 30.4959 32.503 28.4897C20.5767 21.637 12.454 48.6922 16.5644 56.4406C20.3803 65.9928 31.4662 60.7351 32.957 52.821C33.227 50.6186 35.184 47.7167 33.1288 46.3179V46.3179Z" fill="white"/>
<path d="M166.258 38.2934C169.074 38.6737 183.81 39.7535 177.337 35.1952C173.902 35.2995 170.221 36.5142 166.595 36.4774C169.92 20.913 164.478 26.551 162.761 36.367C147.644 34.5265 152.712 37.6676 162.405 37.9805C161.534 42.097 160.454 47.6615 160.258 52.2136C160.123 54.3547 156.374 63.3977 155.877 56.3179C156.11 52.3486 158.558 48.4099 158.153 44.1461C157.055 37.14 147.908 47.7105 147.558 50.9805C147.337 49.275 147.853 46.6185 146.945 44.4529C143.73 41.8639 143.411 49.2811 141.84 51.0664C140.319 55.0234 136.098 56.2259 135.571 51.14C138.344 51.0602 141.521 49.1523 141.534 46.0725C140.528 38.5694 130.546 45.459 131.613 50.686C129.123 57.5326 125.62 58.1277 127.319 50.2075C127.853 47.2075 130.675 45.5265 131.417 42.7842C129.939 41.8516 127.687 43.2995 125.534 42.7044C124.184 42.2934 122.043 41.9866 122.712 44.0418C123.092 47.6553 123.393 51.0173 121.448 55.0296C119.123 59.9375 117.478 55.8455 118.209 52.5756C118.209 50.686 121.73 40.3977 117.675 44.459C117.335 44.3198 116.944 44.4194 116.712 44.7044C113.258 43.2136 109 47.7719 107.773 51.14C107.17 50.9741 106.554 50.8571 105.932 50.7903C107.724 44.7044 102.552 40.5633 97.9999 45.2198C96.4785 39.2259 93.4049 48.9437 93.4355 51.1768C92.7852 52.729 91.5092 55.8762 89.9263 57.1277C89.595 57.8455 89.0981 57.9069 88.4417 57.3056L87.9877 56.6921C86.7607 54.2995 87.3742 51.1032 87.5705 48.0357C100.006 23.8762 85.4969 19.0234 84.2085 44.4161C79.9141 44.8026 75.3926 49.8517 77.1288 54.5265C76.3006 56.5265 73.2822 62.3977 71.3926 59.1339C70.6932 54.1829 83.3251 38.5449 70.049 42.9928C66.9079 45.005 65.6012 47.9375 64.2944 51.5817C64.2944 49.8332 63.9815 41.5388 61.2269 45.7228C61.0184 46.9069 60.8834 48.1032 60.7914 49.2995C60.0184 51.9375 59.3006 55.0541 57.9631 57.9498L56.4417 57.7105C56.2188 57.3179 56.1024 56.8737 56.1042 56.4222C54.9325 53.3547 61.6257 36.0541 55.0368 44.3793C49.5153 42.1645 43.0858 50.5572 45.6625 55.7474C41.5521 61.5326 36.8957 57.8639 40.2453 51.7903C40.9999 49.1645 47.9509 43.9498 43.0061 44.1339C42.2454 44.4835 41.5253 44.9155 40.8588 45.4222C37.9447 45.7351 31.3128 47.594 38.6134 47.4897C30.6748 56.1216 40.1288 66.0173 46.8343 56.9559C49.0429 58.2197 51.5091 56.2934 52.6503 53.8026C52.1901 59.9375 57.9509 63.9928 60.6257 57.1952C60.865 59.2504 64.0245 59.2811 64.3067 57.2872C65.7607 53.1952 66.4907 46.9621 70.7791 44.4038C71.503 44.4038 73.0613 43.9498 73.3374 45.5326C60.6134 63.778 73.6073 67.778 78.2453 55.7964C80.1779 57.1523 82.9141 55.7474 84.1963 53.5326C84.8098 58.6431 89.2269 63.3486 92.6809 56.8823C90.6748 68.3363 97.4969 70.551 96.7361 58.8578C100.417 60.3854 103.945 56.0541 105.251 52.594C105.931 52.6676 106.604 52.7948 107.264 52.9744C107.024 58.9191 112.718 56.729 114.626 53.4099C114.153 57.4345 117.693 62.8639 121.583 59.1339C125.159 54.8394 125 49.5633 124.356 44.4099C126.018 44.3302 127.675 44.2688 129.325 44.0602C119.705 56.0725 128.251 64.1829 132.945 55.3363C135.607 59.7596 141.742 58.0112 143.712 53.729C142.442 57.5572 146.779 61.0909 147.558 55.9866C149.006 52.1461 150.853 45.9253 155.19 44.3302C147.184 63.5878 158.074 66.2382 161.061 56.6615C165.288 63.0971 170.626 54.1523 172.196 49.8271C173.828 51.1155 175.822 54.9069 173.049 56.4222C171.914 56.8701 170.466 56.8639 170.209 58.3854C170.988 65.4038 185.62 53.7474 173.018 46.7719C173.957 37.232 164.141 42.8701 170.89 48.5081C161.098 68.5081 164.319 44.9866 166.258 38.2934V38.2934ZM137.963 45.9498C140.595 45.2443 137.65 49.4836 135.705 49.275C136.012 47.8517 136.748 46.4651 137.963 45.9498ZM88.2085 41.1032C88.7668 38.232 88.6687 33.7412 89.6503 30.7412C89.7116 30.1277 90.1472 30.0786 90.9693 30.6063C90.7314 35.067 89.7097 39.4509 87.9509 43.5572L88.2085 41.1032ZM53.0429 49.551C47.4601 60.9559 47.1472 49.8885 53.6993 47.1645C53.4219 47.9428 53.2025 48.7404 53.0429 49.551ZM83.3987 51.8578C77.9631 57.686 80.6318 49.1032 83.9509 47.6124C83.9079 48.7474 83.9079 49.8885 83.9509 51.0112L83.3987 51.8578ZM101.19 54.3854C100.577 55.3793 98.1226 57.6124 96.8036 56.0234C96.8036 55.7964 96.8036 55.5204 96.8957 54.8394C96.9135 54.7503 96.9135 54.6585 96.8957 54.5694C96.8957 54.4652 96.8957 54.3609 96.9386 54.2504C98.5861 53.2553 100.448 52.6684 102.368 52.5388C102.034 53.1817 101.652 53.7989 101.227 54.3854H101.19ZM103.399 50.3915C103.356 50.502 103.307 50.6063 103.258 50.7167C101.577 50.8639 99.2576 51.005 97.2699 52.0234C97.4417 50.8701 97.6257 49.7105 97.7607 48.551C101.178 42.9437 105.423 44.821 103.423 50.3915H103.399ZM114.503 50.3425C113.751 51.6378 112.808 52.8125 111.705 53.8271C110.446 54.3424 110.119 54.1645 110.724 53.2934C111.258 50.5326 114.233 47.9007 116.294 46.0602C115.888 47.5564 115.295 48.9952 114.528 50.3425H114.503ZM171.393 43.8578C171.508 44.3208 171.541 44.8005 171.491 45.275C171.491 45.4161 171.491 45.5572 171.46 45.7044C171.302 45.5963 171.168 45.4563 171.067 45.2934C171.202 44.8148 171.307 44.3363 171.417 43.8578H171.393Z" fill="white"/>
<path d="M9.40483 41.2996C-1.02462 41.5204 -0.411126 41.6922 6.33734 48.1585C-4.77309 54.5081 0.392556 55.2137 9.11035 54.6002C11.0061 54.0726 9.87722 48.8394 10.3373 46.864C9.92016 44.8947 11.5705 42.3302 9.40483 41.2996V41.2996Z" fill="white"/>
<path d="M192.761 53.9129C191.135 52.3424 189.436 50.8761 187.687 49.4528C187.718 49.0663 187.736 48.7534 187.755 48.5817C188.699 47.2074 191.19 45.643 191.933 43.551C191.429 41.3853 184.791 41.4099 183.601 42.2136C181.147 43.0172 184.245 52.8577 183.841 54.9804C183.767 57.054 195.16 56.4406 192.761 53.9129V53.9129Z" fill="white"/>
<path d="M198.159 25.5449C197.982 32.9069 188.159 31.3977 183.374 31.3241C171.767 15.6124 192.773 14.0725 188.638 24.5756C189.055 25.005 189.405 25.1891 189.81 24.1461C191.957 22.5388 197.123 22.005 198.159 25.5449V25.5449Z" fill="#D16A70"/>
<path d="M196.319 5.88851C200.828 7.50814 195.258 10.7351 192.57 9.73513C192.489 9.73705 192.41 9.76263 192.343 9.80875C187.35 6.55722 193.57 1.79035 193.264 7.06029C193.442 7.20753 193.521 7.2198 194.031 7.06029C194.069 6.99475 194.104 6.92716 194.135 6.85783C194.738 6.30512 195.505 5.96471 196.319 5.88851V5.88851Z" fill="#D16A70"/>
<path d="M181.699 5.34246C181.871 9.11546 177.669 11.1768 175.822 13.7167C161.436 9.72896 168.221 -0.320121 174.957 7.32405C175.607 6.90687 175.251 6.60012 174.571 5.71055C173.337 -0.761839 181.687 -0.0931273 181.699 5.34246V5.34246Z" fill="#D16A70"/>
<path d="M190.141 22.9927C204.442 17.324 202.153 37.3179 183.687 32.1338C169.086 20.3792 189.742 9.00501 190.141 22.9927ZM196.117 29.7412C201.926 24.4222 194.276 20.87 189.81 24.1707C188.791 25.9314 188.454 24.1154 189.264 22.2934C189.413 20.9721 188.839 19.6729 187.761 18.8946C178.141 14.3792 178.601 26.5265 183.374 31.324C186.945 31.1032 192.638 32.6737 196.117 29.7412Z" fill="white"/>
<path d="M179.969 0.501974C186.031 3.9621 181.055 12.2688 176.202 14.1093C175.46 15.3363 171.908 13.4284 170.067 12.6308C161.896 8.7351 167.264 0.36087 173.337 4.53265C173.098 1.45903 176.779 -1.12379 179.969 0.501974V0.501974ZM175.994 13.1707C190.184 3.21977 173.276 -4.22195 174.57 5.71056C176.528 8.77805 173.485 6.03572 172.116 4.91302C169.896 3.44062 166.626 5.38541 167.343 8.02345C168.662 11.3118 172.73 12.7044 175.822 13.7167C175.75 13.5168 175.82 13.2933 175.994 13.1707V13.1707Z" fill="white"/>
<path d="M198.908 7.14002C199.135 10.4161 195.227 11.1093 192.773 10.6799C185.668 8.64922 191.546 -0.307837 194.405 5.77192C195.589 4.68603 198.662 4.65535 198.908 7.14002V7.14002ZM197.883 7.93143C198.411 5.7167 195.705 5.35474 194.159 6.87621C194.128 6.94554 194.093 7.01313 194.055 7.07867C193.84 7.34247 193.325 7.34247 193.288 6.60014C192.564 1.49584 188.024 7.75351 192.368 9.80873C192.435 9.76261 192.514 9.73702 192.595 9.73511C194.478 9.72284 197.135 10.2443 197.883 7.93143V7.93143Z" fill="white"/>
</g>
<defs>
<clipPath id="clip0_1_4270">
<rect width="200" height="67" fill="white"/>
</clipPath>
</defs>
</svg>
