<svg width="148" height="177" viewBox="0 0 148 177" fill="none" xmlns="http://www.w3.org/2000/svg">
<path d="M53.8182 142.6C54.7842 136.083 54.4762 125.149 44.4522 131.113L43.7522 129.111L41.5332 129.902C42.1982 131.75 43.1502 134.431 43.8852 136.489L46.0972 135.698C45.9782 135.362 45.5792 134.242 45.3972 133.738C49.2892 128.572 50.6192 136.615 50.4652 138.442C38.2432 134.662 39.8182 149.754 50.4652 144.966V145.974H49.7652V147.374H54.3222V145.974H53.3002C53.4612 145.029 53.5942 144.371 53.8182 142.6V142.6ZM46.8182 144.217C44.0952 144.091 44.0182 140.241 46.4962 139.646C47.6872 139.667 48.6645 140.595 48.7465 141.784C48.8285 142.972 47.9881 144.026 46.8112 144.21L46.8182 144.217Z" fill="white"/>
<path d="M57.01 148.914L42.254 150.293L41.519 153.996L57.738 153.688L57.01 148.914Z" fill="white"/>
<path d="M11.3001 153.8C22.0451 153.8 20.5961 142.509 20.5961 142.509L11.4331 142.712L10.6841 147.255L13.7151 147.437V145.071L17.2781 144.924C17.2781 144.924 17.3271 149.544 12.6091 149.824C0.807063 149.355 4.62206 132.275 13.8411 134.074L12.2591 136.174L14.8001 138.4L20.4841 131.652L17.4041 129.44L15.8641 131.4C14.225 130.692 12.4554 130.337 10.6701 130.357C-1.75494 131.568 -1.47494 153.863 11.3001 153.8V153.8Z" fill="white"/>
<path d="M79.844 149.53L78.465 149.621L76.204 131.421L78.318 131.127L77.646 128.033L70.737 129.321L71.024 132.142L72.697 131.904L73.6 148.956L65.228 129.916L61.84 130.091L60.72 151.231L58.739 151.602L59.019 154.423L66.313 153.408L65.641 150.321L64.423 150.545L64.395 135.04L71.122 153.198L78.857 152.785V152.757L80.243 152.68L79.844 149.53Z" fill="white"/>
<path d="M85.3111 153.87C102.811 154.717 108.236 128.915 86.9211 128.803L82.1051 128.691L82.1891 132.45L83.9601 132.366L84.4501 149.936L81.9791 150.048L81.6711 153.996L85.3111 153.884V153.87ZM98.3801 139.8C98.3311 145.169 94.4531 147.682 91.8001 148.767L91.1841 132.275C93.8301 132.513 98.4431 133.787 98.3801 139.8V139.8ZM89.3641 132.247C89.7325 132.224 90.1018 132.224 90.4701 132.247V149.257C90.1073 149.37 89.738 149.461 89.3641 149.53V132.247Z" fill="white"/>
<path d="M33.7 154.29L39.874 154.038L39.58 151.063L37.991 151L33.504 143.3C43.423 135.243 33.686 128.698 25.062 129.755H21.303L21.702 133.633L22.934 133.57C22.934 133.808 23.403 150.636 23.41 150.93L22.192 150.888L22.248 154.318L28.422 154.066L28.1 151.063L26.945 151V145.211C28.5855 145.09 30.1991 144.727 31.733 144.133L34.841 150.881L33.644 150.839L33.7 154.29ZM26.952 142.915V133.332C37.739 132.422 35.002 143.874 26.945 142.915H26.952Z" fill="white"/>
<path d="M141.549 141.634C142.571 134.522 142.179 123.196 131.63 129.475L130.874 127.375L128.529 128.208C129.264 130.245 130.237 132.996 131.021 135.208L133.366 134.368L132.624 132.268C136.859 126.71 138.126 135.453 137.993 137.245C125.057 133.255 126.702 149.222 137.993 144.154V145.218H137.209V146.723H142.039V145.218H141.003C141.171 144.217 141.311 143.517 141.549 141.634ZM134.129 143.349C131.252 143.216 131.154 139.149 133.793 138.512C136.922 138.526 136.971 143.055 134.129 143.349Z" fill="white"/>
<path d="M144.93 148.326L129.306 149.782L128.529 153.702L145.7 153.373L144.93 148.326Z" fill="white"/>
<path d="M119.8 150.622L120.241 153.912L127.878 152.897L127.437 149.6L125.995 149.789L124.133 133.325L125.533 133.633L126.233 130.392L118.715 128.726L118.015 131.967L118.925 132.17L113.766 139.639L109.517 131.757L110.735 131.61L110.343 128.313L102.692 129.216L103.084 132.52L104.295 132.373L102.356 149.551L101.243 149.418L100.851 152.715L108.495 153.639L108.894 150.335L106.794 150.083L107.109 138.505L114.445 149.005L121.445 139.723C121.494 143.181 121.55 147.794 121.585 150.363L119.8 150.622ZM114.144 147.248L107.144 136.895L107.235 133.584L114.158 144.735L121.354 135.292C121.354 135.292 121.354 136.391 121.389 138.015L114.144 147.248Z" fill="white"/>
<path d="M0.100098 160.989H147.065V167.002H0.100098V160.989Z" fill="white"/>
<path d="M0.100098 170.901H147.065V176.914H0.100098V170.901Z" fill="white"/>
<path d="M0.100098 0.5H147.065V6.513H0.100098V0.5Z" fill="white"/>
<path d="M0.100098 10.412H147.065V16.425H0.100098V10.412Z" fill="white"/>
<path d="M43.8222 34.94C56.7162 47.666 68.0002 42.612 65.2002 29.571C61.3152 19.309 47.5742 21.171 42.9752 28.339C35.7372 21.143 24.2992 19.729 14.9752 25.21C-2.81184 36.088 18.3002 59.783 25.8252 37.6C26.0142 36.641 27.0572 33.4 25.7272 33.666C24.3202 37.6 22.2972 46.399 14.8002 44.544C1.82216 36.046 17.6002 20.408 29.0732 24.384C30.5852 36.774 27.4002 48.989 22.6122 56.92C21.1212 59.916 20.2952 73.02 24.2852 71.816C26.0912 71.725 24.4882 61.568 26.0212 59.636C31.5652 49.885 34.6522 33.946 33.8612 26.736C36.2179 28.3498 38.4544 30.1325 40.5532 32.07C35.2262 43.55 31.4532 60.28 31.5162 70.766C35.6252 74.686 35.0162 70.017 36.8572 60.21C38.6492 54.925 42.1842 52.79 44.6762 51.971C50.0802 49.934 45.0892 58.173 44.7672 66.069C44.0672 74.098 53.9862 72.369 57.0172 69.408C63.3172 75.967 68.7142 65.614 69.1692 63.808C66.6632 72.488 72.3402 73.3 78.3952 68.4C78.2832 70.822 81.5452 72.18 83.0222 71.102C84.6602 68.099 84.6112 61.519 85.8222 59.055C86.7812 54.617 93.3472 49.01 93.7112 51.726C93.9282 54.113 90.5612 62.016 90.7992 67.126C90.7992 74.042 99.1082 71.382 101.838 67.217C101.39 69.135 101.705 71.487 104.533 71.599C108.894 71.396 105.422 58.999 109.216 59.86C119.275 65.082 111.449 87.16 123.384 90.499C125.526 91.395 130.65 90.415 128.193 90.261C113.92 89.071 126.184 61.351 112.1 59.3C130.132 59.678 118.757 40.47 108.999 53.511C110.126 51.138 119.618 33.085 113.409 31.65H113.199C103.91 32.35 102.895 58.81 102.09 63.465C92.0172 76.8 96.7002 65.348 98.5062 54.974C98.8002 43.2 87.6002 51.6 86.6622 54.029C81.4262 38.566 79.9212 63.227 78.6262 65.887C70.8352 73.629 73.8312 62.023 74.9232 57.711C75.2662 56.626 73.3762 54.12 71.8642 53.329C69.1272 51.369 68.5462 70.955 61.1122 69.66C57.6122 68.666 60.8392 57.844 64.4372 54.897C66.4742 53.126 67.7272 54.498 69.2182 53.273C69.7852 51.341 68.1262 50.151 66.0122 49.206C58.4732 47.218 54.7002 59.132 56.2262 67.553C44.5712 76.17 51.8022 62.17 51.6272 52.923C51.2212 44.635 39.0832 51.985 39.4052 52.867C39.3002 53.399 41.4002 43.375 43.8222 34.94V34.94ZM55.0782 23.971C71.3882 26.253 62.5262 50.473 45.4952 30.67C48.0292 25.504 51.2422 24.027 55.0782 23.971ZM110.903 53.049C111.967 51.684 115.033 50.172 117.371 50.732C121.018 55.709 105.933 60.609 110.903 53.049ZM111.561 39.126C112.611 36.515 113.129 33.029 114.515 34.226C114.574 34.315 114.615 34.415 114.634 34.52C115.46 37.166 108.614 51.488 108.229 52.16C108.299 51.831 109.93 44.39 111.561 39.126V39.126Z" fill="white"/>
<path d="M106.29 93.6C107.221 91.612 100.69 119.381 113.339 114.845C115.516 113.886 115.607 112.171 115.117 112.045C102.363 120.319 119.079 76.205 109.279 78.207C106.927 78.046 108.306 82.687 107.067 85.354C105.667 92.074 101.264 100.649 98.716 98.038C97.253 95.049 101.894 85.676 100.928 80.132C100.025 77.43 96.672 77.332 95.811 77.99C95.412 78.522 95.909 80.468 95.475 82.722C94.5094 83.4908 93.454 84.1396 92.332 84.654C90.113 74.973 81.965 86.754 91.226 86.096C91.457 99.039 80.313 104.821 82.763 88.63C82.994 81.952 93.081 78.375 84.863 78.074C79.599 77.542 76.281 87.874 78.766 95.805C84.415 106.34 93.886 96.197 92.493 85.767C93.4725 85.4164 94.4112 84.9611 95.293 84.409C90.967 103.4 101.649 103.617 106.29 93.6V93.6ZM90.337 85.13C85.08 84.045 90.869 78.998 91.149 85.039C90.8835 85.107 90.611 85.1446 90.337 85.151V85.13Z" fill="white"/>
<path d="M80.6701 104.1C78.6619 103.385 76.5748 102.915 74.4541 102.7C75.5181 93.936 77.8631 85.9 76.3091 79.95C74.6221 77.85 71.7871 77.78 71.7521 79.642C71.4301 84.402 70.4081 100.082 63.1211 98.017C59.2571 95.784 68.6651 80.657 61.8821 78.186C57.2341 75.386 58.3821 95.308 58.3261 95.77C58.9701 101.587 67.5101 101.629 70.7511 94.888C71.5701 93.124 69.8201 100.334 69.4491 102.588C64.6401 102.917 60.0691 104.471 57.0451 107.25C50.2271 113.508 49.5341 124.582 60.0341 124.589C67.9371 124.589 71.9971 114.642 74.2161 103.848C76.3301 103.771 87.6001 107.957 80.6701 104.1V104.1ZM59.3831 122.447C45.3341 120.214 59.4391 102.903 69.1831 103.967C66.8661 114.6 64.1571 122.391 59.3831 122.447V122.447Z" fill="white"/>
<path d="M2.78102 83.688C-3.61698 95 22.423 120.2 23.9 121.6C70.1 84.5 37.767 67.406 24.999 88.833C19.7 78.361 8.56302 74.966 2.78102 83.688V83.688Z" fill="white"/>
<path d="M142.9 65.747C140.611 64.55 137.104 65.684 134.087 68.701C132.246 61.281 123.776 60.231 122.81 66.685C122.285 72.929 129.859 83.723 130.37 84.514C131.924 83.8 152.406 72.6 142.9 65.747V65.747Z" fill="white"/>
<path d="M86.788 43.6621C109.188 25.7071 93.977 16.5651 87.25 27.4291C83.953 20.5341 75.441 21.2061 75.791 27.7231C76.54 33.9461 86.13 42.9971 86.788 43.6621Z" fill="white"/>
</svg>
