<svg width="132" height="199" viewBox="0 0 132 199" fill="none" xmlns="http://www.w3.org/2000/svg">
<path d="M44.066 94.65C44.346 95.448 44.878 96.925 45.228 97.919L46.803 97.359C46.684 97.044 46.502 96.512 46.306 95.959C48.735 92.501 50.093 97.59 49.904 99.291C41.07 96.666 42.589 107.327 49.904 103.918V104.618H49.4V105.619H52.634V104.66H51.934C52.011 104.247 52.165 103.414 52.305 102.266C52.949 98.458 52.963 89.666 45.662 94.118L45.151 92.718L43.583 93.278L44.066 94.65ZM47.3 103.4C46.495 103.328 45.8618 102.681 45.806 101.875C45.7503 101.069 46.2886 100.341 47.076 100.159C47.881 100.231 48.5143 100.878 48.57 101.684C48.6257 102.49 48.0874 103.218 47.3 103.4Z" fill="white"/>
<path d="M43.562 110.351L55.063 110.127L54.552 106.746L44.08 107.719L43.562 110.351Z" fill="white"/>
<path d="M22.0999 110.197C29.7159 110.197 28.6939 102.182 28.6939 102.182L22.1979 102.329L21.6589 105.549L23.8149 105.682V104.002L26.3419 103.904C26.3419 103.904 26.3419 107.173 23.0309 107.404C14.8199 107.159 17.2629 94.972 23.9059 96.204L22.7999 97.674L24.5849 99.291L28.6169 94.51L26.4329 92.942L25.3549 94.342C24.1988 93.837 22.9484 93.5841 21.6869 93.6C12.9509 94.377 13.0489 110.218 22.0999 110.197V110.197Z" fill="white"/>
<path d="M60.67 107.74L59.802 107.901L59.781 96.904L64.555 109.784L70.043 109.49L70.036 109.469L71.023 109.413L70.736 107.18L69.763 107.243L68.16 94.335L69.658 94.132L69.182 91.941L64.282 92.844L64.485 94.846L65.675 94.685L66.312 106.774L60.376 93.271L57.968 93.397L57.177 108.391L55.77 108.65L55.973 110.652L61.146 109.931L60.67 107.74Z" fill="white"/>
<path d="M72.2548 107.537L72.0378 110.337L74.6138 110.26C86.7448 110.96 91.0498 92.641 75.7618 92.48L72.3458 92.396L72.4018 95.063L73.6618 95.007L74.0048 107.467L72.2548 107.537ZM83.8888 100.278C83.8468 104.093 81.0888 105.878 79.2198 106.634L78.7788 94.944C80.6618 95.112 83.9308 96.008 83.8888 100.278ZM77.4908 94.923H78.2818V106.97C78.0222 107.052 77.7581 107.12 77.4908 107.173V94.923Z" fill="white"/>
<path d="M31.8998 93.1451H29.2258L29.5058 95.8961L30.3808 95.8471C30.3808 96.1131 30.7098 107.866 30.7238 108.16H29.8558L29.8908 110.589L34.2728 110.414L34.0628 108.314H33.2228V104.212C34.3864 104.125 35.5306 103.866 36.6178 103.442L38.8298 108.23H37.9758V110.659L42.3998 110.4L42.1898 108.3H41.0698L37.8848 102.826C44.9408 97.0161 37.8568 92.3751 31.8998 93.1451V93.1451ZM38.2558 98.7871C38.2558 102.798 33.2298 102.49 33.2298 102.49V95.7001C33.2298 95.7001 38.2418 95.0001 38.2488 98.7871H38.2558Z" fill="white"/>
<path d="M109.124 101.937C109.775 97.996 109.894 88.595 102.124 93.313L101.592 91.808L99.9258 92.403C100.402 93.726 101.137 95.798 101.697 97.345L103.356 96.75C103.237 96.414 103.034 95.861 102.831 95.287C105.526 91.563 106.821 97.184 106.639 98.787C97.3218 95.987 98.8478 107.292 106.639 103.687V104.436H106.079V105.5H109.502V104.436H108.767C108.816 104.037 108.977 103.148 109.124 101.937V101.937ZM103.867 103.155C103.018 103.075 102.352 102.394 102.291 101.544C102.23 100.694 102.793 99.9244 103.622 99.725C104.47 99.8046 105.137 100.486 105.198 101.336C105.258 102.186 104.695 102.956 103.867 103.155Z" fill="white"/>
<path d="M111.525 106.683L100.444 107.719L99.8909 110.498L112.071 110.267L111.525 106.683Z" fill="white"/>
<path d="M98.3999 97.282C98.4344 95.9393 97.7691 94.675 96.6429 93.943L97.7279 92.767L94.9279 91.5L94.2279 92.9C92.6403 92.5364 91.0113 92.3857 89.3839 92.452H86.6609L86.9549 95.252L87.8369 95.21L88.1589 106.704L87.3469 106.753V108.153H88.2009V108.643L87.3259 108.699V110.274L93.1919 110.05L93.0099 108.335L90.7209 108.482V108.055L92.8699 107.978L92.7019 106.417L90.7209 106.543V103.68C90.7209 103.68 98.3999 103.309 98.3999 97.282V97.282ZM90.7839 102V95.063C91.5804 94.9816 92.3846 95.017 93.1709 95.168L92.5759 96.407L93.7589 97.107L94.8649 95.91C98.6029 100.215 91.8129 102.581 90.7839 102V102Z" fill="white"/>
<path d="M39.5649 139.814L46.3199 139.499L46.3129 139.478L47.5309 139.415L47.1949 136.664L45.9909 136.734L44.1219 120.837L45.9769 120.592L45.4029 117.89L39.3689 118.968L39.5999 121.432L41.0629 121.243L41.7489 136.125L34.5529 119.458L31.5919 119.591L30.4929 138.036L28.7639 138.351L28.9949 140.808L35.3649 139.968L34.7979 137.266L33.7339 137.462L33.7969 123.931L39.5649 139.814Z" fill="white"/>
<path d="M60.7888 121.257L60.8028 123.287L64.8698 123.245L64.7158 136.209L63.5188 136.244L63.3508 138.827L70.3648 138.743L70.0708 136.034L68.4118 136.083L68.9578 123.21L73.2908 123.168L73.2698 121.138L69.0488 121.173L69.0838 120.375L73.3538 120.312L73.4448 118.191L60.9288 117.904L60.8098 120.627L64.8978 120.438L64.8908 121.215L60.7888 121.257Z" fill="white"/>
<path d="M108.41 131.218L97.2659 132.079L96.6499 134.403L108.928 133.717L108.41 131.218Z" fill="white"/>
<path d="M109.432 138.057L109.026 135.026L96.8249 135.88L96.6499 138.057H109.432Z" fill="white"/>
<path d="M111.266 127.235L107.5 124.302L106.17 126.017L107.29 126.885C103.216 129.965 100.129 126.045 100.073 124.134L108.676 123.042C108.676 121.292 107.528 115.937 100.689 117.316C89.0758 122.216 100.22 135.929 109.054 128.25L109.957 128.95L111.266 127.235ZM103.153 118.835C105.078 118.583 105.953 121.019 105.953 121.019L101.179 121.719C101.179 121.719 100.556 119.164 103.153 118.8V118.835Z" fill="white"/>
<path d="M86.2898 136.223V139.107L91.3368 138.96H91.5328L93.7798 138.897L93.4368 135.698L91.5328 135.838V120.2L92.8138 120.165L92.5548 118.142L87.1298 118.478V120.305L88.5298 120.27V125.681L81.5298 126.108L81.3268 120.2H82.6358L82.3698 118.17L76.6508 118.506V120.333H78.0508L77.5328 136.209L76.2378 136.307V139.191L81.7188 139.03H82.0058L83.7208 138.981L83.3848 135.782L81.9008 135.887L81.7118 130.343L88.5648 130.756V136.146L86.2898 136.223ZM81.5578 127.627V127.06L88.5578 126.36V127.13L81.5578 127.627Z" fill="white"/>
<path d="M81.5999 51.005L80.8019 47.918L76.3709 49.962L77.7709 52.244C71.5969 56.948 76.7419 63.577 81.4109 66.734C79.5979 68.3198 77.6853 69.7881 75.6849 71.13C75.3429 70.2138 75.053 69.279 74.8169 68.33L77.0709 67.287L75.0269 62.856L65.9619 67.056L68.0059 71.487L70.1549 70.5C70.4667 71.6687 70.8765 72.8091 71.3799 73.909C68.7129 75.526 66.2559 76.863 64.5759 77.752L66.1999 80.72C68.5934 79.6517 70.9299 78.4601 73.1999 77.15C82.0339 89.988 101.2 77.591 86.2689 66.489C91.6239 60.371 89.1879 52.349 81.5999 51.005V51.005ZM78.5199 56.955C78.6505 56.2187 78.9908 55.5357 79.4999 54.988L80.6339 56.843L82.8599 55.8L82.3699 53.896C86.4999 55.8 87.5429 60.336 83.9449 64.2C81.1659 61.505 78.0999 58.95 78.5339 56.955H78.5199ZM86.8359 74.525C85.4359 79.278 80.1439 79.649 77.3579 74.581C79.728 72.9946 81.9407 71.185 83.9659 69.177C85.8419 71.06 87.1229 72.74 86.8499 74.525H86.8359Z" fill="white"/>
<path d="M98.7989 53.581L98.9109 54.869L92.1139 55.611L92.4779 58.971L99.2049 58.236L101.067 79.726L99.0999 79.985L99.2399 84.297L110.846 83.002L109.922 78.557L107.171 78.921L105.974 57.501L113.135 56.724L112.771 53.364L105.785 54.127L105.708 52.79L112.778 51.985L112.582 48.457L91.8059 50.039L92.0579 54.568L98.7989 53.581Z" fill="white"/>
<path d="M59.179 72.222L41.763 73.566L40.804 77.199L59.984 76.135L59.179 72.222Z" fill="white"/>
<path d="M60.775 82.911L60.138 78.172L41.07 79.509L40.804 82.911H60.775Z" fill="white"/>
<path d="M50.6389 70.962C55.7139 70.962 58.7169 68.925 60.1449 67.581L61.5449 68.68L63.6449 65.999L57.7159 61.4L55.6159 64.074L57.3659 65.474C50.4359 70.227 46.5369 64.466 46.0889 61.176L59.5289 59.468C60.0539 50.494 47.7899 46.273 41.3289 54.505C37.8359 60 39.5229 71.109 50.6389 70.962V70.962ZM50.9679 52.839C53.9709 52.44 55.3289 56.255 55.3289 56.255L47.8669 57.319C47.8669 57.319 46.9079 53.385 50.9679 52.839Z" fill="white"/>
<path d="M16.7799 77.899L16.2339 83.261H21.4279C46.0679 84.794 40.9439 62.611 27.6299 63.045C36.7299 61.113 36.2959 49.045 23.1219 49.836C22.1209 49.836 21.2389 49.836 20.5669 49.836L16.4999 49.878L16.7169 54.617L19.1109 54.344L18.4599 77.983L16.7799 77.899ZM24.0249 53.7C33.9789 51.936 31.4589 63.073 24.0249 61.792V53.7ZM24.0249 65.005C36.7999 64.27 37.4999 79.957 24.0249 78.277V65.005Z" fill="white"/>
<path d="M21.6518 137.651L21.4768 139.625L26.8598 140.094L27.0348 138.12L26.3558 138.064H26.3768L25.9568 127.641L26.9998 127.592L26.9018 125.611L21.5048 125.884L21.6028 127.858L22.6248 127.809V137.735L21.6518 137.651Z" fill="white"/>
<path d="M23.7028 124.869C26.7968 124.68 25.6208 120.711 23.7378 120.886C21.7638 120.809 21.0988 124.568 23.7028 124.869Z" fill="white"/>
<path d="M25.712 117.995C25.712 116.224 23.738 116.021 23.738 116.021C19.118 117.183 24.529 123 25.712 117.995Z" fill="white"/>
<path d="M103.412 146.8L98.7498 146.695L98.8268 150.335L100.549 150.251L101.018 167.261L98.6238 167.373L98.3298 171.188L101.83 171.083C118.7 171.888 124.069 146.905 103.412 146.8V146.8ZM105.771 150.139C106.128 150.118 106.485 150.118 106.842 150.139V166.603C106.491 166.716 106.133 166.807 105.771 166.876V150.139ZM108.13 166.127L107.5 150.146C117.867 151 115.515 163.866 108.13 166.113V166.127Z" fill="white"/>
<path d="M74.0889 171.524L80.1999 171.3L79.9129 168.374L78.3519 168.318L73.8999 160.709C83.6579 152.743 74.0469 146.359 65.6049 147.409H61.9089L62.3009 151.224L63.5119 151.161C63.5119 151.392 63.9739 167.961 63.9809 168.227L62.7839 168.185L62.8399 171.559L68.9089 171.314L68.6219 168.388L67.4599 168.346V162.62C69.0719 162.5 70.6572 162.141 72.1639 161.556L75.2229 168.192L74.0399 168.15L74.0889 171.524ZM67.4599 160.324V150.923C78.0999 150.034 75.3629 161.29 67.4599 160.338V160.324Z" fill="white"/>
<path d="M57.723 167.163L42.939 167.632L42.855 170.831L58.402 170.712L57.723 167.163Z" fill="white"/>
<path d="M50.352 166.645H50.625C60.278 166.911 60.292 151 51.815 149.586L51.738 146.849H48.168L48.392 149.817C40.776 152.554 41.7 166.624 50.352 166.645ZM48.623 152.89L48.784 155.116L51.962 154.759L51.899 152.456C56.883 155.123 56.323 163.173 50.625 163.656C44.682 163.026 44.885 155.648 48.623 152.89V152.89Z" fill="white"/>
<path d="M96.6779 163.502L90.1469 164.202L90.4899 167.38L92.0999 167.205V168.437C92.0999 168.437 87.1999 168.122 87.1369 167.912C87.0739 167.702 87.5289 155.76 87.7039 151.028L90.0279 150.867L89.8039 147.668L81.95 148.228L82.1809 151.427L84.0989 151.287L82.8039 171.006L96.3069 170.719C96.3069 170.719 96.1249 168.43 95.9429 166.792L97.0559 166.673L96.6779 163.502Z" fill="white"/>
<path d="M33.0268 151.077L34.9938 151.308L34.6998 162.06L27.8818 152.26L21.3998 160.905C21.3578 157.692 21.3018 153.408 21.2738 151.028L22.8698 150.811L22.4638 147.752L15.3728 148.697L15.7788 151.756L17.1158 151.581L18.8448 166.862L17.5568 166.575L16.8568 169.592L23.8568 171.139L24.5218 168.122L23.6818 167.94L28.4698 161.003L32.4108 168.325L31.2838 168.458L31.6478 171.524L38.7458 170.684L38.3888 167.618L37.2618 167.751L39.0608 151.805L40.0968 151.931L40.4608 148.865L33.3628 148.011L33.0268 151.077ZM28.1268 156.278L21.4698 165.035C21.4698 165.035 21.4698 164.02 21.4698 162.515L28.1688 153.94L34.6998 163.551L34.6158 166.624L28.1268 156.278Z" fill="white"/>
<path d="M119.589 62.317V66.811H126.939V156.509H119.589V161.003H131.433V62.317H119.589Z" fill="white"/>
<path d="M0.399902 161.003H12.2439V156.509H4.8939V66.811H12.2439V62.317H0.399902V161.003Z" fill="white"/>
<path d="M76.1258 177.509C72.5418 179.287 69.5598 182.451 68.0128 184.376C67.1111 183.866 65.9933 183.938 65.1638 184.558C61.3908 179.126 51.0658 175.178 46.6278 176.536C44.5278 180.463 44.5278 194.491 46.8378 198.67C52.8998 200.21 62.6998 194.4 65.4998 190.032C66.4752 190.535 67.6562 190.408 68.5028 189.71C72.0868 195.485 82.6078 199.069 86.8078 197.767C88.9638 193.742 88.8238 179.721 86.5908 175.64C82.9948 175.229 79.3571 175.878 76.1258 177.509V177.509ZM49.7498 182.584C53.2947 182.528 56.8296 182.974 60.2498 183.907C60.5508 183.977 60.8518 184.061 61.1388 184.138L62.0208 184.39C62.6788 184.593 63.2388 184.761 64.5478 185.23C64.3004 185.605 64.149 186.035 64.1068 186.483C59.7659 185.687 55.482 184.607 51.2828 183.249C50.9188 183.123 50.5828 183.018 50.3448 182.913C50.2538 182.913 49.9178 182.766 49.5328 182.598L49.7498 182.584ZM55.4268 190.445C54.0268 190.746 51.8428 191.215 49.7568 191.453H49.4908C49.4162 191.458 49.3414 191.458 49.2668 191.453L49.7148 191.201C53.2292 189.378 56.9867 188.067 60.8728 187.309L61.3208 187.218L61.7548 187.141C62.2938 187.043 62.9168 186.931 64.0858 186.777C64.0719 187.216 64.0906 187.656 64.1418 188.093C62.2728 188.674 60.0328 189.318 56.7218 190.109L55.4268 190.445ZM64.6388 189.703C63.9878 190.116 63.3508 190.522 62.1118 191.215C61.2196 191.719 60.2987 192.17 59.3538 192.566C59.1018 192.664 59.1788 192.643 58.6538 192.818L58.2408 192.944L57.8628 193.035C57.7438 193.035 57.7298 193.07 57.2328 193.14H57.1068H56.8268H56.6798L56.7988 193.042C56.8758 192.972 56.9948 192.888 57.1348 192.776C57.2748 192.664 57.2888 192.657 57.3728 192.594C57.7438 192.293 57.5548 192.447 58.3038 191.894L58.6748 191.593C59.5544 190.884 60.4779 190.232 61.4398 189.64C61.6498 189.514 62.2028 189.178 63.0218 188.758L63.2878 188.632L63.8128 188.387L64.1348 188.247C64.245 188.741 64.4869 189.196 64.8348 189.563L64.6388 189.703ZM64.5758 185.174C64.3238 185.062 63.2528 184.586 62.2308 184.103L61.9718 183.984C60.9848 183.501 60.0888 183.088 58.5488 182.304C58.1848 182.108 57.9818 182.017 57.1488 181.548C57.0088 181.45 57.0088 181.471 56.3718 181.051C56.2668 180.967 56.2458 180.974 55.7628 180.603L55.4338 180.33L55.3498 180.253L55.2098 180.127C55.1791 180.092 55.1464 180.06 55.1118 180.029L55.2308 180.078L55.6018 180.26C55.6908 180.294 55.7774 180.333 55.8608 180.379C55.9588 180.379 56.0568 180.47 56.1758 180.512C57.0718 180.918 58.1218 181.282 59.5708 181.912L59.8368 182.038C60.1938 182.192 60.5368 182.367 60.9218 182.535C61.1108 182.64 61.1038 182.612 61.9858 183.074L62.5038 183.354C63.2038 183.788 63.4068 183.837 64.7718 184.754L64.8908 184.838C64.7796 184.944 64.6744 185.056 64.5758 185.174ZM68.1248 184.474C68.989 183.846 69.8888 183.269 70.8198 182.745L71.0718 182.598C71.4638 182.381 71.3798 182.416 72.3878 181.898C72.6468 181.772 72.9758 181.604 73.7178 181.261L73.9838 181.142L75.4818 180.498L75.9368 180.316L76.3568 180.141L76.7418 179.973L77.3928 179.672L77.6518 179.546C77.8128 179.469 77.9318 179.399 78.0228 179.364L78.1488 179.301L78.0368 179.406C78.0368 179.441 77.9598 179.483 77.9108 179.532C77.8618 179.581 77.9108 179.532 77.7288 179.7L77.4978 179.896L77.2248 180.12L76.8958 180.358C76.7628 180.449 76.7908 180.442 76.1258 180.862L75.6918 181.121C74.5578 181.765 73.1018 182.521 71.3588 183.382C70.4768 183.802 70.0218 184.082 68.4748 184.782C68.3709 184.657 68.2535 184.545 68.1248 184.446V184.474ZM68.8878 184.635C69.2728 184.495 69.7698 184.299 70.8968 183.935L71.3308 183.795L72.1988 183.529C73.1718 183.256 74.6068 182.829 76.6718 182.444C79.0105 181.976 81.3919 181.755 83.7768 181.786L83.5668 181.884L83.3148 181.989C79.785 183.291 76.1719 184.355 72.4998 185.174C71.9748 185.293 70.7288 185.587 69.2238 185.874C69.0883 185.444 68.8477 185.054 68.5238 184.74L68.8878 184.635ZM76.6508 192.468H76.3708H76.2448C75.6023 192.399 74.9717 192.246 74.3688 192.013L74.1308 191.929C73.7458 191.782 73.6408 191.733 72.9128 191.404C72.7168 191.313 72.7448 191.334 71.8768 190.893C71.7788 190.851 71.7928 190.851 71.3518 190.627L70.8268 190.34C70.1268 189.913 70.5048 190.193 68.9228 189.234C69.213 188.79 69.373 188.273 69.3848 187.743H69.4478H69.5108L69.8398 187.89L70.1058 188.009C70.6448 188.282 70.9108 188.373 71.9678 188.982C73.3095 189.796 74.5935 190.701 75.8108 191.691C75.9091 191.754 76.0027 191.824 76.0908 191.901C76.1761 191.957 76.258 192.017 76.3358 192.083L76.6788 192.342L76.7978 192.44L76.6508 192.468ZM83.9798 190.662L83.3498 190.599C79.7613 190.131 76.2071 189.429 72.7098 188.499C72.1498 188.359 70.9108 188.044 69.3848 187.596C69.3988 187.147 69.3778 186.698 69.3218 186.252C69.7978 186.301 70.0218 186.329 71.2048 186.497L71.6388 186.567L72.0728 186.644C76.1296 187.332 80.065 188.605 83.7558 190.424C83.8258 190.424 83.9308 190.508 84.2038 190.669L83.9798 190.662Z" fill="white"/>
<path d="M44.7588 0.5H84.3578V8.515H44.7588V0.5Z" fill="white"/>
<path d="M44.7588 9.43896H84.3578V13.31H44.7588V9.43896Z" fill="white"/>
<path d="M65.3948 43.2C69.5948 49.836 82.1948 43.48 83.1048 42.367C72.7308 43.648 71.5898 34.338 65.4508 39.287C59.1508 34.037 58.1918 43.599 47.7268 42.255C50.7438 45.069 61.9998 49.01 65.3948 43.2V43.2Z" fill="white"/>
<path d="M45.5638 34.569C49.2318 34.569 49.0638 30.1521 48.9378 27.5691H50.4498C50.9748 35.5351 61.9368 34.8841 62.2308 27.5691H66.8158C67.3478 35.5351 78.3098 34.8841 78.5968 27.5691H80.2348C80.1158 30.1661 79.8638 34.415 83.6158 34.569V17.1951H88.9638V15.0461H84.3578V14.2271H44.7588V15.0461H40.1948V17.1951H45.5638V34.569ZM56.3368 32.4691C49.6798 32.1821 50.0368 22.732 56.3368 22.522C62.9938 22.83 62.6998 32.2801 56.3368 32.4901V32.4691ZM72.7098 32.4691C66.0528 32.1821 66.4098 22.732 72.7098 22.522C79.3668 22.83 79.0448 32.2801 72.7098 32.4901V32.4691ZM80.2348 26.6521H78.5338C77.4208 19.8831 67.8938 20.2121 66.8788 26.6521H62.1678C61.0548 19.8831 51.5278 20.2121 50.5128 26.6521H48.9378V17.1951H80.2348V26.6521Z" fill="white"/>
</svg>
