<svg width="193" height="175" viewBox="0 0 193 175" fill="none" xmlns="http://www.w3.org/2000/svg">
<path d="M29.9499 29.6711C44.1599 30.1051 43.3899 3.81306 39.7009 19.3951C36.9499 28.8521 26.4009 30.5111 23.7759 22.1951C19.3939 8.62906 35.0039 0.733057 45.2309 3.54006C46.9459 20.7391 43.0749 31.8971 37.4469 42.3271C35.6689 46.2261 35.1859 61.9271 39.9249 59.2671C41.4509 57.6641 39.9249 46.1421 42.0249 43.9651C49.1509 31.8271 51.4889 13.9351 50.8729 6.29106C53.6496 8.197 56.2839 10.3026 58.7549 12.5911C52.1539 25.7511 47.0579 52.9741 48.1569 58.2941C53.9179 63.1941 51.9439 55.1511 54.5759 45.2601C56.7249 39.4011 60.7569 36.9511 63.5989 36.0271C70.1789 33.6051 63.7809 43.8391 63.7319 53.2121C63.3259 62.2001 74.8899 59.8831 78.1659 56.6001C85.5789 64.3001 91.8579 52.3231 92.4809 50.0061C89.5409 60.2751 96.1839 61.2061 103.352 55.4311C103.226 58.4481 107.356 59.9811 108.952 58.4621C110.184 56.6421 109.932 52.4001 110.772 49.7261C110.996 43.5381 117.814 32.9261 121.272 35.4181C121.972 37.6161 117.772 47.3181 117.898 53.6181C117.898 62.3121 127.698 58.8611 130.925 54.0311C130.533 56.3061 130.477 58.5881 133.515 59.1341C139.388 60.3241 135.111 44.0841 139.619 45.3651C151.568 51.7281 142.202 77.5651 156.307 81.4711C159.506 82.7171 165.792 81.0021 161.102 81.1911C145.352 78.5031 159.702 47.5491 143.084 44.7421C164.392 45.1551 150.861 22.5381 139.423 37.9241C140.739 35.2291 151.974 13.6411 144.624 12.1641C144.54 12.1573 144.456 12.1573 144.372 12.1641C133.578 12.5351 132.129 44.7001 131.31 49.6001C119.235 65.5321 125.01 51.5251 127.061 39.4711C127.187 25.8001 114.3 35.6001 113.096 38.4771C106.873 20.1021 105.179 49.3831 103.625 52.4771C94.4549 61.6191 97.9549 47.9481 99.2569 42.8451C99.6489 41.6201 97.6959 38.9811 96.0299 37.9031C93.4049 36.1251 94.0069 39.2471 93.2299 41.6131C91.6339 48.5081 88.0639 57.5311 83.0169 56.9361C78.8659 56.1101 82.7089 43.6711 86.1739 40.1361C88.4349 37.7281 90.6469 38.7361 92.4039 37.8121C93.3979 35.5651 91.3329 34.1231 89.1419 32.9121C79.9299 30.0491 75.3939 44.4481 77.2419 54.4091C62.6889 65.1191 73.0419 46.2331 71.6419 35.9921C70.0599 28.0191 56.8649 36.3001 57.4179 37.1051C57.3479 37.3781 59.6789 26.1641 62.6189 15.9861C82.3029 34.4941 91.3189 19.5841 87.5529 9.11206C82.4219 -2.60594 66.7979 0.089057 61.5759 8.19506C50.7049 -2.94894 30.1669 -1.60494 22.1589 10.8411C18.5119 17.2881 21.7039 30.1471 29.9499 29.6711V29.6711ZM141.663 37.3221C143 35.6351 146.5 33.9411 149.3 34.5921C153.5 40.6261 135.727 46.1701 141.663 37.3221ZM142.433 20.9001C143.602 17.6031 144.533 13.7041 145.933 15.1461C146.002 15.2499 146.05 15.3665 146.073 15.4891C147.032 18.7791 138.87 35.6701 138.534 36.2791C138.59 35.8871 140.515 27.1161 142.433 20.9001V20.9001ZM75.8769 3.05706C94.6999 5.24806 85.2289 34.5501 64.5999 10.9461C67.5749 4.86306 71.3549 3.12006 75.8769 3.05706V3.05706Z" fill="white"/>
<path d="M141.306 110.773C147.333 110.773 147.683 105.873 146.206 107.07C139.78 112.341 139.717 101.12 142.762 81.569C143.679 75.724 144.085 71.349 143.763 69.669C143.378 67.681 138.212 65.651 138.254 68.143C138.331 73.134 133.928 90.277 128.454 90.942C124.317 91.439 130.316 76.718 130.134 70.642C129.987 65.742 123.575 65.679 123.708 67.142C123.802 68.87 123.723 70.603 123.47 72.315C122.335 73.2264 121.091 73.9929 119.767 74.597C117.093 63.131 107.545 77.061 118.465 76.291C118.892 90.011 106.887 98.691 108.175 81.24C108.532 70.516 120.166 67.835 111.822 66.862C104.507 65.532 100.811 78.531 103.8 87.862C110.681 100.063 121.517 88.051 119.9 75.892C121.05 75.4769 122.152 74.9419 123.19 74.296C118.192 99.188 131.653 94.645 136.252 85.538C135.923 89.171 132.157 110.731 141.306 110.773V110.773ZM117.429 75.15C111.185 73.89 118.087 67.898 118.381 75.045C118.068 75.1137 117.749 75.1489 117.429 75.15Z" fill="white"/>
<path d="M92.8099 95.6951C87.1469 96.0871 81.7569 97.9211 78.1939 101.19C70.1649 108.568 69.3459 121.616 81.6939 121.623C91.0109 121.623 95.7919 109.905 98.4099 97.1791C115.287 101.834 108.91 97.3611 98.6829 95.7791C100.216 85.8951 101.875 76.5641 101.364 69.7321C100.153 67.2121 96.0019 65.8331 95.5399 68.3321C95.0989 73.3371 94.2729 92.4821 85.4319 90.3261C80.4619 88.0931 92.9359 67.7091 82.6319 66.6731C79.3419 66.5401 80.7279 75.3671 79.7899 78.8181C76.6749 94.7291 88.3579 96.8711 94.4269 86.4271C95.1269 85.0761 93.2019 93.3641 92.8099 95.6951V95.6951ZM80.9099 119.096C72.0199 119.187 72.6219 108.967 78.6909 103.031C82.1419 99.6571 87.3849 97.8931 92.4319 97.3191C89.7999 109.8 86.5799 119.033 80.9449 119.096H80.9099Z" fill="white"/>
<path d="M39.1129 118.053C93.0969 74.5481 56.0109 54.9341 41.1429 78.3981L36.0819 73.3371C26.5479 62.2981 11.6309 68.6121 13.1779 80.1271C15.0119 94.8061 37.6359 116.618 39.1129 118.053Z" fill="white"/>
<path d="M182.2 56.362C180.856 50.167 173.919 50.65 168.956 55.767C166.688 46.905 156.888 45.897 155.656 53.261C154.956 60.583 163.951 73.491 164.546 74.394C165.75 73.792 183.789 64.3 182.2 56.362Z" fill="white"/>
<path d="M113.243 26.262C139.787 4.87002 121.51 -5.57398 113.782 7.13102C109.785 -1.09398 99.978 -0.0999789 100.3 7.34802C101.035 14.663 112.473 25.492 113.243 26.262Z" fill="white"/>
<path d="M53.596 148.3C55.738 143.001 49.018 141.839 44.678 142.434V150.834C47.66 150.519 51.79 151.996 53.596 148.3V148.3Z" fill="white"/>
<path d="M64.7261 153.984H72.2371L68.4711 143.652L64.7261 153.984Z" fill="white"/>
<path d="M114.636 144.541C113.236 142.399 108.938 142.308 106.236 142.441V159.759C116.309 161.376 118.878 151.849 114.636 144.541V144.541Z" fill="white"/>
<path d="M135.559 143.785C134.257 141.916 128.734 142.539 126.627 142.448V151.1C131.534 151.282 139.745 151.758 135.559 143.785Z" fill="white"/>
<path d="M145.051 153.984H152.562L148.803 143.652L145.051 153.984Z" fill="white"/>
<path d="M192.819 127.629H0.199951V174.571H192.819L167.255 151.1L192.819 127.629ZM23.3 155.384C24.175 159.668 30.3 161.873 34.045 158.478V153.515H28.9V151.149H36.908V159.248C24.588 170.546 13.43 151.282 23.44 141.335C28.207 137.933 36.138 139.746 36.908 146.536H33.996C32.33 138.633 19.632 141.055 23.3 155.384V155.384ZM57.824 162.153H54.667L49.9 153.2H44.678V162.139H41.7519V140.054C60.6519 137.905 58.972 149.77 52.602 152.591L57.789 161.964L57.824 162.153ZM75.2469 162.153L73.1469 156.385H63.844L61.7439 162.153H58.762L67.1619 140.054H69.7169L78.166 162.153H75.2469ZM98.1929 162.153H95.267L84.144 145.122V162.153H81.211V140.054H84.144L95.295 157.155V140.054H98.1929V162.153ZM119.312 151.8C119.151 162.3 110.982 162.538 103.331 162.181V140.054C113.068 139.368 119.599 141.139 119.312 151.8ZM137.61 151.8C135.44 154.04 129.693 153.501 126.627 153.55V162.202H123.715V140.054C132.066 139.319 144.729 140.404 137.61 151.751V151.8ZM155.537 162.202L153.437 156.434H144.169L142.069 162.202H139.066L147.508 140.103H150.056L158.505 162.202H155.537Z" fill="white"/>
</svg>
