<svg width="200" height="127" viewBox="0 0 200 127" fill="none" xmlns="http://www.w3.org/2000/svg">
<path d="M30.457 62.1573C27.9189 61.9441 27.0356 63.9898 27.2844 65.9847C25.0306 65.9847 22.863 67.5989 23.6397 70.2233C24.0915 71.7461 25.3554 72.3756 26.863 72.4314C28.5686 72.4974 31.5534 72.1928 32.8631 70.9086C34.0306 69.7817 33.2894 66.8477 33.0356 65.4467C32.7768 63.9593 32.2641 62.3045 30.457 62.1573V62.1573Z" fill="white"/>
<path d="M113.965 1.24873C112.173 -0.883251 109.868 0.00507414 108.503 1.75634C106.756 -0.0101544 103.802 -0.441626 102.355 2.20812C101.518 3.73096 102.01 5.22842 103.137 6.4467C104.416 7.82741 106.98 9.92386 108.98 9.96447C110.777 10 112.497 7.1269 113.386 5.84771C114.355 4.44162 115.228 2.76142 113.965 1.24873V1.24873Z" fill="white"/>
<path d="M173.64 31.1979C173.431 28.4263 171.066 27.7918 168.914 28.4263C168.538 25.9695 166.376 23.8933 163.67 25.1928C162.091 25.9441 161.64 27.4365 161.822 29.0812C162.046 30.9543 162.898 34.1573 164.497 35.3604C165.929 36.4365 169.01 35.1167 170.477 34.5989C172.081 34.0101 173.787 33.1725 173.64 31.1979V31.1979Z" fill="white"/>
<path d="M199.878 78.8629C199.675 76.0812 197.284 75.4568 195.158 76.071C194.777 73.6193 192.619 71.538 189.909 72.8426C188.33 73.5939 187.878 75.0812 188.061 76.7309C188.289 78.599 189.137 81.8071 190.736 83.005C192.173 84.0863 195.249 82.7665 196.716 82.2487C198.325 81.6802 200.026 80.8375 199.878 78.8629V78.8629Z" fill="white"/>
<path d="M26.4265 51.5635C26.1637 51.3312 25.7629 51.3538 25.528 51.6142C25.3757 51.7868 24.0051 53.3553 24.3656 54.7564C24.5583 55.4463 25.0939 55.9877 25.7818 56.1878C25.9901 56.263 26.2101 56.3008 26.4315 56.2995C27.5889 56.2995 28.8478 55.33 29.7666 54.4315C31.2862 52.9086 32.4933 51.1031 33.3199 49.1168C33.729 47.6095 33.6562 46.012 33.1117 44.5482C32.6418 43.5672 31.8372 42.786 30.8427 42.3452C29.986 41.9386 29.0442 41.7436 28.0965 41.7767C14.6447 42.2031 5.25388 60.198 5.25388 60.198C1.4417 66.3909 0.350327 70.7158 0.507687 77.665C0.52369 78.7198 0.653028 79.7698 0.893474 80.797C1.8021 85.8731 4.44677 93.198 10.4062 95.7564C18.2133 99.1168 24.4163 93.3706 24.4163 93.3706C24.4163 93.3706 25.4315 104.396 23.9087 113.843C22.3859 123.289 17.665 123.3 17.665 123.3C16.9381 123.419 16.1923 123.338 15.5077 123.066C14.3554 122.558 13.7361 121.376 13.665 119.553C13.5128 115.838 14.8021 113.721 16.061 112.954C16.6309 112.567 17.3724 112.539 17.9696 112.883C18.5686 113.254 18.6041 113.589 18.6143 113.701C18.6752 114.289 18.1067 114.98 17.863 115.223C17.6854 115.375 17.6057 115.613 17.6556 115.841C17.7055 116.069 17.8769 116.252 18.1017 116.316C18.3265 116.38 18.5683 116.315 18.731 116.147C18.863 116.025 20.0102 114.919 19.8782 113.609C19.777 112.849 19.3108 112.185 18.6295 111.833C17.635 111.239 16.3896 111.26 15.4163 111.888C13.8427 112.817 12.2183 115.33 12.396 119.609C12.5128 122.533 13.8732 123.736 14.9899 124.228C15.6138 124.494 16.2863 124.628 16.9645 124.62C17.5892 124.611 18.2102 124.522 18.8123 124.355C22.0954 123.33 24.7519 120.897 26.061 117.716C27.726 113.462 27.726 104.518 27.66 101.193C27.6092 100.178 27.6041 99.2081 27.5737 98.2183C27.5737 97.3249 27.5381 96.4315 27.4925 95.5432C27.4925 95.5432 27.1828 92.9391 27.1422 90.5279C27.1016 88.1168 27.2945 90.3553 27.4722 90.1422C28.6752 88.7158 32.5838 83.731 31.0255 80.9086C30.868 80.4315 30.5287 80.0357 30.0813 79.8071C30.0249 79.7731 29.9631 79.7491 29.8986 79.7361C29.8046 79.6927 29.7079 79.6555 29.6092 79.6244C28.8164 79.3786 27.9554 79.4976 27.259 79.9493C26.5369 80.4787 25.9677 81.1897 25.6092 82.0102C24.8681 83.5889 24.7716 85.3097 24.5534 86.9899C24.4128 88.361 24.3433 89.7385 24.3453 91.1168C24.341 91.2414 24.3257 91.3654 24.2996 91.4873C22.3554 93.1421 19.5991 94.7919 16.5737 94.4619C15.9305 94.3801 15.3018 94.2092 14.7057 93.9543L13.6904 93.4772C9.2488 90.9848 5.64982 84.2741 4.80718 78.2487C4.74627 77.5584 4.70058 76.863 4.66505 76.1675V76.1422C4.73611 68.5889 10.2488 56.8173 17.2336 50.5533C21.1676 47.0457 24.2031 45.1777 26.396 44.2792C26.9036 44.132 27.3808 43.9899 27.8884 43.8782C28.3635 43.7643 28.8518 43.7148 29.3402 43.731C29.3402 43.731 33.0407 43.5635 32.2336 48.4315C31.487 50.3444 30.3395 52.0753 28.8681 53.5076C27.5229 54.8224 26.5991 55.1218 26.2133 54.9746C25.6752 54.7716 25.6092 54.5178 25.5889 54.4315C25.4417 53.8427 26.0965 52.8325 26.4671 52.4416C26.6887 52.1845 26.6709 51.799 26.4265 51.5635V51.5635ZM29.2437 80.7513C31.4011 80.5279 29.4112 86.4619 27.2133 88.4416C27.198 88.4416 27.0864 80.9696 29.2437 80.7513Z" fill="white"/>
<path d="M86.0255 9.56854C85.8402 9.33844 85.6191 9.13962 85.3707 8.97971C84.7146 8.59892 83.9962 8.33768 83.2488 8.20813C79.528 7.47717 76.929 13.1117 76.929 13.1117C76.1628 14.5087 75.5403 15.9798 75.0712 17.5025C74.6803 18.5736 74.4417 19.7005 74.1422 20.8071C73.9087 21.6599 73.6854 22.5178 73.462 23.3756C73.33 23.8833 73.193 24.3452 73.0813 24.8376C72.7361 26.3249 72.4163 27.8173 72.0661 29.3046C71.9556 29.8949 71.5894 30.406 71.0661 30.7005C70.4265 31.0558 69.8326 31.5025 69.2082 31.8883C67.3605 33.0152 65.4772 34.0863 63.66 35.2589C61.7361 36.4975 59.8732 37.8274 57.9798 39.1117C57.8586 39.1797 57.7311 39.2358 57.5991 39.2792C57.5991 38.7716 57.528 38.3655 57.5432 37.9645C57.6042 36.7005 57.7108 35.4264 57.7514 34.1675C57.792 32.9086 57.7869 31.5736 57.8021 30.2792C57.8173 28.9848 57.8021 27.7411 57.858 26.4518C57.9239 25.0812 58.061 23.7157 58.193 22.3503C58.1992 22.2863 58.2128 22.2233 58.2336 22.1624C59.6149 21.1696 60.8606 20.0007 61.9392 18.6853C64.3351 15.5229 65.0509 13.4873 64.3605 11.9746V12C64.2361 11.7276 64.0502 11.4878 63.8174 11.2995L63.7361 11.2437C63.5372 11.0959 63.3138 10.9842 63.0762 10.9137C62.061 10.5279 60.127 10.264 57.8986 12.3604C55.7514 14.3909 54.6194 19.7716 54.0965 23.2284C54.0365 23.2798 53.9719 23.3257 53.9036 23.3655C52.995 23.8731 52.1371 24.4619 51.1879 24.8883C49.2998 25.8529 47.2164 26.3738 45.0965 26.4112C43.3966 26.4446 41.7045 26.1712 40.1016 25.6041C40.1016 25.6041 38.4113 25.2284 37.9899 22.5584C37.9899 22.5584 41.5889 20.8071 42.0509 17.7767C42.1555 17.3722 42.1555 16.9477 42.0509 16.5432C41.7412 15.2234 40.2488 14.33 39.0458 14.9746C38.0196 15.4829 37.1445 16.2512 36.5077 17.2031C35.8095 18.2644 35.3985 19.4887 35.3148 20.7564C35.307 21.2491 35.3547 21.7412 35.4569 22.2234C34.3453 22.6701 33.1727 23.0254 31.9747 23.3909C28.9595 24.3097 25.8427 25.2589 23.4417 27.7767C21.1665 30.0422 20.6712 33.5425 22.2285 36.3503C23.4976 38.797 25.8478 40.3655 28.1321 40.3655C28.3717 40.365 28.611 40.3463 28.8478 40.3097C30.4722 40.0711 31.594 39.4112 32.193 38.3553C33.1473 36.6599 32.3097 34.6244 32.2742 34.5381C32.134 34.2157 31.759 34.068 31.4366 34.2081C31.1142 34.3483 30.9665 34.7233 31.1067 35.0457C31.1067 35.0457 31.7311 36.6091 31.1067 37.7513C30.7108 38.4518 29.8986 38.8985 28.6803 39.0762C26.7158 39.3706 24.528 38.0152 23.3707 35.7868C22.0896 33.456 22.5034 30.5591 24.3859 28.6802C26.5534 26.4061 29.3808 25.5432 32.3707 24.6193C33.5382 24.264 34.7158 23.9036 35.863 23.4518C35.863 23.4518 36.8072 28.1828 45.8174 27.6904C46.054 27.6953 46.2906 27.6749 46.5229 27.6295C49.134 27.3455 51.6478 26.4781 53.8783 25.0914C53.7869 25.8731 53.7463 26.3503 53.7463 26.3503L52.5991 43.1472C48.5682 46.3824 45.2674 50.4339 42.9138 55.0355C40.9189 59.066 40.1625 62.8985 40.8427 65.5432C40.9957 66.1672 41.2495 66.7622 41.594 67.3046C41.9385 67.847 42.8833 69.8731 46.4163 69.7767C48.0079 69.8174 49.5872 69.489 51.0305 68.8173C52.6167 68.1619 53.8569 66.8738 54.4519 65.264C54.6651 64.6904 54.8833 64.1168 55.0509 63.5279C55.8668 60.3831 56.3768 57.1668 56.5737 53.9239C56.7361 52.066 56.797 50.2031 56.9341 48.3401C57.0965 46.0812 57.3047 43.8223 57.4417 41.5584C57.4405 41.2275 57.5922 40.9146 57.8529 40.7107C59.7507 39.2075 61.7355 37.8176 63.797 36.5482C65.8681 35.2183 67.9849 33.9696 70.0864 32.6904C70.5229 32.4264 70.9696 32.1828 71.4113 31.9289C70.3148 36.5736 68.2691 46.6498 68.7767 55.1777C69.4569 66.7157 76.1879 63.3503 76.1879 63.3503C77.4536 63.0377 78.595 62.3493 79.462 61.3756C79.7366 61.0468 79.9544 60.6745 80.1067 60.2741C80.3199 59.731 80.2031 59.5787 79.5483 59.3706C79.33 59.6295 79.1168 59.8782 78.8986 60.1574C78.7006 60.4598 78.4614 60.7332 78.1879 60.9696C78.0586 61.1088 77.9057 61.2239 77.7361 61.3097C76.0559 62.3706 73.6752 61.9086 72.9747 57.5076C72.6033 54.5354 72.5862 51.5296 72.924 48.5533C72.924 48.4772 72.924 48.401 72.924 48.3249C72.924 48.2487 72.9544 48.0457 72.9747 47.9036C73.0052 47.6193 73.0356 47.3503 73.0661 47.0965C73.2387 45.6904 73.4062 44.7868 73.4062 44.7868C73.4823 44.3198 73.5534 43.8477 73.6194 43.3756C73.7209 42.6701 73.7818 41.9594 73.9138 41.2589C74.2133 39.6091 74.5483 37.9645 74.8681 36.3147C75.0356 35.467 75.1828 34.6142 75.3757 33.7767C75.6194 32.5635 75.8833 31.3503 76.1168 30.132L76.3453 28.8528C77.7514 27.9543 84.2285 23.5838 85.8783 18.5736C87.0204 15.0558 87.8174 11.4264 86.0255 9.56854V9.56854ZM62.3351 12.269C65.0813 11.2538 61.8275 18.6701 58.4062 20.3655C58.4062 20.3655 59.5889 13.2792 62.3351 12.269ZM40.2387 16.132C42.127 15.6244 40.4976 20.0051 37.863 20.8173C37.863 20.8122 38.3503 16.6193 40.2387 16.132ZM52.4214 45.7056L52.33 47.0914C52.33 47.0914 51.7514 63.7157 48.9798 67.2944C48.5205 67.7588 47.943 68.0888 47.3097 68.2487C46.2945 68.4163 42.9544 68.6751 42.0661 65.2031C41.0509 61.33 43.7767 52.467 52.4772 44.8985L52.4214 45.7056ZM76.6498 27.0457C76.6498 27.0457 79.2844 9.88326 84.0052 9.78681C88.726 9.69037 85.5382 22.7513 76.6498 27.0457Z" fill="white"/>
<path d="M48.0661 90.3807C45.528 94.0914 44.3605 91.599 43.792 88.2031C43.4646 85.9514 43.8182 83.6532 44.8072 81.6041C44.9893 81.1249 44.9502 80.5898 44.7006 80.1422V80.1117C44.63 79.9588 44.5015 79.8403 44.3435 79.7822C44.1854 79.7242 44.0108 79.7313 43.858 79.8021C39.5433 81.7817 36.2438 79.9137 36.1118 79.8325C35.8787 79.6932 35.5828 79.7177 35.3758 79.8934C35.1725 80.0712 35.1015 80.3569 35.1981 80.6092C35.4991 81.4742 35.6702 82.3792 35.7057 83.2944C35.6839 85.8199 35.1987 88.3198 34.2742 90.6701C33.5534 92.5939 32.589 93.868 31.4925 94.3655C30.9692 94.6193 30.3699 94.6682 29.8123 94.5026C29.4871 94.3708 29.1167 94.5276 28.9849 94.8528C28.8531 95.178 29.0099 95.5485 29.3352 95.6802C29.6921 95.8058 30.0684 95.8677 30.4468 95.863C30.971 95.8618 31.4893 95.7529 31.9697 95.5432C33.4265 94.9086 34.6042 93.4213 35.4671 91.1168C36.2471 89.094 36.7393 86.9718 36.9291 84.8122C36.9291 84.8122 37.0001 83.7361 36.9595 82.9696C36.9282 82.4689 36.8671 81.9706 36.7768 81.4772C38.4999 82.0404 40.343 82.1281 42.1118 81.731L41.6956 83.1777C41.0255 86.264 40.1017 93.2183 45.4824 93.0508C47.6093 93.0508 48.66 91.0203 48.66 91.0203L48.0661 90.3807Z" fill="white"/>
<path d="M155.787 13.7056C154.68 10.1523 152.137 7.54823 148.437 6.13199C142.401 3.82234 134.838 5.22336 130.487 7.80204C128.437 8.96142 126.845 10.7864 125.975 12.9746C120.98 13.3503 115.619 16.7919 108.569 22.3909C102.761 27 97.8579 27.0965 95.4315 25.7767C93.9651 25.0476 93.1096 23.4806 93.2894 21.8528C93.5483 19.1269 94.8122 16.8325 96.5635 15.8579C97.5129 15.2837 98.6893 15.2321 99.6853 15.7208C100.276 15.9443 100.734 16.4243 100.929 17.0254C101.117 17.9086 100.381 18.8173 100.376 18.8274C100.162 19.0973 100.202 19.4887 100.467 19.7093C100.731 19.9298 101.123 19.8989 101.35 19.6396C101.401 19.5838 102.482 18.2538 102.173 16.7716C101.914 15.7818 101.202 14.9725 100.254 14.5888C98.8856 13.9061 97.2641 13.9654 95.9493 14.7462C93.797 15.9391 92.33 18.5533 92.0254 21.731C91.7986 23.869 92.9127 25.9257 94.8275 26.9036C97.731 28.4772 103.071 28.3858 109.355 23.3909C115.954 18.1421 121 14.8579 125.574 14.3147C125.285 15.5437 125.254 16.8193 125.482 18.0609C125.99 20.8223 127.802 22.8325 130.051 23.1878C132.904 23.6345 134.929 21.9188 135.457 19.9899C135.985 18.0609 135.198 15.3655 131.31 13.8173C130.057 13.309 128.726 13.0206 127.376 12.9645C128.184 11.2541 129.501 9.83566 131.147 8.90356C135.234 6.47717 142.315 5.15737 147.99 7.32996C151.32 8.60407 153.599 10.9391 154.589 14.0914C157.594 23.6853 151.498 34.9036 139.761 41.4163C137.696 42.5426 135.72 43.8273 133.853 45.2589C133.894 44.3858 134.001 43.517 134.173 42.6599C134.214 42.39 134.313 42.1321 134.462 41.9036C135.015 41.0508 135.614 40.2335 136.168 39.3655C136.551 38.831 136.878 38.2576 137.142 37.6548C137.543 36.5888 137.863 35.4822 138.157 34.3858C138.508 33.104 138.64 31.7724 138.548 30.4467C138.466 29.8588 138.152 29.3284 137.675 28.9746C137.38 28.6619 136.913 28.585 136.533 28.7868C135.792 29.2944 134.934 29.6701 134.457 30.4416C133.636 31.645 133.084 33.011 132.838 34.4467C132.731 35.2741 132.513 36.0914 132.396 36.9188C132.193 38.3452 132.036 39.7767 131.843 41.2031C131.803 41.6085 131.707 42.0065 131.558 42.3858C131.381 42.7767 130.934 42.6193 130.604 42.6904C130.555 42.7069 130.509 42.7309 130.467 42.7614C130.23 42.8671 129.952 42.8212 129.761 42.6447C129.21 42.2638 128.897 41.6234 128.934 40.9543C128.94 40.1182 128.989 39.2829 129.081 38.4518C129.168 37.5685 129.315 36.6904 129.432 35.8122C129.533 35.0558 129.589 34.2893 129.731 33.5381C129.924 32.5228 130.188 31.5076 130.401 30.4924C130.514 30.141 130.36 29.7592 130.036 29.5838C129.385 29.072 128.455 29.1219 127.863 29.7005C127.362 30.1758 126.894 30.6846 126.462 31.2234C125.73 32.1008 124.848 32.8415 123.858 33.4112C123.401 33.6751 123.35 33.6498 123.005 33.1878C122.574 32.4967 121.963 31.9353 121.239 31.5635C120.642 31.2063 119.914 31.1427 119.264 31.3909C118.432 31.7513 117.604 32.132 116.726 32.5178C116.538 32.269 116.726 32.0102 116.807 31.7614C116.888 31.5127 116.975 31.2538 117.025 31.0305C117.1 30.6906 116.917 30.3469 116.594 30.2183C116.269 30.0406 114.635 30.3503 114.401 30.6396C114.141 30.9547 113.95 31.3215 113.843 31.7157C113.744 31.891 113.615 32.0474 113.462 32.1777C112.325 33.0762 111.127 33.9036 109.939 34.7157C109.781 34.7945 109.608 34.8411 109.432 34.8528C109.221 34.2537 108.965 33.6716 108.665 33.1117C108.377 32.5687 107.903 32.1473 107.33 31.9239C105.98 31.4376 104.472 31.717 103.386 32.6548C103.218 32.7817 103.071 33.0152 102.792 32.802C102.858 32.5025 102.934 32.2081 102.985 31.9086C103.076 31.6079 102.997 31.2813 102.779 31.0549C102.561 30.8285 102.238 30.7376 101.934 30.8173C101.558 30.8782 101.208 31.0761 100.838 31.1421C100.467 31.2081 100.234 31.4518 100.056 31.8528C99.6397 32.7817 99.6295 33.7868 99.4569 34.7513C99.132 36.5533 98.9493 38.3858 98.7463 40.2081C98.6447 41.0152 98.5686 41.8274 98.4975 42.6396C98.3554 44.2487 97.8122 45.6853 96.4671 46.6701C95.995 47.0203 95.4518 47.4416 94.8681 47.2487C94.3025 47.0838 93.8135 46.7242 93.4874 46.2335C93.1119 45.6269 92.9494 44.9124 93.0254 44.2031C93.1574 43.0406 93.3351 41.8833 93.5331 40.7259C93.8681 38.7411 94.2386 36.7665 94.5838 34.7817C94.7103 34.1596 94.8018 33.5309 94.8579 32.8985C94.9341 31.8833 94.4366 31.5787 93.5686 31.7919C93.2691 31.868 92.9899 32 92.6955 32.0812C92.358 32.1463 92.1086 32.4334 92.0914 32.7767C92.0305 33.1878 91.8935 33.5888 91.7767 34.0457L90.5432 33.6193C89.7767 33.3655 88.9899 33.5279 88.2133 33.4975C87.0422 33.5063 85.8795 33.6964 84.7666 34.0609C82.7107 34.6142 81.3808 36.1574 80.3097 37.8985C79.7981 38.8035 79.3503 39.7432 78.9696 40.7107C78.5292 41.8166 78.2439 42.9783 78.1219 44.1624C77.9385 45.3593 77.9798 46.5798 78.2437 47.7614C78.2935 47.9848 78.3885 48.1955 78.5229 48.3807C80.2133 50.5381 82.5838 50.9188 84.8326 49.5939C86.0108 48.8837 87.0442 47.9571 87.8782 46.863C88.1423 46.4656 88.4341 46.0873 88.7513 45.731C89.2485 45.3314 89.629 44.8054 89.8529 44.2081C89.8935 44.0762 90.061 43.9899 90.2133 43.8376C90.2387 44.5272 90.2997 45.2151 90.396 45.8985C90.5405 46.9216 91.1006 47.8399 91.9442 48.4366C93.264 49.33 95.9442 48.863 96.9341 48.0152C97.2283 47.6902 97.6057 47.4515 98.0254 47.3249C97.7361 49.0965 97.4721 50.7716 97.1777 52.4366C97.0356 53.264 96.8173 54.0761 96.6701 54.8985C96.6286 55.2062 96.3996 55.4555 96.0965 55.5229C95.4945 55.7276 94.9047 55.9666 94.33 56.2386C93.2843 56.7107 92.2539 57.2183 91.2133 57.6954C90.8782 57.8528 90.6701 57.8934 90.4925 57.7868C89.5178 55.8426 87.8833 54.2335 85.1473 53.9594H85.0711C84.4649 53.8759 83.85 53.8759 83.2437 53.9594C81.9309 54.225 80.879 55.2063 80.5229 56.4975C80.1411 58.0976 81.0541 59.7223 82.6194 60.2284C83.8797 60.5557 85.1913 60.6367 86.4823 60.467C87.3909 60.3452 88.2945 60.1218 89.2437 59.9036L89.9239 59.6447C90.4021 61.2431 90.6332 62.9053 90.6092 64.5736C90.6092 68.6345 89.594 71.9797 88.4772 75.533L88.2336 76.3249C88.0153 75.4924 86.6803 71.401 81.731 73.3756C77.9188 74.8985 76.9595 79.2386 76.8326 82.1726C76.7569 83.3049 76.8684 84.442 77.1625 85.5381C73.9747 90.3046 72.8529 88.3147 73.3503 83.5888C73.8478 78.8629 73.7666 75.4264 71.9442 75.1777C70.1219 74.9289 67.7615 77.1168 67.7615 77.1168C67.8122 76.6091 67.8478 76.2843 67.8782 75.9391C67.9171 75.6634 67.9307 75.3848 67.9188 75.1066C67.9043 74.9317 67.8245 74.7687 67.6955 74.6498C67.1676 74.307 66.4874 74.307 65.9595 74.6498C65.5351 74.8489 65.2489 75.2589 65.2082 75.7259C65.0559 76.863 64.9341 78 64.7767 79.132C64.6701 79.9391 64.4518 80.736 64.4163 81.5432C64.3116 83.6642 63.734 85.735 62.726 87.6041C62.4162 88.1029 62.0149 88.5387 61.5432 88.8883C61.3539 89.0952 61.0623 89.1745 60.7943 89.092C60.5263 89.0095 60.3297 88.7801 60.2894 88.5025C60.1401 87.9665 60.0415 87.4175 59.995 86.863C59.962 86.5152 59.962 86.165 59.995 85.8173C60.3046 82.9442 61.6955 77.9746 61.6955 77.9746C62.0102 77.467 61.8427 77.1168 61.2894 76.863C60.78 76.6122 60.206 76.5236 59.6447 76.6091C59.2479 76.6266 58.9228 76.9302 58.8782 77.3249C58.8021 77.6041 58.6904 77.8731 58.6295 78.0406C58.6295 78.0406 54.7006 75.2741 50.4518 80.4924C47.0051 84.7259 47.5838 88.5787 47.9138 89.8833L48.061 90.3503C48.3811 90.7206 48.6777 91.1105 48.9493 91.5178C48.9493 91.5178 53.5787 94.3706 57.4772 88.1371C57.4772 88.1371 57.7767 89.7462 59.1219 90.3249C59.4021 90.4942 59.7307 90.5656 60.0559 90.5279C63.0823 90.6674 65.798 88.6823 66.5838 85.7564C67.1307 83.6683 67.4506 81.5273 67.5381 79.3706C68.0524 78.3176 68.8416 77.4231 69.8224 76.7817C71.3452 75.8782 71.2488 77.8883 71.132 79.3706C71.132 79.665 71.0965 79.9848 71.0508 80.3452C70.6904 83.467 69.9341 87.4518 71.8681 88.7513C72.0694 88.9093 72.3036 89.0203 72.5534 89.0761C73.9798 89.3909 75.3909 89.4061 76.5534 88.269C77.0204 87.8122 77.5229 87.3909 78.0407 86.9188C78.1245 86.9624 78.2044 87.0134 78.2793 87.0711C78.9549 87.714 79.9115 87.9685 80.8173 87.7462C81.2938 87.6663 81.7625 87.5457 82.2183 87.3858C82.9714 87.0817 83.6952 86.7096 84.3808 86.2741C84.8972 85.8639 85.3778 85.4105 85.8173 84.9188L86.3757 84.4112C86.3148 85.934 86.7006 87.0609 87.5381 87.6751C88.0666 88.0298 88.694 88.2076 89.33 88.1827C90.1636 88.1561 90.9849 87.9736 91.7513 87.6447L91.6041 88.8325V88.9696L91.4062 90.5533C91.2133 92.132 91.0204 93.7107 90.8376 95.2893C90.7767 95.797 90.7615 96.3553 90.7006 96.8883C90.5584 98.1472 90.3909 99.401 90.2488 100.66C90.127 101.767 90.0051 102.883 89.9392 103.995C89.9036 104.599 90.0762 104.701 90.6752 104.67C90.95 104.637 91.2278 104.637 91.5026 104.67C92.3452 104.802 92.5737 104.609 92.8122 103.777C92.8779 103.531 92.9187 103.279 92.9341 103.025C92.9848 102.228 92.995 101.437 93.0661 100.645C93.1625 99.5838 93.2894 98.5229 93.4163 97.4619C93.5432 96.401 93.7209 95.3046 93.8224 94.2183C93.9442 92.8883 93.9899 91.5482 94.1067 90.2132C94.2133 89.0152 94.3757 87.8173 94.5229 86.5229C94.5229 86.5229 100.269 89.33 103.569 83.9594C104.187 82.9785 104.598 81.8816 104.777 80.736C105.29 80.3565 105.738 79.8952 106.102 79.3706C106.218 79.2512 106.347 79.1456 106.487 79.0558C106.523 79.1847 106.531 79.3194 106.513 79.4518C105.157 82.7107 105.498 85.0863 106.909 86.0812C107.031 86.1951 107.177 86.2817 107.335 86.335C107.854 86.56 108.423 86.6441 108.985 86.5787C109.201 86.5814 109.416 86.5661 109.63 86.533C113.391 86.0762 114.741 82.5229 114.741 82.5229C114.741 82.5229 115.564 85.0609 118.102 85.5685C120.64 86.0761 122.193 85.0305 123.239 83.4822C125.132 80.5228 124.934 75.5838 124.838 74.2437C124.838 74.0254 124.807 73.8985 124.807 73.8985C124.772 73.5279 124.731 73.1421 124.655 72.7513C125.822 73.1371 128.305 73.0406 130.584 72.5381L130.35 73.3553C129.792 75.9188 129.066 81.1421 131.914 82.7462C132.341 82.9283 132.782 83.0744 133.234 83.1827C134.345 83.4162 135.934 83.4873 137.142 82.5076C137.775 82.1161 138.299 81.5714 138.665 80.9239L138.117 80.3147C135.553 84.0203 133.041 81.7767 132.477 78.3807C132.156 76.1291 132.509 73.8327 133.492 71.7817C133.674 71.2912 133.631 70.7457 133.376 70.2893C133.227 69.9732 132.851 69.8354 132.533 69.9797C129.874 71.2169 126.9 71.6101 124.01 71.1066C123.777 70.9692 123.483 70.9945 123.277 71.1697C123.071 71.3448 122.998 71.6313 123.097 71.8833C123.388 72.7498 123.551 73.6546 123.579 74.5685V74.6904C123.675 78.0203 123.031 83.6193 119.959 84.1117C117.883 84.4518 117.259 83.7259 117.086 83.132C116.858 81.797 117.706 79.132 117.706 79.132C118.132 77.0152 118.624 74.9137 119.097 72.802C119.254 72.2499 119.034 71.6592 118.553 71.3452C117.934 71.0609 117.127 71.1421 116.812 71.6548L116.132 72.7411C116.132 72.7411 113.767 71.4264 110.893 73.4366C108.535 74.858 106.481 76.7335 104.853 78.9543V78.4924C104.963 76.813 104.319 75.1719 103.097 74.0152C102.252 73.1427 101.049 72.713 99.8427 72.8528C98.6087 73.0089 97.4838 73.6387 96.7056 74.6091L96.1016 75.3401L95.9645 75.2589C95.9645 75.2284 95.9645 75.198 95.9645 75.1726C96.0813 74.6904 96.198 74.2081 96.3097 73.7564C96.3097 73.7564 96.5128 73.0102 95.5432 73.2487C95.394 73.2605 95.2461 73.286 95.1016 73.3249C94.7556 73.407 94.4046 73.4664 94.0508 73.5025C93.7016 73.5064 93.412 73.774 93.3808 74.1218C93.2793 74.7564 93.2031 75.3959 93.132 76.0355L92.061 84.7614L91.8833 86.198C91.8001 86.2068 91.7192 86.2309 91.6447 86.269C91.0102 86.5939 89.1574 87.2843 88.2386 86.6142C87.4417 86.0305 87.5128 84.4772 87.731 83.2792C88.2007 80.7762 88.8418 78.3085 89.6498 75.8934C90.7869 72.2437 91.8579 68.7868 91.8427 64.5533C91.8503 62.7335 91.5833 60.9229 91.0508 59.1827C91.8291 58.6741 92.6474 58.2293 93.4975 57.8528C94.4332 57.3795 95.3979 56.9658 96.3859 56.6142L96.3148 57.2538C96.3177 57.3079 96.3177 57.3621 96.3148 57.4163L96.2539 57.8528V57.8985C96.0204 59.6244 95.7767 61.3452 95.5686 63.0711C95.462 63.9543 95.4214 64.8477 95.3909 65.7411C95.3208 66.1079 95.5404 66.468 95.8985 66.5736C96.1288 66.4588 96.3662 66.3588 96.6092 66.2741C96.8546 66.2154 97.104 66.1747 97.3554 66.1523C98.1937 66.0658 98.8533 65.3977 98.929 64.5584C99.0001 63.9036 99.0661 63.2487 99.1625 62.5939C99.2082 62.269 99.3199 61.9543 99.3757 61.6294C99.6549 59.868 99.9239 58.1066 100.208 56.3503C100.294 55.7919 100.426 55.6751 100.99 55.5736C101.553 55.4721 102.198 55.3858 102.792 55.2538C104.762 54.7503 106.768 54.3974 108.792 54.198C109.583 54.1791 110.375 54.2079 111.163 54.2843C110.655 58.3858 110.173 62.3147 110.173 62.3147C110.091 62.9848 110.269 63.1117 110.949 63.1168C111.523 63.1168 112.081 62.8274 112.68 63.0508C112.822 63.1015 113.152 62.9188 113.249 62.7564C113.44 62.4608 113.555 62.1225 113.584 61.7716C113.632 60.3326 113.785 58.8991 114.041 57.4822C114.188 56.665 114.193 55.8274 114.264 55V54.8223C114.308 54.8507 114.356 54.8729 114.406 54.8883C116.975 55.6802 118.467 57.5787 118.543 60.0965C118.619 62.9746 116.675 66.6244 112.822 68.0254C108.508 69.5939 105.574 68.8985 104.259 67.7259C103.497 67.0881 103.169 66.0691 103.416 65.1066C103.513 64.4909 103.887 63.9538 104.432 63.6498C105.447 63.1421 106.929 63.7513 106.97 63.7665C107.292 63.9019 107.664 63.7555 107.807 63.4366C107.875 63.2832 107.879 63.109 107.818 62.9527C107.757 62.7963 107.636 62.6709 107.482 62.6041C107.401 62.5685 105.452 61.731 103.883 62.5127C103.004 62.9811 102.389 63.8267 102.213 64.8071C101.858 66.226 102.336 67.7239 103.447 68.6751C104.589 69.6904 106.228 70.198 108.173 70.198C109.924 70.1553 111.655 69.8119 113.289 69.1827C117.183 67.7614 119.939 63.9137 119.843 60.0457C119.767 56.9492 117.929 54.6244 114.807 53.6599C114.685 53.6244 114.482 53.5635 114.3 53.5178C114.421 52.4213 114.528 51.3401 114.665 50.2589C114.802 49.1777 114.97 48.0508 115.137 46.8426L115.985 47.0203C116.19 47.0993 116.409 47.1389 116.63 47.1371C118.152 46.8071 119.777 46.6294 120.731 45.1421C120.756 45.1015 120.812 45.0761 120.848 45.0406C121.571 44.3328 122.18 43.5157 122.65 42.6193C123.3 41.4163 123.518 40.0812 123.848 38.7767C124.13 37.7676 124.188 36.7093 124.02 35.6751C123.873 35.1808 124.12 34.6547 124.594 34.4518C125.378 34.0258 126.085 33.4716 126.685 32.8122C126.876 32.6492 127.078 32.4999 127.289 32.3655C127.228 32.7767 127.193 33.0254 127.152 33.264C127.005 34.1218 126.812 34.9695 126.721 35.802C126.569 37.2386 126.467 38.6802 126.366 40.1218C126.274 41.2493 126.535 42.3774 127.112 43.3503C127.284 43.6626 127.551 43.913 127.873 44.066C128.693 44.4306 129.609 44.5179 130.482 44.3147C130.822 44.2589 131.163 44.2234 131.574 44.1726C131.528 45.2741 131.416 46.269 131.472 47.2487V47.3147C128.586 49.934 126.38 53.2162 125.046 56.8782C124.893 57.2386 124.751 57.6041 124.624 57.9696C124.417 58.6508 124.261 59.3464 124.157 60.0508V60.2183C123.941 61.3397 123.799 62.4741 123.731 63.6142C123.564 66.4315 124.239 68.2234 125.761 68.9492C126.249 69.1708 126.779 69.2817 127.315 69.2741C128.728 69.2071 130.092 68.7348 131.244 67.9137C131.569 67.7317 131.866 67.5044 132.127 67.2386C133.721 65.6701 134.335 63.6853 134.366 61.5178C134.366 59.7208 134.335 57.9188 134.315 56.1168C134.315 55.4822 134.315 54.8376 134.264 54.2081C134.046 52.3198 134.152 50.4163 133.985 48.5279C133.924 47.9746 133.888 47.4366 133.873 46.9239C135.913 45.2591 138.104 43.7874 140.416 42.5279C152.635 35.7462 158.98 23.8985 155.787 13.7056V13.7056ZM130.827 14.9848C133.934 16.2234 134.619 18.2031 134.223 19.6447C133.827 21.0863 132.36 22.2589 130.239 21.9239C128.533 21.6548 127.157 20.0406 126.731 17.8122C126.515 16.6186 126.572 15.3916 126.899 14.2234C128.246 14.2304 129.58 14.4958 130.827 15.0051V14.9848ZM136.203 33.0051C136.349 32.3421 136.705 31.7439 137.218 31.2995C137.244 31.5628 137.244 31.828 137.218 32.0914C136.604 35.1015 135.939 37.4619 134.564 38.9594C134.67 36.7716 135.467 34.8985 136.203 33.0254V33.0051ZM91.0508 37.9289C90.6956 39.7015 90.0195 41.3943 89.0559 42.9239C88.4214 43.9391 87.6295 44.8274 86.9036 45.7716C86.8592 45.8329 86.8062 45.8876 86.7463 45.934C86.1271 46.42 85.474 46.8611 84.7919 47.2538C84.2691 47.5141 83.6906 47.643 83.1067 47.6294C82.5776 47.5957 82.1248 47.2378 81.9696 46.731C81.5231 45.5297 81.4715 44.2173 81.8224 42.9848C82.127 42.0761 82.33 41.1269 82.6295 40.2234C82.9141 39.3573 83.3545 38.5505 83.929 37.8426C84.479 37.1865 85.0891 36.5832 85.7513 36.0406C86.5456 35.3959 87.4845 34.9535 88.4874 34.7513C89.2935 34.5425 90.1508 34.7024 90.8275 35.1878C91.0483 35.3357 91.277 35.4713 91.5128 35.5939C91.3706 36.4112 91.2133 37.1827 91.0508 37.9492V37.9289ZM82.8985 57.4975C82.703 57.1303 82.6661 56.6992 82.7965 56.3042C82.9269 55.9091 83.2132 55.5847 83.5889 55.4061C87.4112 54.0355 89.4721 58.3503 89.4721 58.3503C86.5635 60.0711 83.5229 59.0203 82.8985 57.5178V57.4975ZM57.599 84.9086C56.9595 87.4772 54.7564 90.1828 53.2437 90.4112C51.731 90.6396 50.0813 88.6701 52.4315 82.5432C54.7818 76.4162 58.3097 79.4975 58.3097 79.4975C58.665 79.802 58.2437 82.3503 57.599 84.9188V84.9086ZM85.5432 83.2487C83.5128 86.2031 80.6295 87.066 79.995 85.1168C79.3605 83.1675 79.1067 79.7462 82.0661 76.2335C85.0254 72.7208 86.6346 75.9797 86.6346 75.9797C87.3097 77.9036 87.5635 80.3147 85.5432 83.2487V83.2487ZM110.447 77.0558C113.426 72.5584 115.792 74.0812 115.792 74.0812C114.99 83.8528 111.269 85.1269 109.701 85.1269C108.132 85.1269 107.462 81.5685 110.447 77.0761V77.0558ZM95.4315 79.2183C95.6343 78.5197 95.9278 77.8507 96.3046 77.2284C98.1219 74.3096 99.3909 73.6345 100.579 74.1421C101.767 74.6498 102.437 77.3959 101.761 80.6142C101.609 81.33 101.487 81.9188 101.36 82.4264C100.31 86.0051 96.5381 86.0051 95.6752 85.7564C95.2085 85.6605 94.8647 85.2625 94.8376 84.7868C94.8376 84.7868 95.0559 82.0355 95.4315 79.2183V79.2183ZM101.208 45.2792C101.32 43.9391 101.416 42.599 101.569 41.264C101.772 39.4721 102 37.6802 102.269 35.8934C102.336 35.5202 102.512 35.1754 102.777 34.9036C103.326 34.3816 103.902 33.8885 104.503 33.4264C104.633 33.3465 104.775 33.2882 104.924 33.2538C106.112 32.863 106.518 33.1066 106.624 34.3655C106.794 36.1441 106.678 37.9385 106.279 39.6802C106.031 40.6954 105.797 41.7513 105.564 42.7919C105.313 43.704 104.842 44.5407 104.193 45.2284C103.87 45.512 103.468 45.6892 103.041 45.736C102.457 45.8207 101.869 45.8682 101.279 45.8782C101.244 45.6801 101.22 45.4801 101.208 45.2792V45.2792ZM112.142 45.7564C112.041 46.9899 111.701 49.9442 111.33 53.0305C110.822 53 110.376 52.9594 109.934 52.9746C108.891 52.9863 107.848 53.0541 106.812 53.1777C104.924 53.4569 103.051 53.8325 101.168 54.1624C100.949 54.2031 100.726 54.2183 100.498 54.2487C100.386 52.9137 100.69 51.6751 100.838 50.4213C100.914 49.797 100.949 49.1624 101 48.533C101.091 47.4315 101.091 47.0102 102.63 47.0102C104.555 47.0298 106.35 46.0399 107.36 44.401C107.513 44.1726 107.619 43.8934 107.777 43.6904C108.63 42.4721 108.883 41.0355 109.249 39.6294C109.366 39.1878 109.492 38.7462 109.574 38.2944C109.646 37.9715 109.674 37.6401 109.655 37.3097C109.588 36.8191 109.817 36.3352 110.239 36.0761C111.132 35.4416 112.005 34.7868 112.904 34.1574C113.042 34.0672 113.211 34.0396 113.371 34.0812C112.904 36.8528 112.396 42.7107 112.142 45.7564V45.7564ZM120.772 37.7056C120.462 39.1726 120.091 40.6345 119.64 42.0609C119.309 43.1128 118.768 44.0867 118.051 44.9239C117.506 45.711 116.477 45.997 115.604 45.6041C115.487 45.5635 115.371 45.5076 115.213 45.4366C115.113 44.3558 115.159 43.2664 115.35 42.198C115.533 40.3553 115.756 38.5127 115.97 36.6751C116.015 36.269 116.071 35.863 116.142 35.4619C116.206 35.0634 116.413 34.702 116.726 34.4467C117.407 33.8337 118.179 33.3302 119.015 32.9543C119.3 32.7931 119.644 32.7787 119.941 32.9155C120.238 33.0524 120.451 33.3238 120.513 33.6447C120.932 34.9557 121.034 36.3473 120.812 37.7056H120.772ZM132.107 62.1168C131.716 65.6701 130.452 67.0355 129.604 67.5482C127.574 68.5279 124.746 68.4822 125.173 62.0254C125.68 54.1472 131.594 49.0914 131.594 49.0914C132.247 53.4006 132.426 57.7685 132.127 62.1168H132.107Z" fill="white"/>
<path d="M195.33 104.934C195.33 104.792 195.294 104.665 195.279 104.528C195.264 104.391 195.244 104.254 195.223 104.117C194.325 97.8071 191.162 94.0761 184.03 87.2132C179.802 83.1522 178.03 80.5888 177.279 79.1472L176.741 77.6243C175.32 70.9695 178.69 65.2487 182.65 63.2538C183.122 62.9927 183.638 62.8207 184.173 62.7461C184.173 62.7461 186.64 62.8984 185.756 66.2994C185.756 66.335 185.731 66.3705 185.721 66.406C185.67 66.5888 185.614 66.7766 185.543 66.9746C184.887 68.7794 184.02 70.5003 182.959 72.1015C182.865 72.2405 182.83 72.4116 182.862 72.5766C182.895 72.7415 182.992 72.8867 183.132 72.9797C183.234 73.0527 183.357 73.0917 183.482 73.0913C183.688 73.0851 183.877 72.979 183.99 72.8071C184.431 72.1573 188.244 66.3502 187.036 63.1066C186.679 62.1574 185.875 61.4476 184.888 61.2132C184.797 61.1827 184.7 61.1675 184.609 61.1421C183.672 60.9089 182.696 60.8795 181.746 61.0558H181.721C176.797 61.7817 173.736 67.4416 172.97 71.5279C172.682 73.0086 172.59 74.5206 172.695 76.0253C172.34 77.1421 171.594 79.071 169.609 78.7157C168.635 78.5482 168.152 77.3604 167.909 76.0863C167.792 75.3929 167.72 74.6925 167.695 73.9898C167.695 73.939 167.695 73.8883 167.695 73.8375C167.695 73.4822 167.695 73.1269 167.695 72.7715C167.695 72.4162 167.726 72.0609 167.741 71.7055C167.797 70.4162 167.843 69.1218 167.898 67.8274C167.964 66.3756 168.036 64.9289 168.096 63.4771C168.096 63.3502 168.061 63.2233 168.066 63.0964C168.066 62.7208 168.091 62.3451 168.122 61.9695C168.178 61.3147 168.249 60.6599 168.305 60C168.34 59.6294 168.371 59.2588 168.401 58.8477L168.523 58.2436C171.314 58.8617 174.167 59.153 177.025 59.1116C183.371 59 188.193 56.9847 190.929 53.2944C193.305 50.1065 194.259 47.005 193.766 44.071C193.162 40.1015 189.98 37.5634 188.64 36.6446C186.235 35.2036 183.308 34.9257 180.675 35.8883C178.944 36.5736 176.701 38.2436 175.817 42.2791C175.02 45.934 176.787 47.8223 177.914 48.6243C179.838 49.9898 182.67 50.1472 184.513 49.0355C185.822 48.2566 186.499 46.7379 186.203 45.2436C185.995 44.3218 185.436 43.5171 184.645 43C183.895 42.6098 183.008 42.58 182.233 42.9187C182.02 42.9967 181.865 43.1825 181.826 43.406C181.787 43.6295 181.87 43.8569 182.044 44.0024C182.218 44.148 182.457 44.1896 182.67 44.1116C183.101 43.9098 183.599 43.9098 184.03 44.1116C184.492 44.4397 184.819 44.9225 184.954 45.472C185.165 46.4535 184.718 47.4588 183.848 47.9593C182.442 48.8274 180.157 48.6649 178.655 47.5939C177.152 46.5228 176.589 44.736 177.066 42.5533C177.675 39.7512 179.051 37.9086 181.127 37.071C183.37 36.2627 185.857 36.4934 187.914 37.7005C189.117 38.5177 191.975 40.7969 192.558 44.2994C192.995 46.873 192.117 49.6497 189.959 52.5533C184.213 60.2639 170.503 57.401 168.807 57.0101C168.996 56.1466 169.128 55.2716 169.203 54.3908C169.35 52.4171 169.645 50.4572 170.086 48.5279C170.168 48.2018 170.083 47.8564 169.86 47.6054C169.636 47.3544 169.303 47.2303 168.97 47.2741C168.487 47.3096 168.005 47.3756 167.528 47.4568C167.051 47.538 166.975 47.67 166.949 48.0355C166.797 48.7766 166.162 51.9695 165.604 55.7411C165.025 55.4873 164.376 55.1928 163.67 54.8527L162.939 54.4974C159.066 52.5786 149.985 48.0812 144.411 53.8426C141.056 57.3096 141.218 60.5939 142.492 62.5076C143.454 63.939 145.078 64.7841 146.802 64.7512C147.529 64.7481 148.25 64.6122 148.929 64.3502C152.756 62.8629 152.457 60.7614 152.274 60.1522C151.991 59.1264 150.987 58.473 149.934 58.6294C149.608 58.7175 149.408 59.0462 149.479 59.3767C149.551 59.7071 149.869 59.9232 150.203 59.868C150.611 59.8576 150.969 60.1356 151.061 60.5329C151.274 61.2436 150.706 62.3147 148.467 63.1827C146.558 63.9238 144.579 63.3756 143.548 61.8223C142.518 60.269 142.492 57.6649 145.325 54.7411C150.254 49.6649 158.751 53.8527 162.376 55.6497L163.122 56.0152C163.975 56.4213 164.746 56.7715 165.421 57.0609C165.122 59.2588 164.868 61.5786 164.761 63.6598C164.426 70.4111 164.457 75.335 164.457 75.335C164.294 76.3096 164.005 77.2588 163.817 78.2284C163.706 78.8097 163.359 79.3189 162.858 79.6345C162.518 79.9135 162.058 79.9952 161.643 79.85C161.228 79.7048 160.919 79.3537 160.827 78.9238C160.784 78.7772 160.764 78.6249 160.766 78.472C160.838 76.9492 160.827 75.4264 161.02 73.9035C161.126 73.0208 161.113 72.1278 160.98 71.2487C160.711 69.2487 159.99 68.0812 157.462 67.9086C156.285 67.8342 155.117 68.1637 154.152 68.8426C153.884 69.1028 153.502 69.2098 153.137 69.1269V68.2893C153.18 67.9775 153.034 67.6699 152.765 67.5059C152.497 67.3419 152.156 67.3525 151.898 67.533C151.35 67.8071 150.812 68.0913 150.264 68.3705C149.716 68.6497 149.65 68.9238 149.848 69.4923C149.979 69.7949 150.043 70.1222 150.036 70.4517C149.878 71.7309 150.01 73.0203 149.787 74.3096C149.553 75.6802 149.279 76.9695 148.452 78.137C147.885 78.9834 147.213 79.7544 146.452 80.4314C145.414 81.31 144.127 81.8424 142.772 81.9543C142.196 81.9916 141.651 81.6876 141.381 81.1776C141.276 81.0037 141.181 80.8241 141.096 80.6395C141.007 80.4862 140.966 80.3091 140.98 80.1319C143.096 78.2375 144.718 75.8557 145.706 73.1928C146.853 70.0558 146.096 68.8172 145.259 68.3299C145.047 68.2093 144.815 68.1284 144.574 68.0913C143.518 67.8274 141.462 67.7258 139.731 70.1522C137.734 72.825 137.017 76.2423 137.772 79.4923C137.822 79.6954 137.878 79.8934 137.929 80.0964C138.155 80.7515 138.425 81.3908 138.736 82.0101C139.244 82.8172 140.99 84.9035 144.228 83.6599C146.267 82.9461 147.995 81.5466 149.117 79.7005C149.462 79.8781 149.35 80.2081 149.335 80.4517C149.269 81.0834 149.166 81.7106 149.025 82.3299C148.924 82.8375 149.025 83 149.533 83.1116C149.78 83.1601 150.023 83.2297 150.259 83.3197C150.626 83.5098 151.062 83.5151 151.434 83.3342C151.805 83.1532 152.07 82.8073 152.147 82.401C152.194 82.1495 152.223 81.8951 152.233 81.6395C152.345 80.0152 152.447 78.3857 152.563 76.7563C152.645 75.6396 152.741 74.5228 152.832 73.406C152.893 72.7055 152.934 72 153.036 71.3045C153.097 71.0823 153.222 70.8829 153.396 70.7309C154.119 70.0089 155.016 69.4846 156 69.2081C156.558 69.0588 157.146 69.3049 157.431 69.8071C158.157 71.0134 158.429 72.4388 158.198 73.8274C157.911 75.5308 157.723 77.2494 157.635 78.9746C157.604 80.2994 158.447 82.1269 160.416 81.9797C161.847 81.8415 163.172 81.1646 164.122 80.0863C164.523 79.6751 165.33 78.4416 165.695 77.9492C165.695 77.9492 170.127 83.6852 173.051 78.137C173.102 78.3197 173.147 78.4923 173.198 78.6446C173.289 78.934 173.355 79.0964 173.355 79.0964C173.508 79.6075 173.704 80.1049 173.939 80.5837C174.753 82.3151 175.826 83.9121 177.122 85.3197C178.417 86.7274 180.939 89.5279 184.005 92.3197C185.707 93.8506 187.279 95.5195 188.706 97.3096C189.77 98.7519 190.651 100.321 191.33 101.98C193.614 107.69 192.706 114.711 186.213 119.538C183.168 122.112 178.244 124.751 170.756 124.878C170.305 124.878 169.853 124.878 169.406 124.934C160.614 125.056 156.36 120.873 155.452 119.858C153.58 117.67 152.374 114.993 151.975 112.142C150.898 105.599 151.975 100.396 155.102 96.6802C157.754 93.6294 161.549 91.8106 165.589 91.6548C167.964 91.6548 169.929 92.5228 170.985 94.0406C171.964 95.4517 172.096 97.3198 171.355 99.3096C170.66 101.173 168.31 102.315 166.431 102.594C164.802 102.832 163.421 102.487 162.822 101.695C162.137 100.787 162.523 99.406 162.975 98.406C163.091 98.1955 163.078 97.9373 162.942 97.7393C162.805 97.5413 162.568 97.4375 162.33 97.4712C162.092 97.5049 161.893 97.6703 161.817 97.8984C160.751 100.274 161.223 101.695 161.817 102.467C162.711 103.645 164.503 104.162 166.624 103.853C168.944 103.513 171.675 102.117 172.553 99.7563C173.431 97.3959 173.259 95.0812 172.046 93.3197C170.751 91.4619 168.406 90.3908 165.609 90.3908C161.198 90.5527 157.052 92.5359 154.157 95.868C150.751 99.8781 149.589 105.426 150.746 112.355C151.508 116.99 153.619 120.558 157.02 122.949C160.65 125.487 165.056 126.254 168.508 126.381L168.589 126.406C172.519 126.545 176.444 126.027 180.203 124.873C183.756 123.858 187.401 122.112 190.203 119.081C194.086 114.863 195.832 109.858 195.33 104.934V104.934ZM140.284 75.1675C140.482 73.3807 141.807 70.5989 143.168 69.5837C143.607 69.301 144.152 69.2373 144.645 69.4111C145.086 69.6649 145.294 70.6802 144.538 72.7411C143.696 74.9986 142.361 77.0398 140.629 78.7157C140.216 77.5811 140.098 76.3604 140.284 75.1675V75.1675Z" fill="white"/>
</svg>
