<svg width="103" height="64" viewBox="0 0 103 64" fill="none" xmlns="http://www.w3.org/2000/svg">
<path d="M60.94 48.18C58.3231 51.3806 55.0358 53.9681 51.31 55.76C47.5868 53.964 44.3003 51.3772 41.68 48.18C43.8484 43.3225 47.1508 39.0564 51.31 35.74C55.4759 39.0497 58.7798 43.3176 60.94 48.18Z" fill="#DC3030"/>
<path opacity="0.5" d="M60.94 48.18C58.3443 51.3619 55.0851 53.9386 51.39 55.73C51.48 53.55 52 40.73 51.31 35.73C55.4772 39.0425 58.7812 43.314 60.94 48.18V48.18Z" fill="#DC3030"/>
<path d="M101 31.08C100.2 34.15 97 35.72 92.79 37.7C87.38 33.11 56.44 34.33 71.29 21.81H71.77C81.24 21.03 93.83 21.68 100.77 29.73C100.824 30.1835 100.901 30.634 101 31.08Z" fill="#CA8F05"/>
<path d="M33.94 30.39C27.21 35.22 17.58 32.86 9.87 37.7C7.68 36.36 2.71 35.12 1.66 31.08C1.75 30.61 1.82 30.14 1.87 29.68C8.18 21.89 21.48 20.83 31.36 21.81C34 22.87 36.77 27.31 33.94 30.39Z" fill="#CA8F05"/>
<path d="M101.7 35.31C101.616 34.3916 101.472 33.4797 101.27 32.58C99.61 35.09 97.69 36.05 94.03 37.9C69.16 50.16 53.93 28.76 51.31 7.10001C50.37 12.89 48.75 20.1 45.65 25.84C37.65 41.15 22.5 45 8.88 38C6.63 36.84 3.26 35.49 1.36 32.55C0.148801 38.8305 1.10791 45.3362 4.08 51C17.08 60.22 35.55 62.39 51.31 63C67.23 62.33 84.75 60.59 98.55 51C101.055 46.1706 102.147 40.7322 101.7 35.31V35.31ZM46.7 53.91C44.5106 52.2963 42.5348 50.4112 40.82 48.3C43.0385 42.9575 46.6637 38.3162 51.31 34.87C55.9507 38.3219 59.5746 42.9615 61.8 48.3C58.9474 51.8186 55.3694 54.6803 51.31 56.69C49.7044 55.8886 48.166 54.959 46.71 53.91H46.7Z" fill="#FFB401"/>
<path opacity="0.4" d="M84.34 45.24C82.59 44.74 60.87 46.99 51.34 29.76C46.13 41 28.13 48.83 17.16 45.23C16.7377 45.1029 16.2815 45.158 15.9016 45.3821C15.5218 45.6062 15.2529 45.9789 15.16 46.41C14.48 49.41 15.74 54.55 17.16 55.98C18.91 57.73 41.39 61.72 51.16 61.72C60.93 61.72 82.62 57.72 84.87 56.23C87.12 54.74 86.09 45.74 84.34 45.24ZM61.34 48.9C58.5644 52.1427 55.1632 54.7922 51.34 56.69C47.2776 54.6761 43.6938 51.8153 40.83 48.3C43.0457 42.9587 46.6674 38.3175 51.31 34.87C55.9507 38.3219 59.5746 42.9615 61.8 48.3C61.64 48.51 61.47 48.7 61.31 48.9H61.34Z" fill="#FFD673"/>
<path d="M102.5 34.91C102.407 33.3523 102.142 31.8096 101.71 30.31C101.3 26.92 96.25 24.74 93.12 23.59C85.8855 20.657 77.9579 19.8757 70.29 21.34C69.8995 21.5782 69.5254 21.8421 69.17 22.13C58.17 36.13 85.17 33.5 91.98 38.05C64.15 49.12 52.64 21.67 51.31 0C49.87 24.51 36.53 48.61 10.65 38C17.85 33.59 44.51 35.62 33.47 22.08C33.1159 21.7904 32.7416 21.5264 32.35 21.29C24.6778 19.8504 16.7534 20.6452 9.52 23.58C6.88 24.73 1.52 26.4 0.919998 30.3C-0.779226 37.1874 -0.0735621 44.4487 2.92 50.88C16.12 61.25 34.58 63.07 51.31 63.67H52.44C68.22 62.95 86.44 61.33 99.73 50.91C102.017 45.9046 102.971 40.3929 102.5 34.91V34.91ZM85.37 34.91C78.17 33.81 59.02 31.49 71.26 21.83H71.74C81.18 21.04 93.86 21.73 100.74 29.75C100.786 30.2199 100.856 30.6872 100.95 31.15C100.15 34.22 96.95 35.79 92.74 37.77C90.4164 36.4991 87.9396 35.5312 85.37 34.89V34.91ZM1.66 31.08C1.75 30.61 1.82 30.14 1.87 29.68C8.18 21.86 21.74 20.83 31.36 21.81C46 34.59 15.94 32.82 9.87 37.7C7.68 36.36 2.71 35.12 1.66 31.08V31.08ZM101.51 41.79C101.063 45.0135 100.048 48.1319 98.51 51C85.23 60.28 67.51 62.33 51.27 63C35.4 62.29 17.85 60.52 4.08 51C1.09858 45.3501 0.138819 38.8505 1.36 32.58C25.86 54.39 48.91 33.15 51.36 7.1C54.73 36.58 78.71 52.89 101.36 32.58C101.916 35.6209 101.966 38.7326 101.51 41.79V41.79Z" fill="#B06305"/>
<path d="M57.72 41.23C55.8932 38.819 53.7352 36.6779 51.31 34.87C46.6751 38.3254 43.0552 42.9642 40.83 48.3C43.6788 51.8183 47.2535 54.6802 51.31 56.69C55.3664 54.6756 58.9435 51.8146 61.8 48.3C60.7783 45.7636 59.4049 43.3836 57.72 41.23V41.23ZM59.91 49.41C57.4528 52.0314 54.5385 54.1832 51.31 55.76C47.5868 53.964 44.3003 51.3772 41.68 48.18C43.8484 43.3225 47.1508 39.0564 51.31 35.74C55.4759 39.0497 58.7798 43.3176 60.94 48.18C60.61 48.6 60.27 49 59.91 49.41Z" fill="#B06305"/>
<path d="M50.88 38C50.88 38 45.51 43.62 43.51 47.74C55.16 50.56 50.28 43.31 50.88 38Z" fill="#DC3030"/>
<path d="M52.56 48.55C51.99 50.55 51.15 56.22 53.51 53.44C65.38 45.88 57.42 48.41 52.56 48.55Z" fill="#DC3030"/>
<path d="M50.84 39.31C50.54 39.51 50.56 47.31 50.84 47.24C51.12 47.17 51 39.19 50.84 39.31Z" fill="white"/>
<path d="M52.56 48.55C52.56 49.05 59.06 48.93 59.12 48.68C59.18 48.43 52.56 48.11 52.56 48.55Z" fill="white"/>
<path opacity="0.3" d="M12.43 55.75C9.48868 54.4621 6.69012 52.8701 4.08 51C1.09858 45.3501 0.13882 38.8505 1.36 32.58C3.1 35.17 5.12 36.16 8.88 38C8.04843 44.1471 9.29813 50.3956 12.43 55.75Z" fill="#CA8F05"/>
<path opacity="0.3" d="M101.51 41.79C101.063 45.0135 100.048 48.1319 98.51 51C96.49 52.4548 94.3527 53.7392 92.12 54.84C93.59 50 95 43.31 94 37.9C95.87 36.95 99.54 35.34 101.24 32.58C101.835 35.6143 101.927 38.726 101.51 41.79V41.79Z" fill="#CA8F05"/>
<path opacity="0.3" d="M13.93 35.88C12.5301 36.3768 11.1723 36.9855 9.87 37.7C7.68 36.36 2.71 35.12 1.66 31.08C1.75 30.61 1.82 30.14 1.87 29.68C3.81 26.46 7.65 25.08 11.72 23.54C10.471 27.7718 11.2899 32.3447 13.93 35.88Z" fill="#CA8F05"/>
<path opacity="0.3" d="M101 31.08C100.2 34.15 97 35.72 92.79 37.7C91.7051 37.0979 90.5789 36.5732 89.42 36.13C91.5142 32.3754 92.2855 28.0258 91.61 23.78C94.04 24.72 99.12 26.55 100.79 29.68C100.836 30.1499 100.906 30.6172 101 31.08V31.08Z" fill="#CA8F05"/>
<path d="M83.42 41.25C58.87 45.71 52.79 20.89 51.42 14.52C48.56 32.3 29.42 52.21 8.1 37.64C8.37 37.77 8.64 37.91 8.92 38.03C24 45.85 38.49 39.55 45.65 25.84C48.65 20.26 50.21 13.78 51.31 7.10001C53 23.44 64.1 44 83.42 41.25Z" fill="#FFD673"/>
</svg>
