<svg width="136" height="74" viewBox="0 0 136 74" fill="none" xmlns="http://www.w3.org/2000/svg">
<path fill-rule="evenodd" clip-rule="evenodd" d="M112.626 34.1394C109.197 33.1825 104.111 26.1612 103.304 13.0532C103.304 13.0532 90.9714 29.9589 85.2683 29.0034C79.1034 27.9696 70.262 -0.00017786 70.262 -0.00017786C59.0469 39.9252 51.5776 37.0034 38.3985 11.7292C35.3247 27.5643 26.4643 32.718 23.5114 33.0078C15.2647 33.8163 -0.000183105 14.8243 -0.000183105 14.8243C15.3923 49.7927 15.3083 63.0896 15.2865 63.9483L15.2736 73.5394C38.7076 70.5872 56.283 69.1111 68 69.1111C79.717 69.1111 97.0411 70.5872 119.972 73.5394L119.987 64.5483C123.114 37.5247 135.97 13.666 135.97 13.666C135.97 13.666 118.944 35.9029 112.626 34.1394V34.1394Z" fill="#FDC161"/>
<path fill-rule="evenodd" clip-rule="evenodd" d="M90.7795 26.693C89.9657 27.3143 89.1697 27.8468 88.4124 28.2432C89.2911 27.9303 90.0964 27.4268 90.7795 26.693Z" fill="#FDC161"/>
<path fill-rule="evenodd" clip-rule="evenodd" d="M65.9002 24.1465C67.8379 21.0016 70.7602 15.7972 70.8575 16.1754C73.1117 20.9496 77.8691 29.2025 81.1499 29.3003C75.3971 23.5479 70.4171 5.59676 70.4171 5.59676C67.4548 17.0816 62.7277 26.847 59.0668 29.3003C61.7646 29.1692 64.5562 26.3465 65.9002 24.1465Z" fill="#FBDB97"/>
<path fill-rule="evenodd" clip-rule="evenodd" d="M108.058 39.4343C112.111 44.7619 122.765 34.1352 122.717 34.4374C122.03 38.7739 120.89 43.1605 121.295 47.569C124.985 32.4676 131.221 20.893 131.221 20.893C119.848 33.441 110.85 46.5534 105.857 28.7792C105.839 31.9054 106.15 36.9268 108.058 39.4343" fill="#FBDB97"/>
<path fill-rule="evenodd" clip-rule="evenodd" d="M11.0855 32.818C21.0149 42.7966 26.5006 38.9784 30.962 30.806C30.4211 30.4584 25.0553 36.1335 23.0246 36.3064C16.7291 36.8424 5.09619 22.4402 5.09619 22.4402C10.3269 34.3233 14.8055 49.0433 14.8055 49.0433C15.5371 49.5722 10.874 32.5606 11.0855 32.818" fill="#FBDB97"/>
<path fill-rule="evenodd" clip-rule="evenodd" d="M98.2135 36.2882C98.2135 36.2882 87.362 49.6171 82.5331 48.9664C77.3131 48.2629 69.8273 29.226 69.8273 29.226C59.5997 58.7896 52.8633 52.5353 42.6211 36.1336C34.7317 60.2198 22.6851 51.0576 16.0602 42.1562C20.7781 53.0273 21.9432 63.3456 19.5556 73.1111C40.9383 70.4444 57.0864 69.1111 68 69.1111C78.9136 69.1111 95.284 70.5185 117.111 73.3333C118.513 52.4458 119.214 42.002 119.214 42.002C110.994 53.1438 101.619 60.4744 98.2135 36.2882V36.2882Z" fill="#F8A74B"/>
<path fill-rule="evenodd" clip-rule="evenodd" d="M77.3273 35.9803C76.8108 52.275 64.637 51.7314 63.9788 36.5865C64.0628 19.5012 77.0442 20.0292 77.3273 35.9803Z" fill="#9E3D96"/>
<path fill-rule="evenodd" clip-rule="evenodd" d="M68.3932 36.9156C71.8915 33.6712 71.4852 23.2645 67.2328 28.5801C65.1746 31.0419 63.8492 42.2876 68.3932 36.9156Z" fill="#BF67A9"/>
<path fill-rule="evenodd" clip-rule="evenodd" d="M71.3941 23.9139C74.8696 30.5712 76.3967 44.4624 66.4736 45.4552C77.7292 57.2557 81.2279 25.489 71.3941 23.9139" fill="#8C3293"/>
<path fill-rule="evenodd" clip-rule="evenodd" d="M73.2261 24.7754C76.615 31.9025 77.1013 46.571 67.8079 46.971C78.0741 53.3639 79.9395 28.6416 73.2261 24.7754Z" fill="#7C2E91"/>
</svg>
