<svg width="102" height="59" viewBox="0 0 102 59" fill="none" xmlns="http://www.w3.org/2000/svg">
<path d="M64.29 15.28C59.42 11.13 50.27 0 50.27 0C48.54 0.3 39.59 11.87 35.81 15.79L35.94 15.93L35.81 15.99L46.25 27.99L50.75 31.99L52 30.41C54.32 27.4 63.93 19.67 64.29 15.28V15.28Z" fill="#96BCBB"/>
<path d="M50 6.91998C48.11 6.82998 46.61 9.31998 45.62 10.61C44.42 12.1 40.84 14.99 41.24 16.79C41.43 18.28 43.83 20.57 44.92 21.57C45.9899 22.7009 47.1578 23.7349 48.41 24.66C49.7 25.55 50.3 25.95 51.69 25.05C53.3086 24.0139 54.7616 22.7395 56 21.27C61.63 17 51.81 10.21 50 6.91998Z" fill="#71A3A0"/>
<path d="M55.76 15C53.76 15.66 54.92 17.33 53.76 18.16C51.93 19.32 52.6 16.99 50.93 16.66C48.44 16.33 50.27 18.32 48.93 19.32C46.69 21.95 46.12 14.45 43.4 16.89C46.05 20.32 48.52 22 51 24.23C52.16 22.74 58.08 16.29 58.08 16.29L57.08 15.14C56.6613 14.9727 56.2045 14.9243 55.76 15V15Z" fill="#E2AFBA"/>
<path d="M46.28 17.79C47.28 19.12 47.11 21.11 48.94 19.28C50.27 18.28 48.44 16.28 50.94 16.62C52.61 16.95 51.94 19.28 53.77 18.12C54.93 17.29 53.77 15.62 55.77 14.96C56.2312 14.8893 56.7031 14.9517 57.13 15.14L50.3 7C47.81 9.66 44.95 13.15 42.62 15.81C42.89 16.19 43.15 16.53 43.41 16.87C44.58 16.27 44.72 15.71 46.28 17.79V17.79Z" fill="#F2D1D7"/>
<path d="M60.8 16C57.8 13 52.33 7.18997 49.34 3.99997H49.92C47.34 7.22997 42.34 13.29 39.63 16.62V15.95C43.03 19.48 47.2 23.74 50.77 27.52H50.22C53.4 23.94 57.31 19.63 60.8 16C58.01 18.89 53.45 26 50.21 28C47.51 24.77 40.72 19.59 38.87 15.94C42.34 12.38 45.87 6.36997 49.87 3.40997C53.27 7.22997 57.34 11.86 60.8 16V16Z" fill="#BAD2D2"/>
<path d="M34.17 23.8799C32.11 25.9299 30.46 28.2699 28.26 29.8799C26.77 31.1299 24.15 31.1399 22.04 31.4199C28.39 38.1399 30.17 29.1899 36.64 24.1899C36.81 24.3399 36.97 24.5199 37.13 24.6799C36.89 22.9999 36.23 21.8999 34.17 23.8799V23.8799Z" fill="#96BCBB"/>
<path d="M17.28 26.76C15.08 25.93 14.28 31.56 13.16 32.66C12.3907 33.1049 11.547 33.4065 10.67 33.55C9.75 35.69 8.92 37.36 8.38 37.73L13.7 35.07C15.53 32.91 15.7 29.75 17.53 27.59L18 28C17.89 27.47 17.61 26.84 17.28 26.76V26.76Z" fill="#96BCBB"/>
<path d="M39.75 27.83C41.05 29.57 42.28 31.43 43.41 33.03C45.24 32.03 48.21 32.58 49.87 31.25C49.115 29.8653 48.0958 28.6423 46.87 27.65C45 27.56 42.56 27.83 39.75 27.83Z" fill="#96BCBB"/>
<path d="M35.81 15.79C32.93 20 29.13 24.23 25.67 29.25C22.85 26.1 19.36 23.77 16.2 20.94C15.07 22.3 12.64 29 10.67 33.55C11.547 33.4065 12.3907 33.1049 13.16 32.66C14.26 31.56 15.08 25.93 17.28 26.76C17.61 26.84 17.89 27.47 18.03 27.98C19.27 28.98 20.68 30.29 22.03 31.46C24.14 31.18 26.76 31.17 28.25 29.92C30.45 28.27 32.1 25.92 34.16 23.92C36.22 21.92 36.88 23.08 37.16 24.76C38.0993 25.7392 38.9744 26.7781 39.78 27.87C41.53 27.97 44.23 27.61 46.89 27.69C42.8373 24.0737 39.1282 20.0901 35.81 15.79V15.79Z" fill="#BAD2D2"/>
<path d="M54.93 27.64H53.93C52.767 28.6535 51.7979 29.8699 51.07 31.23C52.74 32.56 55.71 32.01 57.54 33.01C58.75 31.29 60.07 29.27 61.48 27.42C59.38 27.09 56.79 27.54 54.93 27.64V27.64Z" fill="#96BCBB"/>
<path d="M84.74 20.94C81.58 23.77 78.09 26.1 75.27 29.25C71.81 24.25 67.82 20.02 64.68 15.79C61.4092 20.0219 57.8115 23.9907 53.92 27.66H54.92C56.78 27.56 59.37 27.11 61.46 27.46C62.3146 26.3179 63.2575 25.2446 64.28 24.25L64.65 24.62C64.7607 24.2954 64.8378 23.9603 64.88 23.62C67.81 23.52 72.68 30.71 76.69 33.2C78.77 31.75 81.35 29.13 83.37 27.61L83.48 27.76C83.94 27.29 84.48 27.38 85.34 28.56C86.7222 30.7995 87.7889 33.219 88.51 35.75L92.51 37.75C90.89 36.57 86.4 22.94 84.74 20.94V20.94Z" fill="#BAD2D2"/>
<path d="M83.52 27.74C85.24 29.9 85.44 32.96 87.23 35.07L88.55 35.73C87.8289 33.199 86.7622 30.7795 85.38 28.54C84.56 27.36 84 27.27 83.52 27.74V27.74Z" fill="#96BCBB"/>
<path d="M64.92 23.6C64.8778 23.9403 64.8008 24.2754 64.69 24.6C70.27 29.25 72.94 36.37 76.69 33.15C72.72 30.69 67.85 23.5 64.92 23.6V23.6Z" fill="#96BCBB"/>
<path d="M96 55C99.17 51.1 95.37 44.08 90.7 41.73C104.18 55.2 64.46 56.74 85.4 59C87.127 58.8015 88.8356 58.4671 90.51 58C93.21 56.87 95.63 55.64 96 55Z" fill="#96BCBB"/>
<path d="M4.89 55C5.31 55.62 7.73 56.85 10.43 58C12.1011 58.4666 13.8064 58.801 15.53 59C36.38 56.9 -3.72 54.34 10.2 41.75C5.52 44.1 1.73 51.12 4.89 55Z" fill="#96BCBB"/>
<path d="M90.74 41.75L90.99 41.88C91.2349 41.9858 91.4665 42.1201 91.68 42.28L92.14 42.64L92.6 43.15C92.7626 43.3576 92.9129 43.5747 93.05 43.8C93.1891 44.0591 93.3126 44.3262 93.42 44.6C93.6427 45.2437 93.7608 45.9189 93.77 46.6C93.7845 47.3437 93.6867 48.0854 93.48 48.8C93.2546 49.5652 92.9176 50.293 92.48 50.96C92.0008 51.6597 91.4015 52.2691 90.71 52.76L89.21 53.66L87.57 54.39L86.48 54.74C85.8014 54.9586 85.1101 55.1356 84.41 55.27C82.8698 55.4734 81.3612 55.8699 79.92 56.45C79.7036 56.5804 79.5164 56.754 79.37 56.96L79.25 57.22C79.25 57.22 79.25 57.12 79.32 56.94C79.4233 56.684 79.5924 56.4598 79.81 56.29C81.1603 55.4341 82.6598 54.8404 84.23 54.54C84.86 54.34 85.54 54.18 86.23 53.91L87.23 53.53C87.36 53.46 87.73 53.28 88.71 52.82L90.2 51.91C90.7735 51.4966 91.2766 50.9935 91.69 50.42C92.1028 49.8353 92.4388 49.2002 92.69 48.53C92.8857 47.8878 92.99 47.2213 93 46.55C93.0371 45.953 92.99 45.3538 92.86 44.77C92.7202 44.2797 92.5257 43.8067 92.28 43.36L91.92 42.83L91.54 42.43C91.3537 42.2445 91.1531 42.074 90.94 41.92L90.74 41.75Z" fill="#BAD2D2"/>
<path d="M21.51 57.83C21.5588 57.749 21.5958 57.6614 21.62 57.57C21.62 56.3 19.28 55.66 17.05 55.35C16.34 55.21 15.66 55.06 14.92 54.86C14.1546 54.645 13.4059 54.3743 12.68 54.05C11.7415 53.6274 10.8443 53.1186 10 52.53C9.84 52.4 9.69 52.29 9.53 52.14C9.20983 51.8341 8.91859 51.4994 8.66 51.14C8.16642 50.4948 7.78446 49.7714 7.53 49C7.28386 48.2759 7.16543 47.5146 7.18 46.75C7.17761 46.0712 7.28223 45.3962 7.49 44.75C7.59099 44.467 7.70784 44.1898 7.84 43.92C8 43.68 8.14 43.45 8.29 43.24L8.77 42.72C8.93 42.57 9.1 42.46 9.23 42.34C9.45041 42.1742 9.68853 42.0333 9.94 41.92L10.2 41.79L9.97 41.97C9.75113 42.1242 9.54694 42.2983 9.36 42.49C9.24 42.62 9.1 42.75 8.97 42.91L8.6 43.45C8.49 43.66 8.39 43.89 8.28 44.12C8.17 44.35 8.1 44.63 8.03 44.91C7.89235 45.5096 7.85184 46.1275 7.91 46.74C7.97019 47.4237 8.12153 48.0963 8.36 48.74C8.73005 49.761 9.3326 50.682 10.12 51.43C10.25 51.55 10.43 51.67 10.58 51.8C10.6476 51.8579 10.7214 51.9082 10.8 51.95C12.1511 52.8261 13.6143 53.5156 15.15 54L17.21 54.62C18.21 55.12 21.78 55.26 21.67 57.56C21.6268 57.6556 21.5731 57.7462 21.51 57.83V57.83Z" fill="#BAD2D2"/>
<path d="M54.49 29.75H46.49C-9.28 29.8 -5.8 54.41 10.43 58C7.73 56.86 5.31 55.63 4.89 55C1.73 51.1 5.52 44.08 10.2 41.73C15.2 39.39 21.43 37.46 46.45 36.41H54.92C79.31 37.41 85.92 39.41 90.74 41.71C95.41 44.1 99.21 51.12 96 55C95.59 55.62 93.17 56.85 90.47 58C112.59 50.41 100.58 29 54.49 29.75V29.75Z" fill="#BAD2D2"/>
<path d="M100.7 49.53C100.7 49.53 100.7 49.05 100.76 48.16C100.76 47.71 100.7 47.16 100.66 46.51C100.66 46.19 100.52 45.86 100.45 45.51C100.383 45.1233 100.275 44.7446 100.13 44.38C99.4532 42.4946 98.2948 40.8191 96.77 39.52C94.8125 37.8173 92.5765 36.4642 90.16 35.52C88.805 34.9305 87.4158 34.4229 86 34L83.75 33.35C78.713 32.2183 73.6043 31.4331 68.46 31C64.57 30.68 59.46 30.41 54.46 30.29C45.0582 30.1137 35.6555 30.5915 26.32 31.72C24.56 32.02 22.82 32.28 21.13 32.6C20.04 32.86 18.83 33.04 16.22 33.75C14.6848 34.1514 13.1753 34.6457 11.7 35.23C10.3254 35.7533 8.98889 36.3715 7.69998 37.08C4.04998 39.08 0.189984 43 0.249984 47.76C0.207768 48.5092 0.251384 49.2607 0.379984 50C0.418106 50.2968 0.488524 50.5885 0.589984 50.87C0.648593 51.1114 0.732385 51.346 0.839984 51.57C0.970427 51.8862 1.12767 52.1906 1.30998 52.48L1.48998 52.78L1.29998 52.49C1.10489 52.2084 0.934267 51.9107 0.789984 51.6C0.673556 51.3766 0.579757 51.1421 0.509984 50.9C0.397929 50.6095 0.317466 50.3077 0.269984 50C0.121215 49.2627 0.0475058 48.5122 0.0499839 47.76C-0.190016 43.74 2.99998 39 7.39998 36.55C8.70869 35.7898 10.0686 35.1216 11.47 34.55C12.9483 33.9449 14.4609 33.4273 16 33C17.09 32.64 18.23 32.4 20.94 31.75C22.64 31.39 24.4 31.13 26.18 30.82C35.5465 29.582 44.9942 29.0638 54.44 29.27C58.78 29.42 63.17 29.6 68.51 30.07C70.29 30.3 73.67 30.62 76.51 31.14C78.31 31.43 80.51 31.87 83.88 32.71L86.15 33.42C87.5899 33.8629 89.0023 34.3905 90.38 35C91.0346 35.2717 91.6724 35.5822 92.29 35.93C92.8998 36.2269 93.4909 36.5609 94.06 36.93C95.1358 37.5961 96.141 38.3701 97.06 39.24C98.5828 40.6117 99.7176 42.3604 100.35 44.31C100.491 44.6842 100.588 45.0734 100.64 45.47C100.7 45.84 100.79 46.18 100.81 46.47C100.81 47.13 100.88 47.68 100.81 48.13C100.74 49.05 100.7 49.53 100.7 49.53V49.53Z" fill="#D5E2E0"/>
</svg>
