<svg width="68" height="55" viewBox="0 0 68 55" fill="none" xmlns="http://www.w3.org/2000/svg">
<path d="M61.37 30C61.1235 25.9861 57.7399 22.89 53.72 23C54.9 28.8 51.72 34.79 47.72 40C52.8 39.9 61.48 37.16 61.37 30Z" fill="#DC3030"/>
<path d="M45.69 25.4C44.45 23.64 40.91 22.26 38.03 23.23C37.9034 28.99 37.0876 34.714 35.6 40.28C36.3505 40.2979 37.1008 40.2409 37.84 40.11C44 39.65 50.43 31.59 45.69 25.4V25.4Z" fill="#DC3030"/>
<path d="M15.93 35.38C14.37 32.1 11.83 27.56 13.1 23C9.71001 23 5.59001 25.47 5.45001 30C5.56001 36.38 12.54 39.87 19.09 40C17.8595 38.589 16.7989 37.0384 15.93 35.38Z" fill="#DC3030"/>
<path d="M30.7 38.12C29.5402 33.2379 28.9 28.2468 28.79 23.23C15.92 20.75 17.29 39.09 28.98 40.11C29.7196 40.2375 30.4696 40.2944 31.22 40.28C31.09 39.82 31 39.49 30.7 38.12V38.12Z" fill="#DC3030"/>
<path d="M30.85 4.65001C30.9662 4.87033 31.1182 5.06973 31.3 5.24001C32.08 5.71001 33.47 6.83001 35.52 5.24001C35.7092 5.06898 35.871 4.87001 36 4.65001C36.32 3.35001 36.69 1.35001 34.22 0.56001C33.7056 0.452124 33.1744 0.452124 32.66 0.56001C31.8477 0.822889 31.1858 1.41945 30.8403 2.20022C30.4948 2.98099 30.4983 3.872 30.85 4.65001V4.65001Z" fill="#FFB401"/>
<path d="M55.2 47.35C55.12 48.2366 54.8687 49.0992 54.46 49.89C45.75 54.83 22.64 55.63 12.36 49.89C11.4811 48.0377 11.4159 45.9025 12.18 44C25.9514 48.5657 40.8285 48.5657 54.6 44C55.0586 45.0546 55.2641 46.2018 55.2 47.35Z" fill="#FFB401"/>
<path d="M66.9305 24.82C60.74 14.64 47.78 8.68 36.11 5.25C35.95 5.4 35.77 5.55 35.59 5.69C34.9627 6.17284 34.201 6.4489 33.41 6.48C32.615 6.47043 31.8466 6.19198 31.23 5.69C31.05 5.55 30.87 5.4 30.71 5.25C11.86 11.72 -13 22.24 9.19 41C9.76 41.52 10.98 42.58 12.33 43.61C15.0536 44.5171 17.8327 45.2486 20.65 45.8C29.0653 47.3563 37.6947 47.3563 46.11 45.8C48.9278 45.2509 51.707 44.5193 54.43 43.61C59.61 39.2 67 32.89 66.9305 24.82ZM34.93 40.43C37.8963 29.8076 38.3177 18.6357 36.16 7.82L36.67 8.34C41.0036 13.209 44.2551 18.9418 46.21 25.16C47.4764 26.9237 48.0527 29.0902 47.83 31.25C47.07 36.83 41.76 40.89 35.61 40.8701C35.28 40.8701 35.47 40.8701 34.83 40.8701C34.87 40.72 34.91 40.58 34.94 40.43H34.93ZM30.27 8.21L30.66 7.82C28.501 18.635 28.9189 29.8065 31.88 40.43C31.88 40.58 31.95 40.72 31.98 40.87C31.85 40.87 31.82 40.87 31.2 40.87C26.59 41.01 20.57 37.87 19.2 32.56C18.5599 30.0133 19.0639 27.3141 20.58 25.17C22.5638 18.8904 25.8677 13.1077 30.27 8.21V8.21ZM5 31.41C4.88188 30.611 4.88188 29.799 5 29C2.38 20.71 21.1 11.31 26.69 8.69C14.51 18.89 7.35 24.88 20.29 40.6C19.5591 40.6118 18.8281 40.5851 18.1 40.52C13.27 40.22 6 37.27 5 31.41V31.41ZM61.85 29.57C62.37 36.08 54.96 40.12 48.72 40.51C48.19 40.51 48.72 40.51 46.53 40.59C58.36 25.82 54.2 20.25 40.1 8.68C46.59 11.51 65.29 22.06 61.78 29C61.81 29.2 61.83 29.38 61.85 29.57V29.57Z" fill="#FFB401"/>
<path d="M62.05 25.24C57.39 18 48.37 12.41 40.13 8.69C52.34 18.9 59.5 24.89 46.56 40.61C47.2909 40.6218 48.0219 40.5951 48.75 40.53C54.28 40.23 62.93 36.3 61.81 29.04C62.3005 27.833 62.3847 26.4991 62.05 25.24ZM61.34 31.06C60.29 36.99 54.04 39.78 47.73 40.06C50.79 35.97 55.17 29.32 53.73 23.06C57.12 23.01 61.24 25.49 61.38 30.06C61.3902 30.3939 61.3769 30.728 61.34 31.06V31.06ZM61.59 28.18C60.5651 24.6718 57.2363 22.35 53.59 22.6C51.9 18.26 47.3 14.19 43.22 10.6C49.58 14.78 62.74 21.09 61.59 28.18V28.18Z" fill="#B06305"/>
<path d="M47.59 28C47.3238 26.9788 46.8582 26.0204 46.22 25.18C44.203 18.7156 40.7658 12.7842 36.16 7.82001C38.319 18.635 37.9011 29.8065 34.94 40.43C34.94 40.58 34.87 40.72 34.84 40.87H35.62C41.81 41.22 49.57 35.23 47.59 28ZM36.78 9.22001C40.4625 13.6956 43.3509 18.769 45.32 24.22C43.3178 22.4595 40.5355 21.8856 38 22.71C38.0167 18.1851 37.6082 13.6685 36.78 9.22001V9.22001ZM45.56 35.6C43.6637 38.0417 40.8982 39.6572 37.84 40.11C37.1004 40.2375 36.3504 40.2944 35.6 40.28C37.0711 34.7277 37.8867 29.0221 38.03 23.28C44.86 20.74 50.06 29.68 45.56 35.6Z" fill="#B06305"/>
<path d="M67.07 24C60.29 14.43 48.07 8.2 36.45 4.94H36.3C36.4 4.75 36.3 4.87 36.52 4.48C36.8315 3.4628 36.6593 2.35889 36.0526 1.48497C35.4459 0.611058 34.4719 0.0637257 33.41 0C32.3722 0.0773373 31.4231 0.613741 30.8216 1.46289C30.22 2.31204 30.0287 3.38533 30.3 4.39C30.354 4.55185 30.4279 4.70637 30.52 4.85H30.37C6.73999 13.1 -13.78 24 11.83 43.76C11.1117 45.5635 11.041 47.5602 11.63 49.41C11.72 49.64 11.81 49.87 11.92 50.09C17.83 53.63 25.85 54.09 33.41 54.15C40.32 54 48.09 54 54.9 50.09C55.01 49.87 55.1 49.64 55.19 49.41C55.7683 47.5588 55.6978 45.5657 54.99 43.76C60.2 39.13 68.48 32.28 67.07 24V24ZM30.68 4.27C30.68 3.18 30.23 1.4 32.68 0.56C33.1944 0.452115 33.7256 0.452115 34.24 0.56C35.0433 0.833561 35.6931 1.43453 36.0286 2.21402C36.364 2.99351 36.3536 3.8786 36 4.65C35.8838 4.87032 35.7317 5.06972 35.55 5.24C34.77 5.71 33.38 6.83 31.33 5.24C31.1515 5.06681 30.9998 4.86796 30.88 4.65C30.8029 4.52909 30.736 4.40198 30.68 4.27V4.27ZM55.2 47.35C55.12 48.2366 54.8687 49.0992 54.46 49.89C45 54.98 22.94 55.55 12.36 49.89C11.4811 48.0377 11.4159 45.9025 12.18 44C25.9514 48.5657 40.8285 48.5657 54.6 44C55.0586 45.0546 55.2641 46.2018 55.2 47.35ZM65.2 31.57C62.4732 36.2403 58.8424 40.3199 54.52 43.57C51.7963 44.4771 49.0173 45.2086 46.2 45.76C37.7847 47.3163 29.1553 47.3163 20.74 45.76C17.9222 45.2109 15.143 44.4793 12.42 43.57C-15.27 22.78 11.42 12.05 30.79 5.22C30.95 5.37 31.13 5.52 31.31 5.66C31.9372 6.14284 32.699 6.4189 33.49 6.45C34.285 6.44043 35.0534 6.16198 35.67 5.66C35.85 5.52 36.03 5.37 36.19 5.22C46.85 7.91 73.92 20.72 65.16 31.57H65.2Z" fill="#B06305"/>
<path d="M31.83 40.27C28.9086 29.6935 28.5079 18.5794 30.66 7.82001C26.0455 12.77 22.6068 18.6971 20.6 25.16C15.6 32.3 22.8 41.23 31.2 40.87H31.98C31.98 40.72 31.91 40.58 31.88 40.43C31.85 40.28 31.85 40.32 31.83 40.27V40.27ZM22.1 22.55C24.0434 17.7324 26.7071 13.2378 30 9.22001C29.1584 13.6671 28.7398 18.184 28.75 22.71C26.2331 21.8195 23.4304 22.3886 21.46 24.19C21.68 23.63 21.89 23.09 22.1 22.55V22.55ZM30.4 40.27C29.9309 40.2412 29.4635 40.1878 29 40.11C18 39.27 15.2 21.11 28.81 23.23C28.9366 28.99 29.7525 34.714 31.24 40.28C31 40.29 30.67 40.28 30.4 40.27V40.27Z" fill="#B06305"/>
<path d="M19.8 40.09C8.47 25.31 13 20 26.72 8.67999C19.35 12.06 1.87001 21.84 5.00001 29C4.06001 36 11.6 40 18.06 40.49C18.59 40.49 18.06 40.49 20.25 40.57L19.8 40.09ZM5.08001 25.81C8.61001 19.06 16.73 14.81 23.61 10.62C20.05 13.95 15.52 17.23 13.24 22.62C9.60428 22.4078 6.29681 24.7148 5.24 28.2C5.01009 27.425 4.95544 26.6087 5.08001 25.81ZM18.83 40.07C13.83 39.83 5.31 37.07 5.45 30.07C5.69647 26.0561 9.0801 22.96 13.1 23.07C11.92 28.87 15.1 34.86 19.1 40.07H18.83Z" fill="#B06305"/>
<path opacity="0.6" d="M7.72001 25.62C8.47001 25.1 9.78001 26 10.98 27.77C24.76 48.2 -0.999992 34 7.72001 25.62V25.62Z" fill="#DC3030"/>
<path opacity="0.6" d="M59.08 25.62C58.32 25.1 57.01 26 55.81 27.77C42 48.2 67.78 34 59.08 25.62Z" fill="#DC3030"/>
<path opacity="0.6" d="M25.62 24.82C11.13 24.23 30.34 48.25 28.56 33.94C28.15 30.1 26.77 25.52 25.62 24.82Z" fill="#DC3030"/>
<path opacity="0.6" d="M41.05 24.82C55.54 24.23 36.33 48.25 38.11 33.94C38.52 30.1 39.9 25.52 41.05 24.82Z" fill="#DC3030"/>
<path d="M28.43 6.73999C18.21 11.55 -10.71 19.58 7.93999 38.59C-5.06001 20.8 10.88 16.37 28.43 6.73999V6.73999Z" fill="#FFD673"/>
<path d="M28.79 7.81C14.1 19.7 12.22 25.72 18.67 36.38C12.2 22.66 20.75 15.86 28.79 7.81V7.81Z" fill="#FFD673"/>
<path d="M38.73 6.73999C49 11.55 77.86 19.58 59.22 38.59C72.22 20.8 56.28 16.37 38.73 6.73999V6.73999Z" fill="#FFD673"/>
<path d="M38.37 7.81C53.06 19.7 54.94 25.72 48.49 36.38C55 22.66 46.41 15.86 38.37 7.81V7.81Z" fill="#FFD673"/>
<path d="M33.39 7.53001L33.24 40.45C34.44 40.74 35 6.58001 33.39 7.53001V7.53001Z" fill="#FFD673"/>
<path opacity="0.6" d="M30.27 8.21002C25.8597 13.114 22.5611 18.9129 20.6 25.21C19.0839 27.3541 18.5799 30.0533 19.22 32.6C14.17 22.18 28.42 9.44002 30.27 8.21002V8.21002Z" fill="#CA8F05"/>
<path opacity="0.6" d="M24.06 9.86002C16.6 14.18 2.49 21.64 5 29C4.88033 29.7922 4.88033 30.5978 5 31.39C-0.159995 20.94 14.89 14.13 24.06 9.86002Z" fill="#CA8F05"/>
<path opacity="0.6" d="M47.84 31.25C48.0589 29.0905 47.483 26.9253 46.22 25.16C44.2601 18.944 41.0091 13.2122 36.68 8.34C41.25 11 51.25 23.76 47.84 31.25Z" fill="#CA8F05"/>
<path opacity="0.6" d="M62.92 25.73C62.8712 27.6207 62.5062 29.4899 61.84 31.26C61.9179 30.5072 61.8978 29.7476 61.78 29C64.78 21.54 47.06 12.26 42.86 9.89999C52 14 60.78 18.92 62.92 25.73V25.73Z" fill="#CA8F05"/>
<path opacity="0.6" d="M32 40.87C32 40.72 31.93 40.58 31.9 40.43C28.93 29.8084 28.5052 18.6364 30.66 7.82001C30.21 12.51 32 40.87 32 40.87Z" fill="#CA8F05"/>
<path opacity="0.3" d="M37.51 23C37.4197 28.3194 36.7184 33.6107 35.42 38.77C36.54 32.2 36.87 14.08 36.34 8.95001C37.2019 13.582 37.5938 18.2892 37.51 23V23Z" fill="#CA8F05"/>
<path opacity="0.6" d="M54.64 44C55.1 45.7 55.73 47 54.46 49.86C53.5095 50.4424 52.5048 50.9314 51.46 51.32C55.46 41.71 43.61 49.8 32.37 48.32C20.8 48 12.2 42.16 14 50.79C13.4347 50.5253 12.8869 50.2247 12.36 49.89C11.4811 48.0377 11.4159 45.9025 12.18 44C25.9514 48.5657 40.8285 48.5657 54.6 44H54.64Z" fill="#CA8F05"/>
<path opacity="0.6" d="M12 43.37C11 42.61 10.07 41.82 9.17001 40.99C19.08 46.67 44.59 47.24 57.17 41.37C56.68 41.81 55.6 42.73 54.45 43.6C51.7264 44.5071 48.9473 45.2386 46.13 45.79C37.7147 47.3463 29.0853 47.3463 20.67 45.79C17.8522 45.2409 15.073 44.5093 12.35 43.6L12 43.37Z" fill="#CA8F05"/>
<path opacity="0.4" d="M18.5 48.18C11.37 55.32 49.69 54.69 46.88 50C45.79 47.4 39.88 50.68 34.03 50.59C28.34 51 20.25 47.66 18.5 48.18V48.18Z" fill="#FFD673"/>
<path opacity="0.4" d="M35 2.74C34.45 6.84 28.3 2.68 33.13 0.869995C34.1134 0.9805 34.8895 1.75662 35 2.74Z" fill="#FFD673"/>
<path d="M32.87 1.32999C32.44 1.03999 31.44 2.38999 31.87 2.85999C32.3 3.32999 33.07 1.45999 32.87 1.32999V1.32999Z" fill="#FFD673"/>
</svg>
