<svg width="119" height="95" viewBox="0 0 119 95" fill="none" xmlns="http://www.w3.org/2000/svg">
<path d="M71.15 46.89C73.38 49.32 86 30.05 86 30.05C86 30.05 97 57.64 101 61.05C105 64.46 119.06 55.78 118.86 56.38C118.66 56.98 109.52 75.66 109.52 75.66C109.52 75.66 78.25 73.87 59.41 90.91C59.41 90.91 39.41 74.68 9.32999 75.7C-8.84001 39 3.75999 67.09 18.3 60.64C22.73 55.64 32.81 30.15 32.87 30.05C32.93 29.95 45.44 49.32 47.68 46.89C49.92 44.46 59.41 2.26001 59.41 2.26001C59.41 2.26001 68.92 44.45 71.15 46.89V46.89Z" fill="#ECB43C"/>
<path d="M33.21 59.38C30.67 58.69 26.51 61.92 28.59 64.92C31.59 70.01 39.22 63.54 33.44 59.84L33.21 59.38Z" fill="#D6982B"/>
<path d="M54 55C41.68 53 56.06 71.53 60.47 71.63C66.6 71 76.34 49.51 63.7 53.14C61.85 54.07 60.24 61 60 61C59.2478 60.2851 58.5524 59.5128 57.92 58.69L54 55Z" fill="#D6982B"/>
<path d="M85.88 59.38C75.64 68.76 94.19 67.82 87.26 60.77L85.88 59.38Z" fill="#D6982B"/>
<path d="M71.15 46.89C75.1 47.32 83.47 32.51 86.05 29.13C89.34 37.13 93.05 46.02 97.22 54.4C97.75 55.4 98.22 56.4 98.81 57.33C99.3434 58.2895 99.9414 59.2117 100.6 60.09C100.903 60.4871 101.276 60.826 101.7 61.09C106.7 62.61 112.88 58.81 118.06 56.63L118.44 56.46C118.56 56.46 118.73 56.31 118.83 56.38C118.59 56.38 118.32 56.57 118.08 56.68C113.2 58.85 107.77 63.32 101.36 61.75C100.833 61.4634 100.37 61.072 100 60.6C99.2841 59.7104 98.642 58.764 98.08 57.77C97.49 56.77 96.98 55.77 96.44 54.77C92.61 47.39 88.93 38.63 85.57 30.17L86.33 30.24C82 35.17 78.37 44.69 71.15 46.89V46.89Z" fill="#FFE18D"/>
<path d="M47.68 46.89C48.1445 46.0495 48.5071 45.1565 48.76 44.23C52.58 30.94 56.23 13.7 59.41 0C62.84 14.68 65.86 29.41 70.07 44.23C70.3229 45.1565 70.6855 46.0495 71.15 46.89C70.6355 46.0746 70.2256 45.1977 69.93 44.28C65.66 31.69 62.08 15.65 58.93 2.37H59.93C56.56 16.37 53.65 30.1 48.93 44.28C48.6165 45.1957 48.1969 46.0717 47.68 46.89V46.89Z" fill="#FFE18D"/>
<path d="M0 56.42C0.1 56.35 0.26 56.42 0.38 56.5L0.77 56.67C5.62 58.29 11.82 63.41 17.69 60.67L18.24 60.04C18.8851 59.1795 19.4731 58.2776 20 57.34C20.57 56.34 21.07 55.34 21.59 54.4C25.46 46.63 29.23 37.78 32.77 29.13C37.37 34.64 40.34 43.87 47.67 46.89C43.21 47.15 35.93 34.65 32.5 30.28L33.25 30.21C30 38.34 26.72 46.43 22.39 54.81C21.78 55.94 21.03 57.38 19.86 59.22C19.51 59.69 19.19 60.22 18.86 60.62L18.28 61.23C18.0623 61.4695 17.7965 61.6603 17.5 61.79C12.3 63.42 5.9 59.31 0.74 56.72C0.5 56.61 0.23 56.4 0 56.42H0Z" fill="#FFE18D"/>
<path d="M59.41 94.36C59.41 94.36 81.09 73.59 110.72 79.69L113.35 74.48C77.64 69.41 59.41 87.67 59.41 87.67C56.73 85.19 39.06 69.85 5.48001 74.48L8.11001 79.69C37.73 73.59 59.41 94.36 59.41 94.36Z" fill="#F3D15C"/>
<path d="M8.10999 79.69L13.11 78.69C14.44 78.49 16.21 78.4 18.68 78.22C20.9739 78.1996 23.2672 78.303 25.55 78.53C27.2301 78.6949 28.8995 78.9553 30.55 79.31L33.08 79.84C35.5944 80.5007 38.0657 81.3156 40.48 82.28C41.48 82.66 42.63 83.19 45.08 84.28C46.52 85.05 47.93 85.75 49.19 86.55L51 87.76L52.68 88.89C53.77 89.6 54.68 90.36 55.54 90.99C56.4 91.62 57.08 92.23 57.64 92.74C58.2 93.25 58.59 93.57 59.38 94.36C59.38 94.36 58.73 93.79 57.52 92.89C56.93 92.42 56.17 91.89 55.32 91.29C54.2 90.55 52.76 89.58 50.66 88.29L48.78 87.23C47.5 86.49 46.07 85.87 44.65 85.11C43.65 84.68 42.65 84.11 40.09 83.17L37.7 82.29C36.91 81.98 36.07 81.79 35.25 81.53C34.43 81.27 33.61 81.02 32.79 80.8L30.31 80.24C28.7014 79.8657 27.0718 79.5885 25.43 79.41C23.43 79.1 21.48 79.04 18.67 78.88C17.38 78.88 15.31 78.97 13.15 79.08L8.10999 79.69Z" fill="#D6982B"/>
<path d="M113.35 74.48C109.61 74.11 105.04 73.79 100.87 73.81L95.53 74.08C93.63 74.28 91.32 74.49 88.47 75.01L85 75.7L81.56 76.61C78.7143 77.437 75.9223 78.4389 73.2 79.61L70 81.1L68.42 82C67.36 82.55 66.42 83.19 65.36 83.81C64.3 84.43 63.36 85.11 62.46 85.81C61.3925 86.608 60.374 87.4695 59.41 88.39C58.4647 87.4684 57.4627 86.6067 56.41 85.81C55.74 85.3 54.98 84.74 53.5 83.81C52.5 83.16 51.5 82.57 50.45 82C49.4 81.43 48.35 80.92 47.3 80.38C46.25 79.84 45.13 79.38 44.05 78.95C42.97 78.52 41.83 78.12 40.72 77.71C39.61 77.3 38.45 77.02 37.32 76.71C36.19 76.4 35 76 33.84 75.73L32.11 75.31L30.36 75C26.8518 74.373 23.3022 74.0053 19.74 73.9C18.55 73.9 17.36 73.76 16.17 73.82L12.6 73.91C11.43 73.91 7.10001 74.36 5.48001 74.48L9.00001 74C10.18 73.87 11.36 73.66 12.56 73.63L16.14 73.43C17.33 73.32 18.52 73.43 19.72 73.43C23.3112 73.4614 26.8949 73.7656 30.44 74.34L32.22 74.61L34 75C36.3657 75.4828 38.7027 76.0971 41 76.84C42.13 77.25 43.27 77.64 44.39 78.07C45.51 78.5 46.61 78.99 47.7 79.5C48.79 80.01 49.87 80.5 50.91 81.13C51.95 81.76 53 82.3 54 83C54.73 83.45 55.53 84 57 85C57.9783 85.7174 58.9133 86.4921 59.8 87.32H59.1C59.9739 86.4894 60.899 85.7146 61.87 85C62.87 84.26 63.87 83.61 64.87 83C65.87 82.39 66.9 81.68 68 81.14L69.59 80.29L72.85 78.76C75.6154 77.5769 78.4547 76.5748 81.35 75.76L84.81 75L88.35 74.37C90.25 74.02 92.58 73.83 95.49 73.57C96.72 73.57 99.49 73.45 100.87 73.43C103.856 73.4924 106.837 73.7094 109.8 74.08L113.35 74.48Z" fill="#FFE18D"/>
<path d="M59.41 94.36C59.86 93.92 60.04 93.72 61.15 92.74C61.71 92.23 62.44 91.66 63.25 90.99C64.06 90.32 65.02 89.6 66.12 88.89L67.8 87.76L69.65 86.62C70.91 85.82 72.33 85.12 73.76 84.35C74.76 83.9 75.76 83.35 78.36 82.35L80.78 81.43C81.58 81.1 82.43 80.9 83.26 80.63C84.09 80.36 84.93 80.12 85.77 79.91L88.3 79.38C89.9505 79.0253 91.6199 78.7649 93.3 78.6C95.5781 78.3543 97.869 78.2474 100.16 78.28C101.46 78.39 103.57 78.5 105.73 78.76L110.73 79.76C110.15 79.7 107.73 79.43 105.67 79.17C104.67 79.07 103.43 79.1 102.15 79.04L100.15 78.97C98.59 79.06 95.94 79.15 93.39 79.5C91.7482 79.6785 90.1185 79.9557 88.51 80.33L86 80.82C85.17 81.04 84.36 81.31 83.54 81.55C82.72 81.79 81.88 81.99 81.08 82.31L78.69 83.19C77.69 83.55 76.57 84.06 74.13 85.13C72.71 85.89 71.28 86.51 70.01 87.25L68.13 88.31C67.03 88.98 65.25 90.07 63.46 91.31C62.61 91.92 61.86 92.44 61.26 92.91C60.07 93.79 59.41 94.36 59.41 94.36V94.36Z" fill="#D6982B"/>
<path d="M64.45 58.9306C62.62 59.1487 63.23 60.6969 62.21 61.3621C60.88 64.0007 58.21 61.5038 56.53 59.3667C54.33 65.1128 52.97 56.4337 50.32 56.7063C51.65 62.3434 56.07 65.429 59.98 68.7C62.7557 66.518 65.26 63.9525 67.43 61.0677C66.65 59.7593 66 58.7125 64.45 58.9306Z" fill="#912A2D"/>
<path d="M60 57.64C59 52.64 47.77 49.28 50.34 57.7C52.99 57.45 54.34 65.41 56.55 60.14C57.72 61.3 60.73 64.86 62.23 61.97C63.23 59.97 65.66 58.47 67.45 61.68C74.33 52.15 62.77 48 60 57.64Z" fill="#B22832"/>
<path d="M65.26 54.46C63.26 58.32 69.11 56.46 66.26 54.46H65.26Z" fill="#CE2C3F"/>
<path d="M113.35 67.55C109.61 67.18 105.04 66.86 100.87 66.88L95.53 67.15C93.63 67.35 91.32 67.56 88.47 68.08L85 68.77L81.56 69.68C78.7143 70.507 75.9223 71.5089 73.2 72.68L70 74.17L68.42 75C67.36 75.55 66.42 76.19 65.36 76.81C64.3 77.43 63.36 78.11 62.46 78.81C61.3945 79.607 60.3761 80.4651 59.41 81.38C58.4614 80.4651 57.4597 79.6069 56.41 78.81C55.74 78.3 54.98 77.74 53.5 76.81C52.5 76.16 51.5 75.57 50.45 75C49.4 74.43 48.35 73.92 47.3 73.38C46.25 72.84 45.09 72.45 44 72C42.91 71.55 41.78 71.17 40.67 70.76C39.56 70.35 38.4 70.07 37.27 69.76C36.14 69.45 34.98 69.17 33.83 68.88L32.1 68.46C28.0249 67.6483 23.8921 67.1602 19.74 67C18.55 67 17.36 66.86 16.17 66.92L12.6 67C11.43 67 7.10001 67.45 5.48001 67.57L9.00001 67.09C10.18 66.96 11.36 66.75 12.56 66.72L16.14 66.52C17.33 66.41 18.52 66.52 19.72 66.52C23.9116 66.5776 28.0917 66.9722 32.22 67.7L33.98 68.09C36.3521 68.5655 38.6957 69.1732 41 69.91C42.13 70.32 43.27 70.71 44.39 71.14C45.51 71.57 46.61 72.06 47.69 72.57C48.77 73.08 49.87 73.57 50.91 74.2C51.95 74.83 53 75.37 54 76C54.73 76.45 55.53 77 57 78C57.9835 78.7148 58.9219 79.4896 59.81 80.32H59.11C59.9994 79.4942 60.9377 78.7228 61.92 78.01C62.92 77.27 63.92 76.62 64.92 76.01C65.92 75.4 66.9 74.75 68 74.21L69.59 73.35L72.85 71.83C75.6171 70.6513 78.4561 69.6493 81.35 68.83L84.81 68L88.35 67.37C90.25 67.02 92.58 66.83 95.49 66.57C96.72 66.57 99.49 66.45 100.87 66.43C103.856 66.4974 106.836 66.7143 109.8 67.08L113.35 67.55Z" fill="#D6982B"/>
<path d="M35.14 63.69C35.6902 62.6789 35.6592 61.4511 35.0587 60.4691C34.4582 59.4871 33.3794 58.9001 32.2287 58.9291C31.078 58.9582 30.0302 59.5989 29.48 60.61C30.635 62.3626 32.2652 63.7501 34.18 64.61C34.5548 64.3661 34.8804 64.0541 35.14 63.69Z" fill="#B22832"/>
<path d="M29.48 60.61C28.5666 61.7462 28.7029 63.3987 29.79 64.37C30.998 65.5067 32.8463 65.6162 34.18 64.63C32.2626 63.7647 30.6321 62.37 29.48 60.61V60.61Z" fill="#912A2D"/>
<path d="M89.31 60.46C87.31 56.26 80.12 61.46 84.98 64.67C86.9313 63.907 88.4924 62.3891 89.31 60.46Z" fill="#B22832"/>
<path d="M85 64.67C87.16 66.13 91.42 63.96 89.33 60.46C88.5124 62.3892 86.9513 63.907 85 64.67Z" fill="#912A2D"/>
</svg>
