<svg width="89" height="89" viewBox="0 0 89 89" fill="none" xmlns="http://www.w3.org/2000/svg">
<g clip-path="url(#clip0_1_2640)">
<path d="M43.06 14.18V4.54L40.32 4.5V3.4H43.06V0H44.63V3.4L47.37 3.44V4.62L44.63 4.58V14.18H43.06Z" fill="#96BCBB"/>
<path d="M43.84 9.10001C41.5436 9.16284 39.454 10.4423 38.354 12.459C37.254 14.4757 37.3096 16.9253 38.5 18.89C41.88 17.4 45.42 21.02 49.5 18.45C51.65 14.89 48.65 9.00001 43.84 9.10001Z" fill="#EBB33A"/>
<path d="M44.23 19.59C42.53 19.25 40.7 17.39 38.45 18.89C40.56 22.64 47.27 22.89 49.45 18.45C47.71 18.55 46.14 20 44.23 19.59Z" fill="#CE8A29"/>
<path opacity="0.4" d="M43.94 10.21C43.36 10.12 43.07 10.89 43.46 11.66C43.85 12.43 46.55 13.31 47.46 12.82C49.78 11.37 45.82 10.12 44.76 9.91998L43.94 10.21Z" fill="#FFE18D"/>
<path d="M38.24 13.89C39.24 14.08 39.89 16.11 39.11 16.79C37.66 18.24 37.66 15.05 37.86 14.28L38.24 13.89Z" fill="#D6982B"/>
<path d="M40.85 14.37C39.56 14.71 40.41 18.68 42.3 16.69C42.69 15.69 41.82 15.34 41.24 14.69L40.85 14.37Z" fill="#D6982B"/>
<path d="M44.91 14.47C43.85 14.37 43.46 15.34 43.85 16.21C45.01 18.43 46.85 15.44 44.72 14.66L44.91 14.47Z" fill="#D6982B"/>
<path d="M49.26 14.37C45.76 14.89 50.56 19.28 49.45 14.76L49.26 14.37Z" fill="#D6982B"/>
<path d="M74.22 30C71.0308 28.8892 67.6486 28.44 64.28 28.68C73.51 33.68 74.58 46.45 70.69 55.73C69.69 58.39 68.85 61.88 67.46 64.64C67.8449 64.7359 68.2358 64.8061 68.63 64.85C71.0408 64.9439 73.4542 64.7526 75.82 64.28C82.39 54 84.2 40.76 74.22 30Z" fill="#B22832"/>
<path d="M80.74 33.37C78.7382 31.9419 76.5427 30.8071 74.22 30C84.29 40.56 82.22 54.38 75.82 64.28C73.4542 64.7526 71.0408 64.9439 68.63 64.85C68.2486 64.7944 67.8711 64.7143 67.5 64.61C68.89 61.85 69.72 58.36 70.73 55.7C74.5 47.03 73.73 33.77 64.32 28.65C61.8213 28.8024 59.3501 29.2557 56.96 30C61.44 32.94 62.79 38 63.47 43.28C64.14 49.55 64.38 56.13 62.21 62.14C59.21 60.38 56.37 58.48 53.15 58.9C54.5303 55.1592 55.2837 51.2162 55.38 47.23C55.73 41.23 56.07 36.75 54.38 30.91C50.5579 32.4391 46.9668 34.492 43.71 37.01C40.5334 34.526 37.0221 32.5027 33.28 31C31.34 40.65 33.34 51.85 35.97 61.94L35.6 61.74C33.22 60.66 29.94 60.34 27.68 61.66C23.23 52.52 21.86 36.92 28.88 29.55C26.185 28.8246 23.4002 28.4879 20.61 28.55C17.01 32 15.86 38.38 15.99 43C16.12 47.62 17.5 51.75 18.91 55.88C19.41 57.61 20.18 61.88 21.14 64.6C20.62 64.43 20.06 64.2 19.43 63.96C17.02 62.96 14.96 64.48 12.55 63.62C9.5 62.41 8.23 55.36 7.5 52.44C6.33 45.61 7.83 36.44 12.23 30.28C10.2377 31.0835 8.34776 32.1208 6.6 33.37C6.6 33.37 -6.25 52 15.31 72.05C21.44 77.15 21.77 69.05 24.31 68.27C24.31 68.27 36.31 81.78 43.5 67.69C43.5 66.04 43.57 61.69 43.6 59.86C43.6 61.63 43.74 65.86 43.79 67.69C51.02 81.78 62.97 68.27 62.97 68.27C65.66 70.14 66.75 76.72 71.97 72.05C91.71 53.92 85.82 38.55 80.74 33.37V33.37ZM27.03 62.11L26.87 62.25L27.03 62.11ZM21.17 64.61C21.43 64.7 21.67 64.76 21.91 64.82L21.17 64.61ZM22.19 64.88H22.48H22.19ZM23.79 64.88H23.6H23.79ZM24.25 64.75L24.44 64.67L24.25 64.75ZM26.45 62.75L26.28 62.96L26.45 62.75ZM25.94 63.47L25.81 63.7L25.94 63.47ZM63.5 62.93C64.3196 63.4002 65.1718 63.8112 66.05 64.16C65.1718 63.8112 64.3196 63.4002 63.5 62.93ZM66.15 64.2C66.5711 64.3605 67.002 64.4942 67.44 64.6C67.0032 64.4895 66.5726 64.356 66.15 64.2Z" fill="#912A2D"/>
<path d="M33.28 31C31.8474 30.4252 30.3814 29.9377 28.89 29.54C21.89 36.91 23.24 52.54 27.69 61.65C29.94 60.34 33.22 60.65 35.6 61.74L35.97 61.94C33.5 52.44 31.28 41.16 33.28 31V31Z" fill="#B22832"/>
<path d="M63.5 43.32C62.82 38.07 61.5 32.98 56.99 30.04C56.09 30.32 55.22 30.62 54.39 30.95C56.1 36.79 55.76 41.26 55.39 47.27C55.2937 51.2562 54.5403 55.1991 53.16 58.94C56.38 58.52 59.27 60.42 62.22 62.18C64.38 56.17 64.14 49.59 63.5 43.32V43.32Z" fill="#B22832"/>
<path d="M15.99 43C15.86 38.41 16.99 32.05 20.62 28.59C17.7582 28.6765 14.933 29.2584 12.27 30.31C8.28001 36 6.23001 44.79 7.50001 52.44C8.19001 55.36 9.41001 62.44 12.5 63.62C14.91 64.48 16.97 62.93 19.38 63.96C20.01 64.2 20.57 64.43 21.09 64.6C20.09 61.93 19.36 57.6 18.86 55.88C17.5 51.75 15.99 47.45 15.99 43V43Z" fill="#B22832"/>
<path d="M35.43 29.51L31.38 28C27.9857 26.39 24.2545 25.6184 20.5 25.75C20.15 25.75 19.82 25.75 19.5 25.75C14.09 27.75 11.94 33.93 11.56 39.25C11.15 48.02 13.56 57.4 17.27 65.36C18.3736 67.8901 19.7128 70.3108 21.27 72.59C23.1791 71.4978 24.857 70.044 26.21 68.31C22.33 59.31 20.49 53.53 21.11 43.94C21.31 38.23 21.92 30.94 28.45 29.05C29.44 28.6 33.12 29 35.43 29.51V29.51Z" fill="#ECB43C"/>
<path d="M0.760009 51.24C2.31001 60.93 13.24 72.08 17.76 73.24C16.6262 72.3424 15.5814 71.3378 14.64 70.24C2.78001 57.68 -1.02999 30.74 19.5 25.71C3.92001 24.87 -0.719991 42 0.760009 51.24V51.24Z" fill="#ECB43C"/>
<path d="M10.94 86C11.7 90.74 22.54 87.76 35.81 88.55C84.3 87.48 76.31 94.61 76.9 71.31C77.31 66.85 74.09 68.44 73.4 68.31H13.98C13.616 68.3082 13.2546 68.2474 12.91 68.13C9.03002 65.25 11.66 85.52 10.94 86V86Z" fill="#ECB43C"/>
<path d="M52.44 29.65L56.06 28C59.4422 26.3963 63.1589 25.6249 66.9 25.75H69.16C74.57 27.75 75.5 33.93 75.88 39.25C76.28 48.02 73.88 57.4 70.17 65.36C69.0699 67.8918 67.7304 70.3128 66.17 72.59C64.2656 71.4952 62.5914 70.0418 61.24 68.31C65.12 59.31 66.95 53.53 66.34 43.94C66.14 38.23 65.52 30.94 59 29.05C58.11 28.67 55.51 28.92 53.46 29.31L52.44 29.65Z" fill="#ECB43C"/>
<path d="M87.92 51.24C86.37 60.93 75.44 72.08 70.92 73.24C72.0538 72.3424 73.0986 71.3378 74.04 70.24C85.42 58 90.92 28.53 69.16 25.71C88.13 24.72 89.39 42 87.92 51.24V51.24Z" fill="#ECB43C"/>
<path d="M45.94 68C52.53 54 59.1 26.85 45.28 20.63H42.16C27.91 26.48 35.27 59.78 41.25 67.7C41.25 67.72 43.97 73 45.94 68V68Z" fill="#ECB43C"/>
<path d="M73.87 68.27C74.6118 68.4567 75.3882 68.4567 76.13 68.27C79.98 66.27 81.13 61.04 83.56 56.18C84.12 54.72 84.7 53.18 85.13 51.64C85.39 50.86 85.54 50.05 85.74 49.26C85.94 48.47 86.07 47.64 86.14 46.82C86.3498 45.2068 86.3498 43.5732 86.14 41.96C85.52 38.05 84.99 33.34 81.25 30.05C80.818 29.6774 80.3674 29.327 79.9 29C79.0705 28.4198 78.2054 27.8921 77.31 27.42C77.05 27.3 75.82 26.67 74.67 26.18L74.12 25.94L74.69 26.13C75.58 26.47 75.11 26.21 77.43 27.13C78.369 27.5557 79.2837 28.0331 80.17 28.56C80.685 28.8894 81.1792 29.2501 81.65 29.64C85.02 32.22 86.48 36.91 87.11 41.84C87.335 43.5393 87.335 45.2608 87.11 46.96C87.02 47.82 86.82 48.65 86.66 49.48C86.5 50.31 86.27 51.13 86.01 51.92C84.2978 57.3343 81.765 62.4539 78.5 67.1C77.9082 67.808 77.0939 68.2945 76.19 68.48C75.6225 68.5958 75.0375 68.5958 74.47 68.48C74.2634 68.4304 74.0624 68.36 73.87 68.27V68.27Z" fill="#BC7622"/>
<path d="M13.97 68.27C32.5 67.62 54.77 67.6 73.87 68.27C55.34 68.93 33.07 69 13.97 68.27V68.27Z" fill="#BC7622"/>
<path d="M7.25 31.73L6.33 33.27C5.93105 33.8347 5.59568 34.4417 5.33 35.08L4.82 36.22C4.74 36.43 4.63 36.62 4.55 36.84C4.29 37.68 4.4 37.33 3.88 38.96C3.74452 39.477 3.63769 40.0012 3.56 40.53C3.3586 41.6767 3.2383 42.8363 3.2 44V45.83C3.21223 46.4554 3.25897 47.0797 3.34 47.7C3.46365 48.9755 3.67076 50.2416 3.96 51.49L4.5 53.33L5.07 55.16C6.20051 58.4257 7.54681 61.6128 9.1 64.7C9.35 65.12 9.55 65.57 9.8 65.91C10.05 66.25 10.31 66.57 10.58 66.84C10.85 67.11 11.14 67.34 11.42 67.52C12.1868 67.9955 13.0679 68.2546 13.97 68.27C13.8137 68.2849 13.6563 68.2849 13.5 68.27C12.7229 68.2884 11.9554 68.0948 11.28 67.71C10.97 67.54 10.67 67.3 10.33 67.07C9.99 66.84 9.73 66.46 9.4 66.07C9.11665 65.7309 8.85608 65.3735 8.62 65C6.83101 61.97 5.32145 58.7835 4.11 55.48C3.91 54.86 3.71 54.23 3.5 53.61C3.29 52.99 3.17 52.33 3.01 51.69C2.7239 50.4009 2.52015 49.0949 2.4 47.78C2.3188 47.1366 2.28205 46.4884 2.29 45.84C2.29 45.19 2.29 44.56 2.29 43.94C2.37279 42.7426 2.56017 41.5547 2.85 40.39C2.96047 39.8493 3.10068 39.3152 3.27 38.79C3.46 38.28 3.64 37.79 3.81 37.33C4.66981 35.3016 5.82941 33.4139 7.25 31.73V31.73Z" fill="#BC7622"/>
<path d="M11.32 85.88C31.74 85.23 56.32 85.21 77.27 85.88C56.84 86.54 32.32 86.55 11.32 85.88V85.88Z" fill="#BC7622"/>
<path d="M27.12 26.46C25.6299 26.4563 24.1553 26.7628 22.79 27.36C20.7841 28.3131 19.1922 29.9618 18.31 32C18.0638 32.6041 17.8633 33.2259 17.71 33.86C17.63 34.18 17.56 34.51 17.48 34.86C16.48 41.73 17.53 49.64 19.18 57.59C19.8097 60.5871 20.6757 63.5296 21.77 66.39C21.96 66.86 22.21 67.39 22.66 68.28C22.2755 67.6954 21.9217 67.0913 21.6 66.47C20.7663 64.8075 20.0642 63.0822 19.5 61.31C19.13 60.22 18.8 59.02 18.45 57.75C16.83 50.88 15.29 43 16.64 34.68C16.74 34.34 16.83 33.99 16.92 33.68C17.1181 33.0139 17.362 32.3624 17.65 31.73C18.685 29.6062 20.4645 27.9371 22.65 27.04C24.0821 26.5323 25.6057 26.3346 27.12 26.46V26.46Z" fill="#BC7622"/>
<path d="M62.11 26.46C63.6225 26.2935 65.153 26.4818 66.58 27.01C68.7766 27.8899 70.5615 29.5642 71.58 31.7C71.869 32.3308 72.1097 32.9827 72.3 33.65C72.4 33.99 72.49 34.34 72.58 34.65C73.77 41.65 72.78 49.73 70.76 57.72C70.41 58.99 70.07 60.19 69.71 61.28C69.1516 63.0481 68.4561 64.77 67.63 66.43C67.3145 67.0547 66.9604 67.6592 66.57 68.24C66.81 67.75 66.94 67.54 67.45 66.35C68.5534 63.4919 69.4229 60.5489 70.05 57.55C71.37 50.74 72.9 43.01 71.75 34.82C71.67 34.49 71.59 34.16 71.52 33.82C71.3667 33.1859 71.1662 32.5641 70.92 31.96C70.0219 29.9301 68.435 28.2831 66.44 27.31C65.0616 26.7614 63.5935 26.4732 62.11 26.46V26.46Z" fill="#BC7622"/>
<path d="M34.04 29.27L35.44 29.46V29.56L31.35 28.16C30.48 27.85 29.65 27.45 28.76 27.21L27.43 26.82L26.08 26.54C25.1808 26.3487 24.268 26.2283 23.35 26.18C22.89 26.18 22.44 26.12 21.98 26.12C21.52 26.12 21.06 26.12 20.63 26.12H19.63H19.79C18.9791 26.4252 18.215 26.8426 17.52 27.36C16.7656 27.8622 16.0856 28.4682 15.5 29.16C14.9522 29.8425 14.4763 30.5797 14.08 31.36C13.681 32.1483 13.3466 32.9676 13.08 33.81C12.8051 34.6524 12.5814 35.5106 12.41 36.38C12.252 37.2469 12.1385 38.1214 12.07 39C12.02 39.83 12.07 40.79 12.02 41.68C12.02 42.3 12.11 44.11 12.2 45.68C12.25 46.12 12.32 46.57 12.37 47.01C12.43 47.64 12.94 50.96 13.22 52.34L13.85 55C14.5253 57.6247 15.3398 60.2117 16.29 62.75L17.29 65.29C15.6498 62.0427 14.3108 58.6518 13.29 55.16L12.5 52.55L11.92 49.88C11.7 48.99 11.63 48.07 11.49 47.17C11.42 46.72 11.35 46.27 11.3 45.81C11.19 44.15 11.16 44.42 11.06 41.69C11.06 40.77 11.06 39.91 11.06 38.94C11.1858 37.0888 11.5454 35.2609 12.13 33.5C12.4288 32.6173 12.7931 31.7583 13.22 30.93C14.1067 29.2639 15.3331 27.8024 16.82 26.64C17.64 26.2 18.76 25.06 20.52 25.34H20.5H21.94C22.38 25.34 22.89 25.4 23.36 25.46C24.3012 25.5356 25.2344 25.6894 26.15 25.92L27.52 26.26L28.86 26.7C29.03 26.7 30.43 27.35 31.45 27.81L35.45 29.45C35.465 29.4709 35.465 29.4991 35.45 29.52C35.45 29.52 35.45 29.52 35.39 29.52L34.04 29.27Z" fill="#FFE18D"/>
<path d="M53.41 29.27C53.33 29.21 52.91 29.66 52.41 29.61C54.81 28.46 55.57 27.92 58.41 26.77L59.32 26.46C59.63 26.37 59.93 26.25 60.24 26.18L61.17 25.96C62.4186 25.6625 63.6895 25.4685 64.97 25.38C65.6162 25.3447 66.2638 25.3447 66.91 25.38H66.85L69.13 25.31C70.0073 25.6135 70.8333 26.0485 71.58 26.6C72.3112 27.1104 72.9589 27.7311 73.5 28.44C74.0046 29.1501 74.4273 29.915 74.76 30.72C75.6538 33.1201 76.1764 35.6424 76.31 38.2C76.4626 40.7304 76.4057 43.269 76.14 45.79C76.03 46.63 75.92 47.47 75.8 48.3C74.9387 53.2674 73.4432 58.1036 71.35 62.69C73.0719 57.9933 74.3018 53.1306 75.02 48.18L75.28 45.71C75.4751 43.6461 75.5319 41.5715 75.45 39.5C75.45 39.13 75.39 38.68 75.37 38.28C75.2279 36.6413 74.9739 35.0141 74.61 33.41C74.4288 32.6185 74.1847 31.8427 73.88 31.09C73.5672 30.3528 73.1749 29.652 72.71 29C72.2543 28.3525 71.705 27.7762 71.08 27.29C70.4519 26.8075 69.7583 26.4169 69.02 26.13H69.18H66.89C66.3 26.08 65.66 26.13 65.05 26.13C63.8047 26.1855 62.565 26.3292 61.34 26.56L60.42 26.74C60.109 26.8106 59.8019 26.8974 59.5 27C58.91 27.19 58.3 27.31 57.72 27.56C57.14 27.81 53.23 29.35 52.5 29.69V29.61L53.41 29.27Z" fill="#FFE18D"/>
<path d="M48.84 60.67C49.66 58.14 50.29 56.44 51.23 52.85C51.46 51.97 51.7 51.09 51.87 50.21L52.15 48.88L52.36 47.54C52.5116 46.6526 52.6184 45.7582 52.68 44.86C52.8 43.97 52.74 43.06 52.8 42.17C52.8889 38.5588 52.6781 34.9464 52.17 31.37C52.11 30.92 52.01 30.49 51.91 30.06C51.81 29.63 51.71 29.19 51.58 28.76C50.9753 26.1901 49.5155 23.9017 47.44 22.27C47.0819 22.0245 46.7114 21.7975 46.33 21.59L45.14 21.06H45.28H42.16H42.3L41.3 21.45L40.35 21.95L39.46 22.56C39.19 22.8 38.91 23.02 38.65 23.27C38.39 23.52 38.15 23.79 37.93 24.07C37.485 24.6471 37.087 25.2591 36.74 25.9C36.5626 26.2232 36.4056 26.5572 36.27 26.9C35.1839 29.6669 34.5296 32.5843 34.33 35.55C34.3267 32.5406 34.8166 29.551 35.78 26.7C35.9 26.35 36.08 26.01 36.24 25.7C36.54 24.9803 36.9406 24.307 37.43 23.7C37.65 23.39 37.92 23.11 38.17 22.82C38.42 22.53 38.73 22.29 39.01 22.02L39.95 21.33L40.95 20.76C42.799 19.9779 44.8906 20.0033 46.72 20.83C47.15 21.04 47.54 21.32 47.95 21.57C50.06 23.28 51.2 24.47 52.53 28.57C52.668 29.0135 52.7815 29.4641 52.87 29.92C52.96 30.37 53.06 30.83 53.12 31.29C53.6047 34.9353 53.7787 38.6152 53.64 42.29C53.58 43.21 53.64 44.14 53.44 45.04C53.24 45.94 53.22 46.87 53.02 47.77L52.77 49C51.8045 52.9977 50.4895 56.9027 48.84 60.67V60.67Z" fill="#FFE18D"/>
<path opacity="0.7" d="M38.87 15.11C38.57 13.8 35.66 14.22 37.16 16.43C37.9126 16.2984 38.5521 15.8047 38.87 15.11Z" fill="white"/>
<path d="M38.87 15.11C38.5521 15.8047 37.9126 16.2984 37.16 16.43C37.4038 16.7205 37.8008 16.8317 38.16 16.71C38.81 16.55 39.16 16.2 39.02 15.53C38.9795 15.3868 38.9294 15.2465 38.87 15.11V15.11Z" fill="#C9C7BC"/>
<path opacity="0.7" d="M42.37 15.11C42.07 13.8 39.16 14.22 40.66 16.43C41.414 16.3017 42.0549 15.807 42.37 15.11Z" fill="white"/>
<path d="M42.37 15.11C42.0549 15.8069 41.414 16.3017 40.66 16.43C40.9053 16.7181 41.3007 16.8288 41.66 16.71C42.31 16.55 42.66 16.2 42.52 15.53C42.4843 15.3853 42.434 15.2446 42.37 15.11V15.11Z" fill="#C9C7BC"/>
<path opacity="0.7" d="M48.82 15.11C49.12 13.8 52.03 14.22 50.53 16.43C49.776 16.3017 49.1351 15.807 48.82 15.11V15.11Z" fill="white"/>
<path d="M48.82 15.11C49.1292 15.7992 49.7572 16.2926 50.5 16.43C50.2531 16.7157 49.8593 16.826 49.5 16.71C48.85 16.55 48.5 16.2 48.64 15.53C48.6803 15.3824 48.7409 15.241 48.82 15.11V15.11Z" fill="#C9C7BC"/>
<path opacity="0.7" d="M44.26 15.11C44.56 13.8 47.47 14.22 45.97 16.43C45.2174 16.2984 44.5779 15.8047 44.26 15.11V15.11Z" fill="white"/>
<path d="M44.26 15.11C44.5779 15.8047 45.2174 16.2984 45.97 16.43C45.7247 16.7181 45.3292 16.8288 44.97 16.71C44.32 16.55 43.97 16.2 44.11 15.53C44.1457 15.3853 44.1959 15.2446 44.26 15.11V15.11Z" fill="#C9C7BC"/>
<path d="M16.5 76.81C15 75.97 14.81 78.81 14.81 79.81C13.2 85.05 20.94 86 22.87 82.53C23.15 81.31 23.15 78.03 22.03 77.37L16.5 76.81Z" fill="#D6982B"/>
<path d="M31 77.32C28.2 77.87 29.65 82.92 33.07 81.96C35.87 80.87 34.26 77.08 31.28 77.22L31 77.32Z" fill="#D6982B"/>
<path d="M41.12 76.85C36.39 80.85 41.81 86.51 46.93 83.31C47.93 82.66 48.71 78.82 47.12 78.07L41.12 76.85Z" fill="#D6982B"/>
<path d="M55.36 77.5C52.83 77.22 52.08 81.91 54.89 82.5C55.4407 82.6292 56.0204 82.5191 56.4854 82.197C56.9504 81.8749 57.2573 81.371 57.33 80.81C57.61 79.41 56.67 78.57 55.74 77.72L55.36 77.5Z" fill="#D6982B"/>
<path d="M70.26 76.38C69.5582 76.3947 68.863 76.5195 68.2 76.75C67.54 76.85 65.76 76.66 65.2 77.04C62.67 83.1 67.7 85.14 71.76 83.5C72.41 82.66 72.23 77.79 71.38 76.94H71.29L70.26 76.38Z" fill="#D6982B"/>
<path d="M19.32 82C17.84 79.78 16.32 79 14.8 79.85C13.14 84.13 22.59 85.1701 22.03 80.6601C21.41 80.5501 20.7 81 19.32 82Z" fill="#912A2D"/>
<path d="M20.35 76.13C17.26 76 14.14 75.55 14.8 79.89C16.36 79.01 17.8 79.82 19.32 82.04C20.7 80.96 21.41 80.55 22.03 80.7C21.87 79 22.78 76.68 20.35 76.13Z" fill="#B22832"/>
<path d="M18.93 76.89C16.13 79.53 23.76 79.53 19.01 77.05L18.93 76.89Z" fill="#CE2C3F"/>
<path opacity="0.7" d="M33.5 78.52C32.2 76.6 27.44 78.82 30.19 81.79C31.5 81.44 32.73 79.89 33.5 78.52Z" fill="white"/>
<path d="M33.5 78.52C32.78 79.89 31.5 81.44 30.19 81.79C31.5 83.29 35.5 81.22 33.5 78.52Z" fill="#C9C7BC"/>
<path d="M47.33 79.7C48.77 74.52 38.41 74.5 40.1 80.15C41.02 80.28 41.86 80.89 43.02 81.02C45.2 81.31 46.25 81 47.33 79.7V79.7Z" fill="#B22832"/>
<path d="M43.02 81C41.86 80.87 41.02 80.26 40.1 80.13C38.8 84.53 48.86 85.13 47.33 79.68C46.25 81 45.2 81.31 43.02 81V81Z" fill="#912A2D"/>
<path d="M43.55 76.88C39.55 77.36 40.82 80.69 43.74 77.97C46.4 79.38 47.22 76.77 43.55 76.88Z" fill="#CE2C3F"/>
<path d="M68.13 82C69.61 79.78 71.13 79 72.65 79.85C74.3 84.13 64.86 85.1701 65.42 80.6601C66.04 80.5501 66.75 81 68.13 82V82Z" fill="#912A2D"/>
<path d="M67.1 76.13C70.19 76 73.3 75.55 72.65 79.89C71.09 79.01 69.65 79.82 68.13 82.04C66.75 80.96 66.04 80.55 65.42 80.7C65.58 79 64.66 76.68 67.1 76.13V76.13Z" fill="#B22832"/>
<path d="M68.38 77.22C63.88 80.11 74 77.84 68.88 77.14L68.38 77.22Z" fill="#CE2C3F"/>
<path opacity="0.7" d="M54 78.52C55.3 76.6 60.06 78.82 57.31 81.79C55.96 81.44 54.71 79.89 54 78.52Z" fill="white"/>
<path d="M54 78.52C54.71 79.89 56 81.44 57.31 81.79C55.91 83.29 51.98 81.22 54 78.52Z" fill="#C9C7BC"/>
<path d="M42.94 58C41.17 57.44 40.61 60.9 42.22 61.79C44.87 63.16 44.55 59.69 43.34 58.41L42.94 58Z" fill="#D6982B"/>
<path d="M42.7 47.2C39.21 46.96 43.09 53.62 44.55 49.85C44.63 48.73 43.91 48.08 43.26 47.28L42.7 47.2Z" fill="#D6982B"/>
<path d="M42.7 37.38C40.85 37.06 39.88 39.38 41.33 40.92C41.6558 41.3279 42.165 41.5445 42.6848 41.4961C43.2045 41.4478 43.6651 41.141 43.91 40.68C44.47 39.68 43.83 38.99 43.5 38.1L42.7 37.38Z" fill="#D6982B"/>
<path d="M43.18 28.85C42.7549 28.5144 42.1551 28.5144 41.73 28.85C40.61 29.57 41.49 30.85 42.14 31.58C44.55 34.08 44.79 30.37 43.42 29.01L43.18 28.85Z" fill="#D6982B"/>
<path opacity="0.7" d="M45.02 29.73C44.32 27.4 40.19 28.73 42.44 31.73C43.5737 31.5217 44.5357 30.776 45.02 29.73Z" fill="white"/>
<path d="M45.02 29.73C44.5357 30.776 43.5737 31.5217 42.44 31.73C42.8018 32.1448 43.3731 32.3092 43.9 32.15C44.9 31.9 45.41 31.37 45.2 30.35C45.1586 30.1384 45.0984 29.9309 45.02 29.73V29.73Z" fill="#C9C7BC"/>
<path opacity="0.7" d="M44.69 38.69C43.99 36.36 39.86 37.69 42.11 40.69C43.2437 40.4817 44.2057 39.736 44.69 38.69Z" fill="white"/>
<path d="M44.69 38.69C44.2057 39.736 43.2437 40.4817 42.11 40.69C42.4736 41.1019 43.0411 41.2691 43.57 41.12C44.57 40.87 45.08 40.34 44.87 39.32C44.8286 39.1051 44.7683 38.8943 44.69 38.69Z" fill="#C9C7BC"/>
<path opacity="0.7" d="M44.9 48.57C44.2 46.24 40.07 47.57 42.32 50.57C43.4537 50.3617 44.4157 49.616 44.9 48.57V48.57Z" fill="white"/>
<path d="M44.9 48.57C44.4157 49.616 43.4537 50.3617 42.32 50.57C42.6832 50.9826 43.2531 51.1466 43.78 50.99C44.78 50.74 45.3 50.22 45.09 49.19C45.0436 48.9785 44.98 48.7712 44.9 48.57V48.57Z" fill="#C9C7BC"/>
<path opacity="0.7" d="M45.16 59.11C44.46 56.78 40.34 58.11 42.58 61.11C43.7165 60.9082 44.6812 60.1604 45.16 59.11V59.11Z" fill="white"/>
<path d="M45.16 59.11C44.6812 60.1603 43.7165 60.9081 42.58 61.11C42.945 61.5198 43.5111 61.6866 44.04 61.54C45.04 61.29 45.56 60.76 45.35 59.74C45.3099 59.5237 45.2462 59.3124 45.16 59.11V59.11Z" fill="#C9C7BC"/>
</g>
<defs>
<clipPath id="clip0_1_2640">
<rect width="89" height="89" fill="white"/>
</clipPath>
</defs>
</svg>
