<svg width="43" height="84" viewBox="0 0 43 84" fill="none" xmlns="http://www.w3.org/2000/svg">
<path d="M39.79 79.44L42.69 29.13L30.34 59.13L21 0L12.4 59.17L0 29.13L1.84 79.44C2.7 79.25 39.79 79.44 39.79 79.44Z" fill="#ECB43B"/>
<path d="M7.57999 65.61C6.45999 66.86 5.99999 70.48 9.19999 70.05C11.03 69.27 10.32 65.61 8.27999 65.68L7.57999 65.61Z" fill="#D6982B"/>
<path d="M32.09 65.89C29.98 65.4 29.41 69.69 31.88 70.12C34.35 70.55 32.94 67.44 32.3 66.45L32.09 65.89Z" fill="#D6982B"/>
<path d="M42.69 29.13C38.53 37.82 34.06 54.06 30.03 59.13C27.19 41.87 22.89 15.3 20.46 0.129994H21.46C9.1 78.74 16.87 66.58 0 29.13C4.21 39.13 8.48 49.06 12.63 59.06L12.05 59.13C24.65 -31.31 18.48 -7.14 30.64 59.13L30.06 59.07C34.21 49.06 38.48 39.1 42.69 29.13V29.13Z" fill="#BC7622"/>
<path d="M40 83.47C40 78.11 1.30001 78.47 1.84001 83.47C0.190009 84.47 1.45001 76.71 2.14001 77.47C4.91001 73.27 35.14 73.29 39.14 76.99C40.31 76.55 41.93 83.88 40 83.47Z" fill="#F3D15C"/>
<path d="M1.34003 78.7C1.42741 78.4599 1.53099 78.2261 1.65003 78C1.76905 77.775 1.91697 77.5666 2.09003 77.38C8.17003 73.21 17.75 73.56 26.22 73.82C27.05 73.82 27.87 73.97 28.69 74.05C29.51 74.13 30.33 74.25 31.15 74.39C31.97 74.53 32.78 74.65 33.58 74.84C34.3984 75.0146 35.2063 75.2349 36 75.5C36.41 75.96 37.75 75.27 40.17 78.03C39.64 77.71 39.53 76.72 35.87 75.96C35.0817 75.7663 34.284 75.6128 33.48 75.5C32.68 75.35 31.87 75.25 31.06 75.18C29.66 75 26.13 74.78 23.74 74.71C16.74 75.01 9.32003 73.91 2.23003 77.54C2.04947 77.6969 1.88833 77.8748 1.75003 78.07C1.57003 78.27 1.47003 78.5 1.34003 78.7V78.7Z" fill="#BC7622"/>
<path d="M6 68.06V68.2C5.79 69.2 6.32 69.75 7.31 69.99C7.76303 70.0891 8.23688 69.9942 8.61681 69.7283C8.99673 69.4624 9.24808 69.0496 9.31 68.59C8.18228 68.9065 6.97252 68.7128 6 68.06V68.06Z" fill="#C9C7BC"/>
<path opacity="0.7" d="M7.78999 66.22C6.84999 66.12 6.19999 67.14 5.98999 68.06C6.94959 68.698 8.13771 68.8912 9.24999 68.59C9.41438 68.0804 9.34731 67.5243 9.06644 67.0684C8.78558 66.6124 8.31911 66.3024 7.78999 66.22V66.22Z" fill="white"/>
<path opacity="0.7" d="M34.44 67.57C33.74 65.24 29.61 66.57 31.86 69.57C32.9937 69.3617 33.9557 68.616 34.44 67.57V67.57Z" fill="white"/>
<path d="M34.44 67.57C33.9557 68.616 32.9937 69.3617 31.86 69.57C32.2232 69.9826 32.7931 70.1466 33.32 69.99C34.32 69.75 34.84 69.22 34.62 68.2C34.5832 67.9841 34.5228 67.7728 34.44 67.57Z" fill="#C9C7BC"/>
<path d="M19.83 59.69C19.9 60.33 18.92 61.38 18.43 62.02C17.65 63.02 15.75 64.69 15.68 66.1C15.54 67.72 18.99 71.1 20.4 72.16C21.2555 71.2962 22.0539 70.3776 22.79 69.41C23.36 68.85 24.62 68.29 24.55 67.41L19.83 59.69Z" fill="#D6982B"/>
<path d="M19.8 68.41C20.93 68.62 21.7 66.75 22.65 66.33C23.1266 66.0797 23.6629 65.9655 24.2 66L20.2 59.92C19.78 61.03 17.83 63.92 16.9 65.56C16.9936 65.5778 17.0844 65.6081 17.17 65.65C18.29 66.26 18.53 68.16 19.8 68.41V68.41Z" fill="#F2D1D7"/>
<path d="M22.65 66.33C20.06 69.17 19.37 68.61 17.19 65.69C17.1044 65.6481 17.0136 65.6178 16.92 65.6C15.62 67.16 17.92 68.22 20.33 71.6C21.9851 70.1545 23.4143 68.4691 24.57 66.6L24.2 66C23.6628 65.9655 23.1265 66.0797 22.65 66.33Z" fill="#E2AFBA"/>
<path d="M20.26 61.87C19.38 62.46 18.64 65.73 21.26 64.78C22 64.16 21.33 62.65 20.26 61.87V61.87Z" fill="#F9E4E8"/>
</svg>
