<svg width="92" height="75" viewBox="0 0 92 75" fill="none" xmlns="http://www.w3.org/2000/svg">
<path d="M74.17 66.29C76.49 63.6 81.84 67.5 78.44 70.82C76.6549 69.6973 75.1853 68.1383 74.17 66.29Z" fill="#B22832"/>
<path d="M78.44 70.82C76.44 72.82 71.15 69.87 74.17 66.29C75.1853 68.1383 76.6549 69.6973 78.44 70.82Z" fill="#912A2D"/>
<path d="M17.53 66.29C15.21 63.6 9.86 67.5 13.26 70.82C15.0474 69.7001 16.5176 68.1404 17.53 66.29Z" fill="#B22832"/>
<path d="M13.26 70.82C15.26 72.82 20.55 69.87 17.53 66.29C16.5176 68.1404 15.0474 69.7001 13.26 70.82V70.82Z" fill="#912A2D"/>
<path d="M45.91 71.78C61 71.78 73.3 73 74.17 74.62L86.78 42L71.14 60.12L72.55 26.91L58 57.13L45.1 3.72L33.74 57.13L19.15 26.91L20.56 60.12L4.92001 42L17.6 74.8C17.6 73.13 30.27 71.78 45.91 71.78Z" fill="#D5E2E0"/>
<path d="M30 60.61C17.43 68.94 41.52 70.76 30.12 60.73L30 60.61Z" fill="#BAD2D2"/>
<path d="M45.2 59.12C41.49 59.46 42.68 66.12 46.79 65.95C50.51 65.21 49.65 58.49 45.2 59.12V59.12Z" fill="#BAD2D2"/>
<path d="M63.11 61.21C52.11 61.96 67.05 74.59 63.95 62.06L63.11 61.21Z" fill="#BAD2D2"/>
<path d="M0.09 41.33L0 41.85L5.45 43.39L6.35 39.57C5.14 40.17 2.27 40.08 0.09 41.33V41.33Z" fill="#E2AFBA"/>
<path d="M1.23 34.64L0.0899963 41.33C1.2 40.48 4.93 40.07 6.35 39.57L6.85 37.45L1.23 34.64Z" fill="#F2D1D7"/>
<path d="M21.64 22.31L17.64 18.83L14.45 24.45L16.82 26.53C18.56 26 19.92 23.93 21.64 22.31V22.31Z" fill="#F2D1D7"/>
<path d="M16.78 26.53L19.23 28.67L22.49 23L21.64 22.27C19.92 23.93 18.56 26 16.78 26.53Z" fill="#E2AFBA"/>
<path d="M48.42 3.84L45 0L41 5.1C43.5437 5.4312 46.1282 4.99231 48.42 3.84Z" fill="#F2D1D7"/>
<path d="M41 5.1L40.91 5.21L45.3 9.49L49.6 5.21L48.42 3.84C46.1282 4.99231 43.5437 5.43119 41 5.1V5.1Z" fill="#E2AFBA"/>
<path d="M31.63 62.3C28.15 58.22 22.86 65.42 28.63 67.24C30.25 66.34 31.24 64.33 31.63 62.3Z" fill="#B22832"/>
<path d="M31.63 62.3C31.24 64.3 30.25 66.3 28.63 67.24C30.66 67.59 33.54 65 31.63 62.3Z" fill="#912A2D"/>
<path d="M48.67 64.1C51.67 60.16 43.67 56.6 43.57 62.6C44.9571 63.843 46.8308 64.3941 48.67 64.1Z" fill="#B22832"/>
<path d="M43.57 62.6C43.76 64.32 46.72 66.33 48.67 64.1C46.8308 64.3941 44.9571 63.843 43.57 62.6V62.6Z" fill="#912A2D"/>
<path d="M91.61 41.33L91.7 41.85L86.25 43.39L85.35 39.57C86.56 40.17 89.43 40.08 91.61 41.33Z" fill="#E2AFBA"/>
<path d="M90.47 34.64L91.61 41.33C90.5 40.48 86.77 40.07 85.35 39.57L84.85 37.45L90.47 34.64Z" fill="#F2D1D7"/>
<path d="M70.06 22.31L74.06 18.83L77.25 24.45L74.88 26.53C73.14 26 71.78 23.93 70.06 22.31V22.31Z" fill="#F2D1D7"/>
<path d="M74.92 26.53L72.47 28.67L69.21 23L70.06 22.27C71.78 23.93 73.14 26 74.92 26.53V26.53Z" fill="#E2AFBA"/>
<path d="M60.08 62.3C63.55 58.22 68.84 65.42 63.08 67.24C61.45 66.34 60.46 64.33 60.08 62.3Z" fill="#B22832"/>
<path d="M60.08 62.3C60.46 64.3 61.45 66.3 63.08 67.24C61 67.59 58.16 65 60.08 62.3Z" fill="#912A2D"/>
<path d="M16.78 71.19C19.7398 70.3536 22.7446 69.6859 25.78 69.19C27.13 68.94 28.61 68.75 30.18 68.52C34.4935 67.9655 38.8325 67.6317 43.18 67.52C45.03 67.52 48.47 67.52 51.43 67.66C55.6023 67.8675 59.7591 68.3149 63.88 69C66.28 69.38 72.08 70.71 74.88 71.57C72 71 68.17 70.27 63.79 69.65C60.29 69.26 55.87 68.77 51.33 68.65C49.53 68.59 47.7 68.51 45.87 68.55H43.14C41.37 68.55 37.97 68.68 35.14 68.89L30.21 69.29C26.5 69.58 20.23 70.45 16.78 71.19V71.19Z" fill="#96BCBB"/>
<path d="M84.85 45.83C84.66 45.83 70.33 62.92 69.96 62.65C69.96 55.17 70.59 40.13 70.78 32.76L71.33 32.9C71.33 32.9 61.76 53.26 58.82 59.48C57.82 62.13 57.42 61.68 57.02 59.95C55.12 52.4 44.82 11.51 44.8 11.46H45.8C45.11 11.72 34.97 64.17 33.74 60.69L20 32.07L20.57 31.92C20.71 39.83 22.44 56.92 21.92 63.97L7.67001 46.66L22.21 63.76L21.92 63.87C18.49 13.36 18.56 31.28 34.44 60.44L33.73 60.52C50.28 -10 40.89 0.079998 58 61L57.31 60.93C75.24 25.2 71.31 21.54 70.19 62.58L69.91 62.47L84.85 45.83Z" fill="#96BCBB"/>
</svg>
