<svg width="113" height="62" viewBox="0 0 113 62" fill="none" xmlns="http://www.w3.org/2000/svg">
<mask id="mask0_1_490" style="mask-type:alpha" maskUnits="userSpaceOnUse" x="0" y="0" width="110" height="59">
<path fill-rule="evenodd" clip-rule="evenodd" d="M0.000217438 0.052876H109.427V58.9264H0.000217438V0.052876Z" fill="white"/>
</mask>
<g mask="url(#mask0_1_490)">
</g>
<mask id="mask1_1_490" style="mask-type:alpha" maskUnits="userSpaceOnUse" x="0" y="0" width="112" height="61">
<path fill-rule="evenodd" clip-rule="evenodd" d="M0.081955 0.186485H111.754V60.2757H0.081955V0.186485Z" fill="white"/>
</mask>
<g mask="url(#mask1_1_490)">
<path fill-rule="evenodd" clip-rule="evenodd" d="M100.958 34.786C97.5148 26.4961 110.043 24.6868 109.403 32.7715C108.644 35.8488 106.195 36.2537 103.259 36.4817C97.3359 43.9439 93.9376 53.8553 87.7496 61.4783C84.7541 61.8998 81.5762 58.3926 78.4185 57.2751C61.2549 49.006 39.012 53.0116 24.0807 58.5181C22.3143 59.1434 20.3635 60.3934 19.013 58.6166C13.831 49.7201 9.83024 40.7709 4.62877 32.0831C3.23464 30.7749 0.92265 31.3212 0.27446 28.9724C-1.98277 20.2513 10.5263 22.1439 7.45308 29.5568C22.9784 45.3498 26.1792 33.2886 29.1033 19.1206C22.4238 15.9594 28.6513 7.25009 33.7363 12.3587C35.3669 14.5764 33.554 16.3414 32.4455 18.6111C33.1741 22.625 36.2161 26.8338 39.0189 30.3194C47.5466 37.6818 54.1956 23.3973 56.3848 16.6561C54.0916 13.3639 49.0634 11.3826 49.2506 6.16654C49.7553 1.69784 55.2347 3.22438 57.0559 6.35164C59.6126 1.8462 66.7718 0.395222 65.3597 8.04456C64.3933 11.7736 60.647 13.567 59.404 17.2773C63.3312 37.9805 70.4877 32.2266 79.9596 19.7626C73.8506 13.6474 85.7018 6.5409 87.5021 14.8308C88.1767 18.0863 85.9146 19.2468 82.9981 20.6818C80.0719 37.627 87.0134 43.3685 100.958 34.786" fill="#FACB57"/>
<path fill-rule="evenodd" clip-rule="evenodd" d="M4.84673 27.625C7.54001 27.2292 6.63324 23.0177 3.58293 24.2725C2.57356 25.2645 3.07339 27.6389 4.84673 27.625ZM31.3768 14.847C33.7976 14.7798 34.4798 10.7416 30.9837 11.4882C29.7206 12.1142 29.0502 14.6092 31.3768 14.847ZM107.622 32.8847C110.664 32.8424 111.008 28.9193 107.944 28.4119C105.37 28.7044 104.584 32.2636 107.622 32.8847ZM85.9378 11.7336C82.9699 11.7995 81.8531 15.8037 85.0753 16.6481C87.6612 16.8207 89.1447 12.2272 85.9378 11.7336ZM59.8306 13.2428C61.8944 11.353 69.1673 -0.461359 62.3048 4.29365C61.3121 5.04237 60.4996 8.41503 58.4573 8.31174C49.5289 -2.51477 54.288 9.89929 59.8306 13.2428V13.2428ZM92.0994 53.8695C68.1753 42.1487 44.1243 41.1199 19.7288 52.1925C20.4581 53.5069 21.2851 54.9967 22.1399 56.5378C43.2404 47.7938 69.1631 45.5678 89.6127 57.9402C90.4564 56.5593 91.2321 55.2885 92.0994 53.8695ZM18.4761 49.6011C47.7084 38.3774 69.0952 40.0037 93.1379 51.841C96.0835 46.9217 98.9972 42.0571 102.061 36.9409C86.9991 45.6842 81.6853 35.3146 82.5692 22.2849C82.4521 22.2544 82.3356 22.2246 82.2185 22.1948C72.1573 35.8685 62.8871 35.8512 59.5172 18.8138C51.1421 37.951 40.4806 38.473 32.1733 20.6592C28.8984 36.9458 23.6858 43.6897 9.55599 32.8785C9.51162 32.9291 9.46725 32.9797 9.42219 33.0303C12.4572 38.5853 15.4916 44.1397 18.4761 49.6011V49.6011ZM103.797 33.5225C100.276 25.0565 113.102 23.2042 112.421 31.4656C111.766 33.9239 109.664 35.4324 106.637 35.0505C99.9359 41.9719 96.8807 53.1478 90.3073 60.7819C86.1679 60.8505 82.4666 56.517 78.0326 55.2317C61.1256 48.9605 42.7308 51.7564 26.255 57.3849C24.176 57.9964 21.7752 59.9188 20.1101 57.8598C14.8178 48.7747 10.7324 39.6342 5.42074 30.762C3.99611 29.4268 1.63559 29.9842 0.973534 27.5855C-0.885767 18.3396 11.0035 20.6752 8.52512 28.6836C25.0807 43.5837 27.0571 32.2185 30.4145 17.5244C23.5936 14.2959 29.9535 5.40147 35.146 10.6189C36.8112 12.883 34.9602 14.6862 33.8281 17.0037C34.572 21.1036 37.6791 25.4011 40.5416 28.9609C49.2502 36.4792 56.0406 21.8918 58.2763 15.0079C55.9345 11.6456 50.7989 9.62198 50.9902 4.29504C51.506 -0.268635 57.102 1.29049 58.9619 4.4843C61.5727 -0.116813 68.8845 -1.59898 67.4425 6.21257C66.4546 10.0206 62.6292 11.8529 61.3592 15.6415C65.3579 36.7628 72.6842 30.9208 82.3522 18.1795C76.1137 11.9347 88.2165 4.67771 90.0543 13.1437C90.7434 16.4678 88.4328 17.6533 85.4546 19.1188C82.4618 36.3482 89.517 42.324 103.797 33.5225" fill="black"/>
</g>
</svg>
