<svg width="116" height="74" viewBox="0 0 116 74" fill="none" xmlns="http://www.w3.org/2000/svg">
<path d="M54.06 17.86C72.35 27.2 61.27 9.16 76.42 9.74C78.14 4.91 71.88 -1.74 66.5 0.420002C62.19 2.34 58.95 10.49 58.41 10.06C54.02 0.200003 40.7 -3.51 39.84 8.85C40.1 13.53 44.08 19.33 47.7 23.57C48.39 22.82 48.95 21.88 49.53 21.14C50.69 19.5 51.84 17.86 54.06 17.86V17.86Z" fill="#B22832"/>
<path d="M67.26 13.2C63.17 29.29 55.5 9.90998 49.5 20.14C48.92 20.88 48.36 21.82 47.67 22.57C48.5 23.57 49.3 24.41 50.04 25.18C51.63 26.93 58.82 32.36 58.82 32.36C62.11 29.51 74.5 17.25 76.42 8.73998C72.97 8.34998 68.78 10.47 67.26 13.2Z" fill="#912A2D"/>
<path d="M52.9 5.52999C51.14 3.02999 44.52 0.529991 42.9 5.13999C42.61 7.13999 44.25 6.58999 45.69 6.96999C50.74 12.08 55.55 13.91 52.9 5.52999V5.52999Z" fill="#CE2C3F"/>
<path d="M68.8 1.57C67.94 1.48 65.24 2.15 65.91 3.89C66.4 5 68.32 4.66 69.29 5C70.64 5.48 70.92 6.92 72.08 7.5C73.5 8.13 74.5 6.59 74.3 5.24C74.11 3.5 71.99 2.54 70.5 2L68.8 1.57Z" fill="#CE2C3F"/>
<path d="M50.87 30C44.35 27.54 31.68 31.28 29.16 21.54C28.7301 19.6067 29.2672 17.585 30.6 16.12C32.67 13.57 34.27 15.12 36.82 14.2C37.2431 14.0486 37.6334 13.8178 37.97 13.52C34.17 14.07 28.67 12.52 26.82 17.52C23.39 39.52 54.36 21.52 51.82 41.35L53.26 41C53.9 37.51 54.7 32.09 50.87 30V30Z" fill="#BAD2D2"/>
<path d="M47.08 31.26C38.38 30.45 23.14 30.17 26.82 17.54C28.41 12.76 33.67 13.94 37.97 13.54C39.83 11.74 33.3 9.73997 30.76 10.87C15 20.14 26.89 33.36 40.5 32.09C43.21 32.09 47.21 31.77 48.64 34.48C49.76 36.24 49.76 40.23 49.76 41.82L51.76 41.37C51.71 37.49 51.25 32.48 47.08 31.26V31.26Z" fill="#96BCBB"/>
<path d="M32.71 37.15C23.81 34.76 12.71 48.88 5.18999 41.94C3.91999 40.13 4.57999 37.74 4.95999 35.52C4.94128 34.8518 4.97472 34.1831 5.05999 33.52C4.55999 37.21 2.41999 43.23 6.49999 45.81C9.20999 46.81 13.5 45.81 16.07 44.81C22.94 41.81 31.39 34.75 34.07 46.08C35.1585 45.4198 36.3069 44.864 37.5 44.42C36.72 41.3 34.93 38 32.71 37.15V37.15Z" fill="#96BCBB"/>
<path d="M34.27 34.16C30.44 32.73 25.65 34.32 22.78 36.56C17.54 41.05 5.27999 44.69 4.95999 35.56C4.57999 37.78 3.95999 40.17 5.18999 41.98C14.83 50.53 32.99 24.98 37.47 44.46C42.5 42.68 38.19 35.16 34.27 34.16V34.16Z" fill="#BAD2D2"/>
<path d="M3.99001 54.91C1.94001 58.49 2.58 63.91 5.99 67.31C6.93 66.49 7.83 65.5 8.73 64.7C3.62 64.38 4.42 55.92 7.73 54C10.61 52.25 15.39 50.79 17.63 53.35L19.22 51.91C14.91 49.22 6.99001 50.3 3.99001 54.91V54.91Z" fill="#96BCBB"/>
<path d="M6.71 49.2C0.169998 53 -1.32 63.26 4.26 68.53C4.88581 68.1979 5.46709 67.788 5.99 67.31C3.3 64.47 1.5 59.31 3.99 54.91C6.99 50.51 14.41 49.05 19.26 51.91L21.18 50.17C19.11 46.34 9.58 47.45 6.71 49.2V49.2Z" fill="#BAD2D2"/>
<path d="M85.08 10.86C82.54 9.73002 76 11.73 77.86 13.53C81.67 14.08 87.17 12.53 89.02 17.53C92.44 39.53 61.48 21.53 64.07 41.36L66.07 41.81C66.07 40.22 66.07 36.23 67.18 34.47C68.62 31.76 72.61 32.08 75.32 32.08C91.61 33.18 99.09 18.55 85.08 10.86Z" fill="#96BCBB"/>
<path d="M68.76 31.26C77.46 30.45 92.69 30.18 89.02 17.54C87.42 12.76 82.17 13.94 77.86 13.54C78.1982 13.8355 78.5881 14.066 79.01 14.22C81.57 15.22 83.16 13.59 85.24 16.14C86.5682 17.6075 87.1047 19.6267 86.68 21.56C81.5 36.59 57.61 20.15 62.58 41L64.07 41.34C64.12 37.49 64.59 32.48 68.76 31.26V31.26Z" fill="#BAD2D2"/>
<path d="M111.57 38.15L110.78 33.52C110.862 34.1833 110.892 34.852 110.87 35.52C111.25 37.74 111.87 40.13 110.65 41.94C101.01 50.49 82.84 24.94 78.37 44.42C79.5409 44.884 80.6658 45.4565 81.73 46.13C84.44 34.8 92.9 41.82 99.73 44.86C102.29 45.86 106.6 46.77 109.31 45.86C112.05 44.54 112.05 40.71 111.57 38.15V38.15Z" fill="#96BCBB"/>
<path d="M83.12 37.15C92.03 34.76 103.12 48.88 110.65 41.94C111.92 40.13 111.25 37.74 110.87 35.52C110.55 44.69 98.3 41.05 93.06 36.52C90.19 34.28 85.4 32.69 81.57 34.12C78.33 35.12 72.67 42.02 78.37 44.38C79.12 41.3 80.91 38 83.12 37.15V37.15Z" fill="#BAD2D2"/>
<path d="M111.85 54.91C108.85 50.51 101.43 49.05 96.58 51.91L98.17 53.35C100.4 50.79 105.17 52.25 108.06 54C111.41 55.92 112.21 64.38 107.06 64.7C107.97 65.5 108.87 66.49 109.81 67.31C112.5 64.47 114.33 59.32 111.85 54.91V54.91Z" fill="#96BCBB"/>
<path d="M109.12 49.2C106.25 47.45 96.73 46.34 94.66 50.2L96.58 51.94C100.93 49.25 108.85 50.33 111.85 54.94C113.922 59.073 113.116 64.068 109.85 67.34C110.371 67.8155 110.949 68.2252 111.57 68.56C117.16 63.26 115.67 53 109.12 49.2V49.2Z" fill="#BAD2D2"/>
<path d="M53.74 37.62V37.09C53.74 36.74 53.74 36.23 53.68 35.58C53.6068 34.8142 53.4595 34.0573 53.24 33.32C52.8123 32.1493 52.0201 31.1468 50.98 30.46C50.8736 30.3793 50.7598 30.309 50.64 30.25L50.23 30.07C47.46 29.07 44.33 29.59 40.23 29.42C36.71 28.98 30.66 27.57 29.03 22.8C28.807 22.1144 28.6824 21.4006 28.66 20.68C28.6249 19.9807 28.6922 19.2799 28.86 18.6C29.2149 17.3818 29.9085 16.2895 30.86 15.45L31.16 15.16C31.5175 14.914 31.9037 14.7126 32.31 14.56C32.5579 14.4727 32.8174 14.4221 33.08 14.41C33.3198 14.3956 33.5602 14.3956 33.8 14.41H35.07C35.4057 14.3997 35.7401 14.3629 36.07 14.3C36.5671 14.2141 37.0488 14.0558 37.5 13.83L37.94 13.53L37.53 13.88C37.0979 14.1573 36.6257 14.3665 36.13 14.5C35.7763 14.5952 35.4149 14.6588 35.05 14.69C34.05 14.79 32.65 14.54 31.23 15.85C30.4025 16.6444 29.8166 17.6568 29.54 18.77C29.3317 20.0251 29.4312 21.3119 29.83 22.52C31.33 26.32 35.61 27.76 40.27 28.52C42.78 28.79 46.07 28.2 49.57 29.16C49.876 29.2644 50.1764 29.3846 50.47 29.52L50.87 29.72C51.0132 29.7904 51.1475 29.8777 51.27 29.98C52.4006 30.7559 53.2136 31.9133 53.56 33.24C53.8324 34.5145 53.9 35.8243 53.76 37.12C53.76 37.44 53.74 37.62 53.74 37.62V37.62Z" fill="#D5E2E0"/>
<path d="M39.08 38.39L38.8 38C38.5399 37.6287 38.2559 37.2746 37.95 36.94C36.8811 35.7639 35.5278 34.8824 34.02 34.38C33.5195 34.2435 33.0121 34.1333 32.5 34.05C31.9673 34.0144 31.4327 34.0144 30.9 34.05C30.3284 34.0719 29.7597 34.1421 29.2 34.26L28.33 34.44C26.8291 34.8598 25.3949 35.4893 24.07 36.31C23.5235 36.6461 22.9991 37.0168 22.5 37.42C21.94 37.85 21.37 38.23 20.79 38.6C17.61 40.35 13.89 42 9.49999 41.46C6.57411 40.9926 4.52628 38.3164 4.83999 35.37C4.95999 34.19 5.02999 33.52 5.02999 33.52V35.37C5.08347 36.946 5.71326 38.4475 6.79999 39.59C7.60345 40.2344 8.57556 40.6337 9.59999 40.74C13.35 41.07 18.11 39.41 21.84 36.65C22.34 36.23 22.94 35.82 23.5 35.44C24.9319 34.6035 26.4734 33.9708 28.08 33.56L29.02 33.41C29.6213 33.3095 30.2304 33.2627 30.84 33.27C31.4299 33.2773 32.0184 33.3308 32.6 33.43C33.1137 33.5391 33.6211 33.676 34.12 33.84C35.6965 34.4367 37.0654 35.4791 38.06 36.84C38.3562 37.2033 38.6205 37.5914 38.85 38L39.08 38.39Z" fill="#D5E2E0"/>
<path d="M19.06 48.39C18.1269 48.1233 17.1683 47.9557 16.2 47.89C15.62 47.89 14.93 47.89 14.2 47.89C12.5404 47.9894 10.8953 48.2574 9.29 48.69C8.86 48.82 8.43 48.98 7.99 49.13C7.58147 49.3093 7.18408 49.513 6.8 49.74C6.39073 49.9874 6.00273 50.2683 5.64 50.58L5.12 51C4.27521 51.8276 3.54233 52.7622 2.94 53.78C2.49307 54.5826 2.1247 55.4266 1.84 56.3C1.32731 57.8669 1.09707 59.5125 1.16 61.16C1.18741 61.8314 1.26428 62.4999 1.39 63.16C1.48539 63.6641 1.61231 64.1618 1.77 64.65C1.9 65.06 2.04 65.37 2.12 65.59L2.25 65.92L2.07 65.62C1.97 65.41 1.76 65.13 1.59 64.73C1.37345 64.2485 1.18644 63.7542 1.03 63.25C0.343882 60.9058 0.343882 58.4142 1.03 56.07C1.28395 55.1166 1.64281 54.1943 2.1 53.32C2.74637 52.2226 3.533 51.2141 4.44 50.32L5.05 49.82C5.4407 49.5036 5.85157 49.213 6.28 48.95C6.7272 48.6946 7.19166 48.4708 7.67 48.28L9.07 47.86L10.5 47.55C11.7426 47.3797 12.9958 47.2995 14.25 47.31C15.01 47.38 15.69 47.4 16.3 47.52C16.91 47.64 17.44 47.74 17.84 47.88L19.06 48.39Z" fill="#D5E2E0"/>
<path d="M77.86 13.53L78.31 13.83C78.7573 14.0587 79.2357 14.2204 79.73 14.31C80.0792 14.3794 80.434 14.4163 80.79 14.42H82.06C82.5708 14.3886 83.083 14.453 83.57 14.61C83.8417 14.6783 84.0968 14.8007 84.32 14.97C84.5782 15.1105 84.8086 15.2969 85 15.52C85.4521 15.9226 85.8489 16.3833 86.18 16.89C86.5537 17.445 86.8278 18.0609 86.99 18.71C87.1458 19.3917 87.2064 20.0917 87.17 20.79C87.134 21.5116 86.9994 22.2249 86.77 22.91C85.35 27.04 80.21 28.91 75.42 29.46C73.23 29.6 70.31 29.26 67.1 29.68C66.5101 29.7796 65.9355 29.9543 65.39 30.2L65.14 30.31C64.7497 30.551 64.3785 30.8218 64.03 31.12C63.317 31.7949 62.7901 32.6421 62.5 33.58C62.1814 34.8239 62.04 36.1066 62.08 37.39V37.93L62.02 37.4C61.8505 36.0987 61.891 34.7785 62.14 33.49C62.3492 32.4305 62.8556 31.4524 63.6 30.67C63.9489 30.3255 64.3345 30.0204 64.75 29.76L65.02 29.62C65.6055 29.3289 66.223 29.1074 66.86 28.96C69.06 28.46 71.86 28.67 75.27 28.53C78.42 28.03 84.27 26.96 85.86 22.65C86.0862 22.0325 86.2242 21.3861 86.27 20.73C86.3294 20.1093 86.3025 19.4834 86.19 18.87C86.074 18.2949 85.861 17.7437 85.56 17.24C85.281 16.7614 84.9452 16.3182 84.56 15.92C83.9056 15.196 82.9759 14.782 82 14.78L80.72 14.72C80.3518 14.6888 79.9871 14.6252 79.63 14.53C79.1339 14.3975 78.6616 14.1883 78.23 13.91L77.86 13.53Z" fill="#D5E2E0"/>
<path d="M110.78 33.52C110.78 33.52 110.84 34.2 110.96 35.39C111.14 37.39 109.96 41.03 106.18 41.48C102.18 41.99 97.02 40.3 93.11 37.24C91.6227 36.0126 89.9011 35.1008 88.05 34.56C87.4696 34.3823 86.8784 34.242 86.28 34.14C85.7 34.05 85.11 34.03 84.55 33.99C83.99 33.95 83.43 33.99 82.91 34.13C82.39 34.27 81.91 34.35 81.43 34.52C80.9856 34.6798 80.5571 34.8807 80.15 35.12C79.7809 35.3432 79.4268 35.5904 79.09 35.86C78.5364 36.2991 78.0273 36.7914 77.57 37.33C77.2818 37.6875 77.0147 38.0615 76.77 38.45L76.52 38.87L76.73 38.42C76.9244 37.9994 77.1518 37.5948 77.41 37.21C77.835 36.6204 78.3174 36.0744 78.85 35.58C79.5317 34.9066 80.3362 34.3702 81.22 34C81.7345 33.8066 82.2585 33.6397 82.79 33.5C83.3551 33.3884 83.926 33.3082 84.5 33.26C85.1 33.26 85.73 33.26 86.36 33.33C87.0013 33.4133 87.6361 33.5402 88.26 33.71L89.26 33.99C89.57 34.1 89.88 34.24 90.19 34.36C90.8329 34.618 91.4548 34.9256 92.05 35.28C92.6341 35.6463 93.1983 36.0435 93.74 36.47C96.365 38.4274 99.3687 39.8169 102.56 40.55C103.72 40.7912 104.909 40.862 106.09 40.76C107.128 40.6701 108.118 40.281 108.94 39.64C110.106 38.5371 110.771 37.0053 110.78 35.4C110.77 34.21 110.78 33.52 110.78 33.52V33.52Z" fill="#D5E2E0"/>
<path d="M113.06 66.79C113.06 66.79 113.06 66.67 113.22 66.45C113.38 66.23 113.5 65.92 113.68 65.51C113.889 65.0199 114.063 64.5152 114.2 64C114.381 63.3444 114.512 62.6757 114.59 62C114.666 61.1918 114.666 60.3783 114.59 59.57C114.513 58.6671 114.353 57.7732 114.11 56.9C113.992 56.4401 113.841 55.989 113.66 55.55C113.141 54.1685 112.368 52.8965 111.38 51.8C111.07 51.4442 110.736 51.1101 110.38 50.8C110.015 50.4754 109.623 50.1811 109.21 49.92C105.395 47.9283 100.975 47.4258 96.81 48.51L96.46 48.63L96.79 48.46C100.995 46.8186 105.701 47.0552 109.72 49.11C110.183 49.3848 110.618 49.7029 111.02 50.06C111.847 50.75 112.571 51.5548 113.17 52.45C113.43 52.91 113.74 53.35 113.96 53.83C114.201 54.2943 114.409 54.7756 114.58 55.27C114.757 55.7462 114.901 56.234 115.01 56.73C115.235 57.6604 115.356 58.613 115.37 59.57C115.38 60.4281 115.31 61.2851 115.16 62.13C115.035 62.8396 114.834 63.5337 114.56 64.2C114.366 64.7141 114.132 65.2123 113.86 65.69C113.64 66.09 113.41 66.36 113.28 66.57L113.06 66.79Z" fill="#D5E2E0"/>
<path d="M114.24 73.36C99.5 27.46 14.68 29.6 1.54999 73.58C1.9534 72.9693 2.39075 72.3817 2.85999 71.82C3.96157 69.6268 5.26025 67.5382 6.73999 65.58C34.5 38.33 72.13 40.3 101.5 58.48C104.79 60.56 106.87 62.99 109.5 65.76C110.75 66.9 111.88 69.42 112.95 71.76C113.437 72.3499 113.895 72.964 114.32 73.6C114.275 73.5275 114.247 73.4452 114.24 73.36V73.36Z" fill="#BAD2D2"/>
<path d="M114.29 73.58C114.29 73.58 114.15 73.05 113.83 72.07C113.39 70.6517 112.839 69.2707 112.18 67.94C103.69 50.83 83.36 42.53 64.5 40.24C61.71 40.06 58.31 40.05 54.69 40.13C53.62 40.22 52.52 40.27 51.46 40.4C49.3 40.73 47.12 40.97 45 41.4C33.24 43.45 20.5 48.2 11.66 57.15C11.1 57.71 10.57 58.24 10.08 58.82L8.62999 60.47C6.74926 62.8059 5.11397 65.3292 3.74999 68C3.10317 69.3277 2.58416 70.7139 2.19999 72.14C2.07519 72.513 1.91792 72.8744 1.72999 73.22L1.54999 73.58C1.54999 73.58 1.60999 73.46 1.71999 73.21C1.89526 72.8601 2.03915 72.4953 2.14999 72.12C2.48196 70.6651 2.9611 69.2478 3.57999 67.89C4.88297 65.1671 6.46476 62.5866 8.29999 60.19L9.71999 58.5C10.2136 57.9034 10.7376 57.3326 11.29 56.79C19.65 48.05 32.2 42.64 44.83 40.43C46.96 40.03 49.13 39.78 51.29 39.43C52.41 39.28 53.51 39.22 54.62 39.12C57.39 39.05 60.91 39.02 64.62 39.26C83.04 41.55 104 49.81 112.39 67.83C113.018 69.1874 113.53 70.5958 113.92 72.04C114.17 73.05 114.29 73.58 114.29 73.58V73.58Z" fill="#D5E2E0"/>
<path d="M109.5 65.76C106.91 62.99 104.83 60.56 101.5 58.48C89.24 51 74.89 45.7 60.29 45C60.3996 43.6151 59.6328 42.3091 58.37 41.73L56.98 41.38C54.73 41.16 53.67 43.21 54.05 44.98C36.2528 45.6625 19.3639 53.0164 6.73999 65.58C5.26025 67.5381 3.96157 69.6267 2.85999 71.82C7.02999 66.62 21.66 51.55 52.93 48.7L61.87 48.61C93.71 51.21 108.63 66.42 112.92 71.74C111.85 69.42 110.72 66.9 109.5 65.76V65.76Z" fill="#96BCBB"/>
<path d="M56.81 43.71C57.39 43.04 58.02 43.62 58.75 43.47C59.2264 43.3233 59.6616 43.0664 60.02 42.72C59.29 40.23 53.65 40.59 55.09 44.92C55.76 45.34 56.67 45.1 56.81 43.71Z" fill="#E5E2D6"/>
<path d="M58.75 43.47C58.02 43.62 57.39 43.04 56.81 43.71C56.36 44.1 56.58 45.71 55.09 44.92C56.09 47.65 60.89 45.92 60.02 42.72C59.6616 43.0663 59.2264 43.3233 58.75 43.47Z" fill="#C9C7BC"/>
<path opacity="0.7" d="M57.64 41.63C56.52 41.48 56.18 42.63 57.54 42.89C58.54 43.08 59.67 41.89 58.27 41.78L57.64 41.63Z" fill="white"/>
</svg>
