<svg width="115" height="92" viewBox="0 0 115 92" fill="none" xmlns="http://www.w3.org/2000/svg">
<path d="M101.59 65.7C101.775 71.3248 101.073 76.9436 99.51 82.35C93.24 86.24 84.64 88.04 76.57 89.35C73.67 89.6 69.72 90.14 65.91 90.46C63.65 90.62 60.78 90.77 57.47 90.77C55.27 90.77 52.6 90.71 49.2 90.49C49.09 90.49 48.97 90.49 48.86 90.49C46.07 90.28 41.86 89.72 38.21 89.38C30.72 88.09 22.45 86.76 15.21 82.38C13.6631 76.9608 12.978 71.332 13.18 65.7C13.79 65.33 14.45 64.9 16.13 64.05C42.8838 73.1305 71.8862 73.1305 98.64 64.05C99.6509 64.5492 100.635 65.0999 101.59 65.7V65.7Z" fill="#FFB401"/>
<path d="M85.83 28C85.87 28.48 85.91 28.97 85.95 29.47C81.9343 32.8139 78.2109 36.4939 74.82 40.47C73.55 39.05 72 37.2 70.27 35C69.45 33.69 68.43 32.07 67.17 29.78C72.1983 22.0051 78.8296 15.3943 86.62 10.39C85.5892 16.2004 85.3236 22.1207 85.83 28V28Z" fill="#CA8F05"/>
<path d="M47.6 29.76C46.89 31.06 45.9 32.76 44.5 34.98C43.44 36.39 41.77 38.47 39.96 40.47C36.5584 36.5039 32.8358 32.8248 28.83 29.47C29.4702 23.1086 29.2414 16.6897 28.15 10.39C35.9556 15.3669 42.5909 21.975 47.6 29.76V29.76Z" fill="#CA8F05"/>
<path d="M113 14.89C104.749 29.6309 99.7154 45.9526 98.23 62.78V63.27C85.0193 67.4504 71.2826 69.7365 57.43 70.06C43.5767 69.7443 29.8389 67.458 16.63 63.27C16.63 63.1 16.63 62.94 16.58 62.78C15.0732 45.95 10.0226 29.6293 1.75999 14.89C16.6139 20.3658 29.7503 29.6824 39.83 41.89L40 42C41.44 40.46 42.92 38.81 44.86 36.35C50.7931 27.0511 55.0351 16.7762 57.39 6C59.7673 16.7853 64.0366 27.0642 70 36.36C71.18 37.85 72.82 39.85 74.86 42.01L75 41.84C85.061 29.6548 98.1733 20.3555 113 14.89V14.89Z" fill="#FFB401"/>
<path opacity="0.4" d="M73.43 68.82C68.1218 69.5105 62.7812 69.9244 57.43 70.06C52.1697 69.9341 46.9194 69.5369 41.7 68.87C39.7309 59.9783 39.2209 50.8255 40.19 41.77C41.48 40.36 42.99 38.69 44.82 36.36C50.7682 27.0608 55.0239 16.7823 57.39 6C59.7673 16.7853 64.0366 27.0642 70 36.36C71.13 37.79 72.68 39.68 74.72 41.86C75.82 50 75.77 57.64 73.43 68.82V68.82Z" fill="#FFD673"/>
<path d="M113.79 13.52C104.019 17.1019 94.8986 22.2565 86.79 28.78C86.3131 22.1766 86.5916 15.5403 87.62 9C79.2166 13.932 72.0537 20.722 66.68 28.85C61.9662 19.8312 58.8246 10.0748 57.39 0C55.9375 10.0719 52.7933 19.826 48.09 28.85C42.7172 20.7248 35.5582 13.9352 27.16 9C28.1874 15.5403 28.4692 22.1761 28 28.78C19.6356 22.0124 10.1623 16.7445 0 13.21C8.42584 28.5283 13.6324 45.407 15.3 62.81C15.2945 62.8465 15.2945 62.8835 15.3 62.92V63.3C14.298 63.7779 13.3291 64.3224 12.4 64.93L12.27 65.02C11.892 71.0575 12.5688 77.1148 14.27 82.92C14.74 83.24 15.27 83.55 15.74 83.83C40.74 95.12 76.94 94.02 99.04 83.83C99.54 83.55 100.04 83.24 100.51 82.92C102.214 77.1154 102.891 71.0576 102.51 65.02L102.37 64.93C101.44 64.3295 100.475 63.7852 99.48 63.3V62.92C101.11 45.4747 106.318 28.5526 114.78 13.21L113.79 13.52ZM67.92 28.58C72.8702 21.3238 79.2297 15.1377 86.62 10.39C85.5377 16.6913 85.3291 23.1117 86 29.47C81.9843 32.8139 78.2609 36.4939 74.87 40.47C73.55 39.05 72 37.2 70.27 35C69.45 33.69 68.43 32.07 67.17 29.78C67.42 29.36 67.66 29 67.92 28.58V28.58ZM28.15 10.39C35.951 15.3726 42.5853 21.9796 47.6 29.76C46.89 31.06 45.9 32.76 44.5 34.98C43.44 36.39 41.77 38.47 39.96 40.47C36.5584 36.5039 32.8358 32.8248 28.83 29.47C29.4645 23.1084 29.2357 16.6903 28.15 10.39V10.39ZM101.59 65.7C101.771 71.3246 101.069 76.9427 99.51 82.35C93.3 86.22 84.42 88.08 76.57 89.35C73.79 89.58 69.48 90.16 65.91 90.46C63.65 90.62 60.78 90.77 57.47 90.77C55.27 90.77 52.6 90.71 49.2 90.49C49.09 90.49 48.97 90.49 48.86 90.49C46.07 90.28 41.86 89.72 38.21 89.38C30.61 88.11 22.27 86.64 15.21 82.38C13.6618 76.9611 12.9767 71.3321 13.18 65.7C13.79 65.33 14.45 64.9 16.13 64.05C42.8838 73.1305 71.8862 73.1305 98.64 64.05C99.6509 64.5492 100.635 65.1 101.59 65.7V65.7ZM110 20.7C103.478 33.8665 99.4855 48.1404 98.23 62.78V63.27C85.0187 67.4479 71.2823 69.7339 57.43 70.06C43.5769 69.7423 29.8393 67.4561 16.63 63.27C16.63 63.1 16.63 62.94 16.58 62.78C15.0732 45.95 10.0226 29.6293 1.76 14.89C16.6153 20.3633 29.7523 29.6803 39.83 41.89L40 42C41.33 40.58 43 38.74 44.86 36.35C50.7931 27.0511 55.0351 16.7762 57.39 6C59.7673 16.7853 64.0366 27.0642 70 36.36C71.21 37.88 72.72 39.73 74.86 42.01L75 41.84C85.0659 29.6601 98.1766 20.3618 113 14.89C112.18 16.42 111.19 18.3 110 20.72V20.7Z" fill="#B06305"/>
<path d="M97.06 22.61C88.19 29.27 78 38.68 74.82 44.09C65.94 36.62 59.17 21.09 57.19 11.37C56.49 18.28 48.87 34.08 39.84 44.8C35.4 37 14.55 19.81 2.33 15.11C16.9486 20.5945 29.8771 29.8099 39.83 41.84L40 42C41.33 40.58 43 38.74 44.86 36.35C50.7931 27.0511 55.0351 16.7762 57.39 6C59.7673 16.7853 64.0366 27.0642 70 36.36C71.21 37.88 72.72 39.73 74.86 42.01L75 41.84C81.2824 34.2962 88.7296 27.8044 97.06 22.61V22.61Z" fill="#FFD673"/>
<path opacity="0.3" d="M26.66 66.06C23.73 65.37 20.29 64.37 16.59 63.27C16.59 63.1 16.59 62.94 16.54 62.78C15.0455 45.953 10.0086 29.6325 1.75999 14.89C3.03999 15.37 4.17999 15.78 6.44999 16.71C19.11 31.81 25 51.84 26.66 66.06Z" fill="#CA8F05"/>
<path opacity="0.3" d="M113 14.89C104.749 29.6309 99.7154 45.9526 98.23 62.78V63.27C94.56 64.35 90.33 65.61 85.71 66.64C87.2 52.93 92.71 33.55 104.55 18.47C107.296 17.1154 110.117 15.9201 113 14.89V14.89Z" fill="#CA8F05"/>
<path opacity="0.3" d="M25.77 66.92C21.28 71.92 20.49 80.7 24.77 86.42C21.4264 85.5163 18.2254 84.1497 15.26 82.36C13.697 76.9502 12.995 71.3281 13.18 65.7C13.79 65.33 14.45 64.9 16.13 64.05C19.2676 65.2447 22.4899 66.204 25.77 66.92Z" fill="#CA8F05"/>
<path opacity="0.3" d="M101.59 65.7C101.771 71.3246 101.069 76.9427 99.51 82.35C95.9011 84.4785 91.9898 86.0464 87.91 87C91 81.15 90.35 71.39 86.61 67.44C90.6926 66.6175 94.7048 65.4773 98.61 64.03C99.6315 64.5349 100.626 65.0923 101.59 65.7V65.7Z" fill="#CA8F05"/>
<path opacity="0.4" d="M101.59 65.7V65.82C74.07 77.37 36.93 75.82 13.19 66.12C13.19 65.98 13.19 65.84 13.19 65.7C13.8 65.33 14.46 64.9 16.14 64.05C42.8947 73.1252 71.8953 73.1252 98.65 64.05C99.6575 64.5495 100.639 65.1002 101.59 65.7Z" fill="#FFD673"/>
<path opacity="0.4" d="M47.6 29.76C46.89 31.06 45.9 32.76 44.5 34.98C43.44 36.39 41.77 38.47 39.96 40.47C36.5584 36.5038 32.8358 32.8247 28.83 29.47C28.83 28.86 28.83 29.58 29.02 26.97L39.84 35.63C42.1823 33.1782 44.3414 30.5579 46.3 27.79C46.56 28.19 46.55 28.07 47.6 29.76V29.76Z" fill="#CA8F05"/>
<path opacity="0.4" d="M86 29.47C81.9843 32.8139 78.2609 36.4939 74.87 40.47C73.55 39.05 72 37.2 70.27 35C69.45 33.69 68.43 32.07 67.17 29.78C67.35 29.49 68.11 28.27 69.17 26.87C71.35 30.74 74.85 35.65 74.85 35.65C74.85 35.65 80.98 28.65 85.7 25.54C85.74 26.77 85.7 26.44 86 29.47V29.47Z" fill="#CA8F05"/>
<path opacity="0.4" d="M76 89.38C73.37 89.62 69.29 90.16 65.92 90.44C63.66 90.6 60.79 90.75 57.48 90.75C55.28 90.75 52.61 90.69 49.21 90.47C49.1 90.47 48.98 90.47 48.87 90.47C46.08 90.26 41.87 89.7 38.22 89.36L37.77 89.29C34.61 80.65 35.12 73.42 40.55 69.75C51.7247 71.3254 63.0652 71.3254 74.24 69.75L76.81 72.61C76.81 72.61 78.5 84.72 76 89.38Z" fill="#FFD673"/>
</svg>
