<svg width="85" height="67" viewBox="0 0 85 67" fill="none" xmlns="http://www.w3.org/2000/svg">
<path d="M24.57 3.92C24.7 -1.19 32.35 -1.42 32.67 3.92C32.54 9 24.89 9.25 24.57 3.92Z" fill="#E31F37"/>
<path d="M51 3.92C51.12 -1.19 58.78 -1.42 59.1 3.92C59 9 51.34 9.25 51 3.92Z" fill="#E31F37"/>
<path d="M78.29 22C78.29 18.67 83.84 17.82 84.24 22C84.27 25.33 78.69 26.19 78.29 22Z" fill="#E31F37"/>
<path d="M0 21C0 17.67 5.55 16.81 5.94 21C6 24.28 0.39 25.14 0 21Z" fill="#E31F37"/>
<path d="M13.5 66.55H68.98L80.32 23.76L63.98 36.18L54.81 7.56001L42.12 31.86L28.75 7.56001L17.82 33.75L4.59003 23.22L13.5 66.55Z" fill="#FEAF1F"/>
<path d="M42.55 45.85C39.73 39.64 31.19 38.03 34.23 46.44C36.32 50.24 41.73 52.84 43.44 56.06C59.9 42.88 53.62 35.48 42.55 45.85Z" fill="#E31F37"/>
</svg>
