<svg width="77" height="68" viewBox="0 0 77 68" fill="none" xmlns="http://www.w3.org/2000/svg">
<g clip-path="url(#clip0_1_113)">
<path d="M55.5 19C57.9853 19 60 16.9853 60 14.5C60 12.0147 57.9853 10 55.5 10C53.0147 10 51 12.0147 51 14.5C51 16.9853 53.0147 19 55.5 19Z" fill="#FFA424"/>
<path d="M22.5 19C24.9853 19 27 16.9853 27 14.5C27 12.0147 24.9853 10 22.5 10C20.0147 10 18 12.0147 18 14.5C18 16.9853 20.0147 19 22.5 19Z" fill="#FFA424"/>
<path d="M55.1245 15L43.551 38.913H33.449L21.8647 15L12 54.4783C12 54.4783 12.9326 61 38.5 61C64.0674 61 65 54.4783 65 54.4783L55.1245 15Z" fill="#FFA424"/>
<path d="M70.416 19.4071L52.5889 44.6384L38.5217 5L24.4709 44.6384L6.62205 19.4071L0.0204239 59.9858C-0.0926113 60.6909 0.271433 61.3865 0.91694 61.6989C4.31827 63.3201 15.9567 68 38.5 68C61.0433 68 72.6817 63.3471 76.0831 61.6989C76.7286 61.3865 77.0926 60.6909 76.9796 59.9858L70.416 19.4071Z" fill="#FFCB24"/>
<path d="M3.27332 61.0573C14.844 64.9776 26.9304 66.9827 39.0942 67C51.0799 67 63.0656 64.6377 74.5501 61.3419C74.8819 61.2258 75.069 60.859 74.9763 60.5064C74.8836 60.1539 74.5435 59.9385 74.2015 60.0156C62.8096 63.3285 50.9492 65.7079 39.0942 65.7079C27.0387 65.6882 15.0504 63.832 3.50759 60.1978C2.99547 60.0384 2.783 60.8638 3.28966 61.0346L3.27332 61.0573Z" fill="#F9C212"/>
<path d="M44.866 44C42.8066 44 40.7257 45.2187 39.0005 46.9977C37.27 45.2187 35.189 44 33.1296 44C28.186 44 25.1347 49.8974 28.2777 55.9689C30.5204 60.3212 38.1541 65 38.8657 65H39.1353C39.8469 65 47.4753 60.3212 49.7234 55.9689C52.8664 49.9028 49.8096 44 44.866 44Z" fill="#FF67DD" stroke="#FFE033" stroke-width="3.5"/>
<path d="M74.2347 22.9706C76.1867 21.0186 76.1867 17.8538 74.2347 15.9018C72.2827 13.9498 69.1179 13.9498 67.166 15.9018C65.214 17.8538 65.214 21.0186 67.166 22.9706C69.1179 24.9226 72.2828 24.9226 74.2347 22.9706Z" fill="#FFCB24"/>
<path d="M12.0197 20.5891C12.6525 17.9082 10.9827 15.2197 8.29023 14.5842C5.59773 13.9488 2.90208 15.6069 2.26933 18.2878C1.63657 20.9687 3.30633 23.6572 5.99883 24.2927C8.69133 24.9282 11.387 23.27 12.0197 20.5891Z" fill="#FFCB24"/>
<path d="M43.8715 5.86583C44.3128 3.1472 42.4565 0.583933 39.7254 0.140615C36.9943 -0.302704 34.4226 1.5418 33.9813 4.26044C33.54 6.97907 35.3963 9.54233 38.1274 9.98565C40.8584 10.429 43.4302 8.58447 43.8715 5.86583Z" fill="#FFCB24"/>
<path d="M69 46.5C69 48.433 67.433 50 65.5 50C63.567 50 62 48.433 62 46.5C62 44.567 63.567 43 65.5 43C67.433 43 69 44.567 69 46.5Z" fill="#D75AFF" stroke="#FFE033" stroke-width="2"/>
<path d="M16 46.5C16 48.433 14.433 50 12.5 50C10.567 50 9 48.433 9 46.5C9 44.567 10.567 43 12.5 43C14.433 43 16 44.567 16 46.5Z" fill="#D75AFF" stroke="#FFE033" stroke-width="2"/>
<path d="M32.9202 48.1137C30.9382 47.4281 28.9334 50.0004 29.0017 51.6268C29.023 52.318 29.5769 52.8934 30.3111 52.9869C31.0453 53.0804 31.7443 52.6647 31.9634 52.0041C32.1855 51.2919 32.214 50.5851 32.4988 49.8782C32.7338 49.3435 32.902 48.7853 33 48.2147C33.0012 48.1691 32.9678 48.1291 32.9202 48.119V48.1137Z" fill="white"/>
<path d="M45.2364 48.9728C45.3535 49.0249 45.4121 49.1581 45.4999 49.3261C45.4999 49.3261 45.576 49.494 45.535 49.3898C45.494 49.2855 45.535 49.4361 45.535 49.4593C45.535 49.4825 45.535 49.6099 45.535 49.5056C45.5102 49.4188 45.5252 49.3256 45.576 49.2508C45.658 49.0481 45.6638 49.0017 45.576 49.1176C45.3347 49.5413 45.3609 50.0646 45.6433 50.4627C45.9258 50.8608 46.4143 51.063 46.8991 50.9826C47.3445 50.929 47.7255 50.6408 47.8944 50.2296C48.1022 49.7622 47.9975 49.2165 47.631 48.8569C47.5366 48.7734 47.4369 48.696 47.3324 48.6252C47.4788 48.7527 47.508 48.7642 47.4261 48.6716C47.3774 48.6119 47.3225 48.5575 47.2621 48.5094C47.0716 48.3443 46.8563 48.2095 46.624 48.1098C46.2132 47.9718 45.7692 47.9637 45.3535 48.0866C45.1658 48.1446 45.0293 48.3054 45.0042 48.4983C44.979 48.6913 45.0697 48.8811 45.2364 48.9843V48.9728Z" fill="white"/>
<path d="M66.1639 46.3157C66.1403 46.4347 66.1276 46.5553 66.1257 46.6762C66.1257 46.5972 66.1748 46.3849 66.0382 46.849C65.931 47.1896 66.0537 47.5554 66.3523 47.7848C66.6508 48.0142 67.0701 48.0648 67.4249 47.9144C67.7796 47.7639 68.0044 47.4401 67.9999 47.086C67.9931 46.8335 67.8726 46.5944 67.6664 46.4239C67.4602 46.2534 67.186 46.1662 66.9071 46.1824L67.3224 46.2861C67.1459 46.1865 66.9635 46.0959 66.7759 46.0145C66.5214 45.9541 66.2599 46.0876 66.1858 46.3157H66.1639Z" fill="white"/>
<path d="M12.0866 45.7364L12.1304 45.7827L12.0386 45.6162C12.0956 45.7536 12.1643 45.8851 12.244 46.0092L12.1522 45.704C12.1784 45.5607 12.1522 45.6023 12.1522 45.8335C12.1557 45.9245 12.1704 46.0147 12.1959 46.1017V45.6671C11.9995 46.0897 12.1346 46.601 12.5098 46.8545C12.885 47.108 13.3804 47.0228 13.6604 46.6566C14.0166 46.3653 14.1054 45.8356 13.8657 45.4325C13.626 45.0294 13.136 44.8848 12.7336 45.0983H13.1445C12.9623 45.0382 12.7672 45.0382 12.585 45.0983H12.8866C12.6655 45.0629 12.4396 45.0819 12.2265 45.1538C12.1206 45.189 12.0391 45.2792 12.0108 45.3927C11.9824 45.5063 12.011 45.6273 12.0866 45.7133V45.7364Z" fill="white"/>
<path d="M37.9607 60.4324C37.459 59.5661 36.8499 58.7706 36.1487 58.0657C35.4416 57.2643 34.7859 56.4165 34.1857 55.5277C33.3578 54.2587 31.3375 55.5277 32.2175 56.7164C33.5296 58.4941 35.3417 60.7323 37.6587 61C37.9451 61 38.0701 60.6734 37.9607 60.4646V60.4324Z" fill="white"/>
<path d="M6.51397 17.1622C7.18685 17.1312 7.81251 17.8954 8.06632 18.355C8.43817 19.0367 8.5031 19.8009 8.84544 20.4929C9.32354 21.4637 10.9762 20.9008 10.9998 19.9765C11.0108 18.7665 10.4764 17.6014 9.51242 16.7336C9.09226 16.384 8.57241 16.1396 8.00729 16.0261C7.45036 15.9554 6.88196 16.029 6.37231 16.2378C5.83519 16.4082 5.87651 17.1828 6.51397 17.157V17.1622Z" fill="white"/>
<path d="M38.0412 2.68942C38.3173 3.2827 38.9634 3.6482 39.3281 4.18321C39.6775 4.80573 39.8807 5.50183 39.9221 6.2173C40.0836 7.24495 41.8186 7.27673 41.9697 6.2173C42.1212 5.02381 41.6985 3.82916 40.8339 3.00725C40.2191 2.39278 39.0051 1.60881 38.161 2.22327C38.0076 2.32307 37.9554 2.52605 38.0412 2.68942V2.68942Z" fill="white"/>
<path d="M71.0372 16.5204C71.4174 17.1113 71.6785 17.7802 71.8037 18.4847C71.8939 19.3197 71.4931 19.8495 71.3929 20.6256C71.2777 21.5302 72.0442 22.3437 72.8958 21.8513C75.0298 20.5989 73.8326 15.7979 71.3328 16.0066C71.2132 16.0058 71.1026 16.0739 71.0434 16.1849C70.9842 16.2959 70.9857 16.4324 71.0472 16.5418L71.0372 16.5204Z" fill="white"/>
<path d="M35.7997 21.0292C34.9921 21.7873 34.5752 23.0183 34.0867 23.9522C33.5983 24.8862 35.3243 25.4683 35.5001 24.5041C35.6955 23.4307 36.1514 22.1451 35.9495 21.0595C35.9495 20.9989 35.8388 20.9807 35.7997 21.0231V21.0292Z" fill="white"/>
<path d="M34.2494 26.2112C32.8395 28.6973 31.9142 31.567 31.033 34.2738C30.7907 35.0254 31.9528 35.2934 32.2392 34.5944C33.3021 31.9664 34.4422 29.2334 34.9929 26.4793C35.07 26.0851 34.4972 25.7907 34.2769 26.1902L34.2494 26.2112Z" fill="white"/>
<path d="M62.8729 33.0212C59.384 36.2755 56.7633 40.8627 54.1268 44.8667C53.5973 45.6998 54.8627 46.4661 55.4133 45.6553C58.0922 41.7179 61.2688 37.6194 63 33.0933C63 33.0156 62.9206 32.9712 62.8729 33.0212V33.0212Z" fill="white"/>
<path d="M73.0029 53.2887C73.0029 55.2915 72.9716 57.2996 73.1154 59.3023C73.1601 59.587 73.3802 59.8298 73.6928 59.9393C74.0054 60.0488 74.363 60.0083 74.6309 59.8331C74.8989 59.6578 75.0364 59.3745 74.9917 59.0898C74.6727 57.1136 74.1724 55.1587 73.7096 53.209C73.6283 52.8797 73.0279 52.9647 73.0279 53.2887H73.0029Z" fill="white"/>
<path d="M73.2723 50.095C73.2009 50.3609 73.1454 50.6384 73.0858 50.9159L73.189 50.6557C73.1423 50.7343 73.1011 50.8195 73.066 50.9101C72.938 51.2362 73.0012 51.6506 73.212 51.867C73.4228 52.0834 73.712 52.0307 73.8798 51.7454C74.0475 51.4601 74.0388 51.0357 73.8596 50.7656C73.8046 50.69 73.7448 50.6223 73.681 50.5632L73.8239 50.7771C73.6969 50.5228 73.566 50.2742 73.4271 50.0372C73.4041 50.005 73.3713 49.9926 73.3405 50.0044C73.3097 50.0162 73.2854 50.0505 73.2763 50.095H73.2723Z" fill="white"/>
<path d="M4.78297 52.0689C3.58955 54.0367 3.33543 56.7519 3.01779 59.0585C2.96049 59.3415 3.04405 59.6386 3.23323 59.8244C3.42242 60.0101 3.6843 60.0522 3.90842 59.9329C4.13255 59.8136 4.27991 59.5537 4.28835 59.2628C4.55154 56.9454 5.1959 54.4238 4.94179 52.0958C4.93945 52.0516 4.91338 52.0142 4.87721 52.0032C4.84104 51.9922 4.80299 52.01 4.78297 52.0474V52.0689Z" fill="white"/>
</g>
<defs>
<clipPath id="clip0_1_113">
<rect width="77" height="68" fill="white"/>
</clipPath>
</defs>
</svg>
