<svg width="95" height="59" viewBox="0 0 95 59" fill="none" xmlns="http://www.w3.org/2000/svg">
<path d="M84.07 4.71L81.63 16.71L66.76 13.93L69.2 1.93L56.22 0L54.5 12.8H40.7L38.9 0L25.9 1.88L28.35 13.93L13.5 16.75L11.05 4.75L0.5 7L10.5 50.07H84.64L94.62 7L84.07 4.71Z" fill="#FFCC01"/>
<path d="M9.66 48.6H85.43V50.27H9.66V48.6Z" fill="#FFCC01"/>
<path d="M9.66 57.1H85.43V58.77H9.66V57.1Z" fill="#FFCC01"/>
<path d="M10.62 50.26H84.51V57.12H10.62V50.26Z" fill="#FFCC01"/>
<path d="M10.62 50.26H84.51V51.43H10.62V50.26Z" fill="#F1A919"/>
<path d="M10.62 55.93H84.51V57.1H10.62V55.93Z" fill="#F1A919"/>
<path d="M11.04 4.71L2.88 8.09L13.45 48.59H10.13L0.5 6.96L11.04 4.71Z" fill="#F1A919"/>
<path d="M30.74 16.23L28.27 3.32L38.9 0L25.91 1.88L28.36 13.93L13.49 16.75L16.13 18.92L30.74 16.23Z" fill="#F1A919"/>
<path d="M69.2 1.88L57.71 1.6L56.06 15.39L42.08 14.96L40.7 12.8H54.53L56.22 0L69.2 1.88Z" fill="#F1A919"/>
<path d="M84.08 4.71L85.52 8.05L82.98 20.19L68.51 16.94L66.76 13.93L81.63 16.75L84.08 4.71Z" fill="#F1A919"/>
<path d="M13.5 19.72C12.89 19.37 10.08 6.56 10.6 6.08C11.38 6.36 14.02 19.39 13.5 19.72Z" fill="white"/>
<path d="M39.99 15.72C39.52 15.72 36.9 -0.280003 38.41 1.58C38.11 1.91 41.04 15.59 39.99 15.72Z" fill="white"/>
<path d="M64.98 16.78H64.91C64.32 16.58 67.38 0.59 68.12 2.83C67.82 3 65.75 16.75 64.98 16.78Z" fill="white"/>
<path d="M86.01 36.61C84.79 36.41 92.92 8.49 92.6 8C92.23 7.67 86.19 7.24 86.25 6.38C85.97 5.68 93.25 7.57 93.4 7.49C93.09 7.7 86.76 36.63 86.01 36.61V36.61Z" fill="white"/>
<path d="M74.88 48.42H48.63C46.96 47.2 55.5 48 62.14 47.76C68.97 48.1 76.4 47 74.88 48.42Z" fill="white"/>
<path d="M83.26 48.42C83.14 48.15 77.79 49.11 79.26 47.76C79.42 48 84.78 47.08 83.26 48.42Z" fill="white"/>
</svg>
