<svg width="114" height="71" viewBox="0 0 114 71" fill="none" xmlns="http://www.w3.org/2000/svg">
<g clip-path="url(#clip0_1_2545)">
<path d="M84.69 12.45C80.4866 24.2636 77.6906 36.5317 76.36 49C74.0495 48.977 71.8618 47.956 70.36 46.2C75.36 35.93 80.36 23.75 83.07 12.09C83.5809 12.3161 84.1315 12.4384 84.69 12.45V12.45Z" fill="#CA8F05"/>
<path d="M44 46.17C42.4841 47.9113 40.3079 48.9378 38 49C36.6601 36.5439 33.8678 24.2873 29.68 12.48C30.235 12.4651 30.7804 12.3321 31.28 12.09C34 23.75 38.59 35 44 46.17V46.17Z" fill="#CA8F05"/>
<path d="M84.67 6.09003C81.42 6.09003 80.26 11.9 84.84 12.02C84.9531 12.0304 85.0669 12.0304 85.18 12.02C88.08 11.59 88.6 6.41003 84.67 6.09003Z" fill="#CA8F05"/>
<path d="M31.15 11.63C37.49 3.34999 20.31 6.15999 29.15 11.98C29.2631 11.9896 29.3769 11.9896 29.49 11.98C30.0647 12.0138 30.6379 11.8929 31.15 11.63Z" fill="#CA8F05"/>
<path d="M110 14C105.84 14.07 104.62 20.86 110 21.33C114.48 21.19 114.85 14.36 110 14V14Z" fill="#FFB401"/>
<path d="M53.9 6.29003C54.4563 7.04055 55.2375 7.59405 56.13 7.87003C70.11 6.08003 50.94 -7.61997 53.9 6.29003Z" fill="#FFB401"/>
<path d="M7.39 19.72C10 16.33 4.13 11.29 1.21 15.8C-1.26 19.42 4.59 23.63 7.39 19.72Z" fill="#FFB401"/>
<path d="M84 64.27C77 69 66.19 70.08 57.17 70.48C50.93 70.4 22.66 68 29.91 57.83C34.1633 59.9406 38.6373 61.5739 43.25 62.7C44.1325 62.9541 45.0312 63.1479 45.94 63.28C46.55 63.4 47.16 63.51 47.78 63.61C53.9864 64.7315 60.3436 64.7315 66.55 63.61C67.17 63.51 67.78 63.4 68.39 63.28C69.296 63.1328 70.1938 62.9392 71.08 62.7C75.6956 61.5833 80.1705 59.9496 84.42 57.83C85.93 59 86.38 62.33 84 64.27Z" fill="#FFB401"/>
<path d="M108.61 21.61C100.77 33.2 92.72 45.21 84.42 57.18H84.33L83.87 57.41C75.55 61.4787 66.4309 63.6509 57.17 63.77C47.9064 63.6474 38.7848 61.4755 30.46 57.41L30 57.23H29.91C22 45.79 13.81 33.58 5.72 21.61C6.50633 21.3381 7.19969 20.8493 7.72 20.2C36.84 64.76 51.25 55.49 56.14 8.46002H56.32C56.935 8.60407 57.575 8.60407 58.19 8.46002C63.68 62.11 80.91 59.1 106.65 20.2C107.161 20.8417 107.839 21.3296 108.61 21.61Z" fill="#FFB401"/>
<path d="M110 13.46C108.521 13.4993 107.17 14.3046 106.431 15.586C105.692 16.8675 105.673 18.4408 106.38 19.74C98.63 30.09 90.31 44.42 77 48.93C78.5562 36.5463 81.2339 24.3294 85 12.43C95.54 6.51001 76.17 1.83001 82.67 11.82C79.4643 23.4499 75.1651 34.7503 69.83 45.57C62.38 35.05 59.08 21.57 58.83 8.27001C70.54 -2.86999 43.65 -2.63999 55.57 8.27001C55.35 20.76 52.19 34.83 44.57 45.57C39.205 34.752 34.8724 23.4519 31.63 11.82C37.92 1.68001 18.83 6.70001 29.29 12.43C33.0698 24.3293 35.7674 36.5455 37.35 48.93C24.19 44.48 16.23 30.83 8.00001 19.74C10.1 5.65001 -8.73999 19.5 5.15001 21.74C12.81 33.13 21.15 45.31 29.08 57.37C29.1476 57.4805 29.221 57.5874 29.3 57.69C21.57 68.68 51.92 71 57.17 71C65 71.08 92.55 67.8 85 57.71L85.21 57.39C92.93 45.73 101 33.85 109.18 21.76C114.73 22.69 116.09 13.86 110 13.46V13.46ZM81.7 9.06001C83 2.23001 91.82 9.15001 85.18 12C85.0669 12.0104 84.9531 12.0104 84.84 12C84.0307 12.038 83.2405 11.747 82.649 11.1932C82.0576 10.6395 81.7153 9.87006 81.7 9.06001ZM73 40.47C77.2677 31.347 80.6434 21.8327 83.08 12.06C83.5856 12.2951 84.1328 12.4277 84.69 12.45C80.4794 24.2615 77.6832 36.5304 76.36 49C74.0495 48.977 71.8618 47.956 70.36 46.2C71.32 44.3 72.17 42.35 73 40.47ZM53.9 6.29001C51 -7.53999 70.32 6.08001 56.13 7.87001C55.2296 7.61024 54.4436 7.05336 53.9 6.29001ZM29.49 12C29.3769 12.0097 29.2631 12.0097 29.15 12C25.83 11.54 26 5.17001 30.6 6.24001C31.9011 6.79337 32.6392 8.18006 32.3717 9.56838C32.1041 10.9567 30.9036 11.9698 29.49 12ZM29.65 12.43C30.205 12.4151 30.7504 12.2821 31.25 12.04C34 23.69 38.67 35.16 44 46.17C42.4841 47.9113 40.3079 48.9378 38 49C36.6705 36.5296 33.8676 24.2606 29.65 12.45V12.43ZM4.84001 21.28C0.110007 21.77 -0.849993 14.39 4.37001 13.98C8.19001 14 9.83001 20.33 4.84001 21.28ZM85.45 59.28C88 68.6 63.26 70.32 57.17 70.48C50.79 70.48 22.38 67.73 29.91 57.83C34.1637 59.9397 38.6375 61.5729 43.25 62.7C44.1325 62.9541 45.0312 63.1479 45.94 63.28C46.55 63.4 47.16 63.51 47.78 63.61C53.9864 64.7315 60.3436 64.7315 66.55 63.61C67.17 63.51 67.78 63.4 68.39 63.28C69.296 63.1328 70.1938 62.9392 71.08 62.7C75.6945 61.5796 80.169 59.9461 84.42 57.83C85 58.38 84.69 58 85.45 59.26V59.28ZM104.45 27.72C97.88 37.42 91.34 47.14 84.37 57.2H84.28L83.82 57.43C75.5 61.4987 66.3809 63.6709 57.12 63.79C47.8564 63.6674 38.7348 61.4954 30.41 57.43L30 57.23H29.91C22 45.79 13.81 33.58 5.72001 21.61C6.51437 21.354 7.21197 20.8622 7.72001 20.2C36.84 64.76 51.25 55.49 56.14 8.46001H56.32C56.935 8.60406 57.575 8.60406 58.19 8.46001C63.68 62.11 80.91 59.1 106.65 20.2C107.158 20.8622 107.856 21.354 108.65 21.61C107.21 23.62 105.87 25.68 104.5 27.7L104.45 27.72ZM110 21.31C105.76 21.56 104.94 14.31 110 13.98C114.48 14.11 114.85 20.93 110 21.31Z" fill="#B06305"/>
<path opacity="0.4" d="M41.31 40.47C42.17 42.35 43.01 44.3 43.97 46.17C42.4611 47.9038 40.2973 48.9295 38 49C37.59 45.39 37.07 41.77 36.44 38.17C37.6676 38.3017 38.9011 37.9817 39.91 37.27C40.35 38.32 40.83 39.4 41.31 40.47V40.47Z" fill="#CA8F05"/>
<path opacity="0.4" d="M77.85 38.56C77.25 42 76.76 45.5 76.36 49C74.0495 48.9769 71.8618 47.956 70.36 46.2C71.75 43.39 73 40.54 74.58 37C75.5283 37.776 76.6502 38.3112 77.85 38.56Z" fill="#CA8F05"/>
<path opacity="0.3" d="M108.61 21.61C100.77 33.2 92.72 45.21 84.42 57.18H84.33L83.87 57.41C75.55 61.4787 66.4309 63.6509 57.17 63.77C47.9064 63.6474 38.7848 61.4754 30.46 57.41L30 57.23H29.91C22 45.79 13.81 33.58 5.72 21.61C5.96271 21.5293 6.19712 21.4255 6.42 21.3C11 28.14 27.22 52.24 30.51 55.08C34.35 58.39 48.13 61.7 56.67 61.7C65.21 61.7 80.57 57.17 83.88 55.25C86.71 53.61 103.18 28.72 108.02 21.35C108.209 21.4528 108.407 21.5397 108.61 21.61V21.61Z" fill="#CA8F05"/>
<path opacity="0.3" d="M33.11 59.31C31.5961 61.1588 31.4195 63.7637 32.67 65.8C30.4 64.93 26.53 60.8 29.91 57.8C30.89 58.31 31.24 58.49 33.11 59.31V59.31Z" fill="#CA8F05"/>
<path opacity="0.3" d="M84 64.27C83.0983 65.0335 82.087 65.6572 81 66.12C81.9322 64.0002 81.7833 61.5606 80.6 59.57C81.43 59.21 82.8 58.64 84.42 57.83C85.93 59 86.38 62.33 84 64.27V64.27Z" fill="#CA8F05"/>
<path opacity="0.4" d="M97.48 35.9C96.31 37.54 83.32 55.18 81.48 54.03C49.82 63.72 31.66 59.86 19.48 37.29C44.37 69.5 51.7 41.06 57 20.54C66.06 58.24 74.78 60.32 97.48 35.9V35.9Z" fill="#FFD673"/>
<path d="M2.00001 19C1.07001 18.76 1.65001 15.16 3.16001 14.81C4.67001 14.46 2.00001 19 2.00001 19Z" fill="#FFD673"/>
<path d="M54.06 5.54C53 4.28 54.75 0.880005 56.38 0.880005C58.01 0.880005 54.75 6.35 54.06 5.54Z" fill="#FFD673"/>
<path d="M107.67 19C107.1 18 106.74 14.58 110.34 14.58C111.74 14.61 108 19.61 107.67 19Z" fill="#FFD673"/>
<path opacity="0.4" d="M59.83 58.72C31.14 59.62 28.83 50.4 19.53 37.29C44.36 69.48 51.68 41.1 57 20.58C56.85 21.71 53.64 44.68 59.83 58.72Z" fill="#FFD673"/>
</g>
<defs>
<clipPath id="clip0_1_2545">
<rect width="114" height="71" fill="white"/>
</clipPath>
</defs>
</svg>
