<svg width="115" height="105" viewBox="0 0 115 105" fill="none" xmlns="http://www.w3.org/2000/svg">
<path d="M99.08 50.93C84.73 38 74.41 45.05 55.95 45.17C39.47 43.92 27.95 39.39 15.66 50.93C22.64 71.84 92.08 66.43 99.08 50.93Z" fill="#FF0808"/>
<path d="M14.11 68.9C16.57 74.82 18.11 80.72 21.44 86.31C26.78 88.43 40.82 90 57.22 90H57.5C73.89 90 87.93 88.46 93.27 86.34C96.34 81.43 98.03 75.16 100.6 68.93C80.34 79.09 34.29 79 14.11 68.9V68.9Z" fill="#D30505"/>
<path d="M57.37 61.78C40.91 61.78 26.09 57.6 15.66 50.93C11.03 56.11 11.95 62.56 14.11 68.93C32.11 81 82.19 81.06 100.62 68.93C102.78 62.59 103.7 56.14 99.08 50.93C88.64 57.6 73.83 61.78 57.37 61.78V61.78Z" fill="#EF0000"/>
<path d="M110.71 49.28C106.41 43.54 99.08 41.68 92.08 42.06C93.3664 44.0755 94.3754 46.2551 95.08 48.54C118.17 56.05 100.62 79.98 82.97 83.27C80.6611 86.1439 78.155 88.8538 75.47 91.38L73.87 91.58L75.47 92.85C81.81 92.73 89.24 91.78 92.24 87.7C92.2 87.7 124.8 68.08 110.71 49.28Z" fill="#FDC33C"/>
<path d="M4.02999 49.28C8.33999 43.54 15.67 41.68 22.67 42.06C21.3875 44.0776 20.3787 46.2567 19.67 48.54C-3.39001 56.05 14.16 80 31.81 83.27C34.1238 86.1428 36.6331 88.8526 39.32 91.38L40.92 91.58L39.32 92.85C32.98 92.73 25.55 91.78 22.55 87.7C22.55 87.7 -10.06 68.08 4.02999 49.28V49.28Z" fill="#FDC33C"/>
<path d="M91.71 40.82C77.42 22.82 59.1 44.45 59.65 15.45H56.65C56.8 41.25 42.65 28.22 29.85 34.84C0.0399885 54 37.5 91.77 39.06 92.58C51.2214 94.1202 63.5286 94.1202 75.69 92.58C75.77 92.51 107.76 63.15 91.71 40.82V40.82ZM46.09 81.63C38.09 80.93 28.41 73.3299 26.63 61.3899C21.92 45.0999 42.09 30.9999 50.19 45.2099C54.34 54.6499 52.02 61.37 52.69 72.58C53.39 77.1 51.23 81.9 46.09 81.63ZM83.32 73.41C70.5 85.69 59.58 85.15 62.1 66C62.34 56.63 60.88 47.25 67.9 41.11C83.28 33.67 96.04 53.93 83.32 73.41Z" fill="#FDC33C"/>
<path d="M66.96 5.99998L59.88 10.78C59.7292 10.5226 59.5245 10.3009 59.28 10.13C62.91 4.21998 69.28 -0.81002 57.01 0.12998C46.76 -1.00002 55.27 6.60998 57.01 10.13C56.7655 10.3009 56.5608 10.5226 56.41 10.78C50.5 7.09998 45.44 0.67998 46.43 13C45.28 23.3 53.02 14.63 56.5 12.9C56.6688 13.1275 56.8791 13.3209 57.12 13.47C53.5 19.39 46.91 24.56 59.29 23.56C69.62 24.71 60.91 16.95 59.19 13.47C59.4298 13.3232 59.6373 13.1293 59.8 12.9C64.05 15.4 70.8 22.64 69.87 12.98C69.73 7.99998 70.84 5.15998 66.96 5.99998V5.99998Z" fill="#FDC33C"/>
<path d="M91.71 40.82C80.6 25.06 63.44 40.45 60.21 23.56C69.21 24.56 60.4 16.11 59.21 13.47C59.4498 13.3232 59.6573 13.1292 59.82 12.9C65.74 16.51 70.89 23.06 69.89 10.7C71.03 0.429972 63.38 8.97997 59.89 10.7C59.7392 10.4426 59.5345 10.2209 59.29 10.05C62.89 4.48997 68.67 -0.800028 58.15 0.119972V23.56V93.77C64.0158 93.7397 69.8739 93.3422 75.69 92.58C75.77 92.51 107.76 63.15 91.71 40.82V40.82ZM83.32 73.41C70.5 85.69 59.58 85.15 62.1 66C62.34 56.63 60.88 47.25 67.9 41.11C83.28 33.67 96.04 53.93 83.32 73.41Z" fill="#EFAD29"/>
<path d="M94.15 87.39C90.56 96.06 22.26 95.2 20.57 87.39H20.5V95.56C20.5 99.29 37.01 102.31 57.37 102.31C77.73 102.31 94.25 99.31 94.25 95.56V87.39H94.15Z" fill="#FDC33C"/>
<path d="M95.03 85.3599L94.34 85.9899C86.79 94.6599 23.16 94.2299 20.49 85.7899L19.54 85.1899C14.84 88.5999 31.5 95.8799 61.75 95.1099C89.5 94.5699 99.2 87.7299 95.03 85.3599V85.3599Z" fill="#E59F23"/>
<path d="M95.03 85.3599L94.34 85.9899C86.79 94.6599 23.16 94.2299 20.49 85.7899L19.54 85.1899C14.84 88.5999 31.5 95.8799 61.75 95.1099C89.5 94.5699 99.2 87.7299 95.03 85.3599V85.3599Z" fill="#E59F23"/>
<path d="M57.36 94.24C30.19 94.24 19.92 88.24 19.59 86.6C19.5803 86.5102 19.5803 86.4197 19.59 86.33L19.69 86.39C25.96 96.75 90.69 94.19 95.03 86.56L95.1 86.49V86.63C95.08 87.81 87.89 94.24 57.36 94.24V94.24Z" fill="#FDC33C"/>
<path d="M94.24 95.15C95.32 104.76 18.38 104.29 20.49 95.15C13.23 97.49 30.73 105.23 57.36 104.92C87.72 105.15 100.79 97.23 94.24 95.15Z" fill="#E59F23"/>
<path d="M57.36 104C41.88 104 31.88 102 26.09 100.06C42.33 104.49 87.74 105.14 94.96 96.43L95.1 96.53C94.55 98 86.83 104 57.36 104V104Z" fill="#FDC33C"/>
<path d="M26.58 94.4399C25.99 98.8199 19.43 94.3799 24.58 92.4399C25.633 92.5555 26.4644 93.3869 26.58 94.4399Z" fill="#EFAD29"/>
<path d="M24.59 96C21.22 95.54 24.64 90.49 26.13 94.46C26.034 95.2674 25.3974 95.904 24.59 96Z" fill="#FFCC66"/>
<path d="M24.56 94.1899C24.14 94.8499 22.4 92.9899 25.02 93.3099C25.07 93.4799 25.1 93.6399 24.56 94.1899Z" fill="#FFDFA6"/>
<path d="M33.59 96C33 100.38 26.44 95.94 31.59 94C32.643 94.1155 33.4744 94.947 33.59 96Z" fill="#EFAD29"/>
<path d="M31.6 97.5C28.22 97 31.65 92 33.13 96C33.0282 96.7936 32.3955 97.414 31.6 97.5Z" fill="#FFCC66"/>
<path d="M40.59 97.49C40 101.87 33.44 97.42 38.59 95.49C39.6413 95.6091 40.4709 96.4387 40.59 97.49Z" fill="#EFAD29"/>
<path d="M38.6 99C35.23 98.54 38.6 93.49 40.14 97.47C40.0467 98.277 39.4075 98.912 38.6 99Z" fill="#FFCC66"/>
<path d="M49.6 98C49.01 102.38 42.44 97.94 47.6 96C48.6513 96.1191 49.4809 96.9487 49.6 98Z" fill="#EFAD29"/>
<path d="M47.6 99.49C44.23 99 47.65 94 49.14 98C49.0296 98.7913 48.3945 99.4058 47.6 99.49Z" fill="#FFCC66"/>
<path d="M58.6 98.42C58.01 102.8 51.44 98.36 56.6 96.42C57.6513 96.5391 58.4809 97.3687 58.6 98.42Z" fill="#EFAD29"/>
<path d="M56.6 100C53.23 99.54 56.6 94.49 58.14 98.46C58.0511 99.2708 57.4108 99.9111 56.6 100Z" fill="#FFCC66"/>
<path d="M68.61 98C68.02 102.38 61.46 97.94 66.61 96C67.663 96.1155 68.4944 96.947 68.61 98Z" fill="#EFAD29"/>
<path d="M66.62 99.49C63.25 99 66.67 94 68.15 98C68.044 98.7897 67.4123 99.4049 66.62 99.49Z" fill="#FFCC66"/>
<path d="M78.63 97.49C78.04 101.87 71.47 97.42 76.63 95.49C77.6779 95.6161 78.5039 96.4421 78.63 97.49Z" fill="#EFAD29"/>
<path d="M76.63 99C73.26 98.54 76.68 93.49 78.17 97.47C78.0767 98.277 77.4375 98.912 76.63 99Z" fill="#FFCC66"/>
<path d="M86.06 96C85.47 100.38 78.91 95.94 84.06 94C85.113 94.1155 85.9445 94.947 86.06 96Z" fill="#EFAD29"/>
<path d="M84.07 97.5C80.7 97 84.12 92 85.61 96C85.5039 96.7952 84.8677 97.4148 84.07 97.5Z" fill="#FFCC66"/>
<path d="M93.5 94.4399C92.91 98.8199 86.35 94.3799 91.5 92.4399C92.553 92.5555 93.3845 93.3869 93.5 94.4399Z" fill="#EFAD29"/>
<path d="M91.5 96C88.13 95.54 91.5 90.49 93.03 94.46C92.942 95.2675 92.307 95.9067 91.5 96Z" fill="#FFCC66"/>
<path d="M31.41 95.78C30.99 96.44 29.25 94.58 31.87 94.9C31.92 95.07 31.95 95.23 31.41 95.78Z" fill="#FFDFA6"/>
<path d="M38.4 97.3199C37.99 97.9799 36.24 96.1299 38.86 96.4399C38.92 96.6099 38.94 96.7799 38.4 97.3199Z" fill="#FFDFA6"/>
<path d="M47.39 97.78C46.98 98.44 45.23 96.59 47.85 96.9C47.91 97.07 47.93 97.24 47.39 97.78Z" fill="#FFDFA6"/>
<path d="M56.38 98.2499C55.97 98.9099 54.22 97.0499 56.84 97.3699C56.9 97.5399 56.93 97.6999 56.38 98.2499Z" fill="#FFDFA6"/>
<path d="M66.5 97.78C66.08 98.44 64.34 96.59 66.96 96.9C67.01 97.07 67.04 97.24 66.5 97.78Z" fill="#FFDFA6"/>
<path d="M76.5 97.34C76.08 98 74.34 96.14 76.96 96.46C76.99 96.63 77.01 96.79 76.5 97.34Z" fill="#FFDFA6"/>
<path d="M83.75 95.78C83.33 96.44 81.59 94.58 84.21 94.9C84.26 95.07 84.29 95.23 83.75 95.78Z" fill="#FFDFA6"/>
<path d="M91.38 94.2699C90.96 94.9299 89.22 93.07 91.84 93.39C91.9 93.56 91.92 93.7199 91.38 94.2699Z" fill="#FFDFA6"/>
<path d="M23.73 85.75C11.11 79.75 -13.49 50.59 18.81 44.38C-6.50002 53.88 12.41 76.54 23.73 85.75V85.75Z" fill="#414042"/>
<path d="M34.57 85.14C28.8 81.14 5.84998 40.58 36.63 37.6C11.08 44.85 28.62 78.7 34.57 85.14Z" fill="#414042"/>
<path d="M90.21 85.75C102.83 79.75 127.43 50.59 95.13 44.38C120.5 53.88 101.5 76.54 90.21 85.75Z" fill="#414042"/>
<path d="M79.37 85.14C85.15 81.14 108.09 40.58 77.31 37.6C102.86 44.85 85.32 78.7 79.37 85.14Z" fill="#414042"/>
</svg>
