<svg width="64" height="73" viewBox="0 0 64 73" fill="none" xmlns="http://www.w3.org/2000/svg">
<path d="M0 3.77L7.51 72.85H54.77L63.14 6.56L51.82 18.05L43.12 1.97L33.11 20.02L18.67 0L10.96 19.2L0 3.77Z" fill="#FEAF1F"/>
<path d="M32.53 38C43.19 20.63 58.53 37.53 32.53 57.15C3.94003 32.18 27.45 23.09 32.53 38Z" fill="#F54144"/>
<path d="M25.42 35C26.27 37.16 26.97 39.35 27.66 41.56C29.13 40 30.6 38.46 32 36.88C31.0747 34.8622 29.7077 33.0782 28 31.66L25.11 34.11L25.42 35Z" fill="#EA5F86"/>
<path opacity="0.6" d="M25 35.12L24.72 34.43C22.72 36.11 20.79 37.82 18.95 39.65C19.8981 42.1688 21.2232 44.5291 22.88 46.65C24.34 45.07 25.88 43.51 27.32 41.95C26.58 39.65 25.87 37.36 25 35.12V35.12Z" fill="#EA5F86"/>
<path opacity="0.8" d="M43 32.68C43.24 32.26 43.49 31.84 43.73 31.41C41.6374 30.3323 39.1024 30.6161 37.3 32.13C38.53 33.47 39.86 34.72 41.1 36.04C41.73 34.92 42.36 33.8 43 32.68Z" fill="#EA5F86"/>
<path opacity="0.6" d="M44.19 31.67C43.34 33.29 42.29 34.85 41.43 36.39C43 38.08 44.5 39.82 46 41.53C47.91 37.65 48.05 34 44.19 31.67Z" fill="#EA5F86"/>
<path d="M40.81 36.56L40.87 36.46C39.96 35.46 38.56 34.12 36.93 32.4C35.5339 33.5669 34.3352 34.9513 33.38 36.5C34.92 38.37 36.38 40.29 37.88 42.21C38.81 40.3 39.78 38.42 40.81 36.56V36.56Z" fill="#EA5F86"/>
<path d="M41.2 36.82C40.15 38.73 39.14 40.66 38.2 42.62C39.47 44.28 40.74 45.94 42.04 47.62C43.4856 45.8784 44.752 43.9955 45.82 42C44.28 40.26 42.77 38.51 41.2 36.82Z" fill="#EA5F86"/>
<path opacity="0.8" d="M29.9 50.61C29.36 48.61 28.36 45.32 27.45 42.44C26 44 24.55 45.48 23.13 47C25.5948 50.1878 28.3137 53.1709 31.26 55.92C30.79 54.17 30.37 52.38 29.9 50.61V50.61Z" fill="#EA5F86"/>
<path d="M33.12 36.91C32.74 37.54 32.53 37.96 32.53 37.96C32.53 37.96 32.43 37.71 32.24 37.32C30.8 38.93 29.31 40.5 27.82 42.06C29.23 46.37 30.52 50.96 31.82 56.14C33.48 52.26 35.48 47.31 37.69 42.68C36.17 40.73 34.67 38.8 33.12 36.91V36.91Z" fill="#EA5F86"/>
<path opacity="0.8" d="M37.4 44.29C35.75 47.96 33.89 52.29 32.06 56.68C32.36 56.96 32.53 57.1 32.53 57.1C35.8501 54.3122 38.9278 51.2479 41.73 47.94C40.46 46.34 39.22 44.71 37.97 43.09L37.4 44.29Z" fill="#EA5F86"/>
<path opacity="0.8" d="M24.88 33.67L27.56 31.39C26.4071 30.6125 24.9754 30.3684 23.63 30.72C24.05 31.7 24.47 32.68 24.88 33.67V33.67Z" fill="#EA5F86"/>
<path d="M23.18 30.86C18.56 32.44 17.72 35.58 18.76 39.15C20.6 37.35 22.54 35.66 24.51 33.98C24.07 32.94 23.63 31.9 23.18 30.86V30.86Z" fill="#EA5F86"/>
</svg>
