<svg width="125" height="85" viewBox="0 0 125 85" fill="none" xmlns="http://www.w3.org/2000/svg">
<path d="M115.43 30.79C116.64 35.15 114.96 36.67 114.96 36.67C114.08 29.9 106.38 28.92 105.57 35.75C108.99 34.15 114.01 37.17 110.06 41.84C104.77 45.12 95.06 44.95 91.79 41.26C87.25 35.47 96.1 27.55 99.49 35.05C104.72 27.69 95.29 25.73 92 28.95C92 28.95 91.89 26.63 96 24.35C100.11 22.07 93 13.88 93 13.88C79.53 20.69 88.69 21.79 87.58 28C84.25 21.84 76.52 23.61 78.22 30.49C88.22 23.83 89.41 44.14 77.52 39.99C57.81 31.69 66.7 13.31 75.21 22.8C79.36 12.8 68.1 13.1 65.05 17.61C65.05 17.61 64.35 14.97 68.47 11.32C72.59 7.67 62.39 0 62.39 0C48.39 11.45 59.7 10.26 59.72 17.61C54.46 11.41 45.83 15.15 49.56 22.8C54.01 16.8 60.29 21.55 58.99 28.6C57.07 34.03 52.59 37.83 46.08 40.32C33.68 42.6 38.61 23.78 46.55 30.5C48.22 21.5 38.87 23.75 37.19 28.01C37.19 28.01 36.13 25.94 38.9 22.19C41.67 18.44 31.81 13.88 31.81 13.88C22.38 25.6 31.25 22.88 32.81 28.95C27.1 24.63 21 29.66 25.33 35.05C30.01 26.18 38.2 38.17 31.83 42.36C16.11 49.82 6 34 19.2 35.75C17.63 27.11 9.92 32.06 9.81 36.67C9.81 36.67 8.13 35.15 9.34 30.79C10.55 26.43 0 25.65 0 25.65C0 25.65 1.12 33.26 9.24 43.24L18.82 60.24C21 63.43 20 71.8 62.39 71.8C104.78 71.8 103.8 63.43 105.96 60.22L115.54 43.22C123.65 33.22 124.77 25.63 124.77 25.63C124.77 25.63 114.22 26.43 115.43 30.79Z" fill="#F9B63E"/>
<path d="M62.39 0C76.39 11.45 65.07 10.26 65.05 17.61C70.32 11.41 78.94 15.15 75.21 22.8C70.77 16.8 64.49 21.55 65.79 28.6C67.79 34.22 74.07 40.14 81.09 40.41C91.09 39.65 84.72 24.23 78.22 30.5C76.55 21.5 85.9 23.75 87.58 28.01C87.58 28.01 88.64 25.94 85.88 22.19C83.12 18.44 93 13.88 93 13.88C102.42 25.6 93.55 22.88 92 28.95C97.71 24.63 103.81 29.66 99.49 35.05C94.81 26.18 86.62 38.17 92.98 42.36C108.66 49.82 118.76 34.01 105.57 35.75C107.15 27.11 114.85 32.06 114.96 36.67C114.96 36.67 116.64 35.15 115.43 30.79C114.22 26.43 124.77 25.65 124.77 25.65C124.77 25.65 123.65 33.26 115.54 43.24L105.96 60.24C103.81 63.43 104.77 71.81 62.39 71.82V0Z" fill="#EFAD29"/>
<path d="M59.08 64.79C55.02 64.59 58.89 59.13 60.3 57.38C56.16 60.51 52.3 63.29 52.88 54.91C52.07 46.64 56.88 50.91 60.3 53.21C57.41 49.21 54.05 45.28 62.77 45.79C70.65 44.79 66.92 49.79 64.47 53.21C67.26 51.15 71.77 47.6 71.89 52.88C71.38 57.18 73.38 59.61 69.89 60.61C69.68 61.05 64.79 57.61 64.49 57.38C71.26 65.6 66 64.8 59.08 64.79V64.79Z" fill="#E59F23"/>
<path d="M69.08 50.81L63.7 54.45C63.5875 54.2527 63.4299 54.0848 63.24 53.96C66.24 49.29 70.73 45.67 61.24 46.39C53.79 45.48 60.3 51.52 61.51 53.96C61.3202 54.0848 61.1626 54.2527 61.05 54.45C56.38 51.45 52.74 46.93 53.46 56.45C52.54 63.95 58.68 57.32 61.11 56.13C61.2327 56.3029 61.3892 56.4492 61.57 56.56C58.65 61.24 53.94 64.96 63.49 64.23C71 65.15 64.34 58.99 63.16 56.56C63.3408 56.4492 63.4973 56.3029 63.62 56.13C66.62 57.91 71.91 63.43 71.27 56.45C71.14 52.36 72.14 50.38 69.08 50.81Z" fill="#FF0808"/>
<path d="M69.08 50.81L63.7 54.45C63.5875 54.2527 63.4299 54.0848 63.24 53.96C66.08 49.69 70.24 45.71 62.39 46.39V64.2C71.27 65.2 64.81 59.63 63.18 56.53C63.3608 56.4192 63.5173 56.2729 63.64 56.1C66.64 57.88 71.93 63.4 71.29 56.42C71.14 52.36 72.14 50.38 69.08 50.81Z" fill="#EF0000"/>
<path d="M103.27 65.5C98.91 75.19 23.6 74.19 21.49 65.5H21.4V74.58C21.4 78.72 39.75 82.09 62.4 82.09C85.05 82.09 103.4 78.72 103.4 74.58V65.5H103.27Z" fill="#FDC33C"/>
<path d="M103.37 74.13C104.48 84.81 19.15 84.3 21.37 74.13C13.3 76.72 32.72 85.33 62.37 84.99C95.94 85.26 110.7 76.45 103.37 74.13Z" fill="#E59F23"/>
<path d="M62.38 84C45.17 84 34.06 81.8 27.62 79.6C45.76 84.6 96.69 85.1 104.16 75.6C104.22 75.6308 104.277 75.6676 104.33 75.71C103.72 77.31 95.13 84 62.38 84V84ZM21.32 76.6C20.9715 76.3576 20.6784 76.044 20.46 75.68L20.6 75.59C20.7808 75.9563 21.0245 76.288 21.32 76.57V76.6Z" fill="#FDC33C"/>
<path d="M104.25 63.24L103.48 63.94C95 73.55 24.66 73.17 21.4 63.72L20.34 63.05C15.07 66.77 33.48 74.9 66.82 74.05C97.73 73.57 109 65.93 104.25 63.24V63.24Z" fill="#E59F23"/>
<path d="M62.38 73.11C32.18 73.11 20.76 66.42 20.38 64.63C20.3812 64.5248 20.398 64.4203 20.43 64.32L20.53 64.39C28 76 99.32 73 104.29 64.57L104.37 64.5V64.65C104.31 66 96.31 73.11 62.38 73.11V73.11Z" fill="#FDC33C"/>
<path d="M28.17 73.34C28.17 74.5606 27.1805 75.55 25.96 75.55C24.7394 75.55 23.75 74.5606 23.75 73.34C23.75 72.1195 24.7394 71.13 25.96 71.13C27.1805 71.13 28.17 72.1195 28.17 73.34Z" fill="#EFAD29"/>
<path d="M26 75C22.25 74.49 26.05 68.88 27.7 73.3C27.5986 74.1935 26.8935 74.8986 26 75Z" fill="#FFCC66"/>
<path d="M25.92 73.06C24.38 73.93 24.56 71.36 26.43 72.06C26.49 72.27 26.52 72.45 25.92 73.06Z" fill="#FFDFA6"/>
<path d="M36 75C35.9216 76.1656 34.9533 77.0711 33.785 77.0711C32.6167 77.0711 31.6484 76.1656 31.57 75C31.6484 73.8343 32.6167 72.9289 33.785 72.9289C34.9533 72.9289 35.9216 73.8343 36 75Z" fill="#EFAD29"/>
<path d="M33.75 76.73C30 76.23 33.75 70.61 35.45 75.03C35.3486 75.9235 34.6435 76.6286 33.75 76.73Z" fill="#FFCC66"/>
<path d="M43.75 76.72C43.6716 77.8857 42.7033 78.7911 41.535 78.7911C40.3667 78.7911 39.3984 77.8857 39.32 76.72C39.3984 75.5544 40.3667 74.6489 41.535 74.6489C42.7033 74.6489 43.6716 75.5544 43.75 76.72Z" fill="#EFAD29"/>
<path d="M41.53 78.42C37.78 77.92 41.59 72.3 43.24 76.72C43.1341 77.6151 42.4257 78.3194 41.53 78.42Z" fill="#FFCC66"/>
<path d="M53.75 77.24C53.6716 78.4057 52.7033 79.3111 51.535 79.3111C50.3667 79.3111 49.3984 78.4057 49.32 77.24C49.3984 76.0744 50.3667 75.1689 51.535 75.1689C52.7033 75.1689 53.6716 76.0744 53.75 77.24Z" fill="#EFAD29"/>
<path d="M51.54 78.94C47.79 78.44 51.59 72.82 53.24 77.24C53.1386 78.1335 52.4335 78.8386 51.54 78.94Z" fill="#FFCC66"/>
<path d="M63.75 77.76C63.75 78.9805 62.7606 79.97 61.54 79.97C60.3195 79.97 59.33 78.9805 59.33 77.76C59.33 76.5394 60.3195 75.55 61.54 75.55C62.7606 75.55 63.75 76.5394 63.75 77.76Z" fill="#EFAD29"/>
<path d="M61.54 79.47C57.79 78.96 61.6 73.34 63.24 77.76C63.1429 78.6574 62.4368 79.3676 61.54 79.47Z" fill="#FFCC66"/>
<path d="M74.88 77.24C74.88 78.4606 73.8906 79.45 72.67 79.45C71.4495 79.45 70.46 78.4606 70.46 77.24C70.46 76.0195 71.4495 75.03 72.67 75.03C73.8906 75.03 74.88 76.0195 74.88 77.24Z" fill="#EFAD29"/>
<path d="M72.67 78.94C68.92 78.44 72.73 72.82 74.38 77.24C74.2742 78.1351 73.5657 78.8394 72.67 78.94Z" fill="#FFCC66"/>
<path d="M86 76.72C86 77.9406 85.0106 78.93 83.79 78.93C82.5695 78.93 81.58 77.9406 81.58 76.72C81.58 75.4995 82.5695 74.51 83.79 74.51C85.0106 74.51 86 75.4995 86 76.72Z" fill="#EFAD29"/>
<path d="M83.8 78.42C80.05 77.92 83.86 72.3 85.51 76.72C85.4042 77.6151 84.6957 78.3194 83.8 78.42Z" fill="#FFCC66"/>
<path d="M94.28 75C94.28 76.2205 93.2905 77.21 92.07 77.21C90.8494 77.21 89.86 76.2205 89.86 75C89.86 73.7794 90.8494 72.79 92.07 72.79C93.2905 72.79 94.28 73.7794 94.28 75Z" fill="#EFAD29"/>
<path d="M92.07 76.73C88.32 76.23 92.12 70.61 93.77 75.03C93.6686 75.9235 92.9635 76.6286 92.07 76.73Z" fill="#FFCC66"/>
<path d="M102.55 73.34C102.472 74.5056 101.503 75.4111 100.335 75.4111C99.1667 75.4111 98.1984 74.5056 98.12 73.34C98.1984 72.1744 99.1667 71.2689 100.335 71.2689C101.503 71.2689 102.472 72.1744 102.55 73.34Z" fill="#EFAD29"/>
<path d="M100.33 75C96.58 74.49 100.39 68.88 102.04 73.3C102 73.92 101.63 74.73 100.33 75Z" fill="#FFCC66"/>
<path d="M33.53 74.82C31.99 75.7 32.18 73.12 34.04 73.82C34.11 74 34.14 74.22 33.53 74.82Z" fill="#FFDFA6"/>
<path d="M41.31 76.54C39.77 77.42 39.96 74.84 41.82 75.54C41.88 75.75 41.91 75.93 41.31 76.54Z" fill="#FFDFA6"/>
<path d="M51.3 77.05C49.76 77.93 49.95 75.35 51.81 76.05C51.87 76.26 51.9 76.44 51.3 77.05Z" fill="#FFDFA6"/>
<path d="M61.29 77.57C59.75 78.45 59.94 75.87 61.81 76.57C61.87 76.78 61.9 77 61.29 77.57Z" fill="#FFDFA6"/>
<path d="M72.53 77.05C70.99 77.93 71.18 75.35 73.04 76.05C73.11 76.26 73.13 76.44 72.53 77.05Z" fill="#FFDFA6"/>
<path d="M83.62 76.56C82.08 77.43 82.26 74.86 84.13 75.56C84.19 75.77 84.22 76 83.62 76.56Z" fill="#FFDFA6"/>
<path d="M91.7101 74.82C90.1701 75.7 90.3501 73.12 92.2201 73.82C92.2801 74 92.3101 74.22 91.7101 74.82Z" fill="#FFDFA6"/>
<path d="M100.19 73.14C98.65 74.02 98.84 71.44 100.7 72.14C100.76 72.35 100.79 72.54 100.19 73.14Z" fill="#FFDFA6"/>
<path d="M63.71 55.12C63.78 57.55 58.79 55.66 62.39 53.79C62.81 53.86 63.21 53.91 63.71 55.12Z" fill="#EF0000"/>
<path d="M63.39 55.12C63.39 56.98 59.68 55.46 62.39 54.12C62.7 54.17 63 54.21 63.39 55.12Z" fill="#FF0808"/>
<path d="M17.71 47.31C24.23 52.31 50.2 46.21 51.37 44.25C47.86 51.63 46.59 63.06 53.78 67.17C53.78 67.17 24.33 72.1 17.71 47.31Z" fill="#FDC33C"/>
<path d="M107.07 47.31C100.54 52.31 74.58 46.21 73.4 44.25C76.91 51.63 78.19 63.06 71 67.17C71 67.17 100.44 72.1 107.07 47.31Z" fill="#F9B63E"/>
</svg>
