<svg width="91" height="66" viewBox="0 0 91 66" fill="none" xmlns="http://www.w3.org/2000/svg">
<path d="M44 1.72C38.16 7.83 34.44 23.22 34.44 23.22C39.18 25.41 39.14 30.94 36.23 34.46C28.05 43.69 15.12 30.14 24.76 22.56C24.76 22.56 4.58 16.06 1.53 13.14C-2.62 11.36 18 62.48 16.43 60.38L42.83 61.18H49L75.41 60.38C75 59.28 94.49 11.19 90.29 13.14C87.24 16.06 67.06 22.56 67.06 22.56C74.86 29.38 68.22 38.67 59.79 37.3C53.73 35.77 50.63 26.41 57.38 23.22C57.38 23.22 53.66 7.83 47.82 1.72L45.93 0L44 1.72Z" fill="#F3D15C"/>
<path d="M45.92 63.7C45.42 44.21 45.26 20.83 45.92 0.800003C46.6 19.42 46.66 41.8 46.06 61.01C46 62.72 45.92 63.7 45.92 63.7Z" fill="#CE8A29"/>
<path d="M77.6003 62.3C77.69 67.72 60.89 64.22 43.87 65.16C27.26 64.45 14 67.34 14 62.3C13.87 56.87 31.24 60.4 48.51 59.45C64.8 60.15 77.61 57.29 77.56 62.3H77.6003Z" fill="#EBB33A"/>
<path d="M3 16L3.92 16.74C4.88158 17.3956 5.91495 17.9391 7 18.36C7.71 18.68 8.45 18.94 9.18 19.22C10.53 19.69 14.3 20.95 15.83 21.47C16.48 21.71 18.97 22.36 20.32 22.73C20.84 24.26 19.03 26.58 18.8 29.12C18.7078 30.1016 18.8589 31.0907 19.24 32C19.4187 32.4708 19.6431 32.923 19.91 33.35C20.163 33.7897 20.447 34.2108 20.76 34.61C21.05 35.02 21.43 35.37 21.76 35.76C22.4869 36.4665 23.2844 37.0964 24.14 37.64C25.4481 38.4296 26.8933 38.9657 28.4 39.22C30.3799 39.4632 32.3874 39.1153 34.17 38.22C34.6095 37.9855 35.0308 37.718 35.43 37.42C35.8242 37.1108 36.1983 36.7768 36.55 36.42C37.2346 35.6963 37.8167 34.882 38.28 34C38.7406 33.0996 39.077 32.1408 39.28 31.15C39.3752 30.6539 39.4453 30.1532 39.49 29.65C39.5253 29.1473 39.5253 28.6427 39.49 28.14C39.3 26.14 38.06 24.32 36.91 21.67C36.8445 20.8008 37.0358 19.9315 37.46 19.17C38.22 17.17 39.39 14.12 40.58 11.51C41.58 9.39 44.39 4.51 45.68 2.19C44.36 5.03 42.62 8.19 41.02 11.69C39.9 14.48 38.77 17.3 37.63 20.83C37.83 23 40.07 24.83 40.37 28.03C40.4299 28.5745 40.45 29.1226 40.43 29.67C40.3902 30.2135 40.3201 30.7543 40.22 31.29C40.0271 32.3635 39.6907 33.4061 39.22 34.39C38.7296 35.3716 38.096 36.2748 37.34 37.07C36.9233 37.49 36.4753 37.8777 36 38.23C35.5566 38.5567 35.0923 38.854 34.61 39.12C32.6381 40.1713 30.3748 40.5438 28.17 40.18C25.4769 39.6879 23.005 38.3663 21.1 36.4C20.7287 36.0052 20.3782 35.5913 20.05 35.16C19.7192 34.7313 19.4185 34.2802 19.15 33.81C18.8585 33.3399 18.6172 32.8405 18.43 32.32C18.0167 31.2653 17.869 30.1252 18 29C18.26 27.29 19.18 25.39 19.94 22.94L20.18 23.36C18.12 22.73 18.27 22.82 15.68 21.96C14.15 21.43 11.22 20.33 9.09 19.48C8.37 19.17 7.64 18.88 6.94 18.53C6.22911 18.1918 5.54099 17.8076 4.88 17.38C4.56 17.15 4.23 16.94 3.88 16.69L3 16Z" fill="#CE8A29"/>
<path d="M89.19 16L88.32 16.78C88.01 17.03 87.68 17.24 87.32 17.47C86.6766 17.9233 85.9859 18.3056 85.26 18.61C84.56 18.97 83.83 19.26 83.11 19.61C81.01 20.44 79.2 21.14 76.52 22.09C75.89 22.36 73.37 23.09 72.02 23.49L72.3 23C73.0473 24.9661 73.6948 26.9686 74.24 29C74.3549 30.1145 74.197 31.2401 73.78 32.28C73.5928 32.8005 73.3515 33.2999 73.06 33.77C72.7915 34.2402 72.4908 34.6913 72.16 35.12C71.848 35.5501 71.5142 35.964 71.16 36.36C70.3831 37.1107 69.532 37.7808 68.62 38.36C67.2085 39.2524 65.641 39.8699 64 40.18C61.7952 40.5312 59.536 40.1593 57.56 39.12C57.0778 38.854 56.6134 38.5567 56.17 38.23C55.7546 37.8841 55.3637 37.5099 55 37.11C54.2442 36.3124 53.6076 35.4098 53.11 34.43C52.6391 33.4462 52.3027 32.4035 52.11 31.33C52.0099 30.7943 51.9398 30.2535 51.9 29.71C51.8802 29.1593 51.9003 28.6078 51.96 28.06C51.96 25.88 54.12 23.59 54.7 20.87C54.5792 20.3811 54.4187 19.9028 54.22 19.44C53.51 17.39 52.41 14.39 51.32 11.76C50.03 8.91001 48.32 5.76001 46.65 2.26001C48.34 5.35001 50 8.11001 51.76 11.58C52.76 13.86 53.76 16.29 54.88 19.24C55 19.95 55.57 20.03 55.43 21.74C54.8 23.53 53.2 25.47 52.85 28.21C52.8148 28.7127 52.8148 29.2173 52.85 29.72C52.8947 30.2232 52.9648 30.7239 53.06 31.22C53.263 32.2108 53.5994 33.1696 54.06 34.07C54.517 34.9674 55.1033 35.7929 55.8 36.52C56.1494 36.8793 56.5236 37.2134 56.92 37.52C57.3193 37.818 57.7405 38.0855 58.18 38.32C59.9381 39.2872 61.969 39.6392 63.95 39.32C65.4547 39.0584 66.8987 38.5229 68.21 37.74C69.074 37.2084 69.8728 36.5774 70.59 35.86C70.91 35.47 71.29 35.12 71.59 34.71C71.903 34.3108 72.187 33.8897 72.44 33.45C72.6751 32.9868 72.8627 32.501 73 32C73.3777 31.0899 73.5254 30.1008 73.43 29.12C73.08 24.69 68.66 22.78 76.43 21.46C77.92 20.96 81.51 19.76 83.08 19.21C83.81 18.93 84.55 18.67 85.26 18.35C86.3306 17.8914 87.3551 17.3322 88.32 16.68L89.19 16Z" fill="#CE8A29"/>
</svg>
