<svg width="101" height="61" viewBox="0 0 101 61" fill="none" xmlns="http://www.w3.org/2000/svg">
<path d="M19 52C19 52 0.110001 3.3 49 3.3C104.59 3.3 80.9 52 80.9 52H19Z" fill="#E31F37"/>
<g opacity="0.3">
<path opacity="0.3" d="M49.32 3.79H48.73C31.93 12.1 29.97 35.72 29.58 51.79C22.67 40.41 35.48 9 44.33 4.09C25.33 8.49 18.56 36.91 24.73 51.96H68.13C65.85 36.1 69.31 9.33 50.67 3.33H50.1C49.978 3.64555 49.6552 3.83594 49.32 3.79V3.79Z" fill="#EA5F86"/>
<path opacity="0.3" d="M24.22 21.6C27.13 14.42 32 7.6 38.71 4.16C3 10.64 19 52 19 52H22.83C19 42.51 20.58 30.62 24.22 21.6Z" fill="#EA5F86"/>
<path opacity="0.3" d="M65.75 5.25999C80.75 13.7 81.32 36.55 76.25 51.96H80.9C80.9 51.96 99.21 14.32 65.75 5.25999V5.25999Z" fill="#EA5F86"/>
<path opacity="0.3" d="M74.37 52C80.65 35.6 77.94 6 58.06 5.33C70.12 15.25 67.67 37.67 69.89 52H74.37Z" fill="#EA5F86"/>
</g>
<path d="M0 16.2L22.68 60.58H77.1L100.43 16.2C96.66 20.63 84.5 25.68 80 22C82 66.33 43.34 31.42 66.74 16.2C66.74 16.2 51.51 10.37 50.21 0C50.21 0 44.71 14.58 33.04 15.55C33.04 15.55 52.28 32.81 35.63 43.09C18.98 53.37 16.52 25.92 21.38 23.33C21.38 23.33 13.6 27.21 0 16.2H0Z" fill="#FEAF1F"/>
<path d="M78.97 57.15H20.92L18.74 52.95H81.11L78.97 57.15Z" fill="#E31F37"/>
<path d="M50.47 19.26C50.47 19.26 53.41 13.36 57.22 15.37C64.5 19.23 50.47 30.71 50.47 30.71C33.81 16.49 46.9 10.08 50.47 19.26Z" fill="#F54144"/>
<path d="M46.22 17.5C46.73 18.79 47.15 20.1 47.56 21.42C48.44 20.49 49.32 19.56 50.18 18.62C49.6084 17.4117 48.7749 16.3459 47.74 15.5L46 17L46.22 17.5Z" fill="#EA5F86"/>
<path opacity="0.6" d="M46 17.57C45.94 17.43 45.88 17.29 45.83 17.15C44.65 18.15 43.48 19.15 42.38 20.28C42.9458 21.7829 43.7347 23.192 44.72 24.46C45.6 23.51 46.49 22.58 47.38 21.65C46.92 20.27 46.49 18.91 46 17.57V17.57Z" fill="#EA5F86"/>
<path opacity="0.8" d="M56.74 16.11L57.17 15.35C55.9212 14.7015 54.4044 14.8713 53.33 15.78C54.06 16.58 54.85 17.33 55.6 18.12C56 17.45 56.35 16.78 56.74 16.11V16.11Z" fill="#EA5F86"/>
<path opacity="0.6" d="M57.45 15.5C56.94 16.5 56.31 17.41 55.8 18.33C56.73 19.33 57.63 20.38 58.55 21.4C59.67 19.08 59.75 16.87 57.45 15.5V15.5Z" fill="#EA5F86"/>
<path d="M55.43 18.43V18.37C55.43 18.37 55.43 18.37 55.38 18.32C54.63 17.51 53.82 16.75 53.08 15.94C52.2591 16.6392 51.5567 17.4665 51 18.39C51.92 19.51 52.81 20.66 53.69 21.81C54.23 20.67 54.81 19.54 55.43 18.43V18.43Z" fill="#EA5F86"/>
<path d="M55.66 18.58C55.03 19.73 54.43 20.88 53.86 22.05C54.62 23.05 55.38 24.05 56.16 25.05C57.0205 24.0095 57.7775 22.8875 58.42 21.7C57.5 20.64 56.59 19.6 55.66 18.58V18.58Z" fill="#EA5F86"/>
<path opacity="0.8" d="M48.9 26.83C48.48 25.24 47.98 23.68 47.49 22.11C47.4778 22.0554 47.4611 22.0018 47.44 21.95C46.5733 22.85 45.7133 23.76 44.86 24.68C46.3303 26.5815 47.9522 28.3606 49.71 30C49.43 29 49.19 27.89 48.9 26.83Z" fill="#EA5F86"/>
<path d="M50.83 18.64C50.6 19.01 50.48 19.26 50.48 19.26C50.48 19.26 50.42 19.12 50.3 18.88C49.44 19.88 48.55 20.78 47.66 21.72C48.44 24.15 49.22 26.81 50.03 30.13C50.96 27.97 52.1 25.13 53.54 22.13C52.65 20.92 51.76 19.77 50.83 18.64V18.64Z" fill="#EA5F86"/>
<path opacity="0.8" d="M53.38 23.05C52.28 25.52 51.66 26.97 50.2 30.46L50.48 30.71C52.4684 29.0392 54.3148 27.2062 56 25.23C55.24 24.23 54.49 23.3 53.75 22.33L53.38 23.05Z" fill="#EA5F86"/>
<path opacity="0.8" d="M45.9 16.7L47.5 15.34C46.8097 14.8772 45.9545 14.7316 45.15 14.94C45.41 15.52 45.66 16.11 45.9 16.7Z" fill="#EA5F86"/>
<path d="M44.89 15C42.12 15.94 41.62 17.82 42.25 20C43.34 18.92 44.5 17.91 45.68 16.91C45.42 16.26 45.16 15.64 44.89 15V15Z" fill="#EA5F86"/>
<path d="M87.42 40.93C88.99 37.53 90.72 34.21 92.58 30.93L92.33 31.09C92.33 31.09 93.1 25.36 89.69 24.66C80.3 22.73 86.69 41.04 86.69 41.04C86.69 41.04 87 41 87.42 40.93Z" fill="#F54144"/>
<path d="M89.51 27.48C89.32 28.85 89.03 30.2 88.74 31.55C89.96 31.18 91.18 30.81 92.39 30.41C92.4976 29.0762 92.2992 27.7355 91.81 26.49L89.58 26.91C89.56 27.1 89.54 27.29 89.51 27.48V27.48Z" fill="#EA5F86"/>
<path opacity="0.6" d="M89.24 27.41L89.3 27C87.77 27.29 86.3 27.6 84.76 28C84.5187 29.5876 84.5187 31.2024 84.76 32.79L88.47 31.66C88.74 30.24 89.05 28.84 89.24 27.41V27.41Z" fill="#EA5F86"/>
<path opacity="0.8" d="M87.23 36.92C87.51 35.85 87.95 33.92 88.37 31.92C87.17 32.28 85.97 32.64 84.77 33.02C85.1152 35.3924 85.6502 37.7332 86.37 40.02C86.64 39 87 38 87.23 36.92Z" fill="#EA5F86"/>
<path d="M92.58 31L92.33 31.16C92.33 31.16 92.33 31 92.33 30.74C91.1 31.15 89.87 31.53 88.63 31.9C88.63 32.01 88.63 32.12 88.56 32.23C88.08 34.6 87.43 37.23 86.56 40.39C87.13 39.93 87.71 39.5 88.29 39.06C89.6367 36.2933 91.0667 33.6067 92.58 31V31Z" fill="#EA5F86"/>
<path opacity="0.8" d="M89.62 26.63L91.69 26.23C91.3135 25.4906 90.6412 24.9455 89.84 24.73C89.77 25.36 89.7 26 89.62 26.63Z" fill="#EA5F86"/>
<path d="M89.57 24.67C86.7 24.12 85.34 25.51 84.82 27.67C86.31 27.27 87.82 26.96 89.33 26.67C89.4233 26.01 89.5033 25.3433 89.57 24.67V24.67Z" fill="#EA5F86"/>
<path d="M11.14 24.69C7.72 25.39 8.49 31.12 8.49 31.12C8.49 31.12 8.14 30.88 7.58 30.58C9.48 33.84 11.02 37.33 12.58 40.76C13.52 40.97 14.11 41.07 14.11 41.07C14.11 41.07 20.52 22.76 11.14 24.69V24.69Z" fill="#F54144"/>
<path d="M11.32 27.48C11.51 28.85 11.8 30.2 12.09 31.55C10.87 31.18 9.64001 30.81 8.43001 30.41C8.32919 29.0773 8.52383 27.7388 9.00001 26.49L11.23 26.91C11.27 27.1 11.29 27.29 11.32 27.48V27.48Z" fill="#EA5F86"/>
<path opacity="0.6" d="M11.58 27.41C11.58 27.26 11.58 27.12 11.53 26.97C13.05 27.26 14.53 27.57 16.07 27.97C16.306 29.5579 16.306 31.1721 16.07 32.76L12.37 31.63C12.09 30.24 11.78 28.84 11.58 27.41Z" fill="#EA5F86"/>
<path opacity="0.8" d="M13.59 36.92C13.31 35.85 12.88 33.92 12.46 31.92C13.66 32.28 14.86 32.64 16.05 33.02C15.7072 35.3919 15.1756 37.7327 14.46 40.02C14.18 39 13.87 38 13.59 36.92V36.92Z" fill="#EA5F86"/>
<path d="M7.83 31C9.16 33.32 10.31 35.74 11.43 38.18C11.85 38.51 12.79 39.18 14.24 40.33C13.62 38.06 12.79 35.02 12.15 31.84C10.92 31.47 9.68 31.09 8.45 30.68V31.1C8.24984 30.9661 8.0429 30.8426 7.83 30.73C7.83485 30.8199 7.83485 30.9101 7.83 31V31Z" fill="#EA5F86"/>
<path opacity="0.8" d="M12 39C11.8886 38.9265 11.7818 38.8463 11.68 38.76C12 39.44 12.31 40.12 12.62 40.76C13.56 40.97 14.15 41.07 14.15 41.07C14.15 41.07 14.15 40.94 14.27 40.72C13.53 40.11 12.75 39.55 12 39V39Z" fill="#EA5F86"/>
<path opacity="0.8" d="M11.2 26.63L9.14 26.23C9.51563 25.4859 10.1932 24.9395 11 24.73C11.05 25.36 11.12 26 11.2 26.63Z" fill="#EA5F86"/>
<path d="M11.26 24.67C14.12 24.12 15.49 25.51 16 27.67C14.51 27.27 13 26.96 11.49 26.67C11.41 26 11.33 25.34 11.26 24.67V24.67Z" fill="#EA5F86"/>
</svg>
