<svg width="69" height="24" viewBox="0 0 69 24" fill="none" xmlns="http://www.w3.org/2000/svg">
<path d="M58.55 6.67001C55.2244 8.37962 51.7706 9.82734 48.22 11C45.5975 9.74354 43.1025 8.23653 40.77 6.50001C43.84 4.86001 47.29 2.89001 51.19 0.700012C53.21 2.27001 55.69 4.34001 58.55 6.67001Z" fill="#CA8F05"/>
<path d="M27.41 6.50001C25.0916 8.23645 22.6099 9.74353 20 11C16.4381 9.82292 12.9713 8.37537 9.63 6.67001C11.88 4.86001 14 3.07001 17 0.700012C20 2.38001 23.52 4.40001 27.41 6.50001Z" fill="#CA8F05"/>
<path d="M67.6 10.24C67.4846 12.8753 67.2276 15.5024 66.83 18.11C56.83 22.11 45.46 23.04 34.09 22.71C23.57 22.97 11.91 22.37 1.34998 18.11C0.545663 12.6825 0.327742 7.18417 0.699983 1.71001C0.795562 1.78919 0.895737 1.86266 0.999983 1.93001C1.70998 2.48001 2.44998 3.00001 3.21998 3.51001C4.50998 4.36001 6.34998 5.51002 8.74998 6.80001C12.3695 8.68859 16.1514 10.2482 20.05 11.46L20.65 11.19C25.8418 8.80154 30.4339 5.28235 34.09 0.890015C37.7693 5.25653 42.3511 8.7739 47.52 11.2L48.12 11.47C52.0183 10.2574 55.8001 8.6978 59.42 6.81001C62.1319 5.38598 64.7296 3.75445 67.19 1.93001L67.49 1.71001C67.63 4.00001 67.71 7.00001 67.6 10.24Z" fill="#FFB401"/>
<path d="M68 2.81C68 2.44 68 2.53 67.84 0.96C65.0155 2.97674 62.0626 4.80729 59 6.44C56.88 4.72 54.23 2.61 51.42 0.18C48.14 1.95 44.56 3.88 40.42 6.23C38.0755 4.4059 35.9512 2.31518 34.09 0C32.2317 2.31782 30.1071 4.40887 27.76 6.23C24.66 4.45 20.82 2.38 16.76 0.18C14.6 2.05 12.19 4 9.21 6.44C6.13197 4.81547 3.15941 2.99854 0.309995 1C-0.208095 6.82085 -0.0638387 12.6817 0.739995 18.47C10.74 22.69 22.74 23.47 34.09 23.23C44.83 23.45 56.76 22.91 67.45 18.47C68.1459 13.2806 68.3301 8.03541 68 2.81V2.81ZM42.41 5.61C44.82 4.3 47.85 2.61 51.19 0.7C53.19 2.23 55.81 4.44 58.55 6.7C55.2235 8.39935 51.7697 9.83703 48.22 11C45.5975 9.74353 43.1026 8.23652 40.77 6.5C41.32 6.2 41.87 5.89 42.41 5.61V5.61ZM10.22 6.18C12.27 4.56 14.06 3 17 0.7C20 2.4 23.44 4.35 27.41 6.5C25.0916 8.23644 22.6099 9.74352 20 11C16.4381 9.82291 12.9713 8.37536 9.63 6.67L10.22 6.18ZM67.6 10.24C67.4846 12.8752 67.2276 15.5024 66.83 18.11C56.83 22.11 45.48 23.03 34.09 22.71C23.55 22.97 11.94 22.38 1.35 18.11C0.545675 12.6825 0.327753 7.18416 0.699995 1.71C0.795573 1.78918 0.895748 1.86264 0.999995 1.93C3.46417 3.74377 6.05776 5.37479 8.76 6.81C12.3795 8.69857 16.1614 10.2582 20.06 11.47L20.66 11.2C25.8492 8.80737 30.4378 5.28478 34.09 0.89C37.7693 5.25651 42.3511 8.77389 47.52 11.2L48.12 11.47C52.0183 10.2574 55.8001 8.69779 59.42 6.81C62.1301 5.38286 64.7276 3.75148 67.19 1.93L67.49 1.71C67.63 4 67.71 7 67.6 10.24V10.24Z" fill="#B06305"/>
<path opacity="0.4" d="M25.77 5.61C26.31 5.89 26.86 6.2 27.41 6.5C25.0915 8.23645 22.6099 9.74353 20 11C16.4381 9.82291 12.9713 8.37537 9.62997 6.67C10.27 6.13 10.63 5.86 11.82 4.88C16.02 9.28 20.4 10.35 25.42 5.43L25.77 5.61Z" fill="#CA8F05"/>
<path opacity="0.4" d="M58.55 6.67003C55.2244 8.37963 51.7706 9.82735 48.22 11C45.5975 9.74355 43.1025 8.23655 40.77 6.50003L43 5.28003C45.4 7.89003 49.83 9.40003 57.34 5.70003C57.58 5.88003 57.57 5.85003 58.55 6.67003V6.67003Z" fill="#CA8F05"/>
<path opacity="0.3" d="M6.42998 19.87C4.70998 19.3567 3.01665 18.77 1.34998 18.11C0.545663 12.6825 0.327742 7.18418 0.699983 1.71002C0.795562 1.7892 0.895737 1.86266 0.999983 1.93002C1.82998 2.54002 2.91998 3.36002 5.16998 4.75002C4.38998 9.20002 4.21998 14.83 6.42998 19.87Z" fill="#CA8F05"/>
<path opacity="0.3" d="M67.6 10.24C67.4846 12.8752 67.2276 15.5024 66.83 18.11C65.69 18.56 64.55 18.98 63.39 19.36C64.6369 14.4462 64.7123 9.30825 63.61 4.36C64.68 3.68 65.25 3.36 67.19 1.91L67.49 1.69C67.63 4 67.71 7 67.6 10.24Z" fill="#CA8F05"/>
<path d="M67.49 1.71001C49.2 17.26 45.82 14.11 34.21 3.05001C19.21 16.35 19.58 14.77 3.20999 3.52001C4.49999 4.37001 6.33999 5.52001 8.73999 6.81001C12.3595 8.69858 16.1414 10.2582 20.04 11.47L20.64 11.2C25.8364 8.80992 30.4321 5.28716 34.09 0.890015C37.7693 5.25653 42.3511 8.7739 47.52 11.2L48.12 11.47C52.0183 10.2574 55.8001 8.6978 59.42 6.81001C62.1319 5.38598 64.7296 3.75445 67.19 1.93001L67.49 1.71001Z" fill="#FFD673"/>
<path opacity="0.4" d="M8.64 19.08C12.45 22.64 53.24 22.27 59.83 19C61.06 20.16 61.68 9.52003 61.48 9.00003C42.41 18.42 47.35 17.21 34 5.78003C19.59 19.28 20.8 17.78 7.07 10.21C7.11 10.21 6.77 15.84 8.64 19.08Z" fill="#FFD673"/>
</svg>
