<svg width="112" height="57" viewBox="0 0 112 57" fill="none" xmlns="http://www.w3.org/2000/svg">
<path d="M3.70999 27.66L13.06 56.16H95.5L107.05 26.93C88.16 41 86.67 28.52 84.83 14.21C70.36 38.68 59.83 20.78 54.43 6.46001C51.43 28 37.31 34.68 26.22 13.77C29 28 15 41.12 3.70999 27.66V27.66Z" fill="#FEAF1F"/>
<path d="M29.08 11.41C29.46 13.41 28.53 16.57 26.2 16.18C19 13.59 25.83 2.18001 29.08 11.41Z" fill="#E31F37"/>
<path d="M6 23.68C7 28.8 1.62 30.43 0.129998 24.91C-0.840002 19.79 4.49 18.16 6 23.68Z" fill="#E31F37"/>
<path d="M82.11 11.41C81.11 16.53 86.49 18.15 87.98 12.63C88.94 7.51001 83.6 5.89001 82.11 11.41Z" fill="#E31F37"/>
<path d="M105.21 23.68C104.21 28.8 109.59 30.43 111.07 24.91C112 19.79 106.7 18.16 105.21 23.68Z" fill="#E31F37"/>
<path d="M60 32.92C59.57 41.92 50.82 42.32 49.79 33.92C48.93 23.35 60 23 60 32.92Z" fill="#E31F37"/>
<path d="M34.05 33.91C35.05 39.03 29.67 40.66 28.18 35.14C27.22 30 32.55 28.4 34.05 33.91Z" fill="#E31F37"/>
<path d="M16 39.7C16.72 42.88 12.43 44.11 12.31 39.43C12.49 37.1 15 36.64 16 39.7Z" fill="#E31F37"/>
<path d="M76.71 33.91C75.71 39.03 81.08 40.66 82.57 35.14C83.53 30 78.2 28.4 76.71 33.91Z" fill="#E31F37"/>
<path d="M94.78 39.7C94.06 42.88 98.36 44.11 98.47 39.43C98.26 37.1 95.73 36.64 94.78 39.7Z" fill="#E31F37"/>
<path d="M97.69 50.61H11.24L9.85999 46.41H99.35L97.69 50.61Z" fill="#E31F37"/>
<path d="M55.17 5C55.17 5 58.5 -1.68 62.82 0.599997C71.09 5 55.17 18 55.17 18C36 1.51 51.4 -5.22 55.17 5Z" fill="#F54144"/>
<path d="M50.34 3.00001C50.92 4.46001 51.34 6.00001 51.86 7.45001C52.86 6.45001 53.86 5.35001 54.86 4.27001C54.1989 2.90094 53.2426 1.69538 52.06 0.740005L50.06 2.41001L50.34 3.00001Z" fill="#EA5F86"/>
<path opacity="0.6" d="M50 3.1L49.81 2.62C48.47 3.77 47.14 4.93 45.89 6.17C46.5397 7.87382 47.4395 9.47135 48.56 10.91C49.56 9.84 50.56 8.77999 51.56 7.72C51.13 6.17 50.65 4.61 50 3.1V3.1Z" fill="#EA5F86"/>
<path opacity="0.8" d="M62.27 1.44C62.43 1.15 62.61 0.869999 62.77 0.569999C61.3461 -0.153824 59.6282 0.038809 58.4 1.06C59.24 2 60.14 2.82 61 3.72L62.27 1.44Z" fill="#EA5F86"/>
<path opacity="0.6" d="M63.08 0.75C62.5 1.85 61.79 2.91 61.21 4C62.21 5.14 63.29 6.32 64.33 7.48C65.6 4.81 65.7 2.3 63.08 0.75Z" fill="#EA5F86"/>
<path d="M60.79 4.07V4C60.2 3.37 59.39 2.57 58.12 1.25C57.1872 2.03606 56.3841 2.9641 55.74 4C56.74 5.27 57.8 6.57 58.8 7.88C59.43 6.61 60.08 5.33 60.79 4.07Z" fill="#EA5F86"/>
<path d="M61.05 4.25C60.34 5.54 59.65 6.85 59.05 8.18C59.91 9.31 60.77 10.44 61.66 11.55C62.6399 10.3698 63.4976 9.09327 64.22 7.74C63.14 6.58 62.11 5.4 61.05 4.25V4.25Z" fill="#EA5F86"/>
<path opacity="0.8" d="M53.38 13.6C53.06 12.39 52.38 10.24 51.72 8.06C50.72 9.06 49.72 10.12 48.79 11.17C50.4662 13.3148 52.3121 15.3212 54.31 17.17C54 16 53.71 14.8 53.38 13.6V13.6Z" fill="#EA5F86"/>
<path d="M55.57 4.31C55.31 4.73 55.17 5.02 55.17 5.02C55.17 5.02 55.1 4.85 54.97 4.59C53.97 5.68 52.97 6.74 51.97 7.8C52.86 10.57 53.74 13.58 54.66 17.36C55.72 14.9 57.01 11.67 58.66 8.22C57.63 6.9 56.62 5.59 55.57 4.31V4.31Z" fill="#EA5F86"/>
<path opacity="0.8" d="M58.47 9.31C57.47 11.52 56.15 14.6 54.85 17.73L55.17 18.01C57.4209 16.1155 59.5083 14.0348 61.41 11.79C60.55 10.7 59.7 9.6 58.86 8.5L58.47 9.31Z" fill="#EA5F86"/>
<path opacity="0.8" d="M50 2.11L51.79 0.560002C51.0039 0.0386064 50.0336 -0.124934 49.12 0.110002C49.41 0.770002 49.7 1.44 50 2.11Z" fill="#EA5F86"/>
<path d="M48.82 0.199997C45.69 1.27 45.12 3.4 45.82 5.83C47.06 4.6 48.38 3.46 49.71 2.32C49.43 1.61 49.13 0.909997 48.82 0.199997V0.199997Z" fill="#EA5F86"/>
</svg>
