<svg width="103" height="78" viewBox="0 0 103 78" fill="none" xmlns="http://www.w3.org/2000/svg">
<path d="M16.3 2.20002C-4.24998 7.54002 -1.39998 21 6.92002 34.84C6.99002 34.97 7.06002 35.1 7.12002 35.23C14.6577 42.2215 24.4127 46.3416 34.68 46.87C41.5 35.41 46.78 21.24 49.84 7.87002C39.9813 1.28056 27.7769 -0.782627 16.3 2.20002V2.20002Z" fill="#DC3030"/>
<path d="M100.32 11.11C89.69 -2.93999 66.16 -1.27999 52.6 7.87001C55.6565 21.5605 60.7677 34.7094 67.76 46.87C78.0264 46.3374 87.78 42.2179 95.32 35.23C95.38 35.1 95.45 34.97 95.52 34.84C99.07 28.52 104.53 19 100.32 11.11V11.11Z" fill="#DC3030"/>
<path d="M90.92 65.54C78.7929 72.4076 65.1621 76.1854 51.23 76.54C37.2948 76.2059 23.6591 72.4268 11.54 65.54C11.09 62.5699 11.435 59.5335 12.54 56.74C12.54 56.65 12.61 56.56 12.65 56.47C23.98 62.14 37.93 65.27 51.24 65.47C64.24 65.13 77.52 62.56 89.83 56.47C89.83 56.56 89.91 56.65 89.94 56.74C91.0245 59.5387 91.3622 62.5714 90.92 65.54V65.54Z" fill="#FFB401"/>
<path d="M95.42 35.81C95.42 36.08 95.42 36.34 95.33 36.61C94.5968 43.4033 92.5487 49.989 89.3 56C77.3098 61.3839 64.3604 64.305 51.22 64.59C38.0786 64.3131 25.1276 61.3917 13.14 56C9.90092 49.9765 7.86315 43.3809 7.14002 36.58C7.14002 36.31 7.07002 36.05 7.05002 35.78L7.44002 36.16C7.55002 36.26 7.44002 36.21 7.93002 36.61C15.5154 43.3431 25.2045 47.2314 35.34 47.61C42.7 34.45 48.65 19.27 51.22 3.52002C53.9387 19.0438 59.3213 33.9805 67.13 47.67C77.4917 47.2888 87.376 43.2173 95 36.19L95.42 35.81Z" fill="#FFB401"/>
<path d="M99.63 8.79001C87.69 -3.22999 66 -1.99999 52.41 7.00001C52 5.11001 51.83 4.49001 51.22 1.26001C50.93 2.80001 50.57 4.62001 50 7.00001C25.5 -8.87999 -16.17 3.00001 6.57001 35.62C6.95384 42.7325 8.8529 49.681 12.14 56L12.05 56.18C10.5871 59.2005 10.1214 62.6077 10.72 65.91C22.51 73.12 37 77 51.22 77.36C64.93 76.95 79.5 73.36 91.72 65.91C92.3076 62.6074 91.8423 59.2037 90.39 56.18L90.3 56C93.5712 49.6747 95.4693 42.7298 95.87 35.62C100.19 28.26 106.18 17 99.63 8.79001V8.79001ZM6.54001 34.14C-15.46 1.00001 29.75 -6.43999 49.84 7.87001C46.7835 21.5605 41.6723 34.7094 34.68 46.87C24.4136 46.3374 14.66 42.2179 7.12001 35.23C7.06001 35.1 6.99001 34.97 6.92001 34.84L6.54001 34.14ZM91 60.73C91.1688 62.3306 91.142 63.9459 90.92 65.54C78.7956 72.4141 65.1632 76.1923 51.23 76.54C37.2972 76.1899 23.6654 72.4118 11.54 65.54C11.09 62.5698 11.435 59.5335 12.54 56.74C12.54 56.65 12.61 56.56 12.65 56.47C23.98 62.14 37.93 65.27 51.24 65.47C64.24 65.15 77.57 62.53 89.83 56.47C89.83 56.56 89.91 56.65 89.94 56.74C90.444 58.0253 90.7997 59.364 91 60.73V60.73ZM95.33 36.61C94.5968 43.4033 92.5487 49.989 89.3 56C77.3102 61.3852 64.3606 64.3063 51.22 64.59C38.0791 64.3093 25.1289 61.388 13.14 56C9.90091 49.9765 7.86315 43.3809 7.14001 36.58C7.14001 36.31 7.07001 36.05 7.05001 35.78L7.44001 36.16C15.0818 43.1781 24.9719 47.2476 35.34 47.64C43.1275 33.9543 48.4994 19.0294 51.22 3.52001C53.9492 19.041 59.3312 33.976 67.13 47.67C77.4879 47.2714 87.3664 43.2023 95 36.19L95.39 35.81C95.4 36.08 95.37 36.34 95.33 36.61V36.61ZM98.75 28.8C98.07 30.16 96.75 32.57 95.52 34.8C95.45 34.93 95.38 35.06 95.32 35.19C87.7881 42.1961 78.0325 46.3306 67.76 46.87C60.94 35.41 55.66 21.24 52.6 7.87001C70.05 -5.60999 113.83 0.310009 98.75 28.8V28.8Z" fill="#B06305"/>
<path d="M5.33 9.37001C-0.780002 17.06 10.15 35.56 21.88 34.51C33.61 33.46 42.2 13.77 42.2 7.91001C42.2 2.05001 13.5 -0.889986 5.33 9.37001V9.37001Z" fill="#DC3030"/>
<path d="M95.12 9.37001C101.23 17.06 90.3 35.56 78.57 34.51C66.84 33.46 58.25 13.77 58.25 7.91001C58.25 2.05001 87 -0.889986 95.12 9.37001V9.37001Z" fill="#DC3030"/>
<path d="M93.33 37.7C84.65 48.41 65.66 50.22 65.66 50.22C65.66 50.22 54.77 32.41 51 15C46.81 32.18 36.13 50.4 36.13 50.4C29.2091 48.5876 22.5361 45.9345 16.26 42.5C22.1452 45.6176 28.6553 47.3741 35.31 47.64C43.108 33.9563 48.49 19.0313 51.22 3.52002C53.9492 19.041 59.3312 33.976 67.13 47.67C76.7159 47.2877 85.915 43.7871 93.33 37.7Z" fill="#FFD673"/>
<path opacity="0.4" d="M83.45 48.54C82.19 46.87 65.64 53.54 65.64 53.54C61.58 49.34 53 30 51.41 25.34C49.85 30.07 41.18 49.39 37.17 53.57C31.33 51.57 11.32 41.5 21.25 57.57C23.31 58.9 35.93 63.86 51.41 63.44C72.16 62.93 87.35 59.32 83.45 48.54V48.54Z" fill="#FFD673"/>
<path opacity="0.4" d="M20 61.53C18.38 65.04 18.48 67.43 19.7 67.53C26.7 71.4 45.54 77.53 59.24 74.14C68 72.76 75.89 70.61 77 69.7C79.79 62.59 77.52 63.06 73.89 64.13C44.36 72.85 29.38 62 20 61.53V61.53Z" fill="#FFD673"/>
<path opacity="0.3" d="M13.7 57C15.1733 57.72 16.6833 58.3867 18.23 59C18.23 59 13.66 63.2 14.16 67L11.52 65.59C11.07 62.6199 11.415 59.5835 12.52 56.79C12.52 56.7 12.59 56.61 12.63 56.52L13.7 57Z" fill="#CA8F05"/>
<path opacity="0.3" d="M11.88 53.66C9.40471 48.2799 7.79487 42.5425 7.11002 36.66C7.11002 36.39 7.04002 36.13 7.02002 35.86L7.41002 36.24C7.52002 36.34 7.41002 36.29 7.90002 36.69C9.65092 38.2852 11.5381 39.724 13.54 40.99C13.46 47.29 16.54 55.12 17.75 57.99C16.21 57.39 14.67 56.77 13.14 56.11C12.82 55.45 12.52 55 11.88 53.66Z" fill="#CA8F05"/>
<path opacity="0.3" d="M91 60.73C91.1689 62.3306 91.142 63.9458 90.92 65.54C88.86 66.67 86.79 67.75 84.66 68.75C85.6884 65.4598 85.8911 61.967 85.25 58.58C86.51 58.03 87.61 57.58 89.81 56.47C89.81 56.56 89.89 56.65 89.92 56.74C90.4309 58.0245 90.7932 59.3632 91 60.73V60.73Z" fill="#CA8F05"/>
<path opacity="0.3" d="M95.42 35.81C95.42 36.08 95.42 36.34 95.33 36.61C94.5968 43.4033 92.5487 49.989 89.3 56C88.04 56.54 86.78 57.06 85.51 57.56C87.68 53.88 88.89 47.11 87.51 41.73C90.1976 40.1565 92.7087 38.2992 95 36.19L95.42 35.81Z" fill="#CA8F05"/>
</svg>
