<svg width="109" height="103" viewBox="0 0 109 103" fill="none" xmlns="http://www.w3.org/2000/svg">
<path d="M18.17 69.26C19.75 68.99 18.3 67.68 18.96 66.75C19.5011 65.9222 20.5445 65.5813 21.47 65.93L16.47 56.09C16.81 57.09 14.11 58.95 13.1 59.8C13.1 62.73 14.34 65.45 15.53 68.28C16.56 67.8 17 69.61 18.17 69.26V69.26Z" fill="#E9A0F6"/>
<path d="M21.47 65.93C20.5445 65.5813 19.5011 65.9222 18.96 66.75C18.3 67.68 19.75 68.99 18.17 69.26C17.01 69.61 16.56 67.8 15.56 68.26C16.09 69.51 16.56 70.77 17.01 72.08C20.38 72.76 22.01 74.95 24.26 71.41L21.47 65.93Z" fill="#D881EA"/>
<path d="M91.05 69.26C89.46 68.99 90.91 67.68 90.26 66.75C89.7154 65.9206 88.6684 65.58 87.74 65.93L92.74 56.09C92.4 57.09 95.1 58.95 96.11 59.8C96.11 62.73 94.87 65.45 93.67 68.28C92.65 67.8 92.21 69.61 91.05 69.26Z" fill="#E9A0F6"/>
<path d="M87.74 65.93C88.6684 65.5799 89.7154 65.9206 90.26 66.75C90.91 67.68 89.46 68.99 91.05 69.26C92.21 69.61 92.65 67.8 93.65 68.26C93.13 69.51 92.65 70.77 92.21 72.08C88.84 72.76 87.15 74.95 84.96 71.41L87.74 65.93Z" fill="#D881EA"/>
<path d="M51.41 99.21H84.29V86.27L102.66 20.18C102.66 20.18 75 43.61 74.51 43.78C74.02 43.95 54.51 9.53 54.51 9.53C54.51 9.53 35.21 44 34.71 43.78C34.21 43.56 6.54999 20.18 6.54999 20.18L24.93 86.27V99.21H57.8" fill="#F3D15C"/>
<path d="M56.27 54C55.3694 53.0029 54.3931 52.0768 53.35 51.23C46.02 54.39 45.35 65.51 49.7 71.36C51.31 72.36 54.37 74.57 56.27 75.16C57.44 73.4 59.04 71.51 59.77 69.61C60.65 66.84 59.33 63.92 58.6 61.15L56.27 54Z" fill="#D8AA39"/>
<path d="M71.44 57.89C61.68 64.89 79.67 65.83 72.32 58.33L71.44 57.89Z" fill="#D8AA39"/>
<path d="M79.91 59.35C78.16 60.22 77.43 63.43 79.91 64.16C83.56 65.33 83.41 60.08 80.64 59.16L79.91 59.35Z" fill="#D8AA39"/>
<path d="M37.74 58.18C36.4285 58.4156 35.496 59.5885 35.5619 60.9193C35.6278 62.2501 36.6717 63.3251 38 63.43C41.36 63.58 41.06 59.05 38.15 58.33L37.74 58.18Z" fill="#D8AA39"/>
<path d="M28.55 59.49C20.94 67.13 36.13 65.75 28.98 59.49H28.55Z" fill="#D8AA39"/>
<path d="M26.59 59.92C23.77 61.92 26.18 66.54 29.52 63.87C31.63 62.06 29.17 58.2 26.59 59.92Z" fill="#CD68D8"/>
<path d="M36.56 58.45C34.34 59.01 34.48 63.61 37.56 63.77C40.53 63.4 40.71 57.46 36.56 58.45Z" fill="#CD68D8"/>
<path d="M58.63 58.58C55.86 57.13 58.63 62.67 57.84 63.99C56.25 66.62 54.67 61.75 53.62 61.09C53.62 61.88 54.28 65.7 53.75 66.23C52.43 67.23 51.51 64.78 50.85 64.12C50.1 63.06 49.41 62.71 48.77 62.89C47.88 68.47 51.53 69.34 55.32 72.95C60.63 68.62 61.42 66.5 60.97 61.18C60.4702 60.0971 59.6545 59.1907 58.63 58.58V58.58Z" fill="#D881EA"/>
<path d="M54.81 50.69C53.06 52.55 50.64 54.4 48.81 56.26V62.89C49.45 62.71 50.14 63.06 50.89 64.12C51.55 64.78 52.47 67.28 53.79 66.23C54.32 65.7 53.66 61.88 53.66 61.09C54.71 61.75 56.29 66.62 57.88 63.99C58.67 62.67 55.88 57.13 58.67 58.58C59.6908 59.1923 60.5029 60.0985 61 61.18C61 59.56 61 57.97 61 56.09L54.81 50.69Z" fill="#E9A0F6"/>
<path d="M54.28 53.44C53.09 53.44 49.28 57.79 50.46 58.44C51.64 59.09 51.38 57.39 51.91 57.12C52.44 56.85 53.32 57.56 53.91 56.2C54.44 55.81 56.91 54.36 55.23 53.57L54.28 53.44Z" fill="#F1C5FF"/>
<path d="M82.63 59.92C84.79 61.28 84 65.92 80.38 64.39C77.35 63 79.59 58 82.63 59.92Z" fill="#CD68D8"/>
<path d="M72.66 58.45C74.87 59.01 74.74 63.61 71.66 63.77C68.69 63.4 68.51 57.46 72.66 58.45Z" fill="#CD68D8"/>
<path d="M53.84 7.43C52.14 7.35 51 5.24 49.17 5.8C50 13.39 61.53 12 59.87 4.06C58.8283 4.03298 57.8018 4.31481 56.92 4.87C55.64 5.72 55.64 7.52 53.84 7.43Z" fill="#D881EA"/>
<path d="M54.61 0C51.5079 0.103279 49.0746 2.69766 49.17 5.8C52.56 5.95 54.3 9.43 56.92 4.87C57.8019 4.31481 58.8283 4.03298 59.87 4.06C59.2398 1.67073 57.081 0.00442742 54.61 0V0Z" fill="#E9A0F6"/>
<path d="M105 17.88C104.23 17.53 104.14 17.96 103.63 17.11C103.29 16.42 103.71 15.48 103.2 14.71C102 13.09 99.36 14.71 98.07 13.17C97.9019 12.9685 97.7791 12.7331 97.71 12.48C95.41 17.01 101.79 23.02 106.37 18.73C106 18.16 105.71 18.28 105 17.88V17.88Z" fill="#D881EA"/>
<path d="M108.13 14.71C108.13 9.14 100.22 7.15 97.68 12.48C97.7491 12.7331 97.8719 12.9685 98.04 13.17C99.33 14.71 101.97 13.09 103.17 14.71C103.68 15.48 103.26 16.42 103.6 17.11C104.11 17.96 104.2 17.53 104.97 17.88C105.74 18.23 106.03 18.16 106.34 18.73C107.476 17.7019 108.126 16.2423 108.13 14.71V14.71Z" fill="#E9A0F6"/>
<path d="M5.44999 10.94C3.41659 10.9798 1.56913 12.1325 0.639594 13.9415C-0.289944 15.7504 -0.151531 17.9236 0.999993 19.6C1.05492 19.324 1.14219 19.0555 1.25999 18.8C2.44999 16.66 3.38999 18.12 5.18999 18.37C7.49999 18.63 7.40999 16.49 8.18999 14.87C8.47418 14.1064 8.99211 13.452 9.66999 13C8.64833 11.7091 7.0962 10.9515 5.44999 10.94Z" fill="#E9A0F6"/>
<path d="M8.19999 14.87C7.42999 16.49 7.51999 18.63 5.19999 18.37C3.39999 18.12 2.45999 16.66 1.26999 18.8C1.15219 19.0555 1.06492 19.324 1.00999 19.6C5.26999 25.18 14.2 19.17 9.65999 12.97C8.98458 13.4329 8.4734 14.0982 8.19999 14.87Z" fill="#D881EA"/>
<path d="M88.15 99.42C87.84 104.02 69.99 100.93 52.42 101.78C35.49 101.14 21.59 103.66 21.42 99.42C21.72 94.82 39.57 97.91 57.15 97.06C74.07 97.7 87.97 95.17 88.15 99.42Z" fill="#EBB33A"/>
<path d="M88.15 86.77C87.84 91.37 69.99 88.28 52.42 89.13C35.49 88.49 21.59 91.01 21.42 86.77C21.72 82.17 39.57 85.26 57.15 84.41C74.07 85.05 87.97 82.52 88.15 86.77Z" fill="#EBB33A"/>
<path d="M24.48 97.06C43.22 96.41 65.74 96.39 85.05 97.06C66.31 97.72 43.79 97.73 24.48 97.06V97.06Z" fill="#CE8A29"/>
<path d="M82.83 89.12C64.83 89.78 43.11 89.8 24.48 89.12C42.5 88.47 64.2 88.45 82.83 89.12Z" fill="#CE8A29"/>
<path d="M24.48 84.41C43.22 83.76 65.74 83.74 85.05 84.41C66.31 85.07 43.79 85.08 24.48 84.41V84.41Z" fill="#CE8A29"/>
<path d="M27.38 60.22C27.23 61.1 27.38 61.97 28.25 62.12C30.59 62.7 29.13 58.33 27.38 60.51V60.22Z" fill="#E9A0F6"/>
<path d="M36.28 59.2C35.99 60.08 36.13 60.66 37.01 60.81C38.61 60.95 37.88 57.89 36.28 59.35V59.2Z" fill="#E9A0F6"/>
<path d="M71.59 59.2C71.3 59.2 70.71 59.49 70.71 60.37C70.86 63.29 74.8 59.37 71.71 59.49L71.59 59.2Z" fill="#E9A0F6"/>
<path d="M81.07 60.22C80.6843 60.7742 80.5772 61.4759 80.78 62.12C81.95 63.87 83.99 60.66 81.22 60.37L81.07 60.22Z" fill="#E9A0F6"/>
<path d="M10.92 28.27C17.19 33.9 29.72 45.27 35.83 50.91L35.27 51C41.27 41.75 48.61 24.43 55.2 17.17C60.93 27.17 68.92 40.92 74.62 51L74.05 50.92C79.92 45.22 91.77 33.82 97.6 28.27C91.6 33.91 80.25 46.72 74.05 51.43C74.0454 51.4069 74.0454 51.3831 74.05 51.36C68.39 41.79 60.05 27.36 54.39 17.67H55.25C49.54 27.67 41.74 41.37 35.95 51.36C29.38 47 17.16 33.68 10.92 28.27V28.27Z" fill="#CE8A29"/>
<path d="M22.56 77.76C42.33 77.1 66.06 77.08 86.39 77.76C66.62 78.41 42.89 78.43 22.56 77.76V77.76Z" fill="#CE8A29"/>
</svg>
