<svg width="92" height="69" viewBox="0 0 92 69" fill="none" xmlns="http://www.w3.org/2000/svg">
<g clip-path="url(#clip0_1_825)">
<path d="M10.47 36.24L24.21 68.09H64.12L77.29 37.52L53.93 50.54L43.88 31.71L33.12 51.53L10.47 36.24Z" fill="#FEAF1F"/>
<path d="M6.37 25.48L9.91 33.84L32.56 48.84L43.88 28.74L54.35 47.71L78.42 34.97L83.23 24.92L56.05 40.21L44.8 12.89L31.28 42.05L6.37 25.48Z" fill="#E31F37"/>
<path d="M38 6.66C38.38 -2.44 51.31 -2 51.59 6.66C51.21 15.76 38.28 15.32 38 6.66Z" fill="#E31F37"/>
<path d="M82 21.8C82.14 16.1 90.7 15.8 91.05 21.8C90.87 27.52 82.31 27.77 82 21.8Z" fill="#E31F37"/>
<path d="M0 20.67C0.15 14.52 9.33 14.38 9.62 20.67C9.48 26.82 0.3 27 0 20.67Z" fill="#E31F37"/>
</g>
<defs>
<clipPath id="clip0_1_825">
<rect width="92" height="69" fill="white"/>
</clipPath>
</defs>
</svg>
