<svg width="106" height="98" viewBox="0 0 106 98" fill="none" xmlns="http://www.w3.org/2000/svg">
<path fill-rule="evenodd" clip-rule="evenodd" d="M86.8116 96.8359H18.5256V85.8029L6.5376 14.3699L36.8706 55.8899L50.7106 6.4109L69.7416 55.1979L98.8056 14.3699L86.9056 85.2779L86.8116 96.8359Z" fill="#F29100"/>
<path fill-rule="evenodd" clip-rule="evenodd" d="M86.8116 96.8359H18.5256V85.8029L6.5376 14.3699L36.8706 55.8899L50.7106 6.4109L69.7416 55.1979L98.8056 14.3699L86.9056 85.2779L86.8116 96.8359Z" stroke="#462259" stroke-width="2"/>
<path fill-rule="evenodd" clip-rule="evenodd" d="M86.8116 96.8359H18.5256V85.8029L6.5376 14.3699L25.4526 80.6879L66.5126 85.8029L27.0676 89.2229L86.8116 96.8359Z" fill="#DC7002"/>
<path fill-rule="evenodd" clip-rule="evenodd" d="M56.2471 6.4111C55.9001 13.7901 45.4681 13.4591 45.1751 6.4111C45.5211 -0.9679 55.9541 -0.6369 56.2471 6.4111Z" fill="#F29100"/>
<path fill-rule="evenodd" clip-rule="evenodd" d="M56.2471 6.4111C55.9001 13.7901 45.4681 13.4591 45.1751 6.4111C45.5211 -0.9679 55.9541 -0.6369 56.2471 6.4111Z" stroke="#462259" stroke-width="2"/>
<path fill-rule="evenodd" clip-rule="evenodd" d="M104.342 14.3696C103.995 21.7486 93.5619 21.4176 93.2699 14.3696C93.6159 6.9906 104.049 7.3216 104.342 14.3696Z" fill="#F29100"/>
<path fill-rule="evenodd" clip-rule="evenodd" d="M104.342 14.3696C103.995 21.7486 93.5619 21.4176 93.2699 14.3696C93.6159 6.9906 104.049 7.3216 104.342 14.3696Z" stroke="#462259" stroke-width="2"/>
<path fill-rule="evenodd" clip-rule="evenodd" d="M12.0733 14.3696C11.7263 21.7486 1.2933 21.4176 1.0013 14.3696C1.3473 6.9906 11.7803 7.3216 12.0733 14.3696Z" fill="#F29100"/>
<path fill-rule="evenodd" clip-rule="evenodd" d="M12.0733 14.3696C11.7263 21.7486 1.2933 21.4176 1.0013 14.3696C1.3473 6.9906 11.7803 7.3216 12.0733 14.3696Z" stroke="#462259" stroke-width="2"/>
<path d="M3.1348 14.1962C2.8118 16.3472 5.2518 16.8962 6.7678 17.1372" stroke="#462259" stroke-width="2" stroke-linecap="round"/>
<path d="M47.5968 6.0654C47.3718 8.3944 48.9408 9.7894 51.2298 9.5254" stroke="#462259" stroke-width="2" stroke-linecap="round"/>
<path d="M95.6925 13.8505C95.4125 16.0315 97.1495 17.1695 99.1525 16.9645" stroke="#462259" stroke-width="2" stroke-linecap="round"/>
<path fill-rule="evenodd" clip-rule="evenodd" d="M6.41019 11.3105C4.41919 12.8425 6.81419 12.4915 8.22019 13.9035C8.35219 14.6315 8.44519 15.6335 9.70519 15.2925C12.0342 13.8035 8.52419 11.1205 6.41019 11.3105" fill="#FEFEFE"/>
<path fill-rule="evenodd" clip-rule="evenodd" d="M54.2569 4.5112C54.0599 3.0352 49.1359 1.7192 50.1599 4.7492C50.2119 4.8232 50.2609 4.8992 50.3209 4.9672C51.1879 5.7672 54.7439 7.8712 54.2569 4.5112" fill="#FEFEFE"/>
<path fill-rule="evenodd" clip-rule="evenodd" d="M98.2403 11.7187C99.0233 12.4227 100.239 14.6747 101.929 15.3237C104.522 13.8677 99.9263 9.0967 98.2403 11.7187" fill="#FEFEFE"/>
<path fill-rule="evenodd" clip-rule="evenodd" d="M18.5255 84.8027L65.1285 85.8027L18.5255 86.8027V84.8027Z" fill="#462259"/>
<path fill-rule="evenodd" clip-rule="evenodd" d="M36.1036 56.5317L12.0736 26.2487L37.6376 55.2487L36.1036 56.5317Z" fill="#462259"/>
<path fill-rule="evenodd" clip-rule="evenodd" d="M74.1241 54.8525C75.6891 51.4875 78.7671 46.2745 81.9481 41.6025C83.3351 39.4005 89.4361 31.3415 91.4251 29.4785C89.8621 32.8445 86.7851 38.0585 83.6011 42.7285C82.2121 44.9295 76.1091 52.9865 74.1241 54.8525Z" fill="#462259"/>
<path fill-rule="evenodd" clip-rule="evenodd" d="M51.6514 11.6083L61.2064 41.0703L49.7704 12.2863L51.6514 11.6083Z" fill="#462259"/>
<path fill-rule="evenodd" clip-rule="evenodd" d="M28.2198 76.0742L15.7638 35.2452L37.9078 60.8502L49.4028 22.7892L70.2018 63.6182L94.4228 32.0152L84.5048 83.9172L84.9658 93.3752L47.5748 90.1442L75.0468 85.8032L28.2198 76.0742Z" fill="#F9BC00"/>
</svg>
