<svg width="106" height="67" viewBox="0 0 106 67" fill="none" xmlns="http://www.w3.org/2000/svg">
<g clip-path="url(#clip0_1_1180)">
<path d="M96.58 63C98.32 59.53 101.75 51.71 102.36 43.36C70.36 42.26 59.36 31.92 51.81 2.62L51.18 0L50.55 2.66C42.92 34.44 28.43 42.41 0 43.4C1.3 53.81 3.79 60.32 7.78 66.06C27.27 55.2 75.35 58.38 94.21 66.44C95.1976 65.4429 96.0001 64.2781 96.58 63V63Z" fill="#ECB43B"/>
<path d="M0 47.16L4.39 47C5.85 46.9 7.3 46.76 8.76 46.64C11.09 46.38 13.93 46.07 17.45 45.48L19.58 45L21.69 44.47C25.8956 43.3121 29.8917 41.4963 33.53 39.09C34.14 38.69 34.73 38.27 35.29 37.82C35.85 37.37 36.43 37 37 36.47C37.57 35.94 38.08 35.47 38.59 35C40.1405 33.4686 41.5434 31.7945 42.78 30C43.5902 28.824 44.3314 27.6019 45 26.34C45.72 25.09 46.32 23.77 46.92 22.45L47.74 20.45C48.5084 18.4144 49.1398 16.3298 49.63 14.21C51.18 3.07 52.35 17.21 55.58 22.93C56.26 24.3 56.87 25.72 57.58 27.06L59.67 30.42C61.02 32.06 61.12 32.42 62.92 34.37L65.33 36.79C66.1856 37.533 67.0874 38.221 68.03 38.85C68.6664 39.267 69.324 39.6508 70 40C71.3218 40.742 72.6839 41.4097 74.08 42C76.8886 43.2302 79.7912 44.2334 82.76 45C84.24 45.39 85.76 45.71 87.24 46C88.72 46.29 90.24 46.56 91.76 46.77C94.2 47.12 97.18 47.44 100.91 47.61H103.21H105.51L103.21 47.71H100.91C97.835 47.6613 94.7645 47.4577 91.71 47.1C90.18 46.93 88.71 46.68 87.14 46.44C85.57 46.2 84.14 45.87 82.62 45.5C79.6193 44.7783 76.6722 43.8494 73.8 42.72C72.372 42.1283 70.9767 41.4607 69.62 40.72C68.931 40.3549 68.2632 39.9509 67.62 39.51C66.6369 38.8789 65.7011 38.177 64.82 37.41L62.33 35C61.7 34.45 59.95 32.14 58.99 31L56.81 27.53C56.07 26.17 55.46 24.77 54.81 23.39C53.24 19.46 51.23 15.18 50.53 10.13H51.53C51.27 11.58 51.03 13.03 50.66 14.47C50.44 15.47 50.18 16.47 49.45 18.73C49.2 19.42 48.97 20.13 48.71 20.81L47.86 22.86C47.24 24.2 46.62 25.54 45.86 26.86C45.38 27.74 44.86 28.61 43.52 30.61C42.2355 32.4264 40.786 34.1202 39.19 35.67C38.66 36.19 38.12 36.67 37.55 37.16C36.98 37.65 36.41 38.11 35.81 38.54C31.6067 41.5625 26.8652 43.755 21.84 45L19.69 45.51L17.52 45.91C15.18 46.25 12.34 46.56 8.78 46.91C7.31 46.99 5.85 47.1 4.39 47.15L0 47.16Z" fill="#CE8A29"/>
<path d="M4.82 64.45C5.0096 64.1275 5.24926 63.8372 5.53 63.59C6.32262 62.896 7.19952 62.3047 8.14 61.83C10.0527 60.9103 12.0356 60.1446 14.07 59.54L17.15 58.72C21.4923 57.779 25.8819 57.0713 30.3 56.6C40.8323 55.5497 51.4281 55.2823 62 55.8C67.789 56.1151 73.5475 56.8503 79.23 58L83 58.9C84.21 59.23 85.37 59.59 86.49 59.9C87.61 60.21 88.64 60.65 89.64 61C90.64 61.35 91.55 61.81 92.42 62.18C93.29 62.55 94.06 63 94.79 63.37C96.3686 64.226 97.8621 65.2305 99.25 66.37C99.5336 66.6087 99.7977 66.8695 100.04 67.15C99.7827 66.8824 99.5053 66.635 99.21 66.41C97.7898 65.3197 96.2658 64.3718 94.66 63.58C93.92 63.24 93.13 62.86 92.27 62.49C91.41 62.12 90.47 61.77 89.48 61.43C88.49 61.09 87.48 60.72 86.32 60.43C85.16 60.14 84.05 59.8 82.84 59.5L79.07 58.68C73.4109 57.6551 67.6929 56.9871 61.95 56.68C47.64 56.2 32.41 56.36 17.24 59.18L14.17 59.89C12.1198 60.4207 10.1138 61.1094 8.17 61.95C7.22298 62.3881 6.33028 62.9351 5.51 63.58C5.2332 63.8296 5 64.1236 4.82 64.45V64.45Z" fill="#CE8A29"/>
<path d="M61.5 56.35C61.6 55.9 61.66 55.45 61.78 55.01C61.8842 54.5628 62.0144 54.122 62.17 53.69C62.4436 52.8024 62.8589 51.9649 63.4 51.21L63.83 50.65L64.32 50.14C64.6622 49.8121 65.0454 49.5297 65.46 49.3C66.52 48.95 65.93 48.74 68.26 48.75C68.7413 48.8036 69.2126 48.9248 69.66 49.11C70.5509 49.5013 71.3485 50.0773 72 50.8C73.5474 52.6391 74.3752 54.977 74.33 57.38L73.48 57.23C74.48 54.94 76.48 50.63 80.48 50.06H81.27C81.54 50.06 81.79 50.06 82.05 50.14C82.5368 50.243 83.0149 50.3834 83.48 50.56C83.9683 50.7299 84.4297 50.969 84.85 51.27C85.0689 51.4205 85.2731 51.5912 85.46 51.78C85.651 51.9612 85.822 52.1623 85.97 52.38C86.2688 52.8139 86.4951 53.2935 86.64 53.8C86.7718 54.2907 86.8555 54.7931 86.89 55.3C86.9034 56.7522 86.7762 58.2023 86.51 59.63L85.69 59.36C86.5428 57.6888 87.7229 56.2061 89.16 55C89.84 55.1 89.56 53.18 94.57 53.58C94.8062 53.6323 95.0371 53.706 95.26 53.8C95.4817 53.8812 95.6958 53.9816 95.9 54.1C96.1173 54.2123 96.3247 54.3427 96.52 54.49C96.7159 54.6275 96.8968 54.785 97.06 54.96C97.2382 55.123 97.3991 55.3039 97.54 55.5C97.6913 55.6803 97.8252 55.8745 97.94 56.08C98.47 57.47 99.78 59.8 97.87 62.72C98.9558 60.6905 98.8523 58.2312 97.6 56.3C97.4808 56.1136 97.3435 55.9394 97.19 55.78C96.8898 55.454 96.5544 55.1622 96.19 54.91C96.0148 54.7869 95.831 54.6766 95.64 54.58C95.4437 54.4778 95.2397 54.3908 95.03 54.32C94.8308 54.239 94.6227 54.182 94.41 54.15C93.83 54.31 92.8 53.21 89.61 55.59C87.13 57.01 85.04 64.85 85.85 55.36C85.8336 54.9014 85.7699 54.4456 85.66 54C85.5401 53.5956 85.3543 53.2138 85.11 52.87C84.9928 52.6944 84.8552 52.5332 84.7 52.39C84.5528 52.241 84.3883 52.11 84.21 52C83.8604 51.7519 83.4763 51.5565 83.07 51.42C82.6513 51.2626 82.2197 51.1421 81.78 51.06L81.15 51C80.94 51 80.73 51 80.52 51C77.43 50.34 75.38 57.35 73.42 57.35C73.4503 56.4699 73.3492 55.5903 73.12 54.74C72.8416 53.456 72.2624 52.2565 71.43 51.24C70.93 50.88 71.83 51.16 69.43 49.66C69.0434 49.4782 68.6324 49.3536 68.21 49.29C67.21 49.44 66.92 48.8 64.61 50.41L64.13 50.87L63.69 51.38C62.6323 52.872 61.8874 54.5626 61.5 56.35V56.35Z" fill="#CE8A29"/>
<path d="M39.19 56.35C39.2914 55.4069 39.6591 54.512 40.25 53.77C40.5567 53.3761 40.9288 53.0379 41.35 52.77C41.9012 52.4918 42.4969 52.3124 43.11 52.24H43.48C44.0128 52.2517 44.5306 52.4185 44.97 52.72C45.9757 53.499 46.682 54.6009 46.97 55.84L46 56C46.0183 55.4413 46.144 54.8913 46.37 54.38C46.681 53.7314 47.1612 53.1786 47.76 52.78C47.89 52.72 48.01 52.63 48.14 52.58C48.3966 52.465 48.6648 52.3778 48.94 52.32C49.2105 52.2645 49.4845 52.2277 49.76 52.21H50.5H51.25C51.5039 52.2431 51.7547 52.2966 52 52.37C52.2532 52.4483 52.4978 52.5521 52.73 52.68C52.9555 52.8141 53.1637 52.9753 53.35 53.16C54.0703 53.8937 54.5002 54.8636 54.56 55.89L53.67 55.81C53.9356 54.8395 54.4372 53.9497 55.13 53.22C55.3124 53.0391 55.5135 52.8782 55.73 52.74C56.1756 52.47 56.68 52.3121 57.2 52.28C57.4515 52.2684 57.7035 52.2886 57.95 52.34C58.1941 52.3726 58.435 52.4261 58.67 52.5C58.9033 52.5802 59.1306 52.6772 59.35 52.79C59.5618 52.9161 59.7625 53.0599 59.95 53.22C60.1348 53.3782 60.3055 53.5522 60.46 53.74C61.0454 54.4912 61.3935 55.3999 61.46 56.35C61.2702 55.4739 60.8528 54.6634 60.25 54C60.0915 53.8496 59.9209 53.7125 59.74 53.59C59.5614 53.4641 59.3704 53.3569 59.17 53.27C58.9738 53.1808 58.7695 53.1104 58.56 53.06C58.3508 53.0041 58.1363 52.9706 57.92 52.96C57.509 52.895 57.0881 52.9399 56.7 53.09C56.5131 53.1668 56.3354 53.264 56.17 53.38C56.0075 53.506 55.8538 53.643 55.71 53.79C55.23 53.48 55 57.14 53.71 56C53.686 55.8045 53.6493 55.6107 53.6 55.42C53.4449 54.853 53.1451 54.3361 52.73 53.92C52.4572 53.6434 52.1097 53.4523 51.73 53.37C51.5444 53.3132 51.3534 53.2764 51.16 53.26C50.97 53.26 50.76 53.26 50.56 53.26H49.82C49.5984 53.2712 49.3779 53.298 49.16 53.34C48.9506 53.3821 48.7462 53.4458 48.55 53.53C48.45 53.53 48.37 53.63 48.27 53.68C47.71 54.08 48.08 53.68 47.27 54.83C47.1727 55.0249 47.0956 55.2293 47.04 55.44C46.9866 55.6467 46.9498 55.8574 46.93 56.07C46.15 56.73 46.46 56.59 44.99 53.83C44.8585 53.672 44.711 53.5279 44.55 53.4C44.3863 53.2415 44.2012 53.1069 44 53C43.715 52.9095 43.4189 52.859 43.12 52.85C42.34 53.18 42.96 52.26 40.47 53.95C39.8414 54.6248 39.4002 55.4521 39.19 56.35V56.35Z" fill="#CE8A29"/>
<path d="M2.82 62.69C1.55135 60.6655 1.52431 58.1008 2.75 56.05C2.8613 55.8424 2.99546 55.6478 3.15 55.47C3.29021 55.2763 3.44751 55.0956 3.62 54.93C3.78666 54.7548 3.97097 54.5973 4.17 54.46C4.35963 54.3126 4.56406 54.1852 4.78 54.08C5.09534 53.8954 5.43088 53.7478 5.78 53.64L6.11 53.56C9.11 52.46 13.33 55.82 15.11 59.33L14.29 59.6C14.0199 58.1729 13.8926 56.7224 13.91 55.27C13.9445 54.7631 14.0282 54.2607 14.16 53.77C14.3007 53.2619 14.5273 52.7816 14.83 52.35C14.975 52.13 15.1462 51.9285 15.34 51.75C15.5269 51.5612 15.7311 51.3905 15.95 51.24C16.368 50.9411 16.8258 50.7021 17.31 50.53C17.7872 50.3486 18.279 50.2081 18.78 50.11L19.5 50.03H20.32C23.58 50.77 25.59 53.03 27.32 57.2L26.47 57.35C26.4505 56.9001 26.4539 56.4495 26.48 56C26.6964 54.0942 27.4724 52.2953 28.71 50.83C29.3466 50.105 30.1263 49.5194 31 49.11C32.3569 48.5361 33.9005 48.6059 35.2 49.3C35.6146 49.5297 35.9978 49.812 36.34 50.14L36.83 50.65L37.25 51.21C37.797 51.9591 38.2161 52.7938 38.49 53.68C38.653 54.1123 38.7932 54.5529 38.91 55C39.03 55.45 39.09 55.9 39.19 56.35C38.8046 54.5712 38.0594 52.89 37 51.41L36.57 50.9L36.09 50.44C35.0821 49.6112 33.7902 49.2093 32.49 49.32C32.0676 49.3836 31.6566 49.5082 31.27 49.69C30.8 50.1 31.27 49.28 29.27 51.27C28.4653 52.3026 27.8923 53.4963 27.59 54.77C27.4835 55.1975 27.4066 55.6319 27.36 56.07C27.3 56.5 27.3 56.94 27.28 57.38C25 57.68 25 51.4 20.17 51C19.97 51 19.77 51 19.57 51C19.37 51 19.11 51 18.88 51.08C18.4552 51.1653 18.0374 51.2823 17.63 51.43C17.2182 51.5684 16.8278 51.7637 16.47 52.01C16.295 52.1242 16.1339 52.2584 15.99 52.41C15.8347 52.5494 15.697 52.7072 15.58 52.88C15.3214 53.2157 15.1249 53.595 15 54C14.8813 54.4214 14.8043 54.8535 14.77 55.29C14.7463 56.677 14.8535 58.0631 15.09 59.43C15.09 59.43 14.94 60.25 14.27 59.7C13.4161 58.1425 12.319 56.7314 11.02 55.52C10.41 55.59 10.69 53.87 6.22 54.08L5.88 54.15L5.59 54.25C5.38486 54.316 5.18713 54.4031 5 54.51C4.80132 54.5982 4.61342 54.7089 4.44 54.84C4.25601 54.9589 4.08209 55.0927 3.92 55.24C3.7543 55.3841 3.60047 55.5412 3.46 55.71C3.31265 55.8721 3.17887 56.046 3.06 56.23C2.49 57.63 1.18 59.71 2.82 62.69V62.69Z" fill="#CE8A29"/>
<path d="M30 53.55C30.5879 53.8225 31.0744 54.2741 31.39 54.84C31.5 55.03 31.61 55.22 31.7 55.4C31.79 55.58 31.86 55.77 31.92 55.91C31.9633 56.0422 32.0203 56.1696 32.09 56.29C32.1173 56.3484 32.1407 56.4085 32.16 56.47H32C31.8341 56.4631 31.6726 56.4149 31.53 56.33C31.1152 56.0895 30.7705 55.7448 30.53 55.33C30.3111 54.9655 30.1555 54.5665 30.07 54.15C30.0278 53.9526 30.0044 53.7517 30 53.55V53.55Z" fill="#CE8A29"/>
<path d="M33.16 56.27C32.8932 55.7043 32.7338 55.0939 32.69 54.47C32.6436 53.8341 32.7499 53.1964 33 52.61C33.138 52.775 33.2494 52.9605 33.33 53.16C33.5093 53.5511 33.6177 53.971 33.65 54.4C33.6775 54.8501 33.6058 55.3007 33.44 55.72C33.3698 55.9142 33.2758 56.099 33.16 56.27Z" fill="#CE8A29"/>
<path d="M34.26 56.35C34.2073 56.1886 34.1803 56.0198 34.18 55.85C34.1591 55.1853 34.4946 54.5601 35.06 54.21C35.199 54.1074 35.3546 54.0296 35.52 53.98C35.5445 54.1458 35.5445 54.3142 35.52 54.48C35.5033 54.7833 35.4142 55.0783 35.26 55.34C35.116 55.6301 34.9114 55.8859 34.66 56.09C34.5383 56.1934 34.4039 56.2808 34.26 56.35V56.35Z" fill="#CE8A29"/>
<path d="M17.21 56.31C17.3808 56.3368 17.5463 56.3909 17.7 56.47C17.9836 56.6239 18.2322 56.835 18.43 57.09C18.6385 57.3176 18.7894 57.592 18.87 57.89C18.9189 58.0523 18.9458 58.2205 18.95 58.39C18.7781 58.3837 18.6087 58.3464 18.45 58.28C18.1368 58.1457 17.8569 57.9443 17.63 57.69C17.4371 57.4325 17.3039 57.1353 17.24 56.82C17.2039 56.6525 17.1938 56.4805 17.21 56.31V56.31Z" fill="#CE8A29"/>
<path d="M20 58.2C19.8148 57.924 19.6669 57.6247 19.56 57.31C19.5093 57.1638 19.4724 57.0131 19.45 56.86C19.3744 56.3685 19.4261 55.8659 19.6 55.4C19.7515 55.4941 19.8866 55.6124 20 55.75C20.2327 56.0384 20.3846 56.3835 20.44 56.75C20.5039 57.1126 20.455 57.486 20.3 57.82C20.2174 57.9595 20.1165 58.0873 20 58.2V58.2Z" fill="#CE8A29"/>
<path d="M21.07 58C21.0028 57.8376 20.9622 57.6654 20.95 57.49C20.9156 57.1526 20.9531 56.8118 21.06 56.49C21.1878 56.1754 21.3823 55.8922 21.63 55.66C21.756 55.5399 21.9014 55.4418 22.06 55.37C22.1126 55.5391 22.1461 55.7135 22.16 55.89C22.1787 56.2114 22.124 56.5329 22 56.83C21.8901 57.1394 21.7163 57.4222 21.49 57.66C21.3677 57.7936 21.2261 57.9082 21.07 58V58Z" fill="#CE8A29"/>
<path d="M6 59.38C6.18958 59.3569 6.38194 59.3809 6.56 59.45C7.05237 59.6383 7.48921 59.9478 7.83 60.35C8.18481 60.6392 8.44868 61.0246 8.59 61.46C8.13955 61.4419 7.69739 61.333 7.29 61.14C6.95 60.88 7.29 61.14 6.51 60.38C6.41778 60.2455 6.34064 60.1013 6.28 59.95C6.22 59.76 6.1 59.59 6 59.38V59.38Z" fill="#CE8A29"/>
<path d="M9.42 61.15C9.20812 60.9138 9.01739 60.6595 8.85 60.39C8.76816 60.2863 8.70087 60.1719 8.65 60.05C8.46045 59.6018 8.41163 59.1066 8.51 58.63C8.67126 58.6912 8.82283 58.7754 8.96 58.88C9.21279 59.0868 9.41753 59.3461 9.56 59.64C9.63216 59.8304 9.68249 60.0283 9.71 60.23C9.73856 60.3891 9.71762 60.5532 9.65 60.7C9.59675 60.8609 9.51918 61.0126 9.42 61.15V61.15Z" fill="#CE8A29"/>
<path d="M10.4 60.8C10.4 60.8 10.4 60.73 10.4 60.61C10.4 60.49 10.4 60.34 10.4 60.18C10.4 60.02 10.4 59.86 10.4 59.65C10.3627 58.8252 10.5604 58.0068 10.97 57.29C11.086 57.468 11.18 57.6594 11.25 57.86C11.4872 58.5056 11.4872 59.2144 11.25 59.86C11.1777 60.0704 11.0695 60.2667 10.93 60.44C10.844 60.5636 10.7312 60.6661 10.6 60.74L10.4 60.8Z" fill="#CE8A29"/>
<path d="M70.68 53.55C70.675 53.7655 70.6482 53.9799 70.6 54.19C70.5149 54.6082 70.3557 55.0078 70.13 55.37C69.8874 55.7831 69.5431 56.1274 69.13 56.37C68.9874 56.4549 68.8259 56.5031 68.66 56.51H68.47L68.55 56.33C68.6156 56.2075 68.6724 56.0805 68.72 55.95C68.78 55.81 68.85 55.62 68.94 55.44C69.03 55.2462 69.1336 55.0591 69.25 54.88C69.5938 54.3124 70.089 53.8518 70.68 53.55V53.55Z" fill="#CE8A29"/>
<path d="M67.53 56.27C67.3948 56.103 67.2838 55.9178 67.2 55.72C67.0427 55.2986 66.9746 54.8491 67 54.4C67.0341 53.9724 67.1388 53.5533 67.31 53.16C67.3961 52.9612 67.5107 52.7759 67.65 52.61C67.9295 53.188 68.0503 53.8299 68 54.47C67.9573 55.0941 67.7979 55.7047 67.53 56.27Z" fill="#CE8A29"/>
<path d="M66.42 56.35C66.2634 56.2814 66.1157 56.1941 65.98 56.09C65.7345 55.8826 65.5338 55.6274 65.39 55.34C65.2358 55.0783 65.1467 54.7833 65.13 54.48C65.1055 54.3142 65.1055 54.1458 65.13 53.98C65.2954 54.0296 65.451 54.1074 65.59 54.21C65.8618 54.3998 66.0902 54.6453 66.26 54.93C66.3989 55.2164 66.4675 55.5318 66.46 55.85C66.4727 56.0177 66.4592 56.1864 66.42 56.35V56.35Z" fill="#CE8A29"/>
<path d="M83.48 56.31C83.5061 56.479 83.5061 56.651 83.48 56.82C83.4161 57.1353 83.2829 57.4325 83.09 57.69C82.8612 57.9422 82.5818 58.1432 82.27 58.28C82.111 58.3456 81.9418 58.3829 81.77 58.39C81.7742 58.2205 81.8011 58.0523 81.85 57.89C81.9306 57.592 82.0815 57.3176 82.29 57.09C82.4878 56.835 82.7364 56.6239 83.02 56.47C83.1644 56.3938 83.3195 56.3398 83.48 56.31V56.31Z" fill="#CE8A29"/>
<path d="M80.68 58.2C80.5598 58.0719 80.4587 57.9271 80.38 57.77C80.225 57.4361 80.1761 57.0626 80.24 56.7C80.2969 56.3358 80.4448 55.9918 80.67 55.7C80.7834 55.5624 80.9185 55.4441 81.07 55.35C81.2739 55.8084 81.3265 56.3198 81.22 56.81C81.2023 56.964 81.1654 57.1152 81.11 57.26C81.0187 57.5946 80.8735 57.9121 80.68 58.2V58.2Z" fill="#CE8A29"/>
<path d="M79.62 58C79.4658 57.9174 79.3244 57.813 79.2 57.69C78.9705 57.4527 78.7934 57.17 78.68 56.86C78.5638 56.5609 78.5127 56.2404 78.53 55.92C78.5439 55.7435 78.5774 55.5691 78.63 55.4C78.7886 55.4718 78.934 55.5699 79.06 55.69C79.3046 55.9228 79.4957 56.206 79.62 56.52C79.7351 56.84 79.7761 57.1819 79.74 57.52C79.72 57.6843 79.6797 57.8456 79.62 58V58Z" fill="#CE8A29"/>
<path d="M94.66 59.38C94.59 59.59 94.47 59.76 94.41 59.92C94.3459 60.0716 94.2654 60.2158 94.17 60.35C93.98 60.63 94.17 60.35 93.39 61.11C92.9912 61.3168 92.5492 61.4265 92.1 61.43C92.2413 60.9946 92.5052 60.6092 92.86 60.32C93.2129 59.9312 93.6463 59.6241 94.13 59.42C94.3012 59.3658 94.4826 59.3521 94.66 59.38Z" fill="#CE8A29"/>
<path d="M91.27 61.15C91.152 61.0187 91.0604 60.8659 91 60.7C90.9275 60.5546 90.9064 60.389 90.94 60.23C90.9687 60.0295 91.0156 59.832 91.08 59.64C91.2259 59.3455 91.434 59.0862 91.69 58.88C91.8272 58.7754 91.9787 58.6912 92.14 58.63C92.2631 59.105 92.2135 59.6082 92 60.05C91.9491 60.1719 91.8818 60.2863 91.8 60.39C91.6609 60.6676 91.4824 60.9235 91.27 61.15Z" fill="#CE8A29"/>
<path d="M90.29 60.8C90.233 60.773 90.1793 60.7395 90.13 60.7C89.9971 60.6247 89.8813 60.5225 89.79 60.4C89.6574 60.2238 89.5528 60.0282 89.48 59.82C89.4042 59.593 89.3539 59.3582 89.33 59.12C89.2978 58.6927 89.3557 58.2635 89.5 57.86C89.565 57.6574 89.6593 57.4653 89.78 57.29C90.1987 58.0029 90.3938 58.825 90.34 59.65V60.18C90.3306 60.3232 90.3306 60.4668 90.34 60.61C90.3 60.73 90.29 60.8 90.29 60.8Z" fill="#CE8A29"/>
<path opacity="0.4" d="M49.84 30.69C49.2 30.95 47.25 33.55 46.6 34.45C44.51 36.76 38 40.45 40.6 43.17C44.8 47.82 48.65 55.28 53.3 48.73C54.9 47 60.1 43 59.58 40.55L49.84 30.69Z" fill="#CE8A29"/>
<path d="M50.12 30.22C48.8539 32.6264 47.1595 34.7817 45.12 36.58C45.68 36.58 45.86 36.82 45.74 37.74C45.62 38.66 44.32 41.1 45.34 41.89C46.14 42.46 47.45 41.38 48.19 41.38C48.47 42.24 47.56 44.74 48.47 45.19C53.06 43.64 52.28 42.1 53.05 46.98C55.21 44.67 57.44 41.98 59.21 39.85C57.49 38.11 50.12 30.22 50.12 30.22V30.22Z" fill="#77B8E5"/>
<path d="M52.63 43.71C51.72 42.71 49.56 45.71 48.48 45.19C47.57 44.74 48.48 42.24 48.2 41.38C47.46 41.38 46.15 42.46 45.35 41.89C44.35 41.1 45.58 38.71 45.75 37.74C45.92 36.77 45.69 36.55 45.13 36.58C43.69 38 42.22 39.26 41 40.34C43.89 43.51 47.21 46.74 50.1 49.91C51.02 49.08 52.03 48.07 53.04 46.98C52.12 46.55 53.2 44.33 52.63 43.71V43.71Z" fill="#5292A2"/>
<path d="M49.75 34.38C49.4168 35.1473 49.5963 36.0409 50.2 36.62C51.2 37.69 52.01 38 52.48 39.46C52.71 40.28 52.81 42.09 53.63 42.46C54.63 43.01 55.18 41.85 55.39 41.14C55.7959 39.8316 55.4415 38.4059 54.47 37.44C53.56 36.51 52.38 35.07 51.13 34.59L49.75 34.38Z" fill="#96D7FB"/>
</g>
<defs>
<clipPath id="clip0_1_1180">
<rect width="106" height="67" fill="white"/>
</clipPath>
</defs>
</svg>
