<svg width="159" height="88" viewBox="0 0 159 88" fill="none" xmlns="http://www.w3.org/2000/svg">
<g clip-path="url(#clip0_1_670)">
<path d="M78.6 71.92H138.37L159.07 31.85L125.68 57.68L117.95 18.6L96.31 50.39L79.31 0L62.76 50.39L41.12 18.6L33.39 57.68L0 31.85L20.7 71.92H80.47H78.6Z" fill="#FFCC01"/>
<path d="M20.69 71.9H138.38V74.49H20.69V71.9Z" fill="#FFCC01"/>
<path d="M20.69 85.12H138.38V87.71H20.69V85.12Z" fill="#FFCC01"/>
<path d="M22.18 74.49H136.95V85.14H22.18V74.49Z" fill="#FFCC01"/>
<path d="M22.18 74.49H136.95V76.31H22.18V74.49Z" fill="#F1A919"/>
<path d="M22.18 83.29H136.95V85.11H22.18V83.29Z" fill="#F1A919"/>
<path d="M0 31.85L30.3 71.7L20.69 71.91L0 31.85Z" fill="#F1A919"/>
<path d="M41.12 18.6L40.79 66.62L33.39 57.68L41.12 18.6Z" fill="#F1A919"/>
<path d="M79.31 0V67.61L62.76 50.39L79.31 0Z" fill="#F1A919"/>
<path d="M117.95 18.6L96.42 66.07L96.31 50.39L117.95 18.6Z" fill="#F1A919"/>
<path d="M125.68 57.68L125.73 66.67L159.07 31.85L125.68 57.68Z" fill="#F1A919"/>
<path d="M58.78 49.51C58.72 49.32 40.93 22.91 43.33 23.83C43.06 24.32 60.27 49.17 58.78 49.51Z" fill="white"/>
<path d="M27.87 55.14C27.87 54.73 2.86999 36.53 5.35 36.39C5.16 36.94 29.64 54.42 27.87 55.14Z" fill="white"/>
<path d="M94.55 49.76C94.06 49.37 79.21 4 79.79 3.40977C80.36 3.29 95.41 49.55 94.55 49.76Z" fill="white"/>
<path d="M124.1 56.38C123.61 56.14 117.04 21.46 117.67 21.04C118.26 21.15 124.88 56.07 124.1 56.38Z" fill="white"/>
<path d="M140.66 65.41C139.87 65.05 141.21 63.63 142.33 61.29C146.09 55 151 43.93 152 44.09C152.54 44.81 141.11 64.9 140.66 65.41V65.41Z" fill="white"/>
<path d="M133.52 71.7C133.41 71.46 128.79 72.33 130.2 71.04C130.31 71.28 134.93 70.4 133.52 71.7Z" fill="white"/>
<path d="M124 71.7C123.69 71.38 93.81 72.32 93.81 71.37C93.49 70.9 126 70.32 124 71.7Z" fill="white"/>
</g>
<defs>
<clipPath id="clip0_1_670">
<rect width="159" height="88" fill="white"/>
</clipPath>
</defs>
</svg>
