<svg width="69" height="58" viewBox="0 0 69 58" fill="none" xmlns="http://www.w3.org/2000/svg">
<path d="M56.1 35.1H56.97C56.88 35.42 56.5 36.93 55.97 38.72C53.27 40.2738 50.4512 41.6113 47.54 42.72C43.8938 39.839 40.5044 36.647 37.41 33.18C37.67 32.63 37.81 32.37 38.41 30.98C40.601 32.0521 42.9349 32.8032 45.34 33.21L45.84 33.28C46.92 27.98 48.33 21.28 49.52 15.09C51.38 13.14 53.79 10.74 56.3 7.92001C57.14 10.4 58.12 13.55 59.23 16.92C56.91 22.92 55.15 28.3 52.48 35.13C53.43 35.16 54.39 35.13 56.1 35.1V35.1Z" fill="#CA8F05"/>
<path d="M30.78 33.13C27.6847 36.5961 24.2954 39.788 20.65 42.67C17.7356 41.5688 14.9162 40.231 12.22 38.67C11.88 37.41 12.01 37.99 11.22 35.05C12.22 35.05 13.44 35.15 15.62 35.05C13.54 29.81 11.24 23.05 8.87 16.84C9.77 14.17 10.6 11.37 11.8 7.84C13.69 10 15.88 12.23 18.59 15C19.75 21 20.88 26.39 22.27 33.19L22.77 33.12C25.1721 32.701 27.5043 31.9505 29.7 30.89C29.92 31.35 30.16 31.86 30.78 33.13Z" fill="#CA8F05"/>
<path d="M67.6 15C66.22 26.19 64.4 38.2 62.31 49.82C53.5435 54.2743 43.9241 56.7976 34.1 57.22C24.2791 56.8298 14.6589 54.319 5.89999 49.86C3.88999 38.71 2.05999 26.81 0.609985 15C2.65999 17.29 5.13999 20.11 7.60999 23.22C8.72999 27.57 10.13 32.79 11.53 38.22C11.53 38.37 11.6 38.52 11.64 38.67C14.4987 40.4317 17.511 41.9312 20.64 43.15L21.17 42.75C24.8836 39.8721 28.343 36.6804 31.51 33.21L31.22 32.63C28.3498 26.6801 26.0075 20.4896 24.22 14.13C27.0756 9.40635 30.3846 4.97208 34.1 0.890015C37.8556 4.99669 41.2046 9.45752 44.1 14.21C42.3125 20.5696 39.9702 26.7601 37.1 32.71C37.01 32.91 36.91 33.1 36.81 33.29C39.9821 36.7589 43.4447 39.9505 47.16 42.83C47.33 42.97 47.51 43.1 47.69 43.23C50.8198 42.0131 53.8323 40.5136 56.69 38.75C56.69 38.59 56.77 38.44 56.8 38.28C57.97 33.74 59.28 28.9 60.73 23.28C62.59 20.77 64.9 18 67.6 15V15Z" fill="#FFB401"/>
<path d="M67.66 14.57C65.46 16.84 63.01 19.57 60.28 22.71C59.39 26.11 58.28 30.21 57.07 34.71C55.8565 34.7595 54.6412 34.7395 53.43 34.65C55.27 29.27 57.73 23.06 59.89 16.85C59.03 14.11 57.8 10.58 56.65 6.85C54.71 8.95 52.52 11.26 49.76 14.06C49.61 14.22 49.46 14.37 49.3 14.52C48 20.18 46.86 26.26 45.49 32.8C43.1556 32.2486 40.8936 31.4263 38.75 30.35C41.1888 25.0556 43.0949 19.5318 44.44 13.86L44.25 13.57C41.233 8.78388 37.8389 4.24615 34.1 0C30.388 4.2558 27.0113 8.7927 24 13.57L23.82 13.86C25.159 19.5335 27.0652 25.058 29.51 30.35C27.37 31.4347 25.107 32.2573 22.77 32.8C21.62 27.4 20.35 20.8 18.97 14.53C18.81 14.38 18.66 14.23 18.51 14.07C16.58 12.07 14.19 9.67 11.61 6.86C10.7 9.86 9.61 12.86 8.38 16.86C10.31 22.47 12.64 28.27 14.84 34.66C13.6253 34.7463 12.4069 34.7663 11.19 34.72C10.3 31.26 9.19 27.26 7.98 22.72C5.74 20.2 3 17.1 0 14V14.4C1.36 25.81 3.15 38.07 5.3 50C5.4252 50.0815 5.55546 50.155 5.69 50.22C11.9084 53.5109 18.6185 55.7735 25.56 56.92C28.3826 57.3828 31.2316 57.6667 34.09 57.77C36.9534 57.6937 39.8091 57.4365 42.64 57C49.583 55.8597 56.2941 53.5968 62.51 50.3L62.9 50.08C64.9 38.78 66.77 26.41 68.15 14.47C68.15 14.33 68.15 14.2 68.15 14.07C68 14.19 67.84 14.38 67.66 14.57V14.57ZM41.5 32.17C42.7688 32.6261 44.078 32.9609 45.41 33.17L45.91 33.24C47 27.92 48.43 21.2 49.62 15C51.48 13.05 53.89 10.65 56.4 7.83C57.24 10.31 58.22 13.46 59.33 16.83C57.05 22.73 55.17 28.45 52.58 35.04C53.58 35.11 54.86 35.04 56.97 35.04C56.88 35.36 56.5 36.87 55.97 38.66C53.27 40.2138 50.4512 41.5513 47.54 42.66C43.8937 39.779 40.5044 36.587 37.41 33.12C37.67 32.57 37.81 32.31 38.41 30.92C39.4122 31.4023 40.4443 31.8199 41.5 32.17ZM12.1 35.1C12.91 35.1 13.69 35.18 15.63 35.1C13.52 29.75 11.24 23 8.88 16.87C9.78 14.2 10.61 11.4 11.81 7.87C13.69 10 15.88 12.23 18.59 15C19.7 20.76 20.93 26.63 22.27 33.19L22.77 33.12C25.1721 32.701 27.5044 31.9505 29.7 30.89C29.89 31.31 30.13 31.82 30.75 33.09C27.6547 36.5561 24.2654 39.748 20.62 42.63C17.7056 41.5288 14.8862 40.191 12.19 38.63C11.85 37.37 11.98 37.95 11.19 35.01L12.1 35.1ZM67.24 17.89C65.9067 28.37 64.2633 39.0367 62.31 49.89C53.5391 54.3226 43.9193 56.8222 34.1 57.22C24.2805 56.8204 14.6623 54.3101 5.9 49.86C3.89 38.71 2.06 26.81 0.61 15C2.61 17.21 5.16 20.12 7.61 23.22C8.73 27.57 10.13 32.79 11.53 38.22L11.65 38.69C14.5087 40.4517 17.521 41.9512 20.65 43.17L21.18 42.77C24.8936 39.8921 28.353 36.7003 31.52 33.23L31.23 32.65C28.3598 26.7 26.0175 20.5096 24.23 14.15C27.0814 9.41983 30.387 4.97884 34.1 0.89C37.8556 4.99667 41.2046 9.45751 44.1 14.21C42.3125 20.5696 39.9702 26.76 37.1 32.71C37.01 32.91 36.91 33.1 36.81 33.29C39.9821 36.7588 43.4447 39.9504 47.16 42.83C47.33 42.97 47.51 43.1 47.69 43.23C50.8198 42.0131 53.8323 40.5136 56.69 38.75C56.69 38.59 56.77 38.44 56.8 38.28C57.97 33.74 59.28 28.9 60.73 23.28C62.73 20.8 64.93 18.11 67.73 15.06L67.24 17.89Z" fill="#B06305"/>
<path opacity="0.4" d="M54.68 53.16C48.0748 55.5821 41.1302 56.9521 34.1 57.22C27.1854 56.9464 20.3532 55.6178 13.84 53.28C10.14 39.54 14.19 42.99 20.84 45.55C20.66 44.35 34.18 36.13 32.7 31.77C24.89 10.5 25 17.2 34.23 3.20999C40.54 12.76 43.8 13.21 39.14 22.59C37.72 27.18 35.27 31.18 35.41 33.79C38.34 37 47.5 45.42 47.6 45.55C57.33 40.77 56.86 43.45 54.68 53.16V53.16Z" fill="#FFD673"/>
<path opacity="0.3" d="M30.78 33.13C27.6826 36.594 24.2935 39.7858 20.65 42.67C17.7356 41.5688 14.9162 40.231 12.22 38.67C11.86 37.35 12.01 37.99 11.22 35.05C12.22 35.05 13.44 35.15 15.62 35.05C15.16 33.87 14.56 32.38 13.71 30.05C17.24 31.68 20 30.87 21.38 28.96C21.62 30.12 21.67 30.33 22.26 33.23L22.76 33.16C25.1621 32.741 27.4944 31.9905 29.69 30.93C29.92 31.35 30.16 31.86 30.78 33.13V33.13Z" fill="#CA8F05"/>
<path opacity="0.3" d="M57 35.08C56.91 35.4 56.53 36.91 56 38.7C53.2999 40.2535 50.4811 41.591 47.57 42.7C43.9231 39.8197 40.5337 36.6277 37.44 33.16C37.7 32.61 37.84 32.35 38.44 30.96C40.631 32.0321 42.9649 32.7831 45.37 33.19L45.87 33.26C46.18 31.7 46.49 30.26 47 27.73C48.7997 29.9594 51.815 30.8026 54.51 29.83C54.05 31.08 53.6 32.37 52.51 35.11C53.61 35.16 54.86 35.12 57 35.08Z" fill="#CA8F05"/>
<path opacity="0.2" d="M11.68 36.75C19.24 36.65 27.46 34.46 30.36 33.62C27.3646 36.8856 24.118 39.9115 20.65 42.67C17.7356 41.5688 14.9162 40.231 12.22 38.67C12 38 11.85 37.4 11.68 36.75Z" fill="#CA8F05"/>
<path opacity="0.2" d="M54.52 39.5C52.2651 40.7219 49.9258 41.7812 47.52 42.67C44.2623 40.0724 41.1944 37.2452 38.34 34.21C41.83 35.79 48.77 38.71 54.52 39.5Z" fill="#CA8F05"/>
<path d="M32.73 31.76C24.89 10.5 25 17.2 34.23 3.20999C25.87 17.21 29.58 19.05 32.73 31.76Z" fill="#FFD673"/>
<path d="M11.6 38.73C10.33 33.33 4.45999 19.05 0.609985 15C2.60999 17.21 5.15999 20.12 7.60999 23.22C8.72999 27.57 10.13 32.79 11.53 38.22C11.53 38.43 11.56 38.58 11.6 38.73Z" fill="#FFD673"/>
<path d="M67.6 15L61.94 24.24L56.6 38.75C56.6 38.59 56.68 38.44 56.71 38.28C57.88 33.74 59.19 28.9 60.64 23.28C62.59 20.78 64.84 18.09 67.6 15V15Z" fill="#FFD673"/>
<path opacity="0.3" d="M4.14999 19.07C4.99113 29.9984 6.73373 40.8386 9.35999 51.48C8.19999 51 6.99999 50.43 5.89999 49.86C3.88999 38.71 2.05999 26.81 0.609985 15C1.79999 16.37 2.99999 17.72 4.14999 19.07V19.07Z" fill="#CA8F05"/>
<path opacity="0.3" d="M67.6 15C66.22 26.19 64.4 38.2 62.31 49.82C61.46 50.24 60.6 50.65 59.74 51.04C61.74 43.26 63.31 27.27 64.01 19.04C65.19 17.72 66.3867 16.3733 67.6 15Z" fill="#CA8F05"/>
<path d="M32.26 34.64C29.43 37.89 21.39 47.07 20.71 47.2C20.03 47.33 16.52 44.7 14.56 43.2C16.7136 43.829 18.8219 44.6041 20.87 45.52C20.87 45.52 29.34 37.66 32.26 34.64Z" fill="#FFD673"/>
<path d="M54.58 43.09C52.1031 44.5317 49.5493 45.837 46.93 47C45.62 47.33 36.06 34.49 35.93 34.29C38.5 37.07 47.6 45.55 47.6 45.55C47.6 45.55 52.47 43.39 54.58 43.09V43.09Z" fill="#FFD673"/>
</svg>
