<svg width="103" height="91" viewBox="0 0 103 91" fill="none" xmlns="http://www.w3.org/2000/svg">
<g clip-path="url(#clip0_1_2403)">
<path d="M23 61.85C20.1691 66.3063 21.019 72.1623 25 75.63C24.6593 70.9952 23.991 66.3904 23 61.85V61.85Z" fill="#DC3030"/>
<path d="M79.75 61.85C78.7586 66.3903 78.0903 70.9952 77.75 75.63C81.6995 72.1452 82.5459 66.3137 79.75 61.85V61.85Z" fill="#DC3030"/>
<path d="M55.87 66.79C55.7827 70.09 54.1114 73.146 51.38 75C46.06 71.62 45 62.53 51.38 58.29H51.45C54.1694 60.278 55.8043 63.422 55.87 66.79V66.79Z" fill="#DC3030"/>
<path d="M30 12.86C33.91 10.31 29.46 2.85998 24.92 6.90998C21.67 9.88998 25.75 15.68 30 12.86Z" fill="#CA8F05"/>
<path d="M41.15 51.07C40.28 54.33 35.89 62.94 32 56.47C32.36 43 31.18 27.86 27.6 14.1C28.4809 14.0845 29.3425 13.8398 30.1 13.39C32.4252 26.309 36.1297 38.9413 41.15 51.07V51.07Z" fill="#CA8F05"/>
<path d="M75.16 14.1C71.7477 27.9531 70.267 42.2114 70.76 56.47C67 62.27 63.21 56.03 61.61 51.07C66.6121 38.939 70.2998 26.3069 72.61 13.39C73.3849 13.8418 74.2631 14.0863 75.16 14.1V14.1Z" fill="#CA8F05"/>
<path d="M75 5.75998C70.55 5.89998 69.08 13.28 75.25 13.6C79.62 13.48 80.36 6.04998 75 5.75998Z" fill="#CA8F05"/>
<path d="M8.99999 22C9.47999 27.27 -0.460007 27.62 0.699993 21.06C1.41999 16.5 8.80999 16.89 8.99999 22Z" fill="#FFB401"/>
<path d="M102.19 22C102.19 26.73 94.36 28.28 93.78 22C93.8894 19.7573 95.7396 17.9951 97.985 17.9951C100.23 17.9951 102.081 19.7573 102.19 22Z" fill="#FFB401"/>
<path d="M56.22 5.56C56.1112 8.17181 54.0664 10.2896 51.46 10.49H51.38C45.47 10.38 44.74 1.21 51.38 0.619995C54.0691 0.674443 56.2205 2.87029 56.22 5.56Z" fill="#FFB401"/>
<path d="M94.78 25.47C94.5595 25.2695 94.3586 25.0485 94.18 24.81C83.18 33.7 77.18 47.62 69.26 59.17C58 64.53 53.07 14.6 52.86 10.94C52.3736 11.0459 51.8778 11.1029 51.38 11.11C50.75 11.11 51.38 11.11 49.9 10.94C48.29 26.35 46.71 43.19 38.75 57.58C31.87 65.16 29.24 50.4 25.75 46.1C21.0937 38.2052 15.3093 31.0329 8.57999 24.81C8.31836 25.1457 8.01982 25.4509 7.68999 25.72L7.45999 25.89C19.7702 42.4897 26.3034 62.6652 26.06 83.33C41.11 91.79 61.06 92.23 76.7 83.33C76.4 63.61 83 42.08 95.3 25.89C95.118 25.7611 94.9443 25.6208 94.78 25.47V25.47ZM56.66 67.72C56.2257 71.1487 54.2914 74.2076 51.38 76.07C45.07 72.38 43.9 61.6 51.38 57.24C54.9157 59.5124 56.9379 63.5262 56.66 67.72Z" fill="#FFB401"/>
<path opacity="0.4" d="M51.39 14.31C50.19 12 50.67 73.75 30.56 60.81C30.56 60.81 31.37 81.74 33.08 83.96C37.32 88.64 55.63 89.22 65.54 85.81C71.97 87.32 70.29 64.62 71.17 61.44C52.87 76.6 52.59 15.19 51.39 14.31V14.31Z" fill="#FFD673"/>
<path d="M52.21 57.75C51.9462 57.5598 51.6688 57.3894 51.38 57.24C45 61 43.93 71.68 51.38 76.07C57.48 72.49 58.75 62.56 52.21 57.75V57.75ZM55.84 67.57C55.5142 70.5807 53.8838 73.2968 51.38 75C46.06 71.63 45.03 62.44 51.38 58.29C54.3462 60.4251 56.0258 63.92 55.84 67.57Z" fill="#B06305"/>
<path d="M98 17.26C96.3477 17.301 94.8333 18.191 93.9935 19.6145C93.1536 21.038 93.1069 22.7939 93.87 24.26C84.4453 32.8689 76.8687 43.3034 71.6 54.93C71 41.93 72.93 27.34 75.89 14C88.37 6.49999 65.46 0.109987 71.89 12.8C69.7595 25.5654 66.1797 38.0461 61.22 50C56.54 37.51 54.83 24.28 53.77 10.59C53.7748 10.5602 53.7748 10.5298 53.77 10.5C58.7 8.16999 57.14 0.179986 51.38 -0.000483002C46.13 -0.0700137 43.71 7.70999 49 10.53V10.62C48 23.28 46.28 37.51 41.54 50C36.5569 38.0573 32.96 25.5824 30.82 12.82C36.89 -0.320014 14.53 6.99999 26.87 14C29.75 27.34 31.75 40.67 31.17 54.91C25.8992 43.3046 18.3261 32.8908 8.90999 24.3C11.36 20.43 5.57999 14.49 1.42999 18.65C-2.38001 22 2.10999 28.65 6.93999 26.2C14.4796 36.5229 19.8601 48.2601 22.76 60.71C19 65.16 19.89 73.05 25.05 76.65C25.15 78.17 25.21 80.75 25.12 83.39C28.3688 85.3966 31.8559 86.989 35.5 88.13C45.8135 91.5308 56.9464 91.5308 67.26 88.13C70.9053 86.992 74.3927 85.3995 77.64 83.39C77.64 81.39 77.52 79.71 77.71 76.65C82.54 73.46 83.94 65.6 80 60.71C82.8957 48.2587 88.2766 36.5207 95.82 26.2C96.0043 26.2958 96.1947 26.3793 96.39 26.45C103.21 28.49 105.27 17.75 98 17.26V17.26ZM71.12 9.67999C71.27 4.35999 79.94 4.61999 78.83 10.74C78.2943 12.6231 76.4543 13.8247 74.5147 13.5581C72.5751 13.2914 71.1276 11.6378 71.12 9.67999ZM62.87 47.91C67.2738 36.7577 70.5534 25.1937 72.66 13.39C73.4201 13.8336 74.2801 14.0779 75.16 14.1C71.7503 27.9535 70.2697 42.2115 70.76 56.47C67 62.27 63.21 56.03 61.61 51.07C62 50 62.45 49 62.87 47.91V47.91ZM46.54 5.55999C46.6569 2.91974 48.7427 0.790866 51.38 0.619986C57.52 0.859986 57.73 9.99999 51.46 10.49H51.38C48.6924 10.4409 46.5395 8.24799 46.54 5.55999ZM26.76 13.49C22.43 12.55 23.17 4.72999 28.76 5.89999C33.2 6.99999 32.3 14.47 26.76 13.49ZM31.15 34.29C30.502 27.4768 29.3149 20.7256 27.6 14.1C28.4809 14.0845 29.3425 13.8398 30.1 13.39C32.4135 26.3061 36.1011 38.9378 41.1 51.07C40.23 54.33 35.84 62.94 31.95 56.47C32.1874 49.0671 31.9201 41.6566 31.15 34.29V34.29ZM7.14999 25.48C3.64999 28.27 -2.26001 22.31 2.14999 18.71C6.14999 15.08 12 22 7.12999 25.48H7.14999ZM22.85 73.16C20.796 69.6546 20.8538 65.2997 23 61.85C23.9914 66.3903 24.6597 70.9952 25 75.63C24.1678 74.9148 23.4436 74.0828 22.85 73.16ZM81.44 68.66C81.1261 71.3674 79.8183 73.8619 77.77 75.66C78.1106 71.0252 78.779 66.4204 79.77 61.88C81.0349 63.9043 81.6201 66.2798 81.44 68.66ZM89.21 35.17C80.8352 49.8267 76.5171 66.4503 76.7 83.33C60.9385 92.0203 41.8215 92.0203 26.06 83.33C26.36 63.61 19.78 42.08 7.45999 25.89C7.89307 25.5976 8.27205 25.2322 8.57999 24.81C19.58 33.7 25.58 47.62 33.51 59.17C44.76 64.53 49.69 14.6 49.9 10.94C50.3864 11.046 50.8822 11.1029 51.38 11.11C52.01 11.11 51.38 11.11 52.86 10.94C54.48 26.35 56.05 43.19 64 57.58C70.88 65.16 73.51 50.4 77 46.1C81.6625 38.2068 87.4499 31.0348 94.18 24.81C94.4893 25.231 94.868 25.5962 95.3 25.89C93.0556 28.8372 91.0206 31.9381 89.21 35.17ZM97.98 26.17C93.29 26.53 92.05 17.95 97.98 17.76C103.29 17.92 103.53 25.86 98 26.2L97.98 26.17Z" fill="#B06305"/>
<path d="M51.32 59.34C50.32 59.44 44.12 69.44 51.39 67.4C51.72 67.18 51.74 59.91 51.32 59.34Z" fill="#DC3030"/>
<path opacity="0.4" d="M55.87 66.79C55.7827 70.09 54.1114 73.146 51.38 75C48.6489 73.1136 46.981 70.038 46.89 66.72C48.92 70.14 54.37 68.77 55.87 66.79V66.79Z" fill="#DC3030"/>
<path opacity="0.4" d="M55.87 66.79C55.7827 70.09 54.1114 73.146 51.38 75C52.27 72.76 54.56 65.74 51.45 58.34C54.1556 60.3174 55.7888 63.4397 55.87 66.79Z" fill="#DC3030"/>
<path d="M50.9 60.11C50.55 60.11 48.9 62.78 49.29 63.41C49.68 64.04 51.39 60.18 50.9 60.11Z" fill="white"/>
<path d="M22.63 64C21.7469 67.2916 22.2415 70.8008 24 73.72C22.42 70.42 22.63 64 22.63 64Z" fill="white"/>
<path d="M80.08 63.9C81.0787 67.0205 80.6852 70.4201 79 73.23C80.5 69.93 80.08 63.9 80.08 63.9V63.9Z" fill="white"/>
<path opacity="0.4" d="M70.75 55.88V56.47C66.99 62.27 63.2 56.03 61.6 51.07C62.69 48.35 64.08 44.89 65.35 41.27C65.82 46.22 68.14 48.79 70.8 45.04C70.7 47.87 70.63 52 70.75 55.88V55.88Z" fill="#CA8F05"/>
<path opacity="0.4" d="M41.15 51.07C40.28 54.33 35.89 62.94 32 56.47C32.08 52.8 32.13 48.95 31.91 44.28C34.6 48.8 37.04 46.81 37.74 42.21C38.6 44.64 39.82 47.76 41.15 51.07V51.07Z" fill="#CA8F05"/>
<path opacity="0.4" d="M26.06 83.33C26.36 63.61 19.78 42.08 7.45999 25.89L7.68999 25.72C26.57 44.68 28 65.52 29.33 85C28.23 84.46 27.14 83.9033 26.06 83.33Z" fill="#CA8F05"/>
<path opacity="0.4" d="M95.3 25.89C82.9938 42.4918 76.461 62.6659 76.7 83.33C75.33 84.06 73.93 84.74 72.53 85.33C71 64.3 80.53 40.6 94.78 25.47C94.9443 25.6208 95.118 25.7611 95.3 25.89V25.89Z" fill="#CA8F05"/>
<path opacity="0.4" d="M56.2 6C55.9985 8.49408 53.9606 10.4417 51.46 10.53H51.38C48.72 10.33 45.76 7.81 46.72 4.28C47.49 9.52 54.18 9.34 56.2 6V6Z" fill="#CA8F05"/>
<path opacity="0.4" d="M49 2.30998C47.72 4.11998 53.53 6.83998 55.1 4.83998C56.67 2.83998 50.76 -0.210024 49 2.30998Z" fill="#FFD673"/>
<path opacity="0.4" d="M8.50999 23.94C6.17 29.19 -3.15001 23.63 2.08999 18.76C1.17159 20.5365 1.62975 22.714 3.18618 23.9698C4.74261 25.2256 6.96773 25.2132 8.50999 23.94V23.94Z" fill="#CA8F05"/>
<path opacity="0.4" d="M102.19 22C102.12 24.94 98.27 27.91 95.13 25.09C99.91 27.33 102.81 20.84 100.13 18.37C101.416 19.1246 102.202 20.5087 102.19 22Z" fill="#CA8F05"/>
<path opacity="0.4" d="M95.27 23.25C94.27 22.14 96.63 17.25 98.63 18.72C100.63 20.19 96.63 24.72 95.27 23.25Z" fill="#FFD673"/>
<path opacity="0.4" d="M4 18.83C2.47 19.9 5.9 24.2 7.27 23.14C8.64 22.08 5.1 18.09 4 18.83V18.83Z" fill="#FFD673"/>
</g>
<defs>
<clipPath id="clip0_1_2403">
<rect width="103" height="91" fill="white"/>
</clipPath>
</defs>
</svg>
