<svg width="115" height="89" viewBox="0 0 115 89" fill="none" xmlns="http://www.w3.org/2000/svg">
<path d="M28.93 75.75H85.19V77.82H28.93V75.75Z" fill="#FFCC01"/>
<path d="M28.93 86.33H85.19V88.4H28.93V86.33Z" fill="#FFCC01"/>
<path d="M29.64 77.86H84.5V86.35H29.64V77.86Z" fill="#FFCC01"/>
<path d="M29.64 77.82H84.5V79.27H29.64V77.82Z" fill="#F1A919"/>
<path d="M29.64 84.88H84.5V86.33H29.64V84.88Z" fill="#F1A919"/>
<path d="M84.62 75.8L57.36 65.27L109.61 11.09L84.62 75.8Z" fill="#FFCC01"/>
<path d="M30.1 75.8L57.36 65.27L5.12 11.09L30.1 75.8Z" fill="#FFCC01"/>
<path d="M57.32 4.96L30.1 75.8H84.53L57.32 4.96Z" fill="#FFCC01"/>
<path d="M5.12 11.09L40.76 75.8H30.1L5.12 11.09Z" fill="#F1A919"/>
<path d="M10.23 11.09C10.08 17.63 0.32 17.78 0 11.09C0.15 4.55 9.91 4.4 10.23 11.09Z" fill="#FFCC01"/>
<path d="M5.48 14.35C2.69138 14.2264 0.466397 11.9797 0.370001 9.19C-2.13 16.51 9.59 19.19 10.23 11.19C9.43239 13.1078 7.55705 14.3554 5.48 14.35Z" fill="#F1A919"/>
<path d="M57.32 4.96L57.08 66.69L40.76 48.05L57.32 4.96Z" fill="#F1A919"/>
<path d="M109.61 11.09L73.9 68.93V48.12L109.61 11.09Z" fill="#F1A919"/>
<path d="M37.88 47.43C37.81 47.03 8.2 17.13 10.88 17.56C10.6 18.09 39.56 46.9 37.88 47.43Z" fill="white"/>
<path d="M72.56 48.05C72.07 47.58 57.11 8.13 57.66 7.45C58.25 7.44 73.44 47.73 72.56 48.05Z" fill="white"/>
<path d="M88.23 63.54C87.37 63.78 106.23 15.64 106.76 17.91C106.33 18.42 89 63.39 88.23 63.54Z" fill="white"/>
<path d="M77.25 76.13C76.91 75.8 56.81 76.76 56.75 75.8C56.54 75.26 79.42 74.85 77.25 76.13Z" fill="white"/>
<path d="M83.33 76.13C83.21 75.89 78.69 76.75 80.09 75.46C80.21 75.7 84.73 74.84 83.33 76.13Z" fill="white"/>
<path d="M114.72 11.09C114.57 17.63 104.81 17.78 104.49 11.09C104.65 4.55 114.4 4.4 114.72 11.09Z" fill="#FFCC01"/>
<path d="M110.13 15C107.31 14.83 104.13 12.2 105.23 8.44C101.68 14.87 111.9 19.69 114.51 12.53C113.583 14.063 111.922 14.9997 110.13 15V15Z" fill="#F1A919"/>
<path d="M62.43 5C62.28 11.54 52.52 11.69 52.2 5C52.36 -1.58 62.11 -1.73 62.43 5V5Z" fill="#FFCC01"/>
<path d="M58.11 8C55.61 8 52.5 5.43 53.11 2.12C49 9 60.53 13.78 62.37 5.72C61.4217 7.14574 59.8223 8.00174 58.11 8Z" fill="#F1A919"/>
</svg>
