<svg width="101" height="68" viewBox="0 0 101 68" fill="none" xmlns="http://www.w3.org/2000/svg">
<g clip-path="url(#clip0_1_919)">
<path d="M13.48 49.53C12.75 6.99999 91 12 86.94 49.53H13.48Z" fill="#F54144"/>
<g opacity="0.3">
<path opacity="0.3" d="M28.24 30C31.5442 26.1201 35.5296 22.8768 40 20.43C12.16 24.73 13.49 49.53 13.49 49.53H20.7C19.75 42.68 24.14 34.77 28.24 30V30Z" fill="#EA5F86"/>
<path opacity="0.3" d="M38.78 37.55C39.3964 31.5465 41.4885 25.7888 44.87 20.79C33.51 24.71 22.23 37.64 23.08 49.53H38.81C37.89 45.66 38.32 41.24 38.78 37.55V37.55Z" fill="#EA5F86"/>
<path opacity="0.3" d="M65.29 49.53H78.93C78.5265 45.8993 77.7866 42.3139 76.72 38.82C75.6378 35.6736 74.1016 32.7022 72.16 30C68.16 25.09 62.16 21 55.94 20.89C64.39 27.91 66.1 38.67 65.29 49.53V49.53Z" fill="#EA5F86"/>
<path opacity="0.3" d="M63.22 45.65C63.22 45.5 63.22 45.34 63.22 45.18C62.8885 40.1613 61.9345 35.2033 60.38 30.42C58.75 27.28 55.86 22.87 51.69 21.24C50.36 20.77 48.62 22.24 48.35 19.92H48.14C42.4 27.92 39.23 38.92 41.25 49.48H63.05C63.09 48.27 63.23 47 63.22 45.65Z" fill="#EA5F86"/>
<path opacity="0.3" d="M67.39 22.39C76.12 28.24 81.21 38.67 82 49.53H86.94C86.94 49.53 89.43 29.64 67.39 22.39V22.39Z" fill="#EA5F86"/>
</g>
<path d="M38.84 5.23C36.81 -3.07 44.94 -0.280004 47.47 5.23C59.15 -5.59 64.09 3.27 48.85 14.83C54 40.81 60.58 49.37 76.45 22.46C73.02 20.79 75.44 15.58 78.59 16.98C82.48 18.53 79.76 23.61 76.87 22.61C72.37 44.21 77.06 53.2 95.62 31.61C93.22 29.52 95.43 26.4 97.5 26.4C102.74 27 99.64 33.76 96.18 32C94.58 35.36 91.77 41.09 89.77 44.28C87.2323 48.3661 83.7993 62.6123 81.9088 67.6416C80.4045 63.3977 66.4401 59.4625 41.2434 60.6613C26.5873 61.7775 18.9647 64.7654 18.1256 67.846C17.3458 67.0558 17.06 66.53 17.06 66.53C17.07 63.93 11.43 43.89 4.62 38.53C1.62 40.34 -1.32 36.68 0.62 34.34C3.74 30.7 7.52 36.13 5.1 38.17C21.36 51.64 27.71 39.27 25.1 22.05C21.39 22.21 20.85 17.22 23.85 16.34C28.3 15.28 28.64 21.41 25.44 22C34.49 46.63 46 41.82 47.84 14.68C45.58 11.57 40.46 9.02 38.84 5.23V5.23Z" fill="#FEAF1F"/>
<path d="M54 43.67C53.72 51.3 45.7 51.39 45.55 43.52C45.87 35.89 53.89 35.79 54 43.67Z" fill="#E31F37"/>
<path d="M32.66 44.49C33.51 49.05 28.09 50.17 27.72 44.39C27.77 40.94 31.53 40.41 32.66 44.49Z" fill="#E31F37"/>
<path d="M17.75 49.26C18.17 54.09 12.37 50.26 15.82 47.46C16.34 47.4 17.15 47.72 17.75 49.26Z" fill="#E31F37"/>
<path d="M67.83 44.49C66.98 49.05 72.4 50.17 72.77 44.39C72.73 41 69 40.41 67.83 44.49Z" fill="#E31F37"/>
<path d="M82.74 49.26C82.33 54.09 88.12 50.2 84.67 47.46C84.15 47.4 83.34 47.72 82.74 49.26Z" fill="#E31F37"/>
<g opacity="0.8">
<path opacity="0.8" d="M47.55 41C48.22 39.88 48.89 38.75 49.55 37.6C48.3264 37.8199 47.2698 38.5856 46.68 39.68L47.55 41Z" fill="#EA5F86"/>
<path opacity="0.8" d="M46.37 40.19C45.7814 41.4903 45.5238 42.916 45.62 44.34C46.12 43.34 46.68 42.4 47.25 41.45L46.37 40.19Z" fill="#EA5F86"/>
<path opacity="0.8" d="M52.07 40.48C52.73 41.55 53.39 42.62 54.07 43.71C54.127 42.1654 53.6928 40.6424 52.83 39.36L52.07 40.48Z" fill="#EA5F86"/>
<path opacity="0.8" d="M52.49 38.92C51.977 38.2989 51.2744 37.8633 50.49 37.68C50.91 38.47 51.37 39.24 51.83 40.01C52 39.65 52.25 39.28 52.49 38.92V38.92Z" fill="#EA5F86"/>
<path opacity="0.8" d="M50 37.78C49.35 39.04 48.61 40.25 47.89 41.48C48.46 42.3 49.03 43.13 49.59 43.96C50.22 42.79 50.87 41.62 51.59 40.48C51 39.59 50.45 38.7 50 37.78V37.78ZM49.89 41.28C49.28 41.5 49.62 40.13 49.85 41.28H49.89Z" fill="#EA5F86"/>
<path opacity="0.8" d="M47.58 41.93C47.03 42.87 46.48 43.81 45.99 44.78C46.6628 45.5643 47.2778 46.3965 47.83 47.27L49.3 44.44L47.58 41.93ZM48 44.74C47.4 45 47.74 43.59 48 44.74V44.74Z" fill="#EA5F86"/>
<path opacity="0.8" d="M51.79 41C51.12 42.14 50.48 43.3 49.86 44.46C50.48 45.37 51.11 46.26 51.74 47.16C52.39 46.16 53.05 45.16 53.74 44.16C53.1 43.08 52.44 42 51.79 41ZM52.03 44.2C51.8878 44.1737 51.7845 44.0496 51.7845 43.905C51.7845 43.7603 51.8878 43.6363 52.03 43.61C52.131 43.6656 52.1912 43.7743 52.1848 43.8894C52.1784 44.0046 52.1066 44.1059 52 44.15L52.03 44.2Z" fill="#EA5F86"/>
<path opacity="0.8" d="M49.61 44.89C49.11 45.89 48.61 46.79 48.13 47.75C48.48 48.32 48.82 48.91 49.13 49.51C49.4862 49.5836 49.8538 49.5836 50.21 49.51C50.61 48.84 51.02 48.18 51.44 47.51C50.84 46.66 50.22 45.78 49.61 44.89ZM49.85 47.41C49.6898 47.41 49.56 47.2801 49.56 47.12C49.56 46.9598 49.6898 46.83 49.85 46.83C50.0102 46.83 50.14 46.9598 50.14 47.12C50.14 47.2801 50.0102 47.41 49.85 47.41Z" fill="#EA5F86"/>
<path opacity="0.8" d="M47.58 47.76C47.0301 46.8804 46.422 46.0386 45.76 45.24C45.9635 46.4021 46.4903 47.4834 47.28 48.36C47.36 48.18 47.47 48 47.58 47.76Z" fill="#EA5F86"/>
<path opacity="0.8" d="M52.49 48.16C53.3162 47.1608 53.8401 45.9466 54 44.66C53.35 45.66 52.71 46.57 52.09 47.54C52.2 47.74 52.34 48 52.49 48.16V48.16Z" fill="#EA5F86"/>
<path opacity="0.8" d="M32.41 43.69C32.19 43.0937 31.8259 42.5612 31.35 42.14C31.07 42.91 30.84 43.69 30.62 44.49L32.41 43.69Z" fill="#EA5F86"/>
<path opacity="0.8" d="M32.59 44.25C31.95 44.52 31.31 44.81 30.68 45.1C31.31 45.61 31.96 46.1 32.62 46.56C32.7905 45.7982 32.7802 45.0071 32.59 44.25V44.25Z" fill="#EA5F86"/>
<path opacity="0.8" d="M30.86 45.85C31.05 46.64 31.26 47.43 31.48 48.21C31.9337 47.9415 32.2855 47.53 32.48 47.04C31.92 46.65 31.38 46.26 30.86 45.85Z" fill="#EA5F86"/>
<path opacity="0.8" d="M30.26 45.86C30.07 46.65 29.89 47.45 29.72 48.25C30.0957 48.4315 30.5188 48.4909 30.93 48.42C30.69 47.57 30.47 46.72 30.26 45.86Z" fill="#EA5F86"/>
<path opacity="0.8" d="M29.23 41.67C28.7645 41.8673 28.3825 42.221 28.15 42.67C28.6964 43.3114 29.2879 43.9129 29.92 44.47C29.7 43.54 29.48 42.6 29.23 41.67Z" fill="#EA5F86"/>
<path opacity="0.8" d="M30.34 43.71C30.53 43.09 30.72 42.46 30.94 41.84C30.5977 41.6312 30.2005 41.5302 29.8 41.55C29.9867 42.27 30.1667 42.99 30.34 43.71Z" fill="#EA5F86"/>
<path opacity="0.8" d="M27.86 45.64C28.47 45.41 29.08 45.16 29.69 44.9C29.0651 44.3634 28.4802 43.7818 27.94 43.16C27.7136 43.9681 27.6862 44.819 27.86 45.64Z" fill="#EA5F86"/>
<path opacity="0.8" d="M28 46.2C28.2476 46.9118 28.6955 47.5368 29.29 48C29.47 47.15 29.66 46.31 29.87 45.47C29.26 45.71 28.65 46 28 46.2V46.2Z" fill="#EA5F86"/>
<path opacity="0.8" d="M16.47 49L17 47.84C16.69 47.93 16.79 46.92 15.11 47.96C15.56 48.3 16 48.66 16.47 49Z" fill="#EA5F86"/>
<path opacity="0.8" d="M14.86 48.39C14.5502 49.3988 14.7932 50.4963 15.5 51.28L16.27 49.49C15.81 49.11 15.34 48.74 14.86 48.39V48.39Z" fill="#EA5F86"/>
<path opacity="0.8" d="M17.8 50.18C17.8808 49.5011 17.7139 48.8158 17.33 48.25C17.17 48.61 17.01 48.98 16.86 49.34C17.18 49.61 17.49 49.89 17.8 50.18V50.18Z" fill="#EA5F86"/>
<path opacity="0.8" d="M16.66 49.8L15.91 51.56C16.2546 51.706 16.6455 51.6964 16.9825 51.5336C17.3196 51.3708 17.5701 51.0707 17.67 50.71C17.34 50.4 17 50.1 16.66 49.8Z" fill="#EA5F86"/>
<path opacity="0.8" d="M71 43.94C71.44 43.51 71.87 43.08 72.33 42.67C72.1197 42.2717 71.7961 41.9446 71.4 41.73C71.28 42.47 71.15 43.21 71 43.94Z" fill="#EA5F86"/>
<path opacity="0.8" d="M70.85 41.56C70.2553 41.5024 69.6628 41.6902 69.21 42.08C69.62 42.79 70 43.51 70.36 44.25C70.54 43.35 70.7 42.46 70.85 41.56V41.56Z" fill="#EA5F86"/>
<path opacity="0.8" d="M70.1 44.8C69.71 43.99 69.3 43.2 68.85 42.42C68.3508 42.9899 68.0064 43.6786 67.85 44.42C68.6 44.56 69.35 44.68 70.1 44.8Z" fill="#EA5F86"/>
<path opacity="0.8" d="M67.77 45C67.6846 45.6754 67.7635 46.3615 68 47C68.53 46.42 69.07 45.85 69.62 45.28C69 45.22 68.39 45.1 67.77 45V45Z" fill="#EA5F86"/>
<path opacity="0.8" d="M72.71 45.24C72.83 44.5335 72.7716 43.8082 72.54 43.13C71.97 43.66 71.41 44.21 70.86 44.77V44.92C71.46 45 72.08 45.12 72.71 45.24Z" fill="#EA5F86"/>
<path opacity="0.8" d="M71 45.53C71.28 46.15 71.56 46.78 71.83 47.41C72.2039 46.9374 72.4762 46.3927 72.63 45.81C72.05 45.71 71.5 45.61 71 45.53V45.53Z" fill="#EA5F86"/>
<path opacity="0.8" d="M70 48.45C70.5224 48.3927 71.0111 48.1642 71.39 47.8C71.13 47.17 70.85 46.56 70.57 45.94C70.44 46.78 70.25 47.62 70 48.45Z" fill="#EA5F86"/>
<path opacity="0.8" d="M70.1 45.54C69.49 46.18 68.87 46.83 68.27 47.54C68.54 47.9742 68.9598 48.2944 69.45 48.44C69.69 47.44 69.91 46.49 70.1 45.54Z" fill="#EA5F86"/>
<path opacity="0.8" d="M83.06 48.42C82.6666 49.0834 82.5686 49.8811 82.79 50.62C83.08 50.32 83.37 50.03 83.67 49.74C83.46 49.3 83.25 48.86 83.06 48.42Z" fill="#EA5F86"/>
<path opacity="0.8" d="M84 49.39C84.43 48.98 84.54 48.87 85.44 48.07C85.2081 47.7339 84.8326 47.5252 84.4247 47.5056C84.0168 47.486 83.6231 47.6577 83.36 47.97C83.59 48.45 83.8 48.92 84 49.39Z" fill="#EA5F86"/>
<path opacity="0.8" d="M85 51.29C85.37 50.38 86 51.11 85.69 48.49C85.19 48.91 84.69 49.39 84.28 49.83L85 51.29Z" fill="#EA5F86"/>
<path opacity="0.8" d="M83.89 50.2C83.59 50.49 83.3 50.8 83 51.1C83.22 51.1 83.22 51.91 84.57 51.56C84.34 51.11 84.12 50.65 83.89 50.2V50.2Z" fill="#EA5F86"/>
</g>
</g>
<defs>
<clipPath id="clip0_1_919">
<rect width="101" height="68" fill="white"/>
</clipPath>
</defs>
</svg>
