<svg width="82" height="77" viewBox="0 0 82 77" fill="none" xmlns="http://www.w3.org/2000/svg">
<g clip-path="url(#clip0_1_486)">
<mask id="mask0_1_486" style="mask-type:alpha" maskUnits="userSpaceOnUse" x="0" y="0" width="85" height="79">
<path fill-rule="evenodd" clip-rule="evenodd" d="M0.618805 0.380891H84.6188V78.3809H0.618805V0.380891Z" fill="white"/>
</mask>
<g mask="url(#mask0_1_486)">
<path fill-rule="evenodd" clip-rule="evenodd" d="M80.4964 23.0014C78.303 21.3838 75.0914 18.5306 70.1534 20.7693L70.1197 20.7913C67.9123 22.6972 66.129 28.5742 71.3804 31.6831C70.8566 32.1654 70.4 32.7287 69.9581 33.2719L69.9442 33.2902C69.1405 34.3362 68.8712 34.6689 67.4605 36.8143L67.4452 36.836C64.2782 42.0753 60.3758 45.8771 55.9592 53.1792C53.0851 41.7837 51.4328 29.1472 46.2306 16.1736C59.3116 14.6512 47.3031 -7.59382 37.0178 3.89546C35.0031 6.17104 35.1691 15.1889 42.063 15.7354L42.0759 15.7529C42.1092 15.7892 42.1431 15.8197 42.18 15.8475C37.7469 27.723 34.2061 42.208 29.7685 56.9909C29.654 56.8296 29.529 56.6597 29.4094 56.4962L29.3792 56.4572C24.6356 48.7761 18.9928 40.063 12.6818 31.4588C13.6153 30.337 15.0097 30.4517 15.1278 26.4912C15.1508 25.8769 15.4952 25.5922 14.9385 23.6908C16.9136 17.9174 -1.04469 10.3932 0.811746 27.4471C1.85495 30.1368 3.55413 32.7224 8.64531 32.9144C11.2695 43.4528 13.4128 55.0475 16.2196 67.4251C16.2216 67.43 16.2194 67.421 16.2317 67.4685C16.6063 68.4248 16.6983 71.3873 18.0914 73.7363C18.1411 73.7916 18.1974 73.8457 18.2658 73.9049C19.4019 74.7717 18.4056 74.2219 21.2008 75.1688C35.6872 77.5993 52.5772 75.4589 69.7133 74.5726C73.7333 67.7021 71.8561 47.0818 74.4724 33.1184C78.5419 33.7062 84.7818 28.3478 80.4964 23.0014" fill="#ECB523"/>
</g>
</g>
<defs>
<clipPath id="clip0_1_486">
<rect width="82" height="77" fill="white"/>
</clipPath>
</defs>
</svg>
