<svg height="55" viewBox="0 0 60 55" width="60" xmlns="http://www.w3.org/2000/svg"><g fill="none" transform="translate(0 .927033)"><g fill="#a093ce"><path d="m5.53069307 8.62813187c-.48118812-2.96703297-4.69306931-1.22835165-3.68910891 1.48945053 1.01584158 1.6556044 4.17029703.901978 3.68910891-1.48945053z"/><path d="m34.5683168 1.78021978c-1.4316831-1.8632967-4.960396.8010989-1.5267326 2.23120879.6059406-.14835165 2.1029703-.93164835 1.5267326-2.23120879z"/><path d="m59.7207921 5.39406593c-.7544555-1.71494505-4.7524753-.42131868-3.5643565 1.56659341 1.1287129 1.0978022 4.5207921.67648352 3.5643565-1.56659341z"/><path d="m37.8653465 36.1978022c-.9861386-3.6079121-4.1049505-28.1156044-5.0732673-18.0514286-1.0990099 6.7767033-4.039604 13.3338462-3.8257426 20.2945055 1.0574258 4.7235165 10.7881188 3.4595605 8.8990099-2.2430769zm-4.1584158-15.2624176c.3029703 3.0857143-1.6277228 7.4887912-1.0336634 11.3103297-.9861386-2.9373627.5049505-7.5065934 1.0574258-11.3340659zm-.8257426 16.3958242c-.7663366-.0415385-.6415841-2.2786813-.7366336-3.5604396.7247524.7714286-.0118812 2.6465934.7366336 3.5604396zm-2.5128713 1.0384615c-.1327835-.3527273-.1992436-.7269086-.1960396-1.1037362.3683169 2.2134066 3.9029703 2.3736263 5.8217822 1.6674725-1.3247525 1.4479121-4.9188119 1.2402198-5.6257426-.5637363zm5.9405941.0949451c.1841584-.990989-1.3722772-.6942857-1.9425743-1.1868132.5940594-1.5191209.7188119-2.6821978.8435644-4.86.0950495 1.6674725 1.6217822 3.8215385 1.1049505 6.0468132z"/><path d="m54.9980198 24.116044c1.229703-2.5279121-4.3782178 2.3736263-5.2871287 3.2696703-5.4475248 3.9283516-2.6732673 11.518022 1.9188119 13.4762637 2.1980198-2.5101099 1.2534653-6.1536264 2.2871287-9.4945055.2079208-2.5991209 2.6257426-5.0914285 1.0811881-7.2514285zm-6.409901 7.0021978c.6972041-1.2259804 1.6062969-2.3189073 2.6851485-3.2281319-1.9128713 2.2608791-4.4138614 8.64.0356436 9.4589011-.0867299.4007784-.1937987.7968939-.3207921 1.1868132-1.6811881-2.0175824-3.5049505-5.305055-2.4-7.4175824zm2.970297 4.9964835c-.8019802-3.5604396-.5940594-5.3762638 1.7465347-8.4145055-.9604842 2.7135881-1.5519055 5.5437023-1.7584158 8.4145055z"/><path d="m11.0732673 27.6349451c-.0415841-.267033-.0831683-.5281319-.1128713-.7951649-3.30297026-2.9254945 1.1108911 15.4285714 2.6257426 15.4285714 6.9148515-3.0441758 1.2-10.8771428-2.5128713-14.6334065zm3.629703 11.6367033c.029703-1.2995605.2019802-3.3646154-.4752475-5.1210989 1.0158416 1.7208791 1.4613861 3.5010989.4752475 5.1210989zm-2.4059406-5.2694506c.3703042.8013823.5994074 1.660579.6772277 2.5397802-.2376237-.8485714-.4633663-1.6912088-.6772277-2.5397802z"/></g><path d="m16.9247525 52.2197802s-12.64158418-37.2718681-10.85346537-38.3103297c1.78811881-1.0384615 18.28514847 14.8529671 18.28514847 14.8529671s7.4376238-21.54065936 9.0712872-21.68901101c1.6336633-.14835164 9.6772277 22.59692311 9.6772277 22.59692311s11.8811881-19.3153846 13.6633663-18.1285715c1.7821782 1.1868132-5.940594 38.4824176-5.940594 38.4824176s-9.8079208 4.7413187-33.9029703 2.1956044z" fill="#fff68a"/><path d="m16.7524752 52.4571429c-.0447778-.0455531-.0792204-.100196-.1009901-.1602198v-.0593407l-.0415841-.1127472-.0831683-.2373627-.1663367-.4687912-.3623762-.9791209-.6594059-1.8810989c-.439604-1.2501099-.869307-2.5061538-1.2891089-3.7681318l-2.4950496-7.5718682c-1.64554451-5.0498901-3.23762372-10.1294505-4.59801976-15.2624175-.33267326-1.2876924-.65940594-2.5813187-.93861386-3.8868132-.14257426-.6527473-.27920792-1.3114286-.38019802-1.9819781-.05346534-.3323076-.1009901-.6705494-.13114657-1.0206593 0-.1720879 0-.3560439 0-.54-.00492499-.2258912.03758962-.4503644.12520598-.6586813.08463693-.1840437.2486676-.3194934.44554455-.3679121.07302387-.0084376.14677811-.0084376.21980198 0h.18415842c.20423889.0362206.40358817.0959596.5940594.178022.32299356.1402117.63479187.3048666.93267327.4925275.59405941.3560439 1.13465347.7476923 1.67524753 1.1452747 1.06930688.7912088 2.11683168 1.621978 3.14257428 2.4923077 2.0495049 1.7030769 4.0336633 3.4773626 6.0415841 5.2279121 2.0079208 1.7505494 4.009901 3.5010989 5.9881188 5.2931868l-1.0930693.2254945c1.229703-3.8452748 2.5782179-7.649011 4.0930693-11.3934066.7485149-1.8751649 1.5207921-3.7443956 2.3762377-5.5958242.409901-.9316483.8198019-1.85736263 1.2891089-2.77714285.2209571-.46968789.4668514-.92726169.7366336-1.37076923.1593915-.27052402.3597893-.51474058.5940594-.72395605.0501176-.04038184.1038035-.0761331.1603961-.10681318.0795215-.04508185.1657644-.07713698.2554455-.09494506.113314-.02654781.2312405-.02654781.3445545 0 .0830078.01834838.1630056.04831459.2376238.08901099.1699555.10155243.3207564.23210292.4455445.38571429.3405441.42929167.6389487.89031688.8910891 1.37670329.2435644.45692308.4752475.91384616.6950495 1.3767033.439604.9197802.8435644 1.8514286 1.2415842 2.7830769.7841584 1.8632967 1.5445544 3.7325275 2.2514851 5.6254945 1.419802 3.78 2.7564357 7.5778022 4.0811881 11.3874726l-.6831683-.0712088 2.0792079-3.2815385c.6772278-1.1037363 1.3841585-2.1896703 2.0554456-3.2993407l2.0554455-3.2815384c.7188119-1.08 1.4316832-2.1659341 2.2039604-3.2162638.7722773-1.0503296 1.5504951-2.0947252 2.4118812-3.0975824.4311057-.5143743.8912605-1.0037421 1.3782178-1.4657143.2700694-.2598197.5667515-.4905398.8851486-.6883516.2254045-.1465615.4858077-.2305363.7544554-.2432967.2361422-.001986.463906.0873184.6356436.2492308.0466159.0445855.0902728.0921588.130693.1424175.0231909.0357011.0430752.0734397.059406.1127473.0363357.0641305.066186.1317169.0891089.2017582.0900907.3727555.1280752.7561769.1128713 1.1393407v1.0087912c-.0356436.6646154-.0950495 1.3173626-.1603961 1.9641758-.1425742 1.2995605-.320792 2.5872528-.5108911 3.869011-.7841584 5.1329671-1.7049504 10.2243956-2.6673267 15.3098901-.9623762 5.0854945-1.7821782 10.1947253-2.7920792 15.2742857-.0438673.1970878-.1781462.3620035-.3623762.445055-1.3536395.5865996-2.7599403 1.0435921-4.2 1.3648352-1.4138614.3323076-2.839604.5934065-4.2653466.8010989-2.8505112.4088004-5.7229872.6465893-8.6019802.7120879-2.8693069.089011-5.7386138 0-8.6019802-.1364836-1.4316831-.1008791-2.8574257-.2254945-4.2891089-.3382417-1.4316831-.1127473-2.9762376-.3501099-4.419802-.5340659zm.3445545-.4331869c1.4019802.0712088 2.7683168.1364836 4.1287129.2314286l4.2594059.1602198c2.8455446.0534066 5.6910891.0771429 8.5247525-.089011 2.829197-.1186474 5.6494843-.3960077 8.4475247-.8307692 1.3960396-.2254945 2.7801981-.4984616 4.1584159-.8367033l1.0158416-.267033 1.0039604-.2967033c.6522052-.1904369 1.2928729-.4182877 1.9188118-.6824176l-.3564356.4628572c1.0693069-5.0558242 2.2514852-10.0879121 3.1841584-15.1793407.9326733-5.0914286 1.8356436-10.1769231 2.5128713-15.2861538.1663366-1.2758242.3207921-2.5575824.439604-3.8334066.0534653-.6349451.1069307-1.2698901.130693-1.8989011 0-.3145055 0-.629011 0-.9316484-.0032971-.2637598-.0351658-.5263883-.0950495-.7832967 0-.0296703 0 0 0 0 .01246.0222609.0285181.0423114.0475248.0593407.0542766.0478689.1236618.0751725.1960396.0771428.0534653 0-.0653465 0-.1485149.083077-.2346629.1493982-.4518554.3245537-.6475247.5221978-.4434112.4370695-.8618923.8986758-1.2534654 1.3826373-.8079208.9731868-1.580198 1.9997802-2.3762376 3.0323077l-2.2752475 3.1213187c-.7663366 1.0384615-1.5148515 2.0887912-2.2574258 3.1450549-1.4732673 2.1303297-2.8633663 4.2843957-4.2118811 6.48-.081641.129129-.2292687.2011513-.3814153.186079-.1521466-.0150724-.2827367-.1146562-.3373966-.2572877-1.3782178-3.774066-2.839604-7.5303297-4.3425743-11.2747253-.760396-1.8573627-1.4970297-3.7265934-2.2990099-5.5602198-.4039604-.9197802-.8079208-1.8336264-1.2415841-2.7296703-.219802-.44505497-.4455446-.89010992-.6772278-1.31736267-.2148367-.40701972-.4653191-.79424507-.7485148-1.15714285-.0332418-.04171853-.0711069-.07954201-.1128713-.11274726h.0653465c.0530888.00896379.1073073.00896379.1603961 0 .0256737.00266016.051554.00266016.0772277 0-.1305387.13338475-.2460775.2806343-.3445545.43912088-.2529735.40724694-.4849588.82713456-.6950495 1.25802198-.4396039.88417582-.8495049 1.78021982-1.2356435 2.71780222-.7663367 1.8454945-1.479208 3.7265934-2.1801981 5.6076923-1.3663366 3.7740659-2.7524752 7.5441758-4.1584158 11.3103297v.0356044c-.1247345.3276725-.4917145.4923664-.819802.367912-.0877878-.0306543-.1671446-.0814682-.2316831-.1483516-3.6900407-3.8227671-7.5764698-7.4513967-11.6435644-10.8712088-1.009901-.8485714-2.0435644-1.6852747-3.11287128-2.4567033-.52871288-.3857143-1.06930693-.7595604-1.62178218-1.0918681-.26790371-.1598426-.54568932-.3025468-.83168317-.4272528-.12177776-.0525938-.24941748-.0904452-.38019802-.1127472h-.09504951.04158416c.04158416 0 .04752476-.0652748.04158416-.0415385-.02206995.1054356-.03400536.2127363-.03564356.3204396v.456923c0 .3085715.07722772.629011.13069307.9494506.11287128.6408791.24950495 1.2876923.3980198 1.9285714.2970297 1.2817583.64158416 2.5635165.99207921 3.8393407.72475247 2.5279121 1.47128712 5.0676923 2.23960392 7.6193406l2.3168317 7.6193407 2.3762376 7.5956044 1.1881189 3.7978022.5940594 1.8989011.3029703.9435165.1544554.4747253.0772277.2373626.0356436.1186813v.0593407c-.0008014-.0222153-.0048029-.0441994-.0118812-.0652748z" fill="#000"/><path d="m7.55643564 22.5494505c12.76039606 14.4197803 10.43168316 7.3582418 7.43762376 23.303077" fill="#ff7881"/><path d="m7.76435644 22.3417582c.85248401.7444888 1.66172152 1.536987 2.42376236 2.3736264.7663366.8367033 1.4316832 1.7802198 2.2514852 2.5516484.4277498.3861433.893484.7281017 1.390099 1.0206593.4660451.3450279.8681345.7687659 1.1881188 1.2520879.6950495.9079121 1.5683168 1.6852747 2.1267327 2.7949451.2753838.564789.4751203 1.1633398.5940594 1.7802198.0894535.3081139.1608616.6211717.2138613.9375824.0402094.3046809.026131.6140655-.0415841.9138461-.1366337.5934066-.3089109 1.1393407-.4693069 1.6912088-.1603961.5518681-.3564357 1.0859341-.4930693 1.6318681-.0755523.2735991-.1370191.5508857-.1841585.8307693-.0475247.2789011-.0534653.5934066-.0831683.8545055-.0476944.5626821-.1593028 1.1181198-.3326732 1.6556044-.2909718 1.0996371-.6399743 2.183129-1.0455446 3.245934-.0266481.0709267-.0804844.1283273-.1496032.159508s-.1478253.0335723-.2187136.0066459c-.1066314-.0464676-.1762896-.15084-.1782179-.267033.0111389-1.1482585.1184439-2.2935726.3207921-3.423956.0743838-.5691634.2180196-1.1271333.4277228-1.6615385.2389039-.509849.4183009-1.0454574.5346535-1.5962637.1425742-.5518682.2376237-1.1156044.3386138-1.6674726.1009901-.5518681.2019802-1.1096703.2435644-1.6437362.0306064-.2604164.0802438-.5182474.1485148-.7714286.0457756-.1240321.083478-.2508899.1128713-.3797802.0363069-.1231913.0523571-.2514522.0475248-.3797802-.0592434-.512016-.2797424-.9920094-.629703-1.3707693-.6910729-.8565016-1.4414285-1.6635363-2.2455446-2.4151648-.4622972-.335186-.8640793-.7465601-1.1881188-1.2164835-.2831369-.508368-.6132898-.9891463-.9861386-1.436044-.7425742-.8604395-1.6217822-1.5962637-2.3762376-2.432967-.77417191-.8377909-1.48690822-1.7302112-2.13267327-2.6703297-.04266194-.0618872-.05852001-.1383515-.04398268-.2120753s.05824006-.1384693.1212104-.179573c.10081858-.0530777.22315004-.0438553.31485149.0237362z" fill="#000"/><path d="m56.3405941 20.4487912c-12.8673268 15.2030769-11.2336634 7.1208791-4.0158416 22.5791209" fill="#ff7881"/><path d="m56.5544554 20.6268132c-.6370799.9607111-1.3418322 1.8748907-2.1089108 2.7356044-.7722773.8545055-1.6514852 1.6140659-2.3762377 2.4863736-.3719186.4505263-.7001272.9353438-.980198 1.4479121-.3263648.4714031-.7276992.8863278-1.1881188 1.2283516-.8208664.7421336-1.5798145 1.5498625-2.2693069 2.4151649-.340859.3473853-.4895786.8396163-.3980198 1.3173626.0959255.2415291.2303349.4659666.3980198.6646154.1575963.2173272.2929297.4499244.4039604.6942857.2257425.5103297.4871287 1.0147253.7485148 1.525055.2613862.5103296.5108911 1.0325274.8019802 1.530989.1366337.2492307.2792079.5043956.439604.7417582.160396.2373627.3564356.4628572.5287128.7002198.3487584.4657768.6362537.9743235.8554456 1.5131868.4915035 1.0508317.8890893 2.142991 1.1881188 3.2637363.04118.1324132-.021273.2749373-.1465972.33455-.1253243.0596126-.2754582.0182091-.3524127-.0971874-.6831683-.9435165-1.2653465-1.9226374-1.8415842-2.9076923-.3062775-.4803235-.5611441-.9914855-.760396-1.5250549-.1704221-.5483065-.409968-1.0727342-.7128713-1.5606594-.2851485-.4984615-.5940594-.9672527-.9326733-1.4479121-.3386138-.4806593-.6415841-.9613187-.9564356-1.4657143-.1591795-.262813-.2754847-.5492505-.3445545-.8485714-.0594059-.3204395-.0712871-.6527472-.1128712-.9791209-.0773165-.6710541.0380649-1.3502327.3326732-1.9582417.5940594-1.1868132 1.4673268-1.9107693 2.1683169-2.8305495.3240636-.480069.7255437-.903165 1.1881188-1.2520879.5000806-.2992245.9679061-.6492109 1.3960396-1.0443956.8257426-.8010989 1.4851485-1.7446154 2.2455445-2.5991209.7480305-.8621802 1.5412191-1.684209 2.3762377-2.4626373.0524847-.0532765.1241815-.0832794.1990099-.0832794.0748283 0 .1465251.0300029.1990099.0832794.1002604.1050753.1053779.2686566.0118811.3797802z" fill="#000"/><path d="m33.2673267 14.3545055c-.7128713-.5934066-5.2039604 25.7004396-4.9069307 26.7448352s9.9623763.7417582 10.5623763-.4509891c.6-1.1927472-4.5980198-25.4037362-5.6554456-26.2938461z" fill="#ff7881"/><path d="m33.1069307 14.5681319c.0475008.0409427.1099169.0602919.1722772.0534066.0408992-.0024351.0801665-.0168861.1128713-.0415385l-.0356436.0712088c-.0277227.0632967-.0574257.1345055-.0891089.2136264-.0534653.1483516-.1009901.3085714-.1485148.4628571-.0831683.3263736-.1663367.6527473-.2376238.9791209-.1306931.6646154-.2554455 1.3292308-.3683168 1.9938461-.2138614 1.3410989-.4336634 2.6762638-.7069307 3.9995605-.4871287 2.6228571-1.1108911 5.2931868-1.5089109 7.9635165-.2316832 1.3351648-.2613861 2.705934-.3683168 4.0589011-.116885 1.3478825-.315267 2.6874705-.5940594 4.0114285-.1188119.6646154-.2316832 1.3292308-.2970297 1.9879121 0 .1602198-.029703.3263736-.0415842.4747253-.0062794.0571912-.0062794.1148967 0 .1720879v-.0593407c-.0012266-.0328933-.0138218-.0643467-.0356436-.0890109-.0186539-.0173593-.034665-.0373512-.0475247-.0593407.080772.0423438.1666099.0742484.2554455.0949451.1426839.041198.2874383.0748709.4336634.1008791.6445716.106382 1.2955134.1698187 1.9485148.1898901.6653466 0 1.3306931.0474725 2.0019802.0534066 1.3336728.0524975 2.6686994-.0611242 3.9742575-.3382418.3010318-.0734369.5893714-.1914463.8554455-.3501099.0950495-.0534066.1960396-.1780219.1188119-.1127472s-.0356436-.1186813-.0653465-.2551649l-.2673268-1.9463736c-.3267326-2.6643956-.7663366-5.3406593-1.2831683-8.0050549-.2551733-1.3320965-.5823852-2.6494103-.980198-3.9461539-.3787273-1.3024669-.6900309-2.6235583-.9326733-3.958022-.2732673-1.3232967-.4990099-2.6643956-.7782178-3.9876923-.1366337-.6586813-.2732673-1.3232967-.4455445-1.9760439-.089109-.3263736-.1722773-.6468132-.279208-.9613187-.0475247-.1602198-.1069307-.3085714-.160396-.4687912-.0534654-.1602198-.1782178-.2848352-.2019802-.3263736zm.3623762-.4213187c.1393295.1597891.2498768.3424936.3267327.54.0653465.1602198.1425743.3263736.1960396.4865934l.3445545.9731868.6475247 1.9463736c.4158416 1.3054945.8316832 2.605055 1.1881188 3.9164835.3795283 1.3083567.671265 2.6405446.8732674 3.9876924.1960396 1.352967.4039604 2.6940659.7069306 4.0232967.5940595 2.6584615 1.1881189 5.3050549 1.6574258 8.0050549.1226045.6932906.1783054 1.3967362.1663366 2.1006593-.0075371.2582328-.0597947.5132103-.1544554.7536264-.0492095.0810878-.106964.156683-.1722772.2254945-.0653466.0593407-.1188119.089011-.1722773.1305495-.09994.062709-.2053133.1163308-.3148515.1602198-.3540287.1186441-.7178015.2060125-1.0871287.2610989-1.390099.2551648-2.7445544.4213186-4.1227723.5518681-1.3848951.12338-2.7790617.0975167-4.1584158-.0771429-.1880723-.0272982-.374494-.0649377-.5584158-.1127472-.2416229-.0554637-.4698038-.1583349-.6712872-.3026374-.0930646-.0619827-.1720078-.1428611-.2316831-.2373626-.0383669-.0647992-.0721139-.132219-.1009901-.2017583-.0160402-.0584336-.0279507-.1179207-.0356436-.1780219 0-.1542858 0-.2373627 0-.3382418s0-.3679121.0356436-.54l.1960396-2.0531868c.0874993-1.362905.2861783-2.7164065.5940594-4.047033.3207921-1.3232967.730693-2.6347253.9564356-3.9758242.5108911-2.6643956.8376238-5.3406593 1.3544555-8.0406593.2316831-1.3351648.540594-2.6643956.8970297-3.9817582.1722772-.6586814.3445544-1.3173627.5346534-1.976044.0950495-.3263736.1841585-.6586813.2851486-.990989.0475247-.1661539.10099-.3323077.160396-.4984615.0289872-.0896071.0647332-.1768901.1069307-.2610989.022077-.052404.0499745-.1021663.0831683-.1483517.0272058-.0447548.0636615-.0831936.1069307-.1127472.0481292-.0410241.1090182-.0640945.1722772-.0652748.0702121.0037892.1371339.0309463.190099.0771429z" fill="#000"/><path d="m5.34653465 8.23648352c-.79009901-3.21032967-5.16831683-1.95824176-4.72277227 1.37076923 1.15841584 3.28747255 5.51287128 1.92263735 4.72277227-1.37076923zm-1.46732673 2.30835168c-1.98415842.8070329-3.72475247-2.23714289-1.42574257-3.45956047 1.51485148-.37384616 3.0950495 2.04131868 1.42574257 3.45956047z" fill="#000"/><path d="m34.5742574 1.18681319c-.8257425-2.11252748-4.6633663-1.25802198-3.9564356 1.70901099.8079208 2.95516483 5.4356435 1.12747252 3.9564356-1.70901099zm-.6594059 1.38263736c-.8910891 2.10659341-4.4079208-.10681319-1.3722772-1.92263736.2732673.42725274 1.5267326.59340659 1.3722772 1.92263736z" fill="#000"/><path d="m59.0138614 5.34065934c-.7425743-2.54571429-4.3603961-1.78021978-4.1584159 1.28175824 1.0455446 2.87208791 5.2039604 1.68527473 4.1584159-1.28175824zm-1.1881188 1.97010989c-1.5920792.64087912-3.1722773-1.54285714-1.2950495-2.83648352.9861386-.12461538 2.5366336 1.53692308 1.3247524 2.81274726z" fill="#000"/><path d="m15.7425743 47.4725275s.5584158-.0593407 1.5386138-.1008791c.980198-.0415385 2.3762376-.1008792 4.0693069-.0534066.8435644 0 1.7821783.0652747 2.7207921.0593406.4966986-.0019007.9927647-.0355961 1.4851485-.1008791.5049505-.0771429 1.0158416-.2076923 1.5386139-.2789011 1.0514852-.183956 2.1445545.0474725 3.2435644 0s2.2277227-.0593407 3.350495 0c1.1174645.1217646 2.2478773.0332022 3.3326733-.2610989.5374288-.1089057 1.0854733-.1566825 1.6336633-.1424176l1.5980198-.0534066c1.0514852 0 2.0673268-.0830769 3.0237624-.1958242.9564357-.1127472 1.8237624-.450989 2.6554456-.54.8316831-.0890109 1.5920792-.183956 2.2633663-.2670329s1.2653465-.1246154 1.7405941-.2017583c.9683168-.1246153 1.5326732-.1661538 1.5326732-.1661538.1510896-.0071.2814409.1048789.2970297.2551648.0098437.1220667-.059524.236756-.1722772.2848352 0 0-.5287129.2076923-1.4792079.5340659-.5687577.1893029-1.147929.3458243-1.7346535.4687912-.7538783.1875226-1.5173733.334111-2.2871287.4391209-.8376238.1424176-1.7821782 0-2.7445544.1127473-.9623763.1127472-1.9782179.2373626-3.029703.3738461l-1.5980198.2017583c-.5462223.0843861-1.1002957.1062858-1.6514852.0652747-1.1162771-.1556655-2.2507665-.1235736-3.3564356.094945-1.1227723.1602198-2.2514852.172088-3.3564357.2492308-1.1049505.0771429-2.1920792.3026374-3.2495049.178022-.5287129-.0534066-1.0514852-.1720879-1.5623762-.2254945-.4935719-.046892-.9894788-.064725-1.4851486-.0534066-.9683168 0-1.8831683.0771428-2.7267326.1068132-.8435644.0296703-1.6158416.0415384-2.3049505 0-.6891089-.0415385-1.2831683-.0356044-1.7821782-.0771429-.9801981-.0534066-1.5445545-.1305494-1.5445545-.1305494-.1524757-.0214486-.2587853-.162154-.2376238-.3145055.012177-.145721.1328414-.2585593.279208-.2610989z" fill="#000"/><path d="m17.8217822 52.0536264c.4039604-.7773627.8376237-1.5369231 1.2772277-2.2964835.439604-.7595605.9207921-1.5072528 1.3663366-2.2846154.0867982-.1318019.2341429-.2111543.3920792-.2111543.1579364 0 .3052811.0793524.3920793.2111543.2910891.4272527.5524752.8723077.8316831 1.3114285.2792079.4391209.5524753.8782418.819802 1.3232967.5287129.8841759 1.0633663 1.7802198 1.609901 2.6525275h-.5940594c.3207921-.450989.629703-.9079121.9386138-1.3707692.3025794-.4656184.5801979-.9469551.8316832-1.441978.2673267-.4925275.5108911-.9969231.7960396-1.4716484s.5940594-.9375824.9267327-1.3767033l.0475247-.0593406c.1130476-.1484853.280737-.2457729.4658699-.2702816.1851329-.0245088.3724031.0257877.5202688.1397321.0531339.0392624.1010442.085126.1425742.1364835l1.039604 1.4004396c.3445544.4628571.7247524.9079121 1.0871287 1.3589011.7247525.9079121 1.4732673 1.7802198 2.1742574 2.7178022l-.8613861.0593406c.6475247-.9197802 1.3128713-1.803956 1.8950495-2.7356044.3006518-.4758355.5647742-.9737445.790099-1.4894505.2188952-.5165759.4791449-1.0146744.7782178-1.4894506.1952457-.3031033.5994771-.3907676.9029703-.1958241l.0772277.0593406c.4811881.4213187.9326733.8782418 1.390099 1.3173627l1.3782179 1.3292307 1.3841584 1.3232967c.4633663.445055.9445544.8663737 1.4138614 1.2936264l-.7128713.1305495c.5108911-.9435165.8851485-1.9582418 1.330693-2.967033.2257426-.4865934.4752476-.9613187.7425743-1.4241758l.7841584-1.4004396c.0750974-.1469796.2080729-.2560855.3669989-.3011214.1589261-.0450358.3294485-.021934.4706249.0637588l.0653465.0474725c.7643565.5815385 1.5207921 1.1749451 2.2693069 1.7802198.7544555.5934066 1.4910892 1.1868132 2.2158416 1.8454945.1079082.1106101.1079082.2869723 0 .3975824-.0897691.0970206-.2337344.1213947-.350495.0593407-.8316832-.4806594-1.6574258-.9791209-2.4653466-1.4953846-.8079207-.5162638-1.6039603-1.0503297-2.3821782-1.5903297l.9267327-.2136264-.7425743 1.436044c-.2376237.4806593-.4930693.9553846-.7663366 1.4182417-.5584158.9138462-1.1881188 1.7802198-1.6811881 2.7474725-.1133297.2139373-.3755167.3003639-.5940594.1958242-.0330252-.0168278-.063115-.0388694-.0891089-.0652747-.4752475-.4213187-.9445545-.8545055-1.4316832-1.263956l-1.4613861-1.2402198-1.4673268-1.2342857c-.4871287-.4153847-.9861386-.8129671-1.4554455-1.2461539l.9861386-.1364835c-.3032266.4734326-.6386705.9254869-1.0039604 1.352967-.3685174.4234768-.702271.8759302-.9980198 1.3529671-.5940594.9375824-1.1049505 1.9463736-1.6633663 2.9136263-.068533.1204001-.1821421.2086726-.3158327.2453971s-.2765106.0188925-.3970386-.0495729c-.0445942-.0272783-.084676-.0613104-.1188119-.1008791l-.0178218-.0415385c-.7782178-.8545055-1.5207921-1.7802197-2.2811881-2.6287912-.380198-.4391209-.7485148-.8901099-1.1465347-1.3114285l-1.1881188-1.2758242 1.1881188-.0534066c-.2978166.4683-.6210724.9199647-.9683168 1.352967-.3445544.4331868-.7306931.8367033-1.0990099 1.258022-.377096.4100637-.7320544.8399036-1.0633663 1.2876923-.3207921.450989-.6475248.896044-.9564357 1.352967-.0544203.0827244-.1399159.1400539-.2371723.1590371-.0972563.0189832-.1980676-.0019815-.2796593-.0581579-.0393139-.027464-.073496-.0616085-.1009901-.1008792-.5940595-.8663736-1.1524753-1.7208791-1.7346535-2.5753846-.2970297-.4272527-.5940594-.8604395-.8554456-1.2995604-.2613861-.4391209-.5940594-.8604396-.8376237-1.3054945h.7485148c-.4811881.7298901-.9445544 1.4775824-1.4435643 2.1956044-.4990099.7180219-.9920792 1.4182417-1.5089109 2.1421978-.0932772.1221786-.2667559.1484344-.3920792.0593406-.1189892-.0760695-.162348-.2289323-.1009901-.3560439z" fill="#000"/></g></svg>