<svg width="117" height="80" viewBox="0 0 117 80" fill="none" xmlns="http://www.w3.org/2000/svg">
<g clip-path="url(#clip0_1_1125)">
<path d="M83.61 57.31C81.86 51.69 76.61 51.69 74.12 56.96C71.31 53.1 62.88 50.64 62.88 58C60.42 54.83 53.04 54.48 53.39 59.75C51.98 56.59 47.77 51.32 45.31 56.59C44.25 53.8 41.09 52.4 39 54.85C36.54 52.75 32.68 52.4 32 55.91C31.0761 53.3964 28.5634 51.8311 25.9 52.11C26.6057 56.0171 27.0997 59.9595 27.38 63.92H88.85C89.12 60.24 89.54 56.84 90.07 53.65C87.14 51.53 83.86 51.47 83.61 57.31Z" fill="#D6982B"/>
<path d="M116.18 12.32C109.078 10.7743 101.693 13.1697 96.85 18.59C96.2256 13.5659 92.4759 9.49462 87.52 8.45999C100.51 30.4 71 57.34 71.38 32C56.82 29.55 68.2 13.71 77.78 21.76C77.25 12.16 65.65 15.89 65.65 15.89C67.78 4.31999 58.45 0.189988 58.45 0.189988L58.09 0.0499878L57.73 0.189988C57.73 0.189988 48.4 4.31999 50.53 15.92C50.53 15.92 38.93 12.19 38.4 21.79C49.33 13.62 58.5 30.29 44.8 32.03C43.87 59.03 15.8 26.97 28.66 8.45999C23.7041 9.49462 19.9543 13.5659 19.33 18.59C14.4871 13.1697 7.10241 10.7743 0 12.32C0 12.32 19.68 18.42 25.85 52.11C28.5134 51.8311 31.0261 53.3964 31.95 55.91C32.66 52.4 36.52 52.75 38.95 54.85C41.06 52.4 44.22 53.8 45.28 56.61C47.74 51.34 51.95 56.61 53.36 59.77C53.01 54.5 60.36 54.85 62.85 58.02C62.85 50.64 71.28 53.1 74.09 56.96C76.55 51.69 81.83 51.69 83.58 57.31C83.83 51.47 87.11 51.53 90.04 53.65C95.92 18.62 116.18 12.32 116.18 12.32V12.32Z" fill="#ECB43C"/>
<path d="M57.73 0.190002C58.38 20.11 58.4 44.03 57.73 64.51C57.07 44.59 57.06 20.68 57.73 0.190002V0.190002Z" fill="#D6982B"/>
<path d="M55.85 42.91C51.63 43.26 48.85 51.34 52.69 53.45C58.31 56.96 62.88 47.45 57.25 43.61L55.85 42.91Z" fill="#D6982B"/>
<path d="M35.44 41.26L34.1 40.44L32.69 39.29C31.4616 38.0813 30.3716 36.7397 29.44 35.29C28.8685 34.4175 28.3541 33.5089 27.9 32.57C27.4113 31.5668 26.9839 30.5349 26.62 29.48L26.08 27.85L25.66 26.16C25.5268 25.5992 25.4233 25.0317 25.35 24.46C25.0809 22.7876 24.9804 21.0924 25.05 19.4C25.05 18.86 25.05 18.32 25.15 17.8C25.25 17.28 25.32 16.8 25.4 16.29C25.9062 13.4745 27.0185 10.8028 28.66 8.45999C28.56 8.75999 27.98 9.72999 27.31 11.53C27.2 11.85 27.08 12.2 26.96 12.53C26.5798 13.7826 26.299 15.0632 26.12 16.36C26.0733 16.84 26.0233 17.33 25.97 17.83V19.38C25.9425 21.0154 26.0731 22.6497 26.36 24.26C26.4202 24.8448 26.5137 25.4258 26.64 26L27 27.58C27.17 28.12 27.33 28.65 27.5 29.17C27.72 29.91 28.05 30.72 28.66 32.17C29.13 33.11 29.53 34.06 30.03 34.88C30.8797 36.3492 31.8747 37.7294 33 39L34.26 40.26L35.44 41.26Z" fill="#D6982B"/>
<path d="M50.53 15.92L49.84 15.83C47.5095 15.4705 45.1311 15.5725 42.84 16.13C41.9755 16.3961 41.1824 16.8542 40.52 17.47C40.2153 17.7736 39.9437 18.1089 39.71 18.47C39.5062 18.7916 39.3225 19.1256 39.16 19.47C38.9322 20.0154 38.745 20.577 38.6 21.15L38.44 21.82C38.44 21.82 38.44 21.57 38.44 21.12C38.4336 20.4997 38.5076 19.8813 38.66 19.28L38.84 18.69C38.93 18.49 39.01 18.29 39.11 18.08C39.21 17.87 39.34 17.68 39.46 17.47C39.58 17.26 39.75 17.07 39.92 16.89C40.2682 16.499 40.6726 16.162 41.12 15.89C43 14.41 47.72 14.49 50.53 15.92V15.92Z" fill="#D6982B"/>
<path d="M65.65 15.92C65.65 15.52 65.65 15.13 65.65 14.73C65.675 14.3337 65.675 13.9363 65.65 13.54L65.58 12.38C65.5502 11.6058 65.4498 10.8359 65.28 10.08L65 9C64.6898 7.89544 64.2431 6.83391 63.67 5.84C63.2949 5.17339 62.8669 4.53801 62.39 3.94L61.68 3C61.41 2.73 61.16 2.43 60.87 2.18C60.58 1.93 60.3 1.65 60 1.41C59.4064 0.901324 58.7593 0.458721 58.07 0.09L57.69 0.19C57.69 0.19 57.69 0.19 58.05 0C58.4391 0.10402 58.8174 0.244648 59.18 0.42C59.5695 0.587185 59.9471 0.780976 60.31 1C61.0157 1.40287 61.6675 1.89343 62.25 2.46C63.1613 3.29 63.9403 4.25448 64.56 5.32C64.75 5.81 64.92 5.42 65.94 8.73C66.1386 9.52522 66.246 10.3405 66.26 11.16C66.2949 11.5626 66.2949 11.9674 66.26 12.37L66.15 13.59C66.1033 13.9853 66.0264 14.3764 65.92 14.76C65.85 15.15 65.75 15.54 65.65 15.92V15.92Z" fill="#D6982B"/>
<path d="M77.78 21.79L77.62 21.11C77.4975 20.5338 77.3096 19.9735 77.06 19.44C76.8996 19.0945 76.7159 18.7604 76.51 18.44C76.2762 18.0789 76.0047 17.7436 75.7 17.44C75.0375 16.8242 74.2444 16.3661 73.38 16.1C72.9297 15.9595 72.4679 15.8591 72 15.8C71.54 15.74 71.08 15.67 70.62 15.65C69.1872 15.6015 67.7529 15.665 66.33 15.84L65.64 15.92C67.35 15.13 71.91 13.87 75.13 15.86C75.5764 16.1293 75.9779 16.4667 76.32 16.86C76.49 17.05 76.64 17.25 76.79 17.44L77.14 18.05C77.23 18.26 77.33 18.46 77.41 18.66L77.59 19.25C77.7311 19.8565 77.8016 20.4773 77.8 21.1C77.8 21.54 77.78 21.79 77.78 21.79V21.79Z" fill="#D6982B"/>
<path d="M87.52 8.45999L87.76 8.82999C87.92 9.07999 88.18 9.40999 88.45 9.88999C88.72 10.37 89.05 10.89 89.34 11.64C92.42 18.13 91.34 27.64 87.34 34.51C86.7744 35.4939 86.1395 36.4363 85.44 37.33C84.3027 38.8308 82.9076 40.1175 81.32 41.13C80.7545 41.4735 80.1503 41.7488 79.52 41.95C79.1144 42.0761 78.6943 42.1501 78.27 42.17H77.82L78.26 42.1C78.6681 42.0265 79.0671 41.9092 79.45 41.75C80.0467 41.4885 80.6078 41.1525 81.12 40.75C87.98 35.04 91.82 23.87 89.74 14.12C89.5508 13.3045 89.3172 12.4999 89.04 11.71C88.82 10.99 88.52 10.41 88.32 9.90999C87.81 8.99999 87.52 8.45999 87.52 8.45999V8.45999Z" fill="#D6982B"/>
<path d="M116.18 12.32C115.63 12.32 115.97 12.32 114.18 12.23C113.77 12.23 113.32 12.23 112.83 12.23C112.303 12.2213 111.775 12.2414 111.25 12.29C110.69 12.36 110.1 12.38 109.5 12.48C108.9 12.58 108.27 12.67 107.65 12.82C107.03 12.97 106.39 13.1 105.79 13.34C105.181 13.5237 104.583 13.7441 104 14C101.374 15.1048 98.9555 16.6504 96.85 18.57C97.0133 18.3084 97.1937 18.0578 97.39 17.82C98.2706 16.7665 99.2783 15.826 100.39 15.02C101.418 14.2766 102.516 13.6368 103.67 13.11C104.285 12.8297 104.916 12.5859 105.56 12.38C106.217 12.1751 106.885 12.0049 107.56 11.87C108.21 11.72 108.88 11.69 109.56 11.59C110.24 11.49 110.81 11.59 111.39 11.59C111.939 11.5844 112.487 11.6212 113.03 11.7C113.487 11.7311 113.942 11.7946 114.39 11.89C114.37 11.89 115.55 12.15 116.18 12.32V12.32Z" fill="#D6982B"/>
<path d="M19.33 18.59C17.2286 16.6599 14.8097 15.1071 12.18 14C11.5876 13.7396 10.9798 13.5158 10.36 13.33C9.75999 13.09 9.10999 12.99 8.49999 12.81C7.88999 12.63 7.24999 12.58 6.64999 12.47C6.04999 12.36 5.45999 12.35 4.89999 12.28C4.33999 12.21 3.80999 12.28 3.30999 12.22C2.80999 12.16 2.30999 12.17 1.95999 12.22C1.84999 12.22 0.649991 12.3 -0.0400085 12.31C0.499991 12.18 0.149992 12.24 1.87999 11.85C2.33176 11.7553 2.78951 11.6919 3.24999 11.66C3.78962 11.5808 4.33462 11.5441 4.87999 11.55H6.70999C7.33999 11.55 8.00999 11.68 8.65999 11.83C9.33513 11.9649 10.0027 12.1351 10.66 12.34C11.3038 12.5459 11.9349 12.7897 12.55 13.07C13.7139 13.5911 14.8172 14.2383 15.84 15C16.9341 15.8092 17.9249 16.7495 18.79 17.8C18.9878 18.0507 19.1682 18.3147 19.33 18.59Z" fill="#D6982B"/>
<path d="M53.86 50.61C55.79 51.49 57.02 48.15 58.95 47.8C60.0899 47.6557 61.2471 47.8469 62.28 48.35C62.07 42.56 53.71 41.35 51.96 47.11C52.71 48.14 52.46 50 53.86 50.61V50.61Z" fill="#B22832"/>
<path d="M59 47.8C55.17 50.24 53.72 52.9 52 47.11C50.2 54.44 62 56.49 62.28 48.35C61.2618 47.8565 60.1234 47.6656 59 47.8V47.8Z" fill="#912A2D"/>
<path d="M26.1 58.52C22.93 53.95 18.19 61.33 23.29 63.44C17.84 62.73 18.19 70.11 24.69 69.06C22.26 70 20.3 72.22 22.05 74C23.99 76.11 28.91 74.35 30.49 72.59C29.96 74.35 29.79 76.46 31.37 77.51C34.18 79.27 35.94 75.76 36.99 73.82C37.17 79.09 45.99 79.45 44.9 74.17C46.13 78.04 51.4 81.17 52.45 75.23C49.82 80.5 56.59 79.41 59.4 76.42C60.4 82.55 67.4 79.42 67.15 75.42C67.33 79.81 74.23 80.71 73.81 75.84C76.97 78.66 84.06 78.84 83.03 74.3C84.78 76.94 89.49 77.24 91.43 74.95C93.01 73.37 93.18 70.28 90.72 69.95C97.98 70.3 102.39 61.95 93.72 63.25C95.3 61.67 97.58 58.51 94.94 56.75C91.94 54.99 89.5 57.63 88.8 59.91C87.56 53.76 81.42 55.69 80.71 60.97C80.89 58.68 79.48 55.52 76.71 55.69C73.9 56.05 74.25 59.38 74.25 61.69C73.49 57.92 67.79 55.18 69.86 60.99C68.28 57.99 64.06 55.54 62.86 60.11C63.04 58.17 62.51 56.24 60.05 56.24C57.59 56.07 56.18 58.53 55.3 60.63C54.08 56.07 47.75 55.19 48.1 60.81C46.7 56.81 43.18 55.01 42.3 60.28C41.77 53.28 33.87 54.48 33.16 60.99C32.29 59.4 31.23 54.99 28.6 55.19C27.02 55.36 26.31 58.53 26.31 58.53L26.1 58.52Z" fill="#E5E2D6"/>
<path opacity="0.8" d="M21.37 19.61C21.37 19.61 21.37 19.42 21.32 19.11C21.2676 18.6749 21.2676 18.2351 21.32 17.8C21.32 17.52 21.39 17.22 21.46 16.91C21.53 16.6 21.63 16.28 21.74 15.96C21.9668 15.2691 22.2546 14.5998 22.6 13.96C22.79 13.65 22.98 13.33 23.17 13.03C23.3672 12.7348 23.5808 12.4511 23.81 12.18C24.0054 11.9154 24.2228 11.6679 24.46 11.44C24.68 11.22 24.9 11.02 25.1 10.84C25.4235 10.5432 25.7752 10.2787 26.15 10.05C26.42 9.87 26.58 9.78 26.58 9.78L26.29 10.19C26.11 10.46 25.81 10.78 25.52 11.19C25.37 11.41 25.21 11.65 25.03 11.89C24.58 12.56 24.26 13.04 23.47 14.41C23.29 14.73 23.29 14.72 22.56 16.22C22.43 16.52 22.29 16.8 22.17 17.07C22.05 17.34 21.98 17.6 21.88 17.84C21.7841 18.0607 21.7039 18.288 21.64 18.52C21.58 18.74 21.52 18.92 21.48 19.07C21.43 19.43 21.37 19.61 21.37 19.61V19.61Z" fill="#FFE18D"/>
<path opacity="0.8" d="M52.16 16.34C52.16 16.34 52.05 16.09 51.87 15.64C51.6967 15.1985 51.5596 14.7437 51.46 14.28C51.46 14.1 51.4 13.9 51.37 13.69C51.2993 13.2402 51.2658 12.7853 51.27 12.33C51.2849 11.2789 51.4327 10.234 51.71 9.22001C51.8649 8.68058 52.0485 8.14983 52.26 7.63001C52.4803 7.11745 52.7273 6.61677 53 6.13001C53.2518 5.65344 53.5323 5.19259 53.84 4.75001C54.3781 3.9681 54.9801 3.23224 55.64 2.55001C56.275 1.88724 56.964 1.27847 57.7 0.730011C57.7 0.730011 57.54 0.960011 57.24 1.33001C56.64 2.14001 56.84 1.77001 55.34 4.00001C55.07 4.37001 54.84 4.80001 54.57 5.22001C54.3 5.64001 54.07 6.11001 53.84 6.58001C53.3615 7.51576 52.9602 8.48899 52.64 9.49001C52.3121 10.4209 52.0972 11.3878 52 12.37C52 12.82 51.92 13.25 51.93 13.65C51.9038 14.0129 51.9038 14.3771 51.93 14.74C51.9319 15.0251 51.9587 15.3095 52.01 15.59C52.13 16.07 52.16 16.34 52.16 16.34Z" fill="#FFE18D"/>
<path opacity="0.8" d="M89.2 9.67001L89.64 9.92001C90.014 10.1456 90.3746 10.3927 90.72 10.66C91.5042 11.2466 92.2218 11.9173 92.86 12.66L93.55 13.51L94.13 14.45C94.3277 14.7654 94.4919 15.1005 94.62 15.45C94.7643 15.7535 94.8847 16.0678 94.98 16.39C95.06 16.6967 95.13 16.9867 95.19 17.26C95.2598 17.5038 95.2935 17.7565 95.29 18.01V18.59V19.09L95.1 18.62C94.9694 18.2135 94.8124 17.816 94.63 17.43C94.52 17.19 94.39 16.94 94.28 16.67C93.8183 15.7942 93.3006 14.9491 92.73 14.14C92.05 13.23 90.82 11.72 89.49 10.14L89.2 9.67001Z" fill="#FFE18D"/>
<path opacity="0.8" d="M50.74 21.17C50.74 21.17 50.92 21.35 51.21 21.68C51.3896 21.8815 51.5503 22.0991 51.69 22.33C51.9027 22.6144 52.0807 22.9233 52.22 23.25C52.3 23.43 52.39 23.61 52.48 23.8C52.57 23.99 52.61 24.21 52.68 24.42C52.8263 24.8699 52.9334 25.3316 53 25.8C53.0689 26.3036 53.0923 26.8123 53.07 27.32C53.0409 27.8519 52.9673 28.3804 52.85 28.9C52.7134 29.417 52.5189 29.9168 52.27 30.39C52.0258 30.8509 51.727 31.2807 51.38 31.67C51.0401 32.0217 50.6531 32.3246 50.23 32.57C49.8659 32.8033 49.4678 32.9788 49.05 33.09C48.2125 33.3159 47.337 33.3636 46.48 33.23C47.2938 33.1114 48.0878 32.8826 48.84 32.55C49.1985 32.3953 49.5347 32.1935 49.84 31.95C50.1721 31.6954 50.477 31.4072 50.75 31.09C51.0005 30.7461 51.2213 30.3814 51.41 30C51.6139 29.5853 51.7716 29.1493 51.88 28.7C51.9978 28.2448 52.0715 27.7793 52.1 27.31C52.1299 26.8538 52.1299 26.3962 52.1 25.94C52.0912 25.4919 52.0579 25.0445 52 24.6C51.9358 24.2144 51.8456 23.8335 51.73 23.46C51.64 23.138 51.5332 22.8209 51.41 22.51C51.3245 22.2611 51.2174 22.0202 51.09 21.79L50.74 21.17Z" fill="#FFE18D"/>
<path opacity="0.8" d="M65.5 31.1L66.5 31.5L67.5 31.83C67.83 31.91 68.16 32.01 68.5 32.1L69.75 32.36C69.9135 34.1652 70.2791 35.9464 70.84 37.67C71.189 38.7508 71.6411 39.7956 72.19 40.79C72.32 41.05 72.49 41.27 72.63 41.51C72.77 41.75 72.97 41.96 73.13 42.19C73.303 42.4149 73.4901 42.6287 73.69 42.83C73.88 43.04 74.11 43.21 74.31 43.41C74.51 43.61 74.78 43.73 75.02 43.9L75.8 44.3C75.51 44.23 75.21 44.19 74.93 44.1C74.65 44.01 74.37 43.88 74.1 43.73C73.0406 43.1172 72.1397 42.2644 71.47 41.24C71.1332 40.7352 70.8325 40.2072 70.57 39.66C70.32 39.12 70.1 38.55 69.89 37.99C69.3217 36.2729 69.0216 34.4785 69 32.67L69.29 33.02L68.29 32.68C67.96 32.53 67.64 32.4 67.29 32.24L66.37 31.71C66.06 31.52 65.78 31.31 65.5 31.1V31.1Z" fill="#FFE18D"/>
</g>
<defs>
<clipPath id="clip0_1_1125">
<rect width="117" height="80" fill="white"/>
</clipPath>
</defs>
</svg>
