<svg width="135" height="124" viewBox="0 0 135 124" fill="none" xmlns="http://www.w3.org/2000/svg">
<path d="M66.63 19.49C58.94 59.36 48.11 111.4 11.94 51.49C4.1 131.99 19.56 118.15 67.53 119.49C93.47 118.49 117.14 124.2 121.38 107.42C128.27 88.42 122.86 51.57 122.88 51.5C85.48 113.43 75.39 55.34 68.19 19.5L67.35 15.75L66.63 19.49Z" fill="#F3D15C"/>
<path d="M12.34 79.67C12.98 76.92 14.05 73.05 14.85 69.6C15.12 62.6 17.1 68.9 18.98 70.31C20.7378 72.3407 22.6393 74.2422 24.67 76C25.35 76.58 26 77.2 26.67 77.74C28.0921 78.8166 29.5968 79.7795 31.17 80.62C31.9374 81.0689 32.7441 81.4472 33.58 81.75L35.45 82.44L38.05 82.99L40.05 83.13C40.491 83.1353 40.932 83.1119 41.37 83.06C41.82 83.06 42.27 83.06 42.71 82.94L44 82.67C44.8512 82.4685 45.6815 82.1873 46.48 81.83C46.8914 81.6718 47.2866 81.4742 47.66 81.24L48.8 80.59C49.52 80.08 50.22 79.59 50.91 79C51.6 78.41 52.21 77.79 52.82 77.15L54.53 75.15L56 72.93C56.43 72.22 56.84 71.36 57.27 70.58C57.97 68.95 58.69 67.34 59.27 65.64C71.59 28.06 63.97 34.85 75.47 65.64C76.05 67.34 76.77 68.97 77.47 70.64C77.89 71.4 78.27 72.23 78.72 72.95L80.26 75.16L81.96 77.16C82.57 77.8 83.23 78.39 83.86 79.01C84.49 79.63 85.26 80.08 85.98 80.59C86.7312 81.0435 87.5056 81.4574 88.3 81.83C89.099 82.1947 89.9334 82.4762 90.79 82.67L92.07 82.97C92.5 83.03 92.95 83.04 93.38 83.08C93.8113 83.1324 94.2456 83.1558 94.68 83.15L96.68 83.01C97.21 82.91 98.22 82.68 99.25 82.46L101.12 81.77C101.953 81.4671 102.756 81.0888 103.52 80.64C105.096 79.8044 106.601 78.8412 108.02 77.76C108.73 77.22 109.38 76.6 110.07 76.02C112.078 74.2381 113.972 72.3309 115.74 70.31C115.93 70.31 119.16 65.51 119.41 66.21C119.557 67.4757 119.781 68.7314 120.08 69.97C120.56 71.97 121.28 74.39 121.93 77.46L122.23 79.36C122.29 80 122.32 80.65 122.36 81.29C122.3 80.65 122.27 80 122.2 79.37L121.86 77.47C121.4 75.47 120.69 73.05 119.86 70.03C119.519 68.7835 119.272 67.5133 119.12 66.23L119.39 66.31L116.05 70.57C114.325 72.6638 112.443 74.6229 110.42 76.43C109.73 77.02 109.08 77.65 108.42 78.21C106.984 79.3271 105.463 80.3301 103.87 81.21C103.087 81.6784 102.263 82.0766 101.41 82.4L99.49 83.13C98.77 83.29 98.01 83.47 96.78 83.73C95.6472 83.8888 94.5007 83.9257 93.36 83.84C92.9 83.84 92.44 83.84 91.99 83.73L90.63 83.44C89.7266 83.2291 88.8458 82.9311 88 82.55C87.5838 82.4044 87.182 82.2203 86.8 82L85.59 81.33C84.83 80.81 84.1 80.25 83.37 79.69C82.64 79.13 82.03 78.44 81.37 77.79L79.59 75.68L78.04 73.47C77.53 72.66 77.15 71.85 76.71 71.04C75.98 69.37 75.24 67.71 74.65 66.04C71.74 58.15 69.24 49.14 66.92 40.12H67.92C65.74 48.36 63.44 57 60.16 66C59.57 67.7 58.82 69.39 58.08 71C57.64 71.8 57.27 72.58 56.77 73.4L55.2 75.64L53.43 77.73C52.8 78.39 52.11 79 51.43 79.64C50.75 80.28 50 80.75 49.23 81.27L48 81.94C47.6061 82.1779 47.191 82.3787 46.76 82.54C45.9134 82.9117 45.0326 83.1997 44.13 83.4L42.76 83.69C42.31 83.76 41.86 83.76 41.41 83.8C40.2722 83.8513 39.1321 83.8145 38 83.69C37.44 83.58 36.39 83.33 35.32 83.09L33.4 82.36C32.5448 82.0406 31.7212 81.6423 30.94 81.17C29.346 80.2925 27.8245 79.2893 26.39 78.17C25.67 77.61 25.02 76.98 24.34 76.39C22.3345 74.5647 20.4536 72.607 18.71 70.53L15.38 66.27L15.62 66.2C15.33 67.83 15.54 67.52 15.06 69.63C14.68 71.12 14.74 71.03 14.17 72.97C13.5 75.2 12.94 77.44 12.34 79.67V79.67Z" fill="#CE8A29"/>
<path d="M112.08 118.82V117C95.96 113.2 72.96 112.39 57.93 112.8C46.1003 113.176 34.3258 114.581 22.74 117V118.85C23.2 119.77 24.08 122.04 24.59 123.47H24.77C35.7026 121.311 46.7923 120.044 57.93 119.68C72.28 119.28 94.75 120.04 110.04 123.47H110.23C110.74 122 111.62 119.74 112.08 118.82V118.82Z" fill="#EBB33A"/>
<path d="M10 93.65C10.42 86.47 14.15 79.65 21.54 89.96C31 103.16 12.14 114.41 12.14 100.4L10 93.65Z" fill="#D8AA39"/>
<path d="M73.74 84.28C70.01 77.28 59.22 82.53 56.74 88.41C52.05 110.21 83.82 105.22 73.74 84.28Z" fill="#D8AA39"/>
<path d="M125 87.34C122.89 81.43 113.34 86.8 111.5 94.93C108.5 108.11 124.18 111.44 124.17 96.76L125 87.34Z" fill="#D8AA39"/>
<path d="M71.6 96.63C69.17 97.35 67.17 94.92 65.6 93.49C63.16 96.75 60.18 93.7 59.15 90.18C56.09 100 71.49 104.87 76 96.41C75.49 94.17 73.13 95 71.6 96.63Z" fill="#D881EA"/>
<path d="M71.17 84C66.48 81.75 61.17 84.76 59.17 90.18C60.17 93.7 63.17 96.75 65.62 93.49C67.19 94.92 69.19 97.35 71.62 96.63C72.86 96.05 75.01 93.26 76.05 96.41C78.53 92.45 76.43 85.53 71.17 84V84Z" fill="#E9A0F6"/>
<path d="M71 91.92C71.94 92.01 72.55 91.18 72.18 89.73C69.16 82.54 65 89.76 71 91.92Z" fill="#F1C5FF"/>
<path d="M21.2 95.17C17.53 82.81 4.5 84.3 6.27 97.84C6.46359 98.0786 6.68143 98.2964 6.92 98.49C9.5 100.26 11.42 95.85 13.77 99.35C14.21 99.84 15.42 101.15 16.34 99.63C17.77 99.35 17.63 98.92 19.2 100.2C19.6706 100.669 20.1083 101.171 20.51 101.7C21.5192 99.6776 21.7643 97.3587 21.2 95.17Z" fill="#E9A0F6"/>
<path d="M16.34 99.63C15.55 100.1 15.05 101.23 13.77 99.35C11.54 96.12 10.1 99.85 6.91999 98.49C6.68142 98.2964 6.46358 98.0786 6.26999 97.84C6.86999 101.63 9.26999 105.42 13.5 105.42C16.3459 105.589 19.0477 104.153 20.5 101.7C20.0982 101.171 19.6605 100.669 19.19 100.2C17.63 98.92 17.77 99.35 16.34 99.63Z" fill="#D881EA"/>
<path d="M12.41 88.94C11.35 90.66 13.5 93.04 15.9 94.94C21.09 97.54 15.44 85.58 12.41 88.94Z" fill="#F1C5FF"/>
<path d="M127.9 98.49C125.32 100.26 123.4 95.85 121.04 99.35C120.61 99.84 119.4 101.15 118.48 99.63C117.05 99.35 117.19 98.92 115.62 100.2C115.149 100.669 114.712 101.171 114.31 101.7C115.761 104.155 118.464 105.591 121.31 105.42C125.56 105.42 127.94 101.63 128.54 97.84C128.35 98.0781 128.135 98.2959 127.9 98.49V98.49Z" fill="#D881EA"/>
<path d="M118.48 99.63C119.27 100.1 119.77 101.23 121.04 99.35C123.27 96.12 124.72 99.85 127.9 98.49C128.139 98.2964 128.356 98.0786 128.55 97.84C130.15 77.9 108.77 88.43 114.31 101.7C114.712 101.171 115.149 100.669 115.62 100.2C117.19 98.92 117.05 99.35 118.48 99.63V99.63Z" fill="#E9A0F6"/>
<path d="M123.49 89.45C124.3 89.76 124.49 90.54 123.33 91.92C116.46 99.21 116 87.86 123.49 89.45Z" fill="#F1C5FF"/>
<path d="M60.74 9.00001C65.25 17 69.22 14 74.69 10.15C80.48 -0.289994 67.09 -4.99999 66.79 7.54001C65.79 3.68001 62.32 0.790006 59.57 0.460006C57.81 2.40001 59.45 6.59001 60.74 9.00001V9.00001Z" fill="#E9A0F6"/>
<path d="M60.74 9.00001C59.45 6.59001 57.81 2.40001 59.57 0.460013C57.05 0.160013 55.17 2.00001 56.49 7.34001C57.88 12 65 17.39 67 19.24C70.2469 16.8301 72.8925 13.702 74.73 10.1C69.22 14 65.25 16.9 60.74 9.00001V9.00001Z" fill="#D881EA"/>
<path d="M120.74 42.7C120.284 39.6445 120.207 36.5444 120.51 33.47C114.62 35.71 121.1 49.56 122.98 52.26C125.62 51.6 130.98 47.59 133.47 42.99C128.24 47.09 122.62 51.61 120.74 42.7V42.7Z" fill="#D881EA"/>
<path d="M134.75 37.38C133.18 34.1 127.75 38.57 125.47 41.81C125.82 38.02 122.94 33.17 120.47 33.47C119.53 46.83 122.58 52.47 133.47 42.99C134.492 41.3077 134.941 39.3392 134.75 37.38V37.38Z" fill="#E9A0F6"/>
<path d="M13 41C13.53 39.21 14.06 35.91 13.23 33.7C11.12 34.62 9.05999 38.62 9.35999 41.86C6.99999 38.57 1.63999 34.1 0.0699857 37.38C-0.530014 41.56 2.99999 46.16 6.58999 49.14C9.75999 48 12 45.23 13 41V41Z" fill="#E9A0F6"/>
<path d="M16.49 35.81C15.66 33.61 14.43 33.13 13.22 33.65C14.05 35.86 13.52 39.16 12.99 40.95C11.99 45.23 9.76 47.95 6.59 49.14C8.11513 50.5188 9.89995 51.5795 11.84 52.26C13.68 50 17.88 39.53 16.49 35.81Z" fill="#D881EA"/>
<path d="M20.84 113.64C21.6 113.39 22.75 113.01 24.74 112.4C26.01 112.11 27.55 111.72 29.32 111.34C31.09 110.96 33.12 110.59 35.32 110.34C37.52 110.09 39.93 109.71 42.48 109.48C53.9071 108.417 65.3885 108.053 76.86 108.39C79.79 108.51 82.67 108.57 85.46 108.75C91.6079 109.06 97.7359 109.684 103.82 110.62C105.43 110.92 108.94 111.62 111.22 112.29C112.22 112.6 113.87 113.15 115.12 113.56L111.18 112.48C108.88 111.99 107.43 111.66 103.75 111.1C94.8166 110.044 85.8346 109.45 76.84 109.32C73.91 109.32 70.95 109.23 67.98 109.32C62.77 109.32 56.5 109.43 50.55 109.73C47.77 109.91 45.08 110.02 42.55 110.25C40.02 110.48 37.61 110.68 35.4 110.94C33.4 111.15 32.59 111.31 29.4 111.76C27.62 112.06 26.08 112.4 24.81 112.64L20.84 113.64Z" fill="#CE8A29"/>
<path d="M39.56 93.44C34.76 95.04 39.03 101.22 43.07 100.26C47.11 99.3 44.67 92.7 41.16 92.8L39.56 93.44Z" fill="#D8AA39"/>
<path d="M95.48 93.76C92.48 92.06 89.09 94.4 90.26 98.23C92.8 103 97.55 99.89 96.12 95.15L95.48 93.76Z" fill="#D8AA39"/>
<path d="M37.39 93.74C34.76 96.43 37.68 102.27 41.84 99.79C45.38 96.8 41.54 90.23 37.39 93.74Z" fill="#CD68D8"/>
<path d="M42 95.87C42.05 92.01 36 94.1 39.6 97.01C40.5713 97.27 41.5878 96.7872 42 95.87Z" fill="#E9A0F6"/>
<path d="M97.43 93.74C100.06 96.43 97.14 102.27 92.98 99.79C89.44 96.8 93.28 90.23 97.43 93.74Z" fill="#CD68D8"/>
<path d="M95.71 97.05C98.25 97.15 97.24 93.99 95.52 94.2C94.7636 94.2891 94.2098 94.9554 94.2604 95.7153C94.3111 96.4752 94.9485 97.0621 95.71 97.05Z" fill="#E9A0F6"/>
</svg>
