<svg width="119" height="83" viewBox="0 0 119 83" fill="none" xmlns="http://www.w3.org/2000/svg">
<g clip-path="url(#clip0_1_1047)">
<path d="M70.5 73C87.26 72.87 94.82 80.5 94.82 80.5C94.82 80.5 92.94 72.07 98.38 52.21C101.743 40.0543 106.459 28.3142 112.44 17.21L108.57 15.63C91.4 42.39 82.38 29.63 83.1 10.18H78.7C77.38 42.59 41.13 41.63 40.89 10.18H36.5C35.72 36.1 24.72 37.18 11.02 15.63L7.17001 17.23C13.1507 28.3342 17.8669 40.0743 21.23 52.23C26.67 72.09 24.79 80.52 24.79 80.52L29.1 75L70.5 73Z" fill="#F3D15C"/>
<path d="M24.76 81.23C31.93 71.68 93.49 74.07 94.59 81.23C87.29 72.88 24.95 75.3 24.76 81.23V81.23Z" fill="#FFE18D"/>
<path d="M93.36 62.84C86.15 57.38 34.36 57.46 26.52 62.55C24.1 62.94 19.3 68.81 24.76 69.63C25.64 61.78 95.34 62.51 94.59 69.63C97.5 68.53 95.82 63.61 93.36 62.84V62.84Z" fill="#EBB33A"/>
<path d="M93.36 75.44C86.15 69.97 34.36 70.06 26.52 75.15C24.1 75.54 19.3 81.4 24.76 82.23C25.64 74.37 95.34 75.1 94.59 82.23C97.5 81.12 95.82 76.21 93.36 75.44V75.44Z" fill="#EBB33A"/>
<path d="M93.36 62.84C76.76 57.56 56.91 58.92 38.9 60.09C37.51 60.27 36.11 60.43 34.72 60.63L32.64 61C31.2581 61.2343 29.8896 61.5414 28.54 61.92L26.54 62.63L25.93 62.91C25.7303 63.0047 25.5366 63.1115 25.35 63.23L24.18 63.92L25.3 63.15C25.4823 63.0152 25.6727 62.8916 25.87 62.78L26.48 62.47L28.48 61.64C29.15 61.41 29.83 61.23 30.48 61.03C31.84 60.59 33.24 60.39 34.62 60.03C36 59.67 37.42 59.58 38.82 59.36C56.44 57.88 75.55 56.19 93.36 62.84Z" fill="#BC7622"/>
<path d="M24.76 69.63C31.76 61.78 63.04 63.63 70.44 63.73C72.44 63.88 74.44 63.98 76.24 64.21C78.04 64.44 79.82 64.61 81.41 64.86C83 65.11 84.47 65.37 85.75 65.63C87.578 65.9825 89.374 66.4842 91.12 67.13L91.85 67.39L91.11 67.18C90.62 67.06 89.92 66.81 89 66.63C88.08 66.45 87 66.16 85.68 66C84.36 65.84 82.94 65.58 81.34 65.42C79.74 65.26 78.01 65.07 76.18 64.94C74.35 64.81 72.4 64.74 70.4 64.59C56.77 64.48 30.04 63.46 24.76 69.63V69.63Z" fill="#BC7622"/>
<path d="M93.36 75.44C78.22 70.44 59.62 71.6 43.11 72.3L38.9 72.67C37.51 72.86 36.11 73.01 34.72 73.21L32.64 73.57C31.2548 73.804 29.8828 74.1111 28.53 74.49L26.53 75.2C26.03 75.39 25.53 75.67 25.08 75.9C25.5373 75.6057 26.0114 75.3386 26.5 75.1L28.5 74.26C30.5273 73.6129 32.5909 73.0853 34.68 72.68C36.07 72.43 37.47 72.23 38.87 72.01C56.44 70.48 75.55 68.78 93.36 75.44V75.44Z" fill="#BC7622"/>
<path d="M6.27002 15.93C4.67422 16.542 2.92919 16.6502 1.27002 16.24C5.48002 23.65 17.14 18.8 13.96 10.24C13.1939 10.8291 12.3696 11.3384 11.5 11.76C9.71002 12.85 8.08002 15 6.27002 15.93Z" fill="#DDA636"/>
<path d="M7.50001 5.91997C5.05732 5.97267 2.81277 7.27588 1.55601 9.37115C0.299261 11.4664 0.206368 14.0602 1.31001 16.24C2.96919 16.6502 4.71422 16.542 6.31001 15.93C8.08001 15 9.71001 12.85 11.5 11.76C12.377 11.3365 13.208 10.8237 13.98 10.23C12.8913 7.61435 10.3332 5.91292 7.50001 5.91997V5.91997Z" fill="#F7BC46"/>
<path d="M38.8 0.889987C35.6273 0.88059 32.8449 3.00632 32.02 6.06999C34.67 6.28999 35.74 12.07 39.31 12.07C40.84 10.52 42.53 10.92 45.06 11.12C47.37 7.12999 44.02 0.719987 38.8 0.889987V0.889987Z" fill="#F7BC46"/>
<path d="M41.07 10.86C36.94 14.74 35.65 7.25999 32.07 6.06999C30 14.07 41.25 18.42 45.07 11.07C43.83 11.31 42.42 10.63 41.07 10.86Z" fill="#DDA636"/>
<path d="M84.02 9.40999C82.39 9.76999 81.3 11.22 79.67 11.04C77.31 10.5 76.77 6.50999 74.23 5.59999C74.0208 5.54231 73.8064 5.50546 73.59 5.48999C71.87 13.94 83.87 17.38 87.01 9.48999C86.0184 9.36463 85.0169 9.33783 84.02 9.40999V9.40999Z" fill="#DDA636"/>
<path d="M80.44 -6.08945e-06C77.1533 -0.00799585 74.3037 2.27171 73.59 5.47999C73.8065 5.49547 74.0209 5.53231 74.23 5.58999C76.77 6.49999 77.31 10.49 79.67 11.03C81.3 11.21 82.39 9.75999 84.02 9.39999C85.0212 9.33712 86.0261 9.37397 87.02 9.50999C88.73 5.75999 85.34 -0.230006 80.44 -6.08945e-06V-6.08945e-06Z" fill="#F7BC46"/>
<path d="M118.22 14.06C118.22 7.18 108.95 4.5 105.22 10.34C105.25 10.6387 105.31 10.9336 105.4 11.22C106.3 14.3 109.4 13.58 110.65 15.39C111.74 16.84 110.29 19.19 111.92 20.83C111.982 20.8984 112.049 20.9619 112.12 21.02C115.616 20.5668 118.229 17.585 118.22 14.06V14.06Z" fill="#F7BC46"/>
<path d="M110.66 15.39C109.39 13.58 106.31 14.3 105.41 11.22C105.32 10.9336 105.26 10.6387 105.23 10.34C102.34 14.43 106.06 22.12 112.13 21.02C112.059 20.9619 111.992 20.8984 111.93 20.83C110.3 19.19 111.75 16.84 110.66 15.39V15.39Z" fill="#DDA636"/>
<path opacity="0.4" d="M59.16 37.48C58.56 37.71 56.77 40.1 56.16 40.94C54.16 43.13 48.16 46.46 50.79 49.1C54.65 53.28 58.07 60.1 62.37 54.1C63.8 52.55 68.57 48.85 68.1 46.58L59.16 37.48Z" fill="#CE8A29"/>
<path d="M59.41 37.05C58.2432 39.2565 56.6883 41.2348 54.82 42.89C55.34 42.89 55.51 43.11 55.39 43.96C55.27 44.81 54.08 47.04 55.02 47.78C55.76 48.3 56.96 47.31 57.64 47.31C57.9 48.09 57.06 50.39 57.9 50.81C61.9 49.5 61.49 47.95 62.12 52.45C64.12 50.33 66.12 47.88 67.78 45.89C66.18 44.3 59.41 37.05 59.41 37.05V37.05Z" fill="#77B8E5"/>
<path d="M61.72 49.45C60.88 48.51 58.89 51.33 57.9 50.81C57.06 50.39 57.9 48.09 57.64 47.31C56.96 47.31 55.76 48.31 55.02 47.78C54.08 47.04 55.23 44.85 55.39 43.96C55.55 43.07 55.39 42.86 54.82 42.89C53.5 44.17 52.14 45.35 51.04 46.34C53.7 49.26 56.75 52.23 59.41 55.15C60.26 54.39 61.18 53.45 62.12 52.45C61.24 52.06 62.24 50 61.72 49.45Z" fill="#5292A2"/>
<path d="M59.07 40.87C58.7796 41.5801 58.9498 42.3954 59.5 42.93C60.43 43.93 61.16 44.2 61.59 45.54C61.8 46.3 61.89 47.96 62.65 48.34C63.41 48.72 64.07 47.78 64.26 47.13C64.6412 45.9257 64.317 44.6094 63.42 43.72C62.5709 42.6598 61.5251 41.7736 60.34 41.11L59.07 40.87Z" fill="#96D7FB"/>
<path opacity="0.4" d="M40.14 18.21C43.21 24.58 45.99 34.55 55.58 35.42L56.96 35.59C57.51 35.67 58.66 35.7 59.78 35.74L61.16 35.65C62.0863 35.5842 63.0079 35.464 63.92 35.29C64.8245 35.0993 65.7136 34.8419 66.58 34.52L67.86 34.02L69.67 33.09L71.33 32C72.6687 30.9737 73.8776 29.7883 74.93 28.47C75.4266 27.8641 75.8778 27.2223 76.28 26.55C76.6536 25.9249 76.9876 25.2769 77.28 24.61C77.8245 23.4475 78.2662 22.2395 78.6 21C78.8536 20.0137 79.0407 19.0114 79.16 18C79.26 17.17 79.27 16.51 79.31 16.07C79.35 15.63 79.31 15.38 79.31 15.38V16.07V18.01C79.2401 19.0174 79.1065 20.0194 78.91 21.01C78.6707 22.307 78.2919 23.5744 77.78 24.79C77.4898 25.4774 77.1558 26.1454 76.78 26.79C76.4113 27.5332 75.9832 28.2455 75.5 28.92C74.4649 30.3438 73.2325 31.6131 71.84 32.69L70.11 33.86L68.23 34.86L66.9 35.4C66.0009 35.7667 65.0704 36.0512 64.12 36.25C63.1594 36.4467 62.1876 36.5837 61.21 36.66L59.73 36.73C58.2858 36.7135 56.8449 36.5865 55.42 36.35C46.29 35.56 42.84 26.06 40.14 18.21V18.21Z" fill="#CE8A29"/>
<path opacity="0.4" d="M90.03 34.06C90.51 33.87 90.2 33.97 91.76 33.38C92.12 33.25 92.51 33.07 92.93 32.87C94.4333 32.2025 95.8812 31.4167 97.26 30.52C97.76 30.18 98.26 29.85 98.77 29.52L100.2 28.37C100.659 27.9986 101.093 27.5978 101.5 27.17C101.914 26.8052 102.305 26.4144 102.67 26L103.67 24.86C103.956 24.5501 104.213 24.2154 104.44 23.86C104.5 23.77 105.12 22.86 105.44 22.33C105.22 22.87 105.27 22.78 104.44 24.62C104.34 24.81 104.2 24.99 104.08 25.2C103.82 25.6 103.54 26.03 103.22 26.49C102.885 26.9584 102.514 27.3997 102.11 27.81C101.715 28.2832 101.28 28.7215 100.81 29.12L99.37 30.3C98.84 30.66 98.29 31 97.77 31.3C96.7509 31.9115 95.6841 32.4398 94.58 32.88L93.11 33.37C92.7056 33.5197 92.2867 33.6269 91.86 33.69C91.75 33.75 90.64 34 90.03 34.06V34.06Z" fill="#CE8A29"/>
<path opacity="0.4" d="M12.15 21.17C12.48 21.59 12.29 21.32 13.33 22.69C13.5944 23.039 13.8782 23.3729 14.18 23.69C14.8879 24.5032 15.6425 25.2745 16.44 26C16.8696 26.4386 17.3237 26.8526 17.8 27.24L19.25 28.46L20.79 29.57C21.45 30.07 22.33 30.57 23.79 31.48C24.74 31.94 24.44 31.86 26.35 32.74C26.45 32.74 27.54 33.21 28.12 33.47C27.59 33.36 27.92 33.47 26.23 33.09C25.3 32.8505 24.3877 32.5465 23.5 32.18C22.3879 31.6661 21.315 31.0712 20.29 30.4L18.68 29.28L17.16 28C16.2565 27.1722 15.4143 26.2798 14.64 25.33L13.71 24C13.4424 23.6421 13.2081 23.2605 13.01 22.86C12.96 22.78 12.42 21.75 12.15 21.17V21.17Z" fill="#CE8A29"/>
</g>
<defs>
<clipPath id="clip0_1_1047">
<rect width="119" height="83" fill="white"/>
</clipPath>
</defs>
</svg>
