<svg width="118" height="81" viewBox="0 0 118 81" fill="none" xmlns="http://www.w3.org/2000/svg">
<g clip-path="url(#clip0_1_1253)">
<path d="M59.21 27C76.03 -18.2 109.76 20.62 62.68 51.82H67.34C108.34 31.54 95.58 -9.18 70.68 2.64C66.3 4.72 58.63 11.38 58.86 16.8C58.63 11.38 51.42 4.72 47.05 2.63C31.18 -5.49 20 10.36 24.84 24.89C27.24 35 43.18 50.3 50.38 51.81H55.04C6 17.47 44.09 -16.22 58.51 27L58.86 28.88L59.21 27Z" fill="#F3D15C"/>
<path d="M117.56 37.64C117.15 32.43 110.48 31.18 106.1 32.01C94.39 34.29 86.27 44.31 79.4 53.77C82.32 54.4 83.4 56.6 85.89 55.56C92.19 50.42 97.48 37.98 107.06 36.56C110.3 36.04 113.93 36.93 117.47 40.17C117.607 39.3339 117.637 38.4837 117.56 37.64V37.64Z" fill="#F3D15C"/>
<path d="M107.06 36.54C121.86 42.2 87 56.54 95.85 58.35L100.06 58.06C105.18 54.65 116.18 48.46 117.47 40.15C113.93 36.91 110.3 36 107.06 36.54V36.54Z" fill="#CE8A29"/>
<path d="M0.159998 37.64C0.579998 32.43 7.24 31.18 11.62 32C23.33 34.28 31.45 44.3 38.32 53.76C35.41 54.39 34.32 56.59 31.83 55.55C25.53 50.41 20.25 37.97 10.66 36.55C7.42 36 3.79 36.91 0.249998 40.15C0.114631 39.3205 0.0843925 38.4771 0.159998 37.64V37.64Z" fill="#F3D15C"/>
<path d="M10.66 36.54C-4.13 42.2 30.72 56.54 21.87 58.35L17.66 58.06C12.54 54.65 1.54 48.46 0.25 40.15C3.79 36.91 7.42 36 10.66 36.54V36.54Z" fill="#CE8A29"/>
<path d="M55 51.83C51 48.55 44 43.24 39.13 38C38.27 37.12 37.48 36.14 36.65 35.16C34.0731 31.9602 32.153 28.2833 31 24.34C30.87 23.64 30.73 22.93 30.59 22.23C30.45 21.53 30.46 20.81 30.39 20.1C30.39 19.75 30.32 19.4 30.31 19.04V17.95C30.2845 16.4871 30.4731 15.0283 30.87 13.62C31.0769 12.9026 31.3585 12.2088 31.71 11.55C32.4186 10.2451 33.4052 9.11173 34.6 8.23002C46.4 -0.289979 56.53 18.56 58.7 27.88C58.81 28.54 58.86 28.88 58.86 28.88C58.86 28.88 58.79 28.53 58.65 27.88C56.49 20 46.06 0.730021 35.17 9.00002C34.104 9.79978 33.2267 10.8239 32.6 12C32.2926 12.5941 32.0448 13.2172 31.86 13.86C31.6603 14.5128 31.5198 15.1821 31.44 15.86C29.16 31.08 45.15 43.1 55 51.83Z" fill="#CE8A29"/>
<path d="M49.36 4.00001C47.36 3.00001 44.67 1.31001 41.28 0.770008C40.7009 0.724764 40.1191 0.724764 39.54 0.770008C38.9283 0.79957 38.3198 0.876467 37.72 1.00001C37.1 1.13001 36.46 1.24001 35.82 1.44001L34.82 1.71001C34.67 1.71001 34.46 1.80001 34.36 1.84001L33.92 2.00001C33.2637 2.21272 32.6279 2.48381 32.02 2.81001C31.4079 3.10767 30.8253 3.46258 30.28 3.87001L29.46 4.49001C29.2 4.72001 28.96 4.97001 28.72 5.21001C27.7331 6.16996 26.8999 7.27628 26.25 8.49001C25.95 9.11001 25.66 9.73001 25.42 10.35C25.18 10.97 24.97 11.61 24.84 12.26C24.291 14.6115 24.0722 17.0281 24.19 19.44C24.19 19.97 24.26 20.44 24.3 20.96C24.4254 22.1654 24.6123 23.3637 24.86 24.55L25.32 26.47L25.14 26C25.04 25.68 24.85 25.22 24.67 24.62C24.42 23.53 24.4 23.9 23.82 21.04C23.76 20.55 23.7 20.04 23.63 19.5C23.3552 17.0228 23.4801 14.5176 24 12.08C24.12 11.4 24.38 10.75 24.57 10.08C24.76 9.41001 25.12 8.75001 25.42 8.08001C26.292 6.45228 27.4428 4.99012 28.82 3.76001L29.73 3.10001C30.3282 2.67032 30.9681 2.3018 31.64 2.00001C32.2803 1.67162 32.9499 1.40379 33.64 1.20001C33.9619 1.05799 34.2968 0.947471 34.64 0.870008L35.64 0.610008C36.2959 0.427381 36.9644 0.29368 37.64 0.210008C38.2599 0.0891612 38.8887 0.0189297 39.52 7.67456e-06C40.135 -0.0176683 40.7505 0.0157801 41.36 0.100008C42.9002 0.413297 44.3816 0.966717 45.75 1.74001C46.51 2.17001 47.17 2.53001 47.75 2.86001C48.1741 3.10276 48.5817 3.37335 48.97 3.67001L49.36 4.00001Z" fill="#FFE18D"/>
<path d="M83.94 39.15L85.8 37C86.36 36.28 87.05 35.41 87.8 34.4C88.6438 33.2621 89.4217 32.0769 90.13 30.85C90.9684 29.3972 91.6394 27.854 92.13 26.25C93.2489 22.5605 93.6462 18.6899 93.3 14.85C93.1824 13.8391 92.9986 12.8369 92.75 11.85C92.4646 10.8692 92.0931 9.91551 91.64 9.00002C91.4532 8.52675 91.2115 8.07701 90.92 7.66002C90.64 7.25002 90.4 6.80002 90.08 6.41002L89.08 5.28002C88.7302 4.91746 88.3524 4.58309 87.95 4.28002C87.5892 3.93498 87.1819 3.64214 86.74 3.41002L85.47 2.67002C84.5828 2.28585 83.6747 1.95198 82.75 1.67002C78.33 1.56164e-05 73.35 0.900016 68.79 4.00002C68.27 4.35002 67.79 4.65002 67.32 5.00002C66.3441 5.72047 65.4093 6.49502 64.52 7.32002L63.96 7.82002L64.48 7.28002C65.3271 6.40198 66.2182 5.56757 67.15 4.78002C67.58 4.43002 68.08 4.09002 68.6 3.70002C72.31 1.00002 77.39 -1.14998 83 0.820016C83.9812 1.09925 84.946 1.4331 85.89 1.82002L87.26 2.60002C87.7213 2.85749 88.1566 3.15889 88.56 3.50002C88.9899 3.80391 89.3976 4.13809 89.78 4.50002L90.86 5.70002C91.1894 6.13064 91.4965 6.5779 91.78 7.04002C92.0902 7.48043 92.3517 7.9532 92.56 8.45002C93.0183 9.41619 93.393 10.4199 93.68 11.45C93.9334 12.4793 94.1139 13.5253 94.22 14.58C94.5899 18.5418 94.1126 22.5369 92.82 26.3C92.2811 27.9294 91.5599 29.4926 90.67 30.96C89.9066 32.18 89.0648 33.3491 88.15 34.46L85.96 36.96L83.94 39.15Z" fill="#FFE18D"/>
<path d="M63.83 17C66 13.25 70.12 7.10001 76 6.10001C77.0301 5.97256 78.075 6.04041 79.08 6.30001L79.47 6.39001C79.6024 6.42575 79.7326 6.46915 79.86 6.52001L80.58 6.80001C83.1725 7.90046 85.257 9.9349 86.42 12.5C86.6449 13.035 86.8385 13.5826 87 14.14C87.16 14.69 87.21 15.27 87.32 15.84C87.43 16.41 87.38 16.98 87.41 17.55C87.44 18.12 87.47 18.67 87.41 19.24C87.29 20.38 87.26 21.53 87.05 22.67C86.8526 23.7824 86.5854 24.8812 86.25 25.96C84.7955 29.9478 82.5813 33.6155 79.73 36.76C75.9426 40.8369 71.7996 44.5683 67.35 47.91C71.551 44.3148 75.4972 40.4322 79.16 36.29C81.8478 33.1549 83.9481 29.5607 85.36 25.68C85.962 23.5906 86.298 21.4335 86.36 19.26C86.36 18.71 86.36 18.14 86.36 17.58C86.36 17.02 86.36 16.42 86.29 15.95C86.22 15.48 86.16 14.88 86.01 14.37C85.8784 13.8569 85.7147 13.3526 85.52 12.86C84.4788 10.4994 82.5864 8.61782 80.22 7.59001L79.51 7.30001C79.4044 7.24872 79.2938 7.20851 79.18 7.18001L78.83 7.08001C77.9276 6.82102 76.9848 6.73284 76.05 6.82001C71 7.63001 66.87 12.38 63.83 17V17Z" fill="#CE8A29"/>
<path d="M117.56 37.64C117.56 37.64 117.56 37.55 117.49 37.37C117.42 37.19 117.39 36.92 117.28 36.61C117.144 36.2377 116.966 35.8821 116.75 35.55C116.627 35.3395 116.48 35.1448 116.31 34.97C116.144 34.7606 115.956 34.5695 115.75 34.4C115.543 34.1978 115.311 34.023 115.06 33.88C114.809 33.6979 114.541 33.5405 114.26 33.41C113.656 33.1199 113.027 32.8856 112.38 32.71C111.68 32.5374 110.968 32.4171 110.25 32.35C108.757 32.2056 107.251 32.2797 105.78 32.57L103.58 33L101.64 33.62C101.052 33.8126 100.478 34.0431 99.92 34.31C99.18 34.6 97.84 35.31 96.44 36.01C96.95 35.62 96.62 35.85 98.29 34.63C98.7343 34.3249 99.1949 34.0445 99.67 33.79C100.212 33.4542 100.781 33.1633 101.37 32.92C102.01 32.67 102.69 32.38 103.37 32.14C104.887 31.729 106.436 31.448 108 31.3C108.798 31.2649 109.597 31.295 110.39 31.39C111.16 31.4803 111.92 31.641 112.66 31.87C113.359 32.0872 114.031 32.3859 114.66 32.76C114.957 32.9277 115.238 33.1218 115.5 33.34C115.751 33.5332 115.982 33.751 116.19 33.99C116.394 34.2005 116.575 34.4317 116.73 34.68C116.886 34.8923 117.014 35.1243 117.11 35.37C117.291 35.7524 117.426 36.1553 117.51 36.57C117.58 36.91 117.51 37.18 117.59 37.36C117.67 37.54 117.56 37.64 117.56 37.64V37.64Z" fill="#FFE18D"/>
<path d="M0.249997 40.15L0.189997 39.8C0.189997 39.57 0.0699965 39.24 0.0299965 38.8C-0.00973435 38.2707 -0.00973435 37.7393 0.0299965 37.21C0.143635 36.3162 0.447085 35.457 0.919997 34.69L1.31 34.21C1.58969 33.8772 1.90116 33.5724 2.24 33.3C2.98846 32.7373 3.82241 32.2984 4.71 32C5.65129 31.7018 6.62487 31.5171 7.61 31.45L9.12 31.38C9.62 31.38 10.12 31.38 10.63 31.43C11.1336 31.4549 11.6348 31.515 12.13 31.61C12.6288 31.6715 13.1232 31.7651 13.61 31.89C14.5661 32.1245 15.4946 32.4597 16.38 32.89C17.2259 33.2201 18.0312 33.6463 18.78 34.16L20.78 35.42C21.3634 35.7741 21.9214 36.1684 22.45 36.6C22.92 36.98 23.36 37.26 23.67 37.6L24.4 38.31L24.62 38.59L24.36 38.35L23.55 37.76C23.1287 37.4629 22.6914 37.1891 22.24 36.94C21.72 36.63 21.17 36.27 20.5 35.94L18.39 34.82C18.017 34.6069 17.6331 34.4133 17.24 34.24L16 33.65C15.1455 33.3006 14.2621 33.0262 13.36 32.83C12.9131 32.7169 12.4586 32.6367 12 32.59C11.5279 32.5016 11.0499 32.4482 10.57 32.43C10.09 32.43 9.57 32.37 9.13 32.36H7.7C6.78744 32.4018 5.88213 32.5426 5 32.78C4.18402 33.023 3.40637 33.3799 2.69 33.84C2.3716 34.063 2.07375 34.314 1.8 34.59L1.42 34.99C1.32 35.15 1.22 35.29 1.13 35.44C0.946601 35.7186 0.795623 36.0172 0.679997 36.33C0.398432 37.1028 0.249665 37.9176 0.239997 38.74C0.229997 39.65 0.249997 40.15 0.249997 40.15V40.15Z" fill="#FFE18D"/>
<path d="M94.43 59.92C86.6397 58.0089 78.689 56.8238 70.68 56.38C65.31 56.03 52.08 56.05 47.05 56.38C36.46 57.24 24.6 58.62 14.33 62.38C14.1194 62.5154 13.9189 62.6657 13.73 62.83C14.73 66.83 15.98 70.83 16.83 74.9C17.25 77.14 17.5 78.99 18.56 80.42C19.61 77.1 31.44 75.51 34.56 75.01C40.4774 74.0062 46.447 73.3385 52.44 73.01L62.04 72.84C69.1138 73.125 76.1618 73.8666 83.14 75.06C86.26 75.56 98.14 77.15 99.14 80.47C100.14 79.04 100.44 77.19 100.86 74.95C101.71 70.87 102.96 66.95 103.97 62.88C103.778 62.7158 103.574 62.5654 103.36 62.43C101.1 60.75 96.93 60.54 94.43 59.92Z" fill="#F3D15C"/>
<path d="M18.56 80.46C21.02 76.46 29.41 75.79 34.56 74.72C40.6012 73.676 46.6928 72.9483 52.81 72.54C54.81 72.49 59.88 72.38 61.97 72.36C69.1185 72.6648 76.2381 73.4533 83.28 74.72H83.06C88.06 75.9 95.06 75.54 99.22 80.43C96.53 76.65 88.28 76.33 83.16 75.36H83.36C76.91 74.52 69.36 73.58 61.97 73.36C60.09 73.42 54.86 73.49 52.82 73.51C47.95 73.78 40.07 74.61 34.65 75.42C29.63 76.62 22.92 75.85 18.56 80.46Z" fill="#CE8A29"/>
<path d="M103.39 54.1C93.49 50.34 81.53 48.98 70.68 48.1C65.31 47.75 52.08 47.77 47.05 48.1C36.46 48.96 24.6 50.34 14.33 54.1C12.04 55.56 12.66 57.23 13.08 60.1C13.27 61.01 13.5 61.92 13.73 62.82C13.9189 62.6558 14.1194 62.5054 14.33 62.37C24.23 58.61 36.19 57.25 47.05 56.37C51.85 56.05 64.8 56.01 70.68 56.37C81.27 57.23 93.13 58.61 103.39 62.37C103.604 62.5054 103.808 62.6558 104 62.82C104.22 61.92 104.45 61.01 104.64 60.1C105.06 57.23 105.68 55.56 103.39 54.1V54.1Z" fill="#EBB33A"/>
<path d="M57.14 60.2C50.54 59.2 58.14 69.2 60.71 69.37C63.89 69.03 69.58 57.37 62.49 59.18C61.49 59.69 60.58 63.51 60.49 63.51C60.0775 63.1141 59.6932 62.6897 59.34 62.24L57.14 60.2Z" fill="#D6982B"/>
<path d="M62.9 62.82C61.9 62.93 62.23 63.71 61.67 64.05C60.92 65.14 59.73 64.45 58.54 63.05C57.32 65.96 56.54 61.57 55.11 61.71C55.84 64.55 58.28 66.13 60.44 67.78C61.9682 66.6689 63.3463 65.3647 64.54 63.9C64.11 63.24 63.77 62.71 62.9 62.82V62.82Z" fill="#912A2D"/>
<path d="M60.44 61.66C59.84 58.96 53.78 57.11 55.11 61.66C56.57 61.52 57.32 65.91 58.54 63C58.9 63.35 60.9 65.68 61.67 64C62.12 63.19 63.51 61.91 64.54 63.84C68.18 59.37 62.21 56 60.44 61.66V61.66Z" fill="#B22832"/>
<path d="M63.35 59.91C62.23 62.04 65.47 61.03 63.9 59.91H63.35Z" fill="#CE2C3F"/>
<path d="M104 62.87L103.78 62.72C103.578 62.564 103.364 62.4236 103.14 62.3C99.36 60.39 93.76 60.3 88.61 58.95C86.04 58.55 83.26 57.95 79.61 57.63C78.33 57.51 77.02 57.28 75.68 57.2C67.2306 56.5995 58.7551 56.4527 50.29 56.76C48.89 56.82 47.45 56.76 46.11 56.9L42 57.2C40.65 57.28 39.35 57.51 38.07 57.63C35.56 57.89 32.51 58.38 29.07 58.95C24.68 60.21 19.07 60.18 14.54 62.3C14.3179 62.4261 14.1041 62.5664 13.9 62.72L13.69 62.87L13.89 62.71C14.0863 62.5432 14.2934 62.3895 14.51 62.25C15.3321 61.7135 16.233 61.3086 17.18 61.05C20.39 60.24 24.68 59.42 28.95 58.36C31.53 57.89 34.31 57.27 37.95 56.82C40.1 56.5 42.68 56.26 45.95 56C47.37 55.86 48.75 55.89 50.17 55.83C59.43 55.54 69.51 55.43 79.63 56.83C82.14 57.15 85.2 57.71 88.63 58.37C92.14 59.24 96.46 60.11 100.4 61.06C101.345 61.3161 102.243 61.7212 103.06 62.26C103.277 62.3995 103.484 62.5532 103.68 62.72L104 62.87Z" fill="#FFE18D"/>
</g>
<defs>
<clipPath id="clip0_1_1253">
<rect width="118" height="81" fill="white"/>
</clipPath>
</defs>
</svg>
