<svg width="113" height="86" viewBox="0 0 113 86" fill="none" xmlns="http://www.w3.org/2000/svg">
<g clip-path="url(#clip0_1_2843)">
<path d="M56.33 77C37 76.12 15.72 76.82 13.49 60.85C9.34 49.39 1.31 27.17 1.29 27.11C-3.58 19.11 6.67 26.11 10.08 25.28C9.99 27.6 8.29 30.71 10.79 34.72C26.25 54.51 30.73 43.72 24.08 21.21L23.16 18.39C18.93 9.85 29.23 20 30.6 20C29.6 24 30.55 24.56 32.92 28C46.12 43.25 49.21 32.87 52.79 18.9C52.41 17.37 47.88 11.08 48.89 9.68C50.38 8.21 54.6 0.59 56.47 0C66.68 11 64.59 10.12 60.16 18.88C64 35 68 41.92 80 28C81.57 25.63 83.63 23.8 82.32 20C87.72 17.42 93.45 9.6 88.84 21.21C81.61 45.84 87.77 53.08 102.07 34.81C104.77 31.02 102.6 27.57 103.07 25.19C108.2 25.61 115.85 19.68 111.68 27.11C93.17 72.66 106.38 75.21 56.33 77V77Z" fill="#DEA221"/>
<path d="M56.47 0.789978C47.02 12.59 49.22 9.27998 53.63 18.79C49.85 34.79 45.35 43.59 32.31 28.46C30.73 26.12 28.55 23.88 29.72 20.33L23.27 16.16L24.84 21C32.58 46.79 24.84 54.08 10.19 35.23C7.94 31.59 8.57 28.43 9.3 25.88C6.42715 25.6833 3.59616 25.0842 0.889999 24.1L2 26.84C20.35 72.33 7.54 74.47 56.5 76.2V0.789978H56.47Z" fill="#FDC33C"/>
<path d="M57.52 76.19C85.67 75 96 74.32 99.15 59.42C103.4 47.66 110.92 26.85 110.94 26.78L112.05 24.1C109.34 25.0718 106.511 25.6706 103.64 25.88C104.17 27.97 105.2 31.21 102.76 35.23C86.82 55.65 81 44.4 88.12 21L89.68 16.23L83.23 20.4C84.1 24.08 82.98 25.15 80.63 28.53C66.63 44.67 62.94 33.23 59.31 18.86C59.46 18.08 63.89 10.86 63.42 10.17C63.18 9.99998 57 0.899978 56.5 0.789978V76.2L57.52 76.19Z" fill="#E8AA2E"/>
<path d="M65.39 59.65C64.77 72.01 48.51 71.06 48.22 59.65C48.84 47.29 65.1 48.24 65.39 59.65Z" fill="#EFAD29"/>
<path d="M25.51 61.6C25.51 63.2568 24.1668 64.6 22.51 64.6C20.8531 64.6 19.51 63.2568 19.51 61.6C19.51 59.9431 20.8531 58.6 22.51 58.6C24.1668 58.6 25.51 59.9431 25.51 61.6V61.6Z" fill="#EFAD29"/>
<path d="M41.94 61.15C41.986 63.8418 39.9699 66.1236 37.293 66.4095C34.616 66.6954 32.1634 64.8908 31.64 62.25C30.08 54.44 41.73 53.43 41.94 61.15V61.15Z" fill="#EFAD29"/>
<path d="M88.1 61.6C88.1 63.2568 89.4431 64.6 91.1 64.6C92.7569 64.6 94.1 63.2568 94.1 61.6C94.1 59.9431 92.7569 58.6 91.1 58.6C89.4431 58.6 88.1 59.9431 88.1 61.6V61.6Z" fill="#EFAD29"/>
<path d="M71.67 61.15C71.5067 63.9216 73.5496 66.3326 76.3104 66.6266C79.0712 66.9206 81.576 64.9938 82 62.25C83.54 54.44 71.88 53.43 71.67 61.15V61.15Z" fill="#EFAD29"/>
<path d="M56.81 67.64C46.47 67.02 47.36 51.94 56.81 51.64C67.14 52.28 66.25 67.36 56.81 67.64Z" fill="#EF0000"/>
<path d="M22.53 63.69C19.4 63.69 20.87 57.05 24.2 60.54C24.87 62 24.42 63.08 22.53 63.69Z" fill="#EF0000"/>
<path d="M36.74 65.58C31.5 65.44 31.27 57.07 36.74 56.72C42 56.86 42.2 65.23 36.74 65.58Z" fill="#EF0000"/>
<path d="M91.08 63.69C87.94 63.69 89.41 57.05 92.75 60.54C93.42 62 93 63.08 91.08 63.69Z" fill="#EF0000"/>
<path d="M76.87 65.58C71.63 65.44 71.41 57.07 76.87 56.72C82.11 56.86 82.34 65.23 76.87 65.58Z" fill="#EF0000"/>
<path d="M60.89 54.54C58.89 50.01 48.89 54.06 50.58 58.91C52.63 63.44 62.62 59.39 60.89 54.54Z" fill="#FF1F1F"/>
<path d="M39.22 58.39C38.22 55.69 30.81 58.66 33.84 61.63C35.63 63 40 61 39.22 58.39Z" fill="#FF1F1F"/>
<path d="M37.69 58.24C37.24 56.73 32.56 58.4 34.69 60.24C35.3586 60.5223 36.1243 60.4498 36.7282 60.0473C37.332 59.6447 37.6934 58.9658 37.69 58.24V58.24Z" fill="#FF8585"/>
<path d="M57.77 54.11C56.91 51.63 49.98 54.31 52.77 57.11C54.51 58.42 58.29 56.64 57.77 54.11Z" fill="#FF8585"/>
<path d="M79.35 58.27C78.35 55.58 70.94 58.55 73.97 61.51C75.76 62.91 80.1 60.86 79.35 58.27Z" fill="#FF1F1F"/>
<path d="M92.06 60.32C91.45 58.63 87.22 62.02 91.16 61.76C91.53 61.55 91.91 61.37 92.06 60.32Z" fill="#FF1F1F"/>
<path d="M23.61 60.18C22.98 58.42 18.61 61.94 22.68 61.67C23.07 61.45 23.46 61.26 23.61 60.18Z" fill="#FF1F1F"/>
<path d="M22.58 60.22C22.49 60.77 22.14 60.91 22.58 60.22C22.48 59.97 22.58 60.22 21.77 60.04C21.61 60.17 20.76 61.08 22.58 60.22Z" fill="#FF8585"/>
<path d="M77.86 58.05C77.42 56.54 72.74 58.21 74.86 60.05C75.5285 60.3378 76.2972 60.2678 76.9028 59.8641C77.5083 59.4604 77.8685 58.7778 77.86 58.05Z" fill="#FF8585"/>
<path d="M91.39 60.33C90.06 61.23 89.94 60.95 90.88 61.15C91.59 60.15 89.88 59.86 89.94 60.95C91.1 61 91.31 60.92 91.39 60.33Z" fill="#FF8585"/>
<path d="M98.64 65.12C94.17 75.12 16.52 74.12 14.3 65.12H14.2V74.48C14.2 78.75 33.13 82.22 56.47 82.22C79.81 82.22 98.74 78.75 98.74 74.48V65.12H98.64Z" fill="#FDC33C"/>
<path d="M98.74 74C99.79 85 11.93 84.49 14.2 74C5.82999 76.65 26 85.58 56.47 85.21C91.2 85.49 106.3 76.36 98.74 74Z" fill="#E59F23"/>
<path d="M56.47 84.16C38.72 84.16 27.26 81.92 20.62 79.65C39.4 84.85 92.06 85.26 99.56 75.49L99.73 75.6C99.1 77.3 90.24 84.16 56.47 84.16V84.16ZM14.12 76.53C13.7561 76.2631 13.4528 75.9224 13.23 75.53L13.38 75.44C13.5557 75.8468 13.8067 76.2166 14.12 76.53Z" fill="#FDC33C"/>
<path d="M99.65 62.79L98.85 63.51C90.05 73.4 17.71 73.06 14.2 63.28L13.11 62.59C7.68 66.42 26.61 74.79 60.92 74C93 73.47 104.55 65.5 99.65 62.79Z" fill="#E59F23"/>
<path d="M56.47 73C25.32 73 13.54 66.1 13.17 64.24C13.172 64.1348 13.1889 64.0305 13.22 63.93L13.33 64C20.94 75.94 94.51 72.93 99.69 64.19L99.77 64.12V64.27C99.71 65.59 91.46 73 56.47 73V73Z" fill="#FDC33C"/>
<path d="M21.19 73.2C21.1103 74.4034 20.111 75.3387 18.905 75.3387C17.699 75.3387 16.6996 74.4034 16.62 73.2C16.6996 71.9966 17.699 71.0612 18.905 71.0612C20.111 71.0612 21.1103 71.9966 21.19 73.2Z" fill="#EFAD29"/>
<path d="M18.9 75C15.04 74.48 18.96 68.69 20.66 73.25C20.62 73.8 20.24 74.63 18.9 75Z" fill="#FFCC66"/>
<path d="M18.86 72.91C17.36 73.8 17.31 71.23 19.39 71.91C19.45 72.09 19.48 72.28 18.86 72.91Z" fill="#FFDFA6"/>
<path d="M29.22 74.94C29.1403 76.1434 28.141 77.0788 26.935 77.0788C25.729 77.0788 24.7296 76.1434 24.65 74.94C24.7296 73.7366 25.729 72.8013 26.935 72.8013C28.141 72.8013 29.1403 73.7366 29.22 74.94Z" fill="#EFAD29"/>
<path d="M26.93 76.7C23.07 76.18 26.99 70.39 28.69 74.94C28.5843 75.8647 27.8547 76.5943 26.93 76.7Z" fill="#FFCC66"/>
<path d="M37.25 76.69C37.1703 77.8934 36.171 78.8288 34.965 78.8288C33.759 78.8288 32.7596 77.8934 32.68 76.69C32.7596 75.4866 33.759 74.5513 34.965 74.5513C36.171 74.5513 37.1703 75.4866 37.25 76.69Z" fill="#EFAD29"/>
<path d="M35 78.44C31.13 77.92 35.05 72.13 36.75 76.69C36.6409 77.6076 35.9175 78.331 35 78.44Z" fill="#FFCC66"/>
<path d="M47.56 77.22C47.56 78.4792 46.5392 79.5 45.28 79.5C44.0208 79.5 43 78.4792 43 77.22C43 75.9608 44.0208 74.94 45.28 74.94C46.5392 74.94 47.56 75.9608 47.56 77.22Z" fill="#EFAD29"/>
<path d="M45.28 79C41.41 78.48 45.34 72.69 47.04 77.24C46.9343 78.1647 46.2047 78.8943 45.28 79Z" fill="#FFCC66"/>
<path d="M57.88 77.76C57.88 79.0192 56.8592 80.04 55.6 80.04C54.3408 80.04 53.32 79.0192 53.32 77.76C53.32 76.5008 54.3408 75.48 55.6 75.48C56.8592 75.48 57.88 76.5008 57.88 77.76Z" fill="#EFAD29"/>
<path d="M55.6 79.52C51.73 79 55.66 73.2 57.36 77.76C57.2543 78.6847 56.5247 79.4143 55.6 79.52Z" fill="#FFCC66"/>
<path d="M69.36 77.22C69.36 78.4792 68.3392 79.5 67.08 79.5C65.8208 79.5 64.8 78.4792 64.8 77.22C64.8 75.9608 65.8208 74.94 67.08 74.94C68.3392 74.94 69.36 75.9608 69.36 77.22Z" fill="#EFAD29"/>
<path d="M67.08 79C63.21 78.48 67.14 72.69 68.84 77.24C68.7343 78.1647 68.0047 78.8943 67.08 79Z" fill="#FFCC66"/>
<path d="M80.84 76.69C80.84 77.9492 79.8192 78.97 78.56 78.97C77.3008 78.97 76.28 77.9492 76.28 76.69C76.28 75.4308 77.3008 74.41 78.56 74.41C79.8192 74.41 80.84 75.4308 80.84 76.69Z" fill="#EFAD29"/>
<path d="M78.56 78.44C74.69 77.92 78.62 72.13 80.32 76.69C80.21 77.6109 79.4814 78.3353 78.56 78.44Z" fill="#FFCC66"/>
<path d="M89.37 74.94C89.2904 76.1434 88.291 77.0788 87.085 77.0788C85.879 77.0788 84.8797 76.1434 84.8 74.94C84.8797 73.7366 85.879 72.8013 87.085 72.8013C88.291 72.8013 89.2904 73.7366 89.37 74.94Z" fill="#EFAD29"/>
<path d="M87.08 76.7C83.22 76.18 87.14 70.39 88.84 74.94C88.7343 75.8647 88.0047 76.5943 87.08 76.7Z" fill="#FFCC66"/>
<path d="M97.89 73.2C97.89 74.4592 96.8692 75.48 95.61 75.48C94.3508 75.48 93.33 74.4592 93.33 73.2C93.33 71.9408 94.3508 70.92 95.61 70.92C96.8692 70.92 97.89 71.9408 97.89 73.2Z" fill="#EFAD29"/>
<path d="M95.61 75C91.74 74.48 95.67 68.69 97.37 73.25C97.33 73.8 96.94 74.63 95.61 75Z" fill="#FFCC66"/>
<path d="M26.72 74.73C25.21 75.62 25.17 73.05 27.24 73.73C27.31 73.91 27.34 74.1 26.72 74.73Z" fill="#FFDFA6"/>
<path d="M34.73 76.5C33.23 77.4 33.19 74.82 35.26 75.5C35.33 75.69 35.36 75.87 34.73 76.5Z" fill="#FFDFA6"/>
<path d="M45 77C43.5 77.9 43.45 75.32 45.53 76C45.63 76.21 45.66 76.4 45 77Z" fill="#FFDFA6"/>
<path d="M55.35 77.56C53.84 78.46 53.8 75.88 55.87 76.56C55.94 76.75 56 76.94 55.35 77.56Z" fill="#FFDFA6"/>
<path d="M66.94 77C65.43 77.9 65.39 75.32 67.46 76C67.53 76.21 67.56 76.4 66.94 77Z" fill="#FFDFA6"/>
<path d="M78.37 76.5201C76.87 77.4101 76.82 74.8401 78.9 75.5201C79 75.7001 79 75.8901 78.37 76.5201Z" fill="#FFDFA6"/>
<path d="M86.71 74.73C85.21 75.62 85.16 73.05 87.24 73.73C87.3 73.91 87.33 74.1 86.71 74.73Z" fill="#FFDFA6"/>
<path d="M95.46 73C93.96 73.89 93.91 71.32 95.99 72C96.05 72.18 96.08 72.37 95.46 73Z" fill="#FFDFA6"/>
</g>
<defs>
<clipPath id="clip0_1_2843">
<rect width="113" height="86" fill="white"/>
</clipPath>
</defs>
</svg>
