<svg width="98" height="108" viewBox="0 0 98 108" fill="none" xmlns="http://www.w3.org/2000/svg">
<path d="M12.53 78.94C11.67 22.2 83.53 28.83 79.68 78.94H12.53Z" fill="#F54144"/>
<g opacity="0.3">
<path opacity="0.3" d="M26 52.8C28.7764 47.9361 32.4237 43.6244 36.76 40.08C11.31 45.83 12.53 78.94 12.53 78.94H19.13C18.26 69.79 22.27 59.23 26 52.8V52.8Z" fill="#EA5F86"/>
<path opacity="0.3" d="M35.66 62.94C36.23 55.76 37.85 47.48 41.22 40.56C28.78 47.66 20.84 64.06 21.31 78.94H35.69C34.84 73.76 35.24 67.86 35.66 62.94V62.94Z" fill="#EA5F86"/>
<path opacity="0.3" d="M59.89 78.94H72.35C71.992 74.1319 71.324 69.352 70.35 64.63C69.4058 60.5531 68.007 56.595 66.18 52.83C62.52 46.28 57.07 40.83 51.35 40.67C59.77 51.31 60.43 65.31 59.89 78.94Z" fill="#EA5F86"/>
<path opacity="0.3" d="M58 73.75C58 73.54 58 73.33 58 73.12C57.7121 66.4898 56.8421 59.8978 55.4 53.42C49.4 36.34 44.74 43.83 44.4 39.42L44.21 39.49C38.4043 51.7814 36.219 65.472 37.91 78.96H57.85C57.88 77.24 58 75.52 58 73.75V73.75Z" fill="#EA5F86"/>
<path opacity="0.3" d="M61.81 42.71C70.88 51.79 74.36 65.87 75.16 78.94H79.68C79.68 78.94 82 52.38 61.81 42.71V42.71Z" fill="#EA5F86"/>
</g>
<path d="M3.50999 35.63L17.71 107.7H73.2L95.09 29.51C54.95 127.21 51.42 38.51 47.29 1.10001C47.29 1.10001 40.11 70.29 27.07 72.63C14.03 74.97 3.50999 35.63 3.50999 35.63V35.63Z" fill="#FEAF1F"/>
<path d="M42.28 4.7C42.43 -1.49 51.67 -1.64 51.97 4.7C51.83 10.89 42.58 11 42.28 4.7Z" fill="#E31F37"/>
<path d="M0 34.46C0.11 30.13 6.66 29.78 7 34.46C6.86152 36.2906 5.33582 37.7052 3.5 37.7052C1.66418 37.7052 0.138478 36.2906 0 34.46Z" fill="#E31F37"/>
<path d="M89.78 32.71C89.91 27.96 97.07 27.57 97.47 32.71C97.34 37.45 90.18 37.84 89.78 32.71Z" fill="#E31F37"/>
<path d="M75.04 101.13H16.42L15.4 95.98H76.48L75.04 101.13Z" fill="#E31F37"/>
<path d="M45.68 75.71C45.68 75.71 49.83 67.35 55.21 70.2C65.52 75.65 45.68 91.89 45.68 91.89C21.57 70.91 41.32 63.12 45.68 75.71V75.71Z" fill="#F54144"/>
<path d="M39.67 73.2C40.38 75.03 40.97 76.88 41.56 78.75C42.8 77.44 44.04 76.13 45.25 74.75C44.4454 73.0397 43.2703 71.5299 41.81 70.33C41 71.03 40.18 71.72 39.36 72.41L39.67 73.2Z" fill="#EA5F86"/>
<path opacity="0.6" d="M39.29 73.31L39.05 72.72C37.38 74.14 35.73 75.59 34.17 77.14C34.9787 79.2632 36.0975 81.2548 37.49 83.05C38.73 81.71 39.99 80.39 41.25 79.05C40.65 77.13 40.05 75.2 39.29 73.31V73.31Z" fill="#EA5F86"/>
<path opacity="0.8" d="M54.53 71.24C54.73 70.89 54.95 70.53 55.15 70.17C53.3765 69.2745 51.2411 69.5139 49.71 70.78C50.71 71.91 51.87 72.97 52.93 74.09C53.46 73.14 54 72.19 54.53 71.24V71.24Z" fill="#EA5F86"/>
<path opacity="0.6" d="M55.54 70.39C54.82 71.76 53.93 73.08 53.21 74.39C54.52 75.82 55.8 77.29 57.1 78.74C58.68 75.44 58.8 72.31 55.54 70.39V70.39Z" fill="#EA5F86"/>
<path d="M52.68 74.52C52.6769 74.4934 52.6769 74.4666 52.68 74.44L52.61 74.37C51.54 73.23 50.4 72.15 49.35 71.01C48.1693 71.9933 47.1561 73.1619 46.35 74.47C47.66 76.05 48.91 77.67 50.16 79.3C51 77.69 51.81 76.09 52.68 74.52V74.52Z" fill="#EA5F86"/>
<path d="M53 74.74C52.11 76.36 51.26 77.99 50.46 79.65C51.53 81.05 52.6 82.45 53.7 83.84C54.9222 82.3708 55.9943 80.7829 56.9 79.1C55.61 77.65 54.33 76.17 53 74.74V74.74Z" fill="#EA5F86"/>
<path opacity="0.8" d="M43.46 86.4C43 84.78 42.19 82 41.39 79.5C40.16 80.78 38.94 82.06 37.73 83.36C39.8182 86.0532 42.1153 88.5777 44.6 90.91C44.21 89.41 43.86 87.9 43.46 86.4Z" fill="#EA5F86"/>
<path d="M46.18 74.82C45.85 75.35 45.68 75.7 45.68 75.7L45.44 75.16C44.21 76.52 42.95 77.85 41.69 79.16C42.82 82.62 43.98 86.7 45.05 91.06C46.45 87.8 48.1 83.72 50.05 79.68C48.75 78.05 47.49 76.41 46.18 74.82V74.82Z" fill="#EA5F86"/>
<path opacity="0.8" d="M49.79 81.05C48.41 84.15 46.94 87.56 45.28 91.54L45.68 91.89C48.4869 89.5339 51.0895 86.9447 53.46 84.15C52.38 82.79 51.33 81.41 50.28 80.04C50.12 80.38 50 80.72 49.79 81.05V81.05Z" fill="#EA5F86"/>
<path opacity="0.8" d="M39.21 72.07L41.47 70.15C40.4955 69.4941 39.2857 69.29 38.15 69.59C38.51 70.41 38.86 71.24 39.21 72.07V72.07Z" fill="#EA5F86"/>
<path d="M37.78 69.7C33.87 71.04 33.16 73.7 34.04 76.7C35.6 75.18 37.24 73.75 38.9 72.33C38.53 71.46 38.16 70.58 37.78 69.7V69.7Z" fill="#EA5F86"/>
</svg>
