<svg width="98" height="108" viewBox="0 0 98 108" fill="none" xmlns="http://www.w3.org/2000/svg">
<path d="M72.0762 73.5864C72.0762 73.5864 75.9408 50.4305 86.0674 39.8624C86.0674 39.8624 70.4182 48.0631 63.6014 62.6461C63.6014 62.6461 58.8185 77.0461 49.6102 15.0529C40.4019 77.0278 35.6128 62.6461 35.6128 62.6461C28.8021 48.0631 13.1468 39.8624 13.1468 39.8624C23.2796 50.4305 27.1195 73.5864 27.1195 73.5864C23.044 65.2596 15.4201 59.1737 6.3361 56.9959C19.0453 65.9288 22.1887 100.501 22.1887 100.501C24.9561 108.433 49.6287 107.671 49.6287 107.671C49.6287 107.671 74.2828 108.464 77.0625 100.501C77.0625 100.501 80.1936 65.9288 92.8966 56.9959C83.7983 59.1631 76.1589 65.2505 72.0762 73.5864V73.5864Z" fill="#FFBBCE"/>
<path d="M14.2562 38.4041C14.0343 43.1024 7.3161 42.8949 7.12503 38.4041C7.35308 33.6997 14.0652 33.9132 14.2562 38.4041Z" fill="#6B61D4"/>
<path d="M7.12503 55.9647C6.90314 60.6692 0.191069 60.4556 0 55.9647C0.221887 51.2542 6.94013 51.4739 7.12503 55.9647Z" fill="#6B61D4"/>
<path d="M57.0927 81.1159C56.4763 95.8332 43.009 95.2353 42.14 81.8969C42.0044 66.1607 56.8338 66.7342 57.0927 81.1159Z" fill="#6B61D4"/>
<path d="M83.676 38.4041C83.8979 43.1024 90.6099 42.8949 90.801 38.4041C90.6038 33.6997 83.8609 33.9132 83.676 38.4041Z" fill="#6B61D4"/>
<path d="M90.801 55.9647C91.0229 60.6692 97.7411 60.4556 97.926 55.9647C97.7041 51.2542 90.9921 51.4739 90.801 55.9647Z" fill="#6B61D4"/>
<path d="M49.6102 0C53.9246 9.7078 53.3083 6.36407 60.7045 7.96881C52.6919 15.0224 55.7367 13.4603 56.4763 20.8617C47.2311 15.5105 49.6965 17.8658 42.781 20.8617C45.0615 10.4888 43.5576 13.5397 38.5528 7.96881C49.1849 6.91322 45.795 6.44339 49.6102 0V0Z" fill="#6B61D4"/>
<path d="M45.6964 74.0685C45.0245 75.179 42.177 80.8902 45.4005 79.6881C45.8443 78.4983 49 72.2075 45.6964 74.0685Z" fill="white"/>
<path d="M44.5746 82.983C44.9681 82.9344 45.2911 82.6516 45.388 82.2709C45.4848 81.8902 45.3356 81.4897 45.0122 81.2624C43.8103 80.5424 43.1077 82.8122 44.5746 82.983Z" fill="white"/>
<path d="M2.60101 55.6841C3.34063 54.2624 0.604025 53.1031 0.838238 55.6841C1.06629 56.3919 2.06478 56.6908 2.60101 55.6841Z" fill="white"/>
<path d="M8.19132 37.9769C7.46402 39.3986 10.2006 40.558 9.95408 37.9769C9.7322 37.263 8.72138 36.9641 8.19132 37.9769Z" fill="white"/>
<path d="M43.7179 9.87255C44.3856 9.91269 45.0557 9.87583 45.7148 9.76272C48.2789 6.90712 40.2663 7.96272 43.7179 9.87255Z" fill="white"/>
<path d="M47.5824 7.96271C47.9753 7.91078 48.2965 7.6269 48.3929 7.24629C48.4894 6.86568 48.3416 6.46532 48.02 6.23593C46.8428 5.49153 46.1155 7.77356 47.5824 7.96271Z" fill="white"/>
<path d="M85.673 36C83.1274 36.9153 85.673 41.4915 86.2893 37.9281C86.2893 38.0197 86.2893 38.0075 86.2893 37.8915C86.24 38.0502 86.2893 37.8 86.3756 37.7024C86.4619 37.6048 86.4619 37.617 86.3756 37.6658C86.7333 37.5832 87.0077 37.2989 87.0748 36.9415C87.1418 36.584 86.9887 36.2211 86.6848 36.017C86.3809 35.8129 85.9837 35.8062 85.673 36V36Z" fill="white"/>
<path d="M91.8858 54.1586C91.2694 54.7688 91.5468 56.2149 92.8411 55.8915C94.3697 55.3546 93.2479 52.8407 91.8858 54.1586Z" fill="white"/>
<path d="M54.5533 72.8908C59.2253 81.5919 51.6072 96.419 43.5268 87.4983C52.3283 101.392 61.6722 80.9573 54.5533 72.8908Z" fill="#5252AF"/>
</svg>
