<svg width="123" height="84" viewBox="0 0 123 84" fill="none" xmlns="http://www.w3.org/2000/svg">
<g clip-path="url(#clip0_1_3075)">
<path d="M109.7 24.87C92.92 10 81.57 18.16 60.45 18.27C41.53 16.89 28.15 11.57 14.09 24.87C21.89 48.71 101.59 42.75 109.7 24.87V24.87Z" fill="#FF0808"/>
<path d="M12.31 45.46C15.17 52.34 16.84 58.98 20.72 65.46C26.84 67.89 42.93 69.63 61.72 69.65H62.06C80.85 69.65 96.94 67.89 103.06 65.46C106.57 59.83 108.54 52.59 111.46 45.46C86.63 57.49 35.52 56.82 12.31 45.46V45.46Z" fill="#D30505"/>
<path d="M61.9 37.3C43 37.3 26.05 32.51 14.09 24.87C8.77999 30.8 9.83999 38.19 12.31 45.46C33.02 59.32 90.37 59.36 111.48 45.46C114 38.19 115 30.8 109.7 24.87C97.74 32.51 80.76 37.3 61.9 37.3V37.3Z" fill="#EF0000"/>
<path d="M122.66 19.77C105.14 28 114 34 109.94 41.08C107.81 26.86 98.51 38.57 98.75 43.83C105.45 38.94 106.56 43.95 105.24 50.74C81.31 56.53 73.47 46.07 69.11 38.16C74.11 29.34 82.35 36.88 83.48 38.67C90.22 22.39 72.58 21.45 66.39 29.87C67.48 15.76 85.09 19.9 61.9 0C37.8 20.09 58 17.65 57.42 29.87C48.53 19.53 34.05 25.09 40.33 38.67C42.71 35.22 50.38 30.5 54.69 38.15C50.32 46.07 42.47 56.56 18.45 50.72C16.51 41.54 19.99 40.14 24.94 43.83C24.56 36.29 15.34 28.39 13.76 41.08C13.76 41.08 11.61 38 12.68 31.83C13.75 25.66 0.999986 19.77 0.999986 19.77C0.999986 19.77 -0.280014 31.33 13.81 52C13.8824 52.1833 13.9693 52.3606 14.07 52.53L18.91 61.85C22.67 68.15 48.35 71.42 60.09 71.59H63.7C75.45 71.42 101.12 68.15 104.88 61.85L109.72 52.53C109.872 52.2803 109.99 52.0112 110.07 51.73C124 31.23 122.66 19.77 122.66 19.77V19.77Z" fill="#FDC33C"/>
<path d="M111 31.83C112.08 38 109.93 41.08 109.93 41.08C107.8 26.86 98.5 38.57 98.74 43.83C105.44 38.94 106.55 43.95 105.23 50.74C81.3 56.53 73.46 46.07 69.1 38.16C74.1 29.34 82.34 36.88 83.47 38.67C90.21 22.39 72.57 21.45 66.38 29.87C67.48 15.76 85.09 19.9 61.9 0V71.65H63.7C75.45 71.48 101.12 68.21 104.88 61.91L109.72 52.59C109.872 52.3403 109.99 52.0712 110.07 51.79C123.97 31.25 122.66 19.79 122.66 19.79C122.66 19.79 109.93 25.65 111 31.83V31.83Z" fill="#EFAD29"/>
<path d="M104.06 63.51C99.59 73.51 21.94 72.51 19.72 63.51H19.62V72.87C19.62 77.15 38.55 80.62 61.89 80.62C85.23 80.62 104.16 77.15 104.16 72.87V63.51H104.06Z" fill="#FDC33C"/>
<path d="M104.16 72.41C105.16 83.41 17.35 82.89 19.62 72.41C11.25 75.05 31.37 84 61.89 83.61C96.62 83.89 111.72 74.76 104.16 72.41Z" fill="#E59F23"/>
<path d="M61.89 82.56C44.14 82.56 32.68 80.32 26.04 78.05C44.83 83.25 97.49 83.66 104.98 73.89C105.04 73.9208 105.097 73.9576 105.15 74C104.52 75.69 95.66 82.56 61.89 82.56V82.56ZM19.54 74.93C19.1761 74.6631 18.8728 74.3223 18.65 73.93L18.8 73.84C18.9757 74.2467 19.2267 74.6166 19.54 74.93V74.93Z" fill="#FDC33C"/>
<path d="M105.07 61.18L104.27 61.9C95.47 71.8 23.13 71.46 19.62 61.68L18.53 61C13.1 64.81 32 73.18 66.34 72.37C98.39 71.86 110 63.9 105.07 61.18V61.18Z" fill="#E59F23"/>
<path d="M61.89 71.36C30.75 71.36 18.97 64.46 18.59 62.61C18.592 62.5015 18.6088 62.3939 18.64 62.29L18.75 62.36C26.36 74.3 99.93 71.3 105.11 62.56L105.19 62.48V62.64C105.13 64 96.88 71.36 61.89 71.36Z" fill="#FDC33C"/>
<path d="M26.61 71.59C26.5303 72.7934 25.531 73.7287 24.325 73.7287C23.119 73.7287 22.1196 72.7934 22.04 71.59C22.1196 70.3866 23.119 69.4512 24.325 69.4512C25.531 69.4512 26.5303 70.3866 26.61 71.59Z" fill="#EFAD29"/>
<path d="M24.33 73.35C20.46 72.83 24.38 67.04 26.08 71.59C25.9752 72.5114 25.2508 73.24 24.33 73.35Z" fill="#FFCC66"/>
<path d="M24.29 71.3C22.78 72.2 22.74 69.62 24.81 70.3C24.88 70.49 24.91 70.68 24.29 71.3Z" fill="#FFDFA6"/>
<path d="M34.64 73.34C34.64 74.5992 33.6192 75.62 32.36 75.62C31.1008 75.62 30.08 74.5992 30.08 73.34C30.08 72.0808 31.1008 71.06 32.36 71.06C33.6192 71.06 34.64 72.0808 34.64 73.34Z" fill="#EFAD29"/>
<path d="M32.36 75.1C28.49 74.57 32.41 68.78 34.12 73.34C34.0143 74.2647 33.2847 74.9943 32.36 75.1Z" fill="#FFCC66"/>
<path d="M42.67 75.08C42.67 76.3392 41.6492 77.36 40.39 77.36C39.1308 77.36 38.11 76.3392 38.11 75.08C38.11 73.8208 39.1308 72.8 40.39 72.8C41.6492 72.8 42.67 73.8208 42.67 75.08Z" fill="#EFAD29"/>
<path d="M40.39 76.84C36.52 76.32 40.45 70.53 42.15 75.08C42.0443 76.0048 41.3147 76.7344 40.39 76.84Z" fill="#FFCC66"/>
<path d="M53 75.62C52.9203 76.8234 51.921 77.7588 50.715 77.7588C49.509 77.7588 48.5096 76.8234 48.43 75.62C48.5096 74.4166 49.509 73.4813 50.715 73.4813C51.921 73.4813 52.9203 74.4166 53 75.62Z" fill="#EFAD29"/>
<path d="M50.71 77.38C46.84 76.85 50.71 71.06 52.46 75.62C52.3552 76.5414 51.6308 77.27 50.71 77.38Z" fill="#FFCC66"/>
<path d="M63.3 76.16C63.3 77.4192 62.2792 78.44 61.02 78.44C59.7608 78.44 58.74 77.4192 58.74 76.16C58.74 74.9008 59.7608 73.88 61.02 73.88C62.2792 73.88 63.3 74.9008 63.3 76.16Z" fill="#EFAD29"/>
<path d="M61 77.92C57.13 77.39 61.06 71.6 62.76 76.16C62.74 76.76 62.35 77.59 61 77.92Z" fill="#FFCC66"/>
<path d="M74.78 75.62C74.78 76.8792 73.7592 77.9 72.5 77.9C71.2408 77.9 70.22 76.8792 70.22 75.62C70.22 74.3608 71.2408 73.34 72.5 73.34C73.7592 73.34 74.78 74.3608 74.78 75.62Z" fill="#EFAD29"/>
<path d="M72.5 77.38C68.63 76.85 72.56 71.06 74.26 75.62C74.1543 76.5447 73.4247 77.2743 72.5 77.38Z" fill="#FFCC66"/>
<path d="M86.26 75.08C86.26 76.3392 85.2392 77.36 83.98 77.36C82.7208 77.36 81.7 76.3392 81.7 75.08C81.7 73.8208 82.7208 72.8 83.98 72.8C85.2392 72.8 86.26 73.8208 86.26 75.08Z" fill="#EFAD29"/>
<path d="M84 76.84C80.13 76.32 84.06 70.53 85.76 75.08C85.6543 76.0048 84.9247 76.7344 84 76.84Z" fill="#FFCC66"/>
<path d="M94.79 73.34C94.79 74.5992 93.7692 75.62 92.51 75.62C91.2508 75.62 90.23 74.5992 90.23 73.34C90.23 72.0808 91.2508 71.06 92.51 71.06C93.7692 71.06 94.79 72.0808 94.79 73.34Z" fill="#EFAD29"/>
<path d="M92.51 75.1C88.64 74.57 92.51 68.78 94.27 73.34C94.1643 74.2647 93.4347 74.9943 92.51 75.1Z" fill="#FFCC66"/>
<path d="M103.31 71.59C103.31 72.8492 102.289 73.87 101.03 73.87C99.7708 73.87 98.75 72.8492 98.75 71.59C98.75 70.3308 99.7708 69.31 101.03 69.31C102.289 69.31 103.31 70.3308 103.31 71.59Z" fill="#EFAD29"/>
<path d="M101 73.35C97.14 72.83 101.06 67.04 102.76 71.59C102.654 72.5147 101.925 73.2443 101 73.35Z" fill="#FFCC66"/>
<path d="M32.14 73.13C30.64 74.02 30.59 71.45 32.67 72.13C32.73 72.31 32.76 72.5 32.14 73.13Z" fill="#FFDFA6"/>
<path d="M40.16 74.9C38.66 75.79 38.61 73.22 40.69 73.9C40.75 74.08 40.78 74.27 40.16 74.9Z" fill="#FFDFA6"/>
<path d="M50.46 75.4199C48.96 76.3199 48.91 73.7399 50.99 74.4199C51.05 74.6099 51.08 74.7999 50.46 75.4199Z" fill="#FFDFA6"/>
<path d="M60.77 76C59.27 76.89 59.22 74.32 61.3 75C61.36 75.14 61.39 75.33 60.77 76Z" fill="#FFDFA6"/>
<path d="M72.36 75.4199C70.86 76.3199 70.81 73.7399 72.89 74.4199C73 74.6099 73 74.7999 72.36 75.4199Z" fill="#FFDFA6"/>
<path d="M83.79 74.91C82.29 75.81 82.24 73.23 84.32 73.91C84.38 74.1 84.41 74.29 83.79 74.91Z" fill="#FFDFA6"/>
<path d="M92.14 73.13C90.63 74.02 90.59 71.45 92.66 72.13C92.73 72.31 92.76 72.5 92.14 73.13Z" fill="#FFDFA6"/>
<path d="M100.88 71.39C99.38 72.29 99.33 69.71 101.41 70.39C101.48 70.58 101.5 70.77 100.88 71.39Z" fill="#FFDFA6"/>
<path d="M55.34 55.52L61.9 45.46L68.47 55.52L61.9 65.59L55.34 55.52Z" fill="#D30505"/>
<path d="M56.18 55.52L61.9 46.76L67.62 55.52L61.9 64.29L56.18 55.52Z" fill="#FF0808"/>
<path d="M56.75 55.52L61.34 48.48V62.57L56.75 55.52Z" fill="#FF4D4D"/>
</g>
<defs>
<clipPath id="clip0_1_3075">
<rect width="123" height="84" fill="white"/>
</clipPath>
</defs>
</svg>
