<svg width="102" height="58" viewBox="0 0 102 58" fill="none" xmlns="http://www.w3.org/2000/svg">
<g clip-path="url(#clip0_1_1241)">
<path d="M97.49 52.69C93.49 45.47 74.67 18.46 70.49 11.82C68 14.94 64.68 17.42 62.4 20.54C60.36 16.8 49.42 0 49.42 0C49.42 0 38.48 16.8 36.42 20.54C34.14 17.42 30.82 14.94 28.33 11.82C23.73 20.78 -1.99 52.11 0.789996 58C3.36 52.2 13.05 50.08 18.79 48.38C26.0621 46.3475 33.4811 44.8831 40.98 44H43.14C55.25 43.25 64.74 44.23 80.08 48.38C85.75 49.96 94.54 51.65 98.08 58C98.6865 56.2307 98.47 54.283 97.49 52.69V52.69Z" fill="#F3D15C"/>
<path d="M30.81 35.27C31.36 34.18 34.81 32.7 36.18 35.93C36.81 38.59 33.31 40.32 29.81 39.72C28.3293 39.5448 27.0457 38.6134 26.42 37.26C26 25.4 39.42 31.4 47.04 30.4C47.4577 30.3029 47.8659 30.1691 48.26 30L48.88 29.68C49.0641 29.5764 49.2382 29.4558 49.4 29.32C49.7375 29.0499 50.0519 28.7522 50.34 28.43C50.6288 28.0893 50.8928 27.7284 51.13 27.35C52.1197 25.8365 52.6254 24.0577 52.58 22.25C52.18 19.64 50.74 17.94 47.14 18.09C46.3275 18.2058 45.6242 18.7145 45.26 19.45C44.49 22.59 44.55 24.55 46.91 28.29C47.17 28.61 47.52 28.97 47.81 29.29C49.0186 30.5516 50.5683 31.4342 52.27 31.83C54.7906 32.2644 57.3791 32.0755 59.81 31.28L61.01 31C75.95 25.83 78.2 41.47 67.27 38.71C66.62 38.34 64.15 35.71 66.37 34.87H66.72L66.37 34.93C65.08 35.47 65.21 36.93 67.37 38.6C68.1097 39.1255 69.0035 39.3894 69.91 39.35C70.9672 39.2479 71.9133 38.6505 72.46 37.74C73.1477 36.7574 73.5556 35.6064 73.64 34.41C73.18 30.41 66.31 30.63 62.4 31.41C58.18 32.91 51.3 34.48 47.15 30C46.83 29.64 46.53 29.34 46.2 28.95C44.58 26.41 43.03 23 44.41 19C44.9124 17.9887 45.8743 17.2841 46.99 17.11C49.58 16.58 53.58 18.6 53.58 22.2C53.6289 24.2105 53.0562 26.1871 51.94 27.86C51.6795 28.2774 51.3887 28.6751 51.07 29.05C50.7292 29.4181 50.3542 29.7529 49.95 30.05C49.5642 30.3455 49.1446 30.5939 48.7 30.79C48.2413 30.9854 47.7661 31.1393 47.28 31.25C43.15 32.1 38.96 30.6 33.96 30.25H33.08C32.5651 30.2909 32.0557 30.3847 31.56 30.53C28.13 31.13 23.96 37.96 29.9 39.25C31.62 39.44 36.32 39.7 35.9 35.98C35.9 34.5 32.02 33 30.81 35.27V35.27Z" fill="#CE8A29"/>
<path d="M28.95 17.12C29.4289 17.4218 29.8866 17.7559 30.32 18.12C30.46 18.26 30.63 18.36 30.78 18.5C31.7446 19.3026 32.6257 20.2005 33.41 21.18C33.6421 21.4969 33.8494 21.8312 34.03 22.18C32.9348 21.6352 31.9243 20.9346 31.03 20.1C30.7 19.77 30.38 19.44 30.1 19.1C29.6288 18.4951 29.2419 17.829 28.95 17.12V17.12Z" fill="#D8B248"/>
<path d="M49.58 5.34C49.58 5.34 49.78 5.51 50.12 5.83C50.5924 6.254 51.0366 6.70829 51.45 7.19C52.0408 7.87787 52.5917 8.59905 53.1 9.35C53.68 10.16 54.21 11.06 54.76 11.96L56.3 14.6C56.65 15.14 56.18 14.45 57.66 16.88C58.05 17.56 58.44 18.08 58.66 18.47C58.88 18.86 59.04 19.08 59.04 19.08C59.04 19.08 58.9 19 57.93 18C57.6613 17.7582 57.4137 17.4939 57.19 17.21C56.6108 16.5297 56.0731 15.8151 55.58 15.07C55 14.26 54.47 13.36 53.92 12.47C53.37 11.58 52.87 10.67 52.38 9.82C52.03 9.28 52.5 9.97 51.02 7.55C50.64 6.87 50.23 6.34 50.02 5.95C49.81 5.56 49.58 5.34 49.58 5.34V5.34Z" fill="#D8B248"/>
<path d="M70.19 15C73.4947 18.3577 76.3182 22.1572 78.58 26.29C75.2753 22.9323 72.4518 19.1328 70.19 15Z" fill="#D8B248"/>
<path d="M24.81 20.46C17.52 29.33 18.88 37.05 24.81 28.06C26.42 26.3 29.49 26.6 28.76 23.38C28.46 21.78 27 19.87 25.25 20.02L24.81 20.46Z" fill="#FCD977"/>
<path d="M46.29 7.99999C45.29 10.34 41.76 13.26 41.61 15.75C41.61 19.25 44.39 15.45 45.12 14.28C46 13.11 45.56 13.28 46.73 12.68C50.11 13.32 50.23 8.15999 47.02 7.67999L46.29 7.99999Z" fill="#FCD977"/>
<path d="M68.21 16.81C66.93 18.52 60.63 23.63 65.43 24.81C66.89 24.52 66.16 22.81 66.89 22.33C71.24 23.33 72.45 18.17 68.5 16.48L68.21 16.81Z" fill="#FCD977"/>
<path d="M-0.5 54C2.06094 51.9437 4.86538 50.2107 7.85 48.84C8.77 48.42 9.76 47.97 10.85 47.53C11.94 47.09 13.03 46.67 14.21 46.27C19.6035 44.4585 25.1493 43.1365 30.78 42.32L35.51 41.74C40.4316 41.2623 45.3756 41.052 50.32 41.11C53.14 41.11 56.58 41.32 60.26 41.6C67.844 42.2674 75.3457 43.6673 82.66 45.78C83.96 46.14 85.2 46.55 86.38 46.96C87.56 47.37 88.7 47.75 89.76 48.17C92.23 48.98 99.76 52.67 101.45 53.98C97.715 51.7398 93.7695 49.8709 89.67 48.4C88.61 48 87.49 47.58 86.3 47.21C85.11 46.84 83.88 46.42 82.58 46.07C75.2717 44.0247 67.7841 42.6852 60.22 42.07C52.0182 41.4247 43.7774 41.4514 35.58 42.15L30.86 42.69C25.2238 43.4604 19.6681 44.7355 14.26 46.5C13.07 46.89 11.97 47.35 10.9 47.73C9.83 48.11 8.85 48.58 7.9 48.98C4.90685 50.3066 2.08614 51.9923 -0.5 54H-0.5Z" fill="#CE8A29"/>
</g>
<defs>
<clipPath id="clip0_1_1241">
<rect width="102" height="58" fill="white"/>
</clipPath>
</defs>
</svg>
