<svg width="72" height="97" viewBox="0 0 72 97" fill="none" xmlns="http://www.w3.org/2000/svg">
<path d="M36.08 70.7063C36.08 70.7063 18.4615 70.7978 3.85231 64.6667V81.7484C3.85231 81.7484 13.4277 89.3132 36.08 88.7764C59.7231 88.7886 68.3077 81.7484 68.3077 81.7484V64.6667C53.9446 70.7978 36.08 70.7063 36.08 70.7063Z" fill="#FFBBCE"/>
<path d="M68.3077 81.7484C55.9631 89.1302 37.7785 88.8496 36.2031 88.7764C36.0123 88.7764 35.9631 88.7764 34.56 88.7764C6.38155 88.7764 3.56924 76.4531 0.424622 85.4027C-1.2923 90.6919 15.0708 96.0666 32.4246 96.7926C56.2646 97.8663 81.3539 88.7458 68.3077 81.7484V81.7484Z" fill="#AEA8F9"/>
<path d="M71.1815 60.8294C69.6985 53.9967 60.8308 61.3174 56.2031 61.3174C36.9292 66.6372 12.3815 61.4333 6.65846 58.4684C5.08923 57.3459 1.77231 57.6936 1.28 59.7862C-0.923075 64.7521 8.46154 66.2406 14 68.144C26.4246 71.475 35.5754 70.6941 36.0677 70.6819C35.7723 70.6331 44.8369 71.5482 57.3538 68.3575C63.1631 66.5457 71.4154 65.051 71.1815 60.8294V60.8294Z" fill="#AEA8F9"/>
<path d="M46.4308 60.6707L36.08 12.366L25.7231 60.6707L3.85231 15.3004V57.7668C22.4554 65.3499 36.08 63.6418 36.08 63.6418C36.08 63.6418 49.6985 65.3499 68.3015 57.7668V15.3004L46.4308 60.6707Z" fill="#FFBBCE"/>
<path d="M46.3508 60.3108C46.7692 60.8843 58.4985 35.164 58.4616 35.7314C58.3138 35.1213 50.9785 5.17943 50.9723 5.16113L41.7969 39.044L46.3508 60.3108Z" fill="#E5A1B6"/>
<path d="M25.7231 60.6707L30.5723 38.0557L22.5169 5.16113L14.0492 36.4574L25.7231 60.6707Z" fill="#E5A1B6"/>
<path d="M5.84 14.3365C5.74769 18.0335 0.184615 18.1189 0 14.3365C0.0861538 10.6395 5.65538 10.548 5.84 14.3365Z" fill="#6B61D4"/>
<path d="M38.9969 10.8347C38.9108 14.5317 33.3415 14.6171 33.1569 10.8347C33.2308 7.13163 38.8123 7.04622 38.9969 10.8347V10.8347Z" fill="#6B61D4"/>
<path d="M71.2246 14.3365C71.1323 18.0335 65.5692 18.1189 65.3846 14.3365C65.4708 10.6395 71.04 10.548 71.2246 14.3365Z" fill="#6B61D4"/>
<path d="M25.2308 3.41635C25.1446 7.11333 19.5754 7.20484 19.3908 3.41635C19.4831 -0.28063 25.0462 -0.366038 25.2308 3.41635Z" fill="#6B61D4"/>
<path d="M53.9015 3.41635C53.8154 7.11333 48.2461 7.20484 48.0677 3.41635C48.1538 -0.280632 53.7231 -0.372142 53.9015 3.41635Z" fill="#6B61D4"/>
<path d="M42.3631 80.0219C41.9569 87.9955 30.7569 87.4159 30.5723 80.0219C30.9785 72.0484 42.1785 72.628 42.3631 80.0219Z" fill="#6B61D4"/>
<path d="M18.8123 76.7215C18.4431 83.1943 9.46462 82.6391 9.29231 76.7215C9.66154 70.2548 18.64 70.8039 18.8123 76.7215Z" fill="#6B61D4"/>
<path d="M63.2123 76.7215C62.8369 83.1943 53.8585 82.6391 53.6862 76.7215C54.0615 70.2548 63.04 70.8039 63.2123 76.7215Z" fill="#6B61D4"/>
<path d="M11.9077 73.4211C9.52 74.6412 11.68 78.2406 13.0892 75.416C13.5994 75.0731 13.7534 74.3965 13.4414 73.8697C13.1293 73.3428 12.4583 73.1465 11.9077 73.4211Z" fill="white"/>
<path d="M12.2585 79.6193C12.6529 79.5811 13.0046 79.357 13.2034 79.0172C13.4023 78.6773 13.4239 78.2634 13.2615 77.905C11.9877 75.8491 9.89538 79.3082 12.2585 79.6193V79.6193Z" fill="white"/>
<path d="M35.3969 75.538C33.1508 75.8125 29.7662 81.9802 33.7662 81.6386C34.8123 80.937 33.9938 79.5583 34.9969 78.4297C36.5846 77.661 37.7908 75.538 35.3785 75.5258L35.3969 75.538Z" fill="white"/>
<path d="M34.7938 84.7072C35.1951 84.6719 35.5535 84.4443 35.7535 84.0976C35.9535 83.751 35.9697 83.3293 35.7969 82.9685C34.5231 80.937 32.4308 84.3778 34.7938 84.7072V84.7072Z" fill="white"/>
<path d="M56.7815 73.3906C53.4831 74.3728 56.5108 79.2533 57.5385 75.3672C57.5385 75.6173 57.5754 75.4343 57.4031 75.6234C58.8308 75.1719 58.2154 72.9391 56.7877 73.3906H56.7815Z" fill="white"/>
<path d="M57.0954 79.967C57.4898 79.9288 57.8415 79.7047 58.0404 79.3649C58.2392 79.0251 58.2608 78.6111 58.0984 78.2528C56.8246 76.1969 54.7323 79.6376 57.0954 79.967Z" fill="white"/>
<path d="M2.32615 59.8167C0.510766 61.1954 3.55692 64.2823 4.05538 61.0368C4.04721 61.1839 4.02033 61.3295 3.97538 61.4699C5.08307 60.4572 3.43384 58.8284 2.32615 59.835V59.8167Z" fill="white"/>
<path d="M4.12308 83.4627C2.27692 83.7067 0.492308 88.0565 3.58154 87.4403C4.44308 86.4825 6.99692 83.4383 4.12308 83.4627Z" fill="white"/>
<path d="M1.75384 14.6842C2.14825 14.646 2.49998 14.4219 2.69882 14.0821C2.89767 13.7423 2.91929 13.3283 2.75692 12.9699C1.48307 10.914 -0.615391 14.3548 1.75384 14.6842V14.6842Z" fill="white"/>
<path d="M21.6 3.88C21.9944 3.84181 22.3461 3.61769 22.545 3.27786C22.7438 2.93804 22.7654 2.52409 22.6031 2.16572C21.3292 0.109806 19.2369 3.55056 21.6 3.88Z" fill="white"/>
<path d="M35.2246 11.3655C35.6179 11.3255 35.9679 11.1007 36.1653 10.7611C36.3628 10.4216 36.3837 10.0086 36.2215 9.65119C34.9538 7.59528 32.8554 11.036 35.2246 11.3655V11.3655Z" fill="white"/>
<path d="M49.8461 4.03251C50.2417 3.99612 50.5952 3.77273 50.7954 3.43263C50.9956 3.09253 51.018 2.67753 50.8554 2.31824C49.5877 0.262325 47.4892 3.70308 49.8461 4.03251Z" fill="white"/>
<path d="M66.9785 14.6842C67.3729 14.646 67.7246 14.4219 67.9234 14.0821C68.1223 13.7423 68.1439 13.3283 67.9815 12.9699C66.7077 10.914 64.6154 14.3548 66.9785 14.6842V14.6842Z" fill="white"/>
<path d="M37.5385 74.2813C43.6923 77.4536 40.5354 86.4032 33.9015 85.2624C42.4 88.5872 45.7969 76.1481 37.5385 74.2813Z" fill="#5252AF"/>
<path d="M14.7692 72.0728C19.4031 74.5131 17.1877 81.6691 11.8646 80.8943C18.7261 83.8287 21.7292 73.4638 14.7692 72.0728V72.0728Z" fill="#5252AF"/>
<path d="M59.1754 72.0728C63.8092 74.5131 61.5877 81.6691 56.2646 80.8943C63.1262 83.8287 66.1292 73.4638 59.1754 72.0728Z" fill="#5252AF"/>
</svg>
