<svg width="102" height="66" viewBox="0 0 102 66" fill="none" xmlns="http://www.w3.org/2000/svg">
<path d="M1.81 30.22L1.41 29.82L1.81 30.22Z" fill="#FEAF1F"/>
<path d="M48.8 6.22C52.8 28.39 58.37 51.4 77.9 16.57C77.9 16.57 72.98 36.11 78.68 39.26C84.39 42.4 98.12 24.81 98.12 24.81C98.12 24.81 93.4 35.06 90.45 39.81C87.5 44.56 83.34 63.04 81.8 64.81C81.534 65.1157 81.1496 65.4569 80.5619 65.8172C82.1976 60.2909 67.7288 54.3486 40.2062 56.3955C27.2853 57.7881 20.596 60.9789 19.7745 64.2666C18.2452 63.0058 17.73 62.06 17.73 62.06C17.6473 59.7528 13.5597 42.3386 4.35655 32.5961L4.326 32.564L4.68226 32.8786C22.1076 48.0137 28.7558 34.8664 25.507 16.062L25.4 15.46C37.8 50.13 48.54 28.62 48.8 6.22V6.22ZM1.81 30.22C2.58778 30.8521 3.33471 31.5415 4.0513 32.2777L4.326 32.564L4.12247 32.386C3.3712 31.7162 2.6004 30.9948 1.81 30.22V30.22Z" fill="#FEAF1F"/>
<path d="M17.53 54.41C18 51 23.19 54.46 19.11 56C18.2756 55.9062 17.6186 55.245 17.53 54.41Z" fill="#E31F37"/>
<path d="M80.52 54.41C81 51 86.17 54.46 82.09 56C81.2577 55.9054 80.604 55.2434 80.52 54.41Z" fill="#E31F37"/>
<path d="M31.3 49.7C31.88 45.37 38.36 49.76 33.3 51.7C32.59 51.62 31.66 51.19 31.3 49.7V49.7Z" fill="#E31F37"/>
<path d="M65.82 49.7C66.4 45.37 72.89 49.76 67.82 51.7C66.7582 51.6031 65.9169 50.7618 65.82 49.7Z" fill="#E31F37"/>
<path d="M46.5 47.73C46.5 46.4266 47.5566 45.37 48.86 45.37C50.1634 45.37 51.22 46.4266 51.22 47.73C51.22 49.0334 50.1634 50.09 48.86 50.09C47.5566 50.09 46.5 49.0334 46.5 47.73Z" fill="#E31F37"/>
<path d="M23.11 17.33C23.11 14.02 28.62 13.17 29.01 17.33C29 20.63 23.5 21.49 23.11 17.33Z" fill="#E31F37"/>
<path d="M74.62 16.61C74.62 13.3 80.13 12.45 80.52 16.61C80.55 19.92 75 20.77 74.62 16.61Z" fill="#E31F37"/>
<path d="M95.2 26.12C95.2 22.81 100.71 21.97 101.1 26.12C101.13 29.43 95.59 30.28 95.2 26.12Z" fill="#E31F37"/>
<path d="M0 30.94C0 27.63 5.51 26.78 5.9 30.94C5.93 34.25 0.39 35.09 0 30.94Z" fill="#E31F37"/>
<path d="M42 7.13001C42.41 -2.60999 56.26 -2.13999 56.55 7.13001C56.15 16.87 42.31 16.4 42 7.13001Z" fill="#E31F37"/>
</svg>
