<svg width="136" height="88" viewBox="0 0 136 88" fill="none" xmlns="http://www.w3.org/2000/svg">
<g clip-path="url(#clip0_1_735)">
<path d="M67.73 6.86C80.38 18.62 80.56 49.79 80.56 49.79C83.56 37.24 99.66 25.79 101.75 16.3V53.18C108.34 37.32 132.39 29.32 132.39 29.32C117.9 40.32 115.94 56.96 116.63 74.37H18.84C19.57 55.92 17.31 40.47 3.07 29.32C3.07 29.32 27.12 37.32 33.71 53.18V16.3C38.32 29.54 53.23 38.84 54.91 49.79C54.91 49.79 55.08 18.62 67.73 6.86V6.86Z" fill="#FFCC01"/>
<path d="M17.42 74.37H118.18V76.59H17.42V74.37Z" fill="#FFCC01"/>
<path d="M17.42 85.68H118.18V87.9H17.42V85.68Z" fill="#FFCC01"/>
<path d="M18.69 76.58H116.95V85.7H18.69V76.58Z" fill="#FFCC01"/>
<path d="M18.69 76.58H116.95V78.14H18.69V76.58Z" fill="#F1A919"/>
<path d="M18.69 84.12H116.95V85.68H18.69V84.12Z" fill="#F1A919"/>
<path d="M4.84 30C3.84 29.63 3.27 29.42 3.12 29.37C17.57 40.37 19.51 56.99 18.83 74.37H27.06C26.24 44.57 10.24 33 4.84 30V30Z" fill="#F1A919"/>
<path d="M33.8 16.11L40.15 48L33.8 67C33.66 57.76 33.77 25.83 33.8 16.11Z" fill="#F1A919"/>
<path d="M67.73 67V6.86C55.08 18.62 54.91 49.79 54.91 49.79L67.73 67Z" fill="#F1A919"/>
<path d="M80.62 49.41V66.41C80.7 63.41 88.76 50.85 94.39 42.49C100.02 34.13 101.76 16.25 101.76 16.25C97.14 29.47 82.65 38.53 80.62 49.41Z" fill="#F1A919"/>
<path d="M132.39 29.32C132.39 29.32 108.39 37.32 101.75 53.18V67C105.64 48.66 132.39 29.32 132.39 29.32Z" fill="#F1A919"/>
<path d="M6.13 29.07C6.13 32.51 0.420002 33.39 0.00998847 29.07C1.54315e-06 25.64 5.73 24.76 6.13 29.07Z" fill="#FFCC01"/>
<path d="M3.12 31C1.60411 30.9846 0.327996 29.8616 0.12 28.36C-0.88 32.36 6.35 33.79 6.12 28.65C5.78934 30.0364 4.54526 31.0109 3.12 31Z" fill="#F1A919"/>
<path d="M36.86 16.11C36.86 19.55 31.14 20.43 30.74 16.11C30.7 12.68 36.45 11.8 36.86 16.11Z" fill="#FFCC01"/>
<path d="M34.64 18.33C32.88 18.33 30.53 16.02 32.1 13.57C28.7 15.81 32.85 21.86 36.34 17.82C35.8359 18.1537 35.2445 18.3311 34.64 18.33V18.33Z" fill="#F1A919"/>
<path d="M129.46 29.07C129.46 32.51 135.18 33.39 135.58 29.07C135.62 25.64 129.87 24.76 129.46 29.07Z" fill="#FFCC01"/>
<path d="M132.85 30.89C131.175 30.7562 129.876 29.3705 129.85 27.69C127.85 31.56 134.79 34.34 135.61 29.22C135.082 30.2558 134.013 30.9029 132.85 30.89Z" fill="#F1A919"/>
<path d="M98.74 16.11C98.74 19.55 104.45 20.43 104.86 16.11C104.89 12.68 99.14 11.8 98.74 16.11Z" fill="#FFCC01"/>
<path d="M102.51 18.15C101 18 98.71 16.46 99.7 13.9C96.58 16.9 102.07 21.9 104.62 17.31C104.05 17.8503 103.295 18.151 102.51 18.15Z" fill="#F1A919"/>
<path d="M70.79 6.86C70.79 9.45 69.79 12.86 68.35 13.49C59.88 14 68.2 -12 70.79 6.86Z" fill="#FFCC01"/>
<path d="M68.42 12.14C65.67 11.79 64.63 5.21 65.97 1.34C63 4 65.85 19.88 70.18 10.9C69.8464 11.5892 69.1812 12.0578 68.42 12.14V12.14Z" fill="#F1A919"/>
<path d="M30.05 49C29.56 48.84 27.84 45.86 23.1 41.87C21.75 39.71 13.55 36.45 14.1 34.81C25.13 41.44 31.25 48.31 30.05 49V49Z" fill="white"/>
<path d="M53 47.11C53.32 45.11 41.77 32.96 38.39 26.69C42.92 32.06 54.9 45.57 53 47.11Z" fill="white"/>
<path d="M79.14 48.91C78.42 27.66 71.56 13.48 70.93 13.25C70.51 9.86 80.45 27.27 79.14 48.91V48.91Z" fill="white"/>
<path d="M101.08 54.71C100.61 54.92 100.08 23.32 101.41 25.31C101.09 25.62 102 54.7 101.08 54.71Z" fill="white"/>
<path d="M115.74 62.74C114 48 125.05 34.29 124.23 37.57C123.23 38.06 115.99 48.9 115.75 62.74H115.74Z" fill="white"/>
<path d="M108.82 73.55C108.82 73.55 82.67 73.55 82.59 73.55C80.93 72.33 89.43 73.08 96.09 72.89C102.92 73.23 110.34 72.09 108.82 73.55Z" fill="white"/>
<path d="M115.16 73.55C115.05 73.35 110.95 74.13 112.3 72.89C112.41 73.1 116.51 72.31 115.16 73.55Z" fill="white"/>
</g>
<defs>
<clipPath id="clip0_1_735">
<rect width="136" height="88" fill="white"/>
</clipPath>
</defs>
</svg>
