<svg width="135" height="63" viewBox="0 0 135 63" fill="none" xmlns="http://www.w3.org/2000/svg">
<path fill-rule="evenodd" clip-rule="evenodd" d="M94.069 29.9098C91.4957 24.352 89.1883 17.9696 85.9587 10.879C85.3377 11.0327 84.9368 11.9714 83.5037 11.1573C82.9326 11.0555 83.2379 11.1365 82.2887 10.6567C76.9739 16.4057 71.1003 22.1546 64.4937 29.7935C60.4021 24.435 55.4196 17.6393 50.1608 11.043C49.6748 11.6225 48.682 12.4304 47.0018 11.9444C45.7515 15.0411 42.7233 21.2387 38.0586 32.776C12.2092 18.5843 -4.62842 5.78427 25.1547 62.9952C26.7788 60.7583 97.282 51.1526 105.276 61.1945C109.602 53.1693 111.789 43.5947 117.596 31.1747L117.532 31.293C117.646 31.05 117.819 30.7343 118.845 28.5806L118.836 28.5951C119.991 25.5857 123.333 20.898 124.527 15.5354C116.593 16.6362 106.549 25.7809 94.069 29.9098V29.9098Z" fill="#FDC161"/>
<path fill-rule="evenodd" clip-rule="evenodd" d="M14.3478 14.1217C15.1993 9.47766 5.94043 2.47012 5.82412 14.0635C-11.5597 11.999 15.6417 38.0686 14.3478 14.1217Z" fill="#FFD590"/>
<path fill-rule="evenodd" clip-rule="evenodd" d="M50.3299 11.7589C53.3373 10.4027 54.3965 -7.56478 46.4336 3.68592C36.9503 -2.35378 40.8487 17.9295 50.3299 11.7589Z" fill="#FFD590"/>
<path fill-rule="evenodd" clip-rule="evenodd" d="M92.3977 1.24449C91.1973 -0.73897 86.896 -0.33397 85.2864 3.01818C80.6444 -5.11089 71.2713 5.76388 83.5044 12.1587C84.1939 12.4869 85.0247 12.7174 86.5512 11.4879L86.464 11.5419L86.5803 11.4692L86.547 11.4837C88.9729 9.31126 93.8994 5.94041 92.3977 1.24449Z" fill="#FFD590"/>
<path fill-rule="evenodd" clip-rule="evenodd" d="M134.786 13.8986C134.711 11.1799 131.918 9.43529 127.876 10.7084C123.135 -12.4783 109.651 34.4103 134.786 13.8986" fill="#FFD590"/>
<path fill-rule="evenodd" clip-rule="evenodd" d="M52.0205 25.6897C50.818 21.5816 46.9092 28.4915 51.5802 27.642C51.8668 27.1768 52.116 26.8403 52.0205 25.6897Z" fill="white"/>
<path fill-rule="evenodd" clip-rule="evenodd" d="M23.3615 33.5228C21.3157 29.7636 18.9605 37.3423 23.3448 35.525C23.5276 35.0078 23.7 34.6257 23.3615 33.5228Z" fill="white"/>
<path fill-rule="evenodd" clip-rule="evenodd" d="M81.1755 25.7688C84.8101 27.7336 83.2753 17.8848 80.6563 24.0055C80.7414 24.2236 80.2533 24.9983 81.1755 25.7688Z" fill="white"/>
<path fill-rule="evenodd" clip-rule="evenodd" d="M111.666 28.9148C110.584 27.7164 106.727 30.6365 108.927 32.1444C110.061 32.7944 113.147 31.0997 111.666 28.9148Z" fill="white"/>
<path fill-rule="evenodd" clip-rule="evenodd" d="M60.7753 40.4585C60.7546 40.471 60.7317 40.4855 60.7089 40.5021C60.6736 40.4273 60.6403 40.3567 60.603 40.2861C60.684 40.3547 60.6383 40.311 60.7753 40.4585V40.4585ZM56.5384 37.4387C56.6132 37.3597 56.5363 37.4324 56.7461 37.26C56.6734 37.3161 56.6049 37.3743 56.5384 37.4387ZM65 53.5C73.5 51.5 83.0337 20.4577 64.79 38.23C62.5864 36.6619 58.6465 31.212 53.9568 34.207C54.0046 34.1696 54.0544 34.1301 54.1022 34.0927C53.61 34.6909 51.506 36.0949 53.0741 39.0358C53.6702 42.957 62.5 53 65 53.5V53.5Z" fill="#F171BC"/>
</svg>
