<svg width="121" height="95" viewBox="0 0 121 95" fill="none" xmlns="http://www.w3.org/2000/svg">
<g clip-path="url(#clip0_1_1147)">
<path d="M93.08 83.24C82.41 87.54 79.56 83.95 71.51 83.49C58.06 88.59 50.51 80.8 39.28 85.67C35.56 86.45 33.76 85.55 30.16 84.26C27.36 83.17 24.9 83.92 22.16 84.55C22.65 88.24 22.89 90.55 22.89 90.55H97.5C97.5 90.55 97.78 87.97 98.33 83.83C96.6169 83.3852 94.8491 83.1866 93.08 83.24V83.24Z" fill="#96BCBB"/>
<path d="M83.5 46.63C69.67 41.28 60.27 11.06 60.18 10.14C50.78 38.75 34.67 67.14 7.74001 28.2C15.74 41.37 20.45 71.68 22.13 84.55C24.9 83.92 27.36 83.17 30.13 84.26C33.73 85.55 35.53 86.45 39.25 85.67C49.62 81.12 60.55 88.3 71.48 83.49C78.62 84.39 85.6 86.88 93.05 83.24C94.8168 83.1702 96.5845 83.3521 98.3 83.78C100.07 70.52 104.72 41.12 112.59 28.2C112.62 28.2 97.32 52 83.5 46.63V46.63Z" fill="#BAD2D2"/>
<path d="M58.8 52.29C58.8 53.83 56.1 56.29 55.07 57.68C51.24 61.9 55.36 65.2 58.8 68.34C60.72 68.98 60.98 67.34 61.8 65.9C62.31 64.9 63.47 63.85 63.34 62.56C63.21 60.89 61.16 58.56 60.64 56.91L58.8 52.29Z" fill="#96BCBB"/>
<path d="M40.18 60.38C33.57 65.28 47.02 65.78 40.43 60.51L40.18 60.38Z" fill="#96BCBB"/>
<path d="M28 61C20.54 64 32.94 68.24 28.38 61.26L28 61Z" fill="#96BCBB"/>
<path d="M79.34 59.74C77.93 59.48 75.62 60.74 76.34 62.82C77.49 66.29 81.34 62.43 80.06 59.99L79.34 59.74Z" fill="#96BCBB"/>
<path d="M91.67 60.89C90.13 60.25 87.94 62.43 89.1 63.98C90.77 66.54 93.98 63.33 92.18 60.89H91.67Z" fill="#96BCBB"/>
<path d="M7.74001 28.2C13.62 35.71 24.32 49.93 36.68 46.2C37.2526 45.968 37.8103 45.7008 38.35 45.4L39.14 44.95C49.88 37.35 55.94 22 60.14 10.16C56.67 22 51 37.6 39.66 45.77L38.79 46.26C38.2209 46.5695 37.6331 46.8433 37.03 47.08C25.07 51.17 13.39 36.94 7.74001 28.2V28.2Z" fill="#D5E2E0"/>
<path d="M60.18 10.14C64.18 21.39 69.91 36.14 80.46 44.41C81.4558 45.1115 82.5255 45.7017 83.65 46.17C95.28 50.12 106.91 35.84 112.65 28.17C107.07 36.45 96.14 51 83.36 47.09C82.135 46.607 80.9704 45.9828 79.89 45.23C69.56 37.28 63.62 22.14 60.18 10.14V10.14Z" fill="#D5E2E0"/>
<path d="M101.56 77.87C101.92 82.76 78.93 79.45 57.44 80.36C36.75 79.62 18.56 82.47 18.8 77.87C18.43 72.98 41.43 76.29 62.92 75.38C83.61 76.12 101.8 73.27 101.56 77.87Z" fill="#D5E2E0"/>
<path d="M101.56 91.32C101.92 96.22 78.93 92.9 57.44 93.81C36.75 93.08 18.56 95.92 18.8 91.32C18.43 86.43 41.43 89.75 62.92 88.84C83.61 89.57 101.8 86.72 101.56 91.32Z" fill="#D5E2E0"/>
<path d="M97.77 80.36C74.17 81.02 45.94 81.03 21.84 80.36C45.44 79.7 73.68 79.69 97.77 80.36Z" fill="#96BCBB"/>
<path d="M21.84 75.38C45.67 74.72 74.2 74.71 98.52 75.38C74.69 76 46.16 76.05 21.84 75.38V75.38Z" fill="#96BCBB"/>
<path d="M23.88 88.84C46.8 88.18 74.26 88.16 97.69 88.84C74.77 89.5 47.32 89.51 23.88 88.84V88.84Z" fill="#789694"/>
<path d="M5.35 28.38C7.35 27.65 8.35001 23.59 10.14 22.12C10.52 21.7554 10.9279 21.421 11.36 21.12C6.84 14.63 -3.32 20.82 1.08 28C2.53 28.46 4.05 28.9 5.35 28.38V28.38Z" fill="#B22832"/>
<path d="M10.14 22.12C8.3 23.59 7.37 27.65 5.35 28.38C4.05 28.9 2.53 28.46 1.08 28C5.64 34.28 15.51 28.23 11.36 21.16C10.9293 21.4482 10.5214 21.7691 10.14 22.12V22.12Z" fill="#912A2D"/>
<path d="M4.68 20.45C2.94 21.51 4.89 25.08 7.22 23.11C9.06 21.57 6.83 19.06 4.68 20.45Z" fill="#CE2C3F"/>
<path d="M59.17 7.74C57.17 6.33 55.76 5.05 54.08 4.88C52.5 12.08 63.15 15.73 66.08 8.46C64 9.6 61.7 9.64 59.17 7.74V7.74Z" fill="#912A2D"/>
<path d="M60.18 4.13693e-06C57.2566 0.00280501 54.7244 2.02856 54.08 4.88C55.76 5.05 57.21 6.33 59.17 7.74C61.7 9.64 63.99 9.6 66.05 8.46C67.56 5.13 64.55 -0.179996 60.18 4.13693e-06Z" fill="#B22832"/>
<path d="M60.55 1.65002C59.9181 1.82995 59.4532 2.36762 59.3664 3.01886C59.2795 3.67011 59.5873 4.31081 60.15 4.65002C63.15 6.65002 64.55 1.45002 61.15 1.65002H60.55Z" fill="#CE2C3F"/>
<path d="M59 63.35C60.48 63.62 61.49 61.18 62.74 60.62C63.3605 60.3162 64.0513 60.1849 64.74 60.24L59.52 52.24C58.97 53.7 56.42 57.51 55.19 59.64C55.3153 59.6617 55.4367 59.7022 55.55 59.76C57 60.53 57.28 63 59 63.35V63.35Z" fill="#B22832"/>
<path d="M62.69 60.62C58.59 64.95 58.55 63.22 55.53 59.79C55.4167 59.7322 55.2953 59.6918 55.17 59.67C53.45 61.67 56.56 63.18 59.64 67.49C61.8071 65.6193 63.6783 63.4312 65.19 61L64.72 60.27C64.0241 60.2001 63.3223 60.3211 62.69 60.62V60.62Z" fill="#912A2D"/>
<path d="M61.56 59.06C63.34 57.6 60.39 52.89 59 55.62C58.13 57.33 59.35 60.88 61.56 59.06Z" fill="#CE2C3F"/>
<path opacity="0.7" d="M40.87 60.08C41.87 59.97 42.53 61.08 42.7 62.08C42.87 63.08 42.39 63.63 41.4 63.88C39.75 64.36 38.06 60.65 40.87 60.08V60.08Z" fill="white"/>
<path opacity="0.7" d="M27.28 61.26C28.07 60.67 29.22 61.26 29.86 62.03C30.5 62.8 30.37 63.52 29.65 64.24C28.44 65.45 25.29 63.43 27.28 61.26V61.26Z" fill="white"/>
<path d="M115 28.38C113 27.65 112 23.59 110.21 22.12C109.832 21.753 109.424 21.4184 108.99 21.12C113.51 14.59 123.67 20.78 119.27 27.96C117.83 28.46 116.31 28.9 115 28.38Z" fill="#B22832"/>
<path d="M110.22 22.12C112.06 23.59 112.99 27.65 115.01 28.38C116.31 28.9 117.83 28.46 119.28 28C114.73 34.28 104.85 28.23 109 21.16C109.433 21.4457 109.841 21.7668 110.22 22.12V22.12Z" fill="#912A2D"/>
<path d="M115.72 19.84C115.12 21.24 114.92 24.44 117.12 24.64C120.71 24.84 117.52 20.04 116.32 19.24L115.72 19.84Z" fill="#CE2C3F"/>
<path opacity="0.7" d="M79.49 60.08C78.49 59.97 77.84 61.08 77.66 62.08C77.48 63.08 78 63.6 79 63.85C80.61 64.36 82.3 60.65 79.49 60.08V60.08Z" fill="white"/>
<path opacity="0.7" d="M93.09 61.26C92.29 60.67 91.09 61.26 90.51 62.03C89.93 62.8 89.99 63.52 90.71 64.24C91.92 65.45 95.07 63.42 93.09 61.26V61.26Z" fill="white"/>
</g>
<defs>
<clipPath id="clip0_1_1147">
<rect width="121" height="95" fill="white"/>
</clipPath>
</defs>
</svg>
