<svg width="107" height="99" viewBox="0 0 107 99" fill="none" xmlns="http://www.w3.org/2000/svg">
<path d="M63.29 13.3C59.44 11.3 55.66 15.65 55.66 15.65C55.66 15.65 55.04 13.3 58.66 10.07C62.28 6.84 53.31 0 53.31 0C41.07 10 50.82 9.08 50.96 15.65C46.13 9.99 38.78 13.74 41.96 20.27C47.56 13.68 50.83 22.03 51.7 24.68H54.85C56.29 19.24 60.41 15.08 64.58 20.27C64.62 20.27 67.14 15.3 63.29 13.3Z" fill="#F9B63E"/>
<path d="M17.59 75.16C-30.2 39.34 35.78 -2.36 51.37 38.44C55.81 46.01 50.92 78.34 51 79.44L17.59 75.16Z" fill="#F90B0B"/>
<path d="M89.2 75.16C136.99 39.34 71.01 -2.36 55.42 38.44C50.98 46.01 55.88 78.34 55.79 79.44L89.2 75.16Z" fill="#F90B0B"/>
<path d="M54.94 91.72H51.3C38.1 91.36 15.92 89.55 11.82 81L6.15 67.76C5.34023 66.0361 5.15979 64.083 5.64 62.24C41.43 77 40.09 51.2 51.26 33.41V33.27L51.79 33.22H55.69V33.41C67.43 55.09 68.15 76 101.32 62.24C101.51 63.16 101.98 64.49 100.8 67.79L95.14 81C91.04 89.54 68.9 91.36 55.69 91.67H55.17L54.94 91.72Z" fill="#E59F23"/>
<path d="M100.95 63C60.5 80.78 61.77 35.23 55.17 33.79H51.79C45.19 35.23 46.5 80.78 6.01 63C5.73145 64.5539 5.94834 66.1561 6.63 67.58L12.29 80.8C16.5 89.43 40.78 90.93 51.79 91.16H55.17C66.17 90.93 90.51 89.43 94.66 80.8L100.33 67.56C101.007 66.1419 101.224 64.5474 100.95 63Z" fill="#FDC33C"/>
<path d="M55.17 33.79H53.5V91.19H55.18C66.18 90.96 90.52 89.46 94.67 80.83L100.34 67.59C101.022 66.166 101.239 64.5639 100.96 63.01C60.5 80.78 61.77 35.23 55.17 33.79V33.79Z" fill="#EFAD29"/>
<path d="M60.36 29.53C60.36 38.77 47.19 38.8 46.59 30.03C46.64 20.8 59.76 20.77 60.36 29.53Z" fill="#EFAD29"/>
<path d="M58.58 29.6C58.66 36.12 48.94 36.6 48.38 29.97C48.29 23.45 58.02 22.94 58.58 29.6Z" fill="#FF0808"/>
<path d="M55.67 26.15C56.67 28.37 50.86 31.52 49.27 28.95C48.24 26.73 54.08 23.58 55.67 26.15Z" fill="#FF5F5F"/>
<path d="M53.76 26.14C54.5 27.38 49.87 29.69 50.14 27.05C50.62 25.9 52.67 25 53.76 26.14Z" fill="#FFA9A9"/>
<path d="M53.48 57.63L45.97 69.14L53.48 80.64L60.98 69.14L53.48 57.63Z" fill="#E59F23"/>
<path d="M46.91 69.14L53.48 59.07L60.05 69.14L53.48 79.2L46.91 69.14Z" fill="#FF0808"/>
<path d="M24.5 76.25C24.38 80.81 17.5 81.18 17.11 76.25C17.18 71.69 24.07 71.31 24.5 76.25Z" fill="#E59F23"/>
<path d="M20.76 79.16C17.49 79.16 16.66 73.73 20.76 73.34C24.02 73.31 24.86 78.77 20.76 79.16Z" fill="#FF0808"/>
<path d="M38.39 77.27C38.27 81.83 31.39 82.2 31 77.27C31.12 72.71 38.01 72.33 38.39 77.27Z" fill="#E59F23"/>
<path d="M34.69 80.18C31.43 80.18 30.59 74.75 34.69 74.36C37.96 74.33 38.79 79.79 34.69 80.18Z" fill="#FF0808"/>
<path d="M82.5 76.25C82.62 80.81 89.5 81.18 89.89 76.25C89.77 71.69 82.88 71.31 82.5 76.25Z" fill="#E59F23"/>
<path d="M86.2 79.16C82.94 79.16 82.1 73.73 86.2 73.34C89.5 73.31 90.3 78.77 86.2 79.16Z" fill="#FF0808"/>
<path d="M68.57 77.27C68.69 81.83 75.57 82.2 75.96 77.27C75.84 72.71 68.95 72.33 68.57 77.27Z" fill="#E59F23"/>
<path d="M72.26 80.18C69 80.18 68.16 74.75 72.26 74.36C75.5 74.33 76.36 79.79 72.26 80.18Z" fill="#FF0808"/>
<path d="M95.65 78.78C91.17 88.78 13.52 87.78 11.3 78.78H11.21V88.14C11.21 92.41 30.13 95.88 53.47 95.88C76.81 95.88 95.74 92.41 95.74 88.14V78.78H95.65Z" fill="#FDC33C"/>
<path d="M95.74 87.67C96.79 98.67 8.93 98.15 11.21 87.67C2.84 90.31 22.96 99.24 53.5 98.87C88.21 99.15 103.31 90 95.74 87.67Z" fill="#E59F23"/>
<path d="M53.5 97.82C35.76 97.82 24.3 95.58 17.65 93.31C36.44 98.51 89.1 98.92 96.6 89.15L96.76 89.26C96.1 91 87.25 97.82 53.5 97.82V97.82ZM11.13 90.19C10.7604 89.9295 10.4558 89.5873 10.24 89.19C10.2819 89.1532 10.3291 89.1228 10.38 89.1C10.5632 89.505 10.8172 89.8741 11.13 90.19Z" fill="#FDC33C"/>
<path d="M96.65 76.44L95.86 77.17C87.05 87.06 14.72 86.72 11.21 76.94L10.12 76.25C4.68 80.07 23.62 88.45 57.92 87.63C89.97 87.13 101.55 79.16 96.65 76.44V76.44Z" fill="#E59F23"/>
<path d="M53.5 86.62C22.36 86.62 10.58 79.72 10.2 77.87C10.211 77.7658 10.2277 77.6623 10.25 77.56L10.36 77.63C17.97 89.56 91.54 86.56 96.73 77.82L96.81 77.75V77.9C96.71 79.25 88.5 86.62 53.5 86.62Z" fill="#FDC33C"/>
<path d="M18.19 86.85C18.19 88.1092 17.1692 89.13 15.91 89.13C14.6508 89.13 13.63 88.1092 13.63 86.85C13.63 85.5908 14.6508 84.57 15.91 84.57C17.1692 84.57 18.19 85.5908 18.19 86.85Z" fill="#EFAD29"/>
<path d="M15.91 88.61C12.04 88.09 15.97 82.3 17.67 86.85C17.5643 87.7747 16.8347 88.5043 15.91 88.61V88.61Z" fill="#FFCC66"/>
<path d="M15.87 86.57C14.37 87.46 14.32 84.88 16.4 85.57C16.5 85.75 16.5 85.94 15.87 86.57Z" fill="#FFDFA6"/>
<path d="M26.22 88.6C26.22 89.8592 25.1992 90.88 23.94 90.88C22.6808 90.88 21.66 89.8592 21.66 88.6C21.66 87.3408 22.6808 86.32 23.94 86.32C25.1992 86.32 26.22 87.3408 26.22 88.6Z" fill="#EFAD29"/>
<path d="M23.94 90.36C20.07 89.83 24 84.04 25.7 88.6C25.5943 89.5247 24.8647 90.2543 23.94 90.36Z" fill="#FFCC66"/>
<path d="M34.25 90.34C34.25 91.5992 33.2292 92.62 31.97 92.62C30.7108 92.62 29.69 91.5992 29.69 90.34C29.69 89.0808 30.7108 88.06 31.97 88.06C33.2292 88.06 34.25 89.0808 34.25 90.34Z" fill="#EFAD29"/>
<path d="M31.97 92.1C28.1 91.58 32.03 85.79 33.73 90.34C33.6243 91.2647 32.8947 91.9943 31.97 92.1V92.1Z" fill="#FFCC66"/>
<path d="M44.57 90.88C44.57 92.1392 43.5492 93.16 42.29 93.16C41.0308 93.16 40.01 92.1392 40.01 90.88C40.01 89.6208 41.0308 88.6 42.29 88.6C43.5492 88.6 44.57 89.6208 44.57 90.88Z" fill="#EFAD29"/>
<path d="M42.29 92.64C38.42 92.12 42.35 86.33 44.05 90.88C43.9443 91.8047 43.2147 92.5343 42.29 92.64Z" fill="#FFCC66"/>
<path d="M54.89 91.42C54.8103 92.6234 53.811 93.5588 52.605 93.5588C51.399 93.5588 50.3997 92.6234 50.32 91.42C50.3997 90.2166 51.399 89.2812 52.605 89.2812C53.811 89.2812 54.8103 90.2166 54.89 91.42Z" fill="#EFAD29"/>
<path d="M52.6 93.18C48.74 92.65 52.66 86.86 54.36 91.42C54.2543 92.3447 53.5247 93.0743 52.6 93.18Z" fill="#FFCC66"/>
<path d="M66.37 90.88C66.2904 92.0834 65.291 93.0187 64.085 93.0187C62.879 93.0187 61.8797 92.0834 61.8 90.88C61.8797 89.6766 62.879 88.7412 64.085 88.7412C65.291 88.7412 66.2904 89.6766 66.37 90.88Z" fill="#EFAD29"/>
<path d="M64.08 92.64C60.22 92.12 64.14 86.33 65.84 90.88C65.7343 91.8047 65.0047 92.5343 64.08 92.64V92.64Z" fill="#FFCC66"/>
<path d="M77.85 90.34C77.7703 91.5434 76.771 92.4787 75.565 92.4787C74.359 92.4787 73.3597 91.5434 73.28 90.34C73.3597 89.1366 74.359 88.2012 75.565 88.2012C76.771 88.2012 77.7703 89.1366 77.85 90.34Z" fill="#EFAD29"/>
<path d="M75.56 92.1C71.7 91.58 75.62 85.79 77.32 90.34C77.2143 91.2647 76.4847 91.9943 75.56 92.1Z" fill="#FFCC66"/>
<path d="M86.37 88.6C86.37 89.8592 85.3492 90.88 84.09 90.88C82.8308 90.88 81.81 89.8592 81.81 88.6C81.81 87.3408 82.8308 86.32 84.09 86.32C85.3492 86.32 86.37 87.3408 86.37 88.6Z" fill="#EFAD29"/>
<path d="M84.09 90.36C80.22 89.83 84.15 84.04 85.85 88.6C85.7443 89.5247 85.0147 90.2543 84.09 90.36Z" fill="#FFCC66"/>
<path d="M94.9 86.85C94.8204 88.0534 93.821 88.9888 92.615 88.9888C91.409 88.9888 90.4097 88.0534 90.33 86.85C90.4097 85.6466 91.409 84.7112 92.615 84.7112C93.821 84.7112 94.8204 85.6466 94.9 86.85Z" fill="#EFAD29"/>
<path d="M92.62 88.61C88.75 88.09 92.62 82.3 94.37 86.85C94.2653 87.7714 93.5408 88.5 92.62 88.61Z" fill="#FFCC66"/>
<path d="M23.72 88.39C22.22 89.28 22.17 86.71 24.25 87.39C24.31 87.57 24.34 87.76 23.72 88.39Z" fill="#FFDFA6"/>
<path d="M31.74 90.16C30.24 91.05 30.19 88.48 32.27 89.16C32.33 89.34 32.36 89.53 31.74 90.16Z" fill="#FFDFA6"/>
<path d="M42.04 90.68C40.54 91.58 40.49 89 42.57 89.68C42.64 89.87 42.67 90.06 42.04 90.68Z" fill="#FFDFA6"/>
<path d="M52.35 91.22C50.85 92.12 50.8 89.54 52.88 90.22C52.94 90.41 52.97 90.59 52.35 91.22Z" fill="#FFDFA6"/>
<path d="M63.94 90.68C62.44 91.58 62.39 89 64.47 89.68C64.5 89.87 64.56 90.06 63.94 90.68Z" fill="#FFDFA6"/>
<path d="M75.37 90.18C73.87 91.07 73.83 88.49 75.9 89.18C75.97 89.36 76 89.55 75.37 90.18Z" fill="#FFDFA6"/>
<path d="M83.72 88.39C82.22 89.28 82.17 86.71 84.25 87.39C84.31 87.57 84.34 87.76 83.72 88.39Z" fill="#FFDFA6"/>
<path d="M92.5 86.66C90.99 87.55 90.95 84.98 93.02 85.66C93.06 85.84 93.09 86 92.5 86.66Z" fill="#FFDFA6"/>
<path d="M63.29 13.3C59.44 11.3 55.66 15.65 55.66 15.65C55.66 15.65 55.04 13.3 58.66 10.07C62.28 6.84 53.31 0 53.31 0V24.68H54.9C56.34 19.24 60.46 15.08 64.63 20.27C64.62 20.27 67.14 15.3 63.29 13.3V13.3Z" fill="#E5A025"/>
<path d="M32.5 29.58C42.84 44.72 17.5 62.74 6.76 49.77C-3.63 34.63 21.73 16.62 32.5 29.58V29.58Z" fill="#FF0808"/>
<path d="M21.6 28.24C25 32.46 11.9 43.24 7.48 40.17C1.93 36.51 17.94 23.52 21.6 28.24V28.24Z" fill="#FF6969"/>
<path d="M86.86 27.23C95.47 41.89 70.98 56.72 61.99 44.23C53.38 29.55 77.88 14.72 86.86 27.23V27.23Z" fill="#FF0808"/>
<path d="M77.88 24.23C81.28 28.46 68.18 39.23 63.76 36.17C58.2 32.51 74.22 19.51 77.88 24.23V24.23Z" fill="#FF6969"/>
</svg>
