<svg width="58" height="94" viewBox="0 0 58 94" fill="none" xmlns="http://www.w3.org/2000/svg">
<path d="M57.71 51.21C30.71 85.71 29.51 0.9 28.86 0C28.39 1.39 26.51 85.74 0 51.21C0.06 64.79 2.38 93.29 2.38 93.29C2.38 93.29 2.57 93.43 2.67 93.51C3.56 85.51 9.9 81.87 19.77 80.22C31.68 78.61 55.23 80.49 55.06 93.49L55.34 93.29C55.34 93.29 57.65 64.79 57.71 51.21V51.21Z" fill="#ECB43B"/>
<path d="M57.71 51.21C56.94 52.21 56.07 53.45 54.42 55.29C53.9471 55.8229 53.4429 56.3272 52.91 56.8C52.3199 57.3536 51.6806 57.8524 51 58.29C50.2019 58.7429 49.3432 59.0796 48.45 59.29C47.4703 59.5375 46.4593 59.6386 45.45 59.59C44.9175 59.5674 44.3884 59.4938 43.87 59.37C43.3324 59.2244 42.8126 59.0198 42.32 58.76C29.93 48.8 29.73 11.52 28.86 0C30 11.85 31.25 26.39 34.12 39.41C35.81 45.15 37.04 53.84 42.66 58.14C45.2295 59.3669 48.2348 59.27 50.72 57.88C51.4231 57.4828 52.0921 57.0279 52.72 56.52C53.2658 56.0795 53.7835 55.6053 54.27 55.1C55 54.31 56.68 52.41 57.71 51.21V51.21Z" fill="#BC7622"/>
<path d="M28.86 0C28.06 16 26.63 50.32 15.4 58.78C14.1824 59.3784 12.8359 59.667 11.48 59.62C10.7521 59.5891 10.0288 59.4886 9.32 59.32C8.42126 59.107 7.55637 58.7704 6.75 58.32C6.05738 57.8749 5.40789 57.366 4.81 56.8C4.27396 56.3271 3.76641 55.8229 3.29 55.29C2.5 54.47 1 52.48 0 51.21C0.83 52.15 1.78 53.34 3.49 55.09C3.9772 55.6013 4.49839 56.079 5.05 56.52C5.65982 57.0284 6.31222 57.4834 7 57.88C8.64 58.79 12.39 59.59 15.06 58.14C20.38 54.2 21.64 46.3 23.61 39.41C25.07 33.13 26.08 25.62 26.99 18.41C27.6 13.13 28.47 4.64 28.86 0V0Z" fill="#BC7622"/>
<path d="M27.23 52.79C18.34 54.9 21 76.9 29.71 75.07C36.49 72.75 33.2 51.15 27.23 52.79V52.79Z" fill="#D6982B"/>
<path d="M9.63 68.59C6.63 69.66 7.03 75.72 10.91 76.08C15.09 75.84 14 68.75 9.63 68.59Z" fill="#D6982B"/>
<path d="M45.82 68.17C43.56 67.6 41.82 70.17 42.42 72.98C43.84 79.77 52.61 74.68 46.95 69.3L45.82 68.17Z" fill="#D6982B"/>
<path d="M27.37 66.89C28.28 62.09 30.37 63.37 32.79 65.66C34.72 50.84 24.95 46.89 24.09 62.11C25.62 62 26.63 65.74 27.37 66.89Z" fill="#F2D1D7"/>
<path d="M27.37 66.89C26.63 65.74 25.62 62.03 24.09 62.11C22.93 73.93 32.14 79.11 32.79 65.66C30.37 63.37 28.28 62.09 27.37 66.89V66.89Z" fill="#E2AFBA"/>
<path d="M28.89 54.57C27.79 54.41 26.89 56.57 27.09 57.69C29.54 63.27 33.72 57.48 29.59 54.69L28.89 54.57Z" fill="#F9E4E8"/>
<path d="M9.00001 71.44C8.73753 70.8064 8.60819 70.1257 8.62001 69.44C6.32001 72 9.81001 76.92 12.71 73.49C11.45 72.86 10 72.75 9.00001 71.44Z" fill="#C9C7BC"/>
<path opacity="0.7" d="M12.82 69.31C11.67 68.13 10.25 67.31 8.65001 69.41C8.63818 70.0957 8.76752 70.7764 9.03001 71.41C10.03 72.72 11.45 72.83 12.71 73.41C13.3785 72.1338 13.4191 70.6202 12.82 69.31V69.31Z" fill="white"/>
<path opacity="0.7" d="M48.69 71.44C48.9456 70.8047 49.0714 70.1247 49.06 69.44C47.43 66.6 42.55 69.57 45.01 73.52C46.27 72.86 47.73 72.75 48.69 71.44V71.44Z" fill="white"/>
<path d="M48.69 71.44C47.69 72.75 46.27 72.86 45.01 73.44C47.06 76.64 51.67 72.53 49.06 69.36C49.0823 70.0715 48.9563 70.7798 48.69 71.44Z" fill="#C9C7BC"/>
<path d="M2.67001 93.51L2.85001 92.05C2.96001 91.57 3.06001 91.05 3.19001 90.61C3.32001 90.17 3.49001 89.67 3.70001 89.22C3.89453 88.7642 4.12179 88.323 4.38001 87.9C4.62507 87.4672 4.90606 87.0557 5.22001 86.67L5.69001 86.08L6.21001 85.54C6.56178 85.1833 6.93586 84.8493 7.33001 84.54C7.71001 84.21 8.14001 83.95 8.54001 83.66C11.26 82.06 12.54 81.31 18.25 80.05L19.7 79.77L25 79.43C27.41 79.35 27.18 79.29 30.23 79.27H32.88C33.76 79.36 34.6 79.45 35.48 79.56C36.36 79.67 37.22 79.79 38.08 79.96C38.94 80.13 39.8 80.28 40.65 80.49C41.5 80.7 42.35 80.92 43.2 81.16C43.77 81.34 45.46 81.92 46.89 82.56C47.29 82.74 47.68 82.96 48.07 83.16C48.8666 83.5411 49.6236 84 50.33 84.53L51.33 85.34L52.33 86.27C52.9407 86.9113 53.4681 87.6269 53.9 88.4L54.22 88.97C54.4721 89.5784 54.6825 90.2031 54.85 90.84C54.9573 91.2669 55.0308 91.7016 55.07 92.14V93.44L54.93 92.15C54.7523 91.1047 54.415 90.0929 53.93 89.15L53.58 88.61C53.1298 87.8781 52.5889 87.2061 51.97 86.61L50.97 85.76L49.97 85.01C49.2712 84.5156 48.5241 84.0935 47.74 83.75C47.36 83.57 46.97 83.38 46.58 83.21C45.3826 82.732 44.1569 82.3279 42.91 82C42.08 81.79 41.26 81.54 40.41 81.37C39.56 81.2 38.73 81.02 37.87 80.89C37.01 80.76 36.17 80.64 35.33 80.52C34.49 80.4 33.59 80.34 32.75 80.27H30.18C29.43 80.27 26.55 80.37 25 80.41L19.81 80.69L18.37 80.94C17.79 81.05 16.28 81.34 14.14 81.94C12.2822 82.4631 10.4981 83.2191 8.83001 84.19C8.43171 84.4381 8.04776 84.7085 7.68001 85C7.28572 85.2761 6.9145 85.5838 6.57001 85.92L6.00001 86.41L5.57001 87C5.24627 87.3555 4.95196 87.7368 4.69001 88.14C4.43529 88.5253 4.20485 88.926 4.00001 89.34C3.78001 89.76 3.62001 90.23 3.43001 90.67L3.00001 92.07L2.67001 93.51Z" fill="#FFE18D"/>
</svg>
