<svg width="68" height="55" viewBox="0 0 68 55" fill="none" xmlns="http://www.w3.org/2000/svg">
<path d="M49.46 10.31C49.3902 10.2789 49.316 10.2587 49.24 10.25V10.19L49.3 10.06C51.88 6.27003 47.22 3.25003 47.3 9.54003V9.83003H47.23H47.04C45.6 9.31003 44.04 12.69 47.12 12.61C47.2444 12.5804 47.3628 12.5296 47.47 12.46L47.63 12.35C47.6598 12.4316 47.7002 12.5089 47.75 12.58C47.8858 12.7764 48.0634 12.9403 48.27 13.06C48.7612 13.2726 49.3286 13.207 49.7583 12.8878C50.188 12.5687 50.4148 12.0445 50.3533 11.5128C50.2918 10.9811 49.9512 10.5226 49.46 10.31V10.31Z" fill="#CA8F05"/>
<path d="M19.47 12.92C19.7 12.76 19.63 12.86 19.99 12.44L20.11 12.21H20.16C20.2093 12.2523 20.2629 12.2892 20.32 12.32C20.4269 12.3903 20.5454 12.4411 20.67 12.47C22.08 13.25 23.67 9.60001 20.74 9.69001H20.56H20.49C20.49 9.58001 20.49 9.63001 20.49 9.40001C21.28 4.53001 15.85 4.40001 18.49 9.92001L18.55 10.05V10.11C18.4756 10.1258 18.4021 10.1458 18.33 10.17C17.21 10.48 16.94 13.84 19.47 12.92V12.92Z" fill="#CA8F05"/>
<path d="M48.88 38.19C48.21 39.52 47.43 41.09 46.41 43.42C44.2372 40.5754 42.3324 37.5358 40.72 34.34C42.4192 27.0641 44.5156 19.8866 47 12.84C47.1994 12.8042 47.3919 12.7367 47.57 12.64C47.6967 12.8336 47.8639 12.9973 48.06 13.12C46.9277 21.4636 47.2049 29.9382 48.88 38.19V38.19Z" fill="#CA8F05"/>
<path d="M27 34.34C25.4002 37.5429 23.4947 40.5837 21.31 43.42C20.78 42.15 19.93 40.33 18.84 38.19C20.27 30.68 21 21.5 19.68 13.12C19.8792 12.9977 20.0497 12.834 20.18 12.64C20.3515 12.7434 20.5419 12.8114 20.74 12.84C23.2187 19.8867 25.3086 27.0641 27 34.34V34.34Z" fill="#CA8F05"/>
<path d="M64.93 18.46L64.87 18.51C67.38 20.05 63.35 24.42 62.05 20.09L61.73 20.16C59.26 20.8 58.62 15.22 62.52 16.85C62.612 16.9168 62.6989 16.9904 62.78 17.07L62.91 16.73C64.76 10 70.65 13.69 64.93 18.46V18.46Z" fill="#FFB401"/>
<path d="M8.11 18.66C7.9002 19.6303 6.98535 20.2807 6 20.16C5.89067 20.1512 5.78303 20.1276 5.68 20.09C5.9 23.17 -0.0999999 21.54 2.87 18.51C1.87 17.51 -1.35 14.93 1.07 13.18C2.73 12.38 4.01 14.53 4.82 16.73C4.87034 16.8405 4.91376 16.9541 4.95 17.07L5.21 16.85C5.81 16.32 8.4 16.48 8.11 18.66V18.66Z" fill="#FFB401"/>
<path d="M31.45 9.15C32.226 9.65059 33.249 9.5243 33.88 8.85001C35.54 11.01 39.06 7.12 35.51 5.85H35.11C35.17 4.63 36.94 0.860005 33.88 0.380005C31.98 0.380005 31.77 3.25001 32.64 5.8H32.58C32.4802 5.79106 32.3798 5.79106 32.28 5.8C31.5403 5.92331 30.9446 6.47441 30.7643 7.20229C30.584 7.93018 30.8534 8.69563 31.45 9.15V9.15Z" fill="#FFB401"/>
<path d="M61.87 21L61.76 21.22C57.4301 30.2749 54.7224 40.0193 53.76 50.01C41.76 55.09 26.93 55.7 14.03 50.01C13.0545 40.0117 10.3369 30.2613 6 21.2C5.95834 21.1362 5.92157 21.0693 5.89 21C5.94269 20.8544 5.97957 20.7035 6 20.55C6.17905 20.5761 6.36095 20.5761 6.54 20.55C12.5795 27.6927 17.5297 35.6892 21.23 44.28C23.564 41.4266 25.5762 38.3246 27.23 35.03C31.235 27.1739 33.3414 18.488 33.38 9.67C33.5615 9.59705 33.7302 9.4958 33.88 9.37C34.0283 9.49788 34.1974 9.59936 34.38 9.67V9.79C34.4608 18.5584 36.5763 27.1883 40.56 35C42.2227 38.2895 44.2343 41.3906 46.56 44.25C50.2378 35.6699 55.1681 27.683 61.19 20.55C61.3661 20.5702 61.5439 20.5702 61.72 20.55C61.7536 20.705 61.8039 20.8559 61.87 21V21Z" fill="#FFB401"/>
<path d="M68 14.58C67.59 11.24 63.31 12.91 62.62 16.45C60.75 14.98 57.39 18.93 60.77 20.45C56.3115 25.6634 52.4602 31.3666 49.29 37.45C47.7912 29.4704 47.4543 21.316 48.29 13.24C49.6 14.08 52.1 11.48 49.66 10.07C52.46 5.59 46.93 3.07 46.99 9.43C45.38 9.04 43.86 12.23 46.6 12.87C44.29 19.29 42.32 26.13 40.41 33.64C36.8471 26.1871 34.9174 18.0591 34.75 9.8C35.0571 9.86038 35.3729 9.86038 35.68 9.8C36.6762 9.54553 37.3731 8.64816 37.3731 7.62C37.3731 6.59184 36.6762 5.69447 35.68 5.44C35.78 4.16 37 0.36 33.88 0C31.8 0.14 31.35 2.78 32.1 5.46C30.65 5.76 28.94 8.75 32.1 9.82C32.4101 9.88358 32.7299 9.88358 33.04 9.82C32.8708 18.0722 30.9518 26.1946 27.41 33.65C25.78 27.27 23.75 19.91 21.22 12.88C22.72 12.88 23.84 9.39 20.82 9.44C21.6 4.09 15.49 4.44 18.15 10.08C16.82 10.62 16.49 13.97 19.52 13.25C20.3603 21.3259 20.0235 29.4809 18.52 37.46C15.3437 31.3678 11.4783 25.6604 7 20.45C9.18 19.85 8.85 14.89 5.15 16.45C3.35 9.54 -3.53 13.31 2.3 18.51C0.650003 19.94 3 24.18 5.67 21.36C9.91404 30.4821 12.5657 40.2633 13.51 50.28C26.4605 56.1115 41.2895 56.1115 54.24 50.28C55.1952 40.2653 57.8463 30.4859 62.08 21.36C63.25 23.36 67.61 21.56 65.46 18.51C66.62 17.45 68 15.93 68 14.58V14.58ZM46.4 12.53C45.51 12.62 44.4 9.53 47.03 9.73H47.22H47.29C47.29 9.62 47.29 9.67 47.29 9.44C46.5 4.57 51.92 4.44 49.29 9.96L49.23 10.09V10.15C49.3048 10.1642 49.3784 10.1843 49.45 10.21C50.53 10.38 50.81 13.74 48.28 12.82C48.04 12.66 48.11 12.76 47.76 12.34C47.713 12.2672 47.6728 12.1902 47.64 12.11L47.48 12.22C47.3731 12.2903 47.2546 12.3411 47.13 12.37C46.8987 12.4892 46.6398 12.5444 46.38 12.53H46.4ZM41.5 31C42.94 25.35 44.79 19.19 46.98 12.84C47.1795 12.8042 47.3719 12.7366 47.55 12.64C47.6767 12.8335 47.8439 12.9973 48.04 13.12C46.9196 21.465 47.2035 29.9387 48.88 38.19C48.21 39.52 47.43 41.09 46.41 43.42C44.2372 40.5754 42.3324 37.5358 40.72 34.34C41 33.22 41.22 32.1 41.5 31V31ZM32.5 9.48C31.5706 9.42985 30.8232 8.69702 30.7547 7.76879C30.6862 6.84057 31.318 6.00599 32.23 5.82H32.63C32.58 4.63 30.82 0.86 33.88 0.38C35.78 0.38 35.99 3.25 35.11 5.8H35.17C35.2698 5.79111 35.3702 5.79111 35.47 5.8C38.04 6.03 37.01 11.23 33.84 8.8C33.512 9.20353 33.0292 9.45035 32.51 9.48H32.5ZM19.5 12.92C18.7793 13.2458 17.9309 12.9257 17.605 12.205C17.2792 11.4843 17.5993 10.6358 18.32 10.31L18.54 10.25V10.19L18.48 10.06C15.9 6.27 20.56 3.25 20.48 9.54V9.83H20.55H20.73C22.17 9.31 23.73 12.69 20.66 12.61C20.5348 12.5829 20.416 12.532 20.31 12.46C20.2529 12.4291 20.1993 12.3923 20.15 12.35H20.1C20.05 12.44 20.1 12.35 19.98 12.58C19.8309 12.722 19.6584 12.837 19.47 12.92H19.5ZM19.13 36.92C20.5975 29.083 20.8035 21.0619 19.74 13.16C19.9392 13.0377 20.1097 12.874 20.24 12.68C20.4115 12.7834 20.6019 12.8514 20.8 12.88C23.2576 19.9146 25.3274 27.0787 27 34.34C25.4002 37.5429 23.4947 40.5837 21.31 43.42C20.78 42.15 19.93 40.33 18.84 38.19C19 37.75 19 37.3 19.1 36.88L19.13 36.92ZM5.67 20.42C5.48 23.13 0.0200033 21.34 2.89 18.51C-2.66 14.66 2.04 9.51 4.84 16.73C4.89034 16.8405 4.93376 16.9541 4.97 17.07L5.23 16.85C6.99 15.22 10.23 19.92 6.02 20.16C5.91067 20.1512 5.80304 20.1276 5.7 20.09C5.70518 20.2009 5.69509 20.3119 5.67 20.42V20.42ZM59.53 26.23C56.4839 33.8391 54.5344 41.8424 53.74 50C41.0413 55.3882 26.6987 55.3882 14 50C13.0328 40.007 10.3254 30.2602 6 21.2C5.95834 21.1362 5.92157 21.0693 5.89 21C5.9427 20.8544 5.97957 20.7035 6 20.55C6.17906 20.5761 6.36095 20.5761 6.54 20.55C12.5795 27.6927 17.5297 35.6892 21.23 44.28C23.564 41.4267 25.5762 38.3246 27.23 35.03C31.235 27.1739 33.3414 18.488 33.38 9.67C33.5615 9.59706 33.7302 9.4958 33.88 9.37C34.0283 9.49789 34.1974 9.59936 34.38 9.67V9.79C34.4608 18.5584 36.5763 27.1883 40.56 35C42.2227 38.2895 44.2343 41.3906 46.56 44.25C50.2378 35.67 55.1681 27.683 61.19 20.55C61.3661 20.5702 61.5439 20.5702 61.72 20.55C61.7549 20.6982 61.8052 20.8423 61.87 20.98L61.76 21.2C60.94 22.84 60.22 24.52 59.53 26.23V26.23ZM65.39 21.14C64.9099 21.7536 64.0997 22.0053 63.3564 21.7716C62.6131 21.538 62.0926 20.868 62.05 20.09L61.73 20.16C59.26 20.8 58.62 15.22 62.52 16.85C62.612 16.9168 62.6989 16.9904 62.78 17.07L62.91 16.73C64.97 9.73 70.6 13.95 64.91 18.51C65.55 19 65.91 19.75 65.39 21.14Z" fill="#B06305"/>
<path d="M8.11001 18.66C7.97765 19.2263 7.61527 19.7119 7.11001 20C8.32001 19 7.39001 15.6 4.68001 17.69C3.68001 14.26 2.20001 13.07 1.15001 13.14C2.77001 12.44 4.04001 14.55 4.84001 16.73C4.89035 16.8405 4.93376 16.9541 4.97001 17.07L5.23001 16.85C5.81001 16.32 8.40001 16.48 8.11001 18.66Z" fill="#FFD673"/>
<path opacity="0.3" d="M5.67 20.42C5.48 23.13 0.0200047 21.34 2.89 18.51C1.89 17.51 -1.33 14.93 1.09 13.18C0.820004 14.77 3.74 19.5 5.67 20.42Z" fill="#CA8F05"/>
<path opacity="0.4" d="M33.91 0.650024C32.26 0.650024 33.32 6.22002 33.32 6.22002C29.19 6.95002 33.14 10.8 34.16 7.91002C35.02 9.91002 38.25 6.91002 34.75 6.39002C35.18 3.94002 35 0.650024 33.91 0.650024V0.650024Z" fill="#FFD673"/>
<path opacity="0.3" d="M64.93 18.46L64.87 18.51C67.28 19.97 63.59 24.43 62.05 20.17C64.59 18.63 66.67 14.84 67.27 13.67C68.17 15 66.76 16.82 64.93 18.46Z" fill="#CA8F05"/>
<path opacity="0.2" d="M26.43 31.69C26.64 32.56 26.83 33.45 27.03 34.34C25.4302 37.5429 23.5247 40.5837 21.34 43.42C20.81 42.15 19.96 40.33 18.87 38.19C19.11 36.87 19.46 34.97 19.75 32.77L22.51 37.9C24.0765 36.0059 25.3939 33.9189 26.43 31.69V31.69Z" fill="#CA8F05"/>
<path opacity="0.2" d="M48.88 38.19C48.21 39.52 47.43 41.09 46.41 43.42C44.2372 40.5754 42.3324 37.5357 40.72 34.34C40.89 33.63 41.04 32.93 41.2 32.23C44.57 36.83 45.6 42.59 48.36 35.23C48.55 36.32 48.45 35.75 48.88 38.19V38.19Z" fill="#CA8F05"/>
<path d="M33.57 1.53003C32.93 1.53003 33.23 6.05003 33.74 6.05003C34.25 6.05003 34 1.53003 33.57 1.53003V1.53003Z" fill="#FFD673"/>
<path d="M31.8 7.36002C31.37 7.70002 32.47 9.01002 32.8 8.67002C33.13 8.33002 32.22 7.00002 31.8 7.36002V7.36002Z" fill="#FFD673"/>
<path opacity="0.3" d="M16.08 42.33C16.931 45.3122 17.5363 48.359 17.89 51.44C16.67 51 16.94 51.17 14 50C13.0328 40.007 10.3254 30.2601 6 21.2C5.95834 21.1362 5.92157 21.0693 5.89 21C5.94269 20.8544 5.97957 20.7035 6 20.55C6 20.55 13.68 33.46 16.08 42.33Z" fill="#CA8F05"/>
<path opacity="0.3" d="M61.87 21L61.76 21.22C57.4301 30.275 54.7224 40.0193 53.76 50.01C53.54 50.1 52.18 50.67 50.61 51.21C51.16 46.21 53.42 31.91 61.74 20.57C61.7685 20.7174 61.812 20.8615 61.87 21V21Z" fill="#CA8F05"/>
<path opacity="0.4" d="M45.74 46.13C45.3027 48.4492 44.7385 50.7426 44.05 53C37.1628 54.3994 30.0606 54.3586 23.19 52.88C22.5116 50.6525 21.9574 48.389 21.53 46.1C28.05 39.34 32.84 28.68 33.64 18.02C34.4092 28.4813 38.6704 38.3808 45.74 46.13Z" fill="#FFD673"/>
<path opacity="0.4" d="M33.44 25.86C33.44 25.92 33.69 50.58 33.25 52.94C34.18 53.64 26.07 52.94 25.25 52.34C24.65 51.34 22.83 45.51 23.9 46.03C27.72 44.37 34.24 25.76 33.44 25.86V25.86Z" fill="#FFD673"/>
</svg>
