<svg width="115" height="96" viewBox="0 0 115 96" fill="none" xmlns="http://www.w3.org/2000/svg">
<g clip-path="url(#clip0_1_2606)">
<path d="M90.43 26.31C88.6791 27.6199 86.7406 28.6582 84.68 29.39C82.4858 37.2411 81.4449 45.3694 81.59 53.52C76.8008 54.1915 72.0133 52.2825 69 48.5C73.8583 42.031 78.0056 35.0575 81.37 27.7L80.93 26.78C80.2846 25.4991 79.7622 24.1597 79.37 22.78C82.3907 19.4635 85.8373 16.5616 89.62 14.15C90.3929 18.1541 90.665 22.2388 90.43 26.31V26.31Z" fill="#CA8F05"/>
<path d="M45.72 48.5C43.18 51.81 37.81 54.44 33.16 53.5C33.299 45.3491 32.2548 37.2211 30.06 29.37C28.0018 28.6329 26.0641 27.5949 24.31 26.29C24.0903 22.2155 24.3622 18.1294 25.12 14.12C28.9027 16.5355 32.3522 19.437 35.38 22.75C34.9785 24.128 34.453 25.4668 33.81 26.75C33.67 27.06 33.52 27.36 33.38 27.67C36.7341 35.0359 40.8713 42.0195 45.72 48.5Z" fill="#CA8F05"/>
<path d="M113.75 31C113.75 31.74 113.67 32.49 113.61 33.25C111.357 34.8328 108.964 36.2053 106.46 37.35C106.05 37.52 105.65 37.7 105.24 37.86C97.4397 52.5771 94.281 69.3121 96.18 85.86C88.534 89.8397 80.2538 92.4587 71.71 93.6C62.1679 94.6333 52.5421 94.6333 43 93.6C35.8319 92.6563 28.8369 90.6861 22.23 87.75C21.23 87.3 20.3 86.86 18.52 85.91C20.4228 69.3619 17.2639 52.6259 9.46 37.91L8.25 37.4C5.74626 36.2549 3.35289 34.8825 1.1 33.3C0.870424 29.5776 0.837045 25.8458 1 22.12C1.07 20.28 1.12 18.51 1.34 15.72C6.72528 18.8028 11.7555 22.4682 16.34 26.65C16.16 28.81 15.95 31.43 15.45 34.65C26.54 69 57.25 54.88 51.08 23.84C50.85 23.68 50.61 23.51 50.39 23.34C48.4017 21.8584 46.5929 20.1502 45 18.25C48.2526 12.0642 52.4232 6.40677 57.37 1.46997C62.3056 6.41404 66.4719 12.0703 69.73 18.25C68.1347 20.138 66.3336 21.8419 64.36 23.33L63.67 23.83C57.77 57.07 89.21 67.31 99.27 34.63C98.94 32.44 98.64 29.94 98.39 26.63C102.978 22.4523 108.008 18.7873 113.39 15.7C113.7 20.05 113.89 25.58 113.75 31V31Z" fill="#FFB401"/>
<path d="M114.7 23.59C114.63 21.32 114.58 17.59 114.18 14.33C108.246 17.6088 102.661 21.482 97.51 25.89C97.5979 28.8505 97.8684 31.8028 98.32 34.73C96 41.94 91.11 51.2 82.5 53.32C82.4139 45.4879 83.4237 37.6823 85.5 30.13C87.4781 29.2565 89.3641 28.1879 91.13 26.94C91.5526 22.2315 91.2729 17.4863 90.3 12.86C86.1328 15.2502 82.3725 18.2882 79.16 21.86L78.42 22.65C78.9248 24.4446 79.5943 26.1886 80.42 27.86C76.8648 34.7323 72.8559 41.3603 68.42 47.7C63.64 41.47 63.87 32.54 64.42 24.46C66.7349 22.7635 68.8132 20.7659 70.6 18.52C67.2526 11.6527 62.781 5.3931 57.37 0C51.992 5.38492 47.5419 11.6225 44.2 18.46C45.9823 20.7343 48.0685 22.7532 50.4 24.46C50.77 31.75 51.51 40.97 46.4 47.7C41.9677 41.358 37.9589 34.7303 34.4 27.86C35.2517 26.2001 35.9222 24.4534 36.4 22.65C36.28 22.52 36.25 22.47 35.67 21.86C32.4484 18.2978 28.6897 15.2611 24.53 12.86C23.86 16.91 23.05 21.86 23.7 26.94C25.4668 28.181 27.3488 29.2492 29.32 30.13C31.4148 37.6786 32.4249 45.4868 32.32 53.32C23.86 51.03 19.32 43.05 16.51 34.73C16.9591 31.8027 17.2263 28.8504 17.31 25.89C12.1343 21.4771 6.52193 17.6037 0.559998 14.33C0.038119 20.649 -0.142143 26.9916 0.019998 33.33C2.72461 35.4904 5.72088 37.2579 8.92 38.58C16.2359 52.9242 19.204 69.0926 17.46 85.1C17.4 85.64 17.46 85.19 17.3 86.31C24.7591 90.4519 32.9077 93.2065 41.35 94.44C51.9562 96.0465 62.7438 96.0465 73.35 94.44C81.7953 93.206 89.9471 90.4515 97.41 86.31C97.41 86 97.41 86.31 97.24 85.1C95.4983 69.0927 98.4663 52.925 105.78 38.58C108.976 37.2451 111.974 35.4787 114.69 33.33C114.72 30.67 114.81 27.15 114.7 23.59V23.59ZM80.91 28.72L81.37 27.72L80.93 26.8C80.2846 25.519 79.7622 24.1797 79.37 22.8C82.3907 19.4835 85.8373 16.5816 89.62 14.17C90.3937 18.1774 90.6658 22.2654 90.43 26.34C88.6791 27.6499 86.7406 28.6882 84.68 29.42C82.4867 37.2712 81.4458 45.3995 81.59 53.55C76.7952 54.2145 72.0066 52.2937 69 48.5C73.6424 42.3357 77.6337 35.7069 80.91 28.72V28.72ZM30.38 30.53C30.28 30.15 30.17 29.77 30.06 29.39C28.0018 28.6529 26.0641 27.6149 24.31 26.31C24.0903 22.2355 24.3622 18.1494 25.12 14.14C28.9027 16.5556 32.3522 19.457 35.38 22.77C34.9785 24.148 34.453 25.4868 33.81 26.77C33.67 27.08 33.52 27.38 33.38 27.69C36.7409 35.0461 40.8777 42.0223 45.72 48.5C43.18 51.81 37.81 54.44 33.16 53.5C33.2795 45.7527 32.3443 38.0251 30.38 30.53V30.53ZM109 36.13C108.17 36.57 107.32 36.98 106.47 37.36C106.06 37.53 105.66 37.71 105.25 37.87C97.4497 52.5871 94.291 69.3221 96.19 85.87C88.5416 89.8505 80.2574 92.4664 71.71 93.6C62.1679 94.6334 52.5421 94.6334 43 93.6C34.453 92.4882 26.1674 89.8854 18.52 85.91C20.4228 69.362 17.2639 52.6259 9.46 37.91L8.25 37.4C5.74626 36.2549 3.35289 34.8825 1.1 33.3C0.790728 27.4511 0.870905 21.5882 1.34 15.75C6.72528 18.8329 11.7555 22.4982 16.34 26.68C16.16 28.84 15.95 31.46 15.45 34.68C26.54 69 57.25 54.88 51.08 23.84C50.85 23.68 50.61 23.51 50.39 23.34C48.4017 21.8584 46.5929 20.1503 45 18.25C48.2526 12.0643 52.4232 6.4068 57.37 1.47C62.3056 6.41407 66.4719 12.0703 69.73 18.25C68.1347 20.138 66.3336 21.8419 64.36 23.33L63.67 23.83C57.77 57.07 89.21 67.31 99.27 34.63C98.94 32.44 98.64 29.94 98.39 26.63C102.978 22.4523 108.008 18.7873 113.39 15.7C113.857 21.5383 113.937 27.4011 113.63 33.25C112.09 34.25 110.6 35.28 109 36.13V36.13Z" fill="#B06305"/>
<path opacity="0.4" d="M112.29 17.66C112.04 18.15 96.12 48.93 94.14 55.78C92.16 62.63 90.87 84.45 90.69 85.9C90.51 87.35 75.93 93.37 57.43 92.84C38.92 93.37 24.33 87.26 24.16 85.9C23.99 84.54 22.71 62.67 20.71 55.78C18.71 48.89 2.53 17.66 2.53 17.66L14.69 27.46L13.78 36.17C14.78 37.44 22.86 52.81 25.1 54.39C48.62 67 59.09 38.32 52.81 23.47C42 15.26 51.07 12.52 57.4 2.56C67.75 16.44 70.78 16 62 23.47C54.39 44.69 71.52 66.25 90.3 53.86C91.66 52.86 100.89 36.21 101.03 36.17L100.12 27.46L112.27 17.67L112.29 17.66Z" fill="#FFD673"/>
<path d="M53.72 23.47C55.07 26.47 56.32 34.01 54.32 39.09C55.32 31.67 52.81 23.47 52.81 23.47C42 15.26 51.07 12.52 57.4 2.56C48.16 16.55 47 15.14 53.72 23.47V23.47Z" fill="#FFD673"/>
<path d="M24.69 54C20.64 52.7 13 36.73 12.88 36.72C15.09 23.92 9.35 24.33 2.71 17.81L14.71 27.46L13.8 36.17C14.59 37.26 22.4 51.74 24.69 54Z" fill="#FFD673"/>
<path d="M100.13 27.46L112.28 17.67C111.94 18.11 100.91 27.88 101.42 28.23C102.72 38.11 99.18 40.31 93.94 48.3C96.94 43.23 101.04 36.17 101.04 36.17L100.13 27.46Z" fill="#FFD673"/>
<path opacity="0.4" d="M26.58 60.49C24.95 63.76 25.49 81.73 27.12 84.49C28.75 87.25 54.35 92.39 56.8 88.58C59.25 84.77 58.16 48.83 57.34 46.92C56.52 45.01 51.34 57.81 43.19 60.53C35.04 63.25 26.58 60.49 26.58 60.49V60.49Z" fill="#FFD673"/>
<path opacity="0.3" d="M22.27 87.75C21.27 87.3 20.34 86.86 18.56 85.91C20.4628 69.362 17.3039 52.6259 9.5 37.91L8.29 37.4C5.78626 36.2549 3.39289 34.8825 1.14 33.3C0.897091 29.5784 0.85036 25.8465 0.999999 22.12C0.879999 32.27 7 34.49 10.52 37.35C24.07 58 20 81.86 22.27 87.75V87.75Z" fill="#CA8F05"/>
<path opacity="0.3" d="M113.75 31C113.75 31.74 113.67 32.49 113.61 33.25C111.357 34.8328 108.964 36.2053 106.46 37.35C106.05 37.52 105.65 37.7 105.24 37.86C97.4397 52.5771 94.281 69.3121 96.18 85.86C95.46 86.26 93.9 87.07 92.31 87.78C93.83 60.49 97.31 47.33 104.09 37.3C108.98 34.38 114.09 29.83 113.67 21.06C113.78 23.44 113.84 27.65 113.75 31V31Z" fill="#CA8F05"/>
<path opacity="0.4" d="M41.31 42.16C42.71 44.33 44.19 46.44 45.72 48.5C43.18 51.81 37.81 54.44 33.16 53.5C33.211 50.5832 33.1076 47.6658 32.85 44.76C36.64 48.59 40.14 46 41.31 42.16V42.16Z" fill="#CA8F05"/>
<path opacity="0.4" d="M81.6 49.67V53.52C76.8075 54.1952 72.0152 52.2858 69 48.5C70.65 46.29 72.23 44.01 73.73 41.68C73.58 45.76 78.04 50.68 81.8 45.6C81.71 47 81.64 48.31 81.6 49.67V49.67Z" fill="#CA8F05"/>
</g>
<defs>
<clipPath id="clip0_1_2606">
<rect width="115" height="96" fill="white"/>
</clipPath>
</defs>
</svg>
