<svg width="138" height="68" viewBox="0 0 138 68" fill="none" xmlns="http://www.w3.org/2000/svg">
<g clip-path="url(#clip0_1_794)">
<path d="M107.49 42.38C103.82 40.38 101.49 6.92 101.49 6.92C93.57 25.94 82 36 82 36C74.24 27.87 68.54 3.43 68.54 3.43C68.54 3.43 62.85 27.87 55.13 36C55.13 36 43.51 26 35.56 7C35.56 7 33.27 40.44 29.56 42.46C29.56 42.46 8.07 30.89 2.56 17.84C2.56 17.84 8.26 44.84 19.1 54.4H118C128.84 44.85 134.54 17.84 134.54 17.84C129 30.81 107.49 42.38 107.49 42.38Z" fill="#FFCC01"/>
<path d="M19.17 54.31H117.95V56.49H19.17V54.31Z" fill="#FFCC01"/>
<path d="M19.17 65.4H117.95V67.58H19.17V65.4Z" fill="#FFCC01"/>
<path d="M20.42 56.48H116.75V65.42H20.42V56.48Z" fill="#FFCC01"/>
<path d="M20.42 56.48H116.75V58.01H20.42V56.48Z" fill="#F1A919"/>
<path d="M20.42 63.87H116.75V65.4H20.42V63.87Z" fill="#F1A919"/>
<path d="M5.14999 17.77C5.06537 19.1245 3.94214 20.1798 2.58499 20.1798C1.22784 20.1798 0.104605 19.1245 0.019989 17.77C0.104605 16.4155 1.22784 15.3602 2.58499 15.3602C3.94214 15.3602 5.06537 16.4155 5.14999 17.77Z" fill="#FFCC01"/>
<path d="M2.63 19.39C1.35149 19.3877 0.269092 18.4459 0.0900021 17.18C-0.819998 20.28 5.21 21.86 5.09 17.42C4.81928 18.5634 3.80494 19.3757 2.63 19.39V19.39Z" fill="#F1A919"/>
<path d="M38.06 7.08C37.9754 8.43451 36.8521 9.48977 35.495 9.48977C34.1378 9.48977 33.0146 8.43451 32.93 7.08C33.0146 5.72549 34.1378 4.67023 35.495 4.67023C36.8521 4.67023 37.9754 5.72549 38.06 7.08Z" fill="#FFCC01"/>
<path d="M35.53 8.69C34.2537 8.68703 33.1745 7.74436 33 6.48C32.09 9.59 38.12 11.16 38 6.73C37.7245 7.87303 36.7057 8.68141 35.53 8.69Z" fill="#F1A919"/>
<path d="M71.11 3.43C71.11 6.11 66.47 7.2 65.97 3.43C65.97 2.01063 67.1206 0.860001 68.54 0.860001C69.9594 0.860001 71.11 2.01063 71.11 3.43V3.43Z" fill="#FFCC01"/>
<path d="M68.58 5.05C67.302 5.04201 66.224 4.09614 66.05 2.83C65.14 5.94 71.16 7.51 71.05 3.08C70.7752 4.22496 69.7574 5.03671 68.58 5.05Z" fill="#F1A919"/>
<path d="M104.06 7.08C103.975 8.43451 102.852 9.48977 101.495 9.48977C100.138 9.48977 99.0146 8.43451 98.93 7.08C99.0146 5.72549 100.138 4.67023 101.495 4.67023C102.852 4.67023 103.975 5.72549 104.06 7.08Z" fill="#FFCC01"/>
<path d="M101.54 8.69C100.258 8.69642 99.1709 7.75035 99 6.48C98.08 9.59 104.11 11.16 104 6.73C103.725 7.86945 102.712 8.67685 101.54 8.69Z" fill="#F1A919"/>
<path d="M137.07 17.91C137.07 20.59 132.43 21.68 131.93 17.91C131.93 16.4906 133.081 15.34 134.5 15.34C135.919 15.34 137.07 16.4906 137.07 17.91Z" fill="#FFCC01"/>
<path d="M134.54 19.53C133.26 19.532 132.175 18.5881 132 17.32C131.08 20.42 137.11 21.99 137 17.56C136.726 18.7014 135.714 19.5122 134.54 19.53V19.53Z" fill="#F1A919"/>
<path d="M2.60001 17.83C2.91001 19.26 8.60001 45.02 19.11 54.31H28.27C8.92001 41.26 2.91001 19 2.60001 17.83V17.83Z" fill="#F1A919"/>
<path d="M36 7.88L35.58 6.88C35.58 6.88 33.29 40.32 29.58 42.34L34.42 48.82C39.76 38.92 36.73 13.53 36 7.88V7.88Z" fill="#F1A919"/>
<path d="M55.13 36C56 43 61.55 48 61.55 48C68.55 39.1 68.55 3.4 68.55 3.4C68.55 3.4 62.85 27.87 55.13 36V36Z" fill="#F1A919"/>
<path d="M101.5 7.08C93.52 26 82 36 82 36V45.87C96.73 35.16 101.5 7.08 101.5 7.08V7.08Z" fill="#F1A919"/>
<path d="M106.91 50C126.56 39.84 133.53 20.82 134.4 18.24C134.4 18.09 134.46 17.98 134.47 17.9C128.89 30.9 107.47 42.42 107.47 42.42C105.2 48 106.91 50 106.91 50Z" fill="#F1A919"/>
<path d="M27.53 42.58C14.53 34.89 4.37002 24.93 6.53002 24.58C7.83002 27.79 17.65 34.77 27.53 42.58Z" fill="white"/>
<path d="M53.34 35.5C45.78 29.45 36.12 13.88 37.17 11.5C38.28 15.65 47.47 29 53.34 35.5Z" fill="white"/>
<path d="M80.8 36.38C73.8 29.1 67.87 10.27 69.42 7.85C69.65 12.7 75.33 28.58 80.8 36.38Z" fill="white"/>
<path d="M106.3 43.26C101.99 37.08 100.61 19.36 101.38 12.89C101.86 19.48 103.27 36.78 106.3 43.26Z" fill="white"/>
<path d="M118.7 52.06C124.05 44.74 130.37 29.42 131.96 25.47C131.48 29.72 125.61 44.72 118.7 52.06Z" fill="white"/>
<path d="M107 54.37C106.65 54 79.49 55 79.48 54C79.32 53.53 109.32 53 107 54.37Z" fill="white"/>
<path d="M115.78 54.37C115.57 54.37 114.9 54.37 113.35 54.37C111.28 54.46 109.98 54.37 111.05 53.7C112.13 54 117.2 53 115.78 54.37Z" fill="white"/>
</g>
<defs>
<clipPath id="clip0_1_794">
<rect width="138" height="68" fill="white"/>
</clipPath>
</defs>
</svg>
