<svg width="98" height="67" viewBox="0 0 98 67" fill="none" xmlns="http://www.w3.org/2000/svg">
<g clip-path="url(#clip0_1_1211)">
<path d="M18.82 26.48C18.82 26.48 24.05 20.07 36.46 21.38C36.46 21.38 46.07 22.83 47.97 24C58.7 17.32 73.62 18.6 79.62 26.48C98.87 23.48 80.51 51.36 79.97 54.68L16.36 55.82L8.72 30.76C8.72 30.76 11.36 22.52 18.82 26.48V26.48Z" fill="#769997"/>
<path d="M13.61 61C13.89 60.63 -2.61 5.00001 0.619998 7.47001C11.36 9.68001 10.67 19.66 9.42 23.24C18.06 19.95 23.06 19.62 20.93 30.55C21.38 33.18 27.27 37.85 22.43 40.05C20.11 40.67 17.87 37.67 17.37 35.4C17.93 18.08 2.87 33.99 19.63 43.28C26.0193 41.7746 32.4854 40.6163 39 39.81C41 38.49 46.33 26 37.4 29.5C40.92 38.25 32.88 39.44 28.79 35.7C40.58 36.11 17.86 12.1 40 18C40 18 34 6.72001 47.37 1.00001L48.5 0.480011L49.65 1.06001C63 6.82001 57.43 18 57.43 18C79.99 12.34 56.63 36.8 68.68 35.67C68.41 38.09 58.35 38.52 58.94 33.83C59.07 32.48 60.99 30.07 59.59 28.83C50.18 27.53 58 39.75 58.48 39.83C64.9912 40.6366 71.454 41.795 77.84 43.3C95.61 31.87 78.45 19.06 79.94 36.14C79.22 38.34 76.67 41 74.3 39.71C71 37.71 75.2 33.71 76.3 31.28C75.12 18.28 79.62 20.56 88.01 23.28C84.63 13 93 7.62001 97.51 7.51001C98 9.69001 83.86 61 83.86 61C62 53.86 18.63 59.33 15.4 61H13.61Z" fill="#BAD2D2"/>
<path d="M56.64 29.15C56.4054 29.2517 56.181 29.3756 55.97 29.52C55.7558 29.6611 55.5665 29.8368 55.41 30.04C53.83 32.86 56.59 36.77 58.64 39.68L58.5 39.61C61.1 39.95 62.93 40.08 65.83 40.61C69.89 41.3 73.23 41.92 77.93 42.95L77.6 43C80.6 40.48 84.15 38.17 85.6 33.64C85.67 33.31 85.69 32.98 85.73 32.64C85.7311 32.3058 85.7111 31.9718 85.67 31.64C85.6104 31.3021 85.5303 30.9682 85.43 30.64C85.01 29.64 83.85 27.84 82.02 28.39C79.14 28.64 82.87 43.9 73.48 39.5L73.28 39.28C73.16 39.12 73.17 39.1 73.1 39.01C72.9915 38.8521 72.9041 38.6806 72.84 38.5C71.84 36.06 75.01 33.38 76.07 30.58C76.25 28.36 75.07 26.03 76.07 23.15C76.1077 22.9569 76.1681 22.7689 76.25 22.59C76.331 22.395 76.435 22.2103 76.56 22.04C77.4107 21.1926 78.5809 20.7456 79.78 20.81C82.6806 21.0405 85.5175 21.7819 88.16 23L87.76 23.37C87.5242 22.4899 87.3505 21.5944 87.24 20.69L87.14 19.34V18L87.25 16.65C87.2989 16.1997 87.3724 15.7524 87.47 15.31L87.59 14.65L87.8 14C87.8722 13.7813 87.966 13.5702 88.08 13.37C88.1787 13.1633 88.2959 12.9658 88.43 12.78L88.83 12.22L89.28 11.71C89.5933 11.3792 89.9273 11.0686 90.28 10.78C92.0136 9.35458 94.0169 8.29342 96.17 7.66002C96.5955 7.52065 97.0427 7.45966 97.49 7.48002C97.0462 7.4762 96.6055 7.55388 96.19 7.71002C94.0863 8.4415 92.1366 9.55706 90.44 11C90.1103 11.2897 89.7997 11.6003 89.51 11.93L89.09 12.44L88.73 12.98C88.6105 13.1555 88.5099 13.3433 88.43 13.54C88.3213 13.7262 88.2341 13.9242 88.17 14.13L88 14.7L87.9 15.35C87.9 15.79 87.74 16.22 87.73 16.66L87.64 18V19.32L87.77 20.63C90.56 27.42 79.32 17.88 76.77 23.46C76.3054 25.5047 76.3847 27.6355 77 29.64C77.0198 29.8228 77.0198 30.0072 77 30.19V30.6V30.79C76.71 33.1 73.27 35.02 73.74 38.14C73.74 38.25 73.89 38.43 73.97 38.57L74.08 38.75L74.24 38.91C75.82 40.82 78.87 38.32 79.59 35.77C80.18 33.66 78.12 27.71 82.97 27.29C84.5862 27.6172 85.89 28.8095 86.36 30.39C86.4758 30.7567 86.566 31.1309 86.63 31.51C86.6785 31.8948 86.7019 32.2822 86.7 32.67C86.667 33.0493 86.6136 33.4265 86.54 33.8C85.54 37.61 81.72 40.99 78.15 43.6C74.79 43.17 69.9 41.76 65.81 41.12C65.15 40.94 59.61 40.12 58.53 40C57.03 37.63 53.59 33.73 55.46 30C55.624 29.7993 55.82 29.627 56.04 29.49C56.2318 29.3627 56.4323 29.2491 56.64 29.15V29.15Z" fill="#96BCBB"/>
<path d="M40.82 29.15C40.4108 29.011 39.9933 28.8974 39.57 28.81C39.3605 28.7588 39.1457 28.7319 38.93 28.73C38.7181 28.6957 38.502 28.6957 38.29 28.73C37.8681 28.7904 37.5309 29.1116 37.45 29.53C37.55 30.11 37.06 29.34 37.96 32C38.32 32.82 39.15 34.22 38.19 35.81C37.9243 36.1856 37.5838 36.5022 37.19 36.74C36.58 36.95 37.54 36.9 34.68 37.62C34.2431 37.6892 33.8022 37.7292 33.36 37.74C33.14 37.74 32.93 37.74 32.71 37.74L32.03 37.68C31.5799 37.6428 31.1364 37.5487 30.71 37.4C30.2681 37.2638 29.8523 37.0542 29.48 36.78C26.54 34.38 32.94 36.36 32.38 32.65C32.3339 32.0618 32.206 31.4829 32 30.93C31.29 27.27 26.12 20.78 31.55 17.48C31.8428 17.3294 32.1471 17.2023 32.46 17.1C34.3561 16.3983 36.4269 16.3213 38.37 16.88C39.0259 17.0629 39.6572 17.3249 40.25 17.66L39.61 18.24C38.9892 16.9301 38.5678 15.5346 38.36 14.1C38.2108 13.1474 38.1806 12.18 38.27 11.22C38.3034 10.7347 38.377 10.2531 38.49 9.78001C38.5821 9.30254 38.716 8.83407 38.89 8.38001C39.2475 7.47525 39.693 6.60776 40.22 5.79001L41.14 4.67001C41.4442 4.30873 41.7787 3.97418 42.14 3.67001C42.4842 3.33645 42.8554 3.03207 43.25 2.76001L44.51 2.00001C44.9077 1.73727 45.3257 1.50654 45.76 1.31001C46.62 0.820008 47.45 0.410008 48.3 8.43219e-06C48.54 -0.239992 50.7 1.05001 51.23 1.26001C51.6605 1.47671 52.0749 1.72401 52.47 2.00001L53.69 2.80001C54.0928 3.06932 54.471 3.37384 54.82 3.71001C55.1793 4.01635 55.5137 4.35073 55.82 4.71001L56.76 5.82001C57.04 6.21001 57.28 6.64001 57.54 7.05001C58.0296 7.89258 58.3935 8.80219 58.62 9.75001C58.7494 10.2184 58.8397 10.6967 58.89 11.18C58.9596 11.6469 58.9964 12.118 59 12.59C59.0238 13.0597 59.0238 13.5303 59 14C58.95 14.48 58.86 15 58.77 15.43C58.5702 16.3797 58.2685 17.3051 57.87 18.19L57.23 17.62C57.8199 17.279 58.452 17.0168 59.11 16.84C61.0488 16.2795 63.116 16.3531 65.01 17.05C65.4831 17.2262 65.9441 17.4334 66.39 17.67C66.5352 17.7516 66.6755 17.8417 66.81 17.94C70.91 21.62 65.39 28.15 65.1 33.14L65.17 33.55C65.3 35.08 67.43 35.18 69 35.62C68.89 36 68.72 36.17 68 36.81C67.6342 37.0888 67.2208 37.2989 66.78 37.43C66.3533 37.5777 65.9099 37.6717 65.46 37.71L64.79 37.77C64.57 37.77 64.35 37.77 64.13 37.77C63.6878 37.7602 63.2467 37.7202 62.81 37.65C62.23 37.4 62.98 38.02 60.3 36.77C59.9019 36.5379 59.5603 36.2203 59.3 35.84C58.88 34.48 58.36 34.41 59.53 32.03C59.58 31.43 59.87 32.34 60.03 29.57C59.9541 29.1508 59.621 28.8256 59.2 28.76C58.9881 28.7257 58.772 28.7257 58.56 28.76C58.3443 28.7614 58.1294 28.7882 57.92 28.84C57.4937 28.9287 57.073 29.0422 56.66 29.18C57.0689 29.0292 57.4863 28.9023 57.91 28.8C58.1221 28.7416 58.3402 28.7081 58.56 28.7C58.779 28.6701 59.001 28.6701 59.22 28.7C59.6768 28.7736 60.0462 29.1115 60.16 29.56C60.08 30.17 60.56 29.37 59.71 32.14C59.0441 33.2182 58.9799 34.5632 59.54 35.7C59.7806 36.0359 60.091 36.3156 60.45 36.52C61.03 36.71 60.11 36.69 62.85 37.29C63.2701 37.3548 63.6949 37.3849 64.12 37.38H64.76L65.38 37.3C65.7899 37.245 66.1924 37.1444 66.58 37C66.9677 36.8633 67.3319 36.6677 67.66 36.42C67.9802 36.1984 68.2467 35.908 68.44 35.57L68.72 35.94C67.57 35.82 65.4 36.27 64.54 33.7L64.45 33.17V32.69C64.4797 32.0094 64.6042 31.3362 64.82 30.69C65.41 27.28 69.49 22.39 66.3 18.63C66.1742 18.5434 66.044 18.4632 65.91 18.39C65.5136 18.1777 65.1025 17.9939 64.68 17.84C63.5343 17.4266 62.3151 17.2563 61.1 17.34C59.22 17.03 55.64 20.73 57.84 15.23C57.92 14.79 58.01 14.34 58.05 13.89C58.0952 13.4448 58.1152 12.9974 58.11 12.55C58.1014 12.1181 58.0647 11.6872 58 11.26C57.9588 10.8123 57.8717 10.3699 57.74 9.94001C57.53 9.07198 57.193 8.23968 56.74 7.47001C56.49 7.10001 56.28 6.71001 56.02 6.34001L55.14 5.34001C54.831 5.01096 54.4966 4.70669 54.14 4.43001C53.8359 4.1169 53.5009 3.83545 53.14 3.59001L52 2.83001C51.6098 2.58379 51.202 2.36654 50.78 2.18001L48.28 0.930008H48.71L47.44 1.52001L46.22 2.12001C45.8065 2.31085 45.4057 2.52796 45.02 2.77001L43.89 3.52001C43.5373 3.7797 43.2031 4.06372 42.89 4.37001C42.53 4.65006 42.1954 4.96126 41.89 5.30001L41.04 6.30001L40.35 7.44001C40.1406 7.84813 39.9569 8.26895 39.8 8.70001C39.635 9.12039 39.5111 9.55575 39.43 10C39.3188 10.4325 39.2485 10.8744 39.22 11.32C39.22 11.97 39.05 11.02 39.29 14C38.79 14.64 41.38 17.83 39.8 18.43C38.7392 17.8605 37.5707 17.5198 36.37 17.43C35.1583 17.3506 33.9432 17.5207 32.8 17.93C32.5039 18.026 32.2162 18.1464 31.94 18.29C31.6719 18.4015 31.417 18.5424 31.18 18.71C28.18 21.31 31.56 27.02 32.65 30.78C32.8446 31.3999 32.9621 32.0414 33 32.69C33.08 34.18 31.92 36.32 28.73 35.96L29.01 35.59C29.2033 35.928 29.4699 36.2184 29.79 36.44C30.1119 36.6972 30.4778 36.8937 30.87 37.02C31.2586 37.1685 31.6657 37.2627 32.08 37.3L32.69 37.38H33.34C33.768 37.3842 34.1958 37.3575 34.62 37.3C35.19 37.08 34.46 37.64 37.02 36.52C37.379 36.3156 37.6894 36.0359 37.93 35.7C39.02 33.81 37.74 34.05 37.31 29.56C37.419 29.1087 37.7908 28.7685 38.25 28.7C38.469 28.67 38.691 28.67 38.91 28.7C39.1298 28.7081 39.3479 28.7416 39.56 28.8C39.9869 28.8903 40.4077 29.0072 40.82 29.15V29.15Z" fill="#96BCBB"/>
<path d="M19.63 43.28C25.9357 41.3648 32.4022 40.0259 38.95 39.28L38.61 39.46C40 37 43.4 34.16 42 30.09C41.8567 29.8865 41.685 29.7047 41.49 29.55C41.281 29.3993 41.0603 29.2655 40.83 29.15C44.96 30.67 41.83 37.33 39.08 40.28C36.9 40.61 34.88 40.82 31.77 41.28C28.15 41.91 24.28 42.55 19.63 43.28V43.28Z" fill="#96BCBB"/>
<path d="M0 7.43999C0.446815 7.41196 0.894868 7.46966 1.32 7.60999C3.47423 8.25324 5.48425 9.30578 7.24 10.71C7.74719 11.162 8.22799 11.6428 8.68 12.15L9.08 12.71C9.21554 12.8948 9.33277 13.0924 9.43 13.3C9.54893 13.499 9.64615 13.7102 9.72 13.93L9.94 14.61L10.07 15.27C10.13 15.71 10.26 16.13 10.28 16.59L10.39 18V19.36L10.29 20.71C10.1878 21.6182 10.0173 22.5174 9.78 23.4L9.29 22.94C11.9528 21.7545 14.8024 21.0438 17.71 20.84C18.61 21.19 18.96 20.34 20.97 22.11C21.0994 22.2827 21.2069 22.4708 21.29 22.67L21.35 22.82C21.3525 22.8533 21.3525 22.8867 21.35 22.92C21.44 23.24 21.53 23.58 21.71 24.28C21.77 24.64 21.82 25.03 21.87 25.41C21.9271 26.1613 21.8935 26.9167 21.77 27.66C21.65 28.38 21.45 29.1 21.4 29.73C21.3802 29.886 21.3802 30.044 21.4 30.2V30.5C21.4 30.5 21.4 30.56 21.4 30.5V30.67C21.4622 30.9776 21.5701 31.2742 21.72 31.55C22.59 33.78 26.42 36.11 23.94 39.62C23.6565 39.9303 23.3173 40.1847 22.94 40.37C21.7544 40.8036 20.4275 40.571 19.46 39.76C18.2686 38.7933 17.4086 37.4788 17 36C17 35.8 16.92 35.61 16.9 35.4C16.88 35.19 16.9 35.05 16.9 34.85C16.61 33.3 18.06 29.94 15.47 28.38C14.34 27.94 12.65 28.68 11.9 30.69C11.7903 31.0169 11.7035 31.3511 11.64 31.69C11.5971 32.0217 11.5738 32.3556 11.57 32.69C11.57 33.02 11.63 33.37 11.69 33.69C12.58 37.36 16.23 40.63 19.63 43.32C16.4 40.7 11.69 37.88 11 32.66C10.9942 32.2791 11.0143 31.8982 11.06 31.52C11.45 30.52 11.69 27.92 14.56 27.41H14.9H15.17C15.41 27.47 15.56 27.54 15.75 27.6C18.51 28.84 17.63 32.17 17.87 35.7C18.2503 37.006 19.0302 38.16 20.1 39C20.69 39.2 21.05 40 22.6 39.5C22.8688 39.3626 23.107 39.1721 23.3 38.94C25.22 36.37 21.46 34.19 20.5 30.85V30.72C20.5 30.62 20.5 30.72 20.5 30.64C20.5 30.56 20.5 30.64 20.5 30.26C20.48 30.0638 20.48 29.8662 20.5 29.67C20.58 28.88 20.78 28.22 20.9 27.53C21.012 26.8696 21.0456 26.1983 21 25.53L20.88 24.53L20.62 23.53C19.19 20.15 13.47 22.4 9.62 23.68C8.73 23.4 9.43 22.63 9.62 20.68L9.75 19.37V18.06L9.68 16.76C9.68 16.33 9.55 15.89 9.5 15.45L9.39 14.79L9.21 14.2C9.1642 13.9666 9.09381 13.7386 9 13.52C8.9201 13.3232 8.81954 13.1355 8.7 12.96L8.34 12.42L7.93 11.91C7.63739 11.5894 7.3269 11.2856 7 11C5.33032 9.54309 3.39484 8.42255 1.3 7.69999C0.886432 7.53382 0.445668 7.44567 0 7.43999H0Z" fill="#96BCBB"/>
<path d="M48.94 55.29C25.46 56.55 11.36 55.08 13.61 66.29C14.61 58.4 85.05 59.2 84.27 66.29C86.68 55 71.92 56.6 48.94 55.29V55.29Z" fill="#D5E2E0"/>
<path d="M84.27 61C76.79 52.61 13.7 55.12 13.61 61C21 51.48 83.06 53.88 84.27 61Z" fill="#96BCBB"/>
<path d="M13.61 66.31C20.98 56.76 83.06 59.15 84.27 66.31C76.79 57.93 13.7 60.43 13.61 66.31Z" fill="#96BCBB"/>
<path d="M28.52 44.79C27.52 45.55 28.39 48.46 30.52 46.95C31.66 45.87 30 43.82 28.52 44.79V44.79Z" fill="#B22832"/>
<path d="M23.75 48.4C23.2248 48.5572 22.8234 48.9826 22.6969 49.5161C22.5705 50.0495 22.7382 50.6098 23.1369 50.9861C23.5357 51.3623 24.1048 51.4972 24.63 51.34C25.4419 51.097 25.903 50.2419 25.66 49.43C25.417 48.6182 24.5619 48.157 23.75 48.4V48.4Z" fill="#B22832"/>
<path d="M28.84 51C26.42 53.73 32.09 55.41 31.38 51.52C30.68 50.33 30.22 50.28 28.84 51Z" fill="#B22832"/>
<path d="M34.35 46.72C33.7007 47.1606 33.4605 48.0033 33.78 48.72C36 51.71 38 45.6 34.35 46.72Z" fill="#B22832"/>
<path d="M50.19 11.26C47.05 15.39 48.27 9.14001 45.33 11.8C45.93 13.57 50.25 15.19 51.46 11.8C51.1252 11.4584 50.6683 11.2641 50.19 11.26V11.26Z" fill="#912A2D"/>
<path d="M46.72 11.06C50.12 15.18 48.34 9.99001 51.46 11.77C53.19 5.51001 43.56 5.77001 45.33 11.77C45.6272 11.2954 46.1613 11.0226 46.72 11.06V11.06Z" fill="#B22832"/>
<path d="M46.73 25.45C47.92 25.5 48.28 27.15 49.73 26.91C50.06 26.35 49.46 23.62 51.51 24.04C51.26 18.79 42.88 20.24 45.65 26.23C45.91 25.82 46.2 25.43 46.73 25.45Z" fill="#B22832"/>
<path d="M50.28 24.28C49.61 24.87 50.01 26.17 49.73 26.91C48.3 27.3 47.03 24.09 45.65 26.23C47 28.77 52.21 28 51.51 24C51.0788 23.8992 50.6251 24.0025 50.28 24.28V24.28Z" fill="#912A2D"/>
<path d="M35.21 22.45C34.68 22.3 33.45 23.36 32.21 22.9C32.33 24.34 34.52 25.99 36.56 23.77C36.24 23.2 35.93 22.52 35.21 22.45Z" fill="#912A2D"/>
<path d="M37 22.05C36.73 19.91 32.5 18.58 32.28 22.9C33.63 23.9 35.4 21.02 36.63 23.77C36.9675 23.2646 37.0999 22.6495 37 22.05V22.05Z" fill="#B22832"/>
<path d="M48.37 46.42C47.37 46.86 45.75 48.62 44.74 46.25C44.01 49.48 48.85 51.73 51.29 48.76C50.44 47.52 49.71 46.08 48.37 46.42V46.42Z" fill="#912A2D"/>
<path d="M51.89 45.7C50.82 42.03 45.7 41.7 44.74 46.25C46.13 49.44 49.46 43.98 51.29 48.76C51.8733 47.854 52.088 46.7592 51.89 45.7V45.7Z" fill="#B22832"/>
<path d="M69 44.79C70.56 50.92 63.17 44.38 68.84 44.66L69 44.79Z" fill="#B22832"/>
<path d="M73.71 48.4C74.5219 48.6403 74.9852 49.4932 74.745 50.305C74.5048 51.1169 73.6519 51.5803 72.84 51.34C72.3148 51.1846 71.9124 50.7608 71.7844 50.2283C71.6564 49.6958 71.8223 49.1354 72.2194 48.7583C72.6166 48.3812 73.1848 48.2446 73.71 48.4V48.4Z" fill="#B22832"/>
<path d="M68.62 51C71.05 53.73 65.37 55.41 66.09 51.52C66.79 50.33 67.24 50.28 68.62 51Z" fill="#B22832"/>
<path d="M63.12 46.72C63.7728 47.1585 64.0102 48.0063 63.68 48.72C61.48 51.71 59.51 45.61 63.12 46.72Z" fill="#B22832"/>
<path d="M62.26 22.45C62.79 22.3 64.01 23.36 65.26 22.9C65.14 24.34 62.95 25.99 60.9 23.77C61.22 23.2 61.53 22.52 62.26 22.45V22.45Z" fill="#912A2D"/>
<path d="M60.5 22.05C60.77 19.91 64.99 18.58 65.22 22.9C63.87 23.9 62.1 21.02 60.86 23.77C60.5305 23.2613 60.4022 22.6482 60.5 22.05V22.05Z" fill="#B22832"/>
</g>
<defs>
<clipPath id="clip0_1_1211">
<rect width="98" height="67" fill="white"/>
</clipPath>
</defs>
</svg>
