<svg width="99" height="78" viewBox="0 0 99 78" fill="none" xmlns="http://www.w3.org/2000/svg">
<g clip-path="url(#clip0_1_464)">
<mask id="mask0_1_464" style="mask-type:alpha" maskUnits="userSpaceOnUse" x="0" y="0" width="99" height="78">
<path fill-rule="evenodd" clip-rule="evenodd" d="M0 0.362H98.7V78H0V0.362Z" fill="white"/>
</mask>
<g mask="url(#mask0_1_464)">
<path fill-rule="evenodd" clip-rule="evenodd" d="M93.905 25.8578C86.425 23.1038 74.429 40.2398 68.757 44.4838C52.523 -21.1602 45.947 -3.0622 28.831 42.8158C23.861 30.3318 0.644999 6.1198 2.107 43.8678C4.097 66.5178 10.273 72.0098 23.745 72.8158C39.689 74.9678 58.743 76.6838 77.447 75.3498C94.871 78.9018 100.911 36.8898 93.905 25.8578" fill="#FFD05E"/>
<path fill-rule="evenodd" clip-rule="evenodd" d="M96.3288 45.7094C94.7488 59.9714 89.6888 75.1834 81.0108 74.8794C56.3988 77.2254 17.0628 74.7294 9.66679 68.1394C-8.5912 35.8954 5.9908 1.1294 29.7968 43.3574C46.8388 -17.2506 56.6028 -6.8206 68.7568 44.4854C82.5808 30.9694 99.5228 9.3214 96.3288 45.7094V45.7094ZM94.9608 24.2734C87.2588 20.3434 74.0428 36.4314 69.5768 41.3634C58.7668 -15.1246 41.6068 -11.8746 29.3388 39.6514C4.7548 -1.2386 -7.67121 35.3274 5.0768 64.3014C8.5448 79.8054 62.0408 78.4674 83.0568 76.4174C95.6468 76.5114 103.869 34.5614 94.9608 24.2734" fill="#C27E35"/>
<path fill-rule="evenodd" clip-rule="evenodd" d="M68.5358 69.1372C41.6918 72.1132 -1.7142 57.4472 7.7398 23.7492C-5.0662 32.1112 5.6058 72.3292 14.5678 71.0352C31.0918 73.6672 90.1418 84.8632 92.4038 63.3632C84.5598 65.8892 76.7118 68.3432 68.5358 69.1372Z" fill="#FBB144"/>
<path fill-rule="evenodd" clip-rule="evenodd" d="M54.901 6.7894C47.653 1.4134 54.085 25.6574 56.317 28.2034C63.757 27.4234 56.485 11.3994 54.901 6.7894Z" fill="#FFEA8B"/>
<path fill-rule="evenodd" clip-rule="evenodd" d="M62.233 34.852C59.503 29.714 53.995 39.01 61.185 39.216C62.081 38.542 62.733 37.224 62.233 34.852Z" fill="#FFEA8B"/>
<path fill-rule="evenodd" clip-rule="evenodd" d="M93.4128 33.0844C90.5408 26.0144 85.6528 40.7084 92.1488 39.5084C93.3068 38.5044 93.8308 35.9324 93.4128 33.0844Z" fill="#FFEA8B"/>
</g>
</g>
<defs>
<clipPath id="clip0_1_464">
<rect width="99" height="78" fill="white"/>
</clipPath>
</defs>
</svg>
