<svg width="89" height="61" viewBox="0 0 89 61" fill="none" xmlns="http://www.w3.org/2000/svg">
<path d="M13.6569 60.5009C-10.4038 51.7576 26.1292 40.8207 44.6105 41.862C69.8681 41.671 95.2607 54.0374 74.4163 60.5009C74.4163 60.5009 86.5571 62.6082 88.3739 55.5716C90.8966 46.6188 64.2642 34.8008 40.1973 36.2611C7.07705 36.6801 -15.9586 60.2113 13.6569 60.5009Z" fill="#E5A1B6"/>
<path d="M80.4069 22.7117C68.0758 18.7806 68.7448 35.571 63.0918 23.753C54.7135 4.42404 43.5057 -12.5142 29.6401 15.1268C26.5711 21.159 24.4474 26.8338 22.8024 27.7458C19.5739 29.3909 15.9648 18.5033 7.59877 22.9767C-0.472607 27.4993 0.810221 52.725 0.0736694 54.2222C5.68988 41.0672 27.013 36.9081 44.2668 36.6739C65.6759 36.5137 84.2247 43.9077 88.3862 53.5321C87.9136 49.1327 88.4292 26.039 80.4069 22.7117V22.7117Z" fill="#FFBBCE"/>
<path d="M48.7965 21.2453C48.4099 33.396 39.9456 33.0201 39.2828 22.0771C39.0495 8.84192 48.637 9.20546 48.7965 21.2453Z" fill="#6B61D4"/>
<path d="M13.3807 34.2956C13.2211 41.9483 7.69699 42.3057 7.07092 35.1151C6.66582 26.1745 13.2764 26.1622 13.3807 34.2956Z" fill="#6B61D4"/>
<path d="M81.7511 34.2956C81.5915 41.9483 76.0674 42.3057 75.4413 35.1151C75.0362 26.1745 81.6345 26.1622 81.7511 34.2956Z" fill="#6B61D4"/>
<path d="M8.91228 30.5801C8.22483 31.5721 7.30414 36.2118 9.82069 34.4126C10.2012 33.5377 11.3122 28.7994 8.91841 30.5801H8.91228Z" fill="white"/>
<path d="M9.03503 37.5859C9.42591 37.5347 9.74564 37.2483 9.84061 36.8643C9.93557 36.4802 9.78637 36.077 9.46468 35.8483C8.26778 35.0596 7.5742 37.3764 9.03503 37.5859Z" fill="white"/>
<path d="M77.0188 30.5801C76.3313 31.5721 75.4168 36.2118 77.9272 34.4126C78.3077 33.5377 79.4187 28.7994 77.0188 30.5801Z" fill="white"/>
<path d="M77.1415 37.5859C77.5334 37.5368 77.8551 37.2512 77.9515 36.8667C78.0479 36.4823 77.8993 36.0778 77.5773 35.8483C76.3804 35.0596 75.6807 37.3764 77.1415 37.5859V37.5859Z" fill="white"/>
<path d="M44.0826 13.7897C40.5104 14.0423 39.0311 24.2028 42.3517 21.8922C42.6955 20.358 42.0203 17.881 43.2847 16.4207C44.3588 15.669 46.4457 14.184 44.0642 13.7897H44.0826Z" fill="white"/>
<path d="M41.8546 25.6015C42.2506 25.5588 42.5782 25.2729 42.6754 24.8851C42.7727 24.4974 42.619 24.0899 42.2904 23.8639C41.1241 23.0937 40.3937 25.4105 41.8546 25.6015Z" fill="white"/>
<path d="M35.9744 10.2468C36.3427 8.75565 39.9886 7.39394 39.2828 5.54545C37.4414 3.69697 31.7208 12.2678 35.9744 10.2468Z" fill="white"/>
<path d="M40.94 5.26202C41.3319 5.21294 41.6536 4.92735 41.75 4.54288C41.8464 4.15842 41.6978 3.75397 41.3758 3.52444C40.1789 2.75424 39.4792 5.07101 40.94 5.26202Z" fill="white"/>
<path d="M5.94766 30.3521C5.80035 29.5758 7.16297 28.3434 6.83766 27.1111C6.06428 26.458 5.52414 26.495 4.87352 27.7273C3.92214 28.824 3.95897 32.4348 5.94766 30.3521Z" fill="white"/>
<path d="M7.36551 26.2485C7.75741 26.1994 8.07909 25.9138 8.17551 25.5293C8.27194 25.1449 8.12333 24.7404 7.8013 24.5109C6.62282 23.7407 5.92309 26.0575 7.36551 26.2485Z" fill="white"/>
<path d="M71.3596 29.2061C71.6542 28.2941 75.8096 25.2626 72.5074 25.2195C71.0465 25.8788 67.8671 30.6787 71.3596 29.2061Z" fill="white"/>
<path d="M75.0485 25.5091C75.4394 25.458 75.7591 25.1716 75.8541 24.7875C75.949 24.4035 75.7998 24.0002 75.4781 23.7715C74.269 23.0013 73.5877 25.3181 75.0485 25.5091V25.5091Z" fill="white"/>
<path d="M46.5378 13.4816C49.8093 18.0227 47.213 33.8642 40.7436 27.8628C47.6426 37.3394 51.2947 17.6469 46.5378 13.4816Z" fill="#5252AF"/>
<path d="M11.7296 28.9596C13.571 31.6029 12.2575 41.9976 7.91794 38.4855C12.4907 45.2756 15.1975 31.7693 11.7296 28.9596V28.9596Z" fill="#5252AF"/>
<path d="M80.1 28.9596C81.9414 31.6029 80.6279 41.9976 76.2884 38.4855C80.8611 45.2756 83.5679 31.7693 80.1 28.9596V28.9596Z" fill="#5252AF"/>
</svg>
