<svg width="69" height="43" viewBox="0 0 69 43" fill="none" xmlns="http://www.w3.org/2000/svg">
<path d="M50.7 22C50.9182 23.3432 51.2528 24.6648 51.7 25.95C49.46 27 45.62 27.59 42.9 25.47C45.1454 22.5026 46.172 18.7894 45.77 15.09H45.84C46.0759 15.1179 46.3098 15.1613 46.54 15.22C46.4072 14.9395 46.2603 14.6658 46.1 14.4C45.2524 13.0715 44.1515 11.923 42.86 11.02C43.8087 10.6536 44.7768 10.3398 45.76 10.08C45.82 9.88999 45.76 10.08 45.96 9.48999C46.5893 7.82038 47.4953 6.26868 48.64 4.89999C49.8466 6.54743 50.67 8.4436 51.05 10.45C51.7376 10.6652 52.4065 10.9361 53.05 11.26C51.48 12.14 49.14 13.38 48.19 16C48.9374 15.6578 49.7229 15.406 50.53 15.25C50.2522 17.496 50.3095 19.7708 50.7 22V22Z" fill="#CA8F05"/>
<path d="M24.35 24C24.6556 24.5212 24.9894 25.0252 25.35 25.51C22.7204 27.2416 19.3626 27.425 16.56 25.99C17.7216 22.5401 18.1108 18.877 17.7 15.26C18.4948 15.4088 19.2676 15.6575 20 16C19.0435 13.8582 17.305 12.1627 15.14 11.26C15.7851 10.9395 16.4537 10.6687 17.14 10.45C17.5333 8.44421 18.3629 6.54947 19.57 4.89999C20.7231 6.28466 21.6419 7.84865 22.29 9.52999C22.38 9.76999 22.29 9.52999 22.48 10.12C23.4765 10.3444 24.4505 10.659 25.39 11.06C24.0981 11.9657 22.9944 13.1136 22.14 14.44C21.98 14.71 21.83 14.98 21.69 15.26C21.9206 15.2031 22.1543 15.1597 22.39 15.13H22.47C22.1068 18.2128 22.7674 21.3296 24.35 24V24Z" fill="#CA8F05"/>
<path d="M67.21 4.64C63.33 14.7 59.62 26 57.64 37.24C50.1385 40.2328 42.1724 41.8943 34.1 42.15C26.029 41.909 18.0638 40.2469 10.57 37.24C8.42343 26.0939 5.21893 15.1778 1 4.64C3.69171 6.40832 5.97575 8.72986 7.7 11.45C9.90702 10.7264 12.2971 10.7935 14.46 11.64C16.0947 12.2998 17.5238 13.3837 18.6 14.78C18.2537 14.684 17.8985 14.6237 17.54 14.6C7.54 15.32 11.54 28.16 21.19 27.6C29.27 28.03 31.66 15.29 23.06 14.37V14.02C24.7237 11.8501 27.0878 10.3236 29.75 9.7C30.3106 6.41693 31.8232 3.37084 34.1 0.940002C36.3817 3.36742 37.8951 6.41508 38.45 9.7C41.1018 10.317 43.4563 11.8372 45.11 14V14.35C35.16 16.16 39.86 29.59 49.47 27.35C57.47 26.5 59.85 13.52 49.57 14.72C50.6406 13.3224 52.067 12.2379 53.7 11.58C55.8692 10.7475 58.2576 10.6804 60.47 11.39C62.2118 8.68687 64.5095 6.38581 67.21 4.64V4.64Z" fill="#FFB401"/>
<path d="M67.51 3.89C64.6296 5.63479 62.1572 7.97757 60.26 10.76C58.0805 10.1927 55.7826 10.2762 53.65 11C52.959 10.5804 52.2205 10.2447 51.45 10C51.063 7.84117 50.1494 5.81117 48.79 4.09C47.2177 5.6758 45.9949 7.57315 45.2 9.66C44.1852 9.80016 43.2166 10.1732 42.37 10.75L42.29 10.69C41.2399 10.0355 40.0971 9.54324 38.9 9.23C38.3917 5.69846 36.6993 2.44417 34.1 0C31.5127 2.45187 29.8255 5.70293 29.31 9.23C28.1123 9.54133 26.9691 10.0337 25.92 10.69L25.84 10.75C24.9904 10.1718 24.0183 9.79867 23 9.66C22.1855 7.58315 20.965 5.68957 19.41 4.09C18.046 5.80834 17.1318 7.83956 16.75 10C15.9827 10.2448 15.2475 10.5805 14.56 11C12.4242 10.2748 10.1227 10.1913 7.94 10.76C5.88816 7.76047 3.17076 5.27581 0 3.5C4.31 13.7 7.57 25.83 9.81 37.35L10.38 37.63C12.6372 38.7027 14.9783 39.589 17.38 40.28C22.8147 41.8771 28.4368 42.7479 34.1 42.87C39.7727 42.7448 45.4044 41.874 50.85 40.28C53.2491 39.5811 55.5896 38.6951 57.85 37.63C58.04 37.54 58.23 37.45 58.41 37.35C60.67 26 63.51 14.75 68.21 3.5C68 3.62 67.74 3.75 67.51 3.89ZM45 10.3C45.249 10.2229 45.5029 10.1628 45.76 10.12C45.82 9.93 45.76 10.12 45.96 9.53C46.5852 7.8463 47.4914 6.28078 48.64 4.9C49.8466 6.54743 50.67 8.44361 51.05 10.45C51.7376 10.6652 52.4065 10.9361 53.05 11.26C51.48 12.14 49.14 13.38 48.19 16C48.9374 15.6578 49.7229 15.406 50.53 15.25C50.1149 18.8736 50.5041 22.5441 51.67 26C49.43 27.05 45.59 27.64 42.87 25.52C45.1144 22.5521 46.141 18.8393 45.74 15.14H45.81C46.0459 15.1679 46.2798 15.2113 46.51 15.27C46.3772 14.9895 46.2303 14.7158 46.07 14.45C45.2224 13.1215 44.1215 11.973 42.83 11.07C43.54 10.84 44.23 10.51 45 10.3V10.3ZM50.93 17.61C50.93 16.8 51.02 16 51.07 15.2C56.88 15.2 57.33 23.2 52.29 25.66C51.3798 23.0729 50.9067 20.3524 50.89 17.61H50.93ZM42.4 25.08C39 22.44 39.88 15.34 45.26 15.08C45.6004 18.6609 44.5634 22.2369 42.36 25.08H42.4ZM16.7 10.6L17.15 10.45C17.5403 8.44504 18.3665 6.55036 19.57 4.9C20.7231 6.28466 21.6419 7.84865 22.29 9.53C22.38 9.77 22.29 9.53 22.48 10.12C23.4765 10.3444 24.4505 10.659 25.39 11.06C24.0981 11.9657 22.9944 13.1136 22.14 14.44C21.98 14.71 21.83 14.98 21.69 15.26C21.9206 15.2031 22.1543 15.1597 22.39 15.13H22.47C22.0657 18.8249 23.0888 22.5347 25.33 25.5C22.7004 27.2316 19.3426 27.415 16.54 25.98C17.6912 22.5278 18.0801 18.867 17.68 15.25C18.4821 15.4004 19.2617 15.6524 20 16C19.0435 13.8582 17.305 12.1627 15.14 11.26C15.6469 11.0102 16.1677 10.7898 16.7 10.6V10.6ZM23 15.11C27.75 15.19 29.7 21.71 25.85 25.11C23.6662 22.2587 22.6474 18.6841 23 15.11V15.11ZM16 25.66C11.5 23.45 10.71 15.57 17.22 15.2C17.565 18.7338 17.149 22.3005 16 25.66V25.66ZM65.39 9.54C62.0058 18.5303 59.4127 27.7988 57.64 37.24C50.1375 40.2295 42.172 41.8909 34.1 42.15C26.0291 41.9086 18.0639 40.2465 10.57 37.24C8.42343 26.0939 5.21893 15.1778 1 4.64C3.69171 6.40831 5.97575 8.72986 7.7 11.45C9.91061 10.7515 12.2921 10.8184 14.46 11.64C16.0947 12.2998 17.5238 13.3837 18.6 14.78C9.73 13.52 9.35 25.78 18.7 27.41C28.25 30.21 32.89 15.94 23.06 14.41V14.06C24.7173 11.8752 27.0821 10.334 29.75 9.7C30.3106 6.41693 31.8232 3.37084 34.1 0.94C36.3817 3.36742 37.8951 6.41507 38.45 9.7C41.1018 10.317 43.4563 11.8372 45.11 14V14.35C35.11 16.2 39.87 29.57 49.47 27.35C57.63 26.57 59.6 13.35 49.57 14.72C50.6406 13.3224 52.067 12.2379 53.7 11.58C55.8726 10.7646 58.2551 10.6977 60.47 11.39C62.1935 8.66928 64.4777 6.3476 67.17 4.58C66.57 6.26 66 7.91 65.39 9.54V9.54Z" fill="#B06305"/>
<path d="M45.15 14.39H44.81C42.6034 12.6959 40.1521 11.3471 37.54 10.39C37.54 10.39 36.44 3.98 34.25 2.39C32.25 4.11 30.96 10.39 30.96 10.39C28.0559 11.0705 25.3507 12.4196 23.06 14.33V13.98C24.7302 11.8251 27.0934 10.3131 29.75 9.7C30.3106 6.41693 31.8232 3.37084 34.1 0.940002C36.3817 3.36742 37.8951 6.41508 38.45 9.7C41.1017 10.317 43.4563 11.8372 45.11 14C45.12 14.16 45.13 14.27 45.15 14.39Z" fill="#FFD673"/>
<path d="M67.21 4.64001C63.09 7.43001 60.38 13.11 60.38 13.11C60.38 13.11 53.65 11 49.61 14.78C50.6806 13.3824 52.107 12.298 53.74 11.64C55.9126 10.8246 58.2951 10.7577 60.51 11.45C62.2335 8.72929 64.5177 6.40761 67.21 4.64001V4.64001Z" fill="#FFD673"/>
<path d="M18.6 14.78C18.4523 14.7372 18.302 14.7038 18.15 14.68C13.44 10.76 7.02 12.68 7.02 12.68C5.50893 9.67943 3.47744 6.97078 1.02 4.67999C3.71171 6.44831 5.99575 8.76985 7.72 11.49C9.93061 10.7915 12.3121 10.8584 14.48 11.68C16.1028 12.3317 17.5242 13.4012 18.6 14.78V14.78Z" fill="#FFD673"/>
<path opacity="0.4" d="M24.35 24C24.6556 24.5212 24.9894 25.0253 25.35 25.51C22.7204 27.2416 19.3626 27.425 16.56 25.99C16.8891 25.0085 17.1531 24.0063 17.35 22.99C19.09 24.44 21.82 23.75 23.6 22.46C23.8228 22.9861 24.0732 23.5002 24.35 24Z" fill="#CA8F05"/>
<path opacity="0.4" d="M51.67 26C49.43 27.05 45.59 27.64 42.87 25.52C43.533 24.6113 44.1057 23.64 44.58 22.62C45.2633 23.7408 46.5293 24.3699 47.8353 24.2376C49.1413 24.1053 50.2554 23.2351 50.7 22C50.9056 23.3592 51.2302 24.6976 51.67 26Z" fill="#CA8F05"/>
<path opacity="0.3" d="M66.81 5.66999C62.7825 15.8867 59.7126 26.4554 57.64 37.24C50.1375 40.2294 42.172 41.8909 34.1 42.15C26.0291 41.9086 18.0639 40.2465 10.57 37.24C8.42199 26.0974 5.21752 15.1848 1 4.64999C1.24 5.14999 6.28 15.88 12.65 35.02C13.75 38.31 25.02 40.81 34.09 40.81C43.16 40.81 53.34 38.62 55.69 36.59C58.04 34.56 58.67 17.17 66.81 5.66999V5.66999Z" fill="#CA8F05"/>
<path opacity="0.4" d="M47.24 30.17C36.72 30.76 32.6 17.1 42.7 14.05C42.7 13.92 38.17 11.92 35.5 12.96C35.8 9.81001 34.24 4.51001 34.1 4.07001C34 4.43001 32.47 9.60001 32.68 13C31.1 12.07 25.43 13.67 25.49 14.09C43.14 24.37 17.57 38.55 10.62 23.17C13.28 37.59 16.69 38.17 34.09 39.01C51.42 38.41 55.04 37.2 57.57 23.17C56.78 25.32 52.09 30 47.24 30.17V30.17Z" fill="#FFD673"/>
<path opacity="0.3" d="M19.72 40.2C16.6192 39.3622 13.5649 38.3608 10.57 37.2C8.42097 26.0675 5.2165 15.1649 1 4.64001C3.69171 6.40833 5.97575 8.72987 7.7 11.45C8.83865 11.0827 10.0356 10.9301 11.23 11C11.4 13.43 11.66 15.81 12.02 18.11C11.306 20.196 11.7555 22.5043 13.2 24.17C14.8 30.91 17.14 36.6 19.72 40.2Z" fill="#CA8F05"/>
<path opacity="0.3" d="M67.21 4.64001C63.33 14.7 59.62 26 57.64 37.24C54.5784 38.4042 51.4574 39.4056 48.29 40.24C50.29 36.55 51.79 31.3 52.89 26C55.89 24.23 58.28 19 54.6 15.85C54.83 14.16 55.01 12.58 55.16 11.19C56.935 10.8104 58.7781 10.8965 60.51 11.44C62.2347 8.72291 64.5188 6.40472 67.21 4.64001Z" fill="#CA8F05"/>
</svg>
