<svg width="118" height="102" viewBox="0 0 118 102" fill="none" xmlns="http://www.w3.org/2000/svg">
<g clip-path="url(#clip0_1_2961)">
<path d="M103.67 38.24C88 23.62 77.45 31.64 57.51 31.76C39.78 30.32 27.2 25.3 14.22 38.24C21.49 61.69 96.19 55.77 103.67 38.24V38.24Z" fill="#FF0808"/>
<path d="M12.56 58.48C15.23 65.23 16.78 71.74 20.42 78.1C26.15 80.49 41.2 82.19 58.78 82.21H59.1C76.68 82.21 91.74 80.49 97.47 78.1C100.77 72.54 102.6 65.44 105.33 58.48C82.14 70.29 34.25 69.64 12.56 58.48V58.48Z" fill="#D30505"/>
<path d="M58.94 50.46C41.29 50.46 25.41 45.76 14.22 38.24C9.22 44.07 10.22 51.34 12.56 58.48C31.92 72.09 85.56 72.15 105.33 58.48C107.64 51.34 108.64 44.07 103.67 38.24C92.48 45.76 76.59 50.46 58.94 50.46V50.46Z" fill="#EF0000"/>
<path d="M94 19.79C86.57 6.09002 76.61 8.46001 67.4 9.00001C55.4 9.47001 45.95 8.67001 39.82 8.39001C23.9 8.71001 15.54 32.79 20.37 50.85C24.73 69.8 38 84.46 38 84.54C40.68 91.89 51.64 89.25 58.2 89.47H58.38H59.48H59.67C66.22 89.25 77.18 91.89 79.86 84.54C79.87 84.54 110.46 50.48 94 19.79V19.79ZM51 72.93C48.66 77.08 44.3 77.56 36.58 69.67C3.43 21.13 66 -11.9 51.84 58.4C50.94 65.87 50.19 67.11 51 72.93V72.93ZM85.51 64.54C78.1 75.54 69.51 78.76 66.98 72.93C67.8 68.16 66.79 63.86 65.81 56.47C53.72 -6.29998 107.44 15.36 85.46 64.54H85.51Z" fill="#FDC33C"/>
<path d="M68.91 87.1401C66.22 87.1401 62.57 86.73 58.81 86.88C54.66 86.44 41.36 89.17 40.3 83.16C38.58 82.89 3.8 36.37 33.61 12.89C41.43 8.84 47.32 12.62 60.21 11.74C76.06 12.85 83.64 4.89001 93.21 24.11C105 53.27 78.41 81.79 77.58 83.16C76.81 85.79 74.43 87.15 68.91 87.1401V87.1401ZM75.1 15.14C51.34 19.04 66.66 62.06 64.19 73.39C69.4 82.14 75.45 78.39 81.46 73.2C100.36 55.07 96.3 16.4 75.1 15.16V15.14ZM30.1 65.63C36.81 75.86 48 84.23 53.74 73.39C52.62 68 53.9 63.33 55 54.76C65.69 -13.5 5.88 17.1 30 65.52V65.59L30.1 65.63Z" fill="#FFCC66"/>
<path d="M38 84.54C38 84.54 36.59 83 34.54 80.19C10.31 73.6 -2 39.63 19.9 30.63C20.5715 27.482 21.612 24.4242 23 21.52C15.72 21 8.12 23.6 3.66 31.68C-10.94 58.09 22.85 85.68 22.85 85.68C25.95 91.42 36.77 89.36 43.34 89.53H44.17V89.32C41.36 88.76 39.06 87.42 38 84.54Z" fill="#EFAD29"/>
<path d="M24.18 85.8C24.5239 86.2421 24.9357 86.6268 25.4 86.94L24.18 85.8Z" fill="#FDC33C"/>
<path d="M8 35.62C10.67 30.79 11.85 28.31 21.37 22.5C11.81 22.38 4.37 28.45 1.7 39.75C-2.45 58.67 14.6 76.41 21.09 82.69C12.31 73.41 -2.18 54.06 8 35.62V35.62Z" fill="#FDC33C"/>
<path d="M79.87 84.54C79.87 84.54 81.29 82.95 83.35 80.19C107.58 73.6 119.93 39.63 98 30.63C97.3391 27.4817 96.3052 24.4234 94.92 21.52C102.18 21 109.78 23.6 114.24 31.68C128.84 58.09 95.05 85.68 95.05 85.68C91.94 91.42 81.13 89.36 74.56 89.53H73.73V89.32C76.53 88.76 78.82 87.42 79.87 84.54V84.54Z" fill="#EFAD29"/>
<path d="M68.19 9.12C67.53 21.77 49.99 20.79 49.69 9.12C50.35 -3.52 67.89 -2.55 68.19 9.12Z" fill="#EFAD29"/>
<path d="M65.58 9.12C65.18 17.99 52.58 17.57 52.31 9.12C52.7 0.249998 65.27 0.679998 65.58 9.12Z" fill="#E40031"/>
<path d="M64.13 7.21999C64 12.27 54.13 12.45 53.75 7.21999C53.89 2.17999 63.77 1.99999 64.13 7.21999Z" fill="#F40C4A"/>
<path d="M60.32 5.79998C60.45 7.97998 54.8 8.18998 55.89 5.10998C56.76 3.54998 59.94 3.67998 60.32 5.79998V5.79998Z" fill="#FF8585"/>
<path d="M109.6 35.62C106.93 30.79 105.75 28.31 96.23 22.5C105.79 22.38 113.23 28.45 115.9 39.75C120.06 58.67 103 76.41 96.52 82.69C105.3 73.41 119.79 54.06 109.6 35.62Z" fill="#FDC33C"/>
<path d="M58.94 59.69C50.94 69.48 55.34 71.3 58.94 79.69C64.77 68.43 65.19 68.37 58.94 59.69Z" fill="#FDC33C"/>
<path d="M62.26 66.48L58.94 61.4C52.24 69.4 56.11 71.4 58.94 77.98C59.87 75.12 64.38 69.77 62.26 66.48Z" fill="#E40031"/>
<path d="M58.94 62.44C53.35 68.78 56.31 71.31 58.94 76.93V62.44Z" fill="#F40C4A"/>
<path d="M58.07 65.22C57.18 65.45 55.22 69.7 57.13 70.75C57.6071 68.9382 57.9216 67.0876 58.07 65.22Z" fill="#FF8585"/>
<path d="M55 82.21C54.9 86.35 48.64 86.69 48.29 82.21C48.3873 80.4281 49.8605 79.0332 51.645 79.0332C53.4295 79.0332 54.9027 80.4281 55 82.21V82.21Z" fill="#E40031"/>
<path d="M53.74 80.13C54.41 81.97 48.32 83.81 48.74 80.84C49.35 79.24 52.84 78.43 53.74 80.13Z" fill="#F40C4A"/>
<path d="M52.13 80C52.59 81.32 47.8 81.44 50.74 79.6C51.2417 79.4628 51.778 79.6171 52.13 80Z" fill="#FF8585"/>
<path d="M68.54 82.21C68.4427 83.9918 66.9695 85.3868 65.185 85.3868C63.4005 85.3868 61.9273 83.9918 61.83 82.21C61.93 78.07 68.19 77.73 68.54 82.21Z" fill="#E40031"/>
<path d="M67.29 80.13C67.96 81.97 61.87 83.81 62.29 80.84C62.9 79.24 66.39 78.43 67.29 80.13Z" fill="#F40C4A"/>
<path d="M65.68 80C66.14 81.32 61.35 81.44 64.29 79.6C64.7917 79.4628 65.328 79.6171 65.68 80Z" fill="#FF8585"/>
<path d="M98 88.88C96.5 89.77 96.46 87.2 98.53 87.88C98.56 88.06 98.59 88.25 98 88.88Z" fill="#FFDFA6"/>
<path d="M99.81 82.3C95.48 92 20.14 91.3 18 82.61H17.91V91.69C17.91 95.84 36.3 99.13 58.91 99.05C81.52 98.97 99.91 95.52 99.91 91.38V82.3H99.81Z" fill="#FDC33C"/>
<path d="M99.94 90.93C101.1 101.61 15.73 101.43 17.94 91.25C9.88 93.87 29.34 102.41 58.94 101.95C92.56 102.09 107.29 93.22 99.94 90.93Z" fill="#E59F23"/>
<path d="M59 100.93C41.78 101 30.66 98.87 24.2 96.69C42.37 101.63 93.32 101.93 100.77 92.36L100.93 92.46C100.3 94.11 91.74 100.8 59 100.93V100.93ZM17.87 93.69C17.5213 93.4447 17.2254 93.1319 17 92.77L17.15 92.68C17.3242 93.059 17.5685 93.4017 17.87 93.69V93.69Z" fill="#FDC33C"/>
<path d="M100.78 80L100.01 80.7C91.56 90.35 21.19 90.25 17.9 80.8L16.84 80.14C11.58 83.91 30 92 63.38 91C94.3 90.39 105.52 82.7 100.78 80Z" fill="#E59F23"/>
<path d="M58.94 90.07C28.72 90.19 17.27 83.54 16.94 81.74C16.9413 81.638 16.9581 81.5368 16.99 81.44L17.1 81.5C24.55 93.07 95.93 89.84 100.87 81.36L100.95 81.29V81.44C100.85 82.76 92.88 89.94 58.94 90.07V90.07Z" fill="#FDC33C"/>
<path d="M24.71 90.43C24.6316 91.5956 23.6633 92.5011 22.495 92.5011C21.3267 92.5011 20.3584 91.5956 20.28 90.43C20.3584 89.2643 21.3267 88.3589 22.495 88.3589C23.6633 88.3589 24.6316 89.2643 24.71 90.43Z" fill="#EFAD29"/>
<path d="M22.5 92.14C18.75 91.65 22.5 86.02 24.2 90.43C24.17 91 23.79 91.82 22.5 92.14Z" fill="#FFCC66"/>
<path d="M22.46 90.15C20.92 91.04 21.09 88.46 22.96 89.15C23 89.36 23.06 89.55 22.46 90.15Z" fill="#FFDFA6"/>
<path d="M32.51 92.09C32.4316 93.2556 31.4633 94.1611 30.295 94.1611C29.1267 94.1611 28.1584 93.2556 28.08 92.09C28.1584 90.9244 29.1267 90.0189 30.295 90.0189C31.4633 90.0189 32.4316 90.9244 32.51 92.09Z" fill="#EFAD29"/>
<path d="M30.3 93.8C26.55 93.31 30.3 87.68 32 92.09C31.8994 92.9857 31.1951 93.6941 30.3 93.8Z" fill="#FFCC66"/>
<path d="M40.3 93.75C40.3 94.9705 39.3106 95.96 38.09 95.96C36.8695 95.96 35.88 94.9705 35.88 93.75C35.88 92.5294 36.8695 91.54 38.09 91.54C39.3106 91.54 40.3 92.5294 40.3 93.75Z" fill="#EFAD29"/>
<path d="M38.1 95.46C34.34 94.97 38.1 89.34 39.8 93.75C39.6994 94.6457 38.9951 95.3541 38.1 95.46Z" fill="#FFCC66"/>
<path d="M50.31 94.23C50.31 95.4506 49.3205 96.44 48.1 96.44C46.8794 96.44 45.89 95.4506 45.89 94.23C45.89 93.0095 46.8794 92.02 48.1 92.02C49.3205 92.02 50.31 93.0095 50.31 94.23Z" fill="#EFAD29"/>
<path d="M48.11 96C44.35 95.5 48.11 89.87 49.81 94.28C49.7137 95.1796 49.0084 95.8932 48.11 96Z" fill="#FFCC66"/>
<path d="M60.32 94.72C60.32 95.9406 59.3305 96.93 58.11 96.93C56.8895 96.93 55.9 95.9406 55.9 94.72C55.9 93.4995 56.8895 92.51 58.11 92.51C59.3305 92.51 60.32 93.4995 60.32 94.72Z" fill="#EFAD29"/>
<path d="M58.12 96.43C54.36 95.94 58.12 90.3 59.82 94.72C59.7194 95.6157 59.0151 96.3241 58.12 96.43Z" fill="#FFCC66"/>
<path d="M71.46 94.15C71.3816 95.3156 70.4133 96.2211 69.245 96.2211C68.0767 96.2211 67.1084 95.3156 67.03 94.15C67.1084 92.9844 68.0767 92.0789 69.245 92.0789C70.4133 92.0789 71.3816 92.9844 71.46 94.15Z" fill="#EFAD29"/>
<path d="M69.25 95.86C65.5 95.37 69.25 89.74 70.95 94.15C70.8494 95.0457 70.1451 95.7541 69.25 95.86Z" fill="#FFCC66"/>
<path d="M82.59 93.59C82.5116 94.7556 81.5433 95.6611 80.375 95.6611C79.2067 95.6611 78.2384 94.7556 78.16 93.59C78.2384 92.4244 79.2067 91.5189 80.375 91.5189C81.5433 91.5189 82.5116 92.4244 82.59 93.59Z" fill="#EFAD29"/>
<path d="M80.38 95.3C76.63 94.81 80.38 89.18 82.08 93.59C82.05 94.17 81.68 95 80.38 95.3Z" fill="#FFCC66"/>
<path d="M90.86 91.86C90.7816 93.0257 89.8133 93.9311 88.645 93.9311C87.4767 93.9311 86.5084 93.0257 86.43 91.86C86.5084 90.6944 87.4767 89.7889 88.645 89.7889C89.8133 89.7889 90.7816 90.6944 90.86 91.86Z" fill="#EFAD29"/>
<path d="M88.65 93.58C84.9 93.08 88.65 87.45 90.35 91.86C90.2334 92.7498 89.5384 93.453 88.65 93.58Z" fill="#FFCC66"/>
<path d="M99.12 90.14C99.0416 91.3056 98.0733 92.2111 96.905 92.2111C95.7367 92.2111 94.7684 91.3056 94.69 90.14C94.7684 88.9744 95.7367 88.0689 96.905 88.0689C98.0733 88.0689 99.0416 88.9744 99.12 90.14Z" fill="#EFAD29"/>
<path d="M96.91 91.85C93.16 91.36 96.91 85.73 98.61 90.14C98.5094 91.0357 97.8051 91.7442 96.91 91.85Z" fill="#FFCC66"/>
<path d="M30.08 91.89C28.54 92.78 28.72 90.2 30.59 90.89C30.65 91.1 30.68 91.28 30.08 91.89Z" fill="#FFDFA6"/>
<path d="M37.87 93.58C36.33 94.46 36.51 91.89 38.37 92.58C38.44 92.79 38.47 93 37.87 93.58Z" fill="#FFDFA6"/>
<path d="M47.86 94.05C46.33 94.93 46.5 92.35 48.37 93.05C48.43 93.26 48.46 93.44 47.86 94.05Z" fill="#FFDFA6"/>
<path d="M57.86 94.53C56.33 95.42 56.5 92.84 58.37 93.53C58.43 93.74 58.46 93.92 57.86 94.53Z" fill="#FFDFA6"/>
<path d="M69.11 94C67.57 94.88 67.74 92.3 69.61 93C69.68 93.17 69.71 93.36 69.11 94Z" fill="#FFDFA6"/>
<path d="M80.19 93.43C78.66 94.32 78.83 91.74 80.7 92.43C80.76 92.64 80.79 92.82 80.19 93.43Z" fill="#FFDFA6"/>
<path d="M88.28 91.67C86.74 92.55 86.92 89.97 88.79 90.67C88.85 90.87 88.88 91.06 88.28 91.67Z" fill="#FFDFA6"/>
<path d="M96.76 90C95.22 90.89 95.4 88.31 97.27 89C97.33 89.16 97.36 89.35 96.76 90Z" fill="#FFDFA6"/>
</g>
<defs>
<clipPath id="clip0_1_2961">
<rect width="118" height="102" fill="white"/>
</clipPath>
</defs>
</svg>
