<svg width="69" height="45" viewBox="0 0 69 45" fill="none" xmlns="http://www.w3.org/2000/svg">
<path d="M60.22 38.94C60.2006 39.0952 60.1705 39.2489 60.13 39.4C51.942 42.8591 43.1048 44.5133 34.22 44.25C25.3307 44.5297 16.4868 42.8748 8.3 39.4C7.81765 36.8675 8.43582 34.2493 10 32.2C17.7421 35.0439 25.9323 36.4732 34.18 36.42C42.4386 36.486 50.6408 35.0563 58.39 32.2C59.9003 34.0997 60.5622 36.5373 60.22 38.94V38.94Z" fill="#FFB401"/>
<path d="M67.89 7.55001C67.98 10.33 62.11 11.7 63.2 6.43001C64.32 4.54001 67.34 4.32001 67.89 7.55001Z" fill="#FFB401"/>
<path d="M51.93 5.56C51.73 6.85 50.66 8.84 48.32 8.08C43.33 5.8 50.39 -0.770002 51.93 5.56V5.56Z" fill="#FFB401"/>
<path d="M37.26 3.65001C37.2073 5.30337 35.9104 6.64783 34.26 6.76001C30.95 6.89001 29.89 0.930009 34.26 0.540009C35.8824 0.710921 37.1476 2.02252 37.26 3.65001Z" fill="#FFB401"/>
<path d="M21.88 5.56C21.8263 6.67139 21.1373 7.65245 20.11 8.08C12.62 8.89 19.13 -2.14 21.88 5.56V5.56Z" fill="#FFB401"/>
<path d="M5.49 7.55C5.49 7.87 4.99 9.87 3.42 9.99C-2.73 9.73 2.71 1.07 5.48 7.29C5.48832 7.37641 5.49166 7.46322 5.49 7.55Z" fill="#FFB401"/>
<path d="M63.25 9.47998C60 12.23 52.41 14.36 49.45 8.69999C48.76 8.69999 49.36 8.69998 47.97 8.43998C44.4 11.44 38.76 11.6 35.43 7.10999C35.06 7.21999 35.43 7.10999 34.22 7.29999C33.71 7.29999 34.22 7.29999 33 7.10999C31.5667 9.02629 29.3999 10.2588 27.0202 10.5111C24.6405 10.7635 22.2633 10.013 20.46 8.43998C20.09 8.56998 20.46 8.51999 18.98 8.69999C15.89 13.63 10.21 13.21 5.18 9.47998C4.81 9.83998 5.07 9.64999 4.18 10.18C7.25069 16.9564 9.23176 24.1754 10.05 31.57C10.76 31.83 11.51 32.12 13.21 32.66C19.997 34.825 27.0864 35.8918 34.21 35.82C42.4434 35.904 50.6212 34.463 58.33 31.57C59.1504 24.1758 61.1314 16.9572 64.2 10.18C63.8353 10.0201 63.5107 9.781 63.25 9.47998V9.47998ZM17.66 31.08L17.51 31.62C12.8092 27.0129 11.2961 20.0528 13.66 13.91L13.78 13.67C19.36 17 19.52 25 17.66 31.08V31.08ZM28.55 31.59C28.47 31.78 28.38 31.96 28.3 32.15C24 27.22 22 18.77 26.33 12.26C32.34 16.56 31.68 25.3 28.55 31.59ZM44.34 23.38C43.7184 26.6181 42.2679 29.6398 40.13 32.15C37.13 26.35 35.52 17.15 42.13 12.26C44.1744 15.5825 44.9586 19.5283 44.34 23.38ZM53.26 28.73C52.5807 29.7707 51.7966 30.7391 50.92 31.62C49.22 26.19 48.44 17.52 54.65 13.62L54.77 13.86C56.6626 18.7744 56.1019 24.2964 53.26 28.73Z" fill="#FFB401"/>
<path d="M8.3 39.4C8.69 39.57 9.08 39.75 9.48 39.91L9.31 40.31C8.76 40.07 9.05 40.21 7.66 39.61C7.19933 36.9355 7.84543 34.1887 9.45 32C8.7217 24.5244 6.78661 17.2164 3.72 10.36L3.49 10.41L3.42 9.99998C3.83976 9.93838 4.23431 9.76187 4.56 9.48998L5 9.68998C4.77903 9.89394 4.52554 10.0596 4.25 10.18C7.32069 16.9564 9.30176 24.1754 10.12 31.57C17.8349 34.4536 26.0142 35.8942 34.25 35.82C42.4833 35.9031 50.6609 34.4621 58.37 31.57C59.1904 24.1758 61.1714 16.9572 64.24 10.18C63.8573 10.0267 63.515 9.78713 63.24 9.47998L63.59 9.22998C64.2487 9.91107 65.2297 10.1727 66.14 9.90998L66.26 10.32C65.7491 10.4575 65.2109 10.4575 64.7 10.32C61.6425 17.1917 59.7177 24.5131 59 32C60.6274 34.1934 61.2752 36.9622 60.79 39.65L59.14 40.35L58.97 39.95C59.37 39.79 59.76 39.61 60.15 39.44C60.6211 36.9017 59.9882 34.283 58.41 32.24C50.6718 35.0854 42.4846 36.5148 34.24 36.46C25.9687 36.5191 17.7555 35.0756 10 32.2C8.40555 34.2349 7.78412 36.8668 8.3 39.4V39.4Z" fill="#B06305"/>
<path d="M54.94 23.93C55.48 20.55 56.04 18.79 54.4 14.21C49.69 17.86 49.4 24.83 51.13 30.72C52.9106 28.7836 54.2151 26.4587 54.94 23.93ZM55.82 18.4C56.2237 23.3147 54.4293 28.1557 50.92 31.62C49.22 26.19 48.44 17.52 54.65 13.62L54.77 13.86C55.3229 15.3191 55.6761 16.8463 55.82 18.4V18.4Z" fill="#B06305"/>
<path d="M51.93 5.56001C51.09 -0.129994 43 4.77001 48.32 8.08001C49.1424 8.34259 50.0402 8.20674 50.7481 7.71259C51.456 7.21845 51.893 6.42251 51.93 5.56001V5.56001ZM67.93 7.56001C67.93 3.87001 60.83 4.81001 63.64 9.24001L63.29 9.49001C59.99 12.23 52.49 14.38 49.49 8.71001C48.8 8.71001 49.4 8.71001 48.01 8.45001C44.61 11.28 39.34 11.65 35.88 7.63001L36.24 7.33001C38.62 10.13 43.84 11.49 47.49 8.15001C41.49 -0.399995 58.65 2.32001 50.1 8.61001C53.1 13.12 58.32 12.53 62.95 9.02001C60.69 1.45001 73.25 5.65001 66.31 10.33L66.19 9.92001C67.2124 9.58462 67.9 8.62596 67.89 7.55001L67.93 7.56001Z" fill="#B06305"/>
<path d="M44.13 17.13C45.2572 22.4816 43.7723 28.0503 40.13 32.13C37.13 26.33 35.52 17.13 42.13 12.24C43.0569 13.751 43.7323 15.4025 44.13 17.13V17.13ZM41.88 12.89C37.05 17.34 37.23 25 40.26 31.14C44 26.56 45.71 18.93 41.88 12.89V12.89Z" fill="#B06305"/>
<path d="M35.86 6.87C36 7.07 35.86 6.87 36.2 7.32L35.84 7.62C35.7 7.46 35.56 7.29 35.43 7.11C35.06 7.22 35.43 7.11 34.22 7.3C33.71 7.3 34.22 7.3 33 7.11C32.6986 7.50759 32.3641 7.87892 32 8.22L31.64 8C31.9793 7.66273 32.2904 7.29817 32.57 6.91C29.72 5.54 30.23 0.22 34.22 0C35.843 0.0971834 37.2111 1.24517 37.5886 2.8266C37.9661 4.40804 37.2641 6.05021 35.86 6.87V6.87ZM35.56 6.42C38 5.3 37.68 0.85 34.22 0.54C30.98 0.54 29.67 6.39 34.22 6.76C34.685 6.73796 35.1408 6.62232 35.56 6.42Z" fill="#B06305"/>
<path d="M26.55 12.89C23.2087 18.711 23.8556 25.9986 28.17 31.14C30.73 25.74 31.93 17.9 26.55 12.89ZM26.73 12.55C32.52 17.24 31.52 25.81 28.3 32.15C24 27.22 22 18.77 26.33 12.26C26.47 12.35 26.6 12.45 26.73 12.55V12.55Z" fill="#B06305"/>
<path d="M17.16 31.28C12.7265 26.6571 11.3628 19.8891 13.66 13.91L13.78 13.67C19.53 17.13 19.51 25.41 17.51 31.67L17.16 31.28ZM13.49 23.93C14.203 26.4637 15.509 28.7912 17.3 30.72C18.77 25.72 19.14 18.19 14.03 14.21C12.8532 17.317 12.6646 20.7117 13.49 23.93V23.93Z" fill="#B06305"/>
<path d="M9.87 40.07C17.629 43.0647 25.9064 44.4857 34.22 44.25C42.6889 44.4992 51.1199 43.0226 59 39.91L59.17 40.31C51.2832 43.5621 42.7968 45.106 34.27 44.84C25.7221 45.128 17.2115 43.5834 9.31 40.31L9.48 39.91L9.87 40.07Z" fill="#B06305"/>
<path d="M16 5.55999C16.71 -0.440009 25.62 3.55999 20.94 8.13999C24.0277 10.8092 28.6232 10.7491 31.64 7.99999L32.02 8.25999C29.47 11.02 23.9 11.63 20.46 8.47999C20.09 8.60999 20.46 8.55999 18.98 8.73999C15.9 13.67 10.23 13.25 5.18 9.51999L5 9.68999L4.59 9.47999C8.77 1.70999 -5.6 6.78999 3.42 9.99999L3.49 10.42C-6.08 8.41999 7.26 -0.450009 5.49 9.01999C8.42 11.61 15.61 13.7 18.34 8.60999C16.9561 8.24538 15.9938 6.99112 16 5.55999V5.55999ZM16.46 5.55999C16.66 6.84999 17.73 8.83999 20.07 8.07999C25.11 5.52999 17.84 -0.580009 16.5 5.55999H16.46Z" fill="#B06305"/>
<path opacity="0.3" d="M8.39 22.1C7.37187 18.0062 5.97588 14.0157 4.22 10.18C4.5963 10.015 4.93618 9.77708 5.22 9.47998C6.38226 10.2844 7.61378 10.9838 8.9 11.57C10.9 17.82 12.9 30.45 13.25 32.66C12.53 32.43 11.74 32.19 10.09 31.57C9.71989 28.3812 9.15213 25.2184 8.39 22.1Z" fill="#CA8F05"/>
<path opacity="0.3" d="M13.16 33.26C11.8381 35.6525 11.6369 38.5057 12.61 41.06C11.1432 40.5884 9.70423 40.0341 8.3 39.4C7.81765 36.8675 8.43582 34.2493 10 32.2C10.78 32.48 11.65 32.78 13.16 33.26Z" fill="#CA8F05"/>
<path opacity="0.3" d="M60.15 36C60.3464 37.1316 60.3464 38.2885 60.15 39.42C58.7686 40.0204 57.3567 40.5478 55.92 41C56.8757 38.4402 56.6638 35.5904 55.34 33.2C55.93 33.02 57.06 32.66 58.34 32.2C59.2095 33.3218 59.8269 34.6179 60.15 36V36Z" fill="#CA8F05"/>
<path opacity="0.3" d="M64.21 10.18C61.1393 16.9564 59.1582 24.1754 58.34 31.57C57.67 31.82 56.91 32.11 55.26 32.64C55.62 30.34 57.62 17.74 59.63 11.54C60.8965 10.9642 62.1081 10.2747 63.25 9.47998C63.5136 9.7822 63.8417 10.0214 64.21 10.18V10.18Z" fill="#CA8F05"/>
<path opacity="0.4" d="M50.79 41.41C48.16 43.41 10.79 47.24 17.24 35.77C17.61 34.57 25.56 37.48 30.33 37.46C40.82 40.09 56.17 30 50.79 41.41V41.41Z" fill="#FFD673"/>
<path opacity="0.8" d="M27.21 37.13C28.16 37.25 29.16 37.36 30.21 37.45V43.6C29.36 43.53 28.49 43.45 27.63 43.35L27.21 37.13Z" fill="#FFD673"/>
<path opacity="0.8" d="M32.77 37.61L32.23 43.71L31.05 43.65L30.33 37.46C31.11 37.52 31.93 37.57 32.77 37.61Z" fill="#FFD673"/>
<path opacity="0.3" d="M5.49 7.54999C5.49 7.86999 4.99 9.86999 3.42 9.98999C1.56 10.44 -0.840002 7.28999 1.64 5.48999C-0.360002 7.48999 3.73 11.49 5.48 7.28999C5.48832 7.37639 5.49166 7.4632 5.49 7.54999Z" fill="#CA8F05"/>
<path opacity="0.3" d="M21.85 6.00001C21.6488 6.94972 21.0005 7.74336 20.11 8.13001C19.1512 8.42897 18.1057 8.18352 17.3801 7.48912C16.6545 6.79473 16.3634 5.761 16.62 4.79001C16.53 6.80001 19.94 8.62001 21.85 6.00001V6.00001Z" fill="#CA8F05"/>
<path opacity="0.3" d="M37.26 3.65001C37.26 5.33172 35.8967 6.69501 34.215 6.69501C32.5333 6.69501 31.17 5.33172 31.17 3.65001C31.704 4.93215 33.0147 5.71325 34.3965 5.57277C35.7783 5.43229 36.905 4.40339 37.17 3.04001C37.2229 3.23929 37.2531 3.44393 37.26 3.65001V3.65001Z" fill="#CA8F05"/>
<path d="M47.9 2.70001L47.51 3.06001C47.6278 2.92745 47.7584 2.80686 47.9 2.70001Z" fill="#CA8F05"/>
<path opacity="0.3" d="M51.93 5.55999C51.73 6.84999 50.66 8.83999 48.32 8.07999C47.5707 7.77258 46.9927 7.15369 46.7372 6.38516C46.4816 5.61663 46.574 4.77487 46.99 4.07999C46.08 6.40999 51.07 9.19999 51.85 4.87999C51.9038 5.10263 51.9307 5.33093 51.93 5.55999V5.55999Z" fill="#CA8F05"/>
<path opacity="0.3" d="M67.89 7.55C67.89 9.73 63.55 12.03 62.95 7.32C63.37 10 68.76 9.5 67 5.66C67.5605 6.12823 67.8861 6.81969 67.89 7.55V7.55Z" fill="#CA8F05"/>
<path opacity="0.4" d="M16 12.93C25.77 29.2 11.25 33.69 26.86 34.41C25.36 30.51 20.34 19.41 24.25 13.01C25.51 12.01 20.56 10.4 19.65 10.19C18.371 11.0172 17.1513 11.9327 16 12.93V12.93Z" fill="#FFD673"/>
<path opacity="0.4" d="M52.32 12.93C42.54 29.2 57.06 33.69 41.45 34.41C43 30.51 48 19.38 44.06 13C42.81 12 47.76 10.39 48.67 10.18C49.9493 11.0104 51.169 11.9293 52.32 12.93V12.93Z" fill="#FFD673"/>
<path opacity="0.4" d="M29.42 11.35C33.6 19.35 32.77 25.65 30.26 32.71C27.83 35.85 38.66 35.4 38.49 33.71C38.32 32.02 36.61 25.71 35.85 22.17C34.53 20.1 38.07 13.96 38.46 11.92C35.67 7.17998 32 8.99998 29.42 11.35V11.35Z" fill="#FFD673"/>
<path opacity="0.6" d="M34.07 9.35999C28.07 12.01 34.74 18.64 33.46 21.18C32.38 30.18 29.64 36.57 36.46 33.59C36.55 31.48 34.67 20.74 34.65 19.98C34.9 17.51 39.18 9.81999 34.07 9.35999V9.35999Z" fill="#FFD673"/>
<path opacity="0.6" d="M48.58 10.94L45.84 32.67C39.07 37.17 46.99 24.79 46.65 22.46C46.9 20 43.43 11.58 48.58 10.94V10.94Z" fill="#FFD673"/>
<path opacity="0.6" d="M19.88 10.94L22.62 32.67C29.39 37.17 21.47 24.79 21.82 22.46C21.56 20 25 11.58 19.88 10.94V10.94Z" fill="#FFD673"/>
<path opacity="0.8" d="M2.55 5.99999C2.33 6.43999 3.55 7.82999 4.29 7.32999C5.03 6.82999 2.88 5.29999 2.55 5.99999Z" fill="#FFD673"/>
<path opacity="0.8" d="M18 4.05999C17.59 4.97999 19.74 6.20999 20.48 5.29999C21.22 4.38999 18.31 3.30999 18 4.05999Z" fill="#FFD673"/>
<path opacity="0.8" d="M32.16 2.88999C32.79 4.15999 35.73 3.22999 35.64 2.22999C35.55 1.22999 31.41 1.39999 32.16 2.88999Z" fill="#FFD673"/>
<path opacity="0.8" d="M48.75 4C48.42 4.75 49.82 5.91 50.65 5.16C51.48 4.41 49.24 2.81 48.75 4Z" fill="#FFD673"/>
<path opacity="0.8" d="M64 7C64.62 7.83 66.4 7.08 66.24 6.17C66.08 5.26 63.51 6.3 64 7V7Z" fill="#FFD673"/>
</svg>
