<svg width="114" height="89" viewBox="0 0 114 89" fill="none" xmlns="http://www.w3.org/2000/svg">
<g clip-path="url(#clip0_1_2568)">
<path d="M24.23 25.48C28.76 15.36 11.75 22.31 22.15 26.35C22.8207 26.3128 23.4649 26.076 24 25.67C24.0818 25.6132 24.1587 25.5496 24.23 25.48Z" fill="#CA8F05"/>
<path d="M92 20.0001C89.78 19.9101 87.36 23.5401 90 25.6601C90.5445 26.0557 91.1887 26.2912 91.86 26.3401C95.48 26.5001 96.48 20.4301 92 20.0001Z" fill="#CA8F05"/>
<path d="M44.71 15.9C48.19 14.65 46.07 7.71004 41.58 10.43C40.318 11.3988 39.966 13.1511 40.7562 14.532C41.5463 15.9128 43.2354 16.4973 44.71 15.9Z" fill="#CA8F05"/>
<path d="M91.28 26.6801C86.11 36.6001 83.28 46.8001 81.35 58.5301C78.88 59.8401 78.03 57.1501 78.06 54.3901C81.3814 44.6883 85.3126 35.206 89.83 26.0001C90.2523 26.339 90.7494 26.5721 91.28 26.6801V26.6801Z" fill="#CA8F05"/>
<path d="M36 54.3901C36 55.7601 35.58 60.3301 32.71 58.5301C31.06 48.2901 28 36.6301 22.74 26.6801C23.27 26.5703 23.7667 26.3373 24.19 26.0001C26.89 31.7201 29.62 37.5301 32.19 44.0001C33.43 47.2401 34.55 50.2101 36 54.3901Z" fill="#CA8F05"/>
<path d="M50.75 56.14C48.45 59.53 45.11 56.14 44.44 52.48C44.9023 40.459 44.3973 28.4202 42.93 16.48C43.5406 16.5635 44.1624 16.4948 44.74 16.28C46.0502 29.662 48.0562 42.9667 50.75 56.14Z" fill="#CA8F05"/>
<path d="M71.09 16.52C69.6216 28.4601 69.1166 40.499 69.58 52.52C68.81 55.6 66.14 59.93 63.26 56.18C65.9426 43.0186 67.9453 29.7276 69.26 16.36C69.8513 16.5449 70.4756 16.5995 71.09 16.52V16.52Z" fill="#CA8F05"/>
<path d="M70.56 9.82007C66.96 9.82007 65.81 16.4701 71.14 16.1101C74.26 15.6601 74.71 10.1401 70.56 9.82007Z" fill="#CA8F05"/>
<path d="M109.41 20C106.65 20.14 103.96 23.3 106.1 26.46C111.18 32.32 117.77 21.22 109.41 20Z" fill="#FFB401"/>
<path d="M85.84 12.5C88.78 15.42 94.98 11.07 91.7 6.87002C88.42 2.67002 81.7 7.98002 85.59 12.26L85.84 12.5Z" fill="#FFB401"/>
<path d="M55 7.85005C59.64 11.0001 64.13 1.22005 57 0.490051C53.65 0.500051 51.4 5.47005 55 7.85005Z" fill="#FFB401"/>
<path d="M7.92 26.4501C10.71 23.0001 5.06 17.2001 1.43 21.5201C-2 25.4101 4.46 31.0001 7.92 26.4501Z" fill="#FFB401"/>
<path d="M25.5 13.5001C26.6013 13.4859 27.6531 13.0407 28.43 12.2601C33.6 -0.999948 12.48 8.62005 25.5 13.5001Z" fill="#FFB401"/>
<path d="M83.7 81.63C72.63 91.98 17.45 87.74 30.64 74.63C38.7671 78.8731 47.834 80.9953 57 80.8C64.4767 80.9715 71.9094 79.6102 78.84 76.8H78.91C80.17 76.27 81.45 75.71 82.68 75.07L83.37 74.7C86 75.5 86 79.49 83.7 81.63V81.63Z" fill="#FFB401"/>
<path d="M106.7 27.77C94.1173 40.3594 85.7703 56.5569 82.82 74.11C74.8568 78.2451 65.9806 80.3085 57.01 80.11C48.0392 80.3098 39.1627 78.2463 31.2 74.11C28.2427 56.5592 19.8968 40.3637 7.32 27.77C7.69967 27.506 8.03688 27.1856 8.32 26.82C16.2109 34.3971 22.9491 43.0894 28.32 52.62C37.55 71.62 37.7 48.25 36.22 40.04C34.9726 30.7477 31.8713 21.8007 27.1 13.73C27.6083 13.5459 28.0792 13.2715 28.49 12.92C40.84 28.73 41.92 65.73 51 57.16C56.65 42.4 55.18 24.9 55.78 8.76C56.1808 8.84971 56.5894 8.89995 57 8.91C57.5 8.91 57 8.91 58.27 8.75C58.89 24.27 57.27 41.9 63.04 57.15C65.04 59.63 68.73 58.15 69.67 54.51C74.28 40.91 77.05 25.24 85.53 12.91C85.9444 13.2616 86.4186 13.536 86.93 13.72C79.73 23.05 71.71 61.18 81.17 59.44C88.64 48.88 95.26 35.85 105.71 26.81C105.993 27.1755 106.326 27.4988 106.7 27.77V27.77Z" fill="#FFB401"/>
<path d="M109.41 19.49C106.41 19.67 103.41 22.86 105.51 26.49C95.8 35 88.23 46.1 82.11 57.81C83.7529 47.0342 86.9812 36.5608 91.69 26.73C104.02 22.23 83.94 14.35 89.58 25.84C84.9927 34.462 81.1197 43.4454 78 52.7C77.33 39.1014 80.698 25.6086 87.68 13.92C92.21 14.92 95.58 7.92002 90.58 5.30002C86.24 3.00002 81.65 8.80002 85.28 12.66C77.15 23.36 74.38 37.6 70.17 50.51C70.1657 50.5332 70.1657 50.5569 70.17 50.58C69.9037 39.2009 70.2843 27.8159 71.31 16.48C81.87 8.89002 60.59 6.61002 68.98 16.18C67.38 29.25 65.45 42 62.85 55.41C59 40.77 58.47 24 59 8.48002C62.82 6.84002 62 0.0700229 57 2.28507e-05C52.8 -0.129977 50.6 6.19002 55 8.48002C55.47 23.99 55.12 39.88 51.14 55.41C48.75 43.15 46.58 29.24 45.02 16.18C53.25 6.18002 32.16 9.33002 42.7 16.48C43.7273 27.8158 44.108 39.2009 43.84 50.58C43.84 50.58 43.84 50.58 43.84 50.51C39.72 38.06 37.1 23.76 28.76 12.69C31.87 9.92002 28.66 2.91002 23.5 5.34002C18.88 7.34002 21.04 14.86 26.41 13.95C33.3955 25.6254 36.7575 39.1118 36.07 52.7C32.9304 43.4437 29.0374 34.4603 24.43 25.84C29.75 14.04 10.15 22.61 22.33 26.73C27.0431 36.5591 30.2716 47.0332 31.91 57.81C26.08 46.61 18.37 35.09 8.51 26.48C10.88 23.15 6.18 16.96 1.74 20.48C-2.59 23.66 1.91 30.93 7.05 27.94C19.2449 40.5896 27.3738 56.6002 30.39 73.91C20.39 82.33 40.61 87.15 46.74 87.71C53.546 88.7212 60.464 88.7212 67.27 87.71C73.7 87.13 93.57 82.16 83.63 73.91C86.3 57.17 94.89 40.57 106.94 28C113.29 31.49 117.45 20.33 109.41 19.49V19.49ZM88.79 23.18C90.67 15.18 99.91 24.58 91.86 26.35C91.1855 26.3166 90.537 26.0795 90 25.67C89.2648 25.0469 88.8256 24.1432 88.79 23.18ZM78.06 54.39C81.3847 44.6895 85.3158 35.2074 89.83 26C90.2562 26.3246 90.753 26.5439 91.28 26.64C86.13 36.53 83.22 47 81.35 58.53C78.88 59.84 78.03 57.15 78.06 54.39ZM84.44 9.39002C90.14 -3.99998 98.31 18.39 85.59 12.23C84.8586 11.4768 84.4465 10.47 84.44 9.42002V9.39002ZM67.39 13C67.49 8.77002 74.71 8.84002 73.55 14.06C72.49 17.07 68 17 67.39 13ZM63.26 56.14C65.9494 42.9798 67.9521 29.6885 69.26 16.32C69.8452 16.5169 70.466 16.5851 71.08 16.52C69.6126 28.4602 69.1077 40.4989 69.57 52.52C68.8 55.6 66.13 59.93 63.25 56.18L63.26 56.14ZM55 7.85002C52 6.27002 52.8 0.700023 57 0.490023C62.57 0.760023 62.12 10.67 55 7.85002ZM42.69 16.07C39.29 15.37 39.69 8.84002 44.46 9.98002C46.018 10.5631 46.8634 12.2484 46.3991 13.8458C45.9348 15.4432 44.3178 16.4129 42.69 16.07ZM43.8 24.45C43.59 21.79 43.26 19.16 42.93 16.52C43.5406 16.6035 44.1624 16.5348 44.74 16.32C46.0534 29.6878 48.056 42.9788 50.74 56.14C48.44 59.53 45.1 56.14 44.43 52.48C44.7507 43.1323 44.5403 33.7739 43.8 24.45ZM26.11 13.45C11.62 9.35002 33.94 -1.34998 28.43 12.26C27.8042 12.8951 26.9909 13.3122 26.11 13.45ZM22.11 26.35C11.4 21.81 29.61 15.73 24 25.67C23.4581 26.0634 22.8177 26.2988 22.15 26.35H22.11ZM31.29 51.1C29.5365 42.6166 26.6612 34.4045 22.74 26.68C23.27 26.5702 23.7667 26.3373 24.19 26C28.7246 35.2034 32.6693 44.6859 36 54.39C36 55.76 35.58 60.33 32.71 58.53C32.39 56.88 31.84 53.76 31.29 51.1V51.1ZM6.94 27.42C3.48 30.12 -2.23 24.49 2.06 20.89C5.34 17.94 10.69 22.43 7.92 26.45C7.65044 26.8264 7.31909 27.1543 6.94 27.42V27.42ZM85.28 76.55C89.07 93 15.83 89.61 30.64 74.63C38.7674 78.8723 47.8341 80.9945 57 80.8C65.909 80.9988 74.7306 79.0072 82.69 75L83.38 74.63C84.2327 75.0077 84.9113 75.6935 85.28 76.55ZM99.64 35.72C90.978 46.9485 85.2026 60.1303 82.82 74.11C74.8568 78.2451 65.9806 80.3085 57.01 80.11C48.0392 80.3098 39.1627 78.2463 31.2 74.11C28.2477 56.5575 19.9011 40.3606 7.32 27.77C7.69967 27.506 8.03688 27.1857 8.32 26.82C16.2109 34.3971 22.9491 43.0894 28.32 52.62C37.55 71.62 37.7 48.25 36.22 40.04C34.9726 30.7478 31.8713 21.8008 27.1 13.73C27.6083 13.5459 28.0792 13.2715 28.49 12.92C40.84 28.73 41.92 65.73 51 57.16C56.65 42.4 55.18 24.9 55.78 8.76002C56.1808 8.84973 56.5894 8.89997 57 8.91002C57.5 8.91002 57 8.91002 58.27 8.75002C58.89 24.27 57.27 41.9 63.04 57.15C65.04 59.63 68.73 58.15 69.67 54.51C74.28 40.91 77.05 25.24 85.53 12.91C85.9444 13.2616 86.4186 13.536 86.93 13.72C79.73 23.05 71.71 61.18 81.17 59.44C88.64 48.88 95.26 35.85 105.71 26.81C105.996 27.1727 106.333 27.4926 106.71 27.76C104.15 30.2258 101.786 32.8871 99.64 35.72V35.72ZM109.41 28.15C108.109 28.1035 106.896 27.4805 106.1 26.45C102.5 13.59 122 23.73 109.41 28.15Z" fill="#B06305"/>
<path d="M54.15 3.88C54.5 4.79 56.96 2.61 56.77 1.88C56.58 1.15 53.45 2 54.15 3.88Z" fill="white"/>
<path d="M23.08 7.19C22.19 7.19 21.3 9.8 22.08 10.31C22.86 10.82 23.46 7.19 23.08 7.19Z" fill="white"/>
<path d="M2.13 22.48C1.62 22.48 1.05 24.83 1.81 25.66C2.57 26.49 2.77 22.48 2.13 22.48Z" fill="white"/>
<path d="M87 6.94002C86.07 6.78002 84.36 9.29002 85.92 11.08C86.31 11.59 87.33 7.00002 87 6.94002Z" fill="white"/>
<path d="M108 21.2C107 20 104.53 24 106.24 25.09C106.75 25.41 108.22 21.52 108 21.2Z" fill="white"/>
<path opacity="0.3" d="M35.91 54.23C35.9235 54.2843 35.9402 54.3377 35.96 54.39C35.96 55.76 35.54 60.33 32.67 58.53C32.07 55.02 31.25 50.37 30.07 45.98C32.23 49.49 32.98 49.07 32.16 43.98C33.42 47.21 34.5 50.08 35.91 54.23V54.23Z" fill="#CA8F05"/>
<path opacity="0.3" d="M50.3 53.93C50.46 54.66 50.61 55.4 50.75 56.14C48.45 59.53 45.11 56.14 44.44 52.48C44.55 50.05 44.61 47.26 44.6 43.86C45.91 47.86 47.66 48.77 48.39 43.44C48.87 46.22 49.48 50 50.3 53.93V53.93Z" fill="#CA8F05"/>
<path opacity="0.3" d="M69.54 51.53V52.48C68.77 55.56 66.1 59.89 63.22 56.14C64 52.54 64.86 47.94 65.6 43.32C66.49 49.94 68.05 46.4 69.42 40.23C69.41 43.35 69.38 47.41 69.54 51.53Z" fill="#CA8F05"/>
<path opacity="0.3" d="M83.77 46.67C82.87 50.06 82.13 53.97 81.35 58.53C78.88 59.84 78.03 57.15 78.06 54.39C78.94 51.75 80.21 48.19 81.63 44.58C81.31 47.7 81.05 51.94 83.77 46.67V46.67Z" fill="#CA8F05"/>
<path d="M8.75 28.21C14.35 33.56 26.45 50.37 32.57 63.49C30 52.79 14.86 31.26 8.75 28.21Z" fill="#FFD673"/>
<path d="M29 15.22C37 29.1 42 55.59 42.76 62.72C42.25 47.69 37 25.66 29 15.22V15.22Z" fill="#FFD673"/>
<path d="M105 28.21C99.4 33.56 87.3 50.37 81.19 63.49C83.77 52.79 98.92 31.26 105 28.21Z" fill="#FFD673"/>
<path d="M84.78 15.22C76.78 29.1 71.78 55.59 71.03 62.72C71.54 47.69 76.76 25.66 84.78 15.22V15.22Z" fill="#FFD673"/>
<path d="M57 10.12V66C55.2991 47.4122 55.2991 28.7078 57 10.12V10.12Z" fill="#FFD673"/>
<path opacity="0.3" d="M86 61.25C84.5691 65.437 83.5019 69.7396 82.81 74.11C74.8468 78.2451 65.9706 80.3085 57 80.11C48.0293 80.3098 39.1527 78.2463 31.19 74.11C30.4731 69.5855 29.3519 65.1343 27.84 60.81C39 79 76.8 77.24 86 61.25Z" fill="#CA8F05"/>
<path opacity="0.4" d="M81.06 65.72C81.0556 65.5154 81.0356 65.3115 81 65.11C80.9812 65.0436 80.9544 64.9798 80.92 64.92C76.47 60.22 75.2 64.4 71.11 65.99C70.03 66.38 69.57 65.76 68.57 64.41C63.57 53.48 63.85 65.46 58.11 68.46C57.63 68.52 57.23 68.56 56.91 68.58C56.59 68.58 56.18 68.52 55.71 68.46C53.37 67.54 50.44 61.38 49.03 59.96C44.59 60.23 46.46 71.04 37.72 62.85C36.82 61.74 33.92 63.91 32.9 64.92C32.8656 64.9798 32.8388 65.0436 32.82 65.11C32.82 67.64 33.07 73.49 35.91 74.47C42.29 79.6 71.71 79.47 78.01 74.47C80.38 73.83 81 68.23 81.06 65.72V65.72Z" fill="#FFD673"/>
<path opacity="0.4" d="M38.55 79.28C32.13 90.59 73.25 86.03 74.85 84.12C77.26 77.5 71.46 80.55 65.78 81.28C56.11 84.21 39.24 78.94 38.55 79.28Z" fill="#FFD673"/>
<path opacity="0.3" d="M36.32 77.22C35.09 78.43 34.08 80.66 36 84.47C32.4 84.07 24.77 78.28 30.64 74.63C32.4801 75.6056 34.3768 76.4705 36.32 77.22Z" fill="#CA8F05"/>
<path opacity="0.3" d="M83.7 81.63C82.2514 82.832 80.5693 83.7207 78.76 84.24C80.5347 82.0716 80.6007 78.9721 78.92 76.73C80.18 76.2 81.46 75.64 82.69 75L83.38 74.63C86 75.5 86 79.49 83.7 81.63V81.63Z" fill="#CA8F05"/>
</g>
<defs>
<clipPath id="clip0_1_2568">
<rect width="114" height="89" fill="white"/>
</clipPath>
</defs>
</svg>
