<svg width="69" height="53" viewBox="0 0 69 53" fill="none" xmlns="http://www.w3.org/2000/svg">
<path d="M50.61 16.09C46.5585 19.9242 45.6652 26.0367 48.45 30.87C44.3 33.09 40.45 30.79 39.84 25.18C39.18 20.48 41 15.53 43.64 10.61C43.4689 9.6131 43.1628 8.64418 42.73 7.72999C43.5847 7.17079 44.5385 6.78043 45.54 6.57999C47.9048 9.34131 49.6354 12.5875 50.61 16.09V16.09Z" fill="#CA8F05"/>
<path d="M28.51 23C28.507 23.7291 28.4569 24.4573 28.36 25.18C28.09 28.99 25.08 33.7 19.76 30.87C22.5073 26.0296 21.6176 19.9418 17.6 16.09C18.5472 12.5787 20.2771 9.3274 22.66 6.57999C23.6538 6.81512 24.6052 7.20307 25.48 7.72999C25.0396 8.64117 24.7331 9.61118 24.57 10.61C26.19 13.9 28.52 18.3 28.51 23V23Z" fill="#CA8F05"/>
<path d="M67.38 14.13C60.8336 24.7145 55.9818 36.2571 53 48.34C40.9254 53.296 27.3846 53.296 15.31 48.34C12.2885 36.2525 7.39971 24.7104 0.82 14.13C5.71251 13.5304 10.6512 14.7981 14.65 17.68C13.52 42.83 38.83 33.37 25.17 10.37C25.6 7.68 28.17 4.37 30.95 2.54C31.9664 1.84948 33.0178 1.21196 34.1 0.630005C37.53 2.55 42 5.42 43 10.38C29 35.38 55.6 40.89 53.53 17.68C57.5396 14.8049 62.4817 13.5381 67.38 14.13V14.13Z" fill="#FFB401"/>
<path d="M67.65 13.72H67.46C63.02 13.09 57.07 13.96 52.83 17.44C53.12 21.44 53.43 27.57 48.83 30.65C46.65 26.65 46.71 20.29 51.14 16.49C50.2043 12.594 48.3531 8.97737 45.74 5.94C44.5769 6.20903 43.454 6.62927 42.4 7.19C41.08 4.54 37.59 1.55 34.1 0C31.1 1.57 27.86 3.42 25.77 7.16C24.728 6.57322 23.6012 6.15155 22.43 5.91C19.8194 8.95331 17.9595 12.5669 17 16.46C20.9264 20.0923 21.8749 25.9317 19.3 30.62C15.58 28 14.7 22.49 15.38 17.41C11.2071 14.2426 5.92907 12.9005 0.75 13.69L0 13.83C6.74188 24.6194 11.6642 36.4437 14.57 48.83C27.0493 54.1363 41.1507 54.1363 53.63 48.83C56.5434 36.4446 61.4688 24.6209 68.21 13.83L67.65 13.72ZM44.23 7C44.6565 6.83801 45.0944 6.70766 45.54 6.61C47.913 9.36573 49.6446 12.6139 50.61 16.12C47 19.34 45.4 25.91 48.45 30.87C44.3 33.09 40.45 30.79 39.84 25.18C39.18 20.48 41 15.53 43.64 10.61C43.4689 9.61311 43.1628 8.64419 42.73 7.73C43.2088 7.44531 43.7105 7.20113 44.23 7V7ZM21.32 23.36C20.8979 20.5984 19.5928 18.0478 17.6 16.09C18.5565 12.5824 20.2853 9.33306 22.66 6.58C23.6538 6.81513 24.6052 7.20308 25.48 7.73C25.0413 8.64184 24.7348 9.61161 24.57 10.61C26.51 14.61 29.22 19.61 28.36 25.18C28.09 28.99 25.08 33.7 19.76 30.87C21.0379 28.5859 21.5825 25.9641 21.32 23.36ZM64.77 18.53C59.5405 27.9 55.5824 37.9248 53 48.34C40.9265 53.3014 27.3835 53.3014 15.31 48.34C12.2885 36.2525 7.39971 24.7104 0.82 14.13C5.71263 13.5283 10.652 14.7962 14.65 17.68C13.52 42.83 38.83 33.37 25.17 10.37C25.84 6.37 30.12 2.6 34.1 0.63C37.8 2.73 42 5.47 43 10.38C29.08 35.49 55.58 40.89 53.52 17.68C57.5274 14.8246 62.4526 13.5595 67.34 14.13C66.47 15.57 65.61 17 64.77 18.53Z" fill="#B06305"/>
<path opacity="0.4" d="M28.51 23C28.507 23.7291 28.4569 24.4573 28.36 25.18C27.88 28.18 26.36 32.85 21.41 31.5C19.36 30.82 19.7 31.26 20.78 28.66C27.7 32.48 27.89 17.66 21.04 8.66C21.5368 7.93723 22.0778 7.24591 22.66 6.59C23.6538 6.82513 24.6052 7.21308 25.48 7.74C25.0396 8.65118 24.7331 9.62119 24.57 10.62C26.19 13.9 28.52 18.3 28.51 23V23Z" fill="#CA8F05"/>
<path opacity="0.4" d="M48.45 30.87C44.3 33.09 40.45 30.79 39.84 25.18C39.18 20.48 41 15.53 43.64 10.61C43.4689 9.6131 43.1628 8.64418 42.73 7.72999C43.5847 7.17079 44.5385 6.78043 45.54 6.57999C45.85 6.96999 46.29 7.41999 47.15 8.57999C39.57 18.83 41.15 32.51 47.42 28.58C47.6685 29.3825 48.0144 30.1516 48.45 30.87V30.87Z" fill="#CA8F05"/>
<path opacity="0.4" d="M63 16.29C58.83 22 53 37.75 51.52 46.65C39.52 51.9 29.33 51.88 17.03 46.65C15.6 37.75 9.72 22 5.59 16.29C8.59 16.29 12.26 18.51 12.26 18.51C11.26 38.03 30.09 40.14 31.16 27.51C32.88 11.51 22.65 11.68 34.28 2.79001C46.21 11.32 34.69 15.12 37.53 28.59C38.22 35.91 44.66 35.68 49.34 34.64C54.26 34.03 57.26 19.48 56.29 18.51C56.29 18.51 59.94 16.29 63 16.29V16.29Z" fill="#FFD673"/>
<path opacity="0.3" d="M18.62 47.44L19.1 49.74C17.7944 49.3467 16.5123 48.8793 15.26 48.34C12.2541 36.2554 7.38223 24.7135 0.82 14.13C2.79456 13.9014 4.79178 13.9586 6.75 14.3C10.58 22.52 16 34.91 18.62 47.44Z" fill="#CA8F05"/>
<path opacity="0.3" d="M67.38 14.13C60.8336 24.7145 55.9818 36.2571 53 48.34C51.6023 48.9478 50.1658 49.4623 48.7 49.88C50.89 39.58 55.86 26.62 62.49 14.15C64.1136 13.9523 65.7548 13.9456 67.38 14.13V14.13Z" fill="#CA8F05"/>
<path opacity="0.3" d="M27.05 10.25C27.36 11.84 33.6 24.25 26.83 30.93C30.95 25.1 28.89 16.93 25.17 10.37C25.6 7.68001 28.17 4.37001 30.95 2.54001C28 5.66001 26.79 9.00001 27.05 10.25V10.25Z" fill="#CA8F05"/>
<path opacity="0.3" d="M39.11 21.75C38.9211 24.313 39.3462 26.8842 40.35 29.25C34.06 16.03 46.68 12.17 38.28 3.25C40.22 4.9 42.34 7.02 43.03 10.34C41.0038 13.8568 39.673 17.7305 39.11 21.75Z" fill="#CA8F05"/>
<path opacity="0.2" d="M63 16.29C58.83 22 53 37.75 51.52 46.65C46.1358 49.2085 40.241 50.5112 34.28 50.46C35.82 51.12 35.61 1.29001 34.28 2.79001C46.21 11.32 34.69 15.12 37.53 28.59C38.22 35.91 44.66 35.68 49.34 34.64C54.26 34.03 57.26 19.48 56.29 18.51C56.29 18.51 59.94 16.29 63 16.29V16.29Z" fill="#CA8F05"/>
</svg>
