<svg width="143" height="94" viewBox="0 0 143 94" fill="none" xmlns="http://www.w3.org/2000/svg">
<path d="M112.45 36.2701C97.76 21.6101 88.37 29.7001 69.67 29.7901C53.19 28.2301 41.43 23.5201 29.67 36.2701C36.41 59.7001 105.52 53.8201 112.45 36.2701Z" fill="#FF0808"/>
<path d="M28.16 56.51C30.6 63.16 32.06 69.78 35.43 76.13C40.73 78.52 54.66 80.22 70.93 80.25C71.0266 80.2434 71.1235 80.2434 71.22 80.25C87.49 80.25 101.42 78.52 106.72 76.13C109.78 70.53 111.44 63.52 113.99 56.51C92.38 68.36 48.27 67.65 28.16 56.51V56.51Z" fill="#D30505"/>
<path d="M71.07 48.49C54.74 48.49 40.07 43.79 29.69 36.27C25.1 42.1 26 49.37 28.16 56.51C46.06 70.12 95.69 70.19 113.99 56.51C116.13 49.37 117.05 42.1 112.45 36.27C102.1 43.79 87.4 48.49 71.07 48.49V48.49Z" fill="#EF0000"/>
<path d="M70.29 83.8701C45.38 82.8701 31.03 83.1001 25.06 65.8701C18.17 52.4901 5.46 27.7901 5.44 27.7401H12C40.37 48.3201 56.09 38.8301 68 10.7401H72.8C85.74 42.2001 103.55 46.2301 128.8 27.7401H135.39C106.71 79.7401 118.87 82.0101 72.33 83.8601C71.9 83.8801 71.42 83.8701 70.29 83.8701ZM97.29 58.4301C90.84 57.7201 75.71 75.0701 88.29 76.3301C95.73 75.1401 100.29 75.3301 104.5 73.3301C109.27 68.2701 106.45 59.0001 97.29 58.4301V58.4301ZM43.57 58.4301C29.51 60.2801 32.63 76.1901 43.38 75.0801C69 81.8401 53.71 59.3001 43.57 58.4301V58.4301Z" fill="#E59F23"/>
<path d="M70.41 11.48H68.51C55.8 42.36 37.58 47.37 11.79 28.53H6.72C34.78 79.43 22.6 81.23 68.51 83.07H70.42V11.48H70.41ZM52.51 77.11C22.91 77 32.77 56.6 45.07 57.77C52.8 58.65 65.63 76.22 52.51 77.11Z" fill="#FDC33C"/>
<path d="M72.32 83.07C81.93 82.95 106.69 81.85 110.77 73.86L134.1 28.53H129C101.27 48.76 84.31 40.21 72.29 11.53H70.39V83.09H72.29L72.32 83.07ZM83.24 69.25C93.77 48.76 113.07 59.41 105.74 73.15C101.13 76.9 78.16 81.05 83.24 69.25Z" fill="#EFAD29"/>
<path d="M70.41 36.48L61.67 49.88L70.41 68.02L79.15 49.88L70.41 36.48Z" fill="#DEA221"/>
<path d="M70.48 40.09L63.7 50.42L70.48 64.4L77.27 50.42L70.48 40.09Z" fill="#FF0808"/>
<path d="M70.48 41.33L64.38 50.6L70.48 63.17V41.33Z" fill="#FF2C2C"/>
<path d="M69.02 44.5601L64.92 50.8001L69.02 59.2401V44.5601Z" fill="#FF6969"/>
<path d="M111.35 73.11C106.92 83.11 31.64 82.11 29.46 73.11H29.37V82.47C29.37 86.75 47.74 90.22 70.37 90.22C93 90.22 111.37 86.75 111.37 82.47V73.11H111.35Z" fill="#FDC33C"/>
<path d="M111.45 82C112.56 93 27.17 92.5 29.37 82C21.24 84.65 40.78 93.57 70.37 93.2C104.19 93.48 118.77 84.36 111.45 82Z" fill="#E59F23"/>
<path d="M70.41 92.1601C53.17 92.1601 42.05 89.9201 35.6 87.6501C53.85 92.8601 104.98 93.2501 112.25 83.4901L112.41 83.6001C111.8 85.2901 103.2 92.1601 70.41 92.1601ZM29.29 84.5301C28.9353 84.2618 28.6421 83.9209 28.43 83.5301C28.4719 83.4933 28.5191 83.4629 28.57 83.4401C28.7417 83.8442 28.9857 84.2135 29.29 84.5301Z" fill="#FDC33C"/>
<path d="M112.33 70.78L111.56 71.5C102.94 81.43 32.73 81.03 29.37 71.28L28.31 70.58C23 74.42 41.44 82.8 74.85 82C105.81 81.43 117.05 73.56 112.33 70.78V70.78Z" fill="#E59F23"/>
<path d="M70.41 81.0001C40.17 81.0001 28.73 74.1001 28.41 72.2501C28.3996 72.1436 28.3996 72.0365 28.41 71.9301L28.52 72.0001C35.99 84.0001 107.32 80.9301 112.37 72.1901L112.45 72.1201V72.2801C112.39 73.5901 104.38 81.0001 70.41 81.0001Z" fill="#FDC33C"/>
<path d="M36.15 81.19C36.0716 82.3557 35.1033 83.2611 33.935 83.2611C32.7667 83.2611 31.7984 82.3557 31.72 81.19C31.7984 80.0244 32.7667 79.119 33.935 79.119C35.1033 79.119 36.0716 80.0244 36.15 81.19V81.19Z" fill="#EFAD29"/>
<path d="M33.93 83C31.16 83 32.46 77.42 35.41 80.36C36 81.52 35.6 82.44 33.93 83Z" fill="#FFCC66"/>
<path d="M33.89 80.9C32.35 81.81 32.54 79.15 34.41 79.9C34.47 80.09 34.5 80.28 33.89 80.9Z" fill="#FFDFA6"/>
<path d="M44 82.94C43.9216 84.1057 42.9533 85.0111 41.785 85.0111C40.6167 85.0111 39.6484 84.1057 39.57 82.94C39.6484 81.7744 40.6167 80.869 41.785 80.869C42.9533 80.869 43.9216 81.7744 44 82.94Z" fill="#EFAD29"/>
<path d="M41.73 84.69C38.96 84.69 40.26 79.11 43.2 82.05C43.8 83.27 43.4 84.18 41.73 84.69Z" fill="#FFCC66"/>
<path d="M51.74 84.68C51.6616 85.8457 50.6933 86.7511 49.525 86.7511C48.3567 86.7511 47.3884 85.8457 47.31 84.68C47.3884 83.5144 48.3567 82.6089 49.525 82.6089C50.6933 82.6089 51.6616 83.5144 51.74 84.68V84.68Z" fill="#EFAD29"/>
<path d="M49.53 86.44C46.75 86.44 48.06 80.86 51 83.79C51.6 85 51.19 85.93 49.53 86.44Z" fill="#FFCC66"/>
<path d="M61.76 85.22C61.6816 86.3857 60.7133 87.2911 59.545 87.2911C58.3767 87.2911 57.4084 86.3857 57.33 85.22C57.4084 84.0544 58.3767 83.1489 59.545 83.1489C60.7133 83.1489 61.6816 84.0544 61.76 85.22V85.22Z" fill="#EFAD29"/>
<path d="M59.55 87C56.77 87 58.08 81.41 61.02 84.35C61.61 85.55 61.21 86.46 59.55 87Z" fill="#FFCC66"/>
<path d="M71.78 85.7601C71.7016 86.9257 70.7333 87.8311 69.565 87.8311C68.3967 87.8311 67.4284 86.9257 67.35 85.7601C67.4284 84.5944 68.3967 83.689 69.565 83.689C70.7333 83.689 71.7016 84.5944 71.78 85.7601Z" fill="#EFAD29"/>
<path d="M69.56 87.51C66.79 87.51 68.09 81.93 71.04 84.87C71.63 86.09 71.23 87 69.56 87.51Z" fill="#FFCC66"/>
<path d="M82.92 85.22C82.8416 86.3857 81.8733 87.2911 80.705 87.2911C79.5367 87.2911 78.5684 86.3857 78.49 85.22C78.5684 84.0544 79.5367 83.1489 80.705 83.1489C81.8733 83.1489 82.8416 84.0544 82.92 85.22Z" fill="#EFAD29"/>
<path d="M80.71 87C77.93 87 79.24 81.41 82.18 84.35C82.78 85.55 82.37 86.46 80.71 87Z" fill="#FFCC66"/>
<path d="M94.07 84.68C93.9916 85.8457 93.0233 86.7511 91.855 86.7511C90.6867 86.7511 89.7184 85.8457 89.64 84.68C89.7184 83.5144 90.6867 82.6089 91.855 82.6089C93.0233 82.6089 93.9916 83.5144 94.07 84.68Z" fill="#EFAD29"/>
<path d="M91.85 86.44C89.08 86.44 90.39 80.86 93.33 83.79C93.92 85 93.52 85.93 91.85 86.44Z" fill="#FFCC66"/>
<path d="M102.35 82.94C102.272 84.1057 101.303 85.0111 100.135 85.0111C98.9667 85.0111 97.9983 84.1057 97.92 82.94C97.9983 81.7744 98.9667 80.869 100.135 80.869C101.303 80.869 102.272 81.7744 102.35 82.94Z" fill="#EFAD29"/>
<path d="M100.13 84.69C97.36 84.69 98.66 79.11 101.61 82.05C102.2 83.27 101.8 84.18 100.13 84.69Z" fill="#FFCC66"/>
<path d="M110.63 81.19C110.63 82.4161 109.636 83.41 108.41 83.41C107.184 83.41 106.19 82.4161 106.19 81.19C106.19 79.964 107.184 78.97 108.41 78.97C109.636 78.97 110.63 79.964 110.63 81.19Z" fill="#EFAD29"/>
<path d="M108.41 83C105.64 83 106.94 77.42 109.88 80.36C110.48 81.52 110.08 82.44 108.41 83Z" fill="#FFCC66"/>
<path d="M41.52 82.7301C39.98 83.6301 40.16 80.9701 42.03 81.7301C42.09 81.9101 42.12 82.1001 41.52 82.7301Z" fill="#FFDFA6"/>
<path d="M49.3 84.5C47.76 85.4 47.95 82.75 49.82 83.5C49.88 83.68 49.91 83.87 49.3 84.5Z" fill="#FFDFA6"/>
<path d="M59.31 85C57.77 85.9 57.95 83.25 59.82 84C59.88 84.2 59.91 84.39 59.31 85Z" fill="#FFDFA6"/>
<path d="M69.32 85.56C67.77 86.46 67.96 83.81 69.83 84.56C69.89 84.74 69.92 84.93 69.32 85.56Z" fill="#FFDFA6"/>
<path d="M80.57 85C79.03 85.9 79.21 83.25 81.08 84C81.14 84.2 81.17 84.39 80.57 85Z" fill="#FFDFA6"/>
<path d="M91.67 84.5101C90.13 85.4201 90.31 82.7601 92.18 83.5101C92.25 83.7001 92.27 83.8901 91.67 84.5101Z" fill="#FFDFA6"/>
<path d="M99.77 82.7301C98.23 83.6301 98.41 80.9701 100.28 81.7301C100.35 81.9101 100.38 82.1001 99.77 82.7301Z" fill="#FFDFA6"/>
<path d="M108.27 81C106.72 81.91 106.91 79.25 108.78 80C108.84 80.18 108.87 80.37 108.27 81Z" fill="#FFDFA6"/>
<path d="M78.24 5.00003C81.14 15 67.34 19 63.91 10.06C61 2.95639e-05 74.81 -3.93997 78.24 5.00003V5.00003Z" fill="#FF0808"/>
<path d="M72.58 1.35002C75.18 4.21002 67.77 11.22 64.72 8.17002C62.12 5.30002 69.53 -1.69998 72.58 1.35002V1.35002Z" fill="#FF5F5F"/>
<path d="M69.86 2.19003C71.45 3.75003 66.13 8.64003 65.13 5.35003C64.91 3.43003 68.08 0.880032 69.86 2.19003V2.19003Z" fill="#FFA9A9"/>
<path d="M13 20.68C19.88 28.18 9.31 38.05 2.25 31.43C-4.65 23.93 5.92 14.05 13 20.68Z" fill="#FF0808"/>
<path d="M6.32 19.87C9.9 21.33 6.24 30.87 2.18 29.41C-1.41 28 2.25 18.43 6.32 19.87Z" fill="#FF5F5F"/>
<path d="M4.23 21.8C6.35 22.53 3.65 29.24 1.33 26.7C0.309997 25.06 2.06 21.39 4.23 21.8V21.8Z" fill="#FFA9A9"/>
<path d="M141.87 24.09C144 34.31 129.93 37.15 127.2 28C125.08 17.81 139.14 15 141.87 24.09Z" fill="#FF0808"/>
<path d="M136.51 20.06C138.88 23.11 130.95 29.52 128.15 26.25C125.78 23.19 133.71 16.78 136.51 20.06Z" fill="#FF5F5F"/>
<path d="M133.73 20.68C135.2 22.37 129.52 26.83 128.78 23.47C128.71 21.54 132.06 19.24 133.73 20.68Z" fill="#FFA9A9"/>
</svg>
