<svg width="105" height="73" viewBox="0 0 105 73" fill="none" xmlns="http://www.w3.org/2000/svg">
<path d="M76.34 37.61L52.44 0L28.5 37.61L0.5 14.82L12.35 61.32H92.5L104.36 14.82L76.34 37.61Z" fill="#FFCC01"/>
<path d="M10.72 61.32H92.99V63.13H10.72V61.32Z" fill="#FFCC01"/>
<path d="M10.72 70.56H92.99V72.37H10.72V70.56Z" fill="#FFCC01"/>
<path d="M11.76 63.13H91.99V70.58H11.76V63.13Z" fill="#FFCC01"/>
<path d="M11.76 63.13H91.99V64.4H11.76V63.13Z" fill="#F1A919"/>
<path d="M11.76 69.28H91.99V70.55H11.76V69.28Z" fill="#F1A919"/>
<path d="M0.5 14.82L24.64 61.32H12.35L0.5 14.82Z" fill="#F1A919"/>
<path d="M28.54 37.61L52.44 54.77V0L28.54 37.61Z" fill="#F1A919"/>
<path d="M76.34 37.61V51.21L104.38 14.82L76.34 37.61Z" fill="#F1A919"/>
<path d="M26.44 37.6001C26.16 37.66 4.44 19.47 3.36 18.71C2.5 16.45 9.71 23.3 16.11 28.34C21.76 33.48 27.66 36.8 26.44 37.6001V37.6001Z" fill="white"/>
<path d="M74.13 36.91C73.77 36.57 52.81 3.83 53.35 3.16982C53.83 3.08 75.2 36.49 74.13 36.91Z" fill="white"/>
<path d="M92.99 55.1C92.28 55.34 102.57 15.39 103.42 17.54C103.05 18 93.76 55 92.99 55.1V55.1Z" fill="white"/>
<path d="M84.15 60.93C83.82 60.61 58.53 61.56 58.5098 60.6C58.42 60.26 85.77 59.41 84.15 60.93Z" fill="white"/>
<path d="M90.36 60.93C90.27 60.71 85.96 61.54 87.36 60.27C87.41 60.49 91.72 59.67 90.36 60.93Z" fill="white"/>
</svg>
