<svg width="103" height="69" viewBox="0 0 103 69" fill="none" xmlns="http://www.w3.org/2000/svg">
<path d="M79.87 22.54C78.706 21.7583 77.4704 21.0886 76.18 20.54C74.7285 25.7411 74.1971 31.1559 74.61 36.54C72.7606 37.6878 70.8512 38.7359 68.89 39.68C66.8624 37.9788 64.9793 36.1124 63.26 34.1C66.8852 29.6738 69.6464 24.6059 71.4 19.16L70.89 19.08C70.09 18.95 69.65 18.88 68.12 18.74C71.7009 16.4581 74.7662 13.4541 77.12 9.92001C77.3322 14.2498 78.2615 18.5145 79.87 22.54V22.54Z" fill="#CA8F05"/>
<path d="M39.41 34.11C37.6904 36.1221 35.8073 37.9884 33.78 39.69C31.8174 38.7487 29.9078 37.7005 28.06 36.55C28.45 31.1662 27.919 25.7553 26.49 20.55C25.1954 21.0964 23.9563 21.7662 22.79 22.55C24.3953 18.5204 25.3212 14.2525 25.53 9.92001C27.8624 13.4717 30.9319 16.4798 34.53 18.74C33.79 18.8 32.88 18.88 31.25 19.16C32.983 24.6219 35.7537 29.698 39.41 34.11Z" fill="#CA8F05"/>
<path d="M101.07 17.58C90.0911 29.8434 82.1536 44.5193 77.9 60.42C69.8321 65.1758 60.6913 67.811 51.33 68.08C41.9677 67.8374 32.8237 65.2002 24.77 60.42C20.5231 44.5217 12.5885 29.8483 1.60999 17.59C7.47752 19.2658 13.1522 21.5551 18.54 24.42C17.2534 24.914 16.0699 25.6431 15.05 26.57C20.3734 32.381 26.749 37.1313 33.84 40.57C39.7429 35.7864 44.299 29.5485 47.06 22.47C47.16 22.2 47.26 21.94 47.35 21.67L46.9 21.85C45.1064 22.5531 43.2472 23.0756 41.35 23.41C46.0166 16.946 49.4103 9.65292 51.35 1.92001C53.2952 9.65096 56.6885 16.943 61.35 23.41C59.2956 23.0375 57.285 22.4544 55.35 21.67C55.44 21.94 55.54 22.2 55.64 22.47C55.92 23.2 55.71 22.67 56.29 24.11C59.0923 30.5269 63.3925 36.1783 68.83 40.59C75.9172 37.1452 82.2917 32.3956 87.62 26.59C86.5879 25.6794 85.4075 24.9523 84.13 24.44C89.5206 21.5659 95.1985 19.2666 101.07 17.58V17.58Z" fill="#FFB401"/>
<path d="M101.74 16.84C95.0286 18.5449 88.5701 21.1236 82.53 24.51C84.005 25.0272 85.3862 25.7804 86.62 26.74C83.2573 30.3383 79.45 33.4937 75.29 36.13C75.0458 31.1807 75.4356 26.2204 76.45 21.37C78.0361 22.1227 79.5785 22.964 81.07 23.89C79.0675 19.193 77.9097 14.1794 77.65 9.08V8.08C74.9755 12.5256 71.2009 16.2072 66.69 18.77C66.46 18.92 66.24 19.09 66.03 19.25C66.3143 19.3054 66.6014 19.3454 66.89 19.37C67.72 19.47 68.29 19.37 70.67 19.65C68.7927 24.6675 66.0886 29.3354 62.67 33.46C60.03 30.1536 57.816 26.5285 56.08 22.67C58.2343 23.462 60.4837 23.9663 62.77 24.17C57.3945 16.9499 53.506 8.73443 51.33 0C49.05 8.29 45.73 16.62 39.84 24.17C42.1296 23.967 44.3824 23.4626 46.54 22.67C44.82 26.5261 42.6228 30.1511 40 33.46C36.5884 29.3304 33.8851 24.6638 32 19.65C33.2516 19.4654 34.5149 19.3718 35.78 19.37C36.0686 19.3454 36.3557 19.3054 36.64 19.25C36.43 19.09 36.21 18.92 35.98 18.77C31.482 16.2094 27.7181 12.5351 25.05 8.1V9.1C24.7998 14.2093 23.6347 19.2323 21.61 23.93C23.1015 23.004 24.644 22.1627 26.23 21.41C27.2476 26.26 27.6374 31.2206 27.39 36.17C23.2261 33.5391 19.4182 30.3831 16.06 26.78C17.2875 25.8109 18.6705 25.0569 20.15 24.55C13.8345 20.9878 7.05226 18.3254 0 16.64C11.4225 29.1629 19.6554 44.2565 24 60.64C32.1985 65.7848 41.6337 68.6212 51.31 68.85C60.9912 68.6319 70.4324 65.7947 78.63 60.64C82.9772 44.2575 91.2098 29.1645 102.63 16.64L101.74 16.84ZM64.74 32.23C67.677 28.2775 69.9284 23.8592 71.4 19.16L70.89 19.08C70.09 18.95 69.65 18.88 68.12 18.74C71.7009 16.4581 74.7662 13.4541 77.12 9.92C77.3258 14.2487 78.2483 18.5133 79.85 22.54C78.686 21.7582 77.4504 21.0886 76.16 20.54C74.7202 25.7433 74.1891 31.1561 74.59 36.54C72.7406 37.6878 70.8312 38.7359 68.87 39.68C66.8424 37.9787 64.9593 36.1124 63.24 34.1C63.76 33.49 64.23 32.85 64.69 32.23H64.74ZM26.74 21.23C26.68 21.03 26.63 20.83 26.57 20.63C25.2754 21.1764 24.0363 21.8462 22.87 22.63C24.4566 18.5705 25.3555 14.275 25.53 9.92C27.8624 13.4717 30.9319 16.4798 34.53 18.74C33.79 18.8 32.88 18.88 31.25 19.16C32.9796 24.6343 35.7428 29.7262 39.39 34.16C37.6704 36.172 35.7873 38.0384 33.76 39.74C31.7973 38.7987 29.8878 37.7505 28.04 36.6C28.4174 31.4192 27.9513 26.2115 26.66 21.18L26.74 21.23ZM97 22.43C88.0892 33.6478 81.5902 46.5845 77.91 60.43C69.8401 65.1809 60.7005 67.8158 51.34 68.09C41.9789 67.8394 32.8369 65.2028 24.78 60.43C20.5344 44.521 12.5922 29.8394 1.6 17.58C7.47067 19.256 13.1486 21.5453 18.54 24.41C17.2534 24.904 16.0699 25.6331 15.05 26.56C20.3734 32.371 26.7491 37.1213 33.84 40.56C39.7339 35.7718 44.2882 29.5398 47.06 22.47C47.16 22.2 47.26 21.94 47.35 21.67C45.4171 22.4603 43.4058 23.0436 41.35 23.41C46.0166 16.946 49.4103 9.6529 51.35 1.92C53.2952 9.65095 56.6885 16.943 61.35 23.41C59.2956 23.0374 57.285 22.4544 55.35 21.67C55.44 21.94 55.54 22.2 55.64 22.47C58.3731 29.5613 62.9217 35.81 68.83 40.59C75.9189 37.148 82.294 32.3981 87.62 26.59C86.5879 25.6794 85.4075 24.9523 84.13 24.44C89.5218 21.5763 95.1997 19.287 101.07 17.61C99.65 19.16 98.3 20.78 97 22.43V22.43Z" fill="#B06305"/>
<path d="M44.29 28.34C41.8365 33.6361 38.2726 38.3426 33.84 42.14C24.05 38.94 13.72 27 13.72 27C14.065 25.7114 15.0225 24.6754 16.28 24.23C13.87 23.1 1.99999 17.75 1.60999 17.58C7.47752 19.2558 13.1522 21.5451 18.54 24.41C17.2534 24.904 16.0699 25.6331 15.05 26.56C20.3734 32.371 26.749 37.1213 33.84 40.56C38.0287 37.1471 41.5685 33.0077 44.29 28.34V28.34Z" fill="#FFD673"/>
<path d="M86.66 27.62C84.66 30.37 78.29 38.51 68.55 42.46C64.22 38.71 58.55 30.53 56.27 24.12C59.0794 30.5354 63.3865 36.1834 68.83 40.59C75.4821 37.3361 81.5159 32.947 86.66 27.62V27.62Z" fill="#FFD673"/>
<path d="M61.32 23.41C55.32 18.1 51.32 5.73001 51.32 5.73001C51.32 5.73001 45.79 19.89 41.32 23.41C45.9865 16.946 49.3803 9.65292 51.32 1.92001C53.2652 9.65096 56.6585 16.943 61.32 23.41Z" fill="#FFD673"/>
<path opacity="0.2" d="M38 32.23C38.46 32.85 38.93 33.49 39.43 34.11C37.7104 36.122 35.8273 37.9884 33.8 39.69C31.8373 38.7487 29.9278 37.7005 28.08 36.55C28.14 35.63 28.19 34.55 28.2 32.66C30.85 35.43 35.94 35.57 36.52 30.13C37 30.85 37.47 31.55 38 32.23V32.23Z" fill="#CA8F05"/>
<path opacity="0.2" d="M74.61 36.55C72.7606 37.6977 70.8512 38.7459 68.89 39.69C66.8624 37.9887 64.9793 36.1223 63.26 34.11C63.85 33.35 64.66 32.33 65.85 30.61C65.93 35.89 71.85 36.18 74.5 31.88C74.48 32.81 74.49 34.48 74.61 36.55Z" fill="#CA8F05"/>
<path d="M86.14 24.09L87.62 26.56C86.5879 25.6494 85.4075 24.9223 84.13 24.41C89.5219 21.5463 95.1997 19.257 101.07 17.58C96.51 19.78 86.14 24.09 86.14 24.09V24.09Z" fill="#FFD673"/>
<path opacity="0.3" d="M31.15 63.68C28.9575 62.7272 26.8267 61.6384 24.77 60.42C20.5231 44.5217 12.5885 29.8482 1.60999 17.59C11.56 24.71 24.87 42.36 31.15 63.68V63.68Z" fill="#CA8F05"/>
<path opacity="0.3" d="M100.72 18C89.9229 30.1764 82.1099 44.7 77.9 60.42C76.48 61.22 75.26 61.97 72.61 63.2C77.13 42 91.19 25.77 100.72 18Z" fill="#CA8F05"/>
<path opacity="0.4" d="M68.37 47.25C62.2 42.36 54.37 24.44 53.2 19.62L57.83 20.9L51.41 9.56L45 20.9L49.63 19.62C48.35 24.72 40.55 42.36 34.46 47.25C28.71 45.33 23.28 40.06 23.28 40.06C31.61 57 32.38 68.27 51.43 66.86C57.5 66.95 63.62 65.96 66.14 64.49C70 62.26 79.55 40.06 79.55 40.06C79.55 40.06 74.12 45.33 68.37 47.25V47.25Z" fill="#FFD673"/>
<path opacity="0.4" d="M51.57 22.49C50.91 22.49 39.27 49.49 38.95 51.08C38.63 52.67 42.47 64.17 43.9 65.29C45.33 66.41 56.52 66.73 58.44 65.61C60.36 64.49 64 51.4 64.35 49.48C64.7 47.56 52.53 22.49 51.57 22.49V22.49Z" fill="#FFD673"/>
</svg>
