<svg width="69" height="49" viewBox="0 0 69 49" fill="none" xmlns="http://www.w3.org/2000/svg">
<g clip-path="url(#clip0_1_2299)">
<path d="M38.63 5.52998C38.6166 6.49995 38.2982 7.44109 37.72 8.21998C35.72 11.06 29.43 10.3 29.72 5.13998C29.81 1.71998 35.34 -0.76002 37.9 3.13998C38.3532 3.8568 38.6053 4.68228 38.63 5.52998V5.52998Z" fill="#FFB401"/>
<path d="M59.17 44.51C51.76 47.51 43.04 47.85 34.26 47.81C27.72 47.5 -0.080002 48.75 9.44 36.22C17.5229 38.4493 25.8755 39.5498 34.26 39.49C42.6447 39.5525 50.9976 38.452 59.08 36.22C60.65 38.09 62.4 42.23 59.17 44.51V44.51Z" fill="#FFB401"/>
<path d="M65.29 2.46C57.12 -1.14 47.9 1.46 38.66 3.34C39.2441 4.62102 39.2944 6.08179 38.8 7.4C65.38 1 66.55 9.56 57.3 32.26C57.05 32.75 56.79 33.26 56.51 33.71C56.29 34.08 56.03 34.55 55.32 35.63C44.14 32.53 38.44 21 37.26 9.6C37.26 9.6 37.26 9.52 37.26 9.49C35.4839 10.7934 33.0785 10.8335 31.26 9.59C30.26 19.81 24.69 32.74 13.2 35.68C12.88 35.2 12.72 34.97 12 33.76C11.73 33.29 11.46 32.76 11.21 32.31C2 9.43 3.1 1.09 29.57 7.37C29.0494 6.05362 29.1112 4.57825 29.74 3.31C-6.53 -6 -3.91 9.42 9.33 35.74C17.4434 38.0031 25.8375 39.1008 34.26 39C42.6836 39.0956 51.0778 37.9912 59.19 35.72C64 27.57 72.3 7.58 65.29 2.46V2.46ZM27.24 30.14C27.64 20.74 40.99 21.2 41.24 30.14C40.88 39.54 27.53 39.08 27.24 30.14Z" fill="#FFB401"/>
<path d="M40.75 30.14C40.55 38.35 28.28 38.87 27.75 30.14C27.83 22.36 40.24 21 40.75 30.14Z" fill="#DC3030"/>
<path d="M57.59 26.27C57.5055 28.0713 57.2815 29.8633 56.92 31.63C56.33 32.85 55.71 34.06 55.05 35.25C44.71 31.56 38.89 21.15 37.83 10.1C46.47 10.48 58.86 15 57.59 26.27V26.27Z" fill="#DC3030"/>
<path d="M30.69 10.1C29.91 20.1 24.01 31.72 13.48 35.25C12.82 34.06 12.19 32.85 11.6 31.63C8.22 16.5 17.4 11.31 30.69 10.1V10.1Z" fill="#DC3030"/>
<path d="M64.89 1.64999C57 -1.36001 47.36 0.799994 38.54 2.99999H38.46C37 0.309994 32 -0.510006 29.94 2.93999H29.86C-7.22 -7.17001 -4.11 10.15 9 36C-0.729999 49.49 28 47.79 34.26 48.31C42.59 48 69 48.7 59.53 36.05C64.63 27.76 73.08 6.46999 64.89 1.64999V1.64999ZM30.28 3.40999C31.48 0.999994 35.87 -5.96046e-06 37.94 3.14999C38.9118 4.72559 38.8246 6.7345 37.72 8.21999C35.23 11.71 27.72 9.40999 30.28 3.40999V3.40999ZM61.14 19.28C60.4346 22.8622 59.3206 26.3517 57.82 29.68C60.39 15.68 50 10.45 37.82 9.52999L37.73 8.99999C38.0208 8.69935 38.2728 8.36339 38.48 7.99999C50 5.99999 65.81 0.849995 61.14 19.28ZM56.92 31.63C56.33 32.85 55.71 34.06 55.05 35.25C44.71 31.56 38.89 21.15 37.83 10.1C52.36 11.06 60.23 18.27 56.92 31.63ZM30.41 9.55999C18.41 10.49 8 16 10.7 29.68C1.72 5.71 7 2.88999 29.88 7.99999C30.1228 8.41889 30.426 8.79966 30.78 9.12999V9.51999L30.41 9.55999ZM30.69 10.1C29.91 20.1 24.01 31.72 13.48 35.25C12.82 34.06 12.19 32.85 11.6 31.63C8.14 16.08 17.87 11.35 30.69 10.1V10.1ZM60.88 39.59C63.09 48.71 40.07 47.44 34.26 47.81C27.72 47.5 -0.0799999 48.75 9.44 36.22C17.523 38.449 25.8755 39.5494 34.26 39.49C42.6447 39.5525 50.9976 38.452 59.08 36.22C59.8521 37.2425 60.4595 38.3796 60.88 39.59V39.59ZM67.33 14.18C65.9654 21.806 63.2059 29.1149 59.19 35.74C51.0778 38.0089 42.6829 39.1067 34.26 39C25.8373 39.1035 17.4429 38.0058 9.33 35.74C-5 6.99999 -4.94 -5.33001 29.74 3.30999C29.1429 4.58619 29.0817 6.04835 29.57 7.36999C3 0.909994 2.07 9.77999 11.22 32.26C11.47 32.75 11.74 33.26 12.01 33.71C12.23 34.08 12.5 34.55 13.21 35.63C24.4 32.52 30.09 20.93 31.27 9.54999C33.0867 10.7995 35.496 10.7594 37.27 9.44999V9.55999C38.27 19.77 43.85 32.67 55.33 35.56C55.65 35.08 55.8 34.85 56.52 33.64C56.8 33.17 57.06 32.64 57.31 32.19C66.65 9.18999 65.31 1.03999 38.81 7.32999C39.3288 6.01588 39.2781 4.54525 38.67 3.26999C48.78 1.11999 73.16 -4.90001 67.33 14.18V14.18Z" fill="#B06305"/>
<path d="M34.26 23.12C24.86 23.52 25.32 36.87 34.26 37.12C43.66 36.76 43.2 23.41 34.26 23.12V23.12ZM34.26 36.63C25.59 36.23 26.01 23.96 34.26 23.63C42.93 24.05 42.52 36.32 34.26 36.63Z" fill="#B06305"/>
<path opacity="0.5" d="M40.75 30.14C39.64 41.26 23.75 36.38 28.75 26.74C26.75 33.19 40.36 35.14 40.53 28.45C40.6799 29.0007 40.7539 29.5693 40.75 30.14V30.14Z" fill="#B06305"/>
<path d="M30.69 25.89C28.69 28.37 37.75 31.75 38.63 28.2C39.51 24.65 32.8 23.21 30.69 25.89Z" fill="#DC3030"/>
<path opacity="0.3" d="M40.75 30.14C40.75 35.07 34.65 38.71 30.21 35.2C36.1 36.51 40.28 29.71 38.84 25.55C40.029 26.7868 40.7106 28.4248 40.75 30.14V30.14Z" fill="#DC3030"/>
<path d="M32.32 26.16C32.22 26.51 34.91 26.87 35.48 26.16C36.05 25.45 32.67 24.91 32.32 26.16V26.16Z" fill="white"/>
<path opacity="0.6" d="M57.59 26.27C57.5055 28.0713 57.2815 29.8633 56.92 31.63C56.33 32.85 55.71 34.06 55.05 35.25C44.71 31.56 38.89 21.15 37.83 10.1C40.4513 10.324 43.046 10.7927 45.58 11.5C34.74 15.9 50.6 39.23 57.59 26.27V26.27Z" fill="#DC3030"/>
<path opacity="0.6" d="M30.69 10.1C29.91 20.1 24.01 31.72 13.48 35.25C12.82 34.06 12.19 32.85 11.6 31.63C11.2737 29.9794 11.0565 28.3091 10.95 26.63C19.47 39.15 32.66 14.4 22.85 11.49C25.414 10.782 28.0389 10.3166 30.69 10.1V10.1Z" fill="#DC3030"/>
<path opacity="0.3" d="M38.63 5.52998C38.6166 6.49995 38.2982 7.44109 37.72 8.21998C35.72 11.06 29.43 10.3 29.72 5.13998C31.12 7.99998 37.86 8.64998 38.63 5.52998V5.52998Z" fill="#CA8F05"/>
<path opacity="0.4" d="M30.72 4C30.54 4.76 35.72 5.89 37.02 5.06C38.55 2.63 31.9 0.769998 30.72 4V4Z" fill="#FFD673"/>
<path opacity="0.3" d="M9.29 35.67C0.599998 18.51 -9.3 -4.34 20.05 1.39C14.82 1.58 5.72 0.850002 3.7 4.8C-0.220002 14 7.39 31.8 13 36.69C12.16 36.51 10.93 36.1 9.36 35.74C9.33223 35.7216 9.30843 35.6978 9.29 35.67V35.67Z" fill="#CA8F05"/>
<path opacity="0.3" d="M60.88 39.59C63.09 48.71 40.07 47.44 34.26 47.81C27.72 47.5 -0.080002 48.75 9.44 36.22C10.24 36.49 11.49 36.77 13 37.11C-3 49.6 50.76 46.63 56.35 43.53C59.85 43.27 57.07 38.46 55.9 37.03C56.49 36.88 57.72 36.63 59.08 36.22C59.8521 37.2425 60.4595 38.3796 60.88 39.59V39.59Z" fill="#CA8F05"/>
<path opacity="0.3" d="M68.06 8.41998C67.5 17.67 64.25 27.19 59.19 35.74C58.47 35.9 58.25 35.96 56.87 36.35C65.63 23.9 74.56 -1.30002 52.26 0.889981C57.51 0.479981 68.45 -1.90735e-05 68.06 8.41998V8.41998Z" fill="#CA8F05"/>
<path opacity="0.4" d="M41.11 26.87C37.66 21.68 36.79 13.28 36.4 12.1C30.46 8.69999 32.4 15.51 29.63 22.62C28.04 30.67 15.63 36.38 18.85 36.76C24.04 39.81 53.63 37.9 52.21 36.34C51.77 35.51 44.93 32.52 41.11 26.87V26.87ZM34.26 37.16C24.86 36.76 25.32 23.41 34.26 23.16C43.66 23.52 43.2 36.87 34.26 37.16Z" fill="#FFD673"/>
<path opacity="0.4" d="M14.1 38.6C4.33 47.6 60.87 46.6 53.02 39.48C36.69 42.84 16.66 39 14.1 38.6V38.6Z" fill="#FFD673"/>
<path opacity="0.4" d="M44.49 3.99999C64.58 0.789991 66.23 7.99999 62.08 23.67C71 3.60999 59.43 0.409991 44.49 3.99999V3.99999Z" fill="#FFD673"/>
<path opacity="0.4" d="M24.36 3.99999C4.27 0.789991 2.62 7.99999 6.77 23.67C-2.11 3.60999 9.42 0.409991 24.36 3.99999Z" fill="#FFD673"/>
</g>
<defs>
<clipPath id="clip0_1_2299">
<rect width="69" height="49" fill="white"/>
</clipPath>
</defs>
</svg>
