<svg width="88" height="78" viewBox="0 0 88 78" fill="none" xmlns="http://www.w3.org/2000/svg">
<g clip-path="url(#clip0_1_330)">
<path fill-rule="evenodd" clip-rule="evenodd" d="M84.3566 4.11373C82.6683 4.25825 81.441 5.75205 81.6159 7.39958C81.6893 8.24673 82.1338 9.01497 82.7532 9.48197L59.7072 31.9707L44.3809 5.52991C45.2971 4.96719 45.8837 3.89932 45.7428 2.74095C45.6003 1.08801 44.1271 -0.137632 42.4632 0.031287C40.7886 0.176032 39.5899 1.67474 39.7313 3.32154C39.893 4.86932 41.2302 6.05682 42.7526 6.03793L32.8734 34.5691L5.63668 16.597C6.01155 16.0947 6.23391 15.3636 6.16878 14.6265C5.99071 12.9397 4.53095 11.7141 2.88005 11.8793C1.20084 12.0617 0.00588959 13.5233 0.155533 15.2008C0.319529 16.8581 1.78547 18.0849 3.43168 17.9013C4.01672 17.8526 4.54315 17.63 4.98562 17.3129C9.22181 24.0211 22.9916 47.4551 29.2044 77.1425C29.2044 77.1425 53.6149 75.805 71.3979 73.1329C71.8401 43.0903 80.7638 17.6917 83.7299 10.0193C84.0698 10.1038 84.4965 10.1625 84.9187 10.1265C86.5823 9.98426 87.7815 8.48877 87.6411 6.81542C87.4674 5.17371 86.0053 3.96581 84.3566 4.11373" fill="#FFCE00"/>
</g>
<defs>
<clipPath id="clip0_1_330">
<rect width="88" height="78" fill="white"/>
</clipPath>
</defs>
</svg>
