<svg height="108" viewBox="0 0 135 108" width="135" xmlns="http://www.w3.org/2000/svg"><g fill="none"><path d="m23.71 76.88c-21.89 8.6-12-6.7 4.8-12.64 13.82-5.89 11.57 6.5-4.8 12.64z" fill="#ab7966"/><path d="m47.92 43.41c-6.11 2.42-23.11-.27-9.32-5.84 17.48-7.47 43.24 7.48 9.32 5.84z" fill="#ab7966"/><path d="m113.1 53.93c-12.5-1.69-9-10.92 4.77-5.42 19.27 6.07 18.26 20.06-4.77 5.42z" fill="#ab7966"/><path d="m85.8 47.33c-12.46 4.39-21.19-4.24-1.8-5.76 26.83-1.95 20.29 9.69 1.8 5.76z" fill="#ab7966"/><path d="m115.63 46.33c-8.67 13.39-15 30.82-31 39.35 7.55-11.33 12.1-54.63-2-52.83-4.35 18.06 4 42.4-14.45 57.55-22.65-21.4-8.68-43.25-17.4-57.9-15.34 1.7-3.14 57.74 6.76 62.38-12.61-3.42-20.62-17.45-28.83-28.29-32.87-33.13 18.36 66.38 44.18 35 38.11-9.45 58.76-64.59 42.74-55.26z" fill="#9d5d33"/><path d="m37.69 63.43c-8.09 0-19.71 5.51-26.76 14.29-26.88-54.63 2.07-65.98 26.76-14.29z" fill="#d9b199"/><path d="m64.49 40.2c-5.35-2.66-22.49-4.2-31.01 1.71-3.68-54.32 28.77-56.83 31.01-1.71z" fill="#d9b199"/><path d="m101.82 44c-6.15-2.08-19.82-3.52-29.24 1.72-8.16-50.4 24.96-52.36 29.24-1.72z" fill="#d9b199"/><path d="m134.83 37.32c.13 5.89-2.9 20.37-3.59 21.94-3.14-6.19-13.83-11.46-25.89-10.56 1.28-15.29 26.05-51.5 29.48-11.38z" fill="#d9b199"/><path d="m133.42 26.23c-5 .88-13 .82-16-3.09.566323-.6002711 1.181796-1.1521898 1.84-1.65 2.68 2.4 7.58 3.61 13.36 2.83.326134.6100941.593987 1.2495937.8 1.91z" fill="#ab7966"/><path d="m134.69 32.38c-6.78 2.18-14.66 2-21.54-3.51.36-.61.72-1.21 1.1-1.78 5.3 4.57 12.52 5.24 20.18 3.13.11.7.21 1.42.26 2.16z" fill="#ab7966"/><path d="m90.47 10.08c-3.73 2.1-8.46 4.65-15.22 1.73.4682785-.745929 1.0146955-1.4398451 1.63-2.07 3.8704101 1.6751838 8.3269103 1.2683351 11.83-1.08.6308839.41574628 1.2202703.89127392 1.76 1.42z" fill="#ab7966"/><path d="m98 24.47c-7.1 3.41-19.65 6-26.46 1.86 0-.8.1-1.63.19-2.43 6.8 3.77 16.91 1.89 25.7-1.22.22.59.41 1.2.57 1.79z" fill="#ab7966"/><path d="m16.21 33.16c-2.77 5.14-10.08 8.14-16.21 9.15 0-.82 0-1.63.08-2.41 5.61-.78 11.65-3.27 14.31-8 .6355386.3766836 1.2437145.7977286 1.82 1.26z" fill="#ab7966"/><path d="m61 16.74c-7.76 5.26-17.75 6.34-26.67 3.74.08-.68.19-1.36.29-2 8.88 2.7 17.78 1.16 25.83-3.51.19.56.38 1.15.55 1.77z" fill="#ab7966"/><path d="m95.2 17.07c-5.66 2.26-14.68 4.24-22.93 3.17.12-.73.27-1.47.44-2.19 7.2391254.0220327 14.441266-1.0328433 21.37-3.13.4.7.76 1.41 1.12 2.15z" fill="#ab7966"/><path d="m58.78 10.69c-3 1.17-5.22 4.71-10.8 3.36.34.15-4.42 2-4.37 2-3.52 0-2.2-2.16-8.31-1.14.15-.62.27-1.23.44-1.82 5.26-1.09 16.07 1.24 22.11-4.32.3459401.62195997.6564356 1.2629831.93 1.92z" fill="#ab7966"/><path d="m55.63 5.13c-6.14 4.18-4.71 4.68-19.06 5.14.25-.74.53-1.48.82-2.18.662521.105143 1.337479.105143 2 0 1.0008813.5529204 2.2577949.25920865 2.91-.68 3.36-1.88 8 .7 12-3.93.4733419.52512075.91735 1.07595791 1.33 1.65z" fill="#ab7966"/><path d="m20.93 37.6c-4.64 4.65-11.76 9.55-20.36 10.52-.13-.74-.23-1.47-.32-2.21 6.36-1.4 12.45-4.58 19.26-9.79.49.46.95.97 1.42 1.48z" fill="#ab7966"/><path d="m134.83 37.32c0 .91-.06 1.86-.12 2.79-2.42.29-5.26-1.54-8.39 1.08-4.16 0-11.79-.31-17.19-4 .25-.62.51-1.25.78-1.88 4.87 4.42 16.46 2.76 24.92 2.01z" fill="#ab7966"/><path d="m42.84 9.79c-2.87-2-5.85 4.44-.53 3.91.95-.61 1.82-1.94.53-3.91z" fill="#ede0d9"/><path d="m39.07 17c-1.62 0-2 2.66-.25 2.66s1.97-2.66.25-2.66z" fill="#ede0d9"/><path d="m43.84 16c-1.82 0-2.22 3-.28 3s2.22-3 .28-3z" fill="#ede0d9"/><path d="m38.39 23.6c-2 0-2.4 3.24-.31 3.24s2.4-3.24.31-3.24z" fill="#ede0d9"/><path d="m6.59 49.37c-3 0-3.62 4.89-.47 4.89 2.97 0 3.62-4.89.47-4.89z" fill="#ede0d9"/><path d="m8.25 55.67c-1.73 0-2.11 2.86-.27 2.86s2.11-2.86.27-2.86z" fill="#ede0d9"/><path d="m10.56 46.17c-1.94 0-2.37 3.2-.3 3.2s2.36-3.2.3-3.2z" fill="#ede0d9"/><path d="m3.84 41.3c-1.64 0-2 2.71-.26 2.71s2.01-2.71.26-2.71z" fill="#ede0d9"/><path d="m4.7 35.38c-1.35 0-1.65 2.23-.21 2.23s1.65-2.23.21-2.23z" fill="#ede0d9"/><path d="m78.8 16.65c-2.91 0-3.55 4.8-.45 4.8 2.91 0 3.54-4.8.45-4.8z" fill="#ede0d9"/><path d="m76.43 24.55c-1.88 0-2.29 3.1-.29 3.1s2.29-3.1.29-3.1z" fill="#ede0d9"/><path d="m76.93 29.64c-1.47 0-1.79 2.43-.23 2.43s1.79-2.43.23-2.43z" fill="#ede0d9"/><path d="m81.48 23.59c-1.12 0-1.36 1.85-.17 1.85s1.36-1.85.17-1.85z" fill="#ede0d9"/><path d="m83 13c-2.06 0-2.51 3.4-.32 3.4s2.47-3.4.32-3.4z" fill="#ede0d9"/><path d="m77.87 11.17c-2.29 0-2.79 3.79-.36 3.79s2.8-3.79.36-3.79z" fill="#ede0d9"/><path d="m43.42 21.77c-1 0-1.19 1.61-.15 1.61s1.19-1.61.15-1.61z" fill="#ede0d9"/><path d="m48.18 10.08c-1 0-1.29 1.74-.16 1.74s1.29-1.74.16-1.74z" fill="#ede0d9"/><path d="m44.53 3.3c-1.59 0-1.94 2.62-.25 2.62s1.93-2.62.25-2.62z" fill="#ede0d9"/><path d="m119.8 27.17c-2.33 0-2.84 3.85-.37 3.85s2.84-3.85.37-3.85z" fill="#ede0d9"/><path d="m123.75 24.63c-1.13 0-1.38 1.88-.17 1.88s1.42-1.88.17-1.88z" fill="#ede0d9"/><path d="m124.77 21.88c-.62 0-.76 1-.1 1s.77-1 .1-1z" fill="#ede0d9"/><path d="m125.15 28.24c-4.62-.28-1.86 9.62 2.29 2.7-.05-.81-.1-1.58-2.29-2.7z" fill="#ede0d9"/><path d="m115.68 33.34c-1.47 0-1.79 2.43-.23 2.43s1.79-2.43.23-2.43z" fill="#ede0d9"/><path d="m120.05 36.46c.15.81 1.35.51 1.25-.25s-1.39-.55-1.25.25z" fill="#ede0d9"/><path d="m113.35 40.36c.3-.59-2.29.39-.84 1.33.87 0 .14.1.84-1.33z" fill="#ede0d9"/><path d="m117.59 40c-1.12 0-1.36 1.85-.18 1.85s1.37-1.85.18-1.85z" fill="#ede0d9"/><path d="m130.85 27.26c-1.8 0-2.19 3-.28 3s2.2-3 .28-3z" fill="#ede0d9"/><path d="m57.59 21c-1.92 0-2.34 3.17-.3 3.17s2.34-3.17.3-3.17z" fill="#ede0d9"/><path d="m58.44 26c-1.59 0-1.93 2.62-.25 2.62s1.94-2.62.25-2.62z" fill="#ede0d9"/><path d="m54.35 26.6c-1.1 0-1.34 1.81-.17 1.81s1.34-1.81.17-1.81z" fill="#ede0d9"/><path d="m59.46 30.8c-1.13 0-1.38 1.87-.17 1.87s1.38-1.87.17-1.87z" fill="#ede0d9"/><path d="m26.05 50.63c-1.86 0-2.27 3.07-.29 3.07s2.24-3.07.29-3.07z" fill="#ede0d9"/><path d="m24.19 57.15c.62.64.36.31 0 0-1.69.07.5 3.48 0 0z" fill="#ede0d9"/><path d="m28.61 57.88c-.77 0-.93 1.26-.12 1.26s.93-1.26.12-1.26z" fill="#ede0d9"/><path d="m22.47 45.76c-1.15 0-1.4 1.9-.18 1.9s1.41-1.9.18-1.9z" fill="#ede0d9"/><g fill="#845549"><path d="m29.41 71.38c.42.45-2.87-5-1.95-.64.1.03 1.44 2.81 1.95.64z"/><path d="m33.15 75.65c-1.28-2.24-4.1-.42-.13 1.35.05-.17.82-.3.13-1.35z"/><path d="m26.27 71.71c-1.58-.59-.37 3.93 1.42 2.23-.01-.55-.04-1.06-1.42-2.23z"/><path d="m30.06 77.77c-1.25-.16.61 3.62 2.17 2.62-.14-.65-.32-1.24-2.17-2.62z"/><path d="m37.27 82c-.93-2.05-4.67-2-1 1.51.6.28 1.04.17 1-1.51z"/><path d="m51.61 40.42c-.11-1.1-2.93 3.47.09 3.81-.01-.85.78.14-.09-3.81z"/><path d="m51.13 48.49c-.61-1.07-2.17 4.72.24 3.55.16-.69.28-1.29-.24-3.55z"/><path d="m48.47 44.39c-1.07-1.16-2.15 3.94 0 3.44.36-.61.61-1.19 0-3.44z"/><path d="m48.63 54.05c-.6-.64-1.51 3.9.1 4.37.35-.77.58-1.51-.1-4.37z"/><path d="m51 58.55c.46 1.94.63 2.94 0 0-.94-.87-1.52 5.84 0 0z"/><path d="m52.44 69.91c-.45-3.17-2.87-2.14-.39 1.85.78-.46.6-.07.39-1.85z"/><path d="m64.43 88.47c-1.25-.92-.26 4 2.31 2.61-.16-.7-.34-1.33-2.31-2.61z"/><path d="m69.62 94.66c-.43-1.93-3.78-1.12-.57 1.1.55-.27.18.04.57-1.1z"/><path d="m70.79 97.85c-1.38-1.57-2.29 6.23.47 3.71.1206905-1.256223-.0398614-2.5235583-.47-3.71z"/><path d="m66 95.36c0-.11-1 .42 1.63 3.33.63-.69.22-2.04-1.63-3.33z"/><path d="m59.61 84c-1.19 0 .23 3.38 1.68 2.45-.01-.63-.07-1.24-1.68-2.45z"/><path d="m61.22 90.18c-1.17-.35 0 3.52 1.39 2.49-.02-.58-.06-1.11-1.39-2.49z"/><path d="m89.33 45.39c-.92-1.19-2 2.75 0 2.61.25-.46.44-.9 0-2.61z"/><path d="m89.52 53c.13-.92-1.74 3.17-.4 4.5.58-.65.88-2.24.4-4.5z"/><path d="m87.63 51.72c.12.9-.26 1.36 0 0 .37-3.18-2.31-.72 0 0z"/><path d="m88.81 61.89c.6.52-1.76 1.11-.6 4.3500182.43.0099818 1.95-4.1100182.6-4.3500182z"/><path d="m87.24 58.45c.31 1.87.16 1.21 0 0-1.24-2.14-2.13 6.79 0 0z"/><path d="m85.94 73c.62-.07.55.26 0 0s-.31 5.07 0 0z"/><path d="m86.21 67.25c-.53-.78-2.51 3.47-.63 4.09.74-.49 1.18-1.91.63-4.09z"/><path d="m82.71 86.5c-1.57-.17-7.18 6.65-.91 2.58-.04-.44 1.54-.46.91-2.58z"/><path d="m81.37 84c.5-.18-4.79 2.76-1.12 2.79.06-.38 2.31-1.62 1.12-2.79z"/><path d="m74.45 91.6c-.69-1-6.07 5.38.48 1.08.31-.32.48-.68-.48-1.08z"/><path d="m76.06 87.75c.52.27.48.57 0 0-2.24-.62-1.79 4.25 0 0z"/><path d="m84.64 78.05c-.8-.55-1.47.31-2.08 2.3 0 .65 1.59 2.43 2.08-2.3z"/><path d="m117.11 53.54c-1 .32-1.91 6.85.92 2.1-.03-.25 1.4-3.09-.92-2.1z"/><path d="m114 61.78c-.41-.18-2.74 5.26.11 1.74-.24.16 1.01-1.74-.11-1.74z"/><path d="m113.58 56.79c-.63-.4-2.82 6.24.1 2-.36.29.93-1.71-.1-2z"/><path d="m109.84 68.82c.24.88-4 2.53-2.1 4.63.61-.36 2.34-2.93 2.1-4.63z"/><path d="m109.47 64.43c-.19-.3-3.75 5.59-.39 3.07.05-.81 2.14-2.68.39-3.07z"/><path d="m103.2 77.39c-.17-.32-5.23 4.33-1.26 2.83.34-.94 2.96-1.69 1.26-2.83z"/><path d="m103.83 72.84c-.24-.2-5.28 4-1.73 3.22-.1-.76 2.9-1.53 1.73-3.22z"/></g></g></svg>