<svg height="200" viewBox="0 0 179 200" width="179" xmlns="http://www.w3.org/2000/svg"><g fill="none"><path d="m94.39 126.4c16.81-50.52-16.63-124.66-72.71-126.4 32.44 118.72 10.32 36.9 72.71 126.4z" fill="#b82946"/><path d="m95 126.31c34.85 11.69 46.46 35.59 84-7.79-34.81 5.74-14.45-22.97-84 7.79z" fill="#9d5d33"/><path d="m0 160.18c48.88 31.09 74.71-9.75 92.46-33.53-54.52 16.11-37.07-6.96-92.46 33.53z" fill="#f59b3c"/><path d="m123.16 18.2c9.14 32.16 45.32 81.74-28.16 108.11 0 0 8.33-13 10-40.09s21.79-54.71 18.16-68.02z" fill="#ea612f"/><path d="m4.74 61.89c42.43 41.57 64.05 13.23 89.1 64.58-63.21 23.75-65-24.07-89.1-64.58z" fill="#dc5f72"/><g fill="#9e1e3d"><path d="m102.59 161.7c2.74 36.2-23.92 45.58-30.71 32.47-3.75-7.84 14-12.1 12.39-1.72 27.35-8.61 3.37-79.27.51-92.06-25.72-69.54-57.3-84-54.45-94.66 41.17 38.19 69.41 98.42 72.26 155.97z"/><path d="m126 40c-1 29.43-15.68 66-32.64 90.85 24.71-6.62 39.17-79.7 32.64-90.85z"/><path d="m92.71 123c-54.71 46.36-72.24 30.4-83.15 38 32.62 8.3 93.8-37 83.15-38z"/><path d="m95 125.54c-60.66-18.54-49.5-29.6-72.94-42.63 27.81 37.86 81.02 50.72 72.94 42.63z"/><path d="m134.63 67.92c-2.9 2.9-13.75 4.88-14.81 10.36 1.9 3.28 20.18-8.14 14.81-10.36z"/><path d="m136.26 77.42c-4.38 3.09-12.12 6-17.9 9.86.52 6.03 23.09-7.28 17.9-9.86z"/><path d="m125 61.62c-1.476608-1.8445597-2.813646-3.7966361-4-5.84-7.95-13.17.14 14.59 4 5.84z"/><path d="m123.39 71.19c-2.35.08-6.88-12.58-9.49-7.9-.59 2.01 9.81 15.57 9.49 7.9z"/><path d="m114.31 98.49c-1.73.72-6.12-15.42-7-6.13-.15 2.79 5.91 12.15 7 6.13z"/><path d="m124.58 103.37c-5.354688.935244-10.460195 2.960429-15 5.95.68 4.42 16.53-.89 15-5.95z"/><path d="m148 117.55c-2 3.55-8.42 6-11.35 10.3 2.26 4.32 16.19-8.58 11.35-10.3z"/><path d="m137.94 116.5c-3.71 3.15-9.69 7-15.16 10.5.22 6 19.75-7 15.16-10.5z"/><path d="m51.41 151.64c-.53 4.43-9.24 12.76-8.36 17.42 2.85-1.93 13.47-16.64 8.36-17.42z"/><path d="m60.12 148.53c-3.71.1-3.93 9-5.61 14.39 3.16 1.32 6.27-10.12 5.61-14.39z"/><path d="m36.5 156.67c-.52-2.78-13.32-12.52-13.58-6.53 4.08-1.01 11.27 10.21 13.58 6.53z"/><path d="m44 153.6c-1.89-4.22-18.4-13.94-1.91 1.65.62.51 1.96.24 1.91-1.65z"/><path d="m43.76 117c-1.47-1.47-11.14 5.39-.5 2.78.94-.62 2.47-1.33.5-2.78z"/><path d="m53 112.56c-6 1.32-10.8 8.39 1.25 2.56.75-.6.83-2.18-1.25-2.56z"/><path d="m55.8 111.51c-3.36.76-6.88 7.52 1.91 2.21.62-.79.34-2.24-1.91-2.21z"/><path d="m64.23 101.1c-2.33-9-8-4.44.27 5.26 1.59-.55 1.29-2.05-.27-5.26z"/><path d="m67.92 113c-2.77-10.27-4.86 4.12.34 4.110005.28-.790005.5-1.480005-.34-4.110005z"/><path d="m68.68 100.36c-2.43 3 2.31 11.86 2.43 18.48 6.73 5.03-.28-14.91-2.43-18.48z"/><path d="m70.89 120.08c-3.52 2.24-13.2 4.34-15.86 8.54 2.66-.17 18.76-4.52 15.86-8.54z"/><path d="m42.05 92.9c-1.6-13.49-6.82 4.33.13 7.18 1.59-1.83.22-2.66-.13-7.18z"/><path d="m43.4 102.8c-3.07-.7-7.16 1.23-12.09 2-.13 2.81 12.78 2.64 12.09-2z"/><path d="m67.38 27.53c-4 1.11-3 10.5-6.4 16.25-3.68 14.22 9.61-8.78 6.4-16.25z"/><path d="m69.63 43.49c-1.17 1.26-8.68 16.42-.87 10.29.96-2.64 6.47-10.37.87-10.29z"/><path d="m73.23 35.31c-1.41-2.46-4.89 7.49-.23 3.69.3380062-1.1996818.416415-2.4576307.23-3.69z"/><path d="m78.08 42c.07 6.65-7.89 16.35-6.89 23.21 5.94-.21 11.57-23.52 6.89-23.21z"/><path d="m84 62c-1.83-1.48-5.54 8-6.72 12.77 3.16 2.28 6.72-8.1 6.72-12.77z"/><path d="m88.27 72.43c-3.9 2.89-.8 11.31 1.88.64-.15-.42-.45-.78-1.88-.64z"/><path d="m57.35 45.48c-4.59 3.52-16.35-2.79-19.35 1.52 2.12 5.48 28.35 3.26 19.35-1.52z"/><path d="m62.69 54.05c-3.41 1.67-14.41-.59-16.82 4 2.13 2.18 22.13 1.28 16.82-4z"/><path d="m78.18 76.72c-3.46 3.1-13.66-.6-16.59 4 2.41 2.78 22.28 1.28 16.59-4z"/><path d="m83.06 86.87c-.85-.23-19.9-.66-10.22 2.82 1.04 0 15.16 1.98 10.22-2.82z"/><path d="m49.45 10.21c-3.14-2.21-1.91 9.31-3.07 16.79 4.83 3.43 5.24-12.66 3.07-16.79z"/></g><path d="m84.48 189.93c-2 2.26-9.29 3.5-12.15-.33 1.52-3.6 9.6-5.3 12.15.33z" fill="#b82946"/><path d="m34.71 139.4c-.48-.86-4.87 2.37-2.72 3.07-.23-.61 2.95-1.24 2.72-3.07z" fill="#e58833"/><path d="m41.6 136.85c.84-1.17-9.17 3.06-1.79 1.7.19-.24 2.32-.25 1.79-1.7z" fill="#e58833"/><path d="m39 140.4c.47-1.19-7.34 3.2-1.45 1.63-.12-.39 1.77.25 1.45-1.63z" fill="#e58833"/><path d="m46.81 138.63c.57-1.17-8.05 2.52-1.38 1.21.03-.18 1.33.08 1.38-1.21z" fill="#e58833"/><path d="m49.25 135.82c.69-.85-7.49 1.88-1.62 1.24.06-.34 1.19.44 1.62-1.24z" fill="#e58833"/><path d="m56.51 135.83c.86-.13-5.78 1.27-1.23 1.56.17-.06 3.34-.47 1.23-1.56z" fill="#e58833"/><path d="m49 141c1.25-.88-9.8 2.64-1.81 1.71.17-.26 2.69-.38 1.81-1.71z" fill="#e58833"/><path d="m63.91 136.24c.69-.68-8.07 3.15-1.56 1.77-.08-.33 1.7.19 1.56-1.77z" fill="#e58833"/><path d="m55.8 139.33c-.85-.52-5.86 2.34-1.1 1.59-.5-.25 2.12-.52 1.1-1.59z" fill="#e58833"/><path d="m22.1 166.73c.22-1-7.5-.47-2.45.75.11-.26 2.42.98 2.45-.75z" fill="#e58833"/><path d="m28.81 167.36c-2.12-.22-6.62 1.78.26 1.3.38-.24.6-.53-.26-1.3z" fill="#e58833"/><path d="m30.54 164.71c-.36-.64-7.41 1.36-1.65 1.3-.08-.49 1.56.99 1.65-1.3z" fill="#e58833"/><path d="m35 167.7c.82-.12-5.58 1.28-1.14 1.62.3-.04 3.32-.51 1.14-1.62z" fill="#e58833"/><path d="m36.89 164.29c.87-.21-5.71 2.2-1 1.78.34-.07 3.53-.95 1-1.78z" fill="#e58833"/><path d="m68.57 153c1.33-2.18-8 4.23-1.78 2-.26-.21 1.41-.35 1.78-2z" fill="#e58833"/><path d="m74.48 146.58c1.17.38.76.89 0 0-1.48.65-3.93 5.29 0 0z" fill="#e58833"/><path d="m72 147c-.87.22-4.6 2.33-4.55 4 .7-.53 5.43-1.73 4.55-4z" fill="#e58833"/><path d="m49.08 91.53c-.91.12-.82 1.55.09 1.43s.83-1.55-.09-1.43z" fill="#bf4159"/><path d="m52.43 91.39c-.59.75-.23.13.69.88.53-.73.24-.14-.69-.88z" fill="#bf4159"/><path d="m53.2 95.29c-.76.1-.69 1.3.09 1.2s.71-1.3-.09-1.2z" fill="#bf4159"/><path d="m49.31 95.48c-.66.08-.59 1.11.07 1s.62-1.09-.07-1z" fill="#bf4159"/><path d="m45.58 92c.09-.79-2.13 0-.5.77.42-.15.15.08.5-.77z" fill="#bf4159"/><path d="m56.32 92.63c.26.7-.1.8 0 0-.15-.41-1.32.99 0 0z" fill="#bf4159"/><path d="m56.91 99c-.32-.23-.16-.07-.71.67.49.2.8.51.71-.67z" fill="#bf4159"/><path d="m51.37 99.44c-.6.08-.54 1 .06.94s.57-1.02-.06-.94z" fill="#bf4159"/><path d="m17.55 80.46c-.94.12-.84 1.6.11 1.47s.84-1.6-.11-1.47z" fill="#bf4159"/><path d="m20.2 85.52c-.28-.16 0-.06-.66.07-.82-.08 1.26 2.27.66-.07z" fill="#bf4159"/><path d="m18.4 83.82c-.61.08-.55 1.05.07 1s.53-1.09-.07-1z" fill="#bf4159"/><path d="m22.11 91c-.13.14-.69 1.21.58.79.22-.55.59-.59-.58-.79z" fill="#bf4159"/><path d="m26.18 92.87c-.77.1-.69 1.31.09 1.2s.73-1.31-.09-1.2z" fill="#bf4159"/><path d="m24.76 96.9c-.68.09-.61 1.16.07 1.07s.61-1.16-.07-1.07z" fill="#bf4159"/><path d="m23.7 89c-.57.07-.51 1 .07.9s.51-.96-.07-.9z" fill="#bf4159"/><path d="m29.38 99.25c-1.29 0-.57 1.61.52.58 0-.38.1-.1-.52-.58z" fill="#bf4159"/><path d="m29.48 103.42c-.08-.25 0-.12-.42-.37-.53-.66-.72 2.25.42.37z" fill="#bf4159"/><path d="m77 127.27c-.87.12-.78 1.48.09 1.36s.81-1.47-.09-1.36z" fill="#bf4159"/><path d="m74.16 125.69c-.87.11-.79 1.49.09 1.37s.75-1.49-.09-1.37z" fill="#bf4159"/><path d="m73.05 129c-.92-.52.21 1.92 0 0z" fill="#bf4159"/><path d="m68.88 128.33c-.46.12-1.08-.12-.45.92.57-.11.84.16.45-.92z" fill="#bf4159"/><path d="m70.34 125.46c-.57.07-.52 1 .06.9s.52-.98-.06-.9z" fill="#bf4159"/><path d="m81.72 127.22c.4.45.2.67 0 0s-1.56 1.5 0 0z" fill="#bf4159"/><path d="m64.28 129.51c-.57-.16-.11-.11-.68.52.22.05 1.52.88.68-.52z" fill="#bf4159"/><path d="m73.17 123.59c-.69.09-.62 1.18.08 1.09s.62-1.19-.08-1.09z" fill="#bf4159"/><path d="m134.32 59.66c-1.32.18-1.18 2.25.15 2.07s1.18-2.25-.15-2.07z" fill="#ef9354"/><path d="m132.84 55.55c-1.11.15-1 1.89.12 1.74s1.04-1.88-.12-1.74z" fill="#ef9354"/><path d="m131.68 62.23c-1.33.18-1.2 2.28.15 2.1s1.17-2.27-.15-2.1z" fill="#ef9354"/><path d="m137.11 63.82c-1.25.17-1.12 2.13.13 2s1.13-2.17-.13-2z" fill="#ef9354"/><path d="m132.28 51.35c-1.1.14-1 1.87.12 1.73s.99-1.88-.12-1.73z" fill="#ef9354"/><path d="m132.82 75.05c-1.2.16-1.08 2 .13 1.89s1.05-2.05-.13-1.89z" fill="#ef9354"/><path d="m136.92 72.11c-.54-.48-1.11 2.33.71.87-.02-.55.26-.47-.71-.87z" fill="#ef9354"/><path d="m109.26 81.4c1.11.45 1.15 1 0 0-1.07-.54-1.26 4.05 0 0z" fill="#ef9354"/><path d="m110 77.05c-1.09.15-1 1.87.12 1.72s.95-1.86-.12-1.72z" fill="#ef9354"/><path d="m114.34 83.52c-.21-.61-2.37 1 0 .85.2-.37.09-.03 0-.85z" fill="#ef9354"/><path d="m111.57 86.36c-.84.11-.76 1.43.09 1.32s.76-1.43-.09-1.32z" fill="#ef9354"/><path d="m113.61 77.71c-1.3.17-1.17 2.22.14 2s1.17-2.17-.14-2z" fill="#ef9354"/><path d="m110 71.38c-1.19.16-1.08 2 .13 1.88s1.04-2.04-.13-1.88z" fill="#ef9354"/><path d="m125.87 98.48c-1.26.17-1.13 2.15.14 2s1.13-2.17-.14-2z" fill="#ef9354"/><path d="m123.92 94.55c.33-1.2-3.39.22-.44 1 .42-.33.13.01.44-1z" fill="#ef9354"/><path d="m128.53 94.64c-1.19.16-1.07 2 .13 1.87s1.06-2.03-.13-1.87z" fill="#ef9354"/><path d="m130.93 89.27c-1.1-.21-1.51 1.55-.4 1.77.470476.068919.914699-.2359978 1.019513-.6997994.104814-.4638015-.165121-.9301097-.619513-1.0702006z" fill="#ef9354"/><path d="m133.36 93.45c-.47.06-.42.8.06.74s.42-.81-.06-.74z" fill="#ef9354"/><path d="m126.66 89.89c-.32.09-.16-.11-.58.67-.38.36 2.44.8.58-.67z" fill="#ef9354"/><path d="m121.66 98.9c-.3-.36-1.83.82-.09.91.43-.31.19 0 .09-.91z" fill="#ef9354"/><path d="m133.14 93.05c-.4-.21-1.57 2.47.42 2.09 1.57-.25 1.01-2.62-.42-2.09z" fill="#ef9354"/><path d="m106.26 102.22c-.18-.32-2.15 1.13.12.85.49-.16 0 0-.12-.85z" fill="#ef9354"/><path d="m104.88 107.51c-.01193-.129981-.082256-.247507-.191159-.319461-.108904-.071955-.244596-.090547-.368841-.050539h.1c-.48-.24-.81 2.4.46.37z" fill="#ef9354"/><path d="m116.54 119.58c-1.43-.35-6.49 3.54.27 1.35.39-.26.61-.56-.27-1.35z" fill="#894d2c"/><path d="m123.74 117.65c-1.46-.38-7.28 3.12.1 1.48.51-.23.82-.54-.1-1.48z" fill="#894d2c"/><path d="m121.31 120.52c-1.76 0-4.44 2.9.5 1.49.49-.35.72-.73-.5-1.49z" fill="#894d2c"/><path d="m130.79 116c-1.57.11-5.14 3.71.65 1.31.35-.31.5-.71-.65-1.31z" fill="#894d2c"/><path d="m167.87 123.29c-30.12 10.27-67.21-5-72.44 3.59 16.68 2.84 71.57 6.83 72.44-3.59z" fill="#9e1e3d"/><path d="m129.7 139.47c-4.49-2.95-4.19 1.7 1.29 1.27.01-.44.01-.81-1.29-1.27z" fill="#894d2c"/><path d="m136.21 140.32c-1.6-.26-5.43 1.59.11 1.49.51-.24.82-.55-.11-1.49z" fill="#894d2c"/><path d="m133.37 137.57c.08-.45-5.8.51-.28 1.47.56-.11.91-.35.28-1.47z" fill="#894d2c"/><path d="m142.39 140c-2.25-.14-4 2.29.49 1.46.46-.38.67-.77-.49-1.46z" fill="#894d2c"/><path d="m139.64 137.2c-2.58-.59-2.64 3.35 0 0z" fill="#894d2c"/><path d="m150.27 138.06c1.36.39.85 1 0 0-1.64.39-4.27 4.06 0 0z" fill="#894d2c"/><path d="m146.93 136.27c1.18.56.73 1.1 0 0-1.77.23-4.27 3.73 0 0z" fill="#894d2c"/><path d="m158.46 133.58c1.46.42.89 1 0 0-1.63.42-4.67 4.05 0 0z" fill="#894d2c"/><path d="m154 133c.23-1.27-5.49 2-.34 1 .13 0 .52-.21.34-1z" fill="#894d2c"/><path d="m134.87 133.86c.09-1.32-5.85.62-.39.79.15-.04.21-.05.39-.79z" fill="#894d2c"/><path d="m122.25 133.38c1.09.19 1.28.77 0 0-2.42-1.29-1.82 2.62 0 0z" fill="#894d2c"/><path d="m115.46 130.7c.67-.37-5.56.4-.08 1.25.4-.14.67-.36.08-1.25z" fill="#894d2c"/><path d="m128.18 134.74c.34.94.2.57 0 0-1.65-1.2-2.09 2.26 0 0z" fill="#894d2c"/><path d="m165.84 128.66c.51-.85-5.5 3.25-1 1.9-.04-.26 1.57-.18 1-1.9z" fill="#894d2c"/><path d="m95.42 135.78c-2.93-12.31-1.1.21 0 8 1.85.46.35-4.14 0-8z" fill="#b82946"/><path d="m97.22 148.74c.3 1.49.51 2.22 0 0-.45-5.06-2.17 3.15 0 0z" fill="#b82946"/><path d="m96.21 183.89c-.89.05-.78-.38 0 0 .9-.5.02-4.02 0 0z" fill="#b82946"/><path d="m94.76 185.36c-.33 2.4-6.36 5.66-6.31 7.51 1.83-.72 6.25-2.99 6.31-7.51z" fill="#b82946"/></g></svg>