<svg height="154" viewBox="0 0 127 154" width="127" xmlns="http://www.w3.org/2000/svg"><g fill="none"><path d="m115.89 30.92c-.387308 1.2181509-.896554 2.3941083-1.52 3.51.366368-1.225887.876586-2.4040873 1.52-3.51z" fill="#e58833"/><path d="m82.88 46.7c17.21 2.54 25.06-2 31.49-12.27-7.42 18 11.41 39 12 57.53.68 16.72-13.21 28.65-17.28 8-3.54-5.49-7.31-1.53-10.23-.08-19.33 14.2-16.33 62.9-32.09 28.53-1.51-1.74-2.38-.52-5 1.79-8.32 8.2-22.32 33.33-25.91 19.89-.28-21.48-4.63-6.59-20.14-4.68-20.46 6.29-18.59-23.78-7.72-26.73-21.61-22.75 36.46-17.09 31.17-19.45-41-21 26.74-11.83 32.43-26.31 2-6.64-17.18-7.44-25.48-11.28-12.47-6.64 8.88-20.99 36.76-14.94z" fill="#e58833"/><path d="m108.74 10.88c3.43.43 4.54-4.53 1.71-5.52 28.05 38.11-72.82 126-103 127.57 44.11 9.17 149.94-122.76 101.41-132.93-6.13.52-6.26 9.76-.12 10.88z" fill="#b82946"/><path d="m13.7 114.2c11.88 1.29 25.43-3.76 38.9-1.3 11.62-7.27-45.89-3.41-38.9 1.3z" fill="#b82946"/><path d="m42.47 91.38c10 6.33 46.73-4.31 43.22-11.28-26.34 13.37-42.55 6.51-43.22 11.28z" fill="#b82946"/><path d="m62 56.49c8.86.29 43.8 8.23 40.55-2.92-10.17 7.9-32.88-4.34-40.55 2.92z" fill="#b82946"/><path d="m77.39 92.84c2.54 9.28-.72 22.61-.7 31.55 5.9-4.13 6.6-39.28.7-31.55z" fill="#b82946"/><path d="m48.13 116.47c1.74 6.81-10.87 27.78-4.52 26.32 2.21-4.06 13.25-34.43 4.52-26.32z" fill="#b82946"/><path d="m106.83 49.26c-6.12 14.14 3.38 38.56 9.85 49.8.44-13.41-9.68-27.85-8.18-42.28-.06-2.92 3.84-9.68-1.67-7.52z" fill="#b82946"/><g fill="#f59b3c"><path d="m91 98.5c3 4.17 9.08-5.12.66-4-.59.69-1.18 1.3-.66 4z"/><path d="m97.07 92c-1.55 5.57 12 5 4.58-2.56-1.92-.22-3.2-.57-4.58 2.56z"/><path d="m93.76 87.66c1.68 2.06 5.07-.33 3.38-2.41s-5.07.33-3.38 2.41z"/><path d="m101.23 82.37c1.82 2.56 5.56-3.14.4-2.42-.39.38-.75.76-.4 2.42z"/><path d="m87.75 106.89c2.27 3.2 7-3.93.5-3-.47.46-.93.93-.5 3z"/><path d="m85.73 93c2.72 3.82 8.33-4.7.61-3.62-.57.62-1.12 1.15-.61 3.62z"/><path d="m71.6 67.65c3.12 4.38 9.56-5.4.7-4.16-.66.66-1.3 1.31-.7 4.16z"/><path d="m82.2 69.11c2.08 2.91 6.35-3.58.47-2.76-.44.45-.85.87-.47 2.76z"/><path d="m79.4 74.06c1.38 1.69 4.16-.27 2.78-2s-4.18.29-2.78 2z"/><path d="m72.14 77.87c-1.38 2.66 6.33 3.12 2.12-.8-1.07-.19-.26-.32-2.12.8z"/><path d="m50.58 103.5c2.31 3.23 7.05-4 .51-3.07-.48.49-.94.97-.51 3.07z"/><path d="m43.7 99.25c2 2.49 6.14-.4 4.09-2.92s-6.14.4-4.09 2.92z"/><path d="m41.51 104.45c2.32 3.25 7.1-4 .52-3.09-.48.5-.95.97-.52 3.09z"/><path d="m32.1 105.52c1.93 2.71 5.91-3.33.43-2.57-.4.41-.79.81-.43 2.57z"/><path d="m56.5 97c-.43 1.6 3.77 1.83 1.75-.87-.67-.25-1.08-.38-1.75.87z"/><path d="m13.74 141c2.07 2.53 6.25-.41 4.17-3s-6.25.41-4.17 3z"/><path d="m6.72 144.29c.76-.29 2.68-1.29 4.11 1.71-1.64620132.069643-3.28940144-.195718-4.83-.78.17347182-.356227.41858218-.672828.72-.93z"/><path d="m24.11 140.34c.74-.4 1.74-.8 3.72.81-1.43.64-3 1.31-4.7 2-.2601479-1.04816.124453-2.150944.98-2.81z"/><path d="m28.27 134.89c1.46 1.79 4.4-.29 2.93-2.09s-4.39.28-2.93 2.09z"/><path d="m35.21 132.68c1.19 1.46 3.59-.24 2.39-1.71s-3.6.23-2.39 1.71z"/><path d="m21.41 136c1.1 1.35 3.32-.21 2.22-1.58s-3.33.19-2.22 1.58z"/><path d="m4.59 139.81c-.87-1.27-.28-1.82 0 0 1.05 1.09 2.83-2.67 0 0z"/><path d="m37.9 149.61c-.25-1.51.32-1.92 0 0 .1 1.53 5.26-1.31 0 0z"/></g></g></svg>