<svg height="267" viewBox="0 0 138 267" width="138" xmlns="http://www.w3.org/2000/svg"><g fill="none" transform="translate(-1)"><path d="m58.75 224.41c11.45-36.5 61.47-25.45 69.16-34.26-13.02 49.52-46.91 30.93-69.16 34.26z" fill="#b82946"/><path d="m1 165.09c-2.6 64.88 120.24 37.65 13.48 18.19-14.85-6.22-9.92-15.97-13.48-18.19z" fill="#ea612f"/><path d="m62.49 186.2c12-40.09 54.86-8.37 73.77-18.29-17.05 27.94-66.2 10.98-73.77 18.29z" fill="#f59b3c"/><path d="m15.23 129.79c-10.54 42.53 63.71 61.06 49.34 39-6.54-14.3-33.1-14.57-38.16-19.36-5.92-3.43-8.82-8.63-11.18-19.64z" fill="#b82946"/><path d="m73.83 149.43c.84-23.07 58.53-24.41 60.64-35.27-8.75 43.45-61.32 29.84-60.64 35.27z" fill="#ab7966"/><path d="m85.29 114.74c-.67-31.44 53.41-45 53.11-54.65-9.4 40.28-43.57 50.85-53.11 54.65z" fill="#79a283"/><path d="m91.75 0c15.49 16.38 17.07 61.9-.12 71.16-16.82-20.64-4.26-65.79.12-71.16z" fill="#ea612f"/><path d="m37.59 48.31c26 23.51 48.69 8.85 49.81 45.54-35.08.48-38.4-32.4-49.81-45.54z" fill="#f59b3c"/><path d="m35.11 79c5.6 30.32 29.74 45.19 45.29 46.46 2.54-32.13-39.58-25.9-45.29-46.46z" fill="#b82946"/><path d="m26.91 100.22c-7.83 14.88 21.09 47.28 43.67 52.18 6.51-30.31-44.42-28.05-43.67-52.18z" fill="#79a283"/><g fill="#9e1e3d"><path d="m77.27 146.3c16.73-32.71 19.85-128.89 16.43-131.88-1.04 28.38-3.18 92.58-16.37 119.58-12.09 32.43-25.72 63.1-20 97.3-.85 13.31 22.41 49.07 29.36 29.4-1.28-2-4.66-2.61-4.92 1.38-38.85-18.98-14.26-92.08-4.5-115.78z"/><path d="m84.45 89.83c-1.79-.83-37.99-34.83-31.66-24.71 12.28 11.01 25.93 19.58 36.21 33.45 2-2.24-1.56-5.88-4.55-8.74z"/><path d="m125.67 76.63c-8.75 11.9-29.36 18.83-38.61 30.58 11.8-10.36 33.54-18.16 38.61-30.58z"/><path d="m82.78 128c-7.23-12.44-25.05-23.92-36.53-31 10.67 9.24 28.45 23.67 36.53 31z"/><path d="m123.4 126.9c-17.64 11.82-42.59 11-48.61 18.55 13.79-6.11 37.95-6.85 48.61-18.55z"/><path d="m72.42 154.33c-7.69-12.47-32.69-34.8-39.76-36.08 14.14 9.33 30.34 27.02 39.76 36.08z"/><path d="m126.71 172.16c-15.68 9.67-54.85-7.11-62.23 10.29 15.39-16.28 46.08 3.07 62.23-10.29z"/><path d="m64.39 174.59c-11.22-11.59-35.12-13.77-45.47-26.48 8.59 13.47 33.78 19.76 45.47 26.48z"/><path d="m118.74 199.12c-17.77 15.35-50.1 12-60.62 26.59 17.27-12.23 56.18-13.81 60.62-26.59z"/><path d="m59.11 204.81c-13.65-10.43-34.73-7.61-49-20.37 6.89 11.79 38.68 15.66 49 20.37z"/><path d="m100.43 27c-1.11-1-10.82 11.79-3.89 6.18.56-.89 3.69-3.56 3.89-6.18z"/><path d="m101.25 32.64c-.86 1.42-9.08 6-7.57 8.31 1.08-1.66 7.32-4.76 7.57-8.31z"/><path d="m92.32 52.76c-3 0-5.78-6.35-8.23-6.73-.64 1.97 7.69 10.97 8.23 6.73z"/><path d="m92.32 47.65c-.65.09-11.7-10.46-5.19-2.17.14-.13 5.15 5.52 5.19 2.17z"/><path d="m113.66 81c.22.45-5 12.65-.87 7 .12-1.36 3.57-6.8.87-7z"/><path d="m106.3 85.09c.46 1.83-3.92 7.76-2.17 9.85.68-1.19 4.13-8.08 2.17-9.85z"/><path d="m97.18 91.9c-1.1.08-2.7 5.72-2.39 9 2.41-.97 1.82-4.58 2.39-9z"/><path d="m109.05 98.33c-2.29.34-7.35-1.36-11-.32.39 2.6 9.24 2.58 11 .32z"/><path d="m121.93 87.15c-1.42.42-7.89-.18-8.85 2.07 1.42-.22 7.45.9 8.85-2.07z"/><path d="m69.73 68.21c-2-.49-1.19 4.13-1.13 8.07 2.15 1.31 1.1-4.01 1.13-8.07z"/><path d="m72.73 68c-.56.76-.9 10.24.88 12.24.5549222-4.0969966.2552962-8.2645223-.88-12.24z"/><path d="m78.6 86.27c-1.43.58-6 .26-7.81 2.25 1.08.09 7.28.39 7.81-2.25z"/><path d="m70.69 105.59c-1.92.06-1 5.37-.93 9.11 2.31 1.74 1.45-5.48.93-9.11z"/><path d="m73.9 109.08c-.56-.82-1.67 3.59-.88 8.41 2.13-1.03 1.12-4.41.88-8.41z"/><path d="m58.6 102.57c-1.26-7.14-3.73-3.1-.11 3.33.25-.62.51-1.16.11-3.33z"/><path d="m103.63 130.68c-1.08.92-2.33 2.82-3.11 6.08.56 2.45 3.82-4.54 3.11-6.08z"/><path d="m96.51 131.74c-.23.28-3.87 7-1.06 6.66-.69-.4 2.97-5.86 1.06-6.66z"/><path d="m115.49 126.35c-.55-.13-4.72 6.31-1.84 6-.23-1.29.93.24 1.84-6z"/><path d="m115.79 138.13c-2.43.35-6.66-2.54-10.1-2.92-.41 3.07 7.77 4.79 10.1 2.92z"/><path d="m57.93 133.46c-1.37-6.63-2.84-.93-.08 4.62 1.15-.77.41-1.65.08-4.62z"/><path d="m60.79 131.9c-.42.22-1.12 8.18.82 8.67.3378856-2.915524.0584996-5.86952-.82-8.67z"/><path d="m52.28 132.54c-1.4.38-4.94.82-7.43 2.15 1.15.58 6.75.64 7.43-2.15z"/><path d="m105.05 169.74c-3.55-.93-6.93 1.82-10.28 5.73 1.13 1.73 7.75-4.39 10.28-5.73z"/><path d="m96.38 166.8c-2.66.32-8.8 3.94-9.12 8.07 2.12-1.81 6.94-5.47 9.12-8.07z"/><path d="m86.83 181.55c-2.74-1.44-8.09-6.78-13.23-4.9 2.81.74 10.4 5.56 13.23 4.9z"/><path d="m95.72 182.37c-2.17-2.56-5.06-6.89-10.32-8.07.29 1.23 8.1 7.75 10.32 8.07z"/><path d="m46.11 158.6c-.26-.07-1.89-.43.85 7 1.85-1.13.31-3.85-.85-7z"/><path d="m51.14 163c-.84-3.25-3.44-7-.63 3.7.91.3 1.31-1.01.63-3.7z"/><path d="m56.66 169.31c-1.71-.43-6.16.59-8.13 3.79.56 1.37 6.4-2.17 8.13-3.79z"/><path d="m49.26 166.48c-1.62-.86-5.91-.3-8.4 1.89-.3 1.45 6.46-.63 8.4-1.89z"/><path d="m36.64 161c-.74-.74-5.94-.41-5.2 2.24.86-.24.44.81 5.2-2.24z"/><path d="m95.81 199.65c-1.13-.73-5.17 11.46-4.07 12.58 2.83-2.39 4.17-6.94 4.07-12.58z"/><path d="m88.6 202c-.65.95-3.28 10.31-3.66 11.9 3.54-1.41 3.81-6.38 3.66-11.9z"/><path d="m91.67 222c-.75-3.6-14.94-9.15-14.75-5 4.76-.86 11.08 4.3 14.75 5z"/><path d="m101.67 218.2c-1.12-2.46-11.19-8.28-13.43-4.77 3.69-.6 10.38 5.32 13.43 4.77z"/><path d="m112.81 210.47c-2-1.48-7.78-3-11.7-1.89-.28 1.42 9.05 3.2 11.7 1.89z"/><path d="m35.09 192.78c-1.73-7.52-3.34 1.95.25 4 .21-.78.36-1.46-.25-4z"/><path d="m38.37 191c-.94 0-.37 4.39 1.07 7 1.56-1.41-.17-3.74-1.07-7z"/><path d="m29.64 195.47c-.8-1.94-15.5 3.65-6.91 2.58 1.51-.99 4.63-.62 6.91-2.58z"/><path d="m38.53 197.83c-1.57-.16-4-.26-7.64 3.08.44.84 6.83-1.16 7.64-3.08z"/><path d="m19 190.74c-.6-.46-6.39-.42-6 1.8 1-.42 4.61-.17 6-1.8z"/></g><path d="m61.47 79.21c-.76-2.28-4.73 2.15-.13 1.21.27-.42.05 0 .13-1.21z" fill="#e58833"/><path d="m65.05 79.86c-4.21-.27-1.45 8.48 2.18 2.48-.08-.72-.16-1.42-2.18-2.48z" fill="#e58833"/><path d="m59.31 73.34c-2 0-2.23 3.13-.2 3.13s2.22-3.13.2-3.13z" fill="#e58833"/><path d="m79.1 74.33c-4.24-.27-1.46 8.54 2.2 2.5-.08-.73-.17-1.44-2.2-2.5z" fill="#e58833"/><path d="m81.67 81.17c-1.08 0-1.2 1.69-.1 1.69s1.2-1.69.1-1.69z" fill="#e58833"/><path d="m69.69 83.84c-.6.92.86 1.93 1.42 1s-.78-1.96-1.42-1z" fill="#e58833"/><path d="m100.73 181.24c-1.63 0-1.81 2.55-.16 2.55s1.82-2.55.16-2.55z" fill="#e58833"/><path d="m106.78 181.22c-1.66 0-1.84 2.6-.16 2.6s1.84-2.6.16-2.6z" fill="#e58833"/><path d="m98.74 178.81c-.88 0-1 1.37-.09 1.37s.98-1.37.09-1.37z" fill="#e58833"/><path d="m111.64 178.75c-3.93-.25-1.34 7.89 2 2.3-.03-.67-.11-1.32-2-2.3z" fill="#e58833"/><path d="m103.75 178.93c-1.41 0-1.56 2.2-.14 2.2s1.56-2.2.14-2.2z" fill="#e58833"/><path d="m109.84 169.91c-3.19-.2-1.09 6.39 1.64 1.87-.05-.55-.11-1.08-1.64-1.87z" fill="#e58833"/><path d="m114.75 171.81c-1 0-1 1.49-.09 1.49s1.06-1.49.09-1.49z" fill="#e58833"/><path d="m104.82 172.34c-1.43 0-1.58 2.22-.15 2.22s1.58-2.22.15-2.22z" fill="#e58833"/><path d="m79 168.21c-.95 0 .55 3.37 1.7.72-.14-.47-.32-.93-1.7-.72z" fill="#e58833"/><path d="m84.89 167.16c-1.45 0-1.6 2.26-.14 2.26s1.61-2.26.14-2.26z" fill="#e58833"/><path d="m83.57 169.91c.55 1.23.34.77 0 0-1.57-1.2-2.23 4.09 0 0z" fill="#e58833"/><path d="m74.57 171.1c-1.4 0-1.56 2.2-.13 2.2s1.56-2.2.13-2.2z" fill="#e58833"/><path d="m73.84 180.3c-1 0-1.13 1.59-.1 1.59s1.14-1.59.1-1.59z" fill="#e58833"/><path d="m95.77 104.49c-2.8-.19-1 5.62 1.45 1.64-.05-.49-.1-.95-1.45-1.64z" fill="#64896c"/><path d="m102.11 104c-.5-.4-.93-.5-1.08.84.5.57 1.04.74 1.08-.84z" fill="#64896c"/><path d="m99.3 102.27c-.67-.17-.16-.21-1.07.68-.12.62 2.44 1.31 1.07-.68z" fill="#64896c"/><path d="m114.65 93.3c-2.41 0-2.67 3.75-.24 3.75s2.66-3.75.24-3.75z" fill="#64896c"/><path d="m110.67 94.42c-1.19 0-1.32 1.87-.11 1.87s1.32-1.87.11-1.87z" fill="#64896c"/><path d="m116 90.39c-1.58 0-1.75 2.46-.16 2.46s1.78-2.46.16-2.46z" fill="#64896c"/><path d="m56 142.54c-.88-.93-3.28 1.66-.27 1.83.56-.37.82-.57.27-1.83z" fill="#64896c"/><path d="m51.46 139.78c-1.65 0-1.83 2.58-.16 2.58s1.83-2.58.16-2.58z" fill="#64896c"/><path d="m52.56 136.71c.9.63.55.41 0 0-1.89.12.31 4.11 0 0z" fill="#64896c"/><path d="m55.72 138.77c-1.36 0-1.5 2.11-.14 2.11s1.5-2.11.14-2.11z" fill="#64896c"/><path d="m60.34 144.68c-1.31 0-1.45 2-.13 2s1.45-2 .13-2z" fill="#64896c"/><path d="m28 111.82c-1.46 0-1.62 2.29-.14 2.29s1.59-2.29.14-2.29z" fill="#64896c"/><path d="m30.63 113.35c-1.33 0-1.48 2.08-.13 2.08s1.5-2.08.13-2.08z" fill="#64896c"/><path d="m26.9 108.58c-1.3 0-1.44 2-.13 2s1.43-2 .13-2z" fill="#64896c"/><path d="m66.77 139.64c-1.84 0-2 2.86-.18 2.86s2.03-2.86.18-2.86z" fill="#64896c"/><path d="m64.6 136.07c-1.17 0-1.29 1.82-.11 1.82s1.29-1.82.11-1.82z" fill="#64896c"/><path d="m68 144.63c-.91 0-1 1.42-.09 1.42s.98-1.42.09-1.42z" fill="#64896c"/><path d="m63.71 139.73c-1 0-1.16 1.62-.11 1.62s1.15-1.62.11-1.62z" fill="#64896c"/><path d="m92.93 142.82c-2.09 0-2.32 3.26-.21 3.26s2.28-3.26.21-3.26z" fill="#894d2c"/><path d="m97.17 142.59c-1.48 0-1.64 2.3-.15 2.3s1.64-2.3.15-2.3z" fill="#894d2c"/><path d="m102.13 142.82c-1.18 0-1.3 1.84-.11 1.84s1.31-1.84.11-1.84z" fill="#894d2c"/><path d="m100 139.88c-1.3 0-1.44 2-.13 2s1.44-2 .13-2z" fill="#894d2c"/><path d="m87.91 143.5c-1.23 0-1.36 1.91-.12 1.91s1.35-1.91.12-1.91z" fill="#894d2c"/><path d="m87.91 134.63c-1.2 0-1.33 1.86-.12 1.86s1.32-1.86.12-1.86z" fill="#894d2c"/><path d="m83.65 136.94c-1.43 0-1.58 2.22-.14 2.22s1.57-2.22.14-2.22z" fill="#894d2c"/><path d="m90.77 135c-1.61 0-1.78 2.51-.16 2.51s1.78-2.51.16-2.51z" fill="#894d2c"/><path d="m101.51 38.62c-1.2-1.11-2.35 5.76.37 3.4.044453-1.145359-.080221-2.2910134-.37-3.4z" fill="#ef9354"/><path d="m101.8 45c-.77-1.3-2.78 4.46.08 3.11.296554-1.0198709.268596-2.1067246-.08-3.11z" fill="#ef9354"/><path d="m100.92 51.38c.23-1.46-3.34 2.66-.93 3.75.35-.65.81.52.93-3.75z" fill="#ef9354"/><path d="m99.15 44.65c.31 1.25.32 1.86 0 0-1.3-1.43-1.49 4.27 0 0z" fill="#ef9354"/><path d="m98.52 48.93c-.63 0-.81 0-1.29 2 .17.77 2.06 1.63 1.29-2z" fill="#ef9354"/><path d="m97.76 59.41c.39-.3-2.38 4.23.31 2.73-.36-.14 1.6-1.45-.31-2.73z" fill="#ef9354"/><path d="m96.88 56c-.63-.52-2.54 3.84.11 2.67.2-.54.41-1-.11-2.67z" fill="#ef9354"/><path d="m86.16 32.43c-.87-.68-1.75 1.8-.8 3.36.7-.08 1.11-1.39.8-3.36z" fill="#ef9354"/><path d="m87.83 35.5c-.7-1.41-2.37 3.23-.15 2.76.26-.46.46-.92.15-2.76z" fill="#ef9354"/><path d="m86.51 25.45c-1.58-.85-1.18 6.28.15 2.19-.3-.1.84-1.26-.15-2.19z" fill="#ef9354"/><path d="m88.11 28.73c-.63-.75-1.94 3.08 0 2.72.2914566-.8832438.2914566-1.8367562 0-2.72z" fill="#ef9354"/><path d="m89.31 21.24c.21.54 0 .83 0 0-1.87-2.05-2.31 6.84 0 0z" fill="#ef9354"/><path d="m87.11 18.09c-1.36 2.22 1.89 3.32 0 0z" fill="#ef9354"/><path d="m90.19 26.66c0 1.26-.25 1.84 0 0 .37-.72-2.43.57 0 0z" fill="#ef9354"/><path d="m97.27 18.15c-.8.24-.81 0-.64 2.11.66.14 1.5.32.64-2.11z" fill="#ef9354"/><path d="m97.12 13.48c-.1-.22-.51-2.08-1.77-1.48-.18.17 1.29 7.59 1.77 1.48z" fill="#ef9354"/><path d="m99.62 19.77c-.64-.82-2.1 3 .23 2.23.15-.45.31-.88-.23-2.23z" fill="#ef9354"/><path d="m89.43 14.21c1 0 .58 0 0 0-1.37 1.27 1.28 3.13 0 0z" fill="#ef9354"/><path d="m89.75 9.88c-.27-1-2.8 2-.85 2.77.42-.41.8-.85.85-2.77z" fill="#ef9354"/><path d="m87.75 56.79c-1.34-.24.93 5.67 0 0z" fill="#ef9354"/><path d="m87.16 52.68c-.3-.36-.62-.51-1.28.43.02.89 2.03 3.76 1.28-.43z" fill="#ef9354"/><path d="m88.86 55.16c.25.35.31.66 0 0-.27-.25-.64 1.41 0 0z" fill="#ef9354"/><path d="m50.18 196.85c.62 0-4.24-2.73-2.36.16.18-.16 1.65.99 2.36-.16z" fill="#ef9354"/><path d="m47.23 194c0-.38-4.24-1.42-2.48.29.65-.03 2.4 1.05 2.48-.29z" fill="#ef9354"/><path d="m51.16 194.7c0 .94-.45.9 0 0-.41-1.24-3.94-.34 0 0z" fill="#ef9354"/><path d="m43.19 191.57c.34-.34-3.21-2-1.64.27.17-.32 1.06 1.16 1.64-.27z" fill="#ef9354"/><path d="m25.77 189.47c.55-.55-5.66-1.53-1.92.59.15-.18 1.94.86 1.92-.59z" fill="#ef9354"/><path d="m21.16 187.82c.39-.21-3.44-2.32-2 .25.27-.5.59 1.31 2-.25z" fill="#ef9354"/><path d="m29.18 188.77c.21.81-.18.88 0 0-.85-1.19-5.02.78 0 0z" fill="#ef9354"/><path d="m24 187.19c.23.52-.05.66 0 0-.67-1.27-3.58 1.28 0 0z" fill="#ef9354"/><path d="m43.18 202.69c.08-.1-2.49-1.09-2.4.65.22.27 2.02.76 2.4-.65z" fill="#ef9354"/><path d="m39.41 202.43c.45-.17-4-1.22-2.57.74.34-.38.94.83 2.57-.74z" fill="#ef9354"/><path d="m41.05 200.92c.38-.39-3.42-1.16-1.75.67.07-.38 1.06.89 1.75-.67z" fill="#ef9354"/></g></svg>