<svg height="240" viewBox="0 0 205 240" width="205" xmlns="http://www.w3.org/2000/svg"><g fill="none"><path d="m41.21 99.35c3.49-26.06 43.73-25.22 52-15.09v32.93l-31.43 2.52z" fill="#ea612f"/><path d="m74.9 102.61c-5.26-41.69 75.22-28.31 40.72 9.56z" fill="#b82946"/><path d="m110.84 99.6c19.16-37.51 94.48 3.23 27.78 21.4z" fill="#dc5f72"/><path d="m131.46 99.85c88.8-35.58 91.45 128.2 36.92 124.29-39.14 3.52-28.49-106.54-36.92-124.29z" fill="#b82946"/><path d="m60.82 98.46c-88.47-32.26-78.49 178.59 17.34 123.81-12.38-55.84-23.69-95.33-17.34-123.81z" fill="#f59b3c"/><path d="m80.43 99.85c-88-33.47-52.13 180.68 12.18 119.61 9.69-20.23-8-60.87-7.2-59.05-.56-4.15-4.97-60.41-4.98-60.56z" fill="#dc5f72"/><path d="m137.38 67.17c-5.72-33.48-28.94-17.43-32.16-2.1-9 6.3-25.7-5.53-22.9-14.42 27.85 10 25.1-25.11-.91-6.64-3.06-4.43-2.11-10.4 2.3-16.26 21.53 25.67 34.56-26.68 1.29-6.08-1.73-8.8 5.66-15.76 12.39-21.5-7.85-2.1-16 16-14.62 23.8-5.35 6.54-7.3 16.47-3.86 22.82-8 11.86 11.19 27.72 25 24-3 27 1.73 35.42 15.12 39.37-8.88-39.68 8.03-39.66 18.35-42.99zm-47.33-44.43c21.39-7.33 7.36 19.9-4.09 2.72 1.2299734-1.0927614 2.6066191-2.0082813 4.09-2.72zm4.36 19.51c13.19 2.67-2.71 11.55-9.65 4.85.69-.6 1.45-4.47 9.65-4.85z" fill="#45654c"/><path d="m114.12 84.54c.35.48.24.77 0 0-2.99.21-.12 8.46 0 0z" fill="#64896c"/><path d="m115.56 78.17c-1.39-.46-1.81 1.32-1.7 4.34.77.11 1.62-2.25 1.7-4.34z" fill="#64896c"/><path d="m117.72 73.09c-1.33.88-3 6.92 1.1 1 .18-.5.18-.93-1.1-1z" fill="#64896c"/><path d="m123.29 69.35c-.83-1.15-6.22 4.7-.88 1.45.1-.22.87-.15.88-1.45z" fill="#64896c"/><path d="m128.6 66.38c-.37-1.52-7.13 4.44-1.91 1.93-.09-.25 2.51-.4 1.91-1.93z" fill="#64896c"/><path d="m133.94 63.39c0-.91-7.21 3.78-1.79 2.46-.03-.32 2.95-.74 1.79-2.46z" fill="#64896c"/><path d="m124.67 64.92c-.89-1-5.43 4.1-.62 1.78-.54-.01 1.09-.91.62-1.78z" fill="#64896c"/><path d="m131 61.74c-1.21-.29-7.21 4.05.23 1.49.44-.3.77-.66-.23-1.49z" fill="#64896c"/><path d="m116.87 69.67c-.08-.6-2.45 4.77.91 1.11.28-.5.36-.93-.91-1.11z" fill="#64896c"/><path d="m113.26 75.87c-.71-1-2 2.62-.35 2.34.318252-.7362687.438892-1.5428338.35-2.34z" fill="#64896c"/><path d="m110.75 81.79c-.59.41 1 4 1.32.22-.07-.44-.31-.77-1.32-.22z" fill="#64896c"/><path d="m110.48 86.9c-1.41-.85-.48 4.38 0 0z" fill="#64896c"/><path d="m108.22 85.79c-.14-1.07-1.93 2.11.11 2.62.210992-.8662465.17286-1.7744877-.11-2.62z" fill="#64896c"/><path d="m109.7 79.06c-.58-1.07-2.68 2.77-.85 2.77.521003-.8329724.814113-1.7881654.85-2.77z" fill="#64896c"/><path d="m114 70.34c-.09.1-2.74 1.63-1.51 2.55.06-.39 1.97-1.34 1.51-2.55z" fill="#64896c"/><path d="m119.17 64.62c-.28-.33-2.89 1.2-1.69 2.48.26-.25 2.04-.91 1.69-2.48z" fill="#64896c"/><path d="m126.7 59.77c.85-1.38-8.62 4.86-1.69 2.14.1-.36 2.57-.72 1.69-2.14z" fill="#64896c"/><path d="m131.63 57c-.74-.6-5.49 3.29-.83 1.67-.55-.16 1.6-.79.83-1.67z" fill="#64896c"/><path d="m122.43 58.65c-.51-1-5 4.79-.72 1.69-.19-.34 1.41-.18.72-1.69z" fill="#64896c"/><path d="m127.1 55.45c0-.7-5.91 3.12-.87 1.71-.54-.16 1.62-.77.87-1.71z" fill="#64896c"/><path d="m105.64 85c-1.11-.83-1.21 3.71.43 2.92.094208-.9937668-.053318-1.9955766-.43-2.92z" fill="#64896c"/><path d="m108.72 74.06c.44.08.43.29 0 0-1.22.04-1.56 6.86 0 0z" fill="#64896c"/><path d="m112.71 65.88c-.08-.77-3.24 3.57-.43 1.82-.08-.19 1.05-.7.43-1.82z" fill="#64896c"/><path d="m116.21 57.53c.15-1.05-5.52 5.35-.66 2.17-.55.04 1.69-1.36.66-2.17z" fill="#64896c"/><path d="m122.83 51.9c-.24 0-3.45.56-2.65 2.43.21-.4 2.82-.72 2.65-2.43z" fill="#64896c"/><path d="m194.76 132.49c-.33-4.93-3.63-5.13-1.14 3.22 1.13.19 1.69-.8 1.14-3.22z" fill="#9e1e3d"/><path d="m198 142.34c-1.81-8.93-4 3.19.56 4.4.23-.84.36-1.6-.56-4.4z" fill="#9e1e3d"/><path d="m199.34 155.2c.31 2.15 0 3.18 0 0 .15-9.7-4.7 2.8 0 0z" fill="#9e1e3d"/><path d="m194.42 150.45c.1-4.35-3.24-6.31-1.35 2.86 1.06.26 1.69-.59 1.35-2.86z" fill="#9e1e3d"/><path d="m200 168c.16-8.25-4 1-.77 3.48.41-.55.77-1.06.77-3.48z" fill="#9e1e3d"/><path d="m194.65 163.59c-.31-8.52-4.63.42-.28 3.26.29-.6.53-1.11.28-3.26z" fill="#9e1e3d"/><path d="m193.89 174.52c.16-2.52-5 10.53-.57 6.78 1.13-2.4 1.02-2.77.57-6.78z" fill="#9e1e3d"/><path d="m198.24 179.87c.38 1-4 7.33-.71 7.61.21-.99 2.87-6.9.71-7.61z" fill="#9e1e3d"/><path d="m194 194.44c-.58.93-6.88 10.72-.7 4.85-.04-.55 2.64-4.74.7-4.85z" fill="#9e1e3d"/><path d="m191.22 187.44c-2.82-1.5-3.66 13.11-.38 3.41.293265-1.11187.421303-2.260847.38-3.41z" fill="#9e1e3d"/><path d="m187 207.17c-.53.74-7.82 6-3.56 6.59.29-1.13 5.03-4.54 3.56-6.59z" fill="#9e1e3d"/><path d="m184 201.68c-.47-.32-5.54 5.27-1.88 5.4 1.386225-1.438445 2.073203-3.41168 1.88-5.4z" fill="#9e1e3d"/><path d="m178.24 216c-.38 1.13-6.32-.18-6.7 3 .7 1.85 8.11-.85 6.7-3z" fill="#9e1e3d"/><path d="m180.32 195.1c-1.71.23-6.27 9.35-.32 3.09-.44.12 3.07-3.35.32-3.09z" fill="#9e1e3d"/><path d="m185.32 180.35c-1.18-1.25-6 14-.85 6.18.26-1.11 1.41-3.11.85-6.18z" fill="#9e1e3d"/><path d="m187.83 166.35c-1.22-1.95-3 8.1.33 5.42-.000992-1.811656-.111192-3.621606-.33-5.42z" fill="#9e1e3d"/><path d="m157.54 100c-.45-.74-7.74-1.42-6.09 1.3.82-.62 5.66 1.16 6.09-1.3z" fill="#9e1e3d"/><path d="m167.18 101.32c-2.58-1.28-9.54-1.28-.58 1.63.64.05 1.05-.19.58-1.63z" fill="#9e1e3d"/><path d="m164.6 103.93c-3.08-1.26-12.54-.1-.64 1.81.14.06 2.26-.36.64-1.81z" fill="#9e1e3d"/><path d="m177 105.67c-6.22-3.68-2.4 2.42 1.9 2.89.1-.73.1-1.38-1.9-2.89z" fill="#9e1e3d"/><path d="m173.82 111.6c-1.25-2.1-6.45-4.41-1.33 1.19.56.33 1.05.37 1.33-1.19z" fill="#9e1e3d"/><path d="m170.39 114.45c-.84-1.83-7.51-7.72-1.59 1.1.54.6 1.03.69 1.59-1.1z" fill="#9e1e3d"/><path d="m176.35 125c-.16-1.72-4.46-9.83-1.6.6.37.48.77.65 1.6-.6z" fill="#9e1e3d"/><path d="m177.78 113.16c-.47-.29 2.29 7.79 4.23 4.78-.26-1.28-1.35-3.33-4.23-4.78z" fill="#9e1e3d"/><path d="m189.5 119c-.5-2.45-8-10.21-2.67-1.19.42.73 1.42 4.36 2.67 1.19z" fill="#9e1e3d"/><path d="m176.21 202.67c-5.6 48.61-57.5 31.72-79.7 21.46 30.66-67.73 20.62-67.63 26-122.59 0 0 .26-6 11.4-5.42 47.88 11.01 47.01 61.56 42.3 106.55z" fill="#f59b3c"/><path d="m176.21 202.67c-4.62 39.46-39.75 35.2-61.81 28.41-1.4-4.63 2.37-11.56 8.43-13.65.72-4.07 4-9.16 10.24-8.88 38.65-1.57 35.28-77.36 28.11-97.6 15.19 15.91 20.59 44.05 15.03 91.72z" fill="#e58833"/><path d="m154.8 110.65c.89-.92-7.39-6.11-2.85-.9.16-.23 1.91 4.06 2.85.9z" fill="#ce752c"/><path d="m160.7 115.74c-1.06-1.95-6.39-5.38-1.1 2.08-.1 1.45 3.4.82 1.1-2.08z" fill="#ce752c"/><path d="m167 126.24c0-1.93-5.5-8.15-1.8.67.25.75 1.31 1.02 1.8-.67z" fill="#ce752c"/><path d="m155.71 118.58c-.51-.07 1.2 7.65 3.33 4.42-.367432-1.908716-1.596682-3.540333-3.33-4.42z" fill="#ce752c"/><path d="m160.91 129.75c-.68-.78-.9 7.45 1.9 4.77 0-1.07.06-2.01-1.9-4.77z" fill="#ce752c"/><path d="m169.56 136.8c-1.17-9.62-3.89 2.27.28 3.44.16-.67.35-1.24-.28-3.44z" fill="#ce752c"/><path d="m168.17 210.61c-.76-.18-3.5 4.81-2.92 7.62 2.68-.23 2.75-4.18 2.92-7.62z" fill="#ce752c"/><path d="m169.5 201.71c-.49-.81-4 6.52-.33 5.51.930048-1.69444 1.051161-3.716667.33-5.51z" fill="#ce752c"/><path d="m163.14 214.12c-.16-1.33-3.13 3.22-3.93 9 2.91.15 3.69-5.05 3.93-9z" fill="#ce752c"/><path d="m157.88 215.86c.62 1.13-6 6.31-2.47 6.37.81-.14 4.59-5.42 2.47-6.37z" fill="#ce752c"/><path d="m155.59 228.28c-.7 1.15-7.9 1.05-6.31 4.21.82-.02 7.63-2.01 6.31-4.21z" fill="#ce752c"/><path d="m149.46 227.29c-.93.94-7.23.32-7.33 3.38.96.54 7.74-.79 7.33-3.38z" fill="#ce752c"/><path d="m138.91 228.86c-.24.18-7.51-2-5 1.4.59-.48 4.09 1.15 5-1.4z" fill="#ce752c"/><path d="m151 218.36c-.32 1.43-5.75 2.38-4.91 5 1.09.47 6.78-3.36 4.91-5z" fill="#ce752c"/><path d="m159.84 206.78c1-.58 1 0 0 0-2.84 2.14-2.29 10.37 0 0z" fill="#ce752c"/><path d="m172.53 191.41c.42-.42-2.79-.08-.57 5.8 1.04-.78 1.51-2.57.57-5.8z" fill="#ce752c"/><path d="m169.59 193.46c.44-.16-2.63-.45-1.14 6.28 1.77-1.47 1.32-1.19 1.14-6.28z" fill="#ce752c"/><path d="m164.5 197.78c.65-.39-3-.69-1.54 6 1.17-.78 1.62-2.48 1.54-6z" fill="#ce752c"/><path d="m172.85 180.83c-.28-1.54-3.26 10.42.26 3.15-.46-.58 1.35-.79-.26-3.15z" fill="#ce752c"/><path d="m166.65 184.76c-.65.18-2.88 7.88.08 4.25-.64-.59 2.14-1.94-.08-4.25z" fill="#ce752c"/><path d="m156.24 203.31c.7 1-5.57 4.4-2.62 5.65.61-.17 4.38-4.85 2.62-5.65z" fill="#ce752c"/><path d="m148.65 212.32c-.65.73-10 1.75-6.46 4.28.86-.22 7.89-1.77 6.46-4.28z" fill="#ce752c"/><path d="m172.68 169.48c.27 1.74-1.45 1.57-.72 6.35.74-.66 2.04-5.36.72-6.35z" fill="#ce752c"/><path d="m168.14 167.13c.06-.37-2.73 1.11-1.51 6.27 1.23-.57 1.92-3.49 1.51-6.27z" fill="#ce752c"/><path d="m159.17 195.1c.42.61-5.12 3.66-3.13 5.61.96.1 5.12-4.46 3.13-5.61z" fill="#ce752c"/><path d="m158.65 186c-.73-1.75-5.09 8.14-1 6.46.72091-2.075226 1.059719-4.263934 1-6.46z" fill="#ce752c"/><path d="m152.42 196.87c.19 1.66-6.78 3.69-4.23 5.69.9.11 6.41-4.31 4.23-5.69z" fill="#ce752c"/><path d="m124 90.21c-3.21 1.26-6.87 7.11.9 1.46.38-.48.48-.93-.9-1.46z" fill="#bf4159"/><path d="m131.54 86.38c.6-1.08-10.1 4.61-1.74 2.25-.28-.54 2.49.47 1.74-2.25z" fill="#bf4159"/><path d="m138.84 85.75c-2-.17-7.15 3.66.48 1.61.44-.36.68-.77-.48-1.61z" fill="#bf4159"/><path d="m131.31 90.74c-2.46.64-6 6.09 1 1.54.37-.5.5-.97-1-1.54z" fill="#bf4159"/><path d="m142.68 89.77c1.23-1.62-11 2.28-2.12 1.58.34-.21 2.23.12 2.12-1.58z" fill="#bf4159"/><path d="m150.58 89.9c1.15-.51-10.44-1-2.74 1.28.04-.79 1.88 2.08 2.74-1.28z" fill="#bf4159"/><path d="m153.33 182.05c-4.51 38.85-28.66 52.77-44.91 55.92-47.2 11.19-70.15-55-55.49-103.47 17.07-55.32 65.31-51.56 89.17-28.85 14.66 15.91 15.11 42.35 11.23 76.4z" fill="#ea612f"/><path d="m153.33 182.05c-8.48 66.7-74.25 70.46-92 33.5 92.12 40.2 88.14-85.7 65.35-120.42 29.09 12 31.77 43.6 26.65 86.92z" fill="#d85027"/><path d="m125.86 103.2c-1.52-1.86-1.41 9 1.59 6.48.187167-2.275306-.370914-4.549747-1.59-6.48z" fill="#cc4425"/><path d="m130.32 118.4c-1-10.89-4.44 3.19 0 4.3.2-.81.39-1.53 0-4.3z" fill="#cc4425"/><path d="m134.08 110.07c-1.12-.17-.47 6.72 1.53 8.86 2.64-1.63.3-5.57-1.53-8.86z" fill="#cc4425"/><path d="m143.76 117.8c-2.9-11.71-4.33 2.43.5 4.87.21-.94.38-1.77-.5-4.87z" fill="#cc4425"/><path d="m145.83 136.48c-1-11.48-4.48 1.72-.39 4.51.36-.82.68-1.54.39-4.51z" fill="#cc4425"/><path d="m131.48 132.43c-1.62 0-.59 5.8.22 9.41 3.2-.45 1.1-5.04-.22-9.41z" fill="#cc4425"/><path d="m138.05 129.87c-3.84-2.48 1 15.83.83 5-.15-1.2-.37-2.35-.83-5z" fill="#cc4425"/><path d="m146.44 151.43c-1-.13-1.84 6.8-.11 9.62 2.51-1.64.51-4.98.11-9.62z" fill="#cc4425"/><path d="m140.32 149.79c.61-6.66-3.63-5.36-1.28 3.35 1.17-.04 1.51-.92 1.28-3.35z" fill="#cc4425"/><path d="m133.73 155.87c.31-11.11-4.78 1.91-.57 4.39.34-.81.65-1.5.57-4.39z" fill="#cc4425"/><path d="m137.71 163.49c-.62-.74-4 8.85-1.81 10.15 2.1-3 2.35-3.74 1.81-10.15z" fill="#cc4425"/><path d="m144.43 170.28c-.17-1.39-2.52 3.91-1.75 9.62 2.91-.75 1.97-5.57 1.75-9.62z" fill="#cc4425"/><path d="m141.74 189.4c-.18 2-4.13 7.36-2.35 10.58 2.4-.49 3.8-8.98 2.35-10.58z" fill="#cc4425"/><path d="m137.21 189.45c-1.44-.88-3.55 3.81-3.12 6.88 2.6.67 2.49-3.28 3.12-6.88z" fill="#cc4425"/><path d="m130.08 180.8c-.38-1.27-4.32 8-1.38 8.71 1-1.42 2.13-3 1.38-8.71z" fill="#cc4425"/><path d="m124.81 169.49c-.72-.81-4 7.41-2.37 9.23 2.21-2.34 2.56-3.72 2.37-9.23z" fill="#cc4425"/><path d="m121.43 194c-1.13-.38-2.72 4.08-3.88 6.84 2.45 1.44 4.29-3.32 3.88-6.84z" fill="#cc4425"/><path d="m130.7 205.15c.29.91-6.41 8.14-1.93 7.73-.14-.72 4.32-7.33 1.93-7.73z" fill="#cc4425"/><path d="m133.53 214.32c-2.388706 2.614416-4.549884 5.427963-6.46 8.41.34 4 7.5-5.73 6.46-8.41z" fill="#cc4425"/><path d="m123.2 203.31c0-.34-5 6-2 6.71 2.037893-1.575471 2.842791-4.275905 2-6.71z" fill="#cc4425"/><path d="m118.73 222c-.34 2.1-6.68 3.71-6.33 6.95 1.83.49 9.04-4.95 6.33-6.95z" fill="#cc4425"/><path d="m112.65 216.49c-.5.49-9.74 3.93-5.54 5.88.42-.73 6.75-3.65 5.54-5.88z" fill="#cc4425"/><path d="m108.36 209.16c-.6.74-8.75 6.62-4.5 7.63.27-1.31 6.74-5.46 4.5-7.63z" fill="#cc4425"/><path d="m117.31 97.48c-5.08-4.31-3.85-1.69.4 5.59 1.2-.97 1.02-2.31-.4-5.59z" fill="#cc4425"/><path d="m119.17 114.71c-.28-.27-1.74-8.54-2.44-2.74-.5 2.29 3.75 10.29 2.44 2.74z" fill="#cc4425"/><path d="m121.92 137.39c.32-11.1-4.73 1.48-.87 4.41.46-.8.85-1.45.87-4.41z" fill="#cc4425"/><path d="m123.15 149.61c-2.71-3-1.59 12.77.29 4.25-.11-1.01-.06-1.96-.29-4.25z" fill="#cc4425"/><path d="m113.66 178.92c-.69-.67-6 7.55-4.07 9.54 2.55-2.52 3.41-3.28 4.07-9.54z" fill="#cc4425"/><path d="m101.14 200.71c-.53.86-6.17 4.11-4.68 6.77 1.2.52 6.29-4.99 4.68-6.77z" fill="#cc4425"/><path d="m98.13 231.17c-1.11 1.11-10.92.22-9.36 3.89 1.3-.06 9.59-.93 9.36-3.89z" fill="#cc4425"/><path d="m94.29 223.38c-1.09-.27-10.79-2.41-10.53 1.72 1.9-.22 7.67.37 10.53-1.72z" fill="#cc4425"/><g fill="#ef9354"><path d="m54 87.41c-3.33-.21-1.34 6.92 1.65 1.94-.07-.58-.11-1.13-1.65-1.94z"/><path d="m60.29 82.88c-4.19-.25-1.69 8.76 2.09 2.46-.06-.73-.11-1.43-2.09-2.46z"/><path d="m63.31 88.41c-4.19-.25-1.7 8.76 2.08 2.46-.05-.73-.1-1.43-2.08-2.46z"/><path d="m69.41 79.09c-4.93 0-3.83 9.82 2.23 4.82 1.2-2.02.7-3.74-2.23-4.82z"/><path d="m80.82 104.23c-6.49 0-5 12.93 2.93 6.34 1.58-2.66.92-4.92-2.93-6.34z"/><path d="m92.72 99.92c-4.28-.25-1.73 9 2.14 2.52-.06-.75-.11-1.44-2.14-2.52z"/><path d="m90.48 110.08c-2.6.39-.64 5.75 1.83 1.63-.05-.6-.11-1.16-1.83-1.63z"/><path d="m73.71 118.65c-4.28-.25-1.73 8.94 2.13 2.51-.06-.74-.11-1.46-2.13-2.51z"/><path d="m70.55 114.57c-3.3-.2-1.33 6.87 1.63 1.93-.03-.58-.07-1.12-1.63-1.93z"/><path d="m82.59 118.49c-6.61 0-5.14 13.15 3 6.45 1.58-2.7.91-5-3-6.45z"/><path d="m69.05 136.88c-2.35 0-2.87 3.87-.37 3.87 2.32 0 2.86-3.87.37-3.87z"/><path d="m61.72 126.28c-6.6 0-5.13 13.15 3 6.45 1.59-2.73.92-5-3-6.45z"/><path d="m77.44 129.6c-1.76-.32-1.54 4 1.18 2.48.52-.86.38-1.69-1.18-2.48z"/><path d="m56.84 153.67c-2.64 2.47 4.28 5.14 2.83-.18-.62-.42-1.03-.49-2.83.18z"/><path d="m59 142.59c-2.44 0-3 4.000019-.38 4.000019 2.43.009981 2.96-4.000019.38-4.000019z"/><path d="m70.52 151.35c-1.87 0-2.28 3.08-.29 3.08s2.27-3.08.29-3.08z"/><path d="m62.46 190.25c-6.41-.05-5 12.78 2.9 6.27 1.56-2.63.91-4.86-2.9-6.27z"/><path d="m65.08 203.82c-.65-.54-1.36.34-.27.84.38-.27.28 0 .27-.84z"/><path d="m69 200.21c-1.3 1.11 2.05 2.24 0 0z"/><path d="m71 208.64c-1.6 0-1.94 2.63-.25 2.63s1.94-2.63.25-2.63z"/><path d="m56.87 185.66c-.44-2.59-5.22 1.79-.69 1.58-.25-.05.26-.61.69-1.58z"/><path d="m65.41 183.62c-.84 0-1 1.38-.13 1.38s1.02-1.38.13-1.38z"/><path d="m58.29 178.75c-1.41 0-1.72 2.33-.22 2.33s1.72-2.33.22-2.33z"/><path d="m77 191.09c-1.23 0-1.5 2-.19 2s1.51-2 .19-2z"/><path d="m79.26 209c-1.15 0-1.41 1.9-.18 1.9s1.41-1.9.18-1.9z"/><path d="m75.09 221.26c.94.63 1 1 0 0-2.09-.34-1.53 4.84 0 0z"/><path d="m77.47 142.76c.88.35.55.21 0 0-1.76.57 1.22 2.63 0 0z"/><path d="m67 147.16c-1.76 0-2.15 2.91-.28 2.91s2.14-2.91.28-2.91z"/><path d="m64.76 163.88c-.42-1.3-3.7.7-.89 2 .55-.14 1.04-.35.89-2z"/><path d="m54.41 164.65c.81.63.49.39 0 0-2.01.2.52 3.35 0 0z"/><path d="m86.81 96.51c-1.3 0-1.58 2.15-.2 2.15s1.58-2.15.2-2.15z"/><path d="m101.87 96.32c-.93 0-1.13 1.52-.15 1.52s1.13-1.52.15-1.52z"/><path d="m93.86 117.76c-1.44 0-1.76 2.39-.22 2.39s1.76-2.39.22-2.39z"/><path d="m104.39 114.28c-1.09 0-1.33 1.8-.17 1.8s1.33-1.8.17-1.8z"/><path d="m89.83 132c-1.3 0-1.59 2.14-.2 2.14s1.58-2.14.2-2.14z"/><path d="m78.36 157.36c-1.43 0-1.75 2.37-.22 2.37s1.75-2.37.22-2.37z"/><path d="m70.21 88.59c-1.15 0-1.41 1.9-.18 1.9s1.41-1.9.18-1.9z"/></g><path d="m31 105.58c-3-3.79-10.3 4.43-2.21 5.66 2.58-.67 3.45-2.39 2.21-5.66z" fill="#f4ae3d"/><path d="m21.33 111c-4.28-.26-1.73 8.94 2.13 2.51-.06-.76-.1-1.51-2.13-2.51z" fill="#f4ae3d"/><path d="m36.07 101.43c-1.74 0-2.12 2.87-.27 2.87s2.12-2.87.27-2.87z" fill="#f4ae3d"/><path d="m13.12 125.72c-5.33 0-4.15 10.62 2.4 5.21 1.29-2.18.76-4.04-2.4-5.21z" fill="#f4ae3d"/><path d="m21 123.6c-1.68 0-2 2.77-.26 2.77s2.02-2.77.26-2.77z" fill="#f4ae3d"/><path d="m17.47 119c-1.76 0-2.15 2.9-.28 2.9s2.15-2.9.28-2.9z" fill="#f4ae3d"/><path d="m26.71 119.13c-1 0-1.23 1.66-.16 1.66s1.23-1.66.16-1.66z" fill="#f4ae3d"/><path d="m7.15 144.5c-1.63 0-2 2.7-.25 2.7s1.99-2.7.25-2.7z" fill="#f4ae3d"/><path d="m16.16 137.36c-1.15 0-1.4 1.9-.18 1.9s1.41-1.9.18-1.9z" fill="#f4ae3d"/><path d="m12.69 153.93c-1.78 0-2.17 2.94-.28 2.94s2.18-2.94.28-2.94z" fill="#f4ae3d"/><path d="m4.19 160.35c.16.28 0 .36.56.16.25-.45.09-.9-.56-.16z" fill="#f4ae3d"/><path d="m12.69 165.67c.51-2.16-4.63-.16-1.13 1.88.51-.15.98-.32 1.13-1.88z" fill="#f4ae3d"/><path d="m20.22 200.35c-6.52 0-5.07 13 2.94 6.37 1.59-2.67.93-4.94-2.94-6.37z" fill="#f4ae3d"/><path d="m16.08 194.58c-1.72 0-2.1 2.84-.27 2.84s2.1-2.84.27-2.84z" fill="#f4ae3d"/><path d="m18.58 184.45c-4.61-.27-1.86 9.64 2.3 2.71-.06-.8-.11-1.58-2.3-2.71z" fill="#f4ae3d"/><path d="m26.52 197.15c-1.8 0-2.2 3-.28 3s2.2-3 .28-3z" fill="#f4ae3d"/><path d="m27.08 215.26c-.22-2.13-4.62 1.32-.69 1.58-.33-.04.45-.65.69-1.58z" fill="#f4ae3d"/><path d="m30.52 222.07c-1.47 0-1.79 2.42-.23 2.42s1.79-2.42.23-2.42z" fill="#f4ae3d"/><path d="m38 226.24c-1.28 0-1.56 2.11-.2 2.11s1.6-2.11.2-2.11z" fill="#f4ae3d"/><path d="m34 215c-1.15 0-1.4 1.9-.18 1.9s1.42-1.9.18-1.9z" fill="#f4ae3d"/><path d="m38.68 219.08c-3 0-3.61 4.88-.46 4.88 2.95.04 3.6-4.88.46-4.88z" fill="#f4ae3d"/><path d="m86.5 81.89c-4.87 0-3.79 9.71 2.2 4.76 1.19-1.99.7-3.65-2.2-4.76z" fill="#dc5f72"/><path d="m94.77 81.6c-.77-1.16-4.26 1.85-.52 2.29.67-.34.99-.64.52-2.29z" fill="#dc5f72"/><path d="m80.31 89.13c-1.72 0-2.1 2.84-.27 2.84s2.1-2.84.27-2.84z" fill="#dc5f72"/><path d="m92.37 86.2c-1.62 0-2 2.66-.25 2.66s1.96-2.66.25-2.66z" fill="#dc5f72"/><path d="m98.66 80.57c-1.74 0-2.12 2.87-.27 2.87s2.12-2.87.27-2.87z" fill="#dc5f72"/><path d="m53.09 106.13c-3.17-5.94-14 4.9-3.28 6.67 2.24-.66 4.42-2.59 3.28-6.67z" fill="#e27187"/><path d="m43 118.08c-1.85-1.76-4.76 3.76-.29 2.82.56-.44 1.04-.9.29-2.82z" fill="#e27187"/><path d="m48.28 117.42c-2 0-2.45 3.32-.31 3.32s2.45-3.32.31-3.32z" fill="#e27187"/><path d="m38 130.56c.61 1.54.38 1 0 0-2.49-1.42-2.62 5.77 0 0z" fill="#e27187"/><path d="m60.33 101.76c-1.8 0-2.2 3-.28 3s2.2-3 .28-3z" fill="#e27187"/><path d="m53.52 114.84c-1.49 0-1.82 2.45-.23 2.45s1.81-2.45.23-2.45z" fill="#e27187"/><path d="m44 187.31c-1.53-3.05-7.81-3-8.15 2.44-.77 4.16 9.25 6.61 8.15-2.44z" fill="#e27187"/><path d="m43.79 199.63c-2.45 0-3 4.05-.38 4.05 2.45 0 2.99-4.05.38-4.05z" fill="#e27187"/><path d="m36.59 177.07c-1.93 0-2.36 3.18-.31 3.18s2.36-3.18.31-3.18z" fill="#e27187"/><path d="m39.37 168.33c.59-1.86-5.11-1.07-1.57 1.82.55-.08 1.06-.15 1.57-1.82z" fill="#e27187"/><path d="m32.93 161.29c.7.86.5 1.45 0 0-1.65-1.49-2.93 4.11 0 0z" fill="#e27187"/><path d="m51.58 213.06c-.46-1.18-3.09 1.73-.08 1.33.57-.45.14 0 .08-1.33z" fill="#e27187"/><path d="m51.06 203c-5 0-3.85 9.88 2.24 4.85 1.21-2.03.7-3.76-2.24-4.85z" fill="#e27187"/><path d="m41.67 157.45c-.56-.49-3.09 3.8 1 2.59.6-.84.87-1.44-1-2.59z" fill="#e27187"/><path d="m34.74 150.62c-3.57-.22-1.44 7.43 1.77 2.08-.03-.62-.07-1.21-1.77-2.08z" fill="#e27187"/><path d="m43.4 123.87c-6.06-.05-4.71 12.06 2.73 5.91 1.48-2.48.87-4.58-2.73-5.91z" fill="#e27187"/><path d="m78.9 47.94c1 .17.67.6 0 0-.35-.61-1.56 5.35 0 0z" fill="#79a283"/><path d="m82.25 45c-.4-1.08-3.88 3.83-.65 1.27.06-.27.63-.2.65-1.27z" fill="#79a283"/><path d="m84.83 43c.33-1.39-4 2.69-.22.94.06-.09.39-.25.22-.94z" fill="#79a283"/><path d="m81.09 49.27c-.14-1.11-3 2.92-.77 2.36.353692-.7516316.6123512-1.5444052.77-2.36z" fill="#79a283"/><path d="m83.5 45.67c-.35-.36-2.86 3.68-.18 1.4-.32-.07 1.21-.96.18-1.4z" fill="#79a283"/><path d="m78.48 53.75c-.3-.8-1.94 2.62.35 1.44-.16-.19.47-.59-.35-1.44z" fill="#79a283"/><path d="m80.73 56c-.24-.58-1.2-2-.94.62.07.85 2.4 2.88.94-.62z" fill="#79a283"/><path d="m83.41 25.22c-.66-.77-3.33 4.38-.21 1.28-.04-.14.8-.5.21-1.28z" fill="#79a283"/><path d="m86.84 21.64c-.9.26-.72-.49-2.24 2.05.4-.14 2.01-.79 2.24-2.05z" fill="#79a283"/><path d="m85.76 24.59c-.39-.9-3.24 3.26-.33 1.31-.32-.02.91-.7.33-1.31z" fill="#79a283"/><path d="m91.23 19.68c.06-.79-5.48 2.47-1.1 1.39-.47-.2 1.65-.46 1.1-1.39z" fill="#79a283"/></g></svg>