<svg height="174" viewBox="0 0 142 174" width="142" xmlns="http://www.w3.org/2000/svg"><g fill="none"><path d="m83.84 0c19.38 37.51 24 80.33-7.38 106.25-20.46-45.84 14.94-85.46 7.38-106.25z" fill="#ab7966"/><path d="m137 44.75c5.42 47.42-5.68 60-60.57 61.5 0 0 17.08-7.43 23.75-22.9 10.52-24.35 36.82-38.6 36.82-38.6z" fill="#dc5f72"/><path d="m141.19 142.83c-39.14-8-52.62-2.11-64.73-36.58 56.41-.48 46.14 18.16 64.73 36.58z" fill="#d9b199"/><path d="m0 127.83c21.11-20.15 30.25-43.59 76.4607201-21.58.1192799-.54-14.7907201 2-20.0007201 7.75-14.09 23.42-52 6.51-56.46 13.83z" fill="#b82946"/><path d="m29.08 34c-12 52.35 17.5 58.36 47.38 72.26-22.61-41.5-18.92-56.19-47.38-72.26z" fill="#ea612f"/><g fill="#845549"><path d="m82.25 163.66c-.7732072-1.263832-1.9446372-2.234747-3.33-2.76-1.48-2.58-7.25.63-2.73 4l.52.16c-21.08 14.35.15-57 2.87-63.17 4.56-28.89 10.84-61.89 7.74-82.72-4.81 40.38-11 86.77-24.12 128.59-3.64 31.48 23.2 31.04 19.05 15.9z"/><path d="m93.52 46.53c-1.85 3-6.31 6.21-9.21 9.78 2.74.69 9.51-6.55 9.21-9.78z"/><path d="m96 51.91c-3.28 3.14-7 7.25-13.33 10.46 2.23 2.01 13.27-6.27 13.33-10.46z"/><path d="m95.42 62.54c-1.7 2.86-10.75 6.1-11.51 9.21 2.31-.83 12.27-5.92 11.51-9.21z"/><path d="m81.37 77.32c-2.8-1-7.05-7.56-10.33-8.74.82 1.74 8.15 11.42 10.33 8.74z"/><path d="m82.33 66.56c-1.91-.24-6.51-6.46-8.31-6.62-.43 1.95 7.3 9.59 8.31 6.62z"/><path d="m132.73 56.19c-25.29 34.92-24.51 34.65-57.27 51.13 23.92-1.75 53.68-32.79 57.27-51.13z"/><path d="m130 135.51c-22.73-9.89-39.51-17.89-53.54-29.06 7.03 13.66 51 32.07 53.54 29.06z"/><path d="m77.55 105.7c-48-39.61-34.11-44.94-45-58-1.41 24.55 49.14 69.3 45 58z"/><path d="m76.75 105.9c-19.69-.7-48.23 4.2-62.24 16.18 16.65-9.97 49.49-11.86 62.24-16.18z"/><path d="m131.71 76.54c-4.08 1.73-8.05 4.94-15.07 5.35-1.24 3.41 14.86-1.16 15.07-5.35z"/><path d="m122.73 88.84c-4.97263 1.3368402-10.167653 1.6330178-15.26.87-1.26 3.02 13.53 2.29 15.26-.87z"/><path d="m118.84 76.49c-2-2.75-.27-10.23-1.47-13.24-1.94 1.75-2 13.88 1.47 13.24z"/><path d="m110.83 86.39c-1.23-2.51-.81-9-1.31-13.18-2.05 1.33-1.92 14.54 1.31 13.18z"/><path d="m108 99c-1.85.16-6.47-2.32-10.28-1.69.57 2.18 7.95 2.9 10.28 1.69z"/><path d="m44.92 62c2.31-17-.77-.46-4.6 8.78 1.74 2.15 3.48-5.2 4.6-8.78z"/><path d="m51.05 61.79c-1.9 1.89-4.16 9.74-6.21 15.11 3.46-1.46 5.43-9.85 6.21-15.11z"/><path d="m44 76.56c-2.19 0-3.49.1-11.91-1.11 1.54 1.39 10.91 4.31 11.91 1.11z"/><path d="m52.24 85.36c-1.72.59-3.38 1-9 1.63 1.12.77 9.41 1.36 9-1.63z"/><path d="m59.25 79.7c-.53-1-4.41 7.5-2 8.16 1.1970446-2.5619222 1.8766974-5.3349057 2-8.16z"/><path d="m124.45 125.78c-4.471528-.023771-8.911319.751753-13.11 2.29.81 1.42 11.03-.38 13.11-2.29z"/><path d="m118.35 120.14c-3.87 0-10.22 1.44-15.48 3.73.54 1.86 12.25-1.87 15.48-3.73z"/><path d="m102.88 114.59c-4.2039879.581432-8.2904974 1.819871-12.11 3.67-.16 2.16 9.54-2.09 12.11-3.67z"/><path d="m101.52 133.82c-4-1.52-5.7-10.64-8.83-13.11.42 3.66 4 12.99 8.83 13.11z"/><path d="m37.92 111.9c-2.62-.7-11.5-4-14.8-2.06 2.69-.58 13.17 4.69 14.8 2.06z"/><path d="m48 107.77c-1.73-.66-8.74-4.94-11.45-3.44 1.99-.48 9.83 5.93 11.45 3.44z"/><path d="m44.38 109.83c-3.32.75-11.09 9.35-9.46 13.3.78-4.29 7.66-9.45 9.46-13.3z"/><path d="m53.28 107.84c-1.72.15-6.76 6.15-5.16 8.64.27-2.23 3.88-5.48 5.16-8.64z"/><path d="m89.11 81c-1.38 2.17-6.25 4.68-8.76 7.94 2.26 1.13 8.85-5.19 8.76-7.94z"/></g><path d="m133.45 67.82c-2.49-.7-3.84 3.11-1.33 3.81s3.88-3.11 1.33-3.81z" fill="#bf4159"/><path d="m134 63.26c-.83-1.26-3.92 4.79.89 1.84.11-.44.11-.87-.89-1.84z" fill="#bf4159"/><path d="m125 84.06c-2.77-1-2.55 5.41 1 2.07.1-.51.17-.99-1-2.07z" fill="#bf4159"/><path d="m126.14 89c-2-.87-2.72 5.19 1.26 2.15.24-.76.27-1.23-1.26-2.15z" fill="#bf4159"/><path d="m115.52 94.58c.93.93.73 1.5 0 0-.85-1.01-3.04 3.53 0 0z" fill="#bf4159"/><path d="m109.31 96c.85.85.67 1.38 0 0-.78-1-2.79 3.19 0 0z" fill="#bf4159"/><path d="m103.24 84.29c-2.86-1-2.63 5.58 1 2.13.11-.52.19-1.01-1-2.13z" fill="#bf4159"/><path d="m105 80.42c.87.87.68 1.41 0 0-.81-.95-2.86 3.31 0 0z" fill="#bf4159"/><path d="m106.66 85.17c-1.31-.37-2 1.64-.7 2s2.04-1.63.7-2z" fill="#bf4159"/><path d="m122.61 59.73c-.83-1.28-4 4.82.89 1.85.09-.45.16-.88-.89-1.85z" fill="#bf4159"/><path d="m126 56.92c.78.78.61 1.26 0 0-.7-.84-2.54 2.96 0 0z" fill="#bf4159"/><path d="m122.09 65.46c-3-1-2.75 5.82 1.07 2.22.09-.53.17-1.05-1.07-2.22z" fill="#bf4159"/><path d="m40 45.81c-2.51-.7-3.87 3.14-1.34 3.84s3.89-3.13 1.34-3.84z" fill="#ef9354"/><path d="m42.47 54c.33-1.61-4.24-.87-1.47 1.43.51.01 1 0 1.47-1.43z" fill="#ef9354"/><path d="m43.92 48.71c-1.3-.36-2 1.62-.7 2s2-1.64.7-2z" fill="#ef9354"/><path d="m34.67 41.23c-3.32-1.16-3.06 6.5 1.2 2.48.13-.6.19-1.18-1.2-2.48z" fill="#ef9354"/><path d="m31 62.84c-2.58-.72-4 3.23-1.38 4s4.02-3.27 1.38-4z" fill="#ef9354"/><path d="m33.53 69.89c-1.64-.46-2.53 2-.88 2.51s2.53-2.05.88-2.51z" fill="#ef9354"/><path d="m29.62 58.2c.84.85.66 1.37 0 0-.77-.91-2.76 3.21 0 0z" fill="#ef9354"/><path d="m34.57 66c.27 1 .16.63 0 0-1.17-1.11-2.31 2.68 0 0z" fill="#ef9354"/><path d="m54.26 68.77c-3.16-1.1-2.91 6.18 1.14 2.36.09-.57.18-1.13-1.14-2.36z" fill="#ef9354"/><path d="m56.12 74.17c-.88-.24-1.36 1.11-.47 1.36s1.35-1.11.47-1.36z" fill="#ef9354"/><path d="m52.27 73.82c-1.28-.35-2 1.61-.68 2s1.97-1.63.68-2z" fill="#ef9354"/><path d="m54.17 78.28c.85.38.51.21 0 0-.73.11.37 2.25 0 0z" fill="#ef9354"/><path d="m54.24 64.16c1.43.45 1.37 1.25 0 0-1.24-.16-.91 4.21 0 0z" fill="#ef9354"/><path d="m47.84 98.92c-4.2-1.47-3.87 8.21 1.52 3.14.12-.77.23-1.5-1.52-3.14z" fill="#9e1e3d"/><path d="m52.93 100.65c-1.62-.46-2.5 2-.86 2.48s2.5-2.03.86-2.48z" fill="#9e1e3d"/><path d="m50.39 104c.88.88.69 1.43 0 0-.81-.94-2.88 3.37 0 0z" fill="#9e1e3d"/><path d="m59.06 102.24c-.29 1.2-.87 1.25 0 0-.06-1.91-6.01.57 0 0z" fill="#9e1e3d"/><path d="m38.84 99.34c-2.07-.58-3.2 2.59-1.1 3.18s3.2-2.6 1.1-3.18z" fill="#9e1e3d"/><path d="m30.31 104.88c-.25.23-.08 0-.19.62-.49.79 2.63-.22.19-.62z" fill="#9e1e3d"/><path d="m36 106.16c-.68.12-.09-.06-.6 1.15-.19.33 2.72.26.6-1.15z" fill="#9e1e3d"/><path d="m26.76 121.74c-2.86-1-2.63 5.58 1 2.14.11-.52.24-1.02-1-2.14z" fill="#9e1e3d"/><path d="m30 118.85c-1.56-.44-2.41 2-.83 2.39s2.43-1.95.83-2.39z" fill="#9e1e3d"/><path d="m30.34 123.37c.84.85.66 1.37 0 0-.77-.92-2.76 3.21 0 0z" fill="#9e1e3d"/><path d="m41.39 120.81c.9.91.71 1.47 0 0-.83-.99-2.97 3.45 0 0z" fill="#9e1e3d"/><path d="m42.94 116.24c-1.81-.51-2.79 2.26-1 2.77s2.83-2.26 1-2.77z" fill="#9e1e3d"/><path d="m46.74 118.55c-2.41-.67-3.73 3-1.29 3.71s3.73-3.03 1.29-3.71z" fill="#9e1e3d"/><path d="m20.19 122.41c-1.41-.4-2.18 1.77-.75 2.17s2.18-1.77.75-2.17z" fill="#9e1e3d"/><path d="m18.7 111.56c-3.74-1.31-3.44 7.29 1.35 2.78.1-.67.21-1.34-1.35-2.78z" fill="#9e1e3d"/><path d="m22.87 112.2c.91.91.71 1.47 0 0-.87-.99-2.98 3.46 0 0z" fill="#9e1e3d"/><path d="m14.1 117.11c-1.71-.48-2.64 2.14-.92 2.62s2.64-2.14.92-2.62z" fill="#9e1e3d"/><path d="m76.45 50.54c.33-1-3 1.66-.83 2.94.31-.66.18.37.83-2.94z" fill="#d9b199"/><path d="m76.76 55.66c0 1.06-.51 1.36 0 0 .77-2.28-2.36-1.78 0 0z" fill="#d9b199"/><path d="m77.65 44.91c0 1.49-.12 2.15 0 0-.53-1.74-2.33 4.24 0 0z" fill="#d9b199"/><path d="m78.86 50.84c0 1.19-.6 1.45 0 0 .88-2.36-2.43-2.07 0 0z" fill="#d9b199"/><path d="m79.77 43.42c.21.07-.94-3.45-1-.08-.49.15.51 3.66 1 .08z" fill="#d9b199"/><path d="m81.53 38.91c.25.75.18 1.14 0 0 .12-3.16-2.48 1.99 0 0z" fill="#d9b199"/><path d="m78.9 58c-.06 1-.57 1.23 0 0 .96-2.62-2.55-1.26 0 0z" fill="#d9b199"/><path d="m92.55 70.34c-.61-1-1.69 4.44.28 3 .17-.58.34-1.11-.28-3z" fill="#d9b199"/><path d="m94.91 68.07c.32-1-2.63 2.26.1 2.45.2413743-.8048969.206168-1.6674517-.1-2.45z" fill="#d9b199"/><path d="m93.22 78.15c-.13.94-.36 1.36 0 0 1.3-3.24-3.11.59 0 0z" fill="#d9b199"/><path d="m90.33 74.67c.07 1.58-.12 2.31 0 0 .67-.93-2.76 1.13 0 0z" fill="#d9b199"/><path d="m90 86.15c0 .86-.4 1.14 0 0 1.36-2.78-2.77-.71 0 0z" fill="#d9b199"/></g></svg>