<svg height="100" viewBox="0 0 61 100" width="61" xmlns="http://www.w3.org/2000/svg"><g fill="none"><path d="m41.5979381 78.5876289s-20.0103092 7.7216495-31.556701-9.8969073l5.6701031 1.6701031s-11.88659793-9.6494845-15.35051546-29.3814433l4.41237114 5.6494846s-3.03092784-15.3402062-1.57731959-24.8350516c3.90721649 12.0515464 9.52577321-8.5979381-3.19587629-21.7938144 0 0 21.814433 3.96907216 26.5876289 14.9175258-6.2371134-17.12371137 7.7835051.113402 13.2061855 14.1237113-2.1237113-16.4948453 11.4020619 4.4226804 8.6082475 23.3505155 9-12.9381444 6.2886597 16.6804123-6.8041238 26.1958763z" fill="#79a283"/><path d="m60.6391753 92.7835052c-.1546392-.6185567-3.0927835-.6597939-3.3814433 2.1340206l-2.3608248 1.4432989c-9.7216495-6.2783505-41.742268-100.68041233-45.36082473-88.47422676 10.49484533 12.60824746 45.81443303 120.12371106 51.10309283 84.89690726z" fill="#45654c"/><path d="m19.5876289 13.5360825c2.5257732 3.7525773-.5051547 15.4020618 3.3608247 18.1752577 2.5773196-1.2061856-.3402062-22.96907216-3.3608247-18.1752577z" fill="#45654c"/><path d="m30.8453608 20.7731959c3.8556701 9.6494845 1.3608248 25.7731959 3.2164949 34.5463917 5.6391752-4.0515464.4020618-40.4845361-3.2164949-34.5463917z" fill="#45654c"/><path d="m29.4742268 47.4948454c-9.2783505.3402061-16.9587629-9.0618557-22.43298969-15.1340207-4.97938144 7.1855671 26.45360829 24.1237114 22.43298969 15.1340207z" fill="#45654c"/><path d="m38.0309278 67.1030928c-6.9072165.6082474-23.9175257-11.2371134-25.5463917-8.7319588 1.8556701 4.6391753 30.2164948 15.2061856 25.5463917 8.7319588z" fill="#45654c"/><g fill="#64896c"><path d="m41.7525773 32.4536082c1.4536083.2164949 1.6907217.8556702 0 0-1.4123711-.3505154-.3402062 5.2680413 0 0z"/><path d="m43.7319588 35.8041237c-1.4742268.5876289-.7216495 2.9381443.7628866 2.3505155 1.484536-.5876289.7216494-2.9381444-.7628866-2.3505155z"/><path d="m41.0412371 37.2680412c-1.3917526.5567011-.6804124 2.7835052.7216495 2.2268042 1.4020619-.5567011.6804124-2.7835052-.7216495-2.2268042z"/><path d="m45.7216495 42.9896907c-1.6804124.6597938-.8247423 3.3505155.8659794 2.6804124 1.6907216-.6701031.8350515-3.3505155-.8659794-2.6804124z"/><path d="m43.4123711 40.5051546c-1.3505154.5360825-.6597938 2.6907217.701031 2.1546392 1.3608247-.5360825.6597938-2.6907216-.701031-2.1546392z"/><path d="m48.0824742 57.7835052c1.5670103.2268041 1.8247423.927835 0 0-1.5257732-.3711341-.371134 5.6907216 0 0z"/><path d="m45.3608247 56.3195876c-1.3092783.5154639-.6391752 2.6082475.6701031 2.0618557 1.3092784-.5463918.6082475-2.5876289-.6701031-2.0618557z"/><path d="m43.8865979 63.0618557c1.5979382.2371134 1.8659794.9484536 0 0-1.556701-.3711341-.3814433 5.7938144 0 0z"/><path d="m42.1134021 60.2680412c.9484536-.4226804.6082474-.2474226 0 0-.8762887 1.7113402 3.1546391 1.3711341 0 0z"/><path d="m49.1237113 64.0515464c-3.2268041-1.443299.4123712 4.3608247 0 0z"/><path d="m50.0309278 54.257732c-.8041237.3195876-.3917525 1.5979381.4123712 1.2783505.8041237-.3195877.3917525-1.5979382-.4123712-1.2783505z"/><path d="m38.4329897 52.5773196c1.556701.2371134 1.814433.927835 0 0-1.5257732-.3608248-.371134 5.6804124 0 0z"/><path d="m42.5463918 50.5154639c-.5051547.1958763-.2474227 1.0309279.2680412.814433.5154639-.2164948.2474227-1.0103093-.2680412-.814433z"/><path d="m40.8969072 48.2680412c-.5979381.2371134-.2886598 1.1958763.3092784.9587629.5979381-.2371134.298969-1.1958763-.3092784-.9587629z"/><path d="m10.371134 24.8865979c1.5463918.2268042 1.8041237.9175258 0 0-1.5154639-.371134-.371134 5.628866 0 0z"/><path d="m11.8865979 21.0618557c1.4020619.2061855 1.628866.8247422 0 0-1.3608247-.3298969-.3298969 5.0721649 0 0z"/><path d="m14.8659794 28.8659794c-.443299.3195876-.628866.6597938.5051546 1.2989691.5979382-.2680413.814433-.6597939-.5051546-1.2989691z"/><path d="m17.1443299 32.7628866c-.3402062.1649485-.6701031.6082474-.0515464 1.5257732.628866-.1649485 2.0309278-.443299.0515464-1.5257732z"/><path d="m11.1340206 31.7731959c1.1546392.1649484 1.3195876.6701031 0 0-1.1340206-.257732-.2474227 4.113402 0 0z"/><path d="m8 46.1030928c1.29896907.185567 1.48453608.7628866 0 0-1.28865979-.2783505-.28865979 4.6597938 0 0z"/><path d="m14.9587629 48.2886598c.7731959.2680412.8865979.6082474 0 0-1.556701-.3298969-.4536083 3.6701031 0 0z"/><path d="m9.27835052 51.7731959c-1.03092784.3814433-.48453609 1.9587629.50515463 1.5670103.98969075-.3917526.44329895-1.9587629-.50515463-1.5670103z"/><path d="m15.4639175 52.0618557c-2.9896907.9690721 1.2989691 6.298969 2.1958763 1.1237113-.2989691-.4845361-.5463917-.9484536-2.1958763-1.1237113z"/><path d="m9.58762887 42.4845361c-1.10309279.443299-.53608248 2.2164948.57731963 1.7731959 1.113402-.443299.5360824-2.2164949-.57731963-1.7731959z"/><path d="m18.8659794 70.628866c-.8556701 0-.2989691 3.7113402 1.3608247.5773196-.1752577-.7422681.0515464-.072165-1.3608247-.5773196z"/><path d="m23.2989691 73.5051546c1.1340206.1546392 1.298969.6597939 0 0-1.1030928-.2474226-.2371134 4.0206186 0 0z"/><path d="m25.4020619 69.0721649c-2.9793815.9690722 1.3298969 6.257732 2.185567 1.1237114-.2474227-.4845361-.4948454-.9484536-2.185567-1.1237114z"/><path d="m21.1546392 68.1546392c-.7319588.2886598-.3608248 1.4639175.3814433 1.1752577.742268-.2886598.3608247-1.4639175-.3814433-1.1752577z"/><path d="m28.8659794 75.9690722c1.0309278.1443299 1.185567.5979381 0 0-1.0309279-.2268042-.2474227 3.6804123 0 0z"/><path d="m31.3298969 72.1649485c-.5154639.1958762-.257732 1.0309278.257732.8041237.5154639-.2268042.2474226-1.0103093-.257732-.8041237z"/><path d="m26.8762887 73.4948454c-.9793815.3917525-.4845361 1.9587628.5154639 1.5670103 1-.3917526.4432989-1.9587629-.5154639-1.5670103z"/></g></g></svg>