<svg height="147" viewBox="0 0 106 147" width="106" xmlns="http://www.w3.org/2000/svg"><g fill="none"><path d="m94.47 128.35c-1.1304494 1.349647-2.4832597 2.496154-4 3.39-3.86 2.48-11.57 3.91-21.7-.78-21.06 34-58.78 2.35-67.35-29.09-7.51-29.64 15.79-65.87 45.34-44.87l.84.65c28.06-52.85 81.19 31.05 46.87 70.7z" fill="#b82946"/><path d="m48 63.8c-6.88 0-13.35-4.56-16-12.89 4.39.36 9.43 2.14 14.78 6.11.3860436-.0428694.7675333-.1198366 1.14-.23 1.08-2.7 4.39-8.95 10-12.36 4.83 7.57-1.43 18.05-9.92 19.37z" fill="#9e1e3d"/><path d="m46.76 57c-2.45.24-6.75-.39-8.39-4.7 3.017454 1.1350904 5.8460547 2.7196462 8.39 4.7z" fill="#9e1e3d"/><path d="m54.76 46.8c1.21 3.37-2.17 8.44-6.86 10 1.4816871-3.8194496 3.8300218-7.2426781 6.86-10z" fill="#9e1e3d"/><path d="m91.66 131c-.3804041.284003-.7778117.544489-1.19.78-3.86 2.48-11.57 3.91-21.7-.78-2.36 4.08-13.87 17-24.15 15 28.82-20.8 7-21.58 47.04-15z" fill="#9e1e3d"/><path d="m94.47 128.35c-5.39 5.81-13.47 8.12-25.7 2.61-2.4818139 3.779449-5.5620604 7.129893-9.12 9.92.6552906-6.232437 4.9945171-11.459232 11-13.25 43-6.86 22.7-62.43 5.74-85.73 20.22 6.1 43.61 55.83 18.08 86.45z" fill="#9e1e3d"/><path d="m66.32 130c-4.6 6.5 1.6 14.59 3 0-.39-.75-1.57-1.25-3 0z" fill="#522619"/><path d="m70.28 130.27c-4.68-3.89-3.91 7.95 2 6.86 1.61-2.13-.28-3.6-2-6.86z" fill="#522619"/><path d="m75.67 131.72c-7.64-6.73-14 2.05-.11 3.31.58-.58 1.13-1.13.11-3.31z" fill="#522619"/><path d="m40.66 38.7c-26.29-23.93-25.57 10.67-13.3-.81 9.84 2.2 15.06 13.66 19.64 22.82 6.61-3.56-2.29-17.94-6.34-22.01z" fill="#522619"/><path d="m42.27 46.34s-15.17-18.26 22.36-46.34c0 0 14.37 47.74-22.36 46.34z" fill="#45654c"/><path d="m62.31 5.37c-1 17.64-23.06 39-19.7 44.64 5.39-12.01 22.94-33.78 19.7-44.64z" fill="#79a283"/><path d="m64.77 19.65c-.89.71-10.27 2.38-7.62 5.18 1.44-.49 7.73-2.03 7.62-5.18z" fill="#79a283"/><path d="m63.89 26.37c-1.33 1.53-11 1.46-10.45 4.74 1.82-.35 10.2-1.18 10.45-4.74z" fill="#79a283"/><path d="m57.88 35.91c-1.43 1-6.45-.35-9.15 1.39.57 2.46 9.27.84 9.15-1.39z" fill="#79a283"/><path d="m51.38 15.23c-1.45 3.1-1.09 10.32 2.06 14.16.56-2.97-1.37-10.28-2.06-14.16z" fill="#79a283"/><path d="m44.92 25.76c-.09 2.41.55 9.41 3.17 12.62 1.31-2.22-1.21-9.99-3.17-12.62z" fill="#79a283"/><path d="m55.17 11c-.82.27-.56 1.68.31 1.4s.52-1.67-.31-1.4z" fill="#79a283"/><path d="m58.16 7.93c-1.09.35-.73 2.22.42 1.84s.74-2.22-.42-1.84z" fill="#79a283"/><path d="m57 12.28c-1.4.46-1 2.88.55 2.39s.91-2.88-.55-2.39z" fill="#79a283"/><path d="m54.58 16.07c-.88.29-.59 1.79.34 1.49s.59-1.79-.34-1.49z" fill="#79a283"/><path d="m51.45 40.42c-1.4.46-1 2.86.54 2.37s.94-2.86-.54-2.37z" fill="#79a283"/><path d="m54.52 42.13c-1 .34-.68 2.08.4 1.73s.68-2.08-.4-1.73z" fill="#79a283"/><path d="m56.83 39.47c-.92.3-.62 1.88.35 1.56s.63-1.88-.35-1.56z" fill="#79a283"/><g fill="#891838"><path d="m93.41 81.46c-5.15 1.36 1.43 11.22 3.49 2.14-.36-.85-.69-1.68-3.49-2.14z"/><path d="m97.94 93.87c-3.23.85.9 7 2.18 1.34-.21-.54-.42-1.06-2.18-1.34z"/><path d="m94.11 91.91c-2.22.73-1.5 4.55.86 3.77s1.5-4.55-.86-3.77z"/><path d="m94.65 104.88c-2.82 2.18 3.9 5.38 0 0z"/><path d="m86 116c-1.2 1.9 3.2 4.08 2.69 0-.36-.86-1.49-1.51-2.69 0z"/><path d="m84 106.3c-2 .67-1.38 4.19.79 3.47s1.33-4.18-.79-3.47z"/><path d="m95.28 115.12c1.28.42 1.55 1.12 0 0-4.04-.55-.04 8.08 0 0z"/><path d="m81 124.11c1.5.38.9.22 0 0-1.86.76 2 3.65 0 0z"/><path d="m74.7 118.67c-1.72.56-1.16 3.53.67 2.92s1.16-3.52-.67-2.92z"/><path d="m86.39 76.86c-1.64-1.62-4.3 4.2.32 2.15.29-.58.44-.87-.32-2.15z"/><path d="m86.69 92.43c-.64-3.06-6.79 2.07-1.51 2.63.54-.72 1.24-.29 1.51-2.63z"/><path d="m74.49 106.67c1.48.19 1.77.94 0 0-3.49.72 1.63 5.97 0 0z"/><path d="m94.06 71.61c-2.06.68-1.39 4.22.8 3.5s1.39-4.22-.8-3.5z"/><path d="m87.09 66.74c-1-.78-3.09 2.24 0 2 .68-.74.19-.06 0-2z"/><path d="m75.14 86.76c-.17-.1-.65-.51-1.19.46-.16.13 1.66 1.56 1.19-.46z"/><path d="m65.13 106.57c-1.54.51-1 3.16.6 2.62s1.04-3.19-.6-2.62z"/><path d="m62.28 123c-2.17-.16-.83 4.32 0 0z"/><path d="m48.1 65.93c-3.17.83.88 6.9 2.14 1.31-.24-.53-.41-1.04-2.14-1.31z"/><path d="m55.72 63.28c-1.16.34-.48 3.92 1.85 1.78.13-1.01-.28-1.73-1.85-1.78z"/><path d="m60.8 57.24c1.19-.4.74-.24 0 0-1.33 2.02 3.83 1.98 0 0z"/><path d="m59.25 69.32c-2.25-.06-.64 4.55 1.34 1.44-.03-.63-.18-.76-1.34-1.44z"/><path d="m53.05 71.52c-1.22.4-.83 2.5.47 2.07s.82-2.5-.47-2.07z"/><path d="m36.66 63.53c-2-.22-2.23 3.11-.22 3.09 1.78-.02 2.02-2.89.22-3.09z"/><path d="m31.45 58.32c-2.22-.21-1.13 4.82 1.29 1.24-.05-.56-.22-.72-1.29-1.24z"/><path d="m22 61c-.78-1.25-3.81 1.46-.59 2.28.79-.28 1.22-.61.59-2.28z"/><path d="m26.16 66.37c-1.7.56-1.15 3.49.65 2.89s1.19-3.48-.65-2.89z"/><path d="m65.86 49.45c.13-1.15-3.29-.24-.63 1.13.41-.21.26.11.63-1.13z"/><path d="m40.52 71.27c-1.64.54-1.11 3.36.63 2.79s1.11-3.36-.63-2.79z"/><path d="m69.12 54.69c-2.22.73-1.5 4.56.86 3.78s1.5-4.55-.86-3.78z"/></g><path d="m10.86 72.92c-4.48.8.85 8.91 2.66 1.63-.26-.67-.52-1.31-2.66-1.63z" fill="#dc5f72"/><path d="m16.54 75.91c-1.7.56-1.15 3.49.66 2.89s1.15-3.48-.66-2.89z" fill="#dc5f72"/><path d="m12.86 85.75c-1.56.52-1.06 3.2.6 2.66s1.06-3.2-.6-2.66z" fill="#dc5f72"/><path d="m6 84.12c-1.76.58-1.19 3.61.68 3s1.15-3.62-.68-3z" fill="#dc5f72"/><path d="m21.26 81.11c-2.74.9-1.85 5.62 1.06 4.66 2.74-.9 1.86-5.61-1.06-4.66z" fill="#dc5f72"/><path d="m9.59 97.14c-4.97 1.31 1.41 10.86 3.41 2.06-.4-.83-.72-1.62-3.41-2.06z" fill="#dc5f72"/><path d="m18.54 94.2c-1.32.43-.9 2.71.51 2.24s.89-2.7-.51-2.24z" fill="#dc5f72"/><path d="m17.64 114.78c-1.8.59-1.22 3.69.7 3.06s1.21-3.69-.7-3.06z" fill="#dc5f72"/><path d="m23 123c-1.34.44-.91 2.75.51 2.28s.88-2.74-.51-2.28z" fill="#dc5f72"/><path d="m24.3 114.86c-1.64.54-1.11 3.36.63 2.79s1.07-3.36-.63-2.79z" fill="#dc5f72"/><path d="m14.73 109.47c-1.32-1-2.92 3 0 2.79.8-.57 1.04-1.38 0-2.79z" fill="#dc5f72"/><path d="m26.81 104.23c-2.62-.22-.75 4.83 1.37 1.8-.06-.62-.18-.93-1.37-1.8z" fill="#dc5f72"/><path d="m30.64 90.65c-1.14.38-.77 2.34.44 1.94s.77-2.34-.44-1.94z" fill="#dc5f72"/><path d="m31.09 129.12c.06 1.34 0 .83 0 0-1.45-1.91-3 3.67 0 0z" fill="#dc5f72"/><path d="m36.44 130c-1.68.55-1.14 3.44.65 2.86s1.13-3.49-.65-2.86z" fill="#dc5f72"/></g></svg>