<svg height="219" viewBox="0 0 158 219" width="158" xmlns="http://www.w3.org/2000/svg"><g fill="none"><path d="m136.13 31.42c-.35-4.86-2.13-9.64-6.14-12.49 2.86-14.66-13.35-25.28-25.29-14.57-17 .45-22 32.11-5.53 23.72-14.52.69-8.17-18.48 3.55-21.27-6.82 17.28 20.65 7 5-2.07 9.17-6.35 21.47.36 20.11 12.93-22.22-4.92-8.62 23.18 1.51 3.83 4.32 1.35 5.14 24.5 6.79 9.92zm-26.13-19.75c-2.35 4.79-9.48.87-4.34-5.08 2.79.24 5.56 1.68 4.34 5.08zm13.51 13.59c-8.45 3.14-6.08-10.25 3.82-5.11-.509653 2.159349-1.893166 4.01007-3.82 5.11z" fill="#79a283"/><path d="m110.14 57.12c-5-19.31 10.45-22.28 21.68-11.39 10.33 30.97-12.57 25.65-21.68 11.39z" fill="#79a283"/><path d="m125.33 62.35c20.13-25.68 43.56-.25 16.56 24z" fill="#f59b3c"/><path d="m114.84 55.77c1.46-10.18-12.69-17.29-25-6.35-15.84 16.08-22.1 49.23-32.76 49.86-14.76 6.31-46 14-54.9 38.2-8 36.31 6.77 46.29 33.13 19 63.69-63.82 39.9-86.77 77.13-102.12z" fill="#f59b3c"/><path d="m140.24 64.21s18.47-2.36 17 13.52-29.24 53.4-27.87 65.27 5.12 81.8-34.81 75c-31.1-5.28 3.78-90.91 3.78-90.91z" fill="#dc5f72"/><path d="m121.92 148.7c.48 72.67-51.09 92-58.86 39.24-1.06-39.55 47.94-98.14 49.38-99.73 6-8.2 11.66-28.53 18.61-26.93 46.85 5.72-15.05 61.41-9.13 87.42z" fill="#79a283"/><path d="m119.41 61.11c-18.66-36-39.84 35-62.08 50.17-5.6923436 4.934107-12.5250787 8.371097-19.88 10-56.11 16-25.42 101.42 6 77.71 45.89-47.36 51.36-111.29 75.96-137.88z" fill="#45654c"/><path d="m152 44.41c-4.49 3.11-7.43-.1-11-2.19-16.89 11.36-10.4 28.78-21.59 18.89 18.27-54.11 42.8-28.4 32.59-16.7z" fill="#45654c"/><path d="m121.92 148.7c3.54 30.47-24.56 99.92-55.08 54.67 14.22-30.64 32.88 43.9 46.58-67 2.1-28.24 31.48-44.06 27.24-72.92 26.34 17.64-22.54 55.68-18.74 85.25z" fill="#64896c"/><path d="m134.5 65.57c-50.1 104.88-26.94 83.18-45.68 129.51-36.5 65.19-125.23-21.52-12.46-84.79 22.1-10.62 41.11-84.57 58.14-44.72z" fill="#ea612f"/><path d="m134.14 68.65c-49.09 94.6-27.14 86.89-46.14 128.06-15.59 35.1-66.4 23-66.82-13.2 44.16 12.16 52.19-6 66.28-38.06 27.02-45.34 37.54-96.38 46.68-76.8z" fill="#d85027"/><path d="m152 44.41c-11.23 5.18-13-7.56-6-16.56 4.5 1.15 12.87 7.58 6 16.56z" fill="#64896c"/><path d="m141.9 53.14c-4.39-.26-1.77 9.15 2.18 2.57-.08-.71-.08-1.5-2.18-2.57z" fill="#f4ae3d"/><path d="m147.34 57.22c-1.35 0-1.65 2.23-.21 2.23s1.65-2.23.21-2.23z" fill="#f4ae3d"/><path d="m151.26 60.15c-1.7 0-2.07 2.79-.27 2.79s2.06-2.79.27-2.79z" fill="#f4ae3d"/><path d="m144.1 60.39c-1 0-1.21 1.64-.15 1.64s1.21-1.64.15-1.64z" fill="#f4ae3d"/><path d="m135.23 54.83c-2.9-.17-1.17 6 1.43 1.7-.02-.53-.06-.99-1.43-1.7z" fill="#f4ae3d"/><path d="m96.28 46.53c-4.41-.26-1.78 9.21 2.19 2.59-.06-.77-.11-1.5-2.19-2.59z" fill="#f4ae3d"/><path d="m102.25 46.62c-1.71 0-2.08 2.82-.26 2.82s2.08-2.82.26-2.82z" fill="#f4ae3d"/><path d="m89.06 53.73c-1.65-.46-1.65 3.9.84 1.82.16-.64.1-.84-.84-1.82z" fill="#f4ae3d"/><path d="m94.3 53.85c-1.54 0-1.88 2.55-.24 2.55s1.88-2.55.24-2.55z" fill="#f4ae3d"/><path d="m86.16 59.25c.69 1.12.41.68 0 0-2.16-.64-.82 4.06 0 0z" fill="#f4ae3d"/><path d="m81.59 67.63c1.23-.16.76-.09 0 0-1.45 1.37 2.86 2.28 0 0z" fill="#f4ae3d"/><path d="m87.92 61.92c-2.93-.18-1.18 6.09 1.45 1.7-.03-.5-.06-.99-1.45-1.7z" fill="#f4ae3d"/><path d="m33.63 109.87c-5-.29-2 10.52 2.51 3-.07-.87-.14-1.76-2.51-3z" fill="#f4ae3d"/><path d="m40.61 109.72c-2 0-2.48 3.35-.32 3.35s2.47-3.35.32-3.35z" fill="#f4ae3d"/><path d="m26.7 115.5c-1.37 0-1.67 2.26-.22 2.26s1.68-2.26.22-2.26z" fill="#f4ae3d"/><path d="m16.56 120.8c-5.14-.31-2.08 10.75 2.56 3-.07-.88-.12-1.74-2.56-3z" fill="#f4ae3d"/><path d="m9.34 130c-2.92-.18-1.17 6.1 1.45 1.71-.02-.5-.06-.99-1.45-1.71z" fill="#f4ae3d"/><path d="m6.76 137.93c-1.42 0-1.74 2.35-.22 2.35s1.74-2.35.22-2.35z" fill="#f4ae3d"/><path d="m15.07 129.08c-1.71 0-2.09 2.82-.27 2.82s2.08-2.82.27-2.82z" fill="#f4ae3d"/><path d="m24.93 122.09c-.59 1.57-1.33 1.54 0 0 .25-1.81-4.31-.5 0 0z" fill="#f4ae3d"/><path d="m32 117.71c-1.48 0-1.8 2.44-.23 2.44s1.76-2.44.23-2.44z" fill="#f4ae3d"/><path d="m49.17 104.73c-5.17-.31-2.08 10.81 2.58 3-.07-.86-.13-1.73-2.58-3z" fill="#f4ae3d"/><path d="m102.25 56.1c-4.52-.27-1.82 9.44 2.25 2.65-.06-.75-.11-1.54-2.25-2.65z" fill="#79a283"/><path d="m108.9 56.11c.4-.94-4.14-1-1 1.68.45-.12.87-.28 1-1.68z" fill="#79a283"/><path d="m102.21 64.69.11.08c-4.32-2.28-.48 6.49-.11-.08z" fill="#79a283"/><path d="m95.31 63.81c-3.61 0-4.4 6-.57 6 3.61-.05 4.4-6 .57-6z" fill="#79a283"/><path d="m90.22 74.88c-1.94 0-2.36 3.19-.3 3.19s2.36-3.19.3-3.19z" fill="#79a283"/><path d="m96.48 72.4c-1.39 0-1.69 2.29-.21 2.29s1.73-2.29.21-2.29z" fill="#79a283"/><path d="m86.78 81.35c-1.18 0-1.44 2-.18 2s1.4-2 .18-2z" fill="#79a283"/><path d="m90.59 81.52c.6 1 .36.58 0 0-1.59-.52-.59 3.25 0 0z" fill="#79a283"/><path d="m83 89c-.21.21-.19 0-.18.59-.16.52 2.01-.47.18-.59z" fill="#79a283"/><path d="m79.33 90.07c-1 0-1.21 1.64-.15 1.64s1.21-1.64.15-1.64z" fill="#79a283"/><path d="m76.17 95.23c-.61-.35-2.21 2.54.42 1.42.54-.65.25-.06-.42-1.42z" fill="#79a283"/><path d="m69.42 102c-1 0-1.24 1.68-.16 1.68s1.24-1.68.16-1.68z" fill="#79a283"/><path d="m81.15 94.82c-1.24 0-1.51 2.05-.19 2.05s1.51-2.05.19-2.05z" fill="#79a283"/><path d="m27.28 128.36c-4.8-.09-3.67 9.61 2.17 4.7 1.16-1.97.68-3.65-2.17-4.7z" fill="#79a283"/><path d="m17.8 138c-5.17-.31-2.09 10.81 2.58 3-.07-.9-.13-1.77-2.58-3z" fill="#79a283"/><path d="m24.62 139.05c-1.43 0-1.74 2.36-.22 2.36s1.74-2.36.22-2.36z" fill="#79a283"/><path d="m35.16 126.46c-1.43 0-1.74 2.35-.23 2.35s1.74-2.35.23-2.35z" fill="#79a283"/><path d="m31.72 134c-1.44 0-1.75 2.37-.23 2.37s1.75-2.37.23-2.37z" fill="#79a283"/><path d="m40.54 125c-2.54 1 1.9 5.42 0 0z" fill="#79a283"/><path d="m37.37 130.86c.58 1.28.11 1.8 0 0-.93-1.86-4.98 4.37 0 0z" fill="#79a283"/><path d="m17.85 148.54c-.11 1.05-.56 1.52 0 0 .05-1.98-4.85 1.55 0 0z" fill="#79a283"/><path d="m11.62 154.75c-3.39-.2-1.36 7.07 1.68 2-.03-.6-.07-1.17-1.68-2z" fill="#79a283"/><path d="m19 154.7c-1 0-1.26 1.7-.17 1.7s1.22-1.7.17-1.7z" fill="#79a283"/><path d="m25.48 149.22c-1-5.5-6.29 4.53-.2.91-.23.19.17.15.2-.91z" fill="#79a283"/><path d="m119.25 58.57c-4.33-.25-1.75 9.05 2.16 2.54-.06-.75-.11-1.47-2.16-2.54z" fill="#ef9354"/><path d="m115.24 68.58c-1.94-4.47-9.7 4.26-1.3 3.52.68-.46 1.31-.93 1.3-3.52z" fill="#ef9354"/><path d="m108 81.62c-.36-.66-4.8 1.46-.71 2.88 1.15-.11 2.11-1.38.71-2.88z" fill="#ef9354"/><path d="m113.08 75.08c-1.83 0-2.22 3-.29 3s2.21-3 .29-3z" fill="#ef9354"/><path d="m120.64 65.69c-1.64-.78-.97 3.07 0 0z" fill="#ef9354"/><path d="m126.23 60.19c-.34-2.92-5.9 1.81-.67 1.9.15-.16.72-.3.67-1.9z" fill="#ef9354"/><path d="m101 90.38c-.61.14-.95.39-.12 1.47.7.02 1.12-.28.12-1.47z" fill="#ef9354"/><path d="m106.49 77.63c-.46-.28-2.07 2.7.73 1.63.29-.54.4-.91-.73-1.63z" fill="#ef9354"/><path d="m89.7 103.77c.55 1.19.33.72 0 0-1-.84-2.31 3.56 0 0z" fill="#ef9354"/><path d="m42.19 139.92c-5.57 0-4.33 11.1 2.52 5.45 1.35-2.29.79-4.23-2.52-5.45z" fill="#ef9354"/><path d="m35.62 154.17c.53 1.38.33.85 0 0-2.69-1.46-2.62 5.31 0 0z" fill="#ef9354"/><path d="m45.3 150.83c-.78-.4-2.53 3.41.78 2.68.75-.63.98-1.97-.78-2.68z" fill="#ef9354"/><path d="m54.25 140.68c.12-2.89-5.69-.72-1.8 1.64.61.04 1.32-.27 1.8-1.64z" fill="#ef9354"/><path d="m56.37 131.8c-3.92-.23-1.58 8.19 2 2.3-.1-.68-.14-1.33-2-2.3z" fill="#ef9354"/><path d="m55.9 150.35c-.75-1.82-6.47.56-2 3.37 1.25.18 2.61-.96 2-3.37z" fill="#ef9354"/><path d="m29.38 164.66c-6 0-4.67 11.94 2.7 5.86 1.46-2.46.85-4.52-2.7-5.86z" fill="#ef9354"/><path d="m39.06 162.73c-1.68 0-2 2.76-.26 2.76s2.03-2.76.26-2.76z" fill="#ef9354"/><path d="m36.45 173.91c-1.19-2.26-3.89 3.42-.28 1 .2726603-.254947.3806245-.640533.28-1z" fill="#ef9354"/><path d="m50 161.08c-.16-1.88-4.8.46-1.23 2.07.56-.15 1.07-.33 1.23-2.07z" fill="#ef9354"/><path d="m66.86 133.41c-2.8 0-3.42 4.62-.44 4.62 2.8-.03 3.41-4.62.44-4.62z" fill="#ef9354"/><path d="m65.77 125.1c-1.83 0-2.23 3-.29 3s2.22-3 .29-3z" fill="#ef9354"/><path d="m76.7 119.09c-4.87-.28-2 10.18 2.43 2.86-.07-.84-.13-1.66-2.43-2.86z" fill="#ef9354"/><path d="m152.24 70.42c-.52-.47-1 6 .84 5.86.625059-1.979489.315962-4.1358109-.84-5.86z" fill="#bf4159"/><path d="m154.16 79.05c-.37-.42-3.3 4.72-1.58 5.6 1.05-1.87 1.42-.78 1.58-5.6z" fill="#bf4159"/><path d="m150.74 82.27c.52-.09-2-.59-1.66 5.34 1.04-1.79 1.29-.81 1.66-5.34z" fill="#bf4159"/><path d="m150 89.83c.2 1-2-.16-2 5 1-1.52 1.36-.44 2-5z" fill="#bf4159"/><path d="m143.57 98.2c-.41-.5-3.68 6.59-.3 2.2-.27-.29 1.16-.77.3-2.2z" fill="#bf4159"/><path d="m141.74 106.55c-.09.22-3.44 3.32-1.92 4.91.71-.34 2.79-3.41 1.92-4.91z" fill="#bf4159"/><path d="m137.28 109.76c.36.94-4.82 5.92-2.58 6.85.39-.67 3.49-5.2 2.58-6.85z" fill="#bf4159"/><path d="m134.33 120.23c-.07-.13-4.57 4.44-1.52 3.62-.38-.85 2.72-2.09 1.52-3.62z" fill="#bf4159"/><path d="m129.76 123.74c.14.44-3.82 4.3-1.31 5.21.01-1.03 1.41-2.06 1.31-5.21z" fill="#bf4159"/><path d="m147 66.55c-1-1 .67 5.18 2.51 3.49-.26-.84-.44-1.61-2.51-3.49z" fill="#bf4159"/><path d="m127.28 149.13c.25-.35-1.23-6.73-.91-.28-.37.47 1.2 7.07.91.28z" fill="#bf4159"/><path d="m128 159.32c-.84.24-2.11 4.79-.1 4.79.24-.88.46-1.69.1-4.79z" fill="#bf4159"/><path d="m124.86 159.71c.25 1.6-.22 2.28 0 0 .7-3.79-3.31-2.43 0 0z" fill="#bf4159"/><path d="m125 168.52c-.24.45-2 3.1-.79 5.67.84-1.05 1.65-1.88.79-5.67z" fill="#bf4159"/><path d="m126.73 172.15c-.39-1-1.81 9.81.31 3-.28-.8.76-.34-.31-3z" fill="#bf4159"/><path d="m123.63 180.77c-.42-.57-2.54 3.42-1.24 4.8 1.07-.57 1.31-1.7 1.24-4.8z" fill="#bf4159"/><path d="m121 179.92c-1.18.6-1.62 6.76.17 2.06-.34-.17.88-.98-.17-2.06z" fill="#bf4159"/><path d="m121.38 190.72c.83.67-4.43 5.47-1.55 6.06.56-.5 2.95-4.84 1.55-6.06z" fill="#bf4159"/><path d="m119.7 187.5c.71-1.27-3.78 2-.79 3.33.2-.83.26.35.79-3.33z" fill="#bf4159"/><path d="m117.62 202.72c.42.64-4 3.24-1.44 4.5-.06-.62 2.95-2.85 1.44-4.5z" fill="#bf4159"/><path d="m116.45 194.26c-2.41.19-1 7.89.09.75.32-.16.35-.71-.09-.75z" fill="#bf4159"/><path d="m114 201.79c.71-.1.56.26 0 0-1.36.49-1.41 5.15 0 0z" fill="#bf4159"/><path d="m109.69 210.84c.16.68-4.48 1-2.56 3 .16-.45 3.32-1.1 2.56-3z" fill="#bf4159"/><path d="m109.94 205.83c.64-.07.57.27 0 0-2.19 1.33-1.68 5.23 0 0z" fill="#bf4159"/><path d="m102.82 214.64c.71-.22-6.82 1.23-1.58 1.67-.18-.37 1.96.28 1.58-1.67z" fill="#bf4159"/><path d="m144.91 73.07c-.49-3.64-3.18-3.47-.49 2.37.38-.34.68-.68.49-2.37z" fill="#45654c"/><path d="m144.36 78.22c.39-.34-2.11-.27-.81 6 .8-.98 1.33-2.99.81-6z" fill="#45654c"/><path d="m141.18 73.51c-1-1.44-2.34 6.36.21 3.71.226755-1.2357247.154753-2.5077569-.21-3.71z" fill="#45654c"/><path d="m140 81.4c-.4-1-4.06 6.7-1 4.68.84-1.61 1.17-1.92 1-4.68z" fill="#45654c"/><path d="m140.3 89.38c.3 1.22-1.58-.43-2.45 5.28.65-1.38 2.32-.43 2.45-5.28z" fill="#45654c"/><path d="m136.72 90.86c0 .2-4.18 3.86-1.22 3.57-.13-.5 2.5-2.43 1.22-3.57z" fill="#45654c"/><path d="m132 92.7c-.84 0-6.68 8.67-1.24 2.78-.11-.81 1.24.02 1.24-2.78z" fill="#45654c"/><path d="m133.72 85.33c-.1-.76-3 6.14-.12 2.37-.35-.39 1.26-.65.12-2.37z" fill="#45654c"/><path d="m139 67.2c-.86-2.58-4.66-1.46.23 2.58.27-.47.44-.91-.23-2.58z" fill="#45654c"/><path d="m135.15 101.26c.61.18-4.94 4.69-2 5 .03-1.11 1.22.53 2-5z" fill="#45654c"/><path d="m133.37 98.52c-.26-.37-3.84 4.89-1.09 4-.47-.37 2.04-1.33 1.09-4z" fill="#45654c"/><path d="m127.49 110.21c-1.29.16-2.78 5.81-.12 2-.45 0 1.56-1.21.12-2z" fill="#45654c"/><path d="m126.91 102.58c-1.1 0-4.21 7.71-.9 4.11-.13-1.09 1.45-.9.9-4.11z" fill="#45654c"/><path d="m120.88 109.48c-1.23.37-2.14 5.39.15 1.73-.31.01 1.36-1.85-.15-1.73z" fill="#45654c"/><path d="m121.14 116.84c-.62-.82-3.14 6.44-.72 2.4-.42-.61 1.37-.24.72-2.4z" fill="#45654c"/><path d="m123.79 119.17c-1.44-.41-3.19 8.78-.57 2.62-.4-.6 1.4-.31.57-2.62z" fill="#45654c"/><path d="m117.11 148.15c0-.26-2.84 1.76-.7 6.4.67-1.31.92-2.85.7-6.4z" fill="#45654c"/><path d="m116.21 159.19c.24 1.73-1.45 1.34-.59 6.07.74-.46 2.43-5.85.59-6.07z" fill="#45654c"/><path d="m113 154.62c.28-.39-2.44-.18-.56 5.18.99-1.72 1.05-.69.56-5.18z" fill="#45654c"/><path d="m114.4 171.11c.31-1.87-3.15 4.11-.86 5.42.93-1.98.87-.79.86-5.42z" fill="#45654c"/><path d="m112.36 165c0 1.93-.11 2.84 0 0-2.49-1.42-1.36 9.78 0 0z" fill="#45654c"/><path d="m108.48 167.51c-.5-.36-2.25 3.64-1 5 1.12-.59 1.4-1.67 1-5z" fill="#45654c"/><path d="m108.27 177.83c-.13-1.27-3 10.28.23 3.39-.5-.61 1.44-.95-.23-3.39z" fill="#45654c"/><path d="m111 184.05c.84.55-3.25 1.66-1.89 4.85.01-.84 1.44.31 1.89-4.85z" fill="#45654c"/><path d="m105.55 194.76c.52.64-4.17 3.54-2.87 5.36.86.08 4.75-4.32 2.87-5.36z" fill="#45654c"/><path d="m103.54 189.61c-.15-.2-2.85 7 .38 2.55-.36-.03 1.41-1.71-.38-2.55z" fill="#45654c"/><path d="m102.1 186.32c-.4-1.34-5 7.38-1.19 4.43.949355-1.269779 1.375296-2.855427 1.19-4.43z" fill="#45654c"/><path d="m98.49 199.66c-1.3.55-8.62 5.49-.51 1.89-.23-.32 2.33-1.76.51-1.89z" fill="#45654c"/><path d="m97.9 206.51c-.83 1.47-3.17-.42-5.59 2.75.69.74 6.51-.68 5.59-2.75z" fill="#45654c"/><path d="m89.37 206c.59.55-6.61-1.09-3.71 1.56.23-.46 2.74 1.52 3.71-1.56z" fill="#45654c"/><path d="m90 212.65c-1.48 1.34-5.72-3.46-6.86-.34.49 1.06 6.49 2.69 6.86.34z" fill="#45654c"/><g fill="#cc4425"><path d="m128.75 69.27c.12-.17-.15-.16-.47 0-1.62-.54-1.63 8.18.47 0z"/><path d="m124.13 70.79c-.13-.05-3.16 1.82-2.32 6 1.04-1.05 2.19-1.91 2.32-6z"/><path d="m124 78.85c-.29-.24-4 6.71-.65 4.05-.35-.81 1.74-.98.65-4.05z"/><path d="m117.43 82.52c-1.15.27-4.65 9.46 0 2.66-.32-.18 1.49-1.18 0-2.66z"/><path d="m118.13 89.81c.32-.4-4.08 6.44-.78 4.42-.26-1.02 1.65-.72.78-4.42z"/><path d="m113.71 100.24c.83.76-3.36 1.08-2.19 5.36.37-1.22 2.48-.53 2.19-5.36z"/><path d="m111.28 96.54c.73.67-2.75 1.09-1.41 5.33.2-.98 2.66-1.03 1.41-5.33z"/><path d="m110 91.36c-1.06.77-3.43 7.75.21 2.58-.73.32 2-2.35-.21-2.58z"/><path d="m103.26 104c.39-.09-5.14 6.31-1 4.22-.35-.69 2.27-.77 1-4.22z"/><path d="m105.8 109c.23.14-4.53 5.72-1.23 5.37-.05-.87 2.65-2.97 1.23-5.37z"/><path d="m105.65 115.56c0 .82-4.23 5.12-1.61 5.91.47-1.75 1.81-.56 1.61-5.91z"/><path d="m100.83 127.2c-.2.52-4.45 7.44-1 6.39-.03-1.8 1.97-1.4 1-6.39z"/><path d="m99.71 120.86c-.42-.25-4.43 6.51-1.13 5.28-.08-.47 1.53-3.67 1.13-5.28z"/><path d="m97.76 115.72c-.78-.34-4.77 7-1.09 4.82-.67-.62 1.81-1.17 1.09-4.82z"/><path d="m91.83 128.72c-.8 0-5.29 5.46-2.44 5.89 1.2189616-1.769641 2.0504383-3.776771 2.44-5.89z"/><path d="m92.56 136.1c.47.48-4.57 5.5-1.1 5.14.04-.4 2.83-4.01 1.1-5.14z"/><path d="m96 142.57c.11.11-3.94 7.09-.35 5.73-.36-.83 2.35-3.82.35-5.73z"/><path d="m89.25 148.59c.76.11-3.59 6-.46 5.84.21-.29 2.8-5.91.46-5.84z"/><path d="m91.33 157.49c-.13 1.1-3.45 5.4-1.66 7.6 1.64-.58 2.53-5.2 1.66-7.6z"/><path d="m85.14 159.37c.47.37-4 6.66-.31 4.66.23-.74 2.35-4.82.31-4.66z"/><path d="m86.45 142.81c-.91-.85-4.35 6.62-.94 5.33.14-1.24.54.25.94-5.33z"/><path d="m81.48 151.53c-.28-1.2-4 8.05-.5 4.72.7725494-1.448931.9518329-3.141367.5-4.72z"/><path d="m78.84 165.67c1.07.64-3.07 1.89-1.43 5.53.69.07 3.73-5.3 1.43-5.53z"/><path d="m84.61 171.69c.9.43-3.65 3.28-1.65 5.94.84-.21 3.66-5.36 1.65-5.94z"/><path d="m89.48 172.07c.73 0-3.9 5.12-.88 6 .16-.39 3.12-5.82.88-6z"/><path d="m83.72 184.58c.47.38-3.65 4.42-1.55 5.73.83-.1 3.92-5.52 1.55-5.73z"/><path d="m77.47 177.26c.09-.75-5.1 5.52-3.11 6.49 1.99-.27 3.37-3.48 3.11-6.49z"/><path d="m79 184.06c-.44 1-7.69 7-2.07 4.84.45-.79 4.46-4.11 2.07-4.84z"/><path d="m78.25 196.79c-.06.9-7.5 4.63-3.6 5.53.18-.62 5.66-4.22 3.6-5.53z"/><path d="m73.86 195.58c-.71 1.38-8.2 2.18-6.36 4.47 1.16.1 7.43-1.87 6.36-4.47z"/><path d="m71.16 205.55c-.38 1.27-8.84.56-5.74 3.5.83-.34 7.18-1.25 5.74-3.5z"/><path d="m66.18 203.68c-.2.74-8.64-1.61-6.56 1.88.71-.4 6.93.6 6.56-1.88z"/><path d="m59.57 211.93c-.91 1-8-3.75-7 0 .74.26 6.89 2.83 7 0z"/><path d="m54.36 206.28c-.45 1.12-7.51-3.57-6.42.36.57.11 6.81 2.19 6.42-.36z"/><path d="m69.9 189.82c.66.65-6.84 1.76-4.55 4.14.65.21 5.96-2.22 4.55-4.14z"/><path d="m60.51 195.58c-.07.73-9.81.61-4.74 2.77 1.01-.21 6.01-.67 4.74-2.77z"/><path d="m50 198.72c-.31.23-11.13-2.32-4.16 1.24.35-.04 5.59.61 4.16-1.24z"/><path d="m66.74 183.83c.39.39-6.85 1.58-3.59 3.59.41-.15 4.63-1.91 3.59-3.59z"/><path d="m54.9 189.81c-.5-.58-11.76 1.17-2.53 1.82-.78-.49 3.41.43 2.53-1.82z"/><path d="m41.51 193.31c-.37 1.09-4.92-3.73-5.35-.65.57.13 2.66 3.74 5.35.65z"/><path d="m42 202.74c-.41 1.11-5.1-3.59-5.92-.89.11.65 6.05 3.36 5.92.89z"/><path d="m43.55 209.45c-.49.48-9.1-5.67-5.19-.91.2.27 5.45 3.55 5.19.91z"/><path d="m70 173.46c.24.92-7.57 8.17-1.61 5.55.77-.89 3.93-4.68 1.61-5.55z"/><path d="m72.85 163.68c-1.32-.36-5 7.75-.65 2.61-.49-.46 1.89-.51.65-2.61z"/><path d="m56.31 183.44c-.56.51-10.54 2.25-3.37 3 .79-.74 4.92-1.13 3.37-3z"/><path d="m31.92 192.29c-.88.85-3.93-6.08-5.46-2.85.25.56 4.54 5.48 5.46 2.85z"/></g><path d="m116.89 48.79c-1.93-6.08-2.7 3-.25 3.26.377435-1.043886.463853-2.1707698.25-3.26z" fill="#64896c"/><path d="m115 43.51c-.24-.92-3.94-1-.95 1 .31.95 2.13 2.06.95-1z" fill="#64896c"/><path d="m118 49.48c-.2-1.08-.57 7.55 1.38.24-.02-.51-.23-.8-1.38-.24z" fill="#64896c"/><path d="m118.36 42.1c.44 2.12.27 1.42 0 0-1.7-3.1-.61 9.01 0 0z" fill="#64896c"/><path d="m121.56 44.14c-.81-.6-2.35 7.85-.09 4.17.25-.87 1.14-2.14.09-4.17z" fill="#64896c"/><path d="m128.44 52.77c1.11.2.8.72 0 0-.83.32-.79 3.69 0 0z" fill="#64896c"/><path d="m131.58 48.4c-.11-1.19-4 6-.34 1.91-.19-.15 1.14-.81.34-1.91z" fill="#64896c"/><path d="m133.91 44.46c-.27-.72-3.7 4.32-.29 1.52-.47.02 1.05-.98.29-1.52z" fill="#64896c"/><path d="m139 40.5c-.44-1-3.9 1.42-2.87 2.54.4-.52 2.28-.5 2.87-2.54z" fill="#64896c"/><path d="m134.37 41.35c-.81-1.08-5 5.83-.64 1.63-.01-.25.94-.34.64-1.63z" fill="#64896c"/><path d="m130.2 46.35c.3-.89-2.62 2.13-.69 2.3-.26-.51 1.49-1.04.69-2.3z" fill="#64896c"/><path d="m126.41 50.38c-1.1-.74-3.16 6.06-.2 1.74-.15-.18.95-.66.2-1.74z" fill="#64896c"/><path d="m129.88 43.59c-1.2-.57-3.73 5.35-.42 1.52-.09-.11.98-.51.42-1.52z" fill="#64896c"/><path d="m139.07 37.26c-.41-1.47-6 4.41-.22.94.316813-.2013293.414563-.6189868.22-.94z" fill="#64896c"/><path d="m135 36.94c-.84-.22-3 3.92-.25 1.41-.42-.03 1.25-.97.25-1.41z" fill="#64896c"/><path d="m139.23 31.73c0-1-4.88 4.22-.62 1.6-.1-.16 1.21-.51.62-1.6z" fill="#64896c"/><path d="m141.63 33.36c0-.79-4.78 1.64-3.44 2.76.02-.32 2.49-.74 3.44-2.76z" fill="#64896c"/></g></svg>