<svg height="122" viewBox="0 0 120 122" width="120" xmlns="http://www.w3.org/2000/svg"><g fill="none"><path d="m81.13 98.43c-3.5-16 27.3-37.55 36.19-31 0 0-16.61-18.42 2.51-34.56 0 0-25 12.93-25-11.91 0 0-18 15.91-23.77-9.85 0 0-14.68 11-27.4-11.08-2 26.34-14.28-2.15-31.6 7 19.64 13.94 3 34.82-7.73 33.89 0 0 25.23 22.17-1.78 30.29 0 0 27.73 8.47-2.53 33.23 0 0 27.55-10.89 37.18 17.63-.02-.07 17.33-35 43.93-23.64z" fill="#f59b3c"/><path d="m91.93 29.19c-5.93 4.54-10.11 16.86-17.14 25.41-3.69-9.6-9.59-23.69-6.79-34.32-5.86 9.58 2.6 24.55 5.86 35.72-3.3333333 4.84-6.7633333 9.62-10.29 14.34-6.1863843-8.3918451-11.8632676-17.1476026-17-26.22 1.0397968-3.1463439 1.7404402-6.3947815 2.09-9.69 8.24-7 12-18.14.14-1.56.15-5.06.16-15.38-3-21 1.3 8.72 3.79 20.24 0 30.91-3.19-6.39-21.8-38.86-26.16-33.04 12.29 11.6 20.24 28.43 29 44.54-.71-.25-3.47 2.62-14.06-1-2.75-3.93-6-10.95-11-14.21 2.64 4.32 6.09 7.63 9.37 13.58-5.27-1.57-15.33-8.4-21.35-8.34 10.68 4.4 24.23 15 37.81 11.22 2.45 4.14 5.12 8.13 7.86 12.08-6.85.16-13.6 2.49-22.47 1.65-15.28-15.34-14.9-11.26-1.4-.05-44.93 1.34 7.79 1.57 25.39.61 2.72 3.93 3.89 5.36 8.47 12.23-11.6912158-.7333406-23.4115977.8642753-34.48 4.7-9.82-7.87-14.75-7.94-1 .38-28.5 13.16-20.79 11.67 1 1 .45.43 0 .13.84-.28 6.961667-2.2717394 14.1753759-3.6822412 21.48-4.2-6.29 6.35-16.37 18.24-16.8 27.29 4.22-9.17 10.31-19.46 19-27.42 2.41-.13 6.6 0 11 .2 35.75 66.26 56.84 23.66 39.84 23.71-5.89.16-5.08 10.69.31 6.21-12.92 8.24-28.55-20.51-34-27.71 8-20.42 49.05-29.58 21.41-22.17 10.49-17.1 5.2-16.4-1.66.81-3.7110438 1.9808958-7.1921185 4.3653314-10.38 7.11 6-19.51 1.11-13.51-1.24 1.09-3.58 3.29-7.08 7.36-9.05 11.73-2.9666667-4.3333333-5.9866667-8.6466667-9.06-12.94 5.77-7.68 11.53-15.73 17.46-25.1 3.31.44 17.58-.18 17-4.6-4.12 3.58-9.8 3.14-16.4 3.64 2.2-3.77 7.04-10.5 9.4-16.31z" fill="#ce752c"/><path d="m73.92 71c-2.78 1.9 3.22 6.39 2.53.53-.39-.44-.77-.86-2.53-.53z" fill="#ce752c"/><path d="m69.69 69.61c-.77.6 0 2 .87 1.37s-.05-1.98-.87-1.37z" fill="#ce752c"/><path d="m73.31 64.06c-1.31 3.15 4.69 4.84 3.54-.23-.59-.75-2.01-1.36-3.54.23z" fill="#ce752c"/><path d="m81 58.71c1.13.43.82 1 0 0-1-.19-.76 2.68 0 0z" fill="#ce752c"/><path d="m79.86 66.61c-1.16.9.07 3 1.3 2s-.07-2.95-1.3-2z" fill="#ce752c"/><path d="m39.08 93.31c-1.65-1.74-5.84 5.61.49 3.47.66-.78.91-1.37-.49-3.47z" fill="#ce752c"/><path d="m30 93.38c-2.55 1.75 3 5.86 2.32.49-.32-.39-.67-.78-2.32-.49z" fill="#ce752c"/><path d="m32.89 102.39c-1.07.84.06 2.79 1.21 1.91s-.1-2.79-1.21-1.91z" fill="#ce752c"/><path d="m27.56 99.87c-.65-.68-2.48 2.79.52 2.07.3-.44.51-.94-.52-2.07z" fill="#ce752c"/><path d="m23.15 97.53c-1.67-1.03-.55 3.37 0 0z" fill="#ce752c"/><path d="m42.09 90.55c-.95.55 2.2 2.94 0 0z" fill="#ce752c"/><g fill="#f4ae3d"><path d="m24.12 28.37c-4.07 2.78 4.72 9.36 3.71.78-.58-.63-1.13-1.25-3.71-.78z"/><path d="m21.34 34.93c-1.41-.52-1.9 3.71.92 1.83.19-.68.31-1.06-.92-1.83z"/><path d="m30.27 37.72c-1 .71 1.18 3.48 1.63.5-.31-.85.1-.16-1.63-.5z"/><path d="m26 23.59c-.63.48 0 1.63.71 1.11s-.05-1.63-.71-1.11z"/><path d="m32.49 32.81c-1.41-.77-1.77 3.4.58 1.19.07-.64.13-.12-.58-1.19z"/><path d="m16.75 39.86c1.16.42.7.26 0 0-1.48-.15.8 4.01 0 0z"/><path d="m33.86 43.54c-4.26 2.91 4.93 9.78 3.87.82-.6-.66-1.17-1.31-3.87-.82z"/><path d="m54.83 38.77c-4 2.36 3 9.42 4.24 1.89-.33-1.2-1.54-2.66-4.24-1.89z"/><path d="m62.68 48.28c-3.78 2.57 2.81 9.34 4.45 2.31-.51-2.32-1.01-2.83-4.45-2.31z"/><path d="m56.64 48.3c1.52-.23 1.92.4 0 0-1.57 0 1.23 5.7 0 0z"/><path d="m63.45 59.27c-.49.56-.67 1 .84 1.44.71-.48.92-1.07-.84-1.44z"/><path d="m58.76 56c-.51.49-.16.05.39.86.64-.44.17-.06-.39-.86z"/><path d="m61.52 34.25c-1 .78.06 2.64 1.14 1.8s-.05-2.64-1.14-1.8z"/><path d="m57 31.74c.51.46 1 .56 1.32-1.07-.51-.6-1.08-.75-1.32 1.07z"/><path d="m61.37 22.73c-1.17.91.07 3 1.31 2.07s-.06-3.03-1.31-2.07z"/><path d="m75.06 29.71c-3.8 2.59 2.84 9.4 4.48 2.33-.54-2.33-1.01-2.85-4.48-2.33z"/><path d="m79.28 39c.81.91.72 1.42 0 0-1.09-1.1-2.71 4 0 0z"/><path d="m74.74 39c-1.65-.49-.74 3.26 0 0z"/><path d="m72.37 26.24c-.56-.12-.06-.07-.82.66-.27.52 2.28 1.23.82-.66z"/><path d="m84.65 31.1c-1.05.81.06 2.73 1.18 1.86s-.06-2.73-1.18-1.86z"/><path d="m39 17.5c-2.22 1.72.13 5.76 2.49 3.93s-.17-5.76-2.49-3.93z"/><path d="m36.18 16.77c-.56.34-.12 1.35.52 1.11s.24-1.57-.52-1.11z"/><path d="m42.65 12.13c-1.85-.04.9 3.87 0 0z"/><path d="m42.55 26.22c-1.16.89.07 3 1.3 2.05s-.07-3.01-1.3-2.05z"/><path d="m35.09 76.67c-3.62.33-2 7.59 2.17 3.67.41-1.09.24-2.86-2.17-3.67z"/><path d="m28.21 76.39c-.86.66.05 2.21.95 1.51s-.05-2.22-.95-1.51z"/><path d="m21.82 75.11c-1.75.5 1.07 3.17 0 0z"/><path d="m20.33 86.09c.71.86.62 1.36 0 0-2.19-1.49-2.55 4.63 0 0z"/><path d="m14.86 75c-3.13 2.14 3.64 7.2 2.86.61-.45-.47-.87-.95-2.86-.61z"/><path d="m40.85 62.09c-2.23 1.73.13 5.79 2.51 4s-.13-5.84-2.51-4z"/><path d="m33.62 58.45c-1.85 1.43.1 4.79 2.07 3.27s-.11-4.79-2.07-3.27z"/><path d="m27.58 56.91c-.69.54 0 1.79.77 1.23s-.04-1.79-.77-1.23z"/><path d="m20.57 64.78c-.4 0-1.54 2.67 1.16 1.41.72-.77-.3-1.9-1.16-1.41z"/><path d="m47.9 59.72c-.11 0-.17.07-.15.15-2.58 1.84 3.1 1.63.15-.15z"/><path d="m44.84 75.25c-1.13.87.07 2.94 1.28 2s-.07-2.94-1.28-2z"/><path d="m37.6 73.05c-1.6.23.9 2.6 0 0z"/><path d="m42.25 79.73c-1 .81.06 2.7 1.17 1.84s-.06-2.7-1.17-1.84z"/></g></g></svg>